<svg preserveAspectRatio="xMidYMid meet" width="100%" height="100%" overflow="visible" style="display: block;" viewBox="0 0 204.999 68" fill="none" xmlns="http://www.w3.org/2000/svg">
<g id="Group">
<path id="Vector" d="M100.75 67.1936V38.594H108.622V67.2142H100.75V67.1936Z" fill="var(--fill-0, #71B219)"/>
<path id="Vector_2" d="M114.751 52.9038C114.751 50.9215 115.141 48.9391 115.94 47.122C116.699 45.3461 117.785 43.7354 119.138 42.3726C120.533 41.0097 122.193 39.9153 124.018 39.1926C127.913 37.6232 132.26 37.6232 136.155 39.1926C137.959 39.9153 139.599 40.9891 140.994 42.3519C142.347 43.6941 143.413 45.3048 144.151 47.0807C144.93 48.9185 145.32 50.9008 145.32 52.9038C145.34 54.8862 144.93 56.8685 144.151 58.6857C143.392 60.4615 142.306 62.0722 140.953 63.4351C139.558 64.7979 137.898 65.8717 136.094 66.5944C131.583 68.4116 126.499 68.1018 122.214 65.7684C117.56 63.2079 114.689 58.252 114.751 52.9038ZM122.829 52.9038C122.788 54.9275 123.526 56.8685 124.899 58.3553C126.212 59.842 128.118 60.6887 130.107 60.6267C132.239 60.6267 133.982 59.8833 135.315 58.3759C138.021 55.2372 138 50.5498 135.274 47.4317C133.941 45.9243 132.034 45.0983 130.025 45.1603C128.057 45.0983 126.15 45.9243 124.838 47.411C123.485 48.9185 122.767 50.8802 122.829 52.9038Z" fill="var(--fill-0, #71B219)"/>
<path id="Vector_3" d="M152.102 67.1936V38.594H159.462L171.127 53.7301V38.594H178.918V67.2142H172.03L159.892 51.5412V67.2142H152.102V67.1936Z" fill="var(--fill-0, #71B219)"/>
<path id="Vector_4" d="M49.4313 49.0014V54.8452C49.4313 56.8275 48.9597 58.3143 48.0371 59.3055C47.1146 60.2966 45.8024 60.7922 44.1418 60.7922C42.4811 60.7922 41.1895 60.276 40.2669 59.2435C39.3238 58.211 38.8727 56.683 38.8727 54.6593V38.594H30.8359V54.8039C30.8359 59.2229 32.0046 62.5268 34.3213 64.7156C36.638 66.9045 39.8978 67.9989 44.0803 67.9989C45.9459 68.0195 47.8321 67.7511 49.6158 67.1936C51.174 66.698 52.6091 65.8926 53.8392 64.7982C55.0693 63.6418 56.0124 62.217 56.5455 60.6064C57.2016 58.6653 57.5296 56.6417 57.4886 54.5767V48.9807L49.4313 49.0014Z" fill="var(--fill-0, #71B219)"/>
<path id="Vector_5" d="M57.4069 38.594H49.3906V46.668H57.4069V38.594Z" fill="var(--fill-0, #539100)"/>
<path id="Vector_6" d="M10.375 0.454105V7.51623V29.4253H18.3298V7.51623H26.9817V0.454105H10.375Z" fill="var(--fill-0, #71B219)"/>
<path id="Vector_7" d="M8.0368 0.454105H0V8.5487H8.0368V0.454105Z" fill="var(--fill-0, #539100)"/>
<path id="Vector_8" d="M65.4219 67.1936V38.594H72.7821L84.4478 53.7301V38.594H92.218V67.2142H85.3499L73.2126 51.5412V67.2142H65.4219V67.1936Z" fill="var(--fill-0, #71B219)"/>
<path id="Vector_9" d="M30.0156 29.0751V0.227784H43.5265C47.6884 0.227784 50.7842 1.26026 52.8344 3.34586C54.5156 5.05976 55.3561 7.35186 55.3561 10.2221C55.3561 12.3284 54.8436 14.1249 53.8185 15.591C52.7319 17.0984 51.2352 18.2754 49.5131 18.9775L56.3402 29.0751H47.1963L41.4148 20.3197H37.9499V29.0958L30.0156 29.0751ZM37.9499 14.0836H43.1984C44.5516 14.0836 45.5972 13.7738 46.3352 13.1544C47.0938 12.5349 47.5039 11.585 47.4629 10.6145C47.4629 9.52005 47.0938 8.67342 46.3352 8.11589C45.5767 7.5377 44.5311 7.24861 43.1779 7.24861H37.9499V14.0836Z" fill="var(--fill-0, #71B219)"/>
<path id="Vector_10" d="M57.6328 29.075L69.729 0.24827H77.3148L89.411 29.075H80.9641L78.8934 23.9745H67.9658L65.9361 29.075H57.6328ZM70.2621 17.8003H76.6382L73.4604 9.66444L70.2621 17.8003Z" fill="var(--fill-0, #71B219)"/>
<path id="Vector_11" d="M92.8906 29.074V0.453796H103.859C106.155 0.412497 108.452 0.784187 110.625 1.50692C112.491 2.1264 114.213 3.11758 115.668 4.43915C117.022 5.69876 118.067 7.24748 118.785 8.94073C119.523 10.7579 119.892 12.7196 119.871 14.7019C119.892 16.6636 119.523 18.6047 118.764 20.4218C118.047 22.1358 116.981 23.7051 115.627 24.9647C114.151 26.307 112.409 27.3394 110.522 27.9796C108.329 28.7229 106.012 29.0946 103.695 29.074H92.8906ZM100.763 22.1151H103.962C106.36 22.1151 108.247 21.475 109.661 20.1741C111.076 18.8938 111.773 17.0766 111.773 14.7432C111.773 12.4718 111.055 10.6753 109.641 9.37437C108.226 8.07346 106.319 7.41267 103.941 7.41267H100.743V22.1151H100.763Z" fill="var(--fill-0, #71B219)"/>
<path id="Vector_12" d="M124.656 29.0743V0.454105H147.496V7.20649H132.447V11.5429H146.081V17.7997H132.447V22.3219H147.701V29.0743H124.656Z" fill="var(--fill-0, #71B219)"/>
<path id="Vector_13" d="M152.367 29.1777V0.371673H165.858C170.019 0.371673 173.115 1.40415 175.145 3.48975C176.826 5.20365 177.667 7.49575 177.667 10.366C177.667 12.4723 177.154 14.2688 176.129 15.7349C175.042 17.2423 173.546 18.4193 171.824 19.1214L178.651 29.1984H169.507L163.746 20.443H160.281V29.1984L152.367 29.1777ZM160.281 14.2068H165.509C166.862 14.2068 167.887 13.8971 168.646 13.2776C169.404 12.6581 169.814 11.7082 169.753 10.7377C169.753 9.64329 169.384 8.79666 168.625 8.23913C167.867 7.66094 166.821 7.37185 165.468 7.37185H160.281V14.2068Z" fill="var(--fill-0, #71B219)"/>
<path id="Vector_14" d="M180.211 24.8207L184.598 19.5551C187.448 21.8472 190.523 22.9829 193.824 22.9829C194.87 22.9829 195.669 22.797 196.223 22.446C196.756 22.1362 197.084 21.5374 197.043 20.9179C197.043 20.2984 196.715 19.8029 196.059 19.4312C195.403 19.0388 194.152 18.6258 192.266 18.1922C191.303 17.9651 190.462 17.7586 189.765 17.5727C189.047 17.3869 188.309 17.1391 187.51 16.85C186.813 16.6022 186.116 16.2924 185.48 15.9414C184.906 15.611 184.352 15.2187 183.84 14.785C183.348 14.372 182.917 13.8765 182.569 13.3189C182.22 12.7407 181.974 12.1212 181.81 11.4811C181.605 10.7171 181.523 9.95305 181.523 9.16837C181.462 6.62849 182.548 4.19185 184.516 2.56054C186.505 0.867278 189.191 0 192.553 0C197.207 0 201.103 1.25962 204.239 3.79951L200.282 9.39552C197.638 7.51641 194.972 6.58719 192.348 6.58719C191.426 6.58719 190.728 6.77303 190.236 7.12407C189.765 7.43381 189.498 7.95005 189.498 8.50759C189.498 9.16837 189.888 9.76721 190.482 10.0563C191.139 10.428 192.451 10.841 194.398 11.2953C195.895 11.605 197.392 12.0386 198.827 12.5549C199.995 12.9885 201.103 13.5667 202.107 14.2894C203.03 14.9296 203.788 15.7969 204.28 16.8087C204.772 17.9031 205.018 19.1008 204.998 20.2984C204.998 23.1894 203.952 25.4608 201.861 27.1334C199.77 28.806 196.982 29.632 193.496 29.632C191.016 29.6527 188.555 29.2397 186.198 28.4343C184.004 27.6084 181.954 26.39 180.211 24.8207Z" fill="var(--fill-0, #71B219)"/>
</g>
</svg>
