<svg preserveAspectRatio="xMidYMid meet" width="100%" height="100%" overflow="visible" style="display: block;" viewBox="0 0 210.98 69.9374" fill="none" xmlns="http://www.w3.org/2000/svg">
<g id="Group">
<path id="Vector" d="M103.685 69.108V39.6936H111.788V69.1292H103.685V69.108Z" fill="var(--fill-0, #71B219)"/>
<path id="Vector_2" d="M118.097 54.4114C118.097 52.3726 118.498 50.3337 119.32 48.4648C120.101 46.6384 121.219 44.9818 122.612 43.5801C124.047 42.1784 125.756 41.0528 127.634 40.3095C131.643 38.6954 136.116 38.6954 140.125 40.3095C141.982 41.0528 143.67 42.1572 145.105 43.5589C146.497 44.9393 147.594 46.5959 148.354 48.4223C149.156 50.3125 149.557 52.3513 149.557 54.4114C149.578 56.4502 149.156 58.4891 148.354 60.358C147.573 62.1845 146.455 63.841 145.062 65.2427C143.628 66.6444 141.919 67.7488 140.062 68.4921C135.42 70.361 130.187 70.0425 125.777 67.6426C120.987 65.0091 118.033 59.912 118.097 54.4114ZM126.41 54.4114C126.368 56.4927 127.127 58.4891 128.541 60.0182C129.892 61.5473 131.854 62.4181 133.901 62.3544C136.095 62.3544 137.888 61.5898 139.26 60.0394C142.045 56.8113 142.024 51.9903 139.218 48.7834C137.846 47.233 135.884 46.3835 133.816 46.4472C131.791 46.3835 129.828 47.233 128.478 48.7621C127.085 50.3125 126.347 52.3301 126.41 54.4114Z" fill="var(--fill-0, #71B219)"/>
<path id="Vector_3" d="M156.541 69.108V39.6936H164.116L176.122 55.2609V39.6936H184.14V69.1292H177.05L164.559 53.0097V69.1292H156.541V69.108Z" fill="var(--fill-0, #71B219)"/>
<path id="Vector_4" d="M50.8721 50.3975V56.4078C50.8721 58.4466 50.3868 59.9757 49.4373 60.9951C48.4878 62.0146 47.1374 62.5243 45.4283 62.5243C43.7192 62.5243 42.3899 61.9933 41.4404 60.9314C40.4698 59.8695 40.0056 58.2979 40.0056 56.2166V39.6936H31.7344V56.3653C31.7344 60.9102 32.9371 64.3083 35.3214 66.5595C37.7057 68.8107 41.0606 69.9363 45.365 69.9363C47.2851 69.9575 49.2263 69.6814 51.062 69.108C52.6656 68.5983 54.1426 67.77 55.4086 66.6444C56.6746 65.4551 57.6452 63.9897 58.1938 62.3331C58.869 60.3368 59.2066 58.2555 59.1644 56.1317V50.3762L50.8721 50.3975Z" fill="var(--fill-0, #71B219)"/>
<path id="Vector_5" d="M59.08 39.6936H50.8299V47.9976H59.08V39.6936Z" fill="var(--fill-0, #539100)"/>
<path id="Vector_6" d="M10.6766 0.466814V7.73016V30.2635H18.8634V7.73016H27.7676V0.466814H10.6766Z" fill="var(--fill-0, #71B219)"/>
<path id="Vector_7" d="M8.2712 0.466814H5.90403e-10V8.79206H8.2712V0.466814Z" fill="var(--fill-0, #539100)"/>
<path id="Vector_8" d="M67.3301 69.108V39.6936H74.905L86.9109 55.2609V39.6936H94.9078V69.1292H87.8393L75.3481 53.0097V69.1292H67.3301V69.108Z" fill="var(--fill-0, #71B219)"/>
<path id="Vector_9" d="M30.8904 29.9035V0.234203H44.7953C49.0786 0.234203 52.2647 1.2961 54.3747 3.44112C56.1049 5.20386 56.97 7.56126 56.97 10.5133C56.97 12.6796 56.4425 14.5273 55.3875 16.0352C54.2692 17.5855 52.7289 18.7961 50.9565 19.5182L57.9828 29.9035H48.5722L42.622 20.8986H39.0561V29.9247L30.8904 29.9035ZM39.0561 14.4848H44.4577C45.8503 14.4848 46.9264 14.1662 47.686 13.5291C48.4667 12.892 48.8887 11.915 48.8465 10.9168C48.8465 9.79124 48.4667 8.92049 47.686 8.34707C46.9053 7.75241 45.8292 7.45508 44.4366 7.45508H39.0561V14.4848Z" fill="var(--fill-0, #71B219)"/>
<path id="Vector_10" d="M59.3121 29.9029L71.7611 0.254854H79.5681L92.0171 29.9029H83.3239L81.1928 24.6572H69.9465L67.8576 29.9029H59.3121ZM72.3097 18.307H78.8718L75.6013 9.93932L72.3097 18.307Z" fill="var(--fill-0, #71B219)"/>
<path id="Vector_11" d="M95.6041 29.9025V0.466821H106.893C109.256 0.424345 111.619 0.806627 113.856 1.54995C115.776 2.18709 117.548 3.20651 119.046 4.56573C120.439 5.86124 121.515 7.45408 122.253 9.19558C123.013 11.0645 123.393 13.0821 123.372 15.1209C123.393 17.1385 123.013 19.1349 122.232 21.0038C121.494 22.7666 120.397 24.3807 119.004 25.6762C117.485 27.0566 115.691 28.1185 113.75 28.7769C111.492 29.5415 109.108 29.9237 106.724 29.9025H95.6041ZM103.707 22.7453H106.998C109.467 22.7453 111.408 22.087 112.864 20.749C114.32 19.4322 115.037 17.5633 115.037 15.1634C115.037 12.8273 114.299 10.9796 112.843 9.64158C111.387 8.30359 109.425 7.62398 106.977 7.62398H103.685V22.7453H103.707Z" fill="var(--fill-0, #71B219)"/>
<path id="Vector_12" d="M128.288 29.9025V0.466814H151.793V7.41159H136.306V11.8715H150.338V18.3066H136.306V22.9577H152.004V29.9025H128.288Z" fill="var(--fill-0, #71B219)"/>
<path id="Vector_13" d="M156.815 30.0091V0.382282H170.699C174.982 0.382282 178.168 1.44417 180.257 3.5892C181.988 5.35194 182.853 7.70934 182.853 10.6614C182.853 12.8277 182.325 14.6754 181.27 16.1833C180.152 17.7336 178.612 18.9442 176.839 19.6663L183.865 30.0303H174.455L168.526 21.0255H164.96V30.0303L156.815 30.0091ZM164.96 14.6116H170.34C171.733 14.6116 172.788 14.2931 173.569 13.6559C174.349 13.0188 174.771 12.0419 174.708 11.0437C174.708 9.91808 174.328 9.04733 173.548 8.47391C172.767 7.87925 171.691 7.58192 170.298 7.58192H164.96V14.6116Z" fill="var(--fill-0, #71B219)"/>
<path id="Vector_14" d="M185.469 25.5279L189.984 20.1123C192.917 22.4697 196.082 23.6377 199.479 23.6377C200.555 23.6377 201.378 23.4466 201.948 23.0856C202.497 22.767 202.834 22.1511 202.792 21.514C202.792 20.8768 202.454 20.3671 201.779 19.9848C201.104 19.5813 199.817 19.1566 197.876 18.7106C196.884 18.4769 196.019 18.2646 195.302 18.0734C194.563 17.8823 193.803 17.6274 192.981 17.3301C192.263 17.0752 191.546 16.7567 190.892 16.3956C190.301 16.0558 189.731 15.6523 189.204 15.2063C188.697 14.7816 188.254 14.2718 187.895 13.6984C187.537 13.1038 187.284 12.4666 187.115 11.8083C186.904 11.0225 186.819 10.2366 186.819 9.42961C186.756 6.81735 187.874 4.31129 189.9 2.63349C191.947 0.89199 194.711 0 198.171 0C202.961 0 206.97 1.29551 210.198 3.90777L206.126 9.66323C203.404 7.73058 200.661 6.77488 197.96 6.77488C197.011 6.77488 196.293 6.96602 195.787 7.32706C195.302 7.64563 195.027 8.17658 195.027 8.75C195.027 9.42961 195.428 10.0455 196.04 10.3428C196.715 10.7251 198.066 11.1499 200.07 11.6171C201.61 11.9357 203.151 12.3817 204.628 12.9126C205.83 13.3586 206.97 13.9533 208.004 14.6966C208.953 15.355 209.734 16.247 210.24 17.2876C210.747 18.4132 211 19.645 210.979 20.8768C210.979 23.8501 209.903 26.1863 207.751 27.9065C205.598 29.6268 202.729 30.4763 199.142 30.4763C196.589 30.4976 194.057 30.0728 191.63 29.2445C189.372 28.395 187.262 27.142 185.469 25.5279Z" fill="var(--fill-0, #71B219)"/>
</g>
</svg>
