<svg preserveAspectRatio="none" width="100%" height="100%" overflow="visible" style="display: block;" viewBox="0 0 19 14" fill="none" xmlns="http://www.w3.org/2000/svg"><g id="AE"><mask id="path-1-inside-1_0_120" fill="white"><path d="M18 2L18 2L18 4L19 5L18 5L18 5L18 5L18 5L18 5L18 6L17 6L17 5L17 5L17 5L17 5L17 5L17 5L17 5L17 5L17 5L16 5L16 5L16 6L16 6L16 6L16 6L16 7L16 7L16 7L16 7L16 8L16 8L17 8L17 8L17 8L17 8L17 9L16 9L16 9L15 9L15 9L15 9L15 9L15 10L15 10L15 10L15 11L15 11L14 12L14 13L14 13L14 14L14 14L14 14L14 14L13 14L13 14L13 14L12 14L12 14L11 14L10 14L10 14L9 14L8 14L7 14L6 14L6 13L5 13L4 13L4 13L4 13L4 13L4 13L3 13L3 12L3 12L3 12L3 12L2 11L2 11L2 11L2 10L2 10L1 10L1 10L1 9L1 9L0 9L0 9L0 8L0 8L0 8V8L0 7L0 8L0 8L1 8L1 8L1 8L1 9L1 9L2 9L3 9L4 8L4 8L6 8L7 8L9 8L9 8L10 8L11 8L11 8L11 7L11 7L12 6L12 6L12 6L12 6L12 5L14 4L14 4L14 3L15 3L15 2L17 1L17 1L17 0L17 0L18 0L18 0L18 0L18 1L18 1L18 2L18 2L18 2L18 2L18 2ZM18 4L18 3L18 3L18 3L18 3L18 4L18 4L18 4ZM11 7L11 7L11 7L11 7L11 7L11 7L11 7L11 7L11 7ZM7 8L6 8L6 8L7 7L7 7L7 7L7 7L7 7L7 8L7 8ZM4 8L4 8L4 7L4 7L4 7L4 7L4 8ZM9 8L9 8L9 8L9 8L8 8L8 8L8 8L9 8L9 8L9 8Z"/></mask><path d="M18 2L18 2L18 4L19 5L18 5L18 5L18 5L18 5L18 5L18 6L17 6L17 5L17 5L17 5L17 5L17 5L17 5L17 5L17 5L17 5L16 5L16 5L16 6L16 6L16 6L16 6L16 7L16 7L16 7L16 7L16 8L16 8L17 8L17 8L17 8L17 8L17 9L16 9L16 9L15 9L15 9L15 9L15 9L15 10L15 10L15 10L15 11L15 11L14 12L14 13L14 13L14 14L14 14L14 14L14 14L13 14L13 14L13 14L12 14L12 14L11 14L10 14L10 14L9 14L8 14L7 14L6 14L6 13L5 13L4 13L4 13L4 13L4 13L4 13L3 13L3 12L3 12L3 12L3 12L2 11L2 11L2 11L2 10L2 10L1 10L1 10L1 9L1 9L0 9L0 9L0 8L0 8L0 8V8L0 7L0 8L0 8L1 8L1 8L1 8L1 9L1 9L2 9L3 9L4 8L4 8L6 8L7 8L9 8L9 8L10 8L11 8L11 8L11 7L11 7L12 6L12 6L12 6L12 6L12 5L14 4L14 4L14 3L15 3L15 2L17 1L17 1L17 0L17 0L18 0L18 0L18 0L18 1L18 1L18 2L18 2L18 2L18 2L18 2ZM18 4L18 3L18 3L18 3L18 3L18 4L18 4L18 4ZM11 7L11 7L11 7L11 7L11 7L11 7L11 7L11 7L11 7ZM7 8L6 8L6 8L7 7L7 7L7 7L7 7L7 7L7 8L7 8ZM4 8L4 8L4 7L4 7L4 7L4 7L4 8ZM9 8L9 8L9 8L9 8L8 8L8 8L8 8L9 8L9 8L9 8Z" fill="var(--fill-0,#71B219)" stroke="var(--stroke-0,white)" mask="url(#path-1-inside-1_0_120)"/></g></svg>