<svg preserveAspectRatio="none" width="100%" height="100%" overflow="visible" style="display: block;" viewBox="0 0 56 42" fill="none" xmlns="http://www.w3.org/2000/svg"><g id="AF"><mask id="path-1-inside-1_0_265" fill="white"><path d="M56 6L55 6L55 6L55 6L55 6L55 6L54 6L54 6L54 6L54 7L54 7L54 7L54 7L53 8L52 8L52 8L52 8L51 8L51 8L50 8L49 8L48 8L47 8L47 8L46 8L46 8L46 8L45 8L45 8L45 9L44 9L44 10L44 10L43 10L43 10L43 10L42 10L42 11L42 11L41 12L41 12L42 12L42 12L42 13L42 13L43 14L43 14L43 14L43 15L43 15L43 15V15L43 15L43 16L43 16L43 16L43 16L43 16L42 17L42 17L42 17L42 18L41 18L41 18L41 19L40 19L40 19L41 19L41 20L41 20L41 20L41 21L41 21L40 21L39 21L38 21L38 21L38 21L37 21L36 21L36 22L37 22L37 23L38 24L38 24L38 24L37 25L36 25L36 25L35 26L35 26L35 26L34 27L34 27L34 28L34 28L34 28L34 29L34 31L34 31L33 32L33 32L32 32L32 32L32 32L32 31L31 31L31 31L31 31L30 31L30 31L30 31L30 31L29 32L28 32L28 32L27 32L28 33L28 33L28 33L28 33L28 33L28 34L27 34L26 34L26 34L25 34L25 33L24 34L24 34L24 35L24 35L24 35L23 35L23 35L23 36L22 37L22 37L22 38L22 38L22 39L22 39L22 39L22 40L22 40L22 40L21 40L20 41L19 41L18 41L18 41L17 41L17 41L16 41L16 41L15 41L15 41L14 42L14 42L14 42L14 42L12 42L8 42L7 42L6 41L4 41L3 40L1 40L2 39L3 38L4 37L5 36L5 35L5 34L5 34L4 33L3 33L2 33L1 33L1 33L1 32L1 32L1 31L1 30L1 30L1 29L1 28L1 27L0 26L0 26L0 25L1 24L1 24L1 24L2 24L2 23L1 23L1 23L0 23L0 23L0 22L0 22L0 21L0 20L1 20L2 20L1 19L1 19L1 19L1 19L1 19L1 19L1 18L2 18L2 18L2 18L2 18L2 18L2 17L2 17L2 16L2 16L3 16L2 16L2 16L2 15L2 15L3 15L3 15L3 14L3 14L3 14L3 14L3 14L3 14L3 14L4 14L4 14L4 14L5 15L5 14L6 14L6 14L6 15L7 15L7 15L7 16L7 16L7 16L8 15L8 15L8 15L8 15L9 15L9 15L10 15L10 14L10 14L10 14L10 13L10 13L10 13L10 13L10 13L10 12H11L12 12L12 12L13 12L13 12L14 12L14 12L14 12L14 11L14 11L15 11L16 10L16 10L16 9L16 8L16 7L17 7L17 6L17 6L18 6L19 6L20 6L20 5L20 5L20 5L20 4L20 4L21 5L22 5L23 5L23 5L23 5L24 5L25 5L26 6L26 6L27 6L27 6L27 6L28 6L28 6L28 6L28 6L28 6L28 7L29 7L29 7L30 7L30 7L30 7L30 7L30 6L31 6L32 6L32 6L32 6L32 6L32 6L32 6L32 6L32 6L32 6L33 6L33 6L34 6L34 6L34 6L34 6L34 6L34 6L34 5L34 5L35 4L35 4L36 4L36 4L37 4L37 4L37 4L38 4L38 4L38 3L38 3L38 3L38 2L38 2L38 2L39 1L39 1L40 0L40 0L41 0L42 1L42 1L42 2L42 3L42 3L42 3L42 3L43 3L43 3L43 3L43 3L42 4L42 5L42 6L42 6L42 7L43 8L43 8L43 8L43 9L44 8L44 8L45 8L46 7L47 7L47 6L48 6L49 5L50 5L50 5L51 5L51 5L51 5L51 5L51 5L51 6L51 6L51 6L51 6L51 6L52 6L52 6L53 6L53 5L53 5L54 5L54 5L54 5L55 5L55 5L55 6L56 6L56 6Z"/></mask><path d="M56 6L55 6L55 6L55 6L55 6L55 6L54 6L54 6L54 6L54 7L54 7L54 7L54 7L53 8L52 8L52 8L52 8L51 8L51 8L50 8L49 8L48 8L47 8L47 8L46 8L46 8L46 8L45 8L45 8L45 9L44 9L44 10L44 10L43 10L43 10L43 10L42 10L42 11L42 11L41 12L41 12L42 12L42 12L42 13L42 13L43 14L43 14L43 14L43 15L43 15L43 15V15L43 15L43 16L43 16L43 16L43 16L43 16L42 17L42 17L42 17L42 18L41 18L41 18L41 19L40 19L40 19L41 19L41 20L41 20L41 20L41 21L41 21L40 21L39 21L38 21L38 21L38 21L37 21L36 21L36 22L37 22L37 23L38 24L38 24L38 24L37 25L36 25L36 25L35 26L35 26L35 26L34 27L34 27L34 28L34 28L34 28L34 29L34 31L34 31L33 32L33 32L32 32L32 32L32 32L32 31L31 31L31 31L31 31L30 31L30 31L30 31L30 31L29 32L28 32L28 32L27 32L28 33L28 33L28 33L28 33L28 33L28 34L27 34L26 34L26 34L25 34L25 33L24 34L24 34L24 35L24 35L24 35L23 35L23 35L23 36L22 37L22 37L22 38L22 38L22 39L22 39L22 39L22 40L22 40L22 40L21 40L20 41L19 41L18 41L18 41L17 41L17 41L16 41L16 41L15 41L15 41L14 42L14 42L14 42L14 42L12 42L8 42L7 42L6 41L4 41L3 40L1 40L2 39L3 38L4 37L5 36L5 35L5 34L5 34L4 33L3 33L2 33L1 33L1 33L1 32L1 32L1 31L1 30L1 30L1 29L1 28L1 27L0 26L0 26L0 25L1 24L1 24L1 24L2 24L2 23L1 23L1 23L0 23L0 23L0 22L0 22L0 21L0 20L1 20L2 20L1 19L1 19L1 19L1 19L1 19L1 19L1 18L2 18L2 18L2 18L2 18L2 18L2 17L2 17L2 16L2 16L3 16L2 16L2 16L2 15L2 15L3 15L3 15L3 14L3 14L3 14L3 14L3 14L3 14L3 14L4 14L4 14L4 14L5 15L5 14L6 14L6 14L6 15L7 15L7 15L7 16L7 16L7 16L8 15L8 15L8 15L8 15L9 15L9 15L10 15L10 14L10 14L10 14L10 13L10 13L10 13L10 13L10 13L10 12H11L12 12L12 12L13 12L13 12L14 12L14 12L14 12L14 11L14 11L15 11L16 10L16 10L16 9L16 8L16 7L17 7L17 6L17 6L18 6L19 6L20 6L20 5L20 5L20 5L20 4L20 4L21 5L22 5L23 5L23 5L23 5L24 5L25 5L26 6L26 6L27 6L27 6L27 6L28 6L28 6L28 6L28 6L28 6L28 7L29 7L29 7L30 7L30 7L30 7L30 7L30 6L31 6L32 6L32 6L32 6L32 6L32 6L32 6L32 6L32 6L32 6L33 6L33 6L34 6L34 6L34 6L34 6L34 6L34 6L34 5L34 5L35 4L35 4L36 4L36 4L37 4L37 4L37 4L38 4L38 4L38 3L38 3L38 3L38 2L38 2L38 2L39 1L39 1L40 0L40 0L41 0L42 1L42 1L42 2L42 3L42 3L42 3L42 3L43 3L43 3L43 3L43 3L42 4L42 5L42 6L42 6L42 7L43 8L43 8L43 8L43 9L44 8L44 8L45 8L46 7L47 7L47 6L48 6L49 5L50 5L50 5L51 5L51 5L51 5L51 5L51 5L51 6L51 6L51 6L51 6L51 6L52 6L52 6L53 6L53 5L53 5L54 5L54 5L54 5L55 5L55 5L55 6L56 6L56 6Z" fill="var(--fill-0,#71B219)" stroke="var(--stroke-0,white)" mask="url(#path-1-inside-1_0_265)"/></g></svg>