<svg preserveAspectRatio="none" width="100%" height="100%" overflow="visible" style="display: block;" viewBox="0 0 0.695437 0.395032" fill="none" xmlns="http://www.w3.org/2000/svg">
<g id="AI">
<mask id="path-1-inside-1_0_112" fill="white">
<path d="M0.612974 0.192053L0 0.395032L0.0247471 0.278452L0.516796 0L0.695437 0.0192137L0.612974 0.192053Z"/>
</mask>
<path d="M0.612974 0.192053L0 0.395032L0.0247471 0.278452L0.516796 0L0.695437 0.0192137L0.612974 0.192053Z" fill="var(--fill-0, #71B219)"/>
<path d="M0.612974 0.192053L0.77015 0.666707L0.972471 0.59971L1.06424 0.407356L0.612974 0.192053ZM0 0.395032L-0.489102 0.291207L-0.670047 1.14361L0.157175 0.869685L0 0.395032ZM0.0247471 0.278452L-0.221508 -0.156701L-0.417574 -0.0457467L-0.464355 0.174627L0.0247471 0.278452ZM0.516796 0L0.570265 -0.497133L0.41044 -0.514323L0.270541 -0.435153L0.516796 0ZM0.695437 0.0192137L1.14671 0.234517L1.45061 -0.402448L0.748906 -0.477919L0.695437 0.0192137ZM0.612974 0.192053L0.455799 -0.2826L-0.157175 -0.0796216L0 0.395032L0.157175 0.869685L0.77015 0.666707L0.612974 0.192053ZM0 0.395032L0.489102 0.498857L0.513849 0.382277L0.0247471 0.278452L-0.464355 0.174627L-0.489102 0.291207L0 0.395032ZM0.0247471 0.278452L0.271002 0.713606L0.763051 0.435153L0.516796 0L0.270541 -0.435153L-0.221508 -0.156701L0.0247471 0.278452ZM0.516796 0L0.463327 0.497133L0.641968 0.516347L0.695437 0.0192137L0.748906 -0.477919L0.570265 -0.497133L0.516796 0ZM0.695437 0.0192137L0.244167 -0.196089L0.161704 -0.0232498L0.612974 0.192053L1.06424 0.407356L1.14671 0.234517L0.695437 0.0192137Z" fill="var(--stroke-0, white)" mask="url(#path-1-inside-1_0_112)"/>
</g>
</svg>
