<svg preserveAspectRatio="none" width="100%" height="100%" overflow="visible" style="display: block;" viewBox="0 0 7 15" fill="none" xmlns="http://www.w3.org/2000/svg"><g id="AL"><mask id="path-1-inside-1_0_134" fill="white"><path d="M3 0L3 1L4 1L4 2L4 2L4 2L5 2L5 2L5 3L5 4L5 4L5 4L5 5L5 5L5 6L5 6L4 6L5 6L5 7L5 7L5 8L5 8L5 8L6 9L6 9L6 9L6 9L6 9L6 9L6 10L7 10L7 10V10L7 11L6 11L6 11L6 11L6 12L6 12L6 12L6 12L5 13L5 13L5 13L5 13L4 13L4 13L4 13L4 14L4 14V14L4 14L4 14L4 14L4 15L4 14L4 15L4 15L4 15L4 15L4 15L3 15L3 15L3 15L3 15L3 14L3 14L2 13L1 12L0 12L0 12L0 12L0 12L0 12L1 12L1 12L1 11L0 10L0 10L0 10L1 9L1 8L1 7L1 7L1 6L1 6L1 5L1 5L1 4L1 4L0 4L0 4L0 3L0 3L0 3L0 3L0 2L0 2L0 2L1 1L1 1L1 0L1 0L2 0L2 0L2 0L2 1L2 1L2 1L2 1L2 1L3 0L3 0Z"/></mask><path d="M3 0L3 1L4 1L4 2L4 2L4 2L5 2L5 2L5 3L5 4L5 4L5 4L5 5L5 5L5 6L5 6L4 6L5 6L5 7L5 7L5 8L5 8L5 8L6 9L6 9L6 9L6 9L6 9L6 9L6 10L7 10L7 10V10L7 11L6 11L6 11L6 11L6 12L6 12L6 12L6 12L5 13L5 13L5 13L5 13L4 13L4 13L4 13L4 14L4 14V14L4 14L4 14L4 14L4 15L4 14L4 15L4 15L4 15L4 15L4 15L3 15L3 15L3 15L3 15L3 14L3 14L2 13L1 12L0 12L0 12L0 12L0 12L0 12L1 12L1 12L1 11L0 10L0 10L0 10L1 9L1 8L1 7L1 7L1 6L1 6L1 5L1 5L1 4L1 4L0 4L0 4L0 3L0 3L0 3L0 3L0 2L0 2L0 2L1 1L1 1L1 0L1 0L2 0L2 0L2 0L2 1L2 1L2 1L2 1L2 1L3 0L3 0Z" fill="var(--fill-0,#71B219)" stroke="var(--stroke-0,white)" mask="url(#path-1-inside-1_0_134)"/></g></svg>