<svg preserveAspectRatio="none" width="100%" height="100%" overflow="visible" style="display: block;" viewBox="0 0 12.1419 12.1406" fill="none" xmlns="http://www.w3.org/2000/svg">
<g id="AM">
<mask id="path-1-inside-1_0_260" fill="white">
<path d="M11.7828 11.9554L11.1156 11.9266L10.5461 12.1406L10.3315 12.0981L10.1884 11.7181L10.066 11.4095L9.70282 10.6153L9.80047 10.2903L9.59828 10.1023L9.11128 9.76353L8.98609 9.62359L9.05486 9.4302L9.10297 9.0777L9.0562 8.79238L8.92412 8.70598L8.68062 8.7005L8.38489 8.77178L7.79059 9.04751L7.37789 8.87195L7.13985 8.69497L7.00097 8.54687L6.69139 8.67031L6.61574 8.61133L6.5992 8.24372L6.50566 8.0448L6.32001 7.81302L6.14662 7.70189L5.51243 7.93099L5.13139 8.00914L4.99789 7.79519L4.32793 7.09015L3.7075 6.54835L3.28104 6.32474L2.85181 6.34805L2.18605 6.45643L1.94112 6.41118L1.36058 6.17526L0.87635 5.89404L0.942347 5.77746L1.0442 5.6924L0.921775 5.32617L0.652077 4.73636L0.680961 4.55118L0.595736 4.29604L0.502199 4.10265L0.881891 3.64039L1.0552 3.26867L1.09374 2.9052L0.991886 2.528L0.741501 1.84351L0.587424 1.64463L0.301353 1.45806L0.0605392 1.15358L0 0.938206L0.202273 0.895718L0.792468 0.890234L1.36469 0.816142L1.81324 0.673484L2.46254 0.554141L2.72939 0.447147L3.04166 0.396413L3.98954 0.510272L4.34447 0.422492L5.41201 0.405999L5.43955 0.360749L5.29504 0.215369L5.29647 0.160491L5.93201 0.0686084L6.03109 0L6.11362 0.230439L6.35301 0.486956L6.61297 0.589806L6.75327 0.731083L6.76016 0.838077L6.29936 0.968387L6.2677 1.03285L6.29793 1.09598L6.43555 1.1275L7.08208 1.44848L7.45078 1.45534L7.64474 1.55271L7.74105 1.74476L8.0492 2.00538L8.29547 2.25776L8.31058 2.3442L8.26382 2.47174L7.57597 2.96418L7.48932 3.13426L7.47832 3.31396L7.77959 3.84751L8.22393 4.42911L8.86501 4.87078L9.74959 5.34949L9.76059 5.64577L9.62028 5.99693L9.50055 6.23558L9.44555 6.39745L9.33824 6.46468L8.45778 6.44956L8.3257 6.5072L8.26793 6.57577L8.26382 6.63337L8.5802 6.74036L9.07408 7.11484L9.3589 7.47831L9.65462 7.63742L9.9862 7.92684L10.2517 8.19571L10.6658 8.54411L11.1266 8.43025L11.7429 8.74026L11.7691 8.95011L11.7306 9.13806L11.3426 9.34242L11.2945 9.42748V9.49881L11.3454 9.59893L11.5724 9.76625L11.8406 10.0145L12.1419 10.3849L12.0071 10.496L11.725 10.5124L11.5063 10.4672L11.4293 10.5426L11.4334 10.6633L11.7196 10.9445L11.7759 11.1489L11.7636 11.5041L11.7828 11.9554ZM6.11908 1.34425L6.13839 1.20845L6.10951 1.08635L6.00632 1.04796L5.87978 1.07952L5.87012 1.21532L5.90866 1.34425L6.03654 1.40185L6.11908 1.34425ZM8.16062 3.42778L8.01343 3.51146L7.87589 3.47441V3.26595L7.97489 3.18227L8.08908 3.18638L8.19782 3.26181L8.16062 3.42778Z"/>
</mask>
<path d="M11.7828 11.9554L11.1156 11.9266L10.5461 12.1406L10.3315 12.0981L10.1884 11.7181L10.066 11.4095L9.70282 10.6153L9.80047 10.2903L9.59828 10.1023L9.11128 9.76353L8.98609 9.62359L9.05486 9.4302L9.10297 9.0777L9.0562 8.79238L8.92412 8.70598L8.68062 8.7005L8.38489 8.77178L7.79059 9.04751L7.37789 8.87195L7.13985 8.69497L7.00097 8.54687L6.69139 8.67031L6.61574 8.61133L6.5992 8.24372L6.50566 8.0448L6.32001 7.81302L6.14662 7.70189L5.51243 7.93099L5.13139 8.00914L4.99789 7.79519L4.32793 7.09015L3.7075 6.54835L3.28104 6.32474L2.85181 6.34805L2.18605 6.45643L1.94112 6.41118L1.36058 6.17526L0.87635 5.89404L0.942347 5.77746L1.0442 5.6924L0.921775 5.32617L0.652077 4.73636L0.680961 4.55118L0.595736 4.29604L0.502199 4.10265L0.881891 3.64039L1.0552 3.26867L1.09374 2.9052L0.991886 2.528L0.741501 1.84351L0.587424 1.64463L0.301353 1.45806L0.0605392 1.15358L0 0.938206L0.202273 0.895718L0.792468 0.890234L1.36469 0.816142L1.81324 0.673484L2.46254 0.554141L2.72939 0.447147L3.04166 0.396413L3.98954 0.510272L4.34447 0.422492L5.41201 0.405999L5.43955 0.360749L5.29504 0.215369L5.29647 0.160491L5.93201 0.0686084L6.03109 0L6.11362 0.230439L6.35301 0.486956L6.61297 0.589806L6.75327 0.731083L6.76016 0.838077L6.29936 0.968387L6.2677 1.03285L6.29793 1.09598L6.43555 1.1275L7.08208 1.44848L7.45078 1.45534L7.64474 1.55271L7.74105 1.74476L8.0492 2.00538L8.29547 2.25776L8.31058 2.3442L8.26382 2.47174L7.57597 2.96418L7.48932 3.13426L7.47832 3.31396L7.77959 3.84751L8.22393 4.42911L8.86501 4.87078L9.74959 5.34949L9.76059 5.64577L9.62028 5.99693L9.50055 6.23558L9.44555 6.39745L9.33824 6.46468L8.45778 6.44956L8.3257 6.5072L8.26793 6.57577L8.26382 6.63337L8.5802 6.74036L9.07408 7.11484L9.3589 7.47831L9.65462 7.63742L9.9862 7.92684L10.2517 8.19571L10.6658 8.54411L11.1266 8.43025L11.7429 8.74026L11.7691 8.95011L11.7306 9.13806L11.3426 9.34242L11.2945 9.42748V9.49881L11.3454 9.59893L11.5724 9.76625L11.8406 10.0145L12.1419 10.3849L12.0071 10.496L11.725 10.5124L11.5063 10.4672L11.4293 10.5426L11.4334 10.6633L11.7196 10.9445L11.7759 11.1489L11.7636 11.5041L11.7828 11.9554ZM6.11908 1.34425L6.13839 1.20845L6.10951 1.08635L6.00632 1.04796L5.87978 1.07952L5.87012 1.21532L5.90866 1.34425L6.03654 1.40185L6.11908 1.34425ZM8.16062 3.42778L8.01343 3.51146L7.87589 3.47441V3.26595L7.97489 3.18227L8.08908 3.18638L8.19782 3.26181L8.16062 3.42778Z" fill="var(--fill-0, #71B219)" stroke="var(--stroke-0, white)" mask="url(#path-1-inside-1_0_260)"/>
</g>
</svg>
