<svg preserveAspectRatio="none" width="100%" height="100%" overflow="visible" style="display: block;" viewBox="0 0 12 12" fill="none" xmlns="http://www.w3.org/2000/svg"><g id="AM"><mask id="path-1-inside-1_0_260" fill="white"><path d="M12 12L11 12L10 12L10 12L10 12L10 11L10 11L10 10L10 10L9 10L9 10L9 9L9 9L9 9L9 9L9 9L8 9L8 9L7 9L7 9L7 8L7 9L7 9L7 8L6 8L6 8L6 8L6 8L5 8L5 8L4 7L4 6L3 6L3 6L2 6L2 6L1 6L1 6L1 6L1 6L1 5L1 5L1 5L1 4L0 4L1 4L1 3L1 3L1 2L1 2L1 2L0 2L0 1L0 1L0 1L1 1L1 1L2 1L2 1L3 0L3 0L4 0L4 0L5 0L5 0L5 0L5 0L6 0L6 0L6 0L6 0L7 1L7 1L7 1L6 1L6 1L6 1L6 1L7 1L8 2L8 2L8 2L8 2L8 2L8 2L8 2L8 3L8 3L8 3L8 4L8 4L9 5L10 5L10 6L10 6L10 6L9 6L9 6L8 6L8 6L8 7L8 7L9 7L9 7L9 8L10 8L10 8L10 8L11 8L11 8L12 9L12 9L12 9L11 9L11 9V10L11 10L12 10L12 10L12 10L12 10L12 10L12 10L11 10L11 11L12 11L12 11L12 12L12 12ZM6 1L6 1L6 1L6 1L6 1L6 1L6 1L6 1L6 1ZM8 3L8 4L8 4V3L8 3L8 3L8 3L8 3Z"/></mask><path d="M12 12L11 12L10 12L10 12L10 12L10 11L10 11L10 10L10 10L9 10L9 10L9 9L9 9L9 9L9 9L9 9L8 9L8 9L7 9L7 9L7 8L7 9L7 9L7 8L6 8L6 8L6 8L6 8L5 8L5 8L4 7L4 6L3 6L3 6L2 6L2 6L1 6L1 6L1 6L1 6L1 5L1 5L1 5L1 4L0 4L1 4L1 3L1 3L1 2L1 2L1 2L0 2L0 1L0 1L0 1L1 1L1 1L2 1L2 1L3 0L3 0L4 0L4 0L5 0L5 0L5 0L5 0L6 0L6 0L6 0L6 0L7 1L7 1L7 1L6 1L6 1L6 1L6 1L7 1L8 2L8 2L8 2L8 2L8 2L8 2L8 2L8 3L8 3L8 3L8 4L8 4L9 5L10 5L10 6L10 6L10 6L9 6L9 6L8 6L8 6L8 7L8 7L9 7L9 7L9 8L10 8L10 8L10 8L11 8L11 8L12 9L12 9L12 9L11 9L11 9V10L11 10L12 10L12 10L12 10L12 10L12 10L12 10L11 10L11 11L12 11L12 11L12 12L12 12ZM6 1L6 1L6 1L6 1L6 1L6 1L6 1L6 1L6 1ZM8 3L8 4L8 4V3L8 3L8 3L8 3L8 3Z" fill="var(--fill-0,#71B219)" stroke="var(--stroke-0,white)" mask="url(#path-1-inside-1_0_260)"/></g></svg>