<svg preserveAspectRatio="none" width="100%" height="100%" overflow="visible" style="display: block;" viewBox="0 0 47.5151 53.1342" fill="none" xmlns="http://www.w3.org/2000/svg">
<g id="AO">
<mask id="path-1-inside-1_0_255" fill="white">
<path d="M5.14647 0.790106L5.08731 0.851807L4.66362 1.02188L4.20827 1.18099L3.60981 1.82844L3.3072 2.10827L3.21912 2.17822L2.94539 2.33323L2.74727 2.46626L2.75416 2.53897L2.88619 2.62399L3.02104 2.76393L3.00727 3.82147L2.9495 4.86391L2.87519 4.95173L2.4955 4.98602L1.99066 5.05873L1.8297 5.10536L1.77327 5.00247L1.60408 4.62117L1.699 4.25904L1.80081 3.98879L1.68662 3.43879L1.42935 2.94907L1.15696 2.3277L1.07304 2.2084L1.30281 2.0081L1.64808 1.5692L1.79254 1.34148L2.19285 1.29075L2.34142 1.13164L2.44739 0.876504L2.48866 0.728362L2.93985 0.607638L3.48189 0.392311L3.78177 0.156389L4.08581 0.00548365L4.27843 0L4.40496 0.0617434L4.75304 0.470505L5.04881 0.728362L5.14647 0.790106ZM47.2055 24.8752L47.2908 25.3854L47.3747 26.0946L47.4339 26.6048L47.4945 26.8339L47.5151 26.956L47.4477 27.0877L47.3926 27.3935L47.284 27.6651L47.2234 27.8544L47.2743 28.2028L47.2331 28.7021L47.1904 29.2302L47.1767 29.7391L47.3211 30.6499L47.3005 30.9297L47.1202 31.407L46.984 31.7692L46.896 32.1889L46.8795 32.4084L47.2096 33.0283L47.1904 33.1518L46.9373 33.1902L46.7282 33.2012H45.9275H44.7802H43.6329H42.4856H41.4304H40.4206H39.5306V33.8129V35.0749V36.3382V37.6028V38.8703V40.139V41.4092V42.6807V43.955V44.8754L39.7631 46.0989L40.1895 47.4322L40.356 47.5557L40.7852 47.8012L41.3808 48.3032L41.7152 48.6831L42.3947 49.3429L43.2986 50.1851L44.1694 50.9409L44.9384 51.6076L43.732 51.8421L42.0165 52.174L40.8595 52.399L39.4549 52.672L38.5195 52.8434L37.3542 53.056L37.1685 53.0519L36.8562 52.9051L36.1821 52.8763L35.3897 53.0794L34.7611 53.1342L34.2961 53.0409L33.8421 52.8639L33.3991 52.602L32.6328 52.506L31.5419 52.5773L30.4909 52.5266L29.4784 52.3538L28.7548 52.2851L28.3186 52.3222L27.8509 52.2659L27.3515 52.1164L26.9347 51.8627L26.4339 51.3277L26.0419 50.8175L25.9401 50.7447L25.8163 50.6666L25.6939 50.6433L24.5822 50.6296L23.5271 50.6172L22.9232 50.6158L21.4457 50.6145L19.9682 50.6131L18.4907 50.6104L17.0132 50.609L15.5357 50.6062L14.0582 50.6049L12.5807 50.6021L11.1032 50.6008L10.3191 50.5993L9.58993 50.6405L8.7852 50.6844L8.66966 50.6652L8.47839 50.6035L8.34774 50.491L7.91439 50.2016L7.53747 49.9821L7.02427 49.6118L6.69278 49.2071L6.41351 49.0782L5.91962 49.0055L5.5482 48.9342L5.24554 48.9177L4.71312 49.1084L4.31143 49.2977L4.02527 49.4801L3.52866 49.6886L3.11047 49.8971L2.38135 49.8696L2.22312 49.8998L1.81731 49.8861L1.43485 49.7037L1.04693 49.7201L0.616308 49.9519L0 50.0425L0.143077 48.5295L0.29304 47.8615L0.297154 47.0632L0.209116 45.0002L0.103194 44.7163L0.0316551 44.3843L0.412733 44.132L0.606694 43.9385L0.869464 43.597L1.05654 43.1183L1.27666 42.0648L2.07731 39.6466L2.457 37.2832L2.9385 36.1667L3.11869 34.9158L4.45862 33.304L4.78881 32.315L5.48216 31.8309L6.46305 31.3151L7.16189 30.3975L7.50027 29.7624L7.88551 28.5457L7.88139 27.277L8.12624 25.5857L8.07258 25.1001L7.70666 24.428L7.63924 23.9479L7.29943 23.476L6.93628 23.1194L6.76566 22.483L6.13558 21.4803L5.96362 20.8123L5.66235 20.3322L5.6142 19.741L5.456 19.1155L5.14785 18.4983L4.86035 17.7919V17.571L5.04743 17.3049L5.22489 17.2185L5.16574 17.3529L5.04743 17.5107L5.07631 17.6328L6.25389 16.3955L6.3282 16.1541L6.28831 15.8839L6.28277 15.5533L6.32954 15.1692L5.218 12.8909L4.3362 10.7758L4.18623 9.70727L3.01966 8.30408L2.56015 7.39191L2.29881 6.75271L2.10208 6.51131L2.17635 6.3892L2.47627 6.35768L3.14485 6.20954L4.06104 6.04767L4.90712 5.67733L5.13274 5.51274L5.5812 5.4798L6.03793 5.57859L6.20712 5.50726L6.30343 5.50177H7.37508L7.82086 5.47708L8.64758 5.48394L9.16901 5.51412L9.46616 5.55527L10.2682 5.61973L11.2697 5.60462L11.6232 5.57172L12.9356 5.54974L14.2315 5.52781L15.3967 5.5086L16.6844 5.51274L17.6694 5.51546L18.1179 5.64853L18.5251 5.90091L18.7108 6.12996L18.7989 6.23147L18.9199 6.47288L19.1428 6.66493L19.2226 6.96122L19.1579 7.36311L19.1896 7.84731L19.3189 8.41242L19.5899 9.00499L19.9998 9.62774L20.1787 10.1215L20.125 10.4877L20.2516 10.8746L20.557 11.282L20.7799 11.4973L20.9092 11.6605L21.2559 12.286L21.8983 13.2846L22.3798 14.0335L22.549 14.1227L22.7952 14.0911L23.318 14.017L23.8353 14.002L24.2053 14.1556L24.3539 14.1295L24.9111 13.8319L25.4641 13.7413L26.0419 13.6179L26.3432 13.4917H26.694L27.6391 13.7318L27.8179 13.7441H28.5828L29.3476 13.6097L29.4605 12.6056L29.4674 12.4067L29.6517 12.0295L29.8856 11.7003L29.9145 11.3862L29.9007 10.9569L30.0699 10.437L30.583 10.0228L31.4126 9.82661L31.8845 9.78823L32.6287 9.67299L33.7568 9.55641L34.1736 9.57148L34.2066 9.63046L33.9673 10.3492L33.9631 10.5838L34.0498 10.8211L34.241 10.95L35.4117 10.9637L36.4903 10.9774L37.727 11.0227L38.6542 11.0556L38.7725 11.0913L38.8661 11.1448L39.0037 11.5014L38.9734 12.1982L38.7671 13.216L38.8468 14.1679L39.2142 15.054L39.2513 16.4161L39.122 17.2295L38.9583 18.2555L38.8949 19.42L39.0628 19.907L39.4177 20.4159L39.9598 20.9495L40.3794 21.6394L40.6765 22.4885L40.7838 23.0234L40.704 23.2443L40.7095 23.6256L40.8017 24.1687L40.6985 24.5295L40.4014 24.7064L40.3023 24.9506L40.4523 25.4197L40.4895 25.8463L40.6063 26.0095L40.6916 26.1275L40.832 26.1453L41.1332 25.9931L41.4937 25.7091L41.7825 25.5898L42.1898 25.6049L42.7621 25.6858L43.7718 25.7146L44.0828 25.6638L45.0223 25.2812L45.2686 25.2524L45.64 25.288L46.1669 25.4019L46.6979 25.4252L46.9566 25.3072L46.9799 25.1522L47.0625 24.9506L47.2055 24.8752Z"/>
</mask>
<path d="M5.14647 0.790106L5.08731 0.851807L4.66362 1.02188L4.20827 1.18099L3.60981 1.82844L3.3072 2.10827L3.21912 2.17822L2.94539 2.33323L2.74727 2.46626L2.75416 2.53897L2.88619 2.62399L3.02104 2.76393L3.00727 3.82147L2.9495 4.86391L2.87519 4.95173L2.4955 4.98602L1.99066 5.05873L1.8297 5.10536L1.77327 5.00247L1.60408 4.62117L1.699 4.25904L1.80081 3.98879L1.68662 3.43879L1.42935 2.94907L1.15696 2.3277L1.07304 2.2084L1.30281 2.0081L1.64808 1.5692L1.79254 1.34148L2.19285 1.29075L2.34142 1.13164L2.44739 0.876504L2.48866 0.728362L2.93985 0.607638L3.48189 0.392311L3.78177 0.156389L4.08581 0.00548365L4.27843 0L4.40496 0.0617434L4.75304 0.470505L5.04881 0.728362L5.14647 0.790106ZM47.2055 24.8752L47.2908 25.3854L47.3747 26.0946L47.4339 26.6048L47.4945 26.8339L47.5151 26.956L47.4477 27.0877L47.3926 27.3935L47.284 27.6651L47.2234 27.8544L47.2743 28.2028L47.2331 28.7021L47.1904 29.2302L47.1767 29.7391L47.3211 30.6499L47.3005 30.9297L47.1202 31.407L46.984 31.7692L46.896 32.1889L46.8795 32.4084L47.2096 33.0283L47.1904 33.1518L46.9373 33.1902L46.7282 33.2012H45.9275H44.7802H43.6329H42.4856H41.4304H40.4206H39.5306V33.8129V35.0749V36.3382V37.6028V38.8703V40.139V41.4092V42.6807V43.955V44.8754L39.7631 46.0989L40.1895 47.4322L40.356 47.5557L40.7852 47.8012L41.3808 48.3032L41.7152 48.6831L42.3947 49.3429L43.2986 50.1851L44.1694 50.9409L44.9384 51.6076L43.732 51.8421L42.0165 52.174L40.8595 52.399L39.4549 52.672L38.5195 52.8434L37.3542 53.056L37.1685 53.0519L36.8562 52.9051L36.1821 52.8763L35.3897 53.0794L34.7611 53.1342L34.2961 53.0409L33.8421 52.8639L33.3991 52.602L32.6328 52.506L31.5419 52.5773L30.4909 52.5266L29.4784 52.3538L28.7548 52.2851L28.3186 52.3222L27.8509 52.2659L27.3515 52.1164L26.9347 51.8627L26.4339 51.3277L26.0419 50.8175L25.9401 50.7447L25.8163 50.6666L25.6939 50.6433L24.5822 50.6296L23.5271 50.6172L22.9232 50.6158L21.4457 50.6145L19.9682 50.6131L18.4907 50.6104L17.0132 50.609L15.5357 50.6062L14.0582 50.6049L12.5807 50.6021L11.1032 50.6008L10.3191 50.5993L9.58993 50.6405L8.7852 50.6844L8.66966 50.6652L8.47839 50.6035L8.34774 50.491L7.91439 50.2016L7.53747 49.9821L7.02427 49.6118L6.69278 49.2071L6.41351 49.0782L5.91962 49.0055L5.5482 48.9342L5.24554 48.9177L4.71312 49.1084L4.31143 49.2977L4.02527 49.4801L3.52866 49.6886L3.11047 49.8971L2.38135 49.8696L2.22312 49.8998L1.81731 49.8861L1.43485 49.7037L1.04693 49.7201L0.616308 49.9519L0 50.0425L0.143077 48.5295L0.29304 47.8615L0.297154 47.0632L0.209116 45.0002L0.103194 44.7163L0.0316551 44.3843L0.412733 44.132L0.606694 43.9385L0.869464 43.597L1.05654 43.1183L1.27666 42.0648L2.07731 39.6466L2.457 37.2832L2.9385 36.1667L3.11869 34.9158L4.45862 33.304L4.78881 32.315L5.48216 31.8309L6.46305 31.3151L7.16189 30.3975L7.50027 29.7624L7.88551 28.5457L7.88139 27.277L8.12624 25.5857L8.07258 25.1001L7.70666 24.428L7.63924 23.9479L7.29943 23.476L6.93628 23.1194L6.76566 22.483L6.13558 21.4803L5.96362 20.8123L5.66235 20.3322L5.6142 19.741L5.456 19.1155L5.14785 18.4983L4.86035 17.7919V17.571L5.04743 17.3049L5.22489 17.2185L5.16574 17.3529L5.04743 17.5107L5.07631 17.6328L6.25389 16.3955L6.3282 16.1541L6.28831 15.8839L6.28277 15.5533L6.32954 15.1692L5.218 12.8909L4.3362 10.7758L4.18623 9.70727L3.01966 8.30408L2.56015 7.39191L2.29881 6.75271L2.10208 6.51131L2.17635 6.3892L2.47627 6.35768L3.14485 6.20954L4.06104 6.04767L4.90712 5.67733L5.13274 5.51274L5.5812 5.4798L6.03793 5.57859L6.20712 5.50726L6.30343 5.50177H7.37508L7.82086 5.47708L8.64758 5.48394L9.16901 5.51412L9.46616 5.55527L10.2682 5.61973L11.2697 5.60462L11.6232 5.57172L12.9356 5.54974L14.2315 5.52781L15.3967 5.5086L16.6844 5.51274L17.6694 5.51546L18.1179 5.64853L18.5251 5.90091L18.7108 6.12996L18.7989 6.23147L18.9199 6.47288L19.1428 6.66493L19.2226 6.96122L19.1579 7.36311L19.1896 7.84731L19.3189 8.41242L19.5899 9.00499L19.9998 9.62774L20.1787 10.1215L20.125 10.4877L20.2516 10.8746L20.557 11.282L20.7799 11.4973L20.9092 11.6605L21.2559 12.286L21.8983 13.2846L22.3798 14.0335L22.549 14.1227L22.7952 14.0911L23.318 14.017L23.8353 14.002L24.2053 14.1556L24.3539 14.1295L24.9111 13.8319L25.4641 13.7413L26.0419 13.6179L26.3432 13.4917H26.694L27.6391 13.7318L27.8179 13.7441H28.5828L29.3476 13.6097L29.4605 12.6056L29.4674 12.4067L29.6517 12.0295L29.8856 11.7003L29.9145 11.3862L29.9007 10.9569L30.0699 10.437L30.583 10.0228L31.4126 9.82661L31.8845 9.78823L32.6287 9.67299L33.7568 9.55641L34.1736 9.57148L34.2066 9.63046L33.9673 10.3492L33.9631 10.5838L34.0498 10.8211L34.241 10.95L35.4117 10.9637L36.4903 10.9774L37.727 11.0227L38.6542 11.0556L38.7725 11.0913L38.8661 11.1448L39.0037 11.5014L38.9734 12.1982L38.7671 13.216L38.8468 14.1679L39.2142 15.054L39.2513 16.4161L39.122 17.2295L38.9583 18.2555L38.8949 19.42L39.0628 19.907L39.4177 20.4159L39.9598 20.9495L40.3794 21.6394L40.6765 22.4885L40.7838 23.0234L40.704 23.2443L40.7095 23.6256L40.8017 24.1687L40.6985 24.5295L40.4014 24.7064L40.3023 24.9506L40.4523 25.4197L40.4895 25.8463L40.6063 26.0095L40.6916 26.1275L40.832 26.1453L41.1332 25.9931L41.4937 25.7091L41.7825 25.5898L42.1898 25.6049L42.7621 25.6858L43.7718 25.7146L44.0828 25.6638L45.0223 25.2812L45.2686 25.2524L45.64 25.288L46.1669 25.4019L46.6979 25.4252L46.9566 25.3072L46.9799 25.1522L47.0625 24.9506L47.2055 24.8752Z" fill="var(--fill-0, #71B219)" stroke="var(--stroke-0, white)" mask="url(#path-1-inside-1_0_255)"/>
</g>
</svg>
