<svg preserveAspectRatio="none" width="100%" height="100%" overflow="visible" style="display: block;" viewBox="0 0 48 53" fill="none" xmlns="http://www.w3.org/2000/svg"><g id="AO"><mask id="path-1-inside-1_0_255" fill="white"><path d="M5 1L5 1L5 1L4 1L4 2L3 2L3 2L3 2L3 2L3 2L3 3L3 3L3 4L3 5L3 5L2 5L2 5L2 5L2 5L2 5L2 4L2 4L2 3L1 3L1 2L1 2L1 2L2 2L2 1L2 1L2 1L2 1L2 1L3 1L4 0L4 0L4 0L4 0L4 0L5 0L5 1L5 1ZM47 25L47 25L47 26L47 27L48 27L48 27L47 27L47 27L47 28L47 28L47 28L47 29L47 29L47 30L47 31L47 31L47 31L47 32L47 32L47 32L47 33L47 33L47 33L47 33H46H45H44H42H41H40H40V34V35V36V38V39V40V41V43V44V45L40 46L40 47L40 48L41 48L41 48L42 49L42 49L43 50L44 51L45 52L44 52L42 52L41 52L40 53L38 53L37 53L37 53L37 53L36 53L35 53L35 53L34 53L34 53L33 53L33 52L32 53L30 52L30 52L29 52L28 52L28 52L27 52L27 52L26 51L26 51L26 51L26 51L26 51L25 51L24 51L23 51L21 51L20 51L18 51L17 51L16 51L14 51L13 51L11 51L10 51L10 51L9 51L9 51L8 51L8 50L8 50L8 50L7 50L7 49L6 49L6 49L6 49L5 49L5 49L4 49L4 50L4 50L3 50L2 50L2 50L2 50L1 50L1 50L1 50L0 50L0 48L0 48L0 47L0 45L0 45L0 44L0 44L1 44L1 44L1 43L1 42L2 40L2 37L3 36L3 35L4 33L5 32L6 32L6 31L7 30L8 30L8 28L8 27L8 26L8 25L8 24L8 24L7 24L7 23L7 22L6 22L6 21L6 20L6 20L6 19L5 18L5 18V18L5 17L5 17L5 17L5 18L5 18L6 16L6 16L6 16L6 16L6 15L5 13L4 11L4 10L3 8L3 7L2 7L2 6L2 6L2 6L3 6L4 6L5 6L5 6L6 6L6 6L6 6L6 6H7L8 6L9 6L9 6L10 6L10 6L11 6L12 6L13 6L14 6L15 6L17 6L18 6L18 6L18 6L19 6L19 6L19 6L19 7L19 7L19 7L19 8L19 8L20 9L20 10L20 10L20 10L20 11L21 11L21 12L21 12L21 12L22 13L22 14L22 14L23 14L23 14L24 14L24 14L24 14L25 14L26 14L26 14L26 14H27L28 14L28 14H29L29 14L30 13L30 12L30 12L30 12L30 11L30 11L30 10L31 10L31 10L32 10L33 10L34 10L34 10L34 10L34 10L34 11L34 11L34 11L35 11L36 11L38 11L39 11L39 11L39 11L39 12L39 12L39 13L39 14L39 15L39 16L39 17L39 18L39 19L39 20L39 20L40 21L40 22L41 22L41 23L41 23L41 24L41 24L41 24L40 25L40 25L40 25L40 26L41 26L41 26L41 26L41 26L42 26L42 26L42 26L43 26L44 26L44 26L45 25L45 25L46 25L46 25L47 25L47 25L47 25L47 25L47 25Z"/></mask><path d="M5 1L5 1L5 1L4 1L4 2L3 2L3 2L3 2L3 2L3 2L3 3L3 3L3 4L3 5L3 5L2 5L2 5L2 5L2 5L2 5L2 4L2 4L2 3L1 3L1 2L1 2L1 2L2 2L2 1L2 1L2 1L2 1L2 1L3 1L4 0L4 0L4 0L4 0L4 0L5 0L5 1L5 1ZM47 25L47 25L47 26L47 27L48 27L48 27L47 27L47 27L47 28L47 28L47 28L47 29L47 29L47 30L47 31L47 31L47 31L47 32L47 32L47 32L47 33L47 33L47 33L47 33H46H45H44H42H41H40H40V34V35V36V38V39V40V41V43V44V45L40 46L40 47L40 48L41 48L41 48L42 49L42 49L43 50L44 51L45 52L44 52L42 52L41 52L40 53L38 53L37 53L37 53L37 53L36 53L35 53L35 53L34 53L34 53L33 53L33 52L32 53L30 52L30 52L29 52L28 52L28 52L27 52L27 52L26 51L26 51L26 51L26 51L26 51L25 51L24 51L23 51L21 51L20 51L18 51L17 51L16 51L14 51L13 51L11 51L10 51L10 51L9 51L9 51L8 51L8 50L8 50L8 50L7 50L7 49L6 49L6 49L6 49L5 49L5 49L4 49L4 50L4 50L3 50L2 50L2 50L2 50L1 50L1 50L1 50L0 50L0 48L0 48L0 47L0 45L0 45L0 44L0 44L1 44L1 44L1 43L1 42L2 40L2 37L3 36L3 35L4 33L5 32L6 32L6 31L7 30L8 30L8 28L8 27L8 26L8 25L8 24L8 24L7 24L7 23L7 22L6 22L6 21L6 20L6 20L6 19L5 18L5 18V18L5 17L5 17L5 17L5 18L5 18L6 16L6 16L6 16L6 16L6 15L5 13L4 11L4 10L3 8L3 7L2 7L2 6L2 6L2 6L3 6L4 6L5 6L5 6L6 6L6 6L6 6L6 6H7L8 6L9 6L9 6L10 6L10 6L11 6L12 6L13 6L14 6L15 6L17 6L18 6L18 6L18 6L19 6L19 6L19 6L19 7L19 7L19 7L19 8L19 8L20 9L20 10L20 10L20 10L20 11L21 11L21 12L21 12L21 12L22 13L22 14L22 14L23 14L23 14L24 14L24 14L24 14L25 14L26 14L26 14L26 14H27L28 14L28 14H29L29 14L30 13L30 12L30 12L30 12L30 11L30 11L30 10L31 10L31 10L32 10L33 10L34 10L34 10L34 10L34 10L34 11L34 11L34 11L35 11L36 11L38 11L39 11L39 11L39 11L39 12L39 12L39 13L39 14L39 15L39 16L39 17L39 18L39 19L39 20L39 20L40 21L40 22L41 22L41 23L41 23L41 24L41 24L41 24L40 25L40 25L40 25L40 26L41 26L41 26L41 26L41 26L42 26L42 26L42 26L43 26L44 26L44 26L45 25L45 25L46 25L46 25L47 25L47 25L47 25L47 25L47 25Z" fill="var(--fill-0,#71B219)" stroke="var(--stroke-0,white)" mask="url(#path-1-inside-1_0_255)"/></g></svg>