<svg preserveAspectRatio="none" width="100%" height="100%" overflow="visible" style="display: block;" viewBox="0 0 77 168" fill="none" xmlns="http://www.w3.org/2000/svg"><g id="AR"><mask id="path-1-inside-1_0_251" fill="white"><path d="M42 2L42 2L42 2L43 2L43 3L44 3L44 4L45 5L46 6L46 6L46 6L47 6L47 7L47 7L48 7L48 8L48 8L49 8L50 9L51 9L52 9L53 10L54 10L55 11L55 11L56 12L57 12L58 13L58 13L59 13L59 13L59 13L60 13L60 14L61 14L62 15L62 15L62 15L62 16L62 16L61 16L61 16L61 16L61 17L61 17L61 17L61 18L60 18L60 18L60 18L60 19L60 19L60 19L59 19L59 19L59 20L59 20L59 20L59 20L59 20L59 21L59 21L59 21L59 21L59 21L59 21L58 22L58 22L58 22L58 22L58 22L58 23L58 23L60 23L61 23L62 24L64 24L64 24L64 24L65 24L65 24L66 24L66 24L66 24L66 24L67 24L67 23L67 23L68 23L68 23L68 23L69 24L69 24L69 23L69 23L69 23L70 22L70 22L70 22L70 22L70 22L71 22L71 22L71 21L71 21L72 21L72 21L72 21L72 20L72 20L73 20L73 19L73 18L73 16L74 16L74 16L74 16L74 16L74 16L75 16L75 16L75 16L75 16L75 16L76 16L76 16L76 16L76 16L76 17L77 18L77 19L77 19L77 19L77 20L77 20L76 21L77 21L77 21L76 22L76 22L76 23L76 23L75 23L75 23L75 23L75 23L75 24L74 24L74 24L74 24L73 24L73 24L73 24L73 24L73 24L72 24L72 24L72 25L72 25L72 25L72 25L72 25L72 26L71 26L71 26L70 26L70 26L70 27L70 27L69 27L69 27L69 28L69 28L69 28L69 28L69 28L68 28L68 28L68 28L68 28L68 28L68 28L68 28L68 29L68 29L67 29L67 30L66 30L66 31L66 31L65 31L65 32L65 32L64 33L64 34L63 34L63 34L63 35L62 35L62 36L62 36L62 36L62 36L61 37L61 37L61 38L61 38L61 39L61 39L61 39L60 39L61 40L61 40L60 40L60 41L60 41L60 42L60 42L60 42L60 42L60 42L60 43L60 43L60 43L59 44L60 44L60 44L60 44L60 45L60 45L60 45L59 46L59 46L60 48L59 48L59 49L59 49L59 49L58 49L58 50L58 52L58 52L58 53L58 53L59 53L59 54L58 54L58 54L58 54L58 55L58 56L59 56L61 57L62 58L63 59L63 59L63 60L63 61L62 62L63 62L63 63L64 64L64 64L65 64L65 64L65 64L65 66L65 66L65 67L64 69L62 71L62 72L62 72L62 73L59 74L56 75L54 76L53 76L49 77L48 77L47 77L46 77L45 77L44 76L44 76L43 76L43 76L44 77L43 78L44 78L44 78L44 78L44 79L44 79L44 79L44 79L44 80L44 81L44 81L44 81L43 82L43 83L43 84L43 84L44 85L44 86L43 86L42 87L41 88L40 88L38 88L38 88L36 87L36 86L35 86L34 86L34 86L34 86L34 86L33 86L33 86L33 86L32 87L32 87L33 88L33 90L33 91L33 92L33 92L34 93L34 93L35 93L35 93L35 93L35 94L35 94L35 94L35 94L36 94L37 94L37 94L37 93L36 93L36 93L37 93L37 93L38 93L38 93L38 93L38 94L38 94L38 95L38 96L38 96L38 96L37 97L36 96L36 96L36 95L36 95L35 95L34 95L34 95L33 96L33 96L34 97L35 97L36 97L36 97L36 97L35 98L34 98L34 98L33 99L32 100L32 100L32 100L32 101L32 103L32 103L32 104L32 104L32 105L31 106L30 107L31 107L31 108L31 108L30 108L28 108L28 108L27 108L27 109L27 109L26 109L26 109L24 111L24 112L23 113L23 114L23 114L23 115L23 115L23 116L24 116L26 119L27 119L29 120L30 120L30 120L30 121L30 122L30 122L30 123L29 123L28 124L29 124L29 124L30 124L30 124L30 124L30 124L30 125L29 125L28 127L27 127L26 128L25 128L25 129L24 129L24 130L23 132L23 132L23 132L22 136L22 136L22 136L21 137L20 137L20 137L20 136L19 136L19 135L19 135L19 136L19 136L18 136L18 136L19 136L19 136L20 136L20 137L20 137L20 138L19 138L19 138L18 139L18 139L17 140L17 141L17 142L17 142L16 142L16 143L17 142L17 142L17 143L17 144L18 145L18 145L17 146L17 146L16 146L16 146L16 146L16 146L17 146L18 146L18 146L18 147L19 149L20 150L20 150L20 151L20 150L19 150L19 150L18 150L17 149H16L15 149L14 149L12 148L10 148L8 148L7 148L6 148L6 148L6 148L6 147L6 147L5 147L5 146L4 146L5 145L5 144L5 144L5 143L5 143L5 143L5 143L5 142L5 141L5 140L5 140L4 140L4 140L4 140L3 140L3 140L2 140L2 141L2 141L2 140L1 140L1 140L1 139L1 138L1 138L0 137L0 136L0 136L0 135L0 134L0 134L0 133L0 133L0 132L2 132L2 132L2 131L2 130L2 130L3 130L3 130L4 130L4 129L4 129L4 128L4 128L4 127L4 127L5 127L5 126L5 125L4 125L4 124L4 124L4 123L4 123L5 122L5 122L5 122L6 121L6 120L6 120L6 120L6 120L6 119L6 119L6 119L6 118L7 118L7 117L7 117L7 117L7 116L7 115L7 115L7 114L7 114L7 114L7 114L8 113L7 113L7 112L7 112L7 111L7 111L8 111L8 110L9 110L9 109L8 109L8 108L8 108L7 108L6 107L6 107L6 107L6 107L7 107L7 107L8 107L8 106L9 107L9 107L9 106L9 106L9 105L9 105L9 105L7 105L7 104L7 104L7 103V103L7 103L7 102L7 102L7 102L7 101L7 101L7 101L7 100L7 100L6 100V99L7 99L7 99L7 98L7 98L6 98L6 98L6 98L6 97L6 96L6 95L6 95L6 95L6 94L6 94L6 94L6 93L6 93L6 93L6 93L6 93L7 93L7 92L7 92L7 92L7 91L6 90L6 90L7 90L6 89L6 88L6 87L7 86L6 86L6 85L6 85L7 84L7 84L7 84L7 84L7 84L7 83L7 83L7 83L7 82L7 82L7 82L7 82L7 82L8 81L7 81L7 80L7 80L7 80L7 80L8 80L8 80L8 80L8 80L8 79L8 79L8 78L8 78L8 77L8 77L9 76L9 76L9 76L10 76L10 76L10 75L10 75L10 75L10 74L10 74L10 74L10 73L10 72L10 72L9 71L9 70L9 70L9 69L9 69L9 69L9 68L10 68L10 67L9 67L9 66L9 66L10 66L10 65L10 65L10 65L10 65L10 64L10 64H11L11 64L11 64L11 64L11 63L12 63L12 63L12 63L12 62L12 62L12 61L12 60L12 60L12 60L12 59L12 59L12 59L12 59L12 59L12 59L12 58L12 57L13 57L13 57L13 56L13 56L13 56L13 55L13 55L14 55L14 54L14 54L14 54L14 54L14 54L14 54L14 53L14 53L14 52L14 51L14 51L15 50L14 50L14 50L14 50L14 50L14 50L14 49L13 49L13 48L14 48L14 48L14 48L13 48L13 47L13 46L13 46L13 45L13 45L12 45L12 44L12 44L13 44L13 44L13 44L12 43L12 43L12 43L12 42L12 42L12 41L12 41L12 40L12 40L12 40L12 40L12 40L12 40L13 40L13 39L12 39L12 39L13 39L13 38L13 37L13 37L13 37L13 36L13 37L14 36L14 36L14 36L14 36L14 36L14 35L14 35L14 35L14 34L14 34L14 33L14 32L14 32L14 31L14 31L14 31L15 30L15 29L15 29L15 28L16 27L16 27L16 27L16 27L16 26L17 26L17 26L17 26L17 25L18 24L18 24L18 24L18 23L18 22L19 22L19 22L19 22L19 22L20 22L20 22L20 22L20 22V21L20 21L20 20L19 20L19 20L19 19L19 19L20 19L20 18L20 18L20 16L19 16L19 15L19 15L19 14L20 14L20 14L20 14L20 14L20 14L20 13L20 13L20 13L19 13V12L20 12L20 12L20 11L20 11L20 11L21 11L21 10L22 10L23 10L24 9L24 9L24 9L24 8L25 6L25 5L25 4L25 4L25 4L25 3L25 3L26 2L26 2L26 2L26 2L27 2L27 2L28 1L28 1L28 1L28 0L28 0L29 0L29 0L29 0L30 1L30 1L30 1L31 1L31 1L33 1L33 1L34 1L34 2L34 2L35 2L35 2L35 3L35 3L36 4L36 4L36 4L36 3L36 3L36 2L37 1L37 1L38 1L38 1L38 1H38L38 1L40 1L41 1L42 1L42 1L42 2L42 2L42 2ZM45 78L45 78L45 78L44 78L44 77L44 77L45 77L45 78L45 78ZM19 167L19 165L19 163L19 162L19 160L19 158L19 156L19 154L19 153L19 153L20 154L20 155L21 155L20 155L20 155L20 156L20 156V156L20 156L20 157L21 157L21 157L22 158L22 159L22 159L23 160L24 161L24 162L25 162L26 163L27 163L28 164L28 165L29 165L30 166L32 165L32 166L32 166L32 166L32 167L31 167L31 167L30 167L30 167L29 167L29 168L29 168L28 168L28 168L27 168L27 168L26 167L25 167L22 167L22 167L21 167L20 167L20 167L19 167L19 167ZM35 166L35 166L36 166L37 166L37 166L37 166L37 166L38 166L38 166L37 167L37 166L36 166L35 167L35 167L34 167L34 167L34 167L34 166L35 166L35 166L35 166Z"/></mask><path d="M42 2L42 2L42 2L43 2L43 3L44 3L44 4L45 5L46 6L46 6L46 6L47 6L47 7L47 7L48 7L48 8L48 8L49 8L50 9L51 9L52 9L53 10L54 10L55 11L55 11L56 12L57 12L58 13L58 13L59 13L59 13L59 13L60 13L60 14L61 14L62 15L62 15L62 15L62 16L62 16L61 16L61 16L61 16L61 17L61 17L61 17L61 18L60 18L60 18L60 18L60 19L60 19L60 19L59 19L59 19L59 20L59 20L59 20L59 20L59 20L59 21L59 21L59 21L59 21L59 21L59 21L58 22L58 22L58 22L58 22L58 22L58 23L58 23L60 23L61 23L62 24L64 24L64 24L64 24L65 24L65 24L66 24L66 24L66 24L66 24L67 24L67 23L67 23L68 23L68 23L68 23L69 24L69 24L69 23L69 23L69 23L70 22L70 22L70 22L70 22L70 22L71 22L71 22L71 21L71 21L72 21L72 21L72 21L72 20L72 20L73 20L73 19L73 18L73 16L74 16L74 16L74 16L74 16L74 16L75 16L75 16L75 16L75 16L75 16L76 16L76 16L76 16L76 16L76 17L77 18L77 19L77 19L77 19L77 20L77 20L76 21L77 21L77 21L76 22L76 22L76 23L76 23L75 23L75 23L75 23L75 23L75 24L74 24L74 24L74 24L73 24L73 24L73 24L73 24L73 24L72 24L72 24L72 25L72 25L72 25L72 25L72 25L72 26L71 26L71 26L70 26L70 26L70 27L70 27L69 27L69 27L69 28L69 28L69 28L69 28L69 28L68 28L68 28L68 28L68 28L68 28L68 28L68 28L68 29L68 29L67 29L67 30L66 30L66 31L66 31L65 31L65 32L65 32L64 33L64 34L63 34L63 34L63 35L62 35L62 36L62 36L62 36L62 36L61 37L61 37L61 38L61 38L61 39L61 39L61 39L60 39L61 40L61 40L60 40L60 41L60 41L60 42L60 42L60 42L60 42L60 42L60 43L60 43L60 43L59 44L60 44L60 44L60 44L60 45L60 45L60 45L59 46L59 46L60 48L59 48L59 49L59 49L59 49L58 49L58 50L58 52L58 52L58 53L58 53L59 53L59 54L58 54L58 54L58 54L58 55L58 56L59 56L61 57L62 58L63 59L63 59L63 60L63 61L62 62L63 62L63 63L64 64L64 64L65 64L65 64L65 64L65 66L65 66L65 67L64 69L62 71L62 72L62 72L62 73L59 74L56 75L54 76L53 76L49 77L48 77L47 77L46 77L45 77L44 76L44 76L43 76L43 76L44 77L43 78L44 78L44 78L44 78L44 79L44 79L44 79L44 79L44 80L44 81L44 81L44 81L43 82L43 83L43 84L43 84L44 85L44 86L43 86L42 87L41 88L40 88L38 88L38 88L36 87L36 86L35 86L34 86L34 86L34 86L34 86L33 86L33 86L33 86L32 87L32 87L33 88L33 90L33 91L33 92L33 92L34 93L34 93L35 93L35 93L35 93L35 94L35 94L35 94L35 94L36 94L37 94L37 94L37 93L36 93L36 93L37 93L37 93L38 93L38 93L38 93L38 94L38 94L38 95L38 96L38 96L38 96L37 97L36 96L36 96L36 95L36 95L35 95L34 95L34 95L33 96L33 96L34 97L35 97L36 97L36 97L36 97L35 98L34 98L34 98L33 99L32 100L32 100L32 100L32 101L32 103L32 103L32 104L32 104L32 105L31 106L30 107L31 107L31 108L31 108L30 108L28 108L28 108L27 108L27 109L27 109L26 109L26 109L24 111L24 112L23 113L23 114L23 114L23 115L23 115L23 116L24 116L26 119L27 119L29 120L30 120L30 120L30 121L30 122L30 122L30 123L29 123L28 124L29 124L29 124L30 124L30 124L30 124L30 124L30 125L29 125L28 127L27 127L26 128L25 128L25 129L24 129L24 130L23 132L23 132L23 132L22 136L22 136L22 136L21 137L20 137L20 137L20 136L19 136L19 135L19 135L19 136L19 136L18 136L18 136L19 136L19 136L20 136L20 137L20 137L20 138L19 138L19 138L18 139L18 139L17 140L17 141L17 142L17 142L16 142L16 143L17 142L17 142L17 143L17 144L18 145L18 145L17 146L17 146L16 146L16 146L16 146L16 146L17 146L18 146L18 146L18 147L19 149L20 150L20 150L20 151L20 150L19 150L19 150L18 150L17 149H16L15 149L14 149L12 148L10 148L8 148L7 148L6 148L6 148L6 148L6 147L6 147L5 147L5 146L4 146L5 145L5 144L5 144L5 143L5 143L5 143L5 143L5 142L5 141L5 140L5 140L4 140L4 140L4 140L3 140L3 140L2 140L2 141L2 141L2 140L1 140L1 140L1 139L1 138L1 138L0 137L0 136L0 136L0 135L0 134L0 134L0 133L0 133L0 132L2 132L2 132L2 131L2 130L2 130L3 130L3 130L4 130L4 129L4 129L4 128L4 128L4 127L4 127L5 127L5 126L5 125L4 125L4 124L4 124L4 123L4 123L5 122L5 122L5 122L6 121L6 120L6 120L6 120L6 120L6 119L6 119L6 119L6 118L7 118L7 117L7 117L7 117L7 116L7 115L7 115L7 114L7 114L7 114L7 114L8 113L7 113L7 112L7 112L7 111L7 111L8 111L8 110L9 110L9 109L8 109L8 108L8 108L7 108L6 107L6 107L6 107L6 107L7 107L7 107L8 107L8 106L9 107L9 107L9 106L9 106L9 105L9 105L9 105L7 105L7 104L7 104L7 103V103L7 103L7 102L7 102L7 102L7 101L7 101L7 101L7 100L7 100L6 100V99L7 99L7 99L7 98L7 98L6 98L6 98L6 98L6 97L6 96L6 95L6 95L6 95L6 94L6 94L6 94L6 93L6 93L6 93L6 93L6 93L7 93L7 92L7 92L7 92L7 91L6 90L6 90L7 90L6 89L6 88L6 87L7 86L6 86L6 85L6 85L7 84L7 84L7 84L7 84L7 84L7 83L7 83L7 83L7 82L7 82L7 82L7 82L7 82L8 81L7 81L7 80L7 80L7 80L7 80L8 80L8 80L8 80L8 80L8 79L8 79L8 78L8 78L8 77L8 77L9 76L9 76L9 76L10 76L10 76L10 75L10 75L10 75L10 74L10 74L10 74L10 73L10 72L10 72L9 71L9 70L9 70L9 69L9 69L9 69L9 68L10 68L10 67L9 67L9 66L9 66L10 66L10 65L10 65L10 65L10 65L10 64L10 64H11L11 64L11 64L11 64L11 63L12 63L12 63L12 63L12 62L12 62L12 61L12 60L12 60L12 60L12 59L12 59L12 59L12 59L12 59L12 59L12 58L12 57L13 57L13 57L13 56L13 56L13 56L13 55L13 55L14 55L14 54L14 54L14 54L14 54L14 54L14 54L14 53L14 53L14 52L14 51L14 51L15 50L14 50L14 50L14 50L14 50L14 50L14 49L13 49L13 48L14 48L14 48L14 48L13 48L13 47L13 46L13 46L13 45L13 45L12 45L12 44L12 44L13 44L13 44L13 44L12 43L12 43L12 43L12 42L12 42L12 41L12 41L12 40L12 40L12 40L12 40L12 40L12 40L13 40L13 39L12 39L12 39L13 39L13 38L13 37L13 37L13 37L13 36L13 37L14 36L14 36L14 36L14 36L14 36L14 35L14 35L14 35L14 34L14 34L14 33L14 32L14 32L14 31L14 31L14 31L15 30L15 29L15 29L15 28L16 27L16 27L16 27L16 27L16 26L17 26L17 26L17 26L17 25L18 24L18 24L18 24L18 23L18 22L19 22L19 22L19 22L19 22L20 22L20 22L20 22L20 22V21L20 21L20 20L19 20L19 20L19 19L19 19L20 19L20 18L20 18L20 16L19 16L19 15L19 15L19 14L20 14L20 14L20 14L20 14L20 14L20 13L20 13L20 13L19 13V12L20 12L20 12L20 11L20 11L20 11L21 11L21 10L22 10L23 10L24 9L24 9L24 9L24 8L25 6L25 5L25 4L25 4L25 4L25 3L25 3L26 2L26 2L26 2L26 2L27 2L27 2L28 1L28 1L28 1L28 0L28 0L29 0L29 0L29 0L30 1L30 1L30 1L31 1L31 1L33 1L33 1L34 1L34 2L34 2L35 2L35 2L35 3L35 3L36 4L36 4L36 4L36 3L36 3L36 2L37 1L37 1L38 1L38 1L38 1H38L38 1L40 1L41 1L42 1L42 1L42 2L42 2L42 2ZM45 78L45 78L45 78L44 78L44 77L44 77L45 77L45 78L45 78ZM19 167L19 165L19 163L19 162L19 160L19 158L19 156L19 154L19 153L19 153L20 154L20 155L21 155L20 155L20 155L20 156L20 156V156L20 156L20 157L21 157L21 157L22 158L22 159L22 159L23 160L24 161L24 162L25 162L26 163L27 163L28 164L28 165L29 165L30 166L32 165L32 166L32 166L32 166L32 167L31 167L31 167L30 167L30 167L29 167L29 168L29 168L28 168L28 168L27 168L27 168L26 167L25 167L22 167L22 167L21 167L20 167L20 167L19 167L19 167ZM35 166L35 166L36 166L37 166L37 166L37 166L37 166L38 166L38 166L37 167L37 166L36 166L35 167L35 167L34 167L34 167L34 167L34 166L35 166L35 166L35 166Z" fill="var(--fill-0,#71B219)" stroke="var(--stroke-0,white)" mask="url(#path-1-inside-1_0_251)"/></g></svg>