<svg preserveAspectRatio="none" width="100%" height="100%" overflow="visible" style="display: block;" viewBox="0 0 76.8614 168.108" fill="none" xmlns="http://www.w3.org/2000/svg">
<g id="AR">
<mask id="path-1-inside-1_0_251" fill="white">
<path d="M42.1856 1.78859L42.2833 1.90245L42.2819 2.02183L42.6079 2.26596L43.26 2.63768L43.8708 3.35507L44.4404 4.42082L44.9755 5.21089L45.4749 5.72116L45.9344 6.08333L46.354 6.29456L46.5782 6.46601L46.6071 6.59771L46.9992 6.87063L47.7544 7.28622L48.2318 7.70189L48.4326 8.11613L49.1783 8.54545L50.47 8.98715L51.4096 9.19838L51.9957 9.17912L52.8362 9.53167L53.9313 10.2586L54.5999 10.7634L54.8406 11.0446L55.5573 11.5013L57.3458 12.4465L58.134 12.6837L58.5082 12.9005L58.7297 13.1748L58.9485 13.2599L59.1644 13.1529L59.6129 13.2516L60.2952 13.5562L60.829 13.9251L61.5155 14.7385L61.7342 15.0636L61.8264 15.3544L61.7934 15.6109L61.5843 15.8852L61.1991 16.176L61.0849 16.3036L61.0767 16.4257L60.979 16.6712L60.6598 17.1951L60.5786 17.4393L60.5608 17.6203L60.3585 17.8179L59.8206 18.1828L59.7092 18.3597L59.6817 18.5504L59.6143 18.6642L59.5414 18.7122L59.4382 18.9028L59.3543 19.2197L59.346 19.6258L59.412 20.1223L59.3983 20.2828L59.28 20.3679L59.2126 20.4831L59.1892 20.7149L59.0874 20.8849L58.9099 20.9933L58.8439 21.1167L58.8906 21.258L58.76 21.3966L58.4518 21.5337L58.2633 21.734L58.1932 21.996L58.0212 22.2305L57.7475 22.4377L57.658 22.7133L57.8011 23.2236L59.4877 23.0467L60.862 23.2332L62.4881 23.7243L63.5667 23.8957L64.099 23.7476L64.4938 23.7682L64.7511 23.9588L65.0964 23.9973L65.5298 23.8848L65.8888 23.9712L66.1722 24.2565L66.4295 24.1851L66.6606 23.7599L66.9261 23.4486L67.226 23.2538L67.5988 23.1948L68.0459 23.273L68.4022 23.4294L68.6691 23.6639L68.9593 23.657L69.2744 23.4088L69.4257 23.1112L69.412 22.7641L69.5372 22.5159L69.7999 22.3663L69.9774 22.1647L70.0695 21.9096L70.3818 21.7546L70.9142 21.6983L71.1935 21.5735L71.2182 21.3801L71.3751 21.2018L71.6653 21.0385L71.8648 20.8356L71.9721 20.5928L72.1468 20.4392L72.3917 20.3774L72.6641 19.8658L72.9626 18.9084L73.1401 17.6162L73.202 15.7878L73.5033 15.7892L73.6436 15.925L73.8665 15.9949L74.1003 15.8413L74.2998 15.77L74.6149 15.7645L74.7854 15.5916L74.9849 15.5643L75.1211 15.6575L75.2532 15.7714L75.5338 15.7974L75.7567 16.0937L76.0015 16.1842L76.1061 16.5244L76.2643 17.4201L76.5587 17.9496L76.8504 18.5531L76.8614 18.822L76.6976 19.0936L76.6701 19.4844L76.5683 20.4405L76.5339 20.7931L76.6357 21.0331L76.6728 21.3691L76.5147 21.7793L76.2065 22.3938L75.908 22.5597L75.8309 22.5666L75.4265 22.9219L75.1417 23.0549L74.9767 22.9658L74.7882 23.1194L74.5763 23.5186L74.3177 23.6969L73.85 23.7956L73.7096 23.8422L73.4372 23.8285L73.2034 23.9273L73.008 24.1399L72.8003 24.2195L72.5788 24.166L72.378 24.2442L72.1977 24.454L72.0932 24.6817L72.0643 24.9272L71.8882 25.0946L71.5635 25.1837L71.4507 25.3072L71.4714 25.4786L71.3255 25.6117L70.7767 25.7516L70.3791 25.9985L70.1342 26.3537L69.8756 26.5773L69.4683 26.7145L68.9153 27.0767L68.8355 27.3002L69.046 27.506L69.1217 27.6897L69.0625 27.8502L68.8906 27.8722L68.6044 27.7556L68.4008 27.7309L68.2798 27.7995L68.222 27.9284L68.2289 28.1177L68.1271 28.2466L67.9152 28.3152L67.7818 28.4716L67.7253 28.7171L67.4598 29.0272L66.9866 29.4002L66.6138 29.9036L66.34 30.5374L66.0209 30.9543L65.655 31.1546L65.4032 31.4399L65.2656 31.8103L64.8749 32.3836L64.2338 33.1627L63.6519 33.6976L63.1292 33.9885L62.8362 34.3177L62.7715 34.6839L62.4331 35.1023L61.8209 35.5714L61.6475 35.7826L61.5045 35.9554L61.4838 36.2572L61.2458 36.6536L60.7877 37.1461L60.6281 37.5726L60.8359 38.1117L60.8661 38.7659L60.7753 39.028L60.5745 39.1171L60.5291 39.2858L60.6378 39.5355L60.6433 39.8633L60.547 40.2706L60.3351 40.737L60.0063 41.2624L59.9266 41.6135L60.0971 41.7905L60.1811 41.9784L60.1783 42.1787L60.1081 42.4681L59.972 42.848L59.7656 43.1306L59.4891 43.3144L59.4052 43.5476L59.5166 43.8288L59.5317 44.1223L59.452 44.4282L59.4987 44.7259L59.6721 45.0153L59.6597 45.3458L59.3584 46.0248L59.2855 46.4446L59.474 48.2455L59.3598 48.498L59.1685 48.7887L58.9416 48.8106L58.6829 48.7599L58.4958 48.941L58.3789 49.7407L58.0226 51.4744L58.0859 51.8873L58.372 52.558L58.4766 52.986L58.5564 53.3083L58.6196 53.9201L58.4532 54.1958L58.2991 54.2438L58.1051 54.3989L58.3349 55.1464L58.5178 55.4906L59.0406 56.1984L61.0478 57.1833L61.88 57.7649L62.8224 58.5591L63.3369 59.3766L63.3823 60.0515L62.6298 61.0624L62.5459 61.9128L62.7 62.5122L62.9723 63.0691L63.7015 63.7934L64.238 64.0595L64.963 64.0307L65.0868 64.2337L65.1611 64.412L65.2753 65.8866L65.2615 66.442L65.0483 66.9523L63.6561 69.3033L62.4675 70.7463L62.0369 71.546L61.8841 72.4033L61.5031 72.812L59.4423 74.1124L56.2452 75.2769L53.6616 75.8832L53.0742 76.0876L48.921 76.7556L48.1176 76.8489L47.0721 76.7899L46.2233 76.879L45.2768 76.6966L44.4321 76.4867L43.9589 75.9655L43.3976 75.901L43.2449 76.1616L43.5187 76.8269L43.3852 77.6293L43.5517 78.0875L43.8832 78.1794L44.2024 78.4166L44.4844 78.7349L43.9988 78.7678L44.1873 79.0216L44.395 79.1697L44.3716 79.7006L44.1831 80.9817L43.7099 81.256L43.5833 81.3301L43.4403 81.6072L43.139 82.8389L43.0427 83.64L43.172 84.1571L43.7401 85.2462L43.5256 85.9554L43.1665 86.3408L41.6106 87.135L40.9888 87.4532L40.0093 87.6713L38.4314 87.7084L37.8481 87.659L36.4958 86.9347L35.4915 86.5013L34.5725 86.157L33.6783 85.9513L33.8063 85.847L33.8654 85.6604L33.6137 85.5562L33.4307 85.5329L32.8419 85.9073L32.5943 86.2901L32.5227 86.6261L32.5104 87.4326L32.6149 88.1116L33.0386 89.7891L33.0827 90.704L32.8818 91.8617L33.1624 92.5449L33.5036 92.8534L34.2699 93.1594L34.567 93.3678L34.8944 93.3349L34.9949 93.4158L34.9467 93.5653L34.7541 93.8603L34.7665 94.1716L35.3471 94.2635L35.9496 94.2004L36.5811 94.0619L36.7296 93.8452L36.7338 93.3925L35.9936 93.313L36.0872 93.1442L36.6484 92.9604L37.3831 92.6601L37.7586 92.6038L38.0145 92.8055L38.1865 92.9906L38.3983 93.4776L38.5304 94.1209L38.5359 94.8959L38.4479 95.627L38.3433 95.8862L38.1576 96.1976L36.8369 96.5954L36.4669 96.4911L36.1229 95.9384L36.0142 95.3664L35.7199 94.9809L35.0884 94.675L34.4597 94.7683L33.8366 95.2992L33.2244 95.4706L33.007 95.9548L34.5422 96.7394L35.2672 96.9588L35.5039 96.9506L35.7391 97.0535L35.5204 97.3457L35.3016 97.5267L34.2094 97.9272L33.7279 98.2071L33.1652 98.7585L32.3769 99.9642L32.1348 100.227L32.0137 100.535L31.9326 101.37L32.1884 102.762L31.9188 103.347L32.0853 103.997L31.9917 104.432L31.7166 105.059L30.6106 106.05L30.4138 106.777L30.7976 107.207L30.7715 107.582L30.6436 107.924L30.1841 107.92L28.514 107.691L27.9059 108.064L27.3419 108.521L27.1878 108.739L26.9883 108.876L25.8396 109.12L25.6126 109.282L24.391 111.031L23.8683 112.12L23.2368 113.193L23.0717 113.648L23.036 114.28L23.124 114.851L23.212 115.272L23.4322 115.814L23.8944 116.432L26.2482 118.966L26.7366 119.188L29.2541 119.461L29.8126 119.816L30.1387 120.381L30.2584 120.881L30.1139 122.148L29.964 122.546L29.6861 122.908L29.0904 123.374L28.3778 123.623L28.5814 123.8L28.8703 123.774L29.5004 123.623L29.7727 123.774L29.9791 124.277L29.5843 124.48L29.4646 124.725L29.1798 125.097L27.7271 126.584L26.9443 127.03L26.2248 127.629L25.2591 128.237L24.8808 128.587L24.369 129.322L23.5862 130.124L22.7416 131.854L22.7085 132.19L22.831 132.415L22.3619 135.475L22.1982 135.837L21.8584 136.224L20.9642 136.863L20.5336 136.943L19.964 136.573L19.6435 136.186L19.3285 135.525L18.9488 134.844L18.9295 135.087L19.0616 135.501L18.9722 135.935L18.0009 136.132L17.7437 136.335L18.62 136.245L19.217 136.376L19.4702 136.534L19.6972 136.865L19.898 137.262L19.7302 137.483L19.2514 137.666L18.6324 138.002L17.9005 138.609L17.4947 139.314L17.32 139.822L17.1219 140.848L17.0696 141.528L16.76 142.052L16.2827 142.526L16.3102 142.634L16.6335 142.391L16.8921 142.314L17.115 142.945L17.4149 144.211L17.5538 145.092L17.5318 145.353L17.4424 145.712L16.8261 145.798L16.2758 145.787L15.8714 145.941L16.0887 146.1L16.4602 146.044L16.9733 146.422L17.5428 146.261L17.8028 146.514L17.9899 146.746L18.8621 148.603L19.6242 149.757L20.0094 150.443L19.8182 150.756L19.7494 150.34L19.2528 150.232L18.7686 150.12L17.961 149.823L16.8729 149.373H15.7833L14.918 148.993L13.9619 148.573L11.9438 148.536L10.1664 148.51L8.34493 148.484L7.17973 148.466L6.39974 148.455L6.1975 148.298L6.26627 147.776L5.97739 147.392L5.55777 146.929L5.04743 146.602L4.79427 146.165L4.51089 145.674L4.67046 145.239L4.91535 144.184L4.91946 143.72L4.69796 143.397L4.63058 142.937L4.69796 142.722L4.89746 142.558L5.01716 141.808L4.92358 141.074L4.77089 140.42L4.56865 140.132L4.30865 139.995L4.11608 139.969L3.68962 140.213L2.9825 140.151L2.74173 140.244L2.39646 140.507L1.90669 140.893L1.63431 140.759L1.55038 140.345L1.36881 139.987L1.25323 139.671L1.16658 139.151L1.02211 138.486L0.73323 137.7L0.290269 137.066L0.265499 136.497L0.182961 135.784L0.408577 135.091L0.276499 134.518L0 133.836L0.0852671 133.131L0.357652 132.741L0.442961 132.248L1.70312 132.17L1.65081 131.507L1.85992 130.972L2.09515 130.488L2.29604 130.268L2.7445 130.076L3.27277 129.798L3.57131 129.48L3.71435 129.194L3.80104 128.827L3.82443 128.436L3.73773 127.606L3.83681 127.351L4.16423 127.015L4.71723 126.717L4.95523 125.928L4.81904 125.244L4.51227 124.702L4.12158 124.458L4.0872 123.902L4.26327 123.376L4.493 122.812L4.76677 122.166L4.75027 121.715L4.99377 121.451L5.68712 120.864L5.92512 120.291L6.16858 120.136L6.45335 120.067L6.46989 119.744L6.26216 119.423L6.22912 119.021L6.25389 118.576L6.31716 117.982L6.64046 117.76L7.11919 117.28L7.24716 116.976L7.26366 116.568L7.12469 115.729L7.00639 115.128L6.94585 114.907L6.7285 114.501L6.56754 114.245L6.82481 113.924L7.30631 113.588L7.50989 113.101L7.32281 112.688L7.05043 112.47L6.96512 111.839L7.06693 111.039L7.27054 110.798L7.98589 110.677L8.05331 110.267L8.59808 109.688L8.58158 109.135L8.23489 108.796L7.89508 108.25L7.64474 107.769L6.81104 107.506L5.92512 107.363L5.80543 106.909L5.83981 106.647L6.25116 106.753L6.92385 106.661L7.43012 106.64L7.78227 106.593L8.18812 106.528L8.56231 106.718L8.93651 106.599L9.0892 105.884L9.3272 105.504L9.36158 105.148L9.12358 104.864L8.68751 104.776L6.77939 104.551L6.72162 104.267L6.73812 103.791L6.80966 103.306V103.067L6.983 102.857L7.18112 102.418L7.32004 102.126L7.18112 101.747L6.87708 101.189L7.09858 100.931L7.11647 100.624L7.04766 100.324L6.73127 99.9902L6.452 99.5307V99.0424L6.77939 98.9121L6.99677 98.7626L7.04766 98.4608L6.92796 98.0891L6.47539 97.9753L5.87281 97.7475L5.68846 97.5569L5.51789 97.1591L5.64446 96.0439L5.5812 95.3732L5.52754 95.0029L5.67473 94.7176L5.87558 94.461L5.78066 93.8644L5.60181 93.5517L5.66508 93.3116L5.83431 93.0702L5.9815 92.7725L6.10808 92.7026L6.29793 92.8726L6.61847 92.7725L7.005 92.5325L7.04627 92.2499L6.96923 91.8466L6.68173 90.8344L6.42312 90.2102L6.47677 89.9853L6.57854 89.7494L6.49739 88.8934L6.52354 88.3777L6.54277 86.862L6.5717 86.3462L6.30754 85.8196L6.34331 85.3271L6.52904 84.9677L6.70373 84.4822L6.83443 84.0528L6.972 83.8594L7.2045 83.7634L7.25816 83.5289L7.15224 83.3506L6.85231 83.0721L6.78354 82.732L6.84681 82.4714L6.994 82.3204L7.22239 82.3218L7.39435 81.9501L7.44385 81.4919L7.47962 81.2794L7.34758 81.0119L7.25266 80.3823L7.16323 80.0257L7.26916 79.8761L7.41635 79.8213L7.67635 79.9063L7.85931 79.8624L7.89097 79.6718L7.91162 79.4674L7.98177 79.3289L8.14546 78.868L8.3202 78.2973L8.36147 77.8955L8.29954 76.8077L8.39174 76.5581L8.57881 76.3303L8.83881 76.1164L9.18135 75.9395L9.60647 75.6844L10.1292 75.591L10.3411 75.3085L10.4883 74.9326L10.5295 74.6241L10.3287 74.4101L10.0645 74.1549L9.93939 73.5143L9.87197 72.9232L9.83343 72.1797L9.5707 71.5419L9.29554 70.8259L9.22127 70.1894L9.31343 69.8424L9.42212 69.291L9.30654 69.0399L9.16896 68.5915L9.31204 68.2403L9.48539 67.6957L9.46478 67.42L9.3272 66.763L9.20062 66.3954L9.3272 66.0031L9.52804 65.6369L9.68623 65.4407L9.66012 65.1252L9.72889 64.866L10.0288 64.6932L10.3094 64.3722L10.5103 64.3338H10.7524L10.9106 64.2433L10.9739 63.9963L11.0165 63.7234L11.4031 63.3846L11.6301 63.0732L12.0414 63.0088L12.2423 62.6714L12.2464 62.2393L12.1996 61.803L12.3372 61.2997L12.1845 60.5315L12.1996 60.1255L12.0414 59.7908L12.0731 59.4301L11.9878 59.1997L11.7484 59.1132L11.6604 58.8265L11.7759 58.6853L12.0015 58.5769L12.2849 58.3575L12.4968 57.304L12.5972 56.9912L12.6949 56.6168L12.6825 56.422L12.8187 56.1408L12.9893 55.7143L13.2575 55.3028L13.4102 55.0202L13.5588 54.6402L13.6015 54.4112L13.7913 54.2973L14.01 54.2685L14.2673 54.1972L14.3732 54.0573L14.354 53.8543L14.3375 53.4058L14.2604 52.6938L14.2109 51.7789L14.2563 51.1782L14.4255 50.576L14.5837 50.2495L14.5411 49.9985L14.4984 49.7229L14.2027 49.5719L13.922 49.7023L13.7253 49.6666L13.4735 49.347L13.3992 49.0081L13.4419 48.5459L13.6386 48.2578L13.7157 47.8958L13.6001 47.7833L13.3525 47.5432L13.1186 46.7175L13.1475 46.0152L12.915 45.8286L12.8063 45.2814L12.5669 45.0852L12.472 44.6765L12.3977 44.2554L12.4294 44.0702L12.6797 44.0181L12.8215 43.6862L12.7155 43.501L12.5257 43.3405L12.2835 43.3528L12.0662 43.1635L11.7759 42.3721L11.5462 41.9359L11.6191 41.3008L11.6645 40.8056L11.7635 40.3818L11.7993 40.0484L11.9782 39.8894L12.1474 39.962L12.3056 39.925L12.4514 39.6548L12.611 39.4847L12.6014 39.3503L12.5064 39.2049L12.461 38.9484L12.5725 38.6425L12.765 37.9443L13.0567 37.1762L13.1819 36.8895L13.1502 36.6467L13.2135 36.537L13.4116 36.6591L13.9743 36.5247L14.1641 36.1844L14.2384 35.8814L14.4076 35.7113L14.3334 35.4698L14.1009 35.3971L13.9605 35.2833L14.0169 35.0089L14.0995 34.3794L14.0857 33.9171L13.8739 32.9309L13.7033 31.957L13.823 31.6319L14.1916 31.1875L14.4709 30.9873L14.5218 30.7335L14.7983 29.5895L14.83 28.9654L15.0115 28.6211L15.1312 27.9737L15.632 27.4168L15.7792 27.0479L15.98 27.0122L16.086 26.8928L16.3515 26.4827L16.6968 26.0616L16.9939 25.849L17.0682 25.517L17.2099 25.0644L17.5043 24.3141L17.6694 23.7915L17.8909 23.6035L18.1495 22.9205L18.2609 22.52L18.5567 22.3554L18.7878 22.3087L19.0093 22.4967L19.2418 22.461L19.4537 22.2264L19.9627 22.0659L20.1924 21.9795L20.2984 21.745V21.3335L20.0865 21.029L19.6559 20.446L19.2845 19.7945L19.2445 19.5901L19.2418 19.3665L19.3051 19.0839L19.4825 18.7644L19.9283 18.2376L19.8801 17.8618L19.5555 16.4805L19.4358 16.1006L19.2102 15.3969L19.2418 15.1185L19.4399 14.3421L19.6119 14.0293L19.865 13.9717L20.0025 13.8675L20.0452 13.729L19.876 13.5562L19.8017 13.3366L19.7274 13.024L19.4935 12.9142L19.3587 12.6549V12.275L19.5692 11.7798L19.8017 11.6413L19.8966 11.4218L20.1456 11.2215L20.3726 11.0666L20.5625 10.7798L21.3452 10.4287L21.967 10.1558L23.1804 9.63456L24.0127 9.27657L24.0925 9.0296L24.1558 8.8609L24.541 7.6031L25.0404 5.98044L25.3526 4.96542L24.6345 4.21923L24.7611 4.02031L25.1724 3.51004L25.2577 3.10132L25.4214 2.92576L26.1588 2.51009L26.2854 2.2344L26.35 1.92849L26.5 1.70906L26.7806 1.66376L27.291 1.46903L27.8385 1.28384L28.0036 1.03285L28.1591 0.596671L28.2925 0.113775L28.3984 0L28.5745 0.0123068L28.8675 0.133031L29.0216 0.315456L29.7879 0.894295L30.1318 1.22482L30.4592 1.26877L31.1058 1.20431L31.2365 1.21938L32.8859 1.23855L33.1377 1.26735L33.7141 1.40867L34.0401 1.52253L34.2671 1.58147L34.6317 1.75979L34.9481 2.35102L35.1256 2.82144L35.2494 3.23569L35.5259 3.96405L35.7144 4.24116L35.7817 4.10671L35.9427 3.30978L36.1642 2.84614L36.4628 2.32632L37.0639 1.11372L37.2744 0.932722L37.5083 0.8449L37.672 0.838035L37.8384 0.92862H38.0654L38.2264 0.832593L39.8029 0.81744L41.4386 0.803794L41.473 0.810659L41.5473 1.01912L41.8197 1.47447L42.1251 1.71592L42.1856 1.78859ZM45.1791 77.7226L45.2176 78.0354L45.0168 77.9983L44.5394 77.6993L44.3785 77.4195L44.3413 77.3015L44.8283 77.4291L45.0581 77.5457L45.1791 77.7226ZM19.0121 166.916L19.0341 165.413L19.0644 163.405L19.0699 161.626L19.0754 159.903L19.0809 158.131L19.0864 156.371L19.0932 154.502L19.1001 152.616L19.3271 152.883L20.224 154.186L20.4579 154.721L20.6051 155.347L20.246 154.949L19.8677 155.176L19.6807 155.55L19.5211 155.956V156.242L19.6449 156.493L20.0136 156.711L20.9092 156.785L20.9752 156.868L21.4979 158.446L21.7607 158.8L22.0661 159.082L22.7732 159.894L23.4514 160.771L24.2562 161.607L25.1229 162.25L25.9126 162.738L26.6651 163.338L27.4684 164.177L28.342 164.789L29.2802 165.221L30.2281 165.583L31.6877 165.442L32.1403 165.48L32.4223 165.747L32.1389 166.483L31.7771 167.077L31.2942 167.323L30.7839 167.413L30.323 167.401L29.8636 167.291L29.4316 167.353L29.0189 167.604L28.5883 167.728L28.1453 167.745L27.7133 167.956L27.28 168.108L26.8301 167.982L25.6608 167.39L24.9014 167.248L22.3289 167.014L21.5034 166.878L20.6808 166.674L20.2502 166.664L19.6352 166.797L19.1427 166.781L19.0121 166.916ZM34.8573 166.002L35.2837 166.155L36.1257 166.039L36.5701 166.037L36.7654 166.092L36.8521 166.174L37.4326 166.045L37.6899 166.061L37.6238 166.346L37.0887 166.63L36.8686 166.509L35.7309 166.535L35.2274 166.829L35.0127 166.826L34.5161 167.244L34.1529 166.98L34.0525 166.737L34.3153 166.391L34.5629 166.384L34.7321 166.244L34.8573 166.002Z"/>
</mask>
<path d="M42.1856 1.78859L42.2833 1.90245L42.2819 2.02183L42.6079 2.26596L43.26 2.63768L43.8708 3.35507L44.4404 4.42082L44.9755 5.21089L45.4749 5.72116L45.9344 6.08333L46.354 6.29456L46.5782 6.46601L46.6071 6.59771L46.9992 6.87063L47.7544 7.28622L48.2318 7.70189L48.4326 8.11613L49.1783 8.54545L50.47 8.98715L51.4096 9.19838L51.9957 9.17912L52.8362 9.53167L53.9313 10.2586L54.5999 10.7634L54.8406 11.0446L55.5573 11.5013L57.3458 12.4465L58.134 12.6837L58.5082 12.9005L58.7297 13.1748L58.9485 13.2599L59.1644 13.1529L59.6129 13.2516L60.2952 13.5562L60.829 13.9251L61.5155 14.7385L61.7342 15.0636L61.8264 15.3544L61.7934 15.6109L61.5843 15.8852L61.1991 16.176L61.0849 16.3036L61.0767 16.4257L60.979 16.6712L60.6598 17.1951L60.5786 17.4393L60.5608 17.6203L60.3585 17.8179L59.8206 18.1828L59.7092 18.3597L59.6817 18.5504L59.6143 18.6642L59.5414 18.7122L59.4382 18.9028L59.3543 19.2197L59.346 19.6258L59.412 20.1223L59.3983 20.2828L59.28 20.3679L59.2126 20.4831L59.1892 20.7149L59.0874 20.8849L58.9099 20.9933L58.8439 21.1167L58.8906 21.258L58.76 21.3966L58.4518 21.5337L58.2633 21.734L58.1932 21.996L58.0212 22.2305L57.7475 22.4377L57.658 22.7133L57.8011 23.2236L59.4877 23.0467L60.862 23.2332L62.4881 23.7243L63.5667 23.8957L64.099 23.7476L64.4938 23.7682L64.7511 23.9588L65.0964 23.9973L65.5298 23.8848L65.8888 23.9712L66.1722 24.2565L66.4295 24.1851L66.6606 23.7599L66.9261 23.4486L67.226 23.2538L67.5988 23.1948L68.0459 23.273L68.4022 23.4294L68.6691 23.6639L68.9593 23.657L69.2744 23.4088L69.4257 23.1112L69.412 22.7641L69.5372 22.5159L69.7999 22.3663L69.9774 22.1647L70.0695 21.9096L70.3818 21.7546L70.9142 21.6983L71.1935 21.5735L71.2182 21.3801L71.3751 21.2018L71.6653 21.0385L71.8648 20.8356L71.9721 20.5928L72.1468 20.4392L72.3917 20.3774L72.6641 19.8658L72.9626 18.9084L73.1401 17.6162L73.202 15.7878L73.5033 15.7892L73.6436 15.925L73.8665 15.9949L74.1003 15.8413L74.2998 15.77L74.6149 15.7645L74.7854 15.5916L74.9849 15.5643L75.1211 15.6575L75.2532 15.7714L75.5338 15.7974L75.7567 16.0937L76.0015 16.1842L76.1061 16.5244L76.2643 17.4201L76.5587 17.9496L76.8504 18.5531L76.8614 18.822L76.6976 19.0936L76.6701 19.4844L76.5683 20.4405L76.5339 20.7931L76.6357 21.0331L76.6728 21.3691L76.5147 21.7793L76.2065 22.3938L75.908 22.5597L75.8309 22.5666L75.4265 22.9219L75.1417 23.0549L74.9767 22.9658L74.7882 23.1194L74.5763 23.5186L74.3177 23.6969L73.85 23.7956L73.7096 23.8422L73.4372 23.8285L73.2034 23.9273L73.008 24.1399L72.8003 24.2195L72.5788 24.166L72.378 24.2442L72.1977 24.454L72.0932 24.6817L72.0643 24.9272L71.8882 25.0946L71.5635 25.1837L71.4507 25.3072L71.4714 25.4786L71.3255 25.6117L70.7767 25.7516L70.3791 25.9985L70.1342 26.3537L69.8756 26.5773L69.4683 26.7145L68.9153 27.0767L68.8355 27.3002L69.046 27.506L69.1217 27.6897L69.0625 27.8502L68.8906 27.8722L68.6044 27.7556L68.4008 27.7309L68.2798 27.7995L68.222 27.9284L68.2289 28.1177L68.1271 28.2466L67.9152 28.3152L67.7818 28.4716L67.7253 28.7171L67.4598 29.0272L66.9866 29.4002L66.6138 29.9036L66.34 30.5374L66.0209 30.9543L65.655 31.1546L65.4032 31.4399L65.2656 31.8103L64.8749 32.3836L64.2338 33.1627L63.6519 33.6976L63.1292 33.9885L62.8362 34.3177L62.7715 34.6839L62.4331 35.1023L61.8209 35.5714L61.6475 35.7826L61.5045 35.9554L61.4838 36.2572L61.2458 36.6536L60.7877 37.1461L60.6281 37.5726L60.8359 38.1117L60.8661 38.7659L60.7753 39.028L60.5745 39.1171L60.5291 39.2858L60.6378 39.5355L60.6433 39.8633L60.547 40.2706L60.3351 40.737L60.0063 41.2624L59.9266 41.6135L60.0971 41.7905L60.1811 41.9784L60.1783 42.1787L60.1081 42.4681L59.972 42.848L59.7656 43.1306L59.4891 43.3144L59.4052 43.5476L59.5166 43.8288L59.5317 44.1223L59.452 44.4282L59.4987 44.7259L59.6721 45.0153L59.6597 45.3458L59.3584 46.0248L59.2855 46.4446L59.474 48.2455L59.3598 48.498L59.1685 48.7887L58.9416 48.8106L58.6829 48.7599L58.4958 48.941L58.3789 49.7407L58.0226 51.4744L58.0859 51.8873L58.372 52.558L58.4766 52.986L58.5564 53.3083L58.6196 53.9201L58.4532 54.1958L58.2991 54.2438L58.1051 54.3989L58.3349 55.1464L58.5178 55.4906L59.0406 56.1984L61.0478 57.1833L61.88 57.7649L62.8224 58.5591L63.3369 59.3766L63.3823 60.0515L62.6298 61.0624L62.5459 61.9128L62.7 62.5122L62.9723 63.0691L63.7015 63.7934L64.238 64.0595L64.963 64.0307L65.0868 64.2337L65.1611 64.412L65.2753 65.8866L65.2615 66.442L65.0483 66.9523L63.6561 69.3033L62.4675 70.7463L62.0369 71.546L61.8841 72.4033L61.5031 72.812L59.4423 74.1124L56.2452 75.2769L53.6616 75.8832L53.0742 76.0876L48.921 76.7556L48.1176 76.8489L47.0721 76.7899L46.2233 76.879L45.2768 76.6966L44.4321 76.4867L43.9589 75.9655L43.3976 75.901L43.2449 76.1616L43.5187 76.8269L43.3852 77.6293L43.5517 78.0875L43.8832 78.1794L44.2024 78.4166L44.4844 78.7349L43.9988 78.7678L44.1873 79.0216L44.395 79.1697L44.3716 79.7006L44.1831 80.9817L43.7099 81.256L43.5833 81.3301L43.4403 81.6072L43.139 82.8389L43.0427 83.64L43.172 84.1571L43.7401 85.2462L43.5256 85.9554L43.1665 86.3408L41.6106 87.135L40.9888 87.4532L40.0093 87.6713L38.4314 87.7084L37.8481 87.659L36.4958 86.9347L35.4915 86.5013L34.5725 86.157L33.6783 85.9513L33.8063 85.847L33.8654 85.6604L33.6137 85.5562L33.4307 85.5329L32.8419 85.9073L32.5943 86.2901L32.5227 86.6261L32.5104 87.4326L32.6149 88.1116L33.0386 89.7891L33.0827 90.704L32.8818 91.8617L33.1624 92.5449L33.5036 92.8534L34.2699 93.1594L34.567 93.3678L34.8944 93.3349L34.9949 93.4158L34.9467 93.5653L34.7541 93.8603L34.7665 94.1716L35.3471 94.2635L35.9496 94.2004L36.5811 94.0619L36.7296 93.8452L36.7338 93.3925L35.9936 93.313L36.0872 93.1442L36.6484 92.9604L37.3831 92.6601L37.7586 92.6038L38.0145 92.8055L38.1865 92.9906L38.3983 93.4776L38.5304 94.1209L38.5359 94.8959L38.4479 95.627L38.3433 95.8862L38.1576 96.1976L36.8369 96.5954L36.4669 96.4911L36.1229 95.9384L36.0142 95.3664L35.7199 94.9809L35.0884 94.675L34.4597 94.7683L33.8366 95.2992L33.2244 95.4706L33.007 95.9548L34.5422 96.7394L35.2672 96.9588L35.5039 96.9506L35.7391 97.0535L35.5204 97.3457L35.3016 97.5267L34.2094 97.9272L33.7279 98.2071L33.1652 98.7585L32.3769 99.9642L32.1348 100.227L32.0137 100.535L31.9326 101.37L32.1884 102.762L31.9188 103.347L32.0853 103.997L31.9917 104.432L31.7166 105.059L30.6106 106.05L30.4138 106.777L30.7976 107.207L30.7715 107.582L30.6436 107.924L30.1841 107.92L28.514 107.691L27.9059 108.064L27.3419 108.521L27.1878 108.739L26.9883 108.876L25.8396 109.12L25.6126 109.282L24.391 111.031L23.8683 112.12L23.2368 113.193L23.0717 113.648L23.036 114.28L23.124 114.851L23.212 115.272L23.4322 115.814L23.8944 116.432L26.2482 118.966L26.7366 119.188L29.2541 119.461L29.8126 119.816L30.1387 120.381L30.2584 120.881L30.1139 122.148L29.964 122.546L29.6861 122.908L29.0904 123.374L28.3778 123.623L28.5814 123.8L28.8703 123.774L29.5004 123.623L29.7727 123.774L29.9791 124.277L29.5843 124.48L29.4646 124.725L29.1798 125.097L27.7271 126.584L26.9443 127.03L26.2248 127.629L25.2591 128.237L24.8808 128.587L24.369 129.322L23.5862 130.124L22.7416 131.854L22.7085 132.19L22.831 132.415L22.3619 135.475L22.1982 135.837L21.8584 136.224L20.9642 136.863L20.5336 136.943L19.964 136.573L19.6435 136.186L19.3285 135.525L18.9488 134.844L18.9295 135.087L19.0616 135.501L18.9722 135.935L18.0009 136.132L17.7437 136.335L18.62 136.245L19.217 136.376L19.4702 136.534L19.6972 136.865L19.898 137.262L19.7302 137.483L19.2514 137.666L18.6324 138.002L17.9005 138.609L17.4947 139.314L17.32 139.822L17.1219 140.848L17.0696 141.528L16.76 142.052L16.2827 142.526L16.3102 142.634L16.6335 142.391L16.8921 142.314L17.115 142.945L17.4149 144.211L17.5538 145.092L17.5318 145.353L17.4424 145.712L16.8261 145.798L16.2758 145.787L15.8714 145.941L16.0887 146.1L16.4602 146.044L16.9733 146.422L17.5428 146.261L17.8028 146.514L17.9899 146.746L18.8621 148.603L19.6242 149.757L20.0094 150.443L19.8182 150.756L19.7494 150.34L19.2528 150.232L18.7686 150.12L17.961 149.823L16.8729 149.373H15.7833L14.918 148.993L13.9619 148.573L11.9438 148.536L10.1664 148.51L8.34493 148.484L7.17973 148.466L6.39974 148.455L6.1975 148.298L6.26627 147.776L5.97739 147.392L5.55777 146.929L5.04743 146.602L4.79427 146.165L4.51089 145.674L4.67046 145.239L4.91535 144.184L4.91946 143.72L4.69796 143.397L4.63058 142.937L4.69796 142.722L4.89746 142.558L5.01716 141.808L4.92358 141.074L4.77089 140.42L4.56865 140.132L4.30865 139.995L4.11608 139.969L3.68962 140.213L2.9825 140.151L2.74173 140.244L2.39646 140.507L1.90669 140.893L1.63431 140.759L1.55038 140.345L1.36881 139.987L1.25323 139.671L1.16658 139.151L1.02211 138.486L0.73323 137.7L0.290269 137.066L0.265499 136.497L0.182961 135.784L0.408577 135.091L0.276499 134.518L0 133.836L0.0852671 133.131L0.357652 132.741L0.442961 132.248L1.70312 132.17L1.65081 131.507L1.85992 130.972L2.09515 130.488L2.29604 130.268L2.7445 130.076L3.27277 129.798L3.57131 129.48L3.71435 129.194L3.80104 128.827L3.82443 128.436L3.73773 127.606L3.83681 127.351L4.16423 127.015L4.71723 126.717L4.95523 125.928L4.81904 125.244L4.51227 124.702L4.12158 124.458L4.0872 123.902L4.26327 123.376L4.493 122.812L4.76677 122.166L4.75027 121.715L4.99377 121.451L5.68712 120.864L5.92512 120.291L6.16858 120.136L6.45335 120.067L6.46989 119.744L6.26216 119.423L6.22912 119.021L6.25389 118.576L6.31716 117.982L6.64046 117.76L7.11919 117.28L7.24716 116.976L7.26366 116.568L7.12469 115.729L7.00639 115.128L6.94585 114.907L6.7285 114.501L6.56754 114.245L6.82481 113.924L7.30631 113.588L7.50989 113.101L7.32281 112.688L7.05043 112.47L6.96512 111.839L7.06693 111.039L7.27054 110.798L7.98589 110.677L8.05331 110.267L8.59808 109.688L8.58158 109.135L8.23489 108.796L7.89508 108.25L7.64474 107.769L6.81104 107.506L5.92512 107.363L5.80543 106.909L5.83981 106.647L6.25116 106.753L6.92385 106.661L7.43012 106.64L7.78227 106.593L8.18812 106.528L8.56231 106.718L8.93651 106.599L9.0892 105.884L9.3272 105.504L9.36158 105.148L9.12358 104.864L8.68751 104.776L6.77939 104.551L6.72162 104.267L6.73812 103.791L6.80966 103.306V103.067L6.983 102.857L7.18112 102.418L7.32004 102.126L7.18112 101.747L6.87708 101.189L7.09858 100.931L7.11647 100.624L7.04766 100.324L6.73127 99.9902L6.452 99.5307V99.0424L6.77939 98.9121L6.99677 98.7626L7.04766 98.4608L6.92796 98.0891L6.47539 97.9753L5.87281 97.7475L5.68846 97.5569L5.51789 97.1591L5.64446 96.0439L5.5812 95.3732L5.52754 95.0029L5.67473 94.7176L5.87558 94.461L5.78066 93.8644L5.60181 93.5517L5.66508 93.3116L5.83431 93.0702L5.9815 92.7725L6.10808 92.7026L6.29793 92.8726L6.61847 92.7725L7.005 92.5325L7.04627 92.2499L6.96923 91.8466L6.68173 90.8344L6.42312 90.2102L6.47677 89.9853L6.57854 89.7494L6.49739 88.8934L6.52354 88.3777L6.54277 86.862L6.5717 86.3462L6.30754 85.8196L6.34331 85.3271L6.52904 84.9677L6.70373 84.4822L6.83443 84.0528L6.972 83.8594L7.2045 83.7634L7.25816 83.5289L7.15224 83.3506L6.85231 83.0721L6.78354 82.732L6.84681 82.4714L6.994 82.3204L7.22239 82.3218L7.39435 81.9501L7.44385 81.4919L7.47962 81.2794L7.34758 81.0119L7.25266 80.3823L7.16323 80.0257L7.26916 79.8761L7.41635 79.8213L7.67635 79.9063L7.85931 79.8624L7.89097 79.6718L7.91162 79.4674L7.98177 79.3289L8.14546 78.868L8.3202 78.2973L8.36147 77.8955L8.29954 76.8077L8.39174 76.5581L8.57881 76.3303L8.83881 76.1164L9.18135 75.9395L9.60647 75.6844L10.1292 75.591L10.3411 75.3085L10.4883 74.9326L10.5295 74.6241L10.3287 74.4101L10.0645 74.1549L9.93939 73.5143L9.87197 72.9232L9.83343 72.1797L9.5707 71.5419L9.29554 70.8259L9.22127 70.1894L9.31343 69.8424L9.42212 69.291L9.30654 69.0399L9.16896 68.5915L9.31204 68.2403L9.48539 67.6957L9.46478 67.42L9.3272 66.763L9.20062 66.3954L9.3272 66.0031L9.52804 65.6369L9.68623 65.4407L9.66012 65.1252L9.72889 64.866L10.0288 64.6932L10.3094 64.3722L10.5103 64.3338H10.7524L10.9106 64.2433L10.9739 63.9963L11.0165 63.7234L11.4031 63.3846L11.6301 63.0732L12.0414 63.0088L12.2423 62.6714L12.2464 62.2393L12.1996 61.803L12.3372 61.2997L12.1845 60.5315L12.1996 60.1255L12.0414 59.7908L12.0731 59.4301L11.9878 59.1997L11.7484 59.1132L11.6604 58.8265L11.7759 58.6853L12.0015 58.5769L12.2849 58.3575L12.4968 57.304L12.5972 56.9912L12.6949 56.6168L12.6825 56.422L12.8187 56.1408L12.9893 55.7143L13.2575 55.3028L13.4102 55.0202L13.5588 54.6402L13.6015 54.4112L13.7913 54.2973L14.01 54.2685L14.2673 54.1972L14.3732 54.0573L14.354 53.8543L14.3375 53.4058L14.2604 52.6938L14.2109 51.7789L14.2563 51.1782L14.4255 50.576L14.5837 50.2495L14.5411 49.9985L14.4984 49.7229L14.2027 49.5719L13.922 49.7023L13.7253 49.6666L13.4735 49.347L13.3992 49.0081L13.4419 48.5459L13.6386 48.2578L13.7157 47.8958L13.6001 47.7833L13.3525 47.5432L13.1186 46.7175L13.1475 46.0152L12.915 45.8286L12.8063 45.2814L12.5669 45.0852L12.472 44.6765L12.3977 44.2554L12.4294 44.0702L12.6797 44.0181L12.8215 43.6862L12.7155 43.501L12.5257 43.3405L12.2835 43.3528L12.0662 43.1635L11.7759 42.3721L11.5462 41.9359L11.6191 41.3008L11.6645 40.8056L11.7635 40.3818L11.7993 40.0484L11.9782 39.8894L12.1474 39.962L12.3056 39.925L12.4514 39.6548L12.611 39.4847L12.6014 39.3503L12.5064 39.2049L12.461 38.9484L12.5725 38.6425L12.765 37.9443L13.0567 37.1762L13.1819 36.8895L13.1502 36.6467L13.2135 36.537L13.4116 36.6591L13.9743 36.5247L14.1641 36.1844L14.2384 35.8814L14.4076 35.7113L14.3334 35.4698L14.1009 35.3971L13.9605 35.2833L14.0169 35.0089L14.0995 34.3794L14.0857 33.9171L13.8739 32.9309L13.7033 31.957L13.823 31.6319L14.1916 31.1875L14.4709 30.9873L14.5218 30.7335L14.7983 29.5895L14.83 28.9654L15.0115 28.6211L15.1312 27.9737L15.632 27.4168L15.7792 27.0479L15.98 27.0122L16.086 26.8928L16.3515 26.4827L16.6968 26.0616L16.9939 25.849L17.0682 25.517L17.2099 25.0644L17.5043 24.3141L17.6694 23.7915L17.8909 23.6035L18.1495 22.9205L18.2609 22.52L18.5567 22.3554L18.7878 22.3087L19.0093 22.4967L19.2418 22.461L19.4537 22.2264L19.9627 22.0659L20.1924 21.9795L20.2984 21.745V21.3335L20.0865 21.029L19.6559 20.446L19.2845 19.7945L19.2445 19.5901L19.2418 19.3665L19.3051 19.0839L19.4825 18.7644L19.9283 18.2376L19.8801 17.8618L19.5555 16.4805L19.4358 16.1006L19.2102 15.3969L19.2418 15.1185L19.4399 14.3421L19.6119 14.0293L19.865 13.9717L20.0025 13.8675L20.0452 13.729L19.876 13.5562L19.8017 13.3366L19.7274 13.024L19.4935 12.9142L19.3587 12.6549V12.275L19.5692 11.7798L19.8017 11.6413L19.8966 11.4218L20.1456 11.2215L20.3726 11.0666L20.5625 10.7798L21.3452 10.4287L21.967 10.1558L23.1804 9.63456L24.0127 9.27657L24.0925 9.0296L24.1558 8.8609L24.541 7.6031L25.0404 5.98044L25.3526 4.96542L24.6345 4.21923L24.7611 4.02031L25.1724 3.51004L25.2577 3.10132L25.4214 2.92576L26.1588 2.51009L26.2854 2.2344L26.35 1.92849L26.5 1.70906L26.7806 1.66376L27.291 1.46903L27.8385 1.28384L28.0036 1.03285L28.1591 0.596671L28.2925 0.113775L28.3984 0L28.5745 0.0123068L28.8675 0.133031L29.0216 0.315456L29.7879 0.894295L30.1318 1.22482L30.4592 1.26877L31.1058 1.20431L31.2365 1.21938L32.8859 1.23855L33.1377 1.26735L33.7141 1.40867L34.0401 1.52253L34.2671 1.58147L34.6317 1.75979L34.9481 2.35102L35.1256 2.82144L35.2494 3.23569L35.5259 3.96405L35.7144 4.24116L35.7817 4.10671L35.9427 3.30978L36.1642 2.84614L36.4628 2.32632L37.0639 1.11372L37.2744 0.932722L37.5083 0.8449L37.672 0.838035L37.8384 0.92862H38.0654L38.2264 0.832593L39.8029 0.81744L41.4386 0.803794L41.473 0.810659L41.5473 1.01912L41.8197 1.47447L42.1251 1.71592L42.1856 1.78859ZM45.1791 77.7226L45.2176 78.0354L45.0168 77.9983L44.5394 77.6993L44.3785 77.4195L44.3413 77.3015L44.8283 77.4291L45.0581 77.5457L45.1791 77.7226ZM19.0121 166.916L19.0341 165.413L19.0644 163.405L19.0699 161.626L19.0754 159.903L19.0809 158.131L19.0864 156.371L19.0932 154.502L19.1001 152.616L19.3271 152.883L20.224 154.186L20.4579 154.721L20.6051 155.347L20.246 154.949L19.8677 155.176L19.6807 155.55L19.5211 155.956V156.242L19.6449 156.493L20.0136 156.711L20.9092 156.785L20.9752 156.868L21.4979 158.446L21.7607 158.8L22.0661 159.082L22.7732 159.894L23.4514 160.771L24.2562 161.607L25.1229 162.25L25.9126 162.738L26.6651 163.338L27.4684 164.177L28.342 164.789L29.2802 165.221L30.2281 165.583L31.6877 165.442L32.1403 165.48L32.4223 165.747L32.1389 166.483L31.7771 167.077L31.2942 167.323L30.7839 167.413L30.323 167.401L29.8636 167.291L29.4316 167.353L29.0189 167.604L28.5883 167.728L28.1453 167.745L27.7133 167.956L27.28 168.108L26.8301 167.982L25.6608 167.39L24.9014 167.248L22.3289 167.014L21.5034 166.878L20.6808 166.674L20.2502 166.664L19.6352 166.797L19.1427 166.781L19.0121 166.916ZM34.8573 166.002L35.2837 166.155L36.1257 166.039L36.5701 166.037L36.7654 166.092L36.8521 166.174L37.4326 166.045L37.6899 166.061L37.6238 166.346L37.0887 166.63L36.8686 166.509L35.7309 166.535L35.2274 166.829L35.0127 166.826L34.5161 167.244L34.1529 166.98L34.0525 166.737L34.3153 166.391L34.5629 166.384L34.7321 166.244L34.8573 166.002Z" fill="var(--fill-0, #71B219)" stroke="var(--stroke-0, white)" mask="url(#path-1-inside-1_0_251)"/>
</g>
</svg>
