<svg preserveAspectRatio="none" width="100%" height="100%" overflow="visible" style="display: block;" viewBox="0 0 0.97445 0.40466" fill="none" xmlns="http://www.w3.org/2000/svg">
<g id="AS">
<mask id="path-1-inside-1_0_208" fill="white">
<path d="M0.364244 0.370376L0.197893 0.40466L0 0.21675L0.384797 0.074092L0.507191 0L0.97445 0.037046L0.695437 0.0987893L0.364244 0.370376Z"/>
</mask>
<path d="M0.364244 0.370376L0.197893 0.40466L0 0.21675L0.384797 0.074092L0.507191 0L0.97445 0.037046L0.695437 0.0987893L0.364244 0.370376Z" fill="var(--fill-0, #71B219)"/>
<path d="M0.364244 0.370376L0.465168 0.860085L0.58594 0.835195L0.681291 0.757005L0.364244 0.370376ZM0.197893 0.40466L-0.146395 0.767241L0.0430072 0.947088L0.298817 0.894368L0.197893 0.40466ZM0 0.21675L-0.173808 -0.252068L-0.92613 0.0268457L-0.344288 0.579332L0 0.21675ZM0.384797 0.074092L0.558605 0.54291L0.603117 0.526408L0.643728 0.501824L0.384797 0.074092ZM0.507191 0L0.546708 -0.498436L0.386092 -0.51117L0.248259 -0.427732L0.507191 0ZM0.97445 0.037046L1.08248 0.525236L1.01397 -0.46139L0.97445 0.037046ZM0.695437 0.0987893L0.587404 -0.3894L0.470765 -0.363589L0.37839 -0.287839L0.695437 0.0987893ZM0.364244 0.370376L0.263321 -0.119332L0.0969694 -0.0850489L0.197893 0.40466L0.298817 0.894368L0.465168 0.860085L0.364244 0.370376ZM0.197893 0.40466L0.542182 0.0420779L0.344288 -0.145831L0 0.21675L-0.344288 0.579332L-0.146395 0.767241L0.197893 0.40466ZM0 0.21675L0.173808 0.685569L0.558605 0.54291L0.384797 0.074092L0.210989 -0.394726L-0.173808 -0.252068L0 0.21675ZM0.384797 0.074092L0.643728 0.501824L0.766122 0.427732L0.507191 0L0.248259 -0.427732L0.125866 -0.35364L0.384797 0.074092ZM0.507191 0L0.467673 0.498436L0.934933 0.535482L0.97445 0.037046L1.01397 -0.46139L0.546708 -0.498436L0.507191 0ZM0.97445 0.037046L0.866418 -0.451144L0.587404 -0.3894L0.695437 0.0987893L0.803469 0.586979L1.08248 0.525236L0.97445 0.037046ZM0.695437 0.0987893L0.37839 -0.287839L0.0471982 -0.0162523L0.364244 0.370376L0.681291 0.757005L1.01248 0.485418L0.695437 0.0987893Z" fill="var(--stroke-0, white)" mask="url(#path-1-inside-1_0_208)"/>
</g>
</svg>
