<svg preserveAspectRatio="none" width="100%" height="100%" overflow="visible" style="display: block;" viewBox="0 0 29 15" fill="none" xmlns="http://www.w3.org/2000/svg"><g id="AT"><mask id="path-1-inside-1_0_195" fill="white"><path d="M29 2L29 2L29 3L28 3L28 3L28 4L29 5L29 5L29 6L29 6L29 6L29 6L29 6L29 7L29 7L29 7L29 8L29 8L28 8L28 8L28 8L28 8L28 7L27 7L27 7L27 7L27 8L27 8L27 8L28 8L28 8L28 9L27 9L27 9L27 9L27 9L27 9L27 10L27 10L27 10L27 11L27 11L27 11L27 11L27 11L27 11L27 11L27 12L26 12L26 12L25 12L25 12L25 13L25 13L25 13L25 13L24 13L24 13L24 13L23 13L23 14L22 14L21 14L21 14L21 14L20 14L20 14L20 14L20 14L20 15L20 15L19 15L19 15L19 15L19 15L18 15L18 14L17 14L17 14L17 14L16 14L16 14L15 14L15 14L14 14L13 14L12 14L12 13L11 13L11 13L11 13L11 12L10 12L10 12L10 11L10 11L10 11L10 11L9 11L9 12L8 12L8 12L8 12L7 12L7 12L6 12L6 12L6 13L6 13L5 13L5 13L5 13L4 12L4 12L4 12L4 12L4 12L3 12L3 12L2 12L2 12L2 12L1 12L1 12L1 11L1 11L0 11H0L0 11L0 11L0 11L0 11L0 10L0 10L0 10L0 10L0 10L0 9L0 9L0 9L0 8L0 8L0 8L1 8L1 8L1 8L2 9L2 9L2 9L2 9L2 9L2 9L2 9L3 9L3 10L2 10L3 10L3 10L3 9L3 9L4 8L4 8L4 8L4 8L5 8L5 8L5 9L5 9L6 9L6 9L6 9L6 9L6 9L6 9L7 9L7 9L7 9L8 9L8 8L8 8L10 8L10 8L10 8L10 7L11 8L11 8L11 8L11 8L12 8L12 8L12 8L12 8L13 8L13 8L13 8L13 8L13 9L13 9L14 9L14 9L14 8L14 8L14 8L13 8L13 7L13 7L13 7L13 7L13 6L13 6L12 5L12 5L13 5L13 5L14 4L14 4L14 4L15 4L15 4L15 4L15 2L15 2L15 2L16 3L16 3L16 3L16 2L16 2L16 2L16 2L17 1L17 1L17 2L17 2L18 2L18 2L19 2L19 2L19 2L19 2L20 2L20 2L20 2L20 1L21 1L21 1L21 0L21 0L21 0L22 0L22 0L22 0L22 0L22 0L23 0L24 1L24 1L24 1L24 1L25 1L26 2L26 2L27 1L27 1L27 1L27 1L28 2L28 2L28 2L28 2L29 2L29 2Z"/></mask><path d="M29 2L29 2L29 3L28 3L28 3L28 4L29 5L29 5L29 6L29 6L29 6L29 6L29 6L29 7L29 7L29 7L29 8L29 8L28 8L28 8L28 8L28 8L28 7L27 7L27 7L27 7L27 8L27 8L27 8L28 8L28 8L28 9L27 9L27 9L27 9L27 9L27 9L27 10L27 10L27 10L27 11L27 11L27 11L27 11L27 11L27 11L27 11L27 12L26 12L26 12L25 12L25 12L25 13L25 13L25 13L25 13L24 13L24 13L24 13L23 13L23 14L22 14L21 14L21 14L21 14L20 14L20 14L20 14L20 14L20 15L20 15L19 15L19 15L19 15L19 15L18 15L18 14L17 14L17 14L17 14L16 14L16 14L15 14L15 14L14 14L13 14L12 14L12 13L11 13L11 13L11 13L11 12L10 12L10 12L10 11L10 11L10 11L10 11L9 11L9 12L8 12L8 12L8 12L7 12L7 12L6 12L6 12L6 13L6 13L5 13L5 13L5 13L4 12L4 12L4 12L4 12L4 12L3 12L3 12L2 12L2 12L2 12L1 12L1 12L1 11L1 11L0 11H0L0 11L0 11L0 11L0 11L0 10L0 10L0 10L0 10L0 10L0 9L0 9L0 9L0 8L0 8L0 8L1 8L1 8L1 8L2 9L2 9L2 9L2 9L2 9L2 9L2 9L3 9L3 10L2 10L3 10L3 10L3 9L3 9L4 8L4 8L4 8L4 8L5 8L5 8L5 9L5 9L6 9L6 9L6 9L6 9L6 9L6 9L7 9L7 9L7 9L8 9L8 8L8 8L10 8L10 8L10 8L10 7L11 8L11 8L11 8L11 8L12 8L12 8L12 8L12 8L13 8L13 8L13 8L13 8L13 9L13 9L14 9L14 9L14 8L14 8L14 8L13 8L13 7L13 7L13 7L13 7L13 6L13 6L12 5L12 5L13 5L13 5L14 4L14 4L14 4L15 4L15 4L15 4L15 2L15 2L15 2L16 3L16 3L16 3L16 2L16 2L16 2L16 2L17 1L17 1L17 2L17 2L18 2L18 2L19 2L19 2L19 2L19 2L20 2L20 2L20 2L20 1L21 1L21 1L21 0L21 0L21 0L22 0L22 0L22 0L22 0L22 0L23 0L24 1L24 1L24 1L24 1L25 1L26 2L26 2L27 1L27 1L27 1L27 1L28 2L28 2L28 2L28 2L29 2L29 2Z" fill="var(--fill-0,#71B219)" stroke="var(--stroke-0,white)" mask="url(#path-1-inside-1_0_195)"/></g></svg>