<svg preserveAspectRatio="none" width="100%" height="100%" overflow="visible" style="display: block;" viewBox="0 0 29.4316 14.8387" fill="none" xmlns="http://www.w3.org/2000/svg">
<g id="AT">
<mask id="path-1-inside-1_0_195" fill="white">
<path d="M28.6818 2.3442L28.6667 2.40318L28.6447 2.62127L28.4947 2.89696L28.3324 3.25632L28.3434 3.57182L28.7575 4.66093L29.1262 5.32069L29.1949 5.57172L29.4316 5.76511L29.2074 6.0079L29.1633 6.36727L29.0175 6.52776L28.979 6.73216L29.0409 6.91869L29.0395 7.15189L29.1206 7.47149L28.7602 7.54144L28.3324 7.53047L28.1797 7.54964L28.0366 7.63742L27.8894 7.59355L27.5014 7.29317L27.2841 7.22594L27.1301 7.24377L27.0145 7.37546L26.815 7.54278L26.6293 7.66074L26.6706 7.76363L27.4726 8.03384L27.6143 8.44808L27.4602 8.78551L27.4079 8.95149L27.2195 9.08042L26.9897 9.19428L26.7118 9.22308L26.6788 9.4055L26.7875 9.93909L26.6995 10.0543L26.6114 10.2203L26.6939 10.6579L26.8659 10.6894L26.9044 10.7882L26.8741 10.9665L26.8439 11.1544L26.7834 11.3533L26.7531 11.4424L26.6389 11.4973L26.284 11.4685L25.9772 11.6386L25.3609 12.2476L25.1463 12.3519L24.9124 12.596L24.9262 13.1296L24.8946 13.179L24.8381 13.2887L24.1022 13.0994L24.0774 13.1035L23.5835 13.1721L23.2465 13.4163L22.8379 13.5575L21.9794 13.4821L21.1444 13.5768L20.9463 13.6481L20.7303 13.6892L20.5267 13.8319L20.4098 14.0322L20.202 14.2845L19.9062 14.4834L19.5857 14.6371L19.5087 14.7646L19.4041 14.8387L19.2239 14.7427L19.0795 14.7482L18.902 14.6823L18.3118 14.611L17.6653 14.493L17.3557 14.3806L17.0063 14.29L16.6294 14.2173L16.2924 14.2008L16.1217 14.1666L15.3115 13.9704L14.7763 13.9567L14.0706 13.8744L12.6687 13.5781L12.2602 13.4574L11.8709 13.4204L11.4086 13.3175L11.0578 13.1488L10.8336 12.8278L10.5928 12.4026L10.154 11.8443L10.0632 11.5659L10.198 11.3217L10.3356 11.1366L10.3204 11.0584L10.2131 11.0172L9.44139 11.2559L8.693 11.5576L8.39858 11.5659L8.11381 11.5L7.73416 11.4946L7.37097 11.5755L6.64185 11.6166L6.21539 11.8389L5.943 12.2709L5.79577 12.6193L5.67196 12.7318L5.41746 12.7743L5.03777 12.7414L4.77089 12.6413L4.4985 12.3436L4.07615 12.3011L3.68823 12.2943L3.58504 12.2394L3.59192 12.0446L3.43923 11.6797L3.18608 11.5659L2.53127 12.2531L2.35242 12.3148L1.82554 12.1242L1.36469 11.8306L1.31515 11.6153L1.2395 11.4383L0.852923 11.271L0.370037 11.1571H0.21596L0.276499 11.0529L0.332924 10.876L0.297154 10.736L0.184347 10.5893L0.122422 10.4343L0.103152 10.2834L0.0687679 10.1599L0.0481543 10.0434L0.0123849 9.95282L0.327424 9.26699L0.392078 8.84039L0.116922 8.58936L0 8.51531L0.0963086 8.45905L0.488344 8.50572L0.737344 8.3644L0.868037 8.22313L1.21612 8.3562L1.72784 8.6223L1.96862 8.80335L2.06765 8.9419L2.12408 9.05848L2.09381 9.25874L2.20935 9.33693L2.45012 9.36573L2.61104 9.42748L2.55465 9.69082L2.54366 9.90619L2.76511 9.87601L3.04438 9.71141L3.26177 9.41375L3.39658 9.12433L3.49839 8.41928L3.53416 8.3603L3.70196 8.41518L4.38019 8.385L4.70073 8.51669L5.20835 8.53862L5.19873 8.64834L5.28816 8.82118L5.51377 9.06945L5.62381 9.23132L5.85908 9.26012L6.22362 9.17096L6.4355 9.0777L6.51666 9.14354L6.8482 9.07908L7.14258 8.87878L7.2155 8.72653L7.51266 8.6182L7.91435 8.36993L8.466 8.17926L10.275 7.97352L10.3452 7.81851L10.3191 7.46324L10.3672 7.41113L10.5942 7.49891L10.9601 7.58259L11.2422 7.70741L11.4224 7.87201L11.5916 7.87887L11.853 7.76363L12.2065 7.68958L12.5367 7.86104L12.633 8.04485L12.5752 8.13949L12.5807 8.28897L12.6839 8.4138L12.9522 8.61682L13.2961 8.791L13.4749 8.77731L13.5409 8.60857L13.6042 8.20395L13.6276 7.7705L13.5492 7.52222L13.3635 7.46186L13.142 7.44131L13.0237 7.38915L13.0663 7.25336L13.2424 6.89947L13.241 6.42625L12.8407 5.88584L12.4927 5.36322L12.494 5.18489L12.7032 4.87492L13.0237 4.62799L13.7377 4.21651L13.9619 4.13145L14.2508 4.06288L14.6663 3.8928L14.8657 3.71858L15.0005 3.52929L15.1959 2.54307L15.2413 2.50054L15.299 2.44294L16.0269 2.78448L16.0915 2.72688L16.2153 2.672L16.4519 2.41004L16.5042 2.21251L16.4987 1.83531L16.5207 1.48004L16.5661 1.36618L16.6747 1.40871L16.9884 1.59252L17.2374 1.80102L17.4699 2.3236L18.0133 2.46216L18.6998 2.47585L18.9447 2.24269L19.1675 2.18919L19.4192 2.26052L19.9503 2.34143L20.0094 1.92032L20.3148 1.48004L20.4538 1.32641L20.8431 1.34148L20.938 1.0123L21.0343 0.100129L21.1155 0L21.3989 0.0192137L21.6809 0.185188L21.7648 0.320982L21.912 0.310014L22.117 0.216751L22.3412 0.15777L22.6976 0.255136L23.4556 0.669382L23.8477 0.821626L24.0953 0.792827L24.3278 0.79831L25.2234 1.43751L25.8492 1.52667L26.4202 1.52944L26.6045 1.33738L26.8467 1.17417L27.1012 1.1961L27.3227 1.27978L27.7546 1.55685L27.9541 1.62818L28.2196 1.67343L28.4136 1.73518L28.5855 2.21527L28.6818 2.3442Z"/>
</mask>
<path d="M28.6818 2.3442L28.6667 2.40318L28.6447 2.62127L28.4947 2.89696L28.3324 3.25632L28.3434 3.57182L28.7575 4.66093L29.1262 5.32069L29.1949 5.57172L29.4316 5.76511L29.2074 6.0079L29.1633 6.36727L29.0175 6.52776L28.979 6.73216L29.0409 6.91869L29.0395 7.15189L29.1206 7.47149L28.7602 7.54144L28.3324 7.53047L28.1797 7.54964L28.0366 7.63742L27.8894 7.59355L27.5014 7.29317L27.2841 7.22594L27.1301 7.24377L27.0145 7.37546L26.815 7.54278L26.6293 7.66074L26.6706 7.76363L27.4726 8.03384L27.6143 8.44808L27.4602 8.78551L27.4079 8.95149L27.2195 9.08042L26.9897 9.19428L26.7118 9.22308L26.6788 9.4055L26.7875 9.93909L26.6995 10.0543L26.6114 10.2203L26.6939 10.6579L26.8659 10.6894L26.9044 10.7882L26.8741 10.9665L26.8439 11.1544L26.7834 11.3533L26.7531 11.4424L26.6389 11.4973L26.284 11.4685L25.9772 11.6386L25.3609 12.2476L25.1463 12.3519L24.9124 12.596L24.9262 13.1296L24.8946 13.179L24.8381 13.2887L24.1022 13.0994L24.0774 13.1035L23.5835 13.1721L23.2465 13.4163L22.8379 13.5575L21.9794 13.4821L21.1444 13.5768L20.9463 13.6481L20.7303 13.6892L20.5267 13.8319L20.4098 14.0322L20.202 14.2845L19.9062 14.4834L19.5857 14.6371L19.5087 14.7646L19.4041 14.8387L19.2239 14.7427L19.0795 14.7482L18.902 14.6823L18.3118 14.611L17.6653 14.493L17.3557 14.3806L17.0063 14.29L16.6294 14.2173L16.2924 14.2008L16.1217 14.1666L15.3115 13.9704L14.7763 13.9567L14.0706 13.8744L12.6687 13.5781L12.2602 13.4574L11.8709 13.4204L11.4086 13.3175L11.0578 13.1488L10.8336 12.8278L10.5928 12.4026L10.154 11.8443L10.0632 11.5659L10.198 11.3217L10.3356 11.1366L10.3204 11.0584L10.2131 11.0172L9.44139 11.2559L8.693 11.5576L8.39858 11.5659L8.11381 11.5L7.73416 11.4946L7.37097 11.5755L6.64185 11.6166L6.21539 11.8389L5.943 12.2709L5.79577 12.6193L5.67196 12.7318L5.41746 12.7743L5.03777 12.7414L4.77089 12.6413L4.4985 12.3436L4.07615 12.3011L3.68823 12.2943L3.58504 12.2394L3.59192 12.0446L3.43923 11.6797L3.18608 11.5659L2.53127 12.2531L2.35242 12.3148L1.82554 12.1242L1.36469 11.8306L1.31515 11.6153L1.2395 11.4383L0.852923 11.271L0.370037 11.1571H0.21596L0.276499 11.0529L0.332924 10.876L0.297154 10.736L0.184347 10.5893L0.122422 10.4343L0.103152 10.2834L0.0687679 10.1599L0.0481543 10.0434L0.0123849 9.95282L0.327424 9.26699L0.392078 8.84039L0.116922 8.58936L0 8.51531L0.0963086 8.45905L0.488344 8.50572L0.737344 8.3644L0.868037 8.22313L1.21612 8.3562L1.72784 8.6223L1.96862 8.80335L2.06765 8.9419L2.12408 9.05848L2.09381 9.25874L2.20935 9.33693L2.45012 9.36573L2.61104 9.42748L2.55465 9.69082L2.54366 9.90619L2.76511 9.87601L3.04438 9.71141L3.26177 9.41375L3.39658 9.12433L3.49839 8.41928L3.53416 8.3603L3.70196 8.41518L4.38019 8.385L4.70073 8.51669L5.20835 8.53862L5.19873 8.64834L5.28816 8.82118L5.51377 9.06945L5.62381 9.23132L5.85908 9.26012L6.22362 9.17096L6.4355 9.0777L6.51666 9.14354L6.8482 9.07908L7.14258 8.87878L7.2155 8.72653L7.51266 8.6182L7.91435 8.36993L8.466 8.17926L10.275 7.97352L10.3452 7.81851L10.3191 7.46324L10.3672 7.41113L10.5942 7.49891L10.9601 7.58259L11.2422 7.70741L11.4224 7.87201L11.5916 7.87887L11.853 7.76363L12.2065 7.68958L12.5367 7.86104L12.633 8.04485L12.5752 8.13949L12.5807 8.28897L12.6839 8.4138L12.9522 8.61682L13.2961 8.791L13.4749 8.77731L13.5409 8.60857L13.6042 8.20395L13.6276 7.7705L13.5492 7.52222L13.3635 7.46186L13.142 7.44131L13.0237 7.38915L13.0663 7.25336L13.2424 6.89947L13.241 6.42625L12.8407 5.88584L12.4927 5.36322L12.494 5.18489L12.7032 4.87492L13.0237 4.62799L13.7377 4.21651L13.9619 4.13145L14.2508 4.06288L14.6663 3.8928L14.8657 3.71858L15.0005 3.52929L15.1959 2.54307L15.2413 2.50054L15.299 2.44294L16.0269 2.78448L16.0915 2.72688L16.2153 2.672L16.4519 2.41004L16.5042 2.21251L16.4987 1.83531L16.5207 1.48004L16.5661 1.36618L16.6747 1.40871L16.9884 1.59252L17.2374 1.80102L17.4699 2.3236L18.0133 2.46216L18.6998 2.47585L18.9447 2.24269L19.1675 2.18919L19.4192 2.26052L19.9503 2.34143L20.0094 1.92032L20.3148 1.48004L20.4538 1.32641L20.8431 1.34148L20.938 1.0123L21.0343 0.100129L21.1155 0L21.3989 0.0192137L21.6809 0.185188L21.7648 0.320982L21.912 0.310014L22.117 0.216751L22.3412 0.15777L22.6976 0.255136L23.4556 0.669382L23.8477 0.821626L24.0953 0.792827L24.3278 0.79831L25.2234 1.43751L25.8492 1.52667L26.4202 1.52944L26.6045 1.33738L26.8467 1.17417L27.1012 1.1961L27.3227 1.27978L27.7546 1.55685L27.9541 1.62818L28.2196 1.67343L28.4136 1.73518L28.5855 2.21527L28.6818 2.3442Z" fill="var(--fill-0, #71B219)" stroke="var(--stroke-0, white)" mask="url(#path-1-inside-1_0_195)"/>
</g>
</svg>
