<svg preserveAspectRatio="none" width="100%" height="100%" overflow="visible" style="display: block;" viewBox="0 0 177.796 213.061" fill="none" xmlns="http://www.w3.org/2000/svg">
<g id="AU">
<mask id="path-1-inside-1_0_152" fill="white">
<path d="M67.552 4.87902L67.4117 4.5279L67.4736 4.44008L67.5452 4.39345L67.6359 4.40446L67.9936 4.78027L68.1491 4.88317L68.3774 5.15609L68.8933 5.18904L69.5124 4.89547L69.8013 5.01482L69.9389 4.99288L70.3929 4.71443L70.6886 4.63489L70.8867 4.42911L71.0876 4.65135L71.536 4.9092L71.6778 5.17941L71.8676 5.307L71.9309 5.39201L71.6571 5.67595L71.6227 5.98186L71.3297 5.96127L70.9789 6.46329L69.6624 7.30551L68.4806 6.58674L67.9675 6.10121L67.6236 5.42906L67.552 4.87902ZM92.9569 22.2759L93.001 22.4747L93.2101 22.6681L93.3752 22.4844L93.2885 22.3252L93.2623 22.0262L93.0505 21.756L92.9597 21.9851L92.8731 22.0386L92.7919 22.221L92.9569 22.2759ZM101.661 26.2318L101.83 26.2345L102.105 26.144L102.248 25.9519L102.398 26.0013L102.697 25.6502L102.898 25.4773L103.431 25.4197L103.071 24.9739L103.006 24.9424L102.508 25.1152L101.867 25.229L101.62 25.4691L101.364 25.8628L101.306 26.2139L101.351 26.325L101.661 26.2318ZM112.966 0.397795L113.06 0.13031L112.893 0L112.695 0.272968L112.866 0.503407L112.966 0.397795ZM91.4657 5.16572L92.0174 4.44833L92.1673 3.7378L91.9788 3.78581L91.9609 4.09854L91.8963 4.30843L91.8096 4.38386L91.6597 4.51689L91.3158 5.08753L91.1686 5.2288L91.1878 5.40436L91.4657 5.16572ZM75.6177 4.3276L75.9259 4.9298L76.0029 4.86944L76.1419 4.3482L76.0167 4.10403L76.0029 3.6802L75.9465 3.56772L75.7883 3.79954L75.5806 3.83382L75.7058 4.14107L75.6177 4.3276ZM90.6182 5.96403L90.9705 5.67595L91.0048 5.50726L90.8879 5.58955L90.1849 5.93795L89.8493 6.33026L90.4601 6.03946L90.6182 5.96403ZM92.4232 21.8836L92.4851 21.8548L92.591 21.7313L92.5401 21.3884L92.4191 21.553L92.4232 21.8836ZM112.825 2.2907L112.804 2.39907L112.848 2.64596L113.057 2.76254L113.379 2.53897L113.082 2.10003L112.825 2.2907ZM91.0957 21.708L91.1397 21.8836L91.2043 21.9042L91.4355 21.8877L91.5194 21.553L91.4176 21.5118L91.1727 21.5489L91.0957 21.708ZM92.5731 16.2227L92.1934 16.0677L92.0504 15.899L92.0325 15.7317L92.1976 15.231L92.3008 15.0801L92.4094 15.0376L92.6516 14.7632L92.5938 14.6041L92.5154 14.5136L92.4177 14.4628L92.2609 14.8236L92.0807 14.8346L91.9142 14.6713L91.8413 14.3655L91.8646 14.1899L91.6858 14.1679L91.4052 14.3463L91.2153 14.6316L90.793 14.9128L90.7421 15.4889L90.8054 15.9429L90.6678 16.1377L90.4491 16.2803L90.5564 16.3475L90.9306 16.3695L91.6611 16.5505L92.0986 16.5217L92.6048 16.5999L92.7479 16.4147L92.8235 16.1706L92.7589 16.15L92.5731 16.2227ZM147.986 55.0394L148.076 54.9832L148.209 54.8076L148.125 54.591L147.949 54.2837L147.993 54.012L147.884 53.9435L147.763 53.9559L147.631 53.8502L147.297 53.724L147.194 54.0148L147.777 54.894L147.986 55.0394ZM154.99 63.4848L155.087 63.3682L155.112 63.0774L155.335 62.3573L156.141 60.4534L156.176 60.0927L155.939 59.8293L155.877 59.0831L155.781 59.0433L155.65 59.0886L155.486 59.1956L155.343 59.4068L155.508 59.4823L155.723 59.8609L155.667 60.212L155.519 60.4863L154.936 61.0035L155.023 61.4657L154.987 61.6865L154.786 62.0857L154.699 62.5219L154.816 63.2763L154.99 63.4848ZM156.414 70.1305L156.497 70.0661L156.436 69.5723L156.591 68.8686L156.458 68.8343L156.255 68.9179L156.198 69.302L156.242 69.7176L156.414 70.1305ZM156.336 70.8849L156.317 71.5735L156.436 71.7518L156.536 71.7751L156.869 70.5859L156.803 70.5255L156.47 70.4515L156.336 70.8849ZM145.202 48.9945L145.325 48.9301L145.221 48.605L145.092 48.5322L145.078 48.7682L144.991 48.9342L145.09 49.0042L145.202 48.9945ZM142.93 48.4596L142.929 48.2785L142.868 47.8629L142.725 47.9671L142.702 48.2827L142.794 48.5844L142.93 48.4596ZM128.211 32.5455L128.501 32.8294L128.673 33.1833L128.916 33.3205L129.025 33.1751L129.083 32.9789L128.916 32.6813L128.836 32.2986L128.724 32.2767L128.653 32.3384L128.483 32.3947L128.143 32.3809L128.211 32.5455ZM113.398 0.787343L113.628 0.545937L113.474 0.344298L113.165 0.379962L113.074 0.573355L113.155 0.714674L113.398 0.787343ZM139.098 40.0732L139.178 40.0115L139.223 39.6425L139.081 39.7427L138.985 39.877L138.909 40.0472L139.011 40.091L139.098 40.0732ZM139.297 40.6918L139.422 40.6946L139.515 40.6493L139.52 40.5917L139.363 40.3626L139.272 40.0856L139.11 40.6164L139.297 40.6918ZM102.51 27.5526L102.313 27.7186L102.364 27.8832L102.508 27.8146L102.939 27.7337L102.898 27.5238L102.639 27.3181L102.51 27.5526ZM125.781 120.546L125.549 120.347L125.042 120.371L125.006 120.479L124.984 120.722L125.199 120.87L125.781 120.546ZM136.634 128.613L136.528 128.518L136.173 128.377L135.487 127.473L135.228 127.315L134.865 127.842L134.587 128.035L134.762 128.236L135.009 128.211L135.123 128.54L135.064 128.755L135.581 129.544L135.668 129.749L135.771 129.89L135.895 129.997L136.3 129.854L136.644 129.547L136.697 129.552L136.734 129.407L136.455 129.181L136.605 129.009L136.634 128.613ZM136.4 131.273L136.328 131.222L136.231 131.212L135.938 131.304L135.975 131.418L136.21 131.663L136.4 131.273ZM124.398 121.392L124.947 121.354L125.272 121.536L125.249 121.444L125.114 121.213L125.012 121.122L124.742 121.056L124.398 121.392ZM123.07 131.23L123.094 130.895L123.065 130.868L122.942 131.046L122.783 131.122L122.928 131.647L123.07 131.23ZM89.7709 14.4066L89.6732 14.4711L89.6264 14.5795L89.6291 14.7221L89.9799 14.7976L90.0708 14.7536L90.2166 14.622L90.1478 14.2887L89.9855 14.1241L89.7709 14.4066ZM177.557 211.446L177.321 212.759L177.357 213.061L177.486 212.799L177.745 211.904L177.796 211.225L177.557 211.446ZM136.745 130.223L136.25 130.48L135.712 130.476L135.525 130.595L135.562 130.713L135.88 130.952L136.311 130.982L136.718 130.866L136.847 131.182L137.045 131.128L137.316 130.855L137.11 130.526L136.745 130.223ZM136.802 139.422L136.752 139.228L136.65 139.054V138.869L136.704 138.474L136.597 137.898L136.631 137.027L136.594 136.559L136.605 136.098L136.692 135.508L136.668 134.913L136.612 134.615L136.587 134.313L136.616 133.458L136.316 132.99L135.612 132.615L135.363 132.609L134.993 133.08L134.779 133.076L134.023 132.939L133.859 133.095L133.555 133.545L133.378 133.736L133.119 133.654L132.859 133.507L132.659 133.523L132.465 133.644L132.029 133.699L131.582 133.689L131.311 133.818L131.068 134.024L130.988 134.283L131.035 134.582L130.794 134.305L130.553 134.124L130.271 134.319L129.977 134.452L128.985 134.559L128.188 134.329L127.07 133.853L126.893 133.713L126.732 133.534L126.547 133.418L126.124 133.241L125.958 133.038L125.771 132.98L125.557 133.009L125.247 132.847L124.99 132.562L124.763 132.537L124.51 132.666L124.063 132.647L123.196 132.318L122.811 132.068L122.777 132.628L122.53 133.632L122.594 134.13L122.731 134.699L122.988 135.468L122.995 135.717L123.042 135.863L123.573 137.017L124.114 137.957L124.819 138.951L124.901 139.404L124.808 139.867L125.038 139.837L125.18 139.609L125.213 139.836L125.293 140.026L125.895 140.685L125.936 140.859L125.708 141.404L125.579 140.954L125.339 140.601L124.668 140.043L124.815 141.209L124.935 141.671L125.782 143.667L125.898 143.796L126.091 143.884L126.254 144.043L126.531 144.45L126.998 145.333L127.271 145.589L127.664 145.508L128.244 145.687L128.442 145.638L128.564 145.713L128.636 145.919L128.182 145.915L127.74 146.029L127.692 146.2L127.813 146.394L127.928 146.936L128.483 146.753L129.358 146.789L129.881 146.731L130.462 147.224L130.984 147.315L131.137 147.28L131.449 146.697L131.643 145.996L131.763 145.728L131.923 145.501L131.577 145.2L131.566 145.048L131.611 144.873L132.291 145.397L132.569 145.185L132.626 144.715V144.424L132.708 144.217L132.878 144.121L132.947 143.863L132.966 143.664L132.79 143.214L132.774 142.955L133.2 143.494L133.371 144.225L133.697 144.032L133.744 143.916L133.693 143.41L133.838 143.242L134.301 143.379L134.712 143.672L134.741 143.808L134.713 143.945L134.612 144.066L134.277 143.943L134.125 144.157L134.323 144.691L134.658 145.204L134.861 145.073L135.273 145.003L135.411 144.873L135.323 143.841L135.158 143.087L135.147 142.262L135.194 141.814L135.383 141.468L135.522 141.103L135.504 140.633L135.573 140.188L135.742 139.727L135.979 139.383L136.089 139.304L136.031 139.208L136.132 138.91L136.311 138.692L136.419 138.959L136.276 139.064L136.192 139.18L136.473 139.376L136.557 139.55L136.586 139.743L136.557 139.981L136.608 140.165L136.766 140.199L136.81 139.959L136.765 139.668L136.802 139.422ZM157.012 74.0672L156.546 73.2332L156.442 72.5789L156.279 72.0193L155.554 70.4474L155.24 69.5407L155.415 68.6299L155.114 65.7206L155.426 64.2721L155.274 64.0952L154.899 63.8716L154.732 63.6426L154.483 63.0993L154.456 62.0116L153.974 61.3423L153.454 61.0364L153.102 60.4877L152.866 60.0309L152.833 59.7771L152.69 59.3478L152.291 59.053L152.017 58.9131L151.429 58.4837L151.142 58.0503L150.552 56.8171L150.278 56.4893L149.733 56.1354L149.287 56.1148L149 56.0271L147.979 55.2425L147.661 55.071L147.406 54.7034L147.023 54.3083L146.802 54.0176L146.462 53.709L146.229 52.5361V51.3977L146.155 50.0411L145.801 49.3868L145.61 49.1756L145.401 49.2455L145.385 49.668L145.442 49.9561L145.295 49.9698L144.77 49.5966L144.112 49.1989L143.757 48.7545L143.499 48.3375L143.284 48.3539L143.133 48.4198L142.981 48.9328L143.228 49.8175L143.107 49.9382L142.899 49.7339L142.52 49.2716L142.324 49.4225L142.064 49.4815L141.837 49.0178L141.646 48.7257L141.369 47.7587L141.121 46.6943L141.098 45.9247L140.615 45.5022L140.427 44.7766L140.277 44.5751L140.135 44.0607L139.578 43.3885L139.006 42.914L138.531 42.4654L138.122 41.8303L138.301 41.3708L138.591 41.4682L138.9 41.4243L138.653 40.9566L138.414 40.6425L137.802 40.054L137.517 39.9058L136.901 39.8194L136.216 39.2831L135.796 39.0513L135.5 39.0143L135.158 38.9306L134.916 38.6275L134.488 38.5274L133.885 37.928L133.589 37.3244L133.441 37.1022L133.239 36.9349L132.941 37.035L132.697 37.0802L132.157 36.9952L131.98 36.7497L131.632 36.4383L130.962 36.356L130.432 36.1599L130.028 35.9665L129.618 35.7195L129.241 35.308L128.907 34.758L128.964 34.053L129.048 33.5962L128.622 33.4193L127.886 32.4632L127.85 32.0723L128.048 31.274L128.249 29.8996L127.956 28.879L127.385 27.6349L127.424 27.004L127.136 26.9957L126.817 26.8723L126.367 26.2592L126.026 25.8559L125.796 25.4842L125.547 24.9808L125.587 24.5775L125.646 24.3059L125.671 23.5872L125.353 22.889L125.253 22.1744L124.951 21.2814L125.035 20.6888L124.969 20.2005L124.876 19.778L124.973 19.5092L125.013 19.1676L124.598 18.8261L124.152 18.5655L123.577 18.1046L122.544 17.3859L122.306 16.8427L121.868 16.3571L121.284 16.545L120.853 16.6342L120.452 17.0004L119.896 17.2706L119.356 17.0265L119.101 16.8207L118.911 16.0937L118.665 15.3009L118.455 14.9032L118.299 14.4231L118.446 13.2531L118.226 12.703L118.157 11.8814L117.948 10.9432L117.715 10.4741L117.732 10.0969L117.3 9.54406L117.162 9.14764L116.917 9.00498L116.607 8.77869L116.562 8.47554L116.586 8.25469L116.772 7.88846L116.872 7.41385L116.439 7.29589L116.137 7.27533L115.927 7.12581L115.69 6.89399L115.605 6.15604L115.613 5.37418L115.551 4.88589L115.422 4.52242L115.331 4.13835L115.113 3.72959L114.455 3.19872L114.503 2.98478L114.656 2.70767L114.423 2.54856H114.082L113.889 2.91893L113.579 3.23715L112.969 3.47994L112.855 4.75286L112.477 6.15194L112.133 7.18479L112.196 7.49753L112.169 7.80344L111.983 7.66626L111.819 7.4948L111.569 7.90357L111.116 8.96384L111.075 9.51387L111.34 9.66202L111.526 9.80744L111.748 9.85545L111.848 9.99125L111.904 10.2573L112.047 10.4864L112.012 10.7347L111.84 10.6373L111.478 10.6387L111.294 10.854L110.827 11.2847L110.95 12.5247L110.731 13.1776L110.52 13.6837L110.282 14.6439L110.314 15.1528L110.525 15.5149L110.752 16.0444L110.614 16.7741L110.475 17.2967L110.786 18.811L110.873 19.6176L110.702 20.1676L110.201 21.7944L109.976 22.985L110.049 23.642L109.831 24.2456L109.584 25.2112L109.304 25.941L108.326 27.4141L108.132 28.1274L107.803 29.0162L107.1 29.5347L106.569 29.8585L105.406 30.1794L104.734 30.1726L104.388 29.9764L104.188 29.8063L103.397 29.5224L102.435 28.8804L101.695 28.6719L101.329 28.0273L101.294 27.7598L101.162 27.4114L100.774 26.9533L100.042 26.7982L99.2906 26.4677L98.8271 26.5143L97.8214 26.2304L97.1514 25.8257L96.5393 25.2647L95.7318 24.2936L95.0467 24.0316L94.1703 23.6297L93.6668 23.295L93.3614 23.1332L93.023 22.8821L92.7149 22.9384L92.1824 22.9452L91.8482 22.7093L91.8055 22.5241L91.8564 22.3787L91.8756 22.114L91.7588 22.0742H91.6404L91.5427 22.1456L91.4065 22.1977L90.9361 21.9947L90.2771 21.6559L90.1533 21.3582L89.9456 20.9947L89.0348 20.4666L88.5066 20.0305L87.34 19.3981L87.0415 19.0922L86.9438 18.8247L86.8572 18.4393L87.1186 18.0388L87.3731 17.7548L88.1668 16.5766L88.4048 16.3709L88.7033 16.0513L88.9771 15.1912L89.1132 14.7001L88.8807 13.9567L88.8725 12.7085L89.7942 12.2243L90.0515 12.1612L90.2895 12.0542L90.5619 12.2051L90.7449 12.4396L90.9347 12.3971L91.4492 11.5275L91.3666 11.1654L91.1534 10.8567L91.2278 10.6661L92.8125 8.96384L92.6186 8.54687L92.3833 8.45084L91.9321 8.47964L91.5069 8.11617L91.2401 7.42896L90.8659 7.40426L90.1973 8.10931L90.1189 8.27114L90.2812 8.36306L90.4229 8.79104L90.1616 9.29306L89.9002 9.29717L89.4709 9.24777L89.2756 8.88979L89.1876 8.34385L88.9152 8.19022L88.6042 8.29311L88.347 8.48513L88.1654 8.54L88.0141 8.41518L88.0058 8.1875L88.3979 7.80892L88.7267 7.56613L88.7529 7.47559L88.5135 7.40154L88.5493 7.22594L88.8546 6.91458L88.7116 6.89813L88.3387 7.23142L87.9412 7.42348L87.4129 7.83224L86.6549 8.09968L86.1349 8.46181L85.4099 8.3521L84.7344 7.99545L84.5872 7.80754L84.2543 7.53185L83.5128 7.83086L83.0465 7.79929L82.7892 7.69368L82.3504 7.62235L81.9734 7.35763L81.0655 6.93514L80.1011 6.85422L79.6334 6.87344L79.2853 6.65535L78.9496 6.53052L78.2907 6.44274L78.0169 6.11489L77.6717 5.45514L77.424 5.2782L77.0237 5.21507L76.5986 5.51822L76.3496 5.66088L75.864 5.11909L75.0014 4.55942L74.7262 4.48261L74.5818 4.6184L74.4773 4.8763L74.3135 4.901L74.1224 4.78438L73.7853 4.45381L73.5652 4.39345L72.9874 4.74599L73.0273 4.86667L73.4992 5.04638L73.9944 5.53882L74.2297 5.64029L74.7854 5.51136L75.5476 5.60466L76.3165 6.21917L76.2038 6.52504L76.146 6.95025L76.1667 7.41385L76.1488 7.72796L76.4652 8.07364L76.3234 8.09968L75.9657 8.02153L75.6838 8.11751L75.4183 8.28077L75.3 8.74575L75.15 8.52627L74.6905 8.31781L74.4181 8.47826L73.9614 8.68953L73.5459 8.60447L73.2818 8.49747L72.6572 8.67856L71.5443 8.67308L71.1729 8.41246L71.0642 7.96527L70.9775 7.85555L70.8757 8.05581L70.701 8.28625L70.0283 8.33288L69.9279 8.42753L69.9677 8.6511L69.9416 8.93232L69.683 8.95287L69.3639 9.02696L69.3982 9.37122L69.4574 9.64008L69.3391 9.77449L68.9883 9.52899L68.8314 9.26426L68.5852 9.18193L68.3926 9.27657L68.3431 9.51254L68.372 10.1216L68.1972 10.1901L67.7419 10.1668L67.5328 10.282L67.2178 11.0474L66.6386 11.3396L66.5505 11.7387L66.512 12.0789L66.9935 12.6948L66.761 13.0103L66.5162 13.2681L66.2712 13.3779L65.7512 13.478L65.3688 13.7592L65.2079 14.0555L65.1776 14.338L65.0717 14.7001L64.9052 15.1295L64.8722 15.3613L64.5242 15.5917L63.9051 16.2817L63.5928 16.9881L64 17.3721L64.4787 17.6479L64.8268 17.6396L64.8295 17.7096L64.4664 17.9935L64.692 18.2843L65.04 18.5559L65.2519 18.5957L65.4073 18.7109L65.0785 18.7754L64.5916 18.7987L64.498 19.095L64.5572 19.4365L64.6438 19.7328L64.5833 19.9426L64.4017 19.7986L64.3219 19.5764L63.9037 19.1238L63.6038 18.9852L63.1649 18.8782L63.0328 19.0154L63.0507 19.7054L62.9641 20.0222L62.8087 19.8425L62.7701 19.3378L62.3561 18.929L60.7245 18.5202L60.4934 18.4942L60.1137 18.5477L59.8537 18.7095L59.8275 18.8686L59.6542 18.9976L59.3722 19.1443L59.1135 19.3693L58.9457 19.5572L58.9374 19.7918L59.1466 20.2321L59.269 20.3596L59.2525 20.5695L59.0488 20.3514L58.87 20.2815L58.7008 20.6244L58.5385 20.693L58.5812 19.7355L58.7503 19.0867L58.8879 18.704L59.0393 18.405L58.9663 18.2473L57.8355 17.3516L57.3568 16.6177L57.006 16.2062L56.4598 15.8098L56.175 15.5602L55.5408 15.1789L54.7925 14.9141L54.4321 14.5561L54.0345 14.4286L53.542 14.6028L53.5007 14.9361L53.5626 15.2598L53.1706 15.7893L52.7482 16.0718L52.4112 15.7481L52.1044 15.5122L51.7949 15.6823L51.7013 15.9744L51.5458 16.0828L51.4289 15.8839L51.2597 15.445L51.008 15.2708L50.7562 15.3476L50.8319 15.696L50.9763 15.888L50.9364 16.1651L50.7548 16.2927L50.7205 16.5546L50.6117 16.9031L50.6283 17.39L50.3408 17.4929L50.1261 17.8783L49.9706 17.796L49.9308 17.545L49.8523 17.2885L49.5387 17.1911L49.4232 17.4297L49.353 17.5107L49.2416 17.5272L49.3172 17.3324V16.9675L49.408 16.5862L49.1108 16.449L48.9925 16.5341L48.9967 16.8633L48.9252 17.3433L48.6307 17.4188L48.3693 17.6342L47.9828 17.6383L47.7861 17.7425L47.7159 17.9963L47.3761 18.2582L47.383 18.5724L47.6114 18.8906L47.6265 19.1676L48.1699 19.4489L48.1383 19.7314L48.0612 19.8631L47.8562 19.811L47.4174 19.5668L46.9703 19.5147L46.8355 19.4022L46.7818 19.4831L46.7791 19.6711L46.6057 19.8082L46.3568 19.822L46.0665 20.0236L46.2728 20.3391L46.2357 20.4639L46.3375 20.6148L46.7805 20.6422L46.9689 20.6024L46.9882 20.8713L46.9318 21.1401L46.7516 21.2362L46.5796 20.9892L45.7253 20.516L45.5011 20.4707L45.4543 20.6189L45.4942 20.8123L45.314 21.0469L44.9962 21.3541L44.7802 21.2704L44.5243 21.3431L44.3592 21.8685L44.3015 22.3938L44.5848 22.7614L44.7747 23.2456L45.1695 22.6503L45.3305 22.5817L45.3319 22.8396L45.1778 23.1071L45.087 23.4363L45.0567 23.808L44.7981 23.8176L44.5078 23.7682L44.4376 23.8862L44.329 24.1633L44.3922 24.546L44.5848 24.69L45.032 24.6763L45.413 24.7037L45.7528 24.8423L45.8092 24.9588L45.5024 24.893L44.8751 24.9287L44.5766 24.8765L43.9836 24.9122L43.5434 24.6941L43.3261 24.476L42.9973 24.4198L42.6767 24.5075L42.4979 24.8135L42.2819 24.8875L41.7798 24.1303L41.4648 24.0796L41.3093 24.2566L41.4606 24.7311L41.3809 25.0233L41.2089 25.2414L40.9915 25.2277L40.8567 25.3196L40.964 25.5198L41.3079 26.0287L41.5899 26.2509L41.8403 26.5596L41.9683 26.8257L42.2709 26.8133L42.3411 27.0287L42.1677 27.3414L42.1733 27.838L42.0494 27.864L41.8748 27.7543L41.5281 27.4484L41.3492 27.3894L41.257 27.4772L41.2281 27.6871L41.312 28.2358L41.1346 29.019L41.1704 29.2481L41.1387 29.4428L40.9929 29.3015L40.814 28.9984L40.444 28.5279L39.9914 27.5033L39.5126 26.8092L39.2527 26.218L38.8523 25.1056L38.6446 25.0891L38.3791 25.5679L38.0861 26.1974L37.8866 26.5074L37.4133 26.8161L37.1217 27.1288L36.7723 27.2385L36.3884 27.5952L36.1119 27.901L35.724 28.6143L35.6579 29.0738L35.6745 29.5581L35.8437 30.2452L36.0225 31.2438L36.2853 31.3508L36.4971 31.5195L36.438 31.8213L36.1161 32.012L35.1283 32.957L34.4639 33.2945L34.274 33.5317L34.0305 34.0324L33.6784 34.6647L33.5188 35.0639L33.1487 35.8375L32.5462 36.7016L31.9368 37.3436L31.2337 37.858L30.7729 38.1035L29.056 38.8222L28.1398 39.0966L26.4849 39.2969L25.7832 39.6219L24.9056 39.5163L23.9233 39.4464L22.56 40.5327L21.4292 40.7974L20.4277 40.9964L19.9971 41.1747L19.0121 41.8015L18.4384 42.0882L17.3681 42.4091L16.9292 42.3762L16.3364 42.0813L15.7819 42.1499L15.1684 42.1074L14.6676 42.1348L14.2784 42.379L11.9823 43.6766L11.5283 44.0305L11.0564 44.5448L10.3796 45.0208L9.83893 45.5695L8.70262 46.1414L7.53331 46.5749L6.95546 46.9356L6.5442 47.4254L5.82747 48.7421L5.67608 49.0754L5.38992 49.4225L5.01023 49.5487L4.76404 49.6611L4.8507 49L4.57697 48.4129L4.7695 47.2923L4.69796 46.9576L4.30727 47.1757L4.05831 47.4143L3.42689 49.0384L2.99489 50.3045L3.32227 51.0314L3.42823 51.4539L3.42689 51.9079L3.31127 52.5608L3.31958 52.986L3.28104 53.5526L2.49412 54.8666L2.24927 55.4386L1.98512 56.5387L1.95346 57.049L1.97277 57.813L2.30427 58.4823L2.55743 58.8966L2.94946 60.0954L3.42 60.8924L4.1945 62.4985L5.04877 63.8016L5.10385 64.3009L5.00754 64.973L5.05431 65.6685L4.90158 65.8729L4.57143 66.1129L4.19308 65.8043L4.00054 65.5368L3.75839 64.5519L3.65931 64.4957L3.497 64.9264L3.31815 65.1144L3.15585 64.9868L3.032 64.8235L3.00177 64.6535L3.05677 64.4505L3.11597 63.7125L2.76104 63.2914L2.446 62.8388L2.10619 62.7276L1.89712 62.932L1.89023 63.2132L2.34558 64.0006L2.63854 64.8537L3.0912 65.3873L3.35804 65.5244L3.65662 65.8495L3.59197 66.5697L3.37592 66.8385L3.19573 66.9757L2.60831 66.8166L2.47212 66.2981L2.01266 65.279L1.86404 64.8839L1.7375 64.7769L1.68662 64.9717L1.69619 65.3228L1.61096 65.4737L1.52154 65.4586L1.33992 65.2749L1.17619 65.1761L1.0772 65.2103L1.25604 65.4641L1.64942 66.2158L3.10219 68.0593L4.33347 70.2073L4.60442 71.0577L4.74062 72.9287L4.86304 73.3814L5.58943 74.3127L6.3007 75.3922L6.50977 75.9299L6.50566 76.3907L6.65008 76.8284L7.53331 78.0162L7.92678 79.2919L7.97489 79.7582L7.86212 80.5592L7.96523 81.9762L8.06431 82.7471L8.38481 84.2751L8.76727 85.3779L9.21993 86.0637L9.83893 87.589L10.7799 89.3502L10.9327 90.2213L10.8845 92.5435L10.817 93.3006L10.6107 93.431L10.4718 93.7505L10.6726 95.2786L10.7194 96.151L10.4154 96.974L10.0714 97.7051L9.46755 98.2044L8.78381 98.2209L8.466 97.93L8.0602 97.6324L7.98866 98.9615L7.98043 100.103L8.1042 100.538L8.11797 101.051L8.57743 101.45L8.83604 101.295L9.15519 101.273L10.2654 101.838L10.8886 102.304L11.8929 103.558L12.7816 103.889L13.9399 104.459L15.2854 104.64L16.3611 104.673L18.0519 104.974L18.4137 104.867L19.1373 104.773L19.6903 104.579L20.1883 104.454L21.6741 103.289L23.1226 102.09L23.8394 101.996L24.4819 101.982L25.266 101.573L25.9786 100.335L26.3418 100.059L26.8247 99.7502L28.1962 99.5692L29.0038 99.6967L29.4357 99.4965L30.5321 99.2729L32.813 99.0672L34.0649 99.2331L34.9013 99.2057L35.3443 99.288L35.6909 99.8298L38.1108 99.3635L38.7987 99.3305L39.2293 99.4087L39.7713 99.8134L40.3793 99.4307L40.9255 99.4814L41.4785 99.1124L42.3191 98.0069L42.7015 97.3169L43.3137 95.8643L43.7677 95.3431L44.267 95.0839L44.8531 95.0001L45.7569 94.7382L47.7173 93.516L48.4781 93.2527L48.8798 93.0222L50.2293 92.0744L51.0754 91.892L53.5571 92.1375L54.7333 92.0744L55.644 91.9263L57.0266 91.416L58.5316 91.0319L60.3792 90.2254L61.9227 89.3914L62.8568 89.1994L64.3274 89.0526L66.4927 88.8359L69.0144 88.9484L69.6527 88.7769L69.9664 88.6246L70.408 88.4615L70.9527 88.5753L71.371 88.6987L72.6366 89.364L74.5433 90.7644L74.9643 90.8235L76.2189 90.5038L76.6385 90.5354L78.3939 91.5641L79.1216 91.5861L79.7036 91.56L80.1438 91.6711L80.6115 91.951L81.1659 92.5984L82.3394 93.2198L82.3985 93.7217L82.3119 94.0483L82.0477 94.0606L81.8235 94.1306L82.1055 95.1826L82.598 96.033L83.7811 96.1483L84.2117 96.4459L84.4882 96.782L84.7042 97.3155L84.8652 98.1509L85.4581 98.8477L86.0111 99.443L86.1404 99.6885L86.4004 100.532L86.4995 100.779L86.7154 101.614L87.0305 102.569L86.9438 102.666L86.7568 102.646L86.4238 102.403L86.1308 102.133L85.9739 102.175L85.7951 102.361L85.769 102.59L86.0304 102.529L86.183 102.562L86.5448 102.854L86.8819 103.194L87.1488 103.393L87.7926 104.241L88.0444 104.052L88.3525 103.883L88.8423 104.344L89.0376 104.436L89.149 104.259L88.9633 103.432L88.7776 103.232L88.7336 102.938L88.9633 102.728L89.0748 102.477L89.6209 101.858L90.8164 100.011L91.1837 99.7996L91.6074 99.395L92.1797 99.0863L92.7712 98.7202L93.1482 98.5775L93.5183 98.5021L93.9323 98.1633L94.3835 97.2469L94.7233 96.1619L95.0866 95.6846L95.6423 95.1757L96.0701 94.4694L96.0358 93.9166L96.0413 93.3528L96.3494 93.7876L96.5434 94.2293L96.8502 95.7066L96.5874 96.0317L96.3095 96.1949L96.3632 96.7134L96.5489 97.3896L96.6177 97.9314L96.0344 98.5034L95.5309 99.2221L94.9269 100.619L94.8884 101.041L94.7935 101.628L94.8293 102.145L94.9228 102.646L94.7742 103.422L94.5308 104.116L94.2116 104.134L93.9943 104.108L93.5169 104.17L93.0767 104.129L92.5718 105.646L92.8923 105.717L93.1372 105.631H93.5788L94.0727 105.359L94.7949 105.137L95.2076 105.215L95.6919 105.19L96.3962 103.248L96.5709 101.985L96.9299 101.418L97.0414 101.027L97.2271 100.657L97.6013 101.293L97.9026 101.912L98.5657 102.916L98.7734 103.417L98.8559 104.635L98.4254 106.048L98.1667 106.452L97.8544 106.805L97.593 107.399L98.3841 107.549L98.8972 107.539L99.6992 107.106L99.8574 107.049L100.261 107.042L100.415 106.816L100.809 106.6L101.104 106.348L101.485 106.149L101.832 106.281L101.91 106.395L101.997 106.522L101.869 106.802L101.858 107.393L101.631 107.329L101.428 106.978L101.175 107.068L100.999 107.333L100.621 107.249L100.684 107.422L100.886 107.761L101.686 108.414L102.54 109.279L102.858 109.688L103.554 110.992L104.049 112.379L104.009 112.789L103.766 113.53L103.591 114.283L103.606 114.678L103.767 115.179L104.118 115.692L105.419 117.092L106.107 118.327L107.022 118.967L108.504 119.203L109.286 119.667L110.099 120.602L110.358 120.682L110.753 120.72L111.259 120.151L112.031 120.211L113.046 120.776L113.65 120.642L114.081 120.712L114.683 121.032L115.565 121.664L116.501 121.982L117.056 122.461L117.488 122.532L118.263 122.844L118.832 122.578L119.317 122.243L120.435 121.084L121.311 120.525L121.772 120.309L122.142 120.213L122.611 119.851L122.32 119.596L122.043 119.638L121.57 119.494L121.84 119.327L122.122 119.202L123.484 118.34L123.845 118.596L124.096 118.881L124.367 119.272L124.163 119.825L123.982 120.085L123.562 120.504L123.056 120.52L122.815 120.486L123.314 120.955L123.746 121.27L124.641 120.697L124.863 120.246L125.033 119.984L125.316 119.926L125.74 120.014L125.903 120.344L125.996 120.748L125.689 120.857L125.54 121.156L125.436 121.44L125.969 121.805L126.243 122.037L126.573 122.032L126.954 122.088L127.243 122.624L127.513 123.243L127.832 123.071L128.032 122.909L128.373 123.064L128.744 123.551L129.046 124.104L129.076 124.337L129.307 124.444L129.526 124.28L129.63 124.047L129.622 123.617L129.563 122.94L129.41 122.837L129.062 123.204L128.864 122.938L128.597 122.656L128.601 122.383L128.891 122.247L129.138 122.306H129.446L131.072 122.069L133.152 119.894L134.063 119.098L135.009 118.506L135.989 118.126L136.499 118.004L139.129 117.8L140.498 117.866L141.203 117.716L141.529 117.516L142.082 116.969L142.47 116.634L142.946 116.541L143.061 116.132L143.062 115.695L143.153 115.238L143.014 114.38L143.051 113.254L143.159 112.667L143.446 111.843L143.573 110.996L143.702 109.798L143.816 109.087L143.959 108.438L144.332 107.724L144.649 107.261L145.396 105.522L145.654 105.351H145.87L145.964 105.245L145.993 105.149L145.929 105.079L145.834 104.877L145.898 104.714L146.125 104.552L146.196 104.614L146.312 104.58L146.33 104.491L146.222 104.015L146.379 103.348L146.57 102.184L146.786 101.661L146.914 101.245L147.414 100.621L147.96 100.007L147.804 99.9409L147.549 99.8942L147.714 99.7475L147.844 99.7036L148.011 99.801L148.148 99.5308L148.179 99.1069L148.312 98.4815L148.194 97.9369L148.447 97.7668L148.734 97.6639L148.855 97.0933L148.935 96.8643L149.114 96.6517L149.414 96.1976L149.649 95.7244L150.206 94.8218L150.751 94.4529L151.563 94.1676L151.654 94.0043L151.447 93.9042L151.456 93.8055H151.761L151.885 93.4899L152.207 93.2568L152.745 92.7191L152.923 92.2253L153.035 91.8303L153.089 90.9373L153.963 89.7659L154.573 88.1844L154.72 87.1707L154.871 86.6234L154.973 85.8224L154.881 84.9884L154.907 84.2902L155.515 82.518L155.654 81.7869L155.841 81.3178L156.129 79.5717L156.134 78.6664L156.575 77.613L157.123 76.7557L157.17 75.9629L156.986 75.3538L157.012 74.0672ZM66.4955 6.90772L67.2136 6.7006L67.929 6.95025L68.3293 6.87616L68.3155 6.70746L68.2275 6.56618L68.0817 6.43311L67.7639 6.34123L67.6621 5.99969L67.4792 5.67871L67.4461 5.32755L67.3017 5.00385H67.131L66.9618 5.09577L66.5822 5.55251L66.7156 5.80216L66.7555 6.25893L66.5299 6.4098L66.2712 6.34671L66.1598 6.76368L66.2891 6.91182L66.4955 6.90772ZM0.863923 64.2241L0.862579 63.9278L0.724959 63.6411L0.286155 62.3889L0.148535 62.4368L0 62.6001L0.21596 63.5054L0.95746 64.8317L1.05931 64.6562L0.925805 64.3188L0.863923 64.2241ZM9.57485 42.9989L9.79904 42.6794L9.8417 42.3872L9.7537 42.1897L9.44412 42.5093L9.2667 42.774L9.30247 42.9359L9.57485 42.9989ZM44.8476 21.0674L44.9852 21.1017L45.1296 20.9892L45.1599 20.8096L45.0031 20.6285L44.9508 20.468L44.8283 20.457L44.7691 20.5558L44.6866 20.7464L44.8449 20.9138L44.8476 21.0674ZM47.4518 17.7329L47.4312 17.6259L47.4491 17.3187L47.3018 17.2446L47.1381 17.3873L47.0377 17.7823L47.2056 17.9798L47.4518 17.7329ZM132.985 144.472L132.888 144.652L132.856 144.814L132.768 144.9L132.929 145.014L132.972 145.272L133.06 145.316H133.302L133.159 144.671L132.985 144.472ZM132.83 145.524L132.72 145.517L132.527 145.789L132.472 146.004L132.39 146.045L132.336 146.196L132.252 146.314L132.027 146.222L132.028 146.318L132.217 146.683L132.516 146.594L132.816 146.687L132.998 146.139L132.946 145.871L132.83 145.524ZM136.037 142.043L135.766 141.923L135.572 142.17L135.603 142.29L135.598 142.559L135.671 142.582L135.887 142.535L135.872 142.38L136.137 142.229L136.037 142.043ZM96.6011 107.92L96.2421 108.09L95.3176 107.979L95.3245 107.901L95.4676 107.591L95.2723 107.419L95.0618 107.348L94.3038 107.289L93.3683 107.625L91.6198 108.027L91.3886 108.309L91.2414 108.695L91.4299 108.909L92.0697 109.372L92.6777 109.436L93.1138 109.327L93.5843 109.4L93.8236 109.131L94.4895 109.313L94.7453 109.57L95.2929 109.344L95.4167 108.923L95.6051 108.732L96.2408 108.589L96.9217 108.777L97.1322 108.744L97.3523 108.515L97.0551 108.056L96.6011 107.92ZM120.508 127.61L120.394 126.876L120.044 126.588L119.843 126.606L119.806 126.976L119.575 127.185L119.508 127.374L119.52 127.804L119.418 128.203L119.608 128.601L119.563 129.002L119.651 129.285L119.764 129.264L120.176 129.075L120.475 128.794L120.586 128.451L120.452 128.052L120.508 127.61ZM41.2611 9.29855L41.2585 9.25874L41.1717 9.25192L41.1745 9.29168L41.2611 9.29855Z"/>
</mask>
<path d="M67.552 4.87902L67.4117 4.5279L67.4736 4.44008L67.5452 4.39345L67.6359 4.40446L67.9936 4.78027L68.1491 4.88317L68.3774 5.15609L68.8933 5.18904L69.5124 4.89547L69.8013 5.01482L69.9389 4.99288L70.3929 4.71443L70.6886 4.63489L70.8867 4.42911L71.0876 4.65135L71.536 4.9092L71.6778 5.17941L71.8676 5.307L71.9309 5.39201L71.6571 5.67595L71.6227 5.98186L71.3297 5.96127L70.9789 6.46329L69.6624 7.30551L68.4806 6.58674L67.9675 6.10121L67.6236 5.42906L67.552 4.87902ZM92.9569 22.2759L93.001 22.4747L93.2101 22.6681L93.3752 22.4844L93.2885 22.3252L93.2623 22.0262L93.0505 21.756L92.9597 21.9851L92.8731 22.0386L92.7919 22.221L92.9569 22.2759ZM101.661 26.2318L101.83 26.2345L102.105 26.144L102.248 25.9519L102.398 26.0013L102.697 25.6502L102.898 25.4773L103.431 25.4197L103.071 24.9739L103.006 24.9424L102.508 25.1152L101.867 25.229L101.62 25.4691L101.364 25.8628L101.306 26.2139L101.351 26.325L101.661 26.2318ZM112.966 0.397795L113.06 0.13031L112.893 0L112.695 0.272968L112.866 0.503407L112.966 0.397795ZM91.4657 5.16572L92.0174 4.44833L92.1673 3.7378L91.9788 3.78581L91.9609 4.09854L91.8963 4.30843L91.8096 4.38386L91.6597 4.51689L91.3158 5.08753L91.1686 5.2288L91.1878 5.40436L91.4657 5.16572ZM75.6177 4.3276L75.9259 4.9298L76.0029 4.86944L76.1419 4.3482L76.0167 4.10403L76.0029 3.6802L75.9465 3.56772L75.7883 3.79954L75.5806 3.83382L75.7058 4.14107L75.6177 4.3276ZM90.6182 5.96403L90.9705 5.67595L91.0048 5.50726L90.8879 5.58955L90.1849 5.93795L89.8493 6.33026L90.4601 6.03946L90.6182 5.96403ZM92.4232 21.8836L92.4851 21.8548L92.591 21.7313L92.5401 21.3884L92.4191 21.553L92.4232 21.8836ZM112.825 2.2907L112.804 2.39907L112.848 2.64596L113.057 2.76254L113.379 2.53897L113.082 2.10003L112.825 2.2907ZM91.0957 21.708L91.1397 21.8836L91.2043 21.9042L91.4355 21.8877L91.5194 21.553L91.4176 21.5118L91.1727 21.5489L91.0957 21.708ZM92.5731 16.2227L92.1934 16.0677L92.0504 15.899L92.0325 15.7317L92.1976 15.231L92.3008 15.0801L92.4094 15.0376L92.6516 14.7632L92.5938 14.6041L92.5154 14.5136L92.4177 14.4628L92.2609 14.8236L92.0807 14.8346L91.9142 14.6713L91.8413 14.3655L91.8646 14.1899L91.6858 14.1679L91.4052 14.3463L91.2153 14.6316L90.793 14.9128L90.7421 15.4889L90.8054 15.9429L90.6678 16.1377L90.4491 16.2803L90.5564 16.3475L90.9306 16.3695L91.6611 16.5505L92.0986 16.5217L92.6048 16.5999L92.7479 16.4147L92.8235 16.1706L92.7589 16.15L92.5731 16.2227ZM147.986 55.0394L148.076 54.9832L148.209 54.8076L148.125 54.591L147.949 54.2837L147.993 54.012L147.884 53.9435L147.763 53.9559L147.631 53.8502L147.297 53.724L147.194 54.0148L147.777 54.894L147.986 55.0394ZM154.99 63.4848L155.087 63.3682L155.112 63.0774L155.335 62.3573L156.141 60.4534L156.176 60.0927L155.939 59.8293L155.877 59.0831L155.781 59.0433L155.65 59.0886L155.486 59.1956L155.343 59.4068L155.508 59.4823L155.723 59.8609L155.667 60.212L155.519 60.4863L154.936 61.0035L155.023 61.4657L154.987 61.6865L154.786 62.0857L154.699 62.5219L154.816 63.2763L154.99 63.4848ZM156.414 70.1305L156.497 70.0661L156.436 69.5723L156.591 68.8686L156.458 68.8343L156.255 68.9179L156.198 69.302L156.242 69.7176L156.414 70.1305ZM156.336 70.8849L156.317 71.5735L156.436 71.7518L156.536 71.7751L156.869 70.5859L156.803 70.5255L156.47 70.4515L156.336 70.8849ZM145.202 48.9945L145.325 48.9301L145.221 48.605L145.092 48.5322L145.078 48.7682L144.991 48.9342L145.09 49.0042L145.202 48.9945ZM142.93 48.4596L142.929 48.2785L142.868 47.8629L142.725 47.9671L142.702 48.2827L142.794 48.5844L142.93 48.4596ZM128.211 32.5455L128.501 32.8294L128.673 33.1833L128.916 33.3205L129.025 33.1751L129.083 32.9789L128.916 32.6813L128.836 32.2986L128.724 32.2767L128.653 32.3384L128.483 32.3947L128.143 32.3809L128.211 32.5455ZM113.398 0.787343L113.628 0.545937L113.474 0.344298L113.165 0.379962L113.074 0.573355L113.155 0.714674L113.398 0.787343ZM139.098 40.0732L139.178 40.0115L139.223 39.6425L139.081 39.7427L138.985 39.877L138.909 40.0472L139.011 40.091L139.098 40.0732ZM139.297 40.6918L139.422 40.6946L139.515 40.6493L139.52 40.5917L139.363 40.3626L139.272 40.0856L139.11 40.6164L139.297 40.6918ZM102.51 27.5526L102.313 27.7186L102.364 27.8832L102.508 27.8146L102.939 27.7337L102.898 27.5238L102.639 27.3181L102.51 27.5526ZM125.781 120.546L125.549 120.347L125.042 120.371L125.006 120.479L124.984 120.722L125.199 120.87L125.781 120.546ZM136.634 128.613L136.528 128.518L136.173 128.377L135.487 127.473L135.228 127.315L134.865 127.842L134.587 128.035L134.762 128.236L135.009 128.211L135.123 128.54L135.064 128.755L135.581 129.544L135.668 129.749L135.771 129.89L135.895 129.997L136.3 129.854L136.644 129.547L136.697 129.552L136.734 129.407L136.455 129.181L136.605 129.009L136.634 128.613ZM136.4 131.273L136.328 131.222L136.231 131.212L135.938 131.304L135.975 131.418L136.21 131.663L136.4 131.273ZM124.398 121.392L124.947 121.354L125.272 121.536L125.249 121.444L125.114 121.213L125.012 121.122L124.742 121.056L124.398 121.392ZM123.07 131.23L123.094 130.895L123.065 130.868L122.942 131.046L122.783 131.122L122.928 131.647L123.07 131.23ZM89.7709 14.4066L89.6732 14.4711L89.6264 14.5795L89.6291 14.7221L89.9799 14.7976L90.0708 14.7536L90.2166 14.622L90.1478 14.2887L89.9855 14.1241L89.7709 14.4066ZM177.557 211.446L177.321 212.759L177.357 213.061L177.486 212.799L177.745 211.904L177.796 211.225L177.557 211.446ZM136.745 130.223L136.25 130.48L135.712 130.476L135.525 130.595L135.562 130.713L135.88 130.952L136.311 130.982L136.718 130.866L136.847 131.182L137.045 131.128L137.316 130.855L137.11 130.526L136.745 130.223ZM136.802 139.422L136.752 139.228L136.65 139.054V138.869L136.704 138.474L136.597 137.898L136.631 137.027L136.594 136.559L136.605 136.098L136.692 135.508L136.668 134.913L136.612 134.615L136.587 134.313L136.616 133.458L136.316 132.99L135.612 132.615L135.363 132.609L134.993 133.08L134.779 133.076L134.023 132.939L133.859 133.095L133.555 133.545L133.378 133.736L133.119 133.654L132.859 133.507L132.659 133.523L132.465 133.644L132.029 133.699L131.582 133.689L131.311 133.818L131.068 134.024L130.988 134.283L131.035 134.582L130.794 134.305L130.553 134.124L130.271 134.319L129.977 134.452L128.985 134.559L128.188 134.329L127.07 133.853L126.893 133.713L126.732 133.534L126.547 133.418L126.124 133.241L125.958 133.038L125.771 132.98L125.557 133.009L125.247 132.847L124.99 132.562L124.763 132.537L124.51 132.666L124.063 132.647L123.196 132.318L122.811 132.068L122.777 132.628L122.53 133.632L122.594 134.13L122.731 134.699L122.988 135.468L122.995 135.717L123.042 135.863L123.573 137.017L124.114 137.957L124.819 138.951L124.901 139.404L124.808 139.867L125.038 139.837L125.18 139.609L125.213 139.836L125.293 140.026L125.895 140.685L125.936 140.859L125.708 141.404L125.579 140.954L125.339 140.601L124.668 140.043L124.815 141.209L124.935 141.671L125.782 143.667L125.898 143.796L126.091 143.884L126.254 144.043L126.531 144.45L126.998 145.333L127.271 145.589L127.664 145.508L128.244 145.687L128.442 145.638L128.564 145.713L128.636 145.919L128.182 145.915L127.74 146.029L127.692 146.2L127.813 146.394L127.928 146.936L128.483 146.753L129.358 146.789L129.881 146.731L130.462 147.224L130.984 147.315L131.137 147.28L131.449 146.697L131.643 145.996L131.763 145.728L131.923 145.501L131.577 145.2L131.566 145.048L131.611 144.873L132.291 145.397L132.569 145.185L132.626 144.715V144.424L132.708 144.217L132.878 144.121L132.947 143.863L132.966 143.664L132.79 143.214L132.774 142.955L133.2 143.494L133.371 144.225L133.697 144.032L133.744 143.916L133.693 143.41L133.838 143.242L134.301 143.379L134.712 143.672L134.741 143.808L134.713 143.945L134.612 144.066L134.277 143.943L134.125 144.157L134.323 144.691L134.658 145.204L134.861 145.073L135.273 145.003L135.411 144.873L135.323 143.841L135.158 143.087L135.147 142.262L135.194 141.814L135.383 141.468L135.522 141.103L135.504 140.633L135.573 140.188L135.742 139.727L135.979 139.383L136.089 139.304L136.031 139.208L136.132 138.91L136.311 138.692L136.419 138.959L136.276 139.064L136.192 139.18L136.473 139.376L136.557 139.55L136.586 139.743L136.557 139.981L136.608 140.165L136.766 140.199L136.81 139.959L136.765 139.668L136.802 139.422ZM157.012 74.0672L156.546 73.2332L156.442 72.5789L156.279 72.0193L155.554 70.4474L155.24 69.5407L155.415 68.6299L155.114 65.7206L155.426 64.2721L155.274 64.0952L154.899 63.8716L154.732 63.6426L154.483 63.0993L154.456 62.0116L153.974 61.3423L153.454 61.0364L153.102 60.4877L152.866 60.0309L152.833 59.7771L152.69 59.3478L152.291 59.053L152.017 58.9131L151.429 58.4837L151.142 58.0503L150.552 56.8171L150.278 56.4893L149.733 56.1354L149.287 56.1148L149 56.0271L147.979 55.2425L147.661 55.071L147.406 54.7034L147.023 54.3083L146.802 54.0176L146.462 53.709L146.229 52.5361V51.3977L146.155 50.0411L145.801 49.3868L145.61 49.1756L145.401 49.2455L145.385 49.668L145.442 49.9561L145.295 49.9698L144.77 49.5966L144.112 49.1989L143.757 48.7545L143.499 48.3375L143.284 48.3539L143.133 48.4198L142.981 48.9328L143.228 49.8175L143.107 49.9382L142.899 49.7339L142.52 49.2716L142.324 49.4225L142.064 49.4815L141.837 49.0178L141.646 48.7257L141.369 47.7587L141.121 46.6943L141.098 45.9247L140.615 45.5022L140.427 44.7766L140.277 44.5751L140.135 44.0607L139.578 43.3885L139.006 42.914L138.531 42.4654L138.122 41.8303L138.301 41.3708L138.591 41.4682L138.9 41.4243L138.653 40.9566L138.414 40.6425L137.802 40.054L137.517 39.9058L136.901 39.8194L136.216 39.2831L135.796 39.0513L135.5 39.0143L135.158 38.9306L134.916 38.6275L134.488 38.5274L133.885 37.928L133.589 37.3244L133.441 37.1022L133.239 36.9349L132.941 37.035L132.697 37.0802L132.157 36.9952L131.98 36.7497L131.632 36.4383L130.962 36.356L130.432 36.1599L130.028 35.9665L129.618 35.7195L129.241 35.308L128.907 34.758L128.964 34.053L129.048 33.5962L128.622 33.4193L127.886 32.4632L127.85 32.0723L128.048 31.274L128.249 29.8996L127.956 28.879L127.385 27.6349L127.424 27.004L127.136 26.9957L126.817 26.8723L126.367 26.2592L126.026 25.8559L125.796 25.4842L125.547 24.9808L125.587 24.5775L125.646 24.3059L125.671 23.5872L125.353 22.889L125.253 22.1744L124.951 21.2814L125.035 20.6888L124.969 20.2005L124.876 19.778L124.973 19.5092L125.013 19.1676L124.598 18.8261L124.152 18.5655L123.577 18.1046L122.544 17.3859L122.306 16.8427L121.868 16.3571L121.284 16.545L120.853 16.6342L120.452 17.0004L119.896 17.2706L119.356 17.0265L119.101 16.8207L118.911 16.0937L118.665 15.3009L118.455 14.9032L118.299 14.4231L118.446 13.2531L118.226 12.703L118.157 11.8814L117.948 10.9432L117.715 10.4741L117.732 10.0969L117.3 9.54406L117.162 9.14764L116.917 9.00498L116.607 8.77869L116.562 8.47554L116.586 8.25469L116.772 7.88846L116.872 7.41385L116.439 7.29589L116.137 7.27533L115.927 7.12581L115.69 6.89399L115.605 6.15604L115.613 5.37418L115.551 4.88589L115.422 4.52242L115.331 4.13835L115.113 3.72959L114.455 3.19872L114.503 2.98478L114.656 2.70767L114.423 2.54856H114.082L113.889 2.91893L113.579 3.23715L112.969 3.47994L112.855 4.75286L112.477 6.15194L112.133 7.18479L112.196 7.49753L112.169 7.80344L111.983 7.66626L111.819 7.4948L111.569 7.90357L111.116 8.96384L111.075 9.51387L111.34 9.66202L111.526 9.80744L111.748 9.85545L111.848 9.99125L111.904 10.2573L112.047 10.4864L112.012 10.7347L111.84 10.6373L111.478 10.6387L111.294 10.854L110.827 11.2847L110.95 12.5247L110.731 13.1776L110.52 13.6837L110.282 14.6439L110.314 15.1528L110.525 15.5149L110.752 16.0444L110.614 16.7741L110.475 17.2967L110.786 18.811L110.873 19.6176L110.702 20.1676L110.201 21.7944L109.976 22.985L110.049 23.642L109.831 24.2456L109.584 25.2112L109.304 25.941L108.326 27.4141L108.132 28.1274L107.803 29.0162L107.1 29.5347L106.569 29.8585L105.406 30.1794L104.734 30.1726L104.388 29.9764L104.188 29.8063L103.397 29.5224L102.435 28.8804L101.695 28.6719L101.329 28.0273L101.294 27.7598L101.162 27.4114L100.774 26.9533L100.042 26.7982L99.2906 26.4677L98.8271 26.5143L97.8214 26.2304L97.1514 25.8257L96.5393 25.2647L95.7318 24.2936L95.0467 24.0316L94.1703 23.6297L93.6668 23.295L93.3614 23.1332L93.023 22.8821L92.7149 22.9384L92.1824 22.9452L91.8482 22.7093L91.8055 22.5241L91.8564 22.3787L91.8756 22.114L91.7588 22.0742H91.6404L91.5427 22.1456L91.4065 22.1977L90.9361 21.9947L90.2771 21.6559L90.1533 21.3582L89.9456 20.9947L89.0348 20.4666L88.5066 20.0305L87.34 19.3981L87.0415 19.0922L86.9438 18.8247L86.8572 18.4393L87.1186 18.0388L87.3731 17.7548L88.1668 16.5766L88.4048 16.3709L88.7033 16.0513L88.9771 15.1912L89.1132 14.7001L88.8807 13.9567L88.8725 12.7085L89.7942 12.2243L90.0515 12.1612L90.2895 12.0542L90.5619 12.2051L90.7449 12.4396L90.9347 12.3971L91.4492 11.5275L91.3666 11.1654L91.1534 10.8567L91.2278 10.6661L92.8125 8.96384L92.6186 8.54687L92.3833 8.45084L91.9321 8.47964L91.5069 8.11617L91.2401 7.42896L90.8659 7.40426L90.1973 8.10931L90.1189 8.27114L90.2812 8.36306L90.4229 8.79104L90.1616 9.29306L89.9002 9.29717L89.4709 9.24777L89.2756 8.88979L89.1876 8.34385L88.9152 8.19022L88.6042 8.29311L88.347 8.48513L88.1654 8.54L88.0141 8.41518L88.0058 8.1875L88.3979 7.80892L88.7267 7.56613L88.7529 7.47559L88.5135 7.40154L88.5493 7.22594L88.8546 6.91458L88.7116 6.89813L88.3387 7.23142L87.9412 7.42348L87.4129 7.83224L86.6549 8.09968L86.1349 8.46181L85.4099 8.3521L84.7344 7.99545L84.5872 7.80754L84.2543 7.53185L83.5128 7.83086L83.0465 7.79929L82.7892 7.69368L82.3504 7.62235L81.9734 7.35763L81.0655 6.93514L80.1011 6.85422L79.6334 6.87344L79.2853 6.65535L78.9496 6.53052L78.2907 6.44274L78.0169 6.11489L77.6717 5.45514L77.424 5.2782L77.0237 5.21507L76.5986 5.51822L76.3496 5.66088L75.864 5.11909L75.0014 4.55942L74.7262 4.48261L74.5818 4.6184L74.4773 4.8763L74.3135 4.901L74.1224 4.78438L73.7853 4.45381L73.5652 4.39345L72.9874 4.74599L73.0273 4.86667L73.4992 5.04638L73.9944 5.53882L74.2297 5.64029L74.7854 5.51136L75.5476 5.60466L76.3165 6.21917L76.2038 6.52504L76.146 6.95025L76.1667 7.41385L76.1488 7.72796L76.4652 8.07364L76.3234 8.09968L75.9657 8.02153L75.6838 8.11751L75.4183 8.28077L75.3 8.74575L75.15 8.52627L74.6905 8.31781L74.4181 8.47826L73.9614 8.68953L73.5459 8.60447L73.2818 8.49747L72.6572 8.67856L71.5443 8.67308L71.1729 8.41246L71.0642 7.96527L70.9775 7.85555L70.8757 8.05581L70.701 8.28625L70.0283 8.33288L69.9279 8.42753L69.9677 8.6511L69.9416 8.93232L69.683 8.95287L69.3639 9.02696L69.3982 9.37122L69.4574 9.64008L69.3391 9.77449L68.9883 9.52899L68.8314 9.26426L68.5852 9.18193L68.3926 9.27657L68.3431 9.51254L68.372 10.1216L68.1972 10.1901L67.7419 10.1668L67.5328 10.282L67.2178 11.0474L66.6386 11.3396L66.5505 11.7387L66.512 12.0789L66.9935 12.6948L66.761 13.0103L66.5162 13.2681L66.2712 13.3779L65.7512 13.478L65.3688 13.7592L65.2079 14.0555L65.1776 14.338L65.0717 14.7001L64.9052 15.1295L64.8722 15.3613L64.5242 15.5917L63.9051 16.2817L63.5928 16.9881L64 17.3721L64.4787 17.6479L64.8268 17.6396L64.8295 17.7096L64.4664 17.9935L64.692 18.2843L65.04 18.5559L65.2519 18.5957L65.4073 18.7109L65.0785 18.7754L64.5916 18.7987L64.498 19.095L64.5572 19.4365L64.6438 19.7328L64.5833 19.9426L64.4017 19.7986L64.3219 19.5764L63.9037 19.1238L63.6038 18.9852L63.1649 18.8782L63.0328 19.0154L63.0507 19.7054L62.9641 20.0222L62.8087 19.8425L62.7701 19.3378L62.3561 18.929L60.7245 18.5202L60.4934 18.4942L60.1137 18.5477L59.8537 18.7095L59.8275 18.8686L59.6542 18.9976L59.3722 19.1443L59.1135 19.3693L58.9457 19.5572L58.9374 19.7918L59.1466 20.2321L59.269 20.3596L59.2525 20.5695L59.0488 20.3514L58.87 20.2815L58.7008 20.6244L58.5385 20.693L58.5812 19.7355L58.7503 19.0867L58.8879 18.704L59.0393 18.405L58.9663 18.2473L57.8355 17.3516L57.3568 16.6177L57.006 16.2062L56.4598 15.8098L56.175 15.5602L55.5408 15.1789L54.7925 14.9141L54.4321 14.5561L54.0345 14.4286L53.542 14.6028L53.5007 14.9361L53.5626 15.2598L53.1706 15.7893L52.7482 16.0718L52.4112 15.7481L52.1044 15.5122L51.7949 15.6823L51.7013 15.9744L51.5458 16.0828L51.4289 15.8839L51.2597 15.445L51.008 15.2708L50.7562 15.3476L50.8319 15.696L50.9763 15.888L50.9364 16.1651L50.7548 16.2927L50.7205 16.5546L50.6117 16.9031L50.6283 17.39L50.3408 17.4929L50.1261 17.8783L49.9706 17.796L49.9308 17.545L49.8523 17.2885L49.5387 17.1911L49.4232 17.4297L49.353 17.5107L49.2416 17.5272L49.3172 17.3324V16.9675L49.408 16.5862L49.1108 16.449L48.9925 16.5341L48.9967 16.8633L48.9252 17.3433L48.6307 17.4188L48.3693 17.6342L47.9828 17.6383L47.7861 17.7425L47.7159 17.9963L47.3761 18.2582L47.383 18.5724L47.6114 18.8906L47.6265 19.1676L48.1699 19.4489L48.1383 19.7314L48.0612 19.8631L47.8562 19.811L47.4174 19.5668L46.9703 19.5147L46.8355 19.4022L46.7818 19.4831L46.7791 19.6711L46.6057 19.8082L46.3568 19.822L46.0665 20.0236L46.2728 20.3391L46.2357 20.4639L46.3375 20.6148L46.7805 20.6422L46.9689 20.6024L46.9882 20.8713L46.9318 21.1401L46.7516 21.2362L46.5796 20.9892L45.7253 20.516L45.5011 20.4707L45.4543 20.6189L45.4942 20.8123L45.314 21.0469L44.9962 21.3541L44.7802 21.2704L44.5243 21.3431L44.3592 21.8685L44.3015 22.3938L44.5848 22.7614L44.7747 23.2456L45.1695 22.6503L45.3305 22.5817L45.3319 22.8396L45.1778 23.1071L45.087 23.4363L45.0567 23.808L44.7981 23.8176L44.5078 23.7682L44.4376 23.8862L44.329 24.1633L44.3922 24.546L44.5848 24.69L45.032 24.6763L45.413 24.7037L45.7528 24.8423L45.8092 24.9588L45.5024 24.893L44.8751 24.9287L44.5766 24.8765L43.9836 24.9122L43.5434 24.6941L43.3261 24.476L42.9973 24.4198L42.6767 24.5075L42.4979 24.8135L42.2819 24.8875L41.7798 24.1303L41.4648 24.0796L41.3093 24.2566L41.4606 24.7311L41.3809 25.0233L41.2089 25.2414L40.9915 25.2277L40.8567 25.3196L40.964 25.5198L41.3079 26.0287L41.5899 26.2509L41.8403 26.5596L41.9683 26.8257L42.2709 26.8133L42.3411 27.0287L42.1677 27.3414L42.1733 27.838L42.0494 27.864L41.8748 27.7543L41.5281 27.4484L41.3492 27.3894L41.257 27.4772L41.2281 27.6871L41.312 28.2358L41.1346 29.019L41.1704 29.2481L41.1387 29.4428L40.9929 29.3015L40.814 28.9984L40.444 28.5279L39.9914 27.5033L39.5126 26.8092L39.2527 26.218L38.8523 25.1056L38.6446 25.0891L38.3791 25.5679L38.0861 26.1974L37.8866 26.5074L37.4133 26.8161L37.1217 27.1288L36.7723 27.2385L36.3884 27.5952L36.1119 27.901L35.724 28.6143L35.6579 29.0738L35.6745 29.5581L35.8437 30.2452L36.0225 31.2438L36.2853 31.3508L36.4971 31.5195L36.438 31.8213L36.1161 32.012L35.1283 32.957L34.4639 33.2945L34.274 33.5317L34.0305 34.0324L33.6784 34.6647L33.5188 35.0639L33.1487 35.8375L32.5462 36.7016L31.9368 37.3436L31.2337 37.858L30.7729 38.1035L29.056 38.8222L28.1398 39.0966L26.4849 39.2969L25.7832 39.6219L24.9056 39.5163L23.9233 39.4464L22.56 40.5327L21.4292 40.7974L20.4277 40.9964L19.9971 41.1747L19.0121 41.8015L18.4384 42.0882L17.3681 42.4091L16.9292 42.3762L16.3364 42.0813L15.7819 42.1499L15.1684 42.1074L14.6676 42.1348L14.2784 42.379L11.9823 43.6766L11.5283 44.0305L11.0564 44.5448L10.3796 45.0208L9.83893 45.5695L8.70262 46.1414L7.53331 46.5749L6.95546 46.9356L6.5442 47.4254L5.82747 48.7421L5.67608 49.0754L5.38992 49.4225L5.01023 49.5487L4.76404 49.6611L4.8507 49L4.57697 48.4129L4.7695 47.2923L4.69796 46.9576L4.30727 47.1757L4.05831 47.4143L3.42689 49.0384L2.99489 50.3045L3.32227 51.0314L3.42823 51.4539L3.42689 51.9079L3.31127 52.5608L3.31958 52.986L3.28104 53.5526L2.49412 54.8666L2.24927 55.4386L1.98512 56.5387L1.95346 57.049L1.97277 57.813L2.30427 58.4823L2.55743 58.8966L2.94946 60.0954L3.42 60.8924L4.1945 62.4985L5.04877 63.8016L5.10385 64.3009L5.00754 64.973L5.05431 65.6685L4.90158 65.8729L4.57143 66.1129L4.19308 65.8043L4.00054 65.5368L3.75839 64.5519L3.65931 64.4957L3.497 64.9264L3.31815 65.1144L3.15585 64.9868L3.032 64.8235L3.00177 64.6535L3.05677 64.4505L3.11597 63.7125L2.76104 63.2914L2.446 62.8388L2.10619 62.7276L1.89712 62.932L1.89023 63.2132L2.34558 64.0006L2.63854 64.8537L3.0912 65.3873L3.35804 65.5244L3.65662 65.8495L3.59197 66.5697L3.37592 66.8385L3.19573 66.9757L2.60831 66.8166L2.47212 66.2981L2.01266 65.279L1.86404 64.8839L1.7375 64.7769L1.68662 64.9717L1.69619 65.3228L1.61096 65.4737L1.52154 65.4586L1.33992 65.2749L1.17619 65.1761L1.0772 65.2103L1.25604 65.4641L1.64942 66.2158L3.10219 68.0593L4.33347 70.2073L4.60442 71.0577L4.74062 72.9287L4.86304 73.3814L5.58943 74.3127L6.3007 75.3922L6.50977 75.9299L6.50566 76.3907L6.65008 76.8284L7.53331 78.0162L7.92678 79.2919L7.97489 79.7582L7.86212 80.5592L7.96523 81.9762L8.06431 82.7471L8.38481 84.2751L8.76727 85.3779L9.21993 86.0637L9.83893 87.589L10.7799 89.3502L10.9327 90.2213L10.8845 92.5435L10.817 93.3006L10.6107 93.431L10.4718 93.7505L10.6726 95.2786L10.7194 96.151L10.4154 96.974L10.0714 97.7051L9.46755 98.2044L8.78381 98.2209L8.466 97.93L8.0602 97.6324L7.98866 98.9615L7.98043 100.103L8.1042 100.538L8.11797 101.051L8.57743 101.45L8.83604 101.295L9.15519 101.273L10.2654 101.838L10.8886 102.304L11.8929 103.558L12.7816 103.889L13.9399 104.459L15.2854 104.64L16.3611 104.673L18.0519 104.974L18.4137 104.867L19.1373 104.773L19.6903 104.579L20.1883 104.454L21.6741 103.289L23.1226 102.09L23.8394 101.996L24.4819 101.982L25.266 101.573L25.9786 100.335L26.3418 100.059L26.8247 99.7502L28.1962 99.5692L29.0038 99.6967L29.4357 99.4965L30.5321 99.2729L32.813 99.0672L34.0649 99.2331L34.9013 99.2057L35.3443 99.288L35.6909 99.8298L38.1108 99.3635L38.7987 99.3305L39.2293 99.4087L39.7713 99.8134L40.3793 99.4307L40.9255 99.4814L41.4785 99.1124L42.3191 98.0069L42.7015 97.3169L43.3137 95.8643L43.7677 95.3431L44.267 95.0839L44.8531 95.0001L45.7569 94.7382L47.7173 93.516L48.4781 93.2527L48.8798 93.0222L50.2293 92.0744L51.0754 91.892L53.5571 92.1375L54.7333 92.0744L55.644 91.9263L57.0266 91.416L58.5316 91.0319L60.3792 90.2254L61.9227 89.3914L62.8568 89.1994L64.3274 89.0526L66.4927 88.8359L69.0144 88.9484L69.6527 88.7769L69.9664 88.6246L70.408 88.4615L70.9527 88.5753L71.371 88.6987L72.6366 89.364L74.5433 90.7644L74.9643 90.8235L76.2189 90.5038L76.6385 90.5354L78.3939 91.5641L79.1216 91.5861L79.7036 91.56L80.1438 91.6711L80.6115 91.951L81.1659 92.5984L82.3394 93.2198L82.3985 93.7217L82.3119 94.0483L82.0477 94.0606L81.8235 94.1306L82.1055 95.1826L82.598 96.033L83.7811 96.1483L84.2117 96.4459L84.4882 96.782L84.7042 97.3155L84.8652 98.1509L85.4581 98.8477L86.0111 99.443L86.1404 99.6885L86.4004 100.532L86.4995 100.779L86.7154 101.614L87.0305 102.569L86.9438 102.666L86.7568 102.646L86.4238 102.403L86.1308 102.133L85.9739 102.175L85.7951 102.361L85.769 102.59L86.0304 102.529L86.183 102.562L86.5448 102.854L86.8819 103.194L87.1488 103.393L87.7926 104.241L88.0444 104.052L88.3525 103.883L88.8423 104.344L89.0376 104.436L89.149 104.259L88.9633 103.432L88.7776 103.232L88.7336 102.938L88.9633 102.728L89.0748 102.477L89.6209 101.858L90.8164 100.011L91.1837 99.7996L91.6074 99.395L92.1797 99.0863L92.7712 98.7202L93.1482 98.5775L93.5183 98.5021L93.9323 98.1633L94.3835 97.2469L94.7233 96.1619L95.0866 95.6846L95.6423 95.1757L96.0701 94.4694L96.0358 93.9166L96.0413 93.3528L96.3494 93.7876L96.5434 94.2293L96.8502 95.7066L96.5874 96.0317L96.3095 96.1949L96.3632 96.7134L96.5489 97.3896L96.6177 97.9314L96.0344 98.5034L95.5309 99.2221L94.9269 100.619L94.8884 101.041L94.7935 101.628L94.8293 102.145L94.9228 102.646L94.7742 103.422L94.5308 104.116L94.2116 104.134L93.9943 104.108L93.5169 104.17L93.0767 104.129L92.5718 105.646L92.8923 105.717L93.1372 105.631H93.5788L94.0727 105.359L94.7949 105.137L95.2076 105.215L95.6919 105.19L96.3962 103.248L96.5709 101.985L96.9299 101.418L97.0414 101.027L97.2271 100.657L97.6013 101.293L97.9026 101.912L98.5657 102.916L98.7734 103.417L98.8559 104.635L98.4254 106.048L98.1667 106.452L97.8544 106.805L97.593 107.399L98.3841 107.549L98.8972 107.539L99.6992 107.106L99.8574 107.049L100.261 107.042L100.415 106.816L100.809 106.6L101.104 106.348L101.485 106.149L101.832 106.281L101.91 106.395L101.997 106.522L101.869 106.802L101.858 107.393L101.631 107.329L101.428 106.978L101.175 107.068L100.999 107.333L100.621 107.249L100.684 107.422L100.886 107.761L101.686 108.414L102.54 109.279L102.858 109.688L103.554 110.992L104.049 112.379L104.009 112.789L103.766 113.53L103.591 114.283L103.606 114.678L103.767 115.179L104.118 115.692L105.419 117.092L106.107 118.327L107.022 118.967L108.504 119.203L109.286 119.667L110.099 120.602L110.358 120.682L110.753 120.72L111.259 120.151L112.031 120.211L113.046 120.776L113.65 120.642L114.081 120.712L114.683 121.032L115.565 121.664L116.501 121.982L117.056 122.461L117.488 122.532L118.263 122.844L118.832 122.578L119.317 122.243L120.435 121.084L121.311 120.525L121.772 120.309L122.142 120.213L122.611 119.851L122.32 119.596L122.043 119.638L121.57 119.494L121.84 119.327L122.122 119.202L123.484 118.34L123.845 118.596L124.096 118.881L124.367 119.272L124.163 119.825L123.982 120.085L123.562 120.504L123.056 120.52L122.815 120.486L123.314 120.955L123.746 121.27L124.641 120.697L124.863 120.246L125.033 119.984L125.316 119.926L125.74 120.014L125.903 120.344L125.996 120.748L125.689 120.857L125.54 121.156L125.436 121.44L125.969 121.805L126.243 122.037L126.573 122.032L126.954 122.088L127.243 122.624L127.513 123.243L127.832 123.071L128.032 122.909L128.373 123.064L128.744 123.551L129.046 124.104L129.076 124.337L129.307 124.444L129.526 124.28L129.63 124.047L129.622 123.617L129.563 122.94L129.41 122.837L129.062 123.204L128.864 122.938L128.597 122.656L128.601 122.383L128.891 122.247L129.138 122.306H129.446L131.072 122.069L133.152 119.894L134.063 119.098L135.009 118.506L135.989 118.126L136.499 118.004L139.129 117.8L140.498 117.866L141.203 117.716L141.529 117.516L142.082 116.969L142.47 116.634L142.946 116.541L143.061 116.132L143.062 115.695L143.153 115.238L143.014 114.38L143.051 113.254L143.159 112.667L143.446 111.843L143.573 110.996L143.702 109.798L143.816 109.087L143.959 108.438L144.332 107.724L144.649 107.261L145.396 105.522L145.654 105.351H145.87L145.964 105.245L145.993 105.149L145.929 105.079L145.834 104.877L145.898 104.714L146.125 104.552L146.196 104.614L146.312 104.58L146.33 104.491L146.222 104.015L146.379 103.348L146.57 102.184L146.786 101.661L146.914 101.245L147.414 100.621L147.96 100.007L147.804 99.9409L147.549 99.8942L147.714 99.7475L147.844 99.7036L148.011 99.801L148.148 99.5308L148.179 99.1069L148.312 98.4815L148.194 97.9369L148.447 97.7668L148.734 97.6639L148.855 97.0933L148.935 96.8643L149.114 96.6517L149.414 96.1976L149.649 95.7244L150.206 94.8218L150.751 94.4529L151.563 94.1676L151.654 94.0043L151.447 93.9042L151.456 93.8055H151.761L151.885 93.4899L152.207 93.2568L152.745 92.7191L152.923 92.2253L153.035 91.8303L153.089 90.9373L153.963 89.7659L154.573 88.1844L154.72 87.1707L154.871 86.6234L154.973 85.8224L154.881 84.9884L154.907 84.2902L155.515 82.518L155.654 81.7869L155.841 81.3178L156.129 79.5717L156.134 78.6664L156.575 77.613L157.123 76.7557L157.17 75.9629L156.986 75.3538L157.012 74.0672ZM66.4955 6.90772L67.2136 6.7006L67.929 6.95025L68.3293 6.87616L68.3155 6.70746L68.2275 6.56618L68.0817 6.43311L67.7639 6.34123L67.6621 5.99969L67.4792 5.67871L67.4461 5.32755L67.3017 5.00385H67.131L66.9618 5.09577L66.5822 5.55251L66.7156 5.80216L66.7555 6.25893L66.5299 6.4098L66.2712 6.34671L66.1598 6.76368L66.2891 6.91182L66.4955 6.90772ZM0.863923 64.2241L0.862579 63.9278L0.724959 63.6411L0.286155 62.3889L0.148535 62.4368L0 62.6001L0.21596 63.5054L0.95746 64.8317L1.05931 64.6562L0.925805 64.3188L0.863923 64.2241ZM9.57485 42.9989L9.79904 42.6794L9.8417 42.3872L9.7537 42.1897L9.44412 42.5093L9.2667 42.774L9.30247 42.9359L9.57485 42.9989ZM44.8476 21.0674L44.9852 21.1017L45.1296 20.9892L45.1599 20.8096L45.0031 20.6285L44.9508 20.468L44.8283 20.457L44.7691 20.5558L44.6866 20.7464L44.8449 20.9138L44.8476 21.0674ZM47.4518 17.7329L47.4312 17.6259L47.4491 17.3187L47.3018 17.2446L47.1381 17.3873L47.0377 17.7823L47.2056 17.9798L47.4518 17.7329ZM132.985 144.472L132.888 144.652L132.856 144.814L132.768 144.9L132.929 145.014L132.972 145.272L133.06 145.316H133.302L133.159 144.671L132.985 144.472ZM132.83 145.524L132.72 145.517L132.527 145.789L132.472 146.004L132.39 146.045L132.336 146.196L132.252 146.314L132.027 146.222L132.028 146.318L132.217 146.683L132.516 146.594L132.816 146.687L132.998 146.139L132.946 145.871L132.83 145.524ZM136.037 142.043L135.766 141.923L135.572 142.17L135.603 142.29L135.598 142.559L135.671 142.582L135.887 142.535L135.872 142.38L136.137 142.229L136.037 142.043ZM96.6011 107.92L96.2421 108.09L95.3176 107.979L95.3245 107.901L95.4676 107.591L95.2723 107.419L95.0618 107.348L94.3038 107.289L93.3683 107.625L91.6198 108.027L91.3886 108.309L91.2414 108.695L91.4299 108.909L92.0697 109.372L92.6777 109.436L93.1138 109.327L93.5843 109.4L93.8236 109.131L94.4895 109.313L94.7453 109.57L95.2929 109.344L95.4167 108.923L95.6051 108.732L96.2408 108.589L96.9217 108.777L97.1322 108.744L97.3523 108.515L97.0551 108.056L96.6011 107.92ZM120.508 127.61L120.394 126.876L120.044 126.588L119.843 126.606L119.806 126.976L119.575 127.185L119.508 127.374L119.52 127.804L119.418 128.203L119.608 128.601L119.563 129.002L119.651 129.285L119.764 129.264L120.176 129.075L120.475 128.794L120.586 128.451L120.452 128.052L120.508 127.61ZM41.2611 9.29855L41.2585 9.25874L41.1717 9.25192L41.1745 9.29168L41.2611 9.29855Z" fill="var(--fill-0, #71B219)" stroke="var(--stroke-0, white)" mask="url(#path-1-inside-1_0_152)"/>
</g>
</svg>
