<svg preserveAspectRatio="none" width="100%" height="100%" overflow="visible" style="display: block;" viewBox="0 0 178 213" fill="none" xmlns="http://www.w3.org/2000/svg"><g id="AU"><mask id="path-1-inside-1_0_152" fill="white"><path d="M68 5L67 4L68 4L68 4L68 4L68 5L68 5L68 5L69 5L70 5L70 5L70 5L70 5L71 5L71 4L71 5L72 5L72 5L72 5L72 5L72 6L72 6L71 6L71 6L70 7L68 7L68 6L68 5L68 5ZM93 22L93 22L93 23L93 22L93 22L93 22L93 22L93 22L93 22L93 22L93 22ZM102 26L102 26L102 26L102 26L102 26L103 26L103 26L103 25L103 25L103 25L102 25L102 25L102 26L101 26L101 26L101 26L102 26ZM113 0L113 0L113 0L113 0L113 0L113 0ZM92 5L92 4L92 4L92 4L92 4L92 4L92 4L92 4L91 5L91 5L91 5L92 5ZM76 4L76 5L76 5L76 4L76 4L76 4L76 4L76 4L76 4L76 4L76 4ZM91 6L91 6L91 6L91 6L90 6L90 6L90 6L91 6ZM92 22L92 22L93 22L92 21L92 22L92 22ZM113 2L113 2L113 3L113 3L113 2L113 2L113 2ZM91 22L91 22L91 22L91 22L92 22L91 22L91 22L91 22ZM93 16L92 16L92 16L92 16L92 15L92 15L92 15L93 15L93 15L92 14L92 14L92 15L92 15L92 15L92 14L92 14L92 14L91 14L91 15L91 15L91 16L91 16L91 16L90 16L91 16L91 16L92 17L92 16L93 17L93 16L93 16L93 16L93 16ZM148 55L148 55L148 55L148 55L148 54L148 54L148 54L148 54L148 54L147 54L147 54L148 55L148 55ZM155 64L155 63L155 63L155 62L156 60L156 60L156 60L156 59L156 59L156 59L156 59L155 59L156 60L156 60L156 60L156 60L155 61L155 62L155 62L155 62L155 62L155 63L155 64ZM156 70L156 70L156 70L157 69L156 69L156 69L156 69L156 70L156 70ZM156 71L156 72L156 72L156 72L157 71L157 70L156 70L156 71ZM145 49L145 49L145 49L145 48L145 49L145 49L145 49L145 49ZM143 48L143 48L143 48L143 48L143 48L143 49L143 48ZM128 32L128 33L129 33L129 33L129 33L129 33L129 33L129 32L129 32L129 32L128 32L128 32L128 32ZM113 1L114 0L114 0L113 0L113 1L113 1L113 1ZM139 40L139 40L139 40L139 40L139 40L139 40L139 40L139 40ZM139 41L139 41L140 41L140 41L139 40L139 40L139 41L139 41ZM102 28L102 28L102 28L102 28L103 28L103 28L103 27L102 28ZM126 120L126 120L125 120L125 120L125 121L125 121L126 120ZM137 129L136 128L136 128L136 128L135 127L135 128L135 128L135 128L135 128L135 128L135 129L136 130L136 130L136 130L136 130L136 130L137 130L137 130L137 129L136 129L137 129L137 129ZM136 131L136 131L136 131L136 131L136 131L136 132L136 131ZM124 121L125 121L125 122L125 121L125 121L125 121L125 121L124 121ZM123 131L123 131L123 131L123 131L123 131L123 132L123 131ZM90 14L90 14L90 15L90 15L90 15L90 15L90 15L90 14L90 14L90 14ZM178 211L177 213L177 213L178 213L178 212L178 211L178 211ZM137 130L136 130L136 130L136 131L136 131L136 131L136 131L137 131L137 131L137 131L137 131L137 130L137 130ZM137 139L137 139L137 139V139L137 138L137 138L137 137L137 137L137 136L137 136L137 135L137 135L137 134L137 134L136 133L136 133L135 133L135 133L135 133L134 133L134 133L134 134L133 134L133 134L133 134L133 134L132 134L132 134L132 134L131 134L131 134L131 134L131 135L131 134L131 134L130 134L130 134L129 135L128 134L127 134L127 134L127 134L126 133L126 133L126 133L126 133L126 133L125 133L125 133L125 132L124 133L124 133L123 132L123 132L123 133L122 134L123 134L123 135L123 136L123 136L123 136L124 137L124 138L125 139L125 139L125 140L125 140L125 140L125 140L125 140L126 141L126 141L126 141L126 141L125 141L125 140L125 141L125 142L126 144L126 144L126 144L126 144L126 144L127 145L127 146L128 146L128 146L128 146L129 146L129 146L128 146L128 146L128 146L128 146L128 147L128 147L129 147L130 147L130 147L131 147L131 147L131 147L132 146L132 146L132 146L132 145L132 145L132 145L132 145L133 145L133 145V144L133 144L133 144L133 144L133 144L133 143L133 143L133 144L133 144L134 144L134 144L134 143L134 143L134 143L135 144L135 144L135 144L135 144L134 144L134 144L134 145L135 145L135 145L135 145L135 145L135 144L135 143L135 142L135 142L135 142L136 141L136 141L136 140L136 140L136 139L136 139L136 139L136 139L136 139L136 139L136 139L136 139L136 139L137 140L137 140L137 140L137 140L137 140L137 140L137 140L137 139ZM157 74L156 73L156 73L156 72L156 70L155 70L155 69L155 66L155 64L155 64L155 64L155 64L154 63L154 62L154 61L154 61L153 60L153 60L153 60L153 59L152 59L152 59L151 58L151 58L151 57L150 56L150 56L149 56L149 56L148 55L148 55L147 55L147 54L147 54L146 54L146 52V51L146 50L146 49L146 49L145 49L145 50L145 50L145 50L145 50L144 49L144 49L144 48L143 48L143 48L143 49L143 50L143 50L143 50L142 49L142 49L142 50L142 49L142 49L141 48L141 47L141 46L141 46L140 45L140 45L140 44L140 43L139 43L138 42L138 42L138 41L139 42L139 41L139 41L138 41L138 40L138 40L137 40L136 39L136 39L136 39L135 39L135 39L134 38L134 38L134 37L133 37L133 37L133 37L133 37L132 37L132 37L132 36L131 36L130 36L130 36L130 36L129 35L129 35L129 34L129 34L129 33L128 32L128 32L128 31L128 30L128 29L127 28L127 27L127 27L127 27L126 26L126 26L126 26L126 25L126 25L126 24L126 24L125 23L125 22L125 21L125 21L125 20L125 20L125 20L125 19L125 19L124 19L124 18L122 17L122 17L122 16L121 16L121 17L120 17L120 17L119 17L119 17L119 16L119 15L118 15L118 14L118 13L118 13L118 12L118 11L118 10L118 10L117 10L117 9L117 9L117 9L117 8L117 8L117 8L117 7L116 7L116 7L116 7L116 7L116 6L116 5L116 5L115 4L115 4L115 4L114 3L114 3L115 3L114 2H114L114 3L114 3L113 4L113 5L112 6L112 7L112 8L112 8L112 8L112 8L112 8L111 9L111 10L111 10L112 10L112 10L112 10L112 10L112 10L112 11L112 11L112 11L111 11L111 11L111 12L111 13L110 14L110 15L110 15L110 16L111 16L111 17L110 17L111 19L111 20L111 20L110 22L110 23L110 24L110 24L110 25L109 26L108 27L108 28L108 29L107 30L107 30L105 30L105 30L104 30L104 30L103 30L102 29L102 29L101 28L101 28L101 27L101 27L100 27L99 26L99 26L98 26L97 26L96 25L96 24L95 24L94 24L94 23L93 23L93 23L93 23L92 23L92 23L92 22L92 22L92 22L92 22H92L92 22L91 22L91 22L90 22L90 21L90 21L89 20L88 20L87 19L87 19L87 19L87 18L87 18L87 18L88 17L88 16L89 16L89 15L89 15L89 14L89 13L90 12L90 12L90 12L91 12L91 12L91 12L91 12L91 11L91 11L91 11L93 9L93 8L92 8L92 8L92 8L91 7L91 7L90 8L90 8L90 8L90 9L90 9L90 9L90 9L89 9L89 8L89 8L89 8L88 8L88 8L88 8L88 8L88 8L89 8L89 8L88 7L88 7L89 7L89 7L88 7L88 7L87 8L87 8L86 8L85 8L85 8L85 8L84 8L84 8L83 8L83 8L82 8L82 7L81 7L80 7L80 7L79 7L79 6L78 6L78 6L78 6L77 5L77 5L77 6L76 6L76 5L75 5L75 4L75 5L74 5L74 5L74 5L74 4L74 4L73 5L73 5L74 5L74 6L74 6L75 6L76 6L76 6L76 6L76 7L76 7L76 8L76 8L76 8L76 8L76 8L75 8L75 9L75 8L75 8L74 8L74 9L74 9L73 8L73 9L72 9L71 8L71 8L71 8L71 8L71 8L70 8L70 8L70 9L70 9L70 9L69 9L69 9L70 10L69 10L69 10L69 9L69 9L68 9L68 10L68 10L68 10L68 10L68 10L67 11L67 11L67 12L66 12L67 13L67 13L66 13L66 13L66 14L65 14L65 14L65 14L65 15L65 15L65 15L64 16L64 16L64 17L64 17L64 18L65 18L65 18L64 18L65 18L65 19L65 19L65 19L65 19L65 19L64 19L65 19L65 20L65 20L64 20L64 20L64 19L64 19L63 19L63 19L63 20L63 20L63 20L63 19L62 19L61 18L60 18L60 18L60 19L60 19L60 19L59 19L59 19L59 20L59 20L59 20L59 20L59 21L59 20L59 20L59 21L58 21L59 20L59 19L59 19L59 18L59 18L58 17L57 17L57 16L56 16L56 16L56 15L55 15L54 15L54 14L54 15L54 15L54 15L53 16L53 16L52 16L52 16L52 16L52 16L52 16L51 16L51 15L51 15L51 15L51 16L51 16L51 16L51 16L51 17L51 17L51 17L50 18L50 18L50 18L50 18L50 17L50 17L49 17L49 18L49 18L49 17V17L49 17L49 16L49 16L49 17L49 17L49 17L48 18L48 18L48 18L48 18L47 18L47 19L48 19L48 19L48 19L48 20L48 20L48 20L47 20L47 20L47 19L47 20L47 20L47 20L46 20L46 20L46 20L46 20L46 21L47 21L47 21L47 21L47 21L47 21L47 21L46 20L46 20L46 21L46 21L45 21L45 21L45 21L44 21L44 22L44 22L45 23L45 23L45 23L45 23L45 23L45 23L45 23L45 24L45 24L44 24L44 24L44 24L44 24L45 25L45 25L45 25L46 25L46 25L46 25L45 25L45 25L44 25L44 25L43 24L43 24L43 24L42 25L42 25L42 24L42 24L41 24L42 25L41 25L41 25L41 25L41 25L41 26L41 26L42 26L42 27L42 27L42 27L42 27L42 27L42 28L42 28L42 28L42 27L41 27L41 28L41 28L41 28L41 29L41 29L41 29L41 29L41 29L40 28L40 28L40 27L39 26L39 25L39 25L38 26L38 26L38 26L37 27L37 27L37 27L36 28L36 28L36 29L36 29L36 30L36 30L36 31L36 31L36 32L36 32L36 32L35 33L34 33L34 34L34 34L34 35L34 35L33 36L32 37L32 37L31 38L31 38L29 39L28 39L26 39L26 40L25 40L24 39L23 40L21 41L20 41L20 41L19 42L18 42L17 42L17 42L16 42L16 42L15 42L15 42L14 42L12 44L12 44L11 44L10 45L10 46L9 46L8 47L7 47L6 47L6 49L6 49L5 49L5 50L5 50L5 49L5 48L5 47L5 47L4 47L4 47L3 49L3 50L3 51L3 52L3 52L3 53L3 53L3 54L2 55L2 55L2 56L2 57L2 58L2 58L3 59L3 60L3 61L4 62L5 64L5 64L5 65L5 66L5 66L5 66L4 66L4 66L4 65L4 64L4 65L3 65L3 65L3 65L3 65L3 64L3 64L3 63L2 63L2 63L2 63L2 63L2 64L3 65L3 65L3 66L4 66L4 67L3 67L3 67L3 67L2 66L2 65L2 65L2 65L2 65L2 65L2 66L2 66L1 65L1 65L1 65L1 66L2 66L3 68L4 70L5 71L5 73L5 73L6 74L6 75L6 76L6 76L7 77L8 78L8 79L8 80L8 81L8 82L8 83L8 84L9 85L9 86L10 88L11 89L11 90L11 92L11 93L11 93L10 94L11 95L11 96L10 97L10 98L10 98L9 98L8 98L8 98L8 99L8 100L8 100L8 101L9 102L9 101L9 101L10 102L11 102L12 104L13 104L14 104L15 105L16 105L18 105L18 105L19 105L20 105L20 104L22 103L23 102L24 102L24 102L25 102L26 100L26 100L27 100L28 100L29 100L29 100L30 99L33 99L34 99L35 99L35 99L36 100L38 99L39 99L39 99L40 100L40 99L41 100L42 99L42 98L43 97L43 96L44 95L44 95L45 95L46 95L48 94L48 93L49 93L50 92L51 92L54 92L55 92L56 92L57 91L58 91L60 90L62 89L63 89L64 89L66 89L69 89L70 89L70 89L70 88L71 89L71 89L73 89L74 91L75 91L76 90L77 90L78 92L79 92L80 92L80 92L81 92L81 93L82 93L82 94L82 94L82 94L82 94L82 95L83 96L84 96L84 96L84 97L85 97L85 98L86 99L86 99L86 100L86 100L86 101L87 102L87 103L87 103L87 103L86 102L86 102L86 102L86 102L86 103L86 102L86 103L86 103L87 103L87 103L88 104L88 104L88 104L89 104L89 104L89 104L89 103L89 103L89 103L89 103L89 102L90 102L91 100L91 100L92 99L92 99L93 99L93 99L94 98L94 98L94 97L95 96L95 96L96 95L96 94L96 94L96 93L96 94L96 94L97 96L97 96L96 96L96 97L96 97L97 98L96 98L96 99L95 101L95 101L95 102L95 102L95 103L95 103L94 104L94 104L94 104L94 104L93 104L93 106L93 106L93 106H94L94 105L95 105L95 105L96 105L96 103L97 102L97 101L97 101L97 101L98 101L98 102L99 103L99 103L99 105L98 106L98 106L98 107L98 107L98 108L99 108L100 107L100 107L100 107L100 107L101 107L101 106L102 106L102 106L102 106L102 106L102 107L102 107L102 107L101 107L101 107L101 107L101 107L101 107L101 108L102 108L102 109L103 110L104 111L104 112L104 113L104 114L104 114L104 115L104 115L104 116L105 117L106 118L107 119L108 119L109 120L110 121L110 121L111 121L111 120L112 120L113 121L114 121L114 121L115 121L116 122L116 122L117 122L118 122L118 123L119 123L119 122L120 121L121 120L122 120L122 120L123 120L122 120L122 120L122 120L122 119L122 119L124 118L124 119L124 119L124 119L124 120L124 120L124 120L123 120L123 120L123 121L124 121L125 121L125 120L125 120L125 120L126 120L126 120L126 121L126 121L126 121L125 121L126 122L126 122L127 122L127 122L127 123L128 123L128 123L128 123L128 123L129 124L129 124L129 124L129 124L130 124L130 124L130 124L130 123L129 123L129 123L129 123L129 123L129 122L129 122L129 122H129L131 122L133 120L134 119L135 118L136 118L136 118L139 118L140 118L141 118L142 118L142 117L142 117L143 116L143 116L143 116L143 115L143 114L143 113L143 113L143 112L144 111L144 110L144 109L144 108L144 108L145 107L145 106L146 105H146L146 105L146 105L146 105L146 105L146 105L146 105L146 105L146 105L146 104L146 104L146 103L147 102L147 102L147 101L147 101L148 100L148 100L148 100L148 100L148 100L148 100L148 100L148 99L148 98L148 98L148 98L149 98L149 97L149 97L149 97L149 96L150 96L150 95L151 94L152 94L152 94L151 94L152 94H152L152 94L152 93L153 93L153 92L153 92L153 91L154 90L155 88L155 87L155 87L155 86L155 85L155 84L156 82L156 82L156 81L156 80L156 79L157 78L157 77L157 76L157 75L157 74ZM66 7L67 7L68 7L68 7L68 7L68 7L68 6L68 6L68 6L68 6L67 5L67 5H67L67 5L67 6L67 6L67 6L66 6L66 6L66 7L66 7L66 7ZM1 64L1 64L1 64L0 62L0 62L0 63L0 64L1 65L1 65L1 64L1 64ZM10 43L10 43L10 42L10 42L9 42L9 43L9 43L10 43ZM45 21L45 21L45 21L45 21L45 21L45 20L45 20L45 21L45 21L45 21L45 21ZM48 18L47 18L47 17L47 17L47 17L47 18L47 18L48 18ZM133 144L133 145L133 145L133 145L133 145L133 145L133 145H133L133 145L133 144ZM133 146L133 146L132 146L132 146L132 146L132 146L132 146L132 146L132 146L132 147L132 147L133 147L133 146L133 146L133 146ZM136 142L136 142L136 142L136 142L136 143L136 143L136 142L136 142L136 142L136 142ZM97 108L96 108L95 108L95 108L96 108L95 107L95 107L94 107L93 108L92 108L91 108L91 109L91 109L92 109L93 109L93 109L94 109L94 109L94 109L95 110L95 109L95 109L96 109L96 109L97 109L97 109L97 108L97 108L97 108ZM120 128L120 127L120 127L120 127L120 127L120 127L120 127L120 128L119 128L120 129L120 129L120 129L120 129L120 129L120 129L121 128L120 128L120 128ZM41 9L41 9L41 9L41 9L41 9Z"/></mask><path d="M68 5L67 4L68 4L68 4L68 4L68 5L68 5L68 5L69 5L70 5L70 5L70 5L70 5L71 5L71 4L71 5L72 5L72 5L72 5L72 5L72 6L72 6L71 6L71 6L70 7L68 7L68 6L68 5L68 5ZM93 22L93 22L93 23L93 22L93 22L93 22L93 22L93 22L93 22L93 22L93 22ZM102 26L102 26L102 26L102 26L102 26L103 26L103 26L103 25L103 25L103 25L102 25L102 25L102 26L101 26L101 26L101 26L102 26ZM113 0L113 0L113 0L113 0L113 0L113 0ZM92 5L92 4L92 4L92 4L92 4L92 4L92 4L92 4L91 5L91 5L91 5L92 5ZM76 4L76 5L76 5L76 4L76 4L76 4L76 4L76 4L76 4L76 4L76 4ZM91 6L91 6L91 6L91 6L90 6L90 6L90 6L91 6ZM92 22L92 22L93 22L92 21L92 22L92 22ZM113 2L113 2L113 3L113 3L113 2L113 2L113 2ZM91 22L91 22L91 22L91 22L92 22L91 22L91 22L91 22ZM93 16L92 16L92 16L92 16L92 15L92 15L92 15L93 15L93 15L92 14L92 14L92 15L92 15L92 15L92 14L92 14L92 14L91 14L91 15L91 15L91 16L91 16L91 16L90 16L91 16L91 16L92 17L92 16L93 17L93 16L93 16L93 16L93 16ZM148 55L148 55L148 55L148 55L148 54L148 54L148 54L148 54L148 54L147 54L147 54L148 55L148 55ZM155 64L155 63L155 63L155 62L156 60L156 60L156 60L156 59L156 59L156 59L156 59L155 59L156 60L156 60L156 60L156 60L155 61L155 62L155 62L155 62L155 62L155 63L155 64ZM156 70L156 70L156 70L157 69L156 69L156 69L156 69L156 70L156 70ZM156 71L156 72L156 72L156 72L157 71L157 70L156 70L156 71ZM145 49L145 49L145 49L145 48L145 49L145 49L145 49L145 49ZM143 48L143 48L143 48L143 48L143 48L143 49L143 48ZM128 32L128 33L129 33L129 33L129 33L129 33L129 33L129 32L129 32L129 32L128 32L128 32L128 32ZM113 1L114 0L114 0L113 0L113 1L113 1L113 1ZM139 40L139 40L139 40L139 40L139 40L139 40L139 40L139 40ZM139 41L139 41L140 41L140 41L139 40L139 40L139 41L139 41ZM102 28L102 28L102 28L102 28L103 28L103 28L103 27L102 28ZM126 120L126 120L125 120L125 120L125 121L125 121L126 120ZM137 129L136 128L136 128L136 128L135 127L135 128L135 128L135 128L135 128L135 128L135 129L136 130L136 130L136 130L136 130L136 130L137 130L137 130L137 129L136 129L137 129L137 129ZM136 131L136 131L136 131L136 131L136 131L136 132L136 131ZM124 121L125 121L125 122L125 121L125 121L125 121L125 121L124 121ZM123 131L123 131L123 131L123 131L123 131L123 132L123 131ZM90 14L90 14L90 15L90 15L90 15L90 15L90 15L90 14L90 14L90 14ZM178 211L177 213L177 213L178 213L178 212L178 211L178 211ZM137 130L136 130L136 130L136 131L136 131L136 131L136 131L137 131L137 131L137 131L137 131L137 130L137 130ZM137 139L137 139L137 139V139L137 138L137 138L137 137L137 137L137 136L137 136L137 135L137 135L137 134L137 134L136 133L136 133L135 133L135 133L135 133L134 133L134 133L134 134L133 134L133 134L133 134L133 134L132 134L132 134L132 134L131 134L131 134L131 134L131 135L131 134L131 134L130 134L130 134L129 135L128 134L127 134L127 134L127 134L126 133L126 133L126 133L126 133L126 133L125 133L125 133L125 132L124 133L124 133L123 132L123 132L123 133L122 134L123 134L123 135L123 136L123 136L123 136L124 137L124 138L125 139L125 139L125 140L125 140L125 140L125 140L125 140L126 141L126 141L126 141L126 141L125 141L125 140L125 141L125 142L126 144L126 144L126 144L126 144L126 144L127 145L127 146L128 146L128 146L128 146L129 146L129 146L128 146L128 146L128 146L128 146L128 147L128 147L129 147L130 147L130 147L131 147L131 147L131 147L132 146L132 146L132 146L132 145L132 145L132 145L132 145L133 145L133 145V144L133 144L133 144L133 144L133 144L133 143L133 143L133 144L133 144L134 144L134 144L134 143L134 143L134 143L135 144L135 144L135 144L135 144L134 144L134 144L134 145L135 145L135 145L135 145L135 145L135 144L135 143L135 142L135 142L135 142L136 141L136 141L136 140L136 140L136 139L136 139L136 139L136 139L136 139L136 139L136 139L136 139L136 139L137 140L137 140L137 140L137 140L137 140L137 140L137 140L137 139ZM157 74L156 73L156 73L156 72L156 70L155 70L155 69L155 66L155 64L155 64L155 64L155 64L154 63L154 62L154 61L154 61L153 60L153 60L153 60L153 59L152 59L152 59L151 58L151 58L151 57L150 56L150 56L149 56L149 56L148 55L148 55L147 55L147 54L147 54L146 54L146 52V51L146 50L146 49L146 49L145 49L145 50L145 50L145 50L145 50L144 49L144 49L144 48L143 48L143 48L143 49L143 50L143 50L143 50L142 49L142 49L142 50L142 49L142 49L141 48L141 47L141 46L141 46L140 45L140 45L140 44L140 43L139 43L138 42L138 42L138 41L139 42L139 41L139 41L138 41L138 40L138 40L137 40L136 39L136 39L136 39L135 39L135 39L134 38L134 38L134 37L133 37L133 37L133 37L133 37L132 37L132 37L132 36L131 36L130 36L130 36L130 36L129 35L129 35L129 34L129 34L129 33L128 32L128 32L128 31L128 30L128 29L127 28L127 27L127 27L127 27L126 26L126 26L126 26L126 25L126 25L126 24L126 24L125 23L125 22L125 21L125 21L125 20L125 20L125 20L125 19L125 19L124 19L124 18L122 17L122 17L122 16L121 16L121 17L120 17L120 17L119 17L119 17L119 16L119 15L118 15L118 14L118 13L118 13L118 12L118 11L118 10L118 10L117 10L117 9L117 9L117 9L117 8L117 8L117 8L117 7L116 7L116 7L116 7L116 7L116 6L116 5L116 5L115 4L115 4L115 4L114 3L114 3L115 3L114 2H114L114 3L114 3L113 4L113 5L112 6L112 7L112 8L112 8L112 8L112 8L112 8L111 9L111 10L111 10L112 10L112 10L112 10L112 10L112 10L112 11L112 11L112 11L111 11L111 11L111 12L111 13L110 14L110 15L110 15L110 16L111 16L111 17L110 17L111 19L111 20L111 20L110 22L110 23L110 24L110 24L110 25L109 26L108 27L108 28L108 29L107 30L107 30L105 30L105 30L104 30L104 30L103 30L102 29L102 29L101 28L101 28L101 27L101 27L100 27L99 26L99 26L98 26L97 26L96 25L96 24L95 24L94 24L94 23L93 23L93 23L93 23L92 23L92 23L92 22L92 22L92 22L92 22H92L92 22L91 22L91 22L90 22L90 21L90 21L89 20L88 20L87 19L87 19L87 19L87 18L87 18L87 18L88 17L88 16L89 16L89 15L89 15L89 14L89 13L90 12L90 12L90 12L91 12L91 12L91 12L91 12L91 11L91 11L91 11L93 9L93 8L92 8L92 8L92 8L91 7L91 7L90 8L90 8L90 8L90 9L90 9L90 9L90 9L89 9L89 8L89 8L89 8L88 8L88 8L88 8L88 8L88 8L89 8L89 8L88 7L88 7L89 7L89 7L88 7L88 7L87 8L87 8L86 8L85 8L85 8L85 8L84 8L84 8L83 8L83 8L82 8L82 7L81 7L80 7L80 7L79 7L79 6L78 6L78 6L78 6L77 5L77 5L77 6L76 6L76 5L75 5L75 4L75 5L74 5L74 5L74 5L74 4L74 4L73 5L73 5L74 5L74 6L74 6L75 6L76 6L76 6L76 6L76 7L76 7L76 8L76 8L76 8L76 8L76 8L75 8L75 9L75 8L75 8L74 8L74 9L74 9L73 8L73 9L72 9L71 8L71 8L71 8L71 8L71 8L70 8L70 8L70 9L70 9L70 9L69 9L69 9L70 10L69 10L69 10L69 9L69 9L68 9L68 10L68 10L68 10L68 10L68 10L67 11L67 11L67 12L66 12L67 13L67 13L66 13L66 13L66 14L65 14L65 14L65 14L65 15L65 15L65 15L64 16L64 16L64 17L64 17L64 18L65 18L65 18L64 18L65 18L65 19L65 19L65 19L65 19L65 19L64 19L65 19L65 20L65 20L64 20L64 20L64 19L64 19L63 19L63 19L63 20L63 20L63 20L63 19L62 19L61 18L60 18L60 18L60 19L60 19L60 19L59 19L59 19L59 20L59 20L59 20L59 20L59 21L59 20L59 20L59 21L58 21L59 20L59 19L59 19L59 18L59 18L58 17L57 17L57 16L56 16L56 16L56 15L55 15L54 15L54 14L54 15L54 15L54 15L53 16L53 16L52 16L52 16L52 16L52 16L52 16L51 16L51 15L51 15L51 15L51 16L51 16L51 16L51 16L51 17L51 17L51 17L50 18L50 18L50 18L50 18L50 17L50 17L49 17L49 18L49 18L49 17V17L49 17L49 16L49 16L49 17L49 17L49 17L48 18L48 18L48 18L48 18L47 18L47 19L48 19L48 19L48 19L48 20L48 20L48 20L47 20L47 20L47 19L47 20L47 20L47 20L46 20L46 20L46 20L46 20L46 21L47 21L47 21L47 21L47 21L47 21L47 21L46 20L46 20L46 21L46 21L45 21L45 21L45 21L44 21L44 22L44 22L45 23L45 23L45 23L45 23L45 23L45 23L45 23L45 24L45 24L44 24L44 24L44 24L44 24L45 25L45 25L45 25L46 25L46 25L46 25L45 25L45 25L44 25L44 25L43 24L43 24L43 24L42 25L42 25L42 24L42 24L41 24L42 25L41 25L41 25L41 25L41 25L41 26L41 26L42 26L42 27L42 27L42 27L42 27L42 27L42 28L42 28L42 28L42 27L41 27L41 28L41 28L41 28L41 29L41 29L41 29L41 29L41 29L40 28L40 28L40 27L39 26L39 25L39 25L38 26L38 26L38 26L37 27L37 27L37 27L36 28L36 28L36 29L36 29L36 30L36 30L36 31L36 31L36 32L36 32L36 32L35 33L34 33L34 34L34 34L34 35L34 35L33 36L32 37L32 37L31 38L31 38L29 39L28 39L26 39L26 40L25 40L24 39L23 40L21 41L20 41L20 41L19 42L18 42L17 42L17 42L16 42L16 42L15 42L15 42L14 42L12 44L12 44L11 44L10 45L10 46L9 46L8 47L7 47L6 47L6 49L6 49L5 49L5 50L5 50L5 49L5 48L5 47L5 47L4 47L4 47L3 49L3 50L3 51L3 52L3 52L3 53L3 53L3 54L2 55L2 55L2 56L2 57L2 58L2 58L3 59L3 60L3 61L4 62L5 64L5 64L5 65L5 66L5 66L5 66L4 66L4 66L4 65L4 64L4 65L3 65L3 65L3 65L3 65L3 64L3 64L3 63L2 63L2 63L2 63L2 63L2 64L3 65L3 65L3 66L4 66L4 67L3 67L3 67L3 67L2 66L2 65L2 65L2 65L2 65L2 65L2 66L2 66L1 65L1 65L1 65L1 66L2 66L3 68L4 70L5 71L5 73L5 73L6 74L6 75L6 76L6 76L7 77L8 78L8 79L8 80L8 81L8 82L8 83L8 84L9 85L9 86L10 88L11 89L11 90L11 92L11 93L11 93L10 94L11 95L11 96L10 97L10 98L10 98L9 98L8 98L8 98L8 99L8 100L8 100L8 101L9 102L9 101L9 101L10 102L11 102L12 104L13 104L14 104L15 105L16 105L18 105L18 105L19 105L20 105L20 104L22 103L23 102L24 102L24 102L25 102L26 100L26 100L27 100L28 100L29 100L29 100L30 99L33 99L34 99L35 99L35 99L36 100L38 99L39 99L39 99L40 100L40 99L41 100L42 99L42 98L43 97L43 96L44 95L44 95L45 95L46 95L48 94L48 93L49 93L50 92L51 92L54 92L55 92L56 92L57 91L58 91L60 90L62 89L63 89L64 89L66 89L69 89L70 89L70 89L70 88L71 89L71 89L73 89L74 91L75 91L76 90L77 90L78 92L79 92L80 92L80 92L81 92L81 93L82 93L82 94L82 94L82 94L82 94L82 95L83 96L84 96L84 96L84 97L85 97L85 98L86 99L86 99L86 100L86 100L86 101L87 102L87 103L87 103L87 103L86 102L86 102L86 102L86 102L86 103L86 102L86 103L86 103L87 103L87 103L88 104L88 104L88 104L89 104L89 104L89 104L89 103L89 103L89 103L89 103L89 102L90 102L91 100L91 100L92 99L92 99L93 99L93 99L94 98L94 98L94 97L95 96L95 96L96 95L96 94L96 94L96 93L96 94L96 94L97 96L97 96L96 96L96 97L96 97L97 98L96 98L96 99L95 101L95 101L95 102L95 102L95 103L95 103L94 104L94 104L94 104L94 104L93 104L93 106L93 106L93 106H94L94 105L95 105L95 105L96 105L96 103L97 102L97 101L97 101L97 101L98 101L98 102L99 103L99 103L99 105L98 106L98 106L98 107L98 107L98 108L99 108L100 107L100 107L100 107L100 107L101 107L101 106L102 106L102 106L102 106L102 106L102 107L102 107L102 107L101 107L101 107L101 107L101 107L101 107L101 108L102 108L102 109L103 110L104 111L104 112L104 113L104 114L104 114L104 115L104 115L104 116L105 117L106 118L107 119L108 119L109 120L110 121L110 121L111 121L111 120L112 120L113 121L114 121L114 121L115 121L116 122L116 122L117 122L118 122L118 123L119 123L119 122L120 121L121 120L122 120L122 120L123 120L122 120L122 120L122 120L122 119L122 119L124 118L124 119L124 119L124 119L124 120L124 120L124 120L123 120L123 120L123 121L124 121L125 121L125 120L125 120L125 120L126 120L126 120L126 121L126 121L126 121L125 121L126 122L126 122L127 122L127 122L127 123L128 123L128 123L128 123L128 123L129 124L129 124L129 124L129 124L130 124L130 124L130 124L130 123L129 123L129 123L129 123L129 123L129 122L129 122L129 122H129L131 122L133 120L134 119L135 118L136 118L136 118L139 118L140 118L141 118L142 118L142 117L142 117L143 116L143 116L143 116L143 115L143 114L143 113L143 113L143 112L144 111L144 110L144 109L144 108L144 108L145 107L145 106L146 105H146L146 105L146 105L146 105L146 105L146 105L146 105L146 105L146 105L146 104L146 104L146 103L147 102L147 102L147 101L147 101L148 100L148 100L148 100L148 100L148 100L148 100L148 100L148 99L148 98L148 98L148 98L149 98L149 97L149 97L149 97L149 96L150 96L150 95L151 94L152 94L152 94L151 94L152 94H152L152 94L152 93L153 93L153 92L153 92L153 91L154 90L155 88L155 87L155 87L155 86L155 85L155 84L156 82L156 82L156 81L156 80L156 79L157 78L157 77L157 76L157 75L157 74ZM66 7L67 7L68 7L68 7L68 7L68 7L68 6L68 6L68 6L68 6L67 5L67 5H67L67 5L67 6L67 6L67 6L66 6L66 6L66 7L66 7L66 7ZM1 64L1 64L1 64L0 62L0 62L0 63L0 64L1 65L1 65L1 64L1 64ZM10 43L10 43L10 42L10 42L9 42L9 43L9 43L10 43ZM45 21L45 21L45 21L45 21L45 21L45 20L45 20L45 21L45 21L45 21L45 21ZM48 18L47 18L47 17L47 17L47 17L47 18L47 18L48 18ZM133 144L133 145L133 145L133 145L133 145L133 145L133 145H133L133 145L133 144ZM133 146L133 146L132 146L132 146L132 146L132 146L132 146L132 146L132 146L132 147L132 147L133 147L133 146L133 146L133 146ZM136 142L136 142L136 142L136 142L136 143L136 143L136 142L136 142L136 142L136 142ZM97 108L96 108L95 108L95 108L96 108L95 107L95 107L94 107L93 108L92 108L91 108L91 109L91 109L92 109L93 109L93 109L94 109L94 109L94 109L95 110L95 109L95 109L96 109L96 109L97 109L97 109L97 108L97 108L97 108ZM120 128L120 127L120 127L120 127L120 127L120 127L120 127L120 128L119 128L120 129L120 129L120 129L120 129L120 129L120 129L121 128L120 128L120 128ZM41 9L41 9L41 9L41 9L41 9Z" fill="var(--fill-0,#71B219)" stroke="var(--stroke-0,white)" mask="url(#path-1-inside-1_0_152)"/></g></svg>