<svg preserveAspectRatio="none" width="100%" height="100%" overflow="visible" style="display: block;" viewBox="0 0 0.656554 0.749792" fill="none" xmlns="http://www.w3.org/2000/svg">
<g id="AW">
<mask id="path-1-inside-1_0_194" fill="white">
<path d="M0.642806 0.635841L0.656554 0.749791L0.477997 0.688018L0.238998 0.444946L0 0.262308L0.059058 0.0659226L0.119499 0L0.358498 0.182639L0.59473 0.524573L0.642806 0.635841Z"/>
</mask>
<path d="M0.642806 0.635841L0.656554 0.749791L0.477997 0.688018L0.238998 0.444946L0 0.262308L0.059058 0.0659226L0.119499 0L0.358498 0.182639L0.59473 0.524573L0.642806 0.635841Z" fill="var(--fill-0, #71B219)"/>
<path d="M0.642806 0.635841L1.13921 0.575951L1.13053 0.504027L1.10179 0.437523L0.642806 0.635841ZM0.656554 0.749792L0.493081 1.22231L1.24873 1.48374L1.15295 0.689901L0.656554 0.749792ZM0.477997 0.688018L0.121469 1.03857L0.203692 1.1222L0.314523 1.16054L0.477997 0.688018ZM0.238998 0.444946L0.595526 0.0943927L0.570713 0.0691567L0.542593 0.0476675L0.238998 0.444946ZM0 0.262308L-0.478817 0.118315L-0.578431 0.44956L-0.303594 0.659586L0 0.262308ZM0.059058 0.0659226L-0.309485 -0.271976L-0.386809 -0.187641L-0.419759 -0.0780701L0.059058 0.0659226ZM0.119499 0L0.423093 -0.397279L0.0598806 -0.67484L-0.249044 -0.337899L0.119499 0ZM0.358498 0.182639L0.76987 -0.101566L0.724923 -0.166626L0.662092 -0.21464L0.358498 0.182639ZM0.59473 0.524573L1.05372 0.326255L1.03415 0.280962L1.0061 0.240368L0.59473 0.524573ZM0.642806 0.635841L0.146406 0.695732L0.160154 0.809682L0.656554 0.749792L1.15295 0.689901L1.13921 0.575951L0.642806 0.635841ZM0.656554 0.749792L0.820028 0.27727L0.64147 0.215496L0.477997 0.688018L0.314523 1.16054L0.493081 1.22231L0.656554 0.749792ZM0.477997 0.688018L0.834525 0.337464L0.595526 0.0943927L0.238998 0.444946L-0.117529 0.7955L0.121469 1.03857L0.477997 0.688018ZM0.238998 0.444946L0.542593 0.0476675L0.303594 -0.134971L0 0.262308L-0.303594 0.659586L-0.0645958 0.842225L0.238998 0.444946ZM0 0.262308L0.478817 0.4063L0.537875 0.209915L0.059058 0.0659226L-0.419759 -0.0780701L-0.478817 0.118315L0 0.262308ZM0.059058 0.0659226L0.427601 0.403822L0.488043 0.337899L0.119499 0L-0.249044 -0.337899L-0.309485 -0.271976L0.059058 0.0659226ZM0.119499 0L-0.184095 0.397279L0.0549034 0.579918L0.358498 0.182639L0.662092 -0.21464L0.423093 -0.397279L0.119499 0ZM0.358498 0.182639L-0.0528752 0.466844L0.183357 0.808778L0.59473 0.524573L1.0061 0.240368L0.76987 -0.101566L0.358498 0.182639ZM0.59473 0.524573L0.135742 0.722891L0.183818 0.834159L0.642806 0.635841L1.10179 0.437523L1.05372 0.326255L0.59473 0.524573Z" fill="var(--stroke-0, white)" mask="url(#path-1-inside-1_0_194)"/>
</g>
</svg>
