<svg preserveAspectRatio="none" width="100%" height="100%" overflow="visible" style="display: block;" viewBox="0 0 4.21785 3.04784" fill="none" xmlns="http://www.w3.org/2000/svg">
<path id="AX" d="M1.57617 0.616211L1.74805 0.665039L1.78027 0.674805H1.81445L1.93262 0.676758L2.05273 0.677734L2.08008 0.643555L2.29297 0.849609L2.33691 0.960938L2.37598 1.06348L2.47852 1.10352L2.57227 1.13965L2.46289 1.37207L2.37598 1.32129L2.27441 1.35059L2.07227 1.4082L2.02148 1.42285L1.98047 1.45703L1.8623 1.55566L1.79297 1.61328L1.77637 1.70215L1.73633 1.9209L1.73242 1.94434V1.96973L1.73535 2.19434L1.14648 2.25391L1.09277 2.21875L0.967773 1.76562L1.08691 1.73828L1.32812 1.68262L1.48438 1.64551L1.51562 1.48926L1.5918 1.12012L1.59473 1.10352L1.59668 1.08594L1.61328 0.826172L1.61719 0.759766L1.58789 0.700195L1.54102 0.605469L1.57617 0.616211ZM1.39648 0.445312L1.32227 0.399414L1.32031 0.395508L1.34277 0.351562L1.39648 0.445312Z" fill="var(--fill-0, #71B219)" stroke="var(--stroke-0, white)" stroke-width="0.5"/>
</svg>
