<svg preserveAspectRatio="none" width="100%" height="100%" overflow="visible" style="display: block;" viewBox="0 0 22 18" fill="none" xmlns="http://www.w3.org/2000/svg"><g id="AZ"><mask id="path-1-inside-1_0_258" fill="white"><path d="M15 0L15 0L16 1L16 3L17 3L17 4L17 4L17 4L18 6L18 6L19 6L19 7L20 7L20 7L21 7L21 7L21 7L21 8L22 8L21 8L20 8L19 8L19 8L18 9L18 9L18 10L18 12L18 12L18 13L18 13L18 13L17 13L17 14L17 14L17 15L17 14L17 14L16 14L16 14L16 15L16 15L16 16L16 17L16 17L15 18L15 18L14 17L14 16L14 16L14 16L13 16L13 16L13 16L12 15L12 15L13 15L13 15L13 15L13 15L14 15L14 14L14 14L14 14L13 14L13 14L13 13L13 13L13 13L14 13L14 13L14 12L13 12L12 11L12 11L12 11L11 12L10 12L10 12L9 13L9 13L9 14L8 14L8 14L7 15L7 15L7 15L7 14L7 14L6 14L6 14L6 14L7 14L7 14L7 14L7 13L6 13L6 13L6 13V12L6 12L7 12L7 12L7 12L6 12L6 12L5 11L5 11L4 11L4 11L4 10L4 10L3 10L3 10L3 10L3 10L4 10L4 10L4 9L4 9L5 9L5 8L4 8L3 8L3 7L2 6L2 6L2 6L3 6L3 5L3 5L3 5L3 5L2 5L2 4L2 4L1 4L1 4L1 4L1 4L2 4L2 4L2 4L1 4L1 3L1 3L2 2L2 2L2 2L4 3L4 3L4 3L4 3L4 4L5 4L5 4L5 4L6 4L6 4L6 4L6 4L7 4L7 4L7 3L7 3L7 3L7 2L6 2L6 2L6 2L6 1L6 1L6 1L6 1L6 1L6 1L6 1L6 0L6 0L6 0L7 0L7 0L7 0L7 0L7 0L8 0L8 1L8 1L9 1L9 2L9 2L9 2L9 2L10 3L10 3L11 3L11 3L12 4L12 4L12 3L13 2L13 2L14 2L14 2L14 1L14 1L15 0ZM3 6L3 6L3 6L3 6L3 6V7L3 7L3 6ZM1 4L1 4L1 4L1 4L1 4L1 4L1 4L1 4L1 4ZM5 15L4 15L3 15L3 14L2 14L2 14L2 14L2 14L1 13L1 13L1 13L1 12L0 12L0 11L0 11L0 11L0 11L1 11L1 11L1 11L2 11L2 12L2 12L2 12L2 12L2 12L3 12L3 12L4 12L4 12L4 12L4 12L4 12L4 13L4 13L4 13L5 13L5 14L5 14L5 15L5 15Z"/></mask><path d="M15 0L15 0L16 1L16 3L17 3L17 4L17 4L17 4L18 6L18 6L19 6L19 7L20 7L20 7L21 7L21 7L21 7L21 8L22 8L21 8L20 8L19 8L19 8L18 9L18 9L18 10L18 12L18 12L18 13L18 13L18 13L17 13L17 14L17 14L17 15L17 14L17 14L16 14L16 14L16 15L16 15L16 16L16 17L16 17L15 18L15 18L14 17L14 16L14 16L14 16L13 16L13 16L13 16L12 15L12 15L13 15L13 15L13 15L13 15L14 15L14 14L14 14L14 14L13 14L13 14L13 13L13 13L13 13L14 13L14 13L14 12L13 12L12 11L12 11L12 11L11 12L10 12L10 12L9 13L9 13L9 14L8 14L8 14L7 15L7 15L7 15L7 14L7 14L6 14L6 14L6 14L7 14L7 14L7 14L7 13L6 13L6 13L6 13V12L6 12L7 12L7 12L7 12L6 12L6 12L5 11L5 11L4 11L4 11L4 10L4 10L3 10L3 10L3 10L3 10L4 10L4 10L4 9L4 9L5 9L5 8L4 8L3 8L3 7L2 6L2 6L2 6L3 6L3 5L3 5L3 5L3 5L2 5L2 4L2 4L1 4L1 4L1 4L1 4L2 4L2 4L2 4L1 4L1 3L1 3L2 2L2 2L2 2L4 3L4 3L4 3L4 3L4 4L5 4L5 4L5 4L6 4L6 4L6 4L6 4L7 4L7 4L7 3L7 3L7 3L7 2L6 2L6 2L6 2L6 1L6 1L6 1L6 1L6 1L6 1L6 1L6 0L6 0L6 0L7 0L7 0L7 0L7 0L7 0L8 0L8 1L8 1L9 1L9 2L9 2L9 2L9 2L10 3L10 3L11 3L11 3L12 4L12 4L12 3L13 2L13 2L14 2L14 2L14 1L14 1L15 0ZM3 6L3 6L3 6L3 6L3 6V7L3 7L3 6ZM1 4L1 4L1 4L1 4L1 4L1 4L1 4L1 4L1 4ZM5 15L4 15L3 15L3 14L2 14L2 14L2 14L2 14L1 13L1 13L1 13L1 12L0 12L0 11L0 11L0 11L0 11L1 11L1 11L1 11L2 11L2 12L2 12L2 12L2 12L2 12L3 12L3 12L4 12L4 12L4 12L4 12L4 12L4 13L4 13L4 13L5 13L5 14L5 14L5 15L5 15Z" fill="var(--fill-0,#71B219)" stroke="var(--stroke-0,white)" mask="url(#path-1-inside-1_0_258)"/></g></svg>