<svg preserveAspectRatio="none" width="100%" height="100%" overflow="visible" style="display: block;" viewBox="0 0 21.6163 17.5257" fill="none" xmlns="http://www.w3.org/2000/svg">
<g id="AZ">
<mask id="path-1-inside-1_0_258" fill="white">
<path d="M14.691 0.241406L15.046 0.539072L15.6609 1.34559L16.5372 2.65417L16.7518 3.0245L16.8935 3.45248L17.0159 3.96957L17.2167 4.42635L18.1055 5.57444L18.4893 5.99827L19.1152 6.54421L19.3381 6.66627L19.6297 6.70056L20.1676 6.70194L20.6629 6.91593L20.9078 7.06545L21.1609 7.28216L21.3879 7.53319L21.6163 8.19981L20.7565 7.98034L19.8898 8.01462L19.4014 8.15728L18.9254 8.35344L18.47 8.62913L18.1853 9.16544L17.9459 10.4027L17.5951 11.5563L17.6075 12.0885L17.7602 12.6001L17.7423 12.8415L17.5827 12.9444L17.3819 13.1611L17.1136 14.2118L16.9801 14.4217L16.8082 14.552L16.7614 14.4285L16.7724 14.1528L16.3941 13.91L16.1946 14.183L16.0557 14.7605L15.7792 15.3654L15.7654 15.4806L15.8342 17.3447L15.7242 17.3364L14.9331 17.5257L14.768 17.4654L14.0912 16.6067L13.9509 16.5121L13.6592 16.4737L13.4872 16.3324L13.3484 16.102L13.2685 15.9305L12.5683 15.4641L12.4651 15.2927L12.45 15.1418L12.5532 15.006L12.6715 14.8922L13.014 14.7756L13.413 14.6755L13.5409 14.6027L13.6055 14.4779L13.6014 14.2777L13.5368 14.0801L12.9631 13.7221L12.8998 13.5671L12.882 13.3778L12.9136 13.179L13.003 13.024L13.4708 12.8127L13.7212 12.5933L13.5657 12.3491L13.0608 11.7908L12.461 11.1763L12.0607 11.1708L11.5999 11.3519L10.8625 11.8759L10.4552 12.0994L9.92289 12.4698L9.3437 12.8813L8.86904 13.3175L8.57331 13.6782L8.04777 13.8346L7.7795 14.1364L6.89769 15.0389L6.65008 15.028L6.63497 14.5794L6.64731 14.2242L6.59088 14.0198L6.30481 13.7386L6.30061 13.6179L6.37769 13.5424L6.59643 13.5877L6.87847 13.5712L7.01323 13.4601L6.71196 13.0898L6.44369 12.8415L6.21673 12.6742L6.16585 12.574V12.5027L6.21396 12.4177L6.60197 12.2133L6.64042 12.0254L6.61431 11.8155L5.998 11.5055L5.53711 11.6193L5.12308 11.2709L4.85758 11.0021L4.526 10.7127L4.23027 10.5536L3.94546 10.1901L3.45158 9.81565L3.13519 9.70865L3.13931 9.65101L3.19708 9.58244L3.32915 9.52484L4.20962 9.53991L4.31693 9.47273L4.37192 9.31086L4.49157 9.07217L4.63197 8.72105L4.62097 8.42477L3.73639 7.94606L3.09531 7.50435L2.65096 6.92279L2.34969 6.3892L2.36069 6.2095L2.44735 6.03942L3.13519 5.54702L3.18196 5.41943L3.16685 5.33304L2.92058 5.08062L2.61242 4.82L2.51611 4.62799L2.32215 4.53058L1.95346 4.52376L1.30693 4.20278L1.16931 4.17121L1.13908 4.10813L1.17073 4.04367L1.63154 3.91336L1.62465 3.80636L1.48434 3.66509L1.2243 3.56219L0.985001 3.30572L0.902463 3.07528L1.73473 2.40041L1.981 2.26462L2.52577 2.38945L3.65796 2.83798L3.58088 3.08625L3.69508 3.22614L3.95512 3.41543L4.45446 3.60749L4.87681 3.70623L5.09008 3.62117L5.41469 3.54985L5.83704 3.77208L6.22639 4.05325L6.42035 4.16711L6.52489 4.20139L6.8207 4.10813L7.17562 3.746L7.31593 3.30844L7.35447 3.09721L7.14808 2.80641L6.72162 2.49092L6.24427 2.21384L5.93746 1.96834L5.74073 1.48414L5.54266 1.43065L5.49312 1.36752L5.46012 1.20155L5.46835 0.971108L5.53577 0.792827L5.72973 0.716014L5.92512 0.688554L6.1012 0.518477L6.3227 0.185146L6.41624 0L6.8317 0.105613L6.88804 0.404618L6.96235 0.467743L7.13431 0.432078L7.42046 0.307252L7.64885 0.403278L7.94323 0.758501L8.34904 1.13298L8.5692 1.38535L8.65585 1.55819L8.86358 1.72693L9.16762 1.92443L9.40969 2.23444L9.62574 2.95317L9.84447 3.11915L10.6272 3.39212L10.9024 3.44834L11.6714 3.54436L11.9424 3.4758L12.3386 2.85715L12.6949 2.21933L13.0278 2.0863L13.629 1.77766L13.9894 1.48548L14.1407 1.17003L14.4805 0.574736L14.691 0.241406ZM3.02923 6.50578L3.06777 6.33847L2.95912 6.263L2.84492 6.25889L2.74584 6.34257V6.55108L2.88346 6.58808L3.02923 6.50578ZM0.987688 4.42225L0.903806 4.47985L0.775843 4.42225L0.737386 4.29332L0.746958 4.15753L0.873579 4.12596L0.976688 4.16435L1.00557 4.28645L0.987688 4.42225ZM5.19873 15.1747L4.45446 15.0266L3.11588 14.707L2.74727 14.5424L2.39915 14.0993L2.19142 13.8853L1.88469 13.611L1.63154 13.5068L1.44035 13.3148L1.33161 13.0308L1.17073 12.7757L0.895578 12.4753L0.269614 11.4534L0.188419 11.3464L0.0577684 11.1763L0 11.0817L0.381036 11.0035L1.01523 10.7744L1.18862 10.8855L1.37427 11.1173L1.4678 11.3162L1.48434 11.6839L1.56 11.7428L1.86958 11.6193L2.00846 11.7675L2.2465 11.9444L2.65919 12.12L3.2535 11.8443L3.54923 11.773L3.79273 11.7785L3.92481 11.8649L3.97158 12.1502L3.92346 12.5027L3.8547 12.6961L3.97989 12.836L4.46689 13.1748L4.66908 13.3628L4.57143 13.6879L4.93458 14.482L5.057 14.7907L5.19873 15.1747Z"/>
</mask>
<path d="M14.691 0.241406L15.046 0.539072L15.6609 1.34559L16.5372 2.65417L16.7518 3.0245L16.8935 3.45248L17.0159 3.96957L17.2167 4.42635L18.1055 5.57444L18.4893 5.99827L19.1152 6.54421L19.3381 6.66627L19.6297 6.70056L20.1676 6.70194L20.6629 6.91593L20.9078 7.06545L21.1609 7.28216L21.3879 7.53319L21.6163 8.19981L20.7565 7.98034L19.8898 8.01462L19.4014 8.15728L18.9254 8.35344L18.47 8.62913L18.1853 9.16544L17.9459 10.4027L17.5951 11.5563L17.6075 12.0885L17.7602 12.6001L17.7423 12.8415L17.5827 12.9444L17.3819 13.1611L17.1136 14.2118L16.9801 14.4217L16.8082 14.552L16.7614 14.4285L16.7724 14.1528L16.3941 13.91L16.1946 14.183L16.0557 14.7605L15.7792 15.3654L15.7654 15.4806L15.8342 17.3447L15.7242 17.3364L14.9331 17.5257L14.768 17.4654L14.0912 16.6067L13.9509 16.5121L13.6592 16.4737L13.4872 16.3324L13.3484 16.102L13.2685 15.9305L12.5683 15.4641L12.4651 15.2927L12.45 15.1418L12.5532 15.006L12.6715 14.8922L13.014 14.7756L13.413 14.6755L13.5409 14.6027L13.6055 14.4779L13.6014 14.2777L13.5368 14.0801L12.9631 13.7221L12.8998 13.5671L12.882 13.3778L12.9136 13.179L13.003 13.024L13.4708 12.8127L13.7212 12.5933L13.5657 12.3491L13.0608 11.7908L12.461 11.1763L12.0607 11.1708L11.5999 11.3519L10.8625 11.8759L10.4552 12.0994L9.92289 12.4698L9.3437 12.8813L8.86904 13.3175L8.57331 13.6782L8.04777 13.8346L7.7795 14.1364L6.89769 15.0389L6.65008 15.028L6.63497 14.5794L6.64731 14.2242L6.59088 14.0198L6.30481 13.7386L6.30061 13.6179L6.37769 13.5424L6.59643 13.5877L6.87847 13.5712L7.01323 13.4601L6.71196 13.0898L6.44369 12.8415L6.21673 12.6742L6.16585 12.574V12.5027L6.21396 12.4177L6.60197 12.2133L6.64042 12.0254L6.61431 11.8155L5.998 11.5055L5.53711 11.6193L5.12308 11.2709L4.85758 11.0021L4.526 10.7127L4.23027 10.5536L3.94546 10.1901L3.45158 9.81565L3.13519 9.70865L3.13931 9.65101L3.19708 9.58244L3.32915 9.52484L4.20962 9.53991L4.31693 9.47273L4.37192 9.31086L4.49157 9.07217L4.63197 8.72105L4.62097 8.42477L3.73639 7.94606L3.09531 7.50435L2.65096 6.92279L2.34969 6.3892L2.36069 6.2095L2.44735 6.03942L3.13519 5.54702L3.18196 5.41943L3.16685 5.33304L2.92058 5.08062L2.61242 4.82L2.51611 4.62799L2.32215 4.53058L1.95346 4.52376L1.30693 4.20278L1.16931 4.17121L1.13908 4.10813L1.17073 4.04367L1.63154 3.91336L1.62465 3.80636L1.48434 3.66509L1.2243 3.56219L0.985001 3.30572L0.902463 3.07528L1.73473 2.40041L1.981 2.26462L2.52577 2.38945L3.65796 2.83798L3.58088 3.08625L3.69508 3.22614L3.95512 3.41543L4.45446 3.60749L4.87681 3.70623L5.09008 3.62117L5.41469 3.54985L5.83704 3.77208L6.22639 4.05325L6.42035 4.16711L6.52489 4.20139L6.8207 4.10813L7.17562 3.746L7.31593 3.30844L7.35447 3.09721L7.14808 2.80641L6.72162 2.49092L6.24427 2.21384L5.93746 1.96834L5.74073 1.48414L5.54266 1.43065L5.49312 1.36752L5.46012 1.20155L5.46835 0.971108L5.53577 0.792827L5.72973 0.716014L5.92512 0.688554L6.1012 0.518477L6.3227 0.185146L6.41624 0L6.8317 0.105613L6.88804 0.404618L6.96235 0.467743L7.13431 0.432078L7.42046 0.307252L7.64885 0.403278L7.94323 0.758501L8.34904 1.13298L8.5692 1.38535L8.65585 1.55819L8.86358 1.72693L9.16762 1.92443L9.40969 2.23444L9.62574 2.95317L9.84447 3.11915L10.6272 3.39212L10.9024 3.44834L11.6714 3.54436L11.9424 3.4758L12.3386 2.85715L12.6949 2.21933L13.0278 2.0863L13.629 1.77766L13.9894 1.48548L14.1407 1.17003L14.4805 0.574736L14.691 0.241406ZM3.02923 6.50578L3.06777 6.33847L2.95912 6.263L2.84492 6.25889L2.74584 6.34257V6.55108L2.88346 6.58808L3.02923 6.50578ZM0.987688 4.42225L0.903806 4.47985L0.775843 4.42225L0.737386 4.29332L0.746958 4.15753L0.873579 4.12596L0.976688 4.16435L1.00557 4.28645L0.987688 4.42225ZM5.19873 15.1747L4.45446 15.0266L3.11588 14.707L2.74727 14.5424L2.39915 14.0993L2.19142 13.8853L1.88469 13.611L1.63154 13.5068L1.44035 13.3148L1.33161 13.0308L1.17073 12.7757L0.895578 12.4753L0.269614 11.4534L0.188419 11.3464L0.0577684 11.1763L0 11.0817L0.381036 11.0035L1.01523 10.7744L1.18862 10.8855L1.37427 11.1173L1.4678 11.3162L1.48434 11.6839L1.56 11.7428L1.86958 11.6193L2.00846 11.7675L2.2465 11.9444L2.65919 12.12L3.2535 11.8443L3.54923 11.773L3.79273 11.7785L3.92481 11.8649L3.97158 12.1502L3.92346 12.5027L3.8547 12.6961L3.97989 12.836L4.46689 13.1748L4.66908 13.3628L4.57143 13.6879L4.93458 14.482L5.057 14.7907L5.19873 15.1747Z" fill="var(--fill-0, #71B219)" stroke="var(--stroke-0, white)" mask="url(#path-1-inside-1_0_258)"/>
</g>
</svg>
