<svg preserveAspectRatio="none" width="100%" height="100%" overflow="visible" style="display: block;" viewBox="0 0 15 14" fill="none" xmlns="http://www.w3.org/2000/svg"><g id="BA"><mask id="path-1-inside-1_0_229" fill="white"><path d="M5 0L5 1L6 1L6 1L6 1L7 1L7 1L7 1L7 1L8 1L8 1L8 1L8 1L9 1L9 1L10 1L10 1L10 1L10 1L11 1L11 1L12 1L12 2L12 2L12 2L12 2L12 2L13 2L13 2L13 2L14 2L14 2L14 2L14 2L14 3L14 3L14 4L13 4L13 4L13 5L13 5L13 5L13 5L14 5L14 6L14 6L15 6L15 7V7L15 7L14 7L14 7L14 7L14 7L14 7L14 7L14 8L14 8L14 9L14 9L14 9L14 9L14 9L14 9L14 9L13 9L13 9L13 9L13 9L13 9L12 9L12 9L12 10L12 10L13 10L13 11L12 11L12 10L12 10L12 10L12 11L11 11L11 11L11 11L11 12L11 12L11 12L10 12L10 12L10 13L10 13L11 14L11 14L11 14L11 14L10 14L10 14L10 14L10 14L9 14L9 14L8 13L8 13L8 13L8 13L8 13L7 12L7 12L7 12L7 12L7 12L6 11L6 11L6 10L6 10L6 10L5 10L4 9L4 8L4 8L3 7L3 7L2 7L2 6L2 6L2 5L2 4L1 4L1 4L1 3L0 3L0 2L0 2L0 0L0 0L1 0L1 0L1 0L2 1L2 1L2 2L2 1L3 1L3 0L4 0L5 0Z"/></mask><path d="M5 0L5 1L6 1L6 1L6 1L7 1L7 1L7 1L7 1L8 1L8 1L8 1L8 1L9 1L9 1L10 1L10 1L10 1L10 1L11 1L11 1L12 1L12 2L12 2L12 2L12 2L12 2L13 2L13 2L13 2L14 2L14 2L14 2L14 2L14 3L14 3L14 4L13 4L13 4L13 5L13 5L13 5L13 5L14 5L14 6L14 6L15 6L15 7V7L15 7L14 7L14 7L14 7L14 7L14 7L14 7L14 8L14 8L14 9L14 9L14 9L14 9L14 9L14 9L14 9L13 9L13 9L13 9L13 9L13 9L12 9L12 9L12 10L12 10L13 10L13 11L12 11L12 10L12 10L12 10L12 11L11 11L11 11L11 11L11 12L11 12L11 12L10 12L10 12L10 13L10 13L11 14L11 14L11 14L11 14L10 14L10 14L10 14L10 14L9 14L9 14L8 13L8 13L8 13L8 13L8 13L7 12L7 12L7 12L7 12L7 12L6 11L6 11L6 10L6 10L6 10L5 10L4 9L4 8L4 8L3 7L3 7L2 7L2 6L2 6L2 5L2 4L1 4L1 4L1 3L0 3L0 2L0 2L0 0L0 0L1 0L1 0L1 0L2 1L2 1L2 2L2 1L3 1L3 0L4 0L5 0Z" fill="var(--fill-0,#71B219)" stroke="var(--stroke-0,white)" mask="url(#path-1-inside-1_0_229)"/></g></svg>