<svg preserveAspectRatio="none" width="100%" height="100%" overflow="visible" style="display: block;" viewBox="0 0 14.8534 14.4724" fill="none" xmlns="http://www.w3.org/2000/svg">
<g id="BA">
<mask id="path-1-inside-1_0_229" fill="white">
<path d="M4.56454 0L5.36247 0.570634L5.69128 0.655652L5.87692 0.577457L6.12874 0.613122L6.68996 0.780478L6.81793 0.850426L6.98712 0.838077L7.40124 0.615885L7.54289 0.643303L8.0162 1.07952L8.25416 1.08501L8.54032 0.897058L8.72462 0.733846L9.26939 0.855909L9.58031 0.781859L9.83893 0.774994L10.1196 0.849086L10.3755 0.950555L10.6245 1.03833L11.2972 1.08363L11.6191 1.3607L11.7484 1.62818L11.7512 1.79139L11.7828 1.96562L11.9671 2.13707L12.373 2.23444L12.6275 2.21389L12.7623 2.20154L13.1076 2.04791L13.5148 1.96834L13.8065 2.06026L13.9454 2.14942L13.977 2.27149L13.8904 2.6926L13.7266 3.14523L13.4611 3.61573L13.1833 4.05878L13.1117 4.29194L13.0911 4.66503L13.0567 4.95722L13.0952 5.11633L13.1861 5.26581L13.4928 5.38381L13.9082 5.67733L14.2604 6.05863L14.7131 6.49071L14.8534 6.6512V6.82404L14.7213 6.95159L14.3347 7.00098L13.933 6.96256L13.7789 6.91869L13.6345 6.9708L13.5451 7.06955L13.5932 7.18617L14.0045 7.71013L14.4847 8.46043L14.5108 8.78279L14.453 9.03517L14.3416 9.21073L14.1435 9.18055L13.9908 9.04341L13.761 9.053L13.5822 9.09138L13.3497 9.36297L13.2342 9.35066L13.0347 9.39181L12.9095 9.44531L12.7101 9.36573L12.4995 9.31362L12.4088 9.3973L12.3688 9.55641L12.4982 9.84306L12.7417 10.2916L12.7032 10.6345L12.5174 10.6716L12.3468 10.3862L12.1969 10.3396L12.0249 10.3506L11.6315 10.6812L11.3412 10.9596L11.2752 11.153L11.1706 11.3643L11.139 11.5179L11.1459 12.0268L10.6245 12.1077L10.5158 12.1831L10.4525 12.3368L10.4951 12.9883L10.5378 13.3381L10.8364 13.8758L10.8474 14.0458L10.8047 14.1583L10.5914 14.3709L10.491 14.4477L10.4237 14.4724L10.077 14.3325L9.91189 14.2653L9.21716 13.7907L8.91035 13.526L8.42478 13.1803L8.1262 12.9828L7.97489 12.6838L7.7355 12.6152L7.45489 12.7112L7.13708 12.4945L7.3627 12.3834L7.41769 12.2764L7.38881 12.1365L7.28981 11.9472L6.43135 11.1269L6.009 10.5646L5.94158 10.3629L5.93478 9.82523L5.8357 9.6963L5.20428 9.45079L4.49989 8.74985L3.77073 8.05991L3.67173 7.86786L3.2975 7.34528L2.83947 6.86929L2.47489 6.5648L2.17631 6.21912L1.84481 5.73355L1.67285 4.9997L1.52011 4.34682L1.41692 4.09306L1.2065 4.00252L0.554425 3.2248L0 2.77213L0.00545777 2.28245L0.0963086 1.46359L0.199502 0.532207L0.332924 0.401897L0.58608 0.331949L0.874922 0.358028L1.12665 0.474608L1.62465 1.11243L1.90946 1.3607L2.15019 1.45672L2.42669 1.18786L2.76793 0.624131L3.06643 0.326465L4.07066 0.434841L4.56454 0Z"/>
</mask>
<path d="M4.56454 0L5.36247 0.570634L5.69128 0.655652L5.87692 0.577457L6.12874 0.613122L6.68996 0.780478L6.81793 0.850426L6.98712 0.838077L7.40124 0.615885L7.54289 0.643303L8.0162 1.07952L8.25416 1.08501L8.54032 0.897058L8.72462 0.733846L9.26939 0.855909L9.58031 0.781859L9.83893 0.774994L10.1196 0.849086L10.3755 0.950555L10.6245 1.03833L11.2972 1.08363L11.6191 1.3607L11.7484 1.62818L11.7512 1.79139L11.7828 1.96562L11.9671 2.13707L12.373 2.23444L12.6275 2.21389L12.7623 2.20154L13.1076 2.04791L13.5148 1.96834L13.8065 2.06026L13.9454 2.14942L13.977 2.27149L13.8904 2.6926L13.7266 3.14523L13.4611 3.61573L13.1833 4.05878L13.1117 4.29194L13.0911 4.66503L13.0567 4.95722L13.0952 5.11633L13.1861 5.26581L13.4928 5.38381L13.9082 5.67733L14.2604 6.05863L14.7131 6.49071L14.8534 6.6512V6.82404L14.7213 6.95159L14.3347 7.00098L13.933 6.96256L13.7789 6.91869L13.6345 6.9708L13.5451 7.06955L13.5932 7.18617L14.0045 7.71013L14.4847 8.46043L14.5108 8.78279L14.453 9.03517L14.3416 9.21073L14.1435 9.18055L13.9908 9.04341L13.761 9.053L13.5822 9.09138L13.3497 9.36297L13.2342 9.35066L13.0347 9.39181L12.9095 9.44531L12.7101 9.36573L12.4995 9.31362L12.4088 9.3973L12.3688 9.55641L12.4982 9.84306L12.7417 10.2916L12.7032 10.6345L12.5174 10.6716L12.3468 10.3862L12.1969 10.3396L12.0249 10.3506L11.6315 10.6812L11.3412 10.9596L11.2752 11.153L11.1706 11.3643L11.139 11.5179L11.1459 12.0268L10.6245 12.1077L10.5158 12.1831L10.4525 12.3368L10.4951 12.9883L10.5378 13.3381L10.8364 13.8758L10.8474 14.0458L10.8047 14.1583L10.5914 14.3709L10.491 14.4477L10.4237 14.4724L10.077 14.3325L9.91189 14.2653L9.21716 13.7907L8.91035 13.526L8.42478 13.1803L8.1262 12.9828L7.97489 12.6838L7.7355 12.6152L7.45489 12.7112L7.13708 12.4945L7.3627 12.3834L7.41769 12.2764L7.38881 12.1365L7.28981 11.9472L6.43135 11.1269L6.009 10.5646L5.94158 10.3629L5.93478 9.82523L5.8357 9.6963L5.20428 9.45079L4.49989 8.74985L3.77073 8.05991L3.67173 7.86786L3.2975 7.34528L2.83947 6.86929L2.47489 6.5648L2.17631 6.21912L1.84481 5.73355L1.67285 4.9997L1.52011 4.34682L1.41692 4.09306L1.2065 4.00252L0.554425 3.2248L0 2.77213L0.00545777 2.28245L0.0963086 1.46359L0.199502 0.532207L0.332924 0.401897L0.58608 0.331949L0.874922 0.358028L1.12665 0.474608L1.62465 1.11243L1.90946 1.3607L2.15019 1.45672L2.42669 1.18786L2.76793 0.624131L3.06643 0.326465L4.07066 0.434841L4.56454 0Z" fill="var(--fill-0, #71B219)" stroke="var(--stroke-0, white)" mask="url(#path-1-inside-1_0_229)"/>
</g>
</svg>
