<svg preserveAspectRatio="none" width="100%" height="100%" overflow="visible" style="display: block;" viewBox="0 0 17.7905 24.1701" fill="none" xmlns="http://www.w3.org/2000/svg">
<g id="BD">
<mask id="path-1-inside-1_0_249" fill="white">
<path d="M17.5717 19.2856L17.602 19.442L17.6075 20.8082L17.6419 21.3911L17.7657 21.8712L17.7905 22.0536L17.6681 22.2018L17.547 22.2306L17.4328 21.9988L17.1742 21.8218L16.7917 21.6325L16.6294 21.5064L16.4327 21.5571L16.1562 21.8438L16.0461 22.1099L16.0943 22.483L16.1809 22.8506L16.3736 23.0605L16.3887 23.2923L16.4574 23.5927L16.5565 23.867L16.6033 24.1646L16.54 24.1701L16.3102 23.7888L16.1039 23.376L15.5687 22.5941L15.394 21.1922L15.383 20.4982L15.0157 19.6807L14.7722 18.5477L14.6745 18.2528L14.8025 17.8851L14.8245 17.748L14.7557 17.7782L14.5686 17.9674L14.3251 17.5148L14.1655 17.1088L13.5354 16.268L13.3525 15.8963L13.3442 15.5327L13.0719 15.8976L12.7018 16.1541L12.3248 16.5396L12.0745 16.6561L11.2807 16.7275L10.8212 16.2117L10.1623 14.9484L10.0756 14.6631L10.1623 13.9183L10.0054 13.2119L10.0082 12.8402L9.96144 12.5905L9.84313 12.6454L9.7977 12.8169L9.82382 13.0788L9.7757 13.2983L9.20616 13.2558L8.66962 13.1556L9.14151 13.5274L9.64917 13.6138L9.91055 13.9458L9.94212 14.205L9.92567 14.4971L9.66705 14.7015L9.42901 14.8305L9.47166 15.1103L9.76059 15.4504L9.41112 15.5465L9.31624 15.7687L9.30793 16.0855L9.48401 16.3653L9.5542 16.5725L9.51155 16.7631L9.68217 16.9675L9.92978 17.3968L10.0095 17.7013L9.90635 18.1307L9.7647 18.298L9.53766 18.4599L9.00389 19.0003L8.74251 19.6148L8.52109 19.9015L8.24316 19.955L8.13585 19.8288L7.90612 19.6642L7.90058 19.3638L7.97078 19.1265L8.43989 18.5518L8.18405 18.6286L7.89512 18.7932L7.45489 19.1046L7.31459 18.7191L7.22239 18.3625L7.22105 17.925L7.57454 17.2706L7.17428 17.5971L7.0642 18.0045L7.11374 18.4846L7.06143 18.8247L6.90601 19.2678L6.69274 19.5339L6.34881 19.7053L6.19751 19.9673L5.96643 20.1594L5.95955 19.7753L5.88524 19.2678L5.6362 18.0621L5.58254 18.3213L5.71193 19.0689L5.70362 19.5545L5.5152 19.9385L5.13685 20.35L4.84658 20.4077L4.67596 20.3445L4.41735 20.0894L4.13397 19.7246L4.0872 19.1375L3.97023 18.8151L3.98812 18.4297L3.96478 18.0648L3.66074 17.0868L3.464 16.5848L3.48877 16.423L3.475 16.3544L3.38424 15.707L3.25762 15.3106L3.19439 14.8881L3.49432 14.2804L3.37324 14.1817L3.02789 14.1007L2.70739 13.9951L2.62897 13.8374L2.77204 13.2379L2.60554 13.0034L2.36624 12.7661L2.29058 12.6715L2.21073 12.548L2.10074 12.2462L2.31393 11.6111L2.61242 10.8732L2.66608 10.592L2.71562 10.1037L2.74316 9.91577L2.70462 9.73063L2.38958 9.51664L1.83515 9.4302L1.44312 9.25054L1.21473 8.97895L1.01943 8.87057L0.778698 8.95149L0.471887 8.84588L0.214616 8.57567L0 8.24782L0.0275407 8.0942L0.0839657 7.88984L0.488344 7.03941L0.638307 7.01333L0.989116 7.17655H1.11985L1.34958 6.84049L1.6715 5.88173L2.12542 5.88446L2.52577 5.91464L2.79539 5.96403L3.06366 5.93385L3.3457 5.85704L3.49843 5.73631L3.58231 5.58269L3.55343 5.44966L3.20816 5.26857L3.07465 5.13278L2.97843 4.74733L2.87801 4.60333L2.19973 4.58274L1.84758 4.4058L1.65362 4.24669L1.3097 3.72135L0.883235 3.3318L0.476001 3.23987L0.319154 3.11371L0.233844 2.91345L0.282041 2.62403L0.404463 2.36065L0.489772 2.06713L0.814467 1.67892L1.1955 1.34014L1.36604 1.10694L1.60685 0.861435L1.63574 0.726981L1.59442 0.573355L1.39912 0.426594L1.26293 0.379962L1.24093 0.285317L1.33447 0.0315624L1.52011 0L1.90669 0.230439L2.30016 0.602155L2.53266 0.934104L2.54231 1.1961L2.69362 1.23863L2.84635 1.24822L3.1022 1.36346L3.36635 1.32918L3.53689 1.39364L3.65108 1.37033L3.69373 1.21942L3.56585 0.997228L3.47223 0.839458L3.57954 0.680349L3.70205 0.648828L3.83824 0.688595L4.02389 0.831254L4.16008 1.12339L4.18628 1.57745L4.48755 1.98755L4.88512 2.27835L5.19605 2.41276L5.5702 2.50879L5.8907 2.41691L6.05031 2.13159L5.97743 1.87507L6.02832 1.64602L6.15628 1.51981L6.35712 1.52805L6.50566 1.7091L6.94178 2.68849L6.85235 3.12191L6.95001 4.30977L6.83993 5.09163L6.85781 5.26037L6.90878 5.39068L6.98301 5.44417L7.11097 5.44279L7.64197 5.58955L8.08908 5.75276L8.59397 5.90091L9.32313 6.01615L9.77016 5.9791L9.99309 5.975L10.4457 6.00928L11.6343 5.94754L12.6179 5.93109L13.0182 6.04357L13.3387 6.08333L14.4338 6.00518L15.5399 5.96813L16.1383 6.2164L16.7904 6.62102L17.1576 6.92145L17.2237 7.09291L17.1838 7.23967L17.0614 7.32059L16.8358 7.32335L16.3199 7.12719L16.2318 7.18479L16.2415 7.58531L16.2249 7.64843L16.1149 8.0078L15.804 8.8157L15.7435 9.17644L15.6774 9.26837L15.5963 9.3191L15.3528 9.33283L15.1615 9.39181L15.0817 9.5235L14.9579 9.79509L14.8712 10.0694L14.7529 10.1545L14.4682 10.0063L14.2907 10.0296L14.0679 10.0927L13.845 10.2491L13.6923 10.4439L13.519 10.5097L13.0017 10.4713L12.904 10.4988L12.838 10.6373L12.7857 10.8115L12.3827 11.223L12.2299 11.8828L12.1061 12.3107L12.1267 12.6427L12.4666 13.5082L12.7045 14.6302L12.7954 14.7441L12.8751 14.7797L12.9109 14.7536L12.9027 14.5218L12.9178 14.2407L13.0292 14.1748L13.1723 14.2324L13.3085 14.4766L13.4612 14.9237L13.6249 15.0993L13.8808 15.1487L14.1711 15.0431L14.387 14.8414L14.4751 14.622L14.4131 14.1913L14.3994 13.8689L14.5383 13.5617L15.0363 13.1035L15.1079 12.9623L15.0762 12.5713L15.0776 12.2037L15.2661 12.179L15.5206 12.238L15.8398 12.0583L15.9374 12.0542L16.0722 12.2476L16.2992 12.2147L16.4671 13.013L16.6391 13.7167L16.6404 14.0445L16.6693 14.7632L16.7477 15.3489L16.8701 15.482L17.0132 15.7947L17.1453 16.1582L17.2485 16.3612L17.3186 17.0238L17.4053 17.5011L17.5194 18.999L17.5717 19.2856ZM10.1086 15.2063L10.1774 15.3846L9.96278 15.2776L9.80182 15.1542L9.70282 14.9896L9.87058 14.9032L10.1086 15.2063ZM10.6327 18.8261L9.96144 18.9715L9.61886 18.9262L10.2586 17.8413L10.2366 17.3557L10.1375 16.9593L9.81282 16.6411L9.79493 16.4134L9.64917 16.102L9.57343 15.7371L9.93389 15.6205L10.2269 15.829L10.2682 15.9443L10.3315 16.2419L10.4759 16.5519L10.9822 17.1897L10.9725 17.5807L10.8336 18.534L10.6327 18.8261ZM13.6401 17.6163L13.4612 17.7384L13.2934 17.6328L13.0787 17.2295L13.1846 16.7192L13.2521 16.6466L13.3594 16.8125L13.5093 17.1678L13.607 17.438L13.6401 17.6163ZM12.0731 18.4722L11.6645 18.7616L11.7979 17.0471L12.1034 17.6863L12.1804 18.0278L12.0731 18.4722ZM14.8644 19.8878L14.7241 20.2252L14.6553 19.9797L14.7144 19.6683L14.7749 19.4969L14.8148 19.4982L14.8974 19.6752L14.8644 19.8878ZM15.1561 21.2224L14.9236 21.2416L14.8094 21.1195L14.863 20.9481L14.7997 20.3953L14.9964 20.3377L15.0969 20.3404L15.1533 20.5036L15.2056 20.8027L15.1561 21.2224Z"/>
</mask>
<path d="M17.5717 19.2856L17.602 19.442L17.6075 20.8082L17.6419 21.3911L17.7657 21.8712L17.7905 22.0536L17.6681 22.2018L17.547 22.2306L17.4328 21.9988L17.1742 21.8218L16.7917 21.6325L16.6294 21.5064L16.4327 21.5571L16.1562 21.8438L16.0461 22.1099L16.0943 22.483L16.1809 22.8506L16.3736 23.0605L16.3887 23.2923L16.4574 23.5927L16.5565 23.867L16.6033 24.1646L16.54 24.1701L16.3102 23.7888L16.1039 23.376L15.5687 22.5941L15.394 21.1922L15.383 20.4982L15.0157 19.6807L14.7722 18.5477L14.6745 18.2528L14.8025 17.8851L14.8245 17.748L14.7557 17.7782L14.5686 17.9674L14.3251 17.5148L14.1655 17.1088L13.5354 16.268L13.3525 15.8963L13.3442 15.5327L13.0719 15.8976L12.7018 16.1541L12.3248 16.5396L12.0745 16.6561L11.2807 16.7275L10.8212 16.2117L10.1623 14.9484L10.0756 14.6631L10.1623 13.9183L10.0054 13.2119L10.0082 12.8402L9.96144 12.5905L9.84313 12.6454L9.7977 12.8169L9.82382 13.0788L9.7757 13.2983L9.20616 13.2558L8.66962 13.1556L9.14151 13.5274L9.64917 13.6138L9.91055 13.9458L9.94212 14.205L9.92567 14.4971L9.66705 14.7015L9.42901 14.8305L9.47166 15.1103L9.76059 15.4504L9.41112 15.5465L9.31624 15.7687L9.30793 16.0855L9.48401 16.3653L9.5542 16.5725L9.51155 16.7631L9.68217 16.9675L9.92978 17.3968L10.0095 17.7013L9.90635 18.1307L9.7647 18.298L9.53766 18.4599L9.00389 19.0003L8.74251 19.6148L8.52109 19.9015L8.24316 19.955L8.13585 19.8288L7.90612 19.6642L7.90058 19.3638L7.97078 19.1265L8.43989 18.5518L8.18405 18.6286L7.89512 18.7932L7.45489 19.1046L7.31459 18.7191L7.22239 18.3625L7.22105 17.925L7.57454 17.2706L7.17428 17.5971L7.0642 18.0045L7.11374 18.4846L7.06143 18.8247L6.90601 19.2678L6.69274 19.5339L6.34881 19.7053L6.19751 19.9673L5.96643 20.1594L5.95955 19.7753L5.88524 19.2678L5.6362 18.0621L5.58254 18.3213L5.71193 19.0689L5.70362 19.5545L5.5152 19.9385L5.13685 20.35L4.84658 20.4077L4.67596 20.3445L4.41735 20.0894L4.13397 19.7246L4.0872 19.1375L3.97023 18.8151L3.98812 18.4297L3.96478 18.0648L3.66074 17.0868L3.464 16.5848L3.48877 16.423L3.475 16.3544L3.38424 15.707L3.25762 15.3106L3.19439 14.8881L3.49432 14.2804L3.37324 14.1817L3.02789 14.1007L2.70739 13.9951L2.62897 13.8374L2.77204 13.2379L2.60554 13.0034L2.36624 12.7661L2.29058 12.6715L2.21073 12.548L2.10074 12.2462L2.31393 11.6111L2.61242 10.8732L2.66608 10.592L2.71562 10.1037L2.74316 9.91577L2.70462 9.73063L2.38958 9.51664L1.83515 9.4302L1.44312 9.25054L1.21473 8.97895L1.01943 8.87057L0.778698 8.95149L0.471887 8.84588L0.214616 8.57567L0 8.24782L0.0275407 8.0942L0.0839657 7.88984L0.488344 7.03941L0.638307 7.01333L0.989116 7.17655H1.11985L1.34958 6.84049L1.6715 5.88173L2.12542 5.88446L2.52577 5.91464L2.79539 5.96403L3.06366 5.93385L3.3457 5.85704L3.49843 5.73631L3.58231 5.58269L3.55343 5.44966L3.20816 5.26857L3.07465 5.13278L2.97843 4.74733L2.87801 4.60333L2.19973 4.58274L1.84758 4.4058L1.65362 4.24669L1.3097 3.72135L0.883235 3.3318L0.476001 3.23987L0.319154 3.11371L0.233844 2.91345L0.282041 2.62403L0.404463 2.36065L0.489772 2.06713L0.814467 1.67892L1.1955 1.34014L1.36604 1.10694L1.60685 0.861435L1.63574 0.726981L1.59442 0.573355L1.39912 0.426594L1.26293 0.379962L1.24093 0.285317L1.33447 0.0315624L1.52011 0L1.90669 0.230439L2.30016 0.602155L2.53266 0.934104L2.54231 1.1961L2.69362 1.23863L2.84635 1.24822L3.1022 1.36346L3.36635 1.32918L3.53689 1.39364L3.65108 1.37033L3.69373 1.21942L3.56585 0.997228L3.47223 0.839458L3.57954 0.680349L3.70205 0.648828L3.83824 0.688595L4.02389 0.831254L4.16008 1.12339L4.18628 1.57745L4.48755 1.98755L4.88512 2.27835L5.19605 2.41276L5.5702 2.50879L5.8907 2.41691L6.05031 2.13159L5.97743 1.87507L6.02832 1.64602L6.15628 1.51981L6.35712 1.52805L6.50566 1.7091L6.94178 2.68849L6.85235 3.12191L6.95001 4.30977L6.83993 5.09163L6.85781 5.26037L6.90878 5.39068L6.98301 5.44417L7.11097 5.44279L7.64197 5.58955L8.08908 5.75276L8.59397 5.90091L9.32313 6.01615L9.77016 5.9791L9.99309 5.975L10.4457 6.00928L11.6343 5.94754L12.6179 5.93109L13.0182 6.04357L13.3387 6.08333L14.4338 6.00518L15.5399 5.96813L16.1383 6.2164L16.7904 6.62102L17.1576 6.92145L17.2237 7.09291L17.1838 7.23967L17.0614 7.32059L16.8358 7.32335L16.3199 7.12719L16.2318 7.18479L16.2415 7.58531L16.2249 7.64843L16.1149 8.0078L15.804 8.8157L15.7435 9.17644L15.6774 9.26837L15.5963 9.3191L15.3528 9.33283L15.1615 9.39181L15.0817 9.5235L14.9579 9.79509L14.8712 10.0694L14.7529 10.1545L14.4682 10.0063L14.2907 10.0296L14.0679 10.0927L13.845 10.2491L13.6923 10.4439L13.519 10.5097L13.0017 10.4713L12.904 10.4988L12.838 10.6373L12.7857 10.8115L12.3827 11.223L12.2299 11.8828L12.1061 12.3107L12.1267 12.6427L12.4666 13.5082L12.7045 14.6302L12.7954 14.7441L12.8751 14.7797L12.9109 14.7536L12.9027 14.5218L12.9178 14.2407L13.0292 14.1748L13.1723 14.2324L13.3085 14.4766L13.4612 14.9237L13.6249 15.0993L13.8808 15.1487L14.1711 15.0431L14.387 14.8414L14.4751 14.622L14.4131 14.1913L14.3994 13.8689L14.5383 13.5617L15.0363 13.1035L15.1079 12.9623L15.0762 12.5713L15.0776 12.2037L15.2661 12.179L15.5206 12.238L15.8398 12.0583L15.9374 12.0542L16.0722 12.2476L16.2992 12.2147L16.4671 13.013L16.6391 13.7167L16.6404 14.0445L16.6693 14.7632L16.7477 15.3489L16.8701 15.482L17.0132 15.7947L17.1453 16.1582L17.2485 16.3612L17.3186 17.0238L17.4053 17.5011L17.5194 18.999L17.5717 19.2856ZM10.1086 15.2063L10.1774 15.3846L9.96278 15.2776L9.80182 15.1542L9.70282 14.9896L9.87058 14.9032L10.1086 15.2063ZM10.6327 18.8261L9.96144 18.9715L9.61886 18.9262L10.2586 17.8413L10.2366 17.3557L10.1375 16.9593L9.81282 16.6411L9.79493 16.4134L9.64917 16.102L9.57343 15.7371L9.93389 15.6205L10.2269 15.829L10.2682 15.9443L10.3315 16.2419L10.4759 16.5519L10.9822 17.1897L10.9725 17.5807L10.8336 18.534L10.6327 18.8261ZM13.6401 17.6163L13.4612 17.7384L13.2934 17.6328L13.0787 17.2295L13.1846 16.7192L13.2521 16.6466L13.3594 16.8125L13.5093 17.1678L13.607 17.438L13.6401 17.6163ZM12.0731 18.4722L11.6645 18.7616L11.7979 17.0471L12.1034 17.6863L12.1804 18.0278L12.0731 18.4722ZM14.8644 19.8878L14.7241 20.2252L14.6553 19.9797L14.7144 19.6683L14.7749 19.4969L14.8148 19.4982L14.8974 19.6752L14.8644 19.8878ZM15.1561 21.2224L14.9236 21.2416L14.8094 21.1195L14.863 20.9481L14.7997 20.3953L14.9964 20.3377L15.0969 20.3404L15.1533 20.5036L15.2056 20.8027L15.1561 21.2224Z" fill="var(--fill-0, #71B219)" stroke="var(--stroke-0, white)" mask="url(#path-1-inside-1_0_249)"/>
</g>
</svg>
