<svg preserveAspectRatio="none" width="100%" height="100%" overflow="visible" style="display: block;" viewBox="0 0 18 24" fill="none" xmlns="http://www.w3.org/2000/svg"><g id="BD"><mask id="path-1-inside-1_0_249" fill="white"><path d="M18 19L18 19L18 21L18 21L18 22L18 22L18 22L18 22L17 22L17 22L17 22L17 22L16 22L16 22L16 22L16 22L16 23L16 23L16 23L16 24L17 24L17 24L16 24L16 24L16 23L16 23L15 21L15 20L15 20L15 18L15 18L15 18L15 18L15 18L15 18L14 18L14 17L14 16L13 16L13 16L13 16L13 16L12 16L12 17L11 17L11 16L10 15L10 15L10 14L10 13L10 13L10 13L10 13L10 13L10 13L10 13L9 13L9 13L9 14L10 14L10 14L10 14L10 14L10 15L9 15L10 15L10 16L9 16L9 16L9 16L10 16L10 17L10 17L10 17L10 17L10 18L10 18L10 18L10 18L9 19L9 20L8 20L8 20L8 20L8 20L8 19L8 19L8 19L8 19L8 19L8 19L7 19L7 18L7 18L8 17L7 18L7 18L7 18L7 19L7 19L7 20L6 20L6 20L6 20L6 20L6 19L6 18L6 18L6 19L6 20L6 20L5 20L5 20L5 20L4 20L4 20L4 19L4 19L4 18L4 18L4 17L4 17L4 16L4 16L3 16L3 15L3 15L4 14L3 14L3 14L3 14L3 14L3 13L3 13L2 13L2 13L2 12L2 12L2 12L3 11L3 11L3 10L3 10L3 10L2 10L2 9L1 9L1 9L1 9L1 9L0 9L0 9L0 8L0 8L0 8L0 7L1 7L1 7H1L1 7L2 6L2 6L2 6L3 6L3 6L3 6L4 6L4 6L4 5L3 5L3 5L3 5L3 5L2 5L2 4L2 4L1 4L1 3L0 3L0 3L0 3L0 3L0 2L0 2L1 2L1 1L1 1L2 1L2 1L2 1L1 0L1 0L1 0L1 0L2 0L2 0L2 1L2 1L2 1L3 1L3 1L3 1L3 1L4 1L4 1L4 1L4 1L4 1L4 1L4 1L4 1L4 1L4 1L4 2L4 2L5 2L5 2L6 2L6 2L6 2L6 2L6 2L6 2L6 2L6 2L7 3L7 3L7 4L7 5L7 5L7 5L7 5L7 5L8 6L8 6L9 6L9 6L10 6L10 6L10 6L12 6L13 6L13 6L13 6L14 6L16 6L16 6L17 7L17 7L17 7L17 7L17 7L17 7L16 7L16 7L16 8L16 8L16 8L16 9L16 9L16 9L16 9L15 9L15 9L15 10L15 10L15 10L15 10L14 10L14 10L14 10L14 10L14 10L14 10L13 10L13 10L13 11L13 11L12 11L12 12L12 12L12 13L12 14L13 15L13 15L13 15L13 15L13 14L13 14L13 14L13 14L13 14L14 15L14 15L14 15L14 15L14 15L14 15L14 14L14 14L14 14L15 13L15 13L15 13L15 12L15 12L16 12L16 12L16 12L16 12L16 12L16 13L17 14L17 14L17 15L17 15L17 16L17 16L17 16L17 16L17 17L17 18L18 19L18 19ZM10 15L10 15L10 15L10 15L10 15L10 15L10 15ZM11 19L10 19L10 19L10 18L10 17L10 17L10 17L10 16L10 16L10 16L10 16L10 16L10 16L10 16L10 17L11 17L11 18L11 18L11 19ZM14 18L14 18L13 18L13 17L13 17L13 17L13 17L14 17L14 17L14 18ZM12 18L12 19L12 17L12 18L12 18L12 18ZM15 20L15 20L15 20L15 20L15 20L15 20L15 20L15 20ZM15 21L15 21L15 21L15 21L15 20L15 20L15 20L15 20L15 21L15 21Z"/></mask><path d="M18 19L18 19L18 21L18 21L18 22L18 22L18 22L18 22L17 22L17 22L17 22L17 22L16 22L16 22L16 22L16 22L16 23L16 23L16 23L16 24L17 24L17 24L16 24L16 24L16 23L16 23L15 21L15 20L15 20L15 18L15 18L15 18L15 18L15 18L15 18L14 18L14 17L14 16L13 16L13 16L13 16L13 16L12 16L12 17L11 17L11 16L10 15L10 15L10 14L10 13L10 13L10 13L10 13L10 13L10 13L10 13L9 13L9 13L9 14L10 14L10 14L10 14L10 14L10 15L9 15L10 15L10 16L9 16L9 16L9 16L10 16L10 17L10 17L10 17L10 17L10 18L10 18L10 18L10 18L9 19L9 20L8 20L8 20L8 20L8 20L8 19L8 19L8 19L8 19L8 19L8 19L7 19L7 18L7 18L8 17L7 18L7 18L7 18L7 19L7 19L7 20L6 20L6 20L6 20L6 20L6 19L6 18L6 18L6 19L6 20L6 20L5 20L5 20L5 20L4 20L4 20L4 19L4 19L4 18L4 18L4 17L4 17L4 16L4 16L3 16L3 15L3 15L4 14L3 14L3 14L3 14L3 14L3 13L3 13L2 13L2 13L2 12L2 12L2 12L3 11L3 11L3 10L3 10L3 10L2 10L2 9L1 9L1 9L1 9L1 9L0 9L0 9L0 8L0 8L0 8L0 7L1 7L1 7H1L1 7L2 6L2 6L2 6L3 6L3 6L3 6L4 6L4 6L4 5L3 5L3 5L3 5L3 5L2 5L2 4L2 4L1 4L1 3L0 3L0 3L0 3L0 3L0 2L0 2L1 2L1 1L1 1L2 1L2 1L2 1L1 0L1 0L1 0L1 0L2 0L2 0L2 1L2 1L2 1L3 1L3 1L3 1L3 1L4 1L4 1L4 1L4 1L4 1L4 1L4 1L4 1L4 1L4 1L4 2L4 2L5 2L5 2L6 2L6 2L6 2L6 2L6 2L6 2L6 2L6 2L7 3L7 3L7 4L7 5L7 5L7 5L7 5L7 5L8 6L8 6L9 6L9 6L10 6L10 6L10 6L12 6L13 6L13 6L13 6L14 6L16 6L16 6L17 7L17 7L17 7L17 7L17 7L17 7L16 7L16 7L16 8L16 8L16 8L16 9L16 9L16 9L16 9L15 9L15 9L15 10L15 10L15 10L15 10L14 10L14 10L14 10L14 10L14 10L14 10L13 10L13 10L13 11L13 11L12 11L12 12L12 12L12 13L12 14L13 15L13 15L13 15L13 15L13 14L13 14L13 14L13 14L13 14L14 15L14 15L14 15L14 15L14 15L14 15L14 14L14 14L14 14L15 13L15 13L15 13L15 12L15 12L16 12L16 12L16 12L16 12L16 12L16 13L17 14L17 14L17 15L17 15L17 16L17 16L17 16L17 16L17 17L17 18L18 19L18 19ZM10 15L10 15L10 15L10 15L10 15L10 15L10 15ZM11 19L10 19L10 19L10 18L10 17L10 17L10 17L10 16L10 16L10 16L10 16L10 16L10 16L10 16L10 17L11 17L11 18L11 18L11 19ZM14 18L14 18L13 18L13 17L13 17L13 17L13 17L14 17L14 17L14 18ZM12 18L12 19L12 17L12 18L12 18L12 18ZM15 20L15 20L15 20L15 20L15 20L15 20L15 20L15 20ZM15 21L15 21L15 21L15 21L15 20L15 20L15 20L15 20L15 21L15 21Z" fill="var(--fill-0,#71B219)" stroke="var(--stroke-0,white)" mask="url(#path-1-inside-1_0_249)"/></g></svg>