<svg preserveAspectRatio="none" width="100%" height="100%" overflow="visible" style="display: block;" viewBox="0 0 15 12" fill="none" xmlns="http://www.w3.org/2000/svg"><g id="BE"><mask id="path-1-inside-1_0_193" fill="white"><path d="M9 0L9 0L9 0L9 0L10 0L10 0L10 0L10 0L10 1L10 1L11 1L11 1L11 1L12 1L12 2L12 2L12 2L13 2L13 2L13 2L12 3L12 3L12 3L12 3L12 4L12 4L12 4L12 4L12 4L13 4L13 4L13 4L13 5L14 5L14 5L14 6L14 6L14 6L14 6L15 6L15 6L15 7L15 7L14 8L14 8L14 8L14 8L14 8L14 8L13 8L13 9L13 9L13 9L12 10L12 10L12 10L12 10L12 10L13 10L13 11L13 11L13 11L13 12L13 12L13 12L12 12L12 12L12 12H12L11 12L11 11L11 11L11 11L10 11L10 11L10 10L10 10L9 10L9 10L9 10L9 10L9 9L9 8L9 8L9 8L8 8L8 9L8 9L8 9L7 9L6 9L6 9L6 9V9L6 9L6 9L6 8L6 8L6 8L6 8L6 8L6 8L6 7L6 7L5 7L5 7L5 7L5 7L4 7L4 7L4 6L4 6L4 6L3 6L3 6L3 6L3 5L2 5L2 4L2 4L2 4L2 5L1 5L1 5L1 4L1 4L0 4L0 4L0 3L0 3L0 3L0 2L2 1L3 1L3 1L3 1L3 1L4 2L4 2L4 1L4 1L4 1L5 2L5 2L5 2L5 2L6 2L6 1L6 1L7 1L7 1L7 1L7 1L7 0L7 0L8 0L8 0L8 0L8 0L9 0L9 0L9 0L9 0Z"/></mask><path d="M9 0L9 0L9 0L9 0L10 0L10 0L10 0L10 0L10 1L10 1L11 1L11 1L11 1L12 1L12 2L12 2L12 2L13 2L13 2L13 2L12 3L12 3L12 3L12 3L12 4L12 4L12 4L12 4L12 4L13 4L13 4L13 4L13 5L14 5L14 5L14 6L14 6L14 6L14 6L15 6L15 6L15 7L15 7L14 8L14 8L14 8L14 8L14 8L14 8L13 8L13 9L13 9L13 9L12 10L12 10L12 10L12 10L12 10L13 10L13 11L13 11L13 11L13 12L13 12L13 12L12 12L12 12L12 12H12L11 12L11 11L11 11L11 11L10 11L10 11L10 10L10 10L9 10L9 10L9 10L9 10L9 9L9 8L9 8L9 8L8 8L8 9L8 9L8 9L7 9L6 9L6 9L6 9V9L6 9L6 9L6 8L6 8L6 8L6 8L6 8L6 8L6 7L6 7L5 7L5 7L5 7L5 7L4 7L4 7L4 6L4 6L4 6L3 6L3 6L3 6L3 5L2 5L2 4L2 4L2 4L2 5L1 5L1 5L1 4L1 4L0 4L0 4L0 3L0 3L0 3L0 2L2 1L3 1L3 1L3 1L3 1L4 2L4 2L4 1L4 1L4 1L5 2L5 2L5 2L5 2L6 2L6 1L6 1L7 1L7 1L7 1L7 1L7 0L7 0L8 0L8 0L8 0L8 0L9 0L9 0L9 0L9 0Z" fill="var(--fill-0,#71B219)" stroke="var(--stroke-0,white)" mask="url(#path-1-inside-1_0_193)"/></g></svg>