<svg preserveAspectRatio="none" width="100%" height="100%" overflow="visible" style="display: block;" viewBox="0 0 14.8245 11.9541" fill="none" xmlns="http://www.w3.org/2000/svg">
<g id="BE">
<mask id="path-1-inside-1_0_193" fill="white">
<path d="M8.8457 0.359367L8.86358 0.486956L8.96951 0.540453L9.33958 0.512993L9.52666 0.281215L9.67524 0.135794L9.78532 0.234583L9.83897 0.519858L9.94078 0.890234L10.3824 1.30448L10.7552 1.42244L11.2147 1.34148L11.3962 1.26743L11.52 1.32914L11.6425 1.54861L11.9052 1.79826L12.4611 1.97658L12.6302 2.07671L12.7485 2.24541L12.7142 2.48409L12.45 3.08076L12.4156 3.25632L12.4514 3.31535L12.3991 3.42506L12.0552 3.82419L12.0249 3.96413L12.1391 4.19319L12.234 4.38248L12.2368 4.34543L12.7637 4.17398L13.0017 4.51827L13.3924 4.53062L13.4392 4.64172L13.878 4.9627L14.0128 5.21645L14.3279 5.46196L14.0665 5.77198L14.1064 5.91053L14.1999 6.05181L14.5548 6.13411L14.7323 6.33709L14.7433 6.64848L14.8245 7.15323L14.0926 7.65525L13.8849 8.21492L13.8656 8.32464L13.8409 8.30819L13.761 8.123L13.6276 8.12576L13.325 8.04757L12.9026 8.55235L12.7114 8.97208L12.5986 9.27933L12.428 9.52761L12.3936 9.78956L12.4156 9.9007L12.3579 10.042L12.3551 10.1915L12.5972 10.4836L12.6591 10.6428L12.9549 11.1626L12.8627 11.3505L12.7898 11.5549L12.7045 11.7003L12.6041 11.7922L12.2987 11.7867L11.9107 11.8512L11.6494 11.9541H11.5145L11.2339 11.6962L10.9202 11.3094L10.7222 11.1242L10.6314 10.9651L10.3851 10.8979L10.0343 10.7072L9.79082 10.4988L9.5817 10.3684L9.28732 10.3039L9.04382 10.3108L8.97366 9.95968L8.94339 9.55913L8.74528 9.28892L9.01766 8.23547L8.85535 8.13262L8.67924 8.2163L8.42335 8.46868L8.30093 8.76768L8.22801 9.03378L7.79881 9.28482L7.11785 9.3767L6.37358 9.28482L6.27177 9.21759L6.22362 9.14078V9.0489L6.27454 8.90624L6.40385 8.73202L6.43685 8.48513L6.30343 8.27114L6.21678 8.18746L6.25116 7.98034L6.34881 7.7211L6.36947 7.57162L5.86458 7.12305L5.5 7.03527L5.14647 7.01882L4.8782 6.96808L4.72139 6.99002L4.60997 7.12033L4.49577 7.21497L4.41046 7.10249L4.25366 6.30418L4.13258 6.18346L3.67585 6.04905L3.05404 6.00103L2.88896 5.85566L2.79816 5.49491L2.74039 5.06145L2.53677 4.64448L2.43223 4.53887L2.2465 4.35506L1.92185 4.43049L1.53254 4.67328L1.30277 4.73913L1.21473 4.76516L0.905192 4.52924L0.555769 4.16029L0.276499 3.76798L0.209116 3.54989L0.294384 3.28516L0.192617 3.08214L0.0426546 2.71043L0 2.41963L1.67973 1.38812L2.70323 0.858672L3.18612 0.698181L3.30166 1.23039L3.38969 1.39913L3.50389 1.50884L3.65524 1.53077L3.82993 1.39913L4.07481 1.26057L4.46689 1.32503L4.75166 1.45262L4.85208 1.58565L5.04193 1.71186L5.31704 1.74204L5.84947 1.50059L6.3612 1.13302L6.51116 0.876504L6.56754 0.644684L6.8702 0.79831L7.13708 0.831254L7.25539 0.762645L7.17974 0.39093L7.39712 0.192053L7.63785 0.10151L7.74655 0.262001L7.96801 0.426594L8.14274 0.427976L8.61185 0L8.72189 0.0850593L8.8237 0.237304L8.8457 0.359367Z"/>
</mask>
<path d="M8.8457 0.359367L8.86358 0.486956L8.96951 0.540453L9.33958 0.512993L9.52666 0.281215L9.67524 0.135794L9.78532 0.234583L9.83897 0.519858L9.94078 0.890234L10.3824 1.30448L10.7552 1.42244L11.2147 1.34148L11.3962 1.26743L11.52 1.32914L11.6425 1.54861L11.9052 1.79826L12.4611 1.97658L12.6302 2.07671L12.7485 2.24541L12.7142 2.48409L12.45 3.08076L12.4156 3.25632L12.4514 3.31535L12.3991 3.42506L12.0552 3.82419L12.0249 3.96413L12.1391 4.19319L12.234 4.38248L12.2368 4.34543L12.7637 4.17398L13.0017 4.51827L13.3924 4.53062L13.4392 4.64172L13.878 4.9627L14.0128 5.21645L14.3279 5.46196L14.0665 5.77198L14.1064 5.91053L14.1999 6.05181L14.5548 6.13411L14.7323 6.33709L14.7433 6.64848L14.8245 7.15323L14.0926 7.65525L13.8849 8.21492L13.8656 8.32464L13.8409 8.30819L13.761 8.123L13.6276 8.12576L13.325 8.04757L12.9026 8.55235L12.7114 8.97208L12.5986 9.27933L12.428 9.52761L12.3936 9.78956L12.4156 9.9007L12.3579 10.042L12.3551 10.1915L12.5972 10.4836L12.6591 10.6428L12.9549 11.1626L12.8627 11.3505L12.7898 11.5549L12.7045 11.7003L12.6041 11.7922L12.2987 11.7867L11.9107 11.8512L11.6494 11.9541H11.5145L11.2339 11.6962L10.9202 11.3094L10.7222 11.1242L10.6314 10.9651L10.3851 10.8979L10.0343 10.7072L9.79082 10.4988L9.5817 10.3684L9.28732 10.3039L9.04382 10.3108L8.97366 9.95968L8.94339 9.55913L8.74528 9.28892L9.01766 8.23547L8.85535 8.13262L8.67924 8.2163L8.42335 8.46868L8.30093 8.76768L8.22801 9.03378L7.79881 9.28482L7.11785 9.3767L6.37358 9.28482L6.27177 9.21759L6.22362 9.14078V9.0489L6.27454 8.90624L6.40385 8.73202L6.43685 8.48513L6.30343 8.27114L6.21678 8.18746L6.25116 7.98034L6.34881 7.7211L6.36947 7.57162L5.86458 7.12305L5.5 7.03527L5.14647 7.01882L4.8782 6.96808L4.72139 6.99002L4.60997 7.12033L4.49577 7.21497L4.41046 7.10249L4.25366 6.30418L4.13258 6.18346L3.67585 6.04905L3.05404 6.00103L2.88896 5.85566L2.79816 5.49491L2.74039 5.06145L2.53677 4.64448L2.43223 4.53887L2.2465 4.35506L1.92185 4.43049L1.53254 4.67328L1.30277 4.73913L1.21473 4.76516L0.905192 4.52924L0.555769 4.16029L0.276499 3.76798L0.209116 3.54989L0.294384 3.28516L0.192617 3.08214L0.0426546 2.71043L0 2.41963L1.67973 1.38812L2.70323 0.858672L3.18612 0.698181L3.30166 1.23039L3.38969 1.39913L3.50389 1.50884L3.65524 1.53077L3.82993 1.39913L4.07481 1.26057L4.46689 1.32503L4.75166 1.45262L4.85208 1.58565L5.04193 1.71186L5.31704 1.74204L5.84947 1.50059L6.3612 1.13302L6.51116 0.876504L6.56754 0.644684L6.8702 0.79831L7.13708 0.831254L7.25539 0.762645L7.17974 0.39093L7.39712 0.192053L7.63785 0.10151L7.74655 0.262001L7.96801 0.426594L8.14274 0.427976L8.61185 0L8.72189 0.0850593L8.8237 0.237304L8.8457 0.359367Z" fill="var(--fill-0, #71B219)" stroke="var(--stroke-0, white)" mask="url(#path-1-inside-1_0_193)"/>
</g>
</svg>
