<svg preserveAspectRatio="none" width="100%" height="100%" overflow="visible" style="display: block;" viewBox="0 0 31 22" fill="none" xmlns="http://www.w3.org/2000/svg"><g id="BF"><mask id="path-1-inside-1_0_236" fill="white"><path d="M22 1L22 1L22 1L22 2L22 2L22 3L23 3L23 3L23 4L23 4L23 4L23 5L24 5L24 6L24 6L24 6L25 6L25 6L25 6L25 6L25 6L26 7L26 7L26 7L26 7L25 7L25 7L25 8L25 8L25 8L26 8L26 9L27 10L27 10L28 10L28 10L28 10L29 9L29 9L29 9L30 9L30 10L30 10L30 10L30 10L30 10L30 11L29 11L29 11L29 11L29 11L30 12L30 12L31 12L30 13L30 13L30 14L29 14L28 14L28 14L27 14L27 14L27 14L27 14L27 14L27 14L26 15L26 15L26 15L26 15L26 15V15L26 15L26 15L26 16L26 16L25 16L25 16L25 16L25 16L25 16L25 16L24 16L23 16L23 16L23 16L23 16L22 16L21 16L20 15L20 16L20 16L20 16L20 16L20 16L19 16L19 16L19 16L19 16L19 16L19 16L18 16L18 16L18 16L17 16L17 16L15 16L15 16L15 16L14 16L13 16L12 16L11 16L11 16L10 16L10 16L10 17L10 18L10 18L10 18L10 18L11 18L10 18L10 19L11 19L11 19L11 19L11 20L11 20L11 21L11 21L11 21L11 22L11 22L11 22L11 22L10 22L10 22L10 22L10 21L10 21L10 21L9 21L9 20L9 20L9 20L8 20L8 20L7 20L6 20L6 20L5 21L5 21L5 21L4 21L4 21L4 21L4 21L3 21L3 20L2 20L2 20L2 20L2 19L2 19L1 19L1 19L0 19L0 18L0 18L0 18L0 18L0 17L0 17L0 16L0 16L0 16L1 16L1 15L1 14L1 14L1 14L1 14L1 13L1 13L1 13L1 12L1 12L2 12L2 12L3 12L3 12L4 12L4 12L4 11L4 11L4 11L4 10L4 10L4 10L4 10L5 9L5 9L5 8L5 8L5 8L5 7L5 7L5 7L6 7L6 7L6 7L8 7L8 8L8 7L8 7L9 7L9 7L9 6L9 6L9 6L10 6L10 6L10 6L10 6L10 5L10 5L10 4L11 4L11 3L12 3L12 3L13 4L13 4L14 2L14 2L14 2L15 2L15 2L16 2L17 1L17 1L17 1L18 1L18 0L19 0L19 0L20 0L20 0L20 0L20 0L21 0L22 1Z"/></mask><path d="M22 1L22 1L22 1L22 2L22 2L22 3L23 3L23 3L23 4L23 4L23 4L23 5L24 5L24 6L24 6L24 6L25 6L25 6L25 6L25 6L25 6L26 7L26 7L26 7L26 7L25 7L25 7L25 8L25 8L25 8L26 8L26 9L27 10L27 10L28 10L28 10L28 10L29 9L29 9L29 9L30 9L30 10L30 10L30 10L30 10L30 10L30 11L29 11L29 11L29 11L29 11L30 12L30 12L31 12L30 13L30 13L30 14L29 14L28 14L28 14L27 14L27 14L27 14L27 14L27 14L27 14L26 15L26 15L26 15L26 15L26 15V15L26 15L26 15L26 16L26 16L25 16L25 16L25 16L25 16L25 16L25 16L24 16L23 16L23 16L23 16L23 16L22 16L21 16L20 15L20 16L20 16L20 16L20 16L20 16L19 16L19 16L19 16L19 16L19 16L19 16L18 16L18 16L18 16L17 16L17 16L15 16L15 16L15 16L14 16L13 16L12 16L11 16L11 16L10 16L10 16L10 17L10 18L10 18L10 18L10 18L11 18L10 18L10 19L11 19L11 19L11 19L11 20L11 20L11 21L11 21L11 21L11 22L11 22L11 22L11 22L10 22L10 22L10 22L10 21L10 21L10 21L9 21L9 20L9 20L9 20L8 20L8 20L7 20L6 20L6 20L5 21L5 21L5 21L4 21L4 21L4 21L4 21L3 21L3 20L2 20L2 20L2 20L2 19L2 19L1 19L1 19L0 19L0 18L0 18L0 18L0 18L0 17L0 17L0 16L0 16L0 16L1 16L1 15L1 14L1 14L1 14L1 14L1 13L1 13L1 13L1 12L1 12L2 12L2 12L3 12L3 12L4 12L4 12L4 11L4 11L4 11L4 10L4 10L4 10L4 10L5 9L5 9L5 8L5 8L5 8L5 7L5 7L5 7L6 7L6 7L6 7L8 7L8 8L8 7L8 7L9 7L9 7L9 6L9 6L9 6L10 6L10 6L10 6L10 6L10 5L10 5L10 4L11 4L11 3L12 3L12 3L13 4L13 4L14 2L14 2L14 2L15 2L15 2L16 2L17 1L17 1L17 1L18 1L18 0L19 0L19 0L20 0L20 0L20 0L20 0L21 0L22 1Z" fill="var(--fill-0,#71B219)" stroke="var(--stroke-0,white)" mask="url(#path-1-inside-1_0_236)"/></g></svg>