<svg preserveAspectRatio="none" width="100%" height="100%" overflow="visible" style="display: block;" viewBox="0 0 30.55 22.1359" fill="none" xmlns="http://www.w3.org/2000/svg">
<g id="BF">
<mask id="path-1-inside-1_0_236" fill="white">
<path d="M22.1652 0.658372L22.1115 0.842179L22.1088 1.16726L22.04 1.68164L21.9574 2.29752L22.2931 2.69532L22.6948 3.12329L22.8021 3.28927L22.6948 3.71034L22.7705 3.95727L22.9824 4.36875L23.3428 4.89137L23.7128 5.42768L23.9687 5.49763L24.2122 5.54154L24.3608 5.63752L24.5768 5.73083L24.7928 5.79115L24.9799 5.90911L25.0996 6.02435L25.255 6.35492L25.6718 6.57301L25.9635 6.78838L25.8466 6.89809L25.4834 6.85422L25.1422 6.75958L25.0968 6.91869L25.083 7.52494L25.1367 8.02835L25.2165 8.09558L25.5604 8.18884L26.3789 8.84311L27.1191 9.4631L27.3681 9.62359L27.7766 9.68395L28.2361 9.71003L28.4328 9.65239L28.8772 9.34104L29.1138 9.30675L29.3326 9.31496L29.4509 9.36435L29.6641 9.61949L29.8636 10.0036L29.92 10.2875L29.9021 10.4397L29.8347 10.4973L29.4701 10.57L29.3119 10.6276L29.2734 10.7099L29.3298 10.9006L29.3999 11.0241L29.7975 11.5769L30.3726 12.3231L30.55 12.5137L30.4496 12.7359L30.1566 13.3175L29.9379 13.5603L28.9708 14.3833L28.4975 14.2859L27.5029 14.4519L27.3543 14.2626L27.1218 14.2379L26.8343 14.2708L26.7298 14.3421L26.6981 14.423L26.5949 14.5369L26.4106 14.8634L26.2689 14.9457L26.0928 14.9964L25.8754 14.9896L25.7489 15.0321V15.1939L25.7104 15.3338L25.5631 15.4052L25.5013 15.5615L25.5123 15.7165L25.4269 15.7879L25.2399 15.7495L25.1284 15.7055L25.0239 15.9058L24.8946 16.0416L24.8024 16.0403L23.8078 16.08L23.4459 16.187L23.2286 16.1898L23.2203 16.0992L23.1942 16.0457L21.9396 15.7426L21.0605 15.5629L20.1691 15.364L20.1182 15.5506L19.9902 15.6713L19.7976 15.6795L19.6642 15.6507L19.5747 15.7947L19.4262 15.9854L19.2198 16.0773L19.0176 16.1953L18.9034 16.2981L18.8209 16.2995L18.6173 16.0581L18.3462 16.0334L17.84 16.0732L17.6116 16.0073L17.3007 15.9758L16.5661 16.0251L15.3927 15.9264L15.2001 15.9799L15.1492 16.0238L13.9867 16.0348L12.7087 16.0471L11.6384 16.0581L10.7015 16.0677L10.7002 16.0265L10.3989 16.021L10.3659 16.102L10.1004 17.0731L10.0715 17.6012L10.2132 17.929L10.3714 18.1375L10.5488 18.224L10.5667 18.3419L10.4237 18.4942L10.436 18.6492L10.6039 18.8096L10.6451 18.9797L10.5599 19.1567L10.5805 19.5819L10.7043 20.2554L10.7084 20.6916L10.5901 20.8904L10.6465 21.232L10.8762 21.7134L10.9175 21.9165L10.835 22.0111L10.6437 22.1359L10.4498 22.1318L10.2242 21.841L10.1251 21.7107L9.94355 21.4144L9.78809 21.1181L9.57897 20.9878L9.37263 20.8671L9.12224 20.4899L8.88012 20.3103L8.62424 20.361L8.25143 20.291L7.49893 20.1978L6.69001 20.2252L6.35435 20.3116L6.02282 20.4488L5.18223 20.7519L4.8507 20.9001L4.59897 21.2786L4.31281 21.2704L4.02804 21.1497L3.8492 20.9783L3.46539 21.0153L3.09531 20.8493L2.73766 20.5215L2.4735 20.4131L2.13646 20.1758L2.04431 19.7232L1.83108 19.4063L1.63574 18.9646L1.34408 18.7671L1.00839 18.6615L0.544811 18.6835L0.240772 18.5065L0 18.2486L0.0633101 18.025L0.171962 17.7068L0.184347 17.4009L0.255885 16.9044L0.211887 16.283L0.127964 15.8496L0.383849 15.6685L0.679618 15.5067L0.863965 15.2118L1.05515 14.5492L1.13496 13.9773L1.07581 13.7647L0.978116 13.5959L0.899734 13.349L0.854309 13.0473L0.907963 12.7839L1.13219 12.5398L1.41285 12.3367L1.61231 12.238L2.14058 12.1365L2.80093 11.9856L3.182 11.8128L3.45989 11.6413L3.61535 11.5041L3.77354 11.2257L4.02943 11.009L4.2275 10.7895L4.25504 10.1819L4.25366 9.83481L4.10647 9.6428L4.02666 9.47959L5.00477 9.00222L5.01166 8.66617L4.87547 8.29035L4.68423 7.9872L4.61274 7.72658L4.88374 7.41795L5.12447 7.18613L5.2992 6.99002L5.68439 6.69097L6.08608 6.61277L6.44789 6.72525L7.51955 7.4303L7.70528 7.47555L7.92812 7.42209L8.21155 7.23552L8.57747 7.09015L8.71228 6.61826L8.69989 5.92422L8.78382 5.606L8.97643 5.54836L9.59274 5.68143L9.7537 5.6883L9.93251 5.64439L10.0632 5.52232L10.0577 5.29737L10.0288 5.09849L10.2297 4.45381L10.597 3.96823L11.3385 3.36194L11.5696 3.23987L11.8379 3.17813L13.1668 3.59514L13.3828 3.49225L13.7074 2.45801L14.0679 2.35927L14.4998 2.34143L14.7805 2.25227L14.9263 2.18094L15.5591 1.78729L16.6734 1.25232L17.2732 1.02188L17.3902 0.935485L17.8194 0.555523L18.3889 0.119343L18.7521 0.0315624L19.2542 0L19.5706 0.0713293L19.6559 0.194774L19.7605 0.257857L20.4153 0.0727106L21.3535 0.367614L22.1652 0.658372Z"/>
</mask>
<path d="M22.1652 0.658372L22.1115 0.842179L22.1088 1.16726L22.04 1.68164L21.9574 2.29752L22.2931 2.69532L22.6948 3.12329L22.8021 3.28927L22.6948 3.71034L22.7705 3.95727L22.9824 4.36875L23.3428 4.89137L23.7128 5.42768L23.9687 5.49763L24.2122 5.54154L24.3608 5.63752L24.5768 5.73083L24.7928 5.79115L24.9799 5.90911L25.0996 6.02435L25.255 6.35492L25.6718 6.57301L25.9635 6.78838L25.8466 6.89809L25.4834 6.85422L25.1422 6.75958L25.0968 6.91869L25.083 7.52494L25.1367 8.02835L25.2165 8.09558L25.5604 8.18884L26.3789 8.84311L27.1191 9.4631L27.3681 9.62359L27.7766 9.68395L28.2361 9.71003L28.4328 9.65239L28.8772 9.34104L29.1138 9.30675L29.3326 9.31496L29.4509 9.36435L29.6641 9.61949L29.8636 10.0036L29.92 10.2875L29.9021 10.4397L29.8347 10.4973L29.4701 10.57L29.3119 10.6276L29.2734 10.7099L29.3298 10.9006L29.3999 11.0241L29.7975 11.5769L30.3726 12.3231L30.55 12.5137L30.4496 12.7359L30.1566 13.3175L29.9379 13.5603L28.9708 14.3833L28.4975 14.2859L27.5029 14.4519L27.3543 14.2626L27.1218 14.2379L26.8343 14.2708L26.7298 14.3421L26.6981 14.423L26.5949 14.5369L26.4106 14.8634L26.2689 14.9457L26.0928 14.9964L25.8754 14.9896L25.7489 15.0321V15.1939L25.7104 15.3338L25.5631 15.4052L25.5013 15.5615L25.5123 15.7165L25.4269 15.7879L25.2399 15.7495L25.1284 15.7055L25.0239 15.9058L24.8946 16.0416L24.8024 16.0403L23.8078 16.08L23.4459 16.187L23.2286 16.1898L23.2203 16.0992L23.1942 16.0457L21.9396 15.7426L21.0605 15.5629L20.1691 15.364L20.1182 15.5506L19.9902 15.6713L19.7976 15.6795L19.6642 15.6507L19.5747 15.7947L19.4262 15.9854L19.2198 16.0773L19.0176 16.1953L18.9034 16.2981L18.8209 16.2995L18.6173 16.0581L18.3462 16.0334L17.84 16.0732L17.6116 16.0073L17.3007 15.9758L16.5661 16.0251L15.3927 15.9264L15.2001 15.9799L15.1492 16.0238L13.9867 16.0348L12.7087 16.0471L11.6384 16.0581L10.7015 16.0677L10.7002 16.0265L10.3989 16.021L10.3659 16.102L10.1004 17.0731L10.0715 17.6012L10.2132 17.929L10.3714 18.1375L10.5488 18.224L10.5667 18.3419L10.4237 18.4942L10.436 18.6492L10.6039 18.8096L10.6451 18.9797L10.5599 19.1567L10.5805 19.5819L10.7043 20.2554L10.7084 20.6916L10.5901 20.8904L10.6465 21.232L10.8762 21.7134L10.9175 21.9165L10.835 22.0111L10.6437 22.1359L10.4498 22.1318L10.2242 21.841L10.1251 21.7107L9.94355 21.4144L9.78809 21.1181L9.57897 20.9878L9.37263 20.8671L9.12224 20.4899L8.88012 20.3103L8.62424 20.361L8.25143 20.291L7.49893 20.1978L6.69001 20.2252L6.35435 20.3116L6.02282 20.4488L5.18223 20.7519L4.8507 20.9001L4.59897 21.2786L4.31281 21.2704L4.02804 21.1497L3.8492 20.9783L3.46539 21.0153L3.09531 20.8493L2.73766 20.5215L2.4735 20.4131L2.13646 20.1758L2.04431 19.7232L1.83108 19.4063L1.63574 18.9646L1.34408 18.7671L1.00839 18.6615L0.544811 18.6835L0.240772 18.5065L0 18.2486L0.0633101 18.025L0.171962 17.7068L0.184347 17.4009L0.255885 16.9044L0.211887 16.283L0.127964 15.8496L0.383849 15.6685L0.679618 15.5067L0.863965 15.2118L1.05515 14.5492L1.13496 13.9773L1.07581 13.7647L0.978116 13.5959L0.899734 13.349L0.854309 13.0473L0.907963 12.7839L1.13219 12.5398L1.41285 12.3367L1.61231 12.238L2.14058 12.1365L2.80093 11.9856L3.182 11.8128L3.45989 11.6413L3.61535 11.5041L3.77354 11.2257L4.02943 11.009L4.2275 10.7895L4.25504 10.1819L4.25366 9.83481L4.10647 9.6428L4.02666 9.47959L5.00477 9.00222L5.01166 8.66617L4.87547 8.29035L4.68423 7.9872L4.61274 7.72658L4.88374 7.41795L5.12447 7.18613L5.2992 6.99002L5.68439 6.69097L6.08608 6.61277L6.44789 6.72525L7.51955 7.4303L7.70528 7.47555L7.92812 7.42209L8.21155 7.23552L8.57747 7.09015L8.71228 6.61826L8.69989 5.92422L8.78382 5.606L8.97643 5.54836L9.59274 5.68143L9.7537 5.6883L9.93251 5.64439L10.0632 5.52232L10.0577 5.29737L10.0288 5.09849L10.2297 4.45381L10.597 3.96823L11.3385 3.36194L11.5696 3.23987L11.8379 3.17813L13.1668 3.59514L13.3828 3.49225L13.7074 2.45801L14.0679 2.35927L14.4998 2.34143L14.7805 2.25227L14.9263 2.18094L15.5591 1.78729L16.6734 1.25232L17.2732 1.02188L17.3902 0.935485L17.8194 0.555523L18.3889 0.119343L18.7521 0.0315624L19.2542 0L19.5706 0.0713293L19.6559 0.194774L19.7605 0.257857L20.4153 0.0727106L21.3535 0.367614L22.1652 0.658372Z" fill="var(--fill-0, #71B219)" stroke="var(--stroke-0, white)" mask="url(#path-1-inside-1_0_236)"/>
</g>
</svg>
