<svg preserveAspectRatio="none" width="100%" height="100%" overflow="visible" style="display: block;" viewBox="0 0 24 16" fill="none" xmlns="http://www.w3.org/2000/svg"><g id="BG"><mask id="path-1-inside-1_0_215" fill="white"><path d="M24 3L24 4L24 4L23 4L22 4L22 5L22 5L22 6L21 6L21 8L21 8L21 8L20 9L20 10L21 10L21 11L22 12L22 12L21 12L21 12L21 12L21 12L20 12L20 12L20 12L20 12L19 12L19 11L19 11L19 11L18 12L18 12L18 12L17 12L17 12L16 12L16 12L16 12L16 13L16 13L16 13L15 13L15 13L15 13L15 13L14 13L14 13L14 13L14 14L14 14L15 14L15 15L15 15L14 15L14 15L13 15L13 15L13 15L12 15L12 16L11 16L11 15L10 15L10 15L10 15L9 15L9 15L9 15L9 14L8 14L8 14L8 14L8 14L7 14L7 14L6 14L6 14L6 15L6 15L6 15L5 15L5 15L4 15L4 15L4 15L3 15L3 15L2 15L2 15L2 14L3 13L2 13L2 13L2 13L2 13L2 12L2 12L1 12L1 11L1 11L0 10L0 10L0 10L1 10L1 9L1 9L0 9L0 8L0 8L0 8L0 8L0 7L1 7L1 7L1 7L2 7L2 6L2 6L2 6L2 6L2 6L2 5L2 5L2 5L1 4L1 4L1 4L0 3L0 3L0 3L0 3L0 2L0 2L0 1L0 1L0 1L1 1L1 0L1 0L1 0L1 0L2 0L2 1L3 1L3 1L2 1L2 1L2 2L2 2L2 2L2 2L3 2L5 2L6 2L7 2L8 2L10 3L11 3L12 3L13 3L13 2L14 2L15 1L16 1L17 0L18 0L18 0L20 1L20 1L21 1L21 2L21 2L21 1L22 2L22 2L23 2L23 3L24 3L24 3Z"/></mask><path d="M24 3L24 4L24 4L23 4L22 4L22 5L22 5L22 6L21 6L21 8L21 8L21 8L20 9L20 10L21 10L21 11L22 12L22 12L21 12L21 12L21 12L21 12L20 12L20 12L20 12L20 12L19 12L19 11L19 11L19 11L18 12L18 12L18 12L17 12L17 12L16 12L16 12L16 12L16 13L16 13L16 13L15 13L15 13L15 13L15 13L14 13L14 13L14 13L14 14L14 14L15 14L15 15L15 15L14 15L14 15L13 15L13 15L13 15L12 15L12 16L11 16L11 15L10 15L10 15L10 15L9 15L9 15L9 15L9 14L8 14L8 14L8 14L8 14L7 14L7 14L6 14L6 14L6 15L6 15L6 15L5 15L5 15L4 15L4 15L4 15L3 15L3 15L2 15L2 15L2 14L3 13L2 13L2 13L2 13L2 13L2 12L2 12L1 12L1 11L1 11L0 10L0 10L0 10L1 10L1 9L1 9L0 9L0 8L0 8L0 8L0 8L0 7L1 7L1 7L1 7L2 7L2 6L2 6L2 6L2 6L2 6L2 5L2 5L2 5L1 4L1 4L1 4L0 3L0 3L0 3L0 3L0 2L0 2L0 1L0 1L0 1L1 1L1 0L1 0L1 0L1 0L2 0L2 1L3 1L3 1L2 1L2 1L2 2L2 2L2 2L2 2L3 2L5 2L6 2L7 2L8 2L10 3L11 3L12 3L13 3L13 2L14 2L15 1L16 1L17 0L18 0L18 0L20 1L20 1L21 1L21 2L21 2L21 1L22 2L22 2L23 2L23 3L24 3L24 3Z" fill="var(--fill-0,#71B219)" stroke="var(--stroke-0,white)" mask="url(#path-1-inside-1_0_215)"/></g></svg>