<svg preserveAspectRatio="none" width="100%" height="100%" overflow="visible" style="display: block;" viewBox="0 0 24.0966 15.6425" fill="none" xmlns="http://www.w3.org/2000/svg">
<g id="BG">
<mask id="path-1-inside-1_0_215" fill="white">
<path d="M24.0966 2.64182L24.0059 3.91884L23.6331 4.51003L23.0704 4.31249L22.3522 4.47713L21.9726 5.14923L21.7566 5.3481L21.5626 5.58131L21.4374 6.45095L21.4071 7.86924L21.1347 8.0407L20.8858 8.0942L19.8471 9.33693L20.4456 9.68533L20.7097 9.95006L21.1472 10.6866L21.7689 11.5165L21.8928 11.9211L21.37 11.8306L21.1884 11.858L21.0715 11.9856L20.828 11.9595L20.5281 11.9609L20.2144 12.1077L20.0411 12.1694L19.8099 12.035L19.3766 11.6317L19.1139 11.3505L18.9199 11.2792L18.7232 11.3629L18.0215 11.4589L17.8551 11.6221L17.5304 11.8032L17.2058 11.8896L16.7367 11.9513L16.4904 11.9431L16.3528 12.0295L16.2373 12.2942L16.1589 12.5521L16.0901 12.6563L15.5068 12.7839L15.3775 12.932L15.3431 13.0761L15.3541 13.2201L14.8891 13.0802L14.5301 13.1748L14.4448 13.2846L14.3705 13.4437L14.4118 13.6124L14.5438 13.777L14.669 14.2214L14.7144 14.6644L14.6374 14.9169L14.3705 15.0952L13.8188 15.2941L13.2837 15.1994L13.0498 15.2776L12.6536 15.3023L12.289 15.3544L11.7292 15.5355L11.2229 15.6425L10.7689 15.2735L10.2296 15.0225L9.66285 14.8729L9.46612 14.9813L9.38081 15.0677L8.90624 14.7413L8.69439 14.6247L8.5912 14.4985L8.39447 14.0623L8.2775 14.0486L7.88681 14.2104L7.50989 14.2036L7.28293 14.1734L6.60885 14.1926L6.51943 14.4903L6.43689 14.5355L6.29104 14.5753L5.93335 14.5561L5.47523 14.7769L4.98412 14.9114L4.60031 14.9141L4.2055 14.8496L3.96889 14.8963L3.45846 14.9196L3.13519 15.2406L2.63165 15.2227L2.20796 15.1692L2.26027 15.0677L2.34558 13.7907L2.55465 13.2187L2.54643 13.1008L2.501 13.0116L2.31527 12.9197L2.18185 12.6097L1.90258 11.7936L1.74439 11.629L1.3055 11.4561L0.921691 11.2202L0.595652 10.9075L0 10.1366L0.301269 10.0598L0.392036 9.90204L0.693304 9.47683L0.72773 9.26833L0.696075 9.15036L0.493886 8.946L0.356266 8.49748L0.45946 8.07909L0.469116 7.86376L0.367266 7.64977L0.47323 7.38367L0.690617 7.23829L0.82681 7.19576L1.39769 7.16696L1.7595 6.63337L1.97957 6.46329L2.20519 6.16014L2.30981 6.04905L2.40881 5.81313L2.44323 5.57168L1.99057 5.23291L1.8365 4.97777L1.63431 4.69522L1.36192 4.50044L0.813039 4.16573L0.598423 3.82558L0.502115 3.38387L0.356266 3.0492L0.195304 2.83111L0.165076 2.65279L0.0976521 2.4347L0.0825382 2.00538L0.213189 1.43337L0.297154 1.23039L0.482886 1.17413L0.978116 0.868258L1.00146 0.477328L1.09088 0.23316L1.24773 0.0932639L1.39358 0L1.66454 0.227676L2.32215 0.591187L2.64273 0.854528L2.62619 1.01778L2.47623 1.17961L2.19008 1.33872L2.02366 1.54861L1.97823 1.80785L2.02089 1.99165L2.21896 2.15214L3.39935 1.94226L4.5962 2.05063L6.20296 2.4059L7.26781 2.52934L8.05608 2.36475L9.51289 2.66237L10.8707 2.93949L12.1735 3.0204L12.9026 2.80369L13.4158 2.51151L13.8574 1.96009L14.9482 1.23173L16.0034 0.821626L17.3874 0.489677L18.3118 0.3772L18.4411 0.489677L19.6174 1.16044L20.1415 1.16316L20.5652 1.2825L20.7207 1.45945L20.8266 1.50336L21.3907 1.33738L21.6396 1.70361L22.029 2.21661L22.6934 2.47995L23.2849 2.62809L23.4721 2.65141L24.0966 2.64182Z"/>
</mask>
<path d="M24.0966 2.64182L24.0059 3.91884L23.6331 4.51003L23.0704 4.31249L22.3522 4.47713L21.9726 5.14923L21.7566 5.3481L21.5626 5.58131L21.4374 6.45095L21.4071 7.86924L21.1347 8.0407L20.8858 8.0942L19.8471 9.33693L20.4456 9.68533L20.7097 9.95006L21.1472 10.6866L21.7689 11.5165L21.8928 11.9211L21.37 11.8306L21.1884 11.858L21.0715 11.9856L20.828 11.9595L20.5281 11.9609L20.2144 12.1077L20.0411 12.1694L19.8099 12.035L19.3766 11.6317L19.1139 11.3505L18.9199 11.2792L18.7232 11.3629L18.0215 11.4589L17.8551 11.6221L17.5304 11.8032L17.2058 11.8896L16.7367 11.9513L16.4904 11.9431L16.3528 12.0295L16.2373 12.2942L16.1589 12.5521L16.0901 12.6563L15.5068 12.7839L15.3775 12.932L15.3431 13.0761L15.3541 13.2201L14.8891 13.0802L14.5301 13.1748L14.4448 13.2846L14.3705 13.4437L14.4118 13.6124L14.5438 13.777L14.669 14.2214L14.7144 14.6644L14.6374 14.9169L14.3705 15.0952L13.8188 15.2941L13.2837 15.1994L13.0498 15.2776L12.6536 15.3023L12.289 15.3544L11.7292 15.5355L11.2229 15.6425L10.7689 15.2735L10.2296 15.0225L9.66285 14.8729L9.46612 14.9813L9.38081 15.0677L8.90624 14.7413L8.69439 14.6247L8.5912 14.4985L8.39447 14.0623L8.2775 14.0486L7.88681 14.2104L7.50989 14.2036L7.28293 14.1734L6.60885 14.1926L6.51943 14.4903L6.43689 14.5355L6.29104 14.5753L5.93335 14.5561L5.47523 14.7769L4.98412 14.9114L4.60031 14.9141L4.2055 14.8496L3.96889 14.8963L3.45846 14.9196L3.13519 15.2406L2.63165 15.2227L2.20796 15.1692L2.26027 15.0677L2.34558 13.7907L2.55465 13.2187L2.54643 13.1008L2.501 13.0116L2.31527 12.9197L2.18185 12.6097L1.90258 11.7936L1.74439 11.629L1.3055 11.4561L0.921691 11.2202L0.595652 10.9075L0 10.1366L0.301269 10.0598L0.392036 9.90204L0.693304 9.47683L0.72773 9.26833L0.696075 9.15036L0.493886 8.946L0.356266 8.49748L0.45946 8.07909L0.469116 7.86376L0.367266 7.64977L0.47323 7.38367L0.690617 7.23829L0.82681 7.19576L1.39769 7.16696L1.7595 6.63337L1.97957 6.46329L2.20519 6.16014L2.30981 6.04905L2.40881 5.81313L2.44323 5.57168L1.99057 5.23291L1.8365 4.97777L1.63431 4.69522L1.36192 4.50044L0.813039 4.16573L0.598423 3.82558L0.502115 3.38387L0.356266 3.0492L0.195304 2.83111L0.165076 2.65279L0.0976521 2.4347L0.0825382 2.00538L0.213189 1.43337L0.297154 1.23039L0.482886 1.17413L0.978116 0.868258L1.00146 0.477328L1.09088 0.23316L1.24773 0.0932639L1.39358 0L1.66454 0.227676L2.32215 0.591187L2.64273 0.854528L2.62619 1.01778L2.47623 1.17961L2.19008 1.33872L2.02366 1.54861L1.97823 1.80785L2.02089 1.99165L2.21896 2.15214L3.39935 1.94226L4.5962 2.05063L6.20296 2.4059L7.26781 2.52934L8.05608 2.36475L9.51289 2.66237L10.8707 2.93949L12.1735 3.0204L12.9026 2.80369L13.4158 2.51151L13.8574 1.96009L14.9482 1.23173L16.0034 0.821626L17.3874 0.489677L18.3118 0.3772L18.4411 0.489677L19.6174 1.16044L20.1415 1.16316L20.5652 1.2825L20.7207 1.45945L20.8266 1.50336L21.3907 1.33738L21.6396 1.70361L22.029 2.21661L22.6934 2.47995L23.2849 2.62809L23.4721 2.65141L24.0966 2.64182Z" fill="var(--fill-0, #71B219)" stroke="var(--stroke-0, white)" mask="url(#path-1-inside-1_0_215)"/>
</g>
</svg>
