<svg preserveAspectRatio="none" width="100%" height="100%" overflow="visible" style="display: block;" viewBox="0 0 7 8" fill="none" xmlns="http://www.w3.org/2000/svg"><path id="BI" d="M6 0L6 0L6 0L5 1L5 1L5 1L5 1L5 2L5 2L5 2L5 2L5 2L5 2L5 2L5 2L5 2L5 2L5 2L5 2L5 2L5 2L5 2L5 2L6 2L6 2L6 3L6 3L6 3L6 3L6 3L6 3L7 3L7 3L7 3L7 3L7 3L7 3L7 4L6 4L6 4L6 4L6 4L6 4L6 4L6 4L6 4L6 4L6 4L6 4L6 4L5 5L5 5L5 5L5 5L5 5L5 5L5 6L5 6L5 6L5 6L4 6L4 6L4 6L4 7L3 7L3 8L3 8L3 8L3 8L2 8L2 8L2 8L2 7L2 7L1 7L1 6L1 6L1 5L1 5L1 4V4L1 4L1 4L1 4L1 4L1 3L1 3V3L1 3L1 3L1 3L1 2L1 2L0 2H0L0 2L0 2L0 2V2L0 1L0 1L1 1L1 2L1 2L1 2L1 2L1 2L1 2H2L2 2H2L2 2L2 2L3 2L3 2L3 2L3 2L3 2L3 2L3 2L4 2L4 2L4 2L4 1L4 1L4 1L4 1V1L4 0L4 1L4 1L4 1L4 1L4 1L4 1L4 1L4 1L4 1L5 0L5 0L5 0L5 0L5 0L5 0L6 0Z" fill="var(--fill-0,#71B219)" stroke="var(--stroke-0,white)" stroke-width="0"/></svg>