<svg preserveAspectRatio="none" width="100%" height="100%" overflow="visible" style="display: block;" viewBox="0 0 6.93901 8.20806" fill="none" xmlns="http://www.w3.org/2000/svg">
<path id="BI" d="M5.50781 0.431641L5.53711 0.457031L5.57031 0.470703L5.29688 1.02344L5.23438 1.12402L5.15234 1.25293L5.22949 1.38379L5.26758 1.4502L5.28711 1.4834L5.31641 1.50977L5.33789 1.52832L5.31836 1.57812L5.29395 1.62207L5.28125 1.64453L5.27344 1.66992L5.20508 1.87988L5.18555 1.94043L5.19824 2.00293L5.23535 2.19629L5.25195 2.28418L5.32031 2.34082L5.40527 2.41211L5.43555 2.4375L5.47168 2.45215L5.70215 2.5459L5.72461 2.55469L5.74805 2.55957L6.07031 2.62207L6.45312 2.77539L6.48535 2.78809L6.51953 2.79199L6.62598 2.80273L6.62207 2.88086L6.61914 2.93262L6.63672 2.98145L6.6875 3.11914L6.68848 3.36035L6.65332 3.4834L6.36426 3.57617L6.33008 3.58691L6.2998 3.60742L6.08398 3.75293L6.05078 3.77441L6.02637 3.80664L5.96875 3.87988L5.8623 4.01758L5.94043 4.14453L5.70605 4.31445L5.69434 4.32227L5.68359 4.33203L5.2793 4.70117L5.23633 4.74121L5.21484 4.7959L5.11816 5.04395L5.11035 5.06738L5.03809 5.32617L4.95898 5.45312L4.67871 5.70117L4.64746 5.72852L4.62695 5.76367L4.3125 6.30957L4.30566 6.32129L4.2998 6.33496L4.16211 6.64941L3.43945 7.44629L2.78516 7.85156L2.77734 7.85645L2.77051 7.86133L2.6377 7.95605L1.71582 7.9375L1.65723 7.57031L1.65332 7.55273L1.46875 6.76953L1.45996 6.73242L1.44043 6.69922L1.04688 6.03516L1.01367 5.81055L1.03223 5.26172L1.0332 5.25391L1.03418 4.45312V4.44434L1.0332 4.43652L1.00684 4.01367L1.0166 3.71484L1.01562 3.71387L1.06738 3.18555L1.06836 3.1709V3.15625L1.06152 2.83008L1.05957 2.75195L1.01367 2.68848L0.740234 2.3125L0.728516 2.29688L0.386719 1.89648H0.387695L0.37793 1.88672L0.25293 1.75586L0.25 1.68945V1.5918L0.290039 1.43848L0.344727 1.34082L0.615234 1.41016L0.899414 1.55957L1.06738 1.93457L1.1084 2.02539L1.20117 2.06348L1.35742 2.12793L1.4043 2.14746H1.4541L1.7373 2.14551H1.74707L1.75684 2.14453L2.46289 2.08691L2.63184 2.09375L2.67676 2.09473L2.71973 2.08105L3.04883 1.97266L3.07324 1.96484L3.0957 1.95117L3.42285 1.76074L3.48926 1.72168L3.52246 1.65234L3.61816 1.45508L3.63281 1.42383L3.63867 1.38867L3.71484 0.943359L3.7168 0.932617V0.922852L3.75977 0.421875L4.0293 0.589844L4.06836 0.614258L4.11426 0.623047L4.21289 0.641602L4.24902 0.648438L4.28516 0.645508L4.38086 0.635742L4.46094 0.62793L4.52148 0.574219L4.66113 0.449219L4.77637 0.380859L4.84863 0.382812L4.88184 0.383789L4.91406 0.375977L5.32031 0.273438L5.50781 0.431641Z" fill="var(--fill-0, #71B219)" stroke="var(--stroke-0, white)" stroke-width="0.5"/>
</svg>
