<svg preserveAspectRatio="none" width="100%" height="100%" overflow="visible" style="display: block;" viewBox="0 0 12 24" fill="none" xmlns="http://www.w3.org/2000/svg"><g id="BJ"><mask id="path-1-inside-1_0_198" fill="white"><path d="M11 3L11 3L10 4L10 4L11 5L11 5L11 5L11 5L12 6L12 6L12 6L12 7L12 7L12 8L12 8L12 8L11 8L11 8L11 8L11 8L11 8L11 9L11 9L11 10L10 10L10 10L10 10L10 10L10 11L10 11L9 11L9 11L9 12L9 12L9 13L8 13L8 13L8 14L8 15L8 15L8 16L8 16L8 17L7 18L8 18L8 18L8 18L8 19L8 19L8 19L8 19L8 19V20L8 21L8 21L8 21L8 22L8 22L8 22L8 22L8 22L8 23L8 23L6 24L4 24L3 24L3 24L4 24L4 23L3 22L3 22L3 22L3 22L3 22L3 21L3 21L3 21V20V18V17V16L3 15L3 14L3 13L3 13L3 12L2 12L2 11L2 11L2 10L2 9L2 9L2 9L1 8L0 8L0 8L0 8L0 6L0 6L0 6L0 5L1 5L1 5L1 5L1 5L1 5L1 5L1 5L1 5L1 5L2 5V4L2 4L2 4L2 4L2 4L2 4L2 4L2 4L3 4L3 4L3 4L3 4L4 4L5 4L6 3L6 3L6 2L6 2L6 2L6 1L6 1L7 0L7 0L7 0L7 0L8 0L8 0L8 0L8 0L9 1L10 2L10 2L10 2L10 2L11 2L11 3Z"/></mask><path d="M11 3L11 3L10 4L10 4L11 5L11 5L11 5L11 5L12 6L12 6L12 6L12 7L12 7L12 8L12 8L12 8L11 8L11 8L11 8L11 8L11 8L11 9L11 9L11 10L10 10L10 10L10 10L10 10L10 11L10 11L9 11L9 11L9 12L9 12L9 13L8 13L8 13L8 14L8 15L8 15L8 16L8 16L8 17L7 18L8 18L8 18L8 18L8 19L8 19L8 19L8 19L8 19V20L8 21L8 21L8 21L8 22L8 22L8 22L8 22L8 22L8 23L8 23L6 24L4 24L3 24L3 24L4 24L4 23L3 22L3 22L3 22L3 22L3 22L3 21L3 21L3 21V20V18V17V16L3 15L3 14L3 13L3 13L3 12L2 12L2 11L2 11L2 10L2 9L2 9L2 9L1 8L0 8L0 8L0 8L0 6L0 6L0 6L0 5L1 5L1 5L1 5L1 5L1 5L1 5L1 5L1 5L1 5L2 5V4L2 4L2 4L2 4L2 4L2 4L2 4L2 4L3 4L3 4L3 4L3 4L4 4L5 4L6 3L6 3L6 2L6 2L6 2L6 1L6 1L7 0L7 0L7 0L7 0L8 0L8 0L8 0L8 0L9 1L10 2L10 2L10 2L10 2L11 2L11 3Z" fill="var(--fill-0,#71B219)" stroke="var(--stroke-0,white)" mask="url(#path-1-inside-1_0_198)"/></g></svg>