<svg preserveAspectRatio="none" width="100%" height="100%" overflow="visible" style="display: block;" viewBox="0 0 11.8571 23.9109" fill="none" xmlns="http://www.w3.org/2000/svg">
<g id="BJ">
<mask id="path-1-inside-1_0_198" fill="white">
<path d="M10.934 2.68849L10.7744 2.93949L10.5295 3.45796L10.5185 3.86262L11.1019 4.71581L11.1692 4.80221L11.3192 4.93528L11.4004 5.09439L11.4705 5.51412L11.5104 5.98735L11.5572 6.30557L11.8392 6.75271L11.8571 6.93242L11.6617 7.60042L11.615 7.67175L11.5641 7.68958L11.2614 7.63194L11.1321 7.70465L10.967 7.93099L10.8666 8.15732L10.8611 8.25197L11.1294 8.6717L10.9602 9.27657L10.7868 9.65381L10.4759 9.86914L10.198 9.91992L10.004 10.0214L9.89124 10.1545L9.90774 10.5865L9.49778 10.9802L9.27082 11.2559L9.16074 11.4218L9.20751 11.9294L9.0617 12.4424L8.80854 12.847L8.24178 12.9348L7.76577 12.9842L7.60347 14.0143L7.6117 14.6659L7.5677 15.3311L7.48928 15.6027L7.52227 15.984L7.4865 16.8468L7.42324 17.5258L7.50716 17.7082L7.55531 18.1074L7.55254 18.5202L7.67362 18.8069L7.8057 19.0579L7.80154 19.1869L7.73139 19.2678L7.67224 19.3734V20.3445L7.69701 20.6353L7.66124 20.8191L7.55943 20.9728L7.59931 21.4638L7.68189 21.7766L7.76443 22.007L7.68462 22.1991L7.61447 22.4528L7.50855 23.1002L7.50166 23.3252L5.88247 23.4829L4.07204 23.7422L3.31681 23.9109L3.27277 23.7806L3.91658 23.6119L3.78316 23.1057L3.38147 22.5076L3.22462 22.3979L3.14346 22.1003L3.24112 21.9055L3.19435 21.7738L3.16135 21.3706L2.96323 20.9248L3.32504 20.9069V19.4736V18.0964V16.9222V15.9922L3.25489 14.8771L3.24527 14.0582L3.23012 12.9773L3.09942 12.6399L2.55193 12.0679L2.40196 11.7716L2.37581 11.378L2.25339 10.9733L2.2465 10.2642L2.23689 9.43844L2.18735 9.30537L1.59304 8.91172L0.7525 8.35344L0.111422 7.92822L0.0646536 7.8967L0 7.79243L0.0935377 6.53324L0.225616 6.36865L0.430576 5.85017L0.529655 5.43044L0.621808 5.43182L0.751115 5.29603L0.855694 5.09573L0.967117 5.13964L1.15419 5.17807L1.2395 5.10674L1.2285 4.95173L1.29038 4.79534L1.43762 4.72402L1.47612 4.58412V4.42225L1.60269 4.37976L1.82004 4.38658L1.99612 4.33585L2.13781 4.25355L2.32215 3.92709L2.42535 3.81323L2.457 3.73231L2.56154 3.66098L2.84908 3.62808L3.08154 3.65278L3.23012 3.84207L4.22477 3.67609L4.698 3.77346L5.66512 2.95045L5.88385 2.70767L6.17685 2.12611L6.27727 1.90387L6.36808 1.50336L6.17685 0.764027L6.18785 0.632336L6.58681 0.473226L7.08481 0.349781L7.27743 0.340195L7.40535 0.277071L7.58697 0.116622L7.88274 0L8.05743 0.0384274L8.16474 0.0617433L9.21301 1.03972L9.66835 1.53354L9.78943 1.78591L10.0247 1.96834L10.3714 2.08081L10.6878 2.33185L10.934 2.68849Z"/>
</mask>
<path d="M10.934 2.68849L10.7744 2.93949L10.5295 3.45796L10.5185 3.86262L11.1019 4.71581L11.1692 4.80221L11.3192 4.93528L11.4004 5.09439L11.4705 5.51412L11.5104 5.98735L11.5572 6.30557L11.8392 6.75271L11.8571 6.93242L11.6617 7.60042L11.615 7.67175L11.5641 7.68958L11.2614 7.63194L11.1321 7.70465L10.967 7.93099L10.8666 8.15732L10.8611 8.25197L11.1294 8.6717L10.9602 9.27657L10.7868 9.65381L10.4759 9.86914L10.198 9.91992L10.004 10.0214L9.89124 10.1545L9.90774 10.5865L9.49778 10.9802L9.27082 11.2559L9.16074 11.4218L9.20751 11.9294L9.0617 12.4424L8.80854 12.847L8.24178 12.9348L7.76577 12.9842L7.60347 14.0143L7.6117 14.6659L7.5677 15.3311L7.48928 15.6027L7.52227 15.984L7.4865 16.8468L7.42324 17.5258L7.50716 17.7082L7.55531 18.1074L7.55254 18.5202L7.67362 18.8069L7.8057 19.0579L7.80154 19.1869L7.73139 19.2678L7.67224 19.3734V20.3445L7.69701 20.6353L7.66124 20.8191L7.55943 20.9728L7.59931 21.4638L7.68189 21.7766L7.76443 22.007L7.68462 22.1991L7.61447 22.4528L7.50855 23.1002L7.50166 23.3252L5.88247 23.4829L4.07204 23.7422L3.31681 23.9109L3.27277 23.7806L3.91658 23.6119L3.78316 23.1057L3.38147 22.5076L3.22462 22.3979L3.14346 22.1003L3.24112 21.9055L3.19435 21.7738L3.16135 21.3706L2.96323 20.9248L3.32504 20.9069V19.4736V18.0964V16.9222V15.9922L3.25489 14.8771L3.24527 14.0582L3.23012 12.9773L3.09942 12.6399L2.55193 12.0679L2.40196 11.7716L2.37581 11.378L2.25339 10.9733L2.2465 10.2642L2.23689 9.43844L2.18735 9.30537L1.59304 8.91172L0.7525 8.35344L0.111422 7.92822L0.0646536 7.8967L0 7.79243L0.0935377 6.53324L0.225616 6.36865L0.430576 5.85017L0.529655 5.43044L0.621808 5.43182L0.751115 5.29603L0.855694 5.09573L0.967117 5.13964L1.15419 5.17807L1.2395 5.10674L1.2285 4.95173L1.29038 4.79534L1.43762 4.72402L1.47612 4.58412V4.42225L1.60269 4.37976L1.82004 4.38658L1.99612 4.33585L2.13781 4.25355L2.32215 3.92709L2.42535 3.81323L2.457 3.73231L2.56154 3.66098L2.84908 3.62808L3.08154 3.65278L3.23012 3.84207L4.22477 3.67609L4.698 3.77346L5.66512 2.95045L5.88385 2.70767L6.17685 2.12611L6.27727 1.90387L6.36808 1.50336L6.17685 0.764027L6.18785 0.632336L6.58681 0.473226L7.08481 0.349781L7.27743 0.340195L7.40535 0.277071L7.58697 0.116622L7.88274 0L8.05743 0.0384274L8.16474 0.0617433L9.21301 1.03972L9.66835 1.53354L9.78943 1.78591L10.0247 1.96834L10.3714 2.08081L10.6878 2.33185L10.934 2.68849Z" fill="var(--fill-0, #71B219)" stroke="var(--stroke-0, white)" mask="url(#path-1-inside-1_0_198)"/>
</g>
</svg>
