<svg preserveAspectRatio="none" width="100%" height="100%" overflow="visible" style="display: block;" viewBox="0 0 0.29379 0.190529" fill="none" xmlns="http://www.w3.org/2000/svg">
<g id="BL">
<mask id="path-1-inside-1_0_187" fill="white">
<path d="M0.169648 0.1864L0.110334 0.190529L0.0648283 0.15737L0.0234476 0.096655L0 0.035898L0.00551461 0L0.0399915 0.0165586L0.29379 0.0552375L0.266217 0.100784L0.222058 0.149112L0.169648 0.1864Z"/>
</mask>
<path d="M0.169648 0.1864L0.110334 0.190529L0.0648283 0.15737L0.0234476 0.096655L0 0.035898L0.00551461 0L0.0399915 0.0165586L0.29379 0.0552375L0.266217 0.100784L0.222058 0.149112L0.169648 0.1864Z" fill="var(--fill-0, #71B219)"/>
<path d="M0.169648 0.1864L0.204371 0.685193L0.344805 0.675417L0.459509 0.593807L0.169648 0.1864ZM0.110334 0.190529L-0.184123 0.594627L-0.036795 0.701982L0.145058 0.689322L0.110334 0.190529ZM0.0648283 0.15737L-0.348336 0.438965L-0.299586 0.510491L-0.229629 0.561467L0.0648283 0.15737ZM0.0234476 0.096655L-0.44302 0.276676L-0.422233 0.330541L-0.389716 0.37825L0.0234476 0.096655ZM0 0.035898L-0.494203 -0.0400208L-0.514429 0.0916439L-0.466468 0.215919L0 0.035898ZM0.00551461 0L0.221983 -0.450712L-0.386238 -0.74283L-0.488688 -0.0759188L0.00551461 0ZM0.0399915 0.0165586L-0.176477 0.467271L-0.109162 0.499601L-0.0353387 0.510851L0.0399915 0.0165586ZM0.29379 0.0552375L0.721518 0.314175L1.10923 -0.326263L0.36912 -0.439055L0.29379 0.0552375ZM0.266217 0.100784L0.635331 0.43806L0.668488 0.401772L0.693945 0.359722L0.266217 0.100784ZM0.222058 0.149112L0.511919 0.556519L0.555277 0.52567L0.591172 0.486387L0.222058 0.149112ZM0.169648 0.1864L0.134925 -0.312393L0.0756109 -0.308264L0.110334 0.190529L0.145058 0.689322L0.204371 0.685193L0.169648 0.1864ZM0.110334 0.190529L0.404792 -0.213568L0.359286 -0.246728L0.0648283 0.15737L-0.229629 0.561467L-0.184123 0.594627L0.110334 0.190529ZM0.0648283 0.15737L0.477992 -0.124225L0.436612 -0.18494L0.0234476 0.096655L-0.389716 0.37825L-0.348336 0.438965L0.0648283 0.15737ZM0.0234476 0.096655L0.489915 -0.0833664L0.466468 -0.144123L0 0.035898L-0.466468 0.215919L-0.44302 0.276676L0.0234476 0.096655ZM0 0.035898L0.494203 0.111817L0.499717 0.0759188L0.00551461 0L-0.488688 -0.0759188L-0.494203 -0.0400208L0 0.035898ZM0.00551461 0L-0.210954 0.450712L-0.176477 0.467271L0.0399915 0.0165586L0.25646 -0.434153L0.221983 -0.450712L0.00551461 0ZM0.0399915 0.0165586L-0.0353387 0.510851L0.21846 0.54953L0.29379 0.0552375L0.36912 -0.439055L0.115322 -0.477734L0.0399915 0.0165586ZM0.29379 0.0552375L-0.133938 -0.2037L-0.161511 -0.158154L0.266217 0.100784L0.693945 0.359722L0.721518 0.314175L0.29379 0.0552375ZM0.266217 0.100784L-0.102897 -0.236492L-0.147056 -0.188164L0.222058 0.149112L0.591172 0.486387L0.635331 0.43806L0.266217 0.100784ZM0.222058 0.149112L-0.0678033 -0.258295L-0.120213 -0.221007L0.169648 0.1864L0.459509 0.593807L0.511919 0.556519L0.222058 0.149112Z" fill="var(--stroke-0, white)" mask="url(#path-1-inside-1_0_187)"/>
</g>
</svg>
