<svg preserveAspectRatio="none" width="100%" height="100%" overflow="visible" style="display: block;" viewBox="0 0 0.750426 0.577457" fill="none" xmlns="http://www.w3.org/2000/svg">
<g id="BM">
<mask id="path-1-inside-1_0_223" fill="white">
<path d="M0.511259 0.423832L0.164925 0.577457L0.0687048 0.565109L0 0.512993L0.353213 0.359367L0.648711 0L0.750426 0.023316L0.511259 0.423832Z"/>
</mask>
<path d="M0.511259 0.423832L0.164925 0.577457L0.0687048 0.565109L0 0.512993L0.353213 0.359367L0.648711 0L0.750426 0.023316L0.511259 0.423832Z" fill="var(--fill-0, #71B219)"/>
<path d="M0.511259 0.423832L0.713997 0.880884L0.859139 0.816503L0.940545 0.680178L0.511259 0.423832ZM0.164925 0.577457L0.101278 1.07339L0.239905 1.09118L0.367663 1.03451L0.164925 0.577457ZM0.0687048 0.565109L-0.233469 0.963469L-0.127218 1.04407L0.005058 1.06104L0.0687048 0.565109ZM0 0.512993L-0.199423 0.0544842L-0.982686 0.395155L-0.302174 0.911354L0 0.512993ZM0.353213 0.359367L0.552636 0.817876L0.662987 0.76988L0.739416 0.676931L0.353213 0.359367ZM0.648711 0L0.760427 -0.48736L0.45895 -0.556467L0.262507 -0.317564L0.648711 0ZM0.750426 0.023316L1.17971 0.279663L1.53211 -0.310469L0.862142 -0.464044L0.750426 0.023316ZM0.511259 0.423832L0.308521 -0.0332213L-0.0378131 0.120405L0.164925 0.577457L0.367663 1.03451L0.713997 0.880884L0.511259 0.423832ZM0.164925 0.577457L0.228572 0.0815248L0.132352 0.0691762L0.0687048 0.565109L0.005058 1.06104L0.101278 1.07339L0.164925 0.577457ZM0.0687048 0.565109L0.370879 0.166748L0.302174 0.114633L0 0.512993L-0.302174 0.911354L-0.233469 0.963469L0.0687048 0.565109ZM0 0.512993L0.199423 0.971502L0.552636 0.817876L0.353213 0.359367L0.15379 -0.0991416L-0.199423 0.0544842L0 0.512993ZM0.353213 0.359367L0.739416 0.676931L1.03491 0.317564L0.648711 0L0.262507 -0.317564L-0.0329903 0.0418031L0.353213 0.359367ZM0.648711 0L0.536994 0.48736L0.638709 0.510676L0.750426 0.023316L0.862142 -0.464044L0.760427 -0.48736L0.648711 0ZM0.750426 0.023316L0.32114 -0.233031L0.0819732 0.167485L0.511259 0.423832L0.940545 0.680178L1.17971 0.279663L0.750426 0.023316Z" fill="var(--stroke-0, white)" mask="url(#path-1-inside-1_0_223)"/>
</g>
</svg>
