<svg preserveAspectRatio="none" width="100%" height="100%" overflow="visible" style="display: block;" viewBox="0 0 4.87547 3.83378" fill="none" xmlns="http://www.w3.org/2000/svg">
<path id="BN" d="M2.35938 1.09473L2.39551 1.23535L2.44043 1.41309H2.44141L2.51758 1.84766L2.55664 2.17676L2.56543 2.24707L2.61035 2.30273L2.70898 2.42676L2.73145 2.46191L2.73047 2.46582L2.57129 2.71191L2.4209 2.94238L2.57617 3.02344L2.52734 3.16113L2.36914 3.38184L2.1582 3.55566L2.14551 3.55957L2.125 3.5459L1.92383 3.3291L1.68555 3.00586L1.57812 2.81934L1.51172 2.70508L1.38086 2.69531L1.12598 2.67578L1.11621 2.66406L1.1123 2.55273L1.11035 2.50488L1.09082 2.46191L0.989258 2.23438L0.983398 2.22168L0.976562 2.20996L0.833008 1.96582L0.813477 1.93164L0.78418 1.90527L0.743164 1.86914L0.942383 1.84277L0.975586 1.83887L1.00684 1.8252L1.48926 1.62109L1.5 1.61719L1.50977 1.61133L1.97461 1.36523L1.98926 1.35645L2.00391 1.34668L2.37891 1.0752L2.35938 1.09473ZM4.04102 0.725586L4.05469 0.741211L4.26367 1.14551L4.39648 1.54199L4.44336 2.19434L4.44727 2.25684L4.48828 2.32129L4.3457 2.28906L4.23242 2.24316L4.05371 1.62988L3.9668 1.24609L3.97559 0.780273V0.770508L3.97461 0.725586H4.04102ZM2.95605 0.641602L2.7373 0.767578L2.77148 0.738281L3.12109 0.509766L3.2373 0.453125L2.95605 0.641602Z" fill="var(--fill-0, #71B219)" stroke="var(--stroke-0, white)" stroke-width="0.5"/>
</svg>
