<svg preserveAspectRatio="none" width="100%" height="100%" overflow="visible" style="display: block;" viewBox="0 0 5 4" fill="none" xmlns="http://www.w3.org/2000/svg"><path id="BN" d="M2 1L2 1L2 1H2L2 2L3 2L3 2L3 2L3 2L3 2L3 2L3 3L2 3L3 3L2 3L2 3L2 4L2 4L2 4L2 3L2 3L2 3L2 3L1 3L1 3L1 3L1 3L1 2L1 2L1 2L1 2L1 2L1 2L1 2L1 2L1 2L1 2L1 2L1 2L2 2L2 2L2 2L2 1L2 1L2 1L2 1L2 1ZM4 1L4 1L4 1L4 2L4 2L4 2L4 2L4 2L4 2L4 2L4 1L4 1V1L4 1H4ZM3 1L3 1L3 1L3 0L3 0L3 1Z" fill="var(--fill-0,#71B219)" stroke="var(--stroke-0,white)" stroke-width="0"/></svg>