<svg preserveAspectRatio="none" width="100%" height="100%" overflow="visible" style="display: block;" viewBox="0 0 46.9098 52.6774" fill="none" xmlns="http://www.w3.org/2000/svg">
<g id="BO">
<mask id="path-1-inside-1_0_204" fill="white">
<path d="M44.3455 41.4572L44.4225 40.781L44.3441 40.1953L44.2657 40.0444L43.1307 39.3476L42.1003 38.7139L40.7521 37.8854L39.0133 37.9087L37.2125 37.932L35.497 38.3024L33.809 38.6659L33.0084 38.8387L31.4029 39.1844L30.4578 39.3434L30.2102 40.0101L29.8401 41.0114L29.4728 41.5971L29.0491 42.213L28.4521 43.0813L28.4507 44.1375V45.1429L28.0311 46.5625L27.6734 47.7696L27.3295 48.9383L27.0929 49.7462L27.0048 49.9519L26.9498 49.8861L26.6444 49.6447L26.372 49.1893L26.2977 48.9822L26.2634 48.974L24.6263 48.9876L23.0511 49.0028L22.8901 49.0987L22.6632 49.0974L22.4967 49.0082L22.3344 49.0151L22.0991 49.1029L21.8886 49.2853L21.2875 50.4979L20.9903 51.0163L20.7688 51.4813L20.6079 52.2783L20.5405 52.4114L20.3534 52.1357L20.0769 51.4073L19.9531 50.9916L19.7756 50.5212L19.4592 49.93L19.0946 49.7517L18.8676 49.6927L18.5416 49.5802L17.9652 49.439L17.7134 49.4102L16.064 49.3909L15.9333 49.3758L15.2867 49.4403L14.9593 49.3964L14.6154 49.0673L13.8491 48.4884L13.695 48.3046L13.4006 48.1838L13.2259 48.1715L13.1186 48.2854L12.9865 48.7682L12.8297 49.2044L12.666 49.4554L12.1185 49.6406L11.6081 49.834L11.3274 49.8792L11.1775 50.0973L11.1115 50.4033L10.9863 50.6789L10.2489 51.0945L10.0852 51.2687L9.99989 51.6789L9.58858 52.1877L9.46201 52.3867L8.81543 52.5266L7.97489 52.6774L7.48378 52.6679L7.14808 52.628L7.04627 52.5362L6.81931 52.3921L6.78077 52.2317L6.77804 52.004L6.84131 51.5938L6.80966 51.026L6.54554 50.3648L6.56616 50.1522L6.53177 49.8285L6.39835 49.2209L6.05716 48.915L5.96085 48.4102L5.92096 47.9672L5.63347 47.413L5.5867 46.7079L5.59354 46.1044L5.14231 45.4035L4.67185 44.6601L4.29216 44.5585L4.19862 44.4694L4.15735 44.2568L4.14908 43.9262L4.17935 43.7259L4.47235 43.4008L4.48339 43.3514L4.42423 43.2829L3.66758 42.7973L3.47635 42.6561L3.41719 42.4832L3.42269 42.3269L3.60292 42.1677L3.69512 42.0498L3.51762 41.7041L3.5355 41.3914L3.42269 41.2569L3.43508 41.1555L3.54516 41.0691L4.03627 40.9689L4.18896 40.6521L4.19446 40.3887L4.12019 40.2022L3.66619 39.7317L3.65658 39.6521L4.13258 38.9979L4.47373 38.5685L4.56727 38.4807L4.53839 38.3875L4.45446 38.2736L4.2385 38.109L3.95785 37.9279L3.72535 37.7085L3.42269 37.3834L3.04166 37.1049L2.75962 36.8278L2.61519 36.5974L2.61242 36.3615L2.57393 35.9705L2.38958 35.3369L2.34004 34.9089L2.26023 34.4356L2.18046 34.127L2.13642 33.8294L2.00439 33.5071L1.93146 33.2711L2.03738 33.1052L2.14331 32.9762L2.13092 32.8953L1.40319 32.551L1.28211 32.4632L1.11015 31.7747L0.581924 31.1629L0.519999 30.7075V30.702V30.5237L0.477345 30.237L0.316383 30.0134L0.0756531 29.8584L0 29.6746L0.0797674 29.4812L0.548883 29.0985L0.800655 29.0341L0.866652 28.8393L1.01939 28.6857L1.46096 28.1233L1.72096 27.7543L1.981 27.5321L2.28227 27.3785L2.41296 27.2495L2.34415 26.8531L2.36481 26.5856L2.46935 26.4169L2.77061 26.2386L3.04166 26.1028L3.09942 26.0356L3.07604 25.9355L2.82704 25.7325L2.31388 25.5555L1.97412 25.5733L1.76639 25.417L1.65219 25.2839L0.979459 23.6434L0.868037 23.2607L0.876308 23.1126L1.32754 22.3033L1.5105 22.0386L1.82692 21.6572L1.7705 21.5064L1.21612 20.874L1.0455 20.5736L1.04965 20.2732L1.10465 19.9097L1.42658 19.7136L1.51877 19.4173L1.58615 19.1252L1.72373 19.0291L1.86404 18.8632L2.0305 18.6245L2.28916 18.416L2.44185 18.2569L2.47485 17.8138L2.60142 17.6931L2.95496 17.5519L2.99073 17.438L2.91096 17.1403L2.73485 16.8262L2.59181 16.6726L2.40331 15.9017L2.20662 15.519L2.28916 15.3654L2.42535 15.1706L2.55738 14.7852L2.60004 14.3366L2.56704 12.6879L2.57527 12.3628L2.74862 12.1365L3.00312 11.8731L3.21912 11.773L3.42269 11.607L3.40758 11.2957L3.54239 11.1119L3.70885 10.8814L3.19296 9.97475L2.739 9.17782L2.31388 8.43025L1.82138 7.56613L1.49812 6.99688L1.09504 6.29045L0.741501 5.67047L0.258614 4.82553L0.707075 4.81046L1.61092 4.84064L2.48585 4.9915L3.07877 5.05735L3.32643 5.18627L3.38142 5.3934L3.54516 5.48942L3.735 5.45238L3.94962 5.43865L4.42973 5.22742L4.81766 5.08614L5.15196 4.91745L5.32393 4.75281L5.74077 4.17536L6.07643 3.85714L6.38597 3.74604L6.98989 3.69941L7.18112 3.78991L7.42735 3.77894L7.64058 3.45114L7.96523 3.08901L8.60493 2.63772L8.92962 2.51427L9.13185 2.35654L9.47851 2.33323L9.78393 2.16864L11.2573 1.02875L11.8544 0.735227L12.2258 0.68173L12.5339 0.611782L13.0567 0.448529L14.3664 0.289419L15.2069 0.224955L15.4765 0.382725L15.7792 0.337433L16.0364 0.0822966L16.2497 0L16.4065 0.00686502L16.6321 0.308633L16.7422 0.629615L16.6693 0.873783L16.683 1.22901L16.7834 1.69265L16.7271 2.10689L16.4092 2.64735L16.2497 2.86816L16.2098 3.09587L16.2373 3.40313L16.3831 3.90239L16.6459 4.59647L16.6858 5.10946L16.5014 5.44279L16.4161 5.73083L16.4313 5.97362L16.4959 6.14369L16.6142 6.2411L16.6789 6.43449L16.6927 6.72529L16.8467 7.00647L17.1397 7.27805L17.2594 7.53595L17.2044 7.78284L17.2196 7.93785L17.3048 7.99821L17.3846 7.94882L17.4919 7.88021L17.5869 7.90491L17.7932 8.2492L17.8194 8.31915L17.9308 8.60447L17.9652 8.81984L18.2664 8.94052L18.5925 9.03517L18.7727 9.14764L19.1331 9.48918L19.4358 9.71413L19.8155 9.89794L19.9407 10.1928L20.1732 10.6373L20.8129 10.8073L21.5585 10.8924L22.0345 10.9898L22.615 10.7538L22.9988 10.7868L23.3964 10.9473L23.5656 11.057L23.8614 11.2861L24.3195 11.5796L24.6937 11.688L24.9606 11.5247L25.2068 11.4671L25.398 11.5357L25.4985 11.8553L25.5989 12.0707L25.8204 12.2339L26.295 12.6522L26.5632 12.8237L26.8659 12.8113L27.4905 13.0871L28.1563 13.3546L28.5002 13.3984L28.8386 13.3587L29.0629 13.4629L29.1537 13.7853L29.7328 14.4299L30.0053 14.6837L30.3299 14.9004L31.1567 14.8963L31.4043 14.9608L31.773 14.9032L32.8818 14.7934L33.0827 14.7591L33.71 15.0403L34.4515 15.4463L34.9426 15.7646L35.2851 15.9401L35.464 16.2254L35.6098 16.5231L35.6772 16.844L35.5878 17.1623L35.453 17.2912L35.4076 17.497L35.464 17.8056L35.7102 18.0813L35.801 18.4201L35.9358 19.0209L36.0872 19.2102L36.1848 21.0715L35.6882 21.0866L34.988 21.1086L35.193 21.2869L35.7721 21.981L36.3045 22.6215L36.3898 23.6503L36.4421 24.299L36.5178 25.2153L36.5618 25.7626L37.8921 25.812L39.4246 25.8682L41.2666 25.9368L42.8858 25.9972L43.0454 25.9903L43.3261 25.9163L43.5131 25.8188L43.6273 25.8216L43.6466 26.0438L43.6081 26.3236L43.6095 26.646L43.1458 27.2824L43.117 27.4827L43.1871 28.3222L43.3508 29.0025L43.4334 29.617L43.6191 29.8091L44.168 30.1341L44.9975 30.7349L45.3291 30.8131L45.6097 30.7308L45.7776 30.9763L45.8106 31.3727L46.2687 32.4797L46.559 33.1833L46.6924 33.4289L46.9098 33.5551L46.8685 33.647L46.6883 33.684L46.6071 33.8157L46.3553 34.6057L46.0238 35.6469L45.7996 36.3807L46.0018 36.3917L46.01 36.5947L46.0555 36.9047L45.8065 36.943L45.7321 37.0542L45.446 37.6563L45.0718 38.4451L44.6839 39.2626L44.4541 39.7467L44.8462 40.1048L45.4996 40.7028L45.3965 40.8687L45.1158 40.9525L44.8806 41.0101L44.7004 41.2364L44.6 41.4024L44.3455 41.4572Z"/>
</mask>
<path d="M44.3455 41.4572L44.4225 40.781L44.3441 40.1953L44.2657 40.0444L43.1307 39.3476L42.1003 38.7139L40.7521 37.8854L39.0133 37.9087L37.2125 37.932L35.497 38.3024L33.809 38.6659L33.0084 38.8387L31.4029 39.1844L30.4578 39.3434L30.2102 40.0101L29.8401 41.0114L29.4728 41.5971L29.0491 42.213L28.4521 43.0813L28.4507 44.1375V45.1429L28.0311 46.5625L27.6734 47.7696L27.3295 48.9383L27.0929 49.7462L27.0048 49.9519L26.9498 49.8861L26.6444 49.6447L26.372 49.1893L26.2977 48.9822L26.2634 48.974L24.6263 48.9876L23.0511 49.0028L22.8901 49.0987L22.6632 49.0974L22.4967 49.0082L22.3344 49.0151L22.0991 49.1029L21.8886 49.2853L21.2875 50.4979L20.9903 51.0163L20.7688 51.4813L20.6079 52.2783L20.5405 52.4114L20.3534 52.1357L20.0769 51.4073L19.9531 50.9916L19.7756 50.5212L19.4592 49.93L19.0946 49.7517L18.8676 49.6927L18.5416 49.5802L17.9652 49.439L17.7134 49.4102L16.064 49.3909L15.9333 49.3758L15.2867 49.4403L14.9593 49.3964L14.6154 49.0673L13.8491 48.4884L13.695 48.3046L13.4006 48.1838L13.2259 48.1715L13.1186 48.2854L12.9865 48.7682L12.8297 49.2044L12.666 49.4554L12.1185 49.6406L11.6081 49.834L11.3274 49.8792L11.1775 50.0973L11.1115 50.4033L10.9863 50.6789L10.2489 51.0945L10.0852 51.2687L9.99989 51.6789L9.58858 52.1877L9.46201 52.3867L8.81543 52.5266L7.97489 52.6774L7.48378 52.6679L7.14808 52.628L7.04627 52.5362L6.81931 52.3921L6.78077 52.2317L6.77804 52.004L6.84131 51.5938L6.80966 51.026L6.54554 50.3648L6.56616 50.1522L6.53177 49.8285L6.39835 49.2209L6.05716 48.915L5.96085 48.4102L5.92096 47.9672L5.63347 47.413L5.5867 46.7079L5.59354 46.1044L5.14231 45.4035L4.67185 44.6601L4.29216 44.5585L4.19862 44.4694L4.15735 44.2568L4.14908 43.9262L4.17935 43.7259L4.47235 43.4008L4.48339 43.3514L4.42423 43.2829L3.66758 42.7973L3.47635 42.6561L3.41719 42.4832L3.42269 42.3269L3.60292 42.1677L3.69512 42.0498L3.51762 41.7041L3.5355 41.3914L3.42269 41.2569L3.43508 41.1555L3.54516 41.0691L4.03627 40.9689L4.18896 40.6521L4.19446 40.3887L4.12019 40.2022L3.66619 39.7317L3.65658 39.6521L4.13258 38.9979L4.47373 38.5685L4.56727 38.4807L4.53839 38.3875L4.45446 38.2736L4.2385 38.109L3.95785 37.9279L3.72535 37.7085L3.42269 37.3834L3.04166 37.1049L2.75962 36.8278L2.61519 36.5974L2.61242 36.3615L2.57393 35.9705L2.38958 35.3369L2.34004 34.9089L2.26023 34.4356L2.18046 34.127L2.13642 33.8294L2.00439 33.5071L1.93146 33.2711L2.03738 33.1052L2.14331 32.9762L2.13092 32.8953L1.40319 32.551L1.28211 32.4632L1.11015 31.7747L0.581924 31.1629L0.519999 30.7075V30.702V30.5237L0.477345 30.237L0.316383 30.0134L0.0756531 29.8584L0 29.6746L0.0797674 29.4812L0.548883 29.0985L0.800655 29.0341L0.866652 28.8393L1.01939 28.6857L1.46096 28.1233L1.72096 27.7543L1.981 27.5321L2.28227 27.3785L2.41296 27.2495L2.34415 26.8531L2.36481 26.5856L2.46935 26.4169L2.77061 26.2386L3.04166 26.1028L3.09942 26.0356L3.07604 25.9355L2.82704 25.7325L2.31388 25.5555L1.97412 25.5733L1.76639 25.417L1.65219 25.2839L0.979459 23.6434L0.868037 23.2607L0.876308 23.1126L1.32754 22.3033L1.5105 22.0386L1.82692 21.6572L1.7705 21.5064L1.21612 20.874L1.0455 20.5736L1.04965 20.2732L1.10465 19.9097L1.42658 19.7136L1.51877 19.4173L1.58615 19.1252L1.72373 19.0291L1.86404 18.8632L2.0305 18.6245L2.28916 18.416L2.44185 18.2569L2.47485 17.8138L2.60142 17.6931L2.95496 17.5519L2.99073 17.438L2.91096 17.1403L2.73485 16.8262L2.59181 16.6726L2.40331 15.9017L2.20662 15.519L2.28916 15.3654L2.42535 15.1706L2.55738 14.7852L2.60004 14.3366L2.56704 12.6879L2.57527 12.3628L2.74862 12.1365L3.00312 11.8731L3.21912 11.773L3.42269 11.607L3.40758 11.2957L3.54239 11.1119L3.70885 10.8814L3.19296 9.97475L2.739 9.17782L2.31388 8.43025L1.82138 7.56613L1.49812 6.99688L1.09504 6.29045L0.741501 5.67047L0.258614 4.82553L0.707075 4.81046L1.61092 4.84064L2.48585 4.9915L3.07877 5.05735L3.32643 5.18627L3.38142 5.3934L3.54516 5.48942L3.735 5.45238L3.94962 5.43865L4.42973 5.22742L4.81766 5.08614L5.15196 4.91745L5.32393 4.75281L5.74077 4.17536L6.07643 3.85714L6.38597 3.74604L6.98989 3.69941L7.18112 3.78991L7.42735 3.77894L7.64058 3.45114L7.96523 3.08901L8.60493 2.63772L8.92962 2.51427L9.13185 2.35654L9.47851 2.33323L9.78393 2.16864L11.2573 1.02875L11.8544 0.735227L12.2258 0.68173L12.5339 0.611782L13.0567 0.448529L14.3664 0.289419L15.2069 0.224955L15.4765 0.382725L15.7792 0.337433L16.0364 0.0822966L16.2497 0L16.4065 0.00686502L16.6321 0.308633L16.7422 0.629615L16.6693 0.873783L16.683 1.22901L16.7834 1.69265L16.7271 2.10689L16.4092 2.64735L16.2497 2.86816L16.2098 3.09587L16.2373 3.40313L16.3831 3.90239L16.6459 4.59647L16.6858 5.10946L16.5014 5.44279L16.4161 5.73083L16.4313 5.97362L16.4959 6.14369L16.6142 6.2411L16.6789 6.43449L16.6927 6.72529L16.8467 7.00647L17.1397 7.27805L17.2594 7.53595L17.2044 7.78284L17.2196 7.93785L17.3048 7.99821L17.3846 7.94882L17.4919 7.88021L17.5869 7.90491L17.7932 8.2492L17.8194 8.31915L17.9308 8.60447L17.9652 8.81984L18.2664 8.94052L18.5925 9.03517L18.7727 9.14764L19.1331 9.48918L19.4358 9.71413L19.8155 9.89794L19.9407 10.1928L20.1732 10.6373L20.8129 10.8073L21.5585 10.8924L22.0345 10.9898L22.615 10.7538L22.9988 10.7868L23.3964 10.9473L23.5656 11.057L23.8614 11.2861L24.3195 11.5796L24.6937 11.688L24.9606 11.5247L25.2068 11.4671L25.398 11.5357L25.4985 11.8553L25.5989 12.0707L25.8204 12.2339L26.295 12.6522L26.5632 12.8237L26.8659 12.8113L27.4905 13.0871L28.1563 13.3546L28.5002 13.3984L28.8386 13.3587L29.0629 13.4629L29.1537 13.7853L29.7328 14.4299L30.0053 14.6837L30.3299 14.9004L31.1567 14.8963L31.4043 14.9608L31.773 14.9032L32.8818 14.7934L33.0827 14.7591L33.71 15.0403L34.4515 15.4463L34.9426 15.7646L35.2851 15.9401L35.464 16.2254L35.6098 16.5231L35.6772 16.844L35.5878 17.1623L35.453 17.2912L35.4076 17.497L35.464 17.8056L35.7102 18.0813L35.801 18.4201L35.9358 19.0209L36.0872 19.2102L36.1848 21.0715L35.6882 21.0866L34.988 21.1086L35.193 21.2869L35.7721 21.981L36.3045 22.6215L36.3898 23.6503L36.4421 24.299L36.5178 25.2153L36.5618 25.7626L37.8921 25.812L39.4246 25.8682L41.2666 25.9368L42.8858 25.9972L43.0454 25.9903L43.3261 25.9163L43.5131 25.8188L43.6273 25.8216L43.6466 26.0438L43.6081 26.3236L43.6095 26.646L43.1458 27.2824L43.117 27.4827L43.1871 28.3222L43.3508 29.0025L43.4334 29.617L43.6191 29.8091L44.168 30.1341L44.9975 30.7349L45.3291 30.8131L45.6097 30.7308L45.7776 30.9763L45.8106 31.3727L46.2687 32.4797L46.559 33.1833L46.6924 33.4289L46.9098 33.5551L46.8685 33.647L46.6883 33.684L46.6071 33.8157L46.3553 34.6057L46.0238 35.6469L45.7996 36.3807L46.0018 36.3917L46.01 36.5947L46.0555 36.9047L45.8065 36.943L45.7321 37.0542L45.446 37.6563L45.0718 38.4451L44.6839 39.2626L44.4541 39.7467L44.8462 40.1048L45.4996 40.7028L45.3965 40.8687L45.1158 40.9525L44.8806 41.0101L44.7004 41.2364L44.6 41.4024L44.3455 41.4572Z" fill="var(--fill-0, #71B219)" stroke="var(--stroke-0, white)" mask="url(#path-1-inside-1_0_204)"/>
</g>
</svg>
