<svg preserveAspectRatio="none" width="100%" height="100%" overflow="visible" style="display: block;" viewBox="0 0 47 53" fill="none" xmlns="http://www.w3.org/2000/svg"><g id="BO"><mask id="path-1-inside-1_0_204" fill="white"><path d="M44 42L44 41L44 40L44 40L43 39L42 39L41 38L39 38L37 38L36 38L34 39L33 39L31 39L30 39L30 40L30 41L30 42L29 42L28 43L28 44V45L28 47L28 48L27 49L27 50L27 50L27 50L27 50L26 49L26 49L26 49L25 49L23 49L23 49L23 49L22 49L22 49L22 49L22 49L21 50L21 51L21 52L21 52L20 52L20 52L20 51L20 51L20 50L20 50L19 50L19 50L18 50L18 49L18 49L16 49L16 49L15 49L15 49L15 49L14 48L14 48L13 48L13 48L13 48L13 49L13 49L13 50L12 50L12 50L11 50L11 50L11 50L11 51L10 51L10 51L10 52L10 52L10 52L9 52L8 53L8 53L7 53L7 52L7 52L7 52L7 52L7 52L7 51L6 50L7 50L6 50L6 49L6 49L6 48L6 48L6 47L6 47L6 46L5 45L5 45L4 45L4 44L4 44L4 44L4 44L4 43L4 43L4 43L4 43L4 43L3 42L3 42L4 42L4 42L4 42L4 41L3 41L3 41L4 41L4 41L4 41L4 40L4 40L4 40L4 40L4 39L4 39L5 38L4 38L4 38L4 38L4 38L4 38L3 37L3 37L3 37L3 37L3 36L3 36L2 35L2 35L2 34L2 34L2 34L2 34L2 33L2 33L2 33L2 33L1 33L1 32L1 32L1 31L0 31V31V30L0 30L0 30L0 30L0 30L0 30L0 29L1 29L1 29L1 29L2 28L2 28L2 28L2 27L2 27L2 27L2 27L2 26L3 26L3 26L3 26L3 26L3 26L2 26L2 26L2 25L2 25L1 24L1 23L1 23L1 22L2 22L2 22L2 22L1 21L1 21L1 20L1 20L1 20L2 19L2 19L2 19L2 19L2 19L2 18L2 18L2 18L3 18L3 18L3 17L3 17L3 17L3 17L2 16L2 16L2 15L2 15L3 15L3 14L3 13L3 12L3 12L3 12L3 12L3 12L3 11L4 11L4 11L3 10L3 9L2 8L2 8L2 7L1 6L1 6L0 5L1 5L2 5L2 5L3 5L3 5L3 5L4 6L4 6L4 5L4 5L5 5L5 5L5 5L6 4L6 4L6 4L7 4L7 4L7 4L8 4L8 3L9 3L9 2L9 2L10 2L10 2L11 1L12 1L12 1L12 1L13 0L14 0L15 0L16 0L16 0L16 0L16 0L16 0L17 0L17 1L17 1L17 1L17 2L17 2L16 3L16 3L16 3L16 3L16 4L17 5L17 5L16 5L16 6L16 6L16 6L17 6L17 6L17 7L17 7L17 7L17 8L17 8L17 8L17 8L17 8L18 8L18 8L18 8L18 8L18 9L18 9L18 9L19 9L19 9L19 10L19 10L20 10L20 10L20 11L21 11L22 11L22 11L23 11L23 11L23 11L24 11L24 11L24 12L25 12L25 12L25 12L25 12L26 12L26 12L26 12L26 13L27 13L27 13L28 13L28 13L28 13L29 13L29 14L29 14L30 14L30 15L30 15L31 15L31 15L32 15L33 15L33 15L34 15L34 15L35 16L35 16L36 16L36 16L36 17L36 17L36 17L35 18L36 18L36 18L36 18L36 19L36 19L36 21L36 21L35 21L35 21L36 22L36 23L36 24L36 24L36 25L37 26L38 26L39 26L41 26L43 26L43 26L43 26L44 26L44 26L44 26L44 26L44 27L43 27L43 28L43 28L43 29L43 30L44 30L44 30L45 31L45 31L46 31L46 31L46 31L46 32L47 33L47 33L47 34L47 34L47 34L47 34L46 35L46 36L46 36L46 36L46 37L46 37L46 37L46 37L45 38L45 38L45 39L44 40L45 40L46 41L45 41L45 41L45 41L45 41L45 41L44 42Z"/></mask><path d="M44 42L44 41L44 40L44 40L43 39L42 39L41 38L39 38L37 38L36 38L34 39L33 39L31 39L30 39L30 40L30 41L30 42L29 42L28 43L28 44V45L28 47L28 48L27 49L27 50L27 50L27 50L27 50L26 49L26 49L26 49L25 49L23 49L23 49L23 49L22 49L22 49L22 49L22 49L21 50L21 51L21 52L21 52L20 52L20 52L20 51L20 51L20 50L20 50L19 50L19 50L18 50L18 49L18 49L16 49L16 49L15 49L15 49L15 49L14 48L14 48L13 48L13 48L13 48L13 49L13 49L13 50L12 50L12 50L11 50L11 50L11 50L11 51L10 51L10 51L10 52L10 52L10 52L9 52L8 53L8 53L7 53L7 52L7 52L7 52L7 52L7 52L7 51L6 50L7 50L6 50L6 49L6 49L6 48L6 48L6 47L6 47L6 46L5 45L5 45L4 45L4 44L4 44L4 44L4 44L4 43L4 43L4 43L4 43L4 43L3 42L3 42L4 42L4 42L4 42L4 41L3 41L3 41L4 41L4 41L4 41L4 40L4 40L4 40L4 40L4 39L4 39L5 38L4 38L4 38L4 38L4 38L4 38L3 37L3 37L3 37L3 37L3 36L3 36L2 35L2 35L2 34L2 34L2 34L2 34L2 33L2 33L2 33L2 33L1 33L1 32L1 32L1 31L0 31V31V30L0 30L0 30L0 30L0 30L0 30L0 29L1 29L1 29L1 29L2 28L2 28L2 28L2 27L2 27L2 27L2 27L2 26L3 26L3 26L3 26L3 26L3 26L2 26L2 26L2 25L2 25L1 24L1 23L1 23L1 22L2 22L2 22L2 22L1 21L1 21L1 20L1 20L1 20L2 19L2 19L2 19L2 19L2 19L2 18L2 18L2 18L3 18L3 18L3 17L3 17L3 17L3 17L2 16L2 16L2 15L2 15L3 15L3 14L3 13L3 12L3 12L3 12L3 12L3 12L3 11L4 11L4 11L3 10L3 9L2 8L2 8L2 7L1 6L1 6L0 5L1 5L2 5L2 5L3 5L3 5L3 5L4 6L4 6L4 5L4 5L5 5L5 5L5 5L6 4L6 4L6 4L7 4L7 4L7 4L8 4L8 3L9 3L9 2L9 2L10 2L10 2L11 1L12 1L12 1L12 1L13 0L14 0L15 0L16 0L16 0L16 0L16 0L16 0L17 0L17 1L17 1L17 1L17 2L17 2L16 3L16 3L16 3L16 3L16 4L17 5L17 5L16 5L16 6L16 6L16 6L17 6L17 6L17 7L17 7L17 7L17 8L17 8L17 8L17 8L17 8L18 8L18 8L18 8L18 8L18 9L18 9L18 9L19 9L19 9L19 10L19 10L20 10L20 10L20 11L21 11L22 11L22 11L23 11L23 11L23 11L24 11L24 11L24 12L25 12L25 12L25 12L25 12L26 12L26 12L26 12L26 13L27 13L27 13L28 13L28 13L28 13L29 13L29 14L29 14L30 14L30 15L30 15L31 15L31 15L32 15L33 15L33 15L34 15L34 15L35 16L35 16L36 16L36 16L36 17L36 17L36 17L35 18L36 18L36 18L36 18L36 19L36 19L36 21L36 21L35 21L35 21L36 22L36 23L36 24L36 24L36 25L37 26L38 26L39 26L41 26L43 26L43 26L43 26L44 26L44 26L44 26L44 26L44 27L43 27L43 28L43 28L43 29L43 30L44 30L44 30L45 31L45 31L46 31L46 31L46 31L46 32L47 33L47 33L47 34L47 34L47 34L47 34L46 35L46 36L46 36L46 36L46 37L46 37L46 37L46 37L45 38L45 38L45 39L44 40L45 40L46 41L45 41L45 41L45 41L45 41L45 41L44 42Z" fill="var(--fill-0,#71B219)" stroke="var(--stroke-0,white)" mask="url(#path-1-inside-1_0_204)"/></g></svg>