<svg preserveAspectRatio="none" width="100%" height="100%" overflow="visible" style="display: block;" viewBox="0 0 20.9766 22.2512" fill="none" xmlns="http://www.w3.org/2000/svg">
<g id="BQ">
<mask id="path-1-inside-1_0_203" fill="white">
<path d="M0.636921 21.8108L0.449846 22.2512L0.342538 22.055L0.323268 21.7052L0.246229 21.5681L0.0866526 21.4844L0 21.3692L0.0068432 21.1963L0.584653 21.4734L0.636921 21.8108ZM20.9766 0.626852L20.883 0.71053L20.8005 0.703665L20.7454 0.62275L20.7358 0.488338L20.8142 0.525342L20.8431 0.545937L20.8679 0.573355L20.9766 0.626852ZM19.8375 0.11524L19.8031 0.13031L19.7536 0.0932639L19.7618 0.0274601L19.8031 0L19.8347 0.0192137L19.8595 0.0713293L19.8375 0.11524Z"/>
</mask>
<path d="M0.636921 21.8108L0.449846 22.2512L0.342538 22.055L0.323268 21.7052L0.246229 21.5681L0.0866526 21.4844L0 21.3692L0.0068432 21.1963L0.584653 21.4734L0.636921 21.8108ZM20.9766 0.626852L20.883 0.71053L20.8005 0.703665L20.7454 0.62275L20.7358 0.488338L20.8142 0.525342L20.8431 0.545937L20.8679 0.573355L20.9766 0.626852ZM19.8375 0.11524L19.8031 0.13031L19.7536 0.0932639L19.7618 0.0274601L19.8031 0L19.8347 0.0192137L19.8595 0.0713293L19.8375 0.11524Z" fill="var(--fill-0, #71B219)"/>
<path d="M0.636921 21.8108L1.09711 22.0064L1.15285 21.8752L1.13103 21.7343L0.636921 21.8108ZM0.449846 22.2512L0.0111939 22.4911L0.506489 23.3965L0.910035 22.4467L0.449846 22.2512ZM0.342538 22.055L-0.156705 22.0825L-0.150474 22.1956L-0.0961142 22.295L0.342538 22.055ZM0.323268 21.7052L0.822511 21.6777L0.816119 21.5617L0.759222 21.4604L0.323268 21.7052ZM0.246229 21.5681L0.682183 21.3232L0.609637 21.194L0.478429 21.1252L0.246229 21.5681ZM0.0866526 21.4844L-0.312925 21.7849L-0.24525 21.8749L-0.145547 21.9272L0.0866526 21.4844ZM0 21.3692L-0.499609 21.3494L-0.506656 21.5274L-0.399577 21.6697L0 21.3692ZM0.0068432 21.1963L0.223032 20.7455L-0.46268 20.4167L-0.492765 21.1766L0.0068432 21.1963ZM0.584653 21.4734L1.07876 21.3969L1.03843 21.1365L0.800842 21.0226L0.584653 21.4734ZM20.9766 0.626852L21.3099 0.9995L21.8622 0.505459L21.1973 0.178244L20.9766 0.626852ZM20.883 0.71053L20.8416 1.20881L21.056 1.22664L21.2164 1.08318L20.883 0.71053ZM20.8005 0.703665L20.3871 0.98488L20.5213 1.18217L20.759 1.20194L20.8005 0.703665ZM20.7454 0.62275L20.2467 0.658422L20.2563 0.792675L20.332 0.903965L20.7454 0.62275ZM20.7358 0.488338L20.9493 0.036192L20.1761 -0.328829L20.2371 0.52401L20.7358 0.488338ZM20.8142 0.525342L21.1042 0.118033L21.0679 0.0922062L21.0277 0.0731961L20.8142 0.525342ZM20.8431 0.545937L21.2144 0.211069L21.1777 0.170396L21.1331 0.138628L20.8431 0.545937ZM20.8679 0.573355L20.4966 0.908222L20.5609 0.979548L20.6471 1.02196L20.8679 0.573355ZM19.8375 0.11524L20.0382 0.573189L20.2036 0.500687L20.2845 0.339201L19.8375 0.11524ZM19.8031 0.13031L19.5037 0.530732L19.737 0.705203L20.0038 0.588258L19.8031 0.13031ZM19.7535 0.0932638L19.2575 0.0309114L19.2212 0.319499L19.4541 0.493686L19.7535 0.0932638ZM19.7618 0.0274601L19.4848 -0.38881L19.2943 -0.262007L19.2657 -0.0348924L19.7618 0.0274601ZM19.8031 0L20.0625 -0.427426L19.7908 -0.592374L19.5261 -0.41627L19.8031 0ZM19.8347 0.0192137L20.2865 -0.195124L20.2223 -0.330477L20.0942 -0.408213L19.8347 0.0192137ZM19.8595 0.0713293L20.3065 0.29529L20.4157 0.0772854L20.3112 -0.143008L19.8595 0.0713293ZM0.636921 21.8108L0.176733 21.6153L-0.0103429 22.0557L0.449846 22.2512L0.910035 22.4467L1.09711 22.0064L0.636921 21.8108ZM0.449846 22.2512L0.888498 22.0112L0.78119 21.8151L0.342538 22.055L-0.0961142 22.295L0.0111939 22.4911L0.449846 22.2512ZM0.342538 22.055L0.841781 22.0275L0.822511 21.6777L0.323268 21.7052L-0.175975 21.7327L-0.156705 22.0825L0.342538 22.055ZM0.323268 21.7052L0.759222 21.4604L0.682183 21.3232L0.246229 21.5681L-0.189725 21.8129L-0.112686 21.9501L0.323268 21.7052ZM0.246229 21.5681L0.478429 21.1252L0.318852 21.0416L0.0866526 21.4844L-0.145547 21.9272L0.0140296 22.0109L0.246229 21.5681ZM0.0866526 21.4844L0.48623 21.1838L0.399577 21.0686L0 21.3692L-0.399577 21.6697L-0.312925 21.7849L0.0866526 21.4844ZM0 21.3692L0.499609 21.389L0.506452 21.2161L0.0068432 21.1963L-0.492765 21.1766L-0.499609 21.3494L0 21.3692ZM0.0068432 21.1963L-0.209346 21.6472L0.368464 21.9243L0.584653 21.4734L0.800842 21.0226L0.223032 20.7455L0.0068432 21.1963ZM0.584653 21.4734L0.0905456 21.55L0.142814 21.8874L0.636921 21.8108L1.13103 21.7343L1.07876 21.3969L0.584653 21.4734ZM20.9766 0.626852L20.6432 0.254204L20.5496 0.337882L20.883 0.71053L21.2164 1.08318L21.3099 0.9995L20.9766 0.626852ZM20.883 0.71053L20.9245 0.21225L20.8419 0.205385L20.8005 0.703665L20.759 1.20194L20.8416 1.20881L20.883 0.71053ZM20.8005 0.703665L21.2139 0.42245L21.1589 0.341535L20.7454 0.62275L20.332 0.903965L20.3871 0.98488L20.8005 0.703665ZM20.7454 0.62275L21.2442 0.587077L21.2345 0.452665L20.7358 0.488338L20.2371 0.52401L20.2467 0.658422L20.7454 0.62275ZM20.7358 0.488338L20.5224 0.940483L20.6007 0.977487L20.8142 0.525342L21.0277 0.0731961L20.9493 0.036192L20.7358 0.488338ZM20.8142 0.525342L20.5242 0.932651L20.5531 0.953246L20.8431 0.545937L21.1331 0.138628L21.1042 0.118033L20.8142 0.525342ZM20.8431 0.545937L20.4718 0.880804L20.4966 0.908222L20.8679 0.573355L21.2392 0.238488L21.2144 0.211069L20.8431 0.545937ZM20.8679 0.573355L20.6471 1.02196L20.7558 1.07546L20.9766 0.626852L21.1973 0.178244L21.0887 0.124747L20.8679 0.573355ZM19.8375 0.11524L19.6368 -0.342708L19.6024 -0.327639L19.8031 0.13031L20.0038 0.588258L20.0382 0.573189L19.8375 0.11524ZM19.8031 0.13031L20.1025 -0.270112L20.053 -0.307158L19.7535 0.0932638L19.4541 0.493686L19.5037 0.530732L19.8031 0.13031ZM19.7535 0.0932638L20.2496 0.155616L20.2579 0.0898126L19.7618 0.0274601L19.2657 -0.0348924L19.2575 0.0309114L19.7535 0.0932638ZM19.7618 0.0274601L20.0388 0.44373L20.0801 0.41627L19.8031 0L19.5261 -0.41627L19.4848 -0.38881L19.7618 0.0274601ZM19.8031 0L19.5437 0.427426L19.5753 0.44664L19.8347 0.0192137L20.0942 -0.408213L20.0625 -0.427426L19.8031 0ZM19.8347 0.0192137L19.383 0.233551L19.4077 0.285667L19.8595 0.0713293L20.3112 -0.143008L20.2865 -0.195124L19.8347 0.0192137ZM19.8595 0.0713293L19.4124 -0.152632L19.3904 -0.108721L19.8375 0.11524L20.2845 0.339201L20.3065 0.29529L19.8595 0.0713293Z" fill="var(--stroke-0, white)" mask="url(#path-1-inside-1_0_203)"/>
</g>
</svg>
