<svg preserveAspectRatio="none" width="100%" height="100%" overflow="visible" style="display: block;" viewBox="0 0 21 22" fill="none" xmlns="http://www.w3.org/2000/svg"><g id="BQ"><mask id="path-1-inside-1_0_203" fill="white"><path d="M1 22L0 22L0 22L0 22L0 22L0 22L0 21L0 21L1 22L1 22ZM21 1L21 1L21 1L21 1L21 0L21 0L21 0L21 1L21 1ZM20 0L20 0L20 0L20 0L20 0L20 0L20 0L20 0Z"/></mask><path d="M1 22L0 22L0 22L0 22L0 22L0 22L0 21L0 21L1 22L1 22ZM21 1L21 1L21 1L21 1L21 0L21 0L21 0L21 1L21 1ZM20 0L20 0L20 0L20 0L20 0L20 0L20 0L20 0Z" fill="var(--fill-0,#71B219)"/><path d="M1 22L1 22L1 22L1 22L1 22ZM0 22L0 22L0 23L1 22L0 22ZM0 22L0 22L0 22L0 22L0 22ZM0 22L1 22L1 22L1 22L0 22ZM0 22L1 21L1 21L0 21L0 22ZM0 22L0 22L0 22L0 22L0 22ZM0 21L0 21L0 22L0 22L0 21ZM0 21L0 21L0 20L0 21L0 21ZM1 22L1 21L1 21L1 21L1 22ZM21 1L21 1L22 0L21 0L21 1ZM21 1L21 1L21 1L21 1L21 1ZM21 1L20 1L20 1L21 1L21 1ZM21 1L20 1L20 1L20 1L21 1ZM21 0L21 0L20 0L20 0L21 0ZM21 0L21 0L21 0L21 0L21 0ZM21 0L21 0L21 0L21 0L21 0ZM21 1L20 1L21 1L21 1L21 1ZM20 0L20 1L20 0L20 0L20 0ZM20 0L20 0L20 1L20 1L20 0ZM20 0L19 0L19 0L20 0L20 0ZM20 0L20 0L19 0L19 0L20 0ZM20 0L20 0L20 -1L20 0L20 0ZM20 0L20 0L20 0L20 0L20 0ZM20 0L20 0L20 0L20 0L20 0ZM1 22L0 22L0 22L0 22L1 22L1 22L1 22ZM0 22L1 22L1 22L0 22L0 22L0 22L0 22ZM0 22L1 22L1 22L0 22L0 22L0 22L0 22ZM0 22L1 22L1 21L0 22L0 22L0 22L0 22ZM0 22L0 21L0 21L0 22L0 22L0 22L0 22ZM0 22L0 21L0 21L0 21L0 22L0 22L0 22ZM0 21L0 21L0 21L0 21L0 21L0 21L0 21ZM0 21L0 22L0 22L1 22L1 21L0 21L0 21ZM1 22L0 22L0 22L1 22L1 22L1 21L1 22ZM21 1L21 0L20 0L21 1L21 1L21 1L21 1ZM21 1L21 0L21 0L21 1L21 1L21 1L21 1ZM21 1L21 0L21 0L21 1L20 1L20 1L21 1ZM21 1L21 1L21 0L21 0L20 0L20 1L21 1ZM21 0L20 1L21 1L21 0L21 0L21 0L21 0ZM21 0L20 1L21 1L21 0L21 0L21 0L21 0ZM21 0L20 1L20 1L21 1L21 0L21 0L21 0ZM21 1L21 1L21 1L21 1L21 0L21 0L21 1ZM20 0L20 0L20 0L20 0L20 1L20 1L20 0ZM20 0L20 0L20 0L20 0L20 0L20 0L20 0ZM20 0L20 0L20 0L20 0L19 0L19 0L20 0ZM20 0L20 0L20 0L20 0L20 0L20 0L20 0ZM20 0L20 0L20 0L20 0L20 0L20 0L20 0ZM20 0L19 0L19 0L20 0L20 0L20 0L20 0ZM20 0L19 0L19 0L20 0L20 0L20 0L20 0Z" fill="var(--stroke-0,white)" mask="url(#path-1-inside-1_0_203)"/></g></svg>