<svg preserveAspectRatio="none" width="100%" height="100%" overflow="visible" style="display: block;" viewBox="0 0 151.322 157.432" fill="none" xmlns="http://www.w3.org/2000/svg">
<g id="BR">
<mask id="path-1-inside-1_0_88" fill="white">
<path d="M67.6139 12.7112L67.7295 12.7482L67.9881 12.7798L68.6017 12.9265L69.4024 13.0925L69.6211 13.0349L69.7518 12.9183L69.7821 12.5768L69.8068 12.3354L69.6266 12.1228L69.4024 11.8813L69.196 11.581L68.9484 11.4945L68.98 11.3396L69.141 11.1791L69.3061 11.0913L69.401 10.9829L69.5055 10.5824L69.5743 10.5111L69.6445 10.4932L69.727 10.5083L69.8907 10.6126L70.5208 10.9308L70.7973 10.8828L71.8538 10.7991L72.0134 10.6153L72.2377 10.5741L72.6174 10.3903L72.7673 10.378L72.9021 10.4219L73.0713 10.3876L73.3203 10.2162L73.4249 10.1983L73.4648 10.3876L73.6258 10.5838L73.8211 10.7634L73.9146 10.8046L74.2421 10.747L74.414 10.7977L74.4883 10.9651L74.5103 11.1105L74.6479 11.2339L74.8239 11.2367L74.9175 11.2874L75.0785 11.367L75.2147 11.5494L75.5311 11.6948L76.0717 11.8978L76.3235 11.9006L76.5573 11.9623L76.7004 12.024L76.8559 11.9101L77.4089 11.596L77.6785 11.4205L77.8601 11.2874L77.9963 11.1612L78.0981 11.1283L78.1669 11.2038L78.2261 11.3053L78.4241 11.3643L78.8864 11.4822L79.0983 11.5151L79.3954 11.415L79.6499 11.2435L79.7709 11.1845L79.9594 11.356L80.0888 11.596L80.1754 11.7016L80.3666 11.677L80.745 11.714L81.0242 11.7908L81.1976 11.784L81.4342 11.677L81.5621 11.4657L81.8978 11.2723L82.217 11.094L82.3999 10.8567L82.6709 10.4617L82.7617 10.293L82.781 10.0077L83.162 9.17916L83.3065 9.02692L83.3918 8.76492L83.5445 8.46177V8.20801L83.6559 7.96251L83.8746 7.75128L84.0356 7.61821L84.2942 7.26156L84.4745 6.92551L84.9243 6.1807L84.9587 5.96947L85.1375 5.84327L85.1967 5.68277L85.3879 5.4839L85.5888 5.32755L85.6754 5.09573L85.8226 4.85566L86.1445 4.676L86.2642 4.59371L86.6301 3.93257L86.6714 3.63763L87.0016 3.62666L87.5202 3.96819L87.9343 4.4716L88.4887 6.08882L88.5809 7.58254L88.8052 8.3644L89.4503 9.99393L89.4916 10.2957L89.5948 10.6606L89.7984 11.0474L90.024 11.6838L90.0323 11.8018L89.8864 11.9746L90.101 11.987L90.295 12.0899L90.4216 12.4931L90.5825 12.7661L90.8742 13.1392L91.4712 13.2613L91.9225 13.3065L92.4356 13.5177L92.8125 13.788L93.1042 14.7056L93.0093 15.2817L93.0382 15.6877L92.8868 15.8468L92.4645 16.1129L92.3723 16.2542L91.5098 16.94L91.3213 17.2638L90.859 17.6986L90.4009 18.5271L89.731 19.2842L89.4943 19.4762L89.1325 19.5202L88.9125 19.6367L88.3924 20.2554L87.6936 20.4611L87.6289 20.8191L87.2258 21.6366L86.8695 22.0838L86.6425 22.2347L86.0716 23.0494L85.9987 23.4061L86.0015 24.0302L85.6204 24.4101L85.2242 24.6515L85.1747 25.1851L84.9958 25.3676L84.8431 25.4855L84.037 25.3456L82.7851 25.9258L82.3573 26.0698L83.7233 26.0986L84.1622 26.4073L85.1238 26.2029L86.2876 25.4677L86.732 25.3127L87.6344 24.8134L88.0017 24.4801L88.6703 24.081L88.8134 23.9054L89.1876 23.7188L89.3912 23.9561L89.4077 24.1056L89.0995 24.3978L89.1793 24.5857L89.3815 24.8216L89.4545 25.1481L89.482 25.3964L89.6071 25.8312L90.0213 26.4196L90.035 26.6144L89.9772 26.8709L90.1753 27.0821L90.3803 27.207L91.0847 27.8407L91.6349 27.4868L91.9747 27.3839L92.1907 27.2358L92.6447 27.137L93.0161 27.2852L93.7246 27.4978L94.2433 27.2714L95.2915 26.753L94.9641 27.6706L94.7261 28.5128L94.5459 28.853L94.3671 29.7693L94.191 30.0148L94.0479 30.2946L94.2818 30.1972L94.4826 30.0642L94.7399 29.7116L94.9325 29.0985L95.6918 27.4621L95.9092 27.3167L96.5407 27.1302L97.6275 25.8216L98.0525 25.8257L98.3249 26.1261L98.5822 26.3044L98.6482 25.9464L99.0197 25.801L98.6276 25.6241L98.5643 25.4636L98.5272 25.1961L98.794 24.834L98.6345 24.513L99.1875 24.1098L99.1449 23.8066L99.3429 23.557L99.5933 23.2991L99.8767 23.1743L99.929 22.9534L100.108 22.8629L100.248 22.83L100.525 23.0769L100.825 22.7861L101.116 22.6722L101.247 22.723L101.411 22.8519L101.583 22.9068L101.722 22.8835L102.083 22.6969L102.418 22.9973L102.618 23.0632L102.563 22.8944L102.458 22.7381L102.54 22.6105L102.698 22.531L103.199 22.6023L103.462 22.7367L103.747 22.985L104.141 23.0028L104.452 22.9767L104.648 23.1167L104.965 23.1153L105.125 23.3334L105.609 23.6392L105.714 23.8464L106.103 23.9465L106.469 24.0741L106.858 24.1084L107.252 24.0782L107.268 24.3402L107.556 24.4115L107.926 24.3539L108.205 24.6762L108.952 24.919L109.469 25.2907L109.809 25.2249L110.189 25.3236L110.596 26.1316L110.688 26.7049L110.87 26.6254L111.039 26.3689L111.256 25.8998L111.665 25.7448L111.86 25.9245L112.269 26.2125L112.621 26.528L112.77 26.731L113.035 26.7639L112.814 27.0136L113.037 26.9875L113.305 26.8106L113.535 27.1782L113.708 27.5787L113.742 27.9861L113.579 28.2193L113.436 28.366L113.276 28.6541L113.088 28.7062L112.899 28.7995L113.114 29.0093L113.261 29.211L113.583 28.665L113.81 28.5114L114.137 28.4264L114.308 28.8146L114.344 29.1822L113.81 29.3344L113.808 29.6238L113.649 29.7884L113.544 29.9777L113.46 30.3727L113.352 30.7006L113.034 32.1546L113.028 32.3946L113.416 32.1381L114.132 31.3974L114.349 30.6087L114.631 29.831L114.938 29.5868H115.129L115.414 29.6718L115.43 29.927L115.386 30.0737L115.081 30.4606L114.952 30.6718L115.077 30.8803L115.769 30.2397L116.08 30.0148L116.344 30.06L116.868 29.7637L117.924 29.702L118.004 29.3632L118.215 29.2192L118.795 29.2576L119.926 29.5594L120.329 29.8063L120.933 30.0354L121.251 30.3083L122.578 30.8103L123.543 30.8638L124.02 30.6361L124.616 30.8748L124.931 31.1423L125.55 31.2863L126.174 31.3617L126.652 31.1697L127.884 31.1066L129.432 30.8227L130.355 30.8899L131.401 31.0751L132.146 31.551L132.774 31.8199L133.153 32.0846L133.766 32.3603L135.071 33.0996L135.529 33.5276L136.338 34.1092L137.151 34.3533L137.59 34.9624L137.938 35.2367L138.799 36.2655L139.776 36.9856L140.429 37.7057L141.684 38.1693L142.174 38.9347L143.023 39.028L143.384 39.1418L143.825 39.4642L144.429 39.6438L145.215 39.5931L146.084 39.6301L146.787 39.4792L148.448 39.7659L148.71 39.9072L149.054 40.2323L149.66 41.4462L150.022 42.7932L150.201 43.8233L150.615 44.6244L150.841 46.1304L151.033 46.6051L151.048 46.9713L151.212 47.0536L151.322 48.0714L151.28 48.4815L151.12 49.0151L151.109 49.2537L151.132 49.4046L151.062 49.6282L151.04 49.8422L151.201 50.3223L151.209 50.7063L150.993 51.1727L150.699 52.3921L149.962 54.4153L149.254 55.5785L148.265 56.7801L147.62 57.4083L147.364 57.4728L147.13 57.3479L147.297 57.6799L147.152 57.972L146.498 58.8582L145.847 59.437L145.171 60.4438L145.121 60.4671L144.255 60.8567L143.743 61.1749L143.089 61.7537L142.487 62.6672L142.364 62.7839L142.142 62.7194L142.149 63.183L141.632 63.9182L141.474 64.0266L141.478 63.8181L141.567 63.659L141.608 63.4903L141.606 63.29L141.461 63.4354L141.154 63.9868L141.258 64.3901L141.036 65.0005L140.189 66.7452L139.151 68.2143L138.912 68.6683L138.06 69.66L137.435 70.1387L137.258 70.1415L137.059 70.1003L136.959 69.3377L136.461 68.8768L136.317 68.7959L136.114 69.2842L135.943 69.4186L135.697 69.4474L135.96 69.66L136.037 69.9069L135.769 70.4007L135.76 70.8492L135.282 71.3444L135.004 71.7065L134.863 72.1606L134.778 72.5844L134.989 72.4692L135.089 72.5583L135.167 72.69L135.119 72.8848L134.965 73.2538L134.989 74.1714L134.938 74.3799L135.09 74.6062L135.253 74.2208L135.346 74.3292L134.894 76.7927L135.071 77.9037L135.137 79.1643L135.341 80.3974L135.565 81.5002L135.583 81.588L135.273 82.8705L134.877 84.1379L134.639 85.1736L134.489 86.2928L134.339 86.8319L134.291 87.3833L134.463 88.6919L134.528 88.9401L134.048 89.5245L133.529 89.8084L133.243 90.0909L132.61 91.1471L132.266 92.7108L132.258 93.5434L132.42 95.2909L132.299 96.0056L132.098 96.4843L131.862 96.7984L131.258 97.1756L130.716 98.096L130.48 99.0644L130.109 99.4183L130.033 99.9615L129.735 100.549L128.96 101.425L128.457 101.68L128.217 101.926L128.065 102.44L127.579 103.288L127.221 104.389L127.315 104.764L127.32 104.821L127.451 106.097L127.403 106.422L126.931 106.775L125.154 107.433L124.68 107.706L123.62 108.828L123.554 109.093L123.598 109.471L123.771 109.689L123.592 109.925L123.38 110.349L123.071 110.323H121.3L120.343 110.457L119.845 110.431L119.621 110.33L119.37 110.164L119.295 109.946L119.431 109.617L119.35 109.42L119.087 109.427L118.799 109.521L118.75 109.717L118.77 109.858L118.878 110.062L118.937 110.315L118.819 110.533L118.257 110.562L117.627 110.762L116.84 110.846L116.213 110.991L115.924 110.807L116.213 110.715L116.629 110.759L117.074 110.607L116.97 110.427L116.34 110.197L115.639 110.338L115.251 110.614L114.403 110.588L113.363 110.798L113.193 111.012L113.222 111.426L113.425 111.516L113.624 111.706L113.433 111.883L113.247 111.961L112.149 112.154L111.131 112.965L110.706 113.066L110.328 113.424L110.289 113.73L110.17 113.915L109.928 113.925L109.397 113.758L108.707 113.754L108.209 113.887L105.666 115.205L104.752 115.734L103.711 116.814L101.954 118.026L101.031 118.752L100.856 118.94L100.71 118.949L100.422 119.1L100.536 119.225L100.732 119.236L100.651 119.66L100.284 119.949L99.5947 120.711L99.442 120.654L99.6607 120.258L99.3223 120.243L98.8243 120.098L98.6083 120.261L98.728 120.653L98.5409 120.822L98.2011 120.841L97.893 120.794L97.5545 120.508L97.7072 121.027L98.4226 121.154L98.7198 121.276L98.8312 121.476L98.2754 122.405L97.8104 122.525L97.7595 122.657H98.0154L98.1571 122.915L97.9907 123.955L97.7609 124.152L97.6261 124.158L97.4927 124.336L97.6756 124.676L97.8655 124.924L97.8393 125.407L97.7678 125.806L97.7637 126.195L98.003 126.946L98.0897 127.718L98.186 128L98.241 128.312L98.0814 128.605L98.1722 129.074L97.8999 129.873L98.0429 131.028L97.9851 132.115L97.8779 132.687L97.7045 133.134L97.3028 133.71L97.2945 134.287L96.4292 134.826L95.4731 135.579L94.5899 136.474L93.6393 137.737L92.5305 139.666L91.5029 142.432L90.2661 144.534L89.7709 145.295L89.1023 146.148L88.2122 147.144L87.0209 148.143L85.7167 149.034L85.2462 149.436L84.7867 150.003L84.6726 149.768L84.7716 149.381L84.7083 149.092L84.6946 148.717L84.9573 148.647L85.3508 148.886L85.5516 148.724L85.6975 148.565L86.1721 148.465L87.0773 147.487L87.7486 147.126L88.1269 146.51L88.1916 146.184L88.1765 145.521L88.391 145.353L88.8767 145.41L88.9757 145.221L88.9331 145.012L89.028 144.557L89.687 144.154L89.9992 143.668L89.8947 142.431L90.0157 142.375L90.2868 142.567L90.4147 142.487L90.5509 141.945L90.4848 141.664L90.1657 141.59L89.0624 142.201L88.7033 142.174L88.6442 141.696L88.1076 141.476L87.8986 141.078L87.8366 140.807L87.6509 140.696L87.6619 141.166L87.7128 141.623L88.1943 142.157L88.0774 142.369L87.849 142.616L87.6895 143.166L87.7073 143.881L87.578 143.663L87.4129 143.537L87.3455 144.305L87.0264 144.6L86.926 144.889L87.0098 145.225L86.8448 145.457L86.0317 146.081L85.2215 146.508L85.0454 146.708L84.9587 147.185L84.8349 147.675L84.4758 148.107L84.1911 148.966L84.198 149.336L84.2929 149.882L84.4456 150.241L84.2035 150.481L83.8774 150.948L83.6188 151.474L82.975 153.456L82.4205 154.657L81.9927 155.245L81.3833 155.866L79.6471 157.432L79.5426 157.41L79.2881 157.283L79.0749 157.134L79.0267 157.034L79.0019 156.884L79.0308 156.32L79.0267 154.809L79.1024 154.524L79.2152 154.34L79.5536 154.074L79.8824 153.694L80.2538 153.21L80.5964 152.825L80.474 152.568L80.1878 152.318L79.6801 152.118L79.1918 151.764L78.7584 151.308L78.5576 150.835L78.3733 150.325L78.1985 149.923L78.1408 149.739L77.9688 149.662L77.6964 149.458L77.5258 149.267L77.2768 149.158L76.8311 149.038L76.3675 148.828L75.7911 148.332L75.3756 147.782L75.1706 147.418L74.9519 147.163L73.7619 146.741L73.2213 146.237L73.0081 146.395L72.6903 146.241L72.3766 146L72.2831 145.813L72.151 145.623L72.0272 145.405L71.9474 145.196L71.6255 144.83L71.2086 144.435L71.0326 144.323L70.939 144.355L70.8496 144.506L70.7918 144.653L70.635 144.75L70.441 144.931L70.2415 145.154L69.987 145.3L69.6844 145.351L69.4808 145.344L69.4395 145.257L69.4285 144.953L69.5042 144.263L69.3281 143.997L69.0928 143.712L68.8218 143.332L67.9304 142.527L66.7156 141.371L66.2864 141.018L65.8833 140.991L65.5146 141.03L65.1749 141.183L64.9176 141.716L64.8117 141.799L64.1568 141.788L63.5061 141.701L63.2874 141.376L63.4607 141.165L64.0729 140.696L64.4113 140.277L64.476 139.911L64.769 139.582L65.2918 139.291L65.8737 138.756L66.5148 137.977L66.9055 137.404L67.0431 137.033L67.2948 136.748L67.6607 136.548L67.9799 136.131L68.2536 135.497L68.6265 134.994L69.0997 134.621L69.3652 134.311L69.4216 134.065L69.5551 133.909L69.7669 133.84L69.8687 133.711L69.8618 133.522L69.9196 133.393L70.0407 133.324L70.2443 133.349L70.5304 133.466L70.7024 133.444L70.7616 133.283L70.6859 133.1L70.4754 132.894L70.5552 132.67L71.1082 132.308L71.5154 132.171L71.7741 131.947L72.0189 131.592L72.4165 131.345L72.9654 131.205L73.1112 131.072L73.0906 130.901L73.2034 130.777L73.5281 130.688L73.7041 130.521L73.733 130.275L73.8376 130.048L74.0178 129.838L74.2187 129.76L74.4401 129.813L74.6479 129.733L74.8432 129.521L75.0771 129.422L75.3495 129.436L75.4898 129.389L75.9575 129.29L76.2162 129.112L76.428 128.713L76.6165 128.559L76.7816 128.648L77.0663 128.515L77.4708 128.16L77.5478 128.153L77.8464 127.987L78.1545 127.373L78.3127 126.963L78.2756 126.627L78.1738 126.387L78.2082 126.034L78.31 125.078L78.3375 124.687L78.5012 124.416L78.4902 124.147L78.1985 123.543L77.9041 123.014L77.7459 122.118L77.6414 121.778L77.3965 121.687L77.1736 121.391L76.893 121.365L76.7609 121.251L76.6248 121.158L76.4253 121.185L76.2547 121.358L75.9396 121.364L75.7402 121.435L75.5063 121.588L75.2834 121.519L75.1431 121.383L74.8418 121.381L74.8625 120.774L75.3935 119.874L75.5366 119.456L75.4678 119.218L75.626 118.383L76.0126 116.954L76.1364 116.02L75.9961 115.579L75.9919 115.272L76.1914 115.011L76.2877 114.933L75.7897 114.615L75.5214 114.324L75.1775 114.117L74.8074 113.951L74.6286 114.021L74.4374 114.117L74.0673 114.269L73.6464 114.533L73.429 114.629L73.0452 114.726L72.6118 114.81L72.2542 114.755L71.9474 114.699L71.7548 114.533L71.653 114.172V113.867L71.5897 113.426L71.36 113.176L71.2829 112.983L71.2706 112.748L71.2967 112.486L71.36 112.293L71.3214 112.058L71.2196 111.892L71.2458 111.603L71.1949 111.202L71.0422 110.954L70.9651 110.666V110.378L70.8509 110.09L70.8386 109.774L70.9404 109.486L70.9789 109.198L70.8647 108.993L70.6474 108.869L70.4809 108.54L70.4547 108.115L70.2759 107.883L70.0847 107.691H69.8673L69.5358 107.581L69.2428 107.595L68.7695 107.581L68.5522 107.513L68.438 107.363L68.145 107.159L67.9785 106.803L67.7749 106.735L67.4805 106.845L67.3787 106.982L67.2645 107.174L67.0609 107.393L66.7927 107.379L66.512 107.503L66.2437 107.517L65.8861 107.544L65.5284 107.434L65.0951 107.311L64.7236 107.229L64.3659 107.311L64.1238 107.242L63.8047 107.201L63.447 107.174L63.1663 106.954L62.8596 106.832L62.6931 106.873L62.4757 107.01L62.246 106.983L61.9516 106.873L61.8374 106.614L61.8636 106.449L61.9268 106.285L62.041 106.053L61.9777 105.807L62.0039 105.589L62.0548 105.399L62.1057 105.181L62.0672 104.976L62.0548 104.758L62.0286 104.554L61.9901 104.336L62.1428 104.023L62.2707 103.765L62.1937 103.548L62.2199 103.399L62.3217 103.155L62.4496 102.856L62.4372 102.299L62.3231 101.974L62.1979 101.886L62.1662 101.789L62.2267 101.66L62.1607 101.528L62.1345 101.392L62.2006 101.274L62.1098 101.041L61.9268 100.974L61.8636 100.907L61.8003 100.649L61.7494 100.351L61.7755 100.122L61.6861 99.9203L61.5582 99.7982L61.4302 99.5829L61.3023 99.421L61.2514 99.1919L61.1661 98.8956L61.4206 98.8408L61.521 98.6749L61.6999 98.4499L61.9351 98.3909L62.2157 98.3086L62.3189 98.1427L61.6655 97.5446L61.2734 97.1866L61.5031 96.701L61.891 95.8848L62.2652 95.0948L62.5514 94.494L62.6243 94.3829L62.8747 94.3445L62.8293 94.0345L62.8211 93.8315L62.6202 93.8206L62.8444 93.088L63.176 92.0456L63.4277 91.2569L63.5089 91.1252L63.6891 91.0882L63.7304 90.9976L63.513 90.8714L63.3796 90.6259L63.0893 89.9222L62.6312 88.8139L62.5982 88.4175L62.4304 88.1734L62.1497 88.2557L61.8182 88.1775L60.9886 87.5767L60.4397 87.2516L60.254 87.0596L60.1714 86.4437L60.0077 85.7647L59.9376 84.9253L59.9665 84.725L60.4301 84.0885L60.4287 83.7676L60.4672 83.4864L60.448 83.2642L60.3338 83.2614L60.148 83.3588L59.866 83.4329L59.7065 83.4398L58.0873 83.3794L56.2452 83.3108L54.7127 83.2532L53.3824 83.2038L53.3384 82.6565L53.2627 81.7416L53.2091 81.0915L53.1238 80.0627L52.59 79.4221L52.0109 78.7281L51.8072 78.5498L52.5075 78.5278L53.0041 78.5127L52.9064 76.6514L52.7551 76.4621L52.6203 75.8613L52.5295 75.5211L52.2832 75.2468L52.2268 74.9368L52.2722 74.7311L52.407 74.6035L52.4965 74.2853L52.429 73.9656L52.2832 73.668L52.1044 73.3827L51.7619 73.2071L51.2721 72.8889L50.5292 72.4843L49.9019 72.2017L49.701 72.236L48.5922 72.3457L48.2235 72.4034L47.9759 72.3388L47.1492 72.3416L46.8245 72.1249L46.5521 71.8711L45.9729 71.2265L45.8835 70.9041L45.6593 70.8013L45.3195 70.841L44.9755 70.7971L44.3097 70.5296L43.6852 70.2553L43.3825 70.2663L43.1142 70.0948L42.6396 69.6765L42.4181 69.5132L42.3177 69.2965L42.2173 68.9783L42.0261 68.9097L41.7798 68.9673L41.5129 69.1305L41.1387 69.0222L40.6806 68.7286L40.3848 68.4996L40.2156 68.3912L39.8181 68.2307L39.4343 68.1978L38.8537 68.4337L38.3777 68.3363L37.6321 68.2513L36.9938 68.0799L36.7613 67.6354L36.6361 67.3419L36.2564 67.1581L35.9538 66.9331L35.5933 66.5916L35.4145 66.4778L35.0885 66.3831L34.7871 66.2624L34.7541 66.0471L34.6413 65.7631L34.6152 65.6931L34.4102 65.3489L34.3139 65.3242L34.208 65.3927L34.1282 65.4421L34.0415 65.3818L34.0264 65.2281L34.0814 64.9813L33.9631 64.7234L33.6701 64.4518L33.516 64.1706L33.5023 63.8798L33.4376 63.6864L33.3207 63.5877L33.2546 63.4175L33.2409 63.1761L33.3262 62.8881L33.5105 62.5548L33.4706 62.0404L33.2079 61.3464L33.062 60.847L33.0345 60.5398L33.0744 60.3121L33.234 60.0913L33.5518 59.5495L33.6082 59.1366L33.5078 58.6716L33.494 58.3163L33.5669 58.0722L33.4569 57.7526L33.2313 57.4508L33.0744 57.444L32.8612 57.5263L32.604 57.7814L32.3013 57.8266L32.033 57.6689L31.1911 57.7348L29.8828 57.8925L29.3601 58.0557L29.0519 58.1257L28.6791 58.1792L28.082 58.4727L26.6087 59.6126L26.3033 59.7785L25.9566 59.8019L25.7544 59.9596L25.4297 60.083L24.7914 60.5343L24.4667 60.8964L24.2535 61.2242L24.0072 61.2352L23.816 61.1447L23.2121 61.19L22.9026 61.3024L22.5669 61.6207L22.15 62.1968L21.9781 62.3614L21.6424 62.5315L21.2545 62.6727L20.7743 62.884L20.5597 62.8977L20.3699 62.9347L20.2062 62.8387L20.1512 62.6316L19.9035 62.5013L19.312 62.4354L18.4357 62.2846L17.5318 62.2558L17.0834 62.2695L16.7147 62.2791L16.075 62.1982L15.6086 62.1844L15.2001 62.3888L14.6057 62.6425L14.3347 62.7071L14.1352 62.7166L13.9413 62.6851L13.7143 62.5534L13.3965 62.2503L13.1516 62.3669L12.9755 62.4972L12.9783 61.8374L12.9824 60.8457L12.9865 59.9719L12.9893 59.2737L12.992 58.459L12.9948 57.8842L13.1612 57.6662L13.263 57.422L13.1406 57.0956L13.1681 56.7965L13.2534 56.588L13.3649 56.385L13.1076 56.4865L12.9948 56.5428L12.8572 56.6964L12.5243 56.9049L12.3014 57.1134L12.0387 57.2835L11.7058 57.658L11.432 57.8637L11.1472 57.9953L10.674 58.4357L10.2819 58.5234L9.24466 58.5907L8.16612 58.5893L7.17974 58.5879L7.03116 58.5824L7.04081 58.219L7.06554 57.9624L6.7285 57.6922L6.70512 57.3589L6.6157 57.1285L6.50289 56.8473L6.26766 56.6676L5.93612 56.5976L5.39269 56.4426L4.58654 56.2808L3.81616 56.2698L3.06093 56.2849L3.52177 55.7198L3.98262 55.156L3.96889 54.665L3.59604 54.237L3.39519 53.9709L3.08431 53.6047L2.70046 53.3509L2.49139 53.0135L2.51066 52.8091L2.47762 52.6747L2.33181 52.5965L2.18596 52.473L1.98512 52.3372L1.74989 52.1576V51.9779L1.66046 51.7872L1.51461 51.5636V51.3839L1.37981 51.1027L1.234 50.9011L1.08815 50.7667L0.874922 50.576L0.885964 50.4197L1.04277 50.3415L1.11019 50.1618L1.08815 49.9821L0.909348 49.8696L0.696117 49.8134L0.415462 49.4883L0.213231 49.3196L0.0784239 49.2181L0 49.1056L0.0784239 49.0274L0.167847 48.9149L0.191232 48.7353L0.145806 48.5679V48.4225L0.280655 48.3772L0.426462 48.4006L0.572268 48.3114L0.7635 48.2785L0.976731 48.2552L1.08954 48.155L1.07854 47.9767L0.943732 47.6297L0.808883 47.4843L0.7635 47.2717L0.873579 46.8629L0.943732 46.601L1.18996 46.3239L1.94112 45.7299L2.61519 45.3267L2.94396 45.2855L3.18746 45.136L3.34154 44.9069L3.38419 44.6573L3.34981 44.4392L3.22462 44.1182L3.07465 43.7177L2.96185 43.4941L3.06227 43.2266L3.24112 42.8604L3.60708 42.3076L3.94823 41.7123L3.98539 41.5395L4.02939 41.176L4.18623 40.4353L4.27289 40.0348L4.2275 39.8798L4.30593 39.7453L4.51916 39.6329L5.03366 39.5314L5.38308 39.3105L5.92096 38.8949L6.36947 38.4533L6.74089 38.3106L7.41362 37.9018L7.80016 37.6426L7.95151 37.5617L8.3312 37.3737L9.01216 37.3093L9.57893 37.2421L9.89947 37.1186L10.3686 37.0679L10.6836 36.9293L11.0344 36.9252L11.6934 36.7839L11.9176 36.5727L12.1089 36.3203L12.3661 36.105L12.6674 36.0487L13.003 36.0857L13.4047 36.0816L13.8917 36.0144L14.127 36.1818L14.2302 36.3861L14.5301 36.5933L14.7433 36.5823L14.9566 36.537L15.2482 36.7154L15.4394 36.6934L15.5619 36.5933L15.5852 36.3436L15.654 36.2079L15.7971 35.426L16.0337 34.1352L16.2483 32.9652L16.4849 31.6717L16.7312 30.3357L16.9802 28.9833L17.1838 27.8736L17.3585 26.9203L17.4672 26.3346L17.635 25.5678L17.7011 24.8943L17.7684 24.7009L17.7258 24.5377L17.58 24.3059L17.5814 24.2044L17.5979 24.07L17.5814 23.952L17.4287 23.8258L17.3104 23.7504L17.2168 23.6406L17.1742 23.4884L17.0971 23.3361L17.0627 23.1757L16.9513 23.0494L16.9183 22.889L16.9953 22.7367L17.0283 22.5762L16.9953 22.4254L16.9527 22.2484L16.8674 22.0797L16.7381 21.9768L16.4285 21.863L16.1176 21.59L15.7503 21.3458L15.2826 20.8822L15.1808 20.6628L15.1794 20.0606L15.2001 19.4077L15.2303 18.4215L15.2454 17.9194L15.5095 17.8906L15.7421 17.8769L15.9856 17.8426L16.1974 17.8083L16.3927 17.7356L16.5386 17.6465L16.7119 17.5889L16.8481 17.6094L16.9843 17.5299L17.1342 17.4544L17.2801 17.3927L17.4919 17.3406L17.6901 17.4613L17.8015 17.582L17.9308 17.6396L18.0519 17.6259L18.1357 17.6369L18.2224 17.7329L18.3339 17.7397L18.4934 17.7219L18.6434 17.7013L18.7122 17.6725L18.7232 17.6108L18.6847 17.5038L18.6324 17.4037L18.6737 17.2487L18.6778 17.0621L18.6847 16.8248L18.5664 16.6931L18.4481 16.4449L18.316 16.2446L18.111 16.1102L17.9198 16.0581L17.7602 16.1417L17.6116 16.1555L17.5002 16.08L17.32 16.0773L17.1246 16.0526L16.9197 16.0238L16.5482 16.0786L16.4161 16.0115L16.2359 16.0046L16.0268 16.0773L16.0323 15.124L16.0378 14.2255L16.0406 13.5945L16.2277 13.6083L16.4602 13.4944L16.8055 13.4766L17.071 13.3572L17.2196 13.3477L17.5002 13.4053L17.7932 13.5287L18.0807 13.5465H18.8346H19.649H20.5556H21.4636H22.2505L22.4939 13.5534L22.3522 13.3436L22.1872 13.072L22.2505 12.858L22.3316 12.6426L22.4266 12.5301L22.6714 12.6495L22.8764 13.0157L23.047 13.2914L23.2134 13.4272L23.4198 13.4423L23.6537 13.3957L23.8875 13.2818L24.2865 12.7771L24.6827 12.345L24.8877 12.1996L25.105 12.0665L25.2674 12.0158L25.4888 12.0323L25.6759 12.1502L25.797 12.356L26.24 13.072L26.5743 13.6124L26.6871 13.9498L26.6939 14.7728L26.6733 15.5012L26.7173 15.5958L26.7834 15.6232L27.5139 15.4518L28.5058 16.3352L29.239 16.988L29.5554 17.1965L29.7315 17.2541L30.1579 17.2103L30.6642 17.1252L30.9104 17.032L31.1828 16.8276L31.6244 16.5437L31.9849 16.3873L32.1266 16.3667L32.2696 16.4175L32.5737 16.5875L32.7401 16.903L32.5874 17.2693L32.6136 17.4969L32.9327 17.4846L33.1886 17.106L33.3675 16.807L33.7416 16.5642L34.1062 16.2199L34.3607 15.8907L34.6592 15.6987L35.1091 15.4641L35.4654 15.3215L35.7983 15.3366L36.0459 15.1816L36.3665 14.8908L36.5907 14.6576L36.7461 14.5739L37.0584 14.5973L37.4478 14.5657L37.8302 14.2818L38.1782 13.9388L38.3626 13.36L38.4836 12.847L38.5882 12.7427L38.7148 12.6604L38.8633 12.6069L39.221 12.5699L39.8483 12.297L40.2803 12.0199L40.6903 11.9609L40.8113 11.8868L40.9599 11.6304L41.0342 11.1791L40.9778 10.9061L40.2239 10.821H39.73L38.9129 10.7511L38.5235 10.6386L38.4396 10.5604L38.4314 10.474L38.5098 10.2779L38.5855 9.91163L38.474 9.41509L38.0668 8.63737L37.7765 7.87196L37.738 7.33838L37.7449 6.77465L37.7683 6.40565L37.5592 6.11762L36.4297 5.20821L36.039 4.77885L35.9097 4.48123L35.464 3.93391L35.5768 3.76521L35.8341 3.7707L36.0528 3.91336L36.2536 4.21785L36.3967 4.28645H36.5935L37.6348 4.28507L37.8783 4.33719L38.0255 4.44008L38.1507 4.56763L38.3378 4.92289L38.5387 5.09573L38.9514 5.09025L39.598 5.08338L39.9611 5.05182L40.1785 5.15057L40.4481 5.23291L41.0163 5.04362L41.1745 5.03947L41.3451 5.12315L41.9573 5.75825L42.3081 6.02569L42.6038 6.38096L43.0344 6.38234L43.3921 6.07785L43.487 5.0532L43.5943 4.75554L43.7746 4.67186L43.9891 4.66227L44.2437 4.50178L44.5188 4.29328L44.7582 4.22333L45.7528 4.44694L46.0293 4.33995L47.0363 4.0697L48.0653 3.7213L48.3542 3.28236L48.7848 3.1644L49.1233 2.84346L49.3957 2.87636L49.8083 2.89009L50.0642 2.83383L50.1935 2.77351L50.3352 2.62261L50.5677 2.19329L50.8497 2.03004L51.2033 1.85724L51.4454 1.65422L51.6449 1.40319L51.7371 1.1851L51.7343 1.01226L51.6174 0.676205L51.4743 0.360749L51.3202 0.256476L51.2047 0.216709L51.5555 0.142659L51.8444 0.253755L52.2956 0.270206L52.4923 0.185146L52.7771 0.226295L53.1375 0L53.3687 0.0740502H53.5214L53.6603 0.245508L53.769 0.438901L54.106 0.673484L54.073 1.03009L54.0111 1.34559L53.9671 1.71044L53.9478 1.98751L53.8047 2.27144L53.5901 2.53621L53.5269 2.6432L53.4966 2.7831L53.641 2.86816L53.8969 2.89281L54.2161 2.90382L54.4334 2.98612L54.7141 3.00257L55.0525 3.23024L55.2162 3.36742L55.23 3.47303L55.1227 3.72545L55.08 3.95861L55.1639 4.10675L55.263 4.21374L55.5367 4.74047L55.6674 4.92289L55.7775 4.98187L55.8036 5.08338L55.7101 5.27539L55.5973 5.51956L55.3428 5.77608L55.3084 5.97906L55.1062 6.10665L54.6315 6.4098L54.7141 6.88985L54.7306 7.13263L54.7223 7.32192L54.56 7.57568L54.2794 8.32326L54.1762 8.69635L54.0854 9.55775L54.0909 9.84716L54.2202 10.2353L54.4954 11.0981L54.6522 11.2367L55.014 11.4383L55.0594 12.0212L55.0277 12.6303L55.0112 12.8662L55.0704 12.9677L55.2327 13.0171L55.3483 13.0898L55.3662 13.2695L55.3552 13.4574L55.6248 13.5657L55.86 13.6344L56.0774 13.8922L56.4695 14.2941L56.6263 14.3682L56.7047 14.5341L57.0362 14.8729L57.5411 14.9964L58.0501 15.1459L58.251 15.3585L58.4601 15.5314L58.6183 15.5396L58.7517 15.5121L58.9719 15.3626L59.1479 15.2337L59.4547 15.2419L59.8152 15.22L59.877 15.1144L59.9114 14.9786L59.8372 14.6315L59.9651 14.5259L60.2636 14.4669L60.3228 14.2818L60.3902 14.1803L60.4755 14.0623L60.5773 14.0458L60.7052 14.1131L60.9019 14.1556L61.1234 14.2145L61.2417 14.3325L61.4385 14.3421L61.6572 14.3202L61.7452 14.2447L61.8099 14.1131L61.8581 13.8291L61.9984 13.8209L62.2804 13.7578L62.5803 13.633L62.982 13.6138L63.3576 13.6165L63.546 13.5328L63.7207 13.3504L64.0592 12.8333L64.2366 12.7139L64.4279 12.6248L64.5902 12.6413L64.9217 12.5548L65.1941 12.4314L65.2959 12.4629L65.5078 12.7277L65.6151 12.7853L65.7719 12.8045L66.285 12.9389L66.5574 12.8964L66.8518 12.8113L67.1352 12.7798L67.3388 12.8388L67.486 12.762L67.6139 12.7112ZM91.4891 12.7249L91.1039 12.8991L90.8824 12.8319L90.6788 12.3765L90.7476 11.9979L91.0269 11.8718L91.2429 11.8992L91.3227 11.9472L91.5153 12.5686L91.4891 12.7249ZM92.0532 18.6368L91.6336 18.7658L91.5552 18.645V18.1636L91.6735 17.9002L92.2072 17.8262L92.2623 17.748L92.415 17.6986L92.5002 17.8645L92.4879 18.1402L92.0532 18.6368ZM90.998 19.6065L90.9292 20.1689L90.2345 19.9316L90.2868 19.3569L90.6114 19.1951L90.899 18.8892L90.998 18.5147L91.0035 18.0044L91.1108 17.9167L91.2043 17.881L91.2883 17.9153L91.3213 18.6807L91.3612 19.1498L90.998 19.6065ZM93.6545 19.1142L93.8127 19.3144L93.2665 20.1141L92.9652 20.2293L92.6351 20.2526L92.2072 20.014L91.5414 20.0318L91.3337 19.9755L91.3117 19.6271L91.5909 19.2554L92.1495 19.276L93.111 18.977L93.6545 19.1142ZM94.7908 20.5695L93.7673 20.6888L93.2995 20.4982L93.4055 20.3377L93.7549 20.0812L94.18 19.9001L94.561 19.8192L94.9586 19.9207L95.0673 20.136L95.0343 20.3527L94.7908 20.5695ZM90.123 20.6422L89.0665 21.3911L88.7088 21.1456L88.6345 21.0029L88.6951 20.8589L88.6827 20.7986L88.801 20.542L89.3912 20.3322L89.6883 20.2965L90.068 20.3624L90.1313 20.5462L90.123 20.6422ZM94.0768 21.0166L94.4372 21.0331L94.9476 20.9604L95.2902 20.7821L95.6726 20.7464L96.0509 20.7656L97.3262 20.9645L98.0924 21.0262L98.3731 21.0894L98.6469 21.1799L98.8477 21.2773L98.8972 21.4885L98.7115 21.8287L98.5725 22.1853L98.4432 22.6832L98.3428 22.7833L98.175 22.7573L98.2795 23.2031L98.2424 23.3814L98.1585 23.5542L97.9535 23.9136L97.6426 24.3717L97.5504 24.4677L97.3138 24.6268L97.1212 24.8299L97.1625 25.0219L97.2588 25.2153L97.1446 25.4567L96.7773 25.8092L96.5572 25.8943L96.3549 25.9299L96.1678 25.8957L95.8363 25.5418L95.8019 25.8189L95.7125 26.1028L95.5997 26.2578L95.1718 26.2413L94.9338 26.0891L94.5473 25.9204L94.4744 26.3758L94.2336 26.6898L93.9915 26.7886L93.6118 26.8545L93.3945 26.9889L92.9845 26.8846L92.6034 26.6761L92.3874 26.6583L92.2196 26.827L91.335 26.8586L90.9292 27.03L90.6816 26.982L90.317 26.6363L90.2592 26.4073L90.0419 25.9423L89.8465 25.3895L89.7076 24.8875L89.8245 24.4541L90.0612 24.4677L90.3404 24.5322L90.3996 24.502L90.4133 24.3621L90.3514 24.2469L89.9016 24.2648L89.6168 24.0069L89.5673 23.6091L89.625 22.7806L89.6622 22.6105L89.8616 22.3732L89.9263 22.1634L89.8768 21.9412L89.9621 21.5365L90.1478 21.1867L90.8576 20.7451L91.6817 20.5873L94.0768 21.0166ZM85.5681 25.6227L85.1595 25.6954L85.6865 24.738L86.1569 24.2922L86.1638 23.4088L86.6742 22.6228L87.1433 22.3032L87.8023 22.21L88.1627 22.6887L87.7156 24.0466L87.5849 24.0549L86.9865 24.7709L86.3206 25.2715L85.5681 25.6227ZM112.4 25.1797L112.152 25.3635L112.071 25.4581L111.867 25.3868L111.904 25.2812L111.965 25.2921L112.031 24.9849L112.379 25.0219L112.4 25.1797ZM113.881 31.385L113.502 31.7609L113.627 31.3261L113.563 31.0257L113.613 30.7939L113.873 30.5689L113.951 30.536L113.929 30.8131L113.947 30.8981L113.881 31.385ZM136.101 70.6682L135.95 70.7532L135.935 70.5036L136.33 70.1895L136.394 69.8178L136.601 69.9892L136.656 70.1799L136.653 70.2594L136.101 70.6682ZM135.485 72.1468L135.353 72.3787L135.2 72.3444L135.14 72.1894L135.027 72.0385L135.088 71.9205L135.189 71.8533L135.471 71.8629L135.485 72.1468ZM115.309 111.171L115.43 111.285L115.207 111.274L114.957 111.374L114.573 111.463L114.419 111.296L114.751 111.062L114.872 110.888L114.958 110.925L115.07 111.051L115.309 111.171ZM110.943 114.291L110.94 114.509L110.779 114.398L110.353 114.483L110.204 114.319L110.779 113.615L110.895 113.718L110.984 113.845L111.046 114.024L110.98 114.139L110.943 114.291ZM98.109 124.918L98.0374 124.97L97.7953 124.439L98.2823 123.93L98.4446 124.136L98.3153 124.539L98.1722 124.824L98.109 124.918ZM98.49 130.79L98.2245 130.986L98.2727 129.958L98.4157 129.615L98.5712 129.359L98.7638 129.201L98.9069 129.425L98.7844 129.92L98.4474 130.528L98.49 130.79Z"/>
</mask>
<path d="M67.6139 12.7112L67.7295 12.7482L67.9881 12.7798L68.6017 12.9265L69.4024 13.0925L69.6211 13.0349L69.7518 12.9183L69.7821 12.5768L69.8068 12.3354L69.6266 12.1228L69.4024 11.8813L69.196 11.581L68.9484 11.4945L68.98 11.3396L69.141 11.1791L69.3061 11.0913L69.401 10.9829L69.5055 10.5824L69.5743 10.5111L69.6445 10.4932L69.727 10.5083L69.8907 10.6126L70.5208 10.9308L70.7973 10.8828L71.8538 10.7991L72.0134 10.6153L72.2377 10.5741L72.6174 10.3903L72.7673 10.378L72.9021 10.4219L73.0713 10.3876L73.3203 10.2162L73.4249 10.1983L73.4648 10.3876L73.6258 10.5838L73.8211 10.7634L73.9146 10.8046L74.2421 10.747L74.414 10.7977L74.4883 10.9651L74.5103 11.1105L74.6479 11.2339L74.8239 11.2367L74.9175 11.2874L75.0785 11.367L75.2147 11.5494L75.5311 11.6948L76.0717 11.8978L76.3235 11.9006L76.5573 11.9623L76.7004 12.024L76.8559 11.9101L77.4089 11.596L77.6785 11.4205L77.8601 11.2874L77.9963 11.1612L78.0981 11.1283L78.1669 11.2038L78.2261 11.3053L78.4241 11.3643L78.8864 11.4822L79.0983 11.5151L79.3954 11.415L79.6499 11.2435L79.7709 11.1845L79.9594 11.356L80.0888 11.596L80.1754 11.7016L80.3666 11.677L80.745 11.714L81.0242 11.7908L81.1976 11.784L81.4342 11.677L81.5621 11.4657L81.8978 11.2723L82.217 11.094L82.3999 10.8567L82.6709 10.4617L82.7617 10.293L82.781 10.0077L83.162 9.17916L83.3065 9.02692L83.3918 8.76492L83.5445 8.46177V8.20801L83.6559 7.96251L83.8746 7.75128L84.0356 7.61821L84.2942 7.26156L84.4745 6.92551L84.9243 6.1807L84.9587 5.96947L85.1375 5.84327L85.1967 5.68277L85.3879 5.4839L85.5888 5.32755L85.6754 5.09573L85.8226 4.85566L86.1445 4.676L86.2642 4.59371L86.6301 3.93257L86.6714 3.63763L87.0016 3.62666L87.5202 3.96819L87.9343 4.4716L88.4887 6.08882L88.5809 7.58254L88.8052 8.3644L89.4503 9.99393L89.4916 10.2957L89.5948 10.6606L89.7984 11.0474L90.024 11.6838L90.0323 11.8018L89.8864 11.9746L90.101 11.987L90.295 12.0899L90.4216 12.4931L90.5825 12.7661L90.8742 13.1392L91.4712 13.2613L91.9225 13.3065L92.4356 13.5177L92.8125 13.788L93.1042 14.7056L93.0093 15.2817L93.0382 15.6877L92.8868 15.8468L92.4645 16.1129L92.3723 16.2542L91.5098 16.94L91.3213 17.2638L90.859 17.6986L90.4009 18.5271L89.731 19.2842L89.4943 19.4762L89.1325 19.5202L88.9125 19.6367L88.3924 20.2554L87.6936 20.4611L87.6289 20.8191L87.2258 21.6366L86.8695 22.0838L86.6425 22.2347L86.0716 23.0494L85.9987 23.4061L86.0015 24.0302L85.6204 24.4101L85.2242 24.6515L85.1747 25.1851L84.9958 25.3676L84.8431 25.4855L84.037 25.3456L82.7851 25.9258L82.3573 26.0698L83.7233 26.0986L84.1622 26.4073L85.1238 26.2029L86.2876 25.4677L86.732 25.3127L87.6344 24.8134L88.0017 24.4801L88.6703 24.081L88.8134 23.9054L89.1876 23.7188L89.3912 23.9561L89.4077 24.1056L89.0995 24.3978L89.1793 24.5857L89.3815 24.8216L89.4545 25.1481L89.482 25.3964L89.6071 25.8312L90.0213 26.4196L90.035 26.6144L89.9772 26.8709L90.1753 27.0821L90.3803 27.207L91.0847 27.8407L91.6349 27.4868L91.9747 27.3839L92.1907 27.2358L92.6447 27.137L93.0161 27.2852L93.7246 27.4978L94.2433 27.2714L95.2915 26.753L94.9641 27.6706L94.7261 28.5128L94.5459 28.853L94.3671 29.7693L94.191 30.0148L94.0479 30.2946L94.2818 30.1972L94.4826 30.0642L94.7399 29.7116L94.9325 29.0985L95.6918 27.4621L95.9092 27.3167L96.5407 27.1302L97.6275 25.8216L98.0525 25.8257L98.3249 26.1261L98.5822 26.3044L98.6482 25.9464L99.0197 25.801L98.6276 25.6241L98.5643 25.4636L98.5272 25.1961L98.794 24.834L98.6345 24.513L99.1875 24.1098L99.1449 23.8066L99.3429 23.557L99.5933 23.2991L99.8767 23.1743L99.929 22.9534L100.108 22.8629L100.248 22.83L100.525 23.0769L100.825 22.7861L101.116 22.6722L101.247 22.723L101.411 22.8519L101.583 22.9068L101.722 22.8835L102.083 22.6969L102.418 22.9973L102.618 23.0632L102.563 22.8944L102.458 22.7381L102.54 22.6105L102.698 22.531L103.199 22.6023L103.462 22.7367L103.747 22.985L104.141 23.0028L104.452 22.9767L104.648 23.1167L104.965 23.1153L105.125 23.3334L105.609 23.6392L105.714 23.8464L106.103 23.9465L106.469 24.0741L106.858 24.1084L107.252 24.0782L107.268 24.3402L107.556 24.4115L107.926 24.3539L108.205 24.6762L108.952 24.919L109.469 25.2907L109.809 25.2249L110.189 25.3236L110.596 26.1316L110.688 26.7049L110.87 26.6254L111.039 26.3689L111.256 25.8998L111.665 25.7448L111.86 25.9245L112.269 26.2125L112.621 26.528L112.77 26.731L113.035 26.7639L112.814 27.0136L113.037 26.9875L113.305 26.8106L113.535 27.1782L113.708 27.5787L113.742 27.9861L113.579 28.2193L113.436 28.366L113.276 28.6541L113.088 28.7062L112.899 28.7995L113.114 29.0093L113.261 29.211L113.583 28.665L113.81 28.5114L114.137 28.4264L114.308 28.8146L114.344 29.1822L113.81 29.3344L113.808 29.6238L113.649 29.7884L113.544 29.9777L113.46 30.3727L113.352 30.7006L113.034 32.1546L113.028 32.3946L113.416 32.1381L114.132 31.3974L114.349 30.6087L114.631 29.831L114.938 29.5868H115.129L115.414 29.6718L115.43 29.927L115.386 30.0737L115.081 30.4606L114.952 30.6718L115.077 30.8803L115.769 30.2397L116.08 30.0148L116.344 30.06L116.868 29.7637L117.924 29.702L118.004 29.3632L118.215 29.2192L118.795 29.2576L119.926 29.5594L120.329 29.8063L120.933 30.0354L121.251 30.3083L122.578 30.8103L123.543 30.8638L124.02 30.6361L124.616 30.8748L124.931 31.1423L125.55 31.2863L126.174 31.3617L126.652 31.1697L127.884 31.1066L129.432 30.8227L130.355 30.8899L131.401 31.0751L132.146 31.551L132.774 31.8199L133.153 32.0846L133.766 32.3603L135.071 33.0996L135.529 33.5276L136.338 34.1092L137.151 34.3533L137.59 34.9624L137.938 35.2367L138.799 36.2655L139.776 36.9856L140.429 37.7057L141.684 38.1693L142.174 38.9347L143.023 39.028L143.384 39.1418L143.825 39.4642L144.429 39.6438L145.215 39.5931L146.084 39.6301L146.787 39.4792L148.448 39.7659L148.71 39.9072L149.054 40.2323L149.66 41.4462L150.022 42.7932L150.201 43.8233L150.615 44.6244L150.841 46.1304L151.033 46.6051L151.048 46.9713L151.212 47.0536L151.322 48.0714L151.28 48.4815L151.12 49.0151L151.109 49.2537L151.132 49.4046L151.062 49.6282L151.04 49.8422L151.201 50.3223L151.209 50.7063L150.993 51.1727L150.699 52.3921L149.962 54.4153L149.254 55.5785L148.265 56.7801L147.62 57.4083L147.364 57.4728L147.13 57.3479L147.297 57.6799L147.152 57.972L146.498 58.8582L145.847 59.437L145.171 60.4438L145.121 60.4671L144.255 60.8567L143.743 61.1749L143.089 61.7537L142.487 62.6672L142.364 62.7839L142.142 62.7194L142.149 63.183L141.632 63.9182L141.474 64.0266L141.478 63.8181L141.567 63.659L141.608 63.4903L141.606 63.29L141.461 63.4354L141.154 63.9868L141.258 64.3901L141.036 65.0005L140.189 66.7452L139.151 68.2143L138.912 68.6683L138.06 69.66L137.435 70.1387L137.258 70.1415L137.059 70.1003L136.959 69.3377L136.461 68.8768L136.317 68.7959L136.114 69.2842L135.943 69.4186L135.697 69.4474L135.96 69.66L136.037 69.9069L135.769 70.4007L135.76 70.8492L135.282 71.3444L135.004 71.7065L134.863 72.1606L134.778 72.5844L134.989 72.4692L135.089 72.5583L135.167 72.69L135.119 72.8848L134.965 73.2538L134.989 74.1714L134.938 74.3799L135.09 74.6062L135.253 74.2208L135.346 74.3292L134.894 76.7927L135.071 77.9037L135.137 79.1643L135.341 80.3974L135.565 81.5002L135.583 81.588L135.273 82.8705L134.877 84.1379L134.639 85.1736L134.489 86.2928L134.339 86.8319L134.291 87.3833L134.463 88.6919L134.528 88.9401L134.048 89.5245L133.529 89.8084L133.243 90.0909L132.61 91.1471L132.266 92.7108L132.258 93.5434L132.42 95.2909L132.299 96.0056L132.098 96.4843L131.862 96.7984L131.258 97.1756L130.716 98.096L130.48 99.0644L130.109 99.4183L130.033 99.9615L129.735 100.549L128.96 101.425L128.457 101.68L128.217 101.926L128.065 102.44L127.579 103.288L127.221 104.389L127.315 104.764L127.32 104.821L127.451 106.097L127.403 106.422L126.931 106.775L125.154 107.433L124.68 107.706L123.62 108.828L123.554 109.093L123.598 109.471L123.771 109.689L123.592 109.925L123.38 110.349L123.071 110.323H121.3L120.343 110.457L119.845 110.431L119.621 110.33L119.37 110.164L119.295 109.946L119.431 109.617L119.35 109.42L119.087 109.427L118.799 109.521L118.75 109.717L118.77 109.858L118.878 110.062L118.937 110.315L118.819 110.533L118.257 110.562L117.627 110.762L116.84 110.846L116.213 110.991L115.924 110.807L116.213 110.715L116.629 110.759L117.074 110.607L116.97 110.427L116.34 110.197L115.639 110.338L115.251 110.614L114.403 110.588L113.363 110.798L113.193 111.012L113.222 111.426L113.425 111.516L113.624 111.706L113.433 111.883L113.247 111.961L112.149 112.154L111.131 112.965L110.706 113.066L110.328 113.424L110.289 113.73L110.17 113.915L109.928 113.925L109.397 113.758L108.707 113.754L108.209 113.887L105.666 115.205L104.752 115.734L103.711 116.814L101.954 118.026L101.031 118.752L100.856 118.94L100.71 118.949L100.422 119.1L100.536 119.225L100.732 119.236L100.651 119.66L100.284 119.949L99.5947 120.711L99.442 120.654L99.6607 120.258L99.3223 120.243L98.8243 120.098L98.6083 120.261L98.728 120.653L98.5409 120.822L98.2011 120.841L97.893 120.794L97.5545 120.508L97.7072 121.027L98.4226 121.154L98.7198 121.276L98.8312 121.476L98.2754 122.405L97.8104 122.525L97.7595 122.657H98.0154L98.1571 122.915L97.9907 123.955L97.7609 124.152L97.6261 124.158L97.4927 124.336L97.6756 124.676L97.8655 124.924L97.8393 125.407L97.7678 125.806L97.7637 126.195L98.003 126.946L98.0897 127.718L98.186 128L98.241 128.312L98.0814 128.605L98.1722 129.074L97.8999 129.873L98.0429 131.028L97.9851 132.115L97.8779 132.687L97.7045 133.134L97.3028 133.71L97.2945 134.287L96.4292 134.826L95.4731 135.579L94.5899 136.474L93.6393 137.737L92.5305 139.666L91.5029 142.432L90.2661 144.534L89.7709 145.295L89.1023 146.148L88.2122 147.144L87.0209 148.143L85.7167 149.034L85.2462 149.436L84.7867 150.003L84.6726 149.768L84.7716 149.381L84.7083 149.092L84.6946 148.717L84.9573 148.647L85.3508 148.886L85.5516 148.724L85.6975 148.565L86.1721 148.465L87.0773 147.487L87.7486 147.126L88.1269 146.51L88.1916 146.184L88.1765 145.521L88.391 145.353L88.8767 145.41L88.9757 145.221L88.9331 145.012L89.028 144.557L89.687 144.154L89.9992 143.668L89.8947 142.431L90.0157 142.375L90.2868 142.567L90.4147 142.487L90.5509 141.945L90.4848 141.664L90.1657 141.59L89.0624 142.201L88.7033 142.174L88.6442 141.696L88.1076 141.476L87.8986 141.078L87.8366 140.807L87.6509 140.696L87.6619 141.166L87.7128 141.623L88.1943 142.157L88.0774 142.369L87.849 142.616L87.6895 143.166L87.7073 143.881L87.578 143.663L87.4129 143.537L87.3455 144.305L87.0264 144.6L86.926 144.889L87.0098 145.225L86.8448 145.457L86.0317 146.081L85.2215 146.508L85.0454 146.708L84.9587 147.185L84.8349 147.675L84.4758 148.107L84.1911 148.966L84.198 149.336L84.2929 149.882L84.4456 150.241L84.2035 150.481L83.8774 150.948L83.6188 151.474L82.975 153.456L82.4205 154.657L81.9927 155.245L81.3833 155.866L79.6471 157.432L79.5426 157.41L79.2881 157.283L79.0749 157.134L79.0267 157.034L79.0019 156.884L79.0308 156.32L79.0267 154.809L79.1024 154.524L79.2152 154.34L79.5536 154.074L79.8824 153.694L80.2538 153.21L80.5964 152.825L80.474 152.568L80.1878 152.318L79.6801 152.118L79.1918 151.764L78.7584 151.308L78.5576 150.835L78.3733 150.325L78.1985 149.923L78.1408 149.739L77.9688 149.662L77.6964 149.458L77.5258 149.267L77.2768 149.158L76.8311 149.038L76.3675 148.828L75.7911 148.332L75.3756 147.782L75.1706 147.418L74.9519 147.163L73.7619 146.741L73.2213 146.237L73.0081 146.395L72.6903 146.241L72.3766 146L72.2831 145.813L72.151 145.623L72.0272 145.405L71.9474 145.196L71.6255 144.83L71.2086 144.435L71.0326 144.323L70.939 144.355L70.8496 144.506L70.7918 144.653L70.635 144.75L70.441 144.931L70.2415 145.154L69.987 145.3L69.6844 145.351L69.4808 145.344L69.4395 145.257L69.4285 144.953L69.5042 144.263L69.3281 143.997L69.0928 143.712L68.8218 143.332L67.9304 142.527L66.7156 141.371L66.2864 141.018L65.8833 140.991L65.5146 141.03L65.1749 141.183L64.9176 141.716L64.8117 141.799L64.1568 141.788L63.5061 141.701L63.2874 141.376L63.4607 141.165L64.0729 140.696L64.4113 140.277L64.476 139.911L64.769 139.582L65.2918 139.291L65.8737 138.756L66.5148 137.977L66.9055 137.404L67.0431 137.033L67.2948 136.748L67.6607 136.548L67.9799 136.131L68.2536 135.497L68.6265 134.994L69.0997 134.621L69.3652 134.311L69.4216 134.065L69.5551 133.909L69.7669 133.84L69.8687 133.711L69.8618 133.522L69.9196 133.393L70.0407 133.324L70.2443 133.349L70.5304 133.466L70.7024 133.444L70.7616 133.283L70.6859 133.1L70.4754 132.894L70.5552 132.67L71.1082 132.308L71.5154 132.171L71.7741 131.947L72.0189 131.592L72.4165 131.345L72.9654 131.205L73.1112 131.072L73.0906 130.901L73.2034 130.777L73.5281 130.688L73.7041 130.521L73.733 130.275L73.8376 130.048L74.0178 129.838L74.2187 129.76L74.4401 129.813L74.6479 129.733L74.8432 129.521L75.0771 129.422L75.3495 129.436L75.4898 129.389L75.9575 129.29L76.2162 129.112L76.428 128.713L76.6165 128.559L76.7816 128.648L77.0663 128.515L77.4708 128.16L77.5478 128.153L77.8464 127.987L78.1545 127.373L78.3127 126.963L78.2756 126.627L78.1738 126.387L78.2082 126.034L78.31 125.078L78.3375 124.687L78.5012 124.416L78.4902 124.147L78.1985 123.543L77.9041 123.014L77.7459 122.118L77.6414 121.778L77.3965 121.687L77.1736 121.391L76.893 121.365L76.7609 121.251L76.6248 121.158L76.4253 121.185L76.2547 121.358L75.9396 121.364L75.7402 121.435L75.5063 121.588L75.2834 121.519L75.1431 121.383L74.8418 121.381L74.8625 120.774L75.3935 119.874L75.5366 119.456L75.4678 119.218L75.626 118.383L76.0126 116.954L76.1364 116.02L75.9961 115.579L75.9919 115.272L76.1914 115.011L76.2877 114.933L75.7897 114.615L75.5214 114.324L75.1775 114.117L74.8074 113.951L74.6286 114.021L74.4374 114.117L74.0673 114.269L73.6464 114.533L73.429 114.629L73.0452 114.726L72.6118 114.81L72.2542 114.755L71.9474 114.699L71.7548 114.533L71.653 114.172V113.867L71.5897 113.426L71.36 113.176L71.2829 112.983L71.2706 112.748L71.2967 112.486L71.36 112.293L71.3214 112.058L71.2196 111.892L71.2458 111.603L71.1949 111.202L71.0422 110.954L70.9651 110.666V110.378L70.8509 110.09L70.8386 109.774L70.9404 109.486L70.9789 109.198L70.8647 108.993L70.6474 108.869L70.4809 108.54L70.4547 108.115L70.2759 107.883L70.0847 107.691H69.8673L69.5358 107.581L69.2428 107.595L68.7695 107.581L68.5522 107.513L68.438 107.363L68.145 107.159L67.9785 106.803L67.7749 106.735L67.4805 106.845L67.3787 106.982L67.2645 107.174L67.0609 107.393L66.7927 107.379L66.512 107.503L66.2437 107.517L65.8861 107.544L65.5284 107.434L65.0951 107.311L64.7236 107.229L64.3659 107.311L64.1238 107.242L63.8047 107.201L63.447 107.174L63.1663 106.954L62.8596 106.832L62.6931 106.873L62.4757 107.01L62.246 106.983L61.9516 106.873L61.8374 106.614L61.8636 106.449L61.9268 106.285L62.041 106.053L61.9777 105.807L62.0039 105.589L62.0548 105.399L62.1057 105.181L62.0672 104.976L62.0548 104.758L62.0286 104.554L61.9901 104.336L62.1428 104.023L62.2707 103.765L62.1937 103.548L62.2199 103.399L62.3217 103.155L62.4496 102.856L62.4372 102.299L62.3231 101.974L62.1979 101.886L62.1662 101.789L62.2267 101.66L62.1607 101.528L62.1345 101.392L62.2006 101.274L62.1098 101.041L61.9268 100.974L61.8636 100.907L61.8003 100.649L61.7494 100.351L61.7755 100.122L61.6861 99.9203L61.5582 99.7982L61.4302 99.5829L61.3023 99.421L61.2514 99.1919L61.1661 98.8956L61.4206 98.8408L61.521 98.6749L61.6999 98.4499L61.9351 98.3909L62.2157 98.3086L62.3189 98.1427L61.6655 97.5446L61.2734 97.1866L61.5031 96.701L61.891 95.8848L62.2652 95.0948L62.5514 94.494L62.6243 94.3829L62.8747 94.3445L62.8293 94.0345L62.8211 93.8315L62.6202 93.8206L62.8444 93.088L63.176 92.0456L63.4277 91.2569L63.5089 91.1252L63.6891 91.0882L63.7304 90.9976L63.513 90.8714L63.3796 90.6259L63.0893 89.9222L62.6312 88.8139L62.5982 88.4175L62.4304 88.1734L62.1497 88.2557L61.8182 88.1775L60.9886 87.5767L60.4397 87.2516L60.254 87.0596L60.1714 86.4437L60.0077 85.7647L59.9376 84.9253L59.9665 84.725L60.4301 84.0885L60.4287 83.7676L60.4672 83.4864L60.448 83.2642L60.3338 83.2614L60.148 83.3588L59.866 83.4329L59.7065 83.4398L58.0873 83.3794L56.2452 83.3108L54.7127 83.2532L53.3824 83.2038L53.3384 82.6565L53.2627 81.7416L53.2091 81.0915L53.1238 80.0627L52.59 79.4221L52.0109 78.7281L51.8072 78.5498L52.5075 78.5278L53.0041 78.5127L52.9064 76.6514L52.7551 76.4621L52.6203 75.8613L52.5295 75.5211L52.2832 75.2468L52.2268 74.9368L52.2722 74.7311L52.407 74.6035L52.4965 74.2853L52.429 73.9656L52.2832 73.668L52.1044 73.3827L51.7619 73.2071L51.2721 72.8889L50.5292 72.4843L49.9019 72.2017L49.701 72.236L48.5922 72.3457L48.2235 72.4034L47.9759 72.3388L47.1492 72.3416L46.8245 72.1249L46.5521 71.8711L45.9729 71.2265L45.8835 70.9041L45.6593 70.8013L45.3195 70.841L44.9755 70.7971L44.3097 70.5296L43.6852 70.2553L43.3825 70.2663L43.1142 70.0948L42.6396 69.6765L42.4181 69.5132L42.3177 69.2965L42.2173 68.9783L42.0261 68.9097L41.7798 68.9673L41.5129 69.1305L41.1387 69.0222L40.6806 68.7286L40.3848 68.4996L40.2156 68.3912L39.8181 68.2307L39.4343 68.1978L38.8537 68.4337L38.3777 68.3363L37.6321 68.2513L36.9938 68.0799L36.7613 67.6354L36.6361 67.3419L36.2564 67.1581L35.9538 66.9331L35.5933 66.5916L35.4145 66.4778L35.0885 66.3831L34.7871 66.2624L34.7541 66.0471L34.6413 65.7631L34.6152 65.6931L34.4102 65.3489L34.3139 65.3242L34.208 65.3927L34.1282 65.4421L34.0415 65.3818L34.0264 65.2281L34.0814 64.9813L33.9631 64.7234L33.6701 64.4518L33.516 64.1706L33.5023 63.8798L33.4376 63.6864L33.3207 63.5877L33.2546 63.4175L33.2409 63.1761L33.3262 62.8881L33.5105 62.5548L33.4706 62.0404L33.2079 61.3464L33.062 60.847L33.0345 60.5398L33.0744 60.3121L33.234 60.0913L33.5518 59.5495L33.6082 59.1366L33.5078 58.6716L33.494 58.3163L33.5669 58.0722L33.4569 57.7526L33.2313 57.4508L33.0744 57.444L32.8612 57.5263L32.604 57.7814L32.3013 57.8266L32.033 57.6689L31.1911 57.7348L29.8828 57.8925L29.3601 58.0557L29.0519 58.1257L28.6791 58.1792L28.082 58.4727L26.6087 59.6126L26.3033 59.7785L25.9566 59.8019L25.7544 59.9596L25.4297 60.083L24.7914 60.5343L24.4667 60.8964L24.2535 61.2242L24.0072 61.2352L23.816 61.1447L23.2121 61.19L22.9026 61.3024L22.5669 61.6207L22.15 62.1968L21.9781 62.3614L21.6424 62.5315L21.2545 62.6727L20.7743 62.884L20.5597 62.8977L20.3699 62.9347L20.2062 62.8387L20.1512 62.6316L19.9035 62.5013L19.312 62.4354L18.4357 62.2846L17.5318 62.2558L17.0834 62.2695L16.7147 62.2791L16.075 62.1982L15.6086 62.1844L15.2001 62.3888L14.6057 62.6425L14.3347 62.7071L14.1352 62.7166L13.9413 62.6851L13.7143 62.5534L13.3965 62.2503L13.1516 62.3669L12.9755 62.4972L12.9783 61.8374L12.9824 60.8457L12.9865 59.9719L12.9893 59.2737L12.992 58.459L12.9948 57.8842L13.1612 57.6662L13.263 57.422L13.1406 57.0956L13.1681 56.7965L13.2534 56.588L13.3649 56.385L13.1076 56.4865L12.9948 56.5428L12.8572 56.6964L12.5243 56.9049L12.3014 57.1134L12.0387 57.2835L11.7058 57.658L11.432 57.8637L11.1472 57.9953L10.674 58.4357L10.2819 58.5234L9.24466 58.5907L8.16612 58.5893L7.17974 58.5879L7.03116 58.5824L7.04081 58.219L7.06554 57.9624L6.7285 57.6922L6.70512 57.3589L6.6157 57.1285L6.50289 56.8473L6.26766 56.6676L5.93612 56.5976L5.39269 56.4426L4.58654 56.2808L3.81616 56.2698L3.06093 56.2849L3.52177 55.7198L3.98262 55.156L3.96889 54.665L3.59604 54.237L3.39519 53.9709L3.08431 53.6047L2.70046 53.3509L2.49139 53.0135L2.51066 52.8091L2.47762 52.6747L2.33181 52.5965L2.18596 52.473L1.98512 52.3372L1.74989 52.1576V51.9779L1.66046 51.7872L1.51461 51.5636V51.3839L1.37981 51.1027L1.234 50.9011L1.08815 50.7667L0.874922 50.576L0.885964 50.4197L1.04277 50.3415L1.11019 50.1618L1.08815 49.9821L0.909348 49.8696L0.696117 49.8134L0.415462 49.4883L0.213231 49.3196L0.0784239 49.2181L0 49.1056L0.0784239 49.0274L0.167847 48.9149L0.191232 48.7353L0.145806 48.5679V48.4225L0.280655 48.3772L0.426462 48.4006L0.572268 48.3114L0.7635 48.2785L0.976731 48.2552L1.08954 48.155L1.07854 47.9767L0.943732 47.6297L0.808883 47.4843L0.7635 47.2717L0.873579 46.8629L0.943732 46.601L1.18996 46.3239L1.94112 45.7299L2.61519 45.3267L2.94396 45.2855L3.18746 45.136L3.34154 44.9069L3.38419 44.6573L3.34981 44.4392L3.22462 44.1182L3.07465 43.7177L2.96185 43.4941L3.06227 43.2266L3.24112 42.8604L3.60708 42.3076L3.94823 41.7123L3.98539 41.5395L4.02939 41.176L4.18623 40.4353L4.27289 40.0348L4.2275 39.8798L4.30593 39.7453L4.51916 39.6329L5.03366 39.5314L5.38308 39.3105L5.92096 38.8949L6.36947 38.4533L6.74089 38.3106L7.41362 37.9018L7.80016 37.6426L7.95151 37.5617L8.3312 37.3737L9.01216 37.3093L9.57893 37.2421L9.89947 37.1186L10.3686 37.0679L10.6836 36.9293L11.0344 36.9252L11.6934 36.7839L11.9176 36.5727L12.1089 36.3203L12.3661 36.105L12.6674 36.0487L13.003 36.0857L13.4047 36.0816L13.8917 36.0144L14.127 36.1818L14.2302 36.3861L14.5301 36.5933L14.7433 36.5823L14.9566 36.537L15.2482 36.7154L15.4394 36.6934L15.5619 36.5933L15.5852 36.3436L15.654 36.2079L15.7971 35.426L16.0337 34.1352L16.2483 32.9652L16.4849 31.6717L16.7312 30.3357L16.9802 28.9833L17.1838 27.8736L17.3585 26.9203L17.4672 26.3346L17.635 25.5678L17.7011 24.8943L17.7684 24.7009L17.7258 24.5377L17.58 24.3059L17.5814 24.2044L17.5979 24.07L17.5814 23.952L17.4287 23.8258L17.3104 23.7504L17.2168 23.6406L17.1742 23.4884L17.0971 23.3361L17.0627 23.1757L16.9513 23.0494L16.9183 22.889L16.9953 22.7367L17.0283 22.5762L16.9953 22.4254L16.9527 22.2484L16.8674 22.0797L16.7381 21.9768L16.4285 21.863L16.1176 21.59L15.7503 21.3458L15.2826 20.8822L15.1808 20.6628L15.1794 20.0606L15.2001 19.4077L15.2303 18.4215L15.2454 17.9194L15.5095 17.8906L15.7421 17.8769L15.9856 17.8426L16.1974 17.8083L16.3927 17.7356L16.5386 17.6465L16.7119 17.5889L16.8481 17.6094L16.9843 17.5299L17.1342 17.4544L17.2801 17.3927L17.4919 17.3406L17.6901 17.4613L17.8015 17.582L17.9308 17.6396L18.0519 17.6259L18.1357 17.6369L18.2224 17.7329L18.3339 17.7397L18.4934 17.7219L18.6434 17.7013L18.7122 17.6725L18.7232 17.6108L18.6847 17.5038L18.6324 17.4037L18.6737 17.2487L18.6778 17.0621L18.6847 16.8248L18.5664 16.6931L18.4481 16.4449L18.316 16.2446L18.111 16.1102L17.9198 16.0581L17.7602 16.1417L17.6116 16.1555L17.5002 16.08L17.32 16.0773L17.1246 16.0526L16.9197 16.0238L16.5482 16.0786L16.4161 16.0115L16.2359 16.0046L16.0268 16.0773L16.0323 15.124L16.0378 14.2255L16.0406 13.5945L16.2277 13.6083L16.4602 13.4944L16.8055 13.4766L17.071 13.3572L17.2196 13.3477L17.5002 13.4053L17.7932 13.5287L18.0807 13.5465H18.8346H19.649H20.5556H21.4636H22.2505L22.4939 13.5534L22.3522 13.3436L22.1872 13.072L22.2505 12.858L22.3316 12.6426L22.4266 12.5301L22.6714 12.6495L22.8764 13.0157L23.047 13.2914L23.2134 13.4272L23.4198 13.4423L23.6537 13.3957L23.8875 13.2818L24.2865 12.7771L24.6827 12.345L24.8877 12.1996L25.105 12.0665L25.2674 12.0158L25.4888 12.0323L25.6759 12.1502L25.797 12.356L26.24 13.072L26.5743 13.6124L26.6871 13.9498L26.6939 14.7728L26.6733 15.5012L26.7173 15.5958L26.7834 15.6232L27.5139 15.4518L28.5058 16.3352L29.239 16.988L29.5554 17.1965L29.7315 17.2541L30.1579 17.2103L30.6642 17.1252L30.9104 17.032L31.1828 16.8276L31.6244 16.5437L31.9849 16.3873L32.1266 16.3667L32.2696 16.4175L32.5737 16.5875L32.7401 16.903L32.5874 17.2693L32.6136 17.4969L32.9327 17.4846L33.1886 17.106L33.3675 16.807L33.7416 16.5642L34.1062 16.2199L34.3607 15.8907L34.6592 15.6987L35.1091 15.4641L35.4654 15.3215L35.7983 15.3366L36.0459 15.1816L36.3665 14.8908L36.5907 14.6576L36.7461 14.5739L37.0584 14.5973L37.4478 14.5657L37.8302 14.2818L38.1782 13.9388L38.3626 13.36L38.4836 12.847L38.5882 12.7427L38.7148 12.6604L38.8633 12.6069L39.221 12.5699L39.8483 12.297L40.2803 12.0199L40.6903 11.9609L40.8113 11.8868L40.9599 11.6304L41.0342 11.1791L40.9778 10.9061L40.2239 10.821H39.73L38.9129 10.7511L38.5235 10.6386L38.4396 10.5604L38.4314 10.474L38.5098 10.2779L38.5855 9.91163L38.474 9.41509L38.0668 8.63737L37.7765 7.87196L37.738 7.33838L37.7449 6.77465L37.7683 6.40565L37.5592 6.11762L36.4297 5.20821L36.039 4.77885L35.9097 4.48123L35.464 3.93391L35.5768 3.76521L35.8341 3.7707L36.0528 3.91336L36.2536 4.21785L36.3967 4.28645H36.5935L37.6348 4.28507L37.8783 4.33719L38.0255 4.44008L38.1507 4.56763L38.3378 4.92289L38.5387 5.09573L38.9514 5.09025L39.598 5.08338L39.9611 5.05182L40.1785 5.15057L40.4481 5.23291L41.0163 5.04362L41.1745 5.03947L41.3451 5.12315L41.9573 5.75825L42.3081 6.02569L42.6038 6.38096L43.0344 6.38234L43.3921 6.07785L43.487 5.0532L43.5943 4.75554L43.7746 4.67186L43.9891 4.66227L44.2437 4.50178L44.5188 4.29328L44.7582 4.22333L45.7528 4.44694L46.0293 4.33995L47.0363 4.0697L48.0653 3.7213L48.3542 3.28236L48.7848 3.1644L49.1233 2.84346L49.3957 2.87636L49.8083 2.89009L50.0642 2.83383L50.1935 2.77351L50.3352 2.62261L50.5677 2.19329L50.8497 2.03004L51.2033 1.85724L51.4454 1.65422L51.6449 1.40319L51.7371 1.1851L51.7343 1.01226L51.6174 0.676205L51.4743 0.360749L51.3202 0.256476L51.2047 0.216709L51.5555 0.142659L51.8444 0.253755L52.2956 0.270206L52.4923 0.185146L52.7771 0.226295L53.1375 0L53.3687 0.0740502H53.5214L53.6603 0.245508L53.769 0.438901L54.106 0.673484L54.073 1.03009L54.0111 1.34559L53.9671 1.71044L53.9478 1.98751L53.8047 2.27144L53.5901 2.53621L53.5269 2.6432L53.4966 2.7831L53.641 2.86816L53.8969 2.89281L54.2161 2.90382L54.4334 2.98612L54.7141 3.00257L55.0525 3.23024L55.2162 3.36742L55.23 3.47303L55.1227 3.72545L55.08 3.95861L55.1639 4.10675L55.263 4.21374L55.5367 4.74047L55.6674 4.92289L55.7775 4.98187L55.8036 5.08338L55.7101 5.27539L55.5973 5.51956L55.3428 5.77608L55.3084 5.97906L55.1062 6.10665L54.6315 6.4098L54.7141 6.88985L54.7306 7.13263L54.7223 7.32192L54.56 7.57568L54.2794 8.32326L54.1762 8.69635L54.0854 9.55775L54.0909 9.84716L54.2202 10.2353L54.4954 11.0981L54.6522 11.2367L55.014 11.4383L55.0594 12.0212L55.0277 12.6303L55.0112 12.8662L55.0704 12.9677L55.2327 13.0171L55.3483 13.0898L55.3662 13.2695L55.3552 13.4574L55.6248 13.5657L55.86 13.6344L56.0774 13.8922L56.4695 14.2941L56.6263 14.3682L56.7047 14.5341L57.0362 14.8729L57.5411 14.9964L58.0501 15.1459L58.251 15.3585L58.4601 15.5314L58.6183 15.5396L58.7517 15.5121L58.9719 15.3626L59.1479 15.2337L59.4547 15.2419L59.8152 15.22L59.877 15.1144L59.9114 14.9786L59.8372 14.6315L59.9651 14.5259L60.2636 14.4669L60.3228 14.2818L60.3902 14.1803L60.4755 14.0623L60.5773 14.0458L60.7052 14.1131L60.9019 14.1556L61.1234 14.2145L61.2417 14.3325L61.4385 14.3421L61.6572 14.3202L61.7452 14.2447L61.8099 14.1131L61.8581 13.8291L61.9984 13.8209L62.2804 13.7578L62.5803 13.633L62.982 13.6138L63.3576 13.6165L63.546 13.5328L63.7207 13.3504L64.0592 12.8333L64.2366 12.7139L64.4279 12.6248L64.5902 12.6413L64.9217 12.5548L65.1941 12.4314L65.2959 12.4629L65.5078 12.7277L65.6151 12.7853L65.7719 12.8045L66.285 12.9389L66.5574 12.8964L66.8518 12.8113L67.1352 12.7798L67.3388 12.8388L67.486 12.762L67.6139 12.7112ZM91.4891 12.7249L91.1039 12.8991L90.8824 12.8319L90.6788 12.3765L90.7476 11.9979L91.0269 11.8718L91.2429 11.8992L91.3227 11.9472L91.5153 12.5686L91.4891 12.7249ZM92.0532 18.6368L91.6336 18.7658L91.5552 18.645V18.1636L91.6735 17.9002L92.2072 17.8262L92.2623 17.748L92.415 17.6986L92.5002 17.8645L92.4879 18.1402L92.0532 18.6368ZM90.998 19.6065L90.9292 20.1689L90.2345 19.9316L90.2868 19.3569L90.6114 19.1951L90.899 18.8892L90.998 18.5147L91.0035 18.0044L91.1108 17.9167L91.2043 17.881L91.2883 17.9153L91.3213 18.6807L91.3612 19.1498L90.998 19.6065ZM93.6545 19.1142L93.8127 19.3144L93.2665 20.1141L92.9652 20.2293L92.6351 20.2526L92.2072 20.014L91.5414 20.0318L91.3337 19.9755L91.3117 19.6271L91.5909 19.2554L92.1495 19.276L93.111 18.977L93.6545 19.1142ZM94.7908 20.5695L93.7673 20.6888L93.2995 20.4982L93.4055 20.3377L93.7549 20.0812L94.18 19.9001L94.561 19.8192L94.9586 19.9207L95.0673 20.136L95.0343 20.3527L94.7908 20.5695ZM90.123 20.6422L89.0665 21.3911L88.7088 21.1456L88.6345 21.0029L88.6951 20.8589L88.6827 20.7986L88.801 20.542L89.3912 20.3322L89.6883 20.2965L90.068 20.3624L90.1313 20.5462L90.123 20.6422ZM94.0768 21.0166L94.4372 21.0331L94.9476 20.9604L95.2902 20.7821L95.6726 20.7464L96.0509 20.7656L97.3262 20.9645L98.0924 21.0262L98.3731 21.0894L98.6469 21.1799L98.8477 21.2773L98.8972 21.4885L98.7115 21.8287L98.5725 22.1853L98.4432 22.6832L98.3428 22.7833L98.175 22.7573L98.2795 23.2031L98.2424 23.3814L98.1585 23.5542L97.9535 23.9136L97.6426 24.3717L97.5504 24.4677L97.3138 24.6268L97.1212 24.8299L97.1625 25.0219L97.2588 25.2153L97.1446 25.4567L96.7773 25.8092L96.5572 25.8943L96.3549 25.9299L96.1678 25.8957L95.8363 25.5418L95.8019 25.8189L95.7125 26.1028L95.5997 26.2578L95.1718 26.2413L94.9338 26.0891L94.5473 25.9204L94.4744 26.3758L94.2336 26.6898L93.9915 26.7886L93.6118 26.8545L93.3945 26.9889L92.9845 26.8846L92.6034 26.6761L92.3874 26.6583L92.2196 26.827L91.335 26.8586L90.9292 27.03L90.6816 26.982L90.317 26.6363L90.2592 26.4073L90.0419 25.9423L89.8465 25.3895L89.7076 24.8875L89.8245 24.4541L90.0612 24.4677L90.3404 24.5322L90.3996 24.502L90.4133 24.3621L90.3514 24.2469L89.9016 24.2648L89.6168 24.0069L89.5673 23.6091L89.625 22.7806L89.6622 22.6105L89.8616 22.3732L89.9263 22.1634L89.8768 21.9412L89.9621 21.5365L90.1478 21.1867L90.8576 20.7451L91.6817 20.5873L94.0768 21.0166ZM85.5681 25.6227L85.1595 25.6954L85.6865 24.738L86.1569 24.2922L86.1638 23.4088L86.6742 22.6228L87.1433 22.3032L87.8023 22.21L88.1627 22.6887L87.7156 24.0466L87.5849 24.0549L86.9865 24.7709L86.3206 25.2715L85.5681 25.6227ZM112.4 25.1797L112.152 25.3635L112.071 25.4581L111.867 25.3868L111.904 25.2812L111.965 25.2921L112.031 24.9849L112.379 25.0219L112.4 25.1797ZM113.881 31.385L113.502 31.7609L113.627 31.3261L113.563 31.0257L113.613 30.7939L113.873 30.5689L113.951 30.536L113.929 30.8131L113.947 30.8981L113.881 31.385ZM136.101 70.6682L135.95 70.7532L135.935 70.5036L136.33 70.1895L136.394 69.8178L136.601 69.9892L136.656 70.1799L136.653 70.2594L136.101 70.6682ZM135.485 72.1468L135.353 72.3787L135.2 72.3444L135.14 72.1894L135.027 72.0385L135.088 71.9205L135.189 71.8533L135.471 71.8629L135.485 72.1468ZM115.309 111.171L115.43 111.285L115.207 111.274L114.957 111.374L114.573 111.463L114.419 111.296L114.751 111.062L114.872 110.888L114.958 110.925L115.07 111.051L115.309 111.171ZM110.943 114.291L110.94 114.509L110.779 114.398L110.353 114.483L110.204 114.319L110.779 113.615L110.895 113.718L110.984 113.845L111.046 114.024L110.98 114.139L110.943 114.291ZM98.109 124.918L98.0374 124.97L97.7953 124.439L98.2823 123.93L98.4446 124.136L98.3153 124.539L98.1722 124.824L98.109 124.918ZM98.49 130.79L98.2245 130.986L98.2727 129.958L98.4157 129.615L98.5712 129.359L98.7638 129.201L98.9069 129.425L98.7844 129.92L98.4474 130.528L98.49 130.79Z" fill="var(--fill-0, #71B219)" stroke="var(--stroke-0, white)" mask="url(#path-1-inside-1_0_88)"/>
</g>
</svg>
