<svg preserveAspectRatio="none" width="100%" height="100%" overflow="visible" style="display: block;" viewBox="0 0 151 157" fill="none" xmlns="http://www.w3.org/2000/svg"><g id="BR"><mask id="path-1-inside-1_0_88" fill="white"><path d="M68 13L68 13L68 13L69 13L69 13L70 13L70 13L70 13L70 12L70 12L69 12L69 12L69 12L69 11L69 11L69 11L69 11L70 11L70 10L70 10L70 10L70 11L70 11L71 11L72 11L72 11L72 11L73 10L73 10L73 10L73 10L73 10L73 10L74 10L74 11L74 11L74 11L74 11L74 11L74 11L74 11L75 11L75 11L75 11L75 11L75 12L76 12L76 12L76 12L77 12L77 12L77 12L77 12L78 11L78 11L78 11L78 11L78 11L78 11L78 11L79 12L79 12L79 11L80 11L80 11L80 11L80 12L80 12L80 12L81 12L81 12L81 12L81 12L82 12L82 11L82 11L82 11L83 10L83 10L83 10L83 9L83 9L83 9L84 8V8L84 8L84 8L84 8L84 7L84 7L85 6L85 6L85 6L85 6L85 6L86 5L86 5L86 5L86 5L86 5L87 4L87 4L87 4L88 4L88 4L88 6L89 8L89 8L90 10L90 10L90 11L90 11L90 12L90 12L90 12L90 12L90 12L90 12L91 13L91 13L92 13L92 13L92 14L93 14L93 15L93 15L93 16L93 16L92 16L92 16L92 17L91 17L91 18L90 18L90 19L90 20L89 20L89 20L88 20L88 20L88 21L87 22L87 22L87 22L86 23L86 23L86 24L86 24L85 25L85 25L85 25L85 26L84 25L83 26L82 26L84 26L84 26L85 26L86 26L87 25L88 25L88 24L89 24L89 24L89 24L89 24L89 24L89 24L89 25L89 25L90 25L90 25L90 26L90 26L90 27L90 27L90 27L90 27L91 28L92 28L92 27L92 27L93 27L93 27L94 28L94 27L95 27L95 28L95 28L94 29L94 30L94 30L94 30L94 30L94 30L95 30L95 29L96 28L96 27L96 27L98 26L98 26L98 26L99 26L99 26L99 26L99 26L99 26L98 25L99 25L99 24L99 24L99 24L99 24L100 23L100 23L100 23L100 23L100 23L100 23L101 23L101 23L101 23L101 23L102 23L102 23L102 23L102 23L103 23L103 23L102 23L102 23L103 22L103 23L104 23L104 23L104 23L104 23L105 23L105 23L105 23L106 24L106 24L106 24L106 24L107 24L107 24L107 24L108 24L108 24L108 25L109 25L110 25L110 25L110 25L111 26L111 27L111 27L111 26L111 26L112 26L112 26L112 26L113 26L113 27L113 27L113 27L113 27L113 27L114 27L114 28L114 28L114 28L113 28L113 29L113 29L113 29L113 29L113 29L114 29L114 28L114 28L114 29L114 29L114 29L114 30L114 30L114 30L114 30L113 31L113 32L113 32L113 32L114 31L114 31L115 30L115 30H115L115 30L115 30L115 30L115 30L115 31L115 31L116 30L116 30L116 30L117 30L118 30L118 29L118 29L119 29L120 30L120 30L121 30L121 30L123 31L124 31L124 31L125 31L125 31L126 31L126 31L127 31L128 31L129 31L130 31L131 31L132 32L133 32L133 32L134 32L135 33L136 34L136 34L137 34L138 35L138 35L139 36L140 37L140 38L142 38L142 39L143 39L143 39L144 40L144 40L145 40L146 40L147 40L148 40L149 40L149 40L150 41L150 43L150 44L151 45L151 46L151 47L151 47L151 47L151 48L151 48L151 49L151 49L151 49L151 50L151 50L151 50L151 51L151 51L151 52L150 54L149 56L148 57L148 57L147 58L147 57L147 58L147 58L146 59L146 59L145 60L145 60L144 61L144 61L143 62L142 63L142 63L142 63L142 63L142 64L142 64L142 64L142 64L142 64L142 63L142 63L141 64L141 64L141 65L140 67L139 68L139 69L138 70L137 70L137 70L137 70L137 69L136 69L136 69L136 69L136 69L136 69L136 70L136 70L136 70L136 71L135 71L135 72L135 72L135 73L135 72L135 73L135 73L135 73L135 73L135 74L135 74L135 75L135 74L135 74L135 77L135 78L135 79L135 80L136 82L136 82L135 83L135 84L135 85L134 86L134 87L134 87L134 89L134 89L134 90L134 90L133 90L133 91L132 93L132 94L132 95L132 96L132 96L132 97L131 97L131 98L130 99L130 99L130 100L130 100L129 101L128 102L128 102L128 102L128 103L127 104L127 105L127 105L128 106L127 106L127 107L125 107L125 108L124 109L124 109L124 110L124 110L124 110L123 110L123 110H121L120 110L120 110L120 110L119 110L119 110L119 110L119 109L119 109L119 110L119 110L119 110L119 110L119 110L119 110L118 111L118 111L117 111L116 111L116 111L116 111L117 111L117 111L117 110L116 110L116 110L115 111L114 111L113 111L113 111L113 111L113 112L114 112L113 112L113 112L112 112L111 113L111 113L110 113L110 114L110 114L110 114L109 114L109 114L108 114L106 115L105 116L104 117L102 118L101 119L101 119L101 119L100 119L100 119L101 119L101 120L100 120L100 121L99 121L100 120L99 120L99 120L99 120L99 121L98 121L98 121L98 121L98 120L98 121L98 121L99 121L99 122L98 122L98 122L98 123H98L98 123L98 124L98 124L98 124L98 124L98 125L98 125L98 125L98 126L98 126L98 127L98 128L98 128L98 128L98 129L98 129L98 130L98 131L98 132L98 133L98 133L97 134L97 134L96 135L96 136L95 136L94 138L92 140L92 142L90 144L90 145L89 146L88 147L87 148L86 149L85 149L85 150L85 150L85 149L85 149L85 149L85 149L85 149L86 149L86 149L86 148L87 148L88 147L88 146L88 146L88 146L88 145L89 145L89 145L89 145L89 145L90 144L90 144L90 142L90 142L90 143L90 142L91 142L90 142L90 142L89 142L89 142L89 142L88 142L88 141L88 141L88 141L88 141L88 142L88 142L88 142L88 143L88 143L88 144L88 144L87 144L87 144L87 145L87 145L87 145L87 146L86 146L85 146L85 147L85 147L85 148L84 148L84 149L84 149L84 150L84 150L84 150L84 151L84 152L83 154L82 155L82 155L81 156L80 157L80 157L79 157L79 157L79 157L79 157L79 156L79 155L79 154L79 154L80 154L80 154L80 153L81 153L80 153L80 152L80 152L79 152L79 151L79 151L78 150L78 150L78 150L78 150L78 150L78 149L77 149L77 149L76 149L76 148L75 148L75 147L75 147L74 147L73 146L73 146L73 146L72 146L72 146L72 146L72 145L72 145L72 145L71 144L71 144L71 144L71 144L71 145L71 145L70 145L70 145L70 145L70 145L70 145L69 145L69 145L70 144L69 144L69 144L69 143L68 142L67 141L66 141L66 141L66 141L65 141L65 142L65 142L64 142L64 142L63 141L64 141L64 141L64 140L64 140L65 140L65 139L66 139L66 138L67 137L67 137L67 137L68 136L68 136L68 136L69 135L69 135L69 134L69 134L70 134L70 134L70 134L70 134L70 133L70 133L70 133L70 134L71 133L71 133L71 133L70 133L71 133L71 132L72 132L72 132L72 132L72 131L73 131L73 131L73 131L73 131L74 131L74 130L74 130L74 130L74 130L74 130L74 130L75 130L75 130L75 129L75 129L76 129L76 129L76 129L76 129L77 129L77 129L77 128L78 128L78 128L78 128L78 127L78 127L78 127L78 126L78 126L78 125L78 125L78 124L78 124L78 124L78 123L78 122L78 122L77 122L77 121L77 121L77 121L77 121L76 121L76 121L76 121L76 121L76 122L75 122L75 121L75 121L75 121L75 120L76 120L76 119L76 118L76 117L76 116L76 116L76 115L76 115L76 115L76 115L76 114L75 114L75 114L75 114L74 114L74 114L74 114L73 115L73 115L73 115L72 115L72 115L72 114L72 114V114L72 113L71 113L71 113L71 113L71 112L71 112L71 112L71 112L71 112L71 111L71 111L71 111V110L71 110L71 110L71 110L71 109L71 109L71 109L70 108L70 108L70 108L70 108H70L70 108L69 108L69 108L69 108L68 107L68 107L68 107L68 107L68 107L67 107L67 107L67 107L67 107L66 108L66 108L66 108L66 107L65 107L65 107L64 107L64 107L64 107L63 107L63 107L63 107L63 107L62 107L62 107L62 107L62 107L62 106L62 106L62 106L62 106L62 106L62 105L62 105L62 105L62 105L62 105L62 104L62 104L62 104L62 104L62 103L62 103L62 103L62 102L62 102L62 102L62 102L62 102L62 102L62 101L62 101L62 101L62 101L62 101L62 101L62 100L62 100L62 100L62 100L61 100L61 99L61 99L61 99L61 99L62 99L62 98L62 98L62 98L62 98L62 98L61 97L62 97L62 96L62 95L63 94L63 94L63 94L63 94L63 94L63 94L63 93L63 92L63 91L64 91L64 91L64 91L64 91L63 91L63 90L63 89L63 88L62 88L62 88L62 88L61 88L60 87L60 87L60 86L60 86L60 85L60 85L60 84L60 84L60 84L60 83L60 83L60 83L60 83L60 83L58 83L56 83L55 83L53 83L53 83L53 82L53 81L53 80L53 79L52 79L52 78L52 78L53 78L53 77L53 76L53 76L52 76L52 75L52 75L52 75L52 75L52 74L52 74L52 74L52 73L52 73L51 73L50 72L50 72L50 72L49 72L48 72L48 72L47 72L47 72L47 72L46 71L46 71L46 71L45 71L45 71L44 70L44 70L43 70L43 70L43 70L42 70L42 69L42 69L42 69L42 69L42 69L41 69L41 69L40 68L40 68L40 68L39 68L39 68L38 68L38 68L37 68L37 68L37 67L36 67L36 67L36 67L35 66L35 66L35 66L35 66L35 66L35 66L34 65L34 65L34 65L34 65L34 65L34 65L34 65L34 65L34 64L34 64L34 64L33 64L33 64L33 63L33 63L33 63L34 63L34 62L33 61L33 61L33 60L33 60L33 60L34 60L34 59L34 59L34 58L34 58L34 58L33 58L33 57L33 58L33 58L32 58L32 58L31 58L30 58L29 58L29 58L29 58L28 58L27 60L26 60L26 60L26 60L25 60L25 60L24 61L24 61L24 61L24 61L23 61L23 61L23 62L22 62L22 62L22 62L21 63L21 63L21 63L20 63L20 63L20 63L20 62L19 62L18 62L18 62L17 62L17 62L16 62L16 62L15 62L15 63L14 63L14 63L14 63L14 63L13 62L13 62L13 62L13 62L13 61L13 60L13 59L13 58L13 58L13 58L13 57L13 57L13 57L13 57L13 56L13 56L13 56L13 57L12 57L12 57L12 57L12 58L11 58L11 58L11 58L10 58L9 59L8 59L7 59L7 59L7 58L7 58L7 58L7 57L7 57L6 57L6 57L6 57L5 56L5 56L4 56L3 56L4 56L4 55L4 55L4 54L3 54L3 54L3 53L2 53L2 53L2 53L2 53L2 52L2 52L2 52V52L2 52L2 52V51L1 51L1 51L1 51L1 51L1 50L1 50L1 50L1 50L1 50L1 50L0 50L0 49L0 49L0 49L0 49L0 49L0 49L0 49V48L0 48L0 48L1 48L1 48L1 48L1 48L1 48L1 48L1 48L1 47L1 47L1 47L1 46L2 46L3 45L3 45L3 45L3 45L3 45L3 44L3 44L3 44L3 44L3 43L3 43L4 42L4 42L4 42L4 41L4 40L4 40L4 40L4 40L4 40L5 40L5 39L6 39L6 38L7 38L7 38L8 38L8 38L8 37L9 37L10 37L10 37L10 37L11 37L11 37L12 37L12 37L12 36L12 36L13 36L13 36L13 36L14 36L14 36L14 36L14 37L15 37L15 36L15 37L15 37L16 37L16 36L16 36L16 35L16 34L16 33L16 32L17 30L17 29L17 28L17 27L18 26L18 26L18 25L18 25L18 24L18 24L18 24L18 24L18 24L17 24L17 24L17 24L17 24L17 23L17 23L17 23L17 23L17 23L17 23L17 22L17 22L17 22L17 22L16 22L16 22L16 21L15 21L15 21L15 20L15 19L15 18L15 18L16 18L16 18L16 18L16 18L16 18L16 18L17 18L17 18L17 18L17 18L17 17L18 17L18 18L18 18L18 18L18 18L18 18L18 18L18 18L18 18L19 18L19 18L19 18L19 18L19 17L19 17L19 17L19 17L19 17L18 16L18 16L18 16L18 16L18 16L18 16L18 16L17 16L17 16L17 16L16 16L16 16L16 16L16 16L16 15L16 14L16 14L16 14L16 14L17 14L17 13L17 13L18 13L18 14L18 14H19H20H21H22H22L22 14L22 13L22 13L22 13L22 13L22 12L23 13L23 13L23 13L23 13L23 13L24 13L24 13L24 13L25 12L25 12L25 12L25 12L26 12L26 12L26 12L26 13L27 14L27 14L27 15L27 16L27 16L27 16L28 16L28 16L29 17L30 17L30 17L30 17L31 17L31 17L31 17L32 16L32 16L32 16L32 16L33 17L33 17L33 17L33 18L33 18L33 17L33 17L34 17L34 16L34 16L35 16L35 16L36 15L36 15L36 15L36 15L37 15L37 15L37 15L37 15L38 14L38 14L38 13L38 13L39 13L39 13L39 13L39 13L40 12L40 12L41 12L41 12L41 12L41 11L41 11L40 11H40L39 11L38 11L38 11L38 10L38 10L39 10L38 9L38 9L38 8L38 7L38 7L38 6L38 6L36 5L36 5L36 4L36 4L36 4L36 4L36 4L36 4L36 4H37L38 4L38 4L38 4L38 5L38 5L38 5L39 5L40 5L40 5L40 5L40 5L41 5L41 5L41 5L42 6L42 6L43 6L43 6L43 6L44 5L44 5L44 5L44 5L44 4L44 4L45 4L46 4L46 4L47 4L48 4L48 3L49 3L49 3L49 3L50 3L50 3L50 3L50 3L51 2L51 2L51 2L51 2L52 1L52 1L52 1L52 1L52 0L51 0L51 0L52 0L52 0L52 0L52 0L53 0L53 0L53 0H54L54 0L54 0L54 1L54 1L54 1L54 2L54 2L54 2L54 2L54 3L54 3L54 3L54 3L54 3L54 3L55 3L55 3L55 3L55 4L55 4L55 4L55 4L55 4L56 5L56 5L56 5L56 5L56 5L56 6L55 6L55 6L55 6L55 6L55 7L55 7L55 7L55 8L54 8L54 9L54 10L54 10L54 10L54 11L55 11L55 11L55 12L55 13L55 13L55 13L55 13L55 13L55 13L55 14L56 14L56 14L56 14L56 14L57 14L57 14L57 15L58 15L58 15L58 15L58 16L59 16L59 16L59 15L59 15L60 15L60 15L60 15L60 15L60 15L60 14L60 14L60 14L60 14L60 14L61 14L61 14L61 14L61 14L61 14L61 14L62 14L62 14L62 14L62 14L62 14L62 14L63 14L63 14L63 14L64 14L64 13L64 13L64 13L64 13L65 13L65 13L65 12L65 12L66 13L66 13L66 13L66 13L67 13L67 13L67 13L67 13L68 13L68 13ZM92 13L91 13L91 13L91 12L91 12L91 12L91 12L91 12L92 13L92 13ZM92 19L92 19L92 19V18L92 18L92 18L92 18L92 18L92 18L92 18L92 19ZM91 20L91 20L90 20L90 19L91 19L91 19L91 18L91 18L91 18L91 18L91 18L91 19L91 19L91 20ZM94 19L94 19L93 20L93 20L93 20L92 20L92 20L91 20L91 20L92 19L92 19L93 19L94 19ZM95 21L94 21L93 20L93 20L94 20L94 20L95 20L95 20L95 20L95 20L95 21ZM90 21L89 21L89 21L89 21L89 21L89 21L89 20L89 20L90 20L90 20L90 20L90 21ZM94 21L94 21L95 21L95 21L96 21L96 21L97 21L98 21L98 21L99 21L99 21L99 22L99 22L99 22L98 23L98 23L98 23L98 23L98 23L98 24L98 24L98 24L98 24L97 25L97 25L97 25L97 25L97 26L97 26L97 26L96 26L96 26L96 26L96 26L96 26L96 26L95 26L95 26L94 26L94 26L94 27L94 27L94 27L93 27L93 27L93 27L92 27L92 27L91 27L91 27L91 27L90 27L90 26L90 26L90 25L90 25L90 24L90 24L90 24L90 24L90 24L90 24L90 24L90 24L90 24L90 23L90 23L90 22L90 22L90 22L90 22L90 21L91 21L92 21L94 21ZM86 26L85 26L86 25L86 24L86 23L87 23L87 22L88 22L88 23L88 24L88 24L87 25L86 25L86 26ZM112 25L112 25L112 26L112 25L112 25L112 25L112 25L112 25L112 25ZM114 31L114 32L114 31L114 31L114 31L114 31L114 30L114 31L114 31L114 31ZM136 71L136 71L136 70L136 70L136 70L137 70L137 70L137 70L136 71ZM136 72L135 72L135 72L135 72L135 72L135 72L135 72L136 72L136 72ZM115 111L115 111L115 111L115 111L115 112L114 111L115 111L115 111L115 111L115 111L115 111ZM111 114L111 114L111 114L110 114L110 114L111 114L111 114L111 114L111 114L111 114L111 114ZM98 125L98 125L98 124L98 124L98 124L98 124L98 125L98 125ZM98 131L98 131L98 130L98 130L99 129L99 129L99 129L99 130L98 130L98 131Z"/></mask><path d="M68 13L68 13L68 13L69 13L69 13L70 13L70 13L70 13L70 12L70 12L69 12L69 12L69 12L69 11L69 11L69 11L69 11L70 11L70 10L70 10L70 10L70 11L70 11L71 11L72 11L72 11L72 11L73 10L73 10L73 10L73 10L73 10L73 10L74 10L74 11L74 11L74 11L74 11L74 11L74 11L74 11L75 11L75 11L75 11L75 11L75 12L76 12L76 12L76 12L77 12L77 12L77 12L77 12L78 11L78 11L78 11L78 11L78 11L78 11L78 11L79 12L79 12L79 11L80 11L80 11L80 11L80 12L80 12L80 12L81 12L81 12L81 12L81 12L82 12L82 11L82 11L82 11L83 10L83 10L83 10L83 9L83 9L83 9L84 8V8L84 8L84 8L84 8L84 7L84 7L85 6L85 6L85 6L85 6L85 6L86 5L86 5L86 5L86 5L86 5L87 4L87 4L87 4L88 4L88 4L88 6L89 8L89 8L90 10L90 10L90 11L90 11L90 12L90 12L90 12L90 12L90 12L90 12L91 13L91 13L92 13L92 13L92 14L93 14L93 15L93 15L93 16L93 16L92 16L92 16L92 17L91 17L91 18L90 18L90 19L90 20L89 20L89 20L88 20L88 20L88 21L87 22L87 22L87 22L86 23L86 23L86 24L86 24L85 25L85 25L85 25L85 26L84 25L83 26L82 26L84 26L84 26L85 26L86 26L87 25L88 25L88 24L89 24L89 24L89 24L89 24L89 24L89 24L89 25L89 25L90 25L90 25L90 26L90 26L90 27L90 27L90 27L90 27L91 28L92 28L92 27L92 27L93 27L93 27L94 28L94 27L95 27L95 28L95 28L94 29L94 30L94 30L94 30L94 30L94 30L95 30L95 29L96 28L96 27L96 27L98 26L98 26L98 26L99 26L99 26L99 26L99 26L99 26L98 25L99 25L99 24L99 24L99 24L99 24L100 23L100 23L100 23L100 23L100 23L100 23L101 23L101 23L101 23L101 23L102 23L102 23L102 23L102 23L103 23L103 23L102 23L102 23L103 22L103 23L104 23L104 23L104 23L104 23L105 23L105 23L105 23L106 24L106 24L106 24L106 24L107 24L107 24L107 24L108 24L108 24L108 25L109 25L110 25L110 25L110 25L111 26L111 27L111 27L111 26L111 26L112 26L112 26L112 26L113 26L113 27L113 27L113 27L113 27L113 27L114 27L114 28L114 28L114 28L113 28L113 29L113 29L113 29L113 29L113 29L114 29L114 28L114 28L114 29L114 29L114 29L114 30L114 30L114 30L114 30L113 31L113 32L113 32L113 32L114 31L114 31L115 30L115 30H115L115 30L115 30L115 30L115 30L115 31L115 31L116 30L116 30L116 30L117 30L118 30L118 29L118 29L119 29L120 30L120 30L121 30L121 30L123 31L124 31L124 31L125 31L125 31L126 31L126 31L127 31L128 31L129 31L130 31L131 31L132 32L133 32L133 32L134 32L135 33L136 34L136 34L137 34L138 35L138 35L139 36L140 37L140 38L142 38L142 39L143 39L143 39L144 40L144 40L145 40L146 40L147 40L148 40L149 40L149 40L150 41L150 43L150 44L151 45L151 46L151 47L151 47L151 47L151 48L151 48L151 49L151 49L151 49L151 50L151 50L151 50L151 51L151 51L151 52L150 54L149 56L148 57L148 57L147 58L147 57L147 58L147 58L146 59L146 59L145 60L145 60L144 61L144 61L143 62L142 63L142 63L142 63L142 63L142 64L142 64L142 64L142 64L142 64L142 63L142 63L141 64L141 64L141 65L140 67L139 68L139 69L138 70L137 70L137 70L137 70L137 69L136 69L136 69L136 69L136 69L136 69L136 70L136 70L136 70L136 71L135 71L135 72L135 72L135 73L135 72L135 73L135 73L135 73L135 73L135 74L135 74L135 75L135 74L135 74L135 77L135 78L135 79L135 80L136 82L136 82L135 83L135 84L135 85L134 86L134 87L134 87L134 89L134 89L134 90L134 90L133 90L133 91L132 93L132 94L132 95L132 96L132 96L132 97L131 97L131 98L130 99L130 99L130 100L130 100L129 101L128 102L128 102L128 102L128 103L127 104L127 105L127 105L128 106L127 106L127 107L125 107L125 108L124 109L124 109L124 110L124 110L124 110L123 110L123 110H121L120 110L120 110L120 110L119 110L119 110L119 110L119 109L119 109L119 110L119 110L119 110L119 110L119 110L119 110L118 111L118 111L117 111L116 111L116 111L116 111L117 111L117 111L117 110L116 110L116 110L115 111L114 111L113 111L113 111L113 111L113 112L114 112L113 112L113 112L112 112L111 113L111 113L110 113L110 114L110 114L110 114L109 114L109 114L108 114L106 115L105 116L104 117L102 118L101 119L101 119L101 119L100 119L100 119L101 119L101 120L100 120L100 121L99 121L100 120L99 120L99 120L99 120L99 121L98 121L98 121L98 121L98 120L98 121L98 121L99 121L99 122L98 122L98 122L98 123H98L98 123L98 124L98 124L98 124L98 124L98 125L98 125L98 125L98 126L98 126L98 127L98 128L98 128L98 128L98 129L98 129L98 130L98 131L98 132L98 133L98 133L97 134L97 134L96 135L96 136L95 136L94 138L92 140L92 142L90 144L90 145L89 146L88 147L87 148L86 149L85 149L85 150L85 150L85 149L85 149L85 149L85 149L85 149L86 149L86 149L86 148L87 148L88 147L88 146L88 146L88 146L88 145L89 145L89 145L89 145L89 145L90 144L90 144L90 142L90 142L90 143L90 142L91 142L90 142L90 142L89 142L89 142L89 142L88 142L88 141L88 141L88 141L88 141L88 142L88 142L88 142L88 143L88 143L88 144L88 144L87 144L87 144L87 145L87 145L87 145L87 146L86 146L85 146L85 147L85 147L85 148L84 148L84 149L84 149L84 150L84 150L84 150L84 151L84 152L83 154L82 155L82 155L81 156L80 157L80 157L79 157L79 157L79 157L79 157L79 156L79 155L79 154L79 154L80 154L80 154L80 153L81 153L80 153L80 152L80 152L79 152L79 151L79 151L78 150L78 150L78 150L78 150L78 150L78 149L77 149L77 149L76 149L76 148L75 148L75 147L75 147L74 147L73 146L73 146L73 146L72 146L72 146L72 146L72 145L72 145L72 145L71 144L71 144L71 144L71 144L71 145L71 145L70 145L70 145L70 145L70 145L70 145L69 145L69 145L70 144L69 144L69 144L69 143L68 142L67 141L66 141L66 141L66 141L65 141L65 142L65 142L64 142L64 142L63 141L64 141L64 141L64 140L64 140L65 140L65 139L66 139L66 138L67 137L67 137L67 137L68 136L68 136L68 136L69 135L69 135L69 134L69 134L70 134L70 134L70 134L70 134L70 133L70 133L70 133L70 134L71 133L71 133L71 133L70 133L71 133L71 132L72 132L72 132L72 132L72 131L73 131L73 131L73 131L73 131L74 131L74 130L74 130L74 130L74 130L74 130L74 130L75 130L75 130L75 129L75 129L76 129L76 129L76 129L76 129L77 129L77 129L77 128L78 128L78 128L78 128L78 127L78 127L78 127L78 126L78 126L78 125L78 125L78 124L78 124L78 124L78 123L78 122L78 122L77 122L77 121L77 121L77 121L77 121L76 121L76 121L76 121L76 121L76 122L75 122L75 121L75 121L75 121L75 120L76 120L76 119L76 118L76 117L76 116L76 116L76 115L76 115L76 115L76 115L76 114L75 114L75 114L75 114L74 114L74 114L74 114L73 115L73 115L73 115L72 115L72 115L72 114L72 114V114L72 113L71 113L71 113L71 113L71 112L71 112L71 112L71 112L71 112L71 111L71 111L71 111V110L71 110L71 110L71 110L71 109L71 109L71 109L70 108L70 108L70 108L70 108H70L70 108L69 108L69 108L69 108L68 107L68 107L68 107L68 107L68 107L67 107L67 107L67 107L67 107L66 108L66 108L66 108L66 107L65 107L65 107L64 107L64 107L64 107L63 107L63 107L63 107L63 107L62 107L62 107L62 107L62 107L62 106L62 106L62 106L62 106L62 106L62 105L62 105L62 105L62 105L62 105L62 104L62 104L62 104L62 104L62 103L62 103L62 103L62 102L62 102L62 102L62 102L62 102L62 102L62 101L62 101L62 101L62 101L62 101L62 101L62 100L62 100L62 100L62 100L61 100L61 99L61 99L61 99L61 99L62 99L62 98L62 98L62 98L62 98L62 98L61 97L62 97L62 96L62 95L63 94L63 94L63 94L63 94L63 94L63 94L63 93L63 92L63 91L64 91L64 91L64 91L64 91L63 91L63 90L63 89L63 88L62 88L62 88L62 88L61 88L60 87L60 87L60 86L60 86L60 85L60 85L60 84L60 84L60 84L60 83L60 83L60 83L60 83L60 83L58 83L56 83L55 83L53 83L53 83L53 82L53 81L53 80L53 79L52 79L52 78L52 78L53 78L53 77L53 76L53 76L52 76L52 75L52 75L52 75L52 75L52 74L52 74L52 74L52 73L52 73L51 73L50 72L50 72L50 72L49 72L48 72L48 72L47 72L47 72L47 72L46 71L46 71L46 71L45 71L45 71L44 70L44 70L43 70L43 70L43 70L42 70L42 69L42 69L42 69L42 69L42 69L41 69L41 69L40 68L40 68L40 68L39 68L39 68L38 68L38 68L37 68L37 68L37 67L36 67L36 67L36 67L35 66L35 66L35 66L35 66L35 66L35 66L34 65L34 65L34 65L34 65L34 65L34 65L34 65L34 65L34 64L34 64L34 64L33 64L33 64L33 63L33 63L33 63L34 63L34 62L33 61L33 61L33 60L33 60L33 60L34 60L34 59L34 59L34 58L34 58L34 58L33 58L33 57L33 58L33 58L32 58L32 58L31 58L30 58L29 58L29 58L29 58L28 58L27 60L26 60L26 60L26 60L25 60L25 60L24 61L24 61L24 61L24 61L23 61L23 61L23 62L22 62L22 62L22 62L21 63L21 63L21 63L20 63L20 63L20 63L20 62L19 62L18 62L18 62L17 62L17 62L16 62L16 62L15 62L15 63L14 63L14 63L14 63L14 63L13 62L13 62L13 62L13 62L13 61L13 60L13 59L13 58L13 58L13 58L13 57L13 57L13 57L13 57L13 56L13 56L13 56L13 57L12 57L12 57L12 57L12 58L11 58L11 58L11 58L10 58L9 59L8 59L7 59L7 59L7 58L7 58L7 58L7 57L7 57L6 57L6 57L6 57L5 56L5 56L4 56L3 56L4 56L4 55L4 55L4 54L3 54L3 54L3 53L2 53L2 53L2 53L2 53L2 52L2 52L2 52V52L2 52L2 52V51L1 51L1 51L1 51L1 51L1 50L1 50L1 50L1 50L1 50L1 50L0 50L0 49L0 49L0 49L0 49L0 49L0 49L0 49V48L0 48L0 48L1 48L1 48L1 48L1 48L1 48L1 48L1 48L1 47L1 47L1 47L1 46L2 46L3 45L3 45L3 45L3 45L3 45L3 44L3 44L3 44L3 44L3 43L3 43L4 42L4 42L4 42L4 41L4 40L4 40L4 40L4 40L4 40L5 40L5 39L6 39L6 38L7 38L7 38L8 38L8 38L8 37L9 37L10 37L10 37L10 37L11 37L11 37L12 37L12 37L12 36L12 36L13 36L13 36L13 36L14 36L14 36L14 36L14 37L15 37L15 36L15 37L15 37L16 37L16 36L16 36L16 35L16 34L16 33L16 32L17 30L17 29L17 28L17 27L18 26L18 26L18 25L18 25L18 24L18 24L18 24L18 24L18 24L17 24L17 24L17 24L17 24L17 23L17 23L17 23L17 23L17 23L17 23L17 22L17 22L17 22L17 22L16 22L16 22L16 21L15 21L15 21L15 20L15 19L15 18L15 18L16 18L16 18L16 18L16 18L16 18L16 18L17 18L17 18L17 18L17 18L17 17L18 17L18 18L18 18L18 18L18 18L18 18L18 18L18 18L18 18L19 18L19 18L19 18L19 18L19 17L19 17L19 17L19 17L19 17L18 16L18 16L18 16L18 16L18 16L18 16L18 16L17 16L17 16L17 16L16 16L16 16L16 16L16 16L16 15L16 14L16 14L16 14L16 14L17 14L17 13L17 13L18 13L18 14L18 14H19H20H21H22H22L22 14L22 13L22 13L22 13L22 13L22 12L23 13L23 13L23 13L23 13L23 13L24 13L24 13L24 13L25 12L25 12L25 12L25 12L26 12L26 12L26 12L26 13L27 14L27 14L27 15L27 16L27 16L27 16L28 16L28 16L29 17L30 17L30 17L30 17L31 17L31 17L31 17L32 16L32 16L32 16L32 16L33 17L33 17L33 17L33 18L33 18L33 17L33 17L34 17L34 16L34 16L35 16L35 16L36 15L36 15L36 15L36 15L37 15L37 15L37 15L37 15L38 14L38 14L38 13L38 13L39 13L39 13L39 13L39 13L40 12L40 12L41 12L41 12L41 12L41 11L41 11L40 11H40L39 11L38 11L38 11L38 10L38 10L39 10L38 9L38 9L38 8L38 7L38 7L38 6L38 6L36 5L36 5L36 4L36 4L36 4L36 4L36 4L36 4L36 4H37L38 4L38 4L38 4L38 5L38 5L38 5L39 5L40 5L40 5L40 5L40 5L41 5L41 5L41 5L42 6L42 6L43 6L43 6L43 6L44 5L44 5L44 5L44 5L44 4L44 4L45 4L46 4L46 4L47 4L48 4L48 3L49 3L49 3L49 3L50 3L50 3L50 3L50 3L51 2L51 2L51 2L51 2L52 1L52 1L52 1L52 1L52 0L51 0L51 0L52 0L52 0L52 0L52 0L53 0L53 0L53 0H54L54 0L54 0L54 1L54 1L54 1L54 2L54 2L54 2L54 2L54 3L54 3L54 3L54 3L54 3L54 3L55 3L55 3L55 3L55 4L55 4L55 4L55 4L55 4L56 5L56 5L56 5L56 5L56 5L56 6L55 6L55 6L55 6L55 6L55 7L55 7L55 7L55 8L54 8L54 9L54 10L54 10L54 10L54 11L55 11L55 11L55 12L55 13L55 13L55 13L55 13L55 13L55 13L55 14L56 14L56 14L56 14L56 14L57 14L57 14L57 15L58 15L58 15L58 15L58 16L59 16L59 16L59 15L59 15L60 15L60 15L60 15L60 15L60 15L60 14L60 14L60 14L60 14L60 14L61 14L61 14L61 14L61 14L61 14L61 14L62 14L62 14L62 14L62 14L62 14L62 14L63 14L63 14L63 14L64 14L64 13L64 13L64 13L64 13L65 13L65 13L65 12L65 12L66 13L66 13L66 13L66 13L67 13L67 13L67 13L67 13L68 13L68 13ZM92 13L91 13L91 13L91 12L91 12L91 12L91 12L91 12L92 13L92 13ZM92 19L92 19L92 19V18L92 18L92 18L92 18L92 18L92 18L92 18L92 19ZM91 20L91 20L90 20L90 19L91 19L91 19L91 18L91 18L91 18L91 18L91 18L91 19L91 19L91 20ZM94 19L94 19L93 20L93 20L93 20L92 20L92 20L91 20L91 20L92 19L92 19L93 19L94 19ZM95 21L94 21L93 20L93 20L94 20L94 20L95 20L95 20L95 20L95 20L95 21ZM90 21L89 21L89 21L89 21L89 21L89 21L89 20L89 20L90 20L90 20L90 20L90 21ZM94 21L94 21L95 21L95 21L96 21L96 21L97 21L98 21L98 21L99 21L99 21L99 22L99 22L99 22L98 23L98 23L98 23L98 23L98 23L98 24L98 24L98 24L98 24L97 25L97 25L97 25L97 25L97 26L97 26L97 26L96 26L96 26L96 26L96 26L96 26L96 26L95 26L95 26L94 26L94 26L94 27L94 27L94 27L93 27L93 27L93 27L92 27L92 27L91 27L91 27L91 27L90 27L90 26L90 26L90 25L90 25L90 24L90 24L90 24L90 24L90 24L90 24L90 24L90 24L90 24L90 23L90 23L90 22L90 22L90 22L90 22L90 21L91 21L92 21L94 21ZM86 26L85 26L86 25L86 24L86 23L87 23L87 22L88 22L88 23L88 24L88 24L87 25L86 25L86 26ZM112 25L112 25L112 26L112 25L112 25L112 25L112 25L112 25L112 25ZM114 31L114 32L114 31L114 31L114 31L114 31L114 30L114 31L114 31L114 31ZM136 71L136 71L136 70L136 70L136 70L137 70L137 70L137 70L136 71ZM136 72L135 72L135 72L135 72L135 72L135 72L135 72L136 72L136 72ZM115 111L115 111L115 111L115 111L115 112L114 111L115 111L115 111L115 111L115 111L115 111ZM111 114L111 114L111 114L110 114L110 114L111 114L111 114L111 114L111 114L111 114L111 114ZM98 125L98 125L98 124L98 124L98 124L98 124L98 125L98 125ZM98 131L98 131L98 130L98 130L99 129L99 129L99 129L99 130L98 130L98 131Z" fill="var(--fill-0,#71B219)" stroke="var(--stroke-0,white)" mask="url(#path-1-inside-1_0_88)"/></g></svg>