<svg preserveAspectRatio="none" width="100%" height="100%" overflow="visible" style="display: block;" viewBox="0 0 24 25" fill="none" xmlns="http://www.w3.org/2000/svg"><g id="BS"><mask id="path-1-inside-1_0_234" fill="white"><path d="M7 4L7 4L6 4L6 4L6 4L7 3L7 3L7 2L7 2L7 2L7 2L6 1L6 0L5 0L4 0L4 0L5 0L5 0L6 0L6 0L6 1L6 1L7 1L7 1L7 1L7 2L7 2L8 3L7 3L7 4L7 4ZM2 1L2 1L3 1L3 1L4 1L4 1L4 1L4 1L3 1L2 2L1 2L1 2L1 2L0 1L0 1L1 2L1 2L1 1L1 1L1 1L2 1L2 1ZM9 6L10 7L10 7L11 8L11 8L11 8L11 9L11 9L11 10L11 10L11 9L10 9L10 9L11 9L11 8L11 8L11 8L10 7L10 7L10 7L9 6L9 6L8 6L9 6L9 6L9 6L9 6ZM5 10L5 10L5 10L5 10L4 11L4 11L4 11L4 11L4 11L3 11L3 10L3 10L3 10L2 10L2 10L2 10L3 10L3 10L3 10L3 10L3 9L3 9L3 8L3 8L3 7L4 8L4 8L4 8L4 8L4 9L5 10ZM6 8L6 8L6 8L6 8L6 8L6 8L6 8L7 8L7 8L6 8ZM14 12L14 12L14 12L14 12L13 12L14 12L14 12L14 11L14 11L13 10L13 10L13 10L12 10L13 10L13 10L13 10L13 11L13 11L14 12ZM5 11L5 12L5 12L5 12L5 12L6 12L6 12L6 13L6 13L6 13L6 13L5 14L5 14L5 13L4 13L4 12L4 12L4 12L4 11L4 12L4 11L5 11L5 11L5 11ZM18 12L17 13L17 13L17 12L17 12L18 12L18 12ZM13 15L13 15L12 15L12 14L11 14L12 14L12 14L12 14L12 15L13 15ZM16 17L16 17L16 16L15 16L14 16L15 16L15 16L15 16L15 15L14 15L14 14L14 14L14 14L14 14L15 15L15 15L15 16L16 16L16 17L16 17ZM19 18L19 18L19 18L18 18L18 18L18 18L18 18L18 17L18 17L19 18L19 18ZM18 20L18 20L18 20L19 20L19 19L19 19L19 19L20 19L20 19L20 18L19 18L19 18L19 18L20 18L20 18L20 19L19 19L19 20L18 20ZM23 19L23 19L23 19L24 19L24 19L24 19L24 20L24 19L23 19L23 19L22 19L23 19L23 19ZM23 23L23 23L23 23L23 23L23 23ZM23 24L23 24L22 25L22 25L21 25L20 25L20 25L20 25L20 25L20 24L21 24L21 24L22 24L22 24L22 24L23 24L23 24L23 24L23 24Z"/></mask><path d="M7 4L7 4L6 4L6 4L6 4L7 3L7 3L7 2L7 2L7 2L7 2L6 1L6 0L5 0L4 0L4 0L5 0L5 0L6 0L6 0L6 1L6 1L7 1L7 1L7 1L7 2L7 2L8 3L7 3L7 4L7 4ZM2 1L2 1L3 1L3 1L4 1L4 1L4 1L4 1L3 1L2 2L1 2L1 2L1 2L0 1L0 1L1 2L1 2L1 1L1 1L1 1L2 1L2 1ZM9 6L10 7L10 7L11 8L11 8L11 8L11 9L11 9L11 10L11 10L11 9L10 9L10 9L11 9L11 8L11 8L11 8L10 7L10 7L10 7L9 6L9 6L8 6L9 6L9 6L9 6L9 6ZM5 10L5 10L5 10L5 10L4 11L4 11L4 11L4 11L4 11L3 11L3 10L3 10L3 10L2 10L2 10L2 10L3 10L3 10L3 10L3 10L3 9L3 9L3 8L3 8L3 7L4 8L4 8L4 8L4 8L4 9L5 10ZM6 8L6 8L6 8L6 8L6 8L6 8L6 8L7 8L7 8L6 8ZM14 12L14 12L14 12L14 12L13 12L14 12L14 12L14 11L14 11L13 10L13 10L13 10L12 10L13 10L13 10L13 10L13 11L13 11L14 12ZM5 11L5 12L5 12L5 12L5 12L6 12L6 12L6 13L6 13L6 13L6 13L5 14L5 14L5 13L4 13L4 12L4 12L4 12L4 11L4 12L4 11L5 11L5 11L5 11ZM18 12L17 13L17 13L17 12L17 12L18 12L18 12ZM13 15L13 15L12 15L12 14L11 14L12 14L12 14L12 14L12 15L13 15ZM16 17L16 17L16 16L15 16L14 16L15 16L15 16L15 16L15 15L14 15L14 14L14 14L14 14L14 14L15 15L15 15L15 16L16 16L16 17L16 17ZM19 18L19 18L19 18L18 18L18 18L18 18L18 18L18 17L18 17L19 18L19 18ZM18 20L18 20L18 20L19 20L19 19L19 19L19 19L20 19L20 19L20 18L19 18L19 18L19 18L20 18L20 18L20 19L19 19L19 20L18 20ZM23 19L23 19L23 19L24 19L24 19L24 19L24 20L24 19L23 19L23 19L22 19L23 19L23 19ZM23 23L23 23L23 23L23 23L23 23ZM23 24L23 24L22 25L22 25L21 25L20 25L20 25L20 25L20 25L20 24L21 24L21 24L22 24L22 24L22 24L23 24L23 24L23 24L23 24Z" fill="var(--fill-0,#71B219)" stroke="var(--stroke-0,white)" mask="url(#path-1-inside-1_0_234)"/></g></svg>