<svg preserveAspectRatio="none" width="100%" height="100%" overflow="visible" style="display: block;" viewBox="0 0 24.0829 25.1564" fill="none" xmlns="http://www.w3.org/2000/svg">
<g id="BS">
<mask id="path-1-inside-1_0_234" fill="white">
<path d="M6.79318 4.42911L6.71203 4.46616L6.37633 4.03956L6.10672 3.91612L6.52768 3.61435L6.71064 3.35511L6.70653 2.78862L6.80968 2.47723L6.77529 2.2084L6.86745 1.93405L6.74229 1.62546L6.3901 1.37991L5.69264 0.40466L4.59067 0.167356L4.01979 0.15777L4.33345 0L4.62233 0.0192137L5.06806 0.112478L5.60183 0.15777L5.92787 0.444426L6.23875 0.82577L6.52079 0.979396L6.63633 1.07676L6.62399 1.1879L6.67076 1.29213L7.03806 1.47045L7.4081 1.75711L7.51679 2.59795L7.01879 2.99575L6.92798 4.21102L6.79318 4.42911ZM1.89983 0.905304L2.36758 1.03976L2.61933 1.02054L2.76927 0.934104L3.46125 0.969768L4.01979 0.84084L4.10372 1.06856L4.08995 1.1879L2.90135 1.299L1.81179 1.63367L1.21475 1.86L0.934097 1.88604L0.719502 1.76674L0 1.07814L0.192596 1.14671L0.723616 1.5363L1.05379 1.46497L1.36056 1.20707L1.40735 1.0123L1.36194 0.920415L1.50089 0.611782L1.89983 0.905304ZM9.01907 6.19995L9.6546 6.67728L10.1966 6.85833L10.7827 7.45638L11.0358 7.66898L11.0812 7.86242L10.9822 8.74575L10.8501 9.27657L10.8694 9.74159L10.7318 9.60304L10.5928 9.29855L10.3645 9.12433L10.2875 9.03244L10.6974 9.01185L10.7332 8.53176L10.934 8.15318L10.9038 7.75815L10.425 7.32335L10.0976 6.94066L9.59272 6.81718L9.12637 6.43587L8.84845 6.38924L8.50868 6.45643L8.6311 6.22875L8.71641 5.92698L8.77829 5.86939L9.01907 6.19995ZM4.79156 9.49742L4.78329 10.0077L4.82595 10.389L4.78741 10.5248L4.36922 10.7799L4.26191 10.9226L3.86844 11.0666L3.63046 11.2669L3.51077 10.9418L3.27966 10.7415L3.24114 10.4L3.06504 10.5152L2.80918 10.4453L2.38821 10.1874L2.12269 9.83624L2.49552 9.77588L2.57256 9.99397L2.86694 9.72648L2.79954 9.5852L2.74589 9.56737L2.6496 9.30541L3.09256 8.61682L3.18887 8.17239L2.988 7.45776L3.17648 7.41113L3.67585 7.66212L3.9001 7.90905L3.90698 8.24782L4.11744 8.50844L4.42148 9.13529L4.79156 9.49742ZM6.32268 8.20395L5.8866 8.29173L5.57433 8.20533L5.49452 8.13534L5.62794 8.01876L5.92098 7.9214L6.39287 7.91177L6.59922 8.02701L6.62399 8.07775L6.32268 8.20395ZM14.1958 11.6317L14.2219 11.8443L13.9633 11.8018L13.5808 11.8855L13.4433 11.8883L13.5286 11.7415L13.7941 11.544L13.8078 11.356L13.479 11.0845L13.098 10.4082L12.9191 10.2477L12.8338 9.99258L12.5133 9.71962L12.5793 9.57424L12.6454 9.53995L12.8614 9.6099L13.3511 10.5838L13.3828 10.6771L14.1958 11.6317ZM5.12444 11.4232L5.13133 11.5193L4.74891 11.784L5.02679 11.9733L5.28818 11.5618L5.49591 11.8965L5.6101 12.522L5.59083 12.6317L5.6101 12.7249L5.64999 12.8443L5.6596 13.0171L5.44775 13.5617L4.6856 13.5054L4.66771 13.0459L4.54941 12.9568L4.37194 12.2997L4.13394 12.0885L3.80243 11.5481L3.99502 11.4082L4.25225 11.4548L4.38433 11.3889L4.74064 11.3368L4.95664 11.2627L5.12444 11.4232ZM17.5882 12.1845L17.2815 12.6385L17.1178 12.6001L17.2099 12.0281L17.4218 11.9376L17.5057 11.9431L17.5882 12.1845ZM12.8201 14.7687L12.6591 14.7934L12.3716 14.6823L11.6961 14.1748L11.3825 14.1309L11.4857 13.8442L11.725 13.9444L12.2698 14.3819L12.4748 14.6014L12.8201 14.7687ZM16.0021 17.0827L15.9773 17.1897L15.4903 16.3599L14.8768 16.1582L14.5246 15.958L14.5975 15.8441L14.8424 15.7947L14.8836 15.5314L14.7791 15.2461L14.4558 14.67L14.2742 14.279L14.1903 14.1885L14.1655 13.8607L14.5493 14.3696L14.7089 14.8209L14.9662 15.2625L15.1381 16.0224L15.6293 16.2803L15.9828 16.6479L16.0021 17.0827ZM19.0245 17.7919L19.1125 17.866L18.8663 18.0333L18.3118 17.8275L18.1867 17.8427L18.0766 17.6232L18.034 17.4613L18.0615 17.3118L18.3916 17.427L18.5691 17.6424L19.0245 17.7919ZM18.448 19.9029L18.177 20.0277L18.2376 19.8137L18.7562 19.4502L19.0437 19.1306L19.2074 19.0168L19.2652 18.929L19.4936 18.811L19.6078 18.6053L19.5761 18.4366L19.3381 18.1581L19.3409 17.962L19.4234 17.8234L19.8251 17.759L19.7192 17.9674L19.8774 18.5573L19.3436 19.2911L18.8869 19.5188L18.448 19.9029ZM22.9493 19.0127L23.1887 19.0717L23.3194 19.0675L23.761 19.191L24.0237 19.3625L24.0829 19.4324L23.9412 19.5847L23.5354 19.2966L23.1804 19.2596L22.6824 19.2664L22.483 19.2116L22.6164 18.9015L22.9493 19.0127ZM23.4322 22.819L22.9177 23.0207L22.8654 22.7834L23.1281 22.5927L23.4322 22.819ZM23.003 24.1111L22.8805 24.4116L22.472 24.9849L21.5599 25.1289L20.5556 25.1564L20.4786 25L20.4566 24.8628L20.5295 24.6475L20.5226 24.5624L20.4813 24.476L20.85 24.3841L21.0894 24.118L21.4705 24.0727L21.9451 24.2607L22.201 24.2675L22.5793 24.0618L22.8833 23.616L23.0635 23.6736L23.003 24.1111Z"/>
</mask>
<path d="M6.79318 4.42911L6.71203 4.46616L6.37633 4.03956L6.10672 3.91612L6.52768 3.61435L6.71064 3.35511L6.70653 2.78862L6.80968 2.47723L6.77529 2.2084L6.86745 1.93405L6.74229 1.62546L6.3901 1.37991L5.69264 0.40466L4.59067 0.167356L4.01979 0.15777L4.33345 0L4.62233 0.0192137L5.06806 0.112478L5.60183 0.15777L5.92787 0.444426L6.23875 0.82577L6.52079 0.979396L6.63633 1.07676L6.62399 1.1879L6.67076 1.29213L7.03806 1.47045L7.4081 1.75711L7.51679 2.59795L7.01879 2.99575L6.92798 4.21102L6.79318 4.42911ZM1.89983 0.905304L2.36758 1.03976L2.61933 1.02054L2.76927 0.934104L3.46125 0.969768L4.01979 0.84084L4.10372 1.06856L4.08995 1.1879L2.90135 1.299L1.81179 1.63367L1.21475 1.86L0.934097 1.88604L0.719502 1.76674L0 1.07814L0.192596 1.14671L0.723616 1.5363L1.05379 1.46497L1.36056 1.20707L1.40735 1.0123L1.36194 0.920415L1.50089 0.611782L1.89983 0.905304ZM9.01907 6.19995L9.6546 6.67728L10.1966 6.85833L10.7827 7.45638L11.0358 7.66898L11.0812 7.86242L10.9822 8.74575L10.8501 9.27657L10.8694 9.74159L10.7318 9.60304L10.5928 9.29855L10.3645 9.12433L10.2875 9.03244L10.6974 9.01185L10.7332 8.53176L10.934 8.15318L10.9038 7.75815L10.425 7.32335L10.0976 6.94066L9.59272 6.81718L9.12637 6.43587L8.84845 6.38924L8.50868 6.45643L8.6311 6.22875L8.71641 5.92698L8.77829 5.86939L9.01907 6.19995ZM4.79156 9.49742L4.78329 10.0077L4.82595 10.389L4.78741 10.5248L4.36922 10.7799L4.26191 10.9226L3.86844 11.0666L3.63046 11.2669L3.51077 10.9418L3.27966 10.7415L3.24114 10.4L3.06504 10.5152L2.80918 10.4453L2.38821 10.1874L2.12269 9.83624L2.49552 9.77588L2.57256 9.99397L2.86694 9.72648L2.79954 9.5852L2.74589 9.56737L2.6496 9.30541L3.09256 8.61682L3.18887 8.17239L2.988 7.45776L3.17648 7.41113L3.67585 7.66212L3.9001 7.90905L3.90698 8.24782L4.11744 8.50844L4.42148 9.13529L4.79156 9.49742ZM6.32268 8.20395L5.8866 8.29173L5.57433 8.20533L5.49452 8.13534L5.62794 8.01876L5.92098 7.9214L6.39287 7.91177L6.59922 8.02701L6.62399 8.07775L6.32268 8.20395ZM14.1958 11.6317L14.2219 11.8443L13.9633 11.8018L13.5808 11.8855L13.4433 11.8883L13.5286 11.7415L13.7941 11.544L13.8078 11.356L13.479 11.0845L13.098 10.4082L12.9191 10.2477L12.8338 9.99258L12.5133 9.71962L12.5793 9.57424L12.6454 9.53995L12.8614 9.6099L13.3511 10.5838L13.3828 10.6771L14.1958 11.6317ZM5.12444 11.4232L5.13133 11.5193L4.74891 11.784L5.02679 11.9733L5.28818 11.5618L5.49591 11.8965L5.6101 12.522L5.59083 12.6317L5.6101 12.7249L5.64999 12.8443L5.6596 13.0171L5.44775 13.5617L4.6856 13.5054L4.66771 13.0459L4.54941 12.9568L4.37194 12.2997L4.13394 12.0885L3.80243 11.5481L3.99502 11.4082L4.25225 11.4548L4.38433 11.3889L4.74064 11.3368L4.95664 11.2627L5.12444 11.4232ZM17.5882 12.1845L17.2815 12.6385L17.1178 12.6001L17.2099 12.0281L17.4218 11.9376L17.5057 11.9431L17.5882 12.1845ZM12.8201 14.7687L12.6591 14.7934L12.3716 14.6823L11.6961 14.1748L11.3825 14.1309L11.4857 13.8442L11.725 13.9444L12.2698 14.3819L12.4748 14.6014L12.8201 14.7687ZM16.0021 17.0827L15.9773 17.1897L15.4903 16.3599L14.8768 16.1582L14.5246 15.958L14.5975 15.8441L14.8424 15.7947L14.8836 15.5314L14.7791 15.2461L14.4558 14.67L14.2742 14.279L14.1903 14.1885L14.1655 13.8607L14.5493 14.3696L14.7089 14.8209L14.9662 15.2625L15.1381 16.0224L15.6293 16.2803L15.9828 16.6479L16.0021 17.0827ZM19.0245 17.7919L19.1125 17.866L18.8663 18.0333L18.3118 17.8275L18.1867 17.8427L18.0766 17.6232L18.034 17.4613L18.0615 17.3118L18.3916 17.427L18.5691 17.6424L19.0245 17.7919ZM18.448 19.9029L18.177 20.0277L18.2376 19.8137L18.7562 19.4502L19.0437 19.1306L19.2074 19.0168L19.2652 18.929L19.4936 18.811L19.6078 18.6053L19.5761 18.4366L19.3381 18.1581L19.3409 17.962L19.4234 17.8234L19.8251 17.759L19.7192 17.9674L19.8774 18.5573L19.3436 19.2911L18.8869 19.5188L18.448 19.9029ZM22.9493 19.0127L23.1887 19.0717L23.3194 19.0675L23.761 19.191L24.0237 19.3625L24.0829 19.4324L23.9412 19.5847L23.5354 19.2966L23.1804 19.2596L22.6824 19.2664L22.483 19.2116L22.6164 18.9015L22.9493 19.0127ZM23.4322 22.819L22.9177 23.0207L22.8654 22.7834L23.1281 22.5927L23.4322 22.819ZM23.003 24.1111L22.8805 24.4116L22.472 24.9849L21.5599 25.1289L20.5556 25.1564L20.4786 25L20.4566 24.8628L20.5295 24.6475L20.5226 24.5624L20.4813 24.476L20.85 24.3841L21.0894 24.118L21.4705 24.0727L21.9451 24.2607L22.201 24.2675L22.5793 24.0618L22.8833 23.616L23.0635 23.6736L23.003 24.1111Z" fill="var(--fill-0, #71B219)" stroke="var(--stroke-0, white)" mask="url(#path-1-inside-1_0_234)"/>
</g>
</svg>
