<svg preserveAspectRatio="none" width="100%" height="100%" overflow="visible" style="display: block;" viewBox="0 0 12.9136 6.95021" fill="none" xmlns="http://www.w3.org/2000/svg">
<path id="BT" d="M5.23535 0.288086L5.65234 0.385742L5.99902 0.489258L5.98438 0.561523L5.91992 0.757812L5.9082 0.793945L5.90723 0.832031L5.90625 0.94043L5.9043 1.06152L5.99902 1.1377L6.07324 1.19824L6.13281 1.24707L6.20898 1.25293L6.69043 1.29395L6.70801 1.2959L6.72559 1.29492L7.29395 1.2627L7.59082 1.28809L8.2666 1.46777L8.44922 1.58594L8.46289 1.59473L8.47852 1.60254L8.7041 1.70801L8.76367 1.73633L8.83008 1.73047L9.05176 1.71289L9.12988 1.70605L9.18945 1.65723L9.45801 1.43652L9.69531 1.28125L9.74805 1.27148L9.78125 1.28711L9.99414 1.4541L10.0264 1.47949L10.0645 1.49316L10.5518 1.66602V1.66699L10.5635 1.66992L10.9443 1.78516L10.9482 1.78809L10.9111 2.19238L10.9092 2.20996L10.9102 2.22852L10.918 2.37012L10.9082 2.41113L10.8076 2.65625L10.8008 2.67285L10.7959 2.69043L10.7246 2.97266L10.709 3.03418L10.7246 3.0957L10.7842 3.3291L10.7988 3.3877L10.8389 3.43359L11.084 3.70898L11.1055 3.73242L11.1318 3.75098L11.4609 3.97168L11.5195 4.01074L11.5898 4.01367L12.0068 4.03027L12.0391 4.03125L12.0703 4.02441L12.3926 3.95312L12.5459 4.22363L12.6289 4.40137L12.4971 4.61621L12.4854 4.63574L12.4766 4.6582L12.3662 4.94629L12.3584 4.9668L12.3545 4.98926L12.3154 5.19336L12.3047 5.25098L12.3203 5.30664L12.3457 5.39551L12.3584 5.44141L12.3867 5.47949L12.4951 5.62305L12.6094 5.8457L12.6201 5.98145L12.6035 6.01172L12.5479 6.03516L12.4023 6.01855L12.3848 6.0166L12.3672 6.01758L12.1924 6.02148H12.1777L12.1641 6.02344L11.9463 6.05371L11.9297 6.05566L11.9141 6.06055L11.5732 6.15527L11.5605 6.1582L11.5488 6.16309L11.2793 6.26758L10.8408 6.25098L10.6729 6.07129L10.5996 5.99219L10.4922 5.99121L10.3809 5.98926H10.3086L10.2471 6.02637L9.77734 6.31445L9.27246 6.26367L9.24707 6.26172L9.22168 6.26367L8.1543 6.37402L7.72949 6.39844L7.30859 6.36523L7.125 6.31055L6.7168 6.08984L6.70703 6.08398L6.69629 6.08008L6.30273 5.91113L6.20898 5.87109L6.11426 5.9082L5.73242 6.05469L5.61426 6.08008L5.52539 6.09766L5.46875 6.16797L5.20703 6.49316L4.60938 6.60645L3.96973 6.69531L3.81445 6.65625L3.79199 6.65039L3.76855 6.64844L3.62012 6.63867L3.62793 6.58301L3.5166 6.49414L3.42676 6.42285L3.4043 6.4043L3.37695 6.3916L3.21875 6.31738L3.18262 6.30078L3.1416 6.2959L2.88965 6.2666L2.57715 6.17773L2.39746 6.09277L2.32324 6.05762L2.24219 6.07422L1.61621 6.19727L1.29395 6.0332L0.827148 5.74707L0.819336 5.74219L0.8125 5.73828L0.680664 5.66895L0.618164 5.34082L0.610352 5.29883L0.588867 5.26172L0.504883 5.11816L0.482422 5.0791L0.447266 5.05078L0.295898 4.92676L0.280273 4.89941L0.283203 4.89453L0.699219 4.59082L0.751953 4.55273L0.779297 4.49316L0.816406 4.41211L0.821289 4.40137L0.825195 4.38965L1.01855 3.82324L1.26074 3.63672L1.27734 3.62402L1.29102 3.6084L1.58887 3.28613L1.61719 3.25488L1.63379 3.2168L1.84473 2.7334L2.24805 2.23926L2.24902 2.24023L2.72461 1.69824L2.73145 1.69043L2.7373 1.68262L3.05371 1.25488L3.22559 1.09277L3.62305 0.896484L3.98535 0.771484L4.04688 0.749023L4.08984 0.700195L4.31934 0.439453L4.56445 0.308594L4.81152 0.251953L5.23535 0.288086Z" fill="var(--fill-0, #71B219)" stroke="var(--stroke-0, white)" stroke-width="0.5"/>
</svg>
