<svg preserveAspectRatio="none" width="100%" height="100%" overflow="visible" style="display: block;" viewBox="0 0 13 7" fill="none" xmlns="http://www.w3.org/2000/svg"><path id="BT" d="M5 0L6 0L6 0L6 1L6 1L6 1L6 1L6 1L6 1L6 1L6 1L6 1L6 1L7 1L7 1L7 1L7 1L8 1L8 2L8 2L8 2L8 2L9 2L9 2L9 2L9 2L9 2L9 2L10 1L10 1L10 1L10 1L10 2L10 2L10 2L11 2V2L11 2L11 2L11 2L11 2L11 2L11 2L11 2L11 2L11 3L11 3L11 3L11 3L11 3L11 3L11 3L11 3L11 3L11 4L11 4L11 4L12 4L12 4L12 4L12 4L12 4L12 4L12 4L12 4L13 4L12 5L12 5L12 5L12 5L12 5L12 5L12 5L12 5L12 5L12 5L12 5L12 6L12 6L13 6L13 6L13 6L12 6L12 6L12 6L12 6L12 6H12L12 6L12 6L12 6L12 6L12 6L12 6L12 6L11 6L11 6L11 6L11 6L10 6L10 6H10L10 6L10 6L9 6L9 6L9 6L8 6L8 6L7 6L7 6L7 6L7 6L7 6L6 6L6 6L6 6L6 6L6 6L6 6L6 6L5 6L5 7L4 7L4 7L4 7L4 7L4 7L4 7L4 6L3 6L3 6L3 6L3 6L3 6L3 6L3 6L3 6L2 6L2 6L2 6L2 6L1 6L1 6L1 6L1 6L1 6L1 5L1 5L1 5L0 5L0 5L0 5L0 5L0 5L0 5L1 5L1 5L1 4L1 4L1 4L1 4L1 4L1 4L1 4L1 4L2 3L2 3L2 3L2 3L2 2L2 2L3 2L3 2L3 2L3 1L3 1L4 1L4 1L4 1L4 1L4 0L5 0L5 0L5 0Z" fill="var(--fill-0,#71B219)" stroke="var(--stroke-0,white)" stroke-width="0"/></svg>