<svg preserveAspectRatio="none" width="100%" height="100%" overflow="visible" style="display: block;" viewBox="0 0 0.546611 0.524615" fill="none" xmlns="http://www.w3.org/2000/svg">
<g id="BV">
<mask id="path-1-inside-1_0_138" fill="white">
<path d="M0.462866 0.421603L0.392784 0.453202L0.218376 0.451777L0.159318 0.460075L0.0727642 0.524615L0.0453099 0.497123L0.0137062 0.44767L0 0.318591L0.0384359 0.174425L0.0947694 0.107119L0.193647 0.0480275L0.273327 0.0137461L0.35024 0L0.391443 0.00410707L0.53563 0.109885L0.546611 0.185405L0.524648 0.278778L0.501301 0.346083L0.462866 0.421603Z"/>
</mask>
<path d="M0.462866 0.421603L0.392784 0.453202L0.218376 0.451777L0.159318 0.460075L0.0727642 0.524615L0.0453099 0.497123L0.0137062 0.44767L0 0.318591L0.0384359 0.174425L0.0947694 0.107119L0.193647 0.0480275L0.273327 0.0137461L0.35024 0L0.391443 0.00410707L0.53563 0.109885L0.546611 0.185405L0.524648 0.278778L0.501301 0.346083L0.462866 0.421603Z" fill="var(--fill-0, #71B219)"/>
<path d="M0.462866 0.421603L0.668386 0.877411L0.828704 0.805125L0.908472 0.648395L0.462866 0.421603ZM0.392784 0.453202L0.388699 0.953186L0.498346 0.954081L0.598305 0.909011L0.392784 0.453202ZM0.218376 0.451777L0.222461 -0.0482059L0.185455 -0.0485082L0.148807 -0.043359L0.218376 0.451777ZM0.159318 0.460075L0.0897491 -0.0350611L-0.0369765 -0.0172555L-0.139566 0.0592412L0.159318 0.460075ZM0.0727642 0.524615L-0.281034 0.877924L0.0247418 1.18412L0.371649 0.925449L0.0727642 0.524615ZM0.0453099 0.497123L-0.376003 0.766373L-0.346803 0.812063L-0.308488 0.850432L0.0453099 0.497123ZM0.0137062 0.44767L-0.483499 0.500466L-0.471057 0.617635L-0.407607 0.71692L0.0137062 0.44767ZM0 0.318591L-0.483125 0.189786L-0.506985 0.279282L-0.497205 0.371386L0 0.318591ZM0.0384359 0.174425L-0.344986 -0.146492L-0.416133 -0.0614882L-0.444689 0.0456199L0.0384359 0.174425ZM0.0947694 0.107119L-0.161729 -0.322076L-0.234351 -0.278675L-0.288652 -0.213798L0.0947694 0.107119ZM0.193647 0.0480275L-0.00395976 -0.411267L-0.0344032 -0.398169L-0.0628516 -0.381168L0.193647 0.0480275ZM0.273327 0.0137461L0.18536 -0.478455L0.128644 -0.468319L0.0757203 -0.445549L0.273327 0.0137461ZM0.35024 0L0.399835 -0.497534L0.330684 -0.504427L0.262274 -0.492201L0.35024 0ZM0.391443 0.00410707L0.687199 -0.399041L0.577016 -0.479873L0.441037 -0.493427L0.391443 0.00410707ZM0.53563 0.109885L1.03043 0.0379344L1.00028 -0.169358L0.831386 -0.293263L0.53563 0.109885ZM0.546611 0.185405L1.03333 0.299891L1.05507 0.20744L1.04141 0.113454L0.546611 0.185405ZM0.524648 0.278778L0.997036 0.442637L1.00547 0.418319L1.01136 0.393264L0.524648 0.278778ZM0.501301 0.346083L0.946908 0.572876L0.962456 0.542327L0.973689 0.509942L0.501301 0.346083ZM0.462866 0.421603L0.257345 -0.0342053L0.187263 -0.00260603L0.392784 0.453202L0.598305 0.909011L0.668386 0.877411L0.462866 0.421603ZM0.392784 0.453202L0.396869 -0.046781L0.222461 -0.0482059L0.218376 0.451777L0.214291 0.951761L0.388699 0.953186L0.392784 0.453202ZM0.218376 0.451777L0.148807 -0.043359L0.0897491 -0.0350611L0.159318 0.460075L0.228888 0.955212L0.287946 0.946914L0.218376 0.451777ZM0.159318 0.460075L-0.139566 0.0592412L-0.22612 0.123781L0.0727642 0.524615L0.371649 0.925449L0.458203 0.86091L0.159318 0.460075ZM0.0727642 0.524615L0.426562 0.171306L0.399108 0.143814L0.0453099 0.497123L-0.308488 0.850432L-0.281034 0.877924L0.0727642 0.524615ZM0.0453099 0.497123L0.466623 0.227873L0.435019 0.17842L0.0137062 0.44767L-0.407607 0.71692L-0.376003 0.766373L0.0453099 0.497123ZM0.0137062 0.44767L0.510911 0.394875L0.497205 0.265796L0 0.318591L-0.497205 0.371386L-0.483499 0.500466L0.0137062 0.44767ZM0 0.318591L0.483125 0.447396L0.52156 0.303229L0.0384359 0.174425L-0.444689 0.0456199L-0.483125 0.189786L0 0.318591ZM0.0384359 0.174425L0.421858 0.495342L0.478191 0.428036L0.0947694 0.107119L-0.288652 -0.213798L-0.344986 -0.146492L0.0384359 0.174425ZM0.0947694 0.107119L0.351268 0.536314L0.450145 0.477223L0.193647 0.0480275L-0.0628516 -0.381168L-0.161729 -0.322076L0.0947694 0.107119ZM0.193647 0.0480275L0.391253 0.507322L0.470933 0.473041L0.273327 0.0137461L0.0757203 -0.445549L-0.00395976 -0.411267L0.193647 0.0480275ZM0.273327 0.0137461L0.361293 0.505947L0.438207 0.492201L0.35024 0L0.262274 -0.492201L0.18536 -0.478455L0.273327 0.0137461ZM0.35024 0L0.300646 0.497534L0.341848 0.501641L0.391443 0.00410707L0.441037 -0.493427L0.399835 -0.497534L0.35024 0ZM0.391443 0.00410707L0.0956866 0.407255L0.239874 0.513033L0.53563 0.109885L0.831386 -0.293263L0.687199 -0.399041L0.391443 0.00410707ZM0.53563 0.109885L0.0408336 0.181836L0.0518153 0.257355L0.546611 0.185405L1.04141 0.113454L1.03043 0.0379344L0.53563 0.109885ZM0.546611 0.185405L0.059895 0.0709183L0.0379316 0.164291L0.524648 0.278778L1.01136 0.393264L1.03333 0.299891L0.546611 0.185405ZM0.524648 0.278778L0.0522602 0.114919L0.0289136 0.182224L0.501301 0.346083L0.973689 0.509942L0.997036 0.442637L0.524648 0.278778ZM0.501301 0.346083L0.0556948 0.119291L0.0172589 0.194811L0.462866 0.421603L0.908472 0.648395L0.946908 0.572876L0.501301 0.346083Z" fill="var(--stroke-0, white)" mask="url(#path-1-inside-1_0_138)"/>
</g>
</svg>
