<svg preserveAspectRatio="none" width="100%" height="100%" overflow="visible" style="display: block;" viewBox="0 0 36.2427 37.5658" fill="none" xmlns="http://www.w3.org/2000/svg">
<g id="BW">
<mask id="path-1-inside-1_0_231" fill="white">
<path d="M20.3906 0.0246973L20.3149 0.223616L20.2557 0.513035L20.3272 0.729702L20.4813 1.02054L20.7042 1.2743L20.8748 1.42516L21.0771 1.79964L21.2806 2.26872L21.5475 2.63357L22.3302 3.47035L22.417 3.77074L22.5256 4.06836L23.0181 4.64034L23.0952 4.83105L23.0622 5.21918L23.5684 6.38782L23.9013 7.07097L24.1834 7.19714L25.0844 7.9255L25.8713 8.51255L26.7917 8.90896L27.4671 9.16958L27.8014 9.36029L27.9692 9.54272L28.1041 9.89384L28.1742 10.5056L28.1976 10.9007L28.924 10.8856L29.5252 10.9212L29.7356 11.0008L29.814 11.1132L29.7961 11.3738L29.8044 11.7634L29.8319 12.0775L29.77 12.4122L29.7274 12.8073L29.6985 13.2983L29.7907 13.4889L30.3726 14.1076L30.6161 14.5081L30.8761 15.1158L31.0274 15.3105L31.1498 15.3887L31.6754 15.4546L33.0276 15.7097L33.8613 15.9428L34.5231 16.183L34.7996 16.246L34.933 16.3105L34.9784 16.3695L34.8959 16.8989L34.9248 17.0704L34.9991 17.224L35.1118 17.3447L35.248 17.4188L35.7501 17.4764L36.0528 17.7987L36.2427 17.9483L35.3361 18.0291L34.8862 18.298L34.6263 18.7809L34.2162 19.1361L33.6591 19.3625L33.0703 19.5174L32.4485 19.6025L31.7854 20.0181L31.0824 20.7657L30.7234 21.2361L30.7082 21.4309L30.5514 21.5983L30.2501 21.7395L30.0795 21.911L30.0411 22.1099L29.8801 22.2045L29.5994 22.1963L29.4013 22.3431L29.2871 22.6421L29.0395 22.8245L28.6544 22.889L28.3228 23.0577L28.0435 23.332L27.8303 23.4719L27.6789 23.476L27.4437 23.6997L27.0626 24.2291L26.9994 24.4746L26.4766 26.4745L26.1905 26.7118L25.6375 27.1247L25.1889 27.6198L24.9964 27.912L24.7859 28.0424L23.7569 28.2865L23.3758 28.4168L22.9122 28.6061L22.7967 28.7762L22.6825 29.3989L22.3633 30.2905L22.1046 30.9503L21.9369 31.525L21.6452 32.2397L21.3921 32.4797L21.1045 32.6991L20.7276 32.8075L20.2145 32.8761L19.7481 32.8569L19.3877 32.8665L18.8869 33.1189L18.4192 33.1367L17.6763 32.99L17.0752 32.8486L16.8069 32.8198L16.2758 32.3521L15.9347 32.3604L15.4133 32.3233L15.1203 32.2163L14.8492 31.9776L14.259 31.5085L13.6827 31.1286L13.1723 30.9037L12.6963 30.7994L12.2437 30.8927L11.8915 30.9928L11.7554 31.0421L11.4815 31.2383L11.2023 31.61L10.9698 32.1916L10.8818 32.5482L10.6232 33.3067L10.2806 34.2175L10.1169 34.4796L9.92701 34.6743L9.62716 34.8472L8.64905 35.5728L8.15928 36.3917L7.85112 36.6303L7.47966 36.7414L7.16462 36.8114L6.99131 36.9486L6.79735 37.3628L6.62951 37.5096L6.44377 37.5658L5.88389 37.5164L5.70505 37.4739L4.22204 37.5549L3.76939 37.4245L3.44889 37.371L2.944 37.5439L2.73216 37.43L2.56297 37.0857L2.48043 36.3944L2.50654 35.8074L2.7817 35.3642L3.01008 35.0406L3.23427 34.6167L3.26316 34.4274L3.21773 34.2574L3.17373 33.9103L3.14896 33.5537L2.83124 32.7773L2.44055 31.75L1.91358 30.6074L1.74993 30.2933L1.41977 29.7981L0.198159 28.8571L0.0109995 28.7295V28.6253V27.7145L0.00965605 26.5102L0.0083126 25.3072L0.00688518 24.1084L0.00554173 22.9109L0.00411432 21.7176L0.00277087 20.5256V19.3363L0.00142742 18.1499L0 17.1486H0.880464H1.96866H3.26316H3.83547L3.86846 16.9908V16.257L3.86569 14.578L3.86301 12.9032L3.86024 11.2339L3.85881 9.56875L3.85612 7.90901L3.85335 6.25203L3.85058 4.60057L3.84924 2.95045L3.84781 2.13845L4.84658 2.08906L5.99254 1.92313L7.85247 1.65422L9.58451 1.31959L10.7153 1.12478L12.0552 0.892955L12.5161 0.853188L12.6413 0.884751L12.8229 0.964285L13.4447 1.78457L13.8326 2.41004L13.911 2.67887L13.9853 2.70767L14.1683 2.6638L14.3747 2.56367L15.0061 1.93954L15.1382 1.77628L15.5412 1.47456L16.0296 1.16597L16.4725 0.947876L16.9169 0.76679L17.1219 0.812082L17.364 0.968387L17.5786 1.06584L18.5884 0.310014L19.0396 0.135794L20.2255 0L20.3906 0.0246973Z"/>
</mask>
<path d="M20.3906 0.0246973L20.3149 0.223616L20.2557 0.513035L20.3272 0.729702L20.4813 1.02054L20.7042 1.2743L20.8748 1.42516L21.0771 1.79964L21.2806 2.26872L21.5475 2.63357L22.3302 3.47035L22.417 3.77074L22.5256 4.06836L23.0181 4.64034L23.0952 4.83105L23.0622 5.21918L23.5684 6.38782L23.9013 7.07097L24.1834 7.19714L25.0844 7.9255L25.8713 8.51255L26.7917 8.90896L27.4671 9.16958L27.8014 9.36029L27.9692 9.54272L28.1041 9.89384L28.1742 10.5056L28.1976 10.9007L28.924 10.8856L29.5252 10.9212L29.7356 11.0008L29.814 11.1132L29.7961 11.3738L29.8044 11.7634L29.8319 12.0775L29.77 12.4122L29.7274 12.8073L29.6985 13.2983L29.7907 13.4889L30.3726 14.1076L30.6161 14.5081L30.8761 15.1158L31.0274 15.3105L31.1498 15.3887L31.6754 15.4546L33.0276 15.7097L33.8613 15.9428L34.5231 16.183L34.7996 16.246L34.933 16.3105L34.9784 16.3695L34.8959 16.8989L34.9248 17.0704L34.9991 17.224L35.1118 17.3447L35.248 17.4188L35.7501 17.4764L36.0528 17.7987L36.2427 17.9483L35.3361 18.0291L34.8862 18.298L34.6263 18.7809L34.2162 19.1361L33.6591 19.3625L33.0703 19.5174L32.4485 19.6025L31.7854 20.0181L31.0824 20.7657L30.7234 21.2361L30.7082 21.4309L30.5514 21.5983L30.2501 21.7395L30.0795 21.911L30.0411 22.1099L29.8801 22.2045L29.5994 22.1963L29.4013 22.3431L29.2871 22.6421L29.0395 22.8245L28.6544 22.889L28.3228 23.0577L28.0435 23.332L27.8303 23.4719L27.6789 23.476L27.4437 23.6997L27.0626 24.2291L26.9994 24.4746L26.4766 26.4745L26.1905 26.7118L25.6375 27.1247L25.1889 27.6198L24.9964 27.912L24.7859 28.0424L23.7569 28.2865L23.3758 28.4168L22.9122 28.6061L22.7967 28.7762L22.6825 29.3989L22.3633 30.2905L22.1046 30.9503L21.9369 31.525L21.6452 32.2397L21.3921 32.4797L21.1045 32.6991L20.7276 32.8075L20.2145 32.8761L19.7481 32.8569L19.3877 32.8665L18.8869 33.1189L18.4192 33.1367L17.6763 32.99L17.0752 32.8486L16.8069 32.8198L16.2758 32.3521L15.9347 32.3604L15.4133 32.3233L15.1203 32.2163L14.8492 31.9776L14.259 31.5085L13.6827 31.1286L13.1723 30.9037L12.6963 30.7994L12.2437 30.8927L11.8915 30.9928L11.7554 31.0421L11.4815 31.2383L11.2023 31.61L10.9698 32.1916L10.8818 32.5482L10.6232 33.3067L10.2806 34.2175L10.1169 34.4796L9.92701 34.6743L9.62716 34.8472L8.64905 35.5728L8.15928 36.3917L7.85112 36.6303L7.47966 36.7414L7.16462 36.8114L6.99131 36.9486L6.79735 37.3628L6.62951 37.5096L6.44377 37.5658L5.88389 37.5164L5.70505 37.4739L4.22204 37.5549L3.76939 37.4245L3.44889 37.371L2.944 37.5439L2.73216 37.43L2.56297 37.0857L2.48043 36.3944L2.50654 35.8074L2.7817 35.3642L3.01008 35.0406L3.23427 34.6167L3.26316 34.4274L3.21773 34.2574L3.17373 33.9103L3.14896 33.5537L2.83124 32.7773L2.44055 31.75L1.91358 30.6074L1.74993 30.2933L1.41977 29.7981L0.198159 28.8571L0.0109995 28.7295V28.6253V27.7145L0.00965605 26.5102L0.0083126 25.3072L0.00688518 24.1084L0.00554173 22.9109L0.00411432 21.7176L0.00277087 20.5256V19.3363L0.00142742 18.1499L0 17.1486H0.880464H1.96866H3.26316H3.83547L3.86846 16.9908V16.257L3.86569 14.578L3.86301 12.9032L3.86024 11.2339L3.85881 9.56875L3.85612 7.90901L3.85335 6.25203L3.85058 4.60057L3.84924 2.95045L3.84781 2.13845L4.84658 2.08906L5.99254 1.92313L7.85247 1.65422L9.58451 1.31959L10.7153 1.12478L12.0552 0.892955L12.5161 0.853188L12.6413 0.884751L12.8229 0.964285L13.4447 1.78457L13.8326 2.41004L13.911 2.67887L13.9853 2.70767L14.1683 2.6638L14.3747 2.56367L15.0061 1.93954L15.1382 1.77628L15.5412 1.47456L16.0296 1.16597L16.4725 0.947876L16.9169 0.76679L17.1219 0.812082L17.364 0.968387L17.5786 1.06584L18.5884 0.310014L19.0396 0.135794L20.2255 0L20.3906 0.0246973Z" fill="var(--fill-0, #71B219)" stroke="var(--stroke-0, white)" mask="url(#path-1-inside-1_0_231)"/>
</g>
</svg>
