<svg preserveAspectRatio="none" width="100%" height="100%" overflow="visible" style="display: block;" viewBox="0 0 36 38" fill="none" xmlns="http://www.w3.org/2000/svg"><g id="BW"><mask id="path-1-inside-1_0_231" fill="white"><path d="M20 0L20 0L20 0L20 1L20 1L21 1L21 1L21 2L21 2L22 3L22 4L22 4L22 4L23 5L23 5L23 5L24 6L24 7L24 7L25 8L26 8L27 9L28 9L28 9L28 10L28 10L28 10L28 11L29 11L30 11L30 11L30 11L30 11L30 12L30 12L30 12L30 13L30 13L30 14L30 14L31 14L31 15L31 15L31 15L32 16L33 16L34 16L34 16L35 16L35 16L35 16L35 17L35 17L35 17L35 17L35 17L36 18L36 18L36 18L35 18L35 18L35 19L34 19L34 19L33 20L32 20L32 20L31 21L31 21L31 21L31 22L30 22L30 22L30 22L30 22L30 22L29 22L29 23L29 23L29 23L28 23L28 23L28 24L28 24L27 24L27 24L27 24L26 26L26 27L26 27L25 28L25 28L25 28L24 28L23 28L23 29L23 29L23 29L22 30L22 31L22 32L22 32L21 32L21 33L21 33L20 33L20 33L19 33L19 33L18 33L18 33L17 33L17 33L16 32L16 32L15 32L15 32L15 32L14 32L14 31L13 31L13 31L12 31L12 31L12 31L12 31L11 32L11 32L11 32L11 33L10 34L10 34L10 35L10 35L9 36L8 36L8 37L8 37L7 37L7 37L7 37L7 38L6 38L6 38L6 38L4 38L4 37L3 37L3 38L3 37L3 37L2 36L2 36L3 35L3 35L3 35L3 34L3 34L3 34L3 34L3 33L2 32L2 31L2 30L1 30L0 29L0 29V29V28L0 26L0 25L0 24L0 23L0 22L0 20V19L0 18L0 17H1H2H3H4L4 17V16L4 15L4 13L4 11L4 10L4 8L4 6L4 5L4 3L4 2L5 2L6 2L8 2L10 1L11 1L12 1L12 1L13 1L13 1L13 2L14 2L14 3L14 3L14 3L14 3L15 2L15 2L16 2L16 1L16 1L17 1L17 1L17 1L18 1L19 0L19 0L20 0L20 0Z"/></mask><path d="M20 0L20 0L20 0L20 1L20 1L21 1L21 1L21 2L21 2L22 3L22 4L22 4L22 4L23 5L23 5L23 5L24 6L24 7L24 7L25 8L26 8L27 9L28 9L28 9L28 10L28 10L28 10L28 11L29 11L30 11L30 11L30 11L30 11L30 12L30 12L30 12L30 13L30 13L30 14L30 14L31 14L31 15L31 15L31 15L32 16L33 16L34 16L34 16L35 16L35 16L35 16L35 17L35 17L35 17L35 17L35 17L36 18L36 18L36 18L35 18L35 18L35 19L34 19L34 19L33 20L32 20L32 20L31 21L31 21L31 21L31 22L30 22L30 22L30 22L30 22L30 22L29 22L29 23L29 23L29 23L28 23L28 23L28 24L28 24L27 24L27 24L27 24L26 26L26 27L26 27L25 28L25 28L25 28L24 28L23 28L23 29L23 29L23 29L22 30L22 31L22 32L22 32L21 32L21 33L21 33L20 33L20 33L19 33L19 33L18 33L18 33L17 33L17 33L16 32L16 32L15 32L15 32L15 32L14 32L14 31L13 31L13 31L12 31L12 31L12 31L12 31L11 32L11 32L11 32L11 33L10 34L10 34L10 35L10 35L9 36L8 36L8 37L8 37L7 37L7 37L7 37L7 38L6 38L6 38L6 38L4 38L4 37L3 37L3 38L3 37L3 37L2 36L2 36L3 35L3 35L3 35L3 34L3 34L3 34L3 34L3 33L2 32L2 31L2 30L1 30L0 29L0 29V29V28L0 26L0 25L0 24L0 23L0 22L0 20V19L0 18L0 17H1H2H3H4L4 17V16L4 15L4 13L4 11L4 10L4 8L4 6L4 5L4 3L4 2L5 2L6 2L8 2L10 1L11 1L12 1L12 1L13 1L13 1L13 2L14 2L14 3L14 3L14 3L14 3L15 2L15 2L16 2L16 1L16 1L17 1L17 1L17 1L18 1L19 0L19 0L20 0L20 0Z" fill="var(--fill-0,#71B219)" stroke="var(--stroke-0,white)" mask="url(#path-1-inside-1_0_231)"/></g></svg>