<svg preserveAspectRatio="none" width="100%" height="100%" overflow="visible" style="display: block;" viewBox="0 0 36.8136 31.7129" fill="none" xmlns="http://www.w3.org/2000/svg">
<g id="BY">
<mask id="path-1-inside-1_0_210" fill="white">
<path d="M19.1992 0.0205532L19.7261 0.619987L19.8499 0.643303L20.1429 0.407381L20.2007 0.392269L20.806 0.371716L21.0866 0.58022L21.2958 0.986219L21.4883 1.30992L21.6975 1.3977L22.2862 0.990322L22.6123 0.854528L22.8269 0.858672L23.5822 1.2249L23.9371 1.42516L24.0183 1.60621L24.0265 1.82019L23.9302 2.13703L23.8546 2.48133L24.0843 2.88733L24.3512 3.16306L24.9221 2.70767L25.1326 2.58146L25.3623 2.57736L25.6705 2.40862L25.8933 2.15352L26.1065 2.0657L26.5152 2.12606L27.2525 2.0657L28.1123 2.46488L28.1866 2.58832L28.6158 3.05468L28.7658 3.28651L28.9074 3.36056L29.1358 3.58827L29.4426 3.73093L29.6545 3.68702L29.7562 3.76245L29.8512 3.94078L29.8581 4.24531L29.8278 5.11218L29.6778 5.36184L29.5196 5.56486L29.4797 5.72258L29.4949 5.91326L29.7384 6.28635L30.0521 6.86381L30.1249 7.19714V7.44813L29.6971 8.18336L29.5554 8.35482L29.4564 8.71557L29.4041 9.0818L29.4343 9.23404L30.1497 9.81565L30.6794 10.1298L30.7977 10.2834L30.8087 10.3794L30.5281 11.0007L30.5005 11.1681L30.9242 11.4246L31.1595 11.8292L31.3659 12.4876L31.7689 13.1172L32.6369 13.6741L33.2684 14.0363L33.4004 14.2008L33.4459 14.3956L33.3978 14.8249L33.234 15.3476L33.1226 15.637L33.3799 15.7577L34.0415 15.7248L34.8463 15.8263L35.8107 16.3996L35.8134 16.6561L35.7144 16.8907L35.7804 17.1362L35.885 17.3447L36.72 17.9825L36.7998 18.1677L36.8136 18.4777L36.7916 18.704L36.5605 18.7506L36.3032 18.8563L35.8836 19.1279L35.7186 19.5106L35.0389 20.0373L34.6207 20.2759L34.2864 20.2856L33.4913 20.1786L33.212 19.9193L33.0965 19.6806L32.791 19.5723L32.3852 19.5627L31.8253 19.6038L31.7111 19.6765L31.6189 19.9687L31.381 20.4694L31.2104 20.7505L31.3507 20.9234L31.5736 21.2827L31.9202 21.7381L32.2779 22.1428L32.3921 22.3897L32.3866 22.5666L32.2174 22.7738L32.2421 23.1907L32.5888 23.738L32.4719 23.8258L32.4361 24.4966L32.4402 25.2112L32.5338 25.384L32.7195 25.5267L32.8778 25.7873L33.1405 26.3799L33.1584 26.5349L32.4265 26.491L31.5474 26.5088L31.0535 26.8531L30.861 26.7735L30.5171 26.6857L30.1359 26.8778L29.6159 27.458L29.2666 27.8188L28.9268 28.3235L28.8194 28.5965L28.6048 29.0985L28.4081 29.6719L28.5154 30.0724L28.6764 30.4441L28.7121 30.8446L28.7919 31.1574L28.5773 31.3851L28.4521 31.7129L28.0862 31.6553L27.6377 31.3412L27.5427 30.8858L27.1975 30.5689L26.9705 30.403L26.5963 30.3783L25.9979 30.5264L25.2151 30.6402L24.6249 30.6704L24.303 30.8323L23.827 30.9914L23.6427 30.8021L23.3786 30.285L23.1626 29.7693L23.0126 29.5429L22.8833 29.4798L22.7237 29.4922L22.5407 29.6554L22.4032 29.8241L22.2092 29.8831L21.9093 30.0189L21.6906 30.2027L21.4512 30.6773L21.293 30.6444L21.1293 30.5346L20.9409 30.0038L20.6822 29.8817L20.2681 29.8749L19.755 29.7624L19.3381 29.6005L19.1868 29.6389L18.9378 29.8653L18.6709 29.8982L18.0822 29.6965L17.968 29.7898L17.8125 30.0875L17.6295 30.3741L17.47 30.403L17.3806 30.3289L17.4301 29.82L17.0889 29.6403L16.5139 29.6115L16.1094 29.6856L15.9127 29.665L15.8109 29.5662L15.3156 28.7089L15.0542 28.6541L14.5851 28.6966L13.8931 28.5924L13.0953 28.399L12.6564 28.3276L12.4294 28.1342L11.9383 28.0684L10.6176 27.7049L10.0797 27.6404L9.28593 27.6349L8.07808 27.554L7.30358 27.5993L6.94455 27.72L6.53043 27.7954L5.83024 27.8612L5.54543 27.8544L5.09697 27.8942L4.58242 27.9916L4.43523 28.1713L4.26604 28.5677L3.6745 29.2507L3.10085 29.7034L2.99631 29.7418L2.66062 29.5018L2.38135 29.4209L2.05254 29.3948L1.82004 29.4716L1.67427 29.5855L1.6935 30.1108L1.6605 30.156L1.40735 29.5333L1.428 28.9682L1.56831 28.6445L1.74027 28.3523L1.67016 27.9147L1.83792 27.3346L1.84347 26.9135L1.76916 26.7324L1.63296 26.5225L1.25881 26.2893L1.09374 26.1069L0.587424 25.8627L0.0853091 25.5596L0 25.373L0.0234264 25.2455L0.111422 25.0507L0.495313 24.4815L0.910775 23.9273L1.17627 23.7051L2.58631 22.9918L2.8037 22.7422L2.85869 22.3197L2.86147 22.0125L2.83535 21.4638L2.7487 20.682L2.64139 20.1415L2.37169 19.1237L1.63708 17.0073L1.1955 14.7948L1.483 14.9251L2.15708 14.9731L2.69227 14.8208L2.97012 14.7989L3.21782 14.8483L3.58642 14.7605L3.92346 14.7248L4.0982 14.9237L4.41189 15.0993L5.03231 14.8469L5.5812 14.5328L6.15074 14.5671L6.23193 14.4121L6.37358 13.6234L6.54285 13.4506L7.22382 13.5301L7.47555 13.3875L7.7397 12.9979L8.14139 12.7538L8.47709 12.7551L8.82647 12.4808L8.99843 12.6646L9.08231 12.9924L8.96677 13.253L9.01631 13.3559L9.25847 13.4848L9.67251 13.4807L9.93801 13.3737L9.99997 13.2242V12.9526L9.93389 12.6989L9.75782 12.4808L9.42766 12.3669L9.19793 12.3642L9.15939 12.2243L9.23782 11.9266L9.44143 11.3752L9.69182 10.8773L9.84447 10.6894L9.87067 10.5152L9.8417 10.2134L9.83624 9.66884L10.0605 8.90071L10.3631 8.32736L10.7689 8.13945L11.2656 8.03932L11.5834 7.76497L11.7402 7.44951L11.7994 7.18203L11.875 6.95159L12.0332 6.85008L13.2273 6.91321L13.4103 6.41528L13.5134 6.27673L13.7418 6.12858L13.9014 5.95164L13.8422 5.81447L13.5369 5.72669L12.8187 5.64849L12.6743 5.48256L12.7197 5.28364L12.9109 4.76789L13.0939 4.10127L13.1888 3.58417L13.1984 3.27826L13.3016 3.19596L13.8862 3.0986L14.083 2.99432L14.5865 2.28656L14.9703 2.16587L15.9622 2.3483L16.4162 2.33457L16.54 2.35102L16.994 2.38258L17.0435 2.31125L17.2471 1.61031L17.448 1.40595L18.2279 0.480091L18.7521 0.0863989L19.0836 0L19.1992 0.0205532Z"/>
</mask>
<path d="M19.1992 0.0205532L19.7261 0.619987L19.8499 0.643303L20.1429 0.407381L20.2007 0.392269L20.806 0.371716L21.0866 0.58022L21.2958 0.986219L21.4883 1.30992L21.6975 1.3977L22.2862 0.990322L22.6123 0.854528L22.8269 0.858672L23.5822 1.2249L23.9371 1.42516L24.0183 1.60621L24.0265 1.82019L23.9302 2.13703L23.8546 2.48133L24.0843 2.88733L24.3512 3.16306L24.9221 2.70767L25.1326 2.58146L25.3623 2.57736L25.6705 2.40862L25.8933 2.15352L26.1065 2.0657L26.5152 2.12606L27.2525 2.0657L28.1123 2.46488L28.1866 2.58832L28.6158 3.05468L28.7658 3.28651L28.9074 3.36056L29.1358 3.58827L29.4426 3.73093L29.6545 3.68702L29.7562 3.76245L29.8512 3.94078L29.8581 4.24531L29.8278 5.11218L29.6778 5.36184L29.5196 5.56486L29.4797 5.72258L29.4949 5.91326L29.7384 6.28635L30.0521 6.86381L30.1249 7.19714V7.44813L29.6971 8.18336L29.5554 8.35482L29.4564 8.71557L29.4041 9.0818L29.4343 9.23404L30.1497 9.81565L30.6794 10.1298L30.7977 10.2834L30.8087 10.3794L30.5281 11.0007L30.5005 11.1681L30.9242 11.4246L31.1595 11.8292L31.3659 12.4876L31.7689 13.1172L32.6369 13.6741L33.2684 14.0363L33.4004 14.2008L33.4459 14.3956L33.3978 14.8249L33.234 15.3476L33.1226 15.637L33.3799 15.7577L34.0415 15.7248L34.8463 15.8263L35.8107 16.3996L35.8134 16.6561L35.7144 16.8907L35.7804 17.1362L35.885 17.3447L36.72 17.9825L36.7998 18.1677L36.8136 18.4777L36.7916 18.704L36.5605 18.7506L36.3032 18.8563L35.8836 19.1279L35.7186 19.5106L35.0389 20.0373L34.6207 20.2759L34.2864 20.2856L33.4913 20.1786L33.212 19.9193L33.0965 19.6806L32.791 19.5723L32.3852 19.5627L31.8253 19.6038L31.7111 19.6765L31.6189 19.9687L31.381 20.4694L31.2104 20.7505L31.3507 20.9234L31.5736 21.2827L31.9202 21.7381L32.2779 22.1428L32.3921 22.3897L32.3866 22.5666L32.2174 22.7738L32.2421 23.1907L32.5888 23.738L32.4719 23.8258L32.4361 24.4966L32.4402 25.2112L32.5338 25.384L32.7195 25.5267L32.8778 25.7873L33.1405 26.3799L33.1584 26.5349L32.4265 26.491L31.5474 26.5088L31.0535 26.8531L30.861 26.7735L30.5171 26.6857L30.1359 26.8778L29.6159 27.458L29.2666 27.8188L28.9268 28.3235L28.8194 28.5965L28.6048 29.0985L28.4081 29.6719L28.5154 30.0724L28.6764 30.4441L28.7121 30.8446L28.7919 31.1574L28.5773 31.3851L28.4521 31.7129L28.0862 31.6553L27.6377 31.3412L27.5427 30.8858L27.1975 30.5689L26.9705 30.403L26.5963 30.3783L25.9979 30.5264L25.2151 30.6402L24.6249 30.6704L24.303 30.8323L23.827 30.9914L23.6427 30.8021L23.3786 30.285L23.1626 29.7693L23.0126 29.5429L22.8833 29.4798L22.7237 29.4922L22.5407 29.6554L22.4032 29.8241L22.2092 29.8831L21.9093 30.0189L21.6906 30.2027L21.4512 30.6773L21.293 30.6444L21.1293 30.5346L20.9409 30.0038L20.6822 29.8817L20.2681 29.8749L19.755 29.7624L19.3381 29.6005L19.1868 29.6389L18.9378 29.8653L18.6709 29.8982L18.0822 29.6965L17.968 29.7898L17.8125 30.0875L17.6295 30.3741L17.47 30.403L17.3806 30.3289L17.4301 29.82L17.0889 29.6403L16.5139 29.6115L16.1094 29.6856L15.9127 29.665L15.8109 29.5662L15.3156 28.7089L15.0542 28.6541L14.5851 28.6966L13.8931 28.5924L13.0953 28.399L12.6564 28.3276L12.4294 28.1342L11.9383 28.0684L10.6176 27.7049L10.0797 27.6404L9.28593 27.6349L8.07808 27.554L7.30358 27.5993L6.94455 27.72L6.53043 27.7954L5.83024 27.8612L5.54543 27.8544L5.09697 27.8942L4.58242 27.9916L4.43523 28.1713L4.26604 28.5677L3.6745 29.2507L3.10085 29.7034L2.99631 29.7418L2.66062 29.5018L2.38135 29.4209L2.05254 29.3948L1.82004 29.4716L1.67427 29.5855L1.6935 30.1108L1.6605 30.156L1.40735 29.5333L1.428 28.9682L1.56831 28.6445L1.74027 28.3523L1.67016 27.9147L1.83792 27.3346L1.84347 26.9135L1.76916 26.7324L1.63296 26.5225L1.25881 26.2893L1.09374 26.1069L0.587424 25.8627L0.0853091 25.5596L0 25.373L0.0234264 25.2455L0.111422 25.0507L0.495313 24.4815L0.910775 23.9273L1.17627 23.7051L2.58631 22.9918L2.8037 22.7422L2.85869 22.3197L2.86147 22.0125L2.83535 21.4638L2.7487 20.682L2.64139 20.1415L2.37169 19.1237L1.63708 17.0073L1.1955 14.7948L1.483 14.9251L2.15708 14.9731L2.69227 14.8208L2.97012 14.7989L3.21782 14.8483L3.58642 14.7605L3.92346 14.7248L4.0982 14.9237L4.41189 15.0993L5.03231 14.8469L5.5812 14.5328L6.15074 14.5671L6.23193 14.4121L6.37358 13.6234L6.54285 13.4506L7.22382 13.5301L7.47555 13.3875L7.7397 12.9979L8.14139 12.7538L8.47709 12.7551L8.82647 12.4808L8.99843 12.6646L9.08231 12.9924L8.96677 13.253L9.01631 13.3559L9.25847 13.4848L9.67251 13.4807L9.93801 13.3737L9.99997 13.2242V12.9526L9.93389 12.6989L9.75782 12.4808L9.42766 12.3669L9.19793 12.3642L9.15939 12.2243L9.23782 11.9266L9.44143 11.3752L9.69182 10.8773L9.84447 10.6894L9.87067 10.5152L9.8417 10.2134L9.83624 9.66884L10.0605 8.90071L10.3631 8.32736L10.7689 8.13945L11.2656 8.03932L11.5834 7.76497L11.7402 7.44951L11.7994 7.18203L11.875 6.95159L12.0332 6.85008L13.2273 6.91321L13.4103 6.41528L13.5134 6.27673L13.7418 6.12858L13.9014 5.95164L13.8422 5.81447L13.5369 5.72669L12.8187 5.64849L12.6743 5.48256L12.7197 5.28364L12.9109 4.76789L13.0939 4.10127L13.1888 3.58417L13.1984 3.27826L13.3016 3.19596L13.8862 3.0986L14.083 2.99432L14.5865 2.28656L14.9703 2.16587L15.9622 2.3483L16.4162 2.33457L16.54 2.35102L16.994 2.38258L17.0435 2.31125L17.2471 1.61031L17.448 1.40595L18.2279 0.480091L18.7521 0.0863989L19.0836 0L19.1992 0.0205532Z" fill="var(--fill-0, #71B219)" stroke="var(--stroke-0, white)" mask="url(#path-1-inside-1_0_210)"/>
</g>
</svg>
