<svg preserveAspectRatio="none" width="100%" height="100%" overflow="visible" style="display: block;" viewBox="0 0 37 32" fill="none" xmlns="http://www.w3.org/2000/svg"><g id="BY"><mask id="path-1-inside-1_0_210" fill="white"><path d="M19 0L20 1L20 1L20 0L20 0L21 0L21 1L21 1L22 1L22 1L22 1L23 1L23 1L24 1L24 1L24 2L24 2L24 2L24 2L24 3L24 3L25 3L25 3L25 3L26 2L26 2L26 2L26 2L27 2L28 2L28 3L29 3L29 3L29 3L29 4L29 4L30 4L30 4L30 4L30 4L30 5L30 5L30 6L30 6L30 6L30 6L30 7L30 7V7L30 8L30 8L30 9L29 9L29 9L30 10L31 10L31 10L31 10L30 11L30 11L31 11L31 12L31 12L32 13L33 14L33 14L33 14L33 14L33 15L33 15L33 16L33 16L34 16L35 16L36 16L36 17L36 17L36 17L36 17L37 18L37 18L37 18L37 19L37 19L36 19L36 19L36 20L35 20L35 20L34 20L34 20L33 20L33 20L33 20L32 20L32 20L32 20L32 20L31 20L31 21L31 21L32 21L32 22L32 22L32 22L32 23L32 23L32 23L33 24L32 24L32 24L32 25L32 25L33 26L33 26L33 26L33 26L32 26L32 26L31 27L31 27L30 27L30 27L30 28L29 28L29 28L29 29L29 29L28 30L28 30L29 30L29 31L29 31L29 31L28 32L28 32L28 31L28 31L27 31L27 30L27 30L26 30L25 31L25 31L24 31L24 31L24 31L23 30L23 30L23 30L23 30L23 30L22 30L22 30L22 30L22 30L22 30L22 31L21 31L21 30L21 30L21 30L20 30L20 30L19 30L19 30L19 30L19 30L18 30L18 30L18 30L18 30L18 30L17 30L17 30L17 30L16 30L16 30L16 30L16 30L15 29L15 29L15 29L14 29L13 28L13 28L12 28L12 28L11 28L10 28L9 28L8 28L7 28L7 28L6 28L6 28L6 28L5 28L5 28L4 28L4 29L4 29L3 30L3 30L3 30L2 29L2 29L2 30L2 30L2 30L2 30L1 30L1 29L2 29L2 28L2 28L2 27L2 27L2 27L2 26L1 26L1 26L1 26L0 26L0 25L0 25L0 25L0 24L1 24L1 24L3 23L3 23L3 22L3 22L3 22L3 21L3 20L2 19L2 17L1 15L2 15L2 15L3 15L3 15L3 15L4 15L4 15L4 15L4 15L5 15L6 14L6 15L6 14L6 14L6 14L7 14L8 13L8 13L8 13L8 13L9 12L9 13L9 13L9 13L9 13L9 14L10 14L10 13L10 13V13L10 13L10 12L9 12L9 12L9 12L9 12L9 11L10 11L10 11L10 10L10 10L10 10L10 9L10 8L11 8L11 8L12 8L12 7L12 7L12 7L12 7L13 7L13 6L14 6L14 6L14 6L14 6L14 6L13 6L13 6L13 5L13 5L13 4L13 4L13 3L13 3L14 3L14 3L15 2L15 2L16 2L16 2L16 2L17 2L17 2L17 2L17 1L18 0L19 0L19 0L19 0Z"/></mask><path d="M19 0L20 1L20 1L20 0L20 0L21 0L21 1L21 1L22 1L22 1L22 1L23 1L23 1L24 1L24 1L24 2L24 2L24 2L24 2L24 3L24 3L25 3L25 3L25 3L26 2L26 2L26 2L26 2L27 2L28 2L28 3L29 3L29 3L29 3L29 4L29 4L30 4L30 4L30 4L30 4L30 5L30 5L30 6L30 6L30 6L30 6L30 7L30 7V7L30 8L30 8L30 9L29 9L29 9L30 10L31 10L31 10L31 10L30 11L30 11L31 11L31 12L31 12L32 13L33 14L33 14L33 14L33 14L33 15L33 15L33 16L33 16L34 16L35 16L36 16L36 17L36 17L36 17L36 17L37 18L37 18L37 18L37 19L37 19L36 19L36 19L36 20L35 20L35 20L34 20L34 20L33 20L33 20L33 20L32 20L32 20L32 20L32 20L31 20L31 21L31 21L32 21L32 22L32 22L32 22L32 23L32 23L32 23L33 24L32 24L32 24L32 25L32 25L33 26L33 26L33 26L33 26L32 26L32 26L31 27L31 27L30 27L30 27L30 28L29 28L29 28L29 29L29 29L28 30L28 30L29 30L29 31L29 31L29 31L28 32L28 32L28 31L28 31L27 31L27 30L27 30L26 30L25 31L25 31L24 31L24 31L24 31L23 30L23 30L23 30L23 30L23 30L22 30L22 30L22 30L22 30L22 30L22 31L21 31L21 30L21 30L21 30L20 30L20 30L19 30L19 30L19 30L19 30L18 30L18 30L18 30L18 30L18 30L17 30L17 30L17 30L16 30L16 30L16 30L16 30L15 29L15 29L15 29L14 29L13 28L13 28L12 28L12 28L11 28L10 28L9 28L8 28L7 28L7 28L6 28L6 28L6 28L5 28L5 28L4 28L4 29L4 29L3 30L3 30L3 30L2 29L2 29L2 30L2 30L2 30L2 30L1 30L1 29L2 29L2 28L2 28L2 27L2 27L2 27L2 26L1 26L1 26L1 26L0 26L0 25L0 25L0 25L0 24L1 24L1 24L3 23L3 23L3 22L3 22L3 22L3 21L3 20L2 19L2 17L1 15L2 15L2 15L3 15L3 15L3 15L4 15L4 15L4 15L4 15L5 15L6 14L6 15L6 14L6 14L6 14L7 14L8 13L8 13L8 13L8 13L9 12L9 13L9 13L9 13L9 13L9 14L10 14L10 13L10 13V13L10 13L10 12L9 12L9 12L9 12L9 12L9 11L10 11L10 11L10 10L10 10L10 10L10 9L10 8L11 8L11 8L12 8L12 7L12 7L12 7L12 7L13 7L13 6L14 6L14 6L14 6L14 6L14 6L13 6L13 6L13 5L13 5L13 4L13 4L13 3L13 3L14 3L14 3L15 2L15 2L16 2L16 2L16 2L17 2L17 2L17 2L17 1L18 0L19 0L19 0L19 0Z" fill="var(--fill-0,#71B219)" stroke="var(--stroke-0,white)" mask="url(#path-1-inside-1_0_210)"/></g></svg>