<svg preserveAspectRatio="none" width="100%" height="100%" overflow="visible" style="display: block;" viewBox="0 0 6 10" fill="none" xmlns="http://www.w3.org/2000/svg"><path id="BZ" d="M3 0L3 1L3 1L4 1L4 1L4 1L4 1L4 1L4 1L4 1L4 2L4 2L4 2L4 3L4 3L4 4L4 4L4 4L4 4L4 4L4 4L3 5L3 5L3 5L3 5L3 5L3 5L4 6L3 7L3 8L3 8L3 8L3 8L2 9L2 9L2 9L2 9L1 10L1 10L1 10L1 10L1 10L1 10L0 10L0 10L0 10L0 10L0 9L0 8V8L0 7L0 6L0 5L0 4L0 3H0V3L0 2L1 2L1 2L1 2V2L1 2L1 3L1 2L2 2L2 2L2 2L2 2L2 2L2 2L2 2L3 1L3 1L3 1L3 0L3 0L3 0L3 0Z" fill="var(--fill-0,#71B219)" stroke="var(--stroke-0,white)" stroke-width="0"/></svg>