<svg preserveAspectRatio="none" width="100%" height="100%" overflow="visible" style="display: block;" viewBox="0 0 5.59633 10.389" fill="none" xmlns="http://www.w3.org/2000/svg">
<path id="BZ" d="M3.20312 0.395508L3.08398 0.65918L3.3623 0.738281L3.56836 0.796875L3.62988 0.814453L3.69238 0.800781L3.84473 0.765625L4.09668 0.773438L4.19531 1.06152L4.15918 1.39551L3.74512 2.47266L3.73535 2.49902L3.73047 2.52734L3.68066 2.88281L3.49414 3.43066L3.45312 3.55078L3.52637 3.65527L3.70312 3.90723L3.52344 4.27148L3.51172 4.29395L3.50586 4.31934L3.42188 4.64062L3.41504 4.66602L3.41406 4.69336L3.39453 5.17676L3.39355 5.19824L3.39648 5.21973L3.51465 6.09863L3.32812 7.33496L3.01758 7.8418L2.82129 8.03906L2.80469 8.05566L2.79102 8.0752L2.44824 8.57715L2.01562 8.7207L1.94238 8.74512L1.89551 8.80566L1.18457 9.72559L1.1709 9.74414L1.16016 9.76367L1.03516 10.0049L0.991211 10.0908L0.999023 10.1221L0.494141 10.0918L0.473633 10.0898L0.453125 10.0928L0.259766 10.1123L0.287109 9.38672L0.345703 7.85449V7.85352L0.388672 6.72754L0.429688 5.625L0.461914 4.79785L0.503906 3.6709L0.541016 2.69629H0.541992V2.68457L0.537109 2.38477L0.587891 2.25781L0.694336 2.21973L1.00977 2.40234V2.40332L1.18359 2.50293L1.28516 2.56152L1.39551 2.52148L1.55078 2.46289L1.58398 2.45117L1.6123 2.42969L1.81055 2.2832L1.85352 2.25195L1.87891 2.20605L2.11523 1.78711L2.71777 0.915039L2.73438 0.891602L2.74512 0.864258L2.9541 0.324219L3.06152 0.267578L3.26562 0.253906L3.20312 0.395508Z" fill="var(--fill-0, #71B219)" stroke="var(--stroke-0, white)" stroke-width="0.5"/>
</svg>
