<svg preserveAspectRatio="none" width="100%" height="100%" overflow="visible" style="display: block;" viewBox="0 0 0.385363 0.289041" fill="none" xmlns="http://www.w3.org/2000/svg">
<g id="CC">
<mask id="path-1-inside-1_0_233" fill="white">
<path d="M0.0552205 0.218512L0.10083 0.239236L0.160266 0.218512L0.185136 0.243414L0.0925681 0.282119L0.0345655 0.211589L0.0069131 0.0967833L0 0H0.0262192V0.0387049L0.0331323 0.0705298L0.0538716 0.134138L0.0386965 0.177021L0.0552205 0.218512ZM0.357795 0.266924L0.313534 0.289041L0.274922 0.272454L0.263794 0.260002L0.259663 0.239236L0.303923 0.236492L0.338405 0.217119L0.360493 0.183943L0.367406 0.136923L0.385363 0.18255L0.382581 0.228177L0.357795 0.266924Z"/>
</mask>
<path d="M0.0552205 0.218512L0.10083 0.239236L0.160266 0.218512L0.185136 0.243414L0.0925681 0.282119L0.0345655 0.211589L0.0069131 0.0967833L0 0H0.0262192V0.0387049L0.0331323 0.0705298L0.0538716 0.134138L0.0386965 0.177021L0.0552205 0.218512ZM0.357795 0.266924L0.313534 0.289041L0.274922 0.272454L0.263794 0.260002L0.259663 0.239236L0.303923 0.236492L0.338405 0.217119L0.360493 0.183943L0.367406 0.136923L0.385363 0.18255L0.382581 0.228177L0.357795 0.266924Z" fill="var(--fill-0, #71B219)"/>
<path d="M0.0552205 0.218512L-0.409296 0.403509L-0.334837 0.590472L-0.15162 0.673723L0.0552205 0.218512ZM0.10083 0.239236L-0.10601 0.694447L0.0763333 0.777301L0.265451 0.711359L0.10083 0.239236ZM0.160266 0.218512L0.51405 -0.134811L0.292153 -0.356998L-0.004355 -0.253611L0.160266 0.218512ZM0.185136 0.243414L0.378016 0.704714L1.06543 0.41729L0.53892 -0.109908L0.185136 0.243414ZM0.0925681 0.282119L-0.293614 0.599709L-0.0575031 0.886815L0.285448 0.743419L0.0925681 0.282119ZM0.0345655 0.211589L-0.451533 0.328672L-0.42462 0.440409L-0.351617 0.529179L0.0345655 0.211589ZM0.0069131 0.0967833L-0.491816 0.132407L-0.48887 0.173659L-0.479185 0.213866L0.0069131 0.0967833ZM0 0V-0.5H-0.536988L-0.498729 0.0356236L0 0ZM0.0262192 0H0.526219V-0.5H0.0262192V0ZM0.0262192 0.0387049H-0.473781V0.0923846L-0.462386 0.144841L0.0262192 0.0387049ZM0.0331323 0.0705298L-0.455473 0.176666L-0.450094 0.201431L-0.442238 0.225524L0.0331323 0.0705298ZM0.0538716 0.134138L0.525229 0.300936L0.581924 0.140721L0.529242 -0.020857L0.0538716 0.134138ZM0.0386965 0.177021L-0.432661 0.0102225L-0.495361 0.187406L-0.42582 0.362019L0.0386965 0.177021ZM0.357795 0.266924L0.581294 0.714192L0.70467 0.652541L0.778991 0.536358L0.357795 0.266924ZM0.313534 0.289041L0.116175 0.748443L0.329421 0.840053L0.537034 0.736309L0.313534 0.289041ZM0.274922 0.272454L-0.0978819 0.605646L-0.0241279 0.688168L0.0775632 0.731855L0.274922 0.272454ZM0.263794 0.260002L-0.226598 0.357554L-0.199967 0.491424L-0.10901 0.593195L0.263794 0.260002ZM0.259663 0.239236L0.228729 -0.259806L-0.342365 -0.224407L-0.230729 0.336788L0.259663 0.239236ZM0.303923 0.236492L0.334857 0.735534L0.449074 0.728455L0.548842 0.6724L0.303923 0.236492ZM0.338405 0.217119L0.583323 0.653026L0.688034 0.594193L0.754597 0.494218L0.338405 0.217119ZM0.360493 0.183943L0.776685 0.461042L0.838857 0.367663L0.855175 0.256674L0.360493 0.183943ZM0.367406 0.136923L0.832669 -0.0461882L0.145617 -1.7919L-0.127276 0.0641926L0.367406 0.136923ZM0.385363 0.18255L0.884436 0.212981L0.891175 0.102467L0.850627 -0.00056118L0.385363 0.18255ZM0.382581 0.228177L0.803777 0.49761L0.873751 0.388222L0.881654 0.258608L0.382581 0.228177ZM0.0552205 0.218512L-0.15162 0.673723L-0.10601 0.694447L0.10083 0.239236L0.30767 -0.215975L0.262061 -0.2367L0.0552205 0.218512ZM0.10083 0.239236L0.265451 0.711359L0.324887 0.690634L0.160266 0.218512L-0.004355 -0.253611L-0.0637908 -0.232887L0.10083 0.239236ZM0.160266 0.218512L-0.193518 0.571834L-0.168648 0.596737L0.185136 0.243414L0.53892 -0.109908L0.51405 -0.134811L0.160266 0.218512ZM0.185136 0.243414L-0.00774398 -0.217885L-0.100312 -0.17918L0.0925681 0.282119L0.285448 0.743419L0.378016 0.704714L0.185136 0.243414ZM0.0925681 0.282119L0.47875 -0.0354706L0.420748 -0.106L0.0345655 0.211589L-0.351617 0.529179L-0.293614 0.599709L0.0925681 0.282119ZM0.0345655 0.211589L0.520664 0.0945071L0.493012 -0.0202991L0.0069131 0.0967833L-0.479185 0.213866L-0.451533 0.328672L0.0345655 0.211589ZM0.0069131 0.0967833L0.505642 0.0611597L0.498729 -0.0356236L0 0L-0.498729 0.0356236L-0.491816 0.132407L0.0069131 0.0967833ZM0 0V0.5H0.0262192V0V-0.5H0V0ZM0.0262192 0H-0.473781V0.0387049H0.0262192H0.526219V0H0.0262192ZM0.0262192 0.0387049L-0.462386 0.144841L-0.455473 0.176666L0.0331323 0.0705298L0.521738 -0.0356063L0.514824 -0.0674312L0.0262192 0.0387049ZM0.0331323 0.0705298L-0.442238 0.225524L-0.421499 0.289132L0.0538716 0.134138L0.529242 -0.020857L0.508502 -0.0844647L0.0331323 0.0705298ZM0.0538716 0.134138L-0.417486 -0.032661L-0.432661 0.0102225L0.0386965 0.177021L0.510054 0.343819L0.525229 0.300936L0.0538716 0.134138ZM0.0386965 0.177021L-0.42582 0.362019L-0.409296 0.403509L0.0552205 0.218512L0.519737 0.0335139L0.503213 -0.00797676L0.0386965 0.177021ZM0.357795 0.266924L0.134295 -0.180343L0.0900348 -0.158226L0.313534 0.289041L0.537034 0.736309L0.581294 0.714192L0.357795 0.266924ZM0.313534 0.289041L0.510893 -0.17036L0.472281 -0.186948L0.274922 0.272454L0.0775632 0.731855L0.116175 0.748443L0.313534 0.289041ZM0.274922 0.272454L0.647726 -0.0607387L0.636598 -0.0731901L0.263794 0.260002L-0.10901 0.593195L-0.0978819 0.605646L0.274922 0.272454ZM0.263794 0.260002L0.754185 0.16245L0.750054 0.141684L0.259663 0.239236L-0.230729 0.336788L-0.226598 0.357554L0.263794 0.260002ZM0.259663 0.239236L0.290596 0.738278L0.334857 0.735534L0.303923 0.236492L0.27299 -0.26255L0.228729 -0.259806L0.259663 0.239236ZM0.303923 0.236492L0.548842 0.6724L0.583323 0.653026L0.338405 0.217119L0.0934865 -0.218788L0.0590053 -0.199415L0.303923 0.236492ZM0.338405 0.217119L0.754597 0.494218L0.776685 0.461042L0.360493 0.183943L-0.0556995 -0.0931561L-0.0777877 -0.0599805L0.338405 0.217119ZM0.360493 0.183943L0.855175 0.256674L0.862088 0.209654L0.367406 0.136923L-0.127276 0.0641926L-0.134189 0.111213L0.360493 0.183943ZM0.367406 0.136923L-0.0978577 0.320035L-0.0799005 0.365662L0.385363 0.18255L0.850627 -0.00056118L0.832669 -0.0461882L0.367406 0.136923ZM0.385363 0.18255L-0.11371 0.152119L-0.116492 0.197746L0.382581 0.228177L0.881654 0.258608L0.884436 0.212981L0.385363 0.18255ZM0.382581 0.228177L-0.0386147 -0.0412559L-0.0634007 -0.0025088L0.357795 0.266924L0.778991 0.536358L0.803777 0.49761L0.382581 0.228177Z" fill="var(--stroke-0, white)" mask="url(#path-1-inside-1_0_233)"/>
</g>
</svg>
