<svg preserveAspectRatio="none" width="100%" height="100%" overflow="visible" style="display: block;" viewBox="0 0 74 72" fill="none" xmlns="http://www.w3.org/2000/svg"><g id="CD"><mask id="path-1-inside-1_0_115" fill="white"><path d="M59 1L59 1L59 1L60 2L60 2L60 2L60 3L60 3L61 3L61 3L61 3L61 3L62 4L62 4L62 4L62 4L63 4L63 4L63 3L64 3L65 3L65 3L65 4L66 4L66 3L67 3L67 3L67 3L68 3L68 4L68 4L69 4L69 5L70 6L71 6L71 6L71 6L71 6L71 6L71 6L71 6L72 6L72 7L72 7L72 7L72 7L72 7L72 8L72 8L72 8L72 9L72 9L72 9L72 9L72 9L72 10L72 10L72 11L72 11L72 11L72 11L72 11L73 12L73 12L73 12L73 12L73 12L73 12L74 12L74 12L74 12L73 13L72 14L70 16L70 16L70 16L70 16L69 17L69 17L68 17L68 17L68 18L68 18L68 19L68 19L68 20L68 20L68 20L68 21L68 21L67 22L67 22L67 23L67 23L67 24L67 24L67 25L67 26L67 26L67 26L67 26L66 26L66 26L66 26L66 27L65 27L65 28L65 28L65 28L65 29L65 29L65 29L64 29L64 30L64 30L64 30L64 30L64 31L65 31L65 31L65 31L65 31L65 32L66 32L66 32L66 33L66 33L66 34L66 34L66 35L66 35L66 36L66 37L66 37L66 38L66 38L66 39L66 39L66 39L66 40L67 41L67 41L67 41L67 42L67 42L67 42L67 43L67 43L67 44L67 44L67 45L68 46L68 46L68 46L69 47L69 47L70 47L70 48L70 48L70 49L70 50L71 50L71 51L72 51L72 52L71 52L70 52L69 52L68 52L67 52L66 53L65 53L64 53L65 53L64 54L64 54L64 54L64 55L64 55L63 55L63 56L62 56L62 56L63 57L63 58L63 58L63 58L63 59L63 60L63 60L63 61L63 61L63 62L63 62L63 63L62 64L62 65L62 65L62 65L63 65L63 66L63 66L63 66L64 67L64 67L65 68L65 68L66 68L66 68L66 68L67 68L67 68L67 68L67 68L67 68L67 67L68 67L68 67L68 67L68 68V68L68 69V70L68 70V71L68 72L68 72L68 72L68 72L67 72L67 72L67 72L67 72L67 72L67 72L66 72L66 72L66 72L65 72L65 72L65 72L64 71L64 71L64 70L64 70L64 70L63 70L63 70L63 70L63 69L63 69L62 69L62 68L62 68L61 68L60 68L60 68L60 68L59 68L59 67L59 67L59 66L58 66L58 65L58 65L58 65L57 65L57 65L57 66L57 66L57 66L57 66L56 66L56 66L56 66L55 66L54 66L54 66L53 66L53 66L53 66L52 66L51 66L51 65L51 65L51 65L51 65L50 64L50 64L51 64L50 64H50L50 64L50 64L49 64L49 64L48 64L48 64L48 64L47 64L47 64L47 64L47 64L47 64L47 63L47 63L46 63L46 63L46 62L46 62L46 62L45 62L45 62L45 62L45 63L45 63L44 63L44 63L43 62L43 63L42 63L42 63L41 63L40 63L40 63L40 63L39 63L39 63L39 63L39 63L39 63L39 63L38 62L39 62L39 62L39 62L39 61L39 60L39 60L39 60L38 59L38 58L38 58L37 57L37 57L37 56L37 54L37 54L37 52L37 52L37 50L37 50L37 49L37 48L37 48L37 48L36 48L35 48L34 48L32 48L32 48L32 48L32 48L32 47L32 47L32 47L31 47L30 47L30 47L29 47L28 48L28 48L28 49L28 49L28 49L28 50L28 50L28 51L27 51H26L26 51L25 51L24 51L24 51L24 51L23 51L22 51L22 51L22 51L22 51L21 51L21 51L20 51L20 51L19 50L19 49L19 49L19 49L18 48L18 48L18 47L18 47L18 46L18 46L17 45L17 45L17 44L17 44L17 44L17 44L17 43L17 43L16 43L16 43L15 43L14 43L12 43L11 43L10 43L9 43L8 43L8 43L7 43L7 43L6 43L6 43L4 43L4 43L4 43L4 43L3 43L3 43L2 43L2 43L2 43L1 43L1 43L1 43L0 43L0 43L0 42L0 42L1 42L1 42L1 42L1 41L1 40L1 40L1 40L1 40L1 40L1 40L2 39L2 39L2 38L3 38L3 38L3 38L3 38L4 38L4 38L4 38L4 38L4 39L4 39L5 39L5 39L5 39L6 38L6 38L6 38L6 38L6 37L6 37L6 37L6 37L6 38H7L7 37L7 37L7 37L8 37L8 37L8 37L8 37L9 37L9 37L8 38L8 38L8 38L8 39L8 39L9 39L9 39L9 39L9 39L9 39L10 39L10 39L10 38L11 37L12 37L12 37L13 36L13 36L13 36L14 36L14 35L15 35L15 34L15 33L16 32L15 30L15 29L16 29L16 28L16 28L17 27L17 27L18 26L18 25L18 25L18 25L19 24L20 24L21 23L21 22L21 21L22 20L22 19L22 18L22 17L22 16L22 15L23 14L23 14L23 13L23 11L24 10L24 9L24 8L25 8L25 7L25 6L25 5L25 5L24 4L25 4L25 4L26 3L26 2L28 1L28 1L29 1L29 1L30 1L30 1L31 2L32 2L32 3L32 3L33 3L33 3L34 3L34 4L35 4L35 4L35 4L36 4L37 4L37 4L39 4L40 4L40 4L40 4L40 3L40 3L41 3L41 2L42 2L42 2L42 2L43 2L43 2L44 2L44 2L45 2L46 2L46 1L47 1L47 1L48 2L49 1L50 1L50 1L50 1L51 0L51 0L52 0L52 0L54 0L56 1L56 1L56 1L57 1L57 0L57 0L58 0L59 1Z"/></mask><path d="M59 1L59 1L59 1L60 2L60 2L60 2L60 3L60 3L61 3L61 3L61 3L61 3L62 4L62 4L62 4L62 4L63 4L63 4L63 3L64 3L65 3L65 3L65 4L66 4L66 3L67 3L67 3L67 3L68 3L68 4L68 4L69 4L69 5L70 6L71 6L71 6L71 6L71 6L71 6L71 6L71 6L72 6L72 7L72 7L72 7L72 7L72 7L72 8L72 8L72 8L72 9L72 9L72 9L72 9L72 9L72 10L72 10L72 11L72 11L72 11L72 11L72 11L73 12L73 12L73 12L73 12L73 12L73 12L74 12L74 12L74 12L73 13L72 14L70 16L70 16L70 16L70 16L69 17L69 17L68 17L68 17L68 18L68 18L68 19L68 19L68 20L68 20L68 20L68 21L68 21L67 22L67 22L67 23L67 23L67 24L67 24L67 25L67 26L67 26L67 26L67 26L66 26L66 26L66 26L66 27L65 27L65 28L65 28L65 28L65 29L65 29L65 29L64 29L64 30L64 30L64 30L64 30L64 31L65 31L65 31L65 31L65 31L65 32L66 32L66 32L66 33L66 33L66 34L66 34L66 35L66 35L66 36L66 37L66 37L66 38L66 38L66 39L66 39L66 39L66 40L67 41L67 41L67 41L67 42L67 42L67 42L67 43L67 43L67 44L67 44L67 45L68 46L68 46L68 46L69 47L69 47L70 47L70 48L70 48L70 49L70 50L71 50L71 51L72 51L72 52L71 52L70 52L69 52L68 52L67 52L66 53L65 53L64 53L65 53L64 54L64 54L64 54L64 55L64 55L63 55L63 56L62 56L62 56L63 57L63 58L63 58L63 58L63 59L63 60L63 60L63 61L63 61L63 62L63 62L63 63L62 64L62 65L62 65L62 65L63 65L63 66L63 66L63 66L64 67L64 67L65 68L65 68L66 68L66 68L66 68L67 68L67 68L67 68L67 68L67 68L67 67L68 67L68 67L68 67L68 68V68L68 69V70L68 70V71L68 72L68 72L68 72L68 72L67 72L67 72L67 72L67 72L67 72L67 72L66 72L66 72L66 72L65 72L65 72L65 72L64 71L64 71L64 70L64 70L64 70L63 70L63 70L63 70L63 69L63 69L62 69L62 68L62 68L61 68L60 68L60 68L60 68L59 68L59 67L59 67L59 66L58 66L58 65L58 65L58 65L57 65L57 65L57 66L57 66L57 66L57 66L56 66L56 66L56 66L55 66L54 66L54 66L53 66L53 66L53 66L52 66L51 66L51 65L51 65L51 65L51 65L50 64L50 64L51 64L50 64H50L50 64L50 64L49 64L49 64L48 64L48 64L48 64L47 64L47 64L47 64L47 64L47 64L47 63L47 63L46 63L46 63L46 62L46 62L46 62L45 62L45 62L45 62L45 63L45 63L44 63L44 63L43 62L43 63L42 63L42 63L41 63L40 63L40 63L40 63L39 63L39 63L39 63L39 63L39 63L39 63L38 62L39 62L39 62L39 62L39 61L39 60L39 60L39 60L38 59L38 58L38 58L37 57L37 57L37 56L37 54L37 54L37 52L37 52L37 50L37 50L37 49L37 48L37 48L37 48L36 48L35 48L34 48L32 48L32 48L32 48L32 48L32 47L32 47L32 47L31 47L30 47L30 47L29 47L28 48L28 48L28 49L28 49L28 49L28 50L28 50L28 51L27 51H26L26 51L25 51L24 51L24 51L24 51L23 51L22 51L22 51L22 51L22 51L21 51L21 51L20 51L20 51L19 50L19 49L19 49L19 49L18 48L18 48L18 47L18 47L18 46L18 46L17 45L17 45L17 44L17 44L17 44L17 44L17 43L17 43L16 43L16 43L15 43L14 43L12 43L11 43L10 43L9 43L8 43L8 43L7 43L7 43L6 43L6 43L4 43L4 43L4 43L4 43L3 43L3 43L2 43L2 43L2 43L1 43L1 43L1 43L0 43L0 43L0 42L0 42L1 42L1 42L1 42L1 41L1 40L1 40L1 40L1 40L1 40L1 40L2 39L2 39L2 38L3 38L3 38L3 38L3 38L4 38L4 38L4 38L4 38L4 39L4 39L5 39L5 39L5 39L6 38L6 38L6 38L6 38L6 37L6 37L6 37L6 37L6 38H7L7 37L7 37L7 37L8 37L8 37L8 37L8 37L9 37L9 37L8 38L8 38L8 38L8 39L8 39L9 39L9 39L9 39L9 39L9 39L10 39L10 39L10 38L11 37L12 37L12 37L13 36L13 36L13 36L14 36L14 35L15 35L15 34L15 33L16 32L15 30L15 29L16 29L16 28L16 28L17 27L17 27L18 26L18 25L18 25L18 25L19 24L20 24L21 23L21 22L21 21L22 20L22 19L22 18L22 17L22 16L22 15L23 14L23 14L23 13L23 11L24 10L24 9L24 8L25 8L25 7L25 6L25 5L25 5L24 4L25 4L25 4L26 3L26 2L28 1L28 1L29 1L29 1L30 1L30 1L31 2L32 2L32 3L32 3L33 3L33 3L34 3L34 4L35 4L35 4L35 4L36 4L37 4L37 4L39 4L40 4L40 4L40 4L40 3L40 3L41 3L41 2L42 2L42 2L42 2L43 2L43 2L44 2L44 2L45 2L46 2L46 1L47 1L47 1L48 2L49 1L50 1L50 1L50 1L51 0L51 0L52 0L52 0L54 0L56 1L56 1L56 1L57 1L57 0L57 0L58 0L59 1Z" fill="var(--fill-0,#71B219)" stroke="var(--stroke-0,white)" mask="url(#path-1-inside-1_0_115)"/></g></svg>