<svg preserveAspectRatio="none" width="100%" height="100%" overflow="visible" style="display: block;" viewBox="0 0 73.59 72.273" fill="none" xmlns="http://www.w3.org/2000/svg">
<g id="CD">
<mask id="path-1-inside-1_0_115" fill="white">
<path d="M58.6444 0.779097L58.7847 1.04796L58.9843 1.32365L59.6528 1.79001L59.8646 2.04925L60.0284 2.33733L60.1316 2.56229L60.3379 2.74195L60.6268 2.85719L60.8744 2.99436L61.0258 3.19596L61.2528 3.40585L61.6902 3.69116L61.9035 3.69803L62.1497 3.7378L62.3671 3.81323L62.5996 3.79129L62.9751 3.60472L63.4181 3.29199L63.7565 3.0986L64.575 3.16716L65.0318 3.32493L65.3949 3.54574L65.6783 3.53206L66.2961 3.12329L66.6234 2.68845L66.9413 2.59519L67.4227 2.78448L67.8203 3.19048L68.1698 3.78033L68.4159 4.00528L68.7531 4.35368L69.423 5.10398L70.2952 5.4798L70.6336 5.66498L70.7436 5.85017L70.8083 6.09706L70.8303 6.36455L70.9363 6.47564L71.1715 6.43722L71.3724 6.39883L71.5938 6.47564L71.7479 6.67042L71.825 6.82266L71.9088 6.98587L72.1276 7.09015L72.1702 7.29999L72.0203 7.55513L71.8662 7.78418L71.6791 8.23958L71.5815 8.70594L71.708 8.86095L71.8415 8.98988L71.913 9.12018L71.9556 9.27247L71.9391 9.45079L71.642 10.0982L71.4893 10.6633L71.4838 10.95L71.8758 11.1612L72.3848 11.1503L72.5458 11.2792L72.7068 11.4849L72.8485 11.5906L73.0631 11.5878L73.2116 11.6592L73.2708 11.8045L73.4441 11.9609L73.59 12.1338L73.5198 12.3546L73.5075 12.5233L73.1442 12.9924L72.3106 13.9073L70.5167 15.6041L70.5153 15.6055L69.9099 15.8098L69.5977 16.1253L69.3762 16.6205L68.8535 17.0402L68.4504 17.2103L68.4077 17.3104L68.3761 17.7658L68.4174 18.4338L68.2289 18.7397L67.9551 19.335L67.8134 19.7067L67.7034 19.7794L67.5809 19.966L67.5039 20.5722L67.4516 20.7766L67.2549 22.0317L67.3113 22.3897L67.1586 22.9864L67.1518 23.3375L67.0885 23.7353L66.9798 24.0796L66.9866 24.631L67.0486 25.5308L67.0376 25.6502L66.8862 25.7338L66.6166 25.9574L66.3621 26.1069L66.1681 26.1453L65.8448 26.5431L65.5697 26.9203L65.3633 27.2879L65.3096 27.4566L65.3523 27.9326L65.3812 28.4963L65.318 28.7391L65.2216 28.8832L64.7704 29.189L64.4733 29.4085L64.3329 29.5237L64.26 29.7006L64.3907 30.1177L64.4004 30.4221L64.5076 30.6019L64.8653 30.7472L64.8639 30.894L64.8736 31.0518L65.0607 31.2479L65.4018 31.6484L65.6756 32.0243L65.6824 32.3507L65.6302 32.8967L65.6206 33.2108L65.6481 33.6415L65.6467 34.4425L65.6274 35.0131L65.6714 35.3094L66.0897 36.0158L66.2741 36.799L66.3662 37.3724L66.3703 37.5548L66.2286 38.2146L66.0677 38.8552L66.058 39.0979L66.1337 39.4216L66.4323 40.1624L66.6496 40.7014L66.7542 41.0265L66.9041 41.4051L67.1036 41.9853L67.1531 42.261L67.1118 42.4667L66.7046 43.1951L66.6633 43.4242L66.7638 43.9893L66.8972 44.5352L67.0898 44.8452L67.5493 45.7011L67.8918 45.9906L68.5233 46.4185L69.0805 46.8492L69.2951 47.0728L69.4918 47.3225L69.8797 47.9617L70.1163 48.4815L70.2415 48.952L70.5456 49.5953L70.829 50.192L71.1949 50.9217L71.4535 51.4375L71.5705 51.7817L70.9018 51.8846L69.9347 52.0314L68.8686 52.1946L67.7681 52.362L66.6771 52.5293L65.6426 52.6871L64.703 52.8297L64.4168 52.9092L64.5571 53.3152L64.4925 53.7418L64.3068 54.0724L64.0124 54.4784L63.8789 54.6403L63.579 54.9572L63.3286 55.1807L62.8183 55.5565L62.4964 55.7719L62.4936 55.9667L63.0357 56.8775L63.2819 57.5318L63.3823 58.1229L63.3768 58.4631L63.3562 59.1627L63.3314 59.9953L63.2943 60.3231L63.4415 60.917L63.4154 61.3806L63.0508 61.8992L62.9489 62.408L62.7646 63.0952L62.5101 64.0499L62.3285 64.5519L62.4289 64.8784L62.5198 65.0979L62.616 65.3928L62.8114 65.8372L63.0398 66.0992L63.1677 66.2117L63.9188 66.7727L64.2311 67.0429L64.7071 67.5806L65.0593 67.9372L65.549 68.0209L66.1364 68.1553L66.4611 68.2596L66.684 68.2088L66.7596 68.0826L66.7486 67.8138L66.7101 67.6163L66.7721 67.464L66.9715 67.3638L67.4819 67.3474L67.7034 67.213L67.8795 67.18L67.8808 67.7699V68.335L67.8822 69.0222V69.8109L67.8836 70.4583V71.1469L67.8849 71.9425L67.8808 72.0316L67.8024 72.2113L67.6002 72.2731L67.3264 72.118L67.31 71.9548L67.2425 71.6626L67.116 71.5131L66.9495 71.4665L66.6689 71.542L66.2836 71.7573L65.7898 71.9466L65.5889 72.055L65.2409 72.0412L64.8639 71.9384L64.5874 71.6956L64.5076 71.3321L64.2642 70.959L63.9339 70.4186L63.7675 70.1977L63.5474 69.9453L63.3245 69.9165L63.0756 69.8466L62.9228 69.4776L62.7798 69.0112L62.6918 68.8315L62.5431 68.5997L62.3299 68.4584L61.8649 68.2719L61.2156 68.0127L60.3984 67.6862L60.0105 67.6698L59.5758 67.6149L59.3034 67.4599L59.1479 67.3364L58.9691 66.8838L58.7242 66.3543L58.0075 65.7247L57.8465 65.0279L57.7021 64.9278L57.4558 64.984L57.266 65.0704L57.1903 65.2583L56.9991 65.8866L56.8932 66.176L56.8216 66.2569L56.6648 66.3502L56.4089 66.4352L56.0444 66.4778L55.5298 66.4613L54.8861 66.368L54.5394 66.2981L53.5998 66.1938L53.3274 66.1431L52.9436 66.0059L52.667 65.8687L51.7563 65.5725L51.3423 65.6081L51.1428 65.3983L50.9626 65.2954L50.7149 65.0979L50.6049 64.8276L50.4577 64.2474L50.4935 63.9374L50.5994 63.5918L50.481 63.4957H50.316L50.0794 63.6151L49.6598 63.6823L48.8907 63.8346L48.6184 63.9196L48.3171 63.9855L48.086 64.0444L47.5082 64.3777L47.3073 64.4134L46.9648 64.2941L46.7997 64.1158L46.9648 63.9141L47.0349 63.6631L46.918 63.1734L46.7405 62.9471L46.2288 62.7853L46.032 62.7701L45.9495 62.4958L45.8079 62.2462L45.5162 62.1982L45.3759 62.1694L45.23 62.2462L45.1475 62.4478L45.1241 62.6028L44.8641 62.7208L44.3331 62.6975L43.8062 62.585L43.4362 62.5479L43.1899 62.5767L42.2489 62.9594L41.9394 63.0102L40.9296 62.9814L40.3573 62.9005L39.9502 62.8867L39.6612 63.0061L39.3008 63.29L38.9995 63.4423L38.8606 63.4258L38.7753 63.3065L38.657 63.1446L38.6198 62.7166L38.4699 62.2489L38.5689 62.0034L38.8661 61.8278L38.9693 61.4657L38.8771 60.9225L38.8716 60.5412L38.9514 60.3204L38.8441 59.7854L38.5469 58.9364L38.1273 58.2464L37.5853 57.7128L37.2304 57.2039L37.0626 56.717L37.1258 55.5524L37.2895 54.5278L37.4188 53.7144L37.3817 52.3523L37.0144 51.4663L36.9346 50.5143L37.1423 49.4965L37.1726 48.7997L37.035 48.4431L36.9415 48.3896L36.8232 48.354L35.8946 48.3196L34.6578 48.2744L33.5793 48.2607L32.4086 48.247L32.2173 48.118L32.1307 47.8807L32.1348 47.6462L32.3742 46.9274L32.3398 46.8684L31.9243 46.8533L30.7963 46.97L30.052 47.0852L29.5801 47.1236L28.7506 47.3197L28.2374 47.7339L28.0696 48.2538L28.0834 48.6832L28.0545 48.9973L27.8206 49.3251L27.6363 49.7023L27.6295 49.9012L27.5166 50.9052L26.7518 51.0397H25.9868L25.808 51.0273L24.8629 50.7873L24.5121 50.7859L24.2122 50.9121L23.633 51.0356L23.08 51.1261L22.5228 51.4237L22.3743 51.4498L22.0042 51.2948L21.4869 51.3099L20.9628 51.384L20.7179 51.4169L20.5487 51.3264L20.0673 50.5774L19.4262 49.5802L19.0781 48.9547L18.9488 48.7915L18.7259 48.5762L18.4205 48.1688L18.294 47.782L18.3476 47.4157L18.1688 46.9219L17.7574 46.3006L17.4864 45.708L17.3571 45.1415L17.3254 44.6587L17.3901 44.2554L17.3117 43.9591L17.0875 43.7685L16.9664 43.5257L16.8784 43.4255L16.6927 43.1965L16.2841 42.9441L15.8356 42.811L14.8506 42.8083L13.5644 42.8042L12.3991 42.8234L11.1032 42.8453L9.79078 42.8673L9.43728 42.9002L8.43574 42.9153L7.6337 42.8508L7.33654 42.8097L6.81377 42.7781L5.98839 42.7713L5.54127 42.796L4.47096 42.7973L4.37331 42.8028L4.20412 42.8741L3.74739 42.7754L3.29889 42.8083L3.04854 42.6986L2.49823 42.7671L2.23135 42.8577L1.80354 43.1773L1.16108 43.3433L0.923077 43.3295L0.764885 43.276L0.392078 42.9249L0.103152 42.5875L0 42.3996L0.160962 42.3529L0.665806 42.2816L1.0455 42.2473L1.11981 42.1581L1.17758 41.1157L1.19135 40.0581L1.0565 39.9182L0.924462 39.8332L0.918962 39.7605L1.11569 39.6274L1.38942 39.4724L1.4775 39.4025L1.78011 39.1226L2.37858 38.4752L2.83393 38.3161L3.25762 38.146L3.31677 38.0843L3.3732 37.9581L3.56304 37.9677L3.62358 38.028L3.71712 38.1652L3.88358 38.3572L4.18481 38.585L4.4875 38.8305L4.63881 38.862L4.88231 38.7372L5.16569 38.552L5.58258 38.4176L5.68158 38.2914L5.73523 38.0212L5.76823 37.7331L5.804 37.393L5.88931 37.3463L6.03927 37.3134L6.31577 37.4094L6.44239 37.5096H6.66935L6.81377 37.419L7.07793 37.2517L7.41362 37.1845L7.77266 37.0226L8.11793 36.8169L8.28032 36.7977L8.45228 37.0679L8.60636 37.2558L8.63381 37.3738L8.47974 37.5987L8.30777 37.895L8.45228 38.264L8.48662 38.622L8.48251 38.8387L8.59947 38.9265L8.67924 38.9676L8.80309 38.9169L9.04928 38.932L9.34509 39.0444L9.62981 39.0321L9.90497 38.8936L10.4181 38.3559L11.1679 37.4176L11.7897 36.8292L12.2808 36.5892L12.6137 36.3094L12.7884 35.987L13.0746 35.7689L13.6717 35.5947L14.1256 35.3972L14.5796 34.7539L15.1849 33.5962L15.3541 32.5633L15.4573 31.9351L15.3981 29.7693L15.3582 29.0587L15.4504 28.6719L15.676 28.4058L16.2923 27.8421L16.7064 27.3798L17.0228 26.8394L17.6295 25.6062L17.8964 25.2085L18.0161 25.0301L18.382 24.7023L18.8952 24.4129L19.5555 24.1646L20.5748 23.306L21.3852 22.4418L21.2751 21.4035L21.4649 20.5421L21.9065 19.4475L22.0509 18.2884L21.8996 17.0662L21.9629 16.0663L22.3866 14.9045L22.5627 14.4724L22.6219 13.766L22.6191 12.6427L23.157 11.1064L23.666 10.1846L24.2356 9.15585L24.4529 8.53314L24.7419 7.70189L24.6964 7.03389L24.6441 6.26576L24.7872 5.20959L24.7336 4.58822L24.5314 4.04777L24.6346 3.70623L25.0431 3.56772L25.5521 3.02727L26.4656 1.61583L27.4506 0.927239L28.1357 0.709149L28.8496 0.732465L29.316 0.855909L29.5306 1.07814L30.0713 1.41143L30.9352 1.85176L31.5818 2.40318L31.9395 2.9587L32.2173 3.26047L32.5613 3.3647L33.1239 3.31945L33.7526 3.44976L34.4075 3.76111L34.8105 3.87631L34.9592 3.7954L35.2755 3.84065L35.9992 4.09578L36.5756 3.95589L37.4298 4.0615L39.4136 4.51689L39.5196 4.44008L39.5663 4.42225L39.7355 4.23844L40.1661 3.32627L40.5307 2.76527L40.7012 2.55404L41.1222 2.25776L41.6175 2.18232L42.0921 2.20836L42.4897 2.33867L42.8528 2.48958L43.2545 2.49096L43.6659 2.34554L44.2767 2.07809L44.9205 1.90387L45.4735 1.71182L46.3843 1.37577L46.7405 1.2208L47.1931 1.16044L48.4616 1.46769L49.2829 1.26467L49.6185 1.32365L50.3297 1.10556L50.459 0.958801L50.9116 0.216709L51.3932 0L52.1222 0.109715L52.5322 0.224955L53.8969 0.541793L55.6688 0.87236L56.1902 0.923136L56.4021 0.960182L56.5864 0.908025L57.1683 0.491059L57.3651 0.432078L57.5315 0.438943L58.6444 0.779097Z"/>
</mask>
<path d="M58.6444 0.779097L58.7847 1.04796L58.9843 1.32365L59.6528 1.79001L59.8646 2.04925L60.0284 2.33733L60.1316 2.56229L60.3379 2.74195L60.6268 2.85719L60.8744 2.99436L61.0258 3.19596L61.2528 3.40585L61.6902 3.69116L61.9035 3.69803L62.1497 3.7378L62.3671 3.81323L62.5996 3.79129L62.9751 3.60472L63.4181 3.29199L63.7565 3.0986L64.575 3.16716L65.0318 3.32493L65.3949 3.54574L65.6783 3.53206L66.2961 3.12329L66.6234 2.68845L66.9413 2.59519L67.4227 2.78448L67.8203 3.19048L68.1698 3.78033L68.4159 4.00528L68.7531 4.35368L69.423 5.10398L70.2952 5.4798L70.6336 5.66498L70.7436 5.85017L70.8083 6.09706L70.8303 6.36455L70.9363 6.47564L71.1715 6.43722L71.3724 6.39883L71.5938 6.47564L71.7479 6.67042L71.825 6.82266L71.9088 6.98587L72.1276 7.09015L72.1702 7.29999L72.0203 7.55513L71.8662 7.78418L71.6791 8.23958L71.5815 8.70594L71.708 8.86095L71.8415 8.98988L71.913 9.12018L71.9556 9.27247L71.9391 9.45079L71.642 10.0982L71.4893 10.6633L71.4838 10.95L71.8758 11.1612L72.3848 11.1503L72.5458 11.2792L72.7068 11.4849L72.8485 11.5906L73.0631 11.5878L73.2116 11.6592L73.2708 11.8045L73.4441 11.9609L73.59 12.1338L73.5198 12.3546L73.5075 12.5233L73.1442 12.9924L72.3106 13.9073L70.5167 15.6041L70.5153 15.6055L69.9099 15.8098L69.5977 16.1253L69.3762 16.6205L68.8535 17.0402L68.4504 17.2103L68.4077 17.3104L68.3761 17.7658L68.4174 18.4338L68.2289 18.7397L67.9551 19.335L67.8134 19.7067L67.7034 19.7794L67.5809 19.966L67.5039 20.5722L67.4516 20.7766L67.2549 22.0317L67.3113 22.3897L67.1586 22.9864L67.1518 23.3375L67.0885 23.7353L66.9798 24.0796L66.9866 24.631L67.0486 25.5308L67.0376 25.6502L66.8862 25.7338L66.6166 25.9574L66.3621 26.1069L66.1681 26.1453L65.8448 26.5431L65.5697 26.9203L65.3633 27.2879L65.3096 27.4566L65.3523 27.9326L65.3812 28.4963L65.318 28.7391L65.2216 28.8832L64.7704 29.189L64.4733 29.4085L64.3329 29.5237L64.26 29.7006L64.3907 30.1177L64.4004 30.4221L64.5076 30.6019L64.8653 30.7472L64.8639 30.894L64.8736 31.0518L65.0607 31.2479L65.4018 31.6484L65.6756 32.0243L65.6824 32.3507L65.6302 32.8967L65.6206 33.2108L65.6481 33.6415L65.6467 34.4425L65.6274 35.0131L65.6714 35.3094L66.0897 36.0158L66.2741 36.799L66.3662 37.3724L66.3703 37.5548L66.2286 38.2146L66.0677 38.8552L66.058 39.0979L66.1337 39.4216L66.4323 40.1624L66.6496 40.7014L66.7542 41.0265L66.9041 41.4051L67.1036 41.9853L67.1531 42.261L67.1118 42.4667L66.7046 43.1951L66.6633 43.4242L66.7638 43.9893L66.8972 44.5352L67.0898 44.8452L67.5493 45.7011L67.8918 45.9906L68.5233 46.4185L69.0805 46.8492L69.2951 47.0728L69.4918 47.3225L69.8797 47.9617L70.1163 48.4815L70.2415 48.952L70.5456 49.5953L70.829 50.192L71.1949 50.9217L71.4535 51.4375L71.5705 51.7817L70.9018 51.8846L69.9347 52.0314L68.8686 52.1946L67.7681 52.362L66.6771 52.5293L65.6426 52.6871L64.703 52.8297L64.4168 52.9092L64.5571 53.3152L64.4925 53.7418L64.3068 54.0724L64.0124 54.4784L63.8789 54.6403L63.579 54.9572L63.3286 55.1807L62.8183 55.5565L62.4964 55.7719L62.4936 55.9667L63.0357 56.8775L63.2819 57.5318L63.3823 58.1229L63.3768 58.4631L63.3562 59.1627L63.3314 59.9953L63.2943 60.3231L63.4415 60.917L63.4154 61.3806L63.0508 61.8992L62.9489 62.408L62.7646 63.0952L62.5101 64.0499L62.3285 64.5519L62.4289 64.8784L62.5198 65.0979L62.616 65.3928L62.8114 65.8372L63.0398 66.0992L63.1677 66.2117L63.9188 66.7727L64.2311 67.0429L64.7071 67.5806L65.0593 67.9372L65.549 68.0209L66.1364 68.1553L66.4611 68.2596L66.684 68.2088L66.7596 68.0826L66.7486 67.8138L66.7101 67.6163L66.7721 67.464L66.9715 67.3638L67.4819 67.3474L67.7034 67.213L67.8795 67.18L67.8808 67.7699V68.335L67.8822 69.0222V69.8109L67.8836 70.4583V71.1469L67.8849 71.9425L67.8808 72.0316L67.8024 72.2113L67.6002 72.2731L67.3264 72.118L67.31 71.9548L67.2425 71.6626L67.116 71.5131L66.9495 71.4665L66.6689 71.542L66.2836 71.7573L65.7898 71.9466L65.5889 72.055L65.2409 72.0412L64.8639 71.9384L64.5874 71.6956L64.5076 71.3321L64.2642 70.959L63.9339 70.4186L63.7675 70.1977L63.5474 69.9453L63.3245 69.9165L63.0756 69.8466L62.9228 69.4776L62.7798 69.0112L62.6918 68.8315L62.5431 68.5997L62.3299 68.4584L61.8649 68.2719L61.2156 68.0127L60.3984 67.6862L60.0105 67.6698L59.5758 67.6149L59.3034 67.4599L59.1479 67.3364L58.9691 66.8838L58.7242 66.3543L58.0075 65.7247L57.8465 65.0279L57.7021 64.9278L57.4558 64.984L57.266 65.0704L57.1903 65.2583L56.9991 65.8866L56.8932 66.176L56.8216 66.2569L56.6648 66.3502L56.4089 66.4352L56.0444 66.4778L55.5298 66.4613L54.8861 66.368L54.5394 66.2981L53.5998 66.1938L53.3274 66.1431L52.9436 66.0059L52.667 65.8687L51.7563 65.5725L51.3423 65.6081L51.1428 65.3983L50.9626 65.2954L50.7149 65.0979L50.6049 64.8276L50.4577 64.2474L50.4935 63.9374L50.5994 63.5918L50.481 63.4957H50.316L50.0794 63.6151L49.6598 63.6823L48.8907 63.8346L48.6184 63.9196L48.3171 63.9855L48.086 64.0444L47.5082 64.3777L47.3073 64.4134L46.9648 64.2941L46.7997 64.1158L46.9648 63.9141L47.0349 63.6631L46.918 63.1734L46.7405 62.9471L46.2288 62.7853L46.032 62.7701L45.9495 62.4958L45.8079 62.2462L45.5162 62.1982L45.3759 62.1694L45.23 62.2462L45.1475 62.4478L45.1241 62.6028L44.8641 62.7208L44.3331 62.6975L43.8062 62.585L43.4362 62.5479L43.1899 62.5767L42.2489 62.9594L41.9394 63.0102L40.9296 62.9814L40.3573 62.9005L39.9502 62.8867L39.6612 63.0061L39.3008 63.29L38.9995 63.4423L38.8606 63.4258L38.7753 63.3065L38.657 63.1446L38.6198 62.7166L38.4699 62.2489L38.5689 62.0034L38.8661 61.8278L38.9693 61.4657L38.8771 60.9225L38.8716 60.5412L38.9514 60.3204L38.8441 59.7854L38.5469 58.9364L38.1273 58.2464L37.5853 57.7128L37.2304 57.2039L37.0626 56.717L37.1258 55.5524L37.2895 54.5278L37.4188 53.7144L37.3817 52.3523L37.0144 51.4663L36.9346 50.5143L37.1423 49.4965L37.1726 48.7997L37.035 48.4431L36.9415 48.3896L36.8232 48.354L35.8946 48.3196L34.6578 48.2744L33.5793 48.2607L32.4086 48.247L32.2173 48.118L32.1307 47.8807L32.1348 47.6462L32.3742 46.9274L32.3398 46.8684L31.9243 46.8533L30.7963 46.97L30.052 47.0852L29.5801 47.1236L28.7506 47.3197L28.2374 47.7339L28.0696 48.2538L28.0834 48.6832L28.0545 48.9973L27.8206 49.3251L27.6363 49.7023L27.6295 49.9012L27.5166 50.9052L26.7518 51.0397H25.9868L25.808 51.0273L24.8629 50.7873L24.5121 50.7859L24.2122 50.9121L23.633 51.0356L23.08 51.1261L22.5228 51.4237L22.3743 51.4498L22.0042 51.2948L21.4869 51.3099L20.9628 51.384L20.7179 51.4169L20.5487 51.3264L20.0673 50.5774L19.4262 49.5802L19.0781 48.9547L18.9488 48.7915L18.7259 48.5762L18.4205 48.1688L18.294 47.782L18.3476 47.4157L18.1688 46.9219L17.7574 46.3006L17.4864 45.708L17.3571 45.1415L17.3254 44.6587L17.3901 44.2554L17.3117 43.9591L17.0875 43.7685L16.9664 43.5257L16.8784 43.4255L16.6927 43.1965L16.2841 42.9441L15.8356 42.811L14.8506 42.8083L13.5644 42.8042L12.3991 42.8234L11.1032 42.8453L9.79078 42.8673L9.43728 42.9002L8.43574 42.9153L7.6337 42.8508L7.33654 42.8097L6.81377 42.7781L5.98839 42.7713L5.54127 42.796L4.47096 42.7973L4.37331 42.8028L4.20412 42.8741L3.74739 42.7754L3.29889 42.8083L3.04854 42.6986L2.49823 42.7671L2.23135 42.8577L1.80354 43.1773L1.16108 43.3433L0.923077 43.3295L0.764885 43.276L0.392078 42.9249L0.103152 42.5875L0 42.3996L0.160962 42.3529L0.665806 42.2816L1.0455 42.2473L1.11981 42.1581L1.17758 41.1157L1.19135 40.0581L1.0565 39.9182L0.924462 39.8332L0.918962 39.7605L1.11569 39.6274L1.38942 39.4724L1.4775 39.4025L1.78011 39.1226L2.37858 38.4752L2.83393 38.3161L3.25762 38.146L3.31677 38.0843L3.3732 37.9581L3.56304 37.9677L3.62358 38.028L3.71712 38.1652L3.88358 38.3572L4.18481 38.585L4.4875 38.8305L4.63881 38.862L4.88231 38.7372L5.16569 38.552L5.58258 38.4176L5.68158 38.2914L5.73523 38.0212L5.76823 37.7331L5.804 37.393L5.88931 37.3463L6.03927 37.3134L6.31577 37.4094L6.44239 37.5096H6.66935L6.81377 37.419L7.07793 37.2517L7.41362 37.1845L7.77266 37.0226L8.11793 36.8169L8.28032 36.7977L8.45228 37.0679L8.60636 37.2558L8.63381 37.3738L8.47974 37.5987L8.30777 37.895L8.45228 38.264L8.48662 38.622L8.48251 38.8387L8.59947 38.9265L8.67924 38.9676L8.80309 38.9169L9.04928 38.932L9.34509 39.0444L9.62981 39.0321L9.90497 38.8936L10.4181 38.3559L11.1679 37.4176L11.7897 36.8292L12.2808 36.5892L12.6137 36.3094L12.7884 35.987L13.0746 35.7689L13.6717 35.5947L14.1256 35.3972L14.5796 34.7539L15.1849 33.5962L15.3541 32.5633L15.4573 31.9351L15.3981 29.7693L15.3582 29.0587L15.4504 28.6719L15.676 28.4058L16.2923 27.8421L16.7064 27.3798L17.0228 26.8394L17.6295 25.6062L17.8964 25.2085L18.0161 25.0301L18.382 24.7023L18.8952 24.4129L19.5555 24.1646L20.5748 23.306L21.3852 22.4418L21.2751 21.4035L21.4649 20.5421L21.9065 19.4475L22.0509 18.2884L21.8996 17.0662L21.9629 16.0663L22.3866 14.9045L22.5627 14.4724L22.6219 13.766L22.6191 12.6427L23.157 11.1064L23.666 10.1846L24.2356 9.15585L24.4529 8.53314L24.7419 7.70189L24.6964 7.03389L24.6441 6.26576L24.7872 5.20959L24.7336 4.58822L24.5314 4.04777L24.6346 3.70623L25.0431 3.56772L25.5521 3.02727L26.4656 1.61583L27.4506 0.927239L28.1357 0.709149L28.8496 0.732465L29.316 0.855909L29.5306 1.07814L30.0713 1.41143L30.9352 1.85176L31.5818 2.40318L31.9395 2.9587L32.2173 3.26047L32.5613 3.3647L33.1239 3.31945L33.7526 3.44976L34.4075 3.76111L34.8105 3.87631L34.9592 3.7954L35.2755 3.84065L35.9992 4.09578L36.5756 3.95589L37.4298 4.0615L39.4136 4.51689L39.5196 4.44008L39.5663 4.42225L39.7355 4.23844L40.1661 3.32627L40.5307 2.76527L40.7012 2.55404L41.1222 2.25776L41.6175 2.18232L42.0921 2.20836L42.4897 2.33867L42.8528 2.48958L43.2545 2.49096L43.6659 2.34554L44.2767 2.07809L44.9205 1.90387L45.4735 1.71182L46.3843 1.37577L46.7405 1.2208L47.1931 1.16044L48.4616 1.46769L49.2829 1.26467L49.6185 1.32365L50.3297 1.10556L50.459 0.958801L50.9116 0.216709L51.3932 0L52.1222 0.109715L52.5322 0.224955L53.8969 0.541793L55.6688 0.87236L56.1902 0.923136L56.4021 0.960182L56.5864 0.908025L57.1683 0.491059L57.3651 0.432078L57.5315 0.438943L58.6444 0.779097Z" fill="var(--fill-0, #71B219)" stroke="var(--stroke-0, white)" mask="url(#path-1-inside-1_0_115)"/>
</g>
</svg>
