<svg preserveAspectRatio="none" width="100%" height="100%" overflow="visible" style="display: block;" viewBox="0 0 50 34" fill="none" xmlns="http://www.w3.org/2000/svg"><g id="CF"><mask id="path-1-inside-1_0_51" fill="white"><path d="M32 0L33 1L33 1L34 2L34 2L35 3L35 4L36 5L36 5L36 5L36 6L35 7L35 7L35 8L35 8L35 8L35 8L35 8L35 9L36 9L37 9L37 9L38 9L38 9L38 9L38 10L38 10L38 10L38 11L39 11L40 11L40 11L41 12L42 12L42 13L42 13L42 13L42 14L42 14L42 14L43 15L44 15L45 16L45 16L45 16L46 17L46 17L46 18L46 18L46 18L46 18L46 19L47 19L47 19L48 19L48 20L48 20L49 20L49 20L49 21L49 21L49 21L49 22L50 22L50 22L50 23L49 22L49 22L49 22L48 23L48 23L48 23L47 23L45 22L44 22L44 22L43 22L42 22L42 23L42 23L41 23L41 23L40 23L39 23L38 23L38 23L37 24L36 24L36 24L35 24L35 24L34 24L34 24L34 24L33 24L33 24L32 24L32 25L32 25L31 26L31 26L31 26L31 26L29 26L28 26L27 26L27 26L26 26L26 26L26 26L25 25L25 25L24 25L24 25L23 25L23 24L22 24L22 23L21 23L21 23L20 23L20 23L19 23L18 24L17 25L16 26L16 26L16 26L16 27L16 27L16 28L16 29L16 29L16 28L16 28L15 29L15 29L14 29L14 29L14 29L14 29L14 29L14 29L13 29L13 29L13 29L12 28L12 28L12 28L11 28L11 28L10 29L9 29L9 29L8 29L8 29L8 29L8 30L8 30L8 30L8 31L8 31L8 32L8 32L7 33L7 33L7 34L7 33L6 33L6 32L6 32L6 32L6 32L6 32L6 31L6 31L6 31L6 31L6 30L6 30L6 30L5 30L5 30L4 30L4 29L4 29L3 28L3 28L2 27L2 27L2 27L3 27L3 27L3 27L2 26L2 26L2 26L2 25L1 25L1 25L1 24L1 23L1 22L1 22L1 22L0 22L0 22L1 22L1 22L1 21V20L1 20L1 20L0 20L0 20L0 19L0 19L0 19L0 19L0 19L0 19L1 18L1 18L1 18L1 18L2 17L2 16L2 16L2 16L3 15L3 15L3 15L3 14L4 14L4 14L4 14L5 14L6 14L6 14L6 13L7 13L8 13L8 12L8 12L8 12L8 12L8 12L8 13L9 13L9 13L9 13L10 13L10 13L10 13L11 12L12 12L12 12L12 12L12 12L13 12L14 12L15 12L16 12L16 11L16 11L16 11L16 11L17 11L17 10L18 10L18 9L18 9L18 9L18 9L18 9L17 8L17 8L17 8L17 8L18 8L18 8L18 8L19 8L20 8L20 8L21 8L21 8L22 7L23 7L24 7L24 7L24 6L24 6L24 6L25 6L25 5L25 5L26 4L27 4L27 4L27 3L27 3L28 3L28 3L28 3L28 2L28 2L28 2V2L28 2L28 1L29 1L29 1L29 1L30 1L30 1L30 1L30 0L31 0L31 0L32 0L32 0L32 0L32 0Z"/></mask><path d="M32 0L33 1L33 1L34 2L34 2L35 3L35 4L36 5L36 5L36 5L36 6L35 7L35 7L35 8L35 8L35 8L35 8L35 8L35 9L36 9L37 9L37 9L38 9L38 9L38 9L38 10L38 10L38 10L38 11L39 11L40 11L40 11L41 12L42 12L42 13L42 13L42 13L42 14L42 14L42 14L43 15L44 15L45 16L45 16L45 16L46 17L46 17L46 18L46 18L46 18L46 18L46 19L47 19L47 19L48 19L48 20L48 20L49 20L49 20L49 21L49 21L49 21L49 22L50 22L50 22L50 23L49 22L49 22L49 22L48 23L48 23L48 23L47 23L45 22L44 22L44 22L43 22L42 22L42 23L42 23L41 23L41 23L40 23L39 23L38 23L38 23L37 24L36 24L36 24L35 24L35 24L34 24L34 24L34 24L33 24L33 24L32 24L32 25L32 25L31 26L31 26L31 26L31 26L29 26L28 26L27 26L27 26L26 26L26 26L26 26L25 25L25 25L24 25L24 25L23 25L23 24L22 24L22 23L21 23L21 23L20 23L20 23L19 23L18 24L17 25L16 26L16 26L16 26L16 27L16 27L16 28L16 29L16 29L16 28L16 28L15 29L15 29L14 29L14 29L14 29L14 29L14 29L14 29L13 29L13 29L13 29L12 28L12 28L12 28L11 28L11 28L10 29L9 29L9 29L8 29L8 29L8 29L8 30L8 30L8 30L8 31L8 31L8 32L8 32L7 33L7 33L7 34L7 33L6 33L6 32L6 32L6 32L6 32L6 32L6 31L6 31L6 31L6 31L6 30L6 30L6 30L5 30L5 30L4 30L4 29L4 29L3 28L3 28L2 27L2 27L2 27L3 27L3 27L3 27L2 26L2 26L2 26L2 25L1 25L1 25L1 24L1 23L1 22L1 22L1 22L0 22L0 22L1 22L1 22L1 21V20L1 20L1 20L0 20L0 20L0 19L0 19L0 19L0 19L0 19L0 19L1 18L1 18L1 18L1 18L2 17L2 16L2 16L2 16L3 15L3 15L3 15L3 14L4 14L4 14L4 14L5 14L6 14L6 14L6 13L7 13L8 13L8 12L8 12L8 12L8 12L8 12L8 13L9 13L9 13L9 13L10 13L10 13L10 13L11 12L12 12L12 12L12 12L12 12L13 12L14 12L15 12L16 12L16 11L16 11L16 11L16 11L17 11L17 10L18 10L18 9L18 9L18 9L18 9L18 9L17 8L17 8L17 8L17 8L18 8L18 8L18 8L19 8L20 8L20 8L21 8L21 8L22 7L23 7L24 7L24 7L24 6L24 6L24 6L25 6L25 5L25 5L26 4L27 4L27 4L27 3L27 3L28 3L28 3L28 3L28 2L28 2L28 2V2L28 2L28 1L29 1L29 1L29 1L30 1L30 1L30 1L30 0L31 0L31 0L32 0L32 0L32 0L32 0Z" fill="var(--fill-0,#71B219)" stroke="var(--stroke-0,white)" mask="url(#path-1-inside-1_0_51)"/></g></svg>