<svg preserveAspectRatio="none" width="100%" height="100%" overflow="visible" style="display: block;" viewBox="0 0 50.0835 33.6277" fill="none" xmlns="http://www.w3.org/2000/svg">
<g id="CF">
<mask id="path-1-inside-1_0_51" fill="white">
<path d="M32.5434 0.297624L32.8158 0.781817L32.9464 0.951936L34.0718 2.09588L34.2891 2.36747L34.8463 3.19734L35.1875 3.75697L35.5795 4.56214L35.6167 4.99971L35.5658 5.3728L35.4874 6.43311L35.3856 6.7376L34.8917 7.30824L34.8697 7.56471L34.9729 7.7787L35.1214 7.86648L35.215 7.97209L35.1586 8.46591L35.336 8.65931L35.7061 8.78824L36.643 8.87602L37.13 8.94735L37.5138 9.04613L37.6967 9.09415L37.7971 9.26833L37.6404 9.83758L37.749 10.1928L38.0695 10.4932L38.3942 10.6208L38.7051 10.6949L39.7891 10.88L40.239 11.0885L40.8333 11.7551L41.579 12.3614L41.7606 12.6824L41.7275 12.9746L41.5061 13.3284L41.5404 13.4739L41.883 13.8291L42.275 14.1912L42.9932 14.5945L44.2368 15.2268L44.8077 15.6493L45.0016 15.9689L45.3208 16.3173L45.7651 16.6355L46.0637 16.8811L45.8573 17.5738L45.9193 17.8015L46.0307 17.999L46.2907 18.2719L46.3939 18.6217L46.6512 19.0593L46.9579 19.2582L47.4711 19.3322L47.7407 19.5353L48.3047 19.8837L48.8495 20.1841L49.082 20.3898L49.2265 20.5736L49.3502 20.7903L49.4121 21.0071L49.4245 21.4748L49.5181 22.055L49.8111 22.4514L50.0835 22.7477L48.9705 22.4075L48.8041 22.4007L48.6074 22.4596L48.0254 22.8766L47.8411 22.9288L47.6293 22.8917L47.1078 22.8409L45.336 22.5104L43.9713 22.1935L43.5613 22.0783L42.8322 21.9686L42.3507 22.1853L41.8981 22.9274L41.7688 23.0741L41.0575 23.2922L40.7219 23.2333L39.9007 23.4363L38.6322 23.129L38.1796 23.1894L37.8233 23.3443L36.9126 23.6804L36.3596 23.8725L35.7157 24.0467L35.105 24.3141L34.6936 24.4595L34.2919 24.4582L33.9288 24.3073L33.5312 24.1769L33.0565 24.1509L32.5613 24.2263L32.1403 24.5226L31.9698 24.7338L31.6052 25.2949L31.1746 26.207L31.0054 26.3908L30.9586 26.4087L30.8527 26.4855L28.8689 26.0301L28.0146 25.9245L27.4382 26.0644L26.7146 25.8092L26.3982 25.764L26.2496 25.8449L25.8466 25.7297L25.1917 25.4183L24.563 25.288L24.0003 25.3333L23.6564 25.229L23.3786 24.9273L23.0209 24.3718L22.3742 23.8203L21.5103 23.38L20.9697 23.0467L20.7551 22.8245L20.2887 22.701L19.5747 22.6777L18.8897 22.8958L17.9047 23.5844L16.9912 24.9958L16.4822 25.5363L16.0736 25.6748L15.9704 26.0163L16.1726 26.5568L16.2263 27.1782L16.0832 28.2343L16.1355 29.0025L15.9181 28.8804L15.7091 28.521L15.6114 28.4483L15.0074 28.6102L14.6952 28.7556L14.5287 28.8982L14.4008 28.9202L14.2095 28.724L14.0582 28.6884L13.8216 28.724L13.5781 28.7213L13.4212 28.6952L13.3167 28.713L13.032 28.5965L11.9947 28.3002L11.8172 28.2014L11.6095 28.2124L11.0715 28.4703L10.7868 28.5416L9.92835 28.7021L9.00943 28.7803L8.6572 28.7844L8.41512 28.8996L8.2597 29.0601L8.15374 29.4181L7.97355 30.0354L7.89789 30.2013L7.91158 30.4468L7.85793 30.8597L7.83181 31.2301L7.86624 31.4784L7.6062 31.979L7.29116 32.5853L7.02977 33.1051L6.76562 33.6277L6.58266 33.2697L6.46989 32.85L6.42589 32.3685L6.45066 32.241L6.38047 32.0983L6.37493 32.0668L6.28693 31.7033L6.37635 31.4495L6.30339 31.1848L6.08885 30.9242L5.89481 30.7239L5.78204 30.5443L5.68985 30.4674L5.47666 30.44L5.18908 30.3467L4.80804 29.9544L4.43935 29.5731L3.96612 29.0848L3.58777 28.6623L3.12285 28.1452L2.69362 27.6665L2.43635 27.2056L2.33181 26.9409L2.457 26.9148L2.64274 26.9093L2.72116 26.8613L2.72527 26.7378L2.534 26.3744L2.44323 25.9107L2.28504 25.6282L1.78561 25.1934L1.3097 24.8628L1.15831 24.6927L1.073 24.4499L0.890036 22.9164L0.808925 22.4802L0.658963 22.2896L0.550311 22.2004L0.509 22.092L0.528228 21.8191L0.591538 21.5749L0.588767 21.4789L0.718074 21.2649V19.8439L0.647963 19.7712L0.563997 19.6477L0.430576 19.6573L0.277926 19.645L0.126536 19.4379L0 19.1772L0.0371128 18.992L0.169191 18.8384L0.313696 18.7026L0.496657 18.5902L1.03731 18.3625L1.18996 18.2486L1.28627 18.1087L1.34958 17.9194L1.66319 17.187L2.13096 16.4572L2.33038 16.3064L2.52989 15.8235L2.8037 15.2323L2.91369 14.9566L2.99489 14.6823L3.14619 14.4615L3.66074 14.0966L4.05 13.4574L4.47235 13.4917L4.90435 13.5932L5.45878 13.6439L5.89347 13.5205L6.17551 13.2708L6.79593 13.072L7.52089 12.8415L7.61862 12.4986L7.83181 12.3189L8.07808 12.1598L8.16339 12.1392L8.18128 12.2531L8.33116 12.6111L8.63797 12.9636L9.08786 13.3531L9.21574 13.3284L9.49501 13.0335L10.1966 12.8511L10.3741 12.7702L10.8721 12.3408L11.4719 12.0652L11.604 12.0405L11.8199 11.9678L12.4252 11.6825L12.8558 11.7209L13.5479 11.6756L14.7021 11.5412L15.5357 11.4959L15.958 11.4424L16.0626 11.3848L16.2263 10.9719L16.3515 10.8554L16.6652 10.677L17.2787 10.0543L17.6818 9.52757L17.7946 9.35201L17.8042 9.33827L17.8868 9.30537L18.0601 9.08314L17.8881 8.85408L17.2003 8.38634L17.2099 8.32326L17.1714 8.24368L17.2085 8.17922L17.4713 7.98859L17.8248 7.77184L18.2018 7.69092L19.1854 7.70737L20.0246 7.66074L20.2199 7.67171L20.8748 7.56061L21.3219 7.46186L21.7814 7.23691L22.8228 7.26022L23.6894 6.68687L23.9398 6.58536L24.0485 6.4962L24.0815 6.40842L24.4873 6.1807L24.9413 5.71024L25.3004 5.2864L25.398 4.98736L26.3803 3.97372L26.7228 3.99427L26.8907 3.86945L27.28 3.19186L27.401 3.06841L27.5841 3.02589L27.8055 2.94907L27.9981 2.74881L28.1646 2.44977L28.1659 2.08081L28.0903 1.78453V1.64049L28.1838 1.50884L28.3407 1.37577L29.0863 1.01092L29.2761 0.833975L29.3889 0.674865L29.5981 0.646024L29.8264 0.662517L29.9709 0.563727L30.1332 0.397753L30.6504 0.174179L31.1292 0L31.6327 0.0726688L32.0426 0.163212L32.3783 0.268824L32.5434 0.297624Z"/>
</mask>
<path d="M32.5434 0.297624L32.8158 0.781817L32.9464 0.951936L34.0718 2.09588L34.2891 2.36747L34.8463 3.19734L35.1875 3.75697L35.5795 4.56214L35.6167 4.99971L35.5658 5.3728L35.4874 6.43311L35.3856 6.7376L34.8917 7.30824L34.8697 7.56471L34.9729 7.7787L35.1214 7.86648L35.215 7.97209L35.1586 8.46591L35.336 8.65931L35.7061 8.78824L36.643 8.87602L37.13 8.94735L37.5138 9.04613L37.6967 9.09415L37.7971 9.26833L37.6404 9.83758L37.749 10.1928L38.0695 10.4932L38.3942 10.6208L38.7051 10.6949L39.7891 10.88L40.239 11.0885L40.8333 11.7551L41.579 12.3614L41.7606 12.6824L41.7275 12.9746L41.5061 13.3284L41.5404 13.4739L41.883 13.8291L42.275 14.1912L42.9932 14.5945L44.2368 15.2268L44.8077 15.6493L45.0016 15.9689L45.3208 16.3173L45.7651 16.6355L46.0637 16.8811L45.8573 17.5738L45.9193 17.8015L46.0307 17.999L46.2907 18.2719L46.3939 18.6217L46.6512 19.0593L46.9579 19.2582L47.4711 19.3322L47.7407 19.5353L48.3047 19.8837L48.8495 20.1841L49.082 20.3898L49.2265 20.5736L49.3502 20.7903L49.4121 21.0071L49.4245 21.4748L49.5181 22.055L49.8111 22.4514L50.0835 22.7477L48.9705 22.4075L48.8041 22.4007L48.6074 22.4596L48.0254 22.8766L47.8411 22.9288L47.6293 22.8917L47.1078 22.8409L45.336 22.5104L43.9713 22.1935L43.5613 22.0783L42.8322 21.9686L42.3507 22.1853L41.8981 22.9274L41.7688 23.0741L41.0575 23.2922L40.7219 23.2333L39.9007 23.4363L38.6322 23.129L38.1796 23.1894L37.8233 23.3443L36.9126 23.6804L36.3596 23.8725L35.7157 24.0467L35.105 24.3141L34.6936 24.4595L34.2919 24.4582L33.9288 24.3073L33.5312 24.1769L33.0565 24.1509L32.5613 24.2263L32.1403 24.5226L31.9698 24.7338L31.6052 25.2949L31.1746 26.207L31.0054 26.3908L30.9586 26.4087L30.8527 26.4855L28.8689 26.0301L28.0146 25.9245L27.4382 26.0644L26.7146 25.8092L26.3982 25.764L26.2496 25.8449L25.8466 25.7297L25.1917 25.4183L24.563 25.288L24.0003 25.3333L23.6564 25.229L23.3786 24.9273L23.0209 24.3718L22.3742 23.8203L21.5103 23.38L20.9697 23.0467L20.7551 22.8245L20.2887 22.701L19.5747 22.6777L18.8897 22.8958L17.9047 23.5844L16.9912 24.9958L16.4822 25.5363L16.0736 25.6748L15.9704 26.0163L16.1726 26.5568L16.2263 27.1782L16.0832 28.2343L16.1355 29.0025L15.9181 28.8804L15.7091 28.521L15.6114 28.4483L15.0074 28.6102L14.6952 28.7556L14.5287 28.8982L14.4008 28.9202L14.2095 28.724L14.0582 28.6884L13.8216 28.724L13.5781 28.7213L13.4212 28.6952L13.3167 28.713L13.032 28.5965L11.9947 28.3002L11.8172 28.2014L11.6095 28.2124L11.0715 28.4703L10.7868 28.5416L9.92835 28.7021L9.00943 28.7803L8.6572 28.7844L8.41512 28.8996L8.2597 29.0601L8.15374 29.4181L7.97355 30.0354L7.89789 30.2013L7.91158 30.4468L7.85793 30.8597L7.83181 31.2301L7.86624 31.4784L7.6062 31.979L7.29116 32.5853L7.02977 33.1051L6.76562 33.6277L6.58266 33.2697L6.46989 32.85L6.42589 32.3685L6.45066 32.241L6.38047 32.0983L6.37493 32.0668L6.28693 31.7033L6.37635 31.4495L6.30339 31.1848L6.08885 30.9242L5.89481 30.7239L5.78204 30.5443L5.68985 30.4674L5.47666 30.44L5.18908 30.3467L4.80804 29.9544L4.43935 29.5731L3.96612 29.0848L3.58777 28.6623L3.12285 28.1452L2.69362 27.6665L2.43635 27.2056L2.33181 26.9409L2.457 26.9148L2.64274 26.9093L2.72116 26.8613L2.72527 26.7378L2.534 26.3744L2.44323 25.9107L2.28504 25.6282L1.78561 25.1934L1.3097 24.8628L1.15831 24.6927L1.073 24.4499L0.890036 22.9164L0.808925 22.4802L0.658963 22.2896L0.550311 22.2004L0.509 22.092L0.528228 21.8191L0.591538 21.5749L0.588767 21.4789L0.718074 21.2649V19.8439L0.647963 19.7712L0.563997 19.6477L0.430576 19.6573L0.277926 19.645L0.126536 19.4379L0 19.1772L0.0371128 18.992L0.169191 18.8384L0.313696 18.7026L0.496657 18.5902L1.03731 18.3625L1.18996 18.2486L1.28627 18.1087L1.34958 17.9194L1.66319 17.187L2.13096 16.4572L2.33038 16.3064L2.52989 15.8235L2.8037 15.2323L2.91369 14.9566L2.99489 14.6823L3.14619 14.4615L3.66074 14.0966L4.05 13.4574L4.47235 13.4917L4.90435 13.5932L5.45878 13.6439L5.89347 13.5205L6.17551 13.2708L6.79593 13.072L7.52089 12.8415L7.61862 12.4986L7.83181 12.3189L8.07808 12.1598L8.16339 12.1392L8.18128 12.2531L8.33116 12.6111L8.63797 12.9636L9.08786 13.3531L9.21574 13.3284L9.49501 13.0335L10.1966 12.8511L10.3741 12.7702L10.8721 12.3408L11.4719 12.0652L11.604 12.0405L11.8199 11.9678L12.4252 11.6825L12.8558 11.7209L13.5479 11.6756L14.7021 11.5412L15.5357 11.4959L15.958 11.4424L16.0626 11.3848L16.2263 10.9719L16.3515 10.8554L16.6652 10.677L17.2787 10.0543L17.6818 9.52757L17.7946 9.35201L17.8042 9.33827L17.8868 9.30537L18.0601 9.08314L17.8881 8.85408L17.2003 8.38634L17.2099 8.32326L17.1714 8.24368L17.2085 8.17922L17.4713 7.98859L17.8248 7.77184L18.2018 7.69092L19.1854 7.70737L20.0246 7.66074L20.2199 7.67171L20.8748 7.56061L21.3219 7.46186L21.7814 7.23691L22.8228 7.26022L23.6894 6.68687L23.9398 6.58536L24.0485 6.4962L24.0815 6.40842L24.4873 6.1807L24.9413 5.71024L25.3004 5.2864L25.398 4.98736L26.3803 3.97372L26.7228 3.99427L26.8907 3.86945L27.28 3.19186L27.401 3.06841L27.5841 3.02589L27.8055 2.94907L27.9981 2.74881L28.1646 2.44977L28.1659 2.08081L28.0903 1.78453V1.64049L28.1838 1.50884L28.3407 1.37577L29.0863 1.01092L29.2761 0.833975L29.3889 0.674865L29.5981 0.646024L29.8264 0.662517L29.9709 0.563727L30.1332 0.397753L30.6504 0.174179L31.1292 0L31.6327 0.0726688L32.0426 0.163212L32.3783 0.268824L32.5434 0.297624Z" fill="var(--fill-0, #71B219)" stroke="var(--stroke-0, white)" mask="url(#path-1-inside-1_0_51)"/>
</g>
</svg>
