<svg preserveAspectRatio="none" width="100%" height="100%" overflow="visible" style="display: block;" viewBox="0 0 29 33" fill="none" xmlns="http://www.w3.org/2000/svg"><g id="CG"><mask id="path-1-inside-1_0_216" fill="white"><path d="M29 1L29 2L29 2L28 3L28 4L27 5L27 6L27 8L27 8L27 9L26 10L26 11L26 12L26 13L26 14L26 15L26 16L25 17L24 18L23 18L23 18L22 19L22 19L22 19L21 21L21 21L20 22L20 22L20 22L20 23L20 24L20 26L20 26L19 27L19 28L18 29L18 29L17 30L17 30L17 30L16 30L16 31L15 31L15 32L14 33L14 33L14 33L13 33L13 33L13 33L13 33L13 33L13 32L13 32L12 32L13 31L13 31L13 31L13 31L12 31L12 31L12 31L12 31L11 31L11 31L11 31H11L10 31L10 31L10 31L10 31L10 32L10 32L10 32L10 32L9 32L9 32L9 33L9 33L8 32L8 32L8 32L8 32L8 32L8 32L8 32L7 32L7 32L7 31L7 31L6 31L6 31L6 32L5 32L5 32L5 32L5 32L4 32L4 32L4 33L4 33L3 33L3 33L3 33L3 33L3 32L3 32L2 32L2 32L2 31L1 30L1 30L0 29L0 28L0 28L1 28L1 28L2 28L2 28L2 28L2 28L3 28L3 28L3 28L3 28L3 28L3 27L3 27L3 27L3 27L3 27L2 26L2 26L2 26L2 26L2 26L2 26L2 25L2 25L2 25L2 25L2 25L2 24L2 24L2 23L2 23L2 23L2 23L2 23L3 23L3 23L3 23L4 23L5 23L5 23L5 22L5 22L5 22L5 22L5 22L5 22L5 21L6 21L6 21L6 21L6 22L7 22L7 22L7 23L8 23L9 23L9 23L10 23L10 22L10 22L10 22L10 23L11 23L11 23L10 23L11 24L11 24L11 24L12 23L12 23L12 23L12 23V23L12 22L12 22L12 22L12 22L12 22L13 21L13 21L13 20V20L13 20L13 20L13 19L13 18L13 18L13 17L13 16L13 16L13 16L12 16L12 16L12 16L12 15L11 15L11 15L10 15L11 14L11 14L11 13L11 13L11 13L11 12L11 12L11 12L12 12L12 12L12 12L12 12L13 11L13 11L13 11L13 11L13 10L12 10L12 10L12 9L12 9L11 9L10 9L10 9L9 9L9 9L8 9L8 9L8 9L8 9L8 9L8 8L8 8L8 8L8 7L8 7L8 6L8 6L9 6L10 6L11 6L12 6L13 6L13 6L14 6L14 6L14 6L14 6L14 6L14 6L15 6L15 6L15 6L15 6L16 6L16 6L16 6L16 7L17 7L17 7L18 7L18 7L19 7L19 8L19 8L19 8L19 8L19 7L19 7L19 6L19 6L19 6L20 6L20 6L20 5L20 5L20 4L20 4L21 3L21 3L21 3L21 2L21 2L21 2L21 1L21 1L21 1L21 1L22 1L23 0L24 0L24 0L24 0L25 0L25 0L26 0L26 0L26 0L26 0L27 0L27 0L27 0L27 1L27 1L27 1L28 0L28 0L28 0L29 1L29 1Z"/></mask><path d="M29 1L29 2L29 2L28 3L28 4L27 5L27 6L27 8L27 8L27 9L26 10L26 11L26 12L26 13L26 14L26 15L26 16L25 17L24 18L23 18L23 18L22 19L22 19L22 19L21 21L21 21L20 22L20 22L20 22L20 23L20 24L20 26L20 26L19 27L19 28L18 29L18 29L17 30L17 30L17 30L16 30L16 31L15 31L15 32L14 33L14 33L14 33L13 33L13 33L13 33L13 33L13 33L13 32L13 32L12 32L13 31L13 31L13 31L13 31L12 31L12 31L12 31L12 31L11 31L11 31L11 31H11L10 31L10 31L10 31L10 31L10 32L10 32L10 32L10 32L9 32L9 32L9 33L9 33L8 32L8 32L8 32L8 32L8 32L8 32L8 32L7 32L7 32L7 31L7 31L6 31L6 31L6 32L5 32L5 32L5 32L5 32L4 32L4 32L4 33L4 33L3 33L3 33L3 33L3 33L3 32L3 32L2 32L2 32L2 31L1 30L1 30L0 29L0 28L0 28L1 28L1 28L2 28L2 28L2 28L2 28L3 28L3 28L3 28L3 28L3 28L3 27L3 27L3 27L3 27L3 27L2 26L2 26L2 26L2 26L2 26L2 26L2 25L2 25L2 25L2 25L2 25L2 24L2 24L2 23L2 23L2 23L2 23L2 23L3 23L3 23L3 23L4 23L5 23L5 23L5 22L5 22L5 22L5 22L5 22L5 22L5 21L6 21L6 21L6 21L6 22L7 22L7 22L7 23L8 23L9 23L9 23L10 23L10 22L10 22L10 22L10 23L11 23L11 23L10 23L11 24L11 24L11 24L12 23L12 23L12 23L12 23V23L12 22L12 22L12 22L12 22L12 22L13 21L13 21L13 20V20L13 20L13 20L13 19L13 18L13 18L13 17L13 16L13 16L13 16L12 16L12 16L12 16L12 15L11 15L11 15L10 15L11 14L11 14L11 13L11 13L11 13L11 12L11 12L11 12L12 12L12 12L12 12L12 12L13 11L13 11L13 11L13 11L13 10L12 10L12 10L12 9L12 9L11 9L10 9L10 9L9 9L9 9L8 9L8 9L8 9L8 9L8 9L8 8L8 8L8 8L8 7L8 7L8 6L8 6L9 6L10 6L11 6L12 6L13 6L13 6L14 6L14 6L14 6L14 6L14 6L14 6L15 6L15 6L15 6L15 6L16 6L16 6L16 6L16 7L17 7L17 7L18 7L18 7L19 7L19 8L19 8L19 8L19 8L19 7L19 7L19 6L19 6L19 6L20 6L20 6L20 5L20 5L20 4L20 4L21 3L21 3L21 3L21 2L21 2L21 2L21 1L21 1L21 1L21 1L22 1L23 0L24 0L24 0L24 0L25 0L25 0L26 0L26 0L26 0L26 0L27 0L27 0L27 0L27 1L27 1L27 1L28 0L28 0L28 0L29 1L29 1Z" fill="var(--fill-0,#71B219)" stroke="var(--stroke-0,white)" mask="url(#path-1-inside-1_0_216)"/></g></svg>