<svg preserveAspectRatio="none" width="100%" height="100%" overflow="visible" style="display: block;" viewBox="0 0 28.9254 33.2697" fill="none" xmlns="http://www.w3.org/2000/svg">
<g id="CG">
<mask id="path-1-inside-1_0_216" fill="white">
<path d="M28.8799 0.801031L28.9254 1.46903L28.6364 2.30029L28.4191 2.92299L27.8495 3.95174L27.3405 4.8735L26.8026 6.4098L26.8054 7.53319L26.7462 8.23958L26.5701 8.67165L26.1464 9.83348L26.0831 10.8334L26.2344 12.0556L26.09 13.2146L25.6484 14.3092L25.4586 15.1706L25.5687 16.2089L24.7583 17.0731L23.739 17.9318L23.0787 18.18L22.5655 18.4695L22.1996 18.7973L22.0799 18.9756L21.813 19.3734L21.2063 20.6065L20.8899 21.147L20.4758 21.6092L19.8595 22.173L19.6339 22.439L19.5417 22.8259L19.5816 23.5364L19.6408 25.7023L19.5376 26.3305L19.3684 27.3634L18.7631 28.521L18.3091 29.1643L17.8552 29.3619L17.2581 29.5361L16.9719 29.7541L16.7972 30.0765L16.4643 30.3563L15.9732 30.5964L15.3514 31.1848L14.6016 32.123L14.0885 32.6607L13.8133 32.7992L13.5286 32.8116L13.2328 32.6991L12.9866 32.684L12.8627 32.7348L12.783 32.6936L12.666 32.6058L12.6701 32.3891L12.6358 32.0311L12.4913 31.6622L12.6632 31.3659L12.8173 31.1409L12.7899 31.023L12.6358 30.835L12.4638 30.5648L12.3014 30.584L11.9562 30.7898L11.5971 30.9516L11.2614 31.0188L10.9973 31.1862L10.8529 31.2767H10.6259L10.4993 31.1766L10.2228 31.0806L10.0728 31.1135L9.9875 31.1601L9.95173 31.5003L9.91874 31.7883L9.86508 32.0585L9.76609 32.1847L9.3492 32.3191L9.06581 32.5043L8.82231 32.6292L8.67101 32.5976L8.36831 32.3521L8.06708 32.1244L7.90062 31.9324L7.80708 31.7952L7.74654 31.7348L7.5567 31.7252L7.50027 31.8514L7.40535 31.7924L7.10958 31.5332L6.76016 31.1244L6.63358 31.0613L6.441 31.0682L6.13558 31.2191L5.8357 31.4537L5.29504 31.6704L4.84381 31.7911L4.80254 31.9392L4.69662 32.1944L4.54804 32.3535L4.14774 32.4028L4.00327 32.6305L3.65796 33.0694L3.42962 33.2697L3.36908 33.1847L3.23012 33.0777L2.94673 32.7375L2.66612 32.3137L2.59181 32.1217L2.51204 32.0119L2.49966 31.5867L2.07731 31.0819L1.01804 30.1848L0.905234 29.9174L0 29.0971L0.231115 28.5059L0.403077 28.2316L0.610808 28.0423L1.4445 27.5787L1.57104 27.5965L2.14608 28.1987L2.32904 28.2467L2.53404 28.2302L2.77616 28.2549L2.89585 28.137L2.91373 27.982L2.739 27.8077L2.71289 27.6212L2.8367 27.4196L2.90546 27.1946L3.0857 26.9313L3.10497 26.8065L2.91512 26.6707L2.52577 26.4635L2.26027 26.2633L2.15846 26.0726L2.23139 25.8284L2.44462 25.6296L2.43223 25.5212L2.24377 25.3429L2.10619 25.1522L1.96589 25.0329L1.57381 24.9616L1.64946 24.705L1.79254 24.3265L1.82831 24.037L1.71962 23.2772L1.72789 23.14L1.8352 23.07L2.06765 23.1537L2.30293 23.2689L2.944 23.1043L3.16685 23.0782L3.35258 23.2237L3.60708 23.3375L5.08181 23.0206L5.1107 22.6983L5.19462 22.4061L5.20562 22.188L5.14512 22.0468L5.0722 21.9412L5.02816 21.7217L5.02677 21.4871L5.16851 21.376L5.63897 21.0962L5.78481 21.1058L6.11358 21.2594L6.42173 21.4981L6.69689 22.0001L6.88535 22.4336L7.18939 22.9576L7.83181 23.1715L8.59947 23.3073L9.01493 23.2717L9.60781 22.8245L9.94351 22.4761L10.0522 22.2882L10.2475 22.3856L10.469 22.8437L10.6107 23.022L10.6465 23.1921L10.5475 23.4033L10.6438 23.5391L11.0565 23.6365L11.4183 23.5446L11.5806 23.3581L11.8516 23.1139L11.8544 22.9082L11.7085 22.7751V22.5913L11.8599 22.4473L12.0057 22.0523L12.051 21.7642L12.1941 21.5804L12.4652 21.4528L12.5628 21.3376L12.7142 20.6545L12.6358 20.4076V20.2033L12.8077 19.9413L12.8393 19.5133L12.7664 18.8124L12.7183 18.3309L12.666 17.8262L12.7981 17.1636L12.9356 16.4737L12.9109 16.3022L12.7197 16.0924L12.4844 15.9017L11.8791 15.744L11.6535 15.4929L11.4774 15.2268L11.3495 15.1418L10.6864 15.0375L10.5406 14.8867L10.5997 14.456L10.6589 13.8209L10.6355 13.3806L10.7524 13.024L10.8859 12.7565L11.1789 12.4739L11.333 12.1406L11.4183 12.0583L11.9727 12.0021L12.1735 11.8635L12.3317 11.7222L12.3992 11.5329L12.589 11.2188L12.7568 11.0062L12.7761 10.8622L12.7403 10.6619L12.5725 10.2683L12.3716 9.94043L12.2505 9.82247L12.0057 9.05162L11.7787 8.87053L11.3357 8.77178L10.5062 8.684L10.004 8.82256L9.24055 9.0818L8.65724 9.26146L8.27754 9.36297L8.0547 9.33555L7.95289 9.21759L8.10147 9.11746L8.17435 8.88288L8.07947 8.54683L7.93223 8.23958L7.84835 7.80612L7.88412 7.26981L8.02716 6.76506L8.33397 6.10937L8.3532 5.84193L9.27909 5.85013L10.2035 5.85838L11.2133 5.85151L12.1887 5.84603L12.9494 5.86796L13.3153 5.69789L13.6634 5.95574L13.834 6.012L13.8917 5.99141L14.0252 6.17249L14.4585 6.15328L14.5274 6.19443L14.5645 6.4139L14.9662 6.40842L15.1642 6.45643L15.3252 6.45095L15.5591 6.32474L15.7269 6.36589L16.0324 6.53048L16.2497 6.67176L16.5537 6.62512L17.2581 6.64982L17.8042 6.78561L18.3449 7.16147L18.7067 7.37818L19.0314 7.69917L19.151 7.64152L19.2639 7.55374L19.3271 7.51536L19.323 7.24101L19.1414 6.77327L19.0712 6.37685L19.1111 6.05177L19.2487 5.81723L19.4839 5.67595L19.5074 5.45648L19.51 5.4263L19.7742 4.90368L20.0356 4.38382L20.3506 3.77756L20.6107 3.27692L20.5762 3.02865L20.6024 2.65827L20.656 2.24541L20.6423 1.9999L20.718 1.83392L20.8982 1.21666L21.0041 0.858672L21.1596 0.698181L21.4016 0.582941L21.7539 0.578839L22.6728 0.500644L23.5312 0.340154L23.816 0.268824L24.3539 0.0109673L24.5617 0L24.7391 0.0987475L25.7764 0.395032L26.0611 0.511612L26.1657 0.493779L26.3225 0.519858L26.566 0.522579L26.8026 0.486914L26.9539 0.522579L27.1452 0.718734L27.2731 0.6968L27.4396 0.554141L27.7519 0.408762L28.3558 0.24689L28.4535 0.3196L28.6626 0.678968L28.8799 0.801031Z"/>
</mask>
<path d="M28.8799 0.801031L28.9254 1.46903L28.6364 2.30029L28.4191 2.92299L27.8495 3.95174L27.3405 4.8735L26.8026 6.4098L26.8054 7.53319L26.7462 8.23958L26.5701 8.67165L26.1464 9.83348L26.0831 10.8334L26.2344 12.0556L26.09 13.2146L25.6484 14.3092L25.4586 15.1706L25.5687 16.2089L24.7583 17.0731L23.739 17.9318L23.0787 18.18L22.5655 18.4695L22.1996 18.7973L22.0799 18.9756L21.813 19.3734L21.2063 20.6065L20.8899 21.147L20.4758 21.6092L19.8595 22.173L19.6339 22.439L19.5417 22.8259L19.5816 23.5364L19.6408 25.7023L19.5376 26.3305L19.3684 27.3634L18.7631 28.521L18.3091 29.1643L17.8552 29.3619L17.2581 29.5361L16.9719 29.7541L16.7972 30.0765L16.4643 30.3563L15.9732 30.5964L15.3514 31.1848L14.6016 32.123L14.0885 32.6607L13.8133 32.7992L13.5286 32.8116L13.2328 32.6991L12.9866 32.684L12.8627 32.7348L12.783 32.6936L12.666 32.6058L12.6701 32.3891L12.6358 32.0311L12.4913 31.6622L12.6632 31.3659L12.8173 31.1409L12.7899 31.023L12.6358 30.835L12.4638 30.5648L12.3014 30.584L11.9562 30.7898L11.5971 30.9516L11.2614 31.0188L10.9973 31.1862L10.8529 31.2767H10.6259L10.4993 31.1766L10.2228 31.0806L10.0728 31.1135L9.9875 31.1601L9.95173 31.5003L9.91874 31.7883L9.86508 32.0585L9.76609 32.1847L9.3492 32.3191L9.06581 32.5043L8.82231 32.6292L8.67101 32.5976L8.36831 32.3521L8.06708 32.1244L7.90062 31.9324L7.80708 31.7952L7.74654 31.7348L7.5567 31.7252L7.50027 31.8514L7.40535 31.7924L7.10958 31.5332L6.76016 31.1244L6.63358 31.0613L6.441 31.0682L6.13558 31.2191L5.8357 31.4537L5.29504 31.6704L4.84381 31.7911L4.80254 31.9392L4.69662 32.1944L4.54804 32.3535L4.14774 32.4028L4.00327 32.6305L3.65796 33.0694L3.42962 33.2697L3.36908 33.1847L3.23012 33.0777L2.94673 32.7375L2.66612 32.3137L2.59181 32.1217L2.51204 32.0119L2.49966 31.5867L2.07731 31.0819L1.01804 30.1848L0.905234 29.9174L0 29.0971L0.231115 28.5059L0.403077 28.2316L0.610808 28.0423L1.4445 27.5787L1.57104 27.5965L2.14608 28.1987L2.32904 28.2467L2.53404 28.2302L2.77616 28.2549L2.89585 28.137L2.91373 27.982L2.739 27.8077L2.71289 27.6212L2.8367 27.4196L2.90546 27.1946L3.0857 26.9313L3.10497 26.8065L2.91512 26.6707L2.52577 26.4635L2.26027 26.2633L2.15846 26.0726L2.23139 25.8284L2.44462 25.6296L2.43223 25.5212L2.24377 25.3429L2.10619 25.1522L1.96589 25.0329L1.57381 24.9616L1.64946 24.705L1.79254 24.3265L1.82831 24.037L1.71962 23.2772L1.72789 23.14L1.8352 23.07L2.06765 23.1537L2.30293 23.2689L2.944 23.1043L3.16685 23.0782L3.35258 23.2237L3.60708 23.3375L5.08181 23.0206L5.1107 22.6983L5.19462 22.4061L5.20562 22.188L5.14512 22.0468L5.0722 21.9412L5.02816 21.7217L5.02677 21.4871L5.16851 21.376L5.63897 21.0962L5.78481 21.1058L6.11358 21.2594L6.42173 21.4981L6.69689 22.0001L6.88535 22.4336L7.18939 22.9576L7.83181 23.1715L8.59947 23.3073L9.01493 23.2717L9.60781 22.8245L9.94351 22.4761L10.0522 22.2882L10.2475 22.3856L10.469 22.8437L10.6107 23.022L10.6465 23.1921L10.5475 23.4033L10.6438 23.5391L11.0565 23.6365L11.4183 23.5446L11.5806 23.3581L11.8516 23.1139L11.8544 22.9082L11.7085 22.7751V22.5913L11.8599 22.4473L12.0057 22.0523L12.051 21.7642L12.1941 21.5804L12.4652 21.4528L12.5628 21.3376L12.7142 20.6545L12.6358 20.4076V20.2033L12.8077 19.9413L12.8393 19.5133L12.7664 18.8124L12.7183 18.3309L12.666 17.8262L12.7981 17.1636L12.9356 16.4737L12.9109 16.3022L12.7197 16.0924L12.4844 15.9017L11.8791 15.744L11.6535 15.4929L11.4774 15.2268L11.3495 15.1418L10.6864 15.0375L10.5406 14.8867L10.5997 14.456L10.6589 13.8209L10.6355 13.3806L10.7524 13.024L10.8859 12.7565L11.1789 12.4739L11.333 12.1406L11.4183 12.0583L11.9727 12.0021L12.1735 11.8635L12.3317 11.7222L12.3992 11.5329L12.589 11.2188L12.7568 11.0062L12.7761 10.8622L12.7403 10.6619L12.5725 10.2683L12.3716 9.94043L12.2505 9.82247L12.0057 9.05162L11.7787 8.87053L11.3357 8.77178L10.5062 8.684L10.004 8.82256L9.24055 9.0818L8.65724 9.26146L8.27754 9.36297L8.0547 9.33555L7.95289 9.21759L8.10147 9.11746L8.17435 8.88288L8.07947 8.54683L7.93223 8.23958L7.84835 7.80612L7.88412 7.26981L8.02716 6.76506L8.33397 6.10937L8.3532 5.84193L9.27909 5.85013L10.2035 5.85838L11.2133 5.85151L12.1887 5.84603L12.9494 5.86796L13.3153 5.69789L13.6634 5.95574L13.834 6.012L13.8917 5.99141L14.0252 6.17249L14.4585 6.15328L14.5274 6.19443L14.5645 6.4139L14.9662 6.40842L15.1642 6.45643L15.3252 6.45095L15.5591 6.32474L15.7269 6.36589L16.0324 6.53048L16.2497 6.67176L16.5537 6.62512L17.2581 6.64982L17.8042 6.78561L18.3449 7.16147L18.7067 7.37818L19.0314 7.69917L19.151 7.64152L19.2639 7.55374L19.3271 7.51536L19.323 7.24101L19.1414 6.77327L19.0712 6.37685L19.1111 6.05177L19.2487 5.81723L19.4839 5.67595L19.5074 5.45648L19.51 5.4263L19.7742 4.90368L20.0356 4.38382L20.3506 3.77756L20.6107 3.27692L20.5762 3.02865L20.6024 2.65827L20.656 2.24541L20.6423 1.9999L20.718 1.83392L20.8982 1.21666L21.0041 0.858672L21.1596 0.698181L21.4016 0.582941L21.7539 0.578839L22.6728 0.500644L23.5312 0.340154L23.816 0.268824L24.3539 0.0109673L24.5617 0L24.7391 0.0987475L25.7764 0.395032L26.0611 0.511612L26.1657 0.493779L26.3225 0.519858L26.566 0.522579L26.8026 0.486914L26.9539 0.522579L27.1452 0.718734L27.2731 0.6968L27.4396 0.554141L27.7519 0.408762L28.3558 0.24689L28.4535 0.3196L28.6626 0.678968L28.8799 0.801031Z" fill="var(--fill-0, #71B219)" stroke="var(--stroke-0, white)" mask="url(#path-1-inside-1_0_216)"/>
</g>
</svg>
