<svg preserveAspectRatio="none" width="100%" height="100%" overflow="visible" style="display: block;" viewBox="0 0 17.3145 10.9089" fill="none" xmlns="http://www.w3.org/2000/svg">
<g id="CH">
<mask id="path-1-inside-1_0_202" fill="white">
<path d="M13.7226 1.43203L13.8395 1.50608L14.1146 1.75711L14.05 2.18371L13.7349 2.86954L13.5685 3.42368L13.5506 3.84751L13.5822 4.04643L13.6386 4.04367L13.9385 4.07385H14.0926L14.5755 4.18771L14.9621 4.35506L15.0377 4.532L15.0872 4.74733L15.5481 5.04089L16.075 5.23152L16.2538 5.16982L16.9086 4.48261L17.1618 4.59647L17.3145 4.96132L17.3076 5.15609L17.1274 5.88445L17.0957 6.27538L17.2512 6.53324L17.2677 6.73488L17.2223 6.91731L16.9609 6.93376L16.6101 6.83501L16.3144 6.52089L16.0901 6.55932L15.8961 6.64023L15.7957 6.93652L15.7077 7.2904L15.7366 7.48656L15.8755 7.6388L15.9828 7.95978L16.0612 8.37675L16.1204 8.56742L16.0557 8.65248L15.8714 8.71008L15.7173 8.65382L15.4504 8.15594L15.3252 7.96665L15.1134 7.93237L14.7406 8.05443L14.1683 8.33288L13.9358 8.3315L13.7404 8.27528L13.5561 8.03932L13.3992 7.58258L13.3497 7.29589L13.241 7.30413L12.8737 7.22184L12.7032 7.33565L12.7018 7.80206L12.6688 8.38362L12.4844 8.75809L11.9727 9.4055L11.7855 9.68671L11.7099 9.88969L11.6948 10.0653L11.7732 10.3684L11.8791 10.6579L11.7897 10.8225L11.52 10.9089L11.3288 10.7333L11.2559 10.4206L10.8419 9.99258L11.0303 9.6346L10.9987 9.54544L10.3149 9.35887L10.0205 9.08728L9.60786 8.60995L9.53082 8.40555L9.5487 7.73893L9.52393 7.5771L9.46889 7.49753L9.26943 7.50301L8.99016 7.73483L8.73289 8.08047L8.20739 8.4714L8.15235 8.55369L8.32981 8.93365L8.32159 9.08042L7.89235 9.68533L7.8112 9.88421L7.26777 10.2615L7.01877 10.4027L6.26489 10.1257L6.05581 10.0927L5.72012 10.2779L5.24416 10.4548L4.47512 10.6318L4.19173 10.5029L4.05831 10.3821L3.99227 10.1983L3.79827 9.876L3.58093 9.68533L3.42962 9.47683L3.22739 9.24915L3.0967 9.05848L3.27004 8.44674L3.14346 8.23275L3.07881 7.9255L3.11181 7.717L3.04304 7.66626L2.34831 7.54554L1.77189 7.58392L1.35919 7.78833L1.02216 8.12848L0.980887 8.20257L1.00289 8.26293L1.17073 8.57429L0.885964 8.90347L0.449846 9.15861L0.141692 9.18469L0.00549975 9.13529L0 8.78413L0.255885 8.65382L0.487001 8.42476L0.564039 8.10106L0.591538 7.87334L0.349423 7.59765L0.378307 7.42758L0.529655 7.1066L0.616308 6.82266L0.737386 6.57715L1.2175 6.17526L1.69896 5.76921L1.77189 5.33852L1.81043 4.81318L1.87781 4.68697L2.52854 4.37151L2.69085 4.24669L2.77339 4.06836L3.28516 3.47718L3.79143 2.89009L3.89458 2.6926L3.97989 2.57597V2.47999L3.91523 2.4059L3.67446 2.35788L3.59193 2.16998L3.8547 1.83531L4.18346 1.6309L4.50266 1.6268L4.63058 1.72145L4.6237 1.83254L4.76127 1.95188L5.00339 1.99031L5.30193 1.94912L5.59908 1.82434L5.78204 1.52667L5.88797 1.30034L6.35431 1.04248L6.67212 1.17279L7.5567 1.20707L8.20051 1.13712L8.60358 0.961564H9.10297L9.43862 1.06031L9.49778 1.0452L9.59136 1.02327L9.68212 0.92862L9.99855 0.864156L10.0398 0.785961L10.0274 0.705046L9.97101 0.665279L9.5817 0.706428L9.43451 0.644684L9.39597 0.502026L9.52116 0.252373L9.80732 0.0493947L10.0494 0L10.2242 0.0548783L10.6492 0.430696L10.7524 0.443045L10.8116 0.37586L10.8996 0.337433L11.0468 0.411525L11.2119 0.644684L11.2408 0.680349L12.1914 0.598052H12.4046L13.0498 1.0082L13.7226 1.43203Z"/>
</mask>
<path d="M13.7226 1.43203L13.8395 1.50608L14.1146 1.75711L14.05 2.18371L13.7349 2.86954L13.5685 3.42368L13.5506 3.84751L13.5822 4.04643L13.6386 4.04367L13.9385 4.07385H14.0926L14.5755 4.18771L14.9621 4.35506L15.0377 4.532L15.0872 4.74733L15.5481 5.04089L16.075 5.23152L16.2538 5.16982L16.9086 4.48261L17.1618 4.59647L17.3145 4.96132L17.3076 5.15609L17.1274 5.88445L17.0957 6.27538L17.2512 6.53324L17.2677 6.73488L17.2223 6.91731L16.9609 6.93376L16.6101 6.83501L16.3144 6.52089L16.0901 6.55932L15.8961 6.64023L15.7957 6.93652L15.7077 7.2904L15.7366 7.48656L15.8755 7.6388L15.9828 7.95978L16.0612 8.37675L16.1204 8.56742L16.0557 8.65248L15.8714 8.71008L15.7173 8.65382L15.4504 8.15594L15.3252 7.96665L15.1134 7.93237L14.7406 8.05443L14.1683 8.33288L13.9358 8.3315L13.7404 8.27528L13.5561 8.03932L13.3992 7.58258L13.3497 7.29589L13.241 7.30413L12.8737 7.22184L12.7032 7.33565L12.7018 7.80206L12.6688 8.38362L12.4844 8.75809L11.9727 9.4055L11.7855 9.68671L11.7099 9.88969L11.6948 10.0653L11.7732 10.3684L11.8791 10.6579L11.7897 10.8225L11.52 10.9089L11.3288 10.7333L11.2559 10.4206L10.8419 9.99258L11.0303 9.6346L10.9987 9.54544L10.3149 9.35887L10.0205 9.08728L9.60786 8.60995L9.53082 8.40555L9.5487 7.73893L9.52393 7.5771L9.46889 7.49753L9.26943 7.50301L8.99016 7.73483L8.73289 8.08047L8.20739 8.4714L8.15235 8.55369L8.32981 8.93365L8.32159 9.08042L7.89235 9.68533L7.8112 9.88421L7.26777 10.2615L7.01877 10.4027L6.26489 10.1257L6.05581 10.0927L5.72012 10.2779L5.24416 10.4548L4.47512 10.6318L4.19173 10.5029L4.05831 10.3821L3.99227 10.1983L3.79827 9.876L3.58093 9.68533L3.42962 9.47683L3.22739 9.24915L3.0967 9.05848L3.27004 8.44674L3.14346 8.23275L3.07881 7.9255L3.11181 7.717L3.04304 7.66626L2.34831 7.54554L1.77189 7.58392L1.35919 7.78833L1.02216 8.12848L0.980887 8.20257L1.00289 8.26293L1.17073 8.57429L0.885964 8.90347L0.449846 9.15861L0.141692 9.18469L0.00549975 9.13529L0 8.78413L0.255885 8.65382L0.487001 8.42476L0.564039 8.10106L0.591538 7.87334L0.349423 7.59765L0.378307 7.42758L0.529655 7.1066L0.616308 6.82266L0.737386 6.57715L1.2175 6.17526L1.69896 5.76921L1.77189 5.33852L1.81043 4.81318L1.87781 4.68697L2.52854 4.37151L2.69085 4.24669L2.77339 4.06836L3.28516 3.47718L3.79143 2.89009L3.89458 2.6926L3.97989 2.57597V2.47999L3.91523 2.4059L3.67446 2.35788L3.59193 2.16998L3.8547 1.83531L4.18346 1.6309L4.50266 1.6268L4.63058 1.72145L4.6237 1.83254L4.76127 1.95188L5.00339 1.99031L5.30193 1.94912L5.59908 1.82434L5.78204 1.52667L5.88797 1.30034L6.35431 1.04248L6.67212 1.17279L7.5567 1.20707L8.20051 1.13712L8.60358 0.961564H9.10297L9.43862 1.06031L9.49778 1.0452L9.59136 1.02327L9.68212 0.92862L9.99855 0.864156L10.0398 0.785961L10.0274 0.705046L9.97101 0.665279L9.5817 0.706428L9.43451 0.644684L9.39597 0.502026L9.52116 0.252373L9.80732 0.0493947L10.0494 0L10.2242 0.0548783L10.6492 0.430696L10.7524 0.443045L10.8116 0.37586L10.8996 0.337433L11.0468 0.411525L11.2119 0.644684L11.2408 0.680349L12.1914 0.598052H12.4046L13.0498 1.0082L13.7226 1.43203Z" fill="var(--fill-0, #71B219)" stroke="var(--stroke-0, white)" mask="url(#path-1-inside-1_0_202)"/>
</g>
</svg>
