<svg preserveAspectRatio="none" width="100%" height="100%" overflow="visible" style="display: block;" viewBox="0 0 17 11" fill="none" xmlns="http://www.w3.org/2000/svg"><g id="CH"><mask id="path-1-inside-1_0_202" fill="white"><path d="M14 1L14 2L14 2L14 2L14 3L14 3L14 4L14 4L14 4L14 4H14L15 4L15 4L15 4L15 5L16 5L16 5L16 5L17 4L17 5L17 5L17 5L17 6L17 6L17 6L17 7L17 7L17 7L17 7L16 6L16 7L16 7L16 7L16 7L16 8L16 8L16 8L16 8L16 9L16 9L16 9L16 9L16 8L15 8L15 8L15 8L14 8L14 8L14 8L14 8L13 8L13 7L13 7L13 7L13 7L13 8L13 8L12 9L12 9L12 10L12 10L12 10L12 10L12 11L12 11L12 11L11 11L11 10L11 10L11 10L11 10L10 9L10 9L10 9L10 8L10 8L10 8L10 8L9 8L9 8L9 8L8 8L8 9L8 9L8 9L8 10L8 10L7 10L7 10L6 10L6 10L6 10L5 10L4 11L4 10L4 10L4 10L4 10L4 10L3 10L3 9L3 9L3 8L3 8L3 8L3 8L3 8L2 8L2 8L1 8L1 8L1 8L1 8L1 9L1 9L0 9L0 9L0 9L0 9L0 9L0 8L1 8L1 8L0 8L0 7L0 7L1 7L1 7L1 6L2 6L2 5L2 5L2 5L2 4L3 4L3 4L3 4L4 3L4 3L4 3V2L4 2L4 2L4 2L4 2L4 2L4 2L5 2L5 2L5 2L5 2L5 2L6 2L6 2L6 1L6 1L7 1L8 1L8 1L9 1H9L9 1L10 1L10 1L10 1L10 1L10 1L10 1L10 1L10 1L9 1L9 0L10 0L10 0L10 0L10 0L11 0L11 0L11 0L11 0L11 0L11 1L11 1L12 1H12L13 1L14 1Z"/></mask><path d="M14 1L14 2L14 2L14 2L14 3L14 3L14 4L14 4L14 4L14 4H14L15 4L15 4L15 4L15 5L16 5L16 5L16 5L17 4L17 5L17 5L17 5L17 6L17 6L17 6L17 7L17 7L17 7L17 7L16 6L16 7L16 7L16 7L16 7L16 8L16 8L16 8L16 8L16 9L16 9L16 9L16 9L16 8L15 8L15 8L15 8L14 8L14 8L14 8L14 8L13 8L13 7L13 7L13 7L13 7L13 8L13 8L12 9L12 9L12 10L12 10L12 10L12 10L12 11L12 11L12 11L11 11L11 10L11 10L11 10L11 10L10 9L10 9L10 9L10 8L10 8L10 8L10 8L9 8L9 8L9 8L8 8L8 9L8 9L8 9L8 10L8 10L7 10L7 10L6 10L6 10L6 10L5 10L4 11L4 10L4 10L4 10L4 10L4 10L3 10L3 9L3 9L3 8L3 8L3 8L3 8L3 8L2 8L2 8L1 8L1 8L1 8L1 8L1 9L1 9L0 9L0 9L0 9L0 9L0 9L0 8L1 8L1 8L0 8L0 7L0 7L1 7L1 7L1 6L2 6L2 5L2 5L2 5L2 4L3 4L3 4L3 4L4 3L4 3L4 3V2L4 2L4 2L4 2L4 2L4 2L4 2L5 2L5 2L5 2L5 2L5 2L6 2L6 2L6 1L6 1L7 1L8 1L8 1L9 1H9L9 1L10 1L10 1L10 1L10 1L10 1L10 1L10 1L10 1L9 1L9 0L10 0L10 0L10 0L10 0L11 0L11 0L11 0L11 0L11 0L11 1L11 1L12 1H12L13 1L14 1Z" fill="var(--fill-0,#71B219)" stroke="var(--stroke-0,white)" mask="url(#path-1-inside-1_0_202)"/></g></svg>