<svg preserveAspectRatio="none" width="100%" height="100%" overflow="visible" style="display: block;" viewBox="0 0 24 25" fill="none" xmlns="http://www.w3.org/2000/svg"><g id="CI"><mask id="path-1-inside-1_0_201" fill="white"><path d="M12 1L12 1L12 2L13 2L13 2L14 2L14 2L14 3L14 3L14 3L15 3L15 4L15 4L16 4L16 4L16 4L16 4L17 4L17 4L18 3L18 3L19 3L19 3L20 3L20 3L21 3L21 3L21 4L22 4L22 4L22 4L22 5L22 5L22 5L22 5L23 5L23 5L23 5L23 5L23 6L23 6L23 6L23 6L23 6L23 7L23 7L23 7L23 8L23 8L23 9L24 10L23 10L23 10L23 10L23 10L23 10L23 10L23 10L22 11L22 11L22 11L22 11L22 12L22 13L22 13L22 14L22 14L22 14L21 15L21 15L21 15L21 16L21 16L21 16L21 17L21 17L21 18L21 18L22 19L22 19L22 20L22 20L22 20L22 20L23 20L23 21L22 21L22 21L22 21L22 22L22 22L22 22L22 22L22 22L21 22L21 21L21 21L21 21L21 21L20 22L20 22L18 21L18 21L17 21L16 21L16 21L15 21L17 21L18 21L18 21L15 21L14 22L14 22L14 21L13 21L13 21L12 22L13 22L14 22L14 22L12 22L10 22L10 22L8 23L7 23L6 24L6 24L5 24L4 24L4 25L4 24L4 24L4 23L4 22L4 22L4 22L4 22L4 22L4 21L4 21L4 20L5 20L5 20L5 20L4 19L4 19L4 19L4 19L4 19L3 19L3 18L3 18L3 18L3 18L3 17L2 17L2 17L2 17L2 17L1 17L1 17L1 17L1 16L0 16L0 16L0 16L0 16L1 16L1 15L1 15L1 15L1 14L1 14L1 13L1 12L0 12L0 12L1 12L1 12L1 12L2 12L2 12L2 11L2 11L2 11L2 10L2 10L2 10L2 10L2 10L2 10L2 10L1 10L1 9L1 9L2 9L2 9L2 9L2 9L3 9H3L3 9L3 9L4 9L4 9L4 8L3 8L3 8L2 8L2 7L3 7L3 7L3 6L3 6L3 6L3 6L3 6L3 5L2 5L2 5L2 5L2 5L2 4V3L2 3L2 3L2 2L2 2L2 2L2 2L3 2L3 2L3 2L4 1L4 1L4 1L4 1L4 1L5 2L5 2L5 2L6 2L6 2L6 2L6 2L6 2L6 2L6 2L6 2L6 2L6 2L7 2L7 1H7L7 2L8 1L7 1L7 1L7 0L8 0L8 0L8 1L8 1L8 1L8 0L8 0L8 0L9 0L9 0L9 0L9 0L9 1L9 1L9 1L9 1L9 2L9 2L9 2L9 2L10 2L10 2L10 2L10 2L10 2L10 1L11 1L11 1L12 1L12 1ZM21 22L21 22L21 22L21 22L21 22Z"/></mask><path d="M12 1L12 1L12 2L13 2L13 2L14 2L14 2L14 3L14 3L14 3L15 3L15 4L15 4L16 4L16 4L16 4L16 4L17 4L17 4L18 3L18 3L19 3L19 3L20 3L20 3L21 3L21 3L21 4L22 4L22 4L22 4L22 5L22 5L22 5L22 5L23 5L23 5L23 5L23 5L23 6L23 6L23 6L23 6L23 6L23 7L23 7L23 7L23 8L23 8L23 9L24 10L23 10L23 10L23 10L23 10L23 10L23 10L23 10L22 11L22 11L22 11L22 11L22 12L22 13L22 13L22 14L22 14L22 14L21 15L21 15L21 15L21 16L21 16L21 16L21 17L21 17L21 18L21 18L22 19L22 19L22 20L22 20L22 20L22 20L23 20L23 21L22 21L22 21L22 21L22 22L22 22L22 22L22 22L22 22L21 22L21 21L21 21L21 21L21 21L20 22L20 22L18 21L18 21L17 21L16 21L16 21L15 21L17 21L18 21L18 21L15 21L14 22L14 22L14 21L13 21L13 21L12 22L13 22L14 22L14 22L12 22L10 22L10 22L8 23L7 23L6 24L6 24L5 24L4 24L4 25L4 24L4 24L4 23L4 22L4 22L4 22L4 22L4 22L4 21L4 21L4 20L5 20L5 20L5 20L4 19L4 19L4 19L4 19L4 19L3 19L3 18L3 18L3 18L3 18L3 17L2 17L2 17L2 17L2 17L1 17L1 17L1 17L1 16L0 16L0 16L0 16L0 16L1 16L1 15L1 15L1 15L1 14L1 14L1 13L1 12L0 12L0 12L1 12L1 12L1 12L2 12L2 12L2 11L2 11L2 11L2 10L2 10L2 10L2 10L2 10L2 10L2 10L1 10L1 9L1 9L2 9L2 9L2 9L2 9L3 9H3L3 9L3 9L4 9L4 9L4 8L3 8L3 8L2 8L2 7L3 7L3 7L3 6L3 6L3 6L3 6L3 6L3 5L2 5L2 5L2 5L2 5L2 4V3L2 3L2 3L2 2L2 2L2 2L2 2L3 2L3 2L3 2L4 1L4 1L4 1L4 1L4 1L5 2L5 2L5 2L6 2L6 2L6 2L6 2L6 2L6 2L6 2L6 2L6 2L6 2L7 2L7 1H7L7 2L8 1L7 1L7 1L7 0L8 0L8 0L8 1L8 1L8 1L8 0L8 0L8 0L9 0L9 0L9 0L9 0L9 1L9 1L9 1L9 1L9 2L9 2L9 2L9 2L10 2L10 2L10 2L10 2L10 2L10 1L11 1L11 1L12 1L12 1ZM21 22L21 22L21 22L21 22L21 22Z" fill="var(--fill-0,#71B219)" stroke="var(--stroke-0,white)" mask="url(#path-1-inside-1_0_201)"/></g></svg>