<svg preserveAspectRatio="none" width="100%" height="100%" overflow="visible" style="display: block;" viewBox="0 0 23.5464 24.5898" fill="none" xmlns="http://www.w3.org/2000/svg">
<g id="CI">
<mask id="path-1-inside-1_0_201" fill="white">
<path d="M11.8956 1.15768L12.1364 1.41558L12.4417 1.59252L12.9054 1.57054L13.241 1.6762L13.5313 1.87507L13.7267 2.3154L13.9399 2.63223L14.032 3.08487L14.3691 3.32217L14.6332 3.43055L14.9909 3.75835L15.361 3.92571L15.7434 3.88732L15.9222 4.05878L16.2084 4.17946L16.4945 4.18771L16.7463 3.80913L17.0792 3.6596L17.9197 3.35783L18.2513 3.22066L18.587 3.13426L19.3959 3.10684L20.1484 3.20011L20.5212 3.27005L20.7771 3.21794L21.0192 3.3976L21.2696 3.77484L21.4745 3.89552L21.6837 4.02583L21.8391 4.3235L22.0207 4.6184L22.1197 4.74871L22.3454 5.03951L22.5393 5.04362L22.7305 4.91741L22.8131 4.82415L22.8502 5.0162L22.7746 5.32755L22.7897 5.52095L22.8956 5.59504L22.8379 5.84331L22.6164 6.26576L22.615 6.51541L22.8351 6.59361L22.9919 6.85833L23.0855 7.311L23.1804 7.46186L23.1901 7.55513L23.3496 8.6511L23.5464 9.7498L23.4212 9.89246L23.2492 9.93499L23.1377 9.98572L23.1061 10.0886L23.1791 10.2381L23.1309 10.3753L22.9163 10.4699L22.4499 10.8183L22.4183 10.9569L22.2945 11.2532L22.1913 11.4342L22.0386 11.7703L21.7965 12.6591L21.707 13.3957L21.6933 13.6234L21.5997 13.7811L21.4938 14.0102L20.9875 14.6398L20.7289 15.1542L20.7619 15.3777L20.7743 15.6027L20.6973 15.7646L20.711 16.1994L20.7729 16.5629L20.8637 16.9195L21.231 17.9291L21.4223 18.5422L21.5406 19.036L21.6451 19.3679L21.7428 19.5024L21.7827 19.6299L22.3275 19.7218L22.4348 19.7945L22.5834 20.4378L22.5559 20.7286L22.4486 20.8397L22.4513 21.0853L22.4265 21.3911L22.3467 21.5118L22.0413 21.5269L21.8336 21.6422L21.5612 21.5955L21.5351 21.5201L21.3879 21.4926L20.9834 21.3184L21.0495 20.7602L20.8624 20.7369L20.7179 20.8109L20.4304 21.4803L20.2928 21.5955L18.2733 21.2498L17.8345 20.9714L17.3089 20.9083L16.3927 20.9398L15.6375 21.0235L15.4215 21.1922L17.3282 21.0935L17.5332 21.1127L17.6295 21.2142L15.2193 21.435L14.3003 21.5667L14.0279 21.531L13.8216 21.3171L12.8228 21.291L12.6179 21.3609L12.494 21.5187L12.8875 21.4844L13.5079 21.4762L13.6744 21.5969L11.7319 21.7546L10.3851 22.0564L9.81416 22.28L7.93496 23.0138L6.78904 23.3595L6.48912 23.4871L5.96773 23.8464L5.29777 24.0728L4.54666 24.4952L4.08854 24.5898L3.98535 24.4554L3.97296 23.7421L3.90969 22.7861L3.93308 22.4199L3.99362 22.0756L3.995 21.7903L4.22335 21.6833L4.28389 21.564L4.31827 21.1922L4.5315 20.8534L4.53566 20.2636L4.59892 20.1415L4.64708 19.9852L4.55627 19.5983L4.43796 18.8686L4.38019 18.8206L4.32793 18.8522L4.20823 18.8659L3.73635 18.6135L3.37181 18.5696L3.11592 18.3543L3.09804 18.1087L2.97423 17.9647L2.88758 17.6808L2.75961 17.3557L2.40058 17.1582L2.06354 17.1102L1.82415 17.1527L1.5435 17.1403L1.22157 17.0306L0.998729 16.9072L0.788269 16.6685L0.592923 16.4792L0.437461 16.5025L0.247615 16.4573L0.0604972 16.3708L0 16.3036L0.781384 15.5437L1.04688 15.172L1.07577 14.9443L1.07854 14.7152L1.16381 14.4807L1.18585 14.1227L0.753844 12.8196L0.643807 12.4163L0.528228 12.2984L0.45396 12.2531L0.672691 12.0858L0.973959 12.1297L1.43619 12.26L1.53661 12.131L1.88604 11.4726L1.87642 11.2285L1.84204 11.0598L2.047 10.6085L2.20935 10.4343L2.29327 10.2463L2.26711 9.98849L2.14469 9.89246L1.98234 9.91029L1.78838 9.84721L1.49262 9.69907L1.34265 9.56738L1.38942 8.9707L1.41696 8.78552L1.5215 8.67852L1.68385 8.64972L2.14192 8.63189L2.51339 8.7005L2.83942 8.74027H3.01273L3.15308 8.91721L3.34015 9.09825L3.50523 9.09691L3.56304 8.96246L3.5245 8.37403L3.41446 8.06264L3.16546 7.76225L2.52161 7.50577L2.5065 7.14775L2.57115 6.75958L2.71008 6.61554L3.18885 6.36865L3.10492 6.23558L2.95223 6.0943L2.64819 5.95164L2.71835 5.48666L2.7335 5.07103L2.47623 5.11771L2.21207 5.14236L1.98923 5.01482L1.80215 4.76244L1.76773 4.06836V3.26595L1.73196 2.91069L1.8035 2.7214L2.0305 2.54718L2.27811 2.32088L2.36615 2.17684L2.48035 2.17408L2.7775 2.08768L3.04716 1.89014L3.29888 1.47866L3.63869 1.14809L4.02111 1.17279L4.13392 1.11243L4.26877 1.10146L4.42835 1.31955L4.58931 1.48552L4.70346 1.48963L4.78877 1.80374L5.48623 1.93543L5.78477 2.02183L6.0365 2.25089L6.12458 2.25637L6.2305 2.2084L6.31304 2.12883L6.32954 2.04105L6.22085 1.83531L6.269 1.65012L6.38181 1.48414L6.56204 1.47318L6.83304 1.42654H7.14396L7.37508 1.45672L7.46723 1.29075L7.37919 0.824389L7.40258 0.56649L7.43973 0.349781L7.52639 0.262001L7.87169 0.53497L8.18812 0.633717L8.41508 0.641964L8.47839 0.589806L8.38208 0.292182L8.40824 0.203021L8.49212 0.150905L8.64069 0.120724L9.04377 0L9.08504 0.023316L9.16074 0.49244L9.12631 0.646066L9.21162 0.964285L9.31616 1.25919L9.30793 1.37991L9.22123 1.56234L9.11947 1.72969L9.13047 1.79826L9.29143 1.91212L9.59958 2.03008L9.91874 2.0575L10.0962 1.88604L10.2805 1.74614L10.4085 1.62132L10.4525 1.43613L10.6547 1.30034L11.2325 1.13026L11.7635 1.10418L11.8956 1.15768ZM21.304 21.6134L21.1981 21.7656L20.6863 21.6682L20.8074 21.5406L21.304 21.6134Z"/>
</mask>
<path d="M11.8956 1.15768L12.1364 1.41558L12.4417 1.59252L12.9054 1.57054L13.241 1.6762L13.5313 1.87507L13.7267 2.3154L13.9399 2.63223L14.032 3.08487L14.3691 3.32217L14.6332 3.43055L14.9909 3.75835L15.361 3.92571L15.7434 3.88732L15.9222 4.05878L16.2084 4.17946L16.4945 4.18771L16.7463 3.80913L17.0792 3.6596L17.9197 3.35783L18.2513 3.22066L18.587 3.13426L19.3959 3.10684L20.1484 3.20011L20.5212 3.27005L20.7771 3.21794L21.0192 3.3976L21.2696 3.77484L21.4745 3.89552L21.6837 4.02583L21.8391 4.3235L22.0207 4.6184L22.1197 4.74871L22.3454 5.03951L22.5393 5.04362L22.7305 4.91741L22.8131 4.82415L22.8502 5.0162L22.7746 5.32755L22.7897 5.52095L22.8956 5.59504L22.8379 5.84331L22.6164 6.26576L22.615 6.51541L22.8351 6.59361L22.9919 6.85833L23.0855 7.311L23.1804 7.46186L23.1901 7.55513L23.3496 8.6511L23.5464 9.7498L23.4212 9.89246L23.2492 9.93499L23.1377 9.98572L23.1061 10.0886L23.1791 10.2381L23.1309 10.3753L22.9163 10.4699L22.4499 10.8183L22.4183 10.9569L22.2945 11.2532L22.1913 11.4342L22.0386 11.7703L21.7965 12.6591L21.707 13.3957L21.6933 13.6234L21.5997 13.7811L21.4938 14.0102L20.9875 14.6398L20.7289 15.1542L20.7619 15.3777L20.7743 15.6027L20.6973 15.7646L20.711 16.1994L20.7729 16.5629L20.8637 16.9195L21.231 17.9291L21.4223 18.5422L21.5406 19.036L21.6451 19.3679L21.7428 19.5024L21.7827 19.6299L22.3275 19.7218L22.4348 19.7945L22.5834 20.4378L22.5559 20.7286L22.4486 20.8397L22.4513 21.0853L22.4265 21.3911L22.3467 21.5118L22.0413 21.5269L21.8336 21.6422L21.5612 21.5955L21.5351 21.5201L21.3879 21.4926L20.9834 21.3184L21.0495 20.7602L20.8624 20.7369L20.7179 20.8109L20.4304 21.4803L20.2928 21.5955L18.2733 21.2498L17.8345 20.9714L17.3089 20.9083L16.3927 20.9398L15.6375 21.0235L15.4215 21.1922L17.3282 21.0935L17.5332 21.1127L17.6295 21.2142L15.2193 21.435L14.3003 21.5667L14.0279 21.531L13.8216 21.3171L12.8228 21.291L12.6179 21.3609L12.494 21.5187L12.8875 21.4844L13.5079 21.4762L13.6744 21.5969L11.7319 21.7546L10.3851 22.0564L9.81416 22.28L7.93496 23.0138L6.78904 23.3595L6.48912 23.4871L5.96773 23.8464L5.29777 24.0728L4.54666 24.4952L4.08854 24.5898L3.98535 24.4554L3.97296 23.7421L3.90969 22.7861L3.93308 22.4199L3.99362 22.0756L3.995 21.7903L4.22335 21.6833L4.28389 21.564L4.31827 21.1922L4.5315 20.8534L4.53566 20.2636L4.59892 20.1415L4.64708 19.9852L4.55627 19.5983L4.43796 18.8686L4.38019 18.8206L4.32793 18.8522L4.20823 18.8659L3.73635 18.6135L3.37181 18.5696L3.11592 18.3543L3.09804 18.1087L2.97423 17.9647L2.88758 17.6808L2.75961 17.3557L2.40058 17.1582L2.06354 17.1102L1.82415 17.1527L1.5435 17.1403L1.22157 17.0306L0.998729 16.9072L0.788269 16.6685L0.592923 16.4792L0.437461 16.5025L0.247615 16.4573L0.0604972 16.3708L0 16.3036L0.781384 15.5437L1.04688 15.172L1.07577 14.9443L1.07854 14.7152L1.16381 14.4807L1.18585 14.1227L0.753844 12.8196L0.643807 12.4163L0.528228 12.2984L0.45396 12.2531L0.672691 12.0858L0.973959 12.1297L1.43619 12.26L1.53661 12.131L1.88604 11.4726L1.87642 11.2285L1.84204 11.0598L2.047 10.6085L2.20935 10.4343L2.29327 10.2463L2.26711 9.98849L2.14469 9.89246L1.98234 9.91029L1.78838 9.84721L1.49262 9.69907L1.34265 9.56738L1.38942 8.9707L1.41696 8.78552L1.5215 8.67852L1.68385 8.64972L2.14192 8.63189L2.51339 8.7005L2.83942 8.74027H3.01273L3.15308 8.91721L3.34015 9.09825L3.50523 9.09691L3.56304 8.96246L3.5245 8.37403L3.41446 8.06264L3.16546 7.76225L2.52161 7.50577L2.5065 7.14775L2.57115 6.75958L2.71008 6.61554L3.18885 6.36865L3.10492 6.23558L2.95223 6.0943L2.64819 5.95164L2.71835 5.48666L2.7335 5.07103L2.47623 5.11771L2.21207 5.14236L1.98923 5.01482L1.80215 4.76244L1.76773 4.06836V3.26595L1.73196 2.91069L1.8035 2.7214L2.0305 2.54718L2.27811 2.32088L2.36615 2.17684L2.48035 2.17408L2.7775 2.08768L3.04716 1.89014L3.29888 1.47866L3.63869 1.14809L4.02111 1.17279L4.13392 1.11243L4.26877 1.10146L4.42835 1.31955L4.58931 1.48552L4.70346 1.48963L4.78877 1.80374L5.48623 1.93543L5.78477 2.02183L6.0365 2.25089L6.12458 2.25637L6.2305 2.2084L6.31304 2.12883L6.32954 2.04105L6.22085 1.83531L6.269 1.65012L6.38181 1.48414L6.56204 1.47318L6.83304 1.42654H7.14396L7.37508 1.45672L7.46723 1.29075L7.37919 0.824389L7.40258 0.56649L7.43973 0.349781L7.52639 0.262001L7.87169 0.53497L8.18812 0.633717L8.41508 0.641964L8.47839 0.589806L8.38208 0.292182L8.40824 0.203021L8.49212 0.150905L8.64069 0.120724L9.04377 0L9.08504 0.023316L9.16074 0.49244L9.12631 0.646066L9.21162 0.964285L9.31616 1.25919L9.30793 1.37991L9.22123 1.56234L9.11947 1.72969L9.13047 1.79826L9.29143 1.91212L9.59958 2.03008L9.91874 2.0575L10.0962 1.88604L10.2805 1.74614L10.4085 1.62132L10.4525 1.43613L10.6547 1.30034L11.2325 1.13026L11.7635 1.10418L11.8956 1.15768ZM21.304 21.6134L21.1981 21.7656L20.6863 21.6682L20.8074 21.5406L21.304 21.6134Z" fill="var(--fill-0, #71B219)" stroke="var(--stroke-0, white)" mask="url(#path-1-inside-1_0_201)"/>
</g>
</svg>
