<svg preserveAspectRatio="none" width="100%" height="100%" overflow="visible" style="display: block;" viewBox="0 0 0.408858 0.261437" fill="none" xmlns="http://www.w3.org/2000/svg">
<g id="CK">
<mask id="path-1-inside-1_0_136" fill="white">
<path d="M0.395045 0.260002L0.270731 0.261437L0.113265 0.230963L0.011052 0.214417L0 0.17567L0.0400586 0.0580784L0.122934 0L0.287305 0.00835721L0.399189 0.0899034L0.408858 0.224041L0.395045 0.260002Z"/>
</mask>
<path d="M0.395045 0.260002L0.270731 0.261437L0.113265 0.230963L0.011052 0.214417L0 0.17567L0.0400586 0.0580784L0.122934 0L0.287305 0.00835721L0.399189 0.0899034L0.408858 0.224041L0.395045 0.260002Z" fill="var(--fill-0, #71B219)"/>
<path d="M0.395045 0.260002L0.400817 0.759969L0.740125 0.756052L0.861797 0.439285L0.395045 0.260002ZM0.270731 0.261437L0.175728 0.752329L0.225654 0.761991L0.276502 0.761404L0.270731 0.261437ZM0.113265 0.230963L0.208268 -0.259929L0.200735 -0.261386L0.193162 -0.262612L0.113265 0.230963ZM0.011052 0.214417L-0.469771 0.351565L-0.382592 0.657205L-0.0688447 0.707993L0.011052 0.214417ZM0 0.17567L-0.473291 0.01444L-0.523713 0.162451L-0.480823 0.312818L0 0.17567ZM0.0400586 0.0580784L-0.24689 -0.351385L-0.380588 -0.257691L-0.433233 -0.103152L0.0400586 0.0580784ZM0.122934 0L0.148323 -0.499355L-0.0232923 -0.508081L-0.164014 -0.409464L0.122934 0ZM0.287305 0.00835721L0.581805 -0.395709L0.461441 -0.483435L0.312694 -0.490998L0.287305 0.00835721ZM0.399189 0.0899034L0.897895 0.0539558L0.881212 -0.177489L0.693689 -0.314163L0.399189 0.0899034ZM0.408858 0.224041L0.87561 0.403324L0.915578 0.29927L0.907564 0.188093L0.408858 0.224041ZM0.395045 0.260002L0.389274 -0.239965L0.264959 -0.238529L0.270731 0.261437L0.276502 0.761404L0.400817 0.759969L0.395045 0.260002ZM0.270731 0.261437L0.365733 -0.229454L0.208268 -0.259929L0.113265 0.230963L0.0182629 0.721855L0.175728 0.752329L0.270731 0.261437ZM0.113265 0.230963L0.193162 -0.262612L0.0909487 -0.279158L0.011052 0.214417L-0.0688447 0.707993L0.0333685 0.724538L0.113265 0.230963ZM0.011052 0.214417L0.491875 0.0772702L0.480823 0.0385231L0 0.17567L-0.480823 0.312818L-0.469771 0.351565L0.011052 0.214417ZM0 0.17567L0.473291 0.336901L0.51335 0.219309L0.0400586 0.0580784L-0.433233 -0.103152L-0.473291 0.01444L0 0.17567ZM0.0400586 0.0580784L0.327007 0.467542L0.409883 0.409464L0.122934 0L-0.164014 -0.409464L-0.24689 -0.351385L0.0400586 0.0580784ZM0.122934 0L0.097545 0.499355L0.261916 0.507712L0.287305 0.00835721L0.312694 -0.490998L0.148323 -0.499355L0.122934 0ZM0.287305 0.00835721L-0.00719554 0.412424L0.104689 0.49397L0.399189 0.0899034L0.693689 -0.314163L0.581805 -0.395709L0.287305 0.00835721ZM0.399189 0.0899034L-0.0995168 0.125851L-0.089848 0.259988L0.408858 0.224041L0.907564 0.188093L0.897895 0.0539558L0.399189 0.0899034ZM0.408858 0.224041L-0.057894 0.0447578L-0.0717071 0.0807191L0.395045 0.260002L0.861797 0.439285L0.87561 0.403324L0.408858 0.224041Z" fill="var(--stroke-0, white)" mask="url(#path-1-inside-1_0_136)"/>
</g>
</svg>
