<svg preserveAspectRatio="none" width="100%" height="100%" overflow="visible" style="display: block;" viewBox="0 0 166 191" fill="none" xmlns="http://www.w3.org/2000/svg"><g id="CL"><mask id="path-1-inside-1_0_87" fill="white"><path d="M163 22L164 22L164 23L163 25L163 26L162 26L162 27L162 27L160 28L160 28L159 28L159 28L159 29L158 29L158 29L158 29L158 30V30L158 30L158 30L158 31L158 31L158 31L158 31L158 31L158 32L158 32L158 33L158 33L158 34L158 34L158 35L158 36L158 36L158 37L158 37L158 37L158 37L158 38L158 38L159 39V39L159 39L158 40L158 40L158 40L158 40L157 40L157 40L157 40L157 40L156 41L156 41L156 42L156 42L156 43L155 43L155 44L155 44L154 44L154 44L154 44L154 45L154 45L154 46L153 46L153 47L153 48L153 48L153 49L152 49L152 49L152 50L152 51L152 52L152 52L152 53L152 53L153 53L153 53L153 53L153 54L152 54L152 54L152 54L152 54L152 54L152 55L151 55L151 56L151 56L151 57L151 57L151 57L151 57L151 57L151 57L150 57L150 58L150 58L150 58L150 59L150 59L150 60L150 61L151 61L151 61L151 61L151 61L151 62L151 62L151 62L151 62L151 63L151 63L151 63L152 64L152 64L152 65L152 65L152 65L152 66L152 66L152 66L152 67L152 67L152 67L153 67L153 67L153 68L153 68L153 68L153 69L153 69L153 70L153 71L153 71L153 72L153 72L152 72L152 72L152 72L152 72L152 72L152 73L151 73L151 74L151 74L151 74L151 74L151 75L151 76L150 76L150 76L150 76L150 77L150 77L150 77L150 77L151 78L151 78L151 79L151 79L151 80L151 80L150 80L150 80L150 81L150 81L149 82L149 82L149 82H149L149 82L148 82L148 82L148 83L148 83L148 83L148 84L148 84L148 84L148 85L148 85L148 86L148 86L148 86L148 87L148 87L148 88L148 88L148 89L148 90L148 90L148 91L148 92L149 92L149 92L149 92L149 93L149 93L148 93L148 93L147 94L147 94L147 94L147 94L147 95L147 96L147 96L146 97L146 97L146 97L146 97L146 97L146 97L146 97L146 98L146 98L146 98L146 99L146 99L146 99L146 100L145 100L145 100L145 100L145 100L146 101L146 101L146 101L145 101L145 102L145 102L145 102L145 103L145 103L145 104L145 104L145 106L145 106L145 107L145 107L145 108L145 108L145 109L146 110L146 110L145 110L145 110L145 110L144 110L144 110L144 111L144 111L144 111L144 112L144 112L144 112L144 113L144 114L144 115L144 115L144 115L145 115L145 116L146 116L145 116L145 116L145 116V117L145 118L146 118L146 118L146 118L145 119L146 119L146 120L146 120L145 120L145 120V121L145 121L145 122L145 122L147 122L148 122L148 123L148 123L148 123L147 124L147 124L147 124L146 124L146 124L145 124L145 124L144 124L144 124L144 125L145 125L146 125L146 126L147 126L147 127L147 127L146 128L146 128L146 128L146 128L145 129L146 130L146 130L146 131L146 131L145 131L145 132L145 132L145 132L146 133L146 133L146 134L146 134L146 135L145 135L145 135L145 136L145 136L145 137L145 137L145 138L145 138L144 138L144 138L143 139L143 139L143 140L143 140L143 141L142 141L143 142L143 142L143 143L143 143L143 144L143 144L142 145L142 145L142 146L142 146L142 147L142 147L142 147L141 148L141 148L140 148L140 148L140 149L140 150L139 150L139 150L138 151L138 151L139 152L139 153L139 153L139 154L139 154L139 155L140 156L140 157L140 157L140 157L140 158L140 158L140 158L141 158L141 158L141 158L142 158L143 157L143 158L143 158L143 158L143 158L144 159L143 160L143 160L143 160L143 161L143 161L143 162L143 163L143 163L143 164L144 164L144 164L144 165L145 165L145 166L145 166L146 166L147 166L149 166L150 166L152 166L153 166L154 167H155L156 167L157 168L158 168L158 168L158 168L156 168L156 167L155 167L154 168L154 169L154 169L153 169L153 169L151 170L150 170L150 170L149 171L149 172L149 172L149 174L148 175L148 175L149 176L148 177L148 178L147 178L147 178L146 178L145 177L144 177L144 176L143 175L143 175L143 174L143 174L144 174L144 174L145 174L145 174L145 175L145 175L145 176L145 176L145 175L146 174L147 173L147 172L148 172L148 172L148 171L148 171L147 171L145 172L144 173L144 173L143 174L143 174L142 175L142 175L142 175L141 174L140 174L141 173L141 173L141 172L141 172L141 171L142 171L142 171L142 171L142 171L143 171L144 170L145 170L145 170L146 170L146 170L146 170L146 170L145 169L144 169L143 169L143 170L143 170L143 170L142 169L142 169L142 170L142 170L141 170L141 171L141 172L141 172L141 172L140 173L140 173L139 173L139 172L139 172L138 171L139 171L140 170L140 170L140 169L140 169L140 169L140 170L140 170L139 170L138 170L138 170L137 170L137 170L137 170L137 169L137 168L136 168L136 168L136 168L136 167L136 167L136 167L136 167L136 167L136 167L137 167L137 167L138 167L138 167L138 167L138 166H138L139 167L139 167L139 167L140 167L140 167L141 166L141 166L142 166L142 166L142 166L142 166L142 167L142 167L142 167L142 168L142 168L142 168L142 168L142 168L142 168L142 168L142 168L142 167L142 167L142 166L142 166V166L142 165L143 165L143 164L142 164L142 163L140 162L140 163L140 163L140 163L140 163L142 164L142 164L142 164L142 164L142 165L141 165L140 166L139 166L139 166L138 166L138 165L138 165L138 165L137 165L137 164L137 165L136 164L136 164L136 163L137 164L137 162L137 161L136 161L136 161L136 161L135 161L135 161L134 161L134 160L134 160L133 159L133 158L133 158L134 158L134 158L134 158L134 157L134 157L134 156L134 156L135 156L135 157L136 157L136 158L136 159L136 159L137 159L138 159L138 159L138 158L138 158L138 158L138 158L138 157L138 157L138 157L138 157L137 158L137 159L136 158L136 158L136 157L136 157L137 157L137 157L136 156L135 156L135 156L135 155L134 155L135 154L136 154L137 154L137 154L137 153L136 154L136 153L136 152L136 152L136 151L136 151L136 151L137 151L137 152L137 151L137 151L137 151L136 150L136 150L137 150L137 149L137 149L137 148L137 148L137 148L137 148L137 148L137 148L136 149L136 149L136 150L136 150L136 151L136 151L136 150L135 150L135 150L135 148L135 147L136 146L136 145L136 145L136 145L137 145L137 145L136 144L136 145L136 145L135 145L135 144L135 144L134 143L135 142L135 142L136 142L137 142L139 143L139 143L139 143L139 143L138 142L138 142L138 142L138 141L138 140L138 140L138 141L137 141L137 142L136 142L136 142L136 142L135 141L135 141L135 141L135 141L134 141L134 140L134 140L135 140L135 140L135 140L136 140L136 140L136 140L136 140L136 140L136 140L136 139L135 139L135 138L136 138L136 137L136 137L136 136L136 136L136 135L135 135L135 135L135 135L135 136L135 136L135 136L134 136L134 135L133 135L133 135L133 134L133 134L133 134L132 134L132 134L131 134L131 135L131 135L131 135L131 135L132 136L131 136L131 136L131 136L130 136L130 135L130 135L130 134L131 134L132 133L132 133L133 132L133 132L133 131L133 131L133 130L134 130L134 130L135 130L135 130L136 130L136 130L136 129L136 129L136 129L136 129L136 128L136 128L137 128L137 128L137 128L138 128L137 128L137 128L137 130L137 130L137 130L137 131L136 132L135 132L135 132L135 132L136 132L136 132L137 132L137 131L137 130L138 130L138 130L138 130L138 131L138 131L138 133L137 134L137 134L137 134L137 134L138 134L138 133L138 132L138 132L138 132L138 131L138 130L138 130L138 129L138 129L138 129L138 128L138 128L139 127L140 127L140 127L141 128L141 128L141 128L141 128L140 127L140 127L139 127L139 126L139 125L140 125L140 125L142 124L142 123L142 122L141 122L141 122L140 121L140 121L140 120L140 119L140 119L141 118L140 117L140 116L141 116L141 115L141 115L142 115L142 115L142 114L141 114L141 113L142 112L142 112L142 112L142 112L142 111L142 111L142 111L142 110L142 111L143 112L143 112L143 110L143 109L142 110L142 109L142 109L141 109L142 109L142 108L142 108L143 108L143 108L143 107L143 107L143 108L142 108L142 108L142 108L141 107L141 107L141 107L141 107L140 108L140 108L139 108L138 108L138 108L138 108L138 108L138 108L138 107L138 107L138 107L137 107L137 106L137 105L137 104L137 104L138 102L138 101L138 100L138 99L139 99L139 98L140 96L140 95L139 92L139 92L139 91L139 90L139 90L139 89L138 88L138 87L138 87L138 86L138 86L138 86L139 86L140 86L140 85L140 85L140 84L140 84L140 83L141 83L141 82L141 82L142 80L142 79L142 79L142 78L142 78L143 77L143 77L143 76L144 76L144 75L144 73L144 72L145 72L144 71L145 70L145 70L145 70L146 69L146 68L146 68L146 67L146 66L146 66L146 66L147 64L147 64L147 63L146 62L146 60L146 59L146 58L146 57L146 56L146 55L146 54L147 53L147 52L147 51L147 50L147 50L146 49L146 48L146 47L147 47L147 47L147 46L148 45L148 44L148 43L148 42L149 42L149 42L149 42L149 41L149 40L149 39L149 39L150 38L150 37L150 36L150 36L150 35L150 34L150 34L150 33L150 33L150 32L150 32L150 32L150 30L150 29L150 28L150 27L150 26L150 26L150 26L151 25L151 25L151 25L150 24L150 24L150 24L150 23L150 23L150 23L151 22L151 22L151 21L151 19L152 18L152 18L152 17L152 16L152 16L152 15L152 13L152 12L152 11L152 9L152 9L152 8L151 8L151 7L151 5L151 4L151 4L151 3L151 3L151 3L152 3L152 3L152 3L153 2L153 2V2L153 1L153 1L153 1L154 1L154 0L154 0L154 0L155 1L155 2L155 2L156 2L156 2L156 2L156 3L156 3L156 3L156 3L156 4L156 4L156 5L156 5L156 6L156 6L156 6L157 6L157 7L157 7L158 7L158 7L158 8L158 8L158 8L158 8L158 8L157 9L157 9L158 10L158 10L158 10L158 10L157 10L157 10L157 10L157 11L157 11L157 11L157 12L157 12L157 12L157 12L157 12L158 13L158 13L158 13L158 13L158 13L158 14L158 14L158 14L158 14L159 15L159 15L159 16L159 17L160 17L160 18L160 18L160 18L160 19L160 19L160 20L160 20L160 21L160 21L160 22L160 22L161 22L161 22L161 22L162 22L162 22L163 22ZM1 40L0 40L0 40L0 40L1 40L1 40L1 40ZM118 69L118 69L118 69L118 69L118 69L118 68L118 68L118 68L118 69L118 69L118 69L118 69L118 69ZM138 116L137 117L137 117L137 117L136 117L136 116L135 116L135 116L135 116L136 115L136 114L136 112L136 112L136 112L136 111L136 111L136 111L136 111L136 110L137 110L137 110L137 109L137 109L137 109L137 108L138 109L139 109L139 109L139 110L139 110L139 110L139 111L139 111L139 112L139 112L138 112L138 112L138 112L138 112L138 112L138 113L138 113L138 113L139 114L139 114L139 115L139 115L138 115L138 116L138 116L138 116ZM134 118L134 118L134 118L134 118L134 118L134 118L134 118L134 118L134 118L134 118ZM138 119L138 119L137 119L137 119L137 120L137 120L136 119L136 119L136 119L137 119L137 119L137 119L138 119ZM138 122L138 122L137 122L137 123L137 123L137 123L137 124L137 124L138 124L138 125L138 125L138 126L138 126L138 126L138 126L138 127L138 127L138 127L137 127L137 127L137 127L136 127L136 126L136 126L136 126L136 125L135 125L135 124L134 123L135 123L135 122L135 122L136 122L136 122L136 122L136 122L136 121L136 121L137 121L137 121L137 121L138 121L138 121L138 122L138 122ZM141 124L140 125L139 124L139 124L139 124L139 123L139 123L140 123L140 123L140 122L140 122L140 122L140 122L141 122L141 122L142 123L142 123L141 123L141 124L141 124ZM138 124L138 124L138 124L138 124L138 124L138 124L138 124L138 123L138 123L138 123L138 123L138 123L138 124L138 124L138 124ZM133 125L133 125L133 125L132 125L132 124L132 124H133L133 124L133 125L133 125ZM136 129L135 129L135 130L135 129L134 129L134 129L134 129L135 128L135 128L135 127L135 127L135 126L136 126L136 127L136 128L136 128L136 129L136 129L136 129ZM132 141L132 141L132 141L132 141L132 140L133 140L133 140L133 140L133 141L133 141L133 141L132 141ZM135 146L134 146L134 146L133 146L133 145L133 144L133 144L132 144L132 143L132 143L132 142L132 142L132 142L133 142L133 141L134 141L134 142L134 142L134 143L134 143L134 143L134 144L134 144L134 144L134 144L134 144L135 146ZM131 146L130 146L130 146L131 144L131 143L131 143L131 143L131 142L131 142L132 142L132 143L132 144L132 146L132 146L131 146L131 146ZM135 149L135 150L135 150L135 152L135 152L135 152L135 152L135 152L135 153L135 153L135 154L134 154L134 154L134 154L134 153L134 153L134 153L133 152L133 152L134 152L134 151L134 151L134 151L134 150L134 150L134 150L134 150L133 151L133 151L133 151L133 152L133 153L133 153L132 153L132 153L131 152L131 152L131 152L131 152L132 152L132 151L132 151L131 150L131 150L131 150L132 149L132 149L132 150L133 150L133 149L132 149L132 148L133 148L133 148L133 147L133 147L133 147L133 146L134 146L134 146L134 146L135 146L135 146L135 147L135 149ZM132 147L132 147L132 148L131 149L131 149L131 149L130 149L131 149L131 148L131 148L131 148L131 148L130 148L131 147L131 147L131 147L131 147L132 147L132 147L132 146L132 147ZM133 156L132 156L132 156L131 156L131 155L131 155L132 155L132 154L132 154L132 154L132 154L133 154L133 154L134 155L133 155L133 156ZM132 158L132 158L131 158L131 158L131 158L131 158L131 157L131 157L131 157L132 157L132 157L132 157L132 157L132 157L132 157L132 158ZM135 162L135 162L134 162L134 162L134 162L134 162L134 162L134 162L133 162L133 162L132 163L132 163L132 164L132 163L132 163L132 162L132 162L133 162L133 162L134 161L134 161L135 161L135 162ZM134 164L134 165L134 165L134 165L135 166L135 166L134 167L134 168L134 168L133 167L133 166L133 165L132 165L133 164L133 164L133 164L134 164ZM136 166L136 166L136 166L136 165L135 165L135 165L135 164L135 164L135 164L136 165L136 165L136 165L136 165L136 165L136 166ZM158 170L158 172L158 174L158 176L158 177L158 179L158 181L158 183L158 184H157L157 184L156 185L154 184L154 184L153 183L153 184L153 184L152 184L152 184L151 184L151 184L151 184L150 184L149 184L149 184L148 183L147 183L145 183L145 183L145 182L145 182L145 182L145 182L146 182L146 182L146 182L146 182L147 181L147 181L148 182L148 182L148 182L149 181L149 181L149 181L149 181L150 181L150 182L150 182L150 182L151 182L151 182L151 182L150 181L150 181L150 180L149 180L149 180L149 179L149 178L150 178L150 177L150 176L150 176L150 178L151 179L150 179L150 179L150 180L151 180L151 181L151 181L152 181L152 181L153 181L153 181L153 181L154 181L154 181L155 182L155 182L155 182L155 182L155 182L156 182L156 182L156 182L156 182L156 181L155 181L152 180L152 179L152 178L152 177L152 177L152 177L153 176L155 176L155 175L155 175L155 175L154 174L154 174L153 174L153 174L152 175L151 175L151 175L151 174L150 174L150 173L150 173L151 172L151 172L151 172L152 172L152 172L152 172L152 172L152 172L151 171L151 171L151 171L151 171L152 170L152 171L152 171L152 171L153 171L153 171L154 170L154 169L154 169L154 169L156 170L156 170L157 170L157 170L157 170L158 170ZM135 172L135 172L136 172L136 172L137 172L137 172L138 173L138 173L138 173L139 173L139 173L140 174L140 174L140 174L140 175L140 175L139 174L139 174L138 174L138 174L138 174L138 174L138 173L137 173L137 173L136 173L136 173L136 173L135 172L135 172L134 171L134 171L134 171L134 171L135 171L135 171L135 171L135 172ZM141 175L141 176L141 176L141 176L142 176L143 176L143 176L143 177L143 177L144 178L143 178L143 178L143 179L143 179L143 179L142 179L142 179L142 179L141 180L141 180L141 180L141 179L141 179L141 179L142 178L142 178L141 178L141 178L141 178L140 178L140 178L140 178L140 179L140 179L140 179L140 179L140 178L140 178L140 178L140 177L140 177L139 177L139 177L139 177L138 176L138 176L137 176L138 175L139 175L139 175L140 176L140 175L140 175L140 175L140 175L141 175L141 175L141 175L141 175ZM147 179L148 180L148 180L148 180L148 180L148 181L148 181L148 181L148 181L147 181L147 180L146 180L146 180L146 180L145 181L145 181L145 180L144 180L144 179L144 178L144 178L144 178L146 178L146 178L147 179ZM148 184L149 185L149 185L149 185L149 185L150 185L150 185L151 185L151 186L151 186L151 186L150 186L150 186L150 186L150 186L150 186L150 186L150 186L149 186L149 186L149 186L148 186L148 185L148 185L148 185L148 185L147 185L147 185L147 185L147 185L147 185L147 185L147 185L147 184L147 184L148 184L148 184L148 184ZM153 185L156 186L157 185L158 185L158 186L158 186L158 186L158 187L158 187L159 187L159 187L159 187L159 188L159 188L159 188L160 189L160 189L160 189L160 190L160 190L159 190L159 189L159 189L159 189L158 189L158 188L157 188L157 188L157 188L156 188L156 188L156 188L156 187L156 187L156 187L156 187L156 187L156 187L155 186L155 186L155 187L155 187L155 188L155 189L155 189L154 188L154 188L154 188L154 188L154 188L154 187L154 187L154 187L153 187L153 187L153 187L153 186L152 186L152 186L152 186L153 186L153 185L153 185ZM164 186L163 187L163 187L163 187L162 187L162 187L162 187L162 187L162 187L162 186L162 187L162 187L161 187L161 187L161 187L160 187L160 187L159 186L159 186L159 185L160 185L160 185L162 185L163 185L163 186L164 186L164 186ZM166 187L166 187L165 187L165 187L165 187L165 187L165 187L166 186L166 186L166 187L166 187ZM163 191L163 191L162 190L162 190L162 190L162 190L162 190L162 190L162 190L162 189L162 189L162 190L163 190L163 190L163 190L163 191ZM162 191L162 191L161 191L161 191L161 191L161 191L161 191L161 191L162 191L162 191L162 191L162 191L162 191Z"/></mask><path d="M163 22L164 22L164 23L163 25L163 26L162 26L162 27L162 27L160 28L160 28L159 28L159 28L159 29L158 29L158 29L158 29L158 30V30L158 30L158 30L158 31L158 31L158 31L158 31L158 31L158 32L158 32L158 33L158 33L158 34L158 34L158 35L158 36L158 36L158 37L158 37L158 37L158 37L158 38L158 38L159 39V39L159 39L158 40L158 40L158 40L158 40L157 40L157 40L157 40L157 40L156 41L156 41L156 42L156 42L156 43L155 43L155 44L155 44L154 44L154 44L154 44L154 45L154 45L154 46L153 46L153 47L153 48L153 48L153 49L152 49L152 49L152 50L152 51L152 52L152 52L152 53L152 53L153 53L153 53L153 53L153 54L152 54L152 54L152 54L152 54L152 54L152 55L151 55L151 56L151 56L151 57L151 57L151 57L151 57L151 57L151 57L150 57L150 58L150 58L150 58L150 59L150 59L150 60L150 61L151 61L151 61L151 61L151 61L151 62L151 62L151 62L151 62L151 63L151 63L151 63L152 64L152 64L152 65L152 65L152 65L152 66L152 66L152 66L152 67L152 67L152 67L153 67L153 67L153 68L153 68L153 68L153 69L153 69L153 70L153 71L153 71L153 72L153 72L152 72L152 72L152 72L152 72L152 72L152 73L151 73L151 74L151 74L151 74L151 74L151 75L151 76L150 76L150 76L150 76L150 77L150 77L150 77L150 77L151 78L151 78L151 79L151 79L151 80L151 80L150 80L150 80L150 81L150 81L149 82L149 82L149 82H149L149 82L148 82L148 82L148 83L148 83L148 83L148 84L148 84L148 84L148 85L148 85L148 86L148 86L148 86L148 87L148 87L148 88L148 88L148 89L148 90L148 90L148 91L148 92L149 92L149 92L149 92L149 93L149 93L148 93L148 93L147 94L147 94L147 94L147 94L147 95L147 96L147 96L146 97L146 97L146 97L146 97L146 97L146 97L146 97L146 98L146 98L146 98L146 99L146 99L146 99L146 100L145 100L145 100L145 100L145 100L146 101L146 101L146 101L145 101L145 102L145 102L145 102L145 103L145 103L145 104L145 104L145 106L145 106L145 107L145 107L145 108L145 108L145 109L146 110L146 110L145 110L145 110L145 110L144 110L144 110L144 111L144 111L144 111L144 112L144 112L144 112L144 113L144 114L144 115L144 115L144 115L145 115L145 116L146 116L145 116L145 116L145 116V117L145 118L146 118L146 118L146 118L145 119L146 119L146 120L146 120L145 120L145 120V121L145 121L145 122L145 122L147 122L148 122L148 123L148 123L148 123L147 124L147 124L147 124L146 124L146 124L145 124L145 124L144 124L144 124L144 125L145 125L146 125L146 126L147 126L147 127L147 127L146 128L146 128L146 128L146 128L145 129L146 130L146 130L146 131L146 131L145 131L145 132L145 132L145 132L146 133L146 133L146 134L146 134L146 135L145 135L145 135L145 136L145 136L145 137L145 137L145 138L145 138L144 138L144 138L143 139L143 139L143 140L143 140L143 141L142 141L143 142L143 142L143 143L143 143L143 144L143 144L142 145L142 145L142 146L142 146L142 147L142 147L142 147L141 148L141 148L140 148L140 148L140 149L140 150L139 150L139 150L138 151L138 151L139 152L139 153L139 153L139 154L139 154L139 155L140 156L140 157L140 157L140 157L140 158L140 158L140 158L141 158L141 158L141 158L142 158L143 157L143 158L143 158L143 158L143 158L144 159L143 160L143 160L143 160L143 161L143 161L143 162L143 163L143 163L143 164L144 164L144 164L144 165L145 165L145 166L145 166L146 166L147 166L149 166L150 166L152 166L153 166L154 167H155L156 167L157 168L158 168L158 168L158 168L156 168L156 167L155 167L154 168L154 169L154 169L153 169L153 169L151 170L150 170L150 170L149 171L149 172L149 172L149 174L148 175L148 175L149 176L148 177L148 178L147 178L147 178L146 178L145 177L144 177L144 176L143 175L143 175L143 174L143 174L144 174L144 174L145 174L145 174L145 175L145 175L145 176L145 176L145 175L146 174L147 173L147 172L148 172L148 172L148 171L148 171L147 171L145 172L144 173L144 173L143 174L143 174L142 175L142 175L142 175L141 174L140 174L141 173L141 173L141 172L141 172L141 171L142 171L142 171L142 171L142 171L143 171L144 170L145 170L145 170L146 170L146 170L146 170L146 170L145 169L144 169L143 169L143 170L143 170L143 170L142 169L142 169L142 170L142 170L141 170L141 171L141 172L141 172L141 172L140 173L140 173L139 173L139 172L139 172L138 171L139 171L140 170L140 170L140 169L140 169L140 169L140 170L140 170L139 170L138 170L138 170L137 170L137 170L137 170L137 169L137 168L136 168L136 168L136 168L136 167L136 167L136 167L136 167L136 167L136 167L137 167L137 167L138 167L138 167L138 167L138 166H138L139 167L139 167L139 167L140 167L140 167L141 166L141 166L142 166L142 166L142 166L142 166L142 167L142 167L142 167L142 168L142 168L142 168L142 168L142 168L142 168L142 168L142 168L142 167L142 167L142 166L142 166V166L142 165L143 165L143 164L142 164L142 163L140 162L140 163L140 163L140 163L140 163L142 164L142 164L142 164L142 164L142 165L141 165L140 166L139 166L139 166L138 166L138 165L138 165L138 165L137 165L137 164L137 165L136 164L136 164L136 163L137 164L137 162L137 161L136 161L136 161L136 161L135 161L135 161L134 161L134 160L134 160L133 159L133 158L133 158L134 158L134 158L134 158L134 157L134 157L134 156L134 156L135 156L135 157L136 157L136 158L136 159L136 159L137 159L138 159L138 159L138 158L138 158L138 158L138 158L138 157L138 157L138 157L138 157L137 158L137 159L136 158L136 158L136 157L136 157L137 157L137 157L136 156L135 156L135 156L135 155L134 155L135 154L136 154L137 154L137 154L137 153L136 154L136 153L136 152L136 152L136 151L136 151L136 151L137 151L137 152L137 151L137 151L137 151L136 150L136 150L137 150L137 149L137 149L137 148L137 148L137 148L137 148L137 148L137 148L136 149L136 149L136 150L136 150L136 151L136 151L136 150L135 150L135 150L135 148L135 147L136 146L136 145L136 145L136 145L137 145L137 145L136 144L136 145L136 145L135 145L135 144L135 144L134 143L135 142L135 142L136 142L137 142L139 143L139 143L139 143L139 143L138 142L138 142L138 142L138 141L138 140L138 140L138 141L137 141L137 142L136 142L136 142L136 142L135 141L135 141L135 141L135 141L134 141L134 140L134 140L135 140L135 140L135 140L136 140L136 140L136 140L136 140L136 140L136 140L136 139L135 139L135 138L136 138L136 137L136 137L136 136L136 136L136 135L135 135L135 135L135 135L135 136L135 136L135 136L134 136L134 135L133 135L133 135L133 134L133 134L133 134L132 134L132 134L131 134L131 135L131 135L131 135L131 135L132 136L131 136L131 136L131 136L130 136L130 135L130 135L130 134L131 134L132 133L132 133L133 132L133 132L133 131L133 131L133 130L134 130L134 130L135 130L135 130L136 130L136 130L136 129L136 129L136 129L136 129L136 128L136 128L137 128L137 128L137 128L138 128L137 128L137 128L137 130L137 130L137 130L137 131L136 132L135 132L135 132L135 132L136 132L136 132L137 132L137 131L137 130L138 130L138 130L138 130L138 131L138 131L138 133L137 134L137 134L137 134L137 134L138 134L138 133L138 132L138 132L138 132L138 131L138 130L138 130L138 129L138 129L138 129L138 128L138 128L139 127L140 127L140 127L141 128L141 128L141 128L141 128L140 127L140 127L139 127L139 126L139 125L140 125L140 125L142 124L142 123L142 122L141 122L141 122L140 121L140 121L140 120L140 119L140 119L141 118L140 117L140 116L141 116L141 115L141 115L142 115L142 115L142 114L141 114L141 113L142 112L142 112L142 112L142 112L142 111L142 111L142 111L142 110L142 111L143 112L143 112L143 110L143 109L142 110L142 109L142 109L141 109L142 109L142 108L142 108L143 108L143 108L143 107L143 107L143 108L142 108L142 108L142 108L141 107L141 107L141 107L141 107L140 108L140 108L139 108L138 108L138 108L138 108L138 108L138 108L138 107L138 107L138 107L137 107L137 106L137 105L137 104L137 104L138 102L138 101L138 100L138 99L139 99L139 98L140 96L140 95L139 92L139 92L139 91L139 90L139 90L139 89L138 88L138 87L138 87L138 86L138 86L138 86L139 86L140 86L140 85L140 85L140 84L140 84L140 83L141 83L141 82L141 82L142 80L142 79L142 79L142 78L142 78L143 77L143 77L143 76L144 76L144 75L144 73L144 72L145 72L144 71L145 70L145 70L145 70L146 69L146 68L146 68L146 67L146 66L146 66L146 66L147 64L147 64L147 63L146 62L146 60L146 59L146 58L146 57L146 56L146 55L146 54L147 53L147 52L147 51L147 50L147 50L146 49L146 48L146 47L147 47L147 47L147 46L148 45L148 44L148 43L148 42L149 42L149 42L149 42L149 41L149 40L149 39L149 39L150 38L150 37L150 36L150 36L150 35L150 34L150 34L150 33L150 33L150 32L150 32L150 32L150 30L150 29L150 28L150 27L150 26L150 26L150 26L151 25L151 25L151 25L150 24L150 24L150 24L150 23L150 23L150 23L151 22L151 22L151 21L151 19L152 18L152 18L152 17L152 16L152 16L152 15L152 13L152 12L152 11L152 9L152 9L152 8L151 8L151 7L151 5L151 4L151 4L151 3L151 3L151 3L152 3L152 3L152 3L153 2L153 2V2L153 1L153 1L153 1L154 1L154 0L154 0L154 0L155 1L155 2L155 2L156 2L156 2L156 2L156 3L156 3L156 3L156 3L156 4L156 4L156 5L156 5L156 6L156 6L156 6L157 6L157 7L157 7L158 7L158 7L158 8L158 8L158 8L158 8L158 8L157 9L157 9L158 10L158 10L158 10L158 10L157 10L157 10L157 10L157 11L157 11L157 11L157 12L157 12L157 12L157 12L157 12L158 13L158 13L158 13L158 13L158 13L158 14L158 14L158 14L158 14L159 15L159 15L159 16L159 17L160 17L160 18L160 18L160 18L160 19L160 19L160 20L160 20L160 21L160 21L160 22L160 22L161 22L161 22L161 22L162 22L162 22L163 22ZM1 40L0 40L0 40L0 40L1 40L1 40L1 40ZM118 69L118 69L118 69L118 69L118 69L118 68L118 68L118 68L118 69L118 69L118 69L118 69L118 69ZM138 116L137 117L137 117L137 117L136 117L136 116L135 116L135 116L135 116L136 115L136 114L136 112L136 112L136 112L136 111L136 111L136 111L136 111L136 110L137 110L137 110L137 109L137 109L137 109L137 108L138 109L139 109L139 109L139 110L139 110L139 110L139 111L139 111L139 112L139 112L138 112L138 112L138 112L138 112L138 112L138 113L138 113L138 113L139 114L139 114L139 115L139 115L138 115L138 116L138 116L138 116ZM134 118L134 118L134 118L134 118L134 118L134 118L134 118L134 118L134 118L134 118ZM138 119L138 119L137 119L137 119L137 120L137 120L136 119L136 119L136 119L137 119L137 119L137 119L138 119ZM138 122L138 122L137 122L137 123L137 123L137 123L137 124L137 124L138 124L138 125L138 125L138 126L138 126L138 126L138 126L138 127L138 127L138 127L137 127L137 127L137 127L136 127L136 126L136 126L136 126L136 125L135 125L135 124L134 123L135 123L135 122L135 122L136 122L136 122L136 122L136 122L136 121L136 121L137 121L137 121L137 121L138 121L138 121L138 122L138 122ZM141 124L140 125L139 124L139 124L139 124L139 123L139 123L140 123L140 123L140 122L140 122L140 122L140 122L141 122L141 122L142 123L142 123L141 123L141 124L141 124ZM138 124L138 124L138 124L138 124L138 124L138 124L138 124L138 123L138 123L138 123L138 123L138 123L138 124L138 124L138 124ZM133 125L133 125L133 125L132 125L132 124L132 124H133L133 124L133 125L133 125ZM136 129L135 129L135 130L135 129L134 129L134 129L134 129L135 128L135 128L135 127L135 127L135 126L136 126L136 127L136 128L136 128L136 129L136 129L136 129ZM132 141L132 141L132 141L132 141L132 140L133 140L133 140L133 140L133 141L133 141L133 141L132 141ZM135 146L134 146L134 146L133 146L133 145L133 144L133 144L132 144L132 143L132 143L132 142L132 142L132 142L133 142L133 141L134 141L134 142L134 142L134 143L134 143L134 143L134 144L134 144L134 144L134 144L134 144L135 146ZM131 146L130 146L130 146L131 144L131 143L131 143L131 143L131 142L131 142L132 142L132 143L132 144L132 146L132 146L131 146L131 146ZM135 149L135 150L135 150L135 152L135 152L135 152L135 152L135 152L135 153L135 153L135 154L134 154L134 154L134 154L134 153L134 153L134 153L133 152L133 152L134 152L134 151L134 151L134 151L134 150L134 150L134 150L134 150L133 151L133 151L133 151L133 152L133 153L133 153L132 153L132 153L131 152L131 152L131 152L131 152L132 152L132 151L132 151L131 150L131 150L131 150L132 149L132 149L132 150L133 150L133 149L132 149L132 148L133 148L133 148L133 147L133 147L133 147L133 146L134 146L134 146L134 146L135 146L135 146L135 147L135 149ZM132 147L132 147L132 148L131 149L131 149L131 149L130 149L131 149L131 148L131 148L131 148L131 148L130 148L131 147L131 147L131 147L131 147L132 147L132 147L132 146L132 147ZM133 156L132 156L132 156L131 156L131 155L131 155L132 155L132 154L132 154L132 154L132 154L133 154L133 154L134 155L133 155L133 156ZM132 158L132 158L131 158L131 158L131 158L131 158L131 157L131 157L131 157L132 157L132 157L132 157L132 157L132 157L132 157L132 158ZM135 162L135 162L134 162L134 162L134 162L134 162L134 162L134 162L133 162L133 162L132 163L132 163L132 164L132 163L132 163L132 162L132 162L133 162L133 162L134 161L134 161L135 161L135 162ZM134 164L134 165L134 165L134 165L135 166L135 166L134 167L134 168L134 168L133 167L133 166L133 165L132 165L133 164L133 164L133 164L134 164ZM136 166L136 166L136 166L136 165L135 165L135 165L135 164L135 164L135 164L136 165L136 165L136 165L136 165L136 165L136 166ZM158 170L158 172L158 174L158 176L158 177L158 179L158 181L158 183L158 184H157L157 184L156 185L154 184L154 184L153 183L153 184L153 184L152 184L152 184L151 184L151 184L151 184L150 184L149 184L149 184L148 183L147 183L145 183L145 183L145 182L145 182L145 182L145 182L146 182L146 182L146 182L146 182L147 181L147 181L148 182L148 182L148 182L149 181L149 181L149 181L149 181L150 181L150 182L150 182L150 182L151 182L151 182L151 182L150 181L150 181L150 180L149 180L149 180L149 179L149 178L150 178L150 177L150 176L150 176L150 178L151 179L150 179L150 179L150 180L151 180L151 181L151 181L152 181L152 181L153 181L153 181L153 181L154 181L154 181L155 182L155 182L155 182L155 182L155 182L156 182L156 182L156 182L156 182L156 181L155 181L152 180L152 179L152 178L152 177L152 177L152 177L153 176L155 176L155 175L155 175L155 175L154 174L154 174L153 174L153 174L152 175L151 175L151 175L151 174L150 174L150 173L150 173L151 172L151 172L151 172L152 172L152 172L152 172L152 172L152 172L151 171L151 171L151 171L151 171L152 170L152 171L152 171L152 171L153 171L153 171L154 170L154 169L154 169L154 169L156 170L156 170L157 170L157 170L157 170L158 170ZM135 172L135 172L136 172L136 172L137 172L137 172L138 173L138 173L138 173L139 173L139 173L140 174L140 174L140 174L140 175L140 175L139 174L139 174L138 174L138 174L138 174L138 174L138 173L137 173L137 173L136 173L136 173L136 173L135 172L135 172L134 171L134 171L134 171L134 171L135 171L135 171L135 171L135 172ZM141 175L141 176L141 176L141 176L142 176L143 176L143 176L143 177L143 177L144 178L143 178L143 178L143 179L143 179L143 179L142 179L142 179L142 179L141 180L141 180L141 180L141 179L141 179L141 179L142 178L142 178L141 178L141 178L141 178L140 178L140 178L140 178L140 179L140 179L140 179L140 179L140 178L140 178L140 178L140 177L140 177L139 177L139 177L139 177L138 176L138 176L137 176L138 175L139 175L139 175L140 176L140 175L140 175L140 175L140 175L141 175L141 175L141 175L141 175ZM147 179L148 180L148 180L148 180L148 180L148 181L148 181L148 181L148 181L147 181L147 180L146 180L146 180L146 180L145 181L145 181L145 180L144 180L144 179L144 178L144 178L144 178L146 178L146 178L147 179ZM148 184L149 185L149 185L149 185L149 185L150 185L150 185L151 185L151 186L151 186L151 186L150 186L150 186L150 186L150 186L150 186L150 186L150 186L149 186L149 186L149 186L148 186L148 185L148 185L148 185L148 185L147 185L147 185L147 185L147 185L147 185L147 185L147 185L147 184L147 184L148 184L148 184L148 184ZM153 185L156 186L157 185L158 185L158 186L158 186L158 186L158 187L158 187L159 187L159 187L159 187L159 188L159 188L159 188L160 189L160 189L160 189L160 190L160 190L159 190L159 189L159 189L159 189L158 189L158 188L157 188L157 188L157 188L156 188L156 188L156 188L156 187L156 187L156 187L156 187L156 187L156 187L155 186L155 186L155 187L155 187L155 188L155 189L155 189L154 188L154 188L154 188L154 188L154 188L154 187L154 187L154 187L153 187L153 187L153 187L153 186L152 186L152 186L152 186L153 186L153 185L153 185ZM164 186L163 187L163 187L163 187L162 187L162 187L162 187L162 187L162 187L162 186L162 187L162 187L161 187L161 187L161 187L160 187L160 187L159 186L159 186L159 185L160 185L160 185L162 185L163 185L163 186L164 186L164 186ZM166 187L166 187L165 187L165 187L165 187L165 187L165 187L166 186L166 186L166 187L166 187ZM163 191L163 191L162 190L162 190L162 190L162 190L162 190L162 190L162 190L162 189L162 189L162 190L163 190L163 190L163 190L163 191ZM162 191L162 191L161 191L161 191L161 191L161 191L161 191L161 191L162 191L162 191L162 191L162 191L162 191Z" fill="var(--fill-0,#71B219)" stroke="var(--stroke-0,white)" mask="url(#path-1-inside-1_0_87)"/></g></svg>