<svg preserveAspectRatio="none" width="100%" height="100%" overflow="visible" style="display: block;" viewBox="0 0 166.009 191.398" fill="none" xmlns="http://www.w3.org/2000/svg">
<g id="CL">
<mask id="path-1-inside-1_0_87" fill="white">
<path d="M163.08 21.6874L163.798 22.4336L163.486 23.4487L162.987 25.0713L162.601 26.3291L162.538 26.4979L162.458 26.7448L161.626 27.1028L160.413 27.624L159.791 27.8969L159.008 28.2481L158.818 28.5348L158.591 28.6898L158.342 28.89L158.247 29.1095L158.015 29.2481L157.804 29.7432V30.1231L157.939 30.3824L158.173 30.4922L158.247 30.8049L158.322 31.0244L158.491 31.1972L158.448 31.3357L158.311 31.44L158.058 31.4976L157.886 31.8103L157.687 32.5867L157.656 32.8651L157.881 33.5688L158.001 33.9487L158.326 35.33L158.374 35.7058L157.928 36.2326L157.751 36.5521L157.687 36.8347L157.69 37.0583L157.73 37.2627L158.102 37.9143L158.532 38.4972L158.744 38.8017V39.2132L158.638 39.4478L158.408 39.5342L157.899 39.6946L157.687 39.9292L157.455 39.9649L157.233 39.7769L157.002 39.8236L156.707 39.9882L156.595 40.3887L156.337 41.0718L156.115 41.2597L155.95 41.7823L155.656 42.5327L155.514 42.9853L155.44 43.3172L155.142 43.5299L154.797 43.951L154.532 44.361L154.426 44.4804L154.225 44.5161L154.078 44.885L153.577 45.4419L153.457 46.0893L153.276 46.4337L153.244 47.0577L152.967 48.2018L152.917 48.4555L152.637 48.6558L152.269 49.1001L152.149 49.4252L152.32 50.3991L152.531 51.3854L152.545 51.8476L152.463 52.4772L152.406 52.7515L152.546 52.8654L152.779 52.9381L152.853 53.1795L152.684 53.3496L152.61 53.6527L152.42 53.9929L151.857 54.1273L151.659 54.0052L151.596 54.115L151.628 54.3578L151.502 54.6444L151.211 55.4125L151.018 56.1108L150.907 56.4166L150.952 56.6731L151.047 56.8185L151.057 56.953L150.897 57.123L150.751 57.3933L150.593 57.4303L150.424 57.3576L150.245 57.5167L150.209 57.85L150.11 58.2738L150.065 58.769L149.992 59.4041L150.222 59.8403L150.512 60.6317L150.729 60.821L150.971 60.8087L151.161 60.9692L151.267 61.1544L151.125 61.4863L150.875 61.5384L150.843 61.7236L150.918 62.1447L151.013 62.5534L151.252 62.7496L151.361 63.2969L151.593 63.4835L151.564 64.1857L151.798 65.0115L152.046 65.2515L152.161 65.364L152.084 65.7261L151.888 66.0141L151.845 66.4764L151.919 66.8152L152.171 67.1348L152.368 67.1705L152.648 67.0401L152.944 67.1911L152.987 67.4668L153.029 67.7178L152.871 68.0443L152.702 68.6464L152.657 69.2471L152.706 70.162L152.783 70.874L152.8 71.3225L152.819 71.5255L152.713 71.6654L152.456 71.7367L152.237 71.7655L152.047 71.8794L152.004 72.1084L151.856 72.4884L151.703 72.771L151.435 73.1825L151.264 73.609L151.128 73.8902L151.141 74.0851L151.043 74.4595L150.942 74.7722L150.731 75.8257L150.447 76.0451L150.222 76.1535L150.106 76.2948L150.194 76.5815L150.433 76.6679L150.519 76.8983L150.487 77.259L150.645 77.5938L150.63 77.9998L150.783 78.7679L150.645 79.2713L150.692 79.7075L150.688 80.1396L150.487 80.477L150.076 80.5414L149.849 80.8528L149.462 81.1916L149.42 81.4646L149.356 81.7115L149.198 81.802H148.956L148.755 81.8404L148.474 82.1614L148.175 82.3342L148.106 82.5935L148.132 82.909L147.974 83.1051L147.773 83.4713L147.646 83.8636L147.773 84.2312L147.91 84.8883L147.931 85.164L147.758 85.7086L147.615 86.0597L147.752 86.5082L147.868 86.7592L147.759 87.3106L147.667 87.6576L147.741 88.2942L148.016 89.0101L148.279 89.648L148.318 90.3914L148.385 90.9826L148.51 91.6232L148.774 91.8783L148.975 92.0923L148.934 92.4009L148.787 92.7767L148.575 93.0593L148.052 93.1526L147.627 93.4077L147.284 93.5847L147.024 93.7986L146.837 94.0263L146.745 94.2759L146.807 95.3637L146.766 95.7656L146.591 96.3362L146.427 96.7971L146.357 96.9356L146.337 97.14L146.305 97.3306L146.122 97.3746L145.862 97.2895L145.715 97.3443L145.609 97.4939L145.698 97.8505L145.793 98.4801L145.925 98.7476L145.89 98.9602L145.84 99.4183L145.669 99.7832L145.441 99.7818L145.294 99.9327L145.231 100.193L145.299 100.533L145.599 100.812L145.705 100.99L145.652 101.225L145.419 101.321L145.281 101.514L145.151 101.944L144.976 102.429L144.79 102.788L144.755 103.281L145.019 103.808L144.99 104.323L144.971 105.839L144.944 106.355L145.026 107.211L144.924 107.447L144.87 107.672L145.129 108.296L145.416 109.308L145.493 109.711L145.452 109.994L145.065 110.234L144.745 110.334L144.555 110.164L144.429 110.234L144.281 110.532L144.112 110.773L144.049 111.013L144.228 111.326L144.323 111.922L144.122 112.179L143.975 112.464L144.028 112.835L144.091 113.505L143.965 114.621L144.136 115.018L144.32 115.209L144.922 115.437L145.375 115.55L145.495 115.922L145.444 116.224L145.226 116.373L144.899 116.504V116.992L145.178 117.452L145.495 117.785L145.563 118.085L145.546 118.393L145.324 118.65L145.628 119.209L145.767 119.587L145.628 119.879L145.43 120.318L145.257 120.528V120.767L145.185 121.252L145.169 121.728L145.226 122.012L147.135 122.237L147.571 122.325L147.809 122.609L147.774 122.966L147.536 123.346L147.384 124.06L147.009 124.18L146.635 123.989L146.229 124.055L145.877 124.101L145.371 124.122L144.698 124.214L144.287 124.108L144.252 124.37L144.372 124.824L145.258 124.967L146.092 125.23L146.342 125.712L146.682 126.258L147.029 126.596L147.045 127.149L146.5 127.728L146.433 128.138L145.718 128.259L145.514 128.5L145.412 129.3L145.497 129.931L145.77 130.149L145.957 130.562L145.753 131.049L145.272 131.385L145.015 131.706L145.176 131.962L145.393 132.368L145.453 132.589L145.572 133.19L145.711 134.03L145.694 134.437L145.566 134.741L145.087 135.222L144.764 135.444L144.701 136.038L144.676 136.482L144.709 136.884L144.917 137.205L144.9 137.529L144.616 137.597L144.372 137.752L144.134 138.326L143.441 138.913L143.197 139.176L143.214 139.627L142.94 140.273L142.71 140.837L142.534 141.364L142.569 141.919L142.959 142.163L143.266 142.705L143.402 143.39L143.164 144.178L142.611 144.476L142.284 144.812L142.185 145.067L142.271 145.897L142.248 146.288L142.161 146.656L142.018 146.941L141.72 147.259L141.192 147.538L140.743 147.73L140.542 147.949L140.307 148.433L140.098 148.968L140.15 149.631L138.89 149.709L138.805 150.203L138.532 150.592L138.447 151.297L138.724 151.979L138.856 152.553L138.63 153.245L138.713 153.958L138.737 154.528L139.18 155.161L139.469 155.947L139.614 156.613L139.7 157.132L139.816 157.448L139.997 157.806L140.081 158.22L140.354 158.355L140.843 157.968L141.189 157.706L141.43 157.613L142.137 157.674L142.563 157.43L142.756 157.456L143.016 157.593L143.218 157.881L143.371 158.536L143.464 159.27L143.344 160.02L143.145 160.183L143.078 160.398L143.145 160.858L143.367 161.182L143.362 161.645L143.118 162.7L142.958 163.135L143.241 163.626L143.494 164.063L144.005 164.39L144.424 164.854L144.713 165.238L144.645 165.759L144.847 165.917L145.627 165.928L146.792 165.945L148.613 165.971L150.391 165.998L152.409 166.035L153.365 166.454L154.23 166.834H155.32L156.408 167.284L157.216 167.582L157.7 167.693L158.196 167.801L158.265 168.217L156.088 167.627L155.599 167.306L155.185 167.269L154.39 167.67L153.951 168.626L153.721 168.897L153.17 169.155L152.614 169.206L150.747 170.137L150.083 170.217L149.629 170.465L149.186 170.822L149.015 171.591L149.084 172.06L148.579 173.746L148.454 174.69L148.451 175.171L148.596 175.96L148.41 177.314L148.074 177.61L147.245 177.99L146.681 177.714L145.715 177.467L145.027 176.945L144.142 176.576L143.859 176.359L143.078 175.317L142.994 174.972L142.937 174.538L143.35 173.919L143.571 173.874L144.218 173.893L144.756 173.793L145.1 174.125L145.195 174.849L145.043 175.236L144.906 175.474L144.949 175.657L145.335 175.403L145.532 173.782L146.846 172.978L147.276 172.509L147.696 171.787L147.76 171.582L147.792 171.311L147.513 171.089L146.892 170.794L144.922 172.307L144.03 172.706L143.455 173.141L142.758 173.923L142.626 174.155L142.479 174.676L142.409 175.251L141.723 174.989L140.674 174.158L140.464 173.853L140.674 173.428L140.993 173.074L141.015 171.89L141.097 171.476L141.318 171.145L141.72 170.782L141.919 170.697L142.088 170.855L142.11 171.132L142.779 171.111L144.076 170.067L144.61 170.043L145.314 170.276L146.11 170.135L146.253 170.029L146.418 169.785L145.825 169.498L145.257 169.353L143.66 169.253L143.314 169.364L142.841 169.914L142.684 169.777L142.584 169.498L142.042 169.302L141.782 169.342L141.533 169.606L141.573 170.019L141.434 170.461L140.932 170.9L140.59 171.599L140.607 172.145L140.579 172.429L140.454 172.58L140.196 172.761L139.363 172.638L138.893 172.064L138.71 171.674L138.177 171.25L139.333 170.724L139.739 170.425L140.11 169.76L140.387 169.336L140.19 169.04L139.959 169.039L139.981 169.512L139.726 169.899L139.194 169.715L138.409 170.289L137.926 170.136L137.139 170.305L136.754 169.995L136.671 169.602L136.81 169.194L136.666 168.502L136.448 168.335L136.227 168.373L136.128 167.963L135.888 167.243L135.782 167.048L135.668 166.715L135.786 166.633L136.057 166.727L136.294 166.944L136.654 166.971L137.448 167.441L137.778 167.328L137.957 167.221L138.025 166.832L138.029 166.463H138.165L138.616 166.934L138.902 166.891L139.409 167.015L139.666 166.965L140.141 166.789L140.888 166.271L141.275 165.736L141.461 165.663L141.691 165.731L141.845 165.885L141.848 166.257L142.022 166.602L142.26 166.884L142.326 167.229L142.278 167.568L141.853 168.045L141.773 168.211L141.917 168.388L142.093 168.305L142.335 168.069L142.472 167.745L142.509 167.576L142.525 167.335L142.507 167.041L142.161 166.209L142.117 166.021V165.645L142.511 165.298L142.622 165.029L142.64 164.509L142.437 164.151L141.592 163.328L140.18 162.505L140.018 162.592L139.908 162.741L140.039 162.848L140.226 162.903L141.483 163.582L141.811 163.976L142.025 164.081L142.28 164.342L142.215 164.726L140.948 165.102L139.944 165.917L139.193 166.412L138.671 166.231L138.424 165.729L138.161 165.08L137.766 164.703L137.542 164.737L137.362 164.667L137.218 164.467L136.915 164.633L136.246 164.184L136.052 163.988L136.542 163.357L137.081 163.6L137.212 161.835L137.044 161.435L136.342 161.001L135.998 161.057L135.528 160.998L135.211 160.799L134.851 160.719L134.546 160.603L134.147 160.334L133.665 160.19L133.014 159.08L132.735 158.5L132.584 157.866L133.58 157.853L134.163 157.75L134.305 157.488L134.1 156.984L133.814 156.591L134.023 156.219L134.321 155.932L134.632 156.06L135.398 156.699L135.531 157.131L136.075 158.453L136.207 158.573L136.272 158.696L137.399 159.44L137.557 159.429L137.487 158.806L137.811 157.961L138.126 157.683L138.285 157.685L138.301 157.544L137.994 157.194L138.144 156.726L138.047 156.711L137.776 157.012L137.231 158.482L136.897 158.751L136.439 158.084L136.179 157.603L136.051 157.433L136.096 156.681L137.004 156.833L136.692 156.587L135.632 156.154L135.368 155.945L135.172 155.866L134.819 155.359L134.382 154.93L135.136 154.157L135.524 153.616L136.737 153.904L136.972 153.736L136.769 153.34L136.529 153.461L136.151 153.214L135.562 152.476L135.583 152.101L135.69 151.413L135.924 151.267L136.419 151.125L136.985 151.348L137.231 151.529L137.444 151.443L137.228 150.935L136.859 150.742L136.448 150.38L136.491 149.979L136.623 149.649L136.722 149.288L136.791 148.782L136.754 148.388L136.87 148.207L137.052 148.125L137.063 147.978L136.705 148.008L136.576 148.505L136.527 148.959L136.272 149.324L136.163 149.736L136.099 150.23L135.957 150.798L135.647 150.581L135.466 150.359L135.396 150.208L135.427 149.919L135.343 148.134L135.335 146.65L135.493 145.499L135.931 145.043L136.13 144.91L136.312 144.969L136.591 144.964L136.776 144.798L136.148 144.524L135.769 144.681L135.486 144.9L134.979 144.735L134.883 144.147L134.583 143.639L134.53 142.991L134.554 142.055L135.265 142.136L135.844 142.319L137.375 142.303L138.633 143.199L139.187 143.08L139.161 142.899L138.736 142.672L138.472 142.172L138.316 142.026L138.243 141.726L138.219 141.375L137.906 140.091L137.781 140.124L137.662 140.563L137.401 141.297L137.038 141.655L136.482 141.799L135.934 141.881L135.456 141.74L135.345 141.435L135.357 141.083L135.151 140.91L134.612 140.759L134.459 140.673L134.281 140.356L134.539 139.874L134.749 139.588L135.008 139.645L135.253 139.775L135.566 140.151L135.874 140.224L136.225 139.924L136.294 139.721L136.074 139.593L135.873 139.542L135.561 139.383L134.947 138.808L135.254 138.225L135.978 137.559L136.199 137.407L136.008 136.846L136.225 136.234L136.002 135.73L135.601 135.189L135.057 135.069L134.942 135.227L134.923 135.449L135.009 135.617L134.958 135.737L134.834 135.733L134.145 135.614L133.683 135.253L132.929 134.925L132.831 134.669L132.749 134.293L133.013 133.645L132.88 133.636L132.39 134.137L131.65 134.399L131.105 134.485L130.866 134.688L130.771 134.857L130.915 134.955L131.23 134.98L131.46 135.608L131.402 135.85L131.289 136.012L131.033 136.043L130.498 135.61L130.216 135.117L130.223 134.728L130.414 134.197L131.263 133.485L131.498 133.185L131.996 132.853L132.661 132.104L133.241 131.688L132.959 131.345L132.662 130.829L132.692 130.115L133.865 129.832L134.372 129.96L135.02 129.938L135.382 129.768L135.645 129.731L136.198 129.535L136.436 129.257L136.492 129.046L136.489 128.863L136.425 128.635L136.335 128.048L136.426 127.852L136.663 127.618L136.974 127.546L137.117 127.564L137.485 127.777L137.411 128.082L137.264 128.448L136.963 129.909L136.811 130.24L136.573 130.526L136.731 131.126L136.494 131.547L135.432 131.995L135.291 132.021L135.371 132.182L135.986 132.143L136.462 132.049L136.934 131.67L137.082 131.094L137.278 129.974L137.534 129.816L137.832 129.78L137.988 130.043L137.937 130.635L137.935 131.207L137.539 132.909L137.06 133.595L137.007 133.776L137.026 133.99L137.406 133.958L137.695 133.589L137.904 133.117L138.113 132.462L138.089 131.989L138.153 131.696L138.239 130.74L138.384 130.257L138.374 129.584L138.113 129.33L137.747 129.177L137.655 128.765L137.846 127.954L138.545 127.975L139.206 127.424L139.64 127.223L139.886 127.264L140.751 127.797L140.923 127.804L140.896 127.612L140.761 127.476L140.42 127.296L139.792 126.725L138.948 126.632L139.103 125.893L139.267 125.219L139.677 125.126L140.365 124.905L141.676 123.898L141.904 123.143L141.966 122.295L141.335 122.074L140.665 121.521L140.124 121.228L139.645 120.859L139.739 120.309L139.801 119.414L140.402 119.222L140.681 117.999L140.278 117.065L140.374 116.371L140.9 115.78L140.993 115.371L141.138 114.922L141.6 114.877L141.611 114.633L141.57 114.188L141.266 113.664L141.253 112.94L141.54 112.086L141.999 112.145L142.087 112.109L141.761 111.593L141.496 111.027L141.541 110.8L141.795 110.608L142.09 110.501L142.409 110.791L142.866 111.715L142.935 111.478L142.75 110.537L142.599 109.37L142.117 109.522L141.676 109.44L141.509 109.26L141.344 108.998L141.5 108.678L141.655 108.441L141.978 108.142L142.65 108.036L143.135 107.662L143.298 106.893L143.138 106.968L142.875 107.646L142.432 107.875L142.207 107.84L141.941 107.714L141.419 107.124L141.13 106.987L140.849 106.972L140.608 107.122L139.995 108.161L139.733 108.337L138.653 108.421L138.257 108.3L137.828 108.139L137.88 107.883L138.011 107.61L138.254 107.469L138.259 107.312L137.923 107.273L137.536 106.986L137.364 106.622L137.283 105.972L136.937 104.948L136.868 104.215L137.113 103.694L137.638 101.655L137.799 100.621L138.081 99.7146L138.076 99.1179L138.805 98.5734L139.083 98.2483L139.702 96.4226L139.792 95.4419L138.81 92.4832L138.659 91.9208L138.611 91.2226L138.845 90.0677L138.872 89.6302L138.671 88.9992L138.111 87.9704L138.1 87.4464L138.336 86.9088L138.107 86.2421L138.219 85.8306L138.341 85.5083L139.219 85.6811L139.618 85.5988L139.831 85.404L139.997 84.8595L140.081 84.009L140.134 83.6428L140.209 83.1092L140.64 82.8952L140.788 82.3905L141.149 81.6882L141.52 79.7322L141.888 79.2507L142.259 78.6966L142.117 77.8763L142.357 77.4977L142.577 77.222L142.771 76.7227L143.035 76.2509L143.664 75.5747L143.823 74.7503L144.312 73.3306L144.408 72.4226L144.559 71.8095L144.515 71.2388L144.808 70.5461L145.09 69.9632L145.178 69.6395L145.821 68.8713L145.929 68.2582L145.7 67.8426L145.696 67.2006L145.517 66.3132L145.931 65.9812L146.099 65.7385L146.638 64.3257L146.604 63.7729L146.759 63.087L146.404 62.2764L146.355 60.4603L146.156 59.0681L145.829 57.6017L145.859 56.7842L145.66 55.7692L145.647 55.1849L145.8 53.8625L146.839 53.0327L147.041 52.1041L147.165 50.8532L147.122 49.9437L147.02 49.5363L146.509 48.8683L146.379 47.6764L146.478 47.365L146.902 47.0303L147.201 46.5667L147.355 45.848L147.666 45.2828L147.788 43.9194L148.051 42.8372L148.181 42.4599L148.594 41.9867L148.671 41.8605L148.734 41.4997L148.715 40.6493L148.778 40.1308L149.107 39.1117L149.146 38.6412L149.51 37.596L149.593 36.8457L149.748 36.4507L149.688 36.0062L149.791 35.0131L149.543 34.4535L149.488 34.127L149.801 33.1134L150.012 32.8665L150.355 32.396L150.499 31.8679L150.526 31.5332L150.088 29.8694L150.029 29.3029L150.136 27.9875L150.286 27.1398L150.237 26.4649L150.286 26.1179L150.362 25.6831L150.662 25.1564L150.731 24.7819L150.625 24.6255L150.268 24.4349L149.974 23.9575L149.953 23.4871L150.048 23.1442L150.07 22.6599L150.508 22.5653L150.742 22.2964L150.963 21.7944L151.242 20.5805L151.362 19.0786L151.528 18.176L151.645 17.7302L151.744 16.8002L151.907 16.1926L151.936 15.6329L151.904 15.2063L151.484 13.0432L151.498 12.249L151.676 11.0186L151.673 9.28896L151.637 8.88568L151.479 8.50844L151.432 7.99549L151.179 7.10664L150.951 5.32483L150.947 4.38524L150.848 3.58965L150.629 3.37843L150.786 3.33046L151.153 3.29755L151.533 3.29613L152.014 3.12744L152.527 2.81466L152.862 2.36065L153.005 1.9464V1.58297L152.855 1.12067L152.813 0.79425L152.991 0.637861L153.46 0.577499L153.84 0.268908L154.131 0L154.192 0.455436L154.721 1.06718L154.893 1.75577L155.013 1.84217L155.741 2.18651L155.753 2.26738L155.647 2.39631L155.541 2.56367L155.616 2.79825L155.748 3.12057L155.792 3.41962L155.873 3.72821L155.953 4.20148L156.001 4.63079L156.187 5.26313L156.224 5.65402L156.226 5.88994L156.371 6.12042L156.653 6.39745L157.034 6.6759L157.337 7.00098L157.568 7.22184L157.848 7.40158L158.064 7.56752L158.15 7.68137L158.179 7.7733L158.085 7.86104L157.744 8.29035L157.268 8.94471L157.276 9.02424L157.731 9.49474L157.804 9.68127L157.799 9.94457L157.646 10.2615L157.155 10.3616L157.045 10.448L157.031 10.5495L157.144 10.6839L157.126 10.9967L157.304 11.3424L157.213 11.4603L157.031 11.6194L157.027 11.7758L157.086 11.9486L157.278 12.0899L158.034 12.5755L158.093 12.6427L158.082 12.6934L157.789 13.0185L157.759 13.2188L157.767 13.5494L157.809 13.7634L157.903 13.8524L158.283 13.9527L158.752 14.6961L159.203 15.397L159.198 16.0005L159.245 16.7055L159.531 17.2597L159.571 17.7027L159.667 18.2075L160.008 18.5148L160.142 19.121L160.176 19.4448L160.155 19.6574L160.421 20.3185L160.451 20.8878L160.388 21.2965L160.391 21.5256L160.428 21.6861L160.656 21.8301L160.757 21.9206L161.092 21.9604L161.583 21.97L162.424 21.8191L163.08 21.6874ZM0.595673 39.9347L0 40.0677L0.0192701 39.8304L0.169212 39.6247L0.609444 39.7426L0.815789 39.7646L0.595673 39.9347ZM118.259 68.8522L117.567 68.9509L117.543 68.9221L117.583 68.8412L117.741 68.6999L117.934 68.5284L117.975 68.523L118.047 68.5366L118.127 68.5682L118.333 68.6835L118.394 68.763L118.372 68.8288L118.259 68.8522ZM137.681 116.494L137.39 116.605L137.119 116.633L136.844 116.552L136.363 116.559L135.884 116.353L135.434 116.062L135.309 115.893L135.364 115.652L135.687 115.094L135.996 114.04L136.201 112.536L136.035 111.966L136.056 111.732L136.132 111.448L136.169 111.157L136.145 110.864L136.184 110.592L136.524 110.02L136.575 109.763L136.584 109.485L136.731 108.91L136.686 108.72L136.561 108.559L136.663 108.418L137.843 108.839L138.627 108.936L138.669 109.372L138.82 109.715L138.909 110.33L139.032 110.47L138.968 110.91L138.607 111.101L138.638 111.507L138.846 111.889L138.543 112.027L138.216 112.109L138.14 112.216L137.904 112.3L137.616 112.512L137.703 112.701L138.065 113.131L138.469 113.43L138.691 113.877L138.978 114.345L138.838 114.642L138.575 115.065L138.155 115.346L137.769 115.515L137.814 116.21L137.681 116.494ZM134.225 117.878L133.679 117.971L133.555 117.814L133.556 117.679L133.65 117.57L133.931 117.497L134.114 117.587L134.21 117.716L134.24 117.834L134.225 117.878ZM137.538 119.043L137.619 119.305L137.448 119.34L137.176 119.299L137.044 119.506L136.976 119.548L136.35 119.364L136.253 119.281L136.265 119.008L136.932 118.985L137.357 118.811L137.417 118.838L137.538 119.043ZM137.828 122.074L137.638 122.305L137.338 122.346L136.872 122.613L136.822 122.845L136.799 123.13L137.121 123.475L137.28 123.875L137.472 124.476L137.611 125.049L137.598 125.226L137.633 125.525L137.862 125.989L137.884 126.199L137.858 126.407L137.766 126.794L137.693 126.846L137.466 126.885L137.448 127.119L137.392 127.196L136.745 127.221L136.426 127.114L136.465 126.407L136.056 126.13L135.775 125.664L135.459 124.86L135.194 124.613L134.884 123.979L134.425 123.439L134.954 123.096L134.872 122.498L135.181 122.294L135.646 122.08L135.989 122.248L136.297 122.189L136.434 122.047L136.393 121.438L136.491 120.959L136.831 120.712L137.197 120.683L137.334 120.953L137.514 121.22L137.957 121.429L137.956 121.704L137.828 122.074ZM140.721 124.151L139.786 124.583L139.316 124.437L139.135 124.119L139.047 123.852L138.951 123.399L139.11 123.156L139.454 122.808L139.581 122.583L139.643 122.318L139.62 122.071L139.665 121.835L139.867 121.753L140.559 122.016L141.277 122.412L141.533 122.684L141.581 122.903L141.267 123.384L141.066 123.78L140.721 124.151ZM138.227 124.374L138.1 124.436L137.986 124.427L137.869 124.241L137.831 123.997L137.579 123.632L137.507 123.461L137.513 123.255L137.657 122.96L137.872 122.879L138.016 122.89L138.191 123.237L138.242 123.615L138.287 124.004L138.227 124.374ZM132.782 124.746L132.686 124.834L132.566 124.808L132.467 124.636L132.398 124.343L132.533 124.232H132.64L132.76 124.388L132.822 124.641L132.782 124.746ZM135.599 129.116L135.385 129.36L135.011 129.477L134.639 129.286L134.191 129.375L134.144 128.957L134.312 128.614L134.651 128.207L134.898 127.662L134.869 126.894L135.071 126.719L135.18 126.448L135.61 126.282L135.708 126.853L135.592 127.874L135.883 128.477L135.924 128.679L135.868 128.91L135.599 129.116ZM132.512 141.142L132.227 141.216L132.194 141.029L131.937 140.719L132.161 140.515L132.599 140.302L132.93 140.327L133.229 140.489L133.269 140.679L132.747 140.93L132.62 141.069L132.512 141.142ZM134.616 145.487L134.543 145.626L134.067 145.541L133.243 145.686L132.896 145.159L132.745 144.324L132.642 144.152L132.437 143.676L132.333 143.365L132.124 142.882L132.043 142.376L131.991 142.224L132.179 141.923L133.042 141.627L133.349 141.148L133.611 141.212L133.539 142.188L133.697 142.517L133.99 142.792L134.045 142.904L134.094 143.251L134.241 143.79L134.431 144.044L134.481 144.2L134.489 144.333L134.42 144.519L134.616 145.487ZM130.976 146.484L130.541 146.491L130.432 145.454L130.944 143.965L130.98 143.398L130.808 142.971L130.738 142.622L130.78 142.479L131.434 142.184L131.637 142.497L131.881 143.327L132.343 144.52L132.332 145.665L132.075 145.948L131.269 146.237L130.976 146.484ZM134.968 148.731L135.004 149.594L134.939 150.462L134.79 151.532L134.815 151.75L134.988 151.802L135.035 151.937L134.984 152.502L134.892 152.937L134.712 153.293L134.607 153.721L134.511 153.816L134.092 153.891L133.862 153.845L133.677 153.358L133.624 153.059L133.635 152.668L133.408 152.144L133.401 151.943L133.489 151.599L133.672 151.429L133.699 150.9L133.792 150.742L133.999 150.524L134.031 150.435L134.012 150.356L133.935 150.348L133.1 151.001L133.019 151.186L132.981 151.432L132.972 152.299L132.825 152.801L132.691 152.897L132.302 152.919L131.787 152.868L131.204 152.407L130.823 152.535L130.744 151.975L130.936 151.528L131.646 151.566L131.765 150.772L131.54 150.586L131.289 150.267L131.141 149.975L131.274 149.758L131.685 149.444L131.906 149.411L132.109 149.587L132.614 149.454L132.585 148.956L132.135 148.737L132.236 148.359L132.804 147.999L133.144 147.635L133.159 147.222L133.021 146.811L133.064 146.65L133.347 146.311L133.743 146.148L133.924 146.171L134.291 146.41L134.618 146.439L134.698 146.51L134.757 146.775L134.968 148.731ZM132.534 146.909L132.503 147.373L131.932 148.267L131.441 148.797L130.992 149.217L130.706 149.213L130.471 149.011L130.735 148.679L131.064 148.348L130.959 147.92L130.86 147.797L130.721 147.752L130.483 147.53L130.556 147.199L130.695 147.041L130.879 146.92L131.051 146.992L131.797 146.76L132.032 146.572L132.486 146.541L132.534 146.909ZM132.734 155.548L131.978 156.031L131.757 155.831L131.212 155.834L131.355 155.311L131.41 154.928L131.493 154.78L131.523 154.45L131.687 153.847L132.138 154.048L132.475 154.107L132.932 154.307L133.427 154.434L133.572 154.958L133.09 155.198L132.734 155.548ZM131.779 157.866L131.669 158.426L131.357 158.378L131.252 158.235L131.197 157.88L131.101 157.709L131.236 157.353L131.324 156.96L131.293 156.658L131.772 156.68L132.342 156.758L132.5 156.84L132.325 157.106L132.159 157.264L131.815 157.362L131.779 157.866ZM134.65 161.507L134.642 162.021L134.519 162.186L134.412 162.235L134.141 162.079L133.986 162.061L133.728 162.334L133.512 162.472L133.191 162.437L132.763 162.252L132.382 163.028L132.203 163.288L131.83 163.652L131.789 163.225L132.025 162.59L132.135 162.158L132.353 161.516L132.79 161.758L133.404 161.52L133.962 161.08L134.445 161.077L134.603 161.312L134.65 161.507ZM133.629 163.682L133.794 164.888L133.913 165.057L134.306 165.146L134.734 165.76L134.753 165.929L134.236 166.978L134.126 167.726L133.519 167.672L133.265 166.93L132.881 166.216L132.752 165.382L132.541 164.667L132.917 164.264L133.276 164.353L133.296 163.807L133.629 163.682ZM136.258 165.549L136.143 165.618L135.713 165.474L135.499 165.343L135.172 165.015L135.119 164.677L134.972 164.275L135.067 164.269L135.409 164.428L135.55 164.55L135.737 164.808L136.291 165.177L136.361 165.286L136.348 165.427L136.258 165.549ZM157.539 170.08L157.532 171.966L157.525 173.835L157.52 175.595L157.514 177.367L157.509 179.09L157.503 180.869L157.473 182.877L157.451 184.381H156.87L156.718 184.534L155.799 184.755L154.236 184.415L153.845 184.108L153.321 183.437L153.134 183.618L152.641 183.902L152.135 184.127L151.72 184.152L151.335 183.873L151.252 183.732L151.164 183.702L150.333 184.087L149.414 183.693L148.682 183.453L147.506 183.318L146.689 182.824L145.181 182.866L144.91 182.703L144.81 182.22L144.889 181.997L145.211 181.861L145.301 181.593L145.627 181.658L146.049 182.012L146.178 181.999L146.458 181.666L146.87 181.371L147.018 181.341L147.776 181.705L148.081 181.663L148.518 181.5L148.597 181.357L148.667 181.108L148.783 180.962L149.172 180.891L149.552 181.034L149.596 181.469L149.543 181.935L150.037 182.061L150.637 182.046L151.05 182.22L151.102 181.936L150.443 181.194L150.167 180.735L149.795 180.465L149.318 180.326L148.919 179.467L148.944 178.717L148.901 177.989L149.762 177.59L149.564 176.969L149.861 176.5L150.2 176.321L150.541 178.049L150.786 178.658L150.473 178.782L149.82 178.78L150.184 179.635L150.784 179.928L151.3 180.563L151.311 181.026L151.597 181.234L152.288 181.248L152.764 181.157L152.988 180.849L153.247 180.751L153.71 181.134L154.492 181.418L154.702 181.618L154.855 181.953L154.865 182.313L154.904 182.506L155.131 182.412L155.456 181.923L155.616 181.752L155.811 181.669L155.935 181.559L155.939 181.416L155.354 181.071L152.295 179.459L151.919 178.819L151.666 178.015L151.674 177.188L151.897 176.932L152.443 176.607L153.446 176.149L154.603 175.492L154.748 175.366L154.734 174.956L154.589 174.68L154.13 174.479L153.65 174.428L153.192 174.448L152.734 174.535L151.899 174.97L151.425 174.942L150.975 174.708L150.643 174.239L150.471 173.606L150.472 173.203L150.535 172.833L150.739 172.455L151.013 172.291L151.257 172.313L151.489 172.225L151.626 172.096L151.743 171.923L151.709 171.774L151.619 171.645L151.246 171.379L151.099 171.122L150.78 170.709L150.955 170.594L151.516 170.53L151.908 170.813L152.274 171.15L152.498 171.148L152.699 171.007L153.161 170.578L153.548 170.038L153.9 169.427L154.185 169.06L154.51 169.028L155.463 170.174L155.8 170.217L156.92 169.6L157.045 169.632L157.425 169.945L157.539 170.08ZM135.317 171.793L135.381 171.85L135.533 171.837L135.747 171.94L136.553 172.066L137.274 172.365L137.649 172.646L138.143 172.732L138.547 173.09L138.719 173.181L138.927 173.21L139.469 173.872L139.499 173.948L140.114 174.472L140.145 174.555L139.795 174.584L139.087 174.34L138.733 174.326L138.477 174.251L138.418 174.208L138.367 173.905L138.286 173.756L137.605 173.058L137.322 172.905L136.831 172.77L136.272 172.864L135.895 172.775L135.764 172.807L135.207 172.254L134.651 171.787L134.413 171.235L134.06 170.811L134.059 170.687L134.221 170.593L134.601 170.831L134.975 171.24L135.177 171.395L135.317 171.793ZM140.965 175.377L141.069 175.902L141.124 176.003L141.405 175.917L141.884 175.869L142.668 176.066L142.757 176.136L143.09 176.71L143.346 176.956L143.737 177.489L143.347 177.846L143.118 178.359L143.105 178.618L142.952 178.769L142.713 178.926L142.357 179.226L141.918 179.259L141.486 179.418L141.285 179.562L141.167 179.572L141.026 179.493L140.876 179.345L140.828 179.174L141.124 179.015L141.511 178.448L141.579 177.861L141.163 177.755L140.914 177.836L140.728 177.834L140.515 177.654L140.385 177.93L140.337 178.194L140.394 178.599L140.355 178.731L140.204 178.805L139.854 178.651L139.491 178.378L139.462 178.221L139.537 177.675L139.53 177.391L139.454 176.982L139.414 176.939L139.278 176.949L138.85 177.027L138.422 176.505L138.191 175.953L137.404 175.795L138.018 175.027L138.942 174.919L139.256 175.307L140.285 175.575L140.223 175.163L140.24 175.016L140.381 174.832L140.461 174.817L140.582 174.946L140.78 175.001L140.871 175.127L140.965 175.377ZM146.881 178.958L147.737 179.481L148.304 179.477L148.301 179.803L148.37 180.36L148.28 180.587L148.069 180.818L147.935 181.148L147.836 181.198L147.213 180.801L146.562 180.257L146.235 180.352L145.801 180.219L145.452 180.248L145.235 180.555L144.728 180.716L144.636 180.101L144.177 179.519L143.719 179.054L143.968 178.343L144.265 178.229L144.545 177.991L145.669 178.242L146.253 178.455L146.881 178.958ZM148.421 184.477L148.6 184.899L148.666 184.977L149.142 185.143L149.356 185.043L149.874 184.997L150.184 184.833L150.637 184.75L151.156 185.802L151.098 186.123L150.688 186.471L150.411 186.548L150.15 186.442L150.168 186.265L150.12 186.112L149.941 185.911L149.773 185.931L149.502 186.079L149.373 186.06L149.099 185.896L148.619 185.776L148.524 185.627L148.513 185.408L148.422 185.298L147.921 184.946L147.601 184.645L147.33 184.606L147.231 184.641L147.13 184.784L146.887 184.921L146.817 184.898L146.738 184.784L146.698 184.619L146.802 184.287L146.942 184.256L147.626 184.322L148.045 184.475L148.421 184.477ZM153.397 184.817L156.493 185.477L157.448 185.076L158.203 185.088L158.428 185.638L157.661 186.219L157.604 186.402L157.711 186.551L158.498 186.644L158.697 186.83L158.88 187.072L158.725 187.43L158.71 187.596L158.792 187.756L159.382 188.299L159.624 188.579L159.747 188.848L159.796 189.32L159.785 189.699L159.653 189.749L159.366 189.634L159.085 189.415L158.839 188.871L158.667 188.763L158.17 188.653L157.678 188.389L157.294 188.404L156.94 188.291L156.624 188.39L156.511 188.212L156.375 187.851L156.372 187.695L156.539 187.127L156.535 186.979L156.448 186.961L156.079 187.076L155.931 186.999L155.529 186.588L155.367 186.509L154.964 186.47L154.735 187.197L154.723 187.378L154.955 187.841L155.412 188.556L155.181 188.57L154.521 188.35L154.351 188.213L154.148 187.852L153.756 187.644L153.618 187.515L153.578 187.364L153.574 186.896L153.487 186.828L152.93 186.947L152.816 186.833L152.769 186.636L152.688 186.526L152.329 186.346L152.297 186.234L152.457 186.101L152.556 185.767L152.696 184.569L153.397 184.817ZM163.523 186.391L163.409 186.649L163.165 186.99L162.838 187.253L162.52 187.326L162.291 187.188L162.175 186.947L162.121 186.708L162.043 186.578L161.922 186.549L161.765 186.556L161.572 186.645L161.162 186.99L160.986 187.079L160.868 187.101L159.701 186.843L159.587 186.747L159.45 186.518L159.298 185.836L158.809 185.23L159.558 184.887L160.458 184.888L162.194 185.15L162.886 185.209L163.419 185.785L163.503 186.131L163.523 186.391ZM165.87 186.898L165.562 187.193L165.332 187.173L165.258 187.066L165.233 186.932L165.279 186.789L165.375 186.659L165.6 186.496L165.671 186.47L166.009 186.631L165.87 186.898ZM162.717 190.613L162.575 190.667L162.471 190.538L162.313 190.448L161.669 190.257L161.655 190.142L161.722 189.977L161.85 189.83L162.098 189.685L162.297 189.308L162.387 189.336L162.478 189.49L162.632 190.011L162.817 190.387L162.798 190.517L162.717 190.613ZM161.612 191.384L161.472 191.398L161.131 191.27L160.62 191.214L160.563 191.162L160.55 191.062L160.611 190.959L160.889 190.881L161.726 190.948L161.834 190.995L161.863 191.074L161.726 191.301L161.612 191.384Z"/>
</mask>
<path d="M163.08 21.6874L163.798 22.4336L163.486 23.4487L162.987 25.0713L162.601 26.3291L162.538 26.4979L162.458 26.7448L161.626 27.1028L160.413 27.624L159.791 27.8969L159.008 28.2481L158.818 28.5348L158.591 28.6898L158.342 28.89L158.247 29.1095L158.015 29.2481L157.804 29.7432V30.1231L157.939 30.3824L158.173 30.4922L158.247 30.8049L158.322 31.0244L158.491 31.1972L158.448 31.3357L158.311 31.44L158.058 31.4976L157.886 31.8103L157.687 32.5867L157.656 32.8651L157.881 33.5688L158.001 33.9487L158.326 35.33L158.374 35.7058L157.928 36.2326L157.751 36.5521L157.687 36.8347L157.69 37.0583L157.73 37.2627L158.102 37.9143L158.532 38.4972L158.744 38.8017V39.2132L158.638 39.4478L158.408 39.5342L157.899 39.6946L157.687 39.9292L157.455 39.9649L157.233 39.7769L157.002 39.8236L156.707 39.9882L156.595 40.3887L156.337 41.0718L156.115 41.2597L155.95 41.7823L155.656 42.5327L155.514 42.9853L155.44 43.3172L155.142 43.5299L154.797 43.951L154.532 44.361L154.426 44.4804L154.225 44.5161L154.078 44.885L153.577 45.4419L153.457 46.0893L153.276 46.4337L153.244 47.0577L152.967 48.2018L152.917 48.4555L152.637 48.6558L152.269 49.1001L152.149 49.4252L152.32 50.3991L152.531 51.3854L152.545 51.8476L152.463 52.4772L152.406 52.7515L152.546 52.8654L152.779 52.9381L152.853 53.1795L152.684 53.3496L152.61 53.6527L152.42 53.9929L151.857 54.1273L151.659 54.0052L151.596 54.115L151.628 54.3578L151.502 54.6444L151.211 55.4125L151.018 56.1108L150.907 56.4166L150.952 56.6731L151.047 56.8185L151.057 56.953L150.897 57.123L150.751 57.3933L150.593 57.4303L150.424 57.3576L150.245 57.5167L150.209 57.85L150.11 58.2738L150.065 58.769L149.992 59.4041L150.222 59.8403L150.512 60.6317L150.729 60.821L150.971 60.8087L151.161 60.9692L151.267 61.1544L151.125 61.4863L150.875 61.5384L150.843 61.7236L150.918 62.1447L151.013 62.5534L151.252 62.7496L151.361 63.2969L151.593 63.4835L151.564 64.1857L151.798 65.0115L152.046 65.2515L152.161 65.364L152.084 65.7261L151.888 66.0141L151.845 66.4764L151.919 66.8152L152.171 67.1348L152.368 67.1705L152.648 67.0401L152.944 67.1911L152.987 67.4668L153.029 67.7178L152.871 68.0443L152.702 68.6464L152.657 69.2471L152.706 70.162L152.783 70.874L152.8 71.3225L152.819 71.5255L152.713 71.6654L152.456 71.7367L152.237 71.7655L152.047 71.8794L152.004 72.1084L151.856 72.4884L151.703 72.771L151.435 73.1825L151.264 73.609L151.128 73.8902L151.141 74.0851L151.043 74.4595L150.942 74.7722L150.731 75.8257L150.447 76.0451L150.222 76.1535L150.106 76.2948L150.194 76.5815L150.433 76.6679L150.519 76.8983L150.487 77.259L150.645 77.5938L150.63 77.9998L150.783 78.7679L150.645 79.2713L150.692 79.7075L150.688 80.1396L150.487 80.477L150.076 80.5414L149.849 80.8528L149.462 81.1916L149.42 81.4646L149.356 81.7115L149.198 81.802H148.956L148.755 81.8404L148.474 82.1614L148.175 82.3342L148.106 82.5935L148.132 82.909L147.974 83.1051L147.773 83.4713L147.646 83.8636L147.773 84.2312L147.91 84.8883L147.931 85.164L147.758 85.7086L147.615 86.0597L147.752 86.5082L147.868 86.7592L147.759 87.3106L147.667 87.6576L147.741 88.2942L148.016 89.0101L148.279 89.648L148.318 90.3914L148.385 90.9826L148.51 91.6232L148.774 91.8783L148.975 92.0923L148.934 92.4009L148.787 92.7767L148.575 93.0593L148.052 93.1526L147.627 93.4077L147.284 93.5847L147.024 93.7986L146.837 94.0263L146.745 94.2759L146.807 95.3637L146.766 95.7656L146.591 96.3362L146.427 96.7971L146.357 96.9356L146.337 97.14L146.305 97.3306L146.122 97.3746L145.862 97.2895L145.715 97.3443L145.609 97.4939L145.698 97.8505L145.793 98.4801L145.925 98.7476L145.89 98.9602L145.84 99.4183L145.669 99.7832L145.441 99.7818L145.294 99.9327L145.231 100.193L145.299 100.533L145.599 100.812L145.705 100.99L145.652 101.225L145.419 101.321L145.281 101.514L145.151 101.944L144.976 102.429L144.79 102.788L144.755 103.281L145.019 103.808L144.99 104.323L144.971 105.839L144.944 106.355L145.026 107.211L144.924 107.447L144.87 107.672L145.129 108.296L145.416 109.308L145.493 109.711L145.452 109.994L145.065 110.234L144.745 110.334L144.555 110.164L144.429 110.234L144.281 110.532L144.112 110.773L144.049 111.013L144.228 111.326L144.323 111.922L144.122 112.179L143.975 112.464L144.028 112.835L144.091 113.505L143.965 114.621L144.136 115.018L144.32 115.209L144.922 115.437L145.375 115.55L145.495 115.922L145.444 116.224L145.226 116.373L144.899 116.504V116.992L145.178 117.452L145.495 117.785L145.563 118.085L145.546 118.393L145.324 118.65L145.628 119.209L145.767 119.587L145.628 119.879L145.43 120.318L145.257 120.528V120.767L145.185 121.252L145.169 121.728L145.226 122.012L147.135 122.237L147.571 122.325L147.809 122.609L147.774 122.966L147.536 123.346L147.384 124.06L147.009 124.18L146.635 123.989L146.229 124.055L145.877 124.101L145.371 124.122L144.698 124.214L144.287 124.108L144.252 124.37L144.372 124.824L145.258 124.967L146.092 125.23L146.342 125.712L146.682 126.258L147.029 126.596L147.045 127.149L146.5 127.728L146.433 128.138L145.718 128.259L145.514 128.5L145.412 129.3L145.497 129.931L145.77 130.149L145.957 130.562L145.753 131.049L145.272 131.385L145.015 131.706L145.176 131.962L145.393 132.368L145.453 132.589L145.572 133.19L145.711 134.03L145.694 134.437L145.566 134.741L145.087 135.222L144.764 135.444L144.701 136.038L144.676 136.482L144.709 136.884L144.917 137.205L144.9 137.529L144.616 137.597L144.372 137.752L144.134 138.326L143.441 138.913L143.197 139.176L143.214 139.627L142.94 140.273L142.71 140.837L142.534 141.364L142.569 141.919L142.959 142.163L143.266 142.705L143.402 143.39L143.164 144.178L142.611 144.476L142.284 144.812L142.185 145.067L142.271 145.897L142.248 146.288L142.161 146.656L142.018 146.941L141.72 147.259L141.192 147.538L140.743 147.73L140.542 147.949L140.307 148.433L140.098 148.968L140.15 149.631L138.89 149.709L138.805 150.203L138.532 150.592L138.447 151.297L138.724 151.979L138.856 152.553L138.63 153.245L138.713 153.958L138.737 154.528L139.18 155.161L139.469 155.947L139.614 156.613L139.7 157.132L139.816 157.448L139.997 157.806L140.081 158.22L140.354 158.355L140.843 157.968L141.189 157.706L141.43 157.613L142.137 157.674L142.563 157.43L142.756 157.456L143.016 157.593L143.218 157.881L143.371 158.536L143.464 159.27L143.344 160.02L143.145 160.183L143.078 160.398L143.145 160.858L143.367 161.182L143.362 161.645L143.118 162.7L142.958 163.135L143.241 163.626L143.494 164.063L144.005 164.39L144.424 164.854L144.713 165.238L144.645 165.759L144.847 165.917L145.627 165.928L146.792 165.945L148.613 165.971L150.391 165.998L152.409 166.035L153.365 166.454L154.23 166.834H155.32L156.408 167.284L157.216 167.582L157.7 167.693L158.196 167.801L158.265 168.217L156.088 167.627L155.599 167.306L155.185 167.269L154.39 167.67L153.951 168.626L153.721 168.897L153.17 169.155L152.614 169.206L150.747 170.137L150.083 170.217L149.629 170.465L149.186 170.822L149.015 171.591L149.084 172.06L148.579 173.746L148.454 174.69L148.451 175.171L148.596 175.96L148.41 177.314L148.074 177.61L147.245 177.99L146.681 177.714L145.715 177.467L145.027 176.945L144.142 176.576L143.859 176.359L143.078 175.317L142.994 174.972L142.937 174.538L143.35 173.919L143.571 173.874L144.218 173.893L144.756 173.793L145.1 174.125L145.195 174.849L145.043 175.236L144.906 175.474L144.949 175.657L145.335 175.403L145.532 173.782L146.846 172.978L147.276 172.509L147.696 171.787L147.76 171.582L147.792 171.311L147.513 171.089L146.892 170.794L144.922 172.307L144.03 172.706L143.455 173.141L142.758 173.923L142.626 174.155L142.479 174.676L142.409 175.251L141.723 174.989L140.674 174.158L140.464 173.853L140.674 173.428L140.993 173.074L141.015 171.89L141.097 171.476L141.318 171.145L141.72 170.782L141.919 170.697L142.088 170.855L142.11 171.132L142.779 171.111L144.076 170.067L144.61 170.043L145.314 170.276L146.11 170.135L146.253 170.029L146.418 169.785L145.825 169.498L145.257 169.353L143.66 169.253L143.314 169.364L142.841 169.914L142.684 169.777L142.584 169.498L142.042 169.302L141.782 169.342L141.533 169.606L141.573 170.019L141.434 170.461L140.932 170.9L140.59 171.599L140.607 172.145L140.579 172.429L140.454 172.58L140.196 172.761L139.363 172.638L138.893 172.064L138.71 171.674L138.177 171.25L139.333 170.724L139.739 170.425L140.11 169.76L140.387 169.336L140.19 169.04L139.959 169.039L139.981 169.512L139.726 169.899L139.194 169.715L138.409 170.289L137.926 170.136L137.139 170.305L136.754 169.995L136.671 169.602L136.81 169.194L136.666 168.502L136.448 168.335L136.227 168.373L136.128 167.963L135.888 167.243L135.782 167.048L135.668 166.715L135.786 166.633L136.057 166.727L136.294 166.944L136.654 166.971L137.448 167.441L137.778 167.328L137.957 167.221L138.025 166.832L138.029 166.463H138.165L138.616 166.934L138.902 166.891L139.409 167.015L139.666 166.965L140.141 166.789L140.888 166.271L141.275 165.736L141.461 165.663L141.691 165.731L141.845 165.885L141.848 166.257L142.022 166.602L142.26 166.884L142.326 167.229L142.278 167.568L141.853 168.045L141.773 168.211L141.917 168.388L142.093 168.305L142.335 168.069L142.472 167.745L142.509 167.576L142.525 167.335L142.507 167.041L142.161 166.209L142.117 166.021V165.645L142.511 165.298L142.622 165.029L142.64 164.509L142.437 164.151L141.592 163.328L140.18 162.505L140.018 162.592L139.908 162.741L140.039 162.848L140.226 162.903L141.483 163.582L141.811 163.976L142.025 164.081L142.28 164.342L142.215 164.726L140.948 165.102L139.944 165.917L139.193 166.412L138.671 166.231L138.424 165.729L138.161 165.08L137.766 164.703L137.542 164.737L137.362 164.667L137.218 164.467L136.915 164.633L136.246 164.184L136.052 163.988L136.542 163.357L137.081 163.6L137.212 161.835L137.044 161.435L136.342 161.001L135.998 161.057L135.528 160.998L135.211 160.799L134.851 160.719L134.546 160.603L134.147 160.334L133.665 160.19L133.014 159.08L132.735 158.5L132.584 157.866L133.58 157.853L134.163 157.75L134.305 157.488L134.1 156.984L133.814 156.591L134.023 156.219L134.321 155.932L134.632 156.06L135.398 156.699L135.531 157.131L136.075 158.453L136.207 158.573L136.272 158.696L137.399 159.44L137.557 159.429L137.487 158.806L137.811 157.961L138.126 157.683L138.285 157.685L138.301 157.544L137.994 157.194L138.144 156.726L138.047 156.711L137.776 157.012L137.231 158.482L136.897 158.751L136.439 158.084L136.179 157.603L136.051 157.433L136.096 156.681L137.004 156.833L136.692 156.587L135.632 156.154L135.368 155.945L135.172 155.866L134.819 155.359L134.382 154.93L135.136 154.157L135.524 153.616L136.737 153.904L136.972 153.736L136.769 153.34L136.529 153.461L136.151 153.214L135.562 152.476L135.583 152.101L135.69 151.413L135.924 151.267L136.419 151.125L136.985 151.348L137.231 151.529L137.444 151.443L137.228 150.935L136.859 150.742L136.448 150.38L136.491 149.979L136.623 149.649L136.722 149.288L136.791 148.782L136.754 148.388L136.87 148.207L137.052 148.125L137.063 147.978L136.705 148.008L136.576 148.505L136.527 148.959L136.272 149.324L136.163 149.736L136.099 150.23L135.957 150.798L135.647 150.581L135.466 150.359L135.396 150.208L135.427 149.919L135.343 148.134L135.335 146.65L135.493 145.499L135.931 145.043L136.13 144.91L136.312 144.969L136.591 144.964L136.776 144.798L136.148 144.524L135.769 144.681L135.486 144.9L134.979 144.735L134.883 144.147L134.583 143.639L134.53 142.991L134.554 142.055L135.265 142.136L135.844 142.319L137.375 142.303L138.633 143.199L139.187 143.08L139.161 142.899L138.736 142.672L138.472 142.172L138.316 142.026L138.243 141.726L138.219 141.375L137.906 140.091L137.781 140.124L137.662 140.563L137.401 141.297L137.038 141.655L136.482 141.799L135.934 141.881L135.456 141.74L135.345 141.435L135.357 141.083L135.151 140.91L134.612 140.759L134.459 140.673L134.281 140.356L134.539 139.874L134.749 139.588L135.008 139.645L135.253 139.775L135.566 140.151L135.874 140.224L136.225 139.924L136.294 139.721L136.074 139.593L135.873 139.542L135.561 139.383L134.947 138.808L135.254 138.225L135.978 137.559L136.199 137.407L136.008 136.846L136.225 136.234L136.002 135.73L135.601 135.189L135.057 135.069L134.942 135.227L134.923 135.449L135.009 135.617L134.958 135.737L134.834 135.733L134.145 135.614L133.683 135.253L132.929 134.925L132.831 134.669L132.749 134.293L133.013 133.645L132.88 133.636L132.39 134.137L131.65 134.399L131.105 134.485L130.866 134.688L130.771 134.857L130.915 134.955L131.23 134.98L131.46 135.608L131.402 135.85L131.289 136.012L131.033 136.043L130.498 135.61L130.216 135.117L130.223 134.728L130.414 134.197L131.263 133.485L131.498 133.185L131.996 132.853L132.661 132.104L133.241 131.688L132.959 131.345L132.662 130.829L132.692 130.115L133.865 129.832L134.372 129.96L135.02 129.938L135.382 129.768L135.645 129.731L136.198 129.535L136.436 129.257L136.492 129.046L136.489 128.863L136.425 128.635L136.335 128.048L136.426 127.852L136.663 127.618L136.974 127.546L137.117 127.564L137.485 127.777L137.411 128.082L137.264 128.448L136.963 129.909L136.811 130.24L136.573 130.526L136.731 131.126L136.494 131.547L135.432 131.995L135.291 132.021L135.371 132.182L135.986 132.143L136.462 132.049L136.934 131.67L137.082 131.094L137.278 129.974L137.534 129.816L137.832 129.78L137.988 130.043L137.937 130.635L137.935 131.207L137.539 132.909L137.06 133.595L137.007 133.776L137.026 133.99L137.406 133.958L137.695 133.589L137.904 133.117L138.113 132.462L138.089 131.989L138.153 131.696L138.239 130.74L138.384 130.257L138.374 129.584L138.113 129.33L137.747 129.177L137.655 128.765L137.846 127.954L138.545 127.975L139.206 127.424L139.64 127.223L139.886 127.264L140.751 127.797L140.923 127.804L140.896 127.612L140.761 127.476L140.42 127.296L139.792 126.725L138.948 126.632L139.103 125.893L139.267 125.219L139.677 125.126L140.365 124.905L141.676 123.898L141.904 123.143L141.966 122.295L141.335 122.074L140.665 121.521L140.124 121.228L139.645 120.859L139.739 120.309L139.801 119.414L140.402 119.222L140.681 117.999L140.278 117.065L140.374 116.371L140.9 115.78L140.993 115.371L141.138 114.922L141.6 114.877L141.611 114.633L141.57 114.188L141.266 113.664L141.253 112.94L141.54 112.086L141.999 112.145L142.087 112.109L141.761 111.593L141.496 111.027L141.541 110.8L141.795 110.608L142.09 110.501L142.409 110.791L142.866 111.715L142.935 111.478L142.75 110.537L142.599 109.37L142.117 109.522L141.676 109.44L141.509 109.26L141.344 108.998L141.5 108.678L141.655 108.441L141.978 108.142L142.65 108.036L143.135 107.662L143.298 106.893L143.138 106.968L142.875 107.646L142.432 107.875L142.207 107.84L141.941 107.714L141.419 107.124L141.13 106.987L140.849 106.972L140.608 107.122L139.995 108.161L139.733 108.337L138.653 108.421L138.257 108.3L137.828 108.139L137.88 107.883L138.011 107.61L138.254 107.469L138.259 107.312L137.923 107.273L137.536 106.986L137.364 106.622L137.283 105.972L136.937 104.948L136.868 104.215L137.113 103.694L137.638 101.655L137.799 100.621L138.081 99.7146L138.076 99.1179L138.805 98.5734L139.083 98.2483L139.702 96.4226L139.792 95.4419L138.81 92.4832L138.659 91.9208L138.611 91.2226L138.845 90.0677L138.872 89.6302L138.671 88.9992L138.111 87.9704L138.1 87.4464L138.336 86.9088L138.107 86.2421L138.219 85.8306L138.341 85.5083L139.219 85.6811L139.618 85.5988L139.831 85.404L139.997 84.8595L140.081 84.009L140.134 83.6428L140.209 83.1092L140.64 82.8952L140.788 82.3905L141.149 81.6882L141.52 79.7322L141.888 79.2507L142.259 78.6966L142.117 77.8763L142.357 77.4977L142.577 77.222L142.771 76.7227L143.035 76.2509L143.664 75.5747L143.823 74.7503L144.312 73.3306L144.408 72.4226L144.559 71.8095L144.515 71.2388L144.808 70.5461L145.09 69.9632L145.178 69.6395L145.821 68.8713L145.929 68.2582L145.7 67.8426L145.696 67.2006L145.517 66.3132L145.931 65.9812L146.099 65.7385L146.638 64.3257L146.604 63.7729L146.759 63.087L146.404 62.2764L146.355 60.4603L146.156 59.0681L145.829 57.6017L145.859 56.7842L145.66 55.7692L145.647 55.1849L145.8 53.8625L146.839 53.0327L147.041 52.1041L147.165 50.8532L147.122 49.9437L147.02 49.5363L146.509 48.8683L146.379 47.6764L146.478 47.365L146.902 47.0303L147.201 46.5667L147.355 45.848L147.666 45.2828L147.788 43.9194L148.051 42.8372L148.181 42.4599L148.594 41.9867L148.671 41.8605L148.734 41.4997L148.715 40.6493L148.778 40.1308L149.107 39.1117L149.146 38.6412L149.51 37.596L149.593 36.8457L149.748 36.4507L149.688 36.0062L149.791 35.0131L149.543 34.4535L149.488 34.127L149.801 33.1134L150.012 32.8665L150.355 32.396L150.499 31.8679L150.526 31.5332L150.088 29.8694L150.029 29.3029L150.136 27.9875L150.286 27.1398L150.237 26.4649L150.286 26.1179L150.362 25.6831L150.662 25.1564L150.731 24.7819L150.625 24.6255L150.268 24.4349L149.974 23.9575L149.953 23.4871L150.048 23.1442L150.07 22.6599L150.508 22.5653L150.742 22.2964L150.963 21.7944L151.242 20.5805L151.362 19.0786L151.528 18.176L151.645 17.7302L151.744 16.8002L151.907 16.1926L151.936 15.6329L151.904 15.2063L151.484 13.0432L151.498 12.249L151.676 11.0186L151.673 9.28896L151.637 8.88568L151.479 8.50844L151.432 7.99549L151.179 7.10664L150.951 5.32483L150.947 4.38524L150.848 3.58965L150.629 3.37843L150.786 3.33046L151.153 3.29755L151.533 3.29613L152.014 3.12744L152.527 2.81466L152.862 2.36065L153.005 1.9464V1.58297L152.855 1.12067L152.813 0.79425L152.991 0.637861L153.46 0.577499L153.84 0.268908L154.131 0L154.192 0.455436L154.721 1.06718L154.893 1.75577L155.013 1.84217L155.741 2.18651L155.753 2.26738L155.647 2.39631L155.541 2.56367L155.616 2.79825L155.748 3.12057L155.792 3.41962L155.873 3.72821L155.953 4.20148L156.001 4.63079L156.187 5.26313L156.224 5.65402L156.226 5.88994L156.371 6.12042L156.653 6.39745L157.034 6.6759L157.337 7.00098L157.568 7.22184L157.848 7.40158L158.064 7.56752L158.15 7.68137L158.179 7.7733L158.085 7.86104L157.744 8.29035L157.268 8.94471L157.276 9.02424L157.731 9.49474L157.804 9.68127L157.799 9.94457L157.646 10.2615L157.155 10.3616L157.045 10.448L157.031 10.5495L157.144 10.6839L157.126 10.9967L157.304 11.3424L157.213 11.4603L157.031 11.6194L157.027 11.7758L157.086 11.9486L157.278 12.0899L158.034 12.5755L158.093 12.6427L158.082 12.6934L157.789 13.0185L157.759 13.2188L157.767 13.5494L157.809 13.7634L157.903 13.8524L158.283 13.9527L158.752 14.6961L159.203 15.397L159.198 16.0005L159.245 16.7055L159.531 17.2597L159.571 17.7027L159.667 18.2075L160.008 18.5148L160.142 19.121L160.176 19.4448L160.155 19.6574L160.421 20.3185L160.451 20.8878L160.388 21.2965L160.391 21.5256L160.428 21.6861L160.656 21.8301L160.757 21.9206L161.092 21.9604L161.583 21.97L162.424 21.8191L163.08 21.6874ZM0.595673 39.9347L0 40.0677L0.0192701 39.8304L0.169212 39.6247L0.609444 39.7426L0.815789 39.7646L0.595673 39.9347ZM118.259 68.8522L117.567 68.9509L117.543 68.9221L117.583 68.8412L117.741 68.6999L117.934 68.5284L117.975 68.523L118.047 68.5366L118.127 68.5682L118.333 68.6835L118.394 68.763L118.372 68.8288L118.259 68.8522ZM137.681 116.494L137.39 116.605L137.119 116.633L136.844 116.552L136.363 116.559L135.884 116.353L135.434 116.062L135.309 115.893L135.364 115.652L135.687 115.094L135.996 114.04L136.201 112.536L136.035 111.966L136.056 111.732L136.132 111.448L136.169 111.157L136.145 110.864L136.184 110.592L136.524 110.02L136.575 109.763L136.584 109.485L136.731 108.91L136.686 108.72L136.561 108.559L136.663 108.418L137.843 108.839L138.627 108.936L138.669 109.372L138.82 109.715L138.909 110.33L139.032 110.47L138.968 110.91L138.607 111.101L138.638 111.507L138.846 111.889L138.543 112.027L138.216 112.109L138.14 112.216L137.904 112.3L137.616 112.512L137.703 112.701L138.065 113.131L138.469 113.43L138.691 113.877L138.978 114.345L138.838 114.642L138.575 115.065L138.155 115.346L137.769 115.515L137.814 116.21L137.681 116.494ZM134.225 117.878L133.679 117.971L133.555 117.814L133.556 117.679L133.65 117.57L133.931 117.497L134.114 117.587L134.21 117.716L134.24 117.834L134.225 117.878ZM137.538 119.043L137.619 119.305L137.448 119.34L137.176 119.299L137.044 119.506L136.976 119.548L136.35 119.364L136.253 119.281L136.265 119.008L136.932 118.985L137.357 118.811L137.417 118.838L137.538 119.043ZM137.828 122.074L137.638 122.305L137.338 122.346L136.872 122.613L136.822 122.845L136.799 123.13L137.121 123.475L137.28 123.875L137.472 124.476L137.611 125.049L137.598 125.226L137.633 125.525L137.862 125.989L137.884 126.199L137.858 126.407L137.766 126.794L137.693 126.846L137.466 126.885L137.448 127.119L137.392 127.196L136.745 127.221L136.426 127.114L136.465 126.407L136.056 126.13L135.775 125.664L135.459 124.86L135.194 124.613L134.884 123.979L134.425 123.439L134.954 123.096L134.872 122.498L135.181 122.294L135.646 122.08L135.989 122.248L136.297 122.189L136.434 122.047L136.393 121.438L136.491 120.959L136.831 120.712L137.197 120.683L137.334 120.953L137.514 121.22L137.957 121.429L137.956 121.704L137.828 122.074ZM140.721 124.151L139.786 124.583L139.316 124.437L139.135 124.119L139.047 123.852L138.951 123.399L139.11 123.156L139.454 122.808L139.581 122.583L139.643 122.318L139.62 122.071L139.665 121.835L139.867 121.753L140.559 122.016L141.277 122.412L141.533 122.684L141.581 122.903L141.267 123.384L141.066 123.78L140.721 124.151ZM138.227 124.374L138.1 124.436L137.986 124.427L137.869 124.241L137.831 123.997L137.579 123.632L137.507 123.461L137.513 123.255L137.657 122.96L137.872 122.879L138.016 122.89L138.191 123.237L138.242 123.615L138.287 124.004L138.227 124.374ZM132.782 124.746L132.686 124.834L132.566 124.808L132.467 124.636L132.398 124.343L132.533 124.232H132.64L132.76 124.388L132.822 124.641L132.782 124.746ZM135.599 129.116L135.385 129.36L135.011 129.477L134.639 129.286L134.191 129.375L134.144 128.957L134.312 128.614L134.651 128.207L134.898 127.662L134.869 126.894L135.071 126.719L135.18 126.448L135.61 126.282L135.708 126.853L135.592 127.874L135.883 128.477L135.924 128.679L135.868 128.91L135.599 129.116ZM132.512 141.142L132.227 141.216L132.194 141.029L131.937 140.719L132.161 140.515L132.599 140.302L132.93 140.327L133.229 140.489L133.269 140.679L132.747 140.93L132.62 141.069L132.512 141.142ZM134.616 145.487L134.543 145.626L134.067 145.541L133.243 145.686L132.896 145.159L132.745 144.324L132.642 144.152L132.437 143.676L132.333 143.365L132.124 142.882L132.043 142.376L131.991 142.224L132.179 141.923L133.042 141.627L133.349 141.148L133.611 141.212L133.539 142.188L133.697 142.517L133.99 142.792L134.045 142.904L134.094 143.251L134.241 143.79L134.431 144.044L134.481 144.2L134.489 144.333L134.42 144.519L134.616 145.487ZM130.976 146.484L130.541 146.491L130.432 145.454L130.944 143.965L130.98 143.398L130.808 142.971L130.738 142.622L130.78 142.479L131.434 142.184L131.637 142.497L131.881 143.327L132.343 144.52L132.332 145.665L132.075 145.948L131.269 146.237L130.976 146.484ZM134.968 148.731L135.004 149.594L134.939 150.462L134.79 151.532L134.815 151.75L134.988 151.802L135.035 151.937L134.984 152.502L134.892 152.937L134.712 153.293L134.607 153.721L134.511 153.816L134.092 153.891L133.862 153.845L133.677 153.358L133.624 153.059L133.635 152.668L133.408 152.144L133.401 151.943L133.489 151.599L133.672 151.429L133.699 150.9L133.792 150.742L133.999 150.524L134.031 150.435L134.012 150.356L133.935 150.348L133.1 151.001L133.019 151.186L132.981 151.432L132.972 152.299L132.825 152.801L132.691 152.897L132.302 152.919L131.787 152.868L131.204 152.407L130.823 152.535L130.744 151.975L130.936 151.528L131.646 151.566L131.765 150.772L131.54 150.586L131.289 150.267L131.141 149.975L131.274 149.758L131.685 149.444L131.906 149.411L132.109 149.587L132.614 149.454L132.585 148.956L132.135 148.737L132.236 148.359L132.804 147.999L133.144 147.635L133.159 147.222L133.021 146.811L133.064 146.65L133.347 146.311L133.743 146.148L133.924 146.171L134.291 146.41L134.618 146.439L134.698 146.51L134.757 146.775L134.968 148.731ZM132.534 146.909L132.503 147.373L131.932 148.267L131.441 148.797L130.992 149.217L130.706 149.213L130.471 149.011L130.735 148.679L131.064 148.348L130.959 147.92L130.86 147.797L130.721 147.752L130.483 147.53L130.556 147.199L130.695 147.041L130.879 146.92L131.051 146.992L131.797 146.76L132.032 146.572L132.486 146.541L132.534 146.909ZM132.734 155.548L131.978 156.031L131.757 155.831L131.212 155.834L131.355 155.311L131.41 154.928L131.493 154.78L131.523 154.45L131.687 153.847L132.138 154.048L132.475 154.107L132.932 154.307L133.427 154.434L133.572 154.958L133.09 155.198L132.734 155.548ZM131.779 157.866L131.669 158.426L131.357 158.378L131.252 158.235L131.197 157.88L131.101 157.709L131.236 157.353L131.324 156.96L131.293 156.658L131.772 156.68L132.342 156.758L132.5 156.84L132.325 157.106L132.159 157.264L131.815 157.362L131.779 157.866ZM134.65 161.507L134.642 162.021L134.519 162.186L134.412 162.235L134.141 162.079L133.986 162.061L133.728 162.334L133.512 162.472L133.191 162.437L132.763 162.252L132.382 163.028L132.203 163.288L131.83 163.652L131.789 163.225L132.025 162.59L132.135 162.158L132.353 161.516L132.79 161.758L133.404 161.52L133.962 161.08L134.445 161.077L134.603 161.312L134.65 161.507ZM133.629 163.682L133.794 164.888L133.913 165.057L134.306 165.146L134.734 165.76L134.753 165.929L134.236 166.978L134.126 167.726L133.519 167.672L133.265 166.93L132.881 166.216L132.752 165.382L132.541 164.667L132.917 164.264L133.276 164.353L133.296 163.807L133.629 163.682ZM136.258 165.549L136.143 165.618L135.713 165.474L135.499 165.343L135.172 165.015L135.119 164.677L134.972 164.275L135.067 164.269L135.409 164.428L135.55 164.55L135.737 164.808L136.291 165.177L136.361 165.286L136.348 165.427L136.258 165.549ZM157.539 170.08L157.532 171.966L157.525 173.835L157.52 175.595L157.514 177.367L157.509 179.09L157.503 180.869L157.473 182.877L157.451 184.381H156.87L156.718 184.534L155.799 184.755L154.236 184.415L153.845 184.108L153.321 183.437L153.134 183.618L152.641 183.902L152.135 184.127L151.72 184.152L151.335 183.873L151.252 183.732L151.164 183.702L150.333 184.087L149.414 183.693L148.682 183.453L147.506 183.318L146.689 182.824L145.181 182.866L144.91 182.703L144.81 182.22L144.889 181.997L145.211 181.861L145.301 181.593L145.627 181.658L146.049 182.012L146.178 181.999L146.458 181.666L146.87 181.371L147.018 181.341L147.776 181.705L148.081 181.663L148.518 181.5L148.597 181.357L148.667 181.108L148.783 180.962L149.172 180.891L149.552 181.034L149.596 181.469L149.543 181.935L150.037 182.061L150.637 182.046L151.05 182.22L151.102 181.936L150.443 181.194L150.167 180.735L149.795 180.465L149.318 180.326L148.919 179.467L148.944 178.717L148.901 177.989L149.762 177.59L149.564 176.969L149.861 176.5L150.2 176.321L150.541 178.049L150.786 178.658L150.473 178.782L149.82 178.78L150.184 179.635L150.784 179.928L151.3 180.563L151.311 181.026L151.597 181.234L152.288 181.248L152.764 181.157L152.988 180.849L153.247 180.751L153.71 181.134L154.492 181.418L154.702 181.618L154.855 181.953L154.865 182.313L154.904 182.506L155.131 182.412L155.456 181.923L155.616 181.752L155.811 181.669L155.935 181.559L155.939 181.416L155.354 181.071L152.295 179.459L151.919 178.819L151.666 178.015L151.674 177.188L151.897 176.932L152.443 176.607L153.446 176.149L154.603 175.492L154.748 175.366L154.734 174.956L154.589 174.68L154.13 174.479L153.65 174.428L153.192 174.448L152.734 174.535L151.899 174.97L151.425 174.942L150.975 174.708L150.643 174.239L150.471 173.606L150.472 173.203L150.535 172.833L150.739 172.455L151.013 172.291L151.257 172.313L151.489 172.225L151.626 172.096L151.743 171.923L151.709 171.774L151.619 171.645L151.246 171.379L151.099 171.122L150.78 170.709L150.955 170.594L151.516 170.53L151.908 170.813L152.274 171.15L152.498 171.148L152.699 171.007L153.161 170.578L153.548 170.038L153.9 169.427L154.185 169.06L154.51 169.028L155.463 170.174L155.8 170.217L156.92 169.6L157.045 169.632L157.425 169.945L157.539 170.08ZM135.317 171.793L135.381 171.85L135.533 171.837L135.747 171.94L136.553 172.066L137.274 172.365L137.649 172.646L138.143 172.732L138.547 173.09L138.719 173.181L138.927 173.21L139.469 173.872L139.499 173.948L140.114 174.472L140.145 174.555L139.795 174.584L139.087 174.34L138.733 174.326L138.477 174.251L138.418 174.208L138.367 173.905L138.286 173.756L137.605 173.058L137.322 172.905L136.831 172.77L136.272 172.864L135.895 172.775L135.764 172.807L135.207 172.254L134.651 171.787L134.413 171.235L134.06 170.811L134.059 170.687L134.221 170.593L134.601 170.831L134.975 171.24L135.177 171.395L135.317 171.793ZM140.965 175.377L141.069 175.902L141.124 176.003L141.405 175.917L141.884 175.869L142.668 176.066L142.757 176.136L143.09 176.71L143.346 176.956L143.737 177.489L143.347 177.846L143.118 178.359L143.105 178.618L142.952 178.769L142.713 178.926L142.357 179.226L141.918 179.259L141.486 179.418L141.285 179.562L141.167 179.572L141.026 179.493L140.876 179.345L140.828 179.174L141.124 179.015L141.511 178.448L141.579 177.861L141.163 177.755L140.914 177.836L140.728 177.834L140.515 177.654L140.385 177.93L140.337 178.194L140.394 178.599L140.355 178.731L140.204 178.805L139.854 178.651L139.491 178.378L139.462 178.221L139.537 177.675L139.53 177.391L139.454 176.982L139.414 176.939L139.278 176.949L138.85 177.027L138.422 176.505L138.191 175.953L137.404 175.795L138.018 175.027L138.942 174.919L139.256 175.307L140.285 175.575L140.223 175.163L140.24 175.016L140.381 174.832L140.461 174.817L140.582 174.946L140.78 175.001L140.871 175.127L140.965 175.377ZM146.881 178.958L147.737 179.481L148.304 179.477L148.301 179.803L148.37 180.36L148.28 180.587L148.069 180.818L147.935 181.148L147.836 181.198L147.213 180.801L146.562 180.257L146.235 180.352L145.801 180.219L145.452 180.248L145.235 180.555L144.728 180.716L144.636 180.101L144.177 179.519L143.719 179.054L143.968 178.343L144.265 178.229L144.545 177.991L145.669 178.242L146.253 178.455L146.881 178.958ZM148.421 184.477L148.6 184.899L148.666 184.977L149.142 185.143L149.356 185.043L149.874 184.997L150.184 184.833L150.637 184.75L151.156 185.802L151.098 186.123L150.688 186.471L150.411 186.548L150.15 186.442L150.168 186.265L150.12 186.112L149.941 185.911L149.773 185.931L149.502 186.079L149.373 186.06L149.099 185.896L148.619 185.776L148.524 185.627L148.513 185.408L148.422 185.298L147.921 184.946L147.601 184.645L147.33 184.606L147.231 184.641L147.13 184.784L146.887 184.921L146.817 184.898L146.738 184.784L146.698 184.619L146.802 184.287L146.942 184.256L147.626 184.322L148.045 184.475L148.421 184.477ZM153.397 184.817L156.493 185.477L157.448 185.076L158.203 185.088L158.428 185.638L157.661 186.219L157.604 186.402L157.711 186.551L158.498 186.644L158.697 186.83L158.88 187.072L158.725 187.43L158.71 187.596L158.792 187.756L159.382 188.299L159.624 188.579L159.747 188.848L159.796 189.32L159.785 189.699L159.653 189.749L159.366 189.634L159.085 189.415L158.839 188.871L158.667 188.763L158.17 188.653L157.678 188.389L157.294 188.404L156.94 188.291L156.624 188.39L156.511 188.212L156.375 187.851L156.372 187.695L156.539 187.127L156.535 186.979L156.448 186.961L156.079 187.076L155.931 186.999L155.529 186.588L155.367 186.509L154.964 186.47L154.735 187.197L154.723 187.378L154.955 187.841L155.412 188.556L155.181 188.57L154.521 188.35L154.351 188.213L154.148 187.852L153.756 187.644L153.618 187.515L153.578 187.364L153.574 186.896L153.487 186.828L152.93 186.947L152.816 186.833L152.769 186.636L152.688 186.526L152.329 186.346L152.297 186.234L152.457 186.101L152.556 185.767L152.696 184.569L153.397 184.817ZM163.523 186.391L163.409 186.649L163.165 186.99L162.838 187.253L162.52 187.326L162.291 187.188L162.175 186.947L162.121 186.708L162.043 186.578L161.922 186.549L161.765 186.556L161.572 186.645L161.162 186.99L160.986 187.079L160.868 187.101L159.701 186.843L159.587 186.747L159.45 186.518L159.298 185.836L158.809 185.23L159.558 184.887L160.458 184.888L162.194 185.15L162.886 185.209L163.419 185.785L163.503 186.131L163.523 186.391ZM165.87 186.898L165.562 187.193L165.332 187.173L165.258 187.066L165.233 186.932L165.279 186.789L165.375 186.659L165.6 186.496L165.671 186.47L166.009 186.631L165.87 186.898ZM162.717 190.613L162.575 190.667L162.471 190.538L162.313 190.448L161.669 190.257L161.655 190.142L161.722 189.977L161.85 189.83L162.098 189.685L162.297 189.308L162.387 189.336L162.478 189.49L162.632 190.011L162.817 190.387L162.798 190.517L162.717 190.613ZM161.612 191.384L161.472 191.398L161.131 191.27L160.62 191.214L160.563 191.162L160.55 191.062L160.611 190.959L160.889 190.881L161.726 190.948L161.834 190.995L161.863 191.074L161.726 191.301L161.612 191.384Z" fill="var(--fill-0, #71B219)" stroke="var(--stroke-0, white)" mask="url(#path-1-inside-1_0_87)"/>
</g>
</svg>
