<svg preserveAspectRatio="none" width="100%" height="100%" overflow="visible" style="display: block;" viewBox="0 0 30 44" fill="none" xmlns="http://www.w3.org/2000/svg"><g id="CM"><mask id="path-1-inside-1_0_145" fill="white"><path d="M27 22L26 22L26 23L26 23L26 23L26 23L25 24L25 24L25 25L24 25L24 26L24 26L24 26L24 26L23 27L23 27L23 27L23 27L23 27L23 28L23 28L23 28L23 28L23 28L24 28V29L23 30L23 30L23 30L23 30L23 30L23 30L24 31L24 31L24 33L24 33L24 33L25 33L25 34L25 34L25 34L26 35L26 35L25 35L25 35L25 35L25 35L26 36L26 36L26 37L27 37L27 38L28 38L28 38L28 39L28 39L29 39L29 39L29 39L29 39L29 40L29 40L29 40L29 40L29 40L29 40L29 41L29 41L30 42L30 42L30 42L29 42L29 42L29 43L29 43L29 44L29 44L29 44L29 44L29 44L29 44L28 44L28 43L27 43L27 43L26 43L26 43L26 43L26 43L25 43L25 43L25 43L25 43L25 42L24 42L24 42L24 42L24 42L24 42L23 42L23 42L22 42L21 42L20 42L19 42L18 42L18 42L18 42L18 42L17 42L16 42L16 42L15 42L15 42L14 42L14 42L13 42L12 42L11 42L11 42L11 42L11 42L10 42H9H8H7H6L5 42L5 42L5 42L5 42L5 42L5 41L5 40L5 39L6 39L5 38L5 38L4 37L5 37L4 37L4 36L4 36L4 36L4 36L5 36L5 36L4 35L4 35L4 35L4 35L4 35L4 35L4 35L4 35L4 35L4 35L3 35L3 35L3 35L3 35L3 35L2 35L2 35L2 34L2 34L2 34L1 34L2 33L1 33L1 33L1 33L1 33L1 33L0 33L1 33L0 33L0 33L0 33L0 33L0 32L0 32L0 32L0 32L1 31L1 31L1 30L1 29L2 28L2 28L2 27L3 27L3 26L4 26L4 26L4 26L4 25L5 25L5 24L5 24L5 24L6 24L6 24L6 24L6 24L6 24L7 24L7 24L8 24L8 24L8 24L8 23L8 23L8 24L9 24L9 24L10 25L10 25L10 26L10 26L10 26L10 26L11 26L11 25L11 25L12 25L12 25L12 24L12 24L12 24L13 23L13 23L13 23L13 23L12 23L13 22L13 22L13 21L14 21L14 21L14 20L14 19L14 19L15 18L15 18L16 17L16 17L16 17L16 17L16 16L17 16L17 15L17 15L17 14L17 14L18 14L18 14L18 13L18 13L18 12L18 12L18 12L19 11L19 10L19 10L20 9L21 8L21 7L21 7L22 7L22 7L23 7L23 6L23 6L23 6L23 6L23 5L23 5L24 4L24 4L24 4L23 3L23 3L23 3L23 3L22 3L22 3L22 2L22 2L22 2L22 2L21 0L22 0L23 0L23 0L23 1L24 1L24 2L24 2L24 3L25 4L25 4L25 5L25 5L25 5L25 6L25 6L25 7L25 7L25 8L25 9L26 10L26 10L26 11L26 11L27 12L28 12L27 12L26 12L26 12L26 12L25 12L24 12L23 12L23 12L22 12L22 12L21 13L21 13L21 14L21 14L22 14L22 15L22 15L23 16L24 16L24 16L24 17L24 17L25 17L25 18L26 18L26 19L27 20L27 20L27 21L27 21L27 21L27 21L27 22Z"/></mask><path d="M27 22L26 22L26 23L26 23L26 23L26 23L25 24L25 24L25 25L24 25L24 26L24 26L24 26L24 26L23 27L23 27L23 27L23 27L23 27L23 28L23 28L23 28L23 28L23 28L24 28V29L23 30L23 30L23 30L23 30L23 30L23 30L24 31L24 31L24 33L24 33L24 33L25 33L25 34L25 34L25 34L26 35L26 35L25 35L25 35L25 35L25 35L26 36L26 36L26 37L27 37L27 38L28 38L28 38L28 39L28 39L29 39L29 39L29 39L29 39L29 40L29 40L29 40L29 40L29 40L29 40L29 41L29 41L30 42L30 42L30 42L29 42L29 42L29 43L29 43L29 44L29 44L29 44L29 44L29 44L29 44L28 44L28 43L27 43L27 43L26 43L26 43L26 43L26 43L25 43L25 43L25 43L25 43L25 42L24 42L24 42L24 42L24 42L24 42L23 42L23 42L22 42L21 42L20 42L19 42L18 42L18 42L18 42L18 42L17 42L16 42L16 42L15 42L15 42L14 42L14 42L13 42L12 42L11 42L11 42L11 42L11 42L10 42H9H8H7H6L5 42L5 42L5 42L5 42L5 42L5 41L5 40L5 39L6 39L5 38L5 38L4 37L5 37L4 37L4 36L4 36L4 36L4 36L5 36L5 36L4 35L4 35L4 35L4 35L4 35L4 35L4 35L4 35L4 35L4 35L3 35L3 35L3 35L3 35L3 35L2 35L2 35L2 34L2 34L2 34L1 34L2 33L1 33L1 33L1 33L1 33L1 33L0 33L1 33L0 33L0 33L0 33L0 33L0 32L0 32L0 32L0 32L1 31L1 31L1 30L1 29L2 28L2 28L2 27L3 27L3 26L4 26L4 26L4 26L4 25L5 25L5 24L5 24L5 24L6 24L6 24L6 24L6 24L6 24L7 24L7 24L8 24L8 24L8 24L8 23L8 23L8 24L9 24L9 24L10 25L10 25L10 26L10 26L10 26L10 26L11 26L11 25L11 25L12 25L12 25L12 24L12 24L12 24L13 23L13 23L13 23L13 23L12 23L13 22L13 22L13 21L14 21L14 21L14 20L14 19L14 19L15 18L15 18L16 17L16 17L16 17L16 17L16 16L17 16L17 15L17 15L17 14L17 14L18 14L18 14L18 13L18 13L18 12L18 12L18 12L19 11L19 10L19 10L20 9L21 8L21 7L21 7L22 7L22 7L23 7L23 6L23 6L23 6L23 6L23 5L23 5L24 4L24 4L24 4L23 3L23 3L23 3L23 3L22 3L22 3L22 2L22 2L22 2L22 2L21 0L22 0L23 0L23 0L23 1L24 1L24 2L24 2L24 3L25 4L25 4L25 5L25 5L25 5L25 6L25 6L25 7L25 7L25 8L25 9L26 10L26 10L26 11L26 11L27 12L28 12L27 12L26 12L26 12L26 12L25 12L24 12L23 12L23 12L22 12L22 12L21 13L21 13L21 14L21 14L22 14L22 15L22 15L23 16L24 16L24 16L24 17L24 17L25 17L25 18L26 18L26 19L27 20L27 20L27 21L27 21L27 21L27 21L27 22Z" fill="var(--fill-0,#71B219)" stroke="var(--stroke-0,white)" mask="url(#path-1-inside-1_0_145)"/></g></svg>