<svg preserveAspectRatio="none" width="100%" height="100%" overflow="visible" style="display: block;" viewBox="0 0 29.5375 44.0456" fill="none" xmlns="http://www.w3.org/2000/svg">
<g id="CM">
<mask id="path-1-inside-1_0_145" fill="white">
<path d="M26.8219 21.6024L26.4326 22.2415L25.9181 22.6064L25.7667 22.8272L25.6856 23.1016L25.5756 23.3773L25.3017 23.9685L25.1022 24.4513L24.9028 24.6022L24.4351 25.3319L24.1214 26.0644L24.0581 26.2537L23.9618 26.3936L23.8092 26.5074L23.2685 26.7351L23.0856 26.8476L22.9411 26.9834L22.809 27.137L22.7719 27.3222L22.8984 27.5828L23.0498 27.7899L23.2024 27.8023L23.3359 27.7927L23.4198 27.9162L23.4899 27.9888V29.4099L23.3606 29.6239L23.3634 29.7199L23.3001 29.964L23.2809 30.237L23.3222 30.3454L23.4308 30.4345L23.5808 30.6252L23.6619 31.0614L23.8449 32.5949L23.9302 32.8377L24.0816 33.0077L24.5575 33.3384L25.0569 33.7732L25.2151 34.0557L25.3059 34.5193L25.4971 34.8828L25.493 35.0063L25.4146 35.0543L25.2289 35.0598L25.1037 35.0858L25.2082 35.3506L25.4655 35.8114L25.8947 36.2901L26.3596 36.8073L26.738 37.2297L27.2112 37.7181L27.5799 38.0994L27.9609 38.4917L28.2485 38.5849L28.4617 38.6124L28.5539 38.6892L28.6667 38.8689L28.8607 39.0691L29.0752 39.3298L29.1482 39.5945L29.0588 39.8482L29.1468 40.2117L29.1523 40.2433L29.2225 40.386L29.1978 40.5135L29.2418 40.995L29.3545 41.4147L29.5375 41.7727L29.5348 41.8029L29.5114 42.0224L29.2762 42.1636L29.1386 42.3982L29.0987 42.7233L29.1689 43.1197L29.3504 43.5874L29.3545 43.8618L29.2913 43.9001L29.1784 43.9879L29.0588 44.0456L28.7341 43.7246L28.3723 43.5079L27.8316 43.132L27.2855 42.9962L26.5811 42.9715L26.2771 43.0182L26.0598 42.8769L25.7543 42.7123L25.5866 42.6711L25.3526 42.7973L25.1917 42.8028L24.9936 42.7548L24.5919 42.7603L24.5548 42.5408L24.4859 42.4997L24.0526 42.5189L23.9192 42.3378L23.8614 42.3584L23.6908 42.3021L23.3427 42.0443L22.9768 42.2144L22.2161 42.1924L21.2407 42.1979L20.231 42.2048L19.3065 42.1965L18.3806 42.1883L18.2885 41.9483L18.0972 41.8248L17.752 41.8139L16.7353 41.8619L15.9567 41.8234L15.7077 41.7919L15.4312 41.7302L14.7818 41.674L13.9784 41.7192L13.7955 41.7069L13.153 41.7151L11.6838 41.6506L10.8707 41.6602L10.89 41.807L10.8377 41.9113L10.7951 42.1664L9.89812 42.165H8.71778H7.60347H6.84958H5.5867L5.16301 41.9908L5.03504 41.8783L5.00893 41.7521L4.99377 41.6671L4.89474 41.6424L4.97589 40.7426L5.15335 39.9937L5.22216 39.2982L5.46562 38.6769L5.33631 38.061L5.18639 37.7921L4.39812 36.9198L4.75993 36.5905L4.28393 36.6358L4.18212 36.3107L3.951 35.9225L4.0927 35.8594L4.22889 35.6468L4.65946 35.7113L4.64574 35.6071L4.27427 35.2806L4.31004 35.116L4.46277 34.9322L4.38846 34.854L4.12158 35.0461L3.929 35.0392L3.78043 34.9158L3.67035 34.8952L3.73639 35.1448L3.58642 35.3684L3.44473 35.4466L3.20262 35.4329L3.00454 35.3766L2.95089 35.2518L2.76516 35.1572L2.24239 34.9912L1.80354 34.7964L1.7155 34.2642L1.54077 34.0352L1.46923 33.7759L1.42796 33.4796L1.4885 33.0242L1.37569 32.9515L1.24916 32.9268L1.05931 32.9488L0.884578 32.9241L0.675462 32.6717L0.492501 32.5743L0.605308 33.0379L0.476001 33.1682L0.160962 33.1312L0.0261553 32.9556L0 32.824L0.144463 32.2643L0.088038 32.252L0.200846 31.9543L0.415462 31.5922L0.705731 31.1327L1.03454 30.5539L1.26016 29.5319L1.41285 28.8941L1.55181 28.3126L1.79254 27.7872L2.03604 27.4361L2.72527 26.7557L3.24527 26.2413L3.51077 26.0342L3.69512 25.86L4.01977 25.6611L4.35131 25.4238L4.60581 24.9698L4.81354 24.546L4.97177 24.454L5.17951 24.38L5.81508 23.9246L6.21816 23.6352L6.3117 23.7792L6.38047 23.9575L6.4575 24.0398L6.79593 24.0961L7.25954 24.0933L7.52643 24.0412L7.66812 23.8903L7.81258 23.4774L7.89651 23.3993L8.00516 23.3787L8.51143 23.6667L8.93239 24.0769L9.34785 24.4828L9.55831 24.6269L9.65051 24.786L9.83208 25.5253L9.93662 25.7091L10.1169 25.7859L10.4415 25.7366L10.7786 25.6062L11.0757 25.417L11.3687 25.1714L11.5682 24.9506L11.6549 24.7874L11.6989 24.1825L11.7649 24.0494L12.0635 23.808L12.5642 23.4047L12.8504 23.1729L12.8256 23.0906L12.6467 22.8437L12.4885 22.5722L12.6495 22.2923L12.816 22.077L13.4474 21.3486L13.4502 21.1072L13.4832 20.815L13.988 19.9866L14.2783 18.8865L14.2866 18.6739L14.5879 18.143L14.9442 17.4627L15.6361 17.3529L15.9017 17.1829L16.2084 16.8825L16.4065 16.6026L16.5001 16.3365L16.5689 15.8222L16.6913 15.2365L16.767 14.7221L16.9747 14.2461L17.3214 14.0061L17.9239 13.8058L18.0147 13.7125L18.1014 13.3971L18.1688 12.7414L18.188 12.3464L18.2114 12.1749L18.2885 11.8786L18.847 11.3533L19.0947 10.5303L19.3147 9.6675L19.9489 8.62368L20.6918 7.58397L21.0357 7.30413L21.326 7.17521L21.6617 7.16147L21.8901 7.08466L22.6893 6.56619L23.0236 6.39058L23.2699 6.21092L23.329 6.05319L23.3537 5.82409L23.2767 5.2864L23.4143 4.89275L23.4955 4.27959L23.5285 3.80226L23.4996 3.63629L23.3744 3.40723L23.3511 3.35783L23.1117 3.06021L22.7113 2.88051L22.161 2.83111L21.8694 2.7255L21.8213 2.47589L21.7937 2.33185L21.7649 2.17546L21.725 1.82844L21.3549 0L22.0538 0.00548365L22.8902 0.223616L23.1007 0.388209L23.2121 1.01368L23.5147 1.36894L24.0471 1.65974L24.3786 2.2619L24.508 3.17269L24.801 3.71724L24.8684 3.80364L25.2 4.5896L25.2825 4.83101L25.3073 5.30424L25.2701 5.62384L25.4394 6.01887L25.1834 6.69373L25.1064 7.1066L25.0844 7.68682L25.2343 8.71008L25.4793 9.49881L25.7447 10.1366L26.035 10.6318L26.5124 11.1777L27.0228 11.6756L27.4974 11.9897L27.0571 12.1735L26.2042 12.1968L25.7144 12.0912L25.4806 12.0857L25.2453 12.1516L24.3346 12.2462L23.4157 12.2023L22.5641 12.0775L22.0469 12.0981L21.6479 12.4012L21.3233 12.8566L21.0206 13.2174L21.1266 13.6165L21.3549 13.8374L21.7951 14.3229L22.1886 14.7934L22.3908 15.1089L23.1777 15.8002L23.9371 16.4175L24.0857 16.5203L24.2989 16.6314L24.4309 16.6767L24.8451 17.0306L25.4173 17.6108L25.9428 18.5189L26.3156 19.4406L26.6789 20.3363L26.8384 20.4872L27.0916 20.5832L27.1218 20.7752L27.1026 21.0592L27.0241 21.291L26.8219 21.6024Z"/>
</mask>
<path d="M26.8219 21.6024L26.4326 22.2415L25.9181 22.6064L25.7667 22.8272L25.6856 23.1016L25.5756 23.3773L25.3017 23.9685L25.1022 24.4513L24.9028 24.6022L24.4351 25.3319L24.1214 26.0644L24.0581 26.2537L23.9618 26.3936L23.8092 26.5074L23.2685 26.7351L23.0856 26.8476L22.9411 26.9834L22.809 27.137L22.7719 27.3222L22.8984 27.5828L23.0498 27.7899L23.2024 27.8023L23.3359 27.7927L23.4198 27.9162L23.4899 27.9888V29.4099L23.3606 29.6239L23.3634 29.7199L23.3001 29.964L23.2809 30.237L23.3222 30.3454L23.4308 30.4345L23.5808 30.6252L23.6619 31.0614L23.8449 32.5949L23.9302 32.8377L24.0816 33.0077L24.5575 33.3384L25.0569 33.7732L25.2151 34.0557L25.3059 34.5193L25.4971 34.8828L25.493 35.0063L25.4146 35.0543L25.2289 35.0598L25.1037 35.0858L25.2082 35.3506L25.4655 35.8114L25.8947 36.2901L26.3596 36.8073L26.738 37.2297L27.2112 37.7181L27.5799 38.0994L27.9609 38.4917L28.2485 38.5849L28.4617 38.6124L28.5539 38.6892L28.6667 38.8689L28.8607 39.0691L29.0752 39.3298L29.1482 39.5945L29.0588 39.8482L29.1468 40.2117L29.1523 40.2433L29.2225 40.386L29.1978 40.5135L29.2418 40.995L29.3545 41.4147L29.5375 41.7727L29.5348 41.8029L29.5114 42.0224L29.2762 42.1636L29.1386 42.3982L29.0987 42.7233L29.1689 43.1197L29.3504 43.5874L29.3545 43.8618L29.2913 43.9001L29.1784 43.9879L29.0588 44.0456L28.7341 43.7246L28.3723 43.5079L27.8316 43.132L27.2855 42.9962L26.5811 42.9715L26.2771 43.0182L26.0598 42.8769L25.7543 42.7123L25.5866 42.6711L25.3526 42.7973L25.1917 42.8028L24.9936 42.7548L24.5919 42.7603L24.5548 42.5408L24.4859 42.4997L24.0526 42.5189L23.9192 42.3378L23.8614 42.3584L23.6908 42.3021L23.3427 42.0443L22.9768 42.2144L22.2161 42.1924L21.2407 42.1979L20.231 42.2048L19.3065 42.1965L18.3806 42.1883L18.2885 41.9483L18.0972 41.8248L17.752 41.8139L16.7353 41.8619L15.9567 41.8234L15.7077 41.7919L15.4312 41.7302L14.7818 41.674L13.9784 41.7192L13.7955 41.7069L13.153 41.7151L11.6838 41.6506L10.8707 41.6602L10.89 41.807L10.8377 41.9113L10.7951 42.1664L9.89812 42.165H8.71778H7.60347H6.84958H5.5867L5.16301 41.9908L5.03504 41.8783L5.00893 41.7521L4.99377 41.6671L4.89474 41.6424L4.97589 40.7426L5.15335 39.9937L5.22216 39.2982L5.46562 38.6769L5.33631 38.061L5.18639 37.7921L4.39812 36.9198L4.75993 36.5905L4.28393 36.6358L4.18212 36.3107L3.951 35.9225L4.0927 35.8594L4.22889 35.6468L4.65946 35.7113L4.64574 35.6071L4.27427 35.2806L4.31004 35.116L4.46277 34.9322L4.38846 34.854L4.12158 35.0461L3.929 35.0392L3.78043 34.9158L3.67035 34.8952L3.73639 35.1448L3.58642 35.3684L3.44473 35.4466L3.20262 35.4329L3.00454 35.3766L2.95089 35.2518L2.76516 35.1572L2.24239 34.9912L1.80354 34.7964L1.7155 34.2642L1.54077 34.0352L1.46923 33.7759L1.42796 33.4796L1.4885 33.0242L1.37569 32.9515L1.24916 32.9268L1.05931 32.9488L0.884578 32.9241L0.675462 32.6717L0.492501 32.5743L0.605308 33.0379L0.476001 33.1682L0.160962 33.1312L0.0261553 32.9556L0 32.824L0.144463 32.2643L0.088038 32.252L0.200846 31.9543L0.415462 31.5922L0.705731 31.1327L1.03454 30.5539L1.26016 29.5319L1.41285 28.8941L1.55181 28.3126L1.79254 27.7872L2.03604 27.4361L2.72527 26.7557L3.24527 26.2413L3.51077 26.0342L3.69512 25.86L4.01977 25.6611L4.35131 25.4238L4.60581 24.9698L4.81354 24.546L4.97177 24.454L5.17951 24.38L5.81508 23.9246L6.21816 23.6352L6.3117 23.7792L6.38047 23.9575L6.4575 24.0398L6.79593 24.0961L7.25954 24.0933L7.52643 24.0412L7.66812 23.8903L7.81258 23.4774L7.89651 23.3993L8.00516 23.3787L8.51143 23.6667L8.93239 24.0769L9.34785 24.4828L9.55831 24.6269L9.65051 24.786L9.83208 25.5253L9.93662 25.7091L10.1169 25.7859L10.4415 25.7366L10.7786 25.6062L11.0757 25.417L11.3687 25.1714L11.5682 24.9506L11.6549 24.7874L11.6989 24.1825L11.7649 24.0494L12.0635 23.808L12.5642 23.4047L12.8504 23.1729L12.8256 23.0906L12.6467 22.8437L12.4885 22.5722L12.6495 22.2923L12.816 22.077L13.4474 21.3486L13.4502 21.1072L13.4832 20.815L13.988 19.9866L14.2783 18.8865L14.2866 18.6739L14.5879 18.143L14.9442 17.4627L15.6361 17.3529L15.9017 17.1829L16.2084 16.8825L16.4065 16.6026L16.5001 16.3365L16.5689 15.8222L16.6913 15.2365L16.767 14.7221L16.9747 14.2461L17.3214 14.0061L17.9239 13.8058L18.0147 13.7125L18.1014 13.3971L18.1688 12.7414L18.188 12.3464L18.2114 12.1749L18.2885 11.8786L18.847 11.3533L19.0947 10.5303L19.3147 9.6675L19.9489 8.62368L20.6918 7.58397L21.0357 7.30413L21.326 7.17521L21.6617 7.16147L21.8901 7.08466L22.6893 6.56619L23.0236 6.39058L23.2699 6.21092L23.329 6.05319L23.3537 5.82409L23.2767 5.2864L23.4143 4.89275L23.4955 4.27959L23.5285 3.80226L23.4996 3.63629L23.3744 3.40723L23.3511 3.35783L23.1117 3.06021L22.7113 2.88051L22.161 2.83111L21.8694 2.7255L21.8213 2.47589L21.7937 2.33185L21.7649 2.17546L21.725 1.82844L21.3549 0L22.0538 0.00548365L22.8902 0.223616L23.1007 0.388209L23.2121 1.01368L23.5147 1.36894L24.0471 1.65974L24.3786 2.2619L24.508 3.17269L24.801 3.71724L24.8684 3.80364L25.2 4.5896L25.2825 4.83101L25.3073 5.30424L25.2701 5.62384L25.4394 6.01887L25.1834 6.69373L25.1064 7.1066L25.0844 7.68682L25.2343 8.71008L25.4793 9.49881L25.7447 10.1366L26.035 10.6318L26.5124 11.1777L27.0228 11.6756L27.4974 11.9897L27.0571 12.1735L26.2042 12.1968L25.7144 12.0912L25.4806 12.0857L25.2453 12.1516L24.3346 12.2462L23.4157 12.2023L22.5641 12.0775L22.0469 12.0981L21.6479 12.4012L21.3233 12.8566L21.0206 13.2174L21.1266 13.6165L21.3549 13.8374L21.7951 14.3229L22.1886 14.7934L22.3908 15.1089L23.1777 15.8002L23.9371 16.4175L24.0857 16.5203L24.2989 16.6314L24.4309 16.6767L24.8451 17.0306L25.4173 17.6108L25.9428 18.5189L26.3156 19.4406L26.6789 20.3363L26.8384 20.4872L27.0916 20.5832L27.1218 20.7752L27.1026 21.0592L27.0241 21.291L26.8219 21.6024Z" fill="var(--fill-0, #71B219)" stroke="var(--stroke-0, white)" mask="url(#path-1-inside-1_0_145)"/>
</g>
</svg>
