<svg preserveAspectRatio="none" width="100%" height="100%" overflow="visible" style="display: block;" viewBox="0 0 236 173" fill="none" xmlns="http://www.w3.org/2000/svg"><g id="CN"><mask id="path-1-inside-1_0_218" fill="white"><path d="M144 166L144 166L144 166L144 167L144 167L144 168L144 168L143 169L143 169L143 169L143 169L143 169L142 170L142 171L142 171L142 171L142 171L142 171L142 171L141 172L141 172L141 172L141 172L141 172L140 172L140 172L140 172L139 173L139 173L139 173L139 173L138 173L138 173L137 173L137 172L136 172L136 172L135 171L135 170L135 170L135 169L135 169L136 168L136 168L136 168L137 167L137 167L138 167L138 167L137 167L138 166L138 166L138 166L138 166L139 166L139 166L139 166L140 166L141 166L141 166L141 166L142 166L142 166L142 166L142 166L142 166L143 166L143 166L143 165L143 165L143 165L143 166L144 166L144 166ZM142 161L142 162L142 161L143 162L143 162L142 162L142 162L142 162L142 162L142 162L142 161L142 161ZM151 159L150 159L150 159L150 159L151 159L151 159ZM151 159L151 159L151 159L151 159L151 159L151 159L151 158L152 159L152 159L151 159L151 159L151 159ZM154 154L154 154L154 154L154 154L154 154L154 154L154 154L154 154L154 154ZM172 147L172 147L172 147L172 147L172 147L172 147L172 147L172 147L172 147ZM178 143L178 143L178 143L178 143L178 143L178 143L178 142L178 142L178 142L178 142L178 143L178 143L178 143L178 143L178 143ZM184 132L184 132H184L184 132L184 131L184 131L184 132L184 132ZM188 125L188 125L187 125L187 125L187 124L187 124L188 125L188 125ZM188 124L188 124L188 124L188 124L188 124L188 124L188 124ZM188 124L188 124L187 124L187 123L187 123L187 123L187 123L188 123L188 123L188 124ZM186 117L186 117L185 117L184 116L184 116L184 115L184 115L185 116L185 116L185 116L185 116L186 116L186 117L186 117ZM193 0L193 0L193 0L193 0L194 0L194 1L195 1L195 1L196 1L196 2L196 2L197 2L198 3L198 3L198 2L198 2L199 2L199 2L200 3L200 3L201 3L201 3L201 4L201 4L201 4L201 4H201L202 4L202 5L202 5L202 5L202 5L202 6L202 6L202 6L202 6L202 6L203 6L203 7L203 7L203 7L204 7L204 8L204 8L204 8L204 8L204 8L204 9L204 9L204 10L204 10L205 11L205 12L205 12L205 13L205 13L205 13L205 13L206 14L206 14L206 14L206 14L206 15L206 15L206 15L206 16L207 17L207 18L208 18L208 19L207 19L207 19L208 20L208 20L207 20L208 20L208 21L208 22L208 22L208 23L208 23L209 24L209 24L209 24L209 24L210 25L211 25L212 24L213 24L213 25L213 25L213 25L213 25L214 25L214 26L214 26L214 26L215 26L215 26L215 26L215 26L215 26H216L216 26L216 26L216 26L216 26L217 27L218 28L218 29L219 29L220 29L220 29L220 30L220 30L220 30L220 31L221 31L221 32L221 32L221 32L220 33L221 34L221 34L221 35L221 35L221 36L222 36L222 36L223 35L223 35L224 36L225 36L226 35L227 35L227 35L228 35L228 34L228 34L228 34L229 34L229 33L230 33L230 33L231 33L232 33L232 33L233 32L234 32L234 32L234 32L235 32L235 32L236 32L236 33L236 33L236 33L236 33L235 34L236 34L236 34L236 35L236 35L236 36L236 36L236 36L235 37L235 37L235 37L234 37L234 37L234 37L234 38L234 38L234 38L234 38L234 39L234 39L234 40L233 40L233 40L233 40L233 41L233 42L233 42L233 43L233 43L233 43L233 43L233 44L232 44L232 44L232 44L232 45L232 45L232 45L232 46L231 46L231 46L231 46L231 46L231 47L231 47L231 47L231 47L230 48L230 48L230 48L230 49L230 49L230 50L229 50L229 50L229 50L229 50L228 50L228 50L228 50L227 50L226 49L226 49L225 49L225 49L225 49L225 49L224 49L224 49L224 50L224 50L224 50L223 51L223 51L222 51L222 51L222 51L222 51L222 52L222 52L222 52L222 53L222 53L223 56L222 56L222 58L222 58L222 58L222 58L222 59L222 59L223 59L223 59L222 59L222 60L222 60L222 61L222 61L222 61L222 61L222 62L222 62L221 62L221 62L221 62L220 62L220 62L220 62L220 62L219 63L219 63L219 63L220 63L220 63L220 63L220 64L220 63L220 63L219 63L219 63L219 62L219 62L219 62L218 62L218 61L218 61L218 61L218 61L218 61L217 61L217 61L217 62L217 62L217 63L217 63L217 64L217 64L216 64L216 64L216 64L216 64L216 64L216 64L215 64L215 64L215 64L215 65L215 65L215 65L214 66L214 66L214 66L214 66L213 66L213 66L212 66L212 66L211 66L211 66L210 66L210 67L210 67L210 67L210 67L210 68L211 68L211 68L211 68L211 69L211 69L211 69L211 70L210 70L210 69L210 69L210 69L209 69L208 69L208 69L208 69L207 69L207 69L207 69L207 68L206 68L206 68L206 68L206 68L206 68L206 68L205 68L205 68L205 68L205 68L205 68L204 68L204 69L204 70L204 70L204 70L204 70L204 70L203 71L203 71L203 71L203 72L202 72L202 72L202 72L201 72L201 72L201 72L201 73H201L200 73L200 73L200 73L199 74L199 74L198 74L198 74L198 74L198 74L198 74L198 75L197 75L196 76L196 76L196 76L196 76L196 77L195 77L194 77L193 77L193 77L193 78L193 78L192 78L192 78L192 78L191 78L191 78L190 78L188 80L188 80L187 81L187 81L187 81L187 81L186 82L186 82L186 82L186 82L185 82L186 82L186 82L185 82L184 82L184 83L184 83L184 83L184 82L183 82L184 82L184 82L186 81L185 80L186 80L186 80L186 80L186 80L185 80L184 80L184 80L184 79L184 79L184 79L185 78L185 78L185 78L185 78L185 78L185 77L186 77L186 76L187 76L188 75L188 75L188 74L188 74L188 74L187 73L186 72L186 72L186 72L186 72L186 72L185 72L185 72L184 72L183 72L183 73L183 73L182 73L182 74L181 75L181 76L179 77L178 77L177 78L176 78L176 79L176 80L175 80L175 81L175 81L175 81L174 81L174 81L173 81L173 81L172 81L172 80L171 81L171 81L170 82L170 83L170 83L170 84L170 85L172 86L174 86L174 86L174 86L175 86L175 87L175 87L175 88L176 88L176 88L175 88L175 88L175 89L175 90L175 90L176 90L176 91L177 91L178 90L179 90L179 90L179 90L180 89L180 88L180 88L180 88L180 88L181 88L182 87L183 88L184 88L184 88L185 89L186 89L186 89L187 89L187 89L187 89L187 89L188 89L188 89L189 89L189 89L189 89L189 90L189 90L189 91L189 91L189 91L189 91L189 92L189 92L188 92L188 92L188 92L188 92L188 92L188 92L187 91L187 91L186 92L185 92L184 93L183 93L183 93L182 93L182 93L182 93L182 94L183 94L183 94L182 94L182 94L182 94L182 94L182 95L182 95L181 96L181 96L180 96L180 96L180 95L180 95L180 95L180 95L180 95L180 96L180 96L180 96L180 96L180 96L179 97L179 97L179 97L179 98L179 98L178 98L178 98L178 98L177 99L177 99L177 100L176 101L176 101L176 102L177 102L177 102L178 103L178 103L179 103L180 104L180 104L180 105L181 106L181 107L181 107L182 108L182 109L182 110L183 111L182 111L182 112L183 112L184 112L184 113L184 113L185 114L185 114L185 114L186 114L186 115L186 115L186 115L186 116L186 116L186 116L184 115L184 115L184 115L183 115L182 114L182 114L181 114L180 115L180 115L179 115L179 115L180 115L180 115L181 114L182 115L182 115L182 115L183 116L183 116L184 116L184 117L186 118L186 118L186 119L186 119L186 120L186 120L185 120L185 120L184 120L183 121L183 121L183 122L182 122L182 122L181 122L180 122L180 122L180 122L180 122L180 122L181 122L182 123L183 123L184 122L184 122L184 122L185 122L186 124L186 124L187 124L187 124L187 124L186 124L186 125L185 126L185 126L186 126L186 125L186 125L187 125L187 126L186 127L186 127L186 127L186 127L186 127L185 127L185 127L185 127L185 127L186 128L186 128L186 128L185 128L186 128L185 129L185 129L185 129L185 129L185 130L185 131L185 131L185 131L184 131L184 131L184 131L184 131L183 131L183 132L183 132L183 132L182 132L182 132L182 132L182 132V133L182 133L182 134L182 134L181 134L182 134L182 135L181 135L181 135L181 136L180 136L180 137L180 138L180 138L179 138L179 138L179 138L179 138L178 138L178 138L178 137L178 137L178 137L178 138L178 138L178 138L178 138L178 138L178 138L178 138L178 138L178 138L178 139L178 139L179 139L179 139L178 140L178 140L178 140L177 141L177 141L176 140L176 140L176 140L176 141L177 141L177 141L177 141L178 141L178 141L178 142L177 142L177 143L178 143L178 143L178 144L177 143L177 143L177 143L176 143L176 143L176 143L176 144L176 144L176 144L176 144L175 144L175 144L175 144L175 145L175 145L175 145L174 146L174 146L174 146L174 146L174 146L174 147L174 147L173 147L173 147L172 147L172 147L172 147L171 147L171 147L171 147L171 147L171 147L171 148L172 148L172 148L172 148L171 149L171 149L170 149L170 150L170 150L170 150L169 150L169 150L169 150L169 150L169 151L169 151L169 151L169 150L169 150L168 151L168 151L168 151L168 151L167 151L167 152L167 152L166 152L166 152L166 152L166 152L166 152L166 152L166 153L166 153L166 154L165 154L165 154L164 154L164 154L164 154L164 154L163 154L163 154L162 154L162 154L162 154L162 155H161L161 154L161 154L160 154L160 155L160 155L159 155L159 155L159 155L159 154L158 154L158 155L158 155L158 155L158 155L158 155L158 155L157 155L157 155L157 155L157 155H156L156 155L156 155L156 156L156 156L156 155L155 155L155 154L155 154L154 154L154 154L154 153L154 153L154 153L154 153L154 153L154 154L154 154L153 154L153 154L153 154L154 154L154 155L154 155L154 155L154 156L154 156L154 156L154 157L154 157L154 157L154 157L154 157L154 157L154 157L154 157L154 157L153 157L153 157L153 157L152 157L152 157L152 158L152 158L152 158L151 158L151 158L151 158L151 158L150 158L150 158L150 158L150 158L150 158L150 158L150 158L150 158L150 158L150 158L149 159L149 159L149 158L148 158L148 158L148 158L148 159L148 159L147 159L147 159L147 159L147 159L146 160L146 160L145 160L145 160L145 160L145 160L144 160L144 160L144 160L144 160L143 161L143 161L142 161L142 161L142 160L142 160L142 161L142 161L142 161L141 162L141 162L141 162L142 162L142 163L142 163L142 163L142 163L142 164L142 164L142 164L142 164L142 165L141 165L140 165L140 164L140 164L140 164L140 164L140 164L140 164L140 164L140 163L140 163L140 163L140 162L139 162L139 162L139 162L139 161L140 161L140 160L140 160L140 160L140 160L140 159L140 160L139 160L139 159L139 159L139 159L139 160L138 160L138 160L138 160L137 160L137 160L137 160L137 160L137 159L137 159L136 159L136 159L136 159L136 159L135 159L135 158L135 158L135 158L135 158L135 158L135 158L135 159L135 159L135 159L134 159L134 159L134 159L134 159L134 159L134 159L133 159L133 160L133 160L132 159L132 159L132 159L131 159L131 159L131 159L130 159L130 159L130 159L129 158L129 158L129 158L129 158L129 158L128 158L128 158L128 158L128 158L128 158L128 158L128 157L128 157L128 156L127 156L127 156L127 156L127 156L127 155L128 155L128 155L128 155L128 154L128 154L127 154L127 154L126 154L126 154L126 154L126 154L126 154L125 154L125 154L125 154L125 154L124 154L124 154L124 153L123 153L123 153L123 153L123 152L123 152L122 152L122 152L122 152L121 153L121 153L121 153L120 153L120 153L120 154L120 154L120 154L120 154L120 154L119 154L119 155L118 155L118 154L118 154L118 154L118 154L117 155L117 155L117 155L117 155L117 155L116 154L116 154L116 154L116 155L115 155L115 155L115 154L115 154L115 154L114 155L114 155L114 155L114 155L114 156L114 156L113 156L113 156L113 155L113 155L112 155L112 155L112 154L111 154L111 154L111 155L111 155L111 155L110 156L110 156L110 156L110 156L110 156H109L109 156L109 156L109 156L108 156L108 156L108 156L108 156L108 156L108 156L108 157L108 157L108 157L108 157L108 158L108 158L109 158L109 158L109 159L109 160L109 160L109 160L109 160L109 161L109 161L109 161L109 161L108 161L108 161L108 161L108 161L108 161L108 161L107 161L107 161L107 161L107 160L107 160L107 160L106 160L106 160L106 159L106 159L106 159L106 159L106 159L106 159L106 159L105 159L104 160L104 160L104 160L104 160L103 160L103 160L102 160L102 160L102 159L102 159L102 159L102 159L102 159L102 159L102 158L102 158L102 158L102 158L101 157L100 157L100 157L99 157L99 157L99 157L99 157L99 157L99 156L99 156L99 156L99 155L99 155L100 154L100 154L100 154L100 153L100 153L100 153L99 153L99 153L98 153L98 153L98 152L98 152L98 152L97 151L97 151L97 151L97 150L97 150L97 150L97 150L97 149L97 149L97 149L97 149L97 149L96 149L96 149L96 149L96 149L95 149L94 149L94 149L93 150L93 150L93 150L92 150L92 149L93 149L93 148L93 148L93 148L93 148L92 147L92 147L92 147L93 146L93 146L93 146L93 146L93 145L93 145L93 144L94 144L94 144L94 144L94 144L94 144L95 143L95 143L95 142L95 143L96 143L96 142L96 142L96 142L97 142L97 141L97 141L96 141L96 140L96 140L97 140L97 140L97 140L97 139L97 138L97 138L97 138L97 137L97 136L97 136L97 136L97 135L97 134L96 134L96 134L96 134L96 134L96 134L96 134L95 134L95 134L95 134L95 132L95 132L95 132L94 131L94 131L94 131L94 131L94 131L94 131H93L93 130L93 130L93 130L93 130L92 130L92 130L92 130L92 131L92 131L92 131L91 131L91 131L91 131L90 131L90 131L90 131L89 130L89 130L88 130L88 131L88 131L88 130L88 130L88 130L88 130L88 130L88 130L88 130L89 129L89 129L88 128L88 128L88 128L88 128L87 128L87 128L87 128L87 128L87 127L88 127L88 127L88 127L88 127L87 127L87 127L87 126L87 126L87 126L86 126L85 126L85 127L85 127L84 127L84 127L84 128L84 128L84 128L84 128L83 127L83 127L82 127L82 127L82 127L82 127L81 126L81 126L80 127L80 127L80 128L79 128L79 128L79 128L79 128L78 129L78 129L77 129L76 129L76 130L76 130L76 130L75 130L75 131L74 131L74 132L74 132L74 132L74 132L74 132V132L74 132L73 133L73 133L73 133L72 133L72 133L72 133L72 133L72 133L71 133L71 133L71 133L70 133L70 133H70L70 133L70 132L70 132L69 132L69 132L68 132L68 132L68 132L68 132L68 132L67 132L67 132L67 132L66 132L66 132L65 132L65 132L65 132L65 132L65 132L65 131L65 131L64 131L64 131L63 131L63 131L63 131L62 131L62 132L62 132L61 132L61 132L60 133L60 134L60 134L60 134L59 134L59 135L59 135L58 135L58 134L59 133L59 133L59 133L59 132L58 132L58 132L58 132L58 132L57 132L57 132L57 132L56 132L56 132L56 133L56 133L56 133L55 133L55 133L54 133L54 133L54 133L54 133L53 133L52 133L52 132L52 132L51 132L51 132L51 132L50 132L50 132L50 132L50 132L50 132L49 132L49 132L49 132L48 132L48 132L48 132L48 132L48 132L48 133L48 132L48 132L47 132L47 131L47 131L46 131L45 131L44 131L44 131L44 130L45 130L45 130L44 130L44 130L43 130L43 130L43 130L43 130L43 130L43 129L42 129L42 129L41 128L41 128L41 128L41 127L40 127L40 127L40 127L39 127L39 127L38 127L38 126L38 126L37 125L37 125L36 125L36 125L35 124L34 124L33 123L33 123L33 123L33 122L33 122L32 122L31 122L30 122L30 123L29 123L29 123L29 123L29 123L28 122L28 122L28 122L27 122L27 122L27 121L26 121L26 121L25 121L25 121L26 120L25 120L25 120L25 120L24 120L24 120L24 119L24 119L23 119L23 119L23 119L22 119L22 119L22 118L22 118L21 117L21 117L21 117L21 118L21 118L20 118L20 118L20 118L20 118L20 118L20 117L20 117L20 116L20 116L20 116L20 116L20 115L20 115L20 115L20 115L20 114L19 114L19 114L19 113L19 113L19 112L18 112L18 112L19 112L19 112L19 112L20 112L20 112L20 112L20 112L20 113L20 113L21 113L21 113L21 112L22 112L22 112V112L22 112L22 111L22 111L22 111L22 111L22 110L21 110L21 110L21 110L21 110L21 109L21 109L21 109L21 109L21 109L21 108L20 108L20 108L20 108L20 107L20 106L20 106L20 105L20 105L20 105L21 104L21 104L21 104L21 104L21 104L20 104L20 103L20 103L19 103L18 103L18 102L18 102L18 101L17 100L17 100L17 99L17 99L17 98L17 98L17 98L17 99L16 99L16 98L16 98L16 98L16 98L15 98L15 98L15 98L14 98L13 98L13 98L12 98L12 98L12 97L11 97L11 97L11 97L11 97L10 97L10 97L10 97L10 96L10 96L9 96L9 96L9 96L9 96L9 95L9 95L9 94L9 94L9 94L9 93L9 93L8 93L8 92L8 92L7 93L7 92L7 92L7 92L6 91L6 91L5 91L5 92L5 91L4 91L4 91L4 91L4 91L4 91L3 91L3 91L3 90L4 90L4 90L4 90L4 90L4 90L5 90L5 90L5 90L5 90L6 90L6 89L6 89L5 89L5 88L5 88L5 88L5 88L5 87L5 87L5 87L5 86L5 86L4 86L4 85L5 84L5 84L4 84L4 84L3 83L2 83L2 83L2 84L2 84L1 84L1 84L1 84L1 83L0 82L0 82L0 82L0 82L1 82L1 82L1 82L0 81L0 81L0 80L0 80L0 80L0 79L0 79L1 79L1 79L1 79L1 78L1 78L1 78L1 78L1 77L1 77L1 77L2 76L2 76L2 76L2 76L3 76L4 75L4 75L4 75L5 75L5 75L5 74L5 74L5 74L5 74L5 74L6 74L6 74L7 73L8 73L8 74L8 74L8 75L8 75L9 75L9 75L10 75L10 75L10 74L10 74L10 75L11 75L11 74L11 74L12 74L12 73L12 73L12 73L12 72L12 72L13 71L13 71L14 72L14 71L15 72L16 71L16 71L17 71L17 71L18 70L18 70L18 70L19 69L19 69L20 69L21 68L22 68L22 68L23 67L24 67L24 66L24 66L26 66L26 66L26 66L26 66L26 65L26 65L26 65L26 65L26 64L25 64L25 63L25 63L26 63L26 62L26 62L27 62L27 62L26 62L26 61L26 61L26 61L26 61L27 61L27 60L28 61L28 61L28 60L28 60L28 60L27 60L27 59L27 59L27 58L27 58L27 56L26 56L26 56L26 55L26 55L26 55L26 54L26 54L26 53L26 52L26 52L26 52L26 52L26 52L26 52L26 52L26 52L25 52L25 52L24 52L24 51L24 51L24 51L25 50L26 50L26 50L27 50L27 50L28 50L28 50L29 50L30 49L31 49L31 49L32 49L32 49L32 50L32 50L32 50L33 50L33 49L34 49L34 50L34 50L34 50L35 50L35 49L35 49L35 48L35 48L35 48L34 48L34 48L34 48L34 47L34 47L34 46L34 45L34 44L35 43L36 42L36 40L36 39L36 39L36 38L37 38L37 38L38 39L39 39L39 39L40 40L40 40L41 40L41 40L41 40L42 40L42 40L43 40L43 40L43 40L43 40L43 40L44 40L44 40L45 39L45 39L46 39L46 39L46 38L46 38L47 38L46 37L46 37L46 36L46 35L46 34L46 34L46 33L46 32L47 32L47 32L47 31L48 31L49 31L49 31L50 31L50 31L50 30L51 30L51 29L51 28L51 28L51 28L51 28L52 27L52 27L53 27L53 28L53 28L54 28L54 27L54 27L54 27L55 27L55 27L55 27L55 28L55 28L55 28L55 28L55 28L55 28L55 29L55 29L55 29L55 29L56 30L56 30L56 30L56 30L56 30L56 30L56 31L56 31L56 31L57 31L57 32L58 32L58 32L58 32L58 33L59 33L59 33L59 34L60 34L60 34L60 34L61 34L61 34L62 34L62 34L62 34L62 35L62 35L63 35L63 35L63 34L63 34L64 35L64 35L64 35L64 36L64 36L65 36L65 36L65 36L65 37L65 37L65 38L65 38L65 38L66 39L66 40L66 40L67 40L67 40L67 41L67 41L67 42L67 42L67 42L67 43L67 43L67 44L67 44L67 44L67 45L67 45L67 46L67 46L66 46L66 46L66 47L66 48L66 48L66 48L66 48L67 49L67 50L67 50L67 49L67 49L68 50L68 50L68 50L69 50L69 50L69 50L70 50L70 50L71 50L72 50L73 50L73 50L74 50L75 50L76 51L77 51L77 51L78 51L78 52L79 52L80 52L80 53L81 53L82 54L82 54L83 54L84 54L84 54L84 55L84 55V56L84 56L84 56L85 56L85 56L85 57L85 58L86 59L86 60L86 60L87 61L87 61L88 62L88 62L88 62L88 63L89 62L90 62L91 62L93 63L95 63L97 63L98 63L100 63L101 63L102 63L102 63L104 63L105 63L106 64L107 64L108 64L108 64L108 64L108 64L109 65L110 65L110 66L112 66L113 66L114 66L114 67L115 67L116 68L117 67L118 67L119 67V68L120 68L121 68L121 68L121 68L122 68L122 68L122 68L123 67L123 67L125 66L126 66L127 65L127 65L128 65L128 65L129 65L129 65L130 65L132 64L132 64L133 64L134 64L134 64L135 64L135 64L136 64L137 64L138 64L138 64L139 64L139 64L140 63L141 63L141 63L142 62L142 62L142 62L142 62L142 62L143 61L143 61L143 61L144 60L144 60L144 59L145 59L145 59L146 59L146 59L146 59L147 58L147 58L147 58L148 58L148 57L148 57L148 57L148 56L148 56L147 56L147 55L146 55L146 54L146 54L146 54L146 54L146 53L146 53L146 52L147 52L147 51L147 51L148 50L148 50L149 50H149L150 50L150 50L150 51L151 51L152 52L153 52L153 52L154 52L154 52L154 52L155 52L155 52L156 51L156 51L156 51L156 51L157 50L157 50L158 49L158 49L158 49L158 48L158 48L158 48L159 48L160 48L160 48L161 48L162 48L162 48L162 48L163 48L163 47L164 47L164 47L164 46L165 46L165 46L164 46L165 45L165 44L165 44L166 44L166 43L166 43L166 43L167 43L167 43L168 43L168 43L169 43L169 43L169 43L169 43L169 42L169 42L169 42L170 42L170 42L170 42L170 42L171 42L171 42L172 41L172 41L173 41L173 41L174 41L174 41L174 41L174 41L175 41L175 41L175 41L176 42L176 42L177 42L178 42L178 42L178 42L179 41L179 41L179 41L179 40L179 40L178 40L178 39L178 39L178 39L178 38L177 38L177 37L176 37L176 37L176 37L176 37L176 36L176 36L176 36L176 36L175 36L175 36L175 35L174 35L174 35L174 34L173 34L172 34L172 34L172 34L171 34L171 34L170 34L170 34L170 35L169 35L169 36L169 36L169 36L168 35L168 35L167 35L167 35L167 34L166 35L166 35L165 35L165 35L165 35L164 35L164 35L163 36L163 35L163 35L162 34L162 34L162 33L162 33L163 32L163 32L163 31L163 30L164 30L164 29L164 29L164 28L164 28L165 27L165 26L166 24L166 23L167 24L168 24L168 24L169 24L170 25L171 25H171L172 24L173 23L174 22L175 22L176 22L176 22L176 21L177 20L176 20L176 20L176 20L176 20L176 19L176 19L177 18L177 18L177 17L177 17L178 16L178 16L178 15L178 15L178 14L179 14L179 12L180 12L181 11L182 10L182 9L182 9L182 8L182 7L182 7L182 6L181 6L180 6L180 6L179 6L179 5L180 5L180 5L181 4L182 2L183 2L184 2L186 1L187 1L188 0L188 1L189 1L190 1L190 0L191 0L192 0L192 0L193 0Z"/></mask><path d="M144 166L144 166L144 166L144 167L144 167L144 168L144 168L143 169L143 169L143 169L143 169L143 169L142 170L142 171L142 171L142 171L142 171L142 171L142 171L141 172L141 172L141 172L141 172L141 172L140 172L140 172L140 172L139 173L139 173L139 173L139 173L138 173L138 173L137 173L137 172L136 172L136 172L135 171L135 170L135 170L135 169L135 169L136 168L136 168L136 168L137 167L137 167L138 167L138 167L137 167L138 166L138 166L138 166L138 166L139 166L139 166L139 166L140 166L141 166L141 166L141 166L142 166L142 166L142 166L142 166L142 166L143 166L143 166L143 165L143 165L143 165L143 166L144 166L144 166ZM142 161L142 162L142 161L143 162L143 162L142 162L142 162L142 162L142 162L142 162L142 161L142 161ZM151 159L150 159L150 159L150 159L151 159L151 159ZM151 159L151 159L151 159L151 159L151 159L151 159L151 158L152 159L152 159L151 159L151 159L151 159ZM154 154L154 154L154 154L154 154L154 154L154 154L154 154L154 154L154 154ZM172 147L172 147L172 147L172 147L172 147L172 147L172 147L172 147L172 147ZM178 143L178 143L178 143L178 143L178 143L178 143L178 142L178 142L178 142L178 142L178 143L178 143L178 143L178 143L178 143ZM184 132L184 132H184L184 132L184 131L184 131L184 132L184 132ZM188 125L188 125L187 125L187 125L187 124L187 124L188 125L188 125ZM188 124L188 124L188 124L188 124L188 124L188 124L188 124ZM188 124L188 124L187 124L187 123L187 123L187 123L187 123L188 123L188 123L188 124ZM186 117L186 117L185 117L184 116L184 116L184 115L184 115L185 116L185 116L185 116L185 116L186 116L186 117L186 117ZM193 0L193 0L193 0L193 0L194 0L194 1L195 1L195 1L196 1L196 2L196 2L197 2L198 3L198 3L198 2L198 2L199 2L199 2L200 3L200 3L201 3L201 3L201 4L201 4L201 4L201 4H201L202 4L202 5L202 5L202 5L202 5L202 6L202 6L202 6L202 6L202 6L203 6L203 7L203 7L203 7L204 7L204 8L204 8L204 8L204 8L204 8L204 9L204 9L204 10L204 10L205 11L205 12L205 12L205 13L205 13L205 13L205 13L206 14L206 14L206 14L206 14L206 15L206 15L206 15L206 16L207 17L207 18L208 18L208 19L207 19L207 19L208 20L208 20L207 20L208 20L208 21L208 22L208 22L208 23L208 23L209 24L209 24L209 24L209 24L210 25L211 25L212 24L213 24L213 25L213 25L213 25L213 25L214 25L214 26L214 26L214 26L215 26L215 26L215 26L215 26L215 26H216L216 26L216 26L216 26L216 26L217 27L218 28L218 29L219 29L220 29L220 29L220 30L220 30L220 30L220 31L221 31L221 32L221 32L221 32L220 33L221 34L221 34L221 35L221 35L221 36L222 36L222 36L223 35L223 35L224 36L225 36L226 35L227 35L227 35L228 35L228 34L228 34L228 34L229 34L229 33L230 33L230 33L231 33L232 33L232 33L233 32L234 32L234 32L234 32L235 32L235 32L236 32L236 33L236 33L236 33L236 33L235 34L236 34L236 34L236 35L236 35L236 36L236 36L236 36L235 37L235 37L235 37L234 37L234 37L234 37L234 38L234 38L234 38L234 38L234 39L234 39L234 40L233 40L233 40L233 40L233 41L233 42L233 42L233 43L233 43L233 43L233 43L233 44L232 44L232 44L232 44L232 45L232 45L232 45L232 46L231 46L231 46L231 46L231 46L231 47L231 47L231 47L231 47L230 48L230 48L230 48L230 49L230 49L230 50L229 50L229 50L229 50L229 50L228 50L228 50L228 50L227 50L226 49L226 49L225 49L225 49L225 49L225 49L224 49L224 49L224 50L224 50L224 50L223 51L223 51L222 51L222 51L222 51L222 51L222 52L222 52L222 52L222 53L222 53L223 56L222 56L222 58L222 58L222 58L222 58L222 59L222 59L223 59L223 59L222 59L222 60L222 60L222 61L222 61L222 61L222 61L222 62L222 62L221 62L221 62L221 62L220 62L220 62L220 62L220 62L219 63L219 63L219 63L220 63L220 63L220 63L220 64L220 63L220 63L219 63L219 63L219 62L219 62L219 62L218 62L218 61L218 61L218 61L218 61L218 61L217 61L217 61L217 62L217 62L217 63L217 63L217 64L217 64L216 64L216 64L216 64L216 64L216 64L216 64L215 64L215 64L215 64L215 65L215 65L215 65L214 66L214 66L214 66L214 66L213 66L213 66L212 66L212 66L211 66L211 66L210 66L210 67L210 67L210 67L210 67L210 68L211 68L211 68L211 68L211 69L211 69L211 69L211 70L210 70L210 69L210 69L210 69L209 69L208 69L208 69L208 69L207 69L207 69L207 69L207 68L206 68L206 68L206 68L206 68L206 68L206 68L205 68L205 68L205 68L205 68L205 68L204 68L204 69L204 70L204 70L204 70L204 70L204 70L203 71L203 71L203 71L203 72L202 72L202 72L202 72L201 72L201 72L201 72L201 73H201L200 73L200 73L200 73L199 74L199 74L198 74L198 74L198 74L198 74L198 74L198 75L197 75L196 76L196 76L196 76L196 76L196 77L195 77L194 77L193 77L193 77L193 78L193 78L192 78L192 78L192 78L191 78L191 78L190 78L188 80L188 80L187 81L187 81L187 81L187 81L186 82L186 82L186 82L186 82L185 82L186 82L186 82L185 82L184 82L184 83L184 83L184 83L184 82L183 82L184 82L184 82L186 81L185 80L186 80L186 80L186 80L186 80L185 80L184 80L184 80L184 79L184 79L184 79L185 78L185 78L185 78L185 78L185 78L185 77L186 77L186 76L187 76L188 75L188 75L188 74L188 74L188 74L187 73L186 72L186 72L186 72L186 72L186 72L185 72L185 72L184 72L183 72L183 73L183 73L182 73L182 74L181 75L181 76L179 77L178 77L177 78L176 78L176 79L176 80L175 80L175 81L175 81L175 81L174 81L174 81L173 81L173 81L172 81L172 80L171 81L171 81L170 82L170 83L170 83L170 84L170 85L172 86L174 86L174 86L174 86L175 86L175 87L175 87L175 88L176 88L176 88L175 88L175 88L175 89L175 90L175 90L176 90L176 91L177 91L178 90L179 90L179 90L179 90L180 89L180 88L180 88L180 88L180 88L181 88L182 87L183 88L184 88L184 88L185 89L186 89L186 89L187 89L187 89L187 89L187 89L188 89L188 89L189 89L189 89L189 89L189 90L189 90L189 91L189 91L189 91L189 91L189 92L189 92L188 92L188 92L188 92L188 92L188 92L188 92L187 91L187 91L186 92L185 92L184 93L183 93L183 93L182 93L182 93L182 93L182 94L183 94L183 94L182 94L182 94L182 94L182 94L182 95L182 95L181 96L181 96L180 96L180 96L180 95L180 95L180 95L180 95L180 95L180 96L180 96L180 96L180 96L180 96L179 97L179 97L179 97L179 98L179 98L178 98L178 98L178 98L177 99L177 99L177 100L176 101L176 101L176 102L177 102L177 102L178 103L178 103L179 103L180 104L180 104L180 105L181 106L181 107L181 107L182 108L182 109L182 110L183 111L182 111L182 112L183 112L184 112L184 113L184 113L185 114L185 114L185 114L186 114L186 115L186 115L186 115L186 116L186 116L186 116L184 115L184 115L184 115L183 115L182 114L182 114L181 114L180 115L180 115L179 115L179 115L180 115L180 115L181 114L182 115L182 115L182 115L183 116L183 116L184 116L184 117L186 118L186 118L186 119L186 119L186 120L186 120L185 120L185 120L184 120L183 121L183 121L183 122L182 122L182 122L181 122L180 122L180 122L180 122L180 122L180 122L181 122L182 123L183 123L184 122L184 122L184 122L185 122L186 124L186 124L187 124L187 124L187 124L186 124L186 125L185 126L185 126L186 126L186 125L186 125L187 125L187 126L186 127L186 127L186 127L186 127L186 127L185 127L185 127L185 127L185 127L186 128L186 128L186 128L185 128L186 128L185 129L185 129L185 129L185 129L185 130L185 131L185 131L185 131L184 131L184 131L184 131L184 131L183 131L183 132L183 132L183 132L182 132L182 132L182 132L182 132V133L182 133L182 134L182 134L181 134L182 134L182 135L181 135L181 135L181 136L180 136L180 137L180 138L180 138L179 138L179 138L179 138L179 138L178 138L178 138L178 137L178 137L178 137L178 138L178 138L178 138L178 138L178 138L178 138L178 138L178 138L178 138L178 139L178 139L179 139L179 139L178 140L178 140L178 140L177 141L177 141L176 140L176 140L176 140L176 141L177 141L177 141L177 141L178 141L178 141L178 142L177 142L177 143L178 143L178 143L178 144L177 143L177 143L177 143L176 143L176 143L176 143L176 144L176 144L176 144L176 144L175 144L175 144L175 144L175 145L175 145L175 145L174 146L174 146L174 146L174 146L174 146L174 147L174 147L173 147L173 147L172 147L172 147L172 147L171 147L171 147L171 147L171 147L171 147L171 148L172 148L172 148L172 148L171 149L171 149L170 149L170 150L170 150L170 150L169 150L169 150L169 150L169 150L169 151L169 151L169 151L169 150L169 150L168 151L168 151L168 151L168 151L167 151L167 152L167 152L166 152L166 152L166 152L166 152L166 152L166 152L166 153L166 153L166 154L165 154L165 154L164 154L164 154L164 154L164 154L163 154L163 154L162 154L162 154L162 154L162 155H161L161 154L161 154L160 154L160 155L160 155L159 155L159 155L159 155L159 154L158 154L158 155L158 155L158 155L158 155L158 155L158 155L157 155L157 155L157 155L157 155H156L156 155L156 155L156 156L156 156L156 155L155 155L155 154L155 154L154 154L154 154L154 153L154 153L154 153L154 153L154 153L154 154L154 154L153 154L153 154L153 154L154 154L154 155L154 155L154 155L154 156L154 156L154 156L154 157L154 157L154 157L154 157L154 157L154 157L154 157L154 157L154 157L153 157L153 157L153 157L152 157L152 157L152 158L152 158L152 158L151 158L151 158L151 158L151 158L150 158L150 158L150 158L150 158L150 158L150 158L150 158L150 158L150 158L150 158L149 159L149 159L149 158L148 158L148 158L148 158L148 159L148 159L147 159L147 159L147 159L147 159L146 160L146 160L145 160L145 160L145 160L145 160L144 160L144 160L144 160L144 160L143 161L143 161L142 161L142 161L142 160L142 160L142 161L142 161L142 161L141 162L141 162L141 162L142 162L142 163L142 163L142 163L142 163L142 164L142 164L142 164L142 164L142 165L141 165L140 165L140 164L140 164L140 164L140 164L140 164L140 164L140 164L140 163L140 163L140 163L140 162L139 162L139 162L139 162L139 161L140 161L140 160L140 160L140 160L140 160L140 159L140 160L139 160L139 159L139 159L139 159L139 160L138 160L138 160L138 160L137 160L137 160L137 160L137 160L137 159L137 159L136 159L136 159L136 159L136 159L135 159L135 158L135 158L135 158L135 158L135 158L135 158L135 159L135 159L135 159L134 159L134 159L134 159L134 159L134 159L134 159L133 159L133 160L133 160L132 159L132 159L132 159L131 159L131 159L131 159L130 159L130 159L130 159L129 158L129 158L129 158L129 158L129 158L128 158L128 158L128 158L128 158L128 158L128 158L128 157L128 157L128 156L127 156L127 156L127 156L127 156L127 155L128 155L128 155L128 155L128 154L128 154L127 154L127 154L126 154L126 154L126 154L126 154L126 154L125 154L125 154L125 154L125 154L124 154L124 154L124 153L123 153L123 153L123 153L123 152L123 152L122 152L122 152L122 152L121 153L121 153L121 153L120 153L120 153L120 154L120 154L120 154L120 154L120 154L119 154L119 155L118 155L118 154L118 154L118 154L118 154L117 155L117 155L117 155L117 155L117 155L116 154L116 154L116 154L116 155L115 155L115 155L115 154L115 154L115 154L114 155L114 155L114 155L114 155L114 156L114 156L113 156L113 156L113 155L113 155L112 155L112 155L112 154L111 154L111 154L111 155L111 155L111 155L110 156L110 156L110 156L110 156L110 156H109L109 156L109 156L109 156L108 156L108 156L108 156L108 156L108 156L108 156L108 157L108 157L108 157L108 157L108 158L108 158L109 158L109 158L109 159L109 160L109 160L109 160L109 160L109 161L109 161L109 161L109 161L108 161L108 161L108 161L108 161L108 161L108 161L107 161L107 161L107 161L107 160L107 160L107 160L106 160L106 160L106 159L106 159L106 159L106 159L106 159L106 159L106 159L105 159L104 160L104 160L104 160L104 160L103 160L103 160L102 160L102 160L102 159L102 159L102 159L102 159L102 159L102 159L102 158L102 158L102 158L102 158L101 157L100 157L100 157L99 157L99 157L99 157L99 157L99 157L99 156L99 156L99 156L99 155L99 155L100 154L100 154L100 154L100 153L100 153L100 153L99 153L99 153L98 153L98 153L98 152L98 152L98 152L97 151L97 151L97 151L97 150L97 150L97 150L97 150L97 149L97 149L97 149L97 149L97 149L96 149L96 149L96 149L96 149L95 149L94 149L94 149L93 150L93 150L93 150L92 150L92 149L93 149L93 148L93 148L93 148L93 148L92 147L92 147L92 147L93 146L93 146L93 146L93 146L93 145L93 145L93 144L94 144L94 144L94 144L94 144L94 144L95 143L95 143L95 142L95 143L96 143L96 142L96 142L96 142L97 142L97 141L97 141L96 141L96 140L96 140L97 140L97 140L97 140L97 139L97 138L97 138L97 138L97 137L97 136L97 136L97 136L97 135L97 134L96 134L96 134L96 134L96 134L96 134L96 134L95 134L95 134L95 134L95 132L95 132L95 132L94 131L94 131L94 131L94 131L94 131L94 131H93L93 130L93 130L93 130L93 130L92 130L92 130L92 130L92 131L92 131L92 131L91 131L91 131L91 131L90 131L90 131L90 131L89 130L89 130L88 130L88 131L88 131L88 130L88 130L88 130L88 130L88 130L88 130L88 130L89 129L89 129L88 128L88 128L88 128L88 128L87 128L87 128L87 128L87 128L87 127L88 127L88 127L88 127L88 127L87 127L87 127L87 126L87 126L87 126L86 126L85 126L85 127L85 127L84 127L84 127L84 128L84 128L84 128L84 128L83 127L83 127L82 127L82 127L82 127L82 127L81 126L81 126L80 127L80 127L80 128L79 128L79 128L79 128L79 128L78 129L78 129L77 129L76 129L76 130L76 130L76 130L75 130L75 131L74 131L74 132L74 132L74 132L74 132L74 132V132L74 132L73 133L73 133L73 133L72 133L72 133L72 133L72 133L72 133L71 133L71 133L71 133L70 133L70 133H70L70 133L70 132L70 132L69 132L69 132L68 132L68 132L68 132L68 132L68 132L67 132L67 132L67 132L66 132L66 132L65 132L65 132L65 132L65 132L65 132L65 131L65 131L64 131L64 131L63 131L63 131L63 131L62 131L62 132L62 132L61 132L61 132L60 133L60 134L60 134L60 134L59 134L59 135L59 135L58 135L58 134L59 133L59 133L59 133L59 132L58 132L58 132L58 132L58 132L57 132L57 132L57 132L56 132L56 132L56 133L56 133L56 133L55 133L55 133L54 133L54 133L54 133L54 133L53 133L52 133L52 132L52 132L51 132L51 132L51 132L50 132L50 132L50 132L50 132L50 132L49 132L49 132L49 132L48 132L48 132L48 132L48 132L48 132L48 133L48 132L48 132L47 132L47 131L47 131L46 131L45 131L44 131L44 131L44 130L45 130L45 130L44 130L44 130L43 130L43 130L43 130L43 130L43 130L43 129L42 129L42 129L41 128L41 128L41 128L41 127L40 127L40 127L40 127L39 127L39 127L38 127L38 126L38 126L37 125L37 125L36 125L36 125L35 124L34 124L33 123L33 123L33 123L33 122L33 122L32 122L31 122L30 122L30 123L29 123L29 123L29 123L29 123L28 122L28 122L28 122L27 122L27 122L27 121L26 121L26 121L25 121L25 121L26 120L25 120L25 120L25 120L24 120L24 120L24 119L24 119L23 119L23 119L23 119L22 119L22 119L22 118L22 118L21 117L21 117L21 117L21 118L21 118L20 118L20 118L20 118L20 118L20 118L20 117L20 117L20 116L20 116L20 116L20 116L20 115L20 115L20 115L20 115L20 114L19 114L19 114L19 113L19 113L19 112L18 112L18 112L19 112L19 112L19 112L20 112L20 112L20 112L20 112L20 113L20 113L21 113L21 113L21 112L22 112L22 112V112L22 112L22 111L22 111L22 111L22 111L22 110L21 110L21 110L21 110L21 110L21 109L21 109L21 109L21 109L21 109L21 108L20 108L20 108L20 108L20 107L20 106L20 106L20 105L20 105L20 105L21 104L21 104L21 104L21 104L21 104L20 104L20 103L20 103L19 103L18 103L18 102L18 102L18 101L17 100L17 100L17 99L17 99L17 98L17 98L17 98L17 99L16 99L16 98L16 98L16 98L16 98L15 98L15 98L15 98L14 98L13 98L13 98L12 98L12 98L12 97L11 97L11 97L11 97L11 97L10 97L10 97L10 97L10 96L10 96L9 96L9 96L9 96L9 96L9 95L9 95L9 94L9 94L9 94L9 93L9 93L8 93L8 92L8 92L7 93L7 92L7 92L7 92L6 91L6 91L5 91L5 92L5 91L4 91L4 91L4 91L4 91L4 91L3 91L3 91L3 90L4 90L4 90L4 90L4 90L4 90L5 90L5 90L5 90L5 90L6 90L6 89L6 89L5 89L5 88L5 88L5 88L5 88L5 87L5 87L5 87L5 86L5 86L4 86L4 85L5 84L5 84L4 84L4 84L3 83L2 83L2 83L2 84L2 84L1 84L1 84L1 84L1 83L0 82L0 82L0 82L0 82L1 82L1 82L1 82L0 81L0 81L0 80L0 80L0 80L0 79L0 79L1 79L1 79L1 79L1 78L1 78L1 78L1 78L1 77L1 77L1 77L2 76L2 76L2 76L2 76L3 76L4 75L4 75L4 75L5 75L5 75L5 74L5 74L5 74L5 74L5 74L6 74L6 74L7 73L8 73L8 74L8 74L8 75L8 75L9 75L9 75L10 75L10 75L10 74L10 74L10 75L11 75L11 74L11 74L12 74L12 73L12 73L12 73L12 72L12 72L13 71L13 71L14 72L14 71L15 72L16 71L16 71L17 71L17 71L18 70L18 70L18 70L19 69L19 69L20 69L21 68L22 68L22 68L23 67L24 67L24 66L24 66L26 66L26 66L26 66L26 66L26 65L26 65L26 65L26 65L26 64L25 64L25 63L25 63L26 63L26 62L26 62L27 62L27 62L26 62L26 61L26 61L26 61L26 61L27 61L27 60L28 61L28 61L28 60L28 60L28 60L27 60L27 59L27 59L27 58L27 58L27 56L26 56L26 56L26 55L26 55L26 55L26 54L26 54L26 53L26 52L26 52L26 52L26 52L26 52L26 52L26 52L26 52L25 52L25 52L24 52L24 51L24 51L24 51L25 50L26 50L26 50L27 50L27 50L28 50L28 50L29 50L30 49L31 49L31 49L32 49L32 49L32 50L32 50L32 50L33 50L33 49L34 49L34 50L34 50L34 50L35 50L35 49L35 49L35 48L35 48L35 48L34 48L34 48L34 48L34 47L34 47L34 46L34 45L34 44L35 43L36 42L36 40L36 39L36 39L36 38L37 38L37 38L38 39L39 39L39 39L40 40L40 40L41 40L41 40L41 40L42 40L42 40L43 40L43 40L43 40L43 40L43 40L44 40L44 40L45 39L45 39L46 39L46 39L46 38L46 38L47 38L46 37L46 37L46 36L46 35L46 34L46 34L46 33L46 32L47 32L47 32L47 31L48 31L49 31L49 31L50 31L50 31L50 30L51 30L51 29L51 28L51 28L51 28L51 28L52 27L52 27L53 27L53 28L53 28L54 28L54 27L54 27L54 27L55 27L55 27L55 27L55 28L55 28L55 28L55 28L55 28L55 28L55 29L55 29L55 29L55 29L56 30L56 30L56 30L56 30L56 30L56 30L56 31L56 31L56 31L57 31L57 32L58 32L58 32L58 32L58 33L59 33L59 33L59 34L60 34L60 34L60 34L61 34L61 34L62 34L62 34L62 34L62 35L62 35L63 35L63 35L63 34L63 34L64 35L64 35L64 35L64 36L64 36L65 36L65 36L65 36L65 37L65 37L65 38L65 38L65 38L66 39L66 40L66 40L67 40L67 40L67 41L67 41L67 42L67 42L67 42L67 43L67 43L67 44L67 44L67 44L67 45L67 45L67 46L67 46L66 46L66 46L66 47L66 48L66 48L66 48L66 48L67 49L67 50L67 50L67 49L67 49L68 50L68 50L68 50L69 50L69 50L69 50L70 50L70 50L71 50L72 50L73 50L73 50L74 50L75 50L76 51L77 51L77 51L78 51L78 52L79 52L80 52L80 53L81 53L82 54L82 54L83 54L84 54L84 54L84 55L84 55V56L84 56L84 56L85 56L85 56L85 57L85 58L86 59L86 60L86 60L87 61L87 61L88 62L88 62L88 62L88 63L89 62L90 62L91 62L93 63L95 63L97 63L98 63L100 63L101 63L102 63L102 63L104 63L105 63L106 64L107 64L108 64L108 64L108 64L108 64L109 65L110 65L110 66L112 66L113 66L114 66L114 67L115 67L116 68L117 67L118 67L119 67V68L120 68L121 68L121 68L121 68L122 68L122 68L122 68L123 67L123 67L125 66L126 66L127 65L127 65L128 65L128 65L129 65L129 65L130 65L132 64L132 64L133 64L134 64L134 64L135 64L135 64L136 64L137 64L138 64L138 64L139 64L139 64L140 63L141 63L141 63L142 62L142 62L142 62L142 62L142 62L143 61L143 61L143 61L144 60L144 60L144 59L145 59L145 59L146 59L146 59L146 59L147 58L147 58L147 58L148 58L148 57L148 57L148 57L148 56L148 56L147 56L147 55L146 55L146 54L146 54L146 54L146 54L146 53L146 53L146 52L147 52L147 51L147 51L148 50L148 50L149 50H149L150 50L150 50L150 51L151 51L152 52L153 52L153 52L154 52L154 52L154 52L155 52L155 52L156 51L156 51L156 51L156 51L157 50L157 50L158 49L158 49L158 49L158 48L158 48L158 48L159 48L160 48L160 48L161 48L162 48L162 48L162 48L163 48L163 47L164 47L164 47L164 46L165 46L165 46L164 46L165 45L165 44L165 44L166 44L166 43L166 43L166 43L167 43L167 43L168 43L168 43L169 43L169 43L169 43L169 43L169 42L169 42L169 42L170 42L170 42L170 42L170 42L171 42L171 42L172 41L172 41L173 41L173 41L174 41L174 41L174 41L174 41L175 41L175 41L175 41L176 42L176 42L177 42L178 42L178 42L178 42L179 41L179 41L179 41L179 40L179 40L178 40L178 39L178 39L178 39L178 38L177 38L177 37L176 37L176 37L176 37L176 37L176 36L176 36L176 36L176 36L175 36L175 36L175 35L174 35L174 35L174 34L173 34L172 34L172 34L172 34L171 34L171 34L170 34L170 34L170 35L169 35L169 36L169 36L169 36L168 35L168 35L167 35L167 35L167 34L166 35L166 35L165 35L165 35L165 35L164 35L164 35L163 36L163 35L163 35L162 34L162 34L162 33L162 33L163 32L163 32L163 31L163 30L164 30L164 29L164 29L164 28L164 28L165 27L165 26L166 24L166 23L167 24L168 24L168 24L169 24L170 25L171 25H171L172 24L173 23L174 22L175 22L176 22L176 22L176 21L177 20L176 20L176 20L176 20L176 20L176 19L176 19L177 18L177 18L177 17L177 17L178 16L178 16L178 15L178 15L178 14L179 14L179 12L180 12L181 11L182 10L182 9L182 9L182 8L182 7L182 7L182 6L181 6L180 6L180 6L179 6L179 5L180 5L180 5L181 4L182 2L183 2L184 2L186 1L187 1L188 0L188 1L189 1L190 1L190 0L191 0L192 0L192 0L193 0Z" fill="var(--fill-0,#71B219)" stroke="var(--stroke-0,white)" mask="url(#path-1-inside-1_0_218)"/></g></svg>