<svg preserveAspectRatio="none" width="100%" height="100%" overflow="visible" style="display: block;" viewBox="0 0 236.077 172.994" fill="none" xmlns="http://www.w3.org/2000/svg">
<g id="CN">
<mask id="path-1-inside-1_0_218" fill="white">
<path d="M143.94 165.812L144.133 165.993L144.258 166.255L144.361 166.738L144.423 167.183L144.034 167.465L143.684 167.579L142.984 168.661L142.838 169.003L142.72 169.146L142.683 169.294L142.697 169.442L142.515 169.96L142.355 170.598L142.254 170.859L142.053 171.059L141.798 171.161L141.633 171.176L141.483 171.23L141.113 171.577L140.696 171.838L140.766 171.957L140.771 172.071L140.588 172.197L140.385 172.173L139.798 172.276L139.583 172.47L139.363 172.83L139.279 172.879L138.924 172.963L138.655 172.994L138.194 172.741L137.966 172.667L137.357 172.564L136.765 172.392L136.349 172.196L135.498 171.716L135.398 170.848L135.253 170.379L135.243 170.211L135.299 168.764L135.359 168.605L135.467 168.467L135.843 168.143L136.273 167.886L136.891 167.349L137.34 167.103L137.715 166.749L137.495 166.764L137.333 166.719L137.492 166.416L137.664 166.254L137.864 166.166L138.263 166.229L138.631 166.166L138.904 165.897L139.162 165.84L140.147 165.928L140.83 165.804L141.171 165.556L141.332 165.546L141.835 165.616L142.022 165.874L142.006 165.701L142.028 165.533L142.12 165.55L142.779 165.87L142.78 165.479L142.818 165.376L143.023 165.213L143.126 165.216L143.382 165.531L143.631 165.715L143.94 165.812ZM141.996 161.312L142.139 161.455L142.522 161.354L142.592 161.536L142.589 161.621L142.453 161.829L142.137 161.669L141.822 161.706L141.593 161.692L141.531 161.593L141.706 161.39L141.996 161.312ZM150.717 159.065L150.338 159.152L150.257 159.134L150.389 158.921L150.732 158.774L150.717 159.065ZM151.282 159.222L151.208 159.304L151.095 159.154L151.064 158.94L150.982 158.825L151.168 158.68L151.251 158.519L151.471 158.551L151.562 158.599L151.368 158.766L151.322 158.837L151.282 159.222ZM154.236 154.251L154.267 154.443L153.966 154.151L153.88 154.134L153.736 154.024L153.653 153.84L153.886 153.834L154.101 154.052L154.236 154.251ZM172.103 147.18L171.974 147.433L171.746 147.391L171.739 147.211L171.692 147.159L171.755 146.992L171.797 146.945L172.055 147.088L172.103 147.18ZM178.427 143.122L178.14 143.318L177.961 143.225L177.958 142.962L178.049 142.725L177.945 142.553L178.046 142.35L178.26 142.29L178.337 142.417L178.456 142.484L178.493 142.554L178.495 142.688L178.381 142.907L178.47 143.026L178.427 143.122ZM183.949 131.844L183.612 131.949H183.486L183.497 131.633L183.772 131.333L183.883 131.433L183.947 131.589L183.949 131.844ZM187.506 124.878L187.492 124.96L187.163 124.673L187.005 124.627L187.081 124.464L187.302 124.422L187.478 124.782L187.506 124.878ZM188.4 123.937L188.363 124.141L188.259 124.112L188.122 123.749L188.196 123.66L188.392 123.682L188.4 123.937ZM187.983 123.623L187.927 123.709L187.449 123.455L186.932 123.402L186.753 123.178L186.721 122.827L187.266 122.842L187.938 123.159L188.082 123.321L187.983 123.623ZM186.309 116.808L185.992 116.937L184.988 116.552L184.278 116.128L183.855 115.614L183.794 115.401L184.288 115.437L184.771 115.622L184.878 115.904L185.073 115.993L185.205 116.158L186.1 116.541L186.237 116.656L186.309 116.808ZM192.59 0.179705L192.765 0.198918L192.861 0.197537L193.047 0.0686084L193.56 0.297666L194.541 0.978015L195.156 1.27978L195.41 1.20569L195.685 1.39364L195.987 1.84355L196.36 2.10827L197.031 2.23034L197.697 2.7214L197.965 2.74881L198.059 2.47312L198.308 2.3154L198.709 2.27425L199.291 2.51704L200.052 3.04238L200.529 3.27282L200.723 3.20969L200.927 3.3071L201.091 3.55261L201.106 3.85576L201.049 4.01763L201.232 4.27277H201.443L201.787 4.39483L202.056 4.84474L202.298 5.05324L202.468 5.23291L202.498 5.38243L202.513 5.53329L202.464 5.64991L202.371 5.84331L202.342 6.05043L202.459 6.28363L202.887 6.45233L203.032 6.62655L203.065 6.84874L203.198 7.09425L203.49 7.37818L203.6 7.61549L203.533 7.80616L203.619 7.96527L203.762 8.0901L203.792 8.54139L203.805 8.80063L204.04 9.09143L204.088 9.68672L204.252 10.3437L204.804 11.2422L204.987 11.7278L204.94 12.3038L205.02 12.5741L205.271 12.7044L205.391 12.9471L205.377 13.3024L205.475 13.5233L205.555 13.7578L205.501 14.1227L205.581 14.4505L205.71 14.6426L205.801 14.9964L205.852 15.4381L206.222 16.1349L206.908 17.0868L207.329 17.8248L207.482 18.3488L207.483 18.7795L207.334 19.1169L207.325 19.3624L207.46 19.516L207.5 19.7232L207.446 19.9852L207.669 20.2952L208.423 20.8329L208.122 21.6559L208.042 22.2333L208.082 22.8396L208.269 23.2662L208.6 23.5131L208.807 23.771L208.888 24.0398L209.287 24.332L210.002 24.6488L210.92 24.7051L212.038 24.498L212.722 24.4637L212.974 24.6008L213.061 24.8093L212.979 25.0878L213.169 25.2702L213.629 25.358L213.944 25.5322L214.117 25.7955L214.329 25.8696L214.581 25.7558L214.826 25.7722L215.064 25.9176L215.218 25.8669L215.352 25.7078H215.568L215.79 25.7105L215.927 26.096L216.15 26.3127L216.459 26.3607L216.928 26.8284L217.871 28.1576L218.485 28.628L219.1 28.7748L219.865 28.805L220.112 29.318L219.911 29.8598L219.861 30.3111L220.034 30.4729L220.273 31.0024L220.612 31.3097L220.676 31.5524L220.833 31.824L220.767 32.3247L220.477 33.0558L220.557 33.6785L221.005 34.1929L221.264 34.688L221.331 35.1627L221.443 35.4507L221.601 35.5522L222.06 35.5165L222.824 35.3451L223.382 35.3739L223.74 35.6057L224.622 35.6139L226.029 35.4L226.918 35.3341L227.289 35.4164L227.619 35.1105L227.91 34.4151L228.181 34.0887L228.435 34.1298L228.837 33.9062L229.389 33.4165L229.867 33.1792L230.474 33.2039L231.121 33.2286L231.525 33.0229L231.905 32.5935L232.564 32.2136L233.968 31.7157L234.305 31.6375L234.466 31.6649L234.934 31.7431L235.35 31.9378L235.742 32.3288L235.802 32.5798L235.758 32.909L235.671 33.0997L235.51 33.3137L235.359 33.6607L235.457 33.9309L235.684 34.5084L235.871 34.9253L236.077 35.4164L235.985 35.592L235.86 35.9322L235.476 36.5069L235.267 36.7264L235.041 36.9403L234.652 36.9925L234.486 37.0418L234.297 37.1324L234.179 37.3354L234.044 37.478L233.821 37.7633L233.803 38.0089L233.904 38.3737L233.953 38.7468L233.701 39.0801L233.506 39.5918L233.447 39.7454L233.351 40.1322L233.322 40.2666L233.26 41.0786L233.008 41.6314L232.657 42.2734L232.736 42.6561L232.798 43.01L232.711 43.1814L232.689 43.3309L232.638 43.6711L232.528 43.8014L232.209 44.014L232.018 44.2705L232.057 44.6587L231.96 44.9947L231.814 45.291L231.661 45.4844L231.441 45.6079L231.295 45.7121L231.185 46.088L231.152 46.3788L231.049 46.6682L231.112 46.9631L231.001 47.2182L230.687 47.3965L230.51 47.5022L230.346 47.5447L230.032 47.8218L229.752 48.7696L229.689 49.3196L229.753 49.8079L229.36 50.1138L229.068 50.3566L228.885 50.2688L228.691 50.1865L228.245 50.0809L228.023 50.0096L227.574 49.8505L226.856 49.6488L226.154 49.4143L225.714 49.2908L225.367 49.192L225.105 49.0302L224.883 48.7407L224.663 48.8574L224.46 49.2003L224.12 49.4033L223.966 49.7777L223.829 50.0644L223.477 50.4471L223.32 50.6049L222.631 50.8641L222.476 50.9505L221.913 51.0054L221.722 51.1192L221.524 51.3606L221.47 51.6007L221.61 51.8531L221.829 52.3579L221.931 52.7021L222.08 53.3838L222.579 55.5141L222.418 55.8803L222.268 57.4673L222.304 57.7526L222.289 58.197L222.298 58.5221L222.402 58.603L222.536 58.7169L222.605 58.9062L222.587 59.197L222.518 59.4096L222.413 59.8307L222.272 60.4383L222.117 60.6715L222.015 60.8567L221.928 60.9843L221.917 61.4136L221.859 61.6961L221.616 61.7963L221.374 61.9609L221.086 61.9005L220.833 61.9334L220.521 62.0432L219.961 62.1707L219.636 62.3408L219.481 62.4643L219.374 62.6124L219.354 62.7551L219.429 62.8305L219.744 62.8881L219.96 63.1542L219.99 63.445L219.767 63.611L219.657 63.4286L219.471 63.371L219.126 63.1144L218.873 62.8319L218.684 62.5191L218.693 61.8511L218.661 61.751L218.317 61.6138L218.215 61.4136L218.052 61.3189L217.819 61.3793L217.644 61.3162L217.505 61.2065L217.34 61.1941L217.197 61.3669L217.12 61.7387L216.879 62.3546L216.857 62.7263L216.754 63.2557L216.651 63.9265L216.564 64.0664L216.296 64.087L216.204 64.1308L216.062 64.3586L215.893 64.3969L215.743 64.2639L215.508 64.1308L215.284 64.113L215.083 64.2461L214.846 64.5355L214.711 64.7687L214.663 64.9881L214.626 65.2584L214.387 65.5162L214.169 65.652L213.719 66.032L213.576 66.1897L213.254 66.1911L212.904 66.176L212.43 66.2789L211.66 66.331L211.199 66.2528L210.63 66.3255L210.185 66.449L210.122 66.6341L210.139 66.9085L210.227 67.0868L210.335 67.2061L210.52 67.5737L210.714 67.929L211.007 68.158L211.129 68.4049L211.135 68.634L210.996 68.9221L210.785 69.2979L210.588 69.5297L210.441 69.5215L210.216 69.3871L210.063 69.217L209.698 69.1539L208.807 69.2622L208.361 69.1868L208.148 69.0483L207.775 69.0387L207.199 68.8535L206.847 68.7945L206.68 68.6766L206.648 68.4049L206.483 68.2184L206.39 67.9948L206.181 67.7136L205.98 67.5723L205.782 67.5134L205.566 67.6835L205.335 67.8371L205.163 67.8028L205.079 67.8453L204.985 67.9729L204.614 68.2335L204.527 68.4722L204.38 68.9783L204.277 69.4982L204.189 69.682L204.039 69.7135L203.886 69.8699L203.565 70.3568L203.275 70.8054L202.854 71.1085L202.655 71.3856L202.553 71.638L202.253 71.9905L201.813 72.0536L201.462 72.1565L201.247 72.1839L201.093 72.3265L200.981 72.5433L200.927 72.6297H200.727L200.529 72.8135L200.044 73.2318L199.647 73.31L199.152 73.5885L198.716 73.7997L198.535 73.9191L198.486 74.0508L198.423 74.2181L198.213 74.251L198.009 74.2428L197.555 74.6254L197.325 74.9505L196.433 75.6418L196.068 76.0301L195.974 76.5321L195.928 76.495L195.61 76.9326L194.985 77.3482L193.651 77.4415L193.228 77.1466L193.076 77.3496L192.958 77.6225L192.607 77.7131L192.061 77.7378L191.754 77.9175L191.59 78.1177L190.84 78.1822L190.565 78.4497L190.097 78.5443L188.148 79.7102L187.723 80.1999L187.32 80.7719L187.038 81.0586L186.785 81.2588L186.555 81.3412L186.329 81.5387L186.101 81.5633L185.869 81.4728L185.609 81.5044L185.437 81.7431L185.581 82.0544L185.501 82.1861L184.99 82.3548L184.227 82.4659L183.905 82.6689L183.793 82.7841L183.625 82.8417L183.462 82.4412L183.405 81.9117L183.72 81.7842L184.01 81.717L185.618 80.9845L185.417 80.4331L185.56 80.1931L185.921 79.8021L186.155 79.6087L186.028 79.5374L184.973 79.6663L184.369 79.6567L184.058 79.6169L184.152 79.2823L184.099 78.9476L184.027 78.8227L184.564 78.4414L184.808 78.3482L184.994 78.3537L184.98 78.1232L184.826 77.7762L184.992 77.3276L186.087 76.7996L186.35 76.3195L186.789 75.8709L187.592 74.7544L187.64 74.5637L187.874 74.0384L187.916 73.8285L187.544 73.5213L187.397 73.0906L186.31 72.3115L186.218 71.6407L186.116 71.6695L185.951 72.1386L185.809 72.2895L185.306 72.3032L185.068 72.1263L183.667 72.0111L183.325 72.3142L183.006 72.7819L182.693 73.1166L182.38 73.2881L182.107 73.5926L180.982 75.395L180.557 75.5321L178.555 76.6171L177.553 77.0424L176.781 77.7913L176.515 78.2439L176.28 78.7459L176.137 79.5045L175.424 80.4248L175.179 80.6224L174.93 80.702L174.599 80.6731L174.313 80.7308L173.826 80.6498L173.229 80.9406L172.557 81.1916L171.978 80.5593L171.564 80.4029L170.889 80.5785L170.575 80.8597L169.926 82.2492L169.682 83.0434L169.699 83.3685L170.077 84.3533L170.505 84.9033L171.464 85.5302L173.502 85.9609L173.981 85.8073L174.494 85.8059L175.035 86.2147L175.373 86.8895L175.404 87.349L175.415 87.5081L175.539 87.6439L175.611 87.8757L175.397 88.0678L175.232 88.1638L175.093 88.8757L175.085 89.6616L175.259 89.9223L175.698 90.2885L176.376 90.5903L177.004 90.6547L178.202 90.5094L178.692 90.0361L178.663 89.8317L178.675 89.567L179.73 88.8716L180.331 88.2543L180.238 88.0911L180.122 87.9827L180.228 87.9196L180.557 87.8757L182.024 87.2311L183.178 87.7578L183.837 88.3641L184.489 88.4655L184.94 88.7756L185.461 89.0389L186.141 89.0568L186.715 89.1116L186.889 88.8675L187.07 88.707L187.273 88.7385L187.503 89.0581L188.155 89.3037L188.756 89.2913L189.177 89.2022L189.427 89.316L189.066 89.7248L189.119 90.3831L188.843 90.5916L188.577 90.9263L188.734 91.1472L188.873 91.2404L188.859 91.5079L188.617 91.6602L188.169 92.058L187.91 92.0511L187.788 91.9743L187.701 91.8316L187.636 91.6026L187.48 91.4517L187.045 91.3941L186.594 91.4489L185.578 92.0387L184.586 92.5079L183.548 92.8796L183.2 93.1141L182.952 93.1786L182.522 93.0016L182.261 93.0126L182.206 93.1347L182.538 93.4612L182.625 93.7163L182.59 93.9124L182.402 93.9989L182.128 93.8562L181.878 94.0606L181.765 94.4049L181.759 95.2237L181.594 95.4062L181.136 95.5063L180.649 95.767L180.476 95.6462L180.407 95.4995L180.458 95.1236L180.397 94.9398L180.175 94.9494L179.839 95.0619L179.583 95.3088L179.495 95.4583L179.832 95.9398L180.153 95.9891L180.231 96.0975L179.976 96.3321L179.342 96.6805L179.236 96.9726L179.048 97.2524L178.789 97.4747L178.613 97.7092L178.399 97.8313L178.048 97.9685L177.617 98.5281L177.302 99.0507L176.928 99.3196L176.632 100.2L176.103 100.677L175.907 101.44L176.045 101.908L176.627 101.904L176.917 102.068L177.52 102.683L178.24 103.083L178.989 103.308L179.906 103.875L180.159 104.115L180.375 104.602L180.773 106.001L181.059 106.692L181.078 107.053L181.508 107.732L181.966 108.898L182.494 109.905L182.594 110.696L182.424 111.057L182.425 111.525L182.952 111.954L184.124 112.452L184.311 112.599L184.541 112.84L184.552 113.59L184.734 113.829L184.886 113.974L185.596 114.291L185.893 114.555L186.208 114.974L186.299 115.35L186.338 115.859L185.941 115.877L185.622 115.819L184.353 115.158L184.022 115.14L183.556 115.232L182.892 115.11L182.19 114.376L181.684 114.154L181.14 114.042L179.844 114.673L179.514 114.627L179.419 114.699L179.273 114.807L179.875 114.943L180.477 114.736L181.055 114.43L181.898 114.593L182.04 114.869L182.179 115.334L182.757 115.648L183.211 115.786L183.788 116.198L184.353 116.84L185.548 117.583L186.032 118.286L186.219 118.738L186.387 119.384L185.969 119.593L185.604 119.622L185.034 119.723L184.614 119.952L184.193 120.353L182.987 120.982L182.758 121.376L182.601 121.719L182.307 121.888L181.568 121.727L180.872 121.741L180.084 122.203L179.887 122.391L180.018 122.354L180.142 122.295L180.496 122.365L181.045 122.118L181.582 122.871L182.629 122.749L183.612 122.123L183.994 122.113L184.311 122.209L184.668 122.455L185.614 123.551L186.134 123.671L186.643 123.927L186.925 123.956L187.18 124.033L186.495 124.433L185.61 125.298L185.216 125.503L184.952 125.734L185.665 125.619L186.171 125.206L186.427 125.104L186.632 125.2L186.737 125.709L186.541 127.27L186.292 127.297L186.05 126.874L185.767 126.739L185.529 126.827L185.057 126.824L184.877 127.016L184.725 127.288L185.007 127.344L185.563 127.817L185.62 128.068L185.471 128.232L185.082 128.162L185.555 128.514L185.43 128.879L185.277 129.023L185.002 129.115L184.833 129.43L185.076 129.956L185.322 130.628L185.353 130.952L184.967 130.812L184.366 131.222L184.05 131.256L183.835 130.716L183.562 130.801L183.379 130.957L183.135 131.536L182.838 132.058L182.582 132.201L182.275 132.16L182.022 132.175L182.084 132.316L182.351 132.488V132.688L181.781 133.323L181.689 133.569L181.703 133.777L181.404 134.031L181.565 134.458L181.481 134.758L181.22 135.164L180.945 135.431L180.622 135.865L180.212 136.116L179.671 137.023L179.512 137.475L179.472 137.943L179.302 138.105L179.012 138.308L178.682 138.205L178.671 137.894L178.528 137.866L178.447 137.662L178.422 137.402L178.456 137.193L178.319 137.257L178.233 137.5L178.016 137.697L177.789 137.618L177.544 137.456L177.551 137.689L177.682 137.924L177.738 138.158L178.077 138.209L178.304 138.478L178.482 138.891L178.518 139.046L178.657 139.23L178.676 139.387L178.353 139.533L177.949 139.804L177.463 140.269L177.063 140.579L176.701 140.582L176.482 140.546L176.17 140.368L175.811 140.294L176.292 140.921L176.555 141.032L176.885 141.009L177.206 140.775L177.661 140.8L177.775 141.161L177.654 141.568L177.405 142.096L177.354 142.553L177.663 143.206L177.676 143.402L177.561 143.5L177.199 143.328L176.9 143.111L176.599 143.169L176.287 143.077L175.966 143.154L175.836 143.305L175.924 143.553L176.211 143.759L176.372 144.076L176.18 144.187L175.364 144.113L175.182 144.173L174.939 144.521L175.097 145.037L174.917 145.357L174.581 145.432L174.139 145.69L173.867 145.75L173.881 145.863L174.08 145.975L174.186 146.128L173.945 146.653L173.573 146.826L173 146.739L172.551 146.857L172.161 146.634L171.746 146.63L171.464 146.912L171.433 147.24L171.16 147.273L171.012 147.248L170.805 147.272L170.827 147.447L170.945 147.601L171.506 147.669L171.607 147.89L171.629 148.23L171.041 148.816L170.791 149.211L170.414 149.2L170.129 149.517L169.977 149.946L169.788 149.861L169.352 149.93L169.224 150.134L169.326 150.219L169.335 150.366L169.161 150.848L168.971 150.983L168.888 150.786L168.826 150.48L168.674 150.457L168.419 150.738L168.122 150.939L167.868 151.023L167.675 150.837L167.203 150.739L167.011 151.547L166.62 151.841L166.437 151.933L166.118 151.96L166.321 152.071L166.385 152.278L166.27 152.484L165.951 152.525L165.766 152.686L165.694 153.406L165.504 153.658L165.02 153.679L164.658 153.511L164.543 153.643L164.482 153.772L164.292 153.902L163.926 153.937L163.113 154.259L162.74 154.166L162.296 154.044L161.989 154.163L161.887 154.41L161.746 154.602H161.3L160.942 154.364L160.578 154.193L160.175 154.341L159.868 154.643L159.491 154.744L159.421 154.932L159.257 155.026L158.858 154.986L158.707 154.519L158.477 154.451L158.25 154.687L158.169 154.871L158.063 155.011L158.1 155.39L157.876 155.399L157.583 155.166L157.275 155.124L156.987 155.341L156.841 155.288L156.687 155.242H156.436L156.339 155.3L156.155 155.334L156.031 155.452L156.02 155.462L155.696 155.382L155.298 155.067L155.013 154.543L154.651 154.26L154.492 154.012L154.43 153.566L154.364 153.354L154.386 153.118L154.496 152.908L154.107 153.013L153.819 153.21L153.878 153.456L153.807 153.685L153.377 153.805L153.404 153.901L153.432 154.002L153.768 154.315L153.837 154.577L153.973 154.717L154.236 155.124L154.229 155.912L154.373 156.134L154.325 156.355L154.221 156.652L154.211 156.657L154.134 156.566L154.008 156.584L153.957 156.684L153.948 156.774L153.926 156.779L153.704 156.844L153.516 156.901L153.365 156.98L153.127 157.215L152.674 157.272L152.442 156.724L152.13 157.09L152.036 157.838L151.921 157.965L151.727 158.072L151.359 157.811L151.039 157.986L150.788 158.163L150.685 158.326L150.501 158.503L150.147 158.331L149.863 158.075L149.934 157.881L149.894 157.755L149.766 157.659L149.625 157.673L149.695 157.924L149.741 158.404L149.612 158.543L149.413 158.65L148.982 158.562L148.689 158.383L148.333 158.233L148.019 158.205L147.95 158.508L147.747 158.752L147.558 158.783L147.37 158.744L147.122 159.008L147.005 159.2L146.7 159.403L145.888 159.501L145.605 159.702L145.225 159.67L144.931 159.718L144.761 159.707L144.61 159.599L144.44 159.596L144.361 159.931L143.902 160.072L143.489 160.11L143.029 160.552L142.702 160.82L142.459 160.847L142.28 160.752L142.19 160.357L142.1 160.311L142.047 160.682L141.961 160.991L141.793 161.16L141.262 161.544L141.109 161.925L141.211 162.278L141.925 162.364L142.013 162.557L141.944 162.715L141.773 162.847L141.723 163.044L142.489 163.673L142.512 163.91L142.394 164.046L142.251 164.338L141.846 164.585L140.991 164.711L140.277 164.583L140.061 164.302L140.074 164.102L140.252 164.16L140.453 164.142L140.392 163.958L140.307 163.851L139.978 163.688L139.711 163.247L139.762 162.881L139.618 162.597L139.458 162.36L139.299 162.217L139.212 162.04L139.374 161.483L139.285 161.16L139.59 160.762L139.666 160.313L140.211 160.153L140.248 159.725L139.857 159.713L139.586 159.398L139.524 159.532L139.307 159.545L138.949 158.939L138.842 158.862L138.669 158.851L138.755 159.49L138.336 159.73L137.992 159.836L137.505 159.88L137.227 159.954L136.968 159.894L137.031 159.7L137.169 159.47L137.047 159.276L136.771 159.128L136.35 159.136L136.06 159.095L135.771 159.112L135.665 159.025L135.397 158.722L135.17 158.534L135.068 158.346L135.17 158.128L135.085 157.995L134.646 157.98L134.649 158.293L134.694 158.662L134.822 158.942L134.731 159.098L134.508 159.205L134.27 158.909L134.162 158.836L134.048 158.85L133.961 159.145L133.745 159.407L133.357 159.378L133.054 159.54L132.688 159.614L132.439 159.397L132.028 159.049L131.864 159.009L131.408 159.179L130.751 159.242L130.606 159.061L130.289 159.198L129.984 158.78L129.622 158.752L129.171 158.436L129.008 158.267L128.957 158.025L128.82 157.899L128.644 157.916L128.447 157.787L128.136 157.659L127.886 157.584L127.762 157.641L127.631 157.672L127.608 157.51L127.618 157.021L127.594 156.588L127.525 156.392L127.358 156.244L127.206 156.172L127.139 155.949L127.194 155.51L127.318 155.212L127.513 155.159L127.777 154.945L127.912 154.64L128.081 154.358L127.479 153.961L127.162 153.819L126.811 153.879L126.375 154.005L126.148 154.03L126.034 153.98L125.78 153.624L125.642 153.562L125.334 153.539L125.074 153.541L124.925 153.696L124.694 153.749L124.463 153.757L124.229 153.563L123.877 153.311L123.325 153.133L123.258 152.928L123.118 152.683L122.909 152.455L122.562 152.153L122.272 151.997L122.13 152.093L121.937 152.264L121.192 152.625L120.862 152.766L120.685 152.867L120.538 153.017L120.493 153.389L120.42 153.803L120.205 154.013L120.002 154.172L119.789 154.189L119.579 154.182L119.383 154.248L118.783 154.664L118.501 154.631L118.268 154.396L118.169 154.226L117.901 154.264L117.557 154.463L117.398 154.82L117.314 155.153L117.238 155.301L117.122 155.344L117.021 155.351L115.949 154.389L115.883 154.34L115.69 154.537L115.516 155.048L115.39 155.145L115.305 155.105L114.862 154.452L114.748 154.391L114.648 154.412L114.514 154.624L114.233 154.935L114.019 155.124L114.013 155.334L113.78 155.519L113.508 155.705L113.418 155.724L113.237 155.65L113.002 155.404L112.832 155.148L112.409 154.893L111.936 154.677L111.622 154.508L111.444 154.467L111.277 154.543L111.193 154.646L111.075 154.901L110.792 155.318L110.538 155.65L110.303 155.862L110.116 156.009L109.976 155.872L109.717 155.759H109.413L109.013 155.971L108.698 155.548L108.615 155.528L108.494 155.563L108.354 155.663L108.257 155.899L108.156 156.222L107.955 156.433L107.788 156.526L107.837 156.707L107.931 156.903L107.925 157.075L107.985 157.345L108.09 157.615L108.462 158.058L108.605 158.289L108.634 158.489L108.648 159.2L108.633 159.496L108.559 160.066L108.553 160.396L108.709 160.544L108.859 160.721L108.852 160.817L108.786 160.851L108.572 161.047L108.483 161.073L108.343 160.992L108.161 160.932L108.017 160.854L107.856 160.728L107.475 160.741L106.849 160.933L106.719 160.879L106.63 160.77L106.58 160.545L106.611 160.282L106.556 160.113L106.439 160.013L106.523 159.543L106.3 159.356L106.332 159.298L106.257 158.789L106.267 158.663L106.228 158.621L106.071 158.581L105.838 158.661L105.126 158.995L104.516 159.614L104.236 159.751L103.954 159.807L103.623 159.7L103.255 159.63L102.731 159.787L102.473 159.714L102.353 159.588L102.247 159.396L102.312 159.152L102.272 158.972L102.063 158.881L101.819 158.803L101.675 158.569L101.617 158.312L101.673 157.979L101.702 157.621L101.585 157.456L101.229 157.367L100.331 157.204L99.5438 157.115L99.2137 157.157L98.944 157.117L98.7885 157.052L98.7129 156.939L98.7088 156.777L98.8367 156.406L98.9812 156.042L99.3471 155.513L99.3691 155.145L99.3498 154.721L99.5315 154.155L99.8464 153.731L100.002 153.598L99.9648 153.408L99.8382 153.236L99.658 153.14L99.3595 153.028L98.8945 152.998L98.2562 152.884L97.5174 152.632L97.6027 152.148L97.5903 151.845L97.4995 151.595L97.3496 151.418L97.2643 151.26L97.3977 150.827L97.2258 150.352L97.0236 150.163L96.8144 149.918L96.798 149.653L96.8928 149.406L97.4046 148.875L97.4087 148.746L97.2822 148.757L97.1363 148.768L96.4375 148.961L96.3618 148.839L96.1115 148.769L95.601 148.756L95.004 148.791L94.2488 148.981L93.5554 149.313L93.2404 149.54L92.9721 149.682L92.7548 149.728L92.503 149.628L92.5168 149.303L92.99 148.706L93.0574 148.296L92.9144 147.944L92.8978 147.661L92.7313 147.481L92.4989 147.394L92.3751 147.193L92.3668 146.606L92.5746 146.001L92.9116 145.811L93.1166 145.719L93.1716 145.601L93.067 145.176L93.0836 144.905L93.2844 144.383L93.4853 143.986L93.865 144.052L94.0355 143.954L94.224 143.812L94.429 143.574L94.5666 143.29L94.7344 142.631L94.8485 142.533L95.3273 142.642L95.4704 142.565L95.7318 142.179L95.9794 141.707L96.3384 141.561L96.597 141.546L96.7168 141.39L96.7099 141.159L96.4636 140.793L96.3604 140.501L96.3907 140.323L96.7429 140.214L96.8295 140.002L96.7773 139.535L96.9217 138.974L97.0084 138.317L97.0373 137.826L97.0331 137.452L96.9988 137.058L96.9493 136.339L96.7883 135.713L96.8172 135.477L96.7952 134.715L96.6961 134.065L96.498 133.951L96.1293 133.74L95.9285 133.699L95.7606 133.776L95.6973 134.002L95.535 134.213L95.3355 134.161L95.2406 133.95L95.1127 133.673L94.6849 132.355L94.6381 131.975L94.5625 131.596L94.4194 131.407L94.268 131.294L93.9268 130.85L93.748 130.665L93.6613 130.635L93.4743 130.666H93.2899L93.1399 130.444L93.0024 130.172L92.8648 130.039L92.6337 129.965L92.3971 129.994L92.2581 130.229L92.1646 130.362L91.9857 130.674L91.6969 131.107L91.5648 131.266L91.4368 131.183L90.8797 130.733L90.6115 130.609L90.2455 130.744L89.6746 130.637L89.4545 130.617L88.9785 130.257L88.7845 130.214L88.109 130.448L87.9605 130.614L87.8738 130.617L87.6936 130.533L87.5464 130.422L87.5367 130.352L87.7198 130.177L87.7334 130.053L87.7239 129.928L87.9866 129.574L88.7033 128.889L88.5837 128.6L88.3016 128.033L88.2645 127.757L88.142 127.632L87.7995 127.734L87.0869 128.249L86.9893 128.193L87.0071 128.015L86.9328 127.495L87.1585 127.339L87.5051 127.148L87.772 126.935L87.8339 126.764L87.761 126.71L87.3675 126.778L87.2121 126.661L86.9548 126.182L86.7663 125.994L86.5958 125.893L86.0153 126.14L85.3412 126.479L84.59 126.95L84.5941 127.192L84.5047 127.254L84.3616 127.406L84.2213 127.616L84.1017 127.69L83.9613 127.697L83.6752 127.638L83.1566 127.399L82.5939 127.201L82.4728 127.223L81.7079 127.083L81.6832 126.971L81.5676 126.75L81.3503 126.55L81.1426 126.483L80.5441 126.905L79.8686 127.219L79.4848 127.591L79.1684 127.96L78.8052 128.031L78.7888 128.259L78.636 128.463L78.3609 128.716L77.8148 129.037L77.4446 129.21L76.2698 129.367L75.8502 129.474L75.6741 129.643L75.4857 130.071L75.3371 130.465L75.0125 130.79L74.4209 131.223L73.7261 131.574L73.5349 131.807L73.5006 131.946L73.5872 131.997L73.6726 132.102V132.261L73.5831 132.434L73.1291 132.736L72.8732 132.88L72.6187 132.972L72.334 132.988L72.0602 132.947L71.9845 132.898L71.8759 132.961L71.6255 133.024L71.4081 133.045L70.9307 133.379L70.668 133.382L70.3405 133.309L69.9086 133.252H69.5964L69.5867 133.075L69.6348 132.544L69.4932 132.421L69.0612 132.29L68.5742 132.117L68.3403 131.934L68.2097 131.872L68.0267 131.902L67.7337 132.095L67.4557 132.323L67.2357 132.342L67.0101 132.237L66.7954 132.097L66.058 131.901L65.7279 131.872L65.1377 131.905L64.6562 131.864L64.5806 131.803L64.5819 131.694L64.6535 131.481L64.6948 131.271L64.6384 131.152L64.1472 131.005L63.6988 130.899L63.2214 130.86L62.9009 130.934L62.5872 131.098L62.3285 131.395L61.9544 131.524L61.5073 131.744L61.2913 131.95L60.9639 132.392L60.4879 132.934L60.0559 133.462L59.8317 133.975L59.5345 134.297L59.2332 134.529L59.0158 135.167L58.7889 134.965L58.5288 134.676L58.467 134.279L58.7751 133.226L58.8481 132.787L58.7697 132.619L58.6734 132.187L58.4904 132.045L57.9676 131.818L57.8011 131.812L57.6223 131.968L57.4476 132.067L57.2151 132.165L56.6318 132.351L56.1146 132.437L55.9907 132.506L55.9522 132.629L55.9935 132.776L55.6606 132.72L55.3125 132.688L55.0318 132.709L54.3454 132.988L54.1129 133.016L53.8543 132.987L53.5021 132.979L52.8321 132.987L52.2557 132.916L51.7866 132.525L51.4551 132.352L51.1015 132.219L50.7452 132.119L50.6269 131.909L50.5141 131.803L50.221 131.769L49.9886 131.846L49.8441 132.374L49.7203 132.478L49.426 132.525L49.1164 132.39L48.6886 132.119L48.5207 131.817L48.3777 131.72L48.152 131.853L48.1396 132.24L48.0956 132.499L47.8273 132.604L47.6719 132.528L47.5467 132.261L47.2317 131.629L46.9194 131.259L46.6044 131.012L45.5713 131.019L44.805 130.946L44.4583 130.845L44.3276 130.6L44.4542 130.112L44.6027 129.731L44.5986 129.642L44.4721 129.596L44.2519 129.566L43.4251 129.81L43.1996 129.781L43.0565 129.698L42.8818 129.627L42.7373 129.513L42.6368 129.347L41.9215 128.939L41.711 128.716L41.33 128.436L41.0081 128.245L40.8045 127.699L40.6187 127.174L40.517 126.894L40.2101 126.746L39.8786 126.634L39.3173 126.863L38.8565 127.037L38.5181 127.055L38.0296 126.516L37.6376 125.933L37.174 125.424L36.8659 125.167L36.3197 125.143L35.7047 124.856L34.8793 124.203L34.2837 123.716L33.2574 123.174L33.0181 122.946L32.9272 122.753L32.7869 122.372L32.5723 122.01L31.8446 121.852L31.0219 121.739L30.1538 121.962L29.5293 123.045L29.228 123.281L28.9693 123.295L28.7575 123.019L28.5828 122.73L28.4879 122.409L28.0559 122.172L27.5675 121.861L27.3171 121.62L27.0352 121.469L26.7724 121.405L26.2661 121.2L25.6925 120.97L25.4228 120.938L25.4036 120.774L25.4848 120.424L25.4352 120.088L25.2619 119.951L25.0005 119.986L24.3952 119.509L24.3649 119.484L24.1929 119.349L23.8944 119.154L23.3909 119.168L23.0099 119.239L22.7306 119.04L22.3261 118.725L22.2533 118.655L22.1335 118.539L21.7236 117.93L21.2394 117.209L20.9944 117.103L20.8679 117.158L20.7248 117.541L20.6175 117.502L20.4373 117.528L20.2255 117.663L20.0219 117.697L19.8911 117.657L19.8361 117.563L19.8939 117.057L19.7701 116.899L19.8801 116.546L20.0659 116.242L19.876 116.015L19.6422 115.692L19.6161 115.398L19.7426 115.028L19.8045 114.711L19.7659 114.594L19.5816 114.417L18.8787 113.545L18.8415 113.453L18.7232 113.162L18.6682 112.723L18.5774 112.409L18.4701 112.168L18.4783 112.054L18.5595 111.995L18.9983 111.936L19.4041 111.899L19.6711 111.817L19.81 111.992L19.8747 112.261L19.9448 112.402L20.2021 112.658L20.5157 112.902L20.8198 112.87L21.088 112.766L21.3205 112.368L21.4842 112.271L21.6754 112.253V112.224L21.6644 111.968L21.7318 111.335L21.7085 111.082L21.6217 110.853L21.6369 110.597L21.6081 110.227L21.3893 109.973L21.2462 109.876L21.2228 109.739L21.2971 109.485L21.348 109.193L21.2724 108.977L21.2599 108.945L21.0825 108.833L20.8748 108.645L20.6272 108.392L20.5047 108.208L20.3039 108.005L20.059 107.689L20.0136 106.997L19.9889 106.267L19.9036 105.904L19.7674 105.323L19.788 105.129L19.8706 104.98L20.5611 104.511L20.7111 104.329L20.7358 104.19L20.7084 103.985L20.5776 103.755L20.3025 103.577L19.909 103.286L19.5527 102.983L18.953 102.798L18.2252 102.572L18.0505 102.351L17.8744 101.81L17.5745 100.985L17.2554 100.103L17.0091 99.5582L16.9967 99.2962L17.1439 98.6269L17.1261 98.4842L16.9967 98.4348L16.7505 98.5226L16.5537 98.6282L16.3859 98.5734L16.2305 98.4609L16.1988 98.4225L16.1864 98.4074L15.8948 98.4801L15.3101 98.5213L15.1079 98.5144L14.8245 98.5048L14.2385 98.3511L13.4474 98.1441L12.6316 97.856L12.1996 97.6269L12.0483 97.5473L11.6783 97.3087L11.4156 97.103L11.3688 96.5639L11.1775 96.605L10.729 96.7998L10.2118 96.9233L9.92566 96.9246L9.81004 96.8382L9.63808 96.269L9.51297 96.1085L9.28047 96.0454L9.02732 95.9452L8.89935 95.7971L8.87047 95.6092L8.98332 95.3939L9.11674 95.2279L9.14008 94.2128L9.05343 93.8521L8.98055 93.549L8.79481 93.1718L8.62151 92.9386L8.36012 92.7219L7.95423 92.4969L7.59243 92.4132L7.15497 92.5778L7.01609 92.5147L6.83304 91.8179L6.71616 91.6753L5.93889 91.3886L5.58674 91.3227L5.18085 91.4119L4.94978 91.4887L4.76404 91.3612L4.47377 91.1993L4.18896 91.0882L3.83547 91.0841L3.60708 91.1527L3.54931 91.1129L3.43923 90.9853L2.96877 90.5999L2.95223 90.5025L3.67308 90.1225L4.0982 89.9785L4.32104 89.8633L4.36781 89.888L4.47789 90.0635L4.7585 90.1788L4.95666 90.1472L5.05985 90.0594L5.40924 89.8496L5.68162 89.6054L5.83435 89.4052L5.75182 89.0897L5.32258 88.707L5.0502 88.5026L4.96623 88.3641L5.03643 87.9484L5.13551 87.5356L5.06943 87.3778L4.98832 87.2434L4.95255 86.7922L4.76539 86.2462L4.56177 85.928L4.50543 85.4973L4.49443 85.094L4.74062 84.4603L4.64985 84.186L4.39124 83.9418L3.49977 83.5001L2.58631 83.208L2.23827 83.2189L2.02231 83.2011L1.76639 83.459L1.61374 83.7964L1.40046 83.8266L1.01111 83.6839L0.751157 83.4672L0.566768 83.0159L0.423691 82.4344L0.34258 82.2519L0.383807 82.0942L0.47323 81.9543L0.722273 81.8226L0.7635 81.6882L0.726387 81.5222L0.525541 81.3123L0.320581 81.016L0 80.4002L0.0618827 80.06L0.11285 79.5703L0.0935377 79.3125L0.418233 79.2452L0.832268 79.1122L1.02488 78.8913L1.15831 78.6664L1.18727 78.5265L1.06208 77.9874L0.897005 77.7474L0.880464 77.5608L0.961659 77.4182L1.07031 77.1727L1.27938 76.6679L1.483 76.3455L1.59442 76.2646L1.84347 76.1892L2.45146 76.1L3.10497 75.8737L3.88081 75.1961L4.13951 75.0027L4.47789 74.9053L4.72005 74.9121L4.76404 74.8298L4.6072 74.4087L4.64574 74.2565L4.73793 74.1371L4.85481 74.0823L5.39269 74.3045L5.80404 74.2812L6.30481 74.1495L7.3847 73.4061L7.51954 73.417L7.6282 73.5172L7.75893 73.9657L7.90747 74.9094L7.99 75.0273L8.74116 75.0397L9.25293 74.6968L9.4772 74.6159L9.84036 74.6721L10.033 74.5116L10.2338 74.3992L10.4663 74.7942L10.7662 74.6049L11.0895 74.3045L11.2477 73.9931L11.4664 73.6571L11.637 73.2305L11.7058 72.8272L11.7897 72.6379L11.9713 72.4431L12.4184 71.6105L12.7403 71.3979L13.0457 71.3225L13.8009 71.4665L14.1931 71.4487L15.3431 71.5584L15.8741 71.3979L16.2456 71.2388L16.7904 71.2635L17.4356 71.1373L18.2954 70.088L18.3064 69.8644L18.3587 69.6271L18.6695 69.3925L19.0561 69.1772L19.8265 68.6628L21.3934 67.8467L21.9547 67.5188L22.1886 67.5271L22.7664 67.3214L23.7789 66.9208L24.065 66.4215L24.3319 66.3214L25.515 66.2322L25.5893 66.1746L25.6305 66.0896L25.5645 65.7275L25.4875 65.4161L25.5796 65.3242L25.6787 65.1816L25.6636 64.9813L25.4723 64.3311L25.3706 63.7139L25.3031 63.1556L25.3156 62.9471L25.4586 62.5864L25.6443 62.2585L26.3142 61.9527L26.7586 61.8607L26.7765 61.6605L26.4174 61.5356L26.1575 61.3354L26.1121 61.2215L26.1244 61.0913L26.1849 60.9719L26.6362 60.747L27.0613 60.5234L27.5799 60.6592L27.6817 60.5727L27.7119 60.3492L27.6005 60.1242L27.496 59.7552L27.2566 59.566L27.247 59.3396L27.3942 58.9487L27.1906 58.2244L26.9691 57.5839L26.5935 56.4838L26.3446 56.1656L26.2056 55.6567L26.0502 55.3892L26.0639 54.9928L26.0901 54.7144L26.0502 54.1616L25.9772 53.5608L26.0502 52.9504L26.1905 52.5472L26.1533 52.3921L26.2276 52.2769L26.4394 52.2385L26.5399 52.0725L26.4394 51.9025L26.0735 51.7708L25.6649 51.5664L25.1738 51.5897L24.6703 51.6254L24.4186 51.4745L24.1985 51.2811L24.1861 51.1577L24.4888 50.8312L24.9097 50.4924L25.5632 50.3429L26.2826 50.1193L26.6472 49.9574L27.1328 49.8408L27.6941 49.7915L27.9761 49.8244L28.6984 49.6077L29.8347 49.1879L30.8664 48.8354L31.2131 48.6255L31.4718 48.8354L31.5914 49.2977L31.8927 49.5363L32.1913 49.6515L32.3632 49.6461L32.8777 49.4664L33.4335 49.3347L33.6523 49.406L33.9342 49.6419L34.2507 49.8532L34.4158 49.8436L34.5602 49.6804L34.706 49.3511L34.7981 48.9314L34.8175 48.487L34.7624 48.2154L34.6509 48.1153L34.1447 47.9548L33.6618 47.6928L33.6068 47.4528L33.6178 47.2813L33.7458 46.8616L34.0608 46.0893L34.3772 45.0208L34.5451 44.1745L35.0747 42.9084L35.4915 41.5834L36.1656 39.6686L36.2785 39.2886L36.3403 38.681L36.3761 38.4299L36.6114 38.2983L37.0075 38.4272L37.9746 38.8662L38.7107 39.2351L39.0188 39.3599L39.4769 39.4903L40.1854 39.6439L40.5954 39.5986L40.9544 39.5081L41.4331 39.4998L42.1801 39.6137L42.4112 39.6178L42.6988 39.6329L42.9024 39.8194L43.0042 40.2406L43.1583 40.4298L43.4375 40.3599L44.0318 39.9882L44.4115 39.696L44.8861 39.2722L45.3567 39.2146L45.856 39.1199L46.0293 38.91L46.2137 38.4163L46.5204 38.0432L46.5714 37.5685L46.4641 37.2339L46.2508 36.6879L46.2577 36.3189L46.1545 35.2477L46.017 34.2807L46.1573 33.5002L46.4049 32.6251L46.5012 32.3562L46.658 32.0037L46.8795 31.5799L47.1905 31.4468L48.064 31.3563L48.8729 31.178L49.2856 30.9942L49.7148 30.8831L49.9707 30.7487L50.4109 30.1273L50.62 29.7693L50.7741 28.8173L50.6613 28.3592L50.7548 27.9532L50.9681 27.7145L51.268 27.4745L51.4688 27.4333L51.8967 27.3606L52.5983 27.3853L52.956 27.5019L53.3191 27.5567L53.5488 27.4704L53.7016 27.2879L53.9369 27.2303L54.2903 27.1425L54.6549 27.0328L54.8558 27.0534L54.8971 27.3236L54.864 27.5348L54.9342 27.8174L55.0786 28.0039L55.0318 28.2056L54.8282 28.3222L54.6274 28.4799L54.5834 28.6953L54.8379 28.9627L54.9245 29.2192L55.351 29.3728L55.6826 29.5457L55.8063 29.7117L55.7692 29.8982L55.6166 30.0985L55.4693 30.3138L55.4501 30.4427L55.4968 30.5936L55.816 30.6938L56.186 30.8597L56.7721 31.0737L57.1738 31.4715L57.5728 31.5812L57.7653 31.968L57.7998 32.529L58.2084 32.8144L58.8123 33.2108L59.119 33.2835L59.324 33.5084L59.6198 33.78L59.8825 33.865L60.1948 33.9048L60.7094 33.6524L61.2871 33.6278L61.6022 33.7718L61.9021 34.3149L62.1139 34.4864L62.2391 34.6387L62.4414 34.7841L62.6464 34.806L62.9517 34.6853L63.1375 34.4453L63.4043 34.4947L63.5047 34.651L63.5543 34.9185L63.696 35.2504L64.0344 35.4973L64.5076 35.6441L64.5737 35.7648L64.6397 36.0954L64.7677 36.3245L64.9396 36.6235L65.1034 37.168L65.1377 37.6179L65.2134 37.8648L65.4321 38.2667L65.7816 38.9087L66.0594 39.4519L66.3813 39.5575L66.6551 39.7289L66.8119 40.1295L67.1022 40.8825L67.149 41.3736L67.1737 41.7398L67.2687 41.9058L67.2893 42.1129L67.0472 42.8989L66.8422 43.2527L66.8161 43.5504L66.955 44.0675L67.1462 44.468L67.1655 44.8507L67.0032 45.1305L66.7239 45.4803L66.589 45.6806L66.3717 45.8561L66.0388 46.531L65.8889 47.2758L65.8544 47.6585L65.9811 47.9356L66.1929 48.2401L66.2451 48.5035L66.5932 49.0919L66.6854 49.4554L66.8284 49.4677L66.9812 49.3484L67.354 49.3402L67.6924 49.4691L68.0171 49.738L68.3651 49.8806L68.8631 49.845L69.1286 49.989L69.4147 50.1069L70.0077 50.1481L70.4521 50.1467L71.1344 50.1508L71.686 50.3319L72.6559 50.4745L73.2557 50.4636L74.0618 50.3292L74.5557 50.4142L76.0181 50.6145L76.8737 50.8243L77.4157 51.0602L77.7969 51.4333L78.2329 52.0149L78.5796 52.281L79.5109 52.4415L80.1507 53.1191L80.65 53.3715L81.4906 54.0258L82.0849 54.2809L82.7961 54.5155L83.9558 54.4154L84.0205 54.5031L83.9311 54.857L83.8609 55.3412V55.691L83.9806 55.8693L84.4235 55.9749L84.6327 56.1464L84.7922 56.4756L84.8844 56.68L85.2572 57.6868L85.8543 59.1696L85.9231 59.7388L86.1267 60.105L86.7746 60.6852L87.1145 61.1146L87.6207 61.5644L87.7871 61.9801L87.8243 62.5164L87.9522 62.6549L88.8781 62.5315L89.6801 62.4451L91.119 62.2915L93.1 62.5713L95.143 62.8415L96.9493 63.0802L97.8393 63.1967L99.8506 63.4478L100.969 63.1282L101.843 62.8785L102.239 62.9128L103.909 63.194L104.888 63.3449L106.121 63.5342L106.977 63.6041L107.678 63.6L108.002 63.6796L108.314 63.8016L108.522 63.98L109.163 64.8798L109.522 65.2762L110.233 65.5752L111.848 65.9167L112.742 66.1239L113.769 66.3612L114.445 66.7192L115.224 67.1348L116.232 67.6725L117.337 67.4379L118.526 67.1842L119.271 67.0251V68.1471L120.335 68.2362L120.668 68.2239L121.138 68.4708L121.402 68.3666L121.654 68.1238L121.969 67.7397L122.422 67.571L123.204 67.1403L123.396 67.036L124.558 66.4229L126.294 65.6658L127.073 65.2981L127.305 65.2158L127.746 65.0279L128.043 64.8976L128.568 64.7934L129.281 64.7275L130.059 64.5849L131.82 64.316L132.042 64.2913L133.031 64.1802L133.452 64.076L134.081 64.1308L134.902 64.1693L135.447 64.2378L136.169 64.1843L137.162 64.1117L137.966 64.1226L138.364 64.0321L138.953 63.7482L139.348 63.5232L139.969 63.2502L140.739 62.9663L141.275 62.7084L141.63 62.537L142.061 62.3751L142.174 62.1666L142.298 62.0062L142.526 61.7387L142.937 61.2394L143.251 60.8018L143.405 60.607L143.757 60.1695L144.042 59.8389L144.405 59.3931L144.711 59.2491L145.099 59.127L146.118 58.6895L146.32 58.5948L146.489 58.5756L146.85 58.2217L147.155 57.9145L147.355 57.6854L147.769 57.6017L147.981 57.4358L148.018 57.219L147.975 56.8871L147.776 56.5469L147.608 56.2492L147.016 55.6814L146.703 55.3289L146.383 54.8749L146.253 54.4483L146.034 54.1767L145.929 53.9353L145.962 53.6568L146.266 53.1603L146.363 52.8462L146.489 52.2906L146.774 51.458L147.007 51.0671L147.275 50.6858L147.843 50.1728L148.363 50.0781L148.673 50.1796H149.365L149.825 50.2071L150.165 50.4636L150.541 50.9697L150.966 51.1549L152.289 51.5513L152.855 51.635L153.259 51.6528L153.858 51.7831L154.058 51.8119L154.365 51.9011L154.618 51.8051L155.002 51.4662L155.485 51.0863L155.693 50.9985L156.077 50.8339L156.269 50.6789L156.606 50.251L157.044 49.919L157.577 49.4198L157.84 49.0439L157.898 48.8011L157.956 48.5378L158.121 48.3992L158.445 48.2717L158.811 48.2374L159.508 48.4637L160.448 48.3992L160.659 48.3663L161.516 48.236L161.903 48.129L162.447 48.0261L162.866 47.6064L163.425 47.1057L163.833 46.8273L164.104 46.7738L164.442 46.4844L164.609 46.173L164.565 45.8987L164.501 45.6723L164.701 45.2513L165.061 44.5133L165.397 44.169L165.675 43.8906L165.852 43.442L166.071 43.3131L166.339 43.2637L166.718 42.9592L166.995 42.8975L167.458 43.0429L168.141 43.0799L168.578 43.095L168.826 43.0401L168.917 42.8769L168.915 42.6245L169.053 42.0621L169.106 41.8769L169.231 41.7905L169.652 41.7796L169.935 41.9812L170.131 42.1485L170.402 42.1705L170.681 42.0607L171.054 41.6054L171.676 41.3406L172.006 41.2734L172.592 41.0581L172.962 41.1363L173.641 41.1994L173.904 41.1445L174.19 41.1994L174.45 40.8907L174.657 40.8167L175.094 40.9593L175.369 41.198L175.884 41.497L176.54 41.6369L177.089 41.5656L177.653 41.6918L177.986 41.6808L178.144 41.5629L178.606 41.3118L178.716 40.9716L178.671 40.6438L178.725 40.2721L178.588 39.9978L178.302 39.5918L178.191 39.3202L178.181 38.9649L178.002 38.6261L177.573 38.2173L177.291 38.028L176.711 37.3203L176.514 37.1543L176.446 37.0377L176.379 36.8004L176.164 36.6866L175.882 36.5014L175.731 36.3121L175.632 35.9829L175.573 35.7676L175.324 35.5892L175.075 35.4891L174.794 35.3629L174.329 35.1777L174.061 34.8088L173.588 34.1161L173.319 33.8829L172.321 33.7937L171.962 33.625L171.556 33.6826L171.314 33.7937L170.777 33.7924L170.499 33.8609L170.146 34.3177L169.677 34.9103L169.29 35.271L169.015 35.6455L168.887 35.7799L168.637 35.699L168.293 35.2779L167.802 34.9007L167.346 34.7292L167.151 34.6345L166.608 34.5386L166.188 34.5687L165.653 34.7114L165.13 34.6853L164.895 34.5948L164.562 34.6044L163.959 34.9967L163.647 35.4425L163.277 35.5824L162.943 35.2902L162.557 34.9446L162.189 34.5111L161.962 34.1092L161.835 33.0421L162.277 32.7239L162.841 32.3658L162.883 31.7993L162.863 31.167L162.974 30.462L163.489 29.8104L163.765 29.27L163.8 28.9326L164.047 28.3716L164.284 27.779L164.607 26.9999L165.219 25.6117L165.943 23.963L166.305 23.1373L167.099 23.6489L167.61 23.915L168.476 24.3183L169.368 24.4088L170.223 24.845L170.663 24.9767H170.898L172.108 23.915L173.13 23.0138L174.304 22.3088L175.168 22.2127L175.818 22.007L176.25 21.6902L176.507 21.1607L176.585 20.4173L176.412 19.966L175.988 19.8096L175.88 19.6518L176.083 19.4914L176.235 19.18L176.329 18.7164L176.574 18.2747L176.966 17.8577L177.184 17.3941L177.224 16.8839L177.46 16.3736L177.891 15.8647L178.128 15.3901L178.167 14.9512L178.386 14.4135L178.98 13.4602L179.366 12.3587L180.023 11.6016L181.08 10.8225L181.739 10.0475L182.002 9.27657L181.981 8.5935L181.675 8.00093L181.616 7.3974L181.806 6.78151L181.64 6.32064L181.118 6.01477L180.496 5.93933L179.774 6.09434L179.368 5.90091L179.279 5.3605L179.473 4.92293L179.95 4.58822L180.734 3.77208L181.827 2.46902L182.914 1.74614L184.534 1.53764L185.841 1.10832L187.173 0.672144L188.134 0.455394L188.298 0.600815L188.822 0.63648L189.707 0.562388L190.528 0.374479L191.287 0.0713293L191.889 0L192.33 0.160491L192.59 0.179705Z"/>
</mask>
<path d="M143.94 165.812L144.133 165.993L144.258 166.255L144.361 166.738L144.423 167.183L144.034 167.465L143.684 167.579L142.984 168.661L142.838 169.003L142.72 169.146L142.683 169.294L142.697 169.442L142.515 169.96L142.355 170.598L142.254 170.859L142.053 171.059L141.798 171.161L141.633 171.176L141.483 171.23L141.113 171.577L140.696 171.838L140.766 171.957L140.771 172.071L140.588 172.197L140.385 172.173L139.798 172.276L139.583 172.47L139.363 172.83L139.279 172.879L138.924 172.963L138.655 172.994L138.194 172.741L137.966 172.667L137.357 172.564L136.765 172.392L136.349 172.196L135.498 171.716L135.398 170.848L135.253 170.379L135.243 170.211L135.299 168.764L135.359 168.605L135.467 168.467L135.843 168.143L136.273 167.886L136.891 167.349L137.34 167.103L137.715 166.749L137.495 166.764L137.333 166.719L137.492 166.416L137.664 166.254L137.864 166.166L138.263 166.229L138.631 166.166L138.904 165.897L139.162 165.84L140.147 165.928L140.83 165.804L141.171 165.556L141.332 165.546L141.835 165.616L142.022 165.874L142.006 165.701L142.028 165.533L142.12 165.55L142.779 165.87L142.78 165.479L142.818 165.376L143.023 165.213L143.126 165.216L143.382 165.531L143.631 165.715L143.94 165.812ZM141.996 161.312L142.139 161.455L142.522 161.354L142.592 161.536L142.589 161.621L142.453 161.829L142.137 161.669L141.822 161.706L141.593 161.692L141.531 161.593L141.706 161.39L141.996 161.312ZM150.717 159.065L150.338 159.152L150.257 159.134L150.389 158.921L150.732 158.774L150.717 159.065ZM151.282 159.222L151.208 159.304L151.095 159.154L151.064 158.94L150.982 158.825L151.168 158.68L151.251 158.519L151.471 158.551L151.562 158.599L151.368 158.766L151.322 158.837L151.282 159.222ZM154.236 154.251L154.267 154.443L153.966 154.151L153.88 154.134L153.736 154.024L153.653 153.84L153.886 153.834L154.101 154.052L154.236 154.251ZM172.103 147.18L171.974 147.433L171.746 147.391L171.739 147.211L171.692 147.159L171.755 146.992L171.797 146.945L172.055 147.088L172.103 147.18ZM178.427 143.122L178.14 143.318L177.961 143.225L177.958 142.962L178.049 142.725L177.945 142.553L178.046 142.35L178.26 142.29L178.337 142.417L178.456 142.484L178.493 142.554L178.495 142.688L178.381 142.907L178.47 143.026L178.427 143.122ZM183.949 131.844L183.612 131.949H183.486L183.497 131.633L183.772 131.333L183.883 131.433L183.947 131.589L183.949 131.844ZM187.506 124.878L187.492 124.96L187.163 124.673L187.005 124.627L187.081 124.464L187.302 124.422L187.478 124.782L187.506 124.878ZM188.4 123.937L188.363 124.141L188.259 124.112L188.122 123.749L188.196 123.66L188.392 123.682L188.4 123.937ZM187.983 123.623L187.927 123.709L187.449 123.455L186.932 123.402L186.753 123.178L186.721 122.827L187.266 122.842L187.938 123.159L188.082 123.321L187.983 123.623ZM186.309 116.808L185.992 116.937L184.988 116.552L184.278 116.128L183.855 115.614L183.794 115.401L184.288 115.437L184.771 115.622L184.878 115.904L185.073 115.993L185.205 116.158L186.1 116.541L186.237 116.656L186.309 116.808ZM192.59 0.179705L192.765 0.198918L192.861 0.197537L193.047 0.0686084L193.56 0.297666L194.541 0.978015L195.156 1.27978L195.41 1.20569L195.685 1.39364L195.987 1.84355L196.36 2.10827L197.031 2.23034L197.697 2.7214L197.965 2.74881L198.059 2.47312L198.308 2.3154L198.709 2.27425L199.291 2.51704L200.052 3.04238L200.529 3.27282L200.723 3.20969L200.927 3.3071L201.091 3.55261L201.106 3.85576L201.049 4.01763L201.232 4.27277H201.443L201.787 4.39483L202.056 4.84474L202.298 5.05324L202.468 5.23291L202.498 5.38243L202.513 5.53329L202.464 5.64991L202.371 5.84331L202.342 6.05043L202.459 6.28363L202.887 6.45233L203.032 6.62655L203.065 6.84874L203.198 7.09425L203.49 7.37818L203.6 7.61549L203.533 7.80616L203.619 7.96527L203.762 8.0901L203.792 8.54139L203.805 8.80063L204.04 9.09143L204.088 9.68672L204.252 10.3437L204.804 11.2422L204.987 11.7278L204.94 12.3038L205.02 12.5741L205.271 12.7044L205.391 12.9471L205.377 13.3024L205.475 13.5233L205.555 13.7578L205.501 14.1227L205.581 14.4505L205.71 14.6426L205.801 14.9964L205.852 15.4381L206.222 16.1349L206.908 17.0868L207.329 17.8248L207.482 18.3488L207.483 18.7795L207.334 19.1169L207.325 19.3624L207.46 19.516L207.5 19.7232L207.446 19.9852L207.669 20.2952L208.423 20.8329L208.122 21.6559L208.042 22.2333L208.082 22.8396L208.269 23.2662L208.6 23.5131L208.807 23.771L208.888 24.0398L209.287 24.332L210.002 24.6488L210.92 24.7051L212.038 24.498L212.722 24.4637L212.974 24.6008L213.061 24.8093L212.979 25.0878L213.169 25.2702L213.629 25.358L213.944 25.5322L214.117 25.7955L214.329 25.8696L214.581 25.7558L214.826 25.7722L215.064 25.9176L215.218 25.8669L215.352 25.7078H215.568L215.79 25.7105L215.927 26.096L216.15 26.3127L216.459 26.3607L216.928 26.8284L217.871 28.1576L218.485 28.628L219.1 28.7748L219.865 28.805L220.112 29.318L219.911 29.8598L219.861 30.3111L220.034 30.4729L220.273 31.0024L220.612 31.3097L220.676 31.5524L220.833 31.824L220.767 32.3247L220.477 33.0558L220.557 33.6785L221.005 34.1929L221.264 34.688L221.331 35.1627L221.443 35.4507L221.601 35.5522L222.06 35.5165L222.824 35.3451L223.382 35.3739L223.74 35.6057L224.622 35.6139L226.029 35.4L226.918 35.3341L227.289 35.4164L227.619 35.1105L227.91 34.4151L228.181 34.0887L228.435 34.1298L228.837 33.9062L229.389 33.4165L229.867 33.1792L230.474 33.2039L231.121 33.2286L231.525 33.0229L231.905 32.5935L232.564 32.2136L233.968 31.7157L234.305 31.6375L234.466 31.6649L234.934 31.7431L235.35 31.9378L235.742 32.3288L235.802 32.5798L235.758 32.909L235.671 33.0997L235.51 33.3137L235.359 33.6607L235.457 33.9309L235.684 34.5084L235.871 34.9253L236.077 35.4164L235.985 35.592L235.86 35.9322L235.476 36.5069L235.267 36.7264L235.041 36.9403L234.652 36.9925L234.486 37.0418L234.297 37.1324L234.179 37.3354L234.044 37.478L233.821 37.7633L233.803 38.0089L233.904 38.3737L233.953 38.7468L233.701 39.0801L233.506 39.5918L233.447 39.7454L233.351 40.1322L233.322 40.2666L233.26 41.0786L233.008 41.6314L232.657 42.2734L232.736 42.6561L232.798 43.01L232.711 43.1814L232.689 43.3309L232.638 43.6711L232.528 43.8014L232.209 44.014L232.018 44.2705L232.057 44.6587L231.96 44.9947L231.814 45.291L231.661 45.4844L231.441 45.6079L231.295 45.7121L231.185 46.088L231.152 46.3788L231.049 46.6682L231.112 46.9631L231.001 47.2182L230.687 47.3965L230.51 47.5022L230.346 47.5447L230.032 47.8218L229.752 48.7696L229.689 49.3196L229.753 49.8079L229.36 50.1138L229.068 50.3566L228.885 50.2688L228.691 50.1865L228.245 50.0809L228.023 50.0096L227.574 49.8505L226.856 49.6488L226.154 49.4143L225.714 49.2908L225.367 49.192L225.105 49.0302L224.883 48.7407L224.663 48.8574L224.46 49.2003L224.12 49.4033L223.966 49.7777L223.829 50.0644L223.477 50.4471L223.32 50.6049L222.631 50.8641L222.476 50.9505L221.913 51.0054L221.722 51.1192L221.524 51.3606L221.47 51.6007L221.61 51.8531L221.829 52.3579L221.931 52.7021L222.08 53.3838L222.579 55.5141L222.418 55.8803L222.268 57.4673L222.304 57.7526L222.289 58.197L222.298 58.5221L222.402 58.603L222.536 58.7169L222.605 58.9062L222.587 59.197L222.518 59.4096L222.413 59.8307L222.272 60.4383L222.117 60.6715L222.015 60.8567L221.928 60.9843L221.917 61.4136L221.859 61.6961L221.616 61.7963L221.374 61.9609L221.086 61.9005L220.833 61.9334L220.521 62.0432L219.961 62.1707L219.636 62.3408L219.481 62.4643L219.374 62.6124L219.354 62.7551L219.429 62.8305L219.744 62.8881L219.96 63.1542L219.99 63.445L219.767 63.611L219.657 63.4286L219.471 63.371L219.126 63.1144L218.873 62.8319L218.684 62.5191L218.693 61.8511L218.661 61.751L218.317 61.6138L218.215 61.4136L218.052 61.3189L217.819 61.3793L217.644 61.3162L217.505 61.2065L217.34 61.1941L217.197 61.3669L217.12 61.7387L216.879 62.3546L216.857 62.7263L216.754 63.2557L216.651 63.9265L216.564 64.0664L216.296 64.087L216.204 64.1308L216.062 64.3586L215.893 64.3969L215.743 64.2639L215.508 64.1308L215.284 64.113L215.083 64.2461L214.846 64.5355L214.711 64.7687L214.663 64.9881L214.626 65.2584L214.387 65.5162L214.169 65.652L213.719 66.032L213.576 66.1897L213.254 66.1911L212.904 66.176L212.43 66.2789L211.66 66.331L211.199 66.2528L210.63 66.3255L210.185 66.449L210.122 66.6341L210.139 66.9085L210.227 67.0868L210.335 67.2061L210.52 67.5737L210.714 67.929L211.007 68.158L211.129 68.4049L211.135 68.634L210.996 68.9221L210.785 69.2979L210.588 69.5297L210.441 69.5215L210.216 69.3871L210.063 69.217L209.698 69.1539L208.807 69.2622L208.361 69.1868L208.148 69.0483L207.775 69.0387L207.199 68.8535L206.847 68.7945L206.68 68.6766L206.648 68.4049L206.483 68.2184L206.39 67.9948L206.181 67.7136L205.98 67.5723L205.782 67.5134L205.566 67.6835L205.335 67.8371L205.163 67.8028L205.079 67.8453L204.985 67.9729L204.614 68.2335L204.527 68.4722L204.38 68.9783L204.277 69.4982L204.189 69.682L204.039 69.7135L203.886 69.8699L203.565 70.3568L203.275 70.8054L202.854 71.1085L202.655 71.3856L202.553 71.638L202.253 71.9905L201.813 72.0536L201.462 72.1565L201.247 72.1839L201.093 72.3265L200.981 72.5433L200.927 72.6297H200.727L200.529 72.8135L200.044 73.2318L199.647 73.31L199.152 73.5885L198.716 73.7997L198.535 73.9191L198.486 74.0508L198.423 74.2181L198.213 74.251L198.009 74.2428L197.555 74.6254L197.325 74.9505L196.433 75.6418L196.068 76.0301L195.974 76.5321L195.928 76.495L195.61 76.9326L194.985 77.3482L193.651 77.4415L193.228 77.1466L193.076 77.3496L192.958 77.6225L192.607 77.7131L192.061 77.7378L191.754 77.9175L191.59 78.1177L190.84 78.1822L190.565 78.4497L190.097 78.5443L188.148 79.7102L187.723 80.1999L187.32 80.7719L187.038 81.0586L186.785 81.2588L186.555 81.3412L186.329 81.5387L186.101 81.5633L185.869 81.4728L185.609 81.5044L185.437 81.7431L185.581 82.0544L185.501 82.1861L184.99 82.3548L184.227 82.4659L183.905 82.6689L183.793 82.7841L183.625 82.8417L183.462 82.4412L183.405 81.9117L183.72 81.7842L184.01 81.717L185.618 80.9845L185.417 80.4331L185.56 80.1931L185.921 79.8021L186.155 79.6087L186.028 79.5374L184.973 79.6663L184.369 79.6567L184.058 79.6169L184.152 79.2823L184.099 78.9476L184.027 78.8227L184.564 78.4414L184.808 78.3482L184.994 78.3537L184.98 78.1232L184.826 77.7762L184.992 77.3276L186.087 76.7996L186.35 76.3195L186.789 75.8709L187.592 74.7544L187.64 74.5637L187.874 74.0384L187.916 73.8285L187.544 73.5213L187.397 73.0906L186.31 72.3115L186.218 71.6407L186.116 71.6695L185.951 72.1386L185.809 72.2895L185.306 72.3032L185.068 72.1263L183.667 72.0111L183.325 72.3142L183.006 72.7819L182.693 73.1166L182.38 73.2881L182.107 73.5926L180.982 75.395L180.557 75.5321L178.555 76.6171L177.553 77.0424L176.781 77.7913L176.515 78.2439L176.28 78.7459L176.137 79.5045L175.424 80.4248L175.179 80.6224L174.93 80.702L174.599 80.6731L174.313 80.7308L173.826 80.6498L173.229 80.9406L172.557 81.1916L171.978 80.5593L171.564 80.4029L170.889 80.5785L170.575 80.8597L169.926 82.2492L169.682 83.0434L169.699 83.3685L170.077 84.3533L170.505 84.9033L171.464 85.5302L173.502 85.9609L173.981 85.8073L174.494 85.8059L175.035 86.2147L175.373 86.8895L175.404 87.349L175.415 87.5081L175.539 87.6439L175.611 87.8757L175.397 88.0678L175.232 88.1638L175.093 88.8757L175.085 89.6616L175.259 89.9223L175.698 90.2885L176.376 90.5903L177.004 90.6547L178.202 90.5094L178.692 90.0361L178.663 89.8317L178.675 89.567L179.73 88.8716L180.331 88.2543L180.238 88.0911L180.122 87.9827L180.228 87.9196L180.557 87.8757L182.024 87.2311L183.178 87.7578L183.837 88.3641L184.489 88.4655L184.94 88.7756L185.461 89.0389L186.141 89.0568L186.715 89.1116L186.889 88.8675L187.07 88.707L187.273 88.7385L187.503 89.0581L188.155 89.3037L188.756 89.2913L189.177 89.2022L189.427 89.316L189.066 89.7248L189.119 90.3831L188.843 90.5916L188.577 90.9263L188.734 91.1472L188.873 91.2404L188.859 91.5079L188.617 91.6602L188.169 92.058L187.91 92.0511L187.788 91.9743L187.701 91.8316L187.636 91.6026L187.48 91.4517L187.045 91.3941L186.594 91.4489L185.578 92.0387L184.586 92.5079L183.548 92.8796L183.2 93.1141L182.952 93.1786L182.522 93.0016L182.261 93.0126L182.206 93.1347L182.538 93.4612L182.625 93.7163L182.59 93.9124L182.402 93.9989L182.128 93.8562L181.878 94.0606L181.765 94.4049L181.759 95.2237L181.594 95.4062L181.136 95.5063L180.649 95.767L180.476 95.6462L180.407 95.4995L180.458 95.1236L180.397 94.9398L180.175 94.9494L179.839 95.0619L179.583 95.3088L179.495 95.4583L179.832 95.9398L180.153 95.9891L180.231 96.0975L179.976 96.3321L179.342 96.6805L179.236 96.9726L179.048 97.2524L178.789 97.4747L178.613 97.7092L178.399 97.8313L178.048 97.9685L177.617 98.5281L177.302 99.0507L176.928 99.3196L176.632 100.2L176.103 100.677L175.907 101.44L176.045 101.908L176.627 101.904L176.917 102.068L177.52 102.683L178.24 103.083L178.989 103.308L179.906 103.875L180.159 104.115L180.375 104.602L180.773 106.001L181.059 106.692L181.078 107.053L181.508 107.732L181.966 108.898L182.494 109.905L182.594 110.696L182.424 111.057L182.425 111.525L182.952 111.954L184.124 112.452L184.311 112.599L184.541 112.84L184.552 113.59L184.734 113.829L184.886 113.974L185.596 114.291L185.893 114.555L186.208 114.974L186.299 115.35L186.338 115.859L185.941 115.877L185.622 115.819L184.353 115.158L184.022 115.14L183.556 115.232L182.892 115.11L182.19 114.376L181.684 114.154L181.14 114.042L179.844 114.673L179.514 114.627L179.419 114.699L179.273 114.807L179.875 114.943L180.477 114.736L181.055 114.43L181.898 114.593L182.04 114.869L182.179 115.334L182.757 115.648L183.211 115.786L183.788 116.198L184.353 116.84L185.548 117.583L186.032 118.286L186.219 118.738L186.387 119.384L185.969 119.593L185.604 119.622L185.034 119.723L184.614 119.952L184.193 120.353L182.987 120.982L182.758 121.376L182.601 121.719L182.307 121.888L181.568 121.727L180.872 121.741L180.084 122.203L179.887 122.391L180.018 122.354L180.142 122.295L180.496 122.365L181.045 122.118L181.582 122.871L182.629 122.749L183.612 122.123L183.994 122.113L184.311 122.209L184.668 122.455L185.614 123.551L186.134 123.671L186.643 123.927L186.925 123.956L187.18 124.033L186.495 124.433L185.61 125.298L185.216 125.503L184.952 125.734L185.665 125.619L186.171 125.206L186.427 125.104L186.632 125.2L186.737 125.709L186.541 127.27L186.292 127.297L186.05 126.874L185.767 126.739L185.529 126.827L185.057 126.824L184.877 127.016L184.725 127.288L185.007 127.344L185.563 127.817L185.62 128.068L185.471 128.232L185.082 128.162L185.555 128.514L185.43 128.879L185.277 129.023L185.002 129.115L184.833 129.43L185.076 129.956L185.322 130.628L185.353 130.952L184.967 130.812L184.366 131.222L184.05 131.256L183.835 130.716L183.562 130.801L183.379 130.957L183.135 131.536L182.838 132.058L182.582 132.201L182.275 132.16L182.022 132.175L182.084 132.316L182.351 132.488V132.688L181.781 133.323L181.689 133.569L181.703 133.777L181.404 134.031L181.565 134.458L181.481 134.758L181.22 135.164L180.945 135.431L180.622 135.865L180.212 136.116L179.671 137.023L179.512 137.475L179.472 137.943L179.302 138.105L179.012 138.308L178.682 138.205L178.671 137.894L178.528 137.866L178.447 137.662L178.422 137.402L178.456 137.193L178.319 137.257L178.233 137.5L178.016 137.697L177.789 137.618L177.544 137.456L177.551 137.689L177.682 137.924L177.738 138.158L178.077 138.209L178.304 138.478L178.482 138.891L178.518 139.046L178.657 139.23L178.676 139.387L178.353 139.533L177.949 139.804L177.463 140.269L177.063 140.579L176.701 140.582L176.482 140.546L176.17 140.368L175.811 140.294L176.292 140.921L176.555 141.032L176.885 141.009L177.206 140.775L177.661 140.8L177.775 141.161L177.654 141.568L177.405 142.096L177.354 142.553L177.663 143.206L177.676 143.402L177.561 143.5L177.199 143.328L176.9 143.111L176.599 143.169L176.287 143.077L175.966 143.154L175.836 143.305L175.924 143.553L176.211 143.759L176.372 144.076L176.18 144.187L175.364 144.113L175.182 144.173L174.939 144.521L175.097 145.037L174.917 145.357L174.581 145.432L174.139 145.69L173.867 145.75L173.881 145.863L174.08 145.975L174.186 146.128L173.945 146.653L173.573 146.826L173 146.739L172.551 146.857L172.161 146.634L171.746 146.63L171.464 146.912L171.433 147.24L171.16 147.273L171.012 147.248L170.805 147.272L170.827 147.447L170.945 147.601L171.506 147.669L171.607 147.89L171.629 148.23L171.041 148.816L170.791 149.211L170.414 149.2L170.129 149.517L169.977 149.946L169.788 149.861L169.352 149.93L169.224 150.134L169.326 150.219L169.335 150.366L169.161 150.848L168.971 150.983L168.888 150.786L168.826 150.48L168.674 150.457L168.419 150.738L168.122 150.939L167.868 151.023L167.675 150.837L167.203 150.739L167.011 151.547L166.62 151.841L166.437 151.933L166.118 151.96L166.321 152.071L166.385 152.278L166.27 152.484L165.951 152.525L165.766 152.686L165.694 153.406L165.504 153.658L165.02 153.679L164.658 153.511L164.543 153.643L164.482 153.772L164.292 153.902L163.926 153.937L163.113 154.259L162.74 154.166L162.296 154.044L161.989 154.163L161.887 154.41L161.746 154.602H161.3L160.942 154.364L160.578 154.193L160.175 154.341L159.868 154.643L159.491 154.744L159.421 154.932L159.257 155.026L158.858 154.986L158.707 154.519L158.477 154.451L158.25 154.687L158.169 154.871L158.063 155.011L158.1 155.39L157.876 155.399L157.583 155.166L157.275 155.124L156.987 155.341L156.841 155.288L156.687 155.242H156.436L156.339 155.3L156.155 155.334L156.031 155.452L156.02 155.462L155.696 155.382L155.298 155.067L155.013 154.543L154.651 154.26L154.492 154.012L154.43 153.566L154.364 153.354L154.386 153.118L154.496 152.908L154.107 153.013L153.819 153.21L153.878 153.456L153.807 153.685L153.377 153.805L153.404 153.901L153.432 154.002L153.768 154.315L153.837 154.577L153.973 154.717L154.236 155.124L154.229 155.912L154.373 156.134L154.325 156.355L154.221 156.652L154.211 156.657L154.134 156.566L154.008 156.584L153.957 156.684L153.948 156.774L153.926 156.779L153.704 156.844L153.516 156.901L153.365 156.98L153.127 157.215L152.674 157.272L152.442 156.724L152.13 157.09L152.036 157.838L151.921 157.965L151.727 158.072L151.359 157.811L151.039 157.986L150.788 158.163L150.685 158.326L150.501 158.503L150.147 158.331L149.863 158.075L149.934 157.881L149.894 157.755L149.766 157.659L149.625 157.673L149.695 157.924L149.741 158.404L149.612 158.543L149.413 158.65L148.982 158.562L148.689 158.383L148.333 158.233L148.019 158.205L147.95 158.508L147.747 158.752L147.558 158.783L147.37 158.744L147.122 159.008L147.005 159.2L146.7 159.403L145.888 159.501L145.605 159.702L145.225 159.67L144.931 159.718L144.761 159.707L144.61 159.599L144.44 159.596L144.361 159.931L143.902 160.072L143.489 160.11L143.029 160.552L142.702 160.82L142.459 160.847L142.28 160.752L142.19 160.357L142.1 160.311L142.047 160.682L141.961 160.991L141.793 161.16L141.262 161.544L141.109 161.925L141.211 162.278L141.925 162.364L142.013 162.557L141.944 162.715L141.773 162.847L141.723 163.044L142.489 163.673L142.512 163.91L142.394 164.046L142.251 164.338L141.846 164.585L140.991 164.711L140.277 164.583L140.061 164.302L140.074 164.102L140.252 164.16L140.453 164.142L140.392 163.958L140.307 163.851L139.978 163.688L139.711 163.247L139.762 162.881L139.618 162.597L139.458 162.36L139.299 162.217L139.212 162.04L139.374 161.483L139.285 161.16L139.59 160.762L139.666 160.313L140.211 160.153L140.248 159.725L139.857 159.713L139.586 159.398L139.524 159.532L139.307 159.545L138.949 158.939L138.842 158.862L138.669 158.851L138.755 159.49L138.336 159.73L137.992 159.836L137.505 159.88L137.227 159.954L136.968 159.894L137.031 159.7L137.169 159.47L137.047 159.276L136.771 159.128L136.35 159.136L136.06 159.095L135.771 159.112L135.665 159.025L135.397 158.722L135.17 158.534L135.068 158.346L135.17 158.128L135.085 157.995L134.646 157.98L134.649 158.293L134.694 158.662L134.822 158.942L134.731 159.098L134.508 159.205L134.27 158.909L134.162 158.836L134.048 158.85L133.961 159.145L133.745 159.407L133.357 159.378L133.054 159.54L132.688 159.614L132.439 159.397L132.028 159.049L131.864 159.009L131.408 159.179L130.751 159.242L130.606 159.061L130.289 159.198L129.984 158.78L129.622 158.752L129.171 158.436L129.008 158.267L128.957 158.025L128.82 157.899L128.644 157.916L128.447 157.787L128.136 157.659L127.886 157.584L127.762 157.641L127.631 157.672L127.608 157.51L127.618 157.021L127.594 156.588L127.525 156.392L127.358 156.244L127.206 156.172L127.139 155.949L127.194 155.51L127.318 155.212L127.513 155.159L127.777 154.945L127.912 154.64L128.081 154.358L127.479 153.961L127.162 153.819L126.811 153.879L126.375 154.005L126.148 154.03L126.034 153.98L125.78 153.624L125.642 153.562L125.334 153.539L125.074 153.541L124.925 153.696L124.694 153.749L124.463 153.757L124.229 153.563L123.877 153.311L123.325 153.133L123.258 152.928L123.118 152.683L122.909 152.455L122.562 152.153L122.272 151.997L122.13 152.093L121.937 152.264L121.192 152.625L120.862 152.766L120.685 152.867L120.538 153.017L120.493 153.389L120.42 153.803L120.205 154.013L120.002 154.172L119.789 154.189L119.579 154.182L119.383 154.248L118.783 154.664L118.501 154.631L118.268 154.396L118.169 154.226L117.901 154.264L117.557 154.463L117.398 154.82L117.314 155.153L117.238 155.301L117.122 155.344L117.021 155.351L115.949 154.389L115.883 154.34L115.69 154.537L115.516 155.048L115.39 155.145L115.305 155.105L114.862 154.452L114.748 154.391L114.648 154.412L114.514 154.624L114.233 154.935L114.019 155.124L114.013 155.334L113.78 155.519L113.508 155.705L113.418 155.724L113.237 155.65L113.002 155.404L112.832 155.148L112.409 154.893L111.936 154.677L111.622 154.508L111.444 154.467L111.277 154.543L111.193 154.646L111.075 154.901L110.792 155.318L110.538 155.65L110.303 155.862L110.116 156.009L109.976 155.872L109.717 155.759H109.413L109.013 155.971L108.698 155.548L108.615 155.528L108.494 155.563L108.354 155.663L108.257 155.899L108.156 156.222L107.955 156.433L107.788 156.526L107.837 156.707L107.931 156.903L107.925 157.075L107.985 157.345L108.09 157.615L108.462 158.058L108.605 158.289L108.634 158.489L108.648 159.2L108.633 159.496L108.559 160.066L108.553 160.396L108.709 160.544L108.859 160.721L108.852 160.817L108.786 160.851L108.572 161.047L108.483 161.073L108.343 160.992L108.161 160.932L108.017 160.854L107.856 160.728L107.475 160.741L106.849 160.933L106.719 160.879L106.63 160.77L106.58 160.545L106.611 160.282L106.556 160.113L106.439 160.013L106.523 159.543L106.3 159.356L106.332 159.298L106.257 158.789L106.267 158.663L106.228 158.621L106.071 158.581L105.838 158.661L105.126 158.995L104.516 159.614L104.236 159.751L103.954 159.807L103.623 159.7L103.255 159.63L102.731 159.787L102.473 159.714L102.353 159.588L102.247 159.396L102.312 159.152L102.272 158.972L102.063 158.881L101.819 158.803L101.675 158.569L101.617 158.312L101.673 157.979L101.702 157.621L101.585 157.456L101.229 157.367L100.331 157.204L99.5438 157.115L99.2137 157.157L98.944 157.117L98.7885 157.052L98.7129 156.939L98.7088 156.777L98.8367 156.406L98.9812 156.042L99.3471 155.513L99.3691 155.145L99.3498 154.721L99.5315 154.155L99.8464 153.731L100.002 153.598L99.9648 153.408L99.8382 153.236L99.658 153.14L99.3595 153.028L98.8945 152.998L98.2562 152.884L97.5174 152.632L97.6027 152.148L97.5903 151.845L97.4995 151.595L97.3496 151.418L97.2643 151.26L97.3977 150.827L97.2258 150.352L97.0236 150.163L96.8144 149.918L96.798 149.653L96.8928 149.406L97.4046 148.875L97.4087 148.746L97.2822 148.757L97.1363 148.768L96.4375 148.961L96.3618 148.839L96.1115 148.769L95.601 148.756L95.004 148.791L94.2488 148.981L93.5554 149.313L93.2404 149.54L92.9721 149.682L92.7548 149.728L92.503 149.628L92.5168 149.303L92.99 148.706L93.0574 148.296L92.9144 147.944L92.8978 147.661L92.7313 147.481L92.4989 147.394L92.3751 147.193L92.3668 146.606L92.5746 146.001L92.9116 145.811L93.1166 145.719L93.1716 145.601L93.067 145.176L93.0836 144.905L93.2844 144.383L93.4853 143.986L93.865 144.052L94.0355 143.954L94.224 143.812L94.429 143.574L94.5666 143.29L94.7344 142.631L94.8485 142.533L95.3273 142.642L95.4704 142.565L95.7318 142.179L95.9794 141.707L96.3384 141.561L96.597 141.546L96.7168 141.39L96.7099 141.159L96.4636 140.793L96.3604 140.501L96.3907 140.323L96.7429 140.214L96.8295 140.002L96.7773 139.535L96.9217 138.974L97.0084 138.317L97.0373 137.826L97.0331 137.452L96.9988 137.058L96.9493 136.339L96.7883 135.713L96.8172 135.477L96.7952 134.715L96.6961 134.065L96.498 133.951L96.1293 133.74L95.9285 133.699L95.7606 133.776L95.6973 134.002L95.535 134.213L95.3355 134.161L95.2406 133.95L95.1127 133.673L94.6849 132.355L94.6381 131.975L94.5625 131.596L94.4194 131.407L94.268 131.294L93.9268 130.85L93.748 130.665L93.6613 130.635L93.4743 130.666H93.2899L93.1399 130.444L93.0024 130.172L92.8648 130.039L92.6337 129.965L92.3971 129.994L92.2581 130.229L92.1646 130.362L91.9857 130.674L91.6969 131.107L91.5648 131.266L91.4368 131.183L90.8797 130.733L90.6115 130.609L90.2455 130.744L89.6746 130.637L89.4545 130.617L88.9785 130.257L88.7845 130.214L88.109 130.448L87.9605 130.614L87.8738 130.617L87.6936 130.533L87.5464 130.422L87.5367 130.352L87.7198 130.177L87.7334 130.053L87.7239 129.928L87.9866 129.574L88.7033 128.889L88.5837 128.6L88.3016 128.033L88.2645 127.757L88.142 127.632L87.7995 127.734L87.0869 128.249L86.9893 128.193L87.0071 128.015L86.9328 127.495L87.1585 127.339L87.5051 127.148L87.772 126.935L87.8339 126.764L87.761 126.71L87.3675 126.778L87.2121 126.661L86.9548 126.182L86.7663 125.994L86.5958 125.893L86.0153 126.14L85.3412 126.479L84.59 126.95L84.5941 127.192L84.5047 127.254L84.3616 127.406L84.2213 127.616L84.1017 127.69L83.9613 127.697L83.6752 127.638L83.1566 127.399L82.5939 127.201L82.4728 127.223L81.7079 127.083L81.6832 126.971L81.5676 126.75L81.3503 126.55L81.1426 126.483L80.5441 126.905L79.8686 127.219L79.4848 127.591L79.1684 127.96L78.8052 128.031L78.7888 128.259L78.636 128.463L78.3609 128.716L77.8148 129.037L77.4446 129.21L76.2698 129.367L75.8502 129.474L75.6741 129.643L75.4857 130.071L75.3371 130.465L75.0125 130.79L74.4209 131.223L73.7261 131.574L73.5349 131.807L73.5006 131.946L73.5872 131.997L73.6726 132.102V132.261L73.5831 132.434L73.1291 132.736L72.8732 132.88L72.6187 132.972L72.334 132.988L72.0602 132.947L71.9845 132.898L71.8759 132.961L71.6255 133.024L71.4081 133.045L70.9307 133.379L70.668 133.382L70.3405 133.309L69.9086 133.252H69.5964L69.5867 133.075L69.6348 132.544L69.4932 132.421L69.0612 132.29L68.5742 132.117L68.3403 131.934L68.2097 131.872L68.0267 131.902L67.7337 132.095L67.4557 132.323L67.2357 132.342L67.0101 132.237L66.7954 132.097L66.058 131.901L65.7279 131.872L65.1377 131.905L64.6562 131.864L64.5806 131.803L64.5819 131.694L64.6535 131.481L64.6948 131.271L64.6384 131.152L64.1472 131.005L63.6988 130.899L63.2214 130.86L62.9009 130.934L62.5872 131.098L62.3285 131.395L61.9544 131.524L61.5073 131.744L61.2913 131.95L60.9639 132.392L60.4879 132.934L60.0559 133.462L59.8317 133.975L59.5345 134.297L59.2332 134.529L59.0158 135.167L58.7889 134.965L58.5288 134.676L58.467 134.279L58.7751 133.226L58.8481 132.787L58.7697 132.619L58.6734 132.187L58.4904 132.045L57.9676 131.818L57.8011 131.812L57.6223 131.968L57.4476 132.067L57.2151 132.165L56.6318 132.351L56.1146 132.437L55.9907 132.506L55.9522 132.629L55.9935 132.776L55.6606 132.72L55.3125 132.688L55.0318 132.709L54.3454 132.988L54.1129 133.016L53.8543 132.987L53.5021 132.979L52.8321 132.987L52.2557 132.916L51.7866 132.525L51.4551 132.352L51.1015 132.219L50.7452 132.119L50.6269 131.909L50.5141 131.803L50.221 131.769L49.9886 131.846L49.8441 132.374L49.7203 132.478L49.426 132.525L49.1164 132.39L48.6886 132.119L48.5207 131.817L48.3777 131.72L48.152 131.853L48.1396 132.24L48.0956 132.499L47.8273 132.604L47.6719 132.528L47.5467 132.261L47.2317 131.629L46.9194 131.259L46.6044 131.012L45.5713 131.019L44.805 130.946L44.4583 130.845L44.3276 130.6L44.4542 130.112L44.6027 129.731L44.5986 129.642L44.4721 129.596L44.2519 129.566L43.4251 129.81L43.1996 129.781L43.0565 129.698L42.8818 129.627L42.7373 129.513L42.6368 129.347L41.9215 128.939L41.711 128.716L41.33 128.436L41.0081 128.245L40.8045 127.699L40.6187 127.174L40.517 126.894L40.2101 126.746L39.8786 126.634L39.3173 126.863L38.8565 127.037L38.5181 127.055L38.0296 126.516L37.6376 125.933L37.174 125.424L36.8659 125.167L36.3197 125.143L35.7047 124.856L34.8793 124.203L34.2837 123.716L33.2574 123.174L33.0181 122.946L32.9272 122.753L32.7869 122.372L32.5723 122.01L31.8446 121.852L31.0219 121.739L30.1538 121.962L29.5293 123.045L29.228 123.281L28.9693 123.295L28.7575 123.019L28.5828 122.73L28.4879 122.409L28.0559 122.172L27.5675 121.861L27.3171 121.62L27.0352 121.469L26.7724 121.405L26.2661 121.2L25.6925 120.97L25.4228 120.938L25.4036 120.774L25.4848 120.424L25.4352 120.088L25.2619 119.951L25.0005 119.986L24.3952 119.509L24.3649 119.484L24.1929 119.349L23.8944 119.154L23.3909 119.168L23.0099 119.239L22.7306 119.04L22.3261 118.725L22.2533 118.655L22.1335 118.539L21.7236 117.93L21.2394 117.209L20.9944 117.103L20.8679 117.158L20.7248 117.541L20.6175 117.502L20.4373 117.528L20.2255 117.663L20.0219 117.697L19.8911 117.657L19.8361 117.563L19.8939 117.057L19.7701 116.899L19.8801 116.546L20.0659 116.242L19.876 116.015L19.6422 115.692L19.6161 115.398L19.7426 115.028L19.8045 114.711L19.7659 114.594L19.5816 114.417L18.8787 113.545L18.8415 113.453L18.7232 113.162L18.6682 112.723L18.5774 112.409L18.4701 112.168L18.4783 112.054L18.5595 111.995L18.9983 111.936L19.4041 111.899L19.6711 111.817L19.81 111.992L19.8747 112.261L19.9448 112.402L20.2021 112.658L20.5157 112.902L20.8198 112.87L21.088 112.766L21.3205 112.368L21.4842 112.271L21.6754 112.253V112.224L21.6644 111.968L21.7318 111.335L21.7085 111.082L21.6217 110.853L21.6369 110.597L21.6081 110.227L21.3893 109.973L21.2462 109.876L21.2228 109.739L21.2971 109.485L21.348 109.193L21.2724 108.977L21.2599 108.945L21.0825 108.833L20.8748 108.645L20.6272 108.392L20.5047 108.208L20.3039 108.005L20.059 107.689L20.0136 106.997L19.9889 106.267L19.9036 105.904L19.7674 105.323L19.788 105.129L19.8706 104.98L20.5611 104.511L20.7111 104.329L20.7358 104.19L20.7084 103.985L20.5776 103.755L20.3025 103.577L19.909 103.286L19.5527 102.983L18.953 102.798L18.2252 102.572L18.0505 102.351L17.8744 101.81L17.5745 100.985L17.2554 100.103L17.0091 99.5582L16.9967 99.2962L17.1439 98.6269L17.1261 98.4842L16.9967 98.4348L16.7505 98.5226L16.5537 98.6282L16.3859 98.5734L16.2305 98.4609L16.1988 98.4225L16.1864 98.4074L15.8948 98.4801L15.3101 98.5213L15.1079 98.5144L14.8245 98.5048L14.2385 98.3511L13.4474 98.1441L12.6316 97.856L12.1996 97.6269L12.0483 97.5473L11.6783 97.3087L11.4156 97.103L11.3688 96.5639L11.1775 96.605L10.729 96.7998L10.2118 96.9233L9.92566 96.9246L9.81004 96.8382L9.63808 96.269L9.51297 96.1085L9.28047 96.0454L9.02732 95.9452L8.89935 95.7971L8.87047 95.6092L8.98332 95.3939L9.11674 95.2279L9.14008 94.2128L9.05343 93.8521L8.98055 93.549L8.79481 93.1718L8.62151 92.9386L8.36012 92.7219L7.95423 92.4969L7.59243 92.4132L7.15497 92.5778L7.01609 92.5147L6.83304 91.8179L6.71616 91.6753L5.93889 91.3886L5.58674 91.3227L5.18085 91.4119L4.94978 91.4887L4.76404 91.3612L4.47377 91.1993L4.18896 91.0882L3.83547 91.0841L3.60708 91.1527L3.54931 91.1129L3.43923 90.9853L2.96877 90.5999L2.95223 90.5025L3.67308 90.1225L4.0982 89.9785L4.32104 89.8633L4.36781 89.888L4.47789 90.0635L4.7585 90.1788L4.95666 90.1472L5.05985 90.0594L5.40924 89.8496L5.68162 89.6054L5.83435 89.4052L5.75182 89.0897L5.32258 88.707L5.0502 88.5026L4.96623 88.3641L5.03643 87.9484L5.13551 87.5356L5.06943 87.3778L4.98832 87.2434L4.95255 86.7922L4.76539 86.2462L4.56177 85.928L4.50543 85.4973L4.49443 85.094L4.74062 84.4603L4.64985 84.186L4.39124 83.9418L3.49977 83.5001L2.58631 83.208L2.23827 83.2189L2.02231 83.2011L1.76639 83.459L1.61374 83.7964L1.40046 83.8266L1.01111 83.6839L0.751157 83.4672L0.566768 83.0159L0.423691 82.4344L0.34258 82.2519L0.383807 82.0942L0.47323 81.9543L0.722273 81.8226L0.7635 81.6882L0.726387 81.5222L0.525541 81.3123L0.320581 81.016L0 80.4002L0.0618827 80.06L0.11285 79.5703L0.0935377 79.3125L0.418233 79.2452L0.832268 79.1122L1.02488 78.8913L1.15831 78.6664L1.18727 78.5265L1.06208 77.9874L0.897005 77.7474L0.880464 77.5608L0.961659 77.4182L1.07031 77.1727L1.27938 76.6679L1.483 76.3455L1.59442 76.2646L1.84347 76.1892L2.45146 76.1L3.10497 75.8737L3.88081 75.1961L4.13951 75.0027L4.47789 74.9053L4.72005 74.9121L4.76404 74.8298L4.6072 74.4087L4.64574 74.2565L4.73793 74.1371L4.85481 74.0823L5.39269 74.3045L5.80404 74.2812L6.30481 74.1495L7.3847 73.4061L7.51954 73.417L7.6282 73.5172L7.75893 73.9657L7.90747 74.9094L7.99 75.0273L8.74116 75.0397L9.25293 74.6968L9.4772 74.6159L9.84036 74.6721L10.033 74.5116L10.2338 74.3992L10.4663 74.7942L10.7662 74.6049L11.0895 74.3045L11.2477 73.9931L11.4664 73.6571L11.637 73.2305L11.7058 72.8272L11.7897 72.6379L11.9713 72.4431L12.4184 71.6105L12.7403 71.3979L13.0457 71.3225L13.8009 71.4665L14.1931 71.4487L15.3431 71.5584L15.8741 71.3979L16.2456 71.2388L16.7904 71.2635L17.4356 71.1373L18.2954 70.088L18.3064 69.8644L18.3587 69.6271L18.6695 69.3925L19.0561 69.1772L19.8265 68.6628L21.3934 67.8467L21.9547 67.5188L22.1886 67.5271L22.7664 67.3214L23.7789 66.9208L24.065 66.4215L24.3319 66.3214L25.515 66.2322L25.5893 66.1746L25.6305 66.0896L25.5645 65.7275L25.4875 65.4161L25.5796 65.3242L25.6787 65.1816L25.6636 64.9813L25.4723 64.3311L25.3706 63.7139L25.3031 63.1556L25.3156 62.9471L25.4586 62.5864L25.6443 62.2585L26.3142 61.9527L26.7586 61.8607L26.7765 61.6605L26.4174 61.5356L26.1575 61.3354L26.1121 61.2215L26.1244 61.0913L26.1849 60.9719L26.6362 60.747L27.0613 60.5234L27.5799 60.6592L27.6817 60.5727L27.7119 60.3492L27.6005 60.1242L27.496 59.7552L27.2566 59.566L27.247 59.3396L27.3942 58.9487L27.1906 58.2244L26.9691 57.5839L26.5935 56.4838L26.3446 56.1656L26.2056 55.6567L26.0502 55.3892L26.0639 54.9928L26.0901 54.7144L26.0502 54.1616L25.9772 53.5608L26.0502 52.9504L26.1905 52.5472L26.1533 52.3921L26.2276 52.2769L26.4394 52.2385L26.5399 52.0725L26.4394 51.9025L26.0735 51.7708L25.6649 51.5664L25.1738 51.5897L24.6703 51.6254L24.4186 51.4745L24.1985 51.2811L24.1861 51.1577L24.4888 50.8312L24.9097 50.4924L25.5632 50.3429L26.2826 50.1193L26.6472 49.9574L27.1328 49.8408L27.6941 49.7915L27.9761 49.8244L28.6984 49.6077L29.8347 49.1879L30.8664 48.8354L31.2131 48.6255L31.4718 48.8354L31.5914 49.2977L31.8927 49.5363L32.1913 49.6515L32.3632 49.6461L32.8777 49.4664L33.4335 49.3347L33.6523 49.406L33.9342 49.6419L34.2507 49.8532L34.4158 49.8436L34.5602 49.6804L34.706 49.3511L34.7981 48.9314L34.8175 48.487L34.7624 48.2154L34.6509 48.1153L34.1447 47.9548L33.6618 47.6928L33.6068 47.4528L33.6178 47.2813L33.7458 46.8616L34.0608 46.0893L34.3772 45.0208L34.5451 44.1745L35.0747 42.9084L35.4915 41.5834L36.1656 39.6686L36.2785 39.2886L36.3403 38.681L36.3761 38.4299L36.6114 38.2983L37.0075 38.4272L37.9746 38.8662L38.7107 39.2351L39.0188 39.3599L39.4769 39.4903L40.1854 39.6439L40.5954 39.5986L40.9544 39.5081L41.4331 39.4998L42.1801 39.6137L42.4112 39.6178L42.6988 39.6329L42.9024 39.8194L43.0042 40.2406L43.1583 40.4298L43.4375 40.3599L44.0318 39.9882L44.4115 39.696L44.8861 39.2722L45.3567 39.2146L45.856 39.1199L46.0293 38.91L46.2137 38.4163L46.5204 38.0432L46.5714 37.5685L46.4641 37.2339L46.2508 36.6879L46.2577 36.3189L46.1545 35.2477L46.017 34.2807L46.1573 33.5002L46.4049 32.6251L46.5012 32.3562L46.658 32.0037L46.8795 31.5799L47.1905 31.4468L48.064 31.3563L48.8729 31.178L49.2856 30.9942L49.7148 30.8831L49.9707 30.7487L50.4109 30.1273L50.62 29.7693L50.7741 28.8173L50.6613 28.3592L50.7548 27.9532L50.9681 27.7145L51.268 27.4745L51.4688 27.4333L51.8967 27.3606L52.5983 27.3853L52.956 27.5019L53.3191 27.5567L53.5488 27.4704L53.7016 27.2879L53.9369 27.2303L54.2903 27.1425L54.6549 27.0328L54.8558 27.0534L54.8971 27.3236L54.864 27.5348L54.9342 27.8174L55.0786 28.0039L55.0318 28.2056L54.8282 28.3222L54.6274 28.4799L54.5834 28.6953L54.8379 28.9627L54.9245 29.2192L55.351 29.3728L55.6826 29.5457L55.8063 29.7117L55.7692 29.8982L55.6166 30.0985L55.4693 30.3138L55.4501 30.4427L55.4968 30.5936L55.816 30.6938L56.186 30.8597L56.7721 31.0737L57.1738 31.4715L57.5728 31.5812L57.7653 31.968L57.7998 32.529L58.2084 32.8144L58.8123 33.2108L59.119 33.2835L59.324 33.5084L59.6198 33.78L59.8825 33.865L60.1948 33.9048L60.7094 33.6524L61.2871 33.6278L61.6022 33.7718L61.9021 34.3149L62.1139 34.4864L62.2391 34.6387L62.4414 34.7841L62.6464 34.806L62.9517 34.6853L63.1375 34.4453L63.4043 34.4947L63.5047 34.651L63.5543 34.9185L63.696 35.2504L64.0344 35.4973L64.5076 35.6441L64.5737 35.7648L64.6397 36.0954L64.7677 36.3245L64.9396 36.6235L65.1034 37.168L65.1377 37.6179L65.2134 37.8648L65.4321 38.2667L65.7816 38.9087L66.0594 39.4519L66.3813 39.5575L66.6551 39.7289L66.8119 40.1295L67.1022 40.8825L67.149 41.3736L67.1737 41.7398L67.2687 41.9058L67.2893 42.1129L67.0472 42.8989L66.8422 43.2527L66.8161 43.5504L66.955 44.0675L67.1462 44.468L67.1655 44.8507L67.0032 45.1305L66.7239 45.4803L66.589 45.6806L66.3717 45.8561L66.0388 46.531L65.8889 47.2758L65.8544 47.6585L65.9811 47.9356L66.1929 48.2401L66.2451 48.5035L66.5932 49.0919L66.6854 49.4554L66.8284 49.4677L66.9812 49.3484L67.354 49.3402L67.6924 49.4691L68.0171 49.738L68.3651 49.8806L68.8631 49.845L69.1286 49.989L69.4147 50.1069L70.0077 50.1481L70.4521 50.1467L71.1344 50.1508L71.686 50.3319L72.6559 50.4745L73.2557 50.4636L74.0618 50.3292L74.5557 50.4142L76.0181 50.6145L76.8737 50.8243L77.4157 51.0602L77.7969 51.4333L78.2329 52.0149L78.5796 52.281L79.5109 52.4415L80.1507 53.1191L80.65 53.3715L81.4906 54.0258L82.0849 54.2809L82.7961 54.5155L83.9558 54.4154L84.0205 54.5031L83.9311 54.857L83.8609 55.3412V55.691L83.9806 55.8693L84.4235 55.9749L84.6327 56.1464L84.7922 56.4756L84.8844 56.68L85.2572 57.6868L85.8543 59.1696L85.9231 59.7388L86.1267 60.105L86.7746 60.6852L87.1145 61.1146L87.6207 61.5644L87.7871 61.9801L87.8243 62.5164L87.9522 62.6549L88.8781 62.5315L89.6801 62.4451L91.119 62.2915L93.1 62.5713L95.143 62.8415L96.9493 63.0802L97.8393 63.1967L99.8506 63.4478L100.969 63.1282L101.843 62.8785L102.239 62.9128L103.909 63.194L104.888 63.3449L106.121 63.5342L106.977 63.6041L107.678 63.6L108.002 63.6796L108.314 63.8016L108.522 63.98L109.163 64.8798L109.522 65.2762L110.233 65.5752L111.848 65.9167L112.742 66.1239L113.769 66.3612L114.445 66.7192L115.224 67.1348L116.232 67.6725L117.337 67.4379L118.526 67.1842L119.271 67.0251V68.1471L120.335 68.2362L120.668 68.2239L121.138 68.4708L121.402 68.3666L121.654 68.1238L121.969 67.7397L122.422 67.571L123.204 67.1403L123.396 67.036L124.558 66.4229L126.294 65.6658L127.073 65.2981L127.305 65.2158L127.746 65.0279L128.043 64.8976L128.568 64.7934L129.281 64.7275L130.059 64.5849L131.82 64.316L132.042 64.2913L133.031 64.1802L133.452 64.076L134.081 64.1308L134.902 64.1693L135.447 64.2378L136.169 64.1843L137.162 64.1117L137.966 64.1226L138.364 64.0321L138.953 63.7482L139.348 63.5232L139.969 63.2502L140.739 62.9663L141.275 62.7084L141.63 62.537L142.061 62.3751L142.174 62.1666L142.298 62.0062L142.526 61.7387L142.937 61.2394L143.251 60.8018L143.405 60.607L143.757 60.1695L144.042 59.8389L144.405 59.3931L144.711 59.2491L145.099 59.127L146.118 58.6895L146.32 58.5948L146.489 58.5756L146.85 58.2217L147.155 57.9145L147.355 57.6854L147.769 57.6017L147.981 57.4358L148.018 57.219L147.975 56.8871L147.776 56.5469L147.608 56.2492L147.016 55.6814L146.703 55.3289L146.383 54.8749L146.253 54.4483L146.034 54.1767L145.929 53.9353L145.962 53.6568L146.266 53.1603L146.363 52.8462L146.489 52.2906L146.774 51.458L147.007 51.0671L147.275 50.6858L147.843 50.1728L148.363 50.0781L148.673 50.1796H149.365L149.825 50.2071L150.165 50.4636L150.541 50.9697L150.966 51.1549L152.289 51.5513L152.855 51.635L153.259 51.6528L153.858 51.7831L154.058 51.8119L154.365 51.9011L154.618 51.8051L155.002 51.4662L155.485 51.0863L155.693 50.9985L156.077 50.8339L156.269 50.6789L156.606 50.251L157.044 49.919L157.577 49.4198L157.84 49.0439L157.898 48.8011L157.956 48.5378L158.121 48.3992L158.445 48.2717L158.811 48.2374L159.508 48.4637L160.448 48.3992L160.659 48.3663L161.516 48.236L161.903 48.129L162.447 48.0261L162.866 47.6064L163.425 47.1057L163.833 46.8273L164.104 46.7738L164.442 46.4844L164.609 46.173L164.565 45.8987L164.501 45.6723L164.701 45.2513L165.061 44.5133L165.397 44.169L165.675 43.8906L165.852 43.442L166.071 43.3131L166.339 43.2637L166.718 42.9592L166.995 42.8975L167.458 43.0429L168.141 43.0799L168.578 43.095L168.826 43.0401L168.917 42.8769L168.915 42.6245L169.053 42.0621L169.106 41.8769L169.231 41.7905L169.652 41.7796L169.935 41.9812L170.131 42.1485L170.402 42.1705L170.681 42.0607L171.054 41.6054L171.676 41.3406L172.006 41.2734L172.592 41.0581L172.962 41.1363L173.641 41.1994L173.904 41.1445L174.19 41.1994L174.45 40.8907L174.657 40.8167L175.094 40.9593L175.369 41.198L175.884 41.497L176.54 41.6369L177.089 41.5656L177.653 41.6918L177.986 41.6808L178.144 41.5629L178.606 41.3118L178.716 40.9716L178.671 40.6438L178.725 40.2721L178.588 39.9978L178.302 39.5918L178.191 39.3202L178.181 38.9649L178.002 38.6261L177.573 38.2173L177.291 38.028L176.711 37.3203L176.514 37.1543L176.446 37.0377L176.379 36.8004L176.164 36.6866L175.882 36.5014L175.731 36.3121L175.632 35.9829L175.573 35.7676L175.324 35.5892L175.075 35.4891L174.794 35.3629L174.329 35.1777L174.061 34.8088L173.588 34.1161L173.319 33.8829L172.321 33.7937L171.962 33.625L171.556 33.6826L171.314 33.7937L170.777 33.7924L170.499 33.8609L170.146 34.3177L169.677 34.9103L169.29 35.271L169.015 35.6455L168.887 35.7799L168.637 35.699L168.293 35.2779L167.802 34.9007L167.346 34.7292L167.151 34.6345L166.608 34.5386L166.188 34.5687L165.653 34.7114L165.13 34.6853L164.895 34.5948L164.562 34.6044L163.959 34.9967L163.647 35.4425L163.277 35.5824L162.943 35.2902L162.557 34.9446L162.189 34.5111L161.962 34.1092L161.835 33.0421L162.277 32.7239L162.841 32.3658L162.883 31.7993L162.863 31.167L162.974 30.462L163.489 29.8104L163.765 29.27L163.8 28.9326L164.047 28.3716L164.284 27.779L164.607 26.9999L165.219 25.6117L165.943 23.963L166.305 23.1373L167.099 23.6489L167.61 23.915L168.476 24.3183L169.368 24.4088L170.223 24.845L170.663 24.9767H170.898L172.108 23.915L173.13 23.0138L174.304 22.3088L175.168 22.2127L175.818 22.007L176.25 21.6902L176.507 21.1607L176.585 20.4173L176.412 19.966L175.988 19.8096L175.88 19.6518L176.083 19.4914L176.235 19.18L176.329 18.7164L176.574 18.2747L176.966 17.8577L177.184 17.3941L177.224 16.8839L177.46 16.3736L177.891 15.8647L178.128 15.3901L178.167 14.9512L178.386 14.4135L178.98 13.4602L179.366 12.3587L180.023 11.6016L181.08 10.8225L181.739 10.0475L182.002 9.27657L181.981 8.5935L181.675 8.00093L181.616 7.3974L181.806 6.78151L181.64 6.32064L181.118 6.01477L180.496 5.93933L179.774 6.09434L179.368 5.90091L179.279 5.3605L179.473 4.92293L179.95 4.58822L180.734 3.77208L181.827 2.46902L182.914 1.74614L184.534 1.53764L185.841 1.10832L187.173 0.672144L188.134 0.455394L188.298 0.600815L188.822 0.63648L189.707 0.562388L190.528 0.374479L191.287 0.0713293L191.889 0L192.33 0.160491L192.59 0.179705Z" fill="var(--fill-0, #71B219)" stroke="var(--stroke-0, white)" mask="url(#path-1-inside-1_0_218)"/>
</g>
</svg>
