<svg preserveAspectRatio="none" width="100%" height="100%" overflow="visible" style="display: block;" viewBox="0 0 46.9043 64.1404" fill="none" xmlns="http://www.w3.org/2000/svg">
<g id="CO">
<mask id="path-1-inside-1_0_250" fill="white">
<path d="M29.7411 2.23716L29.6022 2.28517L29.4302 2.38807L28.9061 2.58146L28.1976 2.76527L27.2759 3.00119L27.0668 3.25356L26.1547 4.83511L25.3912 5.15471L25.1133 5.39063L24.9042 5.68964L24.4488 6.23968L24.259 6.66217L23.7569 7.57978L23.4817 8.72926L23.3772 9.37394L23.2258 10.308L23.003 10.7772L22.7058 11.2174L22.3853 11.6468L22.1101 12.1187L21.8763 12.4876L21.8377 12.6138L21.9519 12.7153L22.5064 12.6138L22.7251 12.5027L23.0277 12.3601L23.2176 12.4369L23.4074 12.8429L23.6221 12.8936L23.8242 12.8429L24.0389 12.9444L24.3126 13.9539L24.5451 14.8085L25.0844 15.3421L25.5054 15.7577L25.6072 16.1253L25.7076 16.6437L25.7337 16.8975L25.6017 17.0498L25.3926 17.3652L25.3403 17.9674L25.3045 18.1677L25.266 18.7259L25.2935 19.0689L25.4063 19.3363L25.5934 19.49L25.9731 19.5695L26.3156 19.6628L26.5124 20.1264L26.7916 20.7163L27.0915 20.9645L27.5317 21.1277L27.8468 21.0688L28.5814 20.9645L29.2129 20.9906L30.1373 21.1483L30.4813 21.1428L30.9256 21.1127L31.7084 20.7931L31.9931 20.7451L32.3095 20.7739L32.7718 20.9371L33.0221 21.066L33.3427 21.1991L33.8104 21.2937L34.1117 21.2773L34.3401 21.2718L34.4721 21.3321L35.2081 22.247L35.8464 23.0399L36.4022 23.7051L37.0034 24.4225L37.0502 24.465L37.3212 24.3731L37.5 24.4129L37.6651 24.5583L37.9499 24.4979L38.3543 24.2318L38.9431 24.1783L39.7176 24.3374H40.7398L42.0082 24.1797L42.7965 24.0082L43.1046 23.8231L43.6136 23.8423L44.2285 24.0082L44.5601 24.2442L44.6 24.476L44.7238 24.8395L44.5903 25.2071L44.1996 25.5788L43.9823 26.0548L43.9396 26.6336L43.7374 27.0615L43.3756 27.3387L43.2339 27.7419L43.3137 28.2714L43.2752 29.045L43.117 30.0628V30.6704L43.2752 30.8693L43.3481 31.1546L43.3357 31.5263L43.3949 31.8556L43.5916 32.2835L43.8654 33.1353L44.0937 33.5015L44.2932 33.6359L44.4954 33.8006L45.0787 34.6716L45.2204 34.8554L45.1778 35.0159L45.1228 35.1352L45.0553 35.212L44.4335 35.7305L43.1981 36.858L43.0963 37.0006L43.1046 37.2366L43.4623 37.0843L43.8461 37.2119L44.0332 37.2366L44.1185 37.3299L44.2299 37.6344L44.3579 37.6851L44.545 37.8113L44.9109 38.1323L45.2177 38.4697L45.4474 38.6315L45.6097 38.7824L45.6606 39.0019L45.5932 39.2214L45.7858 39.7303L45.9165 39.888L45.9853 40.0814L45.9165 40.2762L46.0788 40.5039L46.255 40.9524L46.4695 41.4997L46.4957 41.8042L46.5851 41.9441L46.691 42.3502L46.8713 42.7315L46.8286 42.9921L46.9043 43.2486L46.1738 43.4201L46.1077 43.3926L46.0637 43.298L46.0843 42.5696L46.0775 41.7466L45.9647 41.4092L45.6304 40.8687L45.1874 40.1527L45.0663 39.947L44.8793 39.829L44.6578 39.8126L44.4954 39.8633L44.2781 39.9964L44.0731 40.1418L43.6769 40.5738L43.278 41.0786L43.0441 41.1924L42.8102 41.2391L42.6038 41.224L42.4374 41.0882L42.2668 40.8125L42.0618 40.4463L41.817 40.327L41.722 40.4394L41.6409 40.6548L41.5776 40.8687L41.7427 41.1403L41.8844 41.3502L41.6409 41.3434H40.8539H39.946H39.0395H38.225H37.4711L37.1836 41.3255L36.8906 41.2021L36.6099 41.1444L36.4614 41.1541L36.1959 41.2734L35.8506 41.2912L35.6181 41.4051L35.431 41.3914L35.4283 42.0223L35.4227 42.9208L35.4172 43.8741L35.6263 43.8014L35.8066 43.8082L35.9386 43.8755L36.3101 43.8206L36.515 43.8494L36.7104 43.8741L36.8906 43.8768L37.002 43.9523L37.1506 43.9385L37.3102 43.8549L37.5014 43.907L37.7064 44.0414L37.8384 44.2417L37.9568 44.49L38.0751 44.6216L38.0682 44.8589L38.0641 45.0455L38.0228 45.2005L38.0751 45.3006L38.1136 45.4076L38.1026 45.4693L38.0338 45.4981L37.8838 45.5187L37.7243 45.5365L37.6128 45.5297L37.5262 45.4337L37.4423 45.4227L37.3212 45.4364L37.1919 45.3788L37.0804 45.2581L36.8823 45.1374L36.6705 45.1895L36.5247 45.2512L36.3747 45.3267L36.2385 45.4062L36.1023 45.3856L35.929 45.4432L35.7832 45.5324L35.5878 45.6051L35.3759 45.6394L35.1324 45.6737L34.9 45.6874L34.6358 45.7162L34.6207 46.2182L34.5904 47.2045L34.5698 47.8574L34.5712 48.4595L34.673 48.679L35.1407 49.1426L35.508 49.3868L35.8189 49.6597L36.1284 49.7736L36.2578 49.8765L36.3431 50.0452L36.3857 50.2221L36.4187 50.373L36.3857 50.5335L36.3087 50.6858L36.3417 50.8463L36.4531 50.9724L36.4875 51.1329L36.5646 51.2852L36.6072 51.4375L36.7008 51.5472L36.8191 51.6226L36.9718 51.7488L36.9883 51.8668L36.9718 52.0012L36.9704 52.1027L37.1162 52.3345L37.1589 52.4977L37.0914 52.6911L37.0254 53.3646L36.8576 54.1314L36.7489 54.7171L36.5742 55.6704L36.3706 56.7801L36.1216 58.1325L35.8753 59.4685L35.6387 60.762L35.4241 61.932L35.1875 63.2228L35.0444 64.0046L34.9756 64.1404L34.7775 63.8565L34.4776 63.589L34.197 63.4285L34.0773 63.2173L33.9163 62.7866L33.6908 62.6398L33.5325 62.526L33.3798 62.5424L33.2175 62.6604L32.9671 62.7359L32.7979 62.7248L32.1169 62.4286L32.0055 62.3998L32.443 61.7222L33.2258 60.511L33.7238 59.7401L34.2754 58.8856L34.5574 58.4494L34.5946 58.3753V58.2628L34.4749 58.0969L34.2094 58.0269L33.9012 57.8994L33.7073 57.6922L33.439 57.6031L33.2299 57.4563L32.8488 57.3123L32.6204 57.1792L32.3412 57.1312L32.1197 56.8871L31.3122 56.4138L31.1044 56.3699L30.8774 56.4426L30.5445 56.5181L30.224 56.776L29.8237 56.8596L29.4495 56.8569L29.2541 56.7033L29.067 56.647L28.8222 56.4372L28.3902 56.2753L28.0765 56.1628L27.8826 56.2149L27.6336 56.4495L27.3818 56.6827L27.1823 56.8281L26.9141 56.8198L26.5935 57.0338L26.2785 57.1106L25.9607 57.1435L25.5948 57.219L25.1889 57.09L24.856 56.9762L24.7074 56.9241L24.5726 56.9597L24.3635 57.0791L23.9894 57.1299L23.6963 57.1422L23.4886 57.0859L23.3015 56.8788L22.9989 56.7732L22.6659 56.6443L22.5958 56.3768L22.6439 56.1765L22.7732 55.8885L22.7017 55.5908L22.5614 55.1217L22.5022 54.9297L22.3977 54.7664L22.234 54.7075L21.9134 54.7514L21.5626 54.5744L21.3466 54.4044L21.2352 54.1972L21.3535 53.8063L21.249 53.473L21.0399 53.2892L20.9051 52.9641L20.6959 52.7062L20.4208 52.5732L20.1443 52.5883L19.9283 52.5073L19.6821 52.233L19.4509 52.1301L19.1896 51.864L18.7026 51.746L18.4494 51.6418L18.305 51.4772L18.1096 51.1837L18.1316 51.0218L18.0367 50.8613L17.9528 50.5746L17.7864 50.1508L17.6034 49.9094L17.4149 49.7284L17.2553 49.5747L17.0187 49.3456L16.7284 49.2126L16.4822 49.0727L16.3859 48.8656L16.3034 48.6955L16.1644 48.7078L15.9663 48.6927L15.7489 48.6488L15.5192 48.5254L15.3266 48.3759L15.0033 48.1221L14.8272 48.0892H14.6704L14.4393 48.3375L13.7473 48.0769L13.1544 47.69L12.5395 47.5899L12.1419 47.354L11.7746 46.9836L11.5765 46.7326L11.4155 46.6092L10.6327 46.2498L10.4773 46.2155L10.1788 46.3828L10.0825 46.483L10.0646 46.7697L10.0288 46.9329L9.76882 47.0317L9.34924 47.0097L9.05893 46.9054L8.86358 46.8904L8.8237 46.9727L8.71366 47.007L8.47566 46.9836L8.12485 46.9041L7.80708 46.7985L7.37647 46.5735L7.17701 46.6023L6.68723 46.5543L6.28693 46.4254L6.18512 46.3074L6.01177 45.4981L5.95812 45.4419L5.78616 45.4076L5.49589 45.2951L5.31293 45.1648L5.218 44.9398L5.10381 44.7272L4.61547 44.7752L3.81481 44.4941L3.26041 44.2266L2.75277 43.9303L1.98239 43.346L1.68937 43.2019L1.32617 43.0237L1.11156 42.7356L0.758021 42.4448L0.639713 42.3652L0.52827 42.1032L0 41.7219L0.261385 41.2309L0.896963 40.8605L1.73064 41.1472L1.83242 40.5738L1.53116 40.0663L1.57656 39.1075L1.67423 38.9155L1.89433 38.659L2.18048 38.4807L2.34831 38.4299L2.63446 38.5177L2.81468 38.3257L3.49427 38.4121L3.70062 38.3312L3.84231 38.2008L4.00877 38.1021L4.22062 37.8717L4.34308 37.6056L4.44489 37.5013L4.68012 37.5383L4.70212 37.4231L4.8232 37.2667L5.2345 36.917L5.23039 36.762L5.11485 36.4246L5.14374 36.3011L5.38174 36.2586L5.66373 36.1639L5.8137 35.8416L5.99939 35.5604L6.21127 35.1462L6.44512 35.1201L6.56893 34.6359L6.88397 34.2121L7.52504 32.9556L7.33108 32.9831L7.17701 33.1517L7.00227 33.1312L6.80281 33.0324L6.86058 32.4659L6.74639 32.3987L6.43689 32.8349L6.17001 32.3905L6.14524 32.1203L6.25804 31.8528L6.24154 31.6731L5.80954 31.8075L5.8302 31.6402L6.09847 31.4687L6.22089 31.2904L6.45478 31.0956L6.55243 30.8021L6.60885 30.3453L6.71477 29.8557L6.63635 29.6143L6.50977 29.4085L6.40385 28.495L6.43273 27.9628L6.37774 27.5444L6.26766 27.1905L5.75454 26.7255L6.56481 26.1933L6.85508 25.7914L6.48639 24.9643L6.00493 24.2661L5.99116 23.8478L6.1177 23.9013L6.28004 23.8889L6.42723 23.0055L6.39285 22.7326L6.12185 22.2909L5.78616 22.2799L5.49177 21.7244L5.32258 21.5996L5.18639 21.2498L4.71177 20.5681L4.3362 20.2129L4.61819 19.3898L4.86447 19.2321L4.94423 19.0277L4.84797 18.5216L4.87547 18.4036L4.93323 18.3528L4.99104 18.3556L5.09008 18.4324L5.27443 18.6505L5.42851 18.9207L5.55231 19.003L5.73939 18.9139L6.463 18.3748L6.41624 18.2075L6.48227 17.87L6.72439 17.5943L6.98305 17.4997L7.06008 17.3461L6.99816 17.1088L6.72577 16.5176L6.48366 16.1994L6.3282 15.8825L6.24566 15.5903L5.9705 15.3146L6.08608 15.054L6.29931 14.7495L6.37224 14.696L6.48777 14.7797L6.80693 15.3324L7.31458 15.6918L7.84697 16.272L8.0657 16.6726L8.23905 16.7453L8.38897 16.8893L8.32297 16.9977L8.15651 17.1115L8.10835 17.3433L8.217 17.4736L8.3312 17.5573L8.64212 17.5038L8.8127 17.2322L8.69851 16.0403L8.51966 15.4435L8.31193 15.2584L8.12624 15.0225L8.25143 14.8442L8.58297 14.7632L9.01766 14.5547L10.6107 13.4149L11.1569 12.3436L11.5751 11.9554L12.047 11.703L12.6247 11.762L13.0732 11.6276L13.2122 11.2861L13.0897 10.8238L12.9178 10.544L13.0829 10.1393L13.2548 9.52346L13.2424 9.00633L13.4639 8.69769L13.3869 8.57701L13.0636 8.82666L12.8077 8.93914L12.9522 8.73336L13.4048 8.22313L13.64 7.44537L13.8202 7.12167L14.4585 6.66904L14.5851 6.4509L15.068 6.11075L15.8452 5.38101L16.1424 5.17803L17.6488 5.64849L18.1275 5.61831L18.0422 5.70475L17.8207 5.73355L17.5016 5.8611L17.4094 6.14231L17.6254 6.43583L17.8551 6.52089L18.0505 6.3316L18.2444 5.79253L18.5567 5.19586L18.6296 4.57035L18.8511 4.35502L19.1744 4.27683L19.7522 4.40027L20.1911 4.5292L20.6492 4.54569L22.0537 4.45105L24.3374 2.82563L25.3981 2.47585L26.0625 2.13293L26.4863 1.46493L26.6004 0.962903L26.9127 0.768129H27.2401L27.3901 0.646024L27.4368 0.491017L28.2265 0.0562179L28.6791 0L29.0794 0.00820454L29.9736 0.386786L30.3877 1.05617L30.4565 1.51704L29.8897 2.01769L29.7411 2.23716ZM3.51077 38.205L3.40623 38.29L3.20675 38.1391L3.13935 37.9471L3.26177 37.8044L3.4186 37.8511L3.49014 37.9677L3.51077 38.205Z"/>
</mask>
<path d="M29.7411 2.23716L29.6022 2.28517L29.4302 2.38807L28.9061 2.58146L28.1976 2.76527L27.2759 3.00119L27.0668 3.25356L26.1547 4.83511L25.3912 5.15471L25.1133 5.39063L24.9042 5.68964L24.4488 6.23968L24.259 6.66217L23.7569 7.57978L23.4817 8.72926L23.3772 9.37394L23.2258 10.308L23.003 10.7772L22.7058 11.2174L22.3853 11.6468L22.1101 12.1187L21.8763 12.4876L21.8377 12.6138L21.9519 12.7153L22.5064 12.6138L22.7251 12.5027L23.0277 12.3601L23.2176 12.4369L23.4074 12.8429L23.6221 12.8936L23.8242 12.8429L24.0389 12.9444L24.3126 13.9539L24.5451 14.8085L25.0844 15.3421L25.5054 15.7577L25.6072 16.1253L25.7076 16.6437L25.7337 16.8975L25.6017 17.0498L25.3926 17.3652L25.3403 17.9674L25.3045 18.1677L25.266 18.7259L25.2935 19.0689L25.4063 19.3363L25.5934 19.49L25.9731 19.5695L26.3156 19.6628L26.5124 20.1264L26.7916 20.7163L27.0915 20.9645L27.5317 21.1277L27.8468 21.0688L28.5814 20.9645L29.2129 20.9906L30.1373 21.1483L30.4813 21.1428L30.9256 21.1127L31.7084 20.7931L31.9931 20.7451L32.3095 20.7739L32.7718 20.9371L33.0221 21.066L33.3427 21.1991L33.8104 21.2937L34.1117 21.2773L34.3401 21.2718L34.4721 21.3321L35.2081 22.247L35.8464 23.0399L36.4022 23.7051L37.0034 24.4225L37.0502 24.465L37.3212 24.3731L37.5 24.4129L37.6651 24.5583L37.9499 24.4979L38.3543 24.2318L38.9431 24.1783L39.7176 24.3374H40.7398L42.0082 24.1797L42.7965 24.0082L43.1046 23.8231L43.6136 23.8423L44.2285 24.0082L44.5601 24.2442L44.6 24.476L44.7238 24.8395L44.5903 25.2071L44.1996 25.5788L43.9823 26.0548L43.9396 26.6336L43.7374 27.0615L43.3756 27.3387L43.2339 27.7419L43.3137 28.2714L43.2752 29.045L43.117 30.0628V30.6704L43.2752 30.8693L43.3481 31.1546L43.3357 31.5263L43.3949 31.8556L43.5916 32.2835L43.8654 33.1353L44.0937 33.5015L44.2932 33.6359L44.4954 33.8006L45.0787 34.6716L45.2204 34.8554L45.1778 35.0159L45.1228 35.1352L45.0553 35.212L44.4335 35.7305L43.1981 36.858L43.0963 37.0006L43.1046 37.2366L43.4623 37.0843L43.8461 37.2119L44.0332 37.2366L44.1185 37.3299L44.2299 37.6344L44.3579 37.6851L44.545 37.8113L44.9109 38.1323L45.2177 38.4697L45.4474 38.6315L45.6097 38.7824L45.6606 39.0019L45.5932 39.2214L45.7858 39.7303L45.9165 39.888L45.9853 40.0814L45.9165 40.2762L46.0788 40.5039L46.255 40.9524L46.4695 41.4997L46.4957 41.8042L46.5851 41.9441L46.691 42.3502L46.8713 42.7315L46.8286 42.9921L46.9043 43.2486L46.1738 43.4201L46.1077 43.3926L46.0637 43.298L46.0843 42.5696L46.0775 41.7466L45.9647 41.4092L45.6304 40.8687L45.1874 40.1527L45.0663 39.947L44.8793 39.829L44.6578 39.8126L44.4954 39.8633L44.2781 39.9964L44.0731 40.1418L43.6769 40.5738L43.278 41.0786L43.0441 41.1924L42.8102 41.2391L42.6038 41.224L42.4374 41.0882L42.2668 40.8125L42.0618 40.4463L41.817 40.327L41.722 40.4394L41.6409 40.6548L41.5776 40.8687L41.7427 41.1403L41.8844 41.3502L41.6409 41.3434H40.8539H39.946H39.0395H38.225H37.4711L37.1836 41.3255L36.8906 41.2021L36.6099 41.1444L36.4614 41.1541L36.1959 41.2734L35.8506 41.2912L35.6181 41.4051L35.431 41.3914L35.4283 42.0223L35.4227 42.9208L35.4172 43.8741L35.6263 43.8014L35.8066 43.8082L35.9386 43.8755L36.3101 43.8206L36.515 43.8494L36.7104 43.8741L36.8906 43.8768L37.002 43.9523L37.1506 43.9385L37.3102 43.8549L37.5014 43.907L37.7064 44.0414L37.8384 44.2417L37.9568 44.49L38.0751 44.6216L38.0682 44.8589L38.0641 45.0455L38.0228 45.2005L38.0751 45.3006L38.1136 45.4076L38.1026 45.4693L38.0338 45.4981L37.8838 45.5187L37.7243 45.5365L37.6128 45.5297L37.5262 45.4337L37.4423 45.4227L37.3212 45.4364L37.1919 45.3788L37.0804 45.2581L36.8823 45.1374L36.6705 45.1895L36.5247 45.2512L36.3747 45.3267L36.2385 45.4062L36.1023 45.3856L35.929 45.4432L35.7832 45.5324L35.5878 45.6051L35.3759 45.6394L35.1324 45.6737L34.9 45.6874L34.6358 45.7162L34.6207 46.2182L34.5904 47.2045L34.5698 47.8574L34.5712 48.4595L34.673 48.679L35.1407 49.1426L35.508 49.3868L35.8189 49.6597L36.1284 49.7736L36.2578 49.8765L36.3431 50.0452L36.3857 50.2221L36.4187 50.373L36.3857 50.5335L36.3087 50.6858L36.3417 50.8463L36.4531 50.9724L36.4875 51.1329L36.5646 51.2852L36.6072 51.4375L36.7008 51.5472L36.8191 51.6226L36.9718 51.7488L36.9883 51.8668L36.9718 52.0012L36.9704 52.1027L37.1162 52.3345L37.1589 52.4977L37.0914 52.6911L37.0254 53.3646L36.8576 54.1314L36.7489 54.7171L36.5742 55.6704L36.3706 56.7801L36.1216 58.1325L35.8753 59.4685L35.6387 60.762L35.4241 61.932L35.1875 63.2228L35.0444 64.0046L34.9756 64.1404L34.7775 63.8565L34.4776 63.589L34.197 63.4285L34.0773 63.2173L33.9163 62.7866L33.6908 62.6398L33.5325 62.526L33.3798 62.5424L33.2175 62.6604L32.9671 62.7359L32.7979 62.7248L32.1169 62.4286L32.0055 62.3998L32.443 61.7222L33.2258 60.511L33.7238 59.7401L34.2754 58.8856L34.5574 58.4494L34.5946 58.3753V58.2628L34.4749 58.0969L34.2094 58.0269L33.9012 57.8994L33.7073 57.6922L33.439 57.6031L33.2299 57.4563L32.8488 57.3123L32.6204 57.1792L32.3412 57.1312L32.1197 56.8871L31.3122 56.4138L31.1044 56.3699L30.8774 56.4426L30.5445 56.5181L30.224 56.776L29.8237 56.8596L29.4495 56.8569L29.2541 56.7033L29.067 56.647L28.8222 56.4372L28.3902 56.2753L28.0765 56.1628L27.8826 56.2149L27.6336 56.4495L27.3818 56.6827L27.1823 56.8281L26.9141 56.8198L26.5935 57.0338L26.2785 57.1106L25.9607 57.1435L25.5948 57.219L25.1889 57.09L24.856 56.9762L24.7074 56.9241L24.5726 56.9597L24.3635 57.0791L23.9894 57.1299L23.6963 57.1422L23.4886 57.0859L23.3015 56.8788L22.9989 56.7732L22.6659 56.6443L22.5958 56.3768L22.6439 56.1765L22.7732 55.8885L22.7017 55.5908L22.5614 55.1217L22.5022 54.9297L22.3977 54.7664L22.234 54.7075L21.9134 54.7514L21.5626 54.5744L21.3466 54.4044L21.2352 54.1972L21.3535 53.8063L21.249 53.473L21.0399 53.2892L20.9051 52.9641L20.6959 52.7062L20.4208 52.5732L20.1443 52.5883L19.9283 52.5073L19.6821 52.233L19.4509 52.1301L19.1896 51.864L18.7026 51.746L18.4494 51.6418L18.305 51.4772L18.1096 51.1837L18.1316 51.0218L18.0367 50.8613L17.9528 50.5746L17.7864 50.1508L17.6034 49.9094L17.4149 49.7284L17.2553 49.5747L17.0187 49.3456L16.7284 49.2126L16.4822 49.0727L16.3859 48.8656L16.3034 48.6955L16.1644 48.7078L15.9663 48.6927L15.7489 48.6488L15.5192 48.5254L15.3266 48.3759L15.0033 48.1221L14.8272 48.0892H14.6704L14.4393 48.3375L13.7473 48.0769L13.1544 47.69L12.5395 47.5899L12.1419 47.354L11.7746 46.9836L11.5765 46.7326L11.4155 46.6092L10.6327 46.2498L10.4773 46.2155L10.1788 46.3828L10.0825 46.483L10.0646 46.7697L10.0288 46.9329L9.76882 47.0317L9.34924 47.0097L9.05893 46.9054L8.86358 46.8904L8.8237 46.9727L8.71366 47.007L8.47566 46.9836L8.12485 46.9041L7.80708 46.7985L7.37647 46.5735L7.17701 46.6023L6.68723 46.5543L6.28693 46.4254L6.18512 46.3074L6.01177 45.4981L5.95812 45.4419L5.78616 45.4076L5.49589 45.2951L5.31293 45.1648L5.218 44.9398L5.10381 44.7272L4.61547 44.7752L3.81481 44.4941L3.26041 44.2266L2.75277 43.9303L1.98239 43.346L1.68937 43.2019L1.32617 43.0237L1.11156 42.7356L0.758021 42.4448L0.639713 42.3652L0.52827 42.1032L0 41.7219L0.261385 41.2309L0.896963 40.8605L1.73064 41.1472L1.83242 40.5738L1.53116 40.0663L1.57656 39.1075L1.67423 38.9155L1.89433 38.659L2.18048 38.4807L2.34831 38.4299L2.63446 38.5177L2.81468 38.3257L3.49427 38.4121L3.70062 38.3312L3.84231 38.2008L4.00877 38.1021L4.22062 37.8717L4.34308 37.6056L4.44489 37.5013L4.68012 37.5383L4.70212 37.4231L4.8232 37.2667L5.2345 36.917L5.23039 36.762L5.11485 36.4246L5.14374 36.3011L5.38174 36.2586L5.66373 36.1639L5.8137 35.8416L5.99939 35.5604L6.21127 35.1462L6.44512 35.1201L6.56893 34.6359L6.88397 34.2121L7.52504 32.9556L7.33108 32.9831L7.17701 33.1517L7.00227 33.1312L6.80281 33.0324L6.86058 32.4659L6.74639 32.3987L6.43689 32.8349L6.17001 32.3905L6.14524 32.1203L6.25804 31.8528L6.24154 31.6731L5.80954 31.8075L5.8302 31.6402L6.09847 31.4687L6.22089 31.2904L6.45478 31.0956L6.55243 30.8021L6.60885 30.3453L6.71477 29.8557L6.63635 29.6143L6.50977 29.4085L6.40385 28.495L6.43273 27.9628L6.37774 27.5444L6.26766 27.1905L5.75454 26.7255L6.56481 26.1933L6.85508 25.7914L6.48639 24.9643L6.00493 24.2661L5.99116 23.8478L6.1177 23.9013L6.28004 23.8889L6.42723 23.0055L6.39285 22.7326L6.12185 22.2909L5.78616 22.2799L5.49177 21.7244L5.32258 21.5996L5.18639 21.2498L4.71177 20.5681L4.3362 20.2129L4.61819 19.3898L4.86447 19.2321L4.94423 19.0277L4.84797 18.5216L4.87547 18.4036L4.93323 18.3528L4.99104 18.3556L5.09008 18.4324L5.27443 18.6505L5.42851 18.9207L5.55231 19.003L5.73939 18.9139L6.463 18.3748L6.41624 18.2075L6.48227 17.87L6.72439 17.5943L6.98305 17.4997L7.06008 17.3461L6.99816 17.1088L6.72577 16.5176L6.48366 16.1994L6.3282 15.8825L6.24566 15.5903L5.9705 15.3146L6.08608 15.054L6.29931 14.7495L6.37224 14.696L6.48777 14.7797L6.80693 15.3324L7.31458 15.6918L7.84697 16.272L8.0657 16.6726L8.23905 16.7453L8.38897 16.8893L8.32297 16.9977L8.15651 17.1115L8.10835 17.3433L8.217 17.4736L8.3312 17.5573L8.64212 17.5038L8.8127 17.2322L8.69851 16.0403L8.51966 15.4435L8.31193 15.2584L8.12624 15.0225L8.25143 14.8442L8.58297 14.7632L9.01766 14.5547L10.6107 13.4149L11.1569 12.3436L11.5751 11.9554L12.047 11.703L12.6247 11.762L13.0732 11.6276L13.2122 11.2861L13.0897 10.8238L12.9178 10.544L13.0829 10.1393L13.2548 9.52346L13.2424 9.00633L13.4639 8.69769L13.3869 8.57701L13.0636 8.82666L12.8077 8.93914L12.9522 8.73336L13.4048 8.22313L13.64 7.44537L13.8202 7.12167L14.4585 6.66904L14.5851 6.4509L15.068 6.11075L15.8452 5.38101L16.1424 5.17803L17.6488 5.64849L18.1275 5.61831L18.0422 5.70475L17.8207 5.73355L17.5016 5.8611L17.4094 6.14231L17.6254 6.43583L17.8551 6.52089L18.0505 6.3316L18.2444 5.79253L18.5567 5.19586L18.6296 4.57035L18.8511 4.35502L19.1744 4.27683L19.7522 4.40027L20.1911 4.5292L20.6492 4.54569L22.0537 4.45105L24.3374 2.82563L25.3981 2.47585L26.0625 2.13293L26.4863 1.46493L26.6004 0.962903L26.9127 0.768129H27.2401L27.3901 0.646024L27.4368 0.491017L28.2265 0.0562179L28.6791 0L29.0794 0.00820454L29.9736 0.386786L30.3877 1.05617L30.4565 1.51704L29.8897 2.01769L29.7411 2.23716ZM3.51077 38.205L3.40623 38.29L3.20675 38.1391L3.13935 37.9471L3.26177 37.8044L3.4186 37.8511L3.49014 37.9677L3.51077 38.205Z" fill="var(--fill-0, #71B219)" stroke="var(--stroke-0, white)" mask="url(#path-1-inside-1_0_250)"/>
</g>
</svg>
