<svg preserveAspectRatio="none" width="100%" height="100%" overflow="visible" style="display: block;" viewBox="0 0 47 64" fill="none" xmlns="http://www.w3.org/2000/svg"><g id="CO"><mask id="path-1-inside-1_0_250" fill="white"><path d="M30 2L30 2L29 2L29 3L28 3L27 3L27 3L26 5L25 5L25 5L25 6L24 6L24 7L24 8L24 9L23 9L23 10L23 11L23 11L22 12L22 12L22 12L22 13L22 13L22 13L23 12L23 12L23 12L23 13L24 13L24 13L24 13L24 14L24 15L25 15L26 16L26 16L26 17L26 17L26 17L25 17L25 18L25 18L25 19L25 19L25 19L26 20L26 20L26 20L26 20L27 21L27 21L28 21L28 21L29 21L29 21L30 21L30 21L31 21L32 21L32 21L32 21L33 21L33 21L33 21L34 21L34 21L34 21L34 21L35 22L36 23L36 24L37 24L37 24L37 24L38 24L38 25L38 24L38 24L39 24L40 24H41L42 24L43 24L43 24L44 24L44 24L45 24L45 24L45 25L45 25L44 26L44 26L44 27L44 27L43 27L43 28L43 28L43 29L43 30V31L43 31L43 31L43 32L43 32L44 32L44 33L44 34L44 34L44 34L45 35L45 35L45 35L45 35L45 35L44 36L43 37L43 37L43 37L44 37L44 37L44 37L44 37L44 38L44 38L44 38L45 38L45 38L45 39L46 39L46 39L46 39L46 40L46 40L46 40L46 40L46 40L46 41L46 42L46 42L47 42L47 42L47 43L47 43L47 43L46 43L46 43L46 43L46 43L46 42L46 41L46 41L45 40L45 40L45 40L45 40L44 40L44 40L44 40L44 41L43 41L43 41L43 41L43 41L42 41L42 41L42 40L42 40L42 40L42 41L42 41L42 41L42 41L42 41H41H40H39H38H38L37 41L37 41L37 41L36 41L36 41L36 41L36 41L35 41L35 42L35 43L35 44L36 44L36 44L36 44L36 44L36 44L37 44L37 44L37 44L37 44L37 44L38 44L38 44L38 44L38 44L38 45L38 45L38 45L38 45L38 45L38 45L38 46L38 46L38 46L38 46L38 46L38 45L37 45L37 45L37 45L37 45L37 45L37 45L36 45L36 45L36 45L36 45L36 45L36 46L36 46L35 46L35 46L35 46L35 46L35 46L35 47L35 48L35 48L35 49L35 49L36 49L36 50L36 50L36 50L36 50L36 50L36 50L36 50L36 51L36 51L36 51L36 51L37 51L37 51L37 52L37 52L37 52L37 52L37 52L37 52L37 52L37 52L37 53L37 53L37 54L37 55L37 56L36 57L36 58L36 60L36 61L35 62L35 63L35 64L35 64L35 64L34 64L34 63L34 63L34 63L34 63L34 62L33 62L33 63L33 63L33 63L32 62L32 62L32 62L33 60L34 60L34 59L35 58L35 58V58L34 58L34 58L34 58L34 58L33 58L33 58L33 57L33 57L32 57L32 57L31 56L31 56L31 56L30 56L30 57L30 57L29 57L29 57L29 57L29 56L28 56L28 56L28 56L28 56L27 57L27 57L27 57L27 57L26 57L26 57L26 57L25 57L25 57L25 57L25 57L24 57L24 57L24 57L24 57L23 57L23 57L23 57L23 56L23 56L23 56L23 56L23 55L22 55L22 55L22 55L22 55L22 55L21 54L21 54L21 54L21 54L21 53L21 53L21 53L20 53L20 53L20 52L20 52L20 52L19 52L19 52L18 52L18 52L18 51L18 51L18 51L18 51L18 50L18 50L17 50L17 50L17 49L17 49L16 49L16 49L16 49L16 49L16 49L16 49L16 48L15 48L15 48L15 48H15L14 48L14 48L13 48L12 48L12 47L12 47L12 47L11 47L11 46L10 46L10 46L10 46L10 47L10 47L10 47L9 47L9 47L9 47L9 47L9 47L8 47L8 47L8 47L7 47L7 47L7 47L6 46L6 46L6 46L6 45L6 45L6 45L5 45L5 45L5 45L5 45L4 44L3 44L3 44L2 43L2 43L1 43L1 43L1 42L1 42L0 42L0 42L0 41L1 41L2 41L2 41L2 40L2 39L2 39L2 39L2 38L2 38L3 38L3 38L4 38L4 38L4 38L4 38L4 38L4 38L4 38L5 38L5 37L5 37L5 37L5 37L5 36L5 36L5 36L6 36L6 36L6 36L6 35L6 35L7 35L7 34L8 33L7 33L7 33L7 33L7 33L7 32L7 32L6 33L6 32L6 32L6 32L6 32L6 32L6 32L6 32L6 31L6 31L7 31L7 30L7 30L7 30L6 29L6 28L6 28L6 28L6 27L6 27L7 26L7 26L6 25L6 24L6 24L6 24L6 24L6 23L6 23L6 22L6 22L6 22L5 22L5 21L5 21L4 20L5 19L5 19L5 19L5 18L5 18L5 18L5 18L5 18L5 19L5 19L6 19L6 19L6 18L6 18L6 18L7 18L7 18L7 17L7 17L7 16L6 16L6 16L6 16L6 15L6 15L6 15L6 15L6 15L7 15L7 16L8 16L8 17L8 17L8 17L8 17L8 17L8 17L8 18L8 18L9 18L9 17L9 16L8 15L8 15L8 15L8 15L9 15L9 15L11 13L11 12L12 12L12 12L13 12L13 12L13 11L13 11L13 10L13 10L13 10L13 9L14 9L13 9L13 9L13 9L13 9L13 8L14 7L14 7L14 7L15 6L15 6L16 5L16 5L18 6L18 6L18 6L18 6L18 6L17 6L18 6L18 6L18 6L18 6L19 5L19 5L19 4L19 4L20 4L20 4L21 4L22 4L24 3L25 2L26 2L26 2L27 1L27 1H27L27 1L27 0L28 0L29 0L29 0L30 0L30 1L30 2L30 2L30 2ZM4 38L3 38L3 38L3 38L3 38L3 38L4 38L4 38Z"/></mask><path d="M30 2L30 2L29 2L29 3L28 3L27 3L27 3L26 5L25 5L25 5L25 6L24 6L24 7L24 8L24 9L23 9L23 10L23 11L23 11L22 12L22 12L22 12L22 13L22 13L22 13L23 12L23 12L23 12L23 13L24 13L24 13L24 13L24 14L24 15L25 15L26 16L26 16L26 17L26 17L26 17L25 17L25 18L25 18L25 19L25 19L25 19L26 20L26 20L26 20L26 20L27 21L27 21L28 21L28 21L29 21L29 21L30 21L30 21L31 21L32 21L32 21L32 21L33 21L33 21L33 21L34 21L34 21L34 21L34 21L35 22L36 23L36 24L37 24L37 24L37 24L38 24L38 25L38 24L38 24L39 24L40 24H41L42 24L43 24L43 24L44 24L44 24L45 24L45 24L45 25L45 25L44 26L44 26L44 27L44 27L43 27L43 28L43 28L43 29L43 30V31L43 31L43 31L43 32L43 32L44 32L44 33L44 34L44 34L44 34L45 35L45 35L45 35L45 35L45 35L44 36L43 37L43 37L43 37L44 37L44 37L44 37L44 37L44 38L44 38L44 38L45 38L45 38L45 39L46 39L46 39L46 39L46 40L46 40L46 40L46 40L46 40L46 41L46 42L46 42L47 42L47 42L47 43L47 43L47 43L46 43L46 43L46 43L46 43L46 42L46 41L46 41L45 40L45 40L45 40L45 40L44 40L44 40L44 40L44 41L43 41L43 41L43 41L43 41L42 41L42 41L42 40L42 40L42 40L42 41L42 41L42 41L42 41L42 41H41H40H39H38H38L37 41L37 41L37 41L36 41L36 41L36 41L36 41L35 41L35 42L35 43L35 44L36 44L36 44L36 44L36 44L36 44L37 44L37 44L37 44L37 44L37 44L38 44L38 44L38 44L38 44L38 45L38 45L38 45L38 45L38 45L38 45L38 46L38 46L38 46L38 46L38 46L38 45L37 45L37 45L37 45L37 45L37 45L37 45L36 45L36 45L36 45L36 45L36 45L36 46L36 46L35 46L35 46L35 46L35 46L35 46L35 47L35 48L35 48L35 49L35 49L36 49L36 50L36 50L36 50L36 50L36 50L36 50L36 50L36 51L36 51L36 51L36 51L37 51L37 51L37 52L37 52L37 52L37 52L37 52L37 52L37 52L37 52L37 53L37 53L37 54L37 55L37 56L36 57L36 58L36 60L36 61L35 62L35 63L35 64L35 64L35 64L34 64L34 63L34 63L34 63L34 63L34 62L33 62L33 63L33 63L33 63L32 62L32 62L32 62L33 60L34 60L34 59L35 58L35 58V58L34 58L34 58L34 58L34 58L33 58L33 58L33 57L33 57L32 57L32 57L31 56L31 56L31 56L30 56L30 57L30 57L29 57L29 57L29 57L29 56L28 56L28 56L28 56L28 56L27 57L27 57L27 57L27 57L26 57L26 57L26 57L25 57L25 57L25 57L25 57L24 57L24 57L24 57L24 57L23 57L23 57L23 57L23 56L23 56L23 56L23 56L23 55L22 55L22 55L22 55L22 55L22 55L21 54L21 54L21 54L21 54L21 53L21 53L21 53L20 53L20 53L20 52L20 52L20 52L19 52L19 52L18 52L18 52L18 51L18 51L18 51L18 51L18 50L18 50L17 50L17 50L17 49L17 49L16 49L16 49L16 49L16 49L16 49L16 49L16 48L15 48L15 48L15 48H15L14 48L14 48L13 48L12 48L12 47L12 47L12 47L11 47L11 46L10 46L10 46L10 46L10 47L10 47L10 47L9 47L9 47L9 47L9 47L9 47L8 47L8 47L8 47L7 47L7 47L7 47L6 46L6 46L6 46L6 45L6 45L6 45L5 45L5 45L5 45L5 45L4 44L3 44L3 44L2 43L2 43L1 43L1 43L1 42L1 42L0 42L0 42L0 41L1 41L2 41L2 41L2 40L2 39L2 39L2 39L2 38L2 38L3 38L3 38L4 38L4 38L4 38L4 38L4 38L4 38L4 38L5 38L5 37L5 37L5 37L5 37L5 36L5 36L5 36L6 36L6 36L6 36L6 35L6 35L7 35L7 34L8 33L7 33L7 33L7 33L7 33L7 32L7 32L6 33L6 32L6 32L6 32L6 32L6 32L6 32L6 32L6 31L6 31L7 31L7 30L7 30L7 30L6 29L6 28L6 28L6 28L6 27L6 27L7 26L7 26L6 25L6 24L6 24L6 24L6 24L6 23L6 23L6 22L6 22L6 22L5 22L5 21L5 21L4 20L5 19L5 19L5 19L5 18L5 18L5 18L5 18L5 18L5 19L5 19L6 19L6 19L6 18L6 18L6 18L7 18L7 18L7 17L7 17L7 16L6 16L6 16L6 16L6 15L6 15L6 15L6 15L6 15L7 15L7 16L8 16L8 17L8 17L8 17L8 17L8 17L8 17L8 18L8 18L9 18L9 17L9 16L8 15L8 15L8 15L8 15L9 15L9 15L11 13L11 12L12 12L12 12L13 12L13 12L13 11L13 11L13 10L13 10L13 10L13 9L14 9L13 9L13 9L13 9L13 9L13 8L14 7L14 7L14 7L15 6L15 6L16 5L16 5L18 6L18 6L18 6L18 6L18 6L17 6L18 6L18 6L18 6L18 6L19 5L19 5L19 4L19 4L20 4L20 4L21 4L22 4L24 3L25 2L26 2L26 2L27 1L27 1H27L27 1L27 0L28 0L29 0L29 0L30 0L30 1L30 2L30 2L30 2ZM4 38L3 38L3 38L3 38L3 38L3 38L4 38L4 38Z" fill="var(--fill-0,#71B219)" stroke="var(--stroke-0,white)" mask="url(#path-1-inside-1_0_250)"/></g></svg>