<svg preserveAspectRatio="none" width="100%" height="100%" overflow="visible" style="display: block;" viewBox="0 0 12.9123 12.0995" fill="none" xmlns="http://www.w3.org/2000/svg">
<g id="CR">
<mask id="path-1-inside-1_0_191" fill="white">
<path d="M8.74805 1.06031L8.84433 1.21532L8.95578 1.45806L9.0053 1.77084L9.49641 2.81742L9.88849 3.40174L10.7469 4.46616L11.117 4.66231L11.7429 5.51684L11.9589 5.65812L12.0827 5.91049L12.732 6.11762L12.9123 6.27124L12.8903 6.34257L12.8228 6.41804L12.7279 6.49348L12.6014 6.54559L12.296 6.3892L11.9947 6.21226L11.8296 6.29322L11.7677 6.52366L11.6563 6.64162L11.5173 6.68825L11.4595 6.76506L11.4471 7.54144L11.4582 8.27252L11.6851 8.28897L12.0648 8.54273L12.2272 8.69225L12.2781 8.83076L12.2313 8.89799L11.9534 9.0571L11.6824 9.25874L11.5476 9.50977L11.7842 9.91715L11.8351 10.1928L11.8268 10.4823L11.7608 10.6208L11.2367 10.9514L11.1225 11.068L11.1362 11.1516L11.4265 11.3807L11.5627 11.6016L11.6769 11.8677L11.6934 12.0995L11.4306 11.6701L11.0675 11.26L10.751 11.0076L10.7263 10.4192L10.5997 10.0996L10.1237 9.80468L9.71653 9.59755L9.41387 9.64008L9.59958 9.97886L10.0769 10.4137L10.1086 10.5797L10.1017 10.8032L9.77293 10.769L9.48128 10.6784L9.12774 10.6496L8.89249 10.5165L8.3931 9.99669L8.74805 9.55502L8.8581 9.26422L8.84847 8.66069L8.7673 8.36855L8.3821 7.92412L7.76993 7.43444L6.91149 7.03527L6.50841 6.71295L5.50277 6.46602L5.12033 6.3028L4.82181 5.99965L4.77779 5.78156L4.88372 5.44551L4.60583 5.01892L3.40896 4.17808L2.739 3.86949L2.59595 3.68702L2.49 3.6308L2.59181 4.21102L2.88483 4.5608L3.64835 4.88589L3.85883 5.07652L3.94412 5.32345L3.50114 5.79529L3.27416 5.91464L3.20812 6.17249L3.06368 6.25069L2.91096 6.10255L2.29191 5.36183L1.09367 5.00657L0.876329 4.78848L0.430597 4.11089L0.225616 3.49363L0.29854 3.08076L0.791019 2.43746L0.945117 2.15763L0.913462 1.98479L0.928597 1.73103L0.745636 1.55409L0.290269 1.32227L0 1.13712L0.0797884 1.0452L0.601194 0.795589L0.634193 0.570634L0.631443 0.496542L0.716752 0.480091L0.792405 0.421111L0.839174 0.358028L0.980866 0.141277L1.10606 0.0192137L1.2505 0L1.42523 0.0891616L2.08281 0.323703L2.81468 0.582941L3.85608 0.950555L4.28804 0.714632L4.65949 0.53497L4.9181 0.561006L5.47802 0.770892L5.81506 0.838077L6.02141 0.816142L6.3791 1.12478L6.57445 1.3566L6.60747 1.51022L6.71614 1.59386L6.99541 1.61169L7.67776 1.76808L8.09458 1.7379L8.47428 1.57192L8.68339 1.37305L8.74805 1.06031Z"/>
</mask>
<path d="M8.74805 1.06031L8.84433 1.21532L8.95578 1.45806L9.0053 1.77084L9.49641 2.81742L9.88849 3.40174L10.7469 4.46616L11.117 4.66231L11.7429 5.51684L11.9589 5.65812L12.0827 5.91049L12.732 6.11762L12.9123 6.27124L12.8903 6.34257L12.8228 6.41804L12.7279 6.49348L12.6014 6.54559L12.296 6.3892L11.9947 6.21226L11.8296 6.29322L11.7677 6.52366L11.6563 6.64162L11.5173 6.68825L11.4595 6.76506L11.4471 7.54144L11.4582 8.27252L11.6851 8.28897L12.0648 8.54273L12.2272 8.69225L12.2781 8.83076L12.2313 8.89799L11.9534 9.0571L11.6824 9.25874L11.5476 9.50977L11.7842 9.91715L11.8351 10.1928L11.8268 10.4823L11.7608 10.6208L11.2367 10.9514L11.1225 11.068L11.1362 11.1516L11.4265 11.3807L11.5627 11.6016L11.6769 11.8677L11.6934 12.0995L11.4306 11.6701L11.0675 11.26L10.751 11.0076L10.7263 10.4192L10.5997 10.0996L10.1237 9.80468L9.71653 9.59755L9.41387 9.64008L9.59958 9.97886L10.0769 10.4137L10.1086 10.5797L10.1017 10.8032L9.77293 10.769L9.48128 10.6784L9.12774 10.6496L8.89249 10.5165L8.3931 9.99669L8.74805 9.55502L8.8581 9.26422L8.84847 8.66069L8.7673 8.36855L8.3821 7.92412L7.76993 7.43444L6.91149 7.03527L6.50841 6.71295L5.50277 6.46602L5.12033 6.3028L4.82181 5.99965L4.77779 5.78156L4.88372 5.44551L4.60583 5.01892L3.40896 4.17808L2.739 3.86949L2.59595 3.68702L2.49 3.6308L2.59181 4.21102L2.88483 4.5608L3.64835 4.88589L3.85883 5.07652L3.94412 5.32345L3.50114 5.79529L3.27416 5.91464L3.20812 6.17249L3.06368 6.25069L2.91096 6.10255L2.29191 5.36183L1.09367 5.00657L0.876329 4.78848L0.430597 4.11089L0.225616 3.49363L0.29854 3.08076L0.791019 2.43746L0.945117 2.15763L0.913462 1.98479L0.928597 1.73103L0.745636 1.55409L0.290269 1.32227L0 1.13712L0.0797884 1.0452L0.601194 0.795589L0.634193 0.570634L0.631443 0.496542L0.716752 0.480091L0.792405 0.421111L0.839174 0.358028L0.980866 0.141277L1.10606 0.0192137L1.2505 0L1.42523 0.0891616L2.08281 0.323703L2.81468 0.582941L3.85608 0.950555L4.28804 0.714632L4.65949 0.53497L4.9181 0.561006L5.47802 0.770892L5.81506 0.838077L6.02141 0.816142L6.3791 1.12478L6.57445 1.3566L6.60747 1.51022L6.71614 1.59386L6.99541 1.61169L7.67776 1.76808L8.09458 1.7379L8.47428 1.57192L8.68339 1.37305L8.74805 1.06031Z" fill="var(--fill-0, #71B219)" stroke="var(--stroke-0, white)" mask="url(#path-1-inside-1_0_191)"/>
</g>
</svg>
