<svg preserveAspectRatio="none" width="100%" height="100%" overflow="visible" style="display: block;" viewBox="0 0 13 12" fill="none" xmlns="http://www.w3.org/2000/svg"><g id="CR"><mask id="path-1-inside-1_0_191" fill="white"><path d="M9 1L9 1L9 2L9 2L10 3L10 3L11 4L11 5L12 6L12 6L12 6L13 6L13 6L13 6L13 6L13 6L13 6L12 6L12 6L12 6L12 6L12 7L12 7L12 7L11 8L12 8L12 8L12 8L12 9L12 9L12 9L12 9L12 9L12 10L12 10L12 10L12 10L12 11L11 11L11 11L11 11L11 11L12 12L12 12L12 12L11 12L11 11L11 11L11 10L11 10L10 10L10 10L9 10L10 10L10 10L10 11L10 11L10 11L10 11L9 11L9 10L8 10L9 10L9 9L9 9L9 8L8 8L8 7L7 7L6 7L6 6L5 6L5 6L5 6L5 5L5 5L3 4L3 4L3 4L2 4L3 4L3 5L4 5L4 5L4 5L4 6L3 6L3 6L3 6L3 6L2 5L1 5L1 5L0 4L0 4L0 3L1 2L1 2L1 2L1 2L1 2L0 1L0 1L0 1L1 1L1 1L1 0L1 0L1 0L1 0L1 0L1 0L1 0L1 0L2 0L3 1L4 1L4 1L5 0L5 1L6 1L6 1L6 1L6 1L7 1L7 2L7 2L7 2L8 2L8 2L8 2L9 1L9 1Z"/></mask><path d="M9 1L9 1L9 2L9 2L10 3L10 3L11 4L11 5L12 6L12 6L12 6L13 6L13 6L13 6L13 6L13 6L13 6L12 6L12 6L12 6L12 6L12 7L12 7L12 7L11 8L12 8L12 8L12 8L12 9L12 9L12 9L12 9L12 9L12 10L12 10L12 10L12 10L12 11L11 11L11 11L11 11L11 11L12 12L12 12L12 12L11 12L11 11L11 11L11 10L11 10L10 10L10 10L9 10L10 10L10 10L10 11L10 11L10 11L10 11L9 11L9 10L8 10L9 10L9 9L9 9L9 8L8 8L8 7L7 7L6 7L6 6L5 6L5 6L5 6L5 5L5 5L3 4L3 4L3 4L2 4L3 4L3 5L4 5L4 5L4 5L4 6L3 6L3 6L3 6L3 6L2 5L1 5L1 5L0 4L0 4L0 3L1 2L1 2L1 2L1 2L1 2L0 1L0 1L0 1L1 1L1 1L1 0L1 0L1 0L1 0L1 0L1 0L1 0L1 0L2 0L3 1L4 1L4 1L5 0L5 1L6 1L6 1L6 1L6 1L7 1L7 2L7 2L7 2L8 2L8 2L8 2L9 1L9 1Z" fill="var(--fill-0,#71B219)" stroke="var(--stroke-0,white)" mask="url(#path-1-inside-1_0_191)"/></g></svg>