<svg preserveAspectRatio="none" width="100%" height="100%" overflow="visible" style="display: block;" viewBox="0 0 41.5102 13.7276" fill="none" xmlns="http://www.w3.org/2000/svg">
<g id="CU">
<mask id="path-1-inside-1_0_164" fill="white">
<path d="M11.787 0.119343L12.7981 0.312735L13.6152 0.257899L14.0059 0.14404L13.9702 0.26062L14.3292 0.547318L14.4599 0.56649L14.9882 0.421111L16.368 0.366232L16.5097 0.447189L16.7532 0.726981L17.1054 0.89982L17.4699 1.03151L17.851 1.06579L18.2307 1.00681L18.587 1.03561L19.0327 1.3072L19.173 1.33876L19.572 1.26467L19.4551 1.51432L20.1264 1.86272L20.6189 2.54856L20.9766 2.82977L21.3549 3.08214L21.6741 3.2536L22.0317 3.3359L23.1172 3.30296L23.3744 3.32355L23.6042 3.42096L23.8229 3.45934L23.9494 3.4223L26.046 4.48671L26.7132 5.05458L27.1204 5.34949L28.0022 5.7747L28.3558 5.868L28.5415 5.81174L28.5057 5.71848L28.2471 5.48256L28.2086 5.39612L28.5401 5.46883L29.1386 5.94892L29.3037 6.12586L29.6022 6.29045L29.9035 6.40842L29.7604 6.59771L29.5155 6.61416L29.0464 6.536L29.4192 6.8446L29.4825 7.06821L29.6558 7.08738L29.9145 6.84188L30.0782 6.63475L30.7371 7.16968L31.092 7.41385L31.0012 7.55651L30.9723 7.69778L31.3685 7.56609L31.5185 7.5812L31.663 7.65664L31.8212 7.88569L32.1912 7.93647L32.564 7.93099L33.3207 8.12028L34.0374 8.50572L34.7115 8.58388L35.3911 8.59761L35.735 8.80063L35.8809 9.07493L35.7157 9.26837L35.6222 9.46997L35.8753 9.71824L35.3237 9.82389L35.2453 9.97337L35.2742 10.1339L35.3842 10.2216L35.6992 10.1448L36.156 10.2134L36.8755 10.2738L37.357 10.2244L38.3364 10.3931L38.6336 10.4836L39.2141 10.8005L39.4824 11.009L40.0588 11.5714L40.5554 11.7922L40.9861 11.8457L41.136 11.8087L41.2722 11.8704L41.3919 11.9486L41.5102 12.1941L41.4441 12.452L41.1979 12.6619L41.0617 12.8141L40.4468 12.8319L39.587 12.9019L38.756 13.1296L38.3502 13.3107L38.1645 13.43L37.727 13.5411L37.6981 13.4464L37.7064 13.3271L37.5922 13.1063L37.4932 13.3052L37.3308 13.4505L37.057 13.574L36.0473 13.5822L35.6415 13.4149L35.2246 13.301L33.7059 13.1817L33.3413 13.1913L32.3274 13.3161L31.308 13.3834L30.8816 13.4602L30.4592 13.5754L29.6379 13.5713L28.6681 13.7029L27.6955 13.7276L28.3187 12.8045L29.6324 11.9143L29.8801 11.7222L30.0562 11.4767L30.0974 11.2915L30.0397 11.1338L29.726 10.854L29.6627 10.6469L29.5692 10.5124L29.1138 10.3959L28.6529 10.3259L28.1673 10.3245L27.1479 10.2285L26.6059 10.2216L26.1464 10.031L25.3843 9.35339L25.028 9.16271L24.845 9.01047L24.702 8.83491L24.5231 7.83634L24.3718 7.35625L24.1407 6.9379L23.7885 6.62102L23.4198 6.51269L22.0056 6.78428L21.6768 6.74313L21.3563 6.6512L19.2212 6.00242L18.3407 5.64577L17.9817 5.46883L17.6749 5.21646L17.3571 4.80221L17.0008 4.43188L17.0022 4.58136L16.9472 4.67876L15.1601 4.72263L14.8754 4.63762L14.6924 4.53611L14.5631 4.38658L14.4668 4.0862L14.2962 3.83382L14.2412 4.10265L14.1531 4.35092L13.9138 4.48947L13.64 4.51279L13.3085 4.1836L11.8599 4.115L11.7319 4.05878L11.2559 3.73918L10.8501 3.33862L11.2532 3.19734L12.0868 3.0122L12.2671 2.88875L12.3716 2.7296L12.296 2.49368L12.1295 2.32222L11.9589 2.22209L11.7704 2.15901L11.5214 2.13159L8.29818 2.08906L8.11247 2.21799L7.82356 2.47999L7.25127 2.81604L6.87433 3.16444L6.73264 3.34415L6.55656 3.47307L6.16035 3.6884L5.82193 4.02035L5.41199 4.16849L5.18773 4.07795L4.96625 4.07933L4.80529 4.16163L4.63608 4.19867L3.80929 4.23844L3.68548 4.3235L3.56718 4.5608L3.43235 5.02306L3.30579 5.17531L2.89171 5.23291L2.49689 5.35911L1.69348 5.79801L1.48575 5.86252L1.53116 5.54016L1.49125 5.22604L1.26427 5.21507L1.00564 5.26719L0.789655 5.35497L0.390692 5.58955L0.188482 5.64853L0 5.52919L0.0385192 5.37556L1.36881 4.81046L1.51739 4.76793L1.754 4.81046L1.98514 4.79124L2.16535 4.63213L1.94662 3.88318L2.03052 3.37295L2.33867 2.97787L2.95498 2.37848L3.25214 2.18094L6.29104 0.92862L6.60195 0.864156L8.57745 0.611782L8.87872 0.524002L9.79493 0.152244L10.7565 0L11.787 0.119343ZM21.392 2.19191L21.3989 2.30167L20.7234 1.99714L20.4332 1.6803L20.3162 1.60759L20.5061 1.60072L21.2668 2.12058L21.392 2.19191ZM24.1696 2.65555L24.6992 2.74333L24.8835 2.68983L25.0596 2.67476L25.2453 2.71177L25.5054 3.05607L25.277 3.0986H25.0954L24.962 3.03685L24.486 3.02178L24.1723 2.92165L24.0003 2.83525L23.9164 2.73098L24.1696 2.65555ZM26.4972 3.76111L26.4188 3.82968L26.2097 3.67605L25.9071 3.60887L25.7296 3.3688L25.559 3.27692L25.5452 3.18914L25.8259 3.1315L26.0213 3.15758L26.2386 3.34L26.3638 3.67743L26.4972 3.76111ZM27.0682 4.41404L26.9416 4.42501L26.5578 4.25355L26.4436 4.10951L26.5784 3.91612L26.6073 3.70623L26.6596 3.69255L26.7215 3.94764L27.0145 4.05602L27.0324 4.11227L27.2126 4.3276L27.0682 4.41404ZM27.8812 5.13826L27.723 5.26447L27.5497 5.08204L27.4396 5.06283L27.2869 4.99012L26.9911 4.7871L26.9196 4.57725L27.1658 4.5608L27.4767 4.59781L28.0201 4.71715L27.972 4.95445L27.8812 5.13826ZM8.99016 6.7047L8.6311 6.92279L7.86483 7.23004L7.45351 7.24101L7.03804 7.12581L6.75191 6.86929L6.5882 6.61554L6.60195 6.49348L6.86197 6.6965L7.0862 6.79662L7.27054 6.7294L7.40124 6.61968L6.98027 5.7994L6.99952 5.62656L7.33383 5.17531L8.24316 5.31248L8.40135 5.39202L8.52793 5.67733L8.73016 5.90091L8.96814 6.49896L8.99016 6.7047Z"/>
</mask>
<path d="M11.787 0.119343L12.7981 0.312735L13.6152 0.257899L14.0059 0.14404L13.9702 0.26062L14.3292 0.547318L14.4599 0.56649L14.9882 0.421111L16.368 0.366232L16.5097 0.447189L16.7532 0.726981L17.1054 0.89982L17.4699 1.03151L17.851 1.06579L18.2307 1.00681L18.587 1.03561L19.0327 1.3072L19.173 1.33876L19.572 1.26467L19.4551 1.51432L20.1264 1.86272L20.6189 2.54856L20.9766 2.82977L21.3549 3.08214L21.6741 3.2536L22.0317 3.3359L23.1172 3.30296L23.3744 3.32355L23.6042 3.42096L23.8229 3.45934L23.9494 3.4223L26.046 4.48671L26.7132 5.05458L27.1204 5.34949L28.0022 5.7747L28.3558 5.868L28.5415 5.81174L28.5057 5.71848L28.2471 5.48256L28.2086 5.39612L28.5401 5.46883L29.1386 5.94892L29.3037 6.12586L29.6022 6.29045L29.9035 6.40842L29.7604 6.59771L29.5155 6.61416L29.0464 6.536L29.4192 6.8446L29.4825 7.06821L29.6558 7.08738L29.9145 6.84188L30.0782 6.63475L30.7371 7.16968L31.092 7.41385L31.0012 7.55651L30.9723 7.69778L31.3685 7.56609L31.5185 7.5812L31.663 7.65664L31.8212 7.88569L32.1912 7.93647L32.564 7.93099L33.3207 8.12028L34.0374 8.50572L34.7115 8.58388L35.3911 8.59761L35.735 8.80063L35.8809 9.07493L35.7157 9.26837L35.6222 9.46997L35.8753 9.71824L35.3237 9.82389L35.2453 9.97337L35.2742 10.1339L35.3842 10.2216L35.6992 10.1448L36.156 10.2134L36.8755 10.2738L37.357 10.2244L38.3364 10.3931L38.6336 10.4836L39.2141 10.8005L39.4824 11.009L40.0588 11.5714L40.5554 11.7922L40.9861 11.8457L41.136 11.8087L41.2722 11.8704L41.3919 11.9486L41.5102 12.1941L41.4441 12.452L41.1979 12.6619L41.0617 12.8141L40.4468 12.8319L39.587 12.9019L38.756 13.1296L38.3502 13.3107L38.1645 13.43L37.727 13.5411L37.6981 13.4464L37.7064 13.3271L37.5922 13.1063L37.4932 13.3052L37.3308 13.4505L37.057 13.574L36.0473 13.5822L35.6415 13.4149L35.2246 13.301L33.7059 13.1817L33.3413 13.1913L32.3274 13.3161L31.308 13.3834L30.8816 13.4602L30.4592 13.5754L29.6379 13.5713L28.6681 13.7029L27.6955 13.7276L28.3187 12.8045L29.6324 11.9143L29.8801 11.7222L30.0562 11.4767L30.0974 11.2915L30.0397 11.1338L29.726 10.854L29.6627 10.6469L29.5692 10.5124L29.1138 10.3959L28.6529 10.3259L28.1673 10.3245L27.1479 10.2285L26.6059 10.2216L26.1464 10.031L25.3843 9.35339L25.028 9.16271L24.845 9.01047L24.702 8.83491L24.5231 7.83634L24.3718 7.35625L24.1407 6.9379L23.7885 6.62102L23.4198 6.51269L22.0056 6.78428L21.6768 6.74313L21.3563 6.6512L19.2212 6.00242L18.3407 5.64577L17.9817 5.46883L17.6749 5.21646L17.3571 4.80221L17.0008 4.43188L17.0022 4.58136L16.9472 4.67876L15.1601 4.72263L14.8754 4.63762L14.6924 4.53611L14.5631 4.38658L14.4668 4.0862L14.2962 3.83382L14.2412 4.10265L14.1531 4.35092L13.9138 4.48947L13.64 4.51279L13.3085 4.1836L11.8599 4.115L11.7319 4.05878L11.2559 3.73918L10.8501 3.33862L11.2532 3.19734L12.0868 3.0122L12.2671 2.88875L12.3716 2.7296L12.296 2.49368L12.1295 2.32222L11.9589 2.22209L11.7704 2.15901L11.5214 2.13159L8.29818 2.08906L8.11247 2.21799L7.82356 2.47999L7.25127 2.81604L6.87433 3.16444L6.73264 3.34415L6.55656 3.47307L6.16035 3.6884L5.82193 4.02035L5.41199 4.16849L5.18773 4.07795L4.96625 4.07933L4.80529 4.16163L4.63608 4.19867L3.80929 4.23844L3.68548 4.3235L3.56718 4.5608L3.43235 5.02306L3.30579 5.17531L2.89171 5.23291L2.49689 5.35911L1.69348 5.79801L1.48575 5.86252L1.53116 5.54016L1.49125 5.22604L1.26427 5.21507L1.00564 5.26719L0.789655 5.35497L0.390692 5.58955L0.188482 5.64853L0 5.52919L0.0385192 5.37556L1.36881 4.81046L1.51739 4.76793L1.754 4.81046L1.98514 4.79124L2.16535 4.63213L1.94662 3.88318L2.03052 3.37295L2.33867 2.97787L2.95498 2.37848L3.25214 2.18094L6.29104 0.92862L6.60195 0.864156L8.57745 0.611782L8.87872 0.524002L9.79493 0.152244L10.7565 0L11.787 0.119343ZM21.392 2.19191L21.3989 2.30167L20.7234 1.99714L20.4332 1.6803L20.3162 1.60759L20.5061 1.60072L21.2668 2.12058L21.392 2.19191ZM24.1696 2.65555L24.6992 2.74333L24.8835 2.68983L25.0596 2.67476L25.2453 2.71177L25.5054 3.05607L25.277 3.0986H25.0954L24.962 3.03685L24.486 3.02178L24.1723 2.92165L24.0003 2.83525L23.9164 2.73098L24.1696 2.65555ZM26.4972 3.76111L26.4188 3.82968L26.2097 3.67605L25.9071 3.60887L25.7296 3.3688L25.559 3.27692L25.5452 3.18914L25.8259 3.1315L26.0213 3.15758L26.2386 3.34L26.3638 3.67743L26.4972 3.76111ZM27.0682 4.41404L26.9416 4.42501L26.5578 4.25355L26.4436 4.10951L26.5784 3.91612L26.6073 3.70623L26.6596 3.69255L26.7215 3.94764L27.0145 4.05602L27.0324 4.11227L27.2126 4.3276L27.0682 4.41404ZM27.8812 5.13826L27.723 5.26447L27.5497 5.08204L27.4396 5.06283L27.2869 4.99012L26.9911 4.7871L26.9196 4.57725L27.1658 4.5608L27.4767 4.59781L28.0201 4.71715L27.972 4.95445L27.8812 5.13826ZM8.99016 6.7047L8.6311 6.92279L7.86483 7.23004L7.45351 7.24101L7.03804 7.12581L6.75191 6.86929L6.5882 6.61554L6.60195 6.49348L6.86197 6.6965L7.0862 6.79662L7.27054 6.7294L7.40124 6.61968L6.98027 5.7994L6.99952 5.62656L7.33383 5.17531L8.24316 5.31248L8.40135 5.39202L8.52793 5.67733L8.73016 5.90091L8.96814 6.49896L8.99016 6.7047Z" fill="var(--fill-0, #71B219)" stroke="var(--stroke-0, white)" mask="url(#path-1-inside-1_0_164)"/>
</g>
</svg>
