<svg preserveAspectRatio="none" width="100%" height="100%" overflow="visible" style="display: block;" viewBox="0 0 42 14" fill="none" xmlns="http://www.w3.org/2000/svg"><g id="CU"><mask id="path-1-inside-1_0_164" fill="white"><path d="M12 0L13 0L14 0L14 0L14 0L14 0L14 1L15 0L16 0L16 0L17 1L17 1L18 1L18 1L18 1L19 1L19 1L19 1L20 1L20 2L20 2L21 2L21 3L21 3L22 3L22 3L23 3L23 3L24 3L24 4L24 3L26 4L27 5L27 5L28 6L28 6L28 6L28 6L28 6L28 5L28 6L29 6L29 6L30 6L30 6L30 7L30 7L29 6L29 7L30 7L30 7L30 7L30 7L31 7L31 7L31 8L31 8L31 8L32 8L32 8L32 8L32 8L33 8L33 8L34 8L35 9L35 9L36 9L36 9L36 9L36 10L36 10L35 10L35 10L35 10L35 10L36 10L36 10L37 10L37 10L38 10L39 10L39 11L40 11L40 12L41 12L41 12L41 12L41 12L41 12L42 12L41 12L41 13L41 13L40 13L40 13L39 13L38 13L38 13L38 14L38 13L38 13L38 13L38 13L37 14L37 14L36 14L36 13L35 13L34 13L33 13L32 13L31 13L31 14L30 14L30 14L29 14L28 14L28 13L30 12L30 12L30 12L30 11L30 11L30 11L30 11L30 10L29 10L29 10L28 10L27 10L27 10L26 10L25 9L25 9L25 9L25 9L24 8L24 7L24 7L24 7L23 6L22 7L22 7L21 7L19 6L18 6L18 6L18 5L17 5L17 4L17 5L17 5L15 5L15 5L15 4L15 4L14 4L14 4L14 4L14 4L14 4L14 4L13 4L12 4L12 4L11 4L11 3L11 3L12 3L12 3L12 3L12 2L12 2L12 2L12 2L12 2L8 2L8 2L8 2L7 3L7 3L7 3L7 4L6 4L6 4L5 4L5 4L5 4L5 4L5 4L4 4L4 4L4 5L3 5L3 5L3 5L2 5L2 6L2 6L2 6L2 5L1 5L1 5L1 5L0 6L0 6L0 6L0 5L1 5L2 5L2 5L2 5L2 5L2 4L2 3L2 3L3 2L3 2L6 1L7 1L9 1L9 0L10 0L11 0L12 0ZM21 2L21 2L21 2L20 2L20 2L20 2L21 2L21 2ZM24 3L25 3L25 3L25 3L25 3L26 3L25 3H25L25 3L24 3L24 3L24 3L24 3L24 3ZM26 4L26 4L26 4L26 4L26 3L26 3L26 3L26 3L26 3L26 3L26 4L26 4ZM27 4L27 4L27 4L26 4L27 4L27 4L27 4L27 4L27 4L27 4L27 4L27 4ZM28 5L28 5L28 5L27 5L27 5L27 5L27 5L27 5L28 5L28 5L28 5L28 5ZM9 7L9 7L8 7L8 7L7 7L7 7L7 7L7 6L7 7L7 7L7 7L7 7L7 6L7 6L7 5L8 5L8 5L8 6L9 6L9 6L9 7Z"/></mask><path d="M12 0L13 0L14 0L14 0L14 0L14 0L14 1L15 0L16 0L16 0L17 1L17 1L18 1L18 1L18 1L19 1L19 1L19 1L20 1L20 2L20 2L21 2L21 3L21 3L22 3L22 3L23 3L23 3L24 3L24 4L24 3L26 4L27 5L27 5L28 6L28 6L28 6L28 6L28 6L28 5L28 6L29 6L29 6L30 6L30 6L30 7L30 7L29 6L29 7L30 7L30 7L30 7L30 7L31 7L31 7L31 8L31 8L31 8L32 8L32 8L32 8L32 8L33 8L33 8L34 8L35 9L35 9L36 9L36 9L36 9L36 10L36 10L35 10L35 10L35 10L35 10L36 10L36 10L37 10L37 10L38 10L39 10L39 11L40 11L40 12L41 12L41 12L41 12L41 12L41 12L42 12L41 12L41 13L41 13L40 13L40 13L39 13L38 13L38 13L38 14L38 13L38 13L38 13L38 13L37 14L37 14L36 14L36 13L35 13L34 13L33 13L32 13L31 13L31 14L30 14L30 14L29 14L28 14L28 13L30 12L30 12L30 12L30 11L30 11L30 11L30 11L30 10L29 10L29 10L28 10L27 10L27 10L26 10L25 9L25 9L25 9L25 9L24 8L24 7L24 7L24 7L23 6L22 7L22 7L21 7L19 6L18 6L18 6L18 5L17 5L17 4L17 5L17 5L15 5L15 5L15 4L15 4L14 4L14 4L14 4L14 4L14 4L14 4L13 4L12 4L12 4L11 4L11 3L11 3L12 3L12 3L12 3L12 2L12 2L12 2L12 2L12 2L8 2L8 2L8 2L7 3L7 3L7 3L7 4L6 4L6 4L5 4L5 4L5 4L5 4L5 4L4 4L4 4L4 5L3 5L3 5L3 5L2 5L2 6L2 6L2 6L2 5L1 5L1 5L1 5L0 6L0 6L0 6L0 5L1 5L2 5L2 5L2 5L2 5L2 4L2 3L2 3L3 2L3 2L6 1L7 1L9 1L9 0L10 0L11 0L12 0ZM21 2L21 2L21 2L20 2L20 2L20 2L21 2L21 2ZM24 3L25 3L25 3L25 3L25 3L26 3L25 3H25L25 3L24 3L24 3L24 3L24 3L24 3ZM26 4L26 4L26 4L26 4L26 3L26 3L26 3L26 3L26 3L26 3L26 4L26 4ZM27 4L27 4L27 4L26 4L27 4L27 4L27 4L27 4L27 4L27 4L27 4L27 4ZM28 5L28 5L28 5L27 5L27 5L27 5L27 5L27 5L28 5L28 5L28 5L28 5ZM9 7L9 7L8 7L8 7L7 7L7 7L7 7L7 6L7 7L7 7L7 7L7 7L7 6L7 6L7 5L8 5L8 5L8 6L9 6L9 6L9 7Z" fill="var(--fill-0,#71B219)" stroke="var(--stroke-0,white)" mask="url(#path-1-inside-1_0_164)"/></g></svg>