<svg preserveAspectRatio="none" width="100%" height="100%" overflow="visible" style="display: block;" viewBox="0 0 10 10" fill="none" xmlns="http://www.w3.org/2000/svg"><path id="CV" d="M4 9L4 9L4 9L4 9L4 9L4 9L4 9L4 9L4 9L4 9ZM7 8L7 8L7 8L7 8L7 9L7 9L7 9L6 9L6 8L6 8L6 8L7 8ZM8 8L8 8L8 8L8 8ZM10 4L10 4L10 4L10 4L10 5L10 5L10 4L10 4L10 4V4L10 4L10 4L10 4L10 4L10 4L10 4ZM1 0L1 0L1 0L1 1L0 1L0 1L0 1L0 1L0 1L1 0L1 0Z" fill="var(--fill-0,#71B219)" stroke="var(--stroke-0,white)" stroke-width="0"/></svg>