<svg preserveAspectRatio="none" width="100%" height="100%" overflow="visible" style="display: block;" viewBox="0 0 10.2682 9.4549" fill="none" xmlns="http://www.w3.org/2000/svg">
<path id="CV" d="M3.71484 8.8584L3.78027 9.03613L3.76367 9.1377L3.66797 9.18555L3.59668 9.16309L3.48438 9.0752L3.45312 9.00391L3.46094 8.98535L3.69531 8.85254L3.71484 8.8584ZM6.62988 8.28125L6.65723 8.30762L6.69043 8.32422L6.80371 8.37988L7.02441 8.70605L6.95898 8.80859L6.65234 8.79102L6.49023 8.69922L6.26074 8.3584L6.2666 8.12207L6.31543 7.98535L6.62988 8.28125ZM8.33984 7.91797L8.33594 7.91895L8.33887 7.90039L8.33984 7.91797ZM9.89844 4.125L9.99609 4.21777L10.0088 4.28809L9.95996 4.41504L9.68359 4.56445L9.58008 4.55273L9.50195 4.49707L9.59473 4.26758L9.61328 4.2207V4.16992L9.6123 4.13379L9.62402 4.13672L9.67773 4.14844L9.73145 4.1377L9.81738 4.11816L9.89844 4.125ZM1.0293 0.290039L1.08887 0.380859L1.0791 0.392578L0.55957 0.755859L0.34375 0.802734L0.322266 0.672852L0.318359 0.650391L0.310547 0.628906L0.285156 0.558594L0.90918 0.262695L1.0293 0.290039Z" fill="var(--fill-0, #71B219)" stroke="var(--stroke-0, white)" stroke-width="0.5"/>
</svg>
