<svg preserveAspectRatio="none" width="100%" height="100%" overflow="visible" style="display: block;" viewBox="0 0 1.57377 1.30992" fill="none" xmlns="http://www.w3.org/2000/svg">
<g id="CW">
<mask id="path-1-inside-1_0_190" fill="white">
<path d="M1.57377 1.2537L1.37292 1.30992L0.631422 0.932722L0.0192281 0.3196L0 0L0.156806 0.0274182L0.316383 0.149524L0.562654 0.582941L1.27938 0.868258L1.57377 1.2537Z"/>
</mask>
<path d="M1.57377 1.2537L1.37292 1.30992L0.631422 0.932722L0.0192281 0.3196L0 0L0.156806 0.0274182L0.316383 0.149524L0.562654 0.582941L1.27938 0.868258L1.57377 1.2537Z" fill="var(--fill-0, #71B219)"/>
<path d="M1.57377 1.2537L1.70854 1.7352L2.41882 1.53639L1.97113 0.950219L1.57377 1.2537ZM1.37292 1.30992L1.14622 1.75557L1.31997 1.84396L1.5077 1.79142L1.37292 1.30992ZM0.631422 0.932722L0.277601 1.28601L0.333812 1.3423L0.40472 1.37837L0.631422 0.932722ZM0.0192281 0.3196L-0.479869 0.349627L-0.468489 0.538787L-0.334593 0.672886L0.0192281 0.3196ZM0 0L0.0861207 -0.492527L-0.537092 -0.601499L-0.499098 0.0300272L0 0ZM0.156806 0.0274182L0.46065 -0.369669L0.363467 -0.444032L0.242927 -0.465109L0.156806 0.0274182ZM0.316383 0.149524L0.751106 -0.0974899L0.700914 -0.185824L0.620227 -0.247564L0.316383 0.149524ZM0.562654 0.582941L0.127931 0.829954L0.214646 0.982566L0.377727 1.04749L0.562654 0.582941ZM1.27938 0.868258L1.67675 0.564773L1.5928 0.454863L1.46431 0.403713L1.27938 0.868258ZM1.57377 1.2537L1.439 0.77221L1.23815 0.828428L1.37292 1.30992L1.5077 1.79142L1.70854 1.7352L1.57377 1.2537ZM1.37292 1.30992L1.59962 0.864269L0.858124 0.48707L0.631422 0.932722L0.40472 1.37837L1.14622 1.75557L1.37292 1.30992ZM0.631422 0.932722L0.985243 0.579437L0.373049 -0.0336852L0.0192281 0.3196L-0.334593 0.672886L0.277601 1.28601L0.631422 0.932722ZM0.0192281 0.3196L0.518326 0.289573L0.499098 -0.0300272L0 0L-0.499098 0.0300272L-0.479869 0.349627L0.0192281 0.3196ZM0 0L-0.0861207 0.492527L0.0706852 0.519946L0.156806 0.0274182L0.242927 -0.465109L0.0861207 -0.492527L0 0ZM0.156806 0.0274182L-0.147039 0.424506L0.0125382 0.546611L0.316383 0.149524L0.620227 -0.247564L0.46065 -0.369669L0.156806 0.0274182ZM0.316383 0.149524L-0.118341 0.396537L0.127931 0.829954L0.562654 0.582941L0.997377 0.335927L0.751106 -0.0974899L0.316383 0.149524ZM0.562654 0.582941L0.377727 1.04749L1.09446 1.3328L1.27938 0.868258L1.46431 0.403713L0.747581 0.118396L0.562654 0.582941ZM1.27938 0.868258L0.882022 1.17174L1.17641 1.55719L1.57377 1.2537L1.97113 0.950219L1.67675 0.564773L1.27938 0.868258Z" fill="var(--stroke-0, white)" mask="url(#path-1-inside-1_0_190)"/>
</g>
</svg>
