<svg preserveAspectRatio="none" width="100%" height="100%" overflow="visible" style="display: block;" viewBox="0 0 0.543887 0.520466" fill="none" xmlns="http://www.w3.org/2000/svg">
<g id="CX">
<mask id="path-1-inside-1_0_184" fill="white">
<path d="M0.543887 0.243071L0.433986 0.520466L0.232124 0.368044L0 0.318591L0.0453519 0.112609L0.236232 0.0837758L0.33096 0.0727957L0.466931 0L0.543887 0.243071Z"/>
</mask>
<path d="M0.543887 0.243071L0.433986 0.520466L0.232124 0.368044L0 0.318591L0.0453519 0.112609L0.236232 0.0837758L0.33096 0.0727957L0.466931 0L0.543887 0.243071Z" fill="var(--fill-0, #71B219)"/>
<path d="M0.543887 0.243071L1.00873 0.427238L1.07428 0.261803L1.02057 0.0921558L0.543887 0.243071ZM0.433986 0.520466L0.13269 0.91949L0.656891 1.31531L0.898833 0.704633L0.433986 0.520466ZM0.232124 0.368044L0.533421 -0.0309807L0.444853 -0.0978571L0.336308 -0.120982L0.232124 0.368044ZM0 0.318591L-0.488304 0.211079L-0.596551 0.702721L-0.104183 0.807617L0 0.318591ZM0.0453519 0.112609L-0.0293282 -0.381782L-0.369071 -0.330463L-0.442953 0.00509725L0.0453519 0.112609ZM0.236232 0.0837758L0.178661 -0.412899L0.170087 -0.411905L0.161552 -0.410616L0.236232 0.0837758ZM0.33096 0.0727957L0.38853 0.56947L0.483059 0.558513L0.566954 0.513598L0.33096 0.0727957ZM0.466931 0L0.943612 -0.150916L0.761847 -0.725037L0.230937 -0.440802L0.466931 0ZM0.543887 0.243071L0.0790402 0.0589043L-0.0308605 0.336299L0.433986 0.520466L0.898833 0.704633L1.00873 0.427238L0.543887 0.243071ZM0.433986 0.520466L0.735283 0.121442L0.533421 -0.0309807L0.232124 0.368044L-0.0691722 0.767068L0.13269 0.91949L0.433986 0.520466ZM0.232124 0.368044L0.336308 -0.120982L0.104183 -0.170434L0 0.318591L-0.104183 0.807617L0.127941 0.857069L0.232124 0.368044ZM0 0.318591L0.488304 0.426103L0.533656 0.220121L0.0453519 0.112609L-0.442953 0.00509725L-0.488304 0.211079L0 0.318591ZM0.0453519 0.112609L0.120032 0.607001L0.310912 0.578167L0.236232 0.0837758L0.161552 -0.410616L-0.0293282 -0.381782L0.0453519 0.112609ZM0.236232 0.0837758L0.293803 0.58045L0.38853 0.56947L0.33096 0.0727957L0.273389 -0.423879L0.178661 -0.412899L0.236232 0.0837758ZM0.33096 0.0727957L0.566954 0.513598L0.702925 0.440802L0.466931 0L0.230937 -0.440802L0.0949655 -0.368007L0.33096 0.0727957ZM0.466931 0L-0.00974943 0.150916L0.0672062 0.393987L0.543887 0.243071L1.02057 0.0921558L0.943612 -0.150916L0.466931 0Z" fill="var(--stroke-0, white)" mask="url(#path-1-inside-1_0_184)"/>
</g>
</svg>
