<svg preserveAspectRatio="none" width="100%" height="100%" overflow="visible" style="display: block;" viewBox="0 0 8.70682 5.11771" fill="none" xmlns="http://www.w3.org/2000/svg">
<path id="CY" d="M6.19141 1.53613L6.12207 1.58496L6.09668 1.66699L5.96582 2.08789L5.94238 2.16113L5.96582 2.23535L6.05469 2.52637L6.06934 2.57227L6.09863 2.60938L6.38281 2.96191L6.39355 2.97461L6.28613 2.99414L5.88477 3.01855L5.66504 2.9873L5.63867 2.9834L5.61133 2.98535L5.38086 3.00195L5.28223 3.00879L5.21582 3.08008L4.52148 3.82227L4.18848 4.04688L3.77539 4.18555L3.35059 4.26953L3.13184 4.28223L3.08301 4.28516L3.03906 4.30566L2.83301 4.40137L2.78125 4.42578L2.74512 4.46973L2.60059 4.64648L2.58105 4.66992L2.57227 4.64746L2.50488 4.60254L2.32324 4.4834L2.24512 4.43262L2.15234 4.44434L1.72461 4.50293L1.56152 4.49707L0.892578 4.25391L0.74707 4.18164L0.65332 4.02441L0.305664 3.26367L0.291992 3.12695L0.361328 3.1582L0.472656 3.09375L0.796875 2.9043L0.824219 2.88867L0.84668 2.86621L1.11816 2.59668L1.36719 2.5127L1.53125 2.55176L1.7627 2.60645L1.82031 2.62012L1.87793 2.60645L2.29297 2.50781L2.4209 2.47754L2.46875 2.35547L2.64746 1.89746L2.65918 1.86719L2.66309 1.83398L2.69043 1.58203L3.12305 1.6748L3.13477 1.67773L3.14746 1.67871L3.86035 1.75781H3.86816L3.87695 1.75879L4.45801 1.78516L4.48242 1.78613L4.50586 1.78223L5.08105 1.69727L5.10156 1.69434L5.12109 1.6875L6.68848 1.18457L6.19141 1.53613Z" fill="var(--fill-0, #71B219)" stroke="var(--stroke-0, white)" stroke-width="0.5"/>
</svg>
