<svg preserveAspectRatio="none" width="100%" height="100%" overflow="visible" style="display: block;" viewBox="0 0 9 5" fill="none" xmlns="http://www.w3.org/2000/svg"><path id="CY" d="M6 2L6 2L6 2L6 2L6 2L6 2L6 2L6 3L6 3L6 3L6 3L6 3L6 3L6 3L6 3L6 3L5 3L5 3L5 3L4 4L4 4L4 4L3 4L3 4L3 4L3 4L3 4L3 4L3 4L3 5L3 5L3 5L2 5L2 4L2 4L2 4L2 4L2 4L1 4L1 4L1 4L0 3L0 3L0 3L0 3L1 3L1 3L1 3L1 3L1 2L2 3L2 3L2 3L2 3L2 2L2 2L2 2L3 2L3 2L3 2L3 2L3 2L3 2L3 2L4 2H4L4 2L4 2L4 2L4 2L5 2L5 2L5 2L7 1L6 2Z" fill="var(--fill-0,#71B219)" stroke="var(--stroke-0,white)" stroke-width="0"/></svg>