<svg preserveAspectRatio="none" width="100%" height="100%" overflow="visible" style="display: block;" viewBox="0 0 26 15" fill="none" xmlns="http://www.w3.org/2000/svg"><g id="CZ"><mask id="path-1-inside-1_0_127" fill="white"><path d="M10 1L11 1L11 1L11 1L11 0L11 0L12 0L12 0L12 1L12 1L13 1L13 2L13 2L14 2L14 2L14 2L15 2L15 2L15 2L15 3L15 2L16 2L16 2L17 3L17 3L17 3L17 3L16 3L16 3L16 4L16 4L16 4L16 4L16 4L16 4L17 5L17 6L18 6L18 6L18 6L18 5L18 5L19 5L19 5L19 5L19 4L18 4L18 4L19 4L20 4L21 5H21L21 5L22 5L22 4L22 4L22 5L22 5L21 5L21 5L21 6L22 6L22 6L22 6L22 6L22 6L23 6L23 6L23 6L23 6L23 6L23 6L24 6L24 7L24 7L24 7L25 7L25 7L25 7L25 7L25 8L26 9L26 9L26 9L26 9L26 9L25 9L25 9L25 9L25 10L24 10L24 10L24 10L23 11L23 11L23 11L23 12L23 12L23 12L23 12L22 12L22 12L22 13L22 13L21 13L21 13L20 13L20 13L20 13L19 14L19 14L19 14L19 14L18 14L18 14L18 14L18 14L17 14L17 13L17 13L17 14L16 14L16 14L15 14L14 13L14 13L14 13L14 13L13 12L12 12L12 12L12 12L12 12L12 12L12 12L11 12L11 12L11 13L11 14L10 14L10 14L10 14L10 14L10 14L9 14L9 14L9 15L8 15L8 14L7 14L7 14L7 14L7 14L6 13L6 13L6 12L5 12L5 12L5 12L5 12L5 12L4 12L4 11L4 11L3 10L3 10L2 10L2 10L2 10L2 9L2 8L1 8L1 8L1 8L1 8L2 7L2 7L2 7L2 7L1 6L1 6L1 6L0 6L0 5L0 5L0 5L0 5V4L0 4H0L0 4L0 5L1 5L1 5L1 5L1 4L2 4L2 4L2 4L3 4L3 4L3 4L3 4L4 4L4 3L4 3L4 3L5 3L5 3L5 3L5 2L5 3L5 3L5 3L6 2L6 2L6 2L7 2L7 1L8 1L8 1L9 1L9 1L8 0L8 0L8 0L8 0L9 0L9 0L9 0L10 0L10 0L10 1L10 1L10 1L10 1L10 1L10 1L10 1L10 1Z"/></mask><path d="M10 1L11 1L11 1L11 1L11 0L11 0L12 0L12 0L12 1L12 1L13 1L13 2L13 2L14 2L14 2L14 2L15 2L15 2L15 2L15 3L15 2L16 2L16 2L17 3L17 3L17 3L17 3L16 3L16 3L16 4L16 4L16 4L16 4L16 4L16 4L17 5L17 6L18 6L18 6L18 6L18 5L18 5L19 5L19 5L19 5L19 4L18 4L18 4L19 4L20 4L21 5H21L21 5L22 5L22 4L22 4L22 5L22 5L21 5L21 5L21 6L22 6L22 6L22 6L22 6L22 6L23 6L23 6L23 6L23 6L23 6L23 6L24 6L24 7L24 7L24 7L25 7L25 7L25 7L25 7L25 8L26 9L26 9L26 9L26 9L26 9L25 9L25 9L25 9L25 10L24 10L24 10L24 10L23 11L23 11L23 11L23 12L23 12L23 12L23 12L22 12L22 12L22 13L22 13L21 13L21 13L20 13L20 13L20 13L19 14L19 14L19 14L19 14L18 14L18 14L18 14L18 14L17 14L17 13L17 13L17 14L16 14L16 14L15 14L14 13L14 13L14 13L14 13L13 12L12 12L12 12L12 12L12 12L12 12L12 12L11 12L11 12L11 13L11 14L10 14L10 14L10 14L10 14L10 14L9 14L9 14L9 15L8 15L8 14L7 14L7 14L7 14L7 14L6 13L6 13L6 12L5 12L5 12L5 12L5 12L5 12L4 12L4 11L4 11L3 10L3 10L2 10L2 10L2 10L2 9L2 8L1 8L1 8L1 8L1 8L2 7L2 7L2 7L2 7L1 6L1 6L1 6L0 6L0 5L0 5L0 5L0 5V4L0 4H0L0 4L0 5L1 5L1 5L1 5L1 4L2 4L2 4L2 4L3 4L3 4L3 4L3 4L4 4L4 3L4 3L4 3L5 3L5 3L5 3L5 2L5 3L5 3L5 3L6 2L6 2L6 2L7 2L7 1L8 1L8 1L9 1L9 1L8 0L8 0L8 0L8 0L9 0L9 0L9 0L10 0L10 0L10 1L10 1L10 1L10 1L10 1L10 1L10 1L10 1Z" fill="var(--fill-0,#71B219)" stroke="var(--stroke-0,white)" mask="url(#path-1-inside-1_0_127)"/></g></svg>