<svg preserveAspectRatio="none" width="100%" height="100%" overflow="visible" style="display: block;" viewBox="0 0 26.0323 14.6466" fill="none" xmlns="http://www.w3.org/2000/svg">
<g id="CZ">
<mask id="path-1-inside-1_0_127" fill="white">
<path d="M10.5007 1.08911L10.8336 1.074L11.1707 0.921755L11.1981 0.673484L11.1761 0.209844L11.2119 0.142659L11.7223 0.274308L12.2341 0.482812L12.3056 0.94369L12.4432 1.17003L12.6055 1.37715L12.7595 1.47041L13.0278 1.48548L13.7225 1.75845L14.0568 1.81333L14.3994 2.00262L14.6883 2.19467L14.8987 2.23582L14.9965 2.44566L15.1258 2.5897L15.3542 2.47861L16.1878 2.3236L16.4877 2.53072L16.6899 2.7502L16.7174 2.81876L16.6116 3.01215L16.5606 3.16168L16.4739 3.26181L16.1878 3.36742L16.0268 3.5375L15.9085 3.72407L15.9884 3.90239L16.2222 4.0368L16.3873 4.06698L16.4506 4.19729L16.9802 4.77885L17.4012 5.53739L17.5649 5.65536L17.719 5.68416L17.8978 5.57306L18.1041 5.32617L18.3476 5.14923L18.554 5.0573L18.9185 4.84746L18.9337 4.71167L18.6282 4.19729L18.4536 3.78028L18.4948 3.70485L18.8842 3.7707L19.5445 3.99837L20.5611 4.74047H20.7441L21.099 4.68421L21.4856 4.56352L21.6699 4.42635L21.7388 4.47713L21.7979 4.88451L21.6961 5.10808L21.2339 5.32479L21.26 5.43178L21.3796 5.57034L21.5874 5.6636L21.8405 5.92694L22.0152 6.22733L22.1679 6.36589L22.3357 6.43173L22.7568 6.27124L22.8751 6.14503L22.9287 6.05587L23.0098 6.07509L23.1571 6.22323L23.2024 6.30967L23.611 6.47698L23.8476 6.68272L23.9976 6.77875L24.1641 6.68549L24.8121 6.8487L24.9908 6.98587L25.0472 7.21359L25.0156 7.3521L25.1147 7.70875L25.9346 8.56328L26.0199 8.9995L26.0323 9.17368L25.9346 9.18193L25.7131 9.27243L25.4297 9.30537L25.1229 9.28754L24.8835 9.44527L24.658 9.70317L24.4241 9.88145L24.2989 10.0392L24.2273 10.2038L23.4405 10.6674L23.3304 10.8608L23.2438 11.1242L23.2066 11.4781L23.1516 11.7963L23.0154 11.9636L22.5902 12.1077L22.4844 12.1845L22.4046 12.3464L22.1666 12.5946L21.8873 12.8306L21.3728 13.1008L20.8212 13.1831L20.1044 13.0953L19.6848 12.9897L19.4826 13.1063L19.202 13.4574L18.9021 14.0609L18.7769 14.515L18.6806 14.386L18.5086 13.9059L18.3146 13.8442L18.0491 13.7989L17.8496 13.7276L17.4177 13.4505L17.1962 13.3669L16.9417 13.3449L16.6996 13.5081L16.5152 13.7002L15.9443 13.6974L15.3184 13.6083L14.4228 12.9691L14.1903 12.9636L13.9427 12.9924L13.5506 12.8401L12.7926 12.4259L12.4363 12.3285L12.212 12.3875L12.007 12.4808L11.8599 12.4917L11.776 12.356L11.4939 12.19L11.2105 12.1708L11.1294 12.2709L11.033 13.1831L10.9382 13.5122L10.5488 13.4972L10.4099 13.6508L10.1045 14.0911L10.0454 14.5122L9.51427 14.4313L9.26255 14.36L9.0397 14.4135L8.79486 14.6466L8.10835 14.6329L7.56493 14.4944L7.33243 13.9718L7.08347 13.7633L6.76977 13.5795L6.66112 13.5369L6.48782 13.2516L6.15901 12.8977L5.62935 12.4122L5.21666 12.4369L5.06393 12.3079L4.9965 12.1296L4.82454 11.821L4.62924 11.607L4.39396 11.5234L4.05693 11.249L3.6057 10.651L3.193 10.2367L2.79404 10.2436L2.54231 10.0269L2.28366 9.74155L2.09381 9.46586L1.79943 8.79372L1.58481 8.40965L1.41835 8.17235L1.22989 7.97485L1.16112 7.81713L1.39223 7.45772L1.47612 7.27944L1.5752 7.14226L1.63296 6.99684L1.63019 6.88851L1.42112 6.53186L1.13773 6.274L0.720887 6.01338L0.455388 5.68282L0.359079 5.38105L0.330195 5.21369L0.147234 4.98874L0 4.65817V4.45929L0.0371548 4.40303H0.174733L0.32881 4.53883L0.546155 4.79945L0.725001 5.18075L0.833695 5.03537L1.03866 4.62937L1.40185 4.16983L1.77327 3.90649L2.10758 3.88456L2.38135 3.81185L2.60835 3.68015L3.00589 3.73365L3.29343 3.8283L3.38696 3.76932L3.50393 3.52929L3.5782 3.32217L4.21377 3.20144L4.43251 2.80093L4.55493 2.80231L4.69666 2.74333L4.83143 2.59109L4.96073 2.52796L5.06393 2.60477L5.19878 2.65417L5.33908 2.55814L5.54816 2.09726L5.66378 2.02594L6.22232 1.95461L6.98439 1.68302L7.36962 1.44161L7.74789 1.30992L8.15512 1.07538L8.80031 0.847663L8.83063 0.754399L8.53204 0.519858L8.43162 0.371716L8.36285 0.219471L8.46882 0.0507342L8.61047 0L8.79343 0.0699479L9.33408 0.170077L9.4827 0.267485L9.53636 0.504747L9.67389 0.725599L9.78397 0.750297L9.74409 1.10966L9.91605 1.24956L10.1691 1.35794L10.3356 1.336L10.4553 1.19058L10.5007 1.08911Z"/>
</mask>
<path d="M10.5007 1.08911L10.8336 1.074L11.1707 0.921755L11.1981 0.673484L11.1761 0.209844L11.2119 0.142659L11.7223 0.274308L12.2341 0.482812L12.3056 0.94369L12.4432 1.17003L12.6055 1.37715L12.7595 1.47041L13.0278 1.48548L13.7225 1.75845L14.0568 1.81333L14.3994 2.00262L14.6883 2.19467L14.8987 2.23582L14.9965 2.44566L15.1258 2.5897L15.3542 2.47861L16.1878 2.3236L16.4877 2.53072L16.6899 2.7502L16.7174 2.81876L16.6116 3.01215L16.5606 3.16168L16.4739 3.26181L16.1878 3.36742L16.0268 3.5375L15.9085 3.72407L15.9884 3.90239L16.2222 4.0368L16.3873 4.06698L16.4506 4.19729L16.9802 4.77885L17.4012 5.53739L17.5649 5.65536L17.719 5.68416L17.8978 5.57306L18.1041 5.32617L18.3476 5.14923L18.554 5.0573L18.9185 4.84746L18.9337 4.71167L18.6282 4.19729L18.4536 3.78028L18.4948 3.70485L18.8842 3.7707L19.5445 3.99837L20.5611 4.74047H20.7441L21.099 4.68421L21.4856 4.56352L21.6699 4.42635L21.7388 4.47713L21.7979 4.88451L21.6961 5.10808L21.2339 5.32479L21.26 5.43178L21.3796 5.57034L21.5874 5.6636L21.8405 5.92694L22.0152 6.22733L22.1679 6.36589L22.3357 6.43173L22.7568 6.27124L22.8751 6.14503L22.9287 6.05587L23.0098 6.07509L23.1571 6.22323L23.2024 6.30967L23.611 6.47698L23.8476 6.68272L23.9976 6.77875L24.1641 6.68549L24.8121 6.8487L24.9908 6.98587L25.0472 7.21359L25.0156 7.3521L25.1147 7.70875L25.9346 8.56328L26.0199 8.9995L26.0323 9.17368L25.9346 9.18193L25.7131 9.27243L25.4297 9.30537L25.1229 9.28754L24.8835 9.44527L24.658 9.70317L24.4241 9.88145L24.2989 10.0392L24.2273 10.2038L23.4405 10.6674L23.3304 10.8608L23.2438 11.1242L23.2066 11.4781L23.1516 11.7963L23.0154 11.9636L22.5902 12.1077L22.4844 12.1845L22.4046 12.3464L22.1666 12.5946L21.8873 12.8306L21.3728 13.1008L20.8212 13.1831L20.1044 13.0953L19.6848 12.9897L19.4826 13.1063L19.202 13.4574L18.9021 14.0609L18.7769 14.515L18.6806 14.386L18.5086 13.9059L18.3146 13.8442L18.0491 13.7989L17.8496 13.7276L17.4177 13.4505L17.1962 13.3669L16.9417 13.3449L16.6996 13.5081L16.5152 13.7002L15.9443 13.6974L15.3184 13.6083L14.4228 12.9691L14.1903 12.9636L13.9427 12.9924L13.5506 12.8401L12.7926 12.4259L12.4363 12.3285L12.212 12.3875L12.007 12.4808L11.8599 12.4917L11.776 12.356L11.4939 12.19L11.2105 12.1708L11.1294 12.2709L11.033 13.1831L10.9382 13.5122L10.5488 13.4972L10.4099 13.6508L10.1045 14.0911L10.0454 14.5122L9.51427 14.4313L9.26255 14.36L9.0397 14.4135L8.79486 14.6466L8.10835 14.6329L7.56493 14.4944L7.33243 13.9718L7.08347 13.7633L6.76977 13.5795L6.66112 13.5369L6.48782 13.2516L6.15901 12.8977L5.62935 12.4122L5.21666 12.4369L5.06393 12.3079L4.9965 12.1296L4.82454 11.821L4.62924 11.607L4.39396 11.5234L4.05693 11.249L3.6057 10.651L3.193 10.2367L2.79404 10.2436L2.54231 10.0269L2.28366 9.74155L2.09381 9.46586L1.79943 8.79372L1.58481 8.40965L1.41835 8.17235L1.22989 7.97485L1.16112 7.81713L1.39223 7.45772L1.47612 7.27944L1.5752 7.14226L1.63296 6.99684L1.63019 6.88851L1.42112 6.53186L1.13773 6.274L0.720887 6.01338L0.455388 5.68282L0.359079 5.38105L0.330195 5.21369L0.147234 4.98874L0 4.65817V4.45929L0.0371548 4.40303H0.174733L0.32881 4.53883L0.546155 4.79945L0.725001 5.18075L0.833695 5.03537L1.03866 4.62937L1.40185 4.16983L1.77327 3.90649L2.10758 3.88456L2.38135 3.81185L2.60835 3.68015L3.00589 3.73365L3.29343 3.8283L3.38696 3.76932L3.50393 3.52929L3.5782 3.32217L4.21377 3.20144L4.43251 2.80093L4.55493 2.80231L4.69666 2.74333L4.83143 2.59109L4.96073 2.52796L5.06393 2.60477L5.19878 2.65417L5.33908 2.55814L5.54816 2.09726L5.66378 2.02594L6.22232 1.95461L6.98439 1.68302L7.36962 1.44161L7.74789 1.30992L8.15512 1.07538L8.80031 0.847663L8.83063 0.754399L8.53204 0.519858L8.43162 0.371716L8.36285 0.219471L8.46882 0.0507342L8.61047 0L8.79343 0.0699479L9.33408 0.170077L9.4827 0.267485L9.53636 0.504747L9.67389 0.725599L9.78397 0.750297L9.74409 1.10966L9.91605 1.24956L10.1691 1.35794L10.3356 1.336L10.4553 1.19058L10.5007 1.08911Z" fill="var(--fill-0, #71B219)" stroke="var(--stroke-0, white)" mask="url(#path-1-inside-1_0_127)"/>
</g>
</svg>
