<svg preserveAspectRatio="none" width="100%" height="100%" overflow="visible" style="display: block;" viewBox="0 0 35.3677 47.7847" fill="none" xmlns="http://www.w3.org/2000/svg">
<g id="DE">
<mask id="path-1-inside-1_0_188" fill="white">
<path d="M9.45928 1.81743L9.36985 1.94912L9.41251 1.00677L9.83485 0L10.0137 0.023316L9.8307 0.296243L9.77704 0.486914L9.70278 0.866877L9.73578 1.06441L10.7002 1.11925L10.5874 1.29485L9.60924 1.41281L9.45928 1.81743ZM14.9882 1.56096L15.0116 1.68302L15.577 1.85996L15.815 2.14252L16.0791 2.57049L16.1052 3.18499L15.7668 3.62666L15.4862 3.90649L16.5469 3.80088L16.6528 4.05325L16.8137 4.32622L17.3846 4.13145L18.8181 4.93662L19.6848 4.54431L19.9063 4.52099L20.103 5.17116L19.887 5.82409L19.1235 6.51813L19.2927 6.94611L19.5376 7.04075L20.2571 6.95021L21.3976 7.37132L21.6355 7.23963L22.56 6.26714L22.9301 6.05725L24.1462 5.90773L24.3677 5.52915L24.8602 5.14923L25.1766 4.7336L25.9373 3.93939L26.7242 4.08205L27.1837 4.2343L27.6872 4.31111L28.1453 5.15743L29.3064 6.08882L30.3725 6.00786L30.7509 6.88713L30.9187 7.96799L31.2461 8.3068L31.5337 8.52762L32.4017 8.75805L32.4361 8.77178L32.465 8.91716L32.5187 9.45213L32.5916 9.8938L33.0387 11.6523L33.0304 12.0802L33.0249 12.1941L32.8612 12.7935L32.5709 13.2969L32.1871 13.5809L31.9753 13.8963L31.9367 14.2434L32.4196 14.851L33.4253 15.7193L33.8311 16.46L33.6398 17.0745L33.582 17.5244L33.6563 17.8097L33.8173 18.0388L34.0649 18.2116L34.164 18.4777L34.1131 18.8371L34.1599 19.0867L34.3455 19.2636L34.3276 19.3322L34.2383 19.5819L34.1158 20.0359L34.0457 20.3679L33.7623 20.8178L33.8489 21.2004L34.0704 21.6504L34.2396 21.8767L34.2933 22.0906L34.186 22.5982L34.2396 22.7285L34.9398 23.1016L35.054 23.273L35.1214 23.631L35.3677 24.395L35.1641 25.3607L34.9853 25.8888L34.5863 26.7242L34.567 26.801L34.5217 26.9024L34.4019 27.0479L34.2355 27.0698L33.9837 26.9614L33.8117 26.8215L33.8517 26.4622L33.7403 26.4375L33.6027 26.2166L33.549 25.9793L33.4005 25.8819L32.8598 25.7818L32.6754 25.7119L32.5338 25.7626L32.4278 25.9313L32.4953 26.0836L32.5957 26.2317L32.8956 26.4663L32.8653 26.5595L32.2188 26.7886L31.8129 27.0218L31.4346 27.1535L31.0494 27.3949L30.2886 27.6665L29.7301 27.7378L29.6146 27.8091L29.4068 28.2686L29.2665 28.3646L29.1303 28.3153L29.0285 28.2398L28.8992 28.3016L28.7644 28.4538L28.6227 28.5128L28.5003 28.5114L28.2815 28.9119L27.6459 29.0326L27.5716 29.2398L27.4547 29.4798L27.3612 29.5388L27.075 29.4441L26.6774 29.3907L26.4491 29.5223L26.1753 29.595L25.841 29.617L25.4682 29.879L25.105 30.3385L24.9014 30.7445L24.7914 30.8899L24.6139 30.5085L24.3966 30.248L24.2425 30.1121H24.1049L24.0691 30.1684V30.3673L24.2163 30.6978L24.3979 30.9242L24.4268 31.0915L24.5245 31.3933L24.79 31.7239L25.2054 31.9845L25.4889 32.2423L25.6993 32.599L25.7007 32.7087L25.6429 32.8541L25.5439 32.9913L25.4599 33.1696L25.2288 33.529L25.2976 33.6867L25.4861 33.8842L25.6526 34.1215L25.8672 34.5056L26.1616 35.1777L26.3514 35.4534L26.6101 35.7387L26.8632 35.9554L27.2621 35.9486L27.6748 36.3628L28.1261 36.9609L28.4631 37.2338L28.6983 37.3175L28.8937 37.5328L29.0657 37.8415L29.1331 38.0198L29.2857 38.1487L29.6984 38.124L30.2295 38.6096L30.5569 38.9635L30.7302 39.2488L30.6849 39.3627L30.6629 39.7179L30.6683 40.0937L30.616 40.2927L30.3794 40.5546L30.257 40.6109L30.191 40.6671L29.4633 40.3256L29.4055 40.3832L29.3601 40.4257L29.1647 41.4119L29.0312 41.6012L28.8304 41.7754L28.4149 41.9455L28.1261 42.0141L27.9004 42.1005L27.1864 42.512L26.8659 42.7589L26.6582 43.0689L26.6568 43.2472L27.0035 43.7698L27.4038 44.3103L27.4052 44.7835L27.2291 45.1374L27.1878 45.2732L27.3061 45.3253L27.5276 45.3445L27.7133 45.4048L27.7917 45.6545L27.7684 46.0866L27.7051 46.4912L27.6391 46.6613L27.4602 46.675L27.1163 46.5008L26.848 46.2978L26.7449 46.173L26.7394 46.0235L26.7971 45.9288L26.7022 45.745L26.3721 45.5735L26.0185 45.6476L25.7585 45.7615L25.5893 45.7546L25.4077 45.59L25.1271 45.4638L24.7611 45.3802L24.5327 45.2924L24.4846 45.3445L24.5107 45.6998L24.4406 45.8548L22.6302 46.0605L22.0785 46.2526L21.6768 46.5008L21.3797 46.6078L21.3067 46.7601L21.0124 46.9603L20.6808 47.0234L20.5996 46.9589L20.3864 47.0509L20.0232 47.14L19.788 47.1112L19.6766 46.9494L19.4523 46.7011L19.3615 46.5296L19.3711 46.4185L18.8635 46.3966L18.5444 46.2649L17.8647 46.295L17.6969 46.2388L17.6625 46.2978L17.5607 47.0029L17.4259 47.2909L17.2085 47.5886L16.9293 47.7545L16.7078 47.7847L16.7174 47.568L16.7738 47.306L16.6129 47.2443L16.3721 47.2155L16.2566 47.1373L16.2868 46.937L16.2304 46.8204L16.1314 46.6805L15.8892 46.5008L15.3775 46.2347L15.0294 46.1016L14.8988 46.2429L14.6498 46.3842L14.2577 46.3376L14.1614 46.3938L13.4887 45.9686L12.8435 45.5599H12.6302L11.6796 45.6422L11.6521 45.6065L11.4857 45.3733L11.3399 45.2992L11.2518 45.3376L11.1927 45.4048L11.0909 45.3939L10.6644 45.018L10.4897 44.9632L10.2475 45.0139L9.96139 45.2169L9.8362 45.4652L9.87474 45.6079L10.0219 45.6696L10.4112 45.6284L10.4677 45.6696L10.4814 45.7505L10.4388 45.8287L10.1237 45.8931L10.0329 45.9878L9.94078 46.0111L9.88162 46.0262L9.54593 45.9275H9.04654L8.64347 46.1016L7.99966 46.1716L7.11508 46.1373L6.79731 46.007L6.60331 45.9288L6.463 45.5447L6.49877 44.9755L6.70928 44.2197L6.76843 43.6642L6.67485 43.3103L6.80004 42.7781L7.14397 42.0676L7.37374 41.3173L7.48789 40.5244L7.65435 40.0073L7.98177 39.6438L8.75904 38.6261L8.82231 38.5492L8.80031 38.0404L8.5912 37.9677L8.28443 37.8209L7.50443 37.6398L6.77804 37.5233L6.44789 37.3792L6.15896 36.9938L5.98016 36.9883L5.62935 37.1268L5.19189 37.2201L4.87269 37.1392L4.67323 37.1543L4.56181 37.2256L4.50539 37.1625L4.42562 36.8319L4.25916 36.7455L4.0005 36.6687L3.83958 36.7016L3.72812 36.8662L3.55616 36.9815L3.39935 36.9444L2.90546 36.179L2.77889 36.0089L2.74727 35.8526L2.62346 35.5673L2.32904 35.282L2.03604 35.1914L1.89019 35.223L1.90673 34.8691L2.02089 34.3547L2.13096 34.0858L2.27677 33.8664L2.43223 33.7128L2.46662 33.4357L2.44185 33.1737L2.263 33.1326L1.81454 32.9391L1.54904 32.7348L1.35231 32.4783L1.09369 32.1258L0.983616 31.7664L0.978116 31.4084L1.00839 31.2479L1.02766 31.1368L1.23539 30.5772L1.96723 30.0751L1.88608 29.569L1.87508 29.2576L1.69762 29.0546L1.34269 28.9723L1.24911 28.831L1.20923 28.6925L1.46923 28.3811L1.15419 28.1356L1.01116 27.8928L0.573653 27.5718L0.526884 27.4607L0.737386 26.5211L0.576424 26.2468L0.376964 26.1069L0.144463 26.0383L0.0371548 25.908L0 25.7585L0.0412691 25.6666L0.315039 25.694L0.400348 25.5966L1.05243 25.0425L1.07992 24.9355L0.989115 24.8751L0.870808 24.8436L0.840538 24.727L0.844694 24.5734L1.19273 23.7709L1.29593 23.428L1.31931 23.1852L1.29727 22.9452L1.09642 22.568L0.902463 22.2662L0.895578 22.0262L0.753886 21.9L0.352194 21.2539V21.0043L0.579153 20.8095L0.896963 20.6861L1.00289 20.5832L1.19273 20.5187L1.69762 20.7053L1.92323 20.8671L1.9865 20.8342L2.19012 20.6586L2.54777 20.6861L3.41308 20.3322L3.54243 20.1621L3.63869 19.981L3.64696 19.9015L3.31131 19.5517L3.30166 19.4227L3.3457 19.2774L3.44062 19.1622L3.63869 19.084L3.8492 18.9303L4.32104 18.4942L4.48477 18.1156L4.53566 17.7041L4.54531 17.3968L4.41596 17.1526L4.28527 16.9949L4.10781 17.0196L3.76254 17.0073L3.43923 16.8701L3.26177 16.6479L3.21773 16.4531L3.29893 16.3297L3.3237 16.1788L3.27139 16.0265L3.29204 15.8989L3.43785 15.7961L4.46 15.7988L4.53704 15.6863L4.60581 15.0938L4.8617 14.1899L5.10247 13.6851L5.14235 13.4725L5.13824 12.2723L5.17123 11.6619L4.9965 11.3752L4.61547 11.0611L4.69662 10.4055L4.8232 9.89242L5.207 9.26146L5.51104 9.08862L6.83858 8.98577L8.30508 9.0283L8.91451 9.98158L8.68889 10.4699L9.0452 10.6976L9.21716 10.6139L9.34785 10.1887L9.43451 9.71686L9.5597 9.5742L10.0137 9.92674L10.1732 10.1681L10.1829 10.9418L10.3507 9.89242L10.2255 9.15585L10.3108 8.43984L10.4938 8.06674L10.6616 7.82943L11.7374 8.08595L12.926 7.95426L13.3759 8.23133L14.3925 9.61262L14.7323 9.83892L15.1601 9.91025L14.57 9.61534L13.3374 7.93371L12.9687 7.7252L12.4019 7.66212L12.0483 7.49749L11.8255 7.24239L11.7608 7.01329L11.7732 5.30558L11.5613 5.05044L11.2862 4.96266L11.1142 5.07924L10.762 5.08062L10.6878 4.69245L10.7744 4.40442L11.4815 4.20688L11.9479 3.94216L11.9685 3.47441L11.6741 3.10542L11.322 2.42783L10.9079 1.79001L10.8611 1.04658H10.8625L11.5834 1.06027L11.7594 1.08907L12.8517 1.43747L13.1186 1.68164L13.4543 1.69261L14.0596 1.46493L14.5122 1.3648L14.6869 1.50608L14.9332 1.56506H14.9882V1.56096ZM10.5406 2.31259L10.3906 2.47585L10.0219 2.45663L9.81558 2.30301L9.88297 2.13979L10.0783 2.01497L10.2407 1.99575L10.4855 2.07257L10.5406 2.31259ZM30.3134 4.4963L30.4097 4.93934L30.3065 5.16568L29.8732 4.78982L29.4371 4.79534L29.1771 5.3728L28.9831 5.3975L28.3104 4.87216L28.2017 4.61564L28.1797 4.40165L28.276 3.66094L28.2581 3.42778L28.4699 3.17265L28.503 2.80231L28.8758 2.41276L29.2088 2.39765L29.3133 2.72822L29.4728 2.95594L30.0314 3.21103L30.1153 3.32627L30.1662 3.48676L29.9062 3.7995L29.8182 3.95999L29.9007 4.21646L30.3134 4.4963ZM20.9463 4.26448L20.3534 4.27683L20.1264 4.01349L19.8994 3.94626L20.0219 3.62117L20.1814 3.50183L20.7551 3.71444L20.9353 4.13007L20.9463 4.26448ZM32.2518 7.33289L32.2009 7.53729L32.26 7.85141L32.1004 7.82809L31.6217 7.90214L31.1484 7.79791L31.0577 7.40698L31.1333 7.03112L30.9435 6.77189L30.7688 6.61964L30.7426 6.40293L30.7715 6.1766L31.5873 6.78285L32.2518 7.33289Z"/>
</mask>
<path d="M9.45928 1.81743L9.36985 1.94912L9.41251 1.00677L9.83485 0L10.0137 0.023316L9.8307 0.296243L9.77704 0.486914L9.70278 0.866877L9.73578 1.06441L10.7002 1.11925L10.5874 1.29485L9.60924 1.41281L9.45928 1.81743ZM14.9882 1.56096L15.0116 1.68302L15.577 1.85996L15.815 2.14252L16.0791 2.57049L16.1052 3.18499L15.7668 3.62666L15.4862 3.90649L16.5469 3.80088L16.6528 4.05325L16.8137 4.32622L17.3846 4.13145L18.8181 4.93662L19.6848 4.54431L19.9063 4.52099L20.103 5.17116L19.887 5.82409L19.1235 6.51813L19.2927 6.94611L19.5376 7.04075L20.2571 6.95021L21.3976 7.37132L21.6355 7.23963L22.56 6.26714L22.9301 6.05725L24.1462 5.90773L24.3677 5.52915L24.8602 5.14923L25.1766 4.7336L25.9373 3.93939L26.7242 4.08205L27.1837 4.2343L27.6872 4.31111L28.1453 5.15743L29.3064 6.08882L30.3725 6.00786L30.7509 6.88713L30.9187 7.96799L31.2461 8.3068L31.5337 8.52762L32.4017 8.75805L32.4361 8.77178L32.465 8.91716L32.5187 9.45213L32.5916 9.8938L33.0387 11.6523L33.0304 12.0802L33.0249 12.1941L32.8612 12.7935L32.5709 13.2969L32.1871 13.5809L31.9753 13.8963L31.9367 14.2434L32.4196 14.851L33.4253 15.7193L33.8311 16.46L33.6398 17.0745L33.582 17.5244L33.6563 17.8097L33.8173 18.0388L34.0649 18.2116L34.164 18.4777L34.1131 18.8371L34.1599 19.0867L34.3455 19.2636L34.3276 19.3322L34.2383 19.5819L34.1158 20.0359L34.0457 20.3679L33.7623 20.8178L33.8489 21.2004L34.0704 21.6504L34.2396 21.8767L34.2933 22.0906L34.186 22.5982L34.2396 22.7285L34.9398 23.1016L35.054 23.273L35.1214 23.631L35.3677 24.395L35.1641 25.3607L34.9853 25.8888L34.5863 26.7242L34.567 26.801L34.5217 26.9024L34.4019 27.0479L34.2355 27.0698L33.9837 26.9614L33.8117 26.8215L33.8517 26.4622L33.7403 26.4375L33.6027 26.2166L33.549 25.9793L33.4005 25.8819L32.8598 25.7818L32.6754 25.7119L32.5338 25.7626L32.4278 25.9313L32.4953 26.0836L32.5957 26.2317L32.8956 26.4663L32.8653 26.5595L32.2188 26.7886L31.8129 27.0218L31.4346 27.1535L31.0494 27.3949L30.2886 27.6665L29.7301 27.7378L29.6146 27.8091L29.4068 28.2686L29.2665 28.3646L29.1303 28.3153L29.0285 28.2398L28.8992 28.3016L28.7644 28.4538L28.6227 28.5128L28.5003 28.5114L28.2815 28.9119L27.6459 29.0326L27.5716 29.2398L27.4547 29.4798L27.3612 29.5388L27.075 29.4441L26.6774 29.3907L26.4491 29.5223L26.1753 29.595L25.841 29.617L25.4682 29.879L25.105 30.3385L24.9014 30.7445L24.7914 30.8899L24.6139 30.5085L24.3966 30.248L24.2425 30.1121H24.1049L24.0691 30.1684V30.3673L24.2163 30.6978L24.3979 30.9242L24.4268 31.0915L24.5245 31.3933L24.79 31.7239L25.2054 31.9845L25.4889 32.2423L25.6993 32.599L25.7007 32.7087L25.6429 32.8541L25.5439 32.9913L25.4599 33.1696L25.2288 33.529L25.2976 33.6867L25.4861 33.8842L25.6526 34.1215L25.8672 34.5056L26.1616 35.1777L26.3514 35.4534L26.6101 35.7387L26.8632 35.9554L27.2621 35.9486L27.6748 36.3628L28.1261 36.9609L28.4631 37.2338L28.6983 37.3175L28.8937 37.5328L29.0657 37.8415L29.1331 38.0198L29.2857 38.1487L29.6984 38.124L30.2295 38.6096L30.5569 38.9635L30.7302 39.2488L30.6849 39.3627L30.6629 39.7179L30.6683 40.0937L30.616 40.2927L30.3794 40.5546L30.257 40.6109L30.191 40.6671L29.4633 40.3256L29.4055 40.3832L29.3601 40.4257L29.1647 41.4119L29.0312 41.6012L28.8304 41.7754L28.4149 41.9455L28.1261 42.0141L27.9004 42.1005L27.1864 42.512L26.8659 42.7589L26.6582 43.0689L26.6568 43.2472L27.0035 43.7698L27.4038 44.3103L27.4052 44.7835L27.2291 45.1374L27.1878 45.2732L27.3061 45.3253L27.5276 45.3445L27.7133 45.4048L27.7917 45.6545L27.7684 46.0866L27.7051 46.4912L27.6391 46.6613L27.4602 46.675L27.1163 46.5008L26.848 46.2978L26.7449 46.173L26.7394 46.0235L26.7971 45.9288L26.7022 45.745L26.3721 45.5735L26.0185 45.6476L25.7585 45.7615L25.5893 45.7546L25.4077 45.59L25.1271 45.4638L24.7611 45.3802L24.5327 45.2924L24.4846 45.3445L24.5107 45.6998L24.4406 45.8548L22.6302 46.0605L22.0785 46.2526L21.6768 46.5008L21.3797 46.6078L21.3067 46.7601L21.0124 46.9603L20.6808 47.0234L20.5996 46.9589L20.3864 47.0509L20.0232 47.14L19.788 47.1112L19.6766 46.9494L19.4523 46.7011L19.3615 46.5296L19.3711 46.4185L18.8635 46.3966L18.5444 46.2649L17.8647 46.295L17.6969 46.2388L17.6625 46.2978L17.5607 47.0029L17.4259 47.2909L17.2085 47.5886L16.9293 47.7545L16.7078 47.7847L16.7174 47.568L16.7738 47.306L16.6129 47.2443L16.3721 47.2155L16.2566 47.1373L16.2868 46.937L16.2304 46.8204L16.1314 46.6805L15.8892 46.5008L15.3775 46.2347L15.0294 46.1016L14.8988 46.2429L14.6498 46.3842L14.2577 46.3376L14.1614 46.3938L13.4887 45.9686L12.8435 45.5599H12.6302L11.6796 45.6422L11.6521 45.6065L11.4857 45.3733L11.3399 45.2992L11.2518 45.3376L11.1927 45.4048L11.0909 45.3939L10.6644 45.018L10.4897 44.9632L10.2475 45.0139L9.96139 45.2169L9.8362 45.4652L9.87474 45.6079L10.0219 45.6696L10.4112 45.6284L10.4677 45.6696L10.4814 45.7505L10.4388 45.8287L10.1237 45.8931L10.0329 45.9878L9.94078 46.0111L9.88162 46.0262L9.54593 45.9275H9.04654L8.64347 46.1016L7.99966 46.1716L7.11508 46.1373L6.79731 46.007L6.60331 45.9288L6.463 45.5447L6.49877 44.9755L6.70928 44.2197L6.76843 43.6642L6.67485 43.3103L6.80004 42.7781L7.14397 42.0676L7.37374 41.3173L7.48789 40.5244L7.65435 40.0073L7.98177 39.6438L8.75904 38.6261L8.82231 38.5492L8.80031 38.0404L8.5912 37.9677L8.28443 37.8209L7.50443 37.6398L6.77804 37.5233L6.44789 37.3792L6.15896 36.9938L5.98016 36.9883L5.62935 37.1268L5.19189 37.2201L4.87269 37.1392L4.67323 37.1543L4.56181 37.2256L4.50539 37.1625L4.42562 36.8319L4.25916 36.7455L4.0005 36.6687L3.83958 36.7016L3.72812 36.8662L3.55616 36.9815L3.39935 36.9444L2.90546 36.179L2.77889 36.0089L2.74727 35.8526L2.62346 35.5673L2.32904 35.282L2.03604 35.1914L1.89019 35.223L1.90673 34.8691L2.02089 34.3547L2.13096 34.0858L2.27677 33.8664L2.43223 33.7128L2.46662 33.4357L2.44185 33.1737L2.263 33.1326L1.81454 32.9391L1.54904 32.7348L1.35231 32.4783L1.09369 32.1258L0.983616 31.7664L0.978116 31.4084L1.00839 31.2479L1.02766 31.1368L1.23539 30.5772L1.96723 30.0751L1.88608 29.569L1.87508 29.2576L1.69762 29.0546L1.34269 28.9723L1.24911 28.831L1.20923 28.6925L1.46923 28.3811L1.15419 28.1356L1.01116 27.8928L0.573653 27.5718L0.526884 27.4607L0.737386 26.5211L0.576424 26.2468L0.376964 26.1069L0.144463 26.0383L0.0371548 25.908L0 25.7585L0.0412691 25.6666L0.315039 25.694L0.400348 25.5966L1.05243 25.0425L1.07992 24.9355L0.989115 24.8751L0.870808 24.8436L0.840538 24.727L0.844694 24.5734L1.19273 23.7709L1.29593 23.428L1.31931 23.1852L1.29727 22.9452L1.09642 22.568L0.902463 22.2662L0.895578 22.0262L0.753886 21.9L0.352194 21.2539V21.0043L0.579153 20.8095L0.896963 20.6861L1.00289 20.5832L1.19273 20.5187L1.69762 20.7053L1.92323 20.8671L1.9865 20.8342L2.19012 20.6586L2.54777 20.6861L3.41308 20.3322L3.54243 20.1621L3.63869 19.981L3.64696 19.9015L3.31131 19.5517L3.30166 19.4227L3.3457 19.2774L3.44062 19.1622L3.63869 19.084L3.8492 18.9303L4.32104 18.4942L4.48477 18.1156L4.53566 17.7041L4.54531 17.3968L4.41596 17.1526L4.28527 16.9949L4.10781 17.0196L3.76254 17.0073L3.43923 16.8701L3.26177 16.6479L3.21773 16.4531L3.29893 16.3297L3.3237 16.1788L3.27139 16.0265L3.29204 15.8989L3.43785 15.7961L4.46 15.7988L4.53704 15.6863L4.60581 15.0938L4.8617 14.1899L5.10247 13.6851L5.14235 13.4725L5.13824 12.2723L5.17123 11.6619L4.9965 11.3752L4.61547 11.0611L4.69662 10.4055L4.8232 9.89242L5.207 9.26146L5.51104 9.08862L6.83858 8.98577L8.30508 9.0283L8.91451 9.98158L8.68889 10.4699L9.0452 10.6976L9.21716 10.6139L9.34785 10.1887L9.43451 9.71686L9.5597 9.5742L10.0137 9.92674L10.1732 10.1681L10.1829 10.9418L10.3507 9.89242L10.2255 9.15585L10.3108 8.43984L10.4938 8.06674L10.6616 7.82943L11.7374 8.08595L12.926 7.95426L13.3759 8.23133L14.3925 9.61262L14.7323 9.83892L15.1601 9.91025L14.57 9.61534L13.3374 7.93371L12.9687 7.7252L12.4019 7.66212L12.0483 7.49749L11.8255 7.24239L11.7608 7.01329L11.7732 5.30558L11.5613 5.05044L11.2862 4.96266L11.1142 5.07924L10.762 5.08062L10.6878 4.69245L10.7744 4.40442L11.4815 4.20688L11.9479 3.94216L11.9685 3.47441L11.6741 3.10542L11.322 2.42783L10.9079 1.79001L10.8611 1.04658H10.8625L11.5834 1.06027L11.7594 1.08907L12.8517 1.43747L13.1186 1.68164L13.4543 1.69261L14.0596 1.46493L14.5122 1.3648L14.6869 1.50608L14.9332 1.56506H14.9882V1.56096ZM10.5406 2.31259L10.3906 2.47585L10.0219 2.45663L9.81558 2.30301L9.88297 2.13979L10.0783 2.01497L10.2407 1.99575L10.4855 2.07257L10.5406 2.31259ZM30.3134 4.4963L30.4097 4.93934L30.3065 5.16568L29.8732 4.78982L29.4371 4.79534L29.1771 5.3728L28.9831 5.3975L28.3104 4.87216L28.2017 4.61564L28.1797 4.40165L28.276 3.66094L28.2581 3.42778L28.4699 3.17265L28.503 2.80231L28.8758 2.41276L29.2088 2.39765L29.3133 2.72822L29.4728 2.95594L30.0314 3.21103L30.1153 3.32627L30.1662 3.48676L29.9062 3.7995L29.8182 3.95999L29.9007 4.21646L30.3134 4.4963ZM20.9463 4.26448L20.3534 4.27683L20.1264 4.01349L19.8994 3.94626L20.0219 3.62117L20.1814 3.50183L20.7551 3.71444L20.9353 4.13007L20.9463 4.26448ZM32.2518 7.33289L32.2009 7.53729L32.26 7.85141L32.1004 7.82809L31.6217 7.90214L31.1484 7.79791L31.0577 7.40698L31.1333 7.03112L30.9435 6.77189L30.7688 6.61964L30.7426 6.40293L30.7715 6.1766L31.5873 6.78285L32.2518 7.33289Z" fill="var(--fill-0, #71B219)" stroke="var(--stroke-0, white)" mask="url(#path-1-inside-1_0_188)"/>
</g>
</svg>
