<svg preserveAspectRatio="none" width="100%" height="100%" overflow="visible" style="display: block;" viewBox="0 0 35 48" fill="none" xmlns="http://www.w3.org/2000/svg"><g id="DE"><mask id="path-1-inside-1_0_188" fill="white"><path d="M10 2L9 2L9 1L10 0L10 0L10 0L10 0L10 1L10 1L11 1L11 1L10 1L10 2ZM15 2L15 2L16 2L16 2L16 3L16 3L16 4L16 4L16 4L17 4L17 4L17 4L19 5L20 4L20 4L20 5L20 6L19 6L19 7L20 7L20 7L21 7L22 7L23 6L23 6L24 6L24 6L25 5L25 5L26 4L27 4L27 4L28 4L28 5L29 6L30 6L31 7L31 8L31 8L32 8L32 9L32 9L32 9L32 10L33 10L33 12L33 12L33 12L33 13L33 13L32 14L32 14L32 14L32 15L33 16L34 16L34 17L34 18L34 18L34 18L34 18L34 18L34 19L34 19L34 19L34 19L34 20L34 20L34 20L34 21L34 21L34 22L34 22L34 22L34 23L34 23L35 23L35 23L35 24L35 24L35 25L35 26L35 27L35 27L34 27L34 27L34 27L34 27L34 27L34 26L34 26L34 26L34 26L33 26L33 26L33 26L32 26L32 26L32 26L33 26L33 26L33 27L32 27L32 27L31 27L31 27L30 28L30 28L30 28L29 28L29 28L29 28L29 28L29 28L29 28L29 28L28 28L28 29L28 29L28 29L28 30L27 30L27 29L27 29L26 30L26 30L26 30L26 30L25 30L25 31L25 31L25 30L24 30L24 30H24L24 30V30L24 31L24 31L24 31L24 31L25 32L25 32L26 32L26 33L26 33L26 33L26 33L26 33L25 34L25 34L26 34L26 34L26 34L26 35L26 36L27 36L27 36L27 36L28 36L28 37L28 37L29 37L29 38L29 38L29 38L29 38L30 38L30 39L31 39L31 39L31 39L31 40L31 40L31 40L30 41L30 41L30 41L30 40L29 40L29 40L29 41L29 42L29 42L28 42L28 42L28 42L27 42L27 43L27 43L27 43L27 44L27 44L27 45L27 45L27 45L27 45L28 45L28 45L28 46L28 46L28 46L28 47L28 47L27 46L27 46L27 46L27 46L27 46L27 46L26 46L26 46L26 46L26 46L25 46L25 46L25 45L24 45L24 45L24 46L24 46L23 46L22 46L22 46L21 47L21 47L21 47L21 47L21 47L20 47L20 47L20 47L20 47L20 47L19 46L19 46L19 46L18 46L18 46L18 46L18 46L18 47L17 47L17 48L17 48L17 48L17 48L17 47L17 47L16 47L16 47L16 47L16 47L16 47L16 46L15 46L15 46L15 46L15 46L14 46L14 46L14 46L13 46H13L12 46L12 46L12 45L11 45L11 45L11 45L11 45L11 45L10 45L10 45L10 45L10 46L10 46L10 46L10 46L10 46L10 46L10 46L10 46L10 46L10 46L10 46L10 46H9L9 46L8 46L7 46L7 46L7 46L6 46L6 45L7 44L7 44L7 43L7 43L7 42L7 41L8 40L8 40L8 40L9 39L9 38L9 38L9 38L8 38L8 38L7 38L6 37L6 37L6 37L6 37L5 37L5 37L5 37L5 37L4 37L4 37L4 37L4 37L4 37L4 37L4 37L3 37L3 36L3 36L3 36L3 36L2 35L2 35L2 35L2 35L2 34L2 34L2 34L2 34L2 33L2 33L2 33L2 33L2 33L1 32L1 32L1 32L1 31L1 31L1 31L1 31L2 30L2 30L2 29L2 29L1 29L1 29L1 29L2 28L1 28L1 28L1 28L0 28L1 26L1 26L0 26L0 26L0 26L0 26L0 26L0 26L0 26L1 25L1 25L1 25L1 25L1 25L1 25L1 24L1 23L1 23L1 23L1 23L1 22L1 22L1 22L0 21V21L1 21L1 21L1 21L1 20L2 21L2 21L2 21L2 21L2 21L3 20L4 20L4 20L4 20L3 20L3 19L3 19L3 19L4 19L4 19L4 18L4 18L4 18L4 17L4 17L4 17L4 17L4 17L3 17L3 17L3 16L3 16L3 16L3 16L3 16L3 16L4 16L4 16L5 15L5 14L5 14L5 14L5 12L5 12L5 11L5 11L5 10L5 10L5 9L6 9L7 9L8 9L9 10L9 10L9 11L9 11L9 10L9 10L10 10L10 10L10 10L10 11L10 10L10 9L10 8L10 8L11 8L12 8L13 8L13 8L14 10L15 10L15 10L15 10L13 8L13 8L12 8L12 8L12 7L12 7L12 5L12 5L11 5L11 5L11 5L11 5L11 4L12 4L12 4L12 4L12 3L11 2L11 2L11 1H11L12 1L12 1L13 1L13 2L14 2L14 2L14 1L15 2L15 2H15V2ZM10 2L10 2L10 2L10 2L10 2L10 2L10 2L10 2L10 2ZM30 4L30 5L30 5L30 5L29 5L29 5L29 5L28 5L28 5L28 4L28 4L28 3L28 3L28 3L29 2L29 2L29 3L30 3L30 3L30 3L30 4L30 4L30 4L30 4L30 4ZM21 4L20 4L20 4L20 4L20 4L20 4L21 4L21 4L21 4ZM32 7L32 8L32 8L32 8L32 8L31 8L31 7L31 7L31 7L31 7L31 6L31 6L32 7L32 7Z"/></mask><path d="M10 2L9 2L9 1L10 0L10 0L10 0L10 0L10 1L10 1L11 1L11 1L10 1L10 2ZM15 2L15 2L16 2L16 2L16 3L16 3L16 4L16 4L16 4L17 4L17 4L17 4L19 5L20 4L20 4L20 5L20 6L19 6L19 7L20 7L20 7L21 7L22 7L23 6L23 6L24 6L24 6L25 5L25 5L26 4L27 4L27 4L28 4L28 5L29 6L30 6L31 7L31 8L31 8L32 8L32 9L32 9L32 9L32 10L33 10L33 12L33 12L33 12L33 13L33 13L32 14L32 14L32 14L32 15L33 16L34 16L34 17L34 18L34 18L34 18L34 18L34 18L34 19L34 19L34 19L34 19L34 20L34 20L34 20L34 21L34 21L34 22L34 22L34 22L34 23L34 23L35 23L35 23L35 24L35 24L35 25L35 26L35 27L35 27L34 27L34 27L34 27L34 27L34 27L34 26L34 26L34 26L34 26L33 26L33 26L33 26L32 26L32 26L32 26L33 26L33 26L33 27L32 27L32 27L31 27L31 27L30 28L30 28L30 28L29 28L29 28L29 28L29 28L29 28L29 28L29 28L28 28L28 29L28 29L28 29L28 30L27 30L27 29L27 29L26 30L26 30L26 30L26 30L25 30L25 31L25 31L25 30L24 30L24 30H24L24 30V30L24 31L24 31L24 31L24 31L25 32L25 32L26 32L26 33L26 33L26 33L26 33L26 33L25 34L25 34L26 34L26 34L26 34L26 35L26 36L27 36L27 36L27 36L28 36L28 37L28 37L29 37L29 38L29 38L29 38L29 38L30 38L30 39L31 39L31 39L31 39L31 40L31 40L31 40L30 41L30 41L30 41L30 40L29 40L29 40L29 41L29 42L29 42L28 42L28 42L28 42L27 42L27 43L27 43L27 43L27 44L27 44L27 45L27 45L27 45L27 45L28 45L28 45L28 46L28 46L28 46L28 47L28 47L27 46L27 46L27 46L27 46L27 46L27 46L26 46L26 46L26 46L26 46L25 46L25 46L25 45L24 45L24 45L24 46L24 46L23 46L22 46L22 46L21 47L21 47L21 47L21 47L21 47L20 47L20 47L20 47L20 47L20 47L19 46L19 46L19 46L18 46L18 46L18 46L18 46L18 47L17 47L17 48L17 48L17 48L17 48L17 47L17 47L16 47L16 47L16 47L16 47L16 47L16 46L15 46L15 46L15 46L15 46L14 46L14 46L14 46L13 46H13L12 46L12 46L12 45L11 45L11 45L11 45L11 45L11 45L10 45L10 45L10 45L10 46L10 46L10 46L10 46L10 46L10 46L10 46L10 46L10 46L10 46L10 46L10 46H9L9 46L8 46L7 46L7 46L7 46L6 46L6 45L7 44L7 44L7 43L7 43L7 42L7 41L8 40L8 40L8 40L9 39L9 38L9 38L9 38L8 38L8 38L7 38L6 37L6 37L6 37L6 37L5 37L5 37L5 37L5 37L4 37L4 37L4 37L4 37L4 37L4 37L4 37L3 37L3 36L3 36L3 36L3 36L2 35L2 35L2 35L2 35L2 34L2 34L2 34L2 34L2 33L2 33L2 33L2 33L2 33L1 32L1 32L1 32L1 31L1 31L1 31L1 31L2 30L2 30L2 29L2 29L1 29L1 29L1 29L2 28L1 28L1 28L1 28L0 28L1 26L1 26L0 26L0 26L0 26L0 26L0 26L0 26L0 26L1 25L1 25L1 25L1 25L1 25L1 25L1 24L1 23L1 23L1 23L1 23L1 22L1 22L1 22L0 21V21L1 21L1 21L1 21L1 20L2 21L2 21L2 21L2 21L2 21L3 20L4 20L4 20L4 20L3 20L3 19L3 19L3 19L4 19L4 19L4 18L4 18L4 18L4 17L4 17L4 17L4 17L4 17L3 17L3 17L3 16L3 16L3 16L3 16L3 16L3 16L4 16L4 16L5 15L5 14L5 14L5 14L5 12L5 12L5 11L5 11L5 10L5 10L5 9L6 9L7 9L8 9L9 10L9 10L9 11L9 11L9 10L9 10L10 10L10 10L10 10L10 11L10 10L10 9L10 8L10 8L11 8L12 8L13 8L13 8L14 10L15 10L15 10L15 10L13 8L13 8L12 8L12 8L12 7L12 7L12 5L12 5L11 5L11 5L11 5L11 5L11 4L12 4L12 4L12 4L12 3L11 2L11 2L11 1H11L12 1L12 1L13 1L13 2L14 2L14 2L14 1L15 2L15 2H15V2ZM10 2L10 2L10 2L10 2L10 2L10 2L10 2L10 2L10 2ZM30 4L30 5L30 5L30 5L29 5L29 5L29 5L28 5L28 5L28 4L28 4L28 3L28 3L28 3L29 2L29 2L29 3L30 3L30 3L30 3L30 4L30 4L30 4L30 4L30 4ZM21 4L20 4L20 4L20 4L20 4L20 4L21 4L21 4L21 4ZM32 7L32 8L32 8L32 8L32 8L31 8L31 7L31 7L31 7L31 7L31 6L31 6L32 7L32 7Z" fill="var(--fill-0,#71B219)" stroke="var(--stroke-0,white)" mask="url(#path-1-inside-1_0_188)"/></g></svg>