<svg preserveAspectRatio="none" width="100%" height="100%" overflow="visible" style="display: block;" viewBox="0 0 6.35024 6.90772" fill="none" xmlns="http://www.w3.org/2000/svg">
<path id="DJ" d="M5.08301 0.349609L5.71387 1.10254L5.90332 1.44043L6.08887 2.03516L6.00684 2.31055L5.87695 2.50586L5.66406 2.69629L4.84375 3.21777L3.90723 3.55859L3.84668 3.58105L3.80469 3.62891L3.27539 4.23242L2.94824 4.19824L2.58691 4.16016L2.68066 4.51074L2.75098 4.77539L2.79102 4.92969L2.94824 4.95801L3.11719 4.98828L3.16309 4.99609L3.20801 4.9873L3.47461 4.93652L3.49707 4.93262L3.51758 4.9248L4.03027 4.72754L4.45508 4.63965L4.91406 4.63379L5.28613 4.7041L5.38574 4.78418L5.17383 5.11719L4.74609 5.78711L4.33203 6.43359L4.18457 6.43555L4.03809 6.4082L3.9248 6.31836L3.89844 6.29688L3.86719 6.28418L3.53418 6.14258L3.49023 6.12402L3.44336 6.12305L3.06738 6.11328L3.01953 6.1123L2.97461 6.12891L2.62012 6.25781L2.05566 6.41016L1.52637 6.46289L1.5127 6.46387L1.5 6.4668L1.05859 6.55762L1.03906 6.56152L0.731445 6.65137L0.470703 6.60547L0.365234 6.57031L0.31543 5.92676L0.25 5.06348L0.255859 4.41309L0.338867 4.10156L0.395508 4.00684L0.891602 3.50781L0.899414 3.5L0.90625 3.49219L1.08496 3.27832L1.09277 3.26855L1.09961 3.25879L1.68945 2.3916L2.19727 1.64648L2.55762 1.11523L2.64258 1.03613L2.67578 1.01465L3.34863 1.50391L3.42773 1.56152L3.52441 1.5498L3.6543 1.53516L3.71387 1.52832L3.76465 1.49414L4.01074 1.32812L4.07617 1.28418L4.10449 1.21094L4.31445 0.668945L4.37598 0.586914L4.39844 0.580078L4.87207 0.418945L4.88086 0.416016L4.88965 0.412109L5.07031 0.333984L5.08301 0.349609Z" fill="var(--fill-0, #71B219)" stroke="var(--stroke-0, white)" stroke-width="0.5"/>
</svg>
