<svg preserveAspectRatio="none" width="100%" height="100%" overflow="visible" style="display: block;" viewBox="0 0 6 7" fill="none" xmlns="http://www.w3.org/2000/svg"><path id="DJ" d="M5 0L6 1L6 1L6 2L6 2L6 2L6 3L5 3L4 4L4 4L4 4L3 4L3 4L3 4L3 4L3 5L3 5L3 5L3 5L3 5L3 5L4 5L4 5L4 5L4 5L4 5L5 5L5 5L5 5L5 5L5 6L4 6L4 6L4 6L4 6L4 6L4 6L4 6L4 6L3 6L3 6L3 6L3 6L3 6L2 6L2 6L2 6L2 6L1 7L1 7L1 7L0 7L0 7L0 6L0 5L0 4L0 4L0 4L1 4L1 4L1 4L1 3L1 3L1 3L2 2L2 2L3 1L3 1L3 1L3 2L3 2L4 2L4 2L4 2L4 2L4 1L4 1L4 1L4 1L4 1L4 1L5 0L5 0L5 0L5 0L5 0Z" fill="var(--fill-0,#71B219)" stroke="var(--stroke-0,white)" stroke-width="0"/></svg>