<svg preserveAspectRatio="none" width="100%" height="100%" overflow="visible" style="display: block;" viewBox="0 0 27 22" fill="none" xmlns="http://www.w3.org/2000/svg"><g id="DK"><mask id="path-1-inside-1_0_181" fill="white"><path d="M6 20H6L6 20L6 20L5 20L5 20L4 20L4 20L3 20L3 20L2 20H2L2 19L2 19L2 18L2 18L2 17L2 16L1 16L0 15L0 13L0 12L0 11L0 10L0 8L0 8L1 8L1 8L2 8L2 9L2 9L2 8L2 8L3 7L3 7L4 7L4 7L4 7L4 7L4 5L4 5L3 5L3 6L2 7L2 7L1 8L1 7L1 7L1 6L1 6L1 5L2 4L3 4L3 4L4 4L5 4L5 4L6 4L6 2L7 1L8 1L9 0L10 0L9 1L9 1L9 1L9 2L9 3L9 4L9 4L9 5L8 5L8 6L8 7L8 8L9 8L9 9L10 9L11 9L11 9L11 10L11 10L10 10L10 11L9 11L9 10L9 10L8 11L8 12L8 13L8 13L8 13L7 13L7 13L7 14L7 14L7 14L7 14L6 15L6 15L6 15L6 16L6 16L6 17L6 17L6 18L5 18L5 19L6 19L6 19L6 19L6 19L6 20L6 20ZM11 4L11 4L11 3L11 3L11 3L12 3L11 3L11 4ZM17 14L17 14L17 15L17 15L16 15L16 15L16 15L16 16L16 16L16 16L17 17L16 17L15 18L15 18L15 19L15 20L15 20L14 20L14 20L14 19L14 19L14 18L14 18L13 18L13 18L12 18L12 18L12 17L12 16L12 15L12 15L12 15L11 15L11 15L11 14L11 14L12 14L12 14L12 14L13 13L13 13L13 13L14 12L14 13L14 13L14 14L14 14L14 14L14 14L14 14L15 13L15 13L15 13L14 12L15 12L16 11L16 11L17 12L17 12L17 12L17 12L17 12L17 13L17 14ZM10 14L10 14L9 14L9 13L9 13L9 12L9 12L10 13L10 13L10 13L10 14ZM18 15L17 15L17 15L17 15L17 15L17 14L17 14L18 15L18 15ZM10 15L10 15L10 16L10 17L10 17L10 18L10 18L10 19L9 19L8 18L7 18L7 18L7 18L7 17L7 16L7 15L8 15L9 15L9 15L9 15L10 15L10 15ZM27 19L27 19L26 19L25 18L26 17L26 17L27 18L27 18L27 19ZM10 21L10 21L10 20L10 20L10 20L10 19L11 19L11 18L11 18L11 19L10 20L10 21ZM8 20L7 20L7 20L6 20L6 19L6 18L7 19L7 19L8 20L8 20ZM17 19L17 19L16 19L16 20L15 20L16 19L16 19L16 19L16 19L16 19L16 19L17 19L17 19L17 19L17 19ZM9 20L9 20L9 20L8 19L8 19L8 19L9 20L9 20L9 20L9 20ZM12 20L13 20L14 20L14 20L14 20L14 21L14 21L13 21L13 22L11 20L11 20L11 19L12 19L12 20Z"/></mask><path d="M6 20H6L6 20L6 20L5 20L5 20L4 20L4 20L3 20L3 20L2 20H2L2 19L2 19L2 18L2 18L2 17L2 16L1 16L0 15L0 13L0 12L0 11L0 10L0 8L0 8L1 8L1 8L2 8L2 9L2 9L2 8L2 8L3 7L3 7L4 7L4 7L4 7L4 7L4 5L4 5L3 5L3 6L2 7L2 7L1 8L1 7L1 7L1 6L1 6L1 5L2 4L3 4L3 4L4 4L5 4L5 4L6 4L6 2L7 1L8 1L9 0L10 0L9 1L9 1L9 1L9 2L9 3L9 4L9 4L9 5L8 5L8 6L8 7L8 8L9 8L9 9L10 9L11 9L11 9L11 10L11 10L10 10L10 11L9 11L9 10L9 10L8 11L8 12L8 13L8 13L8 13L7 13L7 13L7 14L7 14L7 14L7 14L6 15L6 15L6 15L6 16L6 16L6 17L6 17L6 18L5 18L5 19L6 19L6 19L6 19L6 19L6 20L6 20ZM11 4L11 4L11 3L11 3L11 3L12 3L11 3L11 4ZM17 14L17 14L17 15L17 15L16 15L16 15L16 15L16 16L16 16L16 16L17 17L16 17L15 18L15 18L15 19L15 20L15 20L14 20L14 20L14 19L14 19L14 18L14 18L13 18L13 18L12 18L12 18L12 17L12 16L12 15L12 15L12 15L11 15L11 15L11 14L11 14L12 14L12 14L12 14L13 13L13 13L13 13L14 12L14 13L14 13L14 14L14 14L14 14L14 14L14 14L15 13L15 13L15 13L14 12L15 12L16 11L16 11L17 12L17 12L17 12L17 12L17 12L17 13L17 14ZM10 14L10 14L9 14L9 13L9 13L9 12L9 12L10 13L10 13L10 13L10 14ZM18 15L17 15L17 15L17 15L17 15L17 14L17 14L18 15L18 15ZM10 15L10 15L10 16L10 17L10 17L10 18L10 18L10 19L9 19L8 18L7 18L7 18L7 18L7 17L7 16L7 15L8 15L9 15L9 15L9 15L10 15L10 15ZM27 19L27 19L26 19L25 18L26 17L26 17L27 18L27 18L27 19ZM10 21L10 21L10 20L10 20L10 20L10 19L11 19L11 18L11 18L11 19L10 20L10 21ZM8 20L7 20L7 20L6 20L6 19L6 18L7 19L7 19L8 20L8 20ZM17 19L17 19L16 19L16 20L15 20L16 19L16 19L16 19L16 19L16 19L16 19L17 19L17 19L17 19L17 19ZM9 20L9 20L9 20L8 19L8 19L8 19L9 20L9 20L9 20L9 20ZM12 20L13 20L14 20L14 20L14 20L14 21L14 21L13 21L13 22L11 20L11 20L11 19L12 19L12 20Z" fill="var(--fill-0,#71B219)" stroke="var(--stroke-0,white)" mask="url(#path-1-inside-1_0_181)"/></g></svg>