<svg preserveAspectRatio="none" width="100%" height="100%" overflow="visible" style="display: block;" viewBox="0 0 27.0888 21.4624" fill="none" xmlns="http://www.w3.org/2000/svg">
<g id="DK">
<mask id="path-1-inside-1_0_181" fill="white">
<path d="M6.24977 20.1539H6.19201L5.94578 20.0949L5.77104 19.9536L5.31847 20.0538L4.71316 20.2815L4.37747 20.2705L4.11058 20.0263L3.01827 19.6779L2.8422 19.6491L2.12135 19.6354H2.11997L2.08558 19.084L1.99616 18.6848L1.743 18.0895L2.11719 17.9455L2.04431 16.7796L1.90812 16.1747L0.863965 15.5506L0.0412691 14.9429L0.231115 12.8854L0.31231 12.3285L0 11.2449L0.0330405 9.9912L0.165118 8.00504L0.426504 7.92688L0.619079 7.93647L1.35919 8.29445L1.66735 8.33012L1.87924 8.64972L2.12685 8.78141L2.3057 8.4426L2.37585 7.86242L2.96189 7.10936L3.37324 6.83091L3.65385 6.69783L3.93723 7.00237L4.15324 7.3439L4.20412 6.59637L4.37885 5.16572L3.8217 4.94077L3.36635 5.13554L2.91651 6.04356L2.51477 7.18069L1.86269 7.28492L1.34269 7.6059L0.873579 7.27257L0.570925 6.97905L0.564039 6.54973L0.632849 6.29045L1.1845 5.36049L1.92462 4.46478L2.67023 4.47302L3.21362 4.18632L3.53831 4.15204L4.5522 4.21378L5.0722 4.01625L5.53854 3.60477L6.54559 1.85314L7.11374 1.11929L8.25966 0.861435L9.31897 0.0109673L9.61474 0L9.11674 0.633717L9.03693 0.879267L8.97643 1.2537L9.33274 2.06574L9.25705 2.55952L9.2832 3.52795L8.94616 4.03136L8.56647 5.09849L8.40274 5.25488L8.36697 6.49486L8.40412 6.78976L8.34908 7.91177L8.73843 8.36993L9.14974 8.60857L10.5227 8.60037L10.6658 8.80062L10.8336 9.14492L10.7112 9.72924L10.564 10.1695L10.1664 10.5399L9.65601 10.8156L9.33824 10.8279L8.90624 10.304L8.70128 10.4741L8.48943 10.7415L8.13312 12.1708L7.96389 13.1323L7.87312 13.2105L7.67228 13.0679L7.32558 13.0569L6.88674 13.2846L7.11235 13.4876L7.35035 13.8401L7.25543 14.0171L6.86885 14.2077L6.52632 14.5932L6.38324 14.884L5.95266 15.2283L5.68024 15.6644L5.8137 16.2035L5.87008 16.6767L5.98843 17.198L5.88112 17.6136L5.34597 18.2089L5.14924 18.7233L5.60735 18.7164L5.88935 18.8344L6.05443 18.9866L6.22505 19.202L6.12047 19.4681L6.24977 20.1539ZM11.3165 3.45662L11.1596 3.6226L10.6286 3.38801L10.8625 3.05883L11.4458 2.90658L11.7883 2.95732L11.4114 3.28378L11.3165 3.45662ZM17.1728 13.6783L17.1824 14.3613L17.082 14.5603L16.9348 14.6919L16.5496 14.8305L16.2153 15.0239L15.9168 15.3627L15.8067 15.8469L16.0392 16.2007L16.4629 16.3941L16.5716 17.0663L16.2222 17.3968L15.3252 17.726L15.2317 18.5202L15.2606 19.1443L15.2441 19.597L15.1726 20.2225L14.4476 20.5064L13.9784 19.5545L13.9743 19.1718L13.834 18.7246L13.8079 18.3433L13.6414 17.7329L12.9549 17.5669L12.6881 17.545L12.3152 17.6588L12.223 17.6149L11.776 16.7782L11.8502 15.851L11.6122 15.3819L11.5792 15.1693L11.5847 14.9334L11.388 14.7386L11.1514 14.6357L11.0358 14.1103L11.3082 13.9828L11.9837 14.0445L12.1818 14.0088L12.362 13.8991L12.9082 13.0322L12.8916 12.8402L12.9494 12.5919L13.5396 12.5L13.8024 12.836L13.7487 13.3737L13.7817 14.0596L14.1394 14.2461L14.2783 14.2736L14.4283 13.7674L14.5329 13.5205L14.6746 13.382L14.7227 12.9183L14.6388 12.6344L14.4599 12.4218L15.1285 11.8457L15.8205 11.3876L16.2236 11.3629L16.628 11.4753L17.005 11.629L17.2086 11.762L17.3227 11.976L17.0696 12.4849L16.9995 12.762L17.1728 13.6783ZM9.59963 13.692L9.53359 13.8141L9.2887 13.6865L9.26255 13.2448L9.35474 12.847L9.24605 12.4904L9.36574 12.2614L9.70966 12.7949L9.80732 13.0459L9.67389 13.3449L9.59963 13.692ZM17.547 14.9622L17.1838 15.2516L17.104 15.2365L16.9857 14.84L17.1783 14.5986L17.2911 14.3943L17.3723 14.3998L17.4823 14.622L17.547 14.9622ZM9.74543 14.873L9.90639 15.2269L10.1045 15.9813L10.4181 16.8235L10.2875 17.1746L10.3769 17.6245L10.2875 18.0923L9.66428 18.6354L8.96539 18.6601L8.23905 18.3982L7.21278 17.892L7.13024 17.6081L6.98716 17.4503L6.71201 16.5848L6.71755 15.5135L7.23343 15.3777L8.36013 14.8647L8.62012 14.9457L8.89251 15.2077L9.20616 15.2228L9.66012 14.851L9.74543 14.873ZM26.8976 18.8412L26.7545 18.955L26.1162 18.7671L25.3389 18.3022L25.4531 17.3886L25.6526 16.9922L27.0709 18.0168L27.0888 18.4023L26.8976 18.8412ZM10.0894 20.6518L9.91739 20.6888L9.68489 20.1498L9.65462 19.9797L9.92839 19.6341L10.1045 19.2417L10.5626 18.6382L10.8254 17.9291L10.9258 17.94L10.8089 18.5724L10.2077 20.3267L10.0894 20.6518ZM7.49066 19.7479L7.08897 19.8398L6.88397 19.6779L6.50705 19.6162L6.37224 18.5861L6.41074 18.5243L6.60058 18.5971L7.25132 19.0785L7.47828 19.6039L7.49066 19.7479ZM17.0971 19.217L16.9499 19.3172L16.357 19.2445L15.6884 19.7081L15.4353 19.5613L15.5316 19.2651L15.6017 19.1567L15.826 19.0305L15.9759 18.8467L16.0351 18.5586L16.1741 18.7136L16.5881 18.7781L16.7904 18.87L16.9596 19.0058L17.0971 19.217ZM9.12501 20.0058L8.86635 20.0757L8.57059 19.9303L8.0877 19.383L8.0272 19.2376L8.28032 19.3295L8.59536 19.6162L8.85263 19.6779L9.20478 19.9193L9.12501 20.0058ZM12.5106 19.7122L13.1943 20.1264L13.6565 20.1018L13.9716 20.2732L14.0472 20.538L14.0747 21.125L13.7446 21.2965L13.38 21.2389L12.8834 21.4624L11.2545 20.5036L11.2779 19.7012L11.3426 19.3857L12.1144 19.3103L12.5106 19.7122Z"/>
</mask>
<path d="M6.24977 20.1539H6.19201L5.94578 20.0949L5.77104 19.9536L5.31847 20.0538L4.71316 20.2815L4.37747 20.2705L4.11058 20.0263L3.01827 19.6779L2.8422 19.6491L2.12135 19.6354H2.11997L2.08558 19.084L1.99616 18.6848L1.743 18.0895L2.11719 17.9455L2.04431 16.7796L1.90812 16.1747L0.863965 15.5506L0.0412691 14.9429L0.231115 12.8854L0.31231 12.3285L0 11.2449L0.0330405 9.9912L0.165118 8.00504L0.426504 7.92688L0.619079 7.93647L1.35919 8.29445L1.66735 8.33012L1.87924 8.64972L2.12685 8.78141L2.3057 8.4426L2.37585 7.86242L2.96189 7.10936L3.37324 6.83091L3.65385 6.69783L3.93723 7.00237L4.15324 7.3439L4.20412 6.59637L4.37885 5.16572L3.8217 4.94077L3.36635 5.13554L2.91651 6.04356L2.51477 7.18069L1.86269 7.28492L1.34269 7.6059L0.873579 7.27257L0.570925 6.97905L0.564039 6.54973L0.632849 6.29045L1.1845 5.36049L1.92462 4.46478L2.67023 4.47302L3.21362 4.18632L3.53831 4.15204L4.5522 4.21378L5.0722 4.01625L5.53854 3.60477L6.54559 1.85314L7.11374 1.11929L8.25966 0.861435L9.31897 0.0109673L9.61474 0L9.11674 0.633717L9.03693 0.879267L8.97643 1.2537L9.33274 2.06574L9.25705 2.55952L9.2832 3.52795L8.94616 4.03136L8.56647 5.09849L8.40274 5.25488L8.36697 6.49486L8.40412 6.78976L8.34908 7.91177L8.73843 8.36993L9.14974 8.60857L10.5227 8.60037L10.6658 8.80062L10.8336 9.14492L10.7112 9.72924L10.564 10.1695L10.1664 10.5399L9.65601 10.8156L9.33824 10.8279L8.90624 10.304L8.70128 10.4741L8.48943 10.7415L8.13312 12.1708L7.96389 13.1323L7.87312 13.2105L7.67228 13.0679L7.32558 13.0569L6.88674 13.2846L7.11235 13.4876L7.35035 13.8401L7.25543 14.0171L6.86885 14.2077L6.52632 14.5932L6.38324 14.884L5.95266 15.2283L5.68024 15.6644L5.8137 16.2035L5.87008 16.6767L5.98843 17.198L5.88112 17.6136L5.34597 18.2089L5.14924 18.7233L5.60735 18.7164L5.88935 18.8344L6.05443 18.9866L6.22505 19.202L6.12047 19.4681L6.24977 20.1539ZM11.3165 3.45662L11.1596 3.6226L10.6286 3.38801L10.8625 3.05883L11.4458 2.90658L11.7883 2.95732L11.4114 3.28378L11.3165 3.45662ZM17.1728 13.6783L17.1824 14.3613L17.082 14.5603L16.9348 14.6919L16.5496 14.8305L16.2153 15.0239L15.9168 15.3627L15.8067 15.8469L16.0392 16.2007L16.4629 16.3941L16.5716 17.0663L16.2222 17.3968L15.3252 17.726L15.2317 18.5202L15.2606 19.1443L15.2441 19.597L15.1726 20.2225L14.4476 20.5064L13.9784 19.5545L13.9743 19.1718L13.834 18.7246L13.8079 18.3433L13.6414 17.7329L12.9549 17.5669L12.6881 17.545L12.3152 17.6588L12.223 17.6149L11.776 16.7782L11.8502 15.851L11.6122 15.3819L11.5792 15.1693L11.5847 14.9334L11.388 14.7386L11.1514 14.6357L11.0358 14.1103L11.3082 13.9828L11.9837 14.0445L12.1818 14.0088L12.362 13.8991L12.9082 13.0322L12.8916 12.8402L12.9494 12.5919L13.5396 12.5L13.8024 12.836L13.7487 13.3737L13.7817 14.0596L14.1394 14.2461L14.2783 14.2736L14.4283 13.7674L14.5329 13.5205L14.6746 13.382L14.7227 12.9183L14.6388 12.6344L14.4599 12.4218L15.1285 11.8457L15.8205 11.3876L16.2236 11.3629L16.628 11.4753L17.005 11.629L17.2086 11.762L17.3227 11.976L17.0696 12.4849L16.9995 12.762L17.1728 13.6783ZM9.59963 13.692L9.53359 13.8141L9.2887 13.6865L9.26255 13.2448L9.35474 12.847L9.24605 12.4904L9.36574 12.2614L9.70966 12.7949L9.80732 13.0459L9.67389 13.3449L9.59963 13.692ZM17.547 14.9622L17.1838 15.2516L17.104 15.2365L16.9857 14.84L17.1783 14.5986L17.2911 14.3943L17.3723 14.3998L17.4823 14.622L17.547 14.9622ZM9.74543 14.873L9.90639 15.2269L10.1045 15.9813L10.4181 16.8235L10.2875 17.1746L10.3769 17.6245L10.2875 18.0923L9.66428 18.6354L8.96539 18.6601L8.23905 18.3982L7.21278 17.892L7.13024 17.6081L6.98716 17.4503L6.71201 16.5848L6.71755 15.5135L7.23343 15.3777L8.36013 14.8647L8.62012 14.9457L8.89251 15.2077L9.20616 15.2228L9.66012 14.851L9.74543 14.873ZM26.8976 18.8412L26.7545 18.955L26.1162 18.7671L25.3389 18.3022L25.4531 17.3886L25.6526 16.9922L27.0709 18.0168L27.0888 18.4023L26.8976 18.8412ZM10.0894 20.6518L9.91739 20.6888L9.68489 20.1498L9.65462 19.9797L9.92839 19.6341L10.1045 19.2417L10.5626 18.6382L10.8254 17.9291L10.9258 17.94L10.8089 18.5724L10.2077 20.3267L10.0894 20.6518ZM7.49066 19.7479L7.08897 19.8398L6.88397 19.6779L6.50705 19.6162L6.37224 18.5861L6.41074 18.5243L6.60058 18.5971L7.25132 19.0785L7.47828 19.6039L7.49066 19.7479ZM17.0971 19.217L16.9499 19.3172L16.357 19.2445L15.6884 19.7081L15.4353 19.5613L15.5316 19.2651L15.6017 19.1567L15.826 19.0305L15.9759 18.8467L16.0351 18.5586L16.1741 18.7136L16.5881 18.7781L16.7904 18.87L16.9596 19.0058L17.0971 19.217ZM9.12501 20.0058L8.86635 20.0757L8.57059 19.9303L8.0877 19.383L8.0272 19.2376L8.28032 19.3295L8.59536 19.6162L8.85263 19.6779L9.20478 19.9193L9.12501 20.0058ZM12.5106 19.7122L13.1943 20.1264L13.6565 20.1018L13.9716 20.2732L14.0472 20.538L14.0747 21.125L13.7446 21.2965L13.38 21.2389L12.8834 21.4624L11.2545 20.5036L11.2779 19.7012L11.3426 19.3857L12.1144 19.3103L12.5106 19.7122Z" fill="var(--fill-0, #71B219)" stroke="var(--stroke-0, white)" mask="url(#path-1-inside-1_0_181)"/>
</g>
</svg>
