<svg preserveAspectRatio="none" width="100%" height="100%" overflow="visible" style="display: block;" viewBox="0 0 14.1366 9.20934" fill="none" xmlns="http://www.w3.org/2000/svg">
<g id="DO">
<mask id="path-1-inside-1_0_175" fill="white">
<path d="M0.896963 7.58803L0.913462 6.92417L1.01661 6.65392L0.921733 6.36999L0.493886 6.06822L0.232501 5.67867L0 5.33437L0.0522686 5.28502L0.51727 5.26991L0.680961 5.14236L0.99323 4.78986L1.05515 4.50592L1.03038 4.29056L0.82681 4.03404L0.747 3.76245L0.997386 3.52653L1.32615 3.18089L1.37158 3.04782L1.36469 2.91613L0.980887 2.55266L0.954731 2.39493L1.13358 1.99986L1.11569 1.7379L0.938232 0.918992L0.854309 0.796929L1.02488 0.72832L1.13769 0.484193L1.28627 0.266103L1.48439 0.149482L1.71 0.0754315L2.15708 0.0822965L2.77616 0.271587L2.95223 0.268824L3.54654 0.0959847L4.03904 0L4.504 0.109715L4.6925 0.257857L5.07493 0.492398L5.26754 0.562388L5.87285 0.558243L6.03927 0.581559L6.54693 0.968387L6.97477 1.12339L7.22377 1.13022L7.66951 0.980735L7.89097 0.984838L8.14412 1.31817L8.19362 1.79139L8.40547 2.22209L8.73016 2.49778L10.3301 2.38258L10.6864 2.60888L10.5653 2.79545L10.3383 2.89557L9.57758 2.85166L9.24605 2.87364L9.17862 3.06017L9.17724 3.23301L9.62158 3.27416L10.0577 3.36055L10.5034 3.50049L10.9547 3.59514L11.4637 3.65684L11.9658 3.75697L12.8022 4.09578L13.7253 4.86391L13.9729 5.03947L14.1366 5.27954L14.0582 5.57716L13.728 6.06274L13.5409 6.21774L13.2685 6.31377L13.0815 6.51126L12.9012 6.85008L12.7912 6.87888L12.6619 6.86515L12.4404 6.67314L12.2822 6.37823L11.8351 6.10116L11.3054 6.13683L10.524 5.97357L10.0522 6.05177L9.57897 6.07098L9.09608 5.9873L8.60908 5.9585L8.12347 6.06274L7.65297 6.23968L7.47966 6.35354L7.17701 6.62923L7.01604 6.73212L5.87008 6.87067L5.54127 6.66765L5.2345 6.39058L4.79427 6.35354L4.15458 6.56752L3.75566 6.64572L3.59331 6.73622L3.54516 6.84183L3.54377 7.22866L3.45435 7.4632L2.83115 8.34929L2.48039 8.9748L2.33592 9.16681L2.16808 9.20934L1.86131 8.84998L1.66596 8.72105L1.42385 8.6552L1.32065 8.46453L1.32481 8.19294L1.2615 7.92956L1.11154 7.72244L0.896963 7.58803Z"/>
</mask>
<path d="M0.896963 7.58803L0.913462 6.92417L1.01661 6.65392L0.921733 6.36999L0.493886 6.06822L0.232501 5.67867L0 5.33437L0.0522686 5.28502L0.51727 5.26991L0.680961 5.14236L0.99323 4.78986L1.05515 4.50592L1.03038 4.29056L0.82681 4.03404L0.747 3.76245L0.997386 3.52653L1.32615 3.18089L1.37158 3.04782L1.36469 2.91613L0.980887 2.55266L0.954731 2.39493L1.13358 1.99986L1.11569 1.7379L0.938232 0.918992L0.854309 0.796929L1.02488 0.72832L1.13769 0.484193L1.28627 0.266103L1.48439 0.149482L1.71 0.0754315L2.15708 0.0822965L2.77616 0.271587L2.95223 0.268824L3.54654 0.0959847L4.03904 0L4.504 0.109715L4.6925 0.257857L5.07493 0.492398L5.26754 0.562388L5.87285 0.558243L6.03927 0.581559L6.54693 0.968387L6.97477 1.12339L7.22377 1.13022L7.66951 0.980735L7.89097 0.984838L8.14412 1.31817L8.19362 1.79139L8.40547 2.22209L8.73016 2.49778L10.3301 2.38258L10.6864 2.60888L10.5653 2.79545L10.3383 2.89557L9.57758 2.85166L9.24605 2.87364L9.17862 3.06017L9.17724 3.23301L9.62158 3.27416L10.0577 3.36055L10.5034 3.50049L10.9547 3.59514L11.4637 3.65684L11.9658 3.75697L12.8022 4.09578L13.7253 4.86391L13.9729 5.03947L14.1366 5.27954L14.0582 5.57716L13.728 6.06274L13.5409 6.21774L13.2685 6.31377L13.0815 6.51126L12.9012 6.85008L12.7912 6.87888L12.6619 6.86515L12.4404 6.67314L12.2822 6.37823L11.8351 6.10116L11.3054 6.13683L10.524 5.97357L10.0522 6.05177L9.57897 6.07098L9.09608 5.9873L8.60908 5.9585L8.12347 6.06274L7.65297 6.23968L7.47966 6.35354L7.17701 6.62923L7.01604 6.73212L5.87008 6.87067L5.54127 6.66765L5.2345 6.39058L4.79427 6.35354L4.15458 6.56752L3.75566 6.64572L3.59331 6.73622L3.54516 6.84183L3.54377 7.22866L3.45435 7.4632L2.83115 8.34929L2.48039 8.9748L2.33592 9.16681L2.16808 9.20934L1.86131 8.84998L1.66596 8.72105L1.42385 8.6552L1.32065 8.46453L1.32481 8.19294L1.2615 7.92956L1.11154 7.72244L0.896963 7.58803Z" fill="var(--fill-0, #71B219)" stroke="var(--stroke-0, white)" mask="url(#path-1-inside-1_0_175)"/>
</g>
</svg>
