<svg preserveAspectRatio="none" width="100%" height="100%" overflow="visible" style="display: block;" viewBox="0 0 14 9" fill="none" xmlns="http://www.w3.org/2000/svg"><g id="DO"><mask id="path-1-inside-1_0_175" fill="white"><path d="M1 8L1 7L1 7L1 6L0 6L0 6L0 5L0 5L0 5L1 5L1 5L1 4L1 4L1 4L1 4L1 4L1 3L1 3L1 3L1 3L1 2L1 2L1 2L1 1L1 1L1 1L1 0L1 0L2 0L2 0L2 0L3 0L3 0L4 0L4 0L4 0L5 0L5 0L5 1L6 1L6 1L6 1L7 1L7 1L8 1L8 1L8 1L8 2L8 2L9 2L10 2L11 3L11 3L10 3L10 3L9 3L9 3L9 3L10 3L10 3L10 4L11 4L12 4L12 4L13 4L14 5L14 5L14 5L14 6L14 6L14 6L13 6L13 6L13 7L13 7L13 7L12 7L12 6L12 6L11 6L10 6L10 6L10 6L9 6L9 6L8 6L8 6L8 6L7 7L7 7L6 7L6 7L5 6L5 6L4 7L4 7L4 7L4 7L4 7L4 8L3 8L2 9L2 9L2 9L2 9L2 9L1 9L1 8L1 8L1 8L1 8L1 8Z"/></mask><path d="M1 8L1 7L1 7L1 6L0 6L0 6L0 5L0 5L0 5L1 5L1 5L1 4L1 4L1 4L1 4L1 4L1 3L1 3L1 3L1 3L1 2L1 2L1 2L1 1L1 1L1 1L1 0L1 0L2 0L2 0L2 0L3 0L3 0L4 0L4 0L4 0L5 0L5 0L5 1L6 1L6 1L6 1L7 1L7 1L8 1L8 1L8 1L8 2L8 2L9 2L10 2L11 3L11 3L10 3L10 3L9 3L9 3L9 3L10 3L10 3L10 4L11 4L12 4L12 4L13 4L14 5L14 5L14 5L14 6L14 6L14 6L13 6L13 6L13 7L13 7L13 7L12 7L12 6L12 6L11 6L10 6L10 6L10 6L9 6L9 6L8 6L8 6L8 6L7 7L7 7L6 7L6 7L5 6L5 6L4 7L4 7L4 7L4 7L4 7L4 8L3 8L2 9L2 9L2 9L2 9L2 9L1 9L1 8L1 8L1 8L1 8L1 8Z" fill="var(--fill-0,#71B219)" stroke="var(--stroke-0,white)" mask="url(#path-1-inside-1_0_175)"/></g></svg>