<svg preserveAspectRatio="none" width="100%" height="100%" overflow="visible" style="display: block;" viewBox="0 0 80 79" fill="none" xmlns="http://www.w3.org/2000/svg"><g id="DZ"><mask id="path-1-inside-1_0_176" fill="white"><path d="M67 1L67 1L67 1L66 2L66 2L66 2L65 3L65 3L65 3L66 3L66 3L66 4L66 4L66 5L65 6L65 6L66 6L66 7L66 7L66 8L66 8L66 9L66 10L66 10L65 11L65 11L65 12L65 12L65 12L64 12L64 13L63 13L63 14L62 14L62 15L62 15L63 16L63 17L63 18L63 18L64 18L64 18L65 19L65 19L65 20L66 20L66 21L66 22L67 22L68 23L68 23L68 23L69 24L69 25L69 26L69 28L70 29L70 30L70 31L70 32L70 32L70 32L70 33L70 34L71 34L71 35L71 35L71 36L71 36L72 37L71 39L72 41L72 42L72 43L71 44L71 45L71 46L72 46L72 46L72 47L72 48L71 48L70 49L70 49L70 49L70 50L70 50L71 52L72 53L72 53L72 54L73 55L73 56L73 56L73 56L74 56L74 56L75 56L76 57L78 57L78 57L78 58L79 59L79 60L80 60L78 62L76 63L74 64L72 66L70 67L68 68L66 69L64 71L62 71L62 72L60 73L60 74L59 75L58 76L57 76L56 77L56 77L54 78L53 78L52 78L51 78L50 78L49 79L48 79L47 79L47 79L46 79L46 79L46 79L46 79L46 79L46 78L46 78L46 78L46 78L46 78L46 78L46 77L46 77L46 77L46 76L46 76V76L46 76L45 75L45 75L44 75L44 75L43 75L43 75L42 74L42 74L41 74L41 74L40 74L40 73L40 73L40 73L40 73L38 72L38 72L38 72L38 71L38 71L38 71L38 70L37 70L36 69L35 68L34 67L32 66L31 66L30 65L28 64L27 63L26 62L25 61L24 60L22 59L21 58L20 58L18 57L17 56L16 55L15 54L14 54L13 53L12 52L12 52L11 52L10 51L9 51L9 50L8 50L7 49L6 49L6 48L5 48L4 47L4 47L3 46L2 46L2 45L1 45L0 44V44V43V42V41V40V39V39L0 38L0 38L0 38L1 38L1 37L2 37L3 36L3 36L4 36L4 35L5 35L5 35L5 35L6 34L6 34L6 34L6 34L7 34L7 34L8 34L8 34L8 34L8 34L8 34L8 34L8 34L8 33L9 34L9 34L10 34L10 33L10 33L11 33L12 33L12 33L13 32L14 32L14 31L14 31L15 30L16 30L16 30L17 30L18 29L18 29L19 28L19 28L19 28L20 28L20 28L19 28L19 28L19 28L19 28L19 27L19 27L19 27L19 27L19 26L19 26L19 26L19 25L19 25L19 25L19 25L20 25L20 25L22 24L22 24L22 24L22 24L22 23L22 23L23 23L24 23L24 23L25 23L26 23L26 23L27 23L28 23L29 23L29 23V23L29 22L29 22L29 22L29 22L29 21L29 21L28 21L28 20L28 20L28 20L28 19L27 18L27 18L27 17L27 16L27 16L27 15L27 15L27 14L27 13L27 13L27 12L27 12L26 12L26 12L26 12L27 11L27 11L26 11L25 10L25 10L25 9L26 10L26 10L27 9L28 8L28 8L29 8L29 7L30 7L32 6L32 6L33 6L33 6L34 6L34 5L35 4L36 4L37 4L37 3L38 3L41 2L43 2L44 2L44 2L45 2L47 1L48 1H52L52 1L53 1L54 2L54 2L54 2L56 1L57 1L58 1L58 0L59 0L59 0L60 1L61 1L62 1L61 0L62 0L63 0L64 1L64 1L65 1L67 1Z"/></mask><path d="M67 1L67 1L67 1L66 2L66 2L66 2L65 3L65 3L65 3L66 3L66 3L66 4L66 4L66 5L65 6L65 6L66 6L66 7L66 7L66 8L66 8L66 9L66 10L66 10L65 11L65 11L65 12L65 12L65 12L64 12L64 13L63 13L63 14L62 14L62 15L62 15L63 16L63 17L63 18L63 18L64 18L64 18L65 19L65 19L65 20L66 20L66 21L66 22L67 22L68 23L68 23L68 23L69 24L69 25L69 26L69 28L70 29L70 30L70 31L70 32L70 32L70 32L70 33L70 34L71 34L71 35L71 35L71 36L71 36L72 37L71 39L72 41L72 42L72 43L71 44L71 45L71 46L72 46L72 46L72 47L72 48L71 48L70 49L70 49L70 49L70 50L70 50L71 52L72 53L72 53L72 54L73 55L73 56L73 56L73 56L74 56L74 56L75 56L76 57L78 57L78 57L78 58L79 59L79 60L80 60L78 62L76 63L74 64L72 66L70 67L68 68L66 69L64 71L62 71L62 72L60 73L60 74L59 75L58 76L57 76L56 77L56 77L54 78L53 78L52 78L51 78L50 78L49 79L48 79L47 79L47 79L46 79L46 79L46 79L46 79L46 79L46 78L46 78L46 78L46 78L46 78L46 78L46 77L46 77L46 77L46 76L46 76V76L46 76L45 75L45 75L44 75L44 75L43 75L43 75L42 74L42 74L41 74L41 74L40 74L40 73L40 73L40 73L40 73L38 72L38 72L38 72L38 71L38 71L38 71L38 70L37 70L36 69L35 68L34 67L32 66L31 66L30 65L28 64L27 63L26 62L25 61L24 60L22 59L21 58L20 58L18 57L17 56L16 55L15 54L14 54L13 53L12 52L12 52L11 52L10 51L9 51L9 50L8 50L7 49L6 49L6 48L5 48L4 47L4 47L3 46L2 46L2 45L1 45L0 44V44V43V42V41V40V39V39L0 38L0 38L0 38L1 38L1 37L2 37L3 36L3 36L4 36L4 35L5 35L5 35L5 35L6 34L6 34L6 34L6 34L7 34L7 34L8 34L8 34L8 34L8 34L8 34L8 34L8 34L8 33L9 34L9 34L10 34L10 33L10 33L11 33L12 33L12 33L13 32L14 32L14 31L14 31L15 30L16 30L16 30L17 30L18 29L18 29L19 28L19 28L19 28L20 28L20 28L19 28L19 28L19 28L19 28L19 27L19 27L19 27L19 27L19 26L19 26L19 26L19 25L19 25L19 25L19 25L20 25L20 25L22 24L22 24L22 24L22 24L22 23L22 23L23 23L24 23L24 23L25 23L26 23L26 23L27 23L28 23L29 23L29 23V23L29 22L29 22L29 22L29 22L29 21L29 21L28 21L28 20L28 20L28 20L28 19L27 18L27 18L27 17L27 16L27 16L27 15L27 15L27 14L27 13L27 13L27 12L27 12L26 12L26 12L26 12L27 11L27 11L26 11L25 10L25 10L25 9L26 10L26 10L27 9L28 8L28 8L29 8L29 7L30 7L32 6L32 6L33 6L33 6L34 6L34 5L35 4L36 4L37 4L37 3L38 3L41 2L43 2L44 2L44 2L45 2L47 1L48 1H52L52 1L53 1L54 2L54 2L54 2L56 1L57 1L58 1L58 0L59 0L59 0L60 1L61 1L62 1L61 0L62 0L63 0L64 1L64 1L65 1L67 1Z" fill="var(--fill-0,#71B219)" stroke="var(--stroke-0,white)" mask="url(#path-1-inside-1_0_176)"/></g></svg>