<svg preserveAspectRatio="none" width="100%" height="100%" overflow="visible" style="display: block;" viewBox="0 0 79.7311 79.0779" fill="none" xmlns="http://www.w3.org/2000/svg">
<g id="DZ">
<mask id="path-1-inside-1_0_176" fill="white">
<path d="M66.6386 0.744813L66.7197 0.999949L66.7335 1.23863L66.3675 1.46083L66.1268 1.58976L65.8379 2.20288L65.3028 2.6185L65.2134 2.74471L65.2175 2.85857L65.5807 3.04648L65.7017 3.2248L65.7581 3.46345L65.5958 4.31663L65.494 4.96956L65.3605 5.82409L65.366 6.14918L65.5036 6.53872L65.6398 6.84187L65.6825 7.18479L65.6343 8.02835L65.8008 8.51531L65.9342 8.96384L65.6164 9.52212L65.4802 10.0145L65.3949 10.7182L65.3605 11.1612L65.1556 11.57L64.8887 11.9527L64.5874 12.1914L64.216 12.3971L63.7881 12.6673L63.4415 13.3902L62.6917 13.991L62.5349 14.1967L62.4647 14.6768L62.4826 15.3421L62.6147 15.8702L62.9737 16.6493L63.2888 17.5052L63.374 17.9345L63.4951 18.0977L63.9381 18.3776L64.7044 18.7562L64.846 18.9111L65.2257 19.4982L65.5862 20.5489L65.699 21.243L66.4006 21.7944L67.0486 22.3019L67.6704 22.7477L68.3458 23.2305L68.4435 23.3787L68.6677 24.4006L68.892 25.4128L69.1368 26.5253L69.3845 27.639L69.6761 28.9462L69.8412 29.6856L70.0407 30.5813L70.2759 31.6292L69.8976 31.8514L69.4711 32.1354L69.7821 32.6731L70.3818 33.5468L70.7436 34.2505L70.8702 34.5563L71.1522 35.4274L71.382 36.2696L71.4411 36.5425L71.5251 37.19L71.4219 38.9676L71.5869 41.2158L71.8098 42.3323L71.459 43.3378L71.1591 44.2966L71.1784 44.778L71.3434 45.5283L71.5058 46.0825L71.7259 46.3733L71.6832 47.3046L71.5911 47.642L70.917 48.129L70.17 48.5748L69.9636 48.952L69.9045 49.3717L70.0035 49.7133L70.5167 50.4677L71.2884 51.5965L72.1372 52.8365L72.2074 53.1479L72.2418 54.0258L72.5953 55.1272L72.9778 55.6073L73.1209 55.9653L73.3919 56.2218L73.6615 56.4097L73.8293 56.4317L74.7827 56.1327L76.4129 56.6264L77.955 57.1285L78.0678 57.2272L78.4049 57.8623L78.9565 58.8979L79.3651 59.725L79.7311 60.4644L77.7322 61.7373L75.7319 63.0074L73.733 64.2749L71.7341 65.5382L69.7352 66.8001L67.735 68.0593L65.7361 69.3157L63.7372 70.568L62.4111 71.3979L61.5678 72.1304L60.5099 73.0453L59.5111 73.9533L58.7256 74.668L57.7076 75.5897L57.1944 76.0547L56.0595 77.0821L55.7183 77.2645L54.2147 77.5676L52.8349 77.8448L51.561 78.1012L50.6902 78.2768L49.8468 78.4455L48.6211 78.6842L47.7462 78.8557L46.8025 79.0395L46.6553 79.071L46.4846 79.0779L46.3567 79.071L46.0953 78.9695L45.7803 78.7295L45.5698 78.606L45.5176 78.4167L45.64 78.1644L45.7927 77.938L45.8505 77.7597L45.955 77.6239L46.0898 77.5142L46.0953 77.3592L45.9839 77.104L45.8862 76.7515L45.8904 76.111L45.8931 75.897V75.8202L45.6111 75.5746L45.0787 75.3031L44.589 75.1439L44.3661 75.0891L43.8255 74.993L43.0785 74.8216L42.8157 74.7036L42.3315 74.107L42.0935 73.9547L40.9723 73.8532L40.5995 73.7544L40.294 73.6131L40.0327 73.4211L39.8855 73.0933L39.8415 72.8258L39.7438 72.6982L38.507 72.0508L38.192 71.8314L38.0255 71.627L38.02 71.3239L38.053 70.9521L38.0008 70.6215L37.9485 70.4597L37.3831 70.0674L36.1188 69.1868L34.8546 68.3062L33.5903 67.4242L32.326 66.5409L31.0618 65.6561L29.7975 64.77L28.5333 63.8826L27.269 62.9937L26.0047 62.1021L24.7391 61.2119L23.4762 60.3176L22.2119 59.4233L20.9477 58.5276L19.6821 57.6291L18.4178 56.7293L17.1535 55.8281L16.0846 55.0669L14.9056 54.2603L14.0293 53.6692L13.1599 53.0793L12.2244 52.447L11.6164 52.0547L10.8914 51.5856L10.165 51.1151L9.43862 50.6446L8.71228 50.1741L7.98589 49.7036L7.25954 49.2318L6.53454 48.76L5.80816 48.2867L5.08181 47.8135L4.35681 47.3403L3.63047 46.867L2.90408 46.3924L2.17773 45.9179L1.45135 45.4419L0.725001 44.9659L0 44.49V43.6093V42.8919V41.8358V40.9168V39.9978V39.364V38.7029L0.0192701 38.4039L0.0907669 38.2763L0.482845 38.061L1.09642 37.5699L1.32342 37.3518L1.61369 37.131L2.64131 36.4657L2.85454 36.2792L3.85331 35.5124L4.0872 35.3999L4.62369 35.3245L4.84793 35.1805L5.14919 34.8732L5.5922 34.5221L5.8797 34.3547L5.9485 34.3246L6.13285 34.2999L7.05593 34.4041L7.44385 34.4823L7.90747 34.5481L8.05193 34.5029L8.17574 34.3931L8.35047 34.1476L8.38758 33.8554L8.39858 33.6003L8.42612 33.4892L8.50727 33.4384L8.70951 33.4577L8.97916 33.4919L9.53077 33.481L9.71789 33.4453L10.3438 33.3905L11.2284 33.2245L11.93 33.0077L12.4885 32.8363L13.087 32.385L13.5258 31.909L13.9812 31.1985L14.343 30.5813L15.0762 30.1958L15.6884 29.9613L16.0392 29.8694L16.8344 29.5429L17.507 29.0491L18.1385 28.5855L18.6214 28.5238L19.2322 28.447L19.3684 28.3605L19.5224 28.1959L19.5307 27.9051L19.3464 27.7008L19.1235 27.5938L18.9653 27.4758L18.8085 27.4539L18.7246 27.314L18.7713 27.0561L18.7947 26.8174L18.8951 26.5788L18.8676 26.2413L18.7108 25.9039L18.6626 25.6611L18.6737 25.4197L18.7507 25.2318L18.9763 25.107L19.2391 25.059L19.6077 25.1193L20.2447 25.0384L21.8749 24.454L21.9877 24.2743L22.0922 23.8697L22.2092 23.5145L22.3784 23.3951L22.4706 23.369L23.014 23.2731L23.783 23.1386L24.0719 23.1194L24.9111 23.1578L25.5219 23.1866L26.5096 23.2332L27.2112 23.2566L27.822 23.2772L28.6006 23.3046L28.7919 23.2223V22.963L28.6516 22.4802L28.7369 22.1785L29.0368 21.8986L29.4109 21.5859L29.2362 21.2046L28.9377 20.9495L28.5209 20.6422L28.3049 20.5174L27.9266 20.1457L27.6954 19.7218L27.5386 18.8275L27.2511 18.3255L27.042 17.7054L27.2277 16.5656L26.9498 15.8757L26.9072 15.5766L26.9044 15.2241L26.9897 14.6137L26.9347 13.7537L26.6073 12.8648L26.7614 12.5617L26.8329 12.404L26.8095 12.2682L26.511 11.9856L26.3844 11.7511L26.4504 11.5316L26.6059 11.212L26.5921 11.0776L26.1093 10.688L25.2949 10.0557L25.0665 9.7786L24.9551 9.43158L25.7351 9.52074L26.1382 9.47821L27.0626 9.0612L27.7973 8.49747L28.3682 8.21078L28.8703 7.59217L29.3256 7.20124L29.9832 6.77879L31.8803 5.86662L32.1706 5.85976L32.7951 6.06688L33.3385 6.00242L33.71 5.68282L34.1103 4.91192L34.7308 4.44146L35.5135 3.96962L36.5783 3.51832L37.2758 3.1027L38.3791 2.74195L41.1483 2.51289L42.5708 2.30853L43.5379 2.35516L44.5147 1.69403L45.003 1.4759L47.1175 1.42516L48.1149 0.940969H51.8953L52.3575 1.10284L52.8115 1.36342L53.5846 1.99027L53.9698 2.12745L54.4692 1.99714L55.6303 1.40323L56.9399 1.09321L57.6525 0.739329L57.9552 0.222192L58.5688 0.0315624L58.914 0.429315L60.2718 0.829872L61.1055 0.714632L61.4715 0.59395L61.3394 0L62.2212 0.157728L62.8981 0.444426L63.6065 1.01778L64.066 1.13164L64.9024 0.873742L66.6386 0.744813Z"/>
</mask>
<path d="M66.6386 0.744813L66.7197 0.999949L66.7335 1.23863L66.3675 1.46083L66.1268 1.58976L65.8379 2.20288L65.3028 2.6185L65.2134 2.74471L65.2175 2.85857L65.5807 3.04648L65.7017 3.2248L65.7581 3.46345L65.5958 4.31663L65.494 4.96956L65.3605 5.82409L65.366 6.14918L65.5036 6.53872L65.6398 6.84187L65.6825 7.18479L65.6343 8.02835L65.8008 8.51531L65.9342 8.96384L65.6164 9.52212L65.4802 10.0145L65.3949 10.7182L65.3605 11.1612L65.1556 11.57L64.8887 11.9527L64.5874 12.1914L64.216 12.3971L63.7881 12.6673L63.4415 13.3902L62.6917 13.991L62.5349 14.1967L62.4647 14.6768L62.4826 15.3421L62.6147 15.8702L62.9737 16.6493L63.2888 17.5052L63.374 17.9345L63.4951 18.0977L63.9381 18.3776L64.7044 18.7562L64.846 18.9111L65.2257 19.4982L65.5862 20.5489L65.699 21.243L66.4006 21.7944L67.0486 22.3019L67.6704 22.7477L68.3458 23.2305L68.4435 23.3787L68.6677 24.4006L68.892 25.4128L69.1368 26.5253L69.3845 27.639L69.6761 28.9462L69.8412 29.6856L70.0407 30.5813L70.2759 31.6292L69.8976 31.8514L69.4711 32.1354L69.7821 32.6731L70.3818 33.5468L70.7436 34.2505L70.8702 34.5563L71.1522 35.4274L71.382 36.2696L71.4411 36.5425L71.5251 37.19L71.4219 38.9676L71.5869 41.2158L71.8098 42.3323L71.459 43.3378L71.1591 44.2966L71.1784 44.778L71.3434 45.5283L71.5058 46.0825L71.7259 46.3733L71.6832 47.3046L71.5911 47.642L70.917 48.129L70.17 48.5748L69.9636 48.952L69.9045 49.3717L70.0035 49.7133L70.5167 50.4677L71.2884 51.5965L72.1372 52.8365L72.2074 53.1479L72.2418 54.0258L72.5953 55.1272L72.9778 55.6073L73.1209 55.9653L73.3919 56.2218L73.6615 56.4097L73.8293 56.4317L74.7827 56.1327L76.4129 56.6264L77.955 57.1285L78.0678 57.2272L78.4049 57.8623L78.9565 58.8979L79.3651 59.725L79.7311 60.4644L77.7322 61.7373L75.7319 63.0074L73.733 64.2749L71.7341 65.5382L69.7352 66.8001L67.735 68.0593L65.7361 69.3157L63.7372 70.568L62.4111 71.3979L61.5678 72.1304L60.5099 73.0453L59.5111 73.9533L58.7256 74.668L57.7076 75.5897L57.1944 76.0547L56.0595 77.0821L55.7183 77.2645L54.2147 77.5676L52.8349 77.8448L51.561 78.1012L50.6902 78.2768L49.8468 78.4455L48.6211 78.6842L47.7462 78.8557L46.8025 79.0395L46.6553 79.071L46.4846 79.0779L46.3567 79.071L46.0953 78.9695L45.7803 78.7295L45.5698 78.606L45.5176 78.4167L45.64 78.1644L45.7927 77.938L45.8505 77.7597L45.955 77.6239L46.0898 77.5142L46.0953 77.3592L45.9839 77.104L45.8862 76.7515L45.8904 76.111L45.8931 75.897V75.8202L45.6111 75.5746L45.0787 75.3031L44.589 75.1439L44.3661 75.0891L43.8255 74.993L43.0785 74.8216L42.8157 74.7036L42.3315 74.107L42.0935 73.9547L40.9723 73.8532L40.5995 73.7544L40.294 73.6131L40.0327 73.4211L39.8855 73.0933L39.8415 72.8258L39.7438 72.6982L38.507 72.0508L38.192 71.8314L38.0255 71.627L38.02 71.3239L38.053 70.9521L38.0008 70.6215L37.9485 70.4597L37.3831 70.0674L36.1188 69.1868L34.8546 68.3062L33.5903 67.4242L32.326 66.5409L31.0618 65.6561L29.7975 64.77L28.5333 63.8826L27.269 62.9937L26.0047 62.1021L24.7391 61.2119L23.4762 60.3176L22.2119 59.4233L20.9477 58.5276L19.6821 57.6291L18.4178 56.7293L17.1535 55.8281L16.0846 55.0669L14.9056 54.2603L14.0293 53.6692L13.1599 53.0793L12.2244 52.447L11.6164 52.0547L10.8914 51.5856L10.165 51.1151L9.43862 50.6446L8.71228 50.1741L7.98589 49.7036L7.25954 49.2318L6.53454 48.76L5.80816 48.2867L5.08181 47.8135L4.35681 47.3403L3.63047 46.867L2.90408 46.3924L2.17773 45.9179L1.45135 45.4419L0.725001 44.9659L0 44.49V43.6093V42.8919V41.8358V40.9168V39.9978V39.364V38.7029L0.0192701 38.4039L0.0907669 38.2763L0.482845 38.061L1.09642 37.5699L1.32342 37.3518L1.61369 37.131L2.64131 36.4657L2.85454 36.2792L3.85331 35.5124L4.0872 35.3999L4.62369 35.3245L4.84793 35.1805L5.14919 34.8732L5.5922 34.5221L5.8797 34.3547L5.9485 34.3246L6.13285 34.2999L7.05593 34.4041L7.44385 34.4823L7.90747 34.5481L8.05193 34.5029L8.17574 34.3931L8.35047 34.1476L8.38758 33.8554L8.39858 33.6003L8.42612 33.4892L8.50727 33.4384L8.70951 33.4577L8.97916 33.4919L9.53077 33.481L9.71789 33.4453L10.3438 33.3905L11.2284 33.2245L11.93 33.0077L12.4885 32.8363L13.087 32.385L13.5258 31.909L13.9812 31.1985L14.343 30.5813L15.0762 30.1958L15.6884 29.9613L16.0392 29.8694L16.8344 29.5429L17.507 29.0491L18.1385 28.5855L18.6214 28.5238L19.2322 28.447L19.3684 28.3605L19.5224 28.1959L19.5307 27.9051L19.3464 27.7008L19.1235 27.5938L18.9653 27.4758L18.8085 27.4539L18.7246 27.314L18.7713 27.0561L18.7947 26.8174L18.8951 26.5788L18.8676 26.2413L18.7108 25.9039L18.6626 25.6611L18.6737 25.4197L18.7507 25.2318L18.9763 25.107L19.2391 25.059L19.6077 25.1193L20.2447 25.0384L21.8749 24.454L21.9877 24.2743L22.0922 23.8697L22.2092 23.5145L22.3784 23.3951L22.4706 23.369L23.014 23.2731L23.783 23.1386L24.0719 23.1194L24.9111 23.1578L25.5219 23.1866L26.5096 23.2332L27.2112 23.2566L27.822 23.2772L28.6006 23.3046L28.7919 23.2223V22.963L28.6516 22.4802L28.7369 22.1785L29.0368 21.8986L29.4109 21.5859L29.2362 21.2046L28.9377 20.9495L28.5209 20.6422L28.3049 20.5174L27.9266 20.1457L27.6954 19.7218L27.5386 18.8275L27.2511 18.3255L27.042 17.7054L27.2277 16.5656L26.9498 15.8757L26.9072 15.5766L26.9044 15.2241L26.9897 14.6137L26.9347 13.7537L26.6073 12.8648L26.7614 12.5617L26.8329 12.404L26.8095 12.2682L26.511 11.9856L26.3844 11.7511L26.4504 11.5316L26.6059 11.212L26.5921 11.0776L26.1093 10.688L25.2949 10.0557L25.0665 9.7786L24.9551 9.43158L25.7351 9.52074L26.1382 9.47821L27.0626 9.0612L27.7973 8.49747L28.3682 8.21078L28.8703 7.59217L29.3256 7.20124L29.9832 6.77879L31.8803 5.86662L32.1706 5.85976L32.7951 6.06688L33.3385 6.00242L33.71 5.68282L34.1103 4.91192L34.7308 4.44146L35.5135 3.96962L36.5783 3.51832L37.2758 3.1027L38.3791 2.74195L41.1483 2.51289L42.5708 2.30853L43.5379 2.35516L44.5147 1.69403L45.003 1.4759L47.1175 1.42516L48.1149 0.940969H51.8953L52.3575 1.10284L52.8115 1.36342L53.5846 1.99027L53.9698 2.12745L54.4692 1.99714L55.6303 1.40323L56.9399 1.09321L57.6525 0.739329L57.9552 0.222192L58.5688 0.0315624L58.914 0.429315L60.2718 0.829872L61.1055 0.714632L61.4715 0.59395L61.3394 0L62.2212 0.157728L62.8981 0.444426L63.6065 1.01778L64.066 1.13164L64.9024 0.873742L66.6386 0.744813Z" fill="var(--fill-0, #71B219)" stroke="var(--stroke-0, white)" mask="url(#path-1-inside-1_0_176)"/>
</g>
</svg>
