<svg preserveAspectRatio="none" width="100%" height="100%" overflow="visible" style="display: block;" viewBox="0 0 63.3356 24.679" fill="none" xmlns="http://www.w3.org/2000/svg">
<g id="EC">
<mask id="path-1-inside-1_0_174" fill="white">
<path d="M63.2021 5.9791L62.9861 6.11623L62.7619 6.13134L62.4634 6.17387L62.0465 6.04218H61.8828L61.8594 6.17521L62.1359 6.33709L62.4042 6.52227L62.5005 6.80345L62.6601 7.13678L63.0439 7.50987L63.2833 7.6964L63.2984 7.82948L63.2228 8.0736L63.2035 8.27662L63.3356 9.21345L63.2475 9.27109L63.1058 9.27519L62.9559 9.27109L62.832 9.16958L62.7248 9.10922L62.6766 9.25326L62.5651 9.67022L62.3148 10.6085L62.0961 11.4301L61.8209 11.7209L61.4233 12.1831L60.8786 12.8154L60.0889 13.7317L59.5056 14.1569L59.0461 14.4916L58.5083 14.8784L57.8149 15.3777L57.0362 15.6576L55.9522 16.0471L55.1846 16.3228L54.6192 16.5149L54.0304 16.7151L53.2517 16.9798L52.9518 17.2295L52.4524 17.8412L52.2199 18.1361L52.0081 18.3899L51.9641 18.5051L51.993 18.5792L52.0947 18.7026L52.1044 18.8302L51.9641 18.9097L51.843 18.9221L51.7893 18.859L51.7495 18.7191L51.6202 18.5765L51.4702 18.5353L51.3835 18.5696L51.3766 18.6999L51.1799 19.3268L51.173 19.6312L51.0905 19.752L51.096 20.0249L50.8979 20.2787L50.8112 20.505L50.7507 20.697L50.5911 20.8301L50.5333 21.0386L50.3861 21.483L50.2142 21.8314L50.0931 22.1291L50.0711 22.3526L50.1633 22.5104L50.1949 22.638L50.1124 22.867L50.067 23.0385L49.8469 23.1551L49.3901 23.4322L49.2127 23.6228L49.1425 23.8382L49.1879 24.022L49.1686 24.1742L48.9513 24.2318L48.8743 24.3621L48.7271 24.5967L48.5606 24.679L48.1341 24.5542L47.8191 24.5528L47.5756 24.4389L47.3115 24.1015L47.0941 23.8176L46.9166 23.45L46.8616 22.9466L46.6236 22.7984L46.3898 22.6228L46.1091 22.6722L45.7762 22.7052L45.5919 22.5886L45.1365 22.376L44.7485 22.1346L44.4555 22.0138L44.2313 22.0715L44.0965 22.2168L43.8612 22.4761L43.5132 22.6558L43.3564 22.6475L43.1459 22.5282L43.1074 22.3883L43.2793 22.1661L43.6301 21.6778L43.2408 21.6654L43.106 21.5132L43.0867 21.3362L43.0234 21.1456L43.1005 20.9165L43.3041 20.7958L43.6109 20.8904L43.8213 20.8973L43.9617 20.682L44.102 20.5873L44.2423 20.5174L44.3001 20.409L44.1515 20.0647L44.1075 19.8768L44.1529 19.7684L44.146 19.5531L44.1405 19.394L44.0511 19.254L44.0442 19.0455L43.9672 18.9317L43.941 18.811L43.9355 18.6711L43.8392 18.6012L43.7374 18.5298L43.8213 18.4804L44.3744 18.287L44.6041 18.0936L44.8889 17.918L45.1337 17.6478L45.2947 17.39L45.6758 16.1898L46.0348 15.4326L45.9743 15.0705L45.6771 14.5808L45.6097 13.8593L45.6372 13.6398L45.6001 13.4739L45.402 13.7729L45.4529 14.8359L45.2782 15.3147L45.0333 15.4299L44.8737 15.3462L44.9645 14.5698L44.7857 14.7111L44.4995 15.2378L44.0304 15.6287L44.0043 15.759L43.8901 15.9195L43.5283 15.7714L43.2518 15.6109L42.3452 14.7344L41.7495 14.5506L41.3905 14.2447L41.3148 14.1158L41.2722 13.9388L41.6395 13.755L42.015 13.5081L42.0522 12.965L42.0426 12.5384L41.7647 11.8087L41.8954 10.8567L41.8238 10.4836L41.506 9.6922L41.7413 9.29302L42.5818 9.00222L42.8515 8.80745L43.0399 8.17921L43.2312 7.8034L43.6054 7.95426L43.8984 7.93643L43.5022 7.79653L43.1803 7.23004L43.1266 6.97218L43.7484 6.19853L44.0745 5.99693L44.4748 5.58817L44.8118 4.9709L44.893 3.99703L44.754 3.30157L44.6495 2.56501L44.8504 2.37434L45.3621 2.27697L45.7776 2.03967L45.988 1.82019L46.4819 1.8531L47.0528 1.51294L47.9649 1.34148L49.2361 0.953317L49.5167 0.610401L49.3901 0L49.5085 0.0795338L49.862 0.370335L50.0766 0.658372L50.4398 0.836696L50.7328 0.980736L51.5032 1.56506L52.0108 1.86134L52.5652 2.12883L53.3659 2.41L53.8542 2.36199L53.9684 2.57459L54.0634 2.79955L54.2463 2.92986L54.5366 3.04234L54.7086 3.07662L54.7622 3.13288L54.9356 3.94216L55.0374 4.06012L55.4377 4.18905L55.9274 4.23706L56.1269 4.20826L56.5575 4.43321L56.8753 4.53883L57.2261 4.6184L57.4641 4.64172L57.5741 4.60744L57.614 4.5251L57.8094 4.54021L58.0997 4.64444L58.5193 4.66642L58.7793 4.56763L58.815 4.40441L58.8329 4.11772L58.9292 4.01759L59.2277 3.85027L59.3832 3.88456L60.1659 4.24392L60.3269 4.36737L60.525 4.6184L60.8923 4.98874L61.2899 5.22466L61.9048 5.32479L62.4978 5.71162L63.2021 5.9791ZM49.2072 0.781859L48.9898 0.810659L48.8894 0.628233L49.1535 0.415627L49.2443 0.374437L49.2072 0.781859ZM1.47475 5.47569L1.71412 5.72258L1.84481 6.42487L2.61933 7.16558L2.71562 7.57982L2.64683 7.77183L2.6826 7.84731L3.05543 8.13945L3.29893 8.4467L2.89033 9.16682L2.01952 9.46996L1.09092 9.46038L0.907963 9.38218L0.658962 9.1065L0.613558 8.86371L0.756635 8.62912L1.23675 8.27252L1.96862 7.95426L2.05943 7.71013L1.76639 7.47283L1.56418 7.00098L1.10194 6.67042L0.872193 5.66222L0.718116 5.61149L0.404463 5.75L0.250386 5.62794L0.224251 5.56347L0.562654 5.33442L0.632828 5.16978L1.13358 5.09025L1.34817 5.22194L1.47475 5.47569ZM4.1711 6.85008L3.99227 6.96532L3.26452 6.83225L3.03754 6.61005L3.2205 6.30691L3.37458 6.18618L3.80929 6.29866L4.25089 6.63747L4.1711 6.85008ZM0.881828 7.33427L0.493886 7.4015L0.167847 7.26981L0.0288842 7.06683L0 6.76092L0.0288842 6.65941L0.748386 6.54831L0.983616 6.80483L0.980866 7.18065L0.881828 7.33427ZM5.0942 8.52213L4.89335 8.529L4.29493 8.15866L4.33481 7.79515L4.57418 7.55102L5.3487 7.4262L5.67337 7.65664L5.64446 8.09143L5.38033 8.40965L5.17123 8.46729L5.0942 8.52213ZM8.6311 9.05572L8.17576 9.21345L8.01893 9.14216L7.92124 9.06397L7.89785 8.96932L8.1496 8.7334L8.39449 8.60581L8.6146 8.33422L9.01768 8.17239L9.13599 8.2094L9.21578 8.26566L9.24605 8.35616L9.10847 8.57563L8.8636 8.72925L8.6311 9.05572ZM4.75027 10.6963L4.59481 10.7031L4.38158 10.5385L4.54529 10.2395L4.72 10.3122L4.84795 10.3986L4.92362 10.5138L4.75027 10.6963ZM44.4885 16.9456L44.4143 17.0937L44.047 17.08L43.941 17.032L43.9438 16.8633L44.0304 16.3269L44.1309 16.102L44.4321 15.8839L44.6839 15.7783L45.0058 15.7975L45.347 15.9963L44.9453 16.3557L44.721 16.4106L44.6344 16.4572L44.4885 16.9456Z"/>
</mask>
<path d="M63.2021 5.9791L62.9861 6.11623L62.7619 6.13134L62.4634 6.17387L62.0465 6.04218H61.8828L61.8594 6.17521L62.1359 6.33709L62.4042 6.52227L62.5005 6.80345L62.6601 7.13678L63.0439 7.50987L63.2833 7.6964L63.2984 7.82948L63.2228 8.0736L63.2035 8.27662L63.3356 9.21345L63.2475 9.27109L63.1058 9.27519L62.9559 9.27109L62.832 9.16958L62.7248 9.10922L62.6766 9.25326L62.5651 9.67022L62.3148 10.6085L62.0961 11.4301L61.8209 11.7209L61.4233 12.1831L60.8786 12.8154L60.0889 13.7317L59.5056 14.1569L59.0461 14.4916L58.5083 14.8784L57.8149 15.3777L57.0362 15.6576L55.9522 16.0471L55.1846 16.3228L54.6192 16.5149L54.0304 16.7151L53.2517 16.9798L52.9518 17.2295L52.4524 17.8412L52.2199 18.1361L52.0081 18.3899L51.9641 18.5051L51.993 18.5792L52.0947 18.7026L52.1044 18.8302L51.9641 18.9097L51.843 18.9221L51.7893 18.859L51.7495 18.7191L51.6202 18.5765L51.4702 18.5353L51.3835 18.5696L51.3766 18.6999L51.1799 19.3268L51.173 19.6312L51.0905 19.752L51.096 20.0249L50.8979 20.2787L50.8112 20.505L50.7507 20.697L50.5911 20.8301L50.5333 21.0386L50.3861 21.483L50.2142 21.8314L50.0931 22.1291L50.0711 22.3526L50.1633 22.5104L50.1949 22.638L50.1124 22.867L50.067 23.0385L49.8469 23.1551L49.3901 23.4322L49.2127 23.6228L49.1425 23.8382L49.1879 24.022L49.1686 24.1742L48.9513 24.2318L48.8743 24.3621L48.7271 24.5967L48.5606 24.679L48.1341 24.5542L47.8191 24.5528L47.5756 24.4389L47.3115 24.1015L47.0941 23.8176L46.9166 23.45L46.8616 22.9466L46.6236 22.7984L46.3898 22.6228L46.1091 22.6722L45.7762 22.7052L45.5919 22.5886L45.1365 22.376L44.7485 22.1346L44.4555 22.0138L44.2313 22.0715L44.0965 22.2168L43.8612 22.4761L43.5132 22.6558L43.3564 22.6475L43.1459 22.5282L43.1074 22.3883L43.2793 22.1661L43.6301 21.6778L43.2408 21.6654L43.106 21.5132L43.0867 21.3362L43.0234 21.1456L43.1005 20.9165L43.3041 20.7958L43.6109 20.8904L43.8213 20.8973L43.9617 20.682L44.102 20.5873L44.2423 20.5174L44.3001 20.409L44.1515 20.0647L44.1075 19.8768L44.1529 19.7684L44.146 19.5531L44.1405 19.394L44.0511 19.254L44.0442 19.0455L43.9672 18.9317L43.941 18.811L43.9355 18.6711L43.8392 18.6012L43.7374 18.5298L43.8213 18.4804L44.3744 18.287L44.6041 18.0936L44.8889 17.918L45.1337 17.6478L45.2947 17.39L45.6758 16.1898L46.0348 15.4326L45.9743 15.0705L45.6771 14.5808L45.6097 13.8593L45.6372 13.6398L45.6001 13.4739L45.402 13.7729L45.4529 14.8359L45.2782 15.3147L45.0333 15.4299L44.8737 15.3462L44.9645 14.5698L44.7857 14.7111L44.4995 15.2378L44.0304 15.6287L44.0043 15.759L43.8901 15.9195L43.5283 15.7714L43.2518 15.6109L42.3452 14.7344L41.7495 14.5506L41.3905 14.2447L41.3148 14.1158L41.2722 13.9388L41.6395 13.755L42.015 13.5081L42.0522 12.965L42.0426 12.5384L41.7647 11.8087L41.8954 10.8567L41.8238 10.4836L41.506 9.6922L41.7413 9.29302L42.5818 9.00222L42.8515 8.80745L43.0399 8.17921L43.2312 7.8034L43.6054 7.95426L43.8984 7.93643L43.5022 7.79653L43.1803 7.23004L43.1266 6.97218L43.7484 6.19853L44.0745 5.99693L44.4748 5.58817L44.8118 4.9709L44.893 3.99703L44.754 3.30157L44.6495 2.56501L44.8504 2.37434L45.3621 2.27697L45.7776 2.03967L45.988 1.82019L46.4819 1.8531L47.0528 1.51294L47.9649 1.34148L49.2361 0.953317L49.5167 0.610401L49.3901 0L49.5085 0.0795338L49.862 0.370335L50.0766 0.658372L50.4398 0.836696L50.7328 0.980736L51.5032 1.56506L52.0108 1.86134L52.5652 2.12883L53.3659 2.41L53.8542 2.36199L53.9684 2.57459L54.0634 2.79955L54.2463 2.92986L54.5366 3.04234L54.7086 3.07662L54.7622 3.13288L54.9356 3.94216L55.0374 4.06012L55.4377 4.18905L55.9274 4.23706L56.1269 4.20826L56.5575 4.43321L56.8753 4.53883L57.2261 4.6184L57.4641 4.64172L57.5741 4.60744L57.614 4.5251L57.8094 4.54021L58.0997 4.64444L58.5193 4.66642L58.7793 4.56763L58.815 4.40441L58.8329 4.11772L58.9292 4.01759L59.2277 3.85027L59.3832 3.88456L60.1659 4.24392L60.3269 4.36737L60.525 4.6184L60.8923 4.98874L61.2899 5.22466L61.9048 5.32479L62.4978 5.71162L63.2021 5.9791ZM49.2072 0.781859L48.9898 0.810659L48.8894 0.628233L49.1535 0.415627L49.2443 0.374437L49.2072 0.781859ZM1.47475 5.47569L1.71412 5.72258L1.84481 6.42487L2.61933 7.16558L2.71562 7.57982L2.64683 7.77183L2.6826 7.84731L3.05543 8.13945L3.29893 8.4467L2.89033 9.16682L2.01952 9.46996L1.09092 9.46038L0.907963 9.38218L0.658962 9.1065L0.613558 8.86371L0.756635 8.62912L1.23675 8.27252L1.96862 7.95426L2.05943 7.71013L1.76639 7.47283L1.56418 7.00098L1.10194 6.67042L0.872193 5.66222L0.718116 5.61149L0.404463 5.75L0.250386 5.62794L0.224251 5.56347L0.562654 5.33442L0.632828 5.16978L1.13358 5.09025L1.34817 5.22194L1.47475 5.47569ZM4.1711 6.85008L3.99227 6.96532L3.26452 6.83225L3.03754 6.61005L3.2205 6.30691L3.37458 6.18618L3.80929 6.29866L4.25089 6.63747L4.1711 6.85008ZM0.881828 7.33427L0.493886 7.4015L0.167847 7.26981L0.0288842 7.06683L0 6.76092L0.0288842 6.65941L0.748386 6.54831L0.983616 6.80483L0.980866 7.18065L0.881828 7.33427ZM5.0942 8.52213L4.89335 8.529L4.29493 8.15866L4.33481 7.79515L4.57418 7.55102L5.3487 7.4262L5.67337 7.65664L5.64446 8.09143L5.38033 8.40965L5.17123 8.46729L5.0942 8.52213ZM8.6311 9.05572L8.17576 9.21345L8.01893 9.14216L7.92124 9.06397L7.89785 8.96932L8.1496 8.7334L8.39449 8.60581L8.6146 8.33422L9.01768 8.17239L9.13599 8.2094L9.21578 8.26566L9.24605 8.35616L9.10847 8.57563L8.8636 8.72925L8.6311 9.05572ZM4.75027 10.6963L4.59481 10.7031L4.38158 10.5385L4.54529 10.2395L4.72 10.3122L4.84795 10.3986L4.92362 10.5138L4.75027 10.6963ZM44.4885 16.9456L44.4143 17.0937L44.047 17.08L43.941 17.032L43.9438 16.8633L44.0304 16.3269L44.1309 16.102L44.4321 15.8839L44.6839 15.7783L45.0058 15.7975L45.347 15.9963L44.9453 16.3557L44.721 16.4106L44.6344 16.4572L44.4885 16.9456Z" fill="var(--fill-0, #71B219)" stroke="var(--stroke-0, white)" mask="url(#path-1-inside-1_0_174)"/>
</g>
</svg>
