<svg preserveAspectRatio="none" width="100%" height="100%" overflow="visible" style="display: block;" viewBox="0 0 63 25" fill="none" xmlns="http://www.w3.org/2000/svg"><g id="EC"><mask id="path-1-inside-1_0_174" fill="white"><path d="M63 6L63 6L63 6L62 6L62 6H62L62 6L62 6L62 6L62 7L63 7L63 8L63 8L63 8L63 8L63 8L63 9L63 9L63 9L63 9L63 9L63 9L63 9L63 10L62 11L62 11L62 12L61 12L61 13L60 14L60 14L59 14L58 15L58 15L57 16L56 16L55 16L55 16L54 17L53 17L53 17L52 18L52 18L52 18L52 18L52 19L52 19L52 19L52 19L52 19L52 19L52 19L52 19L52 18L51 19L51 19L51 19L51 20L51 20L51 20L51 20L51 20L51 21L51 21L50 21L50 22L50 22L50 22L50 22L50 22L50 23L50 23L50 23L50 23L49 23L49 24L49 24L49 24L49 24L49 24L49 24L49 25L49 25L48 25L48 25L48 24L47 24L47 24L47 23L47 23L47 23L46 23L46 23L46 23L46 23L45 22L45 22L44 22L44 22L44 22L44 22L44 23L43 23L43 22L43 22L43 22L44 22L43 22L43 22L43 21L43 21L43 21L43 21L44 21L44 21L44 21L44 21L44 20L44 20L44 20L44 20L44 20L44 20L44 19L44 19L44 19L44 19L44 19L44 19L44 19L44 18L44 18L44 18L45 18L45 18L45 18L45 17L46 16L46 15L46 15L46 15L46 14L46 14L46 14L45 14L46 15L45 15L45 15L45 15L45 15L45 15L44 15L44 16L44 16L44 16L44 16L43 16L42 15L42 15L41 14L41 14L41 14L42 14L42 14L42 13L42 12L42 12L42 11L42 10L42 10L42 9L43 9L43 9L43 8L43 8L44 8L44 8L44 8L43 7L43 7L44 6L44 6L44 6L45 5L45 4L45 3L45 3L45 2L45 2L46 2L46 2L46 2L47 2L48 1L49 1L50 1L49 0L50 0L50 0L50 1L50 1L51 1L52 2L52 2L53 2L53 2L54 2L54 3L54 3L54 3L54 3L55 3L55 3L55 4L55 4L55 4L56 4L56 4L57 4L57 4L57 5L58 5L58 5L58 4L58 4L58 5L58 5L59 5L59 4L59 4L59 4L59 4L59 4L60 4L60 4L60 5L61 5L61 5L62 5L62 6L63 6ZM49 1L49 1L49 1L49 0L49 0L49 1ZM2 6L2 6L2 6L3 7L3 8L3 8L3 8L3 8L3 8L3 9L2 10L1 10L1 9L1 9L1 9L1 9L1 8L2 8L2 8L2 8L2 7L1 7L1 6L1 6L0 6L0 6L0 6L1 5L1 5L1 5L1 5L2 6ZM4 7L4 7L3 7L3 7L3 6L3 6L4 6L4 7L4 7ZM1 7L0 7L0 7L0 7L0 7L0 7L1 6L1 7L1 7L1 7ZM5 8L5 8L4 8L4 8L5 8L5 7L6 8L6 8L5 8L5 8L5 8ZM9 9L8 9L8 9L8 9L8 9L8 9L8 9L9 8L9 8L9 8L9 8L9 8L9 9L9 9L9 9ZM5 11L5 11L4 10L4 10L5 10L5 10L5 10L5 11ZM44 17L44 17L44 17L44 17L44 17L44 16L44 16L44 16L45 16L45 16L45 16L45 16L45 16L45 16L44 17Z"/></mask><path d="M63 6L63 6L63 6L62 6L62 6H62L62 6L62 6L62 6L62 7L63 7L63 8L63 8L63 8L63 8L63 8L63 9L63 9L63 9L63 9L63 9L63 9L63 9L63 10L62 11L62 11L62 12L61 12L61 13L60 14L60 14L59 14L58 15L58 15L57 16L56 16L55 16L55 16L54 17L53 17L53 17L52 18L52 18L52 18L52 18L52 19L52 19L52 19L52 19L52 19L52 19L52 19L52 19L52 18L51 19L51 19L51 19L51 20L51 20L51 20L51 20L51 20L51 21L51 21L50 21L50 22L50 22L50 22L50 22L50 22L50 23L50 23L50 23L50 23L49 23L49 24L49 24L49 24L49 24L49 24L49 24L49 25L49 25L48 25L48 25L48 24L47 24L47 24L47 23L47 23L47 23L46 23L46 23L46 23L46 23L45 22L45 22L44 22L44 22L44 22L44 22L44 23L43 23L43 22L43 22L43 22L44 22L43 22L43 22L43 21L43 21L43 21L43 21L44 21L44 21L44 21L44 21L44 20L44 20L44 20L44 20L44 20L44 20L44 19L44 19L44 19L44 19L44 19L44 19L44 19L44 18L44 18L44 18L45 18L45 18L45 18L45 17L46 16L46 15L46 15L46 15L46 14L46 14L46 14L45 14L46 15L45 15L45 15L45 15L45 15L45 15L44 15L44 16L44 16L44 16L44 16L43 16L42 15L42 15L41 14L41 14L41 14L42 14L42 14L42 13L42 12L42 12L42 11L42 10L42 10L42 9L43 9L43 9L43 8L43 8L44 8L44 8L44 8L43 7L43 7L44 6L44 6L44 6L45 5L45 4L45 3L45 3L45 2L45 2L46 2L46 2L46 2L47 2L48 1L49 1L50 1L49 0L50 0L50 0L50 1L50 1L51 1L52 2L52 2L53 2L53 2L54 2L54 3L54 3L54 3L54 3L55 3L55 3L55 4L55 4L55 4L56 4L56 4L57 4L57 4L57 5L58 5L58 5L58 4L58 4L58 5L58 5L59 5L59 4L59 4L59 4L59 4L59 4L60 4L60 4L60 5L61 5L61 5L62 5L62 6L63 6ZM49 1L49 1L49 1L49 0L49 0L49 1ZM2 6L2 6L2 6L3 7L3 8L3 8L3 8L3 8L3 8L3 9L2 10L1 10L1 9L1 9L1 9L1 9L1 8L2 8L2 8L2 8L2 7L1 7L1 6L1 6L0 6L0 6L0 6L1 5L1 5L1 5L1 5L2 6ZM4 7L4 7L3 7L3 7L3 6L3 6L4 6L4 7L4 7ZM1 7L0 7L0 7L0 7L0 7L0 7L1 6L1 7L1 7L1 7ZM5 8L5 8L4 8L4 8L5 8L5 7L6 8L6 8L5 8L5 8L5 8ZM9 9L8 9L8 9L8 9L8 9L8 9L8 9L9 8L9 8L9 8L9 8L9 8L9 9L9 9L9 9ZM5 11L5 11L4 10L4 10L5 10L5 10L5 10L5 11ZM44 17L44 17L44 17L44 17L44 17L44 16L44 16L44 16L45 16L45 16L45 16L45 16L45 16L45 16L44 17Z" fill="var(--fill-0,#71B219)" stroke="var(--stroke-0,white)" mask="url(#path-1-inside-1_0_174)"/></g></svg>