<svg preserveAspectRatio="none" width="100%" height="100%" overflow="visible" style="display: block;" viewBox="0 0 24.3086 15.5862" fill="none" xmlns="http://www.w3.org/2000/svg">
<g id="EE">
<mask id="path-1-inside-1_0_189" fill="white">
<path d="M23.7748 1.17415L23.9797 1.40869L24.2384 1.78727L24.3086 2.004L24.2205 2.13157L23.9619 2.23992L23.9027 2.35652L23.7885 2.55266L23.4859 2.58832L23.3304 2.73374L23.1447 3.37156L22.7898 4.42497L22.2656 5.22328L21.846 5.6595L21.6589 5.99417L21.542 6.39469L21.5145 6.79658L21.9162 8.99126L21.9121 9.38629L21.8171 9.79095L21.7484 10.2011L21.8048 10.5563L22.0703 11.1626L22.3522 12.0652L22.4664 12.6399L22.6536 12.8498L22.8338 13.0047L22.8709 13.1021L22.8654 13.2023L22.7719 13.3161L21.9589 13.6165L21.8529 13.8703L21.7648 14.1542L21.4099 14.5726L21.3012 14.9621L21.2338 15.4079L21.2256 15.567L21.1279 15.5862L20.5886 15.4943L19.9943 15.2049L19.7344 14.9868L19.4784 14.9896L19.1689 15.1322L18.0601 15.5451L17.7877 15.4491L17.1549 15.0431L16.8344 14.6L16.1204 13.7167L16.0626 13.5054L15.9691 13.3367L15.2069 13.1172L14.9249 12.7894L14.691 12.7441L14.3471 12.5795L13.4543 11.8786L13.2328 11.8128L13.1792 11.9307L13.1943 12.0967L13.1379 12.1927L13.0237 12.19L12.8174 11.9321L12.5697 11.7044L11.7979 12.1324L11.5187 12.2462L11.2738 12.2723L10.0509 12.8319L9.67805 13.1337L9.52397 13.1021L9.55974 12.8182L10.0687 11.3958L10.1595 10.2614L10.3452 10.1051L10.4002 9.94729L10.3205 9.58382L9.79224 9.35062L9.57897 9.38495L9.38635 9.77584L9.18693 10.0571L8.7205 10.2285L8.31881 9.93222L7.37924 9.53581L7.14262 9.00637L7.0862 8.47278L6.58962 7.95702L6.38324 7.34662L6.46577 6.92003L6.91701 6.63885L7.04497 6.39469L6.47677 6.43311L6.36124 6.37413L6.33647 6.15466L6.08474 5.40298L6.30758 5.1067L6.40524 4.81866L6.22227 4.57311L6.27039 4.29194L6.41346 4.008L6.32681 3.34825L6.89089 2.99847L7.43843 2.75158L8.60085 2.62537L8.48666 2.01909L8.95578 1.99165L9.74682 1.26055L10.531 1.3895L11.6659 0.887472L13.8519 0.894316L14.1504 0.603536L14.0981 0.311354L14.105 0L14.5163 0.0864198L15.2042 0.0315414L17.7795 0.644684H18.4137L19.29 1.26605L19.7632 1.42652H21.1568L23.307 1.70085L23.7294 1.28112L23.7748 1.17415ZM4.12851 6.10116L3.81204 6.4674L3.62362 6.32202L3.52454 6.14641L3.11597 6.97491L2.65651 7.11618L2.38823 6.95297L2.413 6.64434L2.15162 5.83096L1.75127 5.59227L1.18862 5.57034L0.781384 5.23429L2.35104 5.00519L2.51343 4.61564L2.83258 4.20688L3.07197 4.16301L3.27558 4.25765L3.31404 4.57449L3.36492 4.7007L4.0762 4.87902L4.35412 5.41123L4.45866 6.04905L4.12851 6.10116ZM5.74904 8.14631L5.42846 8.22313L4.66773 7.69917L4.84381 7.3439L5.0612 7.20396L5.70773 7.4221L5.79858 7.96113L5.74904 8.14631ZM2.94535 7.62369L3.21916 7.80202L3.47223 7.7458L3.7295 7.62097L4.28527 7.73755L5.55366 8.63737L5.67062 8.8774L4.91258 8.98715L4.74062 9.26146L4.55908 9.45351L4.34447 9.51526L3.97854 9.90066L3.48466 10.2697L3.38146 10.4905L2.48589 10.4494L1.99754 10.5893L1.60274 11.0007L1.44035 11.7936L1.1515 12.4108L0.857037 12.633L0.550311 12.6673L0.477345 12.4369L0.506313 12.2064L1.1515 11.3341L1.28627 11.0501L0.964345 10.9239L0.694732 10.6194L0.105965 10.2628L0 9.97614L0.140307 9.95416L0.269614 9.87186L0.426462 9.63046L0.499428 9.35339L0.0288842 8.54135L0.26827 8.41518L0.568196 8.44398L0.874922 8.6799L1.21204 8.40283L1.35504 8.36168L1.59031 8.46043L1.82835 7.92274L2.39369 7.7458L2.67439 7.57982L2.94535 7.62369Z"/>
</mask>
<path d="M23.7748 1.17415L23.9797 1.40869L24.2384 1.78727L24.3086 2.004L24.2205 2.13157L23.9619 2.23992L23.9027 2.35652L23.7885 2.55266L23.4859 2.58832L23.3304 2.73374L23.1447 3.37156L22.7898 4.42497L22.2656 5.22328L21.846 5.6595L21.6589 5.99417L21.542 6.39469L21.5145 6.79658L21.9162 8.99126L21.9121 9.38629L21.8171 9.79095L21.7484 10.2011L21.8048 10.5563L22.0703 11.1626L22.3522 12.0652L22.4664 12.6399L22.6536 12.8498L22.8338 13.0047L22.8709 13.1021L22.8654 13.2023L22.7719 13.3161L21.9589 13.6165L21.8529 13.8703L21.7648 14.1542L21.4099 14.5726L21.3012 14.9621L21.2338 15.4079L21.2256 15.567L21.1279 15.5862L20.5886 15.4943L19.9943 15.2049L19.7344 14.9868L19.4784 14.9896L19.1689 15.1322L18.0601 15.5451L17.7877 15.4491L17.1549 15.0431L16.8344 14.6L16.1204 13.7167L16.0626 13.5054L15.9691 13.3367L15.2069 13.1172L14.9249 12.7894L14.691 12.7441L14.3471 12.5795L13.4543 11.8786L13.2328 11.8128L13.1792 11.9307L13.1943 12.0967L13.1379 12.1927L13.0237 12.19L12.8174 11.9321L12.5697 11.7044L11.7979 12.1324L11.5187 12.2462L11.2738 12.2723L10.0509 12.8319L9.67805 13.1337L9.52397 13.1021L9.55974 12.8182L10.0687 11.3958L10.1595 10.2614L10.3452 10.1051L10.4002 9.94729L10.3205 9.58382L9.79224 9.35062L9.57897 9.38495L9.38635 9.77584L9.18693 10.0571L8.7205 10.2285L8.31881 9.93222L7.37924 9.53581L7.14262 9.00637L7.0862 8.47278L6.58962 7.95702L6.38324 7.34662L6.46577 6.92003L6.91701 6.63885L7.04497 6.39469L6.47677 6.43311L6.36124 6.37413L6.33647 6.15466L6.08474 5.40298L6.30758 5.1067L6.40524 4.81866L6.22227 4.57311L6.27039 4.29194L6.41346 4.008L6.32681 3.34825L6.89089 2.99847L7.43843 2.75158L8.60085 2.62537L8.48666 2.01909L8.95578 1.99165L9.74682 1.26055L10.531 1.3895L11.6659 0.887472L13.8519 0.894316L14.1504 0.603536L14.0981 0.311354L14.105 0L14.5163 0.0864198L15.2042 0.0315414L17.7795 0.644684H18.4137L19.29 1.26605L19.7632 1.42652H21.1568L23.307 1.70085L23.7294 1.28112L23.7748 1.17415ZM4.12851 6.10116L3.81204 6.4674L3.62362 6.32202L3.52454 6.14641L3.11597 6.97491L2.65651 7.11618L2.38823 6.95297L2.413 6.64434L2.15162 5.83096L1.75127 5.59227L1.18862 5.57034L0.781384 5.23429L2.35104 5.00519L2.51343 4.61564L2.83258 4.20688L3.07197 4.16301L3.27558 4.25765L3.31404 4.57449L3.36492 4.7007L4.0762 4.87902L4.35412 5.41123L4.45866 6.04905L4.12851 6.10116ZM5.74904 8.14631L5.42846 8.22313L4.66773 7.69917L4.84381 7.3439L5.0612 7.20396L5.70773 7.4221L5.79858 7.96113L5.74904 8.14631ZM2.94535 7.62369L3.21916 7.80202L3.47223 7.7458L3.7295 7.62097L4.28527 7.73755L5.55366 8.63737L5.67062 8.8774L4.91258 8.98715L4.74062 9.26146L4.55908 9.45351L4.34447 9.51526L3.97854 9.90066L3.48466 10.2697L3.38146 10.4905L2.48589 10.4494L1.99754 10.5893L1.60274 11.0007L1.44035 11.7936L1.1515 12.4108L0.857037 12.633L0.550311 12.6673L0.477345 12.4369L0.506313 12.2064L1.1515 11.3341L1.28627 11.0501L0.964345 10.9239L0.694732 10.6194L0.105965 10.2628L0 9.97614L0.140307 9.95416L0.269614 9.87186L0.426462 9.63046L0.499428 9.35339L0.0288842 8.54135L0.26827 8.41518L0.568196 8.44398L0.874922 8.6799L1.21204 8.40283L1.35504 8.36168L1.59031 8.46043L1.82835 7.92274L2.39369 7.7458L2.67439 7.57982L2.94535 7.62369Z" fill="var(--fill-0, #71B219)" stroke="var(--stroke-0, white)" mask="url(#path-1-inside-1_0_189)"/>
</g>
</svg>
