<svg preserveAspectRatio="none" width="100%" height="100%" overflow="visible" style="display: block;" viewBox="0 0 24 16" fill="none" xmlns="http://www.w3.org/2000/svg"><g id="EE"><mask id="path-1-inside-1_0_189" fill="white"><path d="M24 1L24 1L24 2L24 2L24 2L24 2L24 2L24 3L24 3L23 3L23 3L23 4L22 5L22 6L22 6L22 6L22 7L22 9L22 9L22 10L22 10L22 11L22 11L22 12L22 13L23 13L23 13L23 13L23 13L23 13L22 14L22 14L22 14L21 15L21 15L21 15L21 16L21 16L21 16L20 15L20 15L20 15L19 15L18 16L18 15L17 15L17 15L16 14L16 14L16 13L15 13L15 13L15 13L14 13L14 12L13 12L13 12L13 12L13 12L13 12L13 12L13 12L12 12L12 12L11 12L10 13L10 13L10 13L10 13L10 11L10 10L10 10L10 10L10 10L10 9L10 9L9 10L9 10L9 10L8 10L7 10L7 9L7 8L7 8L6 7L6 7L7 7L7 6L6 6L6 6L6 6L6 5L6 5L6 5L6 5L6 4L6 4L6 3L7 3L7 3L9 3L8 2L9 2L10 1L10 1L12 1L14 1L14 1L14 0L14 0L14 0L15 0L18 1H18L19 1L20 1H21L23 2L24 1L24 1ZM4 6L4 6L4 6L4 6L3 7L3 7L2 7L2 7L2 6L2 6L1 6L1 5L2 5L2 5L3 4L3 4L3 4L3 5L3 5L4 5L4 5L4 6L4 6ZM6 8L5 8L5 8L5 7L5 7L6 7L6 8L6 8ZM3 8L3 8L4 8L4 8L4 8L6 9L6 9L5 9L5 9L5 10L4 10L4 10L4 10L3 10L2 10L2 11L2 11L1 12L1 12L1 13L1 13L0 12L0 12L1 11L1 11L1 11L1 11L0 10L0 10L0 10L0 10L0 10L0 9L0 8L0 8L1 8L1 9L1 8L1 8L2 8L2 8L2 8L3 8L3 8Z"/></mask><path d="M24 1L24 1L24 2L24 2L24 2L24 2L24 2L24 3L24 3L23 3L23 3L23 4L22 5L22 6L22 6L22 6L22 7L22 9L22 9L22 10L22 10L22 11L22 11L22 12L22 13L23 13L23 13L23 13L23 13L23 13L22 14L22 14L22 14L21 15L21 15L21 15L21 16L21 16L21 16L20 15L20 15L20 15L19 15L18 16L18 15L17 15L17 15L16 14L16 14L16 13L15 13L15 13L15 13L14 13L14 12L13 12L13 12L13 12L13 12L13 12L13 12L13 12L12 12L12 12L11 12L10 13L10 13L10 13L10 13L10 11L10 10L10 10L10 10L10 10L10 9L10 9L9 10L9 10L9 10L8 10L7 10L7 9L7 8L7 8L6 7L6 7L7 7L7 6L6 6L6 6L6 6L6 5L6 5L6 5L6 5L6 4L6 4L6 3L7 3L7 3L9 3L8 2L9 2L10 1L10 1L12 1L14 1L14 1L14 0L14 0L14 0L15 0L18 1H18L19 1L20 1H21L23 2L24 1L24 1ZM4 6L4 6L4 6L4 6L3 7L3 7L2 7L2 7L2 6L2 6L1 6L1 5L2 5L2 5L3 4L3 4L3 4L3 5L3 5L4 5L4 5L4 6L4 6ZM6 8L5 8L5 8L5 7L5 7L6 7L6 8L6 8ZM3 8L3 8L4 8L4 8L4 8L6 9L6 9L5 9L5 9L5 10L4 10L4 10L4 10L3 10L2 10L2 11L2 11L1 12L1 12L1 13L1 13L0 12L0 12L1 11L1 11L1 11L1 11L0 10L0 10L0 10L0 10L0 10L0 9L0 8L0 8L1 8L1 9L1 8L1 8L2 8L2 8L2 8L3 8L3 8Z" fill="var(--fill-0,#71B219)" stroke="var(--stroke-0,white)" mask="url(#path-1-inside-1_0_189)"/></g></svg>