<svg preserveAspectRatio="none" width="100%" height="100%" overflow="visible" style="display: block;" viewBox="0 0 46.98 41.5244" fill="none" xmlns="http://www.w3.org/2000/svg">
<g id="EG">
<mask id="path-1-inside-1_0_173" fill="white">
<path d="M36.6581 1.49377L36.7145 1.62956L36.8411 2.00538L37.1616 2.96008L37.4423 3.70623L37.7848 4.73775L37.8921 5.13278L37.9375 5.40575L38.4355 6.536L38.7313 7.46186L38.9473 8.21354L39.2527 9.30814L39.3848 9.68944L39.1688 9.88836L38.7368 10.5975L38.2759 12.8429L37.617 14.5891L37.5427 15.6795L37.4368 16.0718L37.1232 16.6232L36.7435 17.1623L36.068 16.8839L34.9674 15.9346L34.3263 15.0321L33.6385 14.4478L32.9892 13.6728L32.8117 13.1145L32.8186 12.7551L32.5352 11.8786L32.3247 11.463L31.5323 10.5289L31.3053 10.0296L31.1319 9.80878L30.9572 9.49332L30.6697 8.2739L30.3561 7.49753L29.9984 7.7129L30.0616 8.03936L29.7494 8.49061L29.561 9.01323L29.7054 9.43983L30.3533 10.0886L30.484 10.3725L30.6354 10.9857L30.6106 11.8183L30.7151 12.0995L31.2007 12.7167L31.3741 13.083L31.4786 13.3984L31.6396 13.6838L32.1211 14.2187L32.813 15.2365L33.4693 15.9223L33.9439 16.2529L34.1447 16.5834L34.1901 17.4352L34.1544 17.8413L34.5712 18.6053L34.7253 18.9907L35.127 19.3048L35.3113 19.6629L35.4805 20.2458L35.735 21.9645L36.0845 22.3856L37.1644 24.6338L38.0751 26.0507L38.5153 27.1069L39.188 28.388L40.5045 31.1917L41.2873 32.0531L41.5996 32.5373L42.1664 32.909L42.78 33.4467L42.1953 33.3946L42.0467 33.4261L41.8418 33.518L41.744 33.8445L41.7014 34.1106L41.7729 35.5165L41.9339 36.2325L42.4484 37.5837L42.8322 37.9883L43.0193 38.2503L43.2807 38.441L44.501 38.9018L45.2149 39.8729L46.819 41.0992L46.9759 41.438L46.98 41.5162L45.7129 41.5176H44.446H43.1789H41.9119H40.6463L39.3779 41.519H38.1123H36.8452H35.5782H34.3112H33.0442H31.7786L30.5115 41.5203H29.2445H27.9775H26.7105H25.9882L26.1121 41.1527L26.1877 40.8935L26.1024 40.7124L25.8562 40.6671L25.6953 40.7247L25.3169 41.4943L25.1188 41.5244H24.6689H23.1943H21.7181H20.2434L18.7686 41.5231H17.2939H15.8191H14.3444H12.8697L11.3949 41.5217H9.91878H8.44401H6.96932H5.49455H4.01977L2.54366 41.5203H1.06897V40.5931V39.6631V38.7317V37.8004V36.8663V35.9308V34.994V34.0557V33.1147V32.1738V31.2301V30.2836V29.3372V28.388V27.4374V26.4855V25.5308V24.5748V23.6174V22.6586V21.6957V20.7327V19.7671V18.8001V17.8303V16.8592V15.8853V14.91V13.932V12.9527V11.9706V10.9871L1.03588 10.8032L0.821352 10.1325L0.627307 9.27934L0.415462 8.22865L0.388005 7.88708L0.0330825 6.80073L0 6.49209L0.0894234 6.27262L0.672733 5.35501L0.848809 4.90782L0.996001 4.37151L1.04554 3.93533L0.873579 3.26595L0.672733 2.6638L0.605308 2.04653L0.576424 1.43889L0.875006 1.02327L1.23262 0.633717L1.36612 0.395074L1.57797 0.126208L1.7265 0L2.01677 0.545937L2.62208 0.639201L4.59485 0.153626L6.77259 0.643345L7.97355 0.829873L9.82524 1.2455L10.9519 1.98617L11.2615 2.07947L12.0717 2.06436L12.6027 2.50192L14.7158 2.71181L15.8439 3.19324L16.4836 3.57731L16.8674 3.69527L17.2072 3.67609L17.6653 3.53205L18.2445 3.26185L18.8731 2.88599L20.1787 1.91898L20.6409 1.74891L20.9422 1.79416L21.3095 1.78043L21.4622 1.51847L21.6562 1.33876L21.7773 1.13436L21.9753 0.887472L22.6549 0.818905L24.0155 0.396413L23.8628 0.596671L22.6233 1.0699L23.1543 1.12888L23.6977 0.967047L24.3181 0.864156L24.431 0.662517L24.5121 0.285317L24.6304 0.23182L25.0596 0.303149L26.3349 0.884751L26.6527 0.895718L27.5511 0.578839L27.7423 0.511654L28.0339 0.687214L28.697 1.41009L28.4659 1.39498L27.756 0.774994L27.6927 1.08501L27.2883 1.62818L27.7931 1.86272L28.2045 1.9505L28.4246 2.25365L28.5635 2.52252L28.9694 2.40456L29.2597 2.03833L29.1083 1.83392L29.0065 1.6227L29.1386 1.61722L29.4206 1.79139L30.2281 2.48685L30.5005 2.63085L30.8142 2.6062L31.4704 2.41138L31.6534 2.44156L32.5338 2.18509L32.6369 2.373L32.7828 2.55952L33.4926 2.35106L34.6056 2.35378L35.5176 2.12749L36.5742 1.57607L36.6581 1.49377Z"/>
</mask>
<path d="M36.6581 1.49377L36.7145 1.62956L36.8411 2.00538L37.1616 2.96008L37.4423 3.70623L37.7848 4.73775L37.8921 5.13278L37.9375 5.40575L38.4355 6.536L38.7313 7.46186L38.9473 8.21354L39.2527 9.30814L39.3848 9.68944L39.1688 9.88836L38.7368 10.5975L38.2759 12.8429L37.617 14.5891L37.5427 15.6795L37.4368 16.0718L37.1232 16.6232L36.7435 17.1623L36.068 16.8839L34.9674 15.9346L34.3263 15.0321L33.6385 14.4478L32.9892 13.6728L32.8117 13.1145L32.8186 12.7551L32.5352 11.8786L32.3247 11.463L31.5323 10.5289L31.3053 10.0296L31.1319 9.80878L30.9572 9.49332L30.6697 8.2739L30.3561 7.49753L29.9984 7.7129L30.0616 8.03936L29.7494 8.49061L29.561 9.01323L29.7054 9.43983L30.3533 10.0886L30.484 10.3725L30.6354 10.9857L30.6106 11.8183L30.7151 12.0995L31.2007 12.7167L31.3741 13.083L31.4786 13.3984L31.6396 13.6838L32.1211 14.2187L32.813 15.2365L33.4693 15.9223L33.9439 16.2529L34.1447 16.5834L34.1901 17.4352L34.1544 17.8413L34.5712 18.6053L34.7253 18.9907L35.127 19.3048L35.3113 19.6629L35.4805 20.2458L35.735 21.9645L36.0845 22.3856L37.1644 24.6338L38.0751 26.0507L38.5153 27.1069L39.188 28.388L40.5045 31.1917L41.2873 32.0531L41.5996 32.5373L42.1664 32.909L42.78 33.4467L42.1953 33.3946L42.0467 33.4261L41.8418 33.518L41.744 33.8445L41.7014 34.1106L41.7729 35.5165L41.9339 36.2325L42.4484 37.5837L42.8322 37.9883L43.0193 38.2503L43.2807 38.441L44.501 38.9018L45.2149 39.8729L46.819 41.0992L46.9759 41.438L46.98 41.5162L45.7129 41.5176H44.446H43.1789H41.9119H40.6463L39.3779 41.519H38.1123H36.8452H35.5782H34.3112H33.0442H31.7786L30.5115 41.5203H29.2445H27.9775H26.7105H25.9882L26.1121 41.1527L26.1877 40.8935L26.1024 40.7124L25.8562 40.6671L25.6953 40.7247L25.3169 41.4943L25.1188 41.5244H24.6689H23.1943H21.7181H20.2434L18.7686 41.5231H17.2939H15.8191H14.3444H12.8697L11.3949 41.5217H9.91878H8.44401H6.96932H5.49455H4.01977L2.54366 41.5203H1.06897V40.5931V39.6631V38.7317V37.8004V36.8663V35.9308V34.994V34.0557V33.1147V32.1738V31.2301V30.2836V29.3372V28.388V27.4374V26.4855V25.5308V24.5748V23.6174V22.6586V21.6957V20.7327V19.7671V18.8001V17.8303V16.8592V15.8853V14.91V13.932V12.9527V11.9706V10.9871L1.03588 10.8032L0.821352 10.1325L0.627307 9.27934L0.415462 8.22865L0.388005 7.88708L0.0330825 6.80073L0 6.49209L0.0894234 6.27262L0.672733 5.35501L0.848809 4.90782L0.996001 4.37151L1.04554 3.93533L0.873579 3.26595L0.672733 2.6638L0.605308 2.04653L0.576424 1.43889L0.875006 1.02327L1.23262 0.633717L1.36612 0.395074L1.57797 0.126208L1.7265 0L2.01677 0.545937L2.62208 0.639201L4.59485 0.153626L6.77259 0.643345L7.97355 0.829873L9.82524 1.2455L10.9519 1.98617L11.2615 2.07947L12.0717 2.06436L12.6027 2.50192L14.7158 2.71181L15.8439 3.19324L16.4836 3.57731L16.8674 3.69527L17.2072 3.67609L17.6653 3.53205L18.2445 3.26185L18.8731 2.88599L20.1787 1.91898L20.6409 1.74891L20.9422 1.79416L21.3095 1.78043L21.4622 1.51847L21.6562 1.33876L21.7773 1.13436L21.9753 0.887472L22.6549 0.818905L24.0155 0.396413L23.8628 0.596671L22.6233 1.0699L23.1543 1.12888L23.6977 0.967047L24.3181 0.864156L24.431 0.662517L24.5121 0.285317L24.6304 0.23182L25.0596 0.303149L26.3349 0.884751L26.6527 0.895718L27.5511 0.578839L27.7423 0.511654L28.0339 0.687214L28.697 1.41009L28.4659 1.39498L27.756 0.774994L27.6927 1.08501L27.2883 1.62818L27.7931 1.86272L28.2045 1.9505L28.4246 2.25365L28.5635 2.52252L28.9694 2.40456L29.2597 2.03833L29.1083 1.83392L29.0065 1.6227L29.1386 1.61722L29.4206 1.79139L30.2281 2.48685L30.5005 2.63085L30.8142 2.6062L31.4704 2.41138L31.6534 2.44156L32.5338 2.18509L32.6369 2.373L32.7828 2.55952L33.4926 2.35106L34.6056 2.35378L35.5176 2.12749L36.5742 1.57607L36.6581 1.49377Z" fill="var(--fill-0, #71B219)" stroke="var(--stroke-0, white)" mask="url(#path-1-inside-1_0_173)"/>
</g>
</svg>
