<svg preserveAspectRatio="none" width="100%" height="100%" overflow="visible" style="display: block;" viewBox="0 0 47 42" fill="none" xmlns="http://www.w3.org/2000/svg"><g id="EG"><mask id="path-1-inside-1_0_173" fill="white"><path d="M37 2L37 2L37 2L37 3L37 4L38 5L38 5L38 5L38 6L39 8L39 8L39 9L39 10L39 10L39 11L38 13L38 15L38 16L37 16L37 17L37 17L36 17L35 16L34 15L34 14L33 14L33 13L33 13L32 12L32 12L32 10L31 10L31 10L31 10L31 8L30 8L30 8L30 8L30 8L30 9L30 9L30 10L30 10L31 11L31 12L31 12L31 13L31 13L32 13L32 14L32 14L33 15L34 16L34 16L34 17L34 17L34 18L35 19L35 19L35 19L35 20L36 20L36 22L36 22L37 25L38 26L38 27L39 28L40 31L41 32L42 32L42 33L43 33L42 33L42 33L42 34L42 34L42 34L42 36L42 36L42 38L43 38L43 38L43 38L44 39L45 40L47 41L47 41L47 42L46 42H44H43H42H41L39 42H38H37H36H34H33H32L30 42H29H28H27H26L26 41L26 41L26 41L26 41L26 41L25 42L25 42H25H23H22H20L19 42H17H16H14H13L11 42H10H8H7H6H4L2 42H1V41V40V39V38V37V36V35V34V33V32V31V30V29V28V27V26V26V25V24V23V22V21V20V19V18V17V16V15V14V13V12V11L1 11L1 10L1 9L0 8L0 8L0 7L0 6L0 6L1 5L1 5L1 4L1 4L1 3L1 3L1 2L1 1L1 1L1 1L1 0L2 0L2 0L2 0L3 1L5 0L7 1L8 1L10 1L11 2L11 2L12 2L13 2L15 3L16 3L16 4L17 4L17 4L18 4L18 3L19 3L20 2L21 2L21 2L21 2L22 2L22 1L22 1L22 1L23 1L24 0L24 1L23 1L23 1L24 1L24 1L24 1L24 0L25 0L25 0L26 1L27 1L28 1L28 0L28 1L29 1L28 1L28 1L28 1L27 2L28 2L28 2L28 2L29 2L29 2L29 2L29 2L29 2L29 2L29 2L30 2L30 3L31 3L32 2L32 2L32 2L33 2L33 3L34 2L35 2L36 2L37 2L37 2Z"/></mask><path d="M37 2L37 2L37 2L37 3L37 4L38 5L38 5L38 5L38 6L39 8L39 8L39 9L39 10L39 10L39 11L38 13L38 15L38 16L37 16L37 17L37 17L36 17L35 16L34 15L34 14L33 14L33 13L33 13L32 12L32 12L32 10L31 10L31 10L31 10L31 8L30 8L30 8L30 8L30 8L30 9L30 9L30 10L30 10L31 11L31 12L31 12L31 13L31 13L32 13L32 14L32 14L33 15L34 16L34 16L34 17L34 17L34 18L35 19L35 19L35 19L35 20L36 20L36 22L36 22L37 25L38 26L38 27L39 28L40 31L41 32L42 32L42 33L43 33L42 33L42 33L42 34L42 34L42 34L42 36L42 36L42 38L43 38L43 38L43 38L44 39L45 40L47 41L47 41L47 42L46 42H44H43H42H41L39 42H38H37H36H34H33H32L30 42H29H28H27H26L26 41L26 41L26 41L26 41L26 41L25 42L25 42H25H23H22H20L19 42H17H16H14H13L11 42H10H8H7H6H4L2 42H1V41V40V39V38V37V36V35V34V33V32V31V30V29V28V27V26V26V25V24V23V22V21V20V19V18V17V16V15V14V13V12V11L1 11L1 10L1 9L0 8L0 8L0 7L0 6L0 6L1 5L1 5L1 4L1 4L1 3L1 3L1 2L1 1L1 1L1 1L1 0L2 0L2 0L2 0L3 1L5 0L7 1L8 1L10 1L11 2L11 2L12 2L13 2L15 3L16 3L16 4L17 4L17 4L18 4L18 3L19 3L20 2L21 2L21 2L21 2L22 2L22 1L22 1L22 1L23 1L24 0L24 1L23 1L23 1L24 1L24 1L24 1L24 0L25 0L25 0L26 1L27 1L28 1L28 0L28 1L29 1L28 1L28 1L28 1L27 2L28 2L28 2L28 2L29 2L29 2L29 2L29 2L29 2L29 2L29 2L30 2L30 3L31 3L32 2L32 2L32 2L33 2L33 3L34 2L35 2L36 2L37 2L37 2Z" fill="var(--fill-0,#71B219)" stroke="var(--stroke-0,white)" mask="url(#path-1-inside-1_0_173)"/></g></svg>