<svg preserveAspectRatio="none" width="100%" height="100%" overflow="visible" style="display: block;" viewBox="0 0 32.4953 28.7803" fill="none" xmlns="http://www.w3.org/2000/svg">
<g id="EH">
<mask id="path-1-inside-1_0_170" fill="white">
<path d="M32.4911 1.598L32.4925 2.3154V3.1672L32.4939 4.01625L32.4953 4.98191V5.94205V6.64024V7.12581H31.7098H30.9903H30.2708H29.5526H28.8332H28.1137H27.3942H26.6747H25.9552H25.2357H24.5163H23.7968H23.0772H22.3578H21.6383H20.9202H20.2007H19.6229V7.6347V8.21216V8.79104V9.3685V9.94595V10.5221V11.0981V11.6729V12.2476V12.821V13.3943V13.9677V14.5383V15.1103V15.6809V16.2515V16.8207V17.3283L19.5954 17.7823L19.3643 17.9167L18.8126 18.1581L18.2458 18.4064L17.5263 18.5202L17.2897 18.6012L16.8302 18.9276L16.2263 19.3569L15.7036 19.7287L15.3582 20.2115L15.2331 20.4762L15.1822 20.7547L15.2221 21.0208L15.4105 21.553L15.4614 21.8219L15.4903 22.2896L15.5219 22.7971L15.5564 23.3444L15.5907 23.8917L15.6265 24.4719L15.6637 25.0535L15.7008 25.6364L15.7283 26.0699L15.7627 26.6158L15.178 26.6172H14.2935L13.4075 26.6185L12.5215 26.6199L11.637 26.6213L10.7524 26.6227L9.86647 26.624H8.98055L8.09597 26.6254L7.21001 26.6268L6.32543 26.6282L5.44089 26.6295L4.55493 26.6309L3.66896 26.6323H2.78443L1.89846 26.6337L1.01389 26.635L0.518656 26.6364L0.359079 27.4032L0.217345 27.9532L0.134807 28.4017L0.195346 28.7803L0 28.5732L0.343923 26.4389L0.368693 26.2592L0.649348 24.2854L1.17896 23.2127L1.60131 22.7395L2.25616 22.494L2.85731 21.4131L3.06781 20.4159L3.46262 19.9564L3.58643 19.597L3.431 19.3227L3.80381 18.7836L4.25504 17.9579L4.46412 17.427L4.991 16.6054L5.0557 16.423L5.00889 16.2172L4.80116 16.3914L4.5797 16.6959L4.31693 16.936L4.42423 16.6411L4.63058 16.2076L5.0997 15.7522L5.83981 15.2516L7.37508 13.5466L7.95289 13.2517L8.47289 12.5316L8.65862 11.891L8.70951 10.4178L8.89524 9.6387L9.23366 9.03106L9.63812 7.9214L9.94628 7.4262L10.1471 6.41118L10.3659 6.02573L10.7579 5.84059L11.3137 5.33442L12.1487 5.0203L13.1379 4.36055L13.6015 3.96551L13.911 3.37567L14.2425 2.19882L14.8355 0.957462L15.1395 0.0192137L31.9698 0L31.9725 0.00138138V0H32.4911V0.717395V1.598Z"/>
</mask>
<path d="M32.4911 1.598L32.4925 2.3154V3.1672L32.4939 4.01625L32.4953 4.98191V5.94205V6.64024V7.12581H31.7098H30.9903H30.2708H29.5526H28.8332H28.1137H27.3942H26.6747H25.9552H25.2357H24.5163H23.7968H23.0772H22.3578H21.6383H20.9202H20.2007H19.6229V7.6347V8.21216V8.79104V9.3685V9.94595V10.5221V11.0981V11.6729V12.2476V12.821V13.3943V13.9677V14.5383V15.1103V15.6809V16.2515V16.8207V17.3283L19.5954 17.7823L19.3643 17.9167L18.8126 18.1581L18.2458 18.4064L17.5263 18.5202L17.2897 18.6012L16.8302 18.9276L16.2263 19.3569L15.7036 19.7287L15.3582 20.2115L15.2331 20.4762L15.1822 20.7547L15.2221 21.0208L15.4105 21.553L15.4614 21.8219L15.4903 22.2896L15.5219 22.7971L15.5564 23.3444L15.5907 23.8917L15.6265 24.4719L15.6637 25.0535L15.7008 25.6364L15.7283 26.0699L15.7627 26.6158L15.178 26.6172H14.2935L13.4075 26.6185L12.5215 26.6199L11.637 26.6213L10.7524 26.6227L9.86647 26.624H8.98055L8.09597 26.6254L7.21001 26.6268L6.32543 26.6282L5.44089 26.6295L4.55493 26.6309L3.66896 26.6323H2.78443L1.89846 26.6337L1.01389 26.635L0.518656 26.6364L0.359079 27.4032L0.217345 27.9532L0.134807 28.4017L0.195346 28.7803L0 28.5732L0.343923 26.4389L0.368693 26.2592L0.649348 24.2854L1.17896 23.2127L1.60131 22.7395L2.25616 22.494L2.85731 21.4131L3.06781 20.4159L3.46262 19.9564L3.58643 19.597L3.431 19.3227L3.80381 18.7836L4.25504 17.9579L4.46412 17.427L4.991 16.6054L5.0557 16.423L5.00889 16.2172L4.80116 16.3914L4.5797 16.6959L4.31693 16.936L4.42423 16.6411L4.63058 16.2076L5.0997 15.7522L5.83981 15.2516L7.37508 13.5466L7.95289 13.2517L8.47289 12.5316L8.65862 11.891L8.70951 10.4178L8.89524 9.6387L9.23366 9.03106L9.63812 7.9214L9.94628 7.4262L10.1471 6.41118L10.3659 6.02573L10.7579 5.84059L11.3137 5.33442L12.1487 5.0203L13.1379 4.36055L13.6015 3.96551L13.911 3.37567L14.2425 2.19882L14.8355 0.957462L15.1395 0.0192137L31.9698 0L31.9725 0.00138138V0H32.4911V0.717395V1.598Z" fill="var(--fill-0, #71B219)" stroke="var(--stroke-0, white)" mask="url(#path-1-inside-1_0_170)"/>
</g>
</svg>
