<svg preserveAspectRatio="none" width="100%" height="100%" overflow="visible" style="display: block;" viewBox="0 0 32 29" fill="none" xmlns="http://www.w3.org/2000/svg"><g id="EH"><mask id="path-1-inside-1_0_170" fill="white"><path d="M32 2L32 2V3L32 4L32 5V6V7V7H32H31H30H30H29H28H27H27H26H25H24H24H23H22H22H21H20H20V8V8V9V9V10V10V11V12V12V13V13V14V14V15V16V16V17V17L20 18L19 18L19 18L18 18L18 18L17 19L17 19L16 19L16 20L15 20L15 20L15 21L15 21L15 22L16 22L16 22L16 23L16 23L16 24L16 24L16 25L16 26L16 26L16 27L15 27H14L13 27L12 27L12 27L11 27L10 27H9L8 27L7 27L6 27L5 27L5 27L4 27H3L2 27L1 27L0 27L0 27L0 28L0 28L0 29L0 29L0 26L0 26L1 24L1 23L2 23L2 22L3 21L3 20L4 20L4 20L3 19L4 19L4 18L4 17L5 17L5 16L5 16L5 16L5 17L4 17L4 17L5 16L5 16L6 15L7 14L8 13L8 12L9 12L9 10L9 10L9 9L10 8L10 7L10 6L10 6L11 6L11 5L12 5L13 4L14 4L14 3L14 2L15 1L15 0L32 0L32 0V0H32V1V2Z"/></mask><path d="M32 2L32 2V3L32 4L32 5V6V7V7H32H31H30H30H29H28H27H27H26H25H24H24H23H22H22H21H20H20V8V8V9V9V10V10V11V12V12V13V13V14V14V15V16V16V17V17L20 18L19 18L19 18L18 18L18 18L17 19L17 19L16 19L16 20L15 20L15 20L15 21L15 21L15 22L16 22L16 22L16 23L16 23L16 24L16 24L16 25L16 26L16 26L16 27L15 27H14L13 27L12 27L12 27L11 27L10 27H9L8 27L7 27L6 27L5 27L5 27L4 27H3L2 27L1 27L0 27L0 27L0 28L0 28L0 29L0 29L0 26L0 26L1 24L1 23L2 23L2 22L3 21L3 20L4 20L4 20L3 19L4 19L4 18L4 17L5 17L5 16L5 16L5 16L5 17L4 17L4 17L5 16L5 16L6 15L7 14L8 13L8 12L9 12L9 10L9 10L9 9L10 8L10 7L10 6L10 6L11 6L11 5L12 5L13 4L14 4L14 3L14 2L15 1L15 0L32 0L32 0V0H32V1V2Z" fill="var(--fill-0,#71B219)" stroke="var(--stroke-0,white)" mask="url(#path-1-inside-1_0_170)"/></g></svg>