<svg preserveAspectRatio="none" width="100%" height="100%" overflow="visible" style="display: block;" viewBox="0 0 25.8341 22.3266" fill="none" xmlns="http://www.w3.org/2000/svg">
<g id="ER">
<mask id="path-1-inside-1_0_168" fill="white">
<path d="M25.8341 21.0235L25.4049 21.2059L24.9317 21.3664L24.8643 21.3609L24.7075 21.5708L24.4832 22.1441L24.2369 22.3115L24.1076 22.3266L23.3717 21.7903L23.2575 21.7601L23.0979 21.8657L22.9823 21.9754L22.6398 21.5681L22.3894 21.2087L22.04 20.7793L21.7002 20.5859L21.3357 20.3432L20.978 19.7794L20.6134 19.158L20.0727 18.6491L19.0616 17.9153L18.1331 16.9853L17.4231 16.0128L16.9651 15.5053L16.7697 15.3764L15.8232 15.0581L15.1629 14.6123L14.6539 14.2447L14.3416 14.146L14.039 14.1336L13.3938 14.2063L12.8572 13.9759H12.6316L12.2726 13.9087L11.9905 13.8264L11.6591 13.9251L10.9794 14.0897L10.7002 14.0541L10.5489 13.825L10.4594 13.6494L10.2228 13.467H10.0274L9.91878 13.6302L9.20893 14.0431L8.02166 14.2722L7.7397 14.2557L7.5292 14.0897L6.92935 13.3806L6.75739 13.2654L6.6212 13.2544L6.34335 13.1707L6.08331 13.0349L5.85493 12.7441L5.6252 12.5781L5.37901 13.1474L4.947 14.1405L4.71585 14.6727L4.41735 15.3571L4.32381 15.3777L4.17108 15.3283L3.5782 14.4752L3.20539 14.1542L2.92746 14.1844L2.72527 14.3421L2.59731 14.6274L2.45835 14.803L2.30838 14.8716L1.98512 14.8373L1.48854 14.7015L0.975345 14.7303L0.447117 14.9251L0.376922 14.9305L0.253156 13.7948L0.170618 13.0349L0.0825382 12.2297L0 11.4685L0.36735 11.0007L0.537884 10.5563L0.975345 9.1106L1.15008 8.82256L1.494 8.04757L1.5422 7.82261L1.88192 6.84321L1.85035 6.19167L1.7815 5.53329L1.96723 5.14236L2.13231 4.82963L2.12131 4.56625L2.19562 3.9504L2.24927 3.79678L2.45146 3.78715L2.86835 3.86672L3.17508 3.80498H3.52866L3.80104 3.78577L3.962 3.59786L4.1835 2.87912L4.32658 2.73508L4.438 2.69121L4.75027 2.55814L5.0172 2.3483L5.2345 2.19878L5.3157 2.16859L5.54543 2.14938L5.77516 2.0616L5.88112 1.96009L6.17139 1.87917L6.45612 1.92443L6.64739 1.83526L6.77527 1.77766L6.91978 1.77356L7.0532 1.68988L7.10685 1.5623L7.19351 1.48L7.41501 1.29347L7.51677 1.15768L7.5622 1.0205L7.60762 0.912127L7.70528 0.728362L8.0932 0.267443L8.42755 0L9.59408 2.32084L10.0673 3.68978L10.4855 5.11495L10.795 7.2506L11.0895 8.33699L11.5654 8.87191L11.8915 9.88283L12.1707 9.92126L12.373 10.1983L12.7197 11.1461L12.9687 11.4987L13.0994 11.1955L13.0842 11.0213L12.9865 10.7292L13.076 10.3533L13.2699 10.1284L13.7129 10.4356L13.955 10.6674L14.0197 11.1324L14.1215 11.3903L14.5837 11.9362L14.9744 12.0953L15.4807 12.1351L15.9044 12.2544L16.2442 12.4547L16.8811 13.0088L18.338 13.4944L19.5087 14.9813L20.1979 16.0101L22.4637 17.5669L22.8558 18.3117L23.0594 19.0414L23.5354 19.0072L24.3526 19.8041L24.5905 20.409L25.2591 20.6285L25.3733 20.2704L25.6966 20.564L25.8341 21.0235ZM14.0967 7.69778L14.226 8.08185L13.8491 7.93509L13.7872 7.85551L13.9523 7.70327L13.9881 7.61L14.0967 7.69778ZM14.3457 9.23404L14.5053 9.44527L14.6167 9.42471L14.7048 9.35473L14.7667 9.20524L15.3761 9.50015L15.3418 9.6963L14.9772 9.70589L14.5576 9.62221L14.1683 9.65101L13.7047 9.56599L13.5974 9.23266L13.8931 9.39315L14.0459 9.35339L14.0733 9.31086L13.8642 9.0859L13.5699 9.04065L13.5905 8.86371L13.7226 8.79372L13.8037 8.70732L13.6345 8.46453L13.9661 8.51941L14.1752 8.66617L14.3127 8.83763L14.3457 9.23404Z"/>
</mask>
<path d="M25.8341 21.0235L25.4049 21.2059L24.9317 21.3664L24.8643 21.3609L24.7075 21.5708L24.4832 22.1441L24.2369 22.3115L24.1076 22.3266L23.3717 21.7903L23.2575 21.7601L23.0979 21.8657L22.9823 21.9754L22.6398 21.5681L22.3894 21.2087L22.04 20.7793L21.7002 20.5859L21.3357 20.3432L20.978 19.7794L20.6134 19.158L20.0727 18.6491L19.0616 17.9153L18.1331 16.9853L17.4231 16.0128L16.9651 15.5053L16.7697 15.3764L15.8232 15.0581L15.1629 14.6123L14.6539 14.2447L14.3416 14.146L14.039 14.1336L13.3938 14.2063L12.8572 13.9759H12.6316L12.2726 13.9087L11.9905 13.8264L11.6591 13.9251L10.9794 14.0897L10.7002 14.0541L10.5489 13.825L10.4594 13.6494L10.2228 13.467H10.0274L9.91878 13.6302L9.20893 14.0431L8.02166 14.2722L7.7397 14.2557L7.5292 14.0897L6.92935 13.3806L6.75739 13.2654L6.6212 13.2544L6.34335 13.1707L6.08331 13.0349L5.85493 12.7441L5.6252 12.5781L5.37901 13.1474L4.947 14.1405L4.71585 14.6727L4.41735 15.3571L4.32381 15.3777L4.17108 15.3283L3.5782 14.4752L3.20539 14.1542L2.92746 14.1844L2.72527 14.3421L2.59731 14.6274L2.45835 14.803L2.30838 14.8716L1.98512 14.8373L1.48854 14.7015L0.975345 14.7303L0.447117 14.9251L0.376922 14.9305L0.253156 13.7948L0.170618 13.0349L0.0825382 12.2297L0 11.4685L0.36735 11.0007L0.537884 10.5563L0.975345 9.1106L1.15008 8.82256L1.494 8.04757L1.5422 7.82261L1.88192 6.84321L1.85035 6.19167L1.7815 5.53329L1.96723 5.14236L2.13231 4.82963L2.12131 4.56625L2.19562 3.9504L2.24927 3.79678L2.45146 3.78715L2.86835 3.86672L3.17508 3.80498H3.52866L3.80104 3.78577L3.962 3.59786L4.1835 2.87912L4.32658 2.73508L4.438 2.69121L4.75027 2.55814L5.0172 2.3483L5.2345 2.19878L5.3157 2.16859L5.54543 2.14938L5.77516 2.0616L5.88112 1.96009L6.17139 1.87917L6.45612 1.92443L6.64739 1.83526L6.77527 1.77766L6.91978 1.77356L7.0532 1.68988L7.10685 1.5623L7.19351 1.48L7.41501 1.29347L7.51677 1.15768L7.5622 1.0205L7.60762 0.912127L7.70528 0.728362L8.0932 0.267443L8.42755 0L9.59408 2.32084L10.0673 3.68978L10.4855 5.11495L10.795 7.2506L11.0895 8.33699L11.5654 8.87191L11.8915 9.88283L12.1707 9.92126L12.373 10.1983L12.7197 11.1461L12.9687 11.4987L13.0994 11.1955L13.0842 11.0213L12.9865 10.7292L13.076 10.3533L13.2699 10.1284L13.7129 10.4356L13.955 10.6674L14.0197 11.1324L14.1215 11.3903L14.5837 11.9362L14.9744 12.0953L15.4807 12.1351L15.9044 12.2544L16.2442 12.4547L16.8811 13.0088L18.338 13.4944L19.5087 14.9813L20.1979 16.0101L22.4637 17.5669L22.8558 18.3117L23.0594 19.0414L23.5354 19.0072L24.3526 19.8041L24.5905 20.409L25.2591 20.6285L25.3733 20.2704L25.6966 20.564L25.8341 21.0235ZM14.0967 7.69778L14.226 8.08185L13.8491 7.93509L13.7872 7.85551L13.9523 7.70327L13.9881 7.61L14.0967 7.69778ZM14.3457 9.23404L14.5053 9.44527L14.6167 9.42471L14.7048 9.35473L14.7667 9.20524L15.3761 9.50015L15.3418 9.6963L14.9772 9.70589L14.5576 9.62221L14.1683 9.65101L13.7047 9.56599L13.5974 9.23266L13.8931 9.39315L14.0459 9.35339L14.0733 9.31086L13.8642 9.0859L13.5699 9.04065L13.5905 8.86371L13.7226 8.79372L13.8037 8.70732L13.6345 8.46453L13.9661 8.51941L14.1752 8.66617L14.3127 8.83763L14.3457 9.23404Z" fill="var(--fill-0, #71B219)" stroke="var(--stroke-0, white)" mask="url(#path-1-inside-1_0_168)"/>
</g>
</svg>
