<svg preserveAspectRatio="none" width="100%" height="100%" overflow="visible" style="display: block;" viewBox="0 0 26 22" fill="none" xmlns="http://www.w3.org/2000/svg"><g id="ER"><mask id="path-1-inside-1_0_168" fill="white"><path d="M26 21L25 21L25 21L25 21L25 22L24 22L24 22L24 22L23 22L23 22L23 22L23 22L23 22L22 21L22 21L22 21L21 20L21 20L21 19L20 19L19 18L18 17L17 16L17 16L17 15L16 15L15 15L15 14L14 14L14 14L13 14L13 14H13L12 14L12 14L12 14L11 14L11 14L10 14L10 14L10 14H10L10 14L9 14L8 14L8 14L8 14L7 13L7 13L7 13L6 13L6 13L6 13L6 13L5 13L5 14L5 15L4 15L4 15L4 15L4 14L3 14L3 14L3 14L3 15L2 15L2 15L2 15L2 15L1 15L0 15L0 15L0 14L0 13L0 12L0 12L0 11L0 11L1 9L1 9L2 8L2 8L2 7L2 6L2 6L2 5L2 5L2 5L2 4L2 4L2 4L3 4L3 4H4L4 4L4 4L4 3L4 3L4 3L5 3L5 2L5 2L5 2L6 2L6 2L6 2L6 2L6 2L7 2L7 2L7 2L7 2L7 2L7 2L7 1L8 1L8 1L8 1L8 1L8 0L8 0L10 2L10 4L10 5L11 7L11 8L12 9L12 10L12 10L12 10L13 11L13 12L13 11L13 11L13 11L13 10L13 10L14 10L14 11L14 11L14 11L15 12L15 12L16 12L16 12L16 12L17 13L18 14L20 15L20 16L22 18L23 18L23 19L24 19L24 20L25 20L25 21L25 20L26 21L26 21ZM14 8L14 8L14 8L14 8L14 8L14 8L14 8ZM14 9L14 9L15 9L15 9L15 9L15 10L15 10L15 10L15 10L14 10L14 10L14 9L14 9L14 9L14 9L14 9L14 9L14 9L14 9L14 9L14 8L14 8L14 9L14 9L14 9Z"/></mask><path d="M26 21L25 21L25 21L25 21L25 22L24 22L24 22L24 22L23 22L23 22L23 22L23 22L23 22L22 21L22 21L22 21L21 20L21 20L21 19L20 19L19 18L18 17L17 16L17 16L17 15L16 15L15 15L15 14L14 14L14 14L13 14L13 14H13L12 14L12 14L12 14L11 14L11 14L10 14L10 14L10 14H10L10 14L9 14L8 14L8 14L8 14L7 13L7 13L7 13L6 13L6 13L6 13L6 13L5 13L5 14L5 15L4 15L4 15L4 15L4 14L3 14L3 14L3 14L3 15L2 15L2 15L2 15L2 15L1 15L0 15L0 15L0 14L0 13L0 12L0 12L0 11L0 11L1 9L1 9L2 8L2 8L2 7L2 6L2 6L2 5L2 5L2 5L2 4L2 4L2 4L3 4L3 4H4L4 4L4 4L4 3L4 3L4 3L5 3L5 2L5 2L5 2L6 2L6 2L6 2L6 2L6 2L7 2L7 2L7 2L7 2L7 2L7 2L7 1L8 1L8 1L8 1L8 1L8 0L8 0L10 2L10 4L10 5L11 7L11 8L12 9L12 10L12 10L12 10L13 11L13 12L13 11L13 11L13 11L13 10L13 10L14 10L14 11L14 11L14 11L15 12L15 12L16 12L16 12L16 12L17 13L18 14L20 15L20 16L22 18L23 18L23 19L24 19L24 20L25 20L25 21L25 20L26 21L26 21ZM14 8L14 8L14 8L14 8L14 8L14 8L14 8ZM14 9L14 9L15 9L15 9L15 9L15 10L15 10L15 10L15 10L14 10L14 10L14 9L14 9L14 9L14 9L14 9L14 9L14 9L14 9L14 9L14 8L14 8L14 9L14 9L14 9Z" fill="var(--fill-0,#71B219)" stroke="var(--stroke-0,white)" mask="url(#path-1-inside-1_0_168)"/></g></svg>