<svg preserveAspectRatio="none" width="100%" height="100%" overflow="visible" style="display: block;" viewBox="0 0 86.8035 76.5787" fill="none" xmlns="http://www.w3.org/2000/svg">
<g id="ES">
<mask id="path-1-inside-1_0_166" fill="white">
<path d="M63.1897 1.87779L63.1952 2.0616L63.3465 2.31397L63.5034 2.40724L63.8335 2.53621L64.088 2.55404L64.4347 2.61436L64.6699 2.75978L64.6837 2.98612L64.6245 3.23849L64.4815 3.47031L64.4003 3.64725L64.476 3.74876L64.5998 3.8283L64.7332 3.85023L64.824 3.8242L64.8928 3.68426L65.0235 3.5128L65.0964 3.49087L65.0909 3.58827L65.1528 3.70896L65.5779 3.91059L66.5106 4.28645L66.8765 4.29328L67.1723 4.33719L67.259 4.49492L67.8533 5.07376L67.995 5.05869L68.2591 5.07242L68.5783 5.02578L68.8094 4.91741L68.9607 4.93524L69.1286 5.04772L69.3239 5.14509L69.577 5.33576L69.8027 5.5703L69.9581 5.64711L70.895 5.48938L71.104 5.62794L71.3256 5.62656L71.5746 5.59089L72.1166 5.6636L72.5568 5.64577L72.5967 5.58813L72.6338 5.06693L72.704 4.88174L72.8086 4.83235L73.0686 4.8694L74.0164 5.17803L74.4071 5.37142L74.7827 5.52233L75.1101 5.53878L75.3274 5.64029L75.6315 6.13407L75.5792 6.38234L75.6067 6.47426L75.6384 6.64572L75.6301 6.83635L75.7099 6.96118L75.8543 6.97629L76.0387 6.93924L76.2409 6.86515L76.5958 6.65393L76.7017 6.61964L77.2961 6.85967L77.5588 7.02016L77.6496 7.19438L77.7858 7.3727L77.9633 7.39874L78.2164 7.23004L78.6112 7.04896L79.2826 7.20807L80.0296 7.43851L80.3529 7.46597L80.3639 7.35349L80.423 7.193L80.5454 7.11208L80.7298 7.08877L80.9857 7.00371L81.2773 6.86381L81.5813 6.80617L81.8991 6.91044L82.2829 6.99546L82.5127 6.99412L82.6228 7.32331L82.8085 7.44813L82.8814 7.73345L82.5402 7.88159L82.3394 7.90215L82.2774 8.3891L82.3738 8.52624L82.565 8.65521L82.6173 8.80469L82.6558 9.51798L82.2651 9.9473L81.7175 10.4288L79.0377 11.9719L78.3994 12.7167L78.1559 12.8882L76.1639 13.3559L74.7717 13.8552L74.1044 14.0363L73.2708 14.9018L72.876 15.2502L73.191 15.3462L73.5583 15.759L73.4345 15.9415L72.8994 16.224L72.6655 16.3105L72.5389 16.2652L72.4192 16.3036L71.5223 17.7918L70.7299 18.859L70.2842 19.3226L69.8274 20.0126L68.8548 21.7862L68.8479 22.2964L69.3267 24.0508L69.6018 24.5103L69.987 24.8957L70.7161 25.2235L70.8963 25.5459L70.6446 25.8531L69.9155 26.3977L68.6471 27.1329L68.1078 27.7117L67.9936 28.2686L67.6222 28.5197L67.4819 29.2974L67.2562 29.8117L67.2136 29.986L66.9742 30.3755L66.9426 30.6595L67.3347 31.049L67.1407 31.2177L66.9467 31.2918L66.4996 31.337L64.996 31.3864L63.7867 32.2273L63.1828 32.9707L62.6353 34.3492L61.9709 35.1599L61.6778 35.3094L61.2225 34.9542L60.6529 34.8993L60.1013 35.0172L59.8124 35.2998L59.3612 35.4575L58.9195 35.3217L57.9648 35.2477L57.5397 35.2614L56.8753 35.4905L56.3057 35.3382L55.3441 35.26L53.2627 35.4424L52.9999 35.5275L52.7399 35.8677L52.0768 36.4534L51.0685 36.4739L50.1564 36.847L49.928 37.0857L49.5456 37.7427L49.4259 38.2214L49.3461 38.2255L49.247 38.1076L49.1067 38.146L49.0338 38.5109L48.6913 38.6768L48.4051 38.7372L47.6994 38.4423L47.1106 37.9992L46.8025 37.9677L46.3017 37.2764L46.0857 36.836L45.933 36.3587L45.9646 36.1763L45.922 36.0241L45.4776 35.8306L45.369 35.3917L45.6936 34.8197L45.9591 34.5769L46.1242 34.507L45.7225 34.5317L45.4323 34.8993L45.0608 34.3095L43.5462 33.1586L43.6438 32.8939L43.6273 32.7512L43.3728 33.0599L43.1995 33.1394L42.425 33.09L41.5335 33.2313L41.2983 32.0325L41.1869 31.5716L41.158 31.2726L41.3877 30.5813L41.6395 30.2987L41.9738 29.7158L42.3865 29.2302L42.8226 29.1149L43.0151 29.0436L43.1761 28.6678L43.2669 28.3468L43.2009 28.3153L42.6919 28.3811L41.7784 27.03L41.8073 26.8147L41.9215 26.4951L41.9971 26.0904L42.0164 25.7708L42.2544 25.4951L42.619 25.218L42.9257 24.823L43.0798 24.4376L43.1115 24.0864L42.9381 23.8354L42.4388 23.6969L41.9229 22.6928L41.8087 22.0632L41.7028 21.9974L41.385 21.7107L41.0796 21.1703L41.0355 21.0852L41.3506 20.9906L42.6492 20.9865L42.9202 20.8671L42.9615 20.826L43.1981 20.4049L43.4458 19.7122L43.5035 19.2883L43.4251 19.1128L42.9945 18.6835L42.9753 18.5573L43.044 18.3542L43.2999 18.1375L43.6452 17.8906L43.8337 17.678L43.7883 17.5107L43.6879 17.3364L43.6714 17.1732L43.7346 16.973L43.758 16.2871L43.8021 16.1116L43.7346 15.4861L43.6507 14.9745L43.377 14.3106L43.4265 14.1638L43.5531 14.0404L43.9671 13.8099L44.2973 13.2667L44.7774 12.8114L45.4061 12.4451L45.8463 12.0377L46.0197 11.725L46.1421 11.6427L46.1063 11.4973L46.0238 11.2861L45.7734 11.0789L45.4501 10.961L45.0911 10.9665L44.8682 10.9239L44.8036 10.7621L44.8283 10.3232L44.8091 9.88831L44.7403 9.68806L44.5738 9.53715L44.245 9.57696L43.9603 9.45352L43.7443 9.42472L43.6191 9.52208L42.9821 9.49328L42.7166 9.42334L42.5309 9.33689L42.4126 9.38491L42.3452 9.46997L42.3342 9.603L42.2902 9.7786L42.0618 9.93771L41.5404 10.0954L41.1195 10.0831L40.7329 9.97061L40.6091 9.88693L40.4233 9.81288L39.6378 9.90477L39.5429 9.83758L39.2719 10.0008L38.873 10.1956L38.6487 10.2065L38.5675 10.1654L38.5386 10.079L38.3708 9.77584L38.4148 9.61535L38.7368 9.14488L38.701 9.03241L38.5689 8.88016L38.4506 8.66069L38.4162 8.54683L38.2112 8.52762L37.9925 8.64286L37.1602 8.88016L36.9607 8.96656L36.6003 9.19424L36.2358 9.54268L35.9455 9.61535L35.8451 9.5125L35.8106 8.69497L36.2536 8.15042L36.5686 7.82123L36.4214 7.754L36.0872 7.76359L36.1106 7.5085L36.2674 7.38501L36.4187 7.1066L36.2413 6.98726L36.1023 6.80345L36.1106 6.32336L36.1491 6.12858L36.1037 5.91736L35.4227 6.20263L35.248 6.16015L35.2411 5.8035L35.6181 5.25894L35.6566 5.09159L35.215 5.01067L34.8848 4.74319L34.6839 4.50316L34.4694 4.15887L34.468 3.84889L34.6908 3.12325L35.0086 2.91203L35.2838 2.78172L35.8657 2.27831L36.6677 2.37157L37.1643 2.26324L37.6101 2.00534L37.866 1.94774L38.2773 1.72279L38.2635 1.4183L38.1218 1.19196L38.2456 0.979354L38.7065 0.718735L39.2183 0.373056L39.8057 0.30587L40.4027 0L40.803 0.197495L41.1538 0.13031L41.5569 0.364851L42.0866 0.90116L42.8625 1.11653L43.4815 0.947792L44.5752 0.912127L45.1213 0.983457L46.0926 0.850426L46.6484 0.898439L47.5495 0.632336L48.2469 0.964243L49.5992 1.11925L50.4109 1.39084L52.6588 1.84623L53.4704 1.85171L54.6191 1.59524L55.1061 1.40319L55.5518 1.51704L56.2053 1.29619L56.519 1.34148L56.9275 1.6556L58.3652 2.07943L58.7421 1.72007L59.0227 1.64187L60.0572 1.86134L61.1 2.30849L61.642 2.34005L62.4344 2.21795L63.0631 1.92443L63.1897 1.87779ZM86.6934 20.1786L86.6233 20.2362L85.436 19.6587L85.0481 19.5942L84.9532 19.5064L84.9642 19.206L84.9944 19.073L85.7896 19.0126L86.432 19.2266L86.7773 19.8027L86.8035 19.9015L86.6934 20.1786ZM82.2596 20.4364L82.6296 20.6024L83.0203 20.4529L83.2281 20.4995L83.433 20.5805L83.4826 20.8959L83.3009 21.2471L83.0464 21.6037L82.8319 21.9946L82.6448 22.4432L82.2967 22.7079L81.9817 22.867L81.3158 22.5337L80.9279 22.45L80.8123 22.3252L80.7202 21.8287L80.5454 21.6709L80.2882 21.601L80.0626 21.7285L79.7682 21.9905L79.6114 21.7285L79.3624 21.6792L79.2688 21.5214L79.2729 21.3184L80.8701 20.1127L81.3323 19.8452L82.3132 19.5339L82.4632 19.5805L82.3352 19.7643L82.3449 19.848L82.4673 19.9371L82.4384 20.0798L82.3146 20.2032L82.2596 20.4364ZM75.6947 24.7572L75.5544 25.0603L74.967 24.9533L74.8377 24.8313L74.9642 24.4883L75.1335 24.4472L75.1445 24.203L75.3219 23.9575L76.1556 23.7586L76.3441 23.926L76.384 24.166L75.886 24.69L75.6947 24.7572ZM76.2698 25.9711L76.1831 26.0356L75.9272 25.9766H75.5434L75.5283 25.7777L75.5874 25.6392L75.6617 25.4979L75.8956 25.7749L76.2657 25.8271L76.2698 25.9711ZM17.1604 71.0783L16.8976 71.3664L16.6046 71.2621L16.7449 70.6311L16.8811 70.4432L17.4149 70.1675L17.8592 70.0564L17.9899 69.7629L18.1357 69.649L18.2926 69.8232L18.1743 70.0263L18.0807 70.6599L17.7849 70.863L17.1604 71.0783ZM1.26011 72.904L1.16381 72.9369L1.07577 72.5926L0.617651 71.7477L0.895536 71.3705L1.40181 71.3609L1.60681 71.6242L1.67558 71.8958L1.57927 72.0522L1.60815 72.369L1.5545 72.5734L1.26011 72.904ZM15.3032 74.3127L14.779 74.8051L14.2549 74.6913L14.1655 74.6103L14.691 74.4855L15.1684 74.1111L15.4752 73.2812L15.9553 72.3622L16.0516 71.9726L16.2414 71.8204L16.5028 71.8067L16.6156 71.8355L16.7312 72.0399L16.7298 72.5021L16.5936 73.2689L16.3419 73.9464L15.3032 74.3127ZM7.05043 73.3978L6.72712 74.3909L6.42585 74.7791L6.247 74.9094L5.80266 75.0177L5.27439 74.4018L4.99923 73.775L4.84793 73.5734L5.08865 73.4142L5.43946 73.4417L6.19335 73.3086L6.34604 73.2551L7.11231 72.6215L7.8662 72.5433L7.88408 72.7518L7.05043 73.3978ZM3.768 74.9519L3.60981 74.9889L3.42269 74.8806L3.22462 74.5363L3.35804 74.2812L3.4805 74.1646L3.65108 74.1824L3.9785 74.3703L4.07893 74.5651L4.08854 74.6858L3.768 74.9519ZM10.6561 74.4074L10.6327 74.742L10.7235 75.0795L10.7001 75.5911L10.5158 75.8682L10.0425 76.1439L9.66974 76.0945L9.45924 75.9834L9.08504 75.5349L9.07681 75.0712L9.41935 74.7695L9.56654 74.3785L10.4552 74.4526L10.5323 74.3772L10.5983 74.3552L10.6561 74.4074ZM1.05238 75.8723L0.679576 76.5787L0.209074 76.3153L0.0949232 76.2276L0 76.0821L0.452575 76.0533L0.910692 75.6981L1.05238 75.8723Z"/>
</mask>
<path d="M63.1897 1.87779L63.1952 2.0616L63.3465 2.31397L63.5034 2.40724L63.8335 2.53621L64.088 2.55404L64.4347 2.61436L64.6699 2.75978L64.6837 2.98612L64.6245 3.23849L64.4815 3.47031L64.4003 3.64725L64.476 3.74876L64.5998 3.8283L64.7332 3.85023L64.824 3.8242L64.8928 3.68426L65.0235 3.5128L65.0964 3.49087L65.0909 3.58827L65.1528 3.70896L65.5779 3.91059L66.5106 4.28645L66.8765 4.29328L67.1723 4.33719L67.259 4.49492L67.8533 5.07376L67.995 5.05869L68.2591 5.07242L68.5783 5.02578L68.8094 4.91741L68.9607 4.93524L69.1286 5.04772L69.3239 5.14509L69.577 5.33576L69.8027 5.5703L69.9581 5.64711L70.895 5.48938L71.104 5.62794L71.3256 5.62656L71.5746 5.59089L72.1166 5.6636L72.5568 5.64577L72.5967 5.58813L72.6338 5.06693L72.704 4.88174L72.8086 4.83235L73.0686 4.8694L74.0164 5.17803L74.4071 5.37142L74.7827 5.52233L75.1101 5.53878L75.3274 5.64029L75.6315 6.13407L75.5792 6.38234L75.6067 6.47426L75.6384 6.64572L75.6301 6.83635L75.7099 6.96118L75.8543 6.97629L76.0387 6.93924L76.2409 6.86515L76.5958 6.65393L76.7017 6.61964L77.2961 6.85967L77.5588 7.02016L77.6496 7.19438L77.7858 7.3727L77.9633 7.39874L78.2164 7.23004L78.6112 7.04896L79.2826 7.20807L80.0296 7.43851L80.3529 7.46597L80.3639 7.35349L80.423 7.193L80.5454 7.11208L80.7298 7.08877L80.9857 7.00371L81.2773 6.86381L81.5813 6.80617L81.8991 6.91044L82.2829 6.99546L82.5127 6.99412L82.6228 7.32331L82.8085 7.44813L82.8814 7.73345L82.5402 7.88159L82.3394 7.90215L82.2774 8.3891L82.3738 8.52624L82.565 8.65521L82.6173 8.80469L82.6558 9.51798L82.2651 9.9473L81.7175 10.4288L79.0377 11.9719L78.3994 12.7167L78.1559 12.8882L76.1639 13.3559L74.7717 13.8552L74.1044 14.0363L73.2708 14.9018L72.876 15.2502L73.191 15.3462L73.5583 15.759L73.4345 15.9415L72.8994 16.224L72.6655 16.3105L72.5389 16.2652L72.4192 16.3036L71.5223 17.7918L70.7299 18.859L70.2842 19.3226L69.8274 20.0126L68.8548 21.7862L68.8479 22.2964L69.3267 24.0508L69.6018 24.5103L69.987 24.8957L70.7161 25.2235L70.8963 25.5459L70.6446 25.8531L69.9155 26.3977L68.6471 27.1329L68.1078 27.7117L67.9936 28.2686L67.6222 28.5197L67.4819 29.2974L67.2562 29.8117L67.2136 29.986L66.9742 30.3755L66.9426 30.6595L67.3347 31.049L67.1407 31.2177L66.9467 31.2918L66.4996 31.337L64.996 31.3864L63.7867 32.2273L63.1828 32.9707L62.6353 34.3492L61.9709 35.1599L61.6778 35.3094L61.2225 34.9542L60.6529 34.8993L60.1013 35.0172L59.8124 35.2998L59.3612 35.4575L58.9195 35.3217L57.9648 35.2477L57.5397 35.2614L56.8753 35.4905L56.3057 35.3382L55.3441 35.26L53.2627 35.4424L52.9999 35.5275L52.7399 35.8677L52.0768 36.4534L51.0685 36.4739L50.1564 36.847L49.928 37.0857L49.5456 37.7427L49.4259 38.2214L49.3461 38.2255L49.247 38.1076L49.1067 38.146L49.0338 38.5109L48.6913 38.6768L48.4051 38.7372L47.6994 38.4423L47.1106 37.9992L46.8025 37.9677L46.3017 37.2764L46.0857 36.836L45.933 36.3587L45.9646 36.1763L45.922 36.0241L45.4776 35.8306L45.369 35.3917L45.6936 34.8197L45.9591 34.5769L46.1242 34.507L45.7225 34.5317L45.4323 34.8993L45.0608 34.3095L43.5462 33.1586L43.6438 32.8939L43.6273 32.7512L43.3728 33.0599L43.1995 33.1394L42.425 33.09L41.5335 33.2313L41.2983 32.0325L41.1869 31.5716L41.158 31.2726L41.3877 30.5813L41.6395 30.2987L41.9738 29.7158L42.3865 29.2302L42.8226 29.1149L43.0151 29.0436L43.1761 28.6678L43.2669 28.3468L43.2009 28.3153L42.6919 28.3811L41.7784 27.03L41.8073 26.8147L41.9215 26.4951L41.9971 26.0904L42.0164 25.7708L42.2544 25.4951L42.619 25.218L42.9257 24.823L43.0798 24.4376L43.1115 24.0864L42.9381 23.8354L42.4388 23.6969L41.9229 22.6928L41.8087 22.0632L41.7028 21.9974L41.385 21.7107L41.0796 21.1703L41.0355 21.0852L41.3506 20.9906L42.6492 20.9865L42.9202 20.8671L42.9615 20.826L43.1981 20.4049L43.4458 19.7122L43.5035 19.2883L43.4251 19.1128L42.9945 18.6835L42.9753 18.5573L43.044 18.3542L43.2999 18.1375L43.6452 17.8906L43.8337 17.678L43.7883 17.5107L43.6879 17.3364L43.6714 17.1732L43.7346 16.973L43.758 16.2871L43.8021 16.1116L43.7346 15.4861L43.6507 14.9745L43.377 14.3106L43.4265 14.1638L43.5531 14.0404L43.9671 13.8099L44.2973 13.2667L44.7774 12.8114L45.4061 12.4451L45.8463 12.0377L46.0197 11.725L46.1421 11.6427L46.1063 11.4973L46.0238 11.2861L45.7734 11.0789L45.4501 10.961L45.0911 10.9665L44.8682 10.9239L44.8036 10.7621L44.8283 10.3232L44.8091 9.88831L44.7403 9.68806L44.5738 9.53715L44.245 9.57696L43.9603 9.45352L43.7443 9.42472L43.6191 9.52208L42.9821 9.49328L42.7166 9.42334L42.5309 9.33689L42.4126 9.38491L42.3452 9.46997L42.3342 9.603L42.2902 9.7786L42.0618 9.93771L41.5404 10.0954L41.1195 10.0831L40.7329 9.97061L40.6091 9.88693L40.4233 9.81288L39.6378 9.90477L39.5429 9.83758L39.2719 10.0008L38.873 10.1956L38.6487 10.2065L38.5675 10.1654L38.5386 10.079L38.3708 9.77584L38.4148 9.61535L38.7368 9.14488L38.701 9.03241L38.5689 8.88016L38.4506 8.66069L38.4162 8.54683L38.2112 8.52762L37.9925 8.64286L37.1602 8.88016L36.9607 8.96656L36.6003 9.19424L36.2358 9.54268L35.9455 9.61535L35.8451 9.5125L35.8106 8.69497L36.2536 8.15042L36.5686 7.82123L36.4214 7.754L36.0872 7.76359L36.1106 7.5085L36.2674 7.38501L36.4187 7.1066L36.2413 6.98726L36.1023 6.80345L36.1106 6.32336L36.1491 6.12858L36.1037 5.91736L35.4227 6.20263L35.248 6.16015L35.2411 5.8035L35.6181 5.25894L35.6566 5.09159L35.215 5.01067L34.8848 4.74319L34.6839 4.50316L34.4694 4.15887L34.468 3.84889L34.6908 3.12325L35.0086 2.91203L35.2838 2.78172L35.8657 2.27831L36.6677 2.37157L37.1643 2.26324L37.6101 2.00534L37.866 1.94774L38.2773 1.72279L38.2635 1.4183L38.1218 1.19196L38.2456 0.979354L38.7065 0.718735L39.2183 0.373056L39.8057 0.30587L40.4027 0L40.803 0.197495L41.1538 0.13031L41.5569 0.364851L42.0866 0.90116L42.8625 1.11653L43.4815 0.947792L44.5752 0.912127L45.1213 0.983457L46.0926 0.850426L46.6484 0.898439L47.5495 0.632336L48.2469 0.964243L49.5992 1.11925L50.4109 1.39084L52.6588 1.84623L53.4704 1.85171L54.6191 1.59524L55.1061 1.40319L55.5518 1.51704L56.2053 1.29619L56.519 1.34148L56.9275 1.6556L58.3652 2.07943L58.7421 1.72007L59.0227 1.64187L60.0572 1.86134L61.1 2.30849L61.642 2.34005L62.4344 2.21795L63.0631 1.92443L63.1897 1.87779ZM86.6934 20.1786L86.6233 20.2362L85.436 19.6587L85.0481 19.5942L84.9532 19.5064L84.9642 19.206L84.9944 19.073L85.7896 19.0126L86.432 19.2266L86.7773 19.8027L86.8035 19.9015L86.6934 20.1786ZM82.2596 20.4364L82.6296 20.6024L83.0203 20.4529L83.2281 20.4995L83.433 20.5805L83.4826 20.8959L83.3009 21.2471L83.0464 21.6037L82.8319 21.9946L82.6448 22.4432L82.2967 22.7079L81.9817 22.867L81.3158 22.5337L80.9279 22.45L80.8123 22.3252L80.7202 21.8287L80.5454 21.6709L80.2882 21.601L80.0626 21.7285L79.7682 21.9905L79.6114 21.7285L79.3624 21.6792L79.2688 21.5214L79.2729 21.3184L80.8701 20.1127L81.3323 19.8452L82.3132 19.5339L82.4632 19.5805L82.3352 19.7643L82.3449 19.848L82.4673 19.9371L82.4384 20.0798L82.3146 20.2032L82.2596 20.4364ZM75.6947 24.7572L75.5544 25.0603L74.967 24.9533L74.8377 24.8313L74.9642 24.4883L75.1335 24.4472L75.1445 24.203L75.3219 23.9575L76.1556 23.7586L76.3441 23.926L76.384 24.166L75.886 24.69L75.6947 24.7572ZM76.2698 25.9711L76.1831 26.0356L75.9272 25.9766H75.5434L75.5283 25.7777L75.5874 25.6392L75.6617 25.4979L75.8956 25.7749L76.2657 25.8271L76.2698 25.9711ZM17.1604 71.0783L16.8976 71.3664L16.6046 71.2621L16.7449 70.6311L16.8811 70.4432L17.4149 70.1675L17.8592 70.0564L17.9899 69.7629L18.1357 69.649L18.2926 69.8232L18.1743 70.0263L18.0807 70.6599L17.7849 70.863L17.1604 71.0783ZM1.26011 72.904L1.16381 72.9369L1.07577 72.5926L0.617651 71.7477L0.895536 71.3705L1.40181 71.3609L1.60681 71.6242L1.67558 71.8958L1.57927 72.0522L1.60815 72.369L1.5545 72.5734L1.26011 72.904ZM15.3032 74.3127L14.779 74.8051L14.2549 74.6913L14.1655 74.6103L14.691 74.4855L15.1684 74.1111L15.4752 73.2812L15.9553 72.3622L16.0516 71.9726L16.2414 71.8204L16.5028 71.8067L16.6156 71.8355L16.7312 72.0399L16.7298 72.5021L16.5936 73.2689L16.3419 73.9464L15.3032 74.3127ZM7.05043 73.3978L6.72712 74.3909L6.42585 74.7791L6.247 74.9094L5.80266 75.0177L5.27439 74.4018L4.99923 73.775L4.84793 73.5734L5.08865 73.4142L5.43946 73.4417L6.19335 73.3086L6.34604 73.2551L7.11231 72.6215L7.8662 72.5433L7.88408 72.7518L7.05043 73.3978ZM3.768 74.9519L3.60981 74.9889L3.42269 74.8806L3.22462 74.5363L3.35804 74.2812L3.4805 74.1646L3.65108 74.1824L3.9785 74.3703L4.07893 74.5651L4.08854 74.6858L3.768 74.9519ZM10.6561 74.4074L10.6327 74.742L10.7235 75.0795L10.7001 75.5911L10.5158 75.8682L10.0425 76.1439L9.66974 76.0945L9.45924 75.9834L9.08504 75.5349L9.07681 75.0712L9.41935 74.7695L9.56654 74.3785L10.4552 74.4526L10.5323 74.3772L10.5983 74.3552L10.6561 74.4074ZM1.05238 75.8723L0.679576 76.5787L0.209074 76.3153L0.0949232 76.2276L0 76.0821L0.452575 76.0533L0.910692 75.6981L1.05238 75.8723Z" fill="var(--fill-0, #71B219)" stroke="var(--stroke-0, white)" mask="url(#path-1-inside-1_0_166)"/>
</g>
</svg>
