<svg preserveAspectRatio="none" width="100%" height="100%" overflow="visible" style="display: block;" viewBox="0 0 87 77" fill="none" xmlns="http://www.w3.org/2000/svg"><g id="ES"><mask id="path-1-inside-1_0_166" fill="white"><path d="M63 2L63 2L63 2L64 2L64 2L64 3L64 3L65 3L65 3L65 3L64 4L64 4L64 4L65 4L65 4L65 4L65 4L65 4L65 4L65 4L65 4L66 4L66 4L67 4L67 4L67 4L68 5L68 5L68 5L69 5L69 5L69 5L69 5L69 5L70 5L70 6L70 6L71 6L71 6L71 6L72 6L72 6L73 6L73 6L73 5L73 5L73 5L73 5L74 5L74 5L75 6L75 6L75 6L76 6L76 6L76 6L76 7L76 7L76 7L76 7L76 7L76 7L77 7L77 7L77 7L78 7L78 7L78 7L78 7L78 7L79 7L79 7L80 7L80 8L80 7L80 7L80 7L81 7L81 7L81 7L82 7L82 7L82 7L82 7L83 7L83 7L83 8L82 8L82 8L82 8L82 8L83 9L83 9L83 10L82 10L82 10L79 12L78 13L78 13L76 13L75 14L74 14L73 15L73 15L73 15L74 16L73 16L73 16L73 16L72 16L72 16L72 18L71 19L70 19L70 20L69 22L69 22L69 24L70 24L70 25L71 25L71 26L71 26L70 26L69 27L68 28L68 28L68 28L68 29L67 30L67 30L67 30L67 31L67 31L67 31L67 31L66 31L65 31L64 32L63 33L63 34L62 35L62 35L61 35L61 35L60 35L60 35L59 36L59 35L58 35L58 35L57 36L56 35L55 35L53 35L53 36L53 36L52 36L51 36L50 37L50 37L50 38L49 38L49 38L49 38L49 38L49 38L49 39L48 39L48 38L47 38L47 38L46 37L46 37L46 36L46 36L46 36L46 36L45 35L46 35L46 35L46 34L46 34L45 35L45 34L44 33L44 33L44 33L43 33L43 33L42 33L42 33L41 32L41 32L41 31L41 31L42 30L42 30L42 29L43 29L43 29L43 29L43 28L43 28L43 28L42 27L42 27L42 26L42 26L42 26L42 26L43 25L43 25L43 24L43 24L43 24L42 24L42 23L42 22L42 22L41 22L41 21L41 21L41 21L43 21L43 21L43 21L43 20L43 20L44 19L43 19L43 19L43 19L43 18L43 18L44 18L44 18L44 18L44 17L44 17L44 17L44 16L44 16L44 16L44 15L43 14L43 14L44 14L44 14L44 13L45 13L45 12L46 12L46 12L46 12L46 12L46 11L46 11L46 11L45 11L45 11L45 11L45 10L45 10L45 10L45 10L44 10L44 10L44 9L44 10L43 10L43 9L42 9L42 9L42 10L42 10L42 10L42 10L42 10L41 10L41 10L41 10L40 10L40 10L40 10L39 10L39 10L39 10L39 10L38 10L38 10L38 10L39 9L39 9L39 9L38 9L38 8L38 8L38 9L37 9L37 9L37 9L36 10L36 10L36 10L36 9L36 8L37 8L36 8L36 8L36 8L36 7L36 7L36 7L36 7L36 6L36 6L36 6L35 6L35 6L35 6L36 5L36 5L35 5L35 5L35 4L34 4L34 4L35 3L35 3L35 3L36 2L37 2L37 2L38 2L38 2L38 2L38 1L38 1L38 1L39 1L39 0L40 0L40 0L41 0L41 0L42 0L42 1L43 1L44 1L45 1L45 1L46 1L47 1L48 1L48 1L50 1L50 1L53 2L54 2L55 2L55 1L56 2L56 1L56 1L57 2L58 2L59 2L59 2L60 2L61 2L62 2L62 2L63 2L63 2ZM87 20L87 20L85 20L85 20L85 20L85 19L85 19L86 19L86 19L87 20L87 20L87 20ZM82 20L83 21L83 20L83 20L83 21L84 21L83 21L83 22L83 22L83 22L82 23L82 23L81 22L81 22L81 22L81 22L80 22L80 22L80 22L80 22L80 22L79 22L79 22L79 21L81 20L81 20L82 20L82 20L82 20L82 20L82 20L82 20L82 20L82 20ZM76 25L76 25L75 25L75 25L75 24L75 24L75 24L75 24L76 24L76 24L76 24L76 25L76 25ZM76 26L76 26L76 26H76L76 26L76 26L76 26L76 26L76 26L76 26ZM17 71L17 71L17 71L17 71L17 70L17 70L18 70L18 70L18 70L18 70L18 70L18 71L18 71L17 71ZM1 73L1 73L1 73L1 72L1 71L1 71L2 72L2 72L2 72L2 72L2 73L1 73ZM15 74L15 75L14 75L14 75L15 74L15 74L16 73L16 72L16 72L16 72L16 72L17 72L17 72L17 72L17 73L16 74L15 74ZM7 73L7 74L6 75L6 75L6 75L5 74L5 74L5 74L5 73L5 73L6 73L6 73L7 73L8 72L8 73L7 73ZM4 75L4 75L3 75L3 74L3 74L4 74L4 74L4 74L4 75L4 75L4 75ZM11 74L11 75L11 75L11 76L10 76L10 76L10 76L10 76L9 76L9 75L9 75L10 74L10 74L10 74L11 74L11 74ZM1 76L1 77L0 76L0 76L0 76L0 76L1 76L1 76Z"/></mask><path d="M63 2L63 2L63 2L64 2L64 2L64 3L64 3L65 3L65 3L65 3L64 4L64 4L64 4L65 4L65 4L65 4L65 4L65 4L65 4L65 4L65 4L66 4L66 4L67 4L67 4L67 4L68 5L68 5L68 5L69 5L69 5L69 5L69 5L69 5L70 5L70 6L70 6L71 6L71 6L71 6L72 6L72 6L73 6L73 6L73 5L73 5L73 5L73 5L74 5L74 5L75 6L75 6L75 6L76 6L76 6L76 6L76 7L76 7L76 7L76 7L76 7L76 7L77 7L77 7L77 7L78 7L78 7L78 7L78 7L78 7L79 7L79 7L80 7L80 8L80 7L80 7L80 7L81 7L81 7L81 7L82 7L82 7L82 7L82 7L83 7L83 7L83 8L82 8L82 8L82 8L82 8L83 9L83 9L83 10L82 10L82 10L79 12L78 13L78 13L76 13L75 14L74 14L73 15L73 15L73 15L74 16L73 16L73 16L73 16L72 16L72 16L72 18L71 19L70 19L70 20L69 22L69 22L69 24L70 24L70 25L71 25L71 26L71 26L70 26L69 27L68 28L68 28L68 28L68 29L67 30L67 30L67 30L67 31L67 31L67 31L67 31L66 31L65 31L64 32L63 33L63 34L62 35L62 35L61 35L61 35L60 35L60 35L59 36L59 35L58 35L58 35L57 36L56 35L55 35L53 35L53 36L53 36L52 36L51 36L50 37L50 37L50 38L49 38L49 38L49 38L49 38L49 38L49 39L48 39L48 38L47 38L47 38L46 37L46 37L46 36L46 36L46 36L46 36L45 35L46 35L46 35L46 34L46 34L45 35L45 34L44 33L44 33L44 33L43 33L43 33L42 33L42 33L41 32L41 32L41 31L41 31L42 30L42 30L42 29L43 29L43 29L43 29L43 28L43 28L43 28L42 27L42 27L42 26L42 26L42 26L42 26L43 25L43 25L43 24L43 24L43 24L42 24L42 23L42 22L42 22L41 22L41 21L41 21L41 21L43 21L43 21L43 21L43 20L43 20L44 19L43 19L43 19L43 19L43 18L43 18L44 18L44 18L44 18L44 17L44 17L44 17L44 16L44 16L44 16L44 15L43 14L43 14L44 14L44 14L44 13L45 13L45 12L46 12L46 12L46 12L46 12L46 11L46 11L46 11L45 11L45 11L45 11L45 10L45 10L45 10L45 10L44 10L44 10L44 9L44 10L43 10L43 9L42 9L42 9L42 10L42 10L42 10L42 10L42 10L41 10L41 10L41 10L40 10L40 10L40 10L39 10L39 10L39 10L39 10L38 10L38 10L38 10L39 9L39 9L39 9L38 9L38 8L38 8L38 9L37 9L37 9L37 9L36 10L36 10L36 10L36 9L36 8L37 8L36 8L36 8L36 8L36 7L36 7L36 7L36 7L36 6L36 6L36 6L35 6L35 6L35 6L36 5L36 5L35 5L35 5L35 4L34 4L34 4L35 3L35 3L35 3L36 2L37 2L37 2L38 2L38 2L38 2L38 1L38 1L38 1L39 1L39 0L40 0L40 0L41 0L41 0L42 0L42 1L43 1L44 1L45 1L45 1L46 1L47 1L48 1L48 1L50 1L50 1L53 2L54 2L55 2L55 1L56 2L56 1L56 1L57 2L58 2L59 2L59 2L60 2L61 2L62 2L62 2L63 2L63 2ZM87 20L87 20L85 20L85 20L85 20L85 19L85 19L86 19L86 19L87 20L87 20L87 20ZM82 20L83 21L83 20L83 20L83 21L84 21L83 21L83 22L83 22L83 22L82 23L82 23L81 22L81 22L81 22L81 22L80 22L80 22L80 22L80 22L80 22L79 22L79 22L79 21L81 20L81 20L82 20L82 20L82 20L82 20L82 20L82 20L82 20L82 20ZM76 25L76 25L75 25L75 25L75 24L75 24L75 24L75 24L76 24L76 24L76 24L76 25L76 25ZM76 26L76 26L76 26H76L76 26L76 26L76 26L76 26L76 26L76 26ZM17 71L17 71L17 71L17 71L17 70L17 70L18 70L18 70L18 70L18 70L18 70L18 71L18 71L17 71ZM1 73L1 73L1 73L1 72L1 71L1 71L2 72L2 72L2 72L2 72L2 73L1 73ZM15 74L15 75L14 75L14 75L15 74L15 74L16 73L16 72L16 72L16 72L16 72L17 72L17 72L17 72L17 73L16 74L15 74ZM7 73L7 74L6 75L6 75L6 75L5 74L5 74L5 74L5 73L5 73L6 73L6 73L7 73L8 72L8 73L7 73ZM4 75L4 75L3 75L3 74L3 74L4 74L4 74L4 74L4 75L4 75L4 75ZM11 74L11 75L11 75L11 76L10 76L10 76L10 76L10 76L9 76L9 75L9 75L10 74L10 74L10 74L11 74L11 74ZM1 76L1 77L0 76L0 76L0 76L0 76L1 76L1 76Z" fill="var(--fill-0,#71B219)" stroke="var(--stroke-0,white)" mask="url(#path-1-inside-1_0_166)"/></g></svg>