<svg preserveAspectRatio="none" width="100%" height="100%" overflow="visible" style="display: block;" viewBox="0 0 58 44" fill="none" xmlns="http://www.w3.org/2000/svg"><g id="ET"><mask id="path-1-inside-1_0_165" fill="white"><path d="M21 2L21 2L22 2L23 1L23 1H24L24 1L24 1L24 2L24 2L25 1L25 1L26 1L26 1H26L27 2L27 2L28 2L28 2L28 2L29 2L30 3L30 3L31 3L31 4L32 5L33 6L34 7L34 7L35 8L35 8L35 8L36 9L36 9L36 9L36 10L35 11L35 12L35 12L34 12L34 12L34 13L34 14L34 14L34 15L34 15L35 15L35 15L35 15L36 15L36 15L37 15L37 15L38 15L38 15L38 15L38 15L38 15L38 16L38 16L38 16L37 17L37 17L37 17L38 17L38 18L38 18L38 18L38 18L39 19L39 19L39 20L40 20L40 20L40 21L40 21L41 22L41 22L42 22L42 23L43 23L44 23L45 24L46 24L47 24L48 25L50 25L51 26L53 26L54 27L54 27H55H56H58L57 28L56 29L55 30L54 30L53 32L52 32L51 34L50 34L49 36L48 37L47 38L46 39L46 39L45 39L44 39L43 38L42 38L42 39L42 39L41 39L41 39L40 39L39 40L39 40L38 40L38 41L38 41L38 41L36 41L36 41L35 42L34 42L34 42L34 42L33 42L32 42L32 42L32 42L31 42L31 42L31 42L30 41L30 41L29 42L28 42L27 42L26 43L26 43L26 44L25 44L25 44L24 44L24 44L23 44L22 44L22 44L21 44L20 44L20 44L19 43L18 43L18 42L17 42L16 41L15 41L15 40L15 40L14 40L13 40L12 40L12 40L12 40L11 40L11 39L11 39L11 38L11 38L11 38L11 38L11 37L11 37L10 37L9 37L9 37L9 37L9 37L9 37L9 36L9 36L9 36L8 36L8 36L8 35L8 35L8 34L7 34L7 33L7 32L7 32L6 32L6 32L6 31L5 31L5 30L4 30L4 30L4 29L4 29L4 29L3 28L2 28L2 28L2 28L1 28L0 27L0 27L0 27L0 27L0 27L1 26L1 25L1 25L2 25L2 25L2 25L3 25L4 25L4 25L4 25L4 24L4 24L4 24L4 23L4 22L4 21L4 21L4 21L4 20L4 20L5 19L5 18L5 18L5 18L5 17L5 16L6 16L6 16L6 16L6 16L6 16L7 16L7 16L7 16L8 16L7 15L8 14L8 14L8 14L8 13L8 12L8 12L9 11L9 11L10 10L10 9L10 9L10 9L11 8L12 8L12 8L12 8L12 8L12 8L12 7L12 6L13 6L13 6L13 5L13 5L13 4L13 3L14 2L14 2L14 2L15 2L15 2L16 2L16 2L16 2L16 2L16 2L16 2L17 2L17 3L18 3L18 3L18 2L18 2L19 1L19 0L19 0L19 0L20 1L20 1L20 1L20 1L21 2L21 2Z"/></mask><path d="M21 2L21 2L22 2L23 1L23 1H24L24 1L24 1L24 2L24 2L25 1L25 1L26 1L26 1H26L27 2L27 2L28 2L28 2L28 2L29 2L30 3L30 3L31 3L31 4L32 5L33 6L34 7L34 7L35 8L35 8L35 8L36 9L36 9L36 9L36 10L35 11L35 12L35 12L34 12L34 12L34 13L34 14L34 14L34 15L34 15L35 15L35 15L35 15L36 15L36 15L37 15L37 15L38 15L38 15L38 15L38 15L38 15L38 16L38 16L38 16L37 17L37 17L37 17L38 17L38 18L38 18L38 18L38 18L39 19L39 19L39 20L40 20L40 20L40 21L40 21L41 22L41 22L42 22L42 23L43 23L44 23L45 24L46 24L47 24L48 25L50 25L51 26L53 26L54 27L54 27H55H56H58L57 28L56 29L55 30L54 30L53 32L52 32L51 34L50 34L49 36L48 37L47 38L46 39L46 39L45 39L44 39L43 38L42 38L42 39L42 39L41 39L41 39L40 39L39 40L39 40L38 40L38 41L38 41L38 41L36 41L36 41L35 42L34 42L34 42L34 42L33 42L32 42L32 42L32 42L31 42L31 42L31 42L30 41L30 41L29 42L28 42L27 42L26 43L26 43L26 44L25 44L25 44L24 44L24 44L23 44L22 44L22 44L21 44L20 44L20 44L19 43L18 43L18 42L17 42L16 41L15 41L15 40L15 40L14 40L13 40L12 40L12 40L12 40L11 40L11 39L11 39L11 38L11 38L11 38L11 38L11 37L11 37L10 37L9 37L9 37L9 37L9 37L9 37L9 36L9 36L9 36L8 36L8 36L8 35L8 35L8 34L7 34L7 33L7 32L7 32L6 32L6 32L6 31L5 31L5 30L4 30L4 30L4 29L4 29L4 29L3 28L2 28L2 28L2 28L1 28L0 27L0 27L0 27L0 27L0 27L1 26L1 25L1 25L2 25L2 25L2 25L3 25L4 25L4 25L4 25L4 24L4 24L4 24L4 23L4 22L4 21L4 21L4 21L4 20L4 20L5 19L5 18L5 18L5 18L5 17L5 16L6 16L6 16L6 16L6 16L6 16L7 16L7 16L7 16L8 16L7 15L8 14L8 14L8 14L8 13L8 12L8 12L9 11L9 11L10 10L10 9L10 9L10 9L11 8L12 8L12 8L12 8L12 8L12 8L12 7L12 6L13 6L13 6L13 5L13 5L13 4L13 3L14 2L14 2L14 2L15 2L15 2L16 2L16 2L16 2L16 2L16 2L16 2L17 2L17 3L18 3L18 3L18 2L18 2L19 1L19 0L19 0L19 0L20 1L20 1L20 1L20 1L21 2L21 2Z" fill="var(--fill-0,#71B219)" stroke="var(--stroke-0,white)" mask="url(#path-1-inside-1_0_165)"/></g></svg>