<svg preserveAspectRatio="none" width="100%" height="100%" overflow="visible" style="display: block;" viewBox="0 0 57.8328 44.2238" fill="none" xmlns="http://www.w3.org/2000/svg">
<g id="ET">
<mask id="path-1-inside-1_0_165" fill="white">
<path d="M20.9738 1.67481L21.2558 1.69127L22.443 1.46221L23.1529 1.0493L23.2602 0.88609H23.4556L23.6922 1.06852L23.7816 1.24408L23.9329 1.47451L24.2122 1.51018L24.8904 1.34697L25.2233 1.24822L25.504 1.32914L25.863 1.39636H26.0886L26.6252 1.62814L27.2689 1.55409L27.573 1.56644L27.8852 1.66519L28.3929 2.0328L29.0546 2.47861L30.0011 2.79683L30.1964 2.92576L30.6532 3.43326L31.363 4.4058L32.2916 5.33576L33.3041 6.0696L33.8448 6.57711L34.2094 7.19848L34.567 7.76225L34.9316 8.00503L35.27 8.19705L35.6208 8.6264L35.8711 8.98577L36.2124 9.39315L35.834 9.94867L35.3264 10.6935L34.7363 11.5604L34.5574 11.7744L34.0401 12.297L33.9507 12.4451L33.8502 12.8237L33.8434 13.5109L33.9094 14.3888L33.9727 15.198L34.2575 15.2927L34.5876 15.3503L34.9522 15.2447L35.3938 15.1542L35.9413 15.1007L36.5466 14.9374L36.9043 14.8058L37.2799 14.8153L37.6128 14.9566L37.7751 15.0856L38.0104 15.1295L38.3144 15.124L38.2497 15.2762L38.0833 15.4984L37.8783 15.7207L37.6981 15.9511L37.2978 16.5958L37.2854 16.6781L37.3349 16.8056L37.5509 17.0992L37.7765 17.5751L37.9031 18.0113L38.0008 18.2226L38.2745 18.464L38.6693 18.9619L38.8784 19.298L39.3146 19.4776L39.4562 19.9029L39.7823 20.5283L40.1344 21.0276L40.4756 21.4185L40.8553 21.5694L41.008 21.5818L41.8046 22.3046L42.4112 22.8547L42.5612 22.9424L43.6548 23.3032L44.9136 23.7174L45.9233 24.0494L47.2096 24.4719L48.478 24.8902L49.668 25.288L51.3381 25.8476L52.6835 26.2989L53.7456 26.6555L53.9712 26.7667H55.2355H56.519H57.8328L56.8808 27.6843L55.8036 28.7227L54.6728 29.8118L53.9436 30.5127L52.7895 31.6251L51.8278 32.5496L50.8387 33.5592L49.9445 34.4727L48.7807 35.7373L48.0268 36.5549L46.8465 37.8374L46.105 38.6412L45.9921 38.6878L44.9314 38.6274L43.8997 38.5671L42.5818 38.4916L42.4304 38.4944L42.0466 38.5698L41.8141 38.6439L40.8649 38.8606L40.6903 38.9169L39.902 39.2611L39.0972 39.6672L38.6735 39.9799L38.346 40.4326L38.2057 40.7549L38.0585 40.8962L37.8081 41.0196L36.1229 41.3255L35.6332 41.3667L34.8449 41.6108L34.4239 42.0196L34.3043 42.2253L33.7388 42.2198L32.7511 42.2802L32.3288 42.3461L32.1224 42.357L31.7441 42.3556L31.4332 42.2815L31.2268 42.1705L30.971 41.9195L30.3987 41.4106L29.9832 41.0924L29.0711 41.4586L28.2498 41.8221L27.0846 42.3392L26.4201 42.7095L26.2207 43.0812L25.7075 43.7575L25.2495 44.1731L25.0775 44.2238L24.0389 44.1374L23.6646 44.0524L23.0455 43.977L22.2133 43.8302L21.6562 43.6724L21.0509 43.6532L20.1786 43.5997L19.6407 43.4859L19.0946 43.11L18.393 42.6588L17.6694 42.1938L16.9238 41.7151L16.0433 41.1637L15.0817 40.5615L14.8616 40.5012L14.7653 40.4902L13.7212 40.4627L12.6357 40.4339L11.9025 40.4147L11.6713 40.3448L11.5035 40.2076L11.2765 39.7618L10.9903 39.445L10.6712 39.0403L10.6451 38.4944L10.7332 37.8977L10.8157 37.7002L10.7689 37.504L10.7813 37.2338L10.6024 36.9828L9.53489 36.6948L9.36158 36.7167L9.18408 36.8251L8.98189 36.9019L8.83604 36.8292L8.74662 36.7222L8.74385 36.5453L8.76173 36.4136L8.69985 36.3409L8.36004 36.0721L8.04089 35.7182L7.84827 35.3272L7.66119 35.0063L7.56766 34.2889L7.33104 33.8472L7.09988 33.3067L6.75739 32.2767L6.60877 31.9214L6.33093 31.6827L6.03789 31.4619L5.73385 31.0051L4.94281 30.6018L4.63877 30.2877L4.11188 29.7432L3.98123 29.4675L3.94269 29.1945L3.77896 28.938L3.48735 28.6486L2.57523 28.0259L2.3235 27.9518L1.99746 27.8845L1.51877 27.8228L0.876266 27.6802L0.315039 27.436L0.0604553 27.2632L0 27.1439L0.0522266 26.9436L0.255843 26.5993L0.641078 25.7859L0.907921 25.2249L1.08954 25.0658L1.58342 25.026L2.10888 25.0425L2.49269 25.0836L3.03477 25.0905L3.68408 25.0425L3.94135 24.8546L4.14496 24.6488L4.23019 24.5048L4.25773 24.1413L4.25639 23.8491L4.21508 22.7285L4.19031 22.0427L4.16142 21.258L4.16554 21.1003L4.17108 20.8987L4.32927 20.0606L4.47789 19.5805L4.57965 19.3268L4.98957 18.5257L5.06666 18.2692L5.08043 18.0346L4.92904 16.9579L5.19185 16.4504L5.53023 15.9483L5.82604 15.733L6.07231 15.5876L6.18785 15.6493L6.47123 15.8811L6.8427 16.1102L7.016 16.0595L7.2705 15.8592L7.46035 15.6479L7.43558 15.2694L7.6062 14.4916L7.5732 14.0417L7.75616 13.4848L7.95558 12.6989L8.045 12.2023L8.15919 11.9348L8.69985 11.3862L9.16485 10.6098L9.46058 10.0419L10.0274 9.1147L10.3135 8.77588L10.546 8.63051L10.8927 8.53724L11.5379 8.45218L12.0015 8.37399L12.0689 8.25331L12.1089 8.06402L12.1157 7.64839L12.2051 6.93376L12.406 6.23558L12.6426 5.70613L12.7705 5.46473L12.9232 5.23291L13.0952 4.83921L13.3126 3.98879L13.3002 3.41133L13.6111 2.3524L13.6799 2.34692L14.2082 2.15214L14.7213 2.12334L15.2179 2.25914L15.5412 2.29342L15.6925 2.22485L15.8315 2.04925L15.9594 1.76393L16.163 1.60621L16.4409 1.57603L16.8123 1.89701L17.4052 2.74881L17.558 2.79955L17.6529 2.77761L17.95 2.09316L18.1825 1.56234L18.6144 0.569253L18.8607 0L19.0904 0.164593L19.3188 0.455394L19.5774 0.591187L19.8567 0.674865L19.9915 0.685833L20.1635 0.801031L20.7633 1.51018L20.9738 1.67481Z"/>
</mask>
<path d="M20.9738 1.67481L21.2558 1.69127L22.443 1.46221L23.1529 1.0493L23.2602 0.88609H23.4556L23.6922 1.06852L23.7816 1.24408L23.9329 1.47451L24.2122 1.51018L24.8904 1.34697L25.2233 1.24822L25.504 1.32914L25.863 1.39636H26.0886L26.6252 1.62814L27.2689 1.55409L27.573 1.56644L27.8852 1.66519L28.3929 2.0328L29.0546 2.47861L30.0011 2.79683L30.1964 2.92576L30.6532 3.43326L31.363 4.4058L32.2916 5.33576L33.3041 6.0696L33.8448 6.57711L34.2094 7.19848L34.567 7.76225L34.9316 8.00503L35.27 8.19705L35.6208 8.6264L35.8711 8.98577L36.2124 9.39315L35.834 9.94867L35.3264 10.6935L34.7363 11.5604L34.5574 11.7744L34.0401 12.297L33.9507 12.4451L33.8502 12.8237L33.8434 13.5109L33.9094 14.3888L33.9727 15.198L34.2575 15.2927L34.5876 15.3503L34.9522 15.2447L35.3938 15.1542L35.9413 15.1007L36.5466 14.9374L36.9043 14.8058L37.2799 14.8153L37.6128 14.9566L37.7751 15.0856L38.0104 15.1295L38.3144 15.124L38.2497 15.2762L38.0833 15.4984L37.8783 15.7207L37.6981 15.9511L37.2978 16.5958L37.2854 16.6781L37.3349 16.8056L37.5509 17.0992L37.7765 17.5751L37.9031 18.0113L38.0008 18.2226L38.2745 18.464L38.6693 18.9619L38.8784 19.298L39.3146 19.4776L39.4562 19.9029L39.7823 20.5283L40.1344 21.0276L40.4756 21.4185L40.8553 21.5694L41.008 21.5818L41.8046 22.3046L42.4112 22.8547L42.5612 22.9424L43.6548 23.3032L44.9136 23.7174L45.9233 24.0494L47.2096 24.4719L48.478 24.8902L49.668 25.288L51.3381 25.8476L52.6835 26.2989L53.7456 26.6555L53.9712 26.7667H55.2355H56.519H57.8328L56.8808 27.6843L55.8036 28.7227L54.6728 29.8118L53.9436 30.5127L52.7895 31.6251L51.8278 32.5496L50.8387 33.5592L49.9445 34.4727L48.7807 35.7373L48.0268 36.5549L46.8465 37.8374L46.105 38.6412L45.9921 38.6878L44.9314 38.6274L43.8997 38.5671L42.5818 38.4916L42.4304 38.4944L42.0466 38.5698L41.8141 38.6439L40.8649 38.8606L40.6903 38.9169L39.902 39.2611L39.0972 39.6672L38.6735 39.9799L38.346 40.4326L38.2057 40.7549L38.0585 40.8962L37.8081 41.0196L36.1229 41.3255L35.6332 41.3667L34.8449 41.6108L34.4239 42.0196L34.3043 42.2253L33.7388 42.2198L32.7511 42.2802L32.3288 42.3461L32.1224 42.357L31.7441 42.3556L31.4332 42.2815L31.2268 42.1705L30.971 41.9195L30.3987 41.4106L29.9832 41.0924L29.0711 41.4586L28.2498 41.8221L27.0846 42.3392L26.4201 42.7095L26.2207 43.0812L25.7075 43.7575L25.2495 44.1731L25.0775 44.2238L24.0389 44.1374L23.6646 44.0524L23.0455 43.977L22.2133 43.8302L21.6562 43.6724L21.0509 43.6532L20.1786 43.5997L19.6407 43.4859L19.0946 43.11L18.393 42.6588L17.6694 42.1938L16.9238 41.7151L16.0433 41.1637L15.0817 40.5615L14.8616 40.5012L14.7653 40.4902L13.7212 40.4627L12.6357 40.4339L11.9025 40.4147L11.6713 40.3448L11.5035 40.2076L11.2765 39.7618L10.9903 39.445L10.6712 39.0403L10.6451 38.4944L10.7332 37.8977L10.8157 37.7002L10.7689 37.504L10.7813 37.2338L10.6024 36.9828L9.53489 36.6948L9.36158 36.7167L9.18408 36.8251L8.98189 36.9019L8.83604 36.8292L8.74662 36.7222L8.74385 36.5453L8.76173 36.4136L8.69985 36.3409L8.36004 36.0721L8.04089 35.7182L7.84827 35.3272L7.66119 35.0063L7.56766 34.2889L7.33104 33.8472L7.09988 33.3067L6.75739 32.2767L6.60877 31.9214L6.33093 31.6827L6.03789 31.4619L5.73385 31.0051L4.94281 30.6018L4.63877 30.2877L4.11188 29.7432L3.98123 29.4675L3.94269 29.1945L3.77896 28.938L3.48735 28.6486L2.57523 28.0259L2.3235 27.9518L1.99746 27.8845L1.51877 27.8228L0.876266 27.6802L0.315039 27.436L0.0604553 27.2632L0 27.1439L0.0522266 26.9436L0.255843 26.5993L0.641078 25.7859L0.907921 25.2249L1.08954 25.0658L1.58342 25.026L2.10888 25.0425L2.49269 25.0836L3.03477 25.0905L3.68408 25.0425L3.94135 24.8546L4.14496 24.6488L4.23019 24.5048L4.25773 24.1413L4.25639 23.8491L4.21508 22.7285L4.19031 22.0427L4.16142 21.258L4.16554 21.1003L4.17108 20.8987L4.32927 20.0606L4.47789 19.5805L4.57965 19.3268L4.98957 18.5257L5.06666 18.2692L5.08043 18.0346L4.92904 16.9579L5.19185 16.4504L5.53023 15.9483L5.82604 15.733L6.07231 15.5876L6.18785 15.6493L6.47123 15.8811L6.8427 16.1102L7.016 16.0595L7.2705 15.8592L7.46035 15.6479L7.43558 15.2694L7.6062 14.4916L7.5732 14.0417L7.75616 13.4848L7.95558 12.6989L8.045 12.2023L8.15919 11.9348L8.69985 11.3862L9.16485 10.6098L9.46058 10.0419L10.0274 9.1147L10.3135 8.77588L10.546 8.63051L10.8927 8.53724L11.5379 8.45218L12.0015 8.37399L12.0689 8.25331L12.1089 8.06402L12.1157 7.64839L12.2051 6.93376L12.406 6.23558L12.6426 5.70613L12.7705 5.46473L12.9232 5.23291L13.0952 4.83921L13.3126 3.98879L13.3002 3.41133L13.6111 2.3524L13.6799 2.34692L14.2082 2.15214L14.7213 2.12334L15.2179 2.25914L15.5412 2.29342L15.6925 2.22485L15.8315 2.04925L15.9594 1.76393L16.163 1.60621L16.4409 1.57603L16.8123 1.89701L17.4052 2.74881L17.558 2.79955L17.6529 2.77761L17.95 2.09316L18.1825 1.56234L18.6144 0.569253L18.8607 0L19.0904 0.164593L19.3188 0.455394L19.5774 0.591187L19.8567 0.674865L19.9915 0.685833L20.1635 0.801031L20.7633 1.51018L20.9738 1.67481Z" fill="var(--fill-0, #71B219)" stroke="var(--stroke-0, white)" mask="url(#path-1-inside-1_0_165)"/>
</g>
</svg>
