<svg preserveAspectRatio="none" width="100%" height="100%" overflow="visible" style="display: block;" viewBox="0 0 42 94" fill="none" xmlns="http://www.w3.org/2000/svg"><g id="FI"><mask id="path-1-inside-1_0_162" fill="white"><path d="M32 12L32 12L31 12L31 12L30 13L30 13L31 13L31 13L32 13L32 14L31 14L30 17L30 17L31 19L31 20L33 21L34 22L34 23L36 25L36 25L36 26L36 27L35 28L35 29L34 30L33 31L33 32L33 33L33 33L33 34L34 35L34 36L34 37L34 38L35 38L35 39L35 40L36 40L36 41L36 42L36 44L37 44L37 45L36 45L36 45L35 45L35 45L36 46L35 47L35 48L35 49L35 49L35 49L35 49L36 49L36 50L36 50L36 50L35 50L35 51L35 51L35 52L35 52L35 53L35 53L36 53L37 54L37 54L37 54L36 55L36 56L36 56L37 57L38 58L38 58L38 58L38 59L38 59L38 60L38 61L37 62L36 62L36 62L36 63L38 64L39 65L40 66L41 67L41 68L41 68L42 69L42 69L42 69L42 70L42 71L42 71L41 72L41 73L40 74L38 76L38 76L37 77L36 79L36 79L35 81L35 81L34 82L33 83L32 84L31 85L31 85L31 85L30 86L30 86L29 87L28 89L28 89L27 89L27 89L26 89L26 89L25 89L25 89L24 89L24 89L23 90L23 90L23 89L23 89L23 88L23 88L23 88L23 89L22 89L22 90L22 90L21 89L21 89L21 90L21 90L21 90L21 90L20 90L20 91L20 91L19 90L19 91L19 91L18 91L18 91L17 92L16 92L15 92L15 93L15 93L14 93L13 93L12 93L12 93L11 93L10 94L10 94L9 94L9 94L9 94L10 94L10 93L10 93L10 93L10 92L9 92L9 91L9 91L9 92L8 92L8 92L8 92L8 93L8 93L7 93L7 92V92L7 92L7 92L7 91L7 91L8 91L8 91L8 91L7 91L7 91L8 90L8 90L8 90L7 90L6 90L5 89L5 89L5 88L4 88L4 89L4 88L3 88L3 88L3 88L3 87L3 86L3 85L3 85L3 84L3 84L3 83L4 82L3 82L3 81H4L4 81L4 81L3 81L4 81L4 81L4 80L4 80L4 80L4 80L3 79L3 78L2 77L3 76L3 75L3 75L3 74L2 74L2 73L2 72L2 71L2 71L2 70L3 69L3 68L4 68L4 68L4 67L4 67L5 67L5 67L6 67L7 66L6 66L6 66L6 65L6 65L7 65L6 65L7 64L7 64L7 64L7 63L8 63L9 62L10 61L10 61L11 60L12 60L12 59L12 58L13 58L13 57L14 56L15 54L15 54L15 53L16 53L16 52L17 52L17 52L18 52L18 52L18 52L18 52L18 51L18 51L18 51L18 50L18 50L18 49L18 48L18 47L18 46L16 45L16 45L16 45L15 44L16 44L16 43L15 43L15 44L15 44L14 44L14 44L13 42L13 41L13 40L12 40L12 40L12 40L12 39L12 38L12 38L12 37L12 37L12 36L13 36L13 35L13 34L13 34L13 34L13 34L12 33L12 32L12 32L12 31L12 30L12 30L12 30L12 29L12 29L12 28L12 28L11 28L11 28L11 28L11 28L11 27L11 27L11 26L11 26L11 25L11 24L11 24L12 23L12 23L11 22L11 21L10 21L10 21L10 20L9 19L9 18L8 18L7 17L6 17L5 17L5 16L4 16L4 15L3 15L3 15L2 14L2 14L1 13L1 12L1 12L1 12L0 11L0 11L1 11L2 11L2 11L2 11L2 10L2 9L2 9L2 9L3 9L4 9L4 9L5 10L5 11L6 12L6 13L7 14L7 15L7 15L8 15L10 15L10 16L10 16L11 15L12 15L12 14L12 14L13 14L14 14L14 15L15 15L16 15L16 16L17 16L17 16L18 14L18 14L18 13L19 13L19 13L19 13L20 12L20 11L20 9L20 9L20 8L21 5L21 5L21 4L21 4L22 3L23 2L23 2L24 2L24 2L25 2L25 2L25 2L26 1L27 0L28 0L28 0L29 1L30 2L30 3L32 4L33 4L34 7L33 7L33 8L32 9L32 10L32 10L32 11L32 12ZM16 51L16 52L15 51L15 51L16 50L16 50L17 51L17 51L16 51L16 51ZM2 67L2 67L3 67L3 66L3 67L3 67L3 67L3 67L3 67L3 67L2 67L2 67L2 66L2 66L2 66L2 67ZM3 89L3 89L3 89L3 89L2 89L2 88L2 88L2 88L3 88L3 89ZM5 90L5 90L5 90L5 90L5 90L5 89L5 89L5 90L5 90L5 90L5 90L5 90ZM6 90L6 90L7 90L7 91L6 91L6 91L7 91L7 92H6L6 91L6 91L6 91L6 91L6 90L6 90L6 90ZM5 92L4 92L4 92L4 92L4 91L5 91L5 92ZM4 92L4 92L3 92L3 92L4 92L4 92L4 92L4 92Z"/></mask><path d="M32 12L32 12L31 12L31 12L30 13L30 13L31 13L31 13L32 13L32 14L31 14L30 17L30 17L31 19L31 20L33 21L34 22L34 23L36 25L36 25L36 26L36 27L35 28L35 29L34 30L33 31L33 32L33 33L33 33L33 34L34 35L34 36L34 37L34 38L35 38L35 39L35 40L36 40L36 41L36 42L36 44L37 44L37 45L36 45L36 45L35 45L35 45L36 46L35 47L35 48L35 49L35 49L35 49L35 49L36 49L36 50L36 50L36 50L35 50L35 51L35 51L35 52L35 52L35 53L35 53L36 53L37 54L37 54L37 54L36 55L36 56L36 56L37 57L38 58L38 58L38 58L38 59L38 59L38 60L38 61L37 62L36 62L36 62L36 63L38 64L39 65L40 66L41 67L41 68L41 68L42 69L42 69L42 69L42 70L42 71L42 71L41 72L41 73L40 74L38 76L38 76L37 77L36 79L36 79L35 81L35 81L34 82L33 83L32 84L31 85L31 85L31 85L30 86L30 86L29 87L28 89L28 89L27 89L27 89L26 89L26 89L25 89L25 89L24 89L24 89L23 90L23 90L23 89L23 89L23 88L23 88L23 88L23 89L22 89L22 90L22 90L21 89L21 89L21 90L21 90L21 90L21 90L20 90L20 91L20 91L19 90L19 91L19 91L18 91L18 91L17 92L16 92L15 92L15 93L15 93L14 93L13 93L12 93L12 93L11 93L10 94L10 94L9 94L9 94L9 94L10 94L10 93L10 93L10 93L10 92L9 92L9 91L9 91L9 92L8 92L8 92L8 92L8 93L8 93L7 93L7 92V92L7 92L7 92L7 91L7 91L8 91L8 91L8 91L7 91L7 91L8 90L8 90L8 90L7 90L6 90L5 89L5 89L5 88L4 88L4 89L4 88L3 88L3 88L3 88L3 87L3 86L3 85L3 85L3 84L3 84L3 83L4 82L3 82L3 81H4L4 81L4 81L3 81L4 81L4 81L4 80L4 80L4 80L4 80L3 79L3 78L2 77L3 76L3 75L3 75L3 74L2 74L2 73L2 72L2 71L2 71L2 70L3 69L3 68L4 68L4 68L4 67L4 67L5 67L5 67L6 67L7 66L6 66L6 66L6 65L6 65L7 65L6 65L7 64L7 64L7 64L7 63L8 63L9 62L10 61L10 61L11 60L12 60L12 59L12 58L13 58L13 57L14 56L15 54L15 54L15 53L16 53L16 52L17 52L17 52L18 52L18 52L18 52L18 52L18 51L18 51L18 51L18 50L18 50L18 49L18 48L18 47L18 46L16 45L16 45L16 45L15 44L16 44L16 43L15 43L15 44L15 44L14 44L14 44L13 42L13 41L13 40L12 40L12 40L12 40L12 39L12 38L12 38L12 37L12 37L12 36L13 36L13 35L13 34L13 34L13 34L13 34L12 33L12 32L12 32L12 31L12 30L12 30L12 30L12 29L12 29L12 28L12 28L11 28L11 28L11 28L11 28L11 27L11 27L11 26L11 26L11 25L11 24L11 24L12 23L12 23L11 22L11 21L10 21L10 21L10 20L9 19L9 18L8 18L7 17L6 17L5 17L5 16L4 16L4 15L3 15L3 15L2 14L2 14L1 13L1 12L1 12L1 12L0 11L0 11L1 11L2 11L2 11L2 11L2 10L2 9L2 9L2 9L3 9L4 9L4 9L5 10L5 11L6 12L6 13L7 14L7 15L7 15L8 15L10 15L10 16L10 16L11 15L12 15L12 14L12 14L13 14L14 14L14 15L15 15L16 15L16 16L17 16L17 16L18 14L18 14L18 13L19 13L19 13L19 13L20 12L20 11L20 9L20 9L20 8L21 5L21 5L21 4L21 4L22 3L23 2L23 2L24 2L24 2L25 2L25 2L25 2L26 1L27 0L28 0L28 0L29 1L30 2L30 3L32 4L33 4L34 7L33 7L33 8L32 9L32 10L32 10L32 11L32 12ZM16 51L16 52L15 51L15 51L16 50L16 50L17 51L17 51L16 51L16 51ZM2 67L2 67L3 67L3 66L3 67L3 67L3 67L3 67L3 67L3 67L2 67L2 67L2 66L2 66L2 66L2 67ZM3 89L3 89L3 89L3 89L2 89L2 88L2 88L2 88L3 88L3 89ZM5 90L5 90L5 90L5 90L5 90L5 89L5 89L5 90L5 90L5 90L5 90L5 90ZM6 90L6 90L7 90L7 91L6 91L6 91L7 91L7 92H6L6 91L6 91L6 91L6 91L6 90L6 90L6 90ZM5 92L4 92L4 92L4 92L4 91L5 91L5 92ZM4 92L4 92L3 92L3 92L4 92L4 92L4 92L4 92Z" fill="var(--fill-0,#71B219)" stroke="var(--stroke-0,white)" mask="url(#path-1-inside-1_0_162)"/></g></svg>