<svg preserveAspectRatio="none" width="100%" height="100%" overflow="visible" style="display: block;" viewBox="0 0 42.1417 94.3239" fill="none" xmlns="http://www.w3.org/2000/svg">
<g id="FI">
<mask id="path-1-inside-1_0_162" fill="white">
<path d="M32.2201 11.4699L31.9615 11.6029L31.1636 12.1242L30.6766 12.4753L30.0906 12.7332L30.2419 13.0747L31.2159 13.1461L31.3659 13.2434L31.4745 13.4176L31.4924 13.6975L31.3948 14.1487L30.341 16.6191L30.3079 17.1362L30.6518 18.5682L31.1347 20.2472L32.5944 20.9892L33.6784 21.5667L34.3744 22.9301L35.5232 24.7147L36.1313 25.3786L36.1656 25.5843L35.9854 26.8037L35.2494 28.019L34.5616 29.0395L33.849 30.2631L33.2918 31.3014L32.6879 32.54L32.6177 32.9406L32.6067 33.3178L32.7113 33.7334L33.4844 35.2326L33.7857 35.9939L34.1447 36.8141L34.4543 37.7057L34.6331 38.5026L34.9426 39.2749L35.1353 39.6686L35.4544 40.22L35.8396 41.0375L35.9675 41.6835L36.5495 43.9111L36.6086 44.4749L36.5797 44.8919L36.3239 44.9934L35.7584 45.0592L35.1448 45.3322L35.1146 45.4241L35.5149 45.9426L35.1614 46.8273L35.1105 48.0879L34.7336 48.7462L34.6978 48.8985L34.7143 49.0261L34.7817 49.1262L35.4792 49.3018L35.5397 49.4801L35.5424 49.8491L35.4805 50.1892L35.1297 50.4416L34.7541 50.8134L34.6703 51.1563L34.6826 51.4608L34.8106 51.9752L35.0596 52.5732L35.3746 52.9477L36.4931 53.3029L36.6375 53.5951L36.698 53.9956L36.6746 54.3865L36.1546 55.1656L36.1587 55.4647L36.372 56.1862L36.6278 56.8734L37.7188 57.6168L38.0944 58.0228L38.1934 58.3452L38.2484 58.865L38.2416 59.4274L38.1563 59.9253L37.8137 60.5659L37.0227 61.8251L36.2261 62.312L36.178 62.4176L36.4243 62.8182L37.8261 64.4175L38.7409 65.1623L39.9735 66.1636L40.7687 66.9524L41.0259 67.5175L41.3699 68.1457L41.7564 68.6573L42.0357 69.1004L42.1417 69.3857L42.132 69.6916L41.7592 70.612L41.5474 71.3211L41.1746 72.3567L40.7921 73.0755L39.8236 74.384L38.3942 76.0026L38.0627 76.4895L37.3941 77.3359L36.2481 79.0271L35.9524 79.3988L35.0142 80.7376L34.5864 81.1628L34.2492 81.5592L33.3207 82.8143L32.322 83.7621L31.3424 84.64L31.0481 85.083L30.6821 85.4218L30.246 85.7428L30.0631 85.9225L29.0767 87.1145L27.7079 88.7577L27.5689 88.7838L27.2126 89.0485L26.6555 89.113L26.4133 89.3146L25.5618 88.7385L25.4201 88.7015L24.9193 88.8441L24.4392 89.2625L23.5519 89.3901L23.1117 89.5258L22.831 89.7193L22.7732 89.2625L22.8943 88.6823L23.0896 88.2941L23.1075 88.0417L22.9645 88.0678L22.6797 88.637L22.5284 89.3009L22.2244 89.6342L21.5557 89.77L20.9051 89.2378L20.5955 89.2419L20.7895 89.6232L20.9202 90.0416L20.9037 90.2748L20.5571 90.2336L20.1705 90.4833L19.832 90.8481L19.6669 90.8495L19.4385 90.3392L19.0204 90.5779L18.6627 90.8975L17.9377 90.9963L17.5057 91.416L16.7408 91.6999L16.3212 91.6931L15.3624 92.0333L15.0432 92.5572L14.764 92.7493L14.3664 92.5874L13.1406 92.8425L11.9685 93.1772L11.4705 93.158L10.9725 93.0195L10.4443 93.4831L9.88301 94.1031L9.26536 94.3239L9.04386 94.2444L9.22127 93.9193L9.62985 93.5832L9.91055 93.1265L9.94909 92.7451L9.75647 92.5956L9.49232 92.549L9.16074 92.154L8.84301 91.2953L8.67105 91.2473L8.5844 91.4736L8.48666 92.1306L8.38766 92.3199L8.21982 92.4708L8.01754 92.6217L7.81947 92.6958L7.11097 92.6862L7.01743 92.3542V92.2157L7.14405 91.7781L7.03397 91.7013L7.13851 91.3584L7.30493 91.3776L7.50309 91.3255L7.60208 91.1499L7.5952 90.9387L7.32012 90.8838L7.30358 90.7398L7.54843 90.1362L7.58285 89.9689L7.48797 89.9346L7.33524 90.0005L6.32135 89.8112L5.07085 89.0375L4.7627 88.9978L4.5742 88.3051L4.27293 88.3928L3.8327 88.7989L3.50254 88.4902L3.14762 88.2872L3.04997 87.9704L3.05543 87.5013L3.0252 86.9457L2.92889 86.2942L2.85869 85.3656L2.92478 84.6372L3.20816 84.0968L3.31681 83.7511L3.44889 82.8664L3.4792 81.8281L3.40346 81.4742L3.42278 81.2383H3.64839L3.59885 81.0352L3.49977 80.9241L3.38978 80.6937L3.48331 80.5716L3.75293 80.5634L3.77493 80.4852L3.80524 80.3755L3.59608 79.7665L3.57131 79.4757L3.28247 78.5909L2.95089 77.7487L2.45423 77.1384L2.63039 76.1302L2.83124 75.2153L2.79135 74.7736L2.71427 74.2345L2.10485 73.642L2.01543 72.8052L1.86689 71.9027L1.92323 71.3485L2.02231 70.9219L2.22316 70.4967L3.23427 69.1525L3.29616 68.4475L3.98131 68.3953L3.6635 67.7644L3.5892 67.4091L3.57274 66.9935L4.55774 66.7082L4.92643 66.9427L5.79304 66.6533L6.56343 66.0868L6.54974 65.7851L6.43143 65.5148L6.2677 64.9936L6.38324 64.8482L6.66393 64.9552L6.53454 64.696L6.55797 64.4216L6.86478 64.5355L7.36412 63.7687L7.38201 63.1817L8.24593 62.8744L9.24336 61.6701L9.70282 61.2942L10.1472 61.0213L11.0936 59.8101L11.4981 59.7539L11.7058 58.9336L12.5106 57.8376L12.7555 57.6977L13.1311 56.7047L14.1202 55.5524L14.7475 54.0752L15.0927 53.5484L15.2 52.9861L15.5853 52.9381L15.932 52.5238L16.683 52.2358L17.426 52.3153L17.7355 52.5128L18.0202 52.4511L17.9913 51.9436L17.7878 51.6295L17.9542 51.3263L18.3462 51.0973L18.3064 50.5898L18.2211 50.2839L17.8951 49.8765L18.0574 48.9602L18.0959 47.9521L18.25 46.782L17.8414 46.1607L16.2869 45.099L15.998 45.136L15.6527 45.0016L15.2922 44.1937L15.4532 43.4941L15.4724 43.2363L15.3321 43.2445L15.1037 43.586L14.6085 43.9756L13.9647 43.6766L13.6483 43.7424L13.2369 42.0045L13.0265 41.3365L12.6894 40.5025L12.0883 40.0951L11.97 39.8633L11.8901 39.5081L11.864 39.0143L11.787 38.2818L11.8186 37.6796L11.8929 37.3203L12.1529 37.0789L12.5271 36.3944L12.6055 35.8965L12.6372 35.1311L12.8091 34.4603L13.0003 34.1202L12.9522 33.8486L12.8201 33.4618L12.5395 32.9104L12.1131 32.2369L11.798 31.5908L11.659 30.9859L11.5875 30.4427L11.5985 29.949L11.7168 29.6115L12.1185 29.1863L12.1722 29.0052L12.0126 28.0629L11.7319 27.8915L11.2546 27.7996L10.9877 27.7913L10.9368 27.6871L10.923 27.4978L10.9781 27.1096L11.1281 26.6638L11.2532 26.3785L11.2697 26.1371L11.1102 25.3086L11.062 24.2895L11.1171 23.4884L11.6233 22.8958L11.6466 22.6791L11.0111 22.0331L10.553 21.2992L10.4099 20.8699L9.88578 20.8054L9.55831 19.5517L9.08508 18.94L8.61739 18.4091L8.3409 18.1622L6.71759 17.3982L6.07374 17.2528L5.31024 16.8057L4.74204 16.2433L4.25504 15.8811L3.83824 15.4326L3.25627 15.0129L3.08985 14.6535L2.46112 13.9869L2.16673 13.5466L1.14462 12.714L1.10751 12.3848L1.10062 12.0666L1.05385 11.9335L0 11.3217L0.207731 10.9706L1.03177 10.9486L1.71282 11.2682L1.86269 11.1311L1.95212 10.8471L1.66185 9.70591L1.71416 9.40688L2.01408 9.04751L2.49 8.76084L3.23981 8.71969L3.75158 8.7622L3.86024 8.79376L4.62374 10.0529L5.27993 11.2751L5.62797 11.7936L6.47954 13.2585L6.7987 14.1021L6.90735 14.7043L7.25404 14.7015L8.45232 14.9649L9.45932 15.1871L9.73993 15.5231L10.4333 15.4559L10.9684 15.1528L11.9121 14.7701L12.1653 14.2983L12.4803 13.7921L13.0333 13.8717L13.6386 14.2708L14.3251 14.7948L14.9373 15.0362L15.7586 15.4148L16.1411 15.9031L16.6776 16.043L17.2388 15.5547L17.5704 14.2228L17.8648 13.6261L18.2816 13.1886L18.759 12.9952L19.1235 12.9252L19.4001 12.5837L19.7921 11.8238L19.8692 10.8993L19.7935 9.22033L19.865 8.66345L20.1856 7.74992L20.6162 5.31384L20.8088 4.60605L21.044 4.17536L21.3673 3.91886L21.9547 3.17267L22.7939 1.68578L23.0209 1.5596L23.6234 1.48414L24.3718 1.53902L25.0459 1.801L25.1188 1.78043L25.4214 1.64327L25.9704 1.17963L26.9113 0.255136L27.5139 0L28.0614 0.0356646L28.6681 1.04796L29.5252 2.17136L30.0754 2.71453L31.5763 3.73093L32.8942 4.39619L33.6344 6.58264L33.2684 7.44815L33.0868 7.7458L32.4416 8.60309L31.7524 9.80742L31.7001 10.4329L31.9285 11.0625L32.2201 11.4699ZM16.3227 51.2537L15.7462 51.5554L15.2826 51.3675L15.2744 50.7818L15.5619 50.4979L16.0819 50.384L16.7945 50.668L16.899 50.8188L16.4904 50.9327L16.3227 51.2537ZM2.3057 66.6684L2.34701 66.8275L2.57262 66.7836L2.87801 66.4929L3.09397 66.6286L3.0692 67.0429L2.92335 67.0264L2.88346 66.9578L2.69505 67.1938L2.66196 67.3364L2.44466 67.427L2.04297 67.0223L1.78981 66.3557L2.37858 66.3543L2.32224 66.5134L2.3057 66.6684ZM3.20539 88.8043L3.15173 89.1678L2.88901 89.1281L2.62208 89.1939L2.40746 88.8331L2.29335 88.2241L2.33324 88.0925L2.50108 87.9539L2.62896 88.2886L3.20539 88.8043ZM5.30335 90.3063L5.02131 90.3406L4.62374 89.9552L4.5742 89.8043L4.7297 89.7165L4.62651 89.4065L4.65673 89.2693L4.96354 89.5149L5.13139 89.8002L4.96766 89.866L5.24559 90.1609L5.30335 90.3063ZM6.0022 90.043L6.49054 90.2226L6.6955 90.1582L6.92943 90.5656L6.5332 90.8234L6.50566 91.1444L6.66251 91.3433L6.71759 91.6314H6.3227L6.13428 91.3886L6.05174 91.0799L5.86735 90.8618L5.62251 90.6959L5.74216 90.4737L5.81093 90.1554L6.0022 90.043ZM4.6815 91.8248L4.29493 92.0895L4.14773 92.0264L4.18493 91.5792L4.41466 91.3749L4.80124 91.3515L4.6815 91.8248ZM3.89046 92.0771L3.55208 92.154L3.34158 91.9304L3.42135 91.7644L3.65662 91.5792L3.91255 91.6053L3.96754 91.822L3.89046 92.0771Z"/>
</mask>
<path d="M32.2201 11.4699L31.9615 11.6029L31.1636 12.1242L30.6766 12.4753L30.0906 12.7332L30.2419 13.0747L31.2159 13.1461L31.3659 13.2434L31.4745 13.4176L31.4924 13.6975L31.3948 14.1487L30.341 16.6191L30.3079 17.1362L30.6518 18.5682L31.1347 20.2472L32.5944 20.9892L33.6784 21.5667L34.3744 22.9301L35.5232 24.7147L36.1313 25.3786L36.1656 25.5843L35.9854 26.8037L35.2494 28.019L34.5616 29.0395L33.849 30.2631L33.2918 31.3014L32.6879 32.54L32.6177 32.9406L32.6067 33.3178L32.7113 33.7334L33.4844 35.2326L33.7857 35.9939L34.1447 36.8141L34.4543 37.7057L34.6331 38.5026L34.9426 39.2749L35.1353 39.6686L35.4544 40.22L35.8396 41.0375L35.9675 41.6835L36.5495 43.9111L36.6086 44.4749L36.5797 44.8919L36.3239 44.9934L35.7584 45.0592L35.1448 45.3322L35.1146 45.4241L35.5149 45.9426L35.1614 46.8273L35.1105 48.0879L34.7336 48.7462L34.6978 48.8985L34.7143 49.0261L34.7817 49.1262L35.4792 49.3018L35.5397 49.4801L35.5424 49.8491L35.4805 50.1892L35.1297 50.4416L34.7541 50.8134L34.6703 51.1563L34.6826 51.4608L34.8106 51.9752L35.0596 52.5732L35.3746 52.9477L36.4931 53.3029L36.6375 53.5951L36.698 53.9956L36.6746 54.3865L36.1546 55.1656L36.1587 55.4647L36.372 56.1862L36.6278 56.8734L37.7188 57.6168L38.0944 58.0228L38.1934 58.3452L38.2484 58.865L38.2416 59.4274L38.1563 59.9253L37.8137 60.5659L37.0227 61.8251L36.2261 62.312L36.178 62.4176L36.4243 62.8182L37.8261 64.4175L38.7409 65.1623L39.9735 66.1636L40.7687 66.9524L41.0259 67.5175L41.3699 68.1457L41.7564 68.6573L42.0357 69.1004L42.1417 69.3857L42.132 69.6916L41.7592 70.612L41.5474 71.3211L41.1746 72.3567L40.7921 73.0755L39.8236 74.384L38.3942 76.0026L38.0627 76.4895L37.3941 77.3359L36.2481 79.0271L35.9524 79.3988L35.0142 80.7376L34.5864 81.1628L34.2492 81.5592L33.3207 82.8143L32.322 83.7621L31.3424 84.64L31.0481 85.083L30.6821 85.4218L30.246 85.7428L30.0631 85.9225L29.0767 87.1145L27.7079 88.7577L27.5689 88.7838L27.2126 89.0485L26.6555 89.113L26.4133 89.3146L25.5618 88.7385L25.4201 88.7015L24.9193 88.8441L24.4392 89.2625L23.5519 89.3901L23.1117 89.5258L22.831 89.7193L22.7732 89.2625L22.8943 88.6823L23.0896 88.2941L23.1075 88.0417L22.9645 88.0678L22.6797 88.637L22.5284 89.3009L22.2244 89.6342L21.5557 89.77L20.9051 89.2378L20.5955 89.2419L20.7895 89.6232L20.9202 90.0416L20.9037 90.2748L20.5571 90.2336L20.1705 90.4833L19.832 90.8481L19.6669 90.8495L19.4385 90.3392L19.0204 90.5779L18.6627 90.8975L17.9377 90.9963L17.5057 91.416L16.7408 91.6999L16.3212 91.6931L15.3624 92.0333L15.0432 92.5572L14.764 92.7493L14.3664 92.5874L13.1406 92.8425L11.9685 93.1772L11.4705 93.158L10.9725 93.0195L10.4443 93.4831L9.88301 94.1031L9.26536 94.3239L9.04386 94.2444L9.22127 93.9193L9.62985 93.5832L9.91055 93.1265L9.94909 92.7451L9.75647 92.5956L9.49232 92.549L9.16074 92.154L8.84301 91.2953L8.67105 91.2473L8.5844 91.4736L8.48666 92.1306L8.38766 92.3199L8.21982 92.4708L8.01754 92.6217L7.81947 92.6958L7.11097 92.6862L7.01743 92.3542V92.2157L7.14405 91.7781L7.03397 91.7013L7.13851 91.3584L7.30493 91.3776L7.50309 91.3255L7.60208 91.1499L7.5952 90.9387L7.32012 90.8838L7.30358 90.7398L7.54843 90.1362L7.58285 89.9689L7.48797 89.9346L7.33524 90.0005L6.32135 89.8112L5.07085 89.0375L4.7627 88.9978L4.5742 88.3051L4.27293 88.3928L3.8327 88.7989L3.50254 88.4902L3.14762 88.2872L3.04997 87.9704L3.05543 87.5013L3.0252 86.9457L2.92889 86.2942L2.85869 85.3656L2.92478 84.6372L3.20816 84.0968L3.31681 83.7511L3.44889 82.8664L3.4792 81.8281L3.40346 81.4742L3.42278 81.2383H3.64839L3.59885 81.0352L3.49977 80.9241L3.38978 80.6937L3.48331 80.5716L3.75293 80.5634L3.77493 80.4852L3.80524 80.3755L3.59608 79.7665L3.57131 79.4757L3.28247 78.5909L2.95089 77.7487L2.45423 77.1384L2.63039 76.1302L2.83124 75.2153L2.79135 74.7736L2.71427 74.2345L2.10485 73.642L2.01543 72.8052L1.86689 71.9027L1.92323 71.3485L2.02231 70.9219L2.22316 70.4967L3.23427 69.1525L3.29616 68.4475L3.98131 68.3953L3.6635 67.7644L3.5892 67.4091L3.57274 66.9935L4.55774 66.7082L4.92643 66.9427L5.79304 66.6533L6.56343 66.0868L6.54974 65.7851L6.43143 65.5148L6.2677 64.9936L6.38324 64.8482L6.66393 64.9552L6.53454 64.696L6.55797 64.4216L6.86478 64.5355L7.36412 63.7687L7.38201 63.1817L8.24593 62.8744L9.24336 61.6701L9.70282 61.2942L10.1472 61.0213L11.0936 59.8101L11.4981 59.7539L11.7058 58.9336L12.5106 57.8376L12.7555 57.6977L13.1311 56.7047L14.1202 55.5524L14.7475 54.0752L15.0927 53.5484L15.2 52.9861L15.5853 52.9381L15.932 52.5238L16.683 52.2358L17.426 52.3153L17.7355 52.5128L18.0202 52.4511L17.9913 51.9436L17.7878 51.6295L17.9542 51.3263L18.3462 51.0973L18.3064 50.5898L18.2211 50.2839L17.8951 49.8765L18.0574 48.9602L18.0959 47.9521L18.25 46.782L17.8414 46.1607L16.2869 45.099L15.998 45.136L15.6527 45.0016L15.2922 44.1937L15.4532 43.4941L15.4724 43.2363L15.3321 43.2445L15.1037 43.586L14.6085 43.9756L13.9647 43.6766L13.6483 43.7424L13.2369 42.0045L13.0265 41.3365L12.6894 40.5025L12.0883 40.0951L11.97 39.8633L11.8901 39.5081L11.864 39.0143L11.787 38.2818L11.8186 37.6796L11.8929 37.3203L12.1529 37.0789L12.5271 36.3944L12.6055 35.8965L12.6372 35.1311L12.8091 34.4603L13.0003 34.1202L12.9522 33.8486L12.8201 33.4618L12.5395 32.9104L12.1131 32.2369L11.798 31.5908L11.659 30.9859L11.5875 30.4427L11.5985 29.949L11.7168 29.6115L12.1185 29.1863L12.1722 29.0052L12.0126 28.0629L11.7319 27.8915L11.2546 27.7996L10.9877 27.7913L10.9368 27.6871L10.923 27.4978L10.9781 27.1096L11.1281 26.6638L11.2532 26.3785L11.2697 26.1371L11.1102 25.3086L11.062 24.2895L11.1171 23.4884L11.6233 22.8958L11.6466 22.6791L11.0111 22.0331L10.553 21.2992L10.4099 20.8699L9.88578 20.8054L9.55831 19.5517L9.08508 18.94L8.61739 18.4091L8.3409 18.1622L6.71759 17.3982L6.07374 17.2528L5.31024 16.8057L4.74204 16.2433L4.25504 15.8811L3.83824 15.4326L3.25627 15.0129L3.08985 14.6535L2.46112 13.9869L2.16673 13.5466L1.14462 12.714L1.10751 12.3848L1.10062 12.0666L1.05385 11.9335L0 11.3217L0.207731 10.9706L1.03177 10.9486L1.71282 11.2682L1.86269 11.1311L1.95212 10.8471L1.66185 9.70591L1.71416 9.40688L2.01408 9.04751L2.49 8.76084L3.23981 8.71969L3.75158 8.7622L3.86024 8.79376L4.62374 10.0529L5.27993 11.2751L5.62797 11.7936L6.47954 13.2585L6.7987 14.1021L6.90735 14.7043L7.25404 14.7015L8.45232 14.9649L9.45932 15.1871L9.73993 15.5231L10.4333 15.4559L10.9684 15.1528L11.9121 14.7701L12.1653 14.2983L12.4803 13.7921L13.0333 13.8717L13.6386 14.2708L14.3251 14.7948L14.9373 15.0362L15.7586 15.4148L16.1411 15.9031L16.6776 16.043L17.2388 15.5547L17.5704 14.2228L17.8648 13.6261L18.2816 13.1886L18.759 12.9952L19.1235 12.9252L19.4001 12.5837L19.7921 11.8238L19.8692 10.8993L19.7935 9.22033L19.865 8.66345L20.1856 7.74992L20.6162 5.31384L20.8088 4.60605L21.044 4.17536L21.3673 3.91886L21.9547 3.17267L22.7939 1.68578L23.0209 1.5596L23.6234 1.48414L24.3718 1.53902L25.0459 1.801L25.1188 1.78043L25.4214 1.64327L25.9704 1.17963L26.9113 0.255136L27.5139 0L28.0614 0.0356646L28.6681 1.04796L29.5252 2.17136L30.0754 2.71453L31.5763 3.73093L32.8942 4.39619L33.6344 6.58264L33.2684 7.44815L33.0868 7.7458L32.4416 8.60309L31.7524 9.80742L31.7001 10.4329L31.9285 11.0625L32.2201 11.4699ZM16.3227 51.2537L15.7462 51.5554L15.2826 51.3675L15.2744 50.7818L15.5619 50.4979L16.0819 50.384L16.7945 50.668L16.899 50.8188L16.4904 50.9327L16.3227 51.2537ZM2.3057 66.6684L2.34701 66.8275L2.57262 66.7836L2.87801 66.4929L3.09397 66.6286L3.0692 67.0429L2.92335 67.0264L2.88346 66.9578L2.69505 67.1938L2.66196 67.3364L2.44466 67.427L2.04297 67.0223L1.78981 66.3557L2.37858 66.3543L2.32224 66.5134L2.3057 66.6684ZM3.20539 88.8043L3.15173 89.1678L2.88901 89.1281L2.62208 89.1939L2.40746 88.8331L2.29335 88.2241L2.33324 88.0925L2.50108 87.9539L2.62896 88.2886L3.20539 88.8043ZM5.30335 90.3063L5.02131 90.3406L4.62374 89.9552L4.5742 89.8043L4.7297 89.7165L4.62651 89.4065L4.65673 89.2693L4.96354 89.5149L5.13139 89.8002L4.96766 89.866L5.24559 90.1609L5.30335 90.3063ZM6.0022 90.043L6.49054 90.2226L6.6955 90.1582L6.92943 90.5656L6.5332 90.8234L6.50566 91.1444L6.66251 91.3433L6.71759 91.6314H6.3227L6.13428 91.3886L6.05174 91.0799L5.86735 90.8618L5.62251 90.6959L5.74216 90.4737L5.81093 90.1554L6.0022 90.043ZM4.6815 91.8248L4.29493 92.0895L4.14773 92.0264L4.18493 91.5792L4.41466 91.3749L4.80124 91.3515L4.6815 91.8248ZM3.89046 92.0771L3.55208 92.154L3.34158 91.9304L3.42135 91.7644L3.65662 91.5792L3.91255 91.6053L3.96754 91.822L3.89046 92.0771Z" fill="var(--fill-0, #71B219)" stroke="var(--stroke-0, white)" mask="url(#path-1-inside-1_0_162)"/>
</g>
</svg>
