<svg preserveAspectRatio="none" width="100%" height="100%" overflow="visible" style="display: block;" viewBox="0 0 28 37" fill="none" xmlns="http://www.w3.org/2000/svg"><g id="FJ"><mask id="path-1-inside-1_0_240" fill="white"><path d="M10 0L10 0L9 0L9 0L9 0L10 0L10 0L10 0L10 0ZM21 14L21 15V14V14L21 14H21L21 14ZM21 16L21 16V16L21 16L21 16L21 16L21 16ZM25 19L25 19L25 19L25 19L25 19L25 19L25 18L25 18L25 19L25 19L25 19L25 19L25 19ZM28 22L27 22L27 22L27 21L28 22L28 22L28 22ZM25 22L25 22L25 22L24 22L24 22L25 22L25 22L25 22ZM26 23L26 23L25 23L25 23L26 23L26 23L26 23ZM22 26L22 26L22 26L22 26L22 26L22 26L22 26L22 26L21 26L21 26L21 26L22 26L22 26L22 26ZM27 27L26 27L26 27L26 27L26 26L26 26L26 26L26 26L26 26L26 26L26 26L26 27L26 27L27 27ZM26 33L26 33L26 33L26 33L26 33L26 33L26 33L26 33L26 33L26 33L26 33ZM21 15L20 15L20 15L20 16L19 16L19 16L19 17L20 16L20 16L20 16L21 16L21 16L20 16L20 17L21 17L20 17L20 17L19 17L19 17L19 17L18 17L18 17L18 17L18 17L18 17L17 17L17 18L17 18L17 17L16 18L16 18L16 18L16 17L16 17L15 17L15 17L15 17L15 17L15 16L16 16L16 17L16 16L16 16L16 16L17 16L17 16L18 16L18 16L18 15L19 15L19 15L20 15L20 15L20 15L20 15L21 14V15ZM21 16L21 16L21 16L21 16V16ZM21 17L21 17L21 17L21 17L20 18L21 18L21 18L21 18L21 17L22 17L21 17ZM10 18L10 19L10 18L10 18L10 18L10 18L10 18L10 18ZM19 19L18 20L18 19L19 19L19 19L19 19L19 19ZM14 19V20L14 20L14 20L15 20L15 20L16 20L16 21L15 21L16 21L16 22L16 22L16 22L15 22L15 22L15 22L14 22L14 23L14 23H13L13 23L13 23L12 23L12 23L11 22L11 22L11 22L10 22L10 22L10 21L10 21L11 21L11 21L11 21L11 21L11 21L11 21L11 20L11 20L12 20L12 20L13 20L14 19L14 19L14 19L14 19ZM16 21L16 21L16 21L16 20L16 20L16 21L16 21ZM18 22L18 22L18 22L18 22L18 22L18 22L18 22L18 22L18 22ZM15 26L15 26L15 26L14 26L14 26L14 26L14 26L14 26L14 26L13 27L13 26L13 26L13 26L14 26L14 26L14 26L14 26L14 26L15 26L15 26ZM0 37L0 37L0 37L0 37L0 37L0 37L0 37Z"/></mask><path d="M10 0L10 0L9 0L9 0L9 0L10 0L10 0L10 0L10 0ZM21 14L21 15V14V14L21 14H21L21 14ZM21 16L21 16V16L21 16L21 16L21 16L21 16ZM25 19L25 19L25 19L25 19L25 19L25 19L25 18L25 18L25 19L25 19L25 19L25 19L25 19ZM28 22L27 22L27 22L27 21L28 22L28 22L28 22ZM25 22L25 22L25 22L24 22L24 22L25 22L25 22L25 22ZM26 23L26 23L25 23L25 23L26 23L26 23L26 23ZM22 26L22 26L22 26L22 26L22 26L22 26L22 26L22 26L21 26L21 26L21 26L22 26L22 26L22 26ZM27 27L26 27L26 27L26 27L26 26L26 26L26 26L26 26L26 26L26 26L26 26L26 27L26 27L27 27ZM26 33L26 33L26 33L26 33L26 33L26 33L26 33L26 33L26 33L26 33L26 33ZM21 15L20 15L20 15L20 16L19 16L19 16L19 17L20 16L20 16L20 16L21 16L21 16L20 16L20 17L21 17L20 17L20 17L19 17L19 17L19 17L18 17L18 17L18 17L18 17L18 17L17 17L17 18L17 18L17 17L16 18L16 18L16 18L16 17L16 17L15 17L15 17L15 17L15 17L15 16L16 16L16 17L16 16L16 16L16 16L17 16L17 16L18 16L18 16L18 15L19 15L19 15L20 15L20 15L20 15L20 15L21 14V15ZM21 16L21 16L21 16L21 16V16ZM21 17L21 17L21 17L21 17L20 18L21 18L21 18L21 18L21 17L22 17L21 17ZM10 18L10 19L10 18L10 18L10 18L10 18L10 18L10 18ZM19 19L18 20L18 19L19 19L19 19L19 19L19 19ZM14 19V20L14 20L14 20L15 20L15 20L16 20L16 21L15 21L16 21L16 22L16 22L16 22L15 22L15 22L15 22L14 22L14 23L14 23H13L13 23L13 23L12 23L12 23L11 22L11 22L11 22L10 22L10 22L10 21L10 21L11 21L11 21L11 21L11 21L11 21L11 21L11 20L11 20L12 20L12 20L13 20L14 19L14 19L14 19L14 19ZM16 21L16 21L16 21L16 20L16 20L16 21L16 21ZM18 22L18 22L18 22L18 22L18 22L18 22L18 22L18 22L18 22ZM15 26L15 26L15 26L14 26L14 26L14 26L14 26L14 26L14 26L13 27L13 26L13 26L13 26L14 26L14 26L14 26L14 26L14 26L15 26L15 26ZM0 37L0 37L0 37L0 37L0 37L0 37L0 37Z" fill="var(--fill-0,#71B219)"/><path d="M21 16H21V16H21H21V16H21ZM10 0L10 1L10 0L10 0L10 0ZM10 0L10 1L10 1L10 1L10 0ZM9 0L9 0L9 1L9 1L9 0ZM9 0L9 0L8 0L9 0L9 0ZM9 0L10 0L10 0L10 0L9 0ZM10 0L10 0L10 0L10 0L10 0ZM10 0L10 0L10 0L10 0L10 0ZM10 0L10 0L10 0L10 0L10 0ZM21 14L21 15L21 15L22 15L21 14ZM21 15H20V15L21 15L21 15ZM21 14L21 14L20 14V14H21ZM21 14V14H21L21 14L21 14ZM21 14L22 15L22 14H21V14ZM21 16L21 16L22 16L22 16L21 16ZM21 16L21 17L21 16L21 16L21 16ZM21 16L21 16L20 16L20 16L21 16ZM21 16L21 15L21 15L21 15L21 16ZM21 16L22 16L22 15L21 15L21 16ZM21 16L21 16L21 16L21 16L21 16ZM25 19L25 19L25 19L24 19L25 19ZM25 19L25 20L25 20L25 19L25 19ZM25 19L24 19L24 19L24 20L25 19ZM25 19L25 19L25 19L25 19L25 19ZM25 19L25 19L25 18L25 18L25 19ZM25 19L24 19L24 19L24 19L25 19ZM25 18L24 18L24 18L24 19L25 18ZM25 18L25 18L25 18L24 18L25 18ZM25 19L25 18L25 18L25 18L25 19ZM25 19L26 18L26 18L25 18L25 19ZM25 19L26 19L26 19L26 19L25 19ZM25 19L25 19L26 19L26 19L25 19ZM28 22L28 22L28 22L28 22L28 22ZM27 22L27 22L27 22L28 22L27 22ZM27 22L27 21L27 22L27 22L27 22ZM27 21L28 21L27 21L27 21L27 21ZM28 22L28 21L28 21L28 21L28 22ZM28 22L28 22L28 22L28 21L28 22ZM25 22L25 22L25 22L25 22L25 22ZM25 22L25 22L25 22L25 22L25 22ZM25 22L24 22L24 22L24 22L25 22ZM24 22L24 22L24 22L24 22L24 22ZM24 22L24 21L24 22L24 22L24 22ZM25 22L25 21L24 21L24 21L25 22ZM25 22L25 22L25 21L25 21L25 22ZM26 23L26 23L26 23L26 23L26 23ZM26 23L25 23L26 24L26 23L26 23ZM25 23L25 23L25 23L25 23L25 23ZM25 23L25 22L24 22L25 23L25 23ZM26 23L26 22L26 22L25 22L26 23ZM26 23L26 23L26 22L26 22L26 23ZM22 26L22 26L22 25L22 25L22 26ZM22 26L22 26L22 26L22 26L22 26ZM22 26L21 26L21 26L22 26L22 26ZM22 26L22 25L22 25L21 25L22 26ZM22 26L21 25L21 25L21 26L22 26ZM22 26L21 26L21 26L21 26L22 26ZM22 26L22 26L22 26L22 26L22 26ZM22 26L21 26L22 27L22 26L22 26ZM21 26L21 26L21 26L21 26L21 26ZM21 26L21 26L21 26L21 26L21 26ZM21 26L22 26L22 26L21 26ZM22 26L21 25L21 25L21 26L22 26ZM22 26L22 25L22 25L21 25L22 26ZM27 27L27 27L27 27L27 26L27 27ZM26 27L26 27L27 27L27 27L26 27ZM26 27L26 27L26 27L26 27L26 27ZM26 27L26 27L26 27L26 27L26 27ZM26 26L26 26L26 26L26 27L26 26ZM26 26L26 26L26 26L26 26L26 26ZM26 26L27 26L26 26L26 26L26 26ZM26 26L27 27L27 26L27 26L26 26ZM26 26L27 27L27 27L27 27L26 26ZM26 26L26 26L26 26L26 26L26 26ZM26 26L26 27L26 27L26 27L26 26ZM26 27L26 27L26 27L26 27L26 27ZM26 27L27 26L27 26L27 26L26 27ZM26 33L25 33L25 33L26 33L26 33ZM26 33L26 33L27 33L26 32L26 33ZM26 33L26 33L26 33L26 33L26 33ZM26 33L26 33L26 33L26 33L26 33ZM26 33L25 33L25 33L25 33L26 33ZM26 33L25 32L25 33L25 33L26 33ZM26 33L26 32L26 32L25 32L26 33ZM26 33L26 32L26 32L26 32L26 33ZM26 33L26 32L26 32L26 32L26 33ZM26 33L26 33L26 32L26 32L26 33ZM21 15L21 15L21 15V15H21ZM20 15L20 15L20 15L20 15L20 15ZM20 15L20 15L20 15L20 15L20 15ZM20 16L20 16L20 16L20 16L20 16ZM19 16L19 16L19 16L19 16L19 16ZM19 16L19 16L19 16L19 16L19 16ZM19 17L19 17L19 18L20 17L19 17ZM20 16L19 16L19 16L19 16L20 16ZM20 16L20 16L20 16L20 16L20 16ZM20 16L20 16L20 16L20 16L20 16ZM21 16L21 16L21 16L21 16L21 16ZM21 16L21 16L21 16L21 16L21 16ZM20 16L20 16L20 16L20 16L20 16ZM20 17L20 16L20 17L20 17L20 17ZM21 17L21 17L21 17L21 17L21 17ZM20 17L20 16L20 16L20 16L20 17ZM20 17L20 16L20 16L20 16L20 17ZM19 17L19 18L19 18L20 18L19 17ZM19 17L19 18L19 18L19 18L19 17ZM19 17L18 18L19 18L19 18L19 17ZM18 17L18 18L18 18L18 18L18 17ZM18 17L18 17L18 17L18 17L18 17ZM18 17L19 17L19 16L18 16L18 17ZM18 17L18 16L18 16L18 16L18 17ZM18 17L18 16L18 16L18 16L18 17ZM17 17L17 17L17 17L17 17L17 17ZM17 18L17 18L17 18L18 18L17 18ZM17 18L17 18L17 18L17 18L17 18ZM17 17L17 17L16 17L16 17L17 17ZM16 18L16 18L16 18L17 18L16 18ZM16 18L16 18L16 18L16 18L16 18ZM16 18L15 18L15 18L15 18L16 18ZM16 17L16 17L16 17L16 17L16 17ZM16 17L16 17L16 17L16 17L16 17ZM15 17L15 17L14 18L15 18L15 17ZM15 17L15 16L15 16L15 17L15 17ZM15 17L16 17L16 17L16 17L15 17ZM15 17L16 17L16 17L16 17L15 17ZM15 16L16 16L15 16L15 16L15 16ZM16 16L15 17L15 17L16 17L16 16ZM16 17L16 17L16 17L16 17L16 17ZM16 16L16 16L16 16L16 16L16 16ZM16 16L16 17L17 17L17 17L16 16ZM16 16L16 16L16 16L16 16L16 16ZM17 16L17 15L17 15L17 15L17 16ZM17 16L17 15L17 15L17 15L17 16ZM18 16L18 15L18 15L18 15L18 16ZM18 16L18 16L18 16L18 16L18 16ZM18 15L19 16L19 16L19 16L18 15ZM19 15L19 15L19 15L19 15L19 15ZM19 15L19 14L19 14L19 14L19 15ZM20 15L19 14L19 14L19 14L20 15ZM20 15L20 14L20 14L20 14L20 15ZM20 15L20 15L20 15L20 15L20 15ZM20 15L20 15L20 15L20 15L20 15ZM21 14H21V14L21 14L21 14ZM21 16L20 16L20 17L21 17L21 16ZM21 16L20 16L20 16L20 16L21 16ZM21 17L22 16L22 16L21 16L21 17ZM21 17L21 16L21 16L21 16L21 17ZM21 17L21 17L20 17L20 17L21 17ZM21 17L20 17L20 17L20 17L21 17ZM20 18L20 18L20 18L20 18L20 18ZM21 18L20 18L20 18L21 18L21 18ZM21 18L21 18L21 18L21 18L21 18ZM21 18L21 17L21 17L21 17L21 18ZM21 17L22 18L22 18L22 18L21 17ZM22 17L22 17L22 17L22 17L22 17ZM10 18L10 19L10 19L11 19L10 18ZM10 19L10 18L9 19L10 19L10 19ZM10 18L10 18L10 18L10 18L10 18ZM10 18L10 18L10 18L10 18L10 18ZM10 18L10 18L10 18L10 18L10 18ZM10 18L11 18L11 18L10 18L10 18ZM10 18L11 19L11 19L11 18L10 18ZM19 19L19 20L19 20L19 20L19 19ZM18 20L18 20L18 20L19 20L18 20ZM18 19L18 18L18 18L18 19L18 19ZM19 19L19 18L19 18L19 18L19 19ZM19 19L19 19L19 19L19 19L19 19ZM19 19L19 19L19 19L19 19L19 19ZM14 19H15V19L15 19L14 19ZM14 20H14V20L14 20L14 20ZM14 20L14 20L14 20L14 20L14 20ZM14 20L15 19L15 19L14 19L14 20ZM15 20L14 20L14 20L14 20L15 20ZM15 20L16 20L16 20L16 20L15 20ZM16 20L16 20L16 20L16 20L16 20ZM16 21L16 21L16 21L16 21L16 21ZM15 21L15 21L15 21L15 21L15 21ZM16 21L16 21L16 21L16 21L16 21ZM16 22L15 22L15 22L15 22L16 22ZM16 22L16 23L16 22L16 22L16 22ZM16 22L16 23L16 23L16 23L16 22ZM15 22L15 22L15 22L15 22L15 22ZM15 22L15 23L15 23L15 23L15 22ZM15 22L15 22L15 22L15 22L15 22ZM14 22L14 22L14 22L14 22L14 22ZM14 23L14 22L14 22L14 22L14 23ZM14 23V23H14L14 23L14 23ZM13 23V22H13L13 22L13 23ZM13 23L13 24L13 24L13 24L13 23ZM13 23L12 23L12 23L12 23L13 23ZM12 23L12 22L12 22L12 22L12 23ZM12 23L12 22L12 22L12 22L12 23ZM11 22L11 23L11 23L11 23L11 22ZM11 22L10 23L11 23L11 23L11 22ZM11 22L10 22L10 23L10 23L11 22ZM10 22L10 22L10 22L10 22L10 22ZM10 22L10 22L10 22L10 22L10 22ZM10 21L10 21L10 21L10 21L10 21ZM10 21L11 22L11 22L11 22L10 21ZM11 21L11 22L11 22L11 21L11 21ZM11 21L10 21L10 21L10 21L11 21ZM11 21L11 20L10 20L10 21L11 21ZM11 21L11 21L11 21L11 21L11 21ZM11 21L11 21L12 21L11 21L11 21ZM11 21L10 21L10 21L10 21L11 21ZM11 20L10 20L10 20L10 20L11 20ZM11 20L11 20L11 20L11 20L11 20ZM12 20L12 19L12 19L11 19L12 20ZM12 20L12 19L12 19L12 19L12 20ZM13 20L13 20L13 20L13 20L13 20ZM14 19L14 20L14 20L14 20L14 19ZM14 19L14 19L14 19L14 19L14 19ZM14 19L14 19L14 19L14 19L14 19ZM16 21L16 21L17 21L17 21L16 21ZM16 21L16 21L16 22L16 21L16 21ZM16 21L16 20L16 21L16 21L16 21ZM16 20L16 20L16 20L16 20L16 20ZM16 20L17 20L17 20L16 20L16 20ZM16 21L17 21L17 21L17 20L16 21ZM18 22L19 23L19 23L19 22L18 22ZM18 22L18 23L18 23L19 23L18 22ZM18 22L18 22L18 22L18 22L18 22ZM18 22L18 22L18 22L18 22L18 22ZM18 22L18 21L18 22L18 22L18 22ZM18 22L19 21L18 21L18 21L18 22ZM18 22L19 22L19 22L19 22L18 22ZM18 22L19 22L19 22L19 22L18 22ZM15 26L16 26L16 26L15 25L15 26ZM15 26L15 26L16 26L16 26L15 26ZM15 26L14 26L14 27L15 27L15 26ZM14 26L15 26L15 26L14 26L14 26ZM14 26L14 26L14 25L14 26L14 26ZM14 26L14 26L14 26L14 26L14 26ZM14 26L14 26L14 26L13 26L14 26ZM14 26L14 27L14 27L14 27L14 26ZM14 26L14 27L14 27L14 27L14 26ZM13 27L13 27L13 27L13 27L13 27ZM13 26L13 26L12 26L13 27L13 26ZM13 26L13 27L14 27L14 27L13 26ZM13 26L13 26L13 26L13 26L13 26ZM14 26L14 27L14 27L14 27L14 26ZM14 26L14 26L14 26L14 26L14 26ZM14 26L14 25L14 25L14 26L14 26ZM14 26L14 26L14 26L14 26L14 26ZM14 26L15 25L14 25L14 25L14 26ZM15 26L15 25L15 25L15 25L15 26ZM0 37L1 37L1 37L1 37L0 37ZM0 37L0 38L0 38L1 37L0 37ZM0 37L0 37L0 37L0 38L0 37ZM0 37L0 36L-1 37L0 37L0 37ZM0 37L0 36L0 36L0 36L0 37ZM0 37L1 37L1 36L0 36L0 37ZM10 0L10 0L10 0L10 0L10 1L10 1L10 0ZM10 0L10 0L10 0L9 0L9 1L10 1L10 0ZM9 0L10 0L10 0L9 0L9 0L9 0L9 0ZM9 0L9 0L10 0L9 0L9 0L9 0L9 0ZM9 0L10 0L10 0L10 0L10 0L9 0L9 0ZM10 0L10 0L10 0L10 0L10 0L10 0L10 0ZM10 0L9 0L9 0L10 0L10 0L10 0L10 0ZM10 0L9 0L9 0L10 0L10 0L10 0L10 0ZM21 14L21 14L21 14L21 15L21 15L21 15L21 14ZM21 15H21V14H21H20V15H21ZM21 14H21V14H21H20V14H21ZM21 14L21 15L21 15L21 14L21 14L21 14L21 14ZM21 14V15H21V14V14H21V14ZM21 14L21 14L21 14L21 14L22 15L22 15L21 14ZM21 16L21 16L21 16L21 16L21 16L21 16L21 16ZM21 16L21 16L21 16L21 16L21 15L21 16L21 16ZM21 16L21 16L21 16L21 16L21 15L21 15L21 16ZM21 16L21 15L21 16L21 16L22 16L22 16L21 16ZM21 16L21 16L21 16L21 16L22 16L22 16L21 16ZM25 19L24 19L24 19L25 19L25 19L25 19L25 19ZM25 19L25 19L25 19L25 19L24 20L25 20L25 19ZM25 19L25 19L25 19L25 19L24 19L24 19L25 19ZM25 19L25 19L25 19L25 19L24 19L24 19L25 19ZM25 19L25 18L25 18L25 19L24 19L25 19L25 19ZM25 19L25 19L25 18L25 18L24 19L24 19L25 19ZM25 18L25 19L25 19L25 18L24 18L24 18L25 18ZM25 18L24 19L25 19L25 19L25 18L25 18L25 18ZM25 19L25 19L25 19L25 19L25 18L25 18L25 19ZM25 19L25 19L25 19L25 19L26 19L26 18L25 19ZM25 19L25 19L25 19L25 19L26 19L26 19L25 19ZM25 19L25 18L25 19L25 19L25 19L25 19L25 19ZM28 22L28 21L27 21L27 22L28 22L28 22L28 22ZM27 22L28 21L28 21L27 22L27 22L27 22L27 22ZM27 22L28 22L28 22L27 21L27 21L27 21L27 22ZM27 21L27 22L27 22L28 22L28 21L28 21L27 21ZM28 22L27 22L27 22L28 22L28 21L28 21L28 22ZM28 22L27 22L27 22L28 22L28 22L28 22L28 22ZM25 22L25 21L24 21L25 22L25 22L25 22L25 22ZM25 22L25 21L25 21L25 22L24 22L25 22L25 22ZM25 22L25 21L25 21L24 22L24 22L24 22L25 22ZM24 22L25 22L25 22L24 22L24 22L24 22L24 22ZM24 22L25 22L25 22L25 22L24 21L24 21L24 22ZM25 22L24 22L24 22L25 22L25 21L25 21L25 22ZM25 22L24 22L24 22L25 22L25 22L25 22L25 22ZM26 23L25 23L25 23L26 23L26 23L26 23L26 23ZM26 23L26 22L26 22L25 23L25 23L25 23L26 23ZM25 23L26 22L26 22L25 23L25 23L25 23L25 23ZM25 23L26 23L26 23L26 23L25 22L25 22L25 23ZM26 23L26 23L26 23L26 23L26 22L26 22L26 23ZM26 23L25 23L25 23L26 23L26 23L26 23L26 23ZM22 26L21 26L21 26L22 26L22 26L22 26L22 26ZM22 26L22 25L22 25L22 26L22 26L22 26L22 26ZM22 26L22 25L22 25L22 26L21 26L21 26L22 26ZM22 26L21 25L21 25L22 26L22 26L22 26L22 26ZM22 26L21 26L21 26L22 26L22 26L22 26L22 26ZM22 26L21 26L21 26L22 26L22 26L22 26L22 26ZM22 26L21 26L21 26L22 26L22 26L22 26L22 26ZM22 26L22 26L22 26L21 26L21 26L21 26L22 26ZM21 26L22 26L22 26L21 26L21 26L21 26L21 26ZM21 26L22 26L22 26L21 26L21 26L21 26L21 26ZM21 26L22 26L22 26L22 26L21 26L21 26L21 26ZM22 26L22 26L22 26L22 26L21 25L21 25L22 26ZM22 26L21 26L21 26L22 26L22 25L22 25L22 26ZM27 27L26 26L26 26L26 27L27 27L27 27L27 27ZM26 27L27 26L27 26L26 27L26 27L26 27L26 27ZM26 27L27 26L27 26L26 27L26 27L26 27L26 27ZM26 27L27 26L27 26L26 26L26 27L26 27L26 27ZM26 26L27 27L27 27L26 26L26 26L26 26L26 26ZM26 26L27 27L27 27L26 26L26 26L26 26L26 26ZM26 26L26 27L26 27L26 26L27 26L27 26L26 26ZM26 26L26 26L26 26L26 26L27 27L27 27L26 26ZM26 26L26 26L26 26L26 26L27 27L27 27L26 26ZM26 26L26 26L26 27L26 26L27 26L27 26L26 26ZM26 26L26 27L26 27L26 27L27 26L27 26L26 26ZM26 27L26 27L26 27L26 27L27 26L27 26L26 27ZM26 27L26 27L26 27L27 27L27 26L27 26L26 27ZM26 33L26 33L26 33L26 33L26 32L26 32L26 33ZM26 33L26 32L26 32L26 33L26 33L26 33L26 33ZM26 33L26 32L26 32L26 33L26 33L26 33L26 33ZM26 33L26 32L26 32L26 33L25 33L26 33L26 33ZM26 33L26 33L26 33L26 33L25 33L25 33L26 33ZM26 33L26 33L26 33L26 33L25 32L25 32L26 33ZM26 33L26 33L26 33L26 33L26 32L26 32L26 33ZM26 33L25 33L25 33L26 33L26 32L26 32L26 33ZM26 33L25 33L25 33L26 33L26 32L26 32L26 33ZM26 33L25 33L25 33L26 33L26 33L26 33L26 33ZM21 15L21 14L20 15L20 15L21 16L21 15L21 15ZM20 15L20 15L20 15L20 15L20 16L21 15L20 15ZM20 15L20 15L20 15L20 16L20 16L20 16L20 15ZM20 16L20 15L19 16L19 16L20 16L20 16L20 16ZM19 16L19 16L19 16L19 16L20 17L20 16L19 16ZM19 16L19 16L19 17L19 17L20 17L20 16L19 16ZM19 17L20 17L20 17L20 16L19 16L19 16L19 17ZM20 16L20 17L21 16L20 16L20 16L19 16L20 16ZM20 16L20 16L21 16L20 16L20 16L20 16L20 16ZM20 16L20 16L21 16L21 16L21 16L20 16L20 16ZM21 16L20 16L20 16L21 16L21 16L21 16L21 16ZM21 16L20 16L20 16L20 16L21 16L21 16L21 16ZM20 16L20 16L20 16L20 17L21 17L21 16L20 16ZM20 17L20 17L20 17L21 17L21 17L21 16L20 17ZM21 17L21 16L20 16L20 17L20 17L21 17L21 17ZM20 17L20 16L20 16L20 17L20 17L20 17L20 17ZM20 17L20 16L19 17L19 17L20 18L20 17L20 17ZM19 17L19 17L19 17L19 17L19 18L19 18L19 17ZM19 17L19 17L19 17L19 17L19 18L19 18L19 17ZM19 17L19 17L19 17L18 17L18 18L18 18L19 17ZM18 17L19 17L19 17L18 17L18 17L18 18L18 17ZM18 17L19 17L19 17L18 17L18 17L18 17L18 17ZM18 17L18 16L18 16L18 17L18 17L18 17L18 17ZM18 17L18 16L18 16L18 17L18 17L18 17L18 17ZM18 17L18 16L17 17L17 17L18 18L18 17L18 17ZM17 17L17 17L17 17L17 18L18 18L18 17L17 17ZM17 18L17 17L17 17L17 18L17 18L17 18L17 18ZM17 18L17 17L17 17L17 17L16 18L17 18L17 18ZM17 17L16 17L16 17L16 18L17 18L17 18L17 17ZM16 18L16 17L16 17L16 18L16 18L16 18L16 18ZM16 18L16 18L16 17L16 18L15 18L16 18L16 18ZM16 18L16 17L16 17L16 17L15 18L15 18L16 18ZM16 17L16 17L16 17L16 17L15 17L15 18L16 17ZM16 17L16 17L15 17L15 17L15 18L15 18L16 17ZM15 17L16 17L16 17L15 17L15 17L15 17L15 17ZM15 17L16 17L16 17L15 17L15 16L15 16L15 17ZM15 17L16 17L16 17L15 17L15 16L15 16L15 17ZM15 17L16 17L16 17L15 16L15 16L15 16L15 17ZM15 16L15 17L15 17L16 16L16 16L16 16L15 16ZM16 16L16 17L16 17L16 17L16 16L16 16L16 16ZM16 17L16 17L16 17L16 16L16 16L16 16L16 17ZM16 16L16 17L16 17L16 16L16 16L16 16L16 16ZM16 16L17 17L17 16L16 16L16 16L16 16L16 16ZM16 16L17 16L17 16L17 16L17 15L16 16L16 16ZM17 16L17 16L18 16L17 16L17 15L17 15L17 16ZM17 16L18 16L18 16L18 16L18 15L17 15L17 16ZM18 16L18 16L18 16L18 16L18 15L18 15L18 16ZM18 16L18 16L19 16L18 15L18 15L18 15L18 16ZM18 15L19 16L19 16L19 15L19 15L18 15L18 15ZM19 15L19 16L19 15L19 15L19 14L19 15L19 15ZM19 15L19 15L20 15L20 15L19 14L19 14L19 15ZM20 15L20 15L20 15L20 15L20 14L19 14L20 15ZM20 15L20 15L20 15L20 15L20 14L20 14L20 15ZM20 15L20 15L20 15L20 15L20 14L20 14L20 15ZM20 15L20 15L21 15L21 14L21 14L20 14L20 15ZM21 14H20V15H21H21V14H21ZM21 16L21 16L21 16L21 16L21 17L21 17L21 16ZM21 16L21 16L21 16L21 16L20 16L20 16L21 16ZM21 16L21 16L21 16L21 16L20 16L20 16L21 16ZM21 17L21 16L21 16L21 17L22 17L22 17L21 17ZM21 17L21 16L21 17L21 17L21 17L22 17L21 17ZM21 17L20 17L20 17L21 17L21 18L21 17L21 17ZM21 17L20 17L20 18L20 18L21 18L21 18L21 17ZM20 18L20 18L20 18L21 18L21 18L21 17L20 18ZM21 18L21 18L21 18L21 18L21 17L20 18L21 18ZM21 18L21 18L21 18L21 18L21 17L20 18L21 18ZM21 18L21 18L22 18L21 17L21 17L21 17L21 18ZM21 17L22 18L22 17L22 17L21 17L21 17L21 17ZM22 17L22 17L22 16L21 17L21 17L21 17L22 17ZM10 18L10 18L10 18L10 19L10 19L10 19L10 18ZM10 19L10 19L11 18L10 18L10 18L10 18L10 19ZM10 18L10 19L11 18L10 18L10 18L10 18L10 18ZM10 18L10 19L10 19L10 18L10 18L10 18L10 18ZM10 18L10 19L10 19L10 18L10 18L10 18L10 18ZM10 18L10 18L10 18L10 18L11 18L11 18L10 18ZM10 18L10 18L10 18L10 18L11 19L11 19L10 18ZM19 19L18 19L18 19L18 20L19 20L19 20L19 19ZM18 20L19 19L19 19L18 19L18 19L18 20L18 20ZM18 19L18 19L19 19L19 19L19 18L18 18L18 19ZM19 19L18 19L18 19L19 19L19 19L19 18L19 19ZM19 19L18 19L18 19L19 19L19 19L19 19L19 19ZM19 19L18 19L18 19L19 19L19 20L19 19L19 19ZM14 19H14V20H14H15V19H14ZM14 20L14 20L14 20L14 20L15 19L14 19L14 20ZM14 20L14 20L14 20L14 20L14 19L14 19L14 20ZM14 20L14 20L14 20L15 20L15 20L15 19L14 20ZM15 20L14 20L15 21L15 20L16 20L15 20L15 20ZM15 20L15 21L15 21L16 20L16 20L16 20L15 20ZM16 20L15 20L15 21L16 21L16 21L16 20L16 20ZM16 21L15 20L15 21L15 21L16 21L16 21L16 21ZM15 21L15 21L15 21L16 21L16 21L16 21L15 21ZM16 21L15 21L15 22L16 22L16 22L16 21L16 21ZM16 22L15 22L15 22L16 22L16 22L16 22L16 22ZM16 22L16 22L15 22L16 22L16 23L16 23L16 22ZM16 22L16 22L15 22L15 22L15 23L16 23L16 22ZM15 22L15 22L15 22L15 22L15 23L15 23L15 22ZM15 22L15 22L15 22L15 22L15 23L15 23L15 22ZM15 22L15 22L14 22L14 22L14 23L15 23L15 22ZM14 22L14 22L14 22L14 23L14 23L15 23L14 22ZM14 23L14 22L14 22L14 23L14 23L14 23L14 23ZM14 23V22H13V23V23H14V23ZM13 23L13 22L13 22L13 23L13 24L14 23L13 23ZM13 23L13 22L13 22L13 23L12 23L13 24L13 23ZM13 23L13 22L12 22L12 23L12 23L12 23L13 23ZM12 23L12 22L12 22L12 23L12 23L12 23L12 23ZM12 23L12 22L11 22L11 22L11 23L12 23L12 23ZM11 22L11 22L11 22L11 22L11 23L11 23L11 22ZM11 22L11 22L11 22L11 22L10 23L10 23L11 22ZM11 22L11 22L11 22L10 22L10 22L10 22L11 22ZM10 22L11 22L11 22L10 22L10 22L10 22L10 22ZM10 22L11 22L11 21L10 21L10 21L10 22L10 22ZM10 21L10 22L11 22L10 21L10 21L10 21L10 21ZM10 21L11 22L11 22L11 21L10 21L10 21L10 21ZM11 21L11 21L11 21L11 21L10 21L10 21L11 21ZM11 21L11 21L11 21L11 21L10 21L10 21L11 21ZM11 21L11 21L11 21L11 21L11 20L11 20L11 21ZM11 21L11 21L11 21L11 21L10 21L10 21L11 21ZM11 21L11 21L11 20L11 21L10 21L10 21L11 21ZM11 21L11 21L11 20L11 20L10 20L10 21L11 21ZM11 20L11 21L12 20L11 20L11 20L10 20L11 20ZM11 20L12 20L12 20L12 20L11 19L11 20L11 20ZM12 20L12 20L13 20L12 20L12 19L12 19L12 20ZM12 20L12 20L13 20L13 20L13 19L12 19L12 20ZM13 20L13 20L14 20L14 19L14 19L13 19L13 20ZM14 19L14 20L14 20L14 19L14 19L14 19L14 19ZM14 19L14 20L14 20L14 19L14 19L14 19L14 19ZM14 19L14 20L14 20L14 19L15 19L14 19L14 19ZM16 21L16 20L16 20L16 21L16 21L16 21L16 21ZM16 21L17 21L16 20L16 21L16 21L16 21L16 21ZM16 21L16 21L17 21L16 20L16 20L16 20L16 21ZM16 20L16 21L16 21L16 20L16 20L16 20L16 20ZM16 20L16 20L16 21L16 21L17 20L17 20L16 20ZM16 21L16 20L16 21L16 21L17 21L17 21L16 21ZM18 22L18 22L18 22L18 22L19 23L19 23L18 22ZM18 22L19 22L18 22L18 22L18 22L18 23L18 22ZM18 22L18 22L18 22L18 22L18 22L18 22L18 22ZM18 22L18 22L18 22L18 22L18 22L18 22L18 22ZM18 22L18 22L18 22L18 22L18 21L18 21L18 22ZM18 22L18 22L18 22L18 22L19 22L19 21L18 22ZM18 22L18 22L18 22L18 22L19 22L19 22L18 22ZM18 22L18 22L18 22L18 22L19 22L19 22L18 22ZM15 26L15 26L15 26L15 26L16 26L16 26L15 26ZM15 26L15 26L14 26L15 26L15 27L15 26L15 26ZM15 26L15 26L15 26L14 26L14 26L14 26L15 26ZM14 26L14 26L14 26L14 26L14 26L14 26L14 26ZM14 26L14 26L14 26L14 26L14 27L15 26L14 26ZM14 26L14 26L14 26L14 26L14 27L14 26L14 26ZM14 26L13 26L13 26L14 26L14 27L14 26L14 26ZM14 26L14 26L14 26L14 26L14 27L14 27L14 26ZM14 26L14 26L13 26L13 27L13 27L14 27L14 26ZM13 27L14 26L13 26L13 26L13 27L13 27L13 27ZM13 26L13 27L13 27L13 26L13 26L13 26L13 26ZM13 26L14 27L14 27L13 26L13 26L13 26L13 26ZM13 26L13 27L14 27L14 26L14 26L13 26L13 26ZM14 26L14 27L14 26L14 26L14 26L13 26L14 26ZM14 26L14 26L14 26L14 26L14 26L13 26L14 26ZM14 26L14 26L14 26L14 26L14 25L14 25L14 26ZM14 26L14 26L15 26L14 26L14 25L14 25L14 26ZM14 26L14 26L15 26L15 26L15 25L15 25L14 26ZM15 26L15 26L15 26L15 26L15 25L15 25L15 26ZM0 37L0 37L0 37L0 37L1 37L1 37L0 37ZM0 37L0 36L0 36L0 37L0 38L0 38L0 37ZM0 37L0 37L0 37L0 37L0 37L0 37L0 37ZM0 37L0 37L0 37L0 37L0 36L0 36L0 37ZM0 37L0 37L0 37L0 37L0 36L0 36L0 37ZM0 37L0 37L0 37L0 37L1 37L1 37L0 37Z" fill="var(--stroke-0,white)" mask="url(#path-1-inside-1_0_240)"/></g></svg>