<svg preserveAspectRatio="none" width="100%" height="100%" overflow="visible" style="display: block;" viewBox="0 0 27.6487 36.9883" fill="none" xmlns="http://www.w3.org/2000/svg">
<g id="FJ">
<mask id="path-1-inside-1_0_240" fill="white">
<path d="M9.78393 0.111138L9.63262 0.150905L9.38912 0.117961L9.33958 0.0548783L9.41666 0.0411483L9.5762 0L9.77159 0.0205951L9.80593 0.0617434L9.78393 0.111138ZM21.066 14.4999L20.8968 14.5767V14.5273V14.515L21.0151 14.408H21.1101L21.066 14.4999ZM21.1692 15.9086L20.8968 16.0567V15.8523L21.1142 15.6631L21.2792 15.6233L21.1774 15.814L21.1692 15.9086ZM24.9262 18.988L24.8286 19.1252L24.7432 19.0758L24.8519 18.8453L24.8684 18.7466L24.7006 18.6259L24.6896 18.5408L24.7391 18.4887L24.94 18.6245L25.0624 18.7301L25.0872 18.7877L25.05 18.8906L24.9262 18.988ZM27.6487 21.7176L27.4341 21.7601L27.2387 21.5887L27.3626 21.4076L27.5359 21.4501L27.6349 21.6257L27.6487 21.7176ZM24.8038 21.8136L24.6868 21.874L24.6056 21.8602L24.5107 21.7958L24.453 21.6819L24.5741 21.5859L24.7611 21.6943L24.8038 21.8136ZM25.6773 22.8492L25.6319 22.9233L25.4256 22.8026L25.3458 22.7203L25.5659 22.6572L25.6732 22.6778L25.6773 22.8492ZM21.6699 25.7009L21.6796 25.8203L21.6217 25.8134L21.553 25.7626L21.5186 25.7873L21.4939 25.8244L21.4814 25.908L21.4719 25.9546L21.4182 25.9382L21.4086 25.8559L21.4264 25.7983L21.4526 25.7133L21.5489 25.6364L21.6699 25.7009ZM26.5536 26.6144L26.511 26.6514L26.4051 26.6103L26.3184 26.5541L26.3074 26.4965L26.3431 26.4224L26.4271 26.384L26.4698 26.3991L26.445 26.4238L26.3941 26.4498L26.4023 26.5225L26.4683 26.5664L26.5316 26.5788L26.5536 26.6144ZM25.8713 32.7279L25.8796 32.7389L25.8576 32.7375L25.8272 32.7238L25.8025 32.6964L25.797 32.6662L25.8094 32.6361L25.8218 32.6374L25.8424 32.6649L25.8617 32.695L25.8713 32.7279ZM20.894 14.5767L20.3108 15.1075L20.1016 15.3819L19.9242 15.685L19.4276 16.0101L19.2157 16.4463L19.2308 16.8866L19.7288 16.4257L20.2832 16.0499L20.4538 15.9731L20.6285 15.9772L20.6134 16.1061L20.5336 16.2337L20.4717 16.567L20.6175 16.877L20.2035 16.8468L19.7935 16.8729L19.3079 17.0457L18.8305 17.1225L18.6516 17.1239L18.4811 17.0663L18.3697 16.9771L18.2829 16.7714L18.1949 16.7412L17.8166 16.7508L17.2498 17.1541L17.0614 17.4997L16.844 17.5148L16.5854 17.4435L16.273 17.7082L15.9002 17.8028L15.7407 17.5779L15.6362 17.3036L15.5027 17.1019L15.0927 17.0512L15.1561 16.8043L15.2647 16.7028L15.3638 16.556L15.4243 16.3887L15.621 16.4943L15.8219 16.5629L16.0461 16.438L16.2799 16.4271L16.5139 16.0622L16.8811 15.8331L17.386 15.6521L17.9006 15.5232L18.1661 15.4971L18.4206 15.423L18.8677 15.0801L19.1634 14.9045L19.4853 14.7989L19.7935 14.7372L20.0783 14.792L20.308 14.7632L20.894 14.5191V14.5767ZM20.8968 16.0567L20.8472 16.0622L20.8377 15.9854L20.8968 15.8523V16.0567ZM21.4347 16.6493L21.3081 16.6987L20.8968 17.0388L20.6313 17.3996L20.4992 17.7507L20.6106 17.8961L20.8968 17.7466L20.9931 17.5943L21.4072 17.2967L21.5833 16.9565L21.4347 16.6493ZM10.2186 18.4846L10.0192 18.5518L10.1251 18.2335L10.2365 18.1334L10.308 18.1129L10.4222 18.0909L10.3782 18.3158L10.2186 18.4846ZM18.6668 19.3651L18.5375 19.4736L18.477 18.9221L18.6104 18.9262L18.7067 18.9838L18.7617 19.1238L18.6668 19.3651ZM14.2577 19.3857V19.5627L14.3705 19.6395L14.4833 19.6519L14.7612 19.992L15.1945 20.2842L15.4587 20.5078L15.4738 20.6985L15.3927 20.9001L15.5054 21.2622L15.5591 21.6366L15.7517 22.232L15.4807 22.3458L15.0529 22.3595L14.9538 22.4665L14.8094 22.4075L14.4544 22.4528L14.116 22.649L13.7941 22.915H13.4212L13.0017 22.97L12.5835 22.9329L12.289 22.7902L11.7705 22.6352L11.0784 22.5035L10.7924 22.3925L10.553 22.2197L10.3301 21.7821L10.297 21.5653L10.3315 21.3582L10.5337 21.2883L10.7029 21.184L10.7263 21.0468L10.8019 20.9508L10.8982 20.9166L10.9464 20.8507L10.8776 20.6285L10.8584 20.4269L11.26 20.0565L11.6962 19.741L12.4693 19.4502L12.9411 19.4777L13.6647 19.254L13.8972 19.1485L14.127 19.2129L14.2577 19.3857ZM16.3708 20.8178L16.1713 20.8891L16.0612 20.6435L16.2126 20.3967L16.3831 20.3747L16.4671 20.6257L16.3708 20.8178ZM18.3848 22.3198L18.3504 22.3527L18.0161 22.0317L18.0271 21.9041L18.0863 21.7903L18.221 21.6833L18.3421 21.8658L18.4371 22.1703L18.3848 22.3198ZM15.0597 25.8381L15.0583 26.0122L14.5617 26.1275L14.3952 25.9849L14.2879 25.9587L13.9922 26.2139L13.9056 26.3182L13.8767 26.3964L13.7996 26.4361L13.2548 26.5582L13.0154 26.4361L13.1764 26.3538L13.3759 26.1879L13.5767 26.2125L13.7776 26.0575L13.9784 25.8216L14.2632 25.7709L14.4641 25.6803L14.7956 25.7462L15.0597 25.8381ZM0.162306 36.943L0.133421 36.9883L0.021999 36.9733L0 36.8813L0.0646536 36.8293L0.155504 36.8635L0.162306 36.943Z"/>
</mask>
<path d="M9.78393 0.111138L9.63262 0.150905L9.38912 0.117961L9.33958 0.0548783L9.41666 0.0411483L9.5762 0L9.77159 0.0205951L9.80593 0.0617434L9.78393 0.111138ZM21.066 14.4999L20.8968 14.5767V14.5273V14.515L21.0151 14.408H21.1101L21.066 14.4999ZM21.1692 15.9086L20.8968 16.0567V15.8523L21.1142 15.6631L21.2792 15.6233L21.1774 15.814L21.1692 15.9086ZM24.9262 18.988L24.8286 19.1252L24.7432 19.0758L24.8519 18.8453L24.8684 18.7466L24.7006 18.6259L24.6896 18.5408L24.7391 18.4887L24.94 18.6245L25.0624 18.7301L25.0872 18.7877L25.05 18.8906L24.9262 18.988ZM27.6487 21.7176L27.4341 21.7601L27.2387 21.5887L27.3626 21.4076L27.5359 21.4501L27.6349 21.6257L27.6487 21.7176ZM24.8038 21.8136L24.6868 21.874L24.6056 21.8602L24.5107 21.7958L24.453 21.6819L24.5741 21.5859L24.7611 21.6943L24.8038 21.8136ZM25.6773 22.8492L25.6319 22.9233L25.4256 22.8026L25.3458 22.7203L25.5659 22.6572L25.6732 22.6778L25.6773 22.8492ZM21.6699 25.7009L21.6796 25.8203L21.6217 25.8134L21.553 25.7626L21.5186 25.7873L21.4939 25.8244L21.4814 25.908L21.4719 25.9546L21.4182 25.9382L21.4086 25.8559L21.4264 25.7983L21.4526 25.7133L21.5489 25.6364L21.6699 25.7009ZM26.5536 26.6144L26.511 26.6514L26.4051 26.6103L26.3184 26.5541L26.3074 26.4965L26.3431 26.4224L26.4271 26.384L26.4698 26.3991L26.445 26.4238L26.3941 26.4498L26.4023 26.5225L26.4683 26.5664L26.5316 26.5788L26.5536 26.6144ZM25.8713 32.7279L25.8796 32.7389L25.8576 32.7375L25.8272 32.7238L25.8025 32.6964L25.797 32.6662L25.8094 32.6361L25.8218 32.6374L25.8424 32.6649L25.8617 32.695L25.8713 32.7279ZM20.894 14.5767L20.3108 15.1075L20.1016 15.3819L19.9242 15.685L19.4276 16.0101L19.2157 16.4463L19.2308 16.8866L19.7288 16.4257L20.2832 16.0499L20.4538 15.9731L20.6285 15.9772L20.6134 16.1061L20.5336 16.2337L20.4717 16.567L20.6175 16.877L20.2035 16.8468L19.7935 16.8729L19.3079 17.0457L18.8305 17.1225L18.6516 17.1239L18.4811 17.0663L18.3697 16.9771L18.2829 16.7714L18.1949 16.7412L17.8166 16.7508L17.2498 17.1541L17.0614 17.4997L16.844 17.5148L16.5854 17.4435L16.273 17.7082L15.9002 17.8028L15.7407 17.5779L15.6362 17.3036L15.5027 17.1019L15.0927 17.0512L15.1561 16.8043L15.2647 16.7028L15.3638 16.556L15.4243 16.3887L15.621 16.4943L15.8219 16.5629L16.0461 16.438L16.2799 16.4271L16.5139 16.0622L16.8811 15.8331L17.386 15.6521L17.9006 15.5232L18.1661 15.4971L18.4206 15.423L18.8677 15.0801L19.1634 14.9045L19.4853 14.7989L19.7935 14.7372L20.0783 14.792L20.308 14.7632L20.894 14.5191V14.5767ZM20.8968 16.0567L20.8472 16.0622L20.8377 15.9854L20.8968 15.8523V16.0567ZM21.4347 16.6493L21.3081 16.6987L20.8968 17.0388L20.6313 17.3996L20.4992 17.7507L20.6106 17.8961L20.8968 17.7466L20.9931 17.5943L21.4072 17.2967L21.5833 16.9565L21.4347 16.6493ZM10.2186 18.4846L10.0192 18.5518L10.1251 18.2335L10.2365 18.1334L10.308 18.1129L10.4222 18.0909L10.3782 18.3158L10.2186 18.4846ZM18.6668 19.3651L18.5375 19.4736L18.477 18.9221L18.6104 18.9262L18.7067 18.9838L18.7617 19.1238L18.6668 19.3651ZM14.2577 19.3857V19.5627L14.3705 19.6395L14.4833 19.6519L14.7612 19.992L15.1945 20.2842L15.4587 20.5078L15.4738 20.6985L15.3927 20.9001L15.5054 21.2622L15.5591 21.6366L15.7517 22.232L15.4807 22.3458L15.0529 22.3595L14.9538 22.4665L14.8094 22.4075L14.4544 22.4528L14.116 22.649L13.7941 22.915H13.4212L13.0017 22.97L12.5835 22.9329L12.289 22.7902L11.7705 22.6352L11.0784 22.5035L10.7924 22.3925L10.553 22.2197L10.3301 21.7821L10.297 21.5653L10.3315 21.3582L10.5337 21.2883L10.7029 21.184L10.7263 21.0468L10.8019 20.9508L10.8982 20.9166L10.9464 20.8507L10.8776 20.6285L10.8584 20.4269L11.26 20.0565L11.6962 19.741L12.4693 19.4502L12.9411 19.4777L13.6647 19.254L13.8972 19.1485L14.127 19.2129L14.2577 19.3857ZM16.3708 20.8178L16.1713 20.8891L16.0612 20.6435L16.2126 20.3967L16.3831 20.3747L16.4671 20.6257L16.3708 20.8178ZM18.3848 22.3198L18.3504 22.3527L18.0161 22.0317L18.0271 21.9041L18.0863 21.7903L18.221 21.6833L18.3421 21.8658L18.4371 22.1703L18.3848 22.3198ZM15.0597 25.8381L15.0583 26.0122L14.5617 26.1275L14.3952 25.9849L14.2879 25.9587L13.9922 26.2139L13.9056 26.3182L13.8767 26.3964L13.7996 26.4361L13.2548 26.5582L13.0154 26.4361L13.1764 26.3538L13.3759 26.1879L13.5767 26.2125L13.7776 26.0575L13.9784 25.8216L14.2632 25.7709L14.4641 25.6803L14.7956 25.7462L15.0597 25.8381ZM0.162306 36.943L0.133421 36.9883L0.021999 36.9733L0 36.8813L0.0646536 36.8293L0.155504 36.8635L0.162306 36.943Z" fill="var(--fill-0, #71B219)"/>
<path d="M20.8968 16.0567H21.1468V15.8523H20.8968H20.6468V16.0567H20.8968ZM9.78393 0.111138L9.91103 0.594715L10.1431 0.533729L10.2407 0.314561L9.78393 0.111138ZM9.63262 0.150905L9.56559 0.646391L9.66383 0.659683L9.75972 0.634482L9.63262 0.150905ZM9.38912 0.117961L8.99589 0.426774L9.12113 0.586259L9.32209 0.613447L9.38912 0.117961ZM9.33958 0.0548783L9.2519 -0.437373L8.43196 -0.29132L8.94635 0.363691L9.33958 0.0548783ZM9.41666 0.0411483L9.50435 0.5334L9.5231 0.53006L9.54154 0.525303L9.41666 0.0411483ZM9.5762 0L9.62861 -0.497245L9.53878 -0.506714L9.45132 -0.484155L9.5762 0ZM9.77159 0.0205951L10.1555 -0.299782L10.0256 -0.455402L9.824 -0.47665L9.77159 0.0205951ZM9.80593 0.0617434L10.2627 0.265166L10.3894 -0.0194382L10.1898 -0.258633L9.80593 0.0617434ZM21.066 14.4999L21.2727 14.9552L21.4382 14.88L21.5168 14.7161L21.066 14.4999ZM20.8968 14.5767H20.3968V15.3528L21.1035 15.032L20.8968 14.5767ZM20.8968 14.515L20.5614 14.1441L20.3968 14.293V14.515H20.8968ZM21.0151 14.408V13.908H20.8225L20.6797 14.0371L21.0151 14.408ZM21.1101 14.408L21.5609 14.6242L21.9043 13.908H21.1101V14.408ZM21.1692 15.9086L21.4081 16.3478L21.644 16.2195L21.6673 15.9519L21.1692 15.9086ZM20.8968 16.0567L20.9518 16.5537L21.0494 16.5429L21.1357 16.496L20.8968 16.0567ZM20.8968 15.8523L20.5684 15.4753L20.4848 15.5481L20.4398 15.6494L20.8968 15.8523ZM21.1142 15.6631L20.9971 15.177L20.8781 15.2056L20.7858 15.286L21.1142 15.6631ZM21.2792 15.6233L21.7203 15.8589L22.2451 14.8763L21.1621 15.1372L21.2792 15.6233ZM21.1774 15.814L20.7364 15.5784L20.6881 15.6687L20.6793 15.7707L21.1774 15.814ZM24.9262 18.988L24.617 18.5951L24.5605 18.6395L24.5189 18.698L24.9262 18.988ZM24.8286 19.1252L24.578 19.5579L24.9719 19.7859L25.2359 19.4151L24.8286 19.1252ZM24.7432 19.0758L24.291 18.8625L24.095 19.2782L24.4927 19.5085L24.7432 19.0758ZM24.8519 18.8453L25.3042 19.0586L25.3336 18.9961L25.345 18.9279L24.8519 18.8453ZM24.8684 18.7466L25.3616 18.8292L25.413 18.5223L25.1604 18.3407L24.8684 18.7466ZM24.7006 18.6259L24.2047 18.69L24.2325 18.9051L24.4086 19.0318L24.7006 18.6259ZM24.6896 18.5408L24.3272 18.1963L24.1632 18.3688L24.1937 18.6049L24.6896 18.5408ZM24.7391 18.4887L25.0192 18.0745L24.6684 17.8373L24.3767 18.1442L24.7391 18.4887ZM24.94 18.6245L25.2666 18.2459L25.2444 18.2267L25.22 18.2103L24.94 18.6245ZM25.0624 18.7301L25.5218 18.5327L25.4763 18.4268L25.389 18.3515L25.0624 18.7301ZM25.0872 18.7877L25.5574 18.9578L25.6246 18.7719L25.5466 18.5903L25.0872 18.7877ZM25.05 18.8906L25.3592 19.2835L25.4715 19.1951L25.5202 19.0606L25.05 18.8906ZM27.6487 21.7176L27.7459 22.208L28.2139 22.1153L28.1432 21.6435L27.6487 21.7176ZM27.4341 21.7601L27.1043 22.1359L27.2895 22.2985L27.5313 22.2506L27.4341 21.7601ZM27.2387 21.5887L26.826 21.3064L26.5758 21.6722L26.9089 21.9645L27.2387 21.5887ZM27.3626 21.4076L27.4817 20.922L27.1454 20.8394L26.9499 21.1253L27.3626 21.4076ZM27.5359 21.4501L27.9713 21.2044L27.865 21.016L27.655 20.9645L27.5359 21.4501ZM27.6349 21.6257L28.1294 21.5516L28.1158 21.4603L28.0704 21.3799L27.6349 21.6257ZM24.8038 21.8136L25.0331 22.2579L25.4219 22.0573L25.2746 21.6453L24.8038 21.8136ZM24.6868 21.874L24.6035 22.367L24.7679 22.3948L24.9161 22.3183L24.6868 21.874ZM24.6056 21.8602L24.3246 22.2738L24.4148 22.3351L24.5223 22.3532L24.6056 21.8602ZM24.5107 21.7958L24.0649 22.022L24.1232 22.1369L24.2298 22.2094L24.5107 21.7958ZM24.453 21.6819L24.1423 21.2902L23.8223 21.5439L24.0071 21.9082L24.453 21.6819ZM24.5741 21.5859L24.8248 21.1533L24.5302 20.9826L24.2634 21.1941L24.5741 21.5859ZM24.7611 21.6943L25.2319 21.526L25.1703 21.3535L25.0118 21.2617L24.7611 21.6943ZM25.6773 22.8492L26.1038 23.1102L26.1807 22.9845L26.1771 22.8372L25.6773 22.8492ZM25.6319 22.9233L25.3795 23.3549L25.8026 23.6024L26.0584 23.1843L25.6319 22.9233ZM25.4256 22.8026L25.0665 23.1506L25.1141 23.1997L25.1731 23.2342L25.4256 22.8026ZM25.3458 22.7203L25.2079 22.2397L24.4064 22.4696L24.9868 23.0683L25.3458 22.7203ZM25.5659 22.6572L25.6601 22.1661L25.5428 22.1436L25.428 22.1766L25.5659 22.6572ZM25.6732 22.6778L26.173 22.6658L26.1634 22.2627L25.7674 22.1867L25.6732 22.6778ZM21.6699 25.7009L22.1683 25.6606L22.1463 25.388L21.9049 25.2595L21.6699 25.7009ZM21.6796 25.8203L21.6207 26.3168L22.2272 26.3888L22.178 25.78L21.6796 25.8203ZM21.6217 25.8134L21.3246 26.2155L21.4312 26.2943L21.5628 26.3099L21.6217 25.8134ZM21.553 25.7626L21.8501 25.3605L21.557 25.1438L21.261 25.3567L21.553 25.7626ZM21.5186 25.7873L21.2267 25.3814L21.1532 25.4343L21.1028 25.5096L21.5186 25.7873ZM21.4939 25.8244L21.0781 25.5467L21.0158 25.64L20.9993 25.7509L21.4939 25.8244ZM21.4814 25.908L21.9712 26.0086L21.974 25.9951L21.976 25.9815L21.4814 25.908ZM21.4719 25.9546L21.3256 26.4328L21.8512 26.5935L21.9617 26.0552L21.4719 25.9546ZM21.4182 25.9382L20.9216 25.9965L20.9597 26.3209L21.272 26.4164L21.4182 25.9382ZM21.4086 25.8559L20.931 25.7079L20.8996 25.809L20.912 25.9142L21.4086 25.8559ZM21.4264 25.7983L21.904 25.9463L21.9044 25.9451L21.4264 25.7983ZM21.4526 25.7133L21.1407 25.3225L21.02 25.4188L20.9746 25.5664L21.4526 25.7133ZM21.5489 25.6364L21.7838 25.1951L21.4938 25.0407L21.237 25.2456L21.5489 25.6364ZM26.5536 26.6144L26.8813 26.9921L27.2023 26.7136L26.9792 26.3519L26.5536 26.6144ZM26.511 26.6514L26.33 27.1176L26.611 27.2266L26.8386 27.0291L26.511 26.6514ZM26.4051 26.6103L26.133 27.0298L26.1762 27.0578L26.2241 27.0764L26.4051 26.6103ZM26.3184 26.5541L25.8272 26.6479L25.8673 26.8575L26.0463 26.9736L26.3184 26.5541ZM26.3074 26.4965L25.8571 26.2791L25.7852 26.4279L25.8162 26.5903L26.3074 26.4965ZM26.3431 26.4224L26.1351 25.9677L25.9712 26.0427L25.8929 26.205L26.3431 26.4224ZM26.4271 26.384L26.5945 25.9128L26.4034 25.8449L26.219 25.9293L26.4271 26.384ZM26.4698 26.3991L26.8228 26.7532L27.3842 26.1934L26.6371 25.928L26.4698 26.3991ZM26.445 26.4238L26.6727 26.8689L26.7425 26.8332L26.798 26.7779L26.445 26.4238ZM26.3941 26.4498L26.1663 26.0047L25.8583 26.1623L25.8973 26.5061L26.3941 26.4498ZM26.4023 26.5225L25.9055 26.5788L25.9317 26.8101L26.1255 26.9389L26.4023 26.5225ZM26.4683 26.5664L26.1915 26.9828L26.2745 27.0379L26.3723 27.0571L26.4683 26.5664ZM26.5316 26.5788L26.9572 26.3163L26.8423 26.1301L26.6277 26.0881L26.5316 26.5788ZM25.8713 32.7279L25.3916 32.8687L25.4171 32.9556L25.4714 33.028L25.8713 32.7279ZM25.8796 32.7389L25.8492 33.238L26.9284 33.3037L26.2795 32.4388L25.8796 32.7389ZM25.8576 32.7375L25.6513 33.193L25.7352 33.231L25.8272 33.2366L25.8576 32.7375ZM25.8272 32.7238L25.4565 33.0593L25.5262 33.1364L25.6209 33.1793L25.8272 32.7238ZM25.8025 32.6964L25.3104 32.7853L25.3358 32.9259L25.4317 33.0319L25.8025 32.6964ZM25.797 32.6662L25.3343 32.4767L25.2791 32.6116L25.305 32.7551L25.797 32.6662ZM25.8094 32.6361L25.8629 32.139L25.4891 32.0987L25.3467 32.4466L25.8094 32.6361ZM25.8218 32.6374L26.2214 32.3368L26.091 32.1635L25.8754 32.1403L25.8218 32.6374ZM25.8424 32.6649L26.264 32.396L26.2536 32.3797L26.242 32.3643L25.8424 32.6649ZM25.8617 32.695L26.3414 32.5542L26.3214 32.486L26.2832 32.4261L25.8617 32.695ZM20.894 14.5767L21.2306 14.9465L21.394 14.7977V14.5767H20.894ZM20.3108 15.1075L19.9742 14.7378L19.9407 14.7683L19.9132 14.8044L20.3108 15.1075ZM20.1016 15.3819L19.704 15.0787L19.6855 15.103L19.6701 15.1293L20.1016 15.3819ZM19.9242 15.685L20.198 16.1033L20.2964 16.039L20.3557 15.9376L19.9242 15.685ZM19.4276 16.0101L19.1537 15.5917L19.0381 15.6674L18.9778 15.7916L19.4276 16.0101ZM19.2157 16.4463L18.7659 16.2279L18.7117 16.3395L18.716 16.4634L19.2157 16.4463ZM19.2308 16.8866L18.7311 16.9037L18.7686 17.9956L19.5704 17.2535L19.2308 16.8866ZM19.7288 16.4257L19.4483 16.0118L19.417 16.033L19.3892 16.0587L19.7288 16.4257ZM20.2832 16.0499L20.0779 15.594L20.0385 15.6117L20.0027 15.636L20.2832 16.0499ZM20.4538 15.9731L20.4655 15.4732L20.352 15.4705L20.2484 15.5172L20.4538 15.9731ZM20.6285 15.9772L21.1251 16.0354L21.189 15.4902L20.6402 15.4773L20.6285 15.9772ZM20.6134 16.1061L21.0374 16.3712L21.0969 16.2759L21.11 16.1643L20.6134 16.1061ZM20.5336 16.2337L20.1097 15.9686L20.0594 16.049L20.0421 16.1423L20.5336 16.2337ZM20.4717 16.567L19.9801 16.4756L19.9506 16.634L20.0192 16.7798L20.4717 16.567ZM20.6175 16.877L20.5812 17.3757L21.4339 17.4378L21.0699 16.6641L20.6175 16.877ZM20.2035 16.8468L20.2398 16.3481L20.2058 16.3457L20.1717 16.3478L20.2035 16.8468ZM19.7935 16.8729L19.7617 16.3739L19.6918 16.3783L19.6258 16.4018L19.7935 16.8729ZM19.3079 17.0457L19.3873 17.5393L19.4325 17.5321L19.4755 17.5167L19.3079 17.0457ZM18.8305 17.1225L18.8343 17.6225L18.8724 17.6222L18.9099 17.6162L18.8305 17.1225ZM18.6516 17.1239L18.4916 17.5976L18.5713 17.6245L18.6555 17.6239L18.6516 17.1239ZM18.4811 17.0663L18.1687 17.4567L18.2375 17.5118L18.3211 17.54L18.4811 17.0663ZM18.3697 16.9771L17.9089 17.1714L17.9582 17.2883L18.0573 17.3675L18.3697 16.9771ZM18.2829 16.7714L18.7437 16.5771L18.6568 16.371L18.4451 16.2984L18.2829 16.7714ZM18.1949 16.7412L18.3572 16.2682L18.2721 16.2391L18.1823 16.2414L18.1949 16.7412ZM17.8166 16.7508L17.8039 16.2509L17.6512 16.2548L17.5267 16.3434L17.8166 16.7508ZM17.2498 17.1541L16.9599 16.7467L16.866 16.8135L16.8108 16.9147L17.2498 17.1541ZM17.0614 17.4997L17.0961 17.9985L17.3693 17.9795L17.5004 17.739L17.0614 17.4997ZM16.844 17.5148L16.7111 17.9968L16.7934 18.0195L16.8787 18.0136L16.844 17.5148ZM16.5854 17.4435L16.7183 16.9615L16.4637 16.8912L16.2621 17.062L16.5854 17.4435ZM16.273 17.7082L16.3961 18.1928L16.5081 18.1644L16.5963 18.0896L16.273 17.7082ZM15.9002 17.8028L15.4924 18.0921L15.6908 18.3719L16.0233 18.2875L15.9002 17.8028ZM15.7407 17.5779L15.2735 17.7559L15.2961 17.8153L15.3329 17.8671L15.7407 17.5779ZM15.6362 17.3036L16.1034 17.1255L16.0837 17.0738L16.0531 17.0276L15.6362 17.3036ZM15.5027 17.1019L15.9196 16.8259L15.7925 16.634L15.5641 16.6057L15.5027 17.1019ZM15.0927 17.0512L14.6084 16.927L14.4672 17.4775L15.0313 17.5474L15.0927 17.0512ZM15.1561 16.8043L14.8147 16.4389L14.708 16.5386L14.6717 16.6801L15.1561 16.8043ZM15.2647 16.7028L15.606 17.0681L15.6474 17.0295L15.6791 16.9825L15.2647 16.7028ZM15.3638 16.556L15.7782 16.8358L15.8129 16.7844L15.834 16.7261L15.3638 16.556ZM15.4243 16.3887L15.661 15.9482L15.151 15.6742L14.9541 16.2186L15.4243 16.3887ZM15.621 16.4943L15.3843 16.9348L15.4206 16.9542L15.4595 16.9675L15.621 16.4943ZM15.8219 16.5629L15.6604 17.0361L15.8709 17.1079L16.0651 16.9997L15.8219 16.5629ZM16.0461 16.438L16.0227 15.9386L15.9054 15.9441L15.8029 16.0012L16.0461 16.438ZM16.2799 16.4271L16.3034 16.9265L16.5614 16.9144L16.7008 16.697L16.2799 16.4271ZM16.5139 16.0622L16.2492 15.638L16.1537 15.6976L16.0929 15.7924L16.5139 16.0622ZM16.8811 15.8331L16.7124 15.3625L16.6619 15.3806L16.6165 15.4089L16.8811 15.8331ZM17.386 15.6521L17.2645 15.1671L17.2405 15.1731L17.2172 15.1814L17.386 15.6521ZM17.9006 15.5232L17.8517 15.0256L17.8149 15.0292L17.779 15.0382L17.9006 15.5232ZM18.1661 15.4971L18.2149 15.9947L18.2611 15.9901L18.3057 15.9772L18.1661 15.4971ZM18.4206 15.423L18.5602 15.9031L18.6504 15.8769L18.7248 15.8198L18.4206 15.423ZM18.8677 15.0801L18.6124 14.6502L18.5869 14.6653L18.5634 14.6834L18.8677 15.0801ZM19.1634 14.9045L19.0075 14.4294L18.9553 14.4465L18.9081 14.4746L19.1634 14.9045ZM19.4853 14.7989L19.3872 14.3086L19.3579 14.3145L19.3295 14.3238L19.4853 14.7989ZM19.7935 14.7372L19.888 14.2462L19.7916 14.2277L19.6953 14.2469L19.7935 14.7372ZM20.0783 14.792L19.9838 15.283L20.0617 15.298L20.1405 15.2881L20.0783 14.792ZM20.308 14.7632L20.3702 15.2594L20.4376 15.2509L20.5003 15.2248L20.308 14.7632ZM20.894 14.5191H21.394V13.7692L20.7017 14.0576L20.894 14.5191ZM20.8472 16.0622L20.3511 16.1241L20.4121 16.6135L20.9023 16.5592L20.8472 16.0622ZM20.8377 15.9854L20.3807 15.7824L20.3243 15.9094L20.3415 16.0472L20.8377 15.9854ZM21.4347 16.6493L21.8848 16.4316L21.6835 16.0154L21.2528 16.1835L21.4347 16.6493ZM21.3081 16.6987L21.1263 16.2329L21.0514 16.2621L20.9895 16.3133L21.3081 16.6987ZM20.8968 17.0388L20.5781 16.6535L20.5306 16.6928L20.4941 16.7425L20.8968 17.0388ZM20.6313 17.3996L20.2286 17.1032L20.1876 17.1589L20.1633 17.2236L20.6313 17.3996ZM20.4992 17.7507L20.0312 17.5747L19.9335 17.8346L20.1024 18.0549L20.4992 17.7507ZM20.6106 17.8961L20.2138 18.2003L20.4695 18.5339L20.8421 18.3393L20.6106 17.8961ZM20.8968 17.7466L21.1283 18.1898L21.2475 18.1275L21.3194 18.0139L20.8968 17.7466ZM20.9931 17.5943L20.7013 17.1883L20.6224 17.245L20.5705 17.3271L20.9931 17.5943ZM21.4072 17.2967L21.699 17.7027L21.7962 17.6329L21.8513 17.5265L21.4072 17.2967ZM21.5833 16.9565L22.0273 17.1864L22.1424 16.9641L22.0334 16.7388L21.5833 16.9565ZM10.2186 18.4846L10.3783 18.9584L10.4963 18.9186L10.5819 18.8282L10.2186 18.4846ZM10.0192 18.5518L9.54477 18.394L9.22798 19.3462L10.1789 19.0256L10.0192 18.5518ZM10.1251 18.2335L9.79088 17.8616L9.69243 17.9501L9.65065 18.0757L10.1251 18.2335ZM10.2365 18.1334L10.0984 17.6529L9.98787 17.6846L9.9023 17.7615L10.2365 18.1334ZM10.308 18.1129L10.2137 17.6218L10.1916 17.6261L10.17 17.6323L10.308 18.1129ZM10.4222 18.0909L10.9129 18.1869L11.0551 17.4602L10.3279 17.5999L10.4222 18.0909ZM10.3782 18.3158L10.7415 18.6594L10.8411 18.5541L10.8689 18.4118L10.3782 18.3158ZM18.6668 19.3651L18.9881 19.7483L19.0856 19.6665L19.1322 19.5481L18.6668 19.3651ZM18.5375 19.4736L18.0405 19.5281L18.1425 20.4572L18.8588 19.8567L18.5375 19.4736ZM18.477 18.9221L18.4923 18.4224L17.9172 18.4047L17.98 18.9767L18.477 18.9221ZM18.6104 18.9262L18.867 18.4971L18.7556 18.4305L18.6258 18.4265L18.6104 18.9262ZM18.7067 18.9838L19.1721 18.801L19.1097 18.6423L18.9633 18.5547L18.7067 18.9838ZM18.7617 19.1238L19.227 19.3067L19.2989 19.1238L19.2271 18.9409L18.7617 19.1238ZM14.2577 19.3857H14.7577V19.2179L14.6564 19.0841L14.2577 19.3857ZM14.2577 19.5627H13.7577V19.8272L13.9763 19.976L14.2577 19.5627ZM14.3705 19.6395L14.0891 20.0528L14.1921 20.1229L14.3159 20.1365L14.3705 19.6395ZM14.4833 19.6519L14.8706 19.3356L14.7412 19.1772L14.5379 19.1549L14.4833 19.6519ZM14.7612 19.992L14.3739 20.3083L14.4205 20.3654L14.4816 20.4066L14.7612 19.992ZM15.1945 20.2842L15.5175 19.9025L15.4967 19.8849L15.474 19.8696L15.1945 20.2842ZM15.4587 20.5078L15.9571 20.4683L15.9406 20.2606L15.7816 20.1261L15.4587 20.5078ZM15.4738 20.6985L15.9376 20.8851L15.9815 20.7761L15.9722 20.659L15.4738 20.6985ZM15.3927 20.9001L14.9288 20.7134L14.8623 20.8787L14.9153 21.0487L15.3927 20.9001ZM15.5054 21.2622L16.0004 21.1913L15.9947 21.1517L15.9828 21.1136L15.5054 21.2622ZM15.5591 21.6366L15.0641 21.7076L15.0702 21.7499L15.0834 21.7905L15.5591 21.6366ZM15.7517 22.232L15.9454 22.6929L16.3688 22.5151L16.2274 22.078L15.7517 22.232ZM15.4807 22.3458L15.4967 22.8456L15.5891 22.8426L15.6743 22.8068L15.4807 22.3458ZM15.0529 22.3596L15.0368 21.8598L14.828 21.8665L14.686 22.0198L15.0529 22.3596ZM14.9538 22.4665L14.7646 22.9294L15.0853 23.0604L15.3206 22.8063L14.9538 22.4665ZM14.8094 22.4075L14.9985 21.9447L14.8767 21.8949L14.7461 21.9115L14.8094 22.4075ZM14.4544 22.4528L14.3911 21.9568L14.291 21.9696L14.2037 22.0202L14.4544 22.4528ZM14.116 22.649L13.8653 22.2164L13.8294 22.2372L13.7974 22.2636L14.116 22.649ZM13.7941 22.915V23.415H13.974L14.1127 23.3004L13.7941 22.915ZM13.4212 22.915V22.415H13.3887L13.3563 22.4193L13.4212 22.915ZM13.0017 22.97L12.9575 23.468L13.0121 23.4728L13.0666 23.4657L13.0017 22.97ZM12.5835 22.9329L12.3655 23.3828L12.448 23.4228L12.5393 23.4309L12.5835 22.9329ZM12.289 22.7902L12.507 22.3402L12.4708 22.3227L12.4322 22.3111L12.289 22.7902ZM11.7705 22.6352L11.9136 22.1562L11.8891 22.1488L11.8639 22.1441L11.7705 22.6352ZM11.0784 22.5035L10.8974 22.9696L10.94 22.9862L10.985 22.9947L11.0784 22.5035ZM10.7924 22.3925L10.4997 22.7979L10.5516 22.8354L10.6114 22.8585L10.7924 22.3925ZM10.553 22.2197L10.1074 22.4465L10.1623 22.5543L10.2603 22.6251L10.553 22.2197ZM10.3301 21.7821L9.83585 21.8575L9.84801 21.9371L9.88457 22.0089L10.3301 21.7821ZM10.297 21.5653L9.80381 21.4833L9.79074 21.5619L9.80277 21.6407L10.297 21.5653ZM10.3315 21.3582L10.1681 20.8856L9.887 20.9828L9.83824 21.2762L10.3315 21.3582ZM10.5337 21.2883L10.697 21.7608L10.749 21.7429L10.7958 21.714L10.5337 21.2883ZM10.7029 21.184L10.9651 21.6098L11.1579 21.4911L11.1959 21.2679L10.7029 21.184ZM10.7263 21.0468L10.3335 20.7374L10.2547 20.8374L10.2334 20.963L10.7263 21.0468ZM10.8019 20.9508L10.6344 20.4797L10.4985 20.528L10.4092 20.6414L10.8019 20.9508ZM10.8982 20.9166L11.0657 21.3877L11.2109 21.3361L11.3018 21.2118L10.8982 20.9166ZM10.9464 20.8507L11.35 21.1459L11.4985 20.9429L11.424 20.7027L10.9464 20.8507ZM10.8776 20.6285L10.3798 20.6759L10.3847 20.7272L10.4 20.7765L10.8776 20.6285ZM10.8584 20.4269L10.5194 20.0593L10.3371 20.2274L10.3606 20.4744L10.8584 20.4269ZM11.26 20.0565L10.967 19.6514L10.9429 19.6688L10.9211 19.6889L11.26 20.0565ZM11.6962 19.741L11.5201 19.2731L11.4574 19.2967L11.4031 19.3359L11.6962 19.741ZM12.4693 19.4502L12.4984 18.951L12.3925 18.9449L12.2933 18.9822L12.4693 19.4502ZM12.9411 19.4777L12.9121 19.9768L13.0023 19.9821L13.0887 19.9554L12.9411 19.4777ZM13.6647 19.254L13.8124 19.7318L13.8426 19.7224L13.8715 19.7093L13.6647 19.254ZM13.8972 19.1485L14.0323 18.6671L13.8567 18.6178L13.6905 18.6932L13.8972 19.1485ZM14.127 19.2129L14.5257 18.9113L14.4241 18.777L14.2621 18.7315L14.127 19.2129ZM16.3708 20.8178L16.5391 21.2886L16.7279 21.2211L16.8177 21.0419L16.3708 20.8178ZM16.1713 20.8891L15.715 21.0936L15.9042 21.5156L16.3396 21.3599L16.1713 20.8891ZM16.0612 20.6435L15.635 20.3822L15.497 20.6072L15.6049 20.8481L16.0612 20.6435ZM16.2126 20.3967L16.1488 19.9007L15.9114 19.9313L15.7863 20.1353L16.2126 20.3967ZM16.3831 20.3747L16.8573 20.2161L16.7269 19.8264L16.3193 19.8788L16.3831 20.3747ZM16.4671 20.6257L16.914 20.8498L17.0072 20.6641L16.9413 20.4671L16.4671 20.6257ZM18.3848 22.3198L18.7302 22.6812L18.8171 22.5983L18.8567 22.4849L18.3848 22.3198ZM18.3504 22.3527L18.004 22.7133L18.3495 23.0451L18.6958 22.7141L18.3504 22.3527ZM18.0161 22.0317L17.5179 21.9888L17.4974 22.2268L17.6698 22.3924L18.0161 22.0317ZM18.0271 21.9041L17.5835 21.6735L17.5375 21.7619L17.5289 21.8612L18.0271 21.9041ZM18.0863 21.7903L17.7754 21.3987L17.6919 21.465L17.6427 21.5596L18.0863 21.7903ZM18.2211 21.6833L18.6377 21.4069L18.3367 20.9531L17.9102 21.2917L18.2211 21.6833ZM18.3421 21.8658L18.8195 21.7169L18.7982 21.6488L18.7588 21.5894L18.3421 21.8658ZM18.4371 22.1703L18.909 22.3354L18.9637 22.1793L18.9144 22.0214L18.4371 22.1703ZM15.0597 25.8381L15.5597 25.8422L15.5627 25.4837L15.2241 25.3659L15.0597 25.8381ZM15.0583 26.0122L15.1714 26.4993L15.5551 26.4102L15.5583 26.0163L15.0583 26.0122ZM14.5617 26.1275L14.2364 26.5072L14.4285 26.6718L14.6748 26.6146L14.5617 26.1275ZM14.3952 25.9849L14.7206 25.6052L14.6297 25.5273L14.5135 25.4991L14.3952 25.9849ZM14.2879 25.9587L14.4062 25.4729L14.1561 25.4121L13.9613 25.5802L14.2879 25.9587ZM13.9922 26.2139L13.6656 25.8354L13.6342 25.8624L13.6077 25.8943L13.9922 26.2139ZM13.9056 26.3182L13.5211 25.9985L13.4662 26.0645L13.4365 26.1449L13.9056 26.3182ZM13.8767 26.3964L14.1059 26.8407L14.2784 26.7517L14.3457 26.5696L13.8767 26.3964ZM13.7996 26.4361L13.9089 26.924L13.9717 26.91L14.0288 26.8805L13.7996 26.4361ZM13.2548 26.5582L13.0277 27.0036L13.1883 27.0855L13.3641 27.0461L13.2548 26.5582ZM13.0154 26.4361L12.7878 25.9909L11.9159 26.4367L12.7883 26.8816L13.0154 26.4361ZM13.1764 26.3538L13.404 26.799L13.4534 26.7737L13.4961 26.7382L13.1764 26.3538ZM13.3759 26.1879L13.4367 25.6916L13.2223 25.6653L13.0562 25.8035L13.3759 26.1879ZM13.5767 26.2125L13.5159 26.7088L13.7197 26.7338L13.8822 26.6084L13.5767 26.2125ZM13.7776 26.0575L14.083 26.4534L14.1244 26.4215L14.1583 26.3817L13.7776 26.0575ZM13.9784 25.8216L13.8907 25.3294L13.714 25.3608L13.5977 25.4975L13.9784 25.8216ZM14.2632 25.7709L14.3509 26.2631L14.412 26.2522L14.4687 26.2267L14.2632 25.7709ZM14.4641 25.6803L14.5616 25.1899L14.4045 25.1587L14.2586 25.2245L14.4641 25.6803ZM14.7956 25.7462L14.9599 25.274L14.9271 25.2625L14.8931 25.2558L14.7956 25.7462ZM0.162306 36.943L0.583876 37.2119L0.674913 37.0691L0.660487 36.9004L0.162306 36.943ZM0.133421 36.9883L0.066408 37.4838L0.383138 37.5267L0.554992 37.2572L0.133421 36.9883ZM0.021999 36.9733L-0.46427 37.0896L-0.38453 37.4228L-0.0450145 37.4688L0.021999 36.9733ZM0 36.8813L-0.313634 36.4919L-0.55985 36.6902L-0.486269 36.9977L0 36.8813ZM0.0646536 36.8293L0.240993 36.3614L-0.0264188 36.2606L-0.248981 36.4399L0.0646536 36.8293ZM0.155504 36.8635L0.653686 36.8209L0.626827 36.5068L0.331844 36.3956L0.155504 36.8635ZM9.78393 0.111138L9.65683 -0.372439L9.50553 -0.332672L9.63262 0.150905L9.75972 0.634482L9.91103 0.594715L9.78393 0.111138ZM9.63262 0.150905L9.69966 -0.344581L9.45616 -0.377525L9.38912 0.117961L9.32209 0.613447L9.56559 0.646391L9.63262 0.150905ZM9.38912 0.117961L9.78236 -0.190852L9.73282 -0.253935L9.33958 0.0548783L8.94635 0.363691L8.99589 0.426774L9.38912 0.117961ZM9.33958 0.0548783L9.42727 0.54713L9.50435 0.5334L9.41666 0.0411483L9.32898 -0.451103L9.2519 -0.437373L9.33958 0.0548783ZM9.41666 0.0411483L9.54154 0.525303L9.70107 0.484155L9.5762 0L9.45132 -0.484155L9.29179 -0.443007L9.41666 0.0411483ZM9.5762 0L9.52379 0.497245L9.71917 0.51784L9.77159 0.0205951L9.824 -0.47665L9.62861 -0.497245L9.5762 0ZM9.77159 0.0205951L9.38771 0.340972L9.42206 0.38212L9.80593 0.0617434L10.1898 -0.258633L10.1555 -0.299782L9.77159 0.0205951ZM9.80593 0.0617434L9.34918 -0.14168L9.32718 -0.0922848L9.78393 0.111138L10.2407 0.314561L10.2627 0.265166L9.80593 0.0617434ZM21.066 14.4999L20.8593 14.0446L20.6901 14.1214L20.8968 14.5767L21.1035 15.032L21.2727 14.9552L21.066 14.4999ZM20.8968 14.5767H21.3968V14.5273H20.8968H20.3968V14.5767H20.8968ZM20.8968 14.5273H21.3968V14.515H20.8968H20.3968V14.5273H20.8968ZM20.8968 14.515L21.2322 14.8858L21.3505 14.7788L21.0151 14.408L20.6797 14.0371L20.5614 14.1441L20.8968 14.515ZM21.0151 14.408V14.908H21.1101V14.408V13.908H21.0151V14.408ZM21.1101 14.408L20.6592 14.1918L20.6151 14.2837L21.066 14.4999L21.5168 14.7161L21.5609 14.6242L21.1101 14.408ZM21.1692 15.9086L20.9303 15.4694L20.6579 15.6175L20.8968 16.0567L21.1357 16.496L21.4081 16.3478L21.1692 15.9086ZM20.8968 15.8523L21.2251 16.2294L21.4425 16.0401L21.1142 15.6631L20.7858 15.286L20.5684 15.4753L20.8968 15.8523ZM21.1142 15.6631L21.2313 16.1491L21.3963 16.1094L21.2792 15.6233L21.1621 15.1372L20.9971 15.177L21.1142 15.6631ZM21.2792 15.6233L20.8382 15.3877L20.7364 15.5784L21.1774 15.814L21.6184 16.0495L21.7203 15.8589L21.2792 15.6233ZM21.1774 15.814L20.6793 15.7707L20.671 15.8653L21.1692 15.9086L21.6673 15.9519L21.6755 15.8573L21.1774 15.814ZM24.9262 18.988L24.5189 18.698L24.4212 18.8352L24.8286 19.1252L25.2359 19.4151L25.3335 19.278L24.9262 18.988ZM24.8286 19.1252L25.0791 18.6925L24.9938 18.6431L24.7432 19.0758L24.4927 19.5085L24.578 19.5579L24.8286 19.1252ZM24.7432 19.0758L25.1955 19.289L25.3042 19.0586L24.8519 18.8453L24.3997 18.6321L24.291 18.8625L24.7432 19.0758ZM24.8519 18.8453L25.345 18.9279L25.3616 18.8292L24.8684 18.7466L24.3753 18.664L24.3588 18.7627L24.8519 18.8453ZM24.8684 18.7466L25.1604 18.3407L24.9925 18.2199L24.7006 18.6259L24.4086 19.0318L24.5765 19.1525L24.8684 18.7466ZM24.7006 18.6259L25.1965 18.5617L25.1855 18.4767L24.6896 18.5408L24.1937 18.6049L24.2047 18.69L24.7006 18.6259ZM24.6896 18.5408L25.052 18.8853L25.1015 18.8332L24.7391 18.4887L24.3767 18.1442L24.3272 18.1963L24.6896 18.5408ZM24.7391 18.4887L24.4591 18.9029L24.6599 19.0387L24.94 18.6245L25.22 18.2103L25.0192 18.0745L24.7391 18.4887ZM24.94 18.6245L24.6134 19.0031L24.7358 19.1087L25.0624 18.7301L25.389 18.3515L25.2666 18.2459L24.94 18.6245ZM25.0624 18.7301L24.603 18.9275L24.6278 18.9851L25.0872 18.7877L25.5466 18.5903L25.5218 18.5327L25.0624 18.7301ZM25.0872 18.7877L24.617 18.6177L24.5798 18.7205L25.05 18.8906L25.5202 19.0606L25.5574 18.9578L25.0872 18.7877ZM25.05 18.8906L24.7407 18.4977L24.617 18.5951L24.9262 18.988L25.2354 19.3809L25.3592 19.2835L25.05 18.8906ZM27.6487 21.7176L27.5515 21.2271L27.3369 21.2697L27.4341 21.7601L27.5313 22.2506L27.7459 22.208L27.6487 21.7176ZM27.4341 21.7601L27.7639 21.3843L27.5685 21.2128L27.2387 21.5887L26.9089 21.9645L27.1043 22.1359L27.4341 21.7601ZM27.2387 21.5887L27.6514 21.8709L27.7753 21.6898L27.3626 21.4076L26.9499 21.1253L26.826 21.3064L27.2387 21.5887ZM27.3626 21.4076L27.2434 21.8932L27.4167 21.9357L27.5359 21.4501L27.655 20.9645L27.4817 20.922L27.3626 21.4076ZM27.5359 21.4501L27.1004 21.6958L27.1995 21.8714L27.6349 21.6257L28.0704 21.3799L27.9713 21.2044L27.5359 21.4501ZM27.6349 21.6257L27.1405 21.6997L27.1542 21.7917L27.6487 21.7176L28.1432 21.6435L28.1294 21.5516L27.6349 21.6257ZM24.8038 21.8136L24.5745 21.3693L24.4575 21.4297L24.6868 21.874L24.9161 22.3183L25.0331 22.2579L24.8038 21.8136ZM24.6868 21.874L24.7702 21.381L24.689 21.3672L24.6056 21.8602L24.5223 22.3532L24.6035 22.367L24.6868 21.874ZM24.6056 21.8602L24.8866 21.4467L24.7917 21.3822L24.5107 21.7958L24.2298 22.2094L24.3246 22.2738L24.6056 21.8602ZM24.5107 21.7958L24.9566 21.5695L24.8989 21.4557L24.453 21.6819L24.0071 21.9082L24.0649 22.022L24.5107 21.7958ZM24.453 21.6819L24.7637 22.0737L24.8848 21.9776L24.5741 21.5859L24.2634 21.1941L24.1423 21.2902L24.453 21.6819ZM24.5741 21.5859L24.3233 22.0185L24.5104 22.1269L24.7611 21.6943L25.0118 21.2617L24.8248 21.1533L24.5741 21.5859ZM24.7611 21.6943L24.2903 21.8626L24.333 21.9819L24.8038 21.8136L25.2746 21.6453L25.2319 21.526L24.7611 21.6943ZM25.6773 22.8492L25.2508 22.5882L25.2055 22.6623L25.6319 22.9233L26.0584 23.1843L26.1038 23.1102L25.6773 22.8492ZM25.6319 22.9233L25.8844 22.4917L25.678 22.371L25.4256 22.8026L25.1731 23.2342L25.3795 23.3549L25.6319 22.9233ZM25.4256 22.8026L25.7846 22.4546L25.7048 22.3723L25.3458 22.7203L24.9868 23.0683L25.0665 23.1506L25.4256 22.8026ZM25.3458 22.7203L25.4836 23.2009L25.7037 23.1378L25.5659 22.6572L25.428 22.1766L25.2079 22.2397L25.3458 22.7203ZM25.5659 22.6572L25.4716 23.1482L25.5789 23.1688L25.6732 22.6778L25.7674 22.1867L25.6601 22.1661L25.5659 22.6572ZM25.6732 22.6778L25.1733 22.6898L25.1774 22.8612L25.6773 22.8492L26.1771 22.8372L26.173 22.6658L25.6732 22.6778ZM21.6699 25.7009L21.1716 25.7412L21.1812 25.8606L21.6796 25.8203L22.178 25.78L22.1683 25.6606L21.6699 25.7009ZM21.6796 25.8203L21.7385 25.3238L21.6807 25.3169L21.6217 25.8134L21.5628 26.3099L21.6207 26.3168L21.6796 25.8203ZM21.6217 25.8134L21.9189 25.4113L21.8501 25.3605L21.553 25.7626L21.2558 26.1647L21.3246 26.2155L21.6217 25.8134ZM21.553 25.7626L21.261 25.3567L21.2267 25.3814L21.5186 25.7873L21.8106 26.1932L21.8449 26.1685L21.553 25.7626ZM21.5186 25.7873L21.1028 25.5096L21.0781 25.5467L21.4939 25.8244L21.9097 26.1021L21.9344 26.065L21.5186 25.7873ZM21.4939 25.8244L20.9993 25.7509L20.9869 25.8345L21.4814 25.908L21.976 25.9815L21.9884 25.8979L21.4939 25.8244ZM21.4814 25.908L20.9916 25.8075L20.9821 25.8541L21.4719 25.9546L21.9617 26.0552L21.9712 26.0086L21.4814 25.908ZM21.4719 25.9546L21.6181 25.4765L21.5644 25.4601L21.4182 25.9382L21.272 26.4164L21.3256 26.4328L21.4719 25.9546ZM21.4182 25.9382L21.9148 25.88L21.9051 25.7977L21.4086 25.8559L20.912 25.9142L20.9216 25.9965L21.4182 25.9382ZM21.4086 25.8559L21.8861 26.004L21.904 25.9463L21.4264 25.7983L20.9489 25.6502L20.931 25.7079L21.4086 25.8559ZM21.4264 25.7983L21.9044 25.9451L21.9305 25.8602L21.4526 25.7133L20.9746 25.5664L20.9485 25.6514L21.4264 25.7983ZM21.4526 25.7133L21.7644 26.1041L21.8607 26.0272L21.5489 25.6364L21.237 25.2456L21.1407 25.3225L21.4526 25.7133ZM21.5489 25.6364L21.3139 26.0778L21.435 26.1422L21.6699 25.7009L21.9049 25.2595L21.7838 25.1951L21.5489 25.6364ZM26.5536 26.6144L26.226 26.2368L26.1833 26.2738L26.511 26.6514L26.8386 27.0291L26.8813 26.9921L26.5536 26.6144ZM26.511 26.6514L26.6919 26.1853L26.5861 26.1442L26.4051 26.6103L26.2241 27.0764L26.33 27.1176L26.511 26.6514ZM26.4051 26.6103L26.6772 26.1909L26.5905 26.1346L26.3184 26.5541L26.0463 26.9736L26.133 27.0298L26.4051 26.6103ZM26.3184 26.5541L26.8095 26.4603L26.7985 26.4027L26.3074 26.4965L25.8162 26.5903L25.8272 26.6479L26.3184 26.5541ZM26.3074 26.4965L26.7576 26.7139L26.7934 26.6398L26.3431 26.4224L25.8929 26.205L25.8571 26.2791L26.3074 26.4965ZM26.3431 26.4224L26.5512 26.877L26.6352 26.8386L26.4271 26.384L26.219 25.9293L26.1351 25.9677L26.3431 26.4224ZM26.4271 26.384L26.2597 26.8551L26.3024 26.8703L26.4698 26.3991L26.6371 25.928L26.5945 25.9128L26.4271 26.384ZM26.4698 26.3991L26.1167 26.045L26.0919 26.0697L26.445 26.4238L26.798 26.7779L26.8228 26.7532L26.4698 26.3991ZM26.445 26.4238L26.2172 25.9787L26.1663 26.0047L26.3941 26.4498L26.6219 26.895L26.6727 26.8689L26.445 26.4238ZM26.3941 26.4498L25.8973 26.5061L25.9055 26.5788L26.4023 26.5225L26.8992 26.4663L26.8909 26.3936L26.3941 26.4498ZM26.4023 26.5225L26.1255 26.9389L26.1915 26.9828L26.4683 26.5664L26.7451 26.15L26.6791 26.1061L26.4023 26.5225ZM26.4683 26.5664L26.3723 27.0571L26.4356 27.0695L26.5316 26.5788L26.6277 26.0881L26.5644 26.0757L26.4683 26.5664ZM26.5316 26.5788L26.1061 26.8413L26.1281 26.8769L26.5536 26.6144L26.9792 26.3519L26.9572 26.3163L26.5316 26.5788ZM25.8713 32.7279L25.4714 33.028L25.4796 33.039L25.8796 32.7389L26.2795 32.4388L26.2713 32.4278L25.8713 32.7279ZM25.8796 32.7389L25.9099 32.2398L25.8879 32.2385L25.8576 32.7375L25.8272 33.2366L25.8492 33.238L25.8796 32.7389ZM25.8576 32.7375L26.0639 32.2821L26.0336 32.2684L25.8272 32.7238L25.6209 33.1793L25.6513 33.193L25.8576 32.7375ZM25.8272 32.7238L26.198 32.3883L26.1732 32.361L25.8025 32.6964L25.4317 33.0319L25.4565 33.0593L25.8272 32.7238ZM25.8025 32.6964L26.2945 32.6076L26.2891 32.5774L25.797 32.6662L25.305 32.7551L25.3104 32.7853L25.8025 32.6964ZM25.797 32.6662L26.2597 32.8557L26.2721 32.8256L25.8094 32.6361L25.3467 32.4466L25.3343 32.4767L25.797 32.6662ZM25.8094 32.6361L25.7558 33.1332L25.7682 33.1345L25.8218 32.6374L25.8754 32.1403L25.8629 32.139L25.8094 32.6361ZM25.8218 32.6374L25.4222 32.938L25.4429 32.9654L25.8424 32.6649L26.242 32.3643L26.2214 32.3368L25.8218 32.6374ZM25.8424 32.6649L25.4209 32.9338L25.4401 32.9639L25.8617 32.695L26.2832 32.4261L26.264 32.396L25.8424 32.6649ZM25.8617 32.695L25.3819 32.8358L25.3916 32.8687L25.8713 32.7279L26.3511 32.5871L26.3414 32.5542L25.8617 32.695ZM20.894 14.5767L20.5575 14.2069L19.9742 14.7378L20.3108 15.1075L20.6473 15.4773L21.2306 14.9465L20.894 14.5767ZM20.3108 15.1075L19.9132 14.8044L19.704 15.0787L20.1016 15.3819L20.4993 15.685L20.7084 15.4107L20.3108 15.1075ZM20.1016 15.3819L19.6701 15.1293L19.4927 15.4324L19.9242 15.685L20.3557 15.9376L20.5331 15.6345L20.1016 15.3819ZM19.9242 15.685L19.6504 15.2666L19.1537 15.5917L19.4276 16.0101L19.7014 16.4284L20.198 16.1033L19.9242 15.685ZM19.4276 16.0101L18.9778 15.7916L18.7659 16.2279L19.2157 16.4463L19.6655 16.6647L19.8773 16.2285L19.4276 16.0101ZM19.2157 16.4463L18.716 16.4634L18.7311 16.9037L19.2308 16.8866L19.7305 16.8694L19.7154 16.4291L19.2157 16.4463ZM19.2308 16.8866L19.5704 17.2535L20.0684 16.7927L19.7288 16.4257L19.3892 16.0587L18.8912 16.5196L19.2308 16.8866ZM19.7288 16.4257L20.0094 16.8396L20.5638 16.4638L20.2832 16.0499L20.0027 15.636L19.4483 16.0118L19.7288 16.4257ZM20.2832 16.0499L20.4886 16.5058L20.6591 16.429L20.4538 15.9731L20.2484 15.5172L20.0779 15.594L20.2832 16.0499ZM20.4538 15.9731L20.442 16.4729L20.6168 16.477L20.6285 15.9772L20.6402 15.4773L20.4655 15.4732L20.4538 15.9731ZM20.6285 15.9772L20.1319 15.919L20.1168 16.0479L20.6134 16.1061L21.11 16.1643L21.1251 16.0354L20.6285 15.9772ZM20.6134 16.1061L20.1894 15.841L20.1097 15.9686L20.5336 16.2337L20.9576 16.4987L21.0374 16.3712L20.6134 16.1061ZM20.5336 16.2337L20.0421 16.1423L19.9801 16.4756L20.4717 16.567L20.9632 16.6584L21.0252 16.3251L20.5336 16.2337ZM20.4717 16.567L20.0192 16.7798L20.1651 17.0898L20.6175 16.877L21.0699 16.6641L20.9241 16.3541L20.4717 16.567ZM20.6175 16.877L20.6539 16.3783L20.2398 16.3481L20.2035 16.8468L20.1671 17.3455L20.5812 17.3757L20.6175 16.877ZM20.2035 16.8468L20.1717 16.3478L19.7617 16.3739L19.7935 16.8729L19.8252 17.3719L20.2352 17.3458L20.2035 16.8468ZM19.7935 16.8729L19.6258 16.4018L19.1403 16.5746L19.3079 17.0457L19.4755 17.5167L19.9611 17.344L19.7935 16.8729ZM19.3079 17.0457L19.2285 16.552L18.751 16.6288L18.8305 17.1225L18.9099 17.6162L19.3873 17.5393L19.3079 17.0457ZM18.8305 17.1225L18.8266 16.6225L18.6478 16.6239L18.6516 17.1239L18.6555 17.6239L18.8343 17.6225L18.8305 17.1225ZM18.6516 17.1239L18.8116 16.6502L18.6411 16.5926L18.4811 17.0663L18.3211 17.54L18.4916 17.5976L18.6516 17.1239ZM18.4811 17.0663L18.7935 16.6759L18.6821 16.5867L18.3697 16.9771L18.0573 17.3675L18.1687 17.4567L18.4811 17.0663ZM18.3697 16.9771L18.8304 16.7829L18.7437 16.5771L18.2829 16.7714L17.8222 16.9656L17.9089 17.1714L18.3697 16.9771ZM18.2829 16.7714L18.4451 16.2984L18.3572 16.2682L18.1949 16.7412L18.0327 17.2142L18.1207 17.2443L18.2829 16.7714ZM18.1949 16.7412L18.1823 16.2414L17.8039 16.2509L17.8166 16.7508L17.8293 17.2506L18.2076 17.241L18.1949 16.7412ZM17.8166 16.7508L17.5267 16.3434L16.9599 16.7467L17.2498 17.1541L17.5397 17.5615L18.1065 17.1582L17.8166 16.7508ZM17.2498 17.1541L16.8108 16.9147L16.6224 17.2604L17.0614 17.4997L17.5004 17.739L17.6888 17.3934L17.2498 17.1541ZM17.0614 17.4997L17.0267 17.0009L16.8093 17.016L16.844 17.5148L16.8787 18.0136L17.0961 17.9985L17.0614 17.4997ZM16.844 17.5148L16.977 17.0328L16.7183 16.9615L16.5854 17.4435L16.4525 17.9255L16.7111 17.9968L16.844 17.5148ZM16.5854 17.4435L16.2621 17.062L15.9498 17.3268L16.273 17.7082L16.5963 18.0896L16.9087 17.8249L16.5854 17.4435ZM16.273 17.7082L16.15 17.2236L15.7772 17.3182L15.9002 17.8028L16.0233 18.2875L16.3961 18.1928L16.273 17.7082ZM15.9002 17.8028L16.3081 17.5136L16.1486 17.2887L15.7407 17.5779L15.3329 17.8671L15.4924 18.0921L15.9002 17.8028ZM15.7407 17.5779L16.2079 17.3998L16.1034 17.1255L15.6362 17.3036L15.1689 17.4816L15.2735 17.7559L15.7407 17.5779ZM15.6362 17.3036L16.0531 17.0276L15.9196 16.8259L15.5027 17.1019L15.0858 17.378L15.2193 17.5796L15.6362 17.3036ZM15.5027 17.1019L15.5641 16.6057L15.1542 16.555L15.0927 17.0512L15.0313 17.5474L15.4412 17.5982L15.5027 17.1019ZM15.0927 17.0512L15.5771 17.1754L15.6404 16.9285L15.1561 16.8043L14.6717 16.6801L14.6084 16.927L15.0927 17.0512ZM15.1561 16.8043L15.4974 17.1696L15.606 17.0681L15.2647 16.7028L14.9234 16.3374L14.8147 16.4389L15.1561 16.8043ZM15.2647 16.7028L15.6791 16.9825L15.7782 16.8358L15.3638 16.556L14.9494 16.2762L14.8503 16.423L15.2647 16.7028ZM15.3638 16.556L15.834 16.7261L15.8945 16.5587L15.4243 16.3887L14.9541 16.2186L14.8936 16.3859L15.3638 16.556ZM15.4243 16.3887L15.1877 16.8291L15.3843 16.9348L15.621 16.4943L15.8576 16.0539L15.661 15.9482L15.4243 16.3887ZM15.621 16.4943L15.4595 16.9675L15.6604 17.0361L15.8219 16.5629L15.9834 16.0897L15.7824 16.0211L15.621 16.4943ZM15.8219 16.5629L16.0651 16.9997L16.2893 16.8749L16.0461 16.438L15.8029 16.0012L15.5787 16.126L15.8219 16.5629ZM16.0461 16.438L16.0695 16.9375L16.3034 16.9265L16.2799 16.4271L16.2565 15.9276L16.0227 15.9386L16.0461 16.438ZM16.2799 16.4271L16.7008 16.697L16.9348 16.3321L16.5139 16.0622L16.0929 15.7924L15.859 16.1572L16.2799 16.4271ZM16.5139 16.0622L16.7785 16.4865L17.1458 16.2574L16.8811 15.8331L16.6165 15.4089L16.2492 15.638L16.5139 16.0622ZM16.8811 15.8331L17.0499 16.3038L17.5548 16.1227L17.386 15.6521L17.2172 15.1814L16.7124 15.3625L16.8811 15.8331ZM17.386 15.6521L17.5075 16.1371L18.0221 16.0082L17.9006 15.5232L17.779 15.0382L17.2645 15.1671L17.386 15.6521ZM17.9006 15.5232L17.9494 16.0208L18.2149 15.9947L18.1661 15.4971L18.1172 14.9995L17.8517 15.0256L17.9006 15.5232ZM18.1661 15.4971L18.3057 15.9772L18.5602 15.9031L18.4206 15.423L18.2809 14.9429L18.0264 15.017L18.1661 15.4971ZM18.4206 15.423L18.7248 15.8198L19.172 15.4769L18.8677 15.0801L18.5634 14.6834L18.1163 15.0263L18.4206 15.423ZM18.8677 15.0801L19.123 15.51L19.4187 15.3344L19.1634 14.9045L18.9081 14.4746L18.6124 14.6502L18.8677 15.0801ZM19.1634 14.9045L19.3193 15.3796L19.6412 15.274L19.4853 14.7989L19.3295 14.3238L19.0075 14.4294L19.1634 14.9045ZM19.4853 14.7989L19.5835 15.2892L19.8916 15.2275L19.7935 14.7372L19.6953 14.2469L19.3872 14.3086L19.4853 14.7989ZM19.7935 14.7372L19.6989 15.2282L19.9838 15.283L20.0783 14.792L20.1728 14.3011L19.888 14.2462L19.7935 14.7372ZM20.0783 14.792L20.1405 15.2881L20.3702 15.2594L20.308 14.7632L20.2458 14.2671L20.0161 14.2959L20.0783 14.792ZM20.308 14.7632L20.5003 15.2248L21.0863 14.9807L20.894 14.5191L20.7017 14.0576L20.1157 14.3017L20.308 14.7632ZM20.894 14.5191H20.394V14.5767H20.894H21.394V14.5191H20.894ZM20.8968 16.0567L20.8418 15.5598L20.7922 15.5653L20.8472 16.0622L20.9023 16.5592L20.9518 16.5537L20.8968 16.0567ZM20.8472 16.0622L21.3434 16.0004L21.3338 15.9236L20.8377 15.9854L20.3415 16.0472L20.3511 16.1241L20.8472 16.0622ZM20.8377 15.9854L21.2946 16.1884L21.3537 16.0553L20.8968 15.8523L20.4398 15.6494L20.3807 15.7824L20.8377 15.9854ZM21.4347 16.6493L21.2528 16.1835L21.1263 16.2329L21.3081 16.6987L21.4899 17.1644L21.6165 17.115L21.4347 16.6493ZM21.3081 16.6987L20.9895 16.3133L20.5781 16.6535L20.8968 17.0388L21.2154 17.4241L21.6268 17.084L21.3081 16.6987ZM20.8968 17.0388L20.4941 16.7425L20.2286 17.1032L20.6313 17.3996L21.034 17.6959L21.2995 17.3352L20.8968 17.0388ZM20.6313 17.3996L20.1633 17.2236L20.0312 17.5747L20.4992 17.7507L20.9672 17.9268L21.0993 17.5756L20.6313 17.3996ZM20.4992 17.7507L20.1024 18.0549L20.2138 18.2003L20.6106 17.8961L21.0075 17.592L20.8961 17.4466L20.4992 17.7507ZM20.6106 17.8961L20.8421 18.3393L21.1283 18.1898L20.8968 17.7466L20.6653 17.3035L20.3791 17.4529L20.6106 17.8961ZM20.8968 17.7466L21.3194 18.0139L21.4157 17.8616L20.9931 17.5943L20.5705 17.3271L20.4742 17.4794L20.8968 17.7466ZM20.9931 17.5943L21.2849 18.0004L21.699 17.7027L21.4072 17.2967L21.1154 16.8907L20.7013 17.1883L20.9931 17.5943ZM21.4072 17.2967L21.8513 17.5265L22.0273 17.1864L21.5833 16.9565L21.1392 16.7267L20.9632 17.0669L21.4072 17.2967ZM21.5833 16.9565L22.0334 16.7388L21.8848 16.4316L21.4347 16.6493L20.9846 16.867L21.1332 17.1742L21.5833 16.9565ZM10.2186 18.4846L10.0589 18.0108L9.85948 18.078L10.0192 18.5518L10.1789 19.0256L10.3783 18.9584L10.2186 18.4846ZM10.0192 18.5518L10.4936 18.7096L10.5995 18.3914L10.1251 18.2335L9.65065 18.0757L9.54477 18.394L10.0192 18.5518ZM10.1251 18.2335L10.4593 18.6054L10.5707 18.5053L10.2365 18.1334L9.9023 17.7615L9.79088 17.8616L10.1251 18.2335ZM10.2365 18.1334L10.3746 18.614L10.4461 18.5934L10.308 18.1129L10.17 17.6323L10.0984 17.6529L10.2365 18.1334ZM10.308 18.1129L10.4024 18.6039L10.5166 18.582L10.4222 18.0909L10.3279 17.5999L10.2137 17.6218L10.308 18.1129ZM10.4222 18.0909L9.93154 17.9949L9.88754 18.2199L10.3782 18.3158L10.8689 18.4118L10.9129 18.1869L10.4222 18.0909ZM10.3782 18.3158L10.015 17.9722L9.85539 18.141L10.2186 18.4846L10.5819 18.8282L10.7415 18.6594L10.3782 18.3158ZM18.6668 19.3651L18.3456 18.982L18.2163 19.0904L18.5375 19.4736L18.8588 19.8567L18.9881 19.7483L18.6668 19.3651ZM18.5375 19.4736L19.0345 19.419L18.974 18.8676L18.477 18.9221L17.98 18.9767L18.0405 19.5281L18.5375 19.4736ZM18.477 18.9221L18.4616 19.4219L18.595 19.426L18.6104 18.9262L18.6258 18.4265L18.4923 18.4224L18.477 18.9221ZM18.6104 18.9262L18.3538 19.3554L18.4501 19.413L18.7067 18.9838L18.9633 18.5547L18.867 18.4971L18.6104 18.9262ZM18.7067 18.9838L18.2414 19.1667L18.2964 19.3067L18.7617 19.1238L19.2271 18.9409L19.1721 18.801L18.7067 18.9838ZM18.7617 19.1238L18.2964 18.9409L18.2015 19.1822L18.6668 19.3651L19.1322 19.5481L19.227 19.3067L18.7617 19.1238ZM14.2577 19.3857H13.7577V19.5627H14.2577H14.7577V19.3857H14.2577ZM14.2577 19.5627L13.9763 19.976L14.0891 20.0528L14.3705 19.6395L14.6519 19.2262L14.5391 19.1494L14.2577 19.5627ZM14.3705 19.6395L14.3159 20.1365L14.4287 20.1489L14.4833 19.6519L14.5379 19.1549L14.425 19.1425L14.3705 19.6395ZM14.4833 19.6519L14.0961 19.9682L14.3739 20.3083L14.7612 19.992L15.1484 19.6757L14.8706 19.3356L14.4833 19.6519ZM14.7612 19.992L14.4816 20.4066L14.915 20.6988L15.1945 20.2842L15.474 19.8696L15.0407 19.5775L14.7612 19.992ZM15.1945 20.2842L14.8715 20.6659L15.1357 20.8894L15.4587 20.5078L15.7816 20.1261L15.5175 19.9025L15.1945 20.2842ZM15.4587 20.5078L14.9602 20.5473L14.9753 20.738L15.4738 20.6985L15.9722 20.659L15.9571 20.4683L15.4587 20.5078ZM15.4738 20.6985L15.0099 20.5118L14.9288 20.7134L15.3927 20.9001L15.8565 21.0867L15.9376 20.8851L15.4738 20.6985ZM15.3927 20.9001L14.9153 21.0487L15.028 21.4109L15.5054 21.2622L15.9828 21.1136L15.8701 20.7514L15.3927 20.9001ZM15.5054 21.2622L15.0105 21.3332L15.0641 21.7076L15.5591 21.6366L16.054 21.5657L16.0004 21.1913L15.5054 21.2622ZM15.5591 21.6366L15.0834 21.7905L15.276 22.3859L15.7517 22.232L16.2274 22.078L16.0348 21.4827L15.5591 21.6366ZM15.7517 22.232L15.5581 21.771L15.287 21.8848L15.4807 22.3458L15.6743 22.8068L15.9454 22.6929L15.7517 22.232ZM15.4807 22.3458L15.4646 21.8461L15.0368 21.8598L15.0529 22.3596L15.0689 22.8593L15.4967 22.8456L15.4807 22.3458ZM15.0529 22.3596L14.686 22.0198L14.5869 22.1268L14.9538 22.4665L15.3206 22.8063L15.4197 22.6993L15.0529 22.3596ZM14.9538 22.4665L15.1429 22.0037L14.9985 21.9447L14.8094 22.4075L14.6202 22.8704L14.7646 22.9294L14.9538 22.4665ZM14.8094 22.4075L14.7461 21.9115L14.3911 21.9568L14.4544 22.4528L14.5177 22.9488L14.8727 22.9035L14.8094 22.4075ZM14.4544 22.4528L14.2037 22.0202L13.8653 22.2164L14.116 22.649L14.3667 23.0816L14.7051 22.8854L14.4544 22.4528ZM14.116 22.649L13.7974 22.2636L13.4756 22.5297L13.7941 22.915L14.1127 23.3004L14.4345 23.0343L14.116 22.649ZM13.7941 22.915V22.415H13.4212V22.915V23.415H13.7941V22.915ZM13.4212 22.915L13.3563 22.4193L12.9368 22.4742L13.0017 22.97L13.0666 23.4657L13.4861 23.4108L13.4212 22.915ZM13.0017 22.97L13.0458 22.4719L12.6277 22.4348L12.5835 22.9329L12.5393 23.4309L12.9575 23.468L13.0017 22.97ZM12.5835 22.9329L12.8015 22.4829L12.507 22.3402L12.289 22.7902L12.071 23.2402L12.3655 23.3828L12.5835 22.9329ZM12.289 22.7902L12.4322 22.3111L11.9136 22.1562L11.7705 22.6352L11.6273 23.1143L12.1459 23.2693L12.289 22.7902ZM11.7705 22.6352L11.8639 22.1441L11.1719 22.0124L11.0784 22.5035L10.985 22.9947L11.677 23.1264L11.7705 22.6352ZM11.0784 22.5035L11.2594 22.0375L10.9734 21.9264L10.7924 22.3925L10.6114 22.8585L10.8974 22.9696L11.0784 22.5035ZM10.7924 22.3925L11.085 21.987L10.8456 21.8142L10.553 22.2197L10.2603 22.6251L10.4997 22.7979L10.7924 22.3925ZM10.553 22.2197L10.9985 21.9928L10.7757 21.5552L10.3301 21.7821L9.88457 22.0089L10.1074 22.4465L10.553 22.2197ZM10.3301 21.7821L10.8244 21.7066L10.7913 21.4899L10.297 21.5653L9.80277 21.6407L9.83585 21.8575L10.3301 21.7821ZM10.297 21.5653L10.7903 21.6473L10.8247 21.4402L10.3315 21.3582L9.83824 21.2762L9.80381 21.4833L10.297 21.5653ZM10.3315 21.3582L10.4949 21.8307L10.697 21.7608L10.5337 21.2883L10.3703 20.8157L10.1681 20.8856L10.3315 21.3582ZM10.5337 21.2883L10.7958 21.714L10.9651 21.6098L10.7029 21.184L10.4408 20.7583L10.2715 20.8625L10.5337 21.2883ZM10.7029 21.184L11.1959 21.2679L11.2192 21.1307L10.7263 21.0468L10.2334 20.963L10.21 21.1002L10.7029 21.184ZM10.7263 21.0468L11.119 21.3562L11.1947 21.2602L10.8019 20.9508L10.4092 20.6414L10.3335 20.7374L10.7263 21.0468ZM10.8019 20.9508L10.9694 21.4219L11.0657 21.3877L10.8982 20.9166L10.7307 20.4454L10.6344 20.4797L10.8019 20.9508ZM10.8982 20.9166L11.3018 21.2118L11.35 21.1459L10.9464 20.8507L10.5429 20.5555L10.4947 20.6214L10.8982 20.9166ZM10.9464 20.8507L11.424 20.7027L11.3552 20.4805L10.8776 20.6285L10.4 20.7765L10.4688 20.9987L10.9464 20.8507ZM10.8776 20.6285L11.3753 20.581L11.3561 20.3794L10.8584 20.4269L10.3606 20.4744L10.3798 20.6759L10.8776 20.6285ZM10.8584 20.4269L11.1973 20.7945L11.599 20.4241L11.26 20.0565L10.9211 19.6889L10.5194 20.0593L10.8584 20.4269ZM11.26 20.0565L11.5531 20.4616L11.9892 20.1462L11.6962 19.741L11.4031 19.3359L10.967 19.6514L11.26 20.0565ZM11.6962 19.741L11.8722 20.209L12.6454 19.9182L12.4693 19.4502L12.2933 18.9822L11.5201 19.2731L11.6962 19.741ZM12.4693 19.4502L12.4403 19.9494L12.9121 19.9768L12.9411 19.4777L12.9702 18.9785L12.4984 18.951L12.4693 19.4502ZM12.9411 19.4777L13.0887 19.9554L13.8124 19.7318L13.6647 19.254L13.5171 18.7763L12.7935 19L12.9411 19.4777ZM13.6647 19.254L13.8715 19.7093L14.104 19.6037L13.8972 19.1485L13.6905 18.6932L13.458 18.7988L13.6647 19.254ZM13.8972 19.1485L13.7622 19.6299L13.9919 19.6943L14.127 19.2129L14.2621 18.7315L14.0323 18.6671L13.8972 19.1485ZM14.127 19.2129L13.7282 19.5146L13.859 19.6874L14.2577 19.3857L14.6564 19.0841L14.5257 18.9113L14.127 19.2129ZM16.3708 20.8178L16.2024 20.347L16.0029 20.4183L16.1713 20.8891L16.3396 21.3599L16.5391 21.2886L16.3708 20.8178ZM16.1713 20.8891L16.6275 20.6846L16.5175 20.439L16.0612 20.6435L15.6049 20.8481L15.715 21.0936L16.1713 20.8891ZM16.0612 20.6435L16.4874 20.9049L16.6388 20.658L16.2126 20.3967L15.7863 20.1353L15.635 20.3822L16.0612 20.6435ZM16.2126 20.3967L16.2764 20.8926L16.4469 20.8706L16.3831 20.3747L16.3193 19.8788L16.1488 19.9007L16.2126 20.3967ZM16.3831 20.3747L15.909 20.5333L15.9929 20.7843L16.4671 20.6257L16.9413 20.4671L16.8573 20.2161L16.3831 20.3747ZM16.4671 20.6257L16.0201 20.4016L15.9238 20.5936L16.3708 20.8178L16.8177 21.0419L16.914 20.8498L16.4671 20.6257ZM18.3848 22.3198L18.0393 21.9583L18.0049 21.9912L18.3504 22.3527L18.6958 22.7141L18.7302 22.6812L18.3848 22.3198ZM18.3504 22.3527L18.6967 21.992L18.3624 21.6711L18.0161 22.0317L17.6698 22.3924L18.004 22.7133L18.3504 22.3527ZM18.0161 22.0317L18.5142 22.0746L18.5252 21.9471L18.0271 21.9041L17.5289 21.8612L17.5179 21.9888L18.0161 22.0317ZM18.0271 21.9041L18.4707 22.1348L18.5299 22.0209L18.0863 21.7903L17.6427 21.5596L17.5835 21.6735L18.0271 21.9041ZM18.0863 21.7903L18.3972 22.1818L18.5319 22.0749L18.2211 21.6833L17.9102 21.2917L17.7754 21.3987L18.0863 21.7903ZM18.2211 21.6833L17.8044 21.9597L17.9255 22.1422L18.3421 21.8658L18.7588 21.5894L18.6377 21.4069L18.2211 21.6833ZM18.3421 21.8658L17.8648 22.0146L17.9598 22.3191L18.4371 22.1703L18.9144 22.0214L18.8195 21.7169L18.3421 21.8658ZM18.4371 22.1703L17.9651 22.0051L17.9128 22.1547L18.3848 22.3198L18.8567 22.4849L18.909 22.3354L18.4371 22.1703ZM15.0597 25.8381L14.5598 25.834L14.5583 26.0081L15.0583 26.0122L15.5583 26.0163L15.5597 25.8422L15.0597 25.8381ZM15.0583 26.0122L14.9452 25.5252L14.4487 25.6405L14.5617 26.1275L14.6748 26.6146L15.1714 26.4993L15.0583 26.0122ZM14.5617 26.1275L14.8871 25.7478L14.7206 25.6052L14.3952 25.9849L14.0699 26.3646L14.2364 26.5072L14.5617 26.1275ZM14.3952 25.9849L14.5135 25.4991L14.4062 25.4729L14.2879 25.9587L14.1697 26.4446L14.277 26.4707L14.3952 25.9849ZM14.2879 25.9587L13.9613 25.5802L13.6656 25.8354L13.9922 26.2139L14.3189 26.5925L14.6146 26.3373L14.2879 25.9587ZM13.9922 26.2139L13.6077 25.8943L13.5211 25.9985L13.9056 26.3182L14.29 26.6378L14.3767 26.5336L13.9922 26.2139ZM13.9056 26.3182L13.4365 26.1449L13.4076 26.2231L13.8767 26.3964L14.3457 26.5696L14.3746 26.4914L13.9056 26.3182ZM13.8767 26.3964L13.6474 25.952L13.5703 25.9918L13.7996 26.4361L14.0288 26.8805L14.1059 26.8407L13.8767 26.3964ZM13.7996 26.4361L13.6903 25.9482L13.1455 26.0703L13.2548 26.5582L13.3641 27.0461L13.9089 26.924L13.7996 26.4361ZM13.2548 26.5582L13.4819 26.1127L13.2426 25.9907L13.0154 26.4361L12.7883 26.8816L13.0277 27.0036L13.2548 26.5582ZM13.0154 26.4361L13.243 26.8813L13.404 26.799L13.1764 26.3538L12.9488 25.9086L12.7878 25.9909L13.0154 26.4361ZM13.1764 26.3538L13.4961 26.7382L13.6956 26.5723L13.3759 26.1879L13.0562 25.8035L12.8567 25.9694L13.1764 26.3538ZM13.3759 26.1879L13.3151 26.6842L13.5159 26.7088L13.5767 26.2125L13.6376 25.7162L13.4367 25.6916L13.3759 26.1879ZM13.5767 26.2125L13.8822 26.6084L14.083 26.4534L13.7776 26.0575L13.4722 25.6617L13.2713 25.8166L13.5767 26.2125ZM13.7776 26.0575L14.1583 26.3817L14.3592 26.1457L13.9784 25.8216L13.5977 25.4975L13.3969 25.7334L13.7776 26.0575ZM13.9784 25.8216L14.0661 26.3139L14.3509 26.2631L14.2632 25.7709L14.1755 25.2786L13.8907 25.3294L13.9784 25.8216ZM14.2632 25.7709L14.4687 26.2267L14.6696 26.1361L14.4641 25.6803L14.2586 25.2245L14.0577 25.3151L14.2632 25.7709ZM14.4641 25.6803L14.3666 26.1707L14.6981 26.2366L14.7956 25.7462L14.8931 25.2558L14.5616 25.1899L14.4641 25.6803ZM14.7956 25.7462L14.6313 26.2184L14.8954 26.3103L15.0597 25.8381L15.2241 25.3659L14.9599 25.274L14.7956 25.7462ZM0.162306 36.943L-0.259265 36.6742L-0.288149 36.7195L0.133421 36.9883L0.554992 37.2572L0.583876 37.2119L0.162306 36.943ZM0.133421 36.9883L0.200435 36.4928L0.0890125 36.4778L0.021999 36.9733L-0.0450145 37.4688L0.066408 37.4838L0.133421 36.9883ZM0.021999 36.9733L0.508268 36.8569L0.486269 36.765L0 36.8813L-0.486269 36.9977L-0.46427 37.0896L0.021999 36.9733ZM0 36.8813L0.313634 37.2707L0.378288 37.2187L0.0646536 36.8293L-0.248981 36.4399L-0.313634 36.4919L0 36.8813ZM0.0646536 36.8293L-0.111686 37.2971L-0.0208352 37.3314L0.155504 36.8635L0.331844 36.3956L0.240993 36.3614L0.0646536 36.8293ZM0.155504 36.8635L-0.342677 36.9061L-0.335876 36.9856L0.162306 36.943L0.660487 36.9004L0.653686 36.8209L0.155504 36.8635Z" fill="var(--stroke-0, white)" mask="url(#path-1-inside-1_0_240)"/>
</g>
</svg>
