<svg preserveAspectRatio="none" width="100%" height="100%" overflow="visible" style="display: block;" viewBox="0 0 12.9439 6.44961" fill="none" xmlns="http://www.w3.org/2000/svg">
<g id="FK">
<mask id="path-1-inside-1_0_159" fill="white">
<path d="M8.85947 0L9.44962 0.360749L10.1884 0.234583L10.4993 0.333372L10.6809 0.633759L10.5722 0.912211L10.3383 0.87236L10.1375 0.947876L10.1774 1.31549L10.3136 1.47322L11.0936 1.87784L11.2367 1.90253L11.2105 1.73241L11.0743 1.45396L11.0234 1.155L11.139 0.906686L11.3426 0.828491L12.2313 0.703665L12.439 0.821626L12.8792 1.52671L12.4665 1.62408L12.2932 1.92999L12.6564 2.06302L12.9439 2.25918L12.7912 2.55957L12.7637 2.71043L12.124 2.92308L11.5572 3.06021L11.2985 3.41409L10.8418 3.67195L9.49916 4.12186L9.65597 4.48814L9.67662 4.6637L9.61885 5.13964L7.77127 4.57043L7.52089 4.63079L8.01477 5.60194L7.64885 5.78161L7.28704 5.66498L6.95823 5.74594L6.74916 6.44961L6.22223 5.9997L5.77239 5.3605L5.77104 5.00385L6.20573 4.33861L6.0737 4.0574L7.08481 3.15624L7.26639 2.88875L7.58143 2.73647L7.90885 2.68439L8.04782 2.56911L8.02443 2.34968L7.89374 1.97662L7.90474 1.37033L8.71501 0.5487L8.5967 0.0205951L8.85947 0ZM3.9895 0.773655H3.45985L3.35531 0.573397L3.3567 0.0658875L3.75839 0.0219346L4.15046 0.233243L4.12431 0.445808L3.9895 0.773655ZM3.31543 1.18104L3.87397 1.29766L4.38708 0.864156L4.74062 0.7256L5.03227 0.818947L5.23727 1.08091L5.53439 1.03972L6.37497 0.772232L6.485 0.862816L6.78493 0.551462L7.04216 0.69546L7.24577 0.967048L7.14674 1.28116L6.91424 1.48142L6.76704 1.76121L6.59508 1.98617L6.29793 2.19605L6.06954 2.53077L5.52204 3.31673L4.72412 4.32354L4.46 4.41404L3.90969 4.47441L3.67308 4.40442L3.47085 4.42777L3.30854 4.97371L3.05677 5.38796L2.93846 5.47435L2.67708 5.51278L2.55327 5.57582L2.45973 5.72945L1.77189 5.68968L1.28627 5.43459L0.711231 4.8694L1.47885 4.17812L2.14058 4.20968L2.68673 3.74604L3.13108 3.51146L3.30716 3.2742L3.50112 3.09177L3.5025 2.85443L3.35392 2.74886L3.15308 2.75982L2.95496 2.86272L2.49 2.99709L2.17223 2.7255L2.38131 2.62403L2.61658 2.62947L3.33604 2.37438L3.47362 2.26738L3.25212 1.90663L2.81877 1.68721L2.468 1.31959L2.40335 1.18237L2.42123 0.964285L2.22723 0.53363L2.43085 0.511612L2.70185 0.788724L3.31543 1.18104ZM0.487001 3.1837L0.7635 3.26867L1.03866 3.23719L0.883193 3.87631L0.762114 4.18356L0.436076 4.15895L0.112808 3.74052L0 3.51832L0.360423 3.35926L0.487001 3.1837ZM10.4484 4.5855L10.4718 5.1342L10.1622 4.95998L10.0522 4.69383L10.2242 4.51283L10.3659 4.52648L10.4484 4.5855ZM5.64585 5.96403L5.39819 6.08476L5.32943 6.03126L5.251 5.79534L5.24689 5.49076L5.218 5.35363L5.37208 5.3975L5.65135 5.64029L5.64585 5.96403Z"/>
</mask>
<path d="M8.85947 0L9.44962 0.360749L10.1884 0.234583L10.4993 0.333372L10.6809 0.633759L10.5722 0.912211L10.3383 0.87236L10.1375 0.947876L10.1774 1.31549L10.3136 1.47322L11.0936 1.87784L11.2367 1.90253L11.2105 1.73241L11.0743 1.45396L11.0234 1.155L11.139 0.906686L11.3426 0.828491L12.2313 0.703665L12.439 0.821626L12.8792 1.52671L12.4665 1.62408L12.2932 1.92999L12.6564 2.06302L12.9439 2.25918L12.7912 2.55957L12.7637 2.71043L12.124 2.92308L11.5572 3.06021L11.2985 3.41409L10.8418 3.67195L9.49916 4.12186L9.65597 4.48814L9.67662 4.6637L9.61885 5.13964L7.77127 4.57043L7.52089 4.63079L8.01477 5.60194L7.64885 5.78161L7.28704 5.66498L6.95823 5.74594L6.74916 6.44961L6.22223 5.9997L5.77239 5.3605L5.77104 5.00385L6.20573 4.33861L6.0737 4.0574L7.08481 3.15624L7.26639 2.88875L7.58143 2.73647L7.90885 2.68439L8.04782 2.56911L8.02443 2.34968L7.89374 1.97662L7.90474 1.37033L8.71501 0.5487L8.5967 0.0205951L8.85947 0ZM3.9895 0.773655H3.45985L3.35531 0.573397L3.3567 0.0658875L3.75839 0.0219346L4.15046 0.233243L4.12431 0.445808L3.9895 0.773655ZM3.31543 1.18104L3.87397 1.29766L4.38708 0.864156L4.74062 0.7256L5.03227 0.818947L5.23727 1.08091L5.53439 1.03972L6.37497 0.772232L6.485 0.862816L6.78493 0.551462L7.04216 0.69546L7.24577 0.967048L7.14674 1.28116L6.91424 1.48142L6.76704 1.76121L6.59508 1.98617L6.29793 2.19605L6.06954 2.53077L5.52204 3.31673L4.72412 4.32354L4.46 4.41404L3.90969 4.47441L3.67308 4.40442L3.47085 4.42777L3.30854 4.97371L3.05677 5.38796L2.93846 5.47435L2.67708 5.51278L2.55327 5.57582L2.45973 5.72945L1.77189 5.68968L1.28627 5.43459L0.711231 4.8694L1.47885 4.17812L2.14058 4.20968L2.68673 3.74604L3.13108 3.51146L3.30716 3.2742L3.50112 3.09177L3.5025 2.85443L3.35392 2.74886L3.15308 2.75982L2.95496 2.86272L2.49 2.99709L2.17223 2.7255L2.38131 2.62403L2.61658 2.62947L3.33604 2.37438L3.47362 2.26738L3.25212 1.90663L2.81877 1.68721L2.468 1.31959L2.40335 1.18237L2.42123 0.964285L2.22723 0.53363L2.43085 0.511612L2.70185 0.788724L3.31543 1.18104ZM0.487001 3.1837L0.7635 3.26867L1.03866 3.23719L0.883193 3.87631L0.762114 4.18356L0.436076 4.15895L0.112808 3.74052L0 3.51832L0.360423 3.35926L0.487001 3.1837ZM10.4484 4.5855L10.4718 5.1342L10.1622 4.95998L10.0522 4.69383L10.2242 4.51283L10.3659 4.52648L10.4484 4.5855ZM5.64585 5.96403L5.39819 6.08476L5.32943 6.03126L5.251 5.79534L5.24689 5.49076L5.218 5.35363L5.37208 5.3975L5.65135 5.64029L5.64585 5.96403Z" fill="var(--fill-0, #71B219)" stroke="var(--stroke-0, white)" mask="url(#path-1-inside-1_0_159)"/>
</g>
</svg>
