<svg preserveAspectRatio="none" width="100%" height="100%" overflow="visible" style="display: block;" viewBox="0 0 13 6" fill="none" xmlns="http://www.w3.org/2000/svg"><g id="FK"><mask id="path-1-inside-1_0_159" fill="white"><path d="M9 0L9 0L10 0L10 0L11 1L11 1L10 1L10 1L10 1L10 2L11 2L11 2L11 2L11 2L11 1L11 1L11 1L12 1L12 1L13 2L12 2L12 2L13 2L13 2L13 3L13 3L12 3L12 3L11 3L11 4L10 4L10 4L10 5L10 5L8 5L8 5L8 6L8 6L7 6L7 6L7 6L6 6L6 5L6 5L6 4L6 4L7 3L7 3L8 3L8 3L8 3L8 2L8 2L8 1L9 0L9 0L9 0ZM4 1H4L3 1L3 0L4 0L4 0L4 0L4 1ZM3 1L4 1L4 1L5 1L5 1L5 1L6 1L6 1L6 1L7 1L7 1L7 1L7 1L7 2L7 2L7 2L6 2L6 2L6 3L5 4L4 4L4 4L4 4L4 4L3 5L3 5L3 6L3 6L3 6L2 6L2 6L1 5L1 5L2 4L2 4L3 4L3 4L3 3L4 3L4 3L3 3L3 3L3 3L2 3L2 3L2 3L3 3L3 2L4 2L3 2L3 2L2 1L2 1L2 1L2 0L2 0L3 1L3 1ZM0 3L1 3L1 3L1 4L1 4L0 4L0 4L0 4L0 3L0 3ZM10 5L10 5L10 5L10 5L10 4L10 4L10 5ZM6 6L5 6L5 6L5 6L5 6L5 5L5 5L6 6L6 6Z"/></mask><path d="M9 0L9 0L10 0L10 0L11 1L11 1L10 1L10 1L10 1L10 2L11 2L11 2L11 2L11 2L11 1L11 1L11 1L12 1L12 1L13 2L12 2L12 2L13 2L13 2L13 3L13 3L12 3L12 3L11 3L11 4L10 4L10 4L10 5L10 5L8 5L8 5L8 6L8 6L7 6L7 6L7 6L6 6L6 5L6 5L6 4L6 4L7 3L7 3L8 3L8 3L8 3L8 2L8 2L8 1L9 0L9 0L9 0ZM4 1H4L3 1L3 0L4 0L4 0L4 0L4 1ZM3 1L4 1L4 1L5 1L5 1L5 1L6 1L6 1L6 1L7 1L7 1L7 1L7 1L7 2L7 2L7 2L6 2L6 2L6 3L5 4L4 4L4 4L4 4L4 4L3 5L3 5L3 6L3 6L3 6L2 6L2 6L1 5L1 5L2 4L2 4L3 4L3 4L3 3L4 3L4 3L3 3L3 3L3 3L2 3L2 3L2 3L3 3L3 2L4 2L3 2L3 2L2 1L2 1L2 1L2 0L2 0L3 1L3 1ZM0 3L1 3L1 3L1 4L1 4L0 4L0 4L0 4L0 3L0 3ZM10 5L10 5L10 5L10 5L10 4L10 4L10 5ZM6 6L5 6L5 6L5 6L5 6L5 5L5 5L6 6L6 6Z" fill="var(--fill-0,#71B219)" stroke="var(--stroke-0,white)" mask="url(#path-1-inside-1_0_159)"/></g></svg>