<svg preserveAspectRatio="none" width="100%" height="100%" overflow="visible" style="display: block;" viewBox="0 0 3.92485 7.67995" fill="none" xmlns="http://www.w3.org/2000/svg">
<path id="FO" d="M2.38477 6.52539V6.69531L2.38379 6.7334L2.29492 6.60352L2.25977 6.48242L2.38477 6.52539ZM2.74707 4.24121L2.79688 4.3418L2.72266 4.26465L2.70703 4.24805L2.6875 4.23438L2.52832 4.12012L2.74707 4.24121ZM2.24707 0.949219L2.26465 0.960938L2.2832 0.969727L2.79199 1.20801L2.74707 1.72559L2.70703 1.68164L2.66113 1.63086L2.59473 1.61133L2.38477 1.54785L2.16602 1.48242L2.08105 1.69336L2.01465 1.85645L1.99414 1.9082L1.99707 1.96484L2.00781 2.16113L2.0127 2.24707L2.07031 2.31152L2.15332 2.40625L2.21289 2.53809L1.79492 2.03027L1.2959 0.741211L1.74707 0.601562L2.24707 0.949219ZM0.765625 1.99219L1.05762 2.26074L1.07422 2.29102L1.04785 2.31934L0.932617 2.34668L0.723633 2.30957L0.374023 2.13867L0.34375 2.04199L0.359375 2.04297L0.394531 2.0332L0.693359 1.9541L0.765625 1.99219ZM3.64258 0.867188L3.58594 1.05078L3.58398 1.0459L3.59863 0.821289L3.64258 0.867188Z" fill="var(--fill-0, #71B219)" stroke="var(--stroke-0, white)" stroke-width="0.5"/>
</svg>
