<svg preserveAspectRatio="none" width="100%" height="100%" overflow="visible" style="display: block;" viewBox="0 0 55 54" fill="none" xmlns="http://www.w3.org/2000/svg"><g id="FR"><mask id="path-1-inside-1_0_239" fill="white"><path d="M29 2L30 2L30 2L30 2L31 2L31 2L31 3L31 3L31 3L31 4L32 4L32 4L32 4L33 5L33 5L33 5L33 5L33 4L33 5L34 5L34 5L34 5L34 5L34 6L34 6L34 6L35 6L34 6L34 6L34 7V7L34 7L34 7L35 7L36 7L36 7L36 6L37 6L37 6L37 6L37 6L37 7L37 7L37 8L37 8L37 8L38 8L38 8L38 8L38 8L39 8L39 9L39 9L39 9L40 10H40L40 9L40 9L41 9L41 10L41 10L41 10L41 10L42 10L42 10L42 10L42 10L42 10L43 10L43 10L43 10L43 10L44 10L44 10L44 11L44 11L44 12L45 12L45 12L45 11L45 11L45 11L45 12L46 12L46 12L46 12L46 12L46 12L47 12L47 12L47 12L47 12L48 12L48 12L49 12L50 13L50 13L50 13L50 13L49 14L49 15L48 15L48 16L48 17L48 17L48 18L48 18L48 19L48 20L48 20L48 21L48 21L47 21L47 21L47 21L47 22L46 22L46 22L46 21L46 21L46 21L46 21L45 21L45 22L45 22L45 22L45 22V22L45 22L45 22L45 23L44 24L44 24L44 24L43 24L43 24L43 25L43 25L43 26L42 26L42 26L42 27L42 27L42 27L42 28L42 28L42 28L42 28L41 28L42 29L42 29L42 29L42 28L43 28L42 28L42 28L42 28L43 27L43 27L44 27L44 27L45 27L44 28L45 28L45 28L44 29L45 29L45 29L45 29L45 30L45 30L46 30L45 30L45 31L45 31L45 31L45 31L45 31L45 32L46 32L46 33L46 33L46 33L46 33L46 34L46 34L45 34L45 34L45 34L44 34L44 34L44 35L44 35L44 35L44 36L45 36L45 36L45 36L45 36L45 36L46 37L46 37L45 37L45 37L45 37L45 38L45 38L45 38L45 38L45 39L45 39L46 39L47 40L47 40L48 40L48 40L48 40L48 40L48 40L48 41L47 41L47 41L47 41L47 42L47 42L47 42L47 42L47 42L47 42L47 42L46 42L46 42L45 43L44 44L44 44L44 44L44 45L44 45L43 45L42 45L42 45L41 45L40 45L39 44L39 44L38 44L38 44L38 44L38 44L38 43L38 44H37L37 44L37 44L37 44L37 44L37 44L37 44L36 44L35 43L35 43L35 43L34 43L34 43L34 43L34 43L34 43L33 43L33 43L31 45L31 45L30 46L30 47L30 48L31 48L31 49L31 49L30 49L30 48L30 49L29 49L29 49L29 49L29 49L29 49L29 49L28 49L28 49L27 49L26 49L26 49L26 49L26 49L26 49L26 49L25 48L25 48L25 48L25 48L25 48L24 48L24 48L24 48L24 48L24 47L23 47L23 47L23 47L22 47L21 47L21 46L21 47L21 47L21 47L21 47L20 47L20 47L20 47L19 47L19 47L18 47L18 47L18 47L18 47L17 47L17 47L17 47L17 47L16 47L16 47L16 47L16 46L15 46L15 46L15 46L14 46L13 45L13 45L13 45L13 45L13 45L13 46L13 46L13 46L13 46L13 45L13 45L13 45L13 45L13 44L13 44L12 44L12 44L12 44L12 44L12 44L12 44L12 43L13 43L13 40L14 37L14 37L14 37L14 36L14 36L14 37L14 37L14 34L14 33L14 32L15 33L15 33L15 33L16 34L16 35L16 35L16 35L16 35L16 33L15 32L15 32L14 31L14 31L14 31L14 31L14 31L14 31L14 31L14 30L14 28L14 28L14 28L14 28L13 28L13 28L12 27L11 26L10 25L10 25L10 24L11 24L10 23L10 23L10 23L10 23L10 22L11 22L11 22L11 23L12 23L11 22L9 22L9 22L9 22L9 22L9 22L9 21L9 21L8 21L8 21L8 21L8 21L8 21L8 20L7 20L7 21L7 20L6 20L6 20L6 20L6 20L5 20L5 20L5 20L3 19L3 19L2 19L2 19L2 19L1 18L0 18L0 18L1 18L2 18L2 17L1 17L1 17L1 17L1 17L1 16L1 17L1 17L2 17L2 16L2 16L1 16L1 16L1 16L0 16L0 16L0 16L0 15L1 15L3 14L4 14L4 14L5 14L5 14L6 14L7 14L8 15L8 15L9 15L10 15L11 15L11 15L11 14L11 14L11 15L13 15L13 15L13 14L12 14L12 11L12 11L11 10L11 9L11 9L11 8L12 8L12 9L13 8L14 8L14 9L14 10L14 10L14 10L15 10L15 10L16 10L18 11L18 11L19 10L20 10L20 10L20 10L19 10L19 9L19 9L19 8L21 7L22 7L23 7L24 6L24 5L24 5L24 5L24 5L24 2L25 2L25 1L25 1L26 1L28 0L28 0L28 0L28 1L28 1L28 1L28 1L29 2L29 2L29 2L29 2ZM14 30L14 31L13 30L13 30L13 29V29L13 30L14 30ZM55 47L55 48L55 48L55 48L55 48L55 50L55 50L55 51L55 51L55 52L55 53L54 53L54 54L54 54L53 54L53 53L52 53L52 53L52 53L53 53L53 52L52 52L52 52L52 52L52 52L52 51L52 51L52 51L52 51L52 51L52 51L52 50L52 50L52 50L52 50L52 50L52 50L52 49L52 49L52 49L52 49L52 49L52 48L52 48L53 48L53 48L54 47L54 47L54 47L54 47L54 47L54 47L54 47L54 47L54 46L54 46L55 46L55 46L55 46L55 46L55 47Z"/></mask><path d="M29 2L30 2L30 2L30 2L31 2L31 2L31 3L31 3L31 3L31 4L32 4L32 4L32 4L33 5L33 5L33 5L33 5L33 4L33 5L34 5L34 5L34 5L34 5L34 6L34 6L34 6L35 6L34 6L34 6L34 7V7L34 7L34 7L35 7L36 7L36 7L36 6L37 6L37 6L37 6L37 6L37 7L37 7L37 8L37 8L37 8L38 8L38 8L38 8L38 8L39 8L39 9L39 9L39 9L40 10H40L40 9L40 9L41 9L41 10L41 10L41 10L41 10L42 10L42 10L42 10L42 10L42 10L43 10L43 10L43 10L43 10L44 10L44 10L44 11L44 11L44 12L45 12L45 12L45 11L45 11L45 11L45 12L46 12L46 12L46 12L46 12L46 12L47 12L47 12L47 12L47 12L48 12L48 12L49 12L50 13L50 13L50 13L50 13L49 14L49 15L48 15L48 16L48 17L48 17L48 18L48 18L48 19L48 20L48 20L48 21L48 21L47 21L47 21L47 21L47 22L46 22L46 22L46 21L46 21L46 21L46 21L45 21L45 22L45 22L45 22L45 22V22L45 22L45 22L45 23L44 24L44 24L44 24L43 24L43 24L43 25L43 25L43 26L42 26L42 26L42 27L42 27L42 27L42 28L42 28L42 28L42 28L41 28L42 29L42 29L42 29L42 28L43 28L42 28L42 28L42 28L43 27L43 27L44 27L44 27L45 27L44 28L45 28L45 28L44 29L45 29L45 29L45 29L45 30L45 30L46 30L45 30L45 31L45 31L45 31L45 31L45 31L45 32L46 32L46 33L46 33L46 33L46 33L46 34L46 34L45 34L45 34L45 34L44 34L44 34L44 35L44 35L44 35L44 36L45 36L45 36L45 36L45 36L45 36L46 37L46 37L45 37L45 37L45 37L45 38L45 38L45 38L45 38L45 39L45 39L46 39L47 40L47 40L48 40L48 40L48 40L48 40L48 40L48 41L47 41L47 41L47 41L47 42L47 42L47 42L47 42L47 42L47 42L47 42L46 42L46 42L45 43L44 44L44 44L44 44L44 45L44 45L43 45L42 45L42 45L41 45L40 45L39 44L39 44L38 44L38 44L38 44L38 44L38 43L38 44H37L37 44L37 44L37 44L37 44L37 44L37 44L36 44L35 43L35 43L35 43L34 43L34 43L34 43L34 43L34 43L33 43L33 43L31 45L31 45L30 46L30 47L30 48L31 48L31 49L31 49L30 49L30 48L30 49L29 49L29 49L29 49L29 49L29 49L29 49L28 49L28 49L27 49L26 49L26 49L26 49L26 49L26 49L26 49L25 48L25 48L25 48L25 48L25 48L24 48L24 48L24 48L24 48L24 47L23 47L23 47L23 47L22 47L21 47L21 46L21 47L21 47L21 47L21 47L20 47L20 47L20 47L19 47L19 47L18 47L18 47L18 47L18 47L17 47L17 47L17 47L17 47L16 47L16 47L16 47L16 46L15 46L15 46L15 46L14 46L13 45L13 45L13 45L13 45L13 45L13 46L13 46L13 46L13 46L13 45L13 45L13 45L13 45L13 44L13 44L12 44L12 44L12 44L12 44L12 44L12 44L12 43L13 43L13 40L14 37L14 37L14 37L14 36L14 36L14 37L14 37L14 34L14 33L14 32L15 33L15 33L15 33L16 34L16 35L16 35L16 35L16 35L16 33L15 32L15 32L14 31L14 31L14 31L14 31L14 31L14 31L14 31L14 30L14 28L14 28L14 28L14 28L13 28L13 28L12 27L11 26L10 25L10 25L10 24L11 24L10 23L10 23L10 23L10 23L10 22L11 22L11 22L11 23L12 23L11 22L9 22L9 22L9 22L9 22L9 22L9 21L9 21L8 21L8 21L8 21L8 21L8 21L8 20L7 20L7 21L7 20L6 20L6 20L6 20L6 20L5 20L5 20L5 20L3 19L3 19L2 19L2 19L2 19L1 18L0 18L0 18L1 18L2 18L2 17L1 17L1 17L1 17L1 17L1 16L1 17L1 17L2 17L2 16L2 16L1 16L1 16L1 16L0 16L0 16L0 16L0 15L1 15L3 14L4 14L4 14L5 14L5 14L6 14L7 14L8 15L8 15L9 15L10 15L11 15L11 15L11 14L11 14L11 15L13 15L13 15L13 14L12 14L12 11L12 11L11 10L11 9L11 9L11 8L12 8L12 9L13 8L14 8L14 9L14 10L14 10L14 10L15 10L15 10L16 10L18 11L18 11L19 10L20 10L20 10L20 10L19 10L19 9L19 9L19 8L21 7L22 7L23 7L24 6L24 5L24 5L24 5L24 5L24 2L25 2L25 1L25 1L26 1L28 0L28 0L28 0L28 1L28 1L28 1L28 1L29 2L29 2L29 2L29 2ZM14 30L14 31L13 30L13 30L13 29V29L13 30L14 30ZM55 47L55 48L55 48L55 48L55 48L55 50L55 50L55 51L55 51L55 52L55 53L54 53L54 54L54 54L53 54L53 53L52 53L52 53L52 53L53 53L53 52L52 52L52 52L52 52L52 52L52 51L52 51L52 51L52 51L52 51L52 51L52 50L52 50L52 50L52 50L52 50L52 50L52 49L52 49L52 49L52 49L52 49L52 48L52 48L53 48L53 48L54 47L54 47L54 47L54 47L54 47L54 47L54 47L54 47L54 46L54 46L55 46L55 46L55 46L55 46L55 47Z" fill="var(--fill-0,#71B219)" stroke="var(--stroke-0,white)" mask="url(#path-1-inside-1_0_239)"/></g></svg>