<svg preserveAspectRatio="none" width="100%" height="100%" overflow="visible" style="display: block;" viewBox="0 0 55.2877 54.0806" fill="none" xmlns="http://www.w3.org/2000/svg">
<g id="FR">
<mask id="path-1-inside-1_0_239" fill="white">
<path d="M29.4426 2.30991L29.6723 2.24269L30.0616 2.00128L30.3863 1.92447L30.572 2.10966L30.6766 2.21527L30.8802 2.63223L30.9379 3.06569L31.0288 3.42644L31.1938 3.57182L31.8143 3.61983L32.2724 3.75291L32.3934 3.87359L32.5503 4.6719L32.6356 4.78438L32.7498 4.69111L32.8626 4.55942L33.0194 4.53887L33.2876 4.5896L33.6412 4.60605L34.0058 4.69383L34.5093 5.14374L34.49 5.29189L34.3923 5.55113L34.3579 5.75825L34.4446 5.84193L34.578 6.05591L34.5464 6.3028L34.4171 6.47564L34.3648 6.6183V6.71018L34.4129 6.787L34.5161 6.85422L35.2604 6.94477L35.9413 6.85422L36.3706 6.60185L36.4435 6.33575L36.5645 6.0367L36.8204 5.78433L36.9965 5.69927L37.1588 5.80216L36.8865 6.85699L37.0859 7.12581L37.1148 7.52633L37.1863 7.87749L37.4298 7.87062L37.7243 7.93509L37.9333 8.06402L38.1768 8.27252L38.5276 8.46457L38.7739 8.53176L38.8633 8.69087L39.0628 8.87606L39.3765 9.26288L39.6571 9.52074H39.7933L40.0547 9.41923L40.4426 9.35477L40.748 9.36025L40.8787 9.55641L41.18 9.64695L41.2859 9.71962L41.4042 9.85541L41.6051 9.91029L41.8472 9.85541L42.0233 9.67575L42.2585 9.59345L42.4951 9.62087L42.6313 9.71962L42.89 9.86642L43.0358 9.83486L43.3288 9.9254L43.6232 10.2107L43.747 10.496L43.7787 10.6524L43.9052 10.8225L44.3991 11.5878L44.556 11.6249L44.7279 11.5097L44.8393 11.3451L45.0003 11.3121L45.2589 11.3889L45.4254 11.4753L45.5051 11.806L45.5616 11.869L45.673 11.7977L45.8725 11.7826L46.1917 11.8636L46.6291 11.7703L46.9799 11.6317L47.1588 11.6372L47.4477 12.0227L47.7778 12.1667L48.5042 12.2833L49.2842 12.4643L49.591 12.6111L49.8001 12.6838L49.8221 13.1927L49.7588 13.2695L48.9815 14.2873L48.6541 14.6508L48.4877 15.1679L48.3735 15.9607L48.1437 16.711L47.7998 17.4215L47.6747 17.9538L47.7682 18.3076L47.709 18.8632L47.4985 19.6189L47.4628 20.1882L47.6031 20.5723L47.7971 20.6505L47.3307 20.9083L47.2248 21.1346L47.0418 21.4323L46.7447 21.5571L46.4462 21.5982L46.204 21.5599L46.0665 21.4405L46.0733 21.3294L45.9454 21.2348L45.6276 21.2375L45.2988 21.4419L45.0361 21.7766L45.1172 21.9631L45.3593 22.0125L45.4226 22.0866V22.1826L45.3373 22.2978L45.2355 22.4953L44.7279 23.0824L44.2162 23.6736L44.1336 23.8519L43.9713 23.9767L43.3206 24.2922L43.2531 24.4184L43.216 24.9437L43.1431 25.3745L42.6602 25.7791L42.1801 26.181L42.0604 26.4265L41.9738 26.7105L41.8238 27.0314L41.7935 27.2015L42.037 27.4772L42.0081 27.7049L41.9311 28.0286L41.7014 28.2577L41.4455 28.388L41.451 28.7392L41.5872 28.7885L41.8953 28.7625L42.3315 28.5073L42.6162 28.1781L42.4484 27.8668L42.4277 27.8064L42.469 27.7324L42.8061 27.3922L43.2188 27.1878L43.7952 27.1494L44.4899 27.2701L44.5587 27.3208L44.5257 27.5293L44.5903 27.8366L44.7155 28.052L44.5436 28.6624L44.6743 28.853L44.8765 29.0821L45.0278 29.2905L45.2451 29.4812L45.4392 29.8035L45.5051 29.986L45.1943 30.3015L44.6688 30.5977L44.6096 30.7884L44.6165 31.0037L44.6756 31.1739L44.9659 31.392L45.2782 31.8844L45.4763 32.3233L45.9096 32.743L46.0155 32.8679L45.988 32.9721L45.8738 33.1504L45.7253 33.7457L45.5478 33.839L45.3497 33.8774L44.8132 34.3122L44.5738 34.2587L44.234 34.2642L43.985 34.4069L44.0125 34.6771L44.2313 34.924L44.3592 35.1928L44.4115 35.4727L44.6536 35.6798L44.9948 35.8032L45.1902 35.8114L45.3167 35.8855L45.3937 35.9816L45.5409 36.5796L45.4529 36.7291L45.2685 36.7922L45.1585 37.0377L44.9398 37.3985L44.816 37.6879L44.9535 37.943L45.0113 38.1323L44.9384 38.3271L45.0361 38.6289L45.2947 38.9279L45.9977 39.3476L46.6511 39.6891L46.8533 39.7454L47.7365 39.5259L47.8824 39.5451L47.9897 39.8058L48.0365 39.9813L47.9374 40.2447L47.6939 40.6164L47.4353 40.9058L47.2784 41.1513L47.3115 41.3749L47.3211 41.6712L47.1106 41.759L47.1037 41.7014L47.017 41.6506L46.9428 41.6794L46.885 41.7439L46.8767 41.8578L46.4283 42.0471L46.1187 42.2432L44.8957 43.4119L44.3235 43.7534L44.2107 43.9591L44.0937 44.3432L43.758 44.6724L43.4637 44.8288L42.7359 44.9893L42.004 45.3377L41.6739 45.1868L40.8209 45.2033L40.2885 44.7835L39.265 44.5174L38.9321 43.9043L38.4658 43.8645L38.1603 43.8837L37.9774 43.7904L37.9306 43.5806L37.9265 43.3789L37.6032 43.4722H37.3556L37.2084 43.5531L37.0928 43.6464L36.9552 43.5874L36.8755 43.608L36.8823 43.726L36.5852 43.7562L36.2619 43.6834L35.4158 43.3666L35.2865 43.3172L34.6991 43.1951L34.4625 43.0676L34.2699 42.7534L34.1241 42.6547L34.0374 42.5957L33.4899 42.7548L33.3 43.0017L33.0043 43.2911L30.9737 44.7067L30.6023 45.2979L30.1731 46.1662L30.1401 46.5708L30.3244 47.8601L30.7371 48.535L30.7894 48.6914L30.5596 48.6928L30.1758 48.6077L29.858 48.5035L29.554 48.5611L29.2624 48.701L29.0065 48.786L28.8221 48.8094L28.6997 48.8903L28.6406 49.0508L28.6295 49.1632L28.3063 49.1358L27.5593 48.9054L26.8879 48.7463L26.4931 48.9273L26.2399 49.096L26.0625 49.07L25.9263 48.8917L25.8355 48.7174L25.5728 48.557L24.9784 48.3169L25.0087 48.2017L25.1105 48.0398L25.1077 47.9397L24.9936 47.7916L24.4461 47.6325L24.1874 47.5927L24.0237 47.7024L23.9054 47.8368L23.6014 47.343L23.384 47.2415L23.0566 47.2251L22.6811 47.0742L22.2903 46.8808L21.3425 46.5722L21.0825 46.5351L20.9779 46.5845L20.9078 46.7697L20.8706 47.2909L20.8307 47.3485L20.3905 47.3664L19.8485 47.2937L19.5995 47.3293L19.378 47.3307L19.1689 47.1921L18.2321 47.3499L18.0766 47.2731L17.851 47.0385L17.5979 46.8479L17.4025 46.7505L17.2347 46.638L17.0834 46.6202L16.8522 46.7285L16.533 46.7752L16.2689 46.7614L16.1272 46.7766L15.5329 46.1977L15.4463 46.0399L15.1505 45.9961L14.7845 45.9892L13.8519 45.6134L13.4267 45.4118L13.3649 45.291L13.3704 45.1936L13.2974 45.2156L13.1667 45.3871L13.098 45.527L13.0072 45.553L12.8737 45.5311L12.7499 45.4515L12.6742 45.35L12.7554 45.1731L12.8985 44.9413L12.9576 44.6889L12.9439 44.4625L12.7086 44.3172L12.362 44.2568L12.1075 44.239L11.7773 44.11L11.6205 44.0167L11.4691 43.7644L11.4636 43.5806L12.0923 43.4187L12.6577 42.7534L13.1942 40.3283L13.5822 37.4355L13.8697 36.8868L14.2329 36.736L13.9399 36.3354L13.7569 36.5384L13.6799 36.7538L13.5836 36.8622L13.7995 34.1805L13.9536 33.1929L14.2164 32.156L14.7543 32.5675L15.2 32.9858L15.4297 33.3479L15.7214 34.5495L15.9429 34.8019L16.273 35.0543L16.1424 34.7786L15.9154 34.5674L15.5604 32.9639L15.3376 32.5071L14.9909 32.123L13.8739 31.3124L13.7734 31.1546L13.7184 30.8446L14.0885 30.8584L14.4076 31.0093L14.3705 30.8364L14.2755 30.6553L14.127 29.9956L14.0032 28.4497L14.0197 28.185L13.9647 27.8585L13.607 27.7858L13.3208 27.7735L13.0127 27.6446L11.4912 26.7283L10.9711 25.7791L10.4387 25.0768L10.3108 24.7695L10.319 24.4582L10.5956 23.7998L10.3521 23.3828L10.1141 23.3005L9.90774 23.0934L10.0948 22.7491L10.2503 22.5282L10.5625 22.4693L10.9711 22.542L11.3591 22.7422L11.6631 22.7957L10.7648 22.2594L9.30654 22.4405L8.99151 22.3719L8.72739 22.2526L8.62281 21.8575L8.83054 21.6805L9.01766 21.3514L8.80582 21.1209L8.53066 21.0331L8.0987 21.0372L7.69562 21.1072L7.59381 20.9742L7.84004 20.6065L7.63097 20.4721L7.3517 20.5352L6.94724 20.6106L6.56066 20.4954L6.19473 20.0771L5.95262 20.0798L5.78616 20.1319L5.53989 19.9701L5.27989 19.9303L5.09415 19.9838L4.84793 19.7438L3.32915 19.261L2.67435 19.202L2.07315 19.4201L1.74162 19.3446L1.49812 19.0319L1.2945 18.5079L0.326039 18.1032L0.517228 17.8371L0.96846 17.774L1.48712 17.5902L1.67419 17.3529L1.26839 17.0772L0.96846 17.0087L0.844653 16.9099L0.718074 16.6616L0.896921 16.5478L1.0235 16.6081L1.38942 16.6438L2.014 16.5834L1.7815 16.3324L1.53938 16.2762L1.42796 16.2131L0.918962 16.1857L0.687847 16.2721L0.167805 16.2392L0.0549975 15.9689L0 15.7358L0.16092 15.2173L0.892807 14.7523L2.71696 14.2434L3.50112 14.3175L4.0445 14.2255L4.69658 13.9046L4.98412 13.6289L5.91135 13.467L6.79177 13.7592L7.60343 14.862L7.99139 15.2351L8.94201 14.5877L10.3576 14.6069L10.6492 14.9717L10.7675 14.6645L11.0275 14.3037L11.2353 14.4683L11.3412 14.6919L12.8352 14.6288L13.0704 14.5644L12.6687 14.3024L12.3413 13.6742L12.2725 11.3519L11.8585 10.7004L11.3839 9.65654L11.1651 9.03517L11.1445 8.81984L11.2174 8.50844L11.8007 8.52489L12.2519 8.60447L13.1117 8.36993L13.5244 8.53042L13.4997 9.01595L13.6262 9.62774L13.7693 9.92402L13.988 10.2601L14.68 10.2299L15.427 10.4274L16.3721 10.4576L17.7519 10.7978L18.3394 10.6002L18.9089 10.1792L19.9929 9.90209L20.0796 9.75666L19.4551 9.81426L18.8827 9.54682L18.8057 9.2574L18.8717 8.99678L19.1042 8.39597L20.7633 7.44541L21.9519 7.16424L23.1928 6.63885L23.8174 6.09982L24.2301 5.40164L24.3635 5.24802L24.5355 5.11909L24.3759 4.86806L24.4832 2.1796L24.5987 1.69265L24.8409 1.29351L25.2096 0.98488L25.7681 0.650168L27.8275 0.187951L28.1329 0L28.1756 0.290801L28.3255 0.662517L28.4287 0.865537L28.342 1.13026L28.4094 1.34835L28.6887 1.74066L29.0368 2.10966L29.3476 2.34558L29.4426 2.30991ZM13.8422 30.1081L13.706 30.5909L13.4474 30.1465L13.1062 29.7569L13.0278 29.3962V29.3002L13.4281 29.5635L13.8422 30.1081ZM54.9933 46.7395L54.8929 47.5063L54.9658 47.7298L55.1061 47.8862L55.1708 48.0577L55.2877 50.0905L55.2657 50.2524L54.7939 51.0657L54.6879 51.303L54.6645 52.3071L54.5847 52.576L54.4169 52.8407L54.1184 53.6966L53.8598 54.0806L53.1527 53.6116L52.7358 53.4085L52.5322 53.1905L52.3988 53.0396L52.4854 52.838L52.6753 52.6281L52.7055 52.4621L52.2585 52.2756L52.0535 52.1507L52.0562 51.9313L52.2103 51.5897L52.1402 51.3071L51.8815 51.3209L51.6807 51.2783L51.6545 51.1316L51.8017 50.9437L51.9916 50.6981L51.986 50.4265L51.7563 50.31L51.5486 50.0891L51.4647 49.7887L51.6256 49.583L51.887 49.4513L51.6944 49.1427L51.5651 49.1358L51.4619 49.0686L51.5472 48.9259L51.7494 48.7119L52.0315 48.0714L52.4235 47.7683L53.1196 47.5735L53.3081 47.4871L53.4801 47.2607L53.6713 47.1153L53.9038 47.1345L54.1184 47.221L54.2505 47.3142L54.3495 47.2168L54.4458 46.9357L54.3867 46.6888L54.4169 46.0098L54.5407 45.6244L54.7416 45.6024L54.9259 45.815L54.9177 46.0029L54.9865 46.4473L54.9933 46.7395Z"/>
</mask>
<path d="M29.4426 2.30991L29.6723 2.24269L30.0616 2.00128L30.3863 1.92447L30.572 2.10966L30.6766 2.21527L30.8802 2.63223L30.9379 3.06569L31.0288 3.42644L31.1938 3.57182L31.8143 3.61983L32.2724 3.75291L32.3934 3.87359L32.5503 4.6719L32.6356 4.78438L32.7498 4.69111L32.8626 4.55942L33.0194 4.53887L33.2876 4.5896L33.6412 4.60605L34.0058 4.69383L34.5093 5.14374L34.49 5.29189L34.3923 5.55113L34.3579 5.75825L34.4446 5.84193L34.578 6.05591L34.5464 6.3028L34.4171 6.47564L34.3648 6.6183V6.71018L34.4129 6.787L34.5161 6.85422L35.2604 6.94477L35.9413 6.85422L36.3706 6.60185L36.4435 6.33575L36.5645 6.0367L36.8204 5.78433L36.9965 5.69927L37.1588 5.80216L36.8865 6.85699L37.0859 7.12581L37.1148 7.52633L37.1863 7.87749L37.4298 7.87062L37.7243 7.93509L37.9333 8.06402L38.1768 8.27252L38.5276 8.46457L38.7739 8.53176L38.8633 8.69087L39.0628 8.87606L39.3765 9.26288L39.6571 9.52074H39.7933L40.0547 9.41923L40.4426 9.35477L40.748 9.36025L40.8787 9.55641L41.18 9.64695L41.2859 9.71962L41.4042 9.85541L41.6051 9.91029L41.8472 9.85541L42.0233 9.67575L42.2585 9.59345L42.4951 9.62087L42.6313 9.71962L42.89 9.86642L43.0358 9.83486L43.3288 9.9254L43.6232 10.2107L43.747 10.496L43.7787 10.6524L43.9052 10.8225L44.3991 11.5878L44.556 11.6249L44.7279 11.5097L44.8393 11.3451L45.0003 11.3121L45.2589 11.3889L45.4254 11.4753L45.5051 11.806L45.5616 11.869L45.673 11.7977L45.8725 11.7826L46.1917 11.8636L46.6291 11.7703L46.9799 11.6317L47.1588 11.6372L47.4477 12.0227L47.7778 12.1667L48.5042 12.2833L49.2842 12.4643L49.591 12.6111L49.8001 12.6838L49.8221 13.1927L49.7588 13.2695L48.9815 14.2873L48.6541 14.6508L48.4877 15.1679L48.3735 15.9607L48.1437 16.711L47.7998 17.4215L47.6747 17.9538L47.7682 18.3076L47.709 18.8632L47.4985 19.6189L47.4628 20.1882L47.6031 20.5723L47.7971 20.6505L47.3307 20.9083L47.2248 21.1346L47.0418 21.4323L46.7447 21.5571L46.4462 21.5982L46.204 21.5599L46.0665 21.4405L46.0733 21.3294L45.9454 21.2348L45.6276 21.2375L45.2988 21.4419L45.0361 21.7766L45.1172 21.9631L45.3593 22.0125L45.4226 22.0866V22.1826L45.3373 22.2978L45.2355 22.4953L44.7279 23.0824L44.2162 23.6736L44.1336 23.8519L43.9713 23.9767L43.3206 24.2922L43.2531 24.4184L43.216 24.9437L43.1431 25.3745L42.6602 25.7791L42.1801 26.181L42.0604 26.4265L41.9738 26.7105L41.8238 27.0314L41.7935 27.2015L42.037 27.4772L42.0081 27.7049L41.9311 28.0286L41.7014 28.2577L41.4455 28.388L41.451 28.7392L41.5872 28.7885L41.8953 28.7625L42.3315 28.5073L42.6162 28.1781L42.4484 27.8668L42.4277 27.8064L42.469 27.7324L42.8061 27.3922L43.2188 27.1878L43.7952 27.1494L44.4899 27.2701L44.5587 27.3208L44.5257 27.5293L44.5903 27.8366L44.7155 28.052L44.5436 28.6624L44.6743 28.853L44.8765 29.0821L45.0278 29.2905L45.2451 29.4812L45.4392 29.8035L45.5051 29.986L45.1943 30.3015L44.6688 30.5977L44.6096 30.7884L44.6165 31.0037L44.6756 31.1739L44.9659 31.392L45.2782 31.8844L45.4763 32.3233L45.9096 32.743L46.0155 32.8679L45.988 32.9721L45.8738 33.1504L45.7253 33.7457L45.5478 33.839L45.3497 33.8774L44.8132 34.3122L44.5738 34.2587L44.234 34.2642L43.985 34.4069L44.0125 34.6771L44.2313 34.924L44.3592 35.1928L44.4115 35.4727L44.6536 35.6798L44.9948 35.8032L45.1902 35.8114L45.3167 35.8855L45.3937 35.9816L45.5409 36.5796L45.4529 36.7291L45.2685 36.7922L45.1585 37.0377L44.9398 37.3985L44.816 37.6879L44.9535 37.943L45.0113 38.1323L44.9384 38.3271L45.0361 38.6289L45.2947 38.9279L45.9977 39.3476L46.6511 39.6891L46.8533 39.7454L47.7365 39.5259L47.8824 39.5451L47.9897 39.8058L48.0365 39.9813L47.9374 40.2447L47.6939 40.6164L47.4353 40.9058L47.2784 41.1513L47.3115 41.3749L47.3211 41.6712L47.1106 41.759L47.1037 41.7014L47.017 41.6506L46.9428 41.6794L46.885 41.7439L46.8767 41.8578L46.4283 42.0471L46.1187 42.2432L44.8957 43.4119L44.3235 43.7534L44.2107 43.9591L44.0937 44.3432L43.758 44.6724L43.4637 44.8288L42.7359 44.9893L42.004 45.3377L41.6739 45.1868L40.8209 45.2033L40.2885 44.7835L39.265 44.5174L38.9321 43.9043L38.4658 43.8645L38.1603 43.8837L37.9774 43.7904L37.9306 43.5806L37.9265 43.3789L37.6032 43.4722H37.3556L37.2084 43.5531L37.0928 43.6464L36.9552 43.5874L36.8755 43.608L36.8823 43.726L36.5852 43.7562L36.2619 43.6834L35.4158 43.3666L35.2865 43.3172L34.6991 43.1951L34.4625 43.0676L34.2699 42.7534L34.1241 42.6547L34.0374 42.5957L33.4899 42.7548L33.3 43.0017L33.0043 43.2911L30.9737 44.7067L30.6023 45.2979L30.1731 46.1662L30.1401 46.5708L30.3244 47.8601L30.7371 48.535L30.7894 48.6914L30.5596 48.6928L30.1758 48.6077L29.858 48.5035L29.554 48.5611L29.2624 48.701L29.0065 48.786L28.8221 48.8094L28.6997 48.8903L28.6406 49.0508L28.6295 49.1632L28.3063 49.1358L27.5593 48.9054L26.8879 48.7463L26.4931 48.9273L26.2399 49.096L26.0625 49.07L25.9263 48.8917L25.8355 48.7174L25.5728 48.557L24.9784 48.3169L25.0087 48.2017L25.1105 48.0398L25.1077 47.9397L24.9936 47.7916L24.4461 47.6325L24.1874 47.5927L24.0237 47.7024L23.9054 47.8368L23.6014 47.343L23.384 47.2415L23.0566 47.2251L22.6811 47.0742L22.2903 46.8808L21.3425 46.5722L21.0825 46.5351L20.9779 46.5845L20.9078 46.7697L20.8706 47.2909L20.8307 47.3485L20.3905 47.3664L19.8485 47.2937L19.5995 47.3293L19.378 47.3307L19.1689 47.1921L18.2321 47.3499L18.0766 47.2731L17.851 47.0385L17.5979 46.8479L17.4025 46.7505L17.2347 46.638L17.0834 46.6202L16.8522 46.7285L16.533 46.7752L16.2689 46.7614L16.1272 46.7766L15.5329 46.1977L15.4463 46.0399L15.1505 45.9961L14.7845 45.9892L13.8519 45.6134L13.4267 45.4118L13.3649 45.291L13.3704 45.1936L13.2974 45.2156L13.1667 45.3871L13.098 45.527L13.0072 45.553L12.8737 45.5311L12.7499 45.4515L12.6742 45.35L12.7554 45.1731L12.8985 44.9413L12.9576 44.6889L12.9439 44.4625L12.7086 44.3172L12.362 44.2568L12.1075 44.239L11.7773 44.11L11.6205 44.0167L11.4691 43.7644L11.4636 43.5806L12.0923 43.4187L12.6577 42.7534L13.1942 40.3283L13.5822 37.4355L13.8697 36.8868L14.2329 36.736L13.9399 36.3354L13.7569 36.5384L13.6799 36.7538L13.5836 36.8622L13.7995 34.1805L13.9536 33.1929L14.2164 32.156L14.7543 32.5675L15.2 32.9858L15.4297 33.3479L15.7214 34.5495L15.9429 34.8019L16.273 35.0543L16.1424 34.7786L15.9154 34.5674L15.5604 32.9639L15.3376 32.5071L14.9909 32.123L13.8739 31.3124L13.7734 31.1546L13.7184 30.8446L14.0885 30.8584L14.4076 31.0093L14.3705 30.8364L14.2755 30.6553L14.127 29.9956L14.0032 28.4497L14.0197 28.185L13.9647 27.8585L13.607 27.7858L13.3208 27.7735L13.0127 27.6446L11.4912 26.7283L10.9711 25.7791L10.4387 25.0768L10.3108 24.7695L10.319 24.4582L10.5956 23.7998L10.3521 23.3828L10.1141 23.3005L9.90774 23.0934L10.0948 22.7491L10.2503 22.5282L10.5625 22.4693L10.9711 22.542L11.3591 22.7422L11.6631 22.7957L10.7648 22.2594L9.30654 22.4405L8.99151 22.3719L8.72739 22.2526L8.62281 21.8575L8.83054 21.6805L9.01766 21.3514L8.80582 21.1209L8.53066 21.0331L8.0987 21.0372L7.69562 21.1072L7.59381 20.9742L7.84004 20.6065L7.63097 20.4721L7.3517 20.5352L6.94724 20.6106L6.56066 20.4954L6.19473 20.0771L5.95262 20.0798L5.78616 20.1319L5.53989 19.9701L5.27989 19.9303L5.09415 19.9838L4.84793 19.7438L3.32915 19.261L2.67435 19.202L2.07315 19.4201L1.74162 19.3446L1.49812 19.0319L1.2945 18.5079L0.326039 18.1032L0.517228 17.8371L0.96846 17.774L1.48712 17.5902L1.67419 17.3529L1.26839 17.0772L0.96846 17.0087L0.844653 16.9099L0.718074 16.6616L0.896921 16.5478L1.0235 16.6081L1.38942 16.6438L2.014 16.5834L1.7815 16.3324L1.53938 16.2762L1.42796 16.2131L0.918962 16.1857L0.687847 16.2721L0.167805 16.2392L0.0549975 15.9689L0 15.7358L0.16092 15.2173L0.892807 14.7523L2.71696 14.2434L3.50112 14.3175L4.0445 14.2255L4.69658 13.9046L4.98412 13.6289L5.91135 13.467L6.79177 13.7592L7.60343 14.862L7.99139 15.2351L8.94201 14.5877L10.3576 14.6069L10.6492 14.9717L10.7675 14.6645L11.0275 14.3037L11.2353 14.4683L11.3412 14.6919L12.8352 14.6288L13.0704 14.5644L12.6687 14.3024L12.3413 13.6742L12.2725 11.3519L11.8585 10.7004L11.3839 9.65654L11.1651 9.03517L11.1445 8.81984L11.2174 8.50844L11.8007 8.52489L12.2519 8.60447L13.1117 8.36993L13.5244 8.53042L13.4997 9.01595L13.6262 9.62774L13.7693 9.92402L13.988 10.2601L14.68 10.2299L15.427 10.4274L16.3721 10.4576L17.7519 10.7978L18.3394 10.6002L18.9089 10.1792L19.9929 9.90209L20.0796 9.75666L19.4551 9.81426L18.8827 9.54682L18.8057 9.2574L18.8717 8.99678L19.1042 8.39597L20.7633 7.44541L21.9519 7.16424L23.1928 6.63885L23.8174 6.09982L24.2301 5.40164L24.3635 5.24802L24.5355 5.11909L24.3759 4.86806L24.4832 2.1796L24.5987 1.69265L24.8409 1.29351L25.2096 0.98488L25.7681 0.650168L27.8275 0.187951L28.1329 0L28.1756 0.290801L28.3255 0.662517L28.4287 0.865537L28.342 1.13026L28.4094 1.34835L28.6887 1.74066L29.0368 2.10966L29.3476 2.34558L29.4426 2.30991ZM13.8422 30.1081L13.706 30.5909L13.4474 30.1465L13.1062 29.7569L13.0278 29.3962V29.3002L13.4281 29.5635L13.8422 30.1081ZM54.9933 46.7395L54.8929 47.5063L54.9658 47.7298L55.1061 47.8862L55.1708 48.0577L55.2877 50.0905L55.2657 50.2524L54.7939 51.0657L54.6879 51.303L54.6645 52.3071L54.5847 52.576L54.4169 52.8407L54.1184 53.6966L53.8598 54.0806L53.1527 53.6116L52.7358 53.4085L52.5322 53.1905L52.3988 53.0396L52.4854 52.838L52.6753 52.6281L52.7055 52.4621L52.2585 52.2756L52.0535 52.1507L52.0562 51.9313L52.2103 51.5897L52.1402 51.3071L51.8815 51.3209L51.6807 51.2783L51.6545 51.1316L51.8017 50.9437L51.9916 50.6981L51.986 50.4265L51.7563 50.31L51.5486 50.0891L51.4647 49.7887L51.6256 49.583L51.887 49.4513L51.6944 49.1427L51.5651 49.1358L51.4619 49.0686L51.5472 48.9259L51.7494 48.7119L52.0315 48.0714L52.4235 47.7683L53.1196 47.5735L53.3081 47.4871L53.4801 47.2607L53.6713 47.1153L53.9038 47.1345L54.1184 47.221L54.2505 47.3142L54.3495 47.2168L54.4458 46.9357L54.3867 46.6888L54.4169 46.0098L54.5407 45.6244L54.7416 45.6024L54.9259 45.815L54.9177 46.0029L54.9865 46.4473L54.9933 46.7395Z" fill="var(--fill-0, #71B219)" stroke="var(--stroke-0, white)" mask="url(#path-1-inside-1_0_239)"/>
</g>
</svg>
