<svg preserveAspectRatio="none" width="100%" height="100%" overflow="visible" style="display: block;" viewBox="0 0 22 24" fill="none" xmlns="http://www.w3.org/2000/svg"><g id="GA"><mask id="path-1-inside-1_0_60" fill="white"><path d="M18 0L18 1L17 2L17 2L17 2L17 3L17 3L18 4L18 4L17 4L17 4L18 4L18 4L19 4L19 4L20 3L21 4L21 4L21 4L22 4L22 5L22 5L22 5L22 6L22 6L22 6L22 6L22 6L22 7L21 7L21 7L21 7L20 7L20 8L20 8L20 8L20 8L20 9L20 10L20 10L21 10L21 10L21 10L21 10L22 11L22 11L22 11L22 11L22 12L22 12L22 13L22 14L22 14L22 15L22 15V15L22 15L22 16L22 16L22 16L21 16L21 17L21 17L21 17V18L21 18L21 18L21 18L21 18L20 18L20 18L20 18L20 18L20 18L20 18L20 17L19 17L19 17L19 18L18 18L18 18L17 18L17 18L16 17L16 17L16 16L16 16L15 16L15 16L14 16L14 16L14 16L14 17L14 17L15 17L15 17L14 17L14 18L13 18L13 18L12 18L12 18L12 18L11 18L11 18L11 18L11 18L11 19L11 19L11 19L11 20L11 20L12 20L12 20L12 20L12 20L12 20L12 21L12 21L12 21L12 21L12 22L12 22L12 22L12 22L12 22L12 22L12 23L12 23L12 23L12 23L12 23L12 23L11 22L11 22L10 23L10 23L10 23L9 24L9 23L9 23L8 22L8 22L7 21L6 20L5 19L4 18L4 18L4 18L5 19L5 19L5 19L5 18L4 18L4 18L4 18L4 18L3 18L3 17L3 17L3 17L3 16L2 16L2 16L3 16L3 16L3 16L2 16L2 16L2 16L2 15L2 15L1 14L1 14L2 15L2 15L3 15L3 15L3 15L3 15L3 15L2 15L2 15L2 14L2 14L2 14L2 14L2 14L2 14L1 14L1 13L1 13L1 12L0 12L0 11L0 11L0 12L1 11L1 11L1 11L2 11L2 11L2 10L2 9L2 8L2 8L2 8L3 8L3 8L3 8L3 8L3 8L4 8L4 9L4 8L5 8L5 8L4 8L3 8L3 7L3 7L2 7L2 6L3 6L3 6L3 6L4 7L4 7L4 6L4 6L3 5L3 5L4 5L4 5L4 5L4 5L4 5L4 5L4 5L5 5L5 5L5 5L5 5L6 5L6 5L7 5L8 5L9 5L10 5L10 4L10 4L10 3L10 2L10 1L10 0L10 0L10 0L10 0L11 0L12 0L13 0L13 0L14 0L15 0L15 0L15 0L16 0L17 0L17 0L18 0L18 0Z"/></mask><path d="M18 0L18 1L17 2L17 2L17 2L17 3L17 3L18 4L18 4L17 4L17 4L18 4L18 4L19 4L19 4L20 3L21 4L21 4L21 4L22 4L22 5L22 5L22 5L22 6L22 6L22 6L22 6L22 6L22 7L21 7L21 7L21 7L20 7L20 8L20 8L20 8L20 8L20 9L20 10L20 10L21 10L21 10L21 10L21 10L22 11L22 11L22 11L22 11L22 12L22 12L22 13L22 14L22 14L22 15L22 15V15L22 15L22 16L22 16L22 16L21 16L21 17L21 17L21 17V18L21 18L21 18L21 18L21 18L20 18L20 18L20 18L20 18L20 18L20 18L20 17L19 17L19 17L19 18L18 18L18 18L17 18L17 18L16 17L16 17L16 16L16 16L15 16L15 16L14 16L14 16L14 16L14 17L14 17L15 17L15 17L14 17L14 18L13 18L13 18L12 18L12 18L12 18L11 18L11 18L11 18L11 18L11 19L11 19L11 19L11 20L11 20L12 20L12 20L12 20L12 20L12 20L12 21L12 21L12 21L12 21L12 22L12 22L12 22L12 22L12 22L12 22L12 23L12 23L12 23L12 23L12 23L12 23L11 22L11 22L10 23L10 23L10 23L9 24L9 23L9 23L8 22L8 22L7 21L6 20L5 19L4 18L4 18L4 18L5 19L5 19L5 19L5 18L4 18L4 18L4 18L4 18L3 18L3 17L3 17L3 17L3 16L2 16L2 16L3 16L3 16L3 16L2 16L2 16L2 16L2 15L2 15L1 14L1 14L2 15L2 15L3 15L3 15L3 15L3 15L3 15L2 15L2 15L2 14L2 14L2 14L2 14L2 14L2 14L1 14L1 13L1 13L1 12L0 12L0 11L0 11L0 12L1 11L1 11L1 11L2 11L2 11L2 10L2 9L2 8L2 8L2 8L3 8L3 8L3 8L3 8L3 8L4 8L4 9L4 8L5 8L5 8L4 8L3 8L3 7L3 7L2 7L2 6L3 6L3 6L3 6L4 7L4 7L4 6L4 6L3 5L3 5L4 5L4 5L4 5L4 5L4 5L4 5L4 5L5 5L5 5L5 5L5 5L6 5L6 5L7 5L8 5L9 5L10 5L10 4L10 4L10 3L10 2L10 1L10 0L10 0L10 0L10 0L11 0L12 0L13 0L13 0L14 0L15 0L15 0L15 0L16 0L17 0L17 0L18 0L18 0Z" fill="var(--fill-0,#71B219)" stroke="var(--stroke-0,white)" mask="url(#path-1-inside-1_0_60)"/></g></svg>