<svg preserveAspectRatio="none" width="100%" height="100%" overflow="visible" style="display: block;" viewBox="0 0 22.3055 23.7929" fill="none" xmlns="http://www.w3.org/2000/svg">
<g id="GA">
<mask id="path-1-inside-1_0_60" fill="white">
<path d="M17.7231 0.537691L17.7038 0.805133L17.397 1.46083L17.254 1.96557L17.2182 2.50188L17.3021 2.93534L17.4493 3.24259L17.5442 3.57865L17.4713 3.81323L17.3227 3.91336L17.4246 4.03132L17.6474 4.05874L18.0271 3.95723L18.6104 3.77756L19.3739 3.51833L19.876 3.37977L20.7056 3.46755L21.1485 3.5663L21.3756 3.74738L21.6204 4.51823L21.7415 4.63619L21.9423 4.96404L22.1102 5.35769L22.1459 5.55799L22.1266 5.70199L21.9589 5.9146L21.769 6.22871L21.7016 6.418L21.5434 6.55928L21.3426 6.69784L20.7881 6.75405L20.7028 6.83635L20.5487 7.16968L20.2557 7.45224L20.1223 7.71972L20.0053 8.07637L20.0287 8.51665L19.9696 9.15175L19.9104 9.58244L20.0563 9.73331L20.7194 9.83758L20.8472 9.9226L21.0233 10.1887L21.2489 10.4397L21.8542 10.5975L22.0895 10.7881L22.2807 10.998L22.3055 11.1694L22.1679 11.8594L22.0359 12.5219L22.0882 13.0267L22.1363 13.5082L22.2092 14.2091L22.1776 14.637L22.0056 14.899V15.1034L22.0841 15.3503L21.9327 16.0334L21.835 16.1486L21.564 16.2762L21.4209 16.46L21.3756 16.748L21.2297 17.1431L21.0784 17.2871V17.4709L21.2243 17.6039L21.2215 17.8097L20.9504 18.0538L20.7881 18.2404L20.4263 18.3323L20.0136 18.2349L19.9173 18.0991L20.0163 17.8879L19.9806 17.7178L19.8389 17.5395L19.6174 17.0814L19.422 16.9839L19.3134 17.1719L18.9777 17.5203L18.3848 17.9674L17.9693 18.0031L17.2017 17.8673L16.5592 17.6533L16.2552 17.1293L16.0667 16.6959L15.7916 16.1939L15.4834 15.9552L15.1547 15.8016L15.0088 15.792L14.5384 16.0718L14.3966 16.1829L14.398 16.4175L14.4421 16.6369L14.515 16.7425L14.5755 16.8838L14.5645 17.1019L14.4806 17.3941L14.4517 17.7164L12.9769 18.0333L12.7224 17.9194L12.5367 17.774L12.3139 17.8001L11.6728 17.9647L11.4375 17.8495L11.205 17.7658L11.0977 17.8358L11.0895 17.9729L11.1982 18.7328L11.1624 19.0222L11.0193 19.4008L10.9437 19.6573L11.3357 19.7287L11.476 19.848L11.6136 20.0386L11.8021 20.217L11.8145 20.3253L11.6012 20.5242L11.5283 20.7684L11.6301 20.959L11.8956 21.1593L12.285 21.3664L12.4748 21.5022L12.4556 21.627L12.2753 21.8904L12.2066 22.1153L12.0827 22.317L12.1089 22.5035L12.2836 22.6777L12.2657 22.8327L12.146 22.9507L11.9039 22.926L11.6989 22.9425L11.5159 22.8944L10.9409 22.2923L10.8144 22.2745L9.98066 22.7381L9.77293 22.9274L9.60097 23.2017L9.36985 23.7929L8.99155 23.4486L8.66412 22.819L8.28304 22.4308L7.48105 21.8067L7.26643 21.3458L6.34885 20.3322L5.03093 19.3185L4.07758 18.4393L3.93312 18.2445L4.09408 18.2678L5.01443 18.7068L5.13962 18.6574L5.24554 18.5586L4.84935 18.3282L4.46966 18.1471L4.11335 18.0346L3.75704 18.0443L3.55754 17.8591L3.42823 17.5765L3.3622 17.3351L3.204 17.0814L2.69912 16.5601L2.5767 16.3585L2.30016 16.0841L2.468 16.0471L3.01004 16.3105L3.0582 16.2048L3.01139 16.0512L2.46662 15.8016L2.17223 15.7851L2.10347 15.6095L2.14335 15.4065L1.75404 14.648L1.34958 14.0787L1.28627 13.8099L2.37719 15.0472L2.52304 15.0677L2.71562 15.0568L3.16685 14.9182L3.0802 14.7522L2.87658 14.5753L2.67985 14.6576L2.42262 14.6741L2.28781 14.6L2.22727 14.4724L2.4845 13.8716L2.37308 13.9032L2.29193 14.0088L2.15023 14.0609L1.93285 14.0911L1.39496 13.7702L0.921733 12.9032L0.79654 12.7249L0.669962 12.4231L0.544769 12.2984L0 11.0652L0.207731 11.1571L0.456731 11.5137L0.939618 11.4383L1.12808 11.2326L1.29177 11.2394L1.461 11.1928L1.67285 10.998L2.29193 10.1476L2.45562 9.0283L2.40196 8.36302L2.3112 7.70189L2.51616 7.49066L2.59731 7.63056L2.63724 7.8651L2.7335 8.03932L2.95362 8.19433L3.36358 8.23548L3.99639 8.48098L4.222 8.63599L4.28393 8.32464L5.01304 8.05987L4.79154 7.96523L4.14497 8.0695L3.25627 7.67309L2.9605 7.42205L2.68535 6.94334L2.40058 6.69369L2.41985 6.47012L3.0582 6.263L3.22739 6.28631L3.29481 6.53324L3.46677 6.63471L3.53143 6.60043L3.56031 6.39058L3.5617 5.82543L3.36769 5.01478L3.42685 4.85843L3.60158 4.80217L3.75704 4.69522L3.8657 4.676L4.0817 4.69522L4.19039 4.88313L4.24954 4.98598L4.46827 5.03399L4.64712 5.13412L4.8012 5.1067L4.92912 4.99012L5.11624 4.96542L5.69812 4.96814L6.22505 4.96952L7.27332 4.97229L8.32297 4.97639L9.37263 4.97911L10.1623 4.98187L10.1595 4.51961L10.1554 3.80498L10.1512 2.96004L10.1457 2.14938L10.1416 1.40047L10.1375 0.515714L10.1802 0.26062L10.2324 0.156347L10.2132 0.00958592L11.0262 0L12.4954 0.0644643L13.1379 0.0562179L13.3209 0.0685665L14.1242 0.023316L14.7736 0.0795338L15.0501 0.141277L15.2991 0.172798L16.0777 0.211225L17.0944 0.163212L17.4397 0.174179L17.6309 0.297624L17.7231 0.537691Z"/>
</mask>
<path d="M17.7231 0.537691L17.7038 0.805133L17.397 1.46083L17.254 1.96557L17.2182 2.50188L17.3021 2.93534L17.4493 3.24259L17.5442 3.57865L17.4713 3.81323L17.3227 3.91336L17.4246 4.03132L17.6474 4.05874L18.0271 3.95723L18.6104 3.77756L19.3739 3.51833L19.876 3.37977L20.7056 3.46755L21.1485 3.5663L21.3756 3.74738L21.6204 4.51823L21.7415 4.63619L21.9423 4.96404L22.1102 5.35769L22.1459 5.55799L22.1266 5.70199L21.9589 5.9146L21.769 6.22871L21.7016 6.418L21.5434 6.55928L21.3426 6.69784L20.7881 6.75405L20.7028 6.83635L20.5487 7.16968L20.2557 7.45224L20.1223 7.71972L20.0053 8.07637L20.0287 8.51665L19.9696 9.15175L19.9104 9.58244L20.0563 9.73331L20.7194 9.83758L20.8472 9.9226L21.0233 10.1887L21.2489 10.4397L21.8542 10.5975L22.0895 10.7881L22.2807 10.998L22.3055 11.1694L22.1679 11.8594L22.0359 12.5219L22.0882 13.0267L22.1363 13.5082L22.2092 14.2091L22.1776 14.637L22.0056 14.899V15.1034L22.0841 15.3503L21.9327 16.0334L21.835 16.1486L21.564 16.2762L21.4209 16.46L21.3756 16.748L21.2297 17.1431L21.0784 17.2871V17.4709L21.2243 17.6039L21.2215 17.8097L20.9504 18.0538L20.7881 18.2404L20.4263 18.3323L20.0136 18.2349L19.9173 18.0991L20.0163 17.8879L19.9806 17.7178L19.8389 17.5395L19.6174 17.0814L19.422 16.9839L19.3134 17.1719L18.9777 17.5203L18.3848 17.9674L17.9693 18.0031L17.2017 17.8673L16.5592 17.6533L16.2552 17.1293L16.0667 16.6959L15.7916 16.1939L15.4834 15.9552L15.1547 15.8016L15.0088 15.792L14.5384 16.0718L14.3966 16.1829L14.398 16.4175L14.4421 16.6369L14.515 16.7425L14.5755 16.8838L14.5645 17.1019L14.4806 17.3941L14.4517 17.7164L12.9769 18.0333L12.7224 17.9194L12.5367 17.774L12.3139 17.8001L11.6728 17.9647L11.4375 17.8495L11.205 17.7658L11.0977 17.8358L11.0895 17.9729L11.1982 18.7328L11.1624 19.0222L11.0193 19.4008L10.9437 19.6573L11.3357 19.7287L11.476 19.848L11.6136 20.0386L11.8021 20.217L11.8145 20.3253L11.6012 20.5242L11.5283 20.7684L11.6301 20.959L11.8956 21.1593L12.285 21.3664L12.4748 21.5022L12.4556 21.627L12.2753 21.8904L12.2066 22.1153L12.0827 22.317L12.1089 22.5035L12.2836 22.6777L12.2657 22.8327L12.146 22.9507L11.9039 22.926L11.6989 22.9425L11.5159 22.8944L10.9409 22.2923L10.8144 22.2745L9.98066 22.7381L9.77293 22.9274L9.60097 23.2017L9.36985 23.7929L8.99155 23.4486L8.66412 22.819L8.28304 22.4308L7.48105 21.8067L7.26643 21.3458L6.34885 20.3322L5.03093 19.3185L4.07758 18.4393L3.93312 18.2445L4.09408 18.2678L5.01443 18.7068L5.13962 18.6574L5.24554 18.5586L4.84935 18.3282L4.46966 18.1471L4.11335 18.0346L3.75704 18.0443L3.55754 17.8591L3.42823 17.5765L3.3622 17.3351L3.204 17.0814L2.69912 16.5601L2.5767 16.3585L2.30016 16.0841L2.468 16.0471L3.01004 16.3105L3.0582 16.2048L3.01139 16.0512L2.46662 15.8016L2.17223 15.7851L2.10347 15.6095L2.14335 15.4065L1.75404 14.648L1.34958 14.0787L1.28627 13.8099L2.37719 15.0472L2.52304 15.0677L2.71562 15.0568L3.16685 14.9182L3.0802 14.7522L2.87658 14.5753L2.67985 14.6576L2.42262 14.6741L2.28781 14.6L2.22727 14.4724L2.4845 13.8716L2.37308 13.9032L2.29193 14.0088L2.15023 14.0609L1.93285 14.0911L1.39496 13.7702L0.921733 12.9032L0.79654 12.7249L0.669962 12.4231L0.544769 12.2984L0 11.0652L0.207731 11.1571L0.456731 11.5137L0.939618 11.4383L1.12808 11.2326L1.29177 11.2394L1.461 11.1928L1.67285 10.998L2.29193 10.1476L2.45562 9.0283L2.40196 8.36302L2.3112 7.70189L2.51616 7.49066L2.59731 7.63056L2.63724 7.8651L2.7335 8.03932L2.95362 8.19433L3.36358 8.23548L3.99639 8.48098L4.222 8.63599L4.28393 8.32464L5.01304 8.05987L4.79154 7.96523L4.14497 8.0695L3.25627 7.67309L2.9605 7.42205L2.68535 6.94334L2.40058 6.69369L2.41985 6.47012L3.0582 6.263L3.22739 6.28631L3.29481 6.53324L3.46677 6.63471L3.53143 6.60043L3.56031 6.39058L3.5617 5.82543L3.36769 5.01478L3.42685 4.85843L3.60158 4.80217L3.75704 4.69522L3.8657 4.676L4.0817 4.69522L4.19039 4.88313L4.24954 4.98598L4.46827 5.03399L4.64712 5.13412L4.8012 5.1067L4.92912 4.99012L5.11624 4.96542L5.69812 4.96814L6.22505 4.96952L7.27332 4.97229L8.32297 4.97639L9.37263 4.97911L10.1623 4.98187L10.1595 4.51961L10.1554 3.80498L10.1512 2.96004L10.1457 2.14938L10.1416 1.40047L10.1375 0.515714L10.1802 0.26062L10.2324 0.156347L10.2132 0.00958592L11.0262 0L12.4954 0.0644643L13.1379 0.0562179L13.3209 0.0685665L14.1242 0.023316L14.7736 0.0795338L15.0501 0.141277L15.2991 0.172798L16.0777 0.211225L17.0944 0.163212L17.4397 0.174179L17.6309 0.297624L17.7231 0.537691Z" fill="var(--fill-0, #71B219)" stroke="var(--stroke-0, white)" mask="url(#path-1-inside-1_0_60)"/>
</g>
</svg>
