<svg preserveAspectRatio="none" width="100%" height="100%" overflow="visible" style="display: block;" viewBox="0 0 38 74" fill="none" xmlns="http://www.w3.org/2000/svg"><g id="GB"><mask id="path-1-inside-1_0_235" fill="white"><path d="M27 70L27 70L27 70L27 70L27 70L26 70L26 70L25 70L26 70L26 70L26 69L27 70L27 70ZM15 53L15 53L16 53L16 54L15 54L15 54L15 54L14 54L14 54L14 54L14 53L14 53L15 53L15 53ZM7 41L7 41L8 41L8 41L8 42L9 43L9 44L9 44L9 44L9 44L9 45L9 44L9 44L10 44L10 45L10 45L10 46L10 46L10 46L10 46L10 45L10 45L10 46L10 46L10 46L10 46L10 47L9 47L9 47L9 48L9 48L8 48L8 49L8 48L7 48L7 48L7 48L7 48L7 48L6 48L6 48L6 48L6 48L6 48L5 48L5 48L5 47L5 47L5 47L5 46L4 46L4 46L4 47L4 47L4 47L4 47L4 48L3 48L3 48L3 48L3 48L2 48L2 48L2 48L1 48L1 47L1 47L0 46L0 46L0 46L0 46L1 45L2 45L2 45L1 45L1 44L1 44L1 44L1 44L1 44L2 44L2 44L2 44L2 44L2 44L3 43L3 43L3 42L3 42L4 42L4 42L4 42L4 42L5 41L5 41L5 41L6 41L6 41L7 41ZM12 39L11 39L11 39L11 39L11 38L11 38L11 38L11 38L11 38L11 38L12 38L12 38L12 39L12 39ZM8 36L8 37L8 37L8 38L8 38L7 38L7 38L7 38L7 38L7 37L7 37L7 37L7 37L6 38L6 38L6 38L6 37L6 37L7 37L7 36L7 36L7 36L7 36L7 36L8 36ZM8 37L8 37L8 37L8 37L8 37L8 36L8 36L9 36L8 36L8 36L8 35L9 35L9 35L9 35L9 36L8 37ZM9 33L8 34L7 34L7 33L7 33L8 33L8 32L7 32L7 32L7 31L7 31L8 31L8 31L8 31L8 31L8 32L9 32L9 32L9 33ZM6 32L6 32L6 31L6 31L6 31L6 31L6 31L6 32ZM3 29L2 29L2 29L2 29L2 28L3 28L3 29L3 29L3 29ZM7 29L7 29L7 29L7 29L7 28L7 28L7 28L7 28L7 29L7 29ZM4 28L3 28L3 28L3 28L3 27L3 27L3 26L3 26L3 26L3 26L4 28L4 28ZM8 25L8 25L8 26L8 26L8 26L8 26L8 26L9 27L9 27L10 27L10 27L10 27L9 28L9 28L8 28L8 28L8 28L8 27L8 27L7 27L7 27L7 27L7 26L6 26L5 26L5 25L5 25L6 25L6 25L6 25L6 25L6 25L6 25L6 25L7 24L7 24L7 24L7 24L8 24L8 25ZM4 24L4 24L4 25L3 25L2 24L2 24L2 24L3 24L3 24L3 24L3 24L3 24L4 24ZM8 19L7 20L7 20L7 20L6 21L7 21L7 21L7 21L7 21L6 22L6 22L5 23L5 23L5 23L5 23H4L4 23L4 23L5 22L5 22L5 22L5 22L4 22L4 21L4 21L4 21L4 21L4 21L4 21L4 21L4 20L4 20L4 20L4 20L4 20L5 20L5 20L5 20L6 20L6 20L5 19L5 19L5 19L6 19L7 18L7 18L7 18L8 18L8 19ZM19 18L20 18L19 18L19 19L19 19L18 20L17 21L16 22L16 22L16 22L16 23L17 23L16 23L16 24L16 24L16 24L16 24L17 24L18 24L19 24L20 24L20 24L20 24L20 24L23 24L23 24L24 24L24 24L25 25L25 25L24 26L24 26L24 27L24 27L24 28L23 28L23 30L22 30L22 31L21 32L21 32L21 32L20 32L19 33L19 33L19 33L19 33L20 33L20 33L21 33L21 34L21 34L20 34L19 35L19 35L18 35L18 35L17 35L17 35L17 35L18 35L20 36L20 36L20 35L21 35L23 36L24 37L24 38L25 38L25 38L25 39L26 41L26 42L26 44L27 44L27 45L28 45L29 46L30 46L30 47L31 48L31 48L31 48L31 49L31 49L31 50L32 51L32 52L32 51L32 51L31 51L31 51L31 51L30 51L30 51L29 51L29 51L30 51L30 51L32 52L32 53L33 54L33 55L32 55L32 56L32 56L32 57L33 57L33 56L33 56L33 56L34 56L34 56L35 56L35 56L36 56L36 56L37 56L38 57L38 57L38 58L38 59L38 59L38 60L38 61L38 61L38 61L37 62L36 62L36 62L36 62L36 62L36 62L36 63L36 63L36 63L35 63L34 63L35 64L35 64L35 64L34 64L34 65L34 65L33 65L33 65L34 65L34 65L34 65L34 66L35 66L35 66L36 66L37 66L37 66L37 66L37 67L37 67L36 68L35 68L35 68L34 68L34 68L34 69L33 69L33 69L32 69L31 69L30 69L28 69L28 69L28 69L27 69L26 69L26 68L26 69L26 69L25 70L25 70L24 70L24 70L24 70L24 70L24 70L24 70L22 70L22 70L22 70L22 70L21 70L21 70L20 70L20 70L18 70L18 71L18 71L18 72L17 72L17 72L16 72L16 72L15 72L15 72L15 72L15 72L14 72L14 72L13 72L13 72L12 73L12 73L12 74L11 74L11 73L10 73L10 73L10 74L10 73L10 73L10 73L11 72L12 72L12 71L12 71L12 71L13 71L13 70L14 69L14 69L14 68L14 68L15 68L15 67L15 67L17 66L18 66L18 67L19 67L19 67L20 66L20 65L21 65L21 65L22 64L22 63L22 64L21 64L21 64L20 64L20 65L19 65L19 66L18 65L17 64L16 64L16 64L16 64L16 64L15 64L15 64L16 64L15 64L15 64L14 63L14 63L14 63L13 64L12 64L12 64L12 63L12 63L11 62L11 62L11 62L12 62L13 61L14 61L14 60L15 60L15 60L16 59L16 59L16 58L16 58L16 58L16 58L16 57L16 57L16 56L16 56L16 56L15 56L15 56L14 56L14 57L13 57L13 56L14 56L14 56L14 55L15 55L15 55L15 54L16 54L17 53L17 53L17 54L18 53L18 53L19 53L20 54L19 53L20 53L20 53L20 54L21 53L21 53L20 53L20 53L20 53L20 52L20 52L20 51L20 51L20 51L20 50L20 50L20 50L20 49L20 49L20 48L20 48L20 48L20 48L19 48L19 48L19 47L18 47L18 46L18 45L18 44L19 43L20 43L20 43L18 42L18 43L17 43L17 43L17 43L17 43L16 44L16 44L16 44L16 44L15 44L15 43L15 43L15 43L14 44L14 44L14 44L13 43L13 44L13 44L12 44L12 44L12 43L12 43L12 42L12 42L12 42L12 41L13 40L13 40L13 39L13 39L13 38L13 38L13 37L13 36L13 36L13 36L14 36L13 36L13 35L13 35L13 34L13 34L13 35L12 35L12 36L12 36L12 36L12 36L11 36L11 36L11 36L11 36L11 36L11 35L12 35L12 34L12 34L11 35L11 35L11 36L10 36L10 36L11 37L11 37L10 40L10 40L10 40L10 40L9 40L9 40L9 40L9 39L10 38L10 38L10 37L10 37L10 37L10 37L10 37L10 37L10 35L10 35L10 34L10 33L10 33L11 32L11 32L11 31L11 31L11 30L11 30L10 32L10 32L9 32L9 32L8 31L8 31L8 31L8 31L8 30L8 30L9 30L9 30L9 29L9 29L9 29L10 28L10 27L10 26L10 26L9 26L9 26L9 25L9 25L10 25L10 25L10 24L9 24L9 24L9 24L10 23L10 23L10 22L11 22L11 22L11 22L12 22L12 22L11 21L10 21L11 20L11 20L11 20L11 20L11 20L12 20L12 20L12 19L12 19L12 19L12 18L12 18L12 18L12 17L12 17L12 17L13 17L13 17L13 18L13 18L14 17L14 17L14 18L15 17L16 17L17 17L18 17L19 17L20 17L20 17L20 17L19 18ZM20 16L20 16L20 16L20 15L20 15L20 15L20 16L20 16ZM19 16L19 16L19 16L18 15L18 15L18 15L18 15L19 15L19 15L19 15L19 15L19 16L19 16ZM20 14L20 14L20 14L20 14L21 14L21 14L21 15L20 15L20 15L20 14L19 15L19 15L19 14L19 14V14L19 14L19 14L19 14L18 14L18 14L18 14L19 13L19 13L19 13L20 13L20 14L20 14L20 14ZM22 12L21 12L21 12L22 12L22 12L22 12L22 12ZM21 13L21 13L20 13L20 12L20 12L20 12L20 12L20 12L20 11L20 12L21 12L21 12L21 12L21 13ZM26 2L26 3L27 3L27 3H27L27 3L27 4L27 5L27 5L27 6L27 6L27 6L27 7L26 7L26 7L26 7L26 6L26 6L26 5L26 5L26 5L26 5L26 5L26 5L26 5L25 5L25 5L25 4L25 4L25 4L26 4L26 4L26 3L26 3L25 3L26 2L26 2L26 2L26 2L26 2L26 2ZM27 2L27 3L27 2L27 1L28 1L28 1L28 1L27 1L27 2L28 2L28 2L27 2ZM28 0V0L28 1L28 1L28 1L28 1L28 1L28 0L28 0L28 0L28 0L28 0L28 0L28 0Z"/></mask><path d="M27 70L27 70L27 70L27 70L27 70L26 70L26 70L25 70L26 70L26 70L26 69L27 70L27 70ZM15 53L15 53L16 53L16 54L15 54L15 54L15 54L14 54L14 54L14 54L14 53L14 53L15 53L15 53ZM7 41L7 41L8 41L8 41L8 42L9 43L9 44L9 44L9 44L9 44L9 45L9 44L9 44L10 44L10 45L10 45L10 46L10 46L10 46L10 46L10 45L10 45L10 46L10 46L10 46L10 46L10 47L9 47L9 47L9 48L9 48L8 48L8 49L8 48L7 48L7 48L7 48L7 48L7 48L6 48L6 48L6 48L6 48L6 48L5 48L5 48L5 47L5 47L5 47L5 46L4 46L4 46L4 47L4 47L4 47L4 47L4 48L3 48L3 48L3 48L3 48L2 48L2 48L2 48L1 48L1 47L1 47L0 46L0 46L0 46L0 46L1 45L2 45L2 45L1 45L1 44L1 44L1 44L1 44L1 44L2 44L2 44L2 44L2 44L2 44L3 43L3 43L3 42L3 42L4 42L4 42L4 42L4 42L5 41L5 41L5 41L6 41L6 41L7 41ZM12 39L11 39L11 39L11 39L11 38L11 38L11 38L11 38L11 38L11 38L12 38L12 38L12 39L12 39ZM8 36L8 37L8 37L8 38L8 38L7 38L7 38L7 38L7 38L7 37L7 37L7 37L7 37L6 38L6 38L6 38L6 37L6 37L7 37L7 36L7 36L7 36L7 36L7 36L8 36ZM8 37L8 37L8 37L8 37L8 37L8 36L8 36L9 36L8 36L8 36L8 35L9 35L9 35L9 35L9 36L8 37ZM9 33L8 34L7 34L7 33L7 33L8 33L8 32L7 32L7 32L7 31L7 31L8 31L8 31L8 31L8 31L8 32L9 32L9 32L9 33ZM6 32L6 32L6 31L6 31L6 31L6 31L6 31L6 32ZM3 29L2 29L2 29L2 29L2 28L3 28L3 29L3 29L3 29ZM7 29L7 29L7 29L7 29L7 28L7 28L7 28L7 28L7 29L7 29ZM4 28L3 28L3 28L3 28L3 27L3 27L3 26L3 26L3 26L3 26L4 28L4 28ZM8 25L8 25L8 26L8 26L8 26L8 26L8 26L9 27L9 27L10 27L10 27L10 27L9 28L9 28L8 28L8 28L8 28L8 27L8 27L7 27L7 27L7 27L7 26L6 26L5 26L5 25L5 25L6 25L6 25L6 25L6 25L6 25L6 25L6 25L7 24L7 24L7 24L7 24L8 24L8 25ZM4 24L4 24L4 25L3 25L2 24L2 24L2 24L3 24L3 24L3 24L3 24L3 24L4 24ZM8 19L7 20L7 20L7 20L6 21L7 21L7 21L7 21L7 21L6 22L6 22L5 23L5 23L5 23L5 23H4L4 23L4 23L5 22L5 22L5 22L5 22L4 22L4 21L4 21L4 21L4 21L4 21L4 21L4 21L4 20L4 20L4 20L4 20L4 20L5 20L5 20L5 20L6 20L6 20L5 19L5 19L5 19L6 19L7 18L7 18L7 18L8 18L8 19ZM19 18L20 18L19 18L19 19L19 19L18 20L17 21L16 22L16 22L16 22L16 23L17 23L16 23L16 24L16 24L16 24L16 24L17 24L18 24L19 24L20 24L20 24L20 24L20 24L23 24L23 24L24 24L24 24L25 25L25 25L24 26L24 26L24 27L24 27L24 28L23 28L23 30L22 30L22 31L21 32L21 32L21 32L20 32L19 33L19 33L19 33L19 33L20 33L20 33L21 33L21 34L21 34L20 34L19 35L19 35L18 35L18 35L17 35L17 35L17 35L18 35L20 36L20 36L20 35L21 35L23 36L24 37L24 38L25 38L25 38L25 39L26 41L26 42L26 44L27 44L27 45L28 45L29 46L30 46L30 47L31 48L31 48L31 48L31 49L31 49L31 50L32 51L32 52L32 51L32 51L31 51L31 51L31 51L30 51L30 51L29 51L29 51L30 51L30 51L32 52L32 53L33 54L33 55L32 55L32 56L32 56L32 57L33 57L33 56L33 56L33 56L34 56L34 56L35 56L35 56L36 56L36 56L37 56L38 57L38 57L38 58L38 59L38 59L38 60L38 61L38 61L38 61L37 62L36 62L36 62L36 62L36 62L36 62L36 63L36 63L36 63L35 63L34 63L35 64L35 64L35 64L34 64L34 65L34 65L33 65L33 65L34 65L34 65L34 65L34 66L35 66L35 66L36 66L37 66L37 66L37 66L37 67L37 67L36 68L35 68L35 68L34 68L34 68L34 69L33 69L33 69L32 69L31 69L30 69L28 69L28 69L28 69L27 69L26 69L26 68L26 69L26 69L25 70L25 70L24 70L24 70L24 70L24 70L24 70L24 70L22 70L22 70L22 70L22 70L21 70L21 70L20 70L20 70L18 70L18 71L18 71L18 72L17 72L17 72L16 72L16 72L15 72L15 72L15 72L15 72L14 72L14 72L13 72L13 72L12 73L12 73L12 74L11 74L11 73L10 73L10 73L10 74L10 73L10 73L10 73L11 72L12 72L12 71L12 71L12 71L13 71L13 70L14 69L14 69L14 68L14 68L15 68L15 67L15 67L17 66L18 66L18 67L19 67L19 67L20 66L20 65L21 65L21 65L22 64L22 63L22 64L21 64L21 64L20 64L20 65L19 65L19 66L18 65L17 64L16 64L16 64L16 64L16 64L15 64L15 64L16 64L15 64L15 64L14 63L14 63L14 63L13 64L12 64L12 64L12 63L12 63L11 62L11 62L11 62L12 62L13 61L14 61L14 60L15 60L15 60L16 59L16 59L16 58L16 58L16 58L16 58L16 57L16 57L16 56L16 56L16 56L15 56L15 56L14 56L14 57L13 57L13 56L14 56L14 56L14 55L15 55L15 55L15 54L16 54L17 53L17 53L17 54L18 53L18 53L19 53L20 54L19 53L20 53L20 53L20 54L21 53L21 53L20 53L20 53L20 53L20 52L20 52L20 51L20 51L20 51L20 50L20 50L20 50L20 49L20 49L20 48L20 48L20 48L20 48L19 48L19 48L19 47L18 47L18 46L18 45L18 44L19 43L20 43L20 43L18 42L18 43L17 43L17 43L17 43L17 43L16 44L16 44L16 44L16 44L15 44L15 43L15 43L15 43L14 44L14 44L14 44L13 43L13 44L13 44L12 44L12 44L12 43L12 43L12 42L12 42L12 42L12 41L13 40L13 40L13 39L13 39L13 38L13 38L13 37L13 36L13 36L13 36L14 36L13 36L13 35L13 35L13 34L13 34L13 35L12 35L12 36L12 36L12 36L12 36L11 36L11 36L11 36L11 36L11 36L11 35L12 35L12 34L12 34L11 35L11 35L11 36L10 36L10 36L11 37L11 37L10 40L10 40L10 40L10 40L9 40L9 40L9 40L9 39L10 38L10 38L10 37L10 37L10 37L10 37L10 37L10 37L10 35L10 35L10 34L10 33L10 33L11 32L11 32L11 31L11 31L11 30L11 30L10 32L10 32L9 32L9 32L8 31L8 31L8 31L8 31L8 30L8 30L9 30L9 30L9 29L9 29L9 29L10 28L10 27L10 26L10 26L9 26L9 26L9 25L9 25L10 25L10 25L10 24L9 24L9 24L9 24L10 23L10 23L10 22L11 22L11 22L11 22L12 22L12 22L11 21L10 21L11 20L11 20L11 20L11 20L11 20L12 20L12 20L12 19L12 19L12 19L12 18L12 18L12 18L12 17L12 17L12 17L13 17L13 17L13 18L13 18L14 17L14 17L14 18L15 17L16 17L17 17L18 17L19 17L20 17L20 17L20 17L19 18ZM20 16L20 16L20 16L20 15L20 15L20 15L20 16L20 16ZM19 16L19 16L19 16L18 15L18 15L18 15L18 15L19 15L19 15L19 15L19 15L19 16L19 16ZM20 14L20 14L20 14L20 14L21 14L21 14L21 15L20 15L20 15L20 14L19 15L19 15L19 14L19 14V14L19 14L19 14L19 14L18 14L18 14L18 14L19 13L19 13L19 13L20 13L20 14L20 14L20 14ZM22 12L21 12L21 12L22 12L22 12L22 12L22 12ZM21 13L21 13L20 13L20 12L20 12L20 12L20 12L20 12L20 11L20 12L21 12L21 12L21 12L21 13ZM26 2L26 3L27 3L27 3H27L27 3L27 4L27 5L27 5L27 6L27 6L27 6L27 7L26 7L26 7L26 7L26 6L26 6L26 5L26 5L26 5L26 5L26 5L26 5L26 5L25 5L25 5L25 4L25 4L25 4L26 4L26 4L26 3L26 3L25 3L26 2L26 2L26 2L26 2L26 2L26 2ZM27 2L27 3L27 2L27 1L28 1L28 1L28 1L27 1L27 2L28 2L28 2L27 2ZM28 0V0L28 1L28 1L28 1L28 1L28 1L28 0L28 0L28 0L28 0L28 0L28 0L28 0Z" fill="var(--fill-0,#71B219)" stroke="var(--stroke-0,white)" mask="url(#path-1-inside-1_0_235)"/></g></svg>