<svg preserveAspectRatio="none" width="100%" height="100%" overflow="visible" style="display: block;" viewBox="0 0 38.1961 73.7544" fill="none" xmlns="http://www.w3.org/2000/svg">
<g id="GB">
<mask id="path-1-inside-1_0_235" fill="white">
<path d="M27.3364 69.7286L27.0131 69.9371L26.9113 70.1826L26.8329 70.2786L26.6197 70.3417L26.4078 70.3431L25.6016 69.852L25.4159 69.874L25.6003 69.6491L26.101 69.4652L26.3831 69.2225L27.0337 69.457L27.3364 69.7286ZM15.2468 53.3098L15.4091 53.4291L15.8164 53.4099L15.6815 53.676L15.233 53.9723L14.9318 54.2645L14.5672 54.5086L14.3911 54.2274L14.1862 54.2384L13.8725 53.698L13.8161 52.8887L14.226 52.6774L14.7928 52.6898L15.2468 53.3098ZM6.8372 40.674L7.38197 40.8427L7.78781 40.8399L8.14824 41.3297L8.34081 42.1005L8.79066 42.8604L9.37947 43.5188L9.40285 43.9207L9.19239 44.1361L8.75354 44.4036L8.75489 44.6902L9.0452 44.5462L9.29554 44.4804L9.89812 44.5435L10.1086 44.8343L10.2544 45.2691L10.3315 45.6257L10.2792 46.0125L10.1169 45.889L9.95178 45.5434L9.76877 45.3843L9.55554 45.2979L9.65185 45.7738L9.61335 46.4089L9.70551 46.4679L9.99166 46.4789L9.8032 47.1263L9.41112 47.3019L8.95578 47.3677L8.8457 47.5968L8.76316 47.8917L8.52516 48.3306L8.2115 48.5789L7.82358 48.5281L7.44389 48.332L7.11231 48.2922L6.88119 48.4088L6.73127 48.5172L6.58543 48.498L6.16862 48.5391L5.77654 48.5309L5.72012 48.3594L5.78754 47.8437L5.6995 47.7037L5.32531 47.6325L5.18635 47.509L4.97039 47.1524L4.92773 46.985L4.89746 46.7546L4.66912 46.4569L4.39258 46.243L4.23027 46.232L3.90696 46.5804L3.64008 46.9329L3.73362 47.1098L3.82031 47.3417L3.67585 47.509L3.237 47.8903L3.16823 48.0385L3.04993 48.1194L2.84081 48.0138L2.31943 48.0385L2.08004 47.9712L1.80077 47.6901L1.11981 47.5022L1.00561 47.0509L0.874922 46.9658L0.103194 46.1908L0 45.9316L0.100423 45.7766L0.387921 45.542L1.35504 45.1525L1.50777 44.9961L1.53938 44.8576L1.25461 44.6998L0.998729 44.5242L0.912077 44.4104L0.905192 44.3103L1.05104 44.1799L1.34265 44.1704L1.57381 44.2293L1.75677 44.1128L2.07865 43.9948L2.29466 43.8467L2.48039 43.464L2.67708 43.1197L2.69773 42.9331L2.86969 42.2761L2.96462 42.1129L3.57543 41.6822L3.7295 41.9181L4.03077 41.9757L4.30043 41.759L4.62369 41.0745L4.84792 41.032L5.09558 41.0882L5.58254 41.0018L6.4465 40.6822L6.8372 40.674ZM11.7388 39.2749L11.2518 39.2804L11.0757 39.2214L10.8652 39.0568L10.6286 38.1241L10.7139 37.7935L10.8102 37.6316L10.9175 37.5054L11.1747 37.4533L11.4306 37.6302L11.5269 37.7948L11.7415 38.4258L11.7814 38.9662L11.7388 39.2749ZM7.78781 35.9911L7.92674 36.8704L8.06293 37.4135L8.07258 37.5987L7.94462 37.8566L7.3077 38.1995L7.10681 38.2009L7.09858 38.1172L7.24166 37.7688L7.11785 37.3724L7.17835 37.0706L7.1192 37.0157L6.99539 37.0583L6.53866 37.537L6.38597 37.5836L6.36947 37.4862L6.48227 37.0939L6.496 36.8251L6.56343 36.6605L6.68723 36.5082L6.83443 36.3944L6.95412 36.3779L7.0807 36.4959L7.44939 36.1667L7.78781 35.9911ZM8.40135 36.7867L8.3202 36.8594L8.12485 36.8388L8.05193 36.7277L8.01204 36.5576L8.00789 36.2462L8.1262 36.0227L8.62697 35.6852L8.39997 35.5659L8.39174 35.4809L8.52104 35.1997L9.05893 34.7621L9.20339 34.6826L9.34647 34.6949L9.06858 35.4712L8.40135 36.7867ZM9.14285 33.1394L7.60481 33.5249L7.0752 33.4906L7.02704 33.3013L7.13297 33.1751L7.57181 33.053L7.74927 32.1244L7.0862 31.6951L7.05181 31.5757L7.10408 31.3714L7.18112 31.2794L7.58281 31.0627L7.75204 31.0147L7.88958 31.0435L8.17301 31.2945L8.49216 31.8199L8.92001 31.9036L9.21028 32.1258L9.14285 33.1394ZM5.93885 31.466L5.72012 31.5044L5.70362 31.4056L6.0847 30.9338L6.33093 30.8556L6.41762 30.9022L6.23877 31.1766L5.93885 31.466ZM2.81465 28.7981L2.47489 28.8941L2.34969 28.8379L2.32765 28.7487L2.40469 28.506L2.66473 28.4195L2.85319 28.5512L2.88346 28.6706L2.81465 28.7981ZM7.20862 28.8036L7.09443 28.8941L6.95 28.8763L6.80693 28.7597L6.61708 28.4278L7.04354 28.1973L7.21412 28.3331L7.27877 28.4881L7.28154 28.6596L7.20862 28.8036ZM3.45985 27.7392L3.29616 27.7789L3.08292 27.7406L2.95085 27.6308L2.81743 27.196L2.79266 26.9327L2.85181 26.4416L2.83804 25.8531L3.27827 25.8353L3.39246 25.9204L3.46812 27.6637L3.45985 27.7392ZM7.72727 24.9684L7.72178 25.2839L7.65297 25.6556L7.741 26.0493L7.76166 26.3305L7.92401 26.4196L8.02304 26.5486L8.74666 26.6926L9.41935 26.6514L9.5487 26.7667L9.56381 26.9505L9.45789 27.1521L9.07408 27.5197L8.61735 28.1137L8.48116 28.2371L8.33393 28.2426L8.228 28.1891L8.15235 27.1329L7.65712 27.2687L7.25816 27.2536L7.03943 27.1247L6.88674 26.8764L6.5772 26.2372L5.67746 25.9848L5.42296 25.6309L5.34592 25.417L5.37758 25.299L5.56466 25.0356L5.79854 25.1289L5.943 25.0713L6.03104 24.9533L6.02966 24.8559L5.90724 24.6269L5.90174 24.5556L6.82204 24.2648L6.90324 23.8094L7.1027 23.7723L7.33108 23.9218L7.64335 24.3951L7.72727 24.9684ZM3.63046 23.6928L4.06654 24.096L3.71989 24.7654L3.18746 24.7627L2.43773 24.2743L2.43496 24.1742L2.49689 24.0275L2.60969 23.9109L2.72662 23.8834L2.91235 23.963L3.17096 23.8341L3.37731 23.8752L3.63046 23.6928ZM7.51816 18.7562L7.02704 20.0304L6.83443 20.062L6.66524 20.3802L6.14247 20.73L6.5992 20.7368L6.72712 20.8534L6.72989 21.1044L6.64324 21.2498L6.05304 21.8287L5.64724 22.0482L5.20973 22.6517L4.98827 22.6586L4.76954 23.0412L4.5907 23.2099H4.48889L4.37331 23.1249L4.10231 22.7504L4.59481 22.3814L4.64019 22.1743L4.97727 21.9576L4.94835 21.8904L4.41323 21.5859L4.20273 21.3815L4.222 21.2745L4.47927 21.0386L4.3582 21.0084L4.27566 20.8808L4.12708 20.8315L4.0817 20.7135L4.05416 20.4008L4.09404 20.0812L4.2495 19.9399L4.31281 19.789L4.37608 19.7424L4.61681 19.8233L4.8617 20.0798L5.14785 19.981L5.47939 20.029L5.48627 19.9701L5.24277 19.3405L5.28677 19.2116L5.41885 19.0648L6.18373 18.6135L7.13708 17.8536L7.3682 17.7342L7.43835 17.8385L7.53466 18.2322L7.51816 18.7562ZM19.4441 17.6383L19.477 18.239L19.4317 18.4215L19.3395 18.6464L19.0479 19.0648L18.2802 19.6614L16.8756 21.0276L16.0447 21.7025L15.9305 22.0262L15.8686 22.4761L16.3652 22.5652L16.5579 22.7175L16.4396 22.9452L15.7035 23.7367L15.4875 24.4499L16.0516 24.4239L16.5166 24.2867L17.4424 23.8423L18.3132 23.5117L18.7314 23.498L19.5445 23.7614L19.7288 23.7696L20.0741 23.6475L20.4236 23.6256L22.787 23.7079L23.4446 23.5528L23.8793 23.738L24.2425 24.1989L24.5877 25.048L24.5767 25.1893L24.3677 25.5747L23.9824 26.0575L23.6509 26.7214L23.5546 27.078L23.49 27.469L23.3854 27.8297L22.7264 29.5169L22.084 30.4468L21.7979 31.1053L21.4443 31.6279L21.1031 31.9571L20.7399 32.1765L19.6889 32.4097L19.3945 32.577L19.0437 32.8637L18.6751 33.0064L19.107 32.9885L19.5349 32.8294L20.3149 32.7718L21.2118 33.3205L21.1279 33.769L20.7675 34.1229L19.9476 34.1792L19.1813 34.9651L18.836 35.2065L18.47 35.3259L18.0133 35.2902L17.1838 35.0804L16.8206 34.8609L17.148 35.2189L17.5208 35.4054L19.6793 35.8457L19.81 35.7991L20.4978 35.3354L21.4154 35.3286L23.1612 36.1818L23.6633 36.8333L24.3842 37.7619L24.7762 38.1241L25.0596 38.4519L25.2343 38.9416L25.5727 40.5547L25.9593 42.1211L26.4642 43.8082L26.6939 44.2746L26.9952 44.6011L28.5195 45.35L28.8593 45.5983L29.4508 46.317L30.0218 47.081L30.5527 47.6667L31.1264 48.14L30.8486 48.3855L30.6587 48.7709L30.8017 49.2935L31.0342 49.7914L31.4924 50.587L31.8968 51.4525L31.7483 51.3222L31.5914 51.2509L31.3768 51.2728L31.1677 51.2317L30.7811 50.9601L30.4097 50.6268L29.6709 50.7612L29.261 50.7009L28.9047 50.7105L29.5801 50.9025L30.3189 50.9162L31.9477 52.3661L32.498 53.222L32.8254 54.3481L32.6026 54.8529L32.2559 55.1793L31.9326 55.5511L31.6286 55.9722L32.5324 56.5881L32.7278 56.5702L32.9272 56.4838L33.1198 56.2739L33.4431 55.7623L33.6096 55.5812L34.1722 55.5154L34.6441 55.5552L35.1132 55.669L35.5273 55.6334L36.3596 55.8528L36.7874 56.0504L37.8481 56.9378L38.0778 57.4234L38.1838 58.0489L38.1961 58.7402L38.0173 59.3698L37.8123 59.9376L37.6858 60.6688L37.5963 60.9321L37.4711 61.1378L36.9098 61.7126L36.537 61.9485L36.3802 61.8457L36.211 61.8593L36.1931 61.9979L36.3706 62.29L36.3719 62.6426L36.0404 62.9032L35.7034 63.0143L35.1393 62.8757L34.3566 63.3613L34.9192 63.611L35.0334 63.8757L34.8931 64.3407L34.5395 64.5478L34.1461 64.6397L33.7444 64.6617L33.4114 64.7755L33.0923 64.995L33.4926 64.8797L33.7705 64.9813L33.9452 65.3708L34.1034 65.4833L34.8876 65.6493L35.3718 65.6479L36.3073 65.5532L36.7571 65.5546L36.9167 65.6259L36.9195 65.9483L36.8507 66.7384L36.7269 66.9016L35.4874 67.5628L35.2329 68.0236L35.1627 68.3021L34.4377 68.2527L34.0979 68.5476L33.5105 68.7437L33.0565 68.9509L32.6122 69.2128L32.2463 69.291L30.6683 68.9797L29.715 69.0057L28.4232 69.2773L28.0903 69.232L27.5923 68.9728L27.0805 68.7972L26.4931 68.7204L25.9855 68.479L26.3019 68.9412L25.5989 69.387L25.2742 69.4748L24.9372 69.4611L24.2493 69.5818L23.6096 69.516L23.7059 69.8315L23.8765 70.1072L23.7376 70.2265L23.5917 70.2567L22.3784 70.0496L22.2064 70.088L22.0565 70.28L21.6149 70.1771L21.1857 69.8548L20.7303 69.6367L20.2516 69.5338L19.8719 69.5695L18.3077 70.0797L17.9954 70.59L17.8386 71.3129L17.613 71.9534L17.2443 72.4459L16.8055 72.5103L16.3927 72.1688L15.6086 71.7929L15.3417 71.5378L15.2564 71.5227L15.1684 71.6132L14.8602 71.7285L14.5424 71.734L14.0513 71.8355L13.197 72.1413L12.8517 72.3485L12.1102 72.9204L11.9589 73.0782L11.6893 73.6529L11.2779 73.7544L10.901 73.3868L10.4718 73.2579L10.0192 73.3827L9.74539 73.5789L9.61747 73.4197L9.61335 73.0933L9.94351 72.7037L10.8253 72.4088L11.5999 71.6421L11.9795 71.1743L12.1309 70.9096L12.3166 70.7409L12.5587 70.6778L12.6839 70.3856L13.7583 69.2087L13.8464 68.9385L13.9 68.4529L13.988 67.9852L14.863 67.6821L15.2812 66.6958L15.3967 66.6176L16.617 66.4366L17.5222 66.4517L18.4219 66.6451L18.8827 66.6629L19.345 66.5957L19.7082 66.3282L20.3286 65.3626L20.6781 64.936L21.0784 64.5506L21.4526 64.1103L22.0592 63.2928L21.6493 63.5753L21.154 64.0225L20.8665 64.2817L19.9531 64.5423L19.5596 64.8084L18.8704 65.4078L18.7383 65.4572L17.6983 65.3132L16.9252 64.5355L16.4313 64.2172L16.2277 64.1802L16.0158 64.2749L15.5646 64.3722L15.1051 64.3558L15.3404 63.995L15.6595 63.7934L14.9442 63.6535L14.7447 63.5437L14.5177 63.29L13.9564 63.2475L13.6895 63.312L13.2383 63.6466L12.5257 64.0019L11.6659 63.5095L11.498 63.2941L11.5022 62.8757L11.3729 62.5438L11.1349 62.4272L11.4389 61.9951L11.8076 61.7071L12.6165 61.4204L13.8422 60.7387L14.5301 60.4479L15.1684 59.9459L15.4325 59.6386L15.6237 59.2175L15.8136 58.7018L16.0846 58.2807L15.8219 58.1805L15.7035 57.8637L15.7352 57.5414L15.8562 57.2547L15.7475 56.8953L15.5536 56.5194L15.5646 56.2259L15.6169 55.9118L15.1244 55.9283L14.6332 56.027L14.1875 56.2492L13.7555 56.551L13.3717 56.6073L13.3772 56.3658L13.5437 56.0668L13.9784 55.6388L14.4434 55.2836L14.6085 55.0134L14.7392 54.6992L14.9703 54.4469L15.5784 53.9695L16.7435 53.4319L16.9169 53.4003L17.3736 53.4634L17.8235 53.3811L18.2169 53.1877L18.609 53.1465L19.4922 53.7048L19.2294 52.8407L19.6187 52.6335L20.1828 53.4154L20.3919 53.4977L20.8349 53.3838L20.6643 53.2522L20.4648 53.2439L20.2034 53.1259L19.9833 52.875L19.6174 52.0766L19.638 51.602L19.8843 51.1083L20.1567 50.6529L19.9283 50.5623L19.7453 50.3881L19.6931 49.9314L19.7646 49.5267L20.2543 49.1701L20.3988 48.6269L20.4593 48.0275L20.3781 47.7518L19.8911 47.7957L19.6545 47.9082L19.4427 48.0851L19.2253 48.0741L18.6241 47.4102L18.2816 46.9068L17.6667 45.8397L17.58 45.1991L18.0711 43.8137L18.8305 42.9235L19.7247 42.6122L19.5514 42.5532L18.1881 42.5408L17.7382 42.6505L17.3214 43.0154L17.0861 43.1279L16.8385 43.169L16.6129 43.3501L16.3927 43.6011L16.163 43.763L15.7077 43.7204L15.4875 43.7739L15.3294 43.6286L15.1959 43.3885L15.0225 43.324L14.8286 43.3981L14.4186 43.7218L14.0032 43.9125L13.501 43.7081L12.8421 43.3268L12.7128 43.4667L12.567 43.8206L12.483 44.3706L12.0153 43.8919L11.6177 43.2514L11.4829 42.8481L11.4733 42.3927L11.6893 42.2157L11.9245 42.3776L12.2739 41.2953L12.97 39.8798L13.2163 39.4642L13.3882 38.9196L13.3594 38.563L13.2067 38.2612L12.5587 37.5754L12.567 37.0144L12.6357 36.3807L12.8118 35.9993L12.8861 35.9266L13.7459 35.9363L13.4102 35.7387L12.7417 35.164L12.754 34.9596L12.9109 34.426L12.838 34.4795L12.6949 34.7264L12.4211 35.3231L12.2547 35.4617L11.7814 35.6029L11.6948 35.8951L11.6191 35.9719L11.3839 36.0048L11.3109 36.2778L11.2587 36.2956L11.1913 36.0021L11.1844 35.5138L11.2779 35.0639L11.4568 34.7114L12.1501 33.9089L11.8131 34.1572L11.0482 34.8993L10.6575 35.3862L10.5529 35.5508L10.5213 35.6894L10.5227 35.8485L10.6974 36.7003L10.6465 37.0939L9.98755 39.6795L9.86235 39.9374L9.74816 40.0718L9.63947 40.1034L9.31481 40.054L9.17035 39.8606L9.17174 39.6425L9.23228 39.3146L9.50605 38.0898L9.62435 37.7482L9.80043 37.43L10.1884 36.8731L10.1787 36.8361L9.92012 36.9458L9.81008 36.9101L9.73028 36.799L9.78116 35.138L9.99166 34.5893L10.0701 33.7896L10.2517 33.1024L10.4622 32.6004L10.6231 31.9571L10.8639 31.6704L10.9285 31.2315L11.1995 30.7555L11.4086 30.2575L11.2958 30.3069L9.95728 31.6018L9.61608 31.8363L9.15112 31.7733L8.7962 31.6279L8.51827 31.322L8.39447 30.7335L8.05193 30.7184L7.75889 30.6169L7.76166 30.5374L8.13997 30.2164L8.74666 30.1067L9.31481 29.5909L8.80993 29.2425L8.85258 29.1314L9.29281 28.8338L9.8527 27.8338L9.96551 26.9107L9.69862 26.4759L9.60235 26.1906L9.0672 25.8723L8.97778 25.465L9.03966 25.2359L9.21439 25.0123L9.47716 24.8395L9.88985 24.6721L9.51566 24.4938L9.37535 24.2826L9.26943 23.9767L9.25977 23.7998L9.45378 23.0097L9.56658 22.6832L9.78804 22.2662L10.7895 22.2896L10.9051 22.1058L11.0193 22.0989L11.531 22.2676L11.4554 22.0865L10.6176 21.0921L10.5419 20.9028L10.7813 20.3651L10.7978 20.1251L10.7634 19.8685L10.8322 19.6724L11.0977 19.5805L11.9066 19.5888L12.1061 19.4982L12.0153 19.2376L11.8268 18.8947L11.7897 18.6066L11.8337 18.3515L11.8434 17.8371L11.8805 17.6095L12.0731 17.2679L12.2313 17.1664L12.428 17.1074L12.8724 17.2212L13.0416 17.3584L13.2369 17.6835L13.38 17.6574L13.933 17.3035L14.0995 17.2528L14.3265 17.6629L15.2715 17.3365L16.5413 17.1911L17.3049 16.9757L18.1082 16.8975L18.858 16.652L19.6532 16.7645L19.6807 16.9071L19.6394 17.1047L19.4441 17.6383ZM20.1415 15.9689L20.1044 15.9909L19.9627 15.8551L19.7315 15.3681L20.0961 15.2707L20.2681 15.3311L20.2034 15.5382L20.1415 15.9689ZM19.2308 15.5794L19.0093 15.6781L18.7906 15.6713L18.4494 15.2419L18.3201 14.9292L18.3435 14.7221L18.4865 14.6521L18.8167 14.7536L18.9873 15.1116L19.0093 15.3435L19.0492 15.434L19.2542 15.5259L19.2308 15.5794ZM19.6463 13.8277L19.594 14.0116L19.887 14.0075L20.3121 14.1638L20.5694 14.183L20.784 14.3778L20.6657 14.7413L20.5377 14.8441L20.3933 14.8647L19.887 14.5012L19.2239 14.6521L19.0919 14.6055L19.0052 14.5054L18.9694 14.3805V14.1254L18.9337 14.05L18.6929 14.2914L18.5884 14.2626L18.5292 14.1473L18.5031 13.9087L18.5292 13.5644L18.6709 13.072L18.9089 12.9732L19.2638 13.0308L19.6711 13.3093L19.7935 13.4807L19.7907 13.6179L19.6463 13.8277ZM21.6094 12.3162L21.1733 12.3244L21.3989 11.88L21.6617 11.7675L22.1583 11.8169L22.0702 12.0171L21.6094 12.3162ZM20.9133 12.6509L20.5817 12.8374L20.4401 12.6838L20.4029 12.2009L20.0081 11.9938L19.8155 11.8649L19.6669 11.6207L19.7041 11.5453L19.9613 11.4452L20.4015 11.8882L20.5817 12.2449L20.9078 12.3505L20.9491 12.4053L20.9133 12.6509ZM26.3996 2.31125L26.4793 2.86129L26.6788 2.71863L26.9801 3.24536H27.1342L27.3873 3.03687L27.3364 3.52655L27.0736 4.88038L26.9994 5.10946L26.9498 5.51958L26.8976 5.6005L26.8205 6.42763L26.6431 6.69922L26.4945 7.34664L26.4339 7.40973L26.2166 7.16145L26.4339 6.17249L26.5234 5.5964L26.4656 5.29737L26.3431 5.02714L26.0102 5.01892L25.7296 5.14374L25.6704 4.98463L25.6622 4.77065L25.5948 4.69932L25.2219 4.71441L25.1119 4.65543L25.039 4.45791L25.0252 4.30016L25.3623 4.17672L25.6787 4.22335L26.1409 3.90925L25.852 2.85443L25.4682 2.7543L25.3802 2.65143L25.4544 2.47174L25.6649 2.37436L25.9882 1.83528L26.1822 1.75025L26.4229 1.76534L26.3996 2.31125ZM27.4258 2.49642L27.3281 2.58558L26.9512 1.79139L27.2305 0.879246L27.5689 0.908046L27.6226 1.14671L27.5895 1.36754L27.4176 1.38676L27.4024 1.45396L27.4561 1.87781L27.4588 2.36887L27.4258 2.49642ZM28.4603 0.156368V0.24689L28.2595 0.910788L28.2622 1.16454L27.9389 1.13985L27.8881 1.05893L27.8275 0.678968L27.8688 0.274329L27.9142 0.168716L28.0077 0.126187L28.1095 0.205741L28.2705 0L28.3544 0.0041232L28.4603 0.156368Z"/>
</mask>
<path d="M27.3364 69.7286L27.0131 69.9371L26.9113 70.1826L26.8329 70.2786L26.6197 70.3417L26.4078 70.3431L25.6016 69.852L25.4159 69.874L25.6003 69.6491L26.101 69.4652L26.3831 69.2225L27.0337 69.457L27.3364 69.7286ZM15.2468 53.3098L15.4091 53.4291L15.8164 53.4099L15.6815 53.676L15.233 53.9723L14.9318 54.2645L14.5672 54.5086L14.3911 54.2274L14.1862 54.2384L13.8725 53.698L13.8161 52.8887L14.226 52.6774L14.7928 52.6898L15.2468 53.3098ZM6.8372 40.674L7.38197 40.8427L7.78781 40.8399L8.14824 41.3297L8.34081 42.1005L8.79066 42.8604L9.37947 43.5188L9.40285 43.9207L9.19239 44.1361L8.75354 44.4036L8.75489 44.6902L9.0452 44.5462L9.29554 44.4804L9.89812 44.5435L10.1086 44.8343L10.2544 45.2691L10.3315 45.6257L10.2792 46.0125L10.1169 45.889L9.95178 45.5434L9.76877 45.3843L9.55554 45.2979L9.65185 45.7738L9.61335 46.4089L9.70551 46.4679L9.99166 46.4789L9.8032 47.1263L9.41112 47.3019L8.95578 47.3677L8.8457 47.5968L8.76316 47.8917L8.52516 48.3306L8.2115 48.5789L7.82358 48.5281L7.44389 48.332L7.11231 48.2922L6.88119 48.4088L6.73127 48.5172L6.58543 48.498L6.16862 48.5391L5.77654 48.5309L5.72012 48.3594L5.78754 47.8437L5.6995 47.7037L5.32531 47.6325L5.18635 47.509L4.97039 47.1524L4.92773 46.985L4.89746 46.7546L4.66912 46.4569L4.39258 46.243L4.23027 46.232L3.90696 46.5804L3.64008 46.9329L3.73362 47.1098L3.82031 47.3417L3.67585 47.509L3.237 47.8903L3.16823 48.0385L3.04993 48.1194L2.84081 48.0138L2.31943 48.0385L2.08004 47.9712L1.80077 47.6901L1.11981 47.5022L1.00561 47.0509L0.874922 46.9658L0.103194 46.1908L0 45.9316L0.100423 45.7766L0.387921 45.542L1.35504 45.1525L1.50777 44.9961L1.53938 44.8576L1.25461 44.6998L0.998729 44.5242L0.912077 44.4104L0.905192 44.3103L1.05104 44.1799L1.34265 44.1704L1.57381 44.2293L1.75677 44.1128L2.07865 43.9948L2.29466 43.8467L2.48039 43.464L2.67708 43.1197L2.69773 42.9331L2.86969 42.2761L2.96462 42.1129L3.57543 41.6822L3.7295 41.9181L4.03077 41.9757L4.30043 41.759L4.62369 41.0745L4.84792 41.032L5.09558 41.0882L5.58254 41.0018L6.4465 40.6822L6.8372 40.674ZM11.7388 39.2749L11.2518 39.2804L11.0757 39.2214L10.8652 39.0568L10.6286 38.1241L10.7139 37.7935L10.8102 37.6316L10.9175 37.5054L11.1747 37.4533L11.4306 37.6302L11.5269 37.7948L11.7415 38.4258L11.7814 38.9662L11.7388 39.2749ZM7.78781 35.9911L7.92674 36.8704L8.06293 37.4135L8.07258 37.5987L7.94462 37.8566L7.3077 38.1995L7.10681 38.2009L7.09858 38.1172L7.24166 37.7688L7.11785 37.3724L7.17835 37.0706L7.1192 37.0157L6.99539 37.0583L6.53866 37.537L6.38597 37.5836L6.36947 37.4862L6.48227 37.0939L6.496 36.8251L6.56343 36.6605L6.68723 36.5082L6.83443 36.3944L6.95412 36.3779L7.0807 36.4959L7.44939 36.1667L7.78781 35.9911ZM8.40135 36.7867L8.3202 36.8594L8.12485 36.8388L8.05193 36.7277L8.01204 36.5576L8.00789 36.2462L8.1262 36.0227L8.62697 35.6852L8.39997 35.5659L8.39174 35.4809L8.52104 35.1997L9.05893 34.7621L9.20339 34.6826L9.34647 34.6949L9.06858 35.4712L8.40135 36.7867ZM9.14285 33.1394L7.60481 33.5249L7.0752 33.4906L7.02704 33.3013L7.13297 33.1751L7.57181 33.053L7.74927 32.1244L7.0862 31.6951L7.05181 31.5757L7.10408 31.3714L7.18112 31.2794L7.58281 31.0627L7.75204 31.0147L7.88958 31.0435L8.17301 31.2945L8.49216 31.8199L8.92001 31.9036L9.21028 32.1258L9.14285 33.1394ZM5.93885 31.466L5.72012 31.5044L5.70362 31.4056L6.0847 30.9338L6.33093 30.8556L6.41762 30.9022L6.23877 31.1766L5.93885 31.466ZM2.81465 28.7981L2.47489 28.8941L2.34969 28.8379L2.32765 28.7487L2.40469 28.506L2.66473 28.4195L2.85319 28.5512L2.88346 28.6706L2.81465 28.7981ZM7.20862 28.8036L7.09443 28.8941L6.95 28.8763L6.80693 28.7597L6.61708 28.4278L7.04354 28.1973L7.21412 28.3331L7.27877 28.4881L7.28154 28.6596L7.20862 28.8036ZM3.45985 27.7392L3.29616 27.7789L3.08292 27.7406L2.95085 27.6308L2.81743 27.196L2.79266 26.9327L2.85181 26.4416L2.83804 25.8531L3.27827 25.8353L3.39246 25.9204L3.46812 27.6637L3.45985 27.7392ZM7.72727 24.9684L7.72178 25.2839L7.65297 25.6556L7.741 26.0493L7.76166 26.3305L7.92401 26.4196L8.02304 26.5486L8.74666 26.6926L9.41935 26.6514L9.5487 26.7667L9.56381 26.9505L9.45789 27.1521L9.07408 27.5197L8.61735 28.1137L8.48116 28.2371L8.33393 28.2426L8.228 28.1891L8.15235 27.1329L7.65712 27.2687L7.25816 27.2536L7.03943 27.1247L6.88674 26.8764L6.5772 26.2372L5.67746 25.9848L5.42296 25.6309L5.34592 25.417L5.37758 25.299L5.56466 25.0356L5.79854 25.1289L5.943 25.0713L6.03104 24.9533L6.02966 24.8559L5.90724 24.6269L5.90174 24.5556L6.82204 24.2648L6.90324 23.8094L7.1027 23.7723L7.33108 23.9218L7.64335 24.3951L7.72727 24.9684ZM3.63046 23.6928L4.06654 24.096L3.71989 24.7654L3.18746 24.7627L2.43773 24.2743L2.43496 24.1742L2.49689 24.0275L2.60969 23.9109L2.72662 23.8834L2.91235 23.963L3.17096 23.8341L3.37731 23.8752L3.63046 23.6928ZM7.51816 18.7562L7.02704 20.0304L6.83443 20.062L6.66524 20.3802L6.14247 20.73L6.5992 20.7368L6.72712 20.8534L6.72989 21.1044L6.64324 21.2498L6.05304 21.8287L5.64724 22.0482L5.20973 22.6517L4.98827 22.6586L4.76954 23.0412L4.5907 23.2099H4.48889L4.37331 23.1249L4.10231 22.7504L4.59481 22.3814L4.64019 22.1743L4.97727 21.9576L4.94835 21.8904L4.41323 21.5859L4.20273 21.3815L4.222 21.2745L4.47927 21.0386L4.3582 21.0084L4.27566 20.8808L4.12708 20.8315L4.0817 20.7135L4.05416 20.4008L4.09404 20.0812L4.2495 19.9399L4.31281 19.789L4.37608 19.7424L4.61681 19.8233L4.8617 20.0798L5.14785 19.981L5.47939 20.029L5.48627 19.9701L5.24277 19.3405L5.28677 19.2116L5.41885 19.0648L6.18373 18.6135L7.13708 17.8536L7.3682 17.7342L7.43835 17.8385L7.53466 18.2322L7.51816 18.7562ZM19.4441 17.6383L19.477 18.239L19.4317 18.4215L19.3395 18.6464L19.0479 19.0648L18.2802 19.6614L16.8756 21.0276L16.0447 21.7025L15.9305 22.0262L15.8686 22.4761L16.3652 22.5652L16.5579 22.7175L16.4396 22.9452L15.7035 23.7367L15.4875 24.4499L16.0516 24.4239L16.5166 24.2867L17.4424 23.8423L18.3132 23.5117L18.7314 23.498L19.5445 23.7614L19.7288 23.7696L20.0741 23.6475L20.4236 23.6256L22.787 23.7079L23.4446 23.5528L23.8793 23.738L24.2425 24.1989L24.5877 25.048L24.5767 25.1893L24.3677 25.5747L23.9824 26.0575L23.6509 26.7214L23.5546 27.078L23.49 27.469L23.3854 27.8297L22.7264 29.5169L22.084 30.4468L21.7979 31.1053L21.4443 31.6279L21.1031 31.9571L20.7399 32.1765L19.6889 32.4097L19.3945 32.577L19.0437 32.8637L18.6751 33.0064L19.107 32.9885L19.5349 32.8294L20.3149 32.7718L21.2118 33.3205L21.1279 33.769L20.7675 34.1229L19.9476 34.1792L19.1813 34.9651L18.836 35.2065L18.47 35.3259L18.0133 35.2902L17.1838 35.0804L16.8206 34.8609L17.148 35.2189L17.5208 35.4054L19.6793 35.8457L19.81 35.7991L20.4978 35.3354L21.4154 35.3286L23.1612 36.1818L23.6633 36.8333L24.3842 37.7619L24.7762 38.1241L25.0596 38.4519L25.2343 38.9416L25.5727 40.5547L25.9593 42.1211L26.4642 43.8082L26.6939 44.2746L26.9952 44.6011L28.5195 45.35L28.8593 45.5983L29.4508 46.317L30.0218 47.081L30.5527 47.6667L31.1264 48.14L30.8486 48.3855L30.6587 48.7709L30.8017 49.2935L31.0342 49.7914L31.4924 50.587L31.8968 51.4525L31.7483 51.3222L31.5914 51.2509L31.3768 51.2728L31.1677 51.2317L30.7811 50.9601L30.4097 50.6268L29.6709 50.7612L29.261 50.7009L28.9047 50.7105L29.5801 50.9025L30.3189 50.9162L31.9477 52.3661L32.498 53.222L32.8254 54.3481L32.6026 54.8529L32.2559 55.1793L31.9326 55.5511L31.6286 55.9722L32.5324 56.5881L32.7278 56.5702L32.9272 56.4838L33.1198 56.2739L33.4431 55.7623L33.6096 55.5812L34.1722 55.5154L34.6441 55.5552L35.1132 55.669L35.5273 55.6334L36.3596 55.8528L36.7874 56.0504L37.8481 56.9378L38.0778 57.4234L38.1838 58.0489L38.1961 58.7402L38.0173 59.3698L37.8123 59.9376L37.6858 60.6688L37.5963 60.9321L37.4711 61.1378L36.9098 61.7126L36.537 61.9485L36.3802 61.8457L36.211 61.8593L36.1931 61.9979L36.3706 62.29L36.3719 62.6426L36.0404 62.9032L35.7034 63.0143L35.1393 62.8757L34.3566 63.3613L34.9192 63.611L35.0334 63.8757L34.8931 64.3407L34.5395 64.5478L34.1461 64.6397L33.7444 64.6617L33.4114 64.7755L33.0923 64.995L33.4926 64.8797L33.7705 64.9813L33.9452 65.3708L34.1034 65.4833L34.8876 65.6493L35.3718 65.6479L36.3073 65.5532L36.7571 65.5546L36.9167 65.6259L36.9195 65.9483L36.8507 66.7384L36.7269 66.9016L35.4874 67.5628L35.2329 68.0236L35.1627 68.3021L34.4377 68.2527L34.0979 68.5476L33.5105 68.7437L33.0565 68.9509L32.6122 69.2128L32.2463 69.291L30.6683 68.9797L29.715 69.0057L28.4232 69.2773L28.0903 69.232L27.5923 68.9728L27.0805 68.7972L26.4931 68.7204L25.9855 68.479L26.3019 68.9412L25.5989 69.387L25.2742 69.4748L24.9372 69.4611L24.2493 69.5818L23.6096 69.516L23.7059 69.8315L23.8765 70.1072L23.7376 70.2265L23.5917 70.2567L22.3784 70.0496L22.2064 70.088L22.0565 70.28L21.6149 70.1771L21.1857 69.8548L20.7303 69.6367L20.2516 69.5338L19.8719 69.5695L18.3077 70.0797L17.9954 70.59L17.8386 71.3129L17.613 71.9534L17.2443 72.4459L16.8055 72.5103L16.3927 72.1688L15.6086 71.7929L15.3417 71.5378L15.2564 71.5227L15.1684 71.6132L14.8602 71.7285L14.5424 71.734L14.0513 71.8355L13.197 72.1413L12.8517 72.3485L12.1102 72.9204L11.9589 73.0782L11.6893 73.6529L11.2779 73.7544L10.901 73.3868L10.4718 73.2579L10.0192 73.3827L9.74539 73.5789L9.61747 73.4197L9.61335 73.0933L9.94351 72.7037L10.8253 72.4088L11.5999 71.6421L11.9795 71.1743L12.1309 70.9096L12.3166 70.7409L12.5587 70.6778L12.6839 70.3856L13.7583 69.2087L13.8464 68.9385L13.9 68.4529L13.988 67.9852L14.863 67.6821L15.2812 66.6958L15.3967 66.6176L16.617 66.4366L17.5222 66.4517L18.4219 66.6451L18.8827 66.6629L19.345 66.5957L19.7082 66.3282L20.3286 65.3626L20.6781 64.936L21.0784 64.5506L21.4526 64.1103L22.0592 63.2928L21.6493 63.5753L21.154 64.0225L20.8665 64.2817L19.9531 64.5423L19.5596 64.8084L18.8704 65.4078L18.7383 65.4572L17.6983 65.3132L16.9252 64.5355L16.4313 64.2172L16.2277 64.1802L16.0158 64.2749L15.5646 64.3722L15.1051 64.3558L15.3404 63.995L15.6595 63.7934L14.9442 63.6535L14.7447 63.5437L14.5177 63.29L13.9564 63.2475L13.6895 63.312L13.2383 63.6466L12.5257 64.0019L11.6659 63.5095L11.498 63.2941L11.5022 62.8757L11.3729 62.5438L11.1349 62.4272L11.4389 61.9951L11.8076 61.7071L12.6165 61.4204L13.8422 60.7387L14.5301 60.4479L15.1684 59.9459L15.4325 59.6386L15.6237 59.2175L15.8136 58.7018L16.0846 58.2807L15.8219 58.1805L15.7035 57.8637L15.7352 57.5414L15.8562 57.2547L15.7475 56.8953L15.5536 56.5194L15.5646 56.2259L15.6169 55.9118L15.1244 55.9283L14.6332 56.027L14.1875 56.2492L13.7555 56.551L13.3717 56.6073L13.3772 56.3658L13.5437 56.0668L13.9784 55.6388L14.4434 55.2836L14.6085 55.0134L14.7392 54.6992L14.9703 54.4469L15.5784 53.9695L16.7435 53.4319L16.9169 53.4003L17.3736 53.4634L17.8235 53.3811L18.2169 53.1877L18.609 53.1465L19.4922 53.7048L19.2294 52.8407L19.6187 52.6335L20.1828 53.4154L20.3919 53.4977L20.8349 53.3838L20.6643 53.2522L20.4648 53.2439L20.2034 53.1259L19.9833 52.875L19.6174 52.0766L19.638 51.602L19.8843 51.1083L20.1567 50.6529L19.9283 50.5623L19.7453 50.3881L19.6931 49.9314L19.7646 49.5267L20.2543 49.1701L20.3988 48.6269L20.4593 48.0275L20.3781 47.7518L19.8911 47.7957L19.6545 47.9082L19.4427 48.0851L19.2253 48.0741L18.6241 47.4102L18.2816 46.9068L17.6667 45.8397L17.58 45.1991L18.0711 43.8137L18.8305 42.9235L19.7247 42.6122L19.5514 42.5532L18.1881 42.5408L17.7382 42.6505L17.3214 43.0154L17.0861 43.1279L16.8385 43.169L16.6129 43.3501L16.3927 43.6011L16.163 43.763L15.7077 43.7204L15.4875 43.7739L15.3294 43.6286L15.1959 43.3885L15.0225 43.324L14.8286 43.3981L14.4186 43.7218L14.0032 43.9125L13.501 43.7081L12.8421 43.3268L12.7128 43.4667L12.567 43.8206L12.483 44.3706L12.0153 43.8919L11.6177 43.2514L11.4829 42.8481L11.4733 42.3927L11.6893 42.2157L11.9245 42.3776L12.2739 41.2953L12.97 39.8798L13.2163 39.4642L13.3882 38.9196L13.3594 38.563L13.2067 38.2612L12.5587 37.5754L12.567 37.0144L12.6357 36.3807L12.8118 35.9993L12.8861 35.9266L13.7459 35.9363L13.4102 35.7387L12.7417 35.164L12.754 34.9596L12.9109 34.426L12.838 34.4795L12.6949 34.7264L12.4211 35.3231L12.2547 35.4617L11.7814 35.6029L11.6948 35.8951L11.6191 35.9719L11.3839 36.0048L11.3109 36.2778L11.2587 36.2956L11.1913 36.0021L11.1844 35.5138L11.2779 35.0639L11.4568 34.7114L12.1501 33.9089L11.8131 34.1572L11.0482 34.8993L10.6575 35.3862L10.5529 35.5508L10.5213 35.6894L10.5227 35.8485L10.6974 36.7003L10.6465 37.0939L9.98755 39.6795L9.86235 39.9374L9.74816 40.0718L9.63947 40.1034L9.31481 40.054L9.17035 39.8606L9.17174 39.6425L9.23228 39.3146L9.50605 38.0898L9.62435 37.7482L9.80043 37.43L10.1884 36.8731L10.1787 36.8361L9.92012 36.9458L9.81008 36.9101L9.73028 36.799L9.78116 35.138L9.99166 34.5893L10.0701 33.7896L10.2517 33.1024L10.4622 32.6004L10.6231 31.9571L10.8639 31.6704L10.9285 31.2315L11.1995 30.7555L11.4086 30.2575L11.2958 30.3069L9.95728 31.6018L9.61608 31.8363L9.15112 31.7733L8.7962 31.6279L8.51827 31.322L8.39447 30.7335L8.05193 30.7184L7.75889 30.6169L7.76166 30.5374L8.13997 30.2164L8.74666 30.1067L9.31481 29.5909L8.80993 29.2425L8.85258 29.1314L9.29281 28.8338L9.8527 27.8338L9.96551 26.9107L9.69862 26.4759L9.60235 26.1906L9.0672 25.8723L8.97778 25.465L9.03966 25.2359L9.21439 25.0123L9.47716 24.8395L9.88985 24.6721L9.51566 24.4938L9.37535 24.2826L9.26943 23.9767L9.25977 23.7998L9.45378 23.0097L9.56658 22.6832L9.78804 22.2662L10.7895 22.2896L10.9051 22.1058L11.0193 22.0989L11.531 22.2676L11.4554 22.0865L10.6176 21.0921L10.5419 20.9028L10.7813 20.3651L10.7978 20.1251L10.7634 19.8685L10.8322 19.6724L11.0977 19.5805L11.9066 19.5888L12.1061 19.4982L12.0153 19.2376L11.8268 18.8947L11.7897 18.6066L11.8337 18.3515L11.8434 17.8371L11.8805 17.6095L12.0731 17.2679L12.2313 17.1664L12.428 17.1074L12.8724 17.2212L13.0416 17.3584L13.2369 17.6835L13.38 17.6574L13.933 17.3035L14.0995 17.2528L14.3265 17.6629L15.2715 17.3365L16.5413 17.1911L17.3049 16.9757L18.1082 16.8975L18.858 16.652L19.6532 16.7645L19.6807 16.9071L19.6394 17.1047L19.4441 17.6383ZM20.1415 15.9689L20.1044 15.9909L19.9627 15.8551L19.7315 15.3681L20.0961 15.2707L20.2681 15.3311L20.2034 15.5382L20.1415 15.9689ZM19.2308 15.5794L19.0093 15.6781L18.7906 15.6713L18.4494 15.2419L18.3201 14.9292L18.3435 14.7221L18.4865 14.6521L18.8167 14.7536L18.9873 15.1116L19.0093 15.3435L19.0492 15.434L19.2542 15.5259L19.2308 15.5794ZM19.6463 13.8277L19.594 14.0116L19.887 14.0075L20.3121 14.1638L20.5694 14.183L20.784 14.3778L20.6657 14.7413L20.5377 14.8441L20.3933 14.8647L19.887 14.5012L19.2239 14.6521L19.0919 14.6055L19.0052 14.5054L18.9694 14.3805V14.1254L18.9337 14.05L18.6929 14.2914L18.5884 14.2626L18.5292 14.1473L18.5031 13.9087L18.5292 13.5644L18.6709 13.072L18.9089 12.9732L19.2638 13.0308L19.6711 13.3093L19.7935 13.4807L19.7907 13.6179L19.6463 13.8277ZM21.6094 12.3162L21.1733 12.3244L21.3989 11.88L21.6617 11.7675L22.1583 11.8169L22.0702 12.0171L21.6094 12.3162ZM20.9133 12.6509L20.5817 12.8374L20.4401 12.6838L20.4029 12.2009L20.0081 11.9938L19.8155 11.8649L19.6669 11.6207L19.7041 11.5453L19.9613 11.4452L20.4015 11.8882L20.5817 12.2449L20.9078 12.3505L20.9491 12.4053L20.9133 12.6509ZM26.3996 2.31125L26.4793 2.86129L26.6788 2.71863L26.9801 3.24536H27.1342L27.3873 3.03687L27.3364 3.52655L27.0736 4.88038L26.9994 5.10946L26.9498 5.51958L26.8976 5.6005L26.8205 6.42763L26.6431 6.69922L26.4945 7.34664L26.4339 7.40973L26.2166 7.16145L26.4339 6.17249L26.5234 5.5964L26.4656 5.29737L26.3431 5.02714L26.0102 5.01892L25.7296 5.14374L25.6704 4.98463L25.6622 4.77065L25.5948 4.69932L25.2219 4.71441L25.1119 4.65543L25.039 4.45791L25.0252 4.30016L25.3623 4.17672L25.6787 4.22335L26.1409 3.90925L25.852 2.85443L25.4682 2.7543L25.3802 2.65143L25.4544 2.47174L25.6649 2.37436L25.9882 1.83528L26.1822 1.75025L26.4229 1.76534L26.3996 2.31125ZM27.4258 2.49642L27.3281 2.58558L26.9512 1.79139L27.2305 0.879246L27.5689 0.908046L27.6226 1.14671L27.5895 1.36754L27.4176 1.38676L27.4024 1.45396L27.4561 1.87781L27.4588 2.36887L27.4258 2.49642ZM28.4603 0.156368V0.24689L28.2595 0.910788L28.2622 1.16454L27.9389 1.13985L27.8881 1.05893L27.8275 0.678968L27.8688 0.274329L27.9142 0.168716L28.0077 0.126187L28.1095 0.205741L28.2705 0L28.3544 0.0041232L28.4603 0.156368Z" fill="var(--fill-0, #71B219)" stroke="var(--stroke-0, white)" mask="url(#path-1-inside-1_0_235)"/>
</g>
</svg>
