<svg preserveAspectRatio="none" width="100%" height="100%" overflow="visible" style="display: block;" viewBox="0 0 0.674368 0.894" fill="none" xmlns="http://www.w3.org/2000/svg">
<g id="GD">
<mask id="path-1-inside-1_0_213" fill="white">
<path d="M0.256812 0.878912L0 0.894L0.101602 0.749791L0.123607 0.502613L0.258195 0.201875L0.468356 0L0.674368 0.0535595L0.597454 0.715468L0.256812 0.878912Z"/>
</mask>
<path d="M0.256812 0.878912L0 0.894L0.101602 0.749791L0.123607 0.502613L0.258195 0.201875L0.468356 0L0.674368 0.0535595L0.597454 0.715468L0.256812 0.878912Z" fill="var(--fill-0, #71B219)"/>
<path d="M0.256812 0.878913L0.286136 1.37805L0.38438 1.37228L0.473109 1.32971L0.256812 0.878913ZM0 0.894L-0.408741 0.606023L-1.00616 1.45397L0.0293234 1.39314L0 0.894ZM0.101602 0.749791L0.510342 1.03777L0.587719 0.927944L0.599632 0.794129L0.101602 0.749791ZM0.123607 0.502613L-0.332775 0.298369L-0.366995 0.374833L-0.374423 0.458275L0.123607 0.502613ZM0.258195 0.201875L-0.0881781 -0.158715L-0.158408 -0.0912548L-0.198187 -0.00236861L0.258195 0.201875ZM0.468356 0L0.594166 -0.483913L0.323598 -0.554256L0.121983 -0.36059L0.468356 0ZM0.674368 0.0535595L1.17103 0.111271L1.22124 -0.320884L0.800177 -0.430354L0.674368 0.0535595ZM0.597454 0.715468L0.813751 1.16626L1.06229 1.04701L1.09411 0.77318L0.597454 0.715468ZM0.256812 0.878913L0.227489 0.379773L-0.0293234 0.39486L0 0.894L0.0293234 1.39314L0.286136 1.37805L0.256812 0.878913ZM0 0.894L0.408741 1.18198L0.510342 1.03777L0.101602 0.749791L-0.307139 0.461814L-0.408741 0.606023L0 0.894ZM0.101602 0.749791L0.599632 0.794129L0.621637 0.54695L0.123607 0.502613L-0.374423 0.458275L-0.396429 0.705454L0.101602 0.749791ZM0.123607 0.502613L0.579989 0.706856L0.714577 0.406119L0.258195 0.201875L-0.198187 -0.00236861L-0.332775 0.298369L0.123607 0.502613ZM0.258195 0.201875L0.604569 0.562465L0.81473 0.36059L0.468356 0L0.121983 -0.36059L-0.0881781 -0.158715L0.258195 0.201875ZM0.468356 0L0.342547 0.483913L0.548558 0.537473L0.674368 0.0535595L0.800177 -0.430354L0.594166 -0.483913L0.468356 0ZM0.674368 0.0535595L0.17771 -0.00415213L0.100796 0.657756L0.597454 0.715468L1.09411 0.77318L1.17103 0.111271L0.674368 0.0535595ZM0.597454 0.715468L0.381157 0.264674L0.040515 0.428118L0.256812 0.878913L0.473109 1.32971L0.813751 1.16626L0.597454 0.715468Z" fill="var(--stroke-0, white)" mask="url(#path-1-inside-1_0_213)"/>
</g>
</svg>
