<svg preserveAspectRatio="none" width="100%" height="100%" overflow="visible" style="display: block;" viewBox="0 0 26 13" fill="none" xmlns="http://www.w3.org/2000/svg"><g id="GE"><mask id="path-1-inside-1_0_153" fill="white"><path d="M25 9L25 9L25 9L24 10L24 10L24 10L24 10L24 10L24 10L24 10L24 10L24 11L25 11L25 11L26 12L26 12L26 12L26 12L25 13L25 13L25 13L25 13L24 12L24 12L24 12L23 12L23 12L22 12L22 12L22 12L22 12L21 11L20 11L20 11L19 12L19 12L19 12L19 12L19 12L19 12L18 12L17 12L16 12L16 12L16 12L15 12L15 13L14 13L14 13L13 13L13 13L13 12L13 12L13 12L13 12L12 12L12 12L12 12L12 12L12 12L12 12L11 11L11 11L11 10L11 10L10 10L10 10L10 10L10 10L10 11L10 11L9 11L9 11L9 11L8 11L8 11L7 11L7 11L7 11L6 11L6 11L7 10L7 9L7 9L7 8L6 7L6 6L6 5L6 4L4 4L4 3L3 3L2 2L2 2L1 1L0 1L0 0L0 0L1 0L1 0L2 0L3 0L3 0L4 1L4 1L5 1L6 2L6 2L8 2L8 2L8 2L9 2L9 2L10 2L10 2L11 2L11 2L12 2L12 3L12 3L13 4L14 4L14 4L15 4L15 4L15 5L15 5L14 5L15 5L15 5L15 5L16 5L16 5L16 5L17 5L18 4H18L18 4L18 4L18 5L19 4L19 4L19 4L20 5L20 5L20 5L21 6L22 5L22 6L22 6L22 6L22 6L22 7L22 7L22 7L23 8L23 8L23 8L23 8L24 8L24 8L24 8L25 9L25 9Z"/></mask><path d="M25 9L25 9L25 9L24 10L24 10L24 10L24 10L24 10L24 10L24 10L24 10L24 11L25 11L25 11L26 12L26 12L26 12L26 12L25 13L25 13L25 13L25 13L24 12L24 12L24 12L23 12L23 12L22 12L22 12L22 12L22 12L21 11L20 11L20 11L19 12L19 12L19 12L19 12L19 12L19 12L18 12L17 12L16 12L16 12L16 12L15 12L15 13L14 13L14 13L13 13L13 13L13 12L13 12L13 12L13 12L12 12L12 12L12 12L12 12L12 12L12 12L11 11L11 11L11 10L11 10L10 10L10 10L10 10L10 10L10 11L10 11L9 11L9 11L9 11L8 11L8 11L7 11L7 11L7 11L6 11L6 11L7 10L7 9L7 9L7 8L6 7L6 6L6 5L6 4L4 4L4 3L3 3L2 2L2 2L1 1L0 1L0 0L0 0L1 0L1 0L2 0L3 0L3 0L4 1L4 1L5 1L6 2L6 2L8 2L8 2L8 2L9 2L9 2L10 2L10 2L11 2L11 2L12 2L12 3L12 3L13 4L14 4L14 4L15 4L15 4L15 5L15 5L14 5L15 5L15 5L15 5L16 5L16 5L16 5L17 5L18 4H18L18 4L18 4L18 5L19 4L19 4L19 4L20 5L20 5L20 5L21 6L22 5L22 6L22 6L22 6L22 6L22 7L22 7L22 7L23 8L23 8L23 8L23 8L24 8L24 8L24 8L25 9L25 9Z" fill="var(--fill-0,#71B219)" stroke="var(--stroke-0,white)" mask="url(#path-1-inside-1_0_153)"/></g></svg>