<svg preserveAspectRatio="none" width="100%" height="100%" overflow="visible" style="display: block;" viewBox="0 0 25.8466 12.9677" fill="none" xmlns="http://www.w3.org/2000/svg">
<g id="GE">
<mask id="path-1-inside-1_0_153" fill="white">
<path d="M24.9083 8.76768L24.8148 8.95149L24.5933 9.28482L24.4172 9.45489L24.2218 9.48231L24.0279 9.56051L23.9604 9.73883L23.9522 9.96927L23.9852 10.1352L24.0347 10.197L24.2328 10.2518L24.4282 10.736L24.7349 10.9802L25.2137 11.2573L25.6388 11.5741L25.8466 11.8649L25.8066 12.0762L25.6677 12.5123L25.3128 12.8758L25.017 12.9677L24.9124 12.9335L24.7198 12.821L24.3305 12.5398L23.9082 12.3176L23.5835 12.3903L23.3702 12.4739L22.948 12.3752L22.4486 12.1832L22.1886 11.9939L22.0744 11.8539L22.1514 11.6057L21.0192 11.1571L20.4731 11.0323L20.2268 11.1681L19.3946 11.843L19.2955 11.9116L18.6599 12.0048L18.6585 12.0597L18.803 12.2051L18.7755 12.2503L17.7093 12.2655L17.3544 12.3532L16.4051 12.2394L16.0929 12.2901L15.826 12.3958L15.1766 12.5164L14.7282 12.6577L14.1559 12.7318L13.5657 12.7387L13.3635 12.7812L13.3717 12.6838L13.3401 12.5343L13.2204 12.4259L13.0525 12.3573L12.7444 12.3834L12.4597 12.3107L12.2574 12.1214L12.2106 11.976L12.3276 11.8581L12.2423 11.7607L11.8874 11.5275L11.3068 10.9445L10.978 10.8142L10.8474 10.448L10.7166 10.3698L10.4401 10.3355L10.1485 10.3712L10.0852 10.4123L9.99577 10.4713L9.76739 10.9281L9.60643 11.0831L9.21305 11.0104L8.88701 10.9034L8.62151 10.843L8.10562 10.8046L7.51954 10.7964L7.12474 11.1215L6.95412 11.0789L6.65419 10.9198L6.16996 10.7882L5.91412 10.6853L6.65419 9.721L6.87435 9.14626L6.88124 8.79786L6.89081 8.35892L6.50566 7.44541L6.17551 6.14507L5.83158 4.78438L5.56331 4.37561L4.44212 3.90239L4.18208 3.3647L3.31404 2.66928L2.10754 2.36613L1.86815 2.2372L0.819925 1.35932L0 0.792826L0.176076 0.44991L0.40992 0.0877802L0.663077 0L1.40458 0.142659L2.08831 0.30587L2.58631 0.18929L3.17919 0.474607L3.72127 0.801073L4.26604 1.03151L5.32804 1.2496L5.72427 1.54999L6.18651 1.85037L7.99832 2.00262L8.14408 1.95599L8.27759 1.91212L8.88558 1.80374L9.42346 1.82296L9.99166 2.18781L10.3548 2.16587L10.7428 2.11099L11.2422 2.30577L11.6342 2.52252L11.6673 2.74061L12.0112 3.05883L13.0099 3.54302L13.8202 3.81737L14.072 4.00938L14.6883 4.32622L14.7502 4.42639L14.7378 4.55666L14.5617 4.79396L14.5177 5.00385L14.6002 5.12591L14.8561 5.24115L15.3624 5.26719L15.5453 5.11633L15.9237 5.00795L16.2992 4.81318L16.7999 4.55394L17.4809 4.31802H17.7534L18.0147 4.39073L18.1977 4.52104L18.5044 5.00523L18.8112 4.3276L18.8897 4.27687L19.1703 4.41404L19.6642 4.60195L20.0067 4.70208L20.1924 4.84198L20.7152 5.45924L21.5612 5.42768L21.9189 5.52232L22.1115 5.62383L22.1968 5.74318L22.0455 6.35492L21.8364 6.9914L21.8542 7.14364L22.1927 7.38367L22.6549 7.63608L22.9026 7.83906L23.0717 8.02149L23.4363 8.16004L23.8669 8.2451L24.0705 8.25607L24.2837 8.40969L24.8381 8.69635L24.9083 8.76768Z"/>
</mask>
<path d="M24.9083 8.76768L24.8148 8.95149L24.5933 9.28482L24.4172 9.45489L24.2218 9.48231L24.0279 9.56051L23.9604 9.73883L23.9522 9.96927L23.9852 10.1352L24.0347 10.197L24.2328 10.2518L24.4282 10.736L24.7349 10.9802L25.2137 11.2573L25.6388 11.5741L25.8466 11.8649L25.8066 12.0762L25.6677 12.5123L25.3128 12.8758L25.017 12.9677L24.9124 12.9335L24.7198 12.821L24.3305 12.5398L23.9082 12.3176L23.5835 12.3903L23.3702 12.4739L22.948 12.3752L22.4486 12.1832L22.1886 11.9939L22.0744 11.8539L22.1514 11.6057L21.0192 11.1571L20.4731 11.0323L20.2268 11.1681L19.3946 11.843L19.2955 11.9116L18.6599 12.0048L18.6585 12.0597L18.803 12.2051L18.7755 12.2503L17.7093 12.2655L17.3544 12.3532L16.4051 12.2394L16.0929 12.2901L15.826 12.3958L15.1766 12.5164L14.7282 12.6577L14.1559 12.7318L13.5657 12.7387L13.3635 12.7812L13.3717 12.6838L13.3401 12.5343L13.2204 12.4259L13.0525 12.3573L12.7444 12.3834L12.4597 12.3107L12.2574 12.1214L12.2106 11.976L12.3276 11.8581L12.2423 11.7607L11.8874 11.5275L11.3068 10.9445L10.978 10.8142L10.8474 10.448L10.7166 10.3698L10.4401 10.3355L10.1485 10.3712L10.0852 10.4123L9.99577 10.4713L9.76739 10.9281L9.60643 11.0831L9.21305 11.0104L8.88701 10.9034L8.62151 10.843L8.10562 10.8046L7.51954 10.7964L7.12474 11.1215L6.95412 11.0789L6.65419 10.9198L6.16996 10.7882L5.91412 10.6853L6.65419 9.721L6.87435 9.14626L6.88124 8.79786L6.89081 8.35892L6.50566 7.44541L6.17551 6.14507L5.83158 4.78438L5.56331 4.37561L4.44212 3.90239L4.18208 3.3647L3.31404 2.66928L2.10754 2.36613L1.86815 2.2372L0.819925 1.35932L0 0.792826L0.176076 0.44991L0.40992 0.0877802L0.663077 0L1.40458 0.142659L2.08831 0.30587L2.58631 0.18929L3.17919 0.474607L3.72127 0.801073L4.26604 1.03151L5.32804 1.2496L5.72427 1.54999L6.18651 1.85037L7.99832 2.00262L8.14408 1.95599L8.27759 1.91212L8.88558 1.80374L9.42346 1.82296L9.99166 2.18781L10.3548 2.16587L10.7428 2.11099L11.2422 2.30577L11.6342 2.52252L11.6673 2.74061L12.0112 3.05883L13.0099 3.54302L13.8202 3.81737L14.072 4.00938L14.6883 4.32622L14.7502 4.42639L14.7378 4.55666L14.5617 4.79396L14.5177 5.00385L14.6002 5.12591L14.8561 5.24115L15.3624 5.26719L15.5453 5.11633L15.9237 5.00795L16.2992 4.81318L16.7999 4.55394L17.4809 4.31802H17.7534L18.0147 4.39073L18.1977 4.52104L18.5044 5.00523L18.8112 4.3276L18.8897 4.27687L19.1703 4.41404L19.6642 4.60195L20.0067 4.70208L20.1924 4.84198L20.7152 5.45924L21.5612 5.42768L21.9189 5.52232L22.1115 5.62383L22.1968 5.74318L22.0455 6.35492L21.8364 6.9914L21.8542 7.14364L22.1927 7.38367L22.6549 7.63608L22.9026 7.83906L23.0717 8.02149L23.4363 8.16004L23.8669 8.2451L24.0705 8.25607L24.2837 8.40969L24.8381 8.69635L24.9083 8.76768Z" fill="var(--fill-0, #71B219)" stroke="var(--stroke-0, white)" mask="url(#path-1-inside-1_0_153)"/>
</g>
</svg>
