<svg preserveAspectRatio="none" width="100%" height="100%" overflow="visible" style="display: block;" viewBox="0 0 11 14" fill="none" xmlns="http://www.w3.org/2000/svg"><g id="GF"><mask id="path-1-inside-1_0_155" fill="white"><path d="M11 7L11 7L11 7L11 7L11 7L11 8L10 8L10 8L10 8L10 8L10 9L10 9L9 10L9 10L9 10L9 10V10L9 11L8 11L8 11L8 12L8 12L8 12L8 13L7 13L7 13L7 14L7 14L6 14L6 14L6 14L6 14L5 14L5 14L5 13L5 13L5 13L5 13L4 14L4 14L4 13L3 13L3 13L3 13L3 13L3 13L3 13L3 14L2 14L2 14L2 14L2 14L1 14L1 14L0 14L0 13L0 13L0 13L0 13L0 13L0 13L0 13L1 13L1 12L2 11L2 11L2 11L2 10L2 10L2 9L2 9L2 9L2 8L2 8L2 8L2 8L2 8L2 8L1 7L1 7L1 6L1 6L1 6L1 6L1 6L1 5L1 5L1 5L1 4L1 4L0 4L1 3L1 3L1 3L1 2L2 2L2 2L2 1L2 0L3 0L3 0L4 1L5 1L7 1L7 2L8 3L9 3L9 4L9 4L9 4L10 4L10 4L10 5L10 5L10 5L10 6L10 5L10 5L10 5L11 4L11 4L11 5L11 6L11 6L11 6L11 6L11 7Z"/></mask><path d="M11 7L11 7L11 7L11 7L11 7L11 8L10 8L10 8L10 8L10 8L10 9L10 9L9 10L9 10L9 10L9 10V10L9 11L8 11L8 11L8 12L8 12L8 12L8 13L7 13L7 13L7 14L7 14L6 14L6 14L6 14L6 14L5 14L5 14L5 13L5 13L5 13L5 13L4 14L4 14L4 13L3 13L3 13L3 13L3 13L3 13L3 13L3 14L2 14L2 14L2 14L2 14L1 14L1 14L0 14L0 13L0 13L0 13L0 13L0 13L0 13L0 13L1 13L1 12L2 11L2 11L2 11L2 10L2 10L2 9L2 9L2 9L2 8L2 8L2 8L2 8L2 8L2 8L1 7L1 7L1 6L1 6L1 6L1 6L1 6L1 5L1 5L1 5L1 4L1 4L0 4L1 3L1 3L1 3L1 2L2 2L2 2L2 1L2 0L3 0L3 0L4 1L5 1L7 1L7 2L8 3L9 3L9 4L9 4L9 4L10 4L10 4L10 5L10 5L10 5L10 6L10 5L10 5L10 5L11 4L11 4L11 5L11 6L11 6L11 6L11 6L11 7Z" fill="var(--fill-0,#71B219)" stroke="var(--stroke-0,white)" mask="url(#path-1-inside-1_0_155)"/></g></svg>