<svg preserveAspectRatio="none" width="100%" height="100%" overflow="visible" style="display: block;" viewBox="0 0 11.4416 14.0362" fill="none" xmlns="http://www.w3.org/2000/svg">
<g id="GF">
<mask id="path-1-inside-1_0_155" fill="white">
<path d="M11.4416 6.60591L11.322 6.68821L11 6.86929L10.8529 7.10932L10.7662 7.34114L10.5667 7.49748L10.3755 7.6964L10.3149 7.85551L10.1375 7.98306L10.1031 8.19433L9.65324 8.94048L9.47301 9.27519L9.21439 9.63179L9.05343 9.76487L8.8347 9.97609L8.72328 10.2216V10.4754L8.57059 10.7785L8.48528 11.0405L8.34081 11.1928L7.95978 12.0212L7.94051 12.3066L7.8497 12.4753L7.5787 12.8703L7.39574 13.1076L7.0752 13.2859L6.7395 13.4793L6.61297 13.6906L6.37497 13.7976L6.20162 13.8044L5.92235 13.7276L5.54404 13.6906L5.35281 13.7153L5.26616 13.611L5.13685 13.371L4.94835 13.1995L4.82731 13.2585L4.57281 13.43L4.27427 13.5315L4.06243 13.4972L3.6002 13.3792L3.40346 13.3189L3.34431 13.2173L3.27554 13.1419L3.17373 13.1748L3.03754 13.3024L2.85592 13.4341L2.58631 13.6097L2.03189 13.9238L1.87642 14.0362L1.73339 13.9745L1.49812 13.9128L1.24773 13.91L0.707117 13.7056L0.390692 13.5603L0.253114 13.3778L0.0935377 13.2996L0 13.2489L0.043998 13.2146L0.184347 13.1885L0.309539 13.1858L0.504886 12.9073L0.826768 12.7332L1.38808 11.7689L1.62469 11.3697L1.65358 11.1516L1.71962 10.6962L1.59442 10.1421L1.65358 9.98706L2.13508 9.31906L2.34281 8.95421L2.35519 8.64009L2.41573 8.41376L2.35654 8.29579L2.2465 8.26151L2.06215 7.96799L1.94385 7.7252L1.61642 7.47555L1.39219 7.22041L1.02488 6.63337L1.05788 6.30414L0.953346 6.18618L0.840538 6.06412L0.848809 5.91598L0.77177 5.54564L0.678233 5.19996L0.642463 4.98049L0.734616 4.60467L0.679576 4.18766L0.559883 3.96819L0.526885 3.63214L0.551654 3.33314L0.653463 3.16306L0.632807 2.95317L1.09781 2.28517L1.45135 1.89835L1.776 1.62676L2.04977 1.42378L2.41985 0.40872L2.68812 0.0521156L2.96873 0L4.48477 0.840798L5.19601 0.918992L6.62808 1.373L7.14674 1.95461L8.3477 2.92299L8.97916 3.22752L8.98466 3.48128L8.84708 3.88456L9.25155 3.53201L9.87608 4.0903L10.0535 4.36327L10.2475 4.86801L10.1801 5.1931L10.0935 5.36045L10.0893 5.49076L10.275 5.31106L10.3796 5.16978L10.4112 4.83097L10.5626 4.41124L10.7662 4.40303L10.9285 4.65403L11.2642 5.74175L11.3907 5.96399L11.4389 6.30963L11.421 6.46325L11.4416 6.60591Z"/>
</mask>
<path d="M11.4416 6.60591L11.322 6.68821L11 6.86929L10.8529 7.10932L10.7662 7.34114L10.5667 7.49748L10.3755 7.6964L10.3149 7.85551L10.1375 7.98306L10.1031 8.19433L9.65324 8.94048L9.47301 9.27519L9.21439 9.63179L9.05343 9.76487L8.8347 9.97609L8.72328 10.2216V10.4754L8.57059 10.7785L8.48528 11.0405L8.34081 11.1928L7.95978 12.0212L7.94051 12.3066L7.8497 12.4753L7.5787 12.8703L7.39574 13.1076L7.0752 13.2859L6.7395 13.4793L6.61297 13.6906L6.37497 13.7976L6.20162 13.8044L5.92235 13.7276L5.54404 13.6906L5.35281 13.7153L5.26616 13.611L5.13685 13.371L4.94835 13.1995L4.82731 13.2585L4.57281 13.43L4.27427 13.5315L4.06243 13.4972L3.6002 13.3792L3.40346 13.3189L3.34431 13.2173L3.27554 13.1419L3.17373 13.1748L3.03754 13.3024L2.85592 13.4341L2.58631 13.6097L2.03189 13.9238L1.87642 14.0362L1.73339 13.9745L1.49812 13.9128L1.24773 13.91L0.707117 13.7056L0.390692 13.5603L0.253114 13.3778L0.0935377 13.2996L0 13.2489L0.043998 13.2146L0.184347 13.1885L0.309539 13.1858L0.504886 12.9073L0.826768 12.7332L1.38808 11.7689L1.62469 11.3697L1.65358 11.1516L1.71962 10.6962L1.59442 10.1421L1.65358 9.98706L2.13508 9.31906L2.34281 8.95421L2.35519 8.64009L2.41573 8.41376L2.35654 8.29579L2.2465 8.26151L2.06215 7.96799L1.94385 7.7252L1.61642 7.47555L1.39219 7.22041L1.02488 6.63337L1.05788 6.30414L0.953346 6.18618L0.840538 6.06412L0.848809 5.91598L0.77177 5.54564L0.678233 5.19996L0.642463 4.98049L0.734616 4.60467L0.679576 4.18766L0.559883 3.96819L0.526885 3.63214L0.551654 3.33314L0.653463 3.16306L0.632807 2.95317L1.09781 2.28517L1.45135 1.89835L1.776 1.62676L2.04977 1.42378L2.41985 0.40872L2.68812 0.0521156L2.96873 0L4.48477 0.840798L5.19601 0.918992L6.62808 1.373L7.14674 1.95461L8.3477 2.92299L8.97916 3.22752L8.98466 3.48128L8.84708 3.88456L9.25155 3.53201L9.87608 4.0903L10.0535 4.36327L10.2475 4.86801L10.1801 5.1931L10.0935 5.36045L10.0893 5.49076L10.275 5.31106L10.3796 5.16978L10.4112 4.83097L10.5626 4.41124L10.7662 4.40303L10.9285 4.65403L11.2642 5.74175L11.3907 5.96399L11.4389 6.30963L11.421 6.46325L11.4416 6.60591Z" fill="var(--fill-0, #71B219)" stroke="var(--stroke-0, white)" mask="url(#path-1-inside-1_0_155)"/>
</g>
</svg>
