<svg preserveAspectRatio="none" width="100%" height="100%" overflow="visible" style="display: block;" viewBox="0 0 0.517208 0.461579" fill="none" xmlns="http://www.w3.org/2000/svg">
<g id="GG">
<mask id="path-1-inside-1_0_150" fill="white">
<path d="M0.517208 0.0702649L0.381032 0.461579L0.0274954 0.329333L0 0.227362L0.401643 0L0.484171 0.00138764L0.517208 0.0702649Z"/>
</mask>
<path d="M0.517208 0.0702649L0.381032 0.461579L0.0274954 0.329333L0 0.227362L0.401643 0L0.484171 0.00138764L0.517208 0.0702649Z" fill="var(--fill-0, #71B219)"/>
<path d="M0.517208 0.0702649L0.989431 0.234597L1.05718 0.0399023L0.968032 -0.14597L0.517208 0.0702649ZM0.381032 0.461579L0.205854 0.929887L0.685089 1.10915L0.853255 0.625911L0.381032 0.461579ZM0.0274954 0.329333L-0.455263 0.459504L-0.388363 0.707611L-0.147683 0.797641L0.0274954 0.329333ZM0 0.227362L-0.246313 -0.207758L-0.583688 -0.0167769L-0.482758 0.357534L0 0.227362ZM0.401643 0L0.410049 -0.499929L0.273862 -0.502219L0.15533 -0.43512L0.401643 0ZM0.484171 0.00138764L0.934996 -0.214847L0.801414 -0.493349L0.492577 -0.498542L0.484171 0.00138764ZM0.517208 0.0702649L0.0449843 -0.0940671L-0.0911915 0.297247L0.381032 0.461579L0.853255 0.625911L0.989431 0.234597L0.517208 0.0702649ZM0.381032 0.461579L0.55621 -0.00672942L0.202674 -0.138976L0.0274954 0.329333L-0.147683 0.797641L0.205854 0.929887L0.381032 0.461579ZM0.0274954 0.329333L0.510253 0.199161L0.482758 0.0971908L0 0.227362L-0.482758 0.357534L-0.455263 0.459504L0.0274954 0.329333ZM0 0.227362L0.246313 0.662483L0.647956 0.43512L0.401643 0L0.15533 -0.43512L-0.246313 -0.207758L0 0.227362ZM0.401643 0L0.393237 0.499929L0.475765 0.501317L0.484171 0.00138764L0.492577 -0.498542L0.410049 -0.499929L0.401643 0ZM0.484171 0.00138764L0.0333469 0.217622L0.0663833 0.2865L0.517208 0.0702649L0.968032 -0.14597L0.934996 -0.214847L0.484171 0.00138764Z" fill="var(--stroke-0, white)" mask="url(#path-1-inside-1_0_150)"/>
</g>
</svg>
