<svg preserveAspectRatio="none" width="100%" height="100%" overflow="visible" style="display: block;" viewBox="0 0 17 25" fill="none" xmlns="http://www.w3.org/2000/svg"><g id="GH"><mask id="path-1-inside-1_0_257" fill="white"><path d="M12 0L12 0L13 1L12 1L12 1L12 2L12 2L12 2L13 2L13 2L13 3L13 3L14 3L14 3L14 4L14 4L14 5L14 5L14 5L14 6L14 6L14 6L14 6L14 6L14 6L14 6L14 6L14 6L14 6L14 6L13 7L14 7L14 7L14 7L14 6L14 6L14 7L15 7L15 7L14 8L14 8L14 8L14 9L14 9L14 9L14 9L14 10L14 10L14 10L15 10L15 11L15 11L15 11L15 12L15 12L15 13L14 14L14 14L14 14L15 15L15 15L15 15L15 15L15 16L15 16L15 16L15 16L14 16L15 17L15 17L15 17L15 17L15 18L15 18L15 18L15 18L15 18L16 18L16 19L16 19L16 19L17 19L17 19L17 19L17 19L17 20L17 20L17 20L16 20L16 21L15 21L15 21L14 21L12 22L11 22L11 22L10 23L9 23L8 23L7 24L6 24L6 24L5 25L4 25L4 24L3 24L2 24L1 24L1 24L0 24L1 23L1 23L1 23L1 23L2 23L2 23L2 23L2 23L2 22L2 22L2 22L2 22L1 21L1 21L1 21L1 21L1 20L0 20L0 19L0 18L0 18L0 18L0 17L0 17L0 17L0 16L1 16L1 16L1 15L1 15L1 14L1 14L2 13L2 13L2 13L2 12L2 12L2 12L2 12L2 12L2 12L3 12L3 12L3 12L3 10L2 9L2 9L2 9L2 9L2 8L2 8L2 8L2 8L2 7L2 7L2 7L2 7L2 7L2 6L2 6L2 6L2 5L2 5L2 4L2 4L2 4L2 3L2 3L2 3L2 3L2 3L2 3L1 3L1 2L1 2L2 1L2 1L2 1L2 1L3 1L4 1L5 1L6 1L6 1L7 1L8 1L8 1L9 1L9 1L10 1L10 1L10 1L10 1L10 1L10 1L11 1L11 0L11 0L11 0L11 0L11 0L11 0L12 0Z"/></mask><path d="M12 0L12 0L13 1L12 1L12 1L12 2L12 2L12 2L13 2L13 2L13 3L13 3L14 3L14 3L14 4L14 4L14 5L14 5L14 5L14 6L14 6L14 6L14 6L14 6L14 6L14 6L14 6L14 6L14 6L14 6L13 7L14 7L14 7L14 7L14 6L14 6L14 7L15 7L15 7L14 8L14 8L14 8L14 9L14 9L14 9L14 9L14 10L14 10L14 10L15 10L15 11L15 11L15 11L15 12L15 12L15 13L14 14L14 14L14 14L15 15L15 15L15 15L15 15L15 16L15 16L15 16L15 16L14 16L15 17L15 17L15 17L15 17L15 18L15 18L15 18L15 18L15 18L16 18L16 19L16 19L16 19L17 19L17 19L17 19L17 19L17 20L17 20L17 20L16 20L16 21L15 21L15 21L14 21L12 22L11 22L11 22L10 23L9 23L8 23L7 24L6 24L6 24L5 25L4 25L4 24L3 24L2 24L1 24L1 24L0 24L1 23L1 23L1 23L1 23L2 23L2 23L2 23L2 23L2 22L2 22L2 22L2 22L1 21L1 21L1 21L1 21L1 20L0 20L0 19L0 18L0 18L0 18L0 17L0 17L0 17L0 16L1 16L1 16L1 15L1 15L1 14L1 14L2 13L2 13L2 13L2 12L2 12L2 12L2 12L2 12L2 12L3 12L3 12L3 12L3 10L2 9L2 9L2 9L2 9L2 8L2 8L2 8L2 8L2 7L2 7L2 7L2 7L2 7L2 6L2 6L2 6L2 5L2 5L2 4L2 4L2 4L2 3L2 3L2 3L2 3L2 3L2 3L1 3L1 2L1 2L2 1L2 1L2 1L2 1L3 1L4 1L5 1L6 1L6 1L7 1L8 1L8 1L9 1L9 1L10 1L10 1L10 1L10 1L10 1L10 1L11 1L11 0L11 0L11 0L11 0L11 0L11 0L12 0Z" fill="var(--fill-0,#71B219)" stroke="var(--stroke-0,white)" mask="url(#path-1-inside-1_0_257)"/></g></svg>