<svg preserveAspectRatio="none" width="100%" height="100%" overflow="visible" style="display: block;" viewBox="0 0 17.1081 24.7435" fill="none" xmlns="http://www.w3.org/2000/svg">
<g id="GH">
<mask id="path-1-inside-1_0_257" fill="white">
<path d="M12.2588 0.198918L12.505 0.433459L12.5601 0.567871L12.4707 1.07404L12.2891 1.42654L12.1749 1.75849L12.1914 1.92309L12.3015 2.08906L12.677 2.3483L12.8682 2.51704L13.0966 2.77213L13.358 3.02178L13.8051 3.34687L13.9949 3.40585L13.9853 3.49639L13.9234 3.62122L13.8821 4.83101L13.8477 5.14374L13.8161 5.30151L13.7734 5.75276L13.7267 5.81723L13.6427 5.81174L13.5644 5.82958L13.5451 5.91874L13.5767 6.012L13.8464 6.07647L13.7872 6.14507L13.5877 6.20678L13.4942 6.34257L13.5354 6.49758L13.424 6.6224L13.4557 6.70608L13.5272 6.76644L13.6414 6.74447L13.9564 6.536L14.0885 6.51403L14.2522 6.55656L14.5535 6.87478L14.5659 7.02978L14.4434 7.56061L14.3237 7.97075L14.3017 8.51807L14.4283 8.82394L14.4104 8.99264L14.2728 9.13806L13.9619 9.34928L13.9853 9.49332L14.127 9.76215L14.3897 10.0612L14.9029 10.4315L15.1725 10.913L15.1794 11.1091L15.0226 11.3053L14.8369 11.4753L14.7763 11.7209L14.8602 13.334L14.4544 14.0335L14.4503 14.2338L14.4915 14.4642L14.5989 14.6055L14.8052 14.6439L14.9744 14.7783L14.9153 15.2694L14.8259 15.7687L14.8107 16.0115L14.7612 16.1267L14.6002 16.22L14.5425 16.3777L14.5837 16.5725L14.5535 16.7165L14.6387 16.903L14.8245 17.1348L15.1216 17.711L15.2344 17.7562L15.2867 17.8783L15.2537 17.9949L15.3692 18.25L15.6994 18.5051L16.0461 18.7274L16.3267 18.7589L16.3928 18.9578L16.5771 19.2116L16.7106 19.3227L16.9238 19.3954L17.0985 19.4337L17.1081 19.6477L16.7917 19.7931L16.5785 20.014L16.4162 20.35L16.1906 20.7204L15.4147 20.9124L15.1175 20.9138L13.5258 20.9234L12.0359 21.6504L11.1775 21.9096L10.6492 22.3184L9.93939 22.6092L9.44412 22.963L8.41374 23.1318L6.72578 23.6859L6.19751 23.9068L5.66374 24.2922L4.79566 24.7435L4.45312 24.738L3.77354 24.3155L3.26177 24.1043L2.00989 23.7806L1.07581 23.6544L0.624579 23.5158L0.500771 23.4925L0.606694 23.3403L0.868079 23.3307L1.14046 23.3759L1.34819 23.2607L1.65219 23.2456L1.732 23.1235L1.75677 22.819L1.754 22.5721L1.85992 22.4624L1.88746 22.1716L1.7375 21.5283L1.63158 21.4542L1.08681 21.3637L1.04554 21.2348L0.947846 21.1003L0.843309 20.7684L0.725002 20.2746L0.53377 19.6615L0.166462 18.6519L0.0756531 18.2939L0.0137704 17.9304L0 17.4956L0.0756531 17.3337L0.0646536 17.1088L0.0302696 16.8839L0.288884 16.3695L0.795155 15.7385L0.901078 15.5108L0.996001 15.353L1.00977 15.1254L1.09919 14.3901L1.34131 13.5013L1.494 13.1652L1.59719 12.9828L1.721 12.6865L1.75262 12.548L2.219 12.1982L2.43362 12.105L2.48177 11.9664L2.40885 11.8169L2.44046 11.714L2.55193 11.6633L2.72389 11.6221L2.84908 11.4781L2.65235 10.3794L2.49277 9.28344L2.48312 9.19017L2.38958 9.03927L2.29604 8.58664L2.13785 8.32053L1.91773 8.24372L1.91908 7.99407L2.14058 7.57024L2.19835 7.32335L2.09242 7.24925L2.07731 7.05586L2.15296 6.74447L2.11581 6.55245L2.07454 6.34943L1.84481 5.868L1.78838 5.52643L1.90673 5.32755L1.90258 4.89137L1.77877 4.21789L1.75816 3.79267L1.84342 3.61573L1.80216 3.44561L1.63431 3.28516L1.62196 3.13016L1.765 2.97791L1.74712 2.85995L1.56965 2.77351L1.41146 2.56501L1.26977 2.2372L1.29865 1.7091L1.56415 0.737948L1.59719 0.657033L1.89846 0.662517L1.89985 0.703665L2.8367 0.694079L3.90696 0.683112L5.18501 0.670763L6.34747 0.659796L6.39835 0.615885L6.59097 0.562388L7.76443 0.661135L8.49905 0.611782L8.80993 0.643303L9.03832 0.709148L9.54454 0.669382L9.81559 0.694079L10.0192 0.935485L10.1017 0.934104L10.2159 0.831254L10.4181 0.713293L10.6245 0.621368L10.773 0.430696L10.8625 0.286698L10.9959 0.315498L11.1885 0.307252L11.3165 0.18657L11.3674 0L12.2588 0.198918Z"/>
</mask>
<path d="M12.2588 0.198918L12.505 0.433459L12.5601 0.567871L12.4707 1.07404L12.2891 1.42654L12.1749 1.75849L12.1914 1.92309L12.3015 2.08906L12.677 2.3483L12.8682 2.51704L13.0966 2.77213L13.358 3.02178L13.8051 3.34687L13.9949 3.40585L13.9853 3.49639L13.9234 3.62122L13.8821 4.83101L13.8477 5.14374L13.8161 5.30151L13.7734 5.75276L13.7267 5.81723L13.6427 5.81174L13.5644 5.82958L13.5451 5.91874L13.5767 6.012L13.8464 6.07647L13.7872 6.14507L13.5877 6.20678L13.4942 6.34257L13.5354 6.49758L13.424 6.6224L13.4557 6.70608L13.5272 6.76644L13.6414 6.74447L13.9564 6.536L14.0885 6.51403L14.2522 6.55656L14.5535 6.87478L14.5659 7.02978L14.4434 7.56061L14.3237 7.97075L14.3017 8.51807L14.4283 8.82394L14.4104 8.99264L14.2728 9.13806L13.9619 9.34928L13.9853 9.49332L14.127 9.76215L14.3897 10.0612L14.9029 10.4315L15.1725 10.913L15.1794 11.1091L15.0226 11.3053L14.8369 11.4753L14.7763 11.7209L14.8602 13.334L14.4544 14.0335L14.4503 14.2338L14.4915 14.4642L14.5989 14.6055L14.8052 14.6439L14.9744 14.7783L14.9153 15.2694L14.8259 15.7687L14.8107 16.0115L14.7612 16.1267L14.6002 16.22L14.5425 16.3777L14.5837 16.5725L14.5535 16.7165L14.6387 16.903L14.8245 17.1348L15.1216 17.711L15.2344 17.7562L15.2867 17.8783L15.2537 17.9949L15.3692 18.25L15.6994 18.5051L16.0461 18.7274L16.3267 18.7589L16.3928 18.9578L16.5771 19.2116L16.7106 19.3227L16.9238 19.3954L17.0985 19.4337L17.1081 19.6477L16.7917 19.7931L16.5785 20.014L16.4162 20.35L16.1906 20.7204L15.4147 20.9124L15.1175 20.9138L13.5258 20.9234L12.0359 21.6504L11.1775 21.9096L10.6492 22.3184L9.93939 22.6092L9.44412 22.963L8.41374 23.1318L6.72578 23.6859L6.19751 23.9068L5.66374 24.2922L4.79566 24.7435L4.45312 24.738L3.77354 24.3155L3.26177 24.1043L2.00989 23.7806L1.07581 23.6544L0.624579 23.5158L0.500771 23.4925L0.606694 23.3403L0.868079 23.3307L1.14046 23.3759L1.34819 23.2607L1.65219 23.2456L1.732 23.1235L1.75677 22.819L1.754 22.5721L1.85992 22.4624L1.88746 22.1716L1.7375 21.5283L1.63158 21.4542L1.08681 21.3637L1.04554 21.2348L0.947846 21.1003L0.843309 20.7684L0.725002 20.2746L0.53377 19.6615L0.166462 18.6519L0.0756531 18.2939L0.0137704 17.9304L0 17.4956L0.0756531 17.3337L0.0646536 17.1088L0.0302696 16.8839L0.288884 16.3695L0.795155 15.7385L0.901078 15.5108L0.996001 15.353L1.00977 15.1254L1.09919 14.3901L1.34131 13.5013L1.494 13.1652L1.59719 12.9828L1.721 12.6865L1.75262 12.548L2.219 12.1982L2.43362 12.105L2.48177 11.9664L2.40885 11.8169L2.44046 11.714L2.55193 11.6633L2.72389 11.6221L2.84908 11.4781L2.65235 10.3794L2.49277 9.28344L2.48312 9.19017L2.38958 9.03927L2.29604 8.58664L2.13785 8.32053L1.91773 8.24372L1.91908 7.99407L2.14058 7.57024L2.19835 7.32335L2.09242 7.24925L2.07731 7.05586L2.15296 6.74447L2.11581 6.55245L2.07454 6.34943L1.84481 5.868L1.78838 5.52643L1.90673 5.32755L1.90258 4.89137L1.77877 4.21789L1.75816 3.79267L1.84342 3.61573L1.80216 3.44561L1.63431 3.28516L1.62196 3.13016L1.765 2.97791L1.74712 2.85995L1.56965 2.77351L1.41146 2.56501L1.26977 2.2372L1.29865 1.7091L1.56415 0.737948L1.59719 0.657033L1.89846 0.662517L1.89985 0.703665L2.8367 0.694079L3.90696 0.683112L5.18501 0.670763L6.34747 0.659796L6.39835 0.615885L6.59097 0.562388L7.76443 0.661135L8.49905 0.611782L8.80993 0.643303L9.03832 0.709148L9.54454 0.669382L9.81559 0.694079L10.0192 0.935485L10.1017 0.934104L10.2159 0.831254L10.4181 0.713293L10.6245 0.621368L10.773 0.430696L10.8625 0.286698L10.9959 0.315498L11.1885 0.307252L11.3165 0.18657L11.3674 0L12.2588 0.198918Z" fill="var(--fill-0, #71B219)" stroke="var(--stroke-0, white)" mask="url(#path-1-inside-1_0_257)"/>
</g>
</svg>
