<svg preserveAspectRatio="none" width="100%" height="100%" overflow="visible" style="display: block;" viewBox="0 0 0.0859018 0.242915" fill="none" xmlns="http://www.w3.org/2000/svg">
<g id="GI">
<mask id="path-1-inside-1_0_161" fill="white">
<path d="M0.0859018 0L0.0734246 0.0652405L0.0803611 0.112434L0.0706754 0.242915L0.0443255 0.240161L0 0.173523L0.00414494 0.0832875L0.047117 0.0596908L0.0180178 0.00415167L0.0859018 0Z"/>
</mask>
<path d="M0.0859018 0L0.0734246 0.0652405L0.0803611 0.112434L0.0706754 0.242915L0.0443255 0.240161L0 0.173523L0.00414494 0.0832875L0.047117 0.0596908L0.0180178 0.00415167L0.0859018 0Z" fill="var(--fill-0, #71B219)"/>
<path d="M0.0859018 0L0.577001 0.0939218L0.697925 -0.538364L0.0553796 -0.499068L0.0859018 0ZM0.0734246 0.0652405L-0.417675 -0.0286813L-0.433551 0.0543306L-0.421261 0.137949L0.0734246 0.0652405ZM0.0803611 0.112434L0.578989 0.149447L0.583078 0.0943687L0.575046 0.0397257L0.0803611 0.112434ZM0.0706754 0.242915L0.0187069 0.740207L0.531162 0.79376L0.569304 0.279928L0.0706754 0.242915ZM0.0443255 0.240161L-0.371988 0.517078L-0.24167 0.712997L-0.00764312 0.737453L0.0443255 0.240161ZM0 0.173523L-0.499473 0.150579L-0.506986 0.314124L-0.416314 0.450439L0 0.173523ZM0.00414494 0.0832875L-0.236518 -0.354984L-0.482454 -0.219936L-0.495328 0.0603443L0.00414494 0.0832875ZM0.047117 0.0596908L0.28778 0.497962L0.717565 0.261959L0.490009 -0.172358L0.047117 0.0596908ZM0.0180178 0.00415167L-0.0125043 -0.494916L-0.783238 -0.447779L-0.424874 0.2362L0.0180178 0.00415167ZM0.0859018 0L-0.405198 -0.0939218L-0.417675 -0.0286813L0.0734246 0.0652405L0.564524 0.159162L0.577001 0.0939218L0.0859018 0ZM0.0734246 0.0652405L-0.421261 0.137949L-0.414324 0.185142L0.0803611 0.112434L0.575046 0.0397257L0.56811 -0.00746772L0.0734246 0.0652405ZM0.0803611 0.112434L-0.418267 0.0754207L-0.427953 0.205902L0.0706754 0.242915L0.569304 0.279928L0.578989 0.149447L0.0803611 0.112434ZM0.0706754 0.242915L0.122644 -0.254377L0.0962941 -0.257131L0.0443255 0.240161L-0.00764312 0.737453L0.0187069 0.740207L0.0706754 0.242915ZM0.0443255 0.240161L0.460639 -0.0367554L0.416314 -0.103394L0 0.173523L-0.416314 0.450439L-0.371988 0.517078L0.0443255 0.240161ZM0 0.173523L0.499473 0.196466L0.503618 0.106231L0.00414494 0.0832875L-0.495328 0.0603443L-0.499473 0.150579L0 0.173523ZM0.00414494 0.0832875L0.244808 0.521559L0.28778 0.497962L0.047117 0.0596908L-0.193546 -0.37858L-0.236518 -0.354984L0.00414494 0.0832875ZM0.047117 0.0596908L0.490009 -0.172358L0.46091 -0.227897L0.0180178 0.00415167L-0.424874 0.2362L-0.395775 0.29174L0.047117 0.0596908ZM0.0180178 0.00415167L0.0485399 0.503219L0.116424 0.499068L0.0859018 0L0.0553796 -0.499068L-0.0125043 -0.494916L0.0180178 0.00415167Z" fill="var(--stroke-0, white)" mask="url(#path-1-inside-1_0_161)"/>
</g>
</svg>
