<svg preserveAspectRatio="none" width="100%" height="100%" overflow="visible" style="display: block;" viewBox="0 0 237 347" fill="none" xmlns="http://www.w3.org/2000/svg"><g id="GL"><mask id="path-1-inside-1_0_149" fill="white"><path d="M166 1L169 3L171 6L172 6L174 6L177 8L181 10L182 11L181 12L180 13L175 14L165 15L159 17L158 17L158 20L158 20L160 20L164 17L166 16L168 17L172 18L174 17L177 18L180 17L184 15L185 19L187 24L188 23L189 23L189 25L190 25L191 25L194 26L196 29L197 30L198 31L198 32L198 34L196 36L194 38L192 40L189 41L167 45L166 46L166 48L166 51L167 51L170 49L174 48L177 48L184 49L186 53L187 58L190 56L190 56L191 54L191 52L191 51L192 50L192 49L193 48L194 48L198 47L199 47L199 50L200 51L200 53L200 55L200 58L199 60L198 64L197 67L196 68L195 72L194 73L192 77L192 79L192 80L192 81L192 80L193 78L193 78L196 75L196 74L198 71L200 70L200 68L201 68L204 61L205 59L207 59L207 62L209 63L210 63L211 64L212 64L213 65L214 65L215 65L215 64L216 62L217 59L218 57L218 56L219 55L220 55L221 54L222 54L222 54L226 54L228 55L231 57L233 58L234 59L235 61L236 63L237 63L237 64L237 65L234 68L233 70L230 73L229 74L228 75L226 75L225 76L225 76L226 78L226 79L226 80L225 81L225 81L222 82L221 84L219 84L218 84L216 86L217 87L218 88L220 89L220 90L219 91L218 93L216 94L216 94L215 94L214 94L213 95L211 95L209 94L208 93L207 93L206 93L206 93L204 96L204 97L203 98L203 100L203 102L203 103L204 104L204 104L204 104L206 104L206 104L206 105L207 106L207 107L206 108L206 110L206 112L206 113L207 113L207 113L207 113L208 114L208 115L208 116L208 116L208 117L207 117L205 119L205 119L205 120L205 121L204 122L204 122L204 123L203 123L202 123L202 124L200 127L200 127L200 128L200 129L199 132L199 134L199 136L198 138L198 139L198 141L197 143L197 144L198 146L199 145L200 142L201 141L202 141L203 142L204 143L205 144L206 144L206 145L207 146L207 147L206 147L206 147L204 145L203 145L202 145L201 146L202 149L203 151L205 151L206 152L206 153L207 153L207 153L208 152L209 152L210 152L210 153L210 155L210 157L210 158L210 159L210 161L209 161L209 161L208 161L208 160L207 160L206 159L204 158L204 158L202 158L200 159L200 160L198 162L197 162L196 161L196 160L195 160L194 162L194 162L194 162L194 163L195 164L195 164L196 164L197 164L197 167L198 169L198 169L198 169L199 169L200 169L201 169L202 170L202 170L203 170L204 170L204 172L204 174L205 175L206 177L206 177L206 178L206 179L206 180L206 180L206 181L206 183L206 184L206 185L206 186L205 187L205 186L204 186L204 185L203 184L202 184L200 186L200 187L199 187L198 188L198 188L197 188L195 187L196 188L197 189L197 189L197 189L198 189L198 189L200 188L200 188L200 188L200 188L201 189L201 190L201 192L200 193L200 193L200 194V194L201 194L202 193L202 191L202 189L203 189L204 189L205 191L206 194L206 195L207 196L207 196L207 198L207 198L207 199L206 199L206 200L205 200L204 199L203 199L203 200L201 201L200 202L198 201L196 200L197 198L197 196L196 195L196 195L196 197L196 198L196 199L195 199L195 199L195 199L195 200L195 200L195 201L195 202L195 202L195 202L195 203L196 203L196 204L199 204L200 204L202 205L203 206L202 208L202 210L202 211L199 211L198 211L197 212L196 213L195 213L192 212L191 212L189 210L188 206L187 208L187 208L186 209L186 209L185 208L185 208L184 207L183 206L183 205L183 206L183 206L184 207L185 209L186 210L185 210L184 210L183 211L183 212L182 213L182 213L180 214L180 213L179 213L178 212L177 212L176 211L176 212L178 213L179 214L178 214L178 214L177 215L177 214L176 214L175 215L175 215L175 215L175 216L175 216L176 216L176 215L177 215L178 215L179 214L180 214L181 214L183 213L184 212L184 212L186 211L188 211L189 212L190 213L191 213L191 214L192 214L193 216L194 217L195 217L196 218L196 220L196 222L196 225L195 225L195 227L195 228L194 228L194 227L192 226L190 225L189 224L188 223L187 221L186 218L186 216L185 216L185 217L184 217L184 218L181 219L180 220L180 220L178 220L179 221L179 221L180 221L180 220L182 220L183 219L184 219L185 218L185 218L185 218L186 218L186 222L186 223L185 224L184 224L184 225L184 225L185 225L186 224L186 224L187 225L188 226L189 227L190 228L191 229L192 230L193 230L194 230L194 231L195 232L195 233L196 233L196 233L195 235L194 235L194 236L194 236L194 237L195 239L195 237L195 237L195 236L196 236L196 236L197 236L197 238L198 239L197 241L198 243L198 243L198 244L198 246L198 247L198 248L196 248L196 248L195 248L195 247L195 247L195 246L195 246L194 243L194 244L194 244L194 245L194 248L194 248L193 248L192 248L191 248L189 247L189 246L188 244L188 243L188 241L187 240L186 239L186 238L184 238L184 237L183 236L182 235L181 235L180 235L178 235L177 234L177 234L176 234L176 235L178 236L179 236L180 236L181 236L182 236L182 237L182 239L182 240L181 241L180 241L178 242L178 242L177 242L176 242L174 242L174 242L172 242L172 242L172 242L173 243L173 243L173 244L173 245L173 245L172 246L171 247L171 247L169 248L169 248L169 248L171 248L171 248L173 249L175 249L178 248L178 248L178 248L179 248L179 249L178 249L178 250L177 250L176 250L176 251L175 252L174 253L175 253L176 253L176 252L177 251L178 250L179 251L180 250L182 249L183 249L186 250L188 251L190 252L192 252L195 252L195 252L195 252L195 253L194 253L194 254L193 254L193 254L192 254L192 255L192 255L192 256L191 256L190 256L189 256L189 256L189 256L189 257L190 257L190 258L189 258L189 258L188 258L187 258L188 258L188 258L188 259L187 260L187 260L186 261L185 261L184 261L184 261L184 262L184 262L184 263L182 264L182 264L182 265L182 265L182 265L181 266L180 267L180 267L179 267L179 268L178 268L178 268L177 268L176 269L174 270L172 270L172 270L170 271L169 271L168 272L168 272L166 272L166 272L166 272L165 272L165 273L164 273L162 272L163 272L163 273L163 274L162 274L162 274L161 274L160 273L159 272L157 271L156 270L156 271L157 271L157 272L157 272L157 272L156 272L156 272L156 272L157 273L157 274L157 275L156 276L156 276L156 276L154 278L154 278L153 278L153 278L153 280L152 280L152 281L152 281L152 281L152 282L152 282L151 283L150 285L150 288L149 288L149 288L149 288L148 288L148 289L148 289L148 290L147 290L146 292L145 292L145 292L144 292L143 291L143 291L143 290L143 291L143 291L143 291L143 291L144 293L143 294L143 294L142 295L141 296L141 296L141 295L141 295L140 294L140 295L140 295L140 296L140 296L139 296L139 297L138 296L138 296L138 296L137 296L137 296L137 297L137 298L136 298L136 298L135 298L135 298L134 297L135 296L135 296L135 295L135 295L136 293L137 292L137 291L136 291L135 291L134 291L134 291L134 291L135 292L135 292L134 293L134 295L134 295L133 295L132 294L133 295L134 296L134 296L134 297L132 298L130 298L129 298L127 299H126L126 299L128 300L128 301L128 301L128 301L127 302L127 303L126 303L124 303L123 303L122 303L122 303L123 304L123 305L124 305L124 304L125 305L125 307L126 307L126 308L126 308L126 309L125 310L124 310L124 310L124 311L123 311L122 310L122 310L121 310L122 311L123 312L123 311L124 311L124 312L124 313L124 315L125 315L124 316L124 317L123 317L123 317L123 318L122 318L122 319L122 319L122 320L122 320L121 321L121 321L120 321L120 321L119 320L119 320L118 320L118 320L119 320L119 321L120 322L120 322L120 322L119 324L119 324L119 324L118 324L117 324L116 324L116 324L115 324L116 324L116 324L117 325L118 325L118 325L118 326L118 326L118 327L118 327L118 328L118 329L118 330L118 330L119 331L118 331L118 331L117 332L117 332L118 332L118 333L117 333L117 335L116 337L116 340L115 341L114 341L114 342L114 341L113 341L112 341L112 341L112 341L112 341L112 342L113 342L114 342L114 342L114 343L114 343L114 343L115 345L114 346L114 346L113 346L112 346L111 345L112 346L112 346L113 346L112 347L112 347L112 347L111 347L111 346L111 346L111 346L110 346L110 346L110 346L110 346L110 345L110 345L110 344L111 344L110 343L110 344L109 345L109 345L109 345L108 345L106 344L106 343L106 342L107 342L107 342L108 342L108 341L108 340L108 340L107 342L106 342L106 342L106 342L105 341L105 341L104 341L104 341L103 341L103 339L104 338L104 337L104 337L104 336L104 336L104 336L104 336L104 337L104 337L102 337L101 338L101 338L100 339L100 339L100 339L99 339L99 339L98 339L98 339L97 339L97 339L97 339L97 339L97 340L96 340L96 340L95 340L95 339L95 339L95 339L96 338L97 338L96 338L95 338L95 338L94 338L94 336L94 336L94 336L94 336L94 336L94 336L92 335L92 335L92 334L92 333L91 333L91 333L91 333L91 332L91 332L91 332L91 331L91 331L90 330L91 330L92 330L92 329L92 329L93 329L92 329L92 329L91 329L91 329L91 330L90 330L89 329L89 329L89 328L90 328L89 327L89 327L88 327L88 327L87 326L87 326L87 326L87 325L87 325L87 324L87 324L87 323L88 322L89 321L88 321L87 323L87 323L86 322L86 322L86 322L86 321L85 321L85 320L85 320L84 319L84 318L82 316L82 315L82 314L82 313L83 312L85 312L85 311L86 311L87 311L87 311L87 311L86 311L86 311L86 310L86 310L86 310L85 311L84 311L83 312L83 312L82 312L82 312L82 312L82 311L82 311L82 310L83 308L83 308L84 308L85 308L85 308L85 307L85 307L86 307L86 306L87 307L87 307L88 308L88 309L88 308L88 307L88 306L87 306L87 306L86 306L86 305L86 305L86 304L85 303L85 303L84 302L84 302L85 303L85 304L85 305L85 306L85 306L85 306L84 307L83 307L84 306L84 306L83 306L83 306L83 307L82 308L82 309L81 310L81 311L81 311L80 310L80 310L80 309L80 307L80 307L80 306L80 303L79 302L79 302L79 302L78 301L78 301L78 300L79 300L80 300L80 299L82 298L82 297L83 297L84 297L84 296L84 296L83 296L81 297L81 297L81 298L80 298L79 299H78L77 298L76 298L76 298L76 298L76 297L76 295L76 295L76 294L75 294L75 294L75 294L76 293L78 291L79 290L80 290L80 290L81 289L81 288L81 288L82 288L82 287L83 286L83 286L83 286L83 286L82 287L81 288L79 290L78 291L77 292L77 292L76 292L76 293L75 293L74 293L74 293L74 292L74 291L74 290L74 290L75 289L75 288L75 288L76 288L76 287L76 286L78 286L78 286L79 286L79 286L79 286L78 286L77 286L76 286L75 285L75 286L74 285L74 285L73 283L73 282L73 281L74 280L75 280L76 279L77 278L78 277L78 277L79 277L81 278L82 278L82 278L84 278L85 280L86 280L86 279L84 278L84 277L84 277L85 277L84 277L83 277L83 277L81 277L81 277L80 277L79 276L78 277L78 277L77 277L77 277L75 279L74 279L74 279L74 278L74 278V277L74 276L75 275L76 274L76 273L76 272L77 273L79 273L80 274L81 274L82 274L82 274L82 274L83 273L83 273L83 272L83 272L83 271L84 271L83 270L83 270L82 271L82 271L82 271L82 272L81 272L80 272L79 272L78 272L78 272L77 272L76 272L75 272L75 272L75 271L76 270L76 268L77 268L78 267L79 267L81 269L82 269L82 269L84 268L84 268L84 268L85 266L85 266L84 267L84 267H83L84 265L84 263L84 263L85 263L87 263L87 262L87 262L86 262L86 262L86 262L85 262L84 262L84 261L85 260L85 259L85 258L85 257L85 256L86 256L87 256L87 255L86 254L86 254L87 253L87 253L87 253L86 253L86 253L85 253L84 253L84 253L84 253L83 253L82 253L82 253L79 253L79 252L78 251L77 251L76 250L75 249L74 249L73 248L72 248L71 247L71 246L71 245L71 245L71 244L72 244L73 244L74 244L74 244L75 244L76 244L77 245L78 245L79 245L81 248L82 248L83 248L84 249L85 249L86 249L86 248L85 248L84 248L84 247L83 246L83 245L83 245L83 244L83 243L83 243L82 243L81 242L81 242L82 242L82 242L83 242L84 242L84 242L84 242L84 241L83 240L81 240L80 240L80 240L79 239L78 239L77 240L77 240L76 240L76 238L76 238L76 237L77 237L77 236L78 236L80 234L81 234L81 234L81 234L80 234L80 234L78 234L78 234L77 234L76 235L75 235L75 235L75 234L75 234L75 233L76 233L76 232L76 232L75 232L75 232L75 231L75 230L75 230L74 228L74 228L74 228L73 226L74 226L74 225L74 225L73 225L73 226L73 226L73 227L73 227L74 228L74 229L74 229L74 230L75 231L75 231L74 232L74 233L74 233L74 234L73 234L73 234L73 234L73 235L73 235L73 236L72 237L72 237L71 237L70 237L70 237L69 237L68 237L67 236L66 235L66 234L66 233L66 233L67 232L67 230L68 228L69 226L69 226L69 225L69 225L69 225L68 227L67 227L66 227L66 226L66 226L67 226L68 225L67 224L67 224L66 224L67 223L68 223L69 223L69 222L70 221L70 221L70 220L70 220L70 219L70 218L70 218L69 217L68 217L68 217L68 218L68 218L67 217L67 217L67 217L66 217L66 217L66 216L66 215L66 215L67 215L67 214L68 213L68 212L68 212L67 211L66 212L66 212L66 211L66 211L65 210L65 210L64 209L64 209L65 208L65 208L65 206L65 207L66 206L65 206L65 205L65 204L65 204L65 204L65 203L64 203L64 201L64 201L63 201L63 201L62 201L61 201L60 202L60 202L61 201L61 200L62 200L62 199L62 199L62 198L62 197L62 197L63 196L64 196L64 196L63 194L62 194L62 193L61 193L61 192L61 191L60 190L60 190L58 188L57 187L57 186L56 185L56 185L55 184L55 183L56 182L56 181L56 180L55 178L55 178L54 178L53 177L52 176L52 176L51 175L49 174L46 172L45 171L44 171L43 170L41 170L40 169L39 169L39 169L38 168L37 168L36 168L36 169L35 170L34 170L34 169L33 169L33 168L33 168L32 169L31 170L30 171L30 171L29 171L29 171L28 171L28 171L28 171L27 170L27 170L26 170L26 170L25 171L24 171L24 171L24 171L23 170L22 170L22 170L22 171L23 173L24 174L23 174L18 172L17 172L16 171L16 170L14 169L13 168L13 167L13 167L13 166L15 164L16 164L18 163L18 163L18 163L18 162L16 163L14 162L12 161L12 161L12 161L11 160L11 159L12 158L12 158L12 157L10 159L9 160L8 160L8 160L8 159L8 159L8 158L8 158L7 157L6 156L6 156L7 155L7 154L8 154L8 154L12 153L15 154L16 152L16 151L18 150L21 150L23 151L24 151L25 152L25 152L25 151L25 150L25 149L25 148L25 147L25 146L24 145L23 145L23 145L22 146L20 148L20 148L19 148L18 148L18 147L16 147L16 146L16 147L15 148L15 148L14 149L14 149L13 149L11 147L10 147L10 146L10 145L9 145L9 144L10 143L11 142L10 142L9 142L8 143L8 143L7 143L6 143L6 142L5 142L4 141L3 140L2 140L2 139L1 138L0 136L0 136L1 134L1 134L1 133L0 132L0 132L1 130L2 130L3 129L4 127L5 127L6 127L7 127L8 127L8 126L9 125L11 124L15 123L15 122L15 122L15 121L15 121L15 120L17 119L18 118L19 118L20 118L21 118L21 117L24 117L25 118L26 118L26 117L27 116L28 114L29 113L29 111L30 108L30 104L31 101L31 99L31 99L32 98L32 97L33 96L33 96L33 96L32 96L32 96L31 96L30 97L29 97L29 97L28 98L27 98L26 98L25 97L25 97L23 97L23 97L22 96L22 95L22 94L22 92L22 90L22 89L24 87L25 85L26 84L26 84L27 84L28 83L29 81L30 79L31 76L32 75L34 74L35 74L36 74L36 75L38 78L38 78L38 77L37 73L37 72L38 70L38 70L39 70L41 70L42 71L42 72L43 72L44 72L44 72L44 71L45 68L45 65L45 62L45 59L45 58L45 56L46 54L46 53L48 52L49 51L50 51L51 52L52 52L54 54L56 58L57 60L58 60L59 62L61 64L62 66L62 66L63 66L62 65L62 64L60 62L58 58L56 56L55 53L54 52L52 50L52 49L54 47L58 45L63 43L64 43L67 42L67 41L68 41L70 39L70 39L72 40L73 41L73 43L74 45L74 48L74 56L74 58L74 59L75 58L75 56L76 55L76 53L77 50L77 48L76 46L76 42L76 40H77L81 47L83 49L85 52L87 52L89 52L90 52L90 52L89 50L87 46L85 43L84 38L84 36L85 36L88 36L92 38L98 44L101 47L106 54L108 55L108 55L109 54L109 53L109 52L109 50L109 49L109 46L109 42L110 40L110 39L110 36L109 34L105 28L105 28L106 27L107 26L116 28L118 28L119 29L119 29L120 30L122 29L121 28L121 27L110 24L108 23L107 23L106 24L104 24L103 24L102 21L103 18L104 18L106 19L107 17L109 16L110 15L114 12L115 11L116 11L118 12L119 13L120 15L120 16L121 16L122 17L123 14L124 11L125 9L127 10L128 12L129 13L131 14L133 20L134 20L134 19L134 18L134 17L135 15L134 14L132 12L132 11L132 9L132 8L132 7L132 6L134 7L134 6L135 6L135 4L136 4L136 3L138 4L139 5L140 4L140 3L140 2L140 2L144 2L145 2L146 1L147 1L148 1L149 2L150 2L152 1L154 0L163 0L166 1ZM108 47L107 48L106 44L103 42L101 40L98 34L98 32L99 30L100 30L102 29L106 33L108 36L108 38L108 42L108 47ZM209 54L209 54L208 54L206 52L206 50L205 47L206 46L207 46L208 48L208 51L209 54ZM213 103L212 105L209 105L208 104L207 102L208 100L210 98L212 98L214 98L214 100L213 103ZM208 140L207 140L207 138L207 136L207 133L207 131L208 131L208 131L208 133V135L208 137L208 140ZM212 146H211L211 145L211 144L212 142L212 142L213 142L213 143L213 145L212 146ZM4 151L3 152L2 151L1 150L1 150L2 149L2 149L3 149L3 149L4 150L5 150L5 150L5 151L4 151ZM209 173L209 173L208 166V164L208 162L208 162L209 163L209 167L209 173ZM212 183L212 184L212 186L213 187L214 187L214 188L213 189L210 189L209 189L208 188L208 186L208 184L209 183L210 184L211 183L212 183ZM69 220L68 220L68 221L67 222L67 222L66 222L66 222L66 222L66 222L66 221L65 221L65 221L65 221L64 221L64 220L65 220L65 220L66 220L67 220L67 220L67 220L68 219L68 219L69 219L69 220ZM74 241L74 241L73 241L73 240L73 240L73 240L73 239L74 238L74 238L74 239L75 240L75 240L75 240L75 241L75 241L74 241ZM183 243L183 243L183 244L183 244L183 244L183 244L183 245L183 245L183 245L183 246L182 246L181 247L181 248L180 248L180 248L179 247L178 247L176 247L174 248L173 248L173 248L173 248L173 247L173 246L173 246L174 246L174 245L174 244L174 243L174 243L175 243L176 243L177 243L178 243L180 243L182 241L182 241L182 242L182 242L183 242L183 243ZM82 243L81 244L80 243L80 243L80 243L80 242L80 242L81 242L82 243L82 243L82 243ZM78 254L79 255L80 255L80 256L80 256L80 256L80 257L80 257L80 257L81 257L81 258L80 258L80 259L77 260L76 260L74 262L74 261L74 261L73 261L72 261L72 260L72 260L72 260L72 260L73 260L74 259L74 259L74 259L73 258L73 258L73 258L72 258L71 258L70 258L70 257L69 257L69 256L69 254L70 254L70 254L71 254L71 254L70 253L70 253L70 252L69 252V251L70 251L70 251L70 250L71 250L73 250L75 251L75 251L76 252L78 254ZM84 258L84 259L84 258L83 258L83 257L83 256L83 255L83 255L83 254L84 254L84 254L86 255L85 255L85 256L85 256L84 257L84 258L84 258L84 258ZM138 299L138 299L137 298L137 297L138 297L138 298L138 298L138 299ZM102 339L102 340L102 340L101 340L101 340L100 340L100 339L102 338L103 338L103 338L103 339L102 339Z"/></mask><path d="M166 1L169 3L171 6L172 6L174 6L177 8L181 10L182 11L181 12L180 13L175 14L165 15L159 17L158 17L158 20L158 20L160 20L164 17L166 16L168 17L172 18L174 17L177 18L180 17L184 15L185 19L187 24L188 23L189 23L189 25L190 25L191 25L194 26L196 29L197 30L198 31L198 32L198 34L196 36L194 38L192 40L189 41L167 45L166 46L166 48L166 51L167 51L170 49L174 48L177 48L184 49L186 53L187 58L190 56L190 56L191 54L191 52L191 51L192 50L192 49L193 48L194 48L198 47L199 47L199 50L200 51L200 53L200 55L200 58L199 60L198 64L197 67L196 68L195 72L194 73L192 77L192 79L192 80L192 81L192 80L193 78L193 78L196 75L196 74L198 71L200 70L200 68L201 68L204 61L205 59L207 59L207 62L209 63L210 63L211 64L212 64L213 65L214 65L215 65L215 64L216 62L217 59L218 57L218 56L219 55L220 55L221 54L222 54L222 54L226 54L228 55L231 57L233 58L234 59L235 61L236 63L237 63L237 64L237 65L234 68L233 70L230 73L229 74L228 75L226 75L225 76L225 76L226 78L226 79L226 80L225 81L225 81L222 82L221 84L219 84L218 84L216 86L217 87L218 88L220 89L220 90L219 91L218 93L216 94L216 94L215 94L214 94L213 95L211 95L209 94L208 93L207 93L206 93L206 93L204 96L204 97L203 98L203 100L203 102L203 103L204 104L204 104L204 104L206 104L206 104L206 105L207 106L207 107L206 108L206 110L206 112L206 113L207 113L207 113L207 113L208 114L208 115L208 116L208 116L208 117L207 117L205 119L205 119L205 120L205 121L204 122L204 122L204 123L203 123L202 123L202 124L200 127L200 127L200 128L200 129L199 132L199 134L199 136L198 138L198 139L198 141L197 143L197 144L198 146L199 145L200 142L201 141L202 141L203 142L204 143L205 144L206 144L206 145L207 146L207 147L206 147L206 147L204 145L203 145L202 145L201 146L202 149L203 151L205 151L206 152L206 153L207 153L207 153L208 152L209 152L210 152L210 153L210 155L210 157L210 158L210 159L210 161L209 161L209 161L208 161L208 160L207 160L206 159L204 158L204 158L202 158L200 159L200 160L198 162L197 162L196 161L196 160L195 160L194 162L194 162L194 162L194 163L195 164L195 164L196 164L197 164L197 167L198 169L198 169L198 169L199 169L200 169L201 169L202 170L202 170L203 170L204 170L204 172L204 174L205 175L206 177L206 177L206 178L206 179L206 180L206 180L206 181L206 183L206 184L206 185L206 186L205 187L205 186L204 186L204 185L203 184L202 184L200 186L200 187L199 187L198 188L198 188L197 188L195 187L196 188L197 189L197 189L197 189L198 189L198 189L200 188L200 188L200 188L200 188L201 189L201 190L201 192L200 193L200 193L200 194V194L201 194L202 193L202 191L202 189L203 189L204 189L205 191L206 194L206 195L207 196L207 196L207 198L207 198L207 199L206 199L206 200L205 200L204 199L203 199L203 200L201 201L200 202L198 201L196 200L197 198L197 196L196 195L196 195L196 197L196 198L196 199L195 199L195 199L195 199L195 200L195 200L195 201L195 202L195 202L195 202L195 203L196 203L196 204L199 204L200 204L202 205L203 206L202 208L202 210L202 211L199 211L198 211L197 212L196 213L195 213L192 212L191 212L189 210L188 206L187 208L187 208L186 209L186 209L185 208L185 208L184 207L183 206L183 205L183 206L183 206L184 207L185 209L186 210L185 210L184 210L183 211L183 212L182 213L182 213L180 214L180 213L179 213L178 212L177 212L176 211L176 212L178 213L179 214L178 214L178 214L177 215L177 214L176 214L175 215L175 215L175 215L175 216L175 216L176 216L176 215L177 215L178 215L179 214L180 214L181 214L183 213L184 212L184 212L186 211L188 211L189 212L190 213L191 213L191 214L192 214L193 216L194 217L195 217L196 218L196 220L196 222L196 225L195 225L195 227L195 228L194 228L194 227L192 226L190 225L189 224L188 223L187 221L186 218L186 216L185 216L185 217L184 217L184 218L181 219L180 220L180 220L178 220L179 221L179 221L180 221L180 220L182 220L183 219L184 219L185 218L185 218L185 218L186 218L186 222L186 223L185 224L184 224L184 225L184 225L185 225L186 224L186 224L187 225L188 226L189 227L190 228L191 229L192 230L193 230L194 230L194 231L195 232L195 233L196 233L196 233L195 235L194 235L194 236L194 236L194 237L195 239L195 237L195 237L195 236L196 236L196 236L197 236L197 238L198 239L197 241L198 243L198 243L198 244L198 246L198 247L198 248L196 248L196 248L195 248L195 247L195 247L195 246L195 246L194 243L194 244L194 244L194 245L194 248L194 248L193 248L192 248L191 248L189 247L189 246L188 244L188 243L188 241L187 240L186 239L186 238L184 238L184 237L183 236L182 235L181 235L180 235L178 235L177 234L177 234L176 234L176 235L178 236L179 236L180 236L181 236L182 236L182 237L182 239L182 240L181 241L180 241L178 242L178 242L177 242L176 242L174 242L174 242L172 242L172 242L172 242L173 243L173 243L173 244L173 245L173 245L172 246L171 247L171 247L169 248L169 248L169 248L171 248L171 248L173 249L175 249L178 248L178 248L178 248L179 248L179 249L178 249L178 250L177 250L176 250L176 251L175 252L174 253L175 253L176 253L176 252L177 251L178 250L179 251L180 250L182 249L183 249L186 250L188 251L190 252L192 252L195 252L195 252L195 252L195 253L194 253L194 254L193 254L193 254L192 254L192 255L192 255L192 256L191 256L190 256L189 256L189 256L189 256L189 257L190 257L190 258L189 258L189 258L188 258L187 258L188 258L188 258L188 259L187 260L187 260L186 261L185 261L184 261L184 261L184 262L184 262L184 263L182 264L182 264L182 265L182 265L182 265L181 266L180 267L180 267L179 267L179 268L178 268L178 268L177 268L176 269L174 270L172 270L172 270L170 271L169 271L168 272L168 272L166 272L166 272L166 272L165 272L165 273L164 273L162 272L163 272L163 273L163 274L162 274L162 274L161 274L160 273L159 272L157 271L156 270L156 271L157 271L157 272L157 272L157 272L156 272L156 272L156 272L157 273L157 274L157 275L156 276L156 276L156 276L154 278L154 278L153 278L153 278L153 280L152 280L152 281L152 281L152 281L152 282L152 282L151 283L150 285L150 288L149 288L149 288L149 288L148 288L148 289L148 289L148 290L147 290L146 292L145 292L145 292L144 292L143 291L143 291L143 290L143 291L143 291L143 291L143 291L144 293L143 294L143 294L142 295L141 296L141 296L141 295L141 295L140 294L140 295L140 295L140 296L140 296L139 296L139 297L138 296L138 296L138 296L137 296L137 296L137 297L137 298L136 298L136 298L135 298L135 298L134 297L135 296L135 296L135 295L135 295L136 293L137 292L137 291L136 291L135 291L134 291L134 291L134 291L135 292L135 292L134 293L134 295L134 295L133 295L132 294L133 295L134 296L134 296L134 297L132 298L130 298L129 298L127 299H126L126 299L128 300L128 301L128 301L128 301L127 302L127 303L126 303L124 303L123 303L122 303L122 303L123 304L123 305L124 305L124 304L125 305L125 307L126 307L126 308L126 308L126 309L125 310L124 310L124 310L124 311L123 311L122 310L122 310L121 310L122 311L123 312L123 311L124 311L124 312L124 313L124 315L125 315L124 316L124 317L123 317L123 317L123 318L122 318L122 319L122 319L122 320L122 320L121 321L121 321L120 321L120 321L119 320L119 320L118 320L118 320L119 320L119 321L120 322L120 322L120 322L119 324L119 324L119 324L118 324L117 324L116 324L116 324L115 324L116 324L116 324L117 325L118 325L118 325L118 326L118 326L118 327L118 327L118 328L118 329L118 330L118 330L119 331L118 331L118 331L117 332L117 332L118 332L118 333L117 333L117 335L116 337L116 340L115 341L114 341L114 342L114 341L113 341L112 341L112 341L112 341L112 341L112 342L113 342L114 342L114 342L114 343L114 343L114 343L115 345L114 346L114 346L113 346L112 346L111 345L112 346L112 346L113 346L112 347L112 347L112 347L111 347L111 346L111 346L111 346L110 346L110 346L110 346L110 346L110 345L110 345L110 344L111 344L110 343L110 344L109 345L109 345L109 345L108 345L106 344L106 343L106 342L107 342L107 342L108 342L108 341L108 340L108 340L107 342L106 342L106 342L106 342L105 341L105 341L104 341L104 341L103 341L103 339L104 338L104 337L104 337L104 336L104 336L104 336L104 336L104 337L104 337L102 337L101 338L101 338L100 339L100 339L100 339L99 339L99 339L98 339L98 339L97 339L97 339L97 339L97 339L97 340L96 340L96 340L95 340L95 339L95 339L95 339L96 338L97 338L96 338L95 338L95 338L94 338L94 336L94 336L94 336L94 336L94 336L94 336L92 335L92 335L92 334L92 333L91 333L91 333L91 333L91 332L91 332L91 332L91 331L91 331L90 330L91 330L92 330L92 329L92 329L93 329L92 329L92 329L91 329L91 329L91 330L90 330L89 329L89 329L89 328L90 328L89 327L89 327L88 327L88 327L87 326L87 326L87 326L87 325L87 325L87 324L87 324L87 323L88 322L89 321L88 321L87 323L87 323L86 322L86 322L86 322L86 321L85 321L85 320L85 320L84 319L84 318L82 316L82 315L82 314L82 313L83 312L85 312L85 311L86 311L87 311L87 311L87 311L86 311L86 311L86 310L86 310L86 310L85 311L84 311L83 312L83 312L82 312L82 312L82 312L82 311L82 311L82 310L83 308L83 308L84 308L85 308L85 308L85 307L85 307L86 307L86 306L87 307L87 307L88 308L88 309L88 308L88 307L88 306L87 306L87 306L86 306L86 305L86 305L86 304L85 303L85 303L84 302L84 302L85 303L85 304L85 305L85 306L85 306L85 306L84 307L83 307L84 306L84 306L83 306L83 306L83 307L82 308L82 309L81 310L81 311L81 311L80 310L80 310L80 309L80 307L80 307L80 306L80 303L79 302L79 302L79 302L78 301L78 301L78 300L79 300L80 300L80 299L82 298L82 297L83 297L84 297L84 296L84 296L83 296L81 297L81 297L81 298L80 298L79 299H78L77 298L76 298L76 298L76 298L76 297L76 295L76 295L76 294L75 294L75 294L75 294L76 293L78 291L79 290L80 290L80 290L81 289L81 288L81 288L82 288L82 287L83 286L83 286L83 286L83 286L82 287L81 288L79 290L78 291L77 292L77 292L76 292L76 293L75 293L74 293L74 293L74 292L74 291L74 290L74 290L75 289L75 288L75 288L76 288L76 287L76 286L78 286L78 286L79 286L79 286L79 286L78 286L77 286L76 286L75 285L75 286L74 285L74 285L73 283L73 282L73 281L74 280L75 280L76 279L77 278L78 277L78 277L79 277L81 278L82 278L82 278L84 278L85 280L86 280L86 279L84 278L84 277L84 277L85 277L84 277L83 277L83 277L81 277L81 277L80 277L79 276L78 277L78 277L77 277L77 277L75 279L74 279L74 279L74 278L74 278V277L74 276L75 275L76 274L76 273L76 272L77 273L79 273L80 274L81 274L82 274L82 274L82 274L83 273L83 273L83 272L83 272L83 271L84 271L83 270L83 270L82 271L82 271L82 271L82 272L81 272L80 272L79 272L78 272L78 272L77 272L76 272L75 272L75 272L75 271L76 270L76 268L77 268L78 267L79 267L81 269L82 269L82 269L84 268L84 268L84 268L85 266L85 266L84 267L84 267H83L84 265L84 263L84 263L85 263L87 263L87 262L87 262L86 262L86 262L86 262L85 262L84 262L84 261L85 260L85 259L85 258L85 257L85 256L86 256L87 256L87 255L86 254L86 254L87 253L87 253L87 253L86 253L86 253L85 253L84 253L84 253L84 253L83 253L82 253L82 253L79 253L79 252L78 251L77 251L76 250L75 249L74 249L73 248L72 248L71 247L71 246L71 245L71 245L71 244L72 244L73 244L74 244L74 244L75 244L76 244L77 245L78 245L79 245L81 248L82 248L83 248L84 249L85 249L86 249L86 248L85 248L84 248L84 247L83 246L83 245L83 245L83 244L83 243L83 243L82 243L81 242L81 242L82 242L82 242L83 242L84 242L84 242L84 242L84 241L83 240L81 240L80 240L80 240L79 239L78 239L77 240L77 240L76 240L76 238L76 238L76 237L77 237L77 236L78 236L80 234L81 234L81 234L81 234L80 234L80 234L78 234L78 234L77 234L76 235L75 235L75 235L75 234L75 234L75 233L76 233L76 232L76 232L75 232L75 232L75 231L75 230L75 230L74 228L74 228L74 228L73 226L74 226L74 225L74 225L73 225L73 226L73 226L73 227L73 227L74 228L74 229L74 229L74 230L75 231L75 231L74 232L74 233L74 233L74 234L73 234L73 234L73 234L73 235L73 235L73 236L72 237L72 237L71 237L70 237L70 237L69 237L68 237L67 236L66 235L66 234L66 233L66 233L67 232L67 230L68 228L69 226L69 226L69 225L69 225L69 225L68 227L67 227L66 227L66 226L66 226L67 226L68 225L67 224L67 224L66 224L67 223L68 223L69 223L69 222L70 221L70 221L70 220L70 220L70 219L70 218L70 218L69 217L68 217L68 217L68 218L68 218L67 217L67 217L67 217L66 217L66 217L66 216L66 215L66 215L67 215L67 214L68 213L68 212L68 212L67 211L66 212L66 212L66 211L66 211L65 210L65 210L64 209L64 209L65 208L65 208L65 206L65 207L66 206L65 206L65 205L65 204L65 204L65 204L65 203L64 203L64 201L64 201L63 201L63 201L62 201L61 201L60 202L60 202L61 201L61 200L62 200L62 199L62 199L62 198L62 197L62 197L63 196L64 196L64 196L63 194L62 194L62 193L61 193L61 192L61 191L60 190L60 190L58 188L57 187L57 186L56 185L56 185L55 184L55 183L56 182L56 181L56 180L55 178L55 178L54 178L53 177L52 176L52 176L51 175L49 174L46 172L45 171L44 171L43 170L41 170L40 169L39 169L39 169L38 168L37 168L36 168L36 169L35 170L34 170L34 169L33 169L33 168L33 168L32 169L31 170L30 171L30 171L29 171L29 171L28 171L28 171L28 171L27 170L27 170L26 170L26 170L25 171L24 171L24 171L24 171L23 170L22 170L22 170L22 171L23 173L24 174L23 174L18 172L17 172L16 171L16 170L14 169L13 168L13 167L13 167L13 166L15 164L16 164L18 163L18 163L18 163L18 162L16 163L14 162L12 161L12 161L12 161L11 160L11 159L12 158L12 158L12 157L10 159L9 160L8 160L8 160L8 159L8 159L8 158L8 158L7 157L6 156L6 156L7 155L7 154L8 154L8 154L12 153L15 154L16 152L16 151L18 150L21 150L23 151L24 151L25 152L25 152L25 151L25 150L25 149L25 148L25 147L25 146L24 145L23 145L23 145L22 146L20 148L20 148L19 148L18 148L18 147L16 147L16 146L16 147L15 148L15 148L14 149L14 149L13 149L11 147L10 147L10 146L10 145L9 145L9 144L10 143L11 142L10 142L9 142L8 143L8 143L7 143L6 143L6 142L5 142L4 141L3 140L2 140L2 139L1 138L0 136L0 136L1 134L1 134L1 133L0 132L0 132L1 130L2 130L3 129L4 127L5 127L6 127L7 127L8 127L8 126L9 125L11 124L15 123L15 122L15 122L15 121L15 121L15 120L17 119L18 118L19 118L20 118L21 118L21 117L24 117L25 118L26 118L26 117L27 116L28 114L29 113L29 111L30 108L30 104L31 101L31 99L31 99L32 98L32 97L33 96L33 96L33 96L32 96L32 96L31 96L30 97L29 97L29 97L28 98L27 98L26 98L25 97L25 97L23 97L23 97L22 96L22 95L22 94L22 92L22 90L22 89L24 87L25 85L26 84L26 84L27 84L28 83L29 81L30 79L31 76L32 75L34 74L35 74L36 74L36 75L38 78L38 78L38 77L37 73L37 72L38 70L38 70L39 70L41 70L42 71L42 72L43 72L44 72L44 72L44 71L45 68L45 65L45 62L45 59L45 58L45 56L46 54L46 53L48 52L49 51L50 51L51 52L52 52L54 54L56 58L57 60L58 60L59 62L61 64L62 66L62 66L63 66L62 65L62 64L60 62L58 58L56 56L55 53L54 52L52 50L52 49L54 47L58 45L63 43L64 43L67 42L67 41L68 41L70 39L70 39L72 40L73 41L73 43L74 45L74 48L74 56L74 58L74 59L75 58L75 56L76 55L76 53L77 50L77 48L76 46L76 42L76 40H77L81 47L83 49L85 52L87 52L89 52L90 52L90 52L89 50L87 46L85 43L84 38L84 36L85 36L88 36L92 38L98 44L101 47L106 54L108 55L108 55L109 54L109 53L109 52L109 50L109 49L109 46L109 42L110 40L110 39L110 36L109 34L105 28L105 28L106 27L107 26L116 28L118 28L119 29L119 29L120 30L122 29L121 28L121 27L110 24L108 23L107 23L106 24L104 24L103 24L102 21L103 18L104 18L106 19L107 17L109 16L110 15L114 12L115 11L116 11L118 12L119 13L120 15L120 16L121 16L122 17L123 14L124 11L125 9L127 10L128 12L129 13L131 14L133 20L134 20L134 19L134 18L134 17L135 15L134 14L132 12L132 11L132 9L132 8L132 7L132 6L134 7L134 6L135 6L135 4L136 4L136 3L138 4L139 5L140 4L140 3L140 2L140 2L144 2L145 2L146 1L147 1L148 1L149 2L150 2L152 1L154 0L163 0L166 1ZM108 47L107 48L106 44L103 42L101 40L98 34L98 32L99 30L100 30L102 29L106 33L108 36L108 38L108 42L108 47ZM209 54L209 54L208 54L206 52L206 50L205 47L206 46L207 46L208 48L208 51L209 54ZM213 103L212 105L209 105L208 104L207 102L208 100L210 98L212 98L214 98L214 100L213 103ZM208 140L207 140L207 138L207 136L207 133L207 131L208 131L208 131L208 133V135L208 137L208 140ZM212 146H211L211 145L211 144L212 142L212 142L213 142L213 143L213 145L212 146ZM4 151L3 152L2 151L1 150L1 150L2 149L2 149L3 149L3 149L4 150L5 150L5 150L5 151L4 151ZM209 173L209 173L208 166V164L208 162L208 162L209 163L209 167L209 173ZM212 183L212 184L212 186L213 187L214 187L214 188L213 189L210 189L209 189L208 188L208 186L208 184L209 183L210 184L211 183L212 183ZM69 220L68 220L68 221L67 222L67 222L66 222L66 222L66 222L66 222L66 221L65 221L65 221L65 221L64 221L64 220L65 220L65 220L66 220L67 220L67 220L67 220L68 219L68 219L69 219L69 220ZM74 241L74 241L73 241L73 240L73 240L73 240L73 239L74 238L74 238L74 239L75 240L75 240L75 240L75 241L75 241L74 241ZM183 243L183 243L183 244L183 244L183 244L183 244L183 245L183 245L183 245L183 246L182 246L181 247L181 248L180 248L180 248L179 247L178 247L176 247L174 248L173 248L173 248L173 248L173 247L173 246L173 246L174 246L174 245L174 244L174 243L174 243L175 243L176 243L177 243L178 243L180 243L182 241L182 241L182 242L182 242L183 242L183 243ZM82 243L81 244L80 243L80 243L80 243L80 242L80 242L81 242L82 243L82 243L82 243ZM78 254L79 255L80 255L80 256L80 256L80 256L80 257L80 257L80 257L81 257L81 258L80 258L80 259L77 260L76 260L74 262L74 261L74 261L73 261L72 261L72 260L72 260L72 260L72 260L73 260L74 259L74 259L74 259L73 258L73 258L73 258L72 258L71 258L70 258L70 257L69 257L69 256L69 254L70 254L70 254L71 254L71 254L70 253L70 253L70 252L69 252V251L70 251L70 251L70 250L71 250L73 250L75 251L75 251L76 252L78 254ZM84 258L84 259L84 258L83 258L83 257L83 256L83 255L83 255L83 254L84 254L84 254L86 255L85 255L85 256L85 256L84 257L84 258L84 258L84 258ZM138 299L138 299L137 298L137 297L138 297L138 298L138 298L138 299ZM102 339L102 340L102 340L101 340L101 340L100 340L100 339L102 338L103 338L103 338L103 339L102 339Z" fill="var(--fill-0,#71B219)" stroke="var(--stroke-0,white)" mask="url(#path-1-inside-1_0_149)"/></g></svg>