<svg preserveAspectRatio="none" width="100%" height="100%" overflow="visible" style="display: block;" viewBox="0 0 237.026 346.847" fill="none" xmlns="http://www.w3.org/2000/svg">
<g id="GL">
<mask id="path-1-inside-1_0_149" fill="white">
<path d="M165.496 1.19746L169.206 3.25085L171.168 5.6156L171.579 5.53741L174.238 6.4386L176.763 7.55925L180.96 10.4535L181.549 11.3958L181.095 12.1639L180.052 12.6906L174.688 13.6261L164.958 14.7687L159.391 16.9702L157.62 17.0827L157.466 20.3171L158.223 20.4927L159.462 20.0606L163.823 16.8166L165.455 16.2789L168.499 16.5505L172.451 17.774L174.046 17.3447L176.889 17.6643L180.214 16.7288L184.142 14.6974L185.216 19.2102L186.664 23.6365L187.81 23.151L188.791 23.3979L189.122 24.8326L189.659 25.4375L190.77 25.1138L194.175 26.3579L196.512 28.5786L197.393 29.606L197.815 31.0627L198.054 32.2232L197.687 33.6428L196.226 36.1502L194.379 38.4286L191.886 40.1665L189.013 41.2487L166.94 44.8301L166.193 45.6737L165.75 47.8121L166.045 50.5609L167.077 50.9875L169.487 49.4472L173.657 47.9767L176.72 48.0467L184.044 49.3018L186.206 52.5512L187.349 57.4536L189.883 56.3617L190.425 55.5236L190.824 54.0628L191.142 52.484L191.38 50.7886L191.645 49.6268L191.939 49.0082L192.571 48.4897L194.025 47.8629L197.838 47.2525L198.756 47.4267L199.415 49.7818L199.558 51.1466L199.606 52.912L199.586 55.071L199.496 57.6113L199.171 60.0968L198.116 64.3736L197.268 66.6684L196.351 68.3089L194.597 72.0069L193.989 72.9849L192.061 77.2028L191.582 79.1314L191.553 80.5318L191.884 80.7979L192.444 79.4825L192.652 78.5388L193.013 77.5457L195.855 74.908L196.464 74.1673L198.324 70.9768L199.511 69.7711L200.487 68.4996L201.004 67.5943L203.861 61.0693L205.351 59.079L206.915 59.0749L207.192 62.4341L209.067 62.9485L209.881 62.8044L211.19 63.6137L211.763 64.2776L212.739 64.615L213.744 65.3996L214.632 64.556L214.89 64.0252L215.747 61.6042L216.906 59.4384L217.979 56.7046L218.335 56.0366L218.899 55.429L219.485 55.1889L221.081 53.89L221.485 53.7994L222.346 54.2109L226.152 54.4249L228.228 55.0943L231.118 56.9419L233.132 57.9474L234.065 58.8335L235.422 60.7222L236.517 62.6823L237.026 63.2543L237.007 63.8716L236.629 64.7206L233.916 67.6642L233.027 69.6106L230.46 73.2346L229.206 74.4663L227.842 74.9478L226.325 75.063L225.34 75.576L225.194 76.0629L225.896 77.5306L226.204 78.5703L226.16 79.4907L225.421 80.8487L225.142 81.1546L222.476 82.1559L221.13 83.8458L219.375 84.0501L218.134 83.8581L216.428 85.6619L217.095 87.1186L217.706 87.7468L219.606 89.0608L219.624 89.8125L218.716 91.3227L217.476 93.0908L216.011 94.3088L215.461 94.4899L214.766 94.184L214.125 94.2498L212.714 94.8095L211.37 94.8986L208.969 94.1072L207.671 93.1882L206.987 92.8699L206.126 92.9577L205.794 93.3295L204.436 95.5145L203.77 96.9932L203.343 98.4965L203.16 100.123L203.222 101.871L203.387 103.061L203.655 103.703L203.977 104.092L204.541 104.295L205.782 104.103L206.269 104.212L206.417 104.561L206.686 105.661L206.639 106.692L206.413 108.135L206.24 109.807L206.116 111.703L206.182 112.732L206.684 112.957L206.919 112.883L207.193 113.22L207.504 113.965L207.738 114.751L207.893 115.576L207.812 116.255L207.492 116.788L206.769 117.387L204.991 118.565L204.81 118.923L204.67 119.637L204.571 120.704L204.356 121.671L204.026 122.535L203.726 123.049L203.15 123.277L202.395 123.307L201.546 123.801L199.546 126.661L199.515 126.976L200.264 127.886L200.232 128.679L199.309 132.052L199.056 133.704L198.855 135.951L198.526 137.829L198.068 139.346L197.617 141.085L197.174 143.039L197.243 144.527L197.825 145.557L198.594 144.724L199.55 142.006L200.59 140.821L201.712 141.192L202.691 141.736L203.94 142.804L204.985 143.468L205.888 144.339L206.26 145.07L206.635 146.097L206.637 146.743L205.976 147.09L205.757 146.979L204.101 145.285L203.294 144.862L202.224 145.372L201.291 146.139L202.129 149.199L203.025 150.592L204.659 151.225L205.512 151.889L206.135 152.735L206.622 153.146L207.276 152.965L208.155 152.134L209.381 152.089L209.934 152.502L210.334 153.27L210.514 154.699L210.474 156.776L210.341 158.327L210.114 159.364L209.672 160.747L209.304 160.998L208.785 160.922L208.302 160.64L207.855 160.147L207.178 159.763L205.817 159.348L204.442 158.442L203.671 158.219L202.041 158.334L200.283 158.907L200.214 159.658L197.686 162.26L197.167 162.224L196.466 161.334L195.483 160.478L194.908 160.483L194.058 161.567L193.846 161.985L193.857 162.379L194.483 163.308L194.738 163.52L195.061 163.699L196.185 163.921L196.673 164.164L197.133 167.011L197.862 168.753L198.174 169.107L198.449 169.235L199.343 169.172L200.494 168.586L200.895 169.055L201.743 169.627L202.238 169.77L202.84 169.746L203.519 169.963L204.449 171.547L204.083 173.528L204.665 175.101L205.595 176.713L205.815 177.3L205.904 178.359L205.925 179.054L205.995 179.689L206.113 180.26L206.236 181.377L206.364 183.031L206.331 184.372L206.134 185.407L205.746 186.154L205.168 186.618L204.696 186.496L204.33 185.788L203.814 185.031L203.15 184.224L202.045 184.13L200.419 186.505L199.694 186.623L199.104 186.858L198.475 187.885L197.55 188.501L196.732 188.257L195.298 187.064L195.819 187.862L196.565 188.793L197.03 189.275L197.372 189.379L197.748 189.268L198.29 188.888L199.513 187.83L199.836 187.668L200.11 187.744L200.334 188.057L200.593 188.963L200.883 190.456L200.846 191.719L200.48 192.755L200.166 193.417L199.906 193.708V193.937L200.59 194.2L201.557 192.857L201.864 191.176L202.307 189.221L203.089 188.567L203.975 189.221L204.691 191.047L205.702 194.368L206.128 194.711L206.67 195.499L206.91 196.464L206.846 197.601L206.731 198.424L206.563 198.934L206.354 199.258L205.977 199.463L205.284 199.628L203.735 199.284L202.929 199.275L203.029 200.384L201.397 201.333L199.558 201.705L197.816 200.964L196.371 199.821L196.845 198.215L197.116 196.418L196.417 195.221L196.265 195.195L196.505 197.042L196.303 197.746L195.514 198.601L194.956 198.994L194.907 199.223L195.181 199.422L195.358 199.804L195.442 200.367L195.348 200.935L195.076 201.507L194.927 201.986L194.903 202.373L195.152 202.842L195.676 203.392L196.244 203.663L198.906 203.781L199.972 204.076L202.501 205.367L202.613 205.762L202.186 208.051L201.952 210.23L201.461 210.626L198.8 210.719L197.943 211.057L196.688 212.047L195.483 213.229L194.859 213.238L192.385 212.206L191.437 211.515L189.401 209.548L187.869 206.522L187.166 207.785L186.735 208.386L186.291 208.697L185.863 208.745L185.45 208.53L184.983 208.054L184.197 206.946L183.26 205.844L182.604 205.319L182.579 205.469L182.967 206.117L183.534 206.864L184.969 209.043L185.474 209.59L185.423 209.979L184.518 210.323L183.417 211.064L182.879 211.607L182.048 212.921L181.759 213.124L180.516 213.453L180.106 213.373L179.187 212.652L177.801 212.179L176.986 211.758L175.852 210.992L176.243 211.829L178.426 213.098L178.665 213.505L178.218 214.262L177.945 214.538L177.425 214.596L176.658 214.438L175.874 214.469L175.072 214.692L174.728 214.974L174.841 215.318L175.032 215.631L175.302 215.914L175.555 215.911L176.166 215.057L176.628 214.996L177.851 215.207L179.088 214.539L179.979 214.25L180.648 214.176L183.079 213.149L183.584 211.994L184.399 211.529L186.212 211.172L187.968 211.354L188.87 211.504L189.601 212.598L190.58 213.371L191.397 214.249L192.355 214.537L192.909 215.698L194.461 216.989L195.449 217.266L196.058 217.878L196.108 220.453L196.172 221.555L195.91 224.581L195.116 225.273L195.274 226.847L195.066 228.112L194.278 227.633L193.471 226.801L191.535 225.503L189.734 224.665L189.034 223.902L188.21 223.31L187.092 220.885L186.364 217.833L186.045 216.309L185.432 216.224L184.646 216.633L183.958 217.065L183.629 217.801L181.293 218.811L180.444 219.499L179.96 219.479L178.216 220.513L178.914 221.007L179.24 221.069L179.946 220.79L180.37 220.433L181.96 219.454L183.237 219.285L183.7 218.861L184.676 218.255L185.338 218.095L185.43 218.248L185.501 218.525L185.968 222.233L185.772 223.21L185.247 223.632L184.123 224.322L183.831 224.657L184.163 225.241L185.219 224.691L185.904 224.092L186.27 224.31L186.869 225.225L187.544 225.692L189.261 227.089L190.074 227.854L191.219 228.591L192.512 229.608L192.849 229.966L194.031 230.492L194.284 230.672L194.772 232.449L195.179 232.647L196.355 232.759L196.149 233.445L195 234.961L194.406 235.444L194.259 235.74L194.315 236.269L194.35 237.154L194.589 238.773L194.859 237.275L195.047 236.564L195.299 236.352L195.547 236.32L196.35 235.645L197.157 236.007L197.367 237.707L197.47 239.281L197.4 240.634L197.488 242.72L197.457 243.421L197.649 244.026L197.847 246.517L198.045 247.26L197.647 247.924L196.419 248.212L195.933 247.886L194.718 247.996L194.717 247.411L194.658 246.739L194.654 246.269L194.573 245.842L194.515 243.376L194.171 243.988L194.15 244.488L194.059 244.997L193.849 247.64L193.535 248.285L192.563 248.13L191.605 248.225L191.076 248.127L189.284 246.927L188.591 245.835L187.977 244.185L187.599 242.634L187.456 241.181L187.026 239.993L186.31 239.073L185.465 238.325L184.491 237.751L183.636 237.007L182.898 236.094L182.088 235.38L181.202 234.87L179.942 234.651L178.1 234.732L176.856 234.156L176.561 234.205L176.27 234.503L176.484 235.349L177.912 235.736L179.012 235.824L180.472 235.769L181.365 235.985L181.692 236.472L181.918 237.336L182.041 238.574L181.752 239.55L180.703 240.63L180.15 241.135L178.533 242.1L177.986 242.314L176.638 242.38L175.602 242.288L174.238 241.808L173.465 241.711L171.865 241.646L171.498 241.807L171.911 242.321L172.589 242.612L173.066 242.958L173.116 243.612L172.944 244.579L172.766 245.252L172.473 245.757L171.424 246.709L170.989 247.009L169.033 248.001L168.897 248.192L169.355 248.166L170.591 247.815L170.948 247.824L172.978 248.681L174.596 248.631L177.873 247.839L178.143 247.854L178.357 247.979L178.575 248.275L178.795 248.745L178.531 249.199L177.782 249.635L176.617 250.064L176.112 250.354L175.629 250.792L174.731 251.845L174.468 252.931L175.413 253.342L175.838 252.821L176.339 251.659L176.79 250.975L177.854 250.51L179.152 250.746L180.155 250.47L182.205 249.314L182.572 249.242L185.588 249.905L188.321 251.201L189.763 251.676L191.671 251.956L195.102 251.828L195.403 252.031L195.292 252.488L195.093 252.873L194.52 253.41L193.826 253.764L193.396 253.864L193.03 254.116L192.209 254.363L191.999 254.563L192.283 255.436L192.149 255.57L191.425 255.585L190.206 256.152L189.206 256.112L188.997 256.194L189.187 256.404L189.388 256.809L189.601 257.407L189.484 257.833L189.035 258.087L188.696 258.169L187.522 257.814L187.332 257.868L187.504 258.124L187.602 258.514L187.625 259.038L187.338 259.475L186.738 259.828L185.62 260.796L185.133 261.072L184.106 261.299L183.89 261.426L184.307 262.164L184.26 262.458L183.567 263.253L182.517 263.746L182.374 264.013L182.278 264.726L182.201 265.01L181.923 265.417L180.927 266.191L180.221 266.575L179.872 266.889L179.439 267.413L178.892 267.69L178.233 267.722L177.609 267.918L176.583 268.473L175.867 268.657L173.608 269.612L172.546 269.764L171.627 270.104L169.736 271.011L168.835 271.302L168.21 271.646L167.528 271.745L166.418 271.521L165.819 271.513L165.451 271.649L165.113 271.926L164.556 272.683L164.083 272.74L162.531 272.141L162.563 272.413L162.973 273.061L162.954 273.52L162.031 273.985L161.534 274.103L160.801 273.912L159.831 273.41L158.586 272.359L157.06 270.747L156.326 270.2L156.379 270.72L156.55 271.228L156.837 271.72L156.895 272.077L156.725 272.297L156.5 272.409L156.221 272.41L156.173 272.535L156.628 273.3L156.987 274.083L156.954 274.824L156.528 275.524L156.162 275.932L155.856 276.053L154.045 277.784L153.54 278.002L153.31 278.215L153.122 278.533L152.595 279.953L152.381 280.385L151.958 280.946L151.78 281.043L151.729 281.272L151.806 281.632L151.689 282.23L151.38 283.064L150.325 285.352L149.475 287.467L149.102 288.155L148.829 288.446L148.657 288.342L148.235 288.395L148.03 288.764L147.844 289.43L147.642 289.936L147.423 290.283L145.718 291.775L145.279 292.051L144.884 291.877L144.418 291.944L143.45 291.158L143.283 290.868L142.658 290.22L142.679 290.558L142.783 290.745L142.87 291.018L143.089 291.353L143.573 293.104L143.19 293.462L142.848 293.87L141.974 294.557L141.029 295.704L140.681 296.023L140.603 295.089L140.643 294.809L140.109 294.355L140.125 294.682L140.07 294.986L139.684 296.196L139.576 296.404L139.385 296.358L138.97 296.58L138.545 296.474L138.183 295.926L138.04 295.64L137.382 296.424L137.063 296.403L137.009 297.059L136.7 297.655L136.291 297.913L135.72 297.893L135.371 298.245L134.596 297.868L134.418 297.159L135.031 296.184L135.205 295.78L135.092 295.282L135.24 294.638L136.412 292.582L137.206 291.534L137.161 291.346L136.082 291.117L135.14 290.756L134.222 290.632L133.816 290.755L134.463 291.358L135.378 291.942L134.928 292.499L134.54 293.089L134.138 294.687L133.881 295.339L132.884 294.591L132.412 294.337L132.712 295.167L133.585 295.952L133.642 296.21L133.636 297.138L131.963 297.954L130.218 298.078L128.964 298.308L126.85 298.588H126.029L125.958 298.901L128.026 300.322L128.327 300.581L128.04 301.068L127.612 301.37L126.941 302.408L126.59 302.765L125.72 303.255L124.121 302.709L123.298 302.953L122.511 302.781L122.494 303.378L122.73 303.813L122.968 304.89L123.496 304.806L124.167 304.467L124.686 305.281L125.027 306.652L125.623 307.345L125.887 307.88L125.994 308.383L125.623 308.884L124.854 309.589L124.001 309.721L124.048 310.277L123.679 310.677L122.896 310.56L122.53 310.28L122.151 310.149L120.593 309.999L122.162 311.069L122.719 311.565L122.966 311.272L123.51 311.201L124.312 311.472L124.178 313.264L124.529 314.705L124.572 315.028L123.717 315.886L123.704 316.686L123.195 316.908L122.647 316.857L122.618 317.731L122.247 318.274L122.313 318.614L122.419 318.918L122.08 319.469L121.775 320.138L121.338 320.723L121.106 320.662L120.412 320.701L119.577 320.651L118.9 319.891L118.619 319.638L118.303 319.472L118.424 319.961L118.614 320.255L119.238 320.804L120.388 321.48L120.353 321.959L120.046 322.166L119.329 323.462L119.075 323.491L118.753 323.824L117.759 323.712L117.343 323.579L116.117 323.664L115.7 323.55L115.342 323.605L115.675 323.969L116.377 324.297L117.175 324.626L118.388 324.875L118.344 325.344L118.04 325.728L118.215 326.3L118.079 326.709L118.021 327.194L117.737 328.319L118.068 329.087L118.427 329.462L118.385 329.954L118.555 330.739L118.015 331.437L117.568 331.411L116.931 331.567L116.719 331.874L117.729 332.164L117.637 332.684L117.362 333.334L117.073 334.734L116.485 337.118L116.21 339.464L114.949 341.376L114.502 341.429L114.389 341.505L113.774 341.407L112.808 340.967L112.061 340.822L111.556 340.816L111.492 341.036L111.91 341.39L112.55 341.538L113.061 341.772L113.979 341.99L114.298 342.413L114.517 342.863L114.485 343.11L114.484 343.4L114.648 344.963L114.216 345.5L113.885 345.986L112.739 345.919L112.54 345.749L111.434 345.237L111.501 345.477L112.302 346.171L112.581 346.517L112.394 346.588L112.071 346.614L111.621 346.847L110.808 346.721L110.853 346.371L111.007 346.011L110.636 346.072L110.222 346.255L109.981 346.188L109.78 346.208L109.666 346.027L109.509 345.321L109.696 344.966L110.366 344.044L110.58 343.547L110.394 343.321L109.915 343.853L109.421 344.697L109.201 345.206L108.892 345.304L108.123 345.048L105.934 343.867L105.999 343.147L105.978 342.549L106.616 342.473L107.08 342.213L107.495 341.893L107.963 341.31L108.392 340.344L108.337 340.27L107.078 341.502L106.304 341.912L105.93 341.988L105.743 341.807L105.12 341.412L104.715 341.232L103.792 340.938L103.628 340.781L103.357 340.654L102.989 339.392L103.465 337.851L103.792 337.401L104 336.88L104.117 336.187L104.035 335.891L103.758 335.992L103.628 336.229L103.649 336.601L103.489 336.859L102.389 337.45L101.285 337.929L100.763 338.382L100.423 338.734L100.157 339.08L99.7515 339.05L99.1916 339.119L98.8078 339.344L98.2465 339.206L97.8806 338.873L97.439 338.834L96.9437 338.995L96.6012 338.981L96.6301 339.207L96.8585 339.763L96.4802 339.8L95.762 339.822L95.4002 339.66L95.1168 339.449L94.8816 339.154L95.0233 338.767L96.1788 338.056L96.703 337.644L96.3605 337.502L95.2516 337.63L95.0673 337.523L94.3244 337.587L94.3561 336.524L94.1758 336.26L94.1635 336.135L93.9062 335.837L93.6627 335.763L93.5114 335.656L92.2568 335.416L92.093 334.819L92.0064 334.203L91.767 333.437L91.1658 333.236L90.8411 332.903L91.0998 332.562L91.2126 332.128L90.9347 331.929L90.7573 331.623L90.7834 331.424L90.5578 330.885L90.4904 330.464L90.749 330.068L91.4588 329.619L91.6886 329.438L91.8069 329.242L92.6213 328.912L91.928 328.678L91.4946 328.643L91.1782 328.752L90.8866 329.191L90.6142 329.482L89.5521 329.577L89.3953 329.426L89.321 328.806L89.3816 328.327L89.8231 327.652L89.3141 327.318L88.8478 327.208L88.3181 326.894L87.8284 326.562L87.4075 326.175L86.9975 325.718L86.8668 325.661L87.014 325.182L87.0979 324.787L87.1103 323.937L86.9452 323.583L87.3125 322.853L87.8064 322.053L88.8987 320.861L87.7431 321.436L86.7939 322.686L86.593 322.743L86.5229 322.517L86.1625 321.706L85.8914 321.484L85.7704 321.24L85.2297 320.805L84.9958 320.47L84.6629 319.823L84.1897 319.049L83.517 317.517L82.4302 315.741L82.1619 314.737L82.4989 313.457L82.1261 312.571L83.1579 312.159L84.634 311.697L85.4003 311.312L85.8419 311.196L86.7801 311.125L87.0938 310.737L86.5724 310.836L86.2216 310.785L86.1996 310.604L86.3289 310.282L86.4128 309.865L86.2339 309.94L85.3164 310.657L83.9599 311.225L82.9007 311.541L82.7287 311.524L82.3573 311.715L82.144 311.77L81.9789 311.715L81.6048 311.172L81.5043 310.817L82.1771 309.85L82.6792 308.524L83.3436 307.653L83.8128 307.544L84.5983 307.59L84.8748 307.667L84.7868 307.15L84.8198 306.899L85.4567 306.597L86.1996 306.463L86.7278 306.558L87.0608 307.167L87.4886 308.286L88.065 308.663L88.0389 308.127L87.7403 307.434L87.6289 306.367L87.2492 305.916L86.9452 305.693L86.1033 305.802L85.597 305.017L85.4828 304.729L85.4704 304.345L84.9642 303.215L84.8019 302.647L84.5336 301.89L84.3905 301.849L84.5721 302.802L84.8088 303.47L85.1472 304.932L85.315 305.519L85.088 305.983L84.6602 306.441L84.2819 306.714L83.3876 307.04L83.5803 306.327L83.7027 305.625L83.2528 305.874L82.8346 306.385L82.6902 307.09L82.4219 307.728L81.6254 309.287L81.3118 310.149L81.0146 310.572L80.6762 310.689L80.3831 310.353L80.1341 309.561L80.0172 308.94L80.0034 307.322L80.0351 306.563L79.8989 305.537L79.4683 303.132L79.3775 302.27L78.6497 301.81L78.6387 301.662L78.4489 301.168L78.3017 300.673L78.4228 300.492L78.5961 300.362L79.6843 299.629L80.4904 298.806L81.4548 297.51L81.8483 297.107L83.2625 296.795L83.8898 296.753L83.8843 296.521L83.6738 296.429L82.7191 296.49L81.4466 297.011L81.2278 297.199L80.6707 298.007L80.2414 298.447L79.0336 299.45H78.2494L77.4405 298.248L76.5367 298.478L75.9273 298.399L75.7498 298.218L75.615 296.566L76.1061 294.625L75.5751 294.606L75.4651 294.528L75.1844 294.084L75.0014 293.951L75.1376 293.715L76.4459 292.787L78.4035 290.958L79.2454 290.235L79.7654 289.922L80.1589 289.564L80.6376 288.785L80.7959 288.443L81.0628 288.168L81.6254 287.856L82.2403 287.384L83.2377 286.32L83.3684 285.925L83.151 285.833L82.6847 286.198L81.7368 287.172L81.06 287.718L78.7502 290.147L77.7666 291.025L77.2314 291.584L76.816 292.117L76.3771 292.495L75.9121 292.722L74.9216 292.89L74.4346 293.086L74.1416 292.944L74.0123 291.808L74.1114 291.133L74.0646 290.465L74.3122 289.505L74.6795 288.823L74.8336 288.452L74.8982 288.196L75.6549 287.487L76.0717 287.173L76.3661 286.46L78.0458 286.206L78.4792 286.232L78.7089 286.136L78.8809 285.929L78.7144 285.769L78.2109 285.655L76.8724 285.677L75.6356 285.555L75.0716 285.431L74.7992 285.502L74.3494 285.294L73.8582 284.895L73.0961 283.424L73.4015 281.523L73.4276 280.61L74.3961 279.807L74.9134 279.541L75.648 278.935L76.6289 277.901L77.7996 277.267L78.3966 277.149L78.8919 277.24L80.7243 278.138L81.6667 278.314L82.4948 278.098L83.5335 278.412L85.3714 279.699L85.7263 279.508L85.6231 279.197L83.5734 277.835L83.5844 277.426L84.1085 277.319L84.6684 276.921L84.3534 276.685L82.9914 276.89L82.598 277.216L81.2773 277.385L80.5881 277.108L79.9691 276.969L79.0405 276.377L78.2632 276.57L77.7721 276.803L76.904 277.024L76.5904 277.182L74.8941 279.036L74.1801 279.421L73.6725 279.294L74.0288 278.09L74.132 277.613V277.093L74.2792 276.378L75.1486 275.011L75.6948 273.505L75.9259 272.565L76.3538 272.459L76.937 272.598L78.6897 273.207L80.1479 273.931L81.2237 274.124L81.9308 274.145L82.2334 273.915L82.4728 273.513L82.565 273.234L82.6338 272.664L82.7149 272.461L82.9516 272.211L83.4344 271.34L83.5816 270.719L83.4234 270.355L83.1015 270.392L82.4728 270.631L82.3875 270.73L82.3985 270.924L81.7919 271.886L81.1301 272.107L79.6073 272.428L78.9125 272.451L77.6772 272.005L77.4901 271.831L77.3621 271.503L75.8461 271.577L75.3935 271.676L75.0331 271.634L75.2092 271.063L75.6879 270.428L76.3592 268.35L76.9219 267.815L78.0389 267.316L79.2042 267.396L81.2196 269.011L81.8276 269.151L82.3848 269.021L83.7178 268.481L83.9627 268.262L84.4428 267.591L85.0027 266.439L84.9752 266.166L84.1154 266.811L83.6573 266.984H83.2693L83.6298 264.868L83.7701 263.236L83.9049 262.829L85.0344 262.951L86.5779 262.729L86.9452 262.369L86.9397 262.21L86.3206 261.992L86.0221 261.533L85.5035 261.678L84.8088 261.984L83.9366 261.95L84.0095 261.24L84.6492 259.747L84.7152 259.062L84.9642 257.689L84.9903 256.981L85.3136 256.291L86.322 255.799L86.7457 255.504L86.7691 255.18L86.1652 253.945L86.3179 253.602L86.7925 253.289L86.9686 253.06L86.8475 252.917L86.4115 252.78L85.7401 253.054L84.9972 253.186L84.3396 252.773L83.8251 252.574L83.5004 252.636L82.6159 253.342L82.3064 253.366L81.9239 253.17L79.3899 252.558L79.0749 252.341L78.1669 251.278L77.4185 250.573L76.4225 249.801L75.1307 249.212L73.5446 248.809L72.5954 248.429L72.1276 247.891L71.3256 246.705L70.7161 245.712L70.602 245.219L70.9596 244.609L71.3242 244.17L72.0107 243.809L73.1951 243.929L73.8307 244.089L74.5309 244.433L75.0606 244.498L76.1597 244.401L77.2782 244.62L77.9399 244.861L78.8094 245.363L81.2086 247.488L82.2101 248.222L82.6448 248.31L84.4401 249.092L84.7276 249.077L85.4622 248.71L85.5351 248.473L85.2875 248.238L84.4951 248.056L83.5651 247.189L82.9887 246.499L82.9227 245.354L82.9983 244.709L83.1428 244.416L83.2446 243.424L82.7053 242.833L82.3298 242.646L81.3296 241.781L81.2457 241.565L81.7258 241.464L82.1963 241.523L83.2047 241.962L83.7329 242.022L84.1181 241.851L84.1622 241.674L83.5486 241.174L82.781 240.279L81.1769 240.146L80.1369 240.247L79.4724 239.939L78.7653 239.436L78.31 239.308L77.3814 239.623L76.9122 239.663L76.4844 239.552L76.0621 237.961L76.1749 237.482L76.5064 237.275L76.7568 236.758L76.9315 236.216L77.4818 235.685L80.5014 234.498L81.2636 233.612L81.2306 233.475L80.7161 233.64L80.0585 234.04L79.6196 234.123L77.8423 233.606L77.5644 233.723L76.8449 234.466L75.8681 235.268L75.4182 235.219L74.8157 234.744L74.7208 234.405L74.6767 233.998L75.3385 233.438L75.5503 233.142L75.9782 232.342L75.9562 231.946L75.2257 232.164L75.1307 231.795L75.1417 231.163L75.0716 230.36L74.8927 229.565L74.2929 228.337L74.0439 228.021L73.839 227.565L73.3864 225.89L73.5171 225.469L73.9187 225.149L73.9958 225.002L73.0369 225.267L72.9324 225.558L73.1126 225.987L73.2419 226.558L73.3189 227.268L73.4524 227.888L73.7991 228.566L74.077 228.921L74.5296 229.86L74.7277 230.887L74.6699 231.426L74.3191 231.973L73.7523 232.562L73.5803 233.049L73.5033 233.533L73.0617 233.98L72.7907 233.813L72.5761 233.787L72.8292 234.582L72.9929 235.394L72.7962 236.205L72.2721 236.695L71.9873 236.71L71.4274 237.106L69.9939 237.313L69.4945 237.216L68.5797 236.814L67.4943 236.594L67.0637 236.051L66.4997 235.059L66.2149 234.168L66.2094 233.376L66.3621 232.799L66.673 232.434L67.0472 230.093L67.5754 228.185L68.9057 226.201L69.2854 225.48L69.4106 225.092L69.4092 224.795L69.1946 224.607L67.5589 227.07L66.5505 227.33L66.2493 226.779L66.34 225.797L66.5203 225.568L67.336 225.661L67.6525 225.112L67.1421 224.281L66.5987 224.061L66.4721 223.852L67.0307 223.215L68.3238 223.262L68.6155 222.816L69.0832 222.335L69.6032 221.437L69.7972 220.68L69.8412 220.029L69.7284 219.502L69.7174 218.973L69.8054 218.44L69.6692 217.851L69.3102 217.203L68.5109 216.569L68.2757 217.285L68.0267 217.579L67.6772 217.645L67.3553 217.343L67.0183 217.235L66.6881 216.966L66.3442 216.879L66.2107 216.663L66.1241 216.054L66.1172 215.277L66.5052 214.912L67.0458 214.626L67.4076 214.081L67.6456 213.29L67.68 212.422L67.5108 211.478L67.0719 210.626L66.2589 211.455L65.9397 211.657L65.8668 211.065L65.754 210.626L65.4129 210.028L64.963 209.592L64.531 209.301L64.5118 208.858L64.6136 208.357L64.8062 207.773L65.0552 206.548L65.3289 206.658L65.5573 206.545L65.4252 205.529L65.2051 204.672L64.9465 204.182L64.9369 203.969L64.8777 203.72L64.6782 203.115L64.454 202.67L64.0633 201.407L63.7813 200.923L63.4195 200.672L63.0302 200.658L62.4042 200.993L61.25 201.377L60.3352 201.559L60.1825 201.459L60.6406 200.978L61.3147 200.476L62.2061 200.134L62.4661 199.295L62.3698 198.566L62.407 197.874L62.1621 197.143L62.4001 196.737L63.2117 196.326L63.5804 196.263L63.9464 195.741L62.9174 194.475L61.8388 193.642L61.5692 193.302L61.3325 192.742L61.1289 191.96L60.796 191.176L60.3365 190.386L59.6652 189.622L57.9346 188.217L57.3403 187.243L56.7927 185.745L56.519 185.103L56.2342 184.627L55.0291 183.508L54.8833 183.012L56.1283 181.684L56.2493 181.152L55.7403 179.526L55.2204 178.33L54.6535 177.904L53.8102 177.684L53.0371 177.149L52.3341 176.299L51.6325 175.675L50.5815 175.079L48.8233 173.542L46.1133 171.885L44.9027 170.911L44.1818 170.556L43.2325 170.465L41.396 169.55L39.8525 169.257L38.9005 169.391L38.5896 169.239L37.8852 168.305L36.7833 167.767L36.2138 167.971L35.5066 168.973L34.6537 169.956L34.1998 170.089L33.5256 169.191L33.1859 168.561L32.8612 168.346L32.5517 168.549L31.9491 169.376L31.3754 169.971L30.5266 170.676L29.8484 171.014L28.9776 171.096L28.7589 171.351L28.4232 171.362L27.972 171.132L27.5483 170.674L27.1534 169.986L26.8054 169.615L26.5028 169.56L25.808 169.916L24.9289 170.962L24.5272 171.213L24.1902 171.104L23.7775 170.779L22.9507 169.945L22.4926 170.026L22.1597 170.318L22.2519 171.01L23.0264 172.642L23.7183 173.798L23.1337 173.934L18.0271 172.369L17.3764 171.99L16.4368 171.037L15.6554 170.45L14.3251 168.926L13.3002 168.098L12.9604 167.447L12.871 166.999L13.1971 166.391L15.2606 164.33L16.0489 163.911L17.6529 163.411L18.0312 163.096L18.1578 162.847L17.7368 162.396L15.6361 162.557L13.7652 162.256L12.1364 161.423L11.853 161.146L11.5765 160.634L11.3082 159.888L11.3687 159.05L11.7594 158.119L11.9892 157.477L12.0566 157.128L10.0095 159.422L9.17312 160.22L8.51005 159.976L8.04504 159.599L7.8167 159.178L7.82497 158.713L7.90062 158.372L8.04231 158.16L6.95962 157.208L6.47266 156.458L6.42035 155.681L6.8042 154.877L7.17974 154.293L7.54704 153.927L8.54859 153.609L12.2052 152.998L14.8231 153.584L15.7146 151.638L16.3171 151.013L18.078 150.362L20.7881 150.271L22.7017 150.632L23.5986 151.092L24.8202 152.103L24.8904 151.798L24.596 150.885L24.5754 150.123L25.0692 148.794L25.2962 147.956L25.1422 147.08L24.6057 146.165L23.6564 144.985L23.1447 144.888L22.5765 145.173L21.8942 145.827L20.4758 147.468L19.8059 147.809L18.6888 147.896L18.0711 147.69L17.4741 147.444L16.5414 146.576L16.2016 146.413L15.7888 146.794L15.3046 147.717L14.8382 148.362L14.3884 148.73L13.9688 148.889L13.3827 148.813L10.9684 147.381L10.4236 146.741L10.392 145.767L9.65051 144.819L8.8127 144.653L8.71089 144.335L9.77293 142.863L10.5653 142.259L10.4388 142.077L9.2887 142.046L8.51282 142.831L8.06843 142.965L7.04631 142.986L5.97327 142.593L5.51654 142.249L5.04331 141.456L4.51227 141.009L2.90958 140.328L2.54777 139.956L2.20523 139.338L0.895578 137.578L0.103194 136.276L0 135.534L0.914848 133.933L0.954732 133.562L0.562654 132.866L0.398963 132.352L0.53377 131.64L1.33442 130.056L1.63158 129.625L3.06643 128.688L4.50404 127.319L5.02677 127.011L5.49316 126.939L7.38197 127.022L7.96666 126.683L8.46328 126.011L9.27904 125.328L10.9808 124.287L14.7639 122.704L15.0102 122.516L15.0322 122.214L14.6924 121.392L14.6209 120.995L15.3954 120.254L17.1439 119.081L18.3394 118.515L19.1084 118.473L19.7288 118.22L20.5996 117.476L21.0921 117.345L24.0677 117.052L25.3843 117.458L26.0309 117.45L26.4463 117.162L26.9953 116.316L28.0215 114.201L28.5621 112.877L29.0725 110.848L29.7315 107.641L30.224 104.469L30.55 101.329L30.8045 99.395L30.9848 98.6981L31.6024 97.8121L32.2463 97.118L33.3523 96.5021L33.2519 96.2141L32.7828 95.7312L32.3467 95.5461L31.9436 95.6572L31.2076 96.3855L30.2543 96.878L29.3284 96.8011L28.6612 96.9836L28.049 97.6475L27.0571 98.1797L26.3954 98.059L25.1999 97.1057L24.5974 96.9273L23.069 97.0179L22.6219 96.6626L22.2312 95.9672L21.9203 94.9933L21.6878 93.7341L21.7194 92.4187L22.2697 90.0237L22.4802 89.3667L23.9701 86.6549L24.8877 85.3752L25.8011 84.4123L26.4656 83.8444L27.0929 83.5893L27.6955 82.9885L28.8029 81.0435L29.9461 79.3632L31.3686 76.207L32.0564 75.3716L34.4653 73.978L35.1201 73.9561L35.6759 74.3031L36.2028 75.0287L37.6816 78.1671L37.7972 78.0711L37.5386 76.8873L36.9993 73.3086L37.086 71.8204L37.932 70.2183L38.2787 69.9316L39.1715 70.0386L40.6118 70.5351L41.5748 71.0783L42.3053 71.9589L43.1734 72.5035L43.6232 72.476L43.9438 72.0563L44.4033 70.6819L45.0017 68.3322L45.2411 65.4024L45.1228 61.8689L44.9494 59.2518L44.7183 57.5866L44.8448 56.1889L45.5698 54.5004L46.2343 53.259L47.8191 51.4923L49.1054 51.0205L49.8675 51.1398L50.8704 51.971L52.2612 52.4799L53.5172 54.0779L55.5519 57.7059L56.9014 59.5056L58.0199 60.3094L59.1218 61.6714L60.7506 64.53L61.6035 65.7453L62.1098 66.1842L62.5569 66.2542L62.3904 65.4476L61.6118 63.7536L60.4205 61.8731L57.7777 58.4535L56.3209 56.0065L55.0153 53.1836L54.0551 51.4868L52.3135 49.7914L52.3369 49.1125L54.4389 46.7066L58.3019 44.5915L62.656 42.9235L64.1128 43.095L66.673 42.394L66.9137 41.331L67.464 40.8523L69.8481 39.3599L70.5318 39.3805L71.5814 40.0897L72.6999 41.4353L73.2172 42.6464L73.9201 44.7108L74.2641 47.5858L74.2118 56.4248L74.2311 58.0571L74.3659 58.6839L74.8515 57.7498L75.4306 56.0065L75.952 54.7651L76.3524 52.8352L76.633 50.2016L76.7995 48.2291L76.1185 45.9796L76.0855 42.2349L76.4266 40.2131H77.38L81.3241 47.1194L82.8759 48.583L84.6423 52.1726L86.7058 51.7941L88.6098 52.2316L89.4517 52.1013L89.8672 51.5472L89.2756 50.0617L86.571 45.9275L85.3425 42.6286L84.4827 38.4437L84.2736 36.1873L84.9312 35.7785L87.9522 35.8265L92.492 37.7866L98.2974 44.4365L101.155 46.5941L106.275 53.9764L107.82 55.071L108.443 55.3L108.914 54.4071L109.204 53.4332L109.226 52.1288L108.978 50.4882L108.835 48.5761L108.799 46.3856L109.146 41.9825L109.972 40.5272L110.336 38.8702L109.996 35.8485L109.029 33.7553L105.264 28.2728L105.249 27.6102L106.01 26.8791L107.138 26.4498L116.469 27.779L118.081 28.2645L118.769 28.7405L119.07 29.3673L119.457 29.6348L121.461 28.8886L121.413 27.5197L121.163 26.6446L110.333 24.2373L108.315 23.4088L107.288 23.3457L106.226 23.9822L104.023 24.2963L103.006 24.1756L101.688 21.2745L102.881 17.7329L103.886 17.8138L105.794 19.2006L106.924 17.261L108.718 15.6452L110.493 15.0732L114.364 11.5522L115.08 11.2422L115.982 11.4315L117.982 12.345L118.773 13.2187L119.68 15.0773L120.205 15.6493L120.83 15.7549L121.686 16.5889L122.924 13.8771L124.042 10.9294L125.327 9.04613L127.144 10.1462L128.294 11.5714L129.345 13.2585L130.833 14.1858L133.353 19.8302L133.823 19.8356L134.046 19.3638L134.284 18.3268L134.369 16.7782L134.679 14.6576L134.455 13.8689L132.343 11.4863L131.944 10.5632L131.54 9.03379L131.533 7.76225L131.925 6.75408L132.338 6.29183L133.702 6.71156L134.153 6.38236L134.58 5.52369L135.093 3.90376L135.498 3.48952L136.411 3.44151L137.816 4.48397L139.045 4.57176L139.488 4.09305L139.556 3.07527L139.663 2.4251L139.809 2.15077L144.266 2.09453L145.372 1.85038L146.236 1.07264L147.294 0.980741L148.219 1.44573L149.363 2.43608L150.501 2.38944L152.196 0.770876L153.791 0L162.6 0.21398L165.496 1.19746ZM107.925 47.0028L107.142 47.4939L105.507 44.5229L102.92 41.5121L100.637 39.482L98.4928 34.0626L98.3236 32.1052L98.6276 30.3741L100.5 30.1094L101.998 29.3097L105.811 32.7512L107.718 35.6249L108.365 37.9471L108.264 42.5216L107.925 47.0028ZM209.078 53.5333L208.68 54.4044L207.662 54.0559L206.358 51.602L205.489 49.5679L205.427 47.1551L205.874 46.0742L206.57 45.8932L207.526 47.9616L208.507 50.7201L209.078 53.5333ZM213.142 102.565L211.507 105.049L209.09 104.858L207.66 103.714L207.251 101.987L207.796 100.053L209.532 98.4924L211.711 97.5117L213.686 98.1015L213.959 100.053L213.142 102.565ZM207.794 139.675L207.283 140.325L206.943 138.368L206.636 135.732L206.567 132.728L207.35 131.211L207.759 130.872L208.031 131.211L207.962 132.56V135.234L208.235 137.055L207.794 139.675ZM211.824 145.715H211.074L210.796 145.247L210.974 144.417L212.018 141.72L212.366 141.5L212.876 141.793L213.032 143.181L212.69 144.56L211.824 145.715ZM4.44212 151.345L3.06643 151.5L1.71139 150.816L1.24639 150.285L1.267 149.472L1.472 149.189L2.20385 148.907L2.81193 148.843L3.22189 148.97L4.18623 149.472L4.88374 149.972L5.34181 150.129L5.21112 150.846L4.44212 151.345ZM209.396 172.797L208.953 173.218L207.455 166.52V164.047L207.556 162.138L208.237 161.99L208.817 163.02L209.089 166.952L209.396 172.797ZM211.642 182.709L211.949 184.319L212.085 185.785L212.563 186.712L213.585 186.581L213.993 188.295L213.245 188.952L210.283 188.69L209.057 188.821L208.206 187.77L208.24 185.918L208.342 184.051L209.193 182.979L209.909 183.918L210.76 183.248L211.642 182.709ZM68.7269 219.532L68.1807 220.413L67.7364 220.916L66.7707 222.41L66.6042 222.462L66.3442 222.269L66.142 221.876L65.7774 221.782L65.6509 221.534L65.5999 221.332L65.4376 221.203L65.1804 221.122L64.7677 221.276L64.3893 221.122L64.1032 220.465L64.6315 220.023L64.9575 219.646L66.219 219.498L66.5753 219.671L66.7996 219.667L67.1407 219.564L67.8864 219.093L67.9978 218.874L68.665 219.15L68.7269 219.532ZM74.4484 241.24L74.0866 241.318L73.0493 240.716L72.8801 240.489L72.8154 240.21L72.8554 239.88L73.1855 239.262L73.8059 238.356L74.2558 238.186L74.5351 238.755L74.8088 239.517L74.8446 239.903L74.8267 240.357L74.7552 240.741L74.63 241.056L74.4484 241.24ZM182.949 242.65L183.086 243.343L183.099 243.669L183.07 243.942L182.995 244.139L182.813 244.311L183.152 244.768L183.262 245.075L183.282 245.32L183.066 245.791L181.528 246.414L181.1 246.713L180.567 247.452L179.917 248.086L179.701 248.083L179.45 247.426L178.423 246.942L176.493 247.195L174.233 247.804L173.431 248.088L173.025 247.937L172.901 247.709L172.896 247.392L173.163 246.462L173.271 246.225L173.79 245.915L174.141 245.092L174.027 244.193L174.161 242.936L174.516 242.739L175.404 243.188L175.977 243.283L176.994 243.34L178.36 243.189L179.458 242.676L181.461 241.209L181.816 241.228L182.07 241.749L182.257 242.004L182.853 242.403L182.949 242.65ZM81.6295 243.428L81.1136 243.46L79.914 243.247L79.8178 243.11L79.8026 242.851L79.9622 242.102L80.4904 242.001L81.1191 242.412L81.7974 242.995L81.8909 243.269L81.6295 243.428ZM77.552 253.871L78.8383 254.781L80.2016 255.408L80.335 255.693L80.4409 256.126L80.4657 256.35L80.4354 256.559L80.3488 256.751L80.4478 256.998L80.7339 257.3L80.7628 257.652L80.4217 258.256L79.9416 258.925L77.402 260.295L76.5037 260.527L74.2833 261.463L73.6037 261.424L73.4538 261.38L73.0342 260.969L72.4591 260.586L72.1895 260.289L71.9515 259.861L72.0464 259.596L72.4743 259.492L73.0823 259.498L73.9752 259.187L73.7276 258.906L73.4937 258.734L73.3313 258.361L72.9585 258.434L72.6792 258.22L72.1414 258.084L70.7368 257.955L69.8206 257.588L69.5509 257.367L69.3129 256.986L69.1066 256.448L69.4065 254.349L69.6128 253.812L70.0888 253.635L71.2527 254.104L71.4095 253.902L70.1356 253.123L69.6679 252.658L69.5303 252.29L69.4477 251.749V251.43L69.5056 251.109L69.6197 250.787L69.9292 250.351L71.2197 249.654L72.6256 249.893L75.0661 250.749L75.3687 250.93L76.1171 251.661L77.552 253.871ZM84.1828 258.23L83.5775 258.618L83.4551 258.531L83.3326 258.235L83.0203 256.885L82.9282 256.243L83.0052 255.442L82.8841 254.876L83.4303 254.215L83.8719 254.101L84.4676 254.274L85.4759 254.946L85.4031 255.164L85.1843 255.514L84.5776 255.971L84.363 256.997L84.3218 257.51L84.3506 257.894L84.1828 258.23ZM138.168 298.812L137.567 298.817L137.367 298.087L137.426 297.289L138.103 297.038L138.468 297.588L138.337 298.406L138.168 298.812ZM102.511 339.358L102.068 340.31L101.625 340.103L101.406 339.678L100.97 339.48L100.5 339.539L100.493 339.37L102.021 338.353L102.751 338.078L102.698 338.508L102.559 338.884L102.511 339.358Z"/>
</mask>
<path d="M165.496 1.19746L169.206 3.25085L171.168 5.6156L171.579 5.53741L174.238 6.4386L176.763 7.55925L180.96 10.4535L181.549 11.3958L181.095 12.1639L180.052 12.6906L174.688 13.6261L164.958 14.7687L159.391 16.9702L157.62 17.0827L157.466 20.3171L158.223 20.4927L159.462 20.0606L163.823 16.8166L165.455 16.2789L168.499 16.5505L172.451 17.774L174.046 17.3447L176.889 17.6643L180.214 16.7288L184.142 14.6974L185.216 19.2102L186.664 23.6365L187.81 23.151L188.791 23.3979L189.122 24.8326L189.659 25.4375L190.77 25.1138L194.175 26.3579L196.512 28.5786L197.393 29.606L197.815 31.0627L198.054 32.2232L197.687 33.6428L196.226 36.1502L194.379 38.4286L191.886 40.1665L189.013 41.2487L166.94 44.8301L166.193 45.6737L165.75 47.8121L166.045 50.5609L167.077 50.9875L169.487 49.4472L173.657 47.9767L176.72 48.0467L184.044 49.3018L186.206 52.5512L187.349 57.4536L189.883 56.3617L190.425 55.5236L190.824 54.0628L191.142 52.484L191.38 50.7886L191.645 49.6268L191.939 49.0082L192.571 48.4897L194.025 47.8629L197.838 47.2525L198.756 47.4267L199.415 49.7818L199.558 51.1466L199.606 52.912L199.586 55.071L199.496 57.6113L199.171 60.0968L198.116 64.3736L197.268 66.6684L196.351 68.3089L194.597 72.0069L193.989 72.9849L192.061 77.2028L191.582 79.1314L191.553 80.5318L191.884 80.7979L192.444 79.4825L192.652 78.5388L193.013 77.5457L195.855 74.908L196.464 74.1673L198.324 70.9768L199.511 69.7711L200.487 68.4996L201.004 67.5943L203.861 61.0693L205.351 59.079L206.915 59.0749L207.192 62.4341L209.067 62.9485L209.881 62.8044L211.19 63.6137L211.763 64.2776L212.739 64.615L213.744 65.3996L214.632 64.556L214.89 64.0252L215.747 61.6042L216.906 59.4384L217.979 56.7046L218.335 56.0366L218.899 55.429L219.485 55.1889L221.081 53.89L221.485 53.7994L222.346 54.2109L226.152 54.4249L228.228 55.0943L231.118 56.9419L233.132 57.9474L234.065 58.8335L235.422 60.7222L236.517 62.6823L237.026 63.2543L237.007 63.8716L236.629 64.7206L233.916 67.6642L233.027 69.6106L230.46 73.2346L229.206 74.4663L227.842 74.9478L226.325 75.063L225.34 75.576L225.194 76.0629L225.896 77.5306L226.204 78.5703L226.16 79.4907L225.421 80.8487L225.142 81.1546L222.476 82.1559L221.13 83.8458L219.375 84.0501L218.134 83.8581L216.428 85.6619L217.095 87.1186L217.706 87.7468L219.606 89.0608L219.624 89.8125L218.716 91.3227L217.476 93.0908L216.011 94.3088L215.461 94.4899L214.766 94.184L214.125 94.2498L212.714 94.8095L211.37 94.8986L208.969 94.1072L207.671 93.1882L206.987 92.8699L206.126 92.9577L205.794 93.3295L204.436 95.5145L203.77 96.9932L203.343 98.4965L203.16 100.123L203.222 101.871L203.387 103.061L203.655 103.703L203.977 104.092L204.541 104.295L205.782 104.103L206.269 104.212L206.417 104.561L206.686 105.661L206.639 106.692L206.413 108.135L206.24 109.807L206.116 111.703L206.182 112.732L206.684 112.957L206.919 112.883L207.193 113.22L207.504 113.965L207.738 114.751L207.893 115.576L207.812 116.255L207.492 116.788L206.769 117.387L204.991 118.565L204.81 118.923L204.67 119.637L204.571 120.704L204.356 121.671L204.026 122.535L203.726 123.049L203.15 123.277L202.395 123.307L201.546 123.801L199.546 126.661L199.515 126.976L200.264 127.886L200.232 128.679L199.309 132.052L199.056 133.704L198.855 135.951L198.526 137.829L198.068 139.346L197.617 141.085L197.174 143.039L197.243 144.527L197.825 145.557L198.594 144.724L199.55 142.006L200.59 140.821L201.712 141.192L202.691 141.736L203.94 142.804L204.985 143.468L205.888 144.339L206.26 145.07L206.635 146.097L206.637 146.743L205.976 147.09L205.757 146.979L204.101 145.285L203.294 144.862L202.224 145.372L201.291 146.139L202.129 149.199L203.025 150.592L204.659 151.225L205.512 151.889L206.135 152.735L206.622 153.146L207.276 152.965L208.155 152.134L209.381 152.089L209.934 152.502L210.334 153.27L210.514 154.699L210.474 156.776L210.341 158.327L210.114 159.364L209.672 160.747L209.304 160.998L208.785 160.922L208.302 160.64L207.855 160.147L207.178 159.763L205.817 159.348L204.442 158.442L203.671 158.219L202.041 158.334L200.283 158.907L200.214 159.658L197.686 162.26L197.167 162.224L196.466 161.334L195.483 160.478L194.908 160.483L194.058 161.567L193.846 161.985L193.857 162.379L194.483 163.308L194.738 163.52L195.061 163.699L196.185 163.921L196.673 164.164L197.133 167.011L197.862 168.753L198.174 169.107L198.449 169.235L199.343 169.172L200.494 168.586L200.895 169.055L201.743 169.627L202.238 169.77L202.84 169.746L203.519 169.963L204.449 171.547L204.083 173.528L204.665 175.101L205.595 176.713L205.815 177.3L205.904 178.359L205.925 179.054L205.995 179.689L206.113 180.26L206.236 181.377L206.364 183.031L206.331 184.372L206.134 185.407L205.746 186.154L205.168 186.618L204.696 186.496L204.33 185.788L203.814 185.031L203.15 184.224L202.045 184.13L200.419 186.505L199.694 186.623L199.104 186.858L198.475 187.885L197.55 188.501L196.732 188.257L195.298 187.064L195.819 187.862L196.565 188.793L197.03 189.275L197.372 189.379L197.748 189.268L198.29 188.888L199.513 187.83L199.836 187.668L200.11 187.744L200.334 188.057L200.593 188.963L200.883 190.456L200.846 191.719L200.48 192.755L200.166 193.417L199.906 193.708V193.937L200.59 194.2L201.557 192.857L201.864 191.176L202.307 189.221L203.089 188.567L203.975 189.221L204.691 191.047L205.702 194.368L206.128 194.711L206.67 195.499L206.91 196.464L206.846 197.601L206.731 198.424L206.563 198.934L206.354 199.258L205.977 199.463L205.284 199.628L203.735 199.284L202.929 199.275L203.029 200.384L201.397 201.333L199.558 201.705L197.816 200.964L196.371 199.821L196.845 198.215L197.116 196.418L196.417 195.221L196.265 195.195L196.505 197.042L196.303 197.746L195.514 198.601L194.956 198.994L194.907 199.223L195.181 199.422L195.358 199.804L195.442 200.367L195.348 200.935L195.076 201.507L194.927 201.986L194.903 202.373L195.152 202.842L195.676 203.392L196.244 203.663L198.906 203.781L199.972 204.076L202.501 205.367L202.613 205.762L202.186 208.051L201.952 210.23L201.461 210.626L198.8 210.719L197.943 211.057L196.688 212.047L195.483 213.229L194.859 213.238L192.385 212.206L191.437 211.515L189.401 209.548L187.869 206.522L187.166 207.785L186.735 208.386L186.291 208.697L185.863 208.745L185.45 208.53L184.983 208.054L184.197 206.946L183.26 205.844L182.604 205.319L182.579 205.469L182.967 206.117L183.534 206.864L184.969 209.043L185.474 209.59L185.423 209.979L184.518 210.323L183.417 211.064L182.879 211.607L182.048 212.921L181.759 213.124L180.516 213.453L180.106 213.373L179.187 212.652L177.801 212.179L176.986 211.758L175.852 210.992L176.243 211.829L178.426 213.098L178.665 213.505L178.218 214.262L177.945 214.538L177.425 214.596L176.658 214.438L175.874 214.469L175.072 214.692L174.728 214.974L174.841 215.318L175.032 215.631L175.302 215.914L175.555 215.911L176.166 215.057L176.628 214.996L177.851 215.207L179.088 214.539L179.979 214.25L180.648 214.176L183.079 213.149L183.584 211.994L184.399 211.529L186.212 211.172L187.968 211.354L188.87 211.504L189.601 212.598L190.58 213.371L191.397 214.249L192.355 214.537L192.909 215.698L194.461 216.989L195.449 217.266L196.058 217.878L196.108 220.453L196.172 221.555L195.91 224.581L195.116 225.273L195.274 226.847L195.066 228.112L194.278 227.633L193.471 226.801L191.535 225.503L189.734 224.665L189.034 223.902L188.21 223.31L187.092 220.885L186.364 217.833L186.045 216.309L185.432 216.224L184.646 216.633L183.958 217.065L183.629 217.801L181.293 218.811L180.444 219.499L179.96 219.479L178.216 220.513L178.914 221.007L179.24 221.069L179.946 220.79L180.37 220.433L181.96 219.454L183.237 219.285L183.7 218.861L184.676 218.255L185.338 218.095L185.43 218.248L185.501 218.525L185.968 222.233L185.772 223.21L185.247 223.632L184.123 224.322L183.831 224.657L184.163 225.241L185.219 224.691L185.904 224.092L186.27 224.31L186.869 225.225L187.544 225.692L189.261 227.089L190.074 227.854L191.219 228.591L192.512 229.608L192.849 229.966L194.031 230.492L194.284 230.672L194.772 232.449L195.179 232.647L196.355 232.759L196.149 233.445L195 234.961L194.406 235.444L194.259 235.74L194.315 236.269L194.35 237.154L194.589 238.773L194.859 237.275L195.047 236.564L195.299 236.352L195.547 236.32L196.35 235.645L197.157 236.007L197.367 237.707L197.47 239.281L197.4 240.634L197.488 242.72L197.457 243.421L197.649 244.026L197.847 246.517L198.045 247.26L197.647 247.924L196.419 248.212L195.933 247.886L194.718 247.996L194.717 247.411L194.658 246.739L194.654 246.269L194.573 245.842L194.515 243.376L194.171 243.988L194.15 244.488L194.059 244.997L193.849 247.64L193.535 248.285L192.563 248.13L191.605 248.225L191.076 248.127L189.284 246.927L188.591 245.835L187.977 244.185L187.599 242.634L187.456 241.181L187.026 239.993L186.31 239.073L185.465 238.325L184.491 237.751L183.636 237.007L182.898 236.094L182.088 235.38L181.202 234.87L179.942 234.651L178.1 234.732L176.856 234.156L176.561 234.205L176.27 234.503L176.484 235.349L177.912 235.736L179.012 235.824L180.472 235.769L181.365 235.985L181.692 236.472L181.918 237.336L182.041 238.574L181.752 239.55L180.703 240.63L180.15 241.135L178.533 242.1L177.986 242.314L176.638 242.38L175.602 242.288L174.238 241.808L173.465 241.711L171.865 241.646L171.498 241.807L171.911 242.321L172.589 242.612L173.066 242.958L173.116 243.612L172.944 244.579L172.766 245.252L172.473 245.757L171.424 246.709L170.989 247.009L169.033 248.001L168.897 248.192L169.355 248.166L170.591 247.815L170.948 247.824L172.978 248.681L174.596 248.631L177.873 247.839L178.143 247.854L178.357 247.979L178.575 248.275L178.795 248.745L178.531 249.199L177.782 249.635L176.617 250.064L176.112 250.354L175.629 250.792L174.731 251.845L174.468 252.931L175.413 253.342L175.838 252.821L176.339 251.659L176.79 250.975L177.854 250.51L179.152 250.746L180.155 250.47L182.205 249.314L182.572 249.242L185.588 249.905L188.321 251.201L189.763 251.676L191.671 251.956L195.102 251.828L195.403 252.031L195.292 252.488L195.093 252.873L194.52 253.41L193.826 253.764L193.396 253.864L193.03 254.116L192.209 254.363L191.999 254.563L192.283 255.436L192.149 255.57L191.425 255.585L190.206 256.152L189.206 256.112L188.997 256.194L189.187 256.404L189.388 256.809L189.601 257.407L189.484 257.833L189.035 258.087L188.696 258.169L187.522 257.814L187.332 257.868L187.504 258.124L187.602 258.514L187.625 259.038L187.338 259.475L186.738 259.828L185.62 260.796L185.133 261.072L184.106 261.299L183.89 261.426L184.307 262.164L184.26 262.458L183.567 263.253L182.517 263.746L182.374 264.013L182.278 264.726L182.201 265.01L181.923 265.417L180.927 266.191L180.221 266.575L179.872 266.889L179.439 267.413L178.892 267.69L178.233 267.722L177.609 267.918L176.583 268.473L175.867 268.657L173.608 269.612L172.546 269.764L171.627 270.104L169.736 271.011L168.835 271.302L168.21 271.646L167.528 271.745L166.418 271.521L165.819 271.513L165.451 271.649L165.113 271.926L164.556 272.683L164.083 272.74L162.531 272.141L162.563 272.413L162.973 273.061L162.954 273.52L162.031 273.985L161.534 274.103L160.801 273.912L159.831 273.41L158.586 272.359L157.06 270.747L156.326 270.2L156.379 270.72L156.55 271.228L156.837 271.72L156.895 272.077L156.725 272.297L156.5 272.409L156.221 272.41L156.173 272.535L156.628 273.3L156.987 274.083L156.954 274.824L156.528 275.524L156.162 275.932L155.856 276.053L154.045 277.784L153.54 278.002L153.31 278.215L153.122 278.533L152.595 279.953L152.381 280.385L151.958 280.946L151.78 281.043L151.729 281.272L151.806 281.632L151.689 282.23L151.38 283.064L150.325 285.352L149.475 287.467L149.102 288.155L148.829 288.446L148.657 288.342L148.235 288.395L148.03 288.764L147.844 289.43L147.642 289.936L147.423 290.283L145.718 291.775L145.279 292.051L144.884 291.877L144.418 291.944L143.45 291.158L143.283 290.868L142.658 290.22L142.679 290.558L142.783 290.745L142.87 291.018L143.089 291.353L143.573 293.104L143.19 293.462L142.848 293.87L141.974 294.557L141.029 295.704L140.681 296.023L140.603 295.089L140.643 294.809L140.109 294.355L140.125 294.682L140.07 294.986L139.684 296.196L139.576 296.404L139.385 296.358L138.97 296.58L138.545 296.474L138.183 295.926L138.04 295.64L137.382 296.424L137.063 296.403L137.009 297.059L136.7 297.655L136.291 297.913L135.72 297.893L135.371 298.245L134.596 297.868L134.418 297.159L135.031 296.184L135.205 295.78L135.092 295.282L135.24 294.638L136.412 292.582L137.206 291.534L137.161 291.346L136.082 291.117L135.14 290.756L134.222 290.632L133.816 290.755L134.463 291.358L135.378 291.942L134.928 292.499L134.54 293.089L134.138 294.687L133.881 295.339L132.884 294.591L132.412 294.337L132.712 295.167L133.585 295.952L133.642 296.21L133.636 297.138L131.963 297.954L130.218 298.078L128.964 298.308L126.85 298.588H126.029L125.958 298.901L128.026 300.322L128.327 300.581L128.04 301.068L127.612 301.37L126.941 302.408L126.59 302.765L125.72 303.255L124.121 302.709L123.298 302.953L122.511 302.781L122.494 303.378L122.73 303.813L122.968 304.89L123.496 304.806L124.167 304.467L124.686 305.281L125.027 306.652L125.623 307.345L125.887 307.88L125.994 308.383L125.623 308.884L124.854 309.589L124.001 309.721L124.048 310.277L123.679 310.677L122.896 310.56L122.53 310.28L122.151 310.149L120.593 309.999L122.162 311.069L122.719 311.565L122.966 311.272L123.51 311.201L124.312 311.472L124.178 313.264L124.529 314.705L124.572 315.028L123.717 315.886L123.704 316.686L123.195 316.908L122.647 316.857L122.618 317.731L122.247 318.274L122.313 318.614L122.419 318.918L122.08 319.469L121.775 320.138L121.338 320.723L121.106 320.662L120.412 320.701L119.577 320.651L118.9 319.891L118.619 319.638L118.303 319.472L118.424 319.961L118.614 320.255L119.238 320.804L120.388 321.48L120.353 321.959L120.046 322.166L119.329 323.462L119.075 323.491L118.753 323.824L117.759 323.712L117.343 323.579L116.117 323.664L115.7 323.55L115.342 323.605L115.675 323.969L116.377 324.297L117.175 324.626L118.388 324.875L118.344 325.344L118.04 325.728L118.215 326.3L118.079 326.709L118.021 327.194L117.737 328.319L118.068 329.087L118.427 329.462L118.385 329.954L118.555 330.739L118.015 331.437L117.568 331.411L116.931 331.567L116.719 331.874L117.729 332.164L117.637 332.684L117.362 333.334L117.073 334.734L116.485 337.118L116.21 339.464L114.949 341.376L114.502 341.429L114.389 341.505L113.774 341.407L112.808 340.967L112.061 340.822L111.556 340.816L111.492 341.036L111.91 341.39L112.55 341.538L113.061 341.772L113.979 341.99L114.298 342.413L114.517 342.863L114.485 343.11L114.484 343.4L114.648 344.963L114.216 345.5L113.885 345.986L112.739 345.919L112.54 345.749L111.434 345.237L111.501 345.477L112.302 346.171L112.581 346.517L112.394 346.588L112.071 346.614L111.621 346.847L110.808 346.721L110.853 346.371L111.007 346.011L110.636 346.072L110.222 346.255L109.981 346.188L109.78 346.208L109.666 346.027L109.509 345.321L109.696 344.966L110.366 344.044L110.58 343.547L110.394 343.321L109.915 343.853L109.421 344.697L109.201 345.206L108.892 345.304L108.123 345.048L105.934 343.867L105.999 343.147L105.978 342.549L106.616 342.473L107.08 342.213L107.495 341.893L107.963 341.31L108.392 340.344L108.337 340.27L107.078 341.502L106.304 341.912L105.93 341.988L105.743 341.807L105.12 341.412L104.715 341.232L103.792 340.938L103.628 340.781L103.357 340.654L102.989 339.392L103.465 337.851L103.792 337.401L104 336.88L104.117 336.187L104.035 335.891L103.758 335.992L103.628 336.229L103.649 336.601L103.489 336.859L102.389 337.45L101.285 337.929L100.763 338.382L100.423 338.734L100.157 339.08L99.7515 339.05L99.1916 339.119L98.8078 339.344L98.2465 339.206L97.8806 338.873L97.439 338.834L96.9437 338.995L96.6012 338.981L96.6301 339.207L96.8585 339.763L96.4802 339.8L95.762 339.822L95.4002 339.66L95.1168 339.449L94.8816 339.154L95.0233 338.767L96.1788 338.056L96.703 337.644L96.3605 337.502L95.2516 337.63L95.0673 337.523L94.3244 337.587L94.3561 336.524L94.1758 336.26L94.1635 336.135L93.9062 335.837L93.6627 335.763L93.5114 335.656L92.2568 335.416L92.093 334.819L92.0064 334.203L91.767 333.437L91.1658 333.236L90.8411 332.903L91.0998 332.562L91.2126 332.128L90.9347 331.929L90.7573 331.623L90.7834 331.424L90.5578 330.885L90.4904 330.464L90.749 330.068L91.4588 329.619L91.6886 329.438L91.8069 329.242L92.6213 328.912L91.928 328.678L91.4946 328.643L91.1782 328.752L90.8866 329.191L90.6142 329.482L89.5521 329.577L89.3953 329.426L89.321 328.806L89.3816 328.327L89.8231 327.652L89.3141 327.318L88.8478 327.208L88.3181 326.894L87.8284 326.562L87.4075 326.175L86.9975 325.718L86.8668 325.661L87.014 325.182L87.0979 324.787L87.1103 323.937L86.9452 323.583L87.3125 322.853L87.8064 322.053L88.8987 320.861L87.7431 321.436L86.7939 322.686L86.593 322.743L86.5229 322.517L86.1625 321.706L85.8914 321.484L85.7704 321.24L85.2297 320.805L84.9958 320.47L84.6629 319.823L84.1897 319.049L83.517 317.517L82.4302 315.741L82.1619 314.737L82.4989 313.457L82.1261 312.571L83.1579 312.159L84.634 311.697L85.4003 311.312L85.8419 311.196L86.7801 311.125L87.0938 310.737L86.5724 310.836L86.2216 310.785L86.1996 310.604L86.3289 310.282L86.4128 309.865L86.2339 309.94L85.3164 310.657L83.9599 311.225L82.9007 311.541L82.7287 311.524L82.3573 311.715L82.144 311.77L81.9789 311.715L81.6048 311.172L81.5043 310.817L82.1771 309.85L82.6792 308.524L83.3436 307.653L83.8128 307.544L84.5983 307.59L84.8748 307.667L84.7868 307.15L84.8198 306.899L85.4567 306.597L86.1996 306.463L86.7278 306.558L87.0608 307.167L87.4886 308.286L88.065 308.663L88.0389 308.127L87.7403 307.434L87.6289 306.367L87.2492 305.916L86.9452 305.693L86.1033 305.802L85.597 305.017L85.4828 304.729L85.4704 304.345L84.9642 303.215L84.8019 302.647L84.5336 301.89L84.3905 301.849L84.5721 302.802L84.8088 303.47L85.1472 304.932L85.315 305.519L85.088 305.983L84.6602 306.441L84.2819 306.714L83.3876 307.04L83.5803 306.327L83.7027 305.625L83.2528 305.874L82.8346 306.385L82.6902 307.09L82.4219 307.728L81.6254 309.287L81.3118 310.149L81.0146 310.572L80.6762 310.689L80.3831 310.353L80.1341 309.561L80.0172 308.94L80.0034 307.322L80.0351 306.563L79.8989 305.537L79.4683 303.132L79.3775 302.27L78.6497 301.81L78.6387 301.662L78.4489 301.168L78.3017 300.673L78.4228 300.492L78.5961 300.362L79.6843 299.629L80.4904 298.806L81.4548 297.51L81.8483 297.107L83.2625 296.795L83.8898 296.753L83.8843 296.521L83.6738 296.429L82.7191 296.49L81.4466 297.011L81.2278 297.199L80.6707 298.007L80.2414 298.447L79.0336 299.45H78.2494L77.4405 298.248L76.5367 298.478L75.9273 298.399L75.7498 298.218L75.615 296.566L76.1061 294.625L75.5751 294.606L75.4651 294.528L75.1844 294.084L75.0014 293.951L75.1376 293.715L76.4459 292.787L78.4035 290.958L79.2454 290.235L79.7654 289.922L80.1589 289.564L80.6376 288.785L80.7959 288.443L81.0628 288.168L81.6254 287.856L82.2403 287.384L83.2377 286.32L83.3684 285.925L83.151 285.833L82.6847 286.198L81.7368 287.172L81.06 287.718L78.7502 290.147L77.7666 291.025L77.2314 291.584L76.816 292.117L76.3771 292.495L75.9121 292.722L74.9216 292.89L74.4346 293.086L74.1416 292.944L74.0123 291.808L74.1114 291.133L74.0646 290.465L74.3122 289.505L74.6795 288.823L74.8336 288.452L74.8982 288.196L75.6549 287.487L76.0717 287.173L76.3661 286.46L78.0458 286.206L78.4792 286.232L78.7089 286.136L78.8809 285.929L78.7144 285.769L78.2109 285.655L76.8724 285.677L75.6356 285.555L75.0716 285.431L74.7992 285.502L74.3494 285.294L73.8582 284.895L73.0961 283.424L73.4015 281.523L73.4276 280.61L74.3961 279.807L74.9134 279.541L75.648 278.935L76.6289 277.901L77.7996 277.267L78.3966 277.149L78.8919 277.24L80.7243 278.138L81.6667 278.314L82.4948 278.098L83.5335 278.412L85.3714 279.699L85.7263 279.508L85.6231 279.197L83.5734 277.835L83.5844 277.426L84.1085 277.319L84.6684 276.921L84.3534 276.685L82.9914 276.89L82.598 277.216L81.2773 277.385L80.5881 277.108L79.9691 276.969L79.0405 276.377L78.2632 276.57L77.7721 276.803L76.904 277.024L76.5904 277.182L74.8941 279.036L74.1801 279.421L73.6725 279.294L74.0288 278.09L74.132 277.613V277.093L74.2792 276.378L75.1486 275.011L75.6948 273.505L75.9259 272.565L76.3538 272.459L76.937 272.598L78.6897 273.207L80.1479 273.931L81.2237 274.124L81.9308 274.145L82.2334 273.915L82.4728 273.513L82.565 273.234L82.6338 272.664L82.7149 272.461L82.9516 272.211L83.4344 271.34L83.5816 270.719L83.4234 270.355L83.1015 270.392L82.4728 270.631L82.3875 270.73L82.3985 270.924L81.7919 271.886L81.1301 272.107L79.6073 272.428L78.9125 272.451L77.6772 272.005L77.4901 271.831L77.3621 271.503L75.8461 271.577L75.3935 271.676L75.0331 271.634L75.2092 271.063L75.6879 270.428L76.3592 268.35L76.9219 267.815L78.0389 267.316L79.2042 267.396L81.2196 269.011L81.8276 269.151L82.3848 269.021L83.7178 268.481L83.9627 268.262L84.4428 267.591L85.0027 266.439L84.9752 266.166L84.1154 266.811L83.6573 266.984H83.2693L83.6298 264.868L83.7701 263.236L83.9049 262.829L85.0344 262.951L86.5779 262.729L86.9452 262.369L86.9397 262.21L86.3206 261.992L86.0221 261.533L85.5035 261.678L84.8088 261.984L83.9366 261.95L84.0095 261.24L84.6492 259.747L84.7152 259.062L84.9642 257.689L84.9903 256.981L85.3136 256.291L86.322 255.799L86.7457 255.504L86.7691 255.18L86.1652 253.945L86.3179 253.602L86.7925 253.289L86.9686 253.06L86.8475 252.917L86.4115 252.78L85.7401 253.054L84.9972 253.186L84.3396 252.773L83.8251 252.574L83.5004 252.636L82.6159 253.342L82.3064 253.366L81.9239 253.17L79.3899 252.558L79.0749 252.341L78.1669 251.278L77.4185 250.573L76.4225 249.801L75.1307 249.212L73.5446 248.809L72.5954 248.429L72.1276 247.891L71.3256 246.705L70.7161 245.712L70.602 245.219L70.9596 244.609L71.3242 244.17L72.0107 243.809L73.1951 243.929L73.8307 244.089L74.5309 244.433L75.0606 244.498L76.1597 244.401L77.2782 244.62L77.9399 244.861L78.8094 245.363L81.2086 247.488L82.2101 248.222L82.6448 248.31L84.4401 249.092L84.7276 249.077L85.4622 248.71L85.5351 248.473L85.2875 248.238L84.4951 248.056L83.5651 247.189L82.9887 246.499L82.9227 245.354L82.9983 244.709L83.1428 244.416L83.2446 243.424L82.7053 242.833L82.3298 242.646L81.3296 241.781L81.2457 241.565L81.7258 241.464L82.1963 241.523L83.2047 241.962L83.7329 242.022L84.1181 241.851L84.1622 241.674L83.5486 241.174L82.781 240.279L81.1769 240.146L80.1369 240.247L79.4724 239.939L78.7653 239.436L78.31 239.308L77.3814 239.623L76.9122 239.663L76.4844 239.552L76.0621 237.961L76.1749 237.482L76.5064 237.275L76.7568 236.758L76.9315 236.216L77.4818 235.685L80.5014 234.498L81.2636 233.612L81.2306 233.475L80.7161 233.64L80.0585 234.04L79.6196 234.123L77.8423 233.606L77.5644 233.723L76.8449 234.466L75.8681 235.268L75.4182 235.219L74.8157 234.744L74.7208 234.405L74.6767 233.998L75.3385 233.438L75.5503 233.142L75.9782 232.342L75.9562 231.946L75.2257 232.164L75.1307 231.795L75.1417 231.163L75.0716 230.36L74.8927 229.565L74.2929 228.337L74.0439 228.021L73.839 227.565L73.3864 225.89L73.5171 225.469L73.9187 225.149L73.9958 225.002L73.0369 225.267L72.9324 225.558L73.1126 225.987L73.2419 226.558L73.3189 227.268L73.4524 227.888L73.7991 228.566L74.077 228.921L74.5296 229.86L74.7277 230.887L74.6699 231.426L74.3191 231.973L73.7523 232.562L73.5803 233.049L73.5033 233.533L73.0617 233.98L72.7907 233.813L72.5761 233.787L72.8292 234.582L72.9929 235.394L72.7962 236.205L72.2721 236.695L71.9873 236.71L71.4274 237.106L69.9939 237.313L69.4945 237.216L68.5797 236.814L67.4943 236.594L67.0637 236.051L66.4997 235.059L66.2149 234.168L66.2094 233.376L66.3621 232.799L66.673 232.434L67.0472 230.093L67.5754 228.185L68.9057 226.201L69.2854 225.48L69.4106 225.092L69.4092 224.795L69.1946 224.607L67.5589 227.07L66.5505 227.33L66.2493 226.779L66.34 225.797L66.5203 225.568L67.336 225.661L67.6525 225.112L67.1421 224.281L66.5987 224.061L66.4721 223.852L67.0307 223.215L68.3238 223.262L68.6155 222.816L69.0832 222.335L69.6032 221.437L69.7972 220.68L69.8412 220.029L69.7284 219.502L69.7174 218.973L69.8054 218.44L69.6692 217.851L69.3102 217.203L68.5109 216.569L68.2757 217.285L68.0267 217.579L67.6772 217.645L67.3553 217.343L67.0183 217.235L66.6881 216.966L66.3442 216.879L66.2107 216.663L66.1241 216.054L66.1172 215.277L66.5052 214.912L67.0458 214.626L67.4076 214.081L67.6456 213.29L67.68 212.422L67.5108 211.478L67.0719 210.626L66.2589 211.455L65.9397 211.657L65.8668 211.065L65.754 210.626L65.4129 210.028L64.963 209.592L64.531 209.301L64.5118 208.858L64.6136 208.357L64.8062 207.773L65.0552 206.548L65.3289 206.658L65.5573 206.545L65.4252 205.529L65.2051 204.672L64.9465 204.182L64.9369 203.969L64.8777 203.72L64.6782 203.115L64.454 202.67L64.0633 201.407L63.7813 200.923L63.4195 200.672L63.0302 200.658L62.4042 200.993L61.25 201.377L60.3352 201.559L60.1825 201.459L60.6406 200.978L61.3147 200.476L62.2061 200.134L62.4661 199.295L62.3698 198.566L62.407 197.874L62.1621 197.143L62.4001 196.737L63.2117 196.326L63.5804 196.263L63.9464 195.741L62.9174 194.475L61.8388 193.642L61.5692 193.302L61.3325 192.742L61.1289 191.96L60.796 191.176L60.3365 190.386L59.6652 189.622L57.9346 188.217L57.3403 187.243L56.7927 185.745L56.519 185.103L56.2342 184.627L55.0291 183.508L54.8833 183.012L56.1283 181.684L56.2493 181.152L55.7403 179.526L55.2204 178.33L54.6535 177.904L53.8102 177.684L53.0371 177.149L52.3341 176.299L51.6325 175.675L50.5815 175.079L48.8233 173.542L46.1133 171.885L44.9027 170.911L44.1818 170.556L43.2325 170.465L41.396 169.55L39.8525 169.257L38.9005 169.391L38.5896 169.239L37.8852 168.305L36.7833 167.767L36.2138 167.971L35.5066 168.973L34.6537 169.956L34.1998 170.089L33.5256 169.191L33.1859 168.561L32.8612 168.346L32.5517 168.549L31.9491 169.376L31.3754 169.971L30.5266 170.676L29.8484 171.014L28.9776 171.096L28.7589 171.351L28.4232 171.362L27.972 171.132L27.5483 170.674L27.1534 169.986L26.8054 169.615L26.5028 169.56L25.808 169.916L24.9289 170.962L24.5272 171.213L24.1902 171.104L23.7775 170.779L22.9507 169.945L22.4926 170.026L22.1597 170.318L22.2519 171.01L23.0264 172.642L23.7183 173.798L23.1337 173.934L18.0271 172.369L17.3764 171.99L16.4368 171.037L15.6554 170.45L14.3251 168.926L13.3002 168.098L12.9604 167.447L12.871 166.999L13.1971 166.391L15.2606 164.33L16.0489 163.911L17.6529 163.411L18.0312 163.096L18.1578 162.847L17.7368 162.396L15.6361 162.557L13.7652 162.256L12.1364 161.423L11.853 161.146L11.5765 160.634L11.3082 159.888L11.3687 159.05L11.7594 158.119L11.9892 157.477L12.0566 157.128L10.0095 159.422L9.17312 160.22L8.51005 159.976L8.04504 159.599L7.8167 159.178L7.82497 158.713L7.90062 158.372L8.04231 158.16L6.95962 157.208L6.47266 156.458L6.42035 155.681L6.8042 154.877L7.17974 154.293L7.54704 153.927L8.54859 153.609L12.2052 152.998L14.8231 153.584L15.7146 151.638L16.3171 151.013L18.078 150.362L20.7881 150.271L22.7017 150.632L23.5986 151.092L24.8202 152.103L24.8904 151.798L24.596 150.885L24.5754 150.123L25.0692 148.794L25.2962 147.956L25.1422 147.08L24.6057 146.165L23.6564 144.985L23.1447 144.888L22.5765 145.173L21.8942 145.827L20.4758 147.468L19.8059 147.809L18.6888 147.896L18.0711 147.69L17.4741 147.444L16.5414 146.576L16.2016 146.413L15.7888 146.794L15.3046 147.717L14.8382 148.362L14.3884 148.73L13.9688 148.889L13.3827 148.813L10.9684 147.381L10.4236 146.741L10.392 145.767L9.65051 144.819L8.8127 144.653L8.71089 144.335L9.77293 142.863L10.5653 142.259L10.4388 142.077L9.2887 142.046L8.51282 142.831L8.06843 142.965L7.04631 142.986L5.97327 142.593L5.51654 142.249L5.04331 141.456L4.51227 141.009L2.90958 140.328L2.54777 139.956L2.20523 139.338L0.895578 137.578L0.103194 136.276L0 135.534L0.914848 133.933L0.954732 133.562L0.562654 132.866L0.398963 132.352L0.53377 131.64L1.33442 130.056L1.63158 129.625L3.06643 128.688L4.50404 127.319L5.02677 127.011L5.49316 126.939L7.38197 127.022L7.96666 126.683L8.46328 126.011L9.27904 125.328L10.9808 124.287L14.7639 122.704L15.0102 122.516L15.0322 122.214L14.6924 121.392L14.6209 120.995L15.3954 120.254L17.1439 119.081L18.3394 118.515L19.1084 118.473L19.7288 118.22L20.5996 117.476L21.0921 117.345L24.0677 117.052L25.3843 117.458L26.0309 117.45L26.4463 117.162L26.9953 116.316L28.0215 114.201L28.5621 112.877L29.0725 110.848L29.7315 107.641L30.224 104.469L30.55 101.329L30.8045 99.395L30.9848 98.6981L31.6024 97.8121L32.2463 97.118L33.3523 96.5021L33.2519 96.2141L32.7828 95.7312L32.3467 95.5461L31.9436 95.6572L31.2076 96.3855L30.2543 96.878L29.3284 96.8011L28.6612 96.9836L28.049 97.6475L27.0571 98.1797L26.3954 98.059L25.1999 97.1057L24.5974 96.9273L23.069 97.0179L22.6219 96.6626L22.2312 95.9672L21.9203 94.9933L21.6878 93.7341L21.7194 92.4187L22.2697 90.0237L22.4802 89.3667L23.9701 86.6549L24.8877 85.3752L25.8011 84.4123L26.4656 83.8444L27.0929 83.5893L27.6955 82.9885L28.8029 81.0435L29.9461 79.3632L31.3686 76.207L32.0564 75.3716L34.4653 73.978L35.1201 73.9561L35.6759 74.3031L36.2028 75.0287L37.6816 78.1671L37.7972 78.0711L37.5386 76.8873L36.9993 73.3086L37.086 71.8204L37.932 70.2183L38.2787 69.9316L39.1715 70.0386L40.6118 70.5351L41.5748 71.0783L42.3053 71.9589L43.1734 72.5035L43.6232 72.476L43.9438 72.0563L44.4033 70.6819L45.0017 68.3322L45.2411 65.4024L45.1228 61.8689L44.9494 59.2518L44.7183 57.5866L44.8448 56.1889L45.5698 54.5004L46.2343 53.259L47.8191 51.4923L49.1054 51.0205L49.8675 51.1398L50.8704 51.971L52.2612 52.4799L53.5172 54.0779L55.5519 57.7059L56.9014 59.5056L58.0199 60.3094L59.1218 61.6714L60.7506 64.53L61.6035 65.7453L62.1098 66.1842L62.5569 66.2542L62.3904 65.4476L61.6118 63.7536L60.4205 61.8731L57.7777 58.4535L56.3209 56.0065L55.0153 53.1836L54.0551 51.4868L52.3135 49.7914L52.3369 49.1125L54.4389 46.7066L58.3019 44.5915L62.656 42.9235L64.1128 43.095L66.673 42.394L66.9137 41.331L67.464 40.8523L69.8481 39.3599L70.5318 39.3805L71.5814 40.0897L72.6999 41.4353L73.2172 42.6464L73.9201 44.7108L74.2641 47.5858L74.2118 56.4248L74.2311 58.0571L74.3659 58.6839L74.8515 57.7498L75.4306 56.0065L75.952 54.7651L76.3524 52.8352L76.633 50.2016L76.7995 48.2291L76.1185 45.9796L76.0855 42.2349L76.4266 40.2131H77.38L81.3241 47.1194L82.8759 48.583L84.6423 52.1726L86.7058 51.7941L88.6098 52.2316L89.4517 52.1013L89.8672 51.5472L89.2756 50.0617L86.571 45.9275L85.3425 42.6286L84.4827 38.4437L84.2736 36.1873L84.9312 35.7785L87.9522 35.8265L92.492 37.7866L98.2974 44.4365L101.155 46.5941L106.275 53.9764L107.82 55.071L108.443 55.3L108.914 54.4071L109.204 53.4332L109.226 52.1288L108.978 50.4882L108.835 48.5761L108.799 46.3856L109.146 41.9825L109.972 40.5272L110.336 38.8702L109.996 35.8485L109.029 33.7553L105.264 28.2728L105.249 27.6102L106.01 26.8791L107.138 26.4498L116.469 27.779L118.081 28.2645L118.769 28.7405L119.07 29.3673L119.457 29.6348L121.461 28.8886L121.413 27.5197L121.163 26.6446L110.333 24.2373L108.315 23.4088L107.288 23.3457L106.226 23.9822L104.023 24.2963L103.006 24.1756L101.688 21.2745L102.881 17.7329L103.886 17.8138L105.794 19.2006L106.924 17.261L108.718 15.6452L110.493 15.0732L114.364 11.5522L115.08 11.2422L115.982 11.4315L117.982 12.345L118.773 13.2187L119.68 15.0773L120.205 15.6493L120.83 15.7549L121.686 16.5889L122.924 13.8771L124.042 10.9294L125.327 9.04613L127.144 10.1462L128.294 11.5714L129.345 13.2585L130.833 14.1858L133.353 19.8302L133.823 19.8356L134.046 19.3638L134.284 18.3268L134.369 16.7782L134.679 14.6576L134.455 13.8689L132.343 11.4863L131.944 10.5632L131.54 9.03379L131.533 7.76225L131.925 6.75408L132.338 6.29183L133.702 6.71156L134.153 6.38236L134.58 5.52369L135.093 3.90376L135.498 3.48952L136.411 3.44151L137.816 4.48397L139.045 4.57176L139.488 4.09305L139.556 3.07527L139.663 2.4251L139.809 2.15077L144.266 2.09453L145.372 1.85038L146.236 1.07264L147.294 0.980741L148.219 1.44573L149.363 2.43608L150.501 2.38944L152.196 0.770876L153.791 0L162.6 0.21398L165.496 1.19746ZM107.925 47.0028L107.142 47.4939L105.507 44.5229L102.92 41.5121L100.637 39.482L98.4928 34.0626L98.3236 32.1052L98.6276 30.3741L100.5 30.1094L101.998 29.3097L105.811 32.7512L107.718 35.6249L108.365 37.9471L108.264 42.5216L107.925 47.0028ZM209.078 53.5333L208.68 54.4044L207.662 54.0559L206.358 51.602L205.489 49.5679L205.427 47.1551L205.874 46.0742L206.57 45.8932L207.526 47.9616L208.507 50.7201L209.078 53.5333ZM213.142 102.565L211.507 105.049L209.09 104.858L207.66 103.714L207.251 101.987L207.796 100.053L209.532 98.4924L211.711 97.5117L213.686 98.1015L213.959 100.053L213.142 102.565ZM207.794 139.675L207.283 140.325L206.943 138.368L206.636 135.732L206.567 132.728L207.35 131.211L207.759 130.872L208.031 131.211L207.962 132.56V135.234L208.235 137.055L207.794 139.675ZM211.824 145.715H211.074L210.796 145.247L210.974 144.417L212.018 141.72L212.366 141.5L212.876 141.793L213.032 143.181L212.69 144.56L211.824 145.715ZM4.44212 151.345L3.06643 151.5L1.71139 150.816L1.24639 150.285L1.267 149.472L1.472 149.189L2.20385 148.907L2.81193 148.843L3.22189 148.97L4.18623 149.472L4.88374 149.972L5.34181 150.129L5.21112 150.846L4.44212 151.345ZM209.396 172.797L208.953 173.218L207.455 166.52V164.047L207.556 162.138L208.237 161.99L208.817 163.02L209.089 166.952L209.396 172.797ZM211.642 182.709L211.949 184.319L212.085 185.785L212.563 186.712L213.585 186.581L213.993 188.295L213.245 188.952L210.283 188.69L209.057 188.821L208.206 187.77L208.24 185.918L208.342 184.051L209.193 182.979L209.909 183.918L210.76 183.248L211.642 182.709ZM68.7269 219.532L68.1807 220.413L67.7364 220.916L66.7707 222.41L66.6042 222.462L66.3442 222.269L66.142 221.876L65.7774 221.782L65.6509 221.534L65.5999 221.332L65.4376 221.203L65.1804 221.122L64.7677 221.276L64.3893 221.122L64.1032 220.465L64.6315 220.023L64.9575 219.646L66.219 219.498L66.5753 219.671L66.7996 219.667L67.1407 219.564L67.8864 219.093L67.9978 218.874L68.665 219.15L68.7269 219.532ZM74.4484 241.24L74.0866 241.318L73.0493 240.716L72.8801 240.489L72.8154 240.21L72.8554 239.88L73.1855 239.262L73.8059 238.356L74.2558 238.186L74.5351 238.755L74.8088 239.517L74.8446 239.903L74.8267 240.357L74.7552 240.741L74.63 241.056L74.4484 241.24ZM182.949 242.65L183.086 243.343L183.099 243.669L183.07 243.942L182.995 244.139L182.813 244.311L183.152 244.768L183.262 245.075L183.282 245.32L183.066 245.791L181.528 246.414L181.1 246.713L180.567 247.452L179.917 248.086L179.701 248.083L179.45 247.426L178.423 246.942L176.493 247.195L174.233 247.804L173.431 248.088L173.025 247.937L172.901 247.709L172.896 247.392L173.163 246.462L173.271 246.225L173.79 245.915L174.141 245.092L174.027 244.193L174.161 242.936L174.516 242.739L175.404 243.188L175.977 243.283L176.994 243.34L178.36 243.189L179.458 242.676L181.461 241.209L181.816 241.228L182.07 241.749L182.257 242.004L182.853 242.403L182.949 242.65ZM81.6295 243.428L81.1136 243.46L79.914 243.247L79.8178 243.11L79.8026 242.851L79.9622 242.102L80.4904 242.001L81.1191 242.412L81.7974 242.995L81.8909 243.269L81.6295 243.428ZM77.552 253.871L78.8383 254.781L80.2016 255.408L80.335 255.693L80.4409 256.126L80.4657 256.35L80.4354 256.559L80.3488 256.751L80.4478 256.998L80.7339 257.3L80.7628 257.652L80.4217 258.256L79.9416 258.925L77.402 260.295L76.5037 260.527L74.2833 261.463L73.6037 261.424L73.4538 261.38L73.0342 260.969L72.4591 260.586L72.1895 260.289L71.9515 259.861L72.0464 259.596L72.4743 259.492L73.0823 259.498L73.9752 259.187L73.7276 258.906L73.4937 258.734L73.3313 258.361L72.9585 258.434L72.6792 258.22L72.1414 258.084L70.7368 257.955L69.8206 257.588L69.5509 257.367L69.3129 256.986L69.1066 256.448L69.4065 254.349L69.6128 253.812L70.0888 253.635L71.2527 254.104L71.4095 253.902L70.1356 253.123L69.6679 252.658L69.5303 252.29L69.4477 251.749V251.43L69.5056 251.109L69.6197 250.787L69.9292 250.351L71.2197 249.654L72.6256 249.893L75.0661 250.749L75.3687 250.93L76.1171 251.661L77.552 253.871ZM84.1828 258.23L83.5775 258.618L83.4551 258.531L83.3326 258.235L83.0203 256.885L82.9282 256.243L83.0052 255.442L82.8841 254.876L83.4303 254.215L83.8719 254.101L84.4676 254.274L85.4759 254.946L85.4031 255.164L85.1843 255.514L84.5776 255.971L84.363 256.997L84.3218 257.51L84.3506 257.894L84.1828 258.23ZM138.168 298.812L137.567 298.817L137.367 298.087L137.426 297.289L138.103 297.038L138.468 297.588L138.337 298.406L138.168 298.812ZM102.511 339.358L102.068 340.31L101.625 340.103L101.406 339.678L100.97 339.48L100.5 339.539L100.493 339.37L102.021 338.353L102.751 338.078L102.698 338.508L102.559 338.884L102.511 339.358Z" fill="var(--fill-0, #71B219)" stroke="var(--stroke-0, white)" mask="url(#path-1-inside-1_0_149)"/>
</g>
</svg>
