<svg preserveAspectRatio="none" width="100%" height="100%" overflow="visible" style="display: block;" viewBox="0 0 11.5751 2.94225" fill="none" xmlns="http://www.w3.org/2000/svg">
<path id="GM" d="M0.628906 1.8418L0.640625 1.89844L0.675781 1.94336L0.837891 2.15527L0.891602 2.22559L0.977539 2.24609L1.32422 2.32812L0.675781 2.33789L0.605469 2.33984L0.546875 2.37695L0.428711 2.4502L0.276367 1.91504L0.451172 1.71387L0.584961 1.62988L0.628906 1.8418ZM3.65137 1.8877L3.60059 2.32617L3.05957 2.32227L2.73242 2.31836L2.71875 2.06934L2.71191 1.96387L2.73828 1.91211L3.25977 1.83594L3.66113 1.79883L3.65137 1.8877ZM2.30273 2.31348H2.29883L1.99121 2.31836L2.1416 2.29199L2.30273 2.31348ZM6.90918 0.270508L7.1875 0.336914L7.80566 0.767578L7.84277 0.792969L7.88574 0.804688L8.29492 0.910156V0.90918L8.57715 0.994141L8.78125 1.17871L8.80176 1.19727L8.82617 1.21094L9.21777 1.43164L9.25391 1.45215L9.29395 1.45996L9.60254 1.51855L9.64746 1.52734L9.69336 1.51855L9.87598 1.48633L9.8877 1.48438L9.89941 1.48047L10.2041 1.39551L10.2119 1.39355L10.2188 1.3916L10.3857 1.33398L10.9365 1.30957L11.2715 1.4873L11.3125 1.59961L11.2939 1.66602L10.791 1.78516L10.7842 1.78711L9.93945 2.01074L9.27344 1.89355L8.41406 1.58301L7.88672 1.35059L7.88477 1.34961L7.66797 1.25586H7.66895L7.35352 1.11426L7.07129 0.958008L7.05469 0.949219L7.03809 0.943359L6.76172 0.838867L6.75488 0.835938L6.74805 0.833984L6.53613 0.768555L6.43652 0.737305L6.34375 0.786133L6.1875 0.870117L6.10645 0.913086L6.07227 0.998047L6.00098 1.17676L5.90625 1.34375L5.84082 1.39551L5.73145 1.40723L5.60156 1.21387L5.56152 1.15527L5.49805 1.06152L5.38672 1.04688L5.28223 1.0332L5.29395 1.01367L5.57031 0.533203L6.06836 0.333008L6.63574 0.250977L6.90918 0.270508ZM3.1748 1.11426L3.83203 1.12207L3.7373 1.13574L2.65137 1.18262L2.59863 1.18457L2.55078 1.20801L1.78125 1.58789L1.61133 1.56836L1.36621 1.27734L1.3291 1.12305L1.99707 1.09766L3.1748 1.11426Z" fill="var(--fill-0, #71B219)" stroke="var(--stroke-0, white)" stroke-width="0.5"/>
</svg>
