<svg preserveAspectRatio="none" width="100%" height="100%" overflow="visible" style="display: block;" viewBox="0 0 12 3" fill="none" xmlns="http://www.w3.org/2000/svg"><path id="GM" d="M1 2L1 2L1 2L1 2L1 2L1 2L1 2L1 2L1 2L0 2L0 2L0 2L0 2L1 2L1 2ZM4 2L4 2L3 2L3 2L3 2L3 2L3 2L3 2L4 2L4 2ZM2 2H2L2 2L2 2L2 2ZM7 0L7 0L8 1L8 1L8 1L8 1V1L9 1L9 1L9 1L9 1L9 1L9 2L9 2L10 2L10 2L10 2L10 2L10 2L10 2L10 1L10 1L10 1L10 1L11 1L11 2L11 2L11 2L11 2L11 2L10 2L9 2L8 2L8 1L8 1L8 1H8L7 1L7 1L7 1L7 1L7 1L7 1L7 1L6 1L6 1L6 1L6 1L6 1L6 1L6 1L6 1L6 1L6 1L6 1L6 1L6 1L5 1L5 1L5 1L6 0L6 0L7 0L7 0ZM3 1L4 1L4 1L3 1L3 1L3 1L2 2L2 2L1 1L1 1L2 1L3 1Z" fill="var(--fill-0,#71B219)" stroke="var(--stroke-0,white)" stroke-width="0"/></svg>