<svg preserveAspectRatio="none" width="100%" height="100%" overflow="visible" style="display: block;" viewBox="0 0 28.4562 21.2004" fill="none" xmlns="http://www.w3.org/2000/svg">
<g id="GN">
<mask id="path-1-inside-1_0_146" fill="white">
<path d="M14.138 1.05479L14.0279 1.1604L13.9138 1.3895L13.8092 1.67205L13.7033 1.86134L13.7404 1.98479L14.0417 2.23168L14.464 2.57736L14.636 2.62261L14.8327 2.54031L15.1422 2.26596L15.3885 1.96972L15.6237 1.82568L15.9003 1.83526L16.1204 2.04377L16.3886 2.50464L16.6335 2.92299L16.6652 2.96552L16.7642 3.03409L16.888 3.03137L17.0173 2.92986L17.1122 2.86816L17.2264 2.6761L17.7038 2.09588L18.0629 1.93677L18.1908 1.89424L18.4412 1.80646L18.858 1.94364L19.4619 2.18232L20.1952 2.47174L20.4524 2.5211L20.6037 2.47174L20.8225 2.07943L21.0949 1.92442L21.4842 1.74338L21.8006 1.65146L21.9808 1.63911L22.0496 1.53216L22.084 1.37166L22.0469 1.20569L21.8432 0.908025L21.8377 0.820245L21.9547 0.762645L22.2051 0.718734L22.5311 0.748915L22.8984 0.877844L23.1969 1.06303L23.3675 1.28388L23.5532 1.75573L23.6963 2.21384L24.065 2.94082L24.0581 3.39212L24.0499 3.91474L24.2149 4.01348L24.3938 4.05463L24.4777 4.13145L24.6566 4.53334L24.8257 4.64992L25.028 4.67738L25.4077 4.93386L25.6512 5.03537L25.6856 5.11218L25.6773 5.21917L25.5824 5.35359L25.4352 5.44685L25.2165 5.62245L25.0349 5.85151L24.6607 6.40155L24.6497 6.50444L24.7295 6.57849L24.8836 6.59222L25.0486 6.55379L25.3926 6.35354L25.6622 6.42487L25.9222 6.57849L26.0171 6.7376L26.0419 6.9461L25.9827 7.21631L25.9731 7.5167L26.0597 8.02973L26.1959 8.54272L26.3308 8.72925L27.1961 9.18054L27.28 9.34924L27.3226 9.53991L27.2607 9.79915L27.1713 9.94457L26.9237 10.1709L26.6967 10.3451L26.6252 10.5358L26.6609 10.891V11.6934L26.6953 12.3889L26.8824 12.6399L27.1053 12.7688L27.3694 12.7441L27.6253 12.6975L27.6102 13.1131L27.5414 13.5781L27.844 13.7221L27.9981 13.8634L28.082 13.9964L27.6019 14.2434L27.463 14.3874L27.3983 14.7756L27.4134 15.1349L28.0586 15.3901L28.3076 15.6905L28.4177 16.0018L28.4562 16.5903L28.3984 16.7247L28.232 16.7261L28.0449 16.545L27.9059 16.3694H27.7312L27.4052 16.3297L27.0351 16.2611L26.577 16.2803L26.4147 16.3091L26.3101 16.4147L26.2826 16.5999L26.2359 17.1965L26.3858 17.3269L26.6816 17.475L26.8756 17.5381L27.0365 17.5202L27.1603 17.6163L27.1864 17.8728L27.1025 18.0607L26.9402 18.2363L26.7352 18.6862L26.7696 18.8562L26.7792 19.099L26.4284 19.7574L26.3294 19.8864L25.8658 19.7561L25.5645 19.7135L25.3458 19.8795L25.2082 19.7753L25.0459 19.623L24.9895 19.4228L24.8794 19.3803L24.6772 19.3789L24.4901 19.4927L24.4076 19.6999L24.3952 19.9385L24.3663 20.1223L24.2549 20.2334L24.0279 20.5228L23.9219 20.7889L23.7899 21.0207L23.6014 21.0071L23.5147 20.9741L23.4542 21.0359L23.1612 21.1648L22.9094 21.2004L22.8434 21.0674L22.6962 20.9604L22.5325 20.7478L22.3467 20.5777L21.9918 20.457L21.8515 20.5118L21.6837 20.4968L21.5736 20.4296L21.5887 20.3267L21.7745 20.0675L21.8804 19.8288L21.9396 19.5682L21.9382 19.3185L21.8391 18.9687L21.6796 18.6903L21.6397 18.5298L21.6589 18.2994L21.6218 18.0854L21.5695 17.9743L21.5447 17.763L21.4952 17.5696L21.4003 17.4956L21.348 17.1718L21.3631 16.8386L21.2256 16.7137L21.0082 16.6218L20.8803 16.4902L20.8019 16.3461L20.7234 16.3036L20.6561 16.3132L20.5955 16.4023L20.524 16.4216L20.3974 16.1102L20.3451 16.0978L20.2571 16.1692L19.2542 16.5148L19.2102 16.3804L19.1263 16.2213L18.9337 16.1678L18.6021 16.2871L18.4095 16.3009L18.1124 16.2611L17.9803 16.3173L17.5855 16.7768L17.3489 16.9565L17.17 16.9414L16.9829 16.9003L16.8509 16.9332L16.7532 16.881L16.7917 16.7686L16.888 16.6287L17.0765 16.128L17.5607 15.6246L17.5704 15.5176L17.3722 15.2241L17.1645 14.8222V14.3915L17.1246 14.0801L16.6968 13.9923L16.6184 13.9402L16.6074 13.8346L16.7174 13.5562L16.8481 13.2969L16.8674 13.1885L16.8371 13.0911L16.5744 12.8168L16.1644 12.3079L15.7847 11.7442L15.4587 11.2614L15.1945 11.0405L14.9428 10.7209L14.8479 10.5179L14.5851 10.4452L13.8202 10.4493L12.8999 10.4548L12.124 10.4576L12.0786 10.7319L11.2312 10.9143L10.7084 10.7045L10.1279 10.8279L9.84447 10.9665L9.75643 11.2573L9.62712 11.5769L9.50327 11.7085L9.45101 11.8512L9.37947 11.9815L9.26532 12.1324L9.13874 12.4328L8.86224 12.8621L8.57193 13.1391L8.07947 13.2887L7.92539 13.74L7.81258 13.9087L7.62274 14.039L7.41912 14.1254L7.232 14.0733L7.01604 14.0376L6.79043 14.1185L6.75189 14.0061L6.87985 13.648L6.77804 13.4629L6.39147 13.0911L6.35431 12.9129L6.236 12.681L5.72562 12.2023L5.25104 12.2325L5.38308 11.8319L5.37758 11.2997L5.21527 11.009L5.25654 10.7127L5.16846 10.7305L5.01027 10.9349L4.75439 10.869L4.23439 10.5522L3.97439 10.2463L3.94412 9.98434L3.88496 9.88283L3.72677 9.93771L3.40208 9.93222L2.41023 9.46586L1.70585 8.29445L1.69073 8.02973L1.79116 7.57434L1.76777 7.45085L1.44446 7.75262L1.38258 7.54964L1.13496 7.07914L1.06342 6.80755L0.82681 6.68687L0.635578 6.66627L0.488386 6.75681L0.294384 7.30685L0.149963 7.30409L0 7.18613L0.031655 6.77465L0.202231 6.57163L0.412691 6.26027L1.05104 4.95994L1.27804 4.66227L1.42246 4.55804L1.72373 4.54569L2.31254 4.37147L2.79404 4.08481L3.03477 3.96819L3.58642 3.99837L4.23989 3.94902L5.09143 3.67057L5.10658 3.2865L5.0997 2.79545L5.07081 2.60067L4.76816 2.42507L4.59208 2.27282L4.44073 2.07943L4.25639 1.94088L4.26327 1.79688L4.49439 1.67205L4.64024 1.60897L4.98689 1.61169L5.10108 1.54036L5.18773 1.41553L5.28543 1.0987L5.31981 0.765366L5.09143 0.316838L5.10381 0L6.35431 0.0452505L6.48089 0.0795338L7.03943 0.134412H7.38608L7.59935 0.157728L7.68873 0.230439L7.67224 0.363469L7.6117 0.53903L7.68323 0.720116L7.87447 0.768129L7.97489 0.713251L8.07258 0.62547L8.18812 0.555523L8.35185 0.602155L8.70262 0.869639L9.02866 0.942308L9.38362 1.08773L9.71789 1.16864L10.015 1.15768L10.2407 1.3072L10.6575 1.35517L11.194 1.16454L11.6177 1.08086L12.2107 1.06027L12.5229 1.12201L13.4268 0.969768L13.878 1.00405L14.138 1.05479Z"/>
</mask>
<path d="M14.138 1.05479L14.0279 1.1604L13.9138 1.3895L13.8092 1.67205L13.7033 1.86134L13.7404 1.98479L14.0417 2.23168L14.464 2.57736L14.636 2.62261L14.8327 2.54031L15.1422 2.26596L15.3885 1.96972L15.6237 1.82568L15.9003 1.83526L16.1204 2.04377L16.3886 2.50464L16.6335 2.92299L16.6652 2.96552L16.7642 3.03409L16.888 3.03137L17.0173 2.92986L17.1122 2.86816L17.2264 2.6761L17.7038 2.09588L18.0629 1.93677L18.1908 1.89424L18.4412 1.80646L18.858 1.94364L19.4619 2.18232L20.1952 2.47174L20.4524 2.5211L20.6037 2.47174L20.8225 2.07943L21.0949 1.92442L21.4842 1.74338L21.8006 1.65146L21.9808 1.63911L22.0496 1.53216L22.084 1.37166L22.0469 1.20569L21.8432 0.908025L21.8377 0.820245L21.9547 0.762645L22.2051 0.718734L22.5311 0.748915L22.8984 0.877844L23.1969 1.06303L23.3675 1.28388L23.5532 1.75573L23.6963 2.21384L24.065 2.94082L24.0581 3.39212L24.0499 3.91474L24.2149 4.01348L24.3938 4.05463L24.4777 4.13145L24.6566 4.53334L24.8257 4.64992L25.028 4.67738L25.4077 4.93386L25.6512 5.03537L25.6856 5.11218L25.6773 5.21917L25.5824 5.35359L25.4352 5.44685L25.2165 5.62245L25.0349 5.85151L24.6607 6.40155L24.6497 6.50444L24.7295 6.57849L24.8836 6.59222L25.0486 6.55379L25.3926 6.35354L25.6622 6.42487L25.9222 6.57849L26.0171 6.7376L26.0419 6.9461L25.9827 7.21631L25.9731 7.5167L26.0597 8.02973L26.1959 8.54272L26.3308 8.72925L27.1961 9.18054L27.28 9.34924L27.3226 9.53991L27.2607 9.79915L27.1713 9.94457L26.9237 10.1709L26.6967 10.3451L26.6252 10.5358L26.6609 10.891V11.6934L26.6953 12.3889L26.8824 12.6399L27.1053 12.7688L27.3694 12.7441L27.6253 12.6975L27.6102 13.1131L27.5414 13.5781L27.844 13.7221L27.9981 13.8634L28.082 13.9964L27.6019 14.2434L27.463 14.3874L27.3983 14.7756L27.4134 15.1349L28.0586 15.3901L28.3076 15.6905L28.4177 16.0018L28.4562 16.5903L28.3984 16.7247L28.232 16.7261L28.0449 16.545L27.9059 16.3694H27.7312L27.4052 16.3297L27.0351 16.2611L26.577 16.2803L26.4147 16.3091L26.3101 16.4147L26.2826 16.5999L26.2359 17.1965L26.3858 17.3269L26.6816 17.475L26.8756 17.5381L27.0365 17.5202L27.1603 17.6163L27.1864 17.8728L27.1025 18.0607L26.9402 18.2363L26.7352 18.6862L26.7696 18.8562L26.7792 19.099L26.4284 19.7574L26.3294 19.8864L25.8658 19.7561L25.5645 19.7135L25.3458 19.8795L25.2082 19.7753L25.0459 19.623L24.9895 19.4228L24.8794 19.3803L24.6772 19.3789L24.4901 19.4927L24.4076 19.6999L24.3952 19.9385L24.3663 20.1223L24.2549 20.2334L24.0279 20.5228L23.9219 20.7889L23.7899 21.0207L23.6014 21.0071L23.5147 20.9741L23.4542 21.0359L23.1612 21.1648L22.9094 21.2004L22.8434 21.0674L22.6962 20.9604L22.5325 20.7478L22.3467 20.5777L21.9918 20.457L21.8515 20.5118L21.6837 20.4968L21.5736 20.4296L21.5887 20.3267L21.7745 20.0675L21.8804 19.8288L21.9396 19.5682L21.9382 19.3185L21.8391 18.9687L21.6796 18.6903L21.6397 18.5298L21.6589 18.2994L21.6218 18.0854L21.5695 17.9743L21.5447 17.763L21.4952 17.5696L21.4003 17.4956L21.348 17.1718L21.3631 16.8386L21.2256 16.7137L21.0082 16.6218L20.8803 16.4902L20.8019 16.3461L20.7234 16.3036L20.6561 16.3132L20.5955 16.4023L20.524 16.4216L20.3974 16.1102L20.3451 16.0978L20.2571 16.1692L19.2542 16.5148L19.2102 16.3804L19.1263 16.2213L18.9337 16.1678L18.6021 16.2871L18.4095 16.3009L18.1124 16.2611L17.9803 16.3173L17.5855 16.7768L17.3489 16.9565L17.17 16.9414L16.9829 16.9003L16.8509 16.9332L16.7532 16.881L16.7917 16.7686L16.888 16.6287L17.0765 16.128L17.5607 15.6246L17.5704 15.5176L17.3722 15.2241L17.1645 14.8222V14.3915L17.1246 14.0801L16.6968 13.9923L16.6184 13.9402L16.6074 13.8346L16.7174 13.5562L16.8481 13.2969L16.8674 13.1885L16.8371 13.0911L16.5744 12.8168L16.1644 12.3079L15.7847 11.7442L15.4587 11.2614L15.1945 11.0405L14.9428 10.7209L14.8479 10.5179L14.5851 10.4452L13.8202 10.4493L12.8999 10.4548L12.124 10.4576L12.0786 10.7319L11.2312 10.9143L10.7084 10.7045L10.1279 10.8279L9.84447 10.9665L9.75643 11.2573L9.62712 11.5769L9.50327 11.7085L9.45101 11.8512L9.37947 11.9815L9.26532 12.1324L9.13874 12.4328L8.86224 12.8621L8.57193 13.1391L8.07947 13.2887L7.92539 13.74L7.81258 13.9087L7.62274 14.039L7.41912 14.1254L7.232 14.0733L7.01604 14.0376L6.79043 14.1185L6.75189 14.0061L6.87985 13.648L6.77804 13.4629L6.39147 13.0911L6.35431 12.9129L6.236 12.681L5.72562 12.2023L5.25104 12.2325L5.38308 11.8319L5.37758 11.2997L5.21527 11.009L5.25654 10.7127L5.16846 10.7305L5.01027 10.9349L4.75439 10.869L4.23439 10.5522L3.97439 10.2463L3.94412 9.98434L3.88496 9.88283L3.72677 9.93771L3.40208 9.93222L2.41023 9.46586L1.70585 8.29445L1.69073 8.02973L1.79116 7.57434L1.76777 7.45085L1.44446 7.75262L1.38258 7.54964L1.13496 7.07914L1.06342 6.80755L0.82681 6.68687L0.635578 6.66627L0.488386 6.75681L0.294384 7.30685L0.149963 7.30409L0 7.18613L0.031655 6.77465L0.202231 6.57163L0.412691 6.26027L1.05104 4.95994L1.27804 4.66227L1.42246 4.55804L1.72373 4.54569L2.31254 4.37147L2.79404 4.08481L3.03477 3.96819L3.58642 3.99837L4.23989 3.94902L5.09143 3.67057L5.10658 3.2865L5.0997 2.79545L5.07081 2.60067L4.76816 2.42507L4.59208 2.27282L4.44073 2.07943L4.25639 1.94088L4.26327 1.79688L4.49439 1.67205L4.64024 1.60897L4.98689 1.61169L5.10108 1.54036L5.18773 1.41553L5.28543 1.0987L5.31981 0.765366L5.09143 0.316838L5.10381 0L6.35431 0.0452505L6.48089 0.0795338L7.03943 0.134412H7.38608L7.59935 0.157728L7.68873 0.230439L7.67224 0.363469L7.6117 0.53903L7.68323 0.720116L7.87447 0.768129L7.97489 0.713251L8.07258 0.62547L8.18812 0.555523L8.35185 0.602155L8.70262 0.869639L9.02866 0.942308L9.38362 1.08773L9.71789 1.16864L10.015 1.15768L10.2407 1.3072L10.6575 1.35517L11.194 1.16454L11.6177 1.08086L12.2107 1.06027L12.5229 1.12201L13.4268 0.969768L13.878 1.00405L14.138 1.05479Z" fill="var(--fill-0, #71B219)" stroke="var(--stroke-0, white)" mask="url(#path-1-inside-1_0_146)"/>
</g>
</svg>
