<svg preserveAspectRatio="none" width="100%" height="100%" overflow="visible" style="display: block;" viewBox="0 0 28 21" fill="none" xmlns="http://www.w3.org/2000/svg"><g id="GN"><mask id="path-1-inside-1_0_146" fill="white"><path d="M14 1L14 1L14 1L14 2L14 2L14 2L14 2L14 3L15 3L15 2L15 2L15 2L16 2L16 2L16 2L16 2L17 3L17 3L17 3L17 3L17 3L17 3L17 3L18 2L18 2L18 2L18 2L19 2L20 2L20 2L20 2L21 2L21 2L21 2L22 2L22 2L22 2L22 2L22 1L22 1L22 1L22 1L22 1L22 1L22 1L23 1L23 1L23 1L24 2L24 2L24 3L24 3L24 4L24 4L24 4L24 4L25 4L25 5L25 5L25 5L26 5L26 5L26 5L26 5L25 5L25 6L25 6L25 6L25 6L25 7L25 7L25 7L25 6L26 6L26 7L26 7L26 7L26 7L26 8L26 8L26 8L26 9L27 9L27 9L27 10L27 10L27 10L27 10L27 10L27 10L27 11V12L27 12L27 13L27 13L27 13L28 13L28 13L28 14L28 14L28 14L28 14L28 14L28 14L27 15L27 15L28 15L28 16L28 16L28 17L28 17L28 17L28 16L28 16H28L27 16L27 16L27 16L26 16L26 16L26 17L26 17L26 17L27 18L27 18L27 18L27 18L27 18L27 18L27 18L27 19L27 19L27 19L26 20L26 20L26 20L26 20L25 20L25 20L25 20L25 19L25 19L25 19L24 20L24 20L24 20L24 20L24 20L24 20L24 21L24 21L24 21L24 21L24 21L23 21L23 21L23 21L23 21L22 21L22 21L22 20L22 20L22 20L22 20L22 20L22 20L22 20L22 20L22 19L22 19L22 19L22 18L22 18L22 18L22 18L22 18L22 18L21 18L21 17L21 17L21 17L21 17L21 16L21 16L21 16L21 16L21 16L20 16L20 16L20 16L20 16L19 16L19 16L19 16L19 16L19 16L18 16L18 16L18 16L18 17L17 17L17 17L17 17L17 17L17 17L17 17L17 17L17 16L18 16L18 16L17 15L17 15V14L17 14L17 14L17 14L17 14L17 14L17 13L17 13L17 13L17 13L16 12L16 12L16 11L15 11L15 11L15 10L15 10L14 10L13 10L12 10L12 11L11 11L11 11L10 11L10 11L10 11L10 12L10 12L10 12L9 12L9 12L9 12L9 13L9 13L8 13L8 14L8 14L8 14L7 14L7 14L7 14L7 14L7 14L7 14L7 14L6 13L6 13L6 13L6 12L5 12L5 12L5 11L5 11L5 11L5 11L5 11L5 11L4 11L4 10L4 10L4 10L4 10L3 10L2 10L2 8L2 8L2 8L2 8L1 8L1 8L1 7L1 7L1 7L1 7L0 7L0 7L0 7L0 7L0 7L0 7L0 6L1 5L1 5L1 5L2 4L2 4L3 4L3 4L4 4L4 4L5 4L5 3L5 3L5 3L5 2L5 2L4 2L4 2L4 2L4 2L5 2L5 2L5 2L5 1L5 1L5 1L5 0L5 0L6 0L6 0L7 0H7L8 0L8 0L8 0L8 0L8 1L8 1L8 1L8 1L8 1L8 1L9 1L9 1L9 1L10 1L10 1L10 1L11 1L11 1L12 1L12 1L12 1L13 1L14 1L14 1Z"/></mask><path d="M14 1L14 1L14 1L14 2L14 2L14 2L14 2L14 3L15 3L15 2L15 2L15 2L16 2L16 2L16 2L16 2L17 3L17 3L17 3L17 3L17 3L17 3L17 3L18 2L18 2L18 2L18 2L19 2L20 2L20 2L20 2L21 2L21 2L21 2L22 2L22 2L22 2L22 2L22 1L22 1L22 1L22 1L22 1L22 1L22 1L23 1L23 1L23 1L24 2L24 2L24 3L24 3L24 4L24 4L24 4L24 4L25 4L25 5L25 5L25 5L26 5L26 5L26 5L26 5L25 5L25 6L25 6L25 6L25 6L25 7L25 7L25 7L25 6L26 6L26 7L26 7L26 7L26 7L26 8L26 8L26 8L26 9L27 9L27 9L27 10L27 10L27 10L27 10L27 10L27 10L27 11V12L27 12L27 13L27 13L27 13L28 13L28 13L28 14L28 14L28 14L28 14L28 14L28 14L27 15L27 15L28 15L28 16L28 16L28 17L28 17L28 17L28 16L28 16H28L27 16L27 16L27 16L26 16L26 16L26 17L26 17L26 17L27 18L27 18L27 18L27 18L27 18L27 18L27 18L27 19L27 19L27 19L26 20L26 20L26 20L26 20L25 20L25 20L25 20L25 19L25 19L25 19L24 20L24 20L24 20L24 20L24 20L24 20L24 21L24 21L24 21L24 21L24 21L23 21L23 21L23 21L23 21L22 21L22 21L22 20L22 20L22 20L22 20L22 20L22 20L22 20L22 20L22 19L22 19L22 19L22 18L22 18L22 18L22 18L22 18L22 18L21 18L21 17L21 17L21 17L21 17L21 16L21 16L21 16L21 16L21 16L20 16L20 16L20 16L20 16L19 16L19 16L19 16L19 16L19 16L18 16L18 16L18 16L18 17L17 17L17 17L17 17L17 17L17 17L17 17L17 17L17 16L18 16L18 16L17 15L17 15V14L17 14L17 14L17 14L17 14L17 14L17 13L17 13L17 13L17 13L16 12L16 12L16 11L15 11L15 11L15 10L15 10L14 10L13 10L12 10L12 11L11 11L11 11L10 11L10 11L10 11L10 12L10 12L10 12L9 12L9 12L9 12L9 13L9 13L8 13L8 14L8 14L8 14L7 14L7 14L7 14L7 14L7 14L7 14L7 14L6 13L6 13L6 13L6 12L5 12L5 12L5 11L5 11L5 11L5 11L5 11L5 11L4 11L4 10L4 10L4 10L4 10L3 10L2 10L2 8L2 8L2 8L2 8L1 8L1 8L1 7L1 7L1 7L1 7L0 7L0 7L0 7L0 7L0 7L0 7L0 6L1 5L1 5L1 5L2 4L2 4L3 4L3 4L4 4L4 4L5 4L5 3L5 3L5 3L5 2L5 2L4 2L4 2L4 2L4 2L5 2L5 2L5 2L5 1L5 1L5 1L5 0L5 0L6 0L6 0L7 0H7L8 0L8 0L8 0L8 0L8 1L8 1L8 1L8 1L8 1L8 1L9 1L9 1L9 1L10 1L10 1L10 1L11 1L11 1L12 1L12 1L12 1L13 1L14 1L14 1Z" fill="var(--fill-0,#71B219)" stroke="var(--stroke-0,white)" mask="url(#path-1-inside-1_0_146)"/></g></svg>