<svg preserveAspectRatio="none" width="100%" height="100%" overflow="visible" style="display: block;" viewBox="0 0 0.0956982 0.0955137" fill="none" xmlns="http://www.w3.org/2000/svg">
<g id="GO">
<mask id="path-1-inside-1_0_94" fill="white">
<path d="M0.0956982 0.084113L0.0671108 0.0955137L0.0114175 0.082677L0 0.0128367L0.0713815 0L0.0956982 0.084113Z"/>
</mask>
<path d="M0.0956982 0.084113L0.0671108 0.0955137L0.0114175 0.082677L0 0.0128367L0.0713815 0L0.0956982 0.084113Z" fill="var(--fill-0, #71B219)"/>
<path d="M0.0956982 0.084113L0.280914 0.548543L0.701902 0.380652L0.576029 -0.0547489L0.0956982 0.084113ZM0.0671108 0.0955137L-0.0451895 0.582739L0.107132 0.617848L0.252326 0.559944L0.0671108 0.0955137ZM0.0114175 0.082677L-0.482032 0.163347L-0.42789 0.494531L-0.100883 0.569902L0.0114175 0.082677ZM0 0.0128367L-0.0884966 -0.479269L-0.572848 -0.392167L-0.49345 0.0935062L0 0.0128367ZM0.0713815 0L0.551712 -0.138862L0.426526 -0.571887L-0.0171151 -0.492106L0.0713815 0ZM0.0956982 0.084113L-0.0895172 -0.380317L-0.118105 -0.368916L0.0671108 0.0955137L0.252326 0.559944L0.280914 0.548543L0.0956982 0.084113ZM0.0671108 0.0955137L0.179411 -0.391712L0.123718 -0.404548L0.0114175 0.082677L-0.100883 0.569902L-0.0451895 0.582739L0.0671108 0.0955137ZM0.0114175 0.082677L0.504867 0.00200747L0.49345 -0.0678328L0 0.0128367L-0.49345 0.0935062L-0.482032 0.163347L0.0114175 0.082677ZM0 0.0128367L0.0884966 0.504943L0.159878 0.492106L0.0713815 0L-0.0171151 -0.492106L-0.0884966 -0.479269L0 0.0128367ZM0.0713815 0L-0.408949 0.138862L-0.384632 0.222975L0.0956982 0.084113L0.576029 -0.0547489L0.551712 -0.138862L0.0713815 0Z" fill="var(--stroke-0, white)" mask="url(#path-1-inside-1_0_94)"/>
</g>
</svg>
