<svg preserveAspectRatio="none" width="100%" height="100%" overflow="visible" style="display: block;" viewBox="0 0 11 11" fill="none" xmlns="http://www.w3.org/2000/svg"><path id="GQ" d="M6 6L6 6H10L11 6L11 7V7L11 8L11 8L11 9L11 10L11 10L10 10H10L9 10L8 10L7 10L7 10L6 10H6L6 10L6 10L6 10L6 10L6 10L6 10L6 10L6 10L5 10L5 10L5 10L5 10L5 10L5 10L5 10L5 10L5 10L5 10L5 10L5 10L5 10L4 10L4 10L4 10L4 10L4 10L4 9L5 9L5 9L5 9L5 8L5 8L5 8L6 7L6 7L6 7L5 6L6 6L6 6ZM2 0L2 0L1 1L1 1L1 1L1 2L1 2L1 2L0 2L0 2L0 2L0 1L0 1L0 1L1 1L1 1L1 1L1 1L1 1L1 1L1 1L1 0L1 0L1 0L1 0L1 0L1 0L2 0L2 0Z" fill="var(--fill-0,#71B219)" stroke="var(--stroke-0,white)" stroke-width="0"/></svg>