<svg preserveAspectRatio="none" width="100%" height="100%" overflow="visible" style="display: block;" viewBox="0 0 11.2009 10.7141" fill="none" xmlns="http://www.w3.org/2000/svg">
<path id="GQ" d="M5.87109 6.3252L5.91699 6.34473H10.2803L10.9287 6.3418L10.9316 6.97852V6.97949L10.9355 7.72754L10.9395 8.53809L10.9443 9.38379L10.9482 10.0986L10.9492 10.3076L10.4111 10.3066H10.4102L9.36133 10.3037L8.31152 10.3008L7.2627 10.2979L6.73633 10.2969L6.15527 10.2949H6.13867L6.12207 10.2979L5.93359 10.3223L5.85645 10.332L5.79785 10.3848L5.72559 10.4502L5.62793 10.3955L5.5957 10.3779L5.55957 10.3701L5.44922 10.3447L5.44727 10.3408L5.44531 10.3379L5.33691 10.1504L5.27246 10.0381L5.14355 10.0264L4.92773 10.0059L4.89258 10.002L4.85742 10.0088L4.74902 10.0293L4.69727 10.0391L4.6543 10.0693L4.59082 10.1123L4.29199 9.91309L4.23926 9.87891L4.17676 9.87305L3.98828 9.85449L4.09375 9.51367L4.30469 9.03125L4.59668 8.69238L4.73926 8.61914L4.83301 8.57031L4.86328 8.46875L4.91992 8.27637L5.18066 7.65723L5.50977 7.14746L5.56348 7.0625L5.54492 6.96387L5.44531 6.46094L5.47168 6.16113L5.87109 6.3252ZM1.73926 0.28125L1.73145 0.416016L1.17578 1.22949L1.1543 1.26074L1.14355 1.29785L1.04492 1.62207L0.90332 1.8125L0.858398 1.81836L0.283203 1.66504L0.263672 1.64551L0.255859 1.61914L0.298828 1.39648L0.496094 1.35742L0.532227 1.35059L0.564453 1.33301L0.669922 1.27734L0.743164 1.23828L0.779297 1.16309L0.955078 0.790039L0.969727 0.758789L0.975586 0.724609L1.02539 0.427734L1.10547 0.287109L1.18945 0.256836L1.2207 0.261719L1.24316 0.265625L1.2666 0.264648L1.7168 0.25293L1.73926 0.28125Z" fill="var(--fill-0, #71B219)" stroke="var(--stroke-0, white)" stroke-width="0.5"/>
</svg>
