<svg preserveAspectRatio="none" width="100%" height="100%" overflow="visible" style="display: block;" viewBox="0 0 33.1473 33.3438" fill="none" xmlns="http://www.w3.org/2000/svg">
<g id="GR">
<mask id="path-1-inside-1_0_246" fill="white">
<path d="M25.7695 0.156389L26.1147 0.26062L26.3156 0.429357L26.4408 0.584322L26.632 0.717395L26.7751 0.747576L26.8851 1.20435L26.9429 1.76946L26.8562 2.01363L26.6017 2.06985L25.8066 2.60205L25.7874 3.08901L25.7984 3.32355L25.8148 3.49091L25.8988 3.6308V3.83244L25.8107 4.04915L25.464 4.41128L25.2233 4.69798L24.9537 5.08753L24.8024 5.13554L24.6826 5.20411L24.574 4.99012L23.9756 4.61016L22.5902 4.38796L21.9286 4.10679L21.6383 4.15891L21.0755 3.84479L20.6904 3.9833L19.8732 4.54159L19.4317 4.48123L18.9598 4.14518L18.653 4.08348L18.2926 4.26042L17.7162 4.90234L17.1287 5.21646L16.6032 5.09439L15.8961 5.09711L15.8205 5.45514L15.9567 5.70341L16.3432 6.12586L16.1616 6.44274L16.2964 6.75958L16.5482 6.82404L16.9292 6.80621L17.6322 7.21635L17.9404 7.64843L18.1371 8.12028L17.7079 7.78146L17.4231 7.455L17.0255 7.33704L16.4739 7.05858L16.1272 7.01195L15.7585 7.20539L15.7296 7.42348L16.1272 7.83086L16.4904 8.08185L16.683 8.28487L16.8109 8.73616L16.738 8.88841L16.6032 9.03106L16.1726 8.74713L15.5137 7.73621L14.5947 7.53457L14.4406 7.7458L14.6222 8.28077L14.7529 8.48789L15.5522 9.06397L15.4889 9.18607L15.3719 9.23819L14.4778 8.90896L14.2177 8.40831L14.1559 7.77322L13.3305 7.33155L12.5518 6.85012L12.377 6.39335L12.538 6.22327L12.6522 5.88718L12.2244 5.94892L11.9561 6.16153L11.5228 6.36727L11.5049 6.7047L11.5737 7.01744L11.4306 7.47149L11.2903 8.26017L11.3784 8.67304L12.3193 9.85407L12.6412 10.71L12.8724 11.0337L13.3538 11.3903L13.8559 12.0528L14.0678 12.3971L14.2192 12.9609L13.7968 13.3093L13.5519 13.323L13.4157 13.1694L13.6055 12.7853L13.5781 12.5507L12.926 12.1873L12.6509 12.3093L12.333 12.5452L12.5147 12.9842L12.7183 13.2736L12.8214 13.6714L13.2122 13.6371L12.6866 14.0829L12.1927 14.3106L11.7071 14.3243L11.3976 14.3654L11.2903 14.4793L11.542 14.5616L11.747 14.5698L12.0813 14.8099L13.0319 15.0966L13.4859 15.46L13.9316 15.493L14.3787 16.1582L15.1532 16.3352L15.5949 17.0059L16.1809 17.1376L16.6871 17.3845L16.8344 17.619L16.9086 18.0443L16.9417 18.9427L17.0517 19.6094L17.0558 19.8192L17.0283 20.1333L16.8907 20.2869L16.705 20.2924L16.3405 19.8027L15.7833 19.287L15.1945 18.6725L15.0267 18.5641L14.8891 18.5545L14.5741 18.7616L13.6991 18.9221L13.2892 19.1471L13.1351 19.1964L13.0924 19.3144L13.285 19.4365L13.5203 19.7177V20.1004L13.7156 20.5654L13.9674 20.6847L14.2948 20.6751L14.4832 20.7615L14.5314 20.9467L14.7226 21.1621L14.8478 21.3226L14.8437 21.4364L13.9289 21.7395L13.7376 21.8781L13.5767 21.9494L13.3387 21.8054L13.3249 21.435L13.0112 21.2361L12.7237 21.0647L12.3785 20.992L12.0854 20.7355L11.8942 20.9426L12.0469 21.6613L12.3785 22.1551L12.9342 23.4774L13.186 24.2552L13.2368 24.631L13.1117 25.2551L13.3855 25.7173L13.5725 26.1919L13.3676 26.1741L13.1887 26.0068L12.8888 25.8093L12.3083 25.0507L12.1061 24.5775L11.8639 24.5405L11.443 24.6091L10.9835 25.62L10.9849 26.1974L10.7468 26.0603L10.5433 25.8806L10.568 25.2483L10.5474 24.9822L9.98889 24.118L9.73296 24.0206L9.61331 23.7285L9.40692 23.4157L9.14143 23.4747L8.92412 23.6009L8.86493 24.0728L8.84293 24.4952L8.68062 24.8121L8.08489 24.2099L7.48512 23.1647L7.47 22.5913L7.90881 22.066L7.85658 21.6902L7.44112 20.9467L6.84127 20.468L6.50566 20.3253L6.34738 19.8151L6.02689 19.5517L5.76685 19.4283L5.71596 19.2472L5.79439 19.1128L6.42446 18.5874L6.79316 17.7617L6.97612 17.7233L7.35304 17.9194L7.77673 17.8687L8.12343 17.3845L8.41781 17.1211L8.91447 17.1554L10.0357 17.8015L11.2407 18.1705L11.8419 18.4928L12.1831 18.8124L12.3634 18.8782L12.6494 18.9235L12.6371 18.6848L12.5463 18.4736L12.7843 18.3584L13.4295 18.3639L13.5464 18.2514L13.6661 18.0703L13.5327 17.8632L13.3194 17.7645L13.0911 17.737L12.9411 17.6712L12.6976 17.737L12.3193 17.5765L12.1225 17.4449L12.0084 17.3091L11.3495 17.0388L10.7248 16.5807L10.5832 16.8399L10.33 16.9798L9.97101 17.0004L8.96123 16.7096L8.34081 16.9318L8.00235 16.9895L7.74373 16.995L7.42592 17.0937L7.05866 17.1527L6.74085 16.7302L6.60743 16.4024L6.51389 16.3406L6.50977 16.6493L6.40792 16.8962L5.94158 17.0347L5.67331 16.8427L5.467 16.2625L5.20696 15.5232L4.74885 14.9251L4.37604 14.7687L4.34438 14.4395L4.37738 14.1761L4.8245 14.1103L5.52334 14.386L5.66785 14.3312L5.82461 14.2036L5.79439 13.9224L5.69262 13.6714L5.5 13.6604L5.36658 13.6892L4.93592 13.6371L4.38427 13.777L4.12842 13.6453L4.04311 13.4848L3.58088 13.0884L3.18196 12.5562L2.53534 12.201L2.113 11.1146L1.75807 10.64L1.37981 10.2998L1.46235 10.2944L1.60542 10.352L1.88058 10.5385L2.17219 10.5783L2.33173 10.4548L2.42392 10.341L2.48312 10.1545L2.50789 9.93637L2.556 9.86366L2.78027 9.88969L2.85181 9.83486L2.84904 9.6387L2.70462 9.39453L2.578 9.09415V8.95149L2.68396 8.89389L2.85869 8.76358L2.95223 8.60171L3.13788 8.52079L3.41169 8.50572L3.71708 8.43439L3.91515 8.26017L3.94412 8.08871L4.06788 7.61411L4.14908 7.38095L4.27973 7.16834L4.34992 6.88164L4.49023 6.61144L4.78184 6.49758L5.046 6.36455L5.2455 6.01615L5.35827 5.71848V5.53606L5.19042 5.23701L5.06666 4.94625L5.09965 4.56767L5.62377 4.53611L5.80673 4.50044L6.48777 4.47985L6.79862 4.27687L7.01323 4.29608L7.46169 4.47164L7.66254 4.33309L8.24862 4.05878L8.82781 3.26047L9.074 3.14113L9.63665 3.09173L9.81281 2.99985L10.0178 3.01768L10.6479 3.17951L11.0055 3.20421L11.4306 3.09311L11.8984 2.89834L12.0152 2.21389L12.1267 2.1151L12.417 2.08768L12.6371 2.09316L13.0608 2.14804L13.5643 2.16587L13.8876 1.84489L14.398 1.82158L14.6346 1.77494L15.0294 1.83941L15.4132 1.83669L15.9044 1.70223L16.3625 1.48142L16.7202 1.50059L16.8659 1.46083L16.9485 1.41419L17.0379 1.11653L17.7106 1.09736L17.939 1.12616L18.3146 1.13436L18.7053 0.97115L18.8222 0.98488L19.0189 1.42106L19.1221 1.54727L19.3339 1.66385L19.8072 1.99031L19.8925 1.90387L20.0906 1.79416L20.6574 1.94364L21.1981 2.19467L21.652 2.56367L22.1569 2.45667L22.7168 2.27559L23.0813 2.22347L23.4776 2.19744L23.7128 2.11924L24.2479 2.21389L24.7996 2.01497L25.0651 1.83669L25.1422 1.58427L25.0981 1.14123L24.9729 0.6968L24.8408 0.532207L24.7982 0.36213L24.8739 0.203021L24.9591 0.0932639L25.3196 0L25.7695 0.156389ZM19.7976 5.76788L19.3023 5.94754L18.7988 5.606L18.8029 5.40298L19.0684 4.99012L19.2143 4.86806L19.5843 4.90096L19.7948 5.18489L19.8444 5.31935L19.7756 5.54702L19.7976 5.76788ZM23.3179 6.71981L22.8805 6.85146L22.399 6.43588L22.864 6.26852L23.08 6.38924L23.2341 6.53186L23.3179 6.71981ZM22.3591 8.94462L22.2133 9.11336L22.1046 9.40416L22.0469 9.81975L21.8212 9.82937L21.6851 9.7457L21.6396 9.58797L21.6314 9.38905L21.5323 9.3973L21.4526 9.61262L21.3824 9.71003L21.1554 9.73059L20.9064 9.59755L20.9188 9.31086L20.8692 8.97757L20.8912 8.86095L21.5722 8.83215L21.7717 9.0777L22.0124 8.93504L22.1115 8.78141L22.4031 8.68539L22.3591 8.94462ZM1.66596 11.6893L1.74984 11.9678L1.26839 11.7949L0.917577 11.5467L0.627307 10.9308L0.00957208 10.2299L0 10.0255L0.235188 9.87052L0.742844 9.76077L0.947804 9.87463L1.07988 9.99259L1.12119 10.127L0.833611 10.3959L0.774499 10.5179L0.996001 10.7593L0.99323 10.8567L1.08542 11.3245L1.19408 11.5L1.47335 11.6413L1.66596 11.6893ZM26.1134 12.201L26.046 12.4945L26.5797 12.9815L26.7614 13.2901L26.8287 13.5891L26.7834 13.6755L26.5811 13.5137L26.4147 13.4615L26.4711 13.6755L26.6416 13.8593L26.339 13.9649L26.0363 13.9594L25.1504 13.703L24.9468 13.43L25.4764 13.0199L25.5837 12.8539L25.2095 12.8703L24.8092 13.3573L24.1682 13.1433L23.9714 12.9471L23.9274 12.8415L24.1805 12.4081L24.6317 12.4232L24.8698 12.3258L25.1655 12.1886L25.1683 11.9829L25.8726 11.9362L26.1134 12.201ZM16.3762 13.0487L16.196 13.1063L16.3762 12.7112L16.6954 12.5069L16.5757 12.8388L16.3762 13.0487ZM15.958 13.2654L15.786 13.4327L15.5191 13.36L15.2399 12.8004L15.958 13.2654ZM14.5521 14.0335L14.7708 14.5685L14.9758 14.7482L15.405 14.9608L15.6072 14.9882L16.3405 15.3723L17.192 15.4491L17.302 15.5602L17.4066 15.8551L17.58 16.0869L17.624 16.2666L17.5332 16.4668L17.6584 17.0772L17.873 17.6561L18.1963 17.9359L18.5993 18.0209L18.9831 18.0086L19.0794 18.1238L19.041 18.6286L18.8786 18.8261L18.7465 18.8741L18.6323 18.822L18.5278 18.7041L18.415 18.6478L18.1949 18.6382L18.0339 18.4352L17.6253 18.1567L17.5497 17.9894L17.5359 17.7329L17.3626 17.5436L17.203 17.1842L17.0517 17.0841L16.9678 16.903L16.9609 16.8262L16.3666 16.7727L15.8755 16.7714L15.4587 16.567L15.3293 16.0307L15.0817 15.8866L14.896 15.7344L14.7419 15.5232L14.3512 15.1349L13.9192 14.8099L13.501 14.5945L13.0581 14.4533L12.6976 14.6192L12.4871 14.5808L12.4445 14.4683L12.8929 14.2448L13.5092 13.8168L13.9426 13.6755L14.1531 13.6577L14.5521 14.0335ZM19.4138 14.7701L19.0066 14.8894L18.8979 14.8702L18.9887 14.7194L18.9956 14.6562L18.5883 14.3792L18.6365 14.0198L18.6846 13.9279L18.9873 14.1158L19.0533 14.4286L19.4138 14.7701ZM4.017 15.7549L3.86704 15.7934L3.73773 15.7673L3.62077 15.7893L3.50657 15.8825L3.519 15.4944L3.65242 15.0101L3.81473 14.7276L4.04454 14.5959L4.14219 14.8181L4.12431 15.6082L4.017 15.7549ZM24.8931 17.6657L24.5244 17.9414L24.1131 17.5422L24.0457 17.4133L24.3484 17.2514L24.4983 17.0032L24.3772 16.6973L23.9577 16.2447L23.937 15.9237L24.5795 15.7879L24.9578 16.0677L25.1504 16.0869L25.0761 16.3544L25.1091 16.4408L25.138 17.2501L24.9591 17.3639L24.9302 17.5861L24.8931 17.6657ZM4.2935 17.1225L4.10231 17.176L3.86015 16.7083L3.77216 16.3846L3.87392 16.3667L3.97023 16.4038L4.072 16.5258V16.6507L4.11331 16.7851L4.21919 16.9456L4.2935 17.1225ZM3.7295 16.8592L3.77761 17.4243L4.05 17.5299L4.41181 18.0374L4.38158 18.2967L4.30584 18.3858L3.70608 18.1458L3.563 18.2541L3.38827 18.2102L3.27961 17.9291L3.29196 17.8303L3.19431 17.6616L3.11177 17.5861L2.87658 17.8097L2.72796 17.8509V17.6465L2.94669 17.0841L3.04854 16.9895L3.2273 17.1746L3.37458 17.106L3.486 16.8015L3.49289 16.4984L3.54377 16.4092L3.7295 16.8592ZM15.0748 19.0895L14.9221 19.2088L14.7502 19.2033L14.6277 19.1594L14.5672 19.0634L14.6429 19.0182L14.7323 18.8247L14.8148 18.7726L14.9372 18.7973L15.0129 18.8755L15.0748 19.0895ZM20.6367 19.896L20.5225 20.2211L20.2213 19.8425L19.8911 19.5833L19.7673 19.3556L19.5664 19.2184L19.5114 18.9125L19.7549 18.7877L19.8595 18.7754L20.1099 19.1471L20.5006 19.1896L20.4702 19.4187L20.5941 19.7136L20.6367 19.896ZM4.79561 19.6752L5.20285 20.147L4.87404 20.0304L4.52466 20.3569L4.08165 19.9756L3.81616 19.5888L3.75696 19.4338L4.03489 19.0716L4.2935 19.4434L4.6072 19.5024L4.79561 19.6752ZM27.7133 19.645L28.1879 19.8055L28.32 19.7876L28.5442 19.8453L28.6034 20.1388L28.3063 20.1813L27.7917 20.4515L27.573 20.3926L27.3116 20.158L26.8961 20.1333L26.7737 20.0689L26.9966 19.7918L27.401 19.6518L27.7133 19.645ZM18.1825 20.7807L17.9239 21.0153L17.8798 20.6628L18.0463 20.291L18.2733 20.2677L18.3572 20.431L18.1825 20.7807ZM21.6575 20.671L21.5144 20.9837L21.2737 20.9357L20.8706 20.5997L20.7331 20.4474L20.6574 20.2979L20.8225 20.2801L21.0247 20.4392L21.5405 20.5229L21.6575 20.671ZM24.6427 21.0112L24.4626 21.0304L24.5176 20.837L24.8629 20.5009L25.3471 20.4845L25.7874 20.3157L25.8864 20.3103L25.6759 20.575L25.3209 20.8219L24.6427 21.0112ZM22.2243 21.5434L21.8542 21.5735L21.8762 21.2046L22.0138 21.1086L22.4568 21.2924L22.4348 21.4076L22.2243 21.5434ZM20.4497 21.184L20.4304 21.6847L20.3286 21.6805L20.2694 21.6037L20.2667 21.4117L20.3107 21.1099L20.4497 21.184ZM18.4907 21.9041L18.2705 22.0509L18.3435 21.7162L18.2347 21.542L18.331 21.3939L18.4728 21.2745L18.5388 21.398L18.6654 21.5982L18.4907 21.9041ZM18.829 22.9603L18.686 23.033L18.448 22.9274L18.5113 22.664L18.6764 22.5516L18.8511 22.638L18.8772 22.7573L18.829 22.9603ZM22.7773 23.7175L22.4334 23.8985L22.1982 23.6365L22.0674 23.2237L22.6975 22.6174L22.8488 22.6722L22.9397 22.8286L22.9259 23.3732L22.7773 23.7175ZM21.7469 23.2333L21.4401 23.6036L21.1843 23.5639L21.077 23.3937L21.2352 23.0453L21.5777 22.8478L21.7332 22.9L21.7181 23.1578L21.7469 23.2333ZM28.4672 23.7573L28.082 23.8231L28.1507 23.4418L27.9623 23.1414L28.2622 23.3101L28.4534 23.5131L28.547 23.5515L28.525 23.6736L28.4672 23.7573ZM19.5926 23.9383L19.5224 23.9589L19.4207 23.7573L19.4 23.5693L19.4399 23.4582L19.5733 23.4472L19.7549 23.8053L19.5926 23.9383ZM23.9866 24.5651L23.6454 24.605L23.5367 24.5693L23.7444 24.487L23.8889 24.3992L23.959 24.2936L24.3044 24.107L24.5313 23.8629L24.7776 24.0288L24.4694 24.1399L23.9866 24.5651ZM28.1962 24.8683L28.0765 24.8738L28.2196 24.6433L28.6267 24.3265L29.2197 24.0467L29.4164 24.0165L29.7507 24.1893L29.1372 24.476L28.9734 24.6269L28.5209 24.6598L28.1962 24.8683ZM22.1431 25.1221L22.0757 25.1975L21.7841 24.8957L21.6726 24.7202L21.8116 24.5734L22.2408 24.9163L22.1431 25.1221ZM18.8772 24.6927L18.8841 24.9739L18.8566 25.074L18.067 25.2098L18.1399 24.8875L18.188 24.786L18.4494 24.9355L18.5457 24.8587L18.5842 24.7709L18.8772 24.6927ZM31.7125 25.6954L31.6285 25.7708L31.4346 25.5527L31.4249 25.4389L31.6231 25.3086L31.7221 25.2784L31.7509 25.3676L31.7483 25.5582L31.7125 25.6954ZM26.3087 25.5459L26.0033 25.6597L25.8094 25.8998L25.5727 25.7297V25.4993L25.8314 25.5706L26.013 25.4403L25.9579 25.2935L26.1561 25.3621L26.3087 25.5459ZM22.5324 26.4649L22.3536 26.716L22.1005 26.6268L22.2036 26.5321L22.2642 26.4087L22.2711 26.2304L22.2023 26.1206L22.2491 26.0809L22.4747 26.2647L22.5324 26.4649ZM31.6451 28.6637L31.3671 28.7638L31.2708 28.7515L31.1553 28.532L31.3163 28.0026L31.1676 27.661L31.1581 27.517L31.3837 27.3167L31.5405 27.0163L31.9229 26.6913L32.9148 26.3058L33.1473 26.2701L33.1404 26.5719L32.8089 27.3346L32.5144 27.7159L32.5929 28.0204L32.1211 28.1054L31.6451 28.6637ZM13.1557 27.4292L13.1103 27.6349L12.7127 27.4937L12.6027 27.2811L12.5821 26.8092L12.6866 26.5788L12.7554 26.5061L12.9384 26.7722L13.3222 27.1603L13.1557 27.4292ZM29.0711 30.8543L28.9239 31.119L28.7739 30.8954L28.8386 30.6375L28.6653 30.2301L28.9941 29.6239L29.001 29.329L29.2527 29.1781L29.1908 29.6787L28.9982 30.0793L29.1977 30.4126L29.2926 30.7911L29.0711 30.8543ZM16.2386 30.5237L16.5028 30.558L16.8605 30.5525L16.9417 30.5237L17.17 30.248L17.4507 30.2425L17.5731 30.5141L17.2883 30.6389L17.2305 30.7102L17.2856 30.7678L17.4988 30.8817L17.7959 30.8392L17.8042 31.0531L17.8702 31.2273L18.016 31.3316L18.1756 31.3521L18.5264 31.322L18.8717 31.2534L19.2281 31.1162L19.5926 31.0463L20.6807 31.1162L21.0714 31.4125L21.8157 31.4482L22.5063 31.6046L22.8695 31.5017L23.4899 31.4056L23.589 31.5099L23.5092 32.1779L23.5477 32.3727L23.7265 32.466L23.9027 32.4207L24.12 32.2012L24.64 32.0325H25.1793L25.6346 31.5881L25.7681 31.562L25.6842 31.7801L25.6154 32.2931L25.5191 32.5935L25.475 32.8295L25.1711 32.9515L24.7129 32.9721L23.8751 32.92L23.0304 33.0036L21.4663 33.2286L19.8994 33.3438L19.6889 33.2684L19.6847 32.9707L19.6517 32.765L19.55 32.621L19.0657 32.4975L18.6034 32.2862L16.7917 31.9982L16.3638 31.8844L15.6705 31.9433L15.416 31.9351L15.2413 31.8322L15.1202 31.6539L15.0652 31.0874L15.1519 30.5264L15.3018 30.3783L15.3706 30.547L15.5481 30.6252L15.7132 30.4551L15.7117 30.1972L15.7957 29.9585L15.9264 30.0587L16.013 30.4263L16.2386 30.5237Z"/>
</mask>
<path d="M25.7695 0.156389L26.1147 0.26062L26.3156 0.429357L26.4408 0.584322L26.632 0.717395L26.7751 0.747576L26.8851 1.20435L26.9429 1.76946L26.8562 2.01363L26.6017 2.06985L25.8066 2.60205L25.7874 3.08901L25.7984 3.32355L25.8148 3.49091L25.8988 3.6308V3.83244L25.8107 4.04915L25.464 4.41128L25.2233 4.69798L24.9537 5.08753L24.8024 5.13554L24.6826 5.20411L24.574 4.99012L23.9756 4.61016L22.5902 4.38796L21.9286 4.10679L21.6383 4.15891L21.0755 3.84479L20.6904 3.9833L19.8732 4.54159L19.4317 4.48123L18.9598 4.14518L18.653 4.08348L18.2926 4.26042L17.7162 4.90234L17.1287 5.21646L16.6032 5.09439L15.8961 5.09711L15.8205 5.45514L15.9567 5.70341L16.3432 6.12586L16.1616 6.44274L16.2964 6.75958L16.5482 6.82404L16.9292 6.80621L17.6322 7.21635L17.9404 7.64843L18.1371 8.12028L17.7079 7.78146L17.4231 7.455L17.0255 7.33704L16.4739 7.05858L16.1272 7.01195L15.7585 7.20539L15.7296 7.42348L16.1272 7.83086L16.4904 8.08185L16.683 8.28487L16.8109 8.73616L16.738 8.88841L16.6032 9.03106L16.1726 8.74713L15.5137 7.73621L14.5947 7.53457L14.4406 7.7458L14.6222 8.28077L14.7529 8.48789L15.5522 9.06397L15.4889 9.18607L15.3719 9.23819L14.4778 8.90896L14.2177 8.40831L14.1559 7.77322L13.3305 7.33155L12.5518 6.85012L12.377 6.39335L12.538 6.22327L12.6522 5.88718L12.2244 5.94892L11.9561 6.16153L11.5228 6.36727L11.5049 6.7047L11.5737 7.01744L11.4306 7.47149L11.2903 8.26017L11.3784 8.67304L12.3193 9.85407L12.6412 10.71L12.8724 11.0337L13.3538 11.3903L13.8559 12.0528L14.0678 12.3971L14.2192 12.9609L13.7968 13.3093L13.5519 13.323L13.4157 13.1694L13.6055 12.7853L13.5781 12.5507L12.926 12.1873L12.6509 12.3093L12.333 12.5452L12.5147 12.9842L12.7183 13.2736L12.8214 13.6714L13.2122 13.6371L12.6866 14.0829L12.1927 14.3106L11.7071 14.3243L11.3976 14.3654L11.2903 14.4793L11.542 14.5616L11.747 14.5698L12.0813 14.8099L13.0319 15.0966L13.4859 15.46L13.9316 15.493L14.3787 16.1582L15.1532 16.3352L15.5949 17.0059L16.1809 17.1376L16.6871 17.3845L16.8344 17.619L16.9086 18.0443L16.9417 18.9427L17.0517 19.6094L17.0558 19.8192L17.0283 20.1333L16.8907 20.2869L16.705 20.2924L16.3405 19.8027L15.7833 19.287L15.1945 18.6725L15.0267 18.5641L14.8891 18.5545L14.5741 18.7616L13.6991 18.9221L13.2892 19.1471L13.1351 19.1964L13.0924 19.3144L13.285 19.4365L13.5203 19.7177V20.1004L13.7156 20.5654L13.9674 20.6847L14.2948 20.6751L14.4832 20.7615L14.5314 20.9467L14.7226 21.1621L14.8478 21.3226L14.8437 21.4364L13.9289 21.7395L13.7376 21.8781L13.5767 21.9494L13.3387 21.8054L13.3249 21.435L13.0112 21.2361L12.7237 21.0647L12.3785 20.992L12.0854 20.7355L11.8942 20.9426L12.0469 21.6613L12.3785 22.1551L12.9342 23.4774L13.186 24.2552L13.2368 24.631L13.1117 25.2551L13.3855 25.7173L13.5725 26.1919L13.3676 26.1741L13.1887 26.0068L12.8888 25.8093L12.3083 25.0507L12.1061 24.5775L11.8639 24.5405L11.443 24.6091L10.9835 25.62L10.9849 26.1974L10.7468 26.0603L10.5433 25.8806L10.568 25.2483L10.5474 24.9822L9.98889 24.118L9.73296 24.0206L9.61331 23.7285L9.40692 23.4157L9.14143 23.4747L8.92412 23.6009L8.86493 24.0728L8.84293 24.4952L8.68062 24.8121L8.08489 24.2099L7.48512 23.1647L7.47 22.5913L7.90881 22.066L7.85658 21.6902L7.44112 20.9467L6.84127 20.468L6.50566 20.3253L6.34738 19.8151L6.02689 19.5517L5.76685 19.4283L5.71596 19.2472L5.79439 19.1128L6.42446 18.5874L6.79316 17.7617L6.97612 17.7233L7.35304 17.9194L7.77673 17.8687L8.12343 17.3845L8.41781 17.1211L8.91447 17.1554L10.0357 17.8015L11.2407 18.1705L11.8419 18.4928L12.1831 18.8124L12.3634 18.8782L12.6494 18.9235L12.6371 18.6848L12.5463 18.4736L12.7843 18.3584L13.4295 18.3639L13.5464 18.2514L13.6661 18.0703L13.5327 17.8632L13.3194 17.7645L13.0911 17.737L12.9411 17.6712L12.6976 17.737L12.3193 17.5765L12.1225 17.4449L12.0084 17.3091L11.3495 17.0388L10.7248 16.5807L10.5832 16.8399L10.33 16.9798L9.97101 17.0004L8.96123 16.7096L8.34081 16.9318L8.00235 16.9895L7.74373 16.995L7.42592 17.0937L7.05866 17.1527L6.74085 16.7302L6.60743 16.4024L6.51389 16.3406L6.50977 16.6493L6.40792 16.8962L5.94158 17.0347L5.67331 16.8427L5.467 16.2625L5.20696 15.5232L4.74885 14.9251L4.37604 14.7687L4.34438 14.4395L4.37738 14.1761L4.8245 14.1103L5.52334 14.386L5.66785 14.3312L5.82461 14.2036L5.79439 13.9224L5.69262 13.6714L5.5 13.6604L5.36658 13.6892L4.93592 13.6371L4.38427 13.777L4.12842 13.6453L4.04311 13.4848L3.58088 13.0884L3.18196 12.5562L2.53534 12.201L2.113 11.1146L1.75807 10.64L1.37981 10.2998L1.46235 10.2944L1.60542 10.352L1.88058 10.5385L2.17219 10.5783L2.33173 10.4548L2.42392 10.341L2.48312 10.1545L2.50789 9.93637L2.556 9.86366L2.78027 9.88969L2.85181 9.83486L2.84904 9.6387L2.70462 9.39453L2.578 9.09415V8.95149L2.68396 8.89389L2.85869 8.76358L2.95223 8.60171L3.13788 8.52079L3.41169 8.50572L3.71708 8.43439L3.91515 8.26017L3.94412 8.08871L4.06788 7.61411L4.14908 7.38095L4.27973 7.16834L4.34992 6.88164L4.49023 6.61144L4.78184 6.49758L5.046 6.36455L5.2455 6.01615L5.35827 5.71848V5.53606L5.19042 5.23701L5.06666 4.94625L5.09965 4.56767L5.62377 4.53611L5.80673 4.50044L6.48777 4.47985L6.79862 4.27687L7.01323 4.29608L7.46169 4.47164L7.66254 4.33309L8.24862 4.05878L8.82781 3.26047L9.074 3.14113L9.63665 3.09173L9.81281 2.99985L10.0178 3.01768L10.6479 3.17951L11.0055 3.20421L11.4306 3.09311L11.8984 2.89834L12.0152 2.21389L12.1267 2.1151L12.417 2.08768L12.6371 2.09316L13.0608 2.14804L13.5643 2.16587L13.8876 1.84489L14.398 1.82158L14.6346 1.77494L15.0294 1.83941L15.4132 1.83669L15.9044 1.70223L16.3625 1.48142L16.7202 1.50059L16.8659 1.46083L16.9485 1.41419L17.0379 1.11653L17.7106 1.09736L17.939 1.12616L18.3146 1.13436L18.7053 0.97115L18.8222 0.98488L19.0189 1.42106L19.1221 1.54727L19.3339 1.66385L19.8072 1.99031L19.8925 1.90387L20.0906 1.79416L20.6574 1.94364L21.1981 2.19467L21.652 2.56367L22.1569 2.45667L22.7168 2.27559L23.0813 2.22347L23.4776 2.19744L23.7128 2.11924L24.2479 2.21389L24.7996 2.01497L25.0651 1.83669L25.1422 1.58427L25.0981 1.14123L24.9729 0.6968L24.8408 0.532207L24.7982 0.36213L24.8739 0.203021L24.9591 0.0932639L25.3196 0L25.7695 0.156389ZM19.7976 5.76788L19.3023 5.94754L18.7988 5.606L18.8029 5.40298L19.0684 4.99012L19.2143 4.86806L19.5843 4.90096L19.7948 5.18489L19.8444 5.31935L19.7756 5.54702L19.7976 5.76788ZM23.3179 6.71981L22.8805 6.85146L22.399 6.43588L22.864 6.26852L23.08 6.38924L23.2341 6.53186L23.3179 6.71981ZM22.3591 8.94462L22.2133 9.11336L22.1046 9.40416L22.0469 9.81975L21.8212 9.82937L21.6851 9.7457L21.6396 9.58797L21.6314 9.38905L21.5323 9.3973L21.4526 9.61262L21.3824 9.71003L21.1554 9.73059L20.9064 9.59755L20.9188 9.31086L20.8692 8.97757L20.8912 8.86095L21.5722 8.83215L21.7717 9.0777L22.0124 8.93504L22.1115 8.78141L22.4031 8.68539L22.3591 8.94462ZM1.66596 11.6893L1.74984 11.9678L1.26839 11.7949L0.917577 11.5467L0.627307 10.9308L0.00957208 10.2299L0 10.0255L0.235188 9.87052L0.742844 9.76077L0.947804 9.87463L1.07988 9.99259L1.12119 10.127L0.833611 10.3959L0.774499 10.5179L0.996001 10.7593L0.99323 10.8567L1.08542 11.3245L1.19408 11.5L1.47335 11.6413L1.66596 11.6893ZM26.1134 12.201L26.046 12.4945L26.5797 12.9815L26.7614 13.2901L26.8287 13.5891L26.7834 13.6755L26.5811 13.5137L26.4147 13.4615L26.4711 13.6755L26.6416 13.8593L26.339 13.9649L26.0363 13.9594L25.1504 13.703L24.9468 13.43L25.4764 13.0199L25.5837 12.8539L25.2095 12.8703L24.8092 13.3573L24.1682 13.1433L23.9714 12.9471L23.9274 12.8415L24.1805 12.4081L24.6317 12.4232L24.8698 12.3258L25.1655 12.1886L25.1683 11.9829L25.8726 11.9362L26.1134 12.201ZM16.3762 13.0487L16.196 13.1063L16.3762 12.7112L16.6954 12.5069L16.5757 12.8388L16.3762 13.0487ZM15.958 13.2654L15.786 13.4327L15.5191 13.36L15.2399 12.8004L15.958 13.2654ZM14.5521 14.0335L14.7708 14.5685L14.9758 14.7482L15.405 14.9608L15.6072 14.9882L16.3405 15.3723L17.192 15.4491L17.302 15.5602L17.4066 15.8551L17.58 16.0869L17.624 16.2666L17.5332 16.4668L17.6584 17.0772L17.873 17.6561L18.1963 17.9359L18.5993 18.0209L18.9831 18.0086L19.0794 18.1238L19.041 18.6286L18.8786 18.8261L18.7465 18.8741L18.6323 18.822L18.5278 18.7041L18.415 18.6478L18.1949 18.6382L18.0339 18.4352L17.6253 18.1567L17.5497 17.9894L17.5359 17.7329L17.3626 17.5436L17.203 17.1842L17.0517 17.0841L16.9678 16.903L16.9609 16.8262L16.3666 16.7727L15.8755 16.7714L15.4587 16.567L15.3293 16.0307L15.0817 15.8866L14.896 15.7344L14.7419 15.5232L14.3512 15.1349L13.9192 14.8099L13.501 14.5945L13.0581 14.4533L12.6976 14.6192L12.4871 14.5808L12.4445 14.4683L12.8929 14.2448L13.5092 13.8168L13.9426 13.6755L14.1531 13.6577L14.5521 14.0335ZM19.4138 14.7701L19.0066 14.8894L18.8979 14.8702L18.9887 14.7194L18.9956 14.6562L18.5883 14.3792L18.6365 14.0198L18.6846 13.9279L18.9873 14.1158L19.0533 14.4286L19.4138 14.7701ZM4.017 15.7549L3.86704 15.7934L3.73773 15.7673L3.62077 15.7893L3.50657 15.8825L3.519 15.4944L3.65242 15.0101L3.81473 14.7276L4.04454 14.5959L4.14219 14.8181L4.12431 15.6082L4.017 15.7549ZM24.8931 17.6657L24.5244 17.9414L24.1131 17.5422L24.0457 17.4133L24.3484 17.2514L24.4983 17.0032L24.3772 16.6973L23.9577 16.2447L23.937 15.9237L24.5795 15.7879L24.9578 16.0677L25.1504 16.0869L25.0761 16.3544L25.1091 16.4408L25.138 17.2501L24.9591 17.3639L24.9302 17.5861L24.8931 17.6657ZM4.2935 17.1225L4.10231 17.176L3.86015 16.7083L3.77216 16.3846L3.87392 16.3667L3.97023 16.4038L4.072 16.5258V16.6507L4.11331 16.7851L4.21919 16.9456L4.2935 17.1225ZM3.7295 16.8592L3.77761 17.4243L4.05 17.5299L4.41181 18.0374L4.38158 18.2967L4.30584 18.3858L3.70608 18.1458L3.563 18.2541L3.38827 18.2102L3.27961 17.9291L3.29196 17.8303L3.19431 17.6616L3.11177 17.5861L2.87658 17.8097L2.72796 17.8509V17.6465L2.94669 17.0841L3.04854 16.9895L3.2273 17.1746L3.37458 17.106L3.486 16.8015L3.49289 16.4984L3.54377 16.4092L3.7295 16.8592ZM15.0748 19.0895L14.9221 19.2088L14.7502 19.2033L14.6277 19.1594L14.5672 19.0634L14.6429 19.0182L14.7323 18.8247L14.8148 18.7726L14.9372 18.7973L15.0129 18.8755L15.0748 19.0895ZM20.6367 19.896L20.5225 20.2211L20.2213 19.8425L19.8911 19.5833L19.7673 19.3556L19.5664 19.2184L19.5114 18.9125L19.7549 18.7877L19.8595 18.7754L20.1099 19.1471L20.5006 19.1896L20.4702 19.4187L20.5941 19.7136L20.6367 19.896ZM4.79561 19.6752L5.20285 20.147L4.87404 20.0304L4.52466 20.3569L4.08165 19.9756L3.81616 19.5888L3.75696 19.4338L4.03489 19.0716L4.2935 19.4434L4.6072 19.5024L4.79561 19.6752ZM27.7133 19.645L28.1879 19.8055L28.32 19.7876L28.5442 19.8453L28.6034 20.1388L28.3063 20.1813L27.7917 20.4515L27.573 20.3926L27.3116 20.158L26.8961 20.1333L26.7737 20.0689L26.9966 19.7918L27.401 19.6518L27.7133 19.645ZM18.1825 20.7807L17.9239 21.0153L17.8798 20.6628L18.0463 20.291L18.2733 20.2677L18.3572 20.431L18.1825 20.7807ZM21.6575 20.671L21.5144 20.9837L21.2737 20.9357L20.8706 20.5997L20.7331 20.4474L20.6574 20.2979L20.8225 20.2801L21.0247 20.4392L21.5405 20.5229L21.6575 20.671ZM24.6427 21.0112L24.4626 21.0304L24.5176 20.837L24.8629 20.5009L25.3471 20.4845L25.7874 20.3157L25.8864 20.3103L25.6759 20.575L25.3209 20.8219L24.6427 21.0112ZM22.2243 21.5434L21.8542 21.5735L21.8762 21.2046L22.0138 21.1086L22.4568 21.2924L22.4348 21.4076L22.2243 21.5434ZM20.4497 21.184L20.4304 21.6847L20.3286 21.6805L20.2694 21.6037L20.2667 21.4117L20.3107 21.1099L20.4497 21.184ZM18.4907 21.9041L18.2705 22.0509L18.3435 21.7162L18.2347 21.542L18.331 21.3939L18.4728 21.2745L18.5388 21.398L18.6654 21.5982L18.4907 21.9041ZM18.829 22.9603L18.686 23.033L18.448 22.9274L18.5113 22.664L18.6764 22.5516L18.8511 22.638L18.8772 22.7573L18.829 22.9603ZM22.7773 23.7175L22.4334 23.8985L22.1982 23.6365L22.0674 23.2237L22.6975 22.6174L22.8488 22.6722L22.9397 22.8286L22.9259 23.3732L22.7773 23.7175ZM21.7469 23.2333L21.4401 23.6036L21.1843 23.5639L21.077 23.3937L21.2352 23.0453L21.5777 22.8478L21.7332 22.9L21.7181 23.1578L21.7469 23.2333ZM28.4672 23.7573L28.082 23.8231L28.1507 23.4418L27.9623 23.1414L28.2622 23.3101L28.4534 23.5131L28.547 23.5515L28.525 23.6736L28.4672 23.7573ZM19.5926 23.9383L19.5224 23.9589L19.4207 23.7573L19.4 23.5693L19.4399 23.4582L19.5733 23.4472L19.7549 23.8053L19.5926 23.9383ZM23.9866 24.5651L23.6454 24.605L23.5367 24.5693L23.7444 24.487L23.8889 24.3992L23.959 24.2936L24.3044 24.107L24.5313 23.8629L24.7776 24.0288L24.4694 24.1399L23.9866 24.5651ZM28.1962 24.8683L28.0765 24.8738L28.2196 24.6433L28.6267 24.3265L29.2197 24.0467L29.4164 24.0165L29.7507 24.1893L29.1372 24.476L28.9734 24.6269L28.5209 24.6598L28.1962 24.8683ZM22.1431 25.1221L22.0757 25.1975L21.7841 24.8957L21.6726 24.7202L21.8116 24.5734L22.2408 24.9163L22.1431 25.1221ZM18.8772 24.6927L18.8841 24.9739L18.8566 25.074L18.067 25.2098L18.1399 24.8875L18.188 24.786L18.4494 24.9355L18.5457 24.8587L18.5842 24.7709L18.8772 24.6927ZM31.7125 25.6954L31.6285 25.7708L31.4346 25.5527L31.4249 25.4389L31.6231 25.3086L31.7221 25.2784L31.7509 25.3676L31.7483 25.5582L31.7125 25.6954ZM26.3087 25.5459L26.0033 25.6597L25.8094 25.8998L25.5727 25.7297V25.4993L25.8314 25.5706L26.013 25.4403L25.9579 25.2935L26.1561 25.3621L26.3087 25.5459ZM22.5324 26.4649L22.3536 26.716L22.1005 26.6268L22.2036 26.5321L22.2642 26.4087L22.2711 26.2304L22.2023 26.1206L22.2491 26.0809L22.4747 26.2647L22.5324 26.4649ZM31.6451 28.6637L31.3671 28.7638L31.2708 28.7515L31.1553 28.532L31.3163 28.0026L31.1676 27.661L31.1581 27.517L31.3837 27.3167L31.5405 27.0163L31.9229 26.6913L32.9148 26.3058L33.1473 26.2701L33.1404 26.5719L32.8089 27.3346L32.5144 27.7159L32.5929 28.0204L32.1211 28.1054L31.6451 28.6637ZM13.1557 27.4292L13.1103 27.6349L12.7127 27.4937L12.6027 27.2811L12.5821 26.8092L12.6866 26.5788L12.7554 26.5061L12.9384 26.7722L13.3222 27.1603L13.1557 27.4292ZM29.0711 30.8543L28.9239 31.119L28.7739 30.8954L28.8386 30.6375L28.6653 30.2301L28.9941 29.6239L29.001 29.329L29.2527 29.1781L29.1908 29.6787L28.9982 30.0793L29.1977 30.4126L29.2926 30.7911L29.0711 30.8543ZM16.2386 30.5237L16.5028 30.558L16.8605 30.5525L16.9417 30.5237L17.17 30.248L17.4507 30.2425L17.5731 30.5141L17.2883 30.6389L17.2305 30.7102L17.2856 30.7678L17.4988 30.8817L17.7959 30.8392L17.8042 31.0531L17.8702 31.2273L18.016 31.3316L18.1756 31.3521L18.5264 31.322L18.8717 31.2534L19.2281 31.1162L19.5926 31.0463L20.6807 31.1162L21.0714 31.4125L21.8157 31.4482L22.5063 31.6046L22.8695 31.5017L23.4899 31.4056L23.589 31.5099L23.5092 32.1779L23.5477 32.3727L23.7265 32.466L23.9027 32.4207L24.12 32.2012L24.64 32.0325H25.1793L25.6346 31.5881L25.7681 31.562L25.6842 31.7801L25.6154 32.2931L25.5191 32.5935L25.475 32.8295L25.1711 32.9515L24.7129 32.9721L23.8751 32.92L23.0304 33.0036L21.4663 33.2286L19.8994 33.3438L19.6889 33.2684L19.6847 32.9707L19.6517 32.765L19.55 32.621L19.0657 32.4975L18.6034 32.2862L16.7917 31.9982L16.3638 31.8844L15.6705 31.9433L15.416 31.9351L15.2413 31.8322L15.1202 31.6539L15.0652 31.0874L15.1519 30.5264L15.3018 30.3783L15.3706 30.547L15.5481 30.6252L15.7132 30.4551L15.7117 30.1972L15.7957 29.9585L15.9264 30.0587L16.013 30.4263L16.2386 30.5237Z" fill="var(--fill-0, #71B219)" stroke="var(--stroke-0, white)" mask="url(#path-1-inside-1_0_246)"/>
</g>
</svg>
