<svg preserveAspectRatio="none" width="100%" height="100%" overflow="visible" style="display: block;" viewBox="0 0 33 33" fill="none" xmlns="http://www.w3.org/2000/svg"><g id="GR"><mask id="path-1-inside-1_0_246" fill="white"><path d="M26 0L26 0L26 0L26 1L27 1L27 1L27 1L27 2L27 2L27 2L26 3L26 3L26 3L26 4L26 4V4L26 4L26 4L25 5L25 5L25 5L25 5L25 5L24 5L23 4L22 4L22 4L21 4L21 4L20 4L19 4L19 4L19 4L18 4L18 5L17 5L17 5L16 5L16 6L16 6L16 6L16 6L16 7L16 7L17 7L18 7L18 8L18 8L18 8L17 8L17 7L16 7L16 7L16 7L16 7L16 8L16 8L17 8L17 9L17 9L17 9L16 9L16 8L15 8L14 8L15 8L15 8L16 9L16 9L15 9L14 9L14 8L14 8L13 7L13 7L12 6L12 6L13 6L12 6L12 6L12 6L12 7L12 7L11 8L11 8L11 9L12 10L13 11L13 11L13 11L14 12L14 12L14 13L14 13L14 13L13 13L14 13L14 13L13 12L13 12L12 12L12 13L13 13L13 14L13 14L13 14L12 14L12 14L11 14L11 14L12 15L12 15L12 15L13 15L14 16L14 16L14 16L15 16L16 17L16 17L17 17L17 18L17 18L17 19L17 20L17 20L17 20L17 20L17 20L16 20L16 19L15 19L15 19L15 19L15 19L14 19L13 19L13 19L13 19L13 19L14 20V20L14 21L14 21L14 21L14 21L14 21L15 21L15 21L15 21L14 22L14 22L14 22L13 22L13 21L13 21L13 21L12 21L12 21L12 21L12 22L12 22L13 24L13 24L13 25L13 25L13 26L14 26L13 26L13 26L13 26L12 25L12 25L12 24L11 25L11 26L11 26L11 26L10 26L11 25L10 25L10 24L10 24L10 24L9 23L9 24L9 24L9 24L9 24L9 25L8 24L8 23L8 23L8 22L8 22L7 21L7 20L6 20L6 20L6 20L6 19L6 19L6 19L6 19L7 18L7 18L7 18L8 18L8 17L8 17L9 17L10 18L11 18L12 18L12 19L12 19L13 19L13 19L12 18L13 18L13 18L14 18L14 18L14 18L13 18L13 18L13 18L13 18L12 18L12 17L12 17L11 17L11 17L11 17L10 17L10 17L9 17L8 17L8 17L8 17L7 17L7 17L7 17L7 16L6 16L6 17L6 17L6 17L6 17L6 16L5 16L5 15L4 15L4 14L4 14L5 14L6 14L6 14L6 14L6 14L6 14L6 14L5 14L5 14L4 14L4 14L4 14L4 13L3 13L2 12L2 11L2 11L1 10L2 10L2 10L2 10L2 11L2 10L2 10L2 10L2 10L3 10L3 10L3 10L3 10L3 9L3 9V9L3 9L3 9L3 9L3 8L3 8L4 8L4 8L4 8L4 8L4 7L4 7L4 7L4 7L5 6L5 6L5 6L5 6V6L5 5L5 5L5 5L6 4L6 4L6 4L7 4L7 4L8 4L8 4L8 4L9 3L9 3L10 3L10 3L10 3L11 3L11 3L11 3L12 3L12 2L12 2L12 2L13 2L13 2L14 2L14 2L14 2L15 2L15 2L15 2L16 2L16 2L17 2L17 2L17 1L17 1L18 1L18 1L18 1L19 1L19 1L19 1L19 2L19 2L20 2L20 2L20 2L21 2L21 2L22 3L22 2L23 2L23 2L24 2L24 2L24 2L25 2L25 2L25 2L25 1L25 1L25 0L25 0L25 0L25 0L25 0L26 0ZM20 6L19 6L19 6L19 5L19 5L19 5L20 5L20 5L20 5L20 6L20 6ZM23 7L23 7L22 6L23 6L23 6L23 6L23 7ZM22 9L22 9L22 9L22 10L22 10L22 10L22 10L22 9L22 9L22 10L21 10L21 10L21 10L21 9L21 9L21 9L22 9L22 9L22 9L22 9L22 9L22 9ZM2 12L2 12L1 12L1 12L1 11L0 10L0 10L0 10L1 10L1 10L1 10L1 10L1 10L1 10L1 11L1 11L1 11L1 12L2 12L2 12ZM26 12L26 12L27 13L27 13L27 14L27 14L27 14L26 14L26 14L27 14L26 14L26 14L25 14L25 13L26 13L26 13L25 13L25 13L24 13L24 13L24 13L24 12L25 12L25 12L25 12L25 12L26 12L26 12ZM16 13L16 13L16 13L17 12L17 13L16 13ZM16 13L16 13L16 13L15 13L16 13ZM15 14L15 15L15 15L15 15L16 15L16 15L17 15L17 16L17 16L18 16L18 16L18 16L18 17L18 18L18 18L19 18L19 18L19 18L19 19L19 19L19 19L19 19L18 19L18 19L18 19L18 18L18 18L18 18L18 18L17 18L17 17L17 17L17 17L17 17L16 17L16 17L16 17L15 16L15 16L15 16L15 16L14 15L14 15L14 15L13 14L13 15L12 15L12 14L13 14L14 14L14 14L14 14L15 14ZM19 15L19 15L19 15L19 15L19 15L19 14L19 14L19 14L19 14L19 14L19 15ZM4 16L4 16L4 16L4 16L4 16L4 16L4 15L4 15L4 15L4 15L4 16L4 16ZM25 18L24 18L24 18L24 17L24 17L24 17L24 17L24 16L24 16L25 16L25 16L25 16L25 16L25 16L25 17L25 17L25 18L25 18ZM4 17L4 17L4 17L4 16L4 16L4 16L4 16V17L4 17L4 17L4 17ZM4 17L4 17L4 18L4 18L4 18L4 18L4 18L4 18L3 18L3 18L3 18L3 18L3 18L3 18L3 18V18L3 17L3 17L3 17L3 17L4 17L4 16L4 16L4 17ZM15 19L15 19L15 19L15 19L15 19L15 19L15 19L15 19L15 19L15 19L15 19ZM21 20L20 20L20 20L20 20L20 19L20 19L20 19L20 19L20 19L20 19L20 19L20 19L21 20L21 20ZM5 20L5 20L5 20L4 20L4 20L4 20L4 19L4 19L4 19L5 20L5 20ZM28 20L28 20L28 20L28 20L29 20L28 20L28 20L28 20L27 20L27 20L27 20L27 20L27 20L28 20ZM18 21L18 21L18 21L18 20L18 20L18 20L18 21ZM22 21L22 21L21 21L21 21L21 20L21 20L21 20L21 20L22 20L22 21ZM25 21L24 21L24 21L25 20L25 20L26 20L26 20L26 21L25 21L25 21ZM22 22L22 22L22 21L22 21L22 21L22 21L22 22ZM20 21L20 22L20 22L20 22L20 21L20 21L20 21ZM18 22L18 22L18 22L18 22L18 21L18 21L18 21L19 22L18 22ZM19 23L19 23L18 23L18 23L19 23L19 23L19 23L19 23ZM23 24L22 24L22 24L22 23L23 23L23 23L23 23L23 23L23 24ZM22 23L21 24L21 24L21 23L21 23L22 23L22 23L22 23L22 23ZM28 24L28 24L28 23L28 23L28 23L28 24L28 24L28 24L28 24ZM20 24L20 24L19 24L19 24L19 24L20 23L20 24L20 24ZM24 25L24 25L24 25L24 24L24 24L24 24L24 24L24 24L25 24L24 24L24 25ZM28 25L28 25L28 25L29 24L29 24L29 24L30 24L29 24L29 25L28 25L28 25ZM22 25L22 25L22 25L22 25L22 25L22 25L22 25ZM19 25L19 25L19 25L18 25L18 25L18 25L18 25L18 25L19 25L19 25ZM32 26L32 26L31 26L31 25L32 25L32 25L32 25L32 26L32 26ZM26 26L26 26L26 26L26 26V26L26 26L26 25L26 25L26 25L26 26ZM22 26L22 27L22 27L22 26L22 26L22 26L22 26L22 26L22 26L22 26ZM32 29L31 29L31 29L31 28L31 28L31 28L31 28L31 27L32 27L32 27L33 26L33 26L33 27L33 27L32 28L33 28L32 28L32 29ZM13 27L13 28L13 28L13 27L13 27L13 27L13 26L13 27L13 27L13 27ZM29 31L29 31L29 31L29 31L29 30L29 30L29 29L29 29L29 30L29 30L29 30L29 31L29 31ZM16 30L16 31L17 31L17 30L17 30L18 30L18 30L17 31L17 31L17 31L18 31L18 31L18 31L18 31L18 31L18 31L18 31L19 31L19 31L20 31L21 31L21 31L22 31L22 32L23 32L24 31L24 32L24 32L24 32L24 32L24 32L24 32L25 32H25L26 32L26 32L26 32L26 32L26 33L26 33L25 33L25 33L24 33L23 33L22 33L20 33L20 33L20 33L20 33L20 33L19 32L19 32L17 32L16 32L16 32L15 32L15 32L15 32L15 31L15 30L15 30L15 30L16 31L16 30L16 30L16 30L16 30L16 30L16 30Z"/></mask><path d="M26 0L26 0L26 0L26 1L27 1L27 1L27 1L27 2L27 2L27 2L26 3L26 3L26 3L26 4L26 4V4L26 4L26 4L25 5L25 5L25 5L25 5L25 5L24 5L23 4L22 4L22 4L21 4L21 4L20 4L19 4L19 4L19 4L18 4L18 5L17 5L17 5L16 5L16 6L16 6L16 6L16 6L16 7L16 7L17 7L18 7L18 8L18 8L18 8L17 8L17 7L16 7L16 7L16 7L16 7L16 8L16 8L17 8L17 9L17 9L17 9L16 9L16 8L15 8L14 8L15 8L15 8L16 9L16 9L15 9L14 9L14 8L14 8L13 7L13 7L12 6L12 6L13 6L12 6L12 6L12 6L12 7L12 7L11 8L11 8L11 9L12 10L13 11L13 11L13 11L14 12L14 12L14 13L14 13L14 13L13 13L14 13L14 13L13 12L13 12L12 12L12 13L13 13L13 14L13 14L13 14L12 14L12 14L11 14L11 14L12 15L12 15L12 15L13 15L14 16L14 16L14 16L15 16L16 17L16 17L17 17L17 18L17 18L17 19L17 20L17 20L17 20L17 20L17 20L16 20L16 19L15 19L15 19L15 19L15 19L14 19L13 19L13 19L13 19L13 19L14 20V20L14 21L14 21L14 21L14 21L14 21L15 21L15 21L15 21L14 22L14 22L14 22L13 22L13 21L13 21L13 21L12 21L12 21L12 21L12 22L12 22L13 24L13 24L13 25L13 25L13 26L14 26L13 26L13 26L13 26L12 25L12 25L12 24L11 25L11 26L11 26L11 26L10 26L11 25L10 25L10 24L10 24L10 24L9 23L9 24L9 24L9 24L9 24L9 25L8 24L8 23L8 23L8 22L8 22L7 21L7 20L6 20L6 20L6 20L6 19L6 19L6 19L6 19L7 18L7 18L7 18L8 18L8 17L8 17L9 17L10 18L11 18L12 18L12 19L12 19L13 19L13 19L12 18L13 18L13 18L14 18L14 18L14 18L13 18L13 18L13 18L13 18L12 18L12 17L12 17L11 17L11 17L11 17L10 17L10 17L9 17L8 17L8 17L8 17L7 17L7 17L7 17L7 16L6 16L6 17L6 17L6 17L6 17L6 16L5 16L5 15L4 15L4 14L4 14L5 14L6 14L6 14L6 14L6 14L6 14L6 14L5 14L5 14L4 14L4 14L4 14L4 13L3 13L2 12L2 11L2 11L1 10L2 10L2 10L2 10L2 11L2 10L2 10L2 10L2 10L3 10L3 10L3 10L3 10L3 9L3 9V9L3 9L3 9L3 9L3 8L3 8L4 8L4 8L4 8L4 8L4 7L4 7L4 7L4 7L5 6L5 6L5 6L5 6V6L5 5L5 5L5 5L6 4L6 4L6 4L7 4L7 4L8 4L8 4L8 4L9 3L9 3L10 3L10 3L10 3L11 3L11 3L11 3L12 3L12 2L12 2L12 2L13 2L13 2L14 2L14 2L14 2L15 2L15 2L15 2L16 2L16 2L17 2L17 2L17 1L17 1L18 1L18 1L18 1L19 1L19 1L19 1L19 2L19 2L20 2L20 2L20 2L21 2L21 2L22 3L22 2L23 2L23 2L24 2L24 2L24 2L25 2L25 2L25 2L25 1L25 1L25 0L25 0L25 0L25 0L25 0L26 0ZM20 6L19 6L19 6L19 5L19 5L19 5L20 5L20 5L20 5L20 6L20 6ZM23 7L23 7L22 6L23 6L23 6L23 6L23 7ZM22 9L22 9L22 9L22 10L22 10L22 10L22 10L22 9L22 9L22 10L21 10L21 10L21 10L21 9L21 9L21 9L22 9L22 9L22 9L22 9L22 9L22 9ZM2 12L2 12L1 12L1 12L1 11L0 10L0 10L0 10L1 10L1 10L1 10L1 10L1 10L1 10L1 11L1 11L1 11L1 12L2 12L2 12ZM26 12L26 12L27 13L27 13L27 14L27 14L27 14L26 14L26 14L27 14L26 14L26 14L25 14L25 13L26 13L26 13L25 13L25 13L24 13L24 13L24 13L24 12L25 12L25 12L25 12L25 12L26 12L26 12ZM16 13L16 13L16 13L17 12L17 13L16 13ZM16 13L16 13L16 13L15 13L16 13ZM15 14L15 15L15 15L15 15L16 15L16 15L17 15L17 16L17 16L18 16L18 16L18 16L18 17L18 18L18 18L19 18L19 18L19 18L19 19L19 19L19 19L19 19L18 19L18 19L18 19L18 18L18 18L18 18L18 18L17 18L17 17L17 17L17 17L17 17L16 17L16 17L16 17L15 16L15 16L15 16L15 16L14 15L14 15L14 15L13 14L13 15L12 15L12 14L13 14L14 14L14 14L14 14L15 14ZM19 15L19 15L19 15L19 15L19 15L19 14L19 14L19 14L19 14L19 14L19 15ZM4 16L4 16L4 16L4 16L4 16L4 16L4 15L4 15L4 15L4 15L4 16L4 16ZM25 18L24 18L24 18L24 17L24 17L24 17L24 17L24 16L24 16L25 16L25 16L25 16L25 16L25 16L25 17L25 17L25 18L25 18ZM4 17L4 17L4 17L4 16L4 16L4 16L4 16V17L4 17L4 17L4 17ZM4 17L4 17L4 18L4 18L4 18L4 18L4 18L4 18L3 18L3 18L3 18L3 18L3 18L3 18L3 18V18L3 17L3 17L3 17L3 17L4 17L4 16L4 16L4 17ZM15 19L15 19L15 19L15 19L15 19L15 19L15 19L15 19L15 19L15 19L15 19ZM21 20L20 20L20 20L20 20L20 19L20 19L20 19L20 19L20 19L20 19L20 19L20 19L21 20L21 20ZM5 20L5 20L5 20L4 20L4 20L4 20L4 19L4 19L4 19L5 20L5 20ZM28 20L28 20L28 20L28 20L29 20L28 20L28 20L28 20L27 20L27 20L27 20L27 20L27 20L28 20ZM18 21L18 21L18 21L18 20L18 20L18 20L18 21ZM22 21L22 21L21 21L21 21L21 20L21 20L21 20L21 20L22 20L22 21ZM25 21L24 21L24 21L25 20L25 20L26 20L26 20L26 21L25 21L25 21ZM22 22L22 22L22 21L22 21L22 21L22 21L22 22ZM20 21L20 22L20 22L20 22L20 21L20 21L20 21ZM18 22L18 22L18 22L18 22L18 21L18 21L18 21L19 22L18 22ZM19 23L19 23L18 23L18 23L19 23L19 23L19 23L19 23ZM23 24L22 24L22 24L22 23L23 23L23 23L23 23L23 23L23 24ZM22 23L21 24L21 24L21 23L21 23L22 23L22 23L22 23L22 23ZM28 24L28 24L28 23L28 23L28 23L28 24L28 24L28 24L28 24ZM20 24L20 24L19 24L19 24L19 24L20 23L20 24L20 24ZM24 25L24 25L24 25L24 24L24 24L24 24L24 24L24 24L25 24L24 24L24 25ZM28 25L28 25L28 25L29 24L29 24L29 24L30 24L29 24L29 25L28 25L28 25ZM22 25L22 25L22 25L22 25L22 25L22 25L22 25ZM19 25L19 25L19 25L18 25L18 25L18 25L18 25L18 25L19 25L19 25ZM32 26L32 26L31 26L31 25L32 25L32 25L32 25L32 26L32 26ZM26 26L26 26L26 26L26 26V26L26 26L26 25L26 25L26 25L26 26ZM22 26L22 27L22 27L22 26L22 26L22 26L22 26L22 26L22 26L22 26ZM32 29L31 29L31 29L31 28L31 28L31 28L31 28L31 27L32 27L32 27L33 26L33 26L33 27L33 27L32 28L33 28L32 28L32 29ZM13 27L13 28L13 28L13 27L13 27L13 27L13 26L13 27L13 27L13 27ZM29 31L29 31L29 31L29 31L29 30L29 30L29 29L29 29L29 30L29 30L29 30L29 31L29 31ZM16 30L16 31L17 31L17 30L17 30L18 30L18 30L17 31L17 31L17 31L18 31L18 31L18 31L18 31L18 31L18 31L18 31L19 31L19 31L20 31L21 31L21 31L22 31L22 32L23 32L24 31L24 32L24 32L24 32L24 32L24 32L24 32L25 32H25L26 32L26 32L26 32L26 32L26 33L26 33L25 33L25 33L24 33L23 33L22 33L20 33L20 33L20 33L20 33L20 33L19 32L19 32L17 32L16 32L16 32L15 32L15 32L15 32L15 31L15 30L15 30L15 30L16 31L16 30L16 30L16 30L16 30L16 30L16 30Z" fill="var(--fill-0,#71B219)" stroke="var(--stroke-0,white)" mask="url(#path-1-inside-1_0_246)"/></g></svg>