<svg preserveAspectRatio="none" width="100%" height="100%" overflow="visible" style="display: block;" viewBox="0 0 45 31" fill="none" xmlns="http://www.w3.org/2000/svg"><path id="GS" d="M45 31L45 31L45 31L45 31ZM2 0L2 0L3 1L3 1L3 1L3 1L4 1L4 1L4 1L4 1L4 1L4 1L5 1L5 1L5 1L5 1H5L5 1L5 2L5 2L5 2L6 2L6 2L6 2L6 2L6 2L6 2L6 2L6 2L7 3L7 3L7 3L7 3L7 3L7 4L7 4L7 4L8 4L8 4H8L8 4L8 4L8 4L8 4L8 5L8 5L8 5L8 5L8 5L8 5L8 5L8 6L8 6L7 5L7 5L7 5L7 4L6 4L6 4L6 4L6 4L6 3L6 3L6 3L5 3L5 3L5 3L5 2L5 2L5 2L5 2L4 2L4 2L4 2L4 2L4 2L4 2L3 2L2 1L2 1L2 1L2 1L2 1L2 1L2 1L2 0L2 0L2 0Z" fill="var(--fill-0,#71B219)" stroke="var(--stroke-0,white)" stroke-width="0"/></svg>