<svg preserveAspectRatio="none" width="100%" height="100%" overflow="visible" style="display: block;" viewBox="0 0 45.3938 31.2068" fill="none" xmlns="http://www.w3.org/2000/svg">
<path id="GS" d="M45.1045 30.7246L44.9932 30.6533L45.0859 30.6514L45.1045 30.7246ZM2.29492 0.325195L2.37012 0.374023L2.89453 0.709961L2.94824 0.744141L3.0127 0.749023L3.42773 0.775391L3.74121 1.04102L3.89062 1.16797L4.0498 1.05273L4.27246 0.890625L4.42871 0.90332L4.54688 0.978516L4.58203 1L4.62207 1.00977L4.7959 1.05078L4.82324 1.05762H4.93848L5.16797 1.38672L5.05078 1.74512L4.91211 2.16504L5.34375 2.06641L5.60938 2.00586L5.86816 2.29297L5.96289 2.39844L6.10254 2.37109L6.26465 2.33984L6.38477 2.31641L6.43945 2.20703L6.47363 2.13965L6.64648 2.56445L6.67871 2.64258L6.75098 2.68555L6.9248 2.78809L7.09863 3.19727L7.26465 3.81348L7.29102 3.91211L7.37891 3.96484L7.5332 4.05469L7.59082 4.08887H7.6582L7.875 4.08984L7.84473 4.25781L7.83887 4.28809L7.84082 4.31934L7.87305 4.80469L7.87988 4.91602L7.9668 4.98438L8.15137 5.12988L8.1377 5.1416L8.12402 5.15527L7.88379 5.39648L7.4834 5.54883L7.46582 5.53809L7.0293 5.10742L6.81934 4.58301L6.81055 4.56152L6.79785 4.54199L6.29102 3.74414L6.19629 3.52051L6.18066 3.48438L6.15527 3.4541L6.02148 3.30078L5.9668 3.2373L5.88477 3.21973L5.44043 3.12598L5.10645 2.9668L4.82227 2.62598L4.72949 2.4082L4.71777 2.37988L4.69922 2.35547L4.56738 2.18066L4.49023 2.07812L4.3623 2.08008L3.97363 2.08789L3.75879 1.94727L3.48438 1.69824L3.46484 1.68066L3.44238 1.66699L2.13086 0.907227L2.05566 0.863281L1.96875 0.875977L1.57129 0.93457L1.50781 0.87793L1.5127 0.726562L1.69824 0.572266L2.02832 0.295898L2.27637 0.269531L2.29492 0.325195Z" fill="var(--fill-0, #71B219)" stroke="var(--stroke-0, white)" stroke-width="0.5"/>
</svg>
