<svg preserveAspectRatio="none" width="100%" height="100%" overflow="visible" style="display: block;" viewBox="0 0 15.4697 16.2241" fill="none" xmlns="http://www.w3.org/2000/svg">
<g id="GT">
<mask id="path-1-inside-1_0_183" fill="white">
<path d="M11.8667 0.00686502L11.8296 0.980736L11.7869 2.10823L11.7553 2.93534L11.7126 4.03818L11.67 5.1643L11.6108 6.69645L11.5737 7.68405L11.5916 7.70737L12.0524 7.65936L12.7334 7.70327L12.8999 7.70055L13.1076 7.78556L13.2685 7.81164L13.6152 8.03384L14.021 8.20257L14.2811 7.86238L14.1449 7.65802L14.0417 7.55374L14.0582 7.46186L15.4697 8.34247L15.3032 8.47826L14.9441 8.791L14.2921 9.32731L13.7088 9.80602L13.1461 10.2395L12.6412 10.6304L12.5807 10.6688L11.9396 10.9486L11.8323 11.0762L11.6948 11.6276L11.6315 11.7648L11.7484 12.0706L11.864 12.5425L11.8268 12.7908L11.3839 13.0939L11.1803 13.3669L11.0908 13.5438L11.011 13.4986L10.8735 13.4848L10.5571 13.5534L10.403 13.5685L10.2764 13.6467L10.2627 13.8168L10.3479 14.0925L10.3782 14.2338L10.2888 14.2996L9.8981 14.4656L9.74403 14.6288L9.59683 14.8812L9.42624 14.9882L9.24741 14.969L9.12083 15.006L8.84983 15.1967L8.44262 15.5643L8.22526 15.8372L8.21976 16.0403L8.26241 16.2241L6.77941 15.5766L6.28691 15.4655L4.20412 15.4792L3.31129 15.2241L2.29466 14.7331L1.60542 14.2859L0 13.0336L0.100423 12.9321L0.185711 12.6989L0.290269 12.4575L0.225595 12.179L0.187075 11.9541L0.306769 11.6249L0.295769 11.3793L0.350788 11.2271L0.526885 11.1283L0.619058 10.9404L0.118308 10.293L0.119672 10.1448L0.185711 9.96241L0.590153 9.26971L1.07304 8.44536L1.60404 7.53457L1.92458 6.98587L3.09254 6.98453L3.8657 6.98315H4.84793L5.9141 6.98177H6.61433L6.90322 6.97491L6.8537 6.6183L6.89222 6.22323L7.01877 5.86524V5.70751L6.80968 5.51274L6.4066 5.40026L6.18099 5.2288L6.1796 5.01205L6.08193 4.75009L5.88522 4.44146L5.47937 4.12596L4.8617 3.80226L4.33618 3.3688L3.90283 2.82425L3.53691 2.47446L3.2535 2.3277L3.18746 2.25089L4.01427 2.25637L4.79566 2.26324L4.80116 1.48138L4.80529 0.787343L4.81079 0L6.22775 0.00138138L7.92124 0.00276275L9.67662 0.00548365L11.0551 0.00686502H11.8667Z"/>
</mask>
<path d="M11.8667 0.00686502L11.8296 0.980736L11.7869 2.10823L11.7553 2.93534L11.7126 4.03818L11.67 5.1643L11.6108 6.69645L11.5737 7.68405L11.5916 7.70737L12.0524 7.65936L12.7334 7.70327L12.8999 7.70055L13.1076 7.78556L13.2685 7.81164L13.6152 8.03384L14.021 8.20257L14.2811 7.86238L14.1449 7.65802L14.0417 7.55374L14.0582 7.46186L15.4697 8.34247L15.3032 8.47826L14.9441 8.791L14.2921 9.32731L13.7088 9.80602L13.1461 10.2395L12.6412 10.6304L12.5807 10.6688L11.9396 10.9486L11.8323 11.0762L11.6948 11.6276L11.6315 11.7648L11.7484 12.0706L11.864 12.5425L11.8268 12.7908L11.3839 13.0939L11.1803 13.3669L11.0908 13.5438L11.011 13.4986L10.8735 13.4848L10.5571 13.5534L10.403 13.5685L10.2764 13.6467L10.2627 13.8168L10.3479 14.0925L10.3782 14.2338L10.2888 14.2996L9.8981 14.4656L9.74403 14.6288L9.59683 14.8812L9.42624 14.9882L9.24741 14.969L9.12083 15.006L8.84983 15.1967L8.44262 15.5643L8.22526 15.8372L8.21976 16.0403L8.26241 16.2241L6.77941 15.5766L6.28691 15.4655L4.20412 15.4792L3.31129 15.2241L2.29466 14.7331L1.60542 14.2859L0 13.0336L0.100423 12.9321L0.185711 12.6989L0.290269 12.4575L0.225595 12.179L0.187075 11.9541L0.306769 11.6249L0.295769 11.3793L0.350788 11.2271L0.526885 11.1283L0.619058 10.9404L0.118308 10.293L0.119672 10.1448L0.185711 9.96241L0.590153 9.26971L1.07304 8.44536L1.60404 7.53457L1.92458 6.98587L3.09254 6.98453L3.8657 6.98315H4.84793L5.9141 6.98177H6.61433L6.90322 6.97491L6.8537 6.6183L6.89222 6.22323L7.01877 5.86524V5.70751L6.80968 5.51274L6.4066 5.40026L6.18099 5.2288L6.1796 5.01205L6.08193 4.75009L5.88522 4.44146L5.47937 4.12596L4.8617 3.80226L4.33618 3.3688L3.90283 2.82425L3.53691 2.47446L3.2535 2.3277L3.18746 2.25089L4.01427 2.25637L4.79566 2.26324L4.80116 1.48138L4.80529 0.787343L4.81079 0L6.22775 0.00138138L7.92124 0.00276275L9.67662 0.00548365L11.0551 0.00686502H11.8667Z" fill="var(--fill-0, #71B219)" stroke="var(--stroke-0, white)" mask="url(#path-1-inside-1_0_183)"/>
</g>
</svg>
