<svg preserveAspectRatio="none" width="100%" height="100%" overflow="visible" style="display: block;" viewBox="0 0 16 16" fill="none" xmlns="http://www.w3.org/2000/svg"><g id="GT"><mask id="path-1-inside-1_0_183" fill="white"><path d="M12 0L12 1L12 2L12 3L12 4L12 5L12 7L12 8L12 8L12 8L13 8L13 8L13 8L13 8L14 8L14 8L14 8L14 8L14 8L14 8L16 8L15 8L15 9L14 9L14 10L13 10L13 11L13 11L12 11L12 11L12 12L12 12L12 12L12 12L12 13L11 13L11 13L11 14L11 14L11 14L11 14L10 14L10 14L10 14L10 14L10 14L10 14L10 14L10 15L10 15L9 15L9 15L9 15L9 15L8 16L8 16L8 16L8 16L7 16L6 16L4 16L3 15L2 15L2 14L0 13L0 13L0 13L0 12L0 12L0 12L0 12L0 11L0 11L0 11L1 11L0 10L0 10L0 10L1 9L1 8L2 8L2 7L3 7L4 7H5L6 7H7L7 7L7 7L7 6L7 6V6L7 6L6 5L6 5L6 5L6 5L6 4L6 4L5 4L4 3L4 3L4 2L3 2L3 2L4 2L5 2L5 2L5 1L5 0L6 0L8 0L10 0L11 0H12Z"/></mask><path d="M12 0L12 1L12 2L12 3L12 4L12 5L12 7L12 8L12 8L12 8L13 8L13 8L13 8L13 8L14 8L14 8L14 8L14 8L14 8L14 8L16 8L15 8L15 9L14 9L14 10L13 10L13 11L13 11L12 11L12 11L12 12L12 12L12 12L12 12L12 13L11 13L11 13L11 14L11 14L11 14L11 14L10 14L10 14L10 14L10 14L10 14L10 14L10 14L10 15L10 15L9 15L9 15L9 15L9 15L8 16L8 16L8 16L8 16L7 16L6 16L4 16L3 15L2 15L2 14L0 13L0 13L0 13L0 12L0 12L0 12L0 12L0 11L0 11L0 11L1 11L0 10L0 10L0 10L1 9L1 8L2 8L2 7L3 7L4 7H5L6 7H7L7 7L7 7L7 6L7 6V6L7 6L6 5L6 5L6 5L6 5L6 4L6 4L5 4L4 3L4 3L4 2L3 2L3 2L4 2L5 2L5 2L5 1L5 0L6 0L8 0L10 0L11 0H12Z" fill="var(--fill-0,#71B219)" stroke="var(--stroke-0,white)" mask="url(#path-1-inside-1_0_183)"/></g></svg>