<svg preserveAspectRatio="none" width="100%" height="100%" overflow="visible" style="display: block;" viewBox="0 0 1.1257 1.43475" fill="none" xmlns="http://www.w3.org/2000/svg">
<g id="GU">
<mask id="path-1-inside-1_0_140" fill="white">
<path d="M0.357366 1.42788L0.193783 1.43475L0.0522626 1.30306L0.00276832 1.2139L0 0.761264L0.544269 0.375818L0.722952 0L0.872777 0.030181L1.00473 0.0918825L1.1257 0.20436L0.50308 0.831212L0.357366 1.42788Z"/>
</mask>
<path d="M0.357366 1.42788L0.193783 1.43475L0.0522626 1.30306L0.00276832 1.2139L0 0.761264L0.544269 0.375818L0.722952 0L0.872777 0.030181L1.00473 0.0918825L1.1257 0.20436L0.50308 0.831212L0.357366 1.42788Z" fill="var(--fill-0, #71B219)"/>
<path d="M0.357366 1.42788L0.37833 1.92744L0.75391 1.91168L0.843091 1.5465L0.357366 1.42788ZM0.193783 1.43475L-0.146831 1.80078L0.00607018 1.94307L0.214748 1.93431L0.193783 1.43475ZM0.0522626 1.30306L-0.384899 1.54573L-0.346409 1.61507L-0.288351 1.66909L0.0522626 1.30306ZM0.00276832 1.2139L-0.497222 1.21695L-0.49644 1.34479L-0.434393 1.45657L0.00276832 1.2139ZM0 0.761264L-0.28897 0.353224L-0.501584 0.503796L-0.499991 0.764322L0 0.761264ZM0.544269 0.375818L0.833239 0.783858L0.939775 0.708411L0.995829 0.590512L0.544269 0.375818ZM0.722952 0L0.82169 -0.490154L0.439011 -0.567241L0.271392 -0.214694L0.722952 0ZM0.872777 0.030181L1.08456 -0.42275L1.03027 -0.448137L0.971515 -0.459973L0.872777 0.030181ZM1.00473 0.0918825L1.3452 -0.274287L1.28768 -0.327776L1.21652 -0.361049L1.00473 0.0918825ZM1.1257 0.20436L1.48045 0.556714L1.84462 0.190074L1.46617 -0.161809L1.1257 0.20436ZM0.50308 0.831212L0.148332 0.478858L0.0503427 0.577513L0.0173546 0.712592L0.50308 0.831212ZM0.357366 1.42788L0.336401 0.928323L0.172818 0.935188L0.193783 1.43475L0.214748 1.93431L0.37833 1.92744L0.357366 1.42788ZM0.193783 1.43475L0.534397 1.06871L0.392876 0.937021L0.0522626 1.30306L-0.288351 1.66909L-0.146831 1.80078L0.193783 1.43475ZM0.0522626 1.30306L0.489424 1.06038L0.43993 0.971223L0.00276832 1.2139L-0.434393 1.45657L-0.384899 1.54573L0.0522626 1.30306ZM0.00276832 1.2139L0.502759 1.21084L0.499991 0.758206L0 0.761264L-0.499991 0.764322L-0.497222 1.21695L0.00276832 1.2139ZM0 0.761264L0.28897 1.1693L0.833239 0.783858L0.544269 0.375818L0.2553 -0.0322217L-0.28897 0.353224L0 0.761264ZM0.544269 0.375818L0.995829 0.590512L1.17451 0.214694L0.722952 0L0.271392 -0.214694L0.0927095 0.161124L0.544269 0.375818ZM0.722952 0L0.624215 0.490154L0.77404 0.520335L0.872777 0.030181L0.971515 -0.459973L0.82169 -0.490154L0.722952 0ZM0.872777 0.030181L0.660992 0.483112L0.792949 0.544814L1.00473 0.0918825L1.21652 -0.361049L1.08456 -0.42275L0.872777 0.030181ZM1.00473 0.0918825L0.664264 0.458052L0.785231 0.570529L1.1257 0.20436L1.46617 -0.161809L1.3452 -0.274287L1.00473 0.0918825ZM1.1257 0.20436L0.770953 -0.147994L0.148332 0.478858L0.50308 0.831212L0.857829 1.18357L1.48045 0.556714L1.1257 0.20436ZM0.50308 0.831212L0.0173546 0.712592L-0.12836 1.30926L0.357366 1.42788L0.843091 1.5465L0.988806 0.949832L0.50308 0.831212Z" fill="var(--stroke-0, white)" mask="url(#path-1-inside-1_0_140)"/>
</g>
</svg>
