<svg preserveAspectRatio="none" width="100%" height="100%" overflow="visible" style="display: block;" viewBox="0 0 12 7" fill="none" xmlns="http://www.w3.org/2000/svg"><g id="GW"><mask id="path-1-inside-1_0_252" fill="white"><path d="M12 0L12 0L12 1L12 1L12 1L12 2L11 2L11 2L11 2L11 2L11 2L11 2L11 2L11 2L12 3L12 3L12 3L12 4L11 4L10 4L9 4L9 4L9 4L8 5L8 5L8 5L8 5L7 6L7 7L6 7L6 6L6 6L6 6L6 6L6 6L6 6L6 6L5 6L5 6L5 6L5 5L5 5L5 5L5 5L5 5L5 5L5 5L6 4L6 4L6 4L6 4L6 4L5 4L5 4L5 4L5 4L5 4L5 3L5 3L6 3L6 3L6 3L6 3L6 3L6 3L6 3L5 3L5 3L4 3L3 4L3 4L3 3L3 3L3 3L2 3L2 3L2 2L2 2L2 2L2 2L2 2L1 2L0 1L0 1L1 1L1 1L1 1L2 1L2 1L3 1L4 1L5 0L6 0L7 0L8 0L9 0L10 0L12 0ZM3 3L3 4L2 4L2 3L2 3L3 3L3 3ZM4 4L4 5L4 4L4 4L5 4L5 4L5 4L4 4ZM3 5L3 5L3 5L3 5L3 4L3 4L3 4L3 5ZM4 6V6L4 6L4 6L4 6L4 5L4 5L4 6L4 6L4 6L4 6ZM2 6L2 6L2 6L2 6L2 6L2 6L2 6L2 6L2 6L2 6L2 6L2 6L2 6ZM3 6L3 6L3 6L3 6L3 6L3 6L3 6L3 6L3 6L3 6Z"/></mask><path d="M12 0L12 0L12 1L12 1L12 1L12 2L11 2L11 2L11 2L11 2L11 2L11 2L11 2L11 2L12 3L12 3L12 3L12 4L11 4L10 4L9 4L9 4L9 4L8 5L8 5L8 5L8 5L7 6L7 7L6 7L6 6L6 6L6 6L6 6L6 6L6 6L6 6L5 6L5 6L5 6L5 5L5 5L5 5L5 5L5 5L5 5L5 5L6 4L6 4L6 4L6 4L6 4L5 4L5 4L5 4L5 4L5 4L5 3L5 3L6 3L6 3L6 3L6 3L6 3L6 3L6 3L5 3L5 3L4 3L3 4L3 4L3 3L3 3L3 3L2 3L2 3L2 2L2 2L2 2L2 2L2 2L1 2L0 1L0 1L1 1L1 1L1 1L2 1L2 1L3 1L4 1L5 0L6 0L7 0L8 0L9 0L10 0L12 0ZM3 3L3 4L2 4L2 3L2 3L3 3L3 3ZM4 4L4 5L4 4L4 4L5 4L5 4L5 4L4 4ZM3 5L3 5L3 5L3 5L3 4L3 4L3 4L3 5ZM4 6V6L4 6L4 6L4 6L4 5L4 5L4 6L4 6L4 6L4 6ZM2 6L2 6L2 6L2 6L2 6L2 6L2 6L2 6L2 6L2 6L2 6L2 6L2 6ZM3 6L3 6L3 6L3 6L3 6L3 6L3 6L3 6L3 6L3 6Z" fill="var(--fill-0,#71B219)" stroke="var(--stroke-0,white)" mask="url(#path-1-inside-1_0_252)"/></g></svg>