<svg preserveAspectRatio="none" width="100%" height="100%" overflow="visible" style="display: block;" viewBox="0 0 11.7319 6.80211" fill="none" xmlns="http://www.w3.org/2000/svg">
<g id="GW">
<mask id="path-1-inside-1_0_252" fill="white">
<path d="M11.5159 0.0274601L11.5035 0.344298L11.7319 0.792826L11.6989 1.12616L11.5999 1.44161L11.5132 1.56644L11.399 1.63915L11.0524 1.63643L10.9065 1.69951L10.6754 1.82296L10.6699 1.96834L10.8542 2.10689L11.0055 2.30029L11.1817 2.45253L11.4843 2.62813L11.5132 2.82291L11.5214 3.31396L11.5049 3.69803L10.6534 3.97648L9.99993 4.02583L9.44689 3.99565L9.20616 4.11227L8.72466 4.39893L8.13724 4.57315L7.83597 4.5855L7.69151 4.68973L7.46316 4.9874L6.8262 6.28773L6.61574 6.59909L6.44516 6.80211L6.24977 6.52638L6.40112 6.01615L6.23743 6.02301L5.91274 6.43588L5.75454 6.44822L5.77516 5.95989L5.59497 5.94205L5.38585 5.97634L5.0942 5.72124L5.06531 5.53057L5.0887 5.26447L5.26616 5.09439L5.24143 5.02306L5.06947 5.00247L4.87685 5.04776L4.75854 4.9668L4.95389 4.62117L5.63624 4.33175L5.97877 4.30156L6.33097 4.23572L6.13835 3.98607L5.72155 3.88732L5.38862 3.95589L5.22216 4.13559L5.01716 4.16577L4.67323 3.7419L4.67873 3.52929L4.8067 3.27692L5.00616 3.16306L5.7972 3.16582L6.09708 3.02316L6.21816 2.99708L6.33235 2.86816L6.30758 2.78176L6.17828 2.77766L5.88247 2.94635L4.93051 2.88327L4.62647 2.98474L4.09685 3.37294L3.44478 3.58693L2.9715 3.49639L3.12285 2.97653L3.05543 2.90658L2.90685 2.82014L2.2135 2.98612L1.68939 2.74881L1.48166 2.46216L1.51743 2.10141L1.76504 1.85724L1.80354 1.73518L1.54216 1.71186L1.0607 1.8641L0 1.2743L0.211887 1.23725L0.734658 1.299L1.14046 1.2249L1.42662 1.10008L1.81593 0.92862L2.1915 0.872402L3.36769 0.949215L4.38985 0.743474L5.14924 0.356646L5.85085 0L6.76016 0.00414413L7.73416 0.0082464L9.11951 0.01373L10.2173 0.0178323L11.5159 0.0274601ZM2.80231 3.12739L2.60147 3.6061L2.35381 3.55261L2.1805 3.26733L2.16123 3.14661L2.66473 3.10822L2.80231 3.12739ZM4.47377 4.4744L4.438 4.56491L4.21789 4.48809L4.53843 4.15891L4.74754 4.10131L4.74066 4.35368L4.5797 4.40718L4.47377 4.4744ZM3.12835 4.75281L2.94673 4.87492L2.75966 4.81732L2.65923 4.70756L2.67435 4.51141L2.88624 4.23434L3.07608 4.27L3.12835 4.75281ZM3.8107 5.72945V5.88994L3.64696 5.85976L3.59885 5.81174L3.6965 5.52233L3.83958 5.3934L4.01566 5.41399L4.06793 5.45238L4.03354 5.56347L3.9565 5.6554L3.8107 5.72945ZM2.30843 6.33847L1.99889 6.39607L1.85858 6.20267L1.83792 6.12724L1.99889 6.06278L2.07181 6.06002L2.19423 5.91874L2.34558 5.82547L2.41301 5.79529L2.49139 5.80216L2.54781 6.11217L2.4735 6.24244L2.30843 6.33847ZM3.15173 6.24797L3.11597 6.3563L2.88896 6.33985L2.93989 6.23013L2.89035 6.19857L2.955 5.86939L2.98939 5.81861L3.09947 5.94071L3.11458 5.99145L3.15173 6.24797Z"/>
</mask>
<path d="M11.5159 0.0274601L11.5035 0.344298L11.7319 0.792826L11.6989 1.12616L11.5999 1.44161L11.5132 1.56644L11.399 1.63915L11.0524 1.63643L10.9065 1.69951L10.6754 1.82296L10.6699 1.96834L10.8542 2.10689L11.0055 2.30029L11.1817 2.45253L11.4843 2.62813L11.5132 2.82291L11.5214 3.31396L11.5049 3.69803L10.6534 3.97648L9.99993 4.02583L9.44689 3.99565L9.20616 4.11227L8.72466 4.39893L8.13724 4.57315L7.83597 4.5855L7.69151 4.68973L7.46316 4.9874L6.8262 6.28773L6.61574 6.59909L6.44516 6.80211L6.24977 6.52638L6.40112 6.01615L6.23743 6.02301L5.91274 6.43588L5.75454 6.44822L5.77516 5.95989L5.59497 5.94205L5.38585 5.97634L5.0942 5.72124L5.06531 5.53057L5.0887 5.26447L5.26616 5.09439L5.24143 5.02306L5.06947 5.00247L4.87685 5.04776L4.75854 4.9668L4.95389 4.62117L5.63624 4.33175L5.97877 4.30156L6.33097 4.23572L6.13835 3.98607L5.72155 3.88732L5.38862 3.95589L5.22216 4.13559L5.01716 4.16577L4.67323 3.7419L4.67873 3.52929L4.8067 3.27692L5.00616 3.16306L5.7972 3.16582L6.09708 3.02316L6.21816 2.99708L6.33235 2.86816L6.30758 2.78176L6.17828 2.77766L5.88247 2.94635L4.93051 2.88327L4.62647 2.98474L4.09685 3.37294L3.44478 3.58693L2.9715 3.49639L3.12285 2.97653L3.05543 2.90658L2.90685 2.82014L2.2135 2.98612L1.68939 2.74881L1.48166 2.46216L1.51743 2.10141L1.76504 1.85724L1.80354 1.73518L1.54216 1.71186L1.0607 1.8641L0 1.2743L0.211887 1.23725L0.734658 1.299L1.14046 1.2249L1.42662 1.10008L1.81593 0.92862L2.1915 0.872402L3.36769 0.949215L4.38985 0.743474L5.14924 0.356646L5.85085 0L6.76016 0.00414413L7.73416 0.0082464L9.11951 0.01373L10.2173 0.0178323L11.5159 0.0274601ZM2.80231 3.12739L2.60147 3.6061L2.35381 3.55261L2.1805 3.26733L2.16123 3.14661L2.66473 3.10822L2.80231 3.12739ZM4.47377 4.4744L4.438 4.56491L4.21789 4.48809L4.53843 4.15891L4.74754 4.10131L4.74066 4.35368L4.5797 4.40718L4.47377 4.4744ZM3.12835 4.75281L2.94673 4.87492L2.75966 4.81732L2.65923 4.70756L2.67435 4.51141L2.88624 4.23434L3.07608 4.27L3.12835 4.75281ZM3.8107 5.72945V5.88994L3.64696 5.85976L3.59885 5.81174L3.6965 5.52233L3.83958 5.3934L4.01566 5.41399L4.06793 5.45238L4.03354 5.56347L3.9565 5.6554L3.8107 5.72945ZM2.30843 6.33847L1.99889 6.39607L1.85858 6.20267L1.83792 6.12724L1.99889 6.06278L2.07181 6.06002L2.19423 5.91874L2.34558 5.82547L2.41301 5.79529L2.49139 5.80216L2.54781 6.11217L2.4735 6.24244L2.30843 6.33847ZM3.15173 6.24797L3.11597 6.3563L2.88896 6.33985L2.93989 6.23013L2.89035 6.19857L2.955 5.86939L2.98939 5.81861L3.09947 5.94071L3.11458 5.99145L3.15173 6.24797Z" fill="var(--fill-0, #71B219)" stroke="var(--stroke-0, white)" mask="url(#path-1-inside-1_0_252)"/>
</g>
</svg>
