<svg preserveAspectRatio="none" width="100%" height="100%" overflow="visible" style="display: block;" viewBox="0 0 18.9488 28.2193" fill="none" xmlns="http://www.w3.org/2000/svg">
<g id="GY">
<mask id="path-1-inside-1_0_245" fill="white">
<path d="M16.2002 11.5645L15.9952 11.806L15.9581 11.9609L15.826 12.2339L15.7228 12.382L15.8727 12.7222L16.0433 12.7373L16.1094 12.7812L16.152 12.847L16.1424 12.9197L16.0764 12.9842L15.9126 13.0665L15.7572 13.2626L15.7723 13.4793L15.6747 13.5918L15.361 13.6522H14.7474L14.4475 13.6673L14.2068 13.7043L14.0486 13.8442L13.8477 13.943L13.6895 13.9649L13.5506 14.1282L13.4116 14.3586L13.4584 14.5177L13.6015 14.7276L13.6854 14.9429L13.5754 15.2927L13.4543 15.5629L13.3827 15.7687L13.285 16.1637L13.0498 16.5999L12.882 16.8468V17.117L12.9673 17.4984L13.4474 18.0553L13.607 18.3214L13.7377 18.7479L14.171 19.084L14.4448 19.3556L14.4186 19.7136L14.4558 19.8261L14.625 19.9166L14.8314 19.9852L15.0583 19.9797L15.2619 19.9495L15.3087 19.8988L15.7792 19.8919L15.8329 19.9825L15.8604 20.4982L15.8796 20.7081L15.991 20.7917L16.0585 20.9207L16.0626 21.0359L16.0832 21.3253L16.1534 21.4776L16.1424 21.7848L16.1906 21.8986L16.3212 21.9754L16.4849 22.1963L16.5468 22.2237L16.5785 22.3019L16.7188 22.616L16.7903 22.7107L16.8399 22.7244L16.8619 22.8341L16.9637 23.1277L17.0325 23.2003L17.1631 23.4157L17.2168 23.6516L17.3901 23.9177L17.5676 24.1043L17.6474 24.2977L17.8744 24.7243L18.0945 25.0247L18.3916 25.1029L18.6406 25.1454L18.7961 25.2606L18.9488 25.3854L18.7851 25.443L18.6379 25.5198L18.4329 25.4609L18.1495 25.4924L17.8551 25.5774L17.5827 25.6186L17.0696 25.4842L16.9141 25.465L16.8069 25.4074L16.595 25.1426L16.4932 25.1111L16.2208 25.2345L15.8892 25.321L15.7269 25.3045L15.5357 25.3936L15.3582 25.513L15.0198 26.0301L14.8451 26.2125L14.658 26.2962L14.2824 26.2935L13.8807 26.3127L13.5795 26.4375L13.2988 26.5006L13.1585 26.5088L13.1104 26.7928L13.0457 26.9244L12.9577 26.9999L12.7389 27.0218L12.5422 27.0122L12.4239 26.8943L12.2024 26.8353L12.0057 26.7928L11.8791 26.7255L11.7759 26.742L11.6906 26.8599L11.6232 26.9615L11.5641 27.148L11.2655 27.207L11.1376 27.3126L11.2119 27.6596L11.1775 27.7954L11.1156 27.901L10.7552 27.9216L10.4484 27.9148L10.2723 28.0423L10.0522 28.1918L9.91874 28.2193L9.76055 28.2111L9.55281 28.0368L9.35197 27.8242L8.84297 27.6748L8.33808 27.5513L8.00655 27.2125L7.92812 27.0465L7.77266 26.9724L7.3792 26.5705L7.16185 26.3127L6.92662 26.2427L6.65697 26.1357L6.66796 25.9478L6.65008 25.7681L6.53316 25.6941L6.37085 25.6461L6.31166 25.5445L6.3282 25.3086L6.35981 24.6982L6.31443 24.1153L5.95262 23.9136L5.79577 23.7751L5.52066 22.9123L5.39135 22.5241L5.38585 22.2347L5.47662 21.3733L5.57981 21.0002L5.86047 20.2527L6.02139 19.9989L6.03104 19.8096L6.01454 19.5668L5.93201 19.0867L6.40524 18.7836L6.60881 18.656L6.64324 18.453L6.89635 18.1965L7.00916 17.9524L7.1027 17.7603L7.07658 17.6589L6.9665 17.5999L6.83581 17.4174L6.56204 16.8907L6.463 16.7837L6.37908 16.6356L6.42174 16.4038L6.52904 16.15L6.51527 16.0444L6.35158 15.9086L6.01316 15.6809L5.7325 15.6644L5.51516 15.5821L5.196 15.5712L4.9415 15.5465L4.79566 15.4614L4.82593 15.3215L4.88919 15.2145L5.10381 14.9484L5.24689 14.6659L5.26616 14.3888L5.31016 14.0253L5.37208 13.7084L5.40508 13.3518L5.06804 13.1173L4.96073 12.9238L4.82181 12.7524H4.66773L4.43662 12.6797L4.07615 12.9047L3.79143 12.8635L3.59604 12.9485L3.14485 12.9307L2.85458 12.821L2.50512 12.8937L1.68658 11.9897L0.863923 11.0803L0.0536541 10.186L0 10.0639L0.338424 9.63732L0.641078 9.33145L0.892807 9.15727L1.0125 9.00499L0.920348 8.34661L0.925847 8.11069L0.80754 7.85279L0.723616 7.56475L0.824039 7.32335L0.946461 7.15599L1.10469 7.09015L1.48162 7.03255L1.7485 7.00785L1.84342 6.91182L1.9975 6.80073L2.20112 6.79386L2.59731 6.87206L2.77889 6.72668L3.10769 6.52914L3.84504 6.19033L4.01016 5.96813L4.12569 5.62522L4.11331 5.46201L4.03766 5.40164L3.8547 5.34538L3.57404 5.33718L3.34981 5.42634L3.11731 5.37695L2.92473 5.16572L2.91373 4.99012L3.02789 4.74323L2.96185 4.57864L2.5932 4.0574L2.59454 3.91336L2.86281 3.67882L3.01416 3.47994L3.22189 3.00257L3.38696 2.84346L3.90008 2.78724L4.03077 2.68573L4.29216 2.43336L4.68285 2.14528L5.24416 1.91484L5.40508 1.49649L5.5055 1.38129L5.95262 1.16182L6.03104 1.04386L6.02004 0.939587L5.30193 0L5.445 0.0631247L6.00077 0.677628L6.30893 0.810659L6.37358 0.813422L6.37635 0.654312L6.65974 0.720158L7.38885 1.14123L8.45778 1.83392L9.95862 3.14251L10.3851 3.64043L10.6726 3.87497L11.1184 4.44556L11.249 4.72268L11.2367 5.83234L10.8405 6.58126L10.7442 7.14502L10.7235 7.89532L10.4938 8.32464L10.7978 8.09148L10.8927 7.41523L11.1527 7.00375L11.4898 6.55246L11.9396 6.44408L12.4239 6.63613L12.8146 6.67042L13.1585 6.80349L13.8904 7.52499L14.6057 8.09558L14.8671 8.55235L15.6251 8.78141L16.0736 9.14216L16.2181 9.4549L16.3061 10.2697L16.1603 11.5014L16.2002 11.5645Z"/>
</mask>
<path d="M16.2002 11.5645L15.9952 11.806L15.9581 11.9609L15.826 12.2339L15.7228 12.382L15.8727 12.7222L16.0433 12.7373L16.1094 12.7812L16.152 12.847L16.1424 12.9197L16.0764 12.9842L15.9126 13.0665L15.7572 13.2626L15.7723 13.4793L15.6747 13.5918L15.361 13.6522H14.7474L14.4475 13.6673L14.2068 13.7043L14.0486 13.8442L13.8477 13.943L13.6895 13.9649L13.5506 14.1282L13.4116 14.3586L13.4584 14.5177L13.6015 14.7276L13.6854 14.9429L13.5754 15.2927L13.4543 15.5629L13.3827 15.7687L13.285 16.1637L13.0498 16.5999L12.882 16.8468V17.117L12.9673 17.4984L13.4474 18.0553L13.607 18.3214L13.7377 18.7479L14.171 19.084L14.4448 19.3556L14.4186 19.7136L14.4558 19.8261L14.625 19.9166L14.8314 19.9852L15.0583 19.9797L15.2619 19.9495L15.3087 19.8988L15.7792 19.8919L15.8329 19.9825L15.8604 20.4982L15.8796 20.7081L15.991 20.7917L16.0585 20.9207L16.0626 21.0359L16.0832 21.3253L16.1534 21.4776L16.1424 21.7848L16.1906 21.8986L16.3212 21.9754L16.4849 22.1963L16.5468 22.2237L16.5785 22.3019L16.7188 22.616L16.7903 22.7107L16.8399 22.7244L16.8619 22.8341L16.9637 23.1277L17.0325 23.2003L17.1631 23.4157L17.2168 23.6516L17.3901 23.9177L17.5676 24.1043L17.6474 24.2977L17.8744 24.7243L18.0945 25.0247L18.3916 25.1029L18.6406 25.1454L18.7961 25.2606L18.9488 25.3854L18.7851 25.443L18.6379 25.5198L18.4329 25.4609L18.1495 25.4924L17.8551 25.5774L17.5827 25.6186L17.0696 25.4842L16.9141 25.465L16.8069 25.4074L16.595 25.1426L16.4932 25.1111L16.2208 25.2345L15.8892 25.321L15.7269 25.3045L15.5357 25.3936L15.3582 25.513L15.0198 26.0301L14.8451 26.2125L14.658 26.2962L14.2824 26.2935L13.8807 26.3127L13.5795 26.4375L13.2988 26.5006L13.1585 26.5088L13.1104 26.7928L13.0457 26.9244L12.9577 26.9999L12.7389 27.0218L12.5422 27.0122L12.4239 26.8943L12.2024 26.8353L12.0057 26.7928L11.8791 26.7255L11.7759 26.742L11.6906 26.8599L11.6232 26.9615L11.5641 27.148L11.2655 27.207L11.1376 27.3126L11.2119 27.6596L11.1775 27.7954L11.1156 27.901L10.7552 27.9216L10.4484 27.9148L10.2723 28.0423L10.0522 28.1918L9.91874 28.2193L9.76055 28.2111L9.55281 28.0368L9.35197 27.8242L8.84297 27.6748L8.33808 27.5513L8.00655 27.2125L7.92812 27.0465L7.77266 26.9724L7.3792 26.5705L7.16185 26.3127L6.92662 26.2427L6.65697 26.1357L6.66796 25.9478L6.65008 25.7681L6.53316 25.6941L6.37085 25.6461L6.31166 25.5445L6.3282 25.3086L6.35981 24.6982L6.31443 24.1153L5.95262 23.9136L5.79577 23.7751L5.52066 22.9123L5.39135 22.5241L5.38585 22.2347L5.47662 21.3733L5.57981 21.0002L5.86047 20.2527L6.02139 19.9989L6.03104 19.8096L6.01454 19.5668L5.93201 19.0867L6.40524 18.7836L6.60881 18.656L6.64324 18.453L6.89635 18.1965L7.00916 17.9524L7.1027 17.7603L7.07658 17.6589L6.9665 17.5999L6.83581 17.4174L6.56204 16.8907L6.463 16.7837L6.37908 16.6356L6.42174 16.4038L6.52904 16.15L6.51527 16.0444L6.35158 15.9086L6.01316 15.6809L5.7325 15.6644L5.51516 15.5821L5.196 15.5712L4.9415 15.5465L4.79566 15.4614L4.82593 15.3215L4.88919 15.2145L5.10381 14.9484L5.24689 14.6659L5.26616 14.3888L5.31016 14.0253L5.37208 13.7084L5.40508 13.3518L5.06804 13.1173L4.96073 12.9238L4.82181 12.7524H4.66773L4.43662 12.6797L4.07615 12.9047L3.79143 12.8635L3.59604 12.9485L3.14485 12.9307L2.85458 12.821L2.50512 12.8937L1.68658 11.9897L0.863923 11.0803L0.0536541 10.186L0 10.0639L0.338424 9.63732L0.641078 9.33145L0.892807 9.15727L1.0125 9.00499L0.920348 8.34661L0.925847 8.11069L0.80754 7.85279L0.723616 7.56475L0.824039 7.32335L0.946461 7.15599L1.10469 7.09015L1.48162 7.03255L1.7485 7.00785L1.84342 6.91182L1.9975 6.80073L2.20112 6.79386L2.59731 6.87206L2.77889 6.72668L3.10769 6.52914L3.84504 6.19033L4.01016 5.96813L4.12569 5.62522L4.11331 5.46201L4.03766 5.40164L3.8547 5.34538L3.57404 5.33718L3.34981 5.42634L3.11731 5.37695L2.92473 5.16572L2.91373 4.99012L3.02789 4.74323L2.96185 4.57864L2.5932 4.0574L2.59454 3.91336L2.86281 3.67882L3.01416 3.47994L3.22189 3.00257L3.38696 2.84346L3.90008 2.78724L4.03077 2.68573L4.29216 2.43336L4.68285 2.14528L5.24416 1.91484L5.40508 1.49649L5.5055 1.38129L5.95262 1.16182L6.03104 1.04386L6.02004 0.939587L5.30193 0L5.445 0.0631247L6.00077 0.677628L6.30893 0.810659L6.37358 0.813422L6.37635 0.654312L6.65974 0.720158L7.38885 1.14123L8.45778 1.83392L9.95862 3.14251L10.3851 3.64043L10.6726 3.87497L11.1184 4.44556L11.249 4.72268L11.2367 5.83234L10.8405 6.58126L10.7442 7.14502L10.7235 7.89532L10.4938 8.32464L10.7978 8.09148L10.8927 7.41523L11.1527 7.00375L11.4898 6.55246L11.9396 6.44408L12.4239 6.63613L12.8146 6.67042L13.1585 6.80349L13.8904 7.52499L14.6057 8.09558L14.8671 8.55235L15.6251 8.78141L16.0736 9.14216L16.2181 9.4549L16.3061 10.2697L16.1603 11.5014L16.2002 11.5645Z" fill="var(--fill-0, #71B219)" stroke="var(--stroke-0, white)" mask="url(#path-1-inside-1_0_245)"/>
</g>
</svg>
