<svg preserveAspectRatio="none" width="100%" height="100%" overflow="visible" style="display: block;" viewBox="0 0 19 28" fill="none" xmlns="http://www.w3.org/2000/svg"><g id="GY"><mask id="path-1-inside-1_0_245" fill="white"><path d="M16 12L16 12L16 12L16 12L16 12L16 13L16 13L16 13L16 13L16 13L16 13L16 13L16 13L16 14L16 14L15 14H15L14 14L14 14L14 14L14 14L14 14L14 14L13 14L14 14L14 15L14 15L14 15L14 16L13 16L13 16L13 17L13 17V17L13 18L13 18L14 18L14 19L14 19L14 19L14 20L14 20L15 20L15 20L15 20L15 20L15 20L16 20L16 20L16 20L16 21L16 21L16 21L16 21L16 21L16 22L16 22L16 22L16 22L16 22L16 22L17 22L17 23L17 23L17 23L17 23L17 23L17 23L17 23L17 24L17 24L18 24L18 24L18 25L18 25L18 25L19 25L19 25L19 25L19 25L19 26L18 26L18 26L18 26L18 26L17 26L17 26L17 25L17 25L16 25L16 25L16 25L16 25L16 25L15 26L15 26L15 26L15 26L14 26L14 26L14 26L13 26L13 26L13 27L13 27L13 27L13 27L12 27L12 27L12 27L12 27L12 27L12 27L12 27L12 27L12 27L11 27L11 27L11 28L11 28L11 28L11 28L10 28L10 28L10 28L10 28L10 28L10 28L9 28L9 28L8 28L8 27L8 27L8 27L7 27L7 26L7 26L7 26L7 26L7 26L6 26L6 26L6 26L6 25L6 25L6 24L6 24L6 24L6 23L5 22L5 22L6 21L6 21L6 20L6 20L6 20L6 20L6 19L6 19L7 19L7 18L7 18L7 18L7 18L7 18L7 18L7 17L7 17L6 17L6 17L6 16L6 16L6 16L6 16L6 16L6 16L6 16L5 16L5 16L5 16L5 15L5 15L5 15L5 15L5 14L5 14L5 14L5 13L5 13L5 13L5 13H5L4 13L4 13L4 13L4 13L3 13L3 13L2 13L2 12L1 11L0 10L0 10L0 10L1 9L1 9L1 9L1 8L1 8L1 8L1 8L1 7L1 7L1 7L2 7L2 7L2 7L2 7L2 7L3 7L3 7L3 6L4 6L4 6L4 6L4 6L4 5L4 5L4 5L3 5L3 5L3 5L3 5L3 5L3 5L3 4L3 4L3 4L3 4L3 3L3 3L4 3L4 3L4 2L5 2L5 2L5 2L6 1L6 1L6 1L6 1L5 0L5 0L6 1L6 1L6 1L6 1L7 1L7 1L8 2L10 3L10 4L11 4L11 4L11 5L11 6L11 7L11 7L11 8L10 8L11 8L11 7L11 7L12 7L12 6L12 7L13 7L13 7L14 8L15 8L15 9L16 9L16 9L16 10L16 10L16 12L16 12Z"/></mask><path d="M16 12L16 12L16 12L16 12L16 12L16 13L16 13L16 13L16 13L16 13L16 13L16 13L16 13L16 14L16 14L15 14H15L14 14L14 14L14 14L14 14L14 14L14 14L13 14L14 14L14 15L14 15L14 15L14 16L13 16L13 16L13 17L13 17V17L13 18L13 18L14 18L14 19L14 19L14 19L14 20L14 20L15 20L15 20L15 20L15 20L15 20L16 20L16 20L16 20L16 21L16 21L16 21L16 21L16 21L16 22L16 22L16 22L16 22L16 22L16 22L17 22L17 23L17 23L17 23L17 23L17 23L17 23L17 23L17 24L17 24L18 24L18 24L18 25L18 25L18 25L19 25L19 25L19 25L19 25L19 26L18 26L18 26L18 26L18 26L17 26L17 26L17 25L17 25L16 25L16 25L16 25L16 25L16 25L15 26L15 26L15 26L15 26L14 26L14 26L14 26L13 26L13 26L13 27L13 27L13 27L13 27L12 27L12 27L12 27L12 27L12 27L12 27L12 27L12 27L12 27L11 27L11 27L11 28L11 28L11 28L11 28L10 28L10 28L10 28L10 28L10 28L10 28L9 28L9 28L8 28L8 27L8 27L8 27L7 27L7 26L7 26L7 26L7 26L7 26L6 26L6 26L6 26L6 25L6 25L6 24L6 24L6 24L6 23L5 22L5 22L6 21L6 21L6 20L6 20L6 20L6 20L6 19L6 19L7 19L7 18L7 18L7 18L7 18L7 18L7 18L7 17L7 17L6 17L6 17L6 16L6 16L6 16L6 16L6 16L6 16L6 16L5 16L5 16L5 16L5 15L5 15L5 15L5 15L5 14L5 14L5 14L5 13L5 13L5 13L5 13H5L4 13L4 13L4 13L4 13L3 13L3 13L2 13L2 12L1 11L0 10L0 10L0 10L1 9L1 9L1 9L1 8L1 8L1 8L1 8L1 7L1 7L1 7L2 7L2 7L2 7L2 7L2 7L3 7L3 7L3 6L4 6L4 6L4 6L4 6L4 5L4 5L4 5L3 5L3 5L3 5L3 5L3 5L3 5L3 4L3 4L3 4L3 4L3 3L3 3L4 3L4 3L4 2L5 2L5 2L5 2L6 1L6 1L6 1L6 1L5 0L5 0L6 1L6 1L6 1L6 1L7 1L7 1L8 2L10 3L10 4L11 4L11 4L11 5L11 6L11 7L11 7L11 8L10 8L11 8L11 7L11 7L12 7L12 6L12 7L13 7L13 7L14 8L15 8L15 9L16 9L16 9L16 10L16 10L16 12L16 12Z" fill="var(--fill-0,#71B219)" stroke="var(--stroke-0,white)" mask="url(#path-1-inside-1_0_245)"/></g></svg>