<svg preserveAspectRatio="none" width="100%" height="100%" overflow="visible" style="display: block;" viewBox="0 0 24 14" fill="none" xmlns="http://www.w3.org/2000/svg"><g id="HN"><mask id="path-1-inside-1_0_262" fill="white"><path d="M14 0L13 0L13 0L13 0L13 0L14 0L14 0L14 0ZM11 0L11 1L10 1L11 1L11 0L12 0L12 0L11 0ZM24 6L23 6L22 6L22 6L22 6L22 6L22 7L21 7L21 7L20 7L20 7L20 7L20 7L20 7L20 7L20 7L20 7L20 7L20 7L19 7L19 7L19 7L19 8L18 7L18 7L18 7L17 7L17 7L17 7L17 7L17 8L17 8L16 8L16 8L16 8L16 8L16 9L16 9L16 9L15 9L15 10L15 10L14 10L14 10L14 10L14 10L14 11L14 11L13 10L13 10L13 10L12 10L12 10L12 11L12 11L11 11L10 11L10 11L10 11L10 11L10 12L10 13L10 13L10 13L10 13L9 13L9 13L9 13L9 14L9 14L9 14L8 14L8 14L8 13L7 13L7 13L7 13L7 12L7 12L6 12L6 12L6 12L6 12L6 12L6 12L6 12L6 12L6 11L6 11L6 11L6 10L6 10L5 10L5 10L5 10L5 10L4 10L4 10L4 11L3 10L3 10L3 10L3 10L3 10L3 10L2 10L2 10L2 10L2 9L1 9L1 9L1 9L1 8L1 8L0 8L0 8L0 8L0 8L1 8L1 7L1 7L0 6L1 6L1 6L1 6L2 6L2 5L2 5L3 5L3 4L4 4L4 3L4 3L5 3L5 3L5 3L6 3L6 2L6 2L7 2L7 3L7 3L8 3L8 3L10 3L10 3L11 3L12 3L12 2L13 2L13 2L13 2L13 2L14 2L15 2L16 2L17 2L17 2L18 2L18 3L19 3L19 3L19 3L19 3L19 3L20 3L22 4L22 4L21 4L20 4L20 4L20 4L20 4L20 4L21 4L21 4L21 5L22 5L22 5L22 5L22 5L22 5L22 5L23 5L22 5L22 5L22 5L23 5L23 6L24 6L24 6Z"/></mask><path d="M14 0L13 0L13 0L13 0L13 0L14 0L14 0L14 0ZM11 0L11 1L10 1L11 1L11 0L12 0L12 0L11 0ZM24 6L23 6L22 6L22 6L22 6L22 6L22 7L21 7L21 7L20 7L20 7L20 7L20 7L20 7L20 7L20 7L20 7L20 7L20 7L19 7L19 7L19 7L19 8L18 7L18 7L18 7L17 7L17 7L17 7L17 7L17 8L17 8L16 8L16 8L16 8L16 8L16 9L16 9L16 9L15 9L15 10L15 10L14 10L14 10L14 10L14 10L14 11L14 11L13 10L13 10L13 10L12 10L12 10L12 11L12 11L11 11L10 11L10 11L10 11L10 11L10 12L10 13L10 13L10 13L10 13L9 13L9 13L9 13L9 14L9 14L9 14L8 14L8 14L8 13L7 13L7 13L7 13L7 12L7 12L6 12L6 12L6 12L6 12L6 12L6 12L6 12L6 12L6 11L6 11L6 11L6 10L6 10L5 10L5 10L5 10L5 10L4 10L4 10L4 11L3 10L3 10L3 10L3 10L3 10L3 10L2 10L2 10L2 10L2 9L1 9L1 9L1 9L1 8L1 8L0 8L0 8L0 8L0 8L1 8L1 7L1 7L0 6L1 6L1 6L1 6L2 6L2 5L2 5L3 5L3 4L4 4L4 3L4 3L5 3L5 3L5 3L6 3L6 2L6 2L7 2L7 3L7 3L8 3L8 3L10 3L10 3L11 3L12 3L12 2L13 2L13 2L13 2L13 2L14 2L15 2L16 2L17 2L17 2L18 2L18 3L19 3L19 3L19 3L19 3L19 3L20 3L22 4L22 4L21 4L20 4L20 4L20 4L20 4L20 4L21 4L21 4L21 5L22 5L22 5L22 5L22 5L22 5L22 5L23 5L22 5L22 5L22 5L23 5L23 6L24 6L24 6Z" fill="var(--fill-0,#71B219)" stroke="var(--stroke-0,white)" mask="url(#path-1-inside-1_0_262)"/></g></svg>