<svg preserveAspectRatio="none" width="100%" height="100%" overflow="visible" style="display: block;" viewBox="0 0 23.9522 13.9828" fill="none" xmlns="http://www.w3.org/2000/svg">
<g id="HN">
<mask id="path-1-inside-1_0_262" fill="white">
<path d="M13.4763 0.209844L13.1819 0.440282L13.1282 0.336051L13.27 0.122063L13.4474 0L13.6194 0.0123487L13.5781 0.104231L13.4763 0.209844ZM11.3564 0.541793L10.7373 0.853189L10.5433 0.847705L10.8267 0.607638L11.2848 0.401897L11.6728 0.300387L11.9905 0.344298L11.3564 0.541793ZM23.9522 6.04629L22.9576 5.98731L22.4885 6.10941L22.2835 6.3851L22.1074 6.50855L21.9602 6.47975L21.6617 6.58812L21.2118 6.83225L20.8074 6.92417L20.4456 6.86519L20.341 6.92417L20.3121 7.00509L20.2571 7.08328L20.1168 7.12443L19.9558 7.1025L19.7756 7.01605L19.6807 7.0531L19.6697 7.21221L19.572 7.25474L19.3877 7.17931L19.1799 7.23691L18.9488 7.42758L18.6242 7.46735L18.2059 7.35759L17.8827 7.15047L17.6529 6.84598L17.3778 6.76917L16.8963 6.9955L16.6954 7.26022L16.6514 7.4221L16.6982 7.56886L16.6101 7.66622L16.3859 7.71562L16.2153 7.89532L16.0997 8.20529L16.0764 8.44532L16.1465 8.61406L16.0351 8.7375L15.7421 8.81708L15.3968 9.08452L14.9978 9.53991L14.6016 9.85679L14.2068 10.0365L14.017 10.2367L14.0307 10.4562L14.0059 10.5248L13.9303 10.5508L13.8023 10.581L13.0416 10.1037L12.8228 9.77035L12.6344 9.82113L12.395 9.98982L12.058 10.3643L11.6975 10.8746L11.5228 10.9322L10.6217 10.8554L10.1457 10.9006L10.0481 10.9678L10.004 11.1544L10.0316 11.404L10.1623 12.3011L10.2352 12.6701L10.1636 12.7839L9.92151 12.8018L9.60647 12.8539L9.43451 13.0226L9.39324 13.1968L9.37674 13.4396L9.27768 13.6906L9.08372 13.8703L8.89112 13.9347L7.8167 13.9828L7.83595 13.5685L7.52643 13.3998L7.35033 13.0541L7.19626 12.8209L7.24716 12.681L7.23203 12.5151L6.79456 12.3861L6.38597 12.4863L6.15074 12.4204L5.97739 12.3326L6.27593 12.1283L6.29656 12.0035L6.20026 11.9143L6.10258 11.8539L6.13147 11.6221L6.19201 11.3478L6.35983 10.7072L6.29793 10.5947L6.02418 10.4013L5.67749 10.3821L5.29504 10.4425L5.11072 10.3437L4.94975 10.1229L4.67737 10.0173L4.1945 10.1928L3.68273 10.4576L3.52591 10.5536L3.3966 10.5412L3.33881 10.3424L3.31268 10.1078L3.28104 10.0502L3.00866 9.96651L2.69087 9.90615L2.52854 9.84168L2.37583 9.68257L1.99477 9.47545L1.9081 9.32182L1.39908 8.9707L1.29591 8.79648L1.17898 8.66894L0.934097 8.50706L0.742886 8.54549L0.0976731 8.34385L0 8.32602L0.0894234 8.14908L0.29304 7.87611L0.736001 7.57158L0.773156 7.32469L0.657598 6.85284L0.540655 6.54697L0.603944 6.4098L0.742886 5.85838L0.850194 5.73083L1.49125 5.451L1.5504 5.41257L2.05668 5.02168L2.61794 4.58822L3.20125 4.10951L3.85333 3.5732L4.21239 3.25909L4.37883 3.12329L4.75441 3.23439L5.05018 2.98063L5.22075 2.89558L5.62108 2.59243L5.74491 2.52662L6.41349 2.4018L6.73678 2.40452L7.02018 2.71315L7.24441 2.88185L7.66674 2.73785L8.0203 2.70628L9.48266 2.99298L10.0632 2.86678L11.1294 2.83936L11.6095 2.91069L12.2863 2.50603L12.7211 2.42373L13.2314 2.23444L13.164 2.03967L13.0416 1.95189L13.8202 2.0369L14.9799 2.44843L16.2153 2.37434L16.661 2.15214L16.9486 2.08906L18.2142 2.51151L18.5471 2.83659L18.8071 2.86816L19.0093 2.79406L19.0644 2.72688L18.8154 2.65555L18.7012 2.55404L19.6986 2.7543L21.575 4.28645L21.6135 4.41128L20.8115 3.95861L20.3878 3.99293L20.2763 4.0656L20.3011 4.31249L20.3396 4.42773L20.5212 4.44146L20.656 4.37423L20.9876 4.45515L21.2077 4.61978L21.4732 4.87216L21.6328 5.14513L21.8047 5.14923L21.974 4.98464L22.2931 4.96404L22.4995 5.14785L22.6467 5.13688L22.4417 4.85156L21.9588 4.56763L22.073 4.55528L23.1433 5.06417L23.4459 5.70337L23.6977 5.84741L23.9522 6.04629Z"/>
</mask>
<path d="M13.4763 0.209844L13.1819 0.440282L13.1282 0.336051L13.27 0.122063L13.4474 0L13.6194 0.0123487L13.5781 0.104231L13.4763 0.209844ZM11.3564 0.541793L10.7373 0.853189L10.5433 0.847705L10.8267 0.607638L11.2848 0.401897L11.6728 0.300387L11.9905 0.344298L11.3564 0.541793ZM23.9522 6.04629L22.9576 5.98731L22.4885 6.10941L22.2835 6.3851L22.1074 6.50855L21.9602 6.47975L21.6617 6.58812L21.2118 6.83225L20.8074 6.92417L20.4456 6.86519L20.341 6.92417L20.3121 7.00509L20.2571 7.08328L20.1168 7.12443L19.9558 7.1025L19.7756 7.01605L19.6807 7.0531L19.6697 7.21221L19.572 7.25474L19.3877 7.17931L19.1799 7.23691L18.9488 7.42758L18.6242 7.46735L18.2059 7.35759L17.8827 7.15047L17.6529 6.84598L17.3778 6.76917L16.8963 6.9955L16.6954 7.26022L16.6514 7.4221L16.6982 7.56886L16.6101 7.66622L16.3859 7.71562L16.2153 7.89532L16.0997 8.20529L16.0764 8.44532L16.1465 8.61406L16.0351 8.7375L15.7421 8.81708L15.3968 9.08452L14.9978 9.53991L14.6016 9.85679L14.2068 10.0365L14.017 10.2367L14.0307 10.4562L14.0059 10.5248L13.9303 10.5508L13.8023 10.581L13.0416 10.1037L12.8228 9.77035L12.6344 9.82113L12.395 9.98982L12.058 10.3643L11.6975 10.8746L11.5228 10.9322L10.6217 10.8554L10.1457 10.9006L10.0481 10.9678L10.004 11.1544L10.0316 11.404L10.1623 12.3011L10.2352 12.6701L10.1636 12.7839L9.92151 12.8018L9.60647 12.8539L9.43451 13.0226L9.39324 13.1968L9.37674 13.4396L9.27768 13.6906L9.08372 13.8703L8.89112 13.9347L7.8167 13.9828L7.83595 13.5685L7.52643 13.3998L7.35033 13.0541L7.19626 12.8209L7.24716 12.681L7.23203 12.5151L6.79456 12.3861L6.38597 12.4863L6.15074 12.4204L5.97739 12.3326L6.27593 12.1283L6.29656 12.0035L6.20026 11.9143L6.10258 11.8539L6.13147 11.6221L6.19201 11.3478L6.35983 10.7072L6.29793 10.5947L6.02418 10.4013L5.67749 10.3821L5.29504 10.4425L5.11072 10.3437L4.94975 10.1229L4.67737 10.0173L4.1945 10.1928L3.68273 10.4576L3.52591 10.5536L3.3966 10.5412L3.33881 10.3424L3.31268 10.1078L3.28104 10.0502L3.00866 9.96651L2.69087 9.90615L2.52854 9.84168L2.37583 9.68257L1.99477 9.47545L1.9081 9.32182L1.39908 8.9707L1.29591 8.79648L1.17898 8.66894L0.934097 8.50706L0.742886 8.54549L0.0976731 8.34385L0 8.32602L0.0894234 8.14908L0.29304 7.87611L0.736001 7.57158L0.773156 7.32469L0.657598 6.85284L0.540655 6.54697L0.603944 6.4098L0.742886 5.85838L0.850194 5.73083L1.49125 5.451L1.5504 5.41257L2.05668 5.02168L2.61794 4.58822L3.20125 4.10951L3.85333 3.5732L4.21239 3.25909L4.37883 3.12329L4.75441 3.23439L5.05018 2.98063L5.22075 2.89558L5.62108 2.59243L5.74491 2.52662L6.41349 2.4018L6.73678 2.40452L7.02018 2.71315L7.24441 2.88185L7.66674 2.73785L8.0203 2.70628L9.48266 2.99298L10.0632 2.86678L11.1294 2.83936L11.6095 2.91069L12.2863 2.50603L12.7211 2.42373L13.2314 2.23444L13.164 2.03967L13.0416 1.95189L13.8202 2.0369L14.9799 2.44843L16.2153 2.37434L16.661 2.15214L16.9486 2.08906L18.2142 2.51151L18.5471 2.83659L18.8071 2.86816L19.0093 2.79406L19.0644 2.72688L18.8154 2.65555L18.7012 2.55404L19.6986 2.7543L21.575 4.28645L21.6135 4.41128L20.8115 3.95861L20.3878 3.99293L20.2763 4.0656L20.3011 4.31249L20.3396 4.42773L20.5212 4.44146L20.656 4.37423L20.9876 4.45515L21.2077 4.61978L21.4732 4.87216L21.6328 5.14513L21.8047 5.14923L21.974 4.98464L22.2931 4.96404L22.4995 5.14785L22.6467 5.13688L22.4417 4.85156L21.9588 4.56763L22.073 4.55528L23.1433 5.06417L23.4459 5.70337L23.6977 5.84741L23.9522 6.04629Z" fill="var(--fill-0, #71B219)" stroke="var(--stroke-0, white)" mask="url(#path-1-inside-1_0_262)"/>
</g>
</svg>
