<svg preserveAspectRatio="none" width="100%" height="100%" overflow="visible" style="display: block;" viewBox="0 0 23 22" fill="none" xmlns="http://www.w3.org/2000/svg"><g id="HR"><mask id="path-1-inside-1_0_247" fill="white"><path d="M12 0L12 0L12 1L13 1L13 2L14 2L14 2L14 2L15 3L15 3L16 3L16 3L16 4L16 4L17 4L17 4L18 4L18 4L19 4L19 4L19 4L20 4L20 4L20 4L20 4L21 3H21L21 4L21 4L21 4L21 4L21 5L21 5L21 5L21 6L21 6L21 6L21 6L21 6L22 7L22 7L22 7L22 7L23 7L23 7L23 7L23 8L22 8L22 8L22 7L22 8L22 8L21 8L22 9L22 9L21 9L21 9L21 9L21 9L21 9L21 9L20 9L20 9L20 9L20 9L20 8L20 8L19 8L19 8L19 8L18 8L18 8L18 8L17 8L17 8L17 8L17 8L16 8L16 8L16 8L15 8L15 8L15 8L14 8L14 8L14 8L13 7L13 7L12 7L11 8L11 8L11 8L10 8L10 8L10 7L9 7L9 7L9 7L9 8L9 8L9 9L9 10L9 10L10 11L10 11L10 11L10 12L10 13L11 13L11 14L11 14L12 14L12 15L12 15L13 16L14 16L14 17L14 17L14 17L15 18L15 18L16 19L16 19L16 19L16 19L16 19L16 19L15 18L14 18L13 17L12 17L11 16L11 16L10 16L10 16L10 16L9 16L9 16L9 16L9 15L8 15L8 14L6 13L6 12L6 12L7 12L7 12L7 12L8 12L7 12L7 12L6 11L5 10L5 9L5 9L5 8L4 7L4 7L3 7L3 7L3 7L3 8L2 8L2 9L2 9L2 9L1 9L1 8L0 8L0 8L0 7L0 6L0 6L0 6L1 6L2 6L2 6V6L2 6L2 6L2 6L3 6L3 6L4 6L4 5L4 5L4 5L4 5L4 5L4 5L5 6L5 6L5 6L5 6L6 6L6 6L7 6L7 6L7 6L7 6L7 5L7 5L7 5L7 5L7 4L7 4L8 4L8 4L8 4L8 4L8 3L8 3L8 2L8 2L8 2L8 2L8 2L9 2L9 2L9 1L10 1L10 1L10 1L10 1L11 1L10 0L11 0L11 0L11 0L11 0L12 0ZM5 9L4 9L4 8L4 8L4 8L4 8L4 8L4 8L4 7L4 8L5 8L5 8L5 9ZM4 10L4 10L4 10L3 10L3 9L3 9L3 8L3 8L3 8L3 8L3 8L3 8L3 8L4 9L4 9L4 10L4 10L4 10ZM5 10L5 10L5 10L4 10L4 10L4 9L4 9L5 9L5 9L5 10ZM6 12L6 12L6 12L6 12L6 12L5 11L5 11L5 10L5 10L5 10L5 10L5 10L6 11L6 12L7 12L7 12L6 12ZM6 14L6 14L6 14L6 14L6 14L5 13L5 13L6 13L6 14ZM7 14L7 14L6 13L6 13L6 13L7 14ZM7 14L7 14L7 14L7 14L7 14L7 14ZM13 18L12 18L12 18L11 17L11 17L11 17L12 17L13 17L13 17L13 18L13 18ZM14 18L14 18L12 18L12 18L11 18L11 18L12 18L12 18L12 18L14 18L14 18ZM16 20L16 20L17 20L17 20L17 20L18 20L18 21L18 21L19 21L19 21L19 22L19 22L19 22L19 22L18 21L17 20L16 20L14 19L14 19L14 19L14 19L16 20L16 20ZM12 19L13 19L13 19L14 19L14 20L14 20L14 20L13 20L13 20L12 20L12 20L12 19L12 19ZM16 20L16 21L15 20L15 20L15 20L16 20Z"/></mask><path d="M12 0L12 0L12 1L13 1L13 2L14 2L14 2L14 2L15 3L15 3L16 3L16 3L16 4L16 4L17 4L17 4L18 4L18 4L19 4L19 4L19 4L20 4L20 4L20 4L20 4L21 3H21L21 4L21 4L21 4L21 4L21 5L21 5L21 5L21 6L21 6L21 6L21 6L21 6L22 7L22 7L22 7L22 7L23 7L23 7L23 7L23 8L22 8L22 8L22 7L22 8L22 8L21 8L22 9L22 9L21 9L21 9L21 9L21 9L21 9L21 9L20 9L20 9L20 9L20 9L20 8L20 8L19 8L19 8L19 8L18 8L18 8L18 8L17 8L17 8L17 8L17 8L16 8L16 8L16 8L15 8L15 8L15 8L14 8L14 8L14 8L13 7L13 7L12 7L11 8L11 8L11 8L10 8L10 8L10 7L9 7L9 7L9 7L9 8L9 8L9 9L9 10L9 10L10 11L10 11L10 11L10 12L10 13L11 13L11 14L11 14L12 14L12 15L12 15L13 16L14 16L14 17L14 17L14 17L15 18L15 18L16 19L16 19L16 19L16 19L16 19L16 19L15 18L14 18L13 17L12 17L11 16L11 16L10 16L10 16L10 16L9 16L9 16L9 16L9 15L8 15L8 14L6 13L6 12L6 12L7 12L7 12L7 12L8 12L7 12L7 12L6 11L5 10L5 9L5 9L5 8L4 7L4 7L3 7L3 7L3 7L3 8L2 8L2 9L2 9L2 9L1 9L1 8L0 8L0 8L0 7L0 6L0 6L0 6L1 6L2 6L2 6V6L2 6L2 6L2 6L3 6L3 6L4 6L4 5L4 5L4 5L4 5L4 5L4 5L5 6L5 6L5 6L5 6L6 6L6 6L7 6L7 6L7 6L7 6L7 5L7 5L7 5L7 5L7 4L7 4L8 4L8 4L8 4L8 4L8 3L8 3L8 2L8 2L8 2L8 2L8 2L9 2L9 2L9 1L10 1L10 1L10 1L10 1L11 1L10 0L11 0L11 0L11 0L11 0L12 0ZM5 9L4 9L4 8L4 8L4 8L4 8L4 8L4 8L4 7L4 8L5 8L5 8L5 9ZM4 10L4 10L4 10L3 10L3 9L3 9L3 8L3 8L3 8L3 8L3 8L3 8L3 8L4 9L4 9L4 10L4 10L4 10ZM5 10L5 10L5 10L4 10L4 10L4 9L4 9L5 9L5 9L5 10ZM6 12L6 12L6 12L6 12L6 12L5 11L5 11L5 10L5 10L5 10L5 10L5 10L6 11L6 12L7 12L7 12L6 12ZM6 14L6 14L6 14L6 14L6 14L5 13L5 13L6 13L6 14ZM7 14L7 14L6 13L6 13L6 13L7 14ZM7 14L7 14L7 14L7 14L7 14L7 14ZM13 18L12 18L12 18L11 17L11 17L11 17L12 17L13 17L13 17L13 18L13 18ZM14 18L14 18L12 18L12 18L11 18L11 18L12 18L12 18L12 18L14 18L14 18ZM16 20L16 20L17 20L17 20L17 20L18 20L18 21L18 21L19 21L19 21L19 22L19 22L19 22L19 22L18 21L17 20L16 20L14 19L14 19L14 19L14 19L16 20L16 20ZM12 19L13 19L13 19L14 19L14 20L14 20L14 20L13 20L13 20L12 20L12 20L12 19L12 19ZM16 20L16 21L15 20L15 20L15 20L16 20Z" fill="var(--fill-0,#71B219)" stroke="var(--stroke-0,white)" mask="url(#path-1-inside-1_0_247)"/></g></svg>