<svg preserveAspectRatio="none" width="100%" height="100%" overflow="visible" style="display: block;" viewBox="0 0 22.7265 22.0673" fill="none" xmlns="http://www.w3.org/2000/svg">
<g id="HR">
<mask id="path-1-inside-1_0_247" fill="white">
<path d="M11.5889 0.187909L11.7966 0.271587L12.4844 0.652889L12.9604 1.08225L13.2246 1.55819L13.5823 1.92581L14.0335 2.18643L14.3911 2.53893L14.6553 2.98336L15.0253 3.23301L15.5 3.2865L15.7999 3.43875L15.9264 3.68978L16.1851 3.91608L16.5744 4.1191L17.1783 4.23019L18.3367 4.25765L18.4398 4.26314L18.7012 4.32622L19.0066 4.24665L19.3794 4.08892L19.4991 3.99427L19.8898 3.4758L20.1057 3.52105L20.535 3.45796L20.795 3.34272H20.8142L20.7978 3.4758L20.7689 3.70762L20.5584 3.87083L20.7716 4.24803L20.9752 4.85981L20.861 5.16158L21 5.39612L21.3907 5.56481L21.4264 5.63204L21.3068 5.70199L21.2077 5.90091L21.1967 6.26299L21.5379 6.60591L22.2313 6.92689L22.4528 6.98039L22.538 7.10383L22.6536 7.18475L22.7224 7.28354L22.7265 7.41109L22.6756 7.49887L22.3468 7.52905L21.9726 7.52633L21.7057 7.37132L21.6809 7.48518L21.6768 7.61411L21.4182 7.6923L21.5613 8.57973L21.5035 8.83487L21.4086 8.92131L21.3206 8.88564L21.2118 8.87602L21.1582 8.95969L21.2036 9.14898L20.9491 9.17092L20.5446 9.07355L20.3589 8.90209L20.3272 8.72787L20.3246 8.56466L20.1952 8.29718L19.8733 8.02011L19.2006 7.97486L18.9516 7.88708L18.6943 7.78695L18.4137 7.71147L18.1551 7.71834L17.8428 7.79243L17.298 7.67032L17.1136 7.83358L16.8275 8.02149L16.5895 8.01738L16.1163 7.58116L15.9746 7.55374L15.5605 7.77594L15.3913 7.78829L15.2619 7.71834L14.7021 7.55098L14.4489 7.51536L14.2632 7.59489L13.9344 7.50983L13.1365 6.93786L12.6426 7.3727L11.6384 7.26433L11.3399 7.56199L10.9987 8.12572L10.7222 8.39458L10.4814 8.29856L10.1967 8.05029L9.69871 7.41247L9.44689 7.29723L9.15805 7.26981L8.90624 7.34114L8.77147 7.47007L8.66828 8.40145L8.57751 9.22031L8.57197 9.70999L9.12497 10.1627L9.77847 10.9404L9.98755 11.0295L10.0921 11.2833L10.2448 11.9376L10.4168 12.6714L10.7484 13.157L11.0469 13.5027L11.4114 13.8072L11.8695 14.2831L12.2437 14.8057L12.3428 14.9978L13.0705 15.6863L13.7762 16.3873L14.4063 16.6328L14.5053 16.7618L14.5109 17.2994L14.5796 17.5011L15.0005 18.0634L15.8604 18.8851L15.9594 19.0743L15.9883 19.2143L15.9333 19.3213L15.7077 19.4338L15.5233 19.3089L14.7227 18.5079L13.9482 18.0017L13.0746 17.047L11.9052 16.6684L11.1087 16.2487L10.6259 16.3118L10.0935 16.4435L9.7647 16.4476L9.53086 16.3722L9.36578 16.1116L9.39055 15.9099L9.36158 15.6479L8.89524 15.2268L8.25827 14.8263L7.65574 14.3078L6.44512 12.9032L6.20162 12.4492L6.43966 12.3628L6.61985 12.371L6.82347 12.2778L7.15362 12.2764L7.54431 12.3683L7.19905 12.0665L6.76847 11.7703L5.65416 10.5906L5.32124 10.031L5.2827 9.42744L5.36524 8.59894L5.16439 8.00365L4.30458 7.23142L3.98954 6.824L3.35535 6.58126L3.07054 6.60457L2.90001 6.90634L2.77616 7.57568L2.2135 8.45629L2.02643 8.83763L1.73204 9.33279L1.47612 9.36707L1.32615 9.3232L0.869464 8.48923L0.433347 7.85551L0.372808 7.55513L0.332924 7.18475L0 5.81723L0.233928 5.62518L0.378349 5.84465L1.39501 6.10937L1.61508 5.99279L1.7485 5.81308V5.69927L1.83524 5.66632L2.19285 5.83916L2.48454 5.7994L2.955 5.79115L3.2907 5.81995L3.51354 5.68692L3.81347 5.19724L3.92489 4.92289L4.05974 4.85705L4.14774 4.88999L4.21239 5.11628L4.37058 5.32755L4.69528 5.67181L4.92501 5.83778L5.13274 5.89676L5.33635 5.75825L5.54686 5.71844L6.14939 5.98731L6.65839 6.03804L7.03397 5.89814L6.98443 5.70475L6.84681 5.48938L6.81793 5.28088L6.8427 5.09983L7.1014 4.92013L7.08897 4.8406L6.7767 4.52376L6.79181 4.44142L7.47555 4.08343L8.13451 3.88318L8.24039 3.72817L8.30093 3.49501L8.32981 3.05745L8.29404 2.69942L8.0272 2.36337L8.01066 2.19329L8.07397 2.01635L8.17851 1.85586L8.44266 1.78725L8.75216 1.67205L8.99709 1.53898L9.32724 1.42926L9.5872 1.27564L9.8417 0.909406L9.99578 0.849044L10.4622 0.90116L10.5626 0.810659L10.498 0.283936L10.5819 0.149482L10.7469 0.0740502L10.824 0L11.2353 0.0575992L11.5889 0.187909ZM5.00343 8.56056L4.52743 8.67714L4.30047 8.46863L4.24127 8.29718L3.84924 8.24234L3.61262 8.00504L3.56443 7.89942L3.90012 7.63742L4.07897 7.21359L4.30593 7.46869L4.58108 7.9474L4.72827 8.08047L5.00343 8.56056ZM3.75839 10.2751L3.72816 10.4836L3.49432 10.2189L3.37601 9.74432L3.0802 8.9748L3.04166 8.75805L3.19439 8.54411L3.18616 8.32598L2.977 7.64839L3.15174 7.53729L3.25627 7.52356L3.29893 7.99407L3.39389 8.26427L3.67862 8.59622L3.62085 9.1435L3.67862 9.92126L3.73639 10.0941L3.75839 10.2751ZM5.08462 9.74155L5.18228 9.98024L4.81904 9.76487L4.493 9.68257L4.42423 9.5207L4.471 9.38767L4.5412 9.25874L4.78747 9.27657L4.82458 9.40274L5.08462 9.74155ZM6.46301 12.0199L6.36401 12.1626L6.11362 11.9006L5.88389 11.714L5.72016 11.4918L5.39824 11.2147L5.28958 10.8978L4.80947 10.2504L4.73793 10.0749L4.97732 10.3368L5.17674 10.5014L5.34181 10.5412L5.76004 10.9541L6.17139 11.4836L6.66116 11.9431L6.55931 11.9568L6.46301 12.0199ZM6.46443 14.2296L6.51943 14.3078L6.51397 14.3613L6.31304 14.2859L6.25947 14.3106L5.31435 13.146L5.2125 12.9183L5.55097 13.1899L6.46443 14.2296ZM6.62674 13.4835L6.68728 13.6714L6.20582 13.3175L6.02277 13.0802L5.98977 12.9732L6.62674 13.4835ZM7.16874 13.9553L7.42324 14.3517L7.17974 14.2694L6.92666 14.0252L6.77804 13.7591L7.16874 13.9553ZM12.6275 17.6807L12.0181 17.6945L11.4884 17.5984L11.2298 17.4352L11.249 17.2967L11.3289 17.0662L11.919 17.0937L12.8174 17.2569L13.0374 17.4476L12.9687 17.5354L12.6275 17.6807ZM14.2055 18.4434L13.9358 18.4983L12.2176 18.4571L11.7182 18.3474L11.1624 18.0662L11.0496 17.9798L11.6082 17.8975L12.1282 17.9798L12.2877 18.1842L13.6923 18.3474L14.2055 18.4434ZM16.0337 19.6436L16.3144 19.5476L16.5524 19.6176L16.7037 19.9166L17.0022 20.1141L17.4879 20.4597L17.7946 20.7245L18.4893 21.1991L18.6544 21.2649L19.0011 21.4062L19.008 21.5982L19.1566 21.8163L19.3134 22.0673L18.6007 21.5735L17.9363 21.0207L16.6363 20.1676L15.7146 19.9605L14.4531 19.2733L13.6317 19.0291L13.9454 18.9729L14.3059 18.9715L16.2511 19.8891L16.0337 19.6436ZM12.1089 19.1224L12.8229 19.2692L13.3457 19.2019L13.8189 19.2925L14.1133 19.4584L14.1834 19.5407L13.8024 19.5517L13.3704 19.4845L12.8807 19.6532L12.4487 19.5641L12.2849 19.4529L12.1694 19.3158L12.1089 19.1224ZM15.804 20.313L16.3309 20.671L14.786 20.2005L14.9607 20.158L15.1244 20.1484L15.804 20.313Z"/>
</mask>
<path d="M11.5889 0.187909L11.7966 0.271587L12.4844 0.652889L12.9604 1.08225L13.2246 1.55819L13.5823 1.92581L14.0335 2.18643L14.3911 2.53893L14.6553 2.98336L15.0253 3.23301L15.5 3.2865L15.7999 3.43875L15.9264 3.68978L16.1851 3.91608L16.5744 4.1191L17.1783 4.23019L18.3367 4.25765L18.4398 4.26314L18.7012 4.32622L19.0066 4.24665L19.3794 4.08892L19.4991 3.99427L19.8898 3.4758L20.1057 3.52105L20.535 3.45796L20.795 3.34272H20.8142L20.7978 3.4758L20.7689 3.70762L20.5584 3.87083L20.7716 4.24803L20.9752 4.85981L20.861 5.16158L21 5.39612L21.3907 5.56481L21.4264 5.63204L21.3068 5.70199L21.2077 5.90091L21.1967 6.26299L21.5379 6.60591L22.2313 6.92689L22.4528 6.98039L22.538 7.10383L22.6536 7.18475L22.7224 7.28354L22.7265 7.41109L22.6756 7.49887L22.3468 7.52905L21.9726 7.52633L21.7057 7.37132L21.6809 7.48518L21.6768 7.61411L21.4182 7.6923L21.5613 8.57973L21.5035 8.83487L21.4086 8.92131L21.3206 8.88564L21.2118 8.87602L21.1582 8.95969L21.2036 9.14898L20.9491 9.17092L20.5446 9.07355L20.3589 8.90209L20.3272 8.72787L20.3246 8.56466L20.1952 8.29718L19.8733 8.02011L19.2006 7.97486L18.9516 7.88708L18.6943 7.78695L18.4137 7.71147L18.1551 7.71834L17.8428 7.79243L17.298 7.67032L17.1136 7.83358L16.8275 8.02149L16.5895 8.01738L16.1163 7.58116L15.9746 7.55374L15.5605 7.77594L15.3913 7.78829L15.2619 7.71834L14.7021 7.55098L14.4489 7.51536L14.2632 7.59489L13.9344 7.50983L13.1365 6.93786L12.6426 7.3727L11.6384 7.26433L11.3399 7.56199L10.9987 8.12572L10.7222 8.39458L10.4814 8.29856L10.1967 8.05029L9.69871 7.41247L9.44689 7.29723L9.15805 7.26981L8.90624 7.34114L8.77147 7.47007L8.66828 8.40145L8.57751 9.22031L8.57197 9.70999L9.12497 10.1627L9.77847 10.9404L9.98755 11.0295L10.0921 11.2833L10.2448 11.9376L10.4168 12.6714L10.7484 13.157L11.0469 13.5027L11.4114 13.8072L11.8695 14.2831L12.2437 14.8057L12.3428 14.9978L13.0705 15.6863L13.7762 16.3873L14.4063 16.6328L14.5053 16.7618L14.5109 17.2994L14.5796 17.5011L15.0005 18.0634L15.8604 18.8851L15.9594 19.0743L15.9883 19.2143L15.9333 19.3213L15.7077 19.4338L15.5233 19.3089L14.7227 18.5079L13.9482 18.0017L13.0746 17.047L11.9052 16.6684L11.1087 16.2487L10.6259 16.3118L10.0935 16.4435L9.7647 16.4476L9.53086 16.3722L9.36578 16.1116L9.39055 15.9099L9.36158 15.6479L8.89524 15.2268L8.25827 14.8263L7.65574 14.3078L6.44512 12.9032L6.20162 12.4492L6.43966 12.3628L6.61985 12.371L6.82347 12.2778L7.15362 12.2764L7.54431 12.3683L7.19905 12.0665L6.76847 11.7703L5.65416 10.5906L5.32124 10.031L5.2827 9.42744L5.36524 8.59894L5.16439 8.00365L4.30458 7.23142L3.98954 6.824L3.35535 6.58126L3.07054 6.60457L2.90001 6.90634L2.77616 7.57568L2.2135 8.45629L2.02643 8.83763L1.73204 9.33279L1.47612 9.36707L1.32615 9.3232L0.869464 8.48923L0.433347 7.85551L0.372808 7.55513L0.332924 7.18475L0 5.81723L0.233928 5.62518L0.378349 5.84465L1.39501 6.10937L1.61508 5.99279L1.7485 5.81308V5.69927L1.83524 5.66632L2.19285 5.83916L2.48454 5.7994L2.955 5.79115L3.2907 5.81995L3.51354 5.68692L3.81347 5.19724L3.92489 4.92289L4.05974 4.85705L4.14774 4.88999L4.21239 5.11628L4.37058 5.32755L4.69528 5.67181L4.92501 5.83778L5.13274 5.89676L5.33635 5.75825L5.54686 5.71844L6.14939 5.98731L6.65839 6.03804L7.03397 5.89814L6.98443 5.70475L6.84681 5.48938L6.81793 5.28088L6.8427 5.09983L7.1014 4.92013L7.08897 4.8406L6.7767 4.52376L6.79181 4.44142L7.47555 4.08343L8.13451 3.88318L8.24039 3.72817L8.30093 3.49501L8.32981 3.05745L8.29404 2.69942L8.0272 2.36337L8.01066 2.19329L8.07397 2.01635L8.17851 1.85586L8.44266 1.78725L8.75216 1.67205L8.99709 1.53898L9.32724 1.42926L9.5872 1.27564L9.8417 0.909406L9.99578 0.849044L10.4622 0.90116L10.5626 0.810659L10.498 0.283936L10.5819 0.149482L10.7469 0.0740502L10.824 0L11.2353 0.0575992L11.5889 0.187909ZM5.00343 8.56056L4.52743 8.67714L4.30047 8.46863L4.24127 8.29718L3.84924 8.24234L3.61262 8.00504L3.56443 7.89942L3.90012 7.63742L4.07897 7.21359L4.30593 7.46869L4.58108 7.9474L4.72827 8.08047L5.00343 8.56056ZM3.75839 10.2751L3.72816 10.4836L3.49432 10.2189L3.37601 9.74432L3.0802 8.9748L3.04166 8.75805L3.19439 8.54411L3.18616 8.32598L2.977 7.64839L3.15174 7.53729L3.25627 7.52356L3.29893 7.99407L3.39389 8.26427L3.67862 8.59622L3.62085 9.1435L3.67862 9.92126L3.73639 10.0941L3.75839 10.2751ZM5.08462 9.74155L5.18228 9.98024L4.81904 9.76487L4.493 9.68257L4.42423 9.5207L4.471 9.38767L4.5412 9.25874L4.78747 9.27657L4.82458 9.40274L5.08462 9.74155ZM6.46301 12.0199L6.36401 12.1626L6.11362 11.9006L5.88389 11.714L5.72016 11.4918L5.39824 11.2147L5.28958 10.8978L4.80947 10.2504L4.73793 10.0749L4.97732 10.3368L5.17674 10.5014L5.34181 10.5412L5.76004 10.9541L6.17139 11.4836L6.66116 11.9431L6.55931 11.9568L6.46301 12.0199ZM6.46443 14.2296L6.51943 14.3078L6.51397 14.3613L6.31304 14.2859L6.25947 14.3106L5.31435 13.146L5.2125 12.9183L5.55097 13.1899L6.46443 14.2296ZM6.62674 13.4835L6.68728 13.6714L6.20582 13.3175L6.02277 13.0802L5.98977 12.9732L6.62674 13.4835ZM7.16874 13.9553L7.42324 14.3517L7.17974 14.2694L6.92666 14.0252L6.77804 13.7591L7.16874 13.9553ZM12.6275 17.6807L12.0181 17.6945L11.4884 17.5984L11.2298 17.4352L11.249 17.2967L11.3289 17.0662L11.919 17.0937L12.8174 17.2569L13.0374 17.4476L12.9687 17.5354L12.6275 17.6807ZM14.2055 18.4434L13.9358 18.4983L12.2176 18.4571L11.7182 18.3474L11.1624 18.0662L11.0496 17.9798L11.6082 17.8975L12.1282 17.9798L12.2877 18.1842L13.6923 18.3474L14.2055 18.4434ZM16.0337 19.6436L16.3144 19.5476L16.5524 19.6176L16.7037 19.9166L17.0022 20.1141L17.4879 20.4597L17.7946 20.7245L18.4893 21.1991L18.6544 21.2649L19.0011 21.4062L19.008 21.5982L19.1566 21.8163L19.3134 22.0673L18.6007 21.5735L17.9363 21.0207L16.6363 20.1676L15.7146 19.9605L14.4531 19.2733L13.6317 19.0291L13.9454 18.9729L14.3059 18.9715L16.2511 19.8891L16.0337 19.6436ZM12.1089 19.1224L12.8229 19.2692L13.3457 19.2019L13.8189 19.2925L14.1133 19.4584L14.1834 19.5407L13.8024 19.5517L13.3704 19.4845L12.8807 19.6532L12.4487 19.5641L12.2849 19.4529L12.1694 19.3158L12.1089 19.1224ZM15.804 20.313L16.3309 20.671L14.786 20.2005L14.9607 20.158L15.1244 20.1484L15.804 20.313Z" fill="var(--fill-0, #71B219)" stroke="var(--stroke-0, white)" mask="url(#path-1-inside-1_0_247)"/>
</g>
</svg>
