<svg preserveAspectRatio="none" width="100%" height="100%" overflow="visible" style="display: block;" viewBox="0 0 10.9367 8.31777" fill="none" xmlns="http://www.w3.org/2000/svg">
<g id="HT">
<mask id="path-1-inside-1_0_121" fill="white">
<path d="M7.00227 0.229099L7.15908 0.323744L7.09993 0.438943L6.71062 0.367614L6.30754 0.237304L6.17546 0.268866L6.09431 0.252415L5.85908 0.127589L6.06543 0.0315624L6.27866 0L6.51254 0.00686502L7.00227 0.229099ZM10.4181 1.52805L10.5034 1.64874L10.6809 2.46764L10.6988 2.72964L10.5199 3.12467L10.546 3.28102L10.9299 3.64591L10.9367 3.77756L10.8914 3.91064L10.5639 4.25627L10.3122 4.49224L10.392 4.76382L10.5956 5.02168L10.6217 5.23705L10.5598 5.52099L10.2475 5.87349L10.0838 5.9997L9.61885 6.01477L9.56654 6.0655L9.7977 6.4098L10.059 6.79935L10.4869 7.10111L10.5818 7.38505L10.4787 7.65392L10.4608 8.31777L10.1334 7.99545L9.77427 7.72658L9.55831 7.62235L9.33408 7.55513L7.62135 7.58945L7.42874 7.63608L7.28016 7.72248L7.12058 7.76501L6.65008 7.84593L6.18235 7.86376L5.0887 7.64705L4.65535 7.53457L4.21923 7.46324L3.7185 7.48656L3.2205 7.55241L2.82154 7.70875L2.523 7.98448L2.46662 8.24096L2.29054 8.3068L1.88746 7.89942L1.516 7.61L1.09365 7.39191L0.228345 7.08056L0.0701533 6.89127L0 6.66217L0.349423 5.95717L0.747 5.82824L0.965731 5.80354L1.45685 5.88994L1.93696 6.05043L2.37442 6.15466L3.05266 6.19581L3.42135 6.36865L6.02554 6.63752L6.51939 6.72253L6.712 6.69373L6.87985 6.58812L7.02016 6.39745L7.18112 6.25479L7.95289 6.22327L8.1152 6.15881L8.228 5.95989L8.22528 5.75276L7.77127 5.47569L7.06143 4.86667L6.43685 4.14932L6.7065 3.90653L6.60331 3.46349L6.70512 3.05334L6.8537 2.65145L6.23462 2.30715L5.50277 1.96285L4.48889 1.85452L4.17658 1.76808L4.01427 1.51022L4.16008 1.16454L4.48889 0.972531L4.86581 0.85457L5.25239 0.772273L6.18373 0.673484L7.1082 0.784622L7.90747 1.14123L8.71912 1.42106L9.74405 1.51432L10.2049 1.61583L10.4181 1.52805ZM6.46023 5.3399L6.39285 5.62522L5.40508 5.2864L4.60442 4.85847L4.63885 4.62665L5.04743 4.57315L5.43946 4.71581L6.01866 5.00109L6.46023 5.3399Z"/>
</mask>
<path d="M7.00227 0.229099L7.15908 0.323744L7.09993 0.438943L6.71062 0.367614L6.30754 0.237304L6.17546 0.268866L6.09431 0.252415L5.85908 0.127589L6.06543 0.0315624L6.27866 0L6.51254 0.00686502L7.00227 0.229099ZM10.4181 1.52805L10.5034 1.64874L10.6809 2.46764L10.6988 2.72964L10.5199 3.12467L10.546 3.28102L10.9299 3.64591L10.9367 3.77756L10.8914 3.91064L10.5639 4.25627L10.3122 4.49224L10.392 4.76382L10.5956 5.02168L10.6217 5.23705L10.5598 5.52099L10.2475 5.87349L10.0838 5.9997L9.61885 6.01477L9.56654 6.0655L9.7977 6.4098L10.059 6.79935L10.4869 7.10111L10.5818 7.38505L10.4787 7.65392L10.4608 8.31777L10.1334 7.99545L9.77427 7.72658L9.55831 7.62235L9.33408 7.55513L7.62135 7.58945L7.42874 7.63608L7.28016 7.72248L7.12058 7.76501L6.65008 7.84593L6.18235 7.86376L5.0887 7.64705L4.65535 7.53457L4.21923 7.46324L3.7185 7.48656L3.2205 7.55241L2.82154 7.70875L2.523 7.98448L2.46662 8.24096L2.29054 8.3068L1.88746 7.89942L1.516 7.61L1.09365 7.39191L0.228345 7.08056L0.0701533 6.89127L0 6.66217L0.349423 5.95717L0.747 5.82824L0.965731 5.80354L1.45685 5.88994L1.93696 6.05043L2.37442 6.15466L3.05266 6.19581L3.42135 6.36865L6.02554 6.63752L6.51939 6.72253L6.712 6.69373L6.87985 6.58812L7.02016 6.39745L7.18112 6.25479L7.95289 6.22327L8.1152 6.15881L8.228 5.95989L8.22528 5.75276L7.77127 5.47569L7.06143 4.86667L6.43685 4.14932L6.7065 3.90653L6.60331 3.46349L6.70512 3.05334L6.8537 2.65145L6.23462 2.30715L5.50277 1.96285L4.48889 1.85452L4.17658 1.76808L4.01427 1.51022L4.16008 1.16454L4.48889 0.972531L4.86581 0.85457L5.25239 0.772273L6.18373 0.673484L7.1082 0.784622L7.90747 1.14123L8.71912 1.42106L9.74405 1.51432L10.2049 1.61583L10.4181 1.52805ZM6.46023 5.3399L6.39285 5.62522L5.40508 5.2864L4.60442 4.85847L4.63885 4.62665L5.04743 4.57315L5.43946 4.71581L6.01866 5.00109L6.46023 5.3399Z" fill="var(--fill-0, #71B219)" stroke="var(--stroke-0, white)" mask="url(#path-1-inside-1_0_121)"/>
</g>
</svg>
