<svg preserveAspectRatio="none" width="100%" height="100%" overflow="visible" style="display: block;" viewBox="0 0 11 8" fill="none" xmlns="http://www.w3.org/2000/svg"><g id="HT"><mask id="path-1-inside-1_0_121" fill="white"><path d="M7 0L7 0L7 0L7 0L6 0L6 0L6 0L6 0L6 0L6 0L6 0L7 0ZM10 2L10 2L11 2L11 3L10 3L10 3L11 4L11 4L11 4L11 4L10 4L10 5L11 5L11 5L11 6L10 6L10 6L10 6L10 6L10 6L10 7L10 7L11 7L10 8L10 8L10 8L10 8L10 8L9 8L8 8L7 8L7 8L7 8L7 8L6 8L5 8L5 8L4 8L4 8L3 8L3 8L2 8L2 8L2 8L2 8L2 8L1 7L0 7L0 7L0 7L0 6L1 6L1 6L2 6L2 6L2 6L3 6L3 6L6 7L6 7L7 7L7 7L7 6L7 6L8 6L8 6L8 6L8 6L8 6L7 5L6 4L7 4L7 4L7 3L7 3L6 2L6 2L4 2L4 2L4 2L4 1L4 1L5 1L5 1L6 1L7 1L8 1L9 1L10 2L10 2L10 2ZM6 5L6 6L5 5L5 5L5 5L5 5L5 5L6 5L6 5Z"/></mask><path d="M7 0L7 0L7 0L7 0L6 0L6 0L6 0L6 0L6 0L6 0L6 0L7 0ZM10 2L10 2L11 2L11 3L10 3L10 3L11 4L11 4L11 4L11 4L10 4L10 5L11 5L11 5L11 6L10 6L10 6L10 6L10 6L10 6L10 7L10 7L11 7L10 8L10 8L10 8L10 8L10 8L9 8L8 8L7 8L7 8L7 8L7 8L6 8L5 8L5 8L4 8L4 8L3 8L3 8L2 8L2 8L2 8L2 8L2 8L1 7L0 7L0 7L0 7L0 6L1 6L1 6L2 6L2 6L2 6L3 6L3 6L6 7L6 7L7 7L7 7L7 6L7 6L8 6L8 6L8 6L8 6L8 6L7 5L6 4L7 4L7 4L7 3L7 3L6 2L6 2L4 2L4 2L4 2L4 1L4 1L5 1L5 1L6 1L7 1L8 1L9 1L10 2L10 2L10 2ZM6 5L6 6L5 5L5 5L5 5L5 5L5 5L6 5L6 5Z" fill="var(--fill-0,#71B219)" stroke="var(--stroke-0,white)" mask="url(#path-1-inside-1_0_121)"/></g></svg>