<svg preserveAspectRatio="none" width="100%" height="100%" overflow="visible" style="display: block;" viewBox="0 0 26 16" fill="none" xmlns="http://www.w3.org/2000/svg"><g id="HU"><mask id="path-1-inside-1_0_137" fill="white"><path d="M23 1L24 1L24 1L24 1L24 1L24 1L24 1L24 2L24 2L24 2L25 2L25 2L25 3L25 3L26 3L26 3L26 3L26 3L26 3L26 3L26 3L26 4L26 4L25 4L25 4L25 5L25 4L24 4L24 5L24 5L24 5L24 5L23 6L23 6L23 6L23 7L23 7L22 7L22 7L22 8L22 8L22 9L22 9L22 9L21 10L21 10L21 10L21 10L20 11L20 11L20 11L20 11L20 12L20 12L20 12L20 12L20 12L20 13L19 13L19 13L18 13L18 13L18 13L18 13L18 14L18 14L18 14L17 14L16 14L16 14L16 14L16 14L15 14L14 14L14 14L14 14L13 14L13 14L13 14L13 14L12 14L12 14L12 14L12 14L12 14L12 14L11 14L11 15L11 15L11 15H11L11 15L10 15L10 15L10 16L9 16L9 16L9 16L8 16L8 16L7 16L7 16L6 15L6 15L6 15L6 15L5 15L5 14L4 14L4 14L4 13L3 13L3 13L2 12L2 12L2 12L2 12L1 11L1 11L1 11L1 10L1 10L1 10L1 10L1 10L0 10L1 9L1 9L1 9L1 9L1 9L2 8L2 8L2 8L2 8L1 8L1 8L1 7L1 7L1 7L1 7L2 7L2 6L2 6L2 6L2 6L2 5L1 5L1 5L2 5L2 5L2 5L2 5L2 5L2 5L3 5L3 5L3 5L3 5L4 5L4 4L4 4L4 4L4 4L4 4L4 3L4 3L4 3L5 3L5 3L5 3L5 4L6 4L6 4L7 4L8 4L9 4L10 4L10 4L10 4L10 4L10 4L10 3L11 3L12 3L13 3L13 2L13 2L14 2L14 2L14 2L15 2L15 2L16 2L16 2L17 0L17 0L18 0L18 0L19 0L19 0L20 0L20 0L21 0L21 0L21 0L21 0L21 1L21 1L22 1L22 1L22 1L23 1L23 1Z"/></mask><path d="M23 1L24 1L24 1L24 1L24 1L24 1L24 1L24 2L24 2L24 2L25 2L25 2L25 3L25 3L26 3L26 3L26 3L26 3L26 3L26 3L26 3L26 4L26 4L25 4L25 4L25 5L25 4L24 4L24 5L24 5L24 5L24 5L23 6L23 6L23 6L23 7L23 7L22 7L22 7L22 8L22 8L22 9L22 9L22 9L21 10L21 10L21 10L21 10L20 11L20 11L20 11L20 11L20 12L20 12L20 12L20 12L20 12L20 13L19 13L19 13L18 13L18 13L18 13L18 13L18 14L18 14L18 14L17 14L16 14L16 14L16 14L16 14L15 14L14 14L14 14L14 14L13 14L13 14L13 14L13 14L12 14L12 14L12 14L12 14L12 14L12 14L11 14L11 15L11 15L11 15H11L11 15L10 15L10 15L10 16L9 16L9 16L9 16L8 16L8 16L7 16L7 16L6 15L6 15L6 15L6 15L5 15L5 14L4 14L4 14L4 13L3 13L3 13L2 12L2 12L2 12L2 12L1 11L1 11L1 11L1 10L1 10L1 10L1 10L1 10L0 10L1 9L1 9L1 9L1 9L1 9L2 8L2 8L2 8L2 8L1 8L1 8L1 7L1 7L1 7L1 7L2 7L2 6L2 6L2 6L2 6L2 5L1 5L1 5L2 5L2 5L2 5L2 5L2 5L2 5L3 5L3 5L3 5L3 5L4 5L4 4L4 4L4 4L4 4L4 4L4 3L4 3L4 3L5 3L5 3L5 3L5 4L6 4L6 4L7 4L8 4L9 4L10 4L10 4L10 4L10 4L10 4L10 3L11 3L12 3L13 3L13 2L13 2L14 2L14 2L14 2L15 2L15 2L16 2L16 2L17 0L17 0L18 0L18 0L19 0L19 0L20 0L20 0L21 0L21 0L21 0L21 0L21 1L21 1L22 1L22 1L22 1L23 1L23 1Z" fill="var(--fill-0,#71B219)" stroke="var(--stroke-0,white)" mask="url(#path-1-inside-1_0_137)"/></g></svg>