<svg preserveAspectRatio="none" width="100%" height="100%" overflow="visible" style="display: block;" viewBox="0 0 26.1905 15.8084" fill="none" xmlns="http://www.w3.org/2000/svg">
<g id="HU">
<mask id="path-1-inside-1_0_137" fill="white">
<path d="M23.3166 0.857291L23.6839 0.810659L23.6991 0.817524L23.7857 0.844942L23.8477 1.11381L23.8572 1.13164L23.9467 1.30858L24.0292 1.54312L24.1585 1.72007L24.4433 1.79278L24.8148 2.01087L25.0555 2.42235L25.4173 2.59247L25.4434 2.59657L25.515 2.57736L25.7764 2.56229L25.8272 2.64458L26.035 2.84622L26.1162 3.02178L26.0749 3.20835L26.1121 3.41958L26.1905 3.49363L26.0955 3.6349L25.42 4.34271L25.1545 4.52924L24.9799 4.56767L24.7033 4.49358L24.4186 4.54984L24.1641 4.7007L23.9288 4.74871L23.7514 4.92842L23.5216 5.31248L23.2382 5.63619L22.9534 5.83782L22.8049 6.01749L22.7884 6.63752L22.6302 6.8158L22.4183 6.9955L22.3014 7.15323L21.9781 8.0942L21.7332 8.39459L21.4993 8.62502L21.4608 8.83491L21.4649 9.07632L21.2008 9.55641L20.8541 10.0529L20.7881 10.2573L20.8651 10.5317L20.5322 10.8472L20.341 10.9994L20.1814 11.0707L20.0824 11.2682L19.92 11.7497L19.9627 11.9637L19.9668 12.1612L19.6862 12.2764L19.6036 12.4931L19.5321 12.762L19.4151 12.8827L19.1001 13.1063L18.316 13.0089L18.0202 13.0843L17.9321 13.2434L17.9142 13.371L17.8152 13.4917L17.6377 13.6412L17.4548 13.7084L17.0462 13.5233L16.1699 13.7126L16.0185 13.847L15.8961 13.7496L15.7076 13.6632L14.8314 13.5534L14.4847 13.6398L14.0211 13.6069L13.5932 13.5109L13.2727 13.5891L12.9907 13.9649L12.8504 14.0911L12.7403 14.172L12.4995 14.29L12.2974 14.4313L12.0291 14.5328L11.7883 14.5191L11.5613 14.3572L11.4801 14.3943L11.4086 14.5438L11.2848 14.67L10.945 14.8263L10.8584 14.8236H10.839L10.5791 14.9388L10.1499 15.0033L9.93389 14.958L9.5432 15.4765L9.42347 15.5712L9.05066 15.7289L8.74662 15.8084L8.48523 15.7454L8.38212 15.7399L7.22373 15.7138L6.61842 15.6027L6.2305 15.3997L5.97189 15.1734L5.84535 14.9223L5.54543 14.7715L5.07077 14.718L4.70208 14.4683L4.43658 14.0239L4.08031 13.6714L3.62774 13.4108L3.27004 13.0432L3.00589 12.5672L2.52989 12.1379L1.84204 11.7566L1.63431 11.6729L1.59308 11.5494L1.25739 11.0748L1.11296 10.8993L1.12665 10.6634L1.05931 10.5289L0.936805 10.4356L0.870808 10.0941L0.832268 9.83896L0.735959 9.67437L0 9.64008L0.616308 9.03107L0.923118 8.86095L1.27804 8.88979L1.39223 8.83491L1.42246 8.74575L1.483 8.54687L1.51323 8.35892L1.54354 8.18064L1.505 8.08185L1.33304 8.05033L1.2505 7.61277L1.33858 7.44679L1.42658 7.33155L1.31792 6.79796L1.35092 6.61554L1.62885 6.58674L1.85858 6.47288L2.047 6.34395L2.09931 6.17798L2.25339 5.84055L2.11165 5.4263L1.3097 5.15609L1.26839 5.0532L1.45412 4.93524L1.65362 4.76793L1.76916 4.63624L1.92323 4.6184L2.14054 4.68563L2.52854 4.98602L2.67573 5.02989L2.81881 4.94211L2.97146 4.92293L3.39935 4.9339L3.75973 4.86395L3.67862 4.54435L3.67996 4.31115L3.61808 4.12462L3.65662 3.92022L3.80238 3.75973L3.84647 3.40036L4.07066 3.15758L4.17662 3.12191L4.57277 3.16716L4.66631 3.23029L4.72685 3.24402L5.35835 3.8352L5.95535 4.27959L6.44378 4.50731L7.16185 4.52514L7.92535 4.54569L9.20205 4.46754L10.1595 4.4099L10.2227 4.2988L10.3672 4.03408L10.2517 3.80636L10.2585 3.53892L10.4195 3.19052L10.8927 2.89972L12.2478 2.77213L13.0264 2.55542L13.1447 2.26052L13.402 1.96834L13.6386 1.90936L13.9619 2.04381L14.3512 2.30029L14.6937 2.43746L14.8932 2.34968L15.5811 1.91622L16.3735 1.49101L16.9182 0.338814L16.9774 0.153626L17.5676 0.0219346L18.4301 0.0452924L18.8731 0.196156L19.2061 0.275731L19.7041 0.248271L20.4221 0L20.6877 0.00686502L20.894 0.182425L21.1196 0.334712L21.2724 0.519858L21.3879 0.781859L21.4498 0.879225L21.5502 1.01368L21.7318 1.19749L21.9066 1.2455L23.2368 0.925899L23.3166 0.857291Z"/>
</mask>
<path d="M23.3166 0.857291L23.6839 0.810659L23.6991 0.817524L23.7857 0.844942L23.8477 1.11381L23.8572 1.13164L23.9467 1.30858L24.0292 1.54312L24.1585 1.72007L24.4433 1.79278L24.8148 2.01087L25.0555 2.42235L25.4173 2.59247L25.4434 2.59657L25.515 2.57736L25.7764 2.56229L25.8272 2.64458L26.035 2.84622L26.1162 3.02178L26.0749 3.20835L26.1121 3.41958L26.1905 3.49363L26.0955 3.6349L25.42 4.34271L25.1545 4.52924L24.9799 4.56767L24.7033 4.49358L24.4186 4.54984L24.1641 4.7007L23.9288 4.74871L23.7514 4.92842L23.5216 5.31248L23.2382 5.63619L22.9534 5.83782L22.8049 6.01749L22.7884 6.63752L22.6302 6.8158L22.4183 6.9955L22.3014 7.15323L21.9781 8.0942L21.7332 8.39459L21.4993 8.62502L21.4608 8.83491L21.4649 9.07632L21.2008 9.55641L20.8541 10.0529L20.7881 10.2573L20.8651 10.5317L20.5322 10.8472L20.341 10.9994L20.1814 11.0707L20.0824 11.2682L19.92 11.7497L19.9627 11.9637L19.9668 12.1612L19.6862 12.2764L19.6036 12.4931L19.5321 12.762L19.4151 12.8827L19.1001 13.1063L18.316 13.0089L18.0202 13.0843L17.9321 13.2434L17.9142 13.371L17.8152 13.4917L17.6377 13.6412L17.4548 13.7084L17.0462 13.5233L16.1699 13.7126L16.0185 13.847L15.8961 13.7496L15.7076 13.6632L14.8314 13.5534L14.4847 13.6398L14.0211 13.6069L13.5932 13.5109L13.2727 13.5891L12.9907 13.9649L12.8504 14.0911L12.7403 14.172L12.4995 14.29L12.2974 14.4313L12.0291 14.5328L11.7883 14.5191L11.5613 14.3572L11.4801 14.3943L11.4086 14.5438L11.2848 14.67L10.945 14.8263L10.8584 14.8236H10.839L10.5791 14.9388L10.1499 15.0033L9.93389 14.958L9.5432 15.4765L9.42347 15.5712L9.05066 15.7289L8.74662 15.8084L8.48523 15.7454L8.38212 15.7399L7.22373 15.7138L6.61842 15.6027L6.2305 15.3997L5.97189 15.1734L5.84535 14.9223L5.54543 14.7715L5.07077 14.718L4.70208 14.4683L4.43658 14.0239L4.08031 13.6714L3.62774 13.4108L3.27004 13.0432L3.00589 12.5672L2.52989 12.1379L1.84204 11.7566L1.63431 11.6729L1.59308 11.5494L1.25739 11.0748L1.11296 10.8993L1.12665 10.6634L1.05931 10.5289L0.936805 10.4356L0.870808 10.0941L0.832268 9.83896L0.735959 9.67437L0 9.64008L0.616308 9.03107L0.923118 8.86095L1.27804 8.88979L1.39223 8.83491L1.42246 8.74575L1.483 8.54687L1.51323 8.35892L1.54354 8.18064L1.505 8.08185L1.33304 8.05033L1.2505 7.61277L1.33858 7.44679L1.42658 7.33155L1.31792 6.79796L1.35092 6.61554L1.62885 6.58674L1.85858 6.47288L2.047 6.34395L2.09931 6.17798L2.25339 5.84055L2.11165 5.4263L1.3097 5.15609L1.26839 5.0532L1.45412 4.93524L1.65362 4.76793L1.76916 4.63624L1.92323 4.6184L2.14054 4.68563L2.52854 4.98602L2.67573 5.02989L2.81881 4.94211L2.97146 4.92293L3.39935 4.9339L3.75973 4.86395L3.67862 4.54435L3.67996 4.31115L3.61808 4.12462L3.65662 3.92022L3.80238 3.75973L3.84647 3.40036L4.07066 3.15758L4.17662 3.12191L4.57277 3.16716L4.66631 3.23029L4.72685 3.24402L5.35835 3.8352L5.95535 4.27959L6.44378 4.50731L7.16185 4.52514L7.92535 4.54569L9.20205 4.46754L10.1595 4.4099L10.2227 4.2988L10.3672 4.03408L10.2517 3.80636L10.2585 3.53892L10.4195 3.19052L10.8927 2.89972L12.2478 2.77213L13.0264 2.55542L13.1447 2.26052L13.402 1.96834L13.6386 1.90936L13.9619 2.04381L14.3512 2.30029L14.6937 2.43746L14.8932 2.34968L15.5811 1.91622L16.3735 1.49101L16.9182 0.338814L16.9774 0.153626L17.5676 0.0219346L18.4301 0.0452924L18.8731 0.196156L19.2061 0.275731L19.7041 0.248271L20.4221 0L20.6877 0.00686502L20.894 0.182425L21.1196 0.334712L21.2724 0.519858L21.3879 0.781859L21.4498 0.879225L21.5502 1.01368L21.7318 1.19749L21.9066 1.2455L23.2368 0.925899L23.3166 0.857291Z" fill="var(--fill-0, #71B219)" stroke="var(--stroke-0, white)" mask="url(#path-1-inside-1_0_137)"/>
</g>
</svg>
