<svg preserveAspectRatio="none" width="100%" height="100%" overflow="visible" style="display: block;" viewBox="0 0 177 65" fill="none" xmlns="http://www.w3.org/2000/svg"><g id="ID"><mask id="path-1-inside-1_0_135" fill="white"><path d="M107 65L107 65L107 65L107 64L107 64L108 64L108 64L108 63L109 63L109 63L109 63L109 63L109 64L109 64L108 64L108 64L107 64L107 65ZM103 63L103 63L102 63L102 63L103 63L103 63L103 63L103 63L103 63L103 63ZM109 62L109 62L109 62L109 62L109 62L109 62L109 62L109 62L109 62ZM96 59L96 59L97 59L97 59L97 60L97 60L97 60L97 60L98 60L98 60L98 60L98 61L99 61L99 61L99 62L98 62L98 62L98 62L97 62L97 62L97 62L96 62L96 62L96 61L96 61L95 61L94 60L94 60L94 60L93 60L92 60L92 60L92 60L92 59L92 59L92 59L92 59L93 59L93 59L94 59L94 59L95 59L95 59L96 58L96 58L96 59ZM115 57L115 57L115 57L116 57L116 57L116 58L115 58L115 58L115 58L115 58L115 58L115 58L115 59L115 59L115 59L115 60L114 60L114 61L114 61L113 61L113 62L112 62L112 62L111 62L111 62L110 62L110 62L110 62L110 62L110 62L110 62L110 61L110 61L110 61L110 60L110 60L110 60L111 59L111 59L111 58L111 59L112 59L112 59L112 59L112 59L112 59L113 58L113 58L113 58L113 58L113 58L114 58L114 57L115 57L115 57L115 57L115 57ZM79 56L79 56L78 56L78 56L78 56L79 56L79 56L79 56ZM107 55L107 56L107 56L107 55L107 55L107 55L108 55L108 55L108 55L107 55L107 55ZM94 56L94 56L93 56L93 56L93 56L94 55L94 55L94 55L94 55L94 55L94 55L94 55L94 55L94 56L94 56L94 56L94 56L94 56ZM108 55L108 55L107 55L107 55L108 54L108 54L108 54L109 54L108 55ZM83 56L82 56L82 57L82 57L82 57L81 57L81 57L80 57L80 56L80 56L80 56L80 56L80 56L81 56L81 56L80 55L81 54L82 54L82 54L83 54L83 54L83 55L83 55L83 56ZM112 55L112 55L112 55L112 55L111 56L111 55L111 55L111 55L111 54L111 54L112 55L112 55L112 54L112 54L112 54L112 54L112 55ZM111 54L110 54L110 55L110 55L110 55L110 55L110 55L110 55L109 56L109 55L109 56L109 56L109 55L108 55L108 55L109 55L109 55L109 55L109 54L109 54L109 54L109 54L109 54L110 54H110L110 54L111 54L111 54L111 54ZM169 55L168 55L168 55L167 55L167 54L168 54L168 54L168 54H168L169 55L169 55ZM86 55L86 55L86 55L86 54L86 54L86 54L86 54L87 54L87 54L86 55ZM92 54L92 54L92 54L92 54L92 54L92 54L92 54L92 54L92 54L92 54ZM113 54L114 54L114 54L114 54L115 54L115 54L116 54L116 55L115 55L113 55L113 55L112 55L113 54L113 54L113 54L113 54L113 54ZM126 54L127 54L127 54L127 54L127 54L126 54L126 54L126 54ZM106 56L106 56L106 56L105 56L105 56L105 56L104 56L104 56L103 57L102 57L102 57L102 57L102 56L102 56L101 56L101 57L100 57L100 57L100 57L100 57L100 57L99 57L98 56L97 56L96 56L96 56L95 57L95 56L95 56L95 56L95 56L95 56L95 55L95 55L95 55L95 55L96 55L96 55L97 54L97 54L97 54L98 54L98 54L98 54L98 54L99 55L99 55L100 55L100 55L101 55L101 55L101 56L102 56L102 56L102 55L102 55L102 55L103 55L103 55L103 55L104 55L104 55L104 56L105 56L105 56L105 56L105 55L105 55L106 55L106 55L106 55L107 54L107 54L106 54L106 54L107 54L107 54L107 54L107 55L107 55L107 55L107 55L107 55L107 56L107 56L106 56ZM138 55L137 55L138 54L138 54L138 54L139 54L138 54L138 54L138 55ZM89 54L89 55L89 55L90 54L90 54L90 54L90 54L91 55L91 55L91 55L91 55L91 54L91 54L92 54L92 55L92 55L92 56L92 56L92 56L92 56L92 56L92 56L92 56L92 56L92 56L92 56L91 56L91 56L91 56L91 56L91 56L91 56L91 57L91 56L91 56L90 57L90 57L90 56L90 56L90 56L89 56L89 57L88 57L88 57L88 57L87 57H87L86 57L86 57L85 57L85 57L85 57L85 58L84 58L84 58L84 57L83 57L83 57L83 57L83 56L83 56L83 56L84 55L84 55L84 55L84 55L85 55L85 55L86 55L86 55L86 55L86 55L87 55L87 56L87 56L87 56L88 56L88 56L88 56L89 56L89 56L89 55L88 55L88 55L88 55L88 55L87 55L87 54L87 54L87 54L88 54L88 54L88 54L89 54L89 54L89 54ZM78 54L78 54L79 55L79 55L79 55L79 55L78 56L78 56L77 56L77 56L77 56L77 57L77 57L77 56L77 56L77 56L77 56L77 56L76 55L76 55L75 55L75 55L75 55L74 54L74 54L74 54L74 54L74 54L75 54L76 54L76 54L76 54L77 54L77 54L78 54L78 54ZM134 53L134 54L133 54L133 53L133 53L133 53L133 52L134 53L134 53L134 53ZM122 52L122 52L122 52L122 52L121 53L121 53L121 53L120 53L120 53L119 53L119 53L119 53L118 53L118 53L118 53L118 53L119 52L119 52L120 52L120 52L121 52L121 52L122 52L122 52ZM124 52L124 52L124 52L124 51L125 52L125 52L124 52L124 52ZM167 54L166 55L165 55L165 55L164 55L164 55L164 54L165 53L165 52L166 52L166 51L166 51L167 51L168 51L168 51L169 51L169 52L169 52L169 53L168 54L168 54L167 54ZM139 53L139 53L139 53L139 53L139 53L138 53L139 52L139 52L139 52L139 52L139 51L139 51L140 51L140 51L140 51L140 50L140 50L140 50L140 50L141 50L141 50L141 50L141 50L141 51L141 52L140 52L140 52L140 52L140 53L140 53L140 53L139 53ZM142 50L142 50L142 50L142 50L141 50L141 50L141 50L142 50L142 50ZM74 50L74 50L74 50L74 50L74 50L74 50L74 50L74 50ZM129 50L129 50L129 50L129 50L129 50L129 50L129 50L129 50L129 50L129 50ZM99 50L98 50L98 50L98 50L99 50L99 50L99 50ZM72 50L72 50L71 50L71 50L70 50H70L69 50H69L69 50L69 50L68 50L68 50L68 50L68 49L69 49L72 49L73 49L73 49L72 50L72 50ZM78 49L78 49L77 49L77 49L77 49L78 49L78 49L78 49L78 49L78 49L78 49L78 49ZM152 48L152 49L152 48L152 48L152 48L152 48L153 48L153 48L152 48ZM39 48L38 48L38 48L38 48L38 48L39 48L39 48L39 48L39 48ZM152 48L152 48L152 48L152 47L153 48L152 48ZM153 47L153 47L153 47L153 47L153 47L153 47L153 47ZM152 47L152 48L152 48L151 48L151 49L151 49L150 49L150 49L150 49L150 47L150 48L150 48L150 47L150 47L150 47L150 46L150 46L151 46L151 47L151 47L152 47ZM47 46L47 46L48 46L48 46L48 46L49 46L49 47L50 47L50 47L50 47L50 47L51 47L51 47L51 47L52 48L52 48L52 49L52 49H53L53 49L54 49L55 49L55 49L56 49L56 49L57 49L57 49L58 49L58 49L58 49L59 49L59 49L59 49L59 49L60 48L60 48L60 48L60 47L60 47L60 47L61 47L61 47L62 48L62 48L62 48L62 48L63 48L63 48L64 48L64 48L64 49L65 49L65 49L65 49L66 49L66 49L67 49L67 50L67 50L67 50L68 50L68 51L68 51L68 52L69 52L70 52L71 52L72 52L72 52L73 52L73 52L74 52L74 52L74 53L74 53L74 54L74 55L74 55L74 56L74 56L75 56L75 56L75 56L74 56L74 56L74 56L74 56L73 56L72 56L71 55L70 54L69 54L69 54L68 55L68 55L68 55L67 55L66 55L65 55L63 54L62 54L61 54L60 54L60 54L57 53L56 53L54 52L54 52L53 52L53 52L52 52L52 52L51 52L51 52L51 52L50 52L49 52L49 52L48 52L48 52L48 52L47 51L46 51L44 51L44 51L43 51L43 51L43 50L43 50L44 50L44 50L42 49L42 49L41 49H41L40 49L40 49L39 49L39 49L39 49L39 49L39 49L39 48L39 48L39 48L39 48L39 49L40 49L40 49L40 48L40 48L40 47L40 48L41 48L41 47L41 46L41 46L42 45L42 45L42 46L43 46L43 46L44 46L44 46L45 46L45 46L45 46L46 46L46 45L46 45L47 46L47 46ZM111 46L111 46L111 46L111 45L111 45L111 45L111 46ZM98 47L98 47L98 47L98 47L97 46L98 46L97 45L98 45L98 45L98 46L98 47ZM68 45L68 45L67 45L67 45L67 45L68 45L68 45L68 45ZM145 45L145 45L145 45L145 45L145 45L145 45L144 44L145 44L145 44L145 44L145 45L145 45ZM153 44L153 45L153 45L153 45L152 45L153 46L153 46L153 46L153 46L152 47L152 47L152 47L152 47L152 47L151 47L151 46L151 46L150 46L150 46L150 46L151 46L151 46L151 46L151 45L151 45L151 44L151 44L151 44L152 44L152 44L152 44L152 43L152 44L152 44L152 44L152 44L152 44L153 44ZM146 45L145 46L146 45L146 44L146 44L146 43L146 43L147 43L146 44L146 45L146 45ZM28 44L27 44L27 43L27 43L27 43L27 43L28 43L28 43L28 44ZM110 43L110 43L110 43L109 43L109 43L109 43L110 43L110 43ZM104 44L103 44L103 43L103 43L103 43L103 42L103 42L103 42L103 42L103 42L103 42L104 42L104 43L104 44ZM106 43L106 43L106 43L106 43L105 43L105 43L105 43L105 43L104 43L105 42L105 42L105 42L105 41L105 41L106 41L106 40L106 40L106 40L106 42L106 42L106 43ZM108 40L108 41L108 41L108 41L108 41L108 41L108 41L108 41L107 41L107 41L107 42L107 42L107 42L107 42L108 42L108 43L108 43L108 43L108 43L108 43L107 43L107 43L107 43L107 44L107 44L107 44L107 44L106 44L106 44L106 44L106 44L106 44L106 43L106 43L106 43L106 43L106 43L106 42L106 42L106 42L107 42L107 41L107 40L107 40L108 39L108 39L108 40L108 40ZM148 39L148 39L148 39L147 39L147 38L148 39L148 39ZM108 38L108 39L108 39L107 38L107 38L107 38L107 38L108 38L108 38L108 38ZM129 36L128 36L128 36L128 36L129 36L129 36ZM128 37L128 37L127 37L127 37L127 37L127 37L127 37L127 37L126 37L126 37L126 37L126 37L127 36L127 36L128 36L128 36L128 36L128 36L128 36L128 37ZM129 36L129 36L129 36L129 36L129 36L129 36L129 36L129 36L129 36L129 36ZM82 36L82 36L82 36L82 36L82 36L82 36ZM125 35L125 36L125 35L125 35L125 35L125 35L125 35ZM82 37L81 38L80 38L81 37L80 37L80 36L80 36L81 35L81 35L81 35L81 36L81 36L81 36L81 36L82 37L82 37L81 37L82 37ZM122 34L123 35L123 35L123 35L123 35L123 35L124 36L124 36L124 36L123 37L123 37L122 37L122 37L122 37L122 37L122 37L121 37L120 37L120 36L120 36L120 36L119 36L119 36L119 35L119 35L119 34L120 35L120 34L121 34L122 34L122 34ZM127 34L126 34L126 34L126 34L126 34L127 34ZM45 34L45 34L45 34L45 34L45 34L44 34L45 34L45 34L45 34ZM47 34L47 34L47 34L47 34L47 34L47 34L48 34L47 34ZM133 34L134 34L135 34L136 34L136 34L136 35L137 35L137 35L137 36L137 36L137 36L138 36L138 36L137 37L137 37L136 36L135 36L134 36L134 36L134 36L134 35L133 35L133 35L132 35L132 36L132 36L132 36L132 36L131 36L131 35L130 35L130 35L130 35L130 35L130 35L130 35L130 35L130 35L129 36L129 36L129 36L128 36L128 36L128 35L128 35L127 35L127 35L127 35L127 35L127 35L127 35L126 36L126 36L126 36L126 36V35L126 35L126 35L127 34L127 34L129 34L130 34L130 34L130 34L131 34L131 34L131 34L131 34L132 34L132 33L132 33L132 33L133 33L133 33L133 34ZM20 35L20 35L20 35L20 35L20 34L20 34L19 34L19 33L19 33L20 33L20 34L20 34L20 35L20 35L20 35ZM50 34L50 34L50 35L50 35L50 35L49 35L49 35L49 35L49 34L49 34L49 35L48 35L48 35L48 35L48 34L48 34L48 34L48 34L48 34L48 33L48 33L48 32L49 32L49 32L50 33L50 33L50 34L50 34ZM19 33L19 33L19 33L18 33L18 33L18 33L18 33L18 32L19 32L19 33L19 33ZM151 31L151 31L151 31L151 30L151 30L151 30L151 30L151 31ZM18 32L18 32L17 31L17 31L17 31L17 31L17 30L17 30L17 30L17 30L18 31L18 31L18 32ZM119 32L119 32L119 32L119 31L118 31L118 31L118 30L119 30L119 30L119 30L119 31L119 32L119 32ZM111 30L111 30L110 30L110 30L110 30L111 30ZM119 30L120 30L120 30L119 30L118 30L117 30L117 30L117 30L116 30L117 30L117 30L118 30L119 30ZM108 30L108 30L108 30L108 30L108 30L108 29L108 30ZM136 29L136 29L136 30L136 30L136 30L136 30L136 30L136 30L136 30L135 30L135 30L135 30L135 30L134 30L133 30L133 30L134 29L135 29L135 29L136 29L136 29ZM115 29L115 29H115L116 29L116 29L116 29L116 29L116 29L116 30L116 30L116 30L116 30L115 30L114 30L114 30L113 30L113 30L112 30L113 29L113 29L113 29L114 29L115 29ZM156 29L157 29L157 29L158 29L159 29L160 29L161 29L161 30L160 30L160 30L159 30L159 30L158 30L158 30L158 30L157 29L156 29L155 29L156 29ZM53 29L53 29L52 29L53 28L53 29L53 29ZM42 29L42 29L42 30L42 30L42 31L43 32L45 32L44 33L44 33L44 33L44 34L44 34L44 34L44 34L44 34L44 34L44 34L43 34L43 34L43 34L43 34L42 34L42 33L41 33L41 33L41 32L41 32L41 32L41 32L41 31L40 31L40 31L40 31L39 31L39 31L39 31L38 30L38 30L38 30L39 30L39 30L39 29L39 29L39 29L39 29L40 29L40 28L40 29L40 29L40 29L41 29L41 28L41 28L41 28L42 28L42 29L42 29ZM110 29L109 29L109 29L109 28L109 28L109 28L110 29L110 29L110 29L110 29ZM127 29L127 29L127 29L126 29L126 29L125 29L124 29L124 29L124 29L124 28L125 28L125 28L126 28L126 28L127 28L127 29L127 29ZM108 27L108 27L108 28L108 28L109 27L109 27L109 27L109 28L109 28L109 28L109 28L109 28L109 28L108 28L108 29L108 29L108 29L108 29L108 29L108 28L108 28L108 28L107 28L107 29L107 29L107 28L107 28L107 27L107 27L108 27L108 27ZM56 27L55 28L55 28L55 27L55 27L55 26L56 26L56 26L56 27L56 27L56 27L56 27ZM154 27L153 27L153 27L153 27L153 26L153 26L153 26L154 27L154 27L154 27ZM15 29L15 29L14 29L14 29L14 28L13 28L13 27L13 26L14 26L14 26L14 27L15 27L15 28L15 28L15 28L15 28L16 29L16 29L16 29L15 29ZM138 28L138 28L138 28L137 27L137 27L137 27L137 27L137 26L137 26L138 26L138 26L138 26L138 26L138 27L138 28ZM138 26L138 26L138 26L136 26L136 26L136 26L136 26L136 26L136 26L136 26L137 26L137 26L137 26L138 26L137 26L138 26ZM155 25L156 25L156 25L156 25L157 25L157 25L158 26L158 26L159 27L159 27L159 27L158 27L158 27L158 27L157 27L157 27L157 27L156 26L156 26L156 26L156 26L156 26L155 26L155 25L155 25ZM124 26L124 26L124 26L123 26L124 25L124 25L124 26L124 26ZM137 25L136 25L136 24L136 24L136 24L137 24L137 24L137 24L137 24L137 25ZM103 24L103 24L103 25L103 24L102 24L102 24L102 25L102 25L102 24L102 24L103 24L103 24ZM148 25L149 26L149 25L150 26L150 26L150 26L150 26L150 26L150 27L150 27L151 28L151 28L151 28L151 28L150 29L150 29L150 30L150 30L150 31L150 31L150 32L151 33L152 34L152 33L152 32L152 32L152 32L152 32L152 32L152 33L152 34L153 34L153 34L153 34L153 34L153 35L153 35L154 35L154 35L155 36L155 36L156 35L156 35L156 35L157 34L157 34L158 33L158 33L158 32L158 32L159 32L159 32L159 31L160 31L161 31L162 31L162 30L162 30L162 30L162 30L162 30L163 29L164 29L164 28L165 28L165 29L166 29L168 30L168 30L168 30L169 30L169 30L170 30L170 31L171 31L172 32L172 32L174 32L174 32L174 32L174 32L175 32L176 32L176 32L176 33L177 33V33V34L177 35V36V36L177 37V38V39V40V40L177 41V42V43V44V44L177 45V46V47V47L177 47L176 48L176 48L176 49L177 49V50V50L177 51V52V53V54V54L177 55V56V57V58L177 58L176 58L176 57L176 57L175 56L175 56L173 54L173 54L173 54L173 54L173 54L173 53L173 53L173 54L172 54L172 54L171 54L171 54L170 54L170 54L170 54L170 53L170 54L169 54L169 54L169 54L169 54L168 54L169 54L169 54L169 53L169 53L169 52L169 52L169 52L169 52L169 51L169 51L169 51L168 51L168 51L168 50L168 50L169 50L169 50L169 50L169 50L170 50L170 50L169 50L168 50L168 50L168 49L168 49L168 49L169 49L168 49L168 48L168 48L168 48L167 47L167 47L167 46L166 45L166 45L167 45L166 45L166 45L166 45L166 44L166 44L166 44L166 44L166 44L166 44L166 44L166 44L166 44L165 43L165 43L165 43L165 43L164 43L164 43L162 42L162 42L162 42L162 42L162 42L162 42L162 42L161 41L161 41L161 41L160 41L159 41L158 40L158 40L157 40L156 40L155 40L155 40L155 40L154 40L153 39L152 38L152 38L152 38L153 38L153 38L152 38L152 38L152 38L152 38L151 38L151 38L151 38L150 37L150 37L150 37L150 37L150 37L150 37L149 37L149 37L149 37L149 36L148 36L149 35L149 35L149 35L149 34L149 34L149 34L148 35L148 35L148 36L148 36L148 36L148 36L148 36L148 37L148 37L148 37L148 38L147 38L147 38L146 38L146 38L146 38L145 38L145 38L145 37L145 37L145 36L145 36L145 35L144 35L143 34L143 34L142 34L142 34L142 34L142 33L142 33L143 33L143 33L144 33L145 33L145 33L146 33L146 32L146 32L147 32L147 32L148 32L148 32L148 32L148 33L149 33L149 32L149 32L149 32L149 32L149 32L149 31L149 31L149 31L149 31L150 31L150 31L149 31L148 31L147 31L147 31L146 31L145 31L144 31L144 31L144 31L143 31L143 31L142 31L142 30L142 30L142 30L142 29L142 29L141 29L141 28L139 28L139 28L139 28L139 28L138 28L138 28L138 28L138 28L138 27L139 27L139 27L139 26L139 26L139 26L139 26L139 26L140 26L141 25L142 25L142 25L142 25L142 24L142 24L144 24L144 24L144 24L145 24L146 25L147 25L148 25ZM36 24L36 24L36 24L36 25L36 25L36 25L36 25L35 25L35 25L35 24L35 24L35 24L35 24L35 24L36 24ZM125 24L125 24L125 25L125 25L126 25L126 25L126 26L126 26L126 26L126 26L125 26L125 26L125 26L125 26L124 26L124 26L125 25L124 25L124 24L124 24L124 24L124 24L124 24L124 24L125 24L125 24L125 24ZM124 24L124 25L123 25L123 24L123 24L124 24L124 24L124 24L124 24L124 24ZM33 24L32 24L32 24L32 24L32 24L32 24L33 24L33 24L33 24ZM138 23L138 23L138 23L139 23L139 23L139 24L140 24L139 24L139 24L139 24L139 24L138 24L138 24L138 24L138 24L137 23L137 23L137 23L137 23L137 24L137 24L138 24L138 24L138 24L137 24L137 24L137 24L137 24L136 24L136 24L136 24L136 24L135 23L135 23L136 23L136 23L136 23L136 23L136 23L137 23L137 23L138 23ZM13 25L12 25L12 25L12 24L12 24L12 24L12 24L12 23L12 23L12 23L13 23L13 24L13 24L13 25ZM37 23L37 23L37 23L38 23L38 24L38 24L38 24L38 24L38 24L37 23L36 24L36 23L36 23L36 23L36 23L36 23L36 23L36 23L37 23L37 23ZM133 23L132 23L132 23L132 23L132 22L133 23L133 23ZM124 23L124 23L124 23L124 23L124 22L124 22L124 22L124 23ZM37 22L37 22L36 22L36 22L36 22L36 22L36 22L36 22L37 22ZM31 21L31 21L31 20L31 20L31 20L31 20L31 20L31 21ZM124 20L124 20L124 20L124 20L124 20L124 20L124 20L124 20L124 20ZM124 20L124 20L124 20L124 20L124 19L124 19L124 19L124 20ZM32 20L32 20L31 20L32 19L32 19L32 20L32 20L32 20L32 20ZM33 20L33 20L33 20L33 19L33 19L33 19L33 20ZM35 19L35 20L34 19L34 19L34 19L34 19L35 19L35 19L35 19ZM30 20L30 20L30 20L29 20L29 20L28 19L28 19L28 19L28 19L28 19L28 18L28 18L29 19L29 19L29 19L30 19L30 19L30 20ZM32 19L32 19L32 19L31 18L32 18L32 18L32 18L32 19ZM31 19L31 19L30 19L30 19L30 19L30 19L29 19L29 19L29 19L29 18L29 18L30 18L30 19L31 19ZM34 18L34 18L34 18L34 18L34 18L34 19L34 19L34 19L34 18L34 18L34 18H34L34 18ZM36 18L36 18L36 18L36 19L36 19L36 19L36 19L36 19L36 19L36 19L36 19L36 19L36 19L36 19L35 19L35 19L35 18L35 18L35 18L36 18L36 18L36 18ZM28 19L28 19L28 19L27 18L27 18L27 18L27 18L27 17L27 17L28 18L28 18L28 18L28 18L28 18L28 19ZM9 17L10 18L10 18L10 19L10 19L10 19L10 20L10 20L10 20L10 20L9 19L9 19L8 19L8 19L8 18L7 17L8 17L8 17L8 17L8 17L9 17ZM28 17L28 18L28 17L28 17L27 17L27 17L26 17L26 17L26 17L26 16L26 16L28 17L28 17ZM115 19L114 20L114 20L113 20L113 20L113 21L113 21L112 21L112 21L112 21L110 22L110 22L109 22L108 21L108 21L108 21L108 21L107 21L107 21L104 21L104 21L103 21L102 21L102 21L102 21L101 21L100 21L99 21L98 21L98 21L98 21L97 21L97 21L96 22L96 22L96 22L96 23L96 23L96 24L96 24L96 25L96 25L97 26L97 26L97 26L98 27L98 27L98 28L98 28L99 28L99 28L100 28L100 28L100 27L101 27L101 26L102 26L102 26L102 26L102 26L102 26L103 26L103 26L104 26L104 26L104 26L104 26L106 26L106 26L107 26L107 25L107 25L107 25L107 25L107 25L108 25L108 25L109 25L109 25L109 26L109 26L109 26L108 26L108 26L108 26L108 26L107 26L107 26L107 26L106 27L106 27L105 28L105 28L104 29L104 29L103 29L103 29L102 30L102 30L102 30L102 30L101 30L101 30L101 30L101 30L102 30L102 31L102 31L102 31L103 31L103 32L103 32L104 33L104 33L105 34L105 34L105 34L105 34L105 35L105 35L105 35L105 36L104 36L104 36L104 36L105 37L105 37L105 37L105 37L106 37L106 38L106 38L106 38L106 38L106 38L106 38L106 38L106 38L107 38L107 38L107 39L107 39L107 39L107 39L107 39L106 39L106 39L106 40L106 40L106 40L105 40L104 40L104 40L104 40L104 40L104 41L104 41L103 41L102 41L102 41L102 41L102 40L102 40L102 39L102 39L102 39L102 38L102 38L102 38L101 38L101 38L99 36L99 36L99 36L99 36L100 35L100 35L100 34L100 34L100 33L100 33L99 33L99 33L98 33L98 33L97 34L97 34L97 34L97 35L97 35L97 35L97 37L97 37L97 37L97 38L97 40L97 40L97 41L97 42L97 42L97 42L97 43L97 44L97 44L97 44L97 44L96 44L96 44L96 44L95 44L95 44L95 44L95 44L94 44L94 44L93 43L93 43L93 42L94 42L94 41L94 41L94 40L94 40L94 40L94 38L94 38L94 37L94 37L94 37L94 36L94 36L94 36L94 36L93 36L93 36L92 36L92 36L91 36L91 35L91 35L91 34L91 34L91 34L91 33L91 33L91 33L91 33L92 33L92 33L92 32L92 32L92 31L92 31L93 30L93 30L93 30L93 29L93 29L93 28L93 28L93 27L94 26L94 25L95 25L95 26L95 26L95 26L95 25L95 24L95 23L95 23L95 23L95 23L95 22L95 22L95 22L95 21L96 21L96 20L96 20L96 20L96 20L97 19L97 19L97 19L97 19L97 19L97 19L98 20L98 19L98 19L98 19L98 19L99 19L99 18L99 18L99 18L99 18L100 18L100 18L100 18L101 18L101 18L101 18L101 18L101 18L102 18L102 18L102 18L103 18L104 19L105 19L106 19L106 19L106 19L107 19L107 19L107 19L107 19L108 19L108 19L111 19L111 19L112 19L113 18L113 18L113 18L114 17L114 17L114 17L114 17L114 17L115 16L115 16L116 16L116 16L116 17L116 17L116 17L116 17L115 18L115 18L115 19ZM25 15L25 15L25 15L25 15L25 16L25 16L24 16L24 16L24 15L24 15L24 15L24 15L25 14L25 15ZM126 19L126 20L126 19L126 19L126 19L126 19L127 18L127 18L127 18L127 18L127 18L128 17L128 17L129 17L129 17L129 17L129 17L129 17L129 18L129 18L129 19L128 19L128 19L128 20L128 20L128 20L129 20L129 21L129 21L129 21L130 21L130 22L130 22L130 22L129 21L128 21L128 21L128 21L127 21L126 21L126 21L126 21L126 22L126 22L126 22L126 22L126 24L127 24L128 25L128 26L128 26L128 26L128 26L127 25L127 25L126 24L126 24L126 24L125 24L125 23L125 23L125 22L125 22L126 22L125 21L125 21L125 21L125 20L125 20L125 20L125 20L125 19L125 19L124 18L124 18L125 17L125 17L125 16L125 16L125 16L126 15L126 14L126 14L127 14L127 14L127 14L126 15L126 15L126 16L126 16L127 16L127 17L127 17L127 18L127 18L126 18L125 19L125 19L125 19L125 19L126 19ZM8 15L8 15L8 14L7 14L8 14L8 14L8 14L8 14L8 15ZM128 15L128 15L128 15L128 14L128 13L128 13L129 13L129 13L129 13L129 14L129 15L128 15ZM117 12L117 13L116 12L116 12L117 12L117 12L117 12L117 12ZM5 14L5 14L4 14L4 13L3 13L3 13L3 12L2 12L2 12L2 12L2 12L2 12L3 12L3 12L4 12L4 12L4 12L5 13L5 13L5 13L5 14ZM53 12L53 12L52 12L53 11L53 11L53 12ZM41 12L41 12L40 12L40 11L40 11L40 11V11L41 11L41 11L41 11L41 11L41 11L41 12L41 12ZM43 11L43 11L42 11L42 10L42 10L43 10L43 11ZM87 10L87 10L86 10L86 10L86 10L87 10L87 10L87 10ZM118 10L118 10L117 9L117 9L117 9L117 9L117 8L117 8L117 9L117 9L118 9L118 10ZM122 8L122 8L122 8L122 8L122 8L122 8L122 8L122 8L122 8ZM122 8L122 8L121 8L121 7L122 7L122 8L122 8ZM88 7L88 7L88 7L87 7L87 7L87 7L87 7L88 7ZM51 8L50 9L50 8L50 8L50 8L50 8L50 8L50 8L50 8L49 7L49 7L50 7L50 6L50 7L51 7L51 8L51 8L51 8ZM82 6L83 6L83 6L83 6L84 6L84 6L85 6L86 7L86 7L86 7L86 7L86 7L86 7L86 7L86 8L87 8L87 8L87 8L87 8L87 8L87 9L87 9L86 9L86 8L86 9L86 9L85 9L85 9L84 9L85 9L85 9L86 10L86 10L85 10L86 10L86 10L86 11L86 11L86 11L86 11L87 11L86 11L87 12L87 12L87 12L87 12L87 12L87 12L87 12L87 12L88 13L88 14L88 14L88 14L88 14L88 14L88 15L88 15L87 15L87 15L88 15L88 16L88 16L89 16L90 17L90 18L91 18L92 19L92 19L92 19L91 19L90 20L89 19L89 19L88 19L88 19L88 18L88 19L88 19L88 19L88 19L87 20L87 20L87 20L86 21L86 22L86 23L86 24L86 25L86 25L86 25L86 26L86 26L86 26L85 26L85 26L84 27L84 27L84 27L84 27L83 27L83 27L83 27L83 27L83 27L83 27L83 28L83 28L83 28L83 28L82 28L82 29L82 29L82 29L82 29L81 29L81 30L82 29L82 30L82 30L82 30L82 30L82 31L82 31L82 31L82 31L82 31L82 32L82 32L82 32L82 32L82 32L82 32L82 33L82 32L82 33L82 34L82 34L81 34L81 34L81 34L81 34L81 34L81 35L81 35L81 35L81 35L80 35L80 36L80 36L80 36L77 38L75 39L75 38L75 38L75 37L75 36L75 36L74 36L74 36L74 36L74 36L74 36L74 35L74 35L74 36L73 36L73 35L73 35L73 35L72 36L72 36L71 36L71 36L71 35L71 35L71 35L71 35L71 35L70 35L70 35L70 35L69 34L69 35L68 35L67 36L66 36L66 35L65 36L65 36L64 36L64 36L64 36L64 36L64 35L64 34L64 34L64 34L64 34L64 34L63 34L63 34L62 34L62 34L61 34L61 34L60 34L60 34L60 34L61 34L60 34L60 34L60 34L60 34L59 34L59 34L58 34L58 34L58 34L58 34L58 33L58 31L58 30L57 30L57 30L57 29L57 29L57 28L57 28L57 28L57 27L57 27L56 26L56 26L55 26L54 26L54 26L54 26L54 25L54 25L55 25L55 25L54 25L54 24L54 24L54 24L54 24L54 23L54 23L54 23L54 22L54 22L54 22L54 22L54 22L54 22L53 21L53 21L53 20L53 19L53 18L53 18L54 18L54 18L54 18L54 18L53 18L54 17L54 17L54 16L54 16L54 16L55 15L56 15L55 15L55 16L56 16L56 16L56 16L56 17L56 17L57 17L57 18L57 18L57 18L58 18L58 19L59 19L59 19L59 19L60 19L61 19L61 19L61 19L62 19L63 19L63 19L63 19L64 19L64 19L64 19L64 18L65 18L65 18L66 18L66 17L66 17L66 17L67 17L68 17L69 17L69 17L69 17L69 17L69 17L69 17L70 18L70 18L71 18L71 18L71 18L72 18L72 17L72 17L73 17L73 17L74 17L74 17L74 17L75 17L75 17L75 16L75 16L75 16L75 16L76 16L76 15L76 15L76 15L76 15L76 15L76 14L76 14L76 14L76 14L76 14L77 13L77 13L77 13L77 13L77 13L77 12L77 12L77 12L77 12L77 12L77 12L77 12L77 11L77 11L78 11L78 11L78 11L78 11L78 10L78 10L78 10L78 10L79 9L79 9L78 9L79 8L79 8L79 7L79 7L79 7L79 6L80 6L80 6L80 6L80 6L81 6L81 6L82 6L82 6L82 6L82 6L82 6ZM122 7L122 7L122 7L122 7L122 7L122 6L122 6L122 6L122 6L122 5L122 5L122 6L122 6L122 6L122 7L122 7ZM5 3L5 3L6 2L7 2L7 3L8 3L9 3L9 3L9 3L9 3L10 3L10 4L11 4L11 5L11 5L12 6L12 6L12 7L12 7L13 7L13 8L13 8L14 8L14 8L14 8L15 9L17 10L18 10L18 11L18 12L19 12L19 12L20 13L20 13L20 14L20 14L20 14L21 14L21 14L22 15L22 15L22 15L22 14L22 14L22 14L22 14L22 14L22 14L23 15L24 15L24 15L24 16L24 16L25 16L25 16L25 16L26 17L27 17L27 18L27 18L27 19L27 19L28 19L28 20L28 20L30 20L30 20L30 20L30 21L30 21L29 22L28 22L29 22L30 22L30 21L30 21L31 21L31 21L32 21L32 21L32 21L33 22L33 22L33 22L33 23L32 23L32 23L32 24L32 24L32 24L32 24L32 24L32 25L32 25L32 26L32 26L33 26L34 26L34 26L35 27L35 27L35 27L35 27L36 27L36 28L36 29L36 29L36 30L36 30L37 30L37 30L37 31L37 31L37 31L37 31L36 32L36 32L36 32L36 33L37 33L37 32L37 32L38 32L38 32L38 32L39 32L39 32L40 32L40 32L41 34L42 34L42 35L42 35L42 35L41 36L41 36L41 36L41 37L41 37L41 37L41 38L41 38L41 39L41 40L41 40L41 41L41 42L41 44L41 44L41 45L40 45L40 45L40 45L40 44L40 44L39 44L39 44L38 45L38 45L38 45L38 44L36 44L36 44L36 44L37 45L37 45L36 45L36 45L36 45L35 44L35 44L34 44L34 43L33 42L33 42L32 41L31 41L31 40L31 40L30 40L28 38L28 38L27 37L27 36L26 36L25 35L25 35L24 34L24 33L24 33L23 33L23 32L22 32L22 31L22 31L22 30L20 28L20 27L20 26L20 26L19 25L19 24L18 24L18 24L17 23L17 22L17 22L16 22L16 22L15 21L15 21L15 20L14 19L14 17L14 16L13 16L13 15L11 14L11 14L10 14L10 14L10 14L10 13L9 12L9 12L9 12L8 11L8 11L8 10L8 10L7 9L6 9L6 8L5 8L5 8L4 7L4 7L3 6L1 5L1 4L1 4L1 4L0 2L0 2L0 2L0 2L0 2L0 1L0 1L1 1L1 1L2 1L2 1L2 2L3 2L4 2L4 2L5 3ZM1 0L0 0L0 0L0 0L0 0L0 0L1 0L1 0L1 0Z"/></mask><path d="M107 65L107 65L107 65L107 64L107 64L108 64L108 64L108 63L109 63L109 63L109 63L109 63L109 64L109 64L108 64L108 64L107 64L107 65ZM103 63L103 63L102 63L102 63L103 63L103 63L103 63L103 63L103 63L103 63ZM109 62L109 62L109 62L109 62L109 62L109 62L109 62L109 62L109 62ZM96 59L96 59L97 59L97 59L97 60L97 60L97 60L97 60L98 60L98 60L98 60L98 61L99 61L99 61L99 62L98 62L98 62L98 62L97 62L97 62L97 62L96 62L96 62L96 61L96 61L95 61L94 60L94 60L94 60L93 60L92 60L92 60L92 60L92 59L92 59L92 59L92 59L93 59L93 59L94 59L94 59L95 59L95 59L96 58L96 58L96 59ZM115 57L115 57L115 57L116 57L116 57L116 58L115 58L115 58L115 58L115 58L115 58L115 58L115 59L115 59L115 59L115 60L114 60L114 61L114 61L113 61L113 62L112 62L112 62L111 62L111 62L110 62L110 62L110 62L110 62L110 62L110 62L110 61L110 61L110 61L110 60L110 60L110 60L111 59L111 59L111 58L111 59L112 59L112 59L112 59L112 59L112 59L113 58L113 58L113 58L113 58L113 58L114 58L114 57L115 57L115 57L115 57L115 57ZM79 56L79 56L78 56L78 56L78 56L79 56L79 56L79 56ZM107 55L107 56L107 56L107 55L107 55L107 55L108 55L108 55L108 55L107 55L107 55ZM94 56L94 56L93 56L93 56L93 56L94 55L94 55L94 55L94 55L94 55L94 55L94 55L94 55L94 56L94 56L94 56L94 56L94 56ZM108 55L108 55L107 55L107 55L108 54L108 54L108 54L109 54L108 55ZM83 56L82 56L82 57L82 57L82 57L81 57L81 57L80 57L80 56L80 56L80 56L80 56L80 56L81 56L81 56L80 55L81 54L82 54L82 54L83 54L83 54L83 55L83 55L83 56ZM112 55L112 55L112 55L112 55L111 56L111 55L111 55L111 55L111 54L111 54L112 55L112 55L112 54L112 54L112 54L112 54L112 55ZM111 54L110 54L110 55L110 55L110 55L110 55L110 55L110 55L109 56L109 55L109 56L109 56L109 55L108 55L108 55L109 55L109 55L109 55L109 54L109 54L109 54L109 54L109 54L110 54H110L110 54L111 54L111 54L111 54ZM169 55L168 55L168 55L167 55L167 54L168 54L168 54L168 54H168L169 55L169 55ZM86 55L86 55L86 55L86 54L86 54L86 54L86 54L87 54L87 54L86 55ZM92 54L92 54L92 54L92 54L92 54L92 54L92 54L92 54L92 54L92 54ZM113 54L114 54L114 54L114 54L115 54L115 54L116 54L116 55L115 55L113 55L113 55L112 55L113 54L113 54L113 54L113 54L113 54ZM126 54L127 54L127 54L127 54L127 54L126 54L126 54L126 54ZM106 56L106 56L106 56L105 56L105 56L105 56L104 56L104 56L103 57L102 57L102 57L102 57L102 56L102 56L101 56L101 57L100 57L100 57L100 57L100 57L100 57L99 57L98 56L97 56L96 56L96 56L95 57L95 56L95 56L95 56L95 56L95 56L95 55L95 55L95 55L95 55L96 55L96 55L97 54L97 54L97 54L98 54L98 54L98 54L98 54L99 55L99 55L100 55L100 55L101 55L101 55L101 56L102 56L102 56L102 55L102 55L102 55L103 55L103 55L103 55L104 55L104 55L104 56L105 56L105 56L105 56L105 55L105 55L106 55L106 55L106 55L107 54L107 54L106 54L106 54L107 54L107 54L107 54L107 55L107 55L107 55L107 55L107 55L107 56L107 56L106 56ZM138 55L137 55L138 54L138 54L138 54L139 54L138 54L138 54L138 55ZM89 54L89 55L89 55L90 54L90 54L90 54L90 54L91 55L91 55L91 55L91 55L91 54L91 54L92 54L92 55L92 55L92 56L92 56L92 56L92 56L92 56L92 56L92 56L92 56L92 56L92 56L91 56L91 56L91 56L91 56L91 56L91 56L91 57L91 56L91 56L90 57L90 57L90 56L90 56L90 56L89 56L89 57L88 57L88 57L88 57L87 57H87L86 57L86 57L85 57L85 57L85 57L85 58L84 58L84 58L84 57L83 57L83 57L83 57L83 56L83 56L83 56L84 55L84 55L84 55L84 55L85 55L85 55L86 55L86 55L86 55L86 55L87 55L87 56L87 56L87 56L88 56L88 56L88 56L89 56L89 56L89 55L88 55L88 55L88 55L88 55L87 55L87 54L87 54L87 54L88 54L88 54L88 54L89 54L89 54L89 54ZM78 54L78 54L79 55L79 55L79 55L79 55L78 56L78 56L77 56L77 56L77 56L77 57L77 57L77 56L77 56L77 56L77 56L77 56L76 55L76 55L75 55L75 55L75 55L74 54L74 54L74 54L74 54L74 54L75 54L76 54L76 54L76 54L77 54L77 54L78 54L78 54ZM134 53L134 54L133 54L133 53L133 53L133 53L133 52L134 53L134 53L134 53ZM122 52L122 52L122 52L122 52L121 53L121 53L121 53L120 53L120 53L119 53L119 53L119 53L118 53L118 53L118 53L118 53L119 52L119 52L120 52L120 52L121 52L121 52L122 52L122 52ZM124 52L124 52L124 52L124 51L125 52L125 52L124 52L124 52ZM167 54L166 55L165 55L165 55L164 55L164 55L164 54L165 53L165 52L166 52L166 51L166 51L167 51L168 51L168 51L169 51L169 52L169 52L169 53L168 54L168 54L167 54ZM139 53L139 53L139 53L139 53L139 53L138 53L139 52L139 52L139 52L139 52L139 51L139 51L140 51L140 51L140 51L140 50L140 50L140 50L140 50L141 50L141 50L141 50L141 50L141 51L141 52L140 52L140 52L140 52L140 53L140 53L140 53L139 53ZM142 50L142 50L142 50L142 50L141 50L141 50L141 50L142 50L142 50ZM74 50L74 50L74 50L74 50L74 50L74 50L74 50L74 50ZM129 50L129 50L129 50L129 50L129 50L129 50L129 50L129 50L129 50L129 50ZM99 50L98 50L98 50L98 50L99 50L99 50L99 50ZM72 50L72 50L71 50L71 50L70 50H70L69 50H69L69 50L69 50L68 50L68 50L68 50L68 49L69 49L72 49L73 49L73 49L72 50L72 50ZM78 49L78 49L77 49L77 49L77 49L78 49L78 49L78 49L78 49L78 49L78 49L78 49ZM152 48L152 49L152 48L152 48L152 48L152 48L153 48L153 48L152 48ZM39 48L38 48L38 48L38 48L38 48L39 48L39 48L39 48L39 48ZM152 48L152 48L152 48L152 47L153 48L152 48ZM153 47L153 47L153 47L153 47L153 47L153 47L153 47ZM152 47L152 48L152 48L151 48L151 49L151 49L150 49L150 49L150 49L150 47L150 48L150 48L150 47L150 47L150 47L150 46L150 46L151 46L151 47L151 47L152 47ZM47 46L47 46L48 46L48 46L48 46L49 46L49 47L50 47L50 47L50 47L50 47L51 47L51 47L51 47L52 48L52 48L52 49L52 49H53L53 49L54 49L55 49L55 49L56 49L56 49L57 49L57 49L58 49L58 49L58 49L59 49L59 49L59 49L59 49L60 48L60 48L60 48L60 47L60 47L60 47L61 47L61 47L62 48L62 48L62 48L62 48L63 48L63 48L64 48L64 48L64 49L65 49L65 49L65 49L66 49L66 49L67 49L67 50L67 50L67 50L68 50L68 51L68 51L68 52L69 52L70 52L71 52L72 52L72 52L73 52L73 52L74 52L74 52L74 53L74 53L74 54L74 55L74 55L74 56L74 56L75 56L75 56L75 56L74 56L74 56L74 56L74 56L73 56L72 56L71 55L70 54L69 54L69 54L68 55L68 55L68 55L67 55L66 55L65 55L63 54L62 54L61 54L60 54L60 54L57 53L56 53L54 52L54 52L53 52L53 52L52 52L52 52L51 52L51 52L51 52L50 52L49 52L49 52L48 52L48 52L48 52L47 51L46 51L44 51L44 51L43 51L43 51L43 50L43 50L44 50L44 50L42 49L42 49L41 49H41L40 49L40 49L39 49L39 49L39 49L39 49L39 49L39 48L39 48L39 48L39 48L39 49L40 49L40 49L40 48L40 48L40 47L40 48L41 48L41 47L41 46L41 46L42 45L42 45L42 46L43 46L43 46L44 46L44 46L45 46L45 46L45 46L46 46L46 45L46 45L47 46L47 46ZM111 46L111 46L111 46L111 45L111 45L111 45L111 46ZM98 47L98 47L98 47L98 47L97 46L98 46L97 45L98 45L98 45L98 46L98 47ZM68 45L68 45L67 45L67 45L67 45L68 45L68 45L68 45ZM145 45L145 45L145 45L145 45L145 45L145 45L144 44L145 44L145 44L145 44L145 45L145 45ZM153 44L153 45L153 45L153 45L152 45L153 46L153 46L153 46L153 46L152 47L152 47L152 47L152 47L152 47L151 47L151 46L151 46L150 46L150 46L150 46L151 46L151 46L151 46L151 45L151 45L151 44L151 44L151 44L152 44L152 44L152 44L152 43L152 44L152 44L152 44L152 44L152 44L153 44ZM146 45L145 46L146 45L146 44L146 44L146 43L146 43L147 43L146 44L146 45L146 45ZM28 44L27 44L27 43L27 43L27 43L27 43L28 43L28 43L28 44ZM110 43L110 43L110 43L109 43L109 43L109 43L110 43L110 43ZM104 44L103 44L103 43L103 43L103 43L103 42L103 42L103 42L103 42L103 42L103 42L104 42L104 43L104 44ZM106 43L106 43L106 43L106 43L105 43L105 43L105 43L105 43L104 43L105 42L105 42L105 42L105 41L105 41L106 41L106 40L106 40L106 40L106 42L106 42L106 43ZM108 40L108 41L108 41L108 41L108 41L108 41L108 41L108 41L107 41L107 41L107 42L107 42L107 42L107 42L108 42L108 43L108 43L108 43L108 43L108 43L107 43L107 43L107 43L107 44L107 44L107 44L107 44L106 44L106 44L106 44L106 44L106 44L106 43L106 43L106 43L106 43L106 43L106 42L106 42L106 42L107 42L107 41L107 40L107 40L108 39L108 39L108 40L108 40ZM148 39L148 39L148 39L147 39L147 38L148 39L148 39ZM108 38L108 39L108 39L107 38L107 38L107 38L107 38L108 38L108 38L108 38ZM129 36L128 36L128 36L128 36L129 36L129 36ZM128 37L128 37L127 37L127 37L127 37L127 37L127 37L127 37L126 37L126 37L126 37L126 37L127 36L127 36L128 36L128 36L128 36L128 36L128 36L128 37ZM129 36L129 36L129 36L129 36L129 36L129 36L129 36L129 36L129 36L129 36ZM82 36L82 36L82 36L82 36L82 36L82 36ZM125 35L125 36L125 35L125 35L125 35L125 35L125 35ZM82 37L81 38L80 38L81 37L80 37L80 36L80 36L81 35L81 35L81 35L81 36L81 36L81 36L81 36L82 37L82 37L81 37L82 37ZM122 34L123 35L123 35L123 35L123 35L123 35L124 36L124 36L124 36L123 37L123 37L122 37L122 37L122 37L122 37L122 37L121 37L120 37L120 36L120 36L120 36L119 36L119 36L119 35L119 35L119 34L120 35L120 34L121 34L122 34L122 34ZM127 34L126 34L126 34L126 34L126 34L127 34ZM45 34L45 34L45 34L45 34L45 34L44 34L45 34L45 34L45 34ZM47 34L47 34L47 34L47 34L47 34L47 34L48 34L47 34ZM133 34L134 34L135 34L136 34L136 34L136 35L137 35L137 35L137 36L137 36L137 36L138 36L138 36L137 37L137 37L136 36L135 36L134 36L134 36L134 36L134 35L133 35L133 35L132 35L132 36L132 36L132 36L132 36L131 36L131 35L130 35L130 35L130 35L130 35L130 35L130 35L130 35L130 35L129 36L129 36L129 36L128 36L128 36L128 35L128 35L127 35L127 35L127 35L127 35L127 35L127 35L126 36L126 36L126 36L126 36V35L126 35L126 35L127 34L127 34L129 34L130 34L130 34L130 34L131 34L131 34L131 34L131 34L132 34L132 33L132 33L132 33L133 33L133 33L133 34ZM20 35L20 35L20 35L20 35L20 34L20 34L19 34L19 33L19 33L20 33L20 34L20 34L20 35L20 35L20 35ZM50 34L50 34L50 35L50 35L50 35L49 35L49 35L49 35L49 34L49 34L49 35L48 35L48 35L48 35L48 34L48 34L48 34L48 34L48 34L48 33L48 33L48 32L49 32L49 32L50 33L50 33L50 34L50 34ZM19 33L19 33L19 33L18 33L18 33L18 33L18 33L18 32L19 32L19 33L19 33ZM151 31L151 31L151 31L151 30L151 30L151 30L151 30L151 31ZM18 32L18 32L17 31L17 31L17 31L17 31L17 30L17 30L17 30L17 30L18 31L18 31L18 32ZM119 32L119 32L119 32L119 31L118 31L118 31L118 30L119 30L119 30L119 30L119 31L119 32L119 32ZM111 30L111 30L110 30L110 30L110 30L111 30ZM119 30L120 30L120 30L119 30L118 30L117 30L117 30L117 30L116 30L117 30L117 30L118 30L119 30ZM108 30L108 30L108 30L108 30L108 30L108 29L108 30ZM136 29L136 29L136 30L136 30L136 30L136 30L136 30L136 30L136 30L135 30L135 30L135 30L135 30L134 30L133 30L133 30L134 29L135 29L135 29L136 29L136 29ZM115 29L115 29H115L116 29L116 29L116 29L116 29L116 29L116 30L116 30L116 30L116 30L115 30L114 30L114 30L113 30L113 30L112 30L113 29L113 29L113 29L114 29L115 29ZM156 29L157 29L157 29L158 29L159 29L160 29L161 29L161 30L160 30L160 30L159 30L159 30L158 30L158 30L158 30L157 29L156 29L155 29L156 29ZM53 29L53 29L52 29L53 28L53 29L53 29ZM42 29L42 29L42 30L42 30L42 31L43 32L45 32L44 33L44 33L44 33L44 34L44 34L44 34L44 34L44 34L44 34L44 34L43 34L43 34L43 34L43 34L42 34L42 33L41 33L41 33L41 32L41 32L41 32L41 32L41 31L40 31L40 31L40 31L39 31L39 31L39 31L38 30L38 30L38 30L39 30L39 30L39 29L39 29L39 29L39 29L40 29L40 28L40 29L40 29L40 29L41 29L41 28L41 28L41 28L42 28L42 29L42 29ZM110 29L109 29L109 29L109 28L109 28L109 28L110 29L110 29L110 29L110 29ZM127 29L127 29L127 29L126 29L126 29L125 29L124 29L124 29L124 29L124 28L125 28L125 28L126 28L126 28L127 28L127 29L127 29ZM108 27L108 27L108 28L108 28L109 27L109 27L109 27L109 28L109 28L109 28L109 28L109 28L109 28L108 28L108 29L108 29L108 29L108 29L108 29L108 28L108 28L108 28L107 28L107 29L107 29L107 28L107 28L107 27L107 27L108 27L108 27ZM56 27L55 28L55 28L55 27L55 27L55 26L56 26L56 26L56 27L56 27L56 27L56 27ZM154 27L153 27L153 27L153 27L153 26L153 26L153 26L154 27L154 27L154 27ZM15 29L15 29L14 29L14 29L14 28L13 28L13 27L13 26L14 26L14 26L14 27L15 27L15 28L15 28L15 28L15 28L16 29L16 29L16 29L15 29ZM138 28L138 28L138 28L137 27L137 27L137 27L137 27L137 26L137 26L138 26L138 26L138 26L138 26L138 27L138 28ZM138 26L138 26L138 26L136 26L136 26L136 26L136 26L136 26L136 26L136 26L137 26L137 26L137 26L138 26L137 26L138 26ZM155 25L156 25L156 25L156 25L157 25L157 25L158 26L158 26L159 27L159 27L159 27L158 27L158 27L158 27L157 27L157 27L157 27L156 26L156 26L156 26L156 26L156 26L155 26L155 25L155 25ZM124 26L124 26L124 26L123 26L124 25L124 25L124 26L124 26ZM137 25L136 25L136 24L136 24L136 24L137 24L137 24L137 24L137 24L137 25ZM103 24L103 24L103 25L103 24L102 24L102 24L102 25L102 25L102 24L102 24L103 24L103 24ZM148 25L149 26L149 25L150 26L150 26L150 26L150 26L150 26L150 27L150 27L151 28L151 28L151 28L151 28L150 29L150 29L150 30L150 30L150 31L150 31L150 32L151 33L152 34L152 33L152 32L152 32L152 32L152 32L152 32L152 33L152 34L153 34L153 34L153 34L153 34L153 35L153 35L154 35L154 35L155 36L155 36L156 35L156 35L156 35L157 34L157 34L158 33L158 33L158 32L158 32L159 32L159 32L159 31L160 31L161 31L162 31L162 30L162 30L162 30L162 30L162 30L163 29L164 29L164 28L165 28L165 29L166 29L168 30L168 30L168 30L169 30L169 30L170 30L170 31L171 31L172 32L172 32L174 32L174 32L174 32L174 32L175 32L176 32L176 32L176 33L177 33V33V34L177 35V36V36L177 37V38V39V40V40L177 41V42V43V44V44L177 45V46V47V47L177 47L176 48L176 48L176 49L177 49V50V50L177 51V52V53V54V54L177 55V56V57V58L177 58L176 58L176 57L176 57L175 56L175 56L173 54L173 54L173 54L173 54L173 54L173 53L173 53L173 54L172 54L172 54L171 54L171 54L170 54L170 54L170 54L170 53L170 54L169 54L169 54L169 54L169 54L168 54L169 54L169 54L169 53L169 53L169 52L169 52L169 52L169 52L169 51L169 51L169 51L168 51L168 51L168 50L168 50L169 50L169 50L169 50L169 50L170 50L170 50L169 50L168 50L168 50L168 49L168 49L168 49L169 49L168 49L168 48L168 48L168 48L167 47L167 47L167 46L166 45L166 45L167 45L166 45L166 45L166 45L166 44L166 44L166 44L166 44L166 44L166 44L166 44L166 44L166 44L165 43L165 43L165 43L165 43L164 43L164 43L162 42L162 42L162 42L162 42L162 42L162 42L162 42L161 41L161 41L161 41L160 41L159 41L158 40L158 40L157 40L156 40L155 40L155 40L155 40L154 40L153 39L152 38L152 38L152 38L153 38L153 38L152 38L152 38L152 38L152 38L151 38L151 38L151 38L150 37L150 37L150 37L150 37L150 37L150 37L149 37L149 37L149 37L149 36L148 36L149 35L149 35L149 35L149 34L149 34L149 34L148 35L148 35L148 36L148 36L148 36L148 36L148 36L148 37L148 37L148 37L148 38L147 38L147 38L146 38L146 38L146 38L145 38L145 38L145 37L145 37L145 36L145 36L145 35L144 35L143 34L143 34L142 34L142 34L142 34L142 33L142 33L143 33L143 33L144 33L145 33L145 33L146 33L146 32L146 32L147 32L147 32L148 32L148 32L148 32L148 33L149 33L149 32L149 32L149 32L149 32L149 32L149 31L149 31L149 31L149 31L150 31L150 31L149 31L148 31L147 31L147 31L146 31L145 31L144 31L144 31L144 31L143 31L143 31L142 31L142 30L142 30L142 30L142 29L142 29L141 29L141 28L139 28L139 28L139 28L139 28L138 28L138 28L138 28L138 28L138 27L139 27L139 27L139 26L139 26L139 26L139 26L139 26L140 26L141 25L142 25L142 25L142 25L142 24L142 24L144 24L144 24L144 24L145 24L146 25L147 25L148 25ZM36 24L36 24L36 24L36 25L36 25L36 25L36 25L35 25L35 25L35 24L35 24L35 24L35 24L35 24L36 24ZM125 24L125 24L125 25L125 25L126 25L126 25L126 26L126 26L126 26L126 26L125 26L125 26L125 26L125 26L124 26L124 26L125 25L124 25L124 24L124 24L124 24L124 24L124 24L124 24L125 24L125 24L125 24ZM124 24L124 25L123 25L123 24L123 24L124 24L124 24L124 24L124 24L124 24ZM33 24L32 24L32 24L32 24L32 24L32 24L33 24L33 24L33 24ZM138 23L138 23L138 23L139 23L139 23L139 24L140 24L139 24L139 24L139 24L139 24L138 24L138 24L138 24L138 24L137 23L137 23L137 23L137 23L137 24L137 24L138 24L138 24L138 24L137 24L137 24L137 24L137 24L136 24L136 24L136 24L136 24L135 23L135 23L136 23L136 23L136 23L136 23L136 23L137 23L137 23L138 23ZM13 25L12 25L12 25L12 24L12 24L12 24L12 24L12 23L12 23L12 23L13 23L13 24L13 24L13 25ZM37 23L37 23L37 23L38 23L38 24L38 24L38 24L38 24L38 24L37 23L36 24L36 23L36 23L36 23L36 23L36 23L36 23L36 23L37 23L37 23ZM133 23L132 23L132 23L132 23L132 22L133 23L133 23ZM124 23L124 23L124 23L124 23L124 22L124 22L124 22L124 23ZM37 22L37 22L36 22L36 22L36 22L36 22L36 22L36 22L37 22ZM31 21L31 21L31 20L31 20L31 20L31 20L31 20L31 21ZM124 20L124 20L124 20L124 20L124 20L124 20L124 20L124 20L124 20ZM124 20L124 20L124 20L124 20L124 19L124 19L124 19L124 20ZM32 20L32 20L31 20L32 19L32 19L32 20L32 20L32 20L32 20ZM33 20L33 20L33 20L33 19L33 19L33 19L33 20ZM35 19L35 20L34 19L34 19L34 19L34 19L35 19L35 19L35 19ZM30 20L30 20L30 20L29 20L29 20L28 19L28 19L28 19L28 19L28 19L28 18L28 18L29 19L29 19L29 19L30 19L30 19L30 20ZM32 19L32 19L32 19L31 18L32 18L32 18L32 18L32 19ZM31 19L31 19L30 19L30 19L30 19L30 19L29 19L29 19L29 19L29 18L29 18L30 18L30 19L31 19ZM34 18L34 18L34 18L34 18L34 18L34 19L34 19L34 19L34 18L34 18L34 18H34L34 18ZM36 18L36 18L36 18L36 19L36 19L36 19L36 19L36 19L36 19L36 19L36 19L36 19L36 19L36 19L35 19L35 19L35 18L35 18L35 18L36 18L36 18L36 18ZM28 19L28 19L28 19L27 18L27 18L27 18L27 18L27 17L27 17L28 18L28 18L28 18L28 18L28 18L28 19ZM9 17L10 18L10 18L10 19L10 19L10 19L10 20L10 20L10 20L10 20L9 19L9 19L8 19L8 19L8 18L7 17L8 17L8 17L8 17L8 17L9 17ZM28 17L28 18L28 17L28 17L27 17L27 17L26 17L26 17L26 17L26 16L26 16L28 17L28 17ZM115 19L114 20L114 20L113 20L113 20L113 21L113 21L112 21L112 21L112 21L110 22L110 22L109 22L108 21L108 21L108 21L108 21L107 21L107 21L104 21L104 21L103 21L102 21L102 21L102 21L101 21L100 21L99 21L98 21L98 21L98 21L97 21L97 21L96 22L96 22L96 22L96 23L96 23L96 24L96 24L96 25L96 25L97 26L97 26L97 26L98 27L98 27L98 28L98 28L99 28L99 28L100 28L100 28L100 27L101 27L101 26L102 26L102 26L102 26L102 26L102 26L103 26L103 26L104 26L104 26L104 26L104 26L106 26L106 26L107 26L107 25L107 25L107 25L107 25L107 25L108 25L108 25L109 25L109 25L109 26L109 26L109 26L108 26L108 26L108 26L108 26L107 26L107 26L107 26L106 27L106 27L105 28L105 28L104 29L104 29L103 29L103 29L102 30L102 30L102 30L102 30L101 30L101 30L101 30L101 30L102 30L102 31L102 31L102 31L103 31L103 32L103 32L104 33L104 33L105 34L105 34L105 34L105 34L105 35L105 35L105 35L105 36L104 36L104 36L104 36L105 37L105 37L105 37L105 37L106 37L106 38L106 38L106 38L106 38L106 38L106 38L106 38L106 38L107 38L107 38L107 39L107 39L107 39L107 39L107 39L106 39L106 39L106 40L106 40L106 40L105 40L104 40L104 40L104 40L104 40L104 41L104 41L103 41L102 41L102 41L102 41L102 40L102 40L102 39L102 39L102 39L102 38L102 38L102 38L101 38L101 38L99 36L99 36L99 36L99 36L100 35L100 35L100 34L100 34L100 33L100 33L99 33L99 33L98 33L98 33L97 34L97 34L97 34L97 35L97 35L97 35L97 37L97 37L97 37L97 38L97 40L97 40L97 41L97 42L97 42L97 42L97 43L97 44L97 44L97 44L97 44L96 44L96 44L96 44L95 44L95 44L95 44L95 44L94 44L94 44L93 43L93 43L93 42L94 42L94 41L94 41L94 40L94 40L94 40L94 38L94 38L94 37L94 37L94 37L94 36L94 36L94 36L94 36L93 36L93 36L92 36L92 36L91 36L91 35L91 35L91 34L91 34L91 34L91 33L91 33L91 33L91 33L92 33L92 33L92 32L92 32L92 31L92 31L93 30L93 30L93 30L93 29L93 29L93 28L93 28L93 27L94 26L94 25L95 25L95 26L95 26L95 26L95 25L95 24L95 23L95 23L95 23L95 23L95 22L95 22L95 22L95 21L96 21L96 20L96 20L96 20L96 20L97 19L97 19L97 19L97 19L97 19L97 19L98 20L98 19L98 19L98 19L98 19L99 19L99 18L99 18L99 18L99 18L100 18L100 18L100 18L101 18L101 18L101 18L101 18L101 18L102 18L102 18L102 18L103 18L104 19L105 19L106 19L106 19L106 19L107 19L107 19L107 19L107 19L108 19L108 19L111 19L111 19L112 19L113 18L113 18L113 18L114 17L114 17L114 17L114 17L114 17L115 16L115 16L116 16L116 16L116 17L116 17L116 17L116 17L115 18L115 18L115 19ZM25 15L25 15L25 15L25 15L25 16L25 16L24 16L24 16L24 15L24 15L24 15L24 15L25 14L25 15ZM126 19L126 20L126 19L126 19L126 19L126 19L127 18L127 18L127 18L127 18L127 18L128 17L128 17L129 17L129 17L129 17L129 17L129 17L129 18L129 18L129 19L128 19L128 19L128 20L128 20L128 20L129 20L129 21L129 21L129 21L130 21L130 22L130 22L130 22L129 21L128 21L128 21L128 21L127 21L126 21L126 21L126 21L126 22L126 22L126 22L126 22L126 24L127 24L128 25L128 26L128 26L128 26L128 26L127 25L127 25L126 24L126 24L126 24L125 24L125 23L125 23L125 22L125 22L126 22L125 21L125 21L125 21L125 20L125 20L125 20L125 20L125 19L125 19L124 18L124 18L125 17L125 17L125 16L125 16L125 16L126 15L126 14L126 14L127 14L127 14L127 14L126 15L126 15L126 16L126 16L127 16L127 17L127 17L127 18L127 18L126 18L125 19L125 19L125 19L125 19L126 19ZM8 15L8 15L8 14L7 14L8 14L8 14L8 14L8 14L8 15ZM128 15L128 15L128 15L128 14L128 13L128 13L129 13L129 13L129 13L129 14L129 15L128 15ZM117 12L117 13L116 12L116 12L117 12L117 12L117 12L117 12ZM5 14L5 14L4 14L4 13L3 13L3 13L3 12L2 12L2 12L2 12L2 12L2 12L3 12L3 12L4 12L4 12L4 12L5 13L5 13L5 13L5 14ZM53 12L53 12L52 12L53 11L53 11L53 12ZM41 12L41 12L40 12L40 11L40 11L40 11V11L41 11L41 11L41 11L41 11L41 11L41 12L41 12ZM43 11L43 11L42 11L42 10L42 10L43 10L43 11ZM87 10L87 10L86 10L86 10L86 10L87 10L87 10L87 10ZM118 10L118 10L117 9L117 9L117 9L117 9L117 8L117 8L117 9L117 9L118 9L118 10ZM122 8L122 8L122 8L122 8L122 8L122 8L122 8L122 8L122 8ZM122 8L122 8L121 8L121 7L122 7L122 8L122 8ZM88 7L88 7L88 7L87 7L87 7L87 7L87 7L88 7ZM51 8L50 9L50 8L50 8L50 8L50 8L50 8L50 8L50 8L49 7L49 7L50 7L50 6L50 7L51 7L51 8L51 8L51 8ZM82 6L83 6L83 6L83 6L84 6L84 6L85 6L86 7L86 7L86 7L86 7L86 7L86 7L86 7L86 8L87 8L87 8L87 8L87 8L87 8L87 9L87 9L86 9L86 8L86 9L86 9L85 9L85 9L84 9L85 9L85 9L86 10L86 10L85 10L86 10L86 10L86 11L86 11L86 11L86 11L87 11L86 11L87 12L87 12L87 12L87 12L87 12L87 12L87 12L87 12L88 13L88 14L88 14L88 14L88 14L88 14L88 15L88 15L87 15L87 15L88 15L88 16L88 16L89 16L90 17L90 18L91 18L92 19L92 19L92 19L91 19L90 20L89 19L89 19L88 19L88 19L88 18L88 19L88 19L88 19L88 19L87 20L87 20L87 20L86 21L86 22L86 23L86 24L86 25L86 25L86 25L86 26L86 26L86 26L85 26L85 26L84 27L84 27L84 27L84 27L83 27L83 27L83 27L83 27L83 27L83 27L83 28L83 28L83 28L83 28L82 28L82 29L82 29L82 29L82 29L81 29L81 30L82 29L82 30L82 30L82 30L82 30L82 31L82 31L82 31L82 31L82 31L82 32L82 32L82 32L82 32L82 32L82 32L82 33L82 32L82 33L82 34L82 34L81 34L81 34L81 34L81 34L81 34L81 35L81 35L81 35L81 35L80 35L80 36L80 36L80 36L77 38L75 39L75 38L75 38L75 37L75 36L75 36L74 36L74 36L74 36L74 36L74 36L74 35L74 35L74 36L73 36L73 35L73 35L73 35L72 36L72 36L71 36L71 36L71 35L71 35L71 35L71 35L71 35L70 35L70 35L70 35L69 34L69 35L68 35L67 36L66 36L66 35L65 36L65 36L64 36L64 36L64 36L64 36L64 35L64 34L64 34L64 34L64 34L64 34L63 34L63 34L62 34L62 34L61 34L61 34L60 34L60 34L60 34L61 34L60 34L60 34L60 34L60 34L59 34L59 34L58 34L58 34L58 34L58 34L58 33L58 31L58 30L57 30L57 30L57 29L57 29L57 28L57 28L57 28L57 27L57 27L56 26L56 26L55 26L54 26L54 26L54 26L54 25L54 25L55 25L55 25L54 25L54 24L54 24L54 24L54 24L54 23L54 23L54 23L54 22L54 22L54 22L54 22L54 22L54 22L53 21L53 21L53 20L53 19L53 18L53 18L54 18L54 18L54 18L54 18L53 18L54 17L54 17L54 16L54 16L54 16L55 15L56 15L55 15L55 16L56 16L56 16L56 16L56 17L56 17L57 17L57 18L57 18L57 18L58 18L58 19L59 19L59 19L59 19L60 19L61 19L61 19L61 19L62 19L63 19L63 19L63 19L64 19L64 19L64 19L64 18L65 18L65 18L66 18L66 17L66 17L66 17L67 17L68 17L69 17L69 17L69 17L69 17L69 17L69 17L70 18L70 18L71 18L71 18L71 18L72 18L72 17L72 17L73 17L73 17L74 17L74 17L74 17L75 17L75 17L75 16L75 16L75 16L75 16L76 16L76 15L76 15L76 15L76 15L76 15L76 14L76 14L76 14L76 14L76 14L77 13L77 13L77 13L77 13L77 13L77 12L77 12L77 12L77 12L77 12L77 12L77 12L77 11L77 11L78 11L78 11L78 11L78 11L78 10L78 10L78 10L78 10L79 9L79 9L78 9L79 8L79 8L79 7L79 7L79 7L79 6L80 6L80 6L80 6L80 6L81 6L81 6L82 6L82 6L82 6L82 6L82 6ZM122 7L122 7L122 7L122 7L122 7L122 6L122 6L122 6L122 6L122 5L122 5L122 6L122 6L122 6L122 7L122 7ZM5 3L5 3L6 2L7 2L7 3L8 3L9 3L9 3L9 3L9 3L10 3L10 4L11 4L11 5L11 5L12 6L12 6L12 7L12 7L13 7L13 8L13 8L14 8L14 8L14 8L15 9L17 10L18 10L18 11L18 12L19 12L19 12L20 13L20 13L20 14L20 14L20 14L21 14L21 14L22 15L22 15L22 15L22 14L22 14L22 14L22 14L22 14L22 14L23 15L24 15L24 15L24 16L24 16L25 16L25 16L25 16L26 17L27 17L27 18L27 18L27 19L27 19L28 19L28 20L28 20L30 20L30 20L30 20L30 21L30 21L29 22L28 22L29 22L30 22L30 21L30 21L31 21L31 21L32 21L32 21L32 21L33 22L33 22L33 22L33 23L32 23L32 23L32 24L32 24L32 24L32 24L32 24L32 25L32 25L32 26L32 26L33 26L34 26L34 26L35 27L35 27L35 27L35 27L36 27L36 28L36 29L36 29L36 30L36 30L37 30L37 30L37 31L37 31L37 31L37 31L36 32L36 32L36 32L36 33L37 33L37 32L37 32L38 32L38 32L38 32L39 32L39 32L40 32L40 32L41 34L42 34L42 35L42 35L42 35L41 36L41 36L41 36L41 37L41 37L41 37L41 38L41 38L41 39L41 40L41 40L41 41L41 42L41 44L41 44L41 45L40 45L40 45L40 45L40 44L40 44L39 44L39 44L38 45L38 45L38 45L38 44L36 44L36 44L36 44L37 45L37 45L36 45L36 45L36 45L35 44L35 44L34 44L34 43L33 42L33 42L32 41L31 41L31 40L31 40L30 40L28 38L28 38L27 37L27 36L26 36L25 35L25 35L24 34L24 33L24 33L23 33L23 32L22 32L22 31L22 31L22 30L20 28L20 27L20 26L20 26L19 25L19 24L18 24L18 24L17 23L17 22L17 22L16 22L16 22L15 21L15 21L15 20L14 19L14 17L14 16L13 16L13 15L11 14L11 14L10 14L10 14L10 14L10 13L9 12L9 12L9 12L8 11L8 11L8 10L8 10L7 9L6 9L6 8L5 8L5 8L4 7L4 7L3 6L1 5L1 4L1 4L1 4L0 2L0 2L0 2L0 2L0 2L0 1L0 1L1 1L1 1L2 1L2 1L2 2L3 2L4 2L4 2L5 3ZM1 0L0 0L0 0L0 0L0 0L0 0L1 0L1 0L1 0Z" fill="var(--fill-0,#71B219)" stroke="var(--stroke-0,white)" mask="url(#path-1-inside-1_0_135)"/></g></svg>