<svg preserveAspectRatio="none" width="100%" height="100%" overflow="visible" style="display: block;" viewBox="0 0 16.8426 25.107" fill="none" xmlns="http://www.w3.org/2000/svg">
<g id="IE">
<mask id="path-1-inside-1_0_131" fill="white">
<path d="M12.2395 1.84489L11.6287 2.27559L11.5338 2.43884L11.3619 3.09588L11.3412 3.2824L11.1445 3.6267L10.9588 4.00938L10.7428 4.15753L10.4209 4.27549L10.2379 4.39207L10.0068 4.33309L9.71516 4.34271L9.56935 4.47302L9.5762 4.57315L9.66289 4.68697L9.91878 4.86257L10.2035 5.0203L10.1719 5.15886L10.0192 5.3152L9.05208 5.70475L8.76454 5.93933L8.66412 6.0943L8.76731 6.35358L9.53908 7.12857L9.66978 7.21359L9.78393 7.66488L10.4649 7.85279L10.7442 8.13397L10.9835 8.20119L11.5049 8.1765L11.714 8.28211L11.8324 8.20119L11.9011 8.05305L12.34 7.67175L12.4844 7.50439L12.3978 7.27257L12.3042 7.09563L12.5711 6.74313L12.8944 6.39473L13.0567 6.4057L13.3332 6.61968L13.5616 6.91731L13.5919 7.14775L13.6345 7.3151L13.8505 7.67175L13.9894 7.79519L14.3636 7.86652L14.4517 8.00642L14.3843 8.52218L14.4407 8.69363L14.8327 8.70184L15.2496 8.66069L15.3954 8.6799L15.5454 8.57153L15.7765 8.45495L16.108 8.49471L16.2703 8.72515L16.3432 8.96246L16.0585 9.05162L15.7613 9.00361L15.6169 9.15861L15.6072 9.45766L15.7077 9.84306L15.9072 10.116L16.0654 10.7305L16.1974 11.4109L16.401 11.821L16.4437 12.3285L16.4134 12.5782L16.4505 13.0267L16.3639 13.1844L16.4285 13.6042L16.6693 14.4697L16.7752 14.9511L16.8426 15.9991L16.672 16.39L16.4437 16.7618L16.2937 17.2007L16.1795 17.6739L16.1094 18.4352L15.6141 19.324L15.4037 19.5449L15.1588 19.6806L15.6925 20.3007L15.2564 20.5764L14.7819 20.6628L14.2563 20.5078L13.9289 20.527L13.629 20.7272L13.5121 20.848L13.4172 20.7904L13.2204 20.2828L13.076 20.8068L12.7733 20.9742L12.2547 20.9385L11.388 21.0784L11.0537 21.2265L10.9148 21.4597L10.8116 21.7286L10.6754 21.8863L10.5227 21.97L9.85274 22.1675L9.72066 22.247L9.40974 22.6791L9.00393 22.9288L8.66689 23.0042L8.36835 22.7532L8.24593 22.6023L8.10697 22.5255L7.64751 22.5378L7.79193 22.616L7.88551 22.793L7.93089 23.1332L7.87862 23.4665L7.65162 23.6352L7.38197 23.6667L6.9555 24.011L6.39146 24.1043L6.08608 24.4212L4.22066 24.9561L4.11469 24.9616L3.85747 24.8258L3.5782 24.7654L3.30031 24.8079L2.51893 25.107L2.14058 25.048L2.62346 24.3045L3.27143 23.9287L3.33881 23.8258L3.12696 23.7751L1.89435 24.0357L1.4665 24.2579L1.03865 24.3224L1.23677 23.9822L1.78843 23.5172L2.0842 23.2978L2.26439 23.21L2.47077 22.9356L3.0527 22.6243L1.179 23.2662L0.686503 23.188L0.570924 23.0097L0.188503 23.0947L0.0426545 22.6599L0.610808 22.0029L0.942346 21.719L1.33581 21.5653L1.71412 21.3445L1.85447 21.0757L1.677 20.9892L0.543426 21.0578L0 21.0002L0.0288842 20.7862L0.129349 20.5489L0.692003 20.1429L0.997386 20.0784L1.26838 20.1169L1.53254 20.2211L1.7485 20.3569L2.38685 20.2787L2.11996 20.0195L2.0732 19.4914L1.86958 19.3144L2.12958 19.0689L2.42812 18.9208L2.92612 18.4119L3.10358 18.3337L4.08858 18.2102L5.15062 17.9427L6.203 17.5724L5.66235 17.3653L5.40373 17.0909L4.98827 17.6437L4.68839 17.855L3.8437 17.9688L3.57681 17.9071L3.19989 17.7356L3.08292 17.8001L2.97427 17.9318L2.41435 18.202L1.82692 18.2665L2.51066 17.7699L3.37874 16.9263L3.57131 16.6602L3.84647 16.1953L3.76116 15.9881L3.58231 15.8702L4.211 14.91L4.4325 14.7358L4.8342 14.707L5.12996 14.5547H5.26066L5.37758 14.4971L5.63624 14.2091L5.23727 14.0253L4.82458 13.9306L3.54931 14.0308L3.38146 14.0088L3.22327 13.9197L3.12008 13.7921L3.04304 13.4643L2.9495 13.3902H2.66196L2.37719 13.4903L2.17912 13.4807L1.98516 13.3367L2.29604 13.0006L1.89573 12.9211L1.49127 12.987L1.15423 12.8841L1.14458 12.6728L1.29731 12.4616L1.09642 12.2613L1.05515 12.0076L1.26838 11.8827L1.50089 11.9239L1.9755 11.736L2.58492 11.6455L2.0622 11.4603L1.85447 11.3012L1.84481 11.0584L1.88608 10.8499L2.49 10.4974L3.13385 10.3424L3.0857 10.1105L3.13108 9.85818L2.48039 9.78547L1.83792 9.96241L1.90673 9.48098L2.06081 9.04475L2.09108 8.7581L2.06081 8.44946L1.75954 8.58116L1.72512 8.14631L1.59581 7.84869L1.14873 8.05443L1.15973 7.6594L1.28904 7.38367L1.52154 7.26437L1.75266 7.31648L2.18323 7.31234L2.59869 7.10388L3.19712 7.05038L4.14912 7.11484L4.80393 7.70055L4.97316 7.59628L5.23454 7.22594L5.35697 7.18479L6.3447 7.34667L6.95689 7.55927L7.12062 7.49343L7.03254 7.08328L6.82208 6.79797L7.0862 6.42491L7.40812 6.17111L7.62412 6.04495L8.12074 5.88718L8.33808 5.73908L8.48255 5.25622L8.71228 4.85433L7.46455 5.06283L6.27731 4.5855L6.46577 4.24807L6.71616 4.05602L7.14812 3.90925L7.18939 3.73231L7.40812 3.58555L7.76993 3.19872L7.63651 2.6926L7.708 2.32222L7.96805 2.08081L8.0492 1.7338L8.16474 1.47728L8.693 1.3854L9.20066 1.14809L9.38362 1.17141L9.98482 1.11653L10.187 1.21256L10.1402 0.791445L10.5089 0.736609L10.652 0.820245L10.7153 1.11929L10.8831 1.30996L10.9354 1.64053L10.8226 1.89567L10.6341 2.09178L10.8061 2.29208L10.5406 2.65555L10.8267 2.50054L11.2353 2.14528L11.2133 1.85586L11.1445 1.48963L11.0303 1.15906L11.0826 0.794208L11.3124 0.56649L11.9163 0.451292L11.6687 0.037046L11.8887 0L12.1281 0.0864407L12.4803 0.408762L12.8476 0.662517L13.2273 0.862775L12.8614 1.26333L12.4115 1.54174L12.2395 1.84489ZM1.70173 9.64281L1.68523 9.82938L1.39908 9.59479L1.26016 9.33832L0.476001 9.2217L0.80204 8.96522L0.961617 9.04065L1.51604 9.05162L1.67146 9.15861L1.70173 9.64281Z"/>
</mask>
<path d="M12.2395 1.84489L11.6287 2.27559L11.5338 2.43884L11.3619 3.09588L11.3412 3.2824L11.1445 3.6267L10.9588 4.00938L10.7428 4.15753L10.4209 4.27549L10.2379 4.39207L10.0068 4.33309L9.71516 4.34271L9.56935 4.47302L9.5762 4.57315L9.66289 4.68697L9.91878 4.86257L10.2035 5.0203L10.1719 5.15886L10.0192 5.3152L9.05208 5.70475L8.76454 5.93933L8.66412 6.0943L8.76731 6.35358L9.53908 7.12857L9.66978 7.21359L9.78393 7.66488L10.4649 7.85279L10.7442 8.13397L10.9835 8.20119L11.5049 8.1765L11.714 8.28211L11.8324 8.20119L11.9011 8.05305L12.34 7.67175L12.4844 7.50439L12.3978 7.27257L12.3042 7.09563L12.5711 6.74313L12.8944 6.39473L13.0567 6.4057L13.3332 6.61968L13.5616 6.91731L13.5919 7.14775L13.6345 7.3151L13.8505 7.67175L13.9894 7.79519L14.3636 7.86652L14.4517 8.00642L14.3843 8.52218L14.4407 8.69363L14.8327 8.70184L15.2496 8.66069L15.3954 8.6799L15.5454 8.57153L15.7765 8.45495L16.108 8.49471L16.2703 8.72515L16.3432 8.96246L16.0585 9.05162L15.7613 9.00361L15.6169 9.15861L15.6072 9.45766L15.7077 9.84306L15.9072 10.116L16.0654 10.7305L16.1974 11.4109L16.401 11.821L16.4437 12.3285L16.4134 12.5782L16.4505 13.0267L16.3639 13.1844L16.4285 13.6042L16.6693 14.4697L16.7752 14.9511L16.8426 15.9991L16.672 16.39L16.4437 16.7618L16.2937 17.2007L16.1795 17.6739L16.1094 18.4352L15.6141 19.324L15.4037 19.5449L15.1588 19.6806L15.6925 20.3007L15.2564 20.5764L14.7819 20.6628L14.2563 20.5078L13.9289 20.527L13.629 20.7272L13.5121 20.848L13.4172 20.7904L13.2204 20.2828L13.076 20.8068L12.7733 20.9742L12.2547 20.9385L11.388 21.0784L11.0537 21.2265L10.9148 21.4597L10.8116 21.7286L10.6754 21.8863L10.5227 21.97L9.85274 22.1675L9.72066 22.247L9.40974 22.6791L9.00393 22.9288L8.66689 23.0042L8.36835 22.7532L8.24593 22.6023L8.10697 22.5255L7.64751 22.5378L7.79193 22.616L7.88551 22.793L7.93089 23.1332L7.87862 23.4665L7.65162 23.6352L7.38197 23.6667L6.9555 24.011L6.39146 24.1043L6.08608 24.4212L4.22066 24.9561L4.11469 24.9616L3.85747 24.8258L3.5782 24.7654L3.30031 24.8079L2.51893 25.107L2.14058 25.048L2.62346 24.3045L3.27143 23.9287L3.33881 23.8258L3.12696 23.7751L1.89435 24.0357L1.4665 24.2579L1.03865 24.3224L1.23677 23.9822L1.78843 23.5172L2.0842 23.2978L2.26439 23.21L2.47077 22.9356L3.0527 22.6243L1.179 23.2662L0.686503 23.188L0.570924 23.0097L0.188503 23.0947L0.0426545 22.6599L0.610808 22.0029L0.942346 21.719L1.33581 21.5653L1.71412 21.3445L1.85447 21.0757L1.677 20.9892L0.543426 21.0578L0 21.0002L0.0288842 20.7862L0.129349 20.5489L0.692003 20.1429L0.997386 20.0784L1.26838 20.1169L1.53254 20.2211L1.7485 20.3569L2.38685 20.2787L2.11996 20.0195L2.0732 19.4914L1.86958 19.3144L2.12958 19.0689L2.42812 18.9208L2.92612 18.4119L3.10358 18.3337L4.08858 18.2102L5.15062 17.9427L6.203 17.5724L5.66235 17.3653L5.40373 17.0909L4.98827 17.6437L4.68839 17.855L3.8437 17.9688L3.57681 17.9071L3.19989 17.7356L3.08292 17.8001L2.97427 17.9318L2.41435 18.202L1.82692 18.2665L2.51066 17.7699L3.37874 16.9263L3.57131 16.6602L3.84647 16.1953L3.76116 15.9881L3.58231 15.8702L4.211 14.91L4.4325 14.7358L4.8342 14.707L5.12996 14.5547H5.26066L5.37758 14.4971L5.63624 14.2091L5.23727 14.0253L4.82458 13.9306L3.54931 14.0308L3.38146 14.0088L3.22327 13.9197L3.12008 13.7921L3.04304 13.4643L2.9495 13.3902H2.66196L2.37719 13.4903L2.17912 13.4807L1.98516 13.3367L2.29604 13.0006L1.89573 12.9211L1.49127 12.987L1.15423 12.8841L1.14458 12.6728L1.29731 12.4616L1.09642 12.2613L1.05515 12.0076L1.26838 11.8827L1.50089 11.9239L1.9755 11.736L2.58492 11.6455L2.0622 11.4603L1.85447 11.3012L1.84481 11.0584L1.88608 10.8499L2.49 10.4974L3.13385 10.3424L3.0857 10.1105L3.13108 9.85818L2.48039 9.78547L1.83792 9.96241L1.90673 9.48098L2.06081 9.04475L2.09108 8.7581L2.06081 8.44946L1.75954 8.58116L1.72512 8.14631L1.59581 7.84869L1.14873 8.05443L1.15973 7.6594L1.28904 7.38367L1.52154 7.26437L1.75266 7.31648L2.18323 7.31234L2.59869 7.10388L3.19712 7.05038L4.14912 7.11484L4.80393 7.70055L4.97316 7.59628L5.23454 7.22594L5.35697 7.18479L6.3447 7.34667L6.95689 7.55927L7.12062 7.49343L7.03254 7.08328L6.82208 6.79797L7.0862 6.42491L7.40812 6.17111L7.62412 6.04495L8.12074 5.88718L8.33808 5.73908L8.48255 5.25622L8.71228 4.85433L7.46455 5.06283L6.27731 4.5855L6.46577 4.24807L6.71616 4.05602L7.14812 3.90925L7.18939 3.73231L7.40812 3.58555L7.76993 3.19872L7.63651 2.6926L7.708 2.32222L7.96805 2.08081L8.0492 1.7338L8.16474 1.47728L8.693 1.3854L9.20066 1.14809L9.38362 1.17141L9.98482 1.11653L10.187 1.21256L10.1402 0.791445L10.5089 0.736609L10.652 0.820245L10.7153 1.11929L10.8831 1.30996L10.9354 1.64053L10.8226 1.89567L10.6341 2.09178L10.8061 2.29208L10.5406 2.65555L10.8267 2.50054L11.2353 2.14528L11.2133 1.85586L11.1445 1.48963L11.0303 1.15906L11.0826 0.794208L11.3124 0.56649L11.9163 0.451292L11.6687 0.037046L11.8887 0L12.1281 0.0864407L12.4803 0.408762L12.8476 0.662517L13.2273 0.862775L12.8614 1.26333L12.4115 1.54174L12.2395 1.84489ZM1.70173 9.64281L1.68523 9.82938L1.39908 9.59479L1.26016 9.33832L0.476001 9.2217L0.80204 8.96522L0.961617 9.04065L1.51604 9.05162L1.67146 9.15861L1.70173 9.64281Z" fill="var(--fill-0, #71B219)" stroke="var(--stroke-0, white)" mask="url(#path-1-inside-1_0_131)"/>
</g>
</svg>
