<svg preserveAspectRatio="none" width="100%" height="100%" overflow="visible" style="display: block;" viewBox="0 0 17 25" fill="none" xmlns="http://www.w3.org/2000/svg"><g id="IE"><mask id="path-1-inside-1_0_131" fill="white"><path d="M12 2L12 2L12 2L11 3L11 3L11 4L11 4L11 4L10 4L10 4L10 4L10 4L10 4L10 5L10 5L10 5L10 5L10 5L10 5L9 6L9 6L9 6L9 6L10 7L10 7L10 8L10 8L11 8L11 8L12 8L12 8L12 8L12 8L12 8L12 8L12 7L12 7L13 7L13 6L13 6L13 7L14 7L14 7L14 7L14 8L14 8L14 8L14 8L14 8L14 9L15 9L15 9L15 9L16 9L16 8L16 8L16 9L16 9L16 9L16 9L16 9L16 10L16 10L16 10L16 11L16 11L16 12L16 12L16 13L16 13L16 13L16 14L17 14L17 15L17 16L17 16L16 17L16 17L16 18L16 18L16 19L15 20L15 20L16 20L15 21L15 21L14 20L14 20L14 21L14 21L13 21L13 20L13 21L13 21L12 21L11 21L11 21L11 22L11 22L11 22L10 22L10 22L10 22L9 23L9 23L9 23L8 23L8 23L8 22L8 22L8 23L8 23L8 23L8 24L8 24L7 24L7 24L6 24L6 24L4 25L4 25L4 25L4 25L3 25L2 25L2 25L3 24L3 24L3 24L3 24L2 24L2 24L1 24L1 24L2 24L2 23L2 23L2 23L3 23L1 23L1 23L1 23L0 23L0 23L1 22L1 22L1 22L2 21L2 21L2 21L0 21L0 21L0 21L0 20L1 20L1 20L1 20L2 20L2 20L2 20L2 20L2 20L2 19L2 19L2 19L3 18L3 18L4 18L5 18L6 18L6 17L5 17L5 18L5 18L4 18L4 18L3 18L3 18L3 18L2 18L2 18L2 18L3 17L4 17L4 16L4 16L4 16L4 15L4 15L5 15L5 15H5L5 14L6 14L5 14L5 14L4 14L3 14L3 14L3 14L3 14L3 13H3L2 14L2 14L2 13L2 13L2 13L2 13L1 13L1 13L1 12L1 12L1 12L1 12L2 12L2 12L3 12L2 12L2 11L2 11L2 11L2 10L3 10L3 10L3 10L2 10L2 10L2 10L2 9L2 9L2 8L2 9L2 8L2 8L1 8L1 8L1 7L2 7L2 7L2 7L3 7L3 7L4 7L5 8L5 8L5 7L5 7L6 7L7 8L7 8L7 7L7 7L7 6L7 6L8 6L8 6L8 6L8 5L9 5L8 5L6 5L6 4L7 4L7 4L7 4L7 4L8 3L8 3L8 2L8 2L8 2L8 2L9 1L9 1L9 1L10 1L10 1L10 1L10 1L11 1L11 1L11 1L11 2L11 2L11 2L11 2L10 3L11 2L11 2L11 2L11 2L11 1L11 1L11 1L12 0L12 0L12 0L12 0L12 0L13 1L13 1L13 1L12 2L12 2ZM2 10L2 10L1 10L1 9L0 9L1 9L1 9L2 9L2 9L2 10Z"/></mask><path d="M12 2L12 2L12 2L11 3L11 3L11 4L11 4L11 4L10 4L10 4L10 4L10 4L10 4L10 5L10 5L10 5L10 5L10 5L10 5L9 6L9 6L9 6L9 6L10 7L10 7L10 8L10 8L11 8L11 8L12 8L12 8L12 8L12 8L12 8L12 8L12 7L12 7L13 7L13 6L13 6L13 7L14 7L14 7L14 7L14 8L14 8L14 8L14 8L14 8L14 9L15 9L15 9L15 9L16 9L16 8L16 8L16 9L16 9L16 9L16 9L16 9L16 10L16 10L16 10L16 11L16 11L16 12L16 12L16 13L16 13L16 13L16 14L17 14L17 15L17 16L17 16L16 17L16 17L16 18L16 18L16 19L15 20L15 20L16 20L15 21L15 21L14 20L14 20L14 21L14 21L13 21L13 20L13 21L13 21L12 21L11 21L11 21L11 22L11 22L11 22L10 22L10 22L10 22L9 23L9 23L9 23L8 23L8 23L8 22L8 22L8 23L8 23L8 23L8 24L8 24L7 24L7 24L6 24L6 24L4 25L4 25L4 25L4 25L3 25L2 25L2 25L3 24L3 24L3 24L3 24L2 24L2 24L1 24L1 24L2 24L2 23L2 23L2 23L3 23L1 23L1 23L1 23L0 23L0 23L1 22L1 22L1 22L2 21L2 21L2 21L0 21L0 21L0 21L0 20L1 20L1 20L1 20L2 20L2 20L2 20L2 20L2 20L2 19L2 19L2 19L3 18L3 18L4 18L5 18L6 18L6 17L5 17L5 18L5 18L4 18L4 18L3 18L3 18L3 18L2 18L2 18L2 18L3 17L4 17L4 16L4 16L4 16L4 15L4 15L5 15L5 15H5L5 14L6 14L5 14L5 14L4 14L3 14L3 14L3 14L3 14L3 13H3L2 14L2 14L2 13L2 13L2 13L2 13L1 13L1 13L1 12L1 12L1 12L1 12L2 12L2 12L3 12L2 12L2 11L2 11L2 11L2 10L3 10L3 10L3 10L2 10L2 10L2 10L2 9L2 9L2 8L2 9L2 8L2 8L1 8L1 8L1 7L2 7L2 7L2 7L3 7L3 7L4 7L5 8L5 8L5 7L5 7L6 7L7 8L7 8L7 7L7 7L7 6L7 6L8 6L8 6L8 6L8 5L9 5L8 5L6 5L6 4L7 4L7 4L7 4L7 4L8 3L8 3L8 2L8 2L8 2L8 2L9 1L9 1L9 1L10 1L10 1L10 1L10 1L11 1L11 1L11 1L11 2L11 2L11 2L11 2L10 3L11 2L11 2L11 2L11 2L11 1L11 1L11 1L12 0L12 0L12 0L12 0L12 0L13 1L13 1L13 1L12 2L12 2ZM2 10L2 10L1 10L1 9L0 9L1 9L1 9L2 9L2 9L2 10Z" fill="var(--fill-0,#71B219)" stroke="var(--stroke-0,white)" mask="url(#path-1-inside-1_0_131)"/></g></svg>