<svg preserveAspectRatio="none" width="100%" height="100%" overflow="visible" style="display: block;" viewBox="0 0 6 18" fill="none" xmlns="http://www.w3.org/2000/svg"><g id="IL"><mask id="path-1-inside-1_0_230" fill="white"><path d="M6 3L6 3L5 3L5 4L5 4L5 4L5 5L5 5L4 4L4 4L4 4L4 4L4 4L3 4L3 5L3 5L3 6L3 6L3 7L3 7L3 7L3 7L3 7L3 7L3 7L3 7L4 8L4 8L4 8L3 8L3 8L3 9L2 9L2 9L3 9L3 9L4 9L4 9L5 9L4 10L4 10L4 10L4 10L5 10L4 11L4 12L4 12L4 12L4 13L4 14L4 14L3 15L4 15L3 16L3 16L3 16L3 17L2 18L2 17L2 16L2 16L2 15L1 14L1 13L1 13L1 12L0 11L0 10L0 10L0 9L1 9L1 9L1 8L1 8L2 7L2 6L3 4L3 3L3 2L3 2L4 2L4 2L4 2L5 1L5 1L5 1L5 1L5 1L6 0L6 0L6 0L6 0L6 0L6 0V1L6 1L6 1L6 1L6 2L6 2L6 2L6 2L6 3L6 3L6 3Z"/></mask><path d="M6 3L6 3L5 3L5 4L5 4L5 4L5 5L5 5L4 4L4 4L4 4L4 4L4 4L3 4L3 5L3 5L3 6L3 6L3 7L3 7L3 7L3 7L3 7L3 7L3 7L3 7L4 8L4 8L4 8L3 8L3 8L3 9L2 9L2 9L3 9L3 9L4 9L4 9L5 9L4 10L4 10L4 10L4 10L5 10L4 11L4 12L4 12L4 12L4 13L4 14L4 14L3 15L4 15L3 16L3 16L3 16L3 17L2 18L2 17L2 16L2 16L2 15L1 14L1 13L1 13L1 12L0 11L0 10L0 10L0 9L1 9L1 9L1 8L1 8L2 7L2 6L3 4L3 3L3 2L3 2L4 2L4 2L4 2L5 1L5 1L5 1L5 1L5 1L6 0L6 0L6 0L6 0L6 0L6 0V1L6 1L6 1L6 1L6 2L6 2L6 2L6 2L6 3L6 3L6 3Z" fill="var(--fill-0,#71B219)" stroke="var(--stroke-0,white)" mask="url(#path-1-inside-1_0_230)"/></g></svg>