<svg preserveAspectRatio="none" width="100%" height="100%" overflow="visible" style="display: block;" viewBox="0 0 6.43958 17.7658" fill="none" xmlns="http://www.w3.org/2000/svg">
<g id="IL">
<mask id="path-1-inside-1_0_230" fill="white">
<path d="M5.95258 3.18776L5.74904 3.21522L5.27304 3.42782L5.20839 3.49229L5.12442 3.61573L5.10931 3.71038L5.04189 4.73088L4.78327 4.70208L4.46823 4.47989L4.40635 4.28784L4.31138 4.22199L4.08577 4.19729L3.65931 4.09993L3.16408 4.43598L2.95358 4.99012L2.91092 5.24936L2.74316 5.79257L2.80227 6.12724L2.83115 6.55932L2.87381 6.91182L2.82981 7.12443L2.73485 7.23691L2.76239 7.31786L2.8477 7.34805L3.11865 7.25202L3.40346 7.34805L3.67719 7.53047L3.69919 7.64843L3.50523 7.71838L3.04711 7.99407L2.72385 8.31367L2.63996 8.60857L2.42123 9.23681L2.45146 9.36573L2.55743 9.44117L3.30304 9.37398L3.98123 9.12023L4.49166 8.84998L4.65262 8.86647L4.54531 9.55779L4.548 9.56051L4.46 9.983L4.49435 10.0543L4.60997 10.4219L4.39124 11.0927L4.14908 11.6386L4.06377 11.8965L3.82715 12.4712L3.58508 13.1364L3.45569 13.5946L3.48457 13.7565L3.42546 14.5945L3.45989 14.8318L3.17642 15.5574L3.12008 15.9154L3.00589 16.3997L2.8105 17.4229L2.54366 17.7658L2.41158 17.3845L2.10619 16.2899L1.89015 15.5382L1.59442 14.6124L1.09642 13.4821L1.051 13.2091L0.94369 12.8141L0.601194 11.7826L0.320497 11.0364L0 10.0817L0.397577 9.70317L0.404463 9.39043L1.08131 8.65797L1.07577 8.58664L0.895578 8.39186L0.921691 8.35896L1.67142 6.9914L2.15573 5.63346L2.61108 3.73641L2.93569 2.76941L3.21085 2.12749L3.33193 1.59528L3.77493 1.55823L4.10508 1.61445L4.50123 1.63228L4.8177 1.43203L4.969 0.832635L5.14919 0.735227L5.24139 0.877886L5.33493 0.720158L5.74904 0.455394L5.954 0.285317L6.15896 0.0754734L6.26904 0L6.20028 0.281215L6.14519 0.465022V0.705046L6.22916 0.836738L6.34327 1.09736L6.41346 1.35798L6.26493 1.5733L6.27862 1.79826L6.31858 1.98755L6.43958 2.2084L6.22227 2.6062L6.00766 2.97105L5.95258 3.18776Z"/>
</mask>
<path d="M5.95258 3.18776L5.74904 3.21522L5.27304 3.42782L5.20839 3.49229L5.12442 3.61573L5.10931 3.71038L5.04189 4.73088L4.78327 4.70208L4.46823 4.47989L4.40635 4.28784L4.31138 4.22199L4.08577 4.19729L3.65931 4.09993L3.16408 4.43598L2.95358 4.99012L2.91092 5.24936L2.74316 5.79257L2.80227 6.12724L2.83115 6.55932L2.87381 6.91182L2.82981 7.12443L2.73485 7.23691L2.76239 7.31786L2.8477 7.34805L3.11865 7.25202L3.40346 7.34805L3.67719 7.53047L3.69919 7.64843L3.50523 7.71838L3.04711 7.99407L2.72385 8.31367L2.63996 8.60857L2.42123 9.23681L2.45146 9.36573L2.55743 9.44117L3.30304 9.37398L3.98123 9.12023L4.49166 8.84998L4.65262 8.86647L4.54531 9.55779L4.548 9.56051L4.46 9.983L4.49435 10.0543L4.60997 10.4219L4.39124 11.0927L4.14908 11.6386L4.06377 11.8965L3.82715 12.4712L3.58508 13.1364L3.45569 13.5946L3.48457 13.7565L3.42546 14.5945L3.45989 14.8318L3.17642 15.5574L3.12008 15.9154L3.00589 16.3997L2.8105 17.4229L2.54366 17.7658L2.41158 17.3845L2.10619 16.2899L1.89015 15.5382L1.59442 14.6124L1.09642 13.4821L1.051 13.2091L0.94369 12.8141L0.601194 11.7826L0.320497 11.0364L0 10.0817L0.397577 9.70317L0.404463 9.39043L1.08131 8.65797L1.07577 8.58664L0.895578 8.39186L0.921691 8.35896L1.67142 6.9914L2.15573 5.63346L2.61108 3.73641L2.93569 2.76941L3.21085 2.12749L3.33193 1.59528L3.77493 1.55823L4.10508 1.61445L4.50123 1.63228L4.8177 1.43203L4.969 0.832635L5.14919 0.735227L5.24139 0.877886L5.33493 0.720158L5.74904 0.455394L5.954 0.285317L6.15896 0.0754734L6.26904 0L6.20028 0.281215L6.14519 0.465022V0.705046L6.22916 0.836738L6.34327 1.09736L6.41346 1.35798L6.26493 1.5733L6.27862 1.79826L6.31858 1.98755L6.43958 2.2084L6.22227 2.6062L6.00766 2.97105L5.95258 3.18776Z" fill="var(--fill-0, #71B219)" stroke="var(--stroke-0, white)" mask="url(#path-1-inside-1_0_230)"/>
</g>
</svg>
