<svg preserveAspectRatio="none" width="100%" height="100%" overflow="visible" style="display: block;" viewBox="0 0 0.574149 0.82946" fill="none" xmlns="http://www.w3.org/2000/svg">
<g id="IO">
<mask id="path-1-inside-1_0_128" fill="white">
<path d="M0.548078 0.605625L0.4588 0.75943L0.306314 0.82946L0.222568 0.440839L0 0.166169H0.0892786L0.29944 0.306228L0.37497 0.677037L0.453267 0.568535L0.432645 0.45316L0.477997 0.3447L0.446393 0.223835L0.331043 0.0384304L0.370862 0L0.554952 0.159296L0.574149 0.286992L0.548078 0.605625Z"/>
</mask>
<path d="M0.548078 0.605625L0.4588 0.75943L0.306314 0.82946L0.222568 0.440839L0 0.166169H0.0892786L0.29944 0.306228L0.37497 0.677037L0.453267 0.568535L0.432645 0.45316L0.477997 0.3447L0.446393 0.223835L0.331043 0.0384304L0.370862 0L0.554952 0.159296L0.574149 0.286992L0.548078 0.605625Z" fill="var(--fill-0, #71B219)"/>
<path d="M0.548078 0.605625L0.980507 0.856634L1.0372 0.75896L1.04641 0.646399L0.548078 0.605625ZM0.4588 0.75943L0.667472 1.2138L0.811605 1.14761L0.891228 1.01044L0.4588 0.75943ZM0.306314 0.82946L-0.182466 0.93479L-0.0512139 1.54386L0.514986 1.28383L0.306314 0.82946ZM0.222568 0.440839L0.711348 0.33551L0.686199 0.218808L0.611041 0.126056L0.222568 0.440839ZM0 0.166169V-0.333831H-1.0487L-0.388473 0.480952L0 0.166169ZM0.0892786 0.166169L0.366563 -0.2499L0.240623 -0.333831H0.0892786V0.166169ZM0.29944 0.306228L0.789379 0.206432L0.74824 0.00446398L0.576724 -0.109841L0.29944 0.306228ZM0.37497 0.677037L-0.114969 0.776834L0.112761 1.89486L0.780426 0.969621L0.37497 0.677037ZM0.453267 0.568535L0.858723 0.861119L0.982764 0.689227L0.945466 0.48056L0.453267 0.568535ZM0.432645 0.45316L-0.0286514 0.260273L-0.0854688 0.396153L-0.0595546 0.541136L0.432645 0.45316ZM0.477997 0.3447L0.939293 0.537588L1.00448 0.381692L0.961733 0.218213L0.477997 0.3447ZM0.446393 0.223835L0.930129 0.0973479L0.910961 0.0240419L0.870935 -0.0402937L0.446393 0.223835ZM0.331043 0.0384304L-0.016181 -0.321341L-0.307022 -0.0406427L-0.0934987 0.302559L0.331043 0.0384304ZM0.370862 0L0.698035 -0.378098L0.352462 -0.677127L0.0236381 -0.359771L0.370862 0ZM0.554952 0.159296L1.0494 0.0849642L1.02191 -0.0978405L0.882125 -0.218802L0.554952 0.159296ZM0.574149 0.286992L1.07248 0.327766L1.07721 0.269988L1.06859 0.21266L0.574149 0.286992ZM0.548078 0.605625L0.11565 0.354616L0.0263713 0.508421L0.4588 0.75943L0.891228 1.01044L0.980507 0.856634L0.548078 0.605625ZM0.4588 0.75943L0.250127 0.305056L0.0976411 0.375086L0.306314 0.82946L0.514986 1.28383L0.667472 1.2138L0.4588 0.75943ZM0.306314 0.82946L0.795093 0.72413L0.711348 0.33551L0.222568 0.440839L-0.266212 0.546169L-0.182466 0.93479L0.306314 0.82946ZM0.222568 0.440839L0.611041 0.126056L0.388473 -0.148614L0 0.166169L-0.388473 0.480952L-0.165906 0.755622L0.222568 0.440839ZM0 0.166169V0.666169H0.0892786V0.166169V-0.333831H0V0.166169ZM0.0892786 0.166169L-0.188006 0.582238L0.0221552 0.722297L0.29944 0.306228L0.576724 -0.109841L0.366563 -0.2499L0.0892786 0.166169ZM0.29944 0.306228L-0.1905 0.406024L-0.114969 0.776834L0.37497 0.677037L0.86491 0.577241L0.789379 0.206432L0.29944 0.306228ZM0.37497 0.677037L0.780426 0.969621L0.858723 0.861119L0.453267 0.568535L0.0478109 0.275951L-0.030486 0.384453L0.37497 0.677037ZM0.453267 0.568535L0.945466 0.48056L0.924844 0.365185L0.432645 0.45316L-0.0595546 0.541136L-0.0389325 0.656511L0.453267 0.568535ZM0.432645 0.45316L0.893941 0.646048L0.939293 0.537588L0.477997 0.3447L0.0167004 0.151812L-0.0286514 0.260273L0.432645 0.45316ZM0.477997 0.3447L0.961733 0.218213L0.930129 0.0973479L0.446393 0.223835L-0.0373435 0.350322L-0.00573973 0.471188L0.477997 0.3447ZM0.446393 0.223835L0.870935 -0.0402937L0.755585 -0.225699L0.331043 0.0384304L-0.0934987 0.302559L0.0218509 0.487964L0.446393 0.223835ZM0.331043 0.0384304L0.678268 0.398202L0.718087 0.359771L0.370862 0L0.0236381 -0.359771L-0.016181 -0.321341L0.331043 0.0384304ZM0.370862 0L0.0436894 0.378098L0.227779 0.537393L0.554952 0.159296L0.882125 -0.218802L0.698035 -0.378098L0.370862 0ZM0.554952 0.159296L0.0605084 0.233627L0.0797054 0.361323L0.574149 0.286992L1.06859 0.21266L1.0494 0.0849642L0.554952 0.159296ZM0.574149 0.286992L0.0758147 0.246217L0.0497437 0.56485L0.548078 0.605625L1.04641 0.646399L1.07248 0.327766L0.574149 0.286992Z" fill="var(--stroke-0, white)" mask="url(#path-1-inside-1_0_128)"/>
</g>
</svg>
