<svg preserveAspectRatio="none" width="100%" height="100%" overflow="visible" style="display: block;" viewBox="0 0 38 38" fill="none" xmlns="http://www.w3.org/2000/svg"><g id="IQ"><mask id="path-1-inside-1_0_206" fill="white"><path d="M23 1V1L23 2L24 3L24 3L24 3L24 3L24 3L24 4L24 4L24 4L24 4L24 5L25 5L25 5L25 5L25 6L25 6L26 6L26 6L26 7L26 7L27 7L27 7L28 7L28 7L29 8L29 8L29 8L28 8L28 8L28 9L28 9L28 9L28 10L28 10L28 10L28 10L28 11L28 11L28 11L27 12L27 12L27 13L26 13L26 13L26 13L26 13L26 14L26 14L26 15L26 15L26 15L26 16L26 16L26 16L26 16L27 17L27 18L27 18L27 18L27 18L28 18V18L27 18L28 18L28 19L28 20L28 20L28 20L28 20L28 21L28 21L29 21L29 21L30 21L31 22L32 22L32 23L33 23L33 23L33 23L33 24L34 24L34 25L34 25L35 26L35 27L34 28V29V30L35 30L36 30L36 30L36 31L36 32L36 32L36 32L36 32L36 33L37 33L37 33L37 33L37 33L37 33L37 34L37 34L38 34L38 34L37 34L37 34L36 34L36 34L36 34L36 34L35 34L34 34L34 34L34 34L33 34L33 34L32 34L32 34L32 34L32 35L32 35L31 36L31 37L31 37L30 38L29 38L28 38L26 38L24 38L23 38L23 38L22 36L21 36L19 35L18 34L17 33L16 32L15 31L14 30L13 29L12 29L11 28L10 27L9 27L8 26L7 26L6 25L5 25L4 25L2 25L1 24L2 24L2 24L1 24L1 24L1 23L1 23L1 22L0 21L0 20L0 19L1 18L2 18L3 17L4 16L5 16L6 15L7 14L8 14L8 14L9 13L9 12L9 12L9 11L9 10L10 9L10 9L10 8L10 8L10 8L10 7L10 6L10 6L10 5L10 5L10 4L10 4L11 4L12 4L12 3L13 3L13 2L14 2L14 1V1L14 1L15 1L15 0L15 0L16 0L16 0L17 0L17 0L17 0L18 0L18 1L18 1L19 1L20 1L20 0L20 0L20 0L21 0L21 0L21 1L21 1L21 2L21 2L21 2L21 2L21 2L22 2L22 1L22 1L22 1L23 1L23 1L23 1Z"/></mask><path d="M23 1V1L23 2L24 3L24 3L24 3L24 3L24 3L24 4L24 4L24 4L24 4L24 5L25 5L25 5L25 5L25 6L25 6L26 6L26 6L26 7L26 7L27 7L27 7L28 7L28 7L29 8L29 8L29 8L28 8L28 8L28 9L28 9L28 9L28 10L28 10L28 10L28 10L28 11L28 11L28 11L27 12L27 12L27 13L26 13L26 13L26 13L26 13L26 14L26 14L26 15L26 15L26 15L26 16L26 16L26 16L26 16L27 17L27 18L27 18L27 18L27 18L28 18V18L27 18L28 18L28 19L28 20L28 20L28 20L28 20L28 21L28 21L29 21L29 21L30 21L31 22L32 22L32 23L33 23L33 23L33 23L33 24L34 24L34 25L34 25L35 26L35 27L34 28V29V30L35 30L36 30L36 30L36 31L36 32L36 32L36 32L36 32L36 33L37 33L37 33L37 33L37 33L37 33L37 34L37 34L38 34L38 34L37 34L37 34L36 34L36 34L36 34L36 34L35 34L34 34L34 34L34 34L33 34L33 34L32 34L32 34L32 34L32 35L32 35L31 36L31 37L31 37L30 38L29 38L28 38L26 38L24 38L23 38L23 38L22 36L21 36L19 35L18 34L17 33L16 32L15 31L14 30L13 29L12 29L11 28L10 27L9 27L8 26L7 26L6 25L5 25L4 25L2 25L1 24L2 24L2 24L1 24L1 24L1 23L1 23L1 22L0 21L0 20L0 19L1 18L2 18L3 17L4 16L5 16L6 15L7 14L8 14L8 14L9 13L9 12L9 12L9 11L9 10L10 9L10 9L10 8L10 8L10 8L10 7L10 6L10 6L10 5L10 5L10 4L10 4L11 4L12 4L12 3L13 3L13 2L14 2L14 1V1L14 1L15 1L15 0L15 0L16 0L16 0L17 0L17 0L17 0L18 0L18 1L18 1L19 1L20 1L20 0L20 0L20 0L21 0L21 0L21 1L21 1L21 2L21 2L21 2L21 2L21 2L22 2L22 1L22 1L22 1L23 1L23 1L23 1Z" fill="var(--fill-0,#71B219)" stroke="var(--stroke-0,white)" mask="url(#path-1-inside-1_0_206)"/></g></svg>