<svg preserveAspectRatio="none" width="100%" height="100%" overflow="visible" style="display: block;" viewBox="0 0 37.7325 38.1131" fill="none" xmlns="http://www.w3.org/2000/svg">
<g id="IQ">
<mask id="path-1-inside-1_0_206" fill="white">
<path d="M23.1336 1.10418V1.13984L23.2616 1.48138L23.5793 2.7502L23.7609 2.91064L23.9673 3.0451L24.1131 3.23301L24.1709 3.4223L24.1531 3.71582L24.1599 4.05601L24.2452 4.31663L24.3635 4.51413L24.4736 4.61288L24.6386 4.6225L24.8367 4.67052L24.9702 4.86667L25.3952 6.29732L25.4351 6.48385L25.614 6.54421L25.907 6.51675L26.2083 6.66489L26.5302 6.89533L26.8329 7.33017L27.0364 7.40012L27.6748 7.33565L28.547 7.4056L28.9556 7.62917L28.9143 7.76773L28.5993 7.92136L28.0449 8.1024L27.8811 8.40831L27.7889 8.80468L27.8055 9.02692L27.9417 9.27109L28.3324 9.75662L28.3544 9.93222L28.4246 10.1763L28.4974 10.3437L28.4163 10.6661L28.0614 10.8896L27.595 11.131L26.6582 12.2064L26.588 12.4382L26.5935 13.072L26.5 13.253L26.2042 13.2503L25.9731 13.2173L25.9607 13.4382L25.8135 13.7345L25.7296 13.991L26.0735 14.5959L26.1354 14.9169L26.0804 15.209L25.7612 15.711L25.5727 16.0485L25.6182 16.1239L25.8671 16.2583L26.6403 17.3598L26.8892 17.7466L27.2167 17.6451L27.3391 17.6519L27.434 17.7137L27.4932 17.844V18.0086L27.4107 18.2555L27.8275 18.3556L27.9774 18.6053L28.4631 19.4584L28.4452 19.7122L28.2127 20.1141L28.2099 20.3802L28.2595 20.6188L28.3351 20.7025L29.0519 20.7368L29.3559 20.8328L30.1002 21.2663L30.9476 21.9315L31.6395 22.4761L32.2297 22.9383L32.8626 22.9054L33.0345 22.9891L33.1941 23.1331L33.3757 23.5131L33.7375 24.3704L34.0456 24.6543L34.5202 25.3388L34.966 25.9793L34.6729 26.849L34.3854 27.7515V28.912V29.5347L34.9908 29.5607L35.6635 29.5909L35.6689 30.333L35.6745 31.0778L35.6799 31.9255L35.878 31.9612L36.1917 32.1436L36.3266 32.4179L36.4943 32.5674L36.6994 32.5921L36.9002 32.7265L37.0996 32.9721L37.1726 33.1559L37.1189 33.2834L37.1616 33.5057L37.3005 33.8239L37.4698 33.9734L37.7325 34.1572L37.3762 34.2628L36.991 34.1819L36.1697 33.8102L35.9028 33.7992L35.5548 33.9405L35.5396 34.0667L34.6716 33.651L34.3592 33.5674L34.2465 33.5592L33.7485 33.5633L33.04 33.6387L32.6232 33.8074L32.3342 33.9857L32.2022 34.1613L32.1554 34.256L31.9298 34.7731L31.6684 35.4356L31.3974 36.0309L30.8706 36.8676L30.5789 37.253L29.953 37.9691L29.2761 38.1131L27.7064 37.9718L25.9662 37.8141L24.2342 37.659L22.9451 37.5425L22.8461 37.504L21.5709 36.4808L20.5639 35.6702L19.305 34.6565L18.0202 33.6181L16.716 32.5633L15.7682 31.7952L14.6181 30.8048L13.5712 29.9009L12.7444 29.1849L11.6837 28.5594L10.8556 28.0684L9.64774 27.3537L8.68339 26.7818L7.85658 26.2907L6.58408 25.5335L6.16174 25.3278L4.84238 25.074L3.59188 24.86L2.29738 24.6378L1.43623 24.4897L2.00434 23.9493L1.82961 23.4637L1.41558 23.5528L1.03446 23.6681L0.803383 22.9123L1.09777 22.8176L0.825382 21.8287L0.546113 20.8081L0.276499 19.8192L0 18.8055L1.09365 18.154L1.91081 17.6671L3.054 16.9839L4.15596 16.3242L5.20562 15.6946L6.36258 14.9992L7.39704 14.3764L8.34493 14.1226L8.54577 13.9265L8.97778 13.0733L9.34781 12.3436L9.3657 12.1749L9.36704 11.1365L9.43169 9.91439L9.5542 9.26008L9.76739 8.6799L9.96278 8.25603L9.98335 7.85961L9.95723 7.45638L9.75505 6.84598L9.54454 6.20816L9.56789 5.59365L9.60643 5.26443L9.7385 4.73636L9.96412 4.34954L10.2063 4.11085L11.106 3.86396L11.6411 3.7172L12.3565 3.03137L12.7815 2.62261L13.3731 1.9752L13.8092 1.49783L13.8436 1.33186V1.26739L14.2177 1.17003L14.9097 0.589806L15.3184 0.0480133L15.4477 0L15.8122 0.176942L16.0735 0.226295L16.6747 0.0205532L17.0324 0.128928L17.3337 0.266103L17.5015 0.275689L18.309 0.613122L18.5113 0.65427L18.9268 0.695418L19.5472 0.714632L19.9476 0.493779L20.2295 0.281173L20.4277 0.286657L20.6202 0.337433L20.7826 0.427934L20.9188 0.587043L20.9834 0.814761L20.9573 1.54036L21.0178 1.73103L21.1279 1.86821L21.2668 1.89424L21.436 1.73652L21.7304 1.50746L22.0936 1.25781L22.3632 1.02875L22.5187 0.942308L22.7622 0.954657L23.0002 0.994424L23.1336 1.10418Z"/>
</mask>
<path d="M23.1336 1.10418V1.13984L23.2616 1.48138L23.5793 2.7502L23.7609 2.91064L23.9673 3.0451L24.1131 3.23301L24.1709 3.4223L24.1531 3.71582L24.1599 4.05601L24.2452 4.31663L24.3635 4.51413L24.4736 4.61288L24.6386 4.6225L24.8367 4.67052L24.9702 4.86667L25.3952 6.29732L25.4351 6.48385L25.614 6.54421L25.907 6.51675L26.2083 6.66489L26.5302 6.89533L26.8329 7.33017L27.0364 7.40012L27.6748 7.33565L28.547 7.4056L28.9556 7.62917L28.9143 7.76773L28.5993 7.92136L28.0449 8.1024L27.8811 8.40831L27.7889 8.80468L27.8055 9.02692L27.9417 9.27109L28.3324 9.75662L28.3544 9.93222L28.4246 10.1763L28.4974 10.3437L28.4163 10.6661L28.0614 10.8896L27.595 11.131L26.6582 12.2064L26.588 12.4382L26.5935 13.072L26.5 13.253L26.2042 13.2503L25.9731 13.2173L25.9607 13.4382L25.8135 13.7345L25.7296 13.991L26.0735 14.5959L26.1354 14.9169L26.0804 15.209L25.7612 15.711L25.5727 16.0485L25.6182 16.1239L25.8671 16.2583L26.6403 17.3598L26.8892 17.7466L27.2167 17.6451L27.3391 17.6519L27.434 17.7137L27.4932 17.844V18.0086L27.4107 18.2555L27.8275 18.3556L27.9774 18.6053L28.4631 19.4584L28.4452 19.7122L28.2127 20.1141L28.2099 20.3802L28.2595 20.6188L28.3351 20.7025L29.0519 20.7368L29.3559 20.8328L30.1002 21.2663L30.9476 21.9315L31.6395 22.4761L32.2297 22.9383L32.8626 22.9054L33.0345 22.9891L33.1941 23.1331L33.3757 23.5131L33.7375 24.3704L34.0456 24.6543L34.5202 25.3388L34.966 25.9793L34.6729 26.849L34.3854 27.7515V28.912V29.5347L34.9908 29.5607L35.6635 29.5909L35.6689 30.333L35.6745 31.0778L35.6799 31.9255L35.878 31.9612L36.1917 32.1436L36.3266 32.4179L36.4943 32.5674L36.6994 32.5921L36.9002 32.7265L37.0996 32.9721L37.1726 33.1559L37.1189 33.2834L37.1616 33.5057L37.3005 33.8239L37.4698 33.9734L37.7325 34.1572L37.3762 34.2628L36.991 34.1819L36.1697 33.8102L35.9028 33.7992L35.5548 33.9405L35.5396 34.0667L34.6716 33.651L34.3592 33.5674L34.2465 33.5592L33.7485 33.5633L33.04 33.6387L32.6232 33.8074L32.3342 33.9857L32.2022 34.1613L32.1554 34.256L31.9298 34.7731L31.6684 35.4356L31.3974 36.0309L30.8706 36.8676L30.5789 37.253L29.953 37.9691L29.2761 38.1131L27.7064 37.9718L25.9662 37.8141L24.2342 37.659L22.9451 37.5425L22.8461 37.504L21.5709 36.4808L20.5639 35.6702L19.305 34.6565L18.0202 33.6181L16.716 32.5633L15.7682 31.7952L14.6181 30.8048L13.5712 29.9009L12.7444 29.1849L11.6837 28.5594L10.8556 28.0684L9.64774 27.3537L8.68339 26.7818L7.85658 26.2907L6.58408 25.5335L6.16174 25.3278L4.84238 25.074L3.59188 24.86L2.29738 24.6378L1.43623 24.4897L2.00434 23.9493L1.82961 23.4637L1.41558 23.5528L1.03446 23.6681L0.803383 22.9123L1.09777 22.8176L0.825382 21.8287L0.546113 20.8081L0.276499 19.8192L0 18.8055L1.09365 18.154L1.91081 17.6671L3.054 16.9839L4.15596 16.3242L5.20562 15.6946L6.36258 14.9992L7.39704 14.3764L8.34493 14.1226L8.54577 13.9265L8.97778 13.0733L9.34781 12.3436L9.3657 12.1749L9.36704 11.1365L9.43169 9.91439L9.5542 9.26008L9.76739 8.6799L9.96278 8.25603L9.98335 7.85961L9.95723 7.45638L9.75505 6.84598L9.54454 6.20816L9.56789 5.59365L9.60643 5.26443L9.7385 4.73636L9.96412 4.34954L10.2063 4.11085L11.106 3.86396L11.6411 3.7172L12.3565 3.03137L12.7815 2.62261L13.3731 1.9752L13.8092 1.49783L13.8436 1.33186V1.26739L14.2177 1.17003L14.9097 0.589806L15.3184 0.0480133L15.4477 0L15.8122 0.176942L16.0735 0.226295L16.6747 0.0205532L17.0324 0.128928L17.3337 0.266103L17.5015 0.275689L18.309 0.613122L18.5113 0.65427L18.9268 0.695418L19.5472 0.714632L19.9476 0.493779L20.2295 0.281173L20.4277 0.286657L20.6202 0.337433L20.7826 0.427934L20.9188 0.587043L20.9834 0.814761L20.9573 1.54036L21.0178 1.73103L21.1279 1.86821L21.2668 1.89424L21.436 1.73652L21.7304 1.50746L22.0936 1.25781L22.3632 1.02875L22.5187 0.942308L22.7622 0.954657L23.0002 0.994424L23.1336 1.10418Z" fill="var(--fill-0, #71B219)" stroke="var(--stroke-0, white)" mask="url(#path-1-inside-1_0_206)"/>
</g>
</svg>
