<svg preserveAspectRatio="none" width="100%" height="100%" overflow="visible" style="display: block;" viewBox="0 0 74.4318 66.9194" fill="none" xmlns="http://www.w3.org/2000/svg">
<g id="IR">
<mask id="path-1-inside-1_0_141" fill="white">
<path d="M3.04988 0.599392L3.13108 0.706386L3.75696 1.72827L4.03211 2.0287L4.19308 2.28379L4.30181 2.56773L4.493 2.75978L4.74616 2.86401L5.05288 3.13836L5.26062 3.35235L5.60865 3.79539L5.97735 3.95999L7.31593 4.27959L8.0602 4.42773L8.27481 4.47026L8.84435 4.25627L9.51154 4.28507L9.75916 4.29604L10.641 3.3935L10.9092 3.09173L11.4348 2.93534L11.7305 2.57459L12.2052 2.13841L12.7843 1.72693L13.3167 1.35655L13.7239 1.13298L14.4612 0.60902L14.9221 0.427934L15.3225 0.433417L15.9222 1.04796L16.4271 1.60621L16.5826 1.85037L16.3322 2.06985L15.8645 2.28107L15.775 2.43608L15.7434 2.63495L15.7613 2.82425L15.8246 2.97925L16.3982 3.33724L16.4629 3.53478L16.467 3.73503L16.4024 3.85986L16.2744 3.93257L15.8755 4.0327L15.533 4.14928L15.4146 4.26314L15.3115 4.39893L15.3266 4.54979L15.4298 4.72125L16.13 5.18761L16.2097 5.35907L16.3487 5.58951L16.5207 5.73079L16.8124 5.76921L16.9527 5.86386L17.6295 6.72253L17.7946 6.78289L18.5856 6.5936L18.6956 6.60181L18.7025 6.81169L18.8208 8.02697L18.9117 8.65382L19.0479 9.26146L19.261 9.81564L19.5142 10.341L19.8636 10.6647L20.6395 11.0542L21.0164 11.1667L22.0083 11.2449L22.9878 11.4164L23.5656 11.5988L23.743 11.7277L23.8889 11.9253L24.3677 12.8415L25.1215 13.4931L26.6431 14.4683L27.3804 14.792L29.8649 15.4038L31.5185 15.3695L36.0885 14.1885L37.6073 13.8936H38.1783L37.8384 14.1281L37.2675 14.2625L37.6114 14.4285L38.1438 14.456L38.3901 14.4285L38.5689 14.279L38.5978 14.0308L38.5716 13.7852L38.3199 12.6838L38.1741 11.9047L39.2458 11.9582L39.6626 11.8566L40.2761 11.596L40.7411 11.4383L40.975 11.4164L41.2061 11.2943L41.3836 11.1406L41.7826 10.0721L41.982 9.80329L42.6588 9.19976L43.2339 8.81703L43.8364 8.47688L44.5999 8.23958L45.6138 8.26427L46.4213 8.34795L46.8891 8.34385L47.1106 8.3685L47.277 8.33422L47.3733 8.26427L47.4779 7.79515L47.6429 7.64152L47.9278 7.50987H48.3267L48.8137 7.47555L49.2181 7.50711L49.7271 7.68682L50.3916 7.70189L50.8346 7.67032L51.0918 7.85003L51.2776 8.09005L51.367 8.29035L51.3876 8.56466L51.3835 8.77316L51.4536 8.85408L51.7233 8.97891L52.0988 9.07217L52.8293 9.18465L53.5158 9.4014L53.8721 9.54816L54.3673 9.77722L54.9575 10.3465L55.1763 10.4356L55.4404 10.4932L55.6289 10.4782L56.0718 10.2381L56.4571 10.415L56.6524 10.3917L57.0954 10.26L57.5658 10.4247L58.7379 11.0474L58.8673 11.0337L58.9732 11.0968L59.0708 11.2394L59.1397 11.415L59.2263 11.95L59.5647 12.3408L59.9788 12.6961L60.4617 12.8909L61.4701 13.3559L61.9103 13.7331L62.356 14.3723L62.9063 15.2131L62.9861 15.29L64.4003 15.2639L65.9906 15.2653L66.1846 15.6013L66.1488 16.2665L66.2052 16.9483L66.3483 17.4188L66.3497 17.8522L66.2355 18.0717L66.146 18.3227L66.1199 18.4324L66.3235 18.5888L66.5024 18.9482L66.5285 19.4488L66.4404 19.7135L66.4528 19.933L66.5423 20.1196L66.6193 20.4309L66.6056 20.6188L66.4776 20.8054L66.4005 21.0386L66.2988 21.3335L66.2617 21.5667L66.069 21.6751L65.9163 21.7532L65.9424 22.0482L66.0195 22.2964L66.1089 22.5899L66.0071 22.7916L65.9424 23.0234L65.8008 23.3951L65.8393 23.7038L65.6866 23.9657L65.494 24.1975L65.3661 24.3827L65.3399 24.6447L65.1996 24.7366L64.9313 24.9519L64.7662 25.1056L64.5227 25.1522L64.4718 25.2757L64.5104 25.3977L64.6121 25.4746L64.7703 25.7407L65.1005 26.1988L64.1486 26.2564L63.8693 26.661L63.5433 27.2399L63.7028 28.4086L63.5433 29.0079L63.6396 29.344L63.8831 29.5758L64.1953 29.7048L64.7813 29.713L65.1693 29.8035L65.2078 29.9585L64.985 30.1848L64.6287 30.6087L64.4388 30.7939L63.8321 31.6443L63.8377 32.0064L63.8941 32.2986L64.1555 33.2135L64.4113 34.0982L64.8694 35.6893L64.8612 36.0583L64.7181 36.8758L64.7085 37.3724L64.7731 38.0157L64.725 38.3476L64.8378 39.0911L64.9657 39.1446L65.9576 39.2886L66.8669 39.4216L68.0789 39.5972L68.4462 40.032L68.6746 40.9854L68.6608 41.6972L68.5576 42.0607L67.6909 43.0964L66.8105 44.1443L65.9314 45.1881L65.0207 46.2676L64.9258 46.3815L65.6618 47.2429L66.1171 47.7751L66.7597 48.5226L66.8408 48.7023L66.8353 48.9959L67.4943 50.1316L67.7267 50.7228L67.9358 51.0698L68.4572 51.6116L68.9662 52.1397L69.5178 52.3811L69.8948 52.4346L70.7532 52.7131L71.0669 52.9353L71.5704 53.4949L72.1619 53.4181H72.2844L72.3174 53.4579L72.3353 53.6376L72.2487 54.5059L72.4123 55.3796L72.5265 56.6923L72.4838 56.9186L72.3422 57.2972L72.3353 57.54L72.2982 57.6895L72.3367 57.7553L72.5252 57.8445L72.9268 57.8925L73.8967 57.7457L74.0095 57.7828L74.242 57.9377L74.4167 58.1805L74.4318 58.2958L74.187 58.4974L74.1471 58.8389L74.22 59.3505L74.187 59.4123L73.9724 59.5275L73.9022 60.2655L73.8637 60.3327L73.6134 60.4081L72.4302 60.3574L72.2954 60.378L71.8511 60.5727L71.0889 60.7126L70.8798 60.7922L70.5992 61.0144L70.397 61.2846L70.3584 61.5343L70.3185 61.5864L69.8824 61.5356L69.7393 61.7523L68.8933 62.076L68.7888 62.146L68.6636 62.4039L68.5507 63.1268L68.449 63.7756L68.3843 63.8702L68.1175 64.0924L68.0913 64.1679L68.127 64.4189L68.006 64.8756L67.9111 66.1417L67.8051 66.4956L67.5947 66.5244L67.4296 66.7013L67.1269 66.9194L66.4735 66.7507L65.9548 66.5738L64.238 66.1581L64.0495 65.9565L63.9422 65.6012L63.645 65.5011L63.2186 66.0333L61.7686 65.7261L61.2761 65.8207L60.9721 65.6547L60.1907 65.6451L59.5744 65.3132L58.6898 65.5409L57.991 65.5848L57.0321 65.0032L56.0017 64.8427L55.1653 64.8921L54.7347 64.8468L54.0372 64.6383L53.707 64.423L53.1636 64.5876L52.9188 64.2817L51.3821 63.9977L51.0974 63.456L50.8841 62.9526L50.8676 62.4341L50.4934 61.526L50.3682 60.2051L50.2293 59.688L50.0215 59.2381L49.745 58.8554L49.3694 58.4452L49.0421 58.282L47.6058 57.9693L47.3293 58.0104L46.6869 58.2148L46.0032 58.6689L44.8806 58.9267L44.6549 59.1215L44.373 59.5604L44.0071 59.8156L43.5063 59.7497L42.967 60.009L41.9669 60.7318L41.44 60.9527L40.9984 60.9362L40.5238 60.5933L39.4631 60.1324L38.7767 59.9788L37.8247 60.0844L37.3734 60.0076L36.6072 59.4658L36.4063 59.0721L35.9689 58.8088L34.5822 58.2176L33.4596 57.4357L33.2532 57.1394L33.1156 56.7019L32.6273 56.1697L31.5309 55.7349L30.909 55.2712L30.1799 55.167L29.5017 55.1821L29.2032 55.0984L28.9322 54.8995L28.0063 53.9394L27.9953 53.5594L27.4244 52.6184L27.291 52.2824L27.1685 51.3483L27.0103 51.1041L26.4147 50.7187L26.3225 50.4663L26.4491 50.1302V49.8751L26.1395 49.6351L25.6745 49.5075L25.5617 49.2194L25.6471 48.6584L25.5769 48.3059L25.1669 47.7422L24.5616 47.1647L23.9577 46.3088L23.721 46.0948L23.567 45.5338L23.3455 44.8672L23.0043 44.8191L21.3507 45.6188L20.8679 45.1689L19.4179 44.3871L19.3175 44.2691L19.2156 44.0894L19.3987 43.9852L19.5802 43.9426L19.9448 44.0826L20.1635 43.918L20.0769 43.6519L19.7123 43.4872L19.217 43.4996L19.3532 43.7492L18.8896 43.9852L18.7906 44.2938L18.858 44.6765L18.8979 45.2114L18.7094 45.4693L18.5635 45.5886L17.9404 45.6202L17.6487 45.8561L17.4603 45.9124L17.1975 45.7285L17.0283 45.5791L16.8894 45.2608L16.8467 45.0386L16.9004 44.9124L16.8275 44.7273L16.628 44.4817L16.4271 44.3473L16.2235 44.3226L16.0543 44.1731L15.9195 43.8988L15.6044 43.7177L15.4064 43.682L15.4009 42.833L15.3954 42.0882L15.3899 41.3461L14.7172 41.3159L14.1119 41.2898V40.6671V39.5053L14.3994 38.6028L14.6924 37.7331L14.2466 37.0926L13.772 36.4081L13.4639 36.1228L13.1021 35.2655L12.9219 34.8855L12.7623 34.7415L12.5903 34.6579L11.9589 34.6908L11.3687 34.2285L10.6767 33.6853L9.8307 33.0201L9.08508 32.5852L8.78104 32.4893L8.06431 32.4563L7.98866 32.3726L7.93912 32.134L7.94046 31.8679L8.17296 31.466L8.19085 31.2122L7.70528 30.3591L7.55531 30.1094L7.13985 30.0093L7.22239 29.7624V29.5978L7.16319 29.4675L7.06688 29.4057L6.94446 29.3989L6.61842 29.5004L6.36947 29.1136L5.59497 28.0121L5.34592 27.8777L5.3005 27.8023L5.489 27.4635L5.80816 26.9615L5.86315 26.6707L5.80261 26.3497L5.45869 25.7448L5.54266 25.4883L5.68985 25.1934L5.70219 24.9711L5.93335 25.0041L6.22916 25.0068L6.3227 24.8258L6.31716 24.192L6.38735 23.9602L7.32558 22.8848L7.79193 22.6434L8.14685 22.4212L8.22796 22.0975L8.15508 21.9302L8.08497 21.686L8.06288 21.5105L7.67219 21.0249L7.536 20.7807L7.51954 20.5571L7.61165 20.1621L7.77539 19.8549L8.32981 19.6738L8.64485 19.5201L8.68751 19.3816L8.27893 19.158L7.40669 19.0881L6.76839 19.1525L6.56477 19.0826L6.26216 18.6491L5.94023 18.4187L5.63896 18.2706L5.34592 18.298L5.16842 18.239L5.12719 18.0525L4.7035 16.6218L4.57 16.4257L4.37192 16.3777L4.2055 16.3681L4.09542 16.2693L3.97712 16.0718L3.89181 15.8125L3.88635 15.471L3.90423 15.1775L3.84638 14.9882L3.70062 14.8002L3.49423 14.6644L3.31261 14.5053L2.99489 13.2366L2.86692 12.895V12.8594L2.87246 12.7921L2.84081 12.5L2.988 12.2462L2.97835 12.1461L2.67296 11.8251L2.24373 11.5041L2.12819 11.4479L2.12542 11.105L2.14054 10.8457L2.10208 10.6112L2.01946 10.4768L2.01677 10.3712L2.18873 10.1188L2.07731 9.95278L1.4458 9.54267L1.20919 9.33693L0.771728 9.29578L0.726387 9.15995L0.795155 8.87329L0.945117 8.52489L1.18173 8.18198L1.25739 8.00093L1.3495 7.6923L1.38115 7.47283L1.64665 7.1642L1.64808 7.08328L1.57377 6.97218L1.36192 6.91044L1.14454 6.88436L1.06342 6.82814L1.03454 6.66217L1.062 5.9873L0.99323 5.58131L0.903806 5.2864L0.960231 4.62112L0.808925 4.48671L0.570882 4.13693L0.469116 3.84065L0.524114 3.72955L0.574997 3.53478L0.608079 3.27826L0.598423 3.09721L0.379693 2.92027L0.217303 2.7337L0.198075 2.52796L0.133421 2.27559L0.0412271 2.07533L0 1.94502L0.0797674 1.86821L0.389265 1.80785L0.839153 1.85037L1.2065 1.8531L1.41423 1.72417L1.67142 0.507509L1.90669 0.186528L2.17908 0L2.7115 0.433417L2.93158 0.585704L3.04988 0.599392ZM46.951 59.1709L46.5906 59.6853L46.0472 60.1146L45.8161 59.9815L45.6358 59.987L45.2479 60.1516L44.9686 60.1804L44.461 60.4726L43.9988 60.6194L43.6783 60.6084L43.5668 60.5782L43.5035 60.3793L43.5091 60.2998L43.7044 60.3409L44.4183 60.0748L45.3084 59.6386L45.3938 59.4439L45.2507 59.127L45.2891 59.0556L45.867 59.2175L46.5122 58.902L47.0514 58.8156L47.3046 59.0351L46.951 59.1709Z"/>
</mask>
<path d="M3.04988 0.599392L3.13108 0.706386L3.75696 1.72827L4.03211 2.0287L4.19308 2.28379L4.30181 2.56773L4.493 2.75978L4.74616 2.86401L5.05288 3.13836L5.26062 3.35235L5.60865 3.79539L5.97735 3.95999L7.31593 4.27959L8.0602 4.42773L8.27481 4.47026L8.84435 4.25627L9.51154 4.28507L9.75916 4.29604L10.641 3.3935L10.9092 3.09173L11.4348 2.93534L11.7305 2.57459L12.2052 2.13841L12.7843 1.72693L13.3167 1.35655L13.7239 1.13298L14.4612 0.60902L14.9221 0.427934L15.3225 0.433417L15.9222 1.04796L16.4271 1.60621L16.5826 1.85037L16.3322 2.06985L15.8645 2.28107L15.775 2.43608L15.7434 2.63495L15.7613 2.82425L15.8246 2.97925L16.3982 3.33724L16.4629 3.53478L16.467 3.73503L16.4024 3.85986L16.2744 3.93257L15.8755 4.0327L15.533 4.14928L15.4146 4.26314L15.3115 4.39893L15.3266 4.54979L15.4298 4.72125L16.13 5.18761L16.2097 5.35907L16.3487 5.58951L16.5207 5.73079L16.8124 5.76921L16.9527 5.86386L17.6295 6.72253L17.7946 6.78289L18.5856 6.5936L18.6956 6.60181L18.7025 6.81169L18.8208 8.02697L18.9117 8.65382L19.0479 9.26146L19.261 9.81564L19.5142 10.341L19.8636 10.6647L20.6395 11.0542L21.0164 11.1667L22.0083 11.2449L22.9878 11.4164L23.5656 11.5988L23.743 11.7277L23.8889 11.9253L24.3677 12.8415L25.1215 13.4931L26.6431 14.4683L27.3804 14.792L29.8649 15.4038L31.5185 15.3695L36.0885 14.1885L37.6073 13.8936H38.1783L37.8384 14.1281L37.2675 14.2625L37.6114 14.4285L38.1438 14.456L38.3901 14.4285L38.5689 14.279L38.5978 14.0308L38.5716 13.7852L38.3199 12.6838L38.1741 11.9047L39.2458 11.9582L39.6626 11.8566L40.2761 11.596L40.7411 11.4383L40.975 11.4164L41.2061 11.2943L41.3836 11.1406L41.7826 10.0721L41.982 9.80329L42.6588 9.19976L43.2339 8.81703L43.8364 8.47688L44.5999 8.23958L45.6138 8.26427L46.4213 8.34795L46.8891 8.34385L47.1106 8.3685L47.277 8.33422L47.3733 8.26427L47.4779 7.79515L47.6429 7.64152L47.9278 7.50987H48.3267L48.8137 7.47555L49.2181 7.50711L49.7271 7.68682L50.3916 7.70189L50.8346 7.67032L51.0918 7.85003L51.2776 8.09005L51.367 8.29035L51.3876 8.56466L51.3835 8.77316L51.4536 8.85408L51.7233 8.97891L52.0988 9.07217L52.8293 9.18465L53.5158 9.4014L53.8721 9.54816L54.3673 9.77722L54.9575 10.3465L55.1763 10.4356L55.4404 10.4932L55.6289 10.4782L56.0718 10.2381L56.4571 10.415L56.6524 10.3917L57.0954 10.26L57.5658 10.4247L58.7379 11.0474L58.8673 11.0337L58.9732 11.0968L59.0708 11.2394L59.1397 11.415L59.2263 11.95L59.5647 12.3408L59.9788 12.6961L60.4617 12.8909L61.4701 13.3559L61.9103 13.7331L62.356 14.3723L62.9063 15.2131L62.9861 15.29L64.4003 15.2639L65.9906 15.2653L66.1846 15.6013L66.1488 16.2665L66.2052 16.9483L66.3483 17.4188L66.3497 17.8522L66.2355 18.0717L66.146 18.3227L66.1199 18.4324L66.3235 18.5888L66.5024 18.9482L66.5285 19.4488L66.4404 19.7135L66.4528 19.933L66.5423 20.1196L66.6193 20.4309L66.6056 20.6188L66.4776 20.8054L66.4005 21.0386L66.2988 21.3335L66.2617 21.5667L66.069 21.6751L65.9163 21.7532L65.9424 22.0482L66.0195 22.2964L66.1089 22.5899L66.0071 22.7916L65.9424 23.0234L65.8008 23.3951L65.8393 23.7038L65.6866 23.9657L65.494 24.1975L65.3661 24.3827L65.3399 24.6447L65.1996 24.7366L64.9313 24.9519L64.7662 25.1056L64.5227 25.1522L64.4718 25.2757L64.5104 25.3977L64.6121 25.4746L64.7703 25.7407L65.1005 26.1988L64.1486 26.2564L63.8693 26.661L63.5433 27.2399L63.7028 28.4086L63.5433 29.0079L63.6396 29.344L63.8831 29.5758L64.1953 29.7048L64.7813 29.713L65.1693 29.8035L65.2078 29.9585L64.985 30.1848L64.6287 30.6087L64.4388 30.7939L63.8321 31.6443L63.8377 32.0064L63.8941 32.2986L64.1555 33.2135L64.4113 34.0982L64.8694 35.6893L64.8612 36.0583L64.7181 36.8758L64.7085 37.3724L64.7731 38.0157L64.725 38.3476L64.8378 39.0911L64.9657 39.1446L65.9576 39.2886L66.8669 39.4216L68.0789 39.5972L68.4462 40.032L68.6746 40.9854L68.6608 41.6972L68.5576 42.0607L67.6909 43.0964L66.8105 44.1443L65.9314 45.1881L65.0207 46.2676L64.9258 46.3815L65.6618 47.2429L66.1171 47.7751L66.7597 48.5226L66.8408 48.7023L66.8353 48.9959L67.4943 50.1316L67.7267 50.7228L67.9358 51.0698L68.4572 51.6116L68.9662 52.1397L69.5178 52.3811L69.8948 52.4346L70.7532 52.7131L71.0669 52.9353L71.5704 53.4949L72.1619 53.4181H72.2844L72.3174 53.4579L72.3353 53.6376L72.2487 54.5059L72.4123 55.3796L72.5265 56.6923L72.4838 56.9186L72.3422 57.2972L72.3353 57.54L72.2982 57.6895L72.3367 57.7553L72.5252 57.8445L72.9268 57.8925L73.8967 57.7457L74.0095 57.7828L74.242 57.9377L74.4167 58.1805L74.4318 58.2958L74.187 58.4974L74.1471 58.8389L74.22 59.3505L74.187 59.4123L73.9724 59.5275L73.9022 60.2655L73.8637 60.3327L73.6134 60.4081L72.4302 60.3574L72.2954 60.378L71.8511 60.5727L71.0889 60.7126L70.8798 60.7922L70.5992 61.0144L70.397 61.2846L70.3584 61.5343L70.3185 61.5864L69.8824 61.5356L69.7393 61.7523L68.8933 62.076L68.7888 62.146L68.6636 62.4039L68.5507 63.1268L68.449 63.7756L68.3843 63.8702L68.1175 64.0924L68.0913 64.1679L68.127 64.4189L68.006 64.8756L67.9111 66.1417L67.8051 66.4956L67.5947 66.5244L67.4296 66.7013L67.1269 66.9194L66.4735 66.7507L65.9548 66.5738L64.238 66.1581L64.0495 65.9565L63.9422 65.6012L63.645 65.5011L63.2186 66.0333L61.7686 65.7261L61.2761 65.8207L60.9721 65.6547L60.1907 65.6451L59.5744 65.3132L58.6898 65.5409L57.991 65.5848L57.0321 65.0032L56.0017 64.8427L55.1653 64.8921L54.7347 64.8468L54.0372 64.6383L53.707 64.423L53.1636 64.5876L52.9188 64.2817L51.3821 63.9977L51.0974 63.456L50.8841 62.9526L50.8676 62.4341L50.4934 61.526L50.3682 60.2051L50.2293 59.688L50.0215 59.2381L49.745 58.8554L49.3694 58.4452L49.0421 58.282L47.6058 57.9693L47.3293 58.0104L46.6869 58.2148L46.0032 58.6689L44.8806 58.9267L44.6549 59.1215L44.373 59.5604L44.0071 59.8156L43.5063 59.7497L42.967 60.009L41.9669 60.7318L41.44 60.9527L40.9984 60.9362L40.5238 60.5933L39.4631 60.1324L38.7767 59.9788L37.8247 60.0844L37.3734 60.0076L36.6072 59.4658L36.4063 59.0721L35.9689 58.8088L34.5822 58.2176L33.4596 57.4357L33.2532 57.1394L33.1156 56.7019L32.6273 56.1697L31.5309 55.7349L30.909 55.2712L30.1799 55.167L29.5017 55.1821L29.2032 55.0984L28.9322 54.8995L28.0063 53.9394L27.9953 53.5594L27.4244 52.6184L27.291 52.2824L27.1685 51.3483L27.0103 51.1041L26.4147 50.7187L26.3225 50.4663L26.4491 50.1302V49.8751L26.1395 49.6351L25.6745 49.5075L25.5617 49.2194L25.6471 48.6584L25.5769 48.3059L25.1669 47.7422L24.5616 47.1647L23.9577 46.3088L23.721 46.0948L23.567 45.5338L23.3455 44.8672L23.0043 44.8191L21.3507 45.6188L20.8679 45.1689L19.4179 44.3871L19.3175 44.2691L19.2156 44.0894L19.3987 43.9852L19.5802 43.9426L19.9448 44.0826L20.1635 43.918L20.0769 43.6519L19.7123 43.4872L19.217 43.4996L19.3532 43.7492L18.8896 43.9852L18.7906 44.2938L18.858 44.6765L18.8979 45.2114L18.7094 45.4693L18.5635 45.5886L17.9404 45.6202L17.6487 45.8561L17.4603 45.9124L17.1975 45.7285L17.0283 45.5791L16.8894 45.2608L16.8467 45.0386L16.9004 44.9124L16.8275 44.7273L16.628 44.4817L16.4271 44.3473L16.2235 44.3226L16.0543 44.1731L15.9195 43.8988L15.6044 43.7177L15.4064 43.682L15.4009 42.833L15.3954 42.0882L15.3899 41.3461L14.7172 41.3159L14.1119 41.2898V40.6671V39.5053L14.3994 38.6028L14.6924 37.7331L14.2466 37.0926L13.772 36.4081L13.4639 36.1228L13.1021 35.2655L12.9219 34.8855L12.7623 34.7415L12.5903 34.6579L11.9589 34.6908L11.3687 34.2285L10.6767 33.6853L9.8307 33.0201L9.08508 32.5852L8.78104 32.4893L8.06431 32.4563L7.98866 32.3726L7.93912 32.134L7.94046 31.8679L8.17296 31.466L8.19085 31.2122L7.70528 30.3591L7.55531 30.1094L7.13985 30.0093L7.22239 29.7624V29.5978L7.16319 29.4675L7.06688 29.4057L6.94446 29.3989L6.61842 29.5004L6.36947 29.1136L5.59497 28.0121L5.34592 27.8777L5.3005 27.8023L5.489 27.4635L5.80816 26.9615L5.86315 26.6707L5.80261 26.3497L5.45869 25.7448L5.54266 25.4883L5.68985 25.1934L5.70219 24.9711L5.93335 25.0041L6.22916 25.0068L6.3227 24.8258L6.31716 24.192L6.38735 23.9602L7.32558 22.8848L7.79193 22.6434L8.14685 22.4212L8.22796 22.0975L8.15508 21.9302L8.08497 21.686L8.06288 21.5105L7.67219 21.0249L7.536 20.7807L7.51954 20.5571L7.61165 20.1621L7.77539 19.8549L8.32981 19.6738L8.64485 19.5201L8.68751 19.3816L8.27893 19.158L7.40669 19.0881L6.76839 19.1525L6.56477 19.0826L6.26216 18.6491L5.94023 18.4187L5.63896 18.2706L5.34592 18.298L5.16842 18.239L5.12719 18.0525L4.7035 16.6218L4.57 16.4257L4.37192 16.3777L4.2055 16.3681L4.09542 16.2693L3.97712 16.0718L3.89181 15.8125L3.88635 15.471L3.90423 15.1775L3.84638 14.9882L3.70062 14.8002L3.49423 14.6644L3.31261 14.5053L2.99489 13.2366L2.86692 12.895V12.8594L2.87246 12.7921L2.84081 12.5L2.988 12.2462L2.97835 12.1461L2.67296 11.8251L2.24373 11.5041L2.12819 11.4479L2.12542 11.105L2.14054 10.8457L2.10208 10.6112L2.01946 10.4768L2.01677 10.3712L2.18873 10.1188L2.07731 9.95278L1.4458 9.54267L1.20919 9.33693L0.771728 9.29578L0.726387 9.15995L0.795155 8.87329L0.945117 8.52489L1.18173 8.18198L1.25739 8.00093L1.3495 7.6923L1.38115 7.47283L1.64665 7.1642L1.64808 7.08328L1.57377 6.97218L1.36192 6.91044L1.14454 6.88436L1.06342 6.82814L1.03454 6.66217L1.062 5.9873L0.99323 5.58131L0.903806 5.2864L0.960231 4.62112L0.808925 4.48671L0.570882 4.13693L0.469116 3.84065L0.524114 3.72955L0.574997 3.53478L0.608079 3.27826L0.598423 3.09721L0.379693 2.92027L0.217303 2.7337L0.198075 2.52796L0.133421 2.27559L0.0412271 2.07533L0 1.94502L0.0797674 1.86821L0.389265 1.80785L0.839153 1.85037L1.2065 1.8531L1.41423 1.72417L1.67142 0.507509L1.90669 0.186528L2.17908 0L2.7115 0.433417L2.93158 0.585704L3.04988 0.599392ZM46.951 59.1709L46.5906 59.6853L46.0472 60.1146L45.8161 59.9815L45.6358 59.987L45.2479 60.1516L44.9686 60.1804L44.461 60.4726L43.9988 60.6194L43.6783 60.6084L43.5668 60.5782L43.5035 60.3793L43.5091 60.2998L43.7044 60.3409L44.4183 60.0748L45.3084 59.6386L45.3938 59.4439L45.2507 59.127L45.2891 59.0556L45.867 59.2175L46.5122 58.902L47.0514 58.8156L47.3046 59.0351L46.951 59.1709Z" fill="var(--fill-0, #71B219)" stroke="var(--stroke-0, white)" mask="url(#path-1-inside-1_0_141)"/>
</g>
</svg>
