<svg preserveAspectRatio="none" width="100%" height="100%" overflow="visible" style="display: block;" viewBox="0 0 74 67" fill="none" xmlns="http://www.w3.org/2000/svg"><g id="IR"><mask id="path-1-inside-1_0_141" fill="white"><path d="M3 1L3 1L4 2L4 2L4 2L4 3L4 3L5 3L5 3L5 3L6 4L6 4L7 4L8 4L8 4L9 4L10 4L10 4L11 3L11 3L11 3L12 3L12 2L13 2L13 1L14 1L14 1L15 0L15 0L16 1L16 2L17 2L16 2L16 2L16 2L16 3L16 3L16 3L16 3L16 4L16 4L16 4L16 4L16 4L16 4L15 4L15 4L15 4L15 5L16 5L16 5L16 6L16 6L17 6L17 6L18 7L18 7L19 7L19 7L19 7L19 8L19 9L19 9L19 10L20 10L20 11L21 11L21 11L22 11L23 11L24 12L24 12L24 12L24 13L25 14L27 14L27 15L30 15L32 15L36 14L38 14H38L38 14L37 14L38 14L38 14L38 14L39 14L39 14L39 14L38 13L38 12L39 12L40 12L40 12L41 11L41 11L41 11L41 11L42 10L42 10L43 9L43 9L44 8L45 8L46 8L46 8L47 8L47 8L47 8L47 8L48 8L48 8L48 8H48L49 8L49 8L50 8L50 8L51 8L51 8L51 8L51 8L51 9L51 9L52 9L52 9L52 9L53 9L54 9L54 10L54 10L55 10L55 10L55 10L56 10L56 10L56 10L57 10L57 10L58 10L59 11L59 11L59 11L59 11L59 11L59 12L60 12L60 13L60 13L62 13L62 14L62 14L63 15L63 15L64 15L66 15L66 16L66 16L66 17L66 17L66 18L66 18L66 18L66 18L66 19L66 19L66 19L66 20L66 20L66 20L67 20L67 21L66 21L66 21L66 21L66 22L66 22L66 22L66 22L66 22L66 23L66 23L66 23L66 23L66 24L66 24L66 24L65 24L65 25L65 25L65 25L65 25L64 25L64 25L64 25L65 26L65 26L65 26L64 26L64 27L64 27L64 28L64 29L64 29L64 30L64 30L65 30L65 30L65 30L65 30L65 31L64 31L64 32L64 32L64 32L64 33L64 34L65 36L65 36L65 37L65 37L65 38L65 38L65 39L65 39L66 39L67 39L68 40L68 40L69 41L69 42L69 42L68 43L67 44L66 45L65 46L65 46L66 47L66 48L67 48L67 49L67 49L68 50L68 51L68 51L68 52L69 52L70 52L70 52L71 53L71 53L72 54L72 53H72L72 54L72 54L72 54L72 55L72 57L72 57L72 57L72 58L72 58L72 58L72 58L73 58L74 58L74 58L74 58L74 58L74 58L74 58L74 59L74 59L74 59L74 60L74 60L74 60L74 60L72 60L72 60L72 61L71 61L71 61L71 61L70 61L70 62L70 62L70 62L70 62L69 62L69 62L69 62L69 63L68 64L68 64L68 64L68 64L68 64L68 65L68 66L68 66L68 66L67 67L67 67L66 67L66 67L64 66L64 66L64 66L64 66L63 66L62 66L61 66L61 66L60 66L60 65L59 66L58 66L57 65L56 65L55 65L55 65L54 65L54 64L53 65L53 64L51 64L51 64L51 63L51 62L50 62L50 60L50 60L50 59L50 59L49 58L49 58L48 58L47 58L47 58L46 59L45 59L45 59L44 60L44 60L44 60L43 60L42 61L41 61L41 61L40 61L40 60L39 60L38 60L37 60L37 60L36 59L36 59L35 58L34 57L33 57L33 57L33 56L32 56L31 55L30 55L30 55L29 55L29 55L28 54L28 54L27 53L27 52L27 51L27 51L26 51L26 50L26 50V50L26 50L26 50L26 49L26 49L26 48L25 48L25 47L24 46L24 46L24 46L23 45L23 45L21 46L21 45L19 44L19 44L19 44L19 44L20 44L20 44L20 44L20 44L20 44L19 44L19 44L19 44L19 44L19 45L19 45L19 46L19 46L18 46L18 46L18 46L17 46L17 46L17 45L17 45L17 45L17 45L17 44L16 44L16 44L16 44L16 44L16 44L15 44L15 43L15 42L15 41L15 41L14 41V41V40L14 39L15 38L14 37L14 36L14 36L13 35L13 35L13 35L13 35L12 35L11 34L11 34L10 33L9 33L9 32L8 32L8 32L8 32L8 32L8 32L8 31L8 30L8 30L7 30L7 30V30L7 30L7 29L7 29L7 30L6 29L6 28L5 28L5 28L6 28L6 27L6 27L6 26L6 26L6 26L6 25L6 25L6 25L6 25L6 25L6 24L6 24L7 23L8 23L8 22L8 22L8 22L8 22L8 22L8 21L8 21L8 21L8 20L8 20L8 20L9 20L9 19L8 19L7 19L7 19L7 19L6 19L6 18L6 18L5 18L5 18L5 18L5 17L5 16L4 16L4 16L4 16L4 16L4 16L4 16L4 15L4 15L4 15L4 15L3 14L3 13L3 13V13L3 13L3 12L3 12L3 12L3 12L2 12L2 11L2 11L2 11L2 11L2 10L2 10L2 10L2 10L1 10L1 9L1 9L1 9L1 9L1 8L1 8L1 8L1 8L1 8L2 7L2 7L2 7L1 7L1 7L1 7L1 7L1 6L1 6L1 5L1 5L1 4L1 4L0 4L0 4L1 4L1 3L1 3L0 3L0 3L0 2L0 2L0 2L0 2L0 2L0 2L1 2L1 2L1 2L2 0L2 0L2 0L3 0L3 1L3 1ZM47 59L47 60L46 60L46 60L46 60L45 60L45 60L44 60L44 61L44 61L44 61L44 60L44 60L44 60L44 60L45 60L45 59L45 59L45 59L46 59L46 59L47 59L47 59L47 59Z"/></mask><path d="M3 1L3 1L4 2L4 2L4 2L4 3L4 3L5 3L5 3L5 3L6 4L6 4L7 4L8 4L8 4L9 4L10 4L10 4L11 3L11 3L11 3L12 3L12 2L13 2L13 1L14 1L14 1L15 0L15 0L16 1L16 2L17 2L16 2L16 2L16 2L16 3L16 3L16 3L16 3L16 4L16 4L16 4L16 4L16 4L16 4L15 4L15 4L15 4L15 5L16 5L16 5L16 6L16 6L17 6L17 6L18 7L18 7L19 7L19 7L19 7L19 8L19 9L19 9L19 10L20 10L20 11L21 11L21 11L22 11L23 11L24 12L24 12L24 12L24 13L25 14L27 14L27 15L30 15L32 15L36 14L38 14H38L38 14L37 14L38 14L38 14L38 14L39 14L39 14L39 14L38 13L38 12L39 12L40 12L40 12L41 11L41 11L41 11L41 11L42 10L42 10L43 9L43 9L44 8L45 8L46 8L46 8L47 8L47 8L47 8L47 8L48 8L48 8L48 8H48L49 8L49 8L50 8L50 8L51 8L51 8L51 8L51 8L51 9L51 9L52 9L52 9L52 9L53 9L54 9L54 10L54 10L55 10L55 10L55 10L56 10L56 10L56 10L57 10L57 10L58 10L59 11L59 11L59 11L59 11L59 11L59 12L60 12L60 13L60 13L62 13L62 14L62 14L63 15L63 15L64 15L66 15L66 16L66 16L66 17L66 17L66 18L66 18L66 18L66 18L66 19L66 19L66 19L66 20L66 20L66 20L67 20L67 21L66 21L66 21L66 21L66 22L66 22L66 22L66 22L66 22L66 23L66 23L66 23L66 23L66 24L66 24L66 24L65 24L65 25L65 25L65 25L65 25L64 25L64 25L64 25L65 26L65 26L65 26L64 26L64 27L64 27L64 28L64 29L64 29L64 30L64 30L65 30L65 30L65 30L65 30L65 31L64 31L64 32L64 32L64 32L64 33L64 34L65 36L65 36L65 37L65 37L65 38L65 38L65 39L65 39L66 39L67 39L68 40L68 40L69 41L69 42L69 42L68 43L67 44L66 45L65 46L65 46L66 47L66 48L67 48L67 49L67 49L68 50L68 51L68 51L68 52L69 52L70 52L70 52L71 53L71 53L72 54L72 53H72L72 54L72 54L72 54L72 55L72 57L72 57L72 57L72 58L72 58L72 58L72 58L73 58L74 58L74 58L74 58L74 58L74 58L74 58L74 59L74 59L74 59L74 60L74 60L74 60L74 60L72 60L72 60L72 61L71 61L71 61L71 61L70 61L70 62L70 62L70 62L70 62L69 62L69 62L69 62L69 63L68 64L68 64L68 64L68 64L68 64L68 65L68 66L68 66L68 66L67 67L67 67L66 67L66 67L64 66L64 66L64 66L64 66L63 66L62 66L61 66L61 66L60 66L60 65L59 66L58 66L57 65L56 65L55 65L55 65L54 65L54 64L53 65L53 64L51 64L51 64L51 63L51 62L50 62L50 60L50 60L50 59L50 59L49 58L49 58L48 58L47 58L47 58L46 59L45 59L45 59L44 60L44 60L44 60L43 60L42 61L41 61L41 61L40 61L40 60L39 60L38 60L37 60L37 60L36 59L36 59L35 58L34 57L33 57L33 57L33 56L32 56L31 55L30 55L30 55L29 55L29 55L28 54L28 54L27 53L27 52L27 51L27 51L26 51L26 50L26 50V50L26 50L26 50L26 49L26 49L26 48L25 48L25 47L24 46L24 46L24 46L23 45L23 45L21 46L21 45L19 44L19 44L19 44L19 44L20 44L20 44L20 44L20 44L20 44L19 44L19 44L19 44L19 44L19 45L19 45L19 46L19 46L18 46L18 46L18 46L17 46L17 46L17 45L17 45L17 45L17 45L17 44L16 44L16 44L16 44L16 44L16 44L15 44L15 43L15 42L15 41L15 41L14 41V41V40L14 39L15 38L14 37L14 36L14 36L13 35L13 35L13 35L13 35L12 35L11 34L11 34L10 33L9 33L9 32L8 32L8 32L8 32L8 32L8 32L8 31L8 30L8 30L7 30L7 30V30L7 30L7 29L7 29L7 30L6 29L6 28L5 28L5 28L6 28L6 27L6 27L6 26L6 26L6 26L6 25L6 25L6 25L6 25L6 25L6 24L6 24L7 23L8 23L8 22L8 22L8 22L8 22L8 22L8 21L8 21L8 21L8 20L8 20L8 20L9 20L9 19L8 19L7 19L7 19L7 19L6 19L6 18L6 18L5 18L5 18L5 18L5 17L5 16L4 16L4 16L4 16L4 16L4 16L4 16L4 15L4 15L4 15L4 15L3 14L3 13L3 13V13L3 13L3 12L3 12L3 12L3 12L2 12L2 11L2 11L2 11L2 11L2 10L2 10L2 10L2 10L1 10L1 9L1 9L1 9L1 9L1 8L1 8L1 8L1 8L1 8L2 7L2 7L2 7L1 7L1 7L1 7L1 7L1 6L1 6L1 5L1 5L1 4L1 4L0 4L0 4L1 4L1 3L1 3L0 3L0 3L0 2L0 2L0 2L0 2L0 2L0 2L1 2L1 2L1 2L2 0L2 0L2 0L3 0L3 1L3 1ZM47 59L47 60L46 60L46 60L46 60L45 60L45 60L44 60L44 61L44 61L44 61L44 60L44 60L44 60L44 60L45 60L45 59L45 59L45 59L46 59L46 59L47 59L47 59L47 59Z" fill="var(--fill-0,#71B219)" stroke="var(--stroke-0,white)" mask="url(#path-1-inside-1_0_141)"/></g></svg>