<svg preserveAspectRatio="none" width="100%" height="100%" overflow="visible" style="display: block;" viewBox="0 0 42 28" fill="none" xmlns="http://www.w3.org/2000/svg"><g id="IS"><mask id="path-1-inside-1_0_129" fill="white"><path d="M34 3L35 3L36 3L36 2L37 2L37 1L38 1L38 1L38 2L38 2L37 2L37 2L36 3L36 4L36 4L36 4L37 5L37 4L38 4L38 5L38 5L38 5L38 6L38 7L37 7L37 7L38 7L39 7L39 7L39 7L39 8L39 8L39 8L39 8L39 9L39 8L40 8L41 9L41 9L41 9L42 9L42 9L42 10L42 10L42 10L42 11L42 11L41 11L41 11L41 11L42 12L42 12L42 12L42 12L42 12L42 12L42 12L41 12L42 13L42 13L42 13L42 14L42 14L42 14L41 14L41 14L41 15L41 15L41 16L41 16L40 17L40 17L39 17L39 17L39 17L39 18L39 18L39 18L39 18L39 19L38 19L38 20L37 20L37 20L36 21L36 21L35 21L33 22L32 22L32 23L31 24L30 24L30 24L29 25L28 25L26 25L26 26L26 26L25 26L25 26L25 27L26 27L25 27L25 28L24 28L24 27L24 27L24 27L24 28L24 28L24 28L22 28L20 28L19 28L18 27L18 27L16 27L16 26L15 26L15 26L15 26L16 25L16 25L16 25L16 25L16 25L16 25L15 26L15 26L14 25L14 25L14 25L13 25L13 24L13 24L13 24L13 24L13 24L12 24L12 24L12 24L8 25L7 25L7 25L7 24L7 24L7 23L7 23L7 22L7 23L7 23L7 23L8 23L9 23L9 23L10 22L10 22L10 22L10 21L10 21L11 20L11 20L11 20L12 20L11 20H11L10 20H9L9 20L10 20L10 20L10 20L10 20L10 19L10 19L11 18L11 18L11 18L11 18L11 18L10 18L9 18L9 18L9 18L8 18L8 18L8 18L9 17L9 17L8 17L8 16L7 16L4 16L4 16L3 16L2 17L2 17L2 16L2 16L2 16L2 15L2 15L2 15L3 15L4 15L4 15L4 15L5 14L5 14L5 14L5 15L6 14L6 14L6 14L6 14L7 14L7 14L8 14L8 14L10 14L10 14L10 13L10 13L10 13L9 13L9 13L8 13L8 12L8 12L8 12L9 11L10 11L10 10L10 10L10 10L8 10L8 9L7 9L6 9L6 9L5 9L3 10L3 10L2 11L2 10L1 10L0 10L0 10L0 9L1 9L1 9L2 9L2 9L2 9L2 8L2 8L2 8L1 7L2 7L2 7L2 7L3 8L4 8L4 8L5 7L4 7L4 7L3 7L3 7L2 6L3 6L3 6L4 6L3 6L3 5L3 5L3 5L3 4L3 4L4 5L4 5L4 4L3 4L3 4L4 4L4 4L4 4L4 3L4 3L4 3L6 4L6 4L6 5L6 5L6 5L6 5L6 5L6 5L7 5L7 5L7 5L7 5L7 6L7 6L7 6L7 6L8 6L8 6L8 5L8 4L8 4L6 4L6 3L6 3L6 3L6 3L7 3L8 3L8 2L8 2L7 2L7 2L7 2L6 2L6 2L5 2L5 2L6 1L6 1L6 1L7 1L7 1L8 1L8 1L9 2L10 3L10 3L10 3L11 4L12 5L12 5L12 5L11 5L12 5L12 6L12 6L12 6L12 8L12 8L12 8L11 8L11 8L12 8L12 9L12 9L12 9L12 9L12 9L12 9L12 10L12 10L12 10L12 10L12 10L12 10L13 12L13 12L13 12L13 11L13 10L13 10L13 10L14 10L14 9L14 8L14 8L15 8L15 8L15 9L15 9L16 9L16 9L16 8L16 7L16 6L16 5L16 4L16 4L17 4L17 5L18 6L18 6L19 7L19 7L19 7L19 7L19 7L20 7L19 5L20 5L20 4L20 4L21 4L21 4L22 3L22 3L22 3L22 4L23 4L23 5L24 6L24 7L24 8L24 8L24 7L25 7L25 7L24 6L24 4L24 4L24 4L24 4L25 4L26 4L26 5L27 5L27 5L27 5L27 5L27 5L28 4L28 3L28 3L29 3L29 3L29 4L30 4L30 4L30 3L31 3L31 3L31 2L31 1L31 0L32 0L33 0L33 0L33 1L34 1L34 2L34 2L34 3L34 3Z"/></mask><path d="M34 3L35 3L36 3L36 2L37 2L37 1L38 1L38 1L38 2L38 2L37 2L37 2L36 3L36 4L36 4L36 4L37 5L37 4L38 4L38 5L38 5L38 5L38 6L38 7L37 7L37 7L38 7L39 7L39 7L39 7L39 8L39 8L39 8L39 8L39 9L39 8L40 8L41 9L41 9L41 9L42 9L42 9L42 10L42 10L42 10L42 11L42 11L41 11L41 11L41 11L42 12L42 12L42 12L42 12L42 12L42 12L42 12L41 12L42 13L42 13L42 13L42 14L42 14L42 14L41 14L41 14L41 15L41 15L41 16L41 16L40 17L40 17L39 17L39 17L39 17L39 18L39 18L39 18L39 18L39 19L38 19L38 20L37 20L37 20L36 21L36 21L35 21L33 22L32 22L32 23L31 24L30 24L30 24L29 25L28 25L26 25L26 26L26 26L25 26L25 26L25 27L26 27L25 27L25 28L24 28L24 27L24 27L24 27L24 28L24 28L24 28L22 28L20 28L19 28L18 27L18 27L16 27L16 26L15 26L15 26L15 26L16 25L16 25L16 25L16 25L16 25L16 25L15 26L15 26L14 25L14 25L14 25L13 25L13 24L13 24L13 24L13 24L13 24L12 24L12 24L12 24L8 25L7 25L7 25L7 24L7 24L7 23L7 23L7 22L7 23L7 23L7 23L8 23L9 23L9 23L10 22L10 22L10 22L10 21L10 21L11 20L11 20L11 20L12 20L11 20H11L10 20H9L9 20L10 20L10 20L10 20L10 20L10 19L10 19L11 18L11 18L11 18L11 18L11 18L10 18L9 18L9 18L9 18L8 18L8 18L8 18L9 17L9 17L8 17L8 16L7 16L4 16L4 16L3 16L2 17L2 17L2 16L2 16L2 16L2 15L2 15L2 15L3 15L4 15L4 15L4 15L5 14L5 14L5 14L5 15L6 14L6 14L6 14L6 14L7 14L7 14L8 14L8 14L10 14L10 14L10 13L10 13L10 13L9 13L9 13L8 13L8 12L8 12L8 12L9 11L10 11L10 10L10 10L10 10L8 10L8 9L7 9L6 9L6 9L5 9L3 10L3 10L2 11L2 10L1 10L0 10L0 10L0 9L1 9L1 9L2 9L2 9L2 9L2 8L2 8L2 8L1 7L2 7L2 7L2 7L3 8L4 8L4 8L5 7L4 7L4 7L3 7L3 7L2 6L3 6L3 6L4 6L3 6L3 5L3 5L3 5L3 4L3 4L4 5L4 5L4 4L3 4L3 4L4 4L4 4L4 4L4 3L4 3L4 3L6 4L6 4L6 5L6 5L6 5L6 5L6 5L6 5L7 5L7 5L7 5L7 5L7 6L7 6L7 6L7 6L8 6L8 6L8 5L8 4L8 4L6 4L6 3L6 3L6 3L6 3L7 3L8 3L8 2L8 2L7 2L7 2L7 2L6 2L6 2L5 2L5 2L6 1L6 1L6 1L7 1L7 1L8 1L8 1L9 2L10 3L10 3L10 3L11 4L12 5L12 5L12 5L11 5L12 5L12 6L12 6L12 6L12 8L12 8L12 8L11 8L11 8L12 8L12 9L12 9L12 9L12 9L12 9L12 9L12 10L12 10L12 10L12 10L12 10L12 10L13 12L13 12L13 12L13 11L13 10L13 10L13 10L14 10L14 9L14 8L14 8L15 8L15 8L15 9L15 9L16 9L16 9L16 8L16 7L16 6L16 5L16 4L16 4L17 4L17 5L18 6L18 6L19 7L19 7L19 7L19 7L19 7L20 7L19 5L20 5L20 4L20 4L21 4L21 4L22 3L22 3L22 3L22 4L23 4L23 5L24 6L24 7L24 8L24 8L24 7L25 7L25 7L24 6L24 4L24 4L24 4L24 4L25 4L26 4L26 5L27 5L27 5L27 5L27 5L27 5L28 4L28 3L28 3L29 3L29 3L29 4L30 4L30 4L30 3L31 3L31 3L31 2L31 1L31 0L32 0L33 0L33 0L33 1L34 1L34 2L34 2L34 3L34 3Z" fill="var(--fill-0,#71B219)" stroke="var(--stroke-0,white)" mask="url(#path-1-inside-1_0_129)"/></g></svg>