<svg preserveAspectRatio="none" width="100%" height="100%" overflow="visible" style="display: block;" viewBox="0 0 42.1581 28.3798" fill="none" xmlns="http://www.w3.org/2000/svg">
<g id="IS">
<mask id="path-1-inside-1_0_129" fill="white">
<path d="M34.4873 2.85581L34.9303 2.89147L35.6539 2.56363L35.9565 2.34828L36.7008 1.60072L37.1396 1.39224L37.8178 1.44435L38.1439 1.39224L38.1521 1.46493L37.7353 1.76808L37.4024 1.87231L36.9236 2.3236L36.4683 3.33862L36.1312 3.83516L36.134 4.05602L36.5439 4.44692L36.9938 4.66778L37.4065 4.4675L37.5867 4.54569L37.749 4.83511L37.8412 5.12179L37.8618 5.40572L37.7876 5.99829L37.5399 6.59222L37.2043 7.08876L37.251 7.24513L37.5207 7.32469L38.7987 7.00373L38.9321 7.02704L39.005 7.18751L39.0202 7.4838L39.0903 7.75128L39.2169 7.99131L39.177 8.23548L38.6171 9.00773L39.2788 8.52215L39.8002 8.38498L40.6944 8.62915L41.0603 8.90896L41.2736 9.40138L41.5831 9.23817L41.7179 9.24775L41.9201 9.52759L41.927 9.82661L41.7784 10.2504L41.7275 10.6428L41.5721 10.8032L41.2818 10.9198L41.1993 11.0501L41.3272 11.3478L41.5157 11.6386L41.7826 11.6509L41.8307 11.7853L41.8362 11.9458L41.8004 12.1351L41.7138 12.2641L41.5748 12.3354L41.3919 12.5425L42.0632 12.9952L42.1485 13.1639L42.1581 13.4094L42.1058 13.6796L41.9917 13.9731L41.7894 14.146L41.3052 14.1748L41.0081 14.3654L41.1098 14.6809L41.1016 15.0801L41.0122 15.5506L40.6311 16.2597L40.2734 16.6369L39.9226 16.8811L39.2981 16.7947L38.9583 16.6067L38.9954 17.2171L38.6487 17.5916L38.7134 17.9043L38.8344 18.0634L38.7753 18.464L38.6102 18.8604L38.3337 19.2884L38.02 19.5558L37.3969 19.8782L36.8644 20.4117L36.5013 20.623L35.5961 20.6134L34.673 20.9563L33.3688 21.6778L32.4897 22.2539L31.8115 22.9054L30.916 23.9644L30.2515 24.4088L29.8677 24.5281L29.1207 24.6227L28.4947 24.9094L26.4161 25.4444L25.7131 25.7366L25.6223 26.0013L25.3306 26.4004L25.3127 26.5445L25.4393 26.6556L25.4641 26.7996L25.2068 27.2701L24.6923 27.6089L24.4502 27.6034L24.1558 27.3112L24.0279 27.3222L23.977 27.3675L23.9742 27.458L24.1434 27.8091L23.8325 27.971L22.4788 28.3798L20.1746 28.078L19.2625 27.7639L18.1358 27.2618L17.4658 27.1288L16.5152 27.0959L15.7338 26.3936L15.372 25.9588L15.3431 25.7777L15.3844 25.5706L15.4655 25.4293L15.5866 25.3539L15.8439 25.3456L15.8783 25.2839L15.6815 24.9341L15.493 25.048L14.9909 25.5418L14.7667 25.5239L14.4723 25.277L14.4613 25.037L13.8876 24.9451L13.3882 24.6447L12.8916 24.2126L12.8174 24.048L13.0567 23.8052L13.0099 23.7586L12.8297 23.7175L12.4679 23.797L11.9218 24.3443L11.6865 24.4705L8.11935 24.5981L7.21416 24.6543L7.03943 24.738L6.88262 24.3827L6.74227 23.5872L6.69 23.0618L6.72577 22.8067L6.85097 22.5008L7.04493 22.5529L7.22927 22.7957L7.39712 23.14L7.58835 23.3073L8.83335 22.8876L9.33958 22.605L9.5542 22.3376L9.80731 21.8794L10.0756 21.6449L10.2035 21.424L10.4553 20.7204L10.6286 20.3939L10.8377 20.1511L11.0799 19.9948L11.6301 19.8837L11.2683 19.7177H10.9216L9.74682 20.4625H9.35197L9.36847 20.3459L9.53493 20.136L9.93939 19.7725L9.66151 19.7451L9.55558 19.5805L9.5432 19.2335L9.74954 18.6725L10.707 17.9318L11.0386 17.822L11.139 17.6753L11.0138 17.5559L10.813 17.4832L9.84997 18.2473L9.14835 18.5106L8.94062 18.4599L8.57747 18.165L8.4605 18.0319L8.3037 17.6931L8.32297 17.4887L8.65589 16.8879L8.60224 16.7713L8.37247 16.7124L7.75477 16.1582L6.77804 16.2145L4.35819 15.8921L3.85747 16.0293L3.03343 16.5052L2.53543 16.6616L2.30565 16.5587L2.09658 16.3064L1.90673 15.9675L1.73612 15.5382L1.80904 15.2406L2.12819 15.0705L2.36208 14.9895L3.02104 15.0924L3.82443 14.792L4.3362 14.7289L4.48339 14.6809L4.78466 14.3613L4.93323 14.2804L5.16435 14.3929L5.27716 14.6096L6.0847 14.2722L6.36258 14.1035L6.39424 13.9978L6.51527 13.8771L6.91701 14.0596L7.24304 14.0651L7.64885 13.9389L8.36697 13.884L9.97516 13.8552L10.2159 13.5795L10.3287 13.3353L10.4704 12.714L10.4071 12.5864L9.40424 13.1584L9.17451 13.1488L8.01204 12.8456L7.59247 12.5027L7.73004 12.227L8.34635 11.6317L8.98193 11.1544L9.91739 10.6359L10.1361 10.4343L10.1595 10.1942L9.53493 9.76763L8.35597 9.88559L8.05331 9.37944L7.07247 9.07904L6.42039 9.26697L6.0737 8.95971L5.22627 9.38493L3.36358 9.99807L2.62208 10.4219L2.22312 10.5632L1.76366 10.2175L0.971231 9.82661L0.0798093 9.70453L0 9.47409L0.520041 8.76768L0.876307 8.63873L1.234 8.70458L1.91773 9.19702L2.38958 9.352L1.79804 8.62777L1.81315 8.34931L1.76777 7.93097L1.58619 7.75128L1.40458 7.28764L1.47889 7.13127L1.71139 7.07503L2.18735 7.23278L3.31954 8.03658L3.87535 7.89392L4.17935 7.59766L4.5962 7.37818L4.47789 7.26433L3.49977 7.25062L2.97562 7.08602L2.7115 6.85008L2.48177 6.44818L2.56293 6.26302L2.83531 6.11487L3.67035 6.15876L3.12008 5.45784L2.73766 5.05458L2.69639 4.85981L2.7225 4.61564L2.77343 4.45105L2.85181 4.36875L3.80931 4.78025L4.01977 4.79671L3.82581 4.53198L3.40485 4.14105L3.38696 3.99429L3.56443 3.87495L3.65112 3.65138L3.65935 3.46757L3.94962 3.30846L4.24404 3.3016L4.53981 3.447L5.456 4.20964L5.5867 4.42361L5.63074 4.7048L5.58531 5.05458L5.62385 5.1945L5.98154 5.07516L6.26766 5.22192L6.40935 5.18215L6.76566 4.65679L7.01054 4.78161L7.15774 5.02714L7.2045 5.24936L7.22654 5.55387L7.16323 6.18758L7.17973 6.27672L7.42873 5.91874L7.85247 5.8913L7.90751 5.71162L7.91989 5.04498L7.88547 4.47985L7.8387 4.36463L6.44378 3.58005L6.20162 3.3935L5.89762 3.00669L5.9595 2.81192L6.23189 2.6377L6.64046 2.56775L7.59108 2.57736L7.68739 2.49506L7.50304 2.29068L7.0642 2.15899L6.961 2.03967L6.90874 1.81197L6.38735 1.93679L5.80543 1.94228L5.24554 1.80236L5.2345 1.62542L5.45462 1.3648L5.91273 0.932722L6.12458 0.824368L6.76431 0.8998L7.39851 0.777736L7.91301 0.925878L8.32158 1.35383L8.90074 2.10549L9.68489 2.58422L9.75782 2.73508L10.1746 3.12601L11.0055 4.17672L11.8489 4.78436L11.8874 4.93936L11.7484 5.12043L11.4238 5.33304L11.498 5.44961L11.9218 5.60462L12.2272 6.01338L12.2478 6.19169L11.9713 7.45362L11.8241 7.7211L11.6563 7.86238L10.8776 7.62507L11.062 8.02561L11.6191 8.45082L11.7443 8.68813L11.6618 8.92131L11.7223 8.9748L11.9259 8.84998L12.0112 8.98165L11.9754 9.36984L11.8887 9.69218L11.7498 9.94731L11.7911 10.0584L12.0084 10.0241L12.212 10.09L12.5312 10.4425L12.7898 11.5165L12.9178 11.8622L13.0113 11.5549L13.1269 10.7717L13.2355 10.3711L13.3387 10.3533L13.4268 10.2216L13.501 9.97475L13.6524 9.10237L14.1752 8.43986L14.4242 8.23548L14.6594 8.19158L14.7722 8.27388L15.1643 8.96932L15.4023 9.0859L15.5233 9.04888L15.6912 8.57565L15.903 7.6676L15.9512 6.64982L15.837 5.52094L15.903 4.71167L16.152 4.22747L16.478 4.07795L16.8839 4.2645L17.1797 4.56078L17.763 5.68554L18.2348 6.27398L18.6393 6.90222L18.8484 7.1066L19.2501 7.20947L19.3574 7.16832L19.4289 7.0243L19.466 6.77465L19.3794 5.16842L19.4922 4.66778L19.6628 4.30977L20.3864 4.09991L20.7812 3.87495L21.1651 3.50598L21.4828 3.30708L21.736 3.28102L21.9987 3.42504L22.2752 3.73916L22.7044 4.35092L23.2451 5.36183L23.9329 6.11351L24.292 7.30411L24.3691 7.50437L24.4543 7.52769L24.5451 7.3727L24.6029 7.15459L24.6194 6.62515L24.4268 5.92284L23.7844 4.1438L23.7734 3.805L23.8545 3.53339L24.3071 3.50323L25.3609 3.66783L25.6966 3.9449L26.4133 5.03401L26.6142 5.29737L26.7366 5.3632L26.782 5.23152L27.0599 5.02989L27.2511 4.78574L27.5717 4.18494L28.2719 3.10134L28.4177 3.06977L28.6213 3.15483L28.9804 3.43875L29.1509 3.66645L29.488 3.83929L29.8333 3.77892L30.3107 3.39898L30.8513 3.1658L31.0356 2.62673L31.0701 2.37984L30.6353 0.765387L30.8183 0.433438L31.7606 0.0315414L32.5847 0L32.78 0.111096L33.2987 0.8998L33.6508 1.29485L33.8283 1.61171L33.8709 2.30987L34.0842 2.56639L34.4873 2.85581Z"/>
</mask>
<path d="M34.4873 2.85581L34.9303 2.89147L35.6539 2.56363L35.9565 2.34828L36.7008 1.60072L37.1396 1.39224L37.8178 1.44435L38.1439 1.39224L38.1521 1.46493L37.7353 1.76808L37.4024 1.87231L36.9236 2.3236L36.4683 3.33862L36.1312 3.83516L36.134 4.05602L36.5439 4.44692L36.9938 4.66778L37.4065 4.4675L37.5867 4.54569L37.749 4.83511L37.8412 5.12179L37.8618 5.40572L37.7876 5.99829L37.5399 6.59222L37.2043 7.08876L37.251 7.24513L37.5207 7.32469L38.7987 7.00373L38.9321 7.02704L39.005 7.18751L39.0202 7.4838L39.0903 7.75128L39.2169 7.99131L39.177 8.23548L38.6171 9.00773L39.2788 8.52215L39.8002 8.38498L40.6944 8.62915L41.0603 8.90896L41.2736 9.40138L41.5831 9.23817L41.7179 9.24775L41.9201 9.52759L41.927 9.82661L41.7784 10.2504L41.7275 10.6428L41.5721 10.8032L41.2818 10.9198L41.1993 11.0501L41.3272 11.3478L41.5157 11.6386L41.7826 11.6509L41.8307 11.7853L41.8362 11.9458L41.8004 12.1351L41.7138 12.2641L41.5748 12.3354L41.3919 12.5425L42.0632 12.9952L42.1485 13.1639L42.1581 13.4094L42.1058 13.6796L41.9917 13.9731L41.7894 14.146L41.3052 14.1748L41.0081 14.3654L41.1098 14.6809L41.1016 15.0801L41.0122 15.5506L40.6311 16.2597L40.2734 16.6369L39.9226 16.8811L39.2981 16.7947L38.9583 16.6067L38.9954 17.2171L38.6487 17.5916L38.7134 17.9043L38.8344 18.0634L38.7753 18.464L38.6102 18.8604L38.3337 19.2884L38.02 19.5558L37.3969 19.8782L36.8644 20.4117L36.5013 20.623L35.5961 20.6134L34.673 20.9563L33.3688 21.6778L32.4897 22.2539L31.8115 22.9054L30.916 23.9644L30.2515 24.4088L29.8677 24.5281L29.1207 24.6227L28.4947 24.9094L26.4161 25.4444L25.7131 25.7366L25.6223 26.0013L25.3306 26.4004L25.3127 26.5445L25.4393 26.6556L25.4641 26.7996L25.2068 27.2701L24.6923 27.6089L24.4502 27.6034L24.1558 27.3112L24.0279 27.3222L23.977 27.3675L23.9742 27.458L24.1434 27.8091L23.8325 27.971L22.4788 28.3798L20.1746 28.078L19.2625 27.7639L18.1358 27.2618L17.4658 27.1288L16.5152 27.0959L15.7338 26.3936L15.372 25.9588L15.3431 25.7777L15.3844 25.5706L15.4655 25.4293L15.5866 25.3539L15.8439 25.3456L15.8783 25.2839L15.6815 24.9341L15.493 25.048L14.9909 25.5418L14.7667 25.5239L14.4723 25.277L14.4613 25.037L13.8876 24.9451L13.3882 24.6447L12.8916 24.2126L12.8174 24.048L13.0567 23.8052L13.0099 23.7586L12.8297 23.7175L12.4679 23.797L11.9218 24.3443L11.6865 24.4705L8.11935 24.5981L7.21416 24.6543L7.03943 24.738L6.88262 24.3827L6.74227 23.5872L6.69 23.0618L6.72577 22.8067L6.85097 22.5008L7.04493 22.5529L7.22927 22.7957L7.39712 23.14L7.58835 23.3073L8.83335 22.8876L9.33958 22.605L9.5542 22.3376L9.80731 21.8794L10.0756 21.6449L10.2035 21.424L10.4553 20.7204L10.6286 20.3939L10.8377 20.1511L11.0799 19.9948L11.6301 19.8837L11.2683 19.7177H10.9216L9.74682 20.4625H9.35197L9.36847 20.3459L9.53493 20.136L9.93939 19.7725L9.66151 19.7451L9.55558 19.5805L9.5432 19.2335L9.74954 18.6725L10.707 17.9318L11.0386 17.822L11.139 17.6753L11.0138 17.5559L10.813 17.4832L9.84997 18.2473L9.14835 18.5106L8.94062 18.4599L8.57747 18.165L8.4605 18.0319L8.3037 17.6931L8.32297 17.4887L8.65589 16.8879L8.60224 16.7713L8.37247 16.7124L7.75477 16.1582L6.77804 16.2145L4.35819 15.8921L3.85747 16.0293L3.03343 16.5052L2.53543 16.6616L2.30565 16.5587L2.09658 16.3064L1.90673 15.9675L1.73612 15.5382L1.80904 15.2406L2.12819 15.0705L2.36208 14.9895L3.02104 15.0924L3.82443 14.792L4.3362 14.7289L4.48339 14.6809L4.78466 14.3613L4.93323 14.2804L5.16435 14.3929L5.27716 14.6096L6.0847 14.2722L6.36258 14.1035L6.39424 13.9978L6.51527 13.8771L6.91701 14.0596L7.24304 14.0651L7.64885 13.9389L8.36697 13.884L9.97516 13.8552L10.2159 13.5795L10.3287 13.3353L10.4704 12.714L10.4071 12.5864L9.40424 13.1584L9.17451 13.1488L8.01204 12.8456L7.59247 12.5027L7.73004 12.227L8.34635 11.6317L8.98193 11.1544L9.91739 10.6359L10.1361 10.4343L10.1595 10.1942L9.53493 9.76763L8.35597 9.88559L8.05331 9.37944L7.07247 9.07904L6.42039 9.26697L6.0737 8.95971L5.22627 9.38493L3.36358 9.99807L2.62208 10.4219L2.22312 10.5632L1.76366 10.2175L0.971231 9.82661L0.0798093 9.70453L0 9.47409L0.520041 8.76768L0.876307 8.63873L1.234 8.70458L1.91773 9.19702L2.38958 9.352L1.79804 8.62777L1.81315 8.34931L1.76777 7.93097L1.58619 7.75128L1.40458 7.28764L1.47889 7.13127L1.71139 7.07503L2.18735 7.23278L3.31954 8.03658L3.87535 7.89392L4.17935 7.59766L4.5962 7.37818L4.47789 7.26433L3.49977 7.25062L2.97562 7.08602L2.7115 6.85008L2.48177 6.44818L2.56293 6.26302L2.83531 6.11487L3.67035 6.15876L3.12008 5.45784L2.73766 5.05458L2.69639 4.85981L2.7225 4.61564L2.77343 4.45105L2.85181 4.36875L3.80931 4.78025L4.01977 4.79671L3.82581 4.53198L3.40485 4.14105L3.38696 3.99429L3.56443 3.87495L3.65112 3.65138L3.65935 3.46757L3.94962 3.30846L4.24404 3.3016L4.53981 3.447L5.456 4.20964L5.5867 4.42361L5.63074 4.7048L5.58531 5.05458L5.62385 5.1945L5.98154 5.07516L6.26766 5.22192L6.40935 5.18215L6.76566 4.65679L7.01054 4.78161L7.15774 5.02714L7.2045 5.24936L7.22654 5.55387L7.16323 6.18758L7.17973 6.27672L7.42873 5.91874L7.85247 5.8913L7.90751 5.71162L7.91989 5.04498L7.88547 4.47985L7.8387 4.36463L6.44378 3.58005L6.20162 3.3935L5.89762 3.00669L5.9595 2.81192L6.23189 2.6377L6.64046 2.56775L7.59108 2.57736L7.68739 2.49506L7.50304 2.29068L7.0642 2.15899L6.961 2.03967L6.90874 1.81197L6.38735 1.93679L5.80543 1.94228L5.24554 1.80236L5.2345 1.62542L5.45462 1.3648L5.91273 0.932722L6.12458 0.824368L6.76431 0.8998L7.39851 0.777736L7.91301 0.925878L8.32158 1.35383L8.90074 2.10549L9.68489 2.58422L9.75782 2.73508L10.1746 3.12601L11.0055 4.17672L11.8489 4.78436L11.8874 4.93936L11.7484 5.12043L11.4238 5.33304L11.498 5.44961L11.9218 5.60462L12.2272 6.01338L12.2478 6.19169L11.9713 7.45362L11.8241 7.7211L11.6563 7.86238L10.8776 7.62507L11.062 8.02561L11.6191 8.45082L11.7443 8.68813L11.6618 8.92131L11.7223 8.9748L11.9259 8.84998L12.0112 8.98165L11.9754 9.36984L11.8887 9.69218L11.7498 9.94731L11.7911 10.0584L12.0084 10.0241L12.212 10.09L12.5312 10.4425L12.7898 11.5165L12.9178 11.8622L13.0113 11.5549L13.1269 10.7717L13.2355 10.3711L13.3387 10.3533L13.4268 10.2216L13.501 9.97475L13.6524 9.10237L14.1752 8.43986L14.4242 8.23548L14.6594 8.19158L14.7722 8.27388L15.1643 8.96932L15.4023 9.0859L15.5233 9.04888L15.6912 8.57565L15.903 7.6676L15.9512 6.64982L15.837 5.52094L15.903 4.71167L16.152 4.22747L16.478 4.07795L16.8839 4.2645L17.1797 4.56078L17.763 5.68554L18.2348 6.27398L18.6393 6.90222L18.8484 7.1066L19.2501 7.20947L19.3574 7.16832L19.4289 7.0243L19.466 6.77465L19.3794 5.16842L19.4922 4.66778L19.6628 4.30977L20.3864 4.09991L20.7812 3.87495L21.1651 3.50598L21.4828 3.30708L21.736 3.28102L21.9987 3.42504L22.2752 3.73916L22.7044 4.35092L23.2451 5.36183L23.9329 6.11351L24.292 7.30411L24.3691 7.50437L24.4543 7.52769L24.5451 7.3727L24.6029 7.15459L24.6194 6.62515L24.4268 5.92284L23.7844 4.1438L23.7734 3.805L23.8545 3.53339L24.3071 3.50323L25.3609 3.66783L25.6966 3.9449L26.4133 5.03401L26.6142 5.29737L26.7366 5.3632L26.782 5.23152L27.0599 5.02989L27.2511 4.78574L27.5717 4.18494L28.2719 3.10134L28.4177 3.06977L28.6213 3.15483L28.9804 3.43875L29.1509 3.66645L29.488 3.83929L29.8333 3.77892L30.3107 3.39898L30.8513 3.1658L31.0356 2.62673L31.0701 2.37984L30.6353 0.765387L30.8183 0.433438L31.7606 0.0315414L32.5847 0L32.78 0.111096L33.2987 0.8998L33.6508 1.29485L33.8283 1.61171L33.8709 2.30987L34.0842 2.56639L34.4873 2.85581Z" fill="var(--fill-0, #71B219)" stroke="var(--stroke-0, white)" mask="url(#path-1-inside-1_0_129)"/>
</g>
</svg>
