<svg preserveAspectRatio="none" width="100%" height="100%" overflow="visible" style="display: block;" viewBox="0 0 45.7817 53.7171" fill="none" xmlns="http://www.w3.org/2000/svg">
<g id="IT">
<mask id="path-1-inside-1_0_261" fill="white">
<path d="M27.3006 3.1315L27.2222 3.4511L27.0585 3.53067L26.7724 3.7172L26.4449 3.97234L26.1396 4.25899L26.057 4.57039L26.1409 4.77337L26.2234 4.84336L26.3349 4.78161L26.4973 4.82004L26.7009 4.93114L27.0406 5.03947L27.0503 5.14646L26.9787 5.28364L26.7146 5.52643L26.4766 5.80078L26.4532 5.96809L26.4821 6.0902L26.5647 6.16425L26.9168 6.13134L26.9691 6.23147L26.7971 6.93514L26.8507 7.05448L27.1603 7.16696L27.3859 7.33565L27.8083 7.78008L27.9761 8.13945L27.8605 8.26017L27.595 8.31915L27.3791 8.28897L27.6239 8.07222L27.0255 7.28216L26.7545 7.28354L26.3954 7.61821L25.3967 7.27943L25.2054 7.41657L25.0638 7.68405L24.7171 8.016L24.226 8.16138L23.6784 8.52627L23.102 8.78413L22.6618 8.9789L22.4087 8.94462L22.8104 8.52351L22.6398 8.51531L22.106 8.81293L21.7992 9.06396L21.7002 9.48641L21.6108 10.1805L21.8446 10.3643L22.2546 11.2778L22.7595 11.6674L22.6618 12.0391L22.5284 12.3326L22.2229 12.5864L21.9698 12.3985L21.8144 12.4026L21.6974 12.9965L21.9162 14.5753L22.2684 15.6781L22.6178 16.1582L23.4061 16.903L24.2397 17.2953L25.7392 18.5449L26.5619 18.9399L26.7779 19.1539L27.2759 20.1127L27.7064 21.2169L28.1701 22.9424L28.5003 23.7888L29.1661 24.7435L30.5473 26.1042L31.8033 27.0959L32.9726 27.7076L33.8847 27.8146L36.0431 27.6802L36.4187 27.7378L36.8177 27.9024L36.9126 28.3263L36.7668 28.6115L36.3128 28.9078L35.8506 29.318L35.7996 29.8762L36.2316 30.2685L38.3144 31.3069L40.444 32.1724L41.1071 32.6127L41.8761 33.2972L43.7319 34.2354L44.0456 34.6908L45.1737 35.6688L45.684 36.4218L45.7817 37.0048L45.5382 37.596L45.4254 38.0116L45.2342 38.4217L44.7541 38.2667L44.2079 37.8442L43.3853 36.1242L41.8844 35.9499L41.5735 35.8224L41.0397 35.5261L41.008 35.33L40.876 35.0858L40.7398 35.0035L40.1661 34.9487L39.7685 35.2284L39.3008 35.891L38.7698 36.8415L38.2305 38.231L38.2002 38.7907L38.4933 39.3325L39.3682 39.6342L40.0437 40.1157L40.4894 40.6177L40.521 41.8262L40.7205 42.5106L40.4275 42.8988L39.8594 42.7987L39.1027 43.0456L38.5662 43.4872L38.3433 43.907L38.4011 44.9934L38.2911 45.4062L37.2744 46.1853L36.7406 46.9809L36.6072 47.3101L36.4036 47.6832L35.1201 47.6969L34.8161 47.2347L34.8051 46.5474L35.0251 46.1236L35.497 45.9247L35.8148 45.0414L35.7144 44.4022L35.9001 44.1182L36.0748 43.918L36.4338 43.8L36.9415 43.6875L36.9924 42.7918L36.5962 42.3844L36.4573 41.8125L36.2729 40.7535L35.6195 39.3969L35.2701 38.183L34.9963 37.5822L34.5808 37.2681L33.8311 37.2723L33.4583 37.1831L32.1321 36.3354L32.0399 36.2065L32.0481 35.9801L32.2683 35.6386L32.1197 35.1763L31.9628 34.7388L31.7029 34.3657L31.4181 34.1709L30.8211 34.2902L30.6119 34.3821L30.235 34.3506L29.9393 34.5166L29.7741 34.5221L30.2391 33.865L30.1139 33.71L29.6544 33.4398L29.0299 33.3987L28.8565 33.3657L28.7548 33.5345L28.6337 33.4425L28.6461 33.149L27.9211 31.8295L27.4341 31.2904L27.1879 31.1944L26.7434 31.3082L25.9993 31.0723L25.5549 31.0202L25.31 31.0778L24.9441 31.2492L24.7598 31.1354L24.6951 30.9585L24.0196 30.4084L23.1763 30.0971L21.5351 28.3372L21.0316 27.6774L19.9957 26.9491L19.3409 25.8847L18.8044 25.4938L18.0243 25.1796L17.8441 25.2194L17.6102 25.3374L17.4259 25.3538L17.2801 25.2153L17.4287 25.0727L17.5951 25.0082L17.5305 24.5994L16.6418 23.5378L16.1217 23.1949L15.9746 22.9836L15.8659 22.6942L15.7544 22.5035L15.5082 22.3938L15.2977 22.413L15.0074 22.3403L15.0171 21.8273L15.0749 21.4336L15.0308 21.0989L14.7474 20.2169L14.2577 19.468L13.9688 17.6698L13.7459 17.1609L13.2039 16.7754L11.9809 16.342L10.2764 15.1747L9.91601 15.1542L8.89112 14.6988L8.25555 14.6206L7.43012 15.0293L6.42724 16.1513L5.6142 17.3131L5.31843 17.5381L4.26877 17.9332L3.34158 18.1211L3.33193 17.8248L3.29893 17.6012L3.45573 17.3557L3.71439 17.0662L3.95239 16.7014L4.05143 16.438L4.00466 16.2624L3.89735 16.0018L3.7515 15.9827L2.86831 16.2021L2.66608 16.1459L2.01266 15.8043L1.30965 15.3846L1.05104 15.0856L0.953346 14.7838L1.02627 14.589L0.968502 14.3997L0.830924 14.1446L0.954732 13.8552L1.17346 13.4944L1.28354 13.2489L1.46785 13.1858L1.55593 13.0363L1.40869 12.4382L1.33165 12.3422L1.20512 12.2682L1.00977 12.2599L0.668577 12.1365L0.426462 11.9294L0.374193 11.6495L0.246271 11.3807L0.0274988 11.1338L0 10.8636L0.249 10.7209L0.588809 10.7154L0.828153 10.7689L1.36469 10.3341L1.56277 10.2957L1.74027 10.2024L1.88885 9.60714L2.003 9.42881L2.03054 9.32458L1.92458 9.19976L1.49127 8.78003L1.29316 8.34109L0.980887 7.84865L0.690618 7.63056L0.631464 7.46048L0.624579 7.24511L0.683732 7.05448L1.20923 6.7582L1.52016 6.4427L1.65358 6.56342L1.93696 6.69235L2.706 6.51679L3.18335 6.33981L3.51904 6.15328L3.72677 6.18618L4.48062 6.46463L4.72962 6.32336L5.27304 5.94616L5.3542 5.74728L5.78343 5.14374L5.79166 4.99698L5.61558 4.61702L5.67062 4.53334L6.19612 4.14379L6.45339 3.79812L6.73266 3.56634L6.93351 3.56085L6.9885 3.64039L7.01193 3.80226L6.99405 4.46888L7.07108 4.67324L7.48378 5.15061L7.77816 5.4222L8.46189 5.60872L8.49355 5.69788L8.30504 6.05587L8.71916 6.48385L8.79343 6.79658L8.98466 6.97218L9.25428 6.88574L9.34236 6.71977L9.23639 6.43035L9.15801 6.1272L9.17312 5.95164L9.24743 5.75L9.43589 5.46745L9.94762 4.82004L10.132 4.44556L10.165 3.86534L10.1664 3.39898L10.337 3.28512L10.7043 3.3688L10.8143 3.35921L10.8639 3.64587L11.0207 4.10265L11.205 4.33857L11.4017 4.39479L11.6329 4.39617L12.2052 4.11772L12.578 3.99703L12.7898 4.02994L12.915 4.21923L13.1819 4.71715L13.3346 4.77337L13.5189 4.71577L13.5836 4.63075L13.5244 4.4387L13.446 4.02307L13.3387 3.70075L13.1984 3.54984L13.1695 3.35373L13.2575 2.99981L13.358 2.70356L13.5533 2.62261L13.7776 2.58556L14.0734 2.89968L14.4242 2.99847L14.6855 2.98197L14.7309 2.79955L14.7144 2.59929L14.559 2.34143L14.5892 1.9505L14.7694 1.22076L14.8726 1.27702L15.2605 1.28388L15.6829 1.32503L15.9553 1.62266L16.2222 1.72417L16.6019 1.75573L16.8564 1.71458L16.9802 1.6021L17.1274 1.2537L17.3998 0.821626L17.8262 0.599392L18.5554 0.558243L18.9199 0.477328L19.2982 0.481431L19.583 0.548658L19.8774 0.540411L20.6258 0.238643L21.3976 0L21.5048 0.0397669L21.5214 0.119343L21.3824 0.303149L21.2476 0.547276L21.3384 0.825728L21.7772 1.38401L22.0166 1.81061L22.2422 2.13017L22.593 2.2989L23.0539 2.40179L23.4446 2.4388L23.8531 2.55952L25.255 2.85719L25.9607 2.93949L26.4958 2.95183L27.3006 3.1315ZM22.6109 17.3982L22.7251 17.1238L22.6824 16.9277L22.4403 16.9675L22.2697 17.2226L22.3839 17.438L22.6109 17.3982ZM22.4334 27.8887L22.4307 27.8475L22.4018 27.8516L22.3894 27.8763L22.4018 27.8928L22.4334 27.8887ZM14.5425 22.9041L14.6704 23.1071L14.6855 23.225L14.5989 23.3595L14.6346 23.6612L14.3114 23.4102L13.823 23.5364L13.523 23.509L13.4405 23.284L13.5093 23.1523L13.9743 23.1235L14.1187 23.0591L14.4021 23.0892L14.5425 22.9041ZM11.5944 33.0832L11.7883 33.4069L12.2217 34.7319L12.2629 35.0172L12.1763 35.3094L12.0662 35.5165L11.6356 36.1804L11.6989 36.7277L11.8585 37.0665L11.8819 37.441L11.8021 37.9046L11.5352 40.7426L11.4059 41.2432L11.3247 41.6753L11.0303 41.807L10.6506 41.6684L10.1719 41.4243L9.95039 41.4394L9.72755 41.523L9.54454 41.4517L9.36985 41.3132L9.23916 42.2815L9.02316 42.6739L8.69439 42.9249L8.38485 42.94L8.0657 42.8563H7.79604L7.59108 42.6711L7.42874 42.3447L7.17012 41.9483L6.90735 41.4778L6.87847 41.0512L6.83308 40.1088L6.90874 39.9031L7.01877 39.7056L7.07243 39.2831L7.03532 38.9141L7.11235 38.7824L7.26505 38.9141L7.37924 38.8647L7.37235 38.6741L7.40674 38.327L7.20589 38.0362L6.86608 37.9375L6.83308 37.633L6.86885 37.3353L7.0477 37.1351L7.1082 36.869L7.10958 36.0556L6.8702 35.7552L6.77804 35.2998L6.65424 35.009L6.43135 34.7155L6.17824 34.4768L6.02277 34.2463L5.98839 33.6428L6.07643 33.138L6.15624 32.9213L6.23739 32.9529L6.48777 33.2039L6.69274 33.2601L7.09858 33.3205L7.49755 33.2396L7.98728 33.0105L8.45912 32.7334L9.14285 31.9172L9.56382 31.7513L9.77982 31.5359L9.85408 31.2451L10.0329 31.1697L10.2434 31.4523L10.5048 31.4824L10.9079 31.7156L11.0812 31.9378L11.2298 32.2053L11.3729 32.3233L11.5255 32.3905L11.5476 32.4536L11.4265 32.5167L11.2875 32.8225L11.366 32.9103L11.5944 33.0832ZM6.39835 32.2821L6.27043 32.5139L6.08881 32.4975L6.16035 32.326L6.3282 31.9817L6.53181 31.8665L6.62258 31.9694L6.52627 32.1669L6.39835 32.2821ZM28.221 33.9775L28.049 34.0214L27.9486 33.9611L27.8936 33.8842L27.9609 33.6936L28.3118 33.8074L28.3076 33.9144L28.221 33.9775ZM7.14397 42.1636L6.92112 42.6519L6.68862 42.3062L6.67901 42.01L6.71062 41.9249L6.99677 42.0498L7.14397 42.1636ZM34.5465 46.3225L34.2851 46.8766L34.1571 47.0892L33.2258 48.4403L33.1185 48.7517L33.0525 49.0905L32.9561 49.3868L32.8268 49.6653L32.7043 50.0191L32.7278 50.4197L32.7718 50.6158L32.8846 50.7447L33.0689 50.8655L33.2106 51.052L32.9933 51.2207L33.2312 51.5595L33.4348 51.7598L33.4624 51.96L33.4583 52.1603L33.0359 52.5361L32.8708 52.7433L32.769 52.9942L32.725 53.2521L32.7704 53.4853L32.7566 53.7171L32.3315 53.6883L31.8968 53.5457L31.4579 53.6074L30.8334 53.3385L30.6065 53.2905L30.4001 53.1849L29.8814 52.3509L29.4633 51.9984L29.0147 51.7228L28.5567 51.7063L28.0986 51.7378L27.6941 51.5677L26.8701 50.9985L25.9965 50.5417L25.6264 50.2454L25.4572 50.0452L25.2591 49.9121L24.7598 49.7805L24.3099 49.4704L24.1063 49.4485L23.6674 49.4855L23.4418 49.4636L23.2148 49.3539L22.7774 48.9904L22.4967 48.4856L22.4238 48.262L22.6219 47.6846L22.8571 47.129L23.0649 46.974L23.307 46.8616L23.4528 46.697L23.5766 46.4953L24.0265 47.0769L24.2273 47.2182L24.4309 47.1866L24.7914 46.9781L24.8216 46.7491L25.2206 46.4597L25.7269 46.4542L25.9607 46.5077L26.0831 46.7696L26.2758 46.8506L26.4986 46.8849L27.2332 47.3828L27.4396 47.4637L27.6473 47.4774L28.2182 47.2689L28.6557 47.1894L29.5733 47.3046L30.0686 47.1798L30.4152 47.1647L30.9201 46.9727L31.3081 46.6531L31.5103 46.5735L31.7276 46.5502L32.2531 46.5708L32.7814 46.6435L33.0029 46.568L33.1886 46.3582L33.4032 46.2635L33.6385 46.3266L34.2479 45.9672L34.5175 45.9425L34.7734 46.0811L34.5465 46.3225ZM20.9353 53.392L20.7496 53.4455L20.5075 53.2809L20.4909 53.0505L20.535 52.9819L20.8294 53.0875L20.9216 53.3015L20.9353 53.392Z"/>
</mask>
<path d="M27.3006 3.1315L27.2222 3.4511L27.0585 3.53067L26.7724 3.7172L26.4449 3.97234L26.1396 4.25899L26.057 4.57039L26.1409 4.77337L26.2234 4.84336L26.3349 4.78161L26.4973 4.82004L26.7009 4.93114L27.0406 5.03947L27.0503 5.14646L26.9787 5.28364L26.7146 5.52643L26.4766 5.80078L26.4532 5.96809L26.4821 6.0902L26.5647 6.16425L26.9168 6.13134L26.9691 6.23147L26.7971 6.93514L26.8507 7.05448L27.1603 7.16696L27.3859 7.33565L27.8083 7.78008L27.9761 8.13945L27.8605 8.26017L27.595 8.31915L27.3791 8.28897L27.6239 8.07222L27.0255 7.28216L26.7545 7.28354L26.3954 7.61821L25.3967 7.27943L25.2054 7.41657L25.0638 7.68405L24.7171 8.016L24.226 8.16138L23.6784 8.52627L23.102 8.78413L22.6618 8.9789L22.4087 8.94462L22.8104 8.52351L22.6398 8.51531L22.106 8.81293L21.7992 9.06396L21.7002 9.48641L21.6108 10.1805L21.8446 10.3643L22.2546 11.2778L22.7595 11.6674L22.6618 12.0391L22.5284 12.3326L22.2229 12.5864L21.9698 12.3985L21.8144 12.4026L21.6974 12.9965L21.9162 14.5753L22.2684 15.6781L22.6178 16.1582L23.4061 16.903L24.2397 17.2953L25.7392 18.5449L26.5619 18.9399L26.7779 19.1539L27.2759 20.1127L27.7064 21.2169L28.1701 22.9424L28.5003 23.7888L29.1661 24.7435L30.5473 26.1042L31.8033 27.0959L32.9726 27.7076L33.8847 27.8146L36.0431 27.6802L36.4187 27.7378L36.8177 27.9024L36.9126 28.3263L36.7668 28.6115L36.3128 28.9078L35.8506 29.318L35.7996 29.8762L36.2316 30.2685L38.3144 31.3069L40.444 32.1724L41.1071 32.6127L41.8761 33.2972L43.7319 34.2354L44.0456 34.6908L45.1737 35.6688L45.684 36.4218L45.7817 37.0048L45.5382 37.596L45.4254 38.0116L45.2342 38.4217L44.7541 38.2667L44.2079 37.8442L43.3853 36.1242L41.8844 35.9499L41.5735 35.8224L41.0397 35.5261L41.008 35.33L40.876 35.0858L40.7398 35.0035L40.1661 34.9487L39.7685 35.2284L39.3008 35.891L38.7698 36.8415L38.2305 38.231L38.2002 38.7907L38.4933 39.3325L39.3682 39.6342L40.0437 40.1157L40.4894 40.6177L40.521 41.8262L40.7205 42.5106L40.4275 42.8988L39.8594 42.7987L39.1027 43.0456L38.5662 43.4872L38.3433 43.907L38.4011 44.9934L38.2911 45.4062L37.2744 46.1853L36.7406 46.9809L36.6072 47.3101L36.4036 47.6832L35.1201 47.6969L34.8161 47.2347L34.8051 46.5474L35.0251 46.1236L35.497 45.9247L35.8148 45.0414L35.7144 44.4022L35.9001 44.1182L36.0748 43.918L36.4338 43.8L36.9415 43.6875L36.9924 42.7918L36.5962 42.3844L36.4573 41.8125L36.2729 40.7535L35.6195 39.3969L35.2701 38.183L34.9963 37.5822L34.5808 37.2681L33.8311 37.2723L33.4583 37.1831L32.1321 36.3354L32.0399 36.2065L32.0481 35.9801L32.2683 35.6386L32.1197 35.1763L31.9628 34.7388L31.7029 34.3657L31.4181 34.1709L30.8211 34.2902L30.6119 34.3821L30.235 34.3506L29.9393 34.5166L29.7741 34.5221L30.2391 33.865L30.1139 33.71L29.6544 33.4398L29.0299 33.3987L28.8565 33.3657L28.7548 33.5345L28.6337 33.4425L28.6461 33.149L27.9211 31.8295L27.4341 31.2904L27.1879 31.1944L26.7434 31.3082L25.9993 31.0723L25.5549 31.0202L25.31 31.0778L24.9441 31.2492L24.7598 31.1354L24.6951 30.9585L24.0196 30.4084L23.1763 30.0971L21.5351 28.3372L21.0316 27.6774L19.9957 26.9491L19.3409 25.8847L18.8044 25.4938L18.0243 25.1796L17.8441 25.2194L17.6102 25.3374L17.4259 25.3538L17.2801 25.2153L17.4287 25.0727L17.5951 25.0082L17.5305 24.5994L16.6418 23.5378L16.1217 23.1949L15.9746 22.9836L15.8659 22.6942L15.7544 22.5035L15.5082 22.3938L15.2977 22.413L15.0074 22.3403L15.0171 21.8273L15.0749 21.4336L15.0308 21.0989L14.7474 20.2169L14.2577 19.468L13.9688 17.6698L13.7459 17.1609L13.2039 16.7754L11.9809 16.342L10.2764 15.1747L9.91601 15.1542L8.89112 14.6988L8.25555 14.6206L7.43012 15.0293L6.42724 16.1513L5.6142 17.3131L5.31843 17.5381L4.26877 17.9332L3.34158 18.1211L3.33193 17.8248L3.29893 17.6012L3.45573 17.3557L3.71439 17.0662L3.95239 16.7014L4.05143 16.438L4.00466 16.2624L3.89735 16.0018L3.7515 15.9827L2.86831 16.2021L2.66608 16.1459L2.01266 15.8043L1.30965 15.3846L1.05104 15.0856L0.953346 14.7838L1.02627 14.589L0.968502 14.3997L0.830924 14.1446L0.954732 13.8552L1.17346 13.4944L1.28354 13.2489L1.46785 13.1858L1.55593 13.0363L1.40869 12.4382L1.33165 12.3422L1.20512 12.2682L1.00977 12.2599L0.668577 12.1365L0.426462 11.9294L0.374193 11.6495L0.246271 11.3807L0.0274988 11.1338L0 10.8636L0.249 10.7209L0.588809 10.7154L0.828153 10.7689L1.36469 10.3341L1.56277 10.2957L1.74027 10.2024L1.88885 9.60714L2.003 9.42881L2.03054 9.32458L1.92458 9.19976L1.49127 8.78003L1.29316 8.34109L0.980887 7.84865L0.690618 7.63056L0.631464 7.46048L0.624579 7.24511L0.683732 7.05448L1.20923 6.7582L1.52016 6.4427L1.65358 6.56342L1.93696 6.69235L2.706 6.51679L3.18335 6.33981L3.51904 6.15328L3.72677 6.18618L4.48062 6.46463L4.72962 6.32336L5.27304 5.94616L5.3542 5.74728L5.78343 5.14374L5.79166 4.99698L5.61558 4.61702L5.67062 4.53334L6.19612 4.14379L6.45339 3.79812L6.73266 3.56634L6.93351 3.56085L6.9885 3.64039L7.01193 3.80226L6.99405 4.46888L7.07108 4.67324L7.48378 5.15061L7.77816 5.4222L8.46189 5.60872L8.49355 5.69788L8.30504 6.05587L8.71916 6.48385L8.79343 6.79658L8.98466 6.97218L9.25428 6.88574L9.34236 6.71977L9.23639 6.43035L9.15801 6.1272L9.17312 5.95164L9.24743 5.75L9.43589 5.46745L9.94762 4.82004L10.132 4.44556L10.165 3.86534L10.1664 3.39898L10.337 3.28512L10.7043 3.3688L10.8143 3.35921L10.8639 3.64587L11.0207 4.10265L11.205 4.33857L11.4017 4.39479L11.6329 4.39617L12.2052 4.11772L12.578 3.99703L12.7898 4.02994L12.915 4.21923L13.1819 4.71715L13.3346 4.77337L13.5189 4.71577L13.5836 4.63075L13.5244 4.4387L13.446 4.02307L13.3387 3.70075L13.1984 3.54984L13.1695 3.35373L13.2575 2.99981L13.358 2.70356L13.5533 2.62261L13.7776 2.58556L14.0734 2.89968L14.4242 2.99847L14.6855 2.98197L14.7309 2.79955L14.7144 2.59929L14.559 2.34143L14.5892 1.9505L14.7694 1.22076L14.8726 1.27702L15.2605 1.28388L15.6829 1.32503L15.9553 1.62266L16.2222 1.72417L16.6019 1.75573L16.8564 1.71458L16.9802 1.6021L17.1274 1.2537L17.3998 0.821626L17.8262 0.599392L18.5554 0.558243L18.9199 0.477328L19.2982 0.481431L19.583 0.548658L19.8774 0.540411L20.6258 0.238643L21.3976 0L21.5048 0.0397669L21.5214 0.119343L21.3824 0.303149L21.2476 0.547276L21.3384 0.825728L21.7772 1.38401L22.0166 1.81061L22.2422 2.13017L22.593 2.2989L23.0539 2.40179L23.4446 2.4388L23.8531 2.55952L25.255 2.85719L25.9607 2.93949L26.4958 2.95183L27.3006 3.1315ZM22.6109 17.3982L22.7251 17.1238L22.6824 16.9277L22.4403 16.9675L22.2697 17.2226L22.3839 17.438L22.6109 17.3982ZM22.4334 27.8887L22.4307 27.8475L22.4018 27.8516L22.3894 27.8763L22.4018 27.8928L22.4334 27.8887ZM14.5425 22.9041L14.6704 23.1071L14.6855 23.225L14.5989 23.3595L14.6346 23.6612L14.3114 23.4102L13.823 23.5364L13.523 23.509L13.4405 23.284L13.5093 23.1523L13.9743 23.1235L14.1187 23.0591L14.4021 23.0892L14.5425 22.9041ZM11.5944 33.0832L11.7883 33.4069L12.2217 34.7319L12.2629 35.0172L12.1763 35.3094L12.0662 35.5165L11.6356 36.1804L11.6989 36.7277L11.8585 37.0665L11.8819 37.441L11.8021 37.9046L11.5352 40.7426L11.4059 41.2432L11.3247 41.6753L11.0303 41.807L10.6506 41.6684L10.1719 41.4243L9.95039 41.4394L9.72755 41.523L9.54454 41.4517L9.36985 41.3132L9.23916 42.2815L9.02316 42.6739L8.69439 42.9249L8.38485 42.94L8.0657 42.8563H7.79604L7.59108 42.6711L7.42874 42.3447L7.17012 41.9483L6.90735 41.4778L6.87847 41.0512L6.83308 40.1088L6.90874 39.9031L7.01877 39.7056L7.07243 39.2831L7.03532 38.9141L7.11235 38.7824L7.26505 38.9141L7.37924 38.8647L7.37235 38.6741L7.40674 38.327L7.20589 38.0362L6.86608 37.9375L6.83308 37.633L6.86885 37.3353L7.0477 37.1351L7.1082 36.869L7.10958 36.0556L6.8702 35.7552L6.77804 35.2998L6.65424 35.009L6.43135 34.7155L6.17824 34.4768L6.02277 34.2463L5.98839 33.6428L6.07643 33.138L6.15624 32.9213L6.23739 32.9529L6.48777 33.2039L6.69274 33.2601L7.09858 33.3205L7.49755 33.2396L7.98728 33.0105L8.45912 32.7334L9.14285 31.9172L9.56382 31.7513L9.77982 31.5359L9.85408 31.2451L10.0329 31.1697L10.2434 31.4523L10.5048 31.4824L10.9079 31.7156L11.0812 31.9378L11.2298 32.2053L11.3729 32.3233L11.5255 32.3905L11.5476 32.4536L11.4265 32.5167L11.2875 32.8225L11.366 32.9103L11.5944 33.0832ZM6.39835 32.2821L6.27043 32.5139L6.08881 32.4975L6.16035 32.326L6.3282 31.9817L6.53181 31.8665L6.62258 31.9694L6.52627 32.1669L6.39835 32.2821ZM28.221 33.9775L28.049 34.0214L27.9486 33.9611L27.8936 33.8842L27.9609 33.6936L28.3118 33.8074L28.3076 33.9144L28.221 33.9775ZM7.14397 42.1636L6.92112 42.6519L6.68862 42.3062L6.67901 42.01L6.71062 41.9249L6.99677 42.0498L7.14397 42.1636ZM34.5465 46.3225L34.2851 46.8766L34.1571 47.0892L33.2258 48.4403L33.1185 48.7517L33.0525 49.0905L32.9561 49.3868L32.8268 49.6653L32.7043 50.0191L32.7278 50.4197L32.7718 50.6158L32.8846 50.7447L33.0689 50.8655L33.2106 51.052L32.9933 51.2207L33.2312 51.5595L33.4348 51.7598L33.4624 51.96L33.4583 52.1603L33.0359 52.5361L32.8708 52.7433L32.769 52.9942L32.725 53.2521L32.7704 53.4853L32.7566 53.7171L32.3315 53.6883L31.8968 53.5457L31.4579 53.6074L30.8334 53.3385L30.6065 53.2905L30.4001 53.1849L29.8814 52.3509L29.4633 51.9984L29.0147 51.7228L28.5567 51.7063L28.0986 51.7378L27.6941 51.5677L26.8701 50.9985L25.9965 50.5417L25.6264 50.2454L25.4572 50.0452L25.2591 49.9121L24.7598 49.7805L24.3099 49.4704L24.1063 49.4485L23.6674 49.4855L23.4418 49.4636L23.2148 49.3539L22.7774 48.9904L22.4967 48.4856L22.4238 48.262L22.6219 47.6846L22.8571 47.129L23.0649 46.974L23.307 46.8616L23.4528 46.697L23.5766 46.4953L24.0265 47.0769L24.2273 47.2182L24.4309 47.1866L24.7914 46.9781L24.8216 46.7491L25.2206 46.4597L25.7269 46.4542L25.9607 46.5077L26.0831 46.7696L26.2758 46.8506L26.4986 46.8849L27.2332 47.3828L27.4396 47.4637L27.6473 47.4774L28.2182 47.2689L28.6557 47.1894L29.5733 47.3046L30.0686 47.1798L30.4152 47.1647L30.9201 46.9727L31.3081 46.6531L31.5103 46.5735L31.7276 46.5502L32.2531 46.5708L32.7814 46.6435L33.0029 46.568L33.1886 46.3582L33.4032 46.2635L33.6385 46.3266L34.2479 45.9672L34.5175 45.9425L34.7734 46.0811L34.5465 46.3225ZM20.9353 53.392L20.7496 53.4455L20.5075 53.2809L20.4909 53.0505L20.535 52.9819L20.8294 53.0875L20.9216 53.3015L20.9353 53.392Z" fill="var(--fill-0, #71B219)" stroke="var(--stroke-0, white)" mask="url(#path-1-inside-1_0_261)"/>
</g>
</svg>
