<svg preserveAspectRatio="none" width="100%" height="100%" overflow="visible" style="display: block;" viewBox="0 0 46 54" fill="none" xmlns="http://www.w3.org/2000/svg"><g id="IT"><mask id="path-1-inside-1_0_261" fill="white"><path d="M27 3L27 4L27 4L27 4L26 4L26 4L26 5L26 5L26 5L26 5L26 5L27 5L27 5L27 5L27 5L27 6L26 6L26 6L26 6L27 6L27 6L27 6L27 7L27 7L27 7L27 7L28 8L28 8L28 8L28 8L27 8L28 8L27 7L27 7L26 8L25 7L25 7L25 8L25 8L24 8L24 8L23 9L23 9L22 9L23 8L23 8L22 9L22 9L22 10L22 10L22 10L22 11L23 12L23 12L22 12L22 13L22 12L22 12L22 13L22 15L22 16L23 16L23 17L24 17L26 18L27 19L27 19L27 20L28 21L28 23L28 24L29 25L30 26L32 27L33 28L34 28L36 28L36 28L37 28L37 28L37 29L36 29L36 29L36 30L36 30L38 31L40 32L41 33L42 33L44 34L44 35L45 36L46 36L46 37L46 38L45 38L45 38L45 38L44 38L43 36L42 36L42 36L41 36L41 35L41 35L41 35L40 35L40 35L39 36L39 37L38 38L38 39L38 39L39 40L40 40L40 41L40 42L41 42L40 43L40 43L39 43L39 44L38 44L38 45L38 45L37 46L37 47L37 47L36 48L35 48L35 47L35 46L35 46L36 46L36 45L36 44L36 44L36 44L36 44L37 44L37 43L37 42L36 42L36 41L36 39L35 38L35 38L35 37L34 37L34 37L32 36L32 36L32 36L32 36L32 35L32 35L32 34L31 34L31 34L31 34L30 34L30 34L30 34L30 34L30 34L30 33L29 33L29 33L29 34L29 33L29 33L28 32L27 31L27 31L27 31L26 31L26 31L25 31L25 31L25 31L25 31L24 30L23 30L22 28L21 28L20 27L19 26L19 26L18 25L18 25L18 25L17 25L17 25L17 25L18 25L18 25L17 24L16 23L16 23L16 23L16 22L16 22L15 22L15 22L15 22L15 21L15 21L15 20L14 20L14 18L14 17L13 17L12 16L10 15L10 15L9 15L8 15L7 15L6 16L6 17L5 18L4 18L3 18L3 18L3 18L4 17L4 17L4 17L4 16L4 16L4 16L4 16L3 16L3 16L2 16L1 15L1 15L1 15L1 15L1 14L1 14L1 14L1 14L1 13L2 13L2 13L1 12L1 12L1 12L1 12L1 12L0 12L0 12L0 11L0 11L0 11L0 11L1 11L1 11L1 10L2 10L2 10L2 10L2 9L2 9L2 9L2 9L1 8L1 8L1 8L1 8L1 7L1 7L1 7L2 6L2 7L2 7L3 6L3 6L4 6L4 6L4 6L5 6L5 6L5 6L6 5L6 5L6 5L6 4L6 4L6 4L7 4L7 4L7 4L7 4L7 4L7 5L8 5L8 5L8 6L8 6L8 6L9 6L9 7L9 7L9 7L9 7L9 6L9 6L9 6L9 6L9 6L10 5L10 4L10 4L10 3L10 3L11 3L11 3L11 4L11 4L11 4L11 4L12 4L12 4L13 4L13 4L13 4L13 5L13 5L14 5L14 5L14 4L13 4L13 4L13 4L13 3L13 3L13 3L14 3L14 3L14 3L14 3L15 3L15 3L15 3L15 2L15 2L15 1L15 1L15 1L16 1L16 2L16 2L17 2L17 2L17 2L17 1L17 1L18 1L19 1L19 0L19 0L20 0L20 0L21 0L21 0L22 0L22 0L21 0L21 0L21 1L22 1L22 2L22 2L23 2L23 2L23 2L24 3L25 3L26 3L26 3L27 3ZM23 17L23 17L23 17L22 17L22 17L22 17L23 17ZM22 28L22 28L22 28L22 28L22 28L22 28ZM14 23L15 23L15 23L15 23L15 24L14 23L14 24L14 24L13 23L14 23L14 23L14 23L14 23L14 23ZM12 33L12 33L12 35L12 35L12 35L12 36L12 36L12 37L12 37L12 37L12 38L12 41L11 41L11 42L11 42L11 42L10 41L10 41L10 42L10 42L9 41L9 42L9 43L9 43L8 43L8 43H8L8 43L7 42L7 42L7 42L7 41L7 40L7 40L7 40L7 39L7 39L7 39L7 39L7 39L7 39L7 38L7 38L7 38L7 38L7 37L7 37L7 37L7 36L7 36L7 35L7 35L6 35L6 34L6 34L6 34L6 33L6 33L6 33L6 33L7 33L7 33L8 33L8 33L8 33L9 32L10 32L10 32L10 31L10 31L10 32L10 32L11 32L11 32L11 32L11 32L12 32L12 32L11 32L11 33L11 33L12 33ZM6 32L6 32L6 32L6 32L6 32L6 32L7 32L6 32L6 32ZM28 34L28 34L28 34L28 34L28 34L28 34L28 34L28 34ZM7 42L7 43L7 42L7 42L7 42L7 42L7 42ZM34 46L34 47L34 47L33 48L33 49L33 49L33 49L33 50L33 50L33 50L33 51L33 51L33 51L33 51L33 51L33 52L33 52L34 52L34 52L33 52L33 53L33 53L33 53L33 54L33 54L32 54L32 54L32 54L31 53L31 53L30 53L30 52L30 52L29 52L29 52L28 52L28 52L27 51L26 50L26 50L26 50L25 50L25 50L24 50L24 49L24 50L23 50L23 49L23 49L22 48L22 48L23 48L23 47L23 47L23 47L24 47L24 46L24 47L24 47L24 47L25 47L25 47L25 46L26 46L26 46L26 47L26 47L26 47L27 47L27 48L28 48L28 47L29 47L30 47L30 47L30 47L31 47L31 47L32 47L32 47L32 47L33 47L33 47L33 46L33 46L34 46L34 46L34 46L35 46L34 46ZM21 53L21 53L20 53L20 53L20 53L21 53L21 53L21 53Z"/></mask><path d="M27 3L27 4L27 4L27 4L26 4L26 4L26 5L26 5L26 5L26 5L26 5L27 5L27 5L27 5L27 5L27 6L26 6L26 6L26 6L27 6L27 6L27 6L27 7L27 7L27 7L27 7L28 8L28 8L28 8L28 8L27 8L28 8L27 7L27 7L26 8L25 7L25 7L25 8L25 8L24 8L24 8L23 9L23 9L22 9L23 8L23 8L22 9L22 9L22 10L22 10L22 10L22 11L23 12L23 12L22 12L22 13L22 12L22 12L22 13L22 15L22 16L23 16L23 17L24 17L26 18L27 19L27 19L27 20L28 21L28 23L28 24L29 25L30 26L32 27L33 28L34 28L36 28L36 28L37 28L37 28L37 29L36 29L36 29L36 30L36 30L38 31L40 32L41 33L42 33L44 34L44 35L45 36L46 36L46 37L46 38L45 38L45 38L45 38L44 38L43 36L42 36L42 36L41 36L41 35L41 35L41 35L40 35L40 35L39 36L39 37L38 38L38 39L38 39L39 40L40 40L40 41L40 42L41 42L40 43L40 43L39 43L39 44L38 44L38 45L38 45L37 46L37 47L37 47L36 48L35 48L35 47L35 46L35 46L36 46L36 45L36 44L36 44L36 44L36 44L37 44L37 43L37 42L36 42L36 41L36 39L35 38L35 38L35 37L34 37L34 37L32 36L32 36L32 36L32 36L32 35L32 35L32 34L31 34L31 34L31 34L30 34L30 34L30 34L30 34L30 34L30 33L29 33L29 33L29 34L29 33L29 33L28 32L27 31L27 31L27 31L26 31L26 31L25 31L25 31L25 31L25 31L24 30L23 30L22 28L21 28L20 27L19 26L19 26L18 25L18 25L18 25L17 25L17 25L17 25L18 25L18 25L17 24L16 23L16 23L16 23L16 22L16 22L15 22L15 22L15 22L15 21L15 21L15 20L14 20L14 18L14 17L13 17L12 16L10 15L10 15L9 15L8 15L7 15L6 16L6 17L5 18L4 18L3 18L3 18L3 18L4 17L4 17L4 17L4 16L4 16L4 16L4 16L3 16L3 16L2 16L1 15L1 15L1 15L1 15L1 14L1 14L1 14L1 14L1 13L2 13L2 13L1 12L1 12L1 12L1 12L1 12L0 12L0 12L0 11L0 11L0 11L0 11L1 11L1 11L1 10L2 10L2 10L2 10L2 9L2 9L2 9L2 9L1 8L1 8L1 8L1 8L1 7L1 7L1 7L2 6L2 7L2 7L3 6L3 6L4 6L4 6L4 6L5 6L5 6L5 6L6 5L6 5L6 5L6 4L6 4L6 4L7 4L7 4L7 4L7 4L7 4L7 5L8 5L8 5L8 6L8 6L8 6L9 6L9 7L9 7L9 7L9 7L9 6L9 6L9 6L9 6L9 6L10 5L10 4L10 4L10 3L10 3L11 3L11 3L11 4L11 4L11 4L11 4L12 4L12 4L13 4L13 4L13 4L13 5L13 5L14 5L14 5L14 4L13 4L13 4L13 4L13 3L13 3L13 3L14 3L14 3L14 3L14 3L15 3L15 3L15 3L15 2L15 2L15 1L15 1L15 1L16 1L16 2L16 2L17 2L17 2L17 2L17 1L17 1L18 1L19 1L19 0L19 0L20 0L20 0L21 0L21 0L22 0L22 0L21 0L21 0L21 1L22 1L22 2L22 2L23 2L23 2L23 2L24 3L25 3L26 3L26 3L27 3ZM23 17L23 17L23 17L22 17L22 17L22 17L23 17ZM22 28L22 28L22 28L22 28L22 28L22 28ZM14 23L15 23L15 23L15 23L15 24L14 23L14 24L14 24L13 23L14 23L14 23L14 23L14 23L14 23ZM12 33L12 33L12 35L12 35L12 35L12 36L12 36L12 37L12 37L12 37L12 38L12 41L11 41L11 42L11 42L11 42L10 41L10 41L10 42L10 42L9 41L9 42L9 43L9 43L8 43L8 43H8L8 43L7 42L7 42L7 42L7 41L7 40L7 40L7 40L7 39L7 39L7 39L7 39L7 39L7 39L7 38L7 38L7 38L7 38L7 37L7 37L7 37L7 36L7 36L7 35L7 35L6 35L6 34L6 34L6 34L6 33L6 33L6 33L6 33L7 33L7 33L8 33L8 33L8 33L9 32L10 32L10 32L10 31L10 31L10 32L10 32L11 32L11 32L11 32L11 32L12 32L12 32L11 32L11 33L11 33L12 33ZM6 32L6 32L6 32L6 32L6 32L6 32L7 32L6 32L6 32ZM28 34L28 34L28 34L28 34L28 34L28 34L28 34L28 34ZM7 42L7 43L7 42L7 42L7 42L7 42L7 42ZM34 46L34 47L34 47L33 48L33 49L33 49L33 49L33 50L33 50L33 50L33 51L33 51L33 51L33 51L33 51L33 52L33 52L34 52L34 52L33 52L33 53L33 53L33 53L33 54L33 54L32 54L32 54L32 54L31 53L31 53L30 53L30 52L30 52L29 52L29 52L28 52L28 52L27 51L26 50L26 50L26 50L25 50L25 50L24 50L24 49L24 50L23 50L23 49L23 49L22 48L22 48L23 48L23 47L23 47L23 47L24 47L24 46L24 47L24 47L24 47L25 47L25 47L25 46L26 46L26 46L26 47L26 47L26 47L27 47L27 48L28 48L28 47L29 47L30 47L30 47L30 47L31 47L31 47L32 47L32 47L32 47L33 47L33 47L33 46L33 46L34 46L34 46L34 46L35 46L34 46ZM21 53L21 53L20 53L20 53L20 53L21 53L21 53L21 53Z" fill="var(--fill-0,#71B219)" stroke="var(--stroke-0,white)" mask="url(#path-1-inside-1_0_261)"/></g></svg>