<svg preserveAspectRatio="none" width="100%" height="100%" overflow="visible" style="display: block;" viewBox="0 0 0.871393 0.56783" fill="none" xmlns="http://www.w3.org/2000/svg">
<g id="JE">
<mask id="path-1-inside-1_0_185" fill="white">
<path d="M0.836999 0.207123L0.871393 0.503365L0.702316 0.56783L0.558027 0.46498H0.270751L0 0.529444L0.0590995 0L0.592379 0.0644642L0.836999 0.207123Z"/>
</mask>
<path d="M0.836999 0.207123L0.871393 0.503365L0.702316 0.56783L0.558027 0.46498H0.270751L0 0.529444L0.0590995 0L0.592379 0.0644642L0.836999 0.207123Z" fill="var(--fill-0, #71B219)"/>
<path d="M0.836999 0.207123L1.33366 0.149459L1.30483 -0.0988578L1.08889 -0.224794L0.836999 0.207123ZM0.871393 0.503365L1.04952 0.97056L1.41291 0.832011L1.36806 0.445702L0.871393 0.503365ZM0.702316 0.56783L0.412095 0.974981L0.630188 1.13044L0.880443 1.03502L0.702316 0.56783ZM0.558027 0.46498L0.848247 0.0578285L0.71799 -0.0350202H0.558027V0.46498ZM0.270751 0.46498V-0.0350202H0.212047L0.154941 -0.0214234L0.270751 0.46498ZM0 0.529444L-0.496914 0.473976L-0.575781 1.18051L0.11581 1.01585L0 0.529444ZM0.0590995 0L0.119104 -0.496386L-0.381837 -0.556941L-0.437814 -0.0554683L0.0590995 0ZM0.59238 0.0644642L0.844268 -0.367453L0.754989 -0.419519L0.652384 -0.431922L0.59238 0.0644642ZM0.836999 0.207123L0.340335 0.264786L0.374729 0.561029L0.871393 0.503365L1.36806 0.445702L1.33366 0.149459L0.836999 0.207123ZM0.871393 0.503365L0.693266 0.0361709L0.524188 0.100635L0.702316 0.56783L0.880443 1.03502L1.04952 0.97056L0.871393 0.503365ZM0.702316 0.56783L0.992536 0.160678L0.848247 0.0578285L0.558027 0.46498L0.267807 0.872131L0.412095 0.974981L0.702316 0.56783ZM0.558027 0.46498V-0.0350202H0.270751V0.46498V0.96498H0.558027V0.46498ZM0.270751 0.46498L0.154941 -0.0214234L-0.11581 0.0430409L0 0.529444L0.11581 1.01585L0.38656 0.951383L0.270751 0.46498ZM0 0.529444L0.496914 0.584912L0.556013 0.0554683L0.0590995 0L-0.437814 -0.0554683L-0.496914 0.473976L0 0.529444ZM0.0590995 0L-0.000904929 0.496386L0.532375 0.560851L0.59238 0.0644642L0.652384 -0.431922L0.119104 -0.496386L0.0590995 0ZM0.59238 0.0644642L0.340491 0.496381L0.585111 0.63904L0.836999 0.207123L1.08889 -0.224794L0.844268 -0.367453L0.59238 0.0644642Z" fill="var(--stroke-0, white)" mask="url(#path-1-inside-1_0_185)"/>
</g>
</svg>
