<svg preserveAspectRatio="none" width="100%" height="100%" overflow="visible" style="display: block;" viewBox="0 0 1 1" fill="none" xmlns="http://www.w3.org/2000/svg"><g id="JE"><mask id="path-1-inside-1_0_185" fill="white"><path d="M1 0L1 0L1 1L1 0H0L0 0L0 0L1 0L1 0Z"/></mask><path d="M1 0L1 0L1 1L1 0H0L0 0L0 0L1 0L1 0Z" fill="var(--fill-0,#71B219)"/><path d="M1 0L1 0L1 0L1 0L1 0ZM1 0L1 1L1 1L1 0L1 0ZM1 1L0 1L1 1L1 1L1 1ZM1 0L1 0L1 0H1V0ZM0 0V0H0L0 0L0 0ZM0 0L0 0L-1 1L0 1L0 0ZM0 0L0 0L0 -1L0 0L0 0ZM1 0L1 0L1 0L1 0L1 0ZM1 0L0 0L0 1L1 0L1 0L1 0L1 0ZM1 0L1 0L0 0L1 1L1 1L1 1L1 0ZM1 1L1 0L1 0L1 0L0 1L0 1L1 1ZM1 0V0H0V0V1H1V0ZM0 0L0 0L0 0L0 0L0 1L0 1L0 0ZM0 0L0 1L1 0L0 0L0 0L0 0L0 0ZM0 0L0 0L0 1L1 0L1 0L0 0L0 0ZM1 0L0 0L1 1L1 0L1 0L1 0L1 0Z" fill="var(--stroke-0,white)" mask="url(#path-1-inside-1_0_185)"/></g></svg>