<svg preserveAspectRatio="none" width="100%" height="100%" overflow="visible" style="display: block;" viewBox="0 0 8.21839 3.25084" fill="none" xmlns="http://www.w3.org/2000/svg">
<path id="JM" d="M3.39453 0.47168L3.41113 0.473633H3.78711L4.11133 0.507812L4.55859 0.645508L4.57617 0.650391L4.59375 0.65332L5.08105 0.728516L5.09766 0.731445H5.11426L5.29688 0.734375L5.41309 0.762695L5.81543 1.07617L5.83301 1.08984L5.85254 1.10059L6.20996 1.28906L6.23047 1.2998L6.25195 1.30664L7.5166 1.70215L7.8916 2.30957L7.80762 2.3418L7.41699 2.38477L7.0459 2.39062L6.72656 2.27637L6.58105 2.18457L6.57129 2.17871L6.64062 2.1123L6.20508 2.00293L6.02441 1.95801L5.98926 1.94922L5.95312 1.9502L5.72754 1.95996L5.5918 1.96582L5.52246 2.08203L5.36816 2.34375L5.27539 2.45508L5.16602 2.44824L5.09863 2.35547L4.97852 2.18945L4.79199 2.27441L4.60645 2.35938L4.57031 2.37598L4.54102 2.40332L4.38965 2.54297L4.34277 2.58594L4.32227 2.64648L4.26562 2.81152L4.25684 2.80371L4.24512 2.79297L4.23145 2.78418L3.91699 2.56738L3.87695 2.54004L3.83105 2.53027L3.43555 2.43945L3.41113 2.43359L3.38477 2.43262L2.6084 2.41797L2.35059 2.37012L2.0957 2.01074L2.08398 1.99414L2.07031 1.97949L1.94629 1.85352L1.90625 1.81348L1.85352 1.79395L1.62012 1.70801L1.35156 1.27344L1.32129 1.22363L1.27051 1.19238L1.1582 1.12207L1.11133 1.09375L1.05762 1.08691L0.323242 0.993164L0.264648 0.899414L0.282227 0.8125L0.49707 0.579102L0.542969 0.550781L0.9375 0.5625L0.966797 0.563477L0.996094 0.557617L1.44531 0.463867L1.49316 0.454102L1.5332 0.427734L1.71191 0.307617L1.83301 0.256836L3.39453 0.47168Z" fill="var(--fill-0, #71B219)" stroke="var(--stroke-0, white)" stroke-width="0.5"/>
</svg>
