<svg preserveAspectRatio="none" width="100%" height="100%" overflow="visible" style="display: block;" viewBox="0 0 8 3" fill="none" xmlns="http://www.w3.org/2000/svg"><path id="JM" d="M3 0L3 0H4L4 0L5 1L5 1L5 1L5 1L5 1H5L5 1L5 1L6 1L6 1L6 1L6 1L6 1L6 1L8 2L8 2L8 2L7 2L7 2L7 2L7 2L7 2L7 2L6 2L6 2L6 2L6 2L6 2L6 2L6 2L5 2L5 2L5 2L5 2L5 2L5 2L5 2L5 2L4 2L4 2L4 3L4 3L4 3L4 3L4 3L4 3L4 3L4 2L4 2L3 2L3 2L3 2L3 2L2 2L2 2L2 2L2 2L2 2L2 2L2 2L2 2L1 1L1 1L1 1L1 1L1 1L1 1L0 1L0 1L0 1L0 1L0 1L1 1L1 1L1 1L1 0L2 0L2 0L2 0L2 0L3 0Z" fill="var(--fill-0,#71B219)" stroke="var(--stroke-0,white)" stroke-width="0"/></svg>