<svg preserveAspectRatio="none" width="100%" height="100%" overflow="visible" style="display: block;" viewBox="0 0 16.7628 18.7507" fill="none" xmlns="http://www.w3.org/2000/svg">
<path id="JO" d="M14.7939 1.0791L15.0635 2.06836L15.3428 3.08887V3.08984L15.5508 3.84766L15.4854 3.86914L15.251 3.94434L15.3232 4.17969L15.5537 4.93555L15.627 5.17383L15.8652 5.10156L16.2266 4.99219L16.4258 4.94824L16.4717 5.0752L16.0254 5.5L15.4834 5.99902L15.4023 6.03418L14.6729 6.24805L13.1514 6.69531L12.1318 6.99414L10.8281 7.37598L9.74512 7.69336L8.67383 8.00684L7.68066 8.29688L7.29297 8.41113L7.56738 8.70703L8.13379 9.31934L8.99902 10.2529H9L9.57715 10.874L10.251 11.665L10.8594 12.377L11.3066 12.8984L11.1191 13.0049L10.374 13.4248L10.3428 13.4424L10.3184 13.4668L10.2432 13.5439L10.2354 13.5518L10.2285 13.5605L10.1631 13.6387L10.1396 13.667L10.125 13.7021L9.81738 14.4502L9.59961 14.9766L8.63184 15.1777L7.5791 15.3945H7.57812L6.91504 15.5332L6.86035 15.5449L6.81543 15.5791L6.61621 15.7295L6.57715 15.7598L6.55176 15.8018L6.12012 16.5322L5.69434 17.2471L4.9834 17.833L4.20215 18.4736L4.10352 18.4951L3.55371 18.4004L2.53027 18.2217L1.54102 18.0488L0.863281 17.9326H0.864258L0.296875 17.832L0.364258 17.5107L0.37207 17.4727L0.368164 17.4336L0.338867 17.1592L0.525391 16.1826L0.639648 15.6982L0.641602 15.6895L0.643555 15.6797L0.694336 15.3496L0.96875 14.6484L0.993164 14.5869L0.983398 14.5215L0.952148 14.3105L1.00977 13.5L1.0127 13.4688L1.00684 13.4385L0.987305 13.333L1.09961 12.9355L1.33398 12.291L1.33496 12.292L1.57129 11.7168L1.57422 11.709L1.57715 11.7002L1.65723 11.4561L1.89551 10.9199L1.90137 10.9082L1.90527 10.8955L2.12402 10.2256L2.14844 10.1494L2.125 10.0723L2.00879 9.70508L2.00391 9.6875L1.99805 9.67578L2.06934 9.33691L2.09668 9.20605L2.08691 9.19629L2.17578 8.63086L2.23047 8.27539L2.35156 7.81445L2.56738 7.4248L2.60547 7.35547L2.59668 7.27734L2.49121 6.30859L2.50195 5.81543L2.64062 5.22852L2.65137 5.18652L2.64648 5.14355L2.56836 4.4502L2.63281 3.47559L2.63867 3.43555L2.67871 3.37598L2.69141 3.36328L3.09375 3.18359L3.21582 3.16699L3.52539 3.23828L3.69043 3.38672L4.07129 3.96582L4.12207 4.04297L4.21191 4.06836L4.78906 4.23145L4.98926 4.36914L5.31445 4.67676L5.35938 4.71875L5.41895 4.73535L5.83301 4.85254L5.84766 4.85645L5.86328 4.8584L7.17285 5.05762L7.26562 5.07129L7.3457 5.02051L8.38965 4.34863L9.27246 3.7793H9.27344L10.2754 3.13184H10.2764L10.958 2.68945L12.1172 1.93848L12.1182 1.93945L12.8857 1.46387L12.8867 1.46289L14.6055 0.388672L14.7939 1.0791Z" fill="var(--fill-0, #71B219)" stroke="var(--stroke-0, white)" stroke-width="0.5"/>
</svg>
