<svg preserveAspectRatio="none" width="100%" height="100%" overflow="visible" style="display: block;" viewBox="0 0 17 19" fill="none" xmlns="http://www.w3.org/2000/svg"><path id="JO" d="M15 1L15 2L15 3V3L16 4L16 4L15 4L15 4L16 5L16 5L16 5L16 5L16 5L16 5L16 6L16 6L15 6L15 6L13 7L12 7L11 7L10 8L9 8L8 8L7 8L8 9L8 9L9 10H9L10 11L10 12L11 12L11 13L11 13L10 13L10 13L10 14L10 14L10 14L10 14L10 14L10 14L10 14L10 14L10 15L9 15L8 15H8L7 16L7 16L7 16L7 16L7 16L7 16L6 16L6 17L5 18L4 18L4 18L4 18L2 18L2 18L1 18H1L0 18L0 18L0 18L0 17L0 17L0 16L1 16L1 16L1 16L1 15L1 15L1 15L1 14L1 14L1 14L1 14L1 13L1 13L1 13L1 12L1 12L2 12L2 12L2 12L2 12L2 11L2 11L2 11L2 10L2 10L2 10L2 10L2 10L2 10L2 9L2 9L2 9L2 9L2 8L2 8L3 7L3 7L3 7L2 6L2 6L3 5L3 5L3 5L3 4L3 4L3 3L3 3L3 3L3 3L3 3L4 3L4 3L4 4L4 4L4 4L5 4L5 4L5 5L5 5L5 5L6 5L6 5L6 5L7 5L7 5L7 5L8 4L9 4H9L10 3H10L11 3L12 2L12 2L13 2L13 2L15 0L15 1Z" fill="var(--fill-0,#71B219)" stroke="var(--stroke-0,white)" stroke-width="0"/></svg>