<svg preserveAspectRatio="none" width="100%" height="100%" overflow="visible" style="display: block;" viewBox="0 0 85.5296 100.398" fill="none" xmlns="http://www.w3.org/2000/svg">
<g id="JP">
<mask id="path-1-inside-1_0_119" fill="white">
<path d="M77.7748 7.53047L78.259 7.55789L78.4751 7.53319L78.8451 7.61411L80.313 8.42476L80.7559 8.52766L81.214 8.54001L81.5359 8.47416L81.8193 8.25193L82.7053 7.26847L83.638 6.37003L83.7412 6.40431V6.65258L83.6724 6.92827L83.2597 7.7499L82.8016 8.85274L82.7039 9.40964L82.8524 9.95144L83.14 10.3986L83.367 11.009L83.6284 11.8553L83.9971 11.9623L84.1979 11.9747L84.5666 11.7209L84.9146 11.3985L85.2146 11.3588L85.5296 11.4136L85.1155 11.6386L84.7248 11.9129L84.3891 12.4314L84.2639 12.5288L83.8774 12.4972L83.6559 12.5164L83.2033 12.7332L82.8057 12.9787L82.426 13.2791L82.012 13.4396L81.5704 13.478L80.8893 13.7235L80.4478 13.7413L79.6183 13.5274L79.2151 13.585L78.3361 14.0678L77.5354 14.7646L76.8352 15.5451L76.2506 16.4806L76.0153 16.9662L75.8736 17.5093L75.8543 17.8687L75.802 18.213L75.6673 18.453L75.5049 18.6478L75.0221 18.5339L74.2297 18.0374L72.693 17.3146L71.0696 16.2048L70.1563 15.6466L68.4393 15.8139L66.8147 16.8783L66.6702 16.7878L66.0497 16.0581L65.7485 15.7687L65.3894 15.6864L65.1225 15.696L64.8639 15.7495L64.4966 16.1253L64.3618 16.3955L64.2572 16.7028L64.2256 16.9195L64.2696 17.1321L64.6177 17.6122L65.0469 17.9688L65.2408 18.036L65.6522 18.0114L65.8434 18.0484L66.5326 18.763L67.2879 19.4324L67.4543 19.6532L67.1751 19.885L66.8697 20.0002L66.5134 19.9714L66.1612 19.8837L65.5586 19.5997L65.3 19.8411L64.8983 20.3363L64.6768 20.874L64.4966 21.1195L64.0536 21.4432L63.5845 21.6106L63.3382 21.5557L63.1512 21.3527L63.0453 21.1099L62.9916 20.8274L63.0906 20.2156L63.3341 19.6628L63.4277 19.0977L63.2282 18.3008L63.1016 18.1334L62.6036 17.6657L62.3726 17.2089L62.3175 16.6397L62.3464 16.3256L62.4674 15.6302L62.5885 15.279L62.8169 15.1637L63.0673 15.0938L63.4511 14.8414L63.8734 14.515L64.2779 14.1419L64.6782 13.6851L64.8859 13.1831L64.5434 12.5658L64.4719 12.1982L64.5227 11.8512L64.8887 11.666L65.2642 11.8059L66.0223 12.3162L66.1695 12.3669L66.6895 12.3903L67.4021 12.5014L67.8148 12.4739L68.0143 12.3971L68.3141 11.976L68.4613 11.4383L68.4077 10.7456L68.405 10.057L68.5948 9.49466L69.1891 8.58802L69.3597 8.05305L69.4216 6.74723L69.6362 6.17111L69.8081 5.57172L69.8907 4.31253L69.6472 3.09721L69.4023 2.49916L69.1217 1.92995L69.1629 1.3854L69.39 0.879225L69.3954 0.726981L69.4491 0.591187L69.8742 0.495161L70.0736 0.386827L70.2649 0.142659L70.4919 0L70.6584 0.142659L70.7959 0.392311L71.3958 1.00543L72.3408 2.09726L73.4538 3.75563L74.1513 4.5608L74.8859 5.28917L75.7099 6.0326L76.5724 6.67042L77.1227 6.97218L77.5258 7.45228L77.7748 7.53047ZM67.1503 0.964285L67.0017 1.30996L66.8009 0.795589L66.761 0.240067L66.8766 0.242787L67.0884 0.326465L67.1393 0.596671L67.1503 0.964285ZM68.0101 2.12745L67.7432 2.16587L67.431 1.93816L67.3924 1.65288L67.6181 1.42516L67.8423 1.50884L68.0665 1.80236L68.1408 1.95599L68.0101 2.12745ZM61.0065 18.2281L60.9184 18.2555L60.8277 18.2116L60.7382 17.8207L60.8152 17.6149L61.0643 17.4709L61.3064 17.4311L61.1014 18.1499L61.0065 18.2281ZM67.7556 21.8671L67.907 21.9631L68.6278 21.7039L68.4902 22.4871L68.4132 23.2758L68.4655 24.5816L68.5302 25.1687L68.6554 25.7366L68.9635 26.1426L69.3652 26.4306L69.9471 27.3483L70.2594 28.473L70.4795 29.0176L70.6446 29.5882L70.6955 29.8488L70.6996 30.1094L70.6501 30.4661L70.7051 30.7541L70.6418 31.6567L70.3818 32.6978L70.3488 33.2286L70.1218 33.3342L69.9843 33.5798L69.8673 33.6936L69.7366 33.7814L69.5482 33.8033L69.412 33.9035L69.3583 34.1846L69.2717 34.4439L69.1066 34.6839L68.9772 34.9473L68.8713 35.5892L68.8328 36.2463L68.6746 36.7044L68.2908 36.8237L67.8519 36.8169L67.2892 37.0281L67.1682 37.1529L66.7238 37.9512L66.5959 38.419L66.5918 38.921L66.7156 39.5383L66.8834 40.1404L67.01 41.2583L66.8766 42.9565L66.7472 43.4983L66.4652 43.8645L66.2506 44.0346L66.0663 44.2431L65.8269 44.7931L65.4307 45.8877L65.3991 46.162L65.4004 46.4459L65.2931 46.8163L65.2244 47.1798L65.289 47.6023L65.4114 47.9973L65.9424 49.0082L66.1502 49.3072L66.3841 49.5789L65.4775 49.8792L65.3151 50.0178L64.7759 50.5911L64.6039 51.1343L64.6177 51.7351L64.5283 51.9504L64.381 52.137L64.2269 52.2604L63.6244 52.5348L63.2392 52.8077L62.8568 53.2343L62.7055 53.4566L62.4097 53.3852L62.2364 53.1877L62.4069 52.9408L62.3547 52.6486L62.4385 51.8983L62.3437 51.5966L62.6518 51.3675L62.7977 51.0026L63.1168 50.7105L63.3466 50.4512L63.3864 50.24L63.1815 50.0123L62.9641 49.8477H62.6642L62.3753 49.8957L62.1868 50.1124L62.1249 50.4073L62.14 50.5445L62.1153 50.6638L61.6613 51.0671L61.7205 51.4882L61.8539 51.7022L62.0245 51.8037L61.9735 51.9477L61.7576 52.2865L61.6076 52.3194L61.3311 51.8448L60.9844 51.5856L60.5553 51.587L60.115 51.6816L59.7807 51.9971L59.6707 52.2591L59.5992 52.5293L59.6239 53.1863L59.485 53.735L59.2126 54.2164L59.086 54.392L58.7545 54.7185L58.5247 54.761L58.3624 54.6129L58.2304 54.3879L58.3981 53.5649L58.3913 53.1013L58.7792 52.8654L58.4614 52.5361L58.0707 52.4031L57.5219 52.5787L57.3663 52.7776L57.2605 53.0437L56.9647 53.3811L56.64 53.6952L56.2699 54.2329L56.0223 54.868L55.2107 54.6609L54.769 54.6142L54.322 54.6307L53.5295 54.5525L52.6602 54.6828L51.6696 54.9325L51.7288 54.7527L52.5432 54.3701L52.5721 54.2576L52.4937 54.0477L52.2915 54.0381L51.8045 54.1108L51.5554 54.0793L51.455 53.8543L51.2899 53.7583L51.1799 53.8502L51.2157 54.2864L51.096 54.344L50.935 54.2315L50.9859 53.8914L50.8772 53.3934L50.8635 53.0835L51.0341 52.8174L50.8593 52.7049L50.675 52.7474L50.4411 52.875L50.2348 53.056L49.7987 53.9654L49.6295 54.4839L49.9487 54.8995L50.8208 55.4797L50.9694 55.6224L50.9722 55.8693L50.8662 56.1313L50.6296 56.2451L49.6735 56.4385L48.844 56.813L48.6046 57.1916L47.8507 58.6538L47.2468 59.651L46.3939 59.9939L45.4584 59.688L45.2314 59.341L45.0484 58.9117L44.7004 58.5235L44.3853 58.0996L44.2024 57.5962L44.2313 56.7842L44.0951 56.2945L44.2175 56.1642L44.7334 55.8652L44.9026 55.6979L45.1943 55.3083L45.2988 55.0916L45.3139 54.7638L45.0801 54.5923L44.4748 54.5978L43.8708 54.7006L43.4402 54.558L42.8803 54.1602L42.707 54.0752L42.1044 54.0505L41.6738 54.1246L41.2515 54.2686L40.8044 54.3152L40.6558 54.3907L40.14 54.8776L39.7286 55.1835L39.3737 55.3357L38.6074 55.3755L38.2236 55.4742L37.8219 55.6347L37.7091 55.621L37.2854 55.8432L36.7984 56.0353L36.5398 56.2273L36.0624 56.1011L35.1186 56.4454L34.6619 56.4879L34.1915 56.2973L33.7539 55.9886L33.3344 56.1217L33.0469 56.5757L32.9066 57.4782L32.7428 57.8843L32.6933 58.3712L32.476 58.2944L31.2131 57.4179L31.1264 57.3864L30.1056 57.5372L29.8429 57.6099L29.5141 57.7869L29.1661 57.8665L28.8497 57.7389L28.5456 57.5317L28.2539 57.5935L27.9554 57.7389L27.8399 56.4138L27.899 56.2397L28.082 56.0078L28.2843 55.809L28.7781 55.7403L29.2775 55.8048L29.6352 55.7143L29.9378 55.4509L30.2556 55.0778L30.6146 54.7733L31.1016 54.5333L31.5721 54.2576L31.9862 53.8708L32.3783 53.4469L32.7387 53.1356L33.1308 52.875L33.7278 52.2467L34.5189 51.5403L34.8229 51.0163L35.0113 50.8723L35.6924 50.5802L36.5962 50.3552L37.0226 50.3662L37.4436 50.8257L37.6706 50.7626L37.9017 50.6433L38.3667 50.5774L38.8455 50.6542L39.3131 50.6556L39.7809 50.598L40.6778 50.4471L41.1511 50.2647L41.6133 50.0287L43.2587 49.8628L44.3853 49.4664L44.5642 49.4952L44.7375 49.5857L44.7513 49.8792L44.6082 50.1988L44.7471 50.3922L44.9755 50.5116L46.0362 50.5486L46.3388 50.6172L46.7818 50.3991L47.2 50.1289L47.6361 49.7723L47.9415 49.3704L47.6595 48.867L47.5976 48.3155L47.8342 47.7161L48.1767 47.2114L48.584 46.9055L48.9595 46.5529L49.7189 45.5516L50.2678 44.7396L50.4659 43.7383L50.3503 42.5504L50.8305 41.6643L51.2899 41.5121L52.202 41.1074L52.6808 40.9895L52.7524 41.1664L52.7386 41.3982L52.0219 42.1417L51.6105 42.4476L51.3656 42.5422L51.14 42.6766L51.0478 42.9386L51.4138 43.3748L51.506 43.6971L51.4825 44.0058L51.4991 44.2842L51.9118 44.586L52.3863 44.6861L52.5845 44.6834L52.7578 44.6038L53.2998 43.8645L53.4209 43.7356L54.9617 43.1924L55.7197 42.7768L56.1393 42.6684L56.5327 42.4517L57.4159 41.615L57.7406 41.2281L58.0363 40.8002L58.273 40.3023L58.4601 39.7632L58.7159 39.4272L60.115 38.6247L60.5649 38.1872L60.7079 37.9745L60.8813 37.3587L61.001 36.7181L61.1702 36.2147L61.3999 35.7429L61.7067 35.2614L62.052 34.8129L62.2556 34.3534L62.5527 33.2519L62.682 32.6402L62.7839 32.4193L62.9324 32.2341L63.0617 31.9982L63.1608 31.7349L63.2062 31.4742L63.2695 30.6759L63.2309 30.0532L62.9999 29.5251L62.8087 29.3756L62.6009 29.3674L62.2872 29.4126L62.0217 29.1973L62.0767 29.0066L62.3478 28.9709L62.5321 28.8722L62.6656 28.6925L62.9145 28.115L63.0632 27.495L63.0769 27.2207L62.8815 26.7201L62.7275 26.1179L62.7234 25.7928L62.8925 25.417L63.1347 25.1111L63.3507 25.0398L63.5845 25.0178L63.7978 24.8999L63.9959 24.7284L64.1073 24.5391L64.2806 24.0234L64.348 23.7298L64.238 22.9397L64.3508 22.723L64.5104 22.5886L64.7236 22.6901L64.9437 22.7107L65.1996 22.6791L65.4444 22.7628L65.4899 22.9658L65.6439 24.299L65.732 24.4787L65.9108 24.6186L66.1117 24.5981L66.285 24.391L66.402 24.1152L66.6331 24.0576L67.3388 24.3539L67.5892 24.1427L67.7515 23.8148L67.8932 23.2346L67.8244 22.7107L67.6552 22.5159L67.4805 22.5502L67.3264 22.6942L67.1531 22.7724L66.1117 23.0481L66.1172 22.4638L66.34 21.5859L66.4624 21.3074L66.6386 21.1758L67.0761 21.3294L67.2892 21.4309L67.7556 21.8671ZM56.6153 39.541L56.2479 39.5533L56.1572 39.5053L56.3787 39.3846L56.3993 39.183L56.5327 38.8236L56.53 38.7207L56.2384 38.7015L56.2535 38.2941L56.4708 37.8909L57.0693 37.2558L57.2329 37.1365L57.2577 37.4149L57.0761 38.072L57.0403 38.3093L57.5109 38.3586L57.2082 39.1446L56.6153 39.541ZM37.4133 47.3101L37.2373 47.487L36.9071 47.4294L36.7158 47.1729L36.7791 46.8835L37.1244 46.6613L37.4546 47.1071L37.4133 47.3101ZM60.9102 54.2631L60.8689 54.4825L60.6639 54.4345L60.5663 54.2919L60.5786 54.0354L60.7946 54.034L60.9102 54.2631ZM22.0276 55.9969L21.9491 56.2204L21.6877 56.0627L21.5681 55.9201L21.8116 55.2164L21.7827 54.9489L21.7978 54.8186L22.2807 54.4496L22.3646 54.5196L22.3935 54.6224L22.3509 54.7802L22.3756 55.1286L22.0124 55.7047L22.0276 55.9969ZM43.4458 56.3L43.0275 56.695L42.6644 56.6676L42.4828 56.4906L42.4222 56.2726L42.7675 55.9296L43.0646 55.4441L43.3343 55.2287L43.5516 55.108L43.7223 55.1122L43.3398 55.7897L43.4458 56.3ZM41.202 55.3933L41.1305 55.4853L41.0616 55.4606L40.8155 55.6732L40.7631 55.4688L40.5692 55.333L40.5458 55.226L41.1002 55.156L41.279 55.2123L41.202 55.3933ZM41.2226 56.4482L41.7578 56.6415L42.3039 56.5867L42.2957 57.433L42.3741 57.7169L42.5268 57.9707L42.4483 58.3397L42.696 58.4658L41.9613 58.8856L41.2997 59.4425L41.0273 59.817L40.781 60.2189L40.638 60.6441L40.5458 61.1008L40.3243 60.9198L39.686 60.1777L39.2815 59.9747L38.6308 59.8664L38.4245 59.891L37.0873 60.5837L36.9098 61.0899L36.5453 61.8511L36.3719 62.1021L36.1793 62.1748L36.0431 62.3052L35.8946 62.9526L35.4804 63.3504L35.2259 63.3627L34.794 63.253L34.5986 63.3147L34.8573 62.6769L34.4446 62.5987L34.0305 62.6124L34.0209 62.1968L33.7705 61.9609L33.9562 61.6536L33.9617 61.4026L34.0704 61.2641L34.1075 61.0624L34.0924 60.8896L33.8379 60.8375L33.6825 60.7154L33.7114 60.26L33.5655 60.2436L33.2024 60.3231L32.4484 60.6742H32.2435L32.5585 60.4232L33.2285 60.0803L33.5298 59.8828L34.1873 59.3286L34.6014 59.0667L34.816 58.6016L34.8835 58.3191L35.0238 58.0694L35.1475 57.6703L35.3595 57.5372L35.7295 57.1943L35.9413 57.2273L36.1779 57.6484L36.4958 57.9707L36.7241 57.9433L37.1327 57.7773L37.3308 57.7402L37.8027 57.7608L38.2277 57.5564L38.4011 57.315L38.4658 57.0133L38.3076 56.5071L38.5111 56.5579L38.7078 56.5373L39.1687 56.215L39.6433 56.0229L40.1344 55.9749L40.6875 56.1574L41.2226 56.4482ZM21.619 57.064L21.3672 57.2519L21.2599 56.9653L21.37 56.1505L21.8418 56.3178L21.8336 56.5675L21.619 57.064ZM34.3551 57.1024L34.2437 57.2876L33.9012 57.2314L34.0388 57.0709L34.1433 56.8761L34.2204 56.8363L34.285 57.0475L34.3551 57.1024ZM33.1487 57.8884L33.3371 58.0585L33.7843 57.9899L33.8393 58.0379L33.7086 58.1915L33.5105 58.3438L33.1528 58.2299L32.9272 58.2244L32.8956 57.9707L32.9244 57.8788L33.1487 57.8884ZM28.9363 59.4672L29.4549 59.6043L29.6751 59.6126L29.8773 59.5509L30.1882 59.3711L30.5114 59.2381L30.7439 59.3053L30.949 59.4658L31.0562 59.6921L31.004 59.9281L30.6366 60.4356L30.334 60.976L31.0273 61.0775L31.7207 61.0666L31.5598 61.3998L31.5322 61.6906L31.7441 61.8292L31.9243 62.0157L31.8776 62.1844L31.7744 62.3504L32.1527 62.6001L32.1279 62.7674L32.0302 62.943L31.0852 64.087L30.8073 64.6644L30.6146 65.2995L30.4372 65.7631L30.3079 66.2446L30.2102 66.7631L30.0341 67.298L30.0933 67.7713L30.0341 68.2568L29.5595 69.4529L29.2211 69.431L28.796 69.2869L28.5304 69.3089L28.3929 69.5736L28.6364 70.1182L27.8798 70.7642L27.0433 71.1977L27.0379 71.0001L27.1176 70.8452L27.2373 70.7203L27.324 70.5694L27.4464 70.0619L27.3859 69.5503L27.1327 68.9083L27.1149 68.6779L27.2896 68.5846L27.4066 68.5572L27.4698 68.4681L27.4726 68.2555L27.3928 68.0977L27.1534 68.0469L26.925 68.0442L26.7641 68.2829L26.5426 68.7424L26.4353 69.2074L26.4821 69.4611L26.5798 69.6888L26.8838 70.0688L26.7957 70.2937L26.6692 70.4679L25.5961 70.0715L25.3636 70.0427L25.1711 69.959L24.9647 69.4364L25.4021 69.3102L25.5314 69.2472L25.5796 69.0798L25.6387 68.5696L25.4351 68.1416L25.2618 67.9893L25.1215 67.8151L25.2095 67.4544L25.1517 66.999L25.1463 66.3625L25.2219 66.2528L25.6277 66.1239L25.9208 65.7823L26.1794 65.3928L26.5578 64.7069L26.8687 63.9649L26.5701 63.9333L26.317 63.7934L26.5921 63.4423L26.5069 62.9978L26.0941 62.4519L25.8671 61.8072L25.5026 61.522L25.31 61.4177L25.0748 61.5686L24.8821 61.7496L25.061 62.1694L25.039 62.5411L25.0679 62.9087L25.2495 62.9292L25.4737 62.8374L25.6525 62.9018L25.7571 63.0952L25.7859 63.3435L25.7062 63.589L25.5424 63.7111L25.3416 63.7015L25.1394 63.5684L24.9812 63.3791L24.6029 63.2749L24.2039 63.4985L23.8256 63.9539L23.5023 64.1843L23.6536 63.8469L23.7266 63.482L23.5697 63.2255L23.1983 62.799L23.1116 62.552L23.0896 62.253L23.1556 61.9568L23.5353 62.2969L23.7307 62.7208L24.0113 62.9073L24.3621 62.9087L24.0925 62.2859L23.9962 62.1282L23.6193 61.8484L23.102 61.3779L22.7746 61.1502L22.8901 60.6578L23.0841 60.5604L23.2465 60.5837L23.7939 60.7579L23.8449 60.5124L23.7637 60.3807L23.7224 60.2284L24.0842 60.0158L24.6744 59.8403L24.7955 59.758L24.9 59.581L25.0444 59.4891L25.4572 59.4919L25.8053 59.3218L26.0927 58.8623L26.1615 58.6099L26.2634 58.3987L26.9801 58.0256L27.1575 57.968L27.6376 58.0146L28.0751 58.2258L28.2911 58.6702L28.481 59.1449L28.9363 59.4672ZM23.6124 58.7937L23.3455 58.9844L23.1446 58.8362L23.2423 58.4247L23.3084 58.2876L23.5368 58.4234L23.6124 58.7937ZM22.4376 61.2106L22.1665 61.4259H21.9698L22.1486 61.1735L22.1734 61.0542L22.3234 60.7154L22.6164 60.5947L22.7402 60.5796L22.5008 60.9308L22.4376 61.2106ZM20.8362 62.9581L20.7399 63.0074L20.6161 62.596L20.5294 62.4492L20.6739 62.371L20.9641 61.6234L21.0164 61.9197L21.1293 62.2133L21.2421 62.2599L21.132 62.4739L20.971 62.5534L20.8362 62.9581ZM62.3959 61.9732L62.3286 62.0212L62.1428 61.8717L62.1153 61.7387L62.1483 61.6564L62.2694 61.6385L62.5197 61.8017L62.3959 61.9732ZM19.2473 63.2159L19.3972 63.3394L19.616 63.2694L19.7907 63.253L19.9159 63.312L20.0741 63.6288L20.1319 63.8167L19.8498 63.8428L19.7302 63.8867L19.5761 64.1158L19.3546 64.0307L19.2156 63.9224L19.1854 63.7701L19.2473 63.2159ZM24.7184 65.7329L24.413 65.8948L24.3745 65.7398L24.2452 65.6685L24.4667 65.4504L24.4584 65.3516L24.3181 65.2049L24.4804 64.648L24.4364 64.4079L25.0459 64.3187L25.1573 64.5451L25.1683 65.2309L24.7184 65.7329ZM25.8712 64.8537L25.5301 64.8743L25.3884 64.8208L25.332 64.6768L25.8107 64.3846L26.1822 64.4367L26.0171 64.7001L25.8712 64.8537ZM23.3125 68.3185L23.1914 68.3967L23.2685 68.0428L23.5793 67.7328L23.6055 67.9331L23.3125 68.3185ZM28.1054 73.952L27.7669 73.9986L27.7601 73.7407L28.0283 73.1591L28.0572 72.7312L28.3076 72.1907L28.4136 72.0728L28.4933 72.0303L28.58 72.199L28.4837 72.8601L28.2319 73.3608L28.1054 73.952ZM26.8054 74.5459L26.3638 74.6419L26.1216 74.539L25.8988 73.9917L26.3211 73.6488L26.8851 73.989L27.0007 74.0864L26.8054 74.5459ZM22.2876 83.5619L21.9547 83.9144L21.6011 83.5961L21.1746 83.3835L21.3769 83.3259L21.4952 83.2395L21.5076 83.1051L21.7841 82.9048L22.3316 82.7498L22.5063 82.7402L22.7031 82.5948L22.7677 82.4632L22.8489 82.4L23.2024 82.219L23.2987 82.4275L23.2822 82.5907L23.0167 82.6813L22.7581 82.8993L22.5173 83.1709L22.3027 83.2861L22.2339 83.3629L22.2876 83.5619ZM21.7909 84.0145L21.8171 84.116L21.4388 84.0309L21.2847 83.6345L21.5364 83.7059L21.6135 83.8416L21.7909 84.0145ZM20.5322 85.6783L20.3699 85.7579L20.1539 85.6482L20.0864 85.1516L20.1827 84.9102L20.352 84.8567L20.4992 85.286L20.601 85.463L20.5322 85.6783ZM17.6776 90.2761L17.3048 90.4737L17.1673 90.7082L16.8234 90.7878L16.489 91.117L16.1644 91.176L16.1726 91.4407L16.3116 91.6643L16.0955 91.7041L15.8686 91.977L15.8507 92.1759L15.9319 92.335L15.9209 92.4159L15.6347 92.6519L15.3389 92.6628L15.3266 92.4077L15.3458 92.2171L15.6251 91.7534L15.632 91.2143L15.8906 91.1526L15.9841 91.0772L16.3927 90.6932L16.4684 90.5299L16.2565 90.3708L16.273 90.1829L16.3212 90.1033L16.6569 90.1637L16.793 90.3036L16.8605 90.3187L17.0572 90.2144L17.1494 90.0279L17.5153 89.6603L17.6639 89.2954L17.9597 89.5944L17.8799 89.9867L17.6776 90.2761ZM71.4576 90.4325L71.3861 90.4353L71.1439 89.9812L71.2141 89.9593L71.3558 90.0306L71.5113 90.2926L71.4576 90.4325ZM6.81104 98.3909L6.485 98.5007L6.13554 98.4362L6.19196 97.8477L6.31304 97.9301L6.3887 98.1303L6.64874 98.2483L6.81104 98.3909ZM2.36615 99.3484L2.13919 100.012L1.95069 100.108L1.75807 100.055L1.56 99.6844L1.69896 99.5417L1.89158 99.6172L2.047 99.5884L2.40058 99.0479L2.48589 99.1357L2.36615 99.3484ZM0.806154 100.339L0.562654 100.398L0.269614 100.325L0.0026869 100.304L0 100.18L0.27927 100.051L0.284728 99.8709L0.353495 99.7736L0.985001 99.9944L0.95746 100.156L0.806154 100.339Z"/>
</mask>
<path d="M77.7748 7.53047L78.259 7.55789L78.4751 7.53319L78.8451 7.61411L80.313 8.42476L80.7559 8.52766L81.214 8.54001L81.5359 8.47416L81.8193 8.25193L82.7053 7.26847L83.638 6.37003L83.7412 6.40431V6.65258L83.6724 6.92827L83.2597 7.7499L82.8016 8.85274L82.7039 9.40964L82.8524 9.95144L83.14 10.3986L83.367 11.009L83.6284 11.8553L83.9971 11.9623L84.1979 11.9747L84.5666 11.7209L84.9146 11.3985L85.2146 11.3588L85.5296 11.4136L85.1155 11.6386L84.7248 11.9129L84.3891 12.4314L84.2639 12.5288L83.8774 12.4972L83.6559 12.5164L83.2033 12.7332L82.8057 12.9787L82.426 13.2791L82.012 13.4396L81.5704 13.478L80.8893 13.7235L80.4478 13.7413L79.6183 13.5274L79.2151 13.585L78.3361 14.0678L77.5354 14.7646L76.8352 15.5451L76.2506 16.4806L76.0153 16.9662L75.8736 17.5093L75.8543 17.8687L75.802 18.213L75.6673 18.453L75.5049 18.6478L75.0221 18.5339L74.2297 18.0374L72.693 17.3146L71.0696 16.2048L70.1563 15.6466L68.4393 15.8139L66.8147 16.8783L66.6702 16.7878L66.0497 16.0581L65.7485 15.7687L65.3894 15.6864L65.1225 15.696L64.8639 15.7495L64.4966 16.1253L64.3618 16.3955L64.2572 16.7028L64.2256 16.9195L64.2696 17.1321L64.6177 17.6122L65.0469 17.9688L65.2408 18.036L65.6522 18.0114L65.8434 18.0484L66.5326 18.763L67.2879 19.4324L67.4543 19.6532L67.1751 19.885L66.8697 20.0002L66.5134 19.9714L66.1612 19.8837L65.5586 19.5997L65.3 19.8411L64.8983 20.3363L64.6768 20.874L64.4966 21.1195L64.0536 21.4432L63.5845 21.6106L63.3382 21.5557L63.1512 21.3527L63.0453 21.1099L62.9916 20.8274L63.0906 20.2156L63.3341 19.6628L63.4277 19.0977L63.2282 18.3008L63.1016 18.1334L62.6036 17.6657L62.3726 17.2089L62.3175 16.6397L62.3464 16.3256L62.4674 15.6302L62.5885 15.279L62.8169 15.1637L63.0673 15.0938L63.4511 14.8414L63.8734 14.515L64.2779 14.1419L64.6782 13.6851L64.8859 13.1831L64.5434 12.5658L64.4719 12.1982L64.5227 11.8512L64.8887 11.666L65.2642 11.8059L66.0223 12.3162L66.1695 12.3669L66.6895 12.3903L67.4021 12.5014L67.8148 12.4739L68.0143 12.3971L68.3141 11.976L68.4613 11.4383L68.4077 10.7456L68.405 10.057L68.5948 9.49466L69.1891 8.58802L69.3597 8.05305L69.4216 6.74723L69.6362 6.17111L69.8081 5.57172L69.8907 4.31253L69.6472 3.09721L69.4023 2.49916L69.1217 1.92995L69.1629 1.3854L69.39 0.879225L69.3954 0.726981L69.4491 0.591187L69.8742 0.495161L70.0736 0.386827L70.2649 0.142659L70.4919 0L70.6584 0.142659L70.7959 0.392311L71.3958 1.00543L72.3408 2.09726L73.4538 3.75563L74.1513 4.5608L74.8859 5.28917L75.7099 6.0326L76.5724 6.67042L77.1227 6.97218L77.5258 7.45228L77.7748 7.53047ZM67.1503 0.964285L67.0017 1.30996L66.8009 0.795589L66.761 0.240067L66.8766 0.242787L67.0884 0.326465L67.1393 0.596671L67.1503 0.964285ZM68.0101 2.12745L67.7432 2.16587L67.431 1.93816L67.3924 1.65288L67.6181 1.42516L67.8423 1.50884L68.0665 1.80236L68.1408 1.95599L68.0101 2.12745ZM61.0065 18.2281L60.9184 18.2555L60.8277 18.2116L60.7382 17.8207L60.8152 17.6149L61.0643 17.4709L61.3064 17.4311L61.1014 18.1499L61.0065 18.2281ZM67.7556 21.8671L67.907 21.9631L68.6278 21.7039L68.4902 22.4871L68.4132 23.2758L68.4655 24.5816L68.5302 25.1687L68.6554 25.7366L68.9635 26.1426L69.3652 26.4306L69.9471 27.3483L70.2594 28.473L70.4795 29.0176L70.6446 29.5882L70.6955 29.8488L70.6996 30.1094L70.6501 30.4661L70.7051 30.7541L70.6418 31.6567L70.3818 32.6978L70.3488 33.2286L70.1218 33.3342L69.9843 33.5798L69.8673 33.6936L69.7366 33.7814L69.5482 33.8033L69.412 33.9035L69.3583 34.1846L69.2717 34.4439L69.1066 34.6839L68.9772 34.9473L68.8713 35.5892L68.8328 36.2463L68.6746 36.7044L68.2908 36.8237L67.8519 36.8169L67.2892 37.0281L67.1682 37.1529L66.7238 37.9512L66.5959 38.419L66.5918 38.921L66.7156 39.5383L66.8834 40.1404L67.01 41.2583L66.8766 42.9565L66.7472 43.4983L66.4652 43.8645L66.2506 44.0346L66.0663 44.2431L65.8269 44.7931L65.4307 45.8877L65.3991 46.162L65.4004 46.4459L65.2931 46.8163L65.2244 47.1798L65.289 47.6023L65.4114 47.9973L65.9424 49.0082L66.1502 49.3072L66.3841 49.5789L65.4775 49.8792L65.3151 50.0178L64.7759 50.5911L64.6039 51.1343L64.6177 51.7351L64.5283 51.9504L64.381 52.137L64.2269 52.2604L63.6244 52.5348L63.2392 52.8077L62.8568 53.2343L62.7055 53.4566L62.4097 53.3852L62.2364 53.1877L62.4069 52.9408L62.3547 52.6486L62.4385 51.8983L62.3437 51.5966L62.6518 51.3675L62.7977 51.0026L63.1168 50.7105L63.3466 50.4512L63.3864 50.24L63.1815 50.0123L62.9641 49.8477H62.6642L62.3753 49.8957L62.1868 50.1124L62.1249 50.4073L62.14 50.5445L62.1153 50.6638L61.6613 51.0671L61.7205 51.4882L61.8539 51.7022L62.0245 51.8037L61.9735 51.9477L61.7576 52.2865L61.6076 52.3194L61.3311 51.8448L60.9844 51.5856L60.5553 51.587L60.115 51.6816L59.7807 51.9971L59.6707 52.2591L59.5992 52.5293L59.6239 53.1863L59.485 53.735L59.2126 54.2164L59.086 54.392L58.7545 54.7185L58.5247 54.761L58.3624 54.6129L58.2304 54.3879L58.3981 53.5649L58.3913 53.1013L58.7792 52.8654L58.4614 52.5361L58.0707 52.4031L57.5219 52.5787L57.3663 52.7776L57.2605 53.0437L56.9647 53.3811L56.64 53.6952L56.2699 54.2329L56.0223 54.868L55.2107 54.6609L54.769 54.6142L54.322 54.6307L53.5295 54.5525L52.6602 54.6828L51.6696 54.9325L51.7288 54.7527L52.5432 54.3701L52.5721 54.2576L52.4937 54.0477L52.2915 54.0381L51.8045 54.1108L51.5554 54.0793L51.455 53.8543L51.2899 53.7583L51.1799 53.8502L51.2157 54.2864L51.096 54.344L50.935 54.2315L50.9859 53.8914L50.8772 53.3934L50.8635 53.0835L51.0341 52.8174L50.8593 52.7049L50.675 52.7474L50.4411 52.875L50.2348 53.056L49.7987 53.9654L49.6295 54.4839L49.9487 54.8995L50.8208 55.4797L50.9694 55.6224L50.9722 55.8693L50.8662 56.1313L50.6296 56.2451L49.6735 56.4385L48.844 56.813L48.6046 57.1916L47.8507 58.6538L47.2468 59.651L46.3939 59.9939L45.4584 59.688L45.2314 59.341L45.0484 58.9117L44.7004 58.5235L44.3853 58.0996L44.2024 57.5962L44.2313 56.7842L44.0951 56.2945L44.2175 56.1642L44.7334 55.8652L44.9026 55.6979L45.1943 55.3083L45.2988 55.0916L45.3139 54.7638L45.0801 54.5923L44.4748 54.5978L43.8708 54.7006L43.4402 54.558L42.8803 54.1602L42.707 54.0752L42.1044 54.0505L41.6738 54.1246L41.2515 54.2686L40.8044 54.3152L40.6558 54.3907L40.14 54.8776L39.7286 55.1835L39.3737 55.3357L38.6074 55.3755L38.2236 55.4742L37.8219 55.6347L37.7091 55.621L37.2854 55.8432L36.7984 56.0353L36.5398 56.2273L36.0624 56.1011L35.1186 56.4454L34.6619 56.4879L34.1915 56.2973L33.7539 55.9886L33.3344 56.1217L33.0469 56.5757L32.9066 57.4782L32.7428 57.8843L32.6933 58.3712L32.476 58.2944L31.2131 57.4179L31.1264 57.3864L30.1056 57.5372L29.8429 57.6099L29.5141 57.7869L29.1661 57.8665L28.8497 57.7389L28.5456 57.5317L28.2539 57.5935L27.9554 57.7389L27.8399 56.4138L27.899 56.2397L28.082 56.0078L28.2843 55.809L28.7781 55.7403L29.2775 55.8048L29.6352 55.7143L29.9378 55.4509L30.2556 55.0778L30.6146 54.7733L31.1016 54.5333L31.5721 54.2576L31.9862 53.8708L32.3783 53.4469L32.7387 53.1356L33.1308 52.875L33.7278 52.2467L34.5189 51.5403L34.8229 51.0163L35.0113 50.8723L35.6924 50.5802L36.5962 50.3552L37.0226 50.3662L37.4436 50.8257L37.6706 50.7626L37.9017 50.6433L38.3667 50.5774L38.8455 50.6542L39.3131 50.6556L39.7809 50.598L40.6778 50.4471L41.1511 50.2647L41.6133 50.0287L43.2587 49.8628L44.3853 49.4664L44.5642 49.4952L44.7375 49.5857L44.7513 49.8792L44.6082 50.1988L44.7471 50.3922L44.9755 50.5116L46.0362 50.5486L46.3388 50.6172L46.7818 50.3991L47.2 50.1289L47.6361 49.7723L47.9415 49.3704L47.6595 48.867L47.5976 48.3155L47.8342 47.7161L48.1767 47.2114L48.584 46.9055L48.9595 46.5529L49.7189 45.5516L50.2678 44.7396L50.4659 43.7383L50.3503 42.5504L50.8305 41.6643L51.2899 41.5121L52.202 41.1074L52.6808 40.9895L52.7524 41.1664L52.7386 41.3982L52.0219 42.1417L51.6105 42.4476L51.3656 42.5422L51.14 42.6766L51.0478 42.9386L51.4138 43.3748L51.506 43.6971L51.4825 44.0058L51.4991 44.2842L51.9118 44.586L52.3863 44.6861L52.5845 44.6834L52.7578 44.6038L53.2998 43.8645L53.4209 43.7356L54.9617 43.1924L55.7197 42.7768L56.1393 42.6684L56.5327 42.4517L57.4159 41.615L57.7406 41.2281L58.0363 40.8002L58.273 40.3023L58.4601 39.7632L58.7159 39.4272L60.115 38.6247L60.5649 38.1872L60.7079 37.9745L60.8813 37.3587L61.001 36.7181L61.1702 36.2147L61.3999 35.7429L61.7067 35.2614L62.052 34.8129L62.2556 34.3534L62.5527 33.2519L62.682 32.6402L62.7839 32.4193L62.9324 32.2341L63.0617 31.9982L63.1608 31.7349L63.2062 31.4742L63.2695 30.6759L63.2309 30.0532L62.9999 29.5251L62.8087 29.3756L62.6009 29.3674L62.2872 29.4126L62.0217 29.1973L62.0767 29.0066L62.3478 28.9709L62.5321 28.8722L62.6656 28.6925L62.9145 28.115L63.0632 27.495L63.0769 27.2207L62.8815 26.7201L62.7275 26.1179L62.7234 25.7928L62.8925 25.417L63.1347 25.1111L63.3507 25.0398L63.5845 25.0178L63.7978 24.8999L63.9959 24.7284L64.1073 24.5391L64.2806 24.0234L64.348 23.7298L64.238 22.9397L64.3508 22.723L64.5104 22.5886L64.7236 22.6901L64.9437 22.7107L65.1996 22.6791L65.4444 22.7628L65.4899 22.9658L65.6439 24.299L65.732 24.4787L65.9108 24.6186L66.1117 24.5981L66.285 24.391L66.402 24.1152L66.6331 24.0576L67.3388 24.3539L67.5892 24.1427L67.7515 23.8148L67.8932 23.2346L67.8244 22.7107L67.6552 22.5159L67.4805 22.5502L67.3264 22.6942L67.1531 22.7724L66.1117 23.0481L66.1172 22.4638L66.34 21.5859L66.4624 21.3074L66.6386 21.1758L67.0761 21.3294L67.2892 21.4309L67.7556 21.8671ZM56.6153 39.541L56.2479 39.5533L56.1572 39.5053L56.3787 39.3846L56.3993 39.183L56.5327 38.8236L56.53 38.7207L56.2384 38.7015L56.2535 38.2941L56.4708 37.8909L57.0693 37.2558L57.2329 37.1365L57.2577 37.4149L57.0761 38.072L57.0403 38.3093L57.5109 38.3586L57.2082 39.1446L56.6153 39.541ZM37.4133 47.3101L37.2373 47.487L36.9071 47.4294L36.7158 47.1729L36.7791 46.8835L37.1244 46.6613L37.4546 47.1071L37.4133 47.3101ZM60.9102 54.2631L60.8689 54.4825L60.6639 54.4345L60.5663 54.2919L60.5786 54.0354L60.7946 54.034L60.9102 54.2631ZM22.0276 55.9969L21.9491 56.2204L21.6877 56.0627L21.5681 55.9201L21.8116 55.2164L21.7827 54.9489L21.7978 54.8186L22.2807 54.4496L22.3646 54.5196L22.3935 54.6224L22.3509 54.7802L22.3756 55.1286L22.0124 55.7047L22.0276 55.9969ZM43.4458 56.3L43.0275 56.695L42.6644 56.6676L42.4828 56.4906L42.4222 56.2726L42.7675 55.9296L43.0646 55.4441L43.3343 55.2287L43.5516 55.108L43.7223 55.1122L43.3398 55.7897L43.4458 56.3ZM41.202 55.3933L41.1305 55.4853L41.0616 55.4606L40.8155 55.6732L40.7631 55.4688L40.5692 55.333L40.5458 55.226L41.1002 55.156L41.279 55.2123L41.202 55.3933ZM41.2226 56.4482L41.7578 56.6415L42.3039 56.5867L42.2957 57.433L42.3741 57.7169L42.5268 57.9707L42.4483 58.3397L42.696 58.4658L41.9613 58.8856L41.2997 59.4425L41.0273 59.817L40.781 60.2189L40.638 60.6441L40.5458 61.1008L40.3243 60.9198L39.686 60.1777L39.2815 59.9747L38.6308 59.8664L38.4245 59.891L37.0873 60.5837L36.9098 61.0899L36.5453 61.8511L36.3719 62.1021L36.1793 62.1748L36.0431 62.3052L35.8946 62.9526L35.4804 63.3504L35.2259 63.3627L34.794 63.253L34.5986 63.3147L34.8573 62.6769L34.4446 62.5987L34.0305 62.6124L34.0209 62.1968L33.7705 61.9609L33.9562 61.6536L33.9617 61.4026L34.0704 61.2641L34.1075 61.0624L34.0924 60.8896L33.8379 60.8375L33.6825 60.7154L33.7114 60.26L33.5655 60.2436L33.2024 60.3231L32.4484 60.6742H32.2435L32.5585 60.4232L33.2285 60.0803L33.5298 59.8828L34.1873 59.3286L34.6014 59.0667L34.816 58.6016L34.8835 58.3191L35.0238 58.0694L35.1475 57.6703L35.3595 57.5372L35.7295 57.1943L35.9413 57.2273L36.1779 57.6484L36.4958 57.9707L36.7241 57.9433L37.1327 57.7773L37.3308 57.7402L37.8027 57.7608L38.2277 57.5564L38.4011 57.315L38.4658 57.0133L38.3076 56.5071L38.5111 56.5579L38.7078 56.5373L39.1687 56.215L39.6433 56.0229L40.1344 55.9749L40.6875 56.1574L41.2226 56.4482ZM21.619 57.064L21.3672 57.2519L21.2599 56.9653L21.37 56.1505L21.8418 56.3178L21.8336 56.5675L21.619 57.064ZM34.3551 57.1024L34.2437 57.2876L33.9012 57.2314L34.0388 57.0709L34.1433 56.8761L34.2204 56.8363L34.285 57.0475L34.3551 57.1024ZM33.1487 57.8884L33.3371 58.0585L33.7843 57.9899L33.8393 58.0379L33.7086 58.1915L33.5105 58.3438L33.1528 58.2299L32.9272 58.2244L32.8956 57.9707L32.9244 57.8788L33.1487 57.8884ZM28.9363 59.4672L29.4549 59.6043L29.6751 59.6126L29.8773 59.5509L30.1882 59.3711L30.5114 59.2381L30.7439 59.3053L30.949 59.4658L31.0562 59.6921L31.004 59.9281L30.6366 60.4356L30.334 60.976L31.0273 61.0775L31.7207 61.0666L31.5598 61.3998L31.5322 61.6906L31.7441 61.8292L31.9243 62.0157L31.8776 62.1844L31.7744 62.3504L32.1527 62.6001L32.1279 62.7674L32.0302 62.943L31.0852 64.087L30.8073 64.6644L30.6146 65.2995L30.4372 65.7631L30.3079 66.2446L30.2102 66.7631L30.0341 67.298L30.0933 67.7713L30.0341 68.2568L29.5595 69.4529L29.2211 69.431L28.796 69.2869L28.5304 69.3089L28.3929 69.5736L28.6364 70.1182L27.8798 70.7642L27.0433 71.1977L27.0379 71.0001L27.1176 70.8452L27.2373 70.7203L27.324 70.5694L27.4464 70.0619L27.3859 69.5503L27.1327 68.9083L27.1149 68.6779L27.2896 68.5846L27.4066 68.5572L27.4698 68.4681L27.4726 68.2555L27.3928 68.0977L27.1534 68.0469L26.925 68.0442L26.7641 68.2829L26.5426 68.7424L26.4353 69.2074L26.4821 69.4611L26.5798 69.6888L26.8838 70.0688L26.7957 70.2937L26.6692 70.4679L25.5961 70.0715L25.3636 70.0427L25.1711 69.959L24.9647 69.4364L25.4021 69.3102L25.5314 69.2472L25.5796 69.0798L25.6387 68.5696L25.4351 68.1416L25.2618 67.9893L25.1215 67.8151L25.2095 67.4544L25.1517 66.999L25.1463 66.3625L25.2219 66.2528L25.6277 66.1239L25.9208 65.7823L26.1794 65.3928L26.5578 64.7069L26.8687 63.9649L26.5701 63.9333L26.317 63.7934L26.5921 63.4423L26.5069 62.9978L26.0941 62.4519L25.8671 61.8072L25.5026 61.522L25.31 61.4177L25.0748 61.5686L24.8821 61.7496L25.061 62.1694L25.039 62.5411L25.0679 62.9087L25.2495 62.9292L25.4737 62.8374L25.6525 62.9018L25.7571 63.0952L25.7859 63.3435L25.7062 63.589L25.5424 63.7111L25.3416 63.7015L25.1394 63.5684L24.9812 63.3791L24.6029 63.2749L24.2039 63.4985L23.8256 63.9539L23.5023 64.1843L23.6536 63.8469L23.7266 63.482L23.5697 63.2255L23.1983 62.799L23.1116 62.552L23.0896 62.253L23.1556 61.9568L23.5353 62.2969L23.7307 62.7208L24.0113 62.9073L24.3621 62.9087L24.0925 62.2859L23.9962 62.1282L23.6193 61.8484L23.102 61.3779L22.7746 61.1502L22.8901 60.6578L23.0841 60.5604L23.2465 60.5837L23.7939 60.7579L23.8449 60.5124L23.7637 60.3807L23.7224 60.2284L24.0842 60.0158L24.6744 59.8403L24.7955 59.758L24.9 59.581L25.0444 59.4891L25.4572 59.4919L25.8053 59.3218L26.0927 58.8623L26.1615 58.6099L26.2634 58.3987L26.9801 58.0256L27.1575 57.968L27.6376 58.0146L28.0751 58.2258L28.2911 58.6702L28.481 59.1449L28.9363 59.4672ZM23.6124 58.7937L23.3455 58.9844L23.1446 58.8362L23.2423 58.4247L23.3084 58.2876L23.5368 58.4234L23.6124 58.7937ZM22.4376 61.2106L22.1665 61.4259H21.9698L22.1486 61.1735L22.1734 61.0542L22.3234 60.7154L22.6164 60.5947L22.7402 60.5796L22.5008 60.9308L22.4376 61.2106ZM20.8362 62.9581L20.7399 63.0074L20.6161 62.596L20.5294 62.4492L20.6739 62.371L20.9641 61.6234L21.0164 61.9197L21.1293 62.2133L21.2421 62.2599L21.132 62.4739L20.971 62.5534L20.8362 62.9581ZM62.3959 61.9732L62.3286 62.0212L62.1428 61.8717L62.1153 61.7387L62.1483 61.6564L62.2694 61.6385L62.5197 61.8017L62.3959 61.9732ZM19.2473 63.2159L19.3972 63.3394L19.616 63.2694L19.7907 63.253L19.9159 63.312L20.0741 63.6288L20.1319 63.8167L19.8498 63.8428L19.7302 63.8867L19.5761 64.1158L19.3546 64.0307L19.2156 63.9224L19.1854 63.7701L19.2473 63.2159ZM24.7184 65.7329L24.413 65.8948L24.3745 65.7398L24.2452 65.6685L24.4667 65.4504L24.4584 65.3516L24.3181 65.2049L24.4804 64.648L24.4364 64.4079L25.0459 64.3187L25.1573 64.5451L25.1683 65.2309L24.7184 65.7329ZM25.8712 64.8537L25.5301 64.8743L25.3884 64.8208L25.332 64.6768L25.8107 64.3846L26.1822 64.4367L26.0171 64.7001L25.8712 64.8537ZM23.3125 68.3185L23.1914 68.3967L23.2685 68.0428L23.5793 67.7328L23.6055 67.9331L23.3125 68.3185ZM28.1054 73.952L27.7669 73.9986L27.7601 73.7407L28.0283 73.1591L28.0572 72.7312L28.3076 72.1907L28.4136 72.0728L28.4933 72.0303L28.58 72.199L28.4837 72.8601L28.2319 73.3608L28.1054 73.952ZM26.8054 74.5459L26.3638 74.6419L26.1216 74.539L25.8988 73.9917L26.3211 73.6488L26.8851 73.989L27.0007 74.0864L26.8054 74.5459ZM22.2876 83.5619L21.9547 83.9144L21.6011 83.5961L21.1746 83.3835L21.3769 83.3259L21.4952 83.2395L21.5076 83.1051L21.7841 82.9048L22.3316 82.7498L22.5063 82.7402L22.7031 82.5948L22.7677 82.4632L22.8489 82.4L23.2024 82.219L23.2987 82.4275L23.2822 82.5907L23.0167 82.6813L22.7581 82.8993L22.5173 83.1709L22.3027 83.2861L22.2339 83.3629L22.2876 83.5619ZM21.7909 84.0145L21.8171 84.116L21.4388 84.0309L21.2847 83.6345L21.5364 83.7059L21.6135 83.8416L21.7909 84.0145ZM20.5322 85.6783L20.3699 85.7579L20.1539 85.6482L20.0864 85.1516L20.1827 84.9102L20.352 84.8567L20.4992 85.286L20.601 85.463L20.5322 85.6783ZM17.6776 90.2761L17.3048 90.4737L17.1673 90.7082L16.8234 90.7878L16.489 91.117L16.1644 91.176L16.1726 91.4407L16.3116 91.6643L16.0955 91.7041L15.8686 91.977L15.8507 92.1759L15.9319 92.335L15.9209 92.4159L15.6347 92.6519L15.3389 92.6628L15.3266 92.4077L15.3458 92.2171L15.6251 91.7534L15.632 91.2143L15.8906 91.1526L15.9841 91.0772L16.3927 90.6932L16.4684 90.5299L16.2565 90.3708L16.273 90.1829L16.3212 90.1033L16.6569 90.1637L16.793 90.3036L16.8605 90.3187L17.0572 90.2144L17.1494 90.0279L17.5153 89.6603L17.6639 89.2954L17.9597 89.5944L17.8799 89.9867L17.6776 90.2761ZM71.4576 90.4325L71.3861 90.4353L71.1439 89.9812L71.2141 89.9593L71.3558 90.0306L71.5113 90.2926L71.4576 90.4325ZM6.81104 98.3909L6.485 98.5007L6.13554 98.4362L6.19196 97.8477L6.31304 97.9301L6.3887 98.1303L6.64874 98.2483L6.81104 98.3909ZM2.36615 99.3484L2.13919 100.012L1.95069 100.108L1.75807 100.055L1.56 99.6844L1.69896 99.5417L1.89158 99.6172L2.047 99.5884L2.40058 99.0479L2.48589 99.1357L2.36615 99.3484ZM0.806154 100.339L0.562654 100.398L0.269614 100.325L0.0026869 100.304L0 100.18L0.27927 100.051L0.284728 99.8709L0.353495 99.7736L0.985001 99.9944L0.95746 100.156L0.806154 100.339Z" fill="var(--fill-0, #71B219)" stroke="var(--stroke-0, white)" mask="url(#path-1-inside-1_0_119)"/>
</g>
</svg>
