<svg preserveAspectRatio="none" width="100%" height="100%" overflow="visible" style="display: block;" viewBox="0 0 86 100" fill="none" xmlns="http://www.w3.org/2000/svg"><g id="JP"><mask id="path-1-inside-1_0_119" fill="white"><path d="M78 8L78 8L78 8L79 8L80 8L81 8L81 8L82 8L82 8L83 7L84 6L84 6V7L84 7L83 8L83 9L83 9L83 10L83 10L83 11L84 12L84 12L84 12L85 12L85 11L85 11L86 11L85 12L85 12L84 12L84 12L84 12L84 12L83 13L83 13L82 13L82 13L82 14L81 14L80 14L80 14L79 14L78 14L78 15L77 16L76 16L76 17L76 18L76 18L76 18L76 18L76 19L75 18L74 18L73 17L71 16L70 16L68 16L67 17L67 17L66 16L66 16L65 16L65 16L65 16L64 16L64 16L64 17L64 17L64 17L65 18L65 18L65 18L66 18L66 18L66 19L67 19L68 20L67 20L67 20L66 20L66 20L66 20L65 20L65 20L65 21L64 21L64 21L64 22L63 22L63 21L63 21L63 21L63 20L63 20L63 19L63 18L63 18L63 18L62 17L62 17L62 16L62 16L63 15L63 15L63 15L64 15L64 14L64 14L65 14L65 13L64 13L64 12L64 12L65 12L65 12L66 12L66 12L67 12L67 12L68 12L68 12L68 12L68 11L68 11L68 10L69 10L69 9L69 8L69 7L70 6L70 6L70 4L70 3L69 2L69 2L69 1L69 1L69 1L69 1L70 0L70 0L70 0L70 0L71 0L71 0L71 1L72 2L74 4L74 5L75 5L76 6L77 7L77 7L78 8L78 8ZM67 1L67 1L67 1L67 0L67 0L67 0L67 1L67 1ZM68 2L68 2L67 2L67 2L68 1L68 2L68 2L68 2L68 2ZM61 18L61 18L61 18L61 18L61 18L61 18L61 17L61 18L61 18ZM68 22L68 22L69 22L68 22L68 23L68 25L68 25L69 26L69 26L69 26L70 27L70 28L70 29L71 30L71 30L71 30L71 30L71 31L71 32L70 33L70 33L70 33L70 34L70 34L70 34L70 34L69 34L69 34L69 34L69 35L69 35L69 36L69 36L69 37L68 37L68 37L67 37L67 37L67 38L67 38L67 39L67 40L67 40L67 41L67 43L67 44L66 44L66 44L66 44L66 45L65 46L65 46L65 46L65 47L65 47L65 48L65 48L66 49L66 49L66 50L66 50L65 50L65 51L65 51L65 52L64 52L64 52L64 52L64 52L63 53L63 53L63 54L62 53L62 53L62 53L62 53L62 52L62 52L63 51L63 51L63 51L63 50L63 50L63 50L63 50H63L62 50L62 50L62 50L62 50L62 51L62 51L62 52L62 52L62 52L62 52L62 52L62 52L61 52L61 52L61 52L60 52L60 52L60 52L60 52L60 53L60 54L59 54L59 54L59 55L58 55L58 55L58 54L58 54L58 53L59 53L58 52L58 52L58 53L57 53L57 53L57 53L57 54L56 54L56 55L55 55L55 55L54 55L54 55L53 55L52 55L52 55L52 54L53 54L52 54L52 54L52 54L52 54L52 54L51 54L51 54L51 54L51 54L51 54L51 54L51 53L51 53L51 53L51 53L51 53L50 53L50 53L50 54L50 54L50 55L51 56L51 56L51 56L51 56L51 56L50 56L49 57L49 57L48 59L47 60L46 60L46 60L45 59L45 59L45 58L44 58L44 58L44 57L44 56L44 56L45 56L45 56L45 55L45 55L45 55L45 55L44 55L44 55L43 55L43 54L43 54L42 54L42 54L41 54L41 54L41 54L40 55L40 55L39 55L39 55L38 56L38 56L38 56L37 56L37 56L36 56L36 56L35 56L35 56L34 56L34 56L33 56L33 57L33 58L33 58L33 58L32 58L31 57L31 57L30 58L30 58L30 58L29 58L29 58L28 58L28 58L28 58L28 56L28 56L28 56L28 56L29 56L29 56L30 56L30 56L30 55L31 55L31 54L32 54L32 54L32 53L33 53L33 53L34 52L34 52L35 51L35 51L36 51L37 50L37 50L37 51L38 51L38 51L38 51L39 51L39 51L40 51L41 50L41 50L42 50L43 50L44 50L45 50L45 50L45 50L45 50L45 50L45 50L46 50L46 51L47 50L47 50L48 50L48 49L48 49L48 48L48 48L48 47L49 47L49 47L50 46L50 45L50 44L50 43L51 42L51 42L52 41L53 41L53 41L53 41L52 42L52 42L51 42L51 43L51 43L51 43L52 44L52 44L52 44L52 45L52 45L53 45L53 45L53 44L53 44L55 43L56 43L56 43L56 42L57 42L58 41L58 41L58 40L58 40L59 39L60 39L61 38L61 38L61 37L61 37L61 36L61 36L62 35L62 35L62 34L63 33L63 33L63 32L63 32L63 32L63 32L63 32L63 31L63 30L63 30L63 29L63 29L62 29L62 29L62 29L62 29L62 29L63 29L63 28L63 28L63 27L63 27L63 26L63 26L63 25L63 25L63 25L64 25L64 25L64 25L64 24L64 24L64 24L64 23L64 23L64 23L65 23L65 23L65 23L65 23L66 23L66 24L66 24L66 25L66 25L66 24L66 24L67 24L67 24L68 24L68 24L68 23L68 23L68 22L68 23L67 23L67 23L66 23L66 22L66 22L66 21L67 21L67 21L67 21L68 22ZM57 40L56 40L56 40L56 39L56 39L56 39L56 39L56 39L56 38L56 38L57 37L57 37L57 37L57 38L57 38L58 38L57 39L57 40ZM37 47L37 48L37 47L37 47L37 47L37 47L38 47L37 47ZM61 54L61 54L61 54L61 54L61 54L61 54L61 54ZM22 56L22 56L22 56L22 56L22 55L22 55L22 55L22 54L22 54L22 55L22 55L22 55L22 56L22 56ZM43 56L43 57L43 57L42 56L42 56L43 56L43 55L43 55L44 55L44 55L43 56L43 56ZM41 55L41 56L41 56L41 56L41 56L41 55L40 55L41 55L41 55L41 55ZM41 56L42 57L42 57L42 57L42 58L42 58L42 58L43 58L42 59L41 59L41 60L41 60L41 61L40 61L40 61L40 60L39 60L39 60L38 60L37 61L37 61L36 62L36 62L36 62L36 62L36 63L36 63L35 63L35 63L35 63L35 63L34 63L34 63L34 62L34 62L34 62L34 61L34 61L34 61L34 61L34 61L34 61L34 60L34 60L33 60L32 61H32L33 60L33 60L34 60L34 59L35 59L35 59L35 58L35 58L35 58L35 58L36 57L36 57L36 58L36 58L37 58L37 58L37 58L38 58L38 58L38 57L38 57L38 56L38 57L39 56L39 56L40 56L40 56L41 56L41 56ZM22 57L21 57L21 57L21 56L22 56L22 57L22 57ZM34 57L34 57L34 57L34 57L34 57L34 57L34 57L34 57ZM33 58L33 58L34 58L34 58L34 58L34 58L33 58L33 58L33 58L33 58L33 58ZM29 60L30 60L30 60L30 60L30 59L30 59L31 59L31 60L31 60L31 60L31 60L30 61L31 61L32 61L32 61L32 62L32 62L32 62L32 62L32 62L32 63L32 63L32 63L31 64L31 65L31 65L30 66L30 66L30 67L30 67L30 68L30 68L30 70L29 69L29 69L28 69L28 70L29 70L28 71L27 71L27 71L27 71L27 71L27 71L27 70L27 70L27 69L27 69L27 69L27 69L28 68L28 68L27 68L27 68L27 68L27 68L26 69L26 69L26 70L27 70L27 70L27 70L27 70L26 70L25 70L25 70L25 69L25 69L26 69L26 69L26 69L25 68L25 68L25 68L25 68L25 67L25 66L25 66L26 66L26 66L26 65L27 65L27 64L27 64L26 64L27 63L26 63L26 62L26 62L26 62L25 61L25 62L25 62L25 62L25 62L25 63L25 63L26 63L26 63L26 63L26 63L26 64L26 64L25 64L25 64L25 63L25 63L24 64L24 64L24 64L24 64L24 64L24 63L23 63L23 63L23 62L23 62L24 62L24 63L24 63L24 63L24 62L24 62L24 62L23 61L23 61L23 61L23 61L23 61L24 61L24 60L24 60L24 60L24 60L25 60L25 60L25 60L25 60L26 60L26 59L26 59L26 59L26 58L27 58L27 58L28 58L28 58L28 59L28 59L29 60ZM24 59L23 59L23 59L23 58L23 58L24 58L24 59ZM22 61L22 61H22L22 61L22 61L22 61L23 61L23 61L22 61L22 61ZM21 63L21 63L21 63L20 62L21 62L21 62L21 62L21 62L21 62L21 62L21 63L21 63ZM62 62L62 62L62 62L62 62L62 62L62 62L62 62L62 62ZM19 63L19 63L20 63L20 63L20 63L20 64L20 64L20 64L20 64L20 64L19 64L19 64L19 64L19 63ZM25 66L24 66L24 66L24 66L24 66L24 65L24 65L24 65L24 64L25 64L25 64L25 65L25 66ZM26 65L26 65L25 65L25 65L26 64L26 64L26 65L26 65ZM23 68L23 68L23 68L24 68L24 68L23 68ZM28 74L28 74L28 74L28 73L28 73L28 72L28 72L28 72L29 72L28 73L28 73L28 74ZM27 74L26 75L26 74L26 74L26 74L27 74L27 74L27 74ZM22 84L22 84L22 84L21 83L21 83L22 83L22 83L22 83L22 83L22 83L23 83L23 82L23 82L23 82L23 82L23 83L23 83L23 83L22 83L22 83L22 83L22 84ZM22 84L22 84L21 84L21 84L22 84L22 84L22 84ZM20 86L20 86L20 86L20 85L20 85L20 85L20 85L21 86L20 86ZM18 90L17 90L17 91L17 91L16 91L16 91L16 91L16 92L16 92L16 92L16 92L16 92L16 92L16 93L15 93L15 92L15 92L16 92L16 91L16 91L16 91L16 91L16 90L16 90L16 90L16 90L17 90L17 90L17 90L17 90L17 90L18 90L18 89L18 90L18 90L18 90ZM72 90L71 90L71 90L71 90L71 90L72 90L72 90ZM7 98L6 98L6 98L6 98L6 98L6 98L7 98L7 98ZM2 99L2 100L2 100L2 100L2 100L2 100L2 100L2 100L2 99L2 99L2 99ZM1 100L1 100L0 100L0 100L0 100L0 100L0 100L0 100L1 100L1 100L1 100Z"/></mask><path d="M78 8L78 8L78 8L79 8L80 8L81 8L81 8L82 8L82 8L83 7L84 6L84 6V7L84 7L83 8L83 9L83 9L83 10L83 10L83 11L84 12L84 12L84 12L85 12L85 11L85 11L86 11L85 12L85 12L84 12L84 12L84 12L84 12L83 13L83 13L82 13L82 13L82 14L81 14L80 14L80 14L79 14L78 14L78 15L77 16L76 16L76 17L76 18L76 18L76 18L76 18L76 19L75 18L74 18L73 17L71 16L70 16L68 16L67 17L67 17L66 16L66 16L65 16L65 16L65 16L64 16L64 16L64 17L64 17L64 17L65 18L65 18L65 18L66 18L66 18L66 19L67 19L68 20L67 20L67 20L66 20L66 20L66 20L65 20L65 20L65 21L64 21L64 21L64 22L63 22L63 21L63 21L63 21L63 20L63 20L63 19L63 18L63 18L63 18L62 17L62 17L62 16L62 16L63 15L63 15L63 15L64 15L64 14L64 14L65 14L65 13L64 13L64 12L64 12L65 12L65 12L66 12L66 12L67 12L67 12L68 12L68 12L68 12L68 11L68 11L68 10L69 10L69 9L69 8L69 7L70 6L70 6L70 4L70 3L69 2L69 2L69 1L69 1L69 1L69 1L70 0L70 0L70 0L70 0L71 0L71 0L71 1L72 2L74 4L74 5L75 5L76 6L77 7L77 7L78 8L78 8ZM67 1L67 1L67 1L67 0L67 0L67 0L67 1L67 1ZM68 2L68 2L67 2L67 2L68 1L68 2L68 2L68 2L68 2ZM61 18L61 18L61 18L61 18L61 18L61 18L61 17L61 18L61 18ZM68 22L68 22L69 22L68 22L68 23L68 25L68 25L69 26L69 26L69 26L70 27L70 28L70 29L71 30L71 30L71 30L71 30L71 31L71 32L70 33L70 33L70 33L70 34L70 34L70 34L70 34L69 34L69 34L69 34L69 35L69 35L69 36L69 36L69 37L68 37L68 37L67 37L67 37L67 38L67 38L67 39L67 40L67 40L67 41L67 43L67 44L66 44L66 44L66 44L66 45L65 46L65 46L65 46L65 47L65 47L65 48L65 48L66 49L66 49L66 50L66 50L65 50L65 51L65 51L65 52L64 52L64 52L64 52L64 52L63 53L63 53L63 54L62 53L62 53L62 53L62 53L62 52L62 52L63 51L63 51L63 51L63 50L63 50L63 50L63 50H63L62 50L62 50L62 50L62 50L62 51L62 51L62 52L62 52L62 52L62 52L62 52L62 52L61 52L61 52L61 52L60 52L60 52L60 52L60 52L60 53L60 54L59 54L59 54L59 55L58 55L58 55L58 54L58 54L58 53L59 53L58 52L58 52L58 53L57 53L57 53L57 53L57 54L56 54L56 55L55 55L55 55L54 55L54 55L53 55L52 55L52 55L52 54L53 54L52 54L52 54L52 54L52 54L52 54L51 54L51 54L51 54L51 54L51 54L51 54L51 53L51 53L51 53L51 53L51 53L50 53L50 53L50 54L50 54L50 55L51 56L51 56L51 56L51 56L51 56L50 56L49 57L49 57L48 59L47 60L46 60L46 60L45 59L45 59L45 58L44 58L44 58L44 57L44 56L44 56L45 56L45 56L45 55L45 55L45 55L45 55L44 55L44 55L43 55L43 54L43 54L42 54L42 54L41 54L41 54L41 54L40 55L40 55L39 55L39 55L38 56L38 56L38 56L37 56L37 56L36 56L36 56L35 56L35 56L34 56L34 56L33 56L33 57L33 58L33 58L33 58L32 58L31 57L31 57L30 58L30 58L30 58L29 58L29 58L28 58L28 58L28 58L28 56L28 56L28 56L28 56L29 56L29 56L30 56L30 56L30 55L31 55L31 54L32 54L32 54L32 53L33 53L33 53L34 52L34 52L35 51L35 51L36 51L37 50L37 50L37 51L38 51L38 51L38 51L39 51L39 51L40 51L41 50L41 50L42 50L43 50L44 50L45 50L45 50L45 50L45 50L45 50L45 50L46 50L46 51L47 50L47 50L48 50L48 49L48 49L48 48L48 48L48 47L49 47L49 47L50 46L50 45L50 44L50 43L51 42L51 42L52 41L53 41L53 41L53 41L52 42L52 42L51 42L51 43L51 43L51 43L52 44L52 44L52 44L52 45L52 45L53 45L53 45L53 44L53 44L55 43L56 43L56 43L56 42L57 42L58 41L58 41L58 40L58 40L59 39L60 39L61 38L61 38L61 37L61 37L61 36L61 36L62 35L62 35L62 34L63 33L63 33L63 32L63 32L63 32L63 32L63 32L63 31L63 30L63 30L63 29L63 29L62 29L62 29L62 29L62 29L62 29L63 29L63 28L63 28L63 27L63 27L63 26L63 26L63 25L63 25L63 25L64 25L64 25L64 25L64 24L64 24L64 24L64 23L64 23L64 23L65 23L65 23L65 23L65 23L66 23L66 24L66 24L66 25L66 25L66 24L66 24L67 24L67 24L68 24L68 24L68 23L68 23L68 22L68 23L67 23L67 23L66 23L66 22L66 22L66 21L67 21L67 21L67 21L68 22ZM57 40L56 40L56 40L56 39L56 39L56 39L56 39L56 39L56 38L56 38L57 37L57 37L57 37L57 38L57 38L58 38L57 39L57 40ZM37 47L37 48L37 47L37 47L37 47L37 47L38 47L37 47ZM61 54L61 54L61 54L61 54L61 54L61 54L61 54ZM22 56L22 56L22 56L22 56L22 55L22 55L22 55L22 54L22 54L22 55L22 55L22 55L22 56L22 56ZM43 56L43 57L43 57L42 56L42 56L43 56L43 55L43 55L44 55L44 55L43 56L43 56ZM41 55L41 56L41 56L41 56L41 56L41 55L40 55L41 55L41 55L41 55ZM41 56L42 57L42 57L42 57L42 58L42 58L42 58L43 58L42 59L41 59L41 60L41 60L41 61L40 61L40 61L40 60L39 60L39 60L38 60L37 61L37 61L36 62L36 62L36 62L36 62L36 63L36 63L35 63L35 63L35 63L35 63L34 63L34 63L34 62L34 62L34 62L34 61L34 61L34 61L34 61L34 61L34 61L34 60L34 60L33 60L32 61H32L33 60L33 60L34 60L34 59L35 59L35 59L35 58L35 58L35 58L35 58L36 57L36 57L36 58L36 58L37 58L37 58L37 58L38 58L38 58L38 57L38 57L38 56L38 57L39 56L39 56L40 56L40 56L41 56L41 56ZM22 57L21 57L21 57L21 56L22 56L22 57L22 57ZM34 57L34 57L34 57L34 57L34 57L34 57L34 57L34 57ZM33 58L33 58L34 58L34 58L34 58L34 58L33 58L33 58L33 58L33 58L33 58ZM29 60L30 60L30 60L30 60L30 59L30 59L31 59L31 60L31 60L31 60L31 60L30 61L31 61L32 61L32 61L32 62L32 62L32 62L32 62L32 62L32 63L32 63L32 63L31 64L31 65L31 65L30 66L30 66L30 67L30 67L30 68L30 68L30 70L29 69L29 69L28 69L28 70L29 70L28 71L27 71L27 71L27 71L27 71L27 71L27 70L27 70L27 69L27 69L27 69L27 69L28 68L28 68L27 68L27 68L27 68L27 68L26 69L26 69L26 70L27 70L27 70L27 70L27 70L26 70L25 70L25 70L25 69L25 69L26 69L26 69L26 69L25 68L25 68L25 68L25 68L25 67L25 66L25 66L26 66L26 66L26 65L27 65L27 64L27 64L26 64L27 63L26 63L26 62L26 62L26 62L25 61L25 62L25 62L25 62L25 62L25 63L25 63L26 63L26 63L26 63L26 63L26 64L26 64L25 64L25 64L25 63L25 63L24 64L24 64L24 64L24 64L24 64L24 63L23 63L23 63L23 62L23 62L24 62L24 63L24 63L24 63L24 62L24 62L24 62L23 61L23 61L23 61L23 61L23 61L24 61L24 60L24 60L24 60L24 60L25 60L25 60L25 60L25 60L26 60L26 59L26 59L26 59L26 58L27 58L27 58L28 58L28 58L28 59L28 59L29 60ZM24 59L23 59L23 59L23 58L23 58L24 58L24 59ZM22 61L22 61H22L22 61L22 61L22 61L23 61L23 61L22 61L22 61ZM21 63L21 63L21 63L20 62L21 62L21 62L21 62L21 62L21 62L21 62L21 63L21 63ZM62 62L62 62L62 62L62 62L62 62L62 62L62 62L62 62ZM19 63L19 63L20 63L20 63L20 63L20 64L20 64L20 64L20 64L20 64L19 64L19 64L19 64L19 63ZM25 66L24 66L24 66L24 66L24 66L24 65L24 65L24 65L24 64L25 64L25 64L25 65L25 66ZM26 65L26 65L25 65L25 65L26 64L26 64L26 65L26 65ZM23 68L23 68L23 68L24 68L24 68L23 68ZM28 74L28 74L28 74L28 73L28 73L28 72L28 72L28 72L29 72L28 73L28 73L28 74ZM27 74L26 75L26 74L26 74L26 74L27 74L27 74L27 74ZM22 84L22 84L22 84L21 83L21 83L22 83L22 83L22 83L22 83L22 83L23 83L23 82L23 82L23 82L23 82L23 83L23 83L23 83L22 83L22 83L22 83L22 84ZM22 84L22 84L21 84L21 84L22 84L22 84L22 84ZM20 86L20 86L20 86L20 85L20 85L20 85L20 85L21 86L20 86ZM18 90L17 90L17 91L17 91L16 91L16 91L16 91L16 92L16 92L16 92L16 92L16 92L16 92L16 93L15 93L15 92L15 92L16 92L16 91L16 91L16 91L16 91L16 90L16 90L16 90L16 90L17 90L17 90L17 90L17 90L17 90L18 90L18 89L18 90L18 90L18 90ZM72 90L71 90L71 90L71 90L71 90L72 90L72 90ZM7 98L6 98L6 98L6 98L6 98L6 98L7 98L7 98ZM2 99L2 100L2 100L2 100L2 100L2 100L2 100L2 100L2 99L2 99L2 99ZM1 100L1 100L0 100L0 100L0 100L0 100L0 100L0 100L1 100L1 100L1 100Z" fill="var(--fill-0,#71B219)" stroke="var(--stroke-0,white)" mask="url(#path-1-inside-1_0_119)"/></g></svg>