<svg preserveAspectRatio="none" width="100%" height="100%" overflow="visible" style="display: block;" viewBox="0 0 0.13895 0.0934405" fill="none" xmlns="http://www.w3.org/2000/svg">
<g id="JU">
<mask id="path-1-inside-1_0_118" fill="white">
<path d="M0.126963 0.0881045L0.104213 0.0934405L0.0654795 0.0854162L0 0.022688L0.0521063 0L0.13895 0.050712L0.126963 0.0881045Z"/>
</mask>
<path d="M0.126963 0.0881045L0.104213 0.0934405L0.0654795 0.0854162L0 0.022688L0.0521063 0L0.13895 0.050712L0.126963 0.0881045Z" fill="var(--fill-0, #71B219)"/>
<path d="M0.126963 0.0881045L0.241136 0.574895L0.516695 0.510265L0.603097 0.240738L0.126963 0.0881045ZM0.104213 0.0934405L0.00278201 0.583044L0.110894 0.605442L0.218385 0.580231L0.104213 0.0934405ZM0.0654795 0.0854162L-0.280407 0.446474L-0.176649 0.545872L-0.0359512 0.57502L0.0654795 0.0854162ZM0 0.022688L-0.199608 -0.43574L-0.888296 -0.135873L-0.345886 0.383746L0 0.022688ZM0.0521063 0L0.304239 -0.431775L0.0851314 -0.559721L-0.147502 -0.458428L0.0521063 0ZM0.13895 0.050712L0.615083 0.203346L0.737567 -0.178735L0.391083 -0.381063L0.13895 0.050712ZM0.126963 0.0881045L0.012791 -0.398686L-0.00995964 -0.39335L0.104213 0.0934405L0.218385 0.580231L0.241136 0.574895L0.126963 0.0881045ZM0.104213 0.0934405L0.205643 -0.396163L0.16691 -0.404188L0.0654795 0.0854162L-0.0359512 0.57502L0.00278201 0.583044L0.104213 0.0934405ZM0.0654795 0.0854162L0.411366 -0.275641L0.345886 -0.33837L0 0.022688L-0.345886 0.383746L-0.280407 0.446474L0.0654795 0.0854162ZM0 0.022688L0.199608 0.481117L0.251714 0.458428L0.0521063 0L-0.147502 -0.458428L-0.199608 -0.43574L0 0.022688ZM0.0521063 0L-0.200026 0.431775L-0.113182 0.482487L0.13895 0.050712L0.391083 -0.381063L0.304239 -0.431775L0.0521063 0ZM0.13895 0.050712L-0.337183 -0.101922L-0.34917 -0.0645295L0.126963 0.0881045L0.603097 0.240738L0.615083 0.203346L0.13895 0.050712Z" fill="var(--stroke-0, white)" mask="url(#path-1-inside-1_0_118)"/>
</g>
</svg>
