<svg preserveAspectRatio="none" width="100%" height="100%" overflow="visible" style="display: block;" viewBox="0 0 30.8334 39.0019" fill="none" xmlns="http://www.w3.org/2000/svg">
<g id="KE">
<mask id="path-1-inside-1_0_144" fill="white">
<path d="M30.8334 5.81861L30.3589 6.49347L29.7893 7.30275L28.7397 8.791L27.9418 9.57424L27.3392 10.1668L27.2828 10.2738L27.2856 10.9336L27.2924 12.5466L27.3048 15.7714L27.3172 18.9948L27.3296 22.2182L27.3351 23.83L27.3378 24.3717L27.8674 25.0493L28.3847 25.7119L29.0684 26.587L29.4358 27.0561L29.4963 27.2124L29.477 27.5266L28.9143 28.1836L28.4535 28.4826L27.8331 28.6253L27.6474 28.5978L27.4039 28.5046L27.3089 28.6623L27.2374 28.9079L27.0998 28.8557L26.9966 28.783L27.0585 29.2192L27.1218 29.4346L27.0269 29.7226L26.7256 29.9764L26.6981 30.1917L26.0461 30.7541L25.1202 30.8158L24.6332 31.0957L24.4172 31.3247L24.2521 31.8254L24.3099 32.5922L24.0513 33.182L24.0031 33.4782L23.5244 33.8609L23.3126 34.2121L23.1557 34.5701L23.0195 34.7265L22.8572 35.5275L22.6343 36.0144L22.5737 36.1763L22.5187 36.3217L22.3468 36.607L22.234 36.8045L22.1528 36.9334L21.5888 38.1817L21.1486 38.7454L20.8032 38.681L20.5735 38.8991L20.5487 39.0019L20.4263 38.9443L20.1388 38.7372L19.5459 38.3134L18.953 37.8895L18.36 37.4656L17.7671 37.0418L17.1742 36.618L16.5813 36.1941L15.9883 35.7703L15.3954 35.3464L15.0474 35.0982L14.8947 34.9514L14.7736 34.6592L14.7158 34.5865L14.5576 34.4946L14.3719 34.474L14.3182 34.4178L14.3196 34.2766L14.3829 34.0735L14.6016 33.6854L14.6251 33.4563L14.5824 33.197L14.515 32.7814L14.4558 32.6868L14.0624 32.4687L13.2397 32.0133L12.417 31.5579L11.5944 31.1025L10.7704 30.6471L9.94766 30.1917L9.12497 29.7363L8.30235 29.281L7.47966 28.8256L6.65562 28.3702L5.83301 27.9148L5.00897 27.4594L4.18628 27.004L3.36358 26.5486L2.54097 26.0932L1.71827 25.6378L0.894234 25.1824L0.584737 25.0109L0.30681 24.8669H0.0124269L0 24.2154L0.0936217 22.557L0.0825382 21.1003L0.166504 20.3706L0.529655 19.9084L0.697503 19.5723L0.817238 19.1032L1.00708 18.7205L1.43766 18.4091L1.51466 18.2376L1.97143 17.7178L2.24516 17.0498L2.45154 16.8221L2.71016 16.6122L2.89178 16.5011L3.19162 16.39L3.42689 16.3269L3.46954 16.2735L3.4902 16.1651L3.41178 15.7508L3.5122 15.615L3.67173 15.338L3.85469 15.0801L4.01977 14.9155L4.11197 14.7468L4.15462 14.456L4.16151 14.2489L4.16016 13.9114L4.10785 13.1447L3.91389 12.5027L3.79416 11.784L3.88224 11.5481L3.7295 11.1269L3.65385 11.1036L3.53008 11.0117L3.37046 10.614L3.25081 10.2518L3.1765 10.1613L2.65928 9.84444L2.40201 9.09687L2.11308 8.93093L1.95623 8.18746L1.926 7.97623L2.08974 7.23418L2.0732 7.06407L1.89989 6.90772L1.41423 6.74723L1.02077 6.44136L1.07174 6.33436L1.10062 6.22323L0.892891 6.14918L0.290269 4.8804L1.06485 4.11776L1.85035 3.34548L2.85324 2.36751L3.77358 1.46907L4.56874 0.692697L5.27858 0L5.2607 0.131691L5.26347 0.307252L5.35147 0.414245L5.49731 0.488296L5.6995 0.410143L5.87701 0.301768L6.05031 0.278452L7.11651 0.56649L7.29535 0.817524L7.28293 1.08773L7.3297 1.28388L7.24716 1.48142L7.15916 2.07671L7.18662 2.62261L7.50443 3.02727L7.79058 3.3441L8.01754 3.78991L8.18539 3.92709L8.41655 3.99841L9.14974 4.01763L10.2352 4.04643L11.2794 4.07385L11.3742 4.08481L11.5957 4.14518L12.5574 4.74595L13.4378 5.29737L14.1834 5.77608L14.907 6.24106L15.6101 6.69373L16.1548 7.06821L16.6927 7.18203L17.5663 7.23691L18.1702 7.25612L18.7287 7.41385L19.5596 7.56061L20.1787 7.63608L20.5529 7.7211L21.5915 7.80754L21.7635 7.75676L22.2216 7.34114L22.7347 6.66493L22.9356 6.29322L23.5987 5.92284L24.7639 5.40713L25.5852 5.04223L26.4986 4.676L26.9141 4.99288L27.4864 5.50177L27.7422 5.75276L27.9472 5.86386L28.2581 5.93795L28.6365 5.93933L28.8428 5.92832L29.2651 5.86252L30.2529 5.80216L30.8334 5.81861ZM27.3983 29.296L27.2552 29.3289L27.3296 29.1095L27.7532 28.8283L27.9252 28.8914L27.9582 28.9545L27.9486 29.0135L27.8771 29.0711L27.3983 29.296Z"/>
</mask>
<path d="M30.8334 5.81861L30.3589 6.49347L29.7893 7.30275L28.7397 8.791L27.9418 9.57424L27.3392 10.1668L27.2828 10.2738L27.2856 10.9336L27.2924 12.5466L27.3048 15.7714L27.3172 18.9948L27.3296 22.2182L27.3351 23.83L27.3378 24.3717L27.8674 25.0493L28.3847 25.7119L29.0684 26.587L29.4358 27.0561L29.4963 27.2124L29.477 27.5266L28.9143 28.1836L28.4535 28.4826L27.8331 28.6253L27.6474 28.5978L27.4039 28.5046L27.3089 28.6623L27.2374 28.9079L27.0998 28.8557L26.9966 28.783L27.0585 29.2192L27.1218 29.4346L27.0269 29.7226L26.7256 29.9764L26.6981 30.1917L26.0461 30.7541L25.1202 30.8158L24.6332 31.0957L24.4172 31.3247L24.2521 31.8254L24.3099 32.5922L24.0513 33.182L24.0031 33.4782L23.5244 33.8609L23.3126 34.2121L23.1557 34.5701L23.0195 34.7265L22.8572 35.5275L22.6343 36.0144L22.5737 36.1763L22.5187 36.3217L22.3468 36.607L22.234 36.8045L22.1528 36.9334L21.5888 38.1817L21.1486 38.7454L20.8032 38.681L20.5735 38.8991L20.5487 39.0019L20.4263 38.9443L20.1388 38.7372L19.5459 38.3134L18.953 37.8895L18.36 37.4656L17.7671 37.0418L17.1742 36.618L16.5813 36.1941L15.9883 35.7703L15.3954 35.3464L15.0474 35.0982L14.8947 34.9514L14.7736 34.6592L14.7158 34.5865L14.5576 34.4946L14.3719 34.474L14.3182 34.4178L14.3196 34.2766L14.3829 34.0735L14.6016 33.6854L14.6251 33.4563L14.5824 33.197L14.515 32.7814L14.4558 32.6868L14.0624 32.4687L13.2397 32.0133L12.417 31.5579L11.5944 31.1025L10.7704 30.6471L9.94766 30.1917L9.12497 29.7363L8.30235 29.281L7.47966 28.8256L6.65562 28.3702L5.83301 27.9148L5.00897 27.4594L4.18628 27.004L3.36358 26.5486L2.54097 26.0932L1.71827 25.6378L0.894234 25.1824L0.584737 25.0109L0.30681 24.8669H0.0124269L0 24.2154L0.0936217 22.557L0.0825382 21.1003L0.166504 20.3706L0.529655 19.9084L0.697503 19.5723L0.817238 19.1032L1.00708 18.7205L1.43766 18.4091L1.51466 18.2376L1.97143 17.7178L2.24516 17.0498L2.45154 16.8221L2.71016 16.6122L2.89178 16.5011L3.19162 16.39L3.42689 16.3269L3.46954 16.2735L3.4902 16.1651L3.41178 15.7508L3.5122 15.615L3.67173 15.338L3.85469 15.0801L4.01977 14.9155L4.11197 14.7468L4.15462 14.456L4.16151 14.2489L4.16016 13.9114L4.10785 13.1447L3.91389 12.5027L3.79416 11.784L3.88224 11.5481L3.7295 11.1269L3.65385 11.1036L3.53008 11.0117L3.37046 10.614L3.25081 10.2518L3.1765 10.1613L2.65928 9.84444L2.40201 9.09687L2.11308 8.93093L1.95623 8.18746L1.926 7.97623L2.08974 7.23418L2.0732 7.06407L1.89989 6.90772L1.41423 6.74723L1.02077 6.44136L1.07174 6.33436L1.10062 6.22323L0.892891 6.14918L0.290269 4.8804L1.06485 4.11776L1.85035 3.34548L2.85324 2.36751L3.77358 1.46907L4.56874 0.692697L5.27858 0L5.2607 0.131691L5.26347 0.307252L5.35147 0.414245L5.49731 0.488296L5.6995 0.410143L5.87701 0.301768L6.05031 0.278452L7.11651 0.56649L7.29535 0.817524L7.28293 1.08773L7.3297 1.28388L7.24716 1.48142L7.15916 2.07671L7.18662 2.62261L7.50443 3.02727L7.79058 3.3441L8.01754 3.78991L8.18539 3.92709L8.41655 3.99841L9.14974 4.01763L10.2352 4.04643L11.2794 4.07385L11.3742 4.08481L11.5957 4.14518L12.5574 4.74595L13.4378 5.29737L14.1834 5.77608L14.907 6.24106L15.6101 6.69373L16.1548 7.06821L16.6927 7.18203L17.5663 7.23691L18.1702 7.25612L18.7287 7.41385L19.5596 7.56061L20.1787 7.63608L20.5529 7.7211L21.5915 7.80754L21.7635 7.75676L22.2216 7.34114L22.7347 6.66493L22.9356 6.29322L23.5987 5.92284L24.7639 5.40713L25.5852 5.04223L26.4986 4.676L26.9141 4.99288L27.4864 5.50177L27.7422 5.75276L27.9472 5.86386L28.2581 5.93795L28.6365 5.93933L28.8428 5.92832L29.2651 5.86252L30.2529 5.80216L30.8334 5.81861ZM27.3983 29.296L27.2552 29.3289L27.3296 29.1095L27.7532 28.8283L27.9252 28.8914L27.9582 28.9545L27.9486 29.0135L27.8771 29.0711L27.3983 29.296Z" fill="var(--fill-0, #71B219)" stroke="var(--stroke-0, white)" mask="url(#path-1-inside-1_0_144)"/>
</g>
</svg>
