<svg preserveAspectRatio="none" width="100%" height="100%" overflow="visible" style="display: block;" viewBox="0 0 31 39" fill="none" xmlns="http://www.w3.org/2000/svg"><g id="KE"><mask id="path-1-inside-1_0_144" fill="white"><path d="M31 6L30 6L30 7L29 9L28 10L27 10L27 10L27 11L27 12L27 16L27 19L27 22L27 24L27 24L28 25L28 26L29 27L29 27L30 27L30 28L29 28L28 28L28 29L28 29L27 28L27 29L27 29L27 29L27 29L27 29L27 29L27 30L27 30L27 30L26 31L25 31L25 31L24 31L24 32L24 33L24 33L24 34L24 34L23 34L23 35L23 35L23 36L23 36L23 36L22 36L22 37L22 37L22 37L22 38L21 39L21 39L21 39L20 39L20 39L20 39L20 38L19 38L18 38L18 37L17 37L17 36L16 36L15 35L15 35L15 35L15 35L15 35L15 34L14 34L14 34L14 34L14 34L15 34L15 34L15 33L14 33L14 33L14 32L13 32L12 32L12 31L11 31L10 30L9 30L8 29L8 29L7 28L6 28L5 28L4 27L3 26L2 26L2 26L1 25L1 25L0 25H0L0 24L0 23L0 21L0 20L0 20L1 20L1 19L1 19L1 18L2 18L2 18L2 17L2 17L3 17L3 16L3 16L3 16L4 16L4 16L3 16L4 16L4 15L4 15L4 15L4 15L4 14L4 14L4 14L4 13L4 12L4 12L4 12L4 11L4 11L4 11L3 11L3 10L3 10L3 10L2 9L2 9L2 8L2 8L2 7L2 7L2 7L1 7L1 6L1 6L1 6L1 6L0 5L1 4L2 3L3 2L4 2L5 1L5 0L5 0L5 0L5 0L6 0L6 0L6 0L6 0L7 1L7 1L7 1L7 1L7 2L7 2L7 3L8 3L8 3L8 4L8 4L8 4L9 4L10 4L11 4L11 4L12 4L13 5L13 5L14 6L15 6L16 7L16 7L17 7L18 7L18 7L19 7L20 8L20 8L21 8L22 8L22 8L22 7L23 7L23 6L24 6L25 5L26 5L26 5L27 5L28 6L28 6L28 6L28 6L29 6L29 6L29 6L30 6L31 6ZM27 29L27 29L27 29L28 29L28 29L28 29L28 29L28 29L27 29Z"/></mask><path d="M31 6L30 6L30 7L29 9L28 10L27 10L27 10L27 11L27 12L27 16L27 19L27 22L27 24L27 24L28 25L28 26L29 27L29 27L30 27L30 28L29 28L28 28L28 29L28 29L27 28L27 29L27 29L27 29L27 29L27 29L27 29L27 30L27 30L27 30L26 31L25 31L25 31L24 31L24 32L24 33L24 33L24 34L24 34L23 34L23 35L23 35L23 36L23 36L23 36L22 36L22 37L22 37L22 37L22 38L21 39L21 39L21 39L20 39L20 39L20 39L20 38L19 38L18 38L18 37L17 37L17 36L16 36L15 35L15 35L15 35L15 35L15 35L15 34L14 34L14 34L14 34L14 34L15 34L15 34L15 33L14 33L14 33L14 32L13 32L12 32L12 31L11 31L10 30L9 30L8 29L8 29L7 28L6 28L5 28L4 27L3 26L2 26L2 26L1 25L1 25L0 25H0L0 24L0 23L0 21L0 20L0 20L1 20L1 19L1 19L1 18L2 18L2 18L2 17L2 17L3 17L3 16L3 16L3 16L4 16L4 16L3 16L4 16L4 15L4 15L4 15L4 15L4 14L4 14L4 14L4 13L4 12L4 12L4 12L4 11L4 11L4 11L3 11L3 10L3 10L3 10L2 9L2 9L2 8L2 8L2 7L2 7L2 7L1 7L1 6L1 6L1 6L1 6L0 5L1 4L2 3L3 2L4 2L5 1L5 0L5 0L5 0L5 0L6 0L6 0L6 0L6 0L7 1L7 1L7 1L7 1L7 2L7 2L7 3L8 3L8 3L8 4L8 4L8 4L9 4L10 4L11 4L11 4L12 4L13 5L13 5L14 6L15 6L16 7L16 7L17 7L18 7L18 7L19 7L20 8L20 8L21 8L22 8L22 8L22 7L23 7L23 6L24 6L25 5L26 5L26 5L27 5L28 6L28 6L28 6L28 6L29 6L29 6L29 6L30 6L31 6ZM27 29L27 29L27 29L28 29L28 29L28 29L28 29L28 29L27 29Z" fill="var(--fill-0,#71B219)" stroke="var(--stroke-0,white)" mask="url(#path-1-inside-1_0_144)"/></g></svg>