<svg preserveAspectRatio="none" width="100%" height="100%" overflow="visible" style="display: block;" viewBox="0 0 42.5351 20.5736" fill="none" xmlns="http://www.w3.org/2000/svg">
<g id="KG">
<mask id="path-1-inside-1_0_46" fill="white">
<path d="M42.392 5.4798L42.469 5.79119L42.5351 6.15332L42.4938 6.23834L42.4194 6.29594L41.2364 6.3851L40.9695 6.48523L40.6834 6.98453L39.6708 7.38505L39.0931 7.59079L38.8592 7.58259L38.2979 7.91039L36.731 8.72653L35.9606 9.24091L35.5741 9.45628L35.2631 9.69082L35.2108 9.92812L35.1998 10.1517L34.34 11.201L33.6948 11.3272L33.1501 11.3026L32.7786 11.4617L32.2476 11.6222L31.0975 11.5124L30.7055 11.5302L29.9502 11.3862L29.6448 11.4617L29.3229 11.6743L28.8758 12.5069L28.6942 12.7016L28.6103 12.8909L28.5415 13.2942L28.3709 13.7208L28.1522 14.0568L27.994 14.3682L27.6706 14.6686L27.3708 14.8579L27.1383 14.4628L26.9374 14.5753L26.7448 14.7358L26.3817 14.6796L26.1574 14.7605L25.6456 15.1034L24.8946 15.0911L24.812 14.9731L24.6634 14.0294L24.5327 13.5809L24.424 13.4807L24.2892 13.4698L23.2093 14.2132L22.7085 14.3449L22.2972 14.3682L21.7593 14.146L21.6424 14.2008L21.5502 14.3202L21.5117 14.4724L21.6685 14.8935L21.6245 14.9758L21.3824 14.969L21.044 15.0664L20.7854 15.2598L20.0094 15.9374L19.356 16.1637L18.7479 16.2529L18.4989 16.3283L18.3875 16.4092L18.1839 16.7316L17.9748 17.2364L17.8661 17.4819L17.7849 17.6245L17.8015 17.8111L17.9666 18.0511L18.0917 18.5902L18.0629 18.7301L17.9294 18.955L17.7368 19.1759L17.3227 19.3089L16.998 19.3762L16.782 19.3323L16.3762 19.3172L16.0557 19.405L15.8576 19.5559L15.4669 19.7438L14.9812 19.8068L14.3636 19.8315L14.0664 19.8151L13.1695 19.6889L12.8737 19.7328L12.5917 19.8302L12.08 19.9331L11.8076 20.2458L11.6645 20.5325L11.5874 20.5736L11.2683 20.3103L11.0248 20.0634L10.8652 19.8576L10.6643 19.8631L9.95035 20.2362L9.84447 20.2239L9.64085 20.0812L9.67797 19.7287L9.6642 19.5037L9.43447 19.3844L8.94746 19.3542L8.78239 19.2266L8.79204 19.036L8.83604 18.8535L8.78104 18.7123L8.65442 18.6053L8.39858 18.6341L8.10554 18.7795L7.89092 18.9455L7.62131 19.0237L7.29393 19.0538L7.09031 19.154L6.85781 19.5586L6.064 19.6436L5.80816 19.5517L5.59908 19.2651L5.32527 18.8014L5.17262 18.7438L4.91392 18.6862L4.49157 18.7136L3.92346 18.9084L3.78584 18.7479L3.63865 18.7013L3.50523 18.8344L3.36904 18.8192L2.80773 18.8563L2.09654 18.8385L1.69073 18.7479L1.42792 18.7534L0.90515 18.9605L0.628651 18.9592L0.265499 18.9962L0.198075 18.2953L0 17.8207L0.0605392 17.4915L0.192533 17.0388L0.302612 16.7837L0.526884 16.8921L0.784155 17.0786L0.95469 17.0292L1.00011 16.8756L0.934034 16.674L0.924462 16.5231L1.02077 16.3242L1.16242 16.139L2.07043 15.8345L2.8477 15.6123L3.25207 15.7605L4.03489 16.1006L4.43792 16.2762L4.71862 16.3791L4.96489 16.877L5.12577 16.8537L5.28816 16.7535L5.38447 16.6314L5.46289 16.2076L5.82738 15.9689L6.62942 15.6864L6.68585 15.5204L6.67342 15.4285L6.80004 15.3476L7.20173 15.2653L8.01343 15.1871L8.2885 15.2461L8.60354 15.4134L8.84704 15.5794L9.0782 15.5739L9.26939 15.5396L9.35193 15.5862L9.41247 15.733L9.51155 15.8647L9.82239 15.685L10.1031 15.4532L10.3246 15.4203L10.5281 15.3325L10.5873 15.1775L10.7469 14.9196L11.205 14.4272L11.443 14.3476H11.5971L11.6053 14.4272L11.6796 14.4999L12.08 14.6138L12.2024 14.4834L12.267 14.3037L12.1267 14.0184L12.124 13.8991L12.1762 13.7894L12.2505 13.7235L12.8902 13.9951L13.0319 13.9896L13.3236 13.8374L13.5904 13.5699L13.6867 13.3587L14.995 12.6728L15.0872 12.548L15.0693 12.4575L14.5204 12.297L14.2728 12.3861H14.0444L13.9055 12.2847L13.2396 12.2462L13.0939 12.1749L12.6522 11.6784L12.3482 11.4891L12.1033 11.3643L11.8378 11.3821L11.5214 11.5124L11.4237 11.4534L11.3962 11.2449L11.3976 10.9829L11.3329 10.7017L11.1444 10.6359L10.901 10.747L10.5378 10.6332L10.2283 10.592L10.1484 9.99807L10.0233 9.74432L9.89535 9.47821L9.7605 9.4014L9.54043 9.26837L9.52666 8.95425L9.47989 8.86509L9.40147 8.82256L9.2955 8.85822L9.15931 9.01733L9.22673 9.36435L9.17451 9.71141L9.09466 9.88559L8.94058 10.0145L8.7645 10.0173L8.45912 9.84172L8.41092 10.8924L8.35181 10.9569L7.98723 10.8087L7.69562 10.8718L7.26085 10.8073L6.93481 10.6345L6.68996 10.5865L6.29516 10.4398L5.99389 10.2477L5.80816 9.54268L5.63208 9.2903L5.46558 9.23681L4.79293 9.48097L4.54666 9.29168L4.09265 9.05028L3.74873 8.95974L3.65654 8.82943L3.67173 8.66893L4.73096 7.88021L5.14785 7.33704L5.40924 7.1066L5.78339 6.95435L6.075 6.86519L6.22362 6.36455L6.28004 6.30695L6.48777 6.2699L6.95823 6.06416L7.71628 5.62384L7.73139 5.50315L7.65431 5.39888L7.33658 5.17254L6.97335 4.99288L6.75327 5.08615L6.62808 5.17807L6.42035 4.94487V4.70484L6.65008 4.29332L6.8427 4.08758L6.92381 3.68978L7.19619 3.42368L7.481 3.00123L7.82627 2.65555L8.46458 2.39631L8.82093 2.48137L9.1552 2.42101L9.67251 2.21112L9.7715 2.19744L9.98889 2.19467L11.3206 2.51565L11.7608 2.53072L12.7926 2.94773L13.2672 3.03823L13.6029 3.15619L13.7542 3.3359L13.9963 3.55675L15.2922 3.73508L15.6485 3.85304L15.7764 4.04643L16.1465 4.29194L16.4616 4.3482L16.1864 3.38801L16.2965 2.81604L16.7064 1.24822L16.921 1.01092L17.3324 0.801073L17.9789 0.566532L18.2238 0.238685L18.7534 0.271587L18.9832 0.242787L19.1414 0.183807L19.2281 0L19.8251 0.3196L20.8238 0.967047L21.5777 1.37715L22.4664 1.76398L23.6963 2.11648L24.7363 2.2331L24.9151 2.14942L25.332 1.61307L25.5288 1.58976L25.8837 1.63643L26.987 1.66108L28.1109 1.68716L28.6405 1.63505L29.7906 1.41147L29.9598 1.40046L30.2267 1.41558L30.9146 1.72007L31.4291 1.76259L31.7785 1.76121L31.9821 1.78591L32.4086 1.77494L33.1005 1.81061L33.9562 2.00815L34.9866 1.97248L35.3168 1.93543L35.8904 1.9711L36.3458 2.15901L36.9222 2.35793L37.284 2.44156L37.5261 2.48409L37.9581 2.4992L38.2167 2.43746L38.3639 2.52386L38.5098 3.00943L38.8675 3.32765L39.1467 3.62808L39.3806 3.96003L39.6186 4.09582L40.0382 4.09993L40.8291 4.19457L41.2831 4.32626L41.8637 4.89824L42.392 5.4798ZM7.63231 17.1623L7.66808 17.091L7.52643 16.7247L7.71762 16.3818L7.33927 16.3242L7.14531 16.2227L6.92801 15.8757L6.85647 15.8592L6.74362 15.9539L6.68308 16.1815L6.73673 16.4271L6.89081 16.5931L6.99266 16.6479L7.00777 16.6589L7.00366 16.7398L6.87981 17.1458L7.08208 17.198L7.43701 17.2048L7.63231 17.1623ZM9.84581 16.8742L9.88435 16.6479L9.79082 16.6589L9.67939 16.7206L9.46612 16.7823L9.41935 16.8948L9.56243 17.0375L9.74405 17.0896L9.84581 16.8742ZM5.68431 17.4984L5.67062 17.3955L5.53854 17.3475L5.16431 17.2926L4.89746 17.213L4.8397 17.2117L4.86447 17.3104L4.97858 17.4846L5.13542 17.6712L5.3377 17.6918L5.68431 17.4984Z"/>
</mask>
<path d="M42.392 5.4798L42.469 5.79119L42.5351 6.15332L42.4938 6.23834L42.4194 6.29594L41.2364 6.3851L40.9695 6.48523L40.6834 6.98453L39.6708 7.38505L39.0931 7.59079L38.8592 7.58259L38.2979 7.91039L36.731 8.72653L35.9606 9.24091L35.5741 9.45628L35.2631 9.69082L35.2108 9.92812L35.1998 10.1517L34.34 11.201L33.6948 11.3272L33.1501 11.3026L32.7786 11.4617L32.2476 11.6222L31.0975 11.5124L30.7055 11.5302L29.9502 11.3862L29.6448 11.4617L29.3229 11.6743L28.8758 12.5069L28.6942 12.7016L28.6103 12.8909L28.5415 13.2942L28.3709 13.7208L28.1522 14.0568L27.994 14.3682L27.6706 14.6686L27.3708 14.8579L27.1383 14.4628L26.9374 14.5753L26.7448 14.7358L26.3817 14.6796L26.1574 14.7605L25.6456 15.1034L24.8946 15.0911L24.812 14.9731L24.6634 14.0294L24.5327 13.5809L24.424 13.4807L24.2892 13.4698L23.2093 14.2132L22.7085 14.3449L22.2972 14.3682L21.7593 14.146L21.6424 14.2008L21.5502 14.3202L21.5117 14.4724L21.6685 14.8935L21.6245 14.9758L21.3824 14.969L21.044 15.0664L20.7854 15.2598L20.0094 15.9374L19.356 16.1637L18.7479 16.2529L18.4989 16.3283L18.3875 16.4092L18.1839 16.7316L17.9748 17.2364L17.8661 17.4819L17.7849 17.6245L17.8015 17.8111L17.9666 18.0511L18.0917 18.5902L18.0629 18.7301L17.9294 18.955L17.7368 19.1759L17.3227 19.3089L16.998 19.3762L16.782 19.3323L16.3762 19.3172L16.0557 19.405L15.8576 19.5559L15.4669 19.7438L14.9812 19.8068L14.3636 19.8315L14.0664 19.8151L13.1695 19.6889L12.8737 19.7328L12.5917 19.8302L12.08 19.9331L11.8076 20.2458L11.6645 20.5325L11.5874 20.5736L11.2683 20.3103L11.0248 20.0634L10.8652 19.8576L10.6643 19.8631L9.95035 20.2362L9.84447 20.2239L9.64085 20.0812L9.67797 19.7287L9.6642 19.5037L9.43447 19.3844L8.94746 19.3542L8.78239 19.2266L8.79204 19.036L8.83604 18.8535L8.78104 18.7123L8.65442 18.6053L8.39858 18.6341L8.10554 18.7795L7.89092 18.9455L7.62131 19.0237L7.29393 19.0538L7.09031 19.154L6.85781 19.5586L6.064 19.6436L5.80816 19.5517L5.59908 19.2651L5.32527 18.8014L5.17262 18.7438L4.91392 18.6862L4.49157 18.7136L3.92346 18.9084L3.78584 18.7479L3.63865 18.7013L3.50523 18.8344L3.36904 18.8192L2.80773 18.8563L2.09654 18.8385L1.69073 18.7479L1.42792 18.7534L0.90515 18.9605L0.628651 18.9592L0.265499 18.9962L0.198075 18.2953L0 17.8207L0.0605392 17.4915L0.192533 17.0388L0.302612 16.7837L0.526884 16.8921L0.784155 17.0786L0.95469 17.0292L1.00011 16.8756L0.934034 16.674L0.924462 16.5231L1.02077 16.3242L1.16242 16.139L2.07043 15.8345L2.8477 15.6123L3.25207 15.7605L4.03489 16.1006L4.43792 16.2762L4.71862 16.3791L4.96489 16.877L5.12577 16.8537L5.28816 16.7535L5.38447 16.6314L5.46289 16.2076L5.82738 15.9689L6.62942 15.6864L6.68585 15.5204L6.67342 15.4285L6.80004 15.3476L7.20173 15.2653L8.01343 15.1871L8.2885 15.2461L8.60354 15.4134L8.84704 15.5794L9.0782 15.5739L9.26939 15.5396L9.35193 15.5862L9.41247 15.733L9.51155 15.8647L9.82239 15.685L10.1031 15.4532L10.3246 15.4203L10.5281 15.3325L10.5873 15.1775L10.7469 14.9196L11.205 14.4272L11.443 14.3476H11.5971L11.6053 14.4272L11.6796 14.4999L12.08 14.6138L12.2024 14.4834L12.267 14.3037L12.1267 14.0184L12.124 13.8991L12.1762 13.7894L12.2505 13.7235L12.8902 13.9951L13.0319 13.9896L13.3236 13.8374L13.5904 13.5699L13.6867 13.3587L14.995 12.6728L15.0872 12.548L15.0693 12.4575L14.5204 12.297L14.2728 12.3861H14.0444L13.9055 12.2847L13.2396 12.2462L13.0939 12.1749L12.6522 11.6784L12.3482 11.4891L12.1033 11.3643L11.8378 11.3821L11.5214 11.5124L11.4237 11.4534L11.3962 11.2449L11.3976 10.9829L11.3329 10.7017L11.1444 10.6359L10.901 10.747L10.5378 10.6332L10.2283 10.592L10.1484 9.99807L10.0233 9.74432L9.89535 9.47821L9.7605 9.4014L9.54043 9.26837L9.52666 8.95425L9.47989 8.86509L9.40147 8.82256L9.2955 8.85822L9.15931 9.01733L9.22673 9.36435L9.17451 9.71141L9.09466 9.88559L8.94058 10.0145L8.7645 10.0173L8.45912 9.84172L8.41092 10.8924L8.35181 10.9569L7.98723 10.8087L7.69562 10.8718L7.26085 10.8073L6.93481 10.6345L6.68996 10.5865L6.29516 10.4398L5.99389 10.2477L5.80816 9.54268L5.63208 9.2903L5.46558 9.23681L4.79293 9.48097L4.54666 9.29168L4.09265 9.05028L3.74873 8.95974L3.65654 8.82943L3.67173 8.66893L4.73096 7.88021L5.14785 7.33704L5.40924 7.1066L5.78339 6.95435L6.075 6.86519L6.22362 6.36455L6.28004 6.30695L6.48777 6.2699L6.95823 6.06416L7.71628 5.62384L7.73139 5.50315L7.65431 5.39888L7.33658 5.17254L6.97335 4.99288L6.75327 5.08615L6.62808 5.17807L6.42035 4.94487V4.70484L6.65008 4.29332L6.8427 4.08758L6.92381 3.68978L7.19619 3.42368L7.481 3.00123L7.82627 2.65555L8.46458 2.39631L8.82093 2.48137L9.1552 2.42101L9.67251 2.21112L9.7715 2.19744L9.98889 2.19467L11.3206 2.51565L11.7608 2.53072L12.7926 2.94773L13.2672 3.03823L13.6029 3.15619L13.7542 3.3359L13.9963 3.55675L15.2922 3.73508L15.6485 3.85304L15.7764 4.04643L16.1465 4.29194L16.4616 4.3482L16.1864 3.38801L16.2965 2.81604L16.7064 1.24822L16.921 1.01092L17.3324 0.801073L17.9789 0.566532L18.2238 0.238685L18.7534 0.271587L18.9832 0.242787L19.1414 0.183807L19.2281 0L19.8251 0.3196L20.8238 0.967047L21.5777 1.37715L22.4664 1.76398L23.6963 2.11648L24.7363 2.2331L24.9151 2.14942L25.332 1.61307L25.5288 1.58976L25.8837 1.63643L26.987 1.66108L28.1109 1.68716L28.6405 1.63505L29.7906 1.41147L29.9598 1.40046L30.2267 1.41558L30.9146 1.72007L31.4291 1.76259L31.7785 1.76121L31.9821 1.78591L32.4086 1.77494L33.1005 1.81061L33.9562 2.00815L34.9866 1.97248L35.3168 1.93543L35.8904 1.9711L36.3458 2.15901L36.9222 2.35793L37.284 2.44156L37.5261 2.48409L37.9581 2.4992L38.2167 2.43746L38.3639 2.52386L38.5098 3.00943L38.8675 3.32765L39.1467 3.62808L39.3806 3.96003L39.6186 4.09582L40.0382 4.09993L40.8291 4.19457L41.2831 4.32626L41.8637 4.89824L42.392 5.4798ZM7.63231 17.1623L7.66808 17.091L7.52643 16.7247L7.71762 16.3818L7.33927 16.3242L7.14531 16.2227L6.92801 15.8757L6.85647 15.8592L6.74362 15.9539L6.68308 16.1815L6.73673 16.4271L6.89081 16.5931L6.99266 16.6479L7.00777 16.6589L7.00366 16.7398L6.87981 17.1458L7.08208 17.198L7.43701 17.2048L7.63231 17.1623ZM9.84581 16.8742L9.88435 16.6479L9.79082 16.6589L9.67939 16.7206L9.46612 16.7823L9.41935 16.8948L9.56243 17.0375L9.74405 17.0896L9.84581 16.8742ZM5.68431 17.4984L5.67062 17.3955L5.53854 17.3475L5.16431 17.2926L4.89746 17.213L4.8397 17.2117L4.86447 17.3104L4.97858 17.4846L5.13542 17.6712L5.3377 17.6918L5.68431 17.4984Z" fill="var(--fill-0, #71B219)" stroke="var(--stroke-0, white)" mask="url(#path-1-inside-1_0_46)"/>
</g>
</svg>
