<svg preserveAspectRatio="none" width="100%" height="100%" overflow="visible" style="display: block;" viewBox="0 0 42 21" fill="none" xmlns="http://www.w3.org/2000/svg"><g id="KG"><mask id="path-1-inside-1_0_46" fill="white"><path d="M42 6L42 6L42 6L42 6L42 6L41 6L41 6L41 7L40 7L39 8L39 8L38 8L37 9L36 9L36 10L35 10L35 10L35 10L34 11L34 11L33 11L33 12L32 12L31 12L31 12L30 11L30 12L29 12L29 12L29 13L29 13L28 13L28 14L28 14L28 14L28 15L27 15L27 14L27 15L27 15L26 15L26 15L26 15L25 15L25 15L25 14L24 14L24 14L24 14L23 14L23 14L22 14L22 14L22 14L22 14L22 14L22 15L22 15L21 15L21 15L21 15L20 16L19 16L19 16L18 16L18 16L18 17L18 17L18 18L18 18L18 18L18 18L18 19L18 19L18 19L18 19L17 19L17 19L17 19L16 19L16 19L16 20L16 20L15 20L14 20L14 20L13 20L13 20L13 20L12 20L12 20L12 20L12 21L11 20L11 20L11 20L11 20L10 20L10 20L10 20L10 20L10 20L9 19L9 19L9 19L9 19L9 19L9 19L9 19L8 19L8 19L8 19L8 19L7 19L7 19L7 20L6 20L6 20L6 19L5 19L5 19L5 19L4 19L4 19L4 19L4 19L4 19L3 19L3 19L2 19L2 19L1 19L1 19L1 19L0 19L0 18L0 18L0 18L0 17L0 17L0 17L1 17L1 17L1 17L1 17L1 16L1 16L1 16L2 16L3 16L3 16L4 16L4 16L5 16L5 17L5 17L5 17L5 17L6 16L6 16L7 16L7 16L7 15L7 15L7 15L8 15L8 15L9 15L9 16L9 16L9 16L9 16L9 16L10 16L10 16L10 16L10 15L10 15L11 15L11 15L11 14L11 14H12L12 14L12 14L12 15L12 14L12 14L12 14L12 14L12 14L12 14L13 14L13 14L13 14L14 14L14 13L15 13L15 12L15 12L14 12L14 12H14L14 12L13 12L13 12L13 12L12 12L12 11L12 11L12 12L11 12L11 11L11 11L11 11L11 11L11 11L10 11L10 11L10 10L10 10L10 10L10 9L10 9L10 9L10 9L9 9L9 9L9 9L9 9L9 10L9 10L9 10L9 10L8 10L8 11L8 11L8 11L8 11L7 11L7 11L7 11L6 10L6 10L6 10L6 9L6 9L5 10L4 9L4 9L4 9L4 9L4 9L5 8L5 7L5 7L6 7L6 7L6 6L6 6L6 6L7 6L8 6L8 6L8 5L7 5L7 5L7 5L7 5L6 5V5L7 4L7 4L7 4L7 3L8 3L8 3L8 2L9 2L9 2L10 2L10 2L10 2L11 2L12 2L13 3L13 3L14 3L14 3L14 4L15 4L16 4L16 4L16 4L16 4L16 3L16 3L17 1L17 1L17 1L18 1L18 0L19 0L19 0L19 0L19 0L20 0L21 1L22 1L22 2L24 2L25 2L25 2L25 2L26 2L26 2L27 2L28 2L29 2L30 1L30 1L30 1L31 2L31 2L32 2L32 2L32 2L33 2L34 2L35 2L35 2L36 2L36 2L37 2L37 2L38 2L38 2L38 2L38 2L38 3L39 3L39 4L39 4L40 4L40 4L41 4L41 4L42 5L42 6ZM8 17L8 17L8 17L8 16L7 16L7 16L7 16L7 16L7 16L7 16L7 16L7 17L7 17L7 17L7 17L7 17L7 17L7 17L8 17ZM10 17L10 17L10 17L10 17L10 17L9 17L10 17L10 17L10 17ZM6 18L6 17L6 17L5 17L5 17L5 17L5 17L5 18L5 18L5 18L6 18Z"/></mask><path d="M42 6L42 6L42 6L42 6L42 6L41 6L41 6L41 7L40 7L39 8L39 8L38 8L37 9L36 9L36 10L35 10L35 10L35 10L34 11L34 11L33 11L33 12L32 12L31 12L31 12L30 11L30 12L29 12L29 12L29 13L29 13L28 13L28 14L28 14L28 14L28 15L27 15L27 14L27 15L27 15L26 15L26 15L26 15L25 15L25 15L25 14L24 14L24 14L24 14L23 14L23 14L22 14L22 14L22 14L22 14L22 14L22 15L22 15L21 15L21 15L21 15L20 16L19 16L19 16L18 16L18 16L18 17L18 17L18 18L18 18L18 18L18 18L18 19L18 19L18 19L18 19L17 19L17 19L17 19L16 19L16 19L16 20L16 20L15 20L14 20L14 20L13 20L13 20L13 20L12 20L12 20L12 20L12 21L11 20L11 20L11 20L11 20L10 20L10 20L10 20L10 20L10 20L9 19L9 19L9 19L9 19L9 19L9 19L9 19L8 19L8 19L8 19L8 19L7 19L7 19L7 20L6 20L6 20L6 19L5 19L5 19L5 19L4 19L4 19L4 19L4 19L4 19L3 19L3 19L2 19L2 19L1 19L1 19L1 19L0 19L0 18L0 18L0 18L0 17L0 17L0 17L1 17L1 17L1 17L1 17L1 16L1 16L1 16L2 16L3 16L3 16L4 16L4 16L5 16L5 17L5 17L5 17L5 17L6 16L6 16L7 16L7 16L7 15L7 15L7 15L8 15L8 15L9 15L9 16L9 16L9 16L9 16L9 16L10 16L10 16L10 16L10 15L10 15L11 15L11 15L11 14L11 14H12L12 14L12 14L12 15L12 14L12 14L12 14L12 14L12 14L12 14L13 14L13 14L13 14L14 14L14 13L15 13L15 12L15 12L14 12L14 12H14L14 12L13 12L13 12L13 12L12 12L12 11L12 11L12 12L11 12L11 11L11 11L11 11L11 11L11 11L10 11L10 11L10 10L10 10L10 10L10 9L10 9L10 9L10 9L9 9L9 9L9 9L9 9L9 10L9 10L9 10L9 10L8 10L8 11L8 11L8 11L8 11L7 11L7 11L7 11L6 10L6 10L6 10L6 9L6 9L5 10L4 9L4 9L4 9L4 9L4 9L5 8L5 7L5 7L6 7L6 7L6 6L6 6L6 6L7 6L8 6L8 6L8 5L7 5L7 5L7 5L7 5L6 5V5L7 4L7 4L7 4L7 3L8 3L8 3L8 2L9 2L9 2L10 2L10 2L10 2L11 2L12 2L13 3L13 3L14 3L14 3L14 4L15 4L16 4L16 4L16 4L16 4L16 3L16 3L17 1L17 1L17 1L18 1L18 0L19 0L19 0L19 0L19 0L20 0L21 1L22 1L22 2L24 2L25 2L25 2L25 2L26 2L26 2L27 2L28 2L29 2L30 1L30 1L30 1L31 2L31 2L32 2L32 2L32 2L33 2L34 2L35 2L35 2L36 2L36 2L37 2L37 2L38 2L38 2L38 2L38 2L38 3L39 3L39 4L39 4L40 4L40 4L41 4L41 4L42 5L42 6ZM8 17L8 17L8 17L8 16L7 16L7 16L7 16L7 16L7 16L7 16L7 16L7 17L7 17L7 17L7 17L7 17L7 17L7 17L8 17ZM10 17L10 17L10 17L10 17L10 17L9 17L10 17L10 17L10 17ZM6 18L6 17L6 17L5 17L5 17L5 17L5 17L5 18L5 18L5 18L6 18Z" fill="var(--fill-0,#71B219)" stroke="var(--stroke-0,white)" mask="url(#path-1-inside-1_0_46)"/></g></svg>