<svg preserveAspectRatio="none" width="100%" height="100%" overflow="visible" style="display: block;" viewBox="0 0 20 17" fill="none" xmlns="http://www.w3.org/2000/svg"><g id="KH"><mask id="path-1-inside-1_0_101" fill="white"><path d="M8 17L8 16L6 16L6 16L6 16L6 16L5 16L5 16L5 16L5 16L5 16L5 16L5 15L5 14L5 14L5 14L4 14L4 15L4 15L4 15L3 15L3 14L3 14L3 13L3 13L3 12L3 12L2 12L2 12L2 12L2 12L2 10L2 10L2 9L2 9L2 9L1 8L1 8L1 7L0 7L0 6L0 6L0 6L0 5L0 4L0 4L1 4L1 4L1 4L1 4L2 3L2 3L2 3L2 2L3 2L3 2L4 1L4 1L5 1L5 1L6 1L6 1L6 1L6 1L7 1L7 1L8 1L9 1L10 1L10 1L10 1L10 2L10 2L10 2H11L11 2L11 2L11 1L11 2L11 2L11 2L11 2L12 2L12 2L12 2L13 2L13 3L14 3L14 3L14 3L15 3L15 2L14 2L14 1L14 1L15 1L15 1L15 1L15 1L16 1L16 1L16 0L16 1L16 1L16 1L17 1L17 1L17 2L17 2L18 2L18 2L18 1L18 1L18 1L18 1L19 1L19 0L19 0L20 1L20 1L20 0L20 0L20 0L20 1L20 1L20 1L20 2L19 2L19 2L20 3L20 3L20 4L20 4L20 5L20 5L20 6L20 7L20 7L20 7L20 8L20 8L20 9L20 9L20 10L20 10L19 9L19 9L19 9L19 10L18 10L18 10L17 10L17 11L17 11L16 11L16 11L16 11L16 12L16 12L16 12L16 12L15 12L15 12L14 12L14 12L14 12L14 12L14 12L14 12L14 12L14 13L14 13L14 13L14 14L15 14L15 14L15 14L15 15L15 15L15 15L14 15L14 15L14 15L14 15L14 15L13 15L13 15L13 15L12 15L12 15L12 15L12 15L11 15L11 15L10 15L10 15L10 15L11 16L10 16L10 16L10 16L10 16L10 16L9 16L9 16L8 17L8 17L8 17ZM3 13L3 14L3 14L3 13L3 13L3 13L3 13L3 13ZM4 16L4 16L4 16L4 15L4 16Z"/></mask><path d="M8 17L8 16L6 16L6 16L6 16L6 16L5 16L5 16L5 16L5 16L5 16L5 16L5 15L5 14L5 14L5 14L4 14L4 15L4 15L4 15L3 15L3 14L3 14L3 13L3 13L3 12L3 12L2 12L2 12L2 12L2 12L2 10L2 10L2 9L2 9L2 9L1 8L1 8L1 7L0 7L0 6L0 6L0 6L0 5L0 4L0 4L1 4L1 4L1 4L1 4L2 3L2 3L2 3L2 2L3 2L3 2L4 1L4 1L5 1L5 1L6 1L6 1L6 1L6 1L7 1L7 1L8 1L9 1L10 1L10 1L10 1L10 2L10 2L10 2H11L11 2L11 2L11 1L11 2L11 2L11 2L11 2L12 2L12 2L12 2L13 2L13 3L14 3L14 3L14 3L15 3L15 2L14 2L14 1L14 1L15 1L15 1L15 1L15 1L16 1L16 1L16 0L16 1L16 1L16 1L17 1L17 1L17 2L17 2L18 2L18 2L18 1L18 1L18 1L18 1L19 1L19 0L19 0L20 1L20 1L20 0L20 0L20 0L20 1L20 1L20 1L20 2L19 2L19 2L20 3L20 3L20 4L20 4L20 5L20 5L20 6L20 7L20 7L20 7L20 8L20 8L20 9L20 9L20 10L20 10L19 9L19 9L19 9L19 10L18 10L18 10L17 10L17 11L17 11L16 11L16 11L16 11L16 12L16 12L16 12L16 12L15 12L15 12L14 12L14 12L14 12L14 12L14 12L14 12L14 12L14 13L14 13L14 13L14 14L15 14L15 14L15 14L15 15L15 15L15 15L14 15L14 15L14 15L14 15L14 15L13 15L13 15L13 15L12 15L12 15L12 15L12 15L11 15L11 15L10 15L10 15L10 15L11 16L10 16L10 16L10 16L10 16L10 16L9 16L9 16L8 17L8 17L8 17ZM3 13L3 14L3 14L3 13L3 13L3 13L3 13L3 13ZM4 16L4 16L4 16L4 15L4 16Z" fill="var(--fill-0,#71B219)" stroke="var(--stroke-0,white)" mask="url(#path-1-inside-1_0_101)"/></g></svg>