<svg preserveAspectRatio="none" width="100%" height="100%" overflow="visible" style="display: block;" viewBox="0 0 20.4084 16.8317" fill="none" xmlns="http://www.w3.org/2000/svg">
<g id="KH">
<mask id="path-1-inside-1_0_101" fill="white">
<path d="M8.13174 16.8317L7.49897 16.3256L6.24293 16.1486L6.10674 15.9251L5.98566 15.8811L5.87012 16.1719L5.17951 16.4504L4.89066 16.2817L4.68016 16.0787L4.71039 15.829L4.91124 15.626L5.25382 15.4806L5.41201 14.9676L5.15062 14.3106L4.92224 14.1185L4.68016 13.9677L4.42566 14.2119L4.21239 14.6302L3.98954 14.8456L3.67451 14.8935L3.21362 14.8757L3.03485 14.2516L2.97566 13.7167L3.03897 13.1049L3.10908 12.7428L2.66616 12.2435L2.63996 11.7675L2.42678 11.522L2.36347 11.6468L2.36901 11.784L2.30847 11.6852L1.60685 10.2861L1.48989 9.63732L1.61097 9.13668L1.68116 8.96932L1.47889 8.70598L1.1955 8.40697L0.693388 8.01466L0.66039 7.3933L0.54754 6.66083L0.397577 6.41256L0.167847 5.96127L0.0426546 5.58683L0 4.59647L0.0646536 4.51689L0.421004 4.48809L0.877693 4.41676L0.950659 4.25765L0.869464 4.12462L1.16116 3.89967L1.58074 3.40723L1.90401 2.89285L2.13785 2.56777L2.27681 2.24545L2.74727 1.78867L3.39801 1.47318L3.83824 1.39913L4.2977 1.29213L4.73659 1.13851L4.94566 1.12339L5.49043 1.30858L5.78624 1.35521L6.09708 1.35249L6.41766 1.37305L6.69693 1.35383L7.36547 1.2249L8.07674 1.3278L8.71093 1.24688L9.49509 1.09736L9.88024 1.192L10.231 1.34153L10.2792 1.64463L10.3618 1.78319L10.4787 1.89018H10.6342L10.835 1.67892L11.0014 1.46083L11.0565 1.42106L11.0647 1.52805L11.1486 1.76398L11.2972 1.9958L11.4486 2.14942L11.7003 2.35378L11.864 2.36341L12.4019 2.16998L13.2053 2.45119L13.2989 2.59247L13.5589 2.87778L13.8395 3.08214L14.4669 3.09587L14.6897 2.59109L14.5824 2.28383L14.2247 1.74753L14.1271 1.43065L14.2412 1.37443L14.8466 1.31407L14.9442 1.25236L15.0776 0.905304L15.2427 0.945113L15.5784 0.990363L15.9333 0.75306L16.1438 0.503407L16.258 0.617266L16.3846 0.792826L16.5221 0.894337L16.778 1.04524L17.0586 1.25647L17.2334 1.46359L17.375 1.5445L17.7355 1.48691L17.8318 1.49515L18.0395 1.24274L18.1854 1.10556L18.3105 1.14399L18.4921 1.14123L18.8663 0.820287L19.0809 0.526723L19.1993 0.445808L19.5349 0.592569L19.6697 0.562388L19.865 0.159151L20.0742 0L20.1361 0.218132L19.9738 0.630996L19.8004 1.00409L19.4771 1.33052L19.4606 1.57058L19.3491 2.28522L19.3918 2.51289L19.4674 2.70767L19.5734 2.81194L19.854 3.5115L20.1113 4.14656L20.3644 4.6678L20.4084 4.99698L20.1759 5.83234L19.9063 6.59909L19.9297 6.98043L20.0466 7.36173L20.1705 7.87062L20.2158 8.52079L20.1484 8.94466L20.026 9.20801L19.7921 9.47687L19.5899 9.61539L19.345 9.38633L19.1497 9.37674L18.8897 9.44531L18.6847 9.55092L18.2665 9.94733L17.8029 10.3328L17.1618 10.4315L16.9128 10.7168L16.6459 10.7566L16.1396 10.7717L15.8081 10.8375L15.8232 10.9816L15.7957 11.6592L15.8026 11.8183L15.7517 11.8608L15.522 11.8814L15.1341 11.7772L14.6085 11.6098L14.2344 11.5837L14.0417 11.8786L13.9276 11.9939L13.7845 12.0117L13.6373 12.0638L13.5877 12.1955L13.5754 12.3601L13.6469 12.6413L13.6744 13.0885L13.6552 13.3929L13.7927 13.5863L14.5962 14.2338L14.8328 14.3957L14.8602 14.4916L14.7199 14.8442L14.8451 15.3394L14.5934 15.3298L14.1724 15.1172L13.9716 14.9868L13.7281 15.0911L13.6428 15.0719L13.4791 14.8277L13.2645 14.5795L13.043 14.563L12.5753 14.6604L12.0965 14.7289L11.9149 14.7276L11.8392 14.7729L11.5627 15.1432L11.4458 15.0801L10.963 14.9388L10.5241 14.8853L10.4347 14.98L10.4883 15.2818L10.5846 15.5753L10.5269 15.7001L10.2847 15.8551L9.96689 16.1336L9.77024 16.3503L9.63405 16.4038L9.14839 16.3942L8.66416 16.423L8.46878 16.6273L8.28724 16.7864L8.13174 16.8317ZM2.79958 13.4286L2.73082 13.4657L2.66473 13.4643L2.59874 13.4067L2.60562 13.1817L2.65373 13.0445L2.76658 13.0185L2.79958 13.4286ZM3.85058 15.6356L3.70893 15.7865L3.48466 15.4751L3.486 15.3887L3.85058 15.6356Z"/>
</mask>
<path d="M8.13174 16.8317L7.49897 16.3256L6.24293 16.1486L6.10674 15.9251L5.98566 15.8811L5.87012 16.1719L5.17951 16.4504L4.89066 16.2817L4.68016 16.0787L4.71039 15.829L4.91124 15.626L5.25382 15.4806L5.41201 14.9676L5.15062 14.3106L4.92224 14.1185L4.68016 13.9677L4.42566 14.2119L4.21239 14.6302L3.98954 14.8456L3.67451 14.8935L3.21362 14.8757L3.03485 14.2516L2.97566 13.7167L3.03897 13.1049L3.10908 12.7428L2.66616 12.2435L2.63996 11.7675L2.42678 11.522L2.36347 11.6468L2.36901 11.784L2.30847 11.6852L1.60685 10.2861L1.48989 9.63732L1.61097 9.13668L1.68116 8.96932L1.47889 8.70598L1.1955 8.40697L0.693388 8.01466L0.66039 7.3933L0.54754 6.66083L0.397577 6.41256L0.167847 5.96127L0.0426546 5.58683L0 4.59647L0.0646536 4.51689L0.421004 4.48809L0.877693 4.41676L0.950659 4.25765L0.869464 4.12462L1.16116 3.89967L1.58074 3.40723L1.90401 2.89285L2.13785 2.56777L2.27681 2.24545L2.74727 1.78867L3.39801 1.47318L3.83824 1.39913L4.2977 1.29213L4.73659 1.13851L4.94566 1.12339L5.49043 1.30858L5.78624 1.35521L6.09708 1.35249L6.41766 1.37305L6.69693 1.35383L7.36547 1.2249L8.07674 1.3278L8.71093 1.24688L9.49509 1.09736L9.88024 1.192L10.231 1.34153L10.2792 1.64463L10.3618 1.78319L10.4787 1.89018H10.6342L10.835 1.67892L11.0014 1.46083L11.0565 1.42106L11.0647 1.52805L11.1486 1.76398L11.2972 1.9958L11.4486 2.14942L11.7003 2.35378L11.864 2.36341L12.4019 2.16998L13.2053 2.45119L13.2989 2.59247L13.5589 2.87778L13.8395 3.08214L14.4669 3.09587L14.6897 2.59109L14.5824 2.28383L14.2247 1.74753L14.1271 1.43065L14.2412 1.37443L14.8466 1.31407L14.9442 1.25236L15.0776 0.905304L15.2427 0.945113L15.5784 0.990363L15.9333 0.75306L16.1438 0.503407L16.258 0.617266L16.3846 0.792826L16.5221 0.894337L16.778 1.04524L17.0586 1.25647L17.2334 1.46359L17.375 1.5445L17.7355 1.48691L17.8318 1.49515L18.0395 1.24274L18.1854 1.10556L18.3105 1.14399L18.4921 1.14123L18.8663 0.820287L19.0809 0.526723L19.1993 0.445808L19.5349 0.592569L19.6697 0.562388L19.865 0.159151L20.0742 0L20.1361 0.218132L19.9738 0.630996L19.8004 1.00409L19.4771 1.33052L19.4606 1.57058L19.3491 2.28522L19.3918 2.51289L19.4674 2.70767L19.5734 2.81194L19.854 3.5115L20.1113 4.14656L20.3644 4.6678L20.4084 4.99698L20.1759 5.83234L19.9063 6.59909L19.9297 6.98043L20.0466 7.36173L20.1705 7.87062L20.2158 8.52079L20.1484 8.94466L20.026 9.20801L19.7921 9.47687L19.5899 9.61539L19.345 9.38633L19.1497 9.37674L18.8897 9.44531L18.6847 9.55092L18.2665 9.94733L17.8029 10.3328L17.1618 10.4315L16.9128 10.7168L16.6459 10.7566L16.1396 10.7717L15.8081 10.8375L15.8232 10.9816L15.7957 11.6592L15.8026 11.8183L15.7517 11.8608L15.522 11.8814L15.1341 11.7772L14.6085 11.6098L14.2344 11.5837L14.0417 11.8786L13.9276 11.9939L13.7845 12.0117L13.6373 12.0638L13.5877 12.1955L13.5754 12.3601L13.6469 12.6413L13.6744 13.0885L13.6552 13.3929L13.7927 13.5863L14.5962 14.2338L14.8328 14.3957L14.8602 14.4916L14.7199 14.8442L14.8451 15.3394L14.5934 15.3298L14.1724 15.1172L13.9716 14.9868L13.7281 15.0911L13.6428 15.0719L13.4791 14.8277L13.2645 14.5795L13.043 14.563L12.5753 14.6604L12.0965 14.7289L11.9149 14.7276L11.8392 14.7729L11.5627 15.1432L11.4458 15.0801L10.963 14.9388L10.5241 14.8853L10.4347 14.98L10.4883 15.2818L10.5846 15.5753L10.5269 15.7001L10.2847 15.8551L9.96689 16.1336L9.77024 16.3503L9.63405 16.4038L9.14839 16.3942L8.66416 16.423L8.46878 16.6273L8.28724 16.7864L8.13174 16.8317ZM2.79958 13.4286L2.73082 13.4657L2.66473 13.4643L2.59874 13.4067L2.60562 13.1817L2.65373 13.0445L2.76658 13.0185L2.79958 13.4286ZM3.85058 15.6356L3.70893 15.7865L3.48466 15.4751L3.486 15.3887L3.85058 15.6356Z" fill="var(--fill-0, #71B219)" stroke="var(--stroke-0, white)" mask="url(#path-1-inside-1_0_101)"/>
</g>
</svg>
