<svg preserveAspectRatio="none" width="100%" height="100%" overflow="visible" style="display: block;" viewBox="0 0 1345 59" fill="none" xmlns="http://www.w3.org/2000/svg"><g id="KI"><mask id="path-1-inside-1_0_179" fill="white"><path d="M1342 26L1343 26L1343 26L1343 26V26L1343 26L1343 26L1342 26L1342 26L1342 26L1342 26L1343 26L1343 26V26L1343 26L1343 26L1342 26L1342 26L1342 26L1342 26L1342 26L1342 26L1342 26L1342 26H1342ZM1345 27L1345 27L1345 27L1345 27L1345 27L1345 27L1345 27ZM1344 32L1344 32L1344 32L1344 32V32L1344 32L1344 32L1344 32V32H1344ZM1340 32L1340 32L1340 32L1341 32L1341 32L1340 32L1340 32L1340 32L1340 32V32V32H1340L1340 32V32H1340ZM1332 33L1332 33V33L1332 33L1332 33L1332 33L1332 33L1332 33L1332 33L1332 33L1332 33V33L1332 33L1332 33ZM0 0L1 0L0 0L0 0L0 0L0 0L0 0L0 0L0 0H0L0 0L0 0L0 0L0 0L0 0ZM1283 3L1283 3L1283 3L1283 3L1283 3L1283 3ZM1283 3L1282 4L1282 3L1282 3L1283 3L1283 3L1283 3L1283 3ZM8 8L9 8L8 8L8 8L7 8L7 8L7 8L8 8L8 8L8 8L7 7L8 7L8 8L8 8ZM1284 8L1284 8L1283 8L1283 8L1283 8L1283 8L1283 8L1283 8L1284 8ZM1284 8L1283 8L1284 8L1284 8L1284 8L1284 8L1284 8L1284 8L1284 8ZM1284 10L1283 10L1284 10L1284 10L1284 10L1284 10L1284 10L1284 10L1284 10L1284 10L1284 10ZM1284 11L1284 11L1284 11L1284 12L1283 12L1283 12L1284 12L1284 11L1284 11L1283 11H1283L1283 11H1283L1284 11ZM1289 18L1289 18L1289 18L1289 18L1289 18L1289 17L1289 17H1289L1289 17L1289 18L1289 18L1289 18ZM1270 18L1270 18L1270 18L1270 18L1270 18L1270 18L1270 18ZM1290 20L1290 20L1290 20L1290 20L1290 20L1290 19L1290 19L1290 20L1290 20ZM17 31L17 31L17 31L17 31L17 30L17 30L17 30L17 30L17 30L17 30L17 31ZM14 37L14 37H14L13 36L13 36H14L14 36L14 36L14 36L14 37ZM29 59L29 59L29 59L29 59L29 59L29 59L29 59L29 59L29 59Z"/></mask><path d="M1342 26L1343 26L1343 26L1343 26V26L1343 26L1343 26L1342 26L1342 26L1342 26L1342 26L1343 26L1343 26V26L1343 26L1343 26L1342 26L1342 26L1342 26L1342 26L1342 26L1342 26L1342 26L1342 26H1342ZM1345 27L1345 27L1345 27L1345 27L1345 27L1345 27L1345 27ZM1344 32L1344 32L1344 32L1344 32V32L1344 32L1344 32L1344 32V32H1344ZM1340 32L1340 32L1340 32L1341 32L1341 32L1340 32L1340 32L1340 32L1340 32V32V32H1340L1340 32V32H1340ZM1332 33L1332 33V33L1332 33L1332 33L1332 33L1332 33L1332 33L1332 33L1332 33L1332 33V33L1332 33L1332 33ZM0 0L1 0L0 0L0 0L0 0L0 0L0 0L0 0L0 0H0L0 0L0 0L0 0L0 0L0 0ZM1283 3L1283 3L1283 3L1283 3L1283 3L1283 3ZM1283 3L1282 4L1282 3L1282 3L1283 3L1283 3L1283 3L1283 3ZM8 8L9 8L8 8L8 8L7 8L7 8L7 8L8 8L8 8L8 8L7 7L8 7L8 8L8 8ZM1284 8L1284 8L1283 8L1283 8L1283 8L1283 8L1283 8L1283 8L1284 8ZM1284 8L1283 8L1284 8L1284 8L1284 8L1284 8L1284 8L1284 8L1284 8ZM1284 10L1283 10L1284 10L1284 10L1284 10L1284 10L1284 10L1284 10L1284 10L1284 10L1284 10ZM1284 11L1284 11L1284 11L1284 12L1283 12L1283 12L1284 12L1284 11L1284 11L1283 11H1283L1283 11H1283L1284 11ZM1289 18L1289 18L1289 18L1289 18L1289 18L1289 17L1289 17H1289L1289 17L1289 18L1289 18L1289 18ZM1270 18L1270 18L1270 18L1270 18L1270 18L1270 18L1270 18ZM1290 20L1290 20L1290 20L1290 20L1290 20L1290 19L1290 19L1290 20L1290 20ZM17 31L17 31L17 31L17 31L17 30L17 30L17 30L17 30L17 30L17 30L17 31ZM14 37L14 37H14L13 36L13 36H14L14 36L14 36L14 36L14 37ZM29 59L29 59L29 59L29 59L29 59L29 59L29 59L29 59L29 59Z" fill="var(--fill-0,#71B219)" stroke="var(--stroke-0,white)" mask="url(#path-1-inside-1_0_179)"/></g></svg>