<svg preserveAspectRatio="none" width="100%" height="100%" overflow="visible" style="display: block;" viewBox="0 0 1344.85 59.1215" fill="none" xmlns="http://www.w3.org/2000/svg">
<g id="KI">
<mask id="path-1-inside-1_0_179" fill="white">
<path d="M1342.47 25.5967L1342.59 25.6693L1342.69 25.7681L1342.74 25.9053V25.9396L1342.66 25.9382L1342.57 25.8957L1342.51 25.8381L1342.47 25.823L1342.46 25.8106L1342.54 25.8189L1342.63 25.8765L1342.69 25.9025V25.8353L1342.61 25.7187L1342.57 25.679L1342.5 25.6446L1342.44 25.6213L1342.39 25.6419L1342.36 25.6515L1342.35 25.6241L1342.36 25.5994L1342.39 25.5747L1342.47 25.5967H1342.47ZM1344.83 27.0108L1344.81 27.0396L1344.79 27.015L1344.8 26.9697L1344.82 26.9313L1344.85 26.9518L1344.83 27.0108ZM1344.26 32.0997L1344.22 32.1176L1344.18 32.1121L1344.15 32.086V32.0448L1344.18 32.016L1344.24 32.0256L1344.26 32.0627V32.0997H1344.26ZM1340.47 32.2821L1340.49 32.3082L1340.55 32.3014L1340.6 32.2972L1340.57 32.3233L1340.47 32.3343L1340.42 32.2684L1340.48 32.2177L1340.54 32.2094V32.2232V32.2382H1340.51L1340.47 32.2506V32.2821H1340.47ZM1331.6 32.9117L1331.64 32.9625V32.9872L1331.62 32.983L1331.55 32.968L1331.53 32.9378L1331.58 32.9584L1331.6 32.9542L1331.56 32.909L1331.52 32.8761L1331.49 32.8624V32.8459L1331.53 32.8541L1331.6 32.9117ZM0.269635 0L0.577791 0.323703L0.518635 0.486956L0.295774 0.471845L0.193971 0.414246L0.36731 0.385446L0.3962 0.325084L0.316409 0.230439L0.210481 0.164593H0.13757L0.119685 0.294903L0 0.193393L0.0701586 0.0918825L0.155452 0.0246973L0.269635 0ZM1283.27 3.04372L1283.02 3.17131L1282.95 3.15071L1283.24 2.96967L1283.24 2.9916L1283.27 3.04372ZM1282.78 3.34138L1282.5 3.48953L1282.42 3.40995L1282.52 3.40723L1282.72 3.26457L1282.95 3.2536L1282.92 3.33314L1282.78 3.34138ZM7.97902 7.91864L8.62147 8.36168L8.34908 8.3932L7.67774 8.17922L7.06419 7.74165L7.24715 7.64705L7.33657 7.80478L7.61584 7.95154L7.78092 7.64291L7.8896 7.57296L7.39985 7.25474L7.59383 7.27119L8.05744 7.4879L7.97902 7.91864ZM1283.46 7.95564L1283.48 8.04342L1283.26 7.8034L1283.13 7.64839L1283.13 7.5812L1283.19 7.62369L1283.27 7.69917L1283.31 7.75949L1283.46 7.95564ZM1283.5 8.4467L1283.36 8.46315L1283.46 8.40831L1283.49 8.33288L1283.48 8.09558L1283.53 8.11475L1283.55 8.21216L1283.56 8.35482L1283.5 8.4467ZM1283.53 9.88283L1283.43 9.89656L1283.5 9.81837L1283.94 9.73197L1283.98 9.70727L1284.05 9.75528L1284.05 9.80053L1284.02 9.82385L1283.8 9.82523L1283.63 9.86638L1283.53 9.88283ZM1283.51 11.1407L1283.72 11.2915L1283.69 11.3958L1283.62 11.5151L1283.35 11.8196L1283.27 11.7908L1283.53 11.5151L1283.63 11.3327L1283.48 11.1928L1283.42 11.223H1283.4L1283.34 11.0927H1283.4L1283.51 11.1407ZM1289.21 18.0813L1289.09 18.1855L1289.04 18.0909L1289.1 17.9743L1288.99 17.4901L1288.82 17.4243L1288.72 17.2788H1288.77L1288.94 17.4119L1289.08 17.4723L1289.16 17.7905L1289.21 18.0813ZM1270.07 18.3556L1270.03 18.3639L1269.96 18.3241L1269.97 18.2747L1270.02 18.2528L1270.09 18.2898L1270.07 18.3556ZM1290.23 19.6491L1290.25 19.8466L1290.17 19.8206L1290.14 19.7437L1290.11 19.5448L1290.02 19.3501L1290.12 19.4022L1290.21 19.5545L1290.23 19.6491ZM17.1907 30.6594L17.1797 30.6828L17.1329 30.6526L17.0421 30.5964L16.965 30.5346L16.9637 30.5086L17.0724 30.4715L17.2113 30.4427L17.2416 30.4825L17.2154 30.5388L17.1907 30.6594ZM13.6868 36.5645L13.5974 36.5851H13.4928L13.4405 36.5343L13.4378 36.4932H13.4735L13.5066 36.5L13.6551 36.5069L13.6937 36.537L13.6868 36.5645ZM29.444 59.0598L29.4123 59.1215L29.3518 59.0996L29.316 59.0214L29.3036 58.9364L29.327 58.8677L29.3669 58.8705L29.4123 58.9555L29.444 59.0598Z"/>
</mask>
<path d="M1342.47 25.5967L1342.59 25.6693L1342.69 25.7681L1342.74 25.9053V25.9396L1342.66 25.9382L1342.57 25.8957L1342.51 25.8381L1342.47 25.823L1342.46 25.8106L1342.54 25.8189L1342.63 25.8765L1342.69 25.9025V25.8353L1342.61 25.7187L1342.57 25.679L1342.5 25.6446L1342.44 25.6213L1342.39 25.6419L1342.36 25.6515L1342.35 25.6241L1342.36 25.5994L1342.39 25.5747L1342.47 25.5967H1342.47ZM1344.83 27.0108L1344.81 27.0396L1344.79 27.015L1344.8 26.9697L1344.82 26.9313L1344.85 26.9518L1344.83 27.0108ZM1344.26 32.0997L1344.22 32.1176L1344.18 32.1121L1344.15 32.086V32.0448L1344.18 32.016L1344.24 32.0256L1344.26 32.0627V32.0997H1344.26ZM1340.47 32.2821L1340.49 32.3082L1340.55 32.3014L1340.6 32.2972L1340.57 32.3233L1340.47 32.3343L1340.42 32.2684L1340.48 32.2177L1340.54 32.2094V32.2232V32.2382H1340.51L1340.47 32.2506V32.2821H1340.47ZM1331.6 32.9117L1331.64 32.9625V32.9872L1331.62 32.983L1331.55 32.968L1331.53 32.9378L1331.58 32.9584L1331.6 32.9542L1331.56 32.909L1331.52 32.8761L1331.49 32.8624V32.8459L1331.53 32.8541L1331.6 32.9117ZM0.269635 0L0.577791 0.323703L0.518635 0.486956L0.295774 0.471845L0.193971 0.414246L0.36731 0.385446L0.3962 0.325084L0.316409 0.230439L0.210481 0.164593H0.13757L0.119685 0.294903L0 0.193393L0.0701586 0.0918825L0.155452 0.0246973L0.269635 0ZM1283.27 3.04372L1283.02 3.17131L1282.95 3.15071L1283.24 2.96967L1283.24 2.9916L1283.27 3.04372ZM1282.78 3.34138L1282.5 3.48953L1282.42 3.40995L1282.52 3.40723L1282.72 3.26457L1282.95 3.2536L1282.92 3.33314L1282.78 3.34138ZM7.97902 7.91864L8.62147 8.36168L8.34908 8.3932L7.67774 8.17922L7.06419 7.74165L7.24715 7.64705L7.33657 7.80478L7.61584 7.95154L7.78092 7.64291L7.8896 7.57296L7.39985 7.25474L7.59383 7.27119L8.05744 7.4879L7.97902 7.91864ZM1283.46 7.95564L1283.48 8.04342L1283.26 7.8034L1283.13 7.64839L1283.13 7.5812L1283.19 7.62369L1283.27 7.69917L1283.31 7.75949L1283.46 7.95564ZM1283.5 8.4467L1283.36 8.46315L1283.46 8.40831L1283.49 8.33288L1283.48 8.09558L1283.53 8.11475L1283.55 8.21216L1283.56 8.35482L1283.5 8.4467ZM1283.53 9.88283L1283.43 9.89656L1283.5 9.81837L1283.94 9.73197L1283.98 9.70727L1284.05 9.75528L1284.05 9.80053L1284.02 9.82385L1283.8 9.82523L1283.63 9.86638L1283.53 9.88283ZM1283.51 11.1407L1283.72 11.2915L1283.69 11.3958L1283.62 11.5151L1283.35 11.8196L1283.27 11.7908L1283.53 11.5151L1283.63 11.3327L1283.48 11.1928L1283.42 11.223H1283.4L1283.34 11.0927H1283.4L1283.51 11.1407ZM1289.21 18.0813L1289.09 18.1855L1289.04 18.0909L1289.1 17.9743L1288.99 17.4901L1288.82 17.4243L1288.72 17.2788H1288.77L1288.94 17.4119L1289.08 17.4723L1289.16 17.7905L1289.21 18.0813ZM1270.07 18.3556L1270.03 18.3639L1269.96 18.3241L1269.97 18.2747L1270.02 18.2528L1270.09 18.2898L1270.07 18.3556ZM1290.23 19.6491L1290.25 19.8466L1290.17 19.8206L1290.14 19.7437L1290.11 19.5448L1290.02 19.3501L1290.12 19.4022L1290.21 19.5545L1290.23 19.6491ZM17.1907 30.6594L17.1797 30.6828L17.1329 30.6526L17.0421 30.5964L16.965 30.5346L16.9637 30.5086L17.0724 30.4715L17.2113 30.4427L17.2416 30.4825L17.2154 30.5388L17.1907 30.6594ZM13.6868 36.5645L13.5974 36.5851H13.4928L13.4405 36.5343L13.4378 36.4932H13.4735L13.5066 36.5L13.6551 36.5069L13.6937 36.537L13.6868 36.5645ZM29.444 59.0598L29.4123 59.1215L29.3518 59.0996L29.316 59.0214L29.3036 58.9364L29.327 58.8677L29.3669 58.8705L29.4123 58.9555L29.444 59.0598Z" fill="var(--fill-0, #71B219)" stroke="var(--stroke-0, white)" mask="url(#path-1-inside-1_0_179)"/>
</g>
</svg>
