<svg preserveAspectRatio="none" width="100%" height="100%" overflow="visible" style="display: block;" viewBox="0 0 1.18887 1.20979" fill="none" xmlns="http://www.w3.org/2000/svg">
<g id="KN">
<mask id="path-1-inside-1_0_160" fill="white">
<path d="M0.808141 0.650168L0.709194 0.713251L0.53328 0.466361L0.250114 0.399134L0.00549471 0.253755L0 0.222192L0.00411054 0.149482L0.0522207 0.0644643L0.177299 0L0.48928 0.198876L0.634995 0.448529L0.771062 0.562388L0.808141 0.650168ZM1.18887 1.12478L0.995087 1.20979L0.830162 1.09459L0.867241 0.816143L1.02394 0.807896L1.18061 0.931341L1.18887 1.12478Z"/>
</mask>
<path d="M0.808141 0.650168L0.709194 0.713251L0.53328 0.466361L0.250114 0.399134L0.00549471 0.253755L0 0.222192L0.00411054 0.149482L0.0522207 0.0644643L0.177299 0L0.48928 0.198876L0.634995 0.448529L0.771062 0.562388L0.808141 0.650168ZM1.18887 1.12478L0.995087 1.20979L0.830162 1.09459L0.867241 0.816143L1.02394 0.807896L1.18061 0.931341L1.18887 1.12478Z" fill="var(--fill-0, #71B219)"/>
<path d="M0.808141 0.650168L1.07693 1.07177L1.43309 0.844706L1.26874 0.455611L0.808141 0.650168ZM0.709194 0.713251L0.301988 1.00339L0.577558 1.39015L0.977986 1.13486L0.709194 0.713251ZM0.53328 0.466361L0.940486 0.176218L0.831504 0.0232652L0.648776 -0.0201167L0.53328 0.466361ZM0.250114 0.399134L-0.00533311 0.828956L0.0603159 0.867972L0.134618 0.885612L0.250114 0.399134ZM0.0054947 0.253755L-0.487096 0.33951L-0.447653 0.566082L-0.249952 0.683577L0.0054947 0.253755ZM0 0.222192L-0.499203 0.193971L-0.502446 0.251339L-0.492591 0.307948L0 0.222192ZM0.00411054 0.149482L-0.431046 -0.0967671L-0.488507 0.00477422L-0.495092 0.12126L0.00411054 0.149482ZM0.0522207 0.0644643L-0.176842 -0.379979L-0.309459 -0.31163L-0.382936 -0.181785L0.0522207 0.0644643ZM0.177299 0L0.446066 -0.421621L0.20371 -0.576113L-0.0517644 -0.444444L0.177299 0ZM0.48928 0.198876L0.921107 -0.0531674L0.8601 -0.15769L0.758048 -0.222745L0.48928 0.198876ZM0.634995 0.448529L0.203169 0.700573L0.247174 0.775966L0.314123 0.831988L0.634995 0.448529ZM0.771062 0.562388L1.23166 0.36783L1.18463 0.256492L1.09193 0.178929L0.771062 0.562388ZM1.18887 1.12478L1.38975 1.58265L1.70301 1.44521L1.68841 1.10344L1.18887 1.12478ZM0.995087 1.20979L0.708771 1.6197L0.938905 1.78045L1.19597 1.66767L0.995087 1.20979ZM0.830162 1.09459L0.334537 1.0286L0.294369 1.33024L0.543846 1.5045L0.830162 1.09459ZM0.867241 0.816143L0.840965 0.316833L0.42641 0.338649L0.371615 0.750145L0.867241 0.816143ZM1.02394 0.807896L1.3334 0.415168L1.18559 0.298698L0.997669 0.308587L1.02394 0.807896ZM1.18061 0.931341L1.68015 0.910002L1.67035 0.680676L1.49006 0.538612L1.18061 0.931341ZM0.808141 0.650168L0.539349 0.228563L0.440402 0.291646L0.709194 0.713251L0.977986 1.13486L1.07693 1.07177L0.808141 0.650168ZM0.709194 0.713251L1.1164 0.423107L0.940486 0.176218L0.53328 0.466361L0.126074 0.756505L0.301988 1.00339L0.709194 0.713251ZM0.53328 0.466361L0.648776 -0.0201167L0.36561 -0.0873437L0.250114 0.399134L0.134618 0.885612L0.417784 0.952839L0.53328 0.466361ZM0.250114 0.399134L0.505561 -0.0306876L0.260942 -0.176067L0.0054947 0.253755L-0.249952 0.683577L-0.00533311 0.828956L0.250114 0.399134ZM0.0054947 0.253755L0.498086 0.167999L0.492591 0.136437L0 0.222192L-0.492591 0.307948L-0.487096 0.33951L0.0054947 0.253755ZM0 0.222192L0.499203 0.250414L0.503313 0.177703L0.00411054 0.149482L-0.495092 0.12126L-0.499203 0.193971L0 0.222192ZM0.00411054 0.149482L0.439267 0.395731L0.487378 0.310713L0.0522207 0.0644643L-0.382936 -0.181785L-0.431046 -0.0967671L0.00411054 0.149482ZM0.0522207 0.0644643L0.281284 0.508908L0.406362 0.444444L0.177299 0L-0.0517644 -0.444444L-0.176842 -0.379979L0.0522207 0.0644643ZM0.177299 0L-0.0914685 0.421621L0.220513 0.620497L0.48928 0.198876L0.758048 -0.222745L0.446066 -0.421621L0.177299 0ZM0.48928 0.198876L0.0574542 0.45092L0.203169 0.700573L0.634995 0.448529L1.06682 0.196485L0.921107 -0.0531674L0.48928 0.198876ZM0.634995 0.448529L0.314123 0.831988L0.45019 0.945847L0.771062 0.562388L1.09193 0.178929L0.955867 0.0650697L0.634995 0.448529ZM0.771062 0.562388L0.310468 0.756945L0.347546 0.844725L0.808141 0.650168L1.26874 0.455611L1.23166 0.36783L0.771062 0.562388ZM1.18887 1.12478L0.987989 0.666903L0.794207 0.751921L0.995087 1.20979L1.19597 1.66767L1.38975 1.58265L1.18887 1.12478ZM0.995087 1.20979L1.2814 0.799887L1.11648 0.684688L0.830162 1.09459L0.543846 1.5045L0.708771 1.6197L0.995087 1.20979ZM0.830162 1.09459L1.32579 1.16059L1.36287 0.88214L0.867241 0.816143L0.371615 0.750145L0.334537 1.0286L0.830162 1.09459ZM0.867241 0.816143L0.893516 1.31545L1.05022 1.30721L1.02394 0.807896L0.997669 0.308587L0.840965 0.316833L0.867241 0.816143ZM1.02394 0.807896L0.714487 1.20062L0.871149 1.32407L1.18061 0.931341L1.49006 0.538612L1.3334 0.415168L1.02394 0.807896ZM1.18061 0.931341L0.681062 0.95268L0.689325 1.14611L1.18887 1.12478L1.68841 1.10344L1.68015 0.910002L1.18061 0.931341Z" fill="var(--stroke-0, white)" mask="url(#path-1-inside-1_0_160)"/>
</g>
</svg>
