<svg preserveAspectRatio="none" width="100%" height="100%" overflow="visible" style="display: block;" viewBox="0 0 24 27" fill="none" xmlns="http://www.w3.org/2000/svg"><g id="KP"><mask id="path-1-inside-1_0_116" fill="white"><path d="M24 2L24 3L24 3L24 3L24 4L24 4L24 4L24 4L24 4L23 4L23 4L22 5L22 5L22 5L22 6L21 6L21 7L21 7L21 8L21 8L21 9L21 10L21 11L21 11L19 12L19 12L18 13L18 13L17 14L17 14L16 14L16 15L16 15L15 15L14 15L14 15L14 16L12 16L12 17L12 18L12 18L12 18L12 18L12 18L12 19L12 19L12 19L12 20L13 20L13 20L14 21L15 21L15 21L15 22L15 22L16 22L15 22L15 23L15 23L15 24L14 24L14 24L14 24L13 24L13 24L12 24L12 24L11 24L11 24L11 24L10 24L10 24L10 25L9 25L9 26L9 26L9 26L9 26L9 26L9 26L8 26L7 26L7 26L7 26L7 26L6 26L6 25L5 25L5 26L5 26L4 26L4 27L4 27L4 26L4 26L3 26L3 26L2 26L3 25L4 25L3 25L3 25L2 25L2 25L2 25L1 25L2 24L2 24L2 24L2 23L3 22L4 22L4 22L4 22L5 22L4 22L4 22L4 22L3 21L3 21L4 19L4 19L4 18L4 18L3 17L3 17L2 17L2 17L2 17L2 17L1 17L1 17L1 17L1 16L0 16L0 16L0 15L0 15L0 15L0 14L1 14L2 13L2 13L2 13L2 13L3 13L3 13L3 13L3 12L4 12L4 12L5 12L5 11H5L5 11L5 11L5 11L6 11L6 11L6 11L7 10L7 10L7 10L7 10L8 9L8 9L8 8L8 8L8 8L8 8L9 7L9 7L9 7L9 7L9 7L9 7L10 6L10 6L10 6L10 6L10 7L11 7L11 7L11 8L11 8L11 8L12 8L12 8L12 8L13 8L14 8L14 8L14 8L14 8L15 8L15 8L15 8L15 7L15 7L15 7L15 7L15 6L14 6L14 6L14 6L14 5L14 5L15 5L15 5L16 5L16 5L17 5L17 5L18 5L18 5L18 4L18 4L19 4L19 4L19 4L19 3L19 3L19 3L20 3L20 3L20 3L20 3L20 3L20 3L21 3L21 3L21 2L21 2L21 1L21 0L21 0L21 0L22 0L22 0L22 0L22 0L22 0L22 0L23 1L23 1L23 1L23 2L23 2L24 2L24 2L24 2ZM2 18L2 18L2 18L2 17L2 17L2 18Z"/></mask><path d="M24 2L24 3L24 3L24 3L24 4L24 4L24 4L24 4L24 4L23 4L23 4L22 5L22 5L22 5L22 6L21 6L21 7L21 7L21 8L21 8L21 9L21 10L21 11L21 11L19 12L19 12L18 13L18 13L17 14L17 14L16 14L16 15L16 15L15 15L14 15L14 15L14 16L12 16L12 17L12 18L12 18L12 18L12 18L12 18L12 19L12 19L12 19L12 20L13 20L13 20L14 21L15 21L15 21L15 22L15 22L16 22L15 22L15 23L15 23L15 24L14 24L14 24L14 24L13 24L13 24L12 24L12 24L11 24L11 24L11 24L10 24L10 24L10 25L9 25L9 26L9 26L9 26L9 26L9 26L9 26L8 26L7 26L7 26L7 26L7 26L6 26L6 25L5 25L5 26L5 26L4 26L4 27L4 27L4 26L4 26L3 26L3 26L2 26L3 25L4 25L3 25L3 25L2 25L2 25L2 25L1 25L2 24L2 24L2 24L2 23L3 22L4 22L4 22L4 22L5 22L4 22L4 22L4 22L3 21L3 21L4 19L4 19L4 18L4 18L3 17L3 17L2 17L2 17L2 17L2 17L1 17L1 17L1 17L1 16L0 16L0 16L0 15L0 15L0 15L0 14L1 14L2 13L2 13L2 13L2 13L3 13L3 13L3 13L3 12L4 12L4 12L5 12L5 11H5L5 11L5 11L5 11L6 11L6 11L6 11L7 10L7 10L7 10L7 10L8 9L8 9L8 8L8 8L8 8L8 8L9 7L9 7L9 7L9 7L9 7L9 7L10 6L10 6L10 6L10 6L10 7L11 7L11 7L11 8L11 8L11 8L12 8L12 8L12 8L13 8L14 8L14 8L14 8L14 8L15 8L15 8L15 8L15 7L15 7L15 7L15 7L15 6L14 6L14 6L14 6L14 5L14 5L15 5L15 5L16 5L16 5L17 5L17 5L18 5L18 5L18 4L18 4L19 4L19 4L19 4L19 3L19 3L19 3L20 3L20 3L20 3L20 3L20 3L20 3L21 3L21 3L21 2L21 2L21 1L21 0L21 0L21 0L22 0L22 0L22 0L22 0L22 0L22 0L23 1L23 1L23 1L23 2L23 2L24 2L24 2L24 2ZM2 18L2 18L2 18L2 17L2 17L2 18Z" fill="var(--fill-0,#71B219)" stroke="var(--stroke-0,white)" mask="url(#path-1-inside-1_0_116)"/></g></svg>