<svg preserveAspectRatio="none" width="100%" height="100%" overflow="visible" style="display: block;" viewBox="0 0 24.4736 26.5911" fill="none" xmlns="http://www.w3.org/2000/svg">
<g id="KP">
<mask id="path-1-inside-1_0_116" fill="white">
<path d="M23.8531 2.42235L23.9577 2.73785L24.2054 3.0451L24.3347 3.26867L24.3608 3.50049L24.4736 3.6308L24.2769 3.7748L24.0182 3.68702L23.5876 3.6349L23.036 4.08892L22.7306 4.24803L22.516 4.69383L22.0854 4.95856L21.8501 5.23973L21.5447 5.72669L21.3439 6.19581L20.8802 6.6759L20.6093 7.27806L20.5942 7.79377L20.8899 8.32049L20.9174 8.76768L20.7111 9.68667L20.8252 10.6592L20.6973 11.0392L19.2776 11.703L18.9061 12.0336L18.3848 12.8909L17.7492 13.2091L17.3544 13.5575L16.8082 13.7633L16.4588 14.3641L16.075 14.7043L15.6183 14.9114L15.2757 15.1775L14.5108 15.1939L13.9702 15.3791L13.5863 15.877L12.4321 16.4463L12.2753 16.8756L12.3524 17.5367L12.3592 18.0429L12.2588 18.4585L12.0057 18.3419L11.8695 18.4777L11.7195 18.8617L11.7622 19.298L12.1584 19.4392L12.4817 19.6176L12.937 19.7081L13.274 19.9097L13.9908 20.8287L14.5755 21.2292L14.7268 21.3774L15.0624 21.579L15.372 21.8945L15.5467 22.1771L15.4106 22.2539L15.1781 22.6668L14.9607 23.1893L14.7516 23.4719L14.5108 23.6283L14.2508 23.7202L13.7349 23.76L13.2686 23.7243L13.1186 23.668L12.4775 23.701L12.2959 23.738L11.3756 23.6982L10.8941 23.7408L10.5873 23.8423L10.275 24.0535L10.0068 24.3704L9.77016 24.7091L9.2887 25.3278L8.95166 25.6282L8.95023 26.0616L8.94201 26.1933L8.8237 26.2852L8.78381 26.2454L8.58843 26.2139L7.8057 25.8175L7.16051 26.0589L6.99812 26.373L6.82758 26.4745L6.57031 25.8586L6.15074 25.8394L5.48489 25.2962L5.19873 25.4073L5.12585 25.6254L4.75993 26.1247L4.2495 26.5362L4.08443 26.5911L3.89601 26.5623L3.92346 26.4484L3.71573 25.9862L2.90958 25.7996L2.61931 25.6021L2.47212 25.5596L3.26181 25.0425L3.46812 24.9506L3.31404 24.8299L3.14342 24.7709L2.49554 24.8477L2.15708 24.6776L1.66462 24.7325L1.32204 24.598L2.03188 24.0892L2.06354 23.7888L2.05531 23.5597L2.41435 22.8821L2.77616 22.5077L3.71296 21.9741L4.12019 21.9L4.41601 21.9219L4.65808 21.8726L4.40358 21.6682L4.15462 21.5749L3.67039 21.5941L3.16819 21.2868L3.12419 20.9618L4.0982 18.9029L4.11197 18.715L3.96066 18.2116L3.91112 17.7205L3.21227 17.438L2.90269 17.4037L2.00711 16.8481L1.64942 16.567L1.50777 16.6506L1.48166 17.095L1.35369 17.1938L1.11842 17.2802L1.00011 16.7727L0.806154 16.4051L0.211845 16.0306L0 15.8249L0.101766 15.3777L0.0523106 15.3379L0.145848 14.8359L0.510427 14.4477L1.40323 13.7564L1.63296 13.4313L2.08697 13.0487L2.2905 13.0569L2.501 13.024L2.56431 12.8566L2.61242 12.7249L2.79404 12.6056L3.23016 12.3943L3.72539 12.1159L4.12162 12.0377L4.6072 11.6193L4.80527 11.4355H5.00477L5.05843 11.3491L5.17128 11.1324L5.32535 10.9898L5.53989 10.9624L5.89069 10.8595L6.33093 10.7964L6.63085 10.4438L6.73262 10.1915L6.93212 9.91439L7.35312 9.61124L7.64339 9.16271L7.96389 8.67576L8.11662 8.51941L8.26659 8.48785L8.35458 8.30404L8.45778 7.78418L8.60497 7.27806L8.69162 7.03937L9.06308 6.77875L9.15662 6.6512L9.2405 6.60867L9.41247 6.64296L9.64362 6.48933L9.85958 6.31925L10.0577 6.37823L10.2586 6.51951L10.4677 6.80069L10.5612 7.0243L10.7263 7.21083L10.7579 7.48242L10.9244 7.60038L11.2766 7.65936L11.853 7.84455L12.2258 7.85413L12.439 7.99269L12.8848 8.06812L13.7762 7.95974L14.1407 8.02287L14.2935 8.19295L14.5191 8.32736L14.6663 8.3356L14.863 8.10378L15.0735 7.72797L15.2124 7.43989L15.2069 7.21083L15.0845 6.96394L14.7915 6.73488L14.5975 6.37962L14.4131 6.012L14.3045 5.89266L14.2164 5.71434L14.1999 5.44003L14.2632 5.25484L14.7075 5.1314L15.277 5.05869L15.7379 5.13688L16.5083 5.08476L16.9815 4.98187L17.3324 4.99694L17.6543 4.9956L17.7974 4.83783L18.2472 4.45791L18.4646 4.32212L18.7039 4.06422L18.741 3.79401L18.7892 3.57454L18.924 3.34138L19.1606 3.05192L19.3615 2.91889L19.5857 2.93672L19.821 3.06975L19.971 3.20283L20.1402 3.1644L20.2818 2.93672L20.374 2.89281L20.6423 2.87226L20.7289 2.73236L20.8321 2.0616L20.9353 1.53216L20.9573 1.1604L21.1981 0.544555L21.2751 0.172798L21.4182 0L21.5833 0.0123487L21.7222 0.122063L21.8969 0.185146L22.1294 0.124826L22.2931 0.219471L22.3949 0.419729L22.7388 0.556862L22.7705 0.657033L22.7622 1.32503L22.9507 1.63777L23.2038 1.92032L23.5491 2.1768L23.7348 2.23444L23.8531 2.42235ZM2.14885 17.6753L1.93289 17.8179L1.92046 17.5628L2.08831 17.3475L2.26304 17.3186L2.14885 17.6753Z"/>
</mask>
<path d="M23.8531 2.42235L23.9577 2.73785L24.2054 3.0451L24.3347 3.26867L24.3608 3.50049L24.4736 3.6308L24.2769 3.7748L24.0182 3.68702L23.5876 3.6349L23.036 4.08892L22.7306 4.24803L22.516 4.69383L22.0854 4.95856L21.8501 5.23973L21.5447 5.72669L21.3439 6.19581L20.8802 6.6759L20.6093 7.27806L20.5942 7.79377L20.8899 8.32049L20.9174 8.76768L20.7111 9.68667L20.8252 10.6592L20.6973 11.0392L19.2776 11.703L18.9061 12.0336L18.3848 12.8909L17.7492 13.2091L17.3544 13.5575L16.8082 13.7633L16.4588 14.3641L16.075 14.7043L15.6183 14.9114L15.2757 15.1775L14.5108 15.1939L13.9702 15.3791L13.5863 15.877L12.4321 16.4463L12.2753 16.8756L12.3524 17.5367L12.3592 18.0429L12.2588 18.4585L12.0057 18.3419L11.8695 18.4777L11.7195 18.8617L11.7622 19.298L12.1584 19.4392L12.4817 19.6176L12.937 19.7081L13.274 19.9097L13.9908 20.8287L14.5755 21.2292L14.7268 21.3774L15.0624 21.579L15.372 21.8945L15.5467 22.1771L15.4106 22.2539L15.1781 22.6668L14.9607 23.1893L14.7516 23.4719L14.5108 23.6283L14.2508 23.7202L13.7349 23.76L13.2686 23.7243L13.1186 23.668L12.4775 23.701L12.2959 23.738L11.3756 23.6982L10.8941 23.7408L10.5873 23.8423L10.275 24.0535L10.0068 24.3704L9.77016 24.7091L9.2887 25.3278L8.95166 25.6282L8.95023 26.0616L8.94201 26.1933L8.8237 26.2852L8.78381 26.2454L8.58843 26.2139L7.8057 25.8175L7.16051 26.0589L6.99812 26.373L6.82758 26.4745L6.57031 25.8586L6.15074 25.8394L5.48489 25.2962L5.19873 25.4073L5.12585 25.6254L4.75993 26.1247L4.2495 26.5362L4.08443 26.5911L3.89601 26.5623L3.92346 26.4484L3.71573 25.9862L2.90958 25.7996L2.61931 25.6021L2.47212 25.5596L3.26181 25.0425L3.46812 24.9506L3.31404 24.8299L3.14342 24.7709L2.49554 24.8477L2.15708 24.6776L1.66462 24.7325L1.32204 24.598L2.03188 24.0892L2.06354 23.7888L2.05531 23.5597L2.41435 22.8821L2.77616 22.5077L3.71296 21.9741L4.12019 21.9L4.41601 21.9219L4.65808 21.8726L4.40358 21.6682L4.15462 21.5749L3.67039 21.5941L3.16819 21.2868L3.12419 20.9618L4.0982 18.9029L4.11197 18.715L3.96066 18.2116L3.91112 17.7205L3.21227 17.438L2.90269 17.4037L2.00711 16.8481L1.64942 16.567L1.50777 16.6506L1.48166 17.095L1.35369 17.1938L1.11842 17.2802L1.00011 16.7727L0.806154 16.4051L0.211845 16.0306L0 15.8249L0.101766 15.3777L0.0523106 15.3379L0.145848 14.8359L0.510427 14.4477L1.40323 13.7564L1.63296 13.4313L2.08697 13.0487L2.2905 13.0569L2.501 13.024L2.56431 12.8566L2.61242 12.7249L2.79404 12.6056L3.23016 12.3943L3.72539 12.1159L4.12162 12.0377L4.6072 11.6193L4.80527 11.4355H5.00477L5.05843 11.3491L5.17128 11.1324L5.32535 10.9898L5.53989 10.9624L5.89069 10.8595L6.33093 10.7964L6.63085 10.4438L6.73262 10.1915L6.93212 9.91439L7.35312 9.61124L7.64339 9.16271L7.96389 8.67576L8.11662 8.51941L8.26659 8.48785L8.35458 8.30404L8.45778 7.78418L8.60497 7.27806L8.69162 7.03937L9.06308 6.77875L9.15662 6.6512L9.2405 6.60867L9.41247 6.64296L9.64362 6.48933L9.85958 6.31925L10.0577 6.37823L10.2586 6.51951L10.4677 6.80069L10.5612 7.0243L10.7263 7.21083L10.7579 7.48242L10.9244 7.60038L11.2766 7.65936L11.853 7.84455L12.2258 7.85413L12.439 7.99269L12.8848 8.06812L13.7762 7.95974L14.1407 8.02287L14.2935 8.19295L14.5191 8.32736L14.6663 8.3356L14.863 8.10378L15.0735 7.72797L15.2124 7.43989L15.2069 7.21083L15.0845 6.96394L14.7915 6.73488L14.5975 6.37962L14.4131 6.012L14.3045 5.89266L14.2164 5.71434L14.1999 5.44003L14.2632 5.25484L14.7075 5.1314L15.277 5.05869L15.7379 5.13688L16.5083 5.08476L16.9815 4.98187L17.3324 4.99694L17.6543 4.9956L17.7974 4.83783L18.2472 4.45791L18.4646 4.32212L18.7039 4.06422L18.741 3.79401L18.7892 3.57454L18.924 3.34138L19.1606 3.05192L19.3615 2.91889L19.5857 2.93672L19.821 3.06975L19.971 3.20283L20.1402 3.1644L20.2818 2.93672L20.374 2.89281L20.6423 2.87226L20.7289 2.73236L20.8321 2.0616L20.9353 1.53216L20.9573 1.1604L21.1981 0.544555L21.2751 0.172798L21.4182 0L21.5833 0.0123487L21.7222 0.122063L21.8969 0.185146L22.1294 0.124826L22.2931 0.219471L22.3949 0.419729L22.7388 0.556862L22.7705 0.657033L22.7622 1.32503L22.9507 1.63777L23.2038 1.92032L23.5491 2.1768L23.7348 2.23444L23.8531 2.42235ZM2.14885 17.6753L1.93289 17.8179L1.92046 17.5628L2.08831 17.3475L2.26304 17.3186L2.14885 17.6753Z" fill="var(--fill-0, #71B219)" stroke="var(--stroke-0, white)" mask="url(#path-1-inside-1_0_116)"/>
</g>
</svg>
