<svg preserveAspectRatio="none" width="100%" height="100%" overflow="visible" style="display: block;" viewBox="0 0 19.0217 25.679" fill="none" xmlns="http://www.w3.org/2000/svg">
<g id="KR">
<mask id="path-1-inside-1_0_114" fill="white">
<path d="M2.41846 4.10813L2.53677 4.01625L2.545 3.88456L2.54643 3.4511L2.88346 3.15071L3.36492 2.53211L3.60154 2.19329L3.86981 1.87645L4.18208 1.66519L4.48889 1.56372L4.97035 1.52119L5.89069 1.56096L6.07231 1.52391L6.71339 1.49101L6.86335 1.54723L7.3297 1.58289L7.84558 1.54312L8.10554 1.45124L8.34635 1.29485L8.55543 1.0123L8.77282 0.489677L9.00532 0.0768129L9.14151 0L10.0852 2.18781L10.9863 3.59514L11.7553 4.61016L12.8504 6.55656L13.1709 7.59355L13.2012 8.23409L13.3841 9.11336L13.2287 9.61673L13.274 10.4082L13.2053 10.8142L13.0704 11.1132L13.0663 11.6866L13.109 11.9925L13.1131 12.3985L13.1997 12.5562L13.3249 12.6139L13.5244 12.4671L13.7679 12.4054L13.7253 12.8923L13.4309 14.1227L13.1751 15.0156L12.8269 15.792L12.384 16.5011L11.853 16.7782L11.4801 16.877L10.7676 16.9126L10.176 16.7933L9.66839 16.8797L9.46478 17.0265L9.31347 17.2788L9.42489 17.6698L9.40978 17.9579L9.19239 17.9359L8.76182 17.7686L8.28439 17.7453L8.06154 17.6616L7.83593 17.2487L7.6062 17.2638L7.20728 17.5093L6.59643 17.5642L6.38181 17.6972L6.30481 17.8687L6.39281 18.0854L6.70096 18.3693L6.59785 18.656L6.2787 18.7987L6.02 18.4462L5.85904 18.1005L5.67885 18.0813L5.39824 18.18L5.34181 18.5531L5.47255 18.8069L5.68708 19.1018L5.38581 19.4406L5.30604 19.682L5.09008 19.8549L4.50677 19.4694L4.59065 19.1951L4.84381 18.9317L4.87404 18.6574L4.79016 18.4955L3.95646 19.1869L3.442 19.9687L3.16685 19.9111L3.05266 19.7108L2.89169 19.6285L2.33592 20.1319L2.23416 20.5311L2.03054 20.5462L1.94112 20.3774L1.93423 20.0154L1.83927 19.7108L1.26284 19.2664L1.00154 18.8768L1.14319 18.6588L1.62465 18.7767L2.00577 18.7617L1.93012 18.5765L1.80493 18.4887L2.05943 18.3844L2.27127 18.1718L2.09519 18.1142L1.82827 18.2376L1.60542 18.1773L1.51743 17.6657L1.24639 17.1403L1.10465 16.6301L1.37292 16.3365L1.50911 15.8784L1.7595 15.2145L1.88469 14.9992L2.22996 14.8428L2.35247 14.6714L2.16262 14.5835L1.85992 14.5054L1.86681 14.3133L2.0732 14.2091L2.30427 13.9965L2.75004 13.7386L2.88892 13.2517L2.75962 13.1282L2.48035 13.013L2.54366 12.7661L2.65919 12.5782L2.61519 12.4657L2.28638 12.1475L2.069 11.858L2.13374 11.5275L2.0842 11.0268L2.11308 10.6057L2.09797 10.3767L1.937 9.86228L1.86404 9.34514L1.65362 9.42061L1.483 9.54954L0.873579 9.36712L0.679618 9.35615L0.601194 8.97204L0.819925 8.49886L1.33858 8.08047L1.63708 8.02835L1.86135 7.84455L2.21208 7.78695L2.63308 8.07226L3.01 8.12986L3.21916 8.61954L3.34847 8.72377L3.37592 8.54411L3.68139 8.33288L3.75427 8.17373L3.68819 8.08595L3.33747 7.99955L3.02243 7.39053L2.97835 7.12305L2.86415 6.95297L3.03343 6.46468L2.66885 5.90639L2.49134 5.73083L2.51754 5.22742L2.3277 4.90782L2.22173 4.73226L2.15708 4.42773L2.21208 4.29056L2.37724 4.23844L2.41846 4.10813ZM1.981 4.32622L1.96312 4.9668L1.74984 4.93939L1.60542 4.87488L1.54354 4.75009L1.39769 4.15614L1.56143 3.91064L1.87646 4.10541L1.981 4.32622ZM18.9516 5.5772L18.7755 5.71986L18.5677 5.5772L18.5416 5.42492L18.6503 5.29327L18.9034 5.21369L19.0217 5.32893L18.9516 5.5772ZM1.58208 10.3067L1.52977 10.6153L1.27393 10.4123L1.19962 9.73469L1.46235 9.93223L1.58208 10.3067ZM10.5543 18.298L10.1897 18.586L9.69862 18.1993L9.58174 17.9867L9.95455 17.6725L10.2709 17.3145L10.4787 17.2926L10.5543 18.298ZM7.94601 18.2637L7.90335 18.7205L7.63097 18.7438L7.46866 18.4503L7.29527 18.5929L7.20585 18.5957L7.06831 18.2294L7.04489 17.9441L7.36547 17.726L7.56077 17.8563L7.8387 17.9235L7.94601 18.2637ZM0.635536 18.6121L0.584653 18.7246L0.416805 18.6917L0.2435 18.3707L0.171962 18.1156L0 17.9757L0.273728 17.7548L0.62185 18.1526L0.635536 18.6121ZM6.91701 19.1526L6.87292 19.2966L6.67762 19.0785L6.87158 18.8398L6.91701 19.1526ZM0.873579 20.2897L0.625964 20.361L0.487001 20.2005L0.390692 20.158L0.44569 19.9481L0.847465 19.5353L0.927233 19.3926L1.30004 19.479L1.439 19.6985L1.26839 20.0304L0.873579 20.2897ZM2.87935 20.4131L2.944 20.634L2.63174 20.5928L2.46657 20.3802L2.48866 20.1978L2.67431 20.1717L2.87935 20.4131ZM1.23262 25.5774L1.05931 25.679L0.898348 25.6186L0.855694 25.5706L0.660306 25.3086L0.610766 25.1742L0.741501 24.9163L1.27527 24.4924L2.65642 24.0837L2.90546 24.0659L3.45023 24.2414L3.5672 24.5693L3.46677 24.8518L3.34158 25.0411L2.71008 25.3594L2.21762 25.5116L1.23262 25.5774Z"/>
</mask>
<path d="M2.41846 4.10813L2.53677 4.01625L2.545 3.88456L2.54643 3.4511L2.88346 3.15071L3.36492 2.53211L3.60154 2.19329L3.86981 1.87645L4.18208 1.66519L4.48889 1.56372L4.97035 1.52119L5.89069 1.56096L6.07231 1.52391L6.71339 1.49101L6.86335 1.54723L7.3297 1.58289L7.84558 1.54312L8.10554 1.45124L8.34635 1.29485L8.55543 1.0123L8.77282 0.489677L9.00532 0.0768129L9.14151 0L10.0852 2.18781L10.9863 3.59514L11.7553 4.61016L12.8504 6.55656L13.1709 7.59355L13.2012 8.23409L13.3841 9.11336L13.2287 9.61673L13.274 10.4082L13.2053 10.8142L13.0704 11.1132L13.0663 11.6866L13.109 11.9925L13.1131 12.3985L13.1997 12.5562L13.3249 12.6139L13.5244 12.4671L13.7679 12.4054L13.7253 12.8923L13.4309 14.1227L13.1751 15.0156L12.8269 15.792L12.384 16.5011L11.853 16.7782L11.4801 16.877L10.7676 16.9126L10.176 16.7933L9.66839 16.8797L9.46478 17.0265L9.31347 17.2788L9.42489 17.6698L9.40978 17.9579L9.19239 17.9359L8.76182 17.7686L8.28439 17.7453L8.06154 17.6616L7.83593 17.2487L7.6062 17.2638L7.20728 17.5093L6.59643 17.5642L6.38181 17.6972L6.30481 17.8687L6.39281 18.0854L6.70096 18.3693L6.59785 18.656L6.2787 18.7987L6.02 18.4462L5.85904 18.1005L5.67885 18.0813L5.39824 18.18L5.34181 18.5531L5.47255 18.8069L5.68708 19.1018L5.38581 19.4406L5.30604 19.682L5.09008 19.8549L4.50677 19.4694L4.59065 19.1951L4.84381 18.9317L4.87404 18.6574L4.79016 18.4955L3.95646 19.1869L3.442 19.9687L3.16685 19.9111L3.05266 19.7108L2.89169 19.6285L2.33592 20.1319L2.23416 20.5311L2.03054 20.5462L1.94112 20.3774L1.93423 20.0154L1.83927 19.7108L1.26284 19.2664L1.00154 18.8768L1.14319 18.6588L1.62465 18.7767L2.00577 18.7617L1.93012 18.5765L1.80493 18.4887L2.05943 18.3844L2.27127 18.1718L2.09519 18.1142L1.82827 18.2376L1.60542 18.1773L1.51743 17.6657L1.24639 17.1403L1.10465 16.6301L1.37292 16.3365L1.50911 15.8784L1.7595 15.2145L1.88469 14.9992L2.22996 14.8428L2.35247 14.6714L2.16262 14.5835L1.85992 14.5054L1.86681 14.3133L2.0732 14.2091L2.30427 13.9965L2.75004 13.7386L2.88892 13.2517L2.75962 13.1282L2.48035 13.013L2.54366 12.7661L2.65919 12.5782L2.61519 12.4657L2.28638 12.1475L2.069 11.858L2.13374 11.5275L2.0842 11.0268L2.11308 10.6057L2.09797 10.3767L1.937 9.86228L1.86404 9.34514L1.65362 9.42061L1.483 9.54954L0.873579 9.36712L0.679618 9.35615L0.601194 8.97204L0.819925 8.49886L1.33858 8.08047L1.63708 8.02835L1.86135 7.84455L2.21208 7.78695L2.63308 8.07226L3.01 8.12986L3.21916 8.61954L3.34847 8.72377L3.37592 8.54411L3.68139 8.33288L3.75427 8.17373L3.68819 8.08595L3.33747 7.99955L3.02243 7.39053L2.97835 7.12305L2.86415 6.95297L3.03343 6.46468L2.66885 5.90639L2.49134 5.73083L2.51754 5.22742L2.3277 4.90782L2.22173 4.73226L2.15708 4.42773L2.21208 4.29056L2.37724 4.23844L2.41846 4.10813ZM1.981 4.32622L1.96312 4.9668L1.74984 4.93939L1.60542 4.87488L1.54354 4.75009L1.39769 4.15614L1.56143 3.91064L1.87646 4.10541L1.981 4.32622ZM18.9516 5.5772L18.7755 5.71986L18.5677 5.5772L18.5416 5.42492L18.6503 5.29327L18.9034 5.21369L19.0217 5.32893L18.9516 5.5772ZM1.58208 10.3067L1.52977 10.6153L1.27393 10.4123L1.19962 9.73469L1.46235 9.93223L1.58208 10.3067ZM10.5543 18.298L10.1897 18.586L9.69862 18.1993L9.58174 17.9867L9.95455 17.6725L10.2709 17.3145L10.4787 17.2926L10.5543 18.298ZM7.94601 18.2637L7.90335 18.7205L7.63097 18.7438L7.46866 18.4503L7.29527 18.5929L7.20585 18.5957L7.06831 18.2294L7.04489 17.9441L7.36547 17.726L7.56077 17.8563L7.8387 17.9235L7.94601 18.2637ZM0.635536 18.6121L0.584653 18.7246L0.416805 18.6917L0.2435 18.3707L0.171962 18.1156L0 17.9757L0.273728 17.7548L0.62185 18.1526L0.635536 18.6121ZM6.91701 19.1526L6.87292 19.2966L6.67762 19.0785L6.87158 18.8398L6.91701 19.1526ZM0.873579 20.2897L0.625964 20.361L0.487001 20.2005L0.390692 20.158L0.44569 19.9481L0.847465 19.5353L0.927233 19.3926L1.30004 19.479L1.439 19.6985L1.26839 20.0304L0.873579 20.2897ZM2.87935 20.4131L2.944 20.634L2.63174 20.5928L2.46657 20.3802L2.48866 20.1978L2.67431 20.1717L2.87935 20.4131ZM1.23262 25.5774L1.05931 25.679L0.898348 25.6186L0.855694 25.5706L0.660306 25.3086L0.610766 25.1742L0.741501 24.9163L1.27527 24.4924L2.65642 24.0837L2.90546 24.0659L3.45023 24.2414L3.5672 24.5693L3.46677 24.8518L3.34158 25.0411L2.71008 25.3594L2.21762 25.5116L1.23262 25.5774Z" fill="var(--fill-0, #71B219)" stroke="var(--stroke-0, white)" mask="url(#path-1-inside-1_0_114)"/>
</g>
</svg>
