<svg preserveAspectRatio="none" width="100%" height="100%" overflow="visible" style="display: block;" viewBox="0 0 19 26" fill="none" xmlns="http://www.w3.org/2000/svg"><g id="KR"><mask id="path-1-inside-1_0_114" fill="white"><path d="M2 4L2 4L2 4L2 4L3 3L3 2L4 2L4 2L4 2L4 2L5 2L6 2L6 2L7 2L7 2L7 2L8 2L8 2L8 1L9 1L9 0L9 0L9 0L10 2L11 4L12 5L13 7L13 8L13 8L13 9L13 10L13 10L13 11L13 11L13 12L13 12L13 12L13 13L13 13L14 12L14 12L14 13L13 14L13 15L13 16L12 16L12 17L12 17L11 17L10 17L10 17L10 17L9 17L9 18L9 18L9 18L9 18L8 18L8 18L8 17L8 17L7 18L7 18L6 18L6 18L6 18L7 18L7 19L6 19L6 18L6 18L6 18L5 18L5 19L6 19L6 19L5 19L5 20L5 20L4 20L5 19L5 19L5 19L5 18L4 19L3 20L3 20L3 20L3 20L2 20L2 20L2 20L2 20L2 20L2 20L1 19L1 19L1 19L2 19L2 19L2 19L2 18L2 18L2 18L2 18L2 18L2 18L2 18L1 17L1 17L1 16L2 16L2 15L2 15L2 15L2 15L2 15L2 14L2 14L2 14L2 14L3 14L3 13L3 13L2 13L2 13L3 13L3 12L2 12L2 12L2 12L2 11L2 11L2 10L2 10L2 9L2 9L2 10L1 9L1 9L1 9L1 8L1 8L2 8L2 8L2 8L3 8L3 8L3 9L3 9L3 8L4 8L4 8L4 8L3 8L3 7L3 7L3 7L3 6L3 6L2 6L2 5L2 5L2 5L2 4L2 4L2 4L2 4ZM2 4L2 5L2 5L2 5L2 5L1 4L2 4L2 4L2 4ZM19 6L19 6L19 6L18 5L19 5L19 5L19 5L19 6ZM2 10L2 11L1 10L1 10L2 10L2 10ZM11 18L10 19L10 18L10 18L10 18L10 17L10 17L11 18ZM8 18L8 19L8 19L8 18L7 19L7 19L7 18L7 18L7 18L8 18L8 18L8 18ZM1 19L1 19L0 19L0 18L0 18L0 18L0 18L1 18L1 19ZM7 19L7 19L7 19L7 19L7 19ZM1 20L1 20L0 20L0 20L0 20L1 20L1 19L1 20L1 20L1 20L1 20ZM3 20L3 21L3 21L2 20L2 20L3 20L3 20ZM1 26L1 26L1 26L1 26L1 25L1 25L1 25L1 24L3 24L3 24L4 24L4 25L4 25L3 25L3 25L2 26L1 26Z"/></mask><path d="M2 4L2 4L2 4L2 4L3 3L3 2L4 2L4 2L4 2L4 2L5 2L6 2L6 2L7 2L7 2L7 2L8 2L8 2L8 1L9 1L9 0L9 0L9 0L10 2L11 4L12 5L13 7L13 8L13 8L13 9L13 10L13 10L13 11L13 11L13 12L13 12L13 12L13 13L13 13L14 12L14 12L14 13L13 14L13 15L13 16L12 16L12 17L12 17L11 17L10 17L10 17L10 17L9 17L9 18L9 18L9 18L9 18L8 18L8 18L8 17L8 17L7 18L7 18L6 18L6 18L6 18L7 18L7 19L6 19L6 18L6 18L6 18L5 18L5 19L6 19L6 19L5 19L5 20L5 20L4 20L5 19L5 19L5 19L5 18L4 19L3 20L3 20L3 20L3 20L2 20L2 20L2 20L2 20L2 20L2 20L1 19L1 19L1 19L2 19L2 19L2 19L2 18L2 18L2 18L2 18L2 18L2 18L2 18L1 17L1 17L1 16L2 16L2 15L2 15L2 15L2 15L2 15L2 14L2 14L2 14L2 14L3 14L3 13L3 13L2 13L2 13L3 13L3 12L2 12L2 12L2 12L2 11L2 11L2 10L2 10L2 9L2 9L2 10L1 9L1 9L1 9L1 8L1 8L2 8L2 8L2 8L3 8L3 8L3 9L3 9L3 8L4 8L4 8L4 8L3 8L3 7L3 7L3 7L3 6L3 6L2 6L2 5L2 5L2 5L2 4L2 4L2 4L2 4ZM2 4L2 5L2 5L2 5L2 5L1 4L2 4L2 4L2 4ZM19 6L19 6L19 6L18 5L19 5L19 5L19 5L19 6ZM2 10L2 11L1 10L1 10L2 10L2 10ZM11 18L10 19L10 18L10 18L10 18L10 17L10 17L11 18ZM8 18L8 19L8 19L8 18L7 19L7 19L7 18L7 18L7 18L8 18L8 18L8 18ZM1 19L1 19L0 19L0 18L0 18L0 18L0 18L1 18L1 19ZM7 19L7 19L7 19L7 19L7 19ZM1 20L1 20L0 20L0 20L0 20L1 20L1 19L1 20L1 20L1 20L1 20ZM3 20L3 21L3 21L2 20L2 20L3 20L3 20ZM1 26L1 26L1 26L1 26L1 25L1 25L1 25L1 24L3 24L3 24L4 24L4 25L4 25L3 25L3 25L2 26L1 26Z" fill="var(--fill-0,#71B219)" stroke="var(--stroke-0,white)" mask="url(#path-1-inside-1_0_114)"/></g></svg>