<svg preserveAspectRatio="none" width="100%" height="100%" overflow="visible" style="display: block;" viewBox="0 0 7.37781 6.87067" fill="none" xmlns="http://www.w3.org/2000/svg">
<path id="KW" d="M4.36426 0.255859L4.63184 0.326172L5.31543 0.652344L5.3125 0.68457L5.32422 0.729492L5.44727 1.2168L5.45508 1.24512L5.46777 1.27051L5.74414 1.80176L5.74512 1.80273L5.81445 1.93457L5.62012 1.88086L5.48145 1.84277L5.37793 1.94238L4.79297 2.50879L4.44531 2.8125L4.37012 2.87891L4.36133 2.97852L4.35156 3.08398L4.33203 3.29688L4.53906 3.34961L5.0127 3.46875L5.04395 3.47656H5.0752L5.42383 3.47363L5.46484 3.47266L5.50293 3.45996L5.62891 3.41504L5.66504 3.43848L5.76172 3.69043L5.81152 3.95508L5.81445 3.9707L5.81934 3.98535L6.14062 4.99902L6.1543 5.04102L6.18164 5.07715L6.43457 5.39941L6.75098 5.97168L6.86426 6.25879L6.93262 6.50879L6.94043 6.53516L6.95312 6.55957L6.96582 6.58496L6.70312 6.58887H6.70215L5.85645 6.60254L5.1709 6.61133L4.51562 6.61914L4.28711 6.3418L4.18652 5.94434L4.18555 5.94043L4.06152 5.47559L4.05469 5.4502L4.04297 5.42578L3.70312 4.7627L3.64355 4.64648L3.51562 4.62891L2.37891 4.46777H2.37793L1.77539 4.38184H1.77148L0.777344 4.25488L0.498047 4.21875L0.81543 3.85742L0.827148 3.84375L1.11816 3.45801L1.125 3.44922L1.13086 3.44043L1.65723 2.60547L1.66602 2.59082L1.67383 2.5752L1.94434 1.97852L1.94922 1.9668L2.20996 1.30371L2.42773 0.807617L2.46289 0.735352L2.55371 0.613281L2.78516 0.46875L3.14551 0.323242L3.8125 0.25293L4.28809 0.25L4.36426 0.255859ZM6.7627 1.46387L6.76074 1.62988L6.75391 1.66113L6.57324 1.88281L6.5127 1.91016L6.44141 1.79199L6.25977 1.33496L6.32715 1.21973L6.36426 1.15625L6.36035 1.08398L6.35938 1.08105L6.4209 1.04395L6.43652 0.987305L6.7627 1.46387Z" fill="var(--fill-0, #71B219)" stroke="var(--stroke-0, white)" stroke-width="0.5"/>
</svg>
