<svg preserveAspectRatio="none" width="100%" height="100%" overflow="visible" style="display: block;" viewBox="0 0 7 7" fill="none" xmlns="http://www.w3.org/2000/svg"><path id="KW" d="M4 0L5 0L5 1L5 1L5 1L5 1L6 1L6 1L6 2L6 2L6 2L6 2L6 2L5 2L5 2L4 3L4 3L4 3L4 3L4 3L4 3L5 4L5 4H5L5 4L6 4L6 4L6 3L6 3L6 4L6 4L6 4L6 4L6 5L6 5L6 5L6 5L7 6L7 6L7 6L7 6L7 7L7 7L7 7H7L6 7L5 7L4 7L4 6L4 6L4 6L4 6L4 6L4 5L4 5L4 5L4 5L2 4H2L2 4H2L1 4L0 4L1 4L1 4L1 4L1 3L1 3L2 3L2 3L2 3L2 2L2 2L2 1L2 1L2 1L3 1L3 0L3 0L4 0L4 0L4 0ZM7 2L7 2L7 2L7 2L6 2L6 2L6 1L6 1L6 1L6 1L6 1L6 1L6 1L7 2Z" fill="var(--fill-0,#71B219)" stroke="var(--stroke-0,white)" stroke-width="0"/></svg>