<svg preserveAspectRatio="none" width="100%" height="100%" overflow="visible" style="display: block;" viewBox="0 0 6 2" fill="none" xmlns="http://www.w3.org/2000/svg"><g id="KY"><mask id="path-1-inside-1_0_113" fill="white"><path d="M6 0L6 0L6 0L6 0L6 0L6 0H6L6 0V0L6 0ZM6 0L6 0L5 0L5 0L5 0L5 0L5 0L5 0L5 0L5 0L6 0L6 0L6 0ZM0 2L0 2L0 2L0 2L1 2L1 2L1 2L0 2L0 2L0 2L0 2L0 2L0 2Z"/></mask><path d="M6 0L6 0L6 0L6 0L6 0L6 0H6L6 0V0L6 0ZM6 0L6 0L5 0L5 0L5 0L5 0L5 0L5 0L5 0L5 0L6 0L6 0L6 0ZM0 2L0 2L0 2L0 2L1 2L1 2L1 2L0 2L0 2L0 2L0 2L0 2L0 2Z" fill="var(--fill-0,#71B219)"/><path d="M6 0L6 1L6 1L6 1L6 0ZM6 0L6 1L6 1L6 1L6 0ZM6 0L6 0L4 0L6 1L6 0ZM6 0L6 0L6 0L6 0L6 0ZM6 0L6 0L6 0L6 0L6 0ZM6 0V0H6L6 0L6 0ZM6 0L7 0L6 0H6V0ZM6 0H7V0L7 0L6 0ZM6 0L7 0L7 0V0H6ZM6 0L5 0L5 0L5 0L6 0ZM6 0L6 1L6 1L6 1L6 0ZM5 0L6 0L5 0L5 0L5 0ZM5 0L5 1L5 1L5 1L5 0ZM5 0L5 0L4 1L5 1L5 0ZM5 0L5 0L5 0L5 0L5 0ZM5 0L5 0L5 0L5 0L5 0ZM5 0L5 0L5 0L5 0L5 0ZM5 0L5 0L5 0L5 0L5 0ZM5 0L5 0L5 0L5 0L5 0ZM6 0L6 0L6 0L6 0L6 0ZM6 0L6 1L7 0L6 0L6 0ZM0 2L0 2L0 2L0 2L0 2ZM0 2L0 2L0 2L0 2L0 2ZM0 2L1 2L1 2L1 2L0 2ZM0 2L1 1L0 1L0 1L0 2ZM1 2L2 2L1 1L1 1L1 2ZM1 2L1 2L2 2L2 2L1 2ZM1 2L1 1L1 1L0 1L1 2ZM0 2L1 2L1 2L1 2L0 2ZM0 2L0 2L0 2L1 2L0 2ZM0 2L0 2L0 2L0 2L0 2ZM0 2L0 1L-1 1L0 2L0 2ZM0 2L0 1L0 1L0 1L0 2ZM6 0L6 0L6 0L6 0L6 1L6 1L6 0ZM6 0L6 0L6 0L6 0L6 1L6 1L6 0ZM6 0L6 1L6 0L6 0L6 0L6 0L6 0ZM6 0L6 0L6 0L6 0L6 0L6 0L6 0ZM6 0L6 0L6 0L6 0L6 0L6 0L6 0ZM6 0V0H6V0V0H6V0ZM6 0L6 0L6 0L6 0L7 0L7 0L6 0ZM6 0H6V0H6H7V0H6ZM6 0L6 0L6 0L6 0L6 1L7 0L6 0ZM6 0L5 0L5 0L6 0L6 1L6 1L6 0ZM6 0L6 0L6 0L5 0L5 1L6 1L6 0ZM5 0L5 0L5 0L5 0L5 1L6 1L5 0ZM5 0L5 0L5 0L5 0L5 1L5 1L5 0ZM5 0L5 1L6 1L5 0L5 0L5 0L5 0ZM5 0L5 1L5 1L5 0L5 0L5 0L5 0ZM5 0L5 1L5 1L5 0L5 0L5 0L5 0ZM5 0L5 1L5 1L5 0L5 0L5 0L5 0ZM5 0L5 1L6 1L5 0L5 0L5 0L5 0ZM5 0L5 1L6 1L6 0L6 0L5 0L5 0ZM6 0L5 1L5 1L6 0L6 0L6 0L6 0ZM6 0L5 0L5 0L6 0L6 1L6 1L6 0ZM0 2L0 2L0 2L0 2L1 1L0 1L0 2ZM0 2L0 2L1 2L0 2L0 1L0 1L0 2ZM0 2L1 2L1 2L0 2L0 1L0 2L0 2ZM0 2L0 2L1 2L1 2L1 1L1 1L0 2ZM1 2L1 2L1 2L1 2L2 2L2 2L1 2ZM1 2L1 1L1 1L1 2L1 2L1 2L1 2ZM1 2L0 1L0 2L0 2L1 2L1 2L1 2ZM0 2L0 2L0 2L0 2L1 2L1 2L0 2ZM0 2L0 2L0 2L0 2L0 2L0 2L0 2ZM0 2L1 2L0 2L0 2L0 2L0 2L0 2ZM0 2L0 2L0 2L0 2L0 1L0 1L0 2ZM0 2L0 2L0 2L0 2L1 1L0 1L0 2Z" fill="var(--stroke-0,white)" mask="url(#path-1-inside-1_0_113)"/></g></svg>