<svg preserveAspectRatio="none" width="100%" height="100%" overflow="visible" style="display: block;" viewBox="0 0 6.47403 2.00262" fill="none" xmlns="http://www.w3.org/2000/svg">
<g id="KY">
<mask id="path-1-inside-1_0_113" fill="white">
<path d="M6.16174 0.21943L5.98152 0.281173L5.8412 0.256476L6.1576 0.0877802L6.23877 0.0301391L6.30893 0H6.38185L6.47403 0.0342833V0.0603201L6.16174 0.21943ZM5.56193 0.234541L5.52341 0.257857L5.3996 0.240025L5.11622 0.405999L4.99377 0.396413L5.03091 0.338772L5.09006 0.283936L5.1561 0.244127L5.218 0.227676L5.4161 0.194774L5.50966 0.19063L5.57431 0.227676L5.56193 0.234541ZM0.192596 1.6926L0.317789 1.7708L0.474616 1.72279L0.52002 1.63639L1.11569 1.69947L1.20512 1.86821L0.751136 1.87231L0.54754 1.98068L0.445732 2.00262L0.0564039 1.97654L0 1.58561L0.108694 1.54446L0.192596 1.6926Z"/>
</mask>
<path d="M6.16174 0.21943L5.98152 0.281173L5.8412 0.256476L6.1576 0.0877802L6.23877 0.0301391L6.30893 0H6.38185L6.47403 0.0342833V0.0603201L6.16174 0.21943ZM5.56193 0.234541L5.52341 0.257857L5.3996 0.240025L5.11622 0.405999L4.99377 0.396413L5.03091 0.338772L5.09006 0.283936L5.1561 0.244127L5.218 0.227676L5.4161 0.194774L5.50966 0.19063L5.57431 0.227676L5.56193 0.234541ZM0.192596 1.6926L0.317789 1.7708L0.474616 1.72279L0.52002 1.63639L1.11569 1.69947L1.20512 1.86821L0.751136 1.87231L0.54754 1.98068L0.445732 2.00262L0.0564039 1.97654L0 1.58561L0.108694 1.54446L0.192596 1.6926Z" fill="var(--fill-0, #71B219)"/>
<path d="M6.16174 0.21943L6.3238 0.692437L6.35723 0.680983L6.38872 0.664939L6.16174 0.21943ZM5.98152 0.281173L5.89486 0.773605L6.02172 0.795933L6.14358 0.754181L5.98152 0.281173ZM5.8412 0.256476L5.60596 -0.184732L4.3263 0.497541L5.75453 0.748907L5.8412 0.256476ZM6.1576 0.0877802L6.39284 0.528987L6.42103 0.513954L6.44709 0.495453L6.1576 0.0877802ZM6.23877 0.0301391L6.04141 -0.429259L5.9926 -0.40829L5.94929 -0.377534L6.23877 0.0301391ZM6.30893 0V-0.5H6.20607L6.11156 -0.459398L6.30893 0ZM6.38185 0L6.55616 -0.468634L6.47183 -0.5H6.38185V0ZM6.47403 0.0342833H6.97403V-0.313211L6.64833 -0.434351L6.47403 0.0342833ZM6.47403 0.0603201L6.70101 0.505829L6.97403 0.366729V0.0603201H6.47403ZM5.56193 0.234541L5.31952 -0.20277L5.31118 -0.198143L5.30301 -0.193201L5.56193 0.234541ZM5.52341 0.257857L5.45213 0.75275L5.62924 0.77826L5.78232 0.685599L5.52341 0.257857ZM5.3996 0.240025L5.47088 -0.254868L5.2978 -0.279798L5.14691 -0.191422L5.3996 0.240025ZM5.11622 0.405999L5.07719 0.904474L5.23356 0.916716L5.36891 0.837446L5.11622 0.405999ZM4.99377 0.396413L4.57345 0.125628L4.11997 0.829534L4.95475 0.894888L4.99377 0.396413ZM5.03091 0.338772L4.69099 -0.0279091L4.64474 0.0149675L4.61058 0.0679867L5.03091 0.338772ZM5.09006 0.283936L4.83193 -0.14428L4.78787 -0.11772L4.75014 -0.0827455L5.09006 0.283936ZM5.1561 0.244127L5.02768 -0.239101L4.95891 -0.220825L4.89797 -0.184088L5.1561 0.244127ZM5.218 0.227676L5.13608 -0.265567L5.11259 -0.261666L5.08959 -0.255552L5.218 0.227676ZM5.4161 0.194774L5.39397 -0.304736L5.36389 -0.303403L5.33418 -0.298469L5.4161 0.194774ZM5.50966 0.19063L5.75824 -0.243199L5.63241 -0.315298L5.48753 -0.30888L5.50966 0.19063ZM5.57431 0.227676L5.81672 0.664987L6.59262 0.234897L5.82289 -0.206153L5.57431 0.227676ZM0.192596 1.6926L-0.242471 1.93901L-0.179924 2.04945L-0.0722785 2.11668L0.192596 1.6926ZM0.317789 1.7708L0.0529143 2.19488L0.246225 2.31562L0.46416 2.24889L0.317789 1.7708ZM0.474616 1.72279L0.620987 2.20088L0.820268 2.13987L0.91722 1.95538L0.474616 1.72279ZM0.52002 1.63639L0.572677 1.13917L0.235259 1.10343L0.0774164 1.40379L0.52002 1.63639ZM1.11569 1.69947L1.55749 1.46534L1.43291 1.23027L1.16835 1.20225L1.11569 1.69947ZM1.20512 1.86821L1.20964 2.36819L2.03202 2.36076L1.64691 1.63408L1.20512 1.86821ZM0.751136 1.87231L0.746618 1.37233L0.624232 1.37344L0.516195 1.43094L0.751136 1.87231ZM0.54754 1.98068L0.652848 2.46947L0.720969 2.45479L0.782481 2.42205L0.54754 1.98068ZM0.445732 2.00262L0.412315 2.5015L0.482387 2.50619L0.55104 2.4914L0.445732 2.00262ZM0.0564039 1.97654L-0.438472 2.04794L-0.380695 2.44838L0.0229868 2.47542L0.0564039 1.97654ZM0 1.58561L-0.177025 1.118L-0.552155 1.26001L-0.494876 1.65701L0 1.58561ZM0.108694 1.54446L0.543761 1.29806L0.332529 0.925095L-0.0683315 1.07685L0.108694 1.54446ZM6.16174 0.21943L5.99968 -0.253578L5.81946 -0.191835L5.98152 0.281173L6.14358 0.754181L6.3238 0.692437L6.16174 0.21943ZM5.98152 0.281173L6.06819 -0.211259L5.92786 -0.235956L5.8412 0.256476L5.75453 0.748907L5.89486 0.773605L5.98152 0.281173ZM5.8412 0.256476L6.07643 0.697683L6.39284 0.528987L6.1576 0.0877802L5.92236 -0.353427L5.60596 -0.184732L5.8412 0.256476ZM6.1576 0.0877802L6.44709 0.495453L6.52826 0.437812L6.23877 0.0301391L5.94929 -0.377534L5.86811 -0.319893L6.1576 0.0877802ZM6.23877 0.0301391L6.43614 0.489537L6.50629 0.459398L6.30893 0L6.11156 -0.459398L6.04141 -0.429259L6.23877 0.0301391ZM6.30893 0V0.5H6.38185V0V-0.5H6.30893V0ZM6.38185 0L6.20755 0.468634L6.29972 0.502917L6.47403 0.0342833L6.64833 -0.434351L6.55616 -0.468634L6.38185 0ZM6.47403 0.0342833H5.97403V0.0603201H6.47403H6.97403V0.0342833H6.47403ZM6.47403 0.0603201L6.24704 -0.385189L5.93475 -0.226079L6.16174 0.21943L6.38872 0.664939L6.70101 0.505829L6.47403 0.0603201ZM5.56193 0.234541L5.30301 -0.193201L5.26449 -0.169885L5.52341 0.257857L5.78232 0.685599L5.82084 0.662283L5.56193 0.234541ZM5.52341 0.257857L5.59469 -0.237036L5.47088 -0.254868L5.3996 0.240025L5.32832 0.734918L5.45213 0.75275L5.52341 0.257857ZM5.3996 0.240025L5.14691 -0.191422L4.86352 -0.0254476L5.11622 0.405999L5.36891 0.837446L5.65229 0.671471L5.3996 0.240025ZM5.11622 0.405999L5.15524 -0.0924756L5.0328 -0.102062L4.99377 0.396413L4.95475 0.894888L5.07719 0.904474L5.11622 0.405999ZM4.99377 0.396413L5.4141 0.667199L5.45123 0.609558L5.03091 0.338772L4.61058 0.0679867L4.57345 0.125628L4.99377 0.396413ZM5.03091 0.338772L5.37083 0.705453L5.42998 0.650617L5.09006 0.283936L4.75014 -0.0827455L4.69099 -0.0279091L5.03091 0.338772ZM5.09006 0.283936L5.34819 0.712151L5.41423 0.672342L5.1561 0.244127L4.89797 -0.184088L4.83193 -0.14428L5.09006 0.283936ZM5.1561 0.244127L5.28452 0.727354L5.34642 0.710903L5.218 0.227676L5.08959 -0.255552L5.02768 -0.239101L5.1561 0.244127ZM5.218 0.227676L5.29993 0.720919L5.49802 0.688017L5.4161 0.194774L5.33418 -0.298469L5.13608 -0.265567L5.218 0.227676ZM5.4161 0.194774L5.43823 0.694284L5.53178 0.69014L5.50966 0.19063L5.48753 -0.30888L5.39397 -0.304736L5.4161 0.194774ZM5.50966 0.19063L5.26108 0.624459L5.32573 0.661505L5.57431 0.227676L5.82289 -0.206153L5.75824 -0.243199L5.50966 0.19063ZM5.57431 0.227676L5.33191 -0.209635L5.31952 -0.20277L5.56193 0.234541L5.80433 0.671852L5.81672 0.664987L5.57431 0.227676ZM0.192596 1.6926L-0.0722785 2.11668L0.0529143 2.19488L0.317789 1.7708L0.582664 1.34672L0.457471 1.26853L0.192596 1.6926ZM0.317789 1.7708L0.46416 2.24889L0.620987 2.20088L0.474616 1.72279L0.328245 1.24469L0.171418 1.2927L0.317789 1.7708ZM0.474616 1.72279L0.91722 1.95538L0.962624 1.86898L0.52002 1.63639L0.0774164 1.40379L0.0320119 1.49019L0.474616 1.72279ZM0.52002 1.63639L0.467364 2.13361L1.06304 2.19669L1.11569 1.69947L1.16835 1.20225L0.572677 1.13917L0.52002 1.63639ZM1.11569 1.69947L0.673899 1.9336L0.763323 2.10234L1.20512 1.86821L1.64691 1.63408L1.55749 1.46534L1.11569 1.69947ZM1.20512 1.86821L1.2006 1.36823L0.746618 1.37233L0.751136 1.87231L0.755654 2.37229L1.20964 2.36819L1.20512 1.86821ZM0.751136 1.87231L0.516195 1.43094L0.312599 1.53932L0.54754 1.98068L0.782481 2.42205L0.986077 2.31367L0.751136 1.87231ZM0.54754 1.98068L0.442232 1.4919L0.340423 1.51383L0.445732 2.00262L0.55104 2.4914L0.652848 2.46947L0.54754 1.98068ZM0.445732 2.00262L0.479149 1.50374L0.089821 1.47766L0.0564039 1.97654L0.0229868 2.47542L0.412315 2.5015L0.445732 2.00262ZM0.0564039 1.97654L0.551279 1.90514L0.494876 1.51421L0 1.58561L-0.494876 1.65701L-0.438472 2.04794L0.0564039 1.97654ZM0 1.58561L0.177025 2.05322L0.285719 2.01208L0.108694 1.54446L-0.0683315 1.07685L-0.177025 1.118L0 1.58561ZM0.108694 1.54446L-0.326374 1.79087L-0.242471 1.93901L0.192596 1.6926L0.627663 1.4462L0.543761 1.29806L0.108694 1.54446Z" fill="var(--stroke-0, white)" mask="url(#path-1-inside-1_0_113)"/>
</g>
</svg>
