<svg preserveAspectRatio="none" width="100%" height="100%" overflow="visible" style="display: block;" viewBox="0 0 157 86" fill="none" xmlns="http://www.w3.org/2000/svg"><g id="KZ"><mask id="path-1-inside-1_0_110" fill="white"><path d="M157 40L157 40L156 40L156 40L156 40L155 40L155 40L155 40L155 41L155 42L155 42L154 43L154 43L154 43L153 43L152 44L151 44L151 44L151 44L151 44L151 45L150 46L150 46L150 47L150 48L150 49L151 49L151 50L151 50L150 50L150 51L150 51L150 51L149 51L149 52L148 52L148 52L147 52L147 52L147 52L147 52L147 52L146 52L146 52L145 52L145 52L144 52L144 52L143 52L143 51L142 51L141 50L141 50L141 50L141 51L140 51L140 52L140 54L139 55L139 56L139 57L138 58L138 59L138 59L138 60L138 60L138 60L139 60L139 60L139 61L139 61L139 62L139 62L139 62L138 62L138 62L138 62L138 62L137 62L137 62L136 62L136 62L136 61L136 61L135 61L135 61L134 61L133 62L132 62L132 62L131 62L131 62L130 62L130 62L129 63L129 63L128 63L128 63L129 64L129 64L129 64L130 64L130 64L131 64L131 64L131 64L130 64L130 64L130 65L130 65L130 66L130 66L130 67L130 67L130 68L130 68L131 68L131 69L131 70L131 70L132 71L132 72L132 72L132 72L132 72L132 72L132 73L132 73L131 73L131 73L130 73L130 73L130 73L130 74L131 74L131 74L131 74L130 74L130 74L130 75L130 75L130 75L130 76L130 76L130 77L130 77L130 77L130 78L129 77L129 76L128 76L127 76L127 76L127 76L126 76L126 75L126 75L126 75L126 74L125 74L125 74L125 74L124 74L124 74L123 74L123 74L122 74L121 74L120 74L120 74L119 74L119 74L119 74L118 74L118 74L117 73L117 74L116 74L115 74L114 74L113 74L113 74L113 74L112 74L112 74L111 74L110 74L109 73L108 73L107 72L106 72L106 72L106 72L106 72L106 72L105 73L105 73L104 73L104 73L104 75L104 75L104 76L104 76L103 76L103 76L103 76L101 76L101 75L101 75L101 75L100 75L99 75L99 75L97 74L97 74L97 74L96 74L96 74L96 74L95 75L95 75L94 76L94 76L94 76L94 76L94 77V77L94 77L94 77L93 78L93 78L93 78L93 78L93 78L92 78L92 78L92 78L92 78L91 79L91 79L90 80L90 80L89 80L89 80L88 81L88 81L87 81L87 82L87 82L87 82L86 83L86 83L85 83L85 84L85 84L85 84L85 85L85 85L85 85L85 86L84 86L84 86L84 85L83 85L83 85L83 85L83 84L83 84L83 84L83 83L83 83L82 83L82 83L82 83L82 83L82 83L81 83L80 83L80 83L79 83L78 83L78 83L78 83L77 82L77 82L77 81L77 80L77 80L77 79L77 78L76 78L76 78L75 78L75 78L75 78L75 77L75 76L75 75L75 74L75 74L75 73L75 74L74 74L74 74L74 74L74 73L73 72L73 72L72 71L72 71L72 71L71 70L71 70L71 70L70 70L70 70L70 70L69 70L69 70L68 70L68 70L67 70L66 70L66 70L65 70L64 70L64 70L63 70L62 70L61 70L60 71L60 71L59 71L59 70L58 70L58 69L58 69L57 68L57 68L56 67L56 67L56 66L56 66L55 66L54 65L54 65L54 64L53 64L52 64L52 64L51 63L51 63L50 62L50 62L49 62L49 61L48 61L48 61L47 60L47 60L46 60L46 60L45 60L44 60L44 60L43 61L42 61L41 61L41 61L40 61L39 62L38 62L38 62L37 62L37 62L36 63V64V65L36 66V68V69L36 70V71V72V74L36 75V76V77L36 78V80V81L36 82L36 82L36 82L35 82L34 82L34 82L34 82L34 82L34 82L33 81L33 81L33 80L32 80L32 79L32 79L32 79L31 78L30 78L30 77L29 77L29 77L29 77L28 77L27 77L27 77L26 78L25 78L25 78L24 78L24 79L23 80L23 79L23 78L23 78L23 77L23 77L23 76L23 76L23 75L23 74L23 74L22 74L22 74L22 74L22 74L21 74L21 74L21 74L20 74L20 74L20 74L20 73L20 73L19 72L19 72L18 72L18 72L18 72L18 71L18 71L18 71L18 70L18 70L18 70L17 69L17 68L16 67L16 67L16 67L15 66L14 66L14 66L14 66L14 66L14 65L14 65L15 65L16 65L16 65L17 65L17 65L18 65L18 65L18 65L19 65L19 65L19 65L18 65L18 65L18 64L17 64L17 63L17 63L17 63L18 62L18 62L18 61L18 61L19 61L19 61L20 60L21 60L22 60L23 60L24 61L24 61L25 61L26 61L25 60L24 60L24 60L24 58L25 57L25 56L25 55L25 54L25 54L25 54L25 54L25 53L25 52L25 52L24 52L23 52L23 52L22 52L22 52L22 52L22 52L21 53L21 52L21 52L21 52L20 52L20 52L19 51L18 51L18 51L17 51L16 52L16 52L15 52L15 52L15 52L15 52L14 53L14 53L13 54L13 54L12 54L12 54L12 54L11 54L11 54L11 54L11 55L10 55L10 55L10 55L10 55L9 55L8 54L8 54L8 54L8 54L7 54L7 53L7 53L8 53L8 53L8 53L8 53L8 53L9 53L9 53L9 53L9 52L8 51L8 50L8 50L7 49L6 48L6 48L6 47L5 47L4 47L3 47L3 47L3 47L2 47L2 47L2 46L2 46L2 45L2 45L2 44L1 44L0 44L0 43L0 41L1 40L1 40L2 40L2 39L2 39L1 39L1 38L1 38L1 37L1 36L2 35L2 35L2 34L3 34L3 33L3 33L3 33L3 32L3 32L4 32L4 32L4 32L5 32L6 34L6 34L6 35L7 35L7 35L8 35L8 35L8 34L9 34L8 34L8 33L8 33L8 32L8 31L8 30L8 30L8 31L8 31L9 30L10 30L10 29L11 29L11 28L11 28L12 28L12 27L13 27L14 27L14 26L14 26L14 26L15 25L16 25L16 24L16 24L16 24L17 24L18 24L18 24L18 25L18 25L18 25L18 25L19 25L19 25L20 25L21 24L22 24L22 24L22 24L23 25L23 25L23 25L23 25L24 25L24 25L24 25L24 25L25 25L26 25L26 25L26 25L26 25L27 26L27 27L28 27L28 27L29 28L29 28L29 28L30 29L30 30L30 30L30 31L30 31L31 31L31 31L31 31L31 30L31 30L31 29L31 29L31 28L31 28L31 28L31 28L32 28L32 29L33 30L34 30L34 31L35 31L36 31L36 30L36 30L37 30L37 29L38 29L38 28L38 28L39 28L39 28L40 28L40 28L41 28L41 28L42 29L42 29L43 29L43 28L43 28L43 28L43 28L44 28L45 28L45 28L45 28L46 28L46 29L47 30L47 30L48 30L48 30L48 30L50 30L50 31L50 31L50 31L50 31L51 31L51 31L51 30L52 29L52 29L52 29L52 29L52 30L53 30L53 30L54 30L54 30L55 30L56 30L57 29L57 28L58 27L58 27L58 26L57 26L57 26L56 25L56 25L56 25L54 24L54 24L53 24L53 23L53 23L52 23L52 22L52 22L53 22L53 21L54 21L54 21L55 20L55 20L56 20L56 20L55 18L55 18L55 17L55 17L55 17L56 16L56 16L56 16L57 16L58 16L58 16L59 16L59 16L60 16L60 16L60 15L60 15L58 15L58 14L58 14L57 14L57 14L56 14L56 14L56 13L56 13L57 13L57 13L58 13L58 12L58 12L58 12L57 12L57 12L57 12L56 12L56 12L56 12L56 12L56 11L56 11V10V10L56 10L56 9L57 9L58 9L59 10L59 10L59 9L60 9L61 9L62 9L62 9L64 8L64 8L64 8L64 8L65 8L66 8L66 8L66 8L66 8L67 8L67 7L67 7L68 7L69 7L69 7L70 7L70 7L71 7L71 7L71 7L72 7L72 6L72 6L72 6L72 6L73 5L73 5L74 5L74 5L75 5L76 5L77 4L78 4L79 4L80 4L81 4L81 4L82 3L82 3L83 3L83 3L83 3L84 2L83 2L83 2L84 1L84 1L85 1L85 0L86 0L86 0L87 0L88 0L89 1L90 1L90 1L91 1L91 2L91 1L92 1L92 1L92 1L93 1L93 1L94 2L94 3L95 4L95 5L95 6L95 6L95 7L94 8L94 8L96 8L97 8L98 8L98 8L98 8L98 7L99 7L99 8L99 8L100 8L100 9L100 10L100 10L100 9L100 9L100 9L100 9L100 9L100 8L100 8L101 8L102 8L102 9L103 10L103 10L103 10L104 9L104 9L104 9L104 9L105 9L105 9L104 10L104 10L103 10L103 11L103 12L103 12L103 12L103 13L103 13L104 13L104 12L105 12L105 12L106 12L106 12L107 12L107 13L107 12L107 12L107 12L108 12L108 11L109 10L109 10L110 10L110 10L110 10L111 9L111 9L111 9L111 9L112 8L112 8L113 8L114 8L114 7L115 7L116 7L116 7L116 6L117 6L116 7L116 8L116 8L115 8L115 8L115 9L115 9L115 9L116 10L117 10L118 11L119 12L120 13L120 14L121 14L121 15L122 16L123 18L124 20L125 22L126 23L127 25L127 26L128 27L128 28L129 30L129 30L129 29L129 29L129 29L130 29L130 29L130 29L130 28L131 28L131 28L130 27L131 27L131 27L131 27L131 27L131 26L132 26L132 26L132 26L132 27L133 27L133 27L133 27L133 27L133 28L133 28L133 28L133 28L134 28L134 28L134 29L134 29L134 29L134 30L135 30L135 30L136 30L136 30L137 30L137 30L138 30L138 30L139 30L139 29L139 29L140 29L140 29L141 29L141 28L141 28L142 28H142L143 29L143 29L144 29L144 30L144 30L145 31L145 31L145 32L145 32L146 33H146L146 33L147 33L148 34L148 34L148 34L148 34L148 34L148 35L148 35L149 36L149 36L149 36L149 37L150 36L150 37L152 37L152 37L152 37L152 37L152 37L153 37L153 37L153 37L154 36L154 36L154 36L155 36L155 36L155 36L155 36L154 36L154 37L155 37L155 37L156 38L156 38L156 39L156 39L157 39L157 39L157 40ZM14 63L14 63L14 62L14 62L14 62L14 63L14 63ZM14 63L14 64L14 64L13 63L13 62L13 62L14 62L14 62L13 63L13 63L14 63L14 63Z"/></mask><path d="M157 40L157 40L156 40L156 40L156 40L155 40L155 40L155 40L155 41L155 42L155 42L154 43L154 43L154 43L153 43L152 44L151 44L151 44L151 44L151 44L151 45L150 46L150 46L150 47L150 48L150 49L151 49L151 50L151 50L150 50L150 51L150 51L150 51L149 51L149 52L148 52L148 52L147 52L147 52L147 52L147 52L147 52L146 52L146 52L145 52L145 52L144 52L144 52L143 52L143 51L142 51L141 50L141 50L141 50L141 51L140 51L140 52L140 54L139 55L139 56L139 57L138 58L138 59L138 59L138 60L138 60L138 60L139 60L139 60L139 61L139 61L139 62L139 62L139 62L138 62L138 62L138 62L138 62L137 62L137 62L136 62L136 62L136 61L136 61L135 61L135 61L134 61L133 62L132 62L132 62L131 62L131 62L130 62L130 62L129 63L129 63L128 63L128 63L129 64L129 64L129 64L130 64L130 64L131 64L131 64L131 64L130 64L130 64L130 65L130 65L130 66L130 66L130 67L130 67L130 68L130 68L131 68L131 69L131 70L131 70L132 71L132 72L132 72L132 72L132 72L132 72L132 73L132 73L131 73L131 73L130 73L130 73L130 73L130 74L131 74L131 74L131 74L130 74L130 74L130 75L130 75L130 75L130 76L130 76L130 77L130 77L130 77L130 78L129 77L129 76L128 76L127 76L127 76L127 76L126 76L126 75L126 75L126 75L126 74L125 74L125 74L125 74L124 74L124 74L123 74L123 74L122 74L121 74L120 74L120 74L119 74L119 74L119 74L118 74L118 74L117 73L117 74L116 74L115 74L114 74L113 74L113 74L113 74L112 74L112 74L111 74L110 74L109 73L108 73L107 72L106 72L106 72L106 72L106 72L106 72L105 73L105 73L104 73L104 73L104 75L104 75L104 76L104 76L103 76L103 76L103 76L101 76L101 75L101 75L101 75L100 75L99 75L99 75L97 74L97 74L97 74L96 74L96 74L96 74L95 75L95 75L94 76L94 76L94 76L94 76L94 77V77L94 77L94 77L93 78L93 78L93 78L93 78L93 78L92 78L92 78L92 78L92 78L91 79L91 79L90 80L90 80L89 80L89 80L88 81L88 81L87 81L87 82L87 82L87 82L86 83L86 83L85 83L85 84L85 84L85 84L85 85L85 85L85 85L85 86L84 86L84 86L84 85L83 85L83 85L83 85L83 84L83 84L83 84L83 83L83 83L82 83L82 83L82 83L82 83L82 83L81 83L80 83L80 83L79 83L78 83L78 83L78 83L77 82L77 82L77 81L77 80L77 80L77 79L77 78L76 78L76 78L75 78L75 78L75 78L75 77L75 76L75 75L75 74L75 74L75 73L75 74L74 74L74 74L74 74L74 73L73 72L73 72L72 71L72 71L72 71L71 70L71 70L71 70L70 70L70 70L70 70L69 70L69 70L68 70L68 70L67 70L66 70L66 70L65 70L64 70L64 70L63 70L62 70L61 70L60 71L60 71L59 71L59 70L58 70L58 69L58 69L57 68L57 68L56 67L56 67L56 66L56 66L55 66L54 65L54 65L54 64L53 64L52 64L52 64L51 63L51 63L50 62L50 62L49 62L49 61L48 61L48 61L47 60L47 60L46 60L46 60L45 60L44 60L44 60L43 61L42 61L41 61L41 61L40 61L39 62L38 62L38 62L37 62L37 62L36 63V64V65L36 66V68V69L36 70V71V72V74L36 75V76V77L36 78V80V81L36 82L36 82L36 82L35 82L34 82L34 82L34 82L34 82L34 82L33 81L33 81L33 80L32 80L32 79L32 79L32 79L31 78L30 78L30 77L29 77L29 77L29 77L28 77L27 77L27 77L26 78L25 78L25 78L24 78L24 79L23 80L23 79L23 78L23 78L23 77L23 77L23 76L23 76L23 75L23 74L23 74L22 74L22 74L22 74L22 74L21 74L21 74L21 74L20 74L20 74L20 74L20 73L20 73L19 72L19 72L18 72L18 72L18 72L18 71L18 71L18 71L18 70L18 70L18 70L17 69L17 68L16 67L16 67L16 67L15 66L14 66L14 66L14 66L14 66L14 65L14 65L15 65L16 65L16 65L17 65L17 65L18 65L18 65L18 65L19 65L19 65L19 65L18 65L18 65L18 64L17 64L17 63L17 63L17 63L18 62L18 62L18 61L18 61L19 61L19 61L20 60L21 60L22 60L23 60L24 61L24 61L25 61L26 61L25 60L24 60L24 60L24 58L25 57L25 56L25 55L25 54L25 54L25 54L25 54L25 53L25 52L25 52L24 52L23 52L23 52L22 52L22 52L22 52L22 52L21 53L21 52L21 52L21 52L20 52L20 52L19 51L18 51L18 51L17 51L16 52L16 52L15 52L15 52L15 52L15 52L14 53L14 53L13 54L13 54L12 54L12 54L12 54L11 54L11 54L11 54L11 55L10 55L10 55L10 55L10 55L9 55L8 54L8 54L8 54L8 54L7 54L7 53L7 53L8 53L8 53L8 53L8 53L8 53L9 53L9 53L9 53L9 52L8 51L8 50L8 50L7 49L6 48L6 48L6 47L5 47L4 47L3 47L3 47L3 47L2 47L2 47L2 46L2 46L2 45L2 45L2 44L1 44L0 44L0 43L0 41L1 40L1 40L2 40L2 39L2 39L1 39L1 38L1 38L1 37L1 36L2 35L2 35L2 34L3 34L3 33L3 33L3 33L3 32L3 32L4 32L4 32L4 32L5 32L6 34L6 34L6 35L7 35L7 35L8 35L8 35L8 34L9 34L8 34L8 33L8 33L8 32L8 31L8 30L8 30L8 31L8 31L9 30L10 30L10 29L11 29L11 28L11 28L12 28L12 27L13 27L14 27L14 26L14 26L14 26L15 25L16 25L16 24L16 24L16 24L17 24L18 24L18 24L18 25L18 25L18 25L18 25L19 25L19 25L20 25L21 24L22 24L22 24L22 24L23 25L23 25L23 25L23 25L24 25L24 25L24 25L24 25L25 25L26 25L26 25L26 25L26 25L27 26L27 27L28 27L28 27L29 28L29 28L29 28L30 29L30 30L30 30L30 31L30 31L31 31L31 31L31 31L31 30L31 30L31 29L31 29L31 28L31 28L31 28L31 28L32 28L32 29L33 30L34 30L34 31L35 31L36 31L36 30L36 30L37 30L37 29L38 29L38 28L38 28L39 28L39 28L40 28L40 28L41 28L41 28L42 29L42 29L43 29L43 28L43 28L43 28L43 28L44 28L45 28L45 28L45 28L46 28L46 29L47 30L47 30L48 30L48 30L48 30L50 30L50 31L50 31L50 31L50 31L51 31L51 31L51 30L52 29L52 29L52 29L52 29L52 30L53 30L53 30L54 30L54 30L55 30L56 30L57 29L57 28L58 27L58 27L58 26L57 26L57 26L56 25L56 25L56 25L54 24L54 24L53 24L53 23L53 23L52 23L52 22L52 22L53 22L53 21L54 21L54 21L55 20L55 20L56 20L56 20L55 18L55 18L55 17L55 17L55 17L56 16L56 16L56 16L57 16L58 16L58 16L59 16L59 16L60 16L60 16L60 15L60 15L58 15L58 14L58 14L57 14L57 14L56 14L56 14L56 13L56 13L57 13L57 13L58 13L58 12L58 12L58 12L57 12L57 12L57 12L56 12L56 12L56 12L56 12L56 11L56 11V10V10L56 10L56 9L57 9L58 9L59 10L59 10L59 9L60 9L61 9L62 9L62 9L64 8L64 8L64 8L64 8L65 8L66 8L66 8L66 8L66 8L67 8L67 7L67 7L68 7L69 7L69 7L70 7L70 7L71 7L71 7L71 7L72 7L72 6L72 6L72 6L72 6L73 5L73 5L74 5L74 5L75 5L76 5L77 4L78 4L79 4L80 4L81 4L81 4L82 3L82 3L83 3L83 3L83 3L84 2L83 2L83 2L84 1L84 1L85 1L85 0L86 0L86 0L87 0L88 0L89 1L90 1L90 1L91 1L91 2L91 1L92 1L92 1L92 1L93 1L93 1L94 2L94 3L95 4L95 5L95 6L95 6L95 7L94 8L94 8L96 8L97 8L98 8L98 8L98 8L98 7L99 7L99 8L99 8L100 8L100 9L100 10L100 10L100 9L100 9L100 9L100 9L100 9L100 8L100 8L101 8L102 8L102 9L103 10L103 10L103 10L104 9L104 9L104 9L104 9L105 9L105 9L104 10L104 10L103 10L103 11L103 12L103 12L103 12L103 13L103 13L104 13L104 12L105 12L105 12L106 12L106 12L107 12L107 13L107 12L107 12L107 12L108 12L108 11L109 10L109 10L110 10L110 10L110 10L111 9L111 9L111 9L111 9L112 8L112 8L113 8L114 8L114 7L115 7L116 7L116 7L116 6L117 6L116 7L116 8L116 8L115 8L115 8L115 9L115 9L115 9L116 10L117 10L118 11L119 12L120 13L120 14L121 14L121 15L122 16L123 18L124 20L125 22L126 23L127 25L127 26L128 27L128 28L129 30L129 30L129 29L129 29L129 29L130 29L130 29L130 29L130 28L131 28L131 28L130 27L131 27L131 27L131 27L131 27L131 26L132 26L132 26L132 26L132 27L133 27L133 27L133 27L133 27L133 28L133 28L133 28L133 28L134 28L134 28L134 29L134 29L134 29L134 30L135 30L135 30L136 30L136 30L137 30L137 30L138 30L138 30L139 30L139 29L139 29L140 29L140 29L141 29L141 28L141 28L142 28H142L143 29L143 29L144 29L144 30L144 30L145 31L145 31L145 32L145 32L146 33H146L146 33L147 33L148 34L148 34L148 34L148 34L148 34L148 35L148 35L149 36L149 36L149 36L149 37L150 36L150 37L152 37L152 37L152 37L152 37L152 37L153 37L153 37L153 37L154 36L154 36L154 36L155 36L155 36L155 36L155 36L154 36L154 37L155 37L155 37L156 38L156 38L156 39L156 39L157 39L157 39L157 40ZM14 63L14 63L14 62L14 62L14 62L14 63L14 63ZM14 63L14 64L14 64L13 63L13 62L13 62L14 62L14 62L13 63L13 63L14 63L14 63Z" fill="var(--fill-0,#71B219)" stroke="var(--stroke-0,white)" mask="url(#path-1-inside-1_0_110)"/></g></svg>