<svg preserveAspectRatio="none" width="100%" height="100%" overflow="visible" style="display: block;" viewBox="0 0 157.185 85.6125" fill="none" xmlns="http://www.w3.org/2000/svg">
<g id="KZ">
<mask id="path-1-inside-1_0_110" fill="white">
<path d="M157.185 39.6178L156.828 39.5012L156.126 39.4765L155.698 39.5492L155.497 39.5904L155.198 39.8304L154.984 40.0691L154.891 40.4751L155.004 40.9332L154.849 41.8852L154.64 42.2432L154.2 42.8645L153.944 42.999L153.515 43.1101L153.102 43.2939L152.293 43.4722L151.42 43.5627L151.109 43.6958L150.887 44.1196L150.731 44.4721L150.634 44.741L150.387 45.6161L150.246 46.3966L150.384 47.3636L150.487 48.4349L150.48 48.8038L150.694 49.3498L150.801 49.6845L150.75 50.159L150.443 50.5321L150.259 51.026L150.085 51.2358L149.586 51.3305L149.116 51.3881L148.641 51.8119L148.261 52.1041L147.667 52.4758L147.388 52.5458L147.234 52.3565L147.132 51.9354L146.928 51.7488L146.641 51.7337L146.41 51.7296L145.663 51.6158L145.184 51.624L144.825 51.7145L144.415 51.7598L143.706 51.6062L143.248 51.4759L142.94 51.351L142.204 50.9821L141.237 50.5431L140.841 50.4142L140.606 50.5459L140.57 50.7969L140.508 51.4045L140.395 51.7845L139.721 53.6993L139.304 55.0243L138.775 56.2904L138.607 57.1367L138.29 58.2052L137.975 58.9775L137.847 59.3972L137.836 59.5687L137.891 59.8087L138.374 60.0707L138.88 60.2312L138.992 60.3313L139.047 60.6029L139.028 61.0473L138.935 61.4671L138.79 61.7963L138.645 61.9595L138.48 61.9691L138.164 61.7578L137.882 61.5219L137.663 61.4506L137.107 61.5823L136.593 61.762L136.421 61.7675L136.122 61.6522L135.821 61.4136L135.701 60.9513L135.443 60.7414L135.096 60.9513L134.064 61.3038L132.928 61.7236L132.206 61.9403L131.924 61.9074L131.364 61.9568L130.878 62.0733L130.513 62.2352L129.794 62.4588L129.141 62.6083L128.72 62.9471L128.417 63.2735L128.429 63.397L128.649 63.5904L128.901 63.7413L129.405 63.7056L129.896 63.6823L130.304 63.8867L130.67 64.0184L130.771 64.1884L130.67 64.3544L130.458 64.3928L130.384 64.508L130.421 64.663L130.281 65.0663L130.208 65.6767L130.281 66.2775L130.321 66.8303L130.295 67.1087L130.281 67.5051L130.436 67.7726L130.575 68.2815L130.824 68.5997L131.2 69.6998L131.421 70.3404L131.625 71.0646L131.478 71.4555L131.487 71.6819L131.727 71.8711L131.831 72.2401L131.943 72.4651L131.913 72.6887L131.811 72.7751L131.292 72.6393L130.867 72.8629L130.416 73.0878L130.355 73.2071L130.343 73.3375L130.388 73.4513L130.648 73.6516L131.007 73.7764L130.989 73.9767L130.545 74.0685L129.875 74.3745L129.689 74.7023L129.546 75.063L129.534 75.2715L129.601 75.8298L129.703 76.447L129.894 77.0972L129.91 77.2974L129.811 77.4401L129.718 77.532L129.186 76.9463L128.605 76.3743L128.151 76.2427L127.36 76.148L126.941 76.1439L126.703 76.0081L126.469 75.6761L126.19 75.3757L125.832 75.0575L125.686 74.5719L125.539 74.4855L125.28 74.5473L124.848 74.5322L124.606 74.4897L124.244 74.406L123.668 74.2071L123.213 74.0192L122.639 73.9835L122.309 74.0205L121.278 74.0562L120.423 73.8587L119.731 73.823L119.304 73.834L119.101 73.8093L118.751 73.8107L118.237 73.7682L117.549 73.4637L117.282 73.4486L117.113 73.4595L115.963 73.6831L115.433 73.7353L114.309 73.7092L113.206 73.6845L112.851 73.6378L112.654 73.6612L112.237 74.1975L112.058 74.2811L111.018 74.1646L109.789 73.8121L108.9 73.4252L108.146 73.0151L107.147 72.3677L106.55 72.0481L106.464 72.2319L106.305 72.2909L106.076 72.3197L105.546 72.2868L105.301 72.6146L104.655 72.8492L104.243 73.059L104.029 73.2963L103.619 74.8641L103.509 75.4361L103.784 76.3963L103.469 76.34L103.099 76.0945L102.971 75.9011L102.614 75.7831L101.319 75.6048L101.076 75.384L100.925 75.2043L100.589 75.0863L100.115 74.9958L99.083 74.5788L98.6428 74.5637L97.3111 74.2428L97.0937 74.2455L96.9947 74.2592L96.4774 74.4691L96.1431 74.5294L95.7869 74.4444L95.1485 74.7036L94.8032 75.0493L94.5184 75.4718L94.246 75.7379L94.1649 76.1357L93.9723 76.3414L93.7426 76.7529V76.993L93.9503 77.2261L93.6174 77.4415L93.2473 77.5087L93.056 77.6404L92.8524 77.9572L92.6626 78.2288L92.5512 78.3248L92.3806 78.307L92.1825 78.0958L91.9005 78.1054L91.5648 78.366L91.1659 78.7898L90.6638 79.4359L90.1396 79.7788L89.4765 80.0696L88.9964 80.1985L88.6167 80.4194L87.9825 80.8665L87.856 81.1299L87.3965 81.2849L87.0264 81.4632L86.6839 81.7608L86.5999 82.2862L86.3826 82.588L85.8584 83.0009L85.4182 83.4178L85.1307 83.8266L84.8267 84.2587L84.7318 84.496L84.7208 84.8211L84.8639 85.094L84.8913 85.3533L84.7827 85.5412L84.4855 85.6125L84.1746 85.5576L83.6972 85.3724L83.1896 85.0405L83.0038 84.8773L82.7549 84.5974L82.7907 84.3382L82.9186 83.8321L83.0053 83.4851L82.7989 83.3191L82.6462 83.1408L82.5375 82.9693L82.3229 82.6305L82.0533 82.7142L81.8194 82.7978L81.5484 82.6785L80.7491 82.7306L80.1466 82.769L79.5798 82.8047L78.8617 82.8513L77.995 82.9076L77.746 82.8335L77.5905 82.721L77.4337 82.2533L77.3429 81.8555L77.175 81.1107L77.0623 80.5332L76.9288 79.8446L76.8408 79.082L76.7775 78.5388L76.1213 78.521L75.5971 78.5073L74.8886 78.4881L74.8942 78.0546L74.9024 77.5073L74.9121 76.8832L75.0442 76.063L75.0936 75.3744L75.1556 74.5308L75.194 73.9726L75.2381 73.3567L74.8722 73.5473L74.4691 73.7572L74.0907 73.9533L73.8308 73.4554L73.5776 72.9698L73.1938 72.2305L72.9063 71.6764L72.4069 71.3513L72.0341 71.1112L71.6503 70.7066L71.3188 70.2855L71.0037 69.885L70.6268 69.538L70.265 69.6477L69.8564 69.8658L69.463 70.0743L69.0461 70.2965L68.8425 70.4048L68.3582 70.3637L67.9359 70.328L67.1807 70.2636L66.5437 70.2087L65.893 70.1525L64.9864 70.0743L64.0675 69.9961L63.4539 70.1003L62.6753 70.2306L61.8581 70.3678L61.1826 70.4817L60.327 70.6243L59.6872 70.7313L59.3722 70.7162L58.976 70.2663L58.3404 69.5434L57.9566 69.1045L57.5797 68.6738L57.0349 68.0524L56.5975 67.5806L56.1696 67.1197L55.9233 66.6931L55.8009 66.1554L55.5781 65.9113L55.0828 65.5821L54.5491 65.2282L54.0153 64.8743L53.4815 64.5204L52.9477 64.1651L52.414 63.8099L51.8802 63.4546L51.3464 63.098L50.8127 62.7413L50.2789 62.3847L49.7451 62.0267L49.2237 61.6728L48.6899 61.3148L48.1562 60.9554L47.6224 60.5961L47.0886 60.2367L46.5549 59.8773L46.116 59.6153L45.7075 59.6839L45.0966 59.8677L44.4555 60.0597L43.8213 60.2504L42.685 60.5906L41.9545 60.81L41.3837 60.9939L40.7756 61.19L39.9777 61.4465L39.3091 61.6619L38.5263 61.9142L37.8316 62.1378L37.2483 62.3244L36.6403 62.5205L36.1587 62.6742V63.9168V65.1541L36.1602 66.3872V67.6163V68.8398L36.1615 70.0578V71.2717V72.4802V73.6845L36.1629 74.8847V76.0808V77.2727L36.1643 78.4593V79.6416V80.8199L36.1656 81.994L36.0005 81.9844L35.6305 82.053L35.0114 82.2162L34.497 82.2985L34.2713 82.2478L34.0691 82.1257L33.8917 81.8678L33.6275 81.5537L33.3565 81.2986L33.0194 80.776L32.7856 80.3741L32.2091 79.4935L32.128 79.215L32.0206 78.9311L31.8281 78.6938L31.1485 78.1109L30.3575 77.5841L29.5816 77.067L29.3628 76.9408L28.9996 76.7804L28.5525 76.7776L28.2471 76.8092L27.3171 76.9806L26.6032 77.1809L25.6361 77.4525L24.8863 77.7528L24.7185 77.8406L24.1709 78.2028L23.501 78.8035L22.7183 79.6485L22.6164 79.1053L22.5821 78.2672L22.5958 77.997L22.809 77.2906L23.025 76.805L23.1984 76.2989L23.2768 75.6364L23.1158 74.5692L22.9356 74.3319L22.7196 74.2551L22.4885 74.2331L22.0634 74.277L21.8653 74.3634L21.52 74.0027L21.1032 73.9451L20.8831 74.0452L20.6602 74.0973L20.4181 73.9972L20.2089 73.7833L20.0811 73.5528L19.982 73.2922L19.6546 72.7682L19.3299 72.4829L18.9364 72.4198L18.294 72.4363L18.0917 72.4006L18.0807 72.103L18.1619 71.4446L18.1633 71.1003L18.1179 70.7752L18.0106 70.5077L17.8744 70.2759L17.492 69.8946L17.2031 69.3569L16.7203 68.2472L16.2979 66.9962L16.1122 66.8069L15.7353 66.6081L14.9112 66.449L14.3678 66.2844L14.1545 66.1252L14.0651 65.8495L14.0679 65.5533L14.1119 65.2035L14.2385 64.9072L14.6704 64.6782L15.6101 64.6274L16.4121 64.6521L17.1398 65.1815L17.3778 65.3022L17.6364 65.3365L18.1509 65.1692L18.4068 65.1212L19.0506 65.176L18.858 64.925L18.6159 64.7934L18.3656 64.8043L18.1496 64.7015L17.7932 64.2159L17.1756 63.6617L17.0325 63.4327L16.9884 63.065L17.1082 62.7482L17.5456 62.4231L17.9184 61.9801L18.0876 61.3916L18.2404 61.12L18.5567 60.6935L19.0355 60.7758L19.7811 60.4671L21.0014 60.5275L22.4623 60.4397L22.864 60.4712L23.7954 60.773L24.3306 60.9033L24.9812 60.9692L25.4503 60.8361L25.0088 60.4246L24.0499 59.9363L23.8037 59.5193L24.2425 58.3836L24.8368 57.3452L25.2 56.108L25.0982 54.8735L24.9249 54.5319L24.9812 54.13L25.1876 53.7898L25.3335 53.451L25.2068 53.0423L24.9454 52.4031L24.8107 52.196L24.3526 51.8503L23.4322 51.8352L22.6811 51.646L22.4376 51.7982L22.3 52.0314L22.1281 52.185L21.5434 52.495L21.348 52.5567L21.1444 52.495L20.8569 52.1466L20.6011 52.185L19.8266 51.9669L19.462 51.4923L19.3258 51.4265L18.0739 51.0465L17.6392 50.9738L16.6418 51.3647L15.9196 51.8654L15.7159 51.9381L15.3431 52.255L15.1326 52.3057L14.9167 52.2508L14.7117 52.27L14.2756 52.7446L13.486 53.2961L13.0939 53.6431L12.6564 53.8585L12.1694 53.9942L11.6728 54.0162L11.4899 54.141L10.9217 54.1849L10.575 54.2864L10.5626 54.4743L10.6314 54.894L10.337 54.7459L10.0274 55.0312L10.1293 55.3001L9.94355 55.2356L9.07409 54.7171L8.36013 54.3495L7.72593 54.023L7.63374 53.9641L7.46043 53.805L7.33658 53.5567L7.31047 53.2851L7.37235 53.0848L7.52643 52.9573L7.70805 52.9079L7.86901 52.949L8.04786 53.0711L8.36701 53.2193L8.78105 53.2467L9.03974 53.1328L9.07409 52.8598L8.58163 51.8476L8.12763 51.0287L7.68882 50.1152L7.50309 49.7832L6.9652 49.0151L6.43412 48.2566L6.01455 47.579L5.79447 47.3705L5.11762 47.2841L3.82724 47.1167L3.37047 47.0371L3.00454 47.2388L2.63728 47.3965L2.28916 47.103L2.01408 46.6202L1.86958 46.2142L1.93977 45.7985L1.96866 45.184L1.75816 44.5777L1.52566 44.2774L0.942347 44.051L0.199502 43.5394L0 42.6025L0.360465 41.2556L0.941003 40.2982L1.36335 39.8963L1.5642 39.5451L1.63019 39.2406L1.57931 38.9498L1.32892 38.6398L0.941003 38.3381L0.744272 37.9663L0.825467 37.168L1.08274 36.0145L1.47889 35.0886L2.00989 34.5742L2.468 34.2052L2.64828 33.8609L2.65785 33.3713L2.64685 32.909L2.76927 32.5729L2.96189 32.3055L3.16551 32.0654L3.45166 31.7966L3.82312 31.7307L4.2317 31.9447L4.78747 32.5195L5.60185 33.651L6.06686 34.3904L6.2347 34.6181L6.65974 35.057L7.04354 35.234L7.68328 34.9596L8.29682 34.64L8.49497 34.437L8.62151 34.1339L8.52386 33.6154L8.3959 33.2766L8.2597 32.8445L8.0712 32.0915L7.93778 30.9064L7.77959 30.5291L7.89512 30.4853L8.20328 30.5635L8.48809 30.5977L8.89524 30.3357L9.45378 29.842L10.476 29.0779L10.6919 28.5731L10.8667 28.0108L11.1501 27.6651L11.8007 27.5513L12.4033 27.3702L12.8284 26.9697L13.4942 26.6172L14.0417 26.4032L14.2825 26.2057L14.4544 25.9094L15.0817 25.0727L15.5743 24.5569L16.0076 24.0247L16.1521 23.69L16.4946 23.7518L17.0173 23.9836L17.5786 24.1948L17.99 24.5226L18.0712 24.8573L18.1111 25.1207L18.2775 25.2565L18.477 25.2825L18.7769 25.2167L19.301 25.2043L19.9434 24.7709L20.8377 24.0384L21.6562 23.8107L22.0868 23.9849L22.4431 24.524L22.7251 25.0302L23.0154 25.2181L23.1956 25.2236L23.2616 25.2318L23.6221 25.1166L23.6496 25.1179L23.9784 25.1385L24.2948 25.31L24.8189 25.3292L25.5494 25.1989L25.6265 25.1454L25.9772 25.2153L26.4038 25.4485L26.7353 25.7256L27.3296 26.6336L27.6707 26.8668L28.3668 27.1891L28.6928 27.4704L29.0725 27.9257L29.2707 28.2014L29.6834 28.6994L30.1607 29.5127L30.246 30.1588L30.3547 30.7034L30.5322 30.9612L30.678 30.9928L30.8348 30.9036L30.9889 30.6553L31.0425 30.2411L30.9958 29.5073L30.8733 28.9065L30.7165 28.7158L30.6408 28.5046L30.744 28.2357L31.0095 28.1054L31.3397 28.1877L31.8831 28.5334L32.4499 28.9682L33.1474 29.7281L33.787 30.2095L34.4873 30.5936L35.0431 30.7075L35.4736 30.5923L35.9813 30.2795L36.4463 29.9174L36.6582 29.5374L36.8095 29.1218L37.5111 28.5663L38.1522 28.0574L38.4438 28.1493L38.6487 28.2934L39.3063 27.9833L39.5347 27.8983L40.1607 27.7776L40.8072 27.9559L41.3231 28.5018L41.8225 28.853L42.2696 28.8118L42.6396 28.6321L42.8845 28.292L43.0703 27.8901L43.3179 27.6322L43.355 27.6157L44.1515 27.7557L44.6509 27.7351L44.7046 27.6775L45.3635 27.7872L46.0913 28.3537L46.5425 28.9805L47.1203 29.7775L47.3885 30.0367L47.7792 30.1478L48.086 30.1958L48.4974 30.3193L49.5842 30.4853L49.7492 30.5826L49.8607 30.7129L49.7602 31.1464L49.8565 31.2561L50.7384 30.9475L50.975 30.7171L51.2652 30.0614L51.5253 29.4003L51.7192 29.1548L51.9242 29.0903L52.1306 29.189L52.4194 29.58L52.8101 29.9778L53.3384 30.1286L53.6604 30.189L54.1597 30.2219L55.3346 30.0285L56.4337 29.5471L57.0611 29.0231L57.3527 28.2357L57.5356 27.3387L57.8163 26.7708L57.6994 26.1892L57.1464 25.635L56.9593 25.4677L55.6138 25.1563L55.5313 24.9314L55.4542 24.8793L54.1281 24.3855L53.4897 24.1742L53.3096 23.8478L53.1912 23.4198L52.7771 23.0371L51.9545 22.6887L51.8114 22.4226L51.9476 22.1538L52.5969 21.8548L53.3384 21.2238L53.6232 21.0935L54.2821 21.0647L54.893 20.5476L55.3139 20.2513L55.5341 19.8987L55.4763 19.5339L54.8654 18.4297L54.6838 17.7589L54.7926 17.3214L55.1434 16.8481L55.3428 16.5889L55.5822 16.1226L55.739 15.8729L56.3553 15.7673L57.1023 15.7234L57.6155 15.8345L58.3322 15.8921L58.9856 15.9785L59.3158 16.0553L59.5593 15.9127L59.7354 15.6617L59.7299 15.3297L59.4726 15.0074L58.5137 14.5835L58.1025 14.2338L57.7806 14.2722L57.2412 14.1625L56.7542 13.9334L56.3237 13.8565L56.1834 13.5383L56.2714 13.0912L56.4379 12.8347L56.7557 12.7071L57.1009 12.7716L57.4765 12.585L57.5852 12.4753L57.6168 12.334L57.5563 12.1324L57.3816 11.9664L57.1339 11.9225L56.8492 12.0638L56.5081 12.1557L55.9316 11.9486L55.4721 11.6989L55.4955 11.4685L55.8353 11.1242L55.988 10.8444V10.4576V10.0049L56.1063 9.47411L56.4434 9.1106L56.8396 8.91582L57.8603 9.27109L59.1369 9.58793L59.3557 9.53581L59.4204 9.36846L59.5662 9.22035L61.3381 9.15175L61.682 8.94739L61.854 8.78413L63.5571 8.54959L63.7593 8.32602L64.0097 8.11751L64.4018 8.12162L64.8681 8.03798L65.5188 7.78284L65.9796 7.64291L66.0567 7.63194L66.5437 7.6882L67.1476 7.48656L67.2783 7.40288L67.376 7.25064L67.9029 6.95707L68.914 6.71567L69.1603 6.85971L69.6431 6.92555L70.2581 6.81718L70.712 6.63199L70.9762 6.8158L71.3352 7.00509L71.6035 6.8446L71.7369 6.33847L71.9103 5.84331L72.2143 5.60872L72.4551 5.52233L72.6725 5.33165L72.8361 5.13278L73.7262 5.16296L74.5227 4.6678L74.6796 4.89275L75.7141 4.8406L76.999 4.52099L77.768 4.37151L79.0955 4.0368L79.7091 3.76521L80.5882 3.59376L81.3943 3.47441L81.9212 2.99847L82.3463 2.93124L82.8635 2.89147L83.18 2.77761L83.3863 2.60205L83.5197 2.27149L83.4468 1.84899L83.3725 1.54174L83.7427 1.37028L84.2709 1.31679L84.6038 1.24684L85.3302 0.547276L85.831 0.211225L86.3495 0L87.391 0.11524L88.3415 0.220853L89.2949 0.555523L89.7957 0.972531L90.2262 1.28661L90.6335 1.43613L91.0022 1.53216L91.43 1.3895L91.7327 1.19749L91.9087 0.921755L92.1757 0.72426L93.1482 0.570634L93.3491 0.868258L93.8113 1.76398L94.1264 2.95322L94.645 4.52376L94.8734 5.29327L94.773 5.69517L94.7743 6.2452L94.7454 6.84874L94.363 7.53043L94.5184 7.84731L95.4581 8.19981L96.7732 8.07088L97.5848 7.78556L98.0375 7.88984L98.2741 7.71838L98.4267 7.21359L98.7391 7.09973L99.0596 7.45228L99.2921 8.04757L99.5149 8.43025L99.4985 8.88564L99.581 9.46863L99.7447 9.61539L100.067 9.39453L100.281 9.26284L100.332 9.0859L100.241 8.86781L100.199 8.64562L100.27 8.44122L100.423 8.35754L100.881 8.42204L101.548 8.53452L102.341 9.36297L102.768 9.5125L102.949 9.52761L103.35 9.47959L103.833 9.24229L104.158 8.94324L104.267 8.79648L104.454 8.82256L104.631 8.96107L104.644 9.26284L104.502 9.69906L104.02 10.0982L103.422 10.4685L103.059 11.1462L102.982 11.8512L103.14 12.2092L103.276 12.4479L103.315 12.7825L103.449 12.8265L103.694 12.6893L104.362 11.9952L104.701 11.8237L105.194 11.714L106.004 11.7689L106.549 11.9952L106.809 12.3093L107.095 12.5686L107.293 12.4602L107.395 12.1612L107.4 11.8183L107.484 11.5357L108.37 10.8403L108.96 10.3767L109.163 10.3218L109.557 10.4178L109.802 10.3684L110.45 9.93222L111.056 9.4343L111.115 9.09687L111.138 8.791L111.288 8.65248L112.136 8.54549L112.276 8.48785L112.999 8.13945L114.002 7.54416L114.489 7.193L115.377 7.03665L115.542 6.93514L115.836 6.69784L116.392 6.36865L116.693 6.33298L116.506 7.12853L116.175 8.0448L115.987 8.28897L115.088 8.24782L115.089 8.49748L115.231 8.87878L115.333 9.09277L115.441 9.28482L115.683 9.61677L116.63 10.3972L117.834 11.3876L119.134 12.4959L120.042 13.2667L120.409 13.6645L120.643 13.9745L121.311 15.0911L121.947 16.1459L123.019 17.9949L123.966 19.7698L125.012 21.7107L125.616 22.8273L126.851 25.1495L127.182 25.8586L127.808 27.1974L128.359 28.447L128.848 29.5471L129.156 29.6458L129.18 29.3481L129.235 29.1493L129.392 29.0368L129.753 28.7117L129.947 28.6335L130.236 28.6664L130.538 28.5005L130.65 28.1877L130.577 27.6075L130.53 27.34L130.633 27.052L130.798 26.9395L131.028 26.849L131.24 26.8024L131.413 26.4773L131.741 26.3785L132.042 26.4388L132.29 26.4512L132.508 26.6885L132.631 27.0136L132.867 27.0397L133.254 27.0067L133.308 27.2783L133.197 27.7323L133.061 28.0835L133.038 28.3647L133.243 28.5018L133.994 28.3798L134.259 28.4401L134.345 28.7254L134.452 28.9614L134.504 29.2494L134.426 29.5676L134.561 29.7583L135.209 29.7624L135.665 29.6088L136.367 29.5964L137.001 29.9338L137.44 29.8817L137.882 29.7446L138.53 29.831L138.985 29.5649L139.299 29.2316L139.396 28.9696L139.56 28.8242L140.171 28.8256L140.556 28.7995L140.841 28.414L141.101 28.2399L141.538 28.2069H141.86L142.726 28.5649L143.252 28.8612L143.8 29.2823L144.129 29.5457L144.35 30.1396L144.723 30.5758L145.02 31.0847L145.092 31.5853L145.337 32.4838L145.59 32.7787H145.89L146.268 32.9008L146.686 32.9982L147.58 33.6634L147.909 33.6826L148.162 33.8417L148.201 34.1476L148.107 34.5015L148.205 34.8403L148.498 35.2724L148.729 35.6935L149.014 36.2037L149.1 36.4945L149.329 36.5905L149.637 36.4465L150.127 36.5563L151.6 36.8457L151.805 36.8813L151.962 37.1831L152.175 37.1584L152.42 37.1461L152.76 37.1817L152.996 36.9033L153.19 36.6591L153.676 36.3574L154.079 35.9472L154.417 35.5824L154.671 35.5344L154.876 35.7044L154.884 36.0199L154.631 36.2504L154.433 36.5288L154.479 36.8073L154.819 36.8319L155.196 37.2503L155.741 38.2283L155.925 38.4327L156.195 38.6247L156.493 38.7112L156.824 38.8511L157.068 39.253L157.185 39.6178ZM14.2894 62.7948L14.1559 62.8689L14.0747 62.5232L14.2234 62.2324L14.4352 62.1941L14.3622 62.6536L14.2894 62.7948ZM13.7996 63.4313L13.6607 63.5836L13.4543 63.5602L13.0677 62.9855L13.1764 62.4012L13.3168 62.2818L13.5121 62.1995L13.5382 62.3285L13.2645 62.5905L13.2384 62.921L13.4681 63.2873L13.7996 63.4313Z"/>
</mask>
<path d="M157.185 39.6178L156.828 39.5012L156.126 39.4765L155.698 39.5492L155.497 39.5904L155.198 39.8304L154.984 40.0691L154.891 40.4751L155.004 40.9332L154.849 41.8852L154.64 42.2432L154.2 42.8645L153.944 42.999L153.515 43.1101L153.102 43.2939L152.293 43.4722L151.42 43.5627L151.109 43.6958L150.887 44.1196L150.731 44.4721L150.634 44.741L150.387 45.6161L150.246 46.3966L150.384 47.3636L150.487 48.4349L150.48 48.8038L150.694 49.3498L150.801 49.6845L150.75 50.159L150.443 50.5321L150.259 51.026L150.085 51.2358L149.586 51.3305L149.116 51.3881L148.641 51.8119L148.261 52.1041L147.667 52.4758L147.388 52.5458L147.234 52.3565L147.132 51.9354L146.928 51.7488L146.641 51.7337L146.41 51.7296L145.663 51.6158L145.184 51.624L144.825 51.7145L144.415 51.7598L143.706 51.6062L143.248 51.4759L142.94 51.351L142.204 50.9821L141.237 50.5431L140.841 50.4142L140.606 50.5459L140.57 50.7969L140.508 51.4045L140.395 51.7845L139.721 53.6993L139.304 55.0243L138.775 56.2904L138.607 57.1367L138.29 58.2052L137.975 58.9775L137.847 59.3972L137.836 59.5687L137.891 59.8087L138.374 60.0707L138.88 60.2312L138.992 60.3313L139.047 60.6029L139.028 61.0473L138.935 61.4671L138.79 61.7963L138.645 61.9595L138.48 61.9691L138.164 61.7578L137.882 61.5219L137.663 61.4506L137.107 61.5823L136.593 61.762L136.421 61.7675L136.122 61.6522L135.821 61.4136L135.701 60.9513L135.443 60.7414L135.096 60.9513L134.064 61.3038L132.928 61.7236L132.206 61.9403L131.924 61.9074L131.364 61.9568L130.878 62.0733L130.513 62.2352L129.794 62.4588L129.141 62.6083L128.72 62.9471L128.417 63.2735L128.429 63.397L128.649 63.5904L128.901 63.7413L129.405 63.7056L129.896 63.6823L130.304 63.8867L130.67 64.0184L130.771 64.1884L130.67 64.3544L130.458 64.3928L130.384 64.508L130.421 64.663L130.281 65.0663L130.208 65.6767L130.281 66.2775L130.321 66.8303L130.295 67.1087L130.281 67.5051L130.436 67.7726L130.575 68.2815L130.824 68.5997L131.2 69.6998L131.421 70.3404L131.625 71.0646L131.478 71.4555L131.487 71.6819L131.727 71.8711L131.831 72.2401L131.943 72.4651L131.913 72.6887L131.811 72.7751L131.292 72.6393L130.867 72.8629L130.416 73.0878L130.355 73.2071L130.343 73.3375L130.388 73.4513L130.648 73.6516L131.007 73.7764L130.989 73.9767L130.545 74.0685L129.875 74.3745L129.689 74.7023L129.546 75.063L129.534 75.2715L129.601 75.8298L129.703 76.447L129.894 77.0972L129.91 77.2974L129.811 77.4401L129.718 77.532L129.186 76.9463L128.605 76.3743L128.151 76.2427L127.36 76.148L126.941 76.1439L126.703 76.0081L126.469 75.6761L126.19 75.3757L125.832 75.0575L125.686 74.5719L125.539 74.4855L125.28 74.5473L124.848 74.5322L124.606 74.4897L124.244 74.406L123.668 74.2071L123.213 74.0192L122.639 73.9835L122.309 74.0205L121.278 74.0562L120.423 73.8587L119.731 73.823L119.304 73.834L119.101 73.8093L118.751 73.8107L118.237 73.7682L117.549 73.4637L117.282 73.4486L117.113 73.4595L115.963 73.6831L115.433 73.7353L114.309 73.7092L113.206 73.6845L112.851 73.6378L112.654 73.6612L112.237 74.1975L112.058 74.2811L111.018 74.1646L109.789 73.8121L108.9 73.4252L108.146 73.0151L107.147 72.3677L106.55 72.0481L106.464 72.2319L106.305 72.2909L106.076 72.3197L105.546 72.2868L105.301 72.6146L104.655 72.8492L104.243 73.059L104.029 73.2963L103.619 74.8641L103.509 75.4361L103.784 76.3963L103.469 76.34L103.099 76.0945L102.971 75.9011L102.614 75.7831L101.319 75.6048L101.076 75.384L100.925 75.2043L100.589 75.0863L100.115 74.9958L99.083 74.5788L98.6428 74.5637L97.3111 74.2428L97.0937 74.2455L96.9947 74.2592L96.4774 74.4691L96.1431 74.5294L95.7869 74.4444L95.1485 74.7036L94.8032 75.0493L94.5184 75.4718L94.246 75.7379L94.1649 76.1357L93.9723 76.3414L93.7426 76.7529V76.993L93.9503 77.2261L93.6174 77.4415L93.2473 77.5087L93.056 77.6404L92.8524 77.9572L92.6626 78.2288L92.5512 78.3248L92.3806 78.307L92.1825 78.0958L91.9005 78.1054L91.5648 78.366L91.1659 78.7898L90.6638 79.4359L90.1396 79.7788L89.4765 80.0696L88.9964 80.1985L88.6167 80.4194L87.9825 80.8665L87.856 81.1299L87.3965 81.2849L87.0264 81.4632L86.6839 81.7608L86.5999 82.2862L86.3826 82.588L85.8584 83.0009L85.4182 83.4178L85.1307 83.8266L84.8267 84.2587L84.7318 84.496L84.7208 84.8211L84.8639 85.094L84.8913 85.3533L84.7827 85.5412L84.4855 85.6125L84.1746 85.5576L83.6972 85.3724L83.1896 85.0405L83.0038 84.8773L82.7549 84.5974L82.7907 84.3382L82.9186 83.8321L83.0053 83.4851L82.7989 83.3191L82.6462 83.1408L82.5375 82.9693L82.3229 82.6305L82.0533 82.7142L81.8194 82.7978L81.5484 82.6785L80.7491 82.7306L80.1466 82.769L79.5798 82.8047L78.8617 82.8513L77.995 82.9076L77.746 82.8335L77.5905 82.721L77.4337 82.2533L77.3429 81.8555L77.175 81.1107L77.0623 80.5332L76.9288 79.8446L76.8408 79.082L76.7775 78.5388L76.1213 78.521L75.5971 78.5073L74.8886 78.4881L74.8942 78.0546L74.9024 77.5073L74.9121 76.8832L75.0442 76.063L75.0936 75.3744L75.1556 74.5308L75.194 73.9726L75.2381 73.3567L74.8722 73.5473L74.4691 73.7572L74.0907 73.9533L73.8308 73.4554L73.5776 72.9698L73.1938 72.2305L72.9063 71.6764L72.4069 71.3513L72.0341 71.1112L71.6503 70.7066L71.3188 70.2855L71.0037 69.885L70.6268 69.538L70.265 69.6477L69.8564 69.8658L69.463 70.0743L69.0461 70.2965L68.8425 70.4048L68.3582 70.3637L67.9359 70.328L67.1807 70.2636L66.5437 70.2087L65.893 70.1525L64.9864 70.0743L64.0675 69.9961L63.4539 70.1003L62.6753 70.2306L61.8581 70.3678L61.1826 70.4817L60.327 70.6243L59.6872 70.7313L59.3722 70.7162L58.976 70.2663L58.3404 69.5434L57.9566 69.1045L57.5797 68.6738L57.0349 68.0524L56.5975 67.5806L56.1696 67.1197L55.9233 66.6931L55.8009 66.1554L55.5781 65.9113L55.0828 65.5821L54.5491 65.2282L54.0153 64.8743L53.4815 64.5204L52.9477 64.1651L52.414 63.8099L51.8802 63.4546L51.3464 63.098L50.8127 62.7413L50.2789 62.3847L49.7451 62.0267L49.2237 61.6728L48.6899 61.3148L48.1562 60.9554L47.6224 60.5961L47.0886 60.2367L46.5549 59.8773L46.116 59.6153L45.7075 59.6839L45.0966 59.8677L44.4555 60.0597L43.8213 60.2504L42.685 60.5906L41.9545 60.81L41.3837 60.9939L40.7756 61.19L39.9777 61.4465L39.3091 61.6619L38.5263 61.9142L37.8316 62.1378L37.2483 62.3244L36.6403 62.5205L36.1587 62.6742V63.9168V65.1541L36.1602 66.3872V67.6163V68.8398L36.1615 70.0578V71.2717V72.4802V73.6845L36.1629 74.8847V76.0808V77.2727L36.1643 78.4593V79.6416V80.8199L36.1656 81.994L36.0005 81.9844L35.6305 82.053L35.0114 82.2162L34.497 82.2985L34.2713 82.2478L34.0691 82.1257L33.8917 81.8678L33.6275 81.5537L33.3565 81.2986L33.0194 80.776L32.7856 80.3741L32.2091 79.4935L32.128 79.215L32.0206 78.9311L31.8281 78.6938L31.1485 78.1109L30.3575 77.5841L29.5816 77.067L29.3628 76.9408L28.9996 76.7804L28.5525 76.7776L28.2471 76.8092L27.3171 76.9806L26.6032 77.1809L25.6361 77.4525L24.8863 77.7528L24.7185 77.8406L24.1709 78.2028L23.501 78.8035L22.7183 79.6485L22.6164 79.1053L22.5821 78.2672L22.5958 77.997L22.809 77.2906L23.025 76.805L23.1984 76.2989L23.2768 75.6364L23.1158 74.5692L22.9356 74.3319L22.7196 74.2551L22.4885 74.2331L22.0634 74.277L21.8653 74.3634L21.52 74.0027L21.1032 73.9451L20.8831 74.0452L20.6602 74.0973L20.4181 73.9972L20.2089 73.7833L20.0811 73.5528L19.982 73.2922L19.6546 72.7682L19.3299 72.4829L18.9364 72.4198L18.294 72.4363L18.0917 72.4006L18.0807 72.103L18.1619 71.4446L18.1633 71.1003L18.1179 70.7752L18.0106 70.5077L17.8744 70.2759L17.492 69.8946L17.2031 69.3569L16.7203 68.2472L16.2979 66.9962L16.1122 66.8069L15.7353 66.6081L14.9112 66.449L14.3678 66.2844L14.1545 66.1252L14.0651 65.8495L14.0679 65.5533L14.1119 65.2035L14.2385 64.9072L14.6704 64.6782L15.6101 64.6274L16.4121 64.6521L17.1398 65.1815L17.3778 65.3022L17.6364 65.3365L18.1509 65.1692L18.4068 65.1212L19.0506 65.176L18.858 64.925L18.6159 64.7934L18.3656 64.8043L18.1496 64.7015L17.7932 64.2159L17.1756 63.6617L17.0325 63.4327L16.9884 63.065L17.1082 62.7482L17.5456 62.4231L17.9184 61.9801L18.0876 61.3916L18.2404 61.12L18.5567 60.6935L19.0355 60.7758L19.7811 60.4671L21.0014 60.5275L22.4623 60.4397L22.864 60.4712L23.7954 60.773L24.3306 60.9033L24.9812 60.9692L25.4503 60.8361L25.0088 60.4246L24.0499 59.9363L23.8037 59.5193L24.2425 58.3836L24.8368 57.3452L25.2 56.108L25.0982 54.8735L24.9249 54.5319L24.9812 54.13L25.1876 53.7898L25.3335 53.451L25.2068 53.0423L24.9454 52.4031L24.8107 52.196L24.3526 51.8503L23.4322 51.8352L22.6811 51.646L22.4376 51.7982L22.3 52.0314L22.1281 52.185L21.5434 52.495L21.348 52.5567L21.1444 52.495L20.8569 52.1466L20.6011 52.185L19.8266 51.9669L19.462 51.4923L19.3258 51.4265L18.0739 51.0465L17.6392 50.9738L16.6418 51.3647L15.9196 51.8654L15.7159 51.9381L15.3431 52.255L15.1326 52.3057L14.9167 52.2508L14.7117 52.27L14.2756 52.7446L13.486 53.2961L13.0939 53.6431L12.6564 53.8585L12.1694 53.9942L11.6728 54.0162L11.4899 54.141L10.9217 54.1849L10.575 54.2864L10.5626 54.4743L10.6314 54.894L10.337 54.7459L10.0274 55.0312L10.1293 55.3001L9.94355 55.2356L9.07409 54.7171L8.36013 54.3495L7.72593 54.023L7.63374 53.9641L7.46043 53.805L7.33658 53.5567L7.31047 53.2851L7.37235 53.0848L7.52643 52.9573L7.70805 52.9079L7.86901 52.949L8.04786 53.0711L8.36701 53.2193L8.78105 53.2467L9.03974 53.1328L9.07409 52.8598L8.58163 51.8476L8.12763 51.0287L7.68882 50.1152L7.50309 49.7832L6.9652 49.0151L6.43412 48.2566L6.01455 47.579L5.79447 47.3705L5.11762 47.2841L3.82724 47.1167L3.37047 47.0371L3.00454 47.2388L2.63728 47.3965L2.28916 47.103L2.01408 46.6202L1.86958 46.2142L1.93977 45.7985L1.96866 45.184L1.75816 44.5777L1.52566 44.2774L0.942347 44.051L0.199502 43.5394L0 42.6025L0.360465 41.2556L0.941003 40.2982L1.36335 39.8963L1.5642 39.5451L1.63019 39.2406L1.57931 38.9498L1.32892 38.6398L0.941003 38.3381L0.744272 37.9663L0.825467 37.168L1.08274 36.0145L1.47889 35.0886L2.00989 34.5742L2.468 34.2052L2.64828 33.8609L2.65785 33.3713L2.64685 32.909L2.76927 32.5729L2.96189 32.3055L3.16551 32.0654L3.45166 31.7966L3.82312 31.7307L4.2317 31.9447L4.78747 32.5195L5.60185 33.651L6.06686 34.3904L6.2347 34.6181L6.65974 35.057L7.04354 35.234L7.68328 34.9596L8.29682 34.64L8.49497 34.437L8.62151 34.1339L8.52386 33.6154L8.3959 33.2766L8.2597 32.8445L8.0712 32.0915L7.93778 30.9064L7.77959 30.5291L7.89512 30.4853L8.20328 30.5635L8.48809 30.5977L8.89524 30.3357L9.45378 29.842L10.476 29.0779L10.6919 28.5731L10.8667 28.0108L11.1501 27.6651L11.8007 27.5513L12.4033 27.3702L12.8284 26.9697L13.4942 26.6172L14.0417 26.4032L14.2825 26.2057L14.4544 25.9094L15.0817 25.0727L15.5743 24.5569L16.0076 24.0247L16.1521 23.69L16.4946 23.7518L17.0173 23.9836L17.5786 24.1948L17.99 24.5226L18.0712 24.8573L18.1111 25.1207L18.2775 25.2565L18.477 25.2825L18.7769 25.2167L19.301 25.2043L19.9434 24.7709L20.8377 24.0384L21.6562 23.8107L22.0868 23.9849L22.4431 24.524L22.7251 25.0302L23.0154 25.2181L23.1956 25.2236L23.2616 25.2318L23.6221 25.1166L23.6496 25.1179L23.9784 25.1385L24.2948 25.31L24.8189 25.3292L25.5494 25.1989L25.6265 25.1454L25.9772 25.2153L26.4038 25.4485L26.7353 25.7256L27.3296 26.6336L27.6707 26.8668L28.3668 27.1891L28.6928 27.4704L29.0725 27.9257L29.2707 28.2014L29.6834 28.6994L30.1607 29.5127L30.246 30.1588L30.3547 30.7034L30.5322 30.9612L30.678 30.9928L30.8348 30.9036L30.9889 30.6553L31.0425 30.2411L30.9958 29.5073L30.8733 28.9065L30.7165 28.7158L30.6408 28.5046L30.744 28.2357L31.0095 28.1054L31.3397 28.1877L31.8831 28.5334L32.4499 28.9682L33.1474 29.7281L33.787 30.2095L34.4873 30.5936L35.0431 30.7075L35.4736 30.5923L35.9813 30.2795L36.4463 29.9174L36.6582 29.5374L36.8095 29.1218L37.5111 28.5663L38.1522 28.0574L38.4438 28.1493L38.6487 28.2934L39.3063 27.9833L39.5347 27.8983L40.1607 27.7776L40.8072 27.9559L41.3231 28.5018L41.8225 28.853L42.2696 28.8118L42.6396 28.6321L42.8845 28.292L43.0703 27.8901L43.3179 27.6322L43.355 27.6157L44.1515 27.7557L44.6509 27.7351L44.7046 27.6775L45.3635 27.7872L46.0913 28.3537L46.5425 28.9805L47.1203 29.7775L47.3885 30.0367L47.7792 30.1478L48.086 30.1958L48.4974 30.3193L49.5842 30.4853L49.7492 30.5826L49.8607 30.7129L49.7602 31.1464L49.8565 31.2561L50.7384 30.9475L50.975 30.7171L51.2652 30.0614L51.5253 29.4003L51.7192 29.1548L51.9242 29.0903L52.1306 29.189L52.4194 29.58L52.8101 29.9778L53.3384 30.1286L53.6604 30.189L54.1597 30.2219L55.3346 30.0285L56.4337 29.5471L57.0611 29.0231L57.3527 28.2357L57.5356 27.3387L57.8163 26.7708L57.6994 26.1892L57.1464 25.635L56.9593 25.4677L55.6138 25.1563L55.5313 24.9314L55.4542 24.8793L54.1281 24.3855L53.4897 24.1742L53.3096 23.8478L53.1912 23.4198L52.7771 23.0371L51.9545 22.6887L51.8114 22.4226L51.9476 22.1538L52.5969 21.8548L53.3384 21.2238L53.6232 21.0935L54.2821 21.0647L54.893 20.5476L55.3139 20.2513L55.5341 19.8987L55.4763 19.5339L54.8654 18.4297L54.6838 17.7589L54.7926 17.3214L55.1434 16.8481L55.3428 16.5889L55.5822 16.1226L55.739 15.8729L56.3553 15.7673L57.1023 15.7234L57.6155 15.8345L58.3322 15.8921L58.9856 15.9785L59.3158 16.0553L59.5593 15.9127L59.7354 15.6617L59.7299 15.3297L59.4726 15.0074L58.5137 14.5835L58.1025 14.2338L57.7806 14.2722L57.2412 14.1625L56.7542 13.9334L56.3237 13.8565L56.1834 13.5383L56.2714 13.0912L56.4379 12.8347L56.7557 12.7071L57.1009 12.7716L57.4765 12.585L57.5852 12.4753L57.6168 12.334L57.5563 12.1324L57.3816 11.9664L57.1339 11.9225L56.8492 12.0638L56.5081 12.1557L55.9316 11.9486L55.4721 11.6989L55.4955 11.4685L55.8353 11.1242L55.988 10.8444V10.4576V10.0049L56.1063 9.47411L56.4434 9.1106L56.8396 8.91582L57.8603 9.27109L59.1369 9.58793L59.3557 9.53581L59.4204 9.36846L59.5662 9.22035L61.3381 9.15175L61.682 8.94739L61.854 8.78413L63.5571 8.54959L63.7593 8.32602L64.0097 8.11751L64.4018 8.12162L64.8681 8.03798L65.5188 7.78284L65.9796 7.64291L66.0567 7.63194L66.5437 7.6882L67.1476 7.48656L67.2783 7.40288L67.376 7.25064L67.9029 6.95707L68.914 6.71567L69.1603 6.85971L69.6431 6.92555L70.2581 6.81718L70.712 6.63199L70.9762 6.8158L71.3352 7.00509L71.6035 6.8446L71.7369 6.33847L71.9103 5.84331L72.2143 5.60872L72.4551 5.52233L72.6725 5.33165L72.8361 5.13278L73.7262 5.16296L74.5227 4.6678L74.6796 4.89275L75.7141 4.8406L76.999 4.52099L77.768 4.37151L79.0955 4.0368L79.7091 3.76521L80.5882 3.59376L81.3943 3.47441L81.9212 2.99847L82.3463 2.93124L82.8635 2.89147L83.18 2.77761L83.3863 2.60205L83.5197 2.27149L83.4468 1.84899L83.3725 1.54174L83.7427 1.37028L84.2709 1.31679L84.6038 1.24684L85.3302 0.547276L85.831 0.211225L86.3495 0L87.391 0.11524L88.3415 0.220853L89.2949 0.555523L89.7957 0.972531L90.2262 1.28661L90.6335 1.43613L91.0022 1.53216L91.43 1.3895L91.7327 1.19749L91.9087 0.921755L92.1757 0.72426L93.1482 0.570634L93.3491 0.868258L93.8113 1.76398L94.1264 2.95322L94.645 4.52376L94.8734 5.29327L94.773 5.69517L94.7743 6.2452L94.7454 6.84874L94.363 7.53043L94.5184 7.84731L95.4581 8.19981L96.7732 8.07088L97.5848 7.78556L98.0375 7.88984L98.2741 7.71838L98.4267 7.21359L98.7391 7.09973L99.0596 7.45228L99.2921 8.04757L99.5149 8.43025L99.4985 8.88564L99.581 9.46863L99.7447 9.61539L100.067 9.39453L100.281 9.26284L100.332 9.0859L100.241 8.86781L100.199 8.64562L100.27 8.44122L100.423 8.35754L100.881 8.42204L101.548 8.53452L102.341 9.36297L102.768 9.5125L102.949 9.52761L103.35 9.47959L103.833 9.24229L104.158 8.94324L104.267 8.79648L104.454 8.82256L104.631 8.96107L104.644 9.26284L104.502 9.69906L104.02 10.0982L103.422 10.4685L103.059 11.1462L102.982 11.8512L103.14 12.2092L103.276 12.4479L103.315 12.7825L103.449 12.8265L103.694 12.6893L104.362 11.9952L104.701 11.8237L105.194 11.714L106.004 11.7689L106.549 11.9952L106.809 12.3093L107.095 12.5686L107.293 12.4602L107.395 12.1612L107.4 11.8183L107.484 11.5357L108.37 10.8403L108.96 10.3767L109.163 10.3218L109.557 10.4178L109.802 10.3684L110.45 9.93222L111.056 9.4343L111.115 9.09687L111.138 8.791L111.288 8.65248L112.136 8.54549L112.276 8.48785L112.999 8.13945L114.002 7.54416L114.489 7.193L115.377 7.03665L115.542 6.93514L115.836 6.69784L116.392 6.36865L116.693 6.33298L116.506 7.12853L116.175 8.0448L115.987 8.28897L115.088 8.24782L115.089 8.49748L115.231 8.87878L115.333 9.09277L115.441 9.28482L115.683 9.61677L116.63 10.3972L117.834 11.3876L119.134 12.4959L120.042 13.2667L120.409 13.6645L120.643 13.9745L121.311 15.0911L121.947 16.1459L123.019 17.9949L123.966 19.7698L125.012 21.7107L125.616 22.8273L126.851 25.1495L127.182 25.8586L127.808 27.1974L128.359 28.447L128.848 29.5471L129.156 29.6458L129.18 29.3481L129.235 29.1493L129.392 29.0368L129.753 28.7117L129.947 28.6335L130.236 28.6664L130.538 28.5005L130.65 28.1877L130.577 27.6075L130.53 27.34L130.633 27.052L130.798 26.9395L131.028 26.849L131.24 26.8024L131.413 26.4773L131.741 26.3785L132.042 26.4388L132.29 26.4512L132.508 26.6885L132.631 27.0136L132.867 27.0397L133.254 27.0067L133.308 27.2783L133.197 27.7323L133.061 28.0835L133.038 28.3647L133.243 28.5018L133.994 28.3798L134.259 28.4401L134.345 28.7254L134.452 28.9614L134.504 29.2494L134.426 29.5676L134.561 29.7583L135.209 29.7624L135.665 29.6088L136.367 29.5964L137.001 29.9338L137.44 29.8817L137.882 29.7446L138.53 29.831L138.985 29.5649L139.299 29.2316L139.396 28.9696L139.56 28.8242L140.171 28.8256L140.556 28.7995L140.841 28.414L141.101 28.2399L141.538 28.2069H141.86L142.726 28.5649L143.252 28.8612L143.8 29.2823L144.129 29.5457L144.35 30.1396L144.723 30.5758L145.02 31.0847L145.092 31.5853L145.337 32.4838L145.59 32.7787H145.89L146.268 32.9008L146.686 32.9982L147.58 33.6634L147.909 33.6826L148.162 33.8417L148.201 34.1476L148.107 34.5015L148.205 34.8403L148.498 35.2724L148.729 35.6935L149.014 36.2037L149.1 36.4945L149.329 36.5905L149.637 36.4465L150.127 36.5563L151.6 36.8457L151.805 36.8813L151.962 37.1831L152.175 37.1584L152.42 37.1461L152.76 37.1817L152.996 36.9033L153.19 36.6591L153.676 36.3574L154.079 35.9472L154.417 35.5824L154.671 35.5344L154.876 35.7044L154.884 36.0199L154.631 36.2504L154.433 36.5288L154.479 36.8073L154.819 36.8319L155.196 37.2503L155.741 38.2283L155.925 38.4327L156.195 38.6247L156.493 38.7112L156.824 38.8511L157.068 39.253L157.185 39.6178ZM14.2894 62.7948L14.1559 62.8689L14.0747 62.5232L14.2234 62.2324L14.4352 62.1941L14.3622 62.6536L14.2894 62.7948ZM13.7996 63.4313L13.6607 63.5836L13.4543 63.5602L13.0677 62.9855L13.1764 62.4012L13.3168 62.2818L13.5121 62.1995L13.5382 62.3285L13.2645 62.5905L13.2384 62.921L13.4681 63.2873L13.7996 63.4313Z" fill="var(--fill-0, #71B219)" stroke="var(--stroke-0, white)" mask="url(#path-1-inside-1_0_110)"/>
</g>
</svg>
