<svg preserveAspectRatio="none" width="100%" height="100%" overflow="visible" style="display: block;" viewBox="0 0 29 35" fill="none" xmlns="http://www.w3.org/2000/svg"><g id="LA"><mask id="path-1-inside-1_0_126" fill="white"><path d="M8 0L8 1L8 1L9 2L9 2L10 2L10 3L10 3L10 3L10 3L10 3L10 3L10 3L10 3L10 3L10 3L11 3L11 3L11 3L11 4L11 4L11 4L11 4L11 5L11 5L11 5L12 7L12 7L13 7L13 7L14 7L14 7L14 7L14 7L15 6L15 6L16 6L16 7L17 7L17 7L17 8L17 8L17 8L17 8L17 8L16 8L16 8L17 9L17 9L18 9L18 9L18 9L18 9L18 9L18 9L18 10L19 10L19 10L18 10L18 11L18 11L18 11L17 12L17 12L16 12L16 12L15 12L15 12L15 12L15 12L15 12L15 13L15 13L15 13L15 13L15 13L15 13L15 14L17 14L17 15L17 15L18 15L19 15L19 16L19 16L19 16L19 16L19 16L19 16L19 17L20 17L20 17L20 18L20 18L21 18L21 18L21 18L21 19L21 19L22 19L22 20L22 20L23 21L23 21L24 22L24 22L24 22L24 22L25 22L25 23L25 23L25 24L25 24L25 24L25 24L25 24L26 24L26 24L26 24L26 24L26 25L26 25L27 25L27 25L27 26L28 26L28 26L28 26L28 26L28 26L28 27L27 27L27 27L27 27L28 28L28 28L28 28L28 28L29 29L29 29L29 29L29 30L29 30L29 30L28 30L28 30L28 31L29 31L29 31L29 32L28 32L28 32L28 32L28 32L28 32L27 32L27 33L27 33L27 33L27 33L26 33L26 33L26 33L26 33L26 33L25 32L25 32L25 32L25 32L25 32L24 32L24 32L24 32L24 32L24 33L23 33L23 33L23 33L23 33L23 34L23 34L23 35L22 35L22 34L22 34L22 34L21 34L20 34L20 34L20 34L20 34L20 33L20 33L20 33L20 33L20 33L20 32L21 32L21 32L21 32L21 31L21 31L21 30L21 30V29L21 29L21 29L21 29L21 28L21 28L21 28L21 28L21 27L21 27L20 27L20 27L20 27L20 26L20 26L19 26L19 26L19 25L19 25L18 24L18 24L18 23L18 22L18 21L18 20L18 20L17 20L17 20L16 19L16 18L15 18L15 17L15 17L14 17L14 17L13 17L13 17L12 17L12 17L12 17L12 17L12 17L12 17L12 17L12 18L12 18L12 18L12 18L11 18L11 18L11 18L10 19L10 19L10 19L10 19L10 19L10 19L10 19L10 19L9 18L9 18L9 18L8 18L8 18L8 18L7 18L7 18L7 18L7 18L6 18L6 18L6 19L6 19L6 19L5 20L5 20L4 20L4 20L4 20L3 20L3 20L3 19L4 18L4 18L4 17L4 17L4 17L4 17L4 17L4 16L4 16L4 16L4 15L4 14L4 14L4 14L4 13L4 12L4 12L4 12L3 12L3 12L3 12L3 12L2 12L2 12L2 12L1 12L1 11L1 11L2 10L2 10L2 10L2 10L2 10L1 9L1 9L1 9L1 9L0 9L0 9L0 9L0 9L0 9L0 9L0 8L0 7L1 7L1 7L2 7L2 7L2 7L2 7L2 7L2 6L2 6L2 6L2 6L2 6L2 5L2 5L3 5L3 5L4 4L4 4L4 4L4 4L4 5L4 5L4 5L4 5L4 5L4 5L5 5L6 5L6 5L6 5L6 6L6 6L6 6L6 5L6 5L6 5L6 5L6 5L6 4L6 4L6 4L6 3L6 3L6 2L6 2L6 2L6 2L6 1L6 1L5 1L6 1L6 1L6 0L6 0L6 0L6 0L6 0L7 0L7 0L7 0L8 0L8 0Z"/></mask><path d="M8 0L8 1L8 1L9 2L9 2L10 2L10 3L10 3L10 3L10 3L10 3L10 3L10 3L10 3L10 3L10 3L11 3L11 3L11 3L11 4L11 4L11 4L11 4L11 5L11 5L11 5L12 7L12 7L13 7L13 7L14 7L14 7L14 7L14 7L15 6L15 6L16 6L16 7L17 7L17 7L17 8L17 8L17 8L17 8L17 8L16 8L16 8L17 9L17 9L18 9L18 9L18 9L18 9L18 9L18 9L18 10L19 10L19 10L18 10L18 11L18 11L18 11L17 12L17 12L16 12L16 12L15 12L15 12L15 12L15 12L15 12L15 13L15 13L15 13L15 13L15 13L15 13L15 14L17 14L17 15L17 15L18 15L19 15L19 16L19 16L19 16L19 16L19 16L19 16L19 17L20 17L20 17L20 18L20 18L21 18L21 18L21 18L21 19L21 19L22 19L22 20L22 20L23 21L23 21L24 22L24 22L24 22L24 22L25 22L25 23L25 23L25 24L25 24L25 24L25 24L25 24L26 24L26 24L26 24L26 24L26 25L26 25L27 25L27 25L27 26L28 26L28 26L28 26L28 26L28 26L28 27L27 27L27 27L27 27L28 28L28 28L28 28L28 28L29 29L29 29L29 29L29 30L29 30L29 30L28 30L28 30L28 31L29 31L29 31L29 32L28 32L28 32L28 32L28 32L28 32L27 32L27 33L27 33L27 33L27 33L26 33L26 33L26 33L26 33L26 33L25 32L25 32L25 32L25 32L25 32L24 32L24 32L24 32L24 32L24 33L23 33L23 33L23 33L23 33L23 34L23 34L23 35L22 35L22 34L22 34L22 34L21 34L20 34L20 34L20 34L20 34L20 33L20 33L20 33L20 33L20 33L20 32L21 32L21 32L21 32L21 31L21 31L21 30L21 30V29L21 29L21 29L21 29L21 28L21 28L21 28L21 28L21 27L21 27L20 27L20 27L20 27L20 26L20 26L19 26L19 26L19 25L19 25L18 24L18 24L18 23L18 22L18 21L18 20L18 20L17 20L17 20L16 19L16 18L15 18L15 17L15 17L14 17L14 17L13 17L13 17L12 17L12 17L12 17L12 17L12 17L12 17L12 17L12 18L12 18L12 18L12 18L11 18L11 18L11 18L10 19L10 19L10 19L10 19L10 19L10 19L10 19L10 19L9 18L9 18L9 18L8 18L8 18L8 18L7 18L7 18L7 18L7 18L6 18L6 18L6 19L6 19L6 19L5 20L5 20L4 20L4 20L4 20L3 20L3 20L3 19L4 18L4 18L4 17L4 17L4 17L4 17L4 17L4 16L4 16L4 16L4 15L4 14L4 14L4 14L4 13L4 12L4 12L4 12L3 12L3 12L3 12L3 12L2 12L2 12L2 12L1 12L1 11L1 11L2 10L2 10L2 10L2 10L2 10L1 9L1 9L1 9L1 9L0 9L0 9L0 9L0 9L0 9L0 9L0 8L0 7L1 7L1 7L2 7L2 7L2 7L2 7L2 7L2 6L2 6L2 6L2 6L2 6L2 5L2 5L3 5L3 5L4 4L4 4L4 4L4 4L4 5L4 5L4 5L4 5L4 5L4 5L5 5L6 5L6 5L6 5L6 6L6 6L6 6L6 5L6 5L6 5L6 5L6 5L6 4L6 4L6 4L6 3L6 3L6 2L6 2L6 2L6 2L6 1L6 1L5 1L6 1L6 1L6 0L6 0L6 0L6 0L6 0L7 0L7 0L7 0L8 0L8 0Z" fill="var(--fill-0,#71B219)"/><path d="M8 0L8 0L8 0L8 0L8 0ZM8 1L8 1L8 1L8 1L8 1ZM8 1L9 1L9 1L9 1L8 1ZM9 2L9 2L9 2L9 2L9 2ZM9 2L9 2L9 3L9 3L9 2ZM10 2L10 2L10 2L10 2L10 2ZM10 3L10 2L10 2L10 2L10 3ZM10 3L10 3L10 3L10 3L10 3ZM10 3L9 3L9 3L9 4L10 3ZM10 3L9 4L10 4L10 4L10 3ZM10 3L10 4L10 4L10 4L10 3ZM10 3L10 4L10 4L10 4L10 3ZM10 3L11 4L11 4L11 3L10 3ZM10 3L10 2L10 2L10 3L10 3ZM10 3L11 3L11 2L10 2L10 3ZM10 3L10 3L10 4L10 4L10 3ZM11 3L10 4L10 4L10 4L11 3ZM11 3L11 3L11 3L11 3L11 3ZM11 3L11 3L11 3L11 3L11 3ZM11 4L12 4L12 4L12 4L11 4ZM11 4L11 4L11 4L11 4L11 4ZM11 4L10 4L10 4L10 4L11 4ZM11 4L10 4L10 4L10 4L11 4ZM11 5L11 5L11 5L11 5L11 5ZM11 5L10 5L10 5L10 5L11 5ZM11 5L10 6L10 6L10 6L11 5ZM12 7L11 7L11 7L11 7L12 7ZM12 7L12 7L12 7L12 7L12 7ZM13 7L13 7L13 7L13 7L13 7ZM13 7L14 7L14 7L14 7L13 7ZM14 7L13 8L14 8L14 8L14 7ZM14 7L14 8L14 8L14 8L14 7ZM14 7L14 6L14 7L14 7L14 7ZM14 7L14 6L14 6L14 6L14 7ZM15 6L15 6L15 6L15 6L15 6ZM15 6L16 6L16 6L15 6L15 6ZM16 6L16 6L16 6L16 6L16 6ZM16 7L17 6L17 6L17 6L16 7ZM17 7L16 8L16 8L16 8L17 7ZM17 7L17 7L17 7L17 7L17 7ZM17 8L18 8L18 7L18 7L17 8ZM17 8L18 8L18 8L18 8L17 8ZM17 8L17 8L17 8L17 8L17 8ZM17 8L17 8L17 8L17 8L17 8ZM17 8L16 8L16 8L16 8L17 8ZM16 8L16 8L16 8L16 9L16 8ZM16 8L16 9L16 9L16 9L16 8ZM17 9L17 8L17 8L17 8L17 9ZM17 9L18 8L18 8L18 8L17 9ZM18 9L18 9L18 9L18 9L18 9ZM18 9L17 9L17 9L17 9L18 9ZM18 9L17 9L17 10L17 10L18 9ZM18 9L17 10L18 10L18 10L18 9ZM18 9L18 9L18 9L18 9L18 9ZM18 9L19 9L18 9L18 9L18 9ZM18 10L19 9L19 9L19 9L18 10ZM19 10L19 10L19 10L19 10L19 10ZM19 10L19 10L19 10L19 10L19 10ZM18 10L18 10L18 10L18 10L18 10ZM18 11L18 10L18 10L18 10L18 11ZM18 11L18 11L19 11L19 11L18 11ZM18 11L18 12L18 12L18 12L18 11ZM17 12L17 12L18 12L18 12L17 12ZM17 12L17 12L17 12L17 12L17 12ZM16 12L16 11L16 11L16 11L16 12ZM16 12L16 11L16 11L16 12ZM15 12L15 11L15 11L15 11L15 12ZM15 12L15 11L15 11L15 11L15 12ZM15 12L15 11L14 12L15 12L15 12ZM15 12L16 12L16 12L16 12L15 12ZM15 12L16 13L16 12L16 12L15 12ZM15 13L15 13L16 13L16 13L15 13ZM15 13L14 12L14 12L14 12L15 13ZM15 13L14 12L14 13L14 13L15 13ZM15 13L14 13L14 13L14 13L15 13ZM15 13L14 14L14 14L14 14L15 13ZM15 13L15 14L15 14L15 14L15 13ZM15 14L16 13L16 13L16 13L15 14ZM17 14L17 14L17 14L17 14L17 14ZM17 15L17 14L17 14L17 14L17 15ZM17 15L17 15L17 15L17 15L17 15ZM18 15L18 16L18 16L18 16L18 15ZM19 15L19 15L19 15L19 15L19 15ZM19 16L20 15L20 15L20 15L19 16ZM19 16L20 16L20 16L20 15L19 16ZM19 16L20 16L20 16L20 16L19 16ZM19 16L19 16L19 16L19 16L19 16ZM19 16L19 16L19 16L19 16L19 16ZM19 16L19 16L19 17L19 17L19 16ZM19 17L19 17L19 17L19 17L19 17ZM20 17L19 17L19 17L19 17L20 17ZM20 17L20 18L20 18L20 18L20 17ZM20 18L20 18L20 18L20 18L20 18ZM20 18L21 17L20 17L20 17L20 18ZM21 18L21 17L21 17L21 17L21 18ZM21 18L21 18L21 18L21 18ZM21 18L22 18L22 18L22 18L21 18ZM21 19L21 19L21 19L21 19L21 19ZM21 19L21 19L21 19L21 19L21 19ZM22 19L21 20L21 20L21 20L22 19ZM22 20L22 20L22 20L22 20L22 20ZM22 20L23 20L23 20L23 20L22 20ZM23 21L22 21L22 21L22 21L23 21ZM23 21L22 21L22 21L22 21L23 21ZM24 22L24 21L24 21L24 21L24 22ZM24 22L24 22L24 22L24 22L24 22ZM24 22L24 23L24 23L24 23L24 22ZM24 22L25 22L25 22L25 22L24 22ZM25 22L25 22L25 22L25 22L25 22ZM25 23L25 23L25 23L25 23L25 23ZM25 23L25 23L25 23L25 23L25 23ZM25 24L24 24L24 24L24 24L25 24ZM25 24L25 24L25 24L25 24L25 24ZM25 24L26 24L26 24L26 24L25 24ZM25 24L25 25L25 25L25 25L25 24ZM25 24L25 25L25 25L25 25L25 24ZM26 24L26 25L26 25L26 25L26 24ZM26 24L26 25L26 25L26 25L26 24ZM26 24L26 24L26 24L26 24L26 24ZM26 24L26 24L26 24L26 24L26 24ZM26 25L26 25L26 25L26 25L26 25ZM26 25L26 25L26 25L26 25L26 25ZM27 25L26 26L26 26L26 26L27 25ZM27 25L27 25L27 25L27 25L27 25ZM27 26L27 26L27 26L27 26L27 26ZM28 26L27 26L28 26L28 26L28 26ZM28 26L28 26L28 26L28 26L28 26ZM28 26L29 26L28 26L28 26L28 26ZM28 26L29 26L29 26L29 26L28 26ZM28 26L28 27L28 27L29 27L28 26ZM28 27L28 27L28 27L28 27L28 27ZM27 27L27 26L27 27L27 27L27 27ZM27 27L27 27L27 27L27 27L27 27ZM27 27L27 28L27 28L27 28L27 27ZM28 28L27 28L27 28L27 28L28 28ZM28 28L27 28L27 28L27 28L28 28ZM28 28L28 28L28 28L28 28L28 28ZM28 28L28 29L28 29L28 29L28 28ZM29 29L29 28L29 28L29 28L29 29ZM29 29L29 29L29 29L29 29L29 29ZM29 29L30 29L30 29L30 29L29 29ZM29 30L30 30L30 30L30 30L29 30ZM29 30L28 30L28 30L28 30L29 30ZM29 30L29 30L29 30L29 30L29 30ZM28 30L28 30L28 30L28 30L28 30ZM28 30L28 30L28 30L28 31L28 30ZM28 31L28 31L28 31L28 31L28 31ZM29 31L29 31L29 31L29 31L29 31ZM29 31L28 31L28 31L28 31L29 31ZM29 32L29 32L29 32L29 32L29 32ZM28 32L28 31L28 31L28 31L28 32ZM28 32L28 32L28 32L29 32L28 32ZM28 32L28 32L28 33L28 33L28 32ZM28 32L28 32L28 31L27 32L28 32ZM28 32L27 32L27 32L27 32L28 32ZM27 32L28 33L28 33L28 33L27 32ZM27 33L27 33L27 33L27 33L27 33ZM27 33L27 33L27 33L27 33L27 33ZM27 33L27 32L27 32L26 32L27 33ZM27 33L26 32L26 32L26 32L27 33ZM26 33L26 34L27 34L27 33L26 33ZM26 33L26 32L26 32L26 32L26 33ZM26 33L26 34L26 34L26 34L26 33ZM26 33L25 33L25 33L26 33L26 33ZM26 33L26 32L26 32L26 32L26 33ZM25 32L26 32L26 32L26 32L25 32ZM25 32L25 33L25 33L25 33L25 32ZM25 32L24 33L24 33L25 33L25 32ZM25 32L25 32L25 32L25 32L25 32ZM25 32L25 32L25 31L24 32L25 32ZM24 32L25 33L25 33L25 33L24 32ZM24 32L24 33L24 33L24 33L24 32ZM24 32L24 33L24 33L24 33L24 32ZM24 32L24 32L23 32L23 32L24 32ZM24 33L24 33L24 33L24 33L24 33ZM23 33L23 33L24 33L24 33L23 33ZM23 33L23 32L23 32L22 32L23 33ZM23 33L22 32L22 33L22 33L23 33ZM23 33L22 33L22 33L22 34L23 33ZM23 34L24 34L24 34L24 34L23 34ZM23 34L24 34L24 34L24 34L23 34ZM23 35L23 35L23 35L23 35L23 35ZM22 35L22 35L22 35L22 35L22 35ZM22 34L22 35L22 35L22 35L22 34ZM22 34L21 34L21 34L21 34L22 34ZM22 34L22 34L22 34L22 34L22 34ZM21 34L21 33L21 33L21 33L21 34ZM20 34L20 34L20 34L20 34L20 34ZM20 34L20 34L20 34L20 34L20 34ZM20 34L20 34L20 34L20 34L20 34ZM20 34L19 34L19 34L20 34L20 34ZM20 33L19 33L19 34L19 34L20 33ZM20 33L19 33L19 33L19 33L20 33ZM20 33L19 32L19 33L19 33L20 33ZM20 33L20 33L20 33L20 33L20 33ZM20 33L20 33L20 33L20 33L20 33ZM20 32L21 33L21 33L21 33L20 32ZM21 32L21 32L21 32L21 32L21 32ZM21 32L21 32L21 32L21 32L21 32ZM21 32L20 32L20 32L20 32L21 32ZM21 31L20 31L20 31L20 31L21 31ZM21 31L22 31L22 31L22 30L21 31ZM21 30L21 30L21 30L21 30L21 30ZM21 30H20V30L20 30L21 30ZM21 29L20 29L20 29V29H21ZM21 29L21 29L21 29L21 29L21 29ZM21 29L20 28L20 29L20 29L21 29ZM21 29L21 29L22 29L22 29L21 29ZM21 28L22 29L22 29L22 28L21 28ZM21 28L22 28L22 28L22 28L21 28ZM21 28L22 28L22 28L22 28L21 28ZM21 28L22 27L22 27L22 27L21 28ZM21 27L21 27L21 27L21 27L21 27ZM21 27L20 28L20 28L20 28L21 27ZM20 27L20 27L20 27L20 27L20 27ZM20 27L20 27L20 27L20 27L20 27ZM20 27L20 26L20 26L20 27L20 27ZM20 26L21 27L21 26L21 26L20 26ZM20 26L20 26L20 26L20 26L20 26ZM19 26L19 26L19 26L19 26L19 26ZM19 26L19 26L19 26L19 26L19 26ZM19 25L19 25L19 25L19 25L19 25ZM19 25L19 25L19 25L19 25L19 25ZM18 24L18 25L18 25L18 25L18 24ZM18 24L17 24L17 24L17 24L18 24ZM18 23L17 23L17 23L17 23L18 23ZM18 22L17 22L17 22L17 22L18 22ZM18 21L19 21L19 21L19 21L18 21ZM18 20L18 20L18 20L18 20L18 20ZM18 20L18 20L18 20L18 20L18 20ZM17 20L17 20L17 20L17 20L17 20ZM17 20L16 20L16 20L16 20L17 20ZM16 19L16 19L16 19L16 19L16 19ZM16 18L15 19L15 19L15 19L16 18ZM15 18L16 17L16 17L16 17L15 18ZM15 17L15 17L15 16L15 17L15 17ZM15 17L14 18L15 18L15 18L15 17ZM14 17L14 18L14 18L14 18L14 17ZM14 17L14 16L14 16L14 16L14 17ZM13 17L13 16L13 16L13 16L13 17ZM13 17L13 16L12 16L12 16L13 17ZM12 17L12 16L12 16L12 16L12 17ZM12 17L12 16L12 17L12 17L12 17ZM12 17L12 17L12 17L12 17L12 17ZM12 17L13 17L13 17L13 17L12 17ZM12 17L12 18L12 18L13 18L12 17ZM12 17L12 17L12 17L12 17L12 17ZM12 17L11 17L11 17L11 17L12 17ZM12 18L12 18L11 18L12 18ZM12 18L11 18L12 18L12 18ZM11 18L12 19L12 18L12 18L11 18ZM11 18L11 19L11 19L11 19L11 18ZM11 18L11 18L11 18L11 18L11 18ZM10 19L10 18L10 18L10 18L10 19ZM10 19L10 18L10 18L10 18L10 19ZM10 19L10 19L9 19L9 19L10 19ZM10 19L10 20L10 19L10 19L10 19ZM10 19L10 20L10 20L10 20L10 19ZM10 19L9 19L9 19L10 20L10 19ZM10 19L9 19L9 19L9 19L10 19ZM10 19L10 19L10 18L10 18L10 19ZM9 18L10 18L10 18L10 18L9 18ZM9 18L9 19L9 19L9 19L9 18ZM9 18L8 18L8 19L8 19L9 18ZM8 18L8 17L8 17L8 17L8 18ZM8 18L8 17L8 17L8 17L8 18ZM8 18L8 17L8 17L7 17L8 18ZM7 18L7 17L7 17L7 17L7 18ZM7 18L7 18L7 18L7 18L7 18ZM7 18L7 19L7 19L7 19L7 18ZM7 18L7 18L6 18L6 18L7 18ZM6 18L6 18L6 18L6 18L6 18ZM6 18L7 19L7 19L7 19L6 18ZM6 19L6 19L6 19L6 19L6 19ZM6 19L5 19L5 19L5 19L6 19ZM6 19L6 20L6 20L6 19L6 19ZM5 20L5 19L5 19L5 19L5 20ZM5 20L4 20L4 20L4 20L5 20ZM4 20L4 21L4 21L4 21L4 20ZM4 20L4 21L4 21L4 21L4 20ZM4 20L4 20L4 20L4 20L4 20ZM3 20L3 21L3 21L3 21L3 20ZM3 20L3 20L2 20L3 20L3 20ZM3 19L3 19L3 19L3 19L3 19ZM4 18L4 18L4 18L4 18L4 18ZM4 18L4 18L4 18L4 18L4 18ZM4 17L4 18L4 17L4 17L4 17ZM4 17L4 17L4 17L4 17L4 17ZM4 17L4 17L4 17L4 17L4 17ZM4 17L3 17L3 17L3 17L4 17ZM4 17L3 16L3 16L3 17L4 17ZM4 16L3 16L3 16L3 16L4 16ZM4 16L4 16L4 16L4 16L4 16ZM4 16L4 16L4 16L4 16L4 16ZM4 15L4 15L4 15L4 15L4 15ZM4 14L5 15L5 14L5 14L4 14ZM4 14L5 14L5 14L5 14L4 14ZM4 14L4 14L4 14L4 14L4 14ZM4 13L4 13L4 13L4 13L4 13ZM4 12L5 12L5 12L5 12L4 12ZM4 12L5 12L5 12L4 12L4 12ZM4 12L4 12L4 12L4 12L4 12ZM3 12L3 11L3 11L3 11L3 12ZM3 12L3 11L3 11L3 11L3 12ZM3 12L3 12L3 12L2 12L3 12ZM3 12L3 13L3 12L3 12L3 12ZM2 12L2 13L3 13L3 13L2 12ZM2 12L2 13L2 13L2 13L2 12ZM2 12L1 12L1 12L1 12L2 12ZM1 12L1 12L1 12L1 12L1 12ZM1 11L1 11L1 11L1 11L1 11ZM1 11L2 11L2 11L2 11L1 11ZM2 10L2 10L2 10L2 10L2 10ZM2 10L2 10L2 10L2 10L2 10ZM2 10L2 10L2 10L2 10L2 10ZM2 10L2 9L2 9L2 9L2 10ZM2 10L1 10L1 10L1 10L2 10ZM1 9L1 10L1 10L1 10L1 9ZM1 9L1 9L1 8L1 8L1 9ZM1 9L1 8L1 8L1 8L1 9ZM1 9L0 8L0 8L0 8L1 9ZM0 9L0 8L0 8L0 9L0 9ZM0 9L1 10L1 10L1 9L0 9ZM0 9L0 10L0 10L0 10L0 9ZM0 9L0 9L0 10L0 10L0 9ZM0 9L0 9L0 9L0 9ZM0 9L0 9L0 9L0 9L0 9ZM0 8L0 8L0 8L0 8L0 8ZM0 7L0 7L0 7L0 7L0 7ZM1 7L1 6L1 7L0 7L1 7ZM1 7L1 6L1 6L1 6L1 7ZM2 7L1 7L2 7L2 7L2 7ZM2 7L2 7L2 7L2 7L2 7ZM2 7L2 7L2 7L2 7L2 7ZM2 7L2 6L2 6L2 6L2 7ZM2 7L1 7L1 7L2 7L2 7ZM2 6L1 6L1 7L1 7L2 6ZM2 6L1 6L1 6L1 6L2 6ZM2 6L2 6L1 6L1 6L2 6ZM2 6L2 6L2 6L2 6L2 6ZM2 6L2 6L3 6L3 6L2 6ZM2 5L2 5L2 5L2 5L2 5ZM2 5L2 4L2 4L2 5L2 5ZM3 5L3 5L3 5L3 5L3 5ZM3 5L3 5L3 5L3 5L3 5ZM4 4L4 5L4 5L4 4L4 4ZM4 4L4 3L4 3L4 4L4 4ZM4 4L5 4L5 4L4 4L4 4ZM4 4L4 4L4 5L4 5L4 4ZM4 5L5 4L5 4L4 4L4 5ZM4 5L5 5L5 5L5 5L4 5ZM4 5L4 5L4 5L4 5L4 5ZM4 5L4 5L4 6L4 6L4 5ZM4 5L4 6L4 6L4 6L4 5ZM4 5L4 6L4 6L5 6L4 5ZM5 5L5 5L5 5L5 5L5 5ZM6 5L6 5L6 5L6 5L6 5ZM6 5L5 6L5 6L5 6L6 5ZM6 5L6 6L6 6L6 6L6 5ZM6 6L6 5L6 5L6 5L6 6ZM6 6L6 6L6 6L6 6L6 6ZM6 6L6 6L6 6L7 6L6 6ZM6 5L6 5L6 5L6 5L6 5ZM6 5L7 6L7 6L7 5L6 5ZM6 5L7 5L7 5L7 5L6 5ZM6 5L7 5L7 5L7 5L6 5ZM6 5L6 5L6 5L6 5L6 5ZM6 4L6 4L6 4L6 4L6 4ZM6 4L7 4L7 4L7 4L6 4ZM6 4L7 4L7 4L7 4L6 4ZM6 3L7 3L7 3L7 3L6 3ZM6 3L7 3L7 3L7 2L6 3ZM6 2L6 2L6 2L6 2L6 2ZM6 2L5 2L5 2L5 2L6 2ZM6 2L5 2L5 2L5 2L6 2ZM6 2L5 2L5 2L5 2L6 2ZM6 1L6 1L6 1L6 1L6 1ZM6 1L5 1L5 1L5 1L6 1ZM5 1L5 1L5 1L5 1L5 1ZM6 1L6 1L6 1L6 1L6 1ZM6 1L6 1L6 1L6 1L6 1ZM6 0L5 0L5 0L5 0L6 0ZM6 0L6 0L6 0L6 0L6 0ZM6 0L6 0L6 0L6 0L6 0ZM6 0L6 0L6 0L6 0L6 0ZM6 0L7 0L7 0L6 0L6 0ZM7 0L6 1L6 1L7 1L7 0ZM7 0L7 0L7 0L7 0L7 0ZM7 0L8 0L8 0L7 0L7 0ZM8 0L8 0L8 0L8 0L8 0ZM8 0L7 1L8 1L8 1L8 1L8 0L8 0ZM8 1L8 1L8 2L8 1L9 1L8 0L8 1ZM8 1L8 2L9 2L9 2L9 2L9 1L8 1ZM9 2L9 2L9 2L9 2L10 2L9 2L9 2ZM9 2L9 3L9 3L10 2L10 2L9 2L9 2ZM10 2L9 3L9 3L10 3L10 2L10 2L10 2ZM10 3L9 3L9 3L10 3L10 3L10 2L10 3ZM10 3L9 3L9 3L10 3L10 3L10 3L10 3ZM10 3L9 4L9 4L10 3L10 3L10 3L10 3ZM10 3L10 4L10 4L10 3L10 3L10 3L10 3ZM10 3L10 4L10 4L10 3L10 3L10 3L10 3ZM10 3L10 4L11 4L10 3L10 3L10 3L10 3ZM10 3L11 3L11 3L10 3L10 3L10 3L10 3ZM10 3L11 3L11 3L10 3L10 2L10 2L10 3ZM10 3L10 3L10 3L10 3L11 3L11 3L10 3ZM10 3L10 4L10 4L11 3L11 3L11 3L10 3ZM11 3L10 4L11 4L11 3L11 3L11 3L11 3ZM11 3L10 4L11 4L11 3L11 3L11 3L11 3ZM11 3L10 3L10 4L11 4L12 4L11 3L11 3ZM11 4L10 4L10 4L11 4L11 4L12 4L11 4ZM11 4L10 4L10 4L11 4L11 4L11 4L11 4ZM11 4L10 4L10 4L11 4L11 4L11 4L11 4ZM11 4L10 4L10 5L11 5L11 5L11 4L11 4ZM11 5L10 5L10 5L11 5L11 5L11 5L11 5ZM11 5L10 5L10 6L11 5L11 5L11 5L11 5ZM11 5L10 6L11 7L12 7L12 6L11 5L11 5ZM12 7L11 7L12 7L12 7L12 6L12 6L12 7ZM12 7L12 7L13 8L13 7L13 7L12 6L12 7ZM13 7L13 8L13 8L13 7L14 7L13 7L13 7ZM13 7L13 8L13 8L14 7L14 7L14 7L13 7ZM14 7L14 8L14 8L14 7L14 7L14 7L14 7ZM14 7L14 8L15 7L14 7L14 7L14 7L14 7ZM14 7L14 7L15 7L14 7L14 6L14 6L14 7ZM14 7L15 7L15 7L15 6L15 6L14 6L14 7ZM15 6L15 7L15 7L15 6L15 6L15 6L15 6ZM15 6L15 7L16 7L16 6L16 6L16 6L15 6ZM16 6L16 7L16 7L16 7L17 6L16 6L16 6ZM16 7L16 7L16 8L17 7L17 7L17 6L16 7ZM17 7L16 8L17 8L17 7L17 7L17 7L17 7ZM17 7L17 8L17 8L17 8L18 7L17 7L17 7ZM17 8L17 8L17 8L17 8L18 8L18 8L17 8ZM17 8L17 8L17 8L17 8L17 8L18 8L17 8ZM17 8L17 8L17 8L17 8L17 8L17 8L17 8ZM17 8L17 8L16 8L17 8L17 9L17 8L17 8ZM17 8L16 8L16 8L16 8L17 9L17 9L17 8ZM16 8L16 9L16 9L16 8L17 8L17 8L16 8ZM16 8L16 9L17 9L17 9L17 8L17 8L16 8ZM17 9L17 9L17 9L17 9L18 8L17 8L17 9ZM17 9L17 9L17 9L18 9L18 9L18 8L17 9ZM18 9L17 9L17 9L18 9L18 9L18 9L18 9ZM18 9L17 9L17 9L18 9L18 9L18 9L18 9ZM18 9L17 10L17 10L18 9L18 9L18 9L18 9ZM18 9L18 10L18 10L18 9L18 9L18 9L18 9ZM18 9L18 10L18 10L18 9L18 9L18 9L18 9ZM18 9L18 10L18 10L18 10L19 9L19 9L18 9ZM18 10L18 10L18 10L19 10L19 10L19 9L18 10ZM19 10L18 10L18 10L19 10L19 10L19 10L19 10ZM19 10L18 10L18 10L18 10L19 11L19 10L19 10ZM18 10L18 10L18 10L18 11L19 11L19 11L18 10ZM18 11L18 10L18 11L18 11L19 11L19 11L18 11ZM18 11L18 11L18 11L18 11L18 12L18 11L18 11ZM18 11L18 11L17 11L17 12L18 12L18 12L18 11ZM17 12L17 11L17 11L17 12L17 12L17 12L17 12ZM17 12L17 11L16 11L16 12L16 12L17 12L17 12ZM16 12L16 11L16 11L16 12L16 12L16 12L16 12ZM16 12L16 11L15 11L15 12L15 12L16 12L16 12ZM15 12L15 11L15 11L15 12L15 12L15 12L15 12ZM15 12L15 11L15 11L15 12L16 12L16 12L15 12ZM15 12L15 12L15 12L15 12L16 12L16 12L15 12ZM15 12L15 12L15 12L15 12L16 12L16 12L15 12ZM15 12L15 12L15 12L15 13L16 13L16 13L15 12ZM15 13L15 12L14 12L15 13L15 13L15 13L15 13ZM15 13L14 12L14 12L15 13L15 13L15 13L15 13ZM15 13L14 13L14 13L15 13L15 13L15 13L15 13ZM15 13L14 13L14 14L15 13L15 13L15 13L15 13ZM15 13L14 14L15 14L15 13L15 13L15 13L15 13ZM15 13L15 14L15 14L15 14L16 13L15 13L15 13ZM15 14L15 14L16 15L17 14L17 14L16 13L15 14ZM17 14L16 15L17 15L17 15L17 14L17 14L17 14ZM17 15L17 15L17 15L17 15L18 14L17 14L17 15ZM17 15L17 15L18 16L18 15L18 15L18 14L17 15ZM18 15L18 16L19 16L19 15L19 15L18 15L18 15ZM19 15L19 16L19 16L19 16L20 15L19 15L19 15ZM19 16L19 16L19 16L19 16L20 15L20 15L19 16ZM19 16L19 16L19 16L19 16L20 16L20 16L19 16ZM19 16L19 16L19 16L19 16L20 16L20 16L19 16ZM19 16L19 16L19 16L19 16L20 16L20 16L19 16ZM19 16L19 16L19 16L19 16L20 16L20 16L19 16ZM19 16L19 17L19 17L19 17L20 16L20 16L19 16ZM19 17L19 17L19 17L20 17L20 17L20 16L19 17ZM20 17L19 17L20 18L20 17L20 17L20 17L20 17ZM20 17L20 18L20 18L20 18L20 17L20 17L20 17ZM20 18L20 18L20 18L20 18L20 17L20 17L20 18ZM20 18L20 18L20 18L21 18L21 17L21 17L20 18ZM21 18L20 18L20 18L21 18L21 18L21 17L21 18ZM21 18L20 18L21 19L21 18L22 18L21 18L21 18ZM21 18L21 18L21 19L21 19L22 19L22 18L21 18ZM21 19L21 19L21 19L21 19L22 19L22 18L21 19ZM21 19L21 19L21 20L22 19L22 19L22 19L21 19ZM22 19L21 20L22 20L22 20L22 19L22 19L22 19ZM22 20L22 20L22 21L22 20L23 20L22 19L22 20ZM22 20L22 21L22 21L23 21L23 20L23 20L22 20ZM23 21L22 21L22 21L23 21L23 20L23 20L23 21ZM23 21L22 21L24 22L24 22L24 21L23 20L23 21ZM24 22L23 22L24 22L24 22L24 22L24 21L24 22ZM24 22L24 22L24 23L24 22L25 22L24 22L24 22ZM24 22L24 23L24 23L24 22L25 22L25 22L24 22ZM24 22L24 23L24 23L25 22L25 22L25 22L24 22ZM25 22L24 23L24 23L25 23L25 23L25 22L25 22ZM25 23L24 23L24 23L25 23L25 23L25 23L25 23ZM25 23L24 23L24 24L25 24L25 24L25 23L25 23ZM25 24L24 24L25 24L25 24L25 24L25 23L25 24ZM25 24L25 24L25 24L25 24L26 24L25 24L25 24ZM25 24L25 24L25 25L25 24L26 24L26 24L25 24ZM25 24L25 25L25 25L25 24L26 24L26 24L25 24ZM25 24L25 25L26 25L26 24L26 24L26 24L25 24ZM26 24L26 25L26 25L26 24L26 24L25 24L26 24ZM26 24L26 25L26 25L26 24L26 24L25 24L26 24ZM26 24L26 25L26 25L26 24L26 24L26 24L26 24ZM26 24L26 24L26 25L26 25L27 25L26 24L26 24ZM26 25L26 25L26 25L26 25L27 25L26 24L26 25ZM26 25L26 25L26 26L27 25L27 25L27 24L26 25ZM27 25L26 26L27 26L27 25L27 25L27 25L27 25ZM27 25L26 26L27 26L27 26L28 25L27 25L27 25ZM27 26L27 26L27 26L28 26L28 26L28 25L27 26ZM28 26L28 26L28 27L28 26L28 26L28 26L28 26ZM28 26L28 26L28 27L28 26L28 26L28 26L28 26ZM28 26L28 26L28 26L28 26L29 26L29 26L28 26ZM28 26L28 26L28 26L28 26L29 27L29 26L28 26ZM28 26L28 26L28 26L28 27L28 27L28 27L28 26ZM28 27L28 26L27 26L27 27L28 27L28 27L28 27ZM27 27L27 27L27 27L27 27L28 27L28 27L27 27ZM27 27L27 27L27 28L27 27L28 27L28 27L27 27ZM27 27L27 28L27 28L28 28L28 27L28 27L27 27ZM28 28L27 28L27 28L28 28L28 28L28 27L28 28ZM28 28L27 28L28 28L28 28L28 28L28 28L28 28ZM28 28L28 28L28 29L28 28L29 28L28 28L28 28ZM28 28L28 29L28 29L29 29L29 28L29 28L28 28ZM29 29L28 29L29 29L29 29L29 29L29 28L29 29ZM29 29L28 29L29 30L29 29L30 29L29 29L29 29ZM29 29L29 29L28 29L29 30L30 30L30 29L29 29ZM29 30L29 29L28 30L29 30L29 30L30 30L29 30ZM29 30L28 30L28 30L29 30L29 30L29 30L29 30ZM29 30L28 30L28 30L28 30L29 31L29 30L29 30ZM28 30L28 30L28 30L28 30L29 31L29 30L28 30ZM28 30L28 31L28 31L28 31L29 30L29 30L28 30ZM28 31L28 31L28 31L29 31L29 31L29 30L28 31ZM29 31L28 31L28 31L29 31L29 31L29 31L29 31ZM29 31L28 31L28 32L29 32L29 32L29 31L29 31ZM29 32L28 31L28 31L28 32L29 32L29 32L29 32ZM28 32L28 31L28 32L28 32L29 32L29 32L28 32ZM28 32L28 32L28 32L28 32L28 33L28 32L28 32ZM28 32L28 32L28 32L28 32L28 32L28 32L28 32ZM28 32L27 32L27 32L28 32L28 32L28 32L28 32ZM28 32L27 32L27 32L27 32L28 33L28 32L28 32ZM27 32L27 32L27 32L27 33L27 33L28 33L27 32ZM27 33L27 32L27 32L27 33L27 33L27 33L27 33ZM27 33L27 32L27 32L27 33L27 33L27 33L27 33ZM27 33L26 32L26 32L27 33L27 33L27 33L27 33ZM27 33L26 32L26 33L26 33L27 33L27 33L27 33ZM26 33L26 32L26 32L26 33L26 34L26 34L26 33ZM26 33L26 32L26 32L26 33L26 34L26 34L26 33ZM26 33L26 33L26 32L26 33L26 33L26 34L26 33ZM26 33L26 33L26 32L26 33L25 33L25 33L26 33ZM26 33L26 32L26 32L25 32L25 33L25 33L26 33ZM25 32L26 32L25 32L25 32L25 33L25 33L25 32ZM25 32L25 32L25 32L25 32L25 33L25 33L25 32ZM25 32L25 32L25 32L25 32L24 32L24 33L25 32ZM25 32L25 32L25 32L25 32L24 32L24 32L25 32ZM25 32L24 32L24 32L24 32L25 33L25 32L25 32ZM24 32L24 32L24 32L24 32L24 33L25 33L24 32ZM24 32L24 32L24 32L24 32L24 33L24 33L24 32ZM24 32L24 32L24 32L24 32L24 33L24 33L24 32ZM24 32L23 32L23 33L24 33L24 33L24 33L24 32ZM24 33L23 32L23 32L23 33L24 33L24 33L24 33ZM23 33L23 32L23 32L23 33L23 33L23 33L23 33ZM23 33L22 32L22 32L23 33L23 33L23 33L23 33ZM23 33L22 33L22 33L23 33L23 33L23 33L23 33ZM23 33L22 34L23 34L23 34L24 34L23 33L23 33ZM23 34L23 34L23 34L23 34L24 34L24 34L23 34ZM23 34L23 34L22 34L23 35L23 35L24 34L23 34ZM23 35L23 34L22 34L22 35L22 35L23 35L23 35ZM22 35L23 34L22 34L22 34L22 35L22 35L22 35ZM22 34L22 34L22 34L22 34L21 34L22 35L22 34ZM22 34L22 34L22 34L22 34L21 34L21 34L22 34ZM22 34L22 34L21 33L21 34L21 34L22 34L22 34ZM21 34L21 33L20 33L20 34L20 34L21 34L21 34ZM20 34L20 33L20 33L20 34L20 34L20 34L20 34ZM20 34L20 33L20 33L20 34L20 34L20 34L20 34ZM20 34L20 33L20 33L20 34L20 34L20 34L20 34ZM20 34L20 33L20 33L20 33L19 34L19 34L20 34ZM20 33L20 33L20 33L20 33L19 33L19 33L20 33ZM20 33L20 33L20 33L20 33L19 33L19 33L20 33ZM20 33L20 33L20 33L20 33L20 32L19 32L20 33ZM20 33L20 33L20 33L20 33L20 32L20 32L20 33ZM20 33L20 33L21 33L20 32L20 32L20 32L20 33ZM20 32L21 33L21 32L21 32L20 32L20 32L20 32ZM21 32L21 32L21 32L21 32L20 32L20 32L21 32ZM21 32L21 32L21 32L21 32L20 32L20 32L21 32ZM21 32L21 32L21 31L21 31L20 31L20 32L21 32ZM21 31L21 31L22 31L21 31L20 30L20 31L21 31ZM21 31L22 30L21 30L21 30L20 30L20 31L21 31ZM21 30L21 30L21 30L21 30L20 30L20 30L21 30ZM21 30H21V29H21H20V30H21ZM21 29L21 29L21 29L21 29L20 29L20 29L21 29ZM21 29L21 29L21 29L21 29L20 29L20 29L21 29ZM21 29L21 29L21 29L21 29L21 28L20 28L21 29ZM21 29L22 29L22 29L21 28L21 28L21 28L21 29ZM21 28L22 28L22 28L21 28L21 28L21 28L21 28ZM21 28L22 28L22 28L21 28L21 28L21 28L21 28ZM21 28L22 28L22 27L21 28L21 28L21 28L21 28ZM21 28L22 27L21 27L21 27L21 28L21 28L21 28ZM21 27L21 27L21 27L21 27L20 28L21 28L21 27ZM21 27L21 27L21 27L20 27L20 27L20 28L21 27ZM20 27L21 27L21 27L20 27L20 27L20 27L20 27ZM20 27L21 27L21 27L20 27L20 27L20 27L20 27ZM20 27L21 27L21 27L20 26L20 26L20 26L20 27ZM20 26L21 26L20 26L20 26L20 27L20 27L20 26ZM20 26L20 26L20 26L19 26L19 26L20 27L20 26ZM19 26L20 26L19 25L19 26L19 26L19 26L19 26ZM19 26L20 26L19 25L19 25L18 26L19 26L19 26ZM19 25L19 25L19 25L19 25L18 25L19 26L19 25ZM19 25L19 25L18 24L18 24L18 25L18 25L19 25ZM18 24L19 24L18 24L18 24L17 24L18 25L18 24ZM18 24L18 24L18 23L18 23L17 23L17 24L18 24ZM18 23L18 23L18 22L18 22L17 22L17 23L18 23ZM18 22L18 22L19 21L18 21L18 21L17 22L18 22ZM18 21L19 21L18 20L18 20L17 21L18 21L18 21ZM18 20L18 20L18 20L18 20L17 20L18 21L18 20ZM18 20L18 20L17 20L17 20L17 20L17 21L18 20ZM17 20L17 20L17 19L17 20L16 20L17 20L17 20ZM17 20L17 19L17 19L16 19L16 19L16 20L17 20ZM16 19L17 19L16 18L16 18L15 19L16 19L16 19ZM16 18L16 18L16 17L15 18L15 18L15 19L16 18ZM15 18L16 17L15 17L15 17L14 17L15 18L15 18ZM15 17L15 17L14 17L15 17L15 18L15 18L15 17ZM15 17L15 17L14 17L14 17L14 18L14 18L15 17ZM14 17L14 17L14 16L14 17L13 17L14 18L14 17ZM14 17L14 16L13 16L13 17L13 17L13 17L14 17ZM13 17L13 16L13 16L13 17L12 17L13 17L13 17ZM13 17L12 16L12 16L12 17L12 17L13 17L13 17ZM12 17L12 16L12 16L12 17L12 17L13 17L12 17ZM12 17L12 17L12 17L12 17L13 17L13 17L12 17ZM12 17L12 17L12 17L12 17L13 17L12 17L12 17ZM12 17L12 17L12 17L12 17L13 18L13 17L12 17ZM12 17L12 17L12 17L12 17L12 18L12 18L12 17ZM12 17L12 17L11 17L12 17L12 18L12 18L12 17ZM12 17L11 17L11 18L12 18L12 18L12 18L12 17ZM12 18L12 18L12 18L12 18L11 18L11 18L12 18ZM12 18L11 18L11 18L12 18L12 18L12 18L12 18ZM12 18L12 18L12 18L12 18L11 18L11 18L12 18ZM12 18L11 18L11 18L11 18L12 18L12 18L12 18ZM11 18L11 18L11 18L11 18L11 19L12 19L11 18ZM11 18L11 18L11 18L11 18L11 19L11 19L11 18ZM11 18L11 18L10 18L10 19L11 19L11 19L11 18ZM10 19L10 18L10 18L10 19L10 19L11 19L10 19ZM10 19L10 18L10 19L10 19L10 19L10 19L10 19ZM10 19L9 19L9 19L10 19L10 19L10 19L10 19ZM10 19L10 19L10 19L10 19L10 20L10 20L10 19ZM10 19L10 19L10 18L10 19L10 20L10 20L10 19ZM10 19L10 19L10 19L10 19L9 19L9 19L10 19ZM10 19L10 19L10 19L10 19L9 19L9 19L10 19ZM10 19L10 18L10 18L9 18L9 19L9 19L10 19ZM9 18L10 18L9 18L9 18L9 19L9 19L9 18ZM9 18L9 18L9 18L9 18L8 19L9 19L9 18ZM9 18L9 18L8 17L8 18L8 18L8 18L9 18ZM8 18L8 17L8 17L8 18L8 18L8 18L8 18ZM8 18L8 17L8 17L8 18L8 18L8 18L8 18ZM8 18L7 17L7 17L7 18L8 18L8 18L8 18ZM7 18L7 17L7 18L7 18L7 18L8 18L7 18ZM7 18L7 18L7 18L7 18L7 19L7 18L7 18ZM7 18L7 18L7 18L7 18L6 19L7 19L7 18ZM7 18L6 18L6 18L6 18L7 19L7 18L7 18ZM6 18L6 18L6 18L6 18L7 19L7 18L6 18ZM6 18L6 18L6 18L6 19L6 19L7 19L6 18ZM6 19L6 18L5 19L6 19L6 20L6 19L6 19ZM6 19L5 19L5 19L6 19L6 19L6 19L6 19ZM6 19L5 19L5 19L5 20L5 20L6 20L6 19ZM5 20L5 19L4 20L5 20L5 20L5 20L5 20ZM5 20L4 20L4 20L4 20L4 21L5 20L5 20ZM4 20L4 20L4 20L4 20L4 21L4 21L4 20ZM4 20L4 20L4 20L4 20L3 21L4 21L4 20ZM4 20L4 20L3 20L3 20L3 21L3 21L4 20ZM3 20L4 20L3 20L3 20L3 20L3 21L3 20ZM3 20L4 20L4 19L3 19L3 19L3 20L3 20ZM3 19L4 19L4 18L4 18L3 18L3 19L3 19ZM4 18L4 18L4 18L4 18L4 18L3 18L4 18ZM4 18L4 18L4 18L4 17L4 17L4 18L4 18ZM4 17L4 17L4 17L4 17L4 17L4 18L4 17ZM4 17L4 17L4 17L4 17L3 17L4 18L4 17ZM4 17L4 17L4 16L4 17L3 17L3 17L4 17ZM4 17L4 17L4 16L4 17L3 17L3 17L4 17ZM4 17L4 17L4 17L4 16L3 16L3 16L4 17ZM4 16L4 17L4 16L4 16L3 16L3 16L4 16ZM4 16L4 16L4 16L4 16L4 16L3 16L4 16ZM4 16L4 16L5 15L4 15L4 15L4 16L4 16ZM4 15L5 15L5 15L4 14L4 14L4 15L4 15ZM4 14L5 14L5 14L4 14L4 14L4 14L4 14ZM4 14L5 14L5 13L4 14L4 14L4 14L4 14ZM4 14L5 13L5 13L4 13L4 13L4 14L4 14ZM4 13L5 13L5 12L4 12L4 12L4 13L4 13ZM4 12L5 12L5 12L4 12L4 12L4 12L4 12ZM4 12L4 12L4 12L4 12L4 12L4 12L4 12ZM4 12L4 12L3 11L3 12L3 12L4 12L4 12ZM3 12L3 11L3 11L3 12L3 12L3 12L3 12ZM3 12L3 11L3 12L3 12L3 12L3 12L3 12ZM3 12L2 12L2 12L3 12L3 12L3 12L3 12ZM3 12L2 12L2 12L2 12L3 13L3 13L3 12ZM2 12L2 12L2 12L2 12L2 13L2 13L2 12ZM2 12L2 12L2 12L2 12L1 12L2 13L2 12ZM2 12L2 12L2 11L1 12L1 12L1 12L2 12ZM1 12L2 12L2 11L1 11L1 11L1 12L1 12ZM1 11L2 12L2 11L1 11L1 10L1 11L1 11ZM1 11L2 11L2 10L2 10L1 10L1 10L1 11ZM2 10L2 10L2 10L2 10L1 10L1 10L2 10ZM2 10L2 10L2 10L2 10L1 10L1 10L2 10ZM2 10L2 10L2 9L2 10L1 10L1 10L2 10ZM2 10L2 9L2 9L2 10L1 10L1 10L2 10ZM2 10L2 9L2 9L1 9L1 10L1 10L2 10ZM1 9L2 9L1 9L1 9L1 9L1 10L1 9ZM1 9L1 8L1 8L1 9L0 9L1 9L1 9ZM1 9L1 8L0 8L1 9L1 9L1 9L1 9ZM1 9L0 8L0 8L0 9L1 9L1 9L1 9ZM0 9L0 9L0 9L0 9L1 9L1 9L0 9ZM0 9L0 9L0 9L0 9L0 10L1 10L0 9ZM0 9L0 9L0 9L0 9L0 10L0 10L0 9ZM0 9L0 9L0 9L0 9L0 9L0 9L0 9ZM0 9L0 9L1 9L0 9L0 9L0 9L0 9ZM0 9L0 9L1 8L0 8L0 8L0 9L0 9ZM0 8L1 8L1 8L0 7L0 7L0 8L0 8ZM0 7L1 8L1 7L1 7L0 7L0 7L0 7ZM1 7L1 8L1 7L1 7L1 6L1 6L1 7ZM1 7L1 7L1 7L2 7L2 6L1 6L1 7ZM2 7L2 7L2 7L2 7L2 6L1 6L2 7ZM2 7L2 7L2 7L2 7L2 6L2 6L2 7ZM2 7L2 7L2 6L2 7L2 7L2 7L2 7ZM2 7L2 6L2 6L2 7L2 7L2 7L2 7ZM2 7L2 6L2 6L2 6L1 7L1 7L2 7ZM2 6L2 7L2 6L2 6L1 6L1 6L2 6ZM2 6L2 6L2 6L2 6L1 6L1 6L2 6ZM2 6L2 6L2 6L2 6L2 6L2 6L2 6ZM2 6L2 6L2 6L2 6L2 5L2 6L2 6ZM2 6L3 6L3 5L2 5L2 5L2 6L2 6ZM2 5L3 5L3 5L2 5L2 5L2 5L2 5ZM2 5L2 5L3 5L3 5L3 4L2 4L2 5ZM3 5L3 5L3 5L3 5L3 4L2 4L3 5ZM3 5L3 5L4 5L4 4L3 4L3 4L3 5ZM4 4L4 4L4 4L4 4L4 4L3 4L4 4ZM4 4L4 4L4 4L4 4L4 4L4 3L4 4ZM4 4L4 4L4 4L4 4L5 5L5 4L4 4ZM4 4L4 5L4 5L4 5L4 4L4 4L4 4ZM4 5L4 5L4 5L4 5L5 5L5 4L4 5ZM4 5L4 5L4 5L4 5L5 5L5 5L4 5ZM4 5L4 5L4 5L4 5L5 5L5 5L4 5ZM4 5L4 6L4 6L4 5L5 5L5 5L4 5ZM4 5L4 6L4 6L4 5L5 5L5 5L4 5ZM4 5L5 6L5 6L5 5L5 5L4 5L4 5ZM5 5L5 6L6 6L6 5L6 5L5 5L5 5ZM6 5L5 6L5 6L6 5L6 5L6 5L6 5ZM6 5L5 6L6 6L6 5L6 5L6 5L6 5ZM6 5L6 6L6 6L6 6L6 5L6 5L6 5ZM6 6L6 6L6 6L6 6L6 5L6 5L6 6ZM6 6L6 6L6 6L6 6L6 5L6 5L6 6ZM6 6L7 6L7 6L6 5L6 5L6 5L6 6ZM6 5L7 6L7 6L6 5L6 5L6 5L6 5ZM6 5L7 5L7 5L6 5L6 5L6 5L6 5ZM6 5L7 5L7 5L6 5L6 5L6 6L6 5ZM6 5L7 5L7 4L6 5L6 5L6 5L6 5ZM6 5L7 5L7 4L6 4L6 4L6 5L6 5ZM6 4L7 5L7 4L6 4L6 4L6 4L6 4ZM6 4L7 4L7 4L6 4L6 4L6 4L6 4ZM6 4L7 4L7 3L6 3L6 3L6 4L6 4ZM6 3L7 3L7 3L6 3L6 3L6 3L6 3ZM6 3L7 2L6 2L6 2L6 3L6 3L6 3ZM6 2L6 2L6 2L6 2L5 2L6 3L6 2ZM6 2L6 2L6 2L6 2L5 2L5 2L6 2ZM6 2L6 2L6 1L6 2L5 2L5 2L6 2ZM6 2L6 2L6 1L6 1L5 1L5 2L6 2ZM6 1L6 1L6 1L6 1L5 1L5 2L6 1ZM6 1L6 1L6 1L5 1L5 1L5 1L6 1ZM5 1L6 1L6 1L6 1L5 0L5 1L5 1ZM6 1L6 1L6 1L6 1L5 0L5 1L6 1ZM6 1L6 1L6 0L6 0L5 0L5 0L6 1ZM6 0L6 1L6 0L6 0L6 0L5 0L6 0ZM6 0L6 0L6 0L6 0L6 0L6 0L6 0ZM6 0L6 0L6 0L6 0L6 0L6 0L6 0ZM6 0L6 0L6 0L6 0L6 0L6 0L6 0ZM6 0L6 0L6 1L7 0L7 0L7 0L6 0ZM7 0L7 1L7 1L7 0L7 0L6 0L7 0ZM7 0L7 1L7 1L7 0L7 0L7 0L7 0ZM7 0L7 1L7 1L8 0L8 0L8 0L7 0ZM8 0L7 1L7 1L8 0L8 0L8 0L8 0Z" fill="var(--stroke-0,white)" mask="url(#path-1-inside-1_0_126)"/></g></svg>