<svg preserveAspectRatio="none" width="100%" height="100%" overflow="visible" style="display: block;" viewBox="0 0 29.1042 34.577" fill="none" xmlns="http://www.w3.org/2000/svg">
<g id="LA">
<mask id="path-1-inside-1_0_126" fill="white">
<path d="M7.76993 0.481473L7.98454 0.875123L8.44123 1.31268L8.986 1.93682L9.15939 2.22347L9.52666 2.44294L9.6312 2.65965L9.71516 2.9916L9.75227 3.23849L9.83347 3.38391L9.96278 3.44151L10.1292 3.37705L10.2544 3.24536L10.3589 2.88189L10.4278 2.84346L10.5405 3.14251L10.6602 3.19324L10.8212 3.23301L10.9437 3.36194L10.9808 3.58965L10.9395 3.82147L10.7896 4.08209L10.7043 4.3564L10.6451 4.77751L10.5653 5.07103L10.6892 5.33031L11.5421 6.60595L11.952 6.81446L12.9274 7.06407L13.2796 7.23553L13.5904 7.40288L13.8959 7.32197L14.1903 6.942L14.5438 6.7294L15.2014 6.40293L15.3899 6.3851L15.753 6.51541L16.3501 6.89537L16.7807 7.25202L17.0475 7.43993L17.2512 7.60862L17.2195 7.79791L17.0559 7.98448L16.8481 8.08733L16.5743 8.26704L16.4189 8.44808L16.5138 8.51531L16.9155 8.56056L17.3901 8.72105L17.5345 8.90896L17.5552 9.06945L17.613 9.33145L17.6969 9.41099L18.1357 9.36435L18.2719 9.42333L18.4301 9.55779L18.587 9.91029L18.5829 10.1736L18.265 10.4631L18.1467 10.6387L18.0945 10.9143L17.8689 11.2449L17.269 11.7991L17.1081 11.832L16.0034 11.5275L15.4903 11.5467L15.2427 11.5563L15.123 11.57L15.0514 11.6852L15.1986 12.0199L15.2427 12.3519L15.1051 12.6042L14.7378 12.8237L14.5989 12.9293L14.5823 13.072L14.6855 13.2201L15.0239 13.3724L15.4188 13.515L16.7202 14.3723L16.9981 14.5739L17.3667 14.8716L17.7657 15.102L18.8332 15.4065L19.3051 15.6055L19.4261 15.7179L19.422 15.8564L19.2982 16.0334L19.1964 16.3434L19.1909 16.5299L19.3024 16.7096L19.4908 16.9785L19.9146 17.3941L20.1471 17.5793L20.4042 17.6204L20.6299 17.7219L20.8624 18.0305L21.132 18.4078L21.1677 18.6711L21.2834 19.0085L21.5295 19.3954L21.8694 19.7712L22.3454 20.2362L22.6192 20.564L22.7457 20.6916L23.7609 21.4858L24.0085 21.7793L24.3662 22.3444L24.5175 22.4267L24.6606 22.5378L24.7515 22.8478L24.7817 23.07L24.8299 23.7504L25.0142 23.952L25.1834 24.2003L25.2549 24.3813L25.409 24.5158L25.5769 24.5405L25.7764 24.391L25.9346 24.2469L26.0074 24.2895L26.1671 24.7641L26.3142 24.9369L26.5894 25.1028L26.8508 25.2304L27.4217 25.801L27.7257 26.0095L27.9348 26.0754L28.1123 26.1727L28.1659 26.3538L28.0957 26.5362L27.9747 26.6556L27.3102 26.9862L27.2222 27.1302L27.313 27.3496L27.4794 27.624L27.6611 27.8599L27.8894 28.0917L28.3558 28.4675L28.7602 28.7611L28.9817 29.0862L29.1042 29.3029L29.0285 29.5621L28.8579 29.8461L28.7258 30.0889L28.4989 30.2301L28.4369 30.3933L28.5305 30.6471L28.6075 30.8213L28.5663 31.038L28.5869 31.4811L28.3778 31.6402L28.1824 32.0435L28.049 32.0736L27.7119 31.9269L27.5936 32.0078L27.379 32.3014L27.0049 32.621L26.8232 32.6251L26.6981 32.5866L26.5522 32.7224L26.3431 32.9748L26.2468 32.9666L25.8864 33.0242L25.746 32.9433L25.5714 32.7362L25.2907 32.5249L25.0349 32.374L24.8987 32.2726L24.7721 32.097L24.6579 31.9831L24.4461 32.2328L24.0925 32.4714L23.7555 32.4262L23.5904 32.3864L23.4583 32.7334L23.3592 32.7965L22.7539 32.8569L22.6397 32.9117L22.7375 33.2286L23.0951 33.7649L23.2024 34.0722L22.9795 34.577L22.3522 34.5632L22.0716 34.3589L21.8102 34.0722L21.7167 33.9309L20.9132 33.6497L20.3754 33.8431L20.2117 33.8335L19.9613 33.6291L19.8086 33.4755L19.6601 33.2423L19.5761 33.0064L19.5692 32.8994L19.8004 32.8144L20.1814 32.621L20.4923 32.4042L20.6973 32.1738L20.7798 31.9337L20.7908 31.6553L20.8802 30.9338L20.9711 30.5826L20.9201 30.1492L20.7537 29.809V29.2974L20.8142 29.0478L20.8417 28.8832L21.0756 28.676L21.2366 28.3784L21.3274 27.9902L21.3356 27.7104L21.2627 27.5375L21.0315 27.3729L20.6451 27.218L20.4001 27.0204L20.3011 26.7831L20.3107 26.5746L20.429 26.3936L20.1374 26.1933L19.4344 25.9725L19.0423 25.7064L18.9598 25.3964L18.6667 24.9904L18.1633 24.487L17.8978 23.7627L17.8702 22.8163L17.9294 22.0454L18.1495 21.1524L17.8551 20.505L17.5319 20.1635L17.082 19.9125L16.6527 19.5531L16.2442 19.0826L15.7572 18.3886L15.1876 17.4695L14.8052 17.058L14.6085 17.1541L14.1972 17.0676L13.5699 16.8015L13.0237 16.6575L12.556 16.6369L12.2519 16.6973L12.1116 16.8386L12.1005 16.9771L12.2189 17.1143L12.1542 17.2212L11.9094 17.2981L11.7126 17.449L11.4898 17.7864L11.4953 17.7727L11.487 17.7905L11.4898 17.7864L11.337 18.2281L11.1045 18.3981L10.7469 18.4352L10.3961 18.5614L10.0494 18.7753L9.88435 18.9386L9.90358 19.0497L9.82793 19.0744L9.65874 19.0126L9.57897 18.8673L9.58854 18.6368L9.41112 18.4832L9.04931 18.4036L8.63662 18.1581L8.17162 17.7425L7.8497 17.5217L7.66951 17.4942L7.41224 17.6588L7.07377 18.0155L6.79593 18.1554L6.5772 18.0827L6.40801 18.2075L6.28961 18.5326L6.07088 18.7863L5.5922 19.0648L5.56054 19.0977L5.013 19.4722L4.5742 19.8494L4.06377 20.3555L3.82304 20.4337L3.59331 20.3103L3.24662 20.1868L3.06365 20.0154L3.41312 19.1581L3.85469 18.2075L3.973 17.7686L3.99089 17.4476L3.94823 17.187L3.77493 16.914L3.61254 16.7028L3.59742 16.5615L3.64973 16.4134L3.82715 16.1925L4.05554 15.8496L4.26739 15.1459L4.52189 14.3998L4.49712 13.9471L4.29216 13.4506L4.17931 12.9787L4.26873 12.3354L4.23573 12.0844L4.01423 11.9582L3.28793 11.8306L3.054 11.8525L2.86969 11.9348L2.67019 12.1104L2.42812 12.2202L1.97135 12.2819L1.53943 12.0638L1.17762 11.6934L1.09088 11.2408L1.35638 10.7004L1.54211 10.2628L1.65219 9.88697L1.63985 9.70865L1.56277 9.52346L1.45412 9.49743L1.22296 9.26699L0.997344 8.86095L0.782728 8.67442L0.583309 8.7087L0.397577 8.86371L0.228387 9.1353L0.0948812 9.24777L0 9.19704L0.0288842 8.95697L0.0564249 8.7293L0.265499 7.84321L0.518656 7.26709L0.81581 6.9996L1.12942 6.88575L1.45957 6.92827L1.73884 6.87892L1.96169 6.73764L1.94112 6.65669L1.67696 6.63613L1.571 6.48251L1.62742 6.19309L1.74296 6.00514L1.92458 5.91874L2.10065 5.62794L2.26984 5.13002L2.47757 4.87902L2.71973 4.87216L3.13654 4.65955L3.72673 4.23844L3.95369 3.83106L4.17662 4.01763L4.09265 4.48947L4.20962 4.58822L4.26461 4.75696L4.23439 5.0203L4.28393 5.24387L4.37469 5.35225L4.50266 5.40713L5.12854 5.21507L5.511 5.20134L5.67196 5.32755L5.81638 5.40575L5.998 5.46611L6.13831 5.54702L6.22773 5.52094L6.44235 5.32479L6.507 5.29051L6.51389 5.19452L6.36392 5.01754L6.2085 4.8694L6.21396 4.54021L6.28693 3.96962L6.30204 3.67333L6.28827 2.96418L6.26073 2.76393L6.11765 2.53349L5.74485 2.09044L5.64031 1.82019L5.57977 1.54999L5.58531 1.37853L5.49035 1.18237L5.44223 0.999949L5.60865 0.906686L5.81093 0.695419L5.91269 0.373097L6.009 0.137175L6.14931 0.037046L6.27039 0L6.35158 0.0205951L6.66796 0.443045L7.06831 0.23182L7.37092 0.233202L7.63097 0.344298L7.76993 0.481473Z"/>
</mask>
<path d="M7.76993 0.481473L7.98454 0.875123L8.44123 1.31268L8.986 1.93682L9.15939 2.22347L9.52666 2.44294L9.6312 2.65965L9.71516 2.9916L9.75227 3.23849L9.83347 3.38391L9.96278 3.44151L10.1292 3.37705L10.2544 3.24536L10.3589 2.88189L10.4278 2.84346L10.5405 3.14251L10.6602 3.19324L10.8212 3.23301L10.9437 3.36194L10.9808 3.58965L10.9395 3.82147L10.7896 4.08209L10.7043 4.3564L10.6451 4.77751L10.5653 5.07103L10.6892 5.33031L11.5421 6.60595L11.952 6.81446L12.9274 7.06407L13.2796 7.23553L13.5904 7.40288L13.8959 7.32197L14.1903 6.942L14.5438 6.7294L15.2014 6.40293L15.3899 6.3851L15.753 6.51541L16.3501 6.89537L16.7807 7.25202L17.0475 7.43993L17.2512 7.60862L17.2195 7.79791L17.0559 7.98448L16.8481 8.08733L16.5743 8.26704L16.4189 8.44808L16.5138 8.51531L16.9155 8.56056L17.3901 8.72105L17.5345 8.90896L17.5552 9.06945L17.613 9.33145L17.6969 9.41099L18.1357 9.36435L18.2719 9.42333L18.4301 9.55779L18.587 9.91029L18.5829 10.1736L18.265 10.4631L18.1467 10.6387L18.0945 10.9143L17.8689 11.2449L17.269 11.7991L17.1081 11.832L16.0034 11.5275L15.4903 11.5467L15.2427 11.5563L15.123 11.57L15.0514 11.6852L15.1986 12.0199L15.2427 12.3519L15.1051 12.6042L14.7378 12.8237L14.5989 12.9293L14.5823 13.072L14.6855 13.2201L15.0239 13.3724L15.4188 13.515L16.7202 14.3723L16.9981 14.5739L17.3667 14.8716L17.7657 15.102L18.8332 15.4065L19.3051 15.6055L19.4261 15.7179L19.422 15.8564L19.2982 16.0334L19.1964 16.3434L19.1909 16.5299L19.3024 16.7096L19.4908 16.9785L19.9146 17.3941L20.1471 17.5793L20.4042 17.6204L20.6299 17.7219L20.8624 18.0305L21.132 18.4078L21.1677 18.6711L21.2834 19.0085L21.5295 19.3954L21.8694 19.7712L22.3454 20.2362L22.6192 20.564L22.7457 20.6916L23.7609 21.4858L24.0085 21.7793L24.3662 22.3444L24.5175 22.4267L24.6606 22.5378L24.7515 22.8478L24.7817 23.07L24.8299 23.7504L25.0142 23.952L25.1834 24.2003L25.2549 24.3813L25.409 24.5158L25.5769 24.5405L25.7764 24.391L25.9346 24.2469L26.0074 24.2895L26.1671 24.7641L26.3142 24.9369L26.5894 25.1028L26.8508 25.2304L27.4217 25.801L27.7257 26.0095L27.9348 26.0754L28.1123 26.1727L28.1659 26.3538L28.0957 26.5362L27.9747 26.6556L27.3102 26.9862L27.2222 27.1302L27.313 27.3496L27.4794 27.624L27.6611 27.8599L27.8894 28.0917L28.3558 28.4675L28.7602 28.7611L28.9817 29.0862L29.1042 29.3029L29.0285 29.5621L28.8579 29.8461L28.7258 30.0889L28.4989 30.2301L28.4369 30.3933L28.5305 30.6471L28.6075 30.8213L28.5663 31.038L28.5869 31.4811L28.3778 31.6402L28.1824 32.0435L28.049 32.0736L27.7119 31.9269L27.5936 32.0078L27.379 32.3014L27.0049 32.621L26.8232 32.6251L26.6981 32.5866L26.5522 32.7224L26.3431 32.9748L26.2468 32.9666L25.8864 33.0242L25.746 32.9433L25.5714 32.7362L25.2907 32.5249L25.0349 32.374L24.8987 32.2726L24.7721 32.097L24.6579 31.9831L24.4461 32.2328L24.0925 32.4714L23.7555 32.4262L23.5904 32.3864L23.4583 32.7334L23.3592 32.7965L22.7539 32.8569L22.6397 32.9117L22.7375 33.2286L23.0951 33.7649L23.2024 34.0722L22.9795 34.577L22.3522 34.5632L22.0716 34.3589L21.8102 34.0722L21.7167 33.9309L20.9132 33.6497L20.3754 33.8431L20.2117 33.8335L19.9613 33.6291L19.8086 33.4755L19.6601 33.2423L19.5761 33.0064L19.5692 32.8994L19.8004 32.8144L20.1814 32.621L20.4923 32.4042L20.6973 32.1738L20.7798 31.9337L20.7908 31.6553L20.8802 30.9338L20.9711 30.5826L20.9201 30.1492L20.7537 29.809V29.2974L20.8142 29.0478L20.8417 28.8832L21.0756 28.676L21.2366 28.3784L21.3274 27.9902L21.3356 27.7104L21.2627 27.5375L21.0315 27.3729L20.6451 27.218L20.4001 27.0204L20.3011 26.7831L20.3107 26.5746L20.429 26.3936L20.1374 26.1933L19.4344 25.9725L19.0423 25.7064L18.9598 25.3964L18.6667 24.9904L18.1633 24.487L17.8978 23.7627L17.8702 22.8163L17.9294 22.0454L18.1495 21.1524L17.8551 20.505L17.5319 20.1635L17.082 19.9125L16.6527 19.5531L16.2442 19.0826L15.7572 18.3886L15.1876 17.4695L14.8052 17.058L14.6085 17.1541L14.1972 17.0676L13.5699 16.8015L13.0237 16.6575L12.556 16.6369L12.2519 16.6973L12.1116 16.8386L12.1005 16.9771L12.2189 17.1143L12.1542 17.2212L11.9094 17.2981L11.7126 17.449L11.4898 17.7864L11.4953 17.7727L11.487 17.7905L11.4898 17.7864L11.337 18.2281L11.1045 18.3981L10.7469 18.4352L10.3961 18.5614L10.0494 18.7753L9.88435 18.9386L9.90358 19.0497L9.82793 19.0744L9.65874 19.0126L9.57897 18.8673L9.58854 18.6368L9.41112 18.4832L9.04931 18.4036L8.63662 18.1581L8.17162 17.7425L7.8497 17.5217L7.66951 17.4942L7.41224 17.6588L7.07377 18.0155L6.79593 18.1554L6.5772 18.0827L6.40801 18.2075L6.28961 18.5326L6.07088 18.7863L5.5922 19.0648L5.56054 19.0977L5.013 19.4722L4.5742 19.8494L4.06377 20.3555L3.82304 20.4337L3.59331 20.3103L3.24662 20.1868L3.06365 20.0154L3.41312 19.1581L3.85469 18.2075L3.973 17.7686L3.99089 17.4476L3.94823 17.187L3.77493 16.914L3.61254 16.7028L3.59742 16.5615L3.64973 16.4134L3.82715 16.1925L4.05554 15.8496L4.26739 15.1459L4.52189 14.3998L4.49712 13.9471L4.29216 13.4506L4.17931 12.9787L4.26873 12.3354L4.23573 12.0844L4.01423 11.9582L3.28793 11.8306L3.054 11.8525L2.86969 11.9348L2.67019 12.1104L2.42812 12.2202L1.97135 12.2819L1.53943 12.0638L1.17762 11.6934L1.09088 11.2408L1.35638 10.7004L1.54211 10.2628L1.65219 9.88697L1.63985 9.70865L1.56277 9.52346L1.45412 9.49743L1.22296 9.26699L0.997344 8.86095L0.782728 8.67442L0.583309 8.7087L0.397577 8.86371L0.228387 9.1353L0.0948812 9.24777L0 9.19704L0.0288842 8.95697L0.0564249 8.7293L0.265499 7.84321L0.518656 7.26709L0.81581 6.9996L1.12942 6.88575L1.45957 6.92827L1.73884 6.87892L1.96169 6.73764L1.94112 6.65669L1.67696 6.63613L1.571 6.48251L1.62742 6.19309L1.74296 6.00514L1.92458 5.91874L2.10065 5.62794L2.26984 5.13002L2.47757 4.87902L2.71973 4.87216L3.13654 4.65955L3.72673 4.23844L3.95369 3.83106L4.17662 4.01763L4.09265 4.48947L4.20962 4.58822L4.26461 4.75696L4.23439 5.0203L4.28393 5.24387L4.37469 5.35225L4.50266 5.40713L5.12854 5.21507L5.511 5.20134L5.67196 5.32755L5.81638 5.40575L5.998 5.46611L6.13831 5.54702L6.22773 5.52094L6.44235 5.32479L6.507 5.29051L6.51389 5.19452L6.36392 5.01754L6.2085 4.8694L6.21396 4.54021L6.28693 3.96962L6.30204 3.67333L6.28827 2.96418L6.26073 2.76393L6.11765 2.53349L5.74485 2.09044L5.64031 1.82019L5.57977 1.54999L5.58531 1.37853L5.49035 1.18237L5.44223 0.999949L5.60865 0.906686L5.81093 0.695419L5.91269 0.373097L6.009 0.137175L6.14931 0.037046L6.27039 0L6.35158 0.0205951L6.66796 0.443045L7.06831 0.23182L7.37092 0.233202L7.63097 0.344298L7.76993 0.481473Z" fill="var(--fill-0, #71B219)"/>
<path d="M7.76993 0.481473L8.20892 0.242134L8.17364 0.177419L8.12119 0.125637L7.76993 0.481473ZM7.98454 0.875123L7.54555 1.11446L7.58266 1.18252L7.63863 1.23616L7.98454 0.875123ZM8.44123 1.31268L8.81792 0.983893L8.80325 0.967086L8.78715 0.951652L8.44123 1.31268ZM8.986 1.93682L9.41383 1.67804L9.39131 1.64081L9.36269 1.60802L8.986 1.93682ZM9.15939 2.22347L8.73157 2.48225L8.79601 2.5888L8.90291 2.65268L9.15939 2.22347ZM9.52666 2.44294L9.977 2.22571L9.91185 2.09066L9.78314 2.01374L9.52666 2.44294ZM9.6312 2.65965L10.1159 2.53704L10.1035 2.48799L10.0815 2.44241L9.6312 2.65965ZM9.71516 2.9916L10.2096 2.91728L10.2059 2.89289L10.1999 2.86899L9.71516 2.9916ZM9.75227 3.23849L9.25783 3.31282L9.27135 3.4028L9.31571 3.48224L9.75227 3.23849ZM9.83347 3.38391L9.39691 3.62766L9.47802 3.77294L9.63002 3.84065L9.83347 3.38391ZM9.96278 3.44151L9.75932 3.89825L9.94937 3.9829L10.1434 3.90775L9.96278 3.44151ZM10.1292 3.37705L10.3098 3.84329L10.4143 3.8028L10.4916 3.72155L10.1292 3.37705ZM10.2544 3.24536L10.6168 3.58986L10.7011 3.50116L10.7349 3.38356L10.2544 3.24536ZM10.3589 2.88189L10.1152 2.44528L9.93535 2.54569L9.8784 2.74368L10.3589 2.88189ZM10.4278 2.84346L10.8956 2.66704L10.6909 2.12403L10.1841 2.40686L10.4278 2.84346ZM10.5405 3.14251L10.0727 3.31892L10.1482 3.51925L10.3454 3.60283L10.5405 3.14251ZM10.6602 3.19324L10.465 3.65357L10.5016 3.6691L10.5403 3.67865L10.6602 3.19324ZM10.8212 3.23301L11.1836 2.8886L11.083 2.78265L10.9411 2.7476L10.8212 3.23301ZM10.9437 3.36194L11.4372 3.28151L11.4123 3.12931L11.3061 3.01753L10.9437 3.36194ZM10.9808 3.58965L11.473 3.67737L11.488 3.59341L11.4743 3.50923L10.9808 3.58965ZM10.9395 3.82147L11.3729 4.07074L11.4164 3.9951L11.4317 3.90919L10.9395 3.82147ZM10.7896 4.08209L10.3561 3.83283L10.3286 3.88079L10.3121 3.93361L10.7896 4.08209ZM10.7043 4.3564L10.2268 4.20792L10.2148 4.24664L10.2091 4.2868L10.7043 4.3564ZM10.6451 4.77751L11.1276 4.90864L11.1358 4.87827L11.1402 4.84711L10.6451 4.77751ZM10.5653 5.07103L10.0828 4.93991L10.0341 5.11904L10.1141 5.28654L10.5653 5.07103ZM10.6892 5.33031L10.238 5.54582L10.2535 5.5783L10.2735 5.60823L10.6892 5.33031ZM11.5421 6.60595L11.1264 6.88387L11.199 6.99242L11.3154 7.05162L11.5421 6.60595ZM11.952 6.81446L11.7253 7.26012L11.7745 7.28516L11.828 7.29885L11.952 6.81446ZM12.9274 7.06407L13.1462 6.6145L13.1005 6.59227L13.0513 6.57968L12.9274 7.06407ZM13.2796 7.23553L13.5166 6.79528L13.5076 6.79043L13.4984 6.78596L13.2796 7.23553ZM13.5904 7.40288L13.3534 7.84313L13.5274 7.93682L13.7185 7.88621L13.5904 7.40288ZM13.8959 7.32197L14.0239 7.8053L14.1875 7.76197L14.2911 7.6282L13.8959 7.32197ZM14.1903 6.942L13.9326 6.51353L13.8524 6.56178L13.795 6.63578L14.1903 6.942ZM14.5438 6.7294L14.3214 6.28155L14.3034 6.29052L14.2861 6.30092L14.5438 6.7294ZM15.2014 6.40293L15.1543 5.90516L15.0621 5.91388L14.9791 5.95508L15.2014 6.40293ZM15.3899 6.3851L15.5588 5.91448L15.4538 5.87682L15.3428 5.88732L15.3899 6.3851ZM15.753 6.51541L16.0215 6.09358L15.9744 6.06363L15.9219 6.04479L15.753 6.51541ZM16.3501 6.89537L16.6691 6.51031L16.645 6.49035L16.6186 6.47354L16.3501 6.89537ZM16.7807 7.25202L16.4618 7.63708L16.4768 7.64956L16.4928 7.66083L16.7807 7.25202ZM17.0475 7.43993L17.3665 7.0549L17.3514 7.0424L17.3354 7.03112L17.0475 7.43993ZM17.2512 7.60862L17.7443 7.69109L17.7918 7.40722L17.5702 7.2236L17.2512 7.60862ZM17.2195 7.79791L17.5954 8.12762L17.6892 8.02068L17.7127 7.88038L17.2195 7.79791ZM17.0559 7.98448L17.2777 8.43257L17.3664 8.38863L17.4317 8.31419L17.0559 7.98448ZM16.8481 8.08733L16.6263 7.63925L16.5991 7.65269L16.5738 7.66932L16.8481 8.08733ZM16.5743 8.26704L16.3 7.84903L16.2409 7.88777L16.1949 7.94135L16.5743 8.26704ZM16.4189 8.44808L16.0395 8.1224L15.6821 8.53879L16.1298 8.85606L16.4189 8.44808ZM16.5138 8.51531L16.2247 8.92328L16.3298 8.99775L16.4578 9.01217L16.5138 8.51531ZM16.9155 8.56056L17.0756 8.0869L17.0248 8.06971L16.9714 8.0637L16.9155 8.56056ZM17.3901 8.72105L17.7866 8.41636L17.6941 8.29601L17.5503 8.24739L17.3901 8.72105ZM17.5345 8.90896L18.0305 8.84513L18.0132 8.71128L17.931 8.60427L17.5345 8.90896ZM17.5552 9.06945L17.0593 9.13328L17.0621 9.15536L17.0669 9.17711L17.5552 9.06945ZM17.613 9.33145L17.1247 9.43911L17.1577 9.58894L17.2691 9.69446L17.613 9.33145ZM17.6969 9.41099L17.3531 9.77399L17.5205 9.93255L17.7498 9.90819L17.6969 9.41099ZM18.1357 9.36435L18.3344 8.90553L18.2137 8.85325L18.0829 8.86715L18.1357 9.36435ZM18.2719 9.42333L18.5957 9.04235L18.539 8.99411L18.4706 8.96451L18.2719 9.42333ZM18.4301 9.55779L18.8869 9.35452L18.8407 9.25053L18.7539 9.17681L18.4301 9.55779ZM18.587 9.91029L19.0869 9.9181L19.0886 9.80781L19.0438 9.70703L18.587 9.91029ZM18.5829 10.1736L18.9195 10.5433L19.0794 10.3977L19.0828 10.1814L18.5829 10.1736ZM18.265 10.4631L17.9284 10.0934L17.884 10.1338L17.8504 10.1837L18.265 10.4631ZM18.1467 10.6387L17.7321 10.3593L17.6746 10.4446L17.6555 10.5456L18.1467 10.6387ZM18.0945 10.9143L18.5075 11.1962L18.5663 11.11L18.5858 11.0074L18.0945 10.9143ZM17.8689 11.2449L18.2082 11.6122L18.2499 11.5737L18.2819 11.5268L17.8689 11.2449ZM17.269 11.7991L17.3693 12.2889L17.5059 12.2609L17.6083 12.1663L17.269 11.7991ZM17.1081 11.832L16.9752 12.314L17.0908 12.3459L17.2083 12.3218L17.1081 11.832ZM16.0034 11.5275L16.1363 11.0454L16.0619 11.0249L15.9847 11.0278L16.0034 11.5275ZM15.4903 11.5467L15.4716 11.047L15.471 11.0471L15.4903 11.5467ZM15.2427 11.5563L15.2234 11.0566L15.2045 11.0574L15.1857 11.0595L15.2427 11.5563ZM15.123 11.57L15.066 11.0732L14.8257 11.1008L14.6982 11.3063L15.123 11.57ZM15.0514 11.6852L14.6266 11.4215L14.4877 11.6454L14.5937 11.8865L15.0514 11.6852ZM15.1986 12.0199L15.6943 11.9541L15.6849 11.8836L15.6563 11.8186L15.1986 12.0199ZM15.2427 12.3519L15.6817 12.5912L15.7598 12.4479L15.7384 12.286L15.2427 12.3519ZM15.1051 12.6042L15.3616 13.0334L15.4787 12.9634L15.5441 12.8436L15.1051 12.6042ZM14.7378 12.8237L14.4813 12.3945L14.4574 12.4088L14.4353 12.4256L14.7378 12.8237ZM14.5989 12.9293L14.2963 12.5312L14.1267 12.6601L14.1022 12.8717L14.5989 12.9293ZM14.5823 13.072L14.0856 13.0144L14.0638 13.2024L14.172 13.3578L14.5823 13.072ZM14.6855 13.2201L14.2752 13.5059L14.3543 13.6194L14.4804 13.6761L14.6855 13.2201ZM15.0239 13.3724L14.8187 13.8283L14.8361 13.8361L14.854 13.8426L15.0239 13.3724ZM15.4188 13.515L15.6938 13.0975L15.6444 13.0649L15.5887 13.0448L15.4188 13.515ZM16.7202 14.3723L17.0138 13.9676L17.0046 13.961L16.9952 13.9548L16.7202 14.3723ZM16.9981 14.5739L17.3122 14.1849L17.3022 14.1768L17.2917 14.1692L16.9981 14.5739ZM17.3667 14.8716L17.0526 15.2606L17.0829 15.2851L17.1166 15.3046L17.3667 14.8716ZM17.7657 15.102L17.5156 15.535L17.5691 15.5659L17.6286 15.5829L17.7657 15.102ZM18.8332 15.4065L19.0275 14.9458L18.9995 14.934L18.9704 14.9257L18.8332 15.4065ZM19.3051 15.6055L19.6456 15.2392L19.5808 15.1791L19.4993 15.1447L19.3051 15.6055ZM19.4261 15.7179L19.9259 15.7328L19.9326 15.5061L19.7666 15.3517L19.4261 15.7179ZM19.422 15.8564L19.8317 16.143L19.9174 16.0206L19.9218 15.8713L19.422 15.8564ZM19.2982 16.0334L18.8885 15.7468L18.8462 15.8073L18.8232 15.8773L19.2982 16.0334ZM19.1964 16.3434L18.7214 16.1873L18.6987 16.2563L18.6966 16.3288L19.1964 16.3434ZM19.1909 16.5299L18.6911 16.5153L18.6868 16.6656L18.766 16.7934L19.1909 16.5299ZM19.3024 16.7096L18.8774 16.9731L18.8848 16.9851L18.8929 16.9966L19.3024 16.7096ZM19.4908 16.9785L19.0813 17.2654L19.1078 17.3032L19.1407 17.3354L19.4908 16.9785ZM19.9146 17.3941L19.5644 17.7511L19.5829 17.7691L19.603 17.7852L19.9146 17.3941ZM20.1471 17.5793L19.8355 17.9704L19.9383 18.0522L20.0681 18.073L20.1471 17.5793ZM20.4042 17.6204L20.6094 17.1645L20.5488 17.1372L20.4832 17.1267L20.4042 17.6204ZM20.6299 17.7219L21.0292 17.4211L20.952 17.3186L20.835 17.266L20.6299 17.7219ZM20.8624 18.0305L21.2693 17.7397L21.2617 17.7297L20.8624 18.0305ZM21.132 18.4078L21.6274 18.3405L21.6108 18.2178L21.5388 18.117L21.132 18.4078ZM21.1677 18.6711L20.6723 18.7384L20.6789 18.7869L20.6947 18.8332L21.1677 18.6711ZM21.2834 19.0085L20.8104 19.1706L20.8296 19.2268L20.8615 19.277L21.2834 19.0085ZM21.5295 19.3954L21.1077 19.6638L21.1304 19.6994L21.1587 19.7307L21.5295 19.3954ZM21.8694 19.7712L21.4985 20.1065L21.5089 20.118L21.52 20.1289L21.8694 19.7712ZM22.3454 20.2362L22.7291 19.9157L22.7129 19.8962L22.6947 19.8785L22.3454 20.2362ZM22.6192 20.564L22.2354 20.8845L22.2491 20.901L22.2642 20.9162L22.6192 20.564ZM22.7457 20.6916L22.3907 21.0437L22.4129 21.066L22.4376 21.0854L22.7457 20.6916ZM23.7609 21.4858L24.1431 21.1634L24.1098 21.1238L24.069 21.092L23.7609 21.4858ZM24.0085 21.7793L24.431 21.5119L24.4128 21.483L24.3907 21.4569L24.0085 21.7793ZM24.3662 22.3444L23.9438 22.6118L24.0132 22.7216L24.1273 22.7837L24.3662 22.3444ZM24.5175 22.4267L24.8242 22.0318L24.7921 22.0069L24.7565 21.9875L24.5175 22.4267ZM24.6606 22.5378L25.1404 22.3972L25.095 22.2421L24.9673 22.1429L24.6606 22.5378ZM24.7515 22.8478L25.2469 22.7804L25.2419 22.7433L25.2313 22.7072L24.7515 22.8478ZM24.7817 23.07L25.2805 23.0347L25.2793 23.0186L25.2771 23.0026L24.7817 23.07ZM24.8299 23.7504L24.3312 23.7857L24.3434 23.9593L24.4608 24.0877L24.8299 23.7504ZM25.0142 23.952L25.4274 23.6705L25.4073 23.641L25.3833 23.6147L25.0142 23.952ZM25.1834 24.2003L25.6484 24.0166L25.6279 23.9648L25.5966 23.9187L25.1834 24.2003ZM25.2549 24.3813L24.7899 24.5651L24.8346 24.6781L24.9262 24.7581L25.2549 24.3813ZM25.409 24.5158L25.0803 24.8925L25.191 24.9891L25.3363 25.0105L25.409 24.5158ZM25.5769 24.5405L25.5042 25.0351L25.7101 25.0654L25.8767 24.9406L25.5769 24.5405ZM25.7764 24.391L26.0762 24.7911L26.0953 24.7768L26.113 24.7607L25.7764 24.391ZM25.9346 24.2469L26.1866 23.8151L25.8694 23.63L25.5979 23.8772L25.9346 24.2469ZM26.0074 24.2895L26.4813 24.1301L26.4215 23.9522L26.2594 23.8576L26.0074 24.2895ZM26.1671 24.7641L25.6931 24.9235L25.7239 25.0149L25.7864 25.0883L26.1671 24.7641ZM26.3142 24.9369L25.9336 25.2611L25.9864 25.323L26.056 25.365L26.3142 24.9369ZM26.5894 25.1028L26.3311 25.531L26.3501 25.5424L26.3701 25.5522L26.5894 25.1028ZM26.8508 25.2304L27.2042 24.8768L27.1452 24.8177L27.0701 24.7811L26.8508 25.2304ZM27.4217 25.801L27.0682 26.1547L27.1008 26.1873L27.1389 26.2134L27.4217 25.801ZM27.7257 26.0095L27.4429 26.4219L27.5044 26.464L27.5755 26.4864L27.7257 26.0095ZM27.9348 26.0754L28.1752 25.637L28.132 25.6133L28.085 25.5985L27.9348 26.0754ZM28.1123 26.1727L28.5917 26.0307L28.5332 25.8333L28.3527 25.7344L28.1123 26.1727ZM28.1659 26.3538L28.6326 26.5334L28.6936 26.3748L28.6453 26.2118L28.1659 26.3538ZM28.0957 26.5362L28.4467 26.8923L28.5236 26.8166L28.5624 26.7158L28.0957 26.5362ZM27.9747 26.6556L28.1974 27.1032L28.2688 27.0677L28.3257 27.0117L27.9747 26.6556ZM27.3102 26.9862L27.0875 26.5385L26.9588 26.6026L26.8837 26.7253L27.3102 26.9862ZM27.2222 27.1302L26.7956 26.8693L26.6629 27.0863L26.7602 27.3214L27.2222 27.1302ZM27.313 27.3496L26.851 27.5409L26.8657 27.5762L26.8855 27.6089L27.313 27.3496ZM27.4794 27.624L27.0519 27.8833L27.0663 27.907L27.0832 27.929L27.4794 27.624ZM27.6611 27.8599L27.2649 28.1649L27.2835 28.1891L27.3049 28.2108L27.6611 27.8599ZM27.8894 28.0917L27.5333 28.4426L27.5534 28.463L27.5757 28.481L27.8894 28.0917ZM28.3558 28.4675L28.042 28.8569L28.0519 28.8648L28.0621 28.8722L28.3558 28.4675ZM28.7602 28.7611L29.1734 28.4796L29.1244 28.4076L29.0539 28.3565L28.7602 28.7611ZM28.9817 29.0862L29.4171 28.8403L29.4068 28.822L29.3949 28.8046L28.9817 29.0862ZM29.1042 29.3029L29.5842 29.443L29.6432 29.2406L29.5395 29.057L29.1042 29.3029ZM29.0285 29.5621L29.4571 29.8197L29.4904 29.7643L29.5085 29.7022L29.0285 29.5621ZM28.8579 29.8461L28.4293 29.5885L28.4238 29.5977L28.4187 29.6071L28.8579 29.8461ZM28.7258 30.0889L28.9901 30.5133L29.102 30.4436L29.165 30.3278L28.7258 30.0889ZM28.4989 30.2301L28.2346 29.8057L28.0913 29.8949L28.0314 30.0527L28.4989 30.2301ZM28.4369 30.3933L27.9695 30.2159L27.903 30.3908L27.9678 30.5664L28.4369 30.3933ZM28.5305 30.6471L28.0614 30.8202L28.0669 30.8349L28.0732 30.8493L28.5305 30.6471ZM28.6075 30.8213L29.0987 30.9148L29.1278 30.7617L29.0648 30.6192L28.6075 30.8213ZM28.5663 31.038L28.0751 30.9446L28.0641 31.0024L28.0668 31.0612L28.5663 31.038ZM28.5869 31.4811L28.8897 31.8789L29.0985 31.72L29.0863 31.4579L28.5869 31.4811ZM28.3778 31.6402L28.0749 31.2424L27.9799 31.3147L27.9278 31.4222L28.3778 31.6402ZM28.1824 32.0435L28.2927 32.5311L28.5274 32.4781L28.6324 32.2615L28.1824 32.0435ZM28.049 32.0736L27.8494 32.5321L27.9995 32.5975L28.1593 32.5613L28.049 32.0736ZM27.7119 31.9269L27.9116 31.4685L27.658 31.358L27.4297 31.5142L27.7119 31.9269ZM27.5936 32.0078L27.3114 31.5951L27.2406 31.6435L27.19 31.7127L27.5936 32.0078ZM27.379 32.3014L27.7038 32.6815L27.7482 32.6436L27.7826 32.5965L27.379 32.3014ZM27.0049 32.621L27.0162 33.1208L27.1942 33.1168L27.3296 33.0011L27.0049 32.621ZM26.8232 32.6251L26.6765 33.1031L26.7538 33.1268L26.8345 33.1249L26.8232 32.6251ZM26.6981 32.5866L26.8448 32.1087L26.5687 32.0239L26.3573 32.2207L26.6981 32.5866ZM26.5522 32.7224L26.2115 32.3565L26.1878 32.3786L26.1671 32.4035L26.5522 32.7224ZM26.3431 32.9748L26.3005 33.473L26.5612 33.4954L26.7282 33.2938L26.3431 32.9748ZM26.2468 32.9666L26.2895 32.4684L26.2284 32.4632L26.1679 32.4729L26.2468 32.9666ZM25.8864 33.0242L25.6368 33.4574L25.7903 33.5459L25.9654 33.5179L25.8864 33.0242ZM25.746 32.9433L25.3638 33.2656L25.4204 33.3327L25.4964 33.3765L25.746 32.9433ZM25.5714 32.7362L25.9536 32.4138L25.9172 32.3706L25.872 32.3366L25.5714 32.7362ZM25.2907 32.5249L25.5913 32.1254L25.5689 32.1085L25.5447 32.0943L25.2907 32.5249ZM25.0349 32.374L24.7361 32.775L24.7577 32.791L24.7808 32.8047L25.0349 32.374ZM24.8987 32.2726L24.493 32.5649L24.5381 32.6274L24.5999 32.6735L24.8987 32.2726ZM24.7721 32.097L25.1778 31.8047L25.154 31.7716L25.1251 31.7428L24.7721 32.097ZM24.6579 31.9831L25.0109 31.629L24.6272 31.2466L24.2767 31.6596L24.6579 31.9831ZM24.4461 32.2328L24.7258 32.6472L24.7828 32.6087L24.8273 32.5563L24.4461 32.2328ZM24.0925 32.4714L24.026 32.967L24.2146 32.9923L24.3723 32.8859L24.0925 32.4714ZM23.7555 32.4262L23.6383 32.9123L23.6634 32.9183L23.6889 32.9217L23.7555 32.4262ZM23.5904 32.3864L23.7076 31.9003L23.2797 31.7971L23.1231 32.2085L23.5904 32.3864ZM23.4583 32.7334L23.7269 33.1552L23.8667 33.0662L23.9256 32.9113L23.4583 32.7334ZM23.3592 32.7965L23.4089 33.2941L23.5273 33.2822L23.6278 33.2183L23.3592 32.7965ZM22.7539 32.8569L22.7043 32.3594L22.6168 32.3681L22.5375 32.4062L22.7539 32.8569ZM22.6397 32.9117L22.4233 32.461L22.035 32.6475L22.162 33.0591L22.6397 32.9117ZM22.7375 33.2286L22.2597 33.376L22.2811 33.4455L22.3215 33.506L22.7375 33.2286ZM23.0951 33.7649L23.5671 33.6001L23.5462 33.5402L23.5111 33.4875L23.0951 33.7649ZM23.2024 34.0722L23.6598 34.2741L23.7395 34.0936L23.6744 33.9073L23.2024 34.0722ZM22.9795 34.577L22.9686 35.0768L23.3022 35.0841L23.437 34.7789L22.9795 34.577ZM22.3522 34.5632L22.0579 34.9674L22.1846 35.0597L22.3413 35.0631L22.3522 34.5632ZM22.0716 34.3589L21.7021 34.6957L21.7363 34.7332L21.7773 34.763L22.0716 34.3589ZM21.8102 34.0722L21.3933 34.3482L21.4147 34.3804L21.4408 34.409L21.8102 34.0722ZM21.7167 33.9309L22.1336 33.6549L22.0407 33.5145L21.8819 33.459L21.7167 33.9309ZM20.9132 33.6497L21.0784 33.1778L20.911 33.1192L20.7441 33.1792L20.9132 33.6497ZM20.3754 33.8431L20.3461 34.3423L20.4482 34.3482L20.5445 34.3136L20.3754 33.8431ZM20.2117 33.8335L19.8955 34.2208L20.0209 34.3232L20.1825 34.3327L20.2117 33.8335ZM19.9613 33.6291L19.6067 33.9816L19.625 34L19.6451 34.0164L19.9613 33.6291ZM19.8086 33.4755L19.3869 33.7441L19.4159 33.7897L19.454 33.828L19.8086 33.4755ZM19.6601 33.2423L19.189 33.41L19.208 33.4633L19.2384 33.511L19.6601 33.2423ZM19.5761 33.0064L19.0771 33.0385L19.0816 33.1082L19.105 33.174L19.5761 33.0064ZM19.5692 32.8994L19.3965 32.4302L19.0463 32.5591L19.0702 32.9315L19.5692 32.8994ZM19.8004 32.8144L19.973 33.2836L20.0005 33.2735L20.0267 33.2602L19.8004 32.8144ZM20.1814 32.621L20.4077 33.0668L20.4388 33.0511L20.4673 33.0311L20.1814 32.621ZM20.4923 32.4042L20.7783 32.8144L20.8267 32.7806L20.8659 32.7365L20.4923 32.4042ZM20.6973 32.1738L21.0709 32.5061L21.1375 32.4312L21.1701 32.3364L20.6973 32.1738ZM20.7798 31.9338L21.2526 32.0963L21.2765 32.0269L21.2794 31.9535L20.7798 31.9338ZM20.7908 31.6553L20.2946 31.5938L20.292 31.6146L20.2912 31.6356L20.7908 31.6553ZM20.8802 30.9338L20.3962 30.8086L20.388 30.84L20.384 30.8723L20.8802 30.9338ZM20.9711 30.5826L21.4552 30.7079L21.4786 30.6172L21.4677 30.5242L20.9711 30.5826ZM20.9201 30.1492L21.4167 30.0908L21.4067 30.0061L21.3693 29.9295L20.9201 30.1492ZM20.7537 29.809H20.2537V29.9248L20.3046 30.0287L20.7537 29.809ZM20.7537 29.2974L20.2678 29.1796L20.2537 29.2377V29.2974H20.7537ZM20.8142 29.0478L21.3002 29.1656L21.3044 29.1479L21.3074 29.13L20.8142 29.0478ZM20.8417 28.8832L20.5102 28.5088L20.3777 28.6262L20.3485 28.8009L20.8417 28.8832ZM21.0756 28.676L21.4071 29.0504L21.4733 28.9917L21.5154 28.9139L21.0756 28.676ZM21.2366 28.3784L21.6764 28.6162L21.7082 28.5574L21.7235 28.4922L21.2366 28.3784ZM21.3274 27.9902L21.8142 28.1041L21.8257 28.0551L21.8271 28.0049L21.3274 27.9902ZM21.3356 27.7104L21.8354 27.7251L21.8386 27.6163L21.7963 27.5161L21.3356 27.7104ZM21.2627 27.5375L21.7234 27.3433L21.6683 27.2125L21.5527 27.1302L21.2627 27.5375ZM21.0315 27.3729L21.3216 26.9656L21.273 26.9311L21.2176 26.9089L21.0315 27.3729ZM20.6451 27.218L20.3312 27.6072L20.3895 27.6542L20.459 27.6821L20.6451 27.218ZM20.4001 27.0204L19.9387 27.2129L19.9875 27.33L20.0862 27.4096L20.4001 27.0204ZM20.3011 26.7831L19.8017 26.7602L19.7965 26.8722L19.8397 26.9756L20.3011 26.7831ZM20.3107 26.5746L19.8921 26.3011L19.8175 26.4154L19.8112 26.5517L20.3107 26.5746ZM20.429 26.3936L20.8476 26.6671L21.1149 26.258L20.7121 25.9814L20.429 26.3936ZM20.1374 26.1933L20.4204 25.7812L20.3587 25.7388L20.2873 25.7163L20.1374 26.1933ZM19.4344 25.9725L19.1537 26.3862L19.2145 26.4275L19.2846 26.4495L19.4344 25.9725ZM19.0423 25.7064L18.5592 25.835L18.6072 26.0153L18.7615 26.1201L19.0423 25.7064ZM18.9598 25.3964L19.4429 25.2677L19.4192 25.1786L19.3652 25.1038L18.9598 25.3964ZM18.6667 24.9904L19.0722 24.6978L19.0487 24.6652L19.0203 24.6368L18.6667 24.9904ZM18.1633 24.487L17.6938 24.6591L17.7318 24.7626L17.8097 24.8405L18.1633 24.487ZM17.8978 23.7627L17.398 23.7773L17.4004 23.8585L17.4283 23.9348L17.8978 23.7627ZM17.8702 22.8163L17.3717 22.778L17.3697 22.8044L17.3705 22.8308L17.8702 22.8163ZM17.9294 22.0454L17.444 21.9257L17.4341 21.9659L17.4309 22.0071L17.9294 22.0454ZM18.1495 21.1524L18.635 21.2721L18.6765 21.1035L18.6047 20.9455L18.1495 21.1524ZM17.8551 20.505L18.3103 20.2981L18.2757 20.222L18.2183 20.1613L17.8551 20.505ZM17.5319 20.1635L17.895 19.8198L17.8424 19.7642L17.7755 19.7269L17.5319 20.1635ZM17.082 19.9125L16.761 20.2958L16.7972 20.3261L16.8383 20.3491L17.082 19.9125ZM16.6527 19.5531L16.2752 19.8809L16.3013 19.911L16.3318 19.9365L16.6527 19.5531ZM16.2442 19.0826L15.8349 19.3698L15.8497 19.391L15.8667 19.4105L16.2442 19.0826ZM15.7572 18.3886L15.3322 18.6519L15.3397 18.6641L15.3479 18.6757L15.7572 18.3886ZM15.1876 17.4695L15.6126 17.2061L15.587 17.1648L15.5539 17.1291L15.1876 17.4695ZM14.8052 17.058L15.1714 16.7176L14.919 16.446L14.5858 16.6087L14.8052 17.058ZM14.6085 17.1541L14.5057 17.6434L14.6737 17.6787L14.8279 17.6034L14.6085 17.1541ZM14.1972 17.0676L14.0019 17.5279L14.0467 17.5469L14.0943 17.5569L14.1972 17.0676ZM13.5699 16.8015L13.7651 16.3412L13.732 16.3272L13.6973 16.318L13.5699 16.8015ZM13.0237 16.6575L13.1511 16.174L13.0992 16.1604L13.0457 16.158L13.0237 16.6575ZM12.556 16.6369L12.578 16.1374L12.5177 16.1348L12.4586 16.1465L12.556 16.6369ZM12.2519 16.6973L12.1546 16.2069L12.0048 16.2366L11.8972 16.345L12.2519 16.6973ZM12.1116 16.8386L11.7569 16.4862L11.6278 16.6162L11.6132 16.7987L12.1116 16.8386ZM12.1005 16.9771L11.6021 16.9373L11.5855 17.1456L11.7221 17.3039L12.1005 16.9771ZM12.2189 17.1143L12.6467 17.3731L12.8347 17.0624L12.5974 16.7875L12.2189 17.1143ZM12.1542 17.2212L12.3039 17.6983L12.4842 17.6418L12.582 17.4801L12.1542 17.2212ZM11.9094 17.2981L11.7597 16.821L11.6753 16.8475L11.605 16.9013L11.9094 17.2981ZM11.7126 17.449L11.4083 17.0522L11.3417 17.1033L11.2954 17.1734L11.7126 17.449ZM11.4953 17.7727L11.959 17.9598L11.0421 17.5614L11.4953 17.7727ZM11.487 17.7905L11.0338 17.5793L11.9013 18.0704L11.487 17.7905ZM11.337 18.2281L11.6322 18.6316L11.7585 18.5393L11.8096 18.3915L11.337 18.2281ZM11.1045 18.3981L11.1561 18.8955L11.2906 18.8815L11.3997 18.8017L11.1045 18.3981ZM10.7469 18.4352L10.6954 17.9378L10.6349 17.9441L10.5777 17.9647L10.7469 18.4352ZM10.3961 18.5614L10.2269 18.0909L10.1779 18.1085L10.1335 18.1359L10.3961 18.5614ZM10.0494 18.7753L9.78685 18.3498L9.73836 18.3798L9.69784 18.4198L10.0494 18.7753ZM9.88435 18.9386L9.53277 18.5831L9.34716 18.7666L9.39168 19.0239L9.88435 18.9386ZM9.90358 19.0497L10.0587 19.525L10.47 19.3907L10.3963 18.9644L9.90358 19.0497ZM9.82793 19.0744L9.65652 19.5441L9.81884 19.6033L9.9831 19.5497L9.82793 19.0744ZM9.65874 19.0126L9.22038 19.2532L9.31078 19.4179L9.48733 19.4823L9.65874 19.0126ZM9.57897 18.8673L9.0794 18.8465L9.07362 18.9857L9.14062 19.1078L9.57897 18.8673ZM9.58854 18.6368L10.0881 18.6576L10.0981 18.4167L9.91584 18.2588L9.58854 18.6368ZM9.41112 18.4832L9.73842 18.1052L9.64248 18.0221L9.51852 17.9949L9.41112 18.4832ZM9.04931 18.4036L8.79368 18.8333L8.86306 18.8746L8.94191 18.892L9.04931 18.4036ZM8.63662 18.1581L8.30341 18.5309L8.33945 18.5631L8.38099 18.5878L8.63662 18.1581ZM8.17162 17.7425L8.50483 17.3697L8.4809 17.3483L8.45444 17.3302L8.17162 17.7425ZM7.8497 17.5217L8.13251 17.1094L8.03815 17.0446L7.92502 17.0274L7.8497 17.5217ZM7.66951 17.4942L7.74483 16.9999L7.55867 16.9716L7.40005 17.073L7.66951 17.4942ZM7.41223 17.6588L7.14278 17.2376L7.09148 17.2704L7.04956 17.3146L7.41223 17.6588ZM7.07377 18.0155L7.29863 18.462L7.37646 18.4229L7.43645 18.3596L7.07377 18.0155ZM6.79593 18.1554L6.63828 18.6299L6.83533 18.6953L7.02079 18.6019L6.79593 18.1554ZM6.5772 18.0827L6.73484 17.6082L6.4889 17.5265L6.28035 17.6803L6.5772 18.0827ZM6.40801 18.2075L6.11116 17.8052L5.9898 17.8947L5.93819 18.0364L6.40801 18.2075ZM6.28961 18.5326L6.66834 18.859L6.7281 18.7897L6.75943 18.7037L6.28961 18.5326ZM6.07088 18.7863L6.32229 19.2185L6.39482 19.1764L6.44961 19.1128L6.07088 18.7863ZM5.5922 19.0648L5.34079 18.6326L5.28035 18.6678L5.23188 18.7181L5.5922 19.0648ZM5.56054 19.0977L5.8428 19.5104L5.88522 19.4814L5.92086 19.4444L5.56054 19.0977ZM5.013 19.4722L4.73074 19.0595L4.70798 19.075L4.68707 19.093L5.013 19.4722ZM4.5742 19.8494L4.24826 19.4702L4.23477 19.4818L4.22214 19.4943L4.5742 19.8494ZM4.06377 20.3555L4.21824 20.8311L4.33136 20.7943L4.41582 20.7106L4.06377 20.3555ZM3.82304 20.4337L3.58637 20.8741L3.77444 20.9752L3.97751 20.9092L3.82304 20.4337ZM3.59331 20.3103L3.82998 19.8698L3.79666 19.8519L3.76103 19.8392L3.59331 20.3103ZM3.24662 20.1868L2.90472 20.5516L2.98074 20.6229L3.0789 20.6578L3.24662 20.1868ZM3.06365 20.0154L2.60065 19.8266L2.47084 20.1451L2.72176 20.3802L3.06365 20.0154ZM3.41312 19.1581L2.95966 18.9474L2.95462 18.9583L2.95011 18.9693L3.41312 19.1581ZM3.85469 18.2075L4.30815 18.4182L4.32627 18.3792L4.33747 18.3376L3.85469 18.2075ZM3.973 17.7686L4.45577 17.8987L4.46933 17.8484L4.47223 17.7964L3.973 17.7686ZM3.99089 17.4476L4.49011 17.4754L4.49316 17.4208L4.48432 17.3668L3.99089 17.4476ZM3.94823 17.187L4.44167 17.1062L4.42515 17.0053L4.37034 16.919L3.94823 17.187ZM3.77493 16.914L4.19704 16.646L4.18501 16.627L4.17132 16.6092L3.77493 16.914ZM3.61254 16.7028L3.11537 16.756L3.13035 16.8959L3.21614 17.0075L3.61254 16.7028ZM3.59742 16.5615L3.12595 16.395L3.0882 16.5019L3.10026 16.6147L3.59742 16.5615ZM3.64973 16.4134L3.25994 16.1002L3.20661 16.1666L3.17826 16.2469L3.64973 16.4134ZM3.82715 16.1925L4.21695 16.5056L4.23093 16.4882L4.2433 16.4697L3.82715 16.1925ZM4.05554 15.8496L4.47169 16.1267L4.51289 16.0649L4.53431 15.9937L4.05554 15.8496ZM4.26739 15.1459L3.79416 14.9845L3.79123 14.9931L3.78861 15.0018L4.26739 15.1459ZM4.52189 14.3998L4.99512 14.5612L5.02644 14.4693L5.02114 14.3724L4.52189 14.3998ZM4.49712 13.9471L4.99637 13.9198L4.99172 13.8349L4.95929 13.7563L4.49712 13.9471ZM4.29216 13.4506L3.80587 13.5669L3.815 13.605L3.82998 13.6413L4.29216 13.4506ZM4.17931 12.9787L3.68407 12.9099L3.67108 13.0033L3.69302 13.095L4.17931 12.9787ZM4.26873 12.3354L4.76397 12.4042L4.77328 12.3373L4.76446 12.2702L4.26873 12.3354ZM4.23573 12.0844L4.73147 12.0192L4.69909 11.7729L4.4832 11.6499L4.23573 12.0844ZM4.01423 11.9582L4.2617 11.5237L4.18625 11.4808L4.10074 11.4657L4.01423 11.9582ZM3.28793 11.8306L3.37444 11.3382L3.3082 11.3265L3.24125 11.3328L3.28793 11.8306ZM3.054 11.8525L3.00732 11.3547L2.92533 11.3624L2.85014 11.396L3.054 11.8525ZM2.86969 11.9348L2.66583 11.4783L2.59641 11.5093L2.53934 11.5595L2.86969 11.9348ZM2.67019 12.1104L2.8766 12.5659L2.94455 12.5351L3.00055 12.4858L2.67019 12.1104ZM2.42812 12.2202L2.4951 12.7157L2.56775 12.7058L2.63452 12.6756L2.42812 12.2202ZM1.97135 12.2819L1.74598 12.7282L1.88452 12.7982L2.03832 12.7774L1.97135 12.2819ZM1.53943 12.0638L1.18176 12.4132L1.23985 12.4727L1.31406 12.5101L1.53943 12.0638ZM1.17762 11.6934L0.686553 11.7875L0.714858 11.9352L0.819952 12.0428L1.17762 11.6934ZM1.09088 11.2408L0.642109 11.0203L0.568321 11.1706L0.599817 11.3349L1.09088 11.2408ZM1.35638 10.7004L1.80515 10.9208L1.81124 10.9084L1.81663 10.8957L1.35638 10.7004ZM1.54211 10.2628L2.00237 10.4582L2.01376 10.4313L2.02195 10.4033L1.54211 10.2628ZM1.65219 9.88697L2.13203 10.0275L2.15717 9.94168L2.151 9.85245L1.65219 9.88697ZM1.63985 9.70865L2.13866 9.67413L2.13299 9.59227L2.10146 9.51652L1.63985 9.70865ZM1.56277 9.52346L2.02438 9.33133L1.92664 9.0965L1.67929 9.03723L1.56277 9.52346ZM1.45412 9.49743L1.10111 9.85153L1.20076 9.95087L1.3376 9.98366L1.45412 9.49743ZM1.22296 9.26699L0.785898 9.50984L0.820095 9.57138L0.869957 9.62109L1.22296 9.26699ZM0.997344 8.86095L1.43441 8.61809L1.3917 8.54124L1.32534 8.48356L0.997344 8.86095ZM0.782728 8.67442L1.11072 8.29703L0.93173 8.14147L0.698012 8.18165L0.782728 8.67442ZM0.583309 8.7087L0.498594 8.21593L0.366129 8.2387L0.262936 8.32483L0.583309 8.7087ZM0.397577 8.86371L0.077204 8.47983L0.0156112 8.53124L-0.0268085 8.59933L0.397577 8.86371ZM0.228387 9.1353L0.550542 9.51768L0.610983 9.46676L0.652772 9.39968L0.228387 9.1353ZM0.0948812 9.24777L-0.140886 9.6887L0.15791 9.84847L0.417036 9.63016L0.0948812 9.24777ZM0 9.19704L-0.49642 9.13731L-0.53726 9.47675L-0.235768 9.63796L0 9.19704ZM0.0288842 8.95697L-0.467497 8.89693L-0.467536 8.89725L0.0288842 8.95697ZM0.0564249 8.7293L-0.430212 8.61447L-0.436611 8.64159L-0.439957 8.66925L0.0564249 8.7293ZM0.265499 7.84321L-0.192256 7.64206L-0.210642 7.6839L-0.221138 7.72838L0.265499 7.84321ZM0.518656 7.26709L0.184142 6.89547L0.104181 6.96745L0.0609001 7.06594L0.518656 7.26709ZM0.81581 6.9996L0.645179 6.52962L0.55366 6.56285L0.481296 6.62799L0.81581 6.9996ZM1.12942 6.88575L1.1933 6.38984L1.0729 6.37433L0.958791 6.41576L1.12942 6.88575ZM1.45957 6.92827L1.39569 7.42418L1.47141 7.43393L1.54659 7.42065L1.45957 6.92827ZM1.73884 6.87892L1.82586 7.37129L1.92313 7.3541L2.00656 7.30121L1.73884 6.87892ZM1.96169 6.73764L2.22941 7.15993L2.53556 6.96584L2.44629 6.61451L1.96169 6.73764ZM1.94112 6.65669L2.42572 6.53355L2.33741 6.18601L1.9799 6.15819L1.94112 6.65669ZM1.67696 6.63613L1.26538 6.92003L1.40065 7.11615L1.63818 7.13463L1.67696 6.63613ZM1.571 6.48251L1.08024 6.38683L1.03999 6.59327L1.15941 6.7664L1.571 6.48251ZM1.62742 6.19309L1.20147 5.93125L1.154 6.00846L1.13666 6.09741L1.62742 6.19309ZM1.74296 6.00514L1.52817 5.55363L1.39451 5.61721L1.317 5.7433L1.74296 6.00514ZM1.92458 5.91874L2.13937 6.37025L2.27468 6.30588L2.35228 6.17771L1.92458 5.91874ZM2.10065 5.62794L2.52836 5.88691L2.55656 5.84034L2.57407 5.7888L2.10065 5.62794ZM2.26984 5.13001L1.88466 4.81122L1.82602 4.88207L1.79643 4.96915L2.26984 5.13001ZM2.47757 4.87902L2.46341 4.37922L2.23688 4.38565L2.09239 4.56023L2.47757 4.87902ZM2.71973 4.87216L2.7339 5.37196L2.84654 5.36876L2.94692 5.31756L2.71973 4.87216ZM3.13654 4.65955L3.36373 5.10495L3.39676 5.0881L3.42695 5.06657L3.13654 4.65955ZM3.72673 4.23844L4.01714 4.64546L4.10875 4.58009L4.16352 4.48178L3.72673 4.23844ZM3.95369 3.83106L4.27459 3.44762L3.81107 3.0597L3.5169 3.58772L3.95369 3.83106ZM4.17662 4.01763L4.66889 4.10523L4.71963 3.82008L4.49752 3.63419L4.17662 4.01763ZM4.09265 4.48947L3.60039 4.40188L3.5499 4.68561L3.77011 4.87153L4.09265 4.48947ZM4.20962 4.58822L4.685 4.43328L4.6409 4.29797L4.53217 4.20617L4.20962 4.58822ZM4.26462 4.75696L4.76135 4.81398L4.77379 4.70567L4.74 4.60201L4.26462 4.75696ZM4.23439 5.0203L3.73765 4.96328L3.72809 5.04659L3.74623 5.12847L4.23439 5.0203ZM4.28393 5.24387L3.79577 5.35204L3.82219 5.47128L3.90061 5.56491L4.28393 5.24387ZM4.37469 5.35225L3.99137 5.67329L4.06798 5.76475L4.17762 5.81177L4.37469 5.35225ZM4.50266 5.40713L4.30559 5.86665L4.47407 5.93891L4.64933 5.88513L4.50266 5.40713ZM5.12854 5.21507L5.1106 4.7154L5.0448 4.71776L4.98186 4.73707L5.12854 5.21507ZM5.511 5.20134L5.81951 4.80787L5.6757 4.69511L5.49306 4.70167L5.511 5.20134ZM5.67196 5.32755L5.36345 5.72102L5.39672 5.74711L5.4339 5.76724L5.67196 5.32755ZM5.81638 5.40575L5.57832 5.84544L5.61697 5.86636L5.65869 5.88023L5.81638 5.40575ZM5.998 5.46611L6.24779 5.03297L6.20384 5.00763L6.1557 4.99163L5.998 5.46611ZM6.13831 5.54702L5.88852 5.98016L6.0734 6.08678L6.27829 6.02703L6.13831 5.54702ZM6.22773 5.52094L6.36772 6.00095L6.47928 5.96841L6.56506 5.89001L6.22773 5.52094ZM6.44235 5.32479L6.20811 4.88305L6.15195 4.91283L6.10502 4.95572L6.44235 5.32479ZM6.507 5.29051L6.74124 5.73224L6.98591 5.60251L7.00572 5.32628L6.507 5.29051ZM6.51389 5.19452L7.01261 5.2303L7.0272 5.02688L6.89536 4.87129L6.51389 5.19452ZM6.36392 5.01754L6.7454 4.69431L6.72818 4.67399L6.7089 4.65561L6.36392 5.01754ZM6.2085 4.8694L5.70857 4.86111L5.70494 5.08016L5.86353 5.23132L6.2085 4.8694ZM6.21396 4.54021L5.718 4.47679L5.71449 4.50424L5.71403 4.53192L6.21396 4.54021ZM6.28693 3.96962L6.78289 4.03304L6.78531 4.01413L6.78628 3.99509L6.28693 3.96962ZM6.30204 3.67333L6.80139 3.6988L6.80229 3.68122L6.80195 3.66363L6.30204 3.67333ZM6.28827 2.96418L6.78818 2.95448L6.78761 2.92513L6.78361 2.89606L6.28827 2.96418ZM6.26073 2.76393L6.75607 2.6958L6.74158 2.59049L6.68551 2.50018L6.26073 2.76393ZM6.11765 2.53349L6.54243 2.26974L6.52343 2.23913L6.50023 2.21156L6.11765 2.53349ZM5.74485 2.09044L5.27852 2.27083L5.30859 2.34858L5.36227 2.41237L5.74485 2.09044ZM5.64031 1.82019L5.1524 1.92951L5.16055 1.96585L5.17398 2.00058L5.64031 1.82019ZM5.57977 1.54999L5.08003 1.53384L5.07798 1.59732L5.09186 1.6593L5.57977 1.54999ZM5.58531 1.37853L6.08505 1.39468L6.08903 1.27154L6.03534 1.16065L5.58531 1.37853ZM5.49035 1.18237L5.00688 1.30988L5.01922 1.35669L5.04031 1.40025L5.49035 1.18237ZM5.44223 0.999949L5.19779 0.563773L4.86002 0.753064L4.95876 1.12746L5.44223 0.999949ZM5.60865 0.906686L5.85309 1.34286L5.9182 1.30638L5.96981 1.25247L5.60865 0.906686ZM5.81093 0.695419L6.17208 1.0412L6.25265 0.957052L6.28773 0.845958L5.81093 0.695419ZM5.91269 0.373097L5.44978 0.184126L5.44205 0.203058L5.43589 0.222558L5.91269 0.373097ZM6.009 0.137175L5.71855 -0.269815L5.60077 -0.185762L5.54609 -0.0517967L6.009 0.137175ZM6.14931 0.037046L6.00302 -0.441075L5.92515 -0.417249L5.85886 -0.369944L6.14931 0.037046ZM6.27039 0L6.39332 -0.484652L6.25779 -0.519028L6.1241 -0.478121L6.27039 0ZM6.35158 0.0205951L6.75179 -0.279129L6.64584 -0.420601L6.47451 -0.464057L6.35158 0.0205951ZM6.66796 0.443045L6.26776 0.742769L6.52368 1.08449L6.90128 0.885269L6.66796 0.443045ZM7.06831 0.23182L7.07059 -0.268175L6.94557 -0.268745L6.83499 -0.210404L7.06831 0.23182ZM7.37092 0.233202L7.56736 -0.226595L7.47435 -0.266332L7.37321 -0.266793L7.37092 0.233202ZM7.63097 0.344298L7.98222 -0.0115378L7.91468 -0.0782119L7.8274 -0.115499L7.63097 0.344298ZM7.76993 0.481473L7.33093 0.720811L7.54555 1.11446L7.98454 0.875123L8.42354 0.635785L8.20892 0.242134L7.76993 0.481473ZM7.98454 0.875123L7.63863 1.23616L8.09532 1.67372L8.44123 1.31268L8.78715 0.951652L8.33046 0.51409L7.98454 0.875123ZM8.44123 1.31268L8.06454 1.64148L8.60931 2.26561L8.986 1.93682L9.36269 1.60802L8.81792 0.983893L8.44123 1.31268ZM8.986 1.93682L8.55818 2.19559L8.73157 2.48225L9.15939 2.22347L9.58722 1.9647L9.41383 1.67804L8.986 1.93682ZM9.15939 2.22347L8.90291 2.65268L9.27017 2.87215L9.52666 2.44294L9.78314 2.01374L9.41588 1.79427L9.15939 2.22347ZM9.52666 2.44294L9.07632 2.66018L9.18085 2.87689L9.6312 2.65965L10.0815 2.44241L9.977 2.22571L9.52666 2.44294ZM9.6312 2.65965L9.14646 2.78226L9.23043 3.11421L9.71516 2.9916L10.1999 2.86899L10.1159 2.53704L9.6312 2.65965ZM9.71516 2.9916L9.22072 3.06593L9.25783 3.31282L9.75227 3.23849L10.2467 3.16417L10.2096 2.91728L9.71516 2.9916ZM9.75227 3.23849L9.31571 3.48224L9.39691 3.62766L9.83347 3.38391L10.27 3.14016L10.1888 2.99474L9.75227 3.23849ZM9.83347 3.38391L9.63002 3.84065L9.75932 3.89825L9.96278 3.44151L10.1662 2.98478L10.0369 2.92718L9.83347 3.38391ZM9.96278 3.44151L10.1434 3.90775L10.3098 3.84329L10.1292 3.37705L9.94859 2.9108L9.78217 2.97527L9.96278 3.44151ZM10.1292 3.37705L10.4916 3.72155L10.6168 3.58986L10.2544 3.24536L9.89201 2.90086L9.76681 3.03255L10.1292 3.37705ZM10.2544 3.24536L10.7349 3.38356L10.8394 3.02009L10.3589 2.88189L9.8784 2.74368L9.77387 3.10715L10.2544 3.24536ZM10.3589 2.88189L10.6026 3.31849L10.6715 3.28006L10.4278 2.84346L10.1841 2.40686L10.1152 2.44528L10.3589 2.88189ZM10.4278 2.84346L9.95993 3.01988L10.0727 3.31892L10.5405 3.14251L11.0084 2.96609L10.8956 2.66704L10.4278 2.84346ZM10.5405 3.14251L10.3454 3.60283L10.465 3.65357L10.6602 3.19324L10.8554 2.73291L10.7357 2.68218L10.5405 3.14251ZM10.6602 3.19324L10.5403 3.67865L10.7012 3.71841L10.8212 3.23301L10.9411 2.7476L10.7801 2.70784L10.6602 3.19324ZM10.8212 3.23301L10.4587 3.57742L10.5812 3.70635L10.9437 3.36194L11.3061 3.01753L11.1836 2.8886L10.8212 3.23301ZM10.9437 3.36194L10.4502 3.44236L10.4873 3.67008L10.9808 3.58965L11.4743 3.50923L11.4372 3.28151L10.9437 3.36194ZM10.9808 3.58965L10.4885 3.50193L10.4472 3.73375L10.9395 3.82147L11.4317 3.90919L11.473 3.67737L10.9808 3.58965ZM10.9395 3.82147L10.506 3.57221L10.3561 3.83283L10.7896 4.08209L11.223 4.33136L11.3729 4.07074L10.9395 3.82147ZM10.7896 4.08209L10.3121 3.93361L10.2268 4.20792L10.7043 4.3564L11.1817 4.50489L11.267 4.23058L10.7896 4.08209ZM10.7043 4.3564L10.2091 4.2868L10.1499 4.70791L10.6451 4.77751L11.1402 4.84711L11.1994 4.426L10.7043 4.3564ZM10.6451 4.77751L10.1626 4.64639L10.0828 4.93991L10.5653 5.07103L11.0478 5.20216L11.1276 4.90864L10.6451 4.77751ZM10.5653 5.07103L10.1141 5.28654L10.238 5.54582L10.6892 5.33031L11.1403 5.11481L11.0165 4.85553L10.5653 5.07103ZM10.6892 5.33031L10.2735 5.60823L11.1264 6.88387L11.5421 6.60595L11.9577 6.32804L11.1048 5.0524L10.6892 5.33031ZM11.5421 6.60595L11.3154 7.05162L11.7253 7.26012L11.952 6.81446L12.1787 6.3688L11.7688 6.16029L11.5421 6.60595ZM11.952 6.81446L11.828 7.29885L12.8034 7.54846L12.9274 7.06407L13.0513 6.57968L12.076 6.33007L11.952 6.81446ZM12.9274 7.06407L12.7085 7.51364L13.0608 7.68509L13.2796 7.23553L13.4984 6.78596L13.1462 6.6145L12.9274 7.06407ZM13.2796 7.23553L13.0426 7.67577L13.3534 7.84313L13.5904 7.40288L13.8275 6.96264L13.5166 6.79528L13.2796 7.23553ZM13.5904 7.40288L13.7185 7.88621L14.0239 7.8053L13.8959 7.32197L13.7679 6.83864L13.4624 6.91955L13.5904 7.40288ZM13.8959 7.32197L14.2911 7.6282L14.5855 7.24823L14.1903 6.942L13.795 6.63578L13.5006 7.01574L13.8959 7.32197ZM14.1903 6.942L14.448 7.37048L14.8015 7.15787L14.5438 6.7294L14.2861 6.30092L13.9326 6.51353L14.1903 6.942ZM14.5438 6.7294L14.7661 7.17725L15.4237 6.85078L15.2014 6.40293L14.9791 5.95508L14.3214 6.28155L14.5438 6.7294ZM15.2014 6.40293L15.2485 6.90071L15.437 6.88288L15.3899 6.3851L15.3428 5.88732L15.1543 5.90516L15.2014 6.40293ZM15.3899 6.3851L15.221 6.85572L15.5842 6.98603L15.753 6.51541L15.9219 6.04479L15.5588 5.91448L15.3899 6.3851ZM15.753 6.51541L15.4846 6.93724L16.0817 7.3172L16.3501 6.89537L16.6186 6.47354L16.0215 6.09358L15.753 6.51541ZM16.3501 6.89537L16.0312 7.28043L16.4618 7.63708L16.7807 7.25202L17.0996 6.86696L16.6691 6.51031L16.3501 6.89537ZM16.7807 7.25202L16.4928 7.66083L16.7597 7.84874L17.0475 7.43993L17.3354 7.03112L17.0686 6.84321L16.7807 7.25202ZM17.0475 7.43993L16.7286 7.82495L16.9322 7.99365L17.2512 7.60862L17.5702 7.2236L17.3665 7.0549L17.0475 7.43993ZM17.2512 7.60862L16.758 7.52615L16.7264 7.71544L17.2195 7.79791L17.7127 7.88038L17.7443 7.69109L17.2512 7.60862ZM17.2195 7.79791L16.8436 7.4682L16.68 7.65477L17.0559 7.98448L17.4317 8.31419L17.5954 8.12762L17.2195 7.79791ZM17.0559 7.98448L16.834 7.5364L16.6263 7.63925L16.8481 8.08733L17.07 8.53542L17.2777 8.43257L17.0559 7.98448ZM16.8481 8.08733L16.5738 7.66932L16.3 7.84903L16.5743 8.26704L16.8487 8.68505L17.1225 8.50535L16.8481 8.08733ZM16.5743 8.26704L16.1949 7.94135L16.0395 8.1224L16.4189 8.44808L16.7983 8.77377L16.9537 8.59272L16.5743 8.26704ZM16.4189 8.44808L16.1298 8.85606L16.2247 8.92328L16.5138 8.51531L16.8028 8.10734L16.708 8.04011L16.4189 8.44808ZM16.5138 8.51531L16.4578 9.01217L16.8595 9.05742L16.9155 8.56056L16.9714 8.0637L16.5697 8.01845L16.5138 8.51531ZM16.9155 8.56056L16.7553 9.03422L17.23 9.19471L17.3901 8.72105L17.5503 8.24739L17.0756 8.0869L16.9155 8.56056ZM17.3901 8.72105L16.9937 9.02574L17.1381 9.21365L17.5345 8.90896L17.931 8.60427L17.7866 8.41636L17.3901 8.72105ZM17.5345 8.90896L17.0386 8.97278L17.0593 9.13328L17.5552 9.06945L18.0511 9.00563L18.0305 8.84513L17.5345 8.90896ZM17.5552 9.06945L17.0669 9.17711L17.1247 9.43911L17.613 9.33145L18.1012 9.22379L18.0435 8.96179L17.5552 9.06945ZM17.613 9.33145L17.2691 9.69446L17.3531 9.77399L17.6969 9.41099L18.0408 9.04798L17.9568 8.96845L17.613 9.33145ZM17.6969 9.41099L17.7498 9.90819L18.1886 9.86155L18.1357 9.36435L18.0829 8.86715L17.6441 8.91378L17.6969 9.41099ZM18.1357 9.36435L17.937 9.82318L18.0732 9.88216L18.2719 9.42333L18.4706 8.96451L18.3344 8.90553L18.1357 9.36435ZM18.2719 9.42333L17.9481 9.80431L18.1063 9.93877L18.4301 9.55779L18.7539 9.17681L18.5957 9.04235L18.2719 9.42333ZM18.4301 9.55779L17.9733 9.76105L18.1302 10.1136L18.587 9.91029L19.0438 9.70703L18.8869 9.35452L18.4301 9.55779ZM18.587 9.91029L18.087 9.90248L18.0829 10.1658L18.5829 10.1736L19.0828 10.1814L19.0869 9.9181L18.587 9.91029ZM18.5829 10.1736L18.2462 9.80395L17.9284 10.0934L18.265 10.4631L18.6017 10.8327L18.9195 10.5433L18.5829 10.1736ZM18.265 10.4631L17.8504 10.1837L17.7321 10.3593L18.1467 10.6387L18.5614 10.918L18.6797 10.7424L18.265 10.4631ZM18.1467 10.6387L17.6555 10.5456L17.6032 10.8213L18.0945 10.9143L18.5858 11.0074L18.638 10.7317L18.1467 10.6387ZM18.0945 10.9143L17.6815 10.6325L17.4559 10.963L17.8689 11.2449L18.2819 11.5268L18.5075 11.1962L18.0945 10.9143ZM17.8689 11.2449L17.5296 10.8776L16.9298 11.4318L17.269 11.7991L17.6083 12.1663L18.2082 11.6122L17.8689 11.2449ZM17.269 11.7991L17.1688 11.3092L17.0078 11.3421L17.1081 11.832L17.2083 12.3218L17.3693 12.2889L17.269 11.7991ZM17.1081 11.832L17.241 11.35L16.1363 11.0454L16.0034 11.5275L15.8705 12.0095L16.9752 12.314L17.1081 11.832ZM16.0034 11.5275L15.9847 11.0278L15.4716 11.047L15.4903 11.5467L15.509 12.0463L16.0221 12.0271L16.0034 11.5275ZM15.4903 11.5467L15.471 11.0471L15.2234 11.0566L15.2427 11.5563L15.262 12.0559L15.5097 12.0463L15.4903 11.5467ZM15.2427 11.5563L15.1857 11.0595L15.066 11.0732L15.123 11.57L15.1799 12.0667L15.2997 12.053L15.2427 11.5563ZM15.123 11.57L14.6982 11.3063L14.6266 11.4215L15.0514 11.6852L15.4762 11.9489L15.5478 11.8337L15.123 11.57ZM15.0514 11.6852L14.5937 11.8865L14.7409 12.2212L15.1986 12.0199L15.6563 11.8186L15.5091 11.4839L15.0514 11.6852ZM15.1986 12.0199L14.703 12.0857L14.7471 12.4177L15.2427 12.3519L15.7384 12.286L15.6943 11.9541L15.1986 12.0199ZM15.2427 12.3519L14.8037 12.1125L14.6661 12.3649L15.1051 12.6042L15.5441 12.8436L15.6817 12.5912L15.2427 12.3519ZM15.1051 12.6042L14.8486 12.175L14.4813 12.3945L14.7378 12.8237L14.9943 13.2529L15.3616 13.0334L15.1051 12.6042ZM14.7378 12.8237L14.4353 12.4256L14.2963 12.5312L14.5989 12.9293L14.9014 13.3274L15.0404 13.2218L14.7378 12.8237ZM14.5989 12.9293L14.1022 12.8717L14.0856 13.0144L14.5823 13.072L15.079 13.1296L15.0955 12.9869L14.5989 12.9293ZM14.5823 13.072L14.172 13.3578L14.2752 13.5059L14.6855 13.2201L15.0958 12.9343L14.9926 12.7862L14.5823 13.072ZM14.6855 13.2201L14.4804 13.6761L14.8187 13.8283L15.0239 13.3724L15.229 12.9164L14.8907 12.7641L14.6855 13.2201ZM15.0239 13.3724L14.854 13.8426L15.2489 13.9853L15.4188 13.515L15.5887 13.0448L15.1938 12.9021L15.0239 13.3724ZM15.4188 13.515L15.1437 13.9326L16.4451 14.7898L16.7202 14.3723L16.9952 13.9548L15.6938 13.0975L15.4188 13.515ZM16.7202 14.3723L16.4265 14.777L16.7045 14.9787L16.9981 14.5739L17.2917 14.1692L17.0138 13.9676L16.7202 14.3723ZM16.9981 14.5739L16.684 14.9629L17.0526 15.2606L17.3667 14.8716L17.6808 14.4826L17.3122 14.1849L16.9981 14.5739ZM17.3667 14.8716L17.1166 15.3046L17.5156 15.535L17.7657 15.102L18.0158 14.6691L17.6168 14.4386L17.3667 14.8716ZM17.7657 15.102L17.6286 15.5829L18.6961 15.8874L18.8332 15.4065L18.9704 14.9257L17.9028 14.6212L17.7657 15.102ZM18.8332 15.4065L18.639 15.8673L19.1109 16.0662L19.3051 15.6055L19.4993 15.1447L19.0275 14.9458L18.8332 15.4065ZM19.3051 15.6055L18.9647 15.9717L19.0857 16.0841L19.4261 15.7179L19.7666 15.3517L19.6456 15.2392L19.3051 15.6055ZM19.4261 15.7179L18.9263 15.7031L18.9222 15.8416L19.422 15.8564L19.9218 15.8713L19.9259 15.7328L19.4261 15.7179ZM19.422 15.8564L19.0123 15.5699L18.8885 15.7468L19.2982 16.0334L19.708 16.32L19.8317 16.143L19.422 15.8564ZM19.2982 16.0334L18.8232 15.8773L18.7214 16.1873L19.1964 16.3434L19.6714 16.4995L19.7733 16.1895L19.2982 16.0334ZM19.1964 16.3434L18.6966 16.3288L18.6911 16.5153L19.1909 16.5299L19.6907 16.5446L19.6962 16.358L19.1964 16.3434ZM19.1909 16.5299L18.766 16.7934L18.8774 16.9731L19.3024 16.7096L19.7273 16.4462L19.6159 16.2665L19.1909 16.5299ZM19.3024 16.7096L18.8929 16.9966L19.0813 17.2654L19.4908 16.9785L19.9002 16.6915L19.7118 16.4227L19.3024 16.7096ZM19.4908 16.9785L19.1407 17.3354L19.5644 17.7511L19.9146 17.3941L20.2647 17.0371L19.8409 16.6215L19.4908 16.9785ZM19.9146 17.3941L19.603 17.7852L19.8355 17.9704L20.1471 17.5793L20.4586 17.1882L20.2261 17.003L19.9146 17.3941ZM20.1471 17.5793L20.0681 18.073L20.3252 18.1141L20.4042 17.6204L20.4832 17.1267L20.226 17.0856L20.1471 17.5793ZM20.4042 17.6204L20.1991 18.0764L20.4247 18.1779L20.6299 17.7219L20.835 17.266L20.6094 17.1645L20.4042 17.6204ZM20.6299 17.7219L20.2305 18.0228L20.463 18.3314L20.8624 18.0305L21.2617 17.7297L21.0292 17.4211L20.6299 17.7219ZM20.8624 18.0305L20.4556 18.3213L20.7252 18.6985L21.132 18.4078L21.5388 18.117L21.2691 17.7398L20.8624 18.0305ZM21.132 18.4078L20.6365 18.4751L20.6723 18.7384L21.1677 18.6711L21.6632 18.6038L21.6274 18.3405L21.132 18.4078ZM21.1677 18.6711L20.6947 18.8332L20.8104 19.1706L21.2834 19.0085L21.7564 18.8465L21.6407 18.509L21.1677 18.6711ZM21.2834 19.0085L20.8615 19.277L21.1077 19.6638L21.5295 19.3954L21.9514 19.1269L21.7052 18.7401L21.2834 19.0085ZM21.5295 19.3954L21.1587 19.7307L21.4985 20.1065L21.8694 19.7712L22.2402 19.4358L21.9004 19.06L21.5295 19.3954ZM21.8694 19.7712L21.52 20.1289L21.996 20.5938L22.3454 20.2362L22.6947 19.8785L22.2187 19.4135L21.8694 19.7712ZM22.3454 20.2362L21.9616 20.5567L22.2354 20.8845L22.6192 20.564L23.0029 20.2435L22.7291 19.9157L22.3454 20.2362ZM22.6192 20.564L22.2642 20.9162L22.3907 21.0437L22.7457 20.6916L23.1007 20.3394L22.9741 20.2119L22.6192 20.564ZM22.7457 20.6916L22.4376 21.0854L23.4529 21.8796L23.7609 21.4858L24.069 21.092L23.0538 20.2977L22.7457 20.6916ZM23.7609 21.4858L23.3788 21.8082L23.6264 22.1017L24.0085 21.7793L24.3907 21.4569L24.1431 21.1634L23.7609 21.4858ZM24.0085 21.7793L23.5861 22.0467L23.9438 22.6118L24.3662 22.3444L24.7887 22.077L24.431 21.5119L24.0085 21.7793ZM24.3662 22.3444L24.1273 22.7837L24.2786 22.866L24.5175 22.4267L24.7565 21.9875L24.6051 21.9052L24.3662 22.3444ZM24.5175 22.4267L24.2109 22.8217L24.354 22.9328L24.6606 22.5378L24.9673 22.1429L24.8242 22.0318L24.5175 22.4267ZM24.6606 22.5378L24.1808 22.6784L24.2717 22.9885L24.7515 22.8478L25.2313 22.7072L25.1404 22.3972L24.6606 22.5378ZM24.7515 22.8478L24.256 22.9152L24.2863 23.1374L24.7817 23.07L25.2771 23.0026L25.2469 22.7804L24.7515 22.8478ZM24.7817 23.07L24.283 23.1054L24.3312 23.7857L24.8299 23.7504L25.3286 23.7151L25.2805 23.0347L24.7817 23.07ZM24.8299 23.7504L24.4608 24.0877L24.6451 24.2894L25.0142 23.952L25.3833 23.6147L25.199 23.4131L24.8299 23.7504ZM25.0142 23.952L24.601 24.2336L24.7702 24.4819L25.1834 24.2003L25.5966 23.9187L25.4274 23.6705L25.0142 23.952ZM25.1834 24.2003L24.7184 24.384L24.7899 24.5651L25.2549 24.3813L25.7199 24.1976L25.6484 24.0166L25.1834 24.2003ZM25.2549 24.3813L24.9262 24.7581L25.0803 24.8925L25.409 24.5158L25.7378 24.1391L25.5837 24.0046L25.2549 24.3813ZM25.409 24.5158L25.3363 25.0105L25.5042 25.0351L25.5769 24.5405L25.6495 24.0458L25.4817 24.0211L25.409 24.5158ZM25.5769 24.5405L25.8767 24.9406L26.0762 24.7911L25.7764 24.391L25.4765 23.9908L25.277 24.1403L25.5769 24.5405ZM25.7764 24.391L26.113 24.7607L26.2712 24.6166L25.9346 24.2469L25.5979 23.8772L25.4397 24.0213L25.7764 24.391ZM25.9346 24.2469L25.6826 24.6788L25.7554 24.7213L26.0074 24.2895L26.2594 23.8576L26.1866 23.8151L25.9346 24.2469ZM26.0074 24.2895L25.5335 24.4488L25.6931 24.9235L26.1671 24.7641L26.641 24.6047L26.4813 24.1301L26.0074 24.2895ZM26.1671 24.7641L25.7864 25.0883L25.9336 25.2611L26.3142 24.9369L26.6949 24.6126L26.5477 24.4398L26.1671 24.7641ZM26.3142 24.9369L26.056 25.365L26.3311 25.531L26.5894 25.1028L26.8477 24.6747L26.5725 24.5087L26.3142 24.9369ZM26.5894 25.1028L26.3701 25.5522L26.6315 25.6798L26.8508 25.2304L27.0701 24.7811L26.8087 24.6535L26.5894 25.1028ZM26.8508 25.2304L26.4973 25.5841L27.0682 26.1547L27.4217 25.801L27.7751 25.4474L27.2042 24.8768L26.8508 25.2304ZM27.4217 25.801L27.1389 26.2134L27.4429 26.4219L27.7257 26.0095L28.0085 25.5972L27.7045 25.3887L27.4217 25.801ZM27.7257 26.0095L27.5755 26.4864L27.7846 26.5523L27.9348 26.0754L28.085 25.5985L27.8759 25.5326L27.7257 26.0095ZM27.9348 26.0754L27.6943 26.5138L27.8718 26.6111L28.1123 26.1727L28.3527 25.7344L28.1752 25.637L27.9348 26.0754ZM28.1123 26.1727L27.6329 26.3148L27.6865 26.4959L28.1659 26.3538L28.6453 26.2118L28.5917 26.0307L28.1123 26.1727ZM28.1659 26.3538L27.6993 26.1743L27.6291 26.3567L28.0957 26.5362L28.5624 26.7158L28.6326 26.5334L28.1659 26.3538ZM28.0957 26.5362L27.7448 26.1802L27.6237 26.2995L27.9747 26.6556L28.3257 27.0117L28.4467 26.8923L28.0957 26.5362ZM27.9747 26.6556L27.7519 26.2079L27.0875 26.5385L27.3102 26.9862L27.533 27.4338L28.1974 27.1032L27.9747 26.6556ZM27.3102 26.9862L26.8837 26.7253L26.7956 26.8693L27.2222 27.1302L27.6487 27.3911L27.7368 27.2471L27.3102 26.9862ZM27.2222 27.1302L26.7602 27.3214L26.851 27.5409L27.313 27.3496L27.775 27.1584L27.6841 26.9389L27.2222 27.1302ZM27.313 27.3496L26.8855 27.6089L27.0519 27.8833L27.4794 27.624L27.9069 27.3647L27.7405 27.0903L27.313 27.3496ZM27.4794 27.624L27.0832 27.929L27.2649 28.1649L27.6611 27.8599L28.0573 27.5549L27.8756 27.319L27.4794 27.624ZM27.6611 27.8599L27.3049 28.2108L27.5333 28.4426L27.8894 28.0917L28.2456 27.7408L28.0172 27.509L27.6611 27.8599ZM27.8894 28.0917L27.5757 28.481L28.042 28.8569L28.3558 28.4675L28.6695 28.0782L28.2032 27.7024L27.8894 28.0917ZM28.3558 28.4675L28.0621 28.8722L28.4665 29.1658L28.7602 28.7611L29.0539 28.3565L28.6495 28.0629L28.3558 28.4675ZM28.7602 28.7611L28.347 29.0426L28.5685 29.3677L28.9817 29.0862L29.3949 28.8046L29.1734 28.4796L28.7602 28.7611ZM28.9817 29.0862L28.5464 29.3321L28.6688 29.5488L29.1042 29.3029L29.5395 29.057L29.4171 28.8403L28.9817 29.0862ZM29.1042 29.3029L28.6242 29.1628L28.5485 29.4221L29.0285 29.5621L29.5085 29.7022L29.5842 29.443L29.1042 29.3029ZM29.0285 29.5621L28.5999 29.3046L28.4293 29.5885L28.8579 29.8461L29.2865 30.1036L29.4571 29.8197L29.0285 29.5621ZM28.8579 29.8461L28.4187 29.6071L28.2866 29.8499L28.7258 30.0889L29.165 30.3278L29.2971 30.085L28.8579 29.8461ZM28.7258 30.0889L28.4616 29.6644L28.2346 29.8057L28.4989 30.2301L28.7631 30.6546L28.9901 30.5133L28.7258 30.0889ZM28.4989 30.2301L28.0314 30.0527L27.9695 30.2159L28.4369 30.3933L28.9043 30.5708L28.9663 30.4076L28.4989 30.2301ZM28.4369 30.3933L27.9678 30.5664L28.0614 30.8202L28.5305 30.6471L28.9996 30.4741L28.906 30.2203L28.4369 30.3933ZM28.5305 30.6471L28.0732 30.8493L28.1502 31.0235L28.6075 30.8213L29.0648 30.6192L28.9878 30.445L28.5305 30.6471ZM28.6075 30.8213L28.1163 30.7279L28.0751 30.9446L28.5663 31.038L29.0575 31.1315L29.0987 30.9148L28.6075 30.8213ZM28.5663 31.038L28.0668 31.0612L28.0874 31.5043L28.5869 31.4811L29.0863 31.4579L29.0657 31.0148L28.5663 31.038ZM28.5869 31.4811L28.284 31.0832L28.0749 31.2424L28.3778 31.6402L28.6806 32.0381L28.8897 31.8789L28.5869 31.4811ZM28.3778 31.6402L27.9278 31.4222L27.7324 31.8254L28.1824 32.0435L28.6324 32.2615L28.8277 31.8583L28.3778 31.6402ZM28.1824 32.0435L28.0721 31.5558L27.9387 31.586L28.049 32.0736L28.1593 32.5613L28.2927 32.5311L28.1824 32.0435ZM28.049 32.0736L28.2486 31.6152L27.9116 31.4685L27.7119 31.9269L27.5123 32.3853L27.8494 32.5321L28.049 32.0736ZM27.7119 31.9269L27.4297 31.5142L27.3114 31.5951L27.5936 32.0078L27.8759 32.4205L27.9942 32.3396L27.7119 31.9269ZM27.5936 32.0078L27.19 31.7127L26.9754 32.0063L27.379 32.3014L27.7826 32.5965L27.9973 32.3029L27.5936 32.0078ZM27.379 32.3014L27.0543 31.9212L26.6801 32.2408L27.0049 32.621L27.3296 33.0011L27.7038 32.6815L27.379 32.3014ZM27.0049 32.621L26.9936 32.1211L26.812 32.1252L26.8232 32.6251L26.8345 33.1249L27.0162 33.1208L27.0049 32.621ZM26.8232 32.6251L26.97 32.1471L26.8448 32.1087L26.6981 32.5866L26.5513 33.0646L26.6765 33.1031L26.8232 32.6251ZM26.6981 32.5866L26.3573 32.2207L26.2115 32.3565L26.5522 32.7224L26.8929 33.0884L27.0388 32.9526L26.6981 32.5866ZM26.5522 32.7224L26.1671 32.4035L25.9581 32.6559L26.3431 32.9748L26.7282 33.2938L26.9373 33.0414L26.5522 32.7224ZM26.3431 32.9748L26.3858 32.4767L26.2895 32.4684L26.2468 32.9666L26.2042 33.4648L26.3005 33.473L26.3431 32.9748ZM26.2468 32.9666L26.1679 32.4729L25.8075 32.5305L25.8864 33.0242L25.9654 33.5179L26.3257 33.4603L26.2468 32.9666ZM25.8864 33.0242L26.1361 32.591L25.9957 32.5101L25.746 32.9433L25.4964 33.3765L25.6368 33.4574L25.8864 33.0242ZM25.746 32.9433L26.1283 32.621L25.9536 32.4138L25.5714 32.7362L25.1892 33.0585L25.3638 33.2656L25.746 32.9433ZM25.5714 32.7362L25.872 32.3366L25.5913 32.1254L25.2907 32.5249L24.9901 32.9245L25.2708 33.1357L25.5714 32.7362ZM25.2907 32.5249L25.5447 32.0943L25.2889 31.9434L25.0349 32.374L24.7808 32.8047L25.0367 32.9556L25.2907 32.5249ZM25.0349 32.374L25.3336 31.9731L25.1974 31.8716L24.8987 32.2726L24.5999 32.6735L24.7361 32.775L25.0349 32.374ZM24.8987 32.2726L25.3043 31.9803L25.1778 31.8047L24.7721 32.097L24.3665 32.3893L24.493 32.5649L24.8987 32.2726ZM24.7721 32.097L25.1251 31.7428L25.0109 31.629L24.6579 31.9831L24.305 32.3373L24.4192 32.4511L24.7721 32.097ZM24.6579 31.9831L24.2767 31.6596L24.0649 31.9092L24.4461 32.2328L24.8273 32.5563L25.0392 32.3067L24.6579 31.9831ZM24.4461 32.2328L24.1663 31.8183L23.8128 32.057L24.0925 32.4714L24.3723 32.8859L24.7258 32.6472L24.4461 32.2328ZM24.0925 32.4714L24.159 31.9759L23.822 31.9306L23.7555 32.4262L23.6889 32.9217L24.026 32.967L24.0925 32.4714ZM23.7555 32.4262L23.8727 31.9401L23.7076 31.9003L23.5904 32.3864L23.4732 32.8724L23.6383 32.9123L23.7555 32.4262ZM23.5904 32.3864L23.1231 32.2085L22.991 32.5556L23.4583 32.7334L23.9256 32.9113L24.0577 32.5642L23.5904 32.3864ZM23.4583 32.7334L23.1898 32.3117L23.0907 32.3748L23.3592 32.7965L23.6278 33.2183L23.7269 33.1552L23.4583 32.7334ZM23.3592 32.7965L23.3096 32.299L22.7043 32.3594L22.7539 32.8569L22.8035 33.3544L23.4089 33.2941L23.3592 32.7965ZM22.7539 32.8569L22.5375 32.4062L22.4233 32.461L22.6397 32.9117L22.8562 33.3624L22.9704 33.3076L22.7539 32.8569ZM22.6397 32.9117L22.162 33.0591L22.2597 33.376L22.7375 33.2286L23.2153 33.0812L23.1175 32.7644L22.6397 32.9117ZM22.7375 33.2286L22.3215 33.506L22.6791 34.0423L23.0951 33.7649L23.5111 33.4875L23.1535 32.9512L22.7375 33.2286ZM23.0951 33.7649L22.623 33.9298L22.7304 34.237L23.2024 34.0722L23.6744 33.9073L23.5671 33.6001L23.0951 33.7649ZM23.2024 34.0722L22.745 33.8702L22.5221 34.375L22.9795 34.577L23.437 34.7789L23.6598 34.2741L23.2024 34.0722ZM22.9795 34.577L22.9905 34.0771L22.3632 34.0633L22.3522 34.5632L22.3413 35.0631L22.9686 35.0768L22.9795 34.577ZM22.3522 34.5632L22.6466 34.159L22.366 33.9547L22.0716 34.3589L21.7773 34.763L22.0579 34.9674L22.3522 34.5632ZM22.0716 34.3589L22.4411 34.022L22.1797 33.7353L21.8102 34.0722L21.4408 34.409L21.7021 34.6957L22.0716 34.3589ZM21.8102 34.0722L22.2271 33.7961L22.1336 33.6549L21.7167 33.9309L21.2998 34.2069L21.3933 34.3482L21.8102 34.0722ZM21.7167 33.9309L21.8819 33.459L21.0784 33.1778L20.9132 33.6497L20.7481 34.1217L21.5516 34.4028L21.7167 33.9309ZM20.9132 33.6497L20.7441 33.1792L20.2062 33.3726L20.3754 33.8431L20.5445 34.3136L21.0824 34.1202L20.9132 33.6497ZM20.3754 33.8431L20.4046 33.344L20.2409 33.3344L20.2117 33.8335L20.1825 34.3327L20.3461 34.3423L20.3754 33.8431ZM20.2117 33.8335L20.5279 33.4462L20.2775 33.2418L19.9613 33.6291L19.6451 34.0164L19.8955 34.2208L20.2117 33.8335ZM19.9613 33.6291L20.3159 33.2766L20.1632 33.123L19.8086 33.4755L19.454 33.828L19.6067 33.9816L19.9613 33.6291ZM19.8086 33.4755L20.2303 33.2068L20.0818 32.9737L19.6601 33.2423L19.2384 33.511L19.3869 33.7441L19.8086 33.4755ZM19.6601 33.2423L20.1311 33.0747L20.0472 32.8387L19.5761 33.0064L19.105 33.174L19.189 33.41L19.6601 33.2423ZM19.5761 33.0064L20.0751 32.9742L20.0682 32.8673L19.5692 32.8994L19.0702 32.9315L19.0771 33.0385L19.5761 33.0064ZM19.5692 32.8994L19.7419 33.3687L19.973 33.2836L19.8004 32.8144L19.6277 32.3451L19.3965 32.4302L19.5692 32.8994ZM19.8004 32.8144L20.0267 33.2602L20.4077 33.0668L20.1814 32.621L19.9551 32.1751L19.5741 32.3685L19.8004 32.8144ZM20.1814 32.621L20.4673 33.0311L20.7783 32.8144L20.4923 32.4042L20.2064 31.994L19.8955 32.2108L20.1814 32.621ZM20.4923 32.4042L20.8659 32.7365L21.0709 32.5061L20.6973 32.1738L20.3237 31.8415L20.1187 32.0719L20.4923 32.4042ZM20.6973 32.1738L21.1701 32.3364L21.2526 32.0963L20.7798 31.9338L20.307 31.7712L20.2245 32.0112L20.6973 32.1738ZM20.7798 31.9338L21.2794 31.9535L21.2904 31.675L20.7908 31.6553L20.2912 31.6356L20.2802 31.914L20.7798 31.9338ZM20.7908 31.6553L21.287 31.7168L21.3764 30.9953L20.8802 30.9338L20.384 30.8723L20.2946 31.5938L20.7908 31.6553ZM20.8802 30.9338L21.3643 31.059L21.4552 30.7079L20.9711 30.5826L20.487 30.4574L20.3962 30.8086L20.8802 30.9338ZM20.9711 30.5826L21.4677 30.5242L21.4167 30.0908L20.9201 30.1492L20.4235 30.2076L20.4745 30.641L20.9711 30.5826ZM20.9201 30.1492L21.3693 29.9295L21.2028 29.5893L20.7537 29.809L20.3046 30.0287L20.471 30.3689L20.9201 30.1492ZM20.7537 29.809H21.2537V29.2974H20.7537H20.2537V29.809H20.7537ZM20.7537 29.2974L21.2396 29.4152L21.3002 29.1656L20.8142 29.0478L20.3283 28.9299L20.2678 29.1796L20.7537 29.2974ZM20.8142 29.0478L21.3074 29.13L21.3349 28.9654L20.8417 28.8832L20.3485 28.8009L20.3211 28.9655L20.8142 29.0478ZM20.8417 28.8832L21.1732 29.2575L21.4071 29.0504L21.0756 28.676L20.7442 28.3017L20.5102 28.5088L20.8417 28.8832ZM21.0756 28.676L21.5154 28.9139L21.6764 28.6162L21.2366 28.3784L20.7968 28.1405L20.6358 28.4382L21.0756 28.676ZM21.2366 28.3784L21.7235 28.4922L21.8142 28.1041L21.3274 27.9902L20.8405 27.8764L20.7497 28.2645L21.2366 28.3784ZM21.3274 27.9902L21.8271 28.0049L21.8354 27.7251L21.3356 27.7104L20.8358 27.6957L20.8276 27.9755L21.3274 27.9902ZM21.3356 27.7104L21.7963 27.5161L21.7234 27.3433L21.2627 27.5375L20.802 27.7318L20.8749 27.9046L21.3356 27.7104ZM21.2627 27.5375L21.5527 27.1302L21.3216 26.9656L21.0315 27.3729L20.7415 27.7802L20.9727 27.9448L21.2627 27.5375ZM21.0315 27.3729L21.2176 26.9089L20.8311 26.7539L20.6451 27.218L20.459 27.6821L20.8455 27.837L21.0315 27.3729ZM20.6451 27.218L20.9589 26.8288L20.714 26.6312L20.4001 27.0204L20.0862 27.4096L20.3312 27.6072L20.6451 27.218ZM20.4001 27.0204L20.8616 26.8279L20.7626 26.5906L20.3011 26.7831L19.8397 26.9756L19.9387 27.2129L20.4001 27.0204ZM20.3011 26.7831L20.8006 26.8061L20.8102 26.5976L20.3107 26.5746L19.8112 26.5517L19.8017 26.7602L20.3011 26.7831ZM20.3107 26.5746L20.7293 26.8482L20.8476 26.6671L20.429 26.3936L20.0105 26.1201L19.8921 26.3011L20.3107 26.5746ZM20.429 26.3936L20.7121 25.9814L20.4204 25.7812L20.1374 26.1933L19.8543 26.6055L20.146 26.8058L20.429 26.3936ZM20.1374 26.1933L20.2873 25.7163L19.5843 25.4955L19.4344 25.9725L19.2846 26.4495L19.9875 26.6703L20.1374 26.1933ZM19.4344 25.9725L19.7152 25.5588L19.3231 25.2927L19.0423 25.7064L18.7615 26.1201L19.1537 26.3862L19.4344 25.9725ZM19.0423 25.7064L19.5255 25.5777L19.4429 25.2677L18.9598 25.3964L18.4766 25.5251L18.5592 25.835L19.0423 25.7064ZM18.9598 25.3964L19.3652 25.1038L19.0722 24.6978L18.6667 24.9904L18.2613 25.283L18.5543 25.689L18.9598 25.3964ZM18.6667 24.9904L19.0203 24.6368L18.5168 24.1334L18.1633 24.487L17.8097 24.8405L18.3132 25.3439L18.6667 24.9904ZM18.1633 24.487L18.6327 24.3149L18.3672 23.5906L17.8978 23.7627L17.4283 23.9348L17.6938 24.6591L18.1633 24.487ZM17.8978 23.7627L18.3976 23.7482L18.37 22.8017L17.8702 22.8163L17.3705 22.8308L17.398 23.7773L17.8978 23.7627ZM17.8702 22.8163L18.3688 22.8546L18.428 22.0837L17.9294 22.0454L17.4309 22.0071L17.3717 22.778L17.8702 22.8163ZM17.9294 22.0454L18.4149 22.165L18.635 21.2721L18.1495 21.1524L17.664 21.0328L17.444 21.9257L17.9294 22.0454ZM18.1495 21.1524L18.6047 20.9455L18.3103 20.2981L17.8551 20.505L17.4 20.712L17.6944 21.3594L18.1495 21.1524ZM17.8551 20.505L18.2183 20.1613L17.895 19.8198L17.5319 20.1635L17.1687 20.5072L17.492 20.8487L17.8551 20.505ZM17.5319 20.1635L17.7755 19.7269L17.3256 19.4758L17.082 19.9125L16.8383 20.3491L17.2882 20.6001L17.5319 20.1635ZM17.082 19.9125L17.4029 19.5291L16.9737 19.1697L16.6527 19.5531L16.3318 19.9365L16.761 20.2958L17.082 19.9125ZM16.6527 19.5531L17.0302 19.2252L16.6217 18.7548L16.2442 19.0826L15.8667 19.4105L16.2752 19.8809L16.6527 19.5531ZM16.2442 19.0826L16.6535 18.7954L16.1665 18.1014L15.7572 18.3886L15.3479 18.6757L15.8349 19.3698L16.2442 19.0826ZM15.7572 18.3886L16.1822 18.1252L15.6126 17.2061L15.1876 17.4695L14.7626 17.7329L15.3322 18.6519L15.7572 18.3886ZM15.1876 17.4695L15.5539 17.1291L15.1714 16.7176L14.8052 17.058L14.4389 17.3984L14.8214 17.8099L15.1876 17.4695ZM14.8052 17.058L14.5858 16.6087L14.3891 16.7048L14.6085 17.1541L14.8279 17.6034L15.0246 17.5073L14.8052 17.058ZM14.6085 17.1541L14.7113 16.6648L14.3 16.5783L14.1972 17.0676L14.0943 17.5569L14.5057 17.6434L14.6085 17.1541ZM14.1972 17.0676L14.3924 16.6073L13.7651 16.3412L13.5699 16.8015L13.3746 17.2618L14.0019 17.5279L14.1972 17.0676ZM13.5699 16.8015L13.6973 16.318L13.1511 16.174L13.0237 16.6575L12.8962 17.141L13.4424 17.285L13.5699 16.8015ZM13.0237 16.6575L13.0457 16.158L12.578 16.1374L12.556 16.6369L12.534 17.1364L13.0017 17.157L13.0237 16.6575ZM12.556 16.6369L12.4586 16.1465L12.1546 16.2069L12.2519 16.6973L12.3493 17.1877L12.6533 17.1274L12.556 16.6369ZM12.2519 16.6973L11.8972 16.345L11.7569 16.4862L12.1116 16.8386L12.4664 17.1909L12.6067 17.0496L12.2519 16.6973ZM12.1116 16.8386L11.6132 16.7987L11.6021 16.9373L12.1005 16.9771L12.5989 17.017L12.61 16.8784L12.1116 16.8386ZM12.1005 16.9771L11.7221 17.3039L11.8405 17.441L12.2189 17.1143L12.5974 16.7875L12.479 16.6504L12.1005 16.9771ZM12.2189 17.1143L11.7911 16.8554L11.7264 16.9624L12.1542 17.2212L12.582 17.4801L12.6467 17.3731L12.2189 17.1143ZM12.1542 17.2212L12.0045 16.7442L11.7597 16.821L11.9094 17.2981L12.059 17.7751L12.3039 17.6983L12.1542 17.2212ZM11.9094 17.2981L11.605 16.9013L11.4083 17.0522L11.7126 17.449L12.0169 17.8457L12.2137 17.6948L11.9094 17.2981ZM11.7126 17.449L11.2954 17.1734L11.0725 17.5109L11.4898 17.7864L11.907 18.0619L12.1298 17.7245L11.7126 17.449ZM11.4898 17.7864L11.9534 17.9735L11.959 17.9598L11.4953 17.7727L11.0317 17.5855L11.0261 17.5993L11.4898 17.7864ZM11.4953 17.7727L11.0421 17.5614L11.0338 17.5793L11.487 17.7905L11.9402 18.0018L11.9485 17.9839L11.4953 17.7727ZM11.487 17.7905L11.9013 18.0704L11.9041 18.0663L11.4898 17.7864L11.0754 17.5065L11.0727 17.5106L11.487 17.7905ZM11.4898 17.7864L11.0172 17.623L10.8645 18.0647L11.337 18.2281L11.8096 18.3915L11.9623 17.9498L11.4898 17.7864ZM11.337 18.2281L11.0418 17.8245L10.8093 17.9946L11.1045 18.3981L11.3997 18.8017L11.6322 18.6316L11.337 18.2281ZM11.1045 18.3981L11.053 17.9008L10.6954 17.9378L10.7469 18.4352L10.7985 18.9325L11.1561 18.8955L11.1045 18.3981ZM10.7469 18.4352L10.5777 17.9647L10.2269 18.0909L10.3961 18.5614L10.5654 19.0319L10.9162 18.9057L10.7469 18.4352ZM10.3961 18.5614L10.1335 18.1359L9.78685 18.3498L10.0494 18.7753L10.312 19.2008L10.6587 18.9869L10.3961 18.5614ZM10.0494 18.7753L9.69784 18.4198L9.53277 18.5831L9.88435 18.9386L10.2359 19.2941L10.401 19.1308L10.0494 18.7753ZM9.88435 18.9386L9.39168 19.0239L9.4109 19.135L9.90358 19.0497L10.3963 18.9644L10.377 18.8533L9.88435 18.9386ZM9.90358 19.0497L9.74841 18.5744L9.67276 18.5991L9.82793 19.0744L9.9831 19.5497L10.0587 19.525L9.90358 19.0497ZM9.82793 19.0744L9.99934 18.6047L9.83014 18.5429L9.65874 19.0126L9.48733 19.4823L9.65652 19.5441L9.82793 19.0744ZM9.65874 19.0126L10.0971 18.7721L10.0173 18.6267L9.57897 18.8673L9.14062 19.1078L9.22038 19.2532L9.65874 19.0126ZM9.57897 18.8673L10.0785 18.888L10.0881 18.6576L9.58854 18.6368L9.08897 18.6161L9.0794 18.8465L9.57897 18.8673ZM9.58854 18.6368L9.91584 18.2588L9.73842 18.1052L9.41112 18.4832L9.08382 18.8612L9.26124 19.0148L9.58854 18.6368ZM9.41112 18.4832L9.51852 17.9949L9.15672 17.9153L9.04931 18.4036L8.94191 18.892L9.30372 18.9715L9.41112 18.4832ZM9.04931 18.4036L9.30495 17.9739L8.89226 17.7284L8.63662 18.1581L8.38099 18.5878L8.79368 18.8333L9.04931 18.4036ZM8.63662 18.1581L8.96983 17.7853L8.50483 17.3697L8.17162 17.7425L7.83841 18.1153L8.30341 18.5309L8.63662 18.1581ZM8.17162 17.7425L8.45444 17.3302L8.13251 17.1094L7.8497 17.5217L7.56688 17.934L7.8888 18.1548L8.17162 17.7425ZM7.8497 17.5217L7.92502 17.0274L7.74483 16.9999L7.66951 17.4942L7.59418 17.9885L7.77437 18.016L7.8497 17.5217ZM7.66951 17.4942L7.40005 17.073L7.14278 17.2376L7.41223 17.6588L7.68169 18.08L7.93896 17.9154L7.66951 17.4942ZM7.41223 17.6588L7.04956 17.3146L6.71109 17.6713L7.07377 18.0155L7.43645 18.3596L7.77491 18.003L7.41223 17.6588ZM7.07377 18.0155L6.84891 17.5689L6.57107 17.7088L6.79593 18.1554L7.02079 18.6019L7.29863 18.462L7.07377 18.0155ZM6.79593 18.1554L6.95357 17.6809L6.73484 17.6082L6.5772 18.0827L6.41955 18.5572L6.63828 18.6299L6.79593 18.1554ZM6.5772 18.0827L6.28035 17.6803L6.11116 17.8052L6.40801 18.2075L6.70485 18.6099L6.87404 18.485L6.5772 18.0827ZM6.40801 18.2075L5.93819 18.0364L5.8198 18.3615L6.28961 18.5326L6.75943 18.7037L6.87782 18.3786L6.40801 18.2075ZM6.28961 18.5326L5.91089 18.2061L5.69216 18.4599L6.07088 18.7863L6.44961 19.1128L6.66834 18.859L6.28961 18.5326ZM6.07088 18.7863L5.81948 18.3542L5.34079 18.6326L5.5922 19.0648L5.8436 19.497L6.32229 19.2185L6.07088 18.7863ZM5.5922 19.0648L5.23188 18.7181L5.20023 18.751L5.56054 19.0977L5.92086 19.4444L5.95251 19.4115L5.5922 19.0648ZM5.56054 19.0977L5.27828 18.685L4.73074 19.0595L5.013 19.4722L5.29526 19.8849L5.8428 19.5104L5.56054 19.0977ZM5.013 19.4722L4.68707 19.093L4.24826 19.4702L4.5742 19.8494L4.90013 20.2285L5.33893 19.8513L5.013 19.4722ZM4.5742 19.8494L4.22214 19.4943L3.71171 20.0005L4.06377 20.3555L4.41582 20.7106L4.92625 20.2044L4.5742 19.8494ZM4.06377 20.3555L3.9093 19.88L3.66857 19.9582L3.82304 20.4337L3.97751 20.9092L4.21824 20.8311L4.06377 20.3555ZM3.82304 20.4337L4.05971 19.9933L3.82998 19.8698L3.59331 20.3103L3.35664 20.7507L3.58637 20.8741L3.82304 20.4337ZM3.59331 20.3103L3.76103 19.8392L3.41433 19.7158L3.24662 20.1868L3.0789 20.6578L3.42559 20.7813L3.59331 20.3103ZM3.24662 20.1868L3.58851 19.822L3.40555 19.6505L3.06365 20.0154L2.72176 20.3802L2.90472 20.5516L3.24662 20.1868ZM3.06365 20.0154L3.52666 20.2041L3.87613 19.3468L3.41312 19.1581L2.95011 18.9693L2.60065 19.8266L3.06365 20.0154ZM3.41312 19.1581L3.86658 19.3687L4.30815 18.4182L3.85469 18.2075L3.40124 17.9969L2.95966 18.9474L3.41312 19.1581ZM3.85469 18.2075L4.33747 18.3376L4.45577 17.8987L3.973 17.7686L3.49023 17.6384L3.37192 18.0774L3.85469 18.2075ZM3.973 17.7686L4.47223 17.7964L4.49011 17.4754L3.99089 17.4476L3.49166 17.4198L3.47378 17.7408L3.973 17.7686ZM3.99089 17.4476L4.48432 17.3668L4.44167 17.1062L3.94823 17.187L3.4548 17.2677L3.49745 17.5283L3.99089 17.4476ZM3.94823 17.187L4.37034 16.919L4.19704 16.646L3.77493 16.914L3.35282 17.182L3.52612 17.455L3.94823 17.187ZM3.77493 16.914L4.17132 16.6092L4.00893 16.398L3.61254 16.7028L3.21614 17.0075L3.37853 17.2187L3.77493 16.914ZM3.61254 16.7028L4.1097 16.6496L4.09459 16.5083L3.59742 16.5615L3.10026 16.6147L3.11537 16.756L3.61254 16.7028ZM3.59742 16.5615L4.06889 16.728L4.1212 16.5798L3.64973 16.4134L3.17826 16.2469L3.12595 16.395L3.59742 16.5615ZM3.64973 16.4134L4.03953 16.7265L4.21695 16.5056L3.82715 16.1925L3.43736 15.8794L3.25994 16.1002L3.64973 16.4134ZM3.82715 16.1925L4.2433 16.4697L4.47169 16.1267L4.05554 15.8496L3.63939 15.5724L3.411 15.9153L3.82715 16.1925ZM4.05554 15.8496L4.53431 15.9937L4.74616 15.2901L4.26739 15.1459L3.78861 15.0018L3.57677 15.7054L4.05554 15.8496ZM4.26739 15.1459L4.74062 15.3073L4.99512 14.5612L4.52189 14.3998L4.04866 14.2384L3.79416 14.9845L4.26739 15.1459ZM4.52189 14.3998L5.02114 14.3724L4.99637 13.9198L4.49712 13.9471L3.99786 13.9744L4.02263 14.4271L4.52189 14.3998ZM4.49712 13.9471L4.95929 13.7563L4.75433 13.2598L4.29216 13.4506L3.82998 13.6413L4.03494 14.1379L4.49712 13.9471ZM4.29216 13.4506L4.77844 13.3342L4.66559 12.8624L4.17931 12.9787L3.69302 13.095L3.80587 13.5669L4.29216 13.4506ZM4.17931 12.9787L4.67454 13.0475L4.76397 12.4042L4.26873 12.3354L3.77349 12.2666L3.68407 12.9099L4.17931 12.9787ZM4.26873 12.3354L4.76446 12.2702L4.73147 12.0192L4.23573 12.0844L3.74 12.1495L3.77299 12.4006L4.26873 12.3354ZM4.23573 12.0844L4.4832 11.6499L4.2617 11.5237L4.01423 11.9582L3.76676 12.3927L3.98826 12.5188L4.23573 12.0844ZM4.01423 11.9582L4.10074 11.4657L3.37444 11.3382L3.28793 11.8306L3.20142 12.3231L3.92772 12.4507L4.01423 11.9582ZM3.28793 11.8306L3.24125 11.3328L3.00732 11.3547L3.054 11.8525L3.10068 12.3504L3.3346 12.3284L3.28793 11.8306ZM3.054 11.8525L2.85014 11.396L2.66583 11.4783L2.86969 11.9348L3.07356 12.3914L3.25786 12.3091L3.054 11.8525ZM2.86969 11.9348L2.53934 11.5595L2.33983 11.7351L2.67019 12.1104L3.00055 12.4858L3.20005 12.3102L2.86969 11.9348ZM2.67019 12.1104L2.46379 11.655L2.22171 11.7648L2.42812 12.2202L2.63452 12.6756L2.8766 12.5659L2.67019 12.1104ZM2.42812 12.2202L2.36114 11.7247L1.90437 11.7864L1.97135 12.2819L2.03832 12.7774L2.4951 12.7157L2.42812 12.2202ZM1.97135 12.2819L2.19671 11.8356L1.76479 11.6175L1.53943 12.0638L1.31406 12.5101L1.74598 12.7282L1.97135 12.2819ZM1.53943 12.0638L1.89709 11.7144L1.53528 11.344L1.17762 11.6934L0.819952 12.0428L1.18176 12.4132L1.53943 12.0638ZM1.17762 11.6934L1.66868 11.5993L1.58195 11.1467L1.09088 11.2408L0.599817 11.3349L0.686553 11.7875L1.17762 11.6934ZM1.09088 11.2408L1.53965 11.4613L1.80515 10.9208L1.35638 10.7004L0.907608 10.4799L0.642109 11.0203L1.09088 11.2408ZM1.35638 10.7004L1.81663 10.8957L2.00237 10.4582L1.54211 10.2628L1.08186 10.0674L0.896128 10.505L1.35638 10.7004ZM1.54211 10.2628L2.02195 10.4033L2.13203 10.0275L1.65219 9.88697L1.17235 9.74643L1.06227 10.1222L1.54211 10.2628ZM1.65219 9.88697L2.151 9.85245L2.13866 9.67413L1.63985 9.70865L1.14104 9.74318L1.15339 9.9215L1.65219 9.88697ZM1.63985 9.70865L2.10146 9.51652L2.02438 9.33133L1.56277 9.52346L1.10116 9.7156L1.17824 9.90079L1.63985 9.70865ZM1.56277 9.52346L1.67929 9.03723L1.57064 9.01119L1.45412 9.49743L1.3376 9.98366L1.44625 10.0097L1.56277 9.52346ZM1.45412 9.49743L1.80712 9.14332L1.57596 8.91288L1.22296 9.26699L0.869957 9.62109L1.10111 9.85153L1.45412 9.49743ZM1.22296 9.26699L1.66002 9.02414L1.43441 8.61809L0.997344 8.86095L0.560282 9.1038L0.785898 9.50984L1.22296 9.26699ZM0.997344 8.86095L1.32534 8.48356L1.11072 8.29703L0.782728 8.67442L0.454734 9.0518L0.66935 9.23833L0.997344 8.86095ZM0.782728 8.67442L0.698012 8.18165L0.498594 8.21593L0.583309 8.7087L0.668025 9.20147L0.867443 9.16719L0.782728 8.67442ZM0.583309 8.7087L0.262936 8.32483L0.077204 8.47983L0.397577 8.86371L0.717951 9.24759L0.903683 9.09258L0.583309 8.7087ZM0.397577 8.86371L-0.0268085 8.59933L-0.195999 8.87092L0.228387 9.1353L0.652772 9.39968L0.821963 9.12809L0.397577 8.86371ZM0.228387 9.1353L-0.0937684 8.75291L-0.227274 8.86539L0.0948812 9.24777L0.417036 9.63016L0.550542 9.51768L0.228387 9.1353ZM0.0948812 9.24777L0.330649 8.80685L0.235768 8.75612L0 9.19704L-0.235768 9.63796L-0.140886 9.6887L0.0948812 9.24777ZM0 9.19704L0.49642 9.25677L0.525304 9.0167L0.0288842 8.95697L-0.467536 8.89725L-0.49642 9.13731L0 9.19704ZM0.0288842 8.95697L0.525266 9.01702L0.552806 8.78934L0.0564249 8.7293L-0.439957 8.66925L-0.467497 8.89693L0.0288842 8.95697ZM0.0564249 8.7293L0.543062 8.84412L0.752137 7.95803L0.265499 7.84321L-0.221138 7.72838L-0.430212 8.61447L0.0564249 8.7293ZM0.265499 7.84321L0.723255 8.04435L0.976411 7.46823L0.518656 7.26709L0.0609001 7.06594L-0.192256 7.64206L0.265499 7.84321ZM0.518656 7.26709L0.85317 7.63871L1.15032 7.37122L0.81581 6.9996L0.481296 6.62799L0.184142 6.89547L0.518656 7.26709ZM0.81581 6.9996L0.986441 7.46959L1.30005 7.35573L1.12942 6.88575L0.958791 6.41576L0.645179 6.52962L0.81581 6.9996ZM1.12942 6.88575L1.06554 7.38165L1.39569 7.42418L1.45957 6.92827L1.52346 6.43237L1.1933 6.38984L1.12942 6.88575ZM1.45957 6.92827L1.54659 7.42065L1.82586 7.37129L1.73884 6.87892L1.65183 6.38655L1.37256 6.4359L1.45957 6.92827ZM1.73884 6.87892L2.00656 7.30121L2.22941 7.15993L1.96169 6.73764L1.69397 6.31536L1.47113 6.45663L1.73884 6.87892ZM1.96169 6.73764L2.44629 6.61451L2.42572 6.53355L1.94112 6.65669L1.45652 6.77983L1.47709 6.86078L1.96169 6.73764ZM1.94112 6.65669L1.9799 6.15819L1.71575 6.13764L1.67696 6.63613L1.63818 7.13463L1.90233 7.15518L1.94112 6.65669ZM1.67696 6.63613L2.08855 6.35224L1.98258 6.19861L1.571 6.48251L1.15941 6.7664L1.26538 6.92003L1.67696 6.63613ZM1.571 6.48251L2.06176 6.57819L2.11818 6.28877L1.62742 6.19309L1.13666 6.09741L1.08024 6.38683L1.571 6.48251ZM1.62742 6.19309L2.05338 6.45493L2.16891 6.26698L1.74296 6.00514L1.317 5.7433L1.20147 5.93125L1.62742 6.19309ZM1.74296 6.00514L1.95775 6.45665L2.13937 6.37025L1.92458 5.91874L1.70978 5.46723L1.52817 5.55363L1.74296 6.00514ZM1.92458 5.91874L2.35228 6.17771L2.52836 5.88691L2.10065 5.62794L1.67294 5.36897L1.49687 5.65977L1.92458 5.91874ZM2.10065 5.62794L2.57407 5.7888L2.74326 5.29088L2.26984 5.13001L1.79643 4.96915L1.62724 5.46708L2.10065 5.62794ZM2.26984 5.13001L2.65503 5.44881L2.86276 5.19782L2.47757 4.87902L2.09239 4.56023L1.88466 4.81122L2.26984 5.13001ZM2.47757 4.87902L2.49174 5.37882L2.7339 5.37196L2.71973 4.87216L2.70556 4.37236L2.46341 4.37922L2.47757 4.87902ZM2.71973 4.87216L2.94692 5.31756L3.36373 5.10495L3.13654 4.65955L2.90934 4.21415L2.49254 4.42676L2.71973 4.87216ZM3.13654 4.65955L3.42695 5.06657L4.01714 4.64546L3.72673 4.23844L3.43632 3.83143L2.84613 4.25254L3.13654 4.65955ZM3.72673 4.23844L4.16352 4.48178L4.39048 4.0744L3.95369 3.83106L3.5169 3.58772L3.28994 3.9951L3.72673 4.23844ZM3.95369 3.83106L3.63279 4.2145L3.85572 4.40107L4.17662 4.01763L4.49752 3.63419L4.27459 3.44762L3.95369 3.83106ZM4.17662 4.01763L3.68435 3.93003L3.60039 4.40188L4.09265 4.48947L4.58492 4.57707L4.66889 4.10523L4.17662 4.01763ZM4.09265 4.48947L3.77011 4.87153L3.88707 4.97027L4.20962 4.58822L4.53217 4.20617L4.4152 4.10742L4.09265 4.48947ZM4.20962 4.58822L3.73423 4.74317L3.78923 4.9119L4.26462 4.75696L4.74 4.60201L4.685 4.43328L4.20962 4.58822ZM4.26462 4.75696L3.76788 4.69994L3.73765 4.96328L4.23439 5.0203L4.73113 5.07732L4.76135 4.81398L4.26462 4.75696ZM4.23439 5.0203L3.74623 5.12847L3.79577 5.35204L4.28393 5.24387L4.77209 5.13571L4.72255 4.91213L4.23439 5.0203ZM4.28393 5.24387L3.90061 5.56491L3.99137 5.67329L4.37469 5.35225L4.75801 5.03121L4.66725 4.92283L4.28393 5.24387ZM4.37469 5.35225L4.17762 5.81177L4.30559 5.86665L4.50266 5.40713L4.69973 4.9476L4.57176 4.89272L4.37469 5.35225ZM4.50266 5.40713L4.64933 5.88513L5.27521 5.69308L5.12854 5.21507L4.98186 4.73707L4.35598 4.92913L4.50266 5.40713ZM5.12854 5.21507L5.14648 5.71475L5.52894 5.70102L5.511 5.20134L5.49306 4.70167L5.1106 4.7154L5.12854 5.21507ZM5.511 5.20134L5.20249 5.59482L5.36345 5.72102L5.67196 5.32755L5.98048 4.93408L5.81951 4.80787L5.511 5.20134ZM5.67196 5.32755L5.4339 5.76724L5.57832 5.84544L5.81638 5.40575L6.05445 4.96606L5.91003 4.88786L5.67196 5.32755ZM5.81638 5.40575L5.65869 5.88023L5.8403 5.94059L5.998 5.46611L6.1557 4.99163L5.97408 4.93127L5.81638 5.40575ZM5.998 5.46611L5.74821 5.89924L5.88852 5.98016L6.13831 5.54702L6.3881 5.11389L6.24779 5.03297L5.998 5.46611ZM6.13831 5.54702L6.27829 6.02703L6.36772 6.00095L6.22773 5.52094L6.08775 5.04094L5.99832 5.06702L6.13831 5.54702ZM6.22773 5.52094L6.56506 5.89001L6.77967 5.69386L6.44235 5.32479L6.10502 4.95572L5.89041 5.15187L6.22773 5.52094ZM6.44235 5.32479L6.67658 5.76653L6.74124 5.73224L6.507 5.29051L6.27276 4.84877L6.20811 4.88305L6.44235 5.32479ZM6.507 5.29051L7.00572 5.32628L7.01261 5.2303L6.51389 5.19452L6.01517 5.15875L6.00828 5.25473L6.507 5.29051ZM6.51389 5.19452L6.89536 4.87129L6.7454 4.69431L6.36392 5.01754L5.98245 5.34077L6.13241 5.51775L6.51389 5.19452ZM6.36392 5.01754L6.7089 4.65561L6.55348 4.50747L6.2085 4.8694L5.86353 5.23132L6.01895 5.37946L6.36392 5.01754ZM6.2085 4.8694L6.70844 4.87768L6.71389 4.5485L6.21396 4.54021L5.71403 4.53192L5.70857 4.86111L6.2085 4.8694ZM6.21396 4.54021L6.70992 4.60363L6.78289 4.03304L6.28693 3.96962L5.79097 3.90619L5.718 4.47679L6.21396 4.54021ZM6.28693 3.96962L6.78628 3.99509L6.80139 3.6988L6.30204 3.67333L5.80269 3.64786L5.78758 3.94414L6.28693 3.96962ZM6.30204 3.67333L6.80195 3.66363L6.78818 2.95448L6.28827 2.96418L5.78837 2.97389L5.80214 3.68304L6.30204 3.67333ZM6.28827 2.96418L6.78361 2.89606L6.75607 2.6958L6.26073 2.76393L5.76539 2.83205L5.79293 3.03231L6.28827 2.96418ZM6.26073 2.76393L6.68551 2.50018L6.54243 2.26974L6.11765 2.53349L5.69287 2.79723L5.83595 3.02767L6.26073 2.76393ZM6.11765 2.53349L6.50023 2.21156L6.12742 1.76852L5.74485 2.09044L5.36227 2.41237L5.73508 2.85541L6.11765 2.53349ZM5.74485 2.09044L6.21117 1.91006L6.10664 1.63981L5.64031 1.82019L5.17398 2.00058L5.27852 2.27083L5.74485 2.09044ZM5.64031 1.82019L6.12821 1.71088L6.06767 1.44067L5.57977 1.54999L5.09186 1.6593L5.1524 1.92951L5.64031 1.82019ZM5.57977 1.54999L6.07951 1.56614L6.08505 1.39468L5.58531 1.37853L5.08557 1.36238L5.08003 1.53384L5.57977 1.54999ZM5.58531 1.37853L6.03534 1.16065L5.94038 0.964499L5.49035 1.18237L5.04031 1.40025L5.13528 1.59641L5.58531 1.37853ZM5.49035 1.18237L5.97381 1.05487L5.9257 0.872441L5.44223 0.999949L4.95876 1.12746L5.00688 1.30988L5.49035 1.18237ZM5.44223 0.999949L5.68667 1.43613L5.85309 1.34286L5.60865 0.906686L5.36421 0.470509L5.19779 0.563773L5.44223 0.999949ZM5.60865 0.906686L5.96981 1.25247L6.17208 1.0412L5.81093 0.695419L5.44977 0.349636L5.2475 0.560903L5.60865 0.906686ZM5.81093 0.695419L6.28773 0.845958L6.38949 0.523637L5.91269 0.373097L5.43589 0.222558L5.33413 0.544879L5.81093 0.695419ZM5.91269 0.373097L6.37561 0.562069L6.47192 0.326146L6.009 0.137175L5.54609 -0.0517967L5.44978 0.184126L5.91269 0.373097ZM6.009 0.137175L6.29945 0.544165L6.43975 0.444036L6.14931 0.037046L5.85886 -0.369944L5.71855 -0.269815L6.009 0.137175ZM6.14931 0.037046L6.2956 0.515167L6.41668 0.478121L6.27039 0L6.1241 -0.478121L6.00302 -0.441075L6.14931 0.037046ZM6.27039 0L6.14745 0.484652L6.22865 0.505247L6.35158 0.0205951L6.47451 -0.464057L6.39332 -0.484652L6.27039 0ZM6.35158 0.0205951L5.95137 0.320319L6.26776 0.742769L6.66796 0.443045L7.06817 0.143321L6.75179 -0.279129L6.35158 0.0205951ZM6.66796 0.443045L6.90128 0.885269L7.30163 0.674044L7.06831 0.23182L6.83499 -0.210404L6.43464 0.000821035L6.66796 0.443045ZM7.06831 0.23182L7.06603 0.731815L7.36864 0.733196L7.37092 0.233202L7.37321 -0.266793L7.07059 -0.268175L7.06831 0.23182ZM7.37092 0.233202L7.17449 0.692998L7.43453 0.804094L7.63097 0.344298L7.8274 -0.115499L7.56736 -0.226595L7.37092 0.233202ZM7.63097 0.344298L7.27971 0.700133L7.41867 0.837308L7.76993 0.481473L8.12119 0.125637L7.98222 -0.0115378L7.63097 0.344298Z" fill="var(--stroke-0, white)" mask="url(#path-1-inside-1_0_126)"/>
</g>
</svg>
