<svg preserveAspectRatio="none" width="100%" height="100%" overflow="visible" style="display: block;" viewBox="0 0 6 7" fill="none" xmlns="http://www.w3.org/2000/svg"><path id="LB" d="M5 0L5 0L4 1L4 1L4 1L4 1L4 1L5 1L5 1L5 1L5 1L5 2L5 2L5 3L5 3L5 3L5 3L5 3L5 3L5 3L4 3L4 3L4 3L4 3L4 3L4 4L4 4L4 4L4 4H4L4 4H4L4 4L4 4L4 4L4 4L3 4L3 4L3 4L3 4L3 4L3 4L3 4L3 4L3 4L3 5L3 5L3 5L3 5L3 5L3 5L3 5L3 5L3 5L3 5L3 6L3 6L3 6L3 6L3 6L2 6L2 6L2 6L2 6L2 6L2 6L1 6L1 6L1 7L1 7L1 7L0 7L0 7L0 7L1 7L1 7L1 7L1 6L1 6L1 6L1 6L2 4L2 3L2 3L2 3L2 2L3 1L3 1L3 1L3 1L4 1L4 1L4 1L4 0L4 0H4L4 0L5 0L5 0L5 0L5 0Z" fill="var(--fill-0,#71B219)" stroke="var(--stroke-0,white)" stroke-width="0"/></svg>