<svg preserveAspectRatio="none" width="100%" height="100%" overflow="visible" style="display: block;" viewBox="0 0 5.70085 7.39874" fill="none" xmlns="http://www.w3.org/2000/svg">
<path id="LB" d="M4.78418 0.316406L4.75098 0.359375L4.52246 0.595703L4.42969 0.691406L4.45801 0.821289L4.47168 0.885742L4.50879 1.06152L4.6875 1.08203L4.8291 1.09766L5.06738 1.20312L5.17188 1.29102L5.43262 2.10645L5.2959 2.3916L5.07031 2.66211L5.01758 2.67578L4.97266 2.68652L4.93457 2.71191L4.67188 2.89062L4.64648 2.90723L4.62598 2.92969L4.40625 3.17383L4.38379 3.19922L4.36816 3.22949L4.29199 3.38281L4.25781 3.44922L4.2666 3.52344L4.28027 3.64355L4.22559 3.64062L4.21777 3.63965H4.20898L4.01758 3.6416H3.99902L3.98047 3.64453L3.75879 3.68066L3.69531 3.69043L3.64551 3.72949L3.36133 3.94922L3.34277 3.96387L3.32617 3.98242L3.2002 4.12793L3.19238 4.13672L3.18555 4.14551L3.11816 4.23828L3.09668 4.26855L3.08398 4.30469L2.98242 4.60156L2.94629 4.70703L3.00098 4.80469L3.11523 5.00879L3.15039 5.07129L3.17676 5.08594L3.16113 5.09668L2.98242 5.27539L2.93555 5.32129L2.91797 5.38379L2.89258 5.47363L2.78027 5.57031L2.68555 5.63574L2.66504 5.64941L2.64844 5.66699L2.4502 5.86914L2.27246 6.01562L1.93945 6.23047L1.90137 6.17188L1.69824 6.28223L1.51855 6.37891L1.42188 6.43164L1.39453 6.53809L1.26758 7.04004L1.10059 7.14551L0.794922 7.13086L0.485352 7.07812L0.454102 7.07324L0.424805 7.07422L0.598633 6.6543L0.603516 6.64355L0.606445 6.63184L0.78125 6.05078L1.08789 5.57324L1.10156 5.55273L1.11035 5.5293L1.78027 3.80859L2.16211 3.12207L2.18457 3.08203L2.19141 3.03516L2.32129 2.09375L2.86035 1.31055L3.2627 1.0791L3.29883 1.05859L3.32617 1.02734L3.54492 0.776367L3.6084 0.704102L3.60645 0.608398L3.60449 0.481445L4.02441 0.483398H4.03613L4.4707 0.463867L4.60742 0.458008L4.67578 0.339844L4.70215 0.292969L4.78418 0.316406Z" fill="var(--fill-0, #71B219)" stroke="var(--stroke-0, white)" stroke-width="0.5"/>
</svg>
