<svg preserveAspectRatio="none" width="100%" height="100%" overflow="visible" style="display: block;" viewBox="0 0 0.503259 1.20431" fill="none" xmlns="http://www.w3.org/2000/svg">
<g id="LI">
<mask id="path-1-inside-1_0_156" fill="white">
<path d="M0.386671 1.20431L0.0877543 1.17413L0.0315112 1.17689L0 0.977973L0.0178271 0.554141L0.183753 0L0.219407 0.090543L0.239954 0.207123L0.274227 0.330568L0.293435 0.481431L0.35516 0.636438L0.467605 0.783199L0.503259 0.923137L0.447016 1.10008L0.386671 1.20431Z"/>
</mask>
<path d="M0.386671 1.20431L0.0877543 1.17413L0.0315112 1.17689L0 0.977973L0.0178271 0.554141L0.183753 0L0.219407 0.090543L0.239954 0.207123L0.274227 0.330568L0.293435 0.481431L0.35516 0.636438L0.467605 0.783199L0.503259 0.923137L0.447016 1.10008L0.386671 1.20431Z" fill="var(--fill-0, #71B219)"/>
<path d="M0.386671 1.20431L0.336443 1.70178L0.657637 1.73421L0.819385 1.45483L0.386671 1.20431ZM0.0877543 1.17413L0.137983 0.676658L0.100675 0.672891L0.0632231 0.674731L0.0877543 1.17413ZM0.0315112 1.17689L-0.462331 1.25512L-0.392125 1.6983L0.0560425 1.67629L0.0315112 1.17689ZM0 0.977973L-0.499558 0.956961L-0.501657 1.00687L-0.493842 1.0562L0 0.977973ZM0.0178271 0.554141L-0.461161 0.410719L-0.479103 0.470637L-0.481731 0.533129L0.0178271 0.554141ZM0.183753 0L0.648982 -0.183199L0.11938 -1.52811L-0.295236 -0.143423L0.183753 0ZM0.219407 0.090543L0.711817 0.00375585L0.70308 -0.0458181L0.684636 -0.0926555L0.219407 0.090543ZM0.239954 0.207123L-0.252456 0.29391L-0.248272 0.317653L-0.241822 0.340883L0.239954 0.207123ZM0.274227 0.330568L0.770223 0.267417L0.765663 0.231599L0.756003 0.196808L0.274227 0.330568ZM0.293435 0.481431L-0.202561 0.544581L-0.194551 0.607491L-0.17109 0.666408L0.293435 0.481431ZM0.35516 0.636438L-0.109365 0.821416L-0.0837864 0.885649L-0.0417373 0.940531L0.35516 0.636438ZM0.467605 0.783199L0.952125 0.65975L0.926825 0.560449L0.864502 0.479106L0.467605 0.783199ZM0.503259 0.923137L0.979766 1.0746L1.02309 0.93829L0.987779 0.799688L0.503259 0.923137ZM0.447016 1.10008L0.879729 1.3506L0.907021 1.30345L0.923522 1.25154L0.447016 1.10008ZM0.386671 1.20431L0.4369 0.706839L0.137983 0.676658L0.0877543 1.17413L0.0375258 1.6716L0.336443 1.70178L0.386671 1.20431ZM0.0877543 1.17413L0.0632231 0.674731L0.00697997 0.677493L0.0315112 1.17689L0.0560425 1.67629L0.112286 1.67353L0.0877543 1.17413ZM0.0315112 1.17689L0.525353 1.09866L0.493842 0.899742L0 0.977973L-0.493842 1.0562L-0.462331 1.25512L0.0315112 1.17689ZM0 0.977973L0.499558 0.998985L0.517385 0.575154L0.0178271 0.554141L-0.481731 0.533129L-0.499558 0.956961L0 0.977973ZM0.0178271 0.554141L0.496816 0.697564L0.662741 0.143423L0.183753 0L-0.295236 -0.143423L-0.461161 0.410719L0.0178271 0.554141ZM0.183753 0L-0.281477 0.183199L-0.245823 0.273742L0.219407 0.090543L0.684636 -0.0926555L0.648982 -0.183199L0.183753 0ZM0.219407 0.090543L-0.273004 0.17733L-0.252456 0.29391L0.239954 0.207123L0.732364 0.120336L0.711817 0.00375585L0.219407 0.090543ZM0.239954 0.207123L-0.241822 0.340883L-0.207549 0.464328L0.274227 0.330568L0.756003 0.196808L0.72173 0.0733628L0.239954 0.207123ZM0.274227 0.330568L-0.221769 0.393718L-0.202561 0.544581L0.293435 0.481431L0.789431 0.41828L0.770223 0.267417L0.274227 0.330568ZM0.293435 0.481431L-0.17109 0.666408L-0.109365 0.821416L0.35516 0.636438L0.819685 0.45146L0.75796 0.296453L0.293435 0.481431ZM0.35516 0.636438L-0.0417373 0.940531L0.0707071 1.08729L0.467605 0.783199L0.864502 0.479106L0.752058 0.332345L0.35516 0.636438ZM0.467605 0.783199L-0.0169161 0.906648L0.018738 1.04659L0.503259 0.923137L0.987779 0.799688L0.952125 0.65975L0.467605 0.783199ZM0.503259 0.923137L0.0267518 0.771673L-0.0294913 0.948615L0.447016 1.10008L0.923522 1.25154L0.979766 1.0746L0.503259 0.923137ZM0.447016 1.10008L0.0143021 0.849561L-0.046042 0.953792L0.386671 1.20431L0.819385 1.45483L0.879729 1.3506L0.447016 1.10008Z" fill="var(--stroke-0, white)" mask="url(#path-1-inside-1_0_156)"/>
</g>
</svg>
