<svg preserveAspectRatio="none" width="100%" height="100%" overflow="visible" style="display: block;" viewBox="0 0 8.37389 14.921" fill="none" xmlns="http://www.w3.org/2000/svg">
<path id="LK" d="M1.97656 1.43848L1.99512 1.45215L2.01465 1.46094L2.25293 1.5752L2.33984 1.61719L2.43262 1.58887L2.58887 1.54102H2.78906L3.24023 1.53809L3.2373 1.53418L3.68066 1.90039L4.34375 2.9209L4.39746 3.12012L4.40332 3.14258L4.41309 3.16309L4.51074 3.36914L4.55664 3.46582L4.65723 3.49902L4.79688 3.54492L4.86816 3.5918L5.5293 4.57715L5.58105 4.70703L5.57227 4.88184L5.57031 4.91895L5.5791 4.9541L5.62012 5.125L5.64844 5.24219L5.75879 5.29297L5.94238 5.37793L5.9707 5.39062L6 5.39648L6.15039 5.4248L6.19727 5.47461L6.36719 6.2168V6.50586L6.3916 6.55664L6.44531 6.66797L6.4541 6.68457L6.46387 6.7002L7.32812 7.9668L7.35352 8.04395L7.34863 8.11328L7.3457 8.15527L7.35547 8.19531L7.38184 8.29883L7.39453 8.34668L7.42383 8.38672L7.57715 8.59082L7.83301 9.18359L7.85156 9.22559L7.88379 9.25879L7.97754 9.35547L8.11328 9.80664L8.12305 10.7822L8.06738 11.2031L7.9082 11.7451L7.72266 12.2598L7.5332 12.6133L7.27832 12.9062L6.32324 13.5859L6.06934 13.7129L4.7959 14.1514L4.78613 14.1543L4.77637 14.1582L3.85254 14.5645L3.05859 14.666L2.27539 14.4609L1.70312 13.9844L1.39062 13.2373L1.16309 12.4102L1.15723 12.3926L0.831055 11.4805L0.573242 8.59863V8.59082L0.572266 8.58301L0.448242 7.76855L0.446289 7.75879L0.352539 7.27539L0.489258 7.10547L0.586914 6.9834L0.634766 6.92383L0.641602 6.84863L0.728516 5.87402L0.794922 5.49219L1.14258 4.42285L1.1543 4.38965L1.15527 4.35449L1.16211 4.16211L1.16309 4.13965L1.15918 4.11621L1.10645 3.76465L1.25293 3.85742L1.14062 3.56445L1.58496 2.92383L1.60742 2.8916L1.61914 2.85449L1.75391 2.41113L1.75879 2.39551L1.76172 2.37891L1.83398 1.92578L1.83887 1.89844L1.83691 1.87109L1.80859 1.38184L1.80762 1.36523L1.80371 1.34863L1.7959 1.30762L1.97656 1.43848ZM1.41406 0.270508H1.43359L1.7998 0.260742L1.96289 0.291992L2.15723 0.537109L1.41309 0.400391L1.24316 0.273438L1.23535 0.259766L1.41406 0.270508Z" fill="var(--fill-0, #71B219)" stroke="var(--stroke-0, white)" stroke-width="0.5"/>
</svg>
