<svg preserveAspectRatio="none" width="100%" height="100%" overflow="visible" style="display: block;" viewBox="0 0 8 15" fill="none" xmlns="http://www.w3.org/2000/svg"><path id="LK" d="M2 1L2 2L2 2L2 2L2 2L2 2L3 2H3L3 2L3 2L4 2L4 3L4 3L4 3L4 3L4 3L5 4L5 4L5 4L5 4L6 5L6 5L6 5L6 5L6 5L6 5L6 5L6 5L6 5L6 5L6 5L6 5L6 6L6 6V6L6 7L6 7L6 7L6 7L7 8L7 8L7 8L7 8L7 8L7 8L7 8L7 8L8 9L8 9L8 9L8 9L8 9L8 10L8 11L8 11L8 12L8 12L8 13L7 13L6 14L6 14L5 14L5 14L5 14L4 15L3 15L2 14L2 14L1 13L1 12L1 12L1 12L1 9V9L1 9L0 8L0 8L0 7L0 7L1 7L1 7L1 7L1 6L1 6L1 4L1 4L1 4L1 4L1 4L1 4L1 4L1 4L1 4L2 3L2 3L2 3L2 2L2 2L2 2L2 2L2 2L2 2L2 1L2 1L2 1L2 1L2 1ZM1 0H1L2 0L2 0L2 0L1 0L1 0L1 0L1 0Z" fill="var(--fill-0,#71B219)" stroke="var(--stroke-0,white)" stroke-width="0"/></svg>