<svg preserveAspectRatio="none" width="100%" height="100%" overflow="visible" style="display: block;" viewBox="0 0 16 16" fill="none" xmlns="http://www.w3.org/2000/svg"><g id="LR"><mask id="path-1-inside-1_0_105" fill="white"><path d="M12 4L12 4L12 4L12 4L12 6L12 6L12 6L12 6L12 7L12 7L11 8L11 8L12 8L12 8L12 8L12 8L12 8L12 9L13 9L13 9L13 9L14 9L14 9L14 9L14 10L14 10L14 10L15 10L15 10L15 10L16 10L16 10L16 10L16 11L16 12L16 12L16 12L16 12L16 13L16 13L15 13L15 13L15 14L15 14L15 14L15 15L15 16L15 16L15 16L14 16L12 15L9 13L8 13L7 12L5 10L4 9L4 9L3 9L3 9L2 8L2 8L1 7L0 6L0 6L0 6L1 5L1 5L2 4L2 4L2 4L3 3L3 3L3 2L4 2L4 2L4 2L4 1L5 1L5 0L5 0L5 0L5 0L5 0L6 0L6 0L7 0L7 0L7 0L7 0L7 0L7 0L7 0L7 0L7 0L7 0L8 1L8 1L8 1L8 1L8 2L8 2L8 2L8 2L8 2L8 2L8 3L8 3L8 3L8 4L8 4L8 4L8 4L8 4L8 4L8 4L8 4L9 4L9 5L9 5L9 5L9 5L10 5L10 5L10 5L10 5L10 5L10 5L10 4L11 4L11 4L11 4L11 4L11 3L11 3L11 3L11 3L11 4L12 4L12 4Z"/></mask><path d="M12 4L12 4L12 4L12 4L12 6L12 6L12 6L12 6L12 7L12 7L11 8L11 8L12 8L12 8L12 8L12 8L12 8L12 9L13 9L13 9L13 9L14 9L14 9L14 9L14 10L14 10L14 10L15 10L15 10L15 10L16 10L16 10L16 10L16 11L16 12L16 12L16 12L16 12L16 13L16 13L15 13L15 13L15 14L15 14L15 14L15 15L15 16L15 16L15 16L14 16L12 15L9 13L8 13L7 12L5 10L4 9L4 9L3 9L3 9L2 8L2 8L1 7L0 6L0 6L0 6L1 5L1 5L2 4L2 4L2 4L3 3L3 3L3 2L4 2L4 2L4 2L4 1L5 1L5 0L5 0L5 0L5 0L5 0L6 0L6 0L7 0L7 0L7 0L7 0L7 0L7 0L7 0L7 0L7 0L7 0L8 1L8 1L8 1L8 1L8 2L8 2L8 2L8 2L8 2L8 2L8 3L8 3L8 3L8 4L8 4L8 4L8 4L8 4L8 4L8 4L8 4L9 4L9 5L9 5L9 5L9 5L10 5L10 5L10 5L10 5L10 5L10 5L10 4L11 4L11 4L11 4L11 4L11 3L11 3L11 3L11 3L11 4L12 4L12 4Z" fill="var(--fill-0,#71B219)" stroke="var(--stroke-0,white)" mask="url(#path-1-inside-1_0_105)"/></g></svg>