<svg preserveAspectRatio="none" width="100%" height="100%" overflow="visible" style="display: block;" viewBox="0 0 15.859 16.1143" fill="none" xmlns="http://www.w3.org/2000/svg">
<g id="LR">
<mask id="path-1-inside-1_0_105" fill="white">
<path d="M11.6631 3.78167L11.7388 3.82696L11.8543 3.94492L11.9644 4.34816L12.3964 5.64987L12.3744 6.00928L12.289 6.24382L12.2863 6.47288L12.2574 6.7006L11.9933 7.07093L11.2119 7.83082L11.2724 7.89804L11.4581 7.98444L11.6494 8.02835L11.8048 8.00504L12.0002 8.19433L12.2106 8.43301L12.4335 8.5578L12.7554 8.66617L13.036 8.67852L13.2754 8.63599L13.6125 8.684L13.9715 8.88154L14.0995 9.20662L14.1861 9.49056L14.3099 9.63456L14.3278 9.88011L14.5823 10.0954L14.9469 10.1393L15.4187 10.3917L15.5384 10.378L15.5907 10.3465L15.6485 10.3945L15.7668 11.1242L15.859 11.511L15.8094 11.6687L15.7475 11.7908L15.7434 12.3807L15.5288 12.7181L15.4944 13.0898L15.4353 13.2091L15.2069 13.3161L15.2055 13.6014L15.1436 13.9457L15.1202 14.3106L15.1835 15.268L15.1959 15.9799L15.2991 16.1143L14.8547 16.0553L13.5478 15.5108L12.5422 15.1994L9.17035 13.4163L8.23489 12.7003L7.15358 11.6345L4.753 9.48508L4.20546 9.14078L3.51489 8.97342L3.08842 8.78962L2.78716 8.59074L2.54227 7.99545L1.94108 7.64019L0.833653 7.1354L0 6.29594L0.20496 6.1231L0.504844 5.57034L0.925805 5.03951L1.31788 4.72402L1.62881 4.39893L1.95896 4.15066L2.42946 3.85986L3.15169 3.09583L3.31954 3.00667L3.43508 2.47723L3.61669 1.80374L3.82577 1.59386L4.31693 1.46903L4.43108 1.35245L4.60442 0.876504L4.71723 0.323703L4.72685 0.203021L4.91946 0.18929L5.251 0.0699479L5.44362 0.123445L5.5275 0.282554L5.57154 0.416966L6.57443 0.0713293L6.66246 0L6.71473 0.0123487L6.84131 0.323703L6.91285 0.304489L6.97339 0.215327L7.04077 0.205741L7.1192 0.248271L7.19762 0.392311L7.32554 0.52396L7.54293 0.615885L7.68046 0.740711L7.66535 1.074L7.71762 1.39774L7.81254 1.47179L7.86208 1.66519L7.88685 1.87645L7.93912 1.98755L7.97623 2.20154L7.95701 2.43198L7.99689 2.59243L8.15647 2.87088L8.2555 3.22066L8.25689 3.47031L8.19774 3.73093L8.09181 3.96962L7.90608 4.22885L7.89097 4.3317L8.001 4.39893L8.16885 4.414L8.30916 4.35916L8.66408 4.47985L8.84981 4.64992L9.01355 4.86253L9.16074 4.96952L9.22678 5.1026L9.47851 5.06693L9.77155 4.938L9.83208 4.87626L9.91874 4.9092L10.1072 4.92289L10.2393 4.69107L10.3452 4.42497L10.5722 4.13555L10.6836 4.02445L10.7125 3.84065L10.7249 3.602L10.8074 3.39488L10.9945 3.28102L11.1967 3.2824L11.3068 3.32493L11.3632 3.52519L11.5255 3.67743L11.6631 3.78167Z"/>
</mask>
<path d="M11.6631 3.78167L11.7388 3.82696L11.8543 3.94492L11.9644 4.34816L12.3964 5.64987L12.3744 6.00928L12.289 6.24382L12.2863 6.47288L12.2574 6.7006L11.9933 7.07093L11.2119 7.83082L11.2724 7.89804L11.4581 7.98444L11.6494 8.02835L11.8048 8.00504L12.0002 8.19433L12.2106 8.43301L12.4335 8.5578L12.7554 8.66617L13.036 8.67852L13.2754 8.63599L13.6125 8.684L13.9715 8.88154L14.0995 9.20662L14.1861 9.49056L14.3099 9.63456L14.3278 9.88011L14.5823 10.0954L14.9469 10.1393L15.4187 10.3917L15.5384 10.378L15.5907 10.3465L15.6485 10.3945L15.7668 11.1242L15.859 11.511L15.8094 11.6687L15.7475 11.7908L15.7434 12.3807L15.5288 12.7181L15.4944 13.0898L15.4353 13.2091L15.2069 13.3161L15.2055 13.6014L15.1436 13.9457L15.1202 14.3106L15.1835 15.268L15.1959 15.9799L15.2991 16.1143L14.8547 16.0553L13.5478 15.5108L12.5422 15.1994L9.17035 13.4163L8.23489 12.7003L7.15358 11.6345L4.753 9.48508L4.20546 9.14078L3.51489 8.97342L3.08842 8.78962L2.78716 8.59074L2.54227 7.99545L1.94108 7.64019L0.833653 7.1354L0 6.29594L0.20496 6.1231L0.504844 5.57034L0.925805 5.03951L1.31788 4.72402L1.62881 4.39893L1.95896 4.15066L2.42946 3.85986L3.15169 3.09583L3.31954 3.00667L3.43508 2.47723L3.61669 1.80374L3.82577 1.59386L4.31693 1.46903L4.43108 1.35245L4.60442 0.876504L4.71723 0.323703L4.72685 0.203021L4.91946 0.18929L5.251 0.0699479L5.44362 0.123445L5.5275 0.282554L5.57154 0.416966L6.57443 0.0713293L6.66246 0L6.71473 0.0123487L6.84131 0.323703L6.91285 0.304489L6.97339 0.215327L7.04077 0.205741L7.1192 0.248271L7.19762 0.392311L7.32554 0.52396L7.54293 0.615885L7.68046 0.740711L7.66535 1.074L7.71762 1.39774L7.81254 1.47179L7.86208 1.66519L7.88685 1.87645L7.93912 1.98755L7.97623 2.20154L7.95701 2.43198L7.99689 2.59243L8.15647 2.87088L8.2555 3.22066L8.25689 3.47031L8.19774 3.73093L8.09181 3.96962L7.90608 4.22885L7.89097 4.3317L8.001 4.39893L8.16885 4.414L8.30916 4.35916L8.66408 4.47985L8.84981 4.64992L9.01355 4.86253L9.16074 4.96952L9.22678 5.1026L9.47851 5.06693L9.77155 4.938L9.83208 4.87626L9.91874 4.9092L10.1072 4.92289L10.2393 4.69107L10.3452 4.42497L10.5722 4.13555L10.6836 4.02445L10.7125 3.84065L10.7249 3.602L10.8074 3.39488L10.9945 3.28102L11.1967 3.2824L11.3068 3.32493L11.3632 3.52519L11.5255 3.67743L11.6631 3.78167Z" fill="var(--fill-0, #71B219)" stroke="var(--stroke-0, white)" mask="url(#path-1-inside-1_0_105)"/>
</g>
</svg>
