<svg preserveAspectRatio="none" width="100%" height="100%" overflow="visible" style="display: block;" viewBox="0 0 9 9" fill="none" xmlns="http://www.w3.org/2000/svg"><path id="LS" d="M6 0L6 0L6 0L6 1L6 1L6 1L7 1L7 1L7 1L7 1L7 2L7 2L7 2L8 2L8 2L8 2L8 2L8 2L8 2L8 2L8 2L9 3L9 3L9 3L9 3L9 3L9 3L9 4L8 4L8 4L8 4L8 4L8 4L8 5L8 5L8 5L8 5L8 6L8 6L7 6L7 6L6 6L6 6H6L6 6L6 6L6 6L6 6L6 7L6 7L5 7L5 7L5 7L5 7L5 7L5 7L5 7L4 8L4 8L4 8L4 8L4 8L4 9L4 9L4 9L3 9L3 9L2 8L2 8L2 8L2 8L2 8L2 8L2 8L2 8L2 8L2 8L2 8L2 8L2 8L2 7L1 7L1 7L1 7L1 7L1 7L1 7H1L1 6L1 6V6L0 5L0 5L0 5L0 5L0 5L1 4L1 4L1 4L1 4L1 4L1 4L1 4L2 4L2 4L2 4L2 3L2 3L2 3L2 3L2 3L2 3L2 3L2 3L3 2L3 2L3 2L3 2L4 2L4 2L4 2L4 1L5 1L6 0L6 0L6 0L6 0L6 0L6 0Z" fill="var(--fill-0,#71B219)" stroke="var(--stroke-0,white)" stroke-width="0"/></svg>