<svg preserveAspectRatio="none" width="100%" height="100%" overflow="visible" style="display: block;" viewBox="0 0 9.03009 9.07908" fill="none" xmlns="http://www.w3.org/2000/svg">
<path id="LS" d="M6.06934 0.398438L6.08301 0.425781L6.10254 0.448242L6.25977 0.62793L6.27148 0.641602L6.28613 0.654297L6.65039 0.963867L6.6748 0.984375L6.70215 0.998047L6.80664 1.04883L7.15039 1.46777L7.16699 1.48926L7.18945 1.50684L7.59082 1.82227L8.05469 2.18652L8.06836 2.19824L8.08398 2.20703L8.39941 2.3877L8.42285 2.40137L8.44922 2.41016L8.49902 2.42578L8.58691 2.64062L8.59277 2.65527L8.60059 2.66895L8.72461 2.88672L8.77637 3.04199L8.7666 3.1875L8.63086 3.6875L8.43555 4.19336L8.30664 4.36328L8.13184 4.48535L8.11035 4.50098L8.0918 4.52051L7.88867 4.73828L7.83789 4.79297L7.8252 4.86523L7.74707 5.30762L7.66992 5.73438L7.49219 5.87793L7.28809 6.01758L7.02637 6.1748L6.41504 6.44629L6.10352 6.54492H6.10156L5.91406 6.52441L5.88965 6.52246L5.86523 6.52441L5.56738 6.5498L5.54688 6.55176L5.52637 6.55762L5.31445 6.6123L5.14355 6.63477L5.05469 6.64648L4.99316 6.71191L4.69727 7.02539L4.68164 7.04297L4.66895 7.0625L4.13574 7.89941L4.00195 8.06641L3.95703 8.12305L3.94922 8.19434L3.91406 8.48828L3.81836 8.69043L3.72461 8.81641L3.71191 8.82129L3.32715 8.75098L2.81152 8.65625L2.54297 8.4502L2.27637 8.14648L2.13184 7.91797L2.11035 7.88379L2.07812 7.85742L1.9375 7.74414L1.89941 7.69238L1.8623 7.64355L1.80762 7.61719L1.58887 7.51074L1.51758 7.46289L1.50781 7.45605L1.49805 7.4502L1.48047 7.44043L1.43066 7.35547L1.40234 7.2832L1.42188 6.94531L1.42676 6.8584L1.37695 6.78711L1.21191 6.55273H1.21094L0.9375 6.16406L0.767578 5.85059V5.84961L0.532227 5.41797L0.386719 5.0498L0.254883 4.71191L0.255859 4.70801L0.298828 4.6748L0.705078 4.48926L1.04102 4.33594L1.09082 4.3125L1.12695 4.27051L1.36719 3.98926L1.37988 3.97559L1.38965 3.95996L1.65234 3.54004L1.6582 3.53027L1.66309 3.52051L1.76953 3.30957L1.86328 3.22656L1.87988 3.21191L1.89258 3.19531L2.03223 3.01855L2.04004 3.00781L2.29004 2.60156L2.29102 2.60254L2.5625 2.16602L2.80664 1.77051L3.09277 1.66504L3.0918 1.66406L3.58008 1.5127L3.62891 1.49805L3.66699 1.46484L4.12988 1.07031L4.6748 0.744141L5.55469 0.388672L5.9668 0.298828L5.97949 0.295898L5.99121 0.291992L6.00977 0.285156L6.06934 0.398438Z" fill="var(--fill-0, #71B219)" stroke="var(--stroke-0, white)" stroke-width="0.5"/>
</svg>
