<svg preserveAspectRatio="none" width="100%" height="100%" overflow="visible" style="display: block;" viewBox="0 0 22.6866 16.9332" fill="none" xmlns="http://www.w3.org/2000/svg">
<g id="LT">
<mask id="path-1-inside-1_0_122" fill="white">
<path d="M21.9836 5.11218L21.974 5.41809L21.8804 5.93519L21.6975 6.60181L21.5062 7.11757L21.4594 7.31648L21.6039 7.48242L22.322 7.56061L22.6274 7.64839L22.6866 7.78557L22.527 7.96251L22.2972 8.10927L22.1955 8.24921L22.0124 8.74713L20.8184 8.684L20.6602 8.78551L20.5845 9.01595L20.5253 9.28206L20.3686 9.59756L20.0521 9.87186L19.5555 9.97337L19.1496 10.1599L18.847 10.7333L18.6214 11.5014L18.6269 12.0446L18.6558 12.3478L18.6296 12.5205L18.477 12.7085L18.2266 13.2064L18.023 13.7564L17.9446 14.0541L17.9831 14.194L18.2128 14.1981L18.5443 14.3106L18.7205 14.53L18.7851 14.7838V15.0554L18.7232 15.2049L18.4577 15.3133L18.0422 15.3174L17.8001 15.1884L17.7506 15.0856L17.8661 14.8236L17.7822 14.4958L17.6103 14.3133L17.2608 14.5863H16.9251L16.5234 14.8305L16.2607 15.22L16.009 15.3627L15.3266 15.2831L15.1574 15.4546L15.0157 16.2446L14.9346 16.3982L14.365 16.3653L13.8161 16.6795L13.1956 16.9332L12.882 16.7577L12.7073 16.5587L12.3689 16.5944L12.0002 16.6822L11.7526 16.6342L11.4747 16.6561L10.9381 16.8084L10.264 16.759L9.97655 16.6287L9.94901 16.5039L9.96966 16.1966L9.96278 15.7193L9.85547 15.2968L9.5322 14.9237L9.19374 14.6617L8.76182 14.3915L8.44266 14.2736L8.26793 14.2434L8.22805 14.087L8.16474 13.9512L8.01477 13.8332L7.69562 13.6741L7.42466 13.6398L7.20316 13.8964L7.04077 13.5754L6.86881 12.9979L6.8867 12.5357L6.98443 12.0734L7.45355 10.7031L7.42878 10.4836L7.08754 10.0996L6.66662 9.81975L6.43412 9.22718L5.5812 9.1929L4.77639 9.22584L4.52331 9.197L3.75704 8.94873L3.01831 8.54821L2.52443 8.31367L2.10897 8.05029L1.88469 7.77322L1.53111 7.84731L1.29181 7.85003L1.2945 7.80202L1.15831 7.31234L1.30138 6.56066L1.04277 5.4551L0.620422 4.12048L0.590195 2.68435L0.559883 2.36065L1.59719 1.54589L2.90546 0.672103L3.20262 0.592569L4.40769 0.0740502L4.56866 0.0329019L5.65551 0.128929L6.50843 0.252373L7.22793 0.237304L7.62274 0.104231L7.98043 0.215369L8.26793 0.606257L8.56508 0.559625L8.85812 0.307252L10.4677 0.53769L10.8308 0.532207L11.2394 0.569253L11.9933 0.803794L12.428 1.01916L13.3828 0.888853L13.7914 0.881988L14.0045 0.796929L14.6635 0.207123L14.9483 0.105613L15.2097 0L15.449 0.0891616L15.6059 0.592569L16.0929 1.45806L16.6225 1.61035L18.0849 1.9423L18.3834 2.11648L19.2061 2.8764L19.6999 3.24812L20.0136 3.5444L20.4923 4.12458L20.7688 4.54569L21.2311 4.86391L21.7786 5.0779L21.9836 5.11218ZM0.224272 7.7458L0 7.69368L0.441575 6.91459L0.61085 6.40704L0.72773 5.68554L0.830924 5.45786L0.833695 5.78567L0.78827 6.3316L0.509 7.26022L0.224272 7.7458Z"/>
</mask>
<path d="M21.9836 5.11218L21.974 5.41809L21.8804 5.93519L21.6975 6.60181L21.5062 7.11757L21.4594 7.31648L21.6039 7.48242L22.322 7.56061L22.6274 7.64839L22.6866 7.78557L22.527 7.96251L22.2972 8.10927L22.1955 8.24921L22.0124 8.74713L20.8184 8.684L20.6602 8.78551L20.5845 9.01595L20.5253 9.28206L20.3686 9.59756L20.0521 9.87186L19.5555 9.97337L19.1496 10.1599L18.847 10.7333L18.6214 11.5014L18.6269 12.0446L18.6558 12.3478L18.6296 12.5205L18.477 12.7085L18.2266 13.2064L18.023 13.7564L17.9446 14.0541L17.9831 14.194L18.2128 14.1981L18.5443 14.3106L18.7205 14.53L18.7851 14.7838V15.0554L18.7232 15.2049L18.4577 15.3133L18.0422 15.3174L17.8001 15.1884L17.7506 15.0856L17.8661 14.8236L17.7822 14.4958L17.6103 14.3133L17.2608 14.5863H16.9251L16.5234 14.8305L16.2607 15.22L16.009 15.3627L15.3266 15.2831L15.1574 15.4546L15.0157 16.2446L14.9346 16.3982L14.365 16.3653L13.8161 16.6795L13.1956 16.9332L12.882 16.7577L12.7073 16.5587L12.3689 16.5944L12.0002 16.6822L11.7526 16.6342L11.4747 16.6561L10.9381 16.8084L10.264 16.759L9.97655 16.6287L9.94901 16.5039L9.96966 16.1966L9.96278 15.7193L9.85547 15.2968L9.5322 14.9237L9.19374 14.6617L8.76182 14.3915L8.44266 14.2736L8.26793 14.2434L8.22805 14.087L8.16474 13.9512L8.01477 13.8332L7.69562 13.6741L7.42466 13.6398L7.20316 13.8964L7.04077 13.5754L6.86881 12.9979L6.8867 12.5357L6.98443 12.0734L7.45355 10.7031L7.42878 10.4836L7.08754 10.0996L6.66662 9.81975L6.43412 9.22718L5.5812 9.1929L4.77639 9.22584L4.52331 9.197L3.75704 8.94873L3.01831 8.54821L2.52443 8.31367L2.10897 8.05029L1.88469 7.77322L1.53111 7.84731L1.29181 7.85003L1.2945 7.80202L1.15831 7.31234L1.30138 6.56066L1.04277 5.4551L0.620422 4.12048L0.590195 2.68435L0.559883 2.36065L1.59719 1.54589L2.90546 0.672103L3.20262 0.592569L4.40769 0.0740502L4.56866 0.0329019L5.65551 0.128929L6.50843 0.252373L7.22793 0.237304L7.62274 0.104231L7.98043 0.215369L8.26793 0.606257L8.56508 0.559625L8.85812 0.307252L10.4677 0.53769L10.8308 0.532207L11.2394 0.569253L11.9933 0.803794L12.428 1.01916L13.3828 0.888853L13.7914 0.881988L14.0045 0.796929L14.6635 0.207123L14.9483 0.105613L15.2097 0L15.449 0.0891616L15.6059 0.592569L16.0929 1.45806L16.6225 1.61035L18.0849 1.9423L18.3834 2.11648L19.2061 2.8764L19.6999 3.24812L20.0136 3.5444L20.4923 4.12458L20.7688 4.54569L21.2311 4.86391L21.7786 5.0779L21.9836 5.11218ZM0.224272 7.7458L0 7.69368L0.441575 6.91459L0.61085 6.40704L0.72773 5.68554L0.830924 5.45786L0.833695 5.78567L0.78827 6.3316L0.509 7.26022L0.224272 7.7458Z" fill="var(--fill-0, #71B219)" stroke="var(--stroke-0, white)" mask="url(#path-1-inside-1_0_122)"/>
</g>
</svg>
