<svg preserveAspectRatio="none" width="100%" height="100%" overflow="visible" style="display: block;" viewBox="0 0 23 17" fill="none" xmlns="http://www.w3.org/2000/svg"><g id="LT"><mask id="path-1-inside-1_0_122" fill="white"><path d="M22 5L22 5L22 6L22 7L22 7L22 7L22 8L22 8L23 8L23 8L22 8L22 8L22 8L22 9L21 9L21 9L21 9L20 9L20 10L20 10L20 10L19 10L19 11L19 12L19 12L19 12L19 12L18 13L18 13L18 14L18 14L18 14L18 14L18 14L19 14L19 15V15L19 15L18 15L18 15L18 15L18 15L18 15L18 14L18 14L17 15H17L16 15L16 15L16 15L15 15L15 16L15 16L15 16L14 16L14 17L13 17L13 17L13 17L12 17L12 17L12 17L12 17L11 17L10 17L10 17L10 16L10 16L10 16L10 15L10 15L9 15L9 14L8 14L8 14L8 14L8 14L8 14L8 14L7 14L7 14L7 14L7 13L7 12L7 12L8 11L7 10L7 10L7 10L6 9L6 9L5 9L4 9L4 9L3 8L2 8L2 8L2 8L2 8L1 8L1 8L1 7L1 7L1 6L1 4L1 3L1 2L2 2L3 1L3 1L4 0L5 0L6 0L6 0L7 0L8 0L8 0L8 1L9 1L9 0L10 0L11 0L11 1L12 1L12 1L13 1L14 1L14 1L15 0L15 0L15 0L15 0L16 1L16 2L17 2L18 2L18 2L19 3L20 3L20 4L20 4L21 4L21 5L22 5L22 5ZM0 8L0 8L0 7L1 6L1 6L1 6L1 6L1 6L0 7L0 8Z"/></mask><path d="M22 5L22 5L22 6L22 7L22 7L22 7L22 8L22 8L23 8L23 8L22 8L22 8L22 8L22 9L21 9L21 9L21 9L20 9L20 10L20 10L20 10L19 10L19 11L19 12L19 12L19 12L19 12L18 13L18 13L18 14L18 14L18 14L18 14L18 14L19 14L19 15V15L19 15L18 15L18 15L18 15L18 15L18 15L18 14L18 14L17 15H17L16 15L16 15L16 15L15 15L15 16L15 16L15 16L14 16L14 17L13 17L13 17L13 17L12 17L12 17L12 17L12 17L11 17L10 17L10 17L10 16L10 16L10 16L10 15L10 15L9 15L9 14L8 14L8 14L8 14L8 14L8 14L8 14L7 14L7 14L7 14L7 13L7 12L7 12L8 11L7 10L7 10L7 10L6 9L6 9L5 9L4 9L4 9L3 8L2 8L2 8L2 8L2 8L1 8L1 8L1 7L1 7L1 6L1 4L1 3L1 2L2 2L3 1L3 1L4 0L5 0L6 0L6 0L7 0L8 0L8 0L8 1L9 1L9 0L10 0L11 0L11 1L12 1L12 1L13 1L14 1L14 1L15 0L15 0L15 0L15 0L16 1L16 2L17 2L18 2L18 2L19 3L20 3L20 4L20 4L21 4L21 5L22 5L22 5ZM0 8L0 8L0 7L1 6L1 6L1 6L1 6L1 6L0 7L0 8Z" fill="var(--fill-0,#71B219)" stroke="var(--stroke-0,white)" mask="url(#path-1-inside-1_0_122)"/></g></svg>