<svg preserveAspectRatio="none" width="100%" height="100%" overflow="visible" style="display: block;" viewBox="0 0 2.96739 4.29332" fill="none" xmlns="http://www.w3.org/2000/svg">
<path id="LU" d="M1.20996 0.320312L1.24316 0.329102L1.24512 0.333984L1.23438 0.391602L1.22949 0.416016L1.23047 0.441406L1.23535 0.799805L1.23633 0.834961L1.24609 0.868164L1.35547 1.22656L1.36719 1.2666L1.39258 1.30078L1.65137 1.65527L1.65527 1.66016L1.85156 1.91504L1.87207 1.94141L1.89746 1.96094L2.16309 2.16504L2.1875 2.18457L2.21582 2.19629L2.66504 2.38965L2.68555 2.39941L2.70801 2.4043H2.70996L2.71582 2.45996L2.69531 2.62207L2.60254 2.71387L2.58398 2.73242L2.56934 2.75488L2.42285 2.97559L2.41016 2.99609L2.40039 3.01855L2.29004 3.28613L2.28223 3.30566L2.27734 3.32715L2.16699 3.81934L2.14453 3.80273L2.09082 3.76367L2.02539 3.75586L1.78809 3.72852L1.73145 3.72168L1.67676 3.74023L1.44141 3.82324L1.38672 3.8418L1.3457 3.88379L1.22168 4.00977L1.11035 4.03516L1.04297 4.0166L0.954102 3.91504L0.928711 3.89746L0.822266 3.8252L0.790039 3.80273L0.75293 3.79199L0.586914 3.74121L0.650391 3.63379L0.662109 3.61328L0.669922 3.5918L0.737305 3.40234L0.824219 3.22559L0.882812 3.10645L0.817383 2.99121L0.529297 2.48633L0.475586 2.3457L0.460938 2.30762L0.43457 2.27637L0.250977 2.05566L0.251953 2.04492L0.291992 1.94824L0.320312 1.87793L0.291016 1.73145L0.311523 1.57324L0.449219 1.37305L0.467773 1.34766L0.478516 1.31836L0.583984 1.02832L0.761719 0.637695L1.05957 0.28125L1.20996 0.320312Z" fill="var(--fill-0, #71B219)" stroke="var(--stroke-0, white)" stroke-width="0.5"/>
</svg>
