<svg preserveAspectRatio="none" width="100%" height="100%" overflow="visible" style="display: block;" viewBox="0 0 3 4" fill="none" xmlns="http://www.w3.org/2000/svg"><path id="LU" d="M1 0L1 0L1 0L1 0L1 0L1 0L1 1L1 1L1 1L1 1L1 1L1 1L2 2L2 2L2 2L2 2L2 2L2 2L2 2L2 2L3 2L3 2L3 2H3L3 2L3 3L3 3L3 3L3 3L2 3L2 3L2 3L2 3L2 3L2 3L2 4L2 4L2 4L2 4L2 4L2 4L2 4L1 4L1 4L1 4L1 4L1 4L1 4L1 4L1 4L1 4L1 4L1 4L1 4L1 4L1 4L1 4L1 3L1 3L1 3L1 3L0 2L0 2L0 2L0 2L0 2L0 2L0 2L0 2L0 2L0 2L0 1L0 1L0 1L1 1L1 1L1 0L1 0Z" fill="var(--fill-0,#71B219)" stroke="var(--stroke-0,white)" stroke-width="0"/></svg>