<svg preserveAspectRatio="none" width="100%" height="100%" overflow="visible" style="display: block;" viewBox="0 0 27.7477 16.8468" fill="none" xmlns="http://www.w3.org/2000/svg">
<g id="LV">
<mask id="path-1-inside-1_0_98" fill="white">
<path d="M24.4653 3.85986L24.9207 3.88866L25.0802 4.00252L25.1875 4.56214L25.7048 5.00247L26.1835 5.36594L26.3059 5.53467L26.3431 5.85838L26.3128 6.23696L26.2523 6.43173L26.0514 6.65669L25.8768 7.22594L25.852 7.76635L25.5769 8.69907L25.6387 8.71557L26.2193 8.54821L26.383 8.64424L26.511 8.8486L26.5522 9.43158L26.7421 9.69354L26.936 10.1023L26.9966 10.4192L27.3666 10.7964L27.3955 11.0419L27.6211 11.9019L27.7078 12.3957L27.7477 12.7784L27.6376 13.2626L27.5385 13.5891L27.423 13.5685L27.0915 13.6549L26.5673 14.0486L25.7874 14.9745L25.5865 15.1788L25.3829 15.8798L25.3334 15.9511L24.8794 15.9195L24.7556 15.9031L24.3016 15.9168L23.3097 15.7344L22.9259 15.8551L22.4224 16.5628L22.2256 16.6671L21.641 16.7645L21.5378 16.8468L21.3425 16.8139L20.7949 16.5999L20.3327 16.2817L20.0548 15.8605L19.5761 15.2803L19.2624 14.984L18.7685 14.6123L17.9459 13.8511L17.6473 13.6769L16.1836 13.3449L15.6553 13.1926L15.1684 12.3272L15.0115 11.8224L14.7722 11.7332L14.5094 11.8388L14.226 11.9403L13.5671 12.5301L13.3538 12.6138L12.9452 12.6207L11.9905 12.751L11.5558 12.5357L10.8019 12.3011L10.3919 12.264L10.0288 12.2696L8.41924 12.0391L8.1262 12.2915L7.82904 12.3367L7.54154 11.9458L7.18242 11.8347L6.78762 11.9678L6.06811 11.9829L5.21519 11.8594L4.12977 11.7634L3.9688 11.8045L2.76239 12.3244L2.46523 12.4026L1.15688 13.2763L0.119651 14.0911L0 12.788L0.0632261 10.1627L0.217303 8.8527L0.935461 8.08595L1.29584 7.4879L1.505 6.68687L1.56823 5.94344L1.71407 5.32755L2.7555 3.55261L3.57954 3.36055L4.69653 2.86539L5.94435 2.45253L6.18508 2.97787L6.3075 3.37839L7.80973 4.83101L8.19219 5.31792L8.77273 6.97767L10.165 7.81713L11.2586 7.55236L11.7346 7.14498L12.611 6.3933L13.0017 5.84193L13.0814 5.30972L12.926 3.01902L12.6894 2.02045L12.7692 1.3977L12.9232 1.42926L13.296 1.1275L14.519 0.567871L14.7639 0.541793L15.0432 0.427934L15.8136 0L16.0625 0.227676L16.2689 0.485575L16.3817 0.488296L16.4381 0.392269L16.423 0.226336L16.4767 0.108333L16.6982 0.174179L17.591 0.875123L17.9335 1.03972L18.1687 1.08497L18.4494 1.41281L19.2115 1.6309L19.305 1.7996L19.3628 2.01087L20.0769 2.89419L20.3974 3.33724L21.0302 3.74328L21.3026 3.83926L22.4114 3.42502L22.7195 3.2824L22.9754 3.27964L23.2354 3.49773L23.8297 3.78715L24.3676 3.87907L24.4653 3.85986Z"/>
</mask>
<path d="M24.4653 3.85986L24.9207 3.88866L25.0802 4.00252L25.1875 4.56214L25.7048 5.00247L26.1835 5.36594L26.3059 5.53467L26.3431 5.85838L26.3128 6.23696L26.2523 6.43173L26.0514 6.65669L25.8768 7.22594L25.852 7.76635L25.5769 8.69907L25.6387 8.71557L26.2193 8.54821L26.383 8.64424L26.511 8.8486L26.5522 9.43158L26.7421 9.69354L26.936 10.1023L26.9966 10.4192L27.3666 10.7964L27.3955 11.0419L27.6211 11.9019L27.7078 12.3957L27.7477 12.7784L27.6376 13.2626L27.5385 13.5891L27.423 13.5685L27.0915 13.6549L26.5673 14.0486L25.7874 14.9745L25.5865 15.1788L25.3829 15.8798L25.3334 15.9511L24.8794 15.9195L24.7556 15.9031L24.3016 15.9168L23.3097 15.7344L22.9259 15.8551L22.4224 16.5628L22.2256 16.6671L21.641 16.7645L21.5378 16.8468L21.3425 16.8139L20.7949 16.5999L20.3327 16.2817L20.0548 15.8605L19.5761 15.2803L19.2624 14.984L18.7685 14.6123L17.9459 13.8511L17.6473 13.6769L16.1836 13.3449L15.6553 13.1926L15.1684 12.3272L15.0115 11.8224L14.7722 11.7332L14.5094 11.8388L14.226 11.9403L13.5671 12.5301L13.3538 12.6138L12.9452 12.6207L11.9905 12.751L11.5558 12.5357L10.8019 12.3011L10.3919 12.264L10.0288 12.2696L8.41924 12.0391L8.1262 12.2915L7.82904 12.3367L7.54154 11.9458L7.18242 11.8347L6.78762 11.9678L6.06811 11.9829L5.21519 11.8594L4.12977 11.7634L3.9688 11.8045L2.76239 12.3244L2.46523 12.4026L1.15688 13.2763L0.119651 14.0911L0 12.788L0.0632261 10.1627L0.217303 8.8527L0.935461 8.08595L1.29584 7.4879L1.505 6.68687L1.56823 5.94344L1.71407 5.32755L2.7555 3.55261L3.57954 3.36055L4.69653 2.86539L5.94435 2.45253L6.18508 2.97787L6.3075 3.37839L7.80973 4.83101L8.19219 5.31792L8.77273 6.97767L10.165 7.81713L11.2586 7.55236L11.7346 7.14498L12.611 6.3933L13.0017 5.84193L13.0814 5.30972L12.926 3.01902L12.6894 2.02045L12.7692 1.3977L12.9232 1.42926L13.296 1.1275L14.519 0.567871L14.7639 0.541793L15.0432 0.427934L15.8136 0L16.0625 0.227676L16.2689 0.485575L16.3817 0.488296L16.4381 0.392269L16.423 0.226336L16.4767 0.108333L16.6982 0.174179L17.591 0.875123L17.9335 1.03972L18.1687 1.08497L18.4494 1.41281L19.2115 1.6309L19.305 1.7996L19.3628 2.01087L20.0769 2.89419L20.3974 3.33724L21.0302 3.74328L21.3026 3.83926L22.4114 3.42502L22.7195 3.2824L22.9754 3.27964L23.2354 3.49773L23.8297 3.78715L24.3676 3.87907L24.4653 3.85986Z" fill="var(--fill-0, #71B219)" stroke="var(--stroke-0, white)" mask="url(#path-1-inside-1_0_98)"/>
</g>
</svg>
