<svg preserveAspectRatio="none" width="100%" height="100%" overflow="visible" style="display: block;" viewBox="0 0 28 17" fill="none" xmlns="http://www.w3.org/2000/svg"><g id="LV"><mask id="path-1-inside-1_0_98" fill="white"><path d="M24 4L25 4L25 4L25 5L26 5L26 5L26 6L26 6L26 6L26 6L26 7L26 7L26 8L26 9L26 9L26 8L26 9L26 9L27 9L27 10L27 10L27 10L27 11L27 11L28 12L28 12L28 13L28 13L28 14L27 14L27 14L27 14L26 15L26 15L25 16L25 16L25 16L25 16L24 16L23 16L23 16L22 17L22 17L22 17L22 17L21 17L21 17L20 16L20 16L20 15L19 15L19 15L18 14L18 14L16 13L16 13L15 12L15 12L15 12L14 12L14 12L14 12L13 13L13 13L12 13L12 12L11 12L10 12L10 12L8 12L8 12L8 12L8 12L7 12L7 12L6 12L5 12L4 12L4 12L3 12L2 12L1 13L0 14L0 13L0 10L0 9L1 8L1 8L2 7L2 6L2 5L3 4L4 3L5 3L6 2L6 3L6 3L8 5L8 5L9 7L10 8L11 8L12 7L13 6L13 6L13 5L13 3L13 2L13 1L13 1L13 1L14 1L15 0L15 0L16 0L16 0L16 0L16 0L16 0L16 0L16 0L17 0L18 1L18 1L18 1L18 1L19 2L19 2L19 2L20 3L20 3L21 4L21 4L22 3L23 3L23 3L23 4L24 4L24 4L24 4Z"/></mask><path d="M24 4L25 4L25 4L25 5L26 5L26 5L26 6L26 6L26 6L26 6L26 7L26 7L26 8L26 9L26 9L26 8L26 9L26 9L27 9L27 10L27 10L27 10L27 11L27 11L28 12L28 12L28 13L28 13L28 14L27 14L27 14L27 14L26 15L26 15L25 16L25 16L25 16L25 16L24 16L23 16L23 16L22 17L22 17L22 17L22 17L21 17L21 17L20 16L20 16L20 15L19 15L19 15L18 14L18 14L16 13L16 13L15 12L15 12L15 12L14 12L14 12L14 12L13 13L13 13L12 13L12 12L11 12L10 12L10 12L8 12L8 12L8 12L8 12L7 12L7 12L6 12L5 12L4 12L4 12L3 12L2 12L1 13L0 14L0 13L0 10L0 9L1 8L1 8L2 7L2 6L2 5L3 4L4 3L5 3L6 2L6 3L6 3L8 5L8 5L9 7L10 8L11 8L12 7L13 6L13 6L13 5L13 3L13 2L13 1L13 1L13 1L14 1L15 0L15 0L16 0L16 0L16 0L16 0L16 0L16 0L16 0L17 0L18 1L18 1L18 1L18 1L19 2L19 2L19 2L20 3L20 3L21 4L21 4L22 3L23 3L23 3L23 4L24 4L24 4L24 4Z" fill="var(--fill-0,#71B219)" stroke="var(--stroke-0,white)" mask="url(#path-1-inside-1_0_98)"/></g></svg>