<svg preserveAspectRatio="none" width="100%" height="100%" overflow="visible" style="display: block;" viewBox="0 0 61 59" fill="none" xmlns="http://www.w3.org/2000/svg"><g id="LY"><mask id="path-1-inside-1_0_108" fill="white"><path d="M61 7L61 7L61 7L61 8L60 8L60 8L60 9L60 10L60 10L60 11L60 11L60 12L60 12L60 13L59 13L60 14L60 15L60 15L60 16L60 17L60 18L60 18V19V20V21V22V23V24V25V26V27V28V29V30V30V32V32V33V34V35V36V37V38V39V40V41V42V43V44V45V46V47V48V48V50L60 53V55L60 57L60 57L60 57L60 57L60 57L60 57H58H58L57 57V57V58V58V59L55 58L53 57L51 56L49 55L47 54L46 53L44 52L42 51L40 50L38 49L36 48L34 47L33 46L31 45L29 44L27 43L26 42L24 43L23 44L22 44L20 45L19 46L19 46L19 46L18 45L17 44L16 44L14 43L12 43L10 42L10 41L10 41L9 40L9 39L8 39L7 38L5 38L4 38L4 38L4 38L4 38L4 37L3 37L3 36L3 35L3 34L2 33L1 32L0 31L0 31L0 31L1 30L1 30L2 29L2 29L2 28L2 28L2 27L2 26L2 26L2 25L2 24L2 23L2 21L2 19L2 18L2 18L2 17L1 16L1 16L1 15L0 14L0 14L0 14L1 13L1 13L2 13L2 13L2 12L3 12L3 11L4 11L4 10L4 10L4 10L3 9L3 8L3 7L3 7L4 7L4 7L4 7L5 6L5 6L5 6L5 6L6 5L6 5L6 5L7 4L8 4L8 4L9 3L9 3L8 2V2L8 1L8 1L8 0L8 0L9 0L10 0L12 2L12 2L13 2L15 1L15 1L16 2L17 2L18 2L19 2L19 2L20 3L20 3L23 4L23 4L23 5L23 6L24 6L24 7L24 8L25 8L25 8L26 9L28 9L29 9L31 10L33 10L33 10L34 11L36 12L37 13L38 13L38 13L40 12L40 12L41 11L42 10L42 10L42 9L42 8L41 8L41 7L41 6L41 5L41 5L42 4L43 3L44 3L45 2L46 2L47 2L48 1L48 1L48 1L50 1L50 1L51 2L52 2L52 2L53 3L53 3L53 4L53 4L54 4L56 5L56 5L57 5L57 5L59 5L59 5L60 5L60 6L61 6L61 7L61 7Z"/></mask><path d="M61 7L61 7L61 7L61 8L60 8L60 8L60 9L60 10L60 10L60 11L60 11L60 12L60 12L60 13L59 13L60 14L60 15L60 15L60 16L60 17L60 18L60 18V19V20V21V22V23V24V25V26V27V28V29V30V30V32V32V33V34V35V36V37V38V39V40V41V42V43V44V45V46V47V48V48V50L60 53V55L60 57L60 57L60 57L60 57L60 57L60 57H58H58L57 57V57V58V58V59L55 58L53 57L51 56L49 55L47 54L46 53L44 52L42 51L40 50L38 49L36 48L34 47L33 46L31 45L29 44L27 43L26 42L24 43L23 44L22 44L20 45L19 46L19 46L19 46L18 45L17 44L16 44L14 43L12 43L10 42L10 41L10 41L9 40L9 39L8 39L7 38L5 38L4 38L4 38L4 38L4 38L4 37L3 37L3 36L3 35L3 34L2 33L1 32L0 31L0 31L0 31L1 30L1 30L2 29L2 29L2 28L2 28L2 27L2 26L2 26L2 25L2 24L2 23L2 21L2 19L2 18L2 18L2 17L1 16L1 16L1 15L0 14L0 14L0 14L1 13L1 13L2 13L2 13L2 12L3 12L3 11L4 11L4 10L4 10L4 10L3 9L3 8L3 7L3 7L4 7L4 7L4 7L5 6L5 6L5 6L5 6L6 5L6 5L6 5L7 4L8 4L8 4L9 3L9 3L8 2V2L8 1L8 1L8 0L8 0L9 0L10 0L12 2L12 2L13 2L15 1L15 1L16 2L17 2L18 2L19 2L19 2L20 3L20 3L23 4L23 4L23 5L23 6L24 6L24 7L24 8L25 8L25 8L26 9L28 9L29 9L31 10L33 10L33 10L34 11L36 12L37 13L38 13L38 13L40 12L40 12L41 11L42 10L42 10L42 9L42 8L41 8L41 7L41 6L41 5L41 5L42 4L43 3L44 3L45 2L46 2L47 2L48 1L48 1L48 1L50 1L50 1L51 2L52 2L52 2L53 3L53 3L53 4L53 4L54 4L56 5L56 5L57 5L57 5L59 5L59 5L60 5L60 6L61 6L61 7L61 7Z" fill="var(--fill-0,#71B219)" stroke="var(--stroke-0,white)" mask="url(#path-1-inside-1_0_108)"/></g></svg>