<svg preserveAspectRatio="none" width="100%" height="100%" overflow="visible" style="display: block;" viewBox="0 0 61.1564 58.6798" fill="none" xmlns="http://www.w3.org/2000/svg">
<g id="LY">
<mask id="path-1-inside-1_0_108" fill="white">
<path d="M61.1564 6.93099L61.0079 7.0572L60.796 7.32607L60.6625 7.56471L60.3049 7.95426L60.0063 8.36989L60.0352 8.97753L60.1027 9.59479L60.3035 10.1969L60.4755 10.8663L60.4259 11.3025L60.2787 11.8388L60.1027 12.286L59.5193 13.2036L59.4299 13.4231L59.463 13.7317L59.8179 14.8181L59.8454 15.1596L60.0572 16.2103L60.2513 17.0635L60.4658 17.7342L60.4989 17.918V18.9015V19.8837V20.863V21.841V22.8163V23.7902V24.7613V25.7311V26.6981V27.6637V28.6266V29.5896V30.5484V31.5058V32.4618V33.4165V34.3684V35.319V36.2682V37.2146V38.1611V39.1048V40.0457V40.9867V41.925V42.8618V43.7973V44.7314V45.6627V46.5941V47.5241V48.4513V50.5047L60.4975 52.5512V54.5909L60.4961 56.6237L60.4837 56.6292L60.4727 56.6374L60.4603 56.6443L60.4479 56.6525L59.496 56.6511H58.544H57.5907L56.6387 56.6498V57.1586V57.6662V58.1723V58.6798L54.7884 57.7183L52.9395 56.7568L51.0891 55.7925L49.2402 54.8268L47.3899 53.8598L45.5409 52.8914L43.6906 51.9216L41.8417 50.9505L39.9914 49.9766L38.1424 49.0014L36.2922 48.0261L34.4433 47.0481L32.5929 46.0674L30.744 45.0852L28.8937 44.1031L27.0434 43.1183L25.7667 42.4366L24.3883 43.1018L23.3084 43.623L21.8859 44.3075L20.2515 45.195L18.9969 45.8753L18.9378 45.8698L18.8814 45.8534L17.5758 44.6984L16.5565 43.7945L16.1039 43.5407L14.182 43.0785L12.2712 42.619L10.2599 42.1334L9.89397 41.3941L9.48539 40.567L8.93374 39.5314L8.5967 38.8963L8.48389 38.7976L6.94173 38.2955L5.31154 37.8017L4.3582 38.1007L4.19035 38.0788L3.92073 37.8909L3.64973 37.6344L3.50666 37.2764L3.12419 36.7963L2.77066 35.6948L2.73627 34.817L2.66608 34.5056L1.81731 33.2656L1.04554 32.1367L0.532384 31.3823L0.433347 31.0407L0.492501 30.621L0.698846 30.2438L1.44585 29.7981L2.11992 29.3111L2.21212 28.9737L2.25477 28.0423L2.03466 27.7515L1.87231 27.1974L1.70723 26.447L1.68796 25.9656L1.98789 25.0068L2.3387 24.0014L2.11581 22.8848L1.95073 20.6367L2.05393 18.859L1.97 18.2116L1.91085 17.9386L1.68112 17.0964L1.39908 16.2254L1.2725 15.9195L0.910691 15.2159L0.310925 14.3421L0 13.8044L0.426462 13.5205L0.804769 13.2983L1.26566 13.0637L1.91908 12.7976L2.2575 12.5974L2.40196 12.4286L2.89308 11.7401L3.14896 11.3587L3.49839 10.8361L3.65108 10.4713L3.65523 10.1339L3.60158 9.7251L3.3292 8.74571L3.10631 7.79105L3.27966 7.42205L3.41858 7.24649L3.72262 6.79658L3.8437 6.70604L4.49989 6.56614L4.76127 6.26714L4.96212 5.89128L5.01304 5.69378L5.29916 5.48666L5.64174 5.27954L5.8522 5.01067L6.54281 4.59371L7.17285 4.21374L7.90612 3.81323L8.47289 3.50321L8.59258 3.23163L8.58431 2.99709L8.27616 2.46212V1.8284L8.29681 1.30168L8.32708 0.990322L8.46328 0.122063L8.4715 0L9.06031 0.289419L9.66424 0.404618L11.465 1.47866L12.0332 1.61307L13.2933 1.74062L14.7777 1.30168L15.339 1.22214L16.3157 1.63501L16.7463 1.75159L17.4699 1.78315L18.7067 2.15625L19.0217 2.28656L19.7425 2.88184L20.0879 3.06017L22.648 3.60472L22.9975 3.96547L23.3537 4.65269L23.3689 5.50583L23.5656 6.1231L23.8834 6.92279L24.2672 7.4879L24.6923 7.9584L25.1807 8.25193L26.3033 8.68539L27.5689 8.85136L28.8455 8.90758L31.037 9.50425L32.8956 10.1915L33.3537 10.5303L34.2851 10.8622L36.1353 12.4725L37.1658 13.0281L37.8879 13.1351L38.5359 13.0376L39.6874 12.4808L40.1633 12.1488L41.3217 10.758L41.7028 10.031L41.8541 9.5166L41.817 8.99398L41.6725 8.52351L41.3478 8.02973L41.1209 7.3768L40.9874 6.19853L41.169 5.37967L41.3905 4.88861L41.7399 4.38658L42.7015 3.42502L43.6686 2.74605L45.3731 1.85724L46.3623 1.84761L46.7722 1.74886L47.5866 1.11925L47.9168 1.09593L48.3735 1.24956L49.7162 1.20569L50.3077 1.38125L51.0135 1.77356L51.9049 2.01635L52.5336 2.25914L53.2035 2.57049L53.3549 3.34549L53.2806 3.57592L53.2641 3.87631L53.9588 4.40852L55.9329 4.65817L56.3223 4.80083L56.8657 5.20821L57.2151 5.33304L58.5674 5.39063L59.3557 5.30419L60.1068 5.44685L60.3847 5.58403L60.6722 5.90225L61.0202 6.67314L61.1564 6.93099Z"/>
</mask>
<path d="M61.1564 6.93099L61.0079 7.0572L60.796 7.32607L60.6625 7.56471L60.3049 7.95426L60.0063 8.36989L60.0352 8.97753L60.1027 9.59479L60.3035 10.1969L60.4755 10.8663L60.4259 11.3025L60.2787 11.8388L60.1027 12.286L59.5193 13.2036L59.4299 13.4231L59.463 13.7317L59.8179 14.8181L59.8454 15.1596L60.0572 16.2103L60.2513 17.0635L60.4658 17.7342L60.4989 17.918V18.9015V19.8837V20.863V21.841V22.8163V23.7902V24.7613V25.7311V26.6981V27.6637V28.6266V29.5896V30.5484V31.5058V32.4618V33.4165V34.3684V35.319V36.2682V37.2146V38.1611V39.1048V40.0457V40.9867V41.925V42.8618V43.7973V44.7314V45.6627V46.5941V47.5241V48.4513V50.5047L60.4975 52.5512V54.5909L60.4961 56.6237L60.4837 56.6292L60.4727 56.6374L60.4603 56.6443L60.4479 56.6525L59.496 56.6511H58.544H57.5907L56.6387 56.6498V57.1586V57.6662V58.1723V58.6798L54.7884 57.7183L52.9395 56.7568L51.0891 55.7925L49.2402 54.8268L47.3899 53.8598L45.5409 52.8914L43.6906 51.9216L41.8417 50.9505L39.9914 49.9766L38.1424 49.0014L36.2922 48.0261L34.4433 47.0481L32.5929 46.0674L30.744 45.0852L28.8937 44.1031L27.0434 43.1183L25.7667 42.4366L24.3883 43.1018L23.3084 43.623L21.8859 44.3075L20.2515 45.195L18.9969 45.8753L18.9378 45.8698L18.8814 45.8534L17.5758 44.6984L16.5565 43.7945L16.1039 43.5407L14.182 43.0785L12.2712 42.619L10.2599 42.1334L9.89397 41.3941L9.48539 40.567L8.93374 39.5314L8.5967 38.8963L8.48389 38.7976L6.94173 38.2955L5.31154 37.8017L4.3582 38.1007L4.19035 38.0788L3.92073 37.8909L3.64973 37.6344L3.50666 37.2764L3.12419 36.7963L2.77066 35.6948L2.73627 34.817L2.66608 34.5056L1.81731 33.2656L1.04554 32.1367L0.532384 31.3823L0.433347 31.0407L0.492501 30.621L0.698846 30.2438L1.44585 29.7981L2.11992 29.3111L2.21212 28.9737L2.25477 28.0423L2.03466 27.7515L1.87231 27.1974L1.70723 26.447L1.68796 25.9656L1.98789 25.0068L2.3387 24.0014L2.11581 22.8848L1.95073 20.6367L2.05393 18.859L1.97 18.2116L1.91085 17.9386L1.68112 17.0964L1.39908 16.2254L1.2725 15.9195L0.910691 15.2159L0.310925 14.3421L0 13.8044L0.426462 13.5205L0.804769 13.2983L1.26566 13.0637L1.91908 12.7976L2.2575 12.5974L2.40196 12.4286L2.89308 11.7401L3.14896 11.3587L3.49839 10.8361L3.65108 10.4713L3.65523 10.1339L3.60158 9.7251L3.3292 8.74571L3.10631 7.79105L3.27966 7.42205L3.41858 7.24649L3.72262 6.79658L3.8437 6.70604L4.49989 6.56614L4.76127 6.26714L4.96212 5.89128L5.01304 5.69378L5.29916 5.48666L5.64174 5.27954L5.8522 5.01067L6.54281 4.59371L7.17285 4.21374L7.90612 3.81323L8.47289 3.50321L8.59258 3.23163L8.58431 2.99709L8.27616 2.46212V1.8284L8.29681 1.30168L8.32708 0.990322L8.46328 0.122063L8.4715 0L9.06031 0.289419L9.66424 0.404618L11.465 1.47866L12.0332 1.61307L13.2933 1.74062L14.7777 1.30168L15.339 1.22214L16.3157 1.63501L16.7463 1.75159L17.4699 1.78315L18.7067 2.15625L19.0217 2.28656L19.7425 2.88184L20.0879 3.06017L22.648 3.60472L22.9975 3.96547L23.3537 4.65269L23.3689 5.50583L23.5656 6.1231L23.8834 6.92279L24.2672 7.4879L24.6923 7.9584L25.1807 8.25193L26.3033 8.68539L27.5689 8.85136L28.8455 8.90758L31.037 9.50425L32.8956 10.1915L33.3537 10.5303L34.2851 10.8622L36.1353 12.4725L37.1658 13.0281L37.8879 13.1351L38.5359 13.0376L39.6874 12.4808L40.1633 12.1488L41.3217 10.758L41.7028 10.031L41.8541 9.5166L41.817 8.99398L41.6725 8.52351L41.3478 8.02973L41.1209 7.3768L40.9874 6.19853L41.169 5.37967L41.3905 4.88861L41.7399 4.38658L42.7015 3.42502L43.6686 2.74605L45.3731 1.85724L46.3623 1.84761L46.7722 1.74886L47.5866 1.11925L47.9168 1.09593L48.3735 1.24956L49.7162 1.20569L50.3077 1.38125L51.0135 1.77356L51.9049 2.01635L52.5336 2.25914L53.2035 2.57049L53.3549 3.34549L53.2806 3.57592L53.2641 3.87631L53.9588 4.40852L55.9329 4.65817L56.3223 4.80083L56.8657 5.20821L57.2151 5.33304L58.5674 5.39063L59.3557 5.30419L60.1068 5.44685L60.3847 5.58403L60.6722 5.90225L61.0202 6.67314L61.1564 6.93099Z" fill="var(--fill-0, #71B219)" stroke="var(--stroke-0, white)" mask="url(#path-1-inside-1_0_108)"/>
</g>
</svg>
