<svg preserveAspectRatio="none" width="100%" height="100%" overflow="visible" style="display: block;" viewBox="0 0 47 37" fill="none" xmlns="http://www.w3.org/2000/svg"><g id="MA"><mask id="path-1-inside-1_0_97" fill="white"><path d="M42 4L42 4L43 4L44 5L44 6L44 6L44 6L44 6L44 6L44 7L44 7L44 7L44 7L44 8L44 9L44 10L44 10L44 10L45 11L44 12L45 13L45 13L45 14L45 15L46 15L46 15L46 15L47 16L47 16L46 16L46 17L46 17L46 17V18L46 18L45 18L45 18L44 18L43 18L42 18L41 18L41 18L40 18L40 18L40 18L40 18L39 18L39 19L39 19L38 20L37 20L37 20L36 20L36 20L36 20L36 20L36 20L36 21L36 21L36 21L36 22L36 22L36 22L36 22L36 22L37 22L37 22L37 23L37 23L37 23L36 23L36 23L35 24L34 24L33 24L33 24L32 25L32 25L31 26L31 26L30 27L30 27L29 28L29 28L28 28L27 28L27 28L26 28L26 28L26 28L26 28L26 28L26 28L26 29L26 29L25 29L25 29L25 29L24 29L24 29L23 29L23 29L23 29L22 29L22 30L22 30L21 30L21 30L20 31L20 31L19 32L19 32L18 32L18 32L17 33L17 33L17 33V34V34V35V36V37H17V37L17 37L0 37L0 37L0 37L1 36L2 36L3 36L5 35L6 34L7 34L7 34L8 33L10 32L10 31L12 30L12 29L13 28L13 27L14 27L14 26L14 25L13 24L13 24L13 24L13 23L13 22L13 21L14 20L15 18L15 17L15 16L15 16L17 14L18 13L18 12L19 12L22 11L23 10L24 9L25 8L26 5L28 1L28 1L29 0L29 0L30 0L30 0L30 0L30 0V1L31 2L31 2L32 3L33 3L34 4L36 3L36 3L37 3L37 3L38 3L38 3L39 3L39 2L40 3L40 3L40 3L40 4L40 4L40 4L41 4L42 4L42 4Z"/></mask><path d="M42 4L42 4L43 4L44 5L44 6L44 6L44 6L44 6L44 6L44 7L44 7L44 7L44 7L44 8L44 9L44 10L44 10L44 10L45 11L44 12L45 13L45 13L45 14L45 15L46 15L46 15L46 15L47 16L47 16L46 16L46 17L46 17L46 17V18L46 18L45 18L45 18L44 18L43 18L42 18L41 18L41 18L40 18L40 18L40 18L40 18L39 18L39 19L39 19L38 20L37 20L37 20L36 20L36 20L36 20L36 20L36 20L36 21L36 21L36 21L36 22L36 22L36 22L36 22L36 22L37 22L37 22L37 23L37 23L37 23L36 23L36 23L35 24L34 24L33 24L33 24L32 25L32 25L31 26L31 26L30 27L30 27L29 28L29 28L28 28L27 28L27 28L26 28L26 28L26 28L26 28L26 28L26 28L26 29L26 29L25 29L25 29L25 29L24 29L24 29L23 29L23 29L23 29L22 29L22 30L22 30L21 30L21 30L20 31L20 31L19 32L19 32L18 32L18 32L17 33L17 33L17 33V34V34V35V36V37H17V37L17 37L0 37L0 37L0 37L1 36L2 36L3 36L5 35L6 34L7 34L7 34L8 33L10 32L10 31L12 30L12 29L13 28L13 27L14 27L14 26L14 25L13 24L13 24L13 24L13 23L13 22L13 21L14 20L15 18L15 17L15 16L15 16L17 14L18 13L18 12L19 12L22 11L23 10L24 9L25 8L26 5L28 1L28 1L29 0L29 0L30 0L30 0L30 0L30 0V1L31 2L31 2L32 3L33 3L34 4L36 3L36 3L37 3L37 3L38 3L38 3L39 3L39 2L40 3L40 3L40 3L40 4L40 4L40 4L41 4L42 4L42 4Z" fill="var(--fill-0,#71B219)" stroke="var(--stroke-0,white)" mask="url(#path-1-inside-1_0_97)"/></g></svg>