<svg preserveAspectRatio="none" width="100%" height="100%" overflow="visible" style="display: block;" viewBox="0 0 46.7626 37.3682" fill="none" xmlns="http://www.w3.org/2000/svg">
<g id="MA">
<mask id="path-1-inside-1_0_97" fill="white">
<path d="M42.3067 3.88866L42.4181 4.23568L42.6465 4.51275L43.4609 5.14508L43.9438 5.53463L43.9575 5.66909L43.8021 5.98869L43.736 6.20816L43.8626 6.4427L44.1611 6.72525L44.1845 6.86105L44.113 7.01877L43.9589 7.32192L44.2863 8.21078L44.3413 9.07079L44.2561 9.68119L44.2588 10.0337L44.3015 10.3327L44.5793 11.0227L44.3936 12.1625L44.6027 12.7825L44.8903 13.2846L45.0471 14.1789L45.2782 14.6027L45.6565 14.9745L45.8725 15.0993L46.2893 15.4065L46.5878 15.6617L46.7626 16.043L46.3884 16.3557L46.0885 16.6355L46.0032 16.9373L46.1435 17.4201V17.6794L45.9523 17.7617L45.1736 17.7342L44.5628 17.7137L43.8612 17.6903L42.8735 17.6437L42.2627 17.6149L41.4235 17.5765L41.1346 17.5957L40.3656 17.7301L39.8222 17.8261L39.73 17.8522L39.5608 17.9715L39.4439 18.3268L39.3393 18.7314L39.2265 18.9111L37.5963 19.4955L36.9594 19.5764L36.5907 19.516L36.328 19.5641L36.1023 19.6888L36.0253 19.8768L36.0143 20.1182L36.0624 20.361L36.2193 20.6984L36.2468 21.0359L36.1463 21.2745L36.1229 21.5132L36.0762 21.771L36.1601 21.911L36.3169 21.9329L36.4751 22.0509L36.698 22.1579L36.8823 22.3622L36.8741 22.653L36.72 22.8176L36.5838 22.9041L35.973 22.9809L35.4901 23.0426L34.8587 23.5062L34.186 24L33.3908 24.3265L33.04 24.4184L32.4278 24.6529L31.6946 25.0384L31.3328 25.6556L30.8774 26.3661L30.4386 26.8421L29.8402 27.2934L29.2816 27.4648L28.58 27.6816L27.6954 27.8475L27.0695 27.9024L26.8824 27.938L26.3308 27.949L26.0611 27.9147L25.8589 27.8955L25.7778 27.9463L25.7502 28.0574L25.7392 28.3125L25.7021 28.6047L25.5274 28.8502L25.4036 28.9599L25.2591 29.0052L24.7955 28.9394L24.4076 28.8612L23.4845 28.757L23.3001 28.7817L23.2313 28.8118L22.9438 28.9791L22.5008 29.3303L22.1996 29.6376L21.9753 29.7816L21.4388 29.857L21.2049 29.9695L20.2062 30.7363L19.9929 30.9228L18.9653 31.5881L18.6751 31.8089L18.4481 32.027L17.8345 32.5181L17.4424 32.7334L17.3709 32.861L17.3516 33.16V33.8211V34.4548V35.3739V36.2929V37.349H16.833V37.3504L16.8302 37.349L0 37.3682L0.00549975 37.3518L0.52827 36.858L0.881807 36.2325L1.48162 35.9541L2.73627 35.8196L4.60031 35.2998L6.27316 34.5138L6.74639 34.2011L7.25266 33.5729L8.09458 32.754L9.66701 31.7691L10.3906 31.2177L11.4939 29.8337L12.2272 28.6856L12.8366 27.9449L13.2575 27.2865L13.5533 26.6185L13.7198 25.5404L13.6084 25.1179L13.1434 24.4266L12.8325 24.2414L12.7485 23.915L12.915 23.3389L12.9122 22.3458L13.0058 20.7546L13.523 19.4667L14.7873 17.7727L15.0226 17.0745L15.167 15.9634L15.1794 15.5697L16.7614 13.9841L17.6873 12.7647L18.0092 12.4657L18.8264 11.9074L21.6796 10.6852L23.2919 9.80878L24.2328 9.16958L24.7941 8.41103L26.3486 5.42215L27.8743 1.17551L28.0023 0.681688L28.6846 0.53903L29.1674 0.477328L29.5568 0.32094L30.0383 0L30.5005 0.128928L30.2694 0.347019V0.873742L30.5968 1.48963L31.1663 2.18094L32.2009 3.05741L33.007 3.40857L34.1584 3.61979L35.5011 3.23573L36.2523 3.22886L36.6168 3.06293L37.0144 3.30568L37.7696 3.38387L38.4988 3.25632L39.0504 2.88871L39.4012 2.46488L39.4563 2.67334L39.4728 2.8983L39.5801 3.02999L39.7974 3.56768L39.9116 3.77756L40.3312 3.74324L40.6958 3.84889L41.5184 3.79812L42.3067 3.88866Z"/>
</mask>
<path d="M42.3067 3.88866L42.4181 4.23568L42.6465 4.51275L43.4609 5.14508L43.9438 5.53463L43.9575 5.66909L43.8021 5.98869L43.736 6.20816L43.8626 6.4427L44.1611 6.72525L44.1845 6.86105L44.113 7.01877L43.9589 7.32192L44.2863 8.21078L44.3413 9.07079L44.2561 9.68119L44.2588 10.0337L44.3015 10.3327L44.5793 11.0227L44.3936 12.1625L44.6027 12.7825L44.8903 13.2846L45.0471 14.1789L45.2782 14.6027L45.6565 14.9745L45.8725 15.0993L46.2893 15.4065L46.5878 15.6617L46.7626 16.043L46.3884 16.3557L46.0885 16.6355L46.0032 16.9373L46.1435 17.4201V17.6794L45.9523 17.7617L45.1736 17.7342L44.5628 17.7137L43.8612 17.6903L42.8735 17.6437L42.2627 17.6149L41.4235 17.5765L41.1346 17.5957L40.3656 17.7301L39.8222 17.8261L39.73 17.8522L39.5608 17.9715L39.4439 18.3268L39.3393 18.7314L39.2265 18.9111L37.5963 19.4955L36.9594 19.5764L36.5907 19.516L36.328 19.5641L36.1023 19.6888L36.0253 19.8768L36.0143 20.1182L36.0624 20.361L36.2193 20.6984L36.2468 21.0359L36.1463 21.2745L36.1229 21.5132L36.0762 21.771L36.1601 21.911L36.3169 21.9329L36.4751 22.0509L36.698 22.1579L36.8823 22.3622L36.8741 22.653L36.72 22.8176L36.5838 22.9041L35.973 22.9809L35.4901 23.0426L34.8587 23.5062L34.186 24L33.3908 24.3265L33.04 24.4184L32.4278 24.6529L31.6946 25.0384L31.3328 25.6556L30.8774 26.3661L30.4386 26.8421L29.8402 27.2934L29.2816 27.4648L28.58 27.6816L27.6954 27.8475L27.0695 27.9024L26.8824 27.938L26.3308 27.949L26.0611 27.9147L25.8589 27.8955L25.7778 27.9463L25.7502 28.0574L25.7392 28.3125L25.7021 28.6047L25.5274 28.8502L25.4036 28.9599L25.2591 29.0052L24.7955 28.9394L24.4076 28.8612L23.4845 28.757L23.3001 28.7817L23.2313 28.8118L22.9438 28.9791L22.5008 29.3303L22.1996 29.6376L21.9753 29.7816L21.4388 29.857L21.2049 29.9695L20.2062 30.7363L19.9929 30.9228L18.9653 31.5881L18.6751 31.8089L18.4481 32.027L17.8345 32.5181L17.4424 32.7334L17.3709 32.861L17.3516 33.16V33.8211V34.4548V35.3739V36.2929V37.349H16.833V37.3504L16.8302 37.349L0 37.3682L0.00549975 37.3518L0.52827 36.858L0.881807 36.2325L1.48162 35.9541L2.73627 35.8196L4.60031 35.2998L6.27316 34.5138L6.74639 34.2011L7.25266 33.5729L8.09458 32.754L9.66701 31.7691L10.3906 31.2177L11.4939 29.8337L12.2272 28.6856L12.8366 27.9449L13.2575 27.2865L13.5533 26.6185L13.7198 25.5404L13.6084 25.1179L13.1434 24.4266L12.8325 24.2414L12.7485 23.915L12.915 23.3389L12.9122 22.3458L13.0058 20.7546L13.523 19.4667L14.7873 17.7727L15.0226 17.0745L15.167 15.9634L15.1794 15.5697L16.7614 13.9841L17.6873 12.7647L18.0092 12.4657L18.8264 11.9074L21.6796 10.6852L23.2919 9.80878L24.2328 9.16958L24.7941 8.41103L26.3486 5.42215L27.8743 1.17551L28.0023 0.681688L28.6846 0.53903L29.1674 0.477328L29.5568 0.32094L30.0383 0L30.5005 0.128928L30.2694 0.347019V0.873742L30.5968 1.48963L31.1663 2.18094L32.2009 3.05741L33.007 3.40857L34.1584 3.61979L35.5011 3.23573L36.2523 3.22886L36.6168 3.06293L37.0144 3.30568L37.7696 3.38387L38.4988 3.25632L39.0504 2.88871L39.4012 2.46488L39.4563 2.67334L39.4728 2.8983L39.5801 3.02999L39.7974 3.56768L39.9116 3.77756L40.3312 3.74324L40.6958 3.84889L41.5184 3.79812L42.3067 3.88866Z" fill="var(--fill-0, #71B219)" stroke="var(--stroke-0, white)" mask="url(#path-1-inside-1_0_97)"/>
</g>
</svg>
