<svg preserveAspectRatio="none" width="100%" height="100%" overflow="visible" style="display: block;" viewBox="0 0 0.236765 0.210139" fill="none" xmlns="http://www.w3.org/2000/svg">
<g id="MC">
<mask id="path-1-inside-1_0_96" fill="white">
<path d="M0.236765 0.109205L0 0.210139L0.00971734 0.0940142L0.0678524 0.0304238L0.142591 0L0.229836 0.0511424L0.236765 0.109205Z"/>
</mask>
<path d="M0.236765 0.109205L0 0.210139L0.00971734 0.0940142L0.0678524 0.0304238L0.142591 0L0.229836 0.0511424L0.236765 0.109205Z" fill="var(--fill-0, #71B219)"/>
<path d="M0.236765 0.109205L0.432844 0.569154L0.777659 0.422157L0.733242 0.049958L0.236765 0.109205ZM0 0.210139L-0.498259 0.168445L-0.567474 0.995596L0.196079 0.670088L0 0.210139ZM0.00971734 0.0940142L-0.359311 -0.243355L-0.474327 -0.117546L-0.488541 0.05232L0.00971734 0.0940142ZM0.0678523 0.0304238L-0.120661 -0.432677L-0.225095 -0.390166L-0.301176 -0.306946L0.0678523 0.0304238ZM0.142591 0L0.395447 -0.431351L0.182596 -0.556123L-0.045922 -0.463101L0.142591 0ZM0.229836 0.0511424L0.726313 -0.00810459L0.696893 -0.254646L0.482692 -0.380209L0.229836 0.0511424ZM0.236765 0.109205L0.0406858 -0.350744L-0.196079 -0.249809L0 0.210139L0.196079 0.670088L0.432844 0.569154L0.236765 0.109205ZM0 0.210139L0.498259 0.251834L0.507976 0.135708L0.00971734 0.0940142L-0.488541 0.05232L-0.498259 0.168445L0 0.210139ZM0.00971734 0.0940142L0.378746 0.431384L0.436881 0.367793L0.0678523 0.0304238L-0.301176 -0.306946L-0.359311 -0.243355L0.00971734 0.0940142ZM0.0678523 0.0304238L0.256366 0.493525L0.331105 0.463101L0.142591 0L-0.045922 -0.463101L-0.120661 -0.432677L0.0678523 0.0304238ZM0.142591 0L-0.110264 0.431351L-0.0230195 0.482494L0.229836 0.0511424L0.482692 -0.380209L0.395447 -0.431351L0.142591 0ZM0.229836 0.0511424L-0.266641 0.110389L-0.259712 0.168452L0.236765 0.109205L0.733242 0.049958L0.726313 -0.00810459L0.229836 0.0511424Z" fill="var(--stroke-0, white)" mask="url(#path-1-inside-1_0_96)"/>
</g>
</svg>
