<svg preserveAspectRatio="none" width="100%" height="100%" overflow="visible" style="display: block;" viewBox="0 0 13.5602 17.0292" fill="none" xmlns="http://www.w3.org/2000/svg">
<g id="MD">
<mask id="path-1-inside-1_0_93" fill="white">
<path d="M6.15208 17.0292L5.95946 16.6822L5.76416 16.3791L5.62108 16.2158L5.68162 16.1404L5.83704 16.054L5.94846 15.9511L5.93612 15.589L5.85358 15.172L5.77784 14.9704L5.77104 14.6535L5.71739 14.1597L5.79304 13.2407L6.10388 12.083L6.27584 11.5055L6.19196 11.1887L6.25662 10.448L6.12177 10.0817L5.91135 9.60166L5.61008 8.55507L5.23308 8.19022L4.76816 7.78833L4.57 7.48518L4.43658 7.15051L4.16008 6.81718L3.84227 6.51131L3.46258 5.74452L3.26584 5.3975L3.2053 5.30562L2.77196 4.8118L2.545 4.36599L2.42946 3.99842L2.36338 3.6596L2.058 2.98612L1.7815 2.47995L1.51877 2.11786L1.39769 1.86134L1.08954 1.53902L0.65065 1.28112L0.365922 1.23725L0 1.25781L0.0838817 1.06031L0.88038 0.52396L1.08811 0.611741L1.505 0.632336L2.35381 0.614503L2.77196 0.26062L3.03066 0.359367L3.24107 0.200258L3.59188 0L3.64285 0.0425297L3.68685 0.0740502L4.22885 0.163212L4.63742 0.355265L4.90981 0.650168L5.19185 0.832593L5.48077 0.903923L5.64165 1.05206L5.67331 1.27426L5.94569 1.38401L6.45612 1.38125L6.67208 1.52801L6.59508 1.82568L6.64731 1.92309L6.82893 1.82158L6.96646 1.90936L7.038 2.12883L7.12054 2.23306L7.38058 1.88876L7.65574 1.92309L8.32016 2.06574L8.67508 2.77761L8.89658 3.03275L9.09054 3.13698L9.33547 3.02588L9.55277 2.89419L9.67662 2.95594L9.94623 3.4264L10.0081 4.0409L10.0068 4.28783L9.91181 4.7048L9.77562 5.14647L9.66831 5.43454L9.71373 5.66498L9.81004 5.85838L9.96689 5.92146L10.4813 6.31105L10.674 6.58264L10.9532 6.78289L11.1651 6.79386L11.2752 6.90496L11.3137 7.04213L11.2848 7.38777L11.1665 7.71151L11.1816 7.91998L11.3687 8.16691L11.3894 8.45218L11.4017 8.63599L11.5008 8.77727L11.9727 9.09138L12.5821 9.39453L12.7375 9.65515L12.8325 9.98434L12.8022 10.5371L12.7623 11.0172L13.5602 11.6619L13.4693 11.7826L13.3456 11.9143L12.5834 12.0117L12.428 12.0652L12.0964 11.581L11.9217 11.5193L11.7594 11.6975L11.5668 11.7963L11.337 11.7469L11.0894 11.5974L10.9642 11.4918L10.8638 11.4794L10.7097 11.5851L10.5048 11.5398L10.3699 11.4205L10.176 11.832L10.0577 11.9184L9.98335 11.906L9.96823 11.2065L9.91181 11.1009L9.75773 11.083L9.38635 11.2504L9.03277 11.4658L8.91312 11.6564L8.92546 12.0007L8.97635 12.4108L9.21708 13.0322L9.08508 13.3024L8.99155 13.7331L8.6132 14.1268L8.18396 14.3559L8.14819 14.8249L7.91024 15.1445L7.503 15.4641L7.23062 15.8496L7.29939 16.1116L7.31593 16.3612L7.26916 16.5299L7.2595 16.6602L7.15219 16.7178L6.53043 16.7659L6.35427 16.8468L6.15208 17.0292Z"/>
</mask>
<path d="M6.15208 17.0292L5.95946 16.6822L5.76416 16.3791L5.62108 16.2158L5.68162 16.1404L5.83704 16.054L5.94846 15.9511L5.93612 15.589L5.85358 15.172L5.77784 14.9704L5.77104 14.6535L5.71739 14.1597L5.79304 13.2407L6.10388 12.083L6.27584 11.5055L6.19196 11.1887L6.25662 10.448L6.12177 10.0817L5.91135 9.60166L5.61008 8.55507L5.23308 8.19022L4.76816 7.78833L4.57 7.48518L4.43658 7.15051L4.16008 6.81718L3.84227 6.51131L3.46258 5.74452L3.26584 5.3975L3.2053 5.30562L2.77196 4.8118L2.545 4.36599L2.42946 3.99842L2.36338 3.6596L2.058 2.98612L1.7815 2.47995L1.51877 2.11786L1.39769 1.86134L1.08954 1.53902L0.65065 1.28112L0.365922 1.23725L0 1.25781L0.0838817 1.06031L0.88038 0.52396L1.08811 0.611741L1.505 0.632336L2.35381 0.614503L2.77196 0.26062L3.03066 0.359367L3.24107 0.200258L3.59188 0L3.64285 0.0425297L3.68685 0.0740502L4.22885 0.163212L4.63742 0.355265L4.90981 0.650168L5.19185 0.832593L5.48077 0.903923L5.64165 1.05206L5.67331 1.27426L5.94569 1.38401L6.45612 1.38125L6.67208 1.52801L6.59508 1.82568L6.64731 1.92309L6.82893 1.82158L6.96646 1.90936L7.038 2.12883L7.12054 2.23306L7.38058 1.88876L7.65574 1.92309L8.32016 2.06574L8.67508 2.77761L8.89658 3.03275L9.09054 3.13698L9.33547 3.02588L9.55277 2.89419L9.67662 2.95594L9.94623 3.4264L10.0081 4.0409L10.0068 4.28783L9.91181 4.7048L9.77562 5.14647L9.66831 5.43454L9.71373 5.66498L9.81004 5.85838L9.96689 5.92146L10.4813 6.31105L10.674 6.58264L10.9532 6.78289L11.1651 6.79386L11.2752 6.90496L11.3137 7.04213L11.2848 7.38777L11.1665 7.71151L11.1816 7.91998L11.3687 8.16691L11.3894 8.45218L11.4017 8.63599L11.5008 8.77727L11.9727 9.09138L12.5821 9.39453L12.7375 9.65515L12.8325 9.98434L12.8022 10.5371L12.7623 11.0172L13.5602 11.6619L13.4693 11.7826L13.3456 11.9143L12.5834 12.0117L12.428 12.0652L12.0964 11.581L11.9217 11.5193L11.7594 11.6975L11.5668 11.7963L11.337 11.7469L11.0894 11.5974L10.9642 11.4918L10.8638 11.4794L10.7097 11.5851L10.5048 11.5398L10.3699 11.4205L10.176 11.832L10.0577 11.9184L9.98335 11.906L9.96823 11.2065L9.91181 11.1009L9.75773 11.083L9.38635 11.2504L9.03277 11.4658L8.91312 11.6564L8.92546 12.0007L8.97635 12.4108L9.21708 13.0322L9.08508 13.3024L8.99155 13.7331L8.6132 14.1268L8.18396 14.3559L8.14819 14.8249L7.91024 15.1445L7.503 15.4641L7.23062 15.8496L7.29939 16.1116L7.31593 16.3612L7.26916 16.5299L7.2595 16.6602L7.15219 16.7178L6.53043 16.7659L6.35427 16.8468L6.15208 17.0292Z" fill="var(--fill-0, #71B219)" stroke="var(--stroke-0, white)" mask="url(#path-1-inside-1_0_93)"/>
</g>
</svg>
