<svg preserveAspectRatio="none" width="100%" height="100%" overflow="visible" style="display: block;" viewBox="0 0 14 17" fill="none" xmlns="http://www.w3.org/2000/svg"><g id="MD"><mask id="path-1-inside-1_0_93" fill="white"><path d="M6 17L6 17L6 16L6 16L6 16L6 16L6 16L6 16L6 15L6 15L6 15L6 14L6 13L6 12L6 12L6 11L6 10L6 10L6 10L6 9L5 8L5 8L5 8L4 7L4 7L4 6L4 6L3 5L3 5L3 5L2 4L2 4L2 4L2 3L2 2L2 2L1 2L1 2L1 1L0 1L0 1L0 1L1 0L1 1L2 1L2 1L3 0L3 0L3 0L4 0L4 0L4 0L4 0L5 0L5 1L5 1L6 1L6 1L6 1L6 1L6 1L7 2L7 2L7 2L7 2L7 2L7 2L7 2L7 2L8 2L8 2L9 3L9 3L9 3L9 3L10 3L10 3L10 3L10 4L10 4L10 5L10 5L10 5L10 6L10 6L10 6L10 6L11 7L11 7L11 7L11 7L11 7L11 7L11 8L11 8L11 8L11 8L11 9L12 9L12 9L13 9L13 10L13 10L13 10L13 11L14 12L14 12L13 12L13 12L12 12L12 12L12 12L12 12L12 12L11 12L11 12L11 12L11 12L11 12L10 12L10 11L10 12L10 12L10 12L10 11L10 11L10 11L9 11L9 12L9 12L9 12L9 12L9 13L9 13L9 14L9 14L8 14L8 15L8 15L8 16L7 16L7 16L7 16L7 16L7 17L7 17L6 17L6 17L6 17Z"/></mask><path d="M6 17L6 17L6 16L6 16L6 16L6 16L6 16L6 16L6 15L6 15L6 15L6 14L6 13L6 12L6 12L6 11L6 10L6 10L6 10L6 9L5 8L5 8L5 8L4 7L4 7L4 6L4 6L3 5L3 5L3 5L2 4L2 4L2 4L2 3L2 2L2 2L1 2L1 2L1 1L0 1L0 1L0 1L1 0L1 1L2 1L2 1L3 0L3 0L3 0L4 0L4 0L4 0L4 0L5 0L5 1L5 1L6 1L6 1L6 1L6 1L6 1L7 2L7 2L7 2L7 2L7 2L7 2L7 2L7 2L8 2L8 2L9 3L9 3L9 3L9 3L10 3L10 3L10 3L10 4L10 4L10 5L10 5L10 5L10 6L10 6L10 6L10 6L11 7L11 7L11 7L11 7L11 7L11 7L11 8L11 8L11 8L11 8L11 9L12 9L12 9L13 9L13 10L13 10L13 10L13 11L14 12L14 12L13 12L13 12L12 12L12 12L12 12L12 12L12 12L11 12L11 12L11 12L11 12L11 12L10 12L10 11L10 12L10 12L10 12L10 11L10 11L10 11L9 11L9 12L9 12L9 12L9 12L9 13L9 13L9 14L9 14L8 14L8 15L8 15L8 16L7 16L7 16L7 16L7 16L7 17L7 17L6 17L6 17L6 17Z" fill="var(--fill-0,#71B219)" stroke="var(--stroke-0,white)" mask="url(#path-1-inside-1_0_93)"/></g></svg>