<svg preserveAspectRatio="none" width="100%" height="100%" overflow="visible" style="display: block;" viewBox="0 0 7 9" fill="none" xmlns="http://www.w3.org/2000/svg"><path id="ME" d="M2 0L2 0L3 0L3 0H3L3 0L3 0L3 0L3 1L3 1L3 1L3 1L4 1L4 2L4 2L4 2L4 2L4 2L4 2L5 2L5 2L5 2L5 2L5 3L6 3L6 3L7 3L7 3L7 3L7 4L7 4L7 4L7 4L7 4L7 4L7 4L7 4H6L6 4H6L6 4L6 4L6 4L6 4L6 5L6 5L6 5L6 5L5 5L5 5L5 5L5 5L5 5L5 5L5 5L5 5L5 5L5 4L5 4L5 4L5 5L4 5L4 5L4 5L4 5L4 5L4 6L4 6L4 6L4 6L4 6L3 7L3 7L3 7L3 7L3 7L3 7L3 8L3 8L3 8L3 8L3 8L3 8L3 8L3 8L3 8L3 8L3 8L2 7L2 7L2 7L1 6L1 6L1 6L1 6L1 6L0 6L0 6L0 6L0 5V5L0 5L0 5L0 5L0 5L1 5L1 5L1 5L1 5L1 5L1 4L1 4L1 4L0 4L0 4L0 3L0 3L0 3L1 3L1 3L1 3L1 2L1 2L1 2L1 2L1 2L1 2L1 2L2 1L2 1L2 1L2 2L2 2L2 2L2 2L2 2L2 1L3 1L3 1L2 1L2 0L2 0L2 0Z" fill="var(--fill-0,#71B219)" stroke="var(--stroke-0,white)" stroke-width="0"/></svg>