<svg preserveAspectRatio="none" width="100%" height="100%" overflow="visible" style="display: block;" viewBox="0 0 7.37915 8.73612" fill="none" xmlns="http://www.w3.org/2000/svg">
<path id="ME" d="M2.39355 0.364258L2.48926 0.402344L2.58398 0.361328L2.68262 0.318359H2.68457L2.68555 0.328125L2.68945 0.371094L2.70801 0.410156L2.79492 0.595703L2.82617 0.663086L2.88965 0.702148L3.17773 0.879883L3.59668 1.22949L4.10742 1.89551L4.12402 1.91699L4.14551 1.93457L4.3877 2.1377L4.43359 2.17676L4.49121 2.18945L4.66406 2.22949L5.05273 2.48926L5.09082 2.51367L5.13477 2.52441L5.43164 2.59473L5.71875 2.66211L6.54297 3.22949L6.56152 3.24219L6.58301 3.25195L6.94238 3.41113L7.11523 3.55078L7.11816 3.57324L6.79492 3.6709L6.67676 3.70703L6.63281 3.82324L6.61426 3.87109L6.56641 3.86621L6.55371 3.86523H6.54004L6.24707 3.86328H6.11035L6.03613 3.97754L5.94043 4.125L5.85742 4.25293L5.93457 4.38574L6.06055 4.60254L6.12402 4.7998L6.08789 4.99316L5.69824 5.20508L5.42773 5.29785L5.29102 5.3252L5.27441 5.28809L5.28613 4.9209L5.28711 4.87402L5.27246 4.83008L5.2207 4.68555L5.19629 4.61426L5.13477 4.56934L5.04199 4.49902L4.91504 4.4043L4.77539 4.47852L4.58594 4.57812L4.5293 4.6084L4.49316 4.66113L4.27441 4.99219L4.2627 5.01172L4.06934 5.37109L3.77344 5.75684L3.76367 5.77051L3.50977 6.15234L3.50488 6.15918L3.50098 6.16699L3.22852 6.64844L3.22363 6.65723L3.21973 6.66602L3.03418 7.0625L2.96582 7.20801L3.07031 7.33105L3.23535 7.52344L3.31348 7.72949L3.28809 7.89844L3.28027 7.94824L3.29297 7.99805L3.31445 8.08496L3.28418 8.28809L3.09668 8.16016L2.87793 7.65039L2.86133 7.6123L2.83398 7.58105L1.95312 6.60352L1.93262 6.5791L1.90527 6.56152L0.994141 5.95898L1.03516 5.875L1.19727 5.5332L0.818359 5.51758L0.608398 5.50977L0.537109 5.50684L0.475586 5.54199L0.444336 5.55859L0.367188 5.43555V5.43457L0.361328 5.42578L0.270508 5.29297L0.319336 5.25586L0.333008 5.24609L0.595703 4.9834L0.615234 4.93359L0.657227 4.82129L0.676758 4.77051L0.672852 4.71582L0.662109 4.5459L0.658203 4.49023L0.630859 4.44043L0.355469 3.94531L0.321289 3.6582L0.28125 3.06348L0.294922 3.03223L0.295898 3.03125L0.760742 2.95996L0.975586 2.92676L0.97168 2.70996L0.964844 2.22949L0.985352 2.12891L1.0752 1.9502L1.08301 1.93555L1.08789 1.91992L1.13379 1.78418L1.37695 1.55176L1.69922 1.28027L1.74219 1.27734L1.75684 1.28223L1.87891 1.48633L1.96973 1.6377L2.14258 1.60352L2.32812 1.56641L2.50781 1.53027L2.52832 1.34863L2.56641 1.00586L2.5752 0.927734L2.53809 0.858398L2.30078 0.423828L2.24805 0.305664L2.39355 0.364258Z" fill="var(--fill-0, #71B219)" stroke="var(--stroke-0, white)" stroke-width="0.5"/>
</svg>
