<svg preserveAspectRatio="none" width="100%" height="100%" overflow="visible" style="display: block;" viewBox="0 0 0.440626 0.188122" fill="none" xmlns="http://www.w3.org/2000/svg">
<g id="MF">
<mask id="path-1-inside-1_0_237" fill="white">
<path d="M0.433713 0.188122H0L0.0317834 0.099569L0.233443 0L0.381232 0.00831501L0.440626 0.0442764L0.433713 0.188122Z"/>
</mask>
<path d="M0.433713 0.188122H0L0.0317834 0.099569L0.233443 0L0.381232 0.00831501L0.440626 0.0442764L0.433713 0.188122Z" fill="var(--fill-0, #71B219)"/>
<path d="M0.433713 0.188122V0.688122H0.91026L0.933136 0.212124L0.433713 0.188122ZM0 0.188122L-0.470605 0.0192118L-0.710691 0.688122H0V0.188122ZM0.0317834 0.099569L-0.189578 -0.34876L-0.370615 -0.259374L-0.438822 -0.0693409L0.0317834 0.099569ZM0.233443 0L0.26153 -0.499211L0.130109 -0.506605L0.0120823 -0.448329L0.233443 0ZM0.381232 0.00831501L0.6402 -0.419395L0.533664 -0.483899L0.409319 -0.490895L0.381232 0.00831501ZM0.440626 0.0442764L0.940049 0.0682783L0.954345 -0.229188L0.699593 -0.383434L0.440626 0.0442764ZM0.433713 0.188122V-0.311878H0V0.188122V0.688122H0.433713V0.188122ZM0 0.188122L0.470605 0.357032L0.502389 0.268479L0.0317834 0.099569L-0.438822 -0.0693409L-0.470605 0.0192118L0 0.188122ZM0.0317834 0.099569L0.253145 0.547898L0.454805 0.448329L0.233443 0L0.0120823 -0.448329L-0.189578 -0.34876L0.0317834 0.099569ZM0.233443 0L0.205356 0.499211L0.353145 0.507526L0.381232 0.00831501L0.409319 -0.490895L0.26153 -0.499211L0.233443 0ZM0.381232 0.00831501L0.122264 0.436025L0.181658 0.471986L0.440626 0.0442764L0.699593 -0.383434L0.6402 -0.419395L0.381232 0.00831501ZM0.440626 0.0442764L-0.0587979 0.0202744L-0.065711 0.16412L0.433713 0.188122L0.933136 0.212124L0.940049 0.0682783L0.440626 0.0442764Z" fill="var(--stroke-0, white)" mask="url(#path-1-inside-1_0_237)"/>
</g>
</svg>
