<svg preserveAspectRatio="none" width="100%" height="100%" overflow="visible" style="display: block;" viewBox="0 0 27.8963 54.6883" fill="none" xmlns="http://www.w3.org/2000/svg">
<g id="MG">
<mask id="path-1-inside-1_0_91" fill="white">
<path d="M24.2507 1.36752L24.4282 1.77766L24.6345 2.17131L25.2797 3.12325L25.5563 3.48948L25.7915 3.87903L25.9057 4.65679L26.317 5.86658L26.7036 7.68815L26.8219 9.56051L26.9416 10.4205L27.2428 11.2312L27.7367 12.0734L27.8963 13.0102L27.5936 13.9773L27.1575 14.8894L27.0448 15.0609L26.8398 15.2954L26.7476 15.2858L26.3982 15.0499L26.1121 14.6644L25.7503 13.7578L25.6182 13.2983L25.4669 13.2256L25.0431 13.2654L24.7364 13.5507L24.6799 13.7303L24.7459 14.242L24.8629 14.7015L24.9138 15.1692L24.9234 15.7577L25.0376 15.936L25.2055 16.0855L25.3801 16.4709L25.4104 17.3899L25.3031 17.855L25.0046 18.2555L25.0225 18.4763L25.1339 18.704L25.028 18.8412L24.6304 19.014L24.4694 19.1676L24.2548 19.575L23.9068 20.4062L23.86 20.8315L24.0774 22.1263L24.0169 23.0453L23.5739 24.8079L23.318 25.646L22.9562 26.6487L22.4031 27.9724L21.8557 29.6389L21.3907 31.3576L21.0467 32.3932L20.6561 33.4151L20.1209 35.2243L19.6669 37.0665L18.9914 39.0993L18.0587 41.3749L17.9583 41.6725L17.7644 42.8398L17.5552 43.8548L17.3048 44.8617L16.782 46.5296L16.7229 47.044L16.6046 47.5391L16.1011 48.5899L15.8879 48.9808L15.7379 49.3963L15.6526 49.9244L15.5027 50.4347L15.134 51.3743L14.5851 52.1836L14.2109 52.4785L13.402 52.9065L12.992 52.9929L12.0827 53.0025L11.2023 53.2466L10.2847 53.7158L9.40147 54.2549L9.06309 54.5113L8.69028 54.658L7.52366 54.6883L7.17428 54.5717L6.00623 53.6856L5.55366 53.5401L4.69662 53.4195L4.438 53.3441L4.20273 53.2288L3.85604 52.7666L3.16819 52.377L3.00312 52.255L2.89858 51.986L2.82704 51.6966L2.64819 51.373L2.51611 50.757L2.29193 50.3277L1.65908 49.5692L1.59165 49.3264L1.54077 48.5226L1.56143 47.9795L1.49954 46.9864L1.57242 46.52L1.79527 46.1003L1.7045 45.6463L1.46789 45.1689L1.37981 44.6765L1.2065 44.2279L0.543426 43.4214L0.387921 43.025L0.280613 42.6149L0.0302276 41.3378L0 40.8934L0.0371128 39.9552L0.129307 39.4724L0.290269 39.1363L0.330153 38.8853L0.43469 38.67L0.591538 38.4985L0.697503 38.2941L0.945117 37.1008L1.25873 36.836L1.72373 36.6837L2.09654 36.3724L2.31115 35.9527L2.52577 35.0872L3.11185 34.2299L3.32093 33.78L3.79416 33.0996L4.21239 32.145L4.33893 31.6951L4.42969 31.2355L4.53566 30.2274L4.61542 29.7267L4.59897 29.2302L4.35958 28.7212L3.78861 27.7981L3.77073 27.6267L3.81616 26.9409L3.76804 26.4457L3.55754 25.9519L3.28793 25.4882L3.02243 24.6214L2.89312 23.1907L2.92058 22.675L2.84215 22.2168L2.64962 21.7806L2.78716 21.0194L4.49435 18.2623L4.55077 17.9386L4.482 17.1005L4.51777 16.6136L4.57697 16.4325L4.70762 16.3269L4.99923 16.2762L6.37912 16.1568L6.55654 16.0718L6.90047 15.8413L7.3737 15.3942L7.59108 15.2653L7.77816 15.3133L7.89781 15.5039L8.05197 15.6082L8.60908 15.4065L8.82236 15.401L9.04109 15.434L9.14285 15.2474L9.20339 14.9978L9.28459 14.8222L9.43312 14.7221L10.1499 14.6672L10.608 14.5959L11.1995 14.4217L11.326 14.456L11.8035 15.0842L11.9479 15.1377L12.1336 15.1637L12.2959 15.0499L11.908 14.7221L11.8502 14.5369L11.8708 14.3257L12.0785 13.8744L12.4252 13.5301L13.1956 13.0075L13.9963 12.404L14.2288 12.3628L14.4256 12.4575L14.5769 13.1707L14.5575 13.2873L14.6855 13.3037L14.8341 13.216L14.9661 12.9293L14.973 12.6906L14.8657 12.4616L14.8135 12.2682L14.8094 12.0898L15.2152 11.6687L15.5343 11.2682L15.6815 10.7895L15.8095 10.5687L16.1465 10.3204L16.2456 10.3588L16.3239 10.5604L16.368 10.7744L16.2814 10.987L16.1589 11.1969L16.1094 11.4767L16.2992 11.5316L16.4781 11.4644L16.7394 10.9582L17.038 10.4795L17.2154 10.2298L17.4397 10.057L17.8125 10.0913L18.1743 10.1983L17.5841 9.69354L17.4369 9.00222L18.1385 7.8075L18.1454 7.55923L18.2472 7.48241L18.2954 7.38639L17.9321 6.98449L17.8634 6.78423L17.9116 6.48108L18.0849 6.21226L18.2431 6.02435L18.4673 5.95164L18.6447 6.05453L19.0354 6.3851L19.2982 6.43583L19.616 6.119L19.876 5.72258L20.2667 5.45099L20.7111 5.28226L21.3866 4.65817L21.8267 3.35507L21.8611 2.97511L21.7635 2.51561L21.608 2.07805L21.348 1.53211L21.4154 1.41143L21.7855 1.48414L21.9093 1.40733L22.311 0.924476L22.9727 0L23.1901 0.00133952L23.3771 0.172798L23.4473 0.426552L23.5794 0.613122L24.0265 1.05206L24.2507 1.36752ZM19.6312 5.0244L19.6366 5.16706L19.129 5.10808L19.0492 4.61564L19.2982 4.60053L19.3532 4.39893L19.5046 4.37423L19.6683 4.81179L19.6312 5.0244ZM25.7874 19.0524L25.354 19.7876L25.4764 19.1745L25.9786 18.2911L26.1216 18.2239L25.7874 19.0524Z"/>
</mask>
<path d="M24.2507 1.36752L24.4282 1.77766L24.6345 2.17131L25.2797 3.12325L25.5563 3.48948L25.7915 3.87903L25.9057 4.65679L26.317 5.86658L26.7036 7.68815L26.8219 9.56051L26.9416 10.4205L27.2428 11.2312L27.7367 12.0734L27.8963 13.0102L27.5936 13.9773L27.1575 14.8894L27.0448 15.0609L26.8398 15.2954L26.7476 15.2858L26.3982 15.0499L26.1121 14.6644L25.7503 13.7578L25.6182 13.2983L25.4669 13.2256L25.0431 13.2654L24.7364 13.5507L24.6799 13.7303L24.7459 14.242L24.8629 14.7015L24.9138 15.1692L24.9234 15.7577L25.0376 15.936L25.2055 16.0855L25.3801 16.4709L25.4104 17.3899L25.3031 17.855L25.0046 18.2555L25.0225 18.4763L25.1339 18.704L25.028 18.8412L24.6304 19.014L24.4694 19.1676L24.2548 19.575L23.9068 20.4062L23.86 20.8315L24.0774 22.1263L24.0169 23.0453L23.5739 24.8079L23.318 25.646L22.9562 26.6487L22.4031 27.9724L21.8557 29.6389L21.3907 31.3576L21.0467 32.3932L20.6561 33.4151L20.1209 35.2243L19.6669 37.0665L18.9914 39.0993L18.0587 41.3749L17.9583 41.6725L17.7644 42.8398L17.5552 43.8548L17.3048 44.8617L16.782 46.5296L16.7229 47.044L16.6046 47.5391L16.1011 48.5899L15.8879 48.9808L15.7379 49.3963L15.6526 49.9244L15.5027 50.4347L15.134 51.3743L14.5851 52.1836L14.2109 52.4785L13.402 52.9065L12.992 52.9929L12.0827 53.0025L11.2023 53.2466L10.2847 53.7158L9.40147 54.2549L9.06309 54.5113L8.69028 54.658L7.52366 54.6883L7.17428 54.5717L6.00623 53.6856L5.55366 53.5401L4.69662 53.4195L4.438 53.3441L4.20273 53.2288L3.85604 52.7666L3.16819 52.377L3.00312 52.255L2.89858 51.986L2.82704 51.6966L2.64819 51.373L2.51611 50.757L2.29193 50.3277L1.65908 49.5692L1.59165 49.3264L1.54077 48.5226L1.56143 47.9795L1.49954 46.9864L1.57242 46.52L1.79527 46.1003L1.7045 45.6463L1.46789 45.1689L1.37981 44.6765L1.2065 44.2279L0.543426 43.4214L0.387921 43.025L0.280613 42.6149L0.0302276 41.3378L0 40.8934L0.0371128 39.9552L0.129307 39.4724L0.290269 39.1363L0.330153 38.8853L0.43469 38.67L0.591538 38.4985L0.697503 38.2941L0.945117 37.1008L1.25873 36.836L1.72373 36.6837L2.09654 36.3724L2.31115 35.9527L2.52577 35.0872L3.11185 34.2299L3.32093 33.78L3.79416 33.0996L4.21239 32.145L4.33893 31.6951L4.42969 31.2355L4.53566 30.2274L4.61542 29.7267L4.59897 29.2302L4.35958 28.7212L3.78861 27.7981L3.77073 27.6267L3.81616 26.9409L3.76804 26.4457L3.55754 25.9519L3.28793 25.4882L3.02243 24.6214L2.89312 23.1907L2.92058 22.675L2.84215 22.2168L2.64962 21.7806L2.78716 21.0194L4.49435 18.2623L4.55077 17.9386L4.482 17.1005L4.51777 16.6136L4.57697 16.4325L4.70762 16.3269L4.99923 16.2762L6.37912 16.1568L6.55654 16.0718L6.90047 15.8413L7.3737 15.3942L7.59108 15.2653L7.77816 15.3133L7.89781 15.5039L8.05197 15.6082L8.60908 15.4065L8.82236 15.401L9.04109 15.434L9.14285 15.2474L9.20339 14.9978L9.28459 14.8222L9.43312 14.7221L10.1499 14.6672L10.608 14.5959L11.1995 14.4217L11.326 14.456L11.8035 15.0842L11.9479 15.1377L12.1336 15.1637L12.2959 15.0499L11.908 14.7221L11.8502 14.5369L11.8708 14.3257L12.0785 13.8744L12.4252 13.5301L13.1956 13.0075L13.9963 12.404L14.2288 12.3628L14.4256 12.4575L14.5769 13.1707L14.5575 13.2873L14.6855 13.3037L14.8341 13.216L14.9661 12.9293L14.973 12.6906L14.8657 12.4616L14.8135 12.2682L14.8094 12.0898L15.2152 11.6687L15.5343 11.2682L15.6815 10.7895L15.8095 10.5687L16.1465 10.3204L16.2456 10.3588L16.3239 10.5604L16.368 10.7744L16.2814 10.987L16.1589 11.1969L16.1094 11.4767L16.2992 11.5316L16.4781 11.4644L16.7394 10.9582L17.038 10.4795L17.2154 10.2298L17.4397 10.057L17.8125 10.0913L18.1743 10.1983L17.5841 9.69354L17.4369 9.00222L18.1385 7.8075L18.1454 7.55923L18.2472 7.48241L18.2954 7.38639L17.9321 6.98449L17.8634 6.78423L17.9116 6.48108L18.0849 6.21226L18.2431 6.02435L18.4673 5.95164L18.6447 6.05453L19.0354 6.3851L19.2982 6.43583L19.616 6.119L19.876 5.72258L20.2667 5.45099L20.7111 5.28226L21.3866 4.65817L21.8267 3.35507L21.8611 2.97511L21.7635 2.51561L21.608 2.07805L21.348 1.53211L21.4154 1.41143L21.7855 1.48414L21.9093 1.40733L22.311 0.924476L22.9727 0L23.1901 0.00133952L23.3771 0.172798L23.4473 0.426552L23.5794 0.613122L24.0265 1.05206L24.2507 1.36752ZM19.6312 5.0244L19.6366 5.16706L19.129 5.10808L19.0492 4.61564L19.2982 4.60053L19.3532 4.39893L19.5046 4.37423L19.6683 4.81179L19.6312 5.0244ZM25.7874 19.0524L25.354 19.7876L25.4764 19.1745L25.9786 18.2911L26.1216 18.2239L25.7874 19.0524Z" fill="var(--fill-0, #71B219)" stroke="var(--stroke-0, white)" mask="url(#path-1-inside-1_0_91)"/>
</g>
</svg>
