<svg preserveAspectRatio="none" width="100%" height="100%" overflow="visible" style="display: block;" viewBox="0 0 28 55" fill="none" xmlns="http://www.w3.org/2000/svg"><g id="MG"><mask id="path-1-inside-1_0_91" fill="white"><path d="M24 1L24 2L25 2L25 3L26 4L26 4L26 5L26 6L27 8L27 10L27 10L27 11L28 12L28 13L28 14L27 15L27 15L27 15L27 15L26 15L26 15L26 14L26 13L26 13L25 13L25 14L25 14L25 14L25 15L25 15L25 16L25 16L25 16L25 16L25 17L25 18L25 18L25 18L25 19L25 19L25 19L24 19L24 20L24 20L24 21L24 22L24 23L24 25L23 26L23 27L22 28L22 30L21 31L21 32L21 33L20 35L20 37L19 39L18 41L18 42L18 43L18 44L17 45L17 46L17 47L17 48L16 49L16 49L16 49L16 50L16 50L15 51L15 52L14 52L13 53L13 53L12 53L11 53L10 54L9 54L9 54L9 55L8 55L7 55L6 54L6 54L5 53L4 53L4 53L4 53L3 52L3 52L3 52L3 52L3 51L2 51L2 50L2 50L2 49L2 48L2 48L2 47L2 46L2 46L2 46L2 45L1 45L1 44L0 43L0 43L0 43L0 41L0 41L0 40L0 40L0 39L0 39L0 39L1 38L1 38L1 37L1 37L2 37L2 36L2 36L2 35L3 34L3 34L4 33L4 32L4 32L4 31L4 30L5 30L5 29L4 29L4 28L4 28L4 27L4 26L4 26L3 26L3 25L3 23L3 23L3 22L3 22L3 21L4 18L5 18L4 17L4 17L5 16L5 16L5 16L6 16L7 16L7 16L7 15L8 15L8 15L8 16L8 16L9 15L9 15L9 15L9 15L9 15L9 15L9 15L10 15L11 15L11 14L11 14L12 15L12 15L12 15L12 15L12 15L12 14L12 14L12 14L12 14L13 13L14 12L14 12L14 12L15 13L15 13L15 13L15 13L15 13L15 13L15 12L15 12L15 12L15 12L16 11L16 11L16 11L16 10L16 10L16 11L16 11L16 11L16 11L16 12L16 12L16 12L17 11L17 10L17 10L17 10L18 10L18 10L18 10L17 9L18 8L18 8L18 8L18 7L18 7L18 7L18 6L18 6L18 6L18 6L19 6L19 6L19 6L20 6L20 6L20 6L21 5L21 5L22 3L22 3L22 2L22 2L21 2L21 1L22 2L22 1L22 1L23 0L23 0L23 0L23 0L24 1L24 1L24 1ZM20 5L20 5L19 5L19 5L19 5L19 4L20 4L20 5L20 5ZM26 19L25 20L26 19L26 18L26 18L26 19Z"/></mask><path d="M24 1L24 2L25 2L25 3L26 4L26 4L26 5L26 6L27 8L27 10L27 10L27 11L28 12L28 13L28 14L27 15L27 15L27 15L27 15L26 15L26 15L26 14L26 13L26 13L25 13L25 14L25 14L25 14L25 15L25 15L25 16L25 16L25 16L25 16L25 17L25 18L25 18L25 18L25 19L25 19L25 19L24 19L24 20L24 20L24 21L24 22L24 23L24 25L23 26L23 27L22 28L22 30L21 31L21 32L21 33L20 35L20 37L19 39L18 41L18 42L18 43L18 44L17 45L17 46L17 47L17 48L16 49L16 49L16 49L16 50L16 50L15 51L15 52L14 52L13 53L13 53L12 53L11 53L10 54L9 54L9 54L9 55L8 55L7 55L6 54L6 54L5 53L4 53L4 53L4 53L3 52L3 52L3 52L3 52L3 51L2 51L2 50L2 50L2 49L2 48L2 48L2 47L2 46L2 46L2 46L2 45L1 45L1 44L0 43L0 43L0 43L0 41L0 41L0 40L0 40L0 39L0 39L0 39L1 38L1 38L1 37L1 37L2 37L2 36L2 36L2 35L3 34L3 34L4 33L4 32L4 32L4 31L4 30L5 30L5 29L4 29L4 28L4 28L4 27L4 26L4 26L3 26L3 25L3 23L3 23L3 22L3 22L3 21L4 18L5 18L4 17L4 17L5 16L5 16L5 16L6 16L7 16L7 16L7 15L8 15L8 15L8 16L8 16L9 15L9 15L9 15L9 15L9 15L9 15L9 15L10 15L11 15L11 14L11 14L12 15L12 15L12 15L12 15L12 15L12 14L12 14L12 14L12 14L13 13L14 12L14 12L14 12L15 13L15 13L15 13L15 13L15 13L15 13L15 12L15 12L15 12L15 12L16 11L16 11L16 11L16 10L16 10L16 11L16 11L16 11L16 11L16 12L16 12L16 12L17 11L17 10L17 10L17 10L18 10L18 10L18 10L17 9L18 8L18 8L18 8L18 7L18 7L18 7L18 6L18 6L18 6L18 6L19 6L19 6L19 6L20 6L20 6L20 6L21 5L21 5L22 3L22 3L22 2L22 2L21 2L21 1L22 2L22 1L22 1L23 0L23 0L23 0L23 0L24 1L24 1L24 1ZM20 5L20 5L19 5L19 5L19 5L19 4L20 4L20 5L20 5ZM26 19L25 20L26 19L26 18L26 18L26 19Z" fill="var(--fill-0,#71B219)" stroke="var(--stroke-0,white)" mask="url(#path-1-inside-1_0_91)"/></g></svg>