<svg preserveAspectRatio="none" width="100%" height="100%" overflow="visible" style="display: block;" viewBox="0 0 19 21" fill="none" xmlns="http://www.w3.org/2000/svg"><g id="MH"><mask id="path-1-inside-1_0_111" fill="white"><path d="M0 0L0 0L0 0L0 0L0 0L0 0L0 0ZM8 15L8 15L7 15L7 15L7 15L7 15L8 15ZM16 16L17 16L18 16L18 16L17 16L17 16H17L17 16L16 16L16 16L16 16L16 16ZM18 16L18 16L19 16L19 16L19 16L19 16L19 16L18 16L18 16L18 16ZM11 21L11 21L11 21L11 21L11 21L11 20L11 20L11 20L11 20L11 20L11 21Z"/></mask><path d="M0 0L0 0L0 0L0 0L0 0L0 0L0 0ZM8 15L8 15L7 15L7 15L7 15L7 15L8 15ZM16 16L17 16L18 16L18 16L17 16L17 16H17L17 16L16 16L16 16L16 16L16 16ZM18 16L18 16L19 16L19 16L19 16L19 16L19 16L18 16L18 16L18 16ZM11 21L11 21L11 21L11 21L11 21L11 20L11 20L11 20L11 20L11 20L11 21Z" fill="var(--fill-0,#71B219)"/><path d="M0 0L0 0L0 0L1 0L0 0ZM0 0L0 1L0 1L0 1L0 0ZM0 0L0 0L-1 0L0 0L0 0ZM0 0L0 0L0 0L0 0L0 0ZM0 0L0 0L0 0L0 0L0 0ZM0 0L1 0L1 0L0 0L0 0ZM8 15L8 15L9 15L8 14L8 15ZM8 15L8 16L8 16L8 15L8 15ZM7 15L7 15L7 16L7 16L7 15ZM7 15L7 15L6 15L7 15L7 15ZM7 15L7 14L7 14L7 15L7 15ZM7 15L8 14L8 14L7 15ZM16 16L16 16L16 16L16 16L16 16ZM17 16L17 16L17 16L17 16L17 16ZM18 16L18 16L18 15L18 16ZM18 16L18 16L18 16L18 16L18 16ZM17 16L17 15L17 15L17 15L17 16ZM17 16V16H17L17 16L17 16ZM17 16L17 16L17 16H17V16ZM17 16L17 16L17 16L17 16L17 16ZM16 16L16 16L16 16L16 16L16 16ZM16 16L16 15L15 16L16 16L16 16ZM16 16L16 15L16 15L16 15L16 16ZM18 16L18 16L17 15L18 16L18 16ZM18 16L18 16L18 16L18 16L18 16ZM19 16L19 16L19 16L19 16L19 16ZM19 16L19 17L21 17L19 16L19 16ZM19 16L19 17L19 17L19 17L19 16ZM19 16L19 16L19 16L19 16L19 16ZM19 16L19 16L19 16L19 16L19 16ZM18 16L18 17L18 17L18 17L18 16ZM18 16L18 16L18 16L18 16L18 16ZM11 21L11 21L11 21L11 21L11 21ZM11 21L11 21L11 21L11 21L11 21ZM11 21L10 20L10 21L11 21L11 21ZM11 21L11 21L11 21L11 21L11 21ZM11 21L11 21L11 21L11 21L11 21ZM11 20L11 20L10 20L10 20L11 20ZM11 20L11 20L11 20L11 20L11 20ZM11 20L12 20L12 18L11 20L11 20ZM11 20L11 20L12 20L12 20L11 20ZM11 20L11 20L10 20L10 20L11 20ZM0 0L0 0L0 0L0 0L0 1L0 0L0 0ZM0 0L0 0L0 0L0 0L0 0L0 1L0 0ZM0 0L0 0L0 0L0 0L0 0L0 0L0 0ZM0 0L0 0L0 0L0 0L0 0L0 0L0 0ZM0 0L0 0L0 0L0 0L0 0L0 0L0 0ZM0 0L0 0L0 0L0 0L1 0L1 0L0 0ZM8 15L7 15L7 15L8 15L8 15L8 15L8 15ZM8 15L8 14L7 14L7 15L7 16L8 16L8 15ZM7 15L7 14L7 14L7 15L7 15L7 15L7 15ZM7 15L8 15L8 15L7 15L7 15L7 15L7 15ZM7 15L7 15L7 15L7 15L8 14L7 14L7 15ZM7 15L7 15L8 15L8 15L8 14L8 14L7 15ZM16 16L16 16L17 16L17 16L17 15L17 15L16 16ZM17 16L17 16L18 16L18 16L18 15L17 15L17 16ZM18 16L17 15L17 15L18 16L18 16L18 16L18 16ZM18 16L17 15L17 15L17 16L17 16L18 16L18 16ZM17 16L17 15L17 15L17 16L17 16L17 16L17 16ZM17 16V15H17V16V16H17V16ZM17 16L17 15L17 15L17 16L17 16L17 16L17 16ZM17 16L17 15L17 15L16 16L16 16L17 16L17 16ZM16 16L17 15L16 15L16 16L16 16L16 16L16 16ZM16 16L16 16L17 16L16 16L16 15L16 15L16 16ZM16 16L16 16L16 16L16 16L17 15L16 15L16 16ZM18 16L18 16L18 16L18 16L19 16L18 16L18 16ZM18 16L18 16L19 16L19 16L19 16L18 16L18 16ZM19 16L18 16L19 17L19 16L19 16L19 16L19 16ZM19 16L19 16L19 16L19 16L19 17L19 17L19 16ZM19 16L19 16L19 16L19 16L18 17L19 17L19 16ZM19 16L19 16L19 16L19 16L18 17L19 17L19 16ZM19 16L19 16L18 16L18 16L18 17L19 17L19 16ZM18 16L19 16L18 16L18 16L18 16L18 17L18 16ZM18 16L19 16L19 16L18 16L18 16L18 16L18 16ZM11 21L10 20L10 20L11 21L11 21L11 21L11 21ZM11 21L11 20L11 20L11 21L11 21L11 21L11 21ZM11 21L11 21L11 21L11 21L10 20L10 20L11 21ZM11 21L11 21L11 21L11 21L10 20L10 20L11 21ZM11 21L11 21L11 20L11 20L10 20L10 20L11 21ZM11 20L11 21L11 20L11 20L11 20L11 20L11 20ZM11 20L11 20L12 20L11 20L11 20L11 20L11 20ZM11 20L11 20L11 20L11 20L12 20L12 20L11 20ZM11 20L11 20L11 20L11 20L11 21L11 20L11 20ZM11 20L10 20L10 20L11 21L11 21L11 20L11 20Z" fill="var(--stroke-0,white)" mask="url(#path-1-inside-1_0_111)"/></g></svg>