<svg preserveAspectRatio="none" width="100%" height="100%" overflow="visible" style="display: block;" viewBox="0 0 18.9626 20.7656" fill="none" xmlns="http://www.w3.org/2000/svg">
<g id="MH">
<mask id="path-1-inside-1_0_111" fill="white">
<path d="M0.176076 0.0589806L0.0756531 0.0864407L0 0.0589806L0.0549975 0.0082464L0.167847 0L0.210502 0.01373L0.176076 0.0589806ZM7.66674 14.9566L7.61031 15.0156L7.2375 14.9799L7.06688 14.9059L7.08343 14.8497L7.37781 14.9031L7.66674 14.9566ZM16.4368 15.615L16.921 15.8126L17.5649 15.7207L17.4617 15.7796L17.2209 15.8345L17.0613 15.8825H16.954L16.8261 15.8633L16.4134 15.7261L16.1823 15.5451L16.2387 15.4847L16.4368 15.615ZM18.2719 15.9621L18.415 16.0457L18.6998 16.0403L18.9626 16.2529L18.8621 16.2392L18.7191 16.1486L18.5883 16.1102L18.4122 16.1212L18.3297 16.0869L18.2719 15.9621ZM10.773 20.6504L10.696 20.7657L10.6011 20.7574L10.685 20.671L10.7427 20.5503L10.8349 20.2074L11.0262 20.0853L11.1582 19.9426L11.1266 20.0908L10.9202 20.2458L10.773 20.6504Z"/>
</mask>
<path d="M0.176076 0.0589806L0.0756531 0.0864407L0 0.0589806L0.0549975 0.0082464L0.167847 0L0.210502 0.01373L0.176076 0.0589806ZM7.66674 14.9566L7.61031 15.0156L7.2375 14.9799L7.06688 14.9059L7.08343 14.8497L7.37781 14.9031L7.66674 14.9566ZM16.4368 15.615L16.921 15.8126L17.5649 15.7207L17.4617 15.7796L17.2209 15.8345L17.0613 15.8825H16.954L16.8261 15.8633L16.4134 15.7261L16.1823 15.5451L16.2387 15.4847L16.4368 15.615ZM18.2719 15.9621L18.415 16.0457L18.6998 16.0403L18.9626 16.2529L18.8621 16.2392L18.7191 16.1486L18.5883 16.1102L18.4122 16.1212L18.3297 16.0869L18.2719 15.9621ZM10.773 20.6504L10.696 20.7657L10.6011 20.7574L10.685 20.671L10.7427 20.5503L10.8349 20.2074L11.0262 20.0853L11.1582 19.9426L11.1266 20.0908L10.9202 20.2458L10.773 20.6504Z" fill="var(--fill-0, #71B219)"/>
<path d="M0.176076 0.0589806L0.307957 0.541275L0.471407 0.49658L0.574007 0.36172L0.176076 0.0589806ZM0.0756531 0.0864407L-0.0949435 0.556437L0.0543421 0.610624L0.207534 0.568735L0.0756531 0.0864407ZM0 0.0589806L-0.339022 -0.30853L-0.942989 0.248619L-0.170597 0.528977L0 0.0589806ZM0.0549975 0.0082464L0.0185576 -0.490424L-0.155642 -0.477694L-0.284024 -0.359264L0.0549975 0.0082464ZM0.167847 0L0.321051 -0.47595L0.22844 -0.505761L0.131407 -0.49867L0.167847 0ZM0.210502 0.01373L0.608433 0.31647L1.03617 -0.245761L0.363705 -0.46222L0.210502 0.01373ZM7.66674 14.9566L8.02803 15.3023L8.66783 14.6335L7.75777 14.465L7.66674 14.9566ZM7.61031 15.0156L7.5627 15.5133L7.80402 15.5364L7.9716 15.3612L7.61031 15.0156ZM7.2375 14.9799L7.03844 15.4386L7.11107 15.4701L7.18989 15.4777L7.2375 14.9799ZM7.06688 14.9059L6.58722 14.7648L6.4625 15.1886L6.86782 15.3646L7.06688 14.9059ZM7.08343 14.8497L7.17276 14.3577L6.73061 14.2774L6.60376 14.7085L7.08343 14.8497ZM7.37781 14.9031L7.46884 14.4115L7.46714 14.4112L7.37781 14.9031ZM16.4368 15.615L16.162 16.0328L16.2027 16.0596L16.2479 16.078L16.4368 15.615ZM16.921 15.8126L16.7321 16.2755L16.8576 16.3267L16.9917 16.3076L16.921 15.8126ZM17.5649 15.7207L17.813 16.1548L17.4942 15.2257L17.5649 15.7207ZM17.4617 15.7796L17.5728 16.2671L17.6453 16.2506L17.7098 16.2137L17.4617 15.7796ZM17.2209 15.8345L17.1098 15.347L17.0932 15.3508L17.0769 15.3557L17.2209 15.8345ZM17.0613 15.8825V16.3825H17.1349L17.2053 16.3613L17.0613 15.8825ZM16.954 15.8825L16.8797 16.377L16.9167 16.3825H16.954V15.8825ZM16.8261 15.8633L16.6684 16.3378L16.7093 16.3514L16.7518 16.3578L16.8261 15.8633ZM16.4134 15.7261L16.105 16.1197L16.1733 16.1733L16.2557 16.2006L16.4134 15.7261ZM16.1823 15.5451L15.817 15.2037L15.4445 15.6022L15.8739 15.9387L16.1823 15.5451ZM16.2387 15.4847L16.5135 15.067L16.1613 14.8353L15.8734 15.1433L16.2387 15.4847ZM18.2719 15.9621L18.5244 15.5305L17.149 14.7261L17.8182 16.1721L18.2719 15.9621ZM18.415 16.0457L18.1626 16.4773L18.284 16.5484L18.4246 16.5456L18.415 16.0457ZM18.6998 16.0403L19.0144 15.6516L18.8726 15.5368L18.6902 15.5403L18.6998 16.0403ZM18.9626 16.2529L18.895 16.7483L20.6683 16.99L19.2771 15.8642L18.9626 16.2529ZM18.8621 16.2392L18.5948 16.6617L18.6867 16.7199L18.7946 16.7346L18.8621 16.2392ZM18.719 16.1486L18.9864 15.7261L18.9272 15.6887L18.8601 15.6689L18.719 16.1486ZM18.5883 16.1102L18.7293 15.6305L18.645 15.6057L18.5572 15.6112L18.5883 16.1102ZM18.4122 16.1212L18.2204 16.5829L18.3276 16.6274L18.4433 16.6202L18.4122 16.1212ZM18.3297 16.0869L17.8759 16.2969L17.9578 16.4738L18.1379 16.5486L18.3297 16.0869ZM10.773 20.6504L11.1886 20.9284L11.2223 20.8781L11.2429 20.8213L10.773 20.6504ZM10.696 20.7656L10.6527 21.2638L10.9472 21.2894L11.1116 21.0436L10.696 20.7656ZM10.6011 20.7574L10.2423 20.4091L9.50908 21.1644L10.5578 21.2555L10.6011 20.7574ZM10.685 20.671L11.0437 21.0193L11.1007 20.9606L11.136 20.8868L10.685 20.671ZM10.7427 20.5503L11.1938 20.7661L11.2136 20.7246L11.2256 20.6801L10.7427 20.5503ZM10.8349 20.2074L10.566 19.7859L10.4024 19.8902L10.3521 20.0775L10.8349 20.2074ZM11.0262 20.0853L11.2952 20.5068L11.3495 20.4721L11.3932 20.4249L11.0262 20.0853ZM11.1582 19.9426L11.6472 20.0469L12.0263 18.2682L10.7912 19.6031L11.1582 19.9426ZM11.1266 20.0908L11.4269 20.4906L11.5766 20.3781L11.6156 20.195L11.1266 20.0908ZM10.9202 20.2458L10.62 19.846L10.5012 19.9352L10.4504 20.0749L10.9202 20.2458ZM0.176076 0.0589806L0.0441953 -0.423313L-0.0562276 -0.395853L0.0756531 0.0864407L0.207534 0.568735L0.307957 0.541275L0.176076 0.0589806ZM0.0756531 0.0864407L0.24625 -0.383556L0.170597 -0.411016L0 0.0589806L-0.170597 0.528977L-0.0949435 0.556437L0.0756531 0.0864407ZM0 0.0589806L0.339022 0.426491L0.394019 0.375757L0.0549975 0.0082464L-0.284024 -0.359264L-0.339022 -0.30853L0 0.0589806ZM0.0549975 0.0082464L0.0914374 0.506917L0.204287 0.49867L0.167847 0L0.131407 -0.49867L0.0185576 -0.490424L0.0549975 0.0082464ZM0.167847 0L0.014644 0.47595L0.0572985 0.48968L0.210502 0.01373L0.363705 -0.46222L0.321051 -0.47595L0.167847 0ZM0.210502 0.01373L-0.187429 -0.289009L-0.221855 -0.243759L0.176076 0.0589806L0.574007 0.36172L0.608433 0.31647L0.210502 0.01373ZM7.66674 14.9566L7.30544 14.611L7.24902 14.67L7.61031 15.0156L7.9716 15.3612L8.02803 15.3023L7.66674 14.9566ZM7.61031 15.0156L7.65793 14.5179L7.28512 14.4822L7.2375 14.9799L7.18989 15.4777L7.5627 15.5133L7.61031 15.0156ZM7.2375 14.9799L7.43657 14.5213L7.26595 14.4472L7.06688 14.9059L6.86782 15.3646L7.03844 15.4386L7.2375 14.9799ZM7.06688 14.9059L7.54655 15.047L7.56309 14.9908L7.08343 14.8497L6.60376 14.7085L6.58722 14.7648L7.06688 14.9059ZM7.08343 14.8497L6.9941 15.3416L7.28848 15.3951L7.37781 14.9031L7.46714 14.4112L7.17276 14.3577L7.08343 14.8497ZM7.37781 14.9031L7.28678 15.3948L7.5757 15.4483L7.66674 14.9566L7.75777 14.465L7.46884 14.4115L7.37781 14.9031ZM16.4368 15.615L16.2479 16.078L16.7321 16.2755L16.921 15.8126L17.1099 15.3496L16.6256 15.1521L16.4368 15.615ZM16.921 15.8126L16.9917 16.3076L17.6355 16.2156L17.5649 15.7207L17.4942 15.2257L16.8503 15.3176L16.921 15.8126ZM17.5649 15.7207L17.3167 15.2866L17.2136 15.3455L17.4617 15.7796L17.7098 16.2137L17.813 16.1548L17.5649 15.7207ZM17.4617 15.7796L17.3505 15.2921L17.1098 15.347L17.2209 15.8345L17.3321 16.322L17.5728 16.2671L17.4617 15.7796ZM17.2209 15.8345L17.0769 15.3557L16.9173 15.4037L17.0613 15.8825L17.2053 16.3613L17.365 16.3133L17.2209 15.8345ZM17.0613 15.8825V15.3825H16.954V15.8825V16.3825H17.0613V15.8825ZM16.954 15.8825L17.0283 15.3881L16.9004 15.3689L16.8261 15.8633L16.7518 16.3578L16.8797 16.377L16.954 15.8825ZM16.8261 15.8633L16.9838 15.3888L16.571 15.2517L16.4134 15.7261L16.2557 16.2006L16.6684 16.3378L16.8261 15.8633ZM16.4134 15.7261L16.7217 15.3326L16.4907 15.1515L16.1823 15.5451L15.8739 15.9387L16.105 16.1197L16.4134 15.7261ZM16.1823 15.5451L16.5475 15.8865L16.604 15.8262L16.2387 15.4847L15.8734 15.1433L15.817 15.2037L16.1823 15.5451ZM16.2387 15.4847L15.9639 15.9024L16.162 16.0328L16.4368 15.615L16.7116 15.1973L16.5135 15.067L16.2387 15.4847ZM18.2719 15.9621L18.0195 16.3937L18.1626 16.4773L18.415 16.0457L18.6674 15.6141L18.5244 15.5305L18.2719 15.9621ZM18.415 16.0457L18.4246 16.5456L18.7094 16.5402L18.6998 16.0403L18.6902 15.5403L18.4054 15.5458L18.415 16.0457ZM18.6998 16.0403L18.3853 16.4289L18.648 16.6415L18.9626 16.2529L19.2771 15.8642L19.0144 15.6516L18.6998 16.0403ZM18.9626 16.2529L19.0301 15.7574L18.9297 15.7438L18.8621 16.2392L18.7946 16.7346L18.895 16.7483L18.9626 16.2529ZM18.8621 16.2392L19.1295 15.8167L18.9864 15.7261L18.719 16.1486L18.4517 16.5711L18.5948 16.6617L18.8621 16.2392ZM18.719 16.1486L18.8601 15.6689L18.7293 15.6305L18.5883 16.1102L18.4473 16.5899L18.578 16.6283L18.719 16.1486ZM18.5883 16.1102L18.5572 15.6112L18.3812 15.6221L18.4122 16.1212L18.4433 16.6202L18.6194 16.6092L18.5883 16.1102ZM18.4122 16.1212L18.604 15.6594L18.5215 15.6251L18.3297 16.0869L18.1379 16.5486L18.2204 16.5829L18.4122 16.1212ZM18.3297 16.0869L18.7835 15.8769L18.7257 15.7521L18.2719 15.9621L17.8182 16.1721L17.8759 16.2969L18.3297 16.0869ZM10.773 20.6504L10.3574 20.3724L10.2804 20.4877L10.696 20.7656L11.1116 21.0436L11.1886 20.9284L10.773 20.6504ZM10.696 20.7656L10.7393 20.2675L10.6444 20.2593L10.6011 20.7574L10.5578 21.2555L10.6527 21.2638L10.696 20.7656ZM10.6011 20.7574L10.9598 21.1057L11.0437 21.0193L10.685 20.671L10.3262 20.3227L10.2423 20.4091L10.6011 20.7574ZM10.685 20.671L11.136 20.8868L11.1938 20.7661L10.7427 20.5503L10.2917 20.3345L10.2339 20.4552L10.685 20.671ZM10.7427 20.5503L11.2256 20.6801L11.3178 20.3372L10.8349 20.2074L10.3521 20.0775L10.2599 20.4205L10.7427 20.5503ZM10.8349 20.2074L11.1039 20.6289L11.2952 20.5068L11.0262 20.0853L10.7572 19.6638L10.566 19.7859L10.8349 20.2074ZM11.0262 20.0853L11.3932 20.4249L11.5252 20.2822L11.1582 19.9426L10.7912 19.6031L10.6592 19.7457L11.0262 20.0853ZM11.1582 19.9426L10.6692 19.8384L10.6376 19.9866L11.1266 20.0908L11.6156 20.195L11.6472 20.0469L11.1582 19.9426ZM11.1266 20.0908L10.8264 19.691L10.62 19.846L10.9202 20.2458L11.2205 20.6456L11.4269 20.4906L11.1266 20.0908ZM10.9202 20.2458L10.4504 20.0749L10.3032 20.4795L10.773 20.6504L11.2429 20.8213L11.3901 20.4167L10.9202 20.2458Z" fill="var(--stroke-0, white)" mask="url(#path-1-inside-1_0_111)"/>
</g>
</svg>
