<svg preserveAspectRatio="none" width="100%" height="100%" overflow="visible" style="display: block;" viewBox="0 0 10 8" fill="none" xmlns="http://www.w3.org/2000/svg"><path id="MK" d="M7 0L7 0L7 0L7 0L8 1L8 1L8 1L8 2L8 2L8 2L8 2L8 2L8 2L9 2L9 2L9 3L9 3L9 3L9 3L9 3L10 3L10 3L9 4L9 4L9 4L9 5H9L9 5L9 5L9 5L9 5L9 5L9 5L9 5L9 6L8 6L8 6L8 6L7 6L7 6L7 6L7 6L7 6L7 6L6 6L6 6L6 6L6 6L6 6L6 6L6 6L5 7L4 7L4 7L4 7L4 7L4 7L4 7L4 7L4 7L4 7L3 7L3 7L3 7L3 7L2 8L2 8L2 7L2 7L2 7L2 7L2 7L2 7L1 7L1 7L1 6L1 6L1 6L1 6L0 6L0 5L0 5L0 5L0 5L0 4L0 4L0 4L0 4L0 4L0 4V4L0 4L0 3L1 3L1 3L1 3L1 3L1 3L1 3L1 3L1 2L1 2L1 2L1 2L2 2L2 1L3 1L3 1L3 1L3 1L3 2L3 2L3 2L3 2L3 2L4 1L4 1L4 1L4 1L4 1L4 1L4 1L5 1L5 1L5 1L5 1L5 0L6 0L6 0L6 0L6 0L6 0L6 0L6 0L6 0L7 0L7 0L7 0L7 0L7 0Z" fill="var(--fill-0,#71B219)" stroke="var(--stroke-0,white)" stroke-width="0"/></svg>