<svg preserveAspectRatio="none" width="100%" height="100%" overflow="visible" style="display: block;" viewBox="0 0 9.87335 7.73621" fill="none" xmlns="http://www.w3.org/2000/svg">
<path id="MK" d="M7.04492 0.37207L7.08008 0.405273L7.12598 0.422852L7.16309 0.436523L7.7168 1.15234L7.72754 1.16797L7.74121 1.18066L8.06738 1.49316L8.08691 1.51172L8.10938 1.52539L8.49316 1.76172L8.51172 1.77344L8.53223 1.78125L8.91992 1.93359L9.00195 2.01855L9.26367 2.7832L9.26758 2.79199L9.27051 2.80078L9.4043 3.11133L9.44043 3.19531L9.52344 3.23633L9.61719 3.28223L9.42969 3.79688L9.41699 3.83105L9.41504 3.86621L9.33789 5.00586H9.2998L9.28418 5.00684L8.99316 5.03516L8.91113 5.04199L8.84961 5.09766L8.73926 5.19629L8.6748 5.25488L8.66016 5.33984L8.56543 5.88867L8.24414 6.02246L7.87012 6.11914L7.5791 6.09863L6.96973 5.94238L6.94922 5.9375L6.92871 5.93555L6.72363 5.91797L6.65137 5.91211L6.58691 5.94531L6.4541 6.01367L5.94141 6.05957L5.89648 6.06348L5.85449 6.08301L5.6084 6.20312L5.55176 6.23047L5.51465 6.28125L4.97266 7.02734L4.44531 7.27539L4.42676 7.28418L4.41016 7.2959L4.31836 7.3584L3.99609 7.23145L3.96191 7.21875L3.92676 7.21582L3.62598 7.18848L3.55273 7.23633L3.30078 7.40039L2.69141 7.41895L2.6709 7.41992L2.65137 7.42383L2.4834 7.45605L2.16992 7.47461L2.08594 7.33594L2.03613 7.25488L1.94629 7.22656L1.70117 7.15137L1.64941 7.13574L1.5957 7.14258L1.22266 7.19043L1.04004 6.58789L1.01367 6.50391L0.941406 6.4541L0.8125 6.36719L0.678711 6.19727L0.405273 5.53516L0.398438 5.2627L0.418945 4.99707L0.421875 4.95703L0.411133 4.91699L0.267578 4.35645L0.289062 4.32227L0.401367 4.24805L0.510742 4.1748L0.511719 4.04199L0.512695 3.77344V3.75879L0.511719 3.74512L0.470703 3.37988L0.603516 2.81055L0.915039 2.85547L1.02832 2.87109L1.11426 2.7959L1.23145 2.69531L1.27148 2.66016L1.29395 2.61133L1.36816 2.45312L1.38965 2.40723L1.3916 2.35645L1.41309 1.80957L1.46777 1.66992L2.42383 1.21387L2.58301 1.2041L2.75 1.36719L2.75977 1.37598L2.77051 1.38477L2.96387 1.53711L3.03711 1.59375L3.12988 1.58984L3.24707 1.58398L3.42773 1.57617L3.47656 1.40234L3.5127 1.27051L3.6123 1.0459L3.73926 0.949219L4.30566 0.826172L4.4834 0.849609L4.53516 0.856445L4.58496 0.842773L5.05176 0.709961L5.08594 0.700195L5.11621 0.680664L5.36621 0.522461L5.46875 0.503906L5.48828 0.5L5.50684 0.493164L5.65918 0.438477L5.86426 0.445312L6.12402 0.517578L6.19238 0.537109L6.25977 0.517578L6.62598 0.412109L6.64551 0.40625L6.66406 0.397461L6.93359 0.267578L7.04492 0.37207Z" fill="var(--fill-0, #71B219)" stroke="var(--stroke-0, white)" stroke-width="0.5"/>
</svg>
