<svg preserveAspectRatio="none" width="100%" height="100%" overflow="visible" style="display: block;" viewBox="0 0 64 60" fill="none" xmlns="http://www.w3.org/2000/svg"><g id="ML"><mask id="path-1-inside-1_0_84" fill="white"><path d="M64 24L64 25L64 26L64 27L64 28L64 30L64 30L64 32L64 33L64 33L64 34L64 34L63 35L63 36L63 37L63 37L62 37L62 37L62 38L62 38L62 38L62 38L61 39L61 39L60 39L59 39L59 39L59 39L59 39L58 40L57 40L56 40L55 40L54 40L52 40L52 40L51 41L51 41L50 41L49 41L48 41L48 41L48 41L47 41L46 40L46 41L46 41L46 40L45 40L45 40L44 41L44 41L44 41L43 42L43 42L42 42L41 43L41 43L41 43L40 43L40 43L40 44L39 44L38 44L38 44L37 44L37 44L36 45L36 46L36 46L36 46L36 46L36 46L36 46L35 46L35 46L35 46L35 47L35 48L34 48L34 48L34 48L34 48L32 47L32 47L32 47L31 48L31 48L31 48L31 48L31 48L31 49L31 49L31 50L30 50L30 50L30 50L30 51L30 51L30 52L30 52L30 52L30 52L29 52L29 52L28 53L28 53L28 53L27 53L27 53L27 54L27 54L27 54L27 54L27 54L27 55L27 56L27 56L26 56L26 56L26 57L26 57L26 58L26 58L26 58L26 59L26 59L25 59L25 59L25 59L25 59L24 59L24 59L24 60L24 60L24 60L23 59L23 59L23 59L24 59L24 59L23 58L23 58L23 58L23 58L23 58L23 58L23 58L23 58L23 58L23 58L23 58L22 58L22 58L22 58L22 58L22 58L22 58L22 59L22 59L21 59L21 59L21 59L21 59L20 59L20 59L20 60L20 60L20 60L20 60L20 60L20 60L20 60L19 59L19 59L19 59L19 59L18 59L18 59L18 59L18 59L18 59L17 59L17 60L17 60L17 60L17 60L17 59L16 59L16 59L16 58L15 58L15 58L15 57L15 57L15 57L15 56L15 56L15 56L14 56L14 56L14 56L14 56L14 56L14 56L14 56L15 55L15 55L15 55L15 55L15 55L15 55L14 55L14 55L14 54L14 54L14 54L14 54L13 54L13 53L13 53L13 52L13 52L13 51L12 51L12 51L12 51L12 51L11 51L11 51L11 51L11 51L11 51L11 52L11 52L11 52L11 52L10 52L10 52L10 52L10 52L10 52L9 52L8 52L8 52L8 52L7 52L7 52L6 53L6 53L6 53L6 53L6 53L6 53L6 53L6 52L5 52L5 52L5 52L5 52L4 52L4 52L4 53L4 52L3 52L3 52L3 52L3 52L3 51L3 51L3 51L4 51L3 50L3 50L3 50L3 50L3 49L3 49L3 49L3 48L3 48L3 48L3 48L3 48L2 47L2 47L2 47L2 47L2 47L2 47L2 47L2 47L2 47L1 47L1 46L1 46L1 46L1 45L1 45L1 45L1 45L1 44L1 44L1 44L1 43L0 43L0 43L0 42L0 42L0 42L1 42L1 42L1 42L1 41L2 41L2 40L2 40L2 39L2 39L2 39L3 38L3 38L3 38L4 39L4 39L5 40L5 40L5 40L6 40L6 39L6 39L6 39L7 39L7 39L8 39L8 39L8 39L9 39L10 39L10 39L11 39L11 39L11 38L11 38L11 38L11 38L11 39L12 39L12 39H13H14H14H15H16H17H17H18H19H20H21H21H22H23H24H24H25H26L26 38L27 37L27 36L26 35L26 34L26 34L26 33L25 32L25 31L25 30L25 29L25 28L25 27L25 26L25 25L24 24L24 23L24 22L24 20L24 20L24 18L24 18L24 16L24 15L24 14L23 13L23 12L23 11L23 10L23 9L23 8L23 7L23 6L22 5L22 4L22 3L22 2L22 1L22 0H23L24 0H26L27 0H29L30 1L31 2L32 2L34 3L35 4L36 5L37 6L39 7L40 8L41 9L42 10L44 10L45 11L46 12L48 13L49 14L50 15L51 16L52 16L52 16L52 17L52 17L52 17L52 18L52 18L54 18L54 19L54 19L54 19L54 19L54 20L55 20L56 20L56 20L57 20L57 21L58 21L58 21L58 21L59 21L60 21L60 22V22L60 22L60 22L60 23L60 23L60 23L60 23L60 24L60 24L60 24L59 24L60 24L60 24L60 25L60 25L60 25L60 25L61 25L62 25L62 24L64 24Z"/></mask><path d="M64 24L64 25L64 26L64 27L64 28L64 30L64 30L64 32L64 33L64 33L64 34L64 34L63 35L63 36L63 37L63 37L62 37L62 37L62 38L62 38L62 38L62 38L61 39L61 39L60 39L59 39L59 39L59 39L59 39L58 40L57 40L56 40L55 40L54 40L52 40L52 40L51 41L51 41L50 41L49 41L48 41L48 41L48 41L47 41L46 40L46 41L46 41L46 40L45 40L45 40L44 41L44 41L44 41L43 42L43 42L42 42L41 43L41 43L41 43L40 43L40 43L40 44L39 44L38 44L38 44L37 44L37 44L36 45L36 46L36 46L36 46L36 46L36 46L36 46L35 46L35 46L35 46L35 47L35 48L34 48L34 48L34 48L34 48L32 47L32 47L32 47L31 48L31 48L31 48L31 48L31 48L31 49L31 49L31 50L30 50L30 50L30 50L30 51L30 51L30 52L30 52L30 52L30 52L29 52L29 52L28 53L28 53L28 53L27 53L27 53L27 54L27 54L27 54L27 54L27 54L27 55L27 56L27 56L26 56L26 56L26 57L26 57L26 58L26 58L26 58L26 59L26 59L25 59L25 59L25 59L25 59L24 59L24 59L24 60L24 60L24 60L23 59L23 59L23 59L24 59L24 59L23 58L23 58L23 58L23 58L23 58L23 58L23 58L23 58L23 58L23 58L23 58L22 58L22 58L22 58L22 58L22 58L22 58L22 59L22 59L21 59L21 59L21 59L21 59L20 59L20 59L20 60L20 60L20 60L20 60L20 60L20 60L20 60L19 59L19 59L19 59L19 59L18 59L18 59L18 59L18 59L18 59L17 59L17 60L17 60L17 60L17 60L17 59L16 59L16 59L16 58L15 58L15 58L15 57L15 57L15 57L15 56L15 56L15 56L14 56L14 56L14 56L14 56L14 56L14 56L14 56L15 55L15 55L15 55L15 55L15 55L15 55L14 55L14 55L14 54L14 54L14 54L14 54L13 54L13 53L13 53L13 52L13 52L13 51L12 51L12 51L12 51L12 51L11 51L11 51L11 51L11 51L11 51L11 52L11 52L11 52L11 52L10 52L10 52L10 52L10 52L10 52L9 52L8 52L8 52L8 52L7 52L7 52L6 53L6 53L6 53L6 53L6 53L6 53L6 53L6 52L5 52L5 52L5 52L5 52L4 52L4 52L4 53L4 52L3 52L3 52L3 52L3 52L3 51L3 51L3 51L4 51L3 50L3 50L3 50L3 50L3 49L3 49L3 49L3 48L3 48L3 48L3 48L3 48L2 47L2 47L2 47L2 47L2 47L2 47L2 47L2 47L2 47L1 47L1 46L1 46L1 46L1 45L1 45L1 45L1 45L1 44L1 44L1 44L1 43L0 43L0 43L0 42L0 42L0 42L1 42L1 42L1 42L1 41L2 41L2 40L2 40L2 39L2 39L2 39L3 38L3 38L3 38L4 39L4 39L5 40L5 40L5 40L6 40L6 39L6 39L6 39L7 39L7 39L8 39L8 39L8 39L9 39L10 39L10 39L11 39L11 39L11 38L11 38L11 38L11 38L11 39L12 39L12 39H13H14H14H15H16H17H17H18H19H20H21H21H22H23H24H24H25H26L26 38L27 37L27 36L26 35L26 34L26 34L26 33L25 32L25 31L25 30L25 29L25 28L25 27L25 26L25 25L24 24L24 23L24 22L24 20L24 20L24 18L24 18L24 16L24 15L24 14L23 13L23 12L23 11L23 10L23 9L23 8L23 7L23 6L22 5L22 4L22 3L22 2L22 1L22 0H23L24 0H26L27 0H29L30 1L31 2L32 2L34 3L35 4L36 5L37 6L39 7L40 8L41 9L42 10L44 10L45 11L46 12L48 13L49 14L50 15L51 16L52 16L52 16L52 17L52 17L52 17L52 18L52 18L54 18L54 19L54 19L54 19L54 19L54 20L55 20L56 20L56 20L57 20L57 21L58 21L58 21L58 21L59 21L60 21L60 22V22L60 22L60 22L60 23L60 23L60 23L60 23L60 24L60 24L60 24L59 24L60 24L60 24L60 25L60 25L60 25L60 25L61 25L62 25L62 24L64 24Z" fill="var(--fill-0,#71B219)" stroke="var(--stroke-0,white)" mask="url(#path-1-inside-1_0_84)"/></g></svg>