<svg preserveAspectRatio="none" width="100%" height="100%" overflow="visible" style="display: block;" viewBox="0 0 63.7634 59.8101" fill="none" xmlns="http://www.w3.org/2000/svg">
<g id="ML">
<mask id="path-1-inside-1_0_84" fill="white">
<path d="M63.7359 24.1852L63.7386 24.893L63.7414 25.9588L63.7455 27.1452L63.7482 28.2371L63.7524 29.4798L63.7565 30.477L63.7593 31.6553L63.7634 32.8253L63.6409 32.9597L63.5955 33.6168L63.5612 34.4809L63.3259 35.3752L62.9146 36.0336L62.766 36.6591L62.6532 37.0171L62.4991 37.2119L62.4634 37.4451L62.3822 37.7743L62.2515 37.9869L62.1497 38.0966L61.7356 38.2255L61.0065 38.8552L60.9432 39.3586L60.1123 39.22L59.2291 39.0774L59.1108 39.087L59.0365 39.1528L59.0007 39.4189L57.7984 39.4628L56.7611 39.5012L55.4762 39.5451L54.593 39.5753L53.4732 39.6356L52.4345 39.6919L51.744 40.2707L51.1208 40.8221L51.0712 40.8413L50.188 40.9497L49.0861 40.8537L48.5193 40.8482L48.2965 40.914L48.2538 41.1211L47.4421 40.8304L46.504 40.5355L45.8491 40.7206L45.7446 40.6575L45.6593 40.5341L45.3428 40.4627L44.8407 40.4943L44.4775 40.5821L43.908 41.0183L43.4788 41.3982L43.3618 41.4846L42.7621 41.7151L41.6477 42.25L41.0149 42.6437L40.8691 42.715L40.5885 42.8042L40.1565 42.822L39.7961 42.9208L39.4714 43.955L39.2554 44.0579L37.9265 43.6409L37.6582 43.7026L37.4271 43.8247L36.6856 44.431L36.3183 44.9166L36.1174 45.5612L36.1463 45.7601L36.1518 45.9851L36.0211 46.1071L35.8423 46.151L35.6814 46.1442L35.0651 46.0111L34.8724 46.0688L34.7885 46.387L34.8009 47.081L34.6661 47.5529L34.3002 47.6983L34.0168 47.8848L33.7939 47.9383L33.6082 47.893L32.5365 47.188L32.1747 47.0755L31.773 47.1537L31.3878 47.4528L31.2131 47.6489L30.9724 47.8807L30.7014 48.1893L30.7729 48.45L30.9641 48.7531L31.1003 49.1289L31.0934 49.465L30.1153 49.9423L30.1951 50.1056L30.3423 50.2976L30.3437 50.6446L30.3161 51.2523L30.1181 51.4717L29.8622 51.6884L29.704 51.9669L29.5485 52.1041L29.2706 52.2755L28.8896 52.4484L28.2292 52.5992L27.7009 52.7007L27.5015 52.7995L27.2208 53.0025L26.9966 53.2467L26.9429 53.51L26.9884 53.8118L27.0667 54.0587L27.1644 54.2274L27.2236 54.44L27.1438 55.012L26.9526 55.6745L26.7683 55.9694L26.4725 56.1313L26.2166 56.3123L26.3005 56.7458L26.3445 57.3672L26.273 57.8637L26.2606 58.1696L26.1519 58.4878L26.0886 58.7114L25.9607 58.6565L25.4297 58.6826L24.8519 58.8526L24.6497 58.9884L24.6056 59.1736L24.4777 59.2984L24.2934 59.4383L24.1159 59.6098L23.7967 59.5824L23.4886 59.4644L23.3276 59.3506L23.318 59.282L23.4184 59.1146L23.5051 58.9322L23.5134 58.8115L23.4088 58.5152L23.3235 58.197L23.3579 58.0447L23.2822 57.5756L23.241 57.5523L22.8365 57.673L22.6893 57.7032L22.6054 57.7553L22.5779 57.8445L22.6756 58.1422L22.6123 58.1929L22.3853 58.186L22.0689 58.0873L21.7236 57.8143L21.6369 57.9035L21.5997 58.1202L21.5764 58.3767L21.6644 58.8431L21.5722 59.009L21.3411 58.9788L21.0302 58.9802L20.7592 59.0255L20.579 59.0364L20.4676 59.2024L20.4194 59.389L20.5281 59.5947L20.5116 59.6825L20.4277 59.7621L20.3217 59.8101L20.2337 59.8046L19.9833 59.5755L19.6834 59.4905L18.9859 59.3588L18.902 59.0461L18.7865 59.0406L18.6255 58.876L18.4659 58.6579L18.3311 58.6689L18.2183 58.7306L17.8359 58.7059L17.496 59.0364L17.2443 59.448L16.9747 59.6455L16.6776 59.7319L16.5634 59.7346L16.6252 59.4754L16.5826 59.2847L16.4987 59.116L15.6334 58.6647L15.4985 58.4782L15.3624 57.9652L15.2757 57.4522L15.2853 57.1518L15.3445 56.8816L15.3197 56.6731L15.2248 56.514L14.9648 56.3603L14.6952 56.289L14.3512 56.4893L14.1862 56.5277L14.0321 56.514L13.9523 56.4399L13.9633 56.337L14.3375 55.787L14.5191 55.5579L14.7378 55.3823L14.885 55.2891L14.9799 55.1547L14.9882 55.0477L14.9538 54.9708L14.7103 54.8693L14.3306 54.6129L14.1284 54.5854L13.9592 54.4688L13.7803 54.0669L13.6964 53.9901L13.5175 53.949L13.3525 53.8502L13.3607 53.3276L13.3676 52.8763L12.9989 52.1493L12.8559 51.6912L12.6701 51.2194L12.4995 50.9985L12.201 50.8133L11.8337 50.6844L11.5077 50.6542L11.2573 50.6981L11.1404 50.7557L11.1459 50.8435L11.3495 51.1412L11.3866 51.3071L11.3522 51.4676L11.2834 51.5746L11.1032 51.5869L10.7868 51.6789L10.3975 51.8599L10.1251 52.0149L9.90635 52.4072L9.75505 52.4566L9.49778 52.4072L8.76455 52.1178L8.16062 51.8791L7.74377 51.7419L7.49339 51.8297L7.36547 51.8722L7.00639 52.0314L6.52904 52.6116L6.41485 52.8036L6.31993 52.8653L6.19062 52.9668L6.06681 52.9696L5.96778 52.901L5.93612 52.8585L5.69123 52.4401L5.42301 51.9792L5.20289 51.7707L4.92635 51.7612L4.69112 51.9052L4.44485 52.2014L4.13535 52.4758L3.93862 52.5581L3.76666 52.5128L3.34431 52.1672L3.04304 51.9203L3.00589 51.7968L3.11181 51.6075L3.21639 51.325L3.33054 51.0959L3.44062 50.9903L3.46812 50.6981L3.21223 50.491L3.204 50.3909L3.23012 50.1165L3.34431 49.5363L3.33331 49.3155L3.4365 48.8834L3.26866 48.6886L3.23012 48.5446L3.04166 48.3142L2.8257 47.9877L2.77616 47.7257L2.7005 47.5172L2.49277 47.2031L2.34142 47.1537L2.01677 47.1057L1.96312 47.2141L1.84342 47.3705L1.73339 47.4157L1.55593 47.2237L1.4885 47.0591L1.48989 46.9095L1.24912 46.6476L0.874922 46.1675L0.913462 45.7711L1.14458 45.5571L1.21335 45.3953L1.234 45.2142L1.12946 44.9947L1.00561 44.8219L1.04004 44.4392L1.00977 43.907L0.819925 43.6409L0.647963 43.4461L0.407191 43.2363L0.202231 42.9126L0.28477 42.4681L0.363193 42.1622L0 41.5272L0.679576 41.7782L0.768999 41.6959L1.00011 41.5422L1.31243 41.2185L1.57381 40.7892L1.69212 40.2583L1.74439 39.8002L1.86131 39.4121L2.00989 39.0828L2.33454 38.7399L2.63996 38.4971L3.00316 38.2448L3.1875 38.29L3.53277 38.6426L4.29077 39.3489L4.91673 39.8866L5.14508 40.1719L5.34731 40.1747L5.65824 39.6535L5.98016 39.2049L6.11635 39.0952L6.54004 39.0458L6.90047 39.0266L7.2155 39.0348L7.79331 39.1213L8.05743 39.2008L8.30504 39.2488L9.03143 39.2886L9.75093 39.1789L10.4346 39.0376L10.9409 38.9539L10.967 38.7413L10.9381 38.4903L11.0193 38.2996L11.1789 38.1227L11.3137 38.0829L11.3715 38.6864L11.5324 38.777L11.9837 38.803H12.7169H13.5038H14.2907H15.079H15.8659H16.6528H17.4411H18.2279H19.0162H19.8031H20.59H21.3769H22.1652H22.9521H23.7403H24.5272H25.3155H26.1313L26.3514 37.6385L26.5522 36.5699L26.7201 35.6729L26.1423 35.0392L25.6828 34.5344L25.5755 33.5715L25.4668 32.5771L25.3568 31.5812L25.2454 30.584L25.1367 29.5855L25.0266 28.5855L24.9166 27.5842L24.8065 26.5815L24.6964 25.5774L24.5864 24.5706L24.4763 23.5638L24.3663 22.5557L24.2562 21.5447L24.1476 20.5325L24.0375 19.5188L23.9261 18.5024L23.8174 17.486L23.7073 16.4668L23.5973 15.4463L23.4872 14.4244L23.3772 13.3998L23.2671 12.3752L23.1571 11.3464L23.047 10.3177L22.9369 9.28616L22.8282 8.25331L22.7182 7.21769L22.6081 6.1807L22.4981 5.14098L22.388 4.09988L22.278 3.05741L22.1679 2.01221L22.0579 0.964285L21.9547 0.00272089H23.1406L24.4048 0.00133952H25.6361L27.4423 0H28.7946L29.9736 0.806515L31.0425 1.56778L32.3068 2.46898L33.5711 3.3688L34.8367 4.26724L36.101 5.16292L37.3652 6.05725L38.6281 6.95159L39.8937 7.84178L41.158 8.73336L42.4223 9.62221L43.6865 10.5097L44.9508 11.3958L46.215 12.2805L47.4793 13.1639L48.7436 14.0458L50.0078 14.9264L51.2721 15.8071L51.8375 16.1994L51.8898 16.3612L51.942 16.6918L51.909 17.0635L51.9145 17.3666L52.081 17.571L52.396 17.7905L53.6328 18.4379L53.7305 18.5655L53.7745 18.8329L53.9217 19.1608L54.183 19.3528L54.4885 19.4941L54.8613 19.5929L55.9825 19.6944L56.2205 19.8466L56.7047 20.4433L56.9675 20.5613L57.7145 20.7327L58.2551 20.8287L58.478 20.8836L58.9677 21.0427L59.5001 21.3143L59.7821 21.5598V21.6366L59.7794 21.8506L59.7752 22.4912L59.8729 22.8437L59.9844 23.0988L59.9789 23.2538L59.844 23.3636L59.7395 23.4994L59.6817 23.6777L59.529 23.904L59.4066 24.1564L59.4589 24.3457L59.6693 24.4691L59.9844 24.7091L60.2457 24.8107L60.3737 24.8175L60.5443 24.8107L60.6915 24.7791L61.6352 24.5953L62.5101 24.4239L63.7359 24.1852Z"/>
</mask>
<path d="M63.7359 24.1852L63.7386 24.893L63.7414 25.9588L63.7455 27.1452L63.7482 28.2371L63.7524 29.4798L63.7565 30.477L63.7593 31.6553L63.7634 32.8253L63.6409 32.9597L63.5955 33.6168L63.5612 34.4809L63.3259 35.3752L62.9146 36.0336L62.766 36.6591L62.6532 37.0171L62.4991 37.2119L62.4634 37.4451L62.3822 37.7743L62.2515 37.9869L62.1497 38.0966L61.7356 38.2255L61.0065 38.8552L60.9432 39.3586L60.1123 39.22L59.2291 39.0774L59.1108 39.087L59.0365 39.1528L59.0007 39.4189L57.7984 39.4628L56.7611 39.5012L55.4762 39.5451L54.593 39.5753L53.4732 39.6356L52.4345 39.6919L51.744 40.2707L51.1208 40.8221L51.0712 40.8413L50.188 40.9497L49.0861 40.8537L48.5193 40.8482L48.2965 40.914L48.2538 41.1211L47.4421 40.8304L46.504 40.5355L45.8491 40.7206L45.7446 40.6575L45.6593 40.5341L45.3428 40.4627L44.8407 40.4943L44.4775 40.5821L43.908 41.0183L43.4788 41.3982L43.3618 41.4846L42.7621 41.7151L41.6477 42.25L41.0149 42.6437L40.8691 42.715L40.5885 42.8042L40.1565 42.822L39.7961 42.9208L39.4714 43.955L39.2554 44.0579L37.9265 43.6409L37.6582 43.7026L37.4271 43.8247L36.6856 44.431L36.3183 44.9166L36.1174 45.5612L36.1463 45.7601L36.1518 45.9851L36.0211 46.1071L35.8423 46.151L35.6814 46.1442L35.0651 46.0111L34.8724 46.0688L34.7885 46.387L34.8009 47.081L34.6661 47.5529L34.3002 47.6983L34.0168 47.8848L33.7939 47.9383L33.6082 47.893L32.5365 47.188L32.1747 47.0755L31.773 47.1537L31.3878 47.4528L31.2131 47.6489L30.9724 47.8807L30.7014 48.1893L30.7729 48.45L30.9641 48.7531L31.1003 49.1289L31.0934 49.465L30.1153 49.9423L30.1951 50.1056L30.3423 50.2976L30.3437 50.6446L30.3161 51.2523L30.1181 51.4717L29.8622 51.6884L29.704 51.9669L29.5485 52.1041L29.2706 52.2755L28.8896 52.4484L28.2292 52.5992L27.7009 52.7007L27.5015 52.7995L27.2208 53.0025L26.9966 53.2467L26.9429 53.51L26.9884 53.8118L27.0667 54.0587L27.1644 54.2274L27.2236 54.44L27.1438 55.012L26.9526 55.6745L26.7683 55.9694L26.4725 56.1313L26.2166 56.3123L26.3005 56.7458L26.3445 57.3672L26.273 57.8637L26.2606 58.1696L26.1519 58.4878L26.0886 58.7114L25.9607 58.6565L25.4297 58.6826L24.8519 58.8526L24.6497 58.9884L24.6056 59.1736L24.4777 59.2984L24.2934 59.4383L24.1159 59.6098L23.7967 59.5824L23.4886 59.4644L23.3276 59.3506L23.318 59.282L23.4184 59.1146L23.5051 58.9322L23.5134 58.8115L23.4088 58.5152L23.3235 58.197L23.3579 58.0447L23.2822 57.5756L23.241 57.5523L22.8365 57.673L22.6893 57.7032L22.6054 57.7553L22.5779 57.8445L22.6756 58.1422L22.6123 58.1929L22.3853 58.186L22.0689 58.0873L21.7236 57.8143L21.6369 57.9035L21.5997 58.1202L21.5764 58.3767L21.6644 58.8431L21.5722 59.009L21.3411 58.9788L21.0302 58.9802L20.7592 59.0255L20.579 59.0364L20.4676 59.2024L20.4194 59.389L20.5281 59.5947L20.5116 59.6825L20.4277 59.7621L20.3217 59.8101L20.2337 59.8046L19.9833 59.5755L19.6834 59.4905L18.9859 59.3588L18.902 59.0461L18.7865 59.0406L18.6255 58.876L18.4659 58.6579L18.3311 58.6689L18.2183 58.7306L17.8359 58.7059L17.496 59.0364L17.2443 59.448L16.9747 59.6455L16.6776 59.7319L16.5634 59.7346L16.6252 59.4754L16.5826 59.2847L16.4987 59.116L15.6334 58.6647L15.4985 58.4782L15.3624 57.9652L15.2757 57.4522L15.2853 57.1518L15.3445 56.8816L15.3197 56.6731L15.2248 56.514L14.9648 56.3603L14.6952 56.289L14.3512 56.4893L14.1862 56.5277L14.0321 56.514L13.9523 56.4399L13.9633 56.337L14.3375 55.787L14.5191 55.5579L14.7378 55.3823L14.885 55.2891L14.9799 55.1547L14.9882 55.0477L14.9538 54.9708L14.7103 54.8693L14.3306 54.6129L14.1284 54.5854L13.9592 54.4688L13.7803 54.0669L13.6964 53.9901L13.5175 53.949L13.3525 53.8502L13.3607 53.3276L13.3676 52.8763L12.9989 52.1493L12.8559 51.6912L12.6701 51.2194L12.4995 50.9985L12.201 50.8133L11.8337 50.6844L11.5077 50.6542L11.2573 50.6981L11.1404 50.7557L11.1459 50.8435L11.3495 51.1412L11.3866 51.3071L11.3522 51.4676L11.2834 51.5746L11.1032 51.5869L10.7868 51.6789L10.3975 51.8599L10.1251 52.0149L9.90635 52.4072L9.75505 52.4566L9.49778 52.4072L8.76455 52.1178L8.16062 51.8791L7.74377 51.7419L7.49339 51.8297L7.36547 51.8722L7.00639 52.0314L6.52904 52.6116L6.41485 52.8036L6.31993 52.8653L6.19062 52.9668L6.06681 52.9696L5.96778 52.901L5.93612 52.8585L5.69123 52.4401L5.42301 51.9792L5.20289 51.7707L4.92635 51.7612L4.69112 51.9052L4.44485 52.2014L4.13535 52.4758L3.93862 52.5581L3.76666 52.5128L3.34431 52.1672L3.04304 51.9203L3.00589 51.7968L3.11181 51.6075L3.21639 51.325L3.33054 51.0959L3.44062 50.9903L3.46812 50.6981L3.21223 50.491L3.204 50.3909L3.23012 50.1165L3.34431 49.5363L3.33331 49.3155L3.4365 48.8834L3.26866 48.6886L3.23012 48.5446L3.04166 48.3142L2.8257 47.9877L2.77616 47.7257L2.7005 47.5172L2.49277 47.2031L2.34142 47.1537L2.01677 47.1057L1.96312 47.2141L1.84342 47.3705L1.73339 47.4157L1.55593 47.2237L1.4885 47.0591L1.48989 46.9095L1.24912 46.6476L0.874922 46.1675L0.913462 45.7711L1.14458 45.5571L1.21335 45.3953L1.234 45.2142L1.12946 44.9947L1.00561 44.8219L1.04004 44.4392L1.00977 43.907L0.819925 43.6409L0.647963 43.4461L0.407191 43.2363L0.202231 42.9126L0.28477 42.4681L0.363193 42.1622L0 41.5272L0.679576 41.7782L0.768999 41.6959L1.00011 41.5422L1.31243 41.2185L1.57381 40.7892L1.69212 40.2583L1.74439 39.8002L1.86131 39.4121L2.00989 39.0828L2.33454 38.7399L2.63996 38.4971L3.00316 38.2448L3.1875 38.29L3.53277 38.6426L4.29077 39.3489L4.91673 39.8866L5.14508 40.1719L5.34731 40.1747L5.65824 39.6535L5.98016 39.2049L6.11635 39.0952L6.54004 39.0458L6.90047 39.0266L7.2155 39.0348L7.79331 39.1213L8.05743 39.2008L8.30504 39.2488L9.03143 39.2886L9.75093 39.1789L10.4346 39.0376L10.9409 38.9539L10.967 38.7413L10.9381 38.4903L11.0193 38.2996L11.1789 38.1227L11.3137 38.0829L11.3715 38.6864L11.5324 38.777L11.9837 38.803H12.7169H13.5038H14.2907H15.079H15.8659H16.6528H17.4411H18.2279H19.0162H19.8031H20.59H21.3769H22.1652H22.9521H23.7403H24.5272H25.3155H26.1313L26.3514 37.6385L26.5522 36.5699L26.7201 35.6729L26.1423 35.0392L25.6828 34.5344L25.5755 33.5715L25.4668 32.5771L25.3568 31.5812L25.2454 30.584L25.1367 29.5855L25.0266 28.5855L24.9166 27.5842L24.8065 26.5815L24.6964 25.5774L24.5864 24.5706L24.4763 23.5638L24.3663 22.5557L24.2562 21.5447L24.1476 20.5325L24.0375 19.5188L23.9261 18.5024L23.8174 17.486L23.7073 16.4668L23.5973 15.4463L23.4872 14.4244L23.3772 13.3998L23.2671 12.3752L23.1571 11.3464L23.047 10.3177L22.9369 9.28616L22.8282 8.25331L22.7182 7.21769L22.6081 6.1807L22.4981 5.14098L22.388 4.09988L22.278 3.05741L22.1679 2.01221L22.0579 0.964285L21.9547 0.00272089H23.1406L24.4048 0.00133952H25.6361L27.4423 0H28.7946L29.9736 0.806515L31.0425 1.56778L32.3068 2.46898L33.5711 3.3688L34.8367 4.26724L36.101 5.16292L37.3652 6.05725L38.6281 6.95159L39.8937 7.84178L41.158 8.73336L42.4223 9.62221L43.6865 10.5097L44.9508 11.3958L46.215 12.2805L47.4793 13.1639L48.7436 14.0458L50.0078 14.9264L51.2721 15.8071L51.8375 16.1994L51.8898 16.3612L51.942 16.6918L51.909 17.0635L51.9145 17.3666L52.081 17.571L52.396 17.7905L53.6328 18.4379L53.7305 18.5655L53.7745 18.8329L53.9217 19.1608L54.183 19.3528L54.4885 19.4941L54.8613 19.5929L55.9825 19.6944L56.2205 19.8466L56.7047 20.4433L56.9675 20.5613L57.7145 20.7327L58.2551 20.8287L58.478 20.8836L58.9677 21.0427L59.5001 21.3143L59.7821 21.5598V21.6366L59.7794 21.8506L59.7752 22.4912L59.8729 22.8437L59.9844 23.0988L59.9789 23.2538L59.844 23.3636L59.7395 23.4994L59.6817 23.6777L59.529 23.904L59.4066 24.1564L59.4589 24.3457L59.6693 24.4691L59.9844 24.7091L60.2457 24.8107L60.3737 24.8175L60.5443 24.8107L60.6915 24.7791L61.6352 24.5953L62.5101 24.4239L63.7359 24.1852Z" fill="var(--fill-0, #71B219)" stroke="var(--stroke-0, white)" mask="url(#path-1-inside-1_0_84)"/>
</g>
</svg>
