<svg preserveAspectRatio="none" width="100%" height="100%" overflow="visible" style="display: block;" viewBox="0 0 34.6179 75.9573" fill="none" xmlns="http://www.w3.org/2000/svg">
<g id="MM">
<mask id="path-1-inside-1_0_83" fill="white">
<path d="M34.5876 29.3934L34.3607 29.7994L33.7705 30.2205L33.3537 30.4345L33.1102 30.44L32.9038 30.6924L32.7346 31.1889L32.5585 31.4797L32.3769 31.5661L32.26 31.754L32.2049 32.0421L32.3096 32.1957L32.5736 32.2163L32.5943 32.2972L32.3714 32.4385L32.0935 32.4879L31.7634 32.4454L31.4483 32.5592L31.1512 32.8267L30.8981 33.4042L30.6889 34.2903L30.6615 34.5179L30.2019 34.2601L30.0108 34.1147L29.7645 34.0776L29.5113 34.2409L29.3105 34.4178L29.1055 34.4823L28.7905 34.5029L28.3778 34.4109L28.0972 34.3286L28.0545 34.3739L28.2072 34.747L28.2608 35.0447L28.2004 35.1997L28.0669 35.3286L27.866 35.4301L27.6294 35.4891L27.4203 35.4836L27.086 35.3423L26.8301 35.3368L26.6114 35.4068L26.478 35.511L26.4037 35.6413L26.2744 36.3766L26.1615 36.6056L26.0033 36.7359L25.8451 36.7496L25.6277 36.714L25.4008 36.7442L24.3704 37.0281L24.2205 37.0555L23.8986 37.0775L23.5986 37.0857L23.3881 37.072L22.8942 36.7812L22.6549 36.751L22.5229 36.8333L22.432 37.2229L22.1432 37.4711L21.7579 38.0102L21.6699 38.7976L21.7084 39.3462L21.3631 39.8894L21.3315 40.1514L21.5172 41.4078L21.487 41.5395L21.4154 41.604L21.1994 41.6478L20.8349 41.7795L20.5941 41.9044L20.4786 41.9181L20.1387 41.8248L20.0507 41.8234L20.0769 41.9194L20.3479 42.4626L20.6285 42.7205L20.9216 42.6917L21.0481 42.7424L21.011 42.8727L21.1237 43.2129L21.3851 43.7616L21.4649 44.1731L21.3054 44.5818L21.3342 44.7286L21.4209 44.815L21.6685 45.195L22.1954 45.7889L22.7113 46.4308L23.1419 46.9658L23.457 47.3361L24.1613 48.0234L24.2865 48.3457L24.314 48.9959L24.4873 49.3717L24.6483 49.6406L24.7597 49.8655L25.0183 50.6007L25.1284 50.6995L25.6925 50.2523L25.8231 50.3456L25.8974 50.5143V50.7283L25.8094 50.9711L25.6264 51.196L24.7542 51.7145L24.6827 52.1603L24.6222 52.8365L24.6071 53.6664L24.6496 54.2864L24.6181 54.4291L24.541 54.4962L24.2122 54.4688L23.7389 54.7816L23.5711 54.809L23.3634 54.9283L23.2052 55.0765L23.1543 55.3014L23.2478 55.9818L23.417 56.6196L23.7486 57.0873L24.0113 57.4577L24.3787 57.972L24.6675 58.4192L25.2522 58.9089L26.0721 59.6414L26.3858 60.046L26.6623 60.5357L26.8577 60.954L26.9319 61.5082L26.9924 61.8182L27.0103 62.8552L26.8604 63.0911L26.7448 63.364L26.8095 63.6494L27.0007 63.9223V64.2337L27.1796 64.792L27.4794 65.1335L27.7684 65.3626L27.8963 65.5437L27.855 65.8345L27.9403 66.143L28.0036 66.4791L28.1205 66.9441L28.353 67.3378L28.7066 68.5435L28.6984 68.6669L28.5456 68.9111L28.3228 69.1319L28.1797 69.2033L28.0435 69.4309L27.7203 70.0742L27.0682 71.1826L26.4326 71.9041L25.8974 72.417L25.5109 72.7284L25.3967 72.9136V73.059L25.4669 73.3169L25.4393 73.8079L25.3568 74.1193L25.2467 74.4485L25.1848 74.742L25.0129 74.7859L24.6442 75.3456L24.4846 75.0644L24.391 74.7722L24.4914 74.1097L24.2672 72.8546L24.4076 72.6873L24.541 72.6022L24.7858 72.1208L25.0816 71.6434L25.1105 71.0728L25.3499 70.6545L25.2935 70.3047L25.3059 69.8946L25.3568 69.5585L25.3375 69.2828L25.5273 68.9975L25.8561 68.7835L25.7186 68.7067L25.581 68.5503L25.1504 68.7876L24.9303 68.7094L24.8862 68.4625L24.9413 68.1978L24.9633 68.0373L25.1353 67.8563L25.1229 67.5024L25.0362 67.191L25.1614 66.8056L24.9069 66.8042L24.79 66.726L24.8629 66.512L25.094 66.3227L24.8836 65.9606L25.039 65.5725L25.0335 65.0924L24.9276 64.6685L24.9331 64.364L24.7707 63.8236L24.6964 63.1323L24.3539 62.6179L24.0994 61.8676L23.4198 60.8855L23.4322 60.4644L23.3964 60.094L23.2478 59.9143L23.0511 61.2243L22.9011 60.9664L22.853 60.2353L22.7554 59.8883L22.8612 59.1983L22.4678 58.5125L22.3839 58.0146L22.1253 57.2588L22.2009 57.0887L22.5462 57.2588L22.2285 56.8185L21.9698 56.9172L21.7497 56.4413L21.7016 55.1506L21.4856 54.6677L21.6039 54.1753L21.3577 52.4086L20.8707 51.8352L20.9669 51.3414L21.088 50.9025L21.0605 50.0904L21.1802 49.8394L21.4168 49.6474L21.1953 49.7146L21.0069 49.7722L20.5652 49.8202L20.0659 49.8299L19.8926 49.2359L19.6476 48.9506L19.433 48.3539L19.3037 47.675L19.3877 47.5419L19.0024 47.2648L18.9034 47.0947L18.5003 46.6531L18.0422 46.317L18.144 46.5529L18.2678 46.7025L18.0394 47.1112L18.2624 47.7998L18.067 48.2387L17.884 48.8093L17.7093 49.0809L17.1576 49.6652L16.7105 49.8628L16.4189 49.8998L16.1603 49.8381L15.8438 49.5363L15.7668 49.2839L15.7159 48.8601L15.6045 48.7997L15.4848 48.8491L15.6719 49.3964L15.6692 49.6515L16.0062 50.1426L15.8865 50.2797L15.2757 50.5486L15.068 50.5047L14.9208 50.5582L14.8809 50.779L14.8038 50.9025L13.8422 51.2399L13.6414 51.6199L13.5175 52.0053L13.0388 52.5581L12.3978 53.0149L12.2395 52.9888L12.058 52.8818L12.0827 52.388L12.3028 51.9697L12.2326 51.5225L12.179 51.779L11.7649 52.4017L11.5764 52.6047L11.1967 52.5512L10.6713 52.6349L10.4731 51.9957L10.4772 51.7612L10.4388 51.5623L10.4993 51.3524L10.48 51.185L10.3535 51.5046L10.3053 51.7817L10.1127 52.0286L9.58585 52.2934L9.56377 51.9573L9.54589 51.6542L9.65874 51.3812L9.6422 50.9491L9.81004 50.3236L9.79627 50.1097L9.74539 49.8724L9.65185 50.2166L9.5982 50.5733L9.49232 50.6816L9.29827 50.7626L8.94335 51.1713L8.73562 51.5376L8.18539 51.8832L7.89512 51.8476L7.85793 51.4087L8.07808 49.8518L8.29404 49.6323L8.39447 49.3621L8.57466 48.45L8.77693 48.1057L8.8567 47.3814L8.93923 47.2566L9.21028 46.6874L9.30381 45.6422L9.19239 45.1223L8.93789 44.6175L8.69296 43.1005L8.05466 41.8687L8.00243 41.4572L7.68739 40.9593L7.97766 40.9236L7.38058 40.4874L7.29804 40.3091L7.17839 39.2859L7.20173 38.7139L7.11508 38.7893L7.03389 39.1418L6.80004 39.2859L6.90458 39.8963L6.87712 40.0444L6.75327 40.2817L6.25527 40.0348L5.88935 39.7659L5.47523 39.1116L5.06943 38.3778L5.2125 38.264L5.39958 38.2502L5.976 38.7962L6.34881 38.91L6.58543 38.7742L6.87847 38.541L7.01877 38.0884L6.8757 37.9224L6.59365 37.8319L6.40801 37.7098L6.13831 37.4025L6.10531 37.2462L6.02143 37.0459L5.74904 36.9047L5.52889 36.725L5.71462 36.4081L5.89758 36.1722L5.41335 36.1832L4.86304 35.7771L4.74885 35.6592L4.56588 35.5782L4.13254 35.5302L3.77216 35.6496L3.93589 36.2298L3.90423 36.4218L3.66762 36.393L3.17508 35.5097L3.3237 35.2861L3.53554 35.0762L3.431 35.046L3.22596 35.0598L3.42681 34.2751L3.30438 34.1586L3.24116 34.4041L3.13242 34.64L2.71285 35.1942L2.50512 35.0899L2.36204 34.9514L2.56288 34.6606L2.67162 34.5824L2.74727 34.426L2.59177 34.1215L2.34415 33.8993L2.14608 33.5166L2.04288 33.5112L2.13374 33.9624L2.09654 34.6071L1.65354 33.8952L0.766271 32.8829L0.557112 32.5784L0.510343 32.2808L0.411348 32.0064L0.34258 31.706L0.327382 31.4742L0.134849 31.2644L0.0481123 30.8968L0 30.5237L0.110079 30.2576L0.386578 29.9709L0.583309 29.9201L0.745615 30.0463L1.12808 30.2356L1.38669 30.4126L1.50089 30.6444L1.62196 30.6155L1.74439 30.4674L1.71962 30.285L1.59577 29.8049L1.56143 29.2219L1.55588 27.8558L1.52566 27.6994L1.73884 27.5622L1.8255 27.4058L1.91223 27.1727L1.96723 27.0698L2.09108 27.0629L2.28638 27.1768L2.60554 27.5677L2.81881 27.6555L3.03066 27.5938L3.25216 27.0081L3.33327 26.8489L3.44058 26.7447L3.63731 26.7625L3.7515 26.6569L3.79416 26.4032L3.79281 26.1206L3.57408 25.347L3.508 24.989L3.47223 24.6365L3.60985 24.273L3.79693 23.8478L3.75284 23.476L3.80381 23.332L3.95646 23.3114L4.14774 23.4006L4.35815 23.3389L4.51777 23.1112L4.58243 22.9123L4.67873 22.0523L4.74339 21.2635L4.77093 20.6202L4.6072 20.2348L4.35547 19.1978L4.42835 19.0208L4.54254 18.9797L4.91535 19.3432L5.07631 19.4036L5.34735 19.3473L5.6142 19.2664L5.80816 19.2609L6.08743 19.3857L6.47123 19.5243L7.07243 19.6957L7.3187 19.8247L7.52231 19.8069L7.68739 19.4036L7.87858 18.8151L8.16196 17.9386L8.48666 17.3008L8.57331 17.1307L8.93512 16.6108L9.28593 16.0649L9.59274 15.375L9.76327 14.8771L9.74816 14.6699L9.63808 14.4985L9.40835 14.3888L9.2185 14.2749L9.16628 14.172L9.17174 14.0554L9.26939 13.7317L9.43589 13.349L9.6092 13.1419L10.0645 12.8854L10.3548 12.5548L10.6823 12.1173L10.8597 11.8196L10.9491 11.2133L11.0468 11.0926L11.2477 10.8965L11.4004 10.6674L11.388 10.5426L11.3068 10.4535L11.1555 10.0282L11.0853 9.36159L11.1183 8.8198L11.2325 8.59895L11.3839 8.29169L11.6645 8.1024L12.0649 7.97071L12.677 7.61134L13.7377 6.77737L14.1201 6.50578L14.3815 6.36451L14.636 6.01472L14.9854 5.63204L15.4848 5.44137L15.8054 5.36732L17.3186 5.10532L17.5731 5.13826L17.829 5.29051L18.1467 5.80078L18.4288 5.99279L18.7562 6.1272L19.0024 6.0696L19.0093 5.86386L18.2307 4.67324L18.1605 4.34816L18.133 4.0368L18.221 3.78991L18.4646 3.55399L18.8002 3.28789L19.2184 2.95456L19.4812 2.72412L19.7907 2.65002L19.9021 2.51699L19.9338 2.3236L19.9172 2.11233L19.7756 1.87369L19.8045 1.5733L19.8512 1.30034L19.9833 1.14123L20.2722 0.709149L20.451 0.396413L20.5446 0.263341L20.6835 0.0287996L20.9201 0L21.1513 0.0740502L21.2888 0.207123L21.4264 0.47871L21.5764 0.700902H21.7607L21.9478 0.66934L22.0344 0.699521L22.2133 0.884709L22.5545 1.32914L22.7058 1.44161L22.8489 1.6309L22.9246 2.00948L22.9713 2.38941L23.3991 3.70762L23.5271 3.98469L23.6221 4.19591L23.8215 4.24803L23.9839 4.0368L24.0471 3.81047L24.2149 3.73365L24.4158 3.7748L24.7845 3.98603L24.9826 4.09988L25.0816 4.75005L25.1036 5.51132L25.0747 5.74728L25.2357 6.37413L25.2852 7.09287L25.3196 7.48652L25.3238 7.861L25.2949 8.35206L25.2082 9.00909L25.0637 9.5701L25.1161 10.0365L25.0293 10.2491L24.6772 10.3574L24.6469 10.5358L24.7501 10.8279L24.9963 11.1941L25.0032 11.4246L24.8836 11.581L24.6249 11.596L24.2658 11.7415L24.0182 12.2133L23.7568 12.6001L23.6137 12.6769L23.1351 12.5672L23.0209 12.6659L22.853 13.3243L22.7155 13.6083L22.5104 13.847L22.322 13.9882L22.1514 14.087L21.7717 14.0211L21.5709 14.4176L21.37 14.9402L21.3535 15.2104L21.4581 15.6356L21.403 15.7536L21.1981 15.8455L20.861 16.0361L20.6533 16.641L20.6615 17.2281L20.7854 17.4284L21.0179 17.5162L21.1843 17.6959L21.2008 17.9784L21.3439 18.3309L21.2765 18.7411L20.8032 19.3377L20.7895 19.6628L21.0412 19.7629L21.2586 19.7163L21.5269 19.575L21.8419 19.3473L22.5352 19.0154L23.2905 18.8261L23.8876 18.7904L24.3979 18.8041L24.6483 18.8741L24.7239 18.9962L25.4228 18.8028L25.5686 18.7918L25.6952 18.7808L25.6911 18.9098L25.1793 19.4406L25.0844 19.6875L25.1009 19.9522L25.31 20.1977L25.5122 20.387L25.6842 20.8616L25.5507 21.2951L25.6361 21.4528L25.786 21.6298L25.8768 21.8794L25.8891 22.1826L25.8039 22.6668L26.5426 22.9191L27.1809 23.033L27.6459 23.0632L27.9444 23.1743L28.1246 23.2703L28.2513 23.4431L28.2884 23.6324L28.1329 23.7655L27.8179 24.1893L27.6363 24.7558L27.6555 25.1797L27.6335 25.5473L27.2676 26.0767L27.1232 26.4402L26.9952 26.8119L26.9993 26.9738L27.075 27.0862L27.2305 27.1521L27.5001 27.1919L27.8302 27.1494L28.6172 27.2385L29.5155 27.4017L29.8718 27.4909L29.9888 27.6555L29.9599 28.0135L29.9034 28.3468L29.9612 28.6033L30.1056 28.8379L30.3491 28.9161L30.5583 29.0066L30.5982 29.1863L30.5335 29.4304L30.6394 29.6225L30.7591 29.7487L31.0178 29.8214L31.5419 29.665L31.9092 29.7349L32.2407 29.8419L32.5228 29.7857L32.802 29.6485L33.4129 29.0299L34.1241 28.6952L34.3579 28.6157L34.5148 28.6554L34.5533 28.698L34.5436 28.8241L34.6179 29.333L34.5876 29.3934ZM3.20262 36.12L3.2535 36.5069L3.06777 36.3478L2.8257 35.8101L2.83258 35.4575L3.00589 35.6222L3.20262 36.12ZM5.06254 36.2476L5.14642 36.8086L4.88235 36.5987L4.78461 36.3093L4.7585 36.013L5.06254 36.2476ZM5.92369 37.6069L6.36535 37.943L6.54143 37.9197L6.81516 38.1323L6.82204 38.216L6.76981 38.3888L6.64597 38.5246L6.3117 38.6604L6.08197 38.5506L5.99112 38.183L5.7215 38.0102L5.65131 37.8635L5.82193 37.6632L5.92369 37.6069ZM5.83158 41.1458L5.76693 41.1801L5.36524 40.8413L5.04743 40.4051L5.55231 40.3187L6.03931 40.4134L6.042 40.6452L5.93746 41.0183L5.83158 41.1458ZM20.828 50.8984L20.6822 50.9505L20.4634 50.6899L20.4194 50.0699L20.6024 49.9272L20.7001 49.8929L20.8431 49.9698L20.8981 50.0699L20.9229 50.1947L20.8844 50.3223L20.828 50.8984ZM8.86635 52.1219L8.61462 52.5101L8.52243 51.9298L8.93101 51.6075L9.1332 51.2989L9.34647 51.0891L9.41389 51.3455L9.21162 51.8311L8.86635 52.1219ZM10.1333 52.6253L10.0535 52.7268L9.89535 52.6541L9.85824 52.6102L10.2227 52.1726L10.2613 52.3359L10.1333 52.6253ZM23.6867 63.3737L23.6619 64.0184L23.468 63.707L23.4363 63.3517L23.4514 63.0211L23.4927 62.9676L23.5051 63.0184L23.6206 63.1666L23.6867 63.3737ZM24.0664 65.3393L24.1531 65.4476L24.2768 65.4449L24.2425 65.8276L23.9398 66.2981L23.7596 66.3667H23.6798L23.7472 65.6794L23.6357 65.2871L23.6729 65.0265L23.9976 65.1472L24.0664 65.3393ZM22.7237 66.1541L22.7003 66.2967L22.4774 66.5889L22.2807 66.4188L22.2312 66.3269L22.4307 66.1389L22.6425 66.1664L22.6989 66.1239L22.7237 66.1541ZM22.9961 67.0923L22.9507 67.1142L22.8874 67.1018L22.7595 67.0388L22.6123 66.7727L22.6907 66.5861L22.7444 66.5408L22.8737 66.556L22.9424 66.5916L22.9658 66.6602L22.9287 66.8069L22.9342 66.9332L22.9961 67.0923ZM24.4612 68.0511L24.3002 68.073L24.2232 67.4407L24.2686 67.3501L24.497 67.6601L24.8216 67.8494L24.6937 67.9729L24.4612 68.0511ZM22.7595 68.8823L22.7897 69.099L22.549 68.8685L22.5077 68.2266L22.6976 68.6313L22.7801 68.7232L22.7595 68.8823ZM24.6056 68.6765L24.508 69.4817L24.2631 69.3706H24.1462L24.0003 68.9152L24.0113 68.7931L23.9233 68.4941L24.4914 68.442L24.6056 68.6765ZM23.3235 69.719L23.3015 69.8068L23.2754 69.804L23.1887 69.7423L23.2424 69.372L23.3881 69.0688L23.5381 68.6244L23.6221 68.5284L23.6523 68.7629L23.5601 69.2663L23.4817 69.5407L23.3235 69.719ZM24.5602 71.7326L24.4722 71.7408L24.391 71.7216L24.3112 71.6613L24.5011 71.2429L24.5602 71.7326ZM23.2781 71.7669L23.6 72.4404L23.5656 72.5446L23.5161 72.5968L23.4391 72.5789L23.3097 72.2154L23.0676 71.9809L22.7774 72.0248L23.0181 71.7271L23.1131 71.6599L23.2781 71.7669ZM23.1735 75.731L22.9864 75.9573L22.9232 75.9477L23.0099 75.5719L23.3207 75.2976L23.5945 75.2729L23.5642 75.4429L23.3634 75.6514L23.1735 75.731Z"/>
</mask>
<path d="M34.5876 29.3934L34.3607 29.7994L33.7705 30.2205L33.3537 30.4345L33.1102 30.44L32.9038 30.6924L32.7346 31.1889L32.5585 31.4797L32.3769 31.5661L32.26 31.754L32.2049 32.0421L32.3096 32.1957L32.5736 32.2163L32.5943 32.2972L32.3714 32.4385L32.0935 32.4879L31.7634 32.4454L31.4483 32.5592L31.1512 32.8267L30.8981 33.4042L30.6889 34.2903L30.6615 34.5179L30.2019 34.2601L30.0108 34.1147L29.7645 34.0776L29.5113 34.2409L29.3105 34.4178L29.1055 34.4823L28.7905 34.5029L28.3778 34.4109L28.0972 34.3286L28.0545 34.3739L28.2072 34.747L28.2608 35.0447L28.2004 35.1997L28.0669 35.3286L27.866 35.4301L27.6294 35.4891L27.4203 35.4836L27.086 35.3423L26.8301 35.3368L26.6114 35.4068L26.478 35.511L26.4037 35.6413L26.2744 36.3766L26.1615 36.6056L26.0033 36.7359L25.8451 36.7496L25.6277 36.714L25.4008 36.7442L24.3704 37.0281L24.2205 37.0555L23.8986 37.0775L23.5986 37.0857L23.3881 37.072L22.8942 36.7812L22.6549 36.751L22.5229 36.8333L22.432 37.2229L22.1432 37.4711L21.7579 38.0102L21.6699 38.7976L21.7084 39.3462L21.3631 39.8894L21.3315 40.1514L21.5172 41.4078L21.487 41.5395L21.4154 41.604L21.1994 41.6478L20.8349 41.7795L20.5941 41.9044L20.4786 41.9181L20.1387 41.8248L20.0507 41.8234L20.0769 41.9194L20.3479 42.4626L20.6285 42.7205L20.9216 42.6917L21.0481 42.7424L21.011 42.8727L21.1237 43.2129L21.3851 43.7616L21.4649 44.1731L21.3054 44.5818L21.3342 44.7286L21.4209 44.815L21.6685 45.195L22.1954 45.7889L22.7113 46.4308L23.1419 46.9658L23.457 47.3361L24.1613 48.0234L24.2865 48.3457L24.314 48.9959L24.4873 49.3717L24.6483 49.6406L24.7597 49.8655L25.0183 50.6007L25.1284 50.6995L25.6925 50.2523L25.8231 50.3456L25.8974 50.5143V50.7283L25.8094 50.9711L25.6264 51.196L24.7542 51.7145L24.6827 52.1603L24.6222 52.8365L24.6071 53.6664L24.6496 54.2864L24.6181 54.4291L24.541 54.4962L24.2122 54.4688L23.7389 54.7816L23.5711 54.809L23.3634 54.9283L23.2052 55.0765L23.1543 55.3014L23.2478 55.9818L23.417 56.6196L23.7486 57.0873L24.0113 57.4577L24.3787 57.972L24.6675 58.4192L25.2522 58.9089L26.0721 59.6414L26.3858 60.046L26.6623 60.5357L26.8577 60.954L26.9319 61.5082L26.9924 61.8182L27.0103 62.8552L26.8604 63.0911L26.7448 63.364L26.8095 63.6494L27.0007 63.9223V64.2337L27.1796 64.792L27.4794 65.1335L27.7684 65.3626L27.8963 65.5437L27.855 65.8345L27.9403 66.143L28.0036 66.4791L28.1205 66.9441L28.353 67.3378L28.7066 68.5435L28.6984 68.6669L28.5456 68.9111L28.3228 69.1319L28.1797 69.2033L28.0435 69.4309L27.7203 70.0742L27.0682 71.1826L26.4326 71.9041L25.8974 72.417L25.5109 72.7284L25.3967 72.9136V73.059L25.4669 73.3169L25.4393 73.8079L25.3568 74.1193L25.2467 74.4485L25.1848 74.742L25.0129 74.7859L24.6442 75.3456L24.4846 75.0644L24.391 74.7722L24.4914 74.1097L24.2672 72.8546L24.4076 72.6873L24.541 72.6022L24.7858 72.1208L25.0816 71.6434L25.1105 71.0728L25.3499 70.6545L25.2935 70.3047L25.3059 69.8946L25.3568 69.5585L25.3375 69.2828L25.5273 68.9975L25.8561 68.7835L25.7186 68.7067L25.581 68.5503L25.1504 68.7876L24.9303 68.7094L24.8862 68.4625L24.9413 68.1978L24.9633 68.0373L25.1353 67.8563L25.1229 67.5024L25.0362 67.191L25.1614 66.8056L24.9069 66.8042L24.79 66.726L24.8629 66.512L25.094 66.3227L24.8836 65.9606L25.039 65.5725L25.0335 65.0924L24.9276 64.6685L24.9331 64.364L24.7707 63.8236L24.6964 63.1323L24.3539 62.6179L24.0994 61.8676L23.4198 60.8855L23.4322 60.4644L23.3964 60.094L23.2478 59.9143L23.0511 61.2243L22.9011 60.9664L22.853 60.2353L22.7554 59.8883L22.8612 59.1983L22.4678 58.5125L22.3839 58.0146L22.1253 57.2588L22.2009 57.0887L22.5462 57.2588L22.2285 56.8185L21.9698 56.9172L21.7497 56.4413L21.7016 55.1506L21.4856 54.6677L21.6039 54.1753L21.3577 52.4086L20.8707 51.8352L20.9669 51.3414L21.088 50.9025L21.0605 50.0904L21.1802 49.8394L21.4168 49.6474L21.1953 49.7146L21.0069 49.7722L20.5652 49.8202L20.0659 49.8299L19.8926 49.2359L19.6476 48.9506L19.433 48.3539L19.3037 47.675L19.3877 47.5419L19.0024 47.2648L18.9034 47.0947L18.5003 46.6531L18.0422 46.317L18.144 46.5529L18.2678 46.7025L18.0394 47.1112L18.2624 47.7998L18.067 48.2387L17.884 48.8093L17.7093 49.0809L17.1576 49.6652L16.7105 49.8628L16.4189 49.8998L16.1603 49.8381L15.8438 49.5363L15.7668 49.2839L15.7159 48.8601L15.6045 48.7997L15.4848 48.8491L15.6719 49.3964L15.6692 49.6515L16.0062 50.1426L15.8865 50.2797L15.2757 50.5486L15.068 50.5047L14.9208 50.5582L14.8809 50.779L14.8038 50.9025L13.8422 51.2399L13.6414 51.6199L13.5175 52.0053L13.0388 52.5581L12.3978 53.0149L12.2395 52.9888L12.058 52.8818L12.0827 52.388L12.3028 51.9697L12.2326 51.5225L12.179 51.779L11.7649 52.4017L11.5764 52.6047L11.1967 52.5512L10.6713 52.6349L10.4731 51.9957L10.4772 51.7612L10.4388 51.5623L10.4993 51.3524L10.48 51.185L10.3535 51.5046L10.3053 51.7817L10.1127 52.0286L9.58585 52.2934L9.56377 51.9573L9.54589 51.6542L9.65874 51.3812L9.6422 50.9491L9.81004 50.3236L9.79627 50.1097L9.74539 49.8724L9.65185 50.2166L9.5982 50.5733L9.49232 50.6816L9.29827 50.7626L8.94335 51.1713L8.73562 51.5376L8.18539 51.8832L7.89512 51.8476L7.85793 51.4087L8.07808 49.8518L8.29404 49.6323L8.39447 49.3621L8.57466 48.45L8.77693 48.1057L8.8567 47.3814L8.93923 47.2566L9.21028 46.6874L9.30381 45.6422L9.19239 45.1223L8.93789 44.6175L8.69296 43.1005L8.05466 41.8687L8.00243 41.4572L7.68739 40.9593L7.97766 40.9236L7.38058 40.4874L7.29804 40.3091L7.17839 39.2859L7.20173 38.7139L7.11508 38.7893L7.03389 39.1418L6.80004 39.2859L6.90458 39.8963L6.87712 40.0444L6.75327 40.2817L6.25527 40.0348L5.88935 39.7659L5.47523 39.1116L5.06943 38.3778L5.2125 38.264L5.39958 38.2502L5.976 38.7962L6.34881 38.91L6.58543 38.7742L6.87847 38.541L7.01877 38.0884L6.8757 37.9224L6.59365 37.8319L6.40801 37.7098L6.13831 37.4025L6.10531 37.2462L6.02143 37.0459L5.74904 36.9047L5.52889 36.725L5.71462 36.4081L5.89758 36.1722L5.41335 36.1832L4.86304 35.7771L4.74885 35.6592L4.56588 35.5782L4.13254 35.5302L3.77216 35.6496L3.93589 36.2298L3.90423 36.4218L3.66762 36.393L3.17508 35.5097L3.3237 35.2861L3.53554 35.0762L3.431 35.046L3.22596 35.0598L3.42681 34.2751L3.30438 34.1586L3.24116 34.4041L3.13242 34.64L2.71285 35.1942L2.50512 35.0899L2.36204 34.9514L2.56288 34.6606L2.67162 34.5824L2.74727 34.426L2.59177 34.1215L2.34415 33.8993L2.14608 33.5166L2.04288 33.5112L2.13374 33.9624L2.09654 34.6071L1.65354 33.8952L0.766271 32.8829L0.557112 32.5784L0.510343 32.2808L0.411348 32.0064L0.34258 31.706L0.327382 31.4742L0.134849 31.2644L0.0481123 30.8968L0 30.5237L0.110079 30.2576L0.386578 29.9709L0.583309 29.9201L0.745615 30.0463L1.12808 30.2356L1.38669 30.4126L1.50089 30.6444L1.62196 30.6155L1.74439 30.4674L1.71962 30.285L1.59577 29.8049L1.56143 29.2219L1.55588 27.8558L1.52566 27.6994L1.73884 27.5622L1.8255 27.4058L1.91223 27.1727L1.96723 27.0698L2.09108 27.0629L2.28638 27.1768L2.60554 27.5677L2.81881 27.6555L3.03066 27.5938L3.25216 27.0081L3.33327 26.8489L3.44058 26.7447L3.63731 26.7625L3.7515 26.6569L3.79416 26.4032L3.79281 26.1206L3.57408 25.347L3.508 24.989L3.47223 24.6365L3.60985 24.273L3.79693 23.8478L3.75284 23.476L3.80381 23.332L3.95646 23.3114L4.14774 23.4006L4.35815 23.3389L4.51777 23.1112L4.58243 22.9123L4.67873 22.0523L4.74339 21.2635L4.77093 20.6202L4.6072 20.2348L4.35547 19.1978L4.42835 19.0208L4.54254 18.9797L4.91535 19.3432L5.07631 19.4036L5.34735 19.3473L5.6142 19.2664L5.80816 19.2609L6.08743 19.3857L6.47123 19.5243L7.07243 19.6957L7.3187 19.8247L7.52231 19.8069L7.68739 19.4036L7.87858 18.8151L8.16196 17.9386L8.48666 17.3008L8.57331 17.1307L8.93512 16.6108L9.28593 16.0649L9.59274 15.375L9.76327 14.8771L9.74816 14.6699L9.63808 14.4985L9.40835 14.3888L9.2185 14.2749L9.16628 14.172L9.17174 14.0554L9.26939 13.7317L9.43589 13.349L9.6092 13.1419L10.0645 12.8854L10.3548 12.5548L10.6823 12.1173L10.8597 11.8196L10.9491 11.2133L11.0468 11.0926L11.2477 10.8965L11.4004 10.6674L11.388 10.5426L11.3068 10.4535L11.1555 10.0282L11.0853 9.36159L11.1183 8.8198L11.2325 8.59895L11.3839 8.29169L11.6645 8.1024L12.0649 7.97071L12.677 7.61134L13.7377 6.77737L14.1201 6.50578L14.3815 6.36451L14.636 6.01472L14.9854 5.63204L15.4848 5.44137L15.8054 5.36732L17.3186 5.10532L17.5731 5.13826L17.829 5.29051L18.1467 5.80078L18.4288 5.99279L18.7562 6.1272L19.0024 6.0696L19.0093 5.86386L18.2307 4.67324L18.1605 4.34816L18.133 4.0368L18.221 3.78991L18.4646 3.55399L18.8002 3.28789L19.2184 2.95456L19.4812 2.72412L19.7907 2.65002L19.9021 2.51699L19.9338 2.3236L19.9172 2.11233L19.7756 1.87369L19.8045 1.5733L19.8512 1.30034L19.9833 1.14123L20.2722 0.709149L20.451 0.396413L20.5446 0.263341L20.6835 0.0287996L20.9201 0L21.1513 0.0740502L21.2888 0.207123L21.4264 0.47871L21.5764 0.700902H21.7607L21.9478 0.66934L22.0344 0.699521L22.2133 0.884709L22.5545 1.32914L22.7058 1.44161L22.8489 1.6309L22.9246 2.00948L22.9713 2.38941L23.3991 3.70762L23.5271 3.98469L23.6221 4.19591L23.8215 4.24803L23.9839 4.0368L24.0471 3.81047L24.2149 3.73365L24.4158 3.7748L24.7845 3.98603L24.9826 4.09988L25.0816 4.75005L25.1036 5.51132L25.0747 5.74728L25.2357 6.37413L25.2852 7.09287L25.3196 7.48652L25.3238 7.861L25.2949 8.35206L25.2082 9.00909L25.0637 9.5701L25.1161 10.0365L25.0293 10.2491L24.6772 10.3574L24.6469 10.5358L24.7501 10.8279L24.9963 11.1941L25.0032 11.4246L24.8836 11.581L24.6249 11.596L24.2658 11.7415L24.0182 12.2133L23.7568 12.6001L23.6137 12.6769L23.1351 12.5672L23.0209 12.6659L22.853 13.3243L22.7155 13.6083L22.5104 13.847L22.322 13.9882L22.1514 14.087L21.7717 14.0211L21.5709 14.4176L21.37 14.9402L21.3535 15.2104L21.4581 15.6356L21.403 15.7536L21.1981 15.8455L20.861 16.0361L20.6533 16.641L20.6615 17.2281L20.7854 17.4284L21.0179 17.5162L21.1843 17.6959L21.2008 17.9784L21.3439 18.3309L21.2765 18.7411L20.8032 19.3377L20.7895 19.6628L21.0412 19.7629L21.2586 19.7163L21.5269 19.575L21.8419 19.3473L22.5352 19.0154L23.2905 18.8261L23.8876 18.7904L24.3979 18.8041L24.6483 18.8741L24.7239 18.9962L25.4228 18.8028L25.5686 18.7918L25.6952 18.7808L25.6911 18.9098L25.1793 19.4406L25.0844 19.6875L25.1009 19.9522L25.31 20.1977L25.5122 20.387L25.6842 20.8616L25.5507 21.2951L25.6361 21.4528L25.786 21.6298L25.8768 21.8794L25.8891 22.1826L25.8039 22.6668L26.5426 22.9191L27.1809 23.033L27.6459 23.0632L27.9444 23.1743L28.1246 23.2703L28.2513 23.4431L28.2884 23.6324L28.1329 23.7655L27.8179 24.1893L27.6363 24.7558L27.6555 25.1797L27.6335 25.5473L27.2676 26.0767L27.1232 26.4402L26.9952 26.8119L26.9993 26.9738L27.075 27.0862L27.2305 27.1521L27.5001 27.1919L27.8302 27.1494L28.6172 27.2385L29.5155 27.4017L29.8718 27.4909L29.9888 27.6555L29.9599 28.0135L29.9034 28.3468L29.9612 28.6033L30.1056 28.8379L30.3491 28.9161L30.5583 29.0066L30.5982 29.1863L30.5335 29.4304L30.6394 29.6225L30.7591 29.7487L31.0178 29.8214L31.5419 29.665L31.9092 29.7349L32.2407 29.8419L32.5228 29.7857L32.802 29.6485L33.4129 29.0299L34.1241 28.6952L34.3579 28.6157L34.5148 28.6554L34.5533 28.698L34.5436 28.8241L34.6179 29.333L34.5876 29.3934ZM3.20262 36.12L3.2535 36.5069L3.06777 36.3478L2.8257 35.8101L2.83258 35.4575L3.00589 35.6222L3.20262 36.12ZM5.06254 36.2476L5.14642 36.8086L4.88235 36.5987L4.78461 36.3093L4.7585 36.013L5.06254 36.2476ZM5.92369 37.6069L6.36535 37.943L6.54143 37.9197L6.81516 38.1323L6.82204 38.216L6.76981 38.3888L6.64597 38.5246L6.3117 38.6604L6.08197 38.5506L5.99112 38.183L5.7215 38.0102L5.65131 37.8635L5.82193 37.6632L5.92369 37.6069ZM5.83158 41.1458L5.76693 41.1801L5.36524 40.8413L5.04743 40.4051L5.55231 40.3187L6.03931 40.4134L6.042 40.6452L5.93746 41.0183L5.83158 41.1458ZM20.828 50.8984L20.6822 50.9505L20.4634 50.6899L20.4194 50.0699L20.6024 49.9272L20.7001 49.8929L20.8431 49.9698L20.8981 50.0699L20.9229 50.1947L20.8844 50.3223L20.828 50.8984ZM8.86635 52.1219L8.61462 52.5101L8.52243 51.9298L8.93101 51.6075L9.1332 51.2989L9.34647 51.0891L9.41389 51.3455L9.21162 51.8311L8.86635 52.1219ZM10.1333 52.6253L10.0535 52.7268L9.89535 52.6541L9.85824 52.6102L10.2227 52.1726L10.2613 52.3359L10.1333 52.6253ZM23.6867 63.3737L23.6619 64.0184L23.468 63.707L23.4363 63.3517L23.4514 63.0211L23.4927 62.9676L23.5051 63.0184L23.6206 63.1666L23.6867 63.3737ZM24.0664 65.3393L24.1531 65.4476L24.2768 65.4449L24.2425 65.8276L23.9398 66.2981L23.7596 66.3667H23.6798L23.7472 65.6794L23.6357 65.2871L23.6729 65.0265L23.9976 65.1472L24.0664 65.3393ZM22.7237 66.1541L22.7003 66.2967L22.4774 66.5889L22.2807 66.4188L22.2312 66.3269L22.4307 66.1389L22.6425 66.1664L22.6989 66.1239L22.7237 66.1541ZM22.9961 67.0923L22.9507 67.1142L22.8874 67.1018L22.7595 67.0388L22.6123 66.7727L22.6907 66.5861L22.7444 66.5408L22.8737 66.556L22.9424 66.5916L22.9658 66.6602L22.9287 66.8069L22.9342 66.9332L22.9961 67.0923ZM24.4612 68.0511L24.3002 68.073L24.2232 67.4407L24.2686 67.3501L24.497 67.6601L24.8216 67.8494L24.6937 67.9729L24.4612 68.0511ZM22.7595 68.8823L22.7897 69.099L22.549 68.8685L22.5077 68.2266L22.6976 68.6313L22.7801 68.7232L22.7595 68.8823ZM24.6056 68.6765L24.508 69.4817L24.2631 69.3706H24.1462L24.0003 68.9152L24.0113 68.7931L23.9233 68.4941L24.4914 68.442L24.6056 68.6765ZM23.3235 69.719L23.3015 69.8068L23.2754 69.804L23.1887 69.7423L23.2424 69.372L23.3881 69.0688L23.5381 68.6244L23.6221 68.5284L23.6523 68.7629L23.5601 69.2663L23.4817 69.5407L23.3235 69.719ZM24.5602 71.7326L24.4722 71.7408L24.391 71.7216L24.3112 71.6613L24.5011 71.2429L24.5602 71.7326ZM23.2781 71.7669L23.6 72.4404L23.5656 72.5446L23.5161 72.5968L23.4391 72.5789L23.3097 72.2154L23.0676 71.9809L22.7774 72.0248L23.0181 71.7271L23.1131 71.6599L23.2781 71.7669ZM23.1735 75.731L22.9864 75.9573L22.9232 75.9477L23.0099 75.5719L23.3207 75.2976L23.5945 75.2729L23.5642 75.4429L23.3634 75.6514L23.1735 75.731Z" fill="var(--fill-0, #71B219)" stroke="var(--stroke-0, white)" mask="url(#path-1-inside-1_0_83)"/>
</g>
</svg>
