<svg preserveAspectRatio="none" width="100%" height="100%" overflow="visible" style="display: block;" viewBox="0 0 35 76" fill="none" xmlns="http://www.w3.org/2000/svg"><g id="MM"><mask id="path-1-inside-1_0_83" fill="white"><path d="M35 29L34 30L34 30L33 30L33 30L33 31L33 31L33 32L32 32L32 32L32 32L32 32L33 32L33 32L32 32L32 32L32 32L31 33L31 33L31 33L31 34L31 34L30 34L30 34L30 34L30 34L29 34L29 34L29 34L28 34L28 34L28 34L28 35L28 35L28 35L28 35L28 35L28 36L27 36L27 35L27 35L27 35L26 36L26 36L26 36L26 37L26 37L26 37L26 37L25 37L24 37L24 37L24 37L24 37L23 37L23 37L23 37L22 37L22 37L22 38L22 38L22 39L22 39L21 40L21 40L22 41L22 42L21 42L21 42L21 42L21 42L20 42L20 42L20 42L20 42L20 42L21 43L21 43L21 43L21 43L21 43L21 44L22 44L21 45L21 45L21 45L22 45L22 46L23 46L23 47L24 47L24 48L24 48L24 49L24 49L25 50L25 50L25 51L25 51L26 50L26 50L26 50V51L26 51L26 51L25 52L25 52L25 53L25 54L25 54L25 54L24 54L24 54L24 55L24 55L23 55L23 55L23 55L23 56L23 57L24 57L24 58L24 58L25 58L25 59L26 60L26 60L27 60L27 61L27 62L27 62L27 63L27 63L27 63L27 64L27 64V64L27 65L28 65L28 65L28 66L28 66L28 66L28 66L28 67L28 67L29 68L29 69L28 69L28 69L28 69L28 69L28 70L27 71L26 72L26 72L26 73L25 73V73L26 73L25 74L25 74L25 74L25 75L25 75L25 75L24 75L24 75L24 74L24 73L24 73L24 73L25 72L25 72L25 71L25 71L25 70L25 70L25 70L25 69L26 69L26 69L26 69L26 69L25 69L25 69L25 68L25 68L25 68L25 68L25 68L25 67L25 67L25 67L25 67L25 66L25 66L25 66L25 66L25 65L25 65L25 64L25 64L25 63L24 63L24 62L23 61L23 60L23 60L23 60L23 61L23 61L23 60L23 60L23 59L22 58L22 58L22 57L22 57L22 57L22 57L22 57L22 56L22 55L22 55L22 54L21 52L21 52L21 51L21 51L21 50L21 50L21 50L21 50L21 50L21 50L20 50L20 49L20 49L19 48L19 48L19 48L19 47L19 47L18 47L18 46L18 47L18 47L18 47L18 48L18 48L18 49L18 49L17 50L17 50L16 50L16 50L16 50L16 49L16 49L16 49L16 49L16 49L16 50L16 50L16 50L15 50L15 50L15 51L15 51L15 51L14 51L14 52L14 52L13 53L12 53L12 53L12 53L12 52L12 52L12 52L12 52L12 52L12 53L11 53L11 53L10 52L10 52L10 52L10 51L10 51L10 52L10 52L10 52L10 52L10 52L10 52L10 51L10 51L10 50L10 50L10 50L10 50L10 51L10 51L9 51L9 51L9 52L8 52L8 52L8 51L8 50L8 50L8 49L9 48L9 48L9 47L9 47L9 47L9 46L9 45L9 45L9 43L8 42L8 42L8 41L8 41L7 40L7 40L7 39L7 39L7 39L7 39L7 39L7 40L7 40L7 40L6 40L6 40L6 39L5 38L5 38L5 38L6 39L6 39L7 39L7 38L7 38L7 38L7 38L6 38L6 37L6 37L6 37L6 37L6 37L6 36L6 36L5 36L5 36L5 36L5 36L4 36L4 36L4 36L4 36L4 36L3 36L3 35L4 35L3 35L3 35L3 34L3 34L3 34L3 35L3 35L2 35L2 35L3 35L3 35L3 34L3 34L2 34L2 34L2 34L2 34L2 35L2 34L1 33L1 33L0 32L0 32L0 32L0 32L0 31L0 31L0 30L0 30L0 30L1 30L1 30L1 30L1 30L2 31L2 31L2 30L2 30L2 30L2 29L2 28L2 28L2 28L2 27L2 27L2 27L2 27L2 27L3 28L3 28L3 28L3 27L3 27L3 27L4 27L4 27L4 26L4 26L4 25L4 25L4 25L4 24L4 24L4 24L4 23L4 23L4 23L4 23L4 23L5 23L5 22L5 21L5 21L5 20L4 19L4 19L4 19L5 19L5 19L5 19L6 19L6 19L6 19L6 20L7 20L7 20L8 20L8 19L8 19L8 18L8 17L9 17L9 17L9 16L10 15L10 15L10 15L10 14L9 14L9 14L9 14L9 14L9 14L9 13L10 13L10 13L10 13L11 12L11 12L11 11L11 11L11 11L11 11L11 10L11 10L11 10L11 9L11 9L11 9L11 8L12 8L12 8L13 8L14 7L14 6L14 6L15 6L15 6L16 5L16 5L17 5L18 5L18 5L18 6L18 6L19 6L19 6L19 6L18 5L18 4L18 4L18 4L18 4L19 3L19 3L20 3L20 3L20 2L20 2L20 2L20 2L20 2L20 1L20 1L20 1L20 0L20 0L21 0L21 0L21 0L21 0L21 0L22 1H22L22 1L22 1L22 1L23 1L23 1L23 2L23 2L23 2L23 4L24 4L24 4L24 4L24 4L24 4L24 4L24 4L25 4L25 4L25 5L25 6L25 6L25 6L25 7L25 8L25 8L25 8L25 9L25 10L25 10L25 10L25 10L25 10L25 11L25 11L25 11L25 12L25 12L24 12L24 12L24 13L24 13L23 13L23 13L23 13L23 14L22 14L22 14L22 14L22 14L22 14L21 15L21 15L22 16L21 16L21 16L21 16L21 17L21 17L21 17L21 18L21 18L21 18L21 18L21 19L21 19L21 20L21 20L21 20L22 20L22 19L22 19L23 19L24 19L24 19L25 19L25 19L25 19L26 19L26 19L26 19L25 19L25 20L25 20L25 20L26 20L26 21L26 21L26 22L26 22L26 22L26 22L26 23L26 23L27 23L28 23L28 23L28 23L28 23L28 24L28 24L28 24L28 25L28 25L28 26L27 26L27 26L27 27L27 27L27 27L27 27L28 27L28 27L29 27L30 27L30 28L30 28L30 28L30 28L30 29L30 29L30 29L31 29L31 29L30 29L31 30L31 30L31 30L32 30L32 30L32 30L32 30L33 30L33 29L34 29L34 29L34 29L35 29L34 29L35 29L35 29ZM3 36L3 36L3 36L3 36L3 36L3 36L3 36ZM5 36L5 37L5 37L5 36L5 36L5 36ZM6 38L6 38L6 38L7 38L7 38L7 38L7 38L6 39L6 39L6 38L6 38L6 38L6 38L6 38ZM6 41L6 41L5 41L5 40L6 40L6 40L6 41L6 41L6 41ZM21 51L21 51L20 51L20 50L21 50L21 50L21 50L21 50L21 50L21 50L21 51ZM9 52L9 52L8 52L9 52L9 51L9 51L9 51L9 52L9 52ZM10 53L10 53L10 53L10 53L10 52L10 52L10 53ZM24 63L24 64L24 64L23 63L24 63L24 63L24 63L24 63L24 63ZM24 65L24 65L24 65L24 66L24 66L24 66H24L24 66L24 65L24 65L24 65L24 65ZM23 66L23 66L22 67L22 66L22 66L22 66L23 66L23 66L23 66ZM23 67L23 67L23 67L23 67L23 67L23 67L23 66L23 67L23 67L23 67L23 67L23 67L23 67ZM24 68L24 68L24 67L24 67L24 68L25 68L25 68L24 68ZM23 69L23 69L22 69L22 68L23 69L23 69L23 69ZM25 69L24 70L24 69H24L24 69L24 69L24 68L24 68L25 69ZM23 70L23 70L23 70L23 70L23 69L23 69L24 69L24 68L24 69L24 69L24 70L23 70ZM25 72L24 72L24 72L24 72L24 71L25 72ZM23 72L24 72L24 72L24 73L23 73L23 72L23 72L23 72L23 72L23 72L23 72ZM23 76L23 76L23 76L23 76L23 75L24 75L24 75L23 76L23 76Z"/></mask><path d="M35 29L34 30L34 30L33 30L33 30L33 31L33 31L33 32L32 32L32 32L32 32L32 32L33 32L33 32L32 32L32 32L32 32L31 33L31 33L31 33L31 34L31 34L30 34L30 34L30 34L30 34L29 34L29 34L29 34L28 34L28 34L28 34L28 35L28 35L28 35L28 35L28 35L28 36L27 36L27 35L27 35L27 35L26 36L26 36L26 36L26 37L26 37L26 37L26 37L25 37L24 37L24 37L24 37L24 37L23 37L23 37L23 37L22 37L22 37L22 38L22 38L22 39L22 39L21 40L21 40L22 41L22 42L21 42L21 42L21 42L21 42L20 42L20 42L20 42L20 42L20 42L21 43L21 43L21 43L21 43L21 43L21 44L22 44L21 45L21 45L21 45L22 45L22 46L23 46L23 47L24 47L24 48L24 48L24 49L24 49L25 50L25 50L25 51L25 51L26 50L26 50L26 50V51L26 51L26 51L25 52L25 52L25 53L25 54L25 54L25 54L24 54L24 54L24 55L24 55L23 55L23 55L23 55L23 56L23 57L24 57L24 58L24 58L25 58L25 59L26 60L26 60L27 60L27 61L27 62L27 62L27 63L27 63L27 63L27 64L27 64V64L27 65L28 65L28 65L28 66L28 66L28 66L28 66L28 67L28 67L29 68L29 69L28 69L28 69L28 69L28 69L28 70L27 71L26 72L26 72L26 73L25 73V73L26 73L25 74L25 74L25 74L25 75L25 75L25 75L24 75L24 75L24 74L24 73L24 73L24 73L25 72L25 72L25 71L25 71L25 70L25 70L25 70L25 69L26 69L26 69L26 69L26 69L25 69L25 69L25 68L25 68L25 68L25 68L25 68L25 67L25 67L25 67L25 67L25 66L25 66L25 66L25 66L25 65L25 65L25 64L25 64L25 63L24 63L24 62L23 61L23 60L23 60L23 60L23 61L23 61L23 60L23 60L23 59L22 58L22 58L22 57L22 57L22 57L22 57L22 57L22 56L22 55L22 55L22 54L21 52L21 52L21 51L21 51L21 50L21 50L21 50L21 50L21 50L21 50L20 50L20 49L20 49L19 48L19 48L19 48L19 47L19 47L18 47L18 46L18 47L18 47L18 47L18 48L18 48L18 49L18 49L17 50L17 50L16 50L16 50L16 50L16 49L16 49L16 49L16 49L16 49L16 50L16 50L16 50L15 50L15 50L15 51L15 51L15 51L14 51L14 52L14 52L13 53L12 53L12 53L12 53L12 52L12 52L12 52L12 52L12 52L12 53L11 53L11 53L10 52L10 52L10 52L10 51L10 51L10 52L10 52L10 52L10 52L10 52L10 52L10 51L10 51L10 50L10 50L10 50L10 50L10 51L10 51L9 51L9 51L9 52L8 52L8 52L8 51L8 50L8 50L8 49L9 48L9 48L9 47L9 47L9 47L9 46L9 45L9 45L9 43L8 42L8 42L8 41L8 41L7 40L7 40L7 39L7 39L7 39L7 39L7 39L7 40L7 40L7 40L6 40L6 40L6 39L5 38L5 38L5 38L6 39L6 39L7 39L7 38L7 38L7 38L7 38L6 38L6 37L6 37L6 37L6 37L6 37L6 36L6 36L5 36L5 36L5 36L5 36L4 36L4 36L4 36L4 36L4 36L3 36L3 35L4 35L3 35L3 35L3 34L3 34L3 34L3 35L3 35L2 35L2 35L3 35L3 35L3 34L3 34L2 34L2 34L2 34L2 34L2 35L2 34L1 33L1 33L0 32L0 32L0 32L0 32L0 31L0 31L0 30L0 30L0 30L1 30L1 30L1 30L1 30L2 31L2 31L2 30L2 30L2 30L2 29L2 28L2 28L2 28L2 27L2 27L2 27L2 27L2 27L3 28L3 28L3 28L3 27L3 27L3 27L4 27L4 27L4 26L4 26L4 25L4 25L4 25L4 24L4 24L4 24L4 23L4 23L4 23L4 23L4 23L5 23L5 22L5 21L5 21L5 20L4 19L4 19L4 19L5 19L5 19L5 19L6 19L6 19L6 19L6 20L7 20L7 20L8 20L8 19L8 19L8 18L8 17L9 17L9 17L9 16L10 15L10 15L10 15L10 14L9 14L9 14L9 14L9 14L9 14L9 13L10 13L10 13L10 13L11 12L11 12L11 11L11 11L11 11L11 11L11 10L11 10L11 10L11 9L11 9L11 9L11 8L12 8L12 8L13 8L14 7L14 6L14 6L15 6L15 6L16 5L16 5L17 5L18 5L18 5L18 6L18 6L19 6L19 6L19 6L18 5L18 4L18 4L18 4L18 4L19 3L19 3L20 3L20 3L20 2L20 2L20 2L20 2L20 2L20 1L20 1L20 1L20 0L20 0L21 0L21 0L21 0L21 0L21 0L22 1H22L22 1L22 1L22 1L23 1L23 1L23 2L23 2L23 2L23 4L24 4L24 4L24 4L24 4L24 4L24 4L24 4L25 4L25 4L25 5L25 6L25 6L25 6L25 7L25 8L25 8L25 8L25 9L25 10L25 10L25 10L25 10L25 10L25 11L25 11L25 11L25 12L25 12L24 12L24 12L24 13L24 13L23 13L23 13L23 13L23 14L22 14L22 14L22 14L22 14L22 14L21 15L21 15L22 16L21 16L21 16L21 16L21 17L21 17L21 17L21 18L21 18L21 18L21 18L21 19L21 19L21 20L21 20L21 20L22 20L22 19L22 19L23 19L24 19L24 19L25 19L25 19L25 19L26 19L26 19L26 19L25 19L25 20L25 20L25 20L26 20L26 21L26 21L26 22L26 22L26 22L26 22L26 23L26 23L27 23L28 23L28 23L28 23L28 23L28 24L28 24L28 24L28 25L28 25L28 26L27 26L27 26L27 27L27 27L27 27L27 27L28 27L28 27L29 27L30 27L30 28L30 28L30 28L30 28L30 29L30 29L30 29L31 29L31 29L30 29L31 30L31 30L31 30L32 30L32 30L32 30L32 30L33 30L33 29L34 29L34 29L34 29L35 29L34 29L35 29L35 29ZM3 36L3 36L3 36L3 36L3 36L3 36L3 36ZM5 36L5 37L5 37L5 36L5 36L5 36ZM6 38L6 38L6 38L7 38L7 38L7 38L7 38L6 39L6 39L6 38L6 38L6 38L6 38L6 38ZM6 41L6 41L5 41L5 40L6 40L6 40L6 41L6 41L6 41ZM21 51L21 51L20 51L20 50L21 50L21 50L21 50L21 50L21 50L21 50L21 51ZM9 52L9 52L8 52L9 52L9 51L9 51L9 51L9 52L9 52ZM10 53L10 53L10 53L10 53L10 52L10 52L10 53ZM24 63L24 64L24 64L23 63L24 63L24 63L24 63L24 63L24 63ZM24 65L24 65L24 65L24 66L24 66L24 66H24L24 66L24 65L24 65L24 65L24 65ZM23 66L23 66L22 67L22 66L22 66L22 66L23 66L23 66L23 66ZM23 67L23 67L23 67L23 67L23 67L23 67L23 66L23 67L23 67L23 67L23 67L23 67L23 67ZM24 68L24 68L24 67L24 67L24 68L25 68L25 68L24 68ZM23 69L23 69L22 69L22 68L23 69L23 69L23 69ZM25 69L24 70L24 69H24L24 69L24 69L24 68L24 68L25 69ZM23 70L23 70L23 70L23 70L23 69L23 69L24 69L24 68L24 69L24 69L24 70L23 70ZM25 72L24 72L24 72L24 72L24 71L25 72ZM23 72L24 72L24 72L24 73L23 73L23 72L23 72L23 72L23 72L23 72L23 72ZM23 76L23 76L23 76L23 76L23 75L24 75L24 75L23 76L23 76Z" fill="var(--fill-0,#71B219)" stroke="var(--stroke-0,white)" mask="url(#path-1-inside-1_0_83)"/></g></svg>