<svg preserveAspectRatio="none" width="100%" height="100%" overflow="visible" style="display: block;" viewBox="0 0 124.144 59.3204" fill="none" xmlns="http://www.w3.org/2000/svg">
<g id="MN">
<mask id="path-1-inside-1_0_177" fill="white">
<path d="M111.734 13.9869L111.372 14.8126L110.648 16.4614L110.036 17.8495L109.712 18.6286L109.475 19.2211L109.229 19.7822L109.193 20.1182L108.916 20.6587L108.402 21.3102L108.29 22.0152L108.311 22.6475L108.267 23.2127L107.703 23.5707L107.261 23.8889L107.388 24.9561L107.615 25.358L107.982 25.7914L108.369 26.1385L108.703 26.4306L109.072 26.2907L109.384 25.8449L109.987 25.4526L110.321 25.443L110.555 25.5335L111.078 25.5596L111.613 25.417L112.032 25.3868L112.574 25.4828L112.77 25.5761L113.225 25.7489L113.716 26.1261L114.06 26.5472L114.311 26.6281L114.438 26.4937L114.714 26.1192L115.1 25.7585L115.569 25.1659L115.923 24.7105L116.201 24.6406L116.737 24.642L116.978 24.5322L117.384 24.4746L117.743 24.6433L118.742 24.7325L119.01 24.9657L119.483 25.6584L119.751 26.0274L120.216 26.2125L120.497 26.3401L120.746 26.4388L120.994 26.6172L121.053 26.8325L121.153 27.1617L121.305 27.351L121.587 27.5375L121.801 27.65L121.869 27.8873L121.936 28.0039L122.133 28.1699L122.712 28.8777L122.994 29.067L123.423 29.4757L123.602 29.8145L123.612 30.1698L123.723 30.44L124.009 30.846L124.144 31.1203L124.09 31.492L124.137 31.8213L124.026 32.16L123.565 32.4111L123.405 32.5304L123.072 32.5414L122.508 32.4152L121.959 32.4865L121.303 32.3466L120.789 32.0489L120.513 31.8089L120.075 31.6676L119.868 31.7417L119.608 32.0503L119.322 31.9954L119.058 32.0503L118.378 31.9872L118.008 31.909L117.424 32.1244L117.092 32.1916L116.47 32.455L116.097 32.9117L115.818 33.0201L115.546 32.9982L115.352 32.8308L115.068 32.6292L114.648 32.6401L114.522 32.7266L114.47 32.9117L114.333 33.4741L114.335 33.7265L114.243 33.8897L113.994 33.9432L113.558 33.9281L112.874 33.8911L112.412 33.7457L112.134 33.8074L111.756 34.1119L111.486 34.1613L111.267 34.2902L111.09 34.7388L110.812 35.0172L110.476 35.3629L110.116 36.0995L109.918 36.5206L109.981 36.7469L110.025 37.0212L109.859 37.3326L109.52 37.622L109.248 37.6755L108.841 37.954L108.281 38.4546L107.863 38.8744L107.318 38.9759L106.931 39.0829L106.074 39.2132L105.862 39.2461L104.923 39.3105L104.227 39.0856L103.861 39.1199L103.536 39.2475L103.371 39.386L103.313 39.6494L103.255 39.8921L102.991 40.2693L102.459 40.7686L102.02 41.0992L101.683 41.5272L101.492 41.6822L101.107 41.8454L100.899 41.9332L100.416 42.3131L100.032 42.6519L99.779 42.7466L99.4736 42.6574L99.2714 42.6286L98.6743 42.4983L98.2699 42.4819L97.7045 42.3982L96.3811 42.0018L95.956 41.8166L95.5805 41.3118L95.2406 41.0553L94.7798 41.0279H94.0878L93.7782 40.9278L93.2582 41.0224L92.6901 41.5354L92.4218 41.9167L92.1893 42.3076L91.9045 43.1402L91.778 43.6957L91.6817 44.0085L91.3776 44.5064L91.3446 44.7849L91.4492 45.0263L91.6679 45.2979L91.7986 45.7244L92.1178 46.1771L92.4315 46.5296L93.0216 47.0975L93.1895 47.3952L93.389 47.7353L93.4316 48.0673L93.3944 48.284L93.1826 48.4499L92.7685 48.5336L92.569 48.7627L92.265 49.0699L91.9045 49.4239L91.7353 49.443L91.5317 49.5377L90.5124 49.9752L90.1245 50.0973L89.819 50.2427L89.4572 50.6871L89.1725 51.0177L88.8203 51.4567L88.6648 51.65L88.3525 52.0876L87.9412 52.5869L87.7128 52.8544L87.589 53.0135L87.4762 53.2234L87.0456 53.3838L86.6907 53.5553L86.1541 53.8132L85.3852 54.0957L84.7633 54.3701L84.3685 54.595L83.7811 54.879L83.3822 54.9695L82.5787 54.9585L81.5855 55.0312L80.8619 55.0861L80.3184 55.0175L79.4972 54.9777L78.8685 54.9228L78.4489 55.0285L77.4597 55.1396L77.2383 55.1643L75.4761 55.4331L74.6974 55.5758L73.9847 55.6416L73.4606 55.7458L73.1635 55.8775L72.7232 56.064L72.4907 56.1464L71.7108 56.514L69.9746 57.2711L68.8136 57.8843L68.6224 57.9885L67.8395 58.4206L67.387 58.5893L67.0719 58.9734L66.8202 59.2161L66.556 59.3204L66.0856 59.0735L65.7527 59.0872L64.6892 58.9967V57.8747L63.9436 58.0324L62.7537 58.2862L61.6504 58.5207L60.6406 57.983L59.8619 57.5674L59.185 57.2094L58.1588 56.9721L57.2632 56.765L55.6482 56.4235L54.9383 56.1244L54.5793 55.728L53.9382 54.8282L53.7305 54.6499L53.4182 54.5265L53.0948 54.4483L52.3933 54.4524L51.5376 54.3824L50.305 54.1931L49.3255 54.0409L47.6554 53.7597L47.2592 53.7254L46.3857 53.975L45.2658 54.2946L43.2559 54.0436L42.3645 53.927L40.5582 53.6883L38.5139 53.4181L36.5329 53.1383L35.094 53.2919L34.2919 53.3784L33.3661 53.5018L33.2381 53.3632L33.2009 52.8269L33.0345 52.4113L32.5283 51.9614L32.1885 51.5335L31.5405 50.9532L31.3369 50.587L31.2681 50.0191L30.6711 48.5364L30.2997 47.5282L30.2061 47.3238L30.0465 46.9946L29.8374 46.8231L29.3931 46.7175L29.2734 46.5392V46.1895L29.3436 45.7052L29.4343 45.3513L29.3697 45.2622L28.2099 45.3623L27.4988 45.1278L26.9058 44.8726L26.0639 44.2197L25.5645 43.9673L24.9248 43.2897L23.9949 43.1293L23.6482 42.8632L23.2107 42.2816L22.8296 41.9071L22.2876 41.6712L21.4319 41.4613L19.9709 41.261L19.4757 41.176L18.6695 41.3104L18.0711 41.3214L17.1012 41.1788L16.5482 40.999L15.8659 40.9936L15.4216 40.9963L14.8286 40.9552L14.5424 40.8372L14.2769 40.6932L13.7789 40.7288L13.4309 40.5848L13.1062 40.316L12.7664 40.1884L12.395 40.1966L12.2423 40.316L12.0992 40.305L12.0071 39.9415L11.659 39.3531L11.6067 39.0884L11.3935 38.7838L11.2683 38.5068L11.3027 38.1241L11.4527 37.3793L11.7869 36.7044L12.0043 36.5288L12.1377 36.3285L12.4184 35.9788L12.5807 35.699L12.5614 35.3149L12.3702 34.9144L12.2326 34.3972L12.2574 34.0996L12.4638 33.7457L12.7059 32.9597L12.6853 32.7526L12.5903 32.588L12.5655 32.2218L12.5188 31.7307L12.2285 30.9777L12.0717 30.5771L11.7966 30.4043L11.4747 30.3001L11.1967 29.7569L10.8474 29.115L10.6286 28.7117L10.553 28.4648L10.5185 28.0162L10.3548 27.4717L10.1829 27.1727L10.055 26.9422L9.98889 26.6117L9.92289 26.491L9.44966 26.3442L9.1112 26.0973L8.97089 25.7654L8.92135 25.4965L8.81958 25.3401L8.55266 25.2907L8.36693 25.5322L8.06297 25.6529L7.85658 25.6309L7.65439 25.4855L7.5292 25.3333L7.31727 25.1618L7.01743 24.6173L6.70239 24.4733L6.12462 24.4979L5.61008 24.7503L5.29916 24.7105L5.035 24.6255L4.74062 24.3539L4.53431 24.129L4.2275 24.0563L3.62354 23.6598L3.21496 23.3745L3.18062 22.8135L2.988 22.4267L2.58908 22.317L2.18739 21.9192L1.60131 21.7052L1.23262 21.5393L0.912119 21.4391L0.86535 21.2882L0.884578 21.1593L1.03177 20.944L1.18585 20.7423L1.22296 20.5558L1.09919 20.3912L0.767614 20.2183L0.341152 20.0634L0.2545 19.8068L0 19.5394L0.043998 19.324L0.246271 19.1663L0.449888 19.0497L0.498 18.8467L0.352152 18.6601L0.282041 18.3776L0.316383 18.1663L0.273728 17.8961L0.288926 17.8975L0.73873 17.8824L0.945117 17.7521L1.10054 17.5587L1.43758 17.3434L1.50911 17.0964L1.51466 16.6067L1.73473 16.1925L2.29461 16.0691L2.50923 16.0087L2.73762 16.0691L3.09254 16.0101L3.43512 15.9895L3.62631 16.1171L3.87947 16.2241L4.20273 16.2117L4.31281 16.0169L4.32658 15.744L4.46546 15.6726L4.64019 15.8619L4.73927 16.0032L4.88369 16.0677L5.27439 15.899L5.54677 15.7165L5.63619 15.3407L5.79439 15.1555L6.00632 15.2502L6.37912 15.2474L6.68585 14.9566L7.08897 14.7248L7.37781 14.6192L7.43558 14.423L7.30081 13.9896L7.33793 13.515L7.7245 13.2462L8.24182 13.2146L8.62562 13.0294L8.7315 12.5219L8.92135 12.3765L9.11262 12.3189L9.57897 12.2394L9.91458 12.0323L10.1223 11.9376L10.7084 11.6592L11.2422 11.6057L11.4705 11.3835L11.6494 11.1036L11.9492 10.9966L12.2533 10.7538L12.6564 10.4452L12.8159 10.4013L13.4763 10.2216L13.7349 10.1558L13.8904 10.116L14.1765 10.1284L14.2976 9.80053L14.5879 9.56051L14.8795 9.47959L15.0212 9.23953L15.3005 8.93366L15.6787 8.76492L16.2662 8.73888L16.8357 8.77316L17.1783 8.72105L17.4589 8.26838L17.5125 8.0448L17.5772 7.81575L17.8056 7.72796L18.0807 8.09968L18.3132 8.33012L18.6695 8.57014L18.8539 8.7951L19.0657 8.82666L19.2872 8.65797L19.444 8.24782L19.7412 8.18474L20.0686 8.25054L20.1553 8.45218L20.1828 8.64972L20.3327 9.00088L20.6932 9.30675L21.1541 9.29164L21.3398 9.2368L21.7882 9.27929L22.2298 9.34514L22.7113 9.41785L22.8517 9.42882L23.3676 9.46586L24.1173 9.51936L24.4488 9.49466L25.1256 9.59479L25.2633 9.86638L25.3884 10.5083L25.4943 11.1187L25.526 11.6084L25.7021 11.8622L25.9263 11.9445L26.0749 12.142L26.3362 12.4108L26.5289 12.7949L26.7641 12.7688L26.9278 12.6783L27.2883 12.6495L27.7477 12.6756L28.0683 12.8868L28.1879 13.1666L28.448 13.3216L28.6584 13.2722L29.2885 13.2708L29.5059 13.2873L29.7233 13.441L30.0355 13.467L30.2075 13.2722L30.7509 13.1392L31.0645 12.8621L31.3067 12.8594L31.4896 12.9938L31.6299 13.1749L31.8377 13.0939L31.9504 12.9444H32.1321L32.3096 13.0418L32.7649 13.2105L33.0951 13.526L33.3496 13.5575L33.6797 13.4643L33.831 13.4217L33.9755 13.5781L34.1887 13.6618L34.3497 13.5466L34.6262 13.4643L35.6841 13.6357L35.9276 13.9512L36.1161 14.0993L36.2674 14.3559L36.544 14.5397L37.1272 14.4765L37.3542 14.2886L37.826 13.8717L38.0145 13.4643L38.2525 13.334L38.5208 13.2667L38.7726 13.2681L39.0353 13.2544L39.3558 12.9554L39.6145 12.8511L39.9983 12.4712L40.0698 12.2997L40.2569 11.8553L40.3725 11.5741L40.5664 11.1242L40.671 10.3986L40.7301 10.0131L40.6793 9.73469L40.4509 9.58931L40.1606 9.52074L39.9048 9.30813L39.7149 9.05986L39.6035 8.7128L39.4535 8.30542L39.4618 8.01052L39.4191 7.78284L39.2911 7.58807L39.045 7.24649L38.9252 6.99136L38.9651 6.58536L39.2554 5.89132L39.2829 5.56758L39.3187 5.36732L39.3036 5.18489L39.3943 4.76654L39.5581 4.59094L39.7451 4.14241L39.9969 3.93529L40.3133 3.9216L40.4495 3.7995L40.5155 3.34959L40.6683 3.00257L40.77 2.75706L40.9626 2.48819L42.0728 1.96972L42.5336 1.32365L42.6974 0.997186L42.8762 0.294903L43.0482 0L43.2986 0.0973661L43.593 0.511612L43.8131 0.515756L44.1405 0.73933L45.0333 1.20979L45.5162 1.3566L45.8271 1.40185L46.2385 1.53216L46.5025 1.80646L47.0184 2.25365L47.4545 2.36751L48.2111 2.41276L49.1315 2.43608L49.3929 2.51427L50.0656 2.83521L50.8112 3.19048L51.5128 3.50736L52.0438 3.75148L52.3589 3.99017L52.6547 4.12596L52.9752 4.00938L53.3865 4.03542L54.3522 4.32074L54.9631 4.55942L55.4734 4.73636L55.644 4.98053L55.6606 5.30562L55.5917 5.57992L55.6303 6.24382L55.794 6.59222L55.8545 7.0572L55.9164 7.50163L55.8724 7.93919L55.9509 8.17101L56.1104 8.30819L56.2659 8.61267L56.2149 8.93366L56.1462 9.12018L56.1572 9.42061L56.3415 9.6675L56.6153 9.71551L56.8547 9.77998L57.1518 10.1681L57.6815 10.6153L57.9979 10.7388L58.3624 10.939L59.0572 11.1365L59.529 11.1942L59.8069 11.3546L60.0793 11.7373L60.5305 11.8169L60.8194 11.95L61.3477 12.1077L61.6971 12.0171L62.0039 11.8827L62.2088 11.9088L62.605 11.9952L63.0686 12.0144L63.458 11.9225L63.7689 11.6523L64.1307 11.2874L64.5654 11.1022L65.0675 11.0364L65.4114 10.8883L66.5368 10.6414L66.9907 10.5975L67.343 10.3602L67.6552 10.1736L68.1065 10.0927L68.7159 10.2889L69.2992 10.4521L70.0049 10.5056L70.4741 10.7305L70.8056 10.9431L71.3283 11.1119L71.9089 11.0337L72.7054 10.9665L73.2322 11.0639L73.7826 11.4506L74.121 11.7593L74.5021 12.4204L74.901 12.7386L75.2477 12.9993L75.6879 13.0171L76.7843 13.0377L77.3855 13.1749L77.8863 13.2489L78.0059 13.3861L77.9564 13.8374L77.9715 14.4807L77.9646 14.7756L78.0747 14.9978L78.2453 15.0376L78.3389 15.3517L78.5865 15.5368L79.0308 15.7604L79.7792 16.519L80.2263 16.8427L80.5771 16.9524L81.0379 16.8769L81.7602 16.8797L82.9832 16.8811L83.821 17.1088L84.1113 17.2638L84.9669 17.4448L85.908 17.6424L86.7031 17.8495L87.1708 17.582L87.5821 17.5573L87.9742 17.7507L88.3676 18.0415L88.6703 18.01L89.1257 17.8742L90.5798 17.0621L91.0901 16.7576L91.4478 16.8358L91.767 16.7288L92.0105 16.6369L92.6309 16.5107L93.0093 16.4764L93.3985 16.4037L93.9598 16.3544L95.1003 15.8208L95.5626 15.7165L96.344 15.8647L96.7649 15.7673L97.1845 15.4985L97.7265 15.22L97.8682 14.7673L98.1461 14.1446L98.7459 13.6865L99.2329 13.2846L99.7295 12.895L100.34 12.5686L100.915 12.3326L101.647 11.7113L102.231 11.3958L102.521 11.2929L102.866 11.4068L103.511 11.4905L103.979 11.4658L104.243 11.5371L104.769 11.8416L105.247 12.1077L105.613 12.5823L106.294 13.242L106.644 13.4629L106.891 13.5548L107.505 13.6165L108.006 13.6494L108.306 13.4986L108.81 13.2228L109.615 12.8717L109.932 12.8813L110.45 13.0679L111.223 13.4121L111.533 13.67L111.734 13.9869Z"/>
</mask>
<path d="M111.734 13.9869L111.372 14.8126L110.648 16.4614L110.036 17.8495L109.712 18.6286L109.475 19.2211L109.229 19.7822L109.193 20.1182L108.916 20.6587L108.402 21.3102L108.29 22.0152L108.311 22.6475L108.267 23.2127L107.703 23.5707L107.261 23.8889L107.388 24.9561L107.615 25.358L107.982 25.7914L108.369 26.1385L108.703 26.4306L109.072 26.2907L109.384 25.8449L109.987 25.4526L110.321 25.443L110.555 25.5335L111.078 25.5596L111.613 25.417L112.032 25.3868L112.574 25.4828L112.77 25.5761L113.225 25.7489L113.716 26.1261L114.06 26.5472L114.311 26.6281L114.438 26.4937L114.714 26.1192L115.1 25.7585L115.569 25.1659L115.923 24.7105L116.201 24.6406L116.737 24.642L116.978 24.5322L117.384 24.4746L117.743 24.6433L118.742 24.7325L119.01 24.9657L119.483 25.6584L119.751 26.0274L120.216 26.2125L120.497 26.3401L120.746 26.4388L120.994 26.6172L121.053 26.8325L121.153 27.1617L121.305 27.351L121.587 27.5375L121.801 27.65L121.869 27.8873L121.936 28.0039L122.133 28.1699L122.712 28.8777L122.994 29.067L123.423 29.4757L123.602 29.8145L123.612 30.1698L123.723 30.44L124.009 30.846L124.144 31.1203L124.09 31.492L124.137 31.8213L124.026 32.16L123.565 32.4111L123.405 32.5304L123.072 32.5414L122.508 32.4152L121.959 32.4865L121.303 32.3466L120.789 32.0489L120.513 31.8089L120.075 31.6676L119.868 31.7417L119.608 32.0503L119.322 31.9954L119.058 32.0503L118.378 31.9872L118.008 31.909L117.424 32.1244L117.092 32.1916L116.47 32.455L116.097 32.9117L115.818 33.0201L115.546 32.9982L115.352 32.8308L115.068 32.6292L114.648 32.6401L114.522 32.7266L114.47 32.9117L114.333 33.4741L114.335 33.7265L114.243 33.8897L113.994 33.9432L113.558 33.9281L112.874 33.8911L112.412 33.7457L112.134 33.8074L111.756 34.1119L111.486 34.1613L111.267 34.2902L111.09 34.7388L110.812 35.0172L110.476 35.3629L110.116 36.0995L109.918 36.5206L109.981 36.7469L110.025 37.0212L109.859 37.3326L109.52 37.622L109.248 37.6755L108.841 37.954L108.281 38.4546L107.863 38.8744L107.318 38.9759L106.931 39.0829L106.074 39.2132L105.862 39.2461L104.923 39.3105L104.227 39.0856L103.861 39.1199L103.536 39.2475L103.371 39.386L103.313 39.6494L103.255 39.8921L102.991 40.2693L102.459 40.7686L102.02 41.0992L101.683 41.5272L101.492 41.6822L101.107 41.8454L100.899 41.9332L100.416 42.3131L100.032 42.6519L99.779 42.7466L99.4736 42.6574L99.2714 42.6286L98.6743 42.4983L98.2699 42.4819L97.7045 42.3982L96.3811 42.0018L95.956 41.8166L95.5805 41.3118L95.2406 41.0553L94.7798 41.0279H94.0878L93.7782 40.9278L93.2582 41.0224L92.6901 41.5354L92.4218 41.9167L92.1893 42.3076L91.9045 43.1402L91.778 43.6957L91.6817 44.0085L91.3776 44.5064L91.3446 44.7849L91.4492 45.0263L91.6679 45.2979L91.7986 45.7244L92.1178 46.1771L92.4315 46.5296L93.0216 47.0975L93.1895 47.3952L93.389 47.7353L93.4316 48.0673L93.3944 48.284L93.1826 48.4499L92.7685 48.5336L92.569 48.7627L92.265 49.0699L91.9045 49.4239L91.7353 49.443L91.5317 49.5377L90.5124 49.9752L90.1245 50.0973L89.819 50.2427L89.4572 50.6871L89.1725 51.0177L88.8203 51.4567L88.6648 51.65L88.3525 52.0876L87.9412 52.5869L87.7128 52.8544L87.589 53.0135L87.4762 53.2234L87.0456 53.3838L86.6907 53.5553L86.1541 53.8132L85.3852 54.0957L84.7633 54.3701L84.3685 54.595L83.7811 54.879L83.3822 54.9695L82.5787 54.9585L81.5855 55.0312L80.8619 55.0861L80.3184 55.0175L79.4972 54.9777L78.8685 54.9228L78.4489 55.0285L77.4597 55.1396L77.2383 55.1643L75.4761 55.4331L74.6974 55.5758L73.9847 55.6416L73.4606 55.7458L73.1635 55.8775L72.7232 56.064L72.4907 56.1464L71.7108 56.514L69.9746 57.2711L68.8136 57.8843L68.6224 57.9885L67.8395 58.4206L67.387 58.5893L67.0719 58.9734L66.8202 59.2161L66.556 59.3204L66.0856 59.0735L65.7527 59.0872L64.6892 58.9967V57.8747L63.9436 58.0324L62.7537 58.2862L61.6504 58.5207L60.6406 57.983L59.8619 57.5674L59.185 57.2094L58.1588 56.9721L57.2632 56.765L55.6482 56.4235L54.9383 56.1244L54.5793 55.728L53.9382 54.8282L53.7305 54.6499L53.4182 54.5265L53.0948 54.4483L52.3933 54.4524L51.5376 54.3824L50.305 54.1931L49.3255 54.0409L47.6554 53.7597L47.2592 53.7254L46.3857 53.975L45.2658 54.2946L43.2559 54.0436L42.3645 53.927L40.5582 53.6883L38.5139 53.4181L36.5329 53.1383L35.094 53.2919L34.2919 53.3784L33.3661 53.5018L33.2381 53.3632L33.2009 52.8269L33.0345 52.4113L32.5283 51.9614L32.1885 51.5335L31.5405 50.9532L31.3369 50.587L31.2681 50.0191L30.6711 48.5364L30.2997 47.5282L30.2061 47.3238L30.0465 46.9946L29.8374 46.8231L29.3931 46.7175L29.2734 46.5392V46.1895L29.3436 45.7052L29.4343 45.3513L29.3697 45.2622L28.2099 45.3623L27.4988 45.1278L26.9058 44.8726L26.0639 44.2197L25.5645 43.9673L24.9248 43.2897L23.9949 43.1293L23.6482 42.8632L23.2107 42.2816L22.8296 41.9071L22.2876 41.6712L21.4319 41.4613L19.9709 41.261L19.4757 41.176L18.6695 41.3104L18.0711 41.3214L17.1012 41.1788L16.5482 40.999L15.8659 40.9936L15.4216 40.9963L14.8286 40.9552L14.5424 40.8372L14.2769 40.6932L13.7789 40.7288L13.4309 40.5848L13.1062 40.316L12.7664 40.1884L12.395 40.1966L12.2423 40.316L12.0992 40.305L12.0071 39.9415L11.659 39.3531L11.6067 39.0884L11.3935 38.7838L11.2683 38.5068L11.3027 38.1241L11.4527 37.3793L11.7869 36.7044L12.0043 36.5288L12.1377 36.3285L12.4184 35.9788L12.5807 35.699L12.5614 35.3149L12.3702 34.9144L12.2326 34.3972L12.2574 34.0996L12.4638 33.7457L12.7059 32.9597L12.6853 32.7526L12.5903 32.588L12.5655 32.2218L12.5188 31.7307L12.2285 30.9777L12.0717 30.5771L11.7966 30.4043L11.4747 30.3001L11.1967 29.7569L10.8474 29.115L10.6286 28.7117L10.553 28.4648L10.5185 28.0162L10.3548 27.4717L10.1829 27.1727L10.055 26.9422L9.98889 26.6117L9.92289 26.491L9.44966 26.3442L9.1112 26.0973L8.97089 25.7654L8.92135 25.4965L8.81958 25.3401L8.55266 25.2907L8.36693 25.5322L8.06297 25.6529L7.85658 25.6309L7.65439 25.4855L7.5292 25.3333L7.31727 25.1618L7.01743 24.6173L6.70239 24.4733L6.12462 24.4979L5.61008 24.7503L5.29916 24.7105L5.035 24.6255L4.74062 24.3539L4.53431 24.129L4.2275 24.0563L3.62354 23.6598L3.21496 23.3745L3.18062 22.8135L2.988 22.4267L2.58908 22.317L2.18739 21.9192L1.60131 21.7052L1.23262 21.5393L0.912119 21.4391L0.86535 21.2882L0.884578 21.1593L1.03177 20.944L1.18585 20.7423L1.22296 20.5558L1.09919 20.3912L0.767614 20.2183L0.341152 20.0634L0.2545 19.8068L0 19.5394L0.043998 19.324L0.246271 19.1663L0.449888 19.0497L0.498 18.8467L0.352152 18.6601L0.282041 18.3776L0.316383 18.1663L0.273728 17.8961L0.288926 17.8975L0.73873 17.8824L0.945117 17.7521L1.10054 17.5587L1.43758 17.3434L1.50911 17.0964L1.51466 16.6067L1.73473 16.1925L2.29461 16.0691L2.50923 16.0087L2.73762 16.0691L3.09254 16.0101L3.43512 15.9895L3.62631 16.1171L3.87947 16.2241L4.20273 16.2117L4.31281 16.0169L4.32658 15.744L4.46546 15.6726L4.64019 15.8619L4.73927 16.0032L4.88369 16.0677L5.27439 15.899L5.54677 15.7165L5.63619 15.3407L5.79439 15.1555L6.00632 15.2502L6.37912 15.2474L6.68585 14.9566L7.08897 14.7248L7.37781 14.6192L7.43558 14.423L7.30081 13.9896L7.33793 13.515L7.7245 13.2462L8.24182 13.2146L8.62562 13.0294L8.7315 12.5219L8.92135 12.3765L9.11262 12.3189L9.57897 12.2394L9.91458 12.0323L10.1223 11.9376L10.7084 11.6592L11.2422 11.6057L11.4705 11.3835L11.6494 11.1036L11.9492 10.9966L12.2533 10.7538L12.6564 10.4452L12.8159 10.4013L13.4763 10.2216L13.7349 10.1558L13.8904 10.116L14.1765 10.1284L14.2976 9.80053L14.5879 9.56051L14.8795 9.47959L15.0212 9.23953L15.3005 8.93366L15.6787 8.76492L16.2662 8.73888L16.8357 8.77316L17.1783 8.72105L17.4589 8.26838L17.5125 8.0448L17.5772 7.81575L17.8056 7.72796L18.0807 8.09968L18.3132 8.33012L18.6695 8.57014L18.8539 8.7951L19.0657 8.82666L19.2872 8.65797L19.444 8.24782L19.7412 8.18474L20.0686 8.25054L20.1553 8.45218L20.1828 8.64972L20.3327 9.00088L20.6932 9.30675L21.1541 9.29164L21.3398 9.2368L21.7882 9.27929L22.2298 9.34514L22.7113 9.41785L22.8517 9.42882L23.3676 9.46586L24.1173 9.51936L24.4488 9.49466L25.1256 9.59479L25.2633 9.86638L25.3884 10.5083L25.4943 11.1187L25.526 11.6084L25.7021 11.8622L25.9263 11.9445L26.0749 12.142L26.3362 12.4108L26.5289 12.7949L26.7641 12.7688L26.9278 12.6783L27.2883 12.6495L27.7477 12.6756L28.0683 12.8868L28.1879 13.1666L28.448 13.3216L28.6584 13.2722L29.2885 13.2708L29.5059 13.2873L29.7233 13.441L30.0355 13.467L30.2075 13.2722L30.7509 13.1392L31.0645 12.8621L31.3067 12.8594L31.4896 12.9938L31.6299 13.1749L31.8377 13.0939L31.9504 12.9444H32.1321L32.3096 13.0418L32.7649 13.2105L33.0951 13.526L33.3496 13.5575L33.6797 13.4643L33.831 13.4217L33.9755 13.5781L34.1887 13.6618L34.3497 13.5466L34.6262 13.4643L35.6841 13.6357L35.9276 13.9512L36.1161 14.0993L36.2674 14.3559L36.544 14.5397L37.1272 14.4765L37.3542 14.2886L37.826 13.8717L38.0145 13.4643L38.2525 13.334L38.5208 13.2667L38.7726 13.2681L39.0353 13.2544L39.3558 12.9554L39.6145 12.8511L39.9983 12.4712L40.0698 12.2997L40.2569 11.8553L40.3725 11.5741L40.5664 11.1242L40.671 10.3986L40.7301 10.0131L40.6793 9.73469L40.4509 9.58931L40.1606 9.52074L39.9048 9.30813L39.7149 9.05986L39.6035 8.7128L39.4535 8.30542L39.4618 8.01052L39.4191 7.78284L39.2911 7.58807L39.045 7.24649L38.9252 6.99136L38.9651 6.58536L39.2554 5.89132L39.2829 5.56758L39.3187 5.36732L39.3036 5.18489L39.3943 4.76654L39.5581 4.59094L39.7451 4.14241L39.9969 3.93529L40.3133 3.9216L40.4495 3.7995L40.5155 3.34959L40.6683 3.00257L40.77 2.75706L40.9626 2.48819L42.0728 1.96972L42.5336 1.32365L42.6974 0.997186L42.8762 0.294903L43.0482 0L43.2986 0.0973661L43.593 0.511612L43.8131 0.515756L44.1405 0.73933L45.0333 1.20979L45.5162 1.3566L45.8271 1.40185L46.2385 1.53216L46.5025 1.80646L47.0184 2.25365L47.4545 2.36751L48.2111 2.41276L49.1315 2.43608L49.3929 2.51427L50.0656 2.83521L50.8112 3.19048L51.5128 3.50736L52.0438 3.75148L52.3589 3.99017L52.6547 4.12596L52.9752 4.00938L53.3865 4.03542L54.3522 4.32074L54.9631 4.55942L55.4734 4.73636L55.644 4.98053L55.6606 5.30562L55.5917 5.57992L55.6303 6.24382L55.794 6.59222L55.8545 7.0572L55.9164 7.50163L55.8724 7.93919L55.9509 8.17101L56.1104 8.30819L56.2659 8.61267L56.2149 8.93366L56.1462 9.12018L56.1572 9.42061L56.3415 9.6675L56.6153 9.71551L56.8547 9.77998L57.1518 10.1681L57.6815 10.6153L57.9979 10.7388L58.3624 10.939L59.0572 11.1365L59.529 11.1942L59.8069 11.3546L60.0793 11.7373L60.5305 11.8169L60.8194 11.95L61.3477 12.1077L61.6971 12.0171L62.0039 11.8827L62.2088 11.9088L62.605 11.9952L63.0686 12.0144L63.458 11.9225L63.7689 11.6523L64.1307 11.2874L64.5654 11.1022L65.0675 11.0364L65.4114 10.8883L66.5368 10.6414L66.9907 10.5975L67.343 10.3602L67.6552 10.1736L68.1065 10.0927L68.7159 10.2889L69.2992 10.4521L70.0049 10.5056L70.4741 10.7305L70.8056 10.9431L71.3283 11.1119L71.9089 11.0337L72.7054 10.9665L73.2322 11.0639L73.7826 11.4506L74.121 11.7593L74.5021 12.4204L74.901 12.7386L75.2477 12.9993L75.6879 13.0171L76.7843 13.0377L77.3855 13.1749L77.8863 13.2489L78.0059 13.3861L77.9564 13.8374L77.9715 14.4807L77.9646 14.7756L78.0747 14.9978L78.2453 15.0376L78.3389 15.3517L78.5865 15.5368L79.0308 15.7604L79.7792 16.519L80.2263 16.8427L80.5771 16.9524L81.0379 16.8769L81.7602 16.8797L82.9832 16.8811L83.821 17.1088L84.1113 17.2638L84.9669 17.4448L85.908 17.6424L86.7031 17.8495L87.1708 17.582L87.5821 17.5573L87.9742 17.7507L88.3676 18.0415L88.6703 18.01L89.1257 17.8742L90.5798 17.0621L91.0901 16.7576L91.4478 16.8358L91.767 16.7288L92.0105 16.6369L92.6309 16.5107L93.0093 16.4764L93.3985 16.4037L93.9598 16.3544L95.1003 15.8208L95.5626 15.7165L96.344 15.8647L96.7649 15.7673L97.1845 15.4985L97.7265 15.22L97.8682 14.7673L98.1461 14.1446L98.7459 13.6865L99.2329 13.2846L99.7295 12.895L100.34 12.5686L100.915 12.3326L101.647 11.7113L102.231 11.3958L102.521 11.2929L102.866 11.4068L103.511 11.4905L103.979 11.4658L104.243 11.5371L104.769 11.8416L105.247 12.1077L105.613 12.5823L106.294 13.242L106.644 13.4629L106.891 13.5548L107.505 13.6165L108.006 13.6494L108.306 13.4986L108.81 13.2228L109.615 12.8717L109.932 12.8813L110.45 13.0679L111.223 13.4121L111.533 13.67L111.734 13.9869Z" fill="var(--fill-0, #71B219)" stroke="var(--stroke-0, white)" mask="url(#path-1-inside-1_0_177)"/>
</g>
</svg>
