<svg preserveAspectRatio="none" width="100%" height="100%" overflow="visible" style="display: block;" viewBox="0 0 124 59" fill="none" xmlns="http://www.w3.org/2000/svg"><g id="MN"><mask id="path-1-inside-1_0_177" fill="white"><path d="M112 14L111 15L111 16L110 18L110 19L110 19L109 20L109 20L109 21L108 21L108 22L108 23L108 23L108 24L107 24L107 25L108 25L108 26L108 26L109 26L109 26L109 26L110 26L110 25L111 26L111 26L112 25L112 25L113 26L113 26L113 26L114 26L114 26L114 27L114 26L115 26L115 26L116 25L116 25L116 25L117 25L117 24L117 24L118 25L119 25L119 25L120 26L120 26L120 26L120 26L121 26L121 27L121 27L121 27L121 27L122 28L122 28L122 28L122 28L122 28L123 29L123 29L123 30L124 30L124 30L124 30L124 31L124 31L124 32L124 32L124 32L124 32L123 32L123 32L122 32L122 32L121 32L121 32L120 32L120 32L120 32L120 32L119 32L119 32L118 32L118 32L117 32L117 32L116 32L116 33L116 33L116 33L115 33L115 33L115 33L114 33L114 33L114 34L114 34L114 34L114 34L114 34L113 34L112 34L112 34L112 34L112 34L111 34L111 35L111 35L110 35L110 36L110 36L110 37L110 37L110 37L110 38L109 38L109 38L108 38L108 39L107 39L107 39L106 39L106 39L105 39L104 39L104 39L104 39L103 39L103 40L103 40L103 40L102 41L102 41L102 42L102 42L101 42L101 42L100 42L100 43L100 43L100 43L99 43L99 42L98 42L98 42L96 42L96 42L96 41L95 41L95 41H94L94 41L93 41L93 42L92 42L92 42L92 43L92 44L92 44L91 44L91 45L91 45L92 45L92 46L92 46L92 46L93 47L93 47L93 48L93 48L93 48L93 48L93 48L93 49L92 49L92 49L92 49L92 50L90 50L90 50L90 50L90 51L89 51L89 52L89 52L88 52L88 53L88 53L88 53L88 53L87 53L87 54L86 54L85 54L85 54L84 55L84 55L83 55L83 55L82 55L81 55L80 55L80 55L79 55L78 55L78 55L77 55L76 55L75 56L74 56L74 56L73 56L73 56L72 56L72 56L70 57L69 58L69 58L68 58L67 59L67 59L67 59L67 59L66 59L66 59L65 59V58L64 58L63 58L62 58L61 58L60 58L59 57L58 57L57 57L56 56L55 56L55 56L54 55L54 55L53 54L53 54L52 54L52 54L50 54L49 54L48 54L47 54L46 54L45 54L43 54L42 54L41 54L38 53L36 53L35 53L34 53L33 54L33 53L33 53L33 52L32 52L32 52L32 51L31 51L31 50L31 48L30 48L30 47L30 47L30 47L29 47L29 46V46L29 46L29 45L29 45L28 45L28 45L27 45L26 44L26 44L25 43L24 43L24 43L23 42L23 42L22 42L21 42L20 41L20 41L19 41L18 41L17 41L16 41L16 41L15 41L15 41L14 41L14 41L14 41L13 41L13 40L13 40L12 40L12 40L12 40L12 40L12 39L12 39L11 39L11 38L11 38L12 37L12 37L12 36L12 36L12 36L13 36L13 35L12 35L12 34L12 34L12 34L13 33L13 33L13 33L13 32L12 32L12 31L12 31L12 30L12 30L11 30L11 29L11 29L11 28L10 28L10 28L10 27L10 27L10 27L10 26L9 26L9 26L9 26L9 26L9 25L9 25L8 26L8 26L8 26L8 26L8 25L7 25L7 25L7 24L6 24L6 25L5 25L5 25L5 24L4 24L4 24L4 24L3 23L3 23L3 22L3 22L2 22L2 22L1 22L1 21L1 21L1 21L1 21L1 21L1 21L1 20L1 20L0 20L0 20L0 20L0 19L0 19L0 19L0 19L0 19L0 18L0 18L0 18L0 18L1 18L1 18L1 18L1 17L2 17L2 17L2 16L2 16L2 16L3 16L3 16L3 16L4 16L4 16L4 16L4 16L4 16L4 16L5 16L5 16L5 16L5 16L6 16L6 15L6 15L6 15L6 15L7 15L7 15L7 15L7 14L7 14L7 14L8 13L8 13L9 13L9 12L9 12L9 12L10 12L10 12L10 12L11 12L11 12L12 11L12 11L12 11L12 11L13 10L13 10L14 10L14 10L14 10L14 10L14 10L15 10L15 10L15 9L15 9L16 9L16 9L17 9L17 9L18 8L18 8L18 8L18 8L18 8L18 8L19 9L19 9L19 9L19 9L19 8L20 8L20 8L20 8L20 9L20 9L21 9L21 9L21 9L22 9L22 9L23 9L23 9L23 10L24 10L24 10L25 10L25 10L25 10L26 11L26 12L26 12L26 12L26 12L26 12L26 13L27 13L27 13L27 13L28 13L28 13L28 13L28 13L29 13L29 13L30 13L30 13L30 14L30 13L31 13L31 13L31 13L32 13L32 13L32 13L32 13H32L32 13L33 13L33 14L33 14L34 14L34 13L34 14L34 14L34 14L35 14L36 14L36 14L36 14L36 14L36 14L37 14L37 14L38 14L38 14L38 13L38 13L39 13L39 13L39 13L40 13L40 12L40 12L40 12L40 12L41 11L41 10L41 10L41 10L40 10L40 10L40 9L40 9L40 9L40 8L40 8L39 8L39 8L39 7L39 7L39 7L39 6L39 6L39 5L39 5L39 5L40 5L40 4L40 4L40 4L40 4L40 3L41 3L41 3L41 2L42 2L42 1L43 1L43 0L43 0L43 0L44 0L44 0L44 1L45 1L46 1L46 1L46 2L46 2L47 2L48 2L48 2L49 2L49 2L50 3L51 3L52 4L52 4L52 4L53 4L53 4L53 4L54 4L55 5L56 5L56 5L56 5L56 6L56 6L56 7L56 7L56 8L56 8L56 8L56 8L56 9L56 9L56 9L56 9L56 10L57 10L57 10L57 10L58 11L58 11L58 11L59 11L60 11L60 11L60 12L60 12L61 12L61 12L62 12L62 12L62 12L63 12L63 12L64 12L64 12L64 11L65 11L65 11L65 11L66 11L67 11L67 10L68 10L68 10L69 10L69 10L70 10L70 11L71 11L71 11L72 11L73 11L73 11L74 12L74 12L74 12L75 13L75 13L76 13L77 13L77 13L78 13L78 13L78 14L78 14L78 15L78 15L78 15L78 15L79 16L79 16L80 16L80 17L81 17L81 17L82 17L83 17L84 17L84 17L85 17L86 18L87 18L87 18L88 18L88 18L88 18L89 18L89 18L91 17L91 17L91 17L92 17L92 17L93 16L93 16L93 16L94 16L95 16L96 16L96 16L97 16L97 16L98 15L98 15L98 14L99 14L99 13L100 13L100 13L101 12L102 12L102 11L102 11L103 11L104 12L104 12L104 12L105 12L105 12L106 13L106 13L107 14L107 14L108 14L108 14L108 14L109 13L110 13L110 13L110 13L111 13L112 14L112 14Z"/></mask><path d="M112 14L111 15L111 16L110 18L110 19L110 19L109 20L109 20L109 21L108 21L108 22L108 23L108 23L108 24L107 24L107 25L108 25L108 26L108 26L109 26L109 26L109 26L110 26L110 25L111 26L111 26L112 25L112 25L113 26L113 26L113 26L114 26L114 26L114 27L114 26L115 26L115 26L116 25L116 25L116 25L117 25L117 24L117 24L118 25L119 25L119 25L120 26L120 26L120 26L120 26L121 26L121 27L121 27L121 27L121 27L122 28L122 28L122 28L122 28L122 28L123 29L123 29L123 30L124 30L124 30L124 30L124 31L124 31L124 32L124 32L124 32L124 32L123 32L123 32L122 32L122 32L121 32L121 32L120 32L120 32L120 32L120 32L119 32L119 32L118 32L118 32L117 32L117 32L116 32L116 33L116 33L116 33L115 33L115 33L115 33L114 33L114 33L114 34L114 34L114 34L114 34L114 34L113 34L112 34L112 34L112 34L112 34L111 34L111 35L111 35L110 35L110 36L110 36L110 37L110 37L110 37L110 38L109 38L109 38L108 38L108 39L107 39L107 39L106 39L106 39L105 39L104 39L104 39L104 39L103 39L103 40L103 40L103 40L102 41L102 41L102 42L102 42L101 42L101 42L100 42L100 43L100 43L100 43L99 43L99 42L98 42L98 42L96 42L96 42L96 41L95 41L95 41H94L94 41L93 41L93 42L92 42L92 42L92 43L92 44L92 44L91 44L91 45L91 45L92 45L92 46L92 46L92 46L93 47L93 47L93 48L93 48L93 48L93 48L93 48L93 49L92 49L92 49L92 49L92 50L90 50L90 50L90 50L90 51L89 51L89 52L89 52L88 52L88 53L88 53L88 53L88 53L87 53L87 54L86 54L85 54L85 54L84 55L84 55L83 55L83 55L82 55L81 55L80 55L80 55L79 55L78 55L78 55L77 55L76 55L75 56L74 56L74 56L73 56L73 56L72 56L72 56L70 57L69 58L69 58L68 58L67 59L67 59L67 59L67 59L66 59L66 59L65 59V58L64 58L63 58L62 58L61 58L60 58L59 57L58 57L57 57L56 56L55 56L55 56L54 55L54 55L53 54L53 54L52 54L52 54L50 54L49 54L48 54L47 54L46 54L45 54L43 54L42 54L41 54L38 53L36 53L35 53L34 53L33 54L33 53L33 53L33 52L32 52L32 52L32 51L31 51L31 50L31 48L30 48L30 47L30 47L30 47L29 47L29 46V46L29 46L29 45L29 45L28 45L28 45L27 45L26 44L26 44L25 43L24 43L24 43L23 42L23 42L22 42L21 42L20 41L20 41L19 41L18 41L17 41L16 41L16 41L15 41L15 41L14 41L14 41L14 41L13 41L13 40L13 40L12 40L12 40L12 40L12 40L12 39L12 39L11 39L11 38L11 38L12 37L12 37L12 36L12 36L12 36L13 36L13 35L12 35L12 34L12 34L12 34L13 33L13 33L13 33L13 32L12 32L12 31L12 31L12 30L12 30L11 30L11 29L11 29L11 28L10 28L10 28L10 27L10 27L10 27L10 26L9 26L9 26L9 26L9 26L9 25L9 25L8 26L8 26L8 26L8 26L8 25L7 25L7 25L7 24L6 24L6 25L5 25L5 25L5 24L4 24L4 24L4 24L3 23L3 23L3 22L3 22L2 22L2 22L1 22L1 21L1 21L1 21L1 21L1 21L1 21L1 20L1 20L0 20L0 20L0 20L0 19L0 19L0 19L0 19L0 19L0 18L0 18L0 18L0 18L1 18L1 18L1 18L1 17L2 17L2 17L2 16L2 16L2 16L3 16L3 16L3 16L4 16L4 16L4 16L4 16L4 16L4 16L5 16L5 16L5 16L5 16L6 16L6 15L6 15L6 15L6 15L7 15L7 15L7 15L7 14L7 14L7 14L8 13L8 13L9 13L9 12L9 12L9 12L10 12L10 12L10 12L11 12L11 12L12 11L12 11L12 11L12 11L13 10L13 10L14 10L14 10L14 10L14 10L14 10L15 10L15 10L15 9L15 9L16 9L16 9L17 9L17 9L18 8L18 8L18 8L18 8L18 8L18 8L19 9L19 9L19 9L19 9L19 8L20 8L20 8L20 8L20 9L20 9L21 9L21 9L21 9L22 9L22 9L23 9L23 9L23 10L24 10L24 10L25 10L25 10L25 10L26 11L26 12L26 12L26 12L26 12L26 12L26 13L27 13L27 13L27 13L28 13L28 13L28 13L28 13L29 13L29 13L30 13L30 13L30 14L30 13L31 13L31 13L31 13L32 13L32 13L32 13L32 13H32L32 13L33 13L33 14L33 14L34 14L34 13L34 14L34 14L34 14L35 14L36 14L36 14L36 14L36 14L36 14L37 14L37 14L38 14L38 14L38 13L38 13L39 13L39 13L39 13L40 13L40 12L40 12L40 12L40 12L41 11L41 10L41 10L41 10L40 10L40 10L40 9L40 9L40 9L40 8L40 8L39 8L39 8L39 7L39 7L39 7L39 6L39 6L39 5L39 5L39 5L40 5L40 4L40 4L40 4L40 4L40 3L41 3L41 3L41 2L42 2L42 1L43 1L43 0L43 0L43 0L44 0L44 0L44 1L45 1L46 1L46 1L46 2L46 2L47 2L48 2L48 2L49 2L49 2L50 3L51 3L52 4L52 4L52 4L53 4L53 4L53 4L54 4L55 5L56 5L56 5L56 5L56 6L56 6L56 7L56 7L56 8L56 8L56 8L56 8L56 9L56 9L56 9L56 9L56 10L57 10L57 10L57 10L58 11L58 11L58 11L59 11L60 11L60 11L60 12L60 12L61 12L61 12L62 12L62 12L62 12L63 12L63 12L64 12L64 12L64 11L65 11L65 11L65 11L66 11L67 11L67 10L68 10L68 10L69 10L69 10L70 10L70 11L71 11L71 11L72 11L73 11L73 11L74 12L74 12L74 12L75 13L75 13L76 13L77 13L77 13L78 13L78 13L78 14L78 14L78 15L78 15L78 15L78 15L79 16L79 16L80 16L80 17L81 17L81 17L82 17L83 17L84 17L84 17L85 17L86 18L87 18L87 18L88 18L88 18L88 18L89 18L89 18L91 17L91 17L91 17L92 17L92 17L93 16L93 16L93 16L94 16L95 16L96 16L96 16L97 16L97 16L98 15L98 15L98 14L99 14L99 13L100 13L100 13L101 12L102 12L102 11L102 11L103 11L104 12L104 12L104 12L105 12L105 12L106 13L106 13L107 14L107 14L108 14L108 14L108 14L109 13L110 13L110 13L110 13L111 13L112 14L112 14Z" fill="var(--fill-0,#71B219)" stroke="var(--stroke-0,white)" mask="url(#path-1-inside-1_0_177)"/></g></svg>