<svg preserveAspectRatio="none" width="100%" height="100%" overflow="visible" style="display: block;" viewBox="0 0 0.268621 0.210182" fill="none" xmlns="http://www.w3.org/2000/svg">
<g id="MO">
<mask id="path-1-inside-1_0_109" fill="white">
<path d="M0 0.210182L0.00828086 0.11891L0.0595715 0.0179758L0.186911 0L0.268621 0.0967992L0.257552 0.100934L0.0761332 0.183935L0.0194347 0.200519L0 0.210182Z"/>
</mask>
<path d="M0 0.210182L0.00828086 0.11891L0.0595715 0.0179758L0.186911 0L0.268621 0.0967992L0.257552 0.100934L0.0761332 0.183935L0.0194347 0.200519L0 0.210182Z" fill="var(--fill-0, #71B219)"/>
<path d="M0 0.210182L-0.497955 0.165003L-0.578827 1.05637L0.222606 0.657894L0 0.210182ZM0.00828086 0.11891L-0.437469 -0.107601L-0.480993 -0.0219502L-0.489674 0.0737319L0.00828086 0.11891ZM0.0595715 0.0179758L-0.0103178 -0.477116L-0.268195 -0.440712L-0.386178 -0.208535L0.0595715 0.0179758ZM0.186911 0L0.568987 -0.322518L0.390703 -0.533725L0.117022 -0.495091L0.186911 0ZM0.268621 0.0967992L0.443599 0.565182L1.10861 0.316749L0.650697 -0.225719L0.268621 0.0967992ZM0.257552 0.100934L0.0825732 -0.367448L0.065808 -0.361185L0.0495335 -0.35374L0.257552 0.100934ZM0.0761332 0.183935L0.216494 0.66383L0.251235 0.653669L0.284151 0.638609L0.0761332 0.183935ZM0.0194347 0.200519L-0.120926 -0.279376L-0.163475 -0.266931L-0.203171 -0.247194L0.0194347 0.200519ZM0 0.210182L0.497955 0.25536L0.506236 0.164089L0.00828086 0.11891L-0.489674 0.0737319L-0.497955 0.165003L0 0.210182ZM0.00828086 0.11891L0.45403 0.345421L0.505321 0.244487L0.0595715 0.0179758L-0.386178 -0.208535L-0.437469 -0.107601L0.00828086 0.11891ZM0.0595715 0.0179758L0.129461 0.513067L0.2568 0.495091L0.186911 0L0.117022 -0.495091L-0.0103178 -0.477116L0.0595715 0.0179758ZM0.186911 0L-0.195165 0.322518L-0.113455 0.419317L0.268621 0.0967992L0.650697 -0.225719L0.568987 -0.322518L0.186911 0ZM0.268621 0.0967992L0.0936425 -0.371584L0.0825732 -0.367448L0.257552 0.100934L0.43253 0.569317L0.443599 0.565182L0.268621 0.0967992ZM0.257552 0.100934L0.0495335 -0.35374L-0.131885 -0.270739L0.0761332 0.183935L0.284151 0.638609L0.46557 0.555608L0.257552 0.100934ZM0.0761332 0.183935L-0.0642272 -0.295959L-0.120926 -0.279376L0.0194347 0.200519L0.159795 0.680413L0.216494 0.66383L0.0761332 0.183935ZM0.0194347 0.200519L-0.203171 -0.247194L-0.222606 -0.237531L0 0.210182L0.222606 0.657894L0.24204 0.648231L0.0194347 0.200519Z" fill="var(--stroke-0, white)" mask="url(#path-1-inside-1_0_109)"/>
</g>
</svg>
