<svg preserveAspectRatio="none" width="100%" height="100%" overflow="visible" style="display: block;" viewBox="0 0 3 19" fill="none" xmlns="http://www.w3.org/2000/svg"><g id="MP"><mask id="path-1-inside-1_0_158" fill="white"><path d="M2 0L2 0L2 0L2 0L2 0L2 0L2 0ZM2 3L2 3L2 3L2 3L3 3L2 3ZM2 10L2 10L2 10L2 10L2 10L2 10L2 10L2 10ZM2 15L2 15L2 15L2 15L2 14L2 14L3 14L2 14L2 14L2 15ZM2 15L2 16L2 15L2 15L2 15L2 15L2 15ZM0 19L0 19L0 19L0 19L0 18L0 18L0 18V19Z"/></mask><path d="M2 0L2 0L2 0L2 0L2 0L2 0L2 0ZM2 3L2 3L2 3L2 3L3 3L2 3ZM2 10L2 10L2 10L2 10L2 10L2 10L2 10L2 10ZM2 15L2 15L2 15L2 15L2 14L2 14L3 14L2 14L2 14L2 15ZM2 15L2 16L2 15L2 15L2 15L2 15L2 15ZM0 19L0 19L0 19L0 19L0 18L0 18L0 18V19Z" fill="var(--fill-0,#71B219)"/><path d="M2 0L2 0L3 0L3 0L2 0ZM2 0L2 1L2 1L2 1L2 0ZM2 0L1 0L2 0L2 0L2 0ZM2 0L2 0L1 -1L1 0L2 0ZM2 0L2 0L2 0L2 0L2 0ZM2 0L3 0L3 0L2 0L2 0ZM2 3L3 3L3 3L3 3L2 3ZM2 3L2 3L1 4L2 4L2 3ZM2 3L2 2L2 2L2 2L2 3ZM2 3L3 2L3 2L2 2L2 3ZM3 3L3 3L3 3L3 2L3 3ZM2 10L2 10L3 10L3 10L2 10ZM2 10L2 10L2 10L2 10L2 10ZM2 10L2 10L2 10L2 10L2 10ZM2 10L1 10L1 10L2 10L2 10ZM2 10L2 9L1 9L1 10L2 10ZM2 10L2 9L2 9L2 9L2 10ZM2 10L3 10L3 10L2 9L2 10ZM2 15L2 14L2 14L2 15L2 15ZM2 15L2 15L3 15L3 15L2 15ZM2 15L2 15L2 15L2 15L2 15ZM2 15L2 15L2 15L2 15L2 15ZM2 14L2 14L2 14L2 14L2 14ZM2 14L2 14L2 14L2 14L2 14ZM3 14L3 14L4 13L2 14L3 14ZM2 14L2 14L2 14L2 14L2 14ZM2 14L3 15L3 15L3 15L2 14ZM2 15L2 16L2 16L2 15L2 15ZM2 16L1 16L2 17L2 16L2 16ZM2 15L1 15L1 15L1 15L2 15ZM2 15L1 15L1 15L1 15L2 15ZM2 15L2 14L2 14L2 15L2 15ZM2 15L2 15L2 14L2 14L2 15ZM0 19L1 19L1 19V19H0ZM0 19L0 19L0 19L1 19L0 19ZM0 19L0 19L0 19L0 19L0 19ZM0 19L0 19L0 19L0 19L0 19ZM0 18L0 18L-1 18L0 19L0 18ZM0 18L0 18L0 18L0 18L0 18ZM0 18H1V18L1 18L0 18ZM2 0L2 0L2 0L2 0L2 1L2 0L2 0ZM2 0L2 0L2 0L2 0L2 0L2 1L2 0ZM2 0L2 0L2 0L2 0L1 0L1 0L2 0ZM2 0L2 0L2 0L2 0L2 0L2 0L2 0ZM2 0L2 0L2 0L2 0L2 0L2 0L2 0ZM2 0L2 0L2 0L2 0L3 0L3 0L2 0ZM2 3L2 2L2 3L2 3L2 4L3 3L2 3ZM2 3L3 3L3 3L2 3L2 2L2 3L2 3ZM2 3L3 3L3 3L2 3L2 2L2 2L2 3ZM2 3L2 3L2 3L3 3L3 2L3 2L2 3ZM3 3L2 2L2 3L2 3L3 3L3 3L3 3ZM2 10L2 9L2 10L2 10L2 10L2 10L2 10ZM2 10L2 9L2 9L2 10L2 10L2 10L2 10ZM2 10L2 10L2 10L2 10L2 10L2 10L2 10ZM2 10L2 10L2 10L2 10L1 10L1 10L2 10ZM2 10L2 10L2 10L2 10L2 9L2 9L2 10ZM2 10L2 10L2 10L2 10L2 9L2 9L2 10ZM2 10L2 10L2 10L2 10L3 10L3 10L2 10ZM2 15L2 15L2 15L2 15L3 15L3 15L2 15ZM2 15L2 14L2 14L2 15L2 15L2 15L2 15ZM2 15L2 14L2 14L2 15L2 15L2 15L2 15ZM2 15L2 15L3 14L2 14L2 14L2 15L2 15ZM2 14L2 15L3 15L2 14L2 14L2 14L2 14ZM2 14L3 15L3 15L3 14L2 14L2 14L2 14ZM3 14L2 14L2 14L2 14L3 15L3 14L3 14ZM2 14L2 14L2 14L2 14L3 15L3 14L2 14ZM2 14L2 14L2 14L2 15L3 15L3 15L2 14ZM2 15L2 15L1 15L2 16L2 16L2 16L2 15ZM2 16L2 15L2 15L2 15L1 15L1 16L2 16ZM2 15L2 15L2 15L2 15L1 15L1 15L2 15ZM2 15L2 16L2 15L2 15L2 15L1 15L2 15ZM2 15L2 16L2 16L2 15L2 14L2 14L2 15ZM2 15L1 15L2 15L2 15L2 15L2 15L2 15ZM0 19L0 18L0 18L0 19L1 19L1 19L0 19ZM0 19L0 18L0 18L0 19L0 19L0 19L0 19ZM0 19L0 18L0 18L0 19L0 19L0 19L0 19ZM0 19L0 18L0 18L0 18L0 19L0 19L0 19ZM0 18L0 19L0 19L0 18L0 18L0 18L0 18ZM0 18L0 19L0 19L0 18L1 18L0 18L0 18ZM0 18H0V19H0H1V18H0Z" fill="var(--stroke-0,white)" mask="url(#path-1-inside-1_0_158)"/></g></svg>