<svg preserveAspectRatio="none" width="100%" height="100%" overflow="visible" style="display: block;" viewBox="0 0 2.63988 18.7383" fill="none" xmlns="http://www.w3.org/2000/svg">
<g id="MP">
<mask id="path-1-inside-1_0_158" fill="white">
<path d="M2.15019 0.179705L2.03189 0.330568L1.93415 0.219471L1.90669 0L2.07865 0.0205951L2.14188 0.0658456L2.15019 0.179705ZM2.41569 2.93672L2.22862 3.02455L2.46103 2.62813L2.53123 2.55952L2.63988 2.70356L2.41569 2.93672ZM2.16396 9.90481L2.07865 9.93223L1.95623 9.9185L1.8695 9.85541L1.85027 9.7498L2.09923 9.74432L2.19142 9.82389L2.16396 9.90481ZM2.31804 14.6988L2.30696 14.8017L2.10888 14.777L2.05523 14.7303L2.16665 14.3723L2.45003 14.2077L2.58765 14.1748L2.45835 14.3449L2.43358 14.5356L2.31804 14.6988ZM1.97135 15.3435L1.81173 15.5451L1.69896 15.231L1.67965 15.1048L1.8255 14.9896L1.91215 14.991L1.97135 15.3435ZM0.437461 18.5545L0.244844 18.7383L0.107224 18.7013L0.0205716 18.6382L0 18.5326L0.310841 18.4311L0.437461 18.4667V18.5545Z"/>
</mask>
<path d="M2.15019 0.179705L2.03189 0.330568L1.93415 0.219471L1.90669 0L2.07865 0.0205951L2.14188 0.0658456L2.15019 0.179705ZM2.41569 2.93672L2.22862 3.02455L2.46103 2.62813L2.53123 2.55952L2.63988 2.70356L2.41569 2.93672ZM2.16396 9.90481L2.07865 9.93223L1.95623 9.9185L1.8695 9.85541L1.85027 9.7498L2.09923 9.74432L2.19142 9.82389L2.16396 9.90481ZM2.31804 14.6988L2.30696 14.8017L2.10888 14.777L2.05523 14.7303L2.16665 14.3723L2.45003 14.2077L2.58765 14.1748L2.45835 14.3449L2.43358 14.5356L2.31804 14.6988ZM1.97135 15.3435L1.81173 15.5451L1.69896 15.231L1.67965 15.1048L1.8255 14.9896L1.91215 14.991L1.97135 15.3435ZM0.437461 18.5545L0.244844 18.7383L0.107224 18.7013L0.0205716 18.6382L0 18.5326L0.310841 18.4311L0.437461 18.4667V18.5545Z" fill="var(--fill-0, #71B219)"/>
<path d="M2.15019 0.179705L2.54364 0.488248L2.66294 0.336116L2.64887 0.143298L2.15019 0.179705ZM2.03189 0.330568L1.65648 0.660827L2.05397 1.11266L2.42533 0.639111L2.03189 0.330568ZM1.93415 0.219471L1.43802 0.28154L1.45712 0.434211L1.55874 0.549731L1.93415 0.219471ZM1.90669 0L1.96615 -0.496452L1.33117 -0.572501L1.41056 0.0620682L1.90669 0ZM2.07865 0.0205951L2.36965 -0.386001L2.2654 -0.460612L2.13811 -0.475857L2.07865 0.0205951ZM2.14188 0.0658456L2.64055 0.0294386L2.62349 -0.204334L2.43288 -0.34075L2.14188 0.0658456ZM2.41569 2.93672L2.62817 3.38933L2.71196 3.35L2.77611 3.28327L2.41569 2.93672ZM2.22862 3.02455L1.79729 2.77166L0.982078 4.16208L2.44109 3.47715L2.22862 3.02455ZM2.46103 2.62813L2.11155 2.27056L2.06361 2.31742L2.0297 2.37524L2.46103 2.62813ZM2.53123 2.55952L2.9304 2.25842L2.58816 1.80472L2.18174 2.20195L2.53123 2.55952ZM2.63988 2.70356L3.0003 3.05012L3.29578 2.74281L3.03905 2.40246L2.63988 2.70356ZM2.16396 9.90481L2.31695 10.3808L2.55657 10.3038L2.63745 10.0655L2.16396 9.90481ZM2.07865 9.93223L2.02293 10.4291L2.12952 10.4411L2.23165 10.4082L2.07865 9.93223ZM1.95623 9.9185L1.66214 10.3229L1.76909 10.4006L1.9005 10.4154L1.95623 9.9185ZM1.8695 9.85541L1.37758 9.94497L1.41345 10.142L1.5754 10.2598L1.8695 9.85541ZM1.85027 9.7498L1.83926 9.24992L1.25339 9.26283L1.35835 9.83936L1.85027 9.7498ZM2.09923 9.74432L2.42593 9.36581L2.2804 9.2402L2.08822 9.24444L2.09923 9.74432ZM2.19142 9.82389L2.6649 9.98456L2.77316 9.66552L2.51812 9.44539L2.19142 9.82389ZM2.31804 14.6988L1.90994 14.4099L1.83484 14.516L1.82092 14.6452L2.31804 14.6988ZM2.30696 14.8017L2.24509 15.2978L2.74963 15.3607L2.80408 14.8552L2.30696 14.8017ZM2.10888 14.777L1.78089 15.1544L1.89586 15.2543L2.04702 15.2731L2.10888 14.777ZM2.05523 14.7303L1.57781 14.5818L1.48079 14.8935L1.72723 15.1077L2.05523 14.7303ZM2.16665 14.3723L1.91553 13.9399L1.74711 14.0378L1.68924 14.2237L2.16665 14.3723ZM2.45003 14.2077L2.33377 13.7214L2.26238 13.7385L2.19891 13.7753L2.45003 14.2077ZM2.58765 14.1748L2.98568 14.4774L3.83297 13.363L2.47139 13.6885L2.58765 14.1748ZM2.45835 14.3449L2.06032 14.0423L1.97968 14.1483L1.96251 14.2805L2.45835 14.3449ZM2.43358 14.5356L2.84167 14.8244L2.91341 14.7231L2.92941 14.6L2.43358 14.5356ZM1.97135 15.3435L2.36338 15.6538L2.50122 15.4797L2.46444 15.2606L1.97135 15.3435ZM1.81173 15.5451L1.34113 15.714L1.6452 16.561L2.20376 15.8554L1.81173 15.5451ZM1.69896 15.231L1.20471 15.3066L1.21203 15.3544L1.22837 15.3999L1.69896 15.231ZM1.67965 15.1048L1.36974 14.7124L1.14139 14.8928L1.1854 15.1804L1.67965 15.1048ZM1.8255 14.9896L1.83347 14.4896L1.65537 14.4868L1.51558 14.5972L1.8255 14.9896ZM1.91215 14.991L2.40525 14.9081L2.33631 14.4977L1.92012 14.491L1.91215 14.991ZM0.437461 18.5545L0.782645 18.9163L0.937461 18.7685V18.5545H0.437461ZM0.244844 18.7383L0.114875 19.2211L0.386513 19.2943L0.590028 19.1001L0.244844 18.7383ZM0.107224 18.7013L-0.187053 19.1055L-0.112177 19.16L-0.0227448 19.1841L0.107224 18.7013ZM0.0205716 18.6382L-0.470205 18.7338L-0.432623 18.9267L-0.273706 19.0424L0.0205716 18.6382ZM0 18.5326L-0.155216 18.0573L-0.575258 18.1945L-0.490776 18.6282L0 18.5326ZM0.310841 18.4311L0.446399 17.9498L0.300104 17.9086L0.155625 17.9558L0.310841 18.4311ZM0.437461 18.4667H0.937461V18.0881L0.57302 17.9855L0.437461 18.4667ZM2.15019 0.179705L1.75675 -0.128839L1.63844 0.0220241L2.03189 0.330568L2.42533 0.639111L2.54364 0.488248L2.15019 0.179705ZM2.03189 0.330568L2.40729 0.000308211L2.30955 -0.110788L1.93415 0.219471L1.55874 0.549731L1.65648 0.660827L2.03189 0.330568ZM1.93415 0.219471L2.43028 0.157403L2.40282 -0.0620682L1.90669 0L1.41056 0.0620682L1.43802 0.28154L1.93415 0.219471ZM1.90669 0L1.84723 0.496452L2.0192 0.517047L2.07865 0.0205951L2.13811 -0.475857L1.96615 -0.496452L1.90669 0ZM2.07865 0.0205951L1.78766 0.427191L1.85088 0.472441L2.14188 0.0658456L2.43288 -0.34075L2.36965 -0.386001L2.07865 0.0205951ZM2.14188 0.0658456L1.64321 0.102253L1.65152 0.216112L2.15019 0.179705L2.64887 0.143298L2.64055 0.0294386L2.14188 0.0658456ZM2.41569 2.93672L2.20322 2.48412L2.01614 2.57194L2.22862 3.02455L2.44109 3.47715L2.62817 3.38933L2.41569 2.93672ZM2.22862 3.02455L2.65995 3.27744L2.89237 2.88102L2.46103 2.62813L2.0297 2.37524L1.79729 2.77166L2.22862 3.02455ZM2.46103 2.62813L2.81052 2.9857L2.88072 2.9171L2.53123 2.55952L2.18174 2.20195L2.11155 2.27056L2.46103 2.62813ZM2.53123 2.55952L2.13206 2.86063L2.24071 3.00467L2.63988 2.70356L3.03905 2.40246L2.9304 2.25842L2.53123 2.55952ZM2.63988 2.70356L2.27946 2.35701L2.05527 2.59017L2.41569 2.93672L2.77611 3.28327L3.0003 3.05012L2.63988 2.70356ZM2.16396 9.90481L2.01097 9.42879L1.92566 9.45621L2.07865 9.93223L2.23165 10.4082L2.31695 10.3808L2.16396 9.90481ZM2.07865 9.93223L2.13438 9.43534L2.01196 9.42161L1.95623 9.9185L1.9005 10.4154L2.02293 10.4291L2.07865 9.93223ZM1.95623 9.9185L2.25032 9.51413L2.16359 9.45105L1.8695 9.85541L1.5754 10.2598L1.66214 10.3229L1.95623 9.9185ZM1.8695 9.85541L2.36141 9.76585L2.34218 9.66024L1.85027 9.7498L1.35835 9.83936L1.37758 9.94497L1.8695 9.85541ZM1.85027 9.7498L1.86128 10.2497L2.11024 10.2442L2.09923 9.74432L2.08822 9.24444L1.83926 9.24992L1.85027 9.7498ZM2.09923 9.74432L1.77253 10.1228L1.86472 10.2024L2.19142 9.82389L2.51812 9.44539L2.42593 9.36581L2.09923 9.74432ZM2.19142 9.82389L1.71794 9.66323L1.69048 9.74414L2.16396 9.90481L2.63745 10.0655L2.6649 9.98456L2.19142 9.82389ZM2.31804 14.6988L1.82092 14.6452L1.80983 14.7481L2.30696 14.8017L2.80408 14.8552L2.81516 14.7523L2.31804 14.6988ZM2.30696 14.8017L2.36882 14.3055L2.17075 14.2808L2.10888 14.777L2.04702 15.2731L2.24509 15.2978L2.30696 14.8017ZM2.10888 14.777L2.43688 14.3996L2.38322 14.3529L2.05523 14.7303L1.72723 15.1077L1.78089 15.1544L2.10888 14.777ZM2.05523 14.7303L2.53264 14.8789L2.64406 14.5209L2.16665 14.3723L1.68924 14.2237L1.57781 14.5818L2.05523 14.7303ZM2.16665 14.3723L2.41777 14.8047L2.70116 14.6401L2.45003 14.2077L2.19891 13.7753L1.91553 13.9399L2.16665 14.3723ZM2.45003 14.2077L2.5663 14.694L2.70392 14.6611L2.58765 14.1748L2.47139 13.6885L2.33377 13.7214L2.45003 14.2077ZM2.58765 14.1748L2.18963 13.8722L2.06032 14.0423L2.45835 14.3449L2.85637 14.6475L2.98568 14.4774L2.58765 14.1748ZM2.45835 14.3449L1.96251 14.2805L1.93774 14.4711L2.43358 14.5356L2.92941 14.6L2.95418 14.4093L2.45835 14.3449ZM2.43358 14.5356L2.02548 14.2467L1.90994 14.4099L2.31804 14.6988L2.72614 14.9877L2.84167 14.8244L2.43358 14.5356ZM1.97135 15.3435L1.57931 15.0331L1.41969 15.2348L1.81173 15.5451L2.20376 15.8554L2.36338 15.6538L1.97135 15.3435ZM1.81173 15.5451L2.28232 15.3762L2.16956 15.062L1.69896 15.231L1.22837 15.3999L1.34113 15.714L1.81173 15.5451ZM1.69896 15.231L2.19321 15.1553L2.1739 15.0291L1.67965 15.1048L1.1854 15.1804L1.20471 15.3066L1.69896 15.231ZM1.67965 15.1048L1.98956 15.4971L2.13541 15.3819L1.8255 14.9896L1.51558 14.5972L1.36974 14.7124L1.67965 15.1048ZM1.8255 14.9896L1.81753 15.4895L1.90418 15.4909L1.91215 14.991L1.92012 14.491L1.83347 14.4896L1.8255 14.9896ZM1.91215 14.991L1.41905 15.0738L1.47825 15.4263L1.97135 15.3435L2.46444 15.2606L2.40525 14.9081L1.91215 14.991ZM0.437461 18.5545L0.0922773 18.1928L-0.10034 18.3766L0.244844 18.7383L0.590028 19.1001L0.782645 18.9163L0.437461 18.5545ZM0.244844 18.7383L0.374813 18.2555L0.237193 18.2185L0.107224 18.7013L-0.0227448 19.1841L0.114875 19.2211L0.244844 18.7383ZM0.107224 18.7013L0.401502 18.2971L0.314849 18.234L0.0205716 18.6382L-0.273706 19.0424L-0.187053 19.1055L0.107224 18.7013ZM0.0205716 18.6382L0.511348 18.5426L0.490776 18.437L0 18.5326L-0.490776 18.6282L-0.470205 18.7338L0.0205716 18.6382ZM0 18.5326L0.155216 19.0079L0.466057 18.9064L0.310841 18.4311L0.155625 17.9558L-0.155216 18.0573L0 18.5326ZM0.310841 18.4311L0.175282 18.9124L0.301903 18.948L0.437461 18.4667L0.57302 17.9855L0.446399 17.9498L0.310841 18.4311ZM0.437461 18.4667H-0.0625389V18.5545H0.437461H0.937461V18.4667H0.437461Z" fill="var(--stroke-0, white)" mask="url(#path-1-inside-1_0_158)"/>
</g>
</svg>
