<svg preserveAspectRatio="none" width="100%" height="100%" overflow="visible" style="display: block;" viewBox="0 0 47 52" fill="none" xmlns="http://www.w3.org/2000/svg"><g id="MR"><mask id="path-1-inside-1_0_225" fill="white"><path d="M47 10H46L44 10H43H42H40L40 11L41 12L41 13L41 14L41 15L41 16L41 17L41 18L41 19L42 20L42 21L42 22L42 23L42 24L42 25L42 26L42 27L42 28L42 29L43 30L43 31L43 32L43 33L43 34L43 35L43 36L43 37L44 38L44 39L44 40L44 41L44 42L44 43L44 44L45 45L45 45L45 46L45 47L45 49H44H43H42H41H41H40H39H38H38H37H36H35H34H34H33H32H31H30L30 48L30 48L30 48L30 48L30 48L29 48L29 48L29 49L29 49L28 49L28 49L27 49L26 49L26 49L26 49L25 49L25 49L25 49L24 49L24 49L24 50L24 50L23 50L23 49L22 48L22 48L22 48L21 48L21 48L20 49L20 49L20 50L20 50L20 51L20 51L20 51L19 52L19 52L18 51L18 51L18 51L18 51L18 50L17 50L17 50L17 50L16 50L16 50L16 50L16 49L16 49L16 49L16 48L16 49L15 48L15 48L15 48L15 48L15 48L15 48L14 47L14 47L14 46L14 46L14 46L14 46L14 46L14 46L13 46L13 46L13 46L13 46L13 46L12 46L12 46L12 46L12 45L12 45L11 44L10 44L9 44L8 44L8 44L8 44L8 44L8 44L8 44L8 44L8 44L7 44L6 44L6 44L6 44L5 45L4 45L4 44L4 44L4 44L3 44L3 45L3 45L2 46L2 46L2 46L2 47L2 47L2 45L2 45L2 44L3 43L3 42L4 40L4 39L4 38L4 36L4 36L3 34L3 34L2 33L2 33L2 33L3 33L3 32L2 33L3 31L3 30L3 30L3 30L3 29L2 28L2 28L2 28L2 28L2 28L2 28L1 27L1 26L0 26L0 26L0 26L0 27L0 27L0 26L0 26L0 25H1L2 25L3 25H4L4 25L5 25L6 25H7L8 25L9 25H10L11 25L12 25H12L13 25L14 25H15H16L16 24L16 24L16 24L16 23L16 22L15 22L15 21L15 21L15 20L15 20L15 19L15 19L15 19L15 19L16 18L16 18L17 17L17 17L17 17L18 17L19 17L19 16L20 16L20 16V15V15V14V14V13V12V12V11V11V10V10V9V8V8V7V7V6V6H20H21H22H22H23H24H24H25H26H26H27H28H29H29H30H31H32H32V5V4L32 3V2L32 2V1L32 0L33 0L34 1L34 1L35 2L36 2L37 3L37 3L38 4L39 4L40 5L40 5L41 6L42 6L42 7L43 7L44 8L45 8L46 9L46 9L47 10ZM3 32L2 32L2 32L2 32L2 31L3 31L3 31L3 32Z"/></mask><path d="M47 10H46L44 10H43H42H40L40 11L41 12L41 13L41 14L41 15L41 16L41 17L41 18L41 19L42 20L42 21L42 22L42 23L42 24L42 25L42 26L42 27L42 28L42 29L43 30L43 31L43 32L43 33L43 34L43 35L43 36L43 37L44 38L44 39L44 40L44 41L44 42L44 43L44 44L45 45L45 45L45 46L45 47L45 49H44H43H42H41H41H40H39H38H38H37H36H35H34H34H33H32H31H30L30 48L30 48L30 48L30 48L30 48L29 48L29 48L29 49L29 49L28 49L28 49L27 49L26 49L26 49L26 49L25 49L25 49L25 49L24 49L24 49L24 50L24 50L23 50L23 49L22 48L22 48L22 48L21 48L21 48L20 49L20 49L20 50L20 50L20 51L20 51L20 51L19 52L19 52L18 51L18 51L18 51L18 51L18 50L17 50L17 50L17 50L16 50L16 50L16 50L16 49L16 49L16 49L16 48L16 49L15 48L15 48L15 48L15 48L15 48L15 48L14 47L14 47L14 46L14 46L14 46L14 46L14 46L14 46L13 46L13 46L13 46L13 46L13 46L12 46L12 46L12 46L12 45L12 45L11 44L10 44L9 44L8 44L8 44L8 44L8 44L8 44L8 44L8 44L8 44L7 44L6 44L6 44L6 44L5 45L4 45L4 44L4 44L4 44L3 44L3 45L3 45L2 46L2 46L2 46L2 47L2 47L2 45L2 45L2 44L3 43L3 42L4 40L4 39L4 38L4 36L4 36L3 34L3 34L2 33L2 33L2 33L3 33L3 32L2 33L3 31L3 30L3 30L3 30L3 29L2 28L2 28L2 28L2 28L2 28L2 28L1 27L1 26L0 26L0 26L0 26L0 27L0 27L0 26L0 26L0 25H1L2 25L3 25H4L4 25L5 25L6 25H7L8 25L9 25H10L11 25L12 25H12L13 25L14 25H15H16L16 24L16 24L16 24L16 23L16 22L15 22L15 21L15 21L15 20L15 20L15 19L15 19L15 19L15 19L16 18L16 18L17 17L17 17L17 17L18 17L19 17L19 16L20 16L20 16V15V15V14V14V13V12V12V11V11V10V10V9V8V8V7V7V6V6H20H21H22H22H23H24H24H25H26H26H27H28H29H29H30H31H32H32V5V4L32 3V2L32 2V1L32 0L33 0L34 1L34 1L35 2L36 2L37 3L37 3L38 4L39 4L40 5L40 5L41 6L42 6L42 7L43 7L44 8L45 8L46 9L46 9L47 10ZM3 32L2 32L2 32L2 32L2 31L3 31L3 31L3 32Z" fill="var(--fill-0,#71B219)" stroke="var(--stroke-0,white)" mask="url(#path-1-inside-1_0_225)"/></g></svg>