<svg preserveAspectRatio="none" width="100%" height="100%" overflow="visible" style="display: block;" viewBox="0 0 47.2537 51.5431" fill="none" xmlns="http://www.w3.org/2000/svg">
<g id="MR">
<mask id="path-1-inside-1_0_225" fill="white">
<path d="M47.2537 9.76629H45.9014L44.0951 9.76763H42.8638H41.5996H40.4151L40.5183 10.7292L40.6283 11.7772L40.7384 12.8224L40.8485 13.8662L40.9585 14.9073L41.0686 15.947L41.1786 16.984L41.2887 18.0182L41.3987 19.0511L41.5088 20.0812L41.6188 21.1099L41.7289 22.1387L41.839 23.1647L41.949 24.1893L42.0591 25.2126L42.1691 26.2331L42.2792 27.2523L42.3892 28.27L42.4993 29.2851L42.6093 30.2987L42.7194 31.311L42.8295 32.322L42.9395 33.3301L43.0496 34.3369L43.1596 35.3424L43.2697 36.3464L43.3797 37.3491L43.4898 38.3504L43.5998 39.3504L43.7099 40.3489L43.82 41.3461L43.93 42.342L44.0401 43.3364L44.1474 44.2993L44.6068 44.8041L45.1846 45.4378L45.0155 46.3349L44.8146 47.4034L44.5945 48.5679H43.7787H42.9904H42.2035H41.4166H40.6297H39.8415H39.0546H38.2676H37.4808H36.6939H35.9056H35.1187H34.3318H33.5449H32.7566H31.9698H31.1828H30.4496L29.9984 48.5405L29.8374 48.45L29.7796 47.8478L29.6448 47.8862L29.4853 48.0632L29.4027 48.2552L29.4316 48.5062L29.4054 48.7188L28.8992 48.8025L28.2155 48.9451L27.496 49.0549L26.7696 49.0151L26.522 48.9657L26.2593 48.8862L25.6814 48.7998L25.3664 48.7929L25.006 48.8121L24.5809 48.8601L24.4447 48.9712L24.1242 49.4198L23.8132 49.9396L23.611 49.9368L23.3827 49.6516L22.7567 49.1138L21.9987 48.4061L21.6534 48.055L21.4704 48.0097L21.1072 48.2621L20.8019 48.5048L20.4772 48.8477L20.33 49.177L20.2131 49.5651L20.1608 50.0219L20.0425 50.5541L19.7797 50.9834L19.4688 51.3072L19.2377 51.4594L19.1483 51.5431L18.4687 51.2907L18.3834 51.2592L17.9734 50.9738L17.7753 50.635L17.4521 50.3799L17.0036 50.2084L16.7119 50.0137L16.5757 49.7942L16.4106 49.6488L16.2359 49.5734L16.2194 49.4952L16.2607 49.3868L16.2194 49.1866L15.9567 48.7394L15.7118 48.5337L15.5027 48.5666L15.3844 48.5117L15.3129 48.4129L15.284 48.2689L15.1409 48.1441L14.8932 48.0892L14.6938 47.7573L14.5438 47.1469L14.3485 46.6709L14.1091 46.3294L13.9372 46.2018L13.8106 46.1785L13.7679 46.125L13.7335 46.0263L13.5465 45.9906L13.2837 46.0934L13.0471 46.0592L12.9315 45.8918L12.7705 45.8767L12.5656 46.0139L12.3386 45.9741L12.091 45.756L11.9534 45.5393L11.9273 45.3239L11.4994 44.8946L10.6712 44.2499L9.76882 43.9482L8.79204 43.9879L8.24455 43.9578L8.12485 43.8563L8.00516 43.8645L7.88408 43.9824L7.75616 44.0085L7.61997 43.9427L7.53466 43.9921L7.50166 44.1567L7.15774 44.2417L6.50427 44.2431L5.976 44.3446L5.57431 44.5448L5.00477 44.6313L4.26739 44.6038L3.82304 44.5298L3.67173 44.4118L3.45989 44.383L3.18746 44.4461L2.94262 44.7657L2.72662 45.3404L2.54916 45.6682L2.40746 45.7492L2.25616 46.1771L2.17085 46.8931L2.04293 47.2072L2.04154 45.4213L2.252 44.7533L2.32081 44.1663L2.77204 42.8673L3.30993 41.8029L3.80654 40.3873L3.99366 39.0129L3.93035 37.6646L3.78316 36.463L3.53139 35.6674L3.28793 34.5139L2.92885 33.9048L2.27127 33.3726L2.12408 33.0613L2.27677 32.9447L2.67712 32.8651L2.93162 32.4495L2.39235 32.61L3.0155 31.3344L3.2095 30.4647L3.17923 29.8927L3.29754 29.5388L2.82154 28.7721L2.4515 27.8051L2.26027 27.6528L2.06215 27.5719L2.04427 27.7996L1.93696 28.0026L1.70585 27.8805L1.29727 27.1768L0.726387 26.0301L0.525499 25.9122L0.359037 26.0699L0.2545 26.2208L0.0619247 27.1782L0 26.7982L0.0839237 26.3511L0.225616 25.7997L0.385192 25.0329H0.880464L1.76639 25.0315L2.65235 25.0302H3.53827L4.42423 25.0288L5.3102 25.0274L6.19473 25.0261H7.0807L7.96666 25.0247L8.85258 25.0233H9.73855L10.6245 25.0219L11.5104 25.0206H12.395L13.2809 25.0192L14.1669 25.0178H15.0515H15.6361L15.6017 24.4719L15.5742 24.0385L15.5371 23.4555L15.4999 22.8753L15.4642 22.2937L15.4298 21.7464L15.3954 21.1991L15.3637 20.6916L15.3349 20.2252L15.284 19.9564L15.0955 19.4228L15.0556 19.1581L15.1065 18.8782L15.2317 18.6149L15.577 18.1321L16.0997 17.7604L16.7023 17.331L17.1618 17.0032L17.397 16.9222L18.1165 16.8084L18.6833 16.5602L19.2349 16.3187L19.4661 16.1843L19.4936 15.7303V15.2228V14.6535V14.0829V13.5123V12.9403V12.3683V11.7963V11.223V10.6496V10.0763V9.50153V8.92545V8.34933V7.77188V7.19442V6.61558V6.0367V5.52919H20.0714H20.7909H21.509H22.2284H22.9479H23.6674H24.3869H25.1064H25.8259H26.5454H27.2649H27.9844H28.7038H29.4233H30.1414H30.8609H31.5804H32.3659V5.04362V4.34543L32.3646 3.38529V2.41963L32.3632 1.5692V0.717395L32.3618 0L33.0882 0.475989L33.8145 0.951936L34.5409 1.42792L35.2673 1.90253L35.9936 2.3771L36.72 2.85032L37.445 3.32355L38.1714 3.79678L38.8977 4.27L39.6241 4.74185L40.3505 5.21373L41.0768 5.6842L41.8032 6.15466L42.5296 6.62517L43.2559 7.09563L43.9809 7.56475L44.589 7.95706L45.5231 8.5894L46.3939 9.17782L47.2537 9.76629ZM2.65785 31.6649L2.41023 32.06L2.30016 31.909L2.2575 31.6498L2.47762 31.2781L2.5822 31.0861L2.77339 31.0161L2.65785 31.6649Z"/>
</mask>
<path d="M47.2537 9.76629H45.9014L44.0951 9.76763H42.8638H41.5996H40.4151L40.5183 10.7292L40.6283 11.7772L40.7384 12.8224L40.8485 13.8662L40.9585 14.9073L41.0686 15.947L41.1786 16.984L41.2887 18.0182L41.3987 19.0511L41.5088 20.0812L41.6188 21.1099L41.7289 22.1387L41.839 23.1647L41.949 24.1893L42.0591 25.2126L42.1691 26.2331L42.2792 27.2523L42.3892 28.27L42.4993 29.2851L42.6093 30.2987L42.7194 31.311L42.8295 32.322L42.9395 33.3301L43.0496 34.3369L43.1596 35.3424L43.2697 36.3464L43.3797 37.3491L43.4898 38.3504L43.5998 39.3504L43.7099 40.3489L43.82 41.3461L43.93 42.342L44.0401 43.3364L44.1474 44.2993L44.6068 44.8041L45.1846 45.4378L45.0155 46.3349L44.8146 47.4034L44.5945 48.5679H43.7787H42.9904H42.2035H41.4166H40.6297H39.8415H39.0546H38.2676H37.4808H36.6939H35.9056H35.1187H34.3318H33.5449H32.7566H31.9698H31.1828H30.4496L29.9984 48.5405L29.8374 48.45L29.7796 47.8478L29.6448 47.8862L29.4853 48.0632L29.4027 48.2552L29.4316 48.5062L29.4054 48.7188L28.8992 48.8025L28.2155 48.9451L27.496 49.0549L26.7696 49.0151L26.522 48.9657L26.2593 48.8862L25.6814 48.7998L25.3664 48.7929L25.006 48.8121L24.5809 48.8601L24.4447 48.9712L24.1242 49.4198L23.8132 49.9396L23.611 49.9368L23.3827 49.6516L22.7567 49.1138L21.9987 48.4061L21.6534 48.055L21.4704 48.0097L21.1072 48.2621L20.8019 48.5048L20.4772 48.8477L20.33 49.177L20.2131 49.5651L20.1608 50.0219L20.0425 50.5541L19.7797 50.9834L19.4688 51.3072L19.2377 51.4594L19.1483 51.5431L18.4687 51.2907L18.3834 51.2592L17.9734 50.9738L17.7753 50.635L17.4521 50.3799L17.0036 50.2084L16.7119 50.0137L16.5757 49.7942L16.4106 49.6488L16.2359 49.5734L16.2194 49.4952L16.2607 49.3868L16.2194 49.1866L15.9567 48.7394L15.7118 48.5337L15.5027 48.5666L15.3844 48.5117L15.3129 48.4129L15.284 48.2689L15.1409 48.1441L14.8932 48.0892L14.6938 47.7573L14.5438 47.1469L14.3485 46.6709L14.1091 46.3294L13.9372 46.2018L13.8106 46.1785L13.7679 46.125L13.7335 46.0263L13.5465 45.9906L13.2837 46.0934L13.0471 46.0592L12.9315 45.8918L12.7705 45.8767L12.5656 46.0139L12.3386 45.9741L12.091 45.756L11.9534 45.5393L11.9273 45.3239L11.4994 44.8946L10.6712 44.2499L9.76882 43.9482L8.79204 43.9879L8.24455 43.9578L8.12485 43.8563L8.00516 43.8645L7.88408 43.9824L7.75616 44.0085L7.61997 43.9427L7.53466 43.9921L7.50166 44.1567L7.15774 44.2417L6.50427 44.2431L5.976 44.3446L5.57431 44.5448L5.00477 44.6313L4.26739 44.6038L3.82304 44.5298L3.67173 44.4118L3.45989 44.383L3.18746 44.4461L2.94262 44.7657L2.72662 45.3404L2.54916 45.6682L2.40746 45.7492L2.25616 46.1771L2.17085 46.8931L2.04293 47.2072L2.04154 45.4213L2.252 44.7533L2.32081 44.1663L2.77204 42.8673L3.30993 41.8029L3.80654 40.3873L3.99366 39.0129L3.93035 37.6646L3.78316 36.463L3.53139 35.6674L3.28793 34.5139L2.92885 33.9048L2.27127 33.3726L2.12408 33.0613L2.27677 32.9447L2.67712 32.8651L2.93162 32.4495L2.39235 32.61L3.0155 31.3344L3.2095 30.4647L3.17923 29.8927L3.29754 29.5388L2.82154 28.7721L2.4515 27.8051L2.26027 27.6528L2.06215 27.5719L2.04427 27.7996L1.93696 28.0026L1.70585 27.8805L1.29727 27.1768L0.726387 26.0301L0.525499 25.9122L0.359037 26.0699L0.2545 26.2208L0.0619247 27.1782L0 26.7982L0.0839237 26.3511L0.225616 25.7997L0.385192 25.0329H0.880464L1.76639 25.0315L2.65235 25.0302H3.53827L4.42423 25.0288L5.3102 25.0274L6.19473 25.0261H7.0807L7.96666 25.0247L8.85258 25.0233H9.73855L10.6245 25.0219L11.5104 25.0206H12.395L13.2809 25.0192L14.1669 25.0178H15.0515H15.6361L15.6017 24.4719L15.5742 24.0385L15.5371 23.4555L15.4999 22.8753L15.4642 22.2937L15.4298 21.7464L15.3954 21.1991L15.3637 20.6916L15.3349 20.2252L15.284 19.9564L15.0955 19.4228L15.0556 19.1581L15.1065 18.8782L15.2317 18.6149L15.577 18.1321L16.0997 17.7604L16.7023 17.331L17.1618 17.0032L17.397 16.9222L18.1165 16.8084L18.6833 16.5602L19.2349 16.3187L19.4661 16.1843L19.4936 15.7303V15.2228V14.6535V14.0829V13.5123V12.9403V12.3683V11.7963V11.223V10.6496V10.0763V9.50153V8.92545V8.34933V7.77188V7.19442V6.61558V6.0367V5.52919H20.0714H20.7909H21.509H22.2284H22.9479H23.6674H24.3869H25.1064H25.8259H26.5454H27.2649H27.9844H28.7038H29.4233H30.1414H30.8609H31.5804H32.3659V5.04362V4.34543L32.3646 3.38529V2.41963L32.3632 1.5692V0.717395L32.3618 0L33.0882 0.475989L33.8145 0.951936L34.5409 1.42792L35.2673 1.90253L35.9936 2.3771L36.72 2.85032L37.445 3.32355L38.1714 3.79678L38.8977 4.27L39.6241 4.74185L40.3505 5.21373L41.0768 5.6842L41.8032 6.15466L42.5296 6.62517L43.2559 7.09563L43.9809 7.56475L44.589 7.95706L45.5231 8.5894L46.3939 9.17782L47.2537 9.76629ZM2.65785 31.6649L2.41023 32.06L2.30016 31.909L2.2575 31.6498L2.47762 31.2781L2.5822 31.0861L2.77339 31.0161L2.65785 31.6649Z" fill="var(--fill-0, #71B219)" stroke="var(--stroke-0, white)" mask="url(#path-1-inside-1_0_225)"/>
</g>
</svg>
