<svg preserveAspectRatio="none" width="100%" height="100%" overflow="visible" style="display: block;" viewBox="0 0 0.288416 0.513635" fill="none" xmlns="http://www.w3.org/2000/svg">
<g id="MS">
<mask id="path-1-inside-1_0_169" fill="white">
<path d="M0.288416 0.277437L0.266453 0.513635L0.00549084 0.440839L0 0.232091L0.122224 0.0206192L0.182665 0L0.288416 0.277437Z"/>
</mask>
<path d="M0.288416 0.277437L0.266453 0.513635L0.00549084 0.440839L0 0.232091L0.122224 0.0206192L0.182665 0L0.288416 0.277437Z" fill="var(--fill-0, #71B219)"/>
<path d="M0.288416 0.277437L0.786268 0.32373L0.797032 0.207978L0.755626 0.0993493L0.288416 0.277437ZM0.266453 0.513635L0.132106 0.995248L0.708865 1.15614L0.764305 0.559929L0.266453 0.513635ZM0.00549084 0.440839L-0.494336 0.453987L-0.484624 0.82321L-0.128856 0.922452L0.00549084 0.440839ZM0 0.232091L-0.432897 -0.0181086L-0.503539 0.104116L-0.499827 0.245239L0 0.232091ZM0.122224 0.0206192L-0.039213 -0.452602L-0.216787 -0.392024L-0.310674 -0.229581L0.122224 0.0206192ZM0.182665 0L0.649875 -0.178087L0.477984 -0.629041L0.0212282 -0.473221L0.182665 0ZM0.288416 0.277437L-0.209436 0.231143L-0.2314 0.467341L0.266453 0.513635L0.764305 0.559929L0.786268 0.32373L0.288416 0.277437ZM0.266453 0.513635L0.400799 0.032022L0.139838 -0.0407737L0.00549084 0.440839L-0.128856 0.922452L0.132106 0.995248L0.266453 0.513635ZM0.00549084 0.440839L0.505318 0.427692L0.499827 0.218944L0 0.232091L-0.499827 0.245239L-0.494336 0.453987L0.00549084 0.440839ZM0 0.232091L0.432897 0.482291L0.555121 0.270819L0.122224 0.0206192L-0.310674 -0.229581L-0.432897 -0.0181086L0 0.232091ZM0.122224 0.0206192L0.28366 0.49384L0.344101 0.473221L0.182665 0L0.0212282 -0.473221L-0.039213 -0.452602L0.122224 0.0206192ZM0.182665 0L-0.284545 0.178087L-0.178794 0.455524L0.288416 0.277437L0.755626 0.0993493L0.649875 -0.178087L0.182665 0Z" fill="var(--stroke-0, white)" mask="url(#path-1-inside-1_0_169)"/>
</g>
</svg>
