<svg preserveAspectRatio="none" width="100%" height="100%" overflow="visible" style="display: block;" viewBox="0 0 0.560841 3.90101" fill="none" xmlns="http://www.w3.org/2000/svg">
<g id="MV">
<mask id="path-1-inside-1_0_92" fill="white">
<path d="M0.501836 0.318219L0.434712 0.353884L0.371606 0.340154L0.349678 0.294903L0.381231 0.229057L0.43329 0.142659L0.468944 0.0493947L0.521086 0L0.560841 0.0164509L0.55674 0.0685665L0.53749 0.139896L0.525187 0.23316L0.501836 0.318219ZM0.132992 3.89414L0.0507192 3.90101L0 3.83516L0.0109641 3.74052L0.0754093 3.67333L0.175509 3.66919L0.233091 3.72817L0.2043 3.82009L0.132992 3.89414Z"/>
</mask>
<path d="M0.501836 0.318219L0.434712 0.353884L0.371606 0.340154L0.349678 0.294903L0.381231 0.229057L0.43329 0.142659L0.468944 0.0493947L0.521086 0L0.560841 0.0164509L0.55674 0.0685665L0.53749 0.139896L0.525187 0.23316L0.501836 0.318219ZM0.132992 3.89414L0.0507192 3.90101L0 3.83516L0.0109641 3.74052L0.0754093 3.67333L0.175509 3.66919L0.233091 3.72817L0.2043 3.82009L0.132992 3.89414Z" fill="var(--fill-0, #71B219)"/>
<path d="M0.501836 0.318219L0.736441 0.759762L0.926901 0.658565L0.983997 0.450584L0.501836 0.318219ZM0.434712 0.353884L0.328414 0.842454L0.507483 0.881414L0.669317 0.795427L0.434712 0.353884ZM0.371606 0.340154L-0.0783459 0.558197L0.0276972 0.777026L0.265308 0.828724L0.371606 0.340154ZM0.349678 0.294903L-0.101224 0.0788317L-0.205348 0.296118L-0.100274 0.512947L0.349678 0.294903ZM0.381231 0.229057L-0.0470355 -0.0289884L-0.0593555 -0.00854153L-0.0696714 0.012986L0.381231 0.229057ZM0.43329 0.142659L0.861556 0.400704L0.88447 0.362675L0.900325 0.321203L0.43329 0.142659ZM0.468944 0.0493947L0.125082 -0.313592L0.0425192 -0.235379L0.00190837 -0.12915L0.468944 0.0493947ZM0.521086 0L0.712267 -0.462006L0.412637 -0.585995L0.177225 -0.362987L0.521086 0ZM0.560841 0.0164509L1.0593 0.0556755L1.08781 -0.306605L0.752022 -0.445555L0.560841 0.0164509ZM0.55674 0.0685665L1.03947 0.198842L1.05156 0.154047L1.0552 0.107791L0.55674 0.0685665ZM0.53749 0.139896L0.05476 0.00961985L0.046121 0.0416314L0.0417846 0.0745034L0.53749 0.139896ZM0.525187 0.23316L1.00735 0.365525L1.01641 0.332502L1.02089 0.298552L0.525187 0.23316ZM0.132992 3.89414L0.174568 4.39241L0.362405 4.37674L0.49315 4.24097L0.132992 3.89414ZM0.0507192 3.90101L-0.345393 4.20612L-0.179164 4.42193L0.0922961 4.39928L0.0507192 3.90101ZM0 3.83516L-0.496678 3.77763L-0.52005 3.97938L-0.396112 4.14028L0 3.83516ZM0.0109641 3.74052L-0.34987 3.3944L-0.466351 3.51583L-0.485714 3.68298L0.0109641 3.74052ZM0.0754093 3.67333L0.0547269 3.17376L-0.14621 3.18208L-0.285425 3.32721L0.0754093 3.67333ZM0.175509 3.66919L0.533278 3.3199L0.377553 3.1604L0.154826 3.16962L0.175509 3.66919ZM0.233091 3.72817L0.710235 3.87761L0.799504 3.59259L0.59086 3.37888L0.233091 3.72817ZM0.2043 3.82009L0.564458 4.16692L0.646215 4.08201L0.681444 3.96954L0.2043 3.82009ZM0.501836 0.318219L0.267231 -0.123324L0.200108 -0.0876598L0.434712 0.353884L0.669317 0.795427L0.736441 0.759762L0.501836 0.318219ZM0.434712 0.353884L0.541011 -0.134686L0.477905 -0.148416L0.371606 0.340154L0.265308 0.828724L0.328414 0.842454L0.434712 0.353884ZM0.371606 0.340154L0.821558 0.12211L0.79963 0.0768593L0.349678 0.294903L-0.100274 0.512947L-0.0783459 0.558197L0.371606 0.340154ZM0.349678 0.294903L0.800581 0.510974L0.832134 0.445129L0.381231 0.229057L-0.0696714 0.012986L-0.101224 0.0788317L0.349678 0.294903ZM0.381231 0.229057L0.809498 0.487103L0.861556 0.400704L0.43329 0.142659L0.00502284 -0.115387L-0.0470355 -0.0289884L0.381231 0.229057ZM0.43329 0.142659L0.900325 0.321203L0.935979 0.227939L0.468944 0.0493947L0.00190837 -0.12915L-0.0337457 -0.0358857L0.43329 0.142659ZM0.468944 0.0493947L0.812805 0.412382L0.864947 0.362987L0.521086 0L0.177225 -0.362987L0.125082 -0.313592L0.468944 0.0493947ZM0.521086 0L0.329905 0.462006L0.36966 0.478457L0.560841 0.0164509L0.752022 -0.445555L0.712267 -0.462006L0.521086 0ZM0.560841 0.0164509L0.0623818 -0.0227736L0.0582807 0.029342L0.55674 0.0685665L1.0552 0.107791L1.0593 0.0556755L0.560841 0.0164509ZM0.55674 0.0685665L0.0740099 -0.0617094L0.05476 0.00961985L0.53749 0.139896L1.02022 0.270172L1.03947 0.198842L0.55674 0.0685665ZM0.53749 0.139896L0.0417846 0.0745034L0.0294814 0.167767L0.525187 0.23316L1.02089 0.298552L1.0332 0.205288L0.53749 0.139896ZM0.525187 0.23316L0.0430256 0.100794L0.0196746 0.185854L0.501836 0.318219L0.983997 0.450584L1.00735 0.365525L0.525187 0.23316ZM0.132992 3.89414L0.0914146 3.39587L0.00914236 3.40274L0.0507192 3.90101L0.0922961 4.39928L0.174568 4.39241L0.132992 3.89414ZM0.0507192 3.90101L0.446831 3.59589L0.396112 3.53005L0 3.83516L-0.396112 4.14028L-0.345393 4.20612L0.0507192 3.90101ZM0 3.83516L0.496678 3.8927L0.507643 3.79805L0.0109641 3.74052L-0.485714 3.68298L-0.496678 3.77763L0 3.83516ZM0.0109641 3.74052L0.371799 4.08664L0.436244 4.01945L0.0754093 3.67333L-0.285425 3.32721L-0.34987 3.3944L0.0109641 3.74052ZM0.0754093 3.67333L0.0960917 4.1729L0.196191 4.16876L0.175509 3.66919L0.154826 3.16962L0.0547269 3.17376L0.0754093 3.67333ZM0.175509 3.66919L-0.182261 4.01848L-0.124678 4.07746L0.233091 3.72817L0.59086 3.37888L0.533278 3.3199L0.175509 3.66919ZM0.233091 3.72817L-0.244053 3.57873L-0.272844 3.67065L0.2043 3.82009L0.681444 3.96954L0.710235 3.87761L0.233091 3.72817ZM0.2043 3.82009L-0.155859 3.47327L-0.227167 3.54732L0.132992 3.89414L0.49315 4.24097L0.564458 4.16692L0.2043 3.82009Z" fill="var(--stroke-0, white)" mask="url(#path-1-inside-1_0_92)"/>
</g>
</svg>
