<svg preserveAspectRatio="none" width="100%" height="100%" overflow="visible" style="display: block;" viewBox="0 0 1 4" fill="none" xmlns="http://www.w3.org/2000/svg"><g id="MV"><mask id="path-1-inside-1_0_92" fill="white"><path d="M0 0L0 0L0 0L0 0L0 0L0 0L0 0L0 0L1 0L1 0L0 0L0 0L0 0ZM0 4L0 4L0 4L0 4L0 4L0 4L0 4L0 4L0 4Z"/></mask><path d="M0 0L0 0L0 0L0 0L0 0L0 0L0 0L0 0L1 0L1 0L0 0L0 0L0 0ZM0 4L0 4L0 4L0 4L0 4L0 4L0 4L0 4L0 4Z" fill="var(--fill-0,#71B219)"/><path d="M0 0L1 1L1 1L1 0L0 0ZM0 0L0 1L0 1L1 1L0 0ZM0 0L0 1L0 1L0 1L0 0ZM0 0L0 0L0 0L0 0L0 0ZM0 0L0 0L0 0L0 0L0 0ZM0 0L1 0L1 0L1 0L0 0ZM0 0L0 0L0 0L0 0L0 0ZM0 0L1 0L0 -1L0 0L0 0ZM1 0L1 0L1 0L1 0L1 0ZM1 0L1 0L1 0L1 0L1 0ZM0 0L0 0L0 0L0 0L0 0ZM0 0L1 0L1 0L1 0L0 0ZM0 4L0 4L0 4L0 4L0 4ZM0 4L0 4L0 4L0 4L0 4ZM0 4L0 4L0 4L0 4L0 4ZM0 4L0 3L0 4L0 4L0 4ZM0 4L0 3L0 3L0 3L0 4ZM0 4L0 3L0 3L0 3L0 4ZM0 4L1 4L1 4L1 3L0 4ZM0 4L1 4L1 4L1 4L0 4ZM0 0L0 0L0 0L0 0L1 1L1 1L0 0ZM0 0L0 0L0 0L0 0L0 1L0 1L0 0ZM0 0L1 0L1 0L0 0L0 0L0 1L0 0ZM0 0L1 0L1 0L0 0L0 0L0 0L0 0ZM0 0L1 0L1 0L0 0L0 0L0 0L0 0ZM0 0L1 0L1 0L0 0L0 0L0 0L0 0ZM0 0L1 0L1 0L0 0L0 0L0 0L0 0ZM0 0L0 0L0 0L1 0L1 0L1 0L0 0ZM1 0L0 0L0 0L1 0L1 0L1 0L1 0ZM1 0L0 0L0 0L0 0L1 0L1 0L1 0ZM0 0L0 0L0 0L0 0L1 0L1 0L0 0ZM0 0L0 0L0 0L0 0L1 0L1 0L0 0ZM0 4L0 3L0 3L0 4L0 4L0 4L0 4ZM0 4L0 4L0 4L0 4L0 4L0 4L0 4ZM0 4L0 4L0 4L0 4L0 4L0 4L0 4ZM0 4L0 4L0 4L0 4L0 3L0 3L0 4ZM0 4L0 4L0 4L0 4L0 3L0 3L0 4ZM0 4L0 4L0 4L0 4L1 3L0 3L0 4ZM0 4L0 4L0 4L0 4L1 4L1 4L0 4ZM0 4L0 4L0 4L0 4L0 4L1 4L0 4Z" fill="var(--stroke-0,white)" mask="url(#path-1-inside-1_0_92)"/></g></svg>