<svg preserveAspectRatio="none" width="100%" height="100%" overflow="visible" style="display: block;" viewBox="0 0 12.4418 30.4331" fill="none" xmlns="http://www.w3.org/2000/svg">
<g id="MW">
<mask id="path-1-inside-1_0_76" fill="white">
<path d="M8.83881 8.49471L8.3257 8.48513L7.68051 8.53586L7.52231 8.65931L7.47412 8.93227L7.27193 9.49466L7.15908 9.70178L6.92112 10.0804L6.58543 10.614L6.51531 10.7881L6.52631 10.9678L6.72439 11.6934L6.93212 12.4561L6.9982 12.7551L7.14539 13.7701L7.22793 14.4889L7.24027 14.9114L7.31047 15.4765L7.49477 15.7824L7.68873 15.9744L8.41789 16.0896L8.63528 16.2309L9.04797 16.5917L9.95043 17.5902L10.4457 18.2281L10.8818 18.7891L11.6604 19.8329L12.2657 20.6449L12.3414 21.4076L12.4418 21.5187L12.2382 22.0852L12.1047 23.0001L12.201 23.6077L12.1612 24.6461L12.0497 25.753L11.9108 26.1494L11.7319 26.2989L11.3082 26.4183L10.3782 26.5568L10.2393 26.6871L10.1196 26.9025L9.93112 27.4141L9.70962 27.9298L9.63951 28.1507L9.68216 28.2028L9.88158 28.4662L10.0797 29.1396L10.1155 30.296L10.0467 30.3824L9.77159 30.4332L9.47578 30.418L9.35335 30.3522L9.24327 30.2233L9.16351 29.9764L9.35747 29.8049L9.42624 29.5031L9.30247 29.2453L9.05343 29.1877L8.73705 28.9503L8.06297 28.1781L7.49889 27.6363L7.17151 27.1878L6.83724 27.0095L6.74093 26.8997L6.65974 26.7104L6.65839 26.4375L6.68862 26.2372L6.58408 26.0109L6.2457 25.6625L6.09162 25.4691L6.08331 25.2386L6.22639 25.0164L6.51531 24.7449L6.73405 24.1948L6.81247 23.8395L7.22105 23.1249L7.27747 22.5049L7.2857 22.0097L7.26093 21.6394L7.15639 20.8808L7.08343 20.3569L6.57997 19.6711L6.41624 19.6066L5.93889 19.667L5.5262 19.7671L5.32393 19.9097L5.0172 19.9166L4.21239 20.0359L3.95923 20.0867L3.81347 20.2101L3.72816 20.2362L3.22185 19.7067L2.7775 19.1347L2.21216 18.1636L2.0512 18.047L1.84481 17.7617L1.67285 17.833L1.43623 18.0333L1.30827 18.0882L1.24227 18.0827L1.19962 18.0319L1.14731 17.9044L0.964345 17.5381L0.759385 17.2761L0.541998 17.1746L0.364579 17.0539L0.443003 16.9373L0.525541 16.8536L0.489772 16.7672L0.390692 16.641L0.00554173 16.4586L0 16.3804L0.339809 16.2227L0.554425 16.0348L0.700274 15.8551L0.884578 15.4614L1.03454 15.0691L1.14731 14.9416L1.18585 14.6823L1.15973 14.3901L1.23539 14.017L1.27116 13.6645L1.15696 13.5274L1.06065 13.2901L1.17485 12.8868L1.35369 12.6083L2.21073 12.3189L2.80781 12.0569L2.93435 11.9431L3.13662 11.7195L3.24939 11.5014L3.16828 11.437L2.69916 11.4314L2.58354 11.3478L2.24516 10.581L2.43223 9.70317L2.44877 9.35887L2.44466 8.93089L2.38546 8.61954L2.23693 8.48923L2.14608 8.32187L2.17085 7.86514L2.30847 7.81026L2.60554 7.20673L2.73762 6.85146L2.57942 6.56752L2.40469 6.16291L2.32492 5.90501L2.28093 5.81999L2.40201 5.66088L2.60285 5.50721L2.82847 5.46473L3.06643 5.39202L3.81615 4.6431L3.82581 4.49768L3.68962 4.24669L3.40901 3.86811L3.34704 3.71448L3.31404 3.25909L3.20262 3.12329L2.79127 2.81738L2.47489 2.49506L2.57397 2.16859L2.62762 1.81199L2.47077 1.61583L2.23827 1.41281L2.09385 1.11653L2.02777 0.895676L1.84481 0.807896L1.67562 0.805175L1.55177 0.94235L1.41835 0.930001L1.25604 0.881988L1.20239 0.691316L1.19273 0.485575L1.08131 0.345679L0.974002 0.150863L0.960231 0.0480133L1.02766 0.0178323L1.16939 0L1.77327 0.39093L2.13919 0.408762L2.54643 0.481473L2.89446 0.825728L3.07465 0.871021L3.30447 0.823007L3.962 0.787343L4.22616 0.836696L4.56597 1.03833L4.69939 1.06579L4.91258 1.074L4.94978 1.01916L4.97177 0.89982L4.93466 0.658414L4.98277 0.528104L5.11208 0.386827L5.47112 0.55142L6.36812 1.3031L6.39558 1.40046L6.96789 2.14666L7.15362 2.46216V2.62947L7.3297 3.2824L7.36824 3.58827L7.32835 3.82147L7.33524 4.008L7.40401 4.2741L7.38058 4.38658L7.5842 4.77751L7.68185 5.1067L7.7025 5.42768L7.64474 5.7418L7.46455 6.19857L7.43423 6.38234L7.47412 6.54969L7.59108 6.73212L7.78504 6.92827L7.93089 7.1642L8.02997 7.44265L8.11385 7.56886L8.21839 7.56609L8.41101 7.60862L8.56508 7.77183L8.74393 8.0448L8.80304 8.35892L8.83881 8.49471ZM7.61174 10.1983L7.53466 10.4054L7.37512 10.4027L7.22516 10.2189L7.27327 10.0763L7.41778 10.0324L7.54431 10.0858L7.61174 10.1983ZM7.91166 10.5769L7.77547 10.6085L7.69016 10.5385L7.71073 10.33L7.75893 10.1791L7.89378 10.1558L7.98732 10.1956L8.05197 10.2642L8.05331 10.3753L8.01343 10.4891L7.91166 10.5769Z"/>
</mask>
<path d="M8.83881 8.49471L8.3257 8.48513L7.68051 8.53586L7.52231 8.65931L7.47412 8.93227L7.27193 9.49466L7.15908 9.70178L6.92112 10.0804L6.58543 10.614L6.51531 10.7881L6.52631 10.9678L6.72439 11.6934L6.93212 12.4561L6.9982 12.7551L7.14539 13.7701L7.22793 14.4889L7.24027 14.9114L7.31047 15.4765L7.49477 15.7824L7.68873 15.9744L8.41789 16.0896L8.63528 16.2309L9.04797 16.5917L9.95043 17.5902L10.4457 18.2281L10.8818 18.7891L11.6604 19.8329L12.2657 20.6449L12.3414 21.4076L12.4418 21.5187L12.2382 22.0852L12.1047 23.0001L12.201 23.6077L12.1612 24.6461L12.0497 25.753L11.9108 26.1494L11.7319 26.2989L11.3082 26.4183L10.3782 26.5568L10.2393 26.6871L10.1196 26.9025L9.93112 27.4141L9.70962 27.9298L9.63951 28.1507L9.68216 28.2028L9.88158 28.4662L10.0797 29.1396L10.1155 30.296L10.0467 30.3824L9.77159 30.4332L9.47578 30.418L9.35335 30.3522L9.24327 30.2233L9.16351 29.9764L9.35747 29.8049L9.42624 29.5031L9.30247 29.2453L9.05343 29.1877L8.73705 28.9503L8.06297 28.1781L7.49889 27.6363L7.17151 27.1878L6.83724 27.0095L6.74093 26.8997L6.65974 26.7104L6.65839 26.4375L6.68862 26.2372L6.58408 26.0109L6.2457 25.6625L6.09162 25.4691L6.08331 25.2386L6.22639 25.0164L6.51531 24.7449L6.73405 24.1948L6.81247 23.8395L7.22105 23.1249L7.27747 22.5049L7.2857 22.0097L7.26093 21.6394L7.15639 20.8808L7.08343 20.3569L6.57997 19.6711L6.41624 19.6066L5.93889 19.667L5.5262 19.7671L5.32393 19.9097L5.0172 19.9166L4.21239 20.0359L3.95923 20.0867L3.81347 20.2101L3.72816 20.2362L3.22185 19.7067L2.7775 19.1347L2.21216 18.1636L2.0512 18.047L1.84481 17.7617L1.67285 17.833L1.43623 18.0333L1.30827 18.0882L1.24227 18.0827L1.19962 18.0319L1.14731 17.9044L0.964345 17.5381L0.759385 17.2761L0.541998 17.1746L0.364579 17.0539L0.443003 16.9373L0.525541 16.8536L0.489772 16.7672L0.390692 16.641L0.00554173 16.4586L0 16.3804L0.339809 16.2227L0.554425 16.0348L0.700274 15.8551L0.884578 15.4614L1.03454 15.0691L1.14731 14.9416L1.18585 14.6823L1.15973 14.3901L1.23539 14.017L1.27116 13.6645L1.15696 13.5274L1.06065 13.2901L1.17485 12.8868L1.35369 12.6083L2.21073 12.3189L2.80781 12.0569L2.93435 11.9431L3.13662 11.7195L3.24939 11.5014L3.16828 11.437L2.69916 11.4314L2.58354 11.3478L2.24516 10.581L2.43223 9.70317L2.44877 9.35887L2.44466 8.93089L2.38546 8.61954L2.23693 8.48923L2.14608 8.32187L2.17085 7.86514L2.30847 7.81026L2.60554 7.20673L2.73762 6.85146L2.57942 6.56752L2.40469 6.16291L2.32492 5.90501L2.28093 5.81999L2.40201 5.66088L2.60285 5.50721L2.82847 5.46473L3.06643 5.39202L3.81615 4.6431L3.82581 4.49768L3.68962 4.24669L3.40901 3.86811L3.34704 3.71448L3.31404 3.25909L3.20262 3.12329L2.79127 2.81738L2.47489 2.49506L2.57397 2.16859L2.62762 1.81199L2.47077 1.61583L2.23827 1.41281L2.09385 1.11653L2.02777 0.895676L1.84481 0.807896L1.67562 0.805175L1.55177 0.94235L1.41835 0.930001L1.25604 0.881988L1.20239 0.691316L1.19273 0.485575L1.08131 0.345679L0.974002 0.150863L0.960231 0.0480133L1.02766 0.0178323L1.16939 0L1.77327 0.39093L2.13919 0.408762L2.54643 0.481473L2.89446 0.825728L3.07465 0.871021L3.30447 0.823007L3.962 0.787343L4.22616 0.836696L4.56597 1.03833L4.69939 1.06579L4.91258 1.074L4.94978 1.01916L4.97177 0.89982L4.93466 0.658414L4.98277 0.528104L5.11208 0.386827L5.47112 0.55142L6.36812 1.3031L6.39558 1.40046L6.96789 2.14666L7.15362 2.46216V2.62947L7.3297 3.2824L7.36824 3.58827L7.32835 3.82147L7.33524 4.008L7.40401 4.2741L7.38058 4.38658L7.5842 4.77751L7.68185 5.1067L7.7025 5.42768L7.64474 5.7418L7.46455 6.19857L7.43423 6.38234L7.47412 6.54969L7.59108 6.73212L7.78504 6.92827L7.93089 7.1642L8.02997 7.44265L8.11385 7.56886L8.21839 7.56609L8.41101 7.60862L8.56508 7.77183L8.74393 8.0448L8.80304 8.35892L8.83881 8.49471ZM7.61174 10.1983L7.53466 10.4054L7.37512 10.4027L7.22516 10.2189L7.27327 10.0763L7.41778 10.0324L7.54431 10.0858L7.61174 10.1983ZM7.91166 10.5769L7.77547 10.6085L7.69016 10.5385L7.71073 10.33L7.75893 10.1791L7.89378 10.1558L7.98732 10.1956L8.05197 10.2642L8.05331 10.3753L8.01343 10.4891L7.91166 10.5769Z" fill="var(--fill-0, #71B219)" stroke="var(--stroke-0, white)" mask="url(#path-1-inside-1_0_76)"/>
</g>
</svg>
