<svg preserveAspectRatio="none" width="100%" height="100%" overflow="visible" style="display: block;" viewBox="0 0 12 30" fill="none" xmlns="http://www.w3.org/2000/svg"><g id="MW"><mask id="path-1-inside-1_0_76" fill="white"><path d="M9 8L8 8L8 8L8 9L8 9L7 10L7 10L7 10L7 11L6 11L6 11L7 12L7 12L7 13L7 14L7 14L7 15L7 16L8 16L8 16L8 16L9 16L9 17L10 18L10 18L11 19L12 20L12 21L12 21L12 22L12 22L12 23L12 24L12 25L12 26L12 26L12 26L11 26L10 27L10 27L10 27L10 27L10 28L10 28L10 28L10 28L10 29L10 30L10 30L10 30L10 30L9 30L9 30L9 30L9 30L9 30L9 29L9 29L9 29L8 28L8 28L7 27L7 27L7 27L7 27L7 26L7 26L7 26L6 26L6 26L6 25L6 25L6 25L7 24L7 24L7 23L7 22L7 22L7 22L7 21L7 20L7 20L6 20L6 20L6 20L5 20L5 20L4 20L4 20L4 20L4 20L3 20L3 19L2 18L2 18L2 18L2 18L1 18L1 18L1 18L1 18L1 18L1 18L1 17L0 17L0 17L0 17L0 17L0 17L0 17L0 16L0 16L0 16L1 16L1 16L1 16L1 15L1 15L1 15L1 14L1 14L1 14L1 14L1 13L1 13L1 13L2 12L3 12L3 12L3 12L3 12L3 11L3 11L3 11L2 11L2 10L2 9L2 9L2 9L2 8L2 8L2 8L2 8L3 7L3 7L3 7L2 6L2 6L2 6L2 6L3 6L3 6L3 5L4 5L4 4L4 4L3 4L3 4L3 3L3 3L3 3L2 2L3 2L3 2L2 2L2 1L2 1L2 1L2 1L2 1L2 1L1 1L1 1L1 1L1 0L1 0L1 0L1 0L1 0L1 0L2 0L2 0L2 0L3 1L3 1L3 1L4 1L4 1L5 1L5 1L5 1L5 1L5 1L5 1L5 0L5 0L6 1L6 1L6 1L7 2L7 2V3L7 3L7 4L7 4L7 4L7 4L7 4L8 5L8 5L8 5L8 6L8 6L7 6L8 6L8 7L8 7L8 7L8 7L8 8L8 8L8 8L9 8L9 8L9 8L9 8ZM8 10L8 10L7 10L7 10L7 10L7 10L8 10L8 10ZM8 11L8 11L8 10L8 10L8 10L8 10L8 10L8 10L8 10L8 10L8 11Z"/></mask><path d="M9 8L8 8L8 8L8 9L8 9L7 10L7 10L7 10L7 11L6 11L6 11L7 12L7 12L7 13L7 14L7 14L7 15L7 16L8 16L8 16L8 16L9 16L9 17L10 18L10 18L11 19L12 20L12 21L12 21L12 22L12 22L12 23L12 24L12 25L12 26L12 26L12 26L11 26L10 27L10 27L10 27L10 27L10 28L10 28L10 28L10 28L10 29L10 30L10 30L10 30L10 30L9 30L9 30L9 30L9 30L9 30L9 29L9 29L9 29L8 28L8 28L7 27L7 27L7 27L7 27L7 26L7 26L7 26L6 26L6 26L6 25L6 25L6 25L7 24L7 24L7 23L7 22L7 22L7 22L7 21L7 20L7 20L6 20L6 20L6 20L5 20L5 20L4 20L4 20L4 20L4 20L3 20L3 19L2 18L2 18L2 18L2 18L1 18L1 18L1 18L1 18L1 18L1 18L1 17L0 17L0 17L0 17L0 17L0 17L0 17L0 16L0 16L0 16L1 16L1 16L1 16L1 15L1 15L1 15L1 14L1 14L1 14L1 14L1 13L1 13L1 13L2 12L3 12L3 12L3 12L3 12L3 11L3 11L3 11L2 11L2 10L2 9L2 9L2 9L2 8L2 8L2 8L2 8L3 7L3 7L3 7L2 6L2 6L2 6L2 6L3 6L3 6L3 5L4 5L4 4L4 4L3 4L3 4L3 3L3 3L3 3L2 2L3 2L3 2L2 2L2 1L2 1L2 1L2 1L2 1L2 1L1 1L1 1L1 1L1 0L1 0L1 0L1 0L1 0L1 0L2 0L2 0L2 0L3 1L3 1L3 1L4 1L4 1L5 1L5 1L5 1L5 1L5 1L5 1L5 0L5 0L6 1L6 1L6 1L7 2L7 2V3L7 3L7 4L7 4L7 4L7 4L7 4L8 5L8 5L8 5L8 6L8 6L7 6L8 6L8 7L8 7L8 7L8 7L8 8L8 8L8 8L9 8L9 8L9 8L9 8ZM8 10L8 10L7 10L7 10L7 10L7 10L8 10L8 10ZM8 11L8 11L8 10L8 10L8 10L8 10L8 10L8 10L8 10L8 10L8 11Z" fill="var(--fill-0,#71B219)" stroke="var(--stroke-0,white)" mask="url(#path-1-inside-1_0_76)"/></g></svg>