<svg preserveAspectRatio="none" width="100%" height="100%" overflow="visible" style="display: block;" viewBox="0 0 122 76" fill="none" xmlns="http://www.w3.org/2000/svg"><g id="MX"><mask id="path-1-inside-1_0_75" fill="white"><path d="M82 30L82 31L82 31L81 33L81 34L80 36L80 38L80 39L80 39L80 39L80 41L80 42L80 43L80 43L79 44L79 44L79 44L80 45L80 46L80 47L81 48L81 48L81 48L81 49L81 49L81 49L81 49L81 48L81 48L81 48L81 48L80 47L80 46L80 48L80 48L80 48L81 48L81 49L81 49L81 50L82 51L82 52L82 52L84 54L85 55L85 56L85 57L85 57L86 58L86 58L86 58L87 59L87 59L87 59L87 59L87 59L87 60L88 60H88L88 60L88 60L88 60L88 60L90 60L90 60L91 60L92 61L92 62L92 62L93 62L94 62L95 61L95 61L96 61L97 61L98 61L98 61L99 60L99 60L99 60L100 60L100 60L101 60L102 60L102 60L102 60V60L102 60L102 60L103 61L104 61L104 61L104 60L105 60L105 60L105 60L104 60L104 59L104 59L104 59L104 59H104L104 59L104 59L105 58L106 58L106 58L107 57L107 56L107 55L108 55L108 55L108 54L108 54L108 53L108 52L108 52L108 51L108 50L109 50L110 49L110 49L114 49L114 49L115 48L116 48L116 48L117 48L117 48L117 48L117 48L117 48L118 48L119 48L119 48L120 49L120 48L120 48L121 48L120 48L120 48L120 48L120 48L120 48L120 48L120 48L120 48L121 48L121 48L122 48L122 49L122 50L122 50L122 50L122 50L122 51L122 51L121 52L120 52L120 54L119 54L119 54L120 55L120 55L119 55L119 55L119 55L119 56L119 56L119 56L119 56L119 56L119 56L120 56L120 56L119 57L119 57L119 57L119 57L119 57L119 58L119 58L119 57L119 57L119 57L119 58L119 59L118 60L118 61L118 61L118 62L118 62L118 61L117 61L117 60L117 60L117 59L117 59L117 60L117 60L117 60L116 60L116 61L116 61L116 61L115 61L115 61L114 62L114 63L114 63L114 63L114 63L113 63L113 63L113 63L113 63H112L111 63L109 63L107 63L106 63L106 64L106 65L106 66L105 66L104 66L104 66L105 66L105 66L105 67L106 67L106 68L107 68L107 68L107 68V69L107 69L108 69L108 69V69L108 70L108 70L108 70L108 70H107L106 70H105H104L103 70L103 71L102 72L102 73L101 73L101 74V74L102 74L102 74L101 75L101 75L101 75L101 75L101 76L101 76L101 76L101 76L101 76L101 76L100 75L99 74L98 74L98 73L97 73L96 72L95 71L94 70L94 70L93 70L93 70L93 70L93 70L93 70L93 70L93 70L93 70L94 70L94 70L94 70L92 70L92 70L92 70L92 69L92 69L92 69L91 70L91 70L91 69L91 69L91 69L91 69L91 69L90 69L90 70L91 70L91 70L91 70L90 70L90 70L88 71L87 71L86 72L85 72L84 72L83 72L82 71L80 71L78 70L77 69L76 68L75 68L75 68L74 68L72 68L71 67L70 67L69 66L68 66L67 66L67 65L66 65L65 64L65 64L64 63L64 63L64 63L63 63L62 63L61 62L61 62L59 62L58 61L57 61L57 60L56 59L55 59L54 58L54 58L53 58L52 57L52 57L51 56L51 56L50 55L50 54L50 54L49 53L49 53L49 53L50 52L50 52L51 52L51 52L51 52L50 51L50 51L50 51L50 51L50 51L50 51L51 50L51 50L51 49L51 49L51 48L50 48L50 48L50 47L49 46L49 45L49 44L48 43L48 43L47 42L46 41L46 40L45 40L44 38L44 38L41 36H41L42 36L42 36L42 36L42 36L42 36L42 36L41 36L41 36L41 36L40 35L40 35L40 35L39 34L39 33L39 34L39 34L40 34L40 34L40 34L40 34L40 33L39 33L38 33L38 32L37 32L37 32L37 32L37 32L36 32L36 32L36 31L36 31L37 31L37 31L36 31L36 31L36 31L36 31L35 31L35 31L35 31L35 29L35 29L35 28L36 28L36 28L36 28L36 28L36 28L35 28L35 28L35 27L34 26L34 27L33 26L33 26L33 26L33 25L33 25L33 25L31 25L31 24L31 24L30 24L30 23L30 23L30 22L30 22L30 22L30 21L29 21L29 21L29 21L28 21L28 20L27 19L26 19L26 18L25 18L25 18L25 18L25 17L24 17L24 16L24 16L24 15L24 15L23 15L23 15L23 15L23 14L22 13L22 13L22 13L22 12L22 12L22 11L21 10L21 9L20 9L20 8L20 8L20 8L20 7L21 8L21 7L21 7L20 7L20 7L20 7L19 6L18 6L18 6L18 5L18 5L17 5L17 5L17 5L17 6L16 6L16 5L15 4L15 4L14 4L14 4L13 4L14 4L14 4L14 5L14 5L14 7L14 7L14 8L14 9L14 9L14 10L14 11L15 12L15 12L15 13L16 13L16 13L17 14L18 15L18 15L19 16L19 16L19 17L19 17L20 17L20 17L20 17L20 17L20 18L20 19L21 19L21 19L21 19L21 19L21 20L22 20L22 20L22 21L22 21L22 22L23 22L23 23L24 24L24 24L24 25L25 25L25 25L25 25L25 26L25 27L26 27L26 27L26 27L26 27L25 26L25 26L26 26L26 26L26 27L27 27L27 28L27 28L27 28L27 29L27 30L27 30L28 31L28 32L28 32L29 33L30 34L30 34L30 35L30 35L30 36L30 37L30 37L31 37L31 37L31 37L31 38L31 37L31 37L31 37L31 37L31 37L31 36L32 37L32 38L33 38L33 38L33 39L34 39L34 39L34 40L35 40L35 40L34 41L34 42L34 42L34 42L33 42L33 43L32 43L32 42L32 41L32 40L31 40L31 40L30 39L30 38L29 38L28 38L27 37L26 36L26 36L26 36L26 36L25 36L25 35L25 35L24 34L24 34L24 34L24 32L24 32L24 31L24 31L24 31L24 30L24 30L23 29L23 28L22 28L21 27L20 26L20 26L20 26L20 26L20 26L19 26L18 26L18 26L18 26L18 25L17 25L17 25L17 25L16 25L16 25L15 24L15 24L15 24L15 23L14 23L14 22L13 22L13 22L13 22L14 22L15 22L15 22L16 22L16 22L16 22L16 22L16 22L16 22L17 22L16 22L16 22L16 22L16 21L16 21L16 21L16 21L17 20L17 19L16 18L16 18L14 16L14 15L13 15L13 15L12 15L12 14L11 14L10 13L10 12L10 12L10 12L10 11L10 11L9 10L9 10L9 9L9 9L8 8L8 8V7L8 7L8 6L7 6L7 5L7 5L6 4L7 4L7 4L7 4L7 4L6 3L6 2L5 2L5 2L5 1L6 1L7 1L8 0L9 0L10 0L12 0L13 0L14 0L14 0L14 1L14 1L16 2L17 2L19 3L21 4L23 4L25 5L27 6L28 6L30 6L31 6L32 6L34 6L35 6L37 6L38 6L39 6L39 6L39 5L39 5L39 4L40 4L41 4L42 4L43 4L44 4L44 4L45 4L46 4L46 4L46 4L46 5L47 5L47 6L48 6L49 7L50 8L51 9L51 9L52 9L52 10L52 10L53 12V12L53 13L54 14L54 14L54 14L55 14L55 15L56 15L56 15L57 16L58 16L58 17L59 17L59 16L59 16L60 16L60 16L60 16L60 15L60 15L60 14L61 13L62 13L62 13L62 13L62 13L63 13L63 13L64 13L65 13L65 13L65 13L65 13L65 13L66 13L66 13L66 14L67 15L67 15L68 15L68 16L68 16L69 17L69 17L70 18L70 19L70 19L70 19L70 20L70 20L71 20L71 21L72 22L72 22L73 22L73 23L73 23L73 24L73 24L73 24L73 24L73 24L73 25L73 25L73 25L74 26L74 26L74 27L74 27L74 28L75 28L75 28L76 28L76 28L76 28L77 29L77 29L78 29L78 29L80 29L80 30L81 30L81 30L81 30L81 30L81 30L82 30L82 30ZM14 5L14 5L14 4L14 4L14 4L14 4L14 4L14 5ZM20 16L20 16L20 16L19 15L19 15L19 15L19 14L19 14L19 14L19 15L19 15L20 15L20 16L20 16ZM24 17L24 18L23 18L23 17L23 17L23 16L23 16L24 16L24 16L24 16L24 17ZM1 17L0 17L0 16L0 16L0 16L0 16V16L0 16L1 16L1 17ZM12 21L12 21L12 20L12 20L12 20L12 19L12 20L13 20L12 21ZM28 30L28 30L28 30L28 30L28 30L28 30L28 29L28 29L28 29L28 30ZM24 36L24 36L24 35L24 35L24 35L24 35L24 34L24 33L24 33L24 34L24 34L24 35L24 35L24 35L24 36L24 36ZM30 34L30 34L30 34L30 34L30 34L30 33L30 33L30 34L30 34ZM26 36L26 36L25 36L25 36L25 36L26 36ZM33 37L33 37L33 37L33 37L33 36L33 37L33 37L33 37ZM46 48L46 48L46 48L45 48L45 48L46 48L46 48L46 48L46 48ZM122 49L122 50L122 50L122 50L122 49L122 49L122 49L122 49ZM122 53L121 53L121 53L121 52L122 52L122 52L122 52L122 52L122 53L122 53ZM29 60L29 60L28 59L28 59L29 59L29 59L29 60ZM103 60L103 60L103 60L104 60L104 60L104 60L103 60L103 60Z"/></mask><path d="M82 30L82 31L82 31L81 33L81 34L80 36L80 38L80 39L80 39L80 39L80 41L80 42L80 43L80 43L79 44L79 44L79 44L80 45L80 46L80 47L81 48L81 48L81 48L81 49L81 49L81 49L81 49L81 48L81 48L81 48L81 48L80 47L80 46L80 48L80 48L80 48L81 48L81 49L81 49L81 50L82 51L82 52L82 52L84 54L85 55L85 56L85 57L85 57L86 58L86 58L86 58L87 59L87 59L87 59L87 59L87 59L87 60L88 60H88L88 60L88 60L88 60L88 60L90 60L90 60L91 60L92 61L92 62L92 62L93 62L94 62L95 61L95 61L96 61L97 61L98 61L98 61L99 60L99 60L99 60L100 60L100 60L101 60L102 60L102 60L102 60V60L102 60L102 60L103 61L104 61L104 61L104 60L105 60L105 60L105 60L104 60L104 59L104 59L104 59L104 59H104L104 59L104 59L105 58L106 58L106 58L107 57L107 56L107 55L108 55L108 55L108 54L108 54L108 53L108 52L108 52L108 51L108 50L109 50L110 49L110 49L114 49L114 49L115 48L116 48L116 48L117 48L117 48L117 48L117 48L117 48L118 48L119 48L119 48L120 49L120 48L120 48L121 48L120 48L120 48L120 48L120 48L120 48L120 48L120 48L120 48L121 48L121 48L122 48L122 49L122 50L122 50L122 50L122 50L122 51L122 51L121 52L120 52L120 54L119 54L119 54L120 55L120 55L119 55L119 55L119 55L119 56L119 56L119 56L119 56L119 56L119 56L120 56L120 56L119 57L119 57L119 57L119 57L119 57L119 58L119 58L119 57L119 57L119 57L119 58L119 59L118 60L118 61L118 61L118 62L118 62L118 61L117 61L117 60L117 60L117 59L117 59L117 60L117 60L117 60L116 60L116 61L116 61L116 61L115 61L115 61L114 62L114 63L114 63L114 63L114 63L113 63L113 63L113 63L113 63H112L111 63L109 63L107 63L106 63L106 64L106 65L106 66L105 66L104 66L104 66L105 66L105 66L105 67L106 67L106 68L107 68L107 68L107 68V69L107 69L108 69L108 69V69L108 70L108 70L108 70L108 70H107L106 70H105H104L103 70L103 71L102 72L102 73L101 73L101 74V74L102 74L102 74L101 75L101 75L101 75L101 75L101 76L101 76L101 76L101 76L101 76L101 76L100 75L99 74L98 74L98 73L97 73L96 72L95 71L94 70L94 70L93 70L93 70L93 70L93 70L93 70L93 70L93 70L93 70L94 70L94 70L94 70L92 70L92 70L92 70L92 69L92 69L92 69L91 70L91 70L91 69L91 69L91 69L91 69L91 69L90 69L90 70L91 70L91 70L91 70L90 70L90 70L88 71L87 71L86 72L85 72L84 72L83 72L82 71L80 71L78 70L77 69L76 68L75 68L75 68L74 68L72 68L71 67L70 67L69 66L68 66L67 66L67 65L66 65L65 64L65 64L64 63L64 63L64 63L63 63L62 63L61 62L61 62L59 62L58 61L57 61L57 60L56 59L55 59L54 58L54 58L53 58L52 57L52 57L51 56L51 56L50 55L50 54L50 54L49 53L49 53L49 53L50 52L50 52L51 52L51 52L51 52L50 51L50 51L50 51L50 51L50 51L50 51L51 50L51 50L51 49L51 49L51 48L50 48L50 48L50 47L49 46L49 45L49 44L48 43L48 43L47 42L46 41L46 40L45 40L44 38L44 38L41 36H41L42 36L42 36L42 36L42 36L42 36L42 36L41 36L41 36L41 36L40 35L40 35L40 35L39 34L39 33L39 34L39 34L40 34L40 34L40 34L40 34L40 33L39 33L38 33L38 32L37 32L37 32L37 32L37 32L36 32L36 32L36 31L36 31L37 31L37 31L36 31L36 31L36 31L36 31L35 31L35 31L35 31L35 29L35 29L35 28L36 28L36 28L36 28L36 28L36 28L35 28L35 28L35 27L34 26L34 27L33 26L33 26L33 26L33 25L33 25L33 25L31 25L31 24L31 24L30 24L30 23L30 23L30 22L30 22L30 22L30 21L29 21L29 21L29 21L28 21L28 20L27 19L26 19L26 18L25 18L25 18L25 18L25 17L24 17L24 16L24 16L24 15L24 15L23 15L23 15L23 15L23 14L22 13L22 13L22 13L22 12L22 12L22 11L21 10L21 9L20 9L20 8L20 8L20 8L20 7L21 8L21 7L21 7L20 7L20 7L20 7L19 6L18 6L18 6L18 5L18 5L17 5L17 5L17 5L17 6L16 6L16 5L15 4L15 4L14 4L14 4L13 4L14 4L14 4L14 5L14 5L14 7L14 7L14 8L14 9L14 9L14 10L14 11L15 12L15 12L15 13L16 13L16 13L17 14L18 15L18 15L19 16L19 16L19 17L19 17L20 17L20 17L20 17L20 17L20 18L20 19L21 19L21 19L21 19L21 19L21 20L22 20L22 20L22 21L22 21L22 22L23 22L23 23L24 24L24 24L24 25L25 25L25 25L25 25L25 26L25 27L26 27L26 27L26 27L26 27L25 26L25 26L26 26L26 26L26 27L27 27L27 28L27 28L27 28L27 29L27 30L27 30L28 31L28 32L28 32L29 33L30 34L30 34L30 35L30 35L30 36L30 37L30 37L31 37L31 37L31 37L31 38L31 37L31 37L31 37L31 37L31 37L31 36L32 37L32 38L33 38L33 38L33 39L34 39L34 39L34 40L35 40L35 40L34 41L34 42L34 42L34 42L33 42L33 43L32 43L32 42L32 41L32 40L31 40L31 40L30 39L30 38L29 38L28 38L27 37L26 36L26 36L26 36L26 36L25 36L25 35L25 35L24 34L24 34L24 34L24 32L24 32L24 31L24 31L24 31L24 30L24 30L23 29L23 28L22 28L21 27L20 26L20 26L20 26L20 26L20 26L19 26L18 26L18 26L18 26L18 25L17 25L17 25L17 25L16 25L16 25L15 24L15 24L15 24L15 23L14 23L14 22L13 22L13 22L13 22L14 22L15 22L15 22L16 22L16 22L16 22L16 22L16 22L16 22L17 22L16 22L16 22L16 22L16 21L16 21L16 21L16 21L17 20L17 19L16 18L16 18L14 16L14 15L13 15L13 15L12 15L12 14L11 14L10 13L10 12L10 12L10 12L10 11L10 11L9 10L9 10L9 9L9 9L8 8L8 8V7L8 7L8 6L7 6L7 5L7 5L6 4L7 4L7 4L7 4L7 4L6 3L6 2L5 2L5 2L5 1L6 1L7 1L8 0L9 0L10 0L12 0L13 0L14 0L14 0L14 1L14 1L16 2L17 2L19 3L21 4L23 4L25 5L27 6L28 6L30 6L31 6L32 6L34 6L35 6L37 6L38 6L39 6L39 6L39 5L39 5L39 4L40 4L41 4L42 4L43 4L44 4L44 4L45 4L46 4L46 4L46 4L46 5L47 5L47 6L48 6L49 7L50 8L51 9L51 9L52 9L52 10L52 10L53 12V12L53 13L54 14L54 14L54 14L55 14L55 15L56 15L56 15L57 16L58 16L58 17L59 17L59 16L59 16L60 16L60 16L60 16L60 15L60 15L60 14L61 13L62 13L62 13L62 13L62 13L63 13L63 13L64 13L65 13L65 13L65 13L65 13L65 13L66 13L66 13L66 14L67 15L67 15L68 15L68 16L68 16L69 17L69 17L70 18L70 19L70 19L70 19L70 20L70 20L71 20L71 21L72 22L72 22L73 22L73 23L73 23L73 24L73 24L73 24L73 24L73 24L73 25L73 25L73 25L74 26L74 26L74 27L74 27L74 28L75 28L75 28L76 28L76 28L76 28L77 29L77 29L78 29L78 29L80 29L80 30L81 30L81 30L81 30L81 30L81 30L82 30L82 30ZM14 5L14 5L14 4L14 4L14 4L14 4L14 4L14 5ZM20 16L20 16L20 16L19 15L19 15L19 15L19 14L19 14L19 14L19 15L19 15L20 15L20 16L20 16ZM24 17L24 18L23 18L23 17L23 17L23 16L23 16L24 16L24 16L24 16L24 17ZM1 17L0 17L0 16L0 16L0 16L0 16V16L0 16L1 16L1 17ZM12 21L12 21L12 20L12 20L12 20L12 19L12 20L13 20L12 21ZM28 30L28 30L28 30L28 30L28 30L28 30L28 29L28 29L28 29L28 30ZM24 36L24 36L24 35L24 35L24 35L24 35L24 34L24 33L24 33L24 34L24 34L24 35L24 35L24 35L24 36L24 36ZM30 34L30 34L30 34L30 34L30 34L30 33L30 33L30 34L30 34ZM26 36L26 36L25 36L25 36L25 36L26 36ZM33 37L33 37L33 37L33 37L33 36L33 37L33 37L33 37ZM46 48L46 48L46 48L45 48L45 48L46 48L46 48L46 48L46 48ZM122 49L122 50L122 50L122 50L122 49L122 49L122 49L122 49ZM122 53L121 53L121 53L121 52L122 52L122 52L122 52L122 52L122 53L122 53ZM29 60L29 60L28 59L28 59L29 59L29 59L29 60ZM103 60L103 60L103 60L104 60L104 60L104 60L103 60L103 60Z" fill="var(--fill-0,#71B219)" stroke="var(--stroke-0,white)" mask="url(#path-1-inside-1_0_75)"/></g></svg>