<svg preserveAspectRatio="none" width="100%" height="100%" overflow="visible" style="display: block;" viewBox="0 0 122.409 76.3743" fill="none" xmlns="http://www.w3.org/2000/svg">
<g id="MX">
<mask id="path-1-inside-1_0_75" fill="white">
<path d="M82.0629 29.7048L81.9927 30.584L81.7588 31.3028L80.9898 32.7965L80.6693 33.721L80.0488 36.3519L79.8576 38.0692L79.8122 38.8757L79.7586 38.9896L79.8164 39.1075L79.6678 40.8866L79.7476 42.4009L79.6967 42.6355L79.4711 43.0909L79.3128 43.7205L79.3747 44.0003L79.372 44.1937L79.6031 45.1497L79.6774 45.8671L80.3666 47.0934L80.7532 47.5213L81.2333 47.8917L81.4094 48.1002L81.3227 48.62L81.1274 48.882L81.0435 49.299L80.9472 48.9547L80.9843 48.5076L81.137 48.2675L81.1425 48.092L80.8605 47.904L80.3446 47.2882L79.7146 46.1963L80.163 47.9397L80.3171 48.2181L80.4368 48.3334L80.6377 48.4554L80.6899 48.6447L80.6913 48.7846L81.2443 49.9917L81.8703 51.2372L81.9033 51.5774L82.1536 51.9957L83.7481 53.7377L84.7234 55.0353L85.0619 56.2643L85.2655 56.647L85.3659 57.171L86.0042 57.7581L86.1996 58.1367L86.5421 58.3465L86.8186 58.9802L87.3386 59.3506L87.2148 59.3574L86.7595 59.1709L86.7898 59.2944L87.1722 59.5564L87.9219 59.8142H88.109L87.8132 59.6798L87.5629 59.4987L87.6509 59.4727L88.1751 59.6976L89.6402 59.7717L90.2854 60.297L91.1218 60.5234L91.5717 61.1941L92.0944 61.8936L92.4287 61.9266L92.6887 61.9293L93.4728 61.8113L94.6917 61.3711L95.1113 61.1557L95.9299 60.8635L97.1831 60.8101L97.571 60.8924L98.5079 60.7099L98.955 60.4863L99.1104 60.2833L99.1834 60.1338L100.051 59.9198L100.223 59.8773L101.102 59.8389L101.528 59.7593L102.027 59.7127L102.387 60.0282V60.1818L102.147 60.3272L102.259 60.4685L102.687 60.7017L103.471 60.7963L103.726 60.7593L104.088 60.415L104.725 60.0817L104.711 59.6935L104.597 59.4809L104.412 59.4672L104.368 59.3478L104.498 59.0625L104.465 58.9665L104.068 59.2409H103.978L104.022 59.1133L104.104 59.0118L105.265 58.4137L105.562 58.1682L105.964 57.9515L106.796 57.1381L106.974 55.6046L107.14 55.3357L107.692 54.8639L107.751 54.7212L107.787 54.4003L107.772 53.5923L107.802 52.9559L107.779 52.2358L107.878 51.5925L107.967 51.4128L108.284 50.3812L108.941 49.9245L110.082 49.3827L110.343 49.2935L113.976 48.7202L114.487 48.5803L115.111 48.2085L115.568 48.0823L116.4 48.092L116.656 48.0426L116.707 47.9918L116.708 47.9411L116.862 47.8903L117.344 47.9397L118.244 48.1646L118.571 48.2209L119.376 48.4815L120.262 48.5857L120.388 48.5405L120.505 48.4609L120.595 48.3087L120.502 48.1756L120.416 48.1852L120.266 48.2566L120.087 48.2634L119.736 48.1537L119.806 48.0618L120.164 48.07L120.394 48.0261L120.734 47.8656L121.095 47.9864L121.571 48.5185L121.91 48.6873L121.937 49.4582L121.988 49.5994L122.112 49.8024L121.943 50.3991L121.753 50.8915L121.515 51.2948L121 51.9299L120.376 52.4374L119.603 53.5635L119.427 54.0902L119.431 54.5127L119.562 54.9201L119.524 55.071L119.429 55.2232L119.273 55.2095L118.967 55.4043L118.574 55.9831L118.566 56.1587L118.737 56.3206L118.962 56.2424L119.253 56.2355L119.417 56.1875L119.589 56.1999L119.551 56.5318L119.366 56.7677L119.249 56.8418L119.04 56.8816L118.806 57.016L118.687 57.1394L118.698 57.5222L118.827 57.5524L119.102 57.267L119.262 57.2807L119.293 57.4014L118.937 58.3795L118.707 59.3821L118.396 59.9624L118.286 60.8059L118.123 61.1653L117.933 61.5205L117.821 61.5014L117.521 60.8279L117.215 60.655L117.147 60.4918L117.322 59.6743L117.242 59.2216L117.08 59.2395L116.876 59.4877L116.605 59.7031L116.611 60.0145L116.3 60.5316L116.223 60.7017L115.927 60.6619L115.583 60.6838L115.345 60.8087L115.101 61.4355L114.493 62.3175L114.251 62.7441L114.053 62.8909L113.898 62.9485L113.724 62.8483L113.309 62.6069L112.988 62.7221L112.877 62.9992L112.881 63.349H112.069L110.691 63.3476L108.936 63.3463L107.244 63.3449L105.827 63.3435L105.821 64.1295L105.817 64.8249L105.813 65.6067L105.031 65.5999L104.205 65.5931L104.271 65.6712L104.554 65.818L104.921 66.1677L105.355 66.7123L105.88 67.1458L106.498 67.4681L106.904 67.7836L107.1 68.0922L107.2 68.3542V68.5709L107.425 68.7424L107.828 68.8562L108.037 69.0496V69.2074L107.909 69.5654L107.872 69.9604L107.922 70.3171L107.633 70.3226H106.933L105.866 70.3239H104.886H104.112L102.945 70.3253L102.624 70.8739L102.092 71.7847L101.609 72.6091L101.204 73.3018L101.138 73.4842V73.6324L101.639 74.2798L101.547 74.4677L101.372 74.5665L101.316 74.7187L101.327 74.9656L101.208 75.2935L101.247 75.5198L101.31 75.7982L101.206 76.0397L101.12 76.2728L101.02 76.3743L100.906 76.2865L99.8767 75.2112L98.8037 74.0274L98.3813 73.6406L97.9728 73.3471L97.4225 72.8011L95.978 71.6009L95.2324 71.0523L94.5308 70.3952L93.9007 70.0304L93.2803 69.7931L93.0038 69.6559L92.7616 69.4762L92.6268 69.4653L92.5594 69.7094L92.7768 69.8315L93.0368 69.9357L93.2417 69.9426L93.4577 70.029L94.0947 70.3623L94.1992 70.5338L92.3874 69.8672L91.6501 69.8054L91.5703 69.7012L91.9376 69.3528L91.8234 69.2266L91.6927 69.2087L91.2979 69.4502L91.1521 69.4666L91.1259 69.3075L91.1438 69.158L90.8893 68.9385L90.7283 68.9467L90.5963 69.1004L90.2524 69.3898L90.2634 69.5036L90.9375 69.6271L91.1699 69.697L91.1163 69.7739L90.5385 69.7725L89.8231 69.9042L88.5493 70.7093L87.3634 71.055L85.6575 71.8286L84.905 71.8684L84.5102 71.9918L83.3629 71.6956L81.9088 70.9686L79.7077 70.7395L78.2247 69.7862L76.7527 69.3939L75.8186 68.4777L75.2559 68.4379L74.8941 68.2911L73.557 67.9591L72.2349 67.7397L70.9459 66.9373L70.1026 66.6821L69.3735 66.3625L67.768 65.8166L67.1724 65.5135L66.6097 65.0444L65.6921 64.5588L65.3 64.1528L64.8626 64.0074L64.2366 63.242L63.9106 62.9197L63.6341 62.7688L63.3383 62.7166L62.484 62.7784L61.2087 62.4396L60.6199 62.3532L59.3887 61.8539L57.7544 61.2956L57.2192 60.6537L56.7611 60.0542L55.9357 59.2642L55.4212 58.9267L54.5284 58.5262L54.0331 58.2011L53.2696 57.9515L51.9737 57.3178L51.5624 56.7746L51.3216 56.2918L50.6324 55.7047L49.8771 54.6087L49.6818 54.2041L49.536 53.5827L49.3613 53.222L49.1549 52.9394L49.2608 52.7337L49.6446 52.4799L50.283 52.4223L50.7342 52.148L50.7934 51.9216L50.7645 51.7818L50.4756 51.4361L50.1165 51.3442L49.8372 51.3387L49.7657 51.207L49.9762 51.063L50.2169 50.7255L50.5719 50.3141L50.8222 49.9341L50.869 49.3978L50.8374 48.8614L50.9323 48.4074L50.0725 47.8835L49.9721 47.6599L49.7011 47.0577L49.2319 46.3582L49.2457 44.9577L48.6803 43.7122L48.0956 43.0922L47.793 42.8755L46.9717 41.9112L46.3237 41.3502L45.6895 40.2927L45.0622 39.6192L44.2643 38.4875L43.6879 37.9224L41.0617 36.0089H41.2089L41.9793 36.4794L42.1086 36.441L42.1265 36.212L42.0384 35.9376L41.8954 35.8718L41.6904 35.9335L41.4139 35.8759L41.2749 35.7854L40.8609 35.7278L40.3422 35.4082L40.1194 35.0762L40.0946 34.6976L39.3503 33.8897L39.0683 33.4384L39.2128 33.4714L39.4109 33.6524L39.6117 33.7046L39.8456 33.7059L40.0148 33.6332L39.9543 33.4988L39.7947 33.3863L38.7106 32.9597L38.353 32.6607L37.4643 32.1614L37.2538 31.9859L37.1135 31.503L36.8961 31.4797L36.7049 31.6142L36.1807 31.7458L36.0473 31.5922L36.028 31.444L36.3981 31.2877L36.7379 30.8309L36.731 30.6718L36.5439 30.8556L36.2605 31.06L35.9689 31.1738L35.5355 31.2685L35.3127 31.1999L35.1187 31.097L34.8064 30.6979L34.6496 29.3975L34.9247 28.9463L35.2466 28.4991L35.5204 28.2343L35.6786 28.4346L35.8409 28.4593L35.7268 28.233L35.4571 28.0217L35.3622 27.8105L35.3526 27.6171L35.2246 27.2577L34.4267 26.5019L33.6811 26.5596L33.3771 26.5335L33.0923 26.2455L32.8502 25.7599L32.7319 25.3525L32.7168 25.1357L32.6452 24.9177L31.3589 24.5611L30.9724 24.2551L30.5844 23.8697L30.4235 23.5556L30.2721 23.3238L30.1483 22.9178L30.0603 22.4446L30.2033 21.8314L30.3904 21.5351L29.5059 21.3143L29.1606 21.3047L28.8813 21.4295L28.6296 21.269L28.1068 21.0907L27.485 20.4474L26.7545 19.2787L25.9511 18.9029L25.6925 18.4955L25.3637 18.1279L25.0762 17.6725L25.0321 17.4736L24.9455 17.3625L24.5437 17.0443L24.0925 16.5052L23.9756 16.0718L23.8545 15.4079L23.5532 15.1733L23.2575 15.065L23.1997 14.7481L23.2176 14.5712L23.1171 14.2351L22.5063 13.4286L22.1968 12.7647L22.0262 12.5576L21.8666 12.2544L21.7855 11.6331L21.5324 10.8595L21.0426 9.92812L20.634 9.29989L20.4304 8.66617L20.5212 8.02011L20.4524 7.62097L20.4002 7.52771L20.4414 7.3974L20.5776 7.47007L20.6918 7.35349L20.6781 6.94062L20.535 6.8158L20.1388 6.68687L19.9641 6.59771L19.0011 6.42897L18.4494 6.19443L18.4137 5.64849L18.155 5.3975L17.9253 5.24249L17.1989 4.92017L17.0847 5.08476L16.9871 5.38925L16.6844 5.4551L16.4203 5.46883L15.9773 5.2576L14.8781 4.45243L14.6456 4.3235L14.3031 4.25489L14.1311 4.12048L13.3883 3.69527L13.5368 3.9216L13.7514 4.15614L13.9427 4.83788L13.7184 5.32889L13.5877 7.04075L13.7308 7.38091L14.0527 7.92546L14.2756 8.78824L14.3444 9.4302L14.5452 9.93909L14.4819 11.1324L14.559 11.4946L14.8657 12.0885L15.4339 12.6454L15.5522 12.9376L16.2978 13.3614L16.7518 13.9114L17.6515 14.6603L17.9349 14.9758L18.7466 16.1404L18.7727 16.486L18.9227 16.9099L19.378 16.8221L19.5816 17.1444L19.5582 17.2926L19.6133 17.4064L19.8513 17.3817L20.0562 17.4695L20.4882 18.7218L20.7193 18.8933L21.0165 18.966L21.348 19.1046L21.37 19.4241L21.3576 19.6793L21.6383 20.0483L21.5901 20.5475L21.8171 20.97L21.7827 21.3788L21.8763 21.7011L22.5765 22.4308L23.4391 23.0097L23.6193 23.7682L23.9715 24.4609L24.3319 24.6351L24.6951 24.9218L24.6497 25.2208L24.6758 25.4032L25.1628 25.9478L25.2412 26.6405L25.6608 27.0945L25.7791 27.1302L25.8713 27.0588L25.5659 26.6034L25.4187 26.3072L25.3994 25.8408L25.5026 25.7791L26.3734 26.517L26.4656 27.0671L26.7572 27.3784L26.7792 27.7982L26.9567 28.0478L27.0104 28.4099L27.291 29.0066L27.2979 29.8337L27.4465 30.4359L27.9954 31.359L28.4397 31.5524L28.5195 32.0051L28.9817 33.1737L29.5155 33.8061L29.781 34.3424L29.8168 34.6757L29.6173 35.1695L29.5953 35.5124L29.8856 36.5576L30.3189 37.0926L30.8045 37.2215L30.8884 37.2983L30.8499 37.441L31.0123 37.5686L31.1952 37.4053L31.2847 37.1735L31.1925 36.9033L31.176 36.7071L31.2585 36.5658L31.4167 36.5453L32.3439 37.2585L32.4994 37.5329L32.8433 37.8525L33.1597 38.2461L33.2959 38.5562L33.549 38.8126L33.6797 39.4079L34.3249 39.674L34.6675 40.1651L34.6909 40.4765L34.5244 41.272L34.38 41.5011L33.8599 41.8399L33.4816 42.2418L33.1157 42.4901L32.7278 42.641L32.4086 42.6066L32.1004 42.1444L31.7345 40.7439L31.4896 40.449L31.3177 40.0087L31.0315 39.6439L29.9998 39.0911L29.4797 38.5068L28.9749 38.1158L28.4315 37.5493L26.9512 36.6098L26.3377 36.131L25.9332 35.6564L25.6732 35.6633L25.4723 35.7127L25.3953 35.5823L25.3843 35.3355L25.2949 35.175L24.4296 34.459L24.2507 34.0626L24.2136 33.6017L24.4089 32.4138L24.4956 31.717L24.4406 31.3576L24.3498 31.3082L24.2672 31.1135L24.248 30.5388L24.0389 29.9133L23.2533 28.628L22.6797 28.3743L22.1693 28.1891L20.7702 27.0492L20.3905 26.4786L20.2984 26.1535L20.2502 25.4924L20.0576 25.8751L19.8004 26.159L19.2074 26.1385L18.5416 26.4581L18.1454 26.1577L17.9308 25.8161L17.6048 25.406L17.2388 25.325L17.005 25.3141L16.5661 24.8052L16.2112 24.6433L15.7035 24.5802L15.2716 24.3224L15.1381 24.0398L15.0666 23.6406L14.9056 23.4047L14.2274 22.937L13.6758 22.4199L13.1558 22.0879L13.0031 21.8163L12.9907 21.6298L13.8133 21.6819L14.7915 21.8808L15.2606 21.8245L15.5522 21.6325L15.8315 21.494L15.8755 21.6435L15.8246 21.9151L16.0929 22.1647L16.4615 22.3664L16.7229 22.3472L16.4684 22.1263L16.313 21.6764L16.3831 21.5146L16.379 21.2896L16.0145 21.3403L15.9635 21.2265L16.2758 20.8836L16.6335 19.981L16.8041 19.0895L16.4299 18.3076L15.7985 17.7644L14.4283 16.1692L13.6097 15.3476L13.3731 15.0417L13.1558 14.8976L12.4885 14.7097L11.9286 14.2489L10.9478 13.5959L10.5282 13.2585L10.2393 12.4671L10.0095 12.3587L10.0825 11.81L9.98205 10.8375L9.81695 10.5879L9.28593 10.3451L9.15937 9.68257L9.13324 9.05162L9.03006 8.61129L8.12624 7.86924L8.07533 7.50988V7.1683L7.98316 6.82953L7.50029 6.12038L6.91699 5.50035L6.71339 5.20411L6.68862 4.60329L6.48227 4.44146L6.5607 4.40031L6.75191 4.41538L6.86058 4.33581L6.87297 3.91608L5.99527 3.25632L5.74216 2.34692L5.27441 1.86411L5.16437 1.68988L4.9126 0.828491L6.01729 0.731083L7.12197 0.633717L8.22666 0.536309L9.33133 0.438943L10.436 0.341535L11.5407 0.244169L12.6454 0.146761L13.7501 0.0493528L14.1917 0L13.9468 0.685833L13.7625 0.942308L15.5935 1.61445L17.4245 2.28517L19.2556 2.95456L21.0866 3.62256L22.9177 4.29056L24.7487 4.95718L26.5798 5.62246L28.4108 6.28635L29.7755 6.28359L31.1402 6.28083L32.5049 6.27811L33.8696 6.27534L35.2343 6.27262L36.5989 6.26986L37.9636 6.26714L39.3283 6.26438L39.3311 5.75963L39.3324 5.25484L39.3352 4.74871L39.3379 4.24254L40.1868 4.24803L41.0356 4.25351L41.8844 4.25766L42.7332 4.26314L43.582 4.26724L44.4308 4.27272L45.2796 4.27821L46.1284 4.28369L46.1586 4.29194L46.1944 4.30977L46.5383 4.69522L46.8905 5.29875L47.306 5.71982L47.7847 5.95851L48.6005 6.66079L49.7533 7.82533L50.6723 8.59895L51.3588 8.98577L51.8182 9.31772L52.0535 9.59617L52.3699 10.1997L52.9669 11.5892V12.2256L53.1953 12.8278L53.652 13.6069L54.051 14.0651L54.3922 14.2036L54.765 14.4793L55.1694 14.8922L55.6358 15.1692L56.1641 15.3105L56.8932 15.6809L57.8232 16.2789L58.4615 16.5834L58.8068 16.5972L59.1094 16.4051L59.368 16.0087L59.6226 15.7536L59.8729 15.6397L59.9747 15.4573L59.928 15.2049L60.0972 14.6398L60.4824 13.7592L60.9418 13.2818L61.477 13.2078L61.8264 13.0418L61.9915 12.7839L62.2776 12.7565L62.6862 12.9581L63.3507 13.0884L64.271 13.146L64.8144 13.1268L64.9809 13.0281L65.0675 13.0335L65.0744 13.1419L65.2106 13.1886L65.4761 13.1721L65.7072 13.323L66.0044 13.8017L67.0252 14.5671L67.1132 14.8291L67.4681 15.2063L68.123 15.7865L68.493 16.2858L68.5797 16.7055L68.914 17.368L69.4959 18.2719L69.7545 18.7589L69.6913 18.8288L69.7366 19.0826L69.8921 19.5202L70.1796 19.8905L70.6019 20.1936L71.0284 20.7368L71.459 21.5201L71.9818 22.1153L72.5953 22.5214L72.942 22.9L73.0232 23.2497L73.0177 23.5488L72.9241 23.797L72.964 24.0329L73.136 24.2565L73.1938 24.5309L73.1264 24.9108L73.1305 25.0178L73.18 25.1042L73.7248 25.7571L74.0054 26.2838L74.2283 27.1233L74.2297 27.1302L74.4773 27.6322L74.835 27.8366L75.3839 27.9134L75.8007 28.0876L76.0855 28.3605L76.4459 28.5251L76.8792 28.5814L77.2947 28.7624L77.6936 29.0656L78.4365 29.2645L79.5233 29.3605L80.3501 29.6074L80.9183 30.0052L81.1673 30.0861L81.2347 30.0916L81.2663 30.0312L81.309 29.9187L81.5291 29.7898L82.0629 29.7048ZM14.3127 4.57587L14.1848 4.59509L13.9454 4.38796L13.9633 4.19729L14.0156 4.17808L14.2549 4.34544L14.3361 4.4922L14.3127 4.57587ZM20.253 16.3585L20.2255 16.4353L19.8306 16.1637L18.9364 15.2392L18.6118 14.7756L18.5581 14.5575L18.5856 14.0719L18.8924 14.1295L19.2473 14.4546L19.4014 14.7564L19.4083 15.1007L20.0714 15.2639L20.1649 16.0087L20.253 16.3585ZM23.9302 16.5642L23.6399 17.5957L23.3428 17.5792L22.7292 17.2542L22.6646 17.0512L22.8998 15.8523L23.0786 15.6946L23.6138 15.5327L23.6977 15.6809L23.7541 16.0348L23.9302 16.5642ZM0.612194 16.8413L0.447117 17.0086L0.00413531 16.0951L0 15.8743L0.129328 15.7645L0.343923 15.7851V16.0142L0.524156 16.2076L0.594309 16.3969L0.612194 16.8413ZM12.4734 20.6435L12.4211 20.7835L11.7691 20.494L12.1267 19.9879L12.0745 19.4557L12.2299 19.3446L12.3716 19.5202L12.5587 20.1978L12.4734 20.6435ZM28.188 29.4524L28.2361 29.606L28.21 29.6499L28.0518 29.5429L27.7849 30.1794L27.7065 30.237L27.8674 29.366L28.0366 29.2412L28.2237 29.2165L28.188 29.4524ZM24.4928 35.6976L24.4144 35.7442L24.0843 35.2573L24.0347 34.9226L23.8999 34.7813L23.567 34.6688L23.8545 33.9871L24.098 32.5729L24.2053 32.8322L23.9481 34.2642L23.9605 34.4507L24.0802 34.6249L24.2095 34.9199L24.2246 35.2381L24.4516 35.5344L24.4928 35.6976ZM30.246 33.7676L30.3561 34.2395L30.158 34.1695L29.8993 33.9131L29.7219 33.5852L29.7384 33.4384L29.7727 33.411L30.1401 33.6044L30.246 33.7676ZM25.8768 36.3382L25.8245 36.537L24.6621 35.7511L24.9413 35.677L25.266 35.7319L25.8768 36.3382ZM33.1886 37.3559L33.1047 37.3696L32.9066 37.1474L32.8199 36.6001L32.8598 36.5425L33.2326 37.2201L33.2258 37.3038L33.1886 37.3559ZM45.9399 47.9109L45.8271 48.2497L45.5355 48.1139L45.4309 47.9013L45.4103 47.5529L45.5726 47.4939L45.8078 47.6421L45.856 47.7408L45.9399 47.9109ZM122.34 49.4389L122.409 49.6378L122.342 49.6145L122.254 49.465L122.19 49.2784L122.244 49.2743L122.291 49.3388L122.34 49.4389ZM121.47 53.27L121.269 53.3975L121.16 52.9476L121.32 52.5087L121.514 52.2563L121.896 52.2275L122.149 52.1438L122.181 52.255L121.973 52.5951L121.47 53.27ZM28.9047 59.6112L28.6722 59.6962L28.3297 59.448L28.4205 59.2518L28.6158 59.1188L28.7988 59.3671L28.9047 59.6112ZM103.154 59.8704L102.719 59.9637L102.642 59.876L103.518 59.463L103.668 59.4809L103.72 59.5371L103.266 59.7333L103.154 59.8704Z"/>
</mask>
<path d="M82.0629 29.7048L81.9927 30.584L81.7588 31.3028L80.9898 32.7965L80.6693 33.721L80.0488 36.3519L79.8576 38.0692L79.8122 38.8757L79.7586 38.9896L79.8164 39.1075L79.6678 40.8866L79.7476 42.4009L79.6967 42.6355L79.4711 43.0909L79.3128 43.7205L79.3747 44.0003L79.372 44.1937L79.6031 45.1497L79.6774 45.8671L80.3666 47.0934L80.7532 47.5213L81.2333 47.8917L81.4094 48.1002L81.3227 48.62L81.1274 48.882L81.0435 49.299L80.9472 48.9547L80.9843 48.5076L81.137 48.2675L81.1425 48.092L80.8605 47.904L80.3446 47.2882L79.7146 46.1963L80.163 47.9397L80.3171 48.2181L80.4368 48.3334L80.6377 48.4554L80.6899 48.6447L80.6913 48.7846L81.2443 49.9917L81.8703 51.2372L81.9033 51.5774L82.1536 51.9957L83.7481 53.7377L84.7234 55.0353L85.0619 56.2643L85.2655 56.647L85.3659 57.171L86.0042 57.7581L86.1996 58.1367L86.5421 58.3465L86.8186 58.9802L87.3386 59.3506L87.2148 59.3574L86.7595 59.1709L86.7898 59.2944L87.1722 59.5564L87.9219 59.8142H88.109L87.8132 59.6798L87.5629 59.4987L87.6509 59.4727L88.1751 59.6976L89.6402 59.7717L90.2854 60.297L91.1218 60.5234L91.5717 61.1941L92.0944 61.8936L92.4287 61.9266L92.6887 61.9293L93.4728 61.8113L94.6917 61.3711L95.1113 61.1557L95.9299 60.8635L97.1831 60.8101L97.571 60.8924L98.5079 60.7099L98.955 60.4863L99.1104 60.2833L99.1834 60.1338L100.051 59.9198L100.223 59.8773L101.102 59.8389L101.528 59.7593L102.027 59.7127L102.387 60.0282V60.1818L102.147 60.3272L102.259 60.4685L102.687 60.7017L103.471 60.7963L103.726 60.7593L104.088 60.415L104.725 60.0817L104.711 59.6935L104.597 59.4809L104.412 59.4672L104.368 59.3478L104.498 59.0625L104.465 58.9665L104.068 59.2409H103.978L104.022 59.1133L104.104 59.0118L105.265 58.4137L105.562 58.1682L105.964 57.9515L106.796 57.1381L106.974 55.6046L107.14 55.3357L107.692 54.8639L107.751 54.7212L107.787 54.4003L107.772 53.5923L107.802 52.9559L107.779 52.2358L107.878 51.5925L107.967 51.4128L108.284 50.3812L108.941 49.9245L110.082 49.3827L110.343 49.2935L113.976 48.7202L114.487 48.5803L115.111 48.2085L115.568 48.0823L116.4 48.092L116.656 48.0426L116.707 47.9918L116.708 47.9411L116.862 47.8903L117.344 47.9397L118.244 48.1646L118.571 48.2209L119.376 48.4815L120.262 48.5857L120.388 48.5405L120.505 48.4609L120.595 48.3087L120.502 48.1756L120.416 48.1852L120.266 48.2566L120.087 48.2634L119.736 48.1537L119.806 48.0618L120.164 48.07L120.394 48.0261L120.734 47.8656L121.095 47.9864L121.571 48.5185L121.91 48.6873L121.937 49.4582L121.988 49.5994L122.112 49.8024L121.943 50.3991L121.753 50.8915L121.515 51.2948L121 51.9299L120.376 52.4374L119.603 53.5635L119.427 54.0902L119.431 54.5127L119.562 54.9201L119.524 55.071L119.429 55.2232L119.273 55.2095L118.967 55.4043L118.574 55.9831L118.566 56.1587L118.737 56.3206L118.962 56.2424L119.253 56.2355L119.417 56.1875L119.589 56.1999L119.551 56.5318L119.366 56.7677L119.249 56.8418L119.04 56.8816L118.806 57.016L118.687 57.1394L118.698 57.5222L118.827 57.5524L119.102 57.267L119.262 57.2807L119.293 57.4014L118.937 58.3795L118.707 59.3821L118.396 59.9624L118.286 60.8059L118.123 61.1653L117.933 61.5205L117.821 61.5014L117.521 60.8279L117.215 60.655L117.147 60.4918L117.322 59.6743L117.242 59.2216L117.08 59.2395L116.876 59.4877L116.605 59.7031L116.611 60.0145L116.3 60.5316L116.223 60.7017L115.927 60.6619L115.583 60.6838L115.345 60.8087L115.101 61.4355L114.493 62.3175L114.251 62.7441L114.053 62.8909L113.898 62.9485L113.724 62.8483L113.309 62.6069L112.988 62.7221L112.877 62.9992L112.881 63.349H112.069L110.691 63.3476L108.936 63.3463L107.244 63.3449L105.827 63.3435L105.821 64.1295L105.817 64.8249L105.813 65.6067L105.031 65.5999L104.205 65.5931L104.271 65.6712L104.554 65.818L104.921 66.1677L105.355 66.7123L105.88 67.1458L106.498 67.4681L106.904 67.7836L107.1 68.0922L107.2 68.3542V68.5709L107.425 68.7424L107.828 68.8562L108.037 69.0496V69.2074L107.909 69.5654L107.872 69.9604L107.922 70.3171L107.633 70.3226H106.933L105.866 70.3239H104.886H104.112L102.945 70.3253L102.624 70.8739L102.092 71.7847L101.609 72.6091L101.204 73.3018L101.138 73.4842V73.6324L101.639 74.2798L101.547 74.4677L101.372 74.5665L101.316 74.7187L101.327 74.9656L101.208 75.2935L101.247 75.5198L101.31 75.7982L101.206 76.0397L101.12 76.2728L101.02 76.3743L100.906 76.2865L99.8767 75.2112L98.8037 74.0274L98.3813 73.6406L97.9728 73.3471L97.4225 72.8011L95.978 71.6009L95.2324 71.0523L94.5308 70.3952L93.9007 70.0304L93.2803 69.7931L93.0038 69.6559L92.7616 69.4762L92.6268 69.4653L92.5594 69.7094L92.7768 69.8315L93.0368 69.9357L93.2417 69.9426L93.4577 70.029L94.0947 70.3623L94.1992 70.5338L92.3874 69.8672L91.6501 69.8054L91.5703 69.7012L91.9376 69.3528L91.8234 69.2266L91.6927 69.2087L91.2979 69.4502L91.1521 69.4666L91.1259 69.3075L91.1438 69.158L90.8893 68.9385L90.7283 68.9467L90.5963 69.1004L90.2524 69.3898L90.2634 69.5036L90.9375 69.6271L91.1699 69.697L91.1163 69.7739L90.5385 69.7725L89.8231 69.9042L88.5493 70.7093L87.3634 71.055L85.6575 71.8286L84.905 71.8684L84.5102 71.9918L83.3629 71.6956L81.9088 70.9686L79.7077 70.7395L78.2247 69.7862L76.7527 69.3939L75.8186 68.4777L75.2559 68.4379L74.8941 68.2911L73.557 67.9591L72.2349 67.7397L70.9459 66.9373L70.1026 66.6821L69.3735 66.3625L67.768 65.8166L67.1724 65.5135L66.6097 65.0444L65.6921 64.5588L65.3 64.1528L64.8626 64.0074L64.2366 63.242L63.9106 62.9197L63.6341 62.7688L63.3383 62.7166L62.484 62.7784L61.2087 62.4396L60.6199 62.3532L59.3887 61.8539L57.7544 61.2956L57.2192 60.6537L56.7611 60.0542L55.9357 59.2642L55.4212 58.9267L54.5284 58.5262L54.0331 58.2011L53.2696 57.9515L51.9737 57.3178L51.5624 56.7746L51.3216 56.2918L50.6324 55.7047L49.8771 54.6087L49.6818 54.2041L49.536 53.5827L49.3613 53.222L49.1549 52.9394L49.2608 52.7337L49.6446 52.4799L50.283 52.4223L50.7342 52.148L50.7934 51.9216L50.7645 51.7818L50.4756 51.4361L50.1165 51.3442L49.8372 51.3387L49.7657 51.207L49.9762 51.063L50.2169 50.7255L50.5719 50.3141L50.8222 49.9341L50.869 49.3978L50.8374 48.8614L50.9323 48.4074L50.0725 47.8835L49.9721 47.6599L49.7011 47.0577L49.2319 46.3582L49.2457 44.9577L48.6803 43.7122L48.0956 43.0922L47.793 42.8755L46.9717 41.9112L46.3237 41.3502L45.6895 40.2927L45.0622 39.6192L44.2643 38.4875L43.6879 37.9224L41.0617 36.0089H41.2089L41.9793 36.4794L42.1086 36.441L42.1265 36.212L42.0384 35.9376L41.8954 35.8718L41.6904 35.9335L41.4139 35.8759L41.2749 35.7854L40.8609 35.7278L40.3422 35.4082L40.1194 35.0762L40.0946 34.6976L39.3503 33.8897L39.0683 33.4384L39.2128 33.4714L39.4109 33.6524L39.6117 33.7046L39.8456 33.7059L40.0148 33.6332L39.9543 33.4988L39.7947 33.3863L38.7106 32.9597L38.353 32.6607L37.4643 32.1614L37.2538 31.9859L37.1135 31.503L36.8961 31.4797L36.7049 31.6142L36.1807 31.7458L36.0473 31.5922L36.028 31.444L36.3981 31.2877L36.7379 30.8309L36.731 30.6718L36.5439 30.8556L36.2605 31.06L35.9689 31.1738L35.5355 31.2685L35.3127 31.1999L35.1187 31.097L34.8064 30.6979L34.6496 29.3975L34.9247 28.9463L35.2466 28.4991L35.5204 28.2343L35.6786 28.4346L35.8409 28.4593L35.7268 28.233L35.4571 28.0217L35.3622 27.8105L35.3526 27.6171L35.2246 27.2577L34.4267 26.5019L33.6811 26.5596L33.3771 26.5335L33.0923 26.2455L32.8502 25.7599L32.7319 25.3525L32.7168 25.1357L32.6452 24.9177L31.3589 24.5611L30.9724 24.2551L30.5844 23.8697L30.4235 23.5556L30.2721 23.3238L30.1483 22.9178L30.0603 22.4446L30.2033 21.8314L30.3904 21.5351L29.5059 21.3143L29.1606 21.3047L28.8813 21.4295L28.6296 21.269L28.1068 21.0907L27.485 20.4474L26.7545 19.2787L25.9511 18.9029L25.6925 18.4955L25.3637 18.1279L25.0762 17.6725L25.0321 17.4736L24.9455 17.3625L24.5437 17.0443L24.0925 16.5052L23.9756 16.0718L23.8545 15.4079L23.5532 15.1733L23.2575 15.065L23.1997 14.7481L23.2176 14.5712L23.1171 14.2351L22.5063 13.4286L22.1968 12.7647L22.0262 12.5576L21.8666 12.2544L21.7855 11.6331L21.5324 10.8595L21.0426 9.92812L20.634 9.29989L20.4304 8.66617L20.5212 8.02011L20.4524 7.62097L20.4002 7.52771L20.4414 7.3974L20.5776 7.47007L20.6918 7.35349L20.6781 6.94062L20.535 6.8158L20.1388 6.68687L19.9641 6.59771L19.0011 6.42897L18.4494 6.19443L18.4137 5.64849L18.155 5.3975L17.9253 5.24249L17.1989 4.92017L17.0847 5.08476L16.9871 5.38925L16.6844 5.4551L16.4203 5.46883L15.9773 5.2576L14.8781 4.45243L14.6456 4.3235L14.3031 4.25489L14.1311 4.12048L13.3883 3.69527L13.5368 3.9216L13.7514 4.15614L13.9427 4.83788L13.7184 5.32889L13.5877 7.04075L13.7308 7.38091L14.0527 7.92546L14.2756 8.78824L14.3444 9.4302L14.5452 9.93909L14.4819 11.1324L14.559 11.4946L14.8657 12.0885L15.4339 12.6454L15.5522 12.9376L16.2978 13.3614L16.7518 13.9114L17.6515 14.6603L17.9349 14.9758L18.7466 16.1404L18.7727 16.486L18.9227 16.9099L19.378 16.8221L19.5816 17.1444L19.5582 17.2926L19.6133 17.4064L19.8513 17.3817L20.0562 17.4695L20.4882 18.7218L20.7193 18.8933L21.0165 18.966L21.348 19.1046L21.37 19.4241L21.3576 19.6793L21.6383 20.0483L21.5901 20.5475L21.8171 20.97L21.7827 21.3788L21.8763 21.7011L22.5765 22.4308L23.4391 23.0097L23.6193 23.7682L23.9715 24.4609L24.3319 24.6351L24.6951 24.9218L24.6497 25.2208L24.6758 25.4032L25.1628 25.9478L25.2412 26.6405L25.6608 27.0945L25.7791 27.1302L25.8713 27.0588L25.5659 26.6034L25.4187 26.3072L25.3994 25.8408L25.5026 25.7791L26.3734 26.517L26.4656 27.0671L26.7572 27.3784L26.7792 27.7982L26.9567 28.0478L27.0104 28.4099L27.291 29.0066L27.2979 29.8337L27.4465 30.4359L27.9954 31.359L28.4397 31.5524L28.5195 32.0051L28.9817 33.1737L29.5155 33.8061L29.781 34.3424L29.8168 34.6757L29.6173 35.1695L29.5953 35.5124L29.8856 36.5576L30.3189 37.0926L30.8045 37.2215L30.8884 37.2983L30.8499 37.441L31.0123 37.5686L31.1952 37.4053L31.2847 37.1735L31.1925 36.9033L31.176 36.7071L31.2585 36.5658L31.4167 36.5453L32.3439 37.2585L32.4994 37.5329L32.8433 37.8525L33.1597 38.2461L33.2959 38.5562L33.549 38.8126L33.6797 39.4079L34.3249 39.674L34.6675 40.1651L34.6909 40.4765L34.5244 41.272L34.38 41.5011L33.8599 41.8399L33.4816 42.2418L33.1157 42.4901L32.7278 42.641L32.4086 42.6066L32.1004 42.1444L31.7345 40.7439L31.4896 40.449L31.3177 40.0087L31.0315 39.6439L29.9998 39.0911L29.4797 38.5068L28.9749 38.1158L28.4315 37.5493L26.9512 36.6098L26.3377 36.131L25.9332 35.6564L25.6732 35.6633L25.4723 35.7127L25.3953 35.5823L25.3843 35.3355L25.2949 35.175L24.4296 34.459L24.2507 34.0626L24.2136 33.6017L24.4089 32.4138L24.4956 31.717L24.4406 31.3576L24.3498 31.3082L24.2672 31.1135L24.248 30.5388L24.0389 29.9133L23.2533 28.628L22.6797 28.3743L22.1693 28.1891L20.7702 27.0492L20.3905 26.4786L20.2984 26.1535L20.2502 25.4924L20.0576 25.8751L19.8004 26.159L19.2074 26.1385L18.5416 26.4581L18.1454 26.1577L17.9308 25.8161L17.6048 25.406L17.2388 25.325L17.005 25.3141L16.5661 24.8052L16.2112 24.6433L15.7035 24.5802L15.2716 24.3224L15.1381 24.0398L15.0666 23.6406L14.9056 23.4047L14.2274 22.937L13.6758 22.4199L13.1558 22.0879L13.0031 21.8163L12.9907 21.6298L13.8133 21.6819L14.7915 21.8808L15.2606 21.8245L15.5522 21.6325L15.8315 21.494L15.8755 21.6435L15.8246 21.9151L16.0929 22.1647L16.4615 22.3664L16.7229 22.3472L16.4684 22.1263L16.313 21.6764L16.3831 21.5146L16.379 21.2896L16.0145 21.3403L15.9635 21.2265L16.2758 20.8836L16.6335 19.981L16.8041 19.0895L16.4299 18.3076L15.7985 17.7644L14.4283 16.1692L13.6097 15.3476L13.3731 15.0417L13.1558 14.8976L12.4885 14.7097L11.9286 14.2489L10.9478 13.5959L10.5282 13.2585L10.2393 12.4671L10.0095 12.3587L10.0825 11.81L9.98205 10.8375L9.81695 10.5879L9.28593 10.3451L9.15937 9.68257L9.13324 9.05162L9.03006 8.61129L8.12624 7.86924L8.07533 7.50988V7.1683L7.98316 6.82953L7.50029 6.12038L6.91699 5.50035L6.71339 5.20411L6.68862 4.60329L6.48227 4.44146L6.5607 4.40031L6.75191 4.41538L6.86058 4.33581L6.87297 3.91608L5.99527 3.25632L5.74216 2.34692L5.27441 1.86411L5.16437 1.68988L4.9126 0.828491L6.01729 0.731083L7.12197 0.633717L8.22666 0.536309L9.33133 0.438943L10.436 0.341535L11.5407 0.244169L12.6454 0.146761L13.7501 0.0493528L14.1917 0L13.9468 0.685833L13.7625 0.942308L15.5935 1.61445L17.4245 2.28517L19.2556 2.95456L21.0866 3.62256L22.9177 4.29056L24.7487 4.95718L26.5798 5.62246L28.4108 6.28635L29.7755 6.28359L31.1402 6.28083L32.5049 6.27811L33.8696 6.27534L35.2343 6.27262L36.5989 6.26986L37.9636 6.26714L39.3283 6.26438L39.3311 5.75963L39.3324 5.25484L39.3352 4.74871L39.3379 4.24254L40.1868 4.24803L41.0356 4.25351L41.8844 4.25766L42.7332 4.26314L43.582 4.26724L44.4308 4.27272L45.2796 4.27821L46.1284 4.28369L46.1586 4.29194L46.1944 4.30977L46.5383 4.69522L46.8905 5.29875L47.306 5.71982L47.7847 5.95851L48.6005 6.66079L49.7533 7.82533L50.6723 8.59895L51.3588 8.98577L51.8182 9.31772L52.0535 9.59617L52.3699 10.1997L52.9669 11.5892V12.2256L53.1953 12.8278L53.652 13.6069L54.051 14.0651L54.3922 14.2036L54.765 14.4793L55.1694 14.8922L55.6358 15.1692L56.1641 15.3105L56.8932 15.6809L57.8232 16.2789L58.4615 16.5834L58.8068 16.5972L59.1094 16.4051L59.368 16.0087L59.6226 15.7536L59.8729 15.6397L59.9747 15.4573L59.928 15.2049L60.0972 14.6398L60.4824 13.7592L60.9418 13.2818L61.477 13.2078L61.8264 13.0418L61.9915 12.7839L62.2776 12.7565L62.6862 12.9581L63.3507 13.0884L64.271 13.146L64.8144 13.1268L64.9809 13.0281L65.0675 13.0335L65.0744 13.1419L65.2106 13.1886L65.4761 13.1721L65.7072 13.323L66.0044 13.8017L67.0252 14.5671L67.1132 14.8291L67.4681 15.2063L68.123 15.7865L68.493 16.2858L68.5797 16.7055L68.914 17.368L69.4959 18.2719L69.7545 18.7589L69.6913 18.8288L69.7366 19.0826L69.8921 19.5202L70.1796 19.8905L70.6019 20.1936L71.0284 20.7368L71.459 21.5201L71.9818 22.1153L72.5953 22.5214L72.942 22.9L73.0232 23.2497L73.0177 23.5488L72.9241 23.797L72.964 24.0329L73.136 24.2565L73.1938 24.5309L73.1264 24.9108L73.1305 25.0178L73.18 25.1042L73.7248 25.7571L74.0054 26.2838L74.2283 27.1233L74.2297 27.1302L74.4773 27.6322L74.835 27.8366L75.3839 27.9134L75.8007 28.0876L76.0855 28.3605L76.4459 28.5251L76.8792 28.5814L77.2947 28.7624L77.6936 29.0656L78.4365 29.2645L79.5233 29.3605L80.3501 29.6074L80.9183 30.0052L81.1673 30.0861L81.2347 30.0916L81.2663 30.0312L81.309 29.9187L81.5291 29.7898L82.0629 29.7048ZM14.3127 4.57587L14.1848 4.59509L13.9454 4.38796L13.9633 4.19729L14.0156 4.17808L14.2549 4.34544L14.3361 4.4922L14.3127 4.57587ZM20.253 16.3585L20.2255 16.4353L19.8306 16.1637L18.9364 15.2392L18.6118 14.7756L18.5581 14.5575L18.5856 14.0719L18.8924 14.1295L19.2473 14.4546L19.4014 14.7564L19.4083 15.1007L20.0714 15.2639L20.1649 16.0087L20.253 16.3585ZM23.9302 16.5642L23.6399 17.5957L23.3428 17.5792L22.7292 17.2542L22.6646 17.0512L22.8998 15.8523L23.0786 15.6946L23.6138 15.5327L23.6977 15.6809L23.7541 16.0348L23.9302 16.5642ZM0.612194 16.8413L0.447117 17.0086L0.00413531 16.0951L0 15.8743L0.129328 15.7645L0.343923 15.7851V16.0142L0.524156 16.2076L0.594309 16.3969L0.612194 16.8413ZM12.4734 20.6435L12.4211 20.7835L11.7691 20.494L12.1267 19.9879L12.0745 19.4557L12.2299 19.3446L12.3716 19.5202L12.5587 20.1978L12.4734 20.6435ZM28.188 29.4524L28.2361 29.606L28.21 29.6499L28.0518 29.5429L27.7849 30.1794L27.7065 30.237L27.8674 29.366L28.0366 29.2412L28.2237 29.2165L28.188 29.4524ZM24.4928 35.6976L24.4144 35.7442L24.0843 35.2573L24.0347 34.9226L23.8999 34.7813L23.567 34.6688L23.8545 33.9871L24.098 32.5729L24.2053 32.8322L23.9481 34.2642L23.9605 34.4507L24.0802 34.6249L24.2095 34.9199L24.2246 35.2381L24.4516 35.5344L24.4928 35.6976ZM30.246 33.7676L30.3561 34.2395L30.158 34.1695L29.8993 33.9131L29.7219 33.5852L29.7384 33.4384L29.7727 33.411L30.1401 33.6044L30.246 33.7676ZM25.8768 36.3382L25.8245 36.537L24.6621 35.7511L24.9413 35.677L25.266 35.7319L25.8768 36.3382ZM33.1886 37.3559L33.1047 37.3696L32.9066 37.1474L32.8199 36.6001L32.8598 36.5425L33.2326 37.2201L33.2258 37.3038L33.1886 37.3559ZM45.9399 47.9109L45.8271 48.2497L45.5355 48.1139L45.4309 47.9013L45.4103 47.5529L45.5726 47.4939L45.8078 47.6421L45.856 47.7408L45.9399 47.9109ZM122.34 49.4389L122.409 49.6378L122.342 49.6145L122.254 49.465L122.19 49.2784L122.244 49.2743L122.291 49.3388L122.34 49.4389ZM121.47 53.27L121.269 53.3975L121.16 52.9476L121.32 52.5087L121.514 52.2563L121.896 52.2275L122.149 52.1438L122.181 52.255L121.973 52.5951L121.47 53.27ZM28.9047 59.6112L28.6722 59.6962L28.3297 59.448L28.4205 59.2518L28.6158 59.1188L28.7988 59.3671L28.9047 59.6112ZM103.154 59.8704L102.719 59.9637L102.642 59.876L103.518 59.463L103.668 59.4809L103.72 59.5371L103.266 59.7333L103.154 59.8704Z" fill="var(--fill-0, #71B219)" stroke="var(--stroke-0, white)" mask="url(#path-1-inside-1_0_75)"/>
</g>
</svg>
