<svg preserveAspectRatio="none" width="100%" height="100%" overflow="visible" style="display: block;" viewBox="0 0 75.7457 24.8971" fill="none" xmlns="http://www.w3.org/2000/svg">
<g id="MY">
<mask id="path-1-inside-1_0_132" fill="white">
<path d="M67.5465 0.707809L67.3113 0.910788L67.2315 0.665279L67.248 0.349781L67.5658 0.0562597L68.0184 0L68.083 0.234583L68.0294 0.503407L67.9234 0.641963L67.5465 0.707809ZM69.218 12.2284L69.0749 12.2256L68.742 12.1433L68.0734 11.736L67.3897 11.592L66.3964 11.5796L65.8352 11.522L65.6068 11.5823L65.4142 11.5851L65.2752 11.5028L65.128 11.4617L64.7401 11.7017L64.5599 11.629L64.377 11.5275L64.0523 11.4946L63.6588 11.5234L63.2241 11.7702L62.7399 11.5481L62.6023 11.5508L62.5101 11.6084L62.301 11.9129L61.9007 12.1447L61.7026 12.5713L61.5802 12.9801L61.4742 13.1214L61.4453 13.9101L61.3821 14.2914L61.4825 14.7948L61.4646 15.0115L61.2871 15.3339L61.2638 15.4079L61.1702 15.9196L61.2059 16.0567L61.1826 16.2282L61.0326 16.5876L60.7616 16.6863L60.4769 16.7425L60.232 16.6205L60.0119 16.818L59.7326 17.1225L59.6115 17.3282L59.6129 17.5189L59.6418 17.6465L59.584 17.7781L59.5772 17.9181L59.5909 18.1197L59.7808 18.2034L59.9789 18.3776L59.972 18.5449L59.8633 18.6601L59.6143 18.8385L59.1603 19.2033L58.6486 19.5147L58.4545 19.5874L58.3844 19.7314L58.3487 19.9248L58.4614 20.3487L58.5687 20.4735L58.6252 20.6216L58.5564 20.7985L58.5068 20.9508L58.3183 21.0468L58.134 21.1168L58.0666 21.2375L57.9703 21.745L57.8589 22.0098L57.6085 22.4034L57.5246 22.5831L57.3953 22.6407L56.9111 22.4569L56.4777 22.568L55.9027 22.6393L55.4157 22.6284L55.0401 22.7093L54.7815 22.9164L54.4925 23.1784L54.1886 23.3732L53.9589 23.4678L53.5378 23.1908L53.3246 23.2155L52.9422 23.1194L52.0438 22.8094L51.8223 22.7189L51.583 22.7107L51.5114 22.6215L51.5486 22.472L51.5114 22.2745L51.3368 22.2004L49.5332 22.2306L49.0132 22.4007L48.6624 22.5351L48.412 22.6901L48.3405 23.0755L48.1905 23.4376L47.9965 23.8217L47.3968 23.937L46.9565 24.3251L46.8052 24.3718L46.5025 24.3155L46.1779 24.284L45.944 24.3923L45.6978 24.3869L44.9398 24.2058L44.223 24.177L43.8172 24.2689L43.593 24.3032L42.3452 24.8354L41.9229 24.8971L41.7523 24.8203L41.5115 24.6022L41.1883 24.3841L40.4138 23.642L40.1276 23.4678L39.9378 23.2895L39.7575 23.0769L39.5003 22.8478L39.2664 22.6901L38.95 22.3691L38.6349 22.018L38.5634 21.3994L38.313 21.2855L38.2277 21.1236L38.1893 20.9412L38.5373 20.4392L38.7905 20.97L38.8867 21.088L39.448 21.446L39.9102 21.6243L40.4096 21.697L40.9186 21.7121L41.1195 21.6874L41.3176 21.6161L41.5115 21.6929L42.575 22.2731L42.9876 22.3773L43.4238 22.3335L43.5971 22.3911L44.2093 22.8369L44.3895 22.8904L44.6907 22.856L44.3069 22.6531L44.0538 22.509L43.9396 22.2374L44.0098 21.948L44.2547 21.7546L44.4252 21.5447L44.4858 20.9193L44.5945 20.6024L44.798 20.302L44.8655 20.0112L44.6357 19.789L44.5848 19.4077L44.6344 19.0922L44.765 18.8768L44.9714 19.0195L45.186 19.1512L45.3965 19.1375L45.5423 19.0853L45.5684 18.9221L45.53 18.6382L45.541 18.117L45.8078 17.7L46.2357 17.4133L46.6387 17.2761L48.1493 17.043L50.5374 16.4463L51.2446 16.2159L51.5045 16.0965L51.7233 15.9305L52.0934 15.4011L52.7881 14.5657L53.2751 13.8799L54.3013 12.88L55.1199 11.9527L55.2299 11.7785L55.3661 11.2724L55.3771 11.0337L55.3523 10.7923L55.4611 10.6798L55.6206 10.6126H55.6592L55.7802 10.7182L56.065 10.865L56.2769 11.0543L56.4199 11.2984L56.5217 11.5261L56.53 11.7209L56.6593 11.88L57.0211 11.9074L57.138 12.1077L57.3898 12.452L57.6209 12.7002L57.7626 12.7963L57.9387 12.7442L58.2125 12.5178L58.4105 12.2408L58.544 11.8663L58.4394 11.8114L58.6238 11.5288L58.6582 11.3807L58.5728 11.2449L58.4642 11.1091L58.423 10.7676L58.3472 10.3328L58.2963 10.1352L58.4409 9.99397L58.7517 9.81426L59.0626 9.6058L59.3777 9.43844L59.3859 9.74021L59.3777 10.2381L59.4726 10.6551L59.6872 11.393L59.9321 11.4932L60.2265 11.559L60.3971 11.5385L60.5071 11.4891L60.536 11.4301L60.353 11.1407L60.3049 10.4589L60.1549 10.0118L59.9252 9.56599L59.8165 9.43982L60.7231 9.31362L60.9253 9.17372L61.2817 8.86781L61.4164 8.69635L61.5224 8.30957L61.078 8.08051L60.9033 7.78694L60.8923 7.47011L61.4233 6.8803L61.6077 6.73898L61.6875 6.94887L61.9213 7.00236L62.1359 7.01061L62.3519 6.99826L62.6628 6.7006L62.8224 6.27262L63.3672 5.66775L63.5612 5.20411L63.6712 4.71853L65.0469 3.20969L65.2147 2.97515L66.0319 1.45672L66.1337 1.40595L66.3524 1.55275L66.4171 2.03556L66.3882 2.24541L66.2548 2.55818L66.1791 2.88461L66.2727 2.87778L66.6619 2.67887L67.0678 2.14804L67.2976 1.68854L67.4929 1.48829L67.885 1.60076L67.9716 1.6803L67.9441 2.01087L67.9813 2.20292L68.1312 2.61302L68.4641 2.86267L68.9236 3.01906L69.3501 3.24674L69.4904 3.39626L69.5812 3.57592L69.6747 3.87087L69.6816 4.16987L69.3734 4.46206L69.5042 4.93528L69.4835 5.21097L69.379 5.44689L68.9305 5.66226L70.1535 5.44827L70.4547 5.32617L70.873 5.01482L71.0958 5.28368L71.3049 5.74866L71.1371 5.86524L70.6047 6.0367L70.5786 6.10665L70.7547 6.34809L70.9762 6.32478L71.415 6.16291L71.8181 5.90777L72.0134 5.91053L72.2198 5.96265L72.6174 6.12724L72.8402 6.26027L73.0301 6.43173L73.1525 6.787L73.6119 6.91597L74.5529 7.41385L74.7277 7.45638L74.9106 7.46596L75.4059 7.40564L75.5806 7.47559L75.7044 7.65525L75.7457 7.87749L75.7319 8.11617L75.681 8.29722L75.5655 8.44674L75.2284 8.67442L74.3796 8.97208L73.451 9.19838L72.9846 9.18331L72.3298 8.98991L72.0918 9.01461L71.8607 9.10373L71.5718 9.71962L72.1069 10.3328L73.0273 10.9706L73.1538 11.1297L73.1208 11.3259L72.9751 11.4424L72.7797 11.5069L72.2624 11.6084L71.7397 11.6838L71.3091 11.7936L70.8867 11.9362L70.4534 11.8869L69.8563 11.6016L69.6844 11.581L69.5027 11.7278L69.3253 12.1283L69.218 12.2284ZM9.47712 4.27276L10.1443 4.42225L10.4002 4.54297L11.15 5.73359L12.1377 6.57029L12.5573 6.88302L12.8806 7.03116L13.3222 7.47831L13.7074 8.0407L14.5521 9.62225L14.6979 10.3163L14.7557 11.3752L14.57 12.9718L14.3429 13.7674L14.387 14.1432L14.6979 14.7194L14.6043 15.2639L14.6649 15.7165L14.6429 16.9703L14.8189 17.3406L15.0198 17.5765L16.0804 18.32L16.1589 18.5957L16.6816 19.5421L17.6502 21.6023L17.9198 22.5282L17.8895 22.7779L17.7726 22.8807L17.4878 22.9713L17.2498 22.7902L17.1701 22.6613L17.1947 22.4994L17.1012 22.3403L16.8687 22.151L16.7353 21.9809L16.7725 22.2621L16.7738 22.627L16.478 22.6586L16.0997 22.5447L15.6265 22.6476L15.068 23.0947L14.7997 23.1071L14.5961 22.723L14.4915 22.4624L14.325 22.2786L12.5491 21.3363L11.8929 21.0948L11.2023 20.3802L9.64774 19.5915L8.65997 18.822L8.24039 18.3474L7.23062 17.9263L6.79593 17.4297L6.58131 17.3324L6.3667 17.1554L6.59366 16.6726L6.50012 16.1692L6.38324 15.744L5.67062 14.9059L5.32116 14.3216L4.65119 13.7386L4.38292 13.4025L4.12708 13.013L4.28661 12.8758L4.43523 12.7935L4.29904 12.5096L3.91523 12.0172L3.73639 11.4507V10.3808L3.19162 8.87606L2.72527 6.78976L2.80916 6.05868L2.6895 5.26585L2.37992 4.5032L1.97546 3.95865L1.82415 3.50598L1.89704 3.32631L1.98646 2.73785L2.047 2.62127L2.19973 2.56501L2.37304 2.58012L2.69639 3.09173L3.53966 3.40861L3.79416 3.48404L4.12565 3.35783L4.27562 3.43741L4.42701 3.56772L4.51366 3.93257L4.73516 4.26452L5.17808 4.21651L5.33493 4.26452L5.42712 4.2741L5.51377 4.56767L5.55366 5.0779L5.51243 5.37418L5.19319 5.79806L5.15062 6.08609L5.31838 6.26442L5.53577 6.45505L5.66096 6.60185L5.7917 6.57715L5.95678 6.4784L6.10808 6.22875L6.21262 6.01476L6.78081 5.77608L7.36824 5.56075L7.44801 5.58269L7.54289 5.67733L7.73005 5.99007L7.84004 6.05591L7.99823 6.08748L8.27339 6.05453L8.59254 5.87759L8.76039 5.54702L8.8347 5.2864L9.29416 4.83511L9.34504 4.49634L9.47712 4.27276ZM0.778614 3.41271L1.051 3.82558L0.914806 4.00938L0.846038 4.06288L0.682305 4.00252L0.525541 4.16029L0.375578 4.19181L0.225616 3.90653L0.0398837 3.79267L0 3.59514L0.248958 3.56085L0.397577 3.62942L0.676847 3.49229L0.778614 3.41271ZM2.48035 7.91453L2.38404 8.02153L2.10342 7.95978L2.15296 7.33017L2.3125 7.24925L2.56288 7.36311L2.67296 7.47011L2.48035 7.91453ZM70.4149 12.168L69.877 12.2421L69.5042 12.2339L69.5729 12.0995L69.5551 11.9225L69.7325 11.8759L69.9375 11.9143L70.4149 12.168ZM6.45612 16.7563L6.26073 16.8262L6.24973 16.7261L6.28416 16.5862L6.42724 16.4531L6.49323 16.5286L6.45612 16.7563ZM17.6639 17.7398L17.4768 17.7795L17.375 17.7535L17.3062 17.604L17.463 17.2611L17.5208 17.2035L17.6694 17.5765L17.6639 17.7398ZM45.3387 18.9509L45.2204 19.0017L45.0374 18.8659L44.9948 17.7041L45.1227 17.5998L45.2066 17.6149L45.296 17.8262L45.2878 18.3351L45.3043 18.785L45.3387 18.9509Z"/>
</mask>
<path d="M67.5465 0.707809L67.3113 0.910788L67.2315 0.665279L67.248 0.349781L67.5658 0.0562597L68.0184 0L68.083 0.234583L68.0294 0.503407L67.9234 0.641963L67.5465 0.707809ZM69.218 12.2284L69.0749 12.2256L68.742 12.1433L68.0734 11.736L67.3897 11.592L66.3964 11.5796L65.8352 11.522L65.6068 11.5823L65.4142 11.5851L65.2752 11.5028L65.128 11.4617L64.7401 11.7017L64.5599 11.629L64.377 11.5275L64.0523 11.4946L63.6588 11.5234L63.2241 11.7702L62.7399 11.5481L62.6023 11.5508L62.5101 11.6084L62.301 11.9129L61.9007 12.1447L61.7026 12.5713L61.5802 12.9801L61.4742 13.1214L61.4453 13.9101L61.3821 14.2914L61.4825 14.7948L61.4646 15.0115L61.2871 15.3339L61.2638 15.4079L61.1702 15.9196L61.2059 16.0567L61.1826 16.2282L61.0326 16.5876L60.7616 16.6863L60.4769 16.7425L60.232 16.6205L60.0119 16.818L59.7326 17.1225L59.6115 17.3282L59.6129 17.5189L59.6418 17.6465L59.584 17.7781L59.5772 17.9181L59.5909 18.1197L59.7808 18.2034L59.9789 18.3776L59.972 18.5449L59.8633 18.6601L59.6143 18.8385L59.1603 19.2033L58.6486 19.5147L58.4545 19.5874L58.3844 19.7314L58.3487 19.9248L58.4614 20.3487L58.5687 20.4735L58.6252 20.6216L58.5564 20.7985L58.5068 20.9508L58.3183 21.0468L58.134 21.1168L58.0666 21.2375L57.9703 21.745L57.8589 22.0098L57.6085 22.4034L57.5246 22.5831L57.3953 22.6407L56.9111 22.4569L56.4777 22.568L55.9027 22.6393L55.4157 22.6284L55.0401 22.7093L54.7815 22.9164L54.4925 23.1784L54.1886 23.3732L53.9589 23.4678L53.5378 23.1908L53.3246 23.2155L52.9422 23.1194L52.0438 22.8094L51.8223 22.7189L51.583 22.7107L51.5114 22.6215L51.5486 22.472L51.5114 22.2745L51.3368 22.2004L49.5332 22.2306L49.0132 22.4007L48.6624 22.5351L48.412 22.6901L48.3405 23.0755L48.1905 23.4376L47.9965 23.8217L47.3968 23.937L46.9565 24.3251L46.8052 24.3718L46.5025 24.3155L46.1779 24.284L45.944 24.3923L45.6978 24.3869L44.9398 24.2058L44.223 24.177L43.8172 24.2689L43.593 24.3032L42.3452 24.8354L41.9229 24.8971L41.7523 24.8203L41.5115 24.6022L41.1883 24.3841L40.4138 23.642L40.1276 23.4678L39.9378 23.2895L39.7575 23.0769L39.5003 22.8478L39.2664 22.6901L38.95 22.3691L38.6349 22.018L38.5634 21.3994L38.313 21.2855L38.2277 21.1236L38.1893 20.9412L38.5373 20.4392L38.7905 20.97L38.8867 21.088L39.448 21.446L39.9102 21.6243L40.4096 21.697L40.9186 21.7121L41.1195 21.6874L41.3176 21.6161L41.5115 21.6929L42.575 22.2731L42.9876 22.3773L43.4238 22.3335L43.5971 22.3911L44.2093 22.8369L44.3895 22.8904L44.6907 22.856L44.3069 22.6531L44.0538 22.509L43.9396 22.2374L44.0098 21.948L44.2547 21.7546L44.4252 21.5447L44.4858 20.9193L44.5945 20.6024L44.798 20.302L44.8655 20.0112L44.6357 19.789L44.5848 19.4077L44.6344 19.0922L44.765 18.8768L44.9714 19.0195L45.186 19.1512L45.3965 19.1375L45.5423 19.0853L45.5684 18.9221L45.53 18.6382L45.541 18.117L45.8078 17.7L46.2357 17.4133L46.6387 17.2761L48.1493 17.043L50.5374 16.4463L51.2446 16.2159L51.5045 16.0965L51.7233 15.9305L52.0934 15.4011L52.7881 14.5657L53.2751 13.8799L54.3013 12.88L55.1199 11.9527L55.2299 11.7785L55.3661 11.2724L55.3771 11.0337L55.3523 10.7923L55.4611 10.6798L55.6206 10.6126H55.6592L55.7802 10.7182L56.065 10.865L56.2769 11.0543L56.4199 11.2984L56.5217 11.5261L56.53 11.7209L56.6593 11.88L57.0211 11.9074L57.138 12.1077L57.3898 12.452L57.6209 12.7002L57.7626 12.7963L57.9387 12.7442L58.2125 12.5178L58.4105 12.2408L58.544 11.8663L58.4394 11.8114L58.6238 11.5288L58.6582 11.3807L58.5728 11.2449L58.4642 11.1091L58.423 10.7676L58.3472 10.3328L58.2963 10.1352L58.4409 9.99397L58.7517 9.81426L59.0626 9.6058L59.3777 9.43844L59.3859 9.74021L59.3777 10.2381L59.4726 10.6551L59.6872 11.393L59.9321 11.4932L60.2265 11.559L60.3971 11.5385L60.5071 11.4891L60.536 11.4301L60.353 11.1407L60.3049 10.4589L60.1549 10.0118L59.9252 9.56599L59.8165 9.43982L60.7231 9.31362L60.9253 9.17372L61.2817 8.86781L61.4164 8.69635L61.5224 8.30957L61.078 8.08051L60.9033 7.78694L60.8923 7.47011L61.4233 6.8803L61.6077 6.73898L61.6875 6.94887L61.9213 7.00236L62.1359 7.01061L62.3519 6.99826L62.6628 6.7006L62.8224 6.27262L63.3672 5.66775L63.5612 5.20411L63.6712 4.71853L65.0469 3.20969L65.2147 2.97515L66.0319 1.45672L66.1337 1.40595L66.3524 1.55275L66.4171 2.03556L66.3882 2.24541L66.2548 2.55818L66.1791 2.88461L66.2727 2.87778L66.6619 2.67887L67.0678 2.14804L67.2976 1.68854L67.4929 1.48829L67.885 1.60076L67.9716 1.6803L67.9441 2.01087L67.9813 2.20292L68.1312 2.61302L68.4641 2.86267L68.9236 3.01906L69.3501 3.24674L69.4904 3.39626L69.5812 3.57592L69.6747 3.87087L69.6816 4.16987L69.3734 4.46206L69.5042 4.93528L69.4835 5.21097L69.379 5.44689L68.9305 5.66226L70.1535 5.44827L70.4547 5.32617L70.873 5.01482L71.0958 5.28368L71.3049 5.74866L71.1371 5.86524L70.6047 6.0367L70.5786 6.10665L70.7547 6.34809L70.9762 6.32478L71.415 6.16291L71.8181 5.90777L72.0134 5.91053L72.2198 5.96265L72.6174 6.12724L72.8402 6.26027L73.0301 6.43173L73.1525 6.787L73.6119 6.91597L74.5529 7.41385L74.7277 7.45638L74.9106 7.46596L75.4059 7.40564L75.5806 7.47559L75.7044 7.65525L75.7457 7.87749L75.7319 8.11617L75.681 8.29722L75.5655 8.44674L75.2284 8.67442L74.3796 8.97208L73.451 9.19838L72.9846 9.18331L72.3298 8.98991L72.0918 9.01461L71.8607 9.10373L71.5718 9.71962L72.1069 10.3328L73.0273 10.9706L73.1538 11.1297L73.1208 11.3259L72.9751 11.4424L72.7797 11.5069L72.2624 11.6084L71.7397 11.6838L71.3091 11.7936L70.8867 11.9362L70.4534 11.8869L69.8563 11.6016L69.6844 11.581L69.5027 11.7278L69.3253 12.1283L69.218 12.2284ZM9.47712 4.27276L10.1443 4.42225L10.4002 4.54297L11.15 5.73359L12.1377 6.57029L12.5573 6.88302L12.8806 7.03116L13.3222 7.47831L13.7074 8.0407L14.5521 9.62225L14.6979 10.3163L14.7557 11.3752L14.57 12.9718L14.3429 13.7674L14.387 14.1432L14.6979 14.7194L14.6043 15.2639L14.6649 15.7165L14.6429 16.9703L14.8189 17.3406L15.0198 17.5765L16.0804 18.32L16.1589 18.5957L16.6816 19.5421L17.6502 21.6023L17.9198 22.5282L17.8895 22.7779L17.7726 22.8807L17.4878 22.9713L17.2498 22.7902L17.1701 22.6613L17.1947 22.4994L17.1012 22.3403L16.8687 22.151L16.7353 21.9809L16.7725 22.2621L16.7738 22.627L16.478 22.6586L16.0997 22.5447L15.6265 22.6476L15.068 23.0947L14.7997 23.1071L14.5961 22.723L14.4915 22.4624L14.325 22.2786L12.5491 21.3363L11.8929 21.0948L11.2023 20.3802L9.64774 19.5915L8.65997 18.822L8.24039 18.3474L7.23062 17.9263L6.79593 17.4297L6.58131 17.3324L6.3667 17.1554L6.59366 16.6726L6.50012 16.1692L6.38324 15.744L5.67062 14.9059L5.32116 14.3216L4.65119 13.7386L4.38292 13.4025L4.12708 13.013L4.28661 12.8758L4.43523 12.7935L4.29904 12.5096L3.91523 12.0172L3.73639 11.4507V10.3808L3.19162 8.87606L2.72527 6.78976L2.80916 6.05868L2.6895 5.26585L2.37992 4.5032L1.97546 3.95865L1.82415 3.50598L1.89704 3.32631L1.98646 2.73785L2.047 2.62127L2.19973 2.56501L2.37304 2.58012L2.69639 3.09173L3.53966 3.40861L3.79416 3.48404L4.12565 3.35783L4.27562 3.43741L4.42701 3.56772L4.51366 3.93257L4.73516 4.26452L5.17808 4.21651L5.33493 4.26452L5.42712 4.2741L5.51377 4.56767L5.55366 5.0779L5.51243 5.37418L5.19319 5.79806L5.15062 6.08609L5.31838 6.26442L5.53577 6.45505L5.66096 6.60185L5.7917 6.57715L5.95678 6.4784L6.10808 6.22875L6.21262 6.01476L6.78081 5.77608L7.36824 5.56075L7.44801 5.58269L7.54289 5.67733L7.73005 5.99007L7.84004 6.05591L7.99823 6.08748L8.27339 6.05453L8.59254 5.87759L8.76039 5.54702L8.8347 5.2864L9.29416 4.83511L9.34504 4.49634L9.47712 4.27276ZM0.778614 3.41271L1.051 3.82558L0.914806 4.00938L0.846038 4.06288L0.682305 4.00252L0.525541 4.16029L0.375578 4.19181L0.225616 3.90653L0.0398837 3.79267L0 3.59514L0.248958 3.56085L0.397577 3.62942L0.676847 3.49229L0.778614 3.41271ZM2.48035 7.91453L2.38404 8.02153L2.10342 7.95978L2.15296 7.33017L2.3125 7.24925L2.56288 7.36311L2.67296 7.47011L2.48035 7.91453ZM70.4149 12.168L69.877 12.2421L69.5042 12.2339L69.5729 12.0995L69.5551 11.9225L69.7325 11.8759L69.9375 11.9143L70.4149 12.168ZM6.45612 16.7563L6.26073 16.8262L6.24973 16.7261L6.28416 16.5862L6.42724 16.4531L6.49323 16.5286L6.45612 16.7563ZM17.6639 17.7398L17.4768 17.7795L17.375 17.7535L17.3062 17.604L17.463 17.2611L17.5208 17.2035L17.6694 17.5765L17.6639 17.7398ZM45.3387 18.9509L45.2204 19.0017L45.0374 18.8659L44.9948 17.7041L45.1227 17.5998L45.2066 17.6149L45.296 17.8262L45.2878 18.3351L45.3043 18.785L45.3387 18.9509Z" fill="var(--fill-0, #71B219)" stroke="var(--stroke-0, white)" mask="url(#path-1-inside-1_0_132)"/>
</g>
</svg>
