<svg preserveAspectRatio="none" width="100%" height="100%" overflow="visible" style="display: block;" viewBox="0 0 76 25" fill="none" xmlns="http://www.w3.org/2000/svg"><g id="MY"><mask id="path-1-inside-1_0_132" fill="white"><path d="M68 1L67 1L67 1L67 0L68 0L68 0L68 0L68 0L68 1L68 1ZM69 12L69 12L69 12L68 12L67 12L66 12L66 12L66 12L65 12L65 12L65 12L65 12L65 12L64 12L64 12L64 12L63 12L63 12L63 12L62 12L62 12L62 12L62 13L62 13L62 13L61 14L61 14L62 15L62 15L61 15L61 15L61 16L61 16L61 16L61 17L61 17L60 17L60 17L60 17L60 17L60 17L60 18L60 18L60 18L60 18L60 18L60 18L60 18L60 18L60 19L60 19L59 19L59 20L58 20L58 20L58 20L58 20L59 20L59 21L59 21L58 21L58 21L58 21L58 21L58 22L58 22L58 22L58 23L57 23L57 22L56 23L56 23L55 23L55 23L55 23L54 23L54 23L54 24L54 23L53 23L53 23L52 23L52 23L52 23L52 23L52 22L52 22L51 22L50 22L49 22L49 22L48 23L48 23L48 23L48 24L47 24L47 24L47 24L46 24L46 24L46 24L46 24L45 24L44 24L44 24L44 24L42 25L42 25L42 25L42 25L41 24L40 24L40 24L40 23L40 23L40 23L39 23L39 22L39 22L39 21L38 21L38 21L38 21L38 20L39 21L39 21L39 21L40 22L40 22L41 22L41 22L41 22L42 22L43 22L43 22L43 22L44 22L44 23L44 23L45 23L44 23L44 22L44 22L44 22L44 22L44 22L44 21L45 21L45 20L45 20L45 20L45 19L45 19L45 19L45 19L45 19L45 19L46 19L46 19L46 19L46 18L46 18L46 17L47 17L48 17L50 16L51 16L52 16L52 16L52 15L53 15L53 14L54 13L55 12L55 12L55 11L55 11L55 11L56 11L56 11H56L56 11L56 11L56 11L56 11L56 12L56 12L57 12L57 12L57 12L57 12L58 13L58 13L58 13L58 12L58 12L58 12L58 12L59 12L59 11L59 11L58 11L58 11L58 10L58 10L58 10L59 10L59 10L59 9L59 10L59 10L60 11L60 11L60 12L60 12L60 12L60 12L60 11L60 11L60 10L60 10L60 10L60 9L61 9L61 9L61 9L61 9L62 8L61 8L61 8L61 8L61 7L62 7L62 7L62 7L62 7L62 7L63 7L63 6L63 6L64 5L64 5L65 3L65 3L66 2L66 1L66 2L66 2L66 2L66 3L66 3L66 3L67 3L67 2L67 2L68 2L68 2L68 2L68 2L68 2L68 3L68 3L69 3L69 3L70 3L70 4L70 4L70 4L69 4L70 5L70 5L69 5L69 6L70 5L70 5L71 5L71 5L71 6L71 6L71 6L71 6L71 6L71 6L71 6L72 6L72 6L72 6L73 6L73 6L73 6L73 7L74 7L75 7L75 8L75 8L75 7L76 8L76 8L76 8L76 8L76 8L76 8L75 9L74 9L74 9L73 9L72 9L72 9L72 9L72 10L72 10L73 11L73 11L73 11L73 11L73 12L72 12L72 12L71 12L71 12L70 12L70 12L70 12L70 12L69 12L69 12ZM10 4L10 4L10 4L11 6L12 7L13 7L13 7L13 8L14 8L15 10L15 10L15 11L15 13L14 14L14 14L15 15L15 15L15 16L15 17L15 17L15 18L16 18L16 19L17 20L18 22L18 22L18 23L18 23L18 23L17 23L17 23L17 22L17 22L17 22L17 22L17 22L17 23L16 23L16 22L16 23L15 23L15 23L15 23L14 22L14 22L12 21L12 21L11 20L10 20L9 19L8 18L7 18L7 17L7 17L6 17L7 17L6 16L6 16L6 15L5 14L5 14L4 13L4 13L4 13L4 13L4 12L4 12L4 12V10L3 9L3 7L3 6L3 5L2 4L2 4L2 4L2 3L2 3L2 3L2 3L2 3L3 3L4 3L4 4L4 3L4 3L4 4L4 4L5 4L5 4L5 4L5 4L6 5L6 5L6 5L5 6L5 6L5 6L6 6L6 7L6 7L6 6L6 6L6 6L7 6L7 6L7 6L8 6L8 6L8 6L8 6L8 6L9 6L9 6L9 5L9 5L9 4L10 4ZM1 3L1 4L1 4L1 4L1 4L0 4L0 4L0 4L0 4L0 4L0 4L0 4L1 4L1 3ZM2 8L2 8L2 8L2 7L2 7L3 7L3 8L2 8ZM70 12L70 12L70 12L70 12L70 12L70 12L70 12L70 12ZM6 17L6 17L6 17L6 17L6 16L6 16L6 17ZM18 18L18 18L17 18L17 18L18 17L18 17L18 18L18 18ZM45 19L45 19L45 19L45 18L45 18L45 18L45 18L45 18L45 19L45 19Z"/></mask><path d="M68 1L67 1L67 1L67 0L68 0L68 0L68 0L68 0L68 1L68 1ZM69 12L69 12L69 12L68 12L67 12L66 12L66 12L66 12L65 12L65 12L65 12L65 12L65 12L64 12L64 12L64 12L63 12L63 12L63 12L62 12L62 12L62 12L62 13L62 13L62 13L61 14L61 14L62 15L62 15L61 15L61 15L61 16L61 16L61 16L61 17L61 17L60 17L60 17L60 17L60 17L60 17L60 18L60 18L60 18L60 18L60 18L60 18L60 18L60 18L60 19L60 19L59 19L59 20L58 20L58 20L58 20L58 20L59 20L59 21L59 21L58 21L58 21L58 21L58 21L58 22L58 22L58 22L58 23L57 23L57 22L56 23L56 23L55 23L55 23L55 23L54 23L54 23L54 24L54 23L53 23L53 23L52 23L52 23L52 23L52 23L52 22L52 22L51 22L50 22L49 22L49 22L48 23L48 23L48 23L48 24L47 24L47 24L47 24L46 24L46 24L46 24L46 24L45 24L44 24L44 24L44 24L42 25L42 25L42 25L42 25L41 24L40 24L40 24L40 23L40 23L40 23L39 23L39 22L39 22L39 21L38 21L38 21L38 21L38 20L39 21L39 21L39 21L40 22L40 22L41 22L41 22L41 22L42 22L43 22L43 22L43 22L44 22L44 23L44 23L45 23L44 23L44 22L44 22L44 22L44 22L44 22L44 21L45 21L45 20L45 20L45 20L45 19L45 19L45 19L45 19L45 19L45 19L46 19L46 19L46 19L46 18L46 18L46 17L47 17L48 17L50 16L51 16L52 16L52 16L52 15L53 15L53 14L54 13L55 12L55 12L55 11L55 11L55 11L56 11L56 11H56L56 11L56 11L56 11L56 11L56 12L56 12L57 12L57 12L57 12L57 12L58 13L58 13L58 13L58 12L58 12L58 12L58 12L59 12L59 11L59 11L58 11L58 11L58 10L58 10L58 10L59 10L59 10L59 9L59 10L59 10L60 11L60 11L60 12L60 12L60 12L60 12L60 11L60 11L60 10L60 10L60 10L60 9L61 9L61 9L61 9L61 9L62 8L61 8L61 8L61 8L61 7L62 7L62 7L62 7L62 7L62 7L63 7L63 6L63 6L64 5L64 5L65 3L65 3L66 2L66 1L66 2L66 2L66 2L66 3L66 3L66 3L67 3L67 2L67 2L68 2L68 2L68 2L68 2L68 2L68 3L68 3L69 3L69 3L70 3L70 4L70 4L70 4L69 4L70 5L70 5L69 5L69 6L70 5L70 5L71 5L71 5L71 6L71 6L71 6L71 6L71 6L71 6L71 6L72 6L72 6L72 6L73 6L73 6L73 6L73 7L74 7L75 7L75 8L75 8L75 7L76 8L76 8L76 8L76 8L76 8L76 8L75 9L74 9L74 9L73 9L72 9L72 9L72 9L72 10L72 10L73 11L73 11L73 11L73 11L73 12L72 12L72 12L71 12L71 12L70 12L70 12L70 12L70 12L69 12L69 12ZM10 4L10 4L10 4L11 6L12 7L13 7L13 7L13 8L14 8L15 10L15 10L15 11L15 13L14 14L14 14L15 15L15 15L15 16L15 17L15 17L15 18L16 18L16 19L17 20L18 22L18 22L18 23L18 23L18 23L17 23L17 23L17 22L17 22L17 22L17 22L17 22L17 23L16 23L16 22L16 23L15 23L15 23L15 23L14 22L14 22L12 21L12 21L11 20L10 20L9 19L8 18L7 18L7 17L7 17L6 17L7 17L6 16L6 16L6 15L5 14L5 14L4 13L4 13L4 13L4 13L4 12L4 12L4 12V10L3 9L3 7L3 6L3 5L2 4L2 4L2 4L2 3L2 3L2 3L2 3L2 3L3 3L4 3L4 4L4 3L4 3L4 4L4 4L5 4L5 4L5 4L5 4L6 5L6 5L6 5L5 6L5 6L5 6L6 6L6 7L6 7L6 6L6 6L6 6L7 6L7 6L7 6L8 6L8 6L8 6L8 6L8 6L9 6L9 6L9 5L9 5L9 4L10 4ZM1 3L1 4L1 4L1 4L1 4L0 4L0 4L0 4L0 4L0 4L0 4L0 4L1 4L1 3ZM2 8L2 8L2 8L2 7L2 7L3 7L3 8L2 8ZM70 12L70 12L70 12L70 12L70 12L70 12L70 12L70 12ZM6 17L6 17L6 17L6 17L6 16L6 16L6 17ZM18 18L18 18L17 18L17 18L18 17L18 17L18 18L18 18ZM45 19L45 19L45 19L45 18L45 18L45 18L45 18L45 18L45 19L45 19Z" fill="var(--fill-0,#71B219)" stroke="var(--stroke-0,white)" mask="url(#path-1-inside-1_0_132)"/></g></svg>