<svg preserveAspectRatio="none" width="100%" height="100%" overflow="visible" style="display: block;" viewBox="0 0 41.0163 66.5107" fill="none" xmlns="http://www.w3.org/2000/svg">
<g id="MZ">
<mask id="path-1-inside-1_0_163" fill="white">
<path d="M10.2819 66.4585L9.85824 66.4654L9.1332 66.486L8.70396 66.4983L8.22385 66.5107L7.62962 66.39L7.29527 66.416L7.26781 65.0458L7.15908 64.7453L7.04489 64.3064L7.01743 64.0252L7.08897 63.7427L7.12331 63.2955L7.09165 62.9032L6.73673 62.707L6.65831 62.6453L6.58131 62.3381L6.551 61.8635L6.80004 61.2613L6.77939 60.105L6.80827 59.699L6.80416 58.8965L6.7987 57.9268L6.7945 57.0585L6.80416 56.3109L6.72985 55.9571L6.66796 55.7623L6.50289 55.3672L6.31027 54.5456L6.08331 53.9256L5.79161 53.5169L5.6995 53.3015L5.60597 53.0148L5.32938 52.5073L5.10377 52.2124L5.04189 51.9765L5.0502 51.3661L4.79838 50.2729L4.61542 49.4773L4.34027 48.6159L4.15596 48.0412L4.12842 47.9424L4.10777 47.7243L4.65531 47.2977L5.20285 46.697L5.84393 45.9947L6.41624 45.3678L6.91969 44.8178L7.60897 44.0661L8.28993 43.324L8.44946 43.2294L8.51689 43.169L8.2225 42.5107L8.69573 41.7466L8.72185 41.2501L8.70128 40.7755L8.75904 40.5574L8.90212 40.3668L9.45512 39.9703L9.87335 39.3393L10.2158 38.7495L10.6918 37.8031L10.7386 37.5795L10.7455 37.3504L10.6162 37.0281L10.2998 36.511L10.0701 36.0638L9.86512 35.3766L10.0714 34.78L10.1443 34.4192V34.2244L10.0535 34.0406L9.82247 33.9007L9.62985 33.8102L9.5652 33.5633L9.56377 33.2711L9.65051 33.1093L10.1622 32.8473L10.2778 32.7046L10.3384 32.5455L10.3438 32.3192L10.502 31.7527L10.6974 31.215L10.7112 31.0257L10.6423 30.8597L10.5887 30.5566L10.5543 30.0998L10.5515 28.8228L10.652 27.5074L10.608 26.7625L10.2805 25.9066L10.2489 25.2894L10.4869 24.8587L10.5254 24.6049L10.352 24.572L9.99443 24.5459L9.73028 24.4664L9.3217 24.1139L8.61185 23.8203L7.8057 23.5528L6.63354 23.4733L5.65962 22.6174L4.89612 22.4802L4.64985 22.3705L3.91658 21.8575L2.76784 21.8095L1.57654 21.7587L0.833695 21.7436L0.723616 21.6751L0.680961 20.9686L0.672733 20.3418L0.609423 19.7972L0.496573 19.1772L0.323268 18.9358L0.11688 18.5175L0.012343 18.0566L0 17.833L0.0385402 17.7535L0.865266 17.4256L1.21885 17.2638L1.74296 17.0759L2.67573 16.8166L3.508 16.5848L4.2715 16.3599L5.08043 16.1212L5.40924 15.9607L5.81781 15.8002L6.79593 15.4779L7.0752 15.3668L7.63642 15.1871L7.91846 15.1171L9.00112 14.7481L10.242 14.3257L10.6767 14.1775L11.5063 13.895L11.6673 14.0116L12.2326 14.9827L12.677 15.5547L13.1833 16.0841L13.2686 16.0581L13.4144 15.9346L13.6675 15.8839L14.4723 15.7645L14.779 15.7577L14.9813 15.615L15.394 15.5149L15.8714 15.4545L16.0351 15.519L16.5385 16.2048L16.6115 16.7288L16.716 17.4873L16.7408 17.8577L16.7325 18.3529L16.6762 18.9729L16.2676 19.6875L16.1892 20.0428L15.9704 20.5928L15.6815 20.8644L15.5384 21.0866L15.5467 21.317L15.7007 21.5104L16.0392 21.8589L16.1437 22.0852L16.1135 22.2854L16.1149 22.5584L16.1961 22.7477L16.2924 22.8574L16.6266 23.0358L16.954 23.4843L17.5181 24.0261L18.1922 24.7983L18.5085 25.0356L18.7576 25.0933L18.8814 25.3511L18.8126 25.6529L18.6186 25.8243L18.6984 26.0712L18.8085 26.2002L18.9309 26.266L19.2267 26.2811L19.5018 26.2303L19.5706 26.1439L19.5349 24.9876L19.3367 24.3141L19.1373 24.0508L19.0946 23.9987L19.1647 23.7778L19.3862 23.262L19.5747 22.7504L19.6944 22.5351L19.8334 22.4048L20.7634 22.2662L21.1871 22.1469L21.3659 21.9974L21.5049 21.601L21.6163 20.494L21.6562 19.4557L21.5599 18.848L21.6933 17.9332L21.8969 17.3666L21.7965 17.2555L21.7208 16.4929L21.1155 15.6808L20.3369 14.637L19.9008 14.076L19.4056 13.4382L18.5031 12.4396L18.0903 12.0789L17.873 11.9376L17.1439 11.8224L16.9499 11.6304L16.7656 11.3244L16.6954 10.7593L16.6831 10.3368L16.6005 9.61811L16.4532 8.60309L16.3872 8.30404L16.1795 7.5414L15.9814 6.8158L15.9704 6.63609L16.0405 6.46191L16.3762 5.92832L16.6142 5.54974L16.727 5.34262L16.9292 4.78023L16.9774 4.50726L17.1356 4.38382L17.7808 4.33309L18.2939 4.34267L19.1552 4.33032L20.0644 4.36327L20.1924 4.38796L20.3974 4.44694L20.6285 4.43732L20.8858 4.35778L21.1705 4.16301L21.4828 3.85299L21.9698 3.85986L22.6287 4.18218L22.9892 4.4634L23.0497 4.70342L23.4913 4.84336L24.314 4.88174L24.9124 4.75692L25.288 4.46888L25.6814 4.31663L26.0914 4.2988L26.4009 4.39755L26.6114 4.61154L27.0144 4.76516L27.6115 4.85843L28.2636 4.71987L28.9708 4.35092L29.3738 3.96547L29.4729 3.56496L29.5897 3.32079L29.7246 3.23439L30.0987 3.18499L30.7137 3.17126L31.2488 3.29747L31.9312 3.69661L32.3618 3.43188L33.1005 2.97787L33.8448 2.73785L34.5533 2.73647L35.1352 2.56363L35.5892 2.22071L36.0693 2.00262L36.5755 1.91074L37.0488 1.74476L37.7105 1.38812L38.397 0.869639L39.0958 0.340154L39.5443 0L39.7493 0.400515L40.1166 0.766748L39.8979 0.979354L39.6337 1.17003L40.0602 1.42516L39.7479 1.81057L39.7094 2.07805L39.7891 2.18366L39.8579 2.34005L39.6529 2.78172L39.3806 3.12053L39.3105 3.37977L39.5512 3.83654L39.4273 4.64854L39.6598 5.37967L39.7245 5.7541L39.8057 6.00514L39.6901 6.45367L39.7204 7.21083L39.774 7.52356L39.6351 7.91311L39.8717 8.04757L39.9969 8.4755L39.9639 8.95697L39.891 9.21621L39.4838 9.53033L39.4356 9.65239L39.4411 9.83758L39.9501 9.84306L39.968 10.1297L39.935 10.3561L39.9542 10.7813L39.8869 11.057L40.0052 11.3725L39.8607 11.7222L39.9102 11.9924L39.9171 12.3422L40.0354 13.227L40.0561 14.3215L40.0822 14.4971L40.2638 14.6206L40.5183 14.6823L40.5086 14.9827L40.2253 15.375L40.2087 15.6191L40.25 15.9621L40.561 15.4957L40.748 15.4971L40.9144 15.6795L40.8911 15.9483L40.9489 16.0814L40.9241 16.342L41.0163 16.6726L40.9805 16.9606L40.7521 17.1623L40.4619 17.5079L40.4096 17.8316L40.4371 18.0443L40.2363 18.1114L40.1427 18.2431L40.2789 18.549L40.2707 18.8192L39.9158 19.6614L38.9692 20.815L38.5606 21.2251L38.1783 21.6709V21.8547L38.1411 22.0138L37.6954 22.6516L37.2166 22.7559L36.9511 22.9274L37.1588 23.4898L36.8493 23.6201L36.3114 24.0631L34.8326 24.9149L34.5986 25.1124L34.2231 25.635L33.7278 25.7613L33.4528 25.9094L32.9616 25.9628L32.7896 25.9258L32.6218 25.945L32.4801 26.0575L31.5048 26.4251L30.5941 26.7159L30.3698 26.849L30.2213 27.03L29.4151 27.3181L28.1522 28.03L27.1191 28.7103L26.3707 29.3907L26.1725 29.4936L25.9414 29.7295L25.863 30.0778L25.7874 30.2754L25.2329 30.9942L24.3992 31.8446L24.2369 32.0764L23.9054 32.5496L23.8738 32.8596L23.578 32.9542L23.3304 32.658L23.2245 33.23L23.0222 33.2711L22.7979 33.1531L22.2381 33.4371L21.751 33.7649L20.9697 34.4549L19.865 35.7936L18.254 37.0885L18.034 37.1255L17.8854 37.12L17.3778 36.6687L17.1012 36.6358L17.3488 36.9033L17.5125 37.1269L17.4713 37.5644L17.4905 38.2214L17.291 39.5012L17.3186 39.7811L17.5483 40.1445L17.9817 40.5889L18.3875 41.1431L18.9102 42.7369L18.9501 43.56L19.4894 44.612L19.5101 45.0688L19.7288 46.2059L19.7137 47.1276L19.6752 47.6928L19.9351 47.9314L20.0314 47.7161L20.004 47.3581L20.0727 46.7847L20.2172 46.5296L20.3616 46.5653L20.4042 46.8355L20.502 47.0756L20.5419 47.3005L20.5487 47.6063L20.3492 48.7709L20.4084 49.2455L20.6766 50.0397L20.363 50.9628L19.909 53.1438L19.8829 53.5224L19.993 53.687L20.2364 53.7432L20.3258 53.4634L20.4689 53.4661L20.5446 53.6307L20.3424 54.6402L20.1429 55.0834L19.4344 56.171L19.0533 56.6374L18.4206 57.0969L16.9348 57.8156L13.9564 58.8568L12.776 59.3684L12.0703 59.6743L10.5791 60.6468L9.92701 61.2997L9.65874 62.05L9.40147 62.3929L9.14831 62.8291L9.36847 63.2036L9.58443 63.4875L9.84035 63.6782L9.97235 63.8428L10.1457 63.9566L10.319 63.3668L10.4057 63.183L10.5543 63.1693L10.4718 63.888L10.2998 66.3625L10.2819 66.4585ZM17.3599 6.42487L17.463 6.33847L17.5029 6.22461L17.5015 6.11351L17.4369 6.0449L17.3434 6.00514L17.2085 6.02845L17.1604 6.17936L17.1397 6.38782L17.225 6.45777L17.3599 6.42487ZM17.06 6.04629L16.9925 5.93243L16.866 5.87893L16.7215 5.92284L16.6734 6.0655L16.8234 6.24931L16.9829 6.25203L17.06 6.04629Z"/>
</mask>
<path d="M10.2819 66.4585L9.85824 66.4654L9.1332 66.486L8.70396 66.4983L8.22385 66.5107L7.62962 66.39L7.29527 66.416L7.26781 65.0458L7.15908 64.7453L7.04489 64.3064L7.01743 64.0252L7.08897 63.7427L7.12331 63.2955L7.09165 62.9032L6.73673 62.707L6.65831 62.6453L6.58131 62.3381L6.551 61.8635L6.80004 61.2613L6.77939 60.105L6.80827 59.699L6.80416 58.8965L6.7987 57.9268L6.7945 57.0585L6.80416 56.3109L6.72985 55.9571L6.66796 55.7623L6.50289 55.3672L6.31027 54.5456L6.08331 53.9256L5.79161 53.5169L5.6995 53.3015L5.60597 53.0148L5.32938 52.5073L5.10377 52.2124L5.04189 51.9765L5.0502 51.3661L4.79838 50.2729L4.61542 49.4773L4.34027 48.6159L4.15596 48.0412L4.12842 47.9424L4.10777 47.7243L4.65531 47.2977L5.20285 46.697L5.84393 45.9947L6.41624 45.3678L6.91969 44.8178L7.60897 44.0661L8.28993 43.324L8.44946 43.2294L8.51689 43.169L8.2225 42.5107L8.69573 41.7466L8.72185 41.2501L8.70128 40.7755L8.75904 40.5574L8.90212 40.3668L9.45512 39.9703L9.87335 39.3393L10.2158 38.7495L10.6918 37.8031L10.7386 37.5795L10.7455 37.3504L10.6162 37.0281L10.2998 36.511L10.0701 36.0638L9.86512 35.3766L10.0714 34.78L10.1443 34.4192V34.2244L10.0535 34.0406L9.82247 33.9007L9.62985 33.8102L9.5652 33.5633L9.56377 33.2711L9.65051 33.1093L10.1622 32.8473L10.2778 32.7046L10.3384 32.5455L10.3438 32.3192L10.502 31.7527L10.6974 31.215L10.7112 31.0257L10.6423 30.8597L10.5887 30.5566L10.5543 30.0998L10.5515 28.8228L10.652 27.5074L10.608 26.7625L10.2805 25.9066L10.2489 25.2894L10.4869 24.8587L10.5254 24.6049L10.352 24.572L9.99443 24.5459L9.73028 24.4664L9.3217 24.1139L8.61185 23.8203L7.8057 23.5528L6.63354 23.4733L5.65962 22.6174L4.89612 22.4802L4.64985 22.3705L3.91658 21.8575L2.76784 21.8095L1.57654 21.7587L0.833695 21.7436L0.723616 21.6751L0.680961 20.9686L0.672733 20.3418L0.609423 19.7972L0.496573 19.1772L0.323268 18.9358L0.11688 18.5175L0.012343 18.0566L0 17.833L0.0385402 17.7535L0.865266 17.4256L1.21885 17.2638L1.74296 17.0759L2.67573 16.8166L3.508 16.5848L4.2715 16.3599L5.08043 16.1212L5.40924 15.9607L5.81781 15.8002L6.79593 15.4779L7.0752 15.3668L7.63642 15.1871L7.91846 15.1171L9.00112 14.7481L10.242 14.3257L10.6767 14.1775L11.5063 13.895L11.6673 14.0116L12.2326 14.9827L12.677 15.5547L13.1833 16.0841L13.2686 16.0581L13.4144 15.9346L13.6675 15.8839L14.4723 15.7645L14.779 15.7577L14.9813 15.615L15.394 15.5149L15.8714 15.4545L16.0351 15.519L16.5385 16.2048L16.6115 16.7288L16.716 17.4873L16.7408 17.8577L16.7325 18.3529L16.6762 18.9729L16.2676 19.6875L16.1892 20.0428L15.9704 20.5928L15.6815 20.8644L15.5384 21.0866L15.5467 21.317L15.7007 21.5104L16.0392 21.8589L16.1437 22.0852L16.1135 22.2854L16.1149 22.5584L16.1961 22.7477L16.2924 22.8574L16.6266 23.0358L16.954 23.4843L17.5181 24.0261L18.1922 24.7983L18.5085 25.0356L18.7576 25.0933L18.8814 25.3511L18.8126 25.6529L18.6186 25.8243L18.6984 26.0712L18.8085 26.2002L18.9309 26.266L19.2267 26.2811L19.5018 26.2303L19.5706 26.1439L19.5349 24.9876L19.3367 24.3141L19.1373 24.0508L19.0946 23.9987L19.1647 23.7778L19.3862 23.262L19.5747 22.7504L19.6944 22.5351L19.8334 22.4048L20.7634 22.2662L21.1871 22.1469L21.3659 21.9974L21.5049 21.601L21.6163 20.494L21.6562 19.4557L21.5599 18.848L21.6933 17.9332L21.8969 17.3666L21.7965 17.2555L21.7208 16.4929L21.1155 15.6808L20.3369 14.637L19.9008 14.076L19.4056 13.4382L18.5031 12.4396L18.0903 12.0789L17.873 11.9376L17.1439 11.8224L16.9499 11.6304L16.7656 11.3244L16.6954 10.7593L16.6831 10.3368L16.6005 9.61811L16.4532 8.60309L16.3872 8.30404L16.1795 7.5414L15.9814 6.8158L15.9704 6.63609L16.0405 6.46191L16.3762 5.92832L16.6142 5.54974L16.727 5.34262L16.9292 4.78023L16.9774 4.50726L17.1356 4.38382L17.7808 4.33309L18.2939 4.34267L19.1552 4.33032L20.0644 4.36327L20.1924 4.38796L20.3974 4.44694L20.6285 4.43732L20.8858 4.35778L21.1705 4.16301L21.4828 3.85299L21.9698 3.85986L22.6287 4.18218L22.9892 4.4634L23.0497 4.70342L23.4913 4.84336L24.314 4.88174L24.9124 4.75692L25.288 4.46888L25.6814 4.31663L26.0914 4.2988L26.4009 4.39755L26.6114 4.61154L27.0144 4.76516L27.6115 4.85843L28.2636 4.71987L28.9708 4.35092L29.3738 3.96547L29.4729 3.56496L29.5897 3.32079L29.7246 3.23439L30.0987 3.18499L30.7137 3.17126L31.2488 3.29747L31.9312 3.69661L32.3618 3.43188L33.1005 2.97787L33.8448 2.73785L34.5533 2.73647L35.1352 2.56363L35.5892 2.22071L36.0693 2.00262L36.5755 1.91074L37.0488 1.74476L37.7105 1.38812L38.397 0.869639L39.0958 0.340154L39.5443 0L39.7493 0.400515L40.1166 0.766748L39.8979 0.979354L39.6337 1.17003L40.0602 1.42516L39.7479 1.81057L39.7094 2.07805L39.7891 2.18366L39.8579 2.34005L39.6529 2.78172L39.3806 3.12053L39.3105 3.37977L39.5512 3.83654L39.4273 4.64854L39.6598 5.37967L39.7245 5.7541L39.8057 6.00514L39.6901 6.45367L39.7204 7.21083L39.774 7.52356L39.6351 7.91311L39.8717 8.04757L39.9969 8.4755L39.9639 8.95697L39.891 9.21621L39.4838 9.53033L39.4356 9.65239L39.4411 9.83758L39.9501 9.84306L39.968 10.1297L39.935 10.3561L39.9542 10.7813L39.8869 11.057L40.0052 11.3725L39.8607 11.7222L39.9102 11.9924L39.9171 12.3422L40.0354 13.227L40.0561 14.3215L40.0822 14.4971L40.2638 14.6206L40.5183 14.6823L40.5086 14.9827L40.2253 15.375L40.2087 15.6191L40.25 15.9621L40.561 15.4957L40.748 15.4971L40.9144 15.6795L40.8911 15.9483L40.9489 16.0814L40.9241 16.342L41.0163 16.6726L40.9805 16.9606L40.7521 17.1623L40.4619 17.5079L40.4096 17.8316L40.4371 18.0443L40.2363 18.1114L40.1427 18.2431L40.2789 18.549L40.2707 18.8192L39.9158 19.6614L38.9692 20.815L38.5606 21.2251L38.1783 21.6709V21.8547L38.1411 22.0138L37.6954 22.6516L37.2166 22.7559L36.9511 22.9274L37.1588 23.4898L36.8493 23.6201L36.3114 24.0631L34.8326 24.9149L34.5986 25.1124L34.2231 25.635L33.7278 25.7613L33.4528 25.9094L32.9616 25.9628L32.7896 25.9258L32.6218 25.945L32.4801 26.0575L31.5048 26.4251L30.5941 26.7159L30.3698 26.849L30.2213 27.03L29.4151 27.3181L28.1522 28.03L27.1191 28.7103L26.3707 29.3907L26.1725 29.4936L25.9414 29.7295L25.863 30.0778L25.7874 30.2754L25.2329 30.9942L24.3992 31.8446L24.2369 32.0764L23.9054 32.5496L23.8738 32.8596L23.578 32.9542L23.3304 32.658L23.2245 33.23L23.0222 33.2711L22.7979 33.1531L22.2381 33.4371L21.751 33.7649L20.9697 34.4549L19.865 35.7936L18.254 37.0885L18.034 37.1255L17.8854 37.12L17.3778 36.6687L17.1012 36.6358L17.3488 36.9033L17.5125 37.1269L17.4713 37.5644L17.4905 38.2214L17.291 39.5012L17.3186 39.7811L17.5483 40.1445L17.9817 40.5889L18.3875 41.1431L18.9102 42.7369L18.9501 43.56L19.4894 44.612L19.5101 45.0688L19.7288 46.2059L19.7137 47.1276L19.6752 47.6928L19.9351 47.9314L20.0314 47.7161L20.004 47.3581L20.0727 46.7847L20.2172 46.5296L20.3616 46.5653L20.4042 46.8355L20.502 47.0756L20.5419 47.3005L20.5487 47.6063L20.3492 48.7709L20.4084 49.2455L20.6766 50.0397L20.363 50.9628L19.909 53.1438L19.8829 53.5224L19.993 53.687L20.2364 53.7432L20.3258 53.4634L20.4689 53.4661L20.5446 53.6307L20.3424 54.6402L20.1429 55.0834L19.4344 56.171L19.0533 56.6374L18.4206 57.0969L16.9348 57.8156L13.9564 58.8568L12.776 59.3684L12.0703 59.6743L10.5791 60.6468L9.92701 61.2997L9.65874 62.05L9.40147 62.3929L9.14831 62.8291L9.36847 63.2036L9.58443 63.4875L9.84035 63.6782L9.97235 63.8428L10.1457 63.9566L10.319 63.3668L10.4057 63.183L10.5543 63.1693L10.4718 63.888L10.2998 66.3625L10.2819 66.4585ZM17.3599 6.42487L17.463 6.33847L17.5029 6.22461L17.5015 6.11351L17.4369 6.0449L17.3434 6.00514L17.2085 6.02845L17.1604 6.17936L17.1397 6.38782L17.225 6.45777L17.3599 6.42487ZM17.06 6.04629L16.9925 5.93243L16.866 5.87893L16.7215 5.92284L16.6734 6.0655L16.8234 6.24931L16.9829 6.25203L17.06 6.04629Z" fill="var(--fill-0, #71B219)" stroke="var(--stroke-0, white)" mask="url(#path-1-inside-1_0_163)"/>
</g>
</svg>
