<svg preserveAspectRatio="none" width="100%" height="100%" overflow="visible" style="display: block;" viewBox="0 0 41 66" fill="none" xmlns="http://www.w3.org/2000/svg"><g id="MZ"><mask id="path-1-inside-1_0_163" fill="white"><path d="M10 66L10 66L9 66L9 66L8 66L8 66L7 66L7 65L7 65L7 64L7 64L7 64L7 63L7 63L7 63L7 63L7 62L7 62L7 61L7 60L7 60L7 59L7 58L7 57L7 56L7 56L7 56L6 55L6 54L6 54L6 54L6 53L6 53L5 52L5 52L5 52L5 51L5 50L5 50L4 49L4 48L4 48L4 48L5 47L5 47L6 46L6 45L7 45L8 44L8 43L8 43L8 43L8 42L9 42L9 41L9 41L9 41L9 40L10 40L10 39L10 39L11 38L11 38L11 37L11 37L10 36L10 36L10 35L10 35L10 34V34L10 34L10 34L10 34L10 34L10 33L10 33L10 33L10 33L10 32L10 32L10 32L11 31L11 31L11 31L11 31L11 30L11 29L11 28L11 27L10 26L10 25L10 25L10 25L10 25L10 24L10 24L9 24L9 24L8 24L7 24L6 23L5 22L5 22L4 22L3 22L2 22L1 22L1 22L1 21L1 20L1 20L0 19L0 19L0 18L0 18L0 18L0 18L1 17L1 17L2 17L3 17L4 17L4 16L5 16L5 16L6 16L7 16L7 15L8 15L8 15L9 15L10 14L11 14L12 14L12 14L12 15L13 16L13 16L13 16L13 16L14 16L14 16L15 16L15 16L15 16L16 16L16 16L16 16L17 17L17 18L17 18L17 18L17 19L16 20L16 20L16 21L16 21L16 21L16 21L16 22L16 22L16 22L16 22L16 23L16 23L16 23L17 23L17 24L18 24L18 25L18 25L19 25L19 25L19 26L19 26L19 26L19 26L19 26L19 26L20 26L20 26L20 25L19 24L19 24L19 24L19 24L19 23L20 23L20 22L20 22L21 22L21 22L21 22L22 22L22 20L22 20L22 19L22 18L22 17L22 17L22 16L21 16L20 15L20 14L19 13L18 12L18 12L18 12L17 12L17 12L17 11L17 11L17 10L17 10L16 9L16 8L16 8L16 7L16 7L16 6L16 6L17 6L17 5L17 5L17 4L17 4L18 4L18 4L19 4L20 4L20 4L20 4L21 4L21 4L21 4L22 4L22 4L23 4L23 4L23 5L24 5L24 5L25 5L25 4L26 4L26 4L26 4L27 5L27 5L28 5L28 5L29 4L29 4L30 4L30 3L30 3L30 3L31 3L31 3L32 4L32 3L33 3L34 3L35 3L35 3L36 2L36 2L37 2L37 2L38 1L38 1L39 0L40 0L40 0L40 1L40 1L40 1L40 1L40 2L40 2L40 2L40 2L40 3L39 3L39 3L40 4L39 5L40 5L40 6L40 6L40 6L40 7L40 8L40 8L40 8L40 8L40 9L40 9L40 10L39 10L39 10L40 10L40 10L40 10L40 11L40 11L40 11L40 12L40 12L40 12L40 13L40 14L40 14L40 15L40 15L40 15L40 15L40 16L40 16L41 16L41 16L41 16L41 16L41 16L41 16L41 17L41 17L41 17L40 18L40 18L40 18L40 18L40 18L40 18L40 19L40 20L39 21L39 21L38 22V22L38 22L38 23L37 23L37 23L37 24L37 24L36 24L35 25L35 25L34 26L34 26L34 26L33 26L33 26L33 26L32 26L32 26L31 27L30 27L30 27L29 27L28 28L27 29L26 29L26 30L26 30L26 30L26 30L25 31L24 32L24 32L24 32L24 33L24 33L23 33L23 33L23 33L23 33L22 33L22 34L21 34L20 36L18 37L18 37L18 37L17 37L17 37L17 37L18 37L18 38L18 38L17 40L17 40L18 40L18 41L18 41L19 43L19 44L20 45L20 45L20 46L20 47L20 48L20 48L20 48L20 47L20 47L20 46L20 47L20 47L20 47L20 47L20 48L20 49L20 49L21 50L20 51L20 53L20 54L20 54L20 54L20 54L20 54L20 54L20 55L20 55L19 56L19 57L18 57L17 58L14 59L13 59L12 60L11 61L10 61L10 62L9 62L9 63L9 63L10 64L10 64L10 64L10 64L10 63L10 63L11 63L10 64L10 66L10 66ZM17 6L18 6L18 6L18 6L17 6L17 6L17 6L17 6L17 6L17 6L17 6ZM17 6L17 6L17 6L17 6L17 6L17 6L17 6L17 6Z"/></mask><path d="M10 66L10 66L9 66L9 66L8 66L8 66L7 66L7 65L7 65L7 64L7 64L7 64L7 63L7 63L7 63L7 63L7 62L7 62L7 61L7 60L7 60L7 59L7 58L7 57L7 56L7 56L7 56L6 55L6 54L6 54L6 54L6 53L6 53L5 52L5 52L5 52L5 51L5 50L5 50L4 49L4 48L4 48L4 48L5 47L5 47L6 46L6 45L7 45L8 44L8 43L8 43L8 43L8 42L9 42L9 41L9 41L9 41L9 40L10 40L10 39L10 39L11 38L11 38L11 37L11 37L10 36L10 36L10 35L10 35L10 34V34L10 34L10 34L10 34L10 34L10 33L10 33L10 33L10 33L10 32L10 32L10 32L11 31L11 31L11 31L11 31L11 30L11 29L11 28L11 27L10 26L10 25L10 25L10 25L10 25L10 24L10 24L9 24L9 24L8 24L7 24L6 23L5 22L5 22L4 22L3 22L2 22L1 22L1 22L1 21L1 20L1 20L0 19L0 19L0 18L0 18L0 18L0 18L1 17L1 17L2 17L3 17L4 17L4 16L5 16L5 16L6 16L7 16L7 15L8 15L8 15L9 15L10 14L11 14L12 14L12 14L12 15L13 16L13 16L13 16L13 16L14 16L14 16L15 16L15 16L15 16L16 16L16 16L16 16L17 17L17 18L17 18L17 18L17 19L16 20L16 20L16 21L16 21L16 21L16 21L16 22L16 22L16 22L16 22L16 23L16 23L16 23L17 23L17 24L18 24L18 25L18 25L19 25L19 25L19 26L19 26L19 26L19 26L19 26L19 26L20 26L20 26L20 25L19 24L19 24L19 24L19 24L19 23L20 23L20 22L20 22L21 22L21 22L21 22L22 22L22 20L22 20L22 19L22 18L22 17L22 17L22 16L21 16L20 15L20 14L19 13L18 12L18 12L18 12L17 12L17 12L17 11L17 11L17 10L17 10L16 9L16 8L16 8L16 7L16 7L16 6L16 6L17 6L17 5L17 5L17 4L17 4L18 4L18 4L19 4L20 4L20 4L20 4L21 4L21 4L21 4L22 4L22 4L23 4L23 4L23 5L24 5L24 5L25 5L25 4L26 4L26 4L26 4L27 5L27 5L28 5L28 5L29 4L29 4L30 4L30 3L30 3L30 3L31 3L31 3L32 4L32 3L33 3L34 3L35 3L35 3L36 2L36 2L37 2L37 2L38 1L38 1L39 0L40 0L40 0L40 1L40 1L40 1L40 1L40 2L40 2L40 2L40 2L40 3L39 3L39 3L40 4L39 5L40 5L40 6L40 6L40 6L40 7L40 8L40 8L40 8L40 8L40 9L40 9L40 10L39 10L39 10L40 10L40 10L40 10L40 11L40 11L40 11L40 12L40 12L40 12L40 13L40 14L40 14L40 15L40 15L40 15L40 15L40 16L40 16L41 16L41 16L41 16L41 16L41 16L41 16L41 17L41 17L41 17L40 18L40 18L40 18L40 18L40 18L40 18L40 19L40 20L39 21L39 21L38 22V22L38 22L38 23L37 23L37 23L37 24L37 24L36 24L35 25L35 25L34 26L34 26L34 26L33 26L33 26L33 26L32 26L32 26L31 27L30 27L30 27L29 27L28 28L27 29L26 29L26 30L26 30L26 30L26 30L25 31L24 32L24 32L24 32L24 33L24 33L23 33L23 33L23 33L23 33L22 33L22 34L21 34L20 36L18 37L18 37L18 37L17 37L17 37L17 37L18 37L18 38L18 38L17 40L17 40L18 40L18 41L18 41L19 43L19 44L20 45L20 45L20 46L20 47L20 48L20 48L20 48L20 47L20 47L20 46L20 47L20 47L20 47L20 47L20 48L20 49L20 49L21 50L20 51L20 53L20 54L20 54L20 54L20 54L20 54L20 54L20 55L20 55L19 56L19 57L18 57L17 58L14 59L13 59L12 60L11 61L10 61L10 62L9 62L9 63L9 63L10 64L10 64L10 64L10 64L10 63L10 63L11 63L10 64L10 66L10 66ZM17 6L18 6L18 6L18 6L17 6L17 6L17 6L17 6L17 6L17 6L17 6ZM17 6L17 6L17 6L17 6L17 6L17 6L17 6L17 6Z" fill="var(--fill-0,#71B219)" stroke="var(--stroke-0,white)" mask="url(#path-1-inside-1_0_163)"/></g></svg>