<svg preserveAspectRatio="none" width="100%" height="100%" overflow="visible" style="display: block;" viewBox="0 0 52.2653 49.8861" fill="none" xmlns="http://www.w3.org/2000/svg">
<g id="NA">
<mask id="path-1-inside-1_0_72" fill="white">
<path d="M45.0141 2.69536L45.8409 2.53077L46.6305 2.37295L47.5481 2.21523L48.2827 2.08906L48.4671 2.05616L50.2348 2.20292L51.0052 2.30581L51.2735 2.40728L51.6215 2.67066L52.2653 3.3112L52.1003 3.2865L50.9144 3.4223L50.4632 3.59652L49.4534 4.35234L49.2388 4.25489L48.9967 4.09859L48.7917 4.05329L48.3473 4.23438L47.9044 4.45247L47.416 4.76106L47.013 5.06279L46.8809 5.22604L46.2495 5.85017L46.0431 5.9503L45.8601 5.99417L45.7858 5.96537L45.7074 5.69655L45.3195 5.07108L44.6977 4.25079L44.5161 4.17126L44.3909 4.13969L43.93 4.17946L42.5901 4.41128L41.4593 4.6061L39.7273 4.94072L37.8673 5.20963L36.7214 5.37556L35.7226 5.42496L35.724 6.23696L35.7254 7.88707L35.7281 9.53853L35.7309 11.1955L35.7336 12.8553L35.735 14.5204L35.7378 16.1897L35.7405 17.8645L35.7433 19.5435V20.2774L35.7103 20.4351H35.1379H33.8434H32.7553H31.8748L31.8762 21.4364L31.8776 22.6228V23.8121L31.8789 25.0041L31.8803 26.1974L31.8817 27.3949L31.8831 28.5937L31.8844 29.7967L31.8858 31.001V31.9118V32.016V33.7896V35.6757V37.5686V39.4683V41.3762V43.2912V45.2129V47.1441V47.7573L31.4896 47.7491L30.6931 47.9863L30.1855 48.2949L29.9653 48.6749L29.6737 48.9053L29.3078 48.9876L29.1468 49.181L29.1908 49.4883L29.0492 49.7229L28.7258 49.8861L28.2017 49.8381L27.4781 49.5802L26.5577 49.5198L25.4407 49.6556L24.6359 49.5926L24.1475 49.3279L23.6289 49.1783L23.08 49.1399L22.7608 49.0302L22.1087 48.834L21.985 48.4966L21.9079 48.2429L21.7222 47.9754L21.7016 47.7586L21.8474 47.594L21.868 47.3307L21.7648 46.9658L21.5846 46.7889L21.3288 46.7984L21.1692 46.6585L21.1059 46.3706L20.956 46.1525L20.5969 45.9302L20.1223 46.0975L19.898 46.3513L19.7659 46.7464L19.6463 46.9453L19.5857 47.2758L19.5582 47.5104L19.4372 47.7614L19.3106 47.8629L19.1799 47.8162L18.9364 47.9178L18.3986 48.2867L18.2458 48.4815L17.8125 48.129L16.5469 46.8026L16.097 46.4583L15.4339 45.6476L13.9757 43.143L13.7679 42.6615L13.4901 41.4572L13.1709 40.567L13.1351 40.054L13.2878 39.7632L13.1943 39.3696L13.0305 39.017L12.534 38.5561L12.3922 37.0227L12.0593 36.0337L12.1323 35.2175L11.9727 34.4755L11.9575 34.0009L12.0291 33.0983L11.7622 32.0627L11.2215 31.0532L10.7332 29.5991L10.663 28.9627L10.7153 27.2577L10.6204 26.5623L10.6259 25.7475L10.4332 24.904L10.3535 24.4444L10.4897 24.081L10.5694 24.1962L10.7097 24.251L10.8047 23.7682L10.8267 23.3417L10.5832 22.291L10.0398 21.2183L8.69305 19.4763L8.36424 18.8124L8.17716 18.2637L6.67485 15.9785L6.03377 14.3723L5.58531 12.9869L5.09831 12.3491L2.84358 7.87887L2.34419 7.16834L1.44446 6.31925L1.234 6.0367L0.887307 5.2288L0.210502 4.1479L0.0453834 3.13974L0 1.99856L0.0825382 1.12616L0.698846 1.03561L1.12946 0.802454L1.516 0.787343L1.89846 0.969768L2.30427 0.983498L2.4625 0.953317L3.19162 0.979396L3.60981 0.770892L4.10647 0.562388L4.39258 0.378581L4.79431 0.190672L5.3267 0L5.62935 0.0151114L6.00077 0.0864407L6.49466 0.160491L6.77393 0.28808L7.10408 0.694079L7.6172 1.06303L7.99412 1.28388L8.42746 1.57335L8.55686 1.68578L8.74805 1.74748L8.86501 1.76674L9.66974 1.72145L10.3975 1.68168L11.183 1.68302L12.6592 1.68444L14.1366 1.68712L15.6141 1.68854L17.0916 1.69131L18.5691 1.69399L20.0452 1.69675L21.5227 1.69817L23.0002 1.70085L23.6042 1.70227L24.6593 1.71458L25.7709 1.72831L25.8933 1.75159L26.0171 1.82844L26.1189 1.90253L26.511 2.4128L27.0117 2.94769L27.43 3.20011L27.928 3.35097L28.3957 3.40723L28.8331 3.37022L29.5567 3.43879L30.5693 3.61159L31.6217 3.66232L32.7126 3.59242L33.4789 3.68702L33.9219 3.94906L34.3758 4.12739L34.8408 4.22065L35.4681 4.16573L36.2606 3.96279L36.9346 3.99159L37.2469 4.13835L37.4326 4.14246L38.5965 3.92981L39.532 3.75977L40.9365 3.48676L42.0935 3.26181L43.8076 2.92986L45.0141 2.69536Z"/>
</mask>
<path d="M45.0141 2.69536L45.8409 2.53077L46.6305 2.37295L47.5481 2.21523L48.2827 2.08906L48.4671 2.05616L50.2348 2.20292L51.0052 2.30581L51.2735 2.40728L51.6215 2.67066L52.2653 3.3112L52.1003 3.2865L50.9144 3.4223L50.4632 3.59652L49.4534 4.35234L49.2388 4.25489L48.9967 4.09859L48.7917 4.05329L48.3473 4.23438L47.9044 4.45247L47.416 4.76106L47.013 5.06279L46.8809 5.22604L46.2495 5.85017L46.0431 5.9503L45.8601 5.99417L45.7858 5.96537L45.7074 5.69655L45.3195 5.07108L44.6977 4.25079L44.5161 4.17126L44.3909 4.13969L43.93 4.17946L42.5901 4.41128L41.4593 4.6061L39.7273 4.94072L37.8673 5.20963L36.7214 5.37556L35.7226 5.42496L35.724 6.23696L35.7254 7.88707L35.7281 9.53853L35.7309 11.1955L35.7336 12.8553L35.735 14.5204L35.7378 16.1897L35.7405 17.8645L35.7433 19.5435V20.2774L35.7103 20.4351H35.1379H33.8434H32.7553H31.8748L31.8762 21.4364L31.8776 22.6228V23.8121L31.8789 25.0041L31.8803 26.1974L31.8817 27.3949L31.8831 28.5937L31.8844 29.7967L31.8858 31.001V31.9118V32.016V33.7896V35.6757V37.5686V39.4683V41.3762V43.2912V45.2129V47.1441V47.7573L31.4896 47.7491L30.6931 47.9863L30.1855 48.2949L29.9653 48.6749L29.6737 48.9053L29.3078 48.9876L29.1468 49.181L29.1908 49.4883L29.0492 49.7229L28.7258 49.8861L28.2017 49.8381L27.4781 49.5802L26.5577 49.5198L25.4407 49.6556L24.6359 49.5926L24.1475 49.3279L23.6289 49.1783L23.08 49.1399L22.7608 49.0302L22.1087 48.834L21.985 48.4966L21.9079 48.2429L21.7222 47.9754L21.7016 47.7586L21.8474 47.594L21.868 47.3307L21.7648 46.9658L21.5846 46.7889L21.3288 46.7984L21.1692 46.6585L21.1059 46.3706L20.956 46.1525L20.5969 45.9302L20.1223 46.0975L19.898 46.3513L19.7659 46.7464L19.6463 46.9453L19.5857 47.2758L19.5582 47.5104L19.4372 47.7614L19.3106 47.8629L19.1799 47.8162L18.9364 47.9178L18.3986 48.2867L18.2458 48.4815L17.8125 48.129L16.5469 46.8026L16.097 46.4583L15.4339 45.6476L13.9757 43.143L13.7679 42.6615L13.4901 41.4572L13.1709 40.567L13.1351 40.054L13.2878 39.7632L13.1943 39.3696L13.0305 39.017L12.534 38.5561L12.3922 37.0227L12.0593 36.0337L12.1323 35.2175L11.9727 34.4755L11.9575 34.0009L12.0291 33.0983L11.7622 32.0627L11.2215 31.0532L10.7332 29.5991L10.663 28.9627L10.7153 27.2577L10.6204 26.5623L10.6259 25.7475L10.4332 24.904L10.3535 24.4444L10.4897 24.081L10.5694 24.1962L10.7097 24.251L10.8047 23.7682L10.8267 23.3417L10.5832 22.291L10.0398 21.2183L8.69305 19.4763L8.36424 18.8124L8.17716 18.2637L6.67485 15.9785L6.03377 14.3723L5.58531 12.9869L5.09831 12.3491L2.84358 7.87887L2.34419 7.16834L1.44446 6.31925L1.234 6.0367L0.887307 5.2288L0.210502 4.1479L0.0453834 3.13974L0 1.99856L0.0825382 1.12616L0.698846 1.03561L1.12946 0.802454L1.516 0.787343L1.89846 0.969768L2.30427 0.983498L2.4625 0.953317L3.19162 0.979396L3.60981 0.770892L4.10647 0.562388L4.39258 0.378581L4.79431 0.190672L5.3267 0L5.62935 0.0151114L6.00077 0.0864407L6.49466 0.160491L6.77393 0.28808L7.10408 0.694079L7.6172 1.06303L7.99412 1.28388L8.42746 1.57335L8.55686 1.68578L8.74805 1.74748L8.86501 1.76674L9.66974 1.72145L10.3975 1.68168L11.183 1.68302L12.6592 1.68444L14.1366 1.68712L15.6141 1.68854L17.0916 1.69131L18.5691 1.69399L20.0452 1.69675L21.5227 1.69817L23.0002 1.70085L23.6042 1.70227L24.6593 1.71458L25.7709 1.72831L25.8933 1.75159L26.0171 1.82844L26.1189 1.90253L26.511 2.4128L27.0117 2.94769L27.43 3.20011L27.928 3.35097L28.3957 3.40723L28.8331 3.37022L29.5567 3.43879L30.5693 3.61159L31.6217 3.66232L32.7126 3.59242L33.4789 3.68702L33.9219 3.94906L34.3758 4.12739L34.8408 4.22065L35.4681 4.16573L36.2606 3.96279L36.9346 3.99159L37.2469 4.13835L37.4326 4.14246L38.5965 3.92981L39.532 3.75977L40.9365 3.48676L42.0935 3.26181L43.8076 2.92986L45.0141 2.69536Z" fill="var(--fill-0, #71B219)" stroke="var(--stroke-0, white)" mask="url(#path-1-inside-1_0_72)"/>
</g>
</svg>
