<svg preserveAspectRatio="none" width="100%" height="100%" overflow="visible" style="display: block;" viewBox="0 0 52 50" fill="none" xmlns="http://www.w3.org/2000/svg"><g id="NA"><mask id="path-1-inside-1_0_72" fill="white"><path d="M45 3L46 2L47 2L48 2L48 2L48 2L50 2L51 2L51 2L52 3L52 3L52 3L51 3L50 4L50 4L49 4L49 4L49 4L48 4L48 4L47 5L47 5L47 5L46 6L46 6L46 6L46 6L46 6L45 5L45 4L44 4L44 4L44 4L43 4L42 5L40 5L38 5L37 5L36 5L36 6L36 8L36 10L36 11L36 13L36 14L36 16L36 18L36 20V20L36 20H35H34H33H32L32 21L32 23V24L32 25L32 26L32 27L32 29L32 30L32 31V32V32V34V36V38V40V41V43V45V47V48L32 48L31 48L30 48L30 49L30 49L29 49L29 49L29 50L29 50L29 50L28 50L28 50L27 50L25 50L25 50L24 49L24 49L23 49L23 49L22 49L22 48L22 48L22 48L22 48L22 48L22 47L22 47L22 47L21 47L21 47L21 46L21 46L21 46L20 46L20 46L20 47L20 47L20 47L20 48L19 48L19 48L19 48L19 48L18 48L18 48L18 48L16 47L16 46L15 46L14 43L14 43L14 42L13 41L13 40L13 40L13 39L13 39L12 39L12 37L12 36L12 35L12 34L12 34L12 33L12 32L11 31L11 30L11 29L11 27L11 27L11 26L10 25L10 24L10 24L11 24L11 24L11 24L11 23L11 22L10 21L9 20L8 19L8 18L7 16L6 14L6 13L5 12L3 8L2 7L1 6L1 6L1 5L0 4L0 3L0 2L0 1L1 1L1 1L2 1L2 1L2 1L2 1L3 1L4 1L4 1L4 0L5 0L5 0L6 0L6 0L6 0L7 0L7 1L8 1L8 1L8 2L9 2L9 2L9 2L10 2L10 2L11 2L13 2L14 2L16 2L17 2L19 2L20 2L22 2L23 2L24 2L25 2L26 2L26 2L26 2L26 2L26 2L27 3L27 3L28 3L28 3L29 3L30 3L31 4L32 4L33 4L34 4L34 4L34 4L35 4L36 4L36 4L37 4L37 4L37 4L39 4L40 4L41 4L42 3L44 3L45 3Z"/></mask><path d="M45 3L46 2L47 2L48 2L48 2L48 2L50 2L51 2L51 2L52 3L52 3L52 3L51 3L50 4L50 4L49 4L49 4L49 4L48 4L48 4L47 5L47 5L47 5L46 6L46 6L46 6L46 6L46 6L45 5L45 4L44 4L44 4L44 4L43 4L42 5L40 5L38 5L37 5L36 5L36 6L36 8L36 10L36 11L36 13L36 14L36 16L36 18L36 20V20L36 20H35H34H33H32L32 21L32 23V24L32 25L32 26L32 27L32 29L32 30L32 31V32V32V34V36V38V40V41V43V45V47V48L32 48L31 48L30 48L30 49L30 49L29 49L29 49L29 50L29 50L29 50L28 50L28 50L27 50L25 50L25 50L24 49L24 49L23 49L23 49L22 49L22 48L22 48L22 48L22 48L22 48L22 47L22 47L22 47L21 47L21 47L21 46L21 46L21 46L20 46L20 46L20 47L20 47L20 47L20 48L19 48L19 48L19 48L19 48L18 48L18 48L18 48L16 47L16 46L15 46L14 43L14 43L14 42L13 41L13 40L13 40L13 39L13 39L12 39L12 37L12 36L12 35L12 34L12 34L12 33L12 32L11 31L11 30L11 29L11 27L11 27L11 26L10 25L10 24L10 24L11 24L11 24L11 24L11 23L11 22L10 21L9 20L8 19L8 18L7 16L6 14L6 13L5 12L3 8L2 7L1 6L1 6L1 5L0 4L0 3L0 2L0 1L1 1L1 1L2 1L2 1L2 1L2 1L3 1L4 1L4 1L4 0L5 0L5 0L6 0L6 0L6 0L7 0L7 1L8 1L8 1L8 2L9 2L9 2L9 2L10 2L10 2L11 2L13 2L14 2L16 2L17 2L19 2L20 2L22 2L23 2L24 2L25 2L26 2L26 2L26 2L26 2L26 2L27 3L27 3L28 3L28 3L29 3L30 3L31 4L32 4L33 4L34 4L34 4L34 4L35 4L36 4L36 4L37 4L37 4L37 4L39 4L40 4L41 4L42 3L44 3L45 3Z" fill="var(--fill-0,#71B219)" stroke="var(--stroke-0,white)" mask="url(#path-1-inside-1_0_72)"/></g></svg>