<svg preserveAspectRatio="none" width="100%" height="100%" overflow="visible" style="display: block;" viewBox="0 0 31.7015 14.5287" fill="none" xmlns="http://www.w3.org/2000/svg">
<g id="NC">
<mask id="path-1-inside-1_0_71" fill="white">
<path d="M0.0908508 0.798268L0.0303116 0.884751L0 0.241448L0.122506 0L0.181618 0.500644L0.0908508 0.798268ZM16.5001 4.59781L16.9348 4.85433L17.4026 4.74457L17.99 5.14785L19.4867 6.37409L20.0122 6.63337L20.3218 6.73216L20.5556 6.93242L20.7647 7.21631L21.0495 7.41657L21.1734 7.6031L21.2036 7.85551L21.3068 8.01056L21.8281 8.41794L22.1391 8.77593L22.5711 8.95835L22.7568 9.17234L22.9989 9.27657L23.2465 9.496L23.6647 9.66746L24.6126 10.2985L25.3444 10.8979L25.7104 11.2696L26.1038 11.6001L26.6073 11.8649L27.0805 12.1667L27.3186 12.8744L27.1878 13.1282L26.9169 13.2544L26.6651 13.264L26.4299 13.349L25.6444 12.8923L25.4572 12.825L25.2481 12.8538L25.1312 12.7524L25.0486 12.6069L24.5685 12.4369L24.1228 12.1653L23.9935 11.9801L23.9179 11.7497L23.8106 11.618L23.1818 11.4177L22.7581 11.1942L22.45 10.8801L21.9726 10.6605L21.2284 10.2106L20.8473 10.0666L20.513 9.84168L19.6188 9.02558L19.2997 8.87329L19.0217 8.51121L18.25 7.65115L17.8771 7.29861L17.4727 6.98449L17.1632 6.61688L16.9252 6.1807L16.3721 5.55665L16.3048 5.29051L16.3281 5.01758L16.1947 4.84193L15.9691 4.73502L15.8618 4.55118L15.8741 4.30295L15.9484 4.17536L16.5001 4.59781ZM25.5522 6.44684L25.3472 6.48661L25.5948 6.11213L25.6031 5.88307L25.7021 5.4304L25.6897 5.27954L25.8534 5.29871L26.0309 5.42906L25.8273 5.5415L25.7585 5.73765L25.7668 5.98186L25.8452 6.02707L25.7145 6.29456L25.5522 6.44684ZM28.8497 8.33975L28.6392 8.37265L28.3572 8.07637L27.8193 7.92818L27.5827 7.66899L27.4286 7.36307L27.734 7.28764L28.0339 6.87616L27.8303 6.72387L27.4781 6.6965L27.5181 6.536L28.0903 6.34529L28.3421 6.45639L28.4535 6.58674L28.437 7.23825L28.6956 7.44537L28.9639 7.90901V8.03936L28.8497 8.33975ZM31.2063 9.44527L31.3864 9.52212L31.7015 9.50839L31.6299 10.2106L31.1884 10.3232L31.0371 10.3176L30.938 10.1695L30.6848 10.0722L30.6973 9.83205L30.4524 9.29307L30.8789 9.21077L31.1209 9.06669L31.1072 9.19838L31.1444 9.35066L31.2063 9.44527ZM29.4041 14.3723L29.2817 14.5287L29.1304 14.4971L29.0148 14.4381L28.9309 14.3531L29.0148 14.0335L29.3463 14.1898L29.4041 14.3723Z"/>
</mask>
<path d="M0.0908508 0.798268L0.0303116 0.884751L0 0.241448L0.122506 0L0.181618 0.500644L0.0908508 0.798268ZM16.5001 4.59781L16.9348 4.85433L17.4026 4.74457L17.99 5.14785L19.4867 6.37409L20.0122 6.63337L20.3218 6.73216L20.5556 6.93242L20.7647 7.21631L21.0495 7.41657L21.1734 7.6031L21.2036 7.85551L21.3068 8.01056L21.8281 8.41794L22.1391 8.77593L22.5711 8.95835L22.7568 9.17234L22.9989 9.27657L23.2465 9.496L23.6647 9.66746L24.6126 10.2985L25.3444 10.8979L25.7104 11.2696L26.1038 11.6001L26.6073 11.8649L27.0805 12.1667L27.3186 12.8744L27.1878 13.1282L26.9169 13.2544L26.6651 13.264L26.4299 13.349L25.6444 12.8923L25.4572 12.825L25.2481 12.8538L25.1312 12.7524L25.0486 12.6069L24.5685 12.4369L24.1228 12.1653L23.9935 11.9801L23.9179 11.7497L23.8106 11.618L23.1818 11.4177L22.7581 11.1942L22.45 10.8801L21.9726 10.6605L21.2284 10.2106L20.8473 10.0666L20.513 9.84168L19.6188 9.02558L19.2997 8.87329L19.0217 8.51121L18.25 7.65115L17.8771 7.29861L17.4727 6.98449L17.1632 6.61688L16.9252 6.1807L16.3721 5.55665L16.3048 5.29051L16.3281 5.01758L16.1947 4.84193L15.9691 4.73502L15.8618 4.55118L15.8741 4.30295L15.9484 4.17536L16.5001 4.59781ZM25.5522 6.44684L25.3472 6.48661L25.5948 6.11213L25.6031 5.88307L25.7021 5.4304L25.6897 5.27954L25.8534 5.29871L26.0309 5.42906L25.8273 5.5415L25.7585 5.73765L25.7668 5.98186L25.8452 6.02707L25.7145 6.29456L25.5522 6.44684ZM28.8497 8.33975L28.6392 8.37265L28.3572 8.07637L27.8193 7.92818L27.5827 7.66899L27.4286 7.36307L27.734 7.28764L28.0339 6.87616L27.8303 6.72387L27.4781 6.6965L27.5181 6.536L28.0903 6.34529L28.3421 6.45639L28.4535 6.58674L28.437 7.23825L28.6956 7.44537L28.9639 7.90901V8.03936L28.8497 8.33975ZM31.2063 9.44527L31.3864 9.52212L31.7015 9.50839L31.6299 10.2106L31.1884 10.3232L31.0371 10.3176L30.938 10.1695L30.6848 10.0722L30.6973 9.83205L30.4524 9.29307L30.8789 9.21077L31.1209 9.06669L31.1072 9.19838L31.1444 9.35066L31.2063 9.44527ZM29.4041 14.3723L29.2817 14.5287L29.1304 14.4971L29.0148 14.4381L28.9309 14.3531L29.0148 14.0335L29.3463 14.1898L29.4041 14.3723Z" fill="var(--fill-0, #71B219)" stroke="var(--stroke-0, white)" mask="url(#path-1-inside-1_0_71)"/>
</g>
</svg>
