<svg preserveAspectRatio="none" width="100%" height="100%" overflow="visible" style="display: block;" viewBox="0 0 32 14" fill="none" xmlns="http://www.w3.org/2000/svg"><g id="NC"><mask id="path-1-inside-1_0_71" fill="white"><path d="M0 1L0 1L0 0L0 0L0 0L0 1ZM16 5L17 5L17 5L18 5L20 6L20 7L20 7L21 7L21 7L21 7L21 8L21 8L21 8L22 8L22 9L23 9L23 9L23 9L23 10L24 10L25 10L25 11L26 11L26 12L27 12L27 12L27 13L27 13L27 13L27 13L26 13L26 13L26 13L25 13L25 13L25 13L25 12L24 12L24 12L24 12L24 12L23 11L23 11L22 11L22 11L21 10L21 10L20 10L20 9L19 9L19 8L18 8L18 7L18 7L17 7L17 6L16 6L16 5L16 5L16 5L16 5L16 5L16 4L16 4L16 5ZM26 6L25 6L26 6L26 6L26 5L26 5L26 5L26 5L26 6L26 6L26 6L26 6L26 6L26 6ZM29 8L29 8L28 8L28 8L28 8L27 7L28 7L28 7L28 7L28 7L28 6L28 6L28 6L28 7L28 7L29 7L29 8V8L29 8ZM31 9L31 10L32 10L32 10L31 10L31 10L31 10L31 10L31 10L30 9L31 9L31 9L31 9L31 9L31 9ZM29 14L29 14L29 14L29 14L29 14L29 14L29 14L29 14Z"/></mask><path d="M0 1L0 1L0 0L0 0L0 0L0 1ZM16 5L17 5L17 5L18 5L20 6L20 7L20 7L21 7L21 7L21 7L21 8L21 8L21 8L22 8L22 9L23 9L23 9L23 9L23 10L24 10L25 10L25 11L26 11L26 12L27 12L27 12L27 13L27 13L27 13L27 13L26 13L26 13L26 13L25 13L25 13L25 13L25 12L24 12L24 12L24 12L24 12L23 11L23 11L22 11L22 11L21 10L21 10L20 10L20 9L19 9L19 8L18 8L18 7L18 7L17 7L17 6L16 6L16 5L16 5L16 5L16 5L16 5L16 4L16 4L16 5ZM26 6L25 6L26 6L26 6L26 5L26 5L26 5L26 5L26 6L26 6L26 6L26 6L26 6L26 6ZM29 8L29 8L28 8L28 8L28 8L27 7L28 7L28 7L28 7L28 7L28 6L28 6L28 6L28 7L28 7L29 7L29 8V8L29 8ZM31 9L31 10L32 10L32 10L31 10L31 10L31 10L31 10L31 10L30 9L31 9L31 9L31 9L31 9L31 9ZM29 14L29 14L29 14L29 14L29 14L29 14L29 14L29 14Z" fill="var(--fill-0,#71B219)" stroke="var(--stroke-0,white)" mask="url(#path-1-inside-1_0_71)"/></g></svg>