<svg preserveAspectRatio="none" width="100%" height="100%" overflow="visible" style="display: block;" viewBox="0 0 60.9996 47.557" fill="none" xmlns="http://www.w3.org/2000/svg">
<g id="NE">
<mask id="path-1-inside-1_0_67" fill="white">
<path d="M57.2 2.17412L57.6237 4.57177L57.9456 6.6224L57.9676 7.9255L57.9827 8.26566L58.1148 8.49475L58.4147 8.72519L59.6253 10.6016L59.3666 10.9267L59.5483 11.5069L59.862 11.7552L60.869 12.869L60.9996 13.0885L60.9446 13.264L60.2389 14.5712L60.1191 14.8908L59.9788 16.5519L59.8798 17.7219L59.7422 19.324L59.5799 21.2375L59.4492 22.8465L59.2759 24.9698L59.1121 26.9724L58.0997 28.0698L56.303 30.012L54.8406 31.5894L54.1074 32.6443L52.6753 34.7004L52.0397 36.0282L51.5417 36.7208L51.29 37.0158L51.5128 37.9869L51.9008 39.6823L51.2075 39.6933L50.8099 39.814L50.3077 40.1994L49.7465 40.3516L49.0641 40.6877L48.6321 40.9566L48.2263 41.1692L47.6678 41.689L47.4862 42.0841L46.9304 42.1623L46.1531 42.0978L45.6593 41.6986L44.5147 41.283L43.7718 41.1143L43.4279 41.0636L41.6794 40.9922L39.8139 41.1554L38.8633 41.3489L38.69 41.3914L38.1508 41.6424L37.7036 41.9208L36.4944 43.1951L34.8931 43.1526L33.9521 43.0113L33.1528 42.8124L32.0151 42.2171L30.6216 41.3077L30.0837 41.1842L29.6008 41.1129L29.4399 41.1253L27.7752 42.0306L27.4547 42.0114L27.0627 42.1129L26.804 42.3378L26.6128 42.4503L26.4133 42.4695L26.1506 42.4201L25.8947 42.2816L25.6388 42.0292L24.9523 41.021L24.8106 40.8441L24.5176 40.5451L24.0251 40.0787L23.6908 39.862L23.4872 39.8057L23.2451 39.8428L21.9079 39.4422L20.5721 39.0184L20.2777 39.0733L20.0686 39.1611L19.6064 39.4738L19.0616 39.5314L18.3697 39.5067L17.99 39.4642L17.3792 39.5684L16.9719 39.6933L16.4382 39.9059L15.7462 40.4833L15.5481 40.5574L15.3803 40.6534L15.1492 42.2336L14.9607 42.7082L14.6099 43.335L13.9207 43.9331L13.4474 44.2952L13.4364 44.7835L13.3993 45.5818L13.3924 46.1291L13.424 46.4858L13.3442 46.6558L13.3126 46.8108L13.3374 47.0427L13.4502 47.1538L13.5162 47.2991L13.4722 47.4171L13.2493 47.557L13.0031 47.2004L12.6867 46.9493L12.34 46.8369L12.1047 46.6544L11.9837 46.4021L11.5283 45.9083L10.48 44.9303L10.3727 44.907L10.198 44.8685L9.90228 44.9852L9.72066 45.1456L9.59274 45.2087L9.40012 45.2183L8.90212 45.3418L8.50316 45.5009L8.49216 45.6326L8.68339 46.3719L8.59258 46.7724L8.41512 46.5818L7.84008 45.8356L7.4425 45.2828L7.37235 45.1593L7.31597 44.9687L7.35447 44.8864L7.51266 44.8288L7.87724 44.7561L7.94466 44.6985L7.96255 44.5462L7.90612 44.2623L7.70666 43.8782L7.49343 43.6231L7.37512 43.5737L7.15639 43.5655L6.91973 43.5998L6.47539 43.9111L6.2787 43.9688L5.8192 43.9427L5.41062 43.8823L5.16162 43.7218L4.4215 43.1018L3.60297 42.4476L3.25904 42.3543L3.17923 42.2871L3.12558 41.7837L3.13935 41.1774L3.18473 41.0183L3.52593 41.1129L3.88912 41.1568L4.00604 41.0471L3.71439 40.8317L3.29754 40.6136L3.14212 40.2831L3.02243 40.1678L2.83531 40.0499L2.61935 39.9896L2.40335 39.8962L2.25477 39.8003L2.01127 39.7564L1.75539 39.6864L1.38535 39.1501L1.02493 38.6275L0.813039 38.216L0.737386 37.9691L0.844694 37.548L0.737386 37.382L0.335695 36.954L0 36.5562L0.0825802 35.9404L0.151348 35.426L0.154077 35.1009L0.207731 34.9171L0.250386 34.71L0.473272 34.6442L1.04004 34.6497L2.14196 34.7456L3.02516 34.6373L3.0747 34.6181L3.69789 34.0667L4.38846 33.4878L5.42712 33.4316L6.54693 33.3713L7.43012 33.3411L8.71505 33.2972L9.75232 33.2588L10.9547 33.2149L10.9904 32.9488L11.0647 32.883L11.183 32.8733L12.0662 33.016L12.8971 33.1545L12.9604 32.6511L13.6895 32.0215L14.1036 31.8926L14.2054 31.7829L14.3361 31.5703L14.4173 31.241L14.453 31.0079L14.6071 30.8131L14.7199 30.4551L14.8685 29.8296L15.2799 29.1712L15.5151 28.2769L15.5495 27.4127L15.5949 26.7557L15.7173 26.6213L15.7132 25.4513L15.7104 24.273L15.7063 23.2758L15.7022 22.0331L15.6994 20.9412L15.6953 19.7547L15.6925 18.6889L15.6898 17.9812L16.5331 17.8125L17.4039 17.6369L18.6778 17.3804L20.0576 17.1033L21.5612 16.8002L21.9024 16.6178L23.0374 15.5903L23.5505 15.1254L24.5685 14.2036L25.3541 13.489L26.3528 12.5809L27.4107 11.666L28.254 10.9336L29.5802 10.1037L31.5791 8.85136L33.5779 7.59493L35.5782 6.33575L37.5771 5.0738L39.5759 3.81051L41.5748 2.54307L43.5751 1.27292L45.574 0L47.5853 0.485575L49.4961 0.945071L51.418 1.40733L51.8705 1.66108L52.8899 2.56501L54.1955 3.71996L54.2519 3.73641L54.311 3.7419L55.5656 3.06155L57.2 2.17412Z"/>
</mask>
<path d="M57.2 2.17412L57.6237 4.57177L57.9456 6.6224L57.9676 7.9255L57.9827 8.26566L58.1148 8.49475L58.4147 8.72519L59.6253 10.6016L59.3666 10.9267L59.5483 11.5069L59.862 11.7552L60.869 12.869L60.9996 13.0885L60.9446 13.264L60.2389 14.5712L60.1191 14.8908L59.9788 16.5519L59.8798 17.7219L59.7422 19.324L59.5799 21.2375L59.4492 22.8465L59.2759 24.9698L59.1121 26.9724L58.0997 28.0698L56.303 30.012L54.8406 31.5894L54.1074 32.6443L52.6753 34.7004L52.0397 36.0282L51.5417 36.7208L51.29 37.0158L51.5128 37.9869L51.9008 39.6823L51.2075 39.6933L50.8099 39.814L50.3077 40.1994L49.7465 40.3516L49.0641 40.6877L48.6321 40.9566L48.2263 41.1692L47.6678 41.689L47.4862 42.0841L46.9304 42.1623L46.1531 42.0978L45.6593 41.6986L44.5147 41.283L43.7718 41.1143L43.4279 41.0636L41.6794 40.9922L39.8139 41.1554L38.8633 41.3489L38.69 41.3914L38.1508 41.6424L37.7036 41.9208L36.4944 43.1951L34.8931 43.1526L33.9521 43.0113L33.1528 42.8124L32.0151 42.2171L30.6216 41.3077L30.0837 41.1842L29.6008 41.1129L29.4399 41.1253L27.7752 42.0306L27.4547 42.0114L27.0627 42.1129L26.804 42.3378L26.6128 42.4503L26.4133 42.4695L26.1506 42.4201L25.8947 42.2816L25.6388 42.0292L24.9523 41.021L24.8106 40.8441L24.5176 40.5451L24.0251 40.0787L23.6908 39.862L23.4872 39.8057L23.2451 39.8428L21.9079 39.4422L20.5721 39.0184L20.2777 39.0733L20.0686 39.1611L19.6064 39.4738L19.0616 39.5314L18.3697 39.5067L17.99 39.4642L17.3792 39.5684L16.9719 39.6933L16.4382 39.9059L15.7462 40.4833L15.5481 40.5574L15.3803 40.6534L15.1492 42.2336L14.9607 42.7082L14.6099 43.335L13.9207 43.9331L13.4474 44.2952L13.4364 44.7835L13.3993 45.5818L13.3924 46.1291L13.424 46.4858L13.3442 46.6558L13.3126 46.8108L13.3374 47.0427L13.4502 47.1538L13.5162 47.2991L13.4722 47.4171L13.2493 47.557L13.0031 47.2004L12.6867 46.9493L12.34 46.8369L12.1047 46.6544L11.9837 46.4021L11.5283 45.9083L10.48 44.9303L10.3727 44.907L10.198 44.8685L9.90228 44.9852L9.72066 45.1456L9.59274 45.2087L9.40012 45.2183L8.90212 45.3418L8.50316 45.5009L8.49216 45.6326L8.68339 46.3719L8.59258 46.7724L8.41512 46.5818L7.84008 45.8356L7.4425 45.2828L7.37235 45.1593L7.31597 44.9687L7.35447 44.8864L7.51266 44.8288L7.87724 44.7561L7.94466 44.6985L7.96255 44.5462L7.90612 44.2623L7.70666 43.8782L7.49343 43.6231L7.37512 43.5737L7.15639 43.5655L6.91973 43.5998L6.47539 43.9111L6.2787 43.9688L5.8192 43.9427L5.41062 43.8823L5.16162 43.7218L4.4215 43.1018L3.60297 42.4476L3.25904 42.3543L3.17923 42.2871L3.12558 41.7837L3.13935 41.1774L3.18473 41.0183L3.52593 41.1129L3.88912 41.1568L4.00604 41.0471L3.71439 40.8317L3.29754 40.6136L3.14212 40.2831L3.02243 40.1678L2.83531 40.0499L2.61935 39.9896L2.40335 39.8962L2.25477 39.8003L2.01127 39.7564L1.75539 39.6864L1.38535 39.1501L1.02493 38.6275L0.813039 38.216L0.737386 37.9691L0.844694 37.548L0.737386 37.382L0.335695 36.954L0 36.5562L0.0825802 35.9404L0.151348 35.426L0.154077 35.1009L0.207731 34.9171L0.250386 34.71L0.473272 34.6442L1.04004 34.6497L2.14196 34.7456L3.02516 34.6373L3.0747 34.6181L3.69789 34.0667L4.38846 33.4878L5.42712 33.4316L6.54693 33.3713L7.43012 33.3411L8.71505 33.2972L9.75232 33.2588L10.9547 33.2149L10.9904 32.9488L11.0647 32.883L11.183 32.8733L12.0662 33.016L12.8971 33.1545L12.9604 32.6511L13.6895 32.0215L14.1036 31.8926L14.2054 31.7829L14.3361 31.5703L14.4173 31.241L14.453 31.0079L14.6071 30.8131L14.7199 30.4551L14.8685 29.8296L15.2799 29.1712L15.5151 28.2769L15.5495 27.4127L15.5949 26.7557L15.7173 26.6213L15.7132 25.4513L15.7104 24.273L15.7063 23.2758L15.7022 22.0331L15.6994 20.9412L15.6953 19.7547L15.6925 18.6889L15.6898 17.9812L16.5331 17.8125L17.4039 17.6369L18.6778 17.3804L20.0576 17.1033L21.5612 16.8002L21.9024 16.6178L23.0374 15.5903L23.5505 15.1254L24.5685 14.2036L25.3541 13.489L26.3528 12.5809L27.4107 11.666L28.254 10.9336L29.5802 10.1037L31.5791 8.85136L33.5779 7.59493L35.5782 6.33575L37.5771 5.0738L39.5759 3.81051L41.5748 2.54307L43.5751 1.27292L45.574 0L47.5853 0.485575L49.4961 0.945071L51.418 1.40733L51.8705 1.66108L52.8899 2.56501L54.1955 3.71996L54.2519 3.73641L54.311 3.7419L55.5656 3.06155L57.2 2.17412Z" fill="var(--fill-0, #71B219)" stroke="var(--stroke-0, white)" mask="url(#path-1-inside-1_0_67)"/>
</g>
</svg>
