<svg preserveAspectRatio="none" width="100%" height="100%" overflow="visible" style="display: block;" viewBox="0 0 61 48" fill="none" xmlns="http://www.w3.org/2000/svg"><g id="NE"><mask id="path-1-inside-1_0_67" fill="white"><path d="M57 2L58 5L58 7L58 8L58 8L58 8L58 9L60 11L59 11L60 12L60 12L61 13L61 13L61 13L60 15L60 15L60 17L60 18L60 19L60 21L59 23L59 25L59 27L58 28L56 30L55 32L54 33L53 35L52 36L52 37L51 37L52 38L52 40L51 40L51 40L50 40L50 40L49 41L49 41L48 41L48 42L48 42L47 42L46 42L46 42L44 41L44 41L43 41L42 41L40 41L39 41L39 41L38 42L38 42L36 43L35 43L34 43L33 43L32 42L31 41L30 41L30 41L29 41L28 42L28 42L27 42L27 42L27 42L26 42L26 42L26 42L26 42L25 41L25 41L24 40L24 40L24 40L24 40L23 40L22 39L21 39L20 39L20 39L20 40L19 40L18 40L18 40L17 40L17 40L16 40L16 40L16 41L15 41L15 42L15 43L15 43L14 44L13 44L13 45L13 46L13 46L13 46L13 47L13 47L13 47L14 47L14 47L14 47L13 48L13 47L13 47L12 47L12 47L12 46L12 46L10 45L10 45L10 45L10 45L10 45L10 45L9 45L9 45L8 46L8 46L9 46L9 47L8 47L8 46L7 45L7 45L7 45L7 45L8 45L8 45L8 45L8 44L8 44L8 44L8 44L7 44L7 44L7 44L6 44L6 44L6 44L5 44L5 44L4 43L4 42L3 42L3 42L3 42L3 41L3 41L4 41L4 41L4 41L4 41L3 41L3 40L3 40L3 40L3 40L2 40L2 40L2 40L2 40L1 39L1 39L1 38L1 38L1 38L1 37L0 37L0 37L0 36L0 35L0 35L0 35L0 35L0 35L1 35L2 35L3 35L3 35L4 34L4 34L5 33L6 33L7 33L9 33L10 33L11 33L11 33L11 33L11 33L12 33L13 33L13 33L14 32L14 32L14 32L14 32L14 31L14 31L15 31L15 30L15 30L15 29L16 28L16 27L16 27L16 27L16 26L16 24L16 23L16 22L16 21L16 20L16 19L16 18L16 18L17 18L19 17L20 17L22 17L22 17L23 16L24 15L25 14L25 14L26 13L27 12L28 11L30 10L32 9L34 8L36 6L38 5L40 4L42 2L44 1L46 0L48 0L50 1L51 1L52 2L53 3L54 4L54 4L54 4L56 3L57 2Z"/></mask><path d="M57 2L58 5L58 7L58 8L58 8L58 8L58 9L60 11L59 11L60 12L60 12L61 13L61 13L61 13L60 15L60 15L60 17L60 18L60 19L60 21L59 23L59 25L59 27L58 28L56 30L55 32L54 33L53 35L52 36L52 37L51 37L52 38L52 40L51 40L51 40L50 40L50 40L49 41L49 41L48 41L48 42L48 42L47 42L46 42L46 42L44 41L44 41L43 41L42 41L40 41L39 41L39 41L38 42L38 42L36 43L35 43L34 43L33 43L32 42L31 41L30 41L30 41L29 41L28 42L28 42L27 42L27 42L27 42L26 42L26 42L26 42L26 42L25 41L25 41L24 40L24 40L24 40L24 40L23 40L22 39L21 39L20 39L20 39L20 40L19 40L18 40L18 40L17 40L17 40L16 40L16 40L16 41L15 41L15 42L15 43L15 43L14 44L13 44L13 45L13 46L13 46L13 46L13 47L13 47L13 47L14 47L14 47L14 47L13 48L13 47L13 47L12 47L12 47L12 46L12 46L10 45L10 45L10 45L10 45L10 45L10 45L9 45L9 45L8 46L8 46L9 46L9 47L8 47L8 46L7 45L7 45L7 45L7 45L8 45L8 45L8 45L8 44L8 44L8 44L8 44L7 44L7 44L7 44L6 44L6 44L6 44L5 44L5 44L4 43L4 42L3 42L3 42L3 42L3 41L3 41L4 41L4 41L4 41L4 41L3 41L3 40L3 40L3 40L3 40L2 40L2 40L2 40L2 40L1 39L1 39L1 38L1 38L1 38L1 37L0 37L0 37L0 36L0 35L0 35L0 35L0 35L0 35L1 35L2 35L3 35L3 35L4 34L4 34L5 33L6 33L7 33L9 33L10 33L11 33L11 33L11 33L11 33L12 33L13 33L13 33L14 32L14 32L14 32L14 32L14 31L14 31L15 31L15 30L15 30L15 29L16 28L16 27L16 27L16 27L16 26L16 24L16 23L16 22L16 21L16 20L16 19L16 18L16 18L17 18L19 17L20 17L22 17L22 17L23 16L24 15L25 14L25 14L26 13L27 12L28 11L30 10L32 9L34 8L36 6L38 5L40 4L42 2L44 1L46 0L48 0L50 1L51 1L52 2L53 3L54 4L54 4L54 4L56 3L57 2Z" fill="var(--fill-0,#71B219)" stroke="var(--stroke-0,white)" mask="url(#path-1-inside-1_0_67)"/></g></svg>