<svg preserveAspectRatio="none" width="100%" height="100%" overflow="visible" style="display: block;" viewBox="0 0 0 0" fill="none" xmlns="http://www.w3.org/2000/svg"><g id="NF"><mask id="path-1-inside-1_0_66" fill="white"><path d="M0 0L0 0L0 0L0 0L0 0L0 0L0 0L0 0L0 0L0 0V0L0 0L0 0L0 0L0 0H0L0 0L0 0L0 0L0 0L0 0L0 0L0 0L0 0L0 0L0 0Z"/></mask><path d="M0 0L0 0L0 0L0 0L0 0L0 0L0 0L0 0L0 0L0 0V0L0 0L0 0L0 0L0 0H0L0 0L0 0L0 0L0 0L0 0L0 0L0 0L0 0L0 0L0 0Z" fill="var(--fill-0,#71B219)"/><path d="M0 0L0 0L0 0L0 0L0 0ZM0 0L0 0L0 0L0 0L0 0ZM0 0L1 0L0 0L0 0L0 0ZM0 0L1 0L1 0L1 0L0 0ZM0 0L1 0L1 0L1 0L0 0ZM0 0L1 1L1 1L1 0L0 0ZM0 0L0 1L0 1L0 0ZM0 0L0 0L0 0L0 0L0 0ZM0 0L0 0L0 0L0 0L0 0ZM0 0L0 0L0 0V0H0ZM0 0L0 0L1 0H0ZM0 0L1 0L1 0L0 0L0 0ZM0 0L0 0L0 0L0 0L0 0ZM0 0L0 0L0 0L0 0L0 0ZM0 0V1H0L0 1L0 0ZM0 0L0 0L0 1H0V0ZM0 0L0 0L0 0L0 0L0 0ZM0 0L0 0L0 0L0 0L0 0ZM0 0L0 0L0 0L0 0L0 0ZM0 0L0 0L0 0L0 0L0 0ZM0 0L0 0L1 0L1 0L0 0ZM0 0L1 0L1 0L0 0L0 0ZM0 0L0 0L0 0L0 0L0 0ZM0 0L0 0L-2 1L0 0L0 0ZM0 0L0 0L0 -1L0 0L0 0ZM0 0L0 0L0 0L0 0L0 0L0 0L0 0ZM0 0L0 0L0 1L0 0L0 0L0 0L0 0ZM0 0L0 0L0 0L0 0L1 0L1 0L0 0ZM0 0L0 0L0 0L0 0L1 0L1 0L0 0ZM0 0L0 0L0 0L0 0L1 0L1 0L0 0ZM0 0L0 0L0 0L0 0L0 1L1 1L0 0ZM0 0L0 0L0 0L0 0L0 1L0 1L0 0ZM0 0L0 0L0 0L0 0L1 1L1 1L0 0ZM0 0L0 0L0 0L0 0L1 0L1 0L0 0ZM0 0H0V0H0H1V0H0ZM0 0L1 0L1 0L0 0L0 0L0 0L0 0ZM0 0L0 0L0 0L0 0L0 1L0 1L0 0ZM0 0L0 0L0 0L0 0L0 1L0 1L0 0ZM0 0L0 0L0 0L0 0L0 1L0 0L0 0ZM0 0V0H0V0V1H0V0ZM0 0L0 0L0 0L0 0L0 0L0 0L0 0ZM0 0L0 0L0 0L0 0L0 0L0 0L0 0ZM0 0L0 0L0 0L0 0L0 0L0 0L0 0ZM0 0L0 0L0 0L0 0L0 0L0 0L0 0ZM0 0L0 0L0 0L0 0L0 0L0 0L0 0ZM0 0L1 0L1 0L0 0L0 0L0 0L0 0ZM0 0L0 0L0 0L0 0L0 0L0 0L0 0ZM0 0L0 0L0 0L0 0L0 0L0 0L0 0ZM0 0L0 0L0 0L0 0L0 0L0 0L0 0ZM0 0L0 0L0 0L0 0L0 0L0 0L0 0Z" fill="var(--stroke-0,white)" mask="url(#path-1-inside-1_0_66)"/></g></svg>