<svg preserveAspectRatio="none" width="100%" height="100%" overflow="visible" style="display: block;" viewBox="0 0 0.326503 0.365594" fill="none" xmlns="http://www.w3.org/2000/svg">
<g id="NF">
<mask id="path-1-inside-1_0_66" fill="white">
<path d="M0.130061 0.018005L0.207506 0.0636514L0.279462 0.0900249L0.326503 0.124598L0.319578 0.199407L0.2836 0.274217L0.239346 0.306L0.225495 0.315721L0.215867 0.330937L0.211729 0.346237V0.365594L0.189517 0.303295L0.14805 0.261706L0.107934 0.257564L0.078881 0.306H0.055318L0.0470414 0.256212L0.0304038 0.21327L0.0234785 0.171681L0.0401161 0.138461L0.0705199 0.0983089L0.0719557 0.0650884L0.0483927 0.0497884L0 0.0636514L0.0566693 0L0.130061 0.018005Z"/>
</mask>
<path d="M0.130061 0.018005L0.207506 0.0636514L0.279462 0.0900249L0.326503 0.124598L0.319578 0.199407L0.2836 0.274217L0.239346 0.306L0.225495 0.315721L0.215867 0.330937L0.211729 0.346237V0.365594L0.189517 0.303295L0.14805 0.261706L0.107934 0.257564L0.078881 0.306H0.055318L0.0470414 0.256212L0.0304038 0.21327L0.0234785 0.171681L0.0401161 0.138461L0.0705199 0.0983089L0.0719557 0.0650884L0.0483927 0.0497884L0 0.0636514L0.0566693 0L0.130061 0.018005Z" fill="var(--fill-0, #71B219)"/>
<path d="M0.130061 0.018005L0.383944 -0.412742L0.320601 -0.450077L0.249192 -0.467595L0.130061 0.018005ZM0.207506 0.0636514L-0.0463775 0.494399L-0.00722909 0.517473L0.0354377 0.533111L0.207506 0.0636514ZM0.279462 0.0900249L0.575566 -0.312867L0.51828 -0.354969L0.45153 -0.379435L0.279462 0.0900249ZM0.326503 0.124598L0.824374 0.170687L0.850437 -0.110852L0.622607 -0.278295L0.326503 0.124598ZM0.319578 0.199407L0.770176 0.416112L0.809158 0.335056L0.817449 0.245497L0.319578 0.199407ZM0.2836 0.274217L0.57527 0.680331L0.678901 0.605903L0.734198 0.490921L0.2836 0.274217ZM0.239346 0.306L0.5266 0.715285L0.531016 0.712114L0.239346 0.306ZM0.225495 0.315721L-0.0617429 -0.0935397L-0.143569 -0.0361108L-0.197022 0.0483654L0.225495 0.315721ZM0.215867 0.330937L-0.20665 0.0635809L-0.247059 0.12744L-0.26679 0.200389L0.215867 0.330937ZM0.211729 0.346237L-0.270928 0.215689L-0.288271 0.279811V0.346237H0.211729ZM0.211729 0.365594L-0.259233 0.533508L0.711729 0.365594H0.211729ZM0.189517 0.303295L0.660479 0.135381L0.622802 0.0297063L0.543587 -0.0497405L0.189517 0.303295ZM0.14805 0.261706L0.50212 -0.0913295L0.376448 -0.21737L0.199402 -0.23565L0.14805 0.261706ZM0.107934 0.257564L0.159286 -0.239792L-0.157193 -0.272468L-0.320848 0.000375039L0.107934 0.257564ZM0.078881 0.306V0.806H0.362021L0.507663 0.563189L0.078881 0.306ZM0.055318 0.306L-0.437913 0.387993L-0.368426 0.806H0.055318V0.306ZM0.0470414 0.256212L0.540273 0.174219L0.531843 0.123507L0.51327 0.0755716L0.0470414 0.256212ZM0.0304038 0.21327L-0.462805 0.295398L-0.454372 0.346039L-0.435825 0.39391L0.0304038 0.21327ZM0.0234785 0.171681L-0.423587 -0.0522206L-0.49646 0.0932854L-0.46973 0.253809L0.0234785 0.171681ZM0.0401161 0.138461L-0.358498 -0.163378L-0.386315 -0.126642L-0.40695 -0.0854411L0.0401161 0.138461ZM0.0705199 0.0983089L0.469134 0.400147L0.563317 0.275768L0.570054 0.119898L0.0705199 0.0983089ZM0.0719557 0.0650884L0.571489 0.0866775L0.583823 -0.198703L0.344251 -0.354263L0.0719557 0.0650884ZM0.0483927 0.0497884L0.320688 -0.369563L0.129658 -0.493603L-0.0893029 -0.430878L0.0483927 0.0497884ZM0 0.0636514L-0.373441 -0.268826L-1.52024 1.01926L0.137696 0.544317L0 0.0636514ZM0.0566693 0L0.175801 -0.4856L-0.116584 -0.557331L-0.316772 -0.332478L0.0566693 0ZM0.130061 0.018005L-0.123823 0.448752L-0.0463775 0.494399L0.207506 0.0636514L0.461389 -0.367096L0.383944 -0.412742L0.130061 0.018005ZM0.207506 0.0636514L0.0354377 0.533111L0.107393 0.559485L0.279462 0.0900249L0.45153 -0.379435L0.379574 -0.405808L0.207506 0.0636514ZM0.279462 0.0900249L-0.0166426 0.492917L0.0303989 0.52749L0.326503 0.124598L0.622607 -0.278295L0.575566 -0.312867L0.279462 0.0900249ZM0.326503 0.124598L-0.171368 0.0785085L-0.178293 0.153318L0.319578 0.199407L0.817449 0.245497L0.824374 0.170687L0.326503 0.124598ZM0.319578 0.199407L-0.131021 -0.0172976L-0.166999 0.0575118L0.2836 0.274217L0.734198 0.490921L0.770176 0.416112L0.319578 0.199407ZM0.2836 0.274217L-0.00807016 -0.131897L-0.0523246 -0.100114L0.239346 0.306L0.531016 0.712114L0.57527 0.680331L0.2836 0.274217ZM0.239346 0.306L-0.0478923 -0.103261L-0.0617429 -0.0935397L0.225495 0.315721L0.512733 0.724982L0.526583 0.715261L0.239346 0.306ZM0.225495 0.315721L-0.197022 0.0483654L-0.20665 0.0635809L0.215867 0.330937L0.638384 0.598292L0.648012 0.583077L0.225495 0.315721ZM0.215867 0.330937L-0.26679 0.200389L-0.270928 0.215689L0.211729 0.346237L0.694385 0.476784L0.698524 0.461484L0.215867 0.330937ZM0.211729 0.346237H-0.288271V0.365594H0.211729H0.711729V0.346237H0.211729ZM0.211729 0.365594L0.682691 0.19768L0.660479 0.135381L0.189517 0.303295L-0.281445 0.471209L-0.259233 0.533508L0.211729 0.365594ZM0.189517 0.303295L0.543587 -0.0497405L0.50212 -0.0913295L0.14805 0.261706L-0.206021 0.614742L-0.164553 0.656331L0.189517 0.303295ZM0.14805 0.261706L0.199402 -0.23565L0.159286 -0.239792L0.107934 0.257564L0.0565815 0.75492L0.0966977 0.759062L0.14805 0.261706ZM0.107934 0.257564L-0.320848 0.000375039L-0.349901 0.048811L0.078881 0.306L0.507663 0.563189L0.536715 0.514753L0.107934 0.257564ZM0.078881 0.306V-0.194H0.055318V0.306V0.806H0.078881V0.306ZM0.055318 0.306L0.548549 0.224008L0.540273 0.174219L0.0470414 0.256212L-0.44619 0.338204L-0.437913 0.387993L0.055318 0.306ZM0.0470414 0.256212L0.51327 0.0755716L0.496632 0.0326302L0.0304038 0.21327L-0.435825 0.39391L-0.419187 0.436852L0.0470414 0.256212ZM0.0304038 0.21327L0.523613 0.131142L0.516687 0.0895531L0.0234785 0.171681L-0.46973 0.253809L-0.462805 0.295398L0.0304038 0.21327ZM0.0234785 0.171681L0.470544 0.395583L0.487182 0.362363L0.0401161 0.138461L-0.40695 -0.0854411L-0.423587 -0.0522206L0.0234785 0.171681ZM0.0401161 0.138461L0.438731 0.440299L0.469134 0.400147L0.0705199 0.0983089L-0.328095 -0.20353L-0.358498 -0.163378L0.0401161 0.138461ZM0.0705199 0.0983089L0.570054 0.119898L0.571489 0.0866775L0.0719557 0.0650884L-0.427578 0.0434994L-0.429014 0.0767198L0.0705199 0.0983089ZM0.0719557 0.0650884L0.344251 -0.354263L0.320688 -0.369563L0.0483927 0.0497884L-0.223902 0.46914L-0.200339 0.48444L0.0719557 0.0650884ZM0.0483927 0.0497884L-0.0893029 -0.430878L-0.137696 -0.417015L0 0.0636514L0.137696 0.544317L0.186088 0.530455L0.0483927 0.0497884ZM0 0.0636514L0.373441 0.396129L0.430111 0.332478L0.0566693 0L-0.316772 -0.332478L-0.373441 -0.268826L0 0.0636514ZM0.0566693 0L-0.0624621 0.4856L0.0109293 0.503605L0.130061 0.018005L0.249192 -0.467595L0.175801 -0.4856L0.0566693 0Z" fill="var(--stroke-0, white)" mask="url(#path-1-inside-1_0_66)"/>
</g>
</svg>
