<svg preserveAspectRatio="none" width="100%" height="100%" overflow="visible" style="display: block;" viewBox="0 0 46.0995 37.2091" fill="none" xmlns="http://www.w3.org/2000/svg">
<g id="NG">
<mask id="path-1-inside-1_0_65" fill="white">
<path d="M42.1553 0.663898L42.7621 1.51018L43.4142 2.41963L43.9217 3.12601L44.2932 4.95445L44.3331 5.30147L44.362 5.45786L44.3908 5.60186L44.439 5.85013L44.7307 5.95712L45.281 6.00652L45.6813 6.18618L45.9206 6.48385L45.944 6.53324L46.0706 6.7623L46.0995 6.92827L46.0651 7.4056L45.9839 8.01877L45.8464 8.4138L45.9234 8.95149L45.8986 9.18055L45.8381 9.33693L45.5919 9.5166L45.2575 9.6922L44.4583 10.2107L44.2299 10.2875L43.8956 10.3012L43.6053 10.4301L43.2614 10.7099L42.5186 11.7497L41.8844 12.7935L41.6642 13.6563L41.4166 14.4793L40.8581 15.0046L40.7796 15.2995L40.7563 15.471L40.737 15.8674L40.6697 16.5231L40.583 16.8386L40.4935 16.9318L39.891 17.1321L39.5443 17.3722L39.3366 17.8481L39.2609 18.3625L39.1398 18.9482L39.0711 19.4626L38.9775 19.7287L38.7794 20.0085L38.4726 20.3089L38.2071 20.479L37.5151 20.59L37.1588 21.2704L36.8576 21.8012L36.8493 22.0138L36.5591 23.1139L36.0542 23.9424L36.0211 24.2346L36.0198 24.4746L35.3883 25.203L35.2205 25.4183L35.0595 25.6995L35.2191 25.9711L35.3966 26.218L35.4227 26.3017L35.1366 26.5335L34.6358 26.9368L34.3373 27.1782L34.2713 27.3099L34.2273 27.9147L34.1406 28.078L33.9411 28.3002L33.6481 28.5443L33.351 28.7336L33.0139 28.8653L32.6906 28.9147L32.509 28.8379L32.4058 28.6541L32.2243 27.9134L32.1321 27.7543L31.9216 27.6102L31.5061 27.2042L31.0852 26.7941L30.5775 26.5061L30.4689 26.5266L30.3849 26.6048L30.2405 27.0177L30.0988 27.1686L29.8319 27.2207L29.3683 27.2234L29.0299 27.1658L28.9528 27.0835L28.8841 26.9052L28.7905 26.7625L28.3861 27.052L27.7505 27.5074L27.5441 27.5814L27.3859 27.6733L27.1768 28.0972L26.9223 28.5512L26.5908 28.7885L26.2675 28.9888L26.0818 29.163L25.8163 29.3687L25.2963 29.8831L24.607 30.5634L24.3635 30.9146L24.1228 31.4399L23.9825 32.0215L23.8297 32.658L23.6055 33.6812L23.2754 34.2601L22.9864 34.7196L22.7719 35.0803L22.6591 35.378L22.6123 35.3684L22.4995 35.4959L22.1776 35.4123L22.0331 35.153L21.8336 35.1105L21.4897 34.7306L21.4168 34.7937L21.78 35.7593L21.6452 36.1365L20.623 36.1447L19.7439 36.2709L19.14 36.26L18.8374 36.1228L18.7026 35.7607L18.6503 35.7977L18.62 35.9911L18.4288 36.1434L17.7506 36.1722L17.4507 35.9253L17.2086 35.6482L16.9486 35.5261L16.9884 35.6414L17.287 35.9116L17.2512 36.2997L16.7051 36.7496L16.357 36.7757L16.1437 36.5823L16.0323 36.2668L15.9759 35.8005L15.8329 35.4959H15.7558L15.8274 35.7744L15.8507 36.0021L15.8535 36.4753L16.1135 36.8429L15.7146 36.9568L15.5522 36.9609L15.2358 36.9691L15.1753 36.8319L15.1147 36.5274L15.0308 36.4479L14.9332 36.9636L14.7227 36.9993L14.5769 36.9952L13.9495 37.1077L13.8092 37.0857L13.7803 36.9897L13.8546 36.847L13.8381 36.6152L13.6207 36.7936L13.5864 37.1515L13.4626 37.2091L13.0897 37.1584L12.6811 36.9746L12.4321 36.7867L12.0167 36.5247L11.2023 35.7908L11.0702 35.4603L10.8377 35.0557L10.6644 34.6441L10.414 33.9418L10.491 33.8911L10.6795 33.9514L10.7717 33.8458L10.4332 33.769L10.3631 33.6867L10.3397 33.4398L10.3549 33.1381L10.63 33.0324L10.868 32.9803L10.9877 32.7979L11.0564 32.6141L10.425 32.8925L9.83209 32.577L9.70412 32.3864L9.76882 32.2396L10.0522 32.2177L10.4567 32.2286L10.6988 32.086L10.5502 32.0352L10.2888 32.0407L10.1925 31.9461L10.2008 31.717L10.1155 31.7678L10.0027 31.9707L9.6037 32.1203L9.36985 31.9707L9.34647 31.6388L9.29554 31.4893L9.09886 31.3727L8.39997 30.4935L7.52227 29.7596L6.74227 29.2535L5.56331 29.0121L3.09531 29.0217L2.95635 28.9517L3.1077 28.8365L3.32365 28.7583L4.11747 28.3482L3.984 28.2933L3.15858 28.5498L2.87658 28.5745L2.51066 29.067L0.337038 29.1493L0.0825382 29.1753L0.088038 28.9503L0.193961 28.3029L0.264114 28.0478L0.345309 27.8558L0.261385 27.6253L0.178847 27.3126L0.138963 26.8215L0.24073 26.6693L0.275155 26.4841L0.250386 26.1933V25.2222L0.309539 25.1166L0.379693 25.0356L0.383807 24.9067L0.251771 24.6557L0.129307 24.369L0.133421 23.9561L0.0839237 23.557L0 23.3745L0.0632681 22.6942L0.0990375 21.8328L0.066039 21.4501L0.145806 21.1799L0.188461 20.5146L0.181576 19.8631L0.343923 18.8329L0.819925 18.7836L1.38669 18.6971L1.63981 18.2925L1.78566 17.7795L1.73889 17.272L1.84892 17.1047L2.07593 16.8289L2.48589 16.4353L2.46939 16.0032L2.58215 15.8702L2.77616 15.77L3.05404 15.7193L3.36492 15.5039L3.53689 15.1267L3.70612 14.5232L3.43923 14.1021L3.44335 14.0088L3.54516 13.7825L3.70885 13.5562L3.8382 13.4834L4.14085 13.5411L4.19312 13.5219L4.23989 13.4505L4.43523 12.7825L4.41735 12.6028L4.13535 12.1557L4.08854 11.8375L4.04727 11.3643L3.9785 10.9445L3.89735 10.7854L3.74739 10.6523L3.67996 10.5659L3.0967 9.71275L3.10631 9.30809L3.3512 8.791L3.51077 8.53996L3.73362 8.40007L3.77766 8.28072L3.71162 8.13535L3.59881 8.02559L3.57266 7.79243L3.60431 7.63742L3.68412 7.46735L3.65246 7.1107L3.65935 6.56342L3.6965 5.76511L3.7075 5.27677L4.18073 4.91469L4.86997 4.31525L5.22078 3.6884L5.40924 3.21379L5.64035 1.63367L5.80816 1.53764L6.00627 1.46355L6.69823 0.887472L7.23066 0.673484L7.63785 0.550039L8.25005 0.445766L8.62974 0.488296L9.3217 0.514374L9.86647 0.456775L10.3287 0.142659L10.5378 0.0548783L10.8322 0L12.1694 0.423831L13.5052 0.824347L13.7473 0.787343L13.9509 0.843561L14.2852 1.06027L14.7777 1.52529L15.0707 1.82568L15.2124 2.00124L15.8989 3.00943L16.1548 3.26319L16.412 3.4017L16.6734 3.4511L16.8742 3.43188L17.0641 3.31807L17.3227 3.09311L17.7162 2.99022L18.0367 3.01081L19.6999 2.10413L19.8609 2.09178L20.3451 2.16311L20.883 2.28794L22.2766 3.19734L23.4143 3.79263L24.2136 3.99155L25.1559 4.13283L26.7559 4.17536L27.9651 2.90106L28.4122 2.62261L28.9515 2.37161L29.1248 2.32908L30.0754 2.13569L31.9395 1.97244L33.688 2.04377L34.0319 2.09454L34.7748 2.26324L35.9193 2.67887L36.4132 3.078L37.1891 3.14385L37.7449 3.06431L37.9265 2.66924L38.485 2.14938L38.8908 1.93816L39.3215 1.66795L40.0038 1.3319L40.5651 1.18099L41.0672 0.795547L41.4648 0.673484L42.1553 0.663898ZM17.8097 36.6687L17.4369 36.7853L17.1921 36.7565L17.5277 36.249L17.6983 36.3587L17.917 36.404L17.8097 36.6687Z"/>
</mask>
<path d="M42.1553 0.663898L42.7621 1.51018L43.4142 2.41963L43.9217 3.12601L44.2932 4.95445L44.3331 5.30147L44.362 5.45786L44.3908 5.60186L44.439 5.85013L44.7307 5.95712L45.281 6.00652L45.6813 6.18618L45.9206 6.48385L45.944 6.53324L46.0706 6.7623L46.0995 6.92827L46.0651 7.4056L45.9839 8.01877L45.8464 8.4138L45.9234 8.95149L45.8986 9.18055L45.8381 9.33693L45.5919 9.5166L45.2575 9.6922L44.4583 10.2107L44.2299 10.2875L43.8956 10.3012L43.6053 10.4301L43.2614 10.7099L42.5186 11.7497L41.8844 12.7935L41.6642 13.6563L41.4166 14.4793L40.8581 15.0046L40.7796 15.2995L40.7563 15.471L40.737 15.8674L40.6697 16.5231L40.583 16.8386L40.4935 16.9318L39.891 17.1321L39.5443 17.3722L39.3366 17.8481L39.2609 18.3625L39.1398 18.9482L39.0711 19.4626L38.9775 19.7287L38.7794 20.0085L38.4726 20.3089L38.2071 20.479L37.5151 20.59L37.1588 21.2704L36.8576 21.8012L36.8493 22.0138L36.5591 23.1139L36.0542 23.9424L36.0211 24.2346L36.0198 24.4746L35.3883 25.203L35.2205 25.4183L35.0595 25.6995L35.2191 25.9711L35.3966 26.218L35.4227 26.3017L35.1366 26.5335L34.6358 26.9368L34.3373 27.1782L34.2713 27.3099L34.2273 27.9147L34.1406 28.078L33.9411 28.3002L33.6481 28.5443L33.351 28.7336L33.0139 28.8653L32.6906 28.9147L32.509 28.8379L32.4058 28.6541L32.2243 27.9134L32.1321 27.7543L31.9216 27.6102L31.5061 27.2042L31.0852 26.7941L30.5775 26.5061L30.4689 26.5266L30.3849 26.6048L30.2405 27.0177L30.0988 27.1686L29.8319 27.2207L29.3683 27.2234L29.0299 27.1658L28.9528 27.0835L28.8841 26.9052L28.7905 26.7625L28.3861 27.052L27.7505 27.5074L27.5441 27.5814L27.3859 27.6733L27.1768 28.0972L26.9223 28.5512L26.5908 28.7885L26.2675 28.9888L26.0818 29.163L25.8163 29.3687L25.2963 29.8831L24.607 30.5634L24.3635 30.9146L24.1228 31.4399L23.9825 32.0215L23.8297 32.658L23.6055 33.6812L23.2754 34.2601L22.9864 34.7196L22.7719 35.0803L22.6591 35.378L22.6123 35.3684L22.4995 35.4959L22.1776 35.4123L22.0331 35.153L21.8336 35.1105L21.4897 34.7306L21.4168 34.7937L21.78 35.7593L21.6452 36.1365L20.623 36.1447L19.7439 36.2709L19.14 36.26L18.8374 36.1228L18.7026 35.7607L18.6503 35.7977L18.62 35.9911L18.4288 36.1434L17.7506 36.1722L17.4507 35.9253L17.2086 35.6482L16.9486 35.5261L16.9884 35.6414L17.287 35.9116L17.2512 36.2997L16.7051 36.7496L16.357 36.7757L16.1437 36.5823L16.0323 36.2668L15.9759 35.8005L15.8329 35.4959H15.7558L15.8274 35.7744L15.8507 36.0021L15.8535 36.4753L16.1135 36.8429L15.7146 36.9568L15.5522 36.9609L15.2358 36.9691L15.1753 36.8319L15.1147 36.5274L15.0308 36.4479L14.9332 36.9636L14.7227 36.9993L14.5769 36.9952L13.9495 37.1077L13.8092 37.0857L13.7803 36.9897L13.8546 36.847L13.8381 36.6152L13.6207 36.7936L13.5864 37.1515L13.4626 37.2091L13.0897 37.1584L12.6811 36.9746L12.4321 36.7867L12.0167 36.5247L11.2023 35.7908L11.0702 35.4603L10.8377 35.0557L10.6644 34.6441L10.414 33.9418L10.491 33.8911L10.6795 33.9514L10.7717 33.8458L10.4332 33.769L10.3631 33.6867L10.3397 33.4398L10.3549 33.1381L10.63 33.0324L10.868 32.9803L10.9877 32.7979L11.0564 32.6141L10.425 32.8925L9.83209 32.577L9.70412 32.3864L9.76882 32.2396L10.0522 32.2177L10.4567 32.2286L10.6988 32.086L10.5502 32.0352L10.2888 32.0407L10.1925 31.9461L10.2008 31.717L10.1155 31.7678L10.0027 31.9707L9.6037 32.1203L9.36985 31.9707L9.34647 31.6388L9.29554 31.4893L9.09886 31.3727L8.39997 30.4935L7.52227 29.7596L6.74227 29.2535L5.56331 29.0121L3.09531 29.0217L2.95635 28.9517L3.1077 28.8365L3.32365 28.7583L4.11747 28.3482L3.984 28.2933L3.15858 28.5498L2.87658 28.5745L2.51066 29.067L0.337038 29.1493L0.0825382 29.1753L0.088038 28.9503L0.193961 28.3029L0.264114 28.0478L0.345309 27.8558L0.261385 27.6253L0.178847 27.3126L0.138963 26.8215L0.24073 26.6693L0.275155 26.4841L0.250386 26.1933V25.2222L0.309539 25.1166L0.379693 25.0356L0.383807 24.9067L0.251771 24.6557L0.129307 24.369L0.133421 23.9561L0.0839237 23.557L0 23.3745L0.0632681 22.6942L0.0990375 21.8328L0.066039 21.4501L0.145806 21.1799L0.188461 20.5146L0.181576 19.8631L0.343923 18.8329L0.819925 18.7836L1.38669 18.6971L1.63981 18.2925L1.78566 17.7795L1.73889 17.272L1.84892 17.1047L2.07593 16.8289L2.48589 16.4353L2.46939 16.0032L2.58215 15.8702L2.77616 15.77L3.05404 15.7193L3.36492 15.5039L3.53689 15.1267L3.70612 14.5232L3.43923 14.1021L3.44335 14.0088L3.54516 13.7825L3.70885 13.5562L3.8382 13.4834L4.14085 13.5411L4.19312 13.5219L4.23989 13.4505L4.43523 12.7825L4.41735 12.6028L4.13535 12.1557L4.08854 11.8375L4.04727 11.3643L3.9785 10.9445L3.89735 10.7854L3.74739 10.6523L3.67996 10.5659L3.0967 9.71275L3.10631 9.30809L3.3512 8.791L3.51077 8.53996L3.73362 8.40007L3.77766 8.28072L3.71162 8.13535L3.59881 8.02559L3.57266 7.79243L3.60431 7.63742L3.68412 7.46735L3.65246 7.1107L3.65935 6.56342L3.6965 5.76511L3.7075 5.27677L4.18073 4.91469L4.86997 4.31525L5.22078 3.6884L5.40924 3.21379L5.64035 1.63367L5.80816 1.53764L6.00627 1.46355L6.69823 0.887472L7.23066 0.673484L7.63785 0.550039L8.25005 0.445766L8.62974 0.488296L9.3217 0.514374L9.86647 0.456775L10.3287 0.142659L10.5378 0.0548783L10.8322 0L12.1694 0.423831L13.5052 0.824347L13.7473 0.787343L13.9509 0.843561L14.2852 1.06027L14.7777 1.52529L15.0707 1.82568L15.2124 2.00124L15.8989 3.00943L16.1548 3.26319L16.412 3.4017L16.6734 3.4511L16.8742 3.43188L17.0641 3.31807L17.3227 3.09311L17.7162 2.99022L18.0367 3.01081L19.6999 2.10413L19.8609 2.09178L20.3451 2.16311L20.883 2.28794L22.2766 3.19734L23.4143 3.79263L24.2136 3.99155L25.1559 4.13283L26.7559 4.17536L27.9651 2.90106L28.4122 2.62261L28.9515 2.37161L29.1248 2.32908L30.0754 2.13569L31.9395 1.97244L33.688 2.04377L34.0319 2.09454L34.7748 2.26324L35.9193 2.67887L36.4132 3.078L37.1891 3.14385L37.7449 3.06431L37.9265 2.66924L38.485 2.14938L38.8908 1.93816L39.3215 1.66795L40.0038 1.3319L40.5651 1.18099L41.0672 0.795547L41.4648 0.673484L42.1553 0.663898ZM17.8097 36.6687L17.4369 36.7853L17.1921 36.7565L17.5277 36.249L17.6983 36.3587L17.917 36.404L17.8097 36.6687Z" fill="var(--fill-0, #71B219)" stroke="var(--stroke-0, white)" mask="url(#path-1-inside-1_0_65)"/>
</g>
</svg>
