<svg preserveAspectRatio="none" width="100%" height="100%" overflow="visible" style="display: block;" viewBox="0 0 46 37" fill="none" xmlns="http://www.w3.org/2000/svg"><g id="NG"><mask id="path-1-inside-1_0_65" fill="white"><path d="M42 1L43 2L43 2L44 3L44 5L44 5L44 6L44 6L44 6L45 6L45 6L46 6L46 6L46 6L46 7L46 7L46 7L46 8L46 8L46 9L46 9L46 9L46 10L45 10L44 10L44 10L44 10L44 10L43 11L42 12L42 13L42 14L41 14L41 15L41 15L41 16L41 16L41 16L41 17L40 17L40 17L40 17L39 18L39 18L39 19L39 20L39 20L39 20L38 20L38 20L38 21L37 21L37 22L37 22L37 23L36 24L36 24L36 24L35 25L35 25L35 26L35 26L35 26L35 26L35 26L35 27L34 27L34 27L34 28L34 28L34 28L34 28L33 29L33 29L33 29L32 29L32 29L32 28L32 28L32 28L32 27L31 27L31 26L30 26L30 27L30 27L30 27L30 27L29 27L29 27L29 27L29 27L29 27L28 27L28 28L28 28L27 28L27 28L27 29L27 29L26 29L26 29L26 29L25 30L25 31L24 31L24 31L24 32L24 33L24 34L23 34L23 35L23 35L23 35L23 35L22 36L22 35L22 35L22 35L22 35L21 35L22 36L22 36L21 36L20 36L19 36L19 36L19 36L19 36L19 36L18 36L18 36L18 36L17 36L17 36L17 36L17 36L17 36L17 37L16 37L16 37L16 36L16 36L16 36H16L16 36L16 36L16 36L16 37L16 37L16 37L15 37L15 37L15 36L15 36L15 37L15 37L15 37L14 37L14 37L14 37L14 37L14 37L14 37L14 37L14 37L13 37L13 37L12 37L12 36L11 36L11 36L11 35L11 35L10 34L10 34L11 34L11 34L10 34L10 34L10 33L10 33L11 33L11 33L11 33L11 33L10 33L10 33L10 32L10 32L10 32L10 32L11 32L11 32L10 32L10 32L10 32L10 32L10 32L10 32L9 32L9 32L9 32L9 31L8 30L8 30L7 29L6 29L3 29L3 29L3 29L3 29L4 28L4 28L3 28L3 29L2 29L0 29L0 29L0 29L0 28L0 28L0 28L0 28L0 27L0 27L0 27L0 26L0 26V25L0 25L0 25L0 25L0 25L0 24L0 24L0 24L0 23L0 23L0 22L0 22L0 21L0 20L0 20L0 19L1 19L1 19L2 18L2 18L2 17L2 17L2 17L2 16L2 16L3 16L3 16L3 16L3 16L4 15L4 14L3 14L3 14L4 14L4 14L4 14L4 14L4 14L4 14L4 13L4 13L4 12L4 12L4 11L4 11L4 11L4 11L4 11L3 10L3 9L3 9L4 8L4 8L4 8L4 8L4 8L4 8L4 8L4 8L4 7L4 7L4 6L4 5L4 5L5 4L5 4L5 3L6 2L6 2L6 2L7 1L7 1L8 1L8 0L9 0L9 0L10 0L10 0L10 0L11 0L12 0L14 1L14 1L14 1L14 1L15 2L15 2L15 2L16 3L16 3L16 3L17 4L17 3L17 3L17 3L18 3L18 3L20 2L20 2L20 2L21 2L22 3L23 4L24 4L25 4L27 4L28 3L28 3L29 2L29 2L30 2L32 2L34 2L34 2L35 2L36 3L36 3L37 3L38 3L38 3L38 2L39 2L39 2L40 1L41 1L41 1L42 1L42 1ZM18 37L17 37L17 37L18 36L18 36L18 36L18 37Z"/></mask><path d="M42 1L43 2L43 2L44 3L44 5L44 5L44 6L44 6L44 6L45 6L45 6L46 6L46 6L46 6L46 7L46 7L46 7L46 8L46 8L46 9L46 9L46 9L46 10L45 10L44 10L44 10L44 10L44 10L43 11L42 12L42 13L42 14L41 14L41 15L41 15L41 16L41 16L41 16L41 17L40 17L40 17L40 17L39 18L39 18L39 19L39 20L39 20L39 20L38 20L38 20L38 21L37 21L37 22L37 22L37 23L36 24L36 24L36 24L35 25L35 25L35 26L35 26L35 26L35 26L35 26L35 27L34 27L34 27L34 28L34 28L34 28L34 28L33 29L33 29L33 29L32 29L32 29L32 28L32 28L32 28L32 27L31 27L31 26L30 26L30 27L30 27L30 27L30 27L29 27L29 27L29 27L29 27L29 27L28 27L28 28L28 28L27 28L27 28L27 29L27 29L26 29L26 29L26 29L25 30L25 31L24 31L24 31L24 32L24 33L24 34L23 34L23 35L23 35L23 35L23 35L22 36L22 35L22 35L22 35L22 35L21 35L22 36L22 36L21 36L20 36L19 36L19 36L19 36L19 36L19 36L18 36L18 36L18 36L17 36L17 36L17 36L17 36L17 36L17 37L16 37L16 37L16 36L16 36L16 36H16L16 36L16 36L16 36L16 37L16 37L16 37L15 37L15 37L15 36L15 36L15 37L15 37L15 37L14 37L14 37L14 37L14 37L14 37L14 37L14 37L14 37L13 37L13 37L12 37L12 36L11 36L11 36L11 35L11 35L10 34L10 34L11 34L11 34L10 34L10 34L10 33L10 33L11 33L11 33L11 33L11 33L10 33L10 33L10 32L10 32L10 32L10 32L11 32L11 32L10 32L10 32L10 32L10 32L10 32L10 32L9 32L9 32L9 32L9 31L8 30L8 30L7 29L6 29L3 29L3 29L3 29L3 29L4 28L4 28L3 28L3 29L2 29L0 29L0 29L0 29L0 28L0 28L0 28L0 28L0 27L0 27L0 27L0 26L0 26V25L0 25L0 25L0 25L0 25L0 24L0 24L0 24L0 23L0 23L0 22L0 22L0 21L0 20L0 20L0 19L1 19L1 19L2 18L2 18L2 17L2 17L2 17L2 16L2 16L3 16L3 16L3 16L3 16L4 15L4 14L3 14L3 14L4 14L4 14L4 14L4 14L4 14L4 14L4 13L4 13L4 12L4 12L4 11L4 11L4 11L4 11L4 11L3 10L3 9L3 9L4 8L4 8L4 8L4 8L4 8L4 8L4 8L4 8L4 7L4 7L4 6L4 5L4 5L5 4L5 4L5 3L6 2L6 2L6 2L7 1L7 1L8 1L8 0L9 0L9 0L10 0L10 0L10 0L11 0L12 0L14 1L14 1L14 1L14 1L15 2L15 2L15 2L16 3L16 3L16 3L17 4L17 3L17 3L17 3L18 3L18 3L20 2L20 2L20 2L21 2L22 3L23 4L24 4L25 4L27 4L28 3L28 3L29 2L29 2L30 2L32 2L34 2L34 2L35 2L36 3L36 3L37 3L38 3L38 3L38 2L39 2L39 2L40 1L41 1L41 1L42 1L42 1ZM18 37L17 37L17 37L18 36L18 36L18 36L18 37Z" fill="var(--fill-0,#71B219)" stroke="var(--stroke-0,white)" mask="url(#path-1-inside-1_0_65)"/></g></svg>