<svg preserveAspectRatio="none" width="100%" height="100%" overflow="visible" style="display: block;" viewBox="0 0 17 17" fill="none" xmlns="http://www.w3.org/2000/svg"><g id="NI"><mask id="path-1-inside-1_0_63" fill="white"><path d="M17 0L17 0L17 0L17 1L17 1L17 0L17 0L16 0L16 1L17 1L17 1L17 1L17 3L17 3L17 3L17 4L16 4L16 5L16 7L16 8L16 10L16 10L16 10L16 10L16 10L16 10L16 10L16 10L16 9L16 9L16 9L15 10L15 10L15 10L15 10L16 10L16 11L15 11L15 12L15 12L15 12L15 12L15 12L15 12L15 12L15 12L15 12L15 12L15 12L16 13L16 13L15 14L15 14L15 14L15 14L15 15L15 15L15 16L15 16L16 16L16 16L15 17L15 17L14 17L14 17L14 17L13 16L13 16L13 16L13 16L13 16L12 16L12 16L12 16L11 16L11 16L10 16L9 15L8 15L8 15L8 15L8 15L8 15L8 15L8 16L7 16L7 15L7 15L7 14L5 13L4 12L4 11L3 11L2 10L2 10L1 9L0 8L0 8L0 8L0 8L1 8L1 8L1 8L1 8L1 8L2 8L3 8L3 8L3 8L3 7L3 7L3 7L3 7L4 7L4 7L4 6L4 5L4 5L4 5L4 5L4 5L5 5L5 5L6 4L6 4L6 4L6 4L6 4L7 5L7 5L8 4L8 4L8 4L8 4L8 4L8 4L9 3L9 3L10 3L10 3L10 2L10 2L10 2L10 2L10 2L10 2L10 1L10 1L10 1L11 1L11 1L11 1L12 1L12 2L12 1L13 1L13 1L13 1L13 1L13 1L13 1L13 1L14 1L14 1L14 1L14 1L14 1L14 1L15 1L15 1L15 0L16 0L16 0L16 0L16 0L17 0Z"/></mask><path d="M17 0L17 0L17 0L17 1L17 1L17 0L17 0L16 0L16 1L17 1L17 1L17 1L17 3L17 3L17 3L17 4L16 4L16 5L16 7L16 8L16 10L16 10L16 10L16 10L16 10L16 10L16 10L16 10L16 9L16 9L16 9L15 10L15 10L15 10L15 10L16 10L16 11L15 11L15 12L15 12L15 12L15 12L15 12L15 12L15 12L15 12L15 12L15 12L15 12L16 13L16 13L15 14L15 14L15 14L15 14L15 15L15 15L15 16L15 16L16 16L16 16L15 17L15 17L14 17L14 17L14 17L13 16L13 16L13 16L13 16L13 16L12 16L12 16L12 16L11 16L11 16L10 16L9 15L8 15L8 15L8 15L8 15L8 15L8 15L8 16L7 16L7 15L7 15L7 14L5 13L4 12L4 11L3 11L2 10L2 10L1 9L0 8L0 8L0 8L0 8L1 8L1 8L1 8L1 8L1 8L2 8L3 8L3 8L3 8L3 7L3 7L3 7L3 7L4 7L4 7L4 6L4 5L4 5L4 5L4 5L4 5L5 5L5 5L6 4L6 4L6 4L6 4L6 4L7 5L7 5L8 4L8 4L8 4L8 4L8 4L8 4L9 3L9 3L10 3L10 3L10 2L10 2L10 2L10 2L10 2L10 2L10 1L10 1L10 1L11 1L11 1L11 1L12 1L12 2L12 1L13 1L13 1L13 1L13 1L13 1L13 1L13 1L14 1L14 1L14 1L14 1L14 1L14 1L15 1L15 1L15 0L16 0L16 0L16 0L16 0L17 0Z" fill="var(--fill-0,#71B219)" stroke="var(--stroke-0,white)" mask="url(#path-1-inside-1_0_63)"/></g></svg>