<svg preserveAspectRatio="none" width="100%" height="100%" overflow="visible" style="display: block;" viewBox="0 0 17.4232 16.7686" fill="none" xmlns="http://www.w3.org/2000/svg">
<g id="NI">
<mask id="path-1-inside-1_0_63" fill="white">
<path d="M17.4232 0.0589806L17.3159 0.204402L17.1976 0.300387L16.9513 0.773613L16.866 0.816142L16.8481 0.466361L16.7009 0.419729L16.529 0.544555L16.434 0.72426L16.584 0.95742L16.7161 0.961564L16.8756 1.02603L17.3062 2.64182L17.2141 2.9299L16.9472 3.37843L16.6941 3.75839L16.4395 3.99703L16.1245 5.01205L15.8411 6.65945L16.0447 8.13673L15.9415 9.50153L16.0323 9.82251L16.0585 10.223L15.8494 10.2957L15.731 10.2834L15.61 10.0378L15.6238 9.82113L15.7489 9.56737L15.7998 9.22307L15.7407 9.04341L15.6169 9.43568L15.3995 9.61128L15.2578 9.67299L15.1202 9.87052L15.2661 10.2436L15.4546 10.5165L15.5178 10.7114L15.4477 10.9445L15.405 11.7401L15.3376 11.7181L15.2688 11.6111L15.0694 11.6029L15.046 11.9239L15.0611 12.1022L14.8919 12.2408L14.8314 12.3779L14.9703 12.4767L15.123 12.5343L15.3115 12.5206L15.4656 12.9142L15.5151 13.2338L15.1546 13.5287L15.0336 13.7729L14.83 14.0692L14.7144 14.36L14.68 14.5685L14.8204 15.2296L15.0666 15.6987L15.2743 15.9964L15.5522 16.0608L15.4876 16.3736L15.2785 16.5725L14.8988 16.7384L14.4819 16.7686L13.7996 16.6122L13.5203 16.5944L13.4116 16.5108L13.3786 16.3571L13.1833 16.1253L12.8256 15.8167L12.6192 15.8386L12.2822 15.7714L11.7223 15.5615L11.4637 15.5355L11.0922 15.7152L10.6603 15.9511L9.61885 15.5835L8.88699 15.3242L8.22941 15.0897L8.05468 15.0005L7.91024 15.0197L7.78504 15.1418L7.64335 15.3586L7.59658 15.4216L7.52093 15.4806L7.43562 15.4971L7.43287 15.3942L7.11097 14.9635L6.5992 14.4464L4.63885 12.858L3.91798 11.9074L3.53141 11.223L3.1641 10.8663L2.10481 10.1366L1.85994 9.84582L0.811654 8.86919L0.0110205 8.29584L0 8.05167L0.328789 7.74718L0.489751 7.76225L0.665848 7.979L0.949232 8.22727L1.08267 8.22861L1.28077 8.11341L1.28491 7.99817L2.35931 7.95154L2.55191 7.88707L2.74589 7.70741L2.84631 7.455L2.86283 7.21359L2.9041 7.03941L3.07606 6.87067L3.39108 6.81856L3.63321 6.80073L3.70475 6.68687L3.63183 6.31791L3.50114 5.42081L3.47364 5.16982L3.51766 4.98325L3.61669 4.91607L4.0927 4.87078L4.99377 4.94625L5.16849 4.88999L5.52891 4.37972L5.86458 4.00528L6.10395 3.83654L6.29379 3.78581L6.51116 4.11914L7.27193 4.59647L7.40124 4.56629L7.47553 4.54021L7.50027 4.47164L7.48652 4.25217L7.67637 4.05191L8.0712 3.87221L8.46739 3.55537L8.86635 3.09998L9.21303 2.83249L9.50466 2.75296L9.61747 2.62947L9.54732 2.46078L9.5707 2.22075L9.68626 1.91074L9.85685 1.73103L10.0797 1.68168L10.1691 1.58427L10.1224 1.43751L10.165 1.27702L10.3672 1.0123L10.8487 0.785961L11.1239 0.861435L11.3522 1.16592L11.6769 1.37305L12.0951 1.48276L12.4198 1.44299L12.6509 1.25232L12.8586 1.19472L13.043 1.27015L13.1406 1.22629L13.1516 1.06718L13.2465 1.03013L13.4281 1.11653L13.5877 1.13851L13.728 1.09736L13.7831 1.01916L13.812 0.938248L13.9165 0.879267L14.2783 0.938248L14.6828 0.846323L15.1326 0.600815L15.4312 0.493821L15.5784 0.521239L15.7544 0.397795L15.9594 0.123445L16.4285 0L17.4232 0.0589806Z"/>
</mask>
<path d="M17.4232 0.0589806L17.3159 0.204402L17.1976 0.300387L16.9513 0.773613L16.866 0.816142L16.8481 0.466361L16.7009 0.419729L16.529 0.544555L16.434 0.72426L16.584 0.95742L16.7161 0.961564L16.8756 1.02603L17.3062 2.64182L17.2141 2.9299L16.9472 3.37843L16.6941 3.75839L16.4395 3.99703L16.1245 5.01205L15.8411 6.65945L16.0447 8.13673L15.9415 9.50153L16.0323 9.82251L16.0585 10.223L15.8494 10.2957L15.731 10.2834L15.61 10.0378L15.6238 9.82113L15.7489 9.56737L15.7998 9.22307L15.7407 9.04341L15.6169 9.43568L15.3995 9.61128L15.2578 9.67299L15.1202 9.87052L15.2661 10.2436L15.4546 10.5165L15.5178 10.7114L15.4477 10.9445L15.405 11.7401L15.3376 11.7181L15.2688 11.6111L15.0694 11.6029L15.046 11.9239L15.0611 12.1022L14.8919 12.2408L14.8314 12.3779L14.9703 12.4767L15.123 12.5343L15.3115 12.5206L15.4656 12.9142L15.5151 13.2338L15.1546 13.5287L15.0336 13.7729L14.83 14.0692L14.7144 14.36L14.68 14.5685L14.8204 15.2296L15.0666 15.6987L15.2743 15.9964L15.5522 16.0608L15.4876 16.3736L15.2785 16.5725L14.8988 16.7384L14.4819 16.7686L13.7996 16.6122L13.5203 16.5944L13.4116 16.5108L13.3786 16.3571L13.1833 16.1253L12.8256 15.8167L12.6192 15.8386L12.2822 15.7714L11.7223 15.5615L11.4637 15.5355L11.0922 15.7152L10.6603 15.9511L9.61885 15.5835L8.88699 15.3242L8.22941 15.0897L8.05468 15.0005L7.91024 15.0197L7.78504 15.1418L7.64335 15.3586L7.59658 15.4216L7.52093 15.4806L7.43562 15.4971L7.43287 15.3942L7.11097 14.9635L6.5992 14.4464L4.63885 12.858L3.91798 11.9074L3.53141 11.223L3.1641 10.8663L2.10481 10.1366L1.85994 9.84582L0.811654 8.86919L0.0110205 8.29584L0 8.05167L0.328789 7.74718L0.489751 7.76225L0.665848 7.979L0.949232 8.22727L1.08267 8.22861L1.28077 8.11341L1.28491 7.99817L2.35931 7.95154L2.55191 7.88707L2.74589 7.70741L2.84631 7.455L2.86283 7.21359L2.9041 7.03941L3.07606 6.87067L3.39108 6.81856L3.63321 6.80073L3.70475 6.68687L3.63183 6.31791L3.50114 5.42081L3.47364 5.16982L3.51766 4.98325L3.61669 4.91607L4.0927 4.87078L4.99377 4.94625L5.16849 4.88999L5.52891 4.37972L5.86458 4.00528L6.10395 3.83654L6.29379 3.78581L6.51116 4.11914L7.27193 4.59647L7.40124 4.56629L7.47553 4.54021L7.50027 4.47164L7.48652 4.25217L7.67637 4.05191L8.0712 3.87221L8.46739 3.55537L8.86635 3.09998L9.21303 2.83249L9.50466 2.75296L9.61747 2.62947L9.54732 2.46078L9.5707 2.22075L9.68626 1.91074L9.85685 1.73103L10.0797 1.68168L10.1691 1.58427L10.1224 1.43751L10.165 1.27702L10.3672 1.0123L10.8487 0.785961L11.1239 0.861435L11.3522 1.16592L11.6769 1.37305L12.0951 1.48276L12.4198 1.44299L12.6509 1.25232L12.8586 1.19472L13.043 1.27015L13.1406 1.22629L13.1516 1.06718L13.2465 1.03013L13.4281 1.11653L13.5877 1.13851L13.728 1.09736L13.7831 1.01916L13.812 0.938248L13.9165 0.879267L14.2783 0.938248L14.6828 0.846323L15.1326 0.600815L15.4312 0.493821L15.5784 0.521239L15.7544 0.397795L15.9594 0.123445L16.4285 0L17.4232 0.0589806Z" fill="var(--fill-0, #71B219)" stroke="var(--stroke-0, white)" mask="url(#path-1-inside-1_0_63)"/>
</g>
</svg>
