<svg preserveAspectRatio="none" width="100%" height="100%" overflow="visible" style="display: block;" viewBox="0 0 15 18" fill="none" xmlns="http://www.w3.org/2000/svg"><g id="NL"><mask id="path-1-inside-1_0_64" fill="white"><path d="M7 2L7 2L8 1L8 1L9 1L8 2L7 2ZM9 1L10 1L10 1L10 1L9 1L9 1L9 1L9 1ZM12 1L11 1L11 1L11 1L11 1L12 1ZM7 2L6 2L6 2L6 2L7 2ZM13 0H13L13 0L13 0L13 0L13 0ZM2 14L2 14L1 14L1 14L0 14L0 14L0 15L0 15L0 15L0 15L1 15L1 15L1 15L2 15L2 15L2 15L2 15L3 15L3 15L3 14L3 14L3 14L2 14ZM15 2L14 2L14 2L14 2L13 1L12 1L12 1L10 1L10 2L8 2L8 3L8 3L7 4L6 5L6 4L6 4L5 5L5 5L5 8L4 8L4 9L3 10L3 10L3 10L3 11L2 11L2 12L3 12L3 13L3 13L2 13L3 13L3 13L3 13L4 14L3 14L3 14L2 13L2 13L1 13L1 13L0 13L1 14L1 14L1 14L2 14L2 14L3 14L3 14L4 14L4 14L4 14L4 14L4 14L4 14L5 14L5 14L5 14L5 14L6 14L6 14L6 14L6 14L6 14L6 14L6 14L6 14L7 14L7 14L7 14L7 15L8 15L8 15L8 15L8 15L8 15L9 15L9 16L9 16L10 16L10 16L9 17L9 17L9 17L9 17L9 17L9 18L9 18L9 18L9 18L9 18L10 18L10 18L10 17L10 17L10 17L10 17L10 16L10 16L10 16L10 16L10 16L11 16L11 16L11 15L11 15L10 15L10 15L11 14L11 14L11 14L11 14L11 13L11 13L11 13L10 12L10 12V12L10 11L11 11L11 11L11 11L11 11L12 11L12 11L12 11L12 11L13 11L13 11L13 10L13 10L13 10L13 10L13 10L13 10L13 10L14 10L14 9L14 9L14 8L14 8L14 8L14 8L14 8L13 8L13 7L13 7L13 7L13 7L13 7L13 7L13 6L13 6L14 6L14 6L14 6L14 5L15 4L15 4L15 3L15 2ZM2 12L2 12L2 13L3 12L3 12L3 12L2 12L2 12L1 12L1 12L2 12ZM6 4L6 4V3L5 3L5 4L5 4L6 4Z"/></mask><path d="M7 2L7 2L8 1L8 1L9 1L8 2L7 2ZM9 1L10 1L10 1L10 1L9 1L9 1L9 1L9 1ZM12 1L11 1L11 1L11 1L11 1L12 1ZM7 2L6 2L6 2L6 2L7 2ZM13 0H13L13 0L13 0L13 0L13 0ZM2 14L2 14L1 14L1 14L0 14L0 14L0 15L0 15L0 15L0 15L1 15L1 15L1 15L2 15L2 15L2 15L2 15L3 15L3 15L3 14L3 14L3 14L2 14ZM15 2L14 2L14 2L14 2L13 1L12 1L12 1L10 1L10 2L8 2L8 3L8 3L7 4L6 5L6 4L6 4L5 5L5 5L5 8L4 8L4 9L3 10L3 10L3 10L3 11L2 11L2 12L3 12L3 13L3 13L2 13L3 13L3 13L3 13L4 14L3 14L3 14L2 13L2 13L1 13L1 13L0 13L1 14L1 14L1 14L2 14L2 14L3 14L3 14L4 14L4 14L4 14L4 14L4 14L4 14L5 14L5 14L5 14L5 14L6 14L6 14L6 14L6 14L6 14L6 14L6 14L6 14L7 14L7 14L7 14L7 15L8 15L8 15L8 15L8 15L8 15L9 15L9 16L9 16L10 16L10 16L9 17L9 17L9 17L9 17L9 17L9 18L9 18L9 18L9 18L9 18L10 18L10 18L10 17L10 17L10 17L10 17L10 16L10 16L10 16L10 16L10 16L11 16L11 16L11 15L11 15L10 15L10 15L11 14L11 14L11 14L11 14L11 13L11 13L11 13L10 12L10 12V12L10 11L11 11L11 11L11 11L11 11L12 11L12 11L12 11L12 11L13 11L13 11L13 10L13 10L13 10L13 10L13 10L13 10L13 10L14 10L14 9L14 9L14 8L14 8L14 8L14 8L14 8L13 8L13 7L13 7L13 7L13 7L13 7L13 7L13 6L13 6L14 6L14 6L14 6L14 5L15 4L15 4L15 3L15 2ZM2 12L2 12L2 13L3 12L3 12L3 12L2 12L2 12L1 12L1 12L2 12ZM6 4L6 4V3L5 3L5 4L5 4L6 4Z" fill="var(--fill-0,#71B219)" stroke="var(--stroke-0,white)" mask="url(#path-1-inside-1_0_64)"/></g></svg>