<svg preserveAspectRatio="none" width="100%" height="100%" overflow="visible" style="display: block;" viewBox="0 0 14.8506 18.0168" fill="none" xmlns="http://www.w3.org/2000/svg">
<g id="NL">
<mask id="path-1-inside-1_0_64" fill="white">
<path d="M7.26504 1.59938L7.10135 1.51022L7.96939 1.2537L8.51832 1.17551L8.61597 1.20979L7.62408 1.54723L7.26504 1.59938ZM9.19239 1.18237L9.95451 1.07676L9.95039 1.037L9.74955 0.972531L9.10024 0.983498L8.89251 1.02875L8.93512 1.10418L9.19239 1.18237ZM11.5145 0.742092L11.3509 0.714632L10.8749 0.851807L10.8419 0.91489L10.9739 0.961522L11.5145 0.742092ZM6.78631 2.04791L6.47127 2.03418L6.01177 2.44433L6.07231 2.51976L6.78631 2.04791ZM13.3195 0H13.1406L12.8091 0.128929L12.7059 0.300387L13.0636 0.278452L13.3195 0ZM2.54916 14.0719L2.05665 14.3271L1.41285 14.2379L0.923118 14.0513L0.291655 14.087L0 14.1844L0.115579 14.7166L0.203617 14.8853L0.31781 14.9951L0.469116 15.017L0.643849 14.8853L0.887349 14.7468L1.27938 14.8112L1.56415 14.9388L1.66596 15.0719L1.85442 15.198L2.12958 15.2282L2.66196 14.9868L3.17373 14.6179L3.3237 14.3613L3.38008 14.1295L2.93712 14.2886L2.54916 14.0719ZM14.8506 2.21389L14.3127 2.09726L13.966 1.92581L13.75 1.61583L13.3786 1.19196L12.4032 1.23587L11.5916 1.35794L10.4677 1.41009L9.73993 1.61583L8.42201 2.30167L8.09047 2.65145L7.75204 3.40447L6.6047 4.27138L5.93612 4.60467L5.74766 4.47713L5.47666 4.39345L5.26066 4.83373L5.12724 5.23014L4.67873 7.55241L4.37335 8.39186L3.962 9.09687L3.31543 9.9583L3.01827 10.2518L2.8367 10.3629L2.60969 10.7772L2.42812 11.2737L2.30431 11.5055L3.02927 12.3587L3.12008 12.6028L3.215 12.7455L2.52854 12.8347L2.8202 13.1104L3.1875 13.3079L3.43373 13.4025L3.56854 13.6015L3.30443 13.6933L3.05543 13.6988L2.07042 12.9677L1.52288 12.8333L0.769041 12.8758L0.579195 12.9526L0.383807 13.1749L0.660348 13.5123L0.916233 13.7112L1.32754 13.7372L1.82281 13.9869L2.53543 13.7784L3.04716 14.0349L3.38419 14.1268L3.68685 14.2804L3.95373 14.3133L4.0707 14.2448L3.99639 13.873L4.21377 13.6741L4.4545 13.5822L4.5632 13.7441L4.78466 13.9087L4.958 13.91L5.42851 13.4821L5.53854 13.5671L5.64035 13.7194L5.66235 13.8415L5.68023 13.9704L5.78616 14.0239L6.15624 13.9965L6.3447 13.7647L6.49189 13.6193L6.60197 13.718L6.65562 14.0034L6.75743 14.3751L7.199 14.7893L7.57181 14.9073L8.02993 14.8263L8.2115 14.7523L8.33397 14.814L8.45639 15.0334L8.72055 15.2845L9.27493 15.4614L9.44551 15.5615L9.56381 15.7302L9.52943 15.9703L9.26532 16.567L9.23089 16.7425L9.26666 16.8015L9.21439 16.9113L8.87047 17.3104L8.8402 17.4517L8.95439 17.6808L9.04931 17.8701L9.25566 17.962L9.44966 17.9921L9.81697 18.0045L10.209 18.0168L10.4195 17.0773L10.2585 16.8029L10.0591 16.663L9.82658 16.5944L9.71928 16.4641L9.68212 16.3146L9.72339 16.2227L9.99716 16.2501L10.0825 16.1527L10.7345 15.5986L10.762 15.4916L10.6713 15.4312L10.553 15.3997L10.5227 15.2831L10.5268 15.1295L10.8749 14.3271L10.978 13.9841L11.0014 13.7414L10.9794 13.5013L10.7785 13.1241L10.5846 12.8223L10.5777 12.5823L10.436 12.4561L10.0343 11.8101V11.5604L10.2613 11.3656L10.5791 11.2422L10.685 11.1393L10.8749 11.0748L11.3797 11.2614L11.6054 11.4232L11.6686 11.3903L11.8722 11.2147L12.2299 11.2422L13.0952 10.8883L13.2245 10.7182L13.3209 10.5371L13.3291 10.4576L12.9934 10.1078L12.9838 9.97886L13.0278 9.83348L13.1227 9.71824L13.3209 9.64008L13.5313 9.48646L14.0032 9.05024L14.1669 8.67166L14.2178 8.26017L14.2274 7.95292L14.0981 7.70875L13.9674 7.55102L13.79 7.57572L13.4447 7.56337L13.1214 7.4262L12.9439 7.20401L12.8999 7.00923L12.981 6.88575L13.0058 6.73488L12.9535 6.58264L12.9742 6.45505L13.12 6.3522L14.1421 6.35492L14.2192 6.24244L14.288 5.64987L14.5439 4.74595L14.7846 4.2412L14.8245 4.0286L14.8204 2.82839L14.8506 2.21389ZM1.47062 12.3285L1.80765 12.2311L2.31804 12.6454L2.79681 12.511L2.76789 12.3957L2.68673 12.2874L2.30981 11.9486L1.69212 11.906L1.34269 12.0103L1.34408 12.1324L1.47062 12.3285ZM5.54543 4.02173L5.92789 3.56906V2.84894L5.36247 3.43741L5.24416 3.79129L5.31154 3.89691L5.54543 4.02173Z"/>
</mask>
<path d="M7.26504 1.59938L7.10135 1.51022L7.96939 1.2537L8.51832 1.17551L8.61597 1.20979L7.62408 1.54723L7.26504 1.59938ZM9.19239 1.18237L9.95451 1.07676L9.95039 1.037L9.74955 0.972531L9.10024 0.983498L8.89251 1.02875L8.93512 1.10418L9.19239 1.18237ZM11.5145 0.742092L11.3509 0.714632L10.8749 0.851807L10.8419 0.91489L10.9739 0.961522L11.5145 0.742092ZM6.78631 2.04791L6.47127 2.03418L6.01177 2.44433L6.07231 2.51976L6.78631 2.04791ZM13.3195 0H13.1406L12.8091 0.128929L12.7059 0.300387L13.0636 0.278452L13.3195 0ZM2.54916 14.0719L2.05665 14.3271L1.41285 14.2379L0.923118 14.0513L0.291655 14.087L0 14.1844L0.115579 14.7166L0.203617 14.8853L0.31781 14.9951L0.469116 15.017L0.643849 14.8853L0.887349 14.7468L1.27938 14.8112L1.56415 14.9388L1.66596 15.0719L1.85442 15.198L2.12958 15.2282L2.66196 14.9868L3.17373 14.6179L3.3237 14.3613L3.38008 14.1295L2.93712 14.2886L2.54916 14.0719ZM14.8506 2.21389L14.3127 2.09726L13.966 1.92581L13.75 1.61583L13.3786 1.19196L12.4032 1.23587L11.5916 1.35794L10.4677 1.41009L9.73993 1.61583L8.42201 2.30167L8.09047 2.65145L7.75204 3.40447L6.6047 4.27138L5.93612 4.60467L5.74766 4.47713L5.47666 4.39345L5.26066 4.83373L5.12724 5.23014L4.67873 7.55241L4.37335 8.39186L3.962 9.09687L3.31543 9.9583L3.01827 10.2518L2.8367 10.3629L2.60969 10.7772L2.42812 11.2737L2.30431 11.5055L3.02927 12.3587L3.12008 12.6028L3.215 12.7455L2.52854 12.8347L2.8202 13.1104L3.1875 13.3079L3.43373 13.4025L3.56854 13.6015L3.30443 13.6933L3.05543 13.6988L2.07042 12.9677L1.52288 12.8333L0.769041 12.8758L0.579195 12.9526L0.383807 13.1749L0.660348 13.5123L0.916233 13.7112L1.32754 13.7372L1.82281 13.9869L2.53543 13.7784L3.04716 14.0349L3.38419 14.1268L3.68685 14.2804L3.95373 14.3133L4.0707 14.2448L3.99639 13.873L4.21377 13.6741L4.4545 13.5822L4.5632 13.7441L4.78466 13.9087L4.958 13.91L5.42851 13.4821L5.53854 13.5671L5.64035 13.7194L5.66235 13.8415L5.68023 13.9704L5.78616 14.0239L6.15624 13.9965L6.3447 13.7647L6.49189 13.6193L6.60197 13.718L6.65562 14.0034L6.75743 14.3751L7.199 14.7893L7.57181 14.9073L8.02993 14.8263L8.2115 14.7523L8.33397 14.814L8.45639 15.0334L8.72055 15.2845L9.27493 15.4614L9.44551 15.5615L9.56381 15.7302L9.52943 15.9703L9.26532 16.567L9.23089 16.7425L9.26666 16.8015L9.21439 16.9113L8.87047 17.3104L8.8402 17.4517L8.95439 17.6808L9.04931 17.8701L9.25566 17.962L9.44966 17.9921L9.81697 18.0045L10.209 18.0168L10.4195 17.0773L10.2585 16.8029L10.0591 16.663L9.82658 16.5944L9.71928 16.4641L9.68212 16.3146L9.72339 16.2227L9.99716 16.2501L10.0825 16.1527L10.7345 15.5986L10.762 15.4916L10.6713 15.4312L10.553 15.3997L10.5227 15.2831L10.5268 15.1295L10.8749 14.3271L10.978 13.9841L11.0014 13.7414L10.9794 13.5013L10.7785 13.1241L10.5846 12.8223L10.5777 12.5823L10.436 12.4561L10.0343 11.8101V11.5604L10.2613 11.3656L10.5791 11.2422L10.685 11.1393L10.8749 11.0748L11.3797 11.2614L11.6054 11.4232L11.6686 11.3903L11.8722 11.2147L12.2299 11.2422L13.0952 10.8883L13.2245 10.7182L13.3209 10.5371L13.3291 10.4576L12.9934 10.1078L12.9838 9.97886L13.0278 9.83348L13.1227 9.71824L13.3209 9.64008L13.5313 9.48646L14.0032 9.05024L14.1669 8.67166L14.2178 8.26017L14.2274 7.95292L14.0981 7.70875L13.9674 7.55102L13.79 7.57572L13.4447 7.56337L13.1214 7.4262L12.9439 7.20401L12.8999 7.00923L12.981 6.88575L13.0058 6.73488L12.9535 6.58264L12.9742 6.45505L13.12 6.3522L14.1421 6.35492L14.2192 6.24244L14.288 5.64987L14.5439 4.74595L14.7846 4.2412L14.8245 4.0286L14.8204 2.82839L14.8506 2.21389ZM1.47062 12.3285L1.80765 12.2311L2.31804 12.6454L2.79681 12.511L2.76789 12.3957L2.68673 12.2874L2.30981 11.9486L1.69212 11.906L1.34269 12.0103L1.34408 12.1324L1.47062 12.3285ZM5.54543 4.02173L5.92789 3.56906V2.84894L5.36247 3.43741L5.24416 3.79129L5.31154 3.89691L5.54543 4.02173Z" fill="var(--fill-0, #71B219)" stroke="var(--stroke-0, white)" mask="url(#path-1-inside-1_0_64)"/>
</g>
</svg>
