<svg preserveAspectRatio="none" width="100%" height="100%" overflow="visible" style="display: block;" viewBox="0 0 101 120" fill="none" xmlns="http://www.w3.org/2000/svg"><g id="NO"><mask id="path-1-inside-1_0_254" fill="white"><path d="M80 0L81 0L82 0L82 1L82 1L82 2L82 2L81 2L81 2L80 2L80 2L79 1L79 1L80 0L80 0ZM101 16L101 17L101 18L101 18L101 18L100 18L100 18L99 18L98 17L98 17L98 17L98 18L98 18L98 19L98 19L98 20L97 20L97 20L95 21L95 21L94 23L94 23L94 24L93 24L93 24L93 23L93 22L94 21L94 20L94 20L95 19L94 17L93 16L91 15L91 15L90 14L89 12L89 12L88 13L87 14L86 14L86 14L86 14L86 14L85 14L84 14L84 14L83 16L82 16L82 17L82 17L82 18L81 20L81 21L81 22L81 23L81 24L80 25L80 25L80 26L79 26L79 26L79 27L78 28L78 28L77 28L77 28L76 28L75 27L75 27L74 26L74 26L73 27L73 27L72 28L72 28L71 28L71 28L70 27L68 27L68 27L68 27L68 26L67 24L66 24L66 22L65 21L65 21L64 21L64 21L63 22L63 22L63 22L63 23L63 24L63 24L62 23L61 23L61 24L61 24L59 24L60 25L60 25L60 26L60 27L60 28L59 28L59 29L60 30L59 31L59 31L58 31L58 31L56 30L55 30L54 30L54 30L52 29L52 29L52 29L52 30L52 31L52 33L52 33L51 34L51 35L49 34L48 34L48 34L46 36L46 38L46 39L45 39L44 40L44 40L44 40L44 42L45 42L45 43L45 44L45 44L44 45L43 47L42 49L41 50L41 52L41 52L40 53L40 53L39 53L38 53L38 55L38 56L38 56L38 57L38 58L37 61L37 61L37 62L36 64L35 66L34 67L35 68L36 68L36 69L36 70L36 71L36 72L36 72L35 72L34 72L33 72L32 72L32 72L31 73L30 73L30 73L30 74L29 76L28 76L29 77L28 79L28 80L28 80L29 81L28 82L28 82L28 83L28 84L28 84L28 85L29 87L29 88L29 88L29 90L28 92L29 92L30 93L30 93L31 94L31 95L31 95L31 96L31 96L31 97L30 97L30 97L30 97L29 97L29 98L29 98L30 100L30 101L30 102L30 103L30 103L30 104L30 105L29 105L29 106L28 106L28 106L28 106L28 106L27 107L27 108L27 108L27 109L27 110L27 111L27 112L27 113L26 114L26 114L26 114L26 113L25 112L25 112L24 112L24 112L24 112L24 112L23 112L23 111L23 110L22 110L22 108L22 108L22 107L22 108L22 109L22 109L22 109L22 110L22 110L22 110L22 111L21 112L21 113L21 113L20 113L20 113L20 113L19 113L19 112L18 112L19 112L19 113L19 113L19 113L18 114L17 114L18 114L18 115L17 115L17 115L17 115L16 116L14 118L14 119L13 119L12 119L12 120L10 120L9 120L8 120L8 120L8 120L8 119L8 119L8 119L8 119L8 119L8 120L8 120L7 120L7 119L7 119L7 119L7 119L7 118L7 118L6 118L6 118L5 118L4 117L4 116L3 116L3 115L3 114L3 113L3 113L4 113L5 114L5 114L6 113L6 113L6 113L5 113L5 113L4 112V112L4 112L4 112L4 111L4 111L5 110L5 110L6 109L6 109L6 109L6 109L5 109L5 110L4 110L4 110L3 111L3 111L3 111L2 112L1 112L1 111L2 110L2 109L2 108L2 108L3 108H3L3 108L4 108L4 107L5 107L6 107L6 107L5 107L4 107L4 107L4 107L4 106L4 106L5 105L5 105L5 104L5 104L5 104L6 103L7 102L7 103L7 104L7 104L7 103L7 102L8 102L8 102L8 101L8 102L6 102L5 103L5 103L4 104L4 104L4 105L4 105L4 105L3 106L3 107L2 107L2 108L2 108L2 108L1 108L1 108L1 108L1 107L2 106L2 106L1 105L2 105L2 105L2 105L3 105L3 104L3 104L3 104L2 104L2 104L2 103L1 102L1 102L3 100L3 100L3 100L2 101L2 101L1 100L1 100L1 99L1 98L1 97L1 97L2 97L2 97L3 97L5 97L6 97L6 97L7 96L8 96L8 97L8 97L8 98L9 98L9 98L9 98L9 97L11 96L11 96L10 96L10 95L10 94L10 94L10 95L10 95L10 96L10 96L9 96L8 96L8 96L7 96L7 96L7 95L7 95L7 96L6 96L6 96L5 96L3 96L2 97L2 97L1 96L1 96L1 95L1 94L1 94L2 94L2 94L2 94L1 93L1 93L1 92L0 92L0 91L0 90L1 90L1 90L3 90L4 91L5 91L6 91L8 91L7 90L6 91L5 91L3 90L3 90L2 90L1 90L1 89L1 88L2 88L2 88L2 88L2 88L3 88L3 87L4 86L4 86L4 86L5 86L5 86L5 87L5 87L7 86L7 86L7 86L6 86L6 86L5 86L5 86L5 86L6 85L6 85L6 84L6 84L7 84L8 84L8 84L10 84L10 85L11 85L11 85L11 85L10 84L10 84L11 84L12 84L13 84L12 83L10 84L9 83L9 83L9 84L8 84L8 84L8 83L8 82L8 82L8 82L10 81L11 80L11 80L11 80L12 80L13 80L13 81L14 82L15 82L15 82L14 81L13 80L13 80L13 79L13 79L15 78L15 78L15 78L15 78L14 78L14 77L14 77L14 77L15 76L15 76L16 76L17 76L17 76L16 77L16 77L17 77L18 76L18 76L18 76L19 76L19 77L20 77L20 77L20 78L20 78L20 78L21 77L21 77L22 77L23 77L23 77L23 77L23 76L23 76L23 76L24 75L24 75L25 75L25 74L25 74L25 74L25 74L25 74L25 73L26 73L26 72L25 72L25 72L24 73L24 73L24 73L24 74L24 75L21 76L20 77L20 77L20 76L19 76L19 75L19 75L18 75L18 75L19 74L19 74L20 73L20 73L20 72L21 71L22 69L23 68L24 68L24 67L25 67L25 66L26 66L26 65L26 65L26 66L25 66L25 65L25 64L26 64L28 62L29 62L29 63L30 63L31 62L31 61L31 61L31 61L30 62L29 62L29 62L29 62L29 61L29 61L28 61L28 60L29 59L29 58L29 58L30 56L30 55L31 55L32 55L32 55L32 54L31 54L31 53L33 53L34 53L35 52L35 52L36 52L35 51L34 52L34 52L33 52L33 52L32 52L32 50L32 49L32 49L32 48L33 48L33 48L34 47L34 47L35 47L35 47L35 46L34 46L34 46L34 45L35 45L35 45L36 44L36 44L36 44L37 43L37 43L38 43L38 43L41 43L41 42L40 42L39 42L38 42L37 42L37 42L37 42L38 41L38 41L38 40L39 39L40 39L40 40L41 40L41 40L42 41L42 41L42 40L42 40L42 39L41 40L41 39L40 39L40 38L40 38L41 37L41 37L40 38L39 38L38 38L39 37L39 37L40 35L40 35L40 35L41 36L41 35L42 35L42 35L41 35L40 34L41 34L41 34L42 33L43 33L43 32L43 32L44 33L44 34L44 36L44 36L44 35L44 34L45 34L45 34L44 34L44 33L44 32L44 31L45 31L46 30L47 31L47 31L48 31L48 30L49 30H49L49 30L49 30L49 30L49 30L48 30L46 30L45 30L45 29L46 28L46 28L47 28L48 27L49 26L49 26L49 24L50 23L51 22L51 22L51 22L51 21L52 20L52 19L52 19L52 19L53 20L54 21L54 21L54 21L54 20L53 20L53 19L54 18L54 19L54 18L55 18L55 18L55 17L55 17L56 16L58 15L58 16L58 18L57 19L57 20L58 19L58 16L58 15L59 14L59 14L60 14L60 14L60 14L60 15L60 17L60 18L60 18L59 20L59 21L59 20L60 20L61 18L62 18L62 18L61 18L61 17L61 17L61 15L61 14L62 14L62 14L63 14L63 14L64 13L64 13L65 14L66 14L66 15L66 15L66 13L66 12L65 12L64 11L64 11L64 11L65 10L66 11L66 10L67 10L67 10L68 10L68 10L68 9L69 9L70 9L70 10L70 10L70 12L71 13L71 13L72 13L72 13L72 12L71 12L72 11L72 10L73 9L74 8L74 8L75 6L76 5L76 5L76 5L75 4L75 4L76 3L77 2L77 2L77 2L78 2L79 3L79 4L79 3L79 3L80 3L80 3L80 3L81 3L81 3L81 4L81 4L80 6L79 7L79 8L79 10L78 11L78 12L78 12L79 12L80 10L80 9L82 6L83 4L84 3L84 2L85 3L84 5L84 6L84 6L84 7L84 8L84 8L84 8L84 8L86 7L86 6L86 5L86 5L87 4L88 4L88 4L87 3L87 2L87 2L88 1L88 1L89 1L90 1L91 2L91 3L91 4L91 4L89 5L89 6L90 6L90 5L91 6L90 7L90 8L90 9V10L90 10L91 9L91 8L91 8L92 6L92 4L92 4L93 3L94 3L94 4L95 4L95 5L96 5L96 6L96 6L96 6L97 5L98 5L98 6L98 7L98 7L99 7L100 7L101 9L101 9L101 10L99 11L98 12L97 12L93 12L93 12L96 14L96 14L96 15L96 15L96 16L96 16L96 16L97 16L98 16L98 16L98 15L98 15L99 15L99 16L99 16L99 16L100 16L100 16L101 16ZM72 4L72 4L72 5L72 5L70 6L70 7L70 7L70 7L69 7L69 7L69 7L68 7L68 7L67 7L67 6L66 6L67 6L67 6L68 6L68 5L69 5L70 5L70 5L71 4L71 4L72 4L72 4ZM74 7L74 7L73 7L73 6L73 6L73 5L73 5L74 5L74 5L74 5L74 6L74 7ZM73 7L73 8L73 8L72 9L72 9L72 10L71 10L71 10L71 10L71 9L71 9L70 9L70 9V8L70 8L70 8L71 7L71 8L72 6L72 6L73 7ZM58 11L58 11L58 11L58 11L59 12L59 12L59 12L59 12L58 12L58 12L58 12L58 11L57 11L57 10L58 10L58 11ZM56 12L56 13L56 13L57 13L57 13L57 13L57 14L56 14L56 15L56 16L55 15L55 16L54 16L54 17L54 18L54 18L53 18L52 18L52 18L51 18L51 17L52 17L52 17L52 16L52 16L52 16L52 16L53 16L53 15L53 15L54 16L54 15L54 15L54 14L54 14L54 13L55 13L55 13L55 12L55 12L55 11L55 10L56 10L56 11L56 12ZM62 12L62 12L61 13L61 12L61 12L60 12L60 12L60 12L61 11L61 11L62 11L62 11L62 12ZM97 16L96 16L96 16L96 15L97 14L97 14L97 15L98 15L97 16ZM49 18L50 18L50 18L50 18L50 18L51 19L51 19L51 19L51 20L51 20L51 21L51 21L51 22L50 22L49 22L49 22L48 23L48 24L47 24L47 24L47 23L46 23L46 23L46 23L47 23L47 22L47 21L47 21L47 20L47 20L48 20L49 20L48 19L48 19L48 19L48 18L49 18L49 18L49 18L49 18ZM42 29L42 29L43 28L44 28L44 27L44 27L44 26L44 26L44 26L44 26L44 26L45 26L45 26L45 27L45 28L44 29L44 29L43 30L43 30L43 31L43 31L43 30H42L42 31L41 32L41 31L41 31L40 31L40 32L40 32L40 32L39 32L38 33L37 33L36 33L36 32L37 31L38 30L40 30L41 28L41 26L42 26L41 25L41 25L41 24L41 24L42 23L42 22L43 21L43 21H43L44 21L44 22L43 23L42 24L43 25L43 25L43 26L43 27L42 28L42 29ZM40 25L41 26L41 26L41 28L40 28L40 28L39 28L39 28L39 28L38 28L38 28L38 28L37 28L37 27L37 27L38 26L38 26L38 26L39 26L39 26L39 25L39 25L40 25L40 24L40 24L40 24L40 24L40 25ZM35 32L35 32L36 32L36 32L36 32L36 33L35 33L35 33L35 34L34 34L34 34L34 34L33 34L33 34L33 34L33 35L33 35L32 34L33 33L33 33L33 33L33 33L34 32L34 32L35 32L35 32ZM32 36L31 36L31 36L32 34L32 34L32 34L32 35L32 35L32 35L32 36ZM29 54L29 54L29 54L29 53L30 53L30 53L30 52L30 53L30 53L30 54L29 54ZM30 55L30 55L30 55L30 55L30 54L30 54L31 54L31 54L31 55L30 55ZM28 58L27 58L27 58L27 58L27 57L27 57L28 57L28 57L28 58ZM25 65L25 65L24 65L23 65L23 65L23 64L24 64L24 64L25 64L25 65ZM14 76L14 76L14 75L14 75L15 75L15 74L15 74L16 75L16 75L15 75L14 76ZM13 78L12 78L12 78L12 78L12 78L12 77L13 77L13 78L13 78L13 78ZM1 97L0 97L0 97L0 96L0 96L0 96L1 96L1 97ZM1 103L1 104L1 104L1 104L1 103L1 103L0 102L1 102L1 102L1 102L1 103Z"/></mask><path d="M80 0L81 0L82 0L82 1L82 1L82 2L82 2L81 2L81 2L80 2L80 2L79 1L79 1L80 0L80 0ZM101 16L101 17L101 18L101 18L101 18L100 18L100 18L99 18L98 17L98 17L98 17L98 18L98 18L98 19L98 19L98 20L97 20L97 20L95 21L95 21L94 23L94 23L94 24L93 24L93 24L93 23L93 22L94 21L94 20L94 20L95 19L94 17L93 16L91 15L91 15L90 14L89 12L89 12L88 13L87 14L86 14L86 14L86 14L86 14L85 14L84 14L84 14L83 16L82 16L82 17L82 17L82 18L81 20L81 21L81 22L81 23L81 24L80 25L80 25L80 26L79 26L79 26L79 27L78 28L78 28L77 28L77 28L76 28L75 27L75 27L74 26L74 26L73 27L73 27L72 28L72 28L71 28L71 28L70 27L68 27L68 27L68 27L68 26L67 24L66 24L66 22L65 21L65 21L64 21L64 21L63 22L63 22L63 22L63 23L63 24L63 24L62 23L61 23L61 24L61 24L59 24L60 25L60 25L60 26L60 27L60 28L59 28L59 29L60 30L59 31L59 31L58 31L58 31L56 30L55 30L54 30L54 30L52 29L52 29L52 29L52 30L52 31L52 33L52 33L51 34L51 35L49 34L48 34L48 34L46 36L46 38L46 39L45 39L44 40L44 40L44 40L44 42L45 42L45 43L45 44L45 44L44 45L43 47L42 49L41 50L41 52L41 52L40 53L40 53L39 53L38 53L38 55L38 56L38 56L38 57L38 58L37 61L37 61L37 62L36 64L35 66L34 67L35 68L36 68L36 69L36 70L36 71L36 72L36 72L35 72L34 72L33 72L32 72L32 72L31 73L30 73L30 73L30 74L29 76L28 76L29 77L28 79L28 80L28 80L29 81L28 82L28 82L28 83L28 84L28 84L28 85L29 87L29 88L29 88L29 90L28 92L29 92L30 93L30 93L31 94L31 95L31 95L31 96L31 96L31 97L30 97L30 97L30 97L29 97L29 98L29 98L30 100L30 101L30 102L30 103L30 103L30 104L30 105L29 105L29 106L28 106L28 106L28 106L28 106L27 107L27 108L27 108L27 109L27 110L27 111L27 112L27 113L26 114L26 114L26 114L26 113L25 112L25 112L24 112L24 112L24 112L24 112L23 112L23 111L23 110L22 110L22 108L22 108L22 107L22 108L22 109L22 109L22 109L22 110L22 110L22 110L22 111L21 112L21 113L21 113L20 113L20 113L20 113L19 113L19 112L18 112L19 112L19 113L19 113L19 113L18 114L17 114L18 114L18 115L17 115L17 115L17 115L16 116L14 118L14 119L13 119L12 119L12 120L10 120L9 120L8 120L8 120L8 120L8 119L8 119L8 119L8 119L8 119L8 120L8 120L7 120L7 119L7 119L7 119L7 119L7 118L7 118L6 118L6 118L5 118L4 117L4 116L3 116L3 115L3 114L3 113L3 113L4 113L5 114L5 114L6 113L6 113L6 113L5 113L5 113L4 112V112L4 112L4 112L4 111L4 111L5 110L5 110L6 109L6 109L6 109L6 109L5 109L5 110L4 110L4 110L3 111L3 111L3 111L2 112L1 112L1 111L2 110L2 109L2 108L2 108L3 108H3L3 108L4 108L4 107L5 107L6 107L6 107L5 107L4 107L4 107L4 107L4 106L4 106L5 105L5 105L5 104L5 104L5 104L6 103L7 102L7 103L7 104L7 104L7 103L7 102L8 102L8 102L8 101L8 102L6 102L5 103L5 103L4 104L4 104L4 105L4 105L4 105L3 106L3 107L2 107L2 108L2 108L2 108L1 108L1 108L1 108L1 107L2 106L2 106L1 105L2 105L2 105L2 105L3 105L3 104L3 104L3 104L2 104L2 104L2 103L1 102L1 102L3 100L3 100L3 100L2 101L2 101L1 100L1 100L1 99L1 98L1 97L1 97L2 97L2 97L3 97L5 97L6 97L6 97L7 96L8 96L8 97L8 97L8 98L9 98L9 98L9 98L9 97L11 96L11 96L10 96L10 95L10 94L10 94L10 95L10 95L10 96L10 96L9 96L8 96L8 96L7 96L7 96L7 95L7 95L7 96L6 96L6 96L5 96L3 96L2 97L2 97L1 96L1 96L1 95L1 94L1 94L2 94L2 94L2 94L1 93L1 93L1 92L0 92L0 91L0 90L1 90L1 90L3 90L4 91L5 91L6 91L8 91L7 90L6 91L5 91L3 90L3 90L2 90L1 90L1 89L1 88L2 88L2 88L2 88L2 88L3 88L3 87L4 86L4 86L4 86L5 86L5 86L5 87L5 87L7 86L7 86L7 86L6 86L6 86L5 86L5 86L5 86L6 85L6 85L6 84L6 84L7 84L8 84L8 84L10 84L10 85L11 85L11 85L11 85L10 84L10 84L11 84L12 84L13 84L12 83L10 84L9 83L9 83L9 84L8 84L8 84L8 83L8 82L8 82L8 82L10 81L11 80L11 80L11 80L12 80L13 80L13 81L14 82L15 82L15 82L14 81L13 80L13 80L13 79L13 79L15 78L15 78L15 78L15 78L14 78L14 77L14 77L14 77L15 76L15 76L16 76L17 76L17 76L16 77L16 77L17 77L18 76L18 76L18 76L19 76L19 77L20 77L20 77L20 78L20 78L20 78L21 77L21 77L22 77L23 77L23 77L23 77L23 76L23 76L23 76L24 75L24 75L25 75L25 74L25 74L25 74L25 74L25 74L25 73L26 73L26 72L25 72L25 72L24 73L24 73L24 73L24 74L24 75L21 76L20 77L20 77L20 76L19 76L19 75L19 75L18 75L18 75L19 74L19 74L20 73L20 73L20 72L21 71L22 69L23 68L24 68L24 67L25 67L25 66L26 66L26 65L26 65L26 66L25 66L25 65L25 64L26 64L28 62L29 62L29 63L30 63L31 62L31 61L31 61L31 61L30 62L29 62L29 62L29 62L29 61L29 61L28 61L28 60L29 59L29 58L29 58L30 56L30 55L31 55L32 55L32 55L32 54L31 54L31 53L33 53L34 53L35 52L35 52L36 52L35 51L34 52L34 52L33 52L33 52L32 52L32 50L32 49L32 49L32 48L33 48L33 48L34 47L34 47L35 47L35 47L35 46L34 46L34 46L34 45L35 45L35 45L36 44L36 44L36 44L37 43L37 43L38 43L38 43L41 43L41 42L40 42L39 42L38 42L37 42L37 42L37 42L38 41L38 41L38 40L39 39L40 39L40 40L41 40L41 40L42 41L42 41L42 40L42 40L42 39L41 40L41 39L40 39L40 38L40 38L41 37L41 37L40 38L39 38L38 38L39 37L39 37L40 35L40 35L40 35L41 36L41 35L42 35L42 35L41 35L40 34L41 34L41 34L42 33L43 33L43 32L43 32L44 33L44 34L44 36L44 36L44 35L44 34L45 34L45 34L44 34L44 33L44 32L44 31L45 31L46 30L47 31L47 31L48 31L48 30L49 30H49L49 30L49 30L49 30L49 30L48 30L46 30L45 30L45 29L46 28L46 28L47 28L48 27L49 26L49 26L49 24L50 23L51 22L51 22L51 22L51 21L52 20L52 19L52 19L52 19L53 20L54 21L54 21L54 21L54 20L53 20L53 19L54 18L54 19L54 18L55 18L55 18L55 17L55 17L56 16L58 15L58 16L58 18L57 19L57 20L58 19L58 16L58 15L59 14L59 14L60 14L60 14L60 14L60 15L60 17L60 18L60 18L59 20L59 21L59 20L60 20L61 18L62 18L62 18L61 18L61 17L61 17L61 15L61 14L62 14L62 14L63 14L63 14L64 13L64 13L65 14L66 14L66 15L66 15L66 13L66 12L65 12L64 11L64 11L64 11L65 10L66 11L66 10L67 10L67 10L68 10L68 10L68 9L69 9L70 9L70 10L70 10L70 12L71 13L71 13L72 13L72 13L72 12L71 12L72 11L72 10L73 9L74 8L74 8L75 6L76 5L76 5L76 5L75 4L75 4L76 3L77 2L77 2L77 2L78 2L79 3L79 4L79 3L79 3L80 3L80 3L80 3L81 3L81 3L81 4L81 4L80 6L79 7L79 8L79 10L78 11L78 12L78 12L79 12L80 10L80 9L82 6L83 4L84 3L84 2L85 3L84 5L84 6L84 6L84 7L84 8L84 8L84 8L84 8L86 7L86 6L86 5L86 5L87 4L88 4L88 4L87 3L87 2L87 2L88 1L88 1L89 1L90 1L91 2L91 3L91 4L91 4L89 5L89 6L90 6L90 5L91 6L90 7L90 8L90 9V10L90 10L91 9L91 8L91 8L92 6L92 4L92 4L93 3L94 3L94 4L95 4L95 5L96 5L96 6L96 6L96 6L97 5L98 5L98 6L98 7L98 7L99 7L100 7L101 9L101 9L101 10L99 11L98 12L97 12L93 12L93 12L96 14L96 14L96 15L96 15L96 16L96 16L96 16L97 16L98 16L98 16L98 15L98 15L99 15L99 16L99 16L99 16L100 16L100 16L101 16ZM72 4L72 4L72 5L72 5L70 6L70 7L70 7L70 7L69 7L69 7L69 7L68 7L68 7L67 7L67 6L66 6L67 6L67 6L68 6L68 5L69 5L70 5L70 5L71 4L71 4L72 4L72 4ZM74 7L74 7L73 7L73 6L73 6L73 5L73 5L74 5L74 5L74 5L74 6L74 7ZM73 7L73 8L73 8L72 9L72 9L72 10L71 10L71 10L71 10L71 9L71 9L70 9L70 9V8L70 8L70 8L71 7L71 8L72 6L72 6L73 7ZM58 11L58 11L58 11L58 11L59 12L59 12L59 12L59 12L58 12L58 12L58 12L58 11L57 11L57 10L58 10L58 11ZM56 12L56 13L56 13L57 13L57 13L57 13L57 14L56 14L56 15L56 16L55 15L55 16L54 16L54 17L54 18L54 18L53 18L52 18L52 18L51 18L51 17L52 17L52 17L52 16L52 16L52 16L52 16L53 16L53 15L53 15L54 16L54 15L54 15L54 14L54 14L54 13L55 13L55 13L55 12L55 12L55 11L55 10L56 10L56 11L56 12ZM62 12L62 12L61 13L61 12L61 12L60 12L60 12L60 12L61 11L61 11L62 11L62 11L62 12ZM97 16L96 16L96 16L96 15L97 14L97 14L97 15L98 15L97 16ZM49 18L50 18L50 18L50 18L50 18L51 19L51 19L51 19L51 20L51 20L51 21L51 21L51 22L50 22L49 22L49 22L48 23L48 24L47 24L47 24L47 23L46 23L46 23L46 23L47 23L47 22L47 21L47 21L47 20L47 20L48 20L49 20L48 19L48 19L48 19L48 18L49 18L49 18L49 18L49 18ZM42 29L42 29L43 28L44 28L44 27L44 27L44 26L44 26L44 26L44 26L44 26L45 26L45 26L45 27L45 28L44 29L44 29L43 30L43 30L43 31L43 31L43 30H42L42 31L41 32L41 31L41 31L40 31L40 32L40 32L40 32L39 32L38 33L37 33L36 33L36 32L37 31L38 30L40 30L41 28L41 26L42 26L41 25L41 25L41 24L41 24L42 23L42 22L43 21L43 21H43L44 21L44 22L43 23L42 24L43 25L43 25L43 26L43 27L42 28L42 29ZM40 25L41 26L41 26L41 28L40 28L40 28L39 28L39 28L39 28L38 28L38 28L38 28L37 28L37 27L37 27L38 26L38 26L38 26L39 26L39 26L39 25L39 25L40 25L40 24L40 24L40 24L40 24L40 25ZM35 32L35 32L36 32L36 32L36 32L36 33L35 33L35 33L35 34L34 34L34 34L34 34L33 34L33 34L33 34L33 35L33 35L32 34L33 33L33 33L33 33L33 33L34 32L34 32L35 32L35 32ZM32 36L31 36L31 36L32 34L32 34L32 34L32 35L32 35L32 35L32 36ZM29 54L29 54L29 54L29 53L30 53L30 53L30 52L30 53L30 53L30 54L29 54ZM30 55L30 55L30 55L30 55L30 54L30 54L31 54L31 54L31 55L30 55ZM28 58L27 58L27 58L27 58L27 57L27 57L28 57L28 57L28 58ZM25 65L25 65L24 65L23 65L23 65L23 64L24 64L24 64L25 64L25 65ZM14 76L14 76L14 75L14 75L15 75L15 74L15 74L16 75L16 75L15 75L14 76ZM13 78L12 78L12 78L12 78L12 78L12 77L13 77L13 78L13 78L13 78ZM1 97L0 97L0 97L0 96L0 96L0 96L1 96L1 97ZM1 103L1 104L1 104L1 104L1 103L1 103L0 102L1 102L1 102L1 102L1 103Z" fill="var(--fill-0,#71B219)" stroke="var(--stroke-0,white)" mask="url(#path-1-inside-1_0_254)"/></g></svg>