<svg preserveAspectRatio="none" width="100%" height="100%" overflow="visible" style="display: block;" viewBox="0 0 101.013 120.169" fill="none" xmlns="http://www.w3.org/2000/svg">
<g id="NO">
<mask id="path-1-inside-1_0_254" fill="white">
<path d="M80.2579 0L81.2897 0.455394L81.6419 0.445787L82.155 1.29485L82.4219 1.2194L82.371 1.73516L81.8537 1.98068L81.049 2.12883L80.9292 2.2317L80.2414 2.1494L79.8548 1.45532L79.2096 1.28386L79.2111 1.06029L79.6292 0.533567L80.2579 0ZM100.657 15.6342L100.867 17.0951L100.86 17.6026L100.761 18.0936L100.622 18.3446L100.346 18.4544L99.6758 18.4105L98.7665 17.8357L98.1791 17.294L97.9961 17.2706L97.9163 17.3365L98.0594 17.8796L98.0209 18.2966L97.9328 18.7493L97.809 19.1594L97.6371 19.5023L97.2766 19.944L96.6534 20.2924L94.938 20.9714L94.8018 21.2704L94.2487 23.1496L94.0988 23.4239L93.8966 23.6557L93.3064 23.9561L93.0202 23.5419L92.7918 22.9123L92.8441 22.2868L93.5333 21.0825L94.1786 20.2252L94.3601 19.9276L94.7261 19.062L93.986 16.8756L92.6681 16.2103L91.1672 15.1939L90.6169 14.6508L89.7598 13.5274L89.1532 12.5151L88.6056 12.4794L88.0031 12.7345L87.0621 13.659L86.5132 14.1227L86.2105 14.2598L86.1376 14.2804L85.4636 14.0184L84.7152 13.9635L84.1126 14.039L83.8856 14.1652L83.0464 15.6521L82.459 16.3983L82.1358 16.6548L81.9005 17.0855L81.7079 17.7932L81.2773 20.2293L80.9568 21.1428L80.8853 21.6997L80.9609 23.3786L80.8839 24.3032L80.4918 25.063L80.2153 25.4046L79.8507 25.4746L79.3734 25.668L78.9566 26.1055L78.6621 26.7022L78.3306 28.0341L77.7693 28.5224L77.2327 28.3825L76.8504 27.8942L76.029 27.5156L75.4169 27.2742L74.7304 26.7502L74.1251 26.3511L73.5721 26.2715L73.2571 26.7776L73.0039 27.2495L72.0602 27.6322L71.525 27.9353L70.8317 28.0025L70.551 27.6665L69.544 27.4443L68.3458 27.1809L67.9991 27.1836L67.8905 26.5815L67.5713 25.7379L66.7197 24.273L66.3717 23.7545L65.7155 22.5323L64.9519 21.2732L64.8433 21.2416L64.3315 21.1991L63.5818 21.2402L63.1058 21.5269L62.8058 21.8863L62.7536 22.1853L63.0439 23.3265L62.9545 23.6105L62.8045 23.7476L62.1235 23.428L61.2995 23.45L61.0918 23.8011L60.5897 23.8395L59.141 23.9726L59.7807 24.8998L59.9926 25.2716L60.0352 25.8147L59.9238 26.8215L59.617 27.6788L59.2593 28.3743L58.5701 29.0615L59.617 29.7391L58.9058 30.6512L58.5729 31.0051L58.1877 30.9448L57.4985 30.6306L55.8297 29.868L55.0332 29.5813L54.3206 29.4935L53.9409 29.5045L52.4304 28.8489L52.1388 28.9215L51.5968 29.2055L51.5362 29.8419L51.5706 31.418L51.6504 32.625L51.4509 33.3191L51.2514 33.7896L50.6475 35.0529L49.2883 34.1942L48.3611 33.6236L47.7654 34.3822L46.2728 35.7675L45.5079 38.478L45.4639 38.5657L45.0113 39.2502L44.4321 39.5643L43.9933 39.7193L43.7374 40.5162L44.3331 41.6533L44.6385 42.2514L44.9233 43.2143L44.871 43.8247L44.805 44.2033L44.1652 44.9769L42.8005 47.0083L41.5377 49.1125L41.0204 49.7133L41.2543 51.48L40.8347 51.9957L39.979 52.5773L39.5416 52.8009L39.071 52.9326L37.6238 53.1644L37.8811 55.0298L37.9787 55.8515L37.9774 56.337L37.8274 56.8102L37.6486 57.7114L37.3789 60.9074L37.1726 61.249L36.8878 62.1063L35.9716 64.1541L35.237 65.5066L34.1763 67.442L35.0389 68.0497L35.8258 68.4927L35.9895 69.1717L36.0981 70.3019L36.072 71.0687L35.7708 71.7559L35.5369 72.2374L35.3732 72.4719L34.2548 72.2387L32.8213 71.9383L32.4498 71.9356L31.6162 72.1523L30.8637 72.5954L30.4674 72.9685L30.3615 73.1166L29.8608 73.9643L28.9693 75.4622L28.4809 76.1137L28.624 77.0094L27.8041 78.7308L28.3406 80.4564L28.364 80.514L28.6488 81.2081L28.3516 81.6552L28.2264 81.8953L28.2691 82.684L28.3475 83.5632L28.2788 84.0776L28.2498 84.6468L28.979 87.1913L28.9707 87.7838L28.9349 88.1651L28.7093 89.7302L28.4067 91.8165L28.9349 92.3611L29.6861 93.0112L30.1084 93.2677L30.7316 94.0386L31.2076 94.7889L31.1416 95.2855L31.004 95.8328L30.8045 96.2141L30.616 96.7367L30.5321 97.1221L30.4441 97.225L29.6118 97.2675L29.1729 97.4129L28.9432 97.5761L29.0216 98.4513L29.5265 100.046L29.9461 101.174L30.0809 101.915L29.9433 102.664L29.8003 103.046L29.7961 103.561L29.6861 104.581L29.3614 105.096L28.9363 105.655L28.4631 106.072L28.0875 106.189L27.7656 106.237L27.5483 106.448L27.3515 107.069L27.1699 107.72L26.577 108.518L26.5935 108.795L26.8191 109.736L27.031 110.803L26.8521 111.798L26.6994 112.836L26.4312 113.526L26.0487 113.773L25.7681 113.649L25.4503 112.703L25.4338 112.479L25.3554 112.188L24.4529 111.899L24.2934 111.909L23.9384 111.739L23.7307 111.691L23.3042 111.593L22.9493 110.751L22.5737 110.049L22.5187 109.755L22.5325 108.434L22.4169 107.844L22.3811 107.2L22.1445 107.724L22.2821 108.551L21.9904 108.896L21.6204 109.065L21.6548 109.547L21.8061 109.639L21.8377 110.136L21.7483 110.874L21.0219 112.505L20.8761 112.68L20.7757 112.899L20.4043 112.754L19.9269 113.206L19.4743 113.279L19.3106 112.767L18.6736 112.088L18.3737 112.127L18.6434 112.461L18.9103 112.896L18.7589 113.183L18.6104 113.371L18.3504 113.468L17.419 114.035L17.7505 114.415L17.4686 114.845L17.1439 114.908L16.9706 115.109L16.91 115.38L15.9456 116.155L14.3746 118.132L13.5671 118.689L13.003 119.265L12.5064 119.251L11.8819 119.741L10.2998 120.169L9.25016 119.975L8.51966 120.146L8.12758 119.809L8.0767 119.579L8.09593 119.445L8.16058 119.283L8.02439 119.229L7.73827 119.202L7.61581 119.364L7.59931 119.733L7.46312 119.829L6.91835 119.617L6.78077 119.428L6.97612 119.043L7.31181 118.696L7.25127 118.624L7.18662 118.413L7.02289 118.386L6.53589 118.438L6.13969 118.375L4.84931 117.591L4.54804 117.172L3.50662 116.501L3.04027 115.788L2.77477 115.003L2.79538 114.29L2.92335 113.155L3.14208 112.874L4.07615 113.273L5.02127 113.937L5.16846 113.904L5.46562 113.383L6.04066 112.963L5.87692 112.848L5.02127 113.33L4.70346 113.064L4.20962 112.52V112.239L4.43935 111.958L4.51639 111.578L4.39669 111.219L4.45312 110.729L4.83415 110.209L5.40646 109.681L5.81916 109.169L6.24289 108.855L6.19885 108.75L5.71462 108.95L5.251 109.29L4.70623 109.859L4.04177 110.319L3.55066 110.497L3.31677 110.645L2.95635 110.788L2.58354 111.445L2.17635 111.726L1.44723 111.755L1.28627 111.275L1.49262 109.563L1.71273 108.725L1.95485 108.131L2.33454 108.031L2.60142 107.595H2.82293L3.0155 107.796L3.75977 107.991L4.12708 107.436L4.60442 107.353L5.47523 106.791L5.45735 106.688L4.86858 106.812L4.51089 106.829L3.99912 106.971L3.72673 106.869L3.59881 106.448L3.80377 106.067L4.62508 105.155L4.90985 104.754L5.07077 104.38L5.04466 104.124L5.18223 103.595L5.98562 102.669L6.64047 102.244L6.85508 102.609L6.67208 103.749L6.67346 104.218L7.19073 102.558L7.41908 102.162L7.67774 101.882L8.30504 101.694L8.4825 101.431L7.75066 101.517L5.97739 102.153L5.23039 102.72L5.03089 103.155L4.51227 103.81L4.26877 104.234L4.16146 104.857L3.86981 105.194L3.475 105.319L2.92746 106.104L2.68535 106.733L2.14058 107.233L1.79527 107.617L1.68108 107.754L1.494 108.13L1.33854 108.157L1.20373 107.936L1.18035 107.451L1.23534 106.672L1.49812 106.109L1.62331 105.559L1.44996 105.045L1.57104 104.718L1.80077 104.731L2.23 104.879L2.68535 104.856L3.43508 104.448L3.31538 104.21L2.99212 104.175L2.38819 104.21L1.88054 103.81L1.48573 103.015L1.30688 101.948L1.42658 101.642L2.88758 100.55L3.281 100.052L3.05266 100.003L2.50373 100.606L1.71962 100.979L1.22435 100.459L0.967074 99.8984L0.818539 98.7091L0.872193 98.096L0.810269 97.2881L1.14592 97.0247L1.52011 97.1646L1.89019 97.2168L2.728 97.1454L4.57693 96.6585L5.76827 96.9479L6.2525 96.9218L6.994 96.5021L7.64197 96.4596L8.12758 96.7792L8.39308 97.1468L8.42612 97.6365L8.65035 97.9629L8.80166 97.8559L8.68062 97.4678L8.65585 96.8656L10.6052 96.1812L10.8349 95.915L10.0604 95.8218L9.83893 95.1949L10.2475 94.243L10.209 94.1195L9.77843 94.6229L9.56654 95.328L9.65185 95.8904L9.56654 96.151L9.17035 96.2703L8.27889 96.3142L7.70662 96.0755L7.17696 95.9466L6.99677 95.7669L7.05727 95.365L6.95685 95.2813L6.73673 95.6421L6.54139 96.3595L6.12042 96.5254L4.95796 96.2593L3.2755 96.4157L2.52027 96.7751L2.03188 96.7284L1.18996 96.0975L0.862537 95.5941L0.740115 94.5763L0.789613 94.1278L1.44446 93.9385L1.776 93.9508L2.08692 93.7094L1.81177 93.5517L1.42519 93.2417L1.16246 92.6217L0.764885 92.4187L0.499344 91.8878L0.431961 91.0854L0.507614 90.5258L0.71946 90.3461L1.22984 90.4682L2.57527 90.3735L3.84093 90.9441L4.70073 91.2651L6.44096 91.1033L7.46035 90.5944L7.27327 90.4544L6.16724 90.748L5.14508 90.7356L3.34292 90.1609L2.60415 89.9757L1.80765 90.058L1.39358 89.8838L1.15008 89.3132L1.33027 88.2186L1.70723 87.9827L1.91081 88.268L2.15708 88.2859L2.40746 87.8277L2.64542 87.5657L2.83527 86.9732L3.54927 86.4094L3.85054 86.3614L4.2825 86.1021L4.55904 86.1762L4.73512 86.4368L4.95935 86.6522L5.44362 86.6261L6.87708 86.1735L7.03116 86.0404L7.31043 85.6687L6.40247 85.8347L5.64858 86.098L5.16296 86.1721L5.09415 85.8415L5.273 85.5494L5.55366 85.2366L5.68985 84.7031L5.99939 84.4754L6.33366 84.4877L7.02427 84.3903L7.51127 84.2518L8.34631 84.3437L9.5927 84.5481L10.3947 85.0446L10.6974 84.9993L11.0179 84.8677L11.1637 84.688L10.5337 84.4822L10.4979 84.1873L10.5763 83.9651L11.6053 83.555L12.7279 83.4644L12.5353 83.1339L10.0755 83.6332L9.43312 83.2916L8.92547 83.2944L8.59393 83.4891L7.64747 83.7251L7.47412 83.5577L7.65435 82.9789L8.22112 82.0269L8.26789 81.7938L8.53066 81.5633L9.99989 81.0078L10.7056 80.3604L11.0234 80.2781L11.3384 80.3233L11.8185 80.2479L12.7458 80.4331L13.1736 81.2423L13.5574 81.4961L14.7639 82.5029L14.7103 82.2148L13.6647 80.8473L13.2658 80.5071L12.9673 79.8323L13.0691 79.1931L13.4047 78.7651L14.5975 78.5361L14.8107 78.2878L14.8327 77.8612L14.6497 77.569L14.2109 77.5855L13.8491 77.4044L13.75 76.9436L13.8945 76.6308L14.5823 76.0588L14.9579 75.8737L15.61 75.6734L16.7422 76.126L16.8289 76.362L16.511 76.9298L16.5427 77.2481L16.8206 77.2823L17.4672 76.3249L18.2279 76.1919L18.5429 75.9861L18.9089 75.8558L19.4303 76.7227L19.66 76.9998L19.832 77.1136L19.9984 77.8324L20.1594 77.8708L20.3891 77.5114L20.806 77.3208L21.3906 77.1959L22.3591 77.3866L22.798 77.2453L23.0126 77.2659L22.8062 76.6198L22.6783 76.4319L22.8777 75.8531L23.0855 75.6267L23.7541 75.2194L24.3924 75.0369L24.8092 74.6501L25.3691 74.2921L25.2811 74.0068L25.1256 73.6749L24.7625 73.6543L24.6152 73.4732L25.0747 73.0425L25.7048 72.5625L25.5947 72.3732L25.1215 72.1592L24.7625 72.3197L24.2287 72.6914L23.6069 73.2785L23.8091 73.4499L24.12 73.9423L23.6867 74.5953L21.3865 76.3222L20.2901 76.8256L19.7838 76.7474L19.6628 76.2769L19.4303 75.9299L19.1799 75.2098L18.7534 75.229L18.5113 75.3881L18.4067 75.1522L18.5897 74.3813L18.9502 73.7709L19.5541 73.3086L19.8444 72.749L20.1167 71.8588L20.9903 71.0083L22.2614 68.8932L23.2974 68.2143L23.6771 67.4694L24.2879 67.1403L24.8092 66.5573L25.2178 66.4997L25.9607 65.973L26.3817 65.3447L26.1065 65.3063L25.4531 65.7137L25.083 65.8783L25.1091 65.2048L25.288 64.5122L25.8259 63.8771L28.4136 62.024L28.6722 62.3312L28.9817 62.8744L29.7604 62.7523L30.6491 61.7002L31.3328 60.5521L30.9627 60.7524L30.5596 61.2229L29.7741 61.8744L29.4109 61.9773L29.2032 61.8923L29.0876 61.4574L28.8153 61.3162L28.569 61.4136L28.3145 61.1036L28.2691 60.3368L28.5937 59.1915L28.851 58.4316L29.1289 57.8541L30.2212 56.2081L30.4564 55.3055L30.9503 54.8282L31.5914 54.9338L31.7854 54.7953L31.5653 54.2L30.8664 53.7281L30.8238 53.4305L33.1528 52.6472L34.2616 52.6733L34.5904 52.2824L35.193 52.03L35.6497 51.5499L35.4145 51.3373L34.2878 51.779L33.5834 51.9861L33.2656 51.9792L33.0166 52.1301L32.1169 52.1877L31.9202 50.2715L32.0619 49.2249L32.3976 49.2469L32.4746 48.2442L32.8625 47.6503L33.3977 47.5172L33.6673 47.2635L34.0567 46.745L34.7004 46.8643L35.3622 46.7491L35.1971 46.5036L34.3758 46.1881L34.1736 45.6449L34.4625 45.3404L34.7775 45.1168L35.0554 45.077L35.6043 44.0112L35.9386 43.5545L36.3114 43.634L36.8314 43.1622L37.3432 43.3227L37.8371 43.014L38.5125 42.8097L40.9846 42.7315L41.0576 42.2912L40.5376 42.1897L38.701 42.0758L37.7628 42.0854L37.3679 42.1993L37.2235 42.0457L37.2496 41.7823L37.5908 41.3639L37.7518 40.9017L38.4341 39.7687L39.2334 39.0115L39.8455 39.2049L40.4963 39.9278L40.9599 40.0183L41.1759 40.2515L41.5143 41.2446L41.6752 41.2761L41.6023 40.3228L42.0495 39.5437L41.9338 39.3284L41.2625 39.6109L40.748 39.3174L40.3422 38.7303L40.2266 38.1926L40.4797 37.6604L40.7178 37.3916L40.5568 37.0775L39.5416 37.9156L38.8234 38.1117L38.54 37.9951L38.6928 37.2352L38.6075 36.6303L39.5705 35.1352L39.9019 34.9624L40.4426 35.0831L40.9309 35.5055L41.3395 35.4383L41.7825 35.212L41.722 34.806L40.7618 34.6441L40.5141 34.3067L40.6036 33.9734L41.2625 33.6222L41.9187 32.9872L42.6699 32.802L43.2738 32.3205L43.3907 32.4303L43.4925 32.6196L43.7099 34.4L44.2505 35.843L44.45 35.8951L44.2423 34.6688L44.4363 34.3149L44.6811 34.0461L44.7582 33.7388L44.4775 33.6346L44.2478 33.1929L43.9204 31.776L44.0331 31.4056L44.7444 30.6457L45.6359 30.4715L46.5851 31.0037L46.9194 31.0092L47.4697 30.8666L48.4037 30.4276L48.954 30.2603H49.2402L49.3103 30.0381L49.0448 29.8954L48.9595 29.7569L48.7518 29.6773L47.8878 29.9146L45.5038 29.8392L45.2741 29.5854L45.2314 29.1451L45.4845 28.5142L45.7624 28.1644L46.6621 27.5348L47.6128 27.4498L48.6156 26.3264L48.998 25.4814L49.2154 24.1715L49.8262 23.1071L51.3587 22.4994L51.4206 22.2306L51.2583 21.6723L51.2721 20.6655L51.6917 19.4872L51.9709 19.0771L52.1002 19.0277L52.4304 19.4145L52.8321 20.2348L53.4608 20.7039L54.2848 20.7848L54.5049 20.5544L53.8653 20.088L53.3796 19.4763L53.3412 18.8604L53.5709 18.5339L53.9285 18.5696L54.377 18.501L54.7952 18.0854L54.8557 17.7932L54.8736 17.3954L54.9782 16.9908L55.5918 16.021L57.4819 15.3887L57.6195 15.6466L57.5177 17.5161L57.3004 18.7177L57.3073 19.5929L57.6759 18.7177L58.1684 16.3077L58.5399 15.1665L58.958 14.5095L59.2566 14.3613L59.5523 14.0198L59.943 13.8168L60.0628 14.0788L60.1865 14.6864L59.9761 16.807L59.9967 17.4736L59.7615 18.3639L58.8604 20.3377L58.9017 20.5887L59.1052 20.4954L59.4534 20.1717L60.5703 18.2953L61.5458 18.5326L61.5581 18.3789L61.2445 17.8262L60.8634 17.2953L60.7479 16.6369L60.7987 14.8702L61.0931 14.1665L61.935 14.2406L62.4399 14.1432L62.6752 14.4628L63.1801 14.4395L63.5295 13.1639L64.2215 13.0514L64.8295 13.8963L65.56 14.4628L66.1474 15.2749L66.3139 15.0527L65.9975 13.1515L65.6509 12.4547L64.8983 12.0912L64.0963 11.2284L63.8886 10.8444L63.9244 10.5591L64.6314 10.2834L65.5641 10.6002L66.395 9.87735L66.6221 10.0762L67.259 9.69766L67.6552 10.2079L67.8987 10.057L68.039 9.37258L69.0557 8.94736L69.7009 9.34104L70.0461 9.74567L70.2071 10.5234L70.4534 12.0528L70.9569 12.8745L71.2705 13.2763L71.6405 13.3874L71.8194 12.9787L71.4728 12.4849L71.3792 12.0185L71.5457 10.8581L71.7396 10.4013L72.8278 8.66069L73.7385 7.75264L74.2833 7.67583L75.2381 5.62794L75.5077 5.25348L75.7566 5.16706L75.6934 4.66229L75.172 4.34269L75.1541 3.71446L75.8419 2.94907L76.677 1.65834L77.0883 1.57192L77.3469 1.93129L78.16 2.51425L78.658 3.17951L79.0184 3.5142L79.2523 3.44425L79.4462 2.94495L79.6802 2.71041L80.1961 2.84208L80.5042 3.16306L80.7449 3.20557L80.9622 3.40034L81.0132 3.82694L80.5661 4.29194L79.8039 5.51682L79.0528 6.90222L78.8052 7.6292L78.5617 9.5262L77.9742 10.7319L77.9289 11.5741L78.1655 11.9691L78.8135 11.6592L79.6128 10.5358L79.8122 9.33691L81.8111 6.05727L82.7493 4.22747L83.8141 2.7008L84.4111 2.38394L84.6917 3.3976L84.4662 4.71441L84.0136 5.54974L84.3478 5.93245L84.2846 6.92005L84.1801 7.46735L84.114 8.03932L84.1181 8.54134L84.4318 8.40693L85.6795 7.37544L85.996 6.25341L86.2889 5.40847L86.4293 4.67736L86.9149 3.98194L87.8311 3.97646L87.8669 3.70211L86.7553 2.74607L86.6246 2.30851L86.9974 1.72417L88.0223 0.604896L88.5492 0.728341L88.8643 0.983477L90.1258 1.17825L91.0943 1.97794L91.0571 3.22478L90.8411 3.74326L90.6293 4.0615L89.3898 4.9997L89.1862 5.46196L89.5755 5.62107L90.4119 5.15471L90.6293 5.57856L90.3624 6.63473L90.317 8.21078L90.2207 9.12569V9.95692L90.3253 10.4027L90.6623 8.63325L90.7765 8.17649L91.2689 7.50575L91.4519 6.14918L91.9335 4.51003L92.4769 3.55261L92.7918 3.29063L93.8374 3.32765L94.2859 3.6884L94.6821 4.48807L94.9779 4.80767L95.9106 5.14649L96.2297 5.57032L96.2889 5.82271L96.5172 5.87347L97.1473 5.27131L97.5559 5.17116L98.2217 6.10939L98.0883 6.80209L98.1268 7.02154L98.933 6.97765L99.6043 7.24923L100.88 8.65931L101.013 9.31498L100.95 10.1078L99.1091 10.9761L98.3139 11.8045L97.0125 12.1228L92.5938 11.5686L92.6832 12.168L95.7606 13.4725L95.9367 13.8442L95.8377 14.6233L95.8363 15.2474L95.894 15.6726L96.1211 16.0677L96.4966 16.2529L97.2628 16.1555L97.6398 16.3681L97.8985 16.054L97.9948 14.9937L98.2176 14.7591L98.6468 15.0677L98.8339 16.2007L98.9536 16.3173L99.1696 15.5108L99.5946 15.5684L100.058 15.5012L100.657 15.6342ZM71.9735 3.85163L71.8978 4.21923L71.7672 4.57587L71.4507 4.95171L70.5346 6.43447L69.9967 6.67178L69.8261 6.90358L69.6114 7.04213L68.9428 6.84049L68.7475 7.13952L68.5631 7.33978L68.0789 7.41659L67.7942 7.35213L67.0609 6.80619L66.6248 6.21364L66.3882 5.70611L67.0664 5.71572L67.3072 5.59227L67.7625 5.69927L68.0362 5.17667L68.6141 5.23975L69.7243 4.87626L70.1314 5.07926L71.0628 3.85986L71.3545 3.8914L71.8002 3.54164L71.9735 3.85163ZM74.2007 6.74172L73.4648 7.2026L73.0383 6.80619L72.8595 6.39881L72.8333 5.49214L72.9324 4.93798L73.2776 4.6513L73.5019 4.86117L73.5611 5.03675L73.9628 5.20821L74.4346 5.77882L74.2007 6.74172ZM72.649 6.95023L72.7205 7.49066L72.7481 7.93507L72.3876 8.57565L71.5567 9.41373L71.6048 9.63868L71.3173 9.85403L70.8867 10.0118L70.6597 9.85951L70.69 9.14214L70.6212 8.92817L70.2952 9.21347L69.9554 8.84724V8.47962L70.0448 8.16002L70.3598 7.67309L70.8839 7.33704L71.2293 7.46322L72.382 6.16975L72.5059 6.44134L72.649 6.95023ZM57.7928 10.7607L57.9896 10.8938L58.185 10.8114L58.3459 10.928L58.6692 11.5261L59.0172 11.7606L59.0338 12.0597L58.716 12.3505L58.2964 12.4382L57.8465 12.3367L57.7144 11.9637L57.5755 11.3423L57.2 10.7319L57.1435 10.1956L57.4709 10.1105L57.7928 10.7607ZM55.8146 12.4629L56.1572 13.0761L56.4612 13.0171L56.552 12.7866L56.7583 12.6714L57.1765 12.9965L57.1174 13.5466L56.5382 14.2393L56.1228 15.2241L55.5918 15.4518L55.3358 15.3338L54.8598 15.9003L54.4802 16.4874L54.0853 17.2281L54.0606 17.6094L53.9987 17.9002L52.5528 18.1883L52.0273 18.3789L51.4701 18.1334L51.2061 17.6451L51.2913 17.3804L51.8471 17.2747L51.865 16.8207L52.0067 16.5436L52.1869 16.3914L52.319 15.8098L52.5391 15.6575L52.949 15.8002L53.2255 15.3777L53.381 15.305L53.5722 15.6548L53.6644 15.1734L53.5722 14.7331L53.6203 14.4354L54.15 13.6604L54.3797 13.0939L54.71 12.7277L55.0277 12.7853L55.1199 12.2449L55.0277 11.6907L55.0621 11.3286L55.3427 10.448L55.6509 10.4109L55.7926 11.1942L55.8146 12.4629ZM61.6984 12.1996L61.4907 12.4616L61.1715 12.5686L60.9996 12.4067L60.7547 12.2997L60.4824 12.3477L60.254 11.8663L60.2801 11.4616L60.5924 10.913L61.2183 10.6002L61.7246 10.7292L61.8539 10.8896L61.6984 12.1996ZM97.1294 15.4861L96.3962 15.8112L96.3109 15.5437L96.4719 15.1267L96.6644 14.2708L96.9658 14.3051L97.2711 14.6315L97.5105 15.0211L97.1294 15.4861ZM49.0503 17.7082L49.5139 18.3378L49.7216 18.1457L50.133 18.0731L50.4384 18.2953L50.6888 18.6944L50.9846 18.7123L51.1703 19.2335L51.2652 19.9097L51.0506 20.4131L50.7452 20.6422L50.6627 21.2334L50.7782 22.0605L50.0931 22.3431L49.3007 22.4692L48.9898 22.0742L48.357 22.7957L47.7283 23.9163L47.4256 24.048L47.4036 23.6941L46.9524 23.4486L46.3746 23.4349L46.3938 23.1715L46.4998 22.9864L46.9978 22.7106L47.0969 22.14L47.006 21.1195L47.0941 20.6216L47.1133 20.2787L47.427 19.8754L48.5 20.0647L48.6308 19.6793L48.5496 19.4365L47.9951 19.0113L48.0805 18.7246L48.4808 18.4681L48.8591 18.4338L48.9733 18.0004L48.9926 17.8097L49.0503 17.7082ZM42.3218 28.8598L42.3686 28.9339L42.8941 27.9189L43.4774 27.602L43.5131 27.2468L43.7388 26.9038L43.7126 26.3414L43.8268 25.8847L44.124 25.7626L44.3097 25.6076L44.5147 25.5212L44.8875 25.8929L45.0966 26.3044L45.358 27.2207L45.2493 28.104L44.549 28.7912L43.9933 29.0999L43.4306 29.8845L43.1486 30.525L42.9051 30.6636L42.7524 30.6115L42.6162 30.4578H42.3314L42.0178 31.012L41.0713 31.4619L40.6999 31.3316L40.6833 30.7802L40.4619 30.8254L40.1069 31.4866L39.7603 31.7074L39.5278 31.7746L39.0999 31.5263L37.9498 32.6484L36.8713 32.8569L36.5164 32.7279L36.515 32.0421L37.2124 31.1615L37.7834 30.5483L39.7506 30.119L40.9764 28.2865L41.2722 26.2797L41.561 25.55L41.4248 25.1371L41.0961 25.0644L41.0755 24.428L41.2474 23.7312L41.8898 22.771L42.2475 22.3609L42.8294 21.1963L43.1101 20.9343H43.4293L43.7443 21.2402L43.6879 21.8643L43.216 22.9864L42.5171 23.9383L42.6025 24.62L42.8804 25.1783L42.9491 26.1302L42.967 27.0437L42.4374 28.2728L42.3218 28.8598ZM40.1853 24.8066L40.6874 25.8819L40.9173 26.5088L40.7315 27.6871L40.2431 28.2796L39.4906 28.3852L38.9624 28.3358L38.6294 28.0505L38.5881 27.7309L38.3956 27.6363L37.8879 28.0478L37.5358 28.1027L37.0873 27.7844L36.9663 27.2742L37.4423 26.6336L37.6623 26.1343L38.1892 26.1782L38.3213 26.3332L38.6198 26.4306L38.8014 25.8285L38.7601 25.4115L38.8936 25.1207L39.5306 25.3305L39.5319 24.192L39.7795 24.1125L39.8813 24.1564L40.0643 24.3964L40.1853 24.8066ZM35.0348 31.9516L35.2645 32.1285L35.8643 32.0764L35.9854 32.1422L35.8987 32.4344L35.6387 32.7553L35.0926 32.9529L34.8463 33.4426L34.6702 33.6085L34.1983 33.6099L33.9191 33.7238L33.5766 34.1572L33.3028 33.8376L33.2258 34.0653L33.1762 34.4713L33.0235 34.5893L32.5503 34.736L32.4361 33.791L32.6534 33.448L32.8241 33.0365L33.0854 32.9735L33.3193 33.0077L33.7416 32.1189L34.3194 31.8651L34.6922 31.8363L35.0348 31.9516ZM31.5543 35.9815L30.9833 36.5206L31.1911 35.5357L31.4992 34.5344L31.9257 33.9597L32.1376 34.1846L32.0399 34.6661L32.0413 35.1407L31.9504 35.3643L31.5543 35.9815ZM29.4247 53.9791L29.067 54.0409L29.1262 53.6225L29.4151 53.2247L29.5265 52.9531L29.5842 52.6322L29.8401 52.3894L30.2006 52.7007L30.2074 53.2275L30.0286 53.7075L29.4247 53.9791ZM29.7714 55.3138L29.4618 55.3412L29.4646 54.9558L29.6421 54.6046L29.9227 54.3701L30.2845 54.3083L30.6889 54.2809L30.8114 54.4674L30.5789 54.7294L29.7714 55.3138ZM27.6803 57.8939L27.4244 58.1805L26.9471 58.0982L26.8962 57.8513L27.0324 57.3575L27.3226 57.1532L27.6968 57.1929L27.8165 57.3987L27.6803 57.8939ZM24.8367 64.8784L24.6345 65.1308L24.1847 64.9291L23.2974 65.0855L22.9397 64.84L23.2244 64.3599L24.0265 63.8551L24.4571 63.8784L24.8959 64.4984L24.8367 64.8784ZM14.1779 75.4964L13.7349 75.517L13.468 75.3222L14.1022 74.9354L15.0969 74.5651L15.1918 74.3305L15.3114 74.3017L15.4834 74.5898L15.5054 74.9848L15.3954 75.181L14.1779 75.4964ZM12.7554 78.3358L12.3771 78.3413L11.9272 78.2096L11.6452 77.9284L11.6012 77.6801L12.1199 77.3715L12.6412 77.1904L12.8834 77.5306L12.9012 78.0875L12.7554 78.3358ZM0.617651 96.9218L0.275113 97.022L0 96.9356L0.0976521 96.1757L0.24073 96.0522L0.448461 96.0083L0.672691 96.4157L0.617651 96.9218ZM1.10881 103.023L1.12119 103.943L0.766229 103.873L0.606652 103.521L0.559883 103.295L0.588767 102.761L0.509 102.21L0.613537 101.935L0.742844 101.898L0.972616 102.389L1.10881 103.023Z"/>
</mask>
<path d="M80.2579 0L81.2897 0.455394L81.6419 0.445787L82.155 1.29485L82.4219 1.2194L82.371 1.73516L81.8537 1.98068L81.049 2.12883L80.9292 2.2317L80.2414 2.1494L79.8548 1.45532L79.2096 1.28386L79.2111 1.06029L79.6292 0.533567L80.2579 0ZM100.657 15.6342L100.867 17.0951L100.86 17.6026L100.761 18.0936L100.622 18.3446L100.346 18.4544L99.6758 18.4105L98.7665 17.8357L98.1791 17.294L97.9961 17.2706L97.9163 17.3365L98.0594 17.8796L98.0209 18.2966L97.9328 18.7493L97.809 19.1594L97.6371 19.5023L97.2766 19.944L96.6534 20.2924L94.938 20.9714L94.8018 21.2704L94.2487 23.1496L94.0988 23.4239L93.8966 23.6557L93.3064 23.9561L93.0202 23.5419L92.7918 22.9123L92.8441 22.2868L93.5333 21.0825L94.1786 20.2252L94.3601 19.9276L94.7261 19.062L93.986 16.8756L92.6681 16.2103L91.1672 15.1939L90.6169 14.6508L89.7598 13.5274L89.1532 12.5151L88.6056 12.4794L88.0031 12.7345L87.0621 13.659L86.5132 14.1227L86.2105 14.2598L86.1376 14.2804L85.4636 14.0184L84.7152 13.9635L84.1126 14.039L83.8856 14.1652L83.0464 15.6521L82.459 16.3983L82.1358 16.6548L81.9005 17.0855L81.7079 17.7932L81.2773 20.2293L80.9568 21.1428L80.8853 21.6997L80.9609 23.3786L80.8839 24.3032L80.4918 25.063L80.2153 25.4046L79.8507 25.4746L79.3734 25.668L78.9566 26.1055L78.6621 26.7022L78.3306 28.0341L77.7693 28.5224L77.2327 28.3825L76.8504 27.8942L76.029 27.5156L75.4169 27.2742L74.7304 26.7502L74.1251 26.3511L73.5721 26.2715L73.2571 26.7776L73.0039 27.2495L72.0602 27.6322L71.525 27.9353L70.8317 28.0025L70.551 27.6665L69.544 27.4443L68.3458 27.1809L67.9991 27.1836L67.8905 26.5815L67.5713 25.7379L66.7197 24.273L66.3717 23.7545L65.7155 22.5323L64.9519 21.2732L64.8433 21.2416L64.3315 21.1991L63.5818 21.2402L63.1058 21.5269L62.8058 21.8863L62.7536 22.1853L63.0439 23.3265L62.9545 23.6105L62.8045 23.7476L62.1235 23.428L61.2995 23.45L61.0918 23.8011L60.5897 23.8395L59.141 23.9726L59.7807 24.8998L59.9926 25.2716L60.0352 25.8147L59.9238 26.8215L59.617 27.6788L59.2593 28.3743L58.5701 29.0615L59.617 29.7391L58.9058 30.6512L58.5729 31.0051L58.1877 30.9448L57.4985 30.6306L55.8297 29.868L55.0332 29.5813L54.3206 29.4935L53.9409 29.5045L52.4304 28.8489L52.1388 28.9215L51.5968 29.2055L51.5362 29.8419L51.5706 31.418L51.6504 32.625L51.4509 33.3191L51.2514 33.7896L50.6475 35.0529L49.2883 34.1942L48.3611 33.6236L47.7654 34.3822L46.2728 35.7675L45.5079 38.478L45.4639 38.5657L45.0113 39.2502L44.4321 39.5643L43.9933 39.7193L43.7374 40.5162L44.3331 41.6533L44.6385 42.2514L44.9233 43.2143L44.871 43.8247L44.805 44.2033L44.1652 44.9769L42.8005 47.0083L41.5377 49.1125L41.0204 49.7133L41.2543 51.48L40.8347 51.9957L39.979 52.5773L39.5416 52.8009L39.071 52.9326L37.6238 53.1644L37.8811 55.0298L37.9787 55.8515L37.9774 56.337L37.8274 56.8102L37.6486 57.7114L37.3789 60.9074L37.1726 61.249L36.8878 62.1063L35.9716 64.1541L35.237 65.5066L34.1763 67.442L35.0389 68.0497L35.8258 68.4927L35.9895 69.1717L36.0981 70.3019L36.072 71.0687L35.7708 71.7559L35.5369 72.2374L35.3732 72.4719L34.2548 72.2387L32.8213 71.9383L32.4498 71.9356L31.6162 72.1523L30.8637 72.5954L30.4674 72.9685L30.3615 73.1166L29.8608 73.9643L28.9693 75.4622L28.4809 76.1137L28.624 77.0094L27.8041 78.7308L28.3406 80.4564L28.364 80.514L28.6488 81.2081L28.3516 81.6552L28.2264 81.8953L28.2691 82.684L28.3475 83.5632L28.2788 84.0776L28.2498 84.6468L28.979 87.1913L28.9707 87.7838L28.9349 88.1651L28.7093 89.7302L28.4067 91.8165L28.9349 92.3611L29.6861 93.0112L30.1084 93.2677L30.7316 94.0386L31.2076 94.7889L31.1416 95.2855L31.004 95.8328L30.8045 96.2141L30.616 96.7367L30.5321 97.1221L30.4441 97.225L29.6118 97.2675L29.1729 97.4129L28.9432 97.5761L29.0216 98.4513L29.5265 100.046L29.9461 101.174L30.0809 101.915L29.9433 102.664L29.8003 103.046L29.7961 103.561L29.6861 104.581L29.3614 105.096L28.9363 105.655L28.4631 106.072L28.0875 106.189L27.7656 106.237L27.5483 106.448L27.3515 107.069L27.1699 107.72L26.577 108.518L26.5935 108.795L26.8191 109.736L27.031 110.803L26.8521 111.798L26.6994 112.836L26.4312 113.526L26.0487 113.773L25.7681 113.649L25.4503 112.703L25.4338 112.479L25.3554 112.188L24.4529 111.899L24.2934 111.909L23.9384 111.739L23.7307 111.691L23.3042 111.593L22.9493 110.751L22.5737 110.049L22.5187 109.755L22.5325 108.434L22.4169 107.844L22.3811 107.2L22.1445 107.724L22.2821 108.551L21.9904 108.896L21.6204 109.065L21.6548 109.547L21.8061 109.639L21.8377 110.136L21.7483 110.874L21.0219 112.505L20.8761 112.68L20.7757 112.899L20.4043 112.754L19.9269 113.206L19.4743 113.279L19.3106 112.767L18.6736 112.088L18.3737 112.127L18.6434 112.461L18.9103 112.896L18.7589 113.183L18.6104 113.371L18.3504 113.468L17.419 114.035L17.7505 114.415L17.4686 114.845L17.1439 114.908L16.9706 115.109L16.91 115.38L15.9456 116.155L14.3746 118.132L13.5671 118.689L13.003 119.265L12.5064 119.251L11.8819 119.741L10.2998 120.169L9.25016 119.975L8.51966 120.146L8.12758 119.809L8.0767 119.579L8.09593 119.445L8.16058 119.283L8.02439 119.229L7.73827 119.202L7.61581 119.364L7.59931 119.733L7.46312 119.829L6.91835 119.617L6.78077 119.428L6.97612 119.043L7.31181 118.696L7.25127 118.624L7.18662 118.413L7.02289 118.386L6.53589 118.438L6.13969 118.375L4.84931 117.591L4.54804 117.172L3.50662 116.501L3.04027 115.788L2.77477 115.003L2.79538 114.29L2.92335 113.155L3.14208 112.874L4.07615 113.273L5.02127 113.937L5.16846 113.904L5.46562 113.383L6.04066 112.963L5.87692 112.848L5.02127 113.33L4.70346 113.064L4.20962 112.52V112.239L4.43935 111.958L4.51639 111.578L4.39669 111.219L4.45312 110.729L4.83415 110.209L5.40646 109.681L5.81916 109.169L6.24289 108.855L6.19885 108.75L5.71462 108.95L5.251 109.29L4.70623 109.859L4.04177 110.319L3.55066 110.497L3.31677 110.645L2.95635 110.788L2.58354 111.445L2.17635 111.726L1.44723 111.755L1.28627 111.275L1.49262 109.563L1.71273 108.725L1.95485 108.131L2.33454 108.031L2.60142 107.595H2.82293L3.0155 107.796L3.75977 107.991L4.12708 107.436L4.60442 107.353L5.47523 106.791L5.45735 106.688L4.86858 106.812L4.51089 106.829L3.99912 106.971L3.72673 106.869L3.59881 106.448L3.80377 106.067L4.62508 105.155L4.90985 104.754L5.07077 104.38L5.04466 104.124L5.18223 103.595L5.98562 102.669L6.64047 102.244L6.85508 102.609L6.67208 103.749L6.67346 104.218L7.19073 102.558L7.41908 102.162L7.67774 101.882L8.30504 101.694L8.4825 101.431L7.75066 101.517L5.97739 102.153L5.23039 102.72L5.03089 103.155L4.51227 103.81L4.26877 104.234L4.16146 104.857L3.86981 105.194L3.475 105.319L2.92746 106.104L2.68535 106.733L2.14058 107.233L1.79527 107.617L1.68108 107.754L1.494 108.13L1.33854 108.157L1.20373 107.936L1.18035 107.451L1.23534 106.672L1.49812 106.109L1.62331 105.559L1.44996 105.045L1.57104 104.718L1.80077 104.731L2.23 104.879L2.68535 104.856L3.43508 104.448L3.31538 104.21L2.99212 104.175L2.38819 104.21L1.88054 103.81L1.48573 103.015L1.30688 101.948L1.42658 101.642L2.88758 100.55L3.281 100.052L3.05266 100.003L2.50373 100.606L1.71962 100.979L1.22435 100.459L0.967074 99.8984L0.818539 98.7091L0.872193 98.096L0.810269 97.2881L1.14592 97.0247L1.52011 97.1646L1.89019 97.2168L2.728 97.1454L4.57693 96.6585L5.76827 96.9479L6.2525 96.9218L6.994 96.5021L7.64197 96.4596L8.12758 96.7792L8.39308 97.1468L8.42612 97.6365L8.65035 97.9629L8.80166 97.8559L8.68062 97.4678L8.65585 96.8656L10.6052 96.1812L10.8349 95.915L10.0604 95.8218L9.83893 95.1949L10.2475 94.243L10.209 94.1195L9.77843 94.6229L9.56654 95.328L9.65185 95.8904L9.56654 96.151L9.17035 96.2703L8.27889 96.3142L7.70662 96.0755L7.17696 95.9466L6.99677 95.7669L7.05727 95.365L6.95685 95.2813L6.73673 95.6421L6.54139 96.3595L6.12042 96.5254L4.95796 96.2593L3.2755 96.4157L2.52027 96.7751L2.03188 96.7284L1.18996 96.0975L0.862537 95.5941L0.740115 94.5763L0.789613 94.1278L1.44446 93.9385L1.776 93.9508L2.08692 93.7094L1.81177 93.5517L1.42519 93.2417L1.16246 92.6217L0.764885 92.4187L0.499344 91.8878L0.431961 91.0854L0.507614 90.5258L0.71946 90.3461L1.22984 90.4682L2.57527 90.3735L3.84093 90.9441L4.70073 91.2651L6.44096 91.1033L7.46035 90.5944L7.27327 90.4544L6.16724 90.748L5.14508 90.7356L3.34292 90.1609L2.60415 89.9757L1.80765 90.058L1.39358 89.8838L1.15008 89.3132L1.33027 88.2186L1.70723 87.9827L1.91081 88.268L2.15708 88.2859L2.40746 87.8277L2.64542 87.5657L2.83527 86.9732L3.54927 86.4094L3.85054 86.3614L4.2825 86.1021L4.55904 86.1762L4.73512 86.4368L4.95935 86.6522L5.44362 86.6261L6.87708 86.1735L7.03116 86.0404L7.31043 85.6687L6.40247 85.8347L5.64858 86.098L5.16296 86.1721L5.09415 85.8415L5.273 85.5494L5.55366 85.2366L5.68985 84.7031L5.99939 84.4754L6.33366 84.4877L7.02427 84.3903L7.51127 84.2518L8.34631 84.3437L9.5927 84.5481L10.3947 85.0446L10.6974 84.9993L11.0179 84.8677L11.1637 84.688L10.5337 84.4822L10.4979 84.1873L10.5763 83.9651L11.6053 83.555L12.7279 83.4644L12.5353 83.1339L10.0755 83.6332L9.43312 83.2916L8.92547 83.2944L8.59393 83.4891L7.64747 83.7251L7.47412 83.5577L7.65435 82.9789L8.22112 82.0269L8.26789 81.7938L8.53066 81.5633L9.99989 81.0078L10.7056 80.3604L11.0234 80.2781L11.3384 80.3233L11.8185 80.2479L12.7458 80.4331L13.1736 81.2423L13.5574 81.4961L14.7639 82.5029L14.7103 82.2148L13.6647 80.8473L13.2658 80.5071L12.9673 79.8323L13.0691 79.1931L13.4047 78.7651L14.5975 78.5361L14.8107 78.2878L14.8327 77.8612L14.6497 77.569L14.2109 77.5855L13.8491 77.4044L13.75 76.9436L13.8945 76.6308L14.5823 76.0588L14.9579 75.8737L15.61 75.6734L16.7422 76.126L16.8289 76.362L16.511 76.9298L16.5427 77.2481L16.8206 77.2823L17.4672 76.3249L18.2279 76.1919L18.5429 75.9861L18.9089 75.8558L19.4303 76.7227L19.66 76.9998L19.832 77.1136L19.9984 77.8324L20.1594 77.8708L20.3891 77.5114L20.806 77.3208L21.3906 77.1959L22.3591 77.3866L22.798 77.2453L23.0126 77.2659L22.8062 76.6198L22.6783 76.4319L22.8777 75.8531L23.0855 75.6267L23.7541 75.2194L24.3924 75.0369L24.8092 74.6501L25.3691 74.2921L25.2811 74.0068L25.1256 73.6749L24.7625 73.6543L24.6152 73.4732L25.0747 73.0425L25.7048 72.5625L25.5947 72.3732L25.1215 72.1592L24.7625 72.3197L24.2287 72.6914L23.6069 73.2785L23.8091 73.4499L24.12 73.9423L23.6867 74.5953L21.3865 76.3222L20.2901 76.8256L19.7838 76.7474L19.6628 76.2769L19.4303 75.9299L19.1799 75.2098L18.7534 75.229L18.5113 75.3881L18.4067 75.1522L18.5897 74.3813L18.9502 73.7709L19.5541 73.3086L19.8444 72.749L20.1167 71.8588L20.9903 71.0083L22.2614 68.8932L23.2974 68.2143L23.6771 67.4694L24.2879 67.1403L24.8092 66.5573L25.2178 66.4997L25.9607 65.973L26.3817 65.3447L26.1065 65.3063L25.4531 65.7137L25.083 65.8783L25.1091 65.2048L25.288 64.5122L25.8259 63.8771L28.4136 62.024L28.6722 62.3312L28.9817 62.8744L29.7604 62.7523L30.6491 61.7002L31.3328 60.5521L30.9627 60.7524L30.5596 61.2229L29.7741 61.8744L29.4109 61.9773L29.2032 61.8923L29.0876 61.4574L28.8153 61.3162L28.569 61.4136L28.3145 61.1036L28.2691 60.3368L28.5937 59.1915L28.851 58.4316L29.1289 57.8541L30.2212 56.2081L30.4564 55.3055L30.9503 54.8282L31.5914 54.9338L31.7854 54.7953L31.5653 54.2L30.8664 53.7281L30.8238 53.4305L33.1528 52.6472L34.2616 52.6733L34.5904 52.2824L35.193 52.03L35.6497 51.5499L35.4145 51.3373L34.2878 51.779L33.5834 51.9861L33.2656 51.9792L33.0166 52.1301L32.1169 52.1877L31.9202 50.2715L32.0619 49.2249L32.3976 49.2469L32.4746 48.2442L32.8625 47.6503L33.3977 47.5172L33.6673 47.2635L34.0567 46.745L34.7004 46.8643L35.3622 46.7491L35.1971 46.5036L34.3758 46.1881L34.1736 45.6449L34.4625 45.3404L34.7775 45.1168L35.0554 45.077L35.6043 44.0112L35.9386 43.5545L36.3114 43.634L36.8314 43.1622L37.3432 43.3227L37.8371 43.014L38.5125 42.8097L40.9846 42.7315L41.0576 42.2912L40.5376 42.1897L38.701 42.0758L37.7628 42.0854L37.3679 42.1993L37.2235 42.0457L37.2496 41.7823L37.5908 41.3639L37.7518 40.9017L38.4341 39.7687L39.2334 39.0115L39.8455 39.2049L40.4963 39.9278L40.9599 40.0183L41.1759 40.2515L41.5143 41.2446L41.6752 41.2761L41.6023 40.3228L42.0495 39.5437L41.9338 39.3284L41.2625 39.6109L40.748 39.3174L40.3422 38.7303L40.2266 38.1926L40.4797 37.6604L40.7178 37.3916L40.5568 37.0775L39.5416 37.9156L38.8234 38.1117L38.54 37.9951L38.6928 37.2352L38.6075 36.6303L39.5705 35.1352L39.9019 34.9624L40.4426 35.0831L40.9309 35.5055L41.3395 35.4383L41.7825 35.212L41.722 34.806L40.7618 34.6441L40.5141 34.3067L40.6036 33.9734L41.2625 33.6222L41.9187 32.9872L42.6699 32.802L43.2738 32.3205L43.3907 32.4303L43.4925 32.6196L43.7099 34.4L44.2505 35.843L44.45 35.8951L44.2423 34.6688L44.4363 34.3149L44.6811 34.0461L44.7582 33.7388L44.4775 33.6346L44.2478 33.1929L43.9204 31.776L44.0331 31.4056L44.7444 30.6457L45.6359 30.4715L46.5851 31.0037L46.9194 31.0092L47.4697 30.8666L48.4037 30.4276L48.954 30.2603H49.2402L49.3103 30.0381L49.0448 29.8954L48.9595 29.7569L48.7518 29.6773L47.8878 29.9146L45.5038 29.8392L45.2741 29.5854L45.2314 29.1451L45.4845 28.5142L45.7624 28.1644L46.6621 27.5348L47.6128 27.4498L48.6156 26.3264L48.998 25.4814L49.2154 24.1715L49.8262 23.1071L51.3587 22.4994L51.4206 22.2306L51.2583 21.6723L51.2721 20.6655L51.6917 19.4872L51.9709 19.0771L52.1002 19.0277L52.4304 19.4145L52.8321 20.2348L53.4608 20.7039L54.2848 20.7848L54.5049 20.5544L53.8653 20.088L53.3796 19.4763L53.3412 18.8604L53.5709 18.5339L53.9285 18.5696L54.377 18.501L54.7952 18.0854L54.8557 17.7932L54.8736 17.3954L54.9782 16.9908L55.5918 16.021L57.4819 15.3887L57.6195 15.6466L57.5177 17.5161L57.3004 18.7177L57.3073 19.5929L57.6759 18.7177L58.1684 16.3077L58.5399 15.1665L58.958 14.5095L59.2566 14.3613L59.5523 14.0198L59.943 13.8168L60.0628 14.0788L60.1865 14.6864L59.9761 16.807L59.9967 17.4736L59.7615 18.3639L58.8604 20.3377L58.9017 20.5887L59.1052 20.4954L59.4534 20.1717L60.5703 18.2953L61.5458 18.5326L61.5581 18.3789L61.2445 17.8262L60.8634 17.2953L60.7479 16.6369L60.7987 14.8702L61.0931 14.1665L61.935 14.2406L62.4399 14.1432L62.6752 14.4628L63.1801 14.4395L63.5295 13.1639L64.2215 13.0514L64.8295 13.8963L65.56 14.4628L66.1474 15.2749L66.3139 15.0527L65.9975 13.1515L65.6509 12.4547L64.8983 12.0912L64.0963 11.2284L63.8886 10.8444L63.9244 10.5591L64.6314 10.2834L65.5641 10.6002L66.395 9.87735L66.6221 10.0762L67.259 9.69766L67.6552 10.2079L67.8987 10.057L68.039 9.37258L69.0557 8.94736L69.7009 9.34104L70.0461 9.74567L70.2071 10.5234L70.4534 12.0528L70.9569 12.8745L71.2705 13.2763L71.6405 13.3874L71.8194 12.9787L71.4728 12.4849L71.3792 12.0185L71.5457 10.8581L71.7396 10.4013L72.8278 8.66069L73.7385 7.75264L74.2833 7.67583L75.2381 5.62794L75.5077 5.25348L75.7566 5.16706L75.6934 4.66229L75.172 4.34269L75.1541 3.71446L75.8419 2.94907L76.677 1.65834L77.0883 1.57192L77.3469 1.93129L78.16 2.51425L78.658 3.17951L79.0184 3.5142L79.2523 3.44425L79.4462 2.94495L79.6802 2.71041L80.1961 2.84208L80.5042 3.16306L80.7449 3.20557L80.9622 3.40034L81.0132 3.82694L80.5661 4.29194L79.8039 5.51682L79.0528 6.90222L78.8052 7.6292L78.5617 9.5262L77.9742 10.7319L77.9289 11.5741L78.1655 11.9691L78.8135 11.6592L79.6128 10.5358L79.8122 9.33691L81.8111 6.05727L82.7493 4.22747L83.8141 2.7008L84.4111 2.38394L84.6917 3.3976L84.4662 4.71441L84.0136 5.54974L84.3478 5.93245L84.2846 6.92005L84.1801 7.46735L84.114 8.03932L84.1181 8.54134L84.4318 8.40693L85.6795 7.37544L85.996 6.25341L86.2889 5.40847L86.4293 4.67736L86.9149 3.98194L87.8311 3.97646L87.8669 3.70211L86.7553 2.74607L86.6246 2.30851L86.9974 1.72417L88.0223 0.604896L88.5492 0.728341L88.8643 0.983477L90.1258 1.17825L91.0943 1.97794L91.0571 3.22478L90.8411 3.74326L90.6293 4.0615L89.3898 4.9997L89.1862 5.46196L89.5755 5.62107L90.4119 5.15471L90.6293 5.57856L90.3624 6.63473L90.317 8.21078L90.2207 9.12569V9.95692L90.3253 10.4027L90.6623 8.63325L90.7765 8.17649L91.2689 7.50575L91.4519 6.14918L91.9335 4.51003L92.4769 3.55261L92.7918 3.29063L93.8374 3.32765L94.2859 3.6884L94.6821 4.48807L94.9779 4.80767L95.9106 5.14649L96.2297 5.57032L96.2889 5.82271L96.5172 5.87347L97.1473 5.27131L97.5559 5.17116L98.2217 6.10939L98.0883 6.80209L98.1268 7.02154L98.933 6.97765L99.6043 7.24923L100.88 8.65931L101.013 9.31498L100.95 10.1078L99.1091 10.9761L98.3139 11.8045L97.0125 12.1228L92.5938 11.5686L92.6832 12.168L95.7606 13.4725L95.9367 13.8442L95.8377 14.6233L95.8363 15.2474L95.894 15.6726L96.1211 16.0677L96.4966 16.2529L97.2628 16.1555L97.6398 16.3681L97.8985 16.054L97.9948 14.9937L98.2176 14.7591L98.6468 15.0677L98.8339 16.2007L98.9536 16.3173L99.1696 15.5108L99.5946 15.5684L100.058 15.5012L100.657 15.6342ZM71.9735 3.85163L71.8978 4.21923L71.7672 4.57587L71.4507 4.95171L70.5346 6.43447L69.9967 6.67178L69.8261 6.90358L69.6114 7.04213L68.9428 6.84049L68.7475 7.13952L68.5631 7.33978L68.0789 7.41659L67.7942 7.35213L67.0609 6.80619L66.6248 6.21364L66.3882 5.70611L67.0664 5.71572L67.3072 5.59227L67.7625 5.69927L68.0362 5.17667L68.6141 5.23975L69.7243 4.87626L70.1314 5.07926L71.0628 3.85986L71.3545 3.8914L71.8002 3.54164L71.9735 3.85163ZM74.2007 6.74172L73.4648 7.2026L73.0383 6.80619L72.8595 6.39881L72.8333 5.49214L72.9324 4.93798L73.2776 4.6513L73.5019 4.86117L73.5611 5.03675L73.9628 5.20821L74.4346 5.77882L74.2007 6.74172ZM72.649 6.95023L72.7205 7.49066L72.7481 7.93507L72.3876 8.57565L71.5567 9.41373L71.6048 9.63868L71.3173 9.85403L70.8867 10.0118L70.6597 9.85951L70.69 9.14214L70.6212 8.92817L70.2952 9.21347L69.9554 8.84724V8.47962L70.0448 8.16002L70.3598 7.67309L70.8839 7.33704L71.2293 7.46322L72.382 6.16975L72.5059 6.44134L72.649 6.95023ZM57.7928 10.7607L57.9896 10.8938L58.185 10.8114L58.3459 10.928L58.6692 11.5261L59.0172 11.7606L59.0338 12.0597L58.716 12.3505L58.2964 12.4382L57.8465 12.3367L57.7144 11.9637L57.5755 11.3423L57.2 10.7319L57.1435 10.1956L57.4709 10.1105L57.7928 10.7607ZM55.8146 12.4629L56.1572 13.0761L56.4612 13.0171L56.552 12.7866L56.7583 12.6714L57.1765 12.9965L57.1174 13.5466L56.5382 14.2393L56.1228 15.2241L55.5918 15.4518L55.3358 15.3338L54.8598 15.9003L54.4802 16.4874L54.0853 17.2281L54.0606 17.6094L53.9987 17.9002L52.5528 18.1883L52.0273 18.3789L51.4701 18.1334L51.2061 17.6451L51.2913 17.3804L51.8471 17.2747L51.865 16.8207L52.0067 16.5436L52.1869 16.3914L52.319 15.8098L52.5391 15.6575L52.949 15.8002L53.2255 15.3777L53.381 15.305L53.5722 15.6548L53.6644 15.1734L53.5722 14.7331L53.6203 14.4354L54.15 13.6604L54.3797 13.0939L54.71 12.7277L55.0277 12.7853L55.1199 12.2449L55.0277 11.6907L55.0621 11.3286L55.3427 10.448L55.6509 10.4109L55.7926 11.1942L55.8146 12.4629ZM61.6984 12.1996L61.4907 12.4616L61.1715 12.5686L60.9996 12.4067L60.7547 12.2997L60.4824 12.3477L60.254 11.8663L60.2801 11.4616L60.5924 10.913L61.2183 10.6002L61.7246 10.7292L61.8539 10.8896L61.6984 12.1996ZM97.1294 15.4861L96.3962 15.8112L96.3109 15.5437L96.4719 15.1267L96.6644 14.2708L96.9658 14.3051L97.2711 14.6315L97.5105 15.0211L97.1294 15.4861ZM49.0503 17.7082L49.5139 18.3378L49.7216 18.1457L50.133 18.0731L50.4384 18.2953L50.6888 18.6944L50.9846 18.7123L51.1703 19.2335L51.2652 19.9097L51.0506 20.4131L50.7452 20.6422L50.6627 21.2334L50.7782 22.0605L50.0931 22.3431L49.3007 22.4692L48.9898 22.0742L48.357 22.7957L47.7283 23.9163L47.4256 24.048L47.4036 23.6941L46.9524 23.4486L46.3746 23.4349L46.3938 23.1715L46.4998 22.9864L46.9978 22.7106L47.0969 22.14L47.006 21.1195L47.0941 20.6216L47.1133 20.2787L47.427 19.8754L48.5 20.0647L48.6308 19.6793L48.5496 19.4365L47.9951 19.0113L48.0805 18.7246L48.4808 18.4681L48.8591 18.4338L48.9733 18.0004L48.9926 17.8097L49.0503 17.7082ZM42.3218 28.8598L42.3686 28.9339L42.8941 27.9189L43.4774 27.602L43.5131 27.2468L43.7388 26.9038L43.7126 26.3414L43.8268 25.8847L44.124 25.7626L44.3097 25.6076L44.5147 25.5212L44.8875 25.8929L45.0966 26.3044L45.358 27.2207L45.2493 28.104L44.549 28.7912L43.9933 29.0999L43.4306 29.8845L43.1486 30.525L42.9051 30.6636L42.7524 30.6115L42.6162 30.4578H42.3314L42.0178 31.012L41.0713 31.4619L40.6999 31.3316L40.6833 30.7802L40.4619 30.8254L40.1069 31.4866L39.7603 31.7074L39.5278 31.7746L39.0999 31.5263L37.9498 32.6484L36.8713 32.8569L36.5164 32.7279L36.515 32.0421L37.2124 31.1615L37.7834 30.5483L39.7506 30.119L40.9764 28.2865L41.2722 26.2797L41.561 25.55L41.4248 25.1371L41.0961 25.0644L41.0755 24.428L41.2474 23.7312L41.8898 22.771L42.2475 22.3609L42.8294 21.1963L43.1101 20.9343H43.4293L43.7443 21.2402L43.6879 21.8643L43.216 22.9864L42.5171 23.9383L42.6025 24.62L42.8804 25.1783L42.9491 26.1302L42.967 27.0437L42.4374 28.2728L42.3218 28.8598ZM40.1853 24.8066L40.6874 25.8819L40.9173 26.5088L40.7315 27.6871L40.2431 28.2796L39.4906 28.3852L38.9624 28.3358L38.6294 28.0505L38.5881 27.7309L38.3956 27.6363L37.8879 28.0478L37.5358 28.1027L37.0873 27.7844L36.9663 27.2742L37.4423 26.6336L37.6623 26.1343L38.1892 26.1782L38.3213 26.3332L38.6198 26.4306L38.8014 25.8285L38.7601 25.4115L38.8936 25.1207L39.5306 25.3305L39.5319 24.192L39.7795 24.1125L39.8813 24.1564L40.0643 24.3964L40.1853 24.8066ZM35.0348 31.9516L35.2645 32.1285L35.8643 32.0764L35.9854 32.1422L35.8987 32.4344L35.6387 32.7553L35.0926 32.9529L34.8463 33.4426L34.6702 33.6085L34.1983 33.6099L33.9191 33.7238L33.5766 34.1572L33.3028 33.8376L33.2258 34.0653L33.1762 34.4713L33.0235 34.5893L32.5503 34.736L32.4361 33.791L32.6534 33.448L32.8241 33.0365L33.0854 32.9735L33.3193 33.0077L33.7416 32.1189L34.3194 31.8651L34.6922 31.8363L35.0348 31.9516ZM31.5543 35.9815L30.9833 36.5206L31.1911 35.5357L31.4992 34.5344L31.9257 33.9597L32.1376 34.1846L32.0399 34.6661L32.0413 35.1407L31.9504 35.3643L31.5543 35.9815ZM29.4247 53.9791L29.067 54.0409L29.1262 53.6225L29.4151 53.2247L29.5265 52.9531L29.5842 52.6322L29.8401 52.3894L30.2006 52.7007L30.2074 53.2275L30.0286 53.7075L29.4247 53.9791ZM29.7714 55.3138L29.4618 55.3412L29.4646 54.9558L29.6421 54.6046L29.9227 54.3701L30.2845 54.3083L30.6889 54.2809L30.8114 54.4674L30.5789 54.7294L29.7714 55.3138ZM27.6803 57.8939L27.4244 58.1805L26.9471 58.0982L26.8962 57.8513L27.0324 57.3575L27.3226 57.1532L27.6968 57.1929L27.8165 57.3987L27.6803 57.8939ZM24.8367 64.8784L24.6345 65.1308L24.1847 64.9291L23.2974 65.0855L22.9397 64.84L23.2244 64.3599L24.0265 63.8551L24.4571 63.8784L24.8959 64.4984L24.8367 64.8784ZM14.1779 75.4964L13.7349 75.517L13.468 75.3222L14.1022 74.9354L15.0969 74.5651L15.1918 74.3305L15.3114 74.3017L15.4834 74.5898L15.5054 74.9848L15.3954 75.181L14.1779 75.4964ZM12.7554 78.3358L12.3771 78.3413L11.9272 78.2096L11.6452 77.9284L11.6012 77.6801L12.1199 77.3715L12.6412 77.1904L12.8834 77.5306L12.9012 78.0875L12.7554 78.3358ZM0.617651 96.9218L0.275113 97.022L0 96.9356L0.0976521 96.1757L0.24073 96.0522L0.448461 96.0083L0.672691 96.4157L0.617651 96.9218ZM1.10881 103.023L1.12119 103.943L0.766229 103.873L0.606652 103.521L0.559883 103.295L0.588767 102.761L0.509 102.21L0.613537 101.935L0.742844 101.898L0.972616 102.389L1.10881 103.023Z" fill="var(--fill-0, #71B219)" stroke="var(--stroke-0, white)" mask="url(#path-1-inside-1_0_254)"/>
</g>
</svg>
