<svg preserveAspectRatio="none" width="100%" height="100%" overflow="visible" style="display: block;" viewBox="0 0 31.3121 17.5354" fill="none" xmlns="http://www.w3.org/2000/svg">
<g id="NP">
<mask id="path-1-inside-1_0_95" fill="white">
<path d="M31.1126 11.0378L31.2681 11.1557L31.2846 11.3492L31.2557 11.5631L31.0961 12.0254L30.9503 12.3491L30.7811 13.0336L30.6284 14.2173L30.6614 14.4244L31.1167 15.1007L31.2943 15.6219L31.3121 15.9744L31.1182 16.5684L30.8994 17.2364L30.7921 17.3872L30.6683 17.4407L30.1056 17.2076L29.7191 17.2405L29.2734 17.3694L28.8084 17.3434L28.4231 17.2665L27.9376 17.5354L27.4712 17.39L27.1726 17.224L26.9746 16.759L26.8907 16.7L25.9098 17.1856L25.6745 17.2158L25.0651 16.9551L24.5671 16.6959L24.38 16.6191L23.8985 16.5176L23.4666 16.4586L22.9947 16.2982L22.4087 16.5094L22.172 16.4915L21.9519 16.3393L21.8364 16.0279L21.8075 15.7316L21.608 15.5286L21.3012 15.482L20.8678 15.6644L20.2364 15.9058L20.0328 15.8647L19.8457 15.7961L19.7769 15.7316L19.6903 15.4532L19.5899 15.3915L19.4427 15.3819L19.184 15.3147L18.8621 15.1075L17.8908 14.6179L17.7684 14.3998L17.7725 13.9169L17.7189 13.718L17.6005 13.5081L17.1012 13.2942L16.1327 12.9513L15.5962 12.6769L15.3404 12.8059L14.8478 12.9197L14.5837 13.168L14.2673 13.0884L13.5148 12.8278L13.1103 12.7894L12.8668 12.8786L12.8104 13.0267L12.5022 13.1968L12.2093 13.061L11.6301 12.88L11.1239 12.7798L10.3548 12.5576L10.2667 12.2229L10.1374 11.891L9.95589 11.832L9.26662 11.8978L8.63385 11.5316L7.95558 11.0611L7.66674 10.9075L7.47546 10.8513L7.31181 10.913L7.12465 11.0213L6.95412 11.0529L6.58543 10.8499L6.11631 10.5618L5.53854 10.2066L4.8617 9.71141L4.58377 9.4302L4.45858 9.22035L4.31416 9.02144L3.7253 8.69635L3.26039 8.43988L2.69908 8.12986L2.60554 8.06816L2.39369 7.88297L2.06765 7.65115L1.80073 7.58259L1.71542 7.71151L1.65076 7.84593L1.41826 7.81436L1.05511 7.5771L0.67542 7.32883L0.379693 7.09839L0.0742256 6.86109L0 6.68549L0.12788 6.14369L0.305383 5.67871L0.455346 5.57444L0.70019 5.26585L0.789613 4.72402L0.785499 4.26042L1.02346 3.6061L1.35361 2.9093L1.92181 2.16177L2.16665 1.9135L2.44323 1.74338L2.96735 1.19062L3.076 1.10008L3.30573 0.95742L3.53134 0.921755L3.70196 0.990363L3.87669 1.27978L4.08854 1.55547L4.34581 1.54174L4.64708 1.30582L5.27162 0.222234L6.13965 0L6.96235 0.112478L7.69008 0.270206L7.90469 0.632336L8.045 1.01502L8.13585 1.20845L8.37515 1.43613L9.40147 1.97658L9.99712 2.46354L10.8212 3.11643L11.4375 3.40313L11.9837 3.42778L12.2918 3.68292L12.7554 4.19181L13.1474 4.77479L13.6359 5.31382L13.9742 5.29599L14.4351 5.12181L14.9978 4.89275L15.3293 5.00523L15.6361 5.15471L15.7379 5.43316L15.9236 5.95989L16.1272 6.50582L16.4491 6.6965L16.8316 6.97629L17.0421 7.19852L17.7574 7.60728L17.8578 7.77322L18.0023 7.88569L18.177 7.95702L18.3215 8.0407L18.5471 8.0695L19.3725 7.82537L19.5925 7.85555L19.7192 7.9008L19.7233 7.98997L19.5747 8.37127L19.4481 8.85961L19.5789 9.10373L19.9255 9.20524L20.6904 9.27795L21.7235 9.27109L22.0385 9.51798L22.3495 9.88835L22.6645 10.5207L22.7897 10.7881L22.9451 10.865L23.2134 10.7593L23.2588 10.5001L23.2698 10.1133L23.4954 9.98024L23.6399 10.079L23.8077 10.3808L24.2342 10.6523L24.5437 10.7854L24.8381 10.7388L24.9619 10.6345L25.1064 10.1064L25.3388 10.0296L25.6319 10.0639L25.7447 10.1695L25.863 10.3808L26.2193 10.4809L26.5729 10.6126L26.9044 10.7854L27.3735 11.1763L27.9499 11.2491L28.6199 11.2394L28.9721 11.2491L29.2307 11.2779L29.4632 11.2504L30.1496 10.9706L30.4303 10.95L30.7784 10.9816L31.1126 11.0378Z"/>
</mask>
<path d="M31.1126 11.0378L31.2681 11.1557L31.2846 11.3492L31.2557 11.5631L31.0961 12.0254L30.9503 12.3491L30.7811 13.0336L30.6284 14.2173L30.6614 14.4244L31.1167 15.1007L31.2943 15.6219L31.3121 15.9744L31.1182 16.5684L30.8994 17.2364L30.7921 17.3872L30.6683 17.4407L30.1056 17.2076L29.7191 17.2405L29.2734 17.3694L28.8084 17.3434L28.4231 17.2665L27.9376 17.5354L27.4712 17.39L27.1726 17.224L26.9746 16.759L26.8907 16.7L25.9098 17.1856L25.6745 17.2158L25.0651 16.9551L24.5671 16.6959L24.38 16.6191L23.8985 16.5176L23.4666 16.4586L22.9947 16.2982L22.4087 16.5094L22.172 16.4915L21.9519 16.3393L21.8364 16.0279L21.8075 15.7316L21.608 15.5286L21.3012 15.482L20.8678 15.6644L20.2364 15.9058L20.0328 15.8647L19.8457 15.7961L19.7769 15.7316L19.6903 15.4532L19.5899 15.3915L19.4427 15.3819L19.184 15.3147L18.8621 15.1075L17.8908 14.6179L17.7684 14.3998L17.7725 13.9169L17.7189 13.718L17.6005 13.5081L17.1012 13.2942L16.1327 12.9513L15.5962 12.6769L15.3404 12.8059L14.8478 12.9197L14.5837 13.168L14.2673 13.0884L13.5148 12.8278L13.1103 12.7894L12.8668 12.8786L12.8104 13.0267L12.5022 13.1968L12.2093 13.061L11.6301 12.88L11.1239 12.7798L10.3548 12.5576L10.2667 12.2229L10.1374 11.891L9.95589 11.832L9.26662 11.8978L8.63385 11.5316L7.95558 11.0611L7.66674 10.9075L7.47546 10.8513L7.31181 10.913L7.12465 11.0213L6.95412 11.0529L6.58543 10.8499L6.11631 10.5618L5.53854 10.2066L4.8617 9.71141L4.58377 9.4302L4.45858 9.22035L4.31416 9.02144L3.7253 8.69635L3.26039 8.43988L2.69908 8.12986L2.60554 8.06816L2.39369 7.88297L2.06765 7.65115L1.80073 7.58259L1.71542 7.71151L1.65076 7.84593L1.41826 7.81436L1.05511 7.5771L0.67542 7.32883L0.379693 7.09839L0.0742256 6.86109L0 6.68549L0.12788 6.14369L0.305383 5.67871L0.455346 5.57444L0.70019 5.26585L0.789613 4.72402L0.785499 4.26042L1.02346 3.6061L1.35361 2.9093L1.92181 2.16177L2.16665 1.9135L2.44323 1.74338L2.96735 1.19062L3.076 1.10008L3.30573 0.95742L3.53134 0.921755L3.70196 0.990363L3.87669 1.27978L4.08854 1.55547L4.34581 1.54174L4.64708 1.30582L5.27162 0.222234L6.13965 0L6.96235 0.112478L7.69008 0.270206L7.90469 0.632336L8.045 1.01502L8.13585 1.20845L8.37515 1.43613L9.40147 1.97658L9.99712 2.46354L10.8212 3.11643L11.4375 3.40313L11.9837 3.42778L12.2918 3.68292L12.7554 4.19181L13.1474 4.77479L13.6359 5.31382L13.9742 5.29599L14.4351 5.12181L14.9978 4.89275L15.3293 5.00523L15.6361 5.15471L15.7379 5.43316L15.9236 5.95989L16.1272 6.50582L16.4491 6.6965L16.8316 6.97629L17.0421 7.19852L17.7574 7.60728L17.8578 7.77322L18.0023 7.88569L18.177 7.95702L18.3215 8.0407L18.5471 8.0695L19.3725 7.82537L19.5925 7.85555L19.7192 7.9008L19.7233 7.98997L19.5747 8.37127L19.4481 8.85961L19.5789 9.10373L19.9255 9.20524L20.6904 9.27795L21.7235 9.27109L22.0385 9.51798L22.3495 9.88835L22.6645 10.5207L22.7897 10.7881L22.9451 10.865L23.2134 10.7593L23.2588 10.5001L23.2698 10.1133L23.4954 9.98024L23.6399 10.079L23.8077 10.3808L24.2342 10.6523L24.5437 10.7854L24.8381 10.7388L24.9619 10.6345L25.1064 10.1064L25.3388 10.0296L25.6319 10.0639L25.7447 10.1695L25.863 10.3808L26.2193 10.4809L26.5729 10.6126L26.9044 10.7854L27.3735 11.1763L27.9499 11.2491L28.6199 11.2394L28.9721 11.2491L29.2307 11.2779L29.4632 11.2504L30.1496 10.9706L30.4303 10.95L30.7784 10.9816L31.1126 11.0378Z" fill="var(--fill-0, #71B219)" stroke="var(--stroke-0, white)" mask="url(#path-1-inside-1_0_95)"/>
</g>
</svg>
