<svg preserveAspectRatio="none" width="100%" height="100%" overflow="visible" style="display: block;" viewBox="0 0 31 18" fill="none" xmlns="http://www.w3.org/2000/svg"><g id="NP"><mask id="path-1-inside-1_0_95" fill="white"><path d="M31 11L31 11L31 11L31 12L31 12L31 12L31 13L31 14L31 14L31 15L31 16L31 16L31 17L31 17L31 17L31 17L30 17L30 17L29 17L29 17L28 17L28 18L28 17L27 17L27 17L27 17L26 17L26 17L25 17L25 17L24 17L24 16L24 16L23 16L22 16L22 16L22 16L22 16L22 16L22 16L21 16L21 16L20 16L20 16L20 16L20 16L20 16L20 15L19 15L19 15L19 15L18 15L18 14L18 14L18 14L18 14L17 13L16 13L16 13L15 13L15 13L15 13L14 13L14 13L13 13L13 13L13 13L12 13L12 13L12 13L11 13L10 13L10 12L10 12L10 12L9 12L9 12L8 11L8 11L8 11L7 11L7 11L7 11L7 11L6 11L6 10L5 10L5 9L4 9L4 9L4 9L3 8L3 8L3 8L2 8L2 8L2 8L2 8L2 8L1 8L1 8L1 7L0 7L0 7L0 7L0 6L0 6L0 6L1 5L1 5L1 4L1 4L1 3L2 2L2 2L2 2L3 1L3 1L3 1L4 1L4 1L4 1L4 2L4 2L5 1L5 0L6 0L7 0L8 0L8 1L8 1L8 1L8 1L9 2L10 2L11 3L11 3L12 3L12 4L13 4L13 5L14 5L14 5L14 5L15 5L15 5L16 5L16 5L16 6L16 6L16 7L17 7L17 7L18 8L18 8L18 8L18 8L18 8L18 8L19 8L20 8L20 8L20 8L20 8L19 9L20 9L20 9L21 9L22 9L22 10L22 10L23 10L23 11L23 11L23 11L23 10L23 10L24 10L24 10L24 10L24 11L24 11L25 11L25 11L25 10L25 10L26 10L26 10L26 10L26 10L27 11L27 11L27 11L28 11L29 11L29 11L29 11L30 11L30 11L30 11L31 11L31 11Z"/></mask><path d="M31 11L31 11L31 11L31 12L31 12L31 12L31 13L31 14L31 14L31 15L31 16L31 16L31 17L31 17L31 17L31 17L30 17L30 17L29 17L29 17L28 17L28 18L28 17L27 17L27 17L27 17L26 17L26 17L25 17L25 17L24 17L24 16L24 16L23 16L22 16L22 16L22 16L22 16L22 16L22 16L21 16L21 16L20 16L20 16L20 16L20 16L20 16L20 15L19 15L19 15L19 15L18 15L18 14L18 14L18 14L18 14L17 13L16 13L16 13L15 13L15 13L15 13L14 13L14 13L13 13L13 13L13 13L12 13L12 13L12 13L11 13L10 13L10 12L10 12L10 12L9 12L9 12L8 11L8 11L8 11L7 11L7 11L7 11L7 11L6 11L6 10L5 10L5 9L4 9L4 9L4 9L3 8L3 8L3 8L2 8L2 8L2 8L2 8L2 8L1 8L1 8L1 7L0 7L0 7L0 7L0 6L0 6L0 6L1 5L1 5L1 4L1 4L1 3L2 2L2 2L2 2L3 1L3 1L3 1L4 1L4 1L4 1L4 2L4 2L5 1L5 0L6 0L7 0L8 0L8 1L8 1L8 1L8 1L9 2L10 2L11 3L11 3L12 3L12 4L13 4L13 5L14 5L14 5L14 5L15 5L15 5L16 5L16 5L16 6L16 6L16 7L17 7L17 7L18 8L18 8L18 8L18 8L18 8L18 8L19 8L20 8L20 8L20 8L20 8L19 9L20 9L20 9L21 9L22 9L22 10L22 10L23 10L23 11L23 11L23 11L23 10L23 10L24 10L24 10L24 10L24 11L24 11L25 11L25 11L25 10L25 10L26 10L26 10L26 10L26 10L27 11L27 11L27 11L28 11L29 11L29 11L29 11L30 11L30 11L30 11L31 11L31 11Z" fill="var(--fill-0,#71B219)" stroke="var(--stroke-0,white)" mask="url(#path-1-inside-1_0_95)"/></g></svg>