<svg preserveAspectRatio="none" width="100%" height="100%" overflow="visible" style="display: block;" viewBox="0 0 0.19939 0.235378" fill="none" xmlns="http://www.w3.org/2000/svg">
<g id="NR">
<mask id="path-1-inside-1_0_82" fill="white">
<path d="M0.19939 0.103217L0.12378 0.235378L0.0357493 0.218869L0 0.130775L0.0260986 0.0371363L0.12378 0L0.188397 0.0289024L0.19939 0.103217Z"/>
</mask>
<path d="M0.19939 0.103217L0.12378 0.235378L0.0357493 0.218869L0 0.130775L0.0260986 0.0371363L0.12378 0L0.188397 0.0289024L0.19939 0.103217Z" fill="var(--fill-0, #71B219)"/>
<path d="M0.19939 0.103217L0.633385 0.351508L0.719337 0.201271L0.694008 0.0300484L0.19939 0.103217ZM0.12378 0.235378L0.031614 0.72681L0.381166 0.792367L0.557774 0.48367L0.12378 0.235378ZM0.0357492 0.218869L-0.427555 0.406882L-0.324855 0.659956L-0.0564164 0.710301L0.0357492 0.218869ZM0 0.130775L-0.481642 -0.00346633L-0.527423 0.160788L-0.463304 0.318789L0 0.130775ZM0.0260986 0.0371363L-0.151583 -0.430228L-0.387718 -0.340454L-0.455544 -0.0971051L0.0260986 0.0371363ZM0.12378 0L0.327932 -0.456423L0.139276 -0.540806L-0.0539022 -0.467364L0.12378 0ZM0.188397 0.0289024L0.683014 -0.0442661L0.642883 -0.315549L0.392549 -0.427521L0.188397 0.0289024ZM0.19939 0.103217L-0.234604 -0.145075L-0.310215 -0.0129132L0.12378 0.235378L0.557774 0.48367L0.633385 0.351508L0.19939 0.103217ZM0.12378 0.235378L0.215945 -0.256054L0.127915 -0.272563L0.0357492 0.218869L-0.0564164 0.710301L0.031614 0.72681L0.12378 0.235378ZM0.0357492 0.218869L0.499054 0.0308551L0.463304 -0.0572385L0 0.130775L-0.463304 0.318789L-0.427555 0.406882L0.0357492 0.218869ZM0 0.130775L0.481642 0.265016L0.507741 0.171378L0.0260986 0.0371363L-0.455544 -0.0971051L-0.481642 -0.00346633L0 0.130775ZM0.0260986 0.0371363L0.20378 0.5045L0.301462 0.467364L0.12378 0L-0.0539022 -0.467364L-0.151583 -0.430228L0.0260986 0.0371363ZM0.12378 0L-0.0803723 0.456423L-0.0157552 0.485325L0.188397 0.0289024L0.392549 -0.427521L0.327932 -0.456423L0.12378 0ZM0.188397 0.0289024L-0.306221 0.102071L-0.295227 0.176385L0.19939 0.103217L0.694008 0.0300484L0.683014 -0.0442661L0.188397 0.0289024Z" fill="var(--stroke-0, white)" mask="url(#path-1-inside-1_0_82)"/>
</g>
</svg>
