<svg preserveAspectRatio="none" width="100%" height="100%" overflow="visible" style="display: block;" viewBox="0 0 0.597454 0.696274" fill="none" xmlns="http://www.w3.org/2000/svg">
<g id="NU">
<mask id="path-1-inside-1_0_62" fill="white">
<path d="M0.557635 0.473822L0.171683 0.696274L0 0.432583L0.152486 0.0975638L0.333726 0.0109801L0.44086 0L0.597454 0.310377L0.557635 0.473822Z"/>
</mask>
<path d="M0.557635 0.473822L0.171683 0.696274L0 0.432583L0.152486 0.0975638L0.333726 0.0109801L0.44086 0L0.597454 0.310377L0.557635 0.473822Z" fill="var(--fill-0, #71B219)"/>
<path d="M0.557635 0.473822L0.807317 0.907017L0.992762 0.800132L1.04343 0.592172L0.557635 0.473822ZM0.171683 0.696274L-0.247332 0.969086L0.0110625 1.36596L0.421366 1.12947L0.171683 0.696274ZM0 0.432583L-0.455079 0.225452L-0.568809 0.475324L-0.419015 0.705395L0 0.432583ZM0.152486 0.0975638L-0.0630468 -0.353596L-0.227219 -0.275166L-0.302592 -0.109568L0.152486 0.0975638ZM0.333726 0.0109801L0.282748 -0.486414L0.19646 -0.477571L0.118193 -0.44018L0.333726 0.0109801ZM0.44086 0L0.887262 -0.225222L0.732241 -0.532483L0.389883 -0.497395L0.44086 0ZM0.597454 0.310377L1.08325 0.428728L1.12686 0.249683L1.04386 0.0851548L0.597454 0.310377ZM0.557635 0.473822L0.307952 0.0406258L-0.0779994 0.263078L0.171683 0.696274L0.421366 1.12947L0.807317 0.907017L0.557635 0.473822ZM0.171683 0.696274L0.590698 0.423462L0.419015 0.159772L0 0.432583L-0.419015 0.705395L-0.247332 0.969086L0.171683 0.696274ZM0 0.432583L0.455079 0.639715L0.607565 0.304696L0.152486 0.0975638L-0.302592 -0.109568L-0.455079 0.225452L0 0.432583ZM0.152486 0.0975638L0.368019 0.548724L0.549259 0.46214L0.333726 0.0109801L0.118193 -0.44018L-0.0630468 -0.353596L0.152486 0.0975638ZM0.333726 0.0109801L0.384703 0.508375L0.491838 0.497395L0.44086 0L0.389883 -0.497395L0.282748 -0.486414L0.333726 0.0109801ZM0.44086 0L-0.00554206 0.225222L0.151052 0.535599L0.597454 0.310377L1.04386 0.0851548L0.887262 -0.225222L0.44086 0ZM0.597454 0.310377L0.111663 0.192026L0.0718436 0.355471L0.557635 0.473822L1.04343 0.592172L1.08325 0.428728L0.597454 0.310377Z" fill="var(--stroke-0, white)" mask="url(#path-1-inside-1_0_62)"/>
</g>
</svg>
