<svg preserveAspectRatio="none" width="100%" height="100%" overflow="visible" style="display: block;" viewBox="0 0 69 97" fill="none" xmlns="http://www.w3.org/2000/svg"><g id="NZ"><mask id="path-1-inside-1_0_133" fill="white"><path d="M69 46L69 46L69 46L68 47L68 46L68 46L68 46L68 46L68 46L68 46L68 47L68 47L68 47L69 48L69 48L68 48L68 48L68 48L68 48L68 48L68 48L68 47L68 47L68 47L68 46L67 47L67 47L67 46L67 46L68 46L69 46ZM69 49L69 49L69 49L69 49L69 49L69 49L69 49ZM28 2L29 3L29 2L29 2L29 2L29 2L29 2L30 3L30 3L30 3L31 3L31 3L31 3L32 3L32 4L32 4L32 4L32 4L32 4L32 4L33 4L33 4L33 4L33 4L33 5L33 5L33 5L33 6L33 6L34 6L33 6L33 6L33 6L33 7L33 7L34 8L34 9L34 9L34 10L34 10L34 10L34 10L34 11L34 11L34 11L34 11L35 12L35 12L35 12L35 11L35 12L36 12L36 12L36 12L36 13L37 13L37 13L37 13L37 13L37 12L37 12L37 11L37 11L37 11L37 10L37 10L37 10L37 10L37 10L37 10L37 10L38 11L38 11L38 11L38 12L39 12L39 13L39 14L40 15L40 15L39 15L39 15L39 15L40 15L40 15L40 15L40 15L41 16L42 16L44 17L44 17L44 17L45 17L45 16L45 16L46 16L46 15L46 15L47 15L47 15L48 15L48 15L49 15L49 16L49 16L48 16L48 17L48 18L48 19L48 20L48 20L47 20L47 20L46 21L46 22L46 22L47 22L47 23L46 23L46 23L46 23L46 22L45 22L45 22L44 22L44 22L43 23L43 23L43 23L43 24L43 24L43 25L43 25L43 25L43 26L42 28L42 28L42 28L41 29L41 30L40 30L40 31L40 31L40 32L39 32L39 33L38 34L38 34L37 35L37 35L36 35L36 35L36 35L36 34L36 34L35 34L35 34L35 34L35 34V33L35 33L35 33L34 33L34 33L35 33L34 34L34 34L34 34L34 33L34 33L34 33L35 32L35 31L36 30L36 29L36 28L36 28L36 27L35 27L34 26L34 26L34 26L33 26L33 25L32 25L31 24L31 24L30 24L30 23L30 23L30 23L31 23L31 23L32 22L32 22L33 22L33 22L33 22L34 21L34 21L34 20L34 19L34 18L34 18L35 17L34 16L34 16L35 16L35 16L35 15L34 15L34 14L34 14L34 14L34 14L34 14L34 13L34 12L34 13L34 13L34 13L34 13L35 13L35 12L34 12L34 12L34 12L34 12L33 12L33 12L33 12L33 11L33 11L32 10L32 10L33 10L33 10L33 10L33 10L33 9L33 9L33 9L33 9L33 8L32 8L32 8L32 8L32 8L32 9L32 8L31 8L31 7L31 7L31 8L31 8L32 9L32 9L32 9L32 9L32 9L31 8L31 8L29 5L29 5L30 4L30 4L30 4L30 4L30 4L29 4L29 4L29 5L29 5L29 5L29 5L29 4L28 4L28 4L28 4L28 4L28 3L28 3L28 2L28 2L27 1L26 0L27 0L28 0L27 0L28 1L28 1L28 2L28 2L28 2L28 2ZM37 9L37 9L37 9L37 9L37 8L36 8L36 8L37 8L37 8L37 8L37 8L37 8L37 9ZM28 33L28 33L29 33L29 33L30 32L30 32L30 32L31 32L31 32L31 32L31 32L31 32L31 32L31 32L31 32L31 33L30 33L31 33L31 33L31 33L31 32L31 32L31 32L31 32L32 32L32 32L32 32L32 32L32 32L32 32L32 32L32 32L32 33L32 33L32 33L32 33L32 33L33 32L33 33L32 33L32 34L32 34L32 34L32 34L32 34L32 34L32 35L32 35L32 35L32 35L32 36L32 36L32 36L32 37L31 37L31 38L31 38L31 38L30 40L30 40L29 41L28 42L28 42L28 42L27 43L27 43L26 44L26 44L26 44L26 44L26 44L26 44L26 44L26 44L26 45L26 44L26 45L26 45L27 45L27 46L27 46L28 46L28 46L28 46L28 47L28 47L28 47L27 47L27 47L26 46L26 47L26 47L25 47L26 46L26 46L25 46L25 46L25 46L25 47L25 47L25 47L24 47L24 46L24 46L24 46L24 47L24 47L24 47L24 47L23 48L23 48L22 48L22 48L22 48L21 48L21 49L21 49L21 49L21 49L21 49L21 50L21 51L20 52L20 52L20 52L20 52L20 53L20 53L20 54L20 54L19 55L19 56L19 57L19 57L19 57L19 57L19 58L19 58L19 58L18 58L18 58L17 58L17 59L17 59L16 60L15 61L15 61L15 61L13 62L12 62L12 62L11 62L11 62L11 62L10 62L10 62L10 62L10 62L9 61L10 61L9 61L9 61L9 60L9 60L8 60L8 60L8 60L7 60L7 59L6 59L6 59L6 60L6 60L5 60L4 60L3 59L3 59L4 58L4 58L3 59L3 59L3 58L3 58L3 58L3 58L2 58L2 58L2 57L2 57L4 57L4 57L4 57L4 57L4 56L4 56L4 56L4 56L3 56L3 55L3 55L4 55L4 55L4 55L4 54L4 55L5 55L5 55L5 55L5 54L5 54L5 54L5 54L4 54L4 54L4 54L5 53L5 53L5 53L5 53L5 53L5 53L6 52L6 53L6 52L6 52L6 52L6 52L6 52L6 52L7 51L7 51L8 51L8 51L8 51L8 51L8 50L8 49L9 49L10 48L10 48L11 47L11 48L11 48L12 47L12 47L12 47L13 47L12 46L13 46L13 46L14 46L15 45L15 45L15 45L15 45L15 45L15 45L16 45L15 44L16 44L16 44L16 44L17 43L17 43L17 43L17 43L17 43L17 43L17 43L17 43L18 42L18 42L18 43L18 42L18 42L18 42L18 42L19 42L19 42L19 42L19 41L20 41L20 41L20 41L20 42L20 42L20 41L20 41L20 40L21 40L21 39L21 39L21 39L21 39L21 39L21 38L21 37L21 37L22 36L22 36L22 36L23 36L23 35L23 35L24 34L24 33L24 32L25 31L25 30L26 29L26 29L27 29L27 29L26 30L26 30L26 30L26 30L26 31L27 31L27 31L28 32L28 32L28 33L28 33ZM31 31L30 32L30 31L31 31L31 31L31 31L31 30L31 31L31 31ZM4 54L4 54L4 54L4 54L4 54L4 54ZM3 56L3 57L3 57L3 57L3 57L3 57L3 57L2 57L3 56L3 56L3 56L3 56ZM9 63L9 63L8 63L8 64L9 64L9 64L9 64L9 64L9 64L9 64L8 65L8 65L7 65L7 65L7 65L6 65L6 65L6 65L7 65L7 64L7 64L7 64L7 64L7 63L7 63L7 62L8 62L9 63ZM1 86L1 86L1 86L1 86L1 86L0 86L0 86L0 86L0 86L0 86L1 85L1 85L1 84L1 84L1 85L2 85L1 85L1 85L1 85L1 86L1 86L1 86L1 86ZM13 97L13 97L12 97L12 97L12 97L12 97L12 97L12 97L13 97Z"/></mask><path d="M69 46L69 46L69 46L68 47L68 46L68 46L68 46L68 46L68 46L68 46L68 47L68 47L68 47L69 48L69 48L68 48L68 48L68 48L68 48L68 48L68 48L68 47L68 47L68 47L68 46L67 47L67 47L67 46L67 46L68 46L69 46ZM69 49L69 49L69 49L69 49L69 49L69 49L69 49ZM28 2L29 3L29 2L29 2L29 2L29 2L29 2L30 3L30 3L30 3L31 3L31 3L31 3L32 3L32 4L32 4L32 4L32 4L32 4L32 4L33 4L33 4L33 4L33 4L33 5L33 5L33 5L33 6L33 6L34 6L33 6L33 6L33 6L33 7L33 7L34 8L34 9L34 9L34 10L34 10L34 10L34 10L34 11L34 11L34 11L34 11L35 12L35 12L35 12L35 11L35 12L36 12L36 12L36 12L36 13L37 13L37 13L37 13L37 13L37 12L37 12L37 11L37 11L37 11L37 10L37 10L37 10L37 10L37 10L37 10L37 10L38 11L38 11L38 11L38 12L39 12L39 13L39 14L40 15L40 15L39 15L39 15L39 15L40 15L40 15L40 15L40 15L41 16L42 16L44 17L44 17L44 17L45 17L45 16L45 16L46 16L46 15L46 15L47 15L47 15L48 15L48 15L49 15L49 16L49 16L48 16L48 17L48 18L48 19L48 20L48 20L47 20L47 20L46 21L46 22L46 22L47 22L47 23L46 23L46 23L46 23L46 22L45 22L45 22L44 22L44 22L43 23L43 23L43 23L43 24L43 24L43 25L43 25L43 25L43 26L42 28L42 28L42 28L41 29L41 30L40 30L40 31L40 31L40 32L39 32L39 33L38 34L38 34L37 35L37 35L36 35L36 35L36 35L36 34L36 34L35 34L35 34L35 34L35 34V33L35 33L35 33L34 33L34 33L35 33L34 34L34 34L34 34L34 33L34 33L34 33L35 32L35 31L36 30L36 29L36 28L36 28L36 27L35 27L34 26L34 26L34 26L33 26L33 25L32 25L31 24L31 24L30 24L30 23L30 23L30 23L31 23L31 23L32 22L32 22L33 22L33 22L33 22L34 21L34 21L34 20L34 19L34 18L34 18L35 17L34 16L34 16L35 16L35 16L35 15L34 15L34 14L34 14L34 14L34 14L34 14L34 13L34 12L34 13L34 13L34 13L34 13L35 13L35 12L34 12L34 12L34 12L34 12L33 12L33 12L33 12L33 11L33 11L32 10L32 10L33 10L33 10L33 10L33 10L33 9L33 9L33 9L33 9L33 8L32 8L32 8L32 8L32 8L32 9L32 8L31 8L31 7L31 7L31 8L31 8L32 9L32 9L32 9L32 9L32 9L31 8L31 8L29 5L29 5L30 4L30 4L30 4L30 4L30 4L29 4L29 4L29 5L29 5L29 5L29 5L29 4L28 4L28 4L28 4L28 4L28 3L28 3L28 2L28 2L27 1L26 0L27 0L28 0L27 0L28 1L28 1L28 2L28 2L28 2L28 2ZM37 9L37 9L37 9L37 9L37 8L36 8L36 8L37 8L37 8L37 8L37 8L37 8L37 9ZM28 33L28 33L29 33L29 33L30 32L30 32L30 32L31 32L31 32L31 32L31 32L31 32L31 32L31 32L31 32L31 33L30 33L31 33L31 33L31 33L31 32L31 32L31 32L31 32L32 32L32 32L32 32L32 32L32 32L32 32L32 32L32 32L32 33L32 33L32 33L32 33L32 33L33 32L33 33L32 33L32 34L32 34L32 34L32 34L32 34L32 34L32 35L32 35L32 35L32 35L32 36L32 36L32 36L32 37L31 37L31 38L31 38L31 38L30 40L30 40L29 41L28 42L28 42L28 42L27 43L27 43L26 44L26 44L26 44L26 44L26 44L26 44L26 44L26 44L26 45L26 44L26 45L26 45L27 45L27 46L27 46L28 46L28 46L28 46L28 47L28 47L28 47L27 47L27 47L26 46L26 47L26 47L25 47L26 46L26 46L25 46L25 46L25 46L25 47L25 47L25 47L24 47L24 46L24 46L24 46L24 47L24 47L24 47L24 47L23 48L23 48L22 48L22 48L22 48L21 48L21 49L21 49L21 49L21 49L21 49L21 50L21 51L20 52L20 52L20 52L20 52L20 53L20 53L20 54L20 54L19 55L19 56L19 57L19 57L19 57L19 57L19 58L19 58L19 58L18 58L18 58L17 58L17 59L17 59L16 60L15 61L15 61L15 61L13 62L12 62L12 62L11 62L11 62L11 62L10 62L10 62L10 62L10 62L9 61L10 61L9 61L9 61L9 60L9 60L8 60L8 60L8 60L7 60L7 59L6 59L6 59L6 60L6 60L5 60L4 60L3 59L3 59L4 58L4 58L3 59L3 59L3 58L3 58L3 58L3 58L2 58L2 58L2 57L2 57L4 57L4 57L4 57L4 57L4 56L4 56L4 56L4 56L3 56L3 55L3 55L4 55L4 55L4 55L4 54L4 55L5 55L5 55L5 55L5 54L5 54L5 54L5 54L4 54L4 54L4 54L5 53L5 53L5 53L5 53L5 53L5 53L6 52L6 53L6 52L6 52L6 52L6 52L6 52L6 52L7 51L7 51L8 51L8 51L8 51L8 51L8 50L8 49L9 49L10 48L10 48L11 47L11 48L11 48L12 47L12 47L12 47L13 47L12 46L13 46L13 46L14 46L15 45L15 45L15 45L15 45L15 45L15 45L16 45L15 44L16 44L16 44L16 44L17 43L17 43L17 43L17 43L17 43L17 43L17 43L17 43L18 42L18 42L18 43L18 42L18 42L18 42L18 42L19 42L19 42L19 42L19 41L20 41L20 41L20 41L20 42L20 42L20 41L20 41L20 40L21 40L21 39L21 39L21 39L21 39L21 39L21 38L21 37L21 37L22 36L22 36L22 36L23 36L23 35L23 35L24 34L24 33L24 32L25 31L25 30L26 29L26 29L27 29L27 29L26 30L26 30L26 30L26 30L26 31L27 31L27 31L28 32L28 32L28 33L28 33ZM31 31L30 32L30 31L31 31L31 31L31 31L31 30L31 31L31 31ZM4 54L4 54L4 54L4 54L4 54L4 54ZM3 56L3 57L3 57L3 57L3 57L3 57L3 57L2 57L3 56L3 56L3 56L3 56ZM9 63L9 63L8 63L8 64L9 64L9 64L9 64L9 64L9 64L9 64L8 65L8 65L7 65L7 65L7 65L6 65L6 65L6 65L7 65L7 64L7 64L7 64L7 64L7 63L7 63L7 62L8 62L9 63ZM1 86L1 86L1 86L1 86L1 86L0 86L0 86L0 86L0 86L0 86L1 85L1 85L1 84L1 84L1 85L2 85L1 85L1 85L1 85L1 86L1 86L1 86L1 86ZM13 97L13 97L12 97L12 97L12 97L12 97L12 97L12 97L13 97Z" fill="var(--fill-0,#71B219)" stroke="var(--stroke-0,white)" mask="url(#path-1-inside-1_0_133)"/></g></svg>