<svg preserveAspectRatio="none" width="100%" height="100%" overflow="visible" style="display: block;" viewBox="0 0 69.4491 97.0892" fill="none" xmlns="http://www.w3.org/2000/svg">
<g id="NZ">
<mask id="path-1-inside-1_0_133" fill="white">
<path d="M69.2359 46.1113L69.0969 46.2498L68.8603 46.243L68.4462 46.7848L68.4724 46.3802L68.3485 46.2224L67.9936 46.2595L67.9262 46.3486L68.1642 46.4556L68.2165 46.5145L67.9895 46.7491L68.2261 47.2525L68.4324 47.2347L68.6333 47.6284L68.6319 47.7518L68.1725 47.904L67.9303 48.1167L67.7144 48.1084L67.6126 48.0673L67.4915 47.6873L67.4819 47.5282L67.7473 47.2498L67.8973 46.9659L67.7762 46.7053L67.4695 46.5365L66.8009 46.6133L66.6468 46.5571L66.9811 46.206L67.3443 46.2444L67.735 45.992L69.2359 46.1113ZM69.24 49.214L69.0694 49.2606L69.0942 48.9547L69.0364 48.7572L69.3253 48.6928L69.4491 48.9274L69.24 49.214ZM28.4933 2.35788L28.5511 2.57187L28.7644 2.41967L28.9239 2.17964L29.1812 1.93543L29.1468 2.32908L29.2788 2.41557L30.1317 2.68983L30.3079 2.91889L30.4894 2.98478L30.5913 2.85585L30.7123 2.78586L31.0205 2.92994L31.7166 3.33046L31.7744 3.46893L31.7386 3.67471L31.773 3.8928L31.8679 4.06702L32.0991 4.10679L32.4072 3.84893L32.5516 3.81737L32.7553 4.18365L32.8322 4.39077L32.8006 4.3839L32.9341 4.5896L33.1102 4.79262L33.4142 5.39482L33.3688 5.60604L33.2794 5.79667L33.5586 6.35492L33.3757 6.39335L32.8268 6.29874L32.8447 6.41118L33.1652 6.82132L33.4348 7.4015L33.6508 7.75128L34.4129 8.83905L34.2988 9.22584L34.3167 9.48235L34.2189 9.70321L34.479 10.282L34.3167 10.4617L34.2094 11.0556L34.0911 11.1599L34.1062 11.3766L34.4143 11.4342L34.6001 11.5261L34.7596 11.7031L34.8587 11.4905L34.9935 11.4329L35.3608 11.7168L36.1257 12.0007L36.3361 12.1064L36.4393 12.3354L36.5178 12.8896L36.6663 13.1337L36.9593 13.1803L37.2744 13.1062L37.3734 12.9047L37.3101 12.3615L37.0832 11.4946L37.0818 11.2134L37.1134 10.9308L37.0612 10.651L36.947 10.3876L36.8246 10.186L36.6677 10.0159L36.7227 9.75118L36.958 9.63188L37.1011 9.85541L37.2179 10.1257L37.8109 10.9267L38.1617 10.8705L38.1934 11.2024L38.4313 11.5399L38.5634 11.9363L38.7367 13.1227L39.0022 14.2434L39.4838 14.7318L39.5402 14.9663L39.2471 14.8455L39.1577 14.9155L39.1879 15.0335L39.459 15.2488L39.7781 15.3545L39.979 15.3394L40.1675 15.4176L41.4152 16.15L42.015 16.4353L43.5283 16.903L43.9602 16.9401L44.1996 16.9277L44.6523 16.7659L45.0581 16.4751L45.4089 16.0403L45.7115 15.5451L46.0403 15.3051L46.4131 15.1158L46.6016 14.9402L46.7997 14.8154L47.8136 14.873L48.1561 15.1226L48.6005 15.3229L48.833 15.4793L48.7546 15.7975L48.4891 16.2666L48.2855 16.781L48.1038 17.9524L47.9814 19.1403L47.797 19.6656L47.4614 20.0702L47.09 20.3665L46.6704 20.5064L46.4998 21.1854L46.4159 21.9823L46.4406 22.1826L46.5754 22.3417L46.6305 22.579L46.4103 23.0591L46.2825 22.9891L46.1008 22.5886L45.9371 22.4212L45.4336 22.2964L44.9204 22.2388L44.4761 22.2745L44.047 22.4459L43.399 22.793L43.1981 22.9685L43.0221 23.1921L42.7249 23.6914L42.6534 24.3032L42.6671 24.6242L42.773 24.8724L43.3247 25.2112L42.7771 26.3963L42.2916 27.6336L42.0164 27.9874L41.7 28.3153L41.4014 29.0629L40.8801 29.7075L40.5279 30.2013L40.2528 30.7144L40.012 31.2603L39.4989 32.0325L39.2719 32.5441L38.9748 32.9708L38.4217 33.5153L37.8329 33.983L36.9057 34.6304L36.6471 34.8444L36.3747 35.0022L36.0363 34.817L35.9689 34.6154L35.8877 34.1723L35.8134 34.0105L35.3828 33.876L34.8119 34.09L34.7169 34.0447L34.6922 33.9433V33.3L34.7885 33.1189L34.6551 33.0187L34.523 33.0585L34.4776 33.2231L34.5615 33.3658L34.2368 33.5428L33.8984 33.5469L33.7966 33.4769L33.7677 33.3589L33.8502 33.1642L33.959 32.9927L34.5876 32.1834L35.2411 31.1121L35.8038 29.9682L35.9496 29.3811L36.1559 28.2947L35.9868 27.8421L35.7776 27.4182L35.2123 26.6035L34.457 26.1439L33.9686 26.0795L33.5063 25.908L33.0716 25.5199L32.6754 25.0631L31.8899 24.6886L31.0617 24.3951L30.5899 23.9809L30.4771 23.7353L30.4028 23.45L30.4138 23.1853L30.473 22.9165L30.5665 22.7107L30.7137 22.5611L31.59 22.0276L32.5186 21.7313L32.6892 21.7368L32.8529 21.6888L33.0854 21.5077L33.5009 21.0935L33.6219 20.8151L33.7045 19.9317L33.8379 19.0648L34.0786 18.0731L34.4419 17.4599L34.5602 17.0841L34.4129 16.4655L34.5491 16.2392L34.7143 16.102L34.9013 16.0225L34.5849 15.4436L34.2121 14.5698L34.1337 14.2997L34.1901 14.0322L34.2809 13.7701L34.0484 13.7043L33.9136 13.4534L33.5793 12.6097L33.6701 12.4753L33.864 12.5658L34.1515 13.1735L34.1984 12.8608L34.4184 12.6674L34.6523 12.5673L34.9027 12.5452L34.3359 11.8677L34.1461 11.8951L33.8957 12.0035L33.6384 12.0693L33.3867 12.0104L33.1514 11.8608L33.0304 11.5755L32.8831 11.0282L32.791 10.8266L32.0454 9.71141L32.2641 9.67575L32.8667 10.234L32.9836 10.0557L33.0703 9.79923L33.0414 9.51392L32.8983 9.29717L32.6851 9.15727L32.6809 8.90352L32.8432 8.6717L32.8337 8.50987L32.4883 8.17926L32.3508 8.14359L32.2889 8.29722L32.3879 8.52627L32.2957 8.5524L31.458 7.95154L31.1993 7.46873L30.9874 6.93928L30.9654 7.15461L30.9971 7.45776L31.3287 8.0654L31.8666 8.74579L31.9587 8.92679L31.8789 9.16137L31.6918 9.2286L31.5268 9.08042L31.2805 8.49748L31.1031 8.20672L29.0463 5.21097L29.3091 4.81732L29.7163 4.48537L29.8099 4.33861L29.8718 4.15895L29.6998 4.12873L29.5458 4.21102L29.3697 4.36331L29.2087 4.53611L29.0051 4.92155L28.9088 5.01071L28.6681 4.74323L28.5759 4.57864L28.58 4.38114L28.5153 4.25631L28.3365 4.21655L28.0737 3.82424L27.9073 3.62398L28.1852 3.2413L28.1921 2.73789L27.9087 2.21112L27.5702 1.72697L26.9181 0.946452L26.3197 0.122147L26.9677 0.0178323L27.6253 0L27.3157 0.493863L27.4561 0.779096L27.6652 1.02054L28.1164 1.76121L28.1549 1.9752L28.3832 2.19195L28.4933 2.35788ZM37.2703 8.69639L37.3005 8.95559L37.0048 8.86375L36.8892 8.66759L36.5576 8.46457L36.5095 8.40421L36.4723 8.01056L36.6471 7.81993L36.6759 7.73897L36.753 7.70741L36.8892 7.91453L37.1519 8.20948L37.2703 8.69639ZM27.8977 33.3041L28.342 33.3288L28.7561 32.9556L29.1798 32.6525L29.6242 32.4015L30.301 31.8267L30.4784 31.7417L30.9173 31.632L31.1085 31.4962L31.3218 31.4647L31.1292 31.8048L30.887 31.9187L30.8486 32.0407L30.9848 32.2382L30.7743 32.514L30.7825 32.8583L30.5321 33.2656L30.9146 33.0983L31.0562 32.8336L30.9833 32.684L31.1484 32.3878L31.4057 32.2465L31.3039 32.0229L31.3108 31.846L31.6257 31.9118L31.7813 31.9049L31.905 31.835L32.1321 31.8076L32.1774 32.0051L32.4829 31.9804L32.3714 32.23L32.1389 32.5194L32.0839 32.695L31.7111 32.9872L31.4621 33.112L31.8459 33.1436L32.4072 32.7526L32.7401 32.4083L32.7305 32.8391L32.4594 33.2259L32.2284 33.47L31.967 33.5469L31.7069 33.7458L31.5804 34.0709L31.5955 34.2875L31.6698 34.459L31.9353 34.7484L31.6368 35.3081L31.9697 35.2381L32.1513 35.3437L32.4072 35.6661L32.2531 36.0392L32.1458 36.2298L31.4964 37.0185L31.2131 37.4191L30.8816 37.6756L30.8857 38.0967L30.6958 38.4039L29.7274 39.4587L29.5581 39.6878L28.7946 41.3736L28.3076 42.0841L28.0283 42.3269L27.7326 42.523L27.0241 42.8591L26.7104 43.2459L26.3651 43.5669L26.0006 43.6395L26.0116 43.7822L26.2455 43.8618L26.4284 44.073L26.2922 44.3103L26.0322 44.4585L25.7626 44.5009L25.625 44.6532L26.2688 44.5449L26.4504 44.6683L26.4834 44.9303L26.5522 45.1662L26.7077 45.4789L27.2497 45.6792L27.7367 45.7725L27.8316 45.9179L27.9046 46.4185L27.8165 46.6641L27.7078 46.8259L27.5441 46.8835L27.1479 46.9151L26.7504 46.8012L26.4876 46.4981L25.7351 46.5955L25.5342 46.66L25.431 46.6051L25.8479 46.2868L25.6305 46.1058L25.4489 46.0386L25.2522 46.1442L25.1202 46.3115L25.0816 46.5859L24.9454 46.745L24.7391 46.7902L24.446 46.5612L24.1557 46.2348L23.7293 45.9056L23.7954 46.1086L24.1227 46.6065L24.2865 46.937L23.9054 47.2018L23.5064 47.4075L23.1707 47.5282L22.8544 47.7175L22.4816 48.0124L22.2766 48.1167L21.7318 48.1236L21.4401 48.2168L21.3438 48.6064L21.1403 48.8546L20.6615 48.904L20.8348 48.9822L20.9408 49.107L20.6244 50.2839L20.5555 50.7735L20.4964 51.613L20.2969 52.3949L19.7288 52.3908L19.8196 52.5293L20.2502 52.7502L20.1691 53.0835L19.6957 53.6939L19.4977 54.0464L19.305 54.905L19.0162 55.6992L18.5745 56.6045L18.5704 56.7678L18.7259 56.9995L18.9144 57.1999L18.9254 57.4824L18.8676 57.6319L18.6572 57.6703L18.4728 57.7677L17.4878 58.0173L17.1659 58.2972L16.9004 58.7992L16.5894 59.2327L15.555 60.1955L14.9469 61.0049L14.8245 61.2367L14.6607 61.4054L13.3305 61.7894L12.3895 61.8471L11.8777 61.7483L11.3838 61.5535L11.1101 61.4877L10.5873 61.607L10.3589 61.7373L9.94901 61.6084L9.62431 61.7058L9.528 61.6111L9.40692 61.3738L9.47435 61.0583L9.38492 60.8251L9.17862 60.6674L9.03966 60.4836L8.88147 60.3533L8.44946 60.3025L7.76716 60.3848L7.54154 60.3766L7.07788 59.6044L6.92524 59.4151L6.37358 59.1695L6.18508 59.2039L5.88935 59.6154L5.71462 59.6853L4.67731 59.7292L3.63731 59.5961L3.25484 59.4425L3.17919 59.0873L3.96889 58.112L3.73496 58.2423L3.24796 58.6387L2.93712 58.5783L3.23562 58.1462L3.26173 57.9528L3.19985 57.7389L2.79404 58.1024L2.33181 58.1504L2.27261 57.813L2.31393 57.4221L2.40746 57.311L3.65519 57.1065L4.10508 56.9735L4.30173 56.7636L3.55477 56.6923L3.508 56.3988L3.61531 56.1643L4.25362 55.7747L3.78316 55.8734L3.26173 55.8392L3.29616 55.4276L3.43235 55.1067L3.97846 55.0971L3.80793 54.8762L3.78173 54.569L3.93312 54.5484L4.48746 54.9626L4.88781 55.1135L4.71862 54.8021L4.74196 54.606L4.84792 54.5182L5.17531 54.4565L5.08454 54.4016L4.77773 54.3221L4.41181 54.0862L4.37327 53.8365L4.38704 53.5484L4.7805 53.152L5.013 53.3879L5.28816 53.3235L5.07765 53.1384L4.94969 52.8613L5.03643 52.6788L5.87147 51.9449L6.08466 52.6514L6.13419 52.4169L6.14654 52.1946L6.04611 52.0012L6.06131 51.8065L6.15754 51.6391L6.51523 51.4731L6.98023 50.9355L7.32416 50.6858L7.60343 50.8463L7.79462 51.0616L7.76573 50.8476L7.62954 50.6707L7.59243 50.1783L8.21696 49.4156L8.90347 48.6914L9.56243 47.9343L9.91324 47.6599L10.6602 47.3486L11.139 47.4788L11.2614 47.4541L11.9712 46.911L12.2656 46.7697L12.5339 46.9631L12.699 47.033L12.5325 46.5365L12.6632 46.3088L13.2562 45.9082L13.999 45.4954L14.5631 45.324L14.9785 45.0442L15.2289 45.0373L15.1917 44.826L15.2344 44.6244L15.449 44.6381L15.515 44.5586L15.3252 44.4488L15.9374 44.0456L16.2703 43.5998L16.4437 43.5078L16.6019 43.3735L16.7972 43.0662L17.0283 42.9647L17.2429 43.0127L17.3984 43.1636L17.313 42.9126L17.038 42.7699L17.3337 42.5532L17.6405 42.4023L17.939 42.5107L18.232 42.6862L17.939 42.4174L17.8909 42.2515L18.2472 42.0594L18.4398 42.0004L18.7094 42.3598L18.6709 42.0745L18.7342 41.8221L19.1152 41.4092L19.6146 40.7288L19.7742 40.9662L19.8004 41.2528L19.7756 41.5999L19.8787 41.4806L19.9131 41.1664L19.8361 40.6136L20.4607 39.5945L20.5844 39.4807L20.7221 39.4121L20.9394 39.3846L20.872 39.231L20.7028 39.0829L20.8734 38.5671L20.9752 37.9787L21.1196 37.4135L21.3521 36.8622L21.6066 35.9432L21.8006 35.7511L22.3247 35.6852L22.5544 35.5563L22.9369 35.2258L23.3895 34.6277L23.6316 34.1463L23.9494 32.9049L24.1283 31.6114L24.6427 30.6553L25.398 29.9654L26.0625 29.4415L26.3349 29.3317L26.7944 29.2988L27.2318 29.4428L26.4174 29.569L26.3335 29.8803L26.3074 30.1959L26.4009 30.4784L26.5467 30.7308L26.9416 30.9681L27.4038 31.1094L27.6102 31.6443L27.6473 32.2794L27.7106 32.8254L27.8977 33.3041ZM30.9833 31.1903L30.4661 31.4853L30.4881 31.2808L30.5885 30.8351L30.8238 30.6101L30.9393 30.595L31.1759 30.4263L31.1498 30.7994L30.9833 31.1903ZM4.20685 53.8488L4.37327 54.5032L4.01977 54.3783L3.87258 54.1794L4.14219 53.8516L4.20685 53.8488ZM3.30716 56.4523L3.2865 56.7225L3.24107 56.8583L3.10631 56.8596L2.90546 56.8295L2.70873 56.7047L2.58211 56.7403L2.47757 56.695L2.61377 56.3906L3.07188 56.2287L3.24796 56.359L3.30716 56.4523ZM8.70673 63.1474L8.70951 63.3709L8.30639 63.2914L8.3147 63.5424L8.63242 63.6754L8.74939 63.8565L9.07954 63.8044L9.15385 64.0746L9.07677 64.3174L8.8567 64.4944L8.20462 64.5835L7.78093 64.936L7.41492 64.8825L7.31593 64.9141L6.89635 65.2926L6.42724 65.4093L6.29927 65.3805L6.36392 65.043L6.71339 64.7234L6.72027 64.4162L6.80961 64.1706L7.14397 63.9978L7.14942 63.6796L7.37504 63.3956L7.2375 62.7852L7.31039 62.238L7.97346 62.2078L8.70673 63.1474ZM1.27938 85.891L1.36327 86.4026L1.15142 86.4039L0.709846 86.2613L0.570882 86.0432L0.477345 85.9897L0.316383 86.2434L0.0577684 86.2558L0 86.1708L0.101766 85.9005L0.711189 85.3903L0.825382 84.7497L0.817154 84.544L1.29584 84.496L1.40869 84.5741L1.45957 84.662L1.42935 84.7744L1.23539 84.9856L1.2285 85.2298L1.27796 85.4849L1.11977 85.6084L1.2023 85.8279L1.27938 85.891ZM12.6963 96.6284L12.9095 96.9493L12.4995 97.0893L12.3 96.9726L12.1597 96.8259L12.0895 96.6187L12.311 96.6407L12.5022 96.5543L12.6963 96.6284Z"/>
</mask>
<path d="M69.2359 46.1113L69.0969 46.2498L68.8603 46.243L68.4462 46.7848L68.4724 46.3802L68.3485 46.2224L67.9936 46.2595L67.9262 46.3486L68.1642 46.4556L68.2165 46.5145L67.9895 46.7491L68.2261 47.2525L68.4324 47.2347L68.6333 47.6284L68.6319 47.7518L68.1725 47.904L67.9303 48.1167L67.7144 48.1084L67.6126 48.0673L67.4915 47.6873L67.4819 47.5282L67.7473 47.2498L67.8973 46.9659L67.7762 46.7053L67.4695 46.5365L66.8009 46.6133L66.6468 46.5571L66.9811 46.206L67.3443 46.2444L67.735 45.992L69.2359 46.1113ZM69.24 49.214L69.0694 49.2606L69.0942 48.9547L69.0364 48.7572L69.3253 48.6928L69.4491 48.9274L69.24 49.214ZM28.4933 2.35788L28.5511 2.57187L28.7644 2.41967L28.9239 2.17964L29.1812 1.93543L29.1468 2.32908L29.2788 2.41557L30.1317 2.68983L30.3079 2.91889L30.4894 2.98478L30.5913 2.85585L30.7123 2.78586L31.0205 2.92994L31.7166 3.33046L31.7744 3.46893L31.7386 3.67471L31.773 3.8928L31.8679 4.06702L32.0991 4.10679L32.4072 3.84893L32.5516 3.81737L32.7553 4.18365L32.8322 4.39077L32.8006 4.3839L32.9341 4.5896L33.1102 4.79262L33.4142 5.39482L33.3688 5.60604L33.2794 5.79667L33.5586 6.35492L33.3757 6.39335L32.8268 6.29874L32.8447 6.41118L33.1652 6.82132L33.4348 7.4015L33.6508 7.75128L34.4129 8.83905L34.2988 9.22584L34.3167 9.48235L34.2189 9.70321L34.479 10.282L34.3167 10.4617L34.2094 11.0556L34.0911 11.1599L34.1062 11.3766L34.4143 11.4342L34.6001 11.5261L34.7596 11.7031L34.8587 11.4905L34.9935 11.4329L35.3608 11.7168L36.1257 12.0007L36.3361 12.1064L36.4393 12.3354L36.5178 12.8896L36.6663 13.1337L36.9593 13.1803L37.2744 13.1062L37.3734 12.9047L37.3101 12.3615L37.0832 11.4946L37.0818 11.2134L37.1134 10.9308L37.0612 10.651L36.947 10.3876L36.8246 10.186L36.6677 10.0159L36.7227 9.75118L36.958 9.63188L37.1011 9.85541L37.2179 10.1257L37.8109 10.9267L38.1617 10.8705L38.1934 11.2024L38.4313 11.5399L38.5634 11.9363L38.7367 13.1227L39.0022 14.2434L39.4838 14.7318L39.5402 14.9663L39.2471 14.8455L39.1577 14.9155L39.1879 15.0335L39.459 15.2488L39.7781 15.3545L39.979 15.3394L40.1675 15.4176L41.4152 16.15L42.015 16.4353L43.5283 16.903L43.9602 16.9401L44.1996 16.9277L44.6523 16.7659L45.0581 16.4751L45.4089 16.0403L45.7115 15.5451L46.0403 15.3051L46.4131 15.1158L46.6016 14.9402L46.7997 14.8154L47.8136 14.873L48.1561 15.1226L48.6005 15.3229L48.833 15.4793L48.7546 15.7975L48.4891 16.2666L48.2855 16.781L48.1038 17.9524L47.9814 19.1403L47.797 19.6656L47.4614 20.0702L47.09 20.3665L46.6704 20.5064L46.4998 21.1854L46.4159 21.9823L46.4406 22.1826L46.5754 22.3417L46.6305 22.579L46.4103 23.0591L46.2825 22.9891L46.1008 22.5886L45.9371 22.4212L45.4336 22.2964L44.9204 22.2388L44.4761 22.2745L44.047 22.4459L43.399 22.793L43.1981 22.9685L43.0221 23.1921L42.7249 23.6914L42.6534 24.3032L42.6671 24.6242L42.773 24.8724L43.3247 25.2112L42.7771 26.3963L42.2916 27.6336L42.0164 27.9874L41.7 28.3153L41.4014 29.0629L40.8801 29.7075L40.5279 30.2013L40.2528 30.7144L40.012 31.2603L39.4989 32.0325L39.2719 32.5441L38.9748 32.9708L38.4217 33.5153L37.8329 33.983L36.9057 34.6304L36.6471 34.8444L36.3747 35.0022L36.0363 34.817L35.9689 34.6154L35.8877 34.1723L35.8134 34.0105L35.3828 33.876L34.8119 34.09L34.7169 34.0447L34.6922 33.9433V33.3L34.7885 33.1189L34.6551 33.0187L34.523 33.0585L34.4776 33.2231L34.5615 33.3658L34.2368 33.5428L33.8984 33.5469L33.7966 33.4769L33.7677 33.3589L33.8502 33.1642L33.959 32.9927L34.5876 32.1834L35.2411 31.1121L35.8038 29.9682L35.9496 29.3811L36.1559 28.2947L35.9868 27.8421L35.7776 27.4182L35.2123 26.6035L34.457 26.1439L33.9686 26.0795L33.5063 25.908L33.0716 25.5199L32.6754 25.0631L31.8899 24.6886L31.0617 24.3951L30.5899 23.9809L30.4771 23.7353L30.4028 23.45L30.4138 23.1853L30.473 22.9165L30.5665 22.7107L30.7137 22.5611L31.59 22.0276L32.5186 21.7313L32.6892 21.7368L32.8529 21.6888L33.0854 21.5077L33.5009 21.0935L33.6219 20.8151L33.7045 19.9317L33.8379 19.0648L34.0786 18.0731L34.4419 17.4599L34.5602 17.0841L34.4129 16.4655L34.5491 16.2392L34.7143 16.102L34.9013 16.0225L34.5849 15.4436L34.2121 14.5698L34.1337 14.2997L34.1901 14.0322L34.2809 13.7701L34.0484 13.7043L33.9136 13.4534L33.5793 12.6097L33.6701 12.4753L33.864 12.5658L34.1515 13.1735L34.1984 12.8608L34.4184 12.6674L34.6523 12.5673L34.9027 12.5452L34.3359 11.8677L34.1461 11.8951L33.8957 12.0035L33.6384 12.0693L33.3867 12.0104L33.1514 11.8608L33.0304 11.5755L32.8831 11.0282L32.791 10.8266L32.0454 9.71141L32.2641 9.67575L32.8667 10.234L32.9836 10.0557L33.0703 9.79923L33.0414 9.51392L32.8983 9.29717L32.6851 9.15727L32.6809 8.90352L32.8432 8.6717L32.8337 8.50987L32.4883 8.17926L32.3508 8.14359L32.2889 8.29722L32.3879 8.52627L32.2957 8.5524L31.458 7.95154L31.1993 7.46873L30.9874 6.93928L30.9654 7.15461L30.9971 7.45776L31.3287 8.0654L31.8666 8.74579L31.9587 8.92679L31.8789 9.16137L31.6918 9.2286L31.5268 9.08042L31.2805 8.49748L31.1031 8.20672L29.0463 5.21097L29.3091 4.81732L29.7163 4.48537L29.8099 4.33861L29.8718 4.15895L29.6998 4.12873L29.5458 4.21102L29.3697 4.36331L29.2087 4.53611L29.0051 4.92155L28.9088 5.01071L28.6681 4.74323L28.5759 4.57864L28.58 4.38114L28.5153 4.25631L28.3365 4.21655L28.0737 3.82424L27.9073 3.62398L28.1852 3.2413L28.1921 2.73789L27.9087 2.21112L27.5702 1.72697L26.9181 0.946452L26.3197 0.122147L26.9677 0.0178323L27.6253 0L27.3157 0.493863L27.4561 0.779096L27.6652 1.02054L28.1164 1.76121L28.1549 1.9752L28.3832 2.19195L28.4933 2.35788ZM37.2703 8.69639L37.3005 8.95559L37.0048 8.86375L36.8892 8.66759L36.5576 8.46457L36.5095 8.40421L36.4723 8.01056L36.6471 7.81993L36.6759 7.73897L36.753 7.70741L36.8892 7.91453L37.1519 8.20948L37.2703 8.69639ZM27.8977 33.3041L28.342 33.3288L28.7561 32.9556L29.1798 32.6525L29.6242 32.4015L30.301 31.8267L30.4784 31.7417L30.9173 31.632L31.1085 31.4962L31.3218 31.4647L31.1292 31.8048L30.887 31.9187L30.8486 32.0407L30.9848 32.2382L30.7743 32.514L30.7825 32.8583L30.5321 33.2656L30.9146 33.0983L31.0562 32.8336L30.9833 32.684L31.1484 32.3878L31.4057 32.2465L31.3039 32.0229L31.3108 31.846L31.6257 31.9118L31.7813 31.9049L31.905 31.835L32.1321 31.8076L32.1774 32.0051L32.4829 31.9804L32.3714 32.23L32.1389 32.5194L32.0839 32.695L31.7111 32.9872L31.4621 33.112L31.8459 33.1436L32.4072 32.7526L32.7401 32.4083L32.7305 32.8391L32.4594 33.2259L32.2284 33.47L31.967 33.5469L31.7069 33.7458L31.5804 34.0709L31.5955 34.2875L31.6698 34.459L31.9353 34.7484L31.6368 35.3081L31.9697 35.2381L32.1513 35.3437L32.4072 35.6661L32.2531 36.0392L32.1458 36.2298L31.4964 37.0185L31.2131 37.4191L30.8816 37.6756L30.8857 38.0967L30.6958 38.4039L29.7274 39.4587L29.5581 39.6878L28.7946 41.3736L28.3076 42.0841L28.0283 42.3269L27.7326 42.523L27.0241 42.8591L26.7104 43.2459L26.3651 43.5669L26.0006 43.6395L26.0116 43.7822L26.2455 43.8618L26.4284 44.073L26.2922 44.3103L26.0322 44.4585L25.7626 44.5009L25.625 44.6532L26.2688 44.5449L26.4504 44.6683L26.4834 44.9303L26.5522 45.1662L26.7077 45.4789L27.2497 45.6792L27.7367 45.7725L27.8316 45.9179L27.9046 46.4185L27.8165 46.6641L27.7078 46.8259L27.5441 46.8835L27.1479 46.9151L26.7504 46.8012L26.4876 46.4981L25.7351 46.5955L25.5342 46.66L25.431 46.6051L25.8479 46.2868L25.6305 46.1058L25.4489 46.0386L25.2522 46.1442L25.1202 46.3115L25.0816 46.5859L24.9454 46.745L24.7391 46.7902L24.446 46.5612L24.1557 46.2348L23.7293 45.9056L23.7954 46.1086L24.1227 46.6065L24.2865 46.937L23.9054 47.2018L23.5064 47.4075L23.1707 47.5282L22.8544 47.7175L22.4816 48.0124L22.2766 48.1167L21.7318 48.1236L21.4401 48.2168L21.3438 48.6064L21.1403 48.8546L20.6615 48.904L20.8348 48.9822L20.9408 49.107L20.6244 50.2839L20.5555 50.7735L20.4964 51.613L20.2969 52.3949L19.7288 52.3908L19.8196 52.5293L20.2502 52.7502L20.1691 53.0835L19.6957 53.6939L19.4977 54.0464L19.305 54.905L19.0162 55.6992L18.5745 56.6045L18.5704 56.7678L18.7259 56.9995L18.9144 57.1999L18.9254 57.4824L18.8676 57.6319L18.6572 57.6703L18.4728 57.7677L17.4878 58.0173L17.1659 58.2972L16.9004 58.7992L16.5894 59.2327L15.555 60.1955L14.9469 61.0049L14.8245 61.2367L14.6607 61.4054L13.3305 61.7894L12.3895 61.8471L11.8777 61.7483L11.3838 61.5535L11.1101 61.4877L10.5873 61.607L10.3589 61.7373L9.94901 61.6084L9.62431 61.7058L9.528 61.6111L9.40692 61.3738L9.47435 61.0583L9.38492 60.8251L9.17862 60.6674L9.03966 60.4836L8.88147 60.3533L8.44946 60.3025L7.76716 60.3848L7.54154 60.3766L7.07788 59.6044L6.92524 59.4151L6.37358 59.1695L6.18508 59.2039L5.88935 59.6154L5.71462 59.6853L4.67731 59.7292L3.63731 59.5961L3.25484 59.4425L3.17919 59.0873L3.96889 58.112L3.73496 58.2423L3.24796 58.6387L2.93712 58.5783L3.23562 58.1462L3.26173 57.9528L3.19985 57.7389L2.79404 58.1024L2.33181 58.1504L2.27261 57.813L2.31393 57.4221L2.40746 57.311L3.65519 57.1065L4.10508 56.9735L4.30173 56.7636L3.55477 56.6923L3.508 56.3988L3.61531 56.1643L4.25362 55.7747L3.78316 55.8734L3.26173 55.8392L3.29616 55.4276L3.43235 55.1067L3.97846 55.0971L3.80793 54.8762L3.78173 54.569L3.93312 54.5484L4.48746 54.9626L4.88781 55.1135L4.71862 54.8021L4.74196 54.606L4.84792 54.5182L5.17531 54.4565L5.08454 54.4016L4.77773 54.3221L4.41181 54.0862L4.37327 53.8365L4.38704 53.5484L4.7805 53.152L5.013 53.3879L5.28816 53.3235L5.07765 53.1384L4.94969 52.8613L5.03643 52.6788L5.87147 51.9449L6.08466 52.6514L6.13419 52.4169L6.14654 52.1946L6.04611 52.0012L6.06131 51.8065L6.15754 51.6391L6.51523 51.4731L6.98023 50.9355L7.32416 50.6858L7.60343 50.8463L7.79462 51.0616L7.76573 50.8476L7.62954 50.6707L7.59243 50.1783L8.21696 49.4156L8.90347 48.6914L9.56243 47.9343L9.91324 47.6599L10.6602 47.3486L11.139 47.4788L11.2614 47.4541L11.9712 46.911L12.2656 46.7697L12.5339 46.9631L12.699 47.033L12.5325 46.5365L12.6632 46.3088L13.2562 45.9082L13.999 45.4954L14.5631 45.324L14.9785 45.0442L15.2289 45.0373L15.1917 44.826L15.2344 44.6244L15.449 44.6381L15.515 44.5586L15.3252 44.4488L15.9374 44.0456L16.2703 43.5998L16.4437 43.5078L16.6019 43.3735L16.7972 43.0662L17.0283 42.9647L17.2429 43.0127L17.3984 43.1636L17.313 42.9126L17.038 42.7699L17.3337 42.5532L17.6405 42.4023L17.939 42.5107L18.232 42.6862L17.939 42.4174L17.8909 42.2515L18.2472 42.0594L18.4398 42.0004L18.7094 42.3598L18.6709 42.0745L18.7342 41.8221L19.1152 41.4092L19.6146 40.7288L19.7742 40.9662L19.8004 41.2528L19.7756 41.5999L19.8787 41.4806L19.9131 41.1664L19.8361 40.6136L20.4607 39.5945L20.5844 39.4807L20.7221 39.4121L20.9394 39.3846L20.872 39.231L20.7028 39.0829L20.8734 38.5671L20.9752 37.9787L21.1196 37.4135L21.3521 36.8622L21.6066 35.9432L21.8006 35.7511L22.3247 35.6852L22.5544 35.5563L22.9369 35.2258L23.3895 34.6277L23.6316 34.1463L23.9494 32.9049L24.1283 31.6114L24.6427 30.6553L25.398 29.9654L26.0625 29.4415L26.3349 29.3317L26.7944 29.2988L27.2318 29.4428L26.4174 29.569L26.3335 29.8803L26.3074 30.1959L26.4009 30.4784L26.5467 30.7308L26.9416 30.9681L27.4038 31.1094L27.6102 31.6443L27.6473 32.2794L27.7106 32.8254L27.8977 33.3041ZM30.9833 31.1903L30.4661 31.4853L30.4881 31.2808L30.5885 30.8351L30.8238 30.6101L30.9393 30.595L31.1759 30.4263L31.1498 30.7994L30.9833 31.1903ZM4.20685 53.8488L4.37327 54.5032L4.01977 54.3783L3.87258 54.1794L4.14219 53.8516L4.20685 53.8488ZM3.30716 56.4523L3.2865 56.7225L3.24107 56.8583L3.10631 56.8596L2.90546 56.8295L2.70873 56.7047L2.58211 56.7403L2.47757 56.695L2.61377 56.3906L3.07188 56.2287L3.24796 56.359L3.30716 56.4523ZM8.70673 63.1474L8.70951 63.3709L8.30639 63.2914L8.3147 63.5424L8.63242 63.6754L8.74939 63.8565L9.07954 63.8044L9.15385 64.0746L9.07677 64.3174L8.8567 64.4944L8.20462 64.5835L7.78093 64.936L7.41492 64.8825L7.31593 64.9141L6.89635 65.2926L6.42724 65.4093L6.29927 65.3805L6.36392 65.043L6.71339 64.7234L6.72027 64.4162L6.80961 64.1706L7.14397 63.9978L7.14942 63.6796L7.37504 63.3956L7.2375 62.7852L7.31039 62.238L7.97346 62.2078L8.70673 63.1474ZM1.27938 85.891L1.36327 86.4026L1.15142 86.4039L0.709846 86.2613L0.570882 86.0432L0.477345 85.9897L0.316383 86.2434L0.0577684 86.2558L0 86.1708L0.101766 85.9005L0.711189 85.3903L0.825382 84.7497L0.817154 84.544L1.29584 84.496L1.40869 84.5741L1.45957 84.662L1.42935 84.7744L1.23539 84.9856L1.2285 85.2298L1.27796 85.4849L1.11977 85.6084L1.2023 85.8279L1.27938 85.891ZM12.6963 96.6284L12.9095 96.9493L12.4995 97.0893L12.3 96.9726L12.1597 96.8259L12.0895 96.6187L12.311 96.6407L12.5022 96.5543L12.6963 96.6284Z" fill="var(--fill-0, #71B219)" stroke="var(--stroke-0, white)" mask="url(#path-1-inside-1_0_133)"/>
</g>
</svg>
