<svg preserveAspectRatio="none" width="100%" height="100%" overflow="visible" style="display: block;" viewBox="0 0 30.3491 39.9964" fill="none" xmlns="http://www.w3.org/2000/svg">
<g id="OM">
<mask id="path-1-inside-1_0_81" fill="white">
<path d="M16.6789 3.00667L16.6032 3.10404L16.4918 3.11366L16.2359 3.02999L16.086 2.83659L16.1149 2.60067L16.1231 2.16445L16.1961 1.75297L16.1754 1.31679L15.9773 1.22901L15.8384 1.25366L16.1616 0.637819L16.2896 0.543174L16.4092 0.582941L16.7078 0.517095L16.8646 0.182425L16.9898 0L17.1233 0.0219346L17.1879 0.124784L17.1412 0.633675L17.1356 1.05755L16.9706 2.3524L16.7999 2.57597L16.7133 2.75702L16.6789 3.00667ZM16.6156 4.7665L16.456 4.88036L16.3419 4.86115L16.3652 4.63485L16.434 4.47708L16.5991 4.48943L16.639 4.58408L16.6156 4.7665ZM4.27704 39.9964L4.0432 39.4697L3.80927 38.9429L3.57408 38.4162L3.34015 37.8881L3.1765 37.5178L2.90135 37.3875L2.7335 36.9965L2.56288 36.596L2.39235 36.1955L2.22173 35.7949L2.0512 35.3944L1.87924 34.9925L1.70862 34.5906L1.538 34.1887L1.36746 33.7868L1.1955 33.3849L1.02488 32.983L0.854267 32.5798L0.683732 32.1765L0.513114 31.7732L0.341152 31.37L0.170618 30.9667L0 30.5634L0.544769 30.3727L1.20785 30.141L1.87235 29.9091L2.53543 29.6773L3.19985 29.4455L3.86292 29.2137L4.526 28.9805L5.19051 28.7487L5.85358 28.5169L6.518 28.2837L7.18108 28.0505L7.84424 27.8187L8.50866 27.5855L9.17174 27.3523L9.83481 27.1192L10.4993 26.886L11.1624 26.6528L11.5737 26.5088L11.7443 25.9656L11.886 25.5143L12.0277 25.063L12.1694 24.6104L12.3125 24.1578L12.4541 23.7051L12.5959 23.2525L12.7375 22.7984L12.8806 22.3444L13.0223 21.8904L13.164 21.4364L13.3057 20.981L13.4474 20.5256L13.5905 20.0702L13.7322 19.6148L13.8739 19.158L14.0155 18.7012L14.1463 18.2829L13.9014 17.8796L13.574 17.3364L13.23 16.7686L12.9081 16.2336L12.6729 15.8441L12.3895 15.3736L12.4198 14.7687L12.4129 14.4656L12.4418 14.0005L12.7128 13.3545L13.0333 12.5315L13.2672 11.9842L13.4694 11.5069L13.6317 11.1242L13.7212 10.7292L13.6731 10.4507L13.5671 10.3492L13.4777 10.2175L13.7845 10.0063L14.3595 9.8691L14.6773 9.8979L15.1203 9.79643L15.4724 9.70451L15.4999 9.58106L15.4009 9.37256L15.255 9.06807L14.7585 9.03651L14.6085 8.95145L14.7818 8.50158L14.7749 8.35892L14.7089 8.19018L14.636 7.90763L14.6717 7.54278L14.7736 7.29451L14.7749 7.09425L14.7268 6.68272L14.7419 6.31649L14.8465 6.13407L15.0322 5.96399L15.2069 5.87755L15.3885 5.88303L15.533 5.95574L15.5949 6.1478L15.5563 6.28083L15.4531 6.29866L15.4174 6.35492L15.5646 6.61139L15.7778 6.86243L15.9429 6.8199L16.1273 6.62236L16.3226 6.46325L16.5661 6.32197L16.7436 6.04901L16.8949 5.87206L17.0297 5.84737L17.4231 6.95569L18.0064 7.99131L18.521 8.5619L19.0561 9.33555L19.8691 10.046L20.2419 10.2888L21.7538 10.7868L22.5806 10.9733L23.7197 11.1516L24.508 11.5384L24.7721 11.5631L25.1848 11.4479L25.4861 11.4575L26.2399 11.9842L26.4614 12.4835L26.7751 12.7469L27.0516 13.1611L27.2318 13.5945L27.8688 14.2543L28.3172 14.9964L28.774 15.545L29.1826 15.8866L29.8017 16.021L30.2941 16.1747L30.3491 16.5409L30.2983 17.0182L30.2047 17.3707L29.7453 18.0566L29.6352 18.4791L29.1152 19.1759L28.5512 20.3432L28.2925 20.6038L27.3831 21.2045L26.7146 21.9274L25.9222 23.1811L25.3196 24.4211L25.0885 24.8175L24.6029 24.8998L24.2851 24.8655L24.065 24.749L24.1516 24.4101L24.2039 24.0329L23.9109 24.0727L23.6536 24.1509L23.0525 25.0768L22.7223 25.4828L22.6522 25.9971L22.4926 26.661L22.2574 27.2714L22.1528 27.7844L22.1569 28.0752L22.333 28.7844L22.3454 29.51L22.4472 29.9448L22.5297 30.4661L22.2477 30.6265L22.0056 30.7061L21.0481 30.7637L20.0782 30.931L19.2308 31.2328L18.7246 31.5332L18.0656 32.2039L17.6625 33.9034L17.0173 34.6194L16.5799 34.769L15.5274 34.832L14.0459 35.0296L13.5258 35.201L12.6619 36.2353L12.5944 36.5604L12.7609 36.7949L12.8159 37.0541L12.7375 37.2969L12.3455 37.9512L11.9218 38.4258L10.7937 38.7235L10.3796 38.5465L10.0013 38.4574L9.26939 38.4478L8.07808 38.5602L7.6392 38.9114L6.94723 39.1596L6.30893 39.5423L5.10385 39.6877L4.27704 39.9964ZM26.0378 25.5939L25.7942 25.6556L25.7241 25.6268L25.7255 25.111L26.2923 24.4609L26.6651 23.7092L26.9223 24.3813L26.4752 24.7572L26.2331 25.3991L26.0378 25.5939Z"/>
</mask>
<path d="M16.6789 3.00667L16.6032 3.10404L16.4918 3.11366L16.2359 3.02999L16.086 2.83659L16.1149 2.60067L16.1231 2.16445L16.1961 1.75297L16.1754 1.31679L15.9773 1.22901L15.8384 1.25366L16.1616 0.637819L16.2896 0.543174L16.4092 0.582941L16.7078 0.517095L16.8646 0.182425L16.9898 0L17.1233 0.0219346L17.1879 0.124784L17.1412 0.633675L17.1356 1.05755L16.9706 2.3524L16.7999 2.57597L16.7133 2.75702L16.6789 3.00667ZM16.6156 4.7665L16.456 4.88036L16.3419 4.86115L16.3652 4.63485L16.434 4.47708L16.5991 4.48943L16.639 4.58408L16.6156 4.7665ZM4.27704 39.9964L4.0432 39.4697L3.80927 38.9429L3.57408 38.4162L3.34015 37.8881L3.1765 37.5178L2.90135 37.3875L2.7335 36.9965L2.56288 36.596L2.39235 36.1955L2.22173 35.7949L2.0512 35.3944L1.87924 34.9925L1.70862 34.5906L1.538 34.1887L1.36746 33.7868L1.1955 33.3849L1.02488 32.983L0.854267 32.5798L0.683732 32.1765L0.513114 31.7732L0.341152 31.37L0.170618 30.9667L0 30.5634L0.544769 30.3727L1.20785 30.141L1.87235 29.9091L2.53543 29.6773L3.19985 29.4455L3.86292 29.2137L4.526 28.9805L5.19051 28.7487L5.85358 28.5169L6.518 28.2837L7.18108 28.0505L7.84424 27.8187L8.50866 27.5855L9.17174 27.3523L9.83481 27.1192L10.4993 26.886L11.1624 26.6528L11.5737 26.5088L11.7443 25.9656L11.886 25.5143L12.0277 25.063L12.1694 24.6104L12.3125 24.1578L12.4541 23.7051L12.5959 23.2525L12.7375 22.7984L12.8806 22.3444L13.0223 21.8904L13.164 21.4364L13.3057 20.981L13.4474 20.5256L13.5905 20.0702L13.7322 19.6148L13.8739 19.158L14.0155 18.7012L14.1463 18.2829L13.9014 17.8796L13.574 17.3364L13.23 16.7686L12.9081 16.2336L12.6729 15.8441L12.3895 15.3736L12.4198 14.7687L12.4129 14.4656L12.4418 14.0005L12.7128 13.3545L13.0333 12.5315L13.2672 11.9842L13.4694 11.5069L13.6317 11.1242L13.7212 10.7292L13.6731 10.4507L13.5671 10.3492L13.4777 10.2175L13.7845 10.0063L14.3595 9.8691L14.6773 9.8979L15.1203 9.79643L15.4724 9.70451L15.4999 9.58106L15.4009 9.37256L15.255 9.06807L14.7585 9.03651L14.6085 8.95145L14.7818 8.50158L14.7749 8.35892L14.7089 8.19018L14.636 7.90763L14.6717 7.54278L14.7736 7.29451L14.7749 7.09425L14.7268 6.68272L14.7419 6.31649L14.8465 6.13407L15.0322 5.96399L15.2069 5.87755L15.3885 5.88303L15.533 5.95574L15.5949 6.1478L15.5563 6.28083L15.4531 6.29866L15.4174 6.35492L15.5646 6.61139L15.7778 6.86243L15.9429 6.8199L16.1273 6.62236L16.3226 6.46325L16.5661 6.32197L16.7436 6.04901L16.8949 5.87206L17.0297 5.84737L17.4231 6.95569L18.0064 7.99131L18.521 8.5619L19.0561 9.33555L19.8691 10.046L20.2419 10.2888L21.7538 10.7868L22.5806 10.9733L23.7197 11.1516L24.508 11.5384L24.7721 11.5631L25.1848 11.4479L25.4861 11.4575L26.2399 11.9842L26.4614 12.4835L26.7751 12.7469L27.0516 13.1611L27.2318 13.5945L27.8688 14.2543L28.3172 14.9964L28.774 15.545L29.1826 15.8866L29.8017 16.021L30.2941 16.1747L30.3491 16.5409L30.2983 17.0182L30.2047 17.3707L29.7453 18.0566L29.6352 18.4791L29.1152 19.1759L28.5512 20.3432L28.2925 20.6038L27.3831 21.2045L26.7146 21.9274L25.9222 23.1811L25.3196 24.4211L25.0885 24.8175L24.6029 24.8998L24.2851 24.8655L24.065 24.749L24.1516 24.4101L24.2039 24.0329L23.9109 24.0727L23.6536 24.1509L23.0525 25.0768L22.7223 25.4828L22.6522 25.9971L22.4926 26.661L22.2574 27.2714L22.1528 27.7844L22.1569 28.0752L22.333 28.7844L22.3454 29.51L22.4472 29.9448L22.5297 30.4661L22.2477 30.6265L22.0056 30.7061L21.0481 30.7637L20.0782 30.931L19.2308 31.2328L18.7246 31.5332L18.0656 32.2039L17.6625 33.9034L17.0173 34.6194L16.5799 34.769L15.5274 34.832L14.0459 35.0296L13.5258 35.201L12.6619 36.2353L12.5944 36.5604L12.7609 36.7949L12.8159 37.0541L12.7375 37.2969L12.3455 37.9512L11.9218 38.4258L10.7937 38.7235L10.3796 38.5465L10.0013 38.4574L9.26939 38.4478L8.07808 38.5602L7.6392 38.9114L6.94723 39.1596L6.30893 39.5423L5.10385 39.6877L4.27704 39.9964ZM26.0378 25.5939L25.7942 25.6556L25.7241 25.6268L25.7255 25.111L26.2923 24.4609L26.6651 23.7092L26.9223 24.3813L26.4752 24.7572L26.2331 25.3991L26.0378 25.5939Z" fill="var(--fill-0, #71B219)" stroke="var(--stroke-0, white)" mask="url(#path-1-inside-1_0_81)"/>
</g>
</svg>
