<svg preserveAspectRatio="none" width="100%" height="100%" overflow="visible" style="display: block;" viewBox="0 0 30 40" fill="none" xmlns="http://www.w3.org/2000/svg"><g id="OM"><mask id="path-1-inside-1_0_81" fill="white"><path d="M17 3L17 3L16 3L16 3L16 3L16 3L16 2L16 2L16 1L16 1L16 1L16 1L16 0L16 1L17 0L17 0L17 0L17 0L17 0L17 1L17 1L17 2L17 3L17 3L17 3ZM17 5L16 5L16 5L16 5L16 4L17 4L17 5L17 5ZM4 40L4 40L4 39L4 38L3 38L3 38L3 37L3 37L3 37L2 36L2 36L2 35L2 35L2 35L2 34L1 34L1 33L1 33L1 33L1 32L0 32L0 31L0 31L0 31L0 30L1 30L2 30L2 30L3 29L4 29L4 29L5 29L6 28L6 28L7 28L8 28L8 28L9 27L10 27L10 27L11 27L12 26L12 26L12 26L12 25L12 25L12 24L12 24L13 23L13 23L13 22L13 22L13 21L13 21L13 20L14 20L14 20L14 19L14 19L14 18L14 18L14 17L13 17L13 16L13 16L12 15L12 15L12 14L12 14L13 13L13 12L13 12L14 12L14 11L14 11L14 10L14 10L14 10L14 10L14 10L15 10L15 10L16 10L16 10L15 9L15 9L15 9L15 9L15 8L15 8L15 8L15 8L15 8L15 7L15 7L15 7L15 6L15 6L15 6L15 6L15 6L16 6L16 6L16 6L16 6L15 6L16 7L16 7L16 7L16 7L16 6L17 6L17 6L17 6L17 6L17 7L18 8L18 9L19 9L20 10L20 10L22 11L23 11L24 11L24 12L25 12L25 11L26 12L26 12L26 12L27 13L27 13L27 14L28 14L28 15L29 16L29 16L30 16L30 16L30 16L30 17L30 17L30 18L30 18L29 19L29 20L28 21L27 21L27 22L26 23L25 24L25 25L25 25L24 25L24 25L24 24L24 24L24 24L24 24L23 25L23 26L23 26L22 27L22 27L22 28L22 28L22 29L22 30L22 30L22 30L22 31L22 31L21 31L20 31L19 31L19 32L18 32L18 34L17 35L17 35L16 35L14 35L14 35L13 36L13 37L13 37L13 37L13 37L12 38L12 38L11 39L10 38L10 38L9 38L8 39L8 39L7 39L6 40L5 40L4 40ZM26 26L26 26L26 26L26 25L26 24L27 24L27 24L26 25L26 25L26 26Z"/></mask><path d="M17 3L17 3L16 3L16 3L16 3L16 3L16 2L16 2L16 1L16 1L16 1L16 1L16 0L16 1L17 0L17 0L17 0L17 0L17 0L17 1L17 1L17 2L17 3L17 3L17 3ZM17 5L16 5L16 5L16 5L16 4L17 4L17 5L17 5ZM4 40L4 40L4 39L4 38L3 38L3 38L3 37L3 37L3 37L2 36L2 36L2 35L2 35L2 35L2 34L1 34L1 33L1 33L1 33L1 32L0 32L0 31L0 31L0 31L0 30L1 30L2 30L2 30L3 29L4 29L4 29L5 29L6 28L6 28L7 28L8 28L8 28L9 27L10 27L10 27L11 27L12 26L12 26L12 26L12 25L12 25L12 24L12 24L13 23L13 23L13 22L13 22L13 21L13 21L13 20L14 20L14 20L14 19L14 19L14 18L14 18L14 17L13 17L13 16L13 16L12 15L12 15L12 14L12 14L13 13L13 12L13 12L14 12L14 11L14 11L14 10L14 10L14 10L14 10L14 10L15 10L15 10L16 10L16 10L15 9L15 9L15 9L15 9L15 8L15 8L15 8L15 8L15 8L15 7L15 7L15 7L15 6L15 6L15 6L15 6L15 6L16 6L16 6L16 6L16 6L15 6L16 7L16 7L16 7L16 7L16 6L17 6L17 6L17 6L17 6L17 7L18 8L18 9L19 9L20 10L20 10L22 11L23 11L24 11L24 12L25 12L25 11L26 12L26 12L26 12L27 13L27 13L27 14L28 14L28 15L29 16L29 16L30 16L30 16L30 16L30 17L30 17L30 18L30 18L29 19L29 20L28 21L27 21L27 22L26 23L25 24L25 25L25 25L24 25L24 25L24 24L24 24L24 24L24 24L23 25L23 26L23 26L22 27L22 27L22 28L22 28L22 29L22 30L22 30L22 30L22 31L22 31L21 31L20 31L19 31L19 32L18 32L18 34L17 35L17 35L16 35L14 35L14 35L13 36L13 37L13 37L13 37L13 37L12 38L12 38L11 39L10 38L10 38L9 38L8 39L8 39L7 39L6 40L5 40L4 40ZM26 26L26 26L26 26L26 25L26 24L27 24L27 24L26 25L26 25L26 26Z" fill="var(--fill-0,#71B219)" stroke="var(--stroke-0,white)" mask="url(#path-1-inside-1_0_81)"/></g></svg>