<svg preserveAspectRatio="none" width="100%" height="100%" overflow="visible" style="display: block;" viewBox="0 0 22.5091 9.18741" fill="none" xmlns="http://www.w3.org/2000/svg">
<g id="PA">
<mask id="path-1-inside-1_0_243" fill="white">
<path d="M21.8213 3.6308L21.7483 3.6843L21.5351 3.98879L21.4195 4.24941L21.6947 4.52514L21.7772 4.81728L21.9327 5.13416L22.1748 5.45238L22.4472 6.04356L22.5091 6.28087L22.4321 6.43449L22.1734 6.52914L21.9313 6.80483L21.8653 7.14226L21.912 7.30962L21.1884 7.84865L21.0013 7.93781L20.8775 7.85551L20.7235 7.58531L20.5391 7.36722L20.4401 7.2904L20.3823 7.28764L20.3245 7.33842L20.297 7.45638L20.3933 7.96251L20.3135 8.16691L20.0673 8.32464L19.7852 9.14764L19.6752 9.04337L18.7466 7.93509L17.9432 6.56204L17.7753 5.93929L17.9831 5.90229L18.1839 5.91598L18.2926 5.81999L18.4178 5.6389L18.316 5.21779L18.7067 4.89819L18.8539 4.68287L18.9626 4.70756L19.2184 5.07514L19.5899 5.28502L20.0452 5.59089L20.3273 5.66084L19.971 5.3399L19.3546 4.91741L19.1827 4.64034L19.0203 4.25489L18.7796 4.42225L18.6682 4.56352L18.543 4.6431L18.4343 4.54707L18.415 4.42225L18.0519 4.39755L17.9583 4.28369L17.862 4.22061L17.906 4.46201L17.9776 4.61016L17.939 4.78986L17.8207 4.80221L17.7203 4.61702L17.591 4.44833L17.419 3.746L17.0063 3.41543L16.8165 3.30434L16.661 3.26319L16.4313 3.03823L16.1286 2.91889L15.7159 2.56911L15.2097 2.31812L14.5906 2.23034L13.8381 2.28517L13.585 2.42511L13.413 2.60205L13.3332 2.68435L12.8889 2.88599L12.721 3.17813L12.6151 3.42506L12.3936 3.70485L12.6468 3.87359L11.1981 4.82414L10.912 4.9627L10.2613 5.06007L10.1114 5.16158L9.91326 5.34949L9.88574 5.6348L9.91601 5.87759L10.1045 6.0655L10.2737 6.18346L10.6768 6.74857L11.3935 7.46186L11.5297 7.7211L11.6411 8.10655L11.4251 8.28759L11.2573 8.3644L10.575 8.39458L10.3397 8.54821L10.2448 8.78275L9.9903 8.9748L9.11122 9.16548L8.42062 9.18741L8.20603 8.96794L8.15374 8.34933L7.68875 7.29312L7.57733 6.5648L7.46177 6.65531L7.21552 6.74036L7.1316 6.92141L7.0697 7.45776L6.97891 7.64152L6.78906 7.62369L6.39835 7.43168L5.87835 7.25474L5.21664 6.11761L5.1451 5.90363L5.01579 5.64715L4.50402 5.53878L4.06793 5.34676L3.59195 5.31792L3.34844 5.4263L3.09944 5.28912L3.05679 4.97639L2.55743 5.11633L1.91635 5.06693L1.34269 4.93386L0.950617 5.00519L0.621829 5.22742L0.667212 5.79391L0.570924 5.90639L0.55579 5.67457L0.441596 5.40847L0.30404 5.18761L0.0151348 4.95856L0 4.87488L0.114193 4.75968L0.638328 4.42773L0.702981 4.28917L0.711252 4.00114L0.660348 3.72545L0.423733 3.31941L0.558539 3.06841L0.82956 2.86678L1.10744 2.70767L1.15421 2.64044L1.10331 2.50192L0.940982 2.3524L0.561289 2.09865L0.332924 2.0822L0.323289 1.35107L0.334309 0.574736L0.392078 0.497923L0.53102 0.451292L0.642463 0.33333L0.704367 0.10285L0.870829 0.0205532L1.17073 0.197495L1.4775 0.353884L1.60406 0.301768L1.69898 0.224955L1.76641 0.149524L1.78841 0.0781943L2.03329 0.285317L2.53266 0.652889L2.56154 0.832593L2.51477 1.00543L2.65235 1.50197L2.91098 1.5733L3.17235 1.47728L3.23702 1.56916L3.18887 1.66108L3.05404 1.76398L3.02102 2.19053L3.44887 2.38945L3.66348 2.56363L4.37333 2.48133L4.63471 2.52796L4.81356 2.47723L4.61547 2.13431L4.34995 1.88056L4.37197 1.7667L4.57281 1.85176L4.72689 2.02455L5.07631 2.23854L5.71877 2.98202L6.45614 3.16168L7.03943 3.13836L7.58283 3.03823L8.44814 2.7502L9.07545 2.22896L9.57483 1.99714L11.1954 1.50197L11.7704 0.983498L12.0139 0.916271L12.245 0.851807L12.7541 0.459496L13.0278 0.153626L13.3167 0L14.1738 0.111096L14.7295 0.255136L15.1134 0.235922L15.4821 0.338814L15.643 0.561006L15.8109 0.655652L16.7174 0.630954L17.4603 0.740711L19.0877 1.39908L20.0617 2.05063L20.5776 2.74195L21.8213 3.6308ZM3.05956 0.832593L3.01691 1.01364L2.71839 0.688553L2.89585 0.635057L2.95912 0.641922L3.05956 0.832593ZM15.936 5.11494L15.859 5.27816L15.6788 4.91331L15.7077 4.82004L15.6953 4.49081L15.8673 4.40441L15.9938 4.39755L16.0984 4.44418L16.1644 4.83239L16.1094 5.00795L15.936 5.11494ZM15.2908 5.19314L15.1175 5.3646L15.0515 5.20272L15.1725 5.03399L15.2152 5.03265L15.2908 5.19314ZM5.49316 8.74985L5.28129 8.7704L4.84933 8.60447L4.53293 8.28487L4.50677 8.18198L4.51366 8.07498L4.68562 7.74852L4.91673 7.63604L5.00752 7.63742L5.22902 8.01462L5.07906 8.16004L5.1396 8.3932L5.45325 8.56604L5.49316 8.74985Z"/>
</mask>
<path d="M21.8213 3.6308L21.7483 3.6843L21.5351 3.98879L21.4195 4.24941L21.6947 4.52514L21.7772 4.81728L21.9327 5.13416L22.1748 5.45238L22.4472 6.04356L22.5091 6.28087L22.4321 6.43449L22.1734 6.52914L21.9313 6.80483L21.8653 7.14226L21.912 7.30962L21.1884 7.84865L21.0013 7.93781L20.8775 7.85551L20.7235 7.58531L20.5391 7.36722L20.4401 7.2904L20.3823 7.28764L20.3245 7.33842L20.297 7.45638L20.3933 7.96251L20.3135 8.16691L20.0673 8.32464L19.7852 9.14764L19.6752 9.04337L18.7466 7.93509L17.9432 6.56204L17.7753 5.93929L17.9831 5.90229L18.1839 5.91598L18.2926 5.81999L18.4178 5.6389L18.316 5.21779L18.7067 4.89819L18.8539 4.68287L18.9626 4.70756L19.2184 5.07514L19.5899 5.28502L20.0452 5.59089L20.3273 5.66084L19.971 5.3399L19.3546 4.91741L19.1827 4.64034L19.0203 4.25489L18.7796 4.42225L18.6682 4.56352L18.543 4.6431L18.4343 4.54707L18.415 4.42225L18.0519 4.39755L17.9583 4.28369L17.862 4.22061L17.906 4.46201L17.9776 4.61016L17.939 4.78986L17.8207 4.80221L17.7203 4.61702L17.591 4.44833L17.419 3.746L17.0063 3.41543L16.8165 3.30434L16.661 3.26319L16.4313 3.03823L16.1286 2.91889L15.7159 2.56911L15.2097 2.31812L14.5906 2.23034L13.8381 2.28517L13.585 2.42511L13.413 2.60205L13.3332 2.68435L12.8889 2.88599L12.721 3.17813L12.6151 3.42506L12.3936 3.70485L12.6468 3.87359L11.1981 4.82414L10.912 4.9627L10.2613 5.06007L10.1114 5.16158L9.91326 5.34949L9.88574 5.6348L9.91601 5.87759L10.1045 6.0655L10.2737 6.18346L10.6768 6.74857L11.3935 7.46186L11.5297 7.7211L11.6411 8.10655L11.4251 8.28759L11.2573 8.3644L10.575 8.39458L10.3397 8.54821L10.2448 8.78275L9.9903 8.9748L9.11122 9.16548L8.42062 9.18741L8.20603 8.96794L8.15374 8.34933L7.68875 7.29312L7.57733 6.5648L7.46177 6.65531L7.21552 6.74036L7.1316 6.92141L7.0697 7.45776L6.97891 7.64152L6.78906 7.62369L6.39835 7.43168L5.87835 7.25474L5.21664 6.11761L5.1451 5.90363L5.01579 5.64715L4.50402 5.53878L4.06793 5.34676L3.59195 5.31792L3.34844 5.4263L3.09944 5.28912L3.05679 4.97639L2.55743 5.11633L1.91635 5.06693L1.34269 4.93386L0.950617 5.00519L0.621829 5.22742L0.667212 5.79391L0.570924 5.90639L0.55579 5.67457L0.441596 5.40847L0.30404 5.18761L0.0151348 4.95856L0 4.87488L0.114193 4.75968L0.638328 4.42773L0.702981 4.28917L0.711252 4.00114L0.660348 3.72545L0.423733 3.31941L0.558539 3.06841L0.82956 2.86678L1.10744 2.70767L1.15421 2.64044L1.10331 2.50192L0.940982 2.3524L0.561289 2.09865L0.332924 2.0822L0.323289 1.35107L0.334309 0.574736L0.392078 0.497923L0.53102 0.451292L0.642463 0.33333L0.704367 0.10285L0.870829 0.0205532L1.17073 0.197495L1.4775 0.353884L1.60406 0.301768L1.69898 0.224955L1.76641 0.149524L1.78841 0.0781943L2.03329 0.285317L2.53266 0.652889L2.56154 0.832593L2.51477 1.00543L2.65235 1.50197L2.91098 1.5733L3.17235 1.47728L3.23702 1.56916L3.18887 1.66108L3.05404 1.76398L3.02102 2.19053L3.44887 2.38945L3.66348 2.56363L4.37333 2.48133L4.63471 2.52796L4.81356 2.47723L4.61547 2.13431L4.34995 1.88056L4.37197 1.7667L4.57281 1.85176L4.72689 2.02455L5.07631 2.23854L5.71877 2.98202L6.45614 3.16168L7.03943 3.13836L7.58283 3.03823L8.44814 2.7502L9.07545 2.22896L9.57483 1.99714L11.1954 1.50197L11.7704 0.983498L12.0139 0.916271L12.245 0.851807L12.7541 0.459496L13.0278 0.153626L13.3167 0L14.1738 0.111096L14.7295 0.255136L15.1134 0.235922L15.4821 0.338814L15.643 0.561006L15.8109 0.655652L16.7174 0.630954L17.4603 0.740711L19.0877 1.39908L20.0617 2.05063L20.5776 2.74195L21.8213 3.6308ZM3.05956 0.832593L3.01691 1.01364L2.71839 0.688553L2.89585 0.635057L2.95912 0.641922L3.05956 0.832593ZM15.936 5.11494L15.859 5.27816L15.6788 4.91331L15.7077 4.82004L15.6953 4.49081L15.8673 4.40441L15.9938 4.39755L16.0984 4.44418L16.1644 4.83239L16.1094 5.00795L15.936 5.11494ZM15.2908 5.19314L15.1175 5.3646L15.0515 5.20272L15.1725 5.03399L15.2152 5.03265L15.2908 5.19314ZM5.49316 8.74985L5.28129 8.7704L4.84933 8.60447L4.53293 8.28487L4.50677 8.18198L4.51366 8.07498L4.68562 7.74852L4.91673 7.63604L5.00752 7.63742L5.22902 8.01462L5.07906 8.16004L5.1396 8.3932L5.45325 8.56604L5.49316 8.74985Z" fill="var(--fill-0, #71B219)" stroke="var(--stroke-0, white)" mask="url(#path-1-inside-1_0_243)"/>
</g>
</svg>
