<svg preserveAspectRatio="none" width="100%" height="100%" overflow="visible" style="display: block;" viewBox="0 0 22 9" fill="none" xmlns="http://www.w3.org/2000/svg"><g id="PA"><mask id="path-1-inside-1_0_243" fill="white"><path d="M22 4L22 4L22 4L21 4L22 4L22 5L22 5L22 6L22 6L22 6L22 6L22 6L22 7L22 7L22 7L21 8L21 8L21 8L21 8L20 7L20 7L20 7L20 7L20 8L20 8L20 8L20 8L20 9L20 9L19 8L18 7L18 6L18 6L18 6L18 6L18 6L18 5L19 5L19 5L19 5L19 5L20 5L20 6L20 6L20 5L19 5L19 5L19 4L19 4L19 5L18 5L18 4L18 4L18 4L18 4L18 4L18 4L18 5L18 5L18 5L18 5L18 4L17 4L17 3L17 3L17 3L16 3L16 3L16 3L15 2L15 2L14 2L14 2L13 3L13 3L13 3L13 3L13 3L12 4L13 4L11 5L11 5L10 5L10 5L10 5L10 6L10 6L10 6L10 6L11 7L11 8L12 8L12 8L11 8L11 8L11 8L10 8L10 9L10 9L9 9L8 9L8 9L8 8L8 7L8 7L8 7L7 7L7 7L7 8L7 8L7 8L6 7L6 7L5 6L5 6L5 6L4 6L4 5L4 5L3 5L3 5L3 5L3 5L2 5L1 5L1 5L1 5L1 6L1 6L1 6L0 5L0 5L0 5L0 5L0 5L1 4L1 4L1 4L1 4L0 3L1 3L1 3L1 3L1 3L1 2L1 2L1 2L0 2L0 1L0 1L0 0L0 0L1 0L1 0L1 0L1 0L2 0L2 0L2 0L2 0L2 0L2 0L2 1L3 1L2 1L3 2L3 2L3 2L3 2L3 2L3 2L3 2L3 2L4 3L4 2L5 2L5 2L5 2L4 2L4 2L5 2L5 2L5 2L6 3L6 3L7 3L8 3L8 3L9 2L10 2L11 2L12 1L12 1L12 1L13 0L13 0L13 0L14 0L15 0L15 0L16 0L16 1L16 1L17 1L18 1L19 1L20 2L21 3L22 4ZM3 1L3 1L3 1L3 1L3 1L3 1ZM16 5L16 5L16 5L16 5L16 4L16 4L16 4L16 4L16 5L16 5L16 5ZM15 5L15 5L15 5L15 5L15 5L15 5ZM6 9L5 9L5 9L4 8L4 8L4 8L5 8L5 8L5 8L5 8L5 8L5 8L6 9L6 9Z"/></mask><path d="M22 4L22 4L22 4L21 4L22 4L22 5L22 5L22 6L22 6L22 6L22 6L22 6L22 7L22 7L22 7L21 8L21 8L21 8L21 8L20 7L20 7L20 7L20 7L20 8L20 8L20 8L20 8L20 9L20 9L19 8L18 7L18 6L18 6L18 6L18 6L18 6L18 5L19 5L19 5L19 5L19 5L20 5L20 6L20 6L20 5L19 5L19 5L19 4L19 4L19 5L18 5L18 4L18 4L18 4L18 4L18 4L18 4L18 5L18 5L18 5L18 5L18 4L17 4L17 3L17 3L17 3L16 3L16 3L16 3L15 2L15 2L14 2L14 2L13 3L13 3L13 3L13 3L13 3L12 4L13 4L11 5L11 5L10 5L10 5L10 5L10 6L10 6L10 6L10 6L11 7L11 8L12 8L12 8L11 8L11 8L11 8L10 8L10 9L10 9L9 9L8 9L8 9L8 8L8 7L8 7L8 7L7 7L7 7L7 8L7 8L7 8L6 7L6 7L5 6L5 6L5 6L4 6L4 5L4 5L3 5L3 5L3 5L3 5L2 5L1 5L1 5L1 5L1 6L1 6L1 6L0 5L0 5L0 5L0 5L0 5L1 4L1 4L1 4L1 4L0 3L1 3L1 3L1 3L1 3L1 2L1 2L1 2L0 2L0 1L0 1L0 0L0 0L1 0L1 0L1 0L1 0L2 0L2 0L2 0L2 0L2 0L2 0L2 1L3 1L2 1L3 2L3 2L3 2L3 2L3 2L3 2L3 2L3 2L4 3L4 2L5 2L5 2L5 2L4 2L4 2L5 2L5 2L5 2L6 3L6 3L7 3L8 3L8 3L9 2L10 2L11 2L12 1L12 1L12 1L13 0L13 0L13 0L14 0L15 0L15 0L16 0L16 1L16 1L17 1L18 1L19 1L20 2L21 3L22 4ZM3 1L3 1L3 1L3 1L3 1L3 1ZM16 5L16 5L16 5L16 5L16 4L16 4L16 4L16 4L16 5L16 5L16 5ZM15 5L15 5L15 5L15 5L15 5L15 5ZM6 9L5 9L5 9L4 8L4 8L4 8L5 8L5 8L5 8L5 8L5 8L5 8L6 9L6 9Z" fill="var(--fill-0,#71B219)" stroke="var(--stroke-0,white)" mask="url(#path-1-inside-1_0_243)"/></g></svg>