<svg preserveAspectRatio="none" width="100%" height="100%" overflow="visible" style="display: block;" viewBox="0 0 49 71" fill="none" xmlns="http://www.w3.org/2000/svg"><g id="PE"><mask id="path-1-inside-1_0_99" fill="white"><path d="M44 16L44 16L44 16L44 16L43 16L43 16L43 16L42 16L42 16L42 16L42 16L41 16L41 16L41 16L40 16L40 16L40 16L39 17L39 17L39 17L38 17L38 17L37 17L37 17L36 17L36 17L36 18L35 18L35 18L34 19L34 19L33 19L33 19L33 20L32 20L33 20L32 20L32 21L32 21L32 21L32 22L32 23L31 23L31 23L31 23L32 24L32 24L32 24L32 25L32 25L31 25L31 25L30 25L30 26L29 26L29 27L29 27L29 27L29 27L29 28L29 28L29 28L29 28L29 28L29 28L29 28L28 28V28L28 28L28 29L28 29L28 29L28 29L28 29L29 29L29 30L29 30L29 30L29 30L29 30L29 30L29 30L29 30L30 31L30 31L30 31V31L30 32L30 32V32L30 32L30 32L31 32L31 32L31 32L31 33L31 33L31 33L32 34L32 34L32 34L32 35L32 35L31 36L32 36L33 36L34 36L34 36L35 36L35 37L35 37L35 37L35 37L35 38L35 38L35 38L36 38L36 38L38 38L39 38L39 38L40 38L40 38L40 37L40 37L41 37L41 37L41 36L41 36L41 36L42 36L42 36L42 36L42 37L42 37L42 37L41 38L41 38L41 39L41 40L41 41L41 42L41 42L42 42L42 42L42 42L42 42L42 42L43 42L43 42L44 42L44 42L44 42L45 42L45 42L46 43L46 43L47 44L47 45L48 46L48 46L48 47L49 48L49 48L48 48L49 49L48 49L48 49L48 49L48 50L48 50L48 52L48 52L48 52L47 52L47 53L48 53L48 54L48 54L48 54L48 55L48 55L48 55L48 55L48 55L47 56L47 56L47 56L47 56L47 56L47 57L47 57L46 57L46 57L46 58L46 58L47 59L47 59L47 59L46 60L46 60L46 60L46 61L47 62L47 63L47 63L48 63L48 63L48 63L48 63L48 63L48 63L48 64L48 64L48 64L48 64L47 64L47 65L47 65L47 65L46 66L46 66L46 66L46 66L45 67L45 67L45 67L46 67L46 67L46 68V68V68L45 68L45 68L44 68L44 69L44 69L44 69L44 70L44 70L44 71L44 71L43 71L43 71L42 71L42 71L42 71L41 70L40 70L40 69L39 69L38 68L38 68L38 67L38 67L37 67L37 66L36 66L36 66L35 65L35 65L34 65L33 64L32 64L31 63L31 63L29 63L29 62L28 62L27 61L26 61L24 60L24 59L23 59L23 58L22 58L22 57L21 56L21 56L20 55L20 55L20 54L20 54L19 53L19 53L20 53L20 52L20 51L19 50L19 50L18 49L18 49L18 48L17 47L17 47L17 47L16 46L16 46L16 46L16 45L16 44L14 43L14 43L14 42L14 42L12 39L12 39L12 38L12 37L11 36L11 35L10 34L10 33L10 33L9 32L9 31L8 31L8 30L8 30L7 28L7 28L6 27L6 26L5 26L5 25L2 24L1 23L1 23L1 23L1 22L1 22L1 22L2 22L2 22L2 21L2 21L1 20L1 19L1 19L0 18L0 18L0 18L0 16L0 16L2 15L2 14L3 14L3 13L4 13L4 13L4 13L4 13L4 13L4 13L4 14L4 14L4 14L4 14L4 14L4 14L4 15L4 15L4 15L4 15L4 15L4 15L4 15L3 15L3 15L3 16L3 16L3 16L4 16L3 16L3 17L3 17L4 17L4 17L4 17L4 16L4 16L5 16L5 16L5 17L6 17L6 17L6 17L7 17L7 17L7 17L7 18L7 18L8 18L8 19L8 19L8 19L9 19L9 19L9 19L9 18L9 18L9 18L9 18L9 18L10 18L10 17L10 17L10 17L10 17L10 17L10 17L10 16L10 16L11 16L11 15L11 15L11 15L11 15L11 14L11 14L11 14L11 14L11 14L12 13L12 13L12 13L12 13L12 13L12 13L12 13L12 13L12 13L12 13L12 13L12 13L12 13L12 12L13 12L13 12L13 11L14 11L15 11L15 11L16 10L17 10L18 10L19 9L19 9L20 8L20 8L21 7L22 6L22 6L22 6L22 5L23 4L23 4L23 3L23 3L23 4L23 4L23 4L24 4L23 2L23 2L24 2L23 2L23 2L23 1L23 1L23 1L22 1L22 0L22 0H22L23 0L23 0L23 0L23 0L24 0H24L24 0L24 0L24 0L25 1L25 1L25 1L25 1L25 1L25 1L26 1L26 1L26 2L26 2L26 2L27 2L27 2L27 3L27 3L27 3L27 3L27 4L28 4L28 4L28 4L29 4L29 4L29 4L29 4L30 5L30 5L30 5L30 5L30 6L30 6L30 6L30 6L31 7L31 7L31 7L31 7L32 7L32 8L32 8L32 8L32 8L32 9L32 9L32 9L32 9L33 9L33 9L33 9L34 9L34 9L34 9L34 9L34 9L35 9L35 9L36 9L36 9L36 9L36 9L37 8L37 8L37 8L37 8L38 8L38 9L38 9L38 9L39 9L39 9L40 8L40 8L40 8L40 8L41 9L41 9L42 9L42 9L42 9L42 10L43 10L43 10L43 10L43 10L44 10V10L44 10L43 11L43 12L42 12L41 14L41 14L41 14L42 15L42 15L42 15L42 14L42 14L43 15L43 15L43 15L43 15L43 16L44 16L44 16Z"/></mask><path d="M44 16L44 16L44 16L44 16L43 16L43 16L43 16L42 16L42 16L42 16L42 16L41 16L41 16L41 16L40 16L40 16L40 16L39 17L39 17L39 17L38 17L38 17L37 17L37 17L36 17L36 17L36 18L35 18L35 18L34 19L34 19L33 19L33 19L33 20L32 20L33 20L32 20L32 21L32 21L32 21L32 22L32 23L31 23L31 23L31 23L32 24L32 24L32 24L32 25L32 25L31 25L31 25L30 25L30 26L29 26L29 27L29 27L29 27L29 27L29 28L29 28L29 28L29 28L29 28L29 28L29 28L28 28V28L28 28L28 29L28 29L28 29L28 29L28 29L29 29L29 30L29 30L29 30L29 30L29 30L29 30L29 30L29 30L30 31L30 31L30 31V31L30 32L30 32V32L30 32L30 32L31 32L31 32L31 32L31 33L31 33L31 33L32 34L32 34L32 34L32 35L32 35L31 36L32 36L33 36L34 36L34 36L35 36L35 37L35 37L35 37L35 37L35 38L35 38L35 38L36 38L36 38L38 38L39 38L39 38L40 38L40 38L40 37L40 37L41 37L41 37L41 36L41 36L41 36L42 36L42 36L42 36L42 37L42 37L42 37L41 38L41 38L41 39L41 40L41 41L41 42L41 42L42 42L42 42L42 42L42 42L42 42L43 42L43 42L44 42L44 42L44 42L45 42L45 42L46 43L46 43L47 44L47 45L48 46L48 46L48 47L49 48L49 48L48 48L49 49L48 49L48 49L48 49L48 50L48 50L48 52L48 52L48 52L47 52L47 53L48 53L48 54L48 54L48 54L48 55L48 55L48 55L48 55L48 55L47 56L47 56L47 56L47 56L47 56L47 57L47 57L46 57L46 57L46 58L46 58L47 59L47 59L47 59L46 60L46 60L46 60L46 61L47 62L47 63L47 63L48 63L48 63L48 63L48 63L48 63L48 63L48 64L48 64L48 64L48 64L47 64L47 65L47 65L47 65L46 66L46 66L46 66L46 66L45 67L45 67L45 67L46 67L46 67L46 68V68V68L45 68L45 68L44 68L44 69L44 69L44 69L44 70L44 70L44 71L44 71L43 71L43 71L42 71L42 71L42 71L41 70L40 70L40 69L39 69L38 68L38 68L38 67L38 67L37 67L37 66L36 66L36 66L35 65L35 65L34 65L33 64L32 64L31 63L31 63L29 63L29 62L28 62L27 61L26 61L24 60L24 59L23 59L23 58L22 58L22 57L21 56L21 56L20 55L20 55L20 54L20 54L19 53L19 53L20 53L20 52L20 51L19 50L19 50L18 49L18 49L18 48L17 47L17 47L17 47L16 46L16 46L16 46L16 45L16 44L14 43L14 43L14 42L14 42L12 39L12 39L12 38L12 37L11 36L11 35L10 34L10 33L10 33L9 32L9 31L8 31L8 30L8 30L7 28L7 28L6 27L6 26L5 26L5 25L2 24L1 23L1 23L1 23L1 22L1 22L1 22L2 22L2 22L2 21L2 21L1 20L1 19L1 19L0 18L0 18L0 18L0 16L0 16L2 15L2 14L3 14L3 13L4 13L4 13L4 13L4 13L4 13L4 13L4 14L4 14L4 14L4 14L4 14L4 14L4 15L4 15L4 15L4 15L4 15L4 15L4 15L3 15L3 15L3 16L3 16L3 16L4 16L3 16L3 17L3 17L4 17L4 17L4 17L4 16L4 16L5 16L5 16L5 17L6 17L6 17L6 17L7 17L7 17L7 17L7 18L7 18L8 18L8 19L8 19L8 19L9 19L9 19L9 19L9 18L9 18L9 18L9 18L9 18L10 18L10 17L10 17L10 17L10 17L10 17L10 17L10 16L10 16L11 16L11 15L11 15L11 15L11 15L11 14L11 14L11 14L11 14L11 14L12 13L12 13L12 13L12 13L12 13L12 13L12 13L12 13L12 13L12 13L12 13L12 13L12 13L12 12L13 12L13 12L13 11L14 11L15 11L15 11L16 10L17 10L18 10L19 9L19 9L20 8L20 8L21 7L22 6L22 6L22 6L22 5L23 4L23 4L23 3L23 3L23 4L23 4L23 4L24 4L23 2L23 2L24 2L23 2L23 2L23 1L23 1L23 1L22 1L22 0L22 0H22L23 0L23 0L23 0L23 0L24 0H24L24 0L24 0L24 0L25 1L25 1L25 1L25 1L25 1L25 1L26 1L26 1L26 2L26 2L26 2L27 2L27 2L27 3L27 3L27 3L27 3L27 4L28 4L28 4L28 4L29 4L29 4L29 4L29 4L30 5L30 5L30 5L30 5L30 6L30 6L30 6L30 6L31 7L31 7L31 7L31 7L32 7L32 8L32 8L32 8L32 8L32 9L32 9L32 9L32 9L33 9L33 9L33 9L34 9L34 9L34 9L34 9L34 9L35 9L35 9L36 9L36 9L36 9L36 9L37 8L37 8L37 8L37 8L38 8L38 9L38 9L38 9L39 9L39 9L40 8L40 8L40 8L40 8L41 9L41 9L42 9L42 9L42 9L42 10L43 10L43 10L43 10L43 10L44 10V10L44 10L43 11L43 12L42 12L41 14L41 14L41 14L42 15L42 15L42 15L42 14L42 14L43 15L43 15L43 15L43 15L43 16L44 16L44 16Z" fill="var(--fill-0,#71B219)" stroke="var(--stroke-0,white)" mask="url(#path-1-inside-1_0_99)"/></g></svg>