<svg preserveAspectRatio="none" width="100%" height="100%" overflow="visible" style="display: block;" viewBox="0 0 48.8467 71.2361" fill="none" xmlns="http://www.w3.org/2000/svg">
<g id="PE">
<mask id="path-1-inside-1_0_99" fill="white">
<path d="M43.9011 16.0526L43.8777 16.3023L43.7539 16.4024L43.5641 16.4243L43.2724 16.246L43.0592 16.2913L42.8459 16.3023L42.5461 16.0951L42.4429 15.8908L42.2076 15.7234L41.7206 15.7906L41.319 15.7947L40.9833 15.7563L40.682 15.8126L40.4261 16.0279L40.2349 16.2803L40.0106 16.4915L39.3517 16.6328L39.0009 16.6369L38.6859 16.7755L38.2168 16.8262L37.8962 16.9497L37.3281 17.0169L36.6471 17.0814L36.2674 17.2693L36.1161 17.3516L35.7295 17.6108L35.0568 18.0196L34.6853 18.1622L34.2369 18.6053L33.699 19.0209L33.3496 19.2417L32.8364 19.3433L32.6232 19.4557L32.5447 19.5888L32.5902 19.7451L32.5021 20.1457L32.3453 20.885L32.3026 21.2485L32.2641 21.4213L31.9243 22.0166L31.5584 22.5694L31.3782 22.9356L31.2778 23.2045L31.3906 23.4267L31.5391 23.8286L31.6643 24.1496L31.7001 24.3677L31.6561 24.6173L31.502 24.8464L31.2585 24.9959L30.9311 25.037L30.257 25.4389L29.5059 26.0342L29.2596 26.3113L29.1894 26.5733L29.0808 26.9821L29.1262 27.1947L29.2596 27.34L29.3944 27.6871L29.4054 27.8668L29.294 27.9669L29.0808 27.9888L28.8896 28.0232L28.7437 28.1123L28.5979 28.0903L28.4644 28.1342V28.281L28.5085 28.4484L28.4865 28.628L28.3971 28.7391L28.3186 28.8173L28.3971 28.9298L28.5305 29.0313L28.7327 29.1987L29.0134 29.5237L29.2266 29.58L29.4054 29.6924L29.4274 29.8708L29.36 30.0505L29.2032 30.1286L29.1922 30.2864L29.4054 30.477L29.5512 30.6115L29.6971 30.8131L29.8319 31.0943V31.2726L29.9777 31.4976L30.0671 31.6882V31.8679L30.3024 32.0462L30.5046 32.182L30.6491 32.3055L30.7949 32.3837L30.8293 32.5181L30.81 32.7225L31.0191 33.0599L31.4029 33.3123L31.7139 33.6785L31.9147 33.9446L32.2875 34.3726L32.3012 34.8636L31.8404 35.4274L31.3782 35.9925L32.1334 35.9774L32.9038 35.9884L33.71 36.1503L34.2534 36.3053L34.5849 36.3752L34.8202 36.5563L34.9316 36.8375L35.021 37.0679L35.0444 37.3999L35.3801 37.6701L35.3567 37.9279L35.3471 38.2914L35.4956 38.2969L36.482 38.2983L37.5606 38.2996L38.5978 38.2324L38.9899 38.1447L39.4631 37.703L39.7479 37.5727L40.0216 37.3669L40.3546 36.9911L40.6187 36.8224L40.8416 36.6139L41.1731 36.4054L41.3107 36.2518L41.4235 36.1955L41.6808 36.094L41.5693 36.297L41.4826 36.5041L41.4565 36.8031L41.5789 37.1296L41.4771 37.3738L41.3107 37.5919L41.308 38.1666L41.3052 38.9814L41.3011 39.6795L41.2969 40.5547L41.2928 41.5464L41.2901 42.2062L41.4661 42.0759L41.711 41.9592L42.0288 42.2624L42.2558 42.3941L42.4498 42.4256L42.6492 42.416L42.9203 42.3515L43.5145 42.0978L43.9218 41.8934L44.3881 41.9071L45.0278 41.9867L45.3965 41.9784L45.8794 42.8234L46.2329 43.4434L46.636 44.1498L46.9593 44.7191L47.4518 45.5832L47.8769 46.3307L48.3308 47.1277L48.8467 48.0344L48.6803 48.2648L48.5455 48.4486L48.5606 48.76L48.357 48.9259L48.141 49.0261L47.8865 49.2894L47.7131 49.5157L47.7049 49.8408L47.7379 51.4896L47.6953 51.9381L47.5632 52.3235L47.427 52.5183L47.3445 52.6719L47.5412 53.0547L47.7297 53.8255L47.8727 53.9791L48.0488 54.2933L48.1286 54.5909L48.0928 54.7048L47.7393 54.8461L47.6127 54.9667L47.5797 55.4098L47.427 55.5689L47.1684 55.7774L47.0019 56.0161L46.8616 56.1821L46.724 56.2781L46.6566 56.5702L46.5645 56.8665L46.2425 57.0627L46.1875 57.4261L46.1834 57.7266L46.354 58.0269L46.9084 58.6593L46.9648 58.8101L46.6484 59.1915L46.4654 59.4562L46.0142 60.2655L46.0059 60.4136L46.1173 60.7963L46.7901 62.4368L46.9043 62.5699L47.112 62.7263L47.4518 62.7084L47.9649 62.8854L48.2139 63.0884L48.2373 63.1885L48.1795 63.2557L47.9085 63.3915L47.6072 63.5698L47.5027 63.7386L47.482 64.006L47.5508 64.4024L47.4201 64.5314L47.1189 64.685L46.8588 64.9072L46.5988 65.2762L46.1573 65.8386L46.0045 65.9922L45.9385 66.187L45.6868 66.2515L45.2176 66.6341L45.1379 66.8275L45.2135 67.0113L45.4543 67.1663L45.6152 67.3899L45.6579 67.6766V67.8549V67.8604L45.3662 68.1292L44.9865 68.4378L44.5188 68.4982L44.3413 68.6533L44.3812 68.9811L44.5326 69.4433L44.5312 69.8054L44.3881 70.2196L44.0538 70.6737L43.5421 70.9864L43.0592 71.1538L42.6795 71.1551L42.3122 71.188L42.1554 71.2361L41.8719 70.9617L40.6132 70.0551L40.1344 69.5709L39.6901 69.3445L38.6074 68.5682L38.5001 68.3199L38.3667 67.523L38.2264 67.2994L37.8536 67.0113L36.9195 66.6287L36.5563 66.438L36.1766 66.0896L35.6181 65.8427L35.01 65.3365L34.6482 64.9333L34.2424 64.6658L32.9823 64.2927L32.3508 63.9182L31.1691 63.3902L30.6422 63.0541L29.3779 62.6454L29.0024 62.4506L27.7587 61.4945L26.8866 61.1818L26.1836 60.6455L24.0622 59.5056L23.7293 59.1407L23.4047 58.5783L22.9342 58.2437L22.4045 57.4741L21.6176 57.0215L20.8596 56.4221L20.5804 55.8775L20.0769 55.1848L19.9283 54.8159L19.488 54.4455L19.4578 53.7172L19.151 53.3825L19.3711 53.2165L19.6036 53.1438L19.8939 52.0122L19.7412 51.4457L18.9543 50.4183L18.6654 49.9259L18.4604 49.2949L18.1454 48.9205L17.6777 48.1317L17.3915 47.4335L16.7669 46.9274L16.5964 46.745L16.5014 46.4871L16.1534 46.3047L16.1355 45.7697L15.8934 44.7547L15.5467 44.2431L14.2989 43.2884L14.2783 42.9208L14.1793 42.2528L13.9014 41.5299L12.5133 39.2886L12.1652 38.622L11.8186 37.5398L11.5063 36.9266L11.1624 35.8348L10.6437 35.0049L10.3163 34.2861L9.96964 33.3932L9.93937 32.9159L9.30931 32.0956L8.975 31.3439L8.3876 30.7143L7.81393 30.2356L7.56493 29.8968L6.74777 28.2893L6.63633 27.8133L6.08056 26.9299L5.52891 26.2962L5.18085 25.7846L4.73514 25.3251L2.02777 23.9109L1.0744 23.3238L0.7525 23.044L0.603923 22.6037L0.665827 22.3458L0.945096 22.1044L1.33165 22.2909L1.56829 22.2127L1.75262 21.8986L1.75675 21.4227L1.52014 20.8096L0.652077 19.6258L0.718095 19.3748L0.881807 19.0908L0.547519 18.5216L0.182961 18.0648L0 17.7151L0.206346 16.3832L0.404442 16.0457L1.71687 14.6947L2.07729 14.1172L2.64133 13.7606L3.21637 13.216L3.90833 12.8018L4.00877 12.8731L4.10506 12.943L4.11056 13.0829L4.13669 13.2037L4.21373 13.3175L4.22062 13.526L4.31004 13.6659L4.31554 13.8236L4.32243 14.039L4.27702 14.1473L4.32104 14.3339L4.46962 14.6796L4.41185 14.7865L4.27152 14.8565L4.13119 14.9525L3.99089 15.1679L3.77902 15.161L3.47362 15.0664L3.26864 15.1857L3.19298 15.4148L3.25625 15.6055L3.27552 15.7824L3.40896 15.9346L3.79829 15.947L3.44748 16.4353L3.27552 16.6575L3.31265 16.7974L3.52314 16.9168L3.67996 16.925L4.02802 16.7467L4.26464 16.4861L4.39808 16.3406L4.62233 16.283L4.91535 16.4038L5.30466 16.6452L5.75864 16.8578L5.94437 16.9744L6.27727 16.9415L6.55654 16.8921L6.79179 17.0677L7.02979 17.2158L7.08481 17.7192L7.26227 18.0868L7.47964 18.3693L7.74377 18.7068L7.98727 18.8206L8.30093 18.8234L8.72739 18.9482L8.89385 18.8659L9.03968 18.63L9.11672 18.4969L9.33406 18.4393L9.35333 18.2884L9.30793 18.1032L9.37947 17.8879L9.55693 17.6972L10.0137 17.4202L10.2338 17.3036L10.2792 17.1335L10.3617 16.9044L10.3301 16.7782L10.2379 16.6205L10.2599 16.3969L10.381 16.0992L10.5529 15.7508L10.7015 15.3064L10.7579 15.0979L10.9175 14.9649L10.978 14.7729L11.0647 14.5465L11.2614 14.2928L11.2559 14.0198L11.3384 13.8991L11.3453 13.5946L11.5421 12.9691L11.5489 12.8388L11.6356 12.8045L11.7856 12.8443L11.9149 12.987L11.9548 13.1268L12.0084 13.1899L12.1309 13.1776L12.2712 13.098L12.2615 12.9718L12.1597 12.8484L12.1309 12.7743L12.1749 12.6577L12.3881 12.404L12.6206 12.1091L13.12 11.4959L13.4212 11.2463L14.1985 10.9816L14.7887 10.7799L15.3527 10.5879L16.1204 10.3122L17.2044 9.92264L17.9817 9.6428L18.6764 9.14354L19.2143 8.75671L19.6738 8.42343L20.2571 7.99817L21.0467 7.0819L21.5915 6.44956L21.9877 5.98735L22.2628 5.69517L22.4816 4.87354L22.7319 3.93667L22.842 3.51971L22.8902 3.37433L22.9974 3.43603L23.1213 3.53754L23.2712 3.54164L23.4129 3.53754L23.5023 3.47994L23.3703 2.54445L23.3895 2.34005L23.4638 2.09593L23.4487 1.96423L23.2093 1.77771L22.8255 1.40323L22.6659 1.0699L22.5696 0.790106L22.3014 0.604917L22.0248 0.443045L22.0482 0.310014H22.2119L22.6274 0.440324L22.9273 0.399176L23.1502 0.384065L23.3675 0.246932L23.5986 0H23.7541L23.9316 0.0329437L24.2548 0.286698L24.4461 0.436222L24.6772 0.559667L24.8946 0.603536L25.0926 0.617266L25.2316 0.606299L25.3127 0.774994L25.4091 0.982117L25.6553 1.12205L25.9469 1.25509L26.1822 1.48414L26.3417 1.63777L26.5302 1.81885L26.7132 2.06026L26.8783 2.48409L26.9622 2.77213L27.0571 2.93128L27.0351 3.09311L27.2305 3.38801L27.3749 3.55127L27.6281 3.6555L28.1164 3.77346L28.3778 4.03956L28.6089 4.14246L28.8538 4.41676L29.0711 4.49772L29.3463 4.48261L29.6214 4.61568L29.8305 4.87492L29.9653 5.2L30.1744 5.38381L30.2776 5.7171L30.1593 6.10803L30.2708 6.31515L30.4867 6.48523L30.8375 6.66217L31.1581 6.6183L31.3218 6.67728L31.4263 6.83915L31.4855 7.03255L31.6258 7.50163L31.6987 7.79929L31.568 8.08733L31.5199 8.28763L31.5914 8.55374L31.9243 8.684L32.227 8.78966L32.4141 8.99678L32.6232 9.053L32.9162 9.04065L33.2904 8.98992L33.4995 8.87057L33.6329 8.83491L33.7829 8.88702L34.1158 9.00088L34.5203 9.12981L34.8876 9.05576L35.2054 9.02144L35.5204 8.94601L35.8396 8.73068L36.1092 8.73888L36.3087 8.5935L36.5604 8.3603L36.8094 8.12576L37.0034 8.07364L37.3171 8.18612L37.749 8.34795L37.9939 8.55784L38.181 8.61272L38.3763 8.76768L38.7505 8.77044L39.1508 8.68677L39.4714 8.42891L39.8029 8.35344L40.0299 8.28077L40.239 8.32464L41.0466 8.79786L41.268 9.04203L41.5459 9.09004L41.7743 9.22308L42.1554 9.36712L42.3644 9.51526L42.6313 9.60442L42.8267 9.81016L43.1335 9.93771L43.4004 10.0077L43.52 10.175V10.2861L43.4843 10.3602L43.2023 10.7964L42.6492 11.6509L42.1512 12.4205L41.3684 13.633L40.9324 14.3106L41.0438 14.3394L41.7248 14.6357L41.894 14.6467L42.143 14.5712L42.3053 14.4533L42.458 14.4368L42.6176 14.5506L42.8418 14.6974L43.0028 15.1295L43.1225 15.3407L43.4031 15.5012L43.703 15.7687L43.9011 16.0526Z"/>
</mask>
<path d="M43.9011 16.0526L43.8777 16.3023L43.7539 16.4024L43.5641 16.4243L43.2724 16.246L43.0592 16.2913L42.8459 16.3023L42.5461 16.0951L42.4429 15.8908L42.2076 15.7234L41.7206 15.7906L41.319 15.7947L40.9833 15.7563L40.682 15.8126L40.4261 16.0279L40.2349 16.2803L40.0106 16.4915L39.3517 16.6328L39.0009 16.6369L38.6859 16.7755L38.2168 16.8262L37.8962 16.9497L37.3281 17.0169L36.6471 17.0814L36.2674 17.2693L36.1161 17.3516L35.7295 17.6108L35.0568 18.0196L34.6853 18.1622L34.2369 18.6053L33.699 19.0209L33.3496 19.2417L32.8364 19.3433L32.6232 19.4557L32.5447 19.5888L32.5902 19.7451L32.5021 20.1457L32.3453 20.885L32.3026 21.2485L32.2641 21.4213L31.9243 22.0166L31.5584 22.5694L31.3782 22.9356L31.2778 23.2045L31.3906 23.4267L31.5391 23.8286L31.6643 24.1496L31.7001 24.3677L31.6561 24.6173L31.502 24.8464L31.2585 24.9959L30.9311 25.037L30.257 25.4389L29.5059 26.0342L29.2596 26.3113L29.1894 26.5733L29.0808 26.9821L29.1262 27.1947L29.2596 27.34L29.3944 27.6871L29.4054 27.8668L29.294 27.9669L29.0808 27.9888L28.8896 28.0232L28.7437 28.1123L28.5979 28.0903L28.4644 28.1342V28.281L28.5085 28.4484L28.4865 28.628L28.3971 28.7391L28.3186 28.8173L28.3971 28.9298L28.5305 29.0313L28.7327 29.1987L29.0134 29.5237L29.2266 29.58L29.4054 29.6924L29.4274 29.8708L29.36 30.0505L29.2032 30.1286L29.1922 30.2864L29.4054 30.477L29.5512 30.6115L29.6971 30.8131L29.8319 31.0943V31.2726L29.9777 31.4976L30.0671 31.6882V31.8679L30.3024 32.0462L30.5046 32.182L30.6491 32.3055L30.7949 32.3837L30.8293 32.5181L30.81 32.7225L31.0191 33.0599L31.4029 33.3123L31.7139 33.6785L31.9147 33.9446L32.2875 34.3726L32.3012 34.8636L31.8404 35.4274L31.3782 35.9925L32.1334 35.9774L32.9038 35.9884L33.71 36.1503L34.2534 36.3053L34.5849 36.3752L34.8202 36.5563L34.9316 36.8375L35.021 37.0679L35.0444 37.3999L35.3801 37.6701L35.3567 37.9279L35.3471 38.2914L35.4956 38.2969L36.482 38.2983L37.5606 38.2996L38.5978 38.2324L38.9899 38.1447L39.4631 37.703L39.7479 37.5727L40.0216 37.3669L40.3546 36.9911L40.6187 36.8224L40.8416 36.6139L41.1731 36.4054L41.3107 36.2518L41.4235 36.1955L41.6808 36.094L41.5693 36.297L41.4826 36.5041L41.4565 36.8031L41.5789 37.1296L41.4771 37.3738L41.3107 37.5919L41.308 38.1666L41.3052 38.9814L41.3011 39.6795L41.2969 40.5547L41.2928 41.5464L41.2901 42.2062L41.4661 42.0759L41.711 41.9592L42.0288 42.2624L42.2558 42.3941L42.4498 42.4256L42.6492 42.416L42.9203 42.3515L43.5145 42.0978L43.9218 41.8934L44.3881 41.9071L45.0278 41.9867L45.3965 41.9784L45.8794 42.8234L46.2329 43.4434L46.636 44.1498L46.9593 44.7191L47.4518 45.5832L47.8769 46.3307L48.3308 47.1277L48.8467 48.0344L48.6803 48.2648L48.5455 48.4486L48.5606 48.76L48.357 48.9259L48.141 49.0261L47.8865 49.2894L47.7131 49.5157L47.7049 49.8408L47.7379 51.4896L47.6953 51.9381L47.5632 52.3235L47.427 52.5183L47.3445 52.6719L47.5412 53.0547L47.7297 53.8255L47.8727 53.9791L48.0488 54.2933L48.1286 54.5909L48.0928 54.7048L47.7393 54.8461L47.6127 54.9667L47.5797 55.4098L47.427 55.5689L47.1684 55.7774L47.0019 56.0161L46.8616 56.1821L46.724 56.2781L46.6566 56.5702L46.5645 56.8665L46.2425 57.0627L46.1875 57.4261L46.1834 57.7266L46.354 58.0269L46.9084 58.6593L46.9648 58.8101L46.6484 59.1915L46.4654 59.4562L46.0142 60.2655L46.0059 60.4136L46.1173 60.7963L46.7901 62.4368L46.9043 62.5699L47.112 62.7263L47.4518 62.7084L47.9649 62.8854L48.2139 63.0884L48.2373 63.1885L48.1795 63.2557L47.9085 63.3915L47.6072 63.5698L47.5027 63.7386L47.482 64.006L47.5508 64.4024L47.4201 64.5314L47.1189 64.685L46.8588 64.9072L46.5988 65.2762L46.1573 65.8386L46.0045 65.9922L45.9385 66.187L45.6868 66.2515L45.2176 66.6341L45.1379 66.8275L45.2135 67.0113L45.4543 67.1663L45.6152 67.3899L45.6579 67.6766V67.8549V67.8604L45.3662 68.1292L44.9865 68.4378L44.5188 68.4982L44.3413 68.6533L44.3812 68.9811L44.5326 69.4433L44.5312 69.8054L44.3881 70.2196L44.0538 70.6737L43.5421 70.9864L43.0592 71.1538L42.6795 71.1551L42.3122 71.188L42.1554 71.2361L41.8719 70.9617L40.6132 70.0551L40.1344 69.5709L39.6901 69.3445L38.6074 68.5682L38.5001 68.3199L38.3667 67.523L38.2264 67.2994L37.8536 67.0113L36.9195 66.6287L36.5563 66.438L36.1766 66.0896L35.6181 65.8427L35.01 65.3365L34.6482 64.9333L34.2424 64.6658L32.9823 64.2927L32.3508 63.9182L31.1691 63.3902L30.6422 63.0541L29.3779 62.6454L29.0024 62.4506L27.7587 61.4945L26.8866 61.1818L26.1836 60.6455L24.0622 59.5056L23.7293 59.1407L23.4047 58.5783L22.9342 58.2437L22.4045 57.4741L21.6176 57.0215L20.8596 56.4221L20.5804 55.8775L20.0769 55.1848L19.9283 54.8159L19.488 54.4455L19.4578 53.7172L19.151 53.3825L19.3711 53.2165L19.6036 53.1438L19.8939 52.0122L19.7412 51.4457L18.9543 50.4183L18.6654 49.9259L18.4604 49.2949L18.1454 48.9205L17.6777 48.1317L17.3915 47.4335L16.7669 46.9274L16.5964 46.745L16.5014 46.4871L16.1534 46.3047L16.1355 45.7697L15.8934 44.7547L15.5467 44.2431L14.2989 43.2884L14.2783 42.9208L14.1793 42.2528L13.9014 41.5299L12.5133 39.2886L12.1652 38.622L11.8186 37.5398L11.5063 36.9266L11.1624 35.8348L10.6437 35.0049L10.3163 34.2861L9.96964 33.3932L9.93937 32.9159L9.30931 32.0956L8.975 31.3439L8.3876 30.7143L7.81393 30.2356L7.56493 29.8968L6.74777 28.2893L6.63633 27.8133L6.08056 26.9299L5.52891 26.2962L5.18085 25.7846L4.73514 25.3251L2.02777 23.9109L1.0744 23.3238L0.7525 23.044L0.603923 22.6037L0.665827 22.3458L0.945096 22.1044L1.33165 22.2909L1.56829 22.2127L1.75262 21.8986L1.75675 21.4227L1.52014 20.8096L0.652077 19.6258L0.718095 19.3748L0.881807 19.0908L0.547519 18.5216L0.182961 18.0648L0 17.7151L0.206346 16.3832L0.404442 16.0457L1.71687 14.6947L2.07729 14.1172L2.64133 13.7606L3.21637 13.216L3.90833 12.8018L4.00877 12.8731L4.10506 12.943L4.11056 13.0829L4.13669 13.2037L4.21373 13.3175L4.22062 13.526L4.31004 13.6659L4.31554 13.8236L4.32243 14.039L4.27702 14.1473L4.32104 14.3339L4.46962 14.6796L4.41185 14.7865L4.27152 14.8565L4.13119 14.9525L3.99089 15.1679L3.77902 15.161L3.47362 15.0664L3.26864 15.1857L3.19298 15.4148L3.25625 15.6055L3.27552 15.7824L3.40896 15.9346L3.79829 15.947L3.44748 16.4353L3.27552 16.6575L3.31265 16.7974L3.52314 16.9168L3.67996 16.925L4.02802 16.7467L4.26464 16.4861L4.39808 16.3406L4.62233 16.283L4.91535 16.4038L5.30466 16.6452L5.75864 16.8578L5.94437 16.9744L6.27727 16.9415L6.55654 16.8921L6.79179 17.0677L7.02979 17.2158L7.08481 17.7192L7.26227 18.0868L7.47964 18.3693L7.74377 18.7068L7.98727 18.8206L8.30093 18.8234L8.72739 18.9482L8.89385 18.8659L9.03968 18.63L9.11672 18.4969L9.33406 18.4393L9.35333 18.2884L9.30793 18.1032L9.37947 17.8879L9.55693 17.6972L10.0137 17.4202L10.2338 17.3036L10.2792 17.1335L10.3617 16.9044L10.3301 16.7782L10.2379 16.6205L10.2599 16.3969L10.381 16.0992L10.5529 15.7508L10.7015 15.3064L10.7579 15.0979L10.9175 14.9649L10.978 14.7729L11.0647 14.5465L11.2614 14.2928L11.2559 14.0198L11.3384 13.8991L11.3453 13.5946L11.5421 12.9691L11.5489 12.8388L11.6356 12.8045L11.7856 12.8443L11.9149 12.987L11.9548 13.1268L12.0084 13.1899L12.1309 13.1776L12.2712 13.098L12.2615 12.9718L12.1597 12.8484L12.1309 12.7743L12.1749 12.6577L12.3881 12.404L12.6206 12.1091L13.12 11.4959L13.4212 11.2463L14.1985 10.9816L14.7887 10.7799L15.3527 10.5879L16.1204 10.3122L17.2044 9.92264L17.9817 9.6428L18.6764 9.14354L19.2143 8.75671L19.6738 8.42343L20.2571 7.99817L21.0467 7.0819L21.5915 6.44956L21.9877 5.98735L22.2628 5.69517L22.4816 4.87354L22.7319 3.93667L22.842 3.51971L22.8902 3.37433L22.9974 3.43603L23.1213 3.53754L23.2712 3.54164L23.4129 3.53754L23.5023 3.47994L23.3703 2.54445L23.3895 2.34005L23.4638 2.09593L23.4487 1.96423L23.2093 1.77771L22.8255 1.40323L22.6659 1.0699L22.5696 0.790106L22.3014 0.604917L22.0248 0.443045L22.0482 0.310014H22.2119L22.6274 0.440324L22.9273 0.399176L23.1502 0.384065L23.3675 0.246932L23.5986 0H23.7541L23.9316 0.0329437L24.2548 0.286698L24.4461 0.436222L24.6772 0.559667L24.8946 0.603536L25.0926 0.617266L25.2316 0.606299L25.3127 0.774994L25.4091 0.982117L25.6553 1.12205L25.9469 1.25509L26.1822 1.48414L26.3417 1.63777L26.5302 1.81885L26.7132 2.06026L26.8783 2.48409L26.9622 2.77213L27.0571 2.93128L27.0351 3.09311L27.2305 3.38801L27.3749 3.55127L27.6281 3.6555L28.1164 3.77346L28.3778 4.03956L28.6089 4.14246L28.8538 4.41676L29.0711 4.49772L29.3463 4.48261L29.6214 4.61568L29.8305 4.87492L29.9653 5.2L30.1744 5.38381L30.2776 5.7171L30.1593 6.10803L30.2708 6.31515L30.4867 6.48523L30.8375 6.66217L31.1581 6.6183L31.3218 6.67728L31.4263 6.83915L31.4855 7.03255L31.6258 7.50163L31.6987 7.79929L31.568 8.08733L31.5199 8.28763L31.5914 8.55374L31.9243 8.684L32.227 8.78966L32.4141 8.99678L32.6232 9.053L32.9162 9.04065L33.2904 8.98992L33.4995 8.87057L33.6329 8.83491L33.7829 8.88702L34.1158 9.00088L34.5203 9.12981L34.8876 9.05576L35.2054 9.02144L35.5204 8.94601L35.8396 8.73068L36.1092 8.73888L36.3087 8.5935L36.5604 8.3603L36.8094 8.12576L37.0034 8.07364L37.3171 8.18612L37.749 8.34795L37.9939 8.55784L38.181 8.61272L38.3763 8.76768L38.7505 8.77044L39.1508 8.68677L39.4714 8.42891L39.8029 8.35344L40.0299 8.28077L40.239 8.32464L41.0466 8.79786L41.268 9.04203L41.5459 9.09004L41.7743 9.22308L42.1554 9.36712L42.3644 9.51526L42.6313 9.60442L42.8267 9.81016L43.1335 9.93771L43.4004 10.0077L43.52 10.175V10.2861L43.4843 10.3602L43.2023 10.7964L42.6492 11.6509L42.1512 12.4205L41.3684 13.633L40.9324 14.3106L41.0438 14.3394L41.7248 14.6357L41.894 14.6467L42.143 14.5712L42.3053 14.4533L42.458 14.4368L42.6176 14.5506L42.8418 14.6974L43.0028 15.1295L43.1225 15.3407L43.4031 15.5012L43.703 15.7687L43.9011 16.0526Z" fill="var(--fill-0, #71B219)" stroke="var(--stroke-0, white)" mask="url(#path-1-inside-1_0_99)"/>
</g>
</svg>
