<svg preserveAspectRatio="none" width="100%" height="100%" overflow="visible" style="display: block;" viewBox="0 0 59 48" fill="none" xmlns="http://www.w3.org/2000/svg"><g id="PF"><mask id="path-1-inside-1_0_103" fill="white"><path d="M44 0L44 1L44 1L44 0L44 0L44 0L44 0L44 0L44 0L44 0ZM46 1L46 1L46 0L46 0L46 0L46 0L46 0L46 0L46 1ZM44 2L44 3L44 2L44 2L44 2L44 2L44 2ZM48 4L49 4L49 4L49 4L48 4L48 4L48 4L48 4L48 4ZM48 4L48 5V4L48 4H48L48 4ZM50 7L50 7L50 6L50 6L50 6L50 7L50 7ZM25 28L25 28L25 28L25 27L24 27L25 27L25 28ZM35 29L35 29L35 28L35 28L35 29ZM23 30L23 30L23 30L23 30L23 29L23 29L23 29L23 29L23 29L23 29L23 29L23 29L23 30ZM0 31L0 31L0 31L0 31L0 31L0 31L0 31L0 31ZM31 31L30 31L30 31H30L30 31L31 31ZM31 31L31 31L31 31L31 31L31 31L31 31L31 31ZM0 32L0 32L0 32L0 31L0 31L0 31L1 32L0 32ZM7 34L6 35L6 34L6 34L6 34L6 34L7 34L7 34L7 34ZM8 35L9 35L9 36L9 36L9 36L9 36L8 35L8 35L8 35L7 35L7 34L7 34L8 34L8 34L8 35L8 35ZM41 36L41 36L41 36L41 36L41 36L41 35L41 35L42 35L42 35L42 35L42 35L42 35L41 35L41 36L41 36L41 36L41 36ZM41 37L41 37L41 37L41 37L41 37L41 36L41 37L41 37L41 37ZM56 38L56 38L56 37L56 37L56 38ZM42 38L42 38L42 38L42 38L41 38L42 38ZM59 38L59 39L59 38L59 38L58 38L58 38L58 38L58 38L58 38L58 38L58 38L59 38L59 38ZM50 48L50 48L50 48L50 48L50 48L50 48L50 48L50 48Z"/></mask><path d="M44 0L44 1L44 1L44 0L44 0L44 0L44 0L44 0L44 0L44 0ZM46 1L46 1L46 0L46 0L46 0L46 0L46 0L46 0L46 1ZM44 2L44 3L44 2L44 2L44 2L44 2L44 2ZM48 4L49 4L49 4L49 4L48 4L48 4L48 4L48 4L48 4ZM48 4L48 5V4L48 4H48L48 4ZM50 7L50 7L50 6L50 6L50 6L50 7L50 7ZM25 28L25 28L25 28L25 27L24 27L25 27L25 28ZM35 29L35 29L35 28L35 28L35 29ZM23 30L23 30L23 30L23 30L23 29L23 29L23 29L23 29L23 29L23 29L23 29L23 29L23 30ZM0 31L0 31L0 31L0 31L0 31L0 31L0 31L0 31ZM31 31L30 31L30 31H30L30 31L31 31ZM31 31L31 31L31 31L31 31L31 31L31 31L31 31ZM0 32L0 32L0 32L0 31L0 31L0 31L1 32L0 32ZM7 34L6 35L6 34L6 34L6 34L6 34L7 34L7 34L7 34ZM8 35L9 35L9 36L9 36L9 36L9 36L8 35L8 35L8 35L7 35L7 34L7 34L8 34L8 34L8 35L8 35ZM41 36L41 36L41 36L41 36L41 36L41 35L41 35L42 35L42 35L42 35L42 35L42 35L41 35L41 36L41 36L41 36L41 36ZM41 37L41 37L41 37L41 37L41 37L41 36L41 37L41 37L41 37ZM56 38L56 38L56 37L56 37L56 38ZM42 38L42 38L42 38L42 38L41 38L42 38ZM59 38L59 39L59 38L59 38L58 38L58 38L58 38L58 38L58 38L58 38L58 38L59 38L59 38ZM50 48L50 48L50 48L50 48L50 48L50 48L50 48L50 48Z" fill="var(--fill-0,#71B219)" stroke="var(--stroke-0,white)" mask="url(#path-1-inside-1_0_103)"/></g></svg>