<svg preserveAspectRatio="none" width="100%" height="100%" overflow="visible" style="display: block;" viewBox="0 0 58.7559 47.963" fill="none" xmlns="http://www.w3.org/2000/svg">
<g id="PF">
<mask id="path-1-inside-1_0_103" fill="white">
<path d="M44.1666 0.497924L43.7883 0.588466L43.6081 0.571974L43.4719 0.256517L43.5214 0.0617434L43.582 0L44.2258 0.0768129L44.2808 0.219471L44.2712 0.355265L44.1666 0.497924ZM46.1614 0.613122L45.911 0.643303L45.8697 0.451292L45.9468 0.349781L46.0541 0.301768L46.2453 0.360749L46.3457 0.444427L46.3402 0.515756L46.1614 0.613122ZM44.1556 2.49506L44.0717 2.56639L43.9149 2.33457L43.8901 2.2372L44.1735 2.11648L44.3276 2.17956L44.1556 2.49506ZM48.2153 3.53892L48.7931 3.74052L48.9747 3.71858L48.7903 3.9175L48.2139 4.02583L48.0227 4.12186L47.7902 4.06012L47.665 3.82968L48.2153 3.53892ZM48.0777 4.45653L47.7916 4.75968V4.43736L47.8948 4.39483H47.9883L48.0777 4.45653ZM49.6557 6.7253L49.514 6.7911L49.5043 6.37551L49.6873 6.45505L49.7588 6.52227L49.7286 6.63613L49.6557 6.7253ZM24.9454 27.7159L24.9207 27.8956L24.8478 27.7227L24.6098 27.4457L24.5217 27.3222L24.6277 27.3414L24.9454 27.7159ZM34.75 28.6719L34.6812 28.7144L34.7693 28.399L34.8683 28.3592L34.75 28.6719ZM23.2643 29.6019L23.2822 29.6705L23.2024 29.6664L23.0594 29.4648L23.0085 29.2905L22.9177 29.0917L22.7925 28.9476L22.7787 28.8146L22.7746 28.6047L22.9163 28.9257L23.0511 29.1836L23.1488 29.3948L23.2643 29.6019ZM0.176086 30.9105L0.105928 30.9407L0.0316393 30.868L0 30.7569L0.0261343 30.5772L0.213231 30.6951L0.287519 30.7747L0.176086 30.9105ZM30.6601 30.8186L30.5074 30.8419L30.1346 30.6046H30.2776L30.4909 30.7528L30.6601 30.8186ZM31.1636 30.7596L31.3741 30.9557L31.0948 30.8213L30.7399 30.7637L30.8747 30.7281L31.0714 30.7335L31.1636 30.7596ZM0.396197 31.7897L0.243495 31.7952L0.104553 31.7335L0.138942 31.322L0.176086 31.2369L0.390692 31.3755L0.570909 31.7349L0.396197 31.7897ZM6.5593 34.4631L6.43824 34.5674L6.27729 34.4933L6.20575 34.3931L6.17961 34.2861L6.21675 34.1586L6.57719 34.1764L6.67899 34.2327L6.5593 34.4631ZM8.45776 35.0446L9.01354 35.2313L9.11672 35.5343L8.99841 35.736L8.71777 35.6866L8.57882 35.5755L8.38347 35.2134L7.84007 35.2957L7.46451 35.2244L7.25678 34.7526L7.24852 34.5386L7.33932 34.4082L7.73828 34.2656L8.23628 34.3698L8.42612 34.6373L8.45776 35.0446ZM41.3231 35.7141L41.3423 35.7908L41.202 35.7813L41.1607 35.7552L41.1635 35.6125L41.2653 35.4397L41.3451 35.2943L41.5074 35.1585L41.7977 35.0227L41.938 34.9651L41.9834 34.9967L41.9298 35.0173L41.4496 35.3026L41.2997 35.5028L41.2337 35.6427L41.246 35.6866L41.3231 35.7141ZM41.2433 37.0528L41.2708 37.1639L41.1264 37.0898L40.9902 36.8855L40.7467 36.6317L40.6889 36.5274L40.876 36.6262L40.9984 36.7744L41.2433 37.0528ZM56.1393 37.6687L56.1407 37.7441L55.7692 37.3587L55.9151 37.3889L56.1393 37.6687ZM41.8018 37.821L41.8541 37.9677L41.7605 37.8991L41.462 37.7565L41.429 37.6371L41.8018 37.821ZM58.7559 38.4848L58.6775 38.5726L58.6706 38.4875L58.5619 38.4464L58.4119 38.36L58.2083 38.2612L58.0983 38.2448L58.0433 38.1872L58.1203 38.157L58.2455 38.2022L58.4216 38.2928L58.6252 38.3833L58.7559 38.4848ZM50.2169 47.8862L50.1041 47.963L50.1454 47.8588L50.0587 47.6311L49.9734 47.5982L50.0587 47.5337L50.1798 47.7052L50.2169 47.8862Z"/>
</mask>
<path d="M44.1666 0.497924L43.7883 0.588466L43.6081 0.571974L43.4719 0.256517L43.5214 0.0617434L43.582 0L44.2258 0.0768129L44.2808 0.219471L44.2712 0.355265L44.1666 0.497924ZM46.1614 0.613122L45.911 0.643303L45.8697 0.451292L45.9468 0.349781L46.0541 0.301768L46.2453 0.360749L46.3457 0.444427L46.3402 0.515756L46.1614 0.613122ZM44.1556 2.49506L44.0717 2.56639L43.9149 2.33457L43.8901 2.2372L44.1735 2.11648L44.3276 2.17956L44.1556 2.49506ZM48.2153 3.53892L48.7931 3.74052L48.9747 3.71858L48.7903 3.9175L48.2139 4.02583L48.0227 4.12186L47.7902 4.06012L47.665 3.82968L48.2153 3.53892ZM48.0777 4.45653L47.7916 4.75968V4.43736L47.8948 4.39483H47.9883L48.0777 4.45653ZM49.6557 6.7253L49.514 6.7911L49.5043 6.37551L49.6873 6.45505L49.7588 6.52227L49.7286 6.63613L49.6557 6.7253ZM24.9454 27.7159L24.9207 27.8956L24.8478 27.7227L24.6098 27.4457L24.5217 27.3222L24.6277 27.3414L24.9454 27.7159ZM34.75 28.6719L34.6812 28.7144L34.7693 28.399L34.8683 28.3592L34.75 28.6719ZM23.2643 29.6019L23.2822 29.6705L23.2024 29.6664L23.0594 29.4648L23.0085 29.2905L22.9177 29.0917L22.7925 28.9476L22.7787 28.8146L22.7746 28.6047L22.9163 28.9257L23.0511 29.1836L23.1488 29.3948L23.2643 29.6019ZM0.176086 30.9105L0.105928 30.9407L0.0316393 30.868L0 30.7569L0.0261343 30.5772L0.213231 30.6951L0.287519 30.7747L0.176086 30.9105ZM30.6601 30.8186L30.5074 30.8419L30.1346 30.6046H30.2776L30.4909 30.7528L30.6601 30.8186ZM31.1636 30.7596L31.3741 30.9557L31.0948 30.8213L30.7399 30.7637L30.8747 30.7281L31.0714 30.7335L31.1636 30.7596ZM0.396197 31.7897L0.243495 31.7952L0.104553 31.7335L0.138942 31.322L0.176086 31.2369L0.390692 31.3755L0.570909 31.7349L0.396197 31.7897ZM6.5593 34.4631L6.43824 34.5674L6.27729 34.4933L6.20575 34.3931L6.17961 34.2861L6.21675 34.1586L6.57719 34.1764L6.67899 34.2327L6.5593 34.4631ZM8.45776 35.0446L9.01354 35.2313L9.11672 35.5343L8.99841 35.736L8.71777 35.6866L8.57882 35.5755L8.38347 35.2134L7.84007 35.2957L7.46451 35.2244L7.25678 34.7526L7.24852 34.5386L7.33932 34.4082L7.73828 34.2656L8.23628 34.3698L8.42612 34.6373L8.45776 35.0446ZM41.3231 35.7141L41.3423 35.7908L41.202 35.7813L41.1607 35.7552L41.1635 35.6125L41.2653 35.4397L41.3451 35.2943L41.5074 35.1585L41.7977 35.0227L41.938 34.9651L41.9834 34.9967L41.9298 35.0173L41.4496 35.3026L41.2997 35.5028L41.2337 35.6427L41.246 35.6866L41.3231 35.7141ZM41.2433 37.0528L41.2708 37.1639L41.1264 37.0898L40.9902 36.8855L40.7467 36.6317L40.6889 36.5274L40.876 36.6262L40.9984 36.7744L41.2433 37.0528ZM56.1393 37.6687L56.1407 37.7441L55.7692 37.3587L55.9151 37.3889L56.1393 37.6687ZM41.8018 37.821L41.8541 37.9677L41.7605 37.8991L41.462 37.7565L41.429 37.6371L41.8018 37.821ZM58.7559 38.4848L58.6775 38.5726L58.6706 38.4875L58.5619 38.4464L58.4119 38.36L58.2083 38.2612L58.0983 38.2448L58.0433 38.1872L58.1203 38.157L58.2455 38.2022L58.4216 38.2928L58.6252 38.3833L58.7559 38.4848ZM50.2169 47.8862L50.1041 47.963L50.1454 47.8588L50.0587 47.6311L49.9734 47.5982L50.0587 47.5337L50.1798 47.7052L50.2169 47.8862Z" fill="var(--fill-0, #71B219)" stroke="var(--stroke-0, white)" mask="url(#path-1-inside-1_0_103)"/>
</g>
</svg>
