<svg preserveAspectRatio="none" width="100%" height="100%" overflow="visible" style="display: block;" viewBox="0 0 58 40" fill="none" xmlns="http://www.w3.org/2000/svg"><g id="PG"><mask id="path-1-inside-1_0_69" fill="white"><path d="M49 39L50 39L50 39L50 40L49 40L49 40L48 39L48 39L48 39L48 39L48 39L48 38L48 38L48 38L49 39ZM52 39L52 39L52 39L51 39L51 39L51 39L51 38L51 39L51 38L52 38L52 39ZM39 36L39 36L38 36L38 36L38 35L39 35L39 36ZM40 33H40L40 33L40 33L40 33L40 34L40 34L39 34L39 33L39 33L39 33L38 32L38 32L38 32L39 32L39 33L39 33L40 33ZM37 31L38 31L38 31L38 31L39 31L39 32L39 32L39 32L38 32L39 32L38 32L38 32L38 32L37 32L37 32L37 32L37 31L37 31L37 31L37 31L37 31ZM37 31L37 31L36 31L36 31L36 30L36 30L36 30L37 31L37 31L37 31ZM45 29L46 29L46 29L46 30L46 30L47 30L47 30L47 30L47 30L47 30L47 30L47 30L46 30L46 30L46 30L46 30L46 30L45 29L45 29L45 29ZM10 28L11 28L10 28L10 28L9 27L9 27L9 27L10 28L10 28ZM40 28L40 29L39 28L40 28L40 28L40 28L39 28L39 27L40 27L40 27L40 28L40 28L40 28ZM10 27L10 27L10 27L10 27L10 27L10 27L10 27L10 27ZM28 17L28 17L27 17L27 17L27 16L27 16L27 16L27 16L28 16L28 16L28 17L28 17ZM58 20L58 21L58 21L58 21L58 21L58 21L57 21L57 21L57 21L56 21L56 21L56 20L55 20L56 19L55 19L55 19L55 19L54 18L54 18L54 18L54 18L54 17L54 17L54 16L54 16L54 16L54 16L54 16L55 16L55 16L55 17L55 17L56 17L56 18L56 18L56 18L57 18L57 19L57 19L57 19L58 19L58 20L58 20L58 20ZM24 16L24 16L24 15L24 15L24 15L24 15L24 15L25 15L24 16ZM53 16L53 16L53 15L53 15L53 14L53 14L53 14L53 14L53 14L53 14L54 15L53 15L53 16ZM20 13L20 13L20 13L19 13L19 12L20 12L20 12L20 12L20 13L20 13ZM43 11L43 11L44 11L44 11L44 11L45 11L44 12L44 12L45 12L44 13L44 13L44 14L44 14L44 14L43 14L43 14L43 14L43 15L44 15L43 16L43 16L42 16L42 16L41 16L41 16L41 16L41 17L41 17L40 17L40 18L40 18L39 18L39 18L38 18L38 18L38 18L38 18L37 19L37 19L36 19L35 19L34 19L34 19L34 19L33 18L33 18L32 18L32 18L32 18L31 18L30 17L30 17L30 17L29 17L29 16L29 16L29 16L30 16L30 16L30 16L30 16L31 16L31 16L32 16L32 16L33 16L33 16L34 16L34 16L35 16L35 16L35 14L36 14L36 14L36 14L36 14L36 14L36 15L36 15L36 16L36 16L36 16L37 16L37 16L38 16L38 16L38 16L38 16L39 16L39 16L39 15L39 15L40 14L40 14L41 14L41 14L41 14L42 14L42 13L42 13L41 12L41 11L41 11L41 11L42 11L42 11L42 11L43 11ZM49 10L49 11L49 10L49 10L49 10L49 10ZM46 7L46 7L45 7L45 7L45 6L46 6L46 7ZM43 6L43 6L43 6L43 6L43 6L43 6L43 6L43 6ZM43 6H43L43 5L43 5L43 5L43 6L43 6ZM13 9L13 9L14 9L14 9L14 10L14 10L14 10L14 10L15 10L15 10L16 11L16 11L16 12L17 12L17 12L19 13L19 14L19 15L19 16L19 16L20 16L21 16L21 16L24 18L24 18L25 18L25 18L25 18L26 18L26 18L26 18L26 19L27 19L27 19L27 19L27 20L27 20L27 20L26 21L25 21L24 21L24 21L24 21L24 21L24 22L24 23L25 23L25 24L26 24L26 24L26 25L27 25L27 25L28 26L28 26L28 27L28 27L28 28L28 28L29 28L29 28L30 29L30 30L30 30L31 30L32 29L32 29L32 30L32 30L32 30L32 30L32 31L32 31L33 32L33 32L34 32L35 32L35 32L35 32L35 32L35 32L35 32L34 32L34 33L35 33L35 33L35 33L35 34L36 34L36 34L36 34L37 34L37 34L38 34L39 34L38 34L38 35L37 34L37 35L37 35L38 35L38 35L38 35L37 36L37 36L36 36L36 36L35 36L35 35L35 35L35 35L34 35L34 35L34 35L33 34L31 34L31 34L30 34L30 34L30 34L29 34L29 34L29 34L28 34L28 34L28 34L27 34L27 34L26 33L26 33L26 33L26 32L25 32L25 32L24 31L24 31L23 30L23 30L24 30L23 30L23 30L22 30L22 29L22 28L22 28L21 27L21 27L20 26L20 26L20 26L20 26L20 26L19 26L19 25L19 25L18 25L18 25L17 25L17 25L16 25L16 25L16 25L16 24L15 24L15 24L15 24L14 24L14 24L14 24L14 24L14 24L14 24L13 24L13 24L13 25L13 25L12 24L12 24L12 24L11 24L11 24L11 23L11 24L12 25L12 25L12 25L12 26L12 26L11 26L11 26L10 25L10 26L10 26L10 26L11 26L10 26L9 26L9 27L8 27L8 27L7 27L7 27L6 27L6 27L6 26L6 26L6 26L6 26L5 26L6 26L6 26L6 27L6 27L7 27L8 27L8 27L8 27L9 27L9 28L9 28L10 28L10 29L10 29L10 29L9 30L9 30L8 30L7 31L6 31L6 30L6 30L6 30L5 30L4 30L3 30L3 30L2 30L2 30L2 30L1 30L1 30L0 30L0 30V29V28V27L0 27V26V25V24V24L0 23V22V21L0 21L0 21L0 20L0 20L0 19V19V18V17L0 16V16V15V14V13L0 13V12V11V10V9L0 9V8V7L0 6V6V5V5V5L0 5L1 5L1 5L3 6L4 6L4 6L4 6L4 6L5 7L6 7L8 8L8 8L9 8L10 8L10 8L11 8L11 9L12 9L12 9L12 9L13 9ZM47 13L46 13L46 13L46 13L46 13L46 12L46 12L46 12L46 11L46 11L45 10L44 9L44 8L44 8L44 8L43 8L43 8L42 8L42 8L41 7L41 7L41 6L39 6L39 6H39L38 5L38 5L38 5L38 5L39 5L40 6L40 6L40 6L41 6L41 6L42 7L42 7L43 7L43 7L44 8L44 8L44 8L47 10L47 11L47 12L47 12L47 12L47 12L47 13L47 13ZM37 5L36 5L36 5L36 5L35 4L35 4L35 4L36 4L36 4L37 4L37 4L37 4L37 5L37 5ZM27 4L27 4L27 4L26 4L27 4L27 4L27 3L27 4ZM24 2L25 3L25 3L25 2L25 2L25 2L25 3L25 3L25 3L25 3L24 3L24 3L24 3L23 3L23 3L22 3L22 3L22 3L22 3L22 3L22 3L22 3L22 2L22 2L23 2L23 2L24 2ZM34 1L34 1L34 1L34 1L34 0L34 0L34 0L34 0L34 0L34 1Z"/></mask><path d="M49 39L50 39L50 39L50 40L49 40L49 40L48 39L48 39L48 39L48 39L48 39L48 38L48 38L48 38L49 39ZM52 39L52 39L52 39L51 39L51 39L51 39L51 38L51 39L51 38L52 38L52 39ZM39 36L39 36L38 36L38 36L38 35L39 35L39 36ZM40 33H40L40 33L40 33L40 33L40 34L40 34L39 34L39 33L39 33L39 33L38 32L38 32L38 32L39 32L39 33L39 33L40 33ZM37 31L38 31L38 31L38 31L39 31L39 32L39 32L39 32L38 32L39 32L38 32L38 32L38 32L37 32L37 32L37 32L37 31L37 31L37 31L37 31L37 31ZM37 31L37 31L36 31L36 31L36 30L36 30L36 30L37 31L37 31L37 31ZM45 29L46 29L46 29L46 30L46 30L47 30L47 30L47 30L47 30L47 30L47 30L47 30L46 30L46 30L46 30L46 30L46 30L45 29L45 29L45 29ZM10 28L11 28L10 28L10 28L9 27L9 27L9 27L10 28L10 28ZM40 28L40 29L39 28L40 28L40 28L40 28L39 28L39 27L40 27L40 27L40 28L40 28L40 28ZM10 27L10 27L10 27L10 27L10 27L10 27L10 27L10 27ZM28 17L28 17L27 17L27 17L27 16L27 16L27 16L27 16L28 16L28 16L28 17L28 17ZM58 20L58 21L58 21L58 21L58 21L58 21L57 21L57 21L57 21L56 21L56 21L56 20L55 20L56 19L55 19L55 19L55 19L54 18L54 18L54 18L54 18L54 17L54 17L54 16L54 16L54 16L54 16L54 16L55 16L55 16L55 17L55 17L56 17L56 18L56 18L56 18L57 18L57 19L57 19L57 19L58 19L58 20L58 20L58 20ZM24 16L24 16L24 15L24 15L24 15L24 15L24 15L25 15L24 16ZM53 16L53 16L53 15L53 15L53 14L53 14L53 14L53 14L53 14L53 14L54 15L53 15L53 16ZM20 13L20 13L20 13L19 13L19 12L20 12L20 12L20 12L20 13L20 13ZM43 11L43 11L44 11L44 11L44 11L45 11L44 12L44 12L45 12L44 13L44 13L44 14L44 14L44 14L43 14L43 14L43 14L43 15L44 15L43 16L43 16L42 16L42 16L41 16L41 16L41 16L41 17L41 17L40 17L40 18L40 18L39 18L39 18L38 18L38 18L38 18L38 18L37 19L37 19L36 19L35 19L34 19L34 19L34 19L33 18L33 18L32 18L32 18L32 18L31 18L30 17L30 17L30 17L29 17L29 16L29 16L29 16L30 16L30 16L30 16L30 16L31 16L31 16L32 16L32 16L33 16L33 16L34 16L34 16L35 16L35 16L35 14L36 14L36 14L36 14L36 14L36 14L36 15L36 15L36 16L36 16L36 16L37 16L37 16L38 16L38 16L38 16L38 16L39 16L39 16L39 15L39 15L40 14L40 14L41 14L41 14L41 14L42 14L42 13L42 13L41 12L41 11L41 11L41 11L42 11L42 11L42 11L43 11ZM49 10L49 11L49 10L49 10L49 10L49 10ZM46 7L46 7L45 7L45 7L45 6L46 6L46 7ZM43 6L43 6L43 6L43 6L43 6L43 6L43 6L43 6ZM43 6H43L43 5L43 5L43 5L43 6L43 6ZM13 9L13 9L14 9L14 9L14 10L14 10L14 10L14 10L15 10L15 10L16 11L16 11L16 12L17 12L17 12L19 13L19 14L19 15L19 16L19 16L20 16L21 16L21 16L24 18L24 18L25 18L25 18L25 18L26 18L26 18L26 18L26 19L27 19L27 19L27 19L27 20L27 20L27 20L26 21L25 21L24 21L24 21L24 21L24 21L24 22L24 23L25 23L25 24L26 24L26 24L26 25L27 25L27 25L28 26L28 26L28 27L28 27L28 28L28 28L29 28L29 28L30 29L30 30L30 30L31 30L32 29L32 29L32 30L32 30L32 30L32 30L32 31L32 31L33 32L33 32L34 32L35 32L35 32L35 32L35 32L35 32L35 32L34 32L34 33L35 33L35 33L35 33L35 34L36 34L36 34L36 34L37 34L37 34L38 34L39 34L38 34L38 35L37 34L37 35L37 35L38 35L38 35L38 35L37 36L37 36L36 36L36 36L35 36L35 35L35 35L35 35L34 35L34 35L34 35L33 34L31 34L31 34L30 34L30 34L30 34L29 34L29 34L29 34L28 34L28 34L28 34L27 34L27 34L26 33L26 33L26 33L26 32L25 32L25 32L24 31L24 31L23 30L23 30L24 30L23 30L23 30L22 30L22 29L22 28L22 28L21 27L21 27L20 26L20 26L20 26L20 26L20 26L19 26L19 25L19 25L18 25L18 25L17 25L17 25L16 25L16 25L16 25L16 24L15 24L15 24L15 24L14 24L14 24L14 24L14 24L14 24L14 24L13 24L13 24L13 25L13 25L12 24L12 24L12 24L11 24L11 24L11 23L11 24L12 25L12 25L12 25L12 26L12 26L11 26L11 26L10 25L10 26L10 26L10 26L11 26L10 26L9 26L9 27L8 27L8 27L7 27L7 27L6 27L6 27L6 26L6 26L6 26L6 26L5 26L6 26L6 26L6 27L6 27L7 27L8 27L8 27L8 27L9 27L9 28L9 28L10 28L10 29L10 29L10 29L9 30L9 30L8 30L7 31L6 31L6 30L6 30L6 30L5 30L4 30L3 30L3 30L2 30L2 30L2 30L1 30L1 30L0 30L0 30V29V28V27L0 27V26V25V24V24L0 23V22V21L0 21L0 21L0 20L0 20L0 19V19V18V17L0 16V16V15V14V13L0 13V12V11V10V9L0 9V8V7L0 6V6V5V5V5L0 5L1 5L1 5L3 6L4 6L4 6L4 6L4 6L5 7L6 7L8 8L8 8L9 8L10 8L10 8L11 8L11 9L12 9L12 9L12 9L13 9ZM47 13L46 13L46 13L46 13L46 13L46 12L46 12L46 12L46 11L46 11L45 10L44 9L44 8L44 8L44 8L43 8L43 8L42 8L42 8L41 7L41 7L41 6L39 6L39 6H39L38 5L38 5L38 5L38 5L39 5L40 6L40 6L40 6L41 6L41 6L42 7L42 7L43 7L43 7L44 8L44 8L44 8L47 10L47 11L47 12L47 12L47 12L47 12L47 13L47 13ZM37 5L36 5L36 5L36 5L35 4L35 4L35 4L36 4L36 4L37 4L37 4L37 4L37 5L37 5ZM27 4L27 4L27 4L26 4L27 4L27 4L27 3L27 4ZM24 2L25 3L25 3L25 2L25 2L25 2L25 3L25 3L25 3L25 3L24 3L24 3L24 3L23 3L23 3L22 3L22 3L22 3L22 3L22 3L22 3L22 3L22 2L22 2L23 2L23 2L24 2ZM34 1L34 1L34 1L34 1L34 0L34 0L34 0L34 0L34 0L34 1Z" fill="var(--fill-0,#71B219)" stroke="var(--stroke-0,white)" mask="url(#path-1-inside-1_0_69)"/></g></svg>