<svg preserveAspectRatio="none" width="100%" height="100%" overflow="visible" style="display: block;" viewBox="0 0 58.2799 39.6096" fill="none" xmlns="http://www.w3.org/2000/svg">
<g id="PG">
<mask id="path-1-inside-1_0_69" fill="white">
<path d="M48.9307 39.006L49.5759 39.2104L49.7947 39.4368L49.5622 39.5396L48.9981 39.6096L48.866 39.471L48.324 39.3311L48.2374 39.0787L47.9677 39.1652L48.1053 38.9882L47.7655 38.7879L47.6596 38.5205L47.6458 38.4121L48.0447 38.5369L48.9307 39.006ZM51.8059 38.5589L51.7495 38.7715L51.6078 38.7001L51.1882 38.8099L50.9681 38.7852L50.8415 38.5945L50.8112 38.5068L51.1758 38.5753L51.1153 38.3641L51.6408 38.4725L51.8059 38.5589ZM38.7478 35.4576L38.6928 35.762L38.3763 35.6715L38.3117 35.6057L38.364 35.4136L38.6446 35.4054L38.7478 35.4576ZM39.4508 33.3383H39.6145L39.8882 33.0489L40.1263 32.9611L40.2817 33.0928L40.0286 34.0173L39.8153 33.8774L38.9803 33.6195L38.9542 33.2533L38.7368 33.1353L38.602 32.7787L38.3255 32.3837L38.2732 32.1299L38.43 32.2341L38.6061 32.492L39.3366 33.0215L39.3077 33.1929L39.4508 33.3383ZM37.3171 30.7253L37.8619 31.0421L38.1604 30.9502L38.3227 31.0024L38.6722 31.37L38.6914 31.6388L38.7478 31.8693L38.7299 31.9708L38.536 32.1079L38.5538 31.9516L38.4052 31.9214L37.8977 31.9283L37.5042 31.8309L36.9622 31.8048L37.1905 31.5606L37.2415 31.4605L36.9567 31.0682L36.9443 30.8817L36.9677 30.7788L37.2057 30.7226L37.3171 30.7253ZM36.6114 31.2959L36.5577 31.3919L36.3321 31.322L35.702 30.7857L35.7997 30.3879L36.0831 30.1821L36.5136 30.4071L36.6567 30.7363L36.6994 30.9201L36.6114 31.2959ZM45.4364 29.2247L45.6607 29.2823L46.127 29.2535L46.2811 29.4757L46.4943 29.5525L46.6787 29.6526L46.8424 29.7981L46.841 29.8872L46.8025 29.964L46.7035 30.034L46.7324 30.1904L46.5617 30.167L46.3499 30.2493L45.9317 30.0669L45.7804 30.0257L45.7349 29.8694L45.464 29.6074L44.9893 29.4195L45.2287 29.2658L45.4364 29.2247ZM10.531 27.9641L10.6011 28.1342L10.0399 27.9024L9.50332 27.5142L9.23228 27.4086L9.05074 27.1521L9.38367 27.3428L9.96421 27.5211L10.531 27.9641ZM39.5512 28.351L39.6173 28.628L39.316 28.3317L39.4508 27.9971L39.4742 27.816L39.4591 27.7145L39.1577 27.5417L39.3173 27.2591L39.4865 27.1631L39.5925 27.1356L39.587 27.5348L39.6736 27.7131L39.5512 28.351ZM10.5172 27.377L10.3494 27.3894L9.6684 27.1274L9.49509 26.9368L10.2916 26.9793L10.4965 27.0273L10.5392 27.2947L10.5172 27.377ZM27.6556 17.1417L27.5001 17.1705L27.4328 16.9963L27.071 16.8454L26.7105 16.3763L26.716 15.9744L26.7628 15.8592L26.9636 15.8537L27.767 16.3173L27.8509 16.4655L27.7904 16.9057L27.6556 17.1417ZM58.2799 20.4515L58.1864 20.8123L58.1148 20.874L58.0267 20.7382L57.6911 20.8699L57.5315 21.0194L57.361 21.1291L56.9675 21.1017L56.5947 21.0029L56.2329 20.8205L55.9123 20.5859L55.5904 20.217L55.3896 19.8356L55.4886 19.3926L55.3634 18.9921L54.7554 18.7082L54.6219 18.6162L54.3523 18.2184L54.0841 18.0456L53.7415 17.6972L53.6548 17.5463L53.509 17.1047L53.4622 16.8386L53.5861 16.0636L53.5406 15.6767L53.7071 15.7138L53.8845 15.866L54.0854 15.9716L54.5738 16.043L54.9466 16.3516L55.3057 16.9538L55.3483 17.1513L55.4625 17.294L55.8312 17.5504L56.0237 17.7151L56.3883 18.3721L56.5892 18.512L56.8286 18.5682L57.0501 18.6629L57.4201 18.9509L57.7612 19.2774L57.991 19.6203L58.1671 19.9879L58.2799 20.4515ZM24.3759 15.626L24.1599 15.6479L23.8078 15.2831L23.7184 15.1473L23.7527 14.9566L24.2013 14.7015L24.4915 14.9347L24.5521 15.434L24.3759 15.626ZM53.2201 15.6287L53.143 15.6589L52.9752 15.1733L52.9463 14.814L52.8954 14.5492L52.8074 14.3915L53.0605 14.1007L53.165 14.0198L53.3563 14.1734L53.3852 14.515L53.5311 14.8044L53.4195 15.4367L53.2201 15.6287ZM19.9091 12.917L19.6504 13.0308L19.4648 12.9444L19.3849 12.692L19.4482 12.4492L19.6752 12.2572L19.8182 12.1996L19.9792 12.3299L20.0411 12.5878L19.9091 12.917ZM42.674 11.2696L42.8749 11.3464L43.4527 10.9459L43.7622 11.2257L44.157 11.3615L44.567 11.4383L44.4047 12.0144L44.4528 12.2805L44.5587 12.5452L44.545 12.9362L44.3565 13.2846L43.9947 13.7935L43.8323 13.8867L43.6425 13.9416L43.051 13.9828L42.9368 14.253L42.9753 14.5397L43.2945 14.9155L43.5504 15.338L43.2959 15.7261L42.8762 15.9977L42.4787 16.1363L41.8198 16.054L41.125 16.0883L40.9943 16.2364L40.9915 16.4819L40.8939 16.6685L40.7673 16.8386L40.4151 17.1911L40.0203 17.5025L39.4824 17.7974L39.3022 17.8673L38.8249 17.9139L38.397 18.084L38.2058 18.25L37.9981 18.3844L37.5441 18.5312L37.1025 18.822L36.9278 18.8714L36.0102 18.9221L34.6978 18.9358L34.3098 18.966L33.9329 18.9262L33.7251 18.8124L33.2795 18.2898L32.8915 18.1101L32.4678 18.1156L31.9038 18.3008L31.7978 18.2596L30.6725 17.4874L30.3313 17.2981L29.9668 17.1582L29.5224 17.0594L29.1028 16.9044L28.8552 16.5368L28.8841 16.0581L29.2211 15.7769L29.7343 15.9154L29.931 15.914L30.1236 15.8345L30.3506 15.8605L30.579 15.9305L31.4112 15.8263L31.8928 15.9716L32.3619 16.1665L32.7993 16.2076L33.2491 16.1665L33.8517 15.947L34.043 15.9758L34.6235 15.9772L35.1312 15.6836L35.321 14.4999L35.4503 14.0966L35.6236 14.0088L35.7475 14.0335L35.9331 14.2351L35.6952 14.4862L35.5906 14.6796L35.5562 15.1514L35.6869 15.6096L35.9841 15.973L36.4298 16.0197L36.8383 15.7796L37.2827 15.7289L37.6927 15.9621L38.1136 15.9223L38.3062 15.77L38.5304 15.7042L38.7533 15.6795L38.9555 15.589L39.2238 15.1925L39.4027 14.7468L39.6695 14.3956L40.3972 13.8099L40.6077 13.7372L40.8348 13.6974L41.3465 13.7235L41.7276 13.515L41.7565 13.0459L41.7014 12.5699L41.2667 11.452L41.2378 11.2751L41.2997 11.0762L41.4263 10.8979L41.8541 10.8951L42.2999 10.9596L42.476 11.1283L42.674 11.2696ZM49.4053 10.5124L49.3709 10.603L49.1439 10.4987L49.331 10.3026L49.4204 10.2889L49.4053 10.5124ZM45.5892 6.81169L45.4956 7.14775L45.259 6.95021L45.098 6.66627L45.1998 6.54011L45.4653 6.46463L45.5892 6.81169ZM43.3825 6.09978L43.3412 6.29318L43.2202 6.28221L42.8887 5.90363L42.824 5.80488L42.9024 5.71023L43.2876 5.98869L43.3825 6.09978ZM42.835 5.64987H42.7428L42.729 5.344L42.7923 5.18351L43.007 5.29599L43.0427 5.56896L42.835 5.64987ZM12.5835 9.42333L13.0705 9.4343L13.5589 9.37532L13.7597 9.4014L13.9578 9.46176L14.1381 9.57696L14.2288 9.79781L14.5329 10.1051L14.9621 10.2436L15.3707 10.522L15.7379 10.854L16.0076 11.1886L16.3144 11.4712L16.778 11.5905L17.2664 11.6098L18.9364 13.2901L19.0176 13.5493L19.0369 14.6521L18.8526 15.5135L19.268 15.7783L19.8348 15.877L20.6299 16.0608L21.3948 16.3352L23.8311 17.4983L24.1655 17.5971L24.6566 17.6355L25.1518 17.619L25.3293 17.678L25.7007 17.8892L25.8864 18.0278L26.2194 18.4036L26.5165 18.8124L26.6445 18.929L26.7944 19.0195L26.8811 19.2417L26.9966 19.9275L26.9622 20.3555L26.826 20.5146L26.4368 20.5914L25.0721 20.6641L24.1586 20.5846L23.5189 21.0166L23.501 21.2059L23.5464 21.3815L24.1022 22.2991L24.4296 23.1139L24.7006 23.4445L25.1064 23.7133L25.4682 24.0316L25.8011 24.3978L26.4931 25.0356L26.8687 25.2729L27.3103 25.4183L28.045 25.9135L28.1426 26.1316L28.3517 26.8202L28.4425 27.2879L28.4562 27.4813L28.5085 27.6542L29.1551 28.0794L29.2981 28.1973L29.5857 29.141L29.8071 29.58L30.1799 29.735L30.6133 29.7253L31.7923 29.4442L31.9629 29.4345L32.1816 29.499L32.3729 29.6526L32.4361 30.0779L32.2504 30.525L32.1995 30.9544L32.432 31.3069L33.0332 31.5812L33.2533 31.6567L34.3346 31.7445L34.7597 31.8185L35.1765 31.9378L35.3196 32.0448L35.2191 32.2341L35.0018 32.3274L34.7541 32.3644L34.3566 32.5016L34.3635 32.7457L34.5877 32.9995L34.7927 33.3054L34.9646 33.4165L35.1517 33.4919L35.6195 33.5976L36.0748 33.743L36.3748 33.887L36.6843 33.9912L37.3583 34.0571L37.8536 34.2532L38.558 34.1709L37.9485 34.4891L37.738 34.5673L37.0021 34.448L36.8631 34.5715L37.1672 34.9089L37.617 35.1352L37.7779 35.2669L37.6652 35.4205L37.141 35.7291L36.9222 35.7744L36.5136 35.7991L35.8286 35.666L35.343 35.4959L35.2068 35.2641L35.0775 35.1283L34.64 34.8019L34.3277 34.6236L33.9315 34.5632L33.5174 34.5659L32.7773 34.3766L31.1718 34.2422L30.7895 34.1599L30.3079 33.8993L30.081 33.8623L29.8375 33.9446L29.217 33.9953L29.0354 33.972L28.5924 33.7498L28.1371 33.6675L27.9459 33.7347L27.7533 33.7498L27.1301 33.5907L26.6609 33.5235L26.2758 33.3013L26.0666 33.0941L25.83 32.9103L25.6113 32.4372L25.2715 31.9886L24.8478 31.6196L23.9426 31.0243L23.761 30.8762L23.4061 30.3316L23.4253 29.9695L23.5546 29.6047L23.3593 29.7294L23.1392 29.713L22.5229 29.4716L22.2684 29.1849L21.857 28.4058L21.5943 27.9943L20.9793 27.2673L20.8019 26.8366L20.5433 26.4594L20.385 26.3195L20.253 26.1577L20.1361 25.9478L19.9613 25.8024L19.1029 25.48L18.953 25.3785L18.7865 25.325L18.1482 25.2921L17.7781 25.2386L17.082 24.9739L16.7216 24.8943L16.2896 24.8436L15.87 24.7435L15.6664 24.6447L15.5289 24.4787L15.4477 24.0851L15.0955 24.1276L14.7516 24.059L14.4187 23.9205L14.0789 23.8368L13.8464 23.9561L13.7748 24.2702L13.6675 24.2867L13.4681 24.2222L13.369 24.2606L13.1531 24.4047L12.9811 24.6008L12.6619 24.5706L12.0084 24.3731L11.7168 24.2497L11.4692 24.0261L11.2574 23.7723L11.0427 23.5721L10.7786 23.4267L11.1143 23.7723L11.8888 25.2935L11.6948 25.3223L11.4953 25.2839L11.6783 25.5761L11.4678 25.62L11.2587 25.6172L10.8185 25.491L10.381 25.4485L10.2517 25.5102L10.3439 25.62L10.498 25.9437L10.6204 26.2825L9.98755 26.4347L9.33824 26.528L8.61597 26.7104L7.88547 26.7228L7.51132 26.6185L7.12751 26.5596L6.76427 26.6185L6.41355 26.7516L6.11774 26.7296L5.93066 26.491L5.84401 26.3113L5.7325 26.1549L5.45601 26.1796L5.18916 26.2647L5.64585 26.2742L5.78347 26.4745L5.90178 26.7159L6.22505 26.9354L6.6144 26.8051L7.47143 26.8407L8.3037 27.2234L8.50178 27.2673L8.68339 27.3428L9.11263 27.72L9.43589 28.0629L9.70828 28.4552L9.76605 28.6088L9.74682 29.0203L9.66428 29.2247L9.1264 29.5141L8.55274 29.7336L7.70662 30.1602L6.88812 30.6458L6.45755 30.5511L6.06963 30.2932L5.91966 30.2233L5.51932 30.0834L5.27582 30.0326L4.30735 30.1424L3.33747 30.1986L2.92746 30.1945L2.53131 30.1122L2.0952 29.9599L1.66328 30.0271L1.36746 30.2054L1.0442 30.2329L0.438889 29.8351L0.437461 29.7843V28.997V28.211V27.4251L0.436118 26.6391V25.8531V25.0686V24.284V23.4994L0.434774 22.7148V21.9315V21.2868L0.220158 21.0359L0 20.6504L0.0467689 20.1552L0.313696 19.5435L0.433347 19.1347V18.8014V18.0196V17.2377L0.432003 16.4559V15.6754V14.8949V14.1144V13.334L0.430576 12.5535V11.7744V10.9953V10.2162V9.43706L0.429233 8.65793V7.87883V7.09973L0.427889 6.32202V5.54426V5.07514V4.81728V4.80221L0.543426 4.80355L0.934118 4.80769L1.24781 4.87078L3.18196 5.70199L3.75981 6.03532L3.95789 6.11351L4.15185 6.11623L4.33758 6.15466L5.20982 6.61416L6.51255 7.0778L7.88824 7.52222L8.3147 7.61549L8.75628 7.65387L9.71382 7.8075L10.2187 7.94467L10.9574 8.48923L11.3302 8.65793L11.6796 8.96522L12.1735 9.29579L12.3689 9.37942L12.5835 9.42333ZM46.7282 13.0322L46.4421 13.3243L46.2646 13.0514L46.0362 12.8127L45.856 12.5686L45.6263 12.0418L45.6153 11.7771L45.6758 11.4959L45.6896 11.212L45.5795 10.6359L45.3099 10.1105L44.373 8.85822L44.0786 8.53038L43.7416 8.23686L43.5256 8.16553L43.0895 8.09558L42.8955 8.0366L42.5351 7.8322L42.2008 7.59489L41.3712 6.88851L40.9338 6.68825L40.7027 6.44132L39.3971 5.64577L39.0161 5.45786H38.5511L38.159 5.30147L38.4699 5.20273L38.5346 4.93662L38.4658 4.66642L39.122 5.10808L39.814 5.49353L40.0148 5.80488L40.356 5.82409L40.9764 6.08195L41.4029 6.31377L41.8046 6.58126L42.2572 6.96394L43.1294 7.26433L43.2532 7.37408L43.6948 7.87335L44.274 8.29718L44.4721 8.53038L46.9277 10.5371L47.3431 11.0995L47.3748 11.4836L47.2936 11.6345L47.035 11.9595L47.0391 12.3436L46.9524 12.6879L46.7282 13.0322ZM36.9635 5.00519L36.1932 5.0573L35.9167 4.9997L35.669 4.77889L35.4448 4.4346L35.2191 4.35364L35.1284 4.28645L35.6732 4.02307L36.156 3.94354L36.936 4.27272L37.0158 4.43732L37.0227 4.54431L37.0006 4.89409L36.9635 5.00519ZM27.0805 3.55671L26.9553 3.75835L26.6637 3.74052L26.5344 3.68154L26.7449 3.64315L26.8301 3.47718L26.921 3.4182L27.0805 3.55671ZM23.955 2.32084L25.2426 2.56911L25.3279 2.56639L25.3128 2.47723L25.3348 2.45253L25.4119 2.51699L25.3871 2.69808L25.1848 2.74333L24.995 2.7255L24.8602 2.82014L24.4915 3.16992L24.2439 3.11228L23.9412 3.19048L23.4102 3.19734L22.7209 3.04372L22.5311 3.17403L22.2863 3.13836L22.0428 3.28102L21.9423 3.27416L21.8832 3.06565L21.8873 2.95866L22.1762 2.86954L22.1335 2.54169L22.366 2.3771L22.7678 2.39079L23.1419 2.27969L23.955 2.32084ZM34.3731 0.762646L34.3635 0.90116L34.0856 0.831212L34.0085 0.853189L33.5243 0.452631L33.5325 0.208504L33.6605 0L33.8613 0.0329019L34.2177 0.294903L34.3731 0.762646Z"/>
</mask>
<path d="M48.9307 39.006L49.5759 39.2104L49.7947 39.4368L49.5622 39.5396L48.9981 39.6096L48.866 39.471L48.324 39.3311L48.2374 39.0787L47.9677 39.1652L48.1053 38.9882L47.7655 38.7879L47.6596 38.5205L47.6458 38.4121L48.0447 38.5369L48.9307 39.006ZM51.8059 38.5589L51.7495 38.7715L51.6078 38.7001L51.1882 38.8099L50.9681 38.7852L50.8415 38.5945L50.8112 38.5068L51.1758 38.5753L51.1153 38.3641L51.6408 38.4725L51.8059 38.5589ZM38.7478 35.4576L38.6928 35.762L38.3763 35.6715L38.3117 35.6057L38.364 35.4136L38.6446 35.4054L38.7478 35.4576ZM39.4508 33.3383H39.6145L39.8882 33.0489L40.1263 32.9611L40.2817 33.0928L40.0286 34.0173L39.8153 33.8774L38.9803 33.6195L38.9542 33.2533L38.7368 33.1353L38.602 32.7787L38.3255 32.3837L38.2732 32.1299L38.43 32.2341L38.6061 32.492L39.3366 33.0215L39.3077 33.1929L39.4508 33.3383ZM37.3171 30.7253L37.8619 31.0421L38.1604 30.9502L38.3227 31.0024L38.6722 31.37L38.6914 31.6388L38.7478 31.8693L38.7299 31.9708L38.536 32.1079L38.5538 31.9516L38.4052 31.9214L37.8977 31.9283L37.5042 31.8309L36.9622 31.8048L37.1905 31.5606L37.2415 31.4605L36.9567 31.0682L36.9443 30.8817L36.9677 30.7788L37.2057 30.7226L37.3171 30.7253ZM36.6114 31.2959L36.5577 31.3919L36.3321 31.322L35.702 30.7857L35.7997 30.3879L36.0831 30.1821L36.5136 30.4071L36.6567 30.7363L36.6994 30.9201L36.6114 31.2959ZM45.4364 29.2247L45.6607 29.2823L46.127 29.2535L46.2811 29.4757L46.4943 29.5525L46.6787 29.6526L46.8424 29.7981L46.841 29.8872L46.8025 29.964L46.7035 30.034L46.7324 30.1904L46.5617 30.167L46.3499 30.2493L45.9317 30.0669L45.7804 30.0257L45.7349 29.8694L45.464 29.6074L44.9893 29.4195L45.2287 29.2658L45.4364 29.2247ZM10.531 27.9641L10.6011 28.1342L10.0399 27.9024L9.50332 27.5142L9.23228 27.4086L9.05074 27.1521L9.38367 27.3428L9.96421 27.5211L10.531 27.9641ZM39.5512 28.351L39.6173 28.628L39.316 28.3317L39.4508 27.9971L39.4742 27.816L39.4591 27.7145L39.1577 27.5417L39.3173 27.2591L39.4865 27.1631L39.5925 27.1356L39.587 27.5348L39.6736 27.7131L39.5512 28.351ZM10.5172 27.377L10.3494 27.3894L9.6684 27.1274L9.49509 26.9368L10.2916 26.9793L10.4965 27.0273L10.5392 27.2947L10.5172 27.377ZM27.6556 17.1417L27.5001 17.1705L27.4328 16.9963L27.071 16.8454L26.7105 16.3763L26.716 15.9744L26.7628 15.8592L26.9636 15.8537L27.767 16.3173L27.8509 16.4655L27.7904 16.9057L27.6556 17.1417ZM58.2799 20.4515L58.1864 20.8123L58.1148 20.874L58.0267 20.7382L57.6911 20.8699L57.5315 21.0194L57.361 21.1291L56.9675 21.1017L56.5947 21.0029L56.2329 20.8205L55.9123 20.5859L55.5904 20.217L55.3896 19.8356L55.4886 19.3926L55.3634 18.9921L54.7554 18.7082L54.6219 18.6162L54.3523 18.2184L54.0841 18.0456L53.7415 17.6972L53.6548 17.5463L53.509 17.1047L53.4622 16.8386L53.5861 16.0636L53.5406 15.6767L53.7071 15.7138L53.8845 15.866L54.0854 15.9716L54.5738 16.043L54.9466 16.3516L55.3057 16.9538L55.3483 17.1513L55.4625 17.294L55.8312 17.5504L56.0237 17.7151L56.3883 18.3721L56.5892 18.512L56.8286 18.5682L57.0501 18.6629L57.4201 18.9509L57.7612 19.2774L57.991 19.6203L58.1671 19.9879L58.2799 20.4515ZM24.3759 15.626L24.1599 15.6479L23.8078 15.2831L23.7184 15.1473L23.7527 14.9566L24.2013 14.7015L24.4915 14.9347L24.5521 15.434L24.3759 15.626ZM53.2201 15.6287L53.143 15.6589L52.9752 15.1733L52.9463 14.814L52.8954 14.5492L52.8074 14.3915L53.0605 14.1007L53.165 14.0198L53.3563 14.1734L53.3852 14.515L53.5311 14.8044L53.4195 15.4367L53.2201 15.6287ZM19.9091 12.917L19.6504 13.0308L19.4648 12.9444L19.3849 12.692L19.4482 12.4492L19.6752 12.2572L19.8182 12.1996L19.9792 12.3299L20.0411 12.5878L19.9091 12.917ZM42.674 11.2696L42.8749 11.3464L43.4527 10.9459L43.7622 11.2257L44.157 11.3615L44.567 11.4383L44.4047 12.0144L44.4528 12.2805L44.5587 12.5452L44.545 12.9362L44.3565 13.2846L43.9947 13.7935L43.8323 13.8867L43.6425 13.9416L43.051 13.9828L42.9368 14.253L42.9753 14.5397L43.2945 14.9155L43.5504 15.338L43.2959 15.7261L42.8762 15.9977L42.4787 16.1363L41.8198 16.054L41.125 16.0883L40.9943 16.2364L40.9915 16.4819L40.8939 16.6685L40.7673 16.8386L40.4151 17.1911L40.0203 17.5025L39.4824 17.7974L39.3022 17.8673L38.8249 17.9139L38.397 18.084L38.2058 18.25L37.9981 18.3844L37.5441 18.5312L37.1025 18.822L36.9278 18.8714L36.0102 18.9221L34.6978 18.9358L34.3098 18.966L33.9329 18.9262L33.7251 18.8124L33.2795 18.2898L32.8915 18.1101L32.4678 18.1156L31.9038 18.3008L31.7978 18.2596L30.6725 17.4874L30.3313 17.2981L29.9668 17.1582L29.5224 17.0594L29.1028 16.9044L28.8552 16.5368L28.8841 16.0581L29.2211 15.7769L29.7343 15.9154L29.931 15.914L30.1236 15.8345L30.3506 15.8605L30.579 15.9305L31.4112 15.8263L31.8928 15.9716L32.3619 16.1665L32.7993 16.2076L33.2491 16.1665L33.8517 15.947L34.043 15.9758L34.6235 15.9772L35.1312 15.6836L35.321 14.4999L35.4503 14.0966L35.6236 14.0088L35.7475 14.0335L35.9331 14.2351L35.6952 14.4862L35.5906 14.6796L35.5562 15.1514L35.6869 15.6096L35.9841 15.973L36.4298 16.0197L36.8383 15.7796L37.2827 15.7289L37.6927 15.9621L38.1136 15.9223L38.3062 15.77L38.5304 15.7042L38.7533 15.6795L38.9555 15.589L39.2238 15.1925L39.4027 14.7468L39.6695 14.3956L40.3972 13.8099L40.6077 13.7372L40.8348 13.6974L41.3465 13.7235L41.7276 13.515L41.7565 13.0459L41.7014 12.5699L41.2667 11.452L41.2378 11.2751L41.2997 11.0762L41.4263 10.8979L41.8541 10.8951L42.2999 10.9596L42.476 11.1283L42.674 11.2696ZM49.4053 10.5124L49.3709 10.603L49.1439 10.4987L49.331 10.3026L49.4204 10.2889L49.4053 10.5124ZM45.5892 6.81169L45.4956 7.14775L45.259 6.95021L45.098 6.66627L45.1998 6.54011L45.4653 6.46463L45.5892 6.81169ZM43.3825 6.09978L43.3412 6.29318L43.2202 6.28221L42.8887 5.90363L42.824 5.80488L42.9024 5.71023L43.2876 5.98869L43.3825 6.09978ZM42.835 5.64987H42.7428L42.729 5.344L42.7923 5.18351L43.007 5.29599L43.0427 5.56896L42.835 5.64987ZM12.5835 9.42333L13.0705 9.4343L13.5589 9.37532L13.7597 9.4014L13.9578 9.46176L14.1381 9.57696L14.2288 9.79781L14.5329 10.1051L14.9621 10.2436L15.3707 10.522L15.7379 10.854L16.0076 11.1886L16.3144 11.4712L16.778 11.5905L17.2664 11.6098L18.9364 13.2901L19.0176 13.5493L19.0369 14.6521L18.8526 15.5135L19.268 15.7783L19.8348 15.877L20.6299 16.0608L21.3948 16.3352L23.8311 17.4983L24.1655 17.5971L24.6566 17.6355L25.1518 17.619L25.3293 17.678L25.7007 17.8892L25.8864 18.0278L26.2194 18.4036L26.5165 18.8124L26.6445 18.929L26.7944 19.0195L26.8811 19.2417L26.9966 19.9275L26.9622 20.3555L26.826 20.5146L26.4368 20.5914L25.0721 20.6641L24.1586 20.5846L23.5189 21.0166L23.501 21.2059L23.5464 21.3815L24.1022 22.2991L24.4296 23.1139L24.7006 23.4445L25.1064 23.7133L25.4682 24.0316L25.8011 24.3978L26.4931 25.0356L26.8687 25.2729L27.3103 25.4183L28.045 25.9135L28.1426 26.1316L28.3517 26.8202L28.4425 27.2879L28.4562 27.4813L28.5085 27.6542L29.1551 28.0794L29.2981 28.1973L29.5857 29.141L29.8071 29.58L30.1799 29.735L30.6133 29.7253L31.7923 29.4442L31.9629 29.4345L32.1816 29.499L32.3729 29.6526L32.4361 30.0779L32.2504 30.525L32.1995 30.9544L32.432 31.3069L33.0332 31.5812L33.2533 31.6567L34.3346 31.7445L34.7597 31.8185L35.1765 31.9378L35.3196 32.0448L35.2191 32.2341L35.0018 32.3274L34.7541 32.3644L34.3566 32.5016L34.3635 32.7457L34.5877 32.9995L34.7927 33.3054L34.9646 33.4165L35.1517 33.4919L35.6195 33.5976L36.0748 33.743L36.3748 33.887L36.6843 33.9912L37.3583 34.0571L37.8536 34.2532L38.558 34.1709L37.9485 34.4891L37.738 34.5673L37.0021 34.448L36.8631 34.5715L37.1672 34.9089L37.617 35.1352L37.7779 35.2669L37.6652 35.4205L37.141 35.7291L36.9222 35.7744L36.5136 35.7991L35.8286 35.666L35.343 35.4959L35.2068 35.2641L35.0775 35.1283L34.64 34.8019L34.3277 34.6236L33.9315 34.5632L33.5174 34.5659L32.7773 34.3766L31.1718 34.2422L30.7895 34.1599L30.3079 33.8993L30.081 33.8623L29.8375 33.9446L29.217 33.9953L29.0354 33.972L28.5924 33.7498L28.1371 33.6675L27.9459 33.7347L27.7533 33.7498L27.1301 33.5907L26.6609 33.5235L26.2758 33.3013L26.0666 33.0941L25.83 32.9103L25.6113 32.4372L25.2715 31.9886L24.8478 31.6196L23.9426 31.0243L23.761 30.8762L23.4061 30.3316L23.4253 29.9695L23.5546 29.6047L23.3593 29.7294L23.1392 29.713L22.5229 29.4716L22.2684 29.1849L21.857 28.4058L21.5943 27.9943L20.9793 27.2673L20.8019 26.8366L20.5433 26.4594L20.385 26.3195L20.253 26.1577L20.1361 25.9478L19.9613 25.8024L19.1029 25.48L18.953 25.3785L18.7865 25.325L18.1482 25.2921L17.7781 25.2386L17.082 24.9739L16.7216 24.8943L16.2896 24.8436L15.87 24.7435L15.6664 24.6447L15.5289 24.4787L15.4477 24.0851L15.0955 24.1276L14.7516 24.059L14.4187 23.9205L14.0789 23.8368L13.8464 23.9561L13.7748 24.2702L13.6675 24.2867L13.4681 24.2222L13.369 24.2606L13.1531 24.4047L12.9811 24.6008L12.6619 24.5706L12.0084 24.3731L11.7168 24.2497L11.4692 24.0261L11.2574 23.7723L11.0427 23.5721L10.7786 23.4267L11.1143 23.7723L11.8888 25.2935L11.6948 25.3223L11.4953 25.2839L11.6783 25.5761L11.4678 25.62L11.2587 25.6172L10.8185 25.491L10.381 25.4485L10.2517 25.5102L10.3439 25.62L10.498 25.9437L10.6204 26.2825L9.98755 26.4347L9.33824 26.528L8.61597 26.7104L7.88547 26.7228L7.51132 26.6185L7.12751 26.5596L6.76427 26.6185L6.41355 26.7516L6.11774 26.7296L5.93066 26.491L5.84401 26.3113L5.7325 26.1549L5.45601 26.1796L5.18916 26.2647L5.64585 26.2742L5.78347 26.4745L5.90178 26.7159L6.22505 26.9354L6.6144 26.8051L7.47143 26.8407L8.3037 27.2234L8.50178 27.2673L8.68339 27.3428L9.11263 27.72L9.43589 28.0629L9.70828 28.4552L9.76605 28.6088L9.74682 29.0203L9.66428 29.2247L9.1264 29.5141L8.55274 29.7336L7.70662 30.1602L6.88812 30.6458L6.45755 30.5511L6.06963 30.2932L5.91966 30.2233L5.51932 30.0834L5.27582 30.0326L4.30735 30.1424L3.33747 30.1986L2.92746 30.1945L2.53131 30.1122L2.0952 29.9599L1.66328 30.0271L1.36746 30.2054L1.0442 30.2329L0.438889 29.8351L0.437461 29.7843V28.997V28.211V27.4251L0.436118 26.6391V25.8531V25.0686V24.284V23.4994L0.434774 22.7148V21.9315V21.2868L0.220158 21.0359L0 20.6504L0.0467689 20.1552L0.313696 19.5435L0.433347 19.1347V18.8014V18.0196V17.2377L0.432003 16.4559V15.6754V14.8949V14.1144V13.334L0.430576 12.5535V11.7744V10.9953V10.2162V9.43706L0.429233 8.65793V7.87883V7.09973L0.427889 6.32202V5.54426V5.07514V4.81728V4.80221L0.543426 4.80355L0.934118 4.80769L1.24781 4.87078L3.18196 5.70199L3.75981 6.03532L3.95789 6.11351L4.15185 6.11623L4.33758 6.15466L5.20982 6.61416L6.51255 7.0778L7.88824 7.52222L8.3147 7.61549L8.75628 7.65387L9.71382 7.8075L10.2187 7.94467L10.9574 8.48923L11.3302 8.65793L11.6796 8.96522L12.1735 9.29579L12.3689 9.37942L12.5835 9.42333ZM46.7282 13.0322L46.4421 13.3243L46.2646 13.0514L46.0362 12.8127L45.856 12.5686L45.6263 12.0418L45.6153 11.7771L45.6758 11.4959L45.6896 11.212L45.5795 10.6359L45.3099 10.1105L44.373 8.85822L44.0786 8.53038L43.7416 8.23686L43.5256 8.16553L43.0895 8.09558L42.8955 8.0366L42.5351 7.8322L42.2008 7.59489L41.3712 6.88851L40.9338 6.68825L40.7027 6.44132L39.3971 5.64577L39.0161 5.45786H38.5511L38.159 5.30147L38.4699 5.20273L38.5346 4.93662L38.4658 4.66642L39.122 5.10808L39.814 5.49353L40.0148 5.80488L40.356 5.82409L40.9764 6.08195L41.4029 6.31377L41.8046 6.58126L42.2572 6.96394L43.1294 7.26433L43.2532 7.37408L43.6948 7.87335L44.274 8.29718L44.4721 8.53038L46.9277 10.5371L47.3431 11.0995L47.3748 11.4836L47.2936 11.6345L47.035 11.9595L47.0391 12.3436L46.9524 12.6879L46.7282 13.0322ZM36.9635 5.00519L36.1932 5.0573L35.9167 4.9997L35.669 4.77889L35.4448 4.4346L35.2191 4.35364L35.1284 4.28645L35.6732 4.02307L36.156 3.94354L36.936 4.27272L37.0158 4.43732L37.0227 4.54431L37.0006 4.89409L36.9635 5.00519ZM27.0805 3.55671L26.9553 3.75835L26.6637 3.74052L26.5344 3.68154L26.7449 3.64315L26.8301 3.47718L26.921 3.4182L27.0805 3.55671ZM23.955 2.32084L25.2426 2.56911L25.3279 2.56639L25.3128 2.47723L25.3348 2.45253L25.4119 2.51699L25.3871 2.69808L25.1848 2.74333L24.995 2.7255L24.8602 2.82014L24.4915 3.16992L24.2439 3.11228L23.9412 3.19048L23.4102 3.19734L22.7209 3.04372L22.5311 3.17403L22.2863 3.13836L22.0428 3.28102L21.9423 3.27416L21.8832 3.06565L21.8873 2.95866L22.1762 2.86954L22.1335 2.54169L22.366 2.3771L22.7678 2.39079L23.1419 2.27969L23.955 2.32084ZM34.3731 0.762646L34.3635 0.90116L34.0856 0.831212L34.0085 0.853189L33.5243 0.452631L33.5325 0.208504L33.6605 0L33.8613 0.0329019L34.2177 0.294903L34.3731 0.762646Z" fill="var(--fill-0, #71B219)" stroke="var(--stroke-0, white)" mask="url(#path-1-inside-1_0_69)"/>
</g>
</svg>
