<svg preserveAspectRatio="none" width="100%" height="100%" overflow="visible" style="display: block;" viewBox="0 0 37.1589 62.1611" fill="none" xmlns="http://www.w3.org/2000/svg">
<g id="PH">
<mask id="path-1-inside-1_0_167" fill="white">
<path d="M18.953 0.242787L18.7659 0.576076L18.6159 0.573355L18.6379 0.386785L18.8374 0L18.9117 0.00820454L18.953 0.242787ZM19.2694 1.94364L19.1978 1.99303L19.0919 1.96972L19.1965 1.58427L19.3904 1.47866L19.5445 1.51981L19.2694 1.94364ZM17.5732 6.02845L17.6131 6.39607L17.3847 6.38782L17.0407 6.16425L17.0091 6.05039L17.0146 5.95574L17.0752 5.87483L17.5732 6.02845ZM16.5359 7.16009L16.5139 7.43306L16.3185 7.28902L16.2759 7.08462L16.2951 6.93238L16.3846 6.75133L16.507 6.91592L16.5359 7.16009ZM19.1208 7.91998L18.8759 8.21078L18.748 8.12986L18.8856 7.84727L18.8814 7.74852L18.9942 7.52771L19.2034 7.45089L19.3753 7.66898L19.1208 7.91998ZM15.954 9.04885L16.5455 9.25874L17.8524 10.0131L18.3298 10.1997L18.8278 10.3396L19.2198 10.3808L19.5721 10.2079L19.7193 10.0324L19.9889 9.56871L20.2764 9.51111L20.447 9.67985L20.5804 9.90614L20.6396 10.2381L20.5571 10.5851L20.2832 10.8965L20.1154 11.2696L20.0054 12.5068L20.0109 12.8772L20.0989 13.2338L20.3369 13.7989L20.4608 13.9581L20.8211 14.1597L20.9189 14.3119L20.9394 14.5863L20.9959 14.8277L21.2297 14.9196L21.4279 15.0403L21.3536 15.3078L21.2297 15.5794L21.0674 16.2487L20.2942 17.796L20.2502 18.1293L19.9449 18.7932L19.3244 18.9002L18.6076 19.2211L18.2087 19.4708L17.8607 19.7945L17.7286 20.2183L17.8414 20.4117L17.9143 20.6188L17.9061 20.8425L17.7988 21.0276L17.4534 21.4789L17.3077 21.8479L17.1536 22.0138L17.0779 22.2141L17.1041 22.4432L17.2429 22.6434L17.6639 23.5035L18.1152 24.3333L18.2115 24.4294L18.2486 24.5404L17.9831 24.7599L17.9886 25.1577L18.0684 25.5527L18.4673 26.5294L18.5237 26.79L18.6558 27.0039L18.8594 27.2042L19.0836 27.3729L19.733 27.661L19.9833 27.7186L20.2434 27.7282L20.308 27.5334L20.535 27.4676L20.4855 27.2769L20.2076 27.0122L20.1966 26.8695L20.3424 26.7625L20.5157 26.7008L20.9064 26.4128L21.3206 26.1823L21.8474 26.2015L22.3633 26.3305L22.7306 26.4649L23.0333 26.7118L23.3442 27.1397L23.5615 27.613L23.5602 27.8379L23.5079 28.0643L23.5189 28.2878L23.6813 28.4401L24.1806 28.4511L24.4351 28.0999L24.4668 27.7049L24.2879 27.5526L24.3704 27.3579L24.5232 27.2124L24.7446 27.3428L24.9551 27.5883L25.7296 27.8558L25.9278 27.8612L26.0887 27.912L26.4353 28.0972L26.5977 28.2453L26.3982 28.5526L25.6292 28.6212L25.4063 28.8516L25.6333 29.3139L26.002 29.6938L26.2386 30.001L26.4478 30.3316L26.4381 30.6375L26.3157 30.9557L26.6541 30.931L26.9719 30.9983L27.4121 31.2644L27.5496 31.2918L27.6955 31.2493L27.6748 32.2094L27.375 33.0887L26.9966 32.9789L26.6734 32.6072L26.7394 32.1546L26.9458 31.717L26.8274 31.6251L26.6197 31.6608L26.3817 31.7595L26.1245 31.7938L25.7021 31.7362L24.8354 31.2602L24.4832 31.2163L24.4034 31.001L24.4228 30.5442L24.0774 30.001L24.0224 29.8063L23.9123 29.654L22.8819 29.0628L22.7554 28.9627L22.439 28.4909L21.7208 27.8187L21.52 27.7501L21.3012 27.7309L21.2297 27.901L21.3288 28.163L21.3687 28.388L21.3536 28.6239L21.3824 28.8063L21.7223 29.1794L21.7731 29.355L22.0001 29.8337L22.0276 30.3933L21.7374 30.6252L21.4113 30.3673L21.4003 30.156L21.3439 29.9599L20.9931 29.451L20.8748 29.3413L20.2145 28.8393L19.7027 28.2878L18.565 27.6994L18.4288 27.6678L18.2307 27.7118L18.045 27.7844L17.4947 28.0752L17.3008 28.2769L17.2829 28.5882L16.888 28.8351L16.3447 28.8694L15.9278 28.7144L15.5825 28.4044L15.2977 28.3893L14.9442 27.9051L14.5136 27.8434L14.1573 28.222L14.0816 27.4703L14.0789 26.7104L14.1779 26.4882L14.3554 26.303L15.2565 25.5047L15.3707 25.2482L15.3321 24.9053L15.1272 24.6255L14.8039 24.4554L14.4311 24.3841L14.1628 24.2277L13.9523 23.9699L13.8092 24.4266L13.9482 25.1042L13.9715 25.5445L13.8437 25.7105L13.6125 25.7146L13.3924 25.6625L13.2287 25.5047L13.1091 25.0493L12.794 24.749L12.6661 24.3183L12.523 24.2565L12.2299 24.2894L12.014 24.0892L11.8709 23.5858L11.8407 23.0453L11.7182 22.5899L11.5421 22.1496L11.4389 21.7903L11.2807 20.1744L11.2422 20.0263L11.1569 19.9042L10.9574 19.7204L10.8075 19.4955L10.7786 19.3103L10.8199 18.5133L10.8887 18.3213L11.0441 18.2294L11.2574 18.3858L11.4279 18.5792L11.6397 18.6725L11.8269 18.7945L12.1763 19.2664L12.3139 19.3405L12.7445 19.3254L12.999 19.2664L13.1214 19.0949L13.1998 18.8906L13.2012 18.6491L12.9522 17.9359L12.8766 17.4215L12.8724 16.9579L12.9371 16.4929L13.2768 15.7193L13.3195 15.1816L13.2878 14.4615L13.347 14.0321L13.3374 13.7852L13.1352 13.3971L13.0815 12.9828L13.6483 10.8745L13.8258 10.4658L13.9551 10.0433L14.0142 9.48231L14.4379 9.32869L14.841 9.09687L15.0487 9.1147L15.2702 9.17096L15.7572 9.05572L15.954 9.04885ZM19.5542 23.4815L19.6243 23.6201L19.5459 23.6132L19.4909 23.6392L19.3092 23.9246L19.5074 24.4527L19.3849 24.8367L19.1648 24.8614L19.0782 24.8203L19.1235 24.6296L19.1703 24.5432L19.1263 24.2922L18.9956 24.1344L18.8911 23.8285L18.7301 23.6448L18.8058 23.3498L19.3148 23.3169L19.5542 23.4815ZM20.1003 27.2605L20.0879 27.421L19.2556 26.8366L19.2171 26.7365L19.2157 26.6432L19.2666 26.5499L20.1003 27.2605ZM28.5099 28.901L28.4081 29.1561L28.2816 29.0656L28.1027 29.0807L27.822 29.2974L27.3653 29.0066L27.2951 28.7789L27.6212 28.2782L27.6185 27.5334L27.7381 27.3496L27.8633 27.2179L28.0119 27.1466L28.3338 27.661L28.4439 27.7241L28.7548 27.96L28.6736 28.436L28.7025 28.7144L28.5099 28.901ZM12.7486 28.4346L12.754 28.7007L12.1034 28.3084L12.0841 28.1726L12.1006 28.0711L12.1681 28.0108L12.5174 28.1575L12.7486 28.4346ZM19.0946 29.2631L19.334 29.274L19.4083 29.237L19.8664 29.5662L19.8389 29.7336L19.8967 29.9531L19.6353 30.3316L19.5885 30.4592L19.4441 30.5826L18.9474 30.2809L18.7659 30.0971L18.7123 29.7212L18.9103 29.163L19.0946 29.2631ZM14.4214 29.5018L14.6182 29.5347L15.2358 29.4167L15.489 29.4757L15.6582 29.702L15.8687 29.772L16.0351 29.8872L16.346 29.687L16.6611 29.916L16.9403 30.3439L17.2691 30.6471L17.5814 30.8721L17.6419 31.038L17.4534 31.311L17.3957 31.6553L17.4149 32.027L17.6502 32.8075L17.5676 33.0187L17.331 33.3177L17.1536 33.6497L17.1769 33.7841L17.1067 33.8938L17.0847 34.1284L16.9403 34.079L16.8069 34.116L16.6776 34.2217L16.4767 34.448L16.1617 34.3794L16.0145 34.3122L15.9787 34.116L15.8851 33.9775L15.7504 33.8952L15.4188 33.5564L15.2634 33.3013L15.2606 33.0297L15.1739 32.7759L15.002 32.5496L14.775 32.3754L14.6993 32.2081L14.6704 32.0106L14.6498 31.5044L14.3292 30.8734L14.2165 30.7225L13.9152 30.5662L13.6634 30.3645L13.5575 30.1643L13.4598 29.8406L13.3924 29.7939L13.1971 29.809L13.0072 29.7665L13.0622 29.5292L13.2507 29.3563L13.5093 29.3344L14.2247 29.4318L14.4214 29.5018ZM24.3718 31.9612L24.7006 32.5606L24.3416 32.1518L23.9248 31.8734L23.4928 31.4125L23.1805 31.2506L23.0855 31.1574L23.1186 30.9667L23.3483 30.931L23.4501 30.942L24.0788 31.7581L24.3718 31.9612ZM26.2786 33.5276L26.2923 33.8705L26.1478 33.7443L25.6815 33.0708L25.5522 32.8253L25.6843 32.6621L26.0213 32.9131L26.2786 33.5276ZM19.7866 33.9158L19.4758 34.891L19.2694 34.555L19.3533 34.3437L19.1745 34.1682L19.1277 34.0077L19.1965 33.7964L19.3836 33.6003L19.4303 32.9611L19.8251 32.7567L19.9833 32.7485L19.927 32.9049L19.9324 33.1998L19.7866 33.9158ZM20.6231 33.2341L20.5034 33.3534L20.4304 33.3342L20.3809 33.1229L20.4965 32.9817L20.5336 32.9954L20.6231 33.2341ZM26.0502 34.1805L26.7903 34.6427L27.3007 35.4342L27.3598 36.0405L27.3213 36.2709L27.0778 36.0117L26.5564 35.6413L26.1946 35.559L26.0832 35.4918L26.1245 35.2916L25.8879 35.1064L25.8603 35.031L25.6457 34.9487L25.332 34.533L25.1106 34.4548L24.9001 34.5426L24.4131 35.1599L23.8917 35.5933L23.8848 35.4274L24.0953 34.8855L24.2301 34.0187L24.3154 33.7553L24.2095 33.3657L24.1957 33.0187L24.5851 33.1792L25.0721 33.3411L25.4434 33.5619L25.504 33.71L26.0502 34.1805ZM31.9312 33.2382L32.2036 33.5578L32.271 33.7882L32.2421 34.0447L32.366 34.1586L32.5847 34.1887L32.864 34.3177L33.0731 34.555L32.9479 34.7717L32.9864 35.0886L32.7677 35.4877L32.7966 36.1955L32.9231 36.4218L32.9355 36.6495L32.9039 36.8882L32.9575 37.0843L33.2946 37.7318L33.3564 37.9471L33.2533 38.1172L33.2203 38.279L33.428 38.2955L33.7238 38.5644L33.8985 38.9196L33.8462 39.0129L33.6096 38.7344L33.4308 38.6906L32.6727 38.766L32.2078 38.6508L31.9065 38.6398L31.6052 38.1638L31.3438 38.0843L31.1375 37.8744L30.7936 37.3353L30.6849 37.0267L30.9242 36.714L30.9999 36.4643L30.9862 36.2202L30.7578 36.26L30.5583 36.179L30.3148 35.8786L30.2171 35.7058L30.0396 35.5618L29.7577 35.2189L29.3518 35.0845L29.1867 34.9911L28.8662 34.7031L28.6309 34.3465L28.4026 33.721L28.2829 33.0722L29.3298 33.2409L30.3891 33.208L31.5859 33.0599L31.9312 33.2382ZM21.9506 34.0955L21.7525 34.1874L21.3508 33.8033L21.1169 33.6236L21.0564 33.5235L21.2449 33.3795L21.7539 33.3808L22.0235 33.6442L22.0606 33.8088L21.9506 34.0955ZM12.0883 34.6482L12.2987 34.7072L12.4487 34.6496L12.5821 34.4425L12.7073 34.7484L13.021 34.9994L12.9164 35.2545L12.6426 35.2833L12.3744 35.2257L12.0896 35.3272L11.7444 35.2696L11.538 35.031L11.3027 34.6016L11.1858 34.5221L11.2009 34.3465L11.2876 34.2354L11.2422 34.2066L11.2642 34.1284L11.3069 34.0749L11.3826 34.0529L11.5669 34.2436L12.0043 34.5276L12.0883 34.6482ZM11.8517 36.4643L11.5627 36.5974L11.4884 36.5137L11.4375 36.3203L11.4417 36.1873L11.1652 35.485L11.377 35.378L11.5339 35.4603L11.692 35.5714L11.8392 35.629L11.9741 35.8512L11.9424 36.0048L11.9837 36.153L11.8517 36.4643ZM21.3384 36.8086L21.7882 37.0075L22.2257 36.836L22.6577 36.8841L23.0167 37.1433L22.8998 37.3079L22.8751 37.4876L23.6785 37.0967L23.8931 37.12L23.8862 37.4835L23.838 37.7921L23.7445 38.0911L23.5739 38.4409L23.3456 38.755L23.0456 38.9827L22.6894 39.1213L22.5201 39.2475L22.4692 39.4381L22.4761 39.6768L22.3936 39.8949L22.0207 39.984L21.4374 40.4079L20.1842 40.6767L19.8402 40.8619L19.6215 41.1006L19.3767 41.3173L19.2432 41.3708L19.1827 41.2679L19.1648 41.1801L19.3437 40.6164L19.3148 40.3818L19.2281 40.1541L19.2831 39.7083L19.5005 39.29L19.6161 38.8291L19.6504 37.9403L19.8197 36.7016L19.81 36.5535L19.6779 36.3861L19.1909 36.2503L18.9983 36.1228L19.0946 35.8745L19.279 35.7058L19.5321 35.7126L19.755 35.8704L20.5419 36.1955L20.9601 36.4685L21.3384 36.8086ZM30.4441 36.8882L30.3726 37.0885L30.2598 37.0322L30.1621 36.9417L30.0176 36.6385L29.9681 36.4163L30.191 36.5411L30.3189 36.762L30.4441 36.8882ZM29.4935 37.2887L29.0106 37.3134L28.8001 37.1351L28.5374 36.6111L28.8346 36.4973L29.1179 36.5274L29.3257 36.7126L29.5472 37.0638L29.4935 37.2887ZM29.3629 37.8703L29.6311 38.0074L29.9406 37.9526L30.3148 37.6426L30.7358 37.7551L30.982 38.2118L31.1086 38.3833L31.1774 38.6809L31.1595 39.3956L31.0577 40.043L31.1375 40.176L31.3314 40.2927L31.4993 40.4353L31.6409 40.6191L31.7318 40.8235L31.7676 41.32L32.0111 41.7384L32.0427 41.9016L31.9849 42.0731L31.5791 42.0401L31.5474 42.1842L31.5571 42.3625L31.414 42.25L31.176 41.8413L30.9586 41.6698L31.0261 42.3323L31.0976 42.6492L31.1099 42.9688L30.7344 42.7246L30.2859 42.5737L30.1621 42.4434L30.2034 42.0292L30.1951 41.8234L29.9943 41.3873L30.2295 40.4435L30.224 40.2501L30.1841 40.0567L29.9984 39.674L29.704 39.3531H29.5238L29.0877 39.578L28.8662 39.5039L28.7355 38.6192L28.5594 37.7606L28.4232 37.5411L28.3366 37.3106L28.4232 37.12L28.5911 37.1982L28.8304 37.4245L29.1194 37.5548L29.2638 37.6687L29.3629 37.8703ZM11.1665 37.1584L11.2505 37.3641L11.1417 37.6742L11.0496 37.7413L10.9258 37.6124L10.6616 37.5219L10.6437 37.3546L10.7827 37.3587L11.0359 37.1954L11.1665 37.1584ZM1.3207 49.144L0.963002 49.4238L1.00154 49.0782L1.10608 48.7531L1.46932 48.0851L1.73204 47.8794L2.16396 47.354L2.40889 47.0989L2.99489 46.5955L3.5342 46.044L3.71582 46.0029L3.91523 45.9947L4.07208 45.9316L4.42423 45.6339L5.30881 44.6408L6.04074 43.9001L6.79047 42.9633L7.14816 42.6903L7.24305 42.5902L7.93366 41.726L8.14962 41.5999L8.39455 41.5093L8.55963 41.3927L8.70539 41.246L8.94889 40.8701L9.04797 40.4298L8.98609 40.1816L8.84847 39.8153L9.02043 39.3146L9.15662 39.0842L9.63817 38.0664L9.77713 37.8607L9.97797 37.9896L10.0054 38.172L9.90644 38.6014L9.89812 38.8167L10.0123 39.0348L9.87478 39.3956L10.22 40.353L10.4842 40.9579L10.4939 41.1582L10.1389 41.5203L9.92844 41.63L9.47309 41.7274L9.26805 41.833L8.94201 42.1266L8.73847 42.5134L8.68751 42.7136L8.58297 42.8673L7.64474 43.1293L7.20451 43.3007L7.00366 43.4296L6.89778 43.6395L6.97209 44.0099L6.18373 45.3445L5.93201 45.6929L5.66374 45.9905L5.33358 46.2018L4.87001 46.3307L4.50131 46.5886L4.25093 47.0454L3.94278 47.4569L3.55343 47.7627L3.13251 48.0316L2.74727 48.2278L2.33047 48.3663L2.20527 48.546L2.11719 48.7682L1.93289 48.8724L1.71416 48.9314L1.3207 49.144ZM26.207 38.1035L26.4326 38.6206L26.1272 38.6178L26.0158 38.242L26.1465 38.1199L26.207 38.1035ZM24.7144 45.2334L24.5658 45.3363L24.5053 45.0798L24.5479 44.7341L24.8437 43.5271L24.7763 43.2253L25.2701 42.5518L25.5742 41.9208L26.0323 41.2569L26.0901 40.9126L26.4959 40.2556L26.8742 39.3489L26.8536 39.0485L26.9512 38.899L27.0063 38.6713L27.0173 38.478L27.2951 38.1405L27.3681 38.36L27.2856 38.7907L27.2993 38.9978L27.3474 39.0952L27.3502 39.4957L27.2511 40.1102L27.3419 40.8194L27.1631 41.5409L26.9595 41.8646L26.6583 42.0936L26.3294 42.2363L25.9883 42.5957L25.7681 43.0154L25.7324 43.3981L25.1904 44.6874L24.7144 45.2334ZM23.7899 46.7271L23.5341 46.7683L23.2644 46.7463L23.0828 46.5557L22.7691 45.7354L22.4046 45.5352L21.9878 45.3843L21.7787 45.2567L21.5943 45.1031L21.0082 44.2842L20.9642 43.7835L21.0646 43.4996L21.2421 43.2458L21.443 43.1773L21.9259 43.1676L22.1762 43.1347L22.7265 42.7589L22.765 42.6108L22.7691 41.9921L22.7141 41.5601L22.5765 41.1376L22.7251 40.9442L22.9204 40.7535L23.1227 40.3804L23.1612 40.1184L23.1654 39.8441L23.2176 39.648L23.3758 39.5492L24.1379 39.2502L24.2728 39.2296L25.2537 39.5067L25.4545 39.9237L25.4738 40.0608L25.321 40.5231L25.1848 40.8331L24.8547 41.3132L24.6084 41.8316L24.4254 42.6121L24.3099 42.8659L24.0018 43.3542L23.9082 43.6217L23.911 44.2019L23.8587 44.4159L23.8614 44.6216L24.4722 45.5887L24.5245 45.7409L24.519 45.9137L24.4144 46.1291L24.1641 46.5008L24.0237 46.6311L23.7899 46.7271ZM21.9313 41.261L21.824 41.3145L21.7291 41.3077L21.5021 41.4476L21.4182 41.1856L21.4994 40.7384L21.8406 40.3969L21.9272 40.2899L22.0194 40.2268L22.1308 40.22L22.2381 40.353L22.2684 40.5546L22.0524 41.1636L21.9313 41.261ZM28.3668 40.7426L28.2596 40.7604L28.4383 40.3516L28.5801 40.4106L28.6227 40.4559L28.6186 40.6397L28.3668 40.7426ZM11.3784 41.2089L10.9024 41.3283L10.7924 40.9538L11.1294 40.6095L11.5077 40.7481L11.7334 40.8825L11.6274 41.0045L11.3784 41.2089ZM33.6701 43.4296L33.6027 43.538L33.5105 43.3144L33.2863 43.1046L33.0703 42.7479L32.9176 42.6368L33.0222 42.3543L33.0318 41.8948L33.2465 41.6849L33.3454 41.6232L33.5078 41.3996L33.5807 41.3873L33.6495 41.5738L33.5036 42.1444L33.7224 42.8192L33.6481 43.2404L33.6798 43.335L33.6701 43.4296ZM29.4385 43.9235L29.4013 44.0661L29.0973 44.0551L28.9886 44.0771L28.7025 44.4419L28.5346 44.5338L27.6185 44.6532L26.8976 44.5571L26.6499 44.3569L26.489 44.0263L26.4395 43.8082L26.6211 43.5695L26.7944 43.4118L27.3777 43.0991L27.5098 42.8618L27.8152 42.5751L28.4439 42.4791L28.5044 42.5504L28.5883 42.5957L28.7149 42.608L29.0272 42.8439L29.3766 42.9948L29.2913 43.5668L29.3959 43.7602L29.4385 43.9235ZM32.0908 43.1663L32.1169 43.3583L31.6217 42.8522L31.5213 42.4942L31.6864 42.5093L31.8982 42.6464L32.0908 43.1663ZM35.0954 44.0058L35.0472 44.0263L34.8326 43.7245L34.8614 43.3816L35.1517 42.8686L35.3663 43.3172L35.3636 43.5202L35.3333 43.6203L35.5342 43.8741L35.3952 43.9989L35.0954 44.0058ZM34.8903 45.7313L35.2054 45.9645L35.6139 45.9028L35.6085 46.4912L35.6745 46.6627L36.0446 47.1606L36.1024 47.5762L35.8836 47.9657L35.7199 48.1509L35.4145 48.417L35.4076 48.5391L35.537 48.6777L35.9593 48.7572L36.2785 48.9712L36.3349 49.5788L36.6403 50.0575L36.632 50.266L36.511 51.1219L36.5495 51.4868L36.7778 51.779L36.9704 51.9024L37.0695 52.0862L37.1589 52.5896L37.1424 53.4442L37.1135 53.7432L36.9786 54.0203L36.5618 54.6499L36.0033 55.1505L35.7048 55.1176L35.6098 55.2657L35.7956 55.7225L35.7213 56.6868L35.5988 57.3548L35.4172 57.016L35.2907 56.6621L35.1765 55.7239L35.0334 55.3014L34.8092 54.9146L34.7198 54.5689L34.4873 54.2466L34.1901 53.4126L33.9934 53.4551L33.6674 53.6842L33.5945 53.8406L33.556 54.0779L33.4803 54.2919L33.1006 54.6334L32.8007 55.0394L32.5544 55.4838L32.4761 55.8912L32.6769 56.2095L32.8832 56.3384L33.1845 56.6237L33.2767 56.754L33.5931 57.6799L33.5821 58.6277L33.351 59.0447L32.7636 59.8361L32.3398 60.0872L32.1143 59.9596L31.9326 59.4795L31.9038 59.282L32.0262 58.8307L32.04 58.4178L31.8969 58.2779L31.7414 58.3054L31.6754 58.3643L31.297 58.9062L31.1403 59.0433L30.9078 59.0625L30.7234 59.0255L29.6008 58.5522L28.6833 58.0859L27.9651 57.6497L27.4451 56.9913L27.3364 56.4989L27.3296 55.9831L27.0971 55.2274L27.0695 54.9695L27.0861 54.7226L27.3186 54.259L27.5978 54.0244L27.7547 53.8557L27.8799 53.6691L27.9665 53.4195L27.9418 53.1712L27.8482 53.0162L27.4066 52.4717L27.0228 52.137L26.2373 51.8366L26.0543 51.6706L25.8534 51.5458L25.6347 51.4923L25.4201 51.4909L25.1876 51.5842L25.1271 51.7831L25.1436 51.9614L25.1229 52.1342L24.7941 53.1287L24.3732 52.9106L23.9715 52.6582L23.8656 52.4813L23.8201 52.27L23.7514 52.1274L23.6578 51.9984L23.4735 52.3304L23.2437 52.5924L22.9631 52.6527L22.6784 52.6568L22.5848 52.543L22.4816 51.9107L22.1804 51.7104L21.8034 51.7529L21.3467 52.1013L21.2572 52.2316L21.1568 52.532L20.6602 53.3852L20.3974 54.0408L20.1058 54.68L19.9764 54.8899L19.8045 55.0284L19.5335 54.9708L19.2872 54.8186L19.0562 54.4071L19.1345 53.9284L19.3932 53.6225L19.6092 53.296L19.8692 52.1535L19.8898 51.7474L19.9352 51.5732L20.3658 51.0534L20.729 50.731L20.9202 50.6638L21.7029 50.48L22.0249 50.3264L22.5325 50.3236L22.9452 50.2359L23.274 49.9876L23.2988 49.7311L23.2837 49.4636L23.3566 49.3004L23.4831 49.1632L23.6592 48.9821L23.8573 48.8464L24.42 48.7476L24.6071 48.6351L24.757 48.4609L24.9661 48.1208L25.2151 48.2058L25.4655 48.3375L25.9153 48.4417L26.3129 48.7243L26.5688 49.1687L26.6115 49.3881L26.6775 50.111L26.5853 50.2798L26.1974 50.6158L26.3762 50.6515L26.8852 50.3456L27.1397 50.2276L27.767 50.063L27.9142 49.9547L28.0229 49.7928L28.2444 49.3498L28.4053 48.8765L28.5333 48.679L28.7135 48.5227L28.8938 48.4966L29.5527 48.8203L29.975 48.6639L30.0933 48.1729L30.1896 47.4596L30.2653 47.2662L30.5074 47.0797L30.7963 47.14L31.1925 47.3965L31.5584 47.4816L31.6946 47.2758L31.8239 46.8698L31.9712 46.8712L32.4636 47.0056L32.9396 46.9164L33.0745 46.4281L32.9851 45.9055L32.6123 44.3802L32.8337 44.04L33.0263 44.0305L33.4954 44.4365L34.3992 44.9851L34.7005 45.3198L34.8903 45.7313ZM34.7528 44.6751L34.6826 44.7739L34.5657 44.5668L34.6675 44.11L34.7418 44.0332L34.8381 44.3226L34.7528 44.6751ZM25.9772 46.0564L26.0103 46.4583L25.6554 46.5749L25.3706 46.472L25.1876 46.2306L25.1889 46.1401L25.3486 46.1469L25.6994 45.9357L25.8108 45.8945L25.9772 46.0564ZM30.2598 46.4226L30.1497 46.6531L29.7164 46.4624L29.6132 46.2964L29.6683 46.1003L29.8801 46.0331H29.9902L30.1965 46.2388L30.2598 46.4226ZM1.49131 50.0123L1.2285 50.1028L1.17073 49.8614L1.20373 49.6241L1.39223 49.6501L1.48443 49.7242L1.49131 50.0123ZM0.427889 51.292L0.227043 51.5856L0 51.2482L0.0247699 50.7776L0.0949652 50.6473L0.415462 50.576L0.427889 51.292ZM23.0415 53.1232L23.0842 53.2124L23.0663 53.3084L22.6646 53.4867L22.5297 53.4812L22.4981 53.1835L22.5972 53.0478L22.787 53.1685L22.9549 53.0286L23.0415 53.1232ZM34.0361 54.8433L33.9755 55.0628L33.7376 54.5456L33.644 54.4181L33.765 53.986L34.0305 54.1972L34.0361 54.8433ZM19.7825 56.9008L19.3918 56.9543L19.2666 56.9501L18.9599 56.5579L18.931 56.385L18.6847 56.1889L18.7741 55.9941L19.0933 55.9475L19.6463 55.6992L20.5336 56.0915L20.6712 56.2328L20.3947 56.3192L20.1979 56.6909L19.7825 56.9008ZM16.1768 58.2573L16.3873 58.5344L16.6514 58.4617L17.0724 58.5399L17.1618 58.6839L17.1481 58.7786L16.6982 59.0461L16.4024 58.7662L15.881 58.9569L15.6321 58.8417L15.2922 58.9446L15.0832 58.7278L15.1684 58.5193L15.7077 58.1764L16.1768 58.2573ZM12.6688 61.4053L12.5642 61.6372L12.4418 61.7455L12.2822 61.6851L12.1598 61.5658L12.091 61.7441L11.7539 61.8127L11.5407 62.087L11.2298 62.1611L11.0124 62.1254L11.0359 61.8813L11.6371 61.515L12.0112 61.3793L12.34 61.1145L12.5051 61.0857L12.589 61.3011L12.6688 61.4053Z"/>
</mask>
<path d="M18.953 0.242787L18.7659 0.576076L18.6159 0.573355L18.6379 0.386785L18.8374 0L18.9117 0.00820454L18.953 0.242787ZM19.2694 1.94364L19.1978 1.99303L19.0919 1.96972L19.1965 1.58427L19.3904 1.47866L19.5445 1.51981L19.2694 1.94364ZM17.5732 6.02845L17.6131 6.39607L17.3847 6.38782L17.0407 6.16425L17.0091 6.05039L17.0146 5.95574L17.0752 5.87483L17.5732 6.02845ZM16.5359 7.16009L16.5139 7.43306L16.3185 7.28902L16.2759 7.08462L16.2951 6.93238L16.3846 6.75133L16.507 6.91592L16.5359 7.16009ZM19.1208 7.91998L18.8759 8.21078L18.748 8.12986L18.8856 7.84727L18.8814 7.74852L18.9942 7.52771L19.2034 7.45089L19.3753 7.66898L19.1208 7.91998ZM15.954 9.04885L16.5455 9.25874L17.8524 10.0131L18.3298 10.1997L18.8278 10.3396L19.2198 10.3808L19.5721 10.2079L19.7193 10.0324L19.9889 9.56871L20.2764 9.51111L20.447 9.67985L20.5804 9.90614L20.6396 10.2381L20.5571 10.5851L20.2832 10.8965L20.1154 11.2696L20.0054 12.5068L20.0109 12.8772L20.0989 13.2338L20.3369 13.7989L20.4608 13.9581L20.8211 14.1597L20.9189 14.3119L20.9394 14.5863L20.9959 14.8277L21.2297 14.9196L21.4279 15.0403L21.3536 15.3078L21.2297 15.5794L21.0674 16.2487L20.2942 17.796L20.2502 18.1293L19.9449 18.7932L19.3244 18.9002L18.6076 19.2211L18.2087 19.4708L17.8607 19.7945L17.7286 20.2183L17.8414 20.4117L17.9143 20.6188L17.9061 20.8425L17.7988 21.0276L17.4534 21.4789L17.3077 21.8479L17.1536 22.0138L17.0779 22.2141L17.1041 22.4432L17.2429 22.6434L17.6639 23.5035L18.1152 24.3333L18.2115 24.4294L18.2486 24.5404L17.9831 24.7599L17.9886 25.1577L18.0684 25.5527L18.4673 26.5294L18.5237 26.79L18.6558 27.0039L18.8594 27.2042L19.0836 27.3729L19.733 27.661L19.9833 27.7186L20.2434 27.7282L20.308 27.5334L20.535 27.4676L20.4855 27.2769L20.2076 27.0122L20.1966 26.8695L20.3424 26.7625L20.5157 26.7008L20.9064 26.4128L21.3206 26.1823L21.8474 26.2015L22.3633 26.3305L22.7306 26.4649L23.0333 26.7118L23.3442 27.1397L23.5615 27.613L23.5602 27.8379L23.5079 28.0643L23.5189 28.2878L23.6813 28.4401L24.1806 28.4511L24.4351 28.0999L24.4668 27.7049L24.2879 27.5526L24.3704 27.3579L24.5232 27.2124L24.7446 27.3428L24.9551 27.5883L25.7296 27.8558L25.9278 27.8612L26.0887 27.912L26.4353 28.0972L26.5977 28.2453L26.3982 28.5526L25.6292 28.6212L25.4063 28.8516L25.6333 29.3139L26.002 29.6938L26.2386 30.001L26.4478 30.3316L26.4381 30.6375L26.3157 30.9557L26.6541 30.931L26.9719 30.9983L27.4121 31.2644L27.5496 31.2918L27.6955 31.2493L27.6748 32.2094L27.375 33.0887L26.9966 32.9789L26.6734 32.6072L26.7394 32.1546L26.9458 31.717L26.8274 31.6251L26.6197 31.6608L26.3817 31.7595L26.1245 31.7938L25.7021 31.7362L24.8354 31.2602L24.4832 31.2163L24.4034 31.001L24.4228 30.5442L24.0774 30.001L24.0224 29.8063L23.9123 29.654L22.8819 29.0628L22.7554 28.9627L22.439 28.4909L21.7208 27.8187L21.52 27.7501L21.3012 27.7309L21.2297 27.901L21.3288 28.163L21.3687 28.388L21.3536 28.6239L21.3824 28.8063L21.7223 29.1794L21.7731 29.355L22.0001 29.8337L22.0276 30.3933L21.7374 30.6252L21.4113 30.3673L21.4003 30.156L21.3439 29.9599L20.9931 29.451L20.8748 29.3413L20.2145 28.8393L19.7027 28.2878L18.565 27.6994L18.4288 27.6678L18.2307 27.7118L18.045 27.7844L17.4947 28.0752L17.3008 28.2769L17.2829 28.5882L16.888 28.8351L16.3447 28.8694L15.9278 28.7144L15.5825 28.4044L15.2977 28.3893L14.9442 27.9051L14.5136 27.8434L14.1573 28.222L14.0816 27.4703L14.0789 26.7104L14.1779 26.4882L14.3554 26.303L15.2565 25.5047L15.3707 25.2482L15.3321 24.9053L15.1272 24.6255L14.8039 24.4554L14.4311 24.3841L14.1628 24.2277L13.9523 23.9699L13.8092 24.4266L13.9482 25.1042L13.9715 25.5445L13.8437 25.7105L13.6125 25.7146L13.3924 25.6625L13.2287 25.5047L13.1091 25.0493L12.794 24.749L12.6661 24.3183L12.523 24.2565L12.2299 24.2894L12.014 24.0892L11.8709 23.5858L11.8407 23.0453L11.7182 22.5899L11.5421 22.1496L11.4389 21.7903L11.2807 20.1744L11.2422 20.0263L11.1569 19.9042L10.9574 19.7204L10.8075 19.4955L10.7786 19.3103L10.8199 18.5133L10.8887 18.3213L11.0441 18.2294L11.2574 18.3858L11.4279 18.5792L11.6397 18.6725L11.8269 18.7945L12.1763 19.2664L12.3139 19.3405L12.7445 19.3254L12.999 19.2664L13.1214 19.0949L13.1998 18.8906L13.2012 18.6491L12.9522 17.9359L12.8766 17.4215L12.8724 16.9579L12.9371 16.4929L13.2768 15.7193L13.3195 15.1816L13.2878 14.4615L13.347 14.0321L13.3374 13.7852L13.1352 13.3971L13.0815 12.9828L13.6483 10.8745L13.8258 10.4658L13.9551 10.0433L14.0142 9.48231L14.4379 9.32869L14.841 9.09687L15.0487 9.1147L15.2702 9.17096L15.7572 9.05572L15.954 9.04885ZM19.5542 23.4815L19.6243 23.6201L19.5459 23.6132L19.4909 23.6392L19.3092 23.9246L19.5074 24.4527L19.3849 24.8367L19.1648 24.8614L19.0782 24.8203L19.1235 24.6296L19.1703 24.5432L19.1263 24.2922L18.9956 24.1344L18.8911 23.8285L18.7301 23.6448L18.8058 23.3498L19.3148 23.3169L19.5542 23.4815ZM20.1003 27.2605L20.0879 27.421L19.2556 26.8366L19.2171 26.7365L19.2157 26.6432L19.2666 26.5499L20.1003 27.2605ZM28.5099 28.901L28.4081 29.1561L28.2816 29.0656L28.1027 29.0807L27.822 29.2974L27.3653 29.0066L27.2951 28.7789L27.6212 28.2782L27.6185 27.5334L27.7381 27.3496L27.8633 27.2179L28.0119 27.1466L28.3338 27.661L28.4439 27.7241L28.7548 27.96L28.6736 28.436L28.7025 28.7144L28.5099 28.901ZM12.7486 28.4346L12.754 28.7007L12.1034 28.3084L12.0841 28.1726L12.1006 28.0711L12.1681 28.0108L12.5174 28.1575L12.7486 28.4346ZM19.0946 29.2631L19.334 29.274L19.4083 29.237L19.8664 29.5662L19.8389 29.7336L19.8967 29.9531L19.6353 30.3316L19.5885 30.4592L19.4441 30.5826L18.9474 30.2809L18.7659 30.0971L18.7123 29.7212L18.9103 29.163L19.0946 29.2631ZM14.4214 29.5018L14.6182 29.5347L15.2358 29.4167L15.489 29.4757L15.6582 29.702L15.8687 29.772L16.0351 29.8872L16.346 29.687L16.6611 29.916L16.9403 30.3439L17.2691 30.6471L17.5814 30.8721L17.6419 31.038L17.4534 31.311L17.3957 31.6553L17.4149 32.027L17.6502 32.8075L17.5676 33.0187L17.331 33.3177L17.1536 33.6497L17.1769 33.7841L17.1067 33.8938L17.0847 34.1284L16.9403 34.079L16.8069 34.116L16.6776 34.2217L16.4767 34.448L16.1617 34.3794L16.0145 34.3122L15.9787 34.116L15.8851 33.9775L15.7504 33.8952L15.4188 33.5564L15.2634 33.3013L15.2606 33.0297L15.1739 32.7759L15.002 32.5496L14.775 32.3754L14.6993 32.2081L14.6704 32.0106L14.6498 31.5044L14.3292 30.8734L14.2165 30.7225L13.9152 30.5662L13.6634 30.3645L13.5575 30.1643L13.4598 29.8406L13.3924 29.7939L13.1971 29.809L13.0072 29.7665L13.0622 29.5292L13.2507 29.3563L13.5093 29.3344L14.2247 29.4318L14.4214 29.5018ZM24.3718 31.9612L24.7006 32.5606L24.3416 32.1518L23.9248 31.8734L23.4928 31.4125L23.1805 31.2506L23.0855 31.1574L23.1186 30.9667L23.3483 30.931L23.4501 30.942L24.0788 31.7581L24.3718 31.9612ZM26.2786 33.5276L26.2923 33.8705L26.1478 33.7443L25.6815 33.0708L25.5522 32.8253L25.6843 32.6621L26.0213 32.9131L26.2786 33.5276ZM19.7866 33.9158L19.4758 34.891L19.2694 34.555L19.3533 34.3437L19.1745 34.1682L19.1277 34.0077L19.1965 33.7964L19.3836 33.6003L19.4303 32.9611L19.8251 32.7567L19.9833 32.7485L19.927 32.9049L19.9324 33.1998L19.7866 33.9158ZM20.6231 33.2341L20.5034 33.3534L20.4304 33.3342L20.3809 33.1229L20.4965 32.9817L20.5336 32.9954L20.6231 33.2341ZM26.0502 34.1805L26.7903 34.6427L27.3007 35.4342L27.3598 36.0405L27.3213 36.2709L27.0778 36.0117L26.5564 35.6413L26.1946 35.559L26.0832 35.4918L26.1245 35.2916L25.8879 35.1064L25.8603 35.031L25.6457 34.9487L25.332 34.533L25.1106 34.4548L24.9001 34.5426L24.4131 35.1599L23.8917 35.5933L23.8848 35.4274L24.0953 34.8855L24.2301 34.0187L24.3154 33.7553L24.2095 33.3657L24.1957 33.0187L24.5851 33.1792L25.0721 33.3411L25.4434 33.5619L25.504 33.71L26.0502 34.1805ZM31.9312 33.2382L32.2036 33.5578L32.271 33.7882L32.2421 34.0447L32.366 34.1586L32.5847 34.1887L32.864 34.3177L33.0731 34.555L32.9479 34.7717L32.9864 35.0886L32.7677 35.4877L32.7966 36.1955L32.9231 36.4218L32.9355 36.6495L32.9039 36.8882L32.9575 37.0843L33.2946 37.7318L33.3564 37.9471L33.2533 38.1172L33.2203 38.279L33.428 38.2955L33.7238 38.5644L33.8985 38.9196L33.8462 39.0129L33.6096 38.7344L33.4308 38.6906L32.6727 38.766L32.2078 38.6508L31.9065 38.6398L31.6052 38.1638L31.3438 38.0843L31.1375 37.8744L30.7936 37.3353L30.6849 37.0267L30.9242 36.714L30.9999 36.4643L30.9862 36.2202L30.7578 36.26L30.5583 36.179L30.3148 35.8786L30.2171 35.7058L30.0396 35.5618L29.7577 35.2189L29.3518 35.0845L29.1867 34.9911L28.8662 34.7031L28.6309 34.3465L28.4026 33.721L28.2829 33.0722L29.3298 33.2409L30.3891 33.208L31.5859 33.0599L31.9312 33.2382ZM21.9506 34.0955L21.7525 34.1874L21.3508 33.8033L21.1169 33.6236L21.0564 33.5235L21.2449 33.3795L21.7539 33.3808L22.0235 33.6442L22.0606 33.8088L21.9506 34.0955ZM12.0883 34.6482L12.2987 34.7072L12.4487 34.6496L12.5821 34.4425L12.7073 34.7484L13.021 34.9994L12.9164 35.2545L12.6426 35.2833L12.3744 35.2257L12.0896 35.3272L11.7444 35.2696L11.538 35.031L11.3027 34.6016L11.1858 34.5221L11.2009 34.3465L11.2876 34.2354L11.2422 34.2066L11.2642 34.1284L11.3069 34.0749L11.3826 34.0529L11.5669 34.2436L12.0043 34.5276L12.0883 34.6482ZM11.8517 36.4643L11.5627 36.5974L11.4884 36.5137L11.4375 36.3203L11.4417 36.1873L11.1652 35.485L11.377 35.378L11.5339 35.4603L11.692 35.5714L11.8392 35.629L11.9741 35.8512L11.9424 36.0048L11.9837 36.153L11.8517 36.4643ZM21.3384 36.8086L21.7882 37.0075L22.2257 36.836L22.6577 36.8841L23.0167 37.1433L22.8998 37.3079L22.8751 37.4876L23.6785 37.0967L23.8931 37.12L23.8862 37.4835L23.838 37.7921L23.7445 38.0911L23.5739 38.4409L23.3456 38.755L23.0456 38.9827L22.6894 39.1213L22.5201 39.2475L22.4692 39.4381L22.4761 39.6768L22.3936 39.8949L22.0207 39.984L21.4374 40.4079L20.1842 40.6767L19.8402 40.8619L19.6215 41.1006L19.3767 41.3173L19.2432 41.3708L19.1827 41.2679L19.1648 41.1801L19.3437 40.6164L19.3148 40.3818L19.2281 40.1541L19.2831 39.7083L19.5005 39.29L19.6161 38.8291L19.6504 37.9403L19.8197 36.7016L19.81 36.5535L19.6779 36.3861L19.1909 36.2503L18.9983 36.1228L19.0946 35.8745L19.279 35.7058L19.5321 35.7126L19.755 35.8704L20.5419 36.1955L20.9601 36.4685L21.3384 36.8086ZM30.4441 36.8882L30.3726 37.0885L30.2598 37.0322L30.1621 36.9417L30.0176 36.6385L29.9681 36.4163L30.191 36.5411L30.3189 36.762L30.4441 36.8882ZM29.4935 37.2887L29.0106 37.3134L28.8001 37.1351L28.5374 36.6111L28.8346 36.4973L29.1179 36.5274L29.3257 36.7126L29.5472 37.0638L29.4935 37.2887ZM29.3629 37.8703L29.6311 38.0074L29.9406 37.9526L30.3148 37.6426L30.7358 37.7551L30.982 38.2118L31.1086 38.3833L31.1774 38.6809L31.1595 39.3956L31.0577 40.043L31.1375 40.176L31.3314 40.2927L31.4993 40.4353L31.6409 40.6191L31.7318 40.8235L31.7676 41.32L32.0111 41.7384L32.0427 41.9016L31.9849 42.0731L31.5791 42.0401L31.5474 42.1842L31.5571 42.3625L31.414 42.25L31.176 41.8413L30.9586 41.6698L31.0261 42.3323L31.0976 42.6492L31.1099 42.9688L30.7344 42.7246L30.2859 42.5737L30.1621 42.4434L30.2034 42.0292L30.1951 41.8234L29.9943 41.3873L30.2295 40.4435L30.224 40.2501L30.1841 40.0567L29.9984 39.674L29.704 39.3531H29.5238L29.0877 39.578L28.8662 39.5039L28.7355 38.6192L28.5594 37.7606L28.4232 37.5411L28.3366 37.3106L28.4232 37.12L28.5911 37.1982L28.8304 37.4245L29.1194 37.5548L29.2638 37.6687L29.3629 37.8703ZM11.1665 37.1584L11.2505 37.3641L11.1417 37.6742L11.0496 37.7413L10.9258 37.6124L10.6616 37.5219L10.6437 37.3546L10.7827 37.3587L11.0359 37.1954L11.1665 37.1584ZM1.3207 49.144L0.963002 49.4238L1.00154 49.0782L1.10608 48.7531L1.46932 48.0851L1.73204 47.8794L2.16396 47.354L2.40889 47.0989L2.99489 46.5955L3.5342 46.044L3.71582 46.0029L3.91523 45.9947L4.07208 45.9316L4.42423 45.6339L5.30881 44.6408L6.04074 43.9001L6.79047 42.9633L7.14816 42.6903L7.24305 42.5902L7.93366 41.726L8.14962 41.5999L8.39455 41.5093L8.55963 41.3927L8.70539 41.246L8.94889 40.8701L9.04797 40.4298L8.98609 40.1816L8.84847 39.8153L9.02043 39.3146L9.15662 39.0842L9.63817 38.0664L9.77713 37.8607L9.97797 37.9896L10.0054 38.172L9.90644 38.6014L9.89812 38.8167L10.0123 39.0348L9.87478 39.3956L10.22 40.353L10.4842 40.9579L10.4939 41.1582L10.1389 41.5203L9.92844 41.63L9.47309 41.7274L9.26805 41.833L8.94201 42.1266L8.73847 42.5134L8.68751 42.7136L8.58297 42.8673L7.64474 43.1293L7.20451 43.3007L7.00366 43.4296L6.89778 43.6395L6.97209 44.0099L6.18373 45.3445L5.93201 45.6929L5.66374 45.9905L5.33358 46.2018L4.87001 46.3307L4.50131 46.5886L4.25093 47.0454L3.94278 47.4569L3.55343 47.7627L3.13251 48.0316L2.74727 48.2278L2.33047 48.3663L2.20527 48.546L2.11719 48.7682L1.93289 48.8724L1.71416 48.9314L1.3207 49.144ZM26.207 38.1035L26.4326 38.6206L26.1272 38.6178L26.0158 38.242L26.1465 38.1199L26.207 38.1035ZM24.7144 45.2334L24.5658 45.3363L24.5053 45.0798L24.5479 44.7341L24.8437 43.5271L24.7763 43.2253L25.2701 42.5518L25.5742 41.9208L26.0323 41.2569L26.0901 40.9126L26.4959 40.2556L26.8742 39.3489L26.8536 39.0485L26.9512 38.899L27.0063 38.6713L27.0173 38.478L27.2951 38.1405L27.3681 38.36L27.2856 38.7907L27.2993 38.9978L27.3474 39.0952L27.3502 39.4957L27.2511 40.1102L27.3419 40.8194L27.1631 41.5409L26.9595 41.8646L26.6583 42.0936L26.3294 42.2363L25.9883 42.5957L25.7681 43.0154L25.7324 43.3981L25.1904 44.6874L24.7144 45.2334ZM23.7899 46.7271L23.5341 46.7683L23.2644 46.7463L23.0828 46.5557L22.7691 45.7354L22.4046 45.5352L21.9878 45.3843L21.7787 45.2567L21.5943 45.1031L21.0082 44.2842L20.9642 43.7835L21.0646 43.4996L21.2421 43.2458L21.443 43.1773L21.9259 43.1676L22.1762 43.1347L22.7265 42.7589L22.765 42.6108L22.7691 41.9921L22.7141 41.5601L22.5765 41.1376L22.7251 40.9442L22.9204 40.7535L23.1227 40.3804L23.1612 40.1184L23.1654 39.8441L23.2176 39.648L23.3758 39.5492L24.1379 39.2502L24.2728 39.2296L25.2537 39.5067L25.4545 39.9237L25.4738 40.0608L25.321 40.5231L25.1848 40.8331L24.8547 41.3132L24.6084 41.8316L24.4254 42.6121L24.3099 42.8659L24.0018 43.3542L23.9082 43.6217L23.911 44.2019L23.8587 44.4159L23.8614 44.6216L24.4722 45.5887L24.5245 45.7409L24.519 45.9137L24.4144 46.1291L24.1641 46.5008L24.0237 46.6311L23.7899 46.7271ZM21.9313 41.261L21.824 41.3145L21.7291 41.3077L21.5021 41.4476L21.4182 41.1856L21.4994 40.7384L21.8406 40.3969L21.9272 40.2899L22.0194 40.2268L22.1308 40.22L22.2381 40.353L22.2684 40.5546L22.0524 41.1636L21.9313 41.261ZM28.3668 40.7426L28.2596 40.7604L28.4383 40.3516L28.5801 40.4106L28.6227 40.4559L28.6186 40.6397L28.3668 40.7426ZM11.3784 41.2089L10.9024 41.3283L10.7924 40.9538L11.1294 40.6095L11.5077 40.7481L11.7334 40.8825L11.6274 41.0045L11.3784 41.2089ZM33.6701 43.4296L33.6027 43.538L33.5105 43.3144L33.2863 43.1046L33.0703 42.7479L32.9176 42.6368L33.0222 42.3543L33.0318 41.8948L33.2465 41.6849L33.3454 41.6232L33.5078 41.3996L33.5807 41.3873L33.6495 41.5738L33.5036 42.1444L33.7224 42.8192L33.6481 43.2404L33.6798 43.335L33.6701 43.4296ZM29.4385 43.9235L29.4013 44.0661L29.0973 44.0551L28.9886 44.0771L28.7025 44.4419L28.5346 44.5338L27.6185 44.6532L26.8976 44.5571L26.6499 44.3569L26.489 44.0263L26.4395 43.8082L26.6211 43.5695L26.7944 43.4118L27.3777 43.0991L27.5098 42.8618L27.8152 42.5751L28.4439 42.4791L28.5044 42.5504L28.5883 42.5957L28.7149 42.608L29.0272 42.8439L29.3766 42.9948L29.2913 43.5668L29.3959 43.7602L29.4385 43.9235ZM32.0908 43.1663L32.1169 43.3583L31.6217 42.8522L31.5213 42.4942L31.6864 42.5093L31.8982 42.6464L32.0908 43.1663ZM35.0954 44.0058L35.0472 44.0263L34.8326 43.7245L34.8614 43.3816L35.1517 42.8686L35.3663 43.3172L35.3636 43.5202L35.3333 43.6203L35.5342 43.8741L35.3952 43.9989L35.0954 44.0058ZM34.8903 45.7313L35.2054 45.9645L35.6139 45.9028L35.6085 46.4912L35.6745 46.6627L36.0446 47.1606L36.1024 47.5762L35.8836 47.9657L35.7199 48.1509L35.4145 48.417L35.4076 48.5391L35.537 48.6777L35.9593 48.7572L36.2785 48.9712L36.3349 49.5788L36.6403 50.0575L36.632 50.266L36.511 51.1219L36.5495 51.4868L36.7778 51.779L36.9704 51.9024L37.0695 52.0862L37.1589 52.5896L37.1424 53.4442L37.1135 53.7432L36.9786 54.0203L36.5618 54.6499L36.0033 55.1505L35.7048 55.1176L35.6098 55.2657L35.7956 55.7225L35.7213 56.6868L35.5988 57.3548L35.4172 57.016L35.2907 56.6621L35.1765 55.7239L35.0334 55.3014L34.8092 54.9146L34.7198 54.5689L34.4873 54.2466L34.1901 53.4126L33.9934 53.4551L33.6674 53.6842L33.5945 53.8406L33.556 54.0779L33.4803 54.2919L33.1006 54.6334L32.8007 55.0394L32.5544 55.4838L32.4761 55.8912L32.6769 56.2095L32.8832 56.3384L33.1845 56.6237L33.2767 56.754L33.5931 57.6799L33.5821 58.6277L33.351 59.0447L32.7636 59.8361L32.3398 60.0872L32.1143 59.9596L31.9326 59.4795L31.9038 59.282L32.0262 58.8307L32.04 58.4178L31.8969 58.2779L31.7414 58.3054L31.6754 58.3643L31.297 58.9062L31.1403 59.0433L30.9078 59.0625L30.7234 59.0255L29.6008 58.5522L28.6833 58.0859L27.9651 57.6497L27.4451 56.9913L27.3364 56.4989L27.3296 55.9831L27.0971 55.2274L27.0695 54.9695L27.0861 54.7226L27.3186 54.259L27.5978 54.0244L27.7547 53.8557L27.8799 53.6691L27.9665 53.4195L27.9418 53.1712L27.8482 53.0162L27.4066 52.4717L27.0228 52.137L26.2373 51.8366L26.0543 51.6706L25.8534 51.5458L25.6347 51.4923L25.4201 51.4909L25.1876 51.5842L25.1271 51.7831L25.1436 51.9614L25.1229 52.1342L24.7941 53.1287L24.3732 52.9106L23.9715 52.6582L23.8656 52.4813L23.8201 52.27L23.7514 52.1274L23.6578 51.9984L23.4735 52.3304L23.2437 52.5924L22.9631 52.6527L22.6784 52.6568L22.5848 52.543L22.4816 51.9107L22.1804 51.7104L21.8034 51.7529L21.3467 52.1013L21.2572 52.2316L21.1568 52.532L20.6602 53.3852L20.3974 54.0408L20.1058 54.68L19.9764 54.8899L19.8045 55.0284L19.5335 54.9708L19.2872 54.8186L19.0562 54.4071L19.1345 53.9284L19.3932 53.6225L19.6092 53.296L19.8692 52.1535L19.8898 51.7474L19.9352 51.5732L20.3658 51.0534L20.729 50.731L20.9202 50.6638L21.7029 50.48L22.0249 50.3264L22.5325 50.3236L22.9452 50.2359L23.274 49.9876L23.2988 49.7311L23.2837 49.4636L23.3566 49.3004L23.4831 49.1632L23.6592 48.9821L23.8573 48.8464L24.42 48.7476L24.6071 48.6351L24.757 48.4609L24.9661 48.1208L25.2151 48.2058L25.4655 48.3375L25.9153 48.4417L26.3129 48.7243L26.5688 49.1687L26.6115 49.3881L26.6775 50.111L26.5853 50.2798L26.1974 50.6158L26.3762 50.6515L26.8852 50.3456L27.1397 50.2276L27.767 50.063L27.9142 49.9547L28.0229 49.7928L28.2444 49.3498L28.4053 48.8765L28.5333 48.679L28.7135 48.5227L28.8938 48.4966L29.5527 48.8203L29.975 48.6639L30.0933 48.1729L30.1896 47.4596L30.2653 47.2662L30.5074 47.0797L30.7963 47.14L31.1925 47.3965L31.5584 47.4816L31.6946 47.2758L31.8239 46.8698L31.9712 46.8712L32.4636 47.0056L32.9396 46.9164L33.0745 46.4281L32.9851 45.9055L32.6123 44.3802L32.8337 44.04L33.0263 44.0305L33.4954 44.4365L34.3992 44.9851L34.7005 45.3198L34.8903 45.7313ZM34.7528 44.6751L34.6826 44.7739L34.5657 44.5668L34.6675 44.11L34.7418 44.0332L34.8381 44.3226L34.7528 44.6751ZM25.9772 46.0564L26.0103 46.4583L25.6554 46.5749L25.3706 46.472L25.1876 46.2306L25.1889 46.1401L25.3486 46.1469L25.6994 45.9357L25.8108 45.8945L25.9772 46.0564ZM30.2598 46.4226L30.1497 46.6531L29.7164 46.4624L29.6132 46.2964L29.6683 46.1003L29.8801 46.0331H29.9902L30.1965 46.2388L30.2598 46.4226ZM1.49131 50.0123L1.2285 50.1028L1.17073 49.8614L1.20373 49.6241L1.39223 49.6501L1.48443 49.7242L1.49131 50.0123ZM0.427889 51.292L0.227043 51.5856L0 51.2482L0.0247699 50.7776L0.0949652 50.6473L0.415462 50.576L0.427889 51.292ZM23.0415 53.1232L23.0842 53.2124L23.0663 53.3084L22.6646 53.4867L22.5297 53.4812L22.4981 53.1835L22.5972 53.0478L22.787 53.1685L22.9549 53.0286L23.0415 53.1232ZM34.0361 54.8433L33.9755 55.0628L33.7376 54.5456L33.644 54.4181L33.765 53.986L34.0305 54.1972L34.0361 54.8433ZM19.7825 56.9008L19.3918 56.9543L19.2666 56.9501L18.9599 56.5579L18.931 56.385L18.6847 56.1889L18.7741 55.9941L19.0933 55.9475L19.6463 55.6992L20.5336 56.0915L20.6712 56.2328L20.3947 56.3192L20.1979 56.6909L19.7825 56.9008ZM16.1768 58.2573L16.3873 58.5344L16.6514 58.4617L17.0724 58.5399L17.1618 58.6839L17.1481 58.7786L16.6982 59.0461L16.4024 58.7662L15.881 58.9569L15.6321 58.8417L15.2922 58.9446L15.0832 58.7278L15.1684 58.5193L15.7077 58.1764L16.1768 58.2573ZM12.6688 61.4053L12.5642 61.6372L12.4418 61.7455L12.2822 61.6851L12.1598 61.5658L12.091 61.7441L11.7539 61.8127L11.5407 62.087L11.2298 62.1611L11.0124 62.1254L11.0359 61.8813L11.6371 61.515L12.0112 61.3793L12.34 61.1145L12.5051 61.0857L12.589 61.3011L12.6688 61.4053Z" fill="var(--fill-0, #71B219)" stroke="var(--stroke-0, white)" mask="url(#path-1-inside-1_0_167)"/>
</g>
</svg>
