<svg preserveAspectRatio="none" width="100%" height="100%" overflow="visible" style="display: block;" viewBox="0 0 37 62" fill="none" xmlns="http://www.w3.org/2000/svg"><g id="PH"><mask id="path-1-inside-1_0_167" fill="white"><path d="M19 0L19 1L19 1L19 0L19 0L19 0L19 0ZM19 2L19 2L19 2L19 2L19 2L20 2L19 2ZM18 6L18 6L17 6L17 6L17 6L17 6L17 6L18 6ZM16 7L16 7L16 7L16 7L16 7L16 7L16 7L16 7ZM19 8L19 8L19 8L19 8L19 8L19 8L19 8L19 8L19 8ZM16 9L16 9L18 10L18 10L19 10L19 10L20 10L20 10L20 10L20 10L20 10L21 10L21 10L21 11L20 11L20 11L20 12L20 13L20 13L20 14L20 14L21 14L21 14L21 15L21 15L21 15L21 15L21 15L21 16L21 16L20 18L20 18L20 19L19 19L19 19L18 20L18 20L18 20L18 20L18 21L18 21L18 21L18 22L17 22L17 22L17 22L17 22L17 23L18 24L18 24L18 24L18 24L18 25L18 25L18 26L18 26L18 27L19 27L19 27L19 27L20 28L20 28L20 28L20 28L20 28L20 27L20 27L20 27L20 27L20 27L21 26L21 26L22 26L22 26L23 26L23 27L23 27L24 28L24 28L24 28L24 28L24 28L24 28L24 28L24 28L24 28L24 27L24 27L25 27L25 28L26 28L26 28L26 28L26 28L27 28L26 29L26 29L25 29L26 29L26 30L26 30L26 30L26 31L26 31L27 31L27 31L27 31L28 31L28 31L28 32L27 33L27 33L27 33L27 32L27 32L27 32L27 32L26 32L26 32L26 32L25 31L24 31L24 31L24 30L24 30L24 30L24 30L23 29L23 29L22 28L22 28L22 28L21 28L21 28L21 28L21 28L21 29L21 29L22 29L22 29L22 30L22 30L22 31L21 30L21 30L21 30L21 30L21 29L20 29L20 28L19 28L18 28L18 28L18 28L18 28L17 28L17 29L17 29L16 29L16 29L16 28L15 28L15 28L14 28L14 28L14 28L14 27L14 26L14 26L15 26L15 25L15 25L15 25L15 24L14 24L14 24L14 24L14 24L14 25L14 26L14 26L14 26L13 26L13 26L13 25L13 25L13 24L12 24L12 24L12 24L12 24L12 23L12 23L12 22L11 22L11 20L11 20L11 20L11 20L11 20L11 19L11 18L11 18L11 18L11 18L11 19L12 19L12 19L12 19L12 19L13 19L13 19L13 19L13 19L13 19L13 18L13 17L13 17L13 16L13 16L13 15L13 14L13 14L13 14L13 13L13 13L14 11L14 10L14 10L14 10L14 9L15 9L15 9L15 9L16 9L16 9ZM20 24L20 24L20 24L20 24L19 24L20 24L19 25L19 25L19 25L19 25L19 24L19 24L19 24L19 24L19 24L19 23L19 23L20 24ZM20 27L20 27L19 27L19 27L19 27L19 26L20 27ZM28 29L28 29L28 29L28 29L28 29L27 29L27 29L28 28L28 28L28 27L28 27L28 27L28 28L28 28L29 28L29 28L29 29L28 29ZM13 28L13 29L12 28L12 28L12 28L12 28L12 28L13 28ZM19 29L19 29L19 29L20 30L20 30L20 30L20 30L20 30L19 31L19 30L19 30L19 30L19 29L19 29ZM14 30L15 30L15 29L16 30L16 30L16 30L16 30L16 30L17 30L17 30L17 31L18 31L18 31L18 31L17 32L17 32L18 33L18 33L17 33L17 34L17 34L17 34L17 34L17 34L17 34L17 34L16 34L16 34L16 34L16 34L16 34L16 34L15 34L15 33L15 33L15 33L15 32L15 32L15 32L15 32L15 32L14 31L14 31L14 31L14 30L14 30L14 30L13 30L13 30L13 30L13 30L13 29L14 29L14 29L14 30ZM24 32L25 33L24 32L24 32L24 31L23 31L23 31L23 31L23 31L24 31L24 32L24 32ZM26 34L26 34L26 34L26 33L26 33L26 33L26 33L26 34ZM20 34L20 35L19 35L19 34L19 34L19 34L19 34L19 34L19 33L20 33L20 33L20 33L20 33L20 34ZM21 33L20 33L20 33L20 33L20 33L20 33L21 33ZM26 34L27 35L27 35L27 36L27 36L27 36L27 36L26 36L26 36L26 35L26 35L26 35L26 35L25 34L25 34L25 34L24 35L24 36L24 35L24 35L24 34L24 34L24 33L24 33L25 33L25 33L25 34L26 34L26 34ZM32 33L32 34L32 34L32 34L32 34L33 34L33 34L33 35L33 35L33 35L33 36L33 36L33 36L33 37L33 37L33 37L33 38L33 38L33 38L33 38L33 38L34 39L34 39L34 39L34 39L33 39L33 39L32 39L32 39L32 38L31 38L31 38L31 37L31 37L31 37L31 36L31 36L31 36L31 36L30 36L30 36L30 36L30 35L29 35L29 35L29 35L29 34L28 34L28 33L29 33L30 33L32 33L32 33ZM22 34L22 34L21 34L21 34L21 34L21 33L22 33L22 34L22 34L22 34ZM12 35L12 35L12 35L13 34L13 35L13 35L13 35L13 35L12 35L12 35L12 35L12 35L11 35L11 34L11 34L11 34L11 34L11 34L11 34L11 34L12 34L12 34L12 35ZM12 36L12 37L12 36L11 36L11 36L11 36L11 35L12 36L12 36L12 36L12 36L12 36L12 36L12 36ZM21 37L22 37L22 37L23 37L23 37L23 37L23 38L24 37L24 37L24 38L24 38L24 38L24 38L23 39L23 39L23 39L22 39L22 39L22 40L22 40L22 40L21 40L20 41L20 41L20 41L19 41L19 41L19 41L19 41L19 41L19 40L19 40L19 40L20 39L20 39L20 38L20 37L20 37L20 36L19 36L19 36L19 36L19 36L20 36L20 36L20 36L21 36L21 37ZM30 37L30 37L30 37L30 37L30 37L30 36L30 36L30 37L30 37ZM30 37L29 37L29 37L28 37L29 36L29 36L29 37L30 37L30 37ZM29 38L30 38L30 38L30 38L31 38L31 38L31 38L31 39L31 39L31 40L31 40L31 40L32 40L32 41L32 41L32 41L32 42L32 42L32 42L32 42L32 42L32 42L31 42L31 42L31 42L31 42L31 43L31 43L31 43L30 43L30 42L30 42L30 42L30 41L30 40L30 40L30 40L30 40L30 39H30L29 40L29 40L29 39L29 38L28 38L28 37L28 37L29 37L29 37L29 38L29 38L29 38ZM11 37L11 37L11 38L11 38L11 38L11 38L11 37L11 37L11 37L11 37ZM1 49L1 49L1 49L1 49L2 48L2 48L2 47L2 47L3 47L4 46L4 46L4 46L4 46L4 46L5 45L6 44L7 43L7 43L7 43L8 42L8 42L8 42L9 41L9 41L9 41L9 40L9 40L9 40L9 39L9 39L10 38L10 38L10 38L10 38L10 39L10 39L10 39L10 39L10 40L10 41L10 41L10 42L10 42L10 42L9 42L9 42L9 42L9 43L9 43L8 43L7 43L7 43L7 44L7 44L6 45L6 46L6 46L5 46L5 46L4 47L4 47L4 48L4 48L3 48L3 48L2 48L2 48L2 49L2 49L2 49L1 49ZM26 38L26 39L26 39L26 38L26 38L26 38ZM25 45L25 45L24 45L24 45L25 44L25 43L25 43L26 42L26 41L26 41L26 40L27 39L27 39L27 39L27 39L27 38L27 38L27 38L27 39L27 39L27 39L27 40L27 40L27 41L27 42L27 42L27 42L26 42L26 43L26 43L26 43L25 45L25 45ZM24 47L24 47L23 47L23 47L23 46L22 46L22 45L22 45L22 45L21 44L21 44L21 44L21 43L21 43L22 43L22 43L23 43L23 43L23 42L23 42L23 41L23 41L23 41L23 40L23 40L23 40L23 40L23 40L24 39L24 39L25 40L26 40L26 40L25 40L25 41L25 41L25 42L24 43L24 43L24 43L24 44L24 44L24 44L24 45L24 46L24 46L24 46L24 46L24 46L24 47L24 47ZM22 41L22 41L22 41L22 41L21 41L22 41L22 40L22 40L22 40L22 40L22 40L22 41L22 41L22 41ZM28 41L28 41L28 40L29 40L29 40L29 41L28 41ZM11 41L11 41L11 41L11 41L12 41L12 41L12 41L11 41ZM34 43L34 44L34 43L33 43L33 43L33 43L33 42L33 42L33 42L33 42L34 41L34 41L34 42L34 42L34 43L34 43L34 43L34 43ZM29 44L29 44L29 44L29 44L29 44L28 44L28 45L27 45L27 44L26 44L26 44L27 44L27 43L27 43L28 43L28 43L28 42L28 43L29 43L29 43L29 43L29 43L29 44L29 44L29 44ZM32 43L32 43L32 43L32 42L32 42L32 43L32 43ZM35 44L35 44L35 44L35 43L35 43L35 43L35 44L35 44L36 44L35 44L35 44ZM35 46L35 46L36 46L36 46L36 47L36 47L36 48L36 48L36 48L35 48L35 48L36 49L36 49L36 49L36 50L37 50L37 50L36 51L36 52L37 52L37 52L37 52L37 53L37 53L37 54L37 54L37 55L36 55L36 55L36 55L36 56L36 57L36 57L35 57L35 57L35 56L35 55L35 55L35 55L34 54L34 53L34 54L34 54L34 54L34 54L34 54L33 55L33 55L33 56L32 56L33 56L33 56L33 57L33 57L34 58L34 59L33 59L33 60L32 60L32 60L32 60L32 59L32 59L32 58L32 58L32 58L32 58L31 59L31 59L31 59L31 59L30 59L29 58L28 58L27 57L27 56L27 56L27 55L27 55L27 55L27 54L28 54L28 54L28 54L28 53L28 53L28 53L27 52L27 52L26 52L26 52L26 52L26 52L25 52L25 52L25 52L25 52L25 52L25 53L24 53L24 53L24 52L24 52L24 52L24 52L24 52L23 53L23 53L23 53L23 52L22 52L22 52L22 52L21 52L21 52L21 52L21 53L20 54L20 55L20 55L20 55L20 55L19 55L19 54L19 54L19 54L20 53L20 52L20 52L20 52L20 51L21 51L21 51L22 50L22 50L22 50L23 50L23 50L23 50L23 50L23 49L24 49L24 49L24 49L24 49L25 49L25 48L25 48L25 48L26 48L26 48L26 49L27 49L27 49L27 50L27 50L26 51L26 51L27 50L27 50L28 50L28 50L28 50L28 49L28 49L28 49L29 48L29 48L30 49L30 49L30 48L30 48L30 47L30 47L31 47L31 47L32 48L32 47L32 47L32 47L32 47L33 47L33 46L33 46L33 44L33 44L33 44L34 44L34 45L35 45L35 46ZM35 45L35 45L35 45L35 44L35 44L35 44L35 45ZM26 46L26 46L26 47L25 46L25 46L25 46L25 46L26 46L26 46L26 46ZM30 46L30 47L30 46L30 46L30 46L30 46H30L30 46L30 46ZM2 50L1 50L1 50L1 50L1 50L2 50L2 50ZM0 51L0 52L0 51L0 51L0 51L0 51L0 51ZM23 53L23 53L23 53L23 54L22 54L22 53L23 53L23 53L23 53L23 53ZM34 55L34 55L34 54L34 54L34 54L34 54L34 55ZM20 57L19 57L19 57L19 57L19 56L19 56L19 56L19 56L20 56L20 56L21 56L20 56L20 57L20 57ZM16 58L16 58L17 58L17 58L17 59L17 59L17 59L16 59L16 59L16 59L15 59L15 59L15 58L16 58L16 58ZM13 61L13 62L12 62L12 62L12 62L12 62L12 62L12 62L11 62L11 62L11 62L12 62L12 61L12 61L12 61L13 61L13 61Z"/></mask><path d="M19 0L19 1L19 1L19 0L19 0L19 0L19 0ZM19 2L19 2L19 2L19 2L19 2L20 2L19 2ZM18 6L18 6L17 6L17 6L17 6L17 6L17 6L18 6ZM16 7L16 7L16 7L16 7L16 7L16 7L16 7L16 7ZM19 8L19 8L19 8L19 8L19 8L19 8L19 8L19 8L19 8ZM16 9L16 9L18 10L18 10L19 10L19 10L20 10L20 10L20 10L20 10L20 10L21 10L21 10L21 11L20 11L20 11L20 12L20 13L20 13L20 14L20 14L21 14L21 14L21 15L21 15L21 15L21 15L21 15L21 16L21 16L20 18L20 18L20 19L19 19L19 19L18 20L18 20L18 20L18 20L18 21L18 21L18 21L18 22L17 22L17 22L17 22L17 22L17 23L18 24L18 24L18 24L18 24L18 25L18 25L18 26L18 26L18 27L19 27L19 27L19 27L20 28L20 28L20 28L20 28L20 28L20 27L20 27L20 27L20 27L20 27L21 26L21 26L22 26L22 26L23 26L23 27L23 27L24 28L24 28L24 28L24 28L24 28L24 28L24 28L24 28L24 28L24 27L24 27L25 27L25 28L26 28L26 28L26 28L26 28L27 28L26 29L26 29L25 29L26 29L26 30L26 30L26 30L26 31L26 31L27 31L27 31L27 31L28 31L28 31L28 32L27 33L27 33L27 33L27 32L27 32L27 32L27 32L26 32L26 32L26 32L25 31L24 31L24 31L24 30L24 30L24 30L24 30L23 29L23 29L22 28L22 28L22 28L21 28L21 28L21 28L21 28L21 29L21 29L22 29L22 29L22 30L22 30L22 31L21 30L21 30L21 30L21 30L21 29L20 29L20 28L19 28L18 28L18 28L18 28L18 28L17 28L17 29L17 29L16 29L16 29L16 28L15 28L15 28L14 28L14 28L14 28L14 27L14 26L14 26L15 26L15 25L15 25L15 25L15 24L14 24L14 24L14 24L14 24L14 25L14 26L14 26L14 26L13 26L13 26L13 25L13 25L13 24L12 24L12 24L12 24L12 24L12 23L12 23L12 22L11 22L11 20L11 20L11 20L11 20L11 20L11 19L11 18L11 18L11 18L11 18L11 19L12 19L12 19L12 19L12 19L13 19L13 19L13 19L13 19L13 19L13 18L13 17L13 17L13 16L13 16L13 15L13 14L13 14L13 14L13 13L13 13L14 11L14 10L14 10L14 10L14 9L15 9L15 9L15 9L16 9L16 9ZM20 24L20 24L20 24L20 24L19 24L20 24L19 25L19 25L19 25L19 25L19 24L19 24L19 24L19 24L19 24L19 23L19 23L20 24ZM20 27L20 27L19 27L19 27L19 27L19 26L20 27ZM28 29L28 29L28 29L28 29L28 29L27 29L27 29L28 28L28 28L28 27L28 27L28 27L28 28L28 28L29 28L29 28L29 29L28 29ZM13 28L13 29L12 28L12 28L12 28L12 28L12 28L13 28ZM19 29L19 29L19 29L20 30L20 30L20 30L20 30L20 30L19 31L19 30L19 30L19 30L19 29L19 29ZM14 30L15 30L15 29L16 30L16 30L16 30L16 30L16 30L17 30L17 30L17 31L18 31L18 31L18 31L17 32L17 32L18 33L18 33L17 33L17 34L17 34L17 34L17 34L17 34L17 34L17 34L16 34L16 34L16 34L16 34L16 34L16 34L15 34L15 33L15 33L15 33L15 32L15 32L15 32L15 32L15 32L14 31L14 31L14 31L14 30L14 30L14 30L13 30L13 30L13 30L13 30L13 29L14 29L14 29L14 30ZM24 32L25 33L24 32L24 32L24 31L23 31L23 31L23 31L23 31L24 31L24 32L24 32ZM26 34L26 34L26 34L26 33L26 33L26 33L26 33L26 34ZM20 34L20 35L19 35L19 34L19 34L19 34L19 34L19 34L19 33L20 33L20 33L20 33L20 33L20 34ZM21 33L20 33L20 33L20 33L20 33L20 33L21 33ZM26 34L27 35L27 35L27 36L27 36L27 36L27 36L26 36L26 36L26 35L26 35L26 35L26 35L25 34L25 34L25 34L24 35L24 36L24 35L24 35L24 34L24 34L24 33L24 33L25 33L25 33L25 34L26 34L26 34ZM32 33L32 34L32 34L32 34L32 34L33 34L33 34L33 35L33 35L33 35L33 36L33 36L33 36L33 37L33 37L33 37L33 38L33 38L33 38L33 38L33 38L34 39L34 39L34 39L34 39L33 39L33 39L32 39L32 39L32 38L31 38L31 38L31 37L31 37L31 37L31 36L31 36L31 36L31 36L30 36L30 36L30 36L30 35L29 35L29 35L29 35L29 34L28 34L28 33L29 33L30 33L32 33L32 33ZM22 34L22 34L21 34L21 34L21 34L21 33L22 33L22 34L22 34L22 34ZM12 35L12 35L12 35L13 34L13 35L13 35L13 35L13 35L12 35L12 35L12 35L12 35L11 35L11 34L11 34L11 34L11 34L11 34L11 34L11 34L12 34L12 34L12 35ZM12 36L12 37L12 36L11 36L11 36L11 36L11 35L12 36L12 36L12 36L12 36L12 36L12 36L12 36ZM21 37L22 37L22 37L23 37L23 37L23 37L23 38L24 37L24 37L24 38L24 38L24 38L24 38L23 39L23 39L23 39L22 39L22 39L22 40L22 40L22 40L21 40L20 41L20 41L20 41L19 41L19 41L19 41L19 41L19 41L19 40L19 40L19 40L20 39L20 39L20 38L20 37L20 37L20 36L19 36L19 36L19 36L19 36L20 36L20 36L20 36L21 36L21 37ZM30 37L30 37L30 37L30 37L30 37L30 36L30 36L30 37L30 37ZM30 37L29 37L29 37L28 37L29 36L29 36L29 37L30 37L30 37ZM29 38L30 38L30 38L30 38L31 38L31 38L31 38L31 39L31 39L31 40L31 40L31 40L32 40L32 41L32 41L32 41L32 42L32 42L32 42L32 42L32 42L32 42L31 42L31 42L31 42L31 42L31 43L31 43L31 43L30 43L30 42L30 42L30 42L30 41L30 40L30 40L30 40L30 40L30 39H30L29 40L29 40L29 39L29 38L28 38L28 37L28 37L29 37L29 37L29 38L29 38L29 38ZM11 37L11 37L11 38L11 38L11 38L11 38L11 37L11 37L11 37L11 37ZM1 49L1 49L1 49L1 49L2 48L2 48L2 47L2 47L3 47L4 46L4 46L4 46L4 46L4 46L5 45L6 44L7 43L7 43L7 43L8 42L8 42L8 42L9 41L9 41L9 41L9 40L9 40L9 40L9 39L9 39L10 38L10 38L10 38L10 38L10 39L10 39L10 39L10 39L10 40L10 41L10 41L10 42L10 42L10 42L9 42L9 42L9 42L9 43L9 43L8 43L7 43L7 43L7 44L7 44L6 45L6 46L6 46L5 46L5 46L4 47L4 47L4 48L4 48L3 48L3 48L2 48L2 48L2 49L2 49L2 49L1 49ZM26 38L26 39L26 39L26 38L26 38L26 38ZM25 45L25 45L24 45L24 45L25 44L25 43L25 43L26 42L26 41L26 41L26 40L27 39L27 39L27 39L27 39L27 38L27 38L27 38L27 39L27 39L27 39L27 40L27 40L27 41L27 42L27 42L27 42L26 42L26 43L26 43L26 43L25 45L25 45ZM24 47L24 47L23 47L23 47L23 46L22 46L22 45L22 45L22 45L21 44L21 44L21 44L21 43L21 43L22 43L22 43L23 43L23 43L23 42L23 42L23 41L23 41L23 41L23 40L23 40L23 40L23 40L23 40L24 39L24 39L25 40L26 40L26 40L25 40L25 41L25 41L25 42L24 43L24 43L24 43L24 44L24 44L24 44L24 45L24 46L24 46L24 46L24 46L24 46L24 47L24 47ZM22 41L22 41L22 41L22 41L21 41L22 41L22 40L22 40L22 40L22 40L22 40L22 41L22 41L22 41ZM28 41L28 41L28 40L29 40L29 40L29 41L28 41ZM11 41L11 41L11 41L11 41L12 41L12 41L12 41L11 41ZM34 43L34 44L34 43L33 43L33 43L33 43L33 42L33 42L33 42L33 42L34 41L34 41L34 42L34 42L34 43L34 43L34 43L34 43ZM29 44L29 44L29 44L29 44L29 44L28 44L28 45L27 45L27 44L26 44L26 44L27 44L27 43L27 43L28 43L28 43L28 42L28 43L29 43L29 43L29 43L29 43L29 44L29 44L29 44ZM32 43L32 43L32 43L32 42L32 42L32 43L32 43ZM35 44L35 44L35 44L35 43L35 43L35 43L35 44L35 44L36 44L35 44L35 44ZM35 46L35 46L36 46L36 46L36 47L36 47L36 48L36 48L36 48L35 48L35 48L36 49L36 49L36 49L36 50L37 50L37 50L36 51L36 52L37 52L37 52L37 52L37 53L37 53L37 54L37 54L37 55L36 55L36 55L36 55L36 56L36 57L36 57L35 57L35 57L35 56L35 55L35 55L35 55L34 54L34 53L34 54L34 54L34 54L34 54L34 54L33 55L33 55L33 56L32 56L33 56L33 56L33 57L33 57L34 58L34 59L33 59L33 60L32 60L32 60L32 60L32 59L32 59L32 58L32 58L32 58L32 58L31 59L31 59L31 59L31 59L30 59L29 58L28 58L27 57L27 56L27 56L27 55L27 55L27 55L27 54L28 54L28 54L28 54L28 53L28 53L28 53L27 52L27 52L26 52L26 52L26 52L26 52L25 52L25 52L25 52L25 52L25 52L25 53L24 53L24 53L24 52L24 52L24 52L24 52L24 52L23 53L23 53L23 53L23 52L22 52L22 52L22 52L21 52L21 52L21 52L21 53L20 54L20 55L20 55L20 55L20 55L19 55L19 54L19 54L19 54L20 53L20 52L20 52L20 52L20 51L21 51L21 51L22 50L22 50L22 50L23 50L23 50L23 50L23 50L23 49L24 49L24 49L24 49L24 49L25 49L25 48L25 48L25 48L26 48L26 48L26 49L27 49L27 49L27 50L27 50L26 51L26 51L27 50L27 50L28 50L28 50L28 50L28 49L28 49L28 49L29 48L29 48L30 49L30 49L30 48L30 48L30 47L30 47L31 47L31 47L32 48L32 47L32 47L32 47L32 47L33 47L33 46L33 46L33 44L33 44L33 44L34 44L34 45L35 45L35 46ZM35 45L35 45L35 45L35 44L35 44L35 44L35 45ZM26 46L26 46L26 47L25 46L25 46L25 46L25 46L26 46L26 46L26 46ZM30 46L30 47L30 46L30 46L30 46L30 46H30L30 46L30 46ZM2 50L1 50L1 50L1 50L1 50L2 50L2 50ZM0 51L0 52L0 51L0 51L0 51L0 51L0 51ZM23 53L23 53L23 53L23 54L22 54L22 53L23 53L23 53L23 53L23 53ZM34 55L34 55L34 54L34 54L34 54L34 54L34 55ZM20 57L19 57L19 57L19 57L19 56L19 56L19 56L19 56L20 56L20 56L21 56L20 56L20 57L20 57ZM16 58L16 58L17 58L17 58L17 59L17 59L17 59L16 59L16 59L16 59L15 59L15 59L15 58L16 58L16 58ZM13 61L13 62L12 62L12 62L12 62L12 62L12 62L12 62L11 62L11 62L11 62L12 62L12 61L12 61L12 61L13 61L13 61Z" fill="var(--fill-0,#71B219)" stroke="var(--stroke-0,white)" mask="url(#path-1-inside-1_0_167)"/></g></svg>