<svg preserveAspectRatio="xMidYMid meet" width="100%" height="100%" overflow="visible" style="display: block;" viewBox="0 0 38 51" fill="none" xmlns="http://www.w3.org/2000/svg"><g id="Pin"><path id="Vector" d="M19 0C14 0 9 2 6 6C2 9 0 14 0 19C0 33 18 50 19 51C19 51 19 51 19 51C19 51 20 51 20 51C20 50 38 33 38 19C38 14 36 9 33 6C29 2 24 0 19 0ZM19 28C17 28 16 27 14 26C13 26 12 24 11 22C10 21 10 19 10 17C11 16 12 14 13 13C14 12 16 11 17 10C19 10 21 10 22 11C24 12 26 13 26 14C27 16 28 17 28 19C28 21 27 24 25 25C24 27 21 28 19 28Z" fill="url(#paint0_linear_0_73)"/></g><defs><linearGradient id="paint0_linear_0_73" x1="-10" y1="26" x2="52" y2="26" gradientUnits="userSpaceOnUse"><stop stop-color="#2C64EB"/><stop offset="0" stop-color="#00A875"/><stop offset="1" stop-color="#71B219"/></linearGradient></defs></svg>