<svg preserveAspectRatio="none" width="100%" height="100%" overflow="visible" style="display: block;" viewBox="0 0 38.25 51.0001" fill="none" xmlns="http://www.w3.org/2000/svg">
<g id="Pin">
<path id="Vector" d="M19.125 0C14.0548 0.00672574 9.19419 2.02384 5.60901 5.60901C2.02383 9.19419 0.00672574 14.0548 0 19.125C0 32.8552 17.8181 50.0517 18.5752 50.7769C18.7224 50.92 18.9197 51.0001 19.125 51.0001C19.3303 51.0001 19.5276 50.92 19.6748 50.7769C20.4319 50.0517 38.25 32.8552 38.25 19.125C38.2433 14.0548 36.2262 9.19419 32.641 5.60901C29.0558 2.02384 24.1952 0.00672574 19.125 0ZM19.125 27.8906C17.3913 27.8906 15.6966 27.3765 14.2551 26.4134C12.8136 25.4502 11.6901 24.0812 11.0266 22.4795C10.3632 20.8778 10.1896 19.1153 10.5278 17.4149C10.866 15.7145 11.7009 14.1527 12.9268 12.9268C14.1527 11.7009 15.7145 10.866 17.4149 10.5278C19.1153 10.1896 20.8778 10.3632 22.4795 11.0266C24.0812 11.6901 25.4502 12.8136 26.4133 14.2551C27.3765 15.6966 27.8906 17.3913 27.8906 19.125C27.8892 21.4494 26.9653 23.6781 25.3217 25.3217C23.6781 26.9653 21.4494 27.8892 19.125 27.8906Z" fill="url(#paint0_linear_0_73)"/>
</g>
<defs>
<linearGradient id="paint0_linear_0_73" x1="-10.0287" y1="25.5047" x2="52.4388" y2="25.5047" gradientUnits="userSpaceOnUse">
<stop stop-color="#2C64EB"/>
<stop offset="0.5" stop-color="#00A875"/>
<stop offset="1" stop-color="#71B219"/>
</linearGradient>
</defs>
</svg>
