<svg preserveAspectRatio="xMidYMid meet" width="100%" height="100%" overflow="visible" style="display: block;" viewBox="0 0 29 39" fill="none" xmlns="http://www.w3.org/2000/svg"><g id="Pin"><path id="Vector" d="M15 0C11 0 7 2 4 4C2 7 0 11 0 15C0 25 14 38 14 39C14 39 14 39 15 39C15 39 15 39 15 39C16 38 29 25 29 15C29 11 28 7 25 4C22 2 18 0 15 0ZM15 21C13 21 12 21 11 20C10 20 9 18 8 17C8 16 8 15 8 13C8 12 9 11 10 10C11 9 12 8 13 8C15 8 16 8 17 8C18 9 20 10 20 11C21 12 21 13 21 15C21 16 21 18 19 19C18 21 16 21 15 21Z" fill="url(#paint0_linear_0_13)"/></g><defs><linearGradient id="paint0_linear_0_13" x1="-8" y1="20" x2="40" y2="20" gradientUnits="userSpaceOnUse"><stop stop-color="#2C64EB"/><stop offset="0" stop-color="#00A875"/><stop offset="1" stop-color="#71B219"/></linearGradient></defs></svg>