<svg preserveAspectRatio="xMidYMid meet" width="100%" height="100%" overflow="visible" style="display: block;" viewBox="0 0 29.25 39" fill="none" xmlns="http://www.w3.org/2000/svg">
<g id="Pin">
<path id="Vector" d="M14.625 0C10.7478 0.00514321 7.03085 1.54764 4.28924 4.28924C1.54764 7.03085 0.00514321 10.7478 0 14.625C0 25.1245 13.6256 38.2748 14.2045 38.8294C14.3171 38.9388 14.468 39 14.625 39C14.782 39 14.9329 38.9388 15.0455 38.8294C15.6244 38.2748 29.25 25.1245 29.25 14.625C29.2449 10.7478 27.7024 7.03085 24.9608 4.28924C22.2191 1.54764 18.5022 0.00514321 14.625 0ZM14.625 21.3281C13.2992 21.3281 12.0033 20.935 10.9009 20.1984C9.79862 19.4619 8.93946 18.415 8.43212 17.1902C7.92478 15.9653 7.79203 14.6176 8.05067 13.3173C8.30932 12.017 8.94773 10.8226 9.88517 9.88517C10.8226 8.94773 12.017 8.30932 13.3173 8.05067C14.6176 7.79203 15.9653 7.92478 17.1902 8.43212C18.415 8.93946 19.4619 9.79862 20.1984 10.9009C20.935 12.0033 21.3281 13.2992 21.3281 14.625C21.3271 16.4025 20.6205 18.1068 19.3636 19.3636C18.1068 20.6205 16.4025 21.3271 14.625 21.3281Z" fill="url(#paint0_linear_0_13)"/>
</g>
<defs>
<linearGradient id="paint0_linear_0_13" x1="-7.66899" y1="19.5036" x2="40.1002" y2="19.5036" gradientUnits="userSpaceOnUse">
<stop stop-color="#2C64EB"/>
<stop offset="0.5" stop-color="#00A875"/>
<stop offset="1" stop-color="#71B219"/>
</linearGradient>
</defs>
</svg>
