<svg preserveAspectRatio="xMidYMid meet" width="100%" height="100%" overflow="visible" style="display: block;" viewBox="0 0 21.1291 28.1723" fill="none" xmlns="http://www.w3.org/2000/svg">
<g id="Pin">
<path id="Vector" d="M10.5646 0C7.76383 0.00371526 5.07885 1.11795 3.09842 3.09838C1.11799 5.07881 0.00375481 7.76379 3.95486e-05 10.5645C3.95486e-05 18.149 9.84267 27.6483 10.2608 28.0488C10.3422 28.1279 10.4511 28.1721 10.5646 28.1721C10.678 28.1721 10.787 28.1279 10.8683 28.0488C11.2865 27.6483 21.1291 18.149 21.1291 10.5645C21.1254 7.76379 20.0112 5.07881 18.0307 3.09838C16.0503 1.11795 13.3653 0.00371526 10.5646 0ZM10.5646 15.4066C9.6069 15.4066 8.67074 15.1226 7.87446 14.5906C7.07818 14.0585 6.45756 13.3023 6.09108 12.4175C5.72459 11.5327 5.6287 10.5592 5.81554 9.61989C6.00237 8.68062 6.46353 7.81785 7.14071 7.14067C7.81789 6.46349 8.68066 6.00233 9.61993 5.8155C10.5592 5.62866 11.5328 5.72455 12.4176 6.09104C13.3023 6.45752 14.0586 7.07815 14.5906 7.87442C15.1227 8.6707 15.4067 9.60686 15.4067 10.5645C15.4059 11.8485 14.8955 13.0797 13.9876 13.9876C13.0797 14.8955 11.8485 15.4058 10.5646 15.4066Z" fill="url(#paint0_linear_0_4)"/>
</g>
<defs>
<linearGradient id="paint0_linear_0_4" x1="-5.53974" y1="14.0886" x2="28.9669" y2="14.0886" gradientUnits="userSpaceOnUse">
<stop stop-color="#2C64EB"/>
<stop offset="0.5" stop-color="#00A875"/>
<stop offset="1" stop-color="#71B219"/>
</linearGradient>
</defs>
</svg>
