<svg preserveAspectRatio="xMidYMid meet" width="100%" height="100%" overflow="visible" style="display: block;" viewBox="0 0 21 28" fill="none" xmlns="http://www.w3.org/2000/svg"><g id="Pin"><path id="Vector" d="M11 0C8 0 5 1 3 3C1 5 0 8 4e-05 11C4e-05 18 10 28 10 28C10 28 10 28 11 28C11 28 11 28 11 28C11 28 21 18 21 11C21 8 20 5 18 3C16 1 13 0 11 0ZM11 15C10 15 9 15 8 15C7 14 6 13 6 12C6 12 6 11 6 10C6 9 6 8 7 7C8 6 9 6 10 6C11 6 12 6 12 6C13 6 14 7 15 8C15 9 15 10 15 11C15 12 15 13 14 14C13 15 12 15 11 15Z" fill="url(#paint0_linear_0_4)"/></g><defs><linearGradient id="paint0_linear_0_4" x1="-6" y1="14" x2="29" y2="14" gradientUnits="userSpaceOnUse"><stop stop-color="#2C64EB"/><stop offset="0" stop-color="#00A875"/><stop offset="1" stop-color="#71B219"/></linearGradient></defs></svg>