<svg preserveAspectRatio="none" width="100%" height="100%" overflow="visible" style="display: block;" viewBox="0 0 66 59" fill="none" xmlns="http://www.w3.org/2000/svg"><g id="PK"><mask id="path-1-inside-1_0_61" fill="white"><path d="M54 0L54 0L54 0L55 0L55 0L56 1L56 1L56 1L56 2L57 1L57 1L58 2L58 2L58 2L58 2L58 3L58 3L58 4L58 4L58 4L58 5L58 5L59 5L59 5L59 5L59 6L59 6L60 6L60 6L60 6L61 6L61 6L61 6L61 6L62 6L62 7L63 7L64 7L64 7L64 7L65 7L65 7L66 7L65 8L65 8L64 8L64 8L63 9L63 9L62 9L62 10L62 10L62 10L61 10L61 10L61 11L61 11L60 11L60 11L59 11L59 11L58 12L58 12L57 12L57 12L56 12L56 12L55 11L55 11L54 11L54 11L53 11L53 11L52 11L52 11L51 11L51 11L50 12L50 12L50 12L50 12L50 13L50 13L51 13L51 13L51 14L50 14L50 14L50 14L51 14L51 14L52 14L52 14L52 15L52 15L51 15L51 15L51 16L51 16L51 16L51 16L51 16L51 17L51 17L51 17L51 18L51 18L51 18L51 18L51 18L51 19L52 19L52 19L52 19L52 19L52 20L52 20L52 20L53 20L53 20L53 20L53 20L53 21L53 21L53 21L54 21L55 21L55 22L56 22L56 22L56 22L56 22L56 23L55 23L55 23L54 24L53 24L53 24L53 24L53 25L53 26L53 26L53 27L53 27L53 27L53 27L53 28L53 28L53 28L52 28L52 28L52 29L51 30L50 30L50 31L50 31L50 31L50 31L50 32L50 32L50 32L49 32L48 33L48 33L48 34L48 34L47 35L47 36L47 37L46 37L44 38L44 38L44 39L44 39L44 40L43 40L43 41L43 41L42 42L41 42L40 42L40 42L39 42L38 42L38 42L38 42L38 42L38 41L38 41L37 41L37 41L37 41L36 41L36 42L36 42L36 42L35 43L34 44L34 44L34 44L34 45L34 45L33 46L33 46L33 46L33 47L34 47L34 47L35 47L36 47L36 47L36 48L36 48L36 48L36 49L36 49L36 50L36 50L36 51L37 51L37 51L37 51L38 51L38 51L38 51L38 51L38 52L38 53L38 53L39 54L39 54L39 55L39 55L39 55L39 56L39 56L39 56L39 56L39 56L39 56L39 56L39 57L39 57L39 57L38 57L38 57L38 57L38 57L38 57L38 57L38 57L38 56L37 56L36 57L36 57L36 57L35 57L35 58L35 58L34 58L34 57L34 57L33 57L32 57L32 57L32 57L31 57L31 57L31 57L31 57L31 57L31 57L31 57L30 57L30 57L30 58L30 58L30 58L29 58L29 58L28 59L28 59L28 59L28 59L28 59L28 59L28 59L27 59L27 59L27 59L26 59L26 59L26 58L26 59L26 58L26 58L26 58L25 58L25 58L25 57L25 57L25 57L24 55L24 55L23 55L22 54L23 54L23 53L22 52L22 52L22 52L21 51L21 52L20 52L20 52L21 52L22 52L22 52L22 52L21 52L21 52L20 52L19 52L18 52L16 53L15 53L15 53L14 53L14 53L13 53L13 52L12 52L12 52L12 52L11 52L10 52L10 53L10 53L9 53L9 53L8 53L7 53L7 53L6 53L6 53L6 53L5 53L5 53L5 53L5 53L4 53L4 53L3 53L3 53L3 53L3 52L3 51L3 51L3 51L4 50L4 50L4 50L4 49L4 49L4 49L5 48L5 48L5 48L5 48L6 48L6 48L6 47L6 47L7 47L7 47L8 47L9 47L9 47L9 47L9 46L9 46L9 46L9 46L9 45L10 45L10 45L9 45L9 44L9 44L8 44L8 44L7 44L7 44L7 44L7 44L8 44L8 43L8 42L7 41L7 40L7 40L7 40H7L7 40L6 40L6 39L5 39L5 39L4 39L4 38L3 38L3 37L3 37L2 36L2 35L2 35L1 34L1 34L0 33L2 34L3 34L4 34L6 35L6 35L10 35L12 35L13 35L13 35L13 35L13 35L14 34L14 34L15 34L15 34L16 34L16 34L17 34L18 34L19 34L20 33L21 33L21 33L21 33L21 32L21 32L21 32L21 32L21 31L21 30L21 30L21 29L21 28L22 28L22 28L22 28L22 28L23 27L23 27L24 27L24 27L24 27L25 27L26 27L26 27L26 26L27 26L27 26L26 26L26 26L26 26L26 26L27 26L28 25L28 24L28 24L28 24L29 24L29 24L30 24L30 24L30 24L30 25L31 25L31 25L31 25L32 25L32 24L33 24L32 22L32 22L33 21L33 21L33 20L33 20L33 20L33 19L34 19L34 18L35 18L36 18L36 18L36 17L36 17L36 16L36 16L35 15L35 14L35 14L36 14L37 14L37 14L38 14L39 14L39 14L40 14L40 13L40 13L40 13L39 12L39 12L39 12L39 12L40 12L40 11L40 11L40 10L41 10L41 10L41 9L41 9L42 9L42 9L42 9L41 8L41 8V8L41 8L42 8L42 8L41 7L41 7L41 6L41 6L41 6L40 5L40 5L40 5L40 4L40 4L41 4L41 3L42 3L42 3L42 3L42 3L43 2L43 2L44 2L44 1L44 1L45 1L45 1L46 1L46 1L47 1L47 1L48 1L50 1L50 1L50 1L51 1L51 1L52 1L52 0L53 0L53 0L54 0L54 0L54 0Z"/></mask><path d="M54 0L54 0L54 0L55 0L55 0L56 1L56 1L56 1L56 2L57 1L57 1L58 2L58 2L58 2L58 2L58 3L58 3L58 4L58 4L58 4L58 5L58 5L59 5L59 5L59 5L59 6L59 6L60 6L60 6L60 6L61 6L61 6L61 6L61 6L62 6L62 7L63 7L64 7L64 7L64 7L65 7L65 7L66 7L65 8L65 8L64 8L64 8L63 9L63 9L62 9L62 10L62 10L62 10L61 10L61 10L61 11L61 11L60 11L60 11L59 11L59 11L58 12L58 12L57 12L57 12L56 12L56 12L55 11L55 11L54 11L54 11L53 11L53 11L52 11L52 11L51 11L51 11L50 12L50 12L50 12L50 12L50 13L50 13L51 13L51 13L51 14L50 14L50 14L50 14L51 14L51 14L52 14L52 14L52 15L52 15L51 15L51 15L51 16L51 16L51 16L51 16L51 16L51 17L51 17L51 17L51 18L51 18L51 18L51 18L51 18L51 19L52 19L52 19L52 19L52 19L52 20L52 20L52 20L53 20L53 20L53 20L53 20L53 21L53 21L53 21L54 21L55 21L55 22L56 22L56 22L56 22L56 22L56 23L55 23L55 23L54 24L53 24L53 24L53 24L53 25L53 26L53 26L53 27L53 27L53 27L53 27L53 28L53 28L53 28L52 28L52 28L52 29L51 30L50 30L50 31L50 31L50 31L50 31L50 32L50 32L50 32L49 32L48 33L48 33L48 34L48 34L47 35L47 36L47 37L46 37L44 38L44 38L44 39L44 39L44 40L43 40L43 41L43 41L42 42L41 42L40 42L40 42L39 42L38 42L38 42L38 42L38 42L38 41L38 41L37 41L37 41L37 41L36 41L36 42L36 42L36 42L35 43L34 44L34 44L34 44L34 45L34 45L33 46L33 46L33 46L33 47L34 47L34 47L35 47L36 47L36 47L36 48L36 48L36 48L36 49L36 49L36 50L36 50L36 51L37 51L37 51L37 51L38 51L38 51L38 51L38 51L38 52L38 53L38 53L39 54L39 54L39 55L39 55L39 55L39 56L39 56L39 56L39 56L39 56L39 56L39 56L39 57L39 57L39 57L38 57L38 57L38 57L38 57L38 57L38 57L38 57L38 56L37 56L36 57L36 57L36 57L35 57L35 58L35 58L34 58L34 57L34 57L33 57L32 57L32 57L32 57L31 57L31 57L31 57L31 57L31 57L31 57L31 57L30 57L30 57L30 58L30 58L30 58L29 58L29 58L28 59L28 59L28 59L28 59L28 59L28 59L28 59L27 59L27 59L27 59L26 59L26 59L26 58L26 59L26 58L26 58L26 58L25 58L25 58L25 57L25 57L25 57L24 55L24 55L23 55L22 54L23 54L23 53L22 52L22 52L22 52L21 51L21 52L20 52L20 52L21 52L22 52L22 52L22 52L21 52L21 52L20 52L19 52L18 52L16 53L15 53L15 53L14 53L14 53L13 53L13 52L12 52L12 52L12 52L11 52L10 52L10 53L10 53L9 53L9 53L8 53L7 53L7 53L6 53L6 53L6 53L5 53L5 53L5 53L5 53L4 53L4 53L3 53L3 53L3 53L3 52L3 51L3 51L3 51L4 50L4 50L4 50L4 49L4 49L4 49L5 48L5 48L5 48L5 48L6 48L6 48L6 47L6 47L7 47L7 47L8 47L9 47L9 47L9 47L9 46L9 46L9 46L9 46L9 45L10 45L10 45L9 45L9 44L9 44L8 44L8 44L7 44L7 44L7 44L7 44L8 44L8 43L8 42L7 41L7 40L7 40L7 40H7L7 40L6 40L6 39L5 39L5 39L4 39L4 38L3 38L3 37L3 37L2 36L2 35L2 35L1 34L1 34L0 33L2 34L3 34L4 34L6 35L6 35L10 35L12 35L13 35L13 35L13 35L13 35L14 34L14 34L15 34L15 34L16 34L16 34L17 34L18 34L19 34L20 33L21 33L21 33L21 33L21 32L21 32L21 32L21 32L21 31L21 30L21 30L21 29L21 28L22 28L22 28L22 28L22 28L23 27L23 27L24 27L24 27L24 27L25 27L26 27L26 27L26 26L27 26L27 26L26 26L26 26L26 26L26 26L27 26L28 25L28 24L28 24L28 24L29 24L29 24L30 24L30 24L30 24L30 25L31 25L31 25L31 25L32 25L32 24L33 24L32 22L32 22L33 21L33 21L33 20L33 20L33 20L33 19L34 19L34 18L35 18L36 18L36 18L36 17L36 17L36 16L36 16L35 15L35 14L35 14L36 14L37 14L37 14L38 14L39 14L39 14L40 14L40 13L40 13L40 13L39 12L39 12L39 12L39 12L40 12L40 11L40 11L40 10L41 10L41 10L41 9L41 9L42 9L42 9L42 9L41 8L41 8V8L41 8L42 8L42 8L41 7L41 7L41 6L41 6L41 6L40 5L40 5L40 5L40 4L40 4L41 4L41 3L42 3L42 3L42 3L42 3L43 2L43 2L44 2L44 1L44 1L45 1L45 1L46 1L46 1L47 1L47 1L48 1L50 1L50 1L50 1L51 1L51 1L52 1L52 0L53 0L53 0L54 0L54 0L54 0Z" fill="var(--fill-0,#71B219)" stroke="var(--stroke-0,white)" mask="url(#path-1-inside-1_0_61)"/></g></svg>