<svg preserveAspectRatio="none" width="100%" height="100%" overflow="visible" style="display: block;" viewBox="0 0 65.4652 59.2134" fill="none" xmlns="http://www.w3.org/2000/svg">
<g id="PK">
<mask id="path-1-inside-1_0_61" fill="white">
<path d="M54.0427 0.275689L54.2285 0.403278L54.4596 0.327805L54.8654 0.237304L55.2176 0.304489L55.9949 0.591187L56.1118 0.733846L56.2948 1.42926L56.4337 1.49235L56.8712 1.32914L57.233 1.41143L57.6388 1.63639L57.9002 1.8531L58.0735 2.0863L58.2592 2.46488L58.3308 2.76665L58.4189 3.1274L58.3954 4.14241L58.2634 4.30839L58.1506 4.52376L58.1781 4.71167L58.306 4.85981L58.5578 4.96132L58.7903 5.0244L58.9154 5.18489L59.0874 5.75276L59.203 5.84055L59.4892 5.83778L60.0064 5.71434L60.4549 5.51956L60.6461 5.47842L60.6929 6.01749L60.957 6.22323L61.3257 6.46329L61.4784 6.54283L61.9103 6.77055L62.7261 7.05997L63.5172 7.26709L64.1033 7.42071L64.3866 7.4303L64.5888 7.43717L65.1735 7.39602L65.4652 7.32469L65.0689 7.57158L64.5847 7.87611L64.0124 8.23271L63.5089 8.54821L63.0274 8.8486L62.5666 9.13664L62.4964 9.36025L62.3822 9.68806L61.9599 9.93771L61.5389 10.1174L61.4412 10.223L61.4096 10.3643L61.206 10.6469L60.8126 10.8855L60.4865 10.8622L60.2801 10.7909L59.1837 11.2024L58.6747 11.1928L58.2786 11.4589L57.9841 11.703L57.3953 11.9691L56.995 11.9705L56.4034 11.8128L55.6757 11.511L55.3813 11.3368L55.1144 11.3464L54.4706 11.3053L53.8405 11.1557L53.0894 10.9788L52.718 10.9034L51.9559 10.747L51.4592 10.9555L51.0107 11.142L50.6462 11.2696L50.3449 11.8484L50.2169 12.0528L50.0712 12.3436L50.0024 12.5493L50.0628 12.7949L50.5045 12.9677L50.6888 13.2064L50.7164 13.4163L50.5567 13.6316L50.4233 13.8017L50.4247 13.9512L50.4962 14.1021L50.6022 14.2146L51.2295 14.2845L51.6023 14.2859L51.7467 14.3462L51.7646 14.5506L51.627 14.8249L51.0988 15.0458L50.8002 15.279L50.7039 15.5876L50.7081 15.8331L50.8112 15.9963L51.0644 16.1843L51.3023 16.3982L51.3753 16.5725L51.345 16.8111L51.2501 17.1376L50.9901 17.5175L50.7728 17.7877L50.7576 17.8838L50.8112 18.0291L50.986 18.2404L51.2831 18.5518L51.6532 18.8028L51.8912 18.8727L51.9669 18.9344L52.0412 19.2252L52.07 19.5311L51.9751 19.7616L52.1649 19.9508L52.6616 19.9413L53.066 20.0222L53.2366 19.9413L53.3563 20.0016L53.2807 20.6847L53.3357 21.088L53.4443 21.2018L53.8419 21.3664L54.6068 21.3458L55.0594 21.5365L55.5587 21.7546L55.8243 21.996L55.944 22.1757L55.911 22.4651L55.6372 22.8039L55.1928 22.9658L54.9329 23.0358L53.6507 23.6694L53.2504 23.9369L52.9394 24.2579L52.8252 24.4993L52.7648 24.7338L53.0426 25.5843L53.0894 25.8477L52.861 26.7625L52.7937 27.1014L52.8803 27.3387L53.1527 27.4264L53.2118 27.6253L53.238 27.7776L52.7648 28.1123L52.264 28.4086L52.1058 28.4072L51.627 28.9627L50.8305 30.0724L50.4068 30.4482L50.3765 30.6307L50.3435 30.8172L50.5045 31.13L50.5375 31.3947L50.3587 31.6594L50.0587 31.9653L49.4754 32.23L48.7395 32.503L48.4093 32.6676L48.1603 33.3808L47.9305 34.0955L47.8273 34.3602L47.4312 35.1818L46.7378 36.3889L46.5617 36.6523L45.4887 37.2325L44.395 37.8635L44.201 38.1021L43.9768 38.6755L43.7663 39.3037L43.5696 39.6315L42.8735 40.3667L42.6452 40.9305L42.5723 41.2981L41.9806 41.5038L41.3093 41.7L40.3326 41.7631L39.9268 41.866L38.7299 42.3721L38.4328 42.394L38.1989 42.3104L38.0228 42.1376L37.8591 41.8495L37.7807 41.4064L37.5496 41.2062L37.2387 41.0347L36.9112 41.0279L36.5811 41.2158L36.2963 41.4215L36.101 41.5916L35.9111 41.7905L35.5438 42.4572L34.9509 43.4132L34.2891 44.1073L34.0443 44.3144L33.8916 44.4721L33.6839 44.7026L33.5642 44.9248L33.4004 45.6504L33.3056 46.2923L33.3496 46.4364L33.4486 46.5584L33.8105 46.7436L34.3318 47.0536L35.0101 47.2292L35.581 47.2594L35.7956 47.391L35.9221 47.5693L35.9579 47.7189L35.9276 48.2483L35.863 48.8162L35.6525 49.4252L35.6553 49.7736L35.7391 50.1151L36.3733 50.9793L36.6073 51.0685L37.0832 51.0877L37.3047 51.0698L37.551 50.9821L37.7257 51.0424L37.8563 51.148L37.8893 51.3236L37.8688 52.1836L38.0641 52.5732L38.4424 53.1026L38.7409 53.7076L39.023 54.4304L39.2939 54.9955L39.3985 55.2904L39.2224 55.4331L39.122 55.5812L39.0958 55.7788L39.133 55.9872L39.1096 56.134L39.2376 56.3151L39.3875 56.3755L39.3833 56.5016L39.1467 56.6649L38.9363 56.6594L38.7739 56.7389L38.4603 57.0818L38.3145 57.1504L38.1177 57.182L37.899 57.1477L37.5881 57.0091L37.4986 56.791L37.5331 56.562L37.4629 56.4248L37.24 56.4509L36.4683 56.6854L35.7323 56.9748L35.6044 57.1724L35.4338 57.3767L35.0967 57.4618L34.5987 57.4878L34.2561 57.4563L33.9398 57.2355L33.6508 57.0352L33.2037 57.0256L32.399 57.0558L31.9532 57.053L31.6905 56.979L31.4319 57.0352L31.1086 56.9529L30.9641 57.0626L30.8279 57.0736L30.7193 56.8843L30.6464 56.8638L30.5611 56.8912L30.4854 56.9557L30.4413 57.0668L30.4262 58.3287L29.8952 58.3205L29.5169 58.3177L29.1014 58.3863L28.7217 58.4823L28.5346 58.5975L28.2678 58.7772L28.2045 59.0296L28.0765 59.2134L27.8922 58.9418L27.7739 58.8156L27.6363 58.9089L27.441 58.8979L27.0888 58.5879L26.932 58.9007L26.35 58.972L26.2771 58.7361L26.2634 58.5166L25.9429 58.6757L25.7131 58.4316L25.6099 58.1037L25.5219 58.0132L25.4214 57.909L25.1794 57.7965L24.9648 57.4481L24.9441 57.0777L24.8836 56.6374L24.4323 55.0024L24.1586 54.8515L22.6219 54.5607L22.5435 54.274L22.6494 53.5032L22.6068 53.0162L22.1088 52.3729L21.9699 51.923L21.564 51.5376L21.1609 51.4251L20.7537 51.4758L20.535 51.6281L20.4153 51.886L21.2848 51.8256L21.4801 51.9203L21.7139 52.089L21.465 52.0821L21.1761 52.0026L20.8142 52.008L19.4592 52.1973L18.6723 52.4703L17.6172 52.3894L16.2855 52.6582L15.1849 52.6733L14.7309 53.1959L14.4792 53.1013L14.2866 52.9737L12.7734 52.5636L12.6688 52.3921L12.4157 52.2687L12.1377 52.4881L11.9383 52.5238L11.1087 52.3414L10.4745 52.4799L10.2393 52.7159L10.2228 53.0821L9.43044 53.0108L8.98189 52.8955L8.3849 53.0231L7.0312 52.8544L6.67628 52.8955L6.18239 53.1397L5.976 53.329L5.68305 53.403L5.42435 53.1397L5.23182 53.0231L5.05297 53.0999L4.81081 53.3166L4.1092 53.4181L3.475 53.3893L2.7927 53.1863L2.87381 53.1177L2.97977 52.7638L3.07474 51.4978L3.19573 51.0397L3.15996 50.79L3.18473 50.7146L3.453 50.4924L3.51766 50.3991L3.61951 49.7489L3.73227 49.0274L3.85747 48.7682L3.962 48.6982L4.80804 48.3731L4.95255 48.1578L5.38858 48.2085L5.42855 48.1564L5.46843 47.9068L5.67062 47.6366L5.95123 47.4143L6.16174 47.3362L6.92255 47.1962L7.36824 47.0015L7.50166 46.9809L8.68616 47.0303L8.93512 46.9562L8.97366 46.8876L9.04386 46.1497L9.25982 46.0345L9.29282 45.9727L9.21993 45.4611L9.26116 45.1195L9.50466 44.9166L9.48955 44.8013L9.31624 44.5585L9.08374 44.4036L8.97089 44.3665L7.99966 44.5133L7.59797 44.4653L7.41089 44.3761L7.37101 44.3103L7.40947 44.1608L7.41635 43.918L7.55674 43.5394L7.59931 43.3131L7.4852 42.0004L7.32147 41.1266L7.40947 40.2584L7.39167 40.0787L7.35858 40.0375H7.23616L6.64462 40.1143L6.14108 39.5547L5.82747 39.3339L4.969 39.0554L4.59208 39.0005L4.04043 38.7591L3.53008 38.2311L3.01 37.6892L2.79958 37.3422L2.56708 36.751L1.90946 35.6167L1.915 35.3231L1.83381 35.1434L1.19139 34.3959L0.736043 33.8637L0 33.0023L1.47066 33.4851L2.61662 33.8541L4.46966 34.4494L5.90724 34.9116L6.30481 34.9871L10.5185 34.592L12.0745 34.891L12.5683 35.0584L12.6426 34.961L12.8518 34.758L13.2149 34.5523L13.7074 34.389L14.1986 34.2998L14.9029 34.2875L15.3817 34.3012L15.7352 34.3506L16.4176 34.3218L16.7449 34.2422L17.8661 33.9158L18.6201 33.6963L19.7605 33.3548L20.5927 33.1038L20.8005 32.9707L21.0151 32.7321L21.1183 32.5167L20.8624 32.1847L20.8294 31.8926L20.9972 31.5208L21.0881 30.9544L21.0702 30.1465L21.0151 29.6801L21.2476 28.8118L21.4416 28.3235L21.8281 28.0903L22.0977 27.9477L22.2093 27.8421L22.3192 27.7254L22.7319 27.0616L23.1103 26.7516L23.4762 26.5637L23.8779 26.5884L24.2177 26.8448L24.8781 26.9573L25.5178 26.8819L26.0722 26.6885L26.3239 26.5307L26.6183 26.3922L26.6018 26.2331L26.2675 26.0959L26.0763 25.9012L26.002 25.6625L26.1891 25.5171L26.6266 25.4746L27.6968 24.8916L28.1329 24.5076L28.2513 24.3278L28.4576 24.3086L28.8648 24.487L29.3422 24.5459L29.6407 24.3676L29.9379 24.3278L30.2295 24.5226L30.3863 24.7558L30.6505 25.0329L30.9848 25.0878L31.3879 24.9396L31.8116 24.6186L32.2133 24.1687L32.5695 23.7243L32.4815 22.3115L32.4223 21.4761L32.6108 21.0345L32.8791 20.7643L33.0565 20.3432L33.0524 19.9714L33.2409 19.6587L33.428 18.8041L33.6825 18.6025L34.208 18.4626L35.0444 18.3817L35.7006 17.9908L36.361 17.5738L36.449 17.2062L36.2014 16.8139L35.8699 16.0512L35.5713 15.5944L34.8422 14.7742L34.9261 14.2681L35.332 14.061L36.3307 14.4121L36.6086 14.4807L36.9566 14.53L37.877 14.5218L38.6282 14.3847L39.4122 14.0719L39.5663 13.7455L39.5567 13.3573L39.5705 13.0363L39.5828 12.5905L39.3008 12.3038L39.1303 12.0473L39.0794 11.8416L39.276 11.7291L39.4673 11.5193L39.6503 11.1379L40.085 10.6811L40.3478 10.2697L40.5954 10.0749L40.9695 9.80602L41.2089 9.41237L41.319 9.17644L41.535 8.94601L41.6078 8.7951L41.5487 8.65931L41.4414 8.48923L41.319 8.29718V8.11065L41.4208 7.91449L41.5322 7.73755L41.48 7.48928L41.4208 7.08466L41.2171 6.84598L41.0796 6.29318L40.8637 5.73083L40.748 5.51136L40.5362 5.23429L40.063 4.94072L39.9268 4.74457L40.1112 4.36599L40.4207 4.13145L41.0025 3.55123L41.3203 3.15071L41.6078 2.87088L41.9793 2.91751L42.1967 2.89285L42.3879 2.63357L42.7676 2.40452L43.4431 1.92991L43.6797 1.60897L44.0387 1.4471L44.3372 1.41005L44.7389 1.29757L45.1255 1.12478L45.4791 0.993084L46.0321 0.965666L46.9112 0.887472L47.3844 0.805175L48.5221 0.742051L49.7602 0.713251L49.9033 0.71053L50.4399 0.880607L50.803 1.02327L50.9461 1.01092L51.5473 0.670721L52.4607 0.253755L52.8858 0.0685665L53.1142 0L53.4677 0.00410227L53.7525 0.113859L54.0427 0.275689Z"/>
</mask>
<path d="M54.0427 0.275689L54.2285 0.403278L54.4596 0.327805L54.8654 0.237304L55.2176 0.304489L55.9949 0.591187L56.1118 0.733846L56.2948 1.42926L56.4337 1.49235L56.8712 1.32914L57.233 1.41143L57.6388 1.63639L57.9002 1.8531L58.0735 2.0863L58.2592 2.46488L58.3308 2.76665L58.4189 3.1274L58.3954 4.14241L58.2634 4.30839L58.1506 4.52376L58.1781 4.71167L58.306 4.85981L58.5578 4.96132L58.7903 5.0244L58.9154 5.18489L59.0874 5.75276L59.203 5.84055L59.4892 5.83778L60.0064 5.71434L60.4549 5.51956L60.6461 5.47842L60.6929 6.01749L60.957 6.22323L61.3257 6.46329L61.4784 6.54283L61.9103 6.77055L62.7261 7.05997L63.5172 7.26709L64.1033 7.42071L64.3866 7.4303L64.5888 7.43717L65.1735 7.39602L65.4652 7.32469L65.0689 7.57158L64.5847 7.87611L64.0124 8.23271L63.5089 8.54821L63.0274 8.8486L62.5666 9.13664L62.4964 9.36025L62.3822 9.68806L61.9599 9.93771L61.5389 10.1174L61.4412 10.223L61.4096 10.3643L61.206 10.6469L60.8126 10.8855L60.4865 10.8622L60.2801 10.7909L59.1837 11.2024L58.6747 11.1928L58.2786 11.4589L57.9841 11.703L57.3953 11.9691L56.995 11.9705L56.4034 11.8128L55.6757 11.511L55.3813 11.3368L55.1144 11.3464L54.4706 11.3053L53.8405 11.1557L53.0894 10.9788L52.718 10.9034L51.9559 10.747L51.4592 10.9555L51.0107 11.142L50.6462 11.2696L50.3449 11.8484L50.2169 12.0528L50.0712 12.3436L50.0024 12.5493L50.0628 12.7949L50.5045 12.9677L50.6888 13.2064L50.7164 13.4163L50.5567 13.6316L50.4233 13.8017L50.4247 13.9512L50.4962 14.1021L50.6022 14.2146L51.2295 14.2845L51.6023 14.2859L51.7467 14.3462L51.7646 14.5506L51.627 14.8249L51.0988 15.0458L50.8002 15.279L50.7039 15.5876L50.7081 15.8331L50.8112 15.9963L51.0644 16.1843L51.3023 16.3982L51.3753 16.5725L51.345 16.8111L51.2501 17.1376L50.9901 17.5175L50.7728 17.7877L50.7576 17.8838L50.8112 18.0291L50.986 18.2404L51.2831 18.5518L51.6532 18.8028L51.8912 18.8727L51.9669 18.9344L52.0412 19.2252L52.07 19.5311L51.9751 19.7616L52.1649 19.9508L52.6616 19.9413L53.066 20.0222L53.2366 19.9413L53.3563 20.0016L53.2807 20.6847L53.3357 21.088L53.4443 21.2018L53.8419 21.3664L54.6068 21.3458L55.0594 21.5365L55.5587 21.7546L55.8243 21.996L55.944 22.1757L55.911 22.4651L55.6372 22.8039L55.1928 22.9658L54.9329 23.0358L53.6507 23.6694L53.2504 23.9369L52.9394 24.2579L52.8252 24.4993L52.7648 24.7338L53.0426 25.5843L53.0894 25.8477L52.861 26.7625L52.7937 27.1014L52.8803 27.3387L53.1527 27.4264L53.2118 27.6253L53.238 27.7776L52.7648 28.1123L52.264 28.4086L52.1058 28.4072L51.627 28.9627L50.8305 30.0724L50.4068 30.4482L50.3765 30.6307L50.3435 30.8172L50.5045 31.13L50.5375 31.3947L50.3587 31.6594L50.0587 31.9653L49.4754 32.23L48.7395 32.503L48.4093 32.6676L48.1603 33.3808L47.9305 34.0955L47.8273 34.3602L47.4312 35.1818L46.7378 36.3889L46.5617 36.6523L45.4887 37.2325L44.395 37.8635L44.201 38.1021L43.9768 38.6755L43.7663 39.3037L43.5696 39.6315L42.8735 40.3667L42.6452 40.9305L42.5723 41.2981L41.9806 41.5038L41.3093 41.7L40.3326 41.7631L39.9268 41.866L38.7299 42.3721L38.4328 42.394L38.1989 42.3104L38.0228 42.1376L37.8591 41.8495L37.7807 41.4064L37.5496 41.2062L37.2387 41.0347L36.9112 41.0279L36.5811 41.2158L36.2963 41.4215L36.101 41.5916L35.9111 41.7905L35.5438 42.4572L34.9509 43.4132L34.2891 44.1073L34.0443 44.3144L33.8916 44.4721L33.6839 44.7026L33.5642 44.9248L33.4004 45.6504L33.3056 46.2923L33.3496 46.4364L33.4486 46.5584L33.8105 46.7436L34.3318 47.0536L35.0101 47.2292L35.581 47.2594L35.7956 47.391L35.9221 47.5693L35.9579 47.7189L35.9276 48.2483L35.863 48.8162L35.6525 49.4252L35.6553 49.7736L35.7391 50.1151L36.3733 50.9793L36.6073 51.0685L37.0832 51.0877L37.3047 51.0698L37.551 50.9821L37.7257 51.0424L37.8563 51.148L37.8893 51.3236L37.8688 52.1836L38.0641 52.5732L38.4424 53.1026L38.7409 53.7076L39.023 54.4304L39.2939 54.9955L39.3985 55.2904L39.2224 55.4331L39.122 55.5812L39.0958 55.7788L39.133 55.9872L39.1096 56.134L39.2376 56.3151L39.3875 56.3755L39.3833 56.5016L39.1467 56.6649L38.9363 56.6594L38.7739 56.7389L38.4603 57.0818L38.3145 57.1504L38.1177 57.182L37.899 57.1477L37.5881 57.0091L37.4986 56.791L37.5331 56.562L37.4629 56.4248L37.24 56.4509L36.4683 56.6854L35.7323 56.9748L35.6044 57.1724L35.4338 57.3767L35.0967 57.4618L34.5987 57.4878L34.2561 57.4563L33.9398 57.2355L33.6508 57.0352L33.2037 57.0256L32.399 57.0558L31.9532 57.053L31.6905 56.979L31.4319 57.0352L31.1086 56.9529L30.9641 57.0626L30.8279 57.0736L30.7193 56.8843L30.6464 56.8638L30.5611 56.8912L30.4854 56.9557L30.4413 57.0668L30.4262 58.3287L29.8952 58.3205L29.5169 58.3177L29.1014 58.3863L28.7217 58.4823L28.5346 58.5975L28.2678 58.7772L28.2045 59.0296L28.0765 59.2134L27.8922 58.9418L27.7739 58.8156L27.6363 58.9089L27.441 58.8979L27.0888 58.5879L26.932 58.9007L26.35 58.972L26.2771 58.7361L26.2634 58.5166L25.9429 58.6757L25.7131 58.4316L25.6099 58.1037L25.5219 58.0132L25.4214 57.909L25.1794 57.7965L24.9648 57.4481L24.9441 57.0777L24.8836 56.6374L24.4323 55.0024L24.1586 54.8515L22.6219 54.5607L22.5435 54.274L22.6494 53.5032L22.6068 53.0162L22.1088 52.3729L21.9699 51.923L21.564 51.5376L21.1609 51.4251L20.7537 51.4758L20.535 51.6281L20.4153 51.886L21.2848 51.8256L21.4801 51.9203L21.7139 52.089L21.465 52.0821L21.1761 52.0026L20.8142 52.008L19.4592 52.1973L18.6723 52.4703L17.6172 52.3894L16.2855 52.6582L15.1849 52.6733L14.7309 53.1959L14.4792 53.1013L14.2866 52.9737L12.7734 52.5636L12.6688 52.3921L12.4157 52.2687L12.1377 52.4881L11.9383 52.5238L11.1087 52.3414L10.4745 52.4799L10.2393 52.7159L10.2228 53.0821L9.43044 53.0108L8.98189 52.8955L8.3849 53.0231L7.0312 52.8544L6.67628 52.8955L6.18239 53.1397L5.976 53.329L5.68305 53.403L5.42435 53.1397L5.23182 53.0231L5.05297 53.0999L4.81081 53.3166L4.1092 53.4181L3.475 53.3893L2.7927 53.1863L2.87381 53.1177L2.97977 52.7638L3.07474 51.4978L3.19573 51.0397L3.15996 50.79L3.18473 50.7146L3.453 50.4924L3.51766 50.3991L3.61951 49.7489L3.73227 49.0274L3.85747 48.7682L3.962 48.6982L4.80804 48.3731L4.95255 48.1578L5.38858 48.2085L5.42855 48.1564L5.46843 47.9068L5.67062 47.6366L5.95123 47.4143L6.16174 47.3362L6.92255 47.1962L7.36824 47.0015L7.50166 46.9809L8.68616 47.0303L8.93512 46.9562L8.97366 46.8876L9.04386 46.1497L9.25982 46.0345L9.29282 45.9727L9.21993 45.4611L9.26116 45.1195L9.50466 44.9166L9.48955 44.8013L9.31624 44.5585L9.08374 44.4036L8.97089 44.3665L7.99966 44.5133L7.59797 44.4653L7.41089 44.3761L7.37101 44.3103L7.40947 44.1608L7.41635 43.918L7.55674 43.5394L7.59931 43.3131L7.4852 42.0004L7.32147 41.1266L7.40947 40.2584L7.39167 40.0787L7.35858 40.0375H7.23616L6.64462 40.1143L6.14108 39.5547L5.82747 39.3339L4.969 39.0554L4.59208 39.0005L4.04043 38.7591L3.53008 38.2311L3.01 37.6892L2.79958 37.3422L2.56708 36.751L1.90946 35.6167L1.915 35.3231L1.83381 35.1434L1.19139 34.3959L0.736043 33.8637L0 33.0023L1.47066 33.4851L2.61662 33.8541L4.46966 34.4494L5.90724 34.9116L6.30481 34.9871L10.5185 34.592L12.0745 34.891L12.5683 35.0584L12.6426 34.961L12.8518 34.758L13.2149 34.5523L13.7074 34.389L14.1986 34.2998L14.9029 34.2875L15.3817 34.3012L15.7352 34.3506L16.4176 34.3218L16.7449 34.2422L17.8661 33.9158L18.6201 33.6963L19.7605 33.3548L20.5927 33.1038L20.8005 32.9707L21.0151 32.7321L21.1183 32.5167L20.8624 32.1847L20.8294 31.8926L20.9972 31.5208L21.0881 30.9544L21.0702 30.1465L21.0151 29.6801L21.2476 28.8118L21.4416 28.3235L21.8281 28.0903L22.0977 27.9477L22.2093 27.8421L22.3192 27.7254L22.7319 27.0616L23.1103 26.7516L23.4762 26.5637L23.8779 26.5884L24.2177 26.8448L24.8781 26.9573L25.5178 26.8819L26.0722 26.6885L26.3239 26.5307L26.6183 26.3922L26.6018 26.2331L26.2675 26.0959L26.0763 25.9012L26.002 25.6625L26.1891 25.5171L26.6266 25.4746L27.6968 24.8916L28.1329 24.5076L28.2513 24.3278L28.4576 24.3086L28.8648 24.487L29.3422 24.5459L29.6407 24.3676L29.9379 24.3278L30.2295 24.5226L30.3863 24.7558L30.6505 25.0329L30.9848 25.0878L31.3879 24.9396L31.8116 24.6186L32.2133 24.1687L32.5695 23.7243L32.4815 22.3115L32.4223 21.4761L32.6108 21.0345L32.8791 20.7643L33.0565 20.3432L33.0524 19.9714L33.2409 19.6587L33.428 18.8041L33.6825 18.6025L34.208 18.4626L35.0444 18.3817L35.7006 17.9908L36.361 17.5738L36.449 17.2062L36.2014 16.8139L35.8699 16.0512L35.5713 15.5944L34.8422 14.7742L34.9261 14.2681L35.332 14.061L36.3307 14.4121L36.6086 14.4807L36.9566 14.53L37.877 14.5218L38.6282 14.3847L39.4122 14.0719L39.5663 13.7455L39.5567 13.3573L39.5705 13.0363L39.5828 12.5905L39.3008 12.3038L39.1303 12.0473L39.0794 11.8416L39.276 11.7291L39.4673 11.5193L39.6503 11.1379L40.085 10.6811L40.3478 10.2697L40.5954 10.0749L40.9695 9.80602L41.2089 9.41237L41.319 9.17644L41.535 8.94601L41.6078 8.7951L41.5487 8.65931L41.4414 8.48923L41.319 8.29718V8.11065L41.4208 7.91449L41.5322 7.73755L41.48 7.48928L41.4208 7.08466L41.2171 6.84598L41.0796 6.29318L40.8637 5.73083L40.748 5.51136L40.5362 5.23429L40.063 4.94072L39.9268 4.74457L40.1112 4.36599L40.4207 4.13145L41.0025 3.55123L41.3203 3.15071L41.6078 2.87088L41.9793 2.91751L42.1967 2.89285L42.3879 2.63357L42.7676 2.40452L43.4431 1.92991L43.6797 1.60897L44.0387 1.4471L44.3372 1.41005L44.7389 1.29757L45.1255 1.12478L45.4791 0.993084L46.0321 0.965666L46.9112 0.887472L47.3844 0.805175L48.5221 0.742051L49.7602 0.713251L49.9033 0.71053L50.4399 0.880607L50.803 1.02327L50.9461 1.01092L51.5473 0.670721L52.4607 0.253755L52.8858 0.0685665L53.1142 0L53.4677 0.00410227L53.7525 0.113859L54.0427 0.275689Z" fill="var(--fill-0, #71B219)" stroke="var(--stroke-0, white)" mask="url(#path-1-inside-1_0_61)"/>
</g>
</svg>
