<svg preserveAspectRatio="none" width="100%" height="100%" overflow="visible" style="display: block;" viewBox="0 0 38.5194 36.2915" fill="none" xmlns="http://www.w3.org/2000/svg">
<g id="PL">
<mask id="path-1-inside-1_0_58" fill="white">
<path d="M21.1403 2.51699L21.2944 2.59657L22.3757 2.68297L23.4721 2.76941L25.2344 2.86405L27.0709 2.96004L28.9776 3.06293L31.0398 3.17131L33.2148 3.23577L33.3482 3.19186L33.5697 2.93534L33.8407 2.96967L34.1613 3.12878L34.3098 3.24674L34.3731 3.38253L34.413 3.53888L34.5877 3.56906L34.9082 3.6884L35.3402 3.95861L35.6786 4.22061L36.002 4.5937L36.1093 5.0162L36.1147 5.49491L36.0941 5.80216L36.1216 5.92694L36.5632 8.13945L37.2978 10.2559L37.5675 11.2737L37.6748 11.8142L37.7615 12.596L37.7876 13.1447L37.7848 13.4519L37.7298 13.8744L37.5124 14.124L36.1024 14.8373L35.8369 15.0595L35.4214 15.6137L35.0375 16.1829L34.9495 16.3777L34.9261 16.5052L35.0114 16.6918L35.5135 16.9949L36.0198 17.2391L36.1849 17.4215L36.5591 17.6547L36.6953 17.8645L36.7696 18.0456L36.764 18.4667L36.5963 19.0469L36.6664 19.4845L36.4944 19.7767L36.3541 20.1004L36.3335 20.6655L36.5866 21.2882L36.7943 21.7134L36.8741 22.0468L36.7902 22.3074L36.815 22.568L37.0006 22.8451L37.584 23.6955L37.8715 24.5116L38.0558 24.8299L38.481 25.2414L38.5194 25.4101L38.3489 25.5651L38.2113 25.5856L38.0998 25.6268L38.0283 25.7708L38.1397 25.9258L38.2897 26.1522L38.4768 26.7927L38.4589 27.3167L38.3145 27.4498L38.1301 27.7598L38.0063 28.0437L36.998 28.2399L36.7558 28.543L36.2041 29.1259L35.8286 29.462L35.2715 30.0669L34.391 31.1039L34.0663 31.5373L33.8283 31.8953L33.1157 32.8445L32.897 33.2423L32.9396 33.5687L33.1694 34.3355L33.2175 34.6812L33.1763 34.9994L33.1006 35.2833L33.1144 35.4095L33.3248 35.6153L33.6591 35.9376L33.6784 36.046L33.6316 36.1859L33.5161 36.2915L33.0965 36.179L32.6287 35.961L32.4692 35.9884L32.216 35.9363L31.1718 35.5151L30.4675 35.1846L30.3973 34.9692L30.2653 34.6579L29.9654 34.3959L29.2776 34.1696L28.9983 33.9926L27.8812 33.8938L27.397 33.8897L27.0544 33.9624L26.8343 33.9556L26.5331 34.4178L26.3253 34.5522L26.0213 34.566L25.7544 34.4836L25.482 34.2409L25.0473 34.1119L24.7323 34.1737L24.4998 34.1215L24.3002 34.1078L24.2301 34.1572L24.0692 34.1503L23.8367 34.2669L23.5807 34.4302L23.3001 34.5563L23.0827 34.8252L22.8902 35.3506L22.344 35.1146L22.1625 35.2175L21.9038 35.2861L21.7277 35.2148L21.769 35.0337L21.8488 34.8293L21.8447 34.544L21.7951 34.2272L21.6259 34.1243L21.3714 34.0873L21.2407 34.0241L21.2269 33.9199L21.0963 33.7855L20.8707 33.4453L20.6588 33.0201L20.5116 32.8953L20.2984 33.0969L19.9751 33.326L19.7729 33.4055L19.3836 34.0639L18.6847 34.0859L18.6421 33.7786L18.5677 33.4823L18.1592 33.4096L18.1468 33.2355L18.0615 32.7992L17.2416 31.9447L17.1425 31.5881L17.1742 31.4495L17.1177 31.2218L16.939 31.0847L16.291 30.9214L16.1245 31.0147L15.9746 30.9187L15.7379 30.7129L15.3294 30.5456L15.284 30.4592L15.1367 30.311L15.0556 30.2918L15.002 30.381L14.8837 30.5072L14.4627 30.6677L14.2948 30.6018L14.1422 30.4633L13.9674 30.1629L13.7143 29.8996L13.5065 29.8063L13.3869 29.6677L13.3608 29.5607L13.823 29.344L13.9248 29.1205L13.8657 28.7131L13.7968 28.6623L13.6125 28.7995L13.2259 28.9202L12.871 28.9764H12.6881L11.6714 28.2343L11.0111 28.0067L10.6217 27.9408L10.5805 28.0162L10.7552 28.4332L11.0606 28.9476L11.0454 29.0834L10.6809 29.2933L10.4745 29.3852L10.231 29.5621L10.0247 29.809L9.8459 29.9201L9.69182 29.8913L9.52809 29.7734L9.10708 29.0148L8.57751 28.4332L8.5142 28.3029L8.34913 28.2728L8.11528 28.1383L8.03543 27.96L8.15374 27.7735L8.3147 27.6034L8.60085 27.4978L8.68751 27.3976L8.73847 27.2481L8.84435 27.0547L8.81681 26.9862L8.61462 26.7667L8.3147 26.5596L7.48109 26.7146L7.2527 26.8257L7.12339 26.6816L7.02566 26.4718L6.81524 26.4306L6.52631 26.2386L6.18373 26.0493L5.84947 25.9944L5.15474 25.7214L4.88647 25.7064L4.73239 25.6131L4.57008 25.406L4.43255 25.1796L4.36101 24.7188L3.84924 24.5103L3.33881 24.3786L3.30304 24.4458L3.32504 24.9094L3.29758 25.1577L2.96055 25.31L2.62762 25.3251L2.64551 25.2483L3.04443 24.4129L3.22327 23.8848L3.42823 22.9205L3.18205 22.1565L3.11462 21.7971L3.00043 21.6257L2.30016 21.2512L2.2465 21.1223L2.35381 20.6147L2.30158 20.4008L2.13239 20.1745L1.91089 19.7245L1.82558 19.3419L2.10762 18.892L2.17773 18.56L2.30016 18.106L2.39101 17.8563L2.40889 17.7877L2.22316 17.6108L2.17639 17.3612L2.22593 17.0018L2.12685 16.7343L1.87924 16.5615L1.71827 16.3311L1.64396 16.0457L1.70173 15.5958L1.89435 14.9827L1.48712 14.242L0.481543 13.3737L0 12.7661L0.0385402 12.4177L0.250386 12.1022L0.634193 11.8196L0.925889 11.3162L1.08954 10.7168L1.09374 10.603L1.10331 10.175L0.656276 8.41652L0.583309 7.97485L0.529655 7.43993L0.502115 7.29451L1.38535 7.66898L1.75539 7.88021L1.70862 7.6429L1.63439 7.43854L1.68385 7.1395L1.65908 6.68687L0.857121 6.45505L0.327466 6.37685L0.26827 6.0614L0.31781 5.85699L0.465002 5.97772L0.985001 6.02435L2.26581 5.41395L4.47655 4.61702L6.83858 3.86944L7.39024 3.78715L7.94332 3.62942L8.14828 3.34825L8.35324 3.1603L8.67374 2.66375L9.38501 1.89014L10.6424 1.60759L11.1129 1.23997L12.0965 0.724218L14.3389 0.14404L15.2771 0.0150696L16.1947 0L17.0119 0.458115L17.8771 1.02327L18.0326 1.36208L17.5649 1.15081L16.8826 0.644684L16.6294 0.62275L17.2127 2.16039L17.5319 2.70356L18.1743 3.1068L18.7149 3.24397L20.3796 2.99847L20.9698 2.67748L21.1403 2.51699Z"/>
</mask>
<path d="M21.1403 2.51699L21.2944 2.59657L22.3757 2.68297L23.4721 2.76941L25.2344 2.86405L27.0709 2.96004L28.9776 3.06293L31.0398 3.17131L33.2148 3.23577L33.3482 3.19186L33.5697 2.93534L33.8407 2.96967L34.1613 3.12878L34.3098 3.24674L34.3731 3.38253L34.413 3.53888L34.5877 3.56906L34.9082 3.6884L35.3402 3.95861L35.6786 4.22061L36.002 4.5937L36.1093 5.0162L36.1147 5.49491L36.0941 5.80216L36.1216 5.92694L36.5632 8.13945L37.2978 10.2559L37.5675 11.2737L37.6748 11.8142L37.7615 12.596L37.7876 13.1447L37.7848 13.4519L37.7298 13.8744L37.5124 14.124L36.1024 14.8373L35.8369 15.0595L35.4214 15.6137L35.0375 16.1829L34.9495 16.3777L34.9261 16.5052L35.0114 16.6918L35.5135 16.9949L36.0198 17.2391L36.1849 17.4215L36.5591 17.6547L36.6953 17.8645L36.7696 18.0456L36.764 18.4667L36.5963 19.0469L36.6664 19.4845L36.4944 19.7767L36.3541 20.1004L36.3335 20.6655L36.5866 21.2882L36.7943 21.7134L36.8741 22.0468L36.7902 22.3074L36.815 22.568L37.0006 22.8451L37.584 23.6955L37.8715 24.5116L38.0558 24.8299L38.481 25.2414L38.5194 25.4101L38.3489 25.5651L38.2113 25.5856L38.0998 25.6268L38.0283 25.7708L38.1397 25.9258L38.2897 26.1522L38.4768 26.7927L38.4589 27.3167L38.3145 27.4498L38.1301 27.7598L38.0063 28.0437L36.998 28.2399L36.7558 28.543L36.2041 29.1259L35.8286 29.462L35.2715 30.0669L34.391 31.1039L34.0663 31.5373L33.8283 31.8953L33.1157 32.8445L32.897 33.2423L32.9396 33.5687L33.1694 34.3355L33.2175 34.6812L33.1763 34.9994L33.1006 35.2833L33.1144 35.4095L33.3248 35.6153L33.6591 35.9376L33.6784 36.046L33.6316 36.1859L33.5161 36.2915L33.0965 36.179L32.6287 35.961L32.4692 35.9884L32.216 35.9363L31.1718 35.5151L30.4675 35.1846L30.3973 34.9692L30.2653 34.6579L29.9654 34.3959L29.2776 34.1696L28.9983 33.9926L27.8812 33.8938L27.397 33.8897L27.0544 33.9624L26.8343 33.9556L26.5331 34.4178L26.3253 34.5522L26.0213 34.566L25.7544 34.4836L25.482 34.2409L25.0473 34.1119L24.7323 34.1737L24.4998 34.1215L24.3002 34.1078L24.2301 34.1572L24.0692 34.1503L23.8367 34.2669L23.5807 34.4302L23.3001 34.5563L23.0827 34.8252L22.8902 35.3506L22.344 35.1146L22.1625 35.2175L21.9038 35.2861L21.7277 35.2148L21.769 35.0337L21.8488 34.8293L21.8447 34.544L21.7951 34.2272L21.6259 34.1243L21.3714 34.0873L21.2407 34.0241L21.2269 33.9199L21.0963 33.7855L20.8707 33.4453L20.6588 33.0201L20.5116 32.8953L20.2984 33.0969L19.9751 33.326L19.7729 33.4055L19.3836 34.0639L18.6847 34.0859L18.6421 33.7786L18.5677 33.4823L18.1592 33.4096L18.1468 33.2355L18.0615 32.7992L17.2416 31.9447L17.1425 31.5881L17.1742 31.4495L17.1177 31.2218L16.939 31.0847L16.291 30.9214L16.1245 31.0147L15.9746 30.9187L15.7379 30.7129L15.3294 30.5456L15.284 30.4592L15.1367 30.311L15.0556 30.2918L15.002 30.381L14.8837 30.5072L14.4627 30.6677L14.2948 30.6018L14.1422 30.4633L13.9674 30.1629L13.7143 29.8996L13.5065 29.8063L13.3869 29.6677L13.3608 29.5607L13.823 29.344L13.9248 29.1205L13.8657 28.7131L13.7968 28.6623L13.6125 28.7995L13.2259 28.9202L12.871 28.9764H12.6881L11.6714 28.2343L11.0111 28.0067L10.6217 27.9408L10.5805 28.0162L10.7552 28.4332L11.0606 28.9476L11.0454 29.0834L10.6809 29.2933L10.4745 29.3852L10.231 29.5621L10.0247 29.809L9.8459 29.9201L9.69182 29.8913L9.52809 29.7734L9.10708 29.0148L8.57751 28.4332L8.5142 28.3029L8.34913 28.2728L8.11528 28.1383L8.03543 27.96L8.15374 27.7735L8.3147 27.6034L8.60085 27.4978L8.68751 27.3976L8.73847 27.2481L8.84435 27.0547L8.81681 26.9862L8.61462 26.7667L8.3147 26.5596L7.48109 26.7146L7.2527 26.8257L7.12339 26.6816L7.02566 26.4718L6.81524 26.4306L6.52631 26.2386L6.18373 26.0493L5.84947 25.9944L5.15474 25.7214L4.88647 25.7064L4.73239 25.6131L4.57008 25.406L4.43255 25.1796L4.36101 24.7188L3.84924 24.5103L3.33881 24.3786L3.30304 24.4458L3.32504 24.9094L3.29758 25.1577L2.96055 25.31L2.62762 25.3251L2.64551 25.2483L3.04443 24.4129L3.22327 23.8848L3.42823 22.9205L3.18205 22.1565L3.11462 21.7971L3.00043 21.6257L2.30016 21.2512L2.2465 21.1223L2.35381 20.6147L2.30158 20.4008L2.13239 20.1745L1.91089 19.7245L1.82558 19.3419L2.10762 18.892L2.17773 18.56L2.30016 18.106L2.39101 17.8563L2.40889 17.7877L2.22316 17.6108L2.17639 17.3612L2.22593 17.0018L2.12685 16.7343L1.87924 16.5615L1.71827 16.3311L1.64396 16.0457L1.70173 15.5958L1.89435 14.9827L1.48712 14.242L0.481543 13.3737L0 12.7661L0.0385402 12.4177L0.250386 12.1022L0.634193 11.8196L0.925889 11.3162L1.08954 10.7168L1.09374 10.603L1.10331 10.175L0.656276 8.41652L0.583309 7.97485L0.529655 7.43993L0.502115 7.29451L1.38535 7.66898L1.75539 7.88021L1.70862 7.6429L1.63439 7.43854L1.68385 7.1395L1.65908 6.68687L0.857121 6.45505L0.327466 6.37685L0.26827 6.0614L0.31781 5.85699L0.465002 5.97772L0.985001 6.02435L2.26581 5.41395L4.47655 4.61702L6.83858 3.86944L7.39024 3.78715L7.94332 3.62942L8.14828 3.34825L8.35324 3.1603L8.67374 2.66375L9.38501 1.89014L10.6424 1.60759L11.1129 1.23997L12.0965 0.724218L14.3389 0.14404L15.2771 0.0150696L16.1947 0L17.0119 0.458115L17.8771 1.02327L18.0326 1.36208L17.5649 1.15081L16.8826 0.644684L16.6294 0.62275L17.2127 2.16039L17.5319 2.70356L18.1743 3.1068L18.7149 3.24397L20.3796 2.99847L20.9698 2.67748L21.1403 2.51699Z" fill="var(--fill-0, #71B219)" stroke="var(--stroke-0, white)" mask="url(#path-1-inside-1_0_58)"/>
</g>
</svg>
