<svg preserveAspectRatio="none" width="100%" height="100%" overflow="visible" style="display: block;" viewBox="0 0 38 36" fill="none" xmlns="http://www.w3.org/2000/svg"><g id="PL"><mask id="path-1-inside-1_0_58" fill="white"><path d="M21 2L21 3L22 3L24 3L25 3L27 3L29 3L31 3L33 3L33 3L34 3L34 3L34 3L34 3L34 3L34 4L35 4L35 4L35 4L36 4L36 5L36 5L36 6L36 6L36 6L37 8L37 10L38 11L38 12L38 13L38 13L38 14L38 14L38 14L36 15L36 15L35 16L35 16L35 16L35 16L35 17L36 17L36 17L36 17L37 18L37 18L37 18L37 18L37 19L37 20L36 20L36 20L36 21L37 21L37 22L37 22L37 22L37 23L37 23L38 24L38 24L38 25L38 25L38 25L38 26L38 26L38 26L38 26L38 26L38 26L38 27L38 27L38 27L38 28L38 28L37 28L37 28L36 29L36 30L35 30L34 31L34 32L34 32L33 33L33 33L33 34L33 34L33 35L33 35L33 35L33 35L33 36L34 36L34 36L34 36L34 36L33 36L33 36L32 36L32 36L31 36L30 35L30 35L30 35L30 34L29 34L29 34L28 34L27 34L27 34L27 34L26 34L26 35L26 35L26 34L26 34L25 34L25 34L24 34L24 34L24 34L24 34L24 34L24 34L23 35L23 35L23 35L22 35L22 35L22 35L22 35L22 35L22 35L22 34L22 34L22 34L21 34L21 34L21 34L21 34L21 33L21 33L20 33L20 33L20 33L20 33L19 34L19 34L19 34L19 34L18 33L18 33L18 33L17 32L17 32L17 31L17 31L17 31L16 31L16 31L16 31L16 31L15 30L15 30L15 30L15 30L15 30L15 30L14 31L14 31L14 30L14 30L14 30L14 30L13 30L13 30L14 29L14 29L14 29L14 29L14 29L13 29L13 29H13L12 28L11 28L11 28L11 28L11 28L11 29L11 29L11 29L10 29L10 30L10 30L10 30L10 30L10 30L9 29L9 28L8 28L8 28L8 28L8 28L8 28L8 28L9 28L9 27L9 27L9 27L9 27L9 27L8 27L8 27L7 27L7 27L7 26L7 26L6 26L6 26L6 26L5 26L5 26L5 26L5 25L4 25L4 25L4 24L3 24L3 24L3 25L3 25L3 25L3 25L3 25L3 24L3 24L3 23L3 22L3 22L3 22L2 21L2 21L2 21L2 20L2 20L2 20L2 19L2 19L2 19L2 18L2 18L2 18L2 18L2 17L2 17L2 17L2 17L2 16L2 16L2 16L2 15L2 14L0 13L0 13L0 12L0 12L1 12L1 11L1 11L1 11L1 10L1 8L1 8L0 7L0 7L1 8L2 8L2 8L2 7L2 7L2 7L1 6L0 6L0 6L0 6L0 6L1 6L2 5L4 5L7 4L7 4L8 4L8 3L8 3L9 3L9 2L11 2L11 1L12 1L14 0L15 0L16 0L17 0L18 1L18 1L18 1L17 1L17 1L17 2L18 3L18 3L19 3L20 3L21 3L21 2Z"/></mask><path d="M21 2L21 3L22 3L24 3L25 3L27 3L29 3L31 3L33 3L33 3L34 3L34 3L34 3L34 3L34 3L34 4L35 4L35 4L35 4L36 4L36 5L36 5L36 6L36 6L36 6L37 8L37 10L38 11L38 12L38 13L38 13L38 14L38 14L38 14L36 15L36 15L35 16L35 16L35 16L35 16L35 17L36 17L36 17L36 17L37 18L37 18L37 18L37 18L37 19L37 20L36 20L36 20L36 21L37 21L37 22L37 22L37 22L37 23L37 23L38 24L38 24L38 25L38 25L38 25L38 26L38 26L38 26L38 26L38 26L38 26L38 27L38 27L38 27L38 28L38 28L37 28L37 28L36 29L36 30L35 30L34 31L34 32L34 32L33 33L33 33L33 34L33 34L33 35L33 35L33 35L33 35L33 36L34 36L34 36L34 36L34 36L33 36L33 36L32 36L32 36L31 36L30 35L30 35L30 35L30 34L29 34L29 34L28 34L27 34L27 34L27 34L26 34L26 35L26 35L26 34L26 34L25 34L25 34L24 34L24 34L24 34L24 34L24 34L24 34L23 35L23 35L23 35L22 35L22 35L22 35L22 35L22 35L22 35L22 34L22 34L22 34L21 34L21 34L21 34L21 34L21 33L21 33L20 33L20 33L20 33L20 33L19 34L19 34L19 34L19 34L18 33L18 33L18 33L17 32L17 32L17 31L17 31L17 31L16 31L16 31L16 31L16 31L15 30L15 30L15 30L15 30L15 30L15 30L14 31L14 31L14 30L14 30L14 30L14 30L13 30L13 30L14 29L14 29L14 29L14 29L14 29L13 29L13 29H13L12 28L11 28L11 28L11 28L11 28L11 29L11 29L11 29L10 29L10 30L10 30L10 30L10 30L10 30L9 29L9 28L8 28L8 28L8 28L8 28L8 28L8 28L9 28L9 27L9 27L9 27L9 27L9 27L8 27L8 27L7 27L7 27L7 26L7 26L6 26L6 26L6 26L5 26L5 26L5 26L5 25L4 25L4 25L4 24L3 24L3 24L3 25L3 25L3 25L3 25L3 25L3 24L3 24L3 23L3 22L3 22L3 22L2 21L2 21L2 21L2 20L2 20L2 20L2 19L2 19L2 19L2 18L2 18L2 18L2 18L2 17L2 17L2 17L2 17L2 16L2 16L2 16L2 15L2 14L0 13L0 13L0 12L0 12L1 12L1 11L1 11L1 11L1 10L1 8L1 8L0 7L0 7L1 8L2 8L2 8L2 7L2 7L2 7L1 6L0 6L0 6L0 6L0 6L1 6L2 5L4 5L7 4L7 4L8 4L8 3L8 3L9 3L9 2L11 2L11 1L12 1L14 0L15 0L16 0L17 0L18 1L18 1L18 1L17 1L17 1L17 2L18 3L18 3L19 3L20 3L21 3L21 2Z" fill="var(--fill-0,#71B219)" stroke="var(--stroke-0,white)" mask="url(#path-1-inside-1_0_58)"/></g></svg>