<svg preserveAspectRatio="none" width="100%" height="100%" overflow="visible" style="display: block;" viewBox="0 0 0.962077 1.94502" fill="none" xmlns="http://www.w3.org/2000/svg">
<g id="PM">
<mask id="path-1-inside-1_0_57" fill="white">
<path d="M0.461807 1.46493L0.125078 1.70634L0.00822108 1.57192L0.0370788 1.41281L0.208883 1.03013L0.203388 0.918992L0 0.17556L0.0343524 0.0534969L0.0851889 0L0.383455 0.157728L0.417807 0.360749L0.276245 0.817524L0.37385 1.12063L0.505764 1.3401L0.461807 1.46493ZM0.909856 1.89152L0.828778 1.94502L0.55249 1.8641L0.684447 1.68988L0.777899 1.63915L0.902977 1.61717L0.962077 1.67067L0.955198 1.7996L0.909856 1.89152Z"/>
</mask>
<path d="M0.461807 1.46493L0.125078 1.70634L0.00822108 1.57192L0.0370788 1.41281L0.208883 1.03013L0.203388 0.918992L0 0.17556L0.0343524 0.0534969L0.0851889 0L0.383455 0.157728L0.417807 0.360749L0.276245 0.817524L0.37385 1.12063L0.505764 1.3401L0.461807 1.46493ZM0.909856 1.89152L0.828778 1.94502L0.55249 1.8641L0.684447 1.68988L0.777899 1.63915L0.902977 1.61717L0.962077 1.67067L0.955198 1.7996L0.909856 1.89152Z" fill="var(--fill-0, #71B219)"/>
<path d="M0.461807 1.46493L0.753133 1.87129L0.881114 1.77954L0.933419 1.63101L0.461807 1.46493ZM0.125078 1.70633L-0.252257 2.03439L0.0464246 2.37794L0.416404 2.1127L0.125078 1.70633ZM0.00822108 1.57192L-0.483753 1.48269L-0.526584 1.71885L-0.369114 1.89998L0.00822108 1.57192ZM0.0370788 1.41281L-0.419062 1.20803L-0.44402 1.26362L-0.454895 1.32358L0.0370788 1.41281ZM0.208883 1.03013L0.665023 1.23491L0.714202 1.12537L0.708273 1.00544L0.208883 1.03013ZM0.203388 0.918992L0.702778 0.894302L0.700081 0.839742L0.685665 0.787051L0.203388 0.918992ZM0 0.17556L-0.481303 0.0401071L-0.518891 0.173669L-0.482277 0.307502L0 0.17556ZM0.0343524 0.0534969L-0.328099 -0.290929L-0.413403 -0.201161L-0.44695 -0.0819564L0.0343524 0.0534969ZM0.0851889 0L0.318927 -0.442003L-0.0161537 -0.619199L-0.277262 -0.344426L0.0851889 0ZM0.383455 0.157728L0.876447 0.0743106L0.835287 -0.168943L0.617193 -0.284275L0.383455 0.157728ZM0.417807 0.360749L0.895397 0.508761L0.93069 0.394883L0.9108 0.277331L0.417807 0.360749ZM0.276245 0.817524L-0.201345 0.669511L-0.24811 0.820407L-0.199688 0.97078L0.276245 0.817524ZM0.37385 1.12063L-0.102084 1.27389L-0.0844067 1.32878L-0.0546969 1.37821L0.37385 1.12063ZM0.505764 1.3401L0.977377 1.50618L1.05554 1.28422L0.934311 1.08252L0.505764 1.3401ZM0.909856 1.89152L1.18522 2.30886L1.29833 2.23423L1.35827 2.11271L0.909856 1.89152ZM0.828778 1.94502L0.688247 2.42487L0.910684 2.49001L1.10415 2.36236L0.828778 1.94502ZM0.55249 1.8641L0.153913 1.56222L-0.283838 2.14017L0.41196 2.34395L0.55249 1.8641ZM0.684447 1.68988L0.44589 1.25046L0.351036 1.30196L0.28587 1.388L0.684447 1.68988ZM0.777899 1.63915L0.691374 1.14669L0.611031 1.16081L0.539342 1.19973L0.777899 1.63915ZM0.902977 1.61717L1.23852 1.24649L1.05726 1.08241L0.816451 1.12472L0.902977 1.61717ZM0.962077 1.67067L1.46137 1.69731L1.47404 1.45968L1.29762 1.29998L0.962077 1.67067ZM0.955198 1.7996L1.40362 2.02078L1.44902 1.92873L1.45449 1.82624L0.955198 1.7996ZM0.461807 1.46493L0.170481 1.05857L-0.166248 1.29997L0.125078 1.70633L0.416404 2.1127L0.753133 1.87129L0.461807 1.46493ZM0.125078 1.70633L0.502413 1.37828L0.385556 1.24387L0.00822108 1.57192L-0.369114 1.89998L-0.252257 2.03439L0.125078 1.70633ZM0.00822108 1.57192L0.500195 1.66115L0.529052 1.50204L0.0370788 1.41281L-0.454895 1.32358L-0.483753 1.48269L0.00822108 1.57192ZM0.0370788 1.41281L0.493219 1.6176L0.665023 1.23491L0.208883 1.03013L-0.247258 0.825348L-0.419062 1.20803L0.0370788 1.41281ZM0.208883 1.03013L0.708273 1.00544L0.702778 0.894302L0.203388 0.918992L-0.296002 0.943682L-0.290507 1.05482L0.208883 1.03013ZM0.203388 0.918992L0.685665 0.787051L0.482277 0.043619L0 0.17556L-0.482277 0.307502L-0.278889 1.05093L0.203388 0.918992ZM0 0.17556L0.481303 0.311014L0.515655 0.18895L0.0343524 0.0534969L-0.44695 -0.0819564L-0.481303 0.0401071L0 0.17556ZM0.0343524 0.0534969L0.396803 0.397923L0.44764 0.344426L0.0851889 0L-0.277262 -0.344426L-0.328099 -0.290929L0.0343524 0.0534969ZM0.0851889 0L-0.14855 0.442003L0.149716 0.599731L0.383455 0.157728L0.617193 -0.284275L0.318927 -0.442003L0.0851889 0ZM0.383455 0.157728L-0.109538 0.241146L-0.0751851 0.444166L0.417807 0.360749L0.9108 0.277331L0.876447 0.0743106L0.383455 0.157728ZM0.417807 0.360749L-0.0597827 0.212736L-0.201345 0.669511L0.276245 0.817524L0.753835 0.965537L0.895397 0.508761L0.417807 0.360749ZM0.276245 0.817524L-0.199688 0.97078L-0.102084 1.27389L0.37385 1.12063L0.849783 0.967375L0.752178 0.664267L0.276245 0.817524ZM0.37385 1.12063L-0.0546969 1.37821L0.077218 1.59768L0.505764 1.3401L0.934311 1.08252L0.802396 0.86305L0.37385 1.12063ZM0.505764 1.3401L0.0341524 1.17402L-0.00980521 1.29885L0.461807 1.46493L0.933419 1.63101L0.977377 1.50618L0.505764 1.3401ZM0.909856 1.89152L0.634488 1.47418L0.553409 1.52768L0.828778 1.94502L1.10415 2.36236L1.18522 2.30886L0.909856 1.89152ZM0.828778 1.94502L0.969308 1.46518L0.693021 1.38426L0.55249 1.8641L0.41196 2.34395L0.688247 2.42487L0.828778 1.94502ZM0.55249 1.8641L0.951068 2.16599L1.08302 1.99177L0.684447 1.68988L0.28587 1.388L0.153913 1.56222L0.55249 1.8641ZM0.684447 1.68988L0.923005 2.1293L1.01646 2.07857L0.777899 1.63915L0.539342 1.19973L0.44589 1.25046L0.684447 1.68988ZM0.777899 1.63915L0.864425 2.13161L0.989503 2.10963L0.902977 1.61717L0.816451 1.12472L0.691374 1.14669L0.777899 1.63915ZM0.902977 1.61717L0.567431 1.98786L0.62653 2.04136L0.962077 1.67067L1.29762 1.29998L1.23852 1.24649L0.902977 1.61717ZM0.962077 1.67067L0.462787 1.64403L0.455908 1.77296L0.955198 1.7996L1.45449 1.82624L1.46137 1.69731L0.962077 1.67067ZM0.955198 1.7996L0.50678 1.57842L0.461438 1.67034L0.909856 1.89152L1.35827 2.11271L1.40362 2.02078L0.955198 1.7996Z" fill="var(--stroke-0, white)" mask="url(#path-1-inside-1_0_57)"/>
</g>
</svg>
