<svg preserveAspectRatio="none" width="100%" height="100%" overflow="visible" style="display: block;" viewBox="0 0 1 2" fill="none" xmlns="http://www.w3.org/2000/svg"><g id="PM"><mask id="path-1-inside-1_0_57" fill="white"><path d="M0 2L0 2L0 2L0 1L0 1L0 1L0 0L0 0L0 0L0 0L0 0L0 1L0 1L0 1L0 2ZM1 2L1 2L1 2L1 2L1 2L1 2L1 2L1 2L1 2Z"/></mask><path d="M0 2L0 2L0 2L0 1L0 1L0 1L0 0L0 0L0 0L0 0L0 0L0 1L0 1L0 1L0 2ZM1 2L1 2L1 2L1 2L1 2L1 2L1 2L1 2L1 2Z" fill="var(--fill-0,#71B219)"/><path d="M0 2L1 2L1 2L1 2L0 2ZM0 2L0 2L0 2L0 2L0 2ZM0 2L0 2L0 2L0 2L0 2ZM0 1L0 1L0 1L0 1L0 1ZM0 1L1 1L1 1L1 1L0 1ZM0 1L1 1L1 1L1 1L0 1ZM0 0L0 0L0 0L0 0L0 0ZM0 0L0 0L0 0L0 0L0 0ZM0 0L0 0L0 -1L0 0L0 0ZM0 0L1 0L1 0L1 0L0 0ZM0 0L1 0L1 0L1 0L0 0ZM0 1L0 1L0 1L0 1L0 1ZM0 1L0 1L0 1L0 1L0 1ZM0 1L1 2L1 1L1 1L0 1ZM1 2L1 2L1 2L1 2L1 2ZM1 2L1 2L1 2L1 2L1 2ZM1 2L0 2L0 2L0 2L1 2ZM1 2L0 1L0 1L0 1L1 2ZM1 2L1 1L1 1L0 1L1 2ZM1 2L1 1L1 1L1 1L1 2ZM1 2L2 2L2 2L1 1L1 2ZM1 2L1 2L1 2L2 2L1 2ZM0 2L0 1L0 1L0 2L0 2L1 2L0 2ZM0 2L0 1L0 1L0 2L0 2L0 2L0 2ZM0 2L0 2L0 2L0 1L0 1L0 2L0 2ZM0 1L0 2L1 1L0 1L0 1L0 1L0 1ZM0 1L1 1L1 1L0 1L0 1L0 1L0 1ZM0 1L1 1L0 0L0 0L0 0L0 1L0 1ZM0 0L0 0L0 0L0 0L0 0L0 0L0 0ZM0 0L0 0L0 0L0 0L0 0L0 0L0 0ZM0 0L0 0L0 1L0 0L1 0L0 0L0 0ZM0 0L0 0L0 0L0 0L1 0L1 0L0 0ZM0 0L0 0L0 1L0 1L1 1L1 0L0 0ZM0 1L0 1L0 1L0 1L1 1L1 1L0 1ZM0 1L0 1L0 2L0 1L1 1L1 1L0 1ZM0 1L0 1L0 1L0 2L1 2L1 2L0 1ZM1 2L1 2L1 2L1 2L1 2L1 2L1 2ZM1 2L1 2L1 1L1 2L0 2L1 2L1 2ZM1 2L1 2L1 2L1 2L0 1L0 2L1 2ZM1 2L1 2L1 2L1 2L0 1L0 1L1 2ZM1 2L1 2L1 2L1 2L1 1L1 1L1 2ZM1 2L1 2L1 2L1 2L1 1L1 1L1 2ZM1 2L0 2L0 2L1 2L2 2L2 2L1 2ZM1 2L0 2L0 2L1 2L1 2L1 2L1 2Z" fill="var(--stroke-0,white)" mask="url(#path-1-inside-1_0_57)"/></g></svg>