<svg preserveAspectRatio="none" width="100%" height="100%" overflow="visible" style="display: block;" viewBox="0 0 0.233856 0.378105" fill="none" xmlns="http://www.w3.org/2000/svg">
<g id="PN">
<mask id="path-1-inside-1_0_55" fill="white">
<path d="M0.233856 0.314369L0.195102 0.378105L0.114848 0.32409L0.031829 0.200844L0 0.0720199L0.0774875 0L0.181272 0.0429414L0.23108 0.175908L0.233856 0.314369Z"/>
</mask>
<path d="M0.233856 0.314369L0.195102 0.378105L0.114848 0.32409L0.031829 0.200844L0 0.0720199L0.0774875 0L0.181272 0.0429414L0.23108 0.175908L0.233856 0.314369Z" fill="var(--fill-0, #71B219)"/>
<path d="M0.233856 0.314369L0.661079 0.574139L0.736673 0.449816L0.733755 0.304344L0.233856 0.314369ZM0.195102 0.378105L-0.0840802 0.792903L0.350294 1.08526L0.622324 0.637875L0.195102 0.378105ZM0.114848 0.32409L-0.299843 0.60343L-0.24531 0.684386L-0.164334 0.738888L0.114848 0.32409ZM0.031829 0.200844L-0.453575 0.320774L-0.432335 0.406741L-0.382862 0.480185L0.031829 0.200844ZM0 0.0720199L-0.340396 -0.294218L-0.556009 -0.0938189L-0.485404 0.19195L0 0.0720199ZM0.0774875 0L0.268648 -0.462015L-0.0278639 -0.584698L-0.262909 -0.366238L0.0774875 0ZM0.181272 0.0429414L0.6495 -0.13245L0.573261 -0.335979L0.372433 -0.419073L0.181272 0.0429414ZM0.23108 0.175908L0.730979 0.165884L0.729267 0.0804949L0.699308 0.000515937L0.23108 0.175908ZM0.233856 0.314369L-0.193367 0.054598L-0.232121 0.118334L0.195102 0.378105L0.622324 0.637875L0.661079 0.574139L0.233856 0.314369ZM0.195102 0.378105L0.474284 -0.0366936L0.39403 -0.0907085L0.114848 0.32409L-0.164334 0.738888L-0.0840802 0.792903L0.195102 0.378105ZM0.114848 0.32409L0.52954 0.0447493L0.44652 -0.0784961L0.031829 0.200844L-0.382862 0.480185L-0.299843 0.60343L0.114848 0.32409ZM0.031829 0.200844L0.517233 0.0809142L0.485404 -0.0479101L0 0.0720199L-0.485404 0.19195L-0.453575 0.320774L0.031829 0.200844ZM0 0.0720199L0.340396 0.438258L0.417884 0.366238L0.0774875 0L-0.262909 -0.366238L-0.340396 -0.294218L0 0.0720199ZM0.0774875 0L-0.113673 0.462015L-0.00988877 0.504956L0.181272 0.0429414L0.372433 -0.419073L0.268648 -0.462015L0.0774875 0ZM0.181272 0.0429414L-0.286956 0.218333L-0.237149 0.3513L0.23108 0.175908L0.699308 0.000515937L0.6495 -0.13245L0.181272 0.0429414ZM0.23108 0.175908L-0.26882 0.185932L-0.266044 0.324393L0.233856 0.314369L0.733755 0.304344L0.730979 0.165884L0.23108 0.175908Z" fill="var(--stroke-0, white)" mask="url(#path-1-inside-1_0_55)"/>
</g>
</svg>
