<svg preserveAspectRatio="none" width="100%" height="100%" overflow="visible" style="display: block;" viewBox="0 0 10 2" fill="none" xmlns="http://www.w3.org/2000/svg"><path id="PR" d="M4 0L4 0H4L7 0L7 0L7 0L7 0L7 0L7 1L7 1L7 1L7 1L8 1L8 0L8 1L8 1L8 1L8 1L9 1L9 1L8 1L8 1L8 1L8 1L8 1L8 1L8 2L8 2L7 2L6 2L6 2L6 2L6 2L6 2L6 2L6 2L6 2L6 2L5 2L4 2L4 2L4 2L4 2L4 2L4 2L4 2L4 2L4 2L3 2L3 2L3 2L3 2L3 1L3 1L3 1L3 1L3 1L3 1L3 1L3 1L3 1L3 0L3 0L3 0L3 0L3 0L3 0L4 0Z" fill="var(--fill-0,#71B219)" stroke="var(--stroke-0,white)" stroke-width="0"/></svg>