<svg preserveAspectRatio="none" width="100%" height="100%" overflow="visible" style="display: block;" viewBox="0 0 10.2008 2.31678" fill="none" xmlns="http://www.w3.org/2000/svg">
<path id="PR" d="M4.30762 0.367188L4.32031 0.369141H4.33203L6.72852 0.435547L6.75977 0.44043L6.79199 0.476562L6.8125 0.500977L6.83984 0.518555L6.95801 0.598633L7.03223 0.648438L7.12109 0.639648L7.23633 0.628906L7.61914 0.592773L7.57617 0.516602L7.88672 0.55957L8.33691 0.72168L8.3584 0.729492L8.38086 0.733398L8.67285 0.78125L8.68359 0.990234L8.43652 1.13867L8.41309 1.15332L8.39355 1.17188L8.14648 1.40527L8.12891 1.42285L8.11426 1.44336L7.94238 1.68848L7.49805 1.96777L6.93066 2.05762L6.53125 2.06543L6.42676 2.05859L6.30566 2.01367L6.24219 1.99023L6.17578 2.00195L5.92285 2.04492L5.59082 1.92188L5.53613 1.90137L5.47656 1.9082L5.15723 1.94141L4.50684 1.90918L4.44141 1.90625L4.38281 1.93555L4.16895 2.04199L3.99707 2.0625L3.8125 2.04395L3.63477 1.99316L3.59961 1.98242L3.56348 1.9834L3.12793 1.98633L3.19141 1.52148L3.19336 1.50781L3.19434 1.49414L3.20117 1.20605L3.20215 1.14258L3.17285 1.08594L3.05078 0.847656L3.03613 0.818359L3.01367 0.793945L2.94531 0.717773L2.9502 0.71582L2.97461 0.69043L3.13477 0.520508L3.18457 0.467773L3.19922 0.397461L3.22168 0.279297L3.24219 0.272461L3.38965 0.251953L4.30762 0.367188Z" fill="var(--fill-0, #71B219)" stroke="var(--stroke-0, white)" stroke-width="0.5"/>
</svg>
