<svg preserveAspectRatio="none" width="100%" height="100%" overflow="visible" style="display: block;" viewBox="0 0 5.30327 5.97772" fill="none" xmlns="http://www.w3.org/2000/svg">
<path id="PS" d="M0.333008 5.48926L0.293945 5.52637V5.52539L0.333008 5.4873V5.48926ZM4.21191 0.34082L4.22559 0.344727L4.24023 0.345703L4.38086 0.361328L4.41211 0.457031L4.4375 0.536133L4.50586 0.583984L4.82031 0.806641L4.87305 0.84375L4.9375 0.850586L4.99609 0.856445L5.0498 1.3291L4.91602 1.89844L4.90918 1.92383V1.95117L4.89746 2.48047V2.49609L4.89941 2.51172L4.99609 3.42383L4.80469 3.77539L4.79004 3.80273L4.78223 3.83203L4.65137 4.32715L4.64844 4.33984L4.64648 4.35254L4.625 4.49121L4.55762 4.52637L4.06348 4.78711L3.43164 5.02539L2.88867 5.07422L3.05859 4.58789L3.06152 4.58105L3.06348 4.57422L3.12891 4.34277L3.38281 4.09277L3.79395 3.84473L3.9668 3.78223L4.16699 3.70996L4.12793 3.50098L4.10547 3.38379L4.08691 3.2793L3.99902 3.2207L3.72461 3.03906L3.69727 3.01953L3.66504 3.00977L3.37891 2.91504L3.29785 2.8877L3.29297 2.88867L3.29883 2.86328L3.30664 2.82324L3.30176 2.78223L3.25977 2.42773L3.23145 2.01074V1.99707L3.22852 1.9834L3.17969 1.70801L3.33105 1.22363L3.33594 1.20703L3.33887 1.19043L3.37695 0.957031L3.55078 0.498047L3.88965 0.267578L4.21191 0.34082Z" fill="var(--fill-0, #71B219)" stroke="var(--stroke-0, white)" stroke-width="0.5"/>
</svg>
