<svg preserveAspectRatio="none" width="100%" height="100%" overflow="visible" style="display: block;" viewBox="0 0 5 6" fill="none" xmlns="http://www.w3.org/2000/svg"><path id="PS" d="M0 6L0 6V6L0 6V6ZM4 0L4 0L4 0L4 0L4 0L4 0L4 1L5 1L5 1L5 1L5 1L5 1L5 2L5 2V2L5 2V2L5 2L5 3L5 4L5 4L5 4L5 4L5 4L5 4L5 4L5 4L4 5L3 5L3 5L3 5L3 5L3 5L3 4L3 4L4 4L4 4L4 4L4 4L4 3L4 3L4 3L4 3L4 3L4 3L3 3L3 3L3 3L3 3L3 3L3 3L3 2L3 2V2L3 2L3 2L3 1L3 1L3 1L3 1L4 0L4 0L4 0Z" fill="var(--fill-0,#71B219)" stroke="var(--stroke-0,white)" stroke-width="0"/></svg>