<svg preserveAspectRatio="none" width="100%" height="100%" overflow="visible" style="display: block;" viewBox="0 0 97 46" fill="none" xmlns="http://www.w3.org/2000/svg"><g id="PT"><mask id="path-1-inside-1_0_85" fill="white"><path d="M54 45L55 45L55 45L56 45L56 45L56 46L56 46L55 46L54 46L54 45L54 45L54 45ZM24 26L24 26L24 26L24 26L24 26L24 26L24 26L24 26L24 26ZM22 22L22 22L23 22L24 22L24 22L23 22L23 22L21 22L21 22L21 21L21 21L21 21L22 22ZM12 18L12 19L12 19L12 19L11 19L11 19L11 18L11 18L11 18L11 18L12 18ZM10 18L10 18L9 18L10 18L10 18L10 18L10 18L10 18ZM14 18L13 18L12 18L12 18L12 17L13 18L14 18ZM16 18L16 18L15 18L15 17L15 17L15 17L16 17L16 17L16 17V17L16 18ZM1 14L0 14L0 14L0 14L0 13L0 13L1 14L1 14ZM89 2L89 2L90 2L90 2L90 1L90 1L91 1L91 1L91 2L92 2L92 2L93 1L93 1L93 1L93 1L93 1L93 1L93 1L94 1L94 1L94 1L95 1L95 1L95 1L95 1L96 1L96 2L96 2L96 2L96 2L96 2L96 3L97 3L97 3L97 3L97 3L96 4L96 4L95 4L95 5L95 5L94 6L94 6L94 6L94 6L94 7L94 8L94 8L94 8L94 9L94 9L94 9L94 9L94 9L94 10L94 10L94 10L94 10L94 11L94 11L94 11L94 12L94 12L94 12L93 12L92 12L92 13L92 13L92 13L92 14L92 14L93 14L93 15L94 15L94 16L94 16L94 16L93 17L93 17L93 17L93 18L93 18L92 18L92 18L93 20L94 20L94 20L94 20L94 20L94 21L93 21L93 21L92 22L92 22L92 23L92 23L92 24L92 25L92 25L90 26L90 26L89 25L88 25L88 25L87 25L87 25L86 26L86 25L86 25L87 24L87 23L87 22L87 21L86 21L87 20L87 19L86 19L87 19L87 18L87 18L87 18L86 18L86 18L85 19L85 19L85 18L85 18L85 17L86 17L86 17L86 17L86 16L86 16L87 16L86 16L86 16L86 17L86 17L85 17L85 17L84 17L84 17L84 17L84 17L84 16L84 15L85 15L85 14L85 14L85 14L85 14L86 13L86 12L87 10L87 10L86 10L86 10L87 8L87 8L87 7L87 6L87 6L87 5L87 5L87 4L87 3L87 2L87 2L87 2L86 2L86 2L87 1L87 1L88 0L88 0L89 0L89 0L89 0L89 0L89 0L89 0L89 1L89 1L89 1L89 2L89 2Z"/></mask><path d="M54 45L55 45L55 45L56 45L56 45L56 46L56 46L55 46L54 46L54 45L54 45L54 45ZM24 26L24 26L24 26L24 26L24 26L24 26L24 26L24 26L24 26ZM22 22L22 22L23 22L24 22L24 22L23 22L23 22L21 22L21 22L21 21L21 21L21 21L22 22ZM12 18L12 19L12 19L12 19L11 19L11 19L11 18L11 18L11 18L11 18L12 18ZM10 18L10 18L9 18L10 18L10 18L10 18L10 18L10 18ZM14 18L13 18L12 18L12 18L12 17L13 18L14 18ZM16 18L16 18L15 18L15 17L15 17L15 17L16 17L16 17L16 17V17L16 18ZM1 14L0 14L0 14L0 14L0 13L0 13L1 14L1 14ZM89 2L89 2L90 2L90 2L90 1L90 1L91 1L91 1L91 2L92 2L92 2L93 1L93 1L93 1L93 1L93 1L93 1L93 1L94 1L94 1L94 1L95 1L95 1L95 1L95 1L96 1L96 2L96 2L96 2L96 2L96 2L96 3L97 3L97 3L97 3L97 3L96 4L96 4L95 4L95 5L95 5L94 6L94 6L94 6L94 6L94 7L94 8L94 8L94 8L94 9L94 9L94 9L94 9L94 9L94 10L94 10L94 10L94 10L94 11L94 11L94 11L94 12L94 12L94 12L93 12L92 12L92 13L92 13L92 13L92 14L92 14L93 14L93 15L94 15L94 16L94 16L94 16L93 17L93 17L93 17L93 18L93 18L92 18L92 18L93 20L94 20L94 20L94 20L94 20L94 21L93 21L93 21L92 22L92 22L92 23L92 23L92 24L92 25L92 25L90 26L90 26L89 25L88 25L88 25L87 25L87 25L86 26L86 25L86 25L87 24L87 23L87 22L87 21L86 21L87 20L87 19L86 19L87 19L87 18L87 18L87 18L86 18L86 18L85 19L85 19L85 18L85 18L85 17L86 17L86 17L86 17L86 16L86 16L87 16L86 16L86 16L86 17L86 17L85 17L85 17L84 17L84 17L84 17L84 17L84 16L84 15L85 15L85 14L85 14L85 14L85 14L86 13L86 12L87 10L87 10L86 10L86 10L87 8L87 8L87 7L87 6L87 6L87 5L87 5L87 4L87 3L87 2L87 2L87 2L86 2L86 2L87 1L87 1L88 0L88 0L89 0L89 0L89 0L89 0L89 0L89 0L89 1L89 1L89 1L89 2L89 2Z" fill="var(--fill-0,#71B219)" stroke="var(--stroke-0,white)" mask="url(#path-1-inside-1_0_85)"/></g></svg>