<svg preserveAspectRatio="none" width="100%" height="100%" overflow="visible" style="display: block;" viewBox="0 0 96.7979 45.9083" fill="none" xmlns="http://www.w3.org/2000/svg">
<g id="PT">
<mask id="path-1-inside-1_0_85" fill="white">
<path d="M54.4086 44.9028L54.9355 45.1429L55.4198 45.0277L56.0196 45.3363L56.3319 45.4076L56.054 45.6285L55.7747 45.9083L55.0772 45.8425L54.4871 45.5736L54.2752 45.3692L54.2174 45.1854L54.4086 44.9028ZM24.1517 25.775L24.1351 25.8628L23.9164 25.8285L23.6399 25.8545L23.4913 25.5994L23.6261 25.4938L23.9371 25.4677L24.0856 25.5816L24.1517 25.775ZM21.7524 21.5242L21.9973 21.5571L23.2285 21.4858L23.556 21.5379L23.5216 21.8945L23.2891 22.0372L22.5641 22.1332L21.4237 21.9028L21.0412 21.5955L20.9862 21.3706L20.993 21.2649L21.2338 21.1813L21.7524 21.5242ZM12.1075 18.5422L12.4252 18.7383L11.9424 18.7809L11.7828 18.8769L11.3921 18.7383L10.9202 18.7589L10.6245 18.4955L10.557 18.2212L10.7056 18.0511L11.1225 18.0497L12.1075 18.5422ZM10.1994 18.1883L9.80316 18.2006L9.42485 17.8275L9.982 17.6314L10.1457 17.7507L10.2668 17.8865L10.3383 18.0607L10.1994 18.1883ZM13.5313 18.0374L13.3484 18.0964L12.3193 17.7192L11.952 17.5477L11.476 17.1129L12.8201 17.641L13.5313 18.0374ZM16.2455 17.6067L16.1685 17.6533L15.3665 17.5203L15.1381 17.3406L15.0459 17.0059L15.1807 16.8921L15.5329 16.8248L16.0447 16.888L16.3735 17.128V17.4339L16.2455 17.6067ZM0.562654 13.8388L0.392036 14.0774L0.097652 13.9924L0 13.9032L0.0852671 13.393L0.320539 13.2736L0.557154 13.4794L0.562654 13.8388ZM89.2233 1.6474L89.3045 1.68854L89.5287 1.67754L89.9277 1.48276L90.1987 1.31955L90.2936 1.38678L91.0791 1.29485L91.2648 1.36894L91.3887 1.45258L91.7752 1.56506L92.1962 1.57741L92.7176 1.41968L92.9459 1.26057L92.99 1.08501L93.001 0.951936L93.0684 0.866919L93.1867 0.818905L93.3724 0.905304L93.6379 0.975252L94.2749 1.00405L94.4001 0.906686L94.616 0.935485L94.9008 1.05893L95.2296 1.01916L95.3961 1.17003L95.4648 1.37028L95.4841 1.80512L95.4593 2.24407L95.524 2.4059L95.7469 2.44843L96.1059 2.44294L96.4292 2.56091L96.6796 2.76803L96.7621 2.97925L96.7979 3.12467L96.6754 3.20697L96.5021 3.51971L96.0619 3.92709L95.4332 4.29332L94.9531 4.74871L94.6229 5.29189L94.2088 5.52233L94.0822 5.64577L94.0327 5.79253L94.3065 6.45643L94.3904 6.96808L94.4578 7.59355L94.4138 7.76912L94.3904 8.45495L94.3271 8.65521L94.3436 8.81846L94.4441 8.99264L94.4895 9.15999L94.301 9.3726L93.9557 9.61949L93.6998 9.83624L93.631 10.0392L93.6503 10.1654L94.0809 10.5947L94.1593 10.7703L94.1015 11.1942L93.8539 11.8869L93.6173 12.3079L93.576 12.3491L93.305 12.4684L92.0063 12.4726L91.6913 12.5672L91.7353 12.6522L92.0407 13.1927L92.3585 13.4794L92.4644 13.5452L92.5786 14.1748L93.0945 15.1789L93.5939 15.3174L93.7672 15.5684L93.7356 15.9196L93.5815 16.305L93.2747 16.7001L92.9102 16.9771L92.6722 17.2528L92.6529 17.5724L92.5772 17.9771L92.463 18.2967L92.4342 18.512L93.3476 19.8631L93.8566 19.7973L93.9227 19.8288L93.8319 20.1498L93.6709 20.5256L93.4783 20.5969L93.0422 20.7122L92.6295 21.1977L92.2952 21.7807L92.0435 22.0632L91.8137 22.7546L91.8426 23.0536L91.954 23.5145L92.1893 24.7133L91.8509 24.7668L90.5357 25.5473L90.1285 25.5487L89.3677 25.2057L88.0251 25.0946L87.5876 24.9917L87.0415 25.2167L86.6191 25.2112L86.2835 25.4979L86.0427 25.4197L86.3192 24.7764L86.7525 23.5007L86.7347 22.7203L86.8379 22.0399L86.7195 21.3651L86.5022 20.9426L86.798 19.8466L86.7649 19.2801L86.4939 18.5614L87.3152 18.6711L87.0607 18.3858L86.8104 18.2116L86.5682 18.2514L86.3632 18.2404L85.6644 18.5189L85.3136 18.6025L85.2118 18.5531L85.2503 18.1087L85.0687 17.5313L85.3494 17.379L85.6754 17.3351L85.9533 17.0882L86.1252 16.8125L86.0345 16.3201L86.2752 15.8523L86.8406 15.4559L86.5476 15.5163L86.2119 15.7632L85.6837 16.6575L85.5117 17.1102L85.0619 17.2569L84.6588 17.3296L84.4524 17.2816L84.2048 17.1678L84.1828 16.8345L84.202 16.5684L84.3699 16.0389L84.4359 15.29L84.6739 14.6179L84.656 14.4382L84.5886 14.1707L84.8005 13.9087L85.0632 13.7359L85.4622 13.157L86.0193 11.773L86.6618 10.2957L86.6095 10.1147L86.4733 9.97476L86.5283 9.57424L86.9149 7.8281L87.0717 7.59904L87.2533 7.08466L87.2946 6.25341L87.3661 5.68005L87.3496 5.39202L87.2919 5.045L87.0456 4.3811L86.787 2.97377L86.7663 2.50192L86.9795 2.26324L86.6287 2.22896L86.4692 1.92309L86.5049 1.57607L86.8956 1.01502L87.2602 0.666619L87.6206 0.438943L87.8201 0.352544L88.6524 0.11524L88.8711 0L89.0761 0.0192137L89.1105 0.133073L89.2288 0.352544L89.3609 0.504789L89.3967 0.617266L89.0747 1.08773L89.0307 1.24822L89.1985 1.55137L89.2233 1.6474Z"/>
</mask>
<path d="M54.4086 44.9028L54.9355 45.1429L55.4198 45.0277L56.0196 45.3363L56.3319 45.4076L56.054 45.6285L55.7747 45.9083L55.0772 45.8425L54.4871 45.5736L54.2752 45.3692L54.2174 45.1854L54.4086 44.9028ZM24.1517 25.775L24.1351 25.8628L23.9164 25.8285L23.6399 25.8545L23.4913 25.5994L23.6261 25.4938L23.9371 25.4677L24.0856 25.5816L24.1517 25.775ZM21.7524 21.5242L21.9973 21.5571L23.2285 21.4858L23.556 21.5379L23.5216 21.8945L23.2891 22.0372L22.5641 22.1332L21.4237 21.9028L21.0412 21.5955L20.9862 21.3706L20.993 21.2649L21.2338 21.1813L21.7524 21.5242ZM12.1075 18.5422L12.4252 18.7383L11.9424 18.7809L11.7828 18.8769L11.3921 18.7383L10.9202 18.7589L10.6245 18.4955L10.557 18.2212L10.7056 18.0511L11.1225 18.0497L12.1075 18.5422ZM10.1994 18.1883L9.80316 18.2006L9.42485 17.8275L9.982 17.6314L10.1457 17.7507L10.2668 17.8865L10.3383 18.0607L10.1994 18.1883ZM13.5313 18.0374L13.3484 18.0964L12.3193 17.7192L11.952 17.5477L11.476 17.1129L12.8201 17.641L13.5313 18.0374ZM16.2455 17.6067L16.1685 17.6533L15.3665 17.5203L15.1381 17.3406L15.0459 17.0059L15.1807 16.8921L15.5329 16.8248L16.0447 16.888L16.3735 17.128V17.4339L16.2455 17.6067ZM0.562654 13.8388L0.392036 14.0774L0.097652 13.9924L0 13.9032L0.0852671 13.393L0.320539 13.2736L0.557154 13.4794L0.562654 13.8388ZM89.2233 1.6474L89.3045 1.68854L89.5287 1.67754L89.9277 1.48276L90.1987 1.31955L90.2936 1.38678L91.0791 1.29485L91.2648 1.36894L91.3887 1.45258L91.7752 1.56506L92.1962 1.57741L92.7176 1.41968L92.9459 1.26057L92.99 1.08501L93.001 0.951936L93.0684 0.866919L93.1867 0.818905L93.3724 0.905304L93.6379 0.975252L94.2749 1.00405L94.4001 0.906686L94.616 0.935485L94.9008 1.05893L95.2296 1.01916L95.3961 1.17003L95.4648 1.37028L95.4841 1.80512L95.4593 2.24407L95.524 2.4059L95.7469 2.44843L96.1059 2.44294L96.4292 2.56091L96.6796 2.76803L96.7621 2.97925L96.7979 3.12467L96.6754 3.20697L96.5021 3.51971L96.0619 3.92709L95.4332 4.29332L94.9531 4.74871L94.6229 5.29189L94.2088 5.52233L94.0822 5.64577L94.0327 5.79253L94.3065 6.45643L94.3904 6.96808L94.4578 7.59355L94.4138 7.76912L94.3904 8.45495L94.3271 8.65521L94.3436 8.81846L94.4441 8.99264L94.4895 9.15999L94.301 9.3726L93.9557 9.61949L93.6998 9.83624L93.631 10.0392L93.6503 10.1654L94.0809 10.5947L94.1593 10.7703L94.1015 11.1942L93.8539 11.8869L93.6173 12.3079L93.576 12.3491L93.305 12.4684L92.0063 12.4726L91.6913 12.5672L91.7353 12.6522L92.0407 13.1927L92.3585 13.4794L92.4644 13.5452L92.5786 14.1748L93.0945 15.1789L93.5939 15.3174L93.7672 15.5684L93.7356 15.9196L93.5815 16.305L93.2747 16.7001L92.9102 16.9771L92.6722 17.2528L92.6529 17.5724L92.5772 17.9771L92.463 18.2967L92.4342 18.512L93.3476 19.8631L93.8566 19.7973L93.9227 19.8288L93.8319 20.1498L93.6709 20.5256L93.4783 20.5969L93.0422 20.7122L92.6295 21.1977L92.2952 21.7807L92.0435 22.0632L91.8137 22.7546L91.8426 23.0536L91.954 23.5145L92.1893 24.7133L91.8509 24.7668L90.5357 25.5473L90.1285 25.5487L89.3677 25.2057L88.0251 25.0946L87.5876 24.9917L87.0415 25.2167L86.6191 25.2112L86.2835 25.4979L86.0427 25.4197L86.3192 24.7764L86.7525 23.5007L86.7347 22.7203L86.8379 22.0399L86.7195 21.3651L86.5022 20.9426L86.798 19.8466L86.7649 19.2801L86.4939 18.5614L87.3152 18.6711L87.0607 18.3858L86.8104 18.2116L86.5682 18.2514L86.3632 18.2404L85.6644 18.5189L85.3136 18.6025L85.2118 18.5531L85.2503 18.1087L85.0687 17.5313L85.3494 17.379L85.6754 17.3351L85.9533 17.0882L86.1252 16.8125L86.0345 16.3201L86.2752 15.8523L86.8406 15.4559L86.5476 15.5163L86.2119 15.7632L85.6837 16.6575L85.5117 17.1102L85.0619 17.2569L84.6588 17.3296L84.4524 17.2816L84.2048 17.1678L84.1828 16.8345L84.202 16.5684L84.3699 16.0389L84.4359 15.29L84.6739 14.6179L84.656 14.4382L84.5886 14.1707L84.8005 13.9087L85.0632 13.7359L85.4622 13.157L86.0193 11.773L86.6618 10.2957L86.6095 10.1147L86.4733 9.97476L86.5283 9.57424L86.9149 7.8281L87.0717 7.59904L87.2533 7.08466L87.2946 6.25341L87.3661 5.68005L87.3496 5.39202L87.2919 5.045L87.0456 4.3811L86.787 2.97377L86.7663 2.50192L86.9795 2.26324L86.6287 2.22896L86.4692 1.92309L86.5049 1.57607L86.8956 1.01502L87.2602 0.666619L87.6206 0.438943L87.8201 0.352544L88.6524 0.11524L88.8711 0L89.0761 0.0192137L89.1105 0.133073L89.2288 0.352544L89.3609 0.504789L89.3967 0.617266L89.0747 1.08773L89.0307 1.24822L89.1985 1.55137L89.2233 1.6474Z" fill="var(--fill-0, #71B219)" stroke="var(--stroke-0, white)" mask="url(#path-1-inside-1_0_85)"/>
</g>
</svg>
