<svg preserveAspectRatio="none" width="100%" height="100%" overflow="visible" style="display: block;" viewBox="0 0 13.6042 18.0196" fill="none" xmlns="http://www.w3.org/2000/svg">
<g id="PW">
<mask id="path-1-inside-1_0_148" fill="white">
<path d="M13.358 1.27426L13.1241 1.35655L13.0141 1.06165L13.0512 0.718735L13.2053 0.455352L13.3745 0.371716L13.4076 0.341535L13.5726 0L13.6042 0.187909L13.5011 0.81338L13.3662 1.05617L13.358 1.27426ZM0.143077 18.0031L0.0564249 18.0196L0 18.0072L0.00688518 17.9523L0.0646536 17.8961L0.144421 17.8714L0.20496 17.8906L0.198075 17.9427L0.143077 18.0031Z"/>
</mask>
<path d="M13.358 1.27426L13.1241 1.35655L13.0141 1.06165L13.0512 0.718735L13.2053 0.455352L13.3745 0.371716L13.4076 0.341535L13.5726 0L13.6042 0.187909L13.5011 0.81338L13.3662 1.05617L13.358 1.27426ZM0.143077 18.0031L0.0564249 18.0196L0 18.0072L0.00688518 17.9523L0.0646536 17.8961L0.144421 17.8714L0.20496 17.8906L0.198075 17.9427L0.143077 18.0031Z" fill="var(--fill-0, #71B219)"/>
<path d="M13.358 1.27426L13.5239 1.74592L13.8448 1.63303L13.8577 1.29311L13.358 1.27426ZM13.1241 1.35655L12.6556 1.53129L12.8271 1.99107L13.29 1.82822L13.1241 1.35655ZM13.0141 1.06165L12.517 1.00785L12.5043 1.12551L12.5456 1.23639L13.0141 1.06165ZM13.0512 0.718735L12.6196 0.466265L12.5656 0.558592L12.5541 0.664935L13.0512 0.718735ZM13.2053 0.455352L12.9837 0.00712645L12.8494 0.0735338L12.7737 0.202882L13.2053 0.455352ZM13.3745 0.371716L13.596 0.819941L13.6593 0.788665L13.7115 0.741096L13.3745 0.371716ZM13.4076 0.341535L13.7445 0.710915L13.8158 0.645932L13.8577 0.559121L13.4076 0.341535ZM13.5726 0L14.0657 -0.0828451L13.8056 -1.631L13.1225 -0.217586L13.5726 0ZM13.6042 0.187909L14.0975 0.269237L14.1111 0.18713L14.0973 0.105064L13.6042 0.187909ZM13.5011 0.81338L13.9382 1.05616L13.9803 0.980311L13.9944 0.894708L13.5011 0.81338ZM13.3662 1.05617L12.9291 0.813391L12.8711 0.917878L12.8666 1.03732L13.3662 1.05617ZM0.143077 18.0031L0.236336 18.4943L0.400283 18.4632L0.512672 18.3399L0.143077 18.0031ZM0.0564249 18.0196L-0.0504708 18.508L0.0493219 18.5298L0.149684 18.5108L0.0564249 18.0196ZM0 18.0072L-0.496111 17.945L-0.552953 18.398L-0.106896 18.4956L0 18.0072ZM0.00688518 17.9523L-0.341827 17.594L-0.467411 17.7162L-0.489225 17.8901L0.00688518 17.9523ZM0.0646536 17.8961L-0.083229 17.4185L-0.197974 17.454L-0.284058 17.5378L0.0646536 17.8961ZM0.144421 17.8714L0.295674 17.3948L0.146272 17.3474L-0.00346159 17.3938L0.144421 17.8714ZM0.20496 17.8906L0.700653 17.9561L0.755524 17.5408L0.356213 17.4141L0.20496 17.8906ZM0.198075 17.9427L0.56767 18.2795L0.673238 18.1636L0.693768 18.0082L0.198075 17.9427ZM13.358 1.27426L13.1921 0.802594L12.9582 0.88489L13.1241 1.35655L13.29 1.82822L13.5239 1.74592L13.358 1.27426ZM13.1241 1.35655L13.5926 1.18182L13.4826 0.886916L13.0141 1.06165L12.5456 1.23639L12.6556 1.53129L13.1241 1.35655ZM13.0141 1.06165L13.5112 1.11545L13.5483 0.772534L13.0512 0.718735L12.5541 0.664935L12.517 1.00785L13.0141 1.06165ZM13.0512 0.718735L13.4828 0.971204L13.6369 0.707822L13.2053 0.455352L12.7737 0.202882L12.6196 0.466265L13.0512 0.718735ZM13.2053 0.455352L13.4269 0.903578L13.596 0.819941L13.3745 0.371716L13.1529 -0.0765096L12.9837 0.00712645L13.2053 0.455352ZM13.3745 0.371716L13.7115 0.741096L13.7445 0.710915L13.4076 0.341535L13.0706 -0.0278454L13.0375 0.00233564L13.3745 0.371716ZM13.4076 0.341535L13.8577 0.559121L14.0228 0.217586L13.5726 0L13.1225 -0.217586L12.9574 0.123949L13.4076 0.341535ZM13.5726 0L13.0795 0.0828451L13.1111 0.270754L13.6042 0.187909L14.0973 0.105064L14.0657 -0.0828451L13.5726 0ZM13.6042 0.187909L13.1109 0.106581L13.0077 0.732052L13.5011 0.81338L13.9944 0.894708L14.0975 0.269237L13.6042 0.187909ZM13.5011 0.81338L13.064 0.570604L12.9291 0.813391L13.3662 1.05617L13.8033 1.29894L13.9382 1.05616L13.5011 0.81338ZM13.3662 1.05617L12.8666 1.03732L12.8584 1.25541L13.358 1.27426L13.8577 1.29311L13.8659 1.07502L13.3662 1.05617ZM0.143077 18.0031L0.0498185 17.5119L-0.036834 17.5283L0.0564249 18.0196L0.149684 18.5108L0.236336 18.4943L0.143077 18.0031ZM0.0564249 18.0196L0.163321 17.5311L0.106896 17.5188L0 18.0072L-0.106896 18.4956L-0.0504708 18.508L0.0564249 18.0196ZM0 18.0072L0.496111 18.0695L0.502996 18.0146L0.00688518 17.9523L-0.489225 17.8901L-0.496111 17.945L0 18.0072ZM0.00688518 17.9523L0.355597 18.3107L0.413365 18.2544L0.0646536 17.8961L-0.284058 17.5378L-0.341827 17.594L0.00688518 17.9523ZM0.0646536 17.8961L0.212536 18.3737L0.292303 18.349L0.144421 17.8714L-0.00346159 17.3938L-0.083229 17.4185L0.0646536 17.8961ZM0.144421 17.8714L-0.00683208 18.348L0.0537072 18.3672L0.20496 17.8906L0.356213 17.4141L0.295674 17.3948L0.144421 17.8714ZM0.20496 17.8906L-0.290733 17.8251L-0.297618 17.8773L0.198075 17.9427L0.693768 18.0082L0.700653 17.9561L0.20496 17.8906ZM0.198075 17.9427L-0.17152 17.606L-0.226518 17.6664L0.143077 18.0031L0.512672 18.3399L0.56767 18.2795L0.198075 17.9427Z" fill="var(--stroke-0, white)" mask="url(#path-1-inside-1_0_148)"/>
</g>
</svg>
