<svg preserveAspectRatio="none" width="100%" height="100%" overflow="visible" style="display: block;" viewBox="0 0 14 18" fill="none" xmlns="http://www.w3.org/2000/svg"><g id="PW"><mask id="path-1-inside-1_0_148" fill="white"><path d="M13 1L13 1L13 1L13 1L13 0L13 0L13 0L14 0L14 0L14 1L13 1L13 1ZM0 18L0 18L0 18L0 18L0 18L0 18L0 18L0 18L0 18Z"/></mask><path d="M13 1L13 1L13 1L13 1L13 0L13 0L13 0L14 0L14 0L14 1L13 1L13 1ZM0 18L0 18L0 18L0 18L0 18L0 18L0 18L0 18L0 18Z" fill="var(--fill-0,#71B219)"/><path d="M13 1L14 2L14 2L14 1L13 1ZM13 1L13 2L13 2L13 2L13 1ZM13 1L12 1L12 1L12 1L13 1ZM13 1L13 0L13 1L13 1L13 1ZM13 0L13 0L13 0L13 0L13 0ZM13 0L14 1L14 1L14 1L13 0ZM13 0L14 1L14 1L14 1L13 0ZM14 0L14 0L14 -2L13 0L14 0ZM14 0L14 0L14 0L14 0L14 0ZM14 1L14 1L14 1L14 1L14 1ZM13 1L13 1L13 1L13 1L13 1ZM0 18L0 18L0 18L0 18L0 18ZM0 18L0 18L0 18L0 18L0 18ZM0 18L0 18L-1 18L0 18L0 18ZM0 18L0 18L0 18L0 18L0 18ZM0 18L0 17L0 18L0 18L0 18ZM0 18L0 17L0 17L0 17L0 18ZM0 18L1 18L1 18L0 17L0 18ZM0 18L1 18L1 18L1 18L0 18ZM13 1L13 1L13 1L13 1L13 2L14 2L13 1ZM13 1L14 1L14 1L13 1L12 1L13 2L13 1ZM13 1L14 1L14 1L13 1L13 1L12 1L13 1ZM13 1L14 1L14 1L13 0L13 0L13 0L13 1ZM13 0L13 1L14 1L13 0L13 0L13 0L13 0ZM13 0L14 1L14 1L13 0L13 0L13 0L13 0ZM13 0L14 1L14 0L14 0L13 0L13 0L13 0ZM14 0L13 0L13 0L14 0L14 0L14 0L14 0ZM14 0L13 0L13 1L14 1L14 1L14 0L14 0ZM14 1L13 1L13 1L13 1L14 1L14 1L14 1ZM13 1L13 1L13 1L13 1L14 1L14 1L13 1ZM0 18L0 18L0 18L0 18L0 18L0 18L0 18ZM0 18L0 18L0 18L0 18L0 18L0 18L0 18ZM0 18L0 18L0 18L0 18L0 18L0 18L0 18ZM0 18L0 18L0 18L0 18L0 18L0 18L0 18ZM0 18L0 18L0 18L0 18L0 17L0 17L0 18ZM0 18L0 18L0 18L0 18L0 17L0 17L0 18ZM0 18L0 18L0 18L0 18L1 18L1 18L0 18ZM0 18L0 18L0 18L0 18L0 18L1 18L0 18Z" fill="var(--stroke-0,white)" mask="url(#path-1-inside-1_0_148)"/></g></svg>