<svg preserveAspectRatio="none" width="100%" height="100%" overflow="visible" style="display: block;" viewBox="0 0 32.4678 34.5303" fill="none" xmlns="http://www.w3.org/2000/svg">
<g id="PY">
<mask id="path-1-inside-1_0_77" fill="white">
<path d="M17.3406 3.57182L17.4259 3.86811L17.4768 4.09716L17.6048 4.25908L17.7313 4.4744L17.8593 4.59647L17.9487 4.79949L17.9226 5.02855L17.9748 5.32617L18.0381 5.58269L18.1014 5.65125L18.2857 5.71848L18.3765 5.95164L18.3105 6.0696L18.3366 6.2054L18.4027 6.33709L18.3421 6.46744L18.3738 6.5648L18.4976 6.65263L18.6132 6.97771L18.6255 7.53461L18.4976 7.83358L18.3958 8.07779L18.371 8.22723L18.4467 8.44398L18.3187 8.70184L18.1661 9.01461L18.2046 9.2327L18.2293 9.43706L18.2417 9.65515L18.2802 9.85951L18.2293 10.0776L18.1784 10.2683L18.1523 10.4864L18.2169 10.732L18.1014 10.9638L18.0381 11.1269L18.012 11.2915L18.1275 11.5508L18.4219 11.6606L18.6517 11.688L18.8677 11.5508L19.0341 11.5096L19.3409 11.6331L19.6215 11.8512L19.9792 11.8787L20.2984 11.9198L20.5405 11.9883L20.8982 11.906L21.2696 11.9883L21.7029 12.1118L22.0606 12.2202L22.4183 12.1928L22.6866 12.1804L22.9672 12.057L23.2355 12.0706L23.4391 11.8512L23.5546 11.6606L23.6564 11.5234L23.9508 11.4137L24.1544 11.4823L24.3209 11.8389L24.6139 12.0433L24.7295 12.1928L24.9455 12.2627L25.4187 12.2751L25.7131 12.2627L26.0446 12.3711H26.2606L26.4532 12.5631L26.6321 12.7949L26.6568 13.2201L26.8233 13.5493L27.0406 13.6728L27.1548 13.8786L27.1177 14.1666L27.0145 14.4546L27.0282 14.7715L27.1424 15.0595V15.3489L27.2195 15.637L27.3722 15.8852L27.4231 16.2844L27.3983 16.5738L27.5001 16.7399L27.5386 16.9744L27.474 17.1664L27.4492 17.4298L27.4616 17.6643L27.5386 17.8578L27.7684 18.106L27.8317 18.549V18.8535L27.9335 19.2129L28.1261 19.3803L28.4329 19.4351L28.7891 19.4901L29.2239 19.4077L29.6077 19.3103L29.8237 19.2129L30.2446 18.951L30.6161 18.7974L30.8073 18.7013L30.9861 18.6313L31.3562 18.7974L31.7015 19.0058L31.9684 19.2966L32.4678 19.6148L32.3701 19.693L32.172 19.955L32.1761 20.2609L32.3164 20.7012L32.1926 21.6353L31.8061 23.0646L31.6478 23.8999L31.7166 24.1372L31.5736 24.5556L31.0439 25.4554L31.0233 26.0631L30.9614 27.8915L30.7839 29.1836L30.4854 30.141L30.2144 30.6526L29.9681 30.7144L29.7934 30.868L29.6861 31.1108L29.488 31.3138L29.1964 31.477L29.0395 31.6553L29.0148 31.8487L28.7369 31.9735L28.2045 32.0298L27.8936 32.1847L27.8 32.4385L27.6226 32.6402L27.3584 32.7897L27.2346 33.0379L27.247 33.3849L27.0957 33.6812L26.7806 33.9295L26.489 33.9364L26.2235 33.7018L25.8658 33.5469L25.4187 33.4687L25.0459 33.529L24.746 33.7238L24.4805 34.0338L24.2494 34.459L23.9921 34.5303L23.7087 34.245L23.3497 34.1586L22.9163 34.271L22.5696 34.2327L22.3137 34.042L21.9189 34.0215L21.3866 34.1696L20.308 33.9981L18.6819 33.5071L17.3076 33.3205L15.6224 33.4975L15.4793 32.9872L15.5687 32.7128L15.8425 32.5057L16.0145 32.2712L16.0846 32.0092L16.2731 31.8089L16.5812 31.6718L16.7119 31.5332L16.6652 31.3919L16.7312 31.2685L16.9087 31.1602L17.0091 30.9901L17.0325 30.7582L17.0999 30.643L17.2182 30.558L17.2319 30.3961L17.1659 29.9009L17.1742 29.4936L17.2567 29.1767L17.3599 28.9861L17.4328 28.938L17.5016 28.8256L17.5277 28.6349L17.6392 28.4566L18.1771 28.0918L18.3793 27.8942L18.3972 27.7132L18.4783 27.4704L18.7975 26.9451L18.8952 26.6995L18.9034 26.5774L19.0176 26.4498L19.4028 26.1591L19.6105 25.8861L19.6436 25.6296L19.5514 25.3388L19.3326 25.0137L18.6462 24.2003L18.1124 23.8313L17.4301 23.5282L16.9816 23.4294L16.7656 23.5364L16.5469 23.4513L16.3254 23.1771L15.9512 22.9603L15.1629 22.7244L13.3731 21.7793L12.6564 21.3226L12.4157 21.0414L11.747 20.5366L10.6506 19.8096L9.81008 19.4557L9.22405 19.4749L8.28443 19.2651L6.99266 18.8234L6.24843 18.3941L6.04758 17.9798L5.5702 17.5642L4.81493 17.1486L4.42289 16.8757L4.39396 16.744L4.16973 16.5725L3.75154 16.3613L3.29204 16.0005L2.79131 15.4903L2.25616 14.7002L1.68662 13.6344L1.07581 12.9156L0.423733 12.5452L0.0963086 12.2998L0.097694 12.1804L0 12.0665L0.08808 11.8608L0.324695 11.0529L0.668618 9.88421L1.02627 8.67714L1.44589 7.2575V6.25211L1.44723 5.1959L2.04431 4.32764L2.468 3.71172L2.83531 3.12601L3.20539 2.12472L3.453 1.45806L4.39812 1.299L6.00354 0.953317L6.8042 0.78052L8.49216 0.417008L10.2077 0.0466319L12.0084 0.0233578L13.7473 0L15.0955 0.828491L16.1259 1.46225L17.2609 2.15905L17.3392 2.30991L17.4177 2.89562L17.3406 3.57182Z"/>
</mask>
<path d="M17.3406 3.57182L17.4259 3.86811L17.4768 4.09716L17.6048 4.25908L17.7313 4.4744L17.8593 4.59647L17.9487 4.79949L17.9226 5.02855L17.9748 5.32617L18.0381 5.58269L18.1014 5.65125L18.2857 5.71848L18.3765 5.95164L18.3105 6.0696L18.3366 6.2054L18.4027 6.33709L18.3421 6.46744L18.3738 6.5648L18.4976 6.65263L18.6132 6.97771L18.6255 7.53461L18.4976 7.83358L18.3958 8.07779L18.371 8.22723L18.4467 8.44398L18.3187 8.70184L18.1661 9.01461L18.2046 9.2327L18.2293 9.43706L18.2417 9.65515L18.2802 9.85951L18.2293 10.0776L18.1784 10.2683L18.1523 10.4864L18.2169 10.732L18.1014 10.9638L18.0381 11.1269L18.012 11.2915L18.1275 11.5508L18.4219 11.6606L18.6517 11.688L18.8677 11.5508L19.0341 11.5096L19.3409 11.6331L19.6215 11.8512L19.9792 11.8787L20.2984 11.9198L20.5405 11.9883L20.8982 11.906L21.2696 11.9883L21.7029 12.1118L22.0606 12.2202L22.4183 12.1928L22.6866 12.1804L22.9672 12.057L23.2355 12.0706L23.4391 11.8512L23.5546 11.6606L23.6564 11.5234L23.9508 11.4137L24.1544 11.4823L24.3209 11.8389L24.6139 12.0433L24.7295 12.1928L24.9455 12.2627L25.4187 12.2751L25.7131 12.2627L26.0446 12.3711H26.2606L26.4532 12.5631L26.6321 12.7949L26.6568 13.2201L26.8233 13.5493L27.0406 13.6728L27.1548 13.8786L27.1177 14.1666L27.0145 14.4546L27.0282 14.7715L27.1424 15.0595V15.3489L27.2195 15.637L27.3722 15.8852L27.4231 16.2844L27.3983 16.5738L27.5001 16.7399L27.5386 16.9744L27.474 17.1664L27.4492 17.4298L27.4616 17.6643L27.5386 17.8578L27.7684 18.106L27.8317 18.549V18.8535L27.9335 19.2129L28.1261 19.3803L28.4329 19.4351L28.7891 19.4901L29.2239 19.4077L29.6077 19.3103L29.8237 19.2129L30.2446 18.951L30.6161 18.7974L30.8073 18.7013L30.9861 18.6313L31.3562 18.7974L31.7015 19.0058L31.9684 19.2966L32.4678 19.6148L32.3701 19.693L32.172 19.955L32.1761 20.2609L32.3164 20.7012L32.1926 21.6353L31.8061 23.0646L31.6478 23.8999L31.7166 24.1372L31.5736 24.5556L31.0439 25.4554L31.0233 26.0631L30.9614 27.8915L30.7839 29.1836L30.4854 30.141L30.2144 30.6526L29.9681 30.7144L29.7934 30.868L29.6861 31.1108L29.488 31.3138L29.1964 31.477L29.0395 31.6553L29.0148 31.8487L28.7369 31.9735L28.2045 32.0298L27.8936 32.1847L27.8 32.4385L27.6226 32.6402L27.3584 32.7897L27.2346 33.0379L27.247 33.3849L27.0957 33.6812L26.7806 33.9295L26.489 33.9364L26.2235 33.7018L25.8658 33.5469L25.4187 33.4687L25.0459 33.529L24.746 33.7238L24.4805 34.0338L24.2494 34.459L23.9921 34.5303L23.7087 34.245L23.3497 34.1586L22.9163 34.271L22.5696 34.2327L22.3137 34.042L21.9189 34.0215L21.3866 34.1696L20.308 33.9981L18.6819 33.5071L17.3076 33.3205L15.6224 33.4975L15.4793 32.9872L15.5687 32.7128L15.8425 32.5057L16.0145 32.2712L16.0846 32.0092L16.2731 31.8089L16.5812 31.6718L16.7119 31.5332L16.6652 31.3919L16.7312 31.2685L16.9087 31.1602L17.0091 30.9901L17.0325 30.7582L17.0999 30.643L17.2182 30.558L17.2319 30.3961L17.1659 29.9009L17.1742 29.4936L17.2567 29.1767L17.3599 28.9861L17.4328 28.938L17.5016 28.8256L17.5277 28.6349L17.6392 28.4566L18.1771 28.0918L18.3793 27.8942L18.3972 27.7132L18.4783 27.4704L18.7975 26.9451L18.8952 26.6995L18.9034 26.5774L19.0176 26.4498L19.4028 26.1591L19.6105 25.8861L19.6436 25.6296L19.5514 25.3388L19.3326 25.0137L18.6462 24.2003L18.1124 23.8313L17.4301 23.5282L16.9816 23.4294L16.7656 23.5364L16.5469 23.4513L16.3254 23.1771L15.9512 22.9603L15.1629 22.7244L13.3731 21.7793L12.6564 21.3226L12.4157 21.0414L11.747 20.5366L10.6506 19.8096L9.81008 19.4557L9.22405 19.4749L8.28443 19.2651L6.99266 18.8234L6.24843 18.3941L6.04758 17.9798L5.5702 17.5642L4.81493 17.1486L4.42289 16.8757L4.39396 16.744L4.16973 16.5725L3.75154 16.3613L3.29204 16.0005L2.79131 15.4903L2.25616 14.7002L1.68662 13.6344L1.07581 12.9156L0.423733 12.5452L0.0963086 12.2998L0.097694 12.1804L0 12.0665L0.08808 11.8608L0.324695 11.0529L0.668618 9.88421L1.02627 8.67714L1.44589 7.2575V6.25211L1.44723 5.1959L2.04431 4.32764L2.468 3.71172L2.83531 3.12601L3.20539 2.12472L3.453 1.45806L4.39812 1.299L6.00354 0.953317L6.8042 0.78052L8.49216 0.417008L10.2077 0.0466319L12.0084 0.0233578L13.7473 0L15.0955 0.828491L16.1259 1.46225L17.2609 2.15905L17.3392 2.30991L17.4177 2.89562L17.3406 3.57182Z" fill="var(--fill-0, #71B219)" stroke="var(--stroke-0, white)" mask="url(#path-1-inside-1_0_77)"/>
</g>
</svg>
