<svg preserveAspectRatio="none" width="100%" height="100%" overflow="visible" style="display: block;" viewBox="0 0 32 34" fill="none" xmlns="http://www.w3.org/2000/svg"><g id="PY"><mask id="path-1-inside-1_0_77" fill="white"><path d="M17 4L17 4L18 4L18 4L18 4L18 5L18 5L18 5L18 5L18 6L18 6L18 6L18 6L18 6L18 6L18 6L18 6L18 7L18 7L19 7L19 8L18 8L18 8L18 8L18 8L18 9L18 9L18 9L18 9L18 10L18 10L18 10L18 10L18 10L18 11L18 11L18 11L18 11L18 12L18 12L19 12L19 12L19 12L19 12L20 12L20 12L20 12L20 12L21 12L21 12L22 12L22 12L22 12L23 12L23 12L23 12L23 12L24 12L24 12L24 11L24 12L24 12L25 12L25 12L25 12L25 12L26 12L26 12H26L26 13L27 13L27 13L27 14L27 14L27 14L27 14L27 14L27 15L27 15V15L27 16L27 16L27 16L27 17L28 17L28 17L28 17L27 17L28 18L28 18L28 18L28 18V19L28 19L28 19L28 19L29 20L29 19L30 19L30 19L30 19L31 19L31 19L31 19L31 19L32 19L32 19L32 20L32 20L32 20L32 20L32 21L32 22L32 23L32 24L32 24L32 25L31 26L31 26L31 28L31 29L30 30L30 31L30 31L30 31L30 31L30 31L29 32L29 32L29 32L29 32L28 32L28 32L28 32L28 33L27 33L27 33L27 33L27 34L27 34L26 34L26 34L26 34L25 34L25 34L25 34L24 34L24 34L24 34L24 34L23 34L23 34L23 34L22 34L22 34L21 34L20 34L19 34L17 33L16 34L16 33L16 33L16 32L16 32L16 32L16 32L17 32L17 32L17 31L17 31L17 31L17 31L17 31L17 31L17 31L17 30L17 30L17 30L17 29L17 29L17 29L18 29L18 29L18 28L18 28L18 28L18 28L18 28L19 27L19 27L19 27L19 26L19 26L20 26L20 26L20 25L19 25L19 24L18 24L17 24L17 23L17 24L16 24L16 23L16 23L15 23L13 22L13 21L12 21L12 20L11 20L10 20L9 20L8 19L7 19L6 18L6 18L6 18L5 17L4 17L4 17L4 17L4 16L3 16L3 16L2 15L2 14L1 13L0 12L0 12L0 12L0 12L0 12L0 11L1 10L1 9L1 7V6L1 5L2 4L2 4L3 3L3 2L4 2L4 1L6 1L7 1L8 0L10 0L12 0L14 0L15 1L16 2L17 2L17 2L17 3L17 4Z"/></mask><path d="M17 4L17 4L18 4L18 4L18 4L18 5L18 5L18 5L18 5L18 6L18 6L18 6L18 6L18 6L18 6L18 6L18 6L18 7L18 7L19 7L19 8L18 8L18 8L18 8L18 8L18 9L18 9L18 9L18 9L18 10L18 10L18 10L18 10L18 10L18 11L18 11L18 11L18 11L18 12L18 12L19 12L19 12L19 12L19 12L20 12L20 12L20 12L20 12L21 12L21 12L22 12L22 12L22 12L23 12L23 12L23 12L23 12L24 12L24 12L24 11L24 12L24 12L25 12L25 12L25 12L25 12L26 12L26 12H26L26 13L27 13L27 13L27 14L27 14L27 14L27 14L27 14L27 15L27 15V15L27 16L27 16L27 16L27 17L28 17L28 17L28 17L27 17L28 18L28 18L28 18L28 18V19L28 19L28 19L28 19L29 20L29 19L30 19L30 19L30 19L31 19L31 19L31 19L31 19L32 19L32 19L32 20L32 20L32 20L32 20L32 21L32 22L32 23L32 24L32 24L32 25L31 26L31 26L31 28L31 29L30 30L30 31L30 31L30 31L30 31L30 31L29 32L29 32L29 32L29 32L28 32L28 32L28 32L28 33L27 33L27 33L27 33L27 34L27 34L26 34L26 34L26 34L25 34L25 34L25 34L24 34L24 34L24 34L24 34L23 34L23 34L23 34L22 34L22 34L21 34L20 34L19 34L17 33L16 34L16 33L16 33L16 32L16 32L16 32L16 32L17 32L17 32L17 31L17 31L17 31L17 31L17 31L17 31L17 31L17 30L17 30L17 30L17 29L17 29L17 29L18 29L18 29L18 28L18 28L18 28L18 28L18 28L19 27L19 27L19 27L19 26L19 26L20 26L20 26L20 25L19 25L19 24L18 24L17 24L17 23L17 24L16 24L16 23L16 23L15 23L13 22L13 21L12 21L12 20L11 20L10 20L9 20L8 19L7 19L6 18L6 18L6 18L5 17L4 17L4 17L4 17L4 16L3 16L3 16L2 15L2 14L1 13L0 12L0 12L0 12L0 12L0 12L0 11L1 10L1 9L1 7V6L1 5L2 4L2 4L3 3L3 2L4 2L4 1L6 1L7 1L8 0L10 0L12 0L14 0L15 1L16 2L17 2L17 2L17 3L17 4Z" fill="var(--fill-0,#71B219)" stroke="var(--stroke-0,white)" mask="url(#path-1-inside-1_0_77)"/></g></svg>