<svg preserveAspectRatio="none" width="100%" height="100%" overflow="visible" style="display: block;" viewBox="0 0 3.2975 6.73074" fill="none" xmlns="http://www.w3.org/2000/svg">
<path id="QA" d="M2.25391 0.763672L2.27246 0.786133L2.29492 0.803711L2.81738 1.20996L2.89551 1.56348L2.75195 1.91113L2.74414 1.92871L2.73926 1.94727L2.57715 2.61426L2.56055 2.68262L2.58203 2.74902L2.67188 3.03418L2.70605 3.28027L2.70898 3.30664L2.71875 3.33203L2.87207 3.75781H2.87305L3.02246 4.30859L3.04492 4.65234L2.97949 4.94434L2.79785 5.21777L2.78516 5.23633L2.77637 5.25684L2.39355 6.13867L2.35645 6.16797L1.91504 6.31055L1.57422 6.39648L1.56641 6.39844L1.27539 6.47949L1.05859 6.47852L0.90332 6.45312L0.837891 6.41211L0.605469 6.11621L0.464844 5.78906L0.539062 5.63379L0.549805 5.6123L0.555664 5.58887L0.59668 5.42871L0.612305 5.37012L0.598633 5.3125L0.333984 4.10742L0.251953 3.21387L0.268555 3.1084L0.390625 2.93262L0.399414 2.91992L0.40625 2.90723L0.662109 2.41602L0.673828 2.39355L0.680664 2.36914L0.8125 1.90918L1.17578 0.866211L1.5166 0.511719L1.89258 0.31543L2.25391 0.763672Z" fill="var(--fill-0, #71B219)" stroke="var(--stroke-0, white)" stroke-width="0.5"/>
</svg>
