<svg preserveAspectRatio="none" width="100%" height="100%" overflow="visible" style="display: block;" viewBox="0 0 36 25" fill="none" xmlns="http://www.w3.org/2000/svg"><g id="RO"><mask id="path-1-inside-1_0_256" fill="white"><path d="M31 16L31 16L32 17L33 17L33 17L33 17L33 17L33 17L33 17L33 17L33 17L34 16L35 16L35 16L36 16L36 16L36 17L36 17L36 17L36 18L36 19L36 19L34 20L34 19L34 19L34 19L34 18L34 18L34 18L33 19L34 19L33 20L33 20L33 20L33 20L33 21L33 20L33 21L33 22L32 22L32 24L32 25L32 25L32 25L31 25L31 25L30 25L30 24L30 24L29 24L29 24L29 24L28 24L28 24L27 23L26 23L26 23L24 23L23 24L22 24L22 25L21 25L20 25L19 25L18 25L16 25L15 25L14 25L13 24L12 24L10 24L10 24L10 24L10 24L10 24L11 24L11 23L11 23L10 23L10 23L10 22L9 22L9 22L9 22L9 22L9 22L9 21L9 21L9 21L9 21L10 21L10 21L10 20L9 20L9 20L8 20L8 21L7 21L7 20L6 20L6 20L5 20L5 20L5 19L4 19L4 19L4 19L5 19L5 19L5 19L5 19L5 19L4 18L4 18L4 18L4 18L4 18L4 18L5 18L5 18L5 18L5 18L5 17L5 17L5 17L4 17L4 17L4 17L3 17L3 16L3 16L2 16L2 16L2 16L2 16L2 15L2 15L2 15L2 15L2 14L2 14L2 14L2 14L2 14L2 14L2 14L1 14L1 13L1 13L0 13L0 12L0 12L0 12L1 12L1 12L2 12L2 12L2 12L2 12L2 11L2 11L3 11L3 11L4 11L4 11L4 11L4 10L4 10L4 10L4 10L4 9L4 9L4 9L5 9L5 9L5 8L5 8L5 7L5 7L6 7L6 7L6 6L6 6L6 5L7 5L7 5L7 4L7 4L7 4L8 4L8 3L8 3L8 3L8 3L9 3L9 3L9 3L9 3L10 2L10 2L10 2L11 2L11 1L11 1L11 1L12 2L13 2L13 2L13 2L13 2L14 2L15 2L15 2L15 2L16 2L16 2L16 2L17 2L17 2L18 3L18 3L18 3L19 3L19 2L20 2L21 2L22 2L23 2L23 1L23 1L23 0L24 0L24 0L25 0L25 0L25 0L26 0L26 1L26 1L26 1L27 2L27 2L27 3L27 3L27 4L28 4L28 4L28 4L28 5L29 6L29 6L29 6L29 7L30 7L30 7L30 8L31 9L31 9L31 10L31 10L31 11L30 12L30 13L30 13L30 14L30 14L31 14L31 15L30 15L30 15L30 15L30 15L31 15L31 16Z"/></mask><path d="M31 16L31 16L32 17L33 17L33 17L33 17L33 17L33 17L33 17L33 17L33 17L34 16L35 16L35 16L36 16L36 16L36 17L36 17L36 17L36 18L36 19L36 19L34 20L34 19L34 19L34 19L34 18L34 18L34 18L33 19L34 19L33 20L33 20L33 20L33 20L33 21L33 20L33 21L33 22L32 22L32 24L32 25L32 25L32 25L31 25L31 25L30 25L30 24L30 24L29 24L29 24L29 24L28 24L28 24L27 23L26 23L26 23L24 23L23 24L22 24L22 25L21 25L20 25L19 25L18 25L16 25L15 25L14 25L13 24L12 24L10 24L10 24L10 24L10 24L10 24L11 24L11 23L11 23L10 23L10 23L10 22L9 22L9 22L9 22L9 22L9 22L9 21L9 21L9 21L9 21L10 21L10 21L10 20L9 20L9 20L8 20L8 21L7 21L7 20L6 20L6 20L5 20L5 20L5 19L4 19L4 19L4 19L5 19L5 19L5 19L5 19L5 19L4 18L4 18L4 18L4 18L4 18L4 18L5 18L5 18L5 18L5 18L5 17L5 17L5 17L4 17L4 17L4 17L3 17L3 16L3 16L2 16L2 16L2 16L2 16L2 15L2 15L2 15L2 15L2 14L2 14L2 14L2 14L2 14L2 14L2 14L1 14L1 13L1 13L0 13L0 12L0 12L0 12L1 12L1 12L2 12L2 12L2 12L2 12L2 11L2 11L3 11L3 11L4 11L4 11L4 11L4 10L4 10L4 10L4 10L4 9L4 9L4 9L5 9L5 9L5 8L5 8L5 7L5 7L6 7L6 7L6 6L6 6L6 5L7 5L7 5L7 4L7 4L7 4L8 4L8 3L8 3L8 3L8 3L9 3L9 3L9 3L9 3L10 2L10 2L10 2L11 2L11 1L11 1L11 1L12 2L13 2L13 2L13 2L13 2L14 2L15 2L15 2L15 2L16 2L16 2L16 2L17 2L17 2L18 3L18 3L18 3L19 3L19 2L20 2L21 2L22 2L23 2L23 1L23 1L23 0L24 0L24 0L25 0L25 0L25 0L26 0L26 1L26 1L26 1L27 2L27 2L27 3L27 3L27 4L28 4L28 4L28 4L28 5L29 6L29 6L29 6L29 7L30 7L30 7L30 8L31 9L31 9L31 10L31 10L31 11L30 12L30 13L30 13L30 14L30 14L31 14L31 15L30 15L30 15L30 15L30 15L31 15L31 16Z" fill="var(--fill-0,#71B219)" stroke="var(--stroke-0,white)" mask="url(#path-1-inside-1_0_256)"/></g></svg>