<svg preserveAspectRatio="none" width="100%" height="100%" overflow="visible" style="display: block;" viewBox="0 0 36.5398 25.3744" fill="none" xmlns="http://www.w3.org/2000/svg">
<g id="RO">
<mask id="path-1-inside-1_0_256" fill="white">
<path d="M30.7729 15.792L31.1801 16.3557L31.696 16.6561L32.8901 16.973L32.9974 16.9346L33.0084 16.8756L32.9259 16.7933L32.9134 16.689L32.9713 16.5601L33.1364 16.5532L33.406 16.6684L33.9205 16.5011L34.6771 16.0512L35.3732 15.9607L36.0061 16.2268L36.3307 16.5368L36.5398 16.8317L36.4738 17.1952L36.4339 17.4215L36.2675 18.3556L36.1518 18.704L35.9662 19.0936L34.0003 19.5586L34.1268 19.335L34.0814 18.9441L33.9989 18.6478L34.1818 18.3817L33.7403 18.2843L33.5463 18.431L33.395 18.6862L33.5284 19.2746L33.3138 19.5997L33.2313 19.7808L33.2216 20.2101L33.0937 20.3939L33.069 20.5969L33.3826 20.5448L33.2409 20.9138L32.6521 21.6216L32.4458 22.044L32.4966 23.7106L32.2339 24.7037L32.2133 24.9958L31.5887 25.0054L31.4016 24.9821L30.81 24.834L30.1456 24.5706L29.7563 24.0576L29.5073 23.6914L28.9432 23.8574L28.8373 23.8135L28.6818 23.6365L28.2581 23.5172L27.734 23.5145L26.5578 22.8437L26.4284 22.7312L25.504 22.8437L24.1201 23.1757L23.0649 23.5858L21.974 24.3141L21.5324 24.8655L21.0192 25.1577L20.2901 25.3744L18.9873 25.2935L17.6295 25.0164L16.1727 24.7188L15.3844 24.8834L14.3196 24.7599L12.7128 24.4047L11.516 24.2963L10.3356 24.5062L10.1375 24.3457L10.0949 24.1619L10.1403 23.9026L10.3067 23.6927L10.5929 23.5336L10.7428 23.3718L10.7594 23.2086L10.4388 22.9452L9.78116 22.5817L9.5102 22.354L9.44412 22.2978L9.42624 22.0934L9.29005 21.9329L9.0342 21.815L8.83747 21.6023L8.69716 21.2937L8.72739 21.0029L8.92689 20.7299L9.18274 20.6106L9.49366 20.6476L9.62297 20.5695L9.57074 20.3788L9.2667 20.1333L8.70951 19.8357L8.14274 19.9975L7.56354 20.6202L7.14816 20.7204L6.89224 20.302L6.43824 20.051L5.78481 19.9728L5.38312 19.8123L5.23316 19.5695L4.94701 19.383L4.31693 19.1841L4.3087 18.9948L4.41046 18.9496L4.63474 18.9317L4.93466 18.8919L4.98277 18.7836L4.98555 18.6848L4.74893 18.56L4.51089 18.475L4.38569 18.3899L4.30593 18.2952L4.28947 18.1965L4.35958 18.1293L4.45589 18.1252L4.55086 18.0662L4.60443 17.8371L4.73382 17.6478L4.82593 17.582L4.82047 17.4421L4.72416 17.3118L4.59343 17.1993L4.40089 17.1307L3.80104 16.9332L3.49843 16.6589L3.3127 16.6479L3.01966 16.4956L2.70327 16.257L2.42812 15.9168L2.13231 15.696L2.05531 15.6054L2.04843 15.5204L2.10342 15.4244L2.10074 15.3201L2.02366 14.9868L2.07597 14.6329L2.0622 14.2996L2.05808 14.1501L2.00031 14.1034L1.94935 14.1542L1.87646 14.2173L1.80493 14.2296L1.5862 13.9869L1.3097 13.4917L1.12262 13.3257L0.758042 13.098L0.449888 12.906L0.22973 12.4917L0 12.1708L0.151306 12.0364L1.02766 11.8471L1.43623 12.0323L1.61919 11.965L1.7967 11.8155L1.89569 11.6948L1.91358 11.5672L2.00166 11.4081L2.29747 11.3327L3.08154 11.4301L3.39658 11.2065L3.51354 11.0858L3.58508 10.8169L3.66762 10.6002L3.94823 10.485L3.94412 10.2875L3.90146 10.0735L4.06385 9.59203L4.16285 9.39453L4.32247 9.32321L4.51366 9.17096L4.84658 8.85546L4.76959 8.58111L4.83558 8.37675L5.18228 7.88021L5.44635 7.40012L5.44223 7.15871L5.48077 6.94883L5.71462 6.71839L5.95955 6.418L6.28281 5.47703L6.39978 5.31931L6.61162 5.1396L6.76982 4.96132L6.78636 4.34129L6.93489 4.16163L7.21962 3.95999L7.50309 3.63629L7.73282 3.25222L7.91024 3.07252L8.14551 3.0245L8.40001 2.87364L8.68474 2.81738L8.96132 2.89147L9.13597 2.85305L9.40147 2.66652L10.077 1.95871L10.1719 1.81743L10.3122 1.72007L10.8598 1.47728L10.9987 1.23311L11.1872 1.01364L11.4307 1.03009L12.2258 1.5733L13.076 1.53898L13.2315 1.55957L13.2824 1.57054L13.3869 1.61445L14.5177 1.88328L14.6924 1.8531L14.7406 1.83254L15.1959 2.05335L15.599 2.02455L15.9814 1.87093L16.379 1.81881L16.7449 1.91074L17.0229 2.22209L17.7451 2.88323L17.9597 3.13012L18.2899 3.09311L18.6558 2.96963L19.0259 2.52934L20.1636 2.02732L21.0316 1.90249L21.879 1.70085L22.8599 1.55819L23.1433 1.14671L23.3001 0.865495L23.4116 0.344256L23.9399 0.193393L24.442 0.0863988L24.6208 0.0205532L24.9868 0L25.2715 0.0438692L25.7104 0.301768L26.0185 0.624089L26.1396 0.880607L26.4023 1.24269L26.6788 1.74886L26.9842 2.42235L27.0503 2.76116L27.1658 3.12873L27.3928 3.57454L27.8261 4.06836L27.8867 4.16025L28.0834 4.50727L28.4631 5.27405L28.7809 5.57993L29.0574 5.91326L29.1908 6.24793L29.389 6.55108L29.8539 6.95297L30.2309 7.31782L30.5322 8.3644L30.7426 8.8445L30.8774 9.21073L30.8128 9.95144L30.8967 10.2683L30.7247 10.8457L30.4139 12.0034L30.3382 12.9224L30.3919 13.4162L30.3987 13.7331L30.4744 13.9347L30.557 14.3517L30.5693 14.7138L30.4579 14.8167L30.3025 14.9031L30.2419 14.9786L30.385 15.1418L30.5803 15.4449L30.7729 15.792Z"/>
</mask>
<path d="M30.7729 15.792L31.1801 16.3557L31.696 16.6561L32.8901 16.973L32.9974 16.9346L33.0084 16.8756L32.9259 16.7933L32.9134 16.689L32.9713 16.5601L33.1364 16.5532L33.406 16.6684L33.9205 16.5011L34.6771 16.0512L35.3732 15.9607L36.0061 16.2268L36.3307 16.5368L36.5398 16.8317L36.4738 17.1952L36.4339 17.4215L36.2675 18.3556L36.1518 18.704L35.9662 19.0936L34.0003 19.5586L34.1268 19.335L34.0814 18.9441L33.9989 18.6478L34.1818 18.3817L33.7403 18.2843L33.5463 18.431L33.395 18.6862L33.5284 19.2746L33.3138 19.5997L33.2313 19.7808L33.2216 20.2101L33.0937 20.3939L33.069 20.5969L33.3826 20.5448L33.2409 20.9138L32.6521 21.6216L32.4458 22.044L32.4966 23.7106L32.2339 24.7037L32.2133 24.9958L31.5887 25.0054L31.4016 24.9821L30.81 24.834L30.1456 24.5706L29.7563 24.0576L29.5073 23.6914L28.9432 23.8574L28.8373 23.8135L28.6818 23.6365L28.2581 23.5172L27.734 23.5145L26.5578 22.8437L26.4284 22.7312L25.504 22.8437L24.1201 23.1757L23.0649 23.5858L21.974 24.3141L21.5324 24.8655L21.0192 25.1577L20.2901 25.3744L18.9873 25.2935L17.6295 25.0164L16.1727 24.7188L15.3844 24.8834L14.3196 24.7599L12.7128 24.4047L11.516 24.2963L10.3356 24.5062L10.1375 24.3457L10.0949 24.1619L10.1403 23.9026L10.3067 23.6927L10.5929 23.5336L10.7428 23.3718L10.7594 23.2086L10.4388 22.9452L9.78116 22.5817L9.5102 22.354L9.44412 22.2978L9.42624 22.0934L9.29005 21.9329L9.0342 21.815L8.83747 21.6023L8.69716 21.2937L8.72739 21.0029L8.92689 20.7299L9.18274 20.6106L9.49366 20.6476L9.62297 20.5695L9.57074 20.3788L9.2667 20.1333L8.70951 19.8357L8.14274 19.9975L7.56354 20.6202L7.14816 20.7204L6.89224 20.302L6.43824 20.051L5.78481 19.9728L5.38312 19.8123L5.23316 19.5695L4.94701 19.383L4.31693 19.1841L4.3087 18.9948L4.41046 18.9496L4.63474 18.9317L4.93466 18.8919L4.98277 18.7836L4.98555 18.6848L4.74893 18.56L4.51089 18.475L4.38569 18.3899L4.30593 18.2952L4.28947 18.1965L4.35958 18.1293L4.45589 18.1252L4.55086 18.0662L4.60443 17.8371L4.73382 17.6478L4.82593 17.582L4.82047 17.4421L4.72416 17.3118L4.59343 17.1993L4.40089 17.1307L3.80104 16.9332L3.49843 16.6589L3.3127 16.6479L3.01966 16.4956L2.70327 16.257L2.42812 15.9168L2.13231 15.696L2.05531 15.6054L2.04843 15.5204L2.10342 15.4244L2.10074 15.3201L2.02366 14.9868L2.07597 14.6329L2.0622 14.2996L2.05808 14.1501L2.00031 14.1034L1.94935 14.1542L1.87646 14.2173L1.80493 14.2296L1.5862 13.9869L1.3097 13.4917L1.12262 13.3257L0.758042 13.098L0.449888 12.906L0.22973 12.4917L0 12.1708L0.151306 12.0364L1.02766 11.8471L1.43623 12.0323L1.61919 11.965L1.7967 11.8155L1.89569 11.6948L1.91358 11.5672L2.00166 11.4081L2.29747 11.3327L3.08154 11.4301L3.39658 11.2065L3.51354 11.0858L3.58508 10.8169L3.66762 10.6002L3.94823 10.485L3.94412 10.2875L3.90146 10.0735L4.06385 9.59203L4.16285 9.39453L4.32247 9.32321L4.51366 9.17096L4.84658 8.85546L4.76959 8.58111L4.83558 8.37675L5.18228 7.88021L5.44635 7.40012L5.44223 7.15871L5.48077 6.94883L5.71462 6.71839L5.95955 6.418L6.28281 5.47703L6.39978 5.31931L6.61162 5.1396L6.76982 4.96132L6.78636 4.34129L6.93489 4.16163L7.21962 3.95999L7.50309 3.63629L7.73282 3.25222L7.91024 3.07252L8.14551 3.0245L8.40001 2.87364L8.68474 2.81738L8.96132 2.89147L9.13597 2.85305L9.40147 2.66652L10.077 1.95871L10.1719 1.81743L10.3122 1.72007L10.8598 1.47728L10.9987 1.23311L11.1872 1.01364L11.4307 1.03009L12.2258 1.5733L13.076 1.53898L13.2315 1.55957L13.2824 1.57054L13.3869 1.61445L14.5177 1.88328L14.6924 1.8531L14.7406 1.83254L15.1959 2.05335L15.599 2.02455L15.9814 1.87093L16.379 1.81881L16.7449 1.91074L17.0229 2.22209L17.7451 2.88323L17.9597 3.13012L18.2899 3.09311L18.6558 2.96963L19.0259 2.52934L20.1636 2.02732L21.0316 1.90249L21.879 1.70085L22.8599 1.55819L23.1433 1.14671L23.3001 0.865495L23.4116 0.344256L23.9399 0.193393L24.442 0.0863988L24.6208 0.0205532L24.9868 0L25.2715 0.0438692L25.7104 0.301768L26.0185 0.624089L26.1396 0.880607L26.4023 1.24269L26.6788 1.74886L26.9842 2.42235L27.0503 2.76116L27.1658 3.12873L27.3928 3.57454L27.8261 4.06836L27.8867 4.16025L28.0834 4.50727L28.4631 5.27405L28.7809 5.57993L29.0574 5.91326L29.1908 6.24793L29.389 6.55108L29.8539 6.95297L30.2309 7.31782L30.5322 8.3644L30.7426 8.8445L30.8774 9.21073L30.8128 9.95144L30.8967 10.2683L30.7247 10.8457L30.4139 12.0034L30.3382 12.9224L30.3919 13.4162L30.3987 13.7331L30.4744 13.9347L30.557 14.3517L30.5693 14.7138L30.4579 14.8167L30.3025 14.9031L30.2419 14.9786L30.385 15.1418L30.5803 15.4449L30.7729 15.792Z" fill="var(--fill-0, #71B219)" stroke="var(--stroke-0, white)" mask="url(#path-1-inside-1_0_256)"/>
</g>
</svg>
