<svg preserveAspectRatio="none" width="100%" height="100%" overflow="visible" style="display: block;" viewBox="0 0 15.976 21.029" fill="none" xmlns="http://www.w3.org/2000/svg">
<g id="RS">
<mask id="path-1-inside-1_0_207" fill="white">
<path d="M3.41866 0.0960266L3.88224 0.128928L4.22893 0.0425297L5.1052 0.152244L5.2937 0.238685L5.41612 0.336051L5.64585 0.657033L5.86601 1.07128L6.17416 1.26329L6.53874 1.49101L6.72582 1.65698L7.00232 2.15214L7.22105 2.39493L7.29259 2.38258L7.36547 2.3195L7.41643 2.26872L7.4742 2.31535L7.47832 2.46488L7.49209 2.79821L7.43978 3.15209L7.51686 3.48538L7.51954 3.58965L7.46455 3.68568L7.47143 3.7707L7.54843 3.86124L7.84424 4.08209L8.1194 4.42225L8.43578 4.66093L8.72882 4.81318L8.91455 4.82414L9.21716 5.09849L9.81701 5.29599L10.0095 5.3646L10.1403 5.47708L10.2366 5.60738L10.242 5.74728L10.1499 5.81313L10.0205 6.00242L9.96698 6.23147L9.87201 6.29045L9.7757 6.29456L9.70559 6.36178L9.72205 6.46053L9.80181 6.55518L9.92701 6.64024L10.1651 6.72525L10.4017 6.85008L10.3989 6.94887L10.3508 7.0572L10.0509 7.09701L9.82658 7.11484L9.72482 7.16009L9.73305 7.34938L10.3631 7.54826L10.6493 7.73483L10.7992 7.97762L11.2009 8.13811L11.8544 8.21626L12.3084 8.4673L12.5643 8.88564L12.9797 8.78551L13.5589 8.16276L14.1256 8.00093L14.6828 8.29856L14.9869 8.54411L15.0391 8.73478L14.9098 8.81293L14.5989 8.77593L14.343 8.89523L14.1435 9.1682L14.1133 9.459L14.2536 9.76763L14.4503 9.98024L14.7062 10.0982L14.8424 10.2587L14.8602 10.463L14.9263 10.5193L14.7805 10.6126L14.6236 10.7525L14.5342 10.9966L14.5109 11.3876L14.0156 11.6934L13.8299 11.7497L13.7459 11.9527L13.6153 12.5247L13.6304 12.954L13.6978 13.1721L13.728 13.3504L13.889 13.5685L14.0349 13.9032L14.1312 14.3449L14.3458 14.685L14.8947 15.0198L15.1671 15.2145L15.3692 15.4971L15.5233 15.7522L15.976 16.091L15.9416 16.3324L15.8426 16.5684L15.7379 16.6795L15.5123 16.9826L15.2922 17.1527L14.9304 17.6863L14.3596 17.7151L14.2234 17.7576L14.006 17.903L13.9 18.1691L14.0019 18.3831L13.9922 18.5984L13.889 19.0168L14.0266 19.4653L14.2288 19.6697L14.2605 19.7876L14.226 19.9961L13.9248 20.4214L13.834 20.5791L13.5327 20.6559L13.4296 20.6161L13.2741 20.4707L13.1296 20.4268L12.7706 20.5983L12.4047 20.7039L12.1172 20.6244L11.8338 20.6147L11.6371 20.6847L11.4884 20.7122L11.1968 20.896L10.7305 21.029L10.5144 21.0002L10.4347 20.8274L10.3466 20.5818L10.3892 20.4694L10.6988 20.2746L10.7332 20.0894L11.1652 19.1923L11.2477 18.9002L11.2505 18.8055L11.1376 18.7411L10.901 18.7438L9.85135 18.3789L9.89955 17.9606L9.5914 17.7342L9.25847 17.5326L9.20339 17.3077L8.83336 16.8523L8.56374 16.5972L8.21839 16.4696L7.92132 16.2817L7.74247 16.1665L7.66262 15.9539V15.8276L7.5732 15.7056L7.43012 15.7193L7.18662 15.8893L6.88812 16.0348L6.8359 16.1418L6.94455 16.3928L7.02154 16.5546L6.98577 16.7055L6.89224 16.8989L6.31724 17.3241L6.25259 17.4737L6.36258 17.7123L6.29247 17.8221L5.81235 17.9798L5.8247 17.8495L5.79447 17.6396L5.51931 17.416L5.12997 17.2432L4.26604 16.6493L3.93455 16.5711L3.63739 16.5011L3.21227 16.2172L2.99354 16.1665L2.75139 15.9634L2.22316 15.2748L1.77327 14.899L1.46654 14.7097L1.37989 14.5245L1.36201 14.3339L1.37158 14.2694L1.60408 13.9978L1.78293 13.9594L2.01266 13.9499L2.16539 14.087L2.36347 14.1172L2.47489 13.9416L2.53266 13.6892L2.50654 13.3669L2.02643 12.6166L1.61508 12.0926L1.56697 11.976L1.65639 11.8772L1.80081 11.8251L1.95489 11.869L2.35658 11.9074L2.74316 11.858L2.87524 11.7305V11.5576L2.73493 11.3972L2.28227 10.9651L1.93012 10.5838L1.51466 10.2903L1.20793 10.1722L1.11708 10.0228L1.07854 9.86366L1.11296 9.57148L1.13362 9.19838L1.20516 8.96522L1.483 8.52217L1.7485 8.05167L1.91223 7.59904L1.99889 7.17793L1.96732 7.05586L1.82835 6.9667L1.53666 6.87478L1.12951 6.95435L0.784155 7.10798L0.64939 7.12033L0.603965 6.93104L0.657619 6.84736L0.766271 6.85833L0.855694 6.89399L0.950659 6.80759L1.00843 6.5538L0.864007 5.66498L1.12262 5.58679L1.12674 5.45786L1.15008 5.344L1.417 5.49901L1.79116 5.50173L2.11996 5.47021L2.1695 5.38243L2.16673 5.25622L2.09797 5.15609L1.981 5.07652L1.89712 4.95307L1.67562 4.89824L0.980887 4.57725L0.639734 4.23572L0.650734 3.87221L0.749813 3.67333L0.869464 3.60338L0.833695 3.53616L0.443003 3.36742L0.30404 3.13288L0.418233 2.83249L0.214616 2.21937L0 1.84213L0.210502 1.67892L0.239386 1.44572L0.255927 1.31268L0.34258 1.31541L0.682389 1.15906L0.806154 1.03285L0.877693 0.883369L0.958888 0.846323L1.18585 1.00815L1.42666 1.02188L1.69493 0.920374L1.89712 0.779096L2.13785 0.661135L2.24793 0.58022L2.38824 0.454012L2.67028 0.0781943L2.99077 0L3.41866 0.0960266Z"/>
</mask>
<path d="M3.41866 0.0960266L3.88224 0.128928L4.22893 0.0425297L5.1052 0.152244L5.2937 0.238685L5.41612 0.336051L5.64585 0.657033L5.86601 1.07128L6.17416 1.26329L6.53874 1.49101L6.72582 1.65698L7.00232 2.15214L7.22105 2.39493L7.29259 2.38258L7.36547 2.3195L7.41643 2.26872L7.4742 2.31535L7.47832 2.46488L7.49209 2.79821L7.43978 3.15209L7.51686 3.48538L7.51954 3.58965L7.46455 3.68568L7.47143 3.7707L7.54843 3.86124L7.84424 4.08209L8.1194 4.42225L8.43578 4.66093L8.72882 4.81318L8.91455 4.82414L9.21716 5.09849L9.81701 5.29599L10.0095 5.3646L10.1403 5.47708L10.2366 5.60738L10.242 5.74728L10.1499 5.81313L10.0205 6.00242L9.96698 6.23147L9.87201 6.29045L9.7757 6.29456L9.70559 6.36178L9.72205 6.46053L9.80181 6.55518L9.92701 6.64024L10.1651 6.72525L10.4017 6.85008L10.3989 6.94887L10.3508 7.0572L10.0509 7.09701L9.82658 7.11484L9.72482 7.16009L9.73305 7.34938L10.3631 7.54826L10.6493 7.73483L10.7992 7.97762L11.2009 8.13811L11.8544 8.21626L12.3084 8.4673L12.5643 8.88564L12.9797 8.78551L13.5589 8.16276L14.1256 8.00093L14.6828 8.29856L14.9869 8.54411L15.0391 8.73478L14.9098 8.81293L14.5989 8.77593L14.343 8.89523L14.1435 9.1682L14.1133 9.459L14.2536 9.76763L14.4503 9.98024L14.7062 10.0982L14.8424 10.2587L14.8602 10.463L14.9263 10.5193L14.7805 10.6126L14.6236 10.7525L14.5342 10.9966L14.5109 11.3876L14.0156 11.6934L13.8299 11.7497L13.7459 11.9527L13.6153 12.5247L13.6304 12.954L13.6978 13.1721L13.728 13.3504L13.889 13.5685L14.0349 13.9032L14.1312 14.3449L14.3458 14.685L14.8947 15.0198L15.1671 15.2145L15.3692 15.4971L15.5233 15.7522L15.976 16.091L15.9416 16.3324L15.8426 16.5684L15.7379 16.6795L15.5123 16.9826L15.2922 17.1527L14.9304 17.6863L14.3596 17.7151L14.2234 17.7576L14.006 17.903L13.9 18.1691L14.0019 18.3831L13.9922 18.5984L13.889 19.0168L14.0266 19.4653L14.2288 19.6697L14.2605 19.7876L14.226 19.9961L13.9248 20.4214L13.834 20.5791L13.5327 20.6559L13.4296 20.6161L13.2741 20.4707L13.1296 20.4268L12.7706 20.5983L12.4047 20.7039L12.1172 20.6244L11.8338 20.6147L11.6371 20.6847L11.4884 20.7122L11.1968 20.896L10.7305 21.029L10.5144 21.0002L10.4347 20.8274L10.3466 20.5818L10.3892 20.4694L10.6988 20.2746L10.7332 20.0894L11.1652 19.1923L11.2477 18.9002L11.2505 18.8055L11.1376 18.7411L10.901 18.7438L9.85135 18.3789L9.89955 17.9606L9.5914 17.7342L9.25847 17.5326L9.20339 17.3077L8.83336 16.8523L8.56374 16.5972L8.21839 16.4696L7.92132 16.2817L7.74247 16.1665L7.66262 15.9539V15.8276L7.5732 15.7056L7.43012 15.7193L7.18662 15.8893L6.88812 16.0348L6.8359 16.1418L6.94455 16.3928L7.02154 16.5546L6.98577 16.7055L6.89224 16.8989L6.31724 17.3241L6.25259 17.4737L6.36258 17.7123L6.29247 17.8221L5.81235 17.9798L5.8247 17.8495L5.79447 17.6396L5.51931 17.416L5.12997 17.2432L4.26604 16.6493L3.93455 16.5711L3.63739 16.5011L3.21227 16.2172L2.99354 16.1665L2.75139 15.9634L2.22316 15.2748L1.77327 14.899L1.46654 14.7097L1.37989 14.5245L1.36201 14.3339L1.37158 14.2694L1.60408 13.9978L1.78293 13.9594L2.01266 13.9499L2.16539 14.087L2.36347 14.1172L2.47489 13.9416L2.53266 13.6892L2.50654 13.3669L2.02643 12.6166L1.61508 12.0926L1.56697 11.976L1.65639 11.8772L1.80081 11.8251L1.95489 11.869L2.35658 11.9074L2.74316 11.858L2.87524 11.7305V11.5576L2.73493 11.3972L2.28227 10.9651L1.93012 10.5838L1.51466 10.2903L1.20793 10.1722L1.11708 10.0228L1.07854 9.86366L1.11296 9.57148L1.13362 9.19838L1.20516 8.96522L1.483 8.52217L1.7485 8.05167L1.91223 7.59904L1.99889 7.17793L1.96732 7.05586L1.82835 6.9667L1.53666 6.87478L1.12951 6.95435L0.784155 7.10798L0.64939 7.12033L0.603965 6.93104L0.657619 6.84736L0.766271 6.85833L0.855694 6.89399L0.950659 6.80759L1.00843 6.5538L0.864007 5.66498L1.12262 5.58679L1.12674 5.45786L1.15008 5.344L1.417 5.49901L1.79116 5.50173L2.11996 5.47021L2.1695 5.38243L2.16673 5.25622L2.09797 5.15609L1.981 5.07652L1.89712 4.95307L1.67562 4.89824L0.980887 4.57725L0.639734 4.23572L0.650734 3.87221L0.749813 3.67333L0.869464 3.60338L0.833695 3.53616L0.443003 3.36742L0.30404 3.13288L0.418233 2.83249L0.214616 2.21937L0 1.84213L0.210502 1.67892L0.239386 1.44572L0.255927 1.31268L0.34258 1.31541L0.682389 1.15906L0.806154 1.03285L0.877693 0.883369L0.958888 0.846323L1.18585 1.00815L1.42666 1.02188L1.69493 0.920374L1.89712 0.779096L2.13785 0.661135L2.24793 0.58022L2.38824 0.454012L2.67028 0.0781943L2.99077 0L3.41866 0.0960266Z" fill="var(--fill-0, #71B219)" stroke="var(--stroke-0, white)" mask="url(#path-1-inside-1_0_207)"/>
</g>
</svg>
