<svg preserveAspectRatio="none" width="100%" height="100%" overflow="visible" style="display: block;" viewBox="0 0 16 21" fill="none" xmlns="http://www.w3.org/2000/svg"><g id="RS"><mask id="path-1-inside-1_0_207" fill="white"><path d="M3 0L4 0L4 0L5 0L5 0L5 0L6 1L6 1L6 1L6 2L7 2L7 2L7 2L7 2L7 2L7 2L8 2L8 2L8 3L7 3L8 4L8 4L8 4L8 4L8 4L8 4L8 4L8 5L9 5L9 5L9 5L10 5L10 5L10 6L10 6L10 6L10 6L10 6L10 6L10 6L10 6L10 6L10 6L10 7L10 7L10 7L10 7L10 7L10 7L10 7L10 7L10 7L10 7L10 8L11 8L11 8L11 8L12 8L12 8L13 9L13 9L14 8L14 8L15 8L15 8L15 9L15 9L15 9L14 9L14 9L14 10L14 10L14 10L15 10L15 10L15 10L15 10L15 11L15 11L14 11L14 11L14 12L14 12L14 12L14 12L14 13L14 13L14 13L14 14L14 14L14 14L14 15L15 15L15 15L15 16L16 16L16 16L16 16L16 17L16 17L16 17L15 17L15 18L14 18L14 18L14 18L14 18L14 18L14 19L14 19L14 20L14 20L14 20L14 20L14 20L14 21L14 21L13 21L13 20L13 20L13 21L12 21L12 21L12 21L12 21L12 21L11 21L11 21L10 21L10 21L10 21L10 20L11 20L11 20L11 19L11 19L11 19L11 19L11 19L10 18L10 18L10 18L9 18L9 17L9 17L9 17L8 16L8 16L8 16L8 16V16L8 16L7 16L7 16L7 16L7 16L7 16L7 17L7 17L7 17L6 17L6 18L6 18L6 18L6 18L6 18L6 18L6 17L5 17L4 17L4 17L4 16L3 16L3 16L3 16L2 15L2 15L2 15L1 14L1 14L1 14L2 14L2 14L2 14L2 14L2 14L2 14L2 14L2 13L2 13L2 12L2 12L2 12L2 12L2 12L2 12L3 12L3 12V12L3 11L2 11L2 11L2 10L1 10L1 10L1 10L1 10L1 9L1 9L2 8L2 8L2 8L2 7L2 7L2 7L2 7L1 7L1 7L1 7L1 7L1 7L1 7L1 7L1 7L1 7L1 6L1 6L1 6L1 5L1 6L2 6L2 6L2 5L2 5L2 5L2 5L2 5L2 5L1 5L1 4L1 4L1 4L1 4L1 4L0 3L0 3L0 3L0 2L0 2L0 2L0 1L0 1L0 1L1 1L1 1L1 1L1 1L1 1L1 1L2 1L2 1L2 1L2 1L2 0L3 0L3 0L3 0Z"/></mask><path d="M3 0L4 0L4 0L5 0L5 0L5 0L6 1L6 1L6 1L6 2L7 2L7 2L7 2L7 2L7 2L7 2L8 2L8 2L8 3L7 3L8 4L8 4L8 4L8 4L8 4L8 4L8 4L8 5L9 5L9 5L9 5L10 5L10 5L10 6L10 6L10 6L10 6L10 6L10 6L10 6L10 6L10 6L10 6L10 7L10 7L10 7L10 7L10 7L10 7L10 7L10 7L10 7L10 7L10 8L11 8L11 8L11 8L12 8L12 8L13 9L13 9L14 8L14 8L15 8L15 8L15 9L15 9L15 9L14 9L14 9L14 10L14 10L14 10L15 10L15 10L15 10L15 10L15 11L15 11L14 11L14 11L14 12L14 12L14 12L14 12L14 13L14 13L14 13L14 14L14 14L14 14L14 15L15 15L15 15L15 16L16 16L16 16L16 16L16 17L16 17L16 17L15 17L15 18L14 18L14 18L14 18L14 18L14 18L14 19L14 19L14 20L14 20L14 20L14 20L14 20L14 21L14 21L13 21L13 20L13 20L13 21L12 21L12 21L12 21L12 21L12 21L11 21L11 21L10 21L10 21L10 21L10 20L11 20L11 20L11 19L11 19L11 19L11 19L11 19L10 18L10 18L10 18L9 18L9 17L9 17L9 17L8 16L8 16L8 16L8 16V16L8 16L7 16L7 16L7 16L7 16L7 16L7 17L7 17L7 17L6 17L6 18L6 18L6 18L6 18L6 18L6 18L6 17L5 17L4 17L4 17L4 16L3 16L3 16L3 16L2 15L2 15L2 15L1 14L1 14L1 14L2 14L2 14L2 14L2 14L2 14L2 14L2 14L2 13L2 13L2 12L2 12L2 12L2 12L2 12L2 12L3 12L3 12V12L3 11L2 11L2 11L2 10L1 10L1 10L1 10L1 10L1 9L1 9L2 8L2 8L2 8L2 7L2 7L2 7L2 7L1 7L1 7L1 7L1 7L1 7L1 7L1 7L1 7L1 7L1 6L1 6L1 6L1 5L1 6L2 6L2 6L2 5L2 5L2 5L2 5L2 5L2 5L1 5L1 4L1 4L1 4L1 4L1 4L0 3L0 3L0 3L0 2L0 2L0 2L0 1L0 1L0 1L1 1L1 1L1 1L1 1L1 1L1 1L2 1L2 1L2 1L2 1L2 0L3 0L3 0L3 0Z" fill="var(--fill-0,#71B219)" stroke="var(--stroke-0,white)" mask="url(#path-1-inside-1_0_207)"/></g></svg>