<svg preserveAspectRatio="none" width="100%" height="100%" overflow="visible" style="display: block;" viewBox="0 0 8 7" fill="none" xmlns="http://www.w3.org/2000/svg"><path id="RW" d="M6 0L6 0L6 1L6 1L6 1L7 1L7 1L7 1L7 2L7 2L7 2L7 2L7 3L7 3L7 3L7 4L7 4L7 4L8 4L8 4L8 4L7 5L7 5L7 5L7 5L7 5L7 5L7 5L7 5L7 5L7 5L7 5L6 5L6 5L6 5L6 4L6 4L5 5L5 5L5 5L5 5L5 5L5 5L5 5L5 5H5L4 5L4 5L4 5L4 5L4 5L4 5L4 6L4 6L4 6L4 6L3 6L3 6H3L3 6L2 6L2 6L2 6L2 6L2 6L2 6L1 6L1 6L1 6L1 6L1 6L1 6L1 6L1 6L1 6L0 6L0 6L0 6L0 6L0 6L0 6L0 5L0 5L0 5L1 5L1 5L1 5L1 5L1 4L1 4L1 4L1 4L1 4L1 4V4L1 3L1 3L2 3L2 2L2 2L2 2L2 2L2 2L2 2L2 2L2 2L3 2L3 2L3 2L3 2L3 2L4 1L4 2L4 2L4 2L4 2L4 2L4 2L4 2L4 2L4 2L4 2L4 2L4 2L5 1L5 1L5 1L5 1L5 1L5 1L5 1L6 1L6 1L6 1L6 0L6 0L6 0L6 0Z" fill="var(--fill-0,#71B219)" stroke="var(--stroke-0,white)" stroke-width="0"/></svg>