<svg preserveAspectRatio="none" width="100%" height="100%" overflow="visible" style="display: block;" viewBox="0 0 7.7947 6.67862" fill="none" xmlns="http://www.w3.org/2000/svg">
<path id="RW" d="M5.96777 0.301758L6.00195 0.371094L6.14844 0.666016L6.15918 0.689453L6.17578 0.709961L6.6543 1.31934L6.69824 1.375L6.76562 1.39941L7.00586 1.4873L7.1416 1.64941L7.30371 1.98047L7.35352 2.41113L7.27734 2.98047L7.27344 3.00977L7.27637 3.04004L7.32422 3.48633L7.33008 3.54102L7.3584 3.58789L7.50684 3.83496L7.54199 4.125L7.46875 4.53613L7.39941 4.72559L7.37891 4.74121L7.34375 4.75L7.21191 4.72852L7.16895 4.72168L7.12695 4.72852L6.90234 4.76855L6.88086 4.77246L6.86133 4.7793L6.64648 4.85547L6.5625 4.86328L6.51953 4.85547L6.40625 4.80762L6.15039 4.59082L6.05176 4.50781L5.92773 4.53906L5.42578 4.66406L5.31738 4.66211L5.24609 4.66016L5.18555 4.69727L4.99121 4.8125L4.9707 4.82422L4.95312 4.83984L4.86035 4.92188H4.85742L4.44043 4.66211L4.37402 4.62109L4.29688 4.625L4.12891 4.63379L3.91016 4.64453L3.8916 4.86133L3.8252 5.64062L3.75488 6.05273L3.70898 6.14844L3.4707 6.28711L3.20996 6.37305L3.07422 6.36816H3.05957L3.04492 6.36914L2.33105 6.42676L2.10547 6.42773L2.08691 6.41992L1.9248 6.05762L1.88867 5.97949L1.8125 5.93848L1.42871 5.7373L1.40332 5.72363L1.375 5.7168L1.00586 5.62207L0.954102 5.6084L0.901367 5.61719L0.750977 5.64355L0.633789 5.66406L0.576172 5.76758L0.442383 6.00391L0.418945 5.99414L0.387695 5.94238L0.380859 5.70215L0.379883 5.66797L0.369141 5.63574L0.264648 5.30469L0.279297 5.26953L0.371094 5.19336L0.65918 4.98242L0.658203 4.98145L1.10156 4.68262L1.14258 4.65527L1.28906 4.43555L1.2998 4.39453L1.36328 4.15234L1.37305 4.11426L1.37109 4.07617L1.3418 3.5127V3.50293L1.30273 3.07617L1.33398 2.97949L1.51953 2.64844L1.78711 2.2832L2.04492 1.96484L2.15039 1.94434L2.19238 1.93652L2.22852 1.91504L2.4834 1.76562L2.50098 1.75488L2.5166 1.74219L2.76758 1.53223L2.84375 1.49121L2.90918 1.49023L2.93652 1.48926L2.96191 1.4834L3.63086 1.32422L3.71777 1.57031L3.74219 1.63867L3.79883 1.68359L3.87109 1.73926L3.92578 1.7832L3.99609 1.79102L4.11133 1.80469L4.17188 1.8125L4.22852 1.79102L4.46289 1.70312L4.49219 1.69238L4.51855 1.67383L4.94629 1.37305L4.96191 1.3623L4.97656 1.34863L5.16309 1.16699L5.17188 1.15918L5.17969 1.15039L5.38867 0.90625L5.6709 0.618164L5.68945 0.598633L5.7041 0.575195L5.84375 0.349609L5.92285 0.272461L5.97266 0.261719L5.96777 0.301758Z" fill="var(--fill-0, #71B219)" stroke="var(--stroke-0, white)" stroke-width="0.5"/>
</svg>
