<svg preserveAspectRatio="none" width="100%" height="100%" overflow="visible" style="display: block;" viewBox="0 0 81 66" fill="none" xmlns="http://www.w3.org/2000/svg"><g id="SA"><mask id="path-1-inside-1_0_100" fill="white"><path d="M46 14L47 14L48 14L48 14L50 14L50 15L50 15L50 16L50 16L51 16L52 16L53 16L53 16L54 16L54 17L54 18L55 18L55 19L55 19L55 19L55 20L55 20L56 20L56 20L56 20L56 21L57 21L57 22L58 22L58 23L59 23L60 24L60 24L60 24L60 24L59 24L59 24L60 25L60 25L60 25L60 26L60 26H60L60 26L60 26L60 26L60 27L60 28L60 28L60 28L60 29L61 29L61 30L62 31L62 31L62 32L62 32L63 32L63 33L63 33L63 33L64 33L64 33L64 33L65 33L65 33L65 33L65 33L64 34L65 34L65 34L65 34H66V34L66 35L66 35L66 35L66 35L66 36L66 36L66 36L67 36L67 37L67 37L67 37L68 38L68 38L68 38L68 38L68 39L69 39L69 39L69 40L69 40L70 40L70 40L70 40L70 40L71 40L72 40L72 40L73 40L74 40L75 40L76 41L77 41L77 41L78 41L78 41L79 41L79 41L79 41L79 41L79 41L80 41L80 42L80 42L81 43L81 43L81 44L81 44L81 44L81 45L81 45L80 46L80 46L80 47L80 47L80 48L80 48L80 49L80 49L79 50L79 50L79 50L79 51L79 51L79 52L78 52L78 52L77 52L76 53L76 53L75 53L74 53L74 54L73 54L72 54L72 54L71 55L70 55L70 55L69 55L68 56L68 56L67 56L66 56L65 56L64 56L63 56L62 57L61 57L60 57L58 57L57 57L56 57L56 58L55 58L54 58L53 59L52 59L52 60L52 60L51 61L50 62L50 62L50 63L50 64L49 64L49 64L48 64L48 64L47 64L47 63L47 63L47 63L46 63L45 63L44 63L43 63L42 63L42 63L41 62L41 62L41 62L40 62L39 62L38 62L38 62L37 62L37 62L36 62L36 63L36 63L36 62L36 63L35 62L35 62L35 62L34 62L34 62L34 62L34 62L34 62L33 62L33 63L33 63L33 63L33 63L33 64L33 64L33 64L33 65L33 65L33 65L33 65L33 65L33 66L32 66L32 66L32 66L32 66L31 66L31 65L31 65L31 65L31 64L31 64L30 64L30 63L30 63L30 62L29 61L28 60L27 60L27 59L26 58L26 57L26 57L25 56L25 56L25 56L24 54L24 54L24 53L24 53L24 53L23 53L23 52L21 51L20 51L20 50L19 50L19 49L18 48L17 46L18 46L18 46L17 45L17 45L17 44L17 44L17 43L17 42L17 42L17 41L17 41L17 40L17 40L16 40H17L16 40L16 39L16 39L16 38L15 37L15 36L14 36L13 35L13 35L13 34L12 34L12 34L12 34L11 34L11 33L10 33L10 32L10 32L10 31L10 31L10 30L10 30L9 28L9 28L8 28L8 27L8 27L7 26L6 24L6 24L6 23L5 22L4 22L4 21L3 19L2 18L2 18L1 18L0 18L0 18L0 18L0 17L1 16L1 15L1 12L2 12L3 13L4 13L5 13L5 13L6 13L6 12L7 12L8 11L8 10L8 10L9 10L10 10L11 10L11 10L11 9L12 8L12 8L12 8L12 8L13 7L12 6L12 6L11 5L10 4L10 4L9 3L10 3L11 2L12 2L14 2L14 1L16 1L17 1L17 0L18 0L18 0L20 0L21 1L22 1L23 1L24 2L25 2L26 3L27 4L28 4L29 5L30 5L31 6L32 7L33 8L34 9L35 10L37 11L38 12L39 13L39 13L40 13L42 13L44 14L45 14L46 14ZM8 28L8 28L7 28L8 28L8 28L8 28L8 28L8 28ZM9 30H9L8 29L8 29L8 29L7 28L7 28L7 28L8 28L8 28L8 29L9 29L9 29L9 30ZM28 65L29 65L29 65L29 65L29 65L29 65L29 66L29 66L29 66L29 66L29 65L29 65L28 65L28 65L28 65L28 64L28 64L28 64L28 64L28 64L28 64L28 64L28 65L28 65L28 65L28 65Z"/></mask><path d="M46 14L47 14L48 14L48 14L50 14L50 15L50 15L50 16L50 16L51 16L52 16L53 16L53 16L54 16L54 17L54 18L55 18L55 19L55 19L55 19L55 20L55 20L56 20L56 20L56 20L56 21L57 21L57 22L58 22L58 23L59 23L60 24L60 24L60 24L60 24L59 24L59 24L60 25L60 25L60 25L60 26L60 26H60L60 26L60 26L60 26L60 27L60 28L60 28L60 28L60 29L61 29L61 30L62 31L62 31L62 32L62 32L63 32L63 33L63 33L63 33L64 33L64 33L64 33L65 33L65 33L65 33L65 33L64 34L65 34L65 34L65 34H66V34L66 35L66 35L66 35L66 35L66 36L66 36L66 36L67 36L67 37L67 37L67 37L68 38L68 38L68 38L68 38L68 39L69 39L69 39L69 40L69 40L70 40L70 40L70 40L70 40L71 40L72 40L72 40L73 40L74 40L75 40L76 41L77 41L77 41L78 41L78 41L79 41L79 41L79 41L79 41L79 41L80 41L80 42L80 42L81 43L81 43L81 44L81 44L81 44L81 45L81 45L80 46L80 46L80 47L80 47L80 48L80 48L80 49L80 49L79 50L79 50L79 50L79 51L79 51L79 52L78 52L78 52L77 52L76 53L76 53L75 53L74 53L74 54L73 54L72 54L72 54L71 55L70 55L70 55L69 55L68 56L68 56L67 56L66 56L65 56L64 56L63 56L62 57L61 57L60 57L58 57L57 57L56 57L56 58L55 58L54 58L53 59L52 59L52 60L52 60L51 61L50 62L50 62L50 63L50 64L49 64L49 64L48 64L48 64L47 64L47 63L47 63L47 63L46 63L45 63L44 63L43 63L42 63L42 63L41 62L41 62L41 62L40 62L39 62L38 62L38 62L37 62L37 62L36 62L36 63L36 63L36 62L36 63L35 62L35 62L35 62L34 62L34 62L34 62L34 62L34 62L33 62L33 63L33 63L33 63L33 63L33 64L33 64L33 64L33 65L33 65L33 65L33 65L33 65L33 66L32 66L32 66L32 66L32 66L31 66L31 65L31 65L31 65L31 64L31 64L30 64L30 63L30 63L30 62L29 61L28 60L27 60L27 59L26 58L26 57L26 57L25 56L25 56L25 56L24 54L24 54L24 53L24 53L24 53L23 53L23 52L21 51L20 51L20 50L19 50L19 49L18 48L17 46L18 46L18 46L17 45L17 45L17 44L17 44L17 43L17 42L17 42L17 41L17 41L17 40L17 40L16 40H17L16 40L16 39L16 39L16 38L15 37L15 36L14 36L13 35L13 35L13 34L12 34L12 34L12 34L11 34L11 33L10 33L10 32L10 32L10 31L10 31L10 30L10 30L9 28L9 28L8 28L8 27L8 27L7 26L6 24L6 24L6 23L5 22L4 22L4 21L3 19L2 18L2 18L1 18L0 18L0 18L0 18L0 17L1 16L1 15L1 12L2 12L3 13L4 13L5 13L5 13L6 13L6 12L7 12L8 11L8 10L8 10L9 10L10 10L11 10L11 10L11 9L12 8L12 8L12 8L12 8L13 7L12 6L12 6L11 5L10 4L10 4L9 3L10 3L11 2L12 2L14 2L14 1L16 1L17 1L17 0L18 0L18 0L20 0L21 1L22 1L23 1L24 2L25 2L26 3L27 4L28 4L29 5L30 5L31 6L32 7L33 8L34 9L35 10L37 11L38 12L39 13L39 13L40 13L42 13L44 14L45 14L46 14ZM8 28L8 28L7 28L8 28L8 28L8 28L8 28L8 28ZM9 30H9L8 29L8 29L8 29L7 28L7 28L7 28L8 28L8 28L8 29L9 29L9 29L9 30ZM28 65L29 65L29 65L29 65L29 65L29 65L29 66L29 66L29 66L29 66L29 65L29 65L28 65L28 65L28 65L28 64L28 64L28 64L28 64L28 64L28 64L28 64L28 65L28 65L28 65L28 65Z" fill="var(--fill-0,#71B219)" stroke="var(--stroke-0,white)" mask="url(#path-1-inside-1_0_100)"/></g></svg>