<svg preserveAspectRatio="none" width="100%" height="100%" overflow="visible" style="display: block;" viewBox="0 0 81.1714 66.4462" fill="none" xmlns="http://www.w3.org/2000/svg">
<g id="SA">
<mask id="path-1-inside-1_0_100" fill="white">
<path d="M46.0074 13.4793L46.753 13.574L47.7476 13.7002L48.3515 13.7866L49.4878 13.9471L49.8276 14.6109L49.9514 15.076L50.0656 15.5286L50.4068 15.9415L51.1813 15.9319L51.8678 15.9236L52.7139 15.9099L53.3852 15.9003L53.6011 16.3105L53.6961 16.7192L54.095 17.6862L54.6646 18.4393L54.8008 18.7136L54.8915 19.1265L54.7925 19.2801L54.754 19.4571L55.1763 19.8685L55.8724 20.2169L56.1448 20.3047L56.4544 20.4584L56.2136 20.6957L56.6249 21.2443L57.1023 21.8026L57.614 21.9288L58.3047 22.771L59.3461 23.3155L59.9775 24.0288L59.9184 24.0425L59.7327 23.9698L59.5002 23.8724L59.43 23.9602L59.4424 24.2592L59.5043 24.6104L59.8262 24.9135L60.1123 25.1316L60.2238 25.5445L59.9982 26.432H59.9197L59.7684 26.3552L59.6075 26.3373L59.5208 26.3881L59.712 27.0259L59.9032 27.5142L60.1316 27.901L60.3228 28.4662L60.4865 28.7076L61.1565 29.307L61.3628 29.8076L61.554 30.739L61.975 31.2575L62.202 31.6566L62.506 31.9954L62.7041 32.4577L62.9847 32.813L63.1306 32.9021L63.3493 32.9391L63.6217 32.9405L63.9477 32.8486L64.2958 32.7622L64.5668 32.9419L64.8474 32.9144L64.8763 33.0818L64.6879 33.3095L64.4567 33.8829L64.7855 33.9734L65.1006 34.0187L65.3234 34.1105H65.4542V34.2299L65.4693 34.7731L65.5477 34.9802L65.6908 35.164L65.9026 35.4383L66.1145 35.7126L66.3263 35.987L66.5382 36.2613L66.75 36.5357L66.9633 36.81L67.1751 37.0829L67.387 37.3573L67.5988 37.6302L67.8107 37.9032L68.0226 38.1762L68.2344 38.4491L68.4463 38.7221L68.6581 38.995L68.8714 39.268L69.0832 39.5396L69.258 39.7646L69.5826 39.8071L69.6858 39.8208L69.9788 39.8592L70.4327 39.9182L71.0216 39.9964L71.719 40.0883L72.4963 40.1898L73.3286 40.2995L74.187 40.412L75.0468 40.5244L75.8777 40.6342L76.655 40.737L77.3525 40.8276L77.9427 40.9058L78.3966 40.9648L78.6897 41.0032L78.7929 41.0169L79.0997 41.0566L79.1574 41.0471L79.4147 40.7137L79.6981 41.1842L79.9333 41.5738L80.2552 42.1087L80.5991 42.6766L80.9266 43.2198L81.1714 43.623L81.0407 44.0414L80.899 44.4982L80.7573 44.9549L80.6157 45.4103L80.4726 45.8657L80.3309 46.3211L80.1892 46.7765L80.0475 47.2305L79.9058 47.6845L79.7627 48.1386L79.621 48.5926L79.4794 49.0452L79.3376 49.4979L79.1945 49.9505L79.0529 50.4032L78.9112 50.8545L78.7694 51.3058L78.5989 51.8489L78.1875 51.993L77.5245 52.2261L76.86 52.4593L76.1969 52.6925L75.5338 52.9257L74.8694 53.1588L74.2063 53.3907L73.5432 53.6239L72.8787 53.857L72.2157 54.0888L71.5512 54.3207L70.8882 54.5538L70.225 54.7856L69.5606 55.0175L68.8975 55.2493L68.233 55.4811L67.5699 55.7129L67.0252 55.9036L66.1186 56.0311L65.2381 56.1546L64.2477 56.2945L63.0577 56.4632L62.1236 56.5949L60.7617 56.7869L59.5387 56.9584L58.3927 57.1202L57.2468 57.2821L56.2714 57.4193L55.6895 57.5784L55.0057 57.9282L53.9561 58.4645L52.8858 59.009L52.3314 59.2916L51.7509 60.0158L51.4565 60.3821L50.9254 61.0446L50.5237 61.5438L50.0436 62.1405L49.8345 62.67L49.5113 63.4875L49.232 63.6933L48.7752 63.9594L48.3598 64.1487L47.7118 64.1212L47.3418 63.6192L46.9497 63.0856L46.753 62.8716L46.5769 62.8606L45.9262 62.9279L45.142 63.0102L44.2176 62.9238L43.1514 62.8222L42.1513 62.7276L41.6533 62.6563L40.9971 62.3106L40.8279 62.242L40.6559 62.2256L39.8772 62.2173L39.1055 62.2091L38.3323 62.3188L37.5923 62.2791L36.8246 62.3422L36.5549 62.4738L36.255 62.467L36.0679 62.5836L35.9029 62.6384L35.7076 62.5383L35.4682 62.5602L35.1159 62.4738L34.8862 62.2475L34.6689 62.0486L34.4446 61.9389L34.1943 61.8703L33.9769 61.8689L33.699 61.9897L33.5298 62.1062L33.1006 62.4972L33.0827 62.6371L33.278 62.8703L33.2189 62.98L32.9658 63.1171L32.8873 63.4861L32.8502 63.6878L32.8131 64.1706L32.9259 64.5506L33.0758 64.6905L33.0827 64.8537L33.0002 65.1801L32.7677 65.2803L32.5971 65.5903L32.4925 65.7343L32.3109 65.8989L31.5887 66.4462L31.5529 66.128L31.3232 65.6561L31.3067 65.3228L31.1994 64.9881L31.0013 64.7302L30.6354 64.4614L30.6023 64.0965L30.3354 63.7358L29.9819 63.445L29.7851 62.9073L29.6366 62.1926L28.7039 61.2517L27.5373 60.3821L27.1824 59.8923L26.6018 58.8924L26.3088 58.101L25.5287 57.1888L25.4957 56.8377L25.3802 56.4097L25.2 55.9324L25.0913 55.5565L24.3086 53.9023L24.0554 53.6389L23.838 53.2686L23.7817 52.9819L23.7128 52.8256L23.1598 52.554L22.6439 51.8572L21.0935 50.7461L20.3341 50.635L19.733 50.2372L19.29 49.7173L18.8181 48.8203L17.9872 47.8491L17.2829 46.4693L17.5043 45.9659L17.4906 45.612L17.2732 45.0153L17.038 44.5544L16.8757 44.1182L17.0036 43.4914L17.0531 42.7891L17.192 42.416L17.2925 42.0059L17.1618 41.1801L16.928 40.737L16.9513 40.4421L16.6858 40.2981L16.4712 39.9772H16.6955L16.2882 39.5314L16.1383 39.2831L15.9842 38.6768L15.7875 38.2132L15.1561 37.1597L14.8534 36.5164L14.1766 35.6838L13.4419 35.068L12.9755 34.7882L12.7499 34.533L12.3689 34.5248L11.9534 34.1599L11.6632 34.1462L11.2958 34.0872L10.8639 33.3836L10.5075 32.7238L9.89955 31.8638L10.0522 31.6388L10.2297 31.2726L10.1416 30.7925L10.0453 30.4661L9.77713 29.8707L8.89524 28.3866L8.66139 28.1685L8.28581 27.9175L8.05474 27.2728L7.94878 26.694L7.34489 26.4128L6.30624 24.3196L5.70362 23.5857L5.46566 23.092L4.76958 22.2785L4.427 21.4679L3.72539 20.719L3.11739 19.4173L2.17773 18.1128L1.78293 17.8865L0.814467 17.7932L0.407233 17.6972L0.0330825 17.9839L0 17.6204L0.258698 17.117L0.631506 16.0581L0.705731 15.1281L1.29181 12.3546L2.11451 12.4972L2.79135 12.6152L3.78047 12.788L4.80393 12.9663L5.40235 13.0706L5.60739 13.0253L6.43555 12.345L7.18116 11.7304L7.62828 10.9774L8.0602 10.2463L8.25836 10.0954L8.92143 9.95826L9.97377 9.74017L11.0152 9.52484L11.0992 9.45075L11.3412 8.86233L11.6494 8.11475L11.7127 8.03656L11.7884 7.95974L12.534 7.54001L12.9865 7.28488L12.3414 6.53186L11.7334 5.81995L11.051 5.02164L10.4732 4.39893L9.60785 3.46617L9.04108 2.85443L10.033 2.56363L11.106 2.24951L12.1887 1.93267L13.4914 1.55133L14.5109 1.25232L16.0324 0.805133L16.7766 0.587043L16.9114 0.529444L17.4837 0L18.3449 0.1481L19.6394 0.371716L20.8899 0.585662L22.2078 0.839458L22.6302 1.0452L23.9027 1.80236L24.7295 2.29342L25.6952 2.86539L26.9018 3.58003L27.7299 4.0697L28.7906 4.69655L29.6174 5.41119L30.6643 6.31511L31.8143 7.30547L32.7608 8.0736L34.0649 9.12977L35.3499 10.1681L36.6086 11.1818L37.6156 11.9924L38.8909 13.0157L38.9899 13.0541L40.279 13.1693L42.0109 13.3257L43.7512 13.4821L45.3222 13.6233L46.0074 13.4793ZM7.64474 28.0766L7.60897 28.1342L7.44666 27.9847L7.45632 27.6569L7.59662 27.4703L7.58562 27.7254L7.64616 27.9833L7.64474 28.0766ZM8.8279 29.4757H8.72605L8.455 29.189L8.29681 28.9778L8.13451 28.8351L7.39435 28.5485L7.29393 28.3633L7.40678 28.1781L7.48654 28.3619L7.62139 28.4703L8.23359 28.7295L8.91589 29.2946L9.03286 29.3413L8.8279 29.4757ZM28.4645 65.0636L28.763 65.0869L28.6393 64.9593L28.6131 64.8976L28.7424 64.7138L29.1688 65.0923L29.1565 65.5409L29.1207 65.6438L29.0052 65.5477L28.9295 65.4531L28.9061 65.3516L28.7878 65.2419L28.3723 65.3132L28.1137 65.1911L27.7437 64.8139L27.6446 64.5409L27.7987 64.4874L27.9624 64.3558L28.0655 64.1404L27.9706 63.9168L28.1907 63.9525L28.309 64.1816L28.3324 64.7014L28.3654 64.8112L28.3049 64.9305L28.4645 65.0636Z"/>
</mask>
<path d="M46.0074 13.4793L46.753 13.574L47.7476 13.7002L48.3515 13.7866L49.4878 13.9471L49.8276 14.6109L49.9514 15.076L50.0656 15.5286L50.4068 15.9415L51.1813 15.9319L51.8678 15.9236L52.7139 15.9099L53.3852 15.9003L53.6011 16.3105L53.6961 16.7192L54.095 17.6862L54.6646 18.4393L54.8008 18.7136L54.8915 19.1265L54.7925 19.2801L54.754 19.4571L55.1763 19.8685L55.8724 20.2169L56.1448 20.3047L56.4544 20.4584L56.2136 20.6957L56.6249 21.2443L57.1023 21.8026L57.614 21.9288L58.3047 22.771L59.3461 23.3155L59.9775 24.0288L59.9184 24.0425L59.7327 23.9698L59.5002 23.8724L59.43 23.9602L59.4424 24.2592L59.5043 24.6104L59.8262 24.9135L60.1123 25.1316L60.2238 25.5445L59.9982 26.432H59.9197L59.7684 26.3552L59.6075 26.3373L59.5208 26.3881L59.712 27.0259L59.9032 27.5142L60.1316 27.901L60.3228 28.4662L60.4865 28.7076L61.1565 29.307L61.3628 29.8076L61.554 30.739L61.975 31.2575L62.202 31.6566L62.506 31.9954L62.7041 32.4577L62.9847 32.813L63.1306 32.9021L63.3493 32.9391L63.6217 32.9405L63.9477 32.8486L64.2958 32.7622L64.5668 32.9419L64.8474 32.9144L64.8763 33.0818L64.6879 33.3095L64.4567 33.8829L64.7855 33.9734L65.1006 34.0187L65.3234 34.1105H65.4542V34.2299L65.4693 34.7731L65.5477 34.9802L65.6908 35.164L65.9026 35.4383L66.1145 35.7126L66.3263 35.987L66.5382 36.2613L66.75 36.5357L66.9633 36.81L67.1751 37.0829L67.387 37.3573L67.5988 37.6302L67.8107 37.9032L68.0226 38.1762L68.2344 38.4491L68.4463 38.7221L68.6581 38.995L68.8714 39.268L69.0832 39.5396L69.258 39.7646L69.5826 39.8071L69.6858 39.8208L69.9788 39.8592L70.4327 39.9182L71.0216 39.9964L71.719 40.0883L72.4963 40.1898L73.3286 40.2995L74.187 40.412L75.0468 40.5244L75.8777 40.6342L76.655 40.737L77.3525 40.8276L77.9427 40.9058L78.3966 40.9648L78.6897 41.0032L78.7929 41.0169L79.0997 41.0566L79.1574 41.0471L79.4147 40.7137L79.6981 41.1842L79.9333 41.5738L80.2552 42.1087L80.5991 42.6766L80.9266 43.2198L81.1714 43.623L81.0407 44.0414L80.899 44.4982L80.7573 44.9549L80.6157 45.4103L80.4726 45.8657L80.3309 46.3211L80.1892 46.7765L80.0475 47.2305L79.9058 47.6845L79.7627 48.1386L79.621 48.5926L79.4794 49.0452L79.3376 49.4979L79.1945 49.9505L79.0529 50.4032L78.9112 50.8545L78.7694 51.3058L78.5989 51.8489L78.1875 51.993L77.5245 52.2261L76.86 52.4593L76.1969 52.6925L75.5338 52.9257L74.8694 53.1588L74.2063 53.3907L73.5432 53.6239L72.8787 53.857L72.2157 54.0888L71.5512 54.3207L70.8882 54.5538L70.225 54.7856L69.5606 55.0175L68.8975 55.2493L68.233 55.4811L67.5699 55.7129L67.0252 55.9036L66.1186 56.0311L65.2381 56.1546L64.2477 56.2945L63.0577 56.4632L62.1236 56.5949L60.7617 56.7869L59.5387 56.9584L58.3927 57.1202L57.2468 57.2821L56.2714 57.4193L55.6895 57.5784L55.0057 57.9282L53.9561 58.4645L52.8858 59.009L52.3314 59.2916L51.7509 60.0158L51.4565 60.3821L50.9254 61.0446L50.5237 61.5438L50.0436 62.1405L49.8345 62.67L49.5113 63.4875L49.232 63.6933L48.7752 63.9594L48.3598 64.1487L47.7118 64.1212L47.3418 63.6192L46.9497 63.0856L46.753 62.8716L46.5769 62.8606L45.9262 62.9279L45.142 63.0102L44.2176 62.9238L43.1514 62.8222L42.1513 62.7276L41.6533 62.6563L40.9971 62.3106L40.8279 62.242L40.6559 62.2256L39.8772 62.2173L39.1055 62.2091L38.3323 62.3188L37.5923 62.2791L36.8246 62.3422L36.5549 62.4738L36.255 62.467L36.0679 62.5836L35.9029 62.6384L35.7076 62.5383L35.4682 62.5602L35.1159 62.4738L34.8862 62.2475L34.6689 62.0486L34.4446 61.9389L34.1943 61.8703L33.9769 61.8689L33.699 61.9897L33.5298 62.1062L33.1006 62.4972L33.0827 62.6371L33.278 62.8703L33.2189 62.98L32.9658 63.1171L32.8873 63.4861L32.8502 63.6878L32.8131 64.1706L32.9259 64.5506L33.0758 64.6905L33.0827 64.8537L33.0002 65.1801L32.7677 65.2803L32.5971 65.5903L32.4925 65.7343L32.3109 65.8989L31.5887 66.4462L31.5529 66.128L31.3232 65.6561L31.3067 65.3228L31.1994 64.9881L31.0013 64.7302L30.6354 64.4614L30.6023 64.0965L30.3354 63.7358L29.9819 63.445L29.7851 62.9073L29.6366 62.1926L28.7039 61.2517L27.5373 60.3821L27.1824 59.8923L26.6018 58.8924L26.3088 58.101L25.5287 57.1888L25.4957 56.8377L25.3802 56.4097L25.2 55.9324L25.0913 55.5565L24.3086 53.9023L24.0554 53.6389L23.838 53.2686L23.7817 52.9819L23.7128 52.8256L23.1598 52.554L22.6439 51.8572L21.0935 50.7461L20.3341 50.635L19.733 50.2372L19.29 49.7173L18.8181 48.8203L17.9872 47.8491L17.2829 46.4693L17.5043 45.9659L17.4906 45.612L17.2732 45.0153L17.038 44.5544L16.8757 44.1182L17.0036 43.4914L17.0531 42.7891L17.192 42.416L17.2925 42.0059L17.1618 41.1801L16.928 40.737L16.9513 40.4421L16.6858 40.2981L16.4712 39.9772H16.6955L16.2882 39.5314L16.1383 39.2831L15.9842 38.6768L15.7875 38.2132L15.1561 37.1597L14.8534 36.5164L14.1766 35.6838L13.4419 35.068L12.9755 34.7882L12.7499 34.533L12.3689 34.5248L11.9534 34.1599L11.6632 34.1462L11.2958 34.0872L10.8639 33.3836L10.5075 32.7238L9.89955 31.8638L10.0522 31.6388L10.2297 31.2726L10.1416 30.7925L10.0453 30.4661L9.77713 29.8707L8.89524 28.3866L8.66139 28.1685L8.28581 27.9175L8.05474 27.2728L7.94878 26.694L7.34489 26.4128L6.30624 24.3196L5.70362 23.5857L5.46566 23.092L4.76958 22.2785L4.427 21.4679L3.72539 20.719L3.11739 19.4173L2.17773 18.1128L1.78293 17.8865L0.814467 17.7932L0.407233 17.6972L0.0330825 17.9839L0 17.6204L0.258698 17.117L0.631506 16.0581L0.705731 15.1281L1.29181 12.3546L2.11451 12.4972L2.79135 12.6152L3.78047 12.788L4.80393 12.9663L5.40235 13.0706L5.60739 13.0253L6.43555 12.345L7.18116 11.7304L7.62828 10.9774L8.0602 10.2463L8.25836 10.0954L8.92143 9.95826L9.97377 9.74017L11.0152 9.52484L11.0992 9.45075L11.3412 8.86233L11.6494 8.11475L11.7127 8.03656L11.7884 7.95974L12.534 7.54001L12.9865 7.28488L12.3414 6.53186L11.7334 5.81995L11.051 5.02164L10.4732 4.39893L9.60785 3.46617L9.04108 2.85443L10.033 2.56363L11.106 2.24951L12.1887 1.93267L13.4914 1.55133L14.5109 1.25232L16.0324 0.805133L16.7766 0.587043L16.9114 0.529444L17.4837 0L18.3449 0.1481L19.6394 0.371716L20.8899 0.585662L22.2078 0.839458L22.6302 1.0452L23.9027 1.80236L24.7295 2.29342L25.6952 2.86539L26.9018 3.58003L27.7299 4.0697L28.7906 4.69655L29.6174 5.41119L30.6643 6.31511L31.8143 7.30547L32.7608 8.0736L34.0649 9.12977L35.3499 10.1681L36.6086 11.1818L37.6156 11.9924L38.8909 13.0157L38.9899 13.0541L40.279 13.1693L42.0109 13.3257L43.7512 13.4821L45.3222 13.6233L46.0074 13.4793ZM7.64474 28.0766L7.60897 28.1342L7.44666 27.9847L7.45632 27.6569L7.59662 27.4703L7.58562 27.7254L7.64616 27.9833L7.64474 28.0766ZM8.8279 29.4757H8.72605L8.455 29.189L8.29681 28.9778L8.13451 28.8351L7.39435 28.5485L7.29393 28.3633L7.40678 28.1781L7.48654 28.3619L7.62139 28.4703L8.23359 28.7295L8.91589 29.2946L9.03286 29.3413L8.8279 29.4757ZM28.4645 65.0636L28.763 65.0869L28.6393 64.9593L28.6131 64.8976L28.7424 64.7138L29.1688 65.0923L29.1565 65.5409L29.1207 65.6438L29.0052 65.5477L28.9295 65.4531L28.9061 65.3516L28.7878 65.2419L28.3723 65.3132L28.1137 65.1911L27.7437 64.8139L27.6446 64.5409L27.7987 64.4874L27.9624 64.3558L28.0655 64.1404L27.9706 63.9168L28.1907 63.9525L28.309 64.1816L28.3324 64.7014L28.3654 64.8112L28.3049 64.9305L28.4645 65.0636Z" fill="var(--fill-0, #71B219)" stroke="var(--stroke-0, white)" mask="url(#path-1-inside-1_0_100)"/>
</g>
</svg>
