<svg preserveAspectRatio="none" width="100%" height="100%" overflow="visible" style="display: block;" viewBox="0 0 43 20" fill="none" xmlns="http://www.w3.org/2000/svg"><g id="SB"><mask id="path-1-inside-1_0_53" fill="white"><path d="M7 3L7 3L7 3L6 3L6 3L6 3L6 3L6 3L5 2L4 1L3 1L3 0L3 0L3 0L4 0L4 1L5 1L6 1L6 2L6 2L6 3L7 3L7 3L7 3ZM1 2L0 2L0 2L0 2L0 1L1 2L1 2ZM16 7L16 8L16 7L15 7L14 6L14 6L14 6L13 6L13 6L12 5L12 5L12 5L12 5L11 4L11 4L11 4L11 4L12 4L12 4L13 5L13 5L13 5L14 5L14 5L14 5L14 6L16 7L16 7L16 7L16 7ZM4 5L4 5L4 5L4 5L4 5L3 4L3 4L3 4L4 4L4 4L4 4L4 4L4 5L4 5ZM6 6L6 6L5 6L5 5L5 5L5 5L6 5L6 5L6 5L6 5L6 6L6 6ZM4 6L4 6L3 6L3 5L3 5L3 5L4 6L4 6ZM8 6L8 7L9 7L8 8L8 8L8 8L8 7L8 7L7 7L7 7L7 6L7 6L6 6L6 7L6 7L6 6L6 6L6 6L6 6L7 5L7 5L7 5L8 6L8 6L8 6ZM20 7L20 8L20 8L20 8L20 8L20 9L21 9L21 9L21 10L21 10L22 10L22 10L22 11L22 12L22 12L22 12L21 11L21 10L21 10L20 10L20 9L19 8L19 7L19 7L19 7L19 7L19 7L19 7L20 7ZM16 7L15 7L15 7L15 7L15 7L15 7L15 7L15 7L16 7ZM7 8V8L6 8L6 8L6 7L6 7L7 7L7 7L7 8L6 8L6 8L7 8ZM9 8L9 8L9 8L8 8L9 8L9 8L9 8L9 8L9 7L9 7L10 8L9 8L9 8L9 8L9 8ZM10 8L10 9L10 8L10 8L10 8L10 8L10 8ZM8 8L8 8L7 8L7 8L7 8L7 8L7 8L8 8L8 8ZM14 10L14 10L13 10L13 10L13 10L13 9L13 9L13 9L14 9L14 9L14 10L14 10ZM17 9L18 9L18 9L18 10L18 10L18 10L18 10L18 10L18 10L18 10L17 10L17 10L17 9L17 9ZM16 10L17 11L17 11L18 11L19 11L19 12L19 12L20 12L20 12L20 13L20 13L19 13L19 13L18 13L18 12L17 12L16 12L16 12L16 12L16 12L15 11L15 11L15 11L15 10L16 10L16 10ZM23 12L23 12L23 12L22 12L22 12L22 12L22 12L22 11L22 11L22 11L22 11L23 12ZM23 15L24 15L24 15L24 15L25 15L25 15L26 16L26 16L26 16L26 16L25 16L25 16L25 16L24 16L24 16L23 15L23 15L22 15L22 14L22 14L22 14L22 14L22 14L22 14L22 14L23 14L23 15L23 15ZM40 16L40 16L40 16L40 16L40 16L39 16L39 16L39 16L39 16L39 16L39 16L40 16L40 16L40 16L40 16L40 16L40 16ZM19 20L19 20L18 20L18 20L18 20L18 20L17 20L17 19L17 19L17 19L17 19L17 19L17 19L17 19L18 20L19 20L19 20ZM43 20L43 20L43 20L43 19L43 19L43 19L43 20L43 20Z"/></mask><path d="M7 3L7 3L7 3L6 3L6 3L6 3L6 3L6 3L5 2L4 1L3 1L3 0L3 0L3 0L4 0L4 1L5 1L6 1L6 2L6 2L6 3L7 3L7 3L7 3ZM1 2L0 2L0 2L0 2L0 1L1 2L1 2ZM16 7L16 8L16 7L15 7L14 6L14 6L14 6L13 6L13 6L12 5L12 5L12 5L12 5L11 4L11 4L11 4L11 4L12 4L12 4L13 5L13 5L13 5L14 5L14 5L14 5L14 6L16 7L16 7L16 7L16 7ZM4 5L4 5L4 5L4 5L4 5L3 4L3 4L3 4L4 4L4 4L4 4L4 4L4 5L4 5ZM6 6L6 6L5 6L5 5L5 5L5 5L6 5L6 5L6 5L6 5L6 6L6 6ZM4 6L4 6L3 6L3 5L3 5L3 5L4 6L4 6ZM8 6L8 7L9 7L8 8L8 8L8 8L8 7L8 7L7 7L7 7L7 6L7 6L6 6L6 7L6 7L6 6L6 6L6 6L6 6L7 5L7 5L7 5L8 6L8 6L8 6ZM20 7L20 8L20 8L20 8L20 8L20 9L21 9L21 9L21 10L21 10L22 10L22 10L22 11L22 12L22 12L22 12L21 11L21 10L21 10L20 10L20 9L19 8L19 7L19 7L19 7L19 7L19 7L19 7L20 7ZM16 7L15 7L15 7L15 7L15 7L15 7L15 7L15 7L16 7ZM7 8V8L6 8L6 8L6 7L6 7L7 7L7 7L7 8L6 8L6 8L7 8ZM9 8L9 8L9 8L8 8L9 8L9 8L9 8L9 8L9 7L9 7L10 8L9 8L9 8L9 8L9 8ZM10 8L10 9L10 8L10 8L10 8L10 8L10 8ZM8 8L8 8L7 8L7 8L7 8L7 8L7 8L8 8L8 8ZM14 10L14 10L13 10L13 10L13 10L13 9L13 9L13 9L14 9L14 9L14 10L14 10ZM17 9L18 9L18 9L18 10L18 10L18 10L18 10L18 10L18 10L18 10L17 10L17 10L17 9L17 9ZM16 10L17 11L17 11L18 11L19 11L19 12L19 12L20 12L20 12L20 13L20 13L19 13L19 13L18 13L18 12L17 12L16 12L16 12L16 12L16 12L15 11L15 11L15 11L15 10L16 10L16 10ZM23 12L23 12L23 12L22 12L22 12L22 12L22 12L22 11L22 11L22 11L22 11L23 12ZM23 15L24 15L24 15L24 15L25 15L25 15L26 16L26 16L26 16L26 16L25 16L25 16L25 16L24 16L24 16L23 15L23 15L22 15L22 14L22 14L22 14L22 14L22 14L22 14L22 14L23 14L23 15L23 15ZM40 16L40 16L40 16L40 16L40 16L39 16L39 16L39 16L39 16L39 16L39 16L40 16L40 16L40 16L40 16L40 16L40 16ZM19 20L19 20L18 20L18 20L18 20L18 20L17 20L17 19L17 19L17 19L17 19L17 19L17 19L17 19L18 20L19 20L19 20ZM43 20L43 20L43 20L43 19L43 19L43 19L43 20L43 20Z" fill="var(--fill-0,#71B219)" stroke="var(--stroke-0,white)" mask="url(#path-1-inside-1_0_53)"/></g></svg>