<svg preserveAspectRatio="none" width="100%" height="100%" overflow="visible" style="display: block;" viewBox="0 0 43.4417 20.2457" fill="none" xmlns="http://www.w3.org/2000/svg">
<g id="SB">
<mask id="path-1-inside-1_0_53" fill="white">
<path d="M6.98578 2.78033L7.1082 2.91613L6.8097 3.14657L6.41624 3.02174L6.32958 2.89143L6.31993 2.82286L6.04486 2.86678L5.49866 2.75292L4.7365 2.2015L3.93035 1.16316L3.15585 0.588425L3.01143 0.410101L2.99212 0.113817L3.09674 0L3.5782 0.123445L4.20139 0.59801L5.2235 1.09045L5.50143 1.34148L5.67885 1.94364L5.85224 2.1233L6.40389 2.58556L6.69551 2.69394L6.84958 2.71449L6.98578 2.78033ZM0.627307 1.8819L0.239386 1.97382L0 1.85037L0.105965 1.55681L0.238043 1.40457L0.723616 1.67477L0.627307 1.8819ZM16.2208 7.42892L16.2277 7.51808L15.7091 7.19572L15.3156 6.80068L14.1944 6.37137L13.9537 6.15052L13.7515 6.1231L13.1764 5.76373L12.611 5.52094L12.267 5.20821L12.1791 5.08062L11.9727 5.00381L11.6177 4.66089L11.2725 4.43321L11.1501 4.01759L10.8171 3.73227L10.7332 3.60744L11.8021 3.83788L12.2974 4.29328L12.7211 4.55118L12.8682 4.7377L13.2494 4.99422L13.5919 5.01754L13.9344 5.27539L14.2467 5.344L14.493 5.47841L16.0819 6.62923L15.892 6.93514L16.1025 7.15733L16.2208 7.42892ZM3.90012 5.06693L3.82581 5.12039L3.6965 4.91192L3.60297 4.84746L3.60574 4.61564L3.21639 4.23844L3.18473 3.97782L3.41035 3.72268L3.71439 3.87083L4.01566 4.19181L4.36924 4.29604L4.29627 4.50865L3.97855 4.89133L3.90012 5.06693ZM5.7697 5.78156L5.68439 5.83916L5.26339 5.81723L4.94423 5.41805L4.94701 5.12315L5.19873 4.85294L5.50277 4.80493L5.66928 4.90916L5.82335 5.1355L5.8797 5.42354L5.84535 5.67867L5.7697 5.78156ZM3.57543 6.02707L3.52866 6.1231L3.32781 5.64577L3.33747 5.4057L3.37181 5.25208L3.44612 5.20545L3.60842 5.73627L3.57543 6.02707ZM8.05331 6.30004L8.29547 6.61554L8.57474 7.32054L8.52386 7.56333L8.32436 7.57706L8.26793 7.7293L7.99832 7.38639L7.63785 7.29451L7.37512 7.08462L7.2857 6.66904L7.25959 6.40703L7.0532 6.36178L6.46166 6.42759L6.27316 6.6512L6.00354 6.57987L5.94578 6.37823L5.987 6.1807L6.34747 5.98592L6.42178 5.73493L6.77947 5.30419L7.00089 5.23014L7.41912 5.38515L7.47001 5.99827L7.61997 6.19853L8.05331 6.30004ZM19.5816 6.57711L20.5391 7.7293L20.502 7.93371L20.3713 8.06536L20.3341 8.45218L20.4552 8.60033L20.7166 8.66889L21.1609 9.08176L21.3384 9.58793L21.3549 9.74293L21.5406 9.97199L21.5475 10.4562L21.9699 11.1283L22.007 11.452L21.9684 11.5974L21.7924 11.5124L21.2875 10.7497L20.7097 10.4205L20.6437 10.2792L20.0604 9.83482L19.6697 9.08728L19.2459 7.75949L19.4454 7.44537L18.9681 6.80207L18.9914 6.63061L19.1923 6.67037L19.3327 6.66217L19.4 6.58536L19.5816 6.57711ZM15.4821 7.32741L15.2977 7.37952L15.024 7.23691L14.9057 7.10794L14.9621 6.9063L15.1216 6.82948L15.3032 6.96528L15.3225 7.10383L15.4821 7.32741ZM6.60751 8.123V8.17921L6.39424 8.07084L5.92512 7.54826L6.00909 7.37404L6.43966 7.03527L6.57174 6.98997L6.69274 7.19986L6.5882 7.50983L6.44655 7.58803L6.38878 7.87883L6.60751 8.123ZM9.38367 8.00914L9.00397 8.31501L8.72605 8.21216L8.50178 7.95016L8.57608 7.63466L8.6174 7.55098L8.72882 7.53315L8.84024 7.46868L8.96132 7.32879L9.37535 7.43989L9.4772 7.5167L9.23093 7.71009L9.31347 7.77183L9.36713 7.86372L9.38367 8.00914ZM9.74128 8.54134L9.65462 8.55641L9.5652 8.40279L9.7757 7.98582L9.87747 8.32187L9.94355 8.44808L9.74128 8.54134ZM7.59663 8.29856L7.58831 8.43435L7.3669 8.39182L6.87435 8.18746L6.85647 8.0942L7.13708 8.05987L7.3407 8.08595L7.51132 8.20529L7.59663 8.29856ZM13.5547 9.70999L13.5039 9.71962L13.3222 9.6716L13.1021 9.65649L12.9673 9.52208L13.1269 9.33003L13.3277 9.20524L13.4199 9.23676L13.5065 9.31772L13.7088 9.34786L13.7308 9.59479L13.5547 9.70999ZM17.3365 9.21345L17.5594 9.26833L17.6667 9.26008L17.9212 9.46858L18.2609 9.77583L18.1221 9.93494L17.8456 9.85265L17.7534 9.88559L17.7245 9.86362L17.6667 9.70999L17.3654 9.55774L17.0957 9.5454L17.0614 9.36435L17.3365 9.21345ZM15.7242 10.2875L16.5744 10.9102L16.9403 10.8526L18.0574 10.8636L18.7164 11.308L19.1029 11.5124L19.3202 11.9101L19.5885 12.0007L19.7536 12.2037L19.8486 12.574L19.7811 12.6344L19.44 12.7729L19.1923 12.8305L18.5444 12.6989L17.9253 12.4136L16.6941 12.3793L16.1204 12.2983L15.9223 12.19L15.7394 12.0446L15.4504 11.6989L15.2248 11.2929L15.1877 11.0542L15.1684 10.6016L15.2386 10.4356L15.4738 10.271L15.7242 10.2875ZM22.6632 11.6564L22.7058 12.072L22.6866 12.2147L22.3936 11.9101L22.256 12.0185L22.1281 11.8745L22.1377 11.559L22.1583 11.2229L22.1005 10.9678L21.9548 10.6002L22.1184 10.6592L22.6632 11.6564ZM23.3111 14.6137L23.7968 14.8428L24.0802 14.8044L24.4998 14.9621L24.8176 14.8729L25.017 15.076L25.5191 15.8701L25.5233 16.128L25.852 16.3118L25.5742 16.3461L25.1876 16.2515L24.8877 16.3159L24.5741 16.1623L24.0458 16.0827L23.5863 15.8976L22.6261 15.3119L22.6315 15.0197L22.4761 14.877L22.4307 14.515L22.0867 14.4011L21.6851 14.3791L21.6534 14.2077L21.7277 13.9046L22.0276 13.9087L22.388 14.0349L23.0759 14.4765L23.2465 14.552L23.3111 14.6137ZM40.367 16.0553L40.0588 16.1225L39.9612 16.1033L39.73 16.139L39.4811 16.4202L39.2981 16.3804L39.155 16.3914L39.0463 16.1609L39.0436 16.0485L39.2197 16.0663L39.3118 15.8413L39.5016 15.7289L39.9446 15.6767L40.3381 15.7508L40.4784 15.8016L40.3547 16.0046L40.367 16.0553ZM18.9117 20.1113L18.6434 20.2457L18.3971 20.1786L18.2101 20.0771L18.0587 19.7767L17.7314 19.5887L17.2649 19.5106L17.0737 19.3803L17.0242 19.3158L16.7009 19.2581L16.6087 19.0949L16.6363 18.9262L16.6886 18.837L16.9871 18.9194L18.4219 19.7122L18.7631 19.9577L18.9117 20.1113ZM43.4417 19.5929L43.1005 19.6559L42.9643 19.6409L42.7387 19.3034L42.9065 19.2266L43.1569 19.2554L43.2326 19.4543L43.4417 19.5929Z"/>
</mask>
<path d="M6.98578 2.78033L7.1082 2.91613L6.8097 3.14657L6.41624 3.02174L6.32958 2.89143L6.31993 2.82286L6.04486 2.86678L5.49866 2.75292L4.7365 2.2015L3.93035 1.16316L3.15585 0.588425L3.01143 0.410101L2.99212 0.113817L3.09674 0L3.5782 0.123445L4.20139 0.59801L5.2235 1.09045L5.50143 1.34148L5.67885 1.94364L5.85224 2.1233L6.40389 2.58556L6.69551 2.69394L6.84958 2.71449L6.98578 2.78033ZM0.627307 1.8819L0.239386 1.97382L0 1.85037L0.105965 1.55681L0.238043 1.40457L0.723616 1.67477L0.627307 1.8819ZM16.2208 7.42892L16.2277 7.51808L15.7091 7.19572L15.3156 6.80068L14.1944 6.37137L13.9537 6.15052L13.7515 6.1231L13.1764 5.76373L12.611 5.52094L12.267 5.20821L12.1791 5.08062L11.9727 5.00381L11.6177 4.66089L11.2725 4.43321L11.1501 4.01759L10.8171 3.73227L10.7332 3.60744L11.8021 3.83788L12.2974 4.29328L12.7211 4.55118L12.8682 4.7377L13.2494 4.99422L13.5919 5.01754L13.9344 5.27539L14.2467 5.344L14.493 5.47841L16.0819 6.62923L15.892 6.93514L16.1025 7.15733L16.2208 7.42892ZM3.90012 5.06693L3.82581 5.12039L3.6965 4.91192L3.60297 4.84746L3.60574 4.61564L3.21639 4.23844L3.18473 3.97782L3.41035 3.72268L3.71439 3.87083L4.01566 4.19181L4.36924 4.29604L4.29627 4.50865L3.97855 4.89133L3.90012 5.06693ZM5.7697 5.78156L5.68439 5.83916L5.26339 5.81723L4.94423 5.41805L4.94701 5.12315L5.19873 4.85294L5.50277 4.80493L5.66928 4.90916L5.82335 5.1355L5.8797 5.42354L5.84535 5.67867L5.7697 5.78156ZM3.57543 6.02707L3.52866 6.1231L3.32781 5.64577L3.33747 5.4057L3.37181 5.25208L3.44612 5.20545L3.60842 5.73627L3.57543 6.02707ZM8.05331 6.30004L8.29547 6.61554L8.57474 7.32054L8.52386 7.56333L8.32436 7.57706L8.26793 7.7293L7.99832 7.38639L7.63785 7.29451L7.37512 7.08462L7.2857 6.66904L7.25959 6.40703L7.0532 6.36178L6.46166 6.42759L6.27316 6.6512L6.00354 6.57987L5.94578 6.37823L5.987 6.1807L6.34747 5.98592L6.42178 5.73493L6.77947 5.30419L7.00089 5.23014L7.41912 5.38515L7.47001 5.99827L7.61997 6.19853L8.05331 6.30004ZM19.5816 6.57711L20.5391 7.7293L20.502 7.93371L20.3713 8.06536L20.3341 8.45218L20.4552 8.60033L20.7166 8.66889L21.1609 9.08176L21.3384 9.58793L21.3549 9.74293L21.5406 9.97199L21.5475 10.4562L21.9699 11.1283L22.007 11.452L21.9684 11.5974L21.7924 11.5124L21.2875 10.7497L20.7097 10.4205L20.6437 10.2792L20.0604 9.83482L19.6697 9.08728L19.2459 7.75949L19.4454 7.44537L18.9681 6.80207L18.9914 6.63061L19.1923 6.67037L19.3327 6.66217L19.4 6.58536L19.5816 6.57711ZM15.4821 7.32741L15.2977 7.37952L15.024 7.23691L14.9057 7.10794L14.9621 6.9063L15.1216 6.82948L15.3032 6.96528L15.3225 7.10383L15.4821 7.32741ZM6.60751 8.123V8.17921L6.39424 8.07084L5.92512 7.54826L6.00909 7.37404L6.43966 7.03527L6.57174 6.98997L6.69274 7.19986L6.5882 7.50983L6.44655 7.58803L6.38878 7.87883L6.60751 8.123ZM9.38367 8.00914L9.00397 8.31501L8.72605 8.21216L8.50178 7.95016L8.57608 7.63466L8.6174 7.55098L8.72882 7.53315L8.84024 7.46868L8.96132 7.32879L9.37535 7.43989L9.4772 7.5167L9.23093 7.71009L9.31347 7.77183L9.36713 7.86372L9.38367 8.00914ZM9.74128 8.54134L9.65462 8.55641L9.5652 8.40279L9.7757 7.98582L9.87747 8.32187L9.94355 8.44808L9.74128 8.54134ZM7.59663 8.29856L7.58831 8.43435L7.3669 8.39182L6.87435 8.18746L6.85647 8.0942L7.13708 8.05987L7.3407 8.08595L7.51132 8.20529L7.59663 8.29856ZM13.5547 9.70999L13.5039 9.71962L13.3222 9.6716L13.1021 9.65649L12.9673 9.52208L13.1269 9.33003L13.3277 9.20524L13.4199 9.23676L13.5065 9.31772L13.7088 9.34786L13.7308 9.59479L13.5547 9.70999ZM17.3365 9.21345L17.5594 9.26833L17.6667 9.26008L17.9212 9.46858L18.2609 9.77583L18.1221 9.93494L17.8456 9.85265L17.7534 9.88559L17.7245 9.86362L17.6667 9.70999L17.3654 9.55774L17.0957 9.5454L17.0614 9.36435L17.3365 9.21345ZM15.7242 10.2875L16.5744 10.9102L16.9403 10.8526L18.0574 10.8636L18.7164 11.308L19.1029 11.5124L19.3202 11.9101L19.5885 12.0007L19.7536 12.2037L19.8486 12.574L19.7811 12.6344L19.44 12.7729L19.1923 12.8305L18.5444 12.6989L17.9253 12.4136L16.6941 12.3793L16.1204 12.2983L15.9223 12.19L15.7394 12.0446L15.4504 11.6989L15.2248 11.2929L15.1877 11.0542L15.1684 10.6016L15.2386 10.4356L15.4738 10.271L15.7242 10.2875ZM22.6632 11.6564L22.7058 12.072L22.6866 12.2147L22.3936 11.9101L22.256 12.0185L22.1281 11.8745L22.1377 11.559L22.1583 11.2229L22.1005 10.9678L21.9548 10.6002L22.1184 10.6592L22.6632 11.6564ZM23.3111 14.6137L23.7968 14.8428L24.0802 14.8044L24.4998 14.9621L24.8176 14.8729L25.017 15.076L25.5191 15.8701L25.5233 16.128L25.852 16.3118L25.5742 16.3461L25.1876 16.2515L24.8877 16.3159L24.5741 16.1623L24.0458 16.0827L23.5863 15.8976L22.6261 15.3119L22.6315 15.0197L22.4761 14.877L22.4307 14.515L22.0867 14.4011L21.6851 14.3791L21.6534 14.2077L21.7277 13.9046L22.0276 13.9087L22.388 14.0349L23.0759 14.4765L23.2465 14.552L23.3111 14.6137ZM40.367 16.0553L40.0588 16.1225L39.9612 16.1033L39.73 16.139L39.4811 16.4202L39.2981 16.3804L39.155 16.3914L39.0463 16.1609L39.0436 16.0485L39.2197 16.0663L39.3118 15.8413L39.5016 15.7289L39.9446 15.6767L40.3381 15.7508L40.4784 15.8016L40.3547 16.0046L40.367 16.0553ZM18.9117 20.1113L18.6434 20.2457L18.3971 20.1786L18.2101 20.0771L18.0587 19.7767L17.7314 19.5887L17.2649 19.5106L17.0737 19.3803L17.0242 19.3158L16.7009 19.2581L16.6087 19.0949L16.6363 18.9262L16.6886 18.837L16.9871 18.9194L18.4219 19.7122L18.7631 19.9577L18.9117 20.1113ZM43.4417 19.5929L43.1005 19.6559L42.9643 19.6409L42.7387 19.3034L42.9065 19.2266L43.1569 19.2554L43.2326 19.4543L43.4417 19.5929Z" fill="var(--fill-0, #71B219)" stroke="var(--stroke-0, white)" mask="url(#path-1-inside-1_0_53)"/>
</g>
</svg>
