<svg preserveAspectRatio="none" width="100%" height="100%" overflow="visible" style="display: block;" viewBox="0 0 0.613968 0.870656" fill="none" xmlns="http://www.w3.org/2000/svg">
<g id="SC">
<mask id="path-1-inside-1_0_178" fill="white">
<path d="M0.602987 0.514976L0.613968 0.870657L0.428537 0.751174L0.376311 0.521849L0.129098 0.35019L0 0.193619L0.278817 0L0.602987 0.514976Z"/>
</mask>
<path d="M0.602987 0.514976L0.613968 0.870657L0.428537 0.751174L0.376311 0.521849L0.129098 0.35019L0 0.193619L0.278817 0L0.602987 0.514976Z" fill="var(--fill-0, #71B219)"/>
<path d="M0.602987 0.514976L1.10275 0.499546L1.09855 0.363664L1.02613 0.248613L0.602987 0.514976ZM0.613968 0.870656L0.343147 1.29096L1.1431 1.80641L1.11373 0.855226L0.613968 0.870656ZM0.428537 0.751174L-0.0589802 0.8622L-0.0136998 1.06103L0.157715 1.17148L0.428537 0.751174ZM0.376311 0.521849L0.863829 0.410823L0.82077 0.221751L0.66149 0.11115L0.376311 0.521849ZM0.129098 0.35019L-0.256678 0.668274L-0.212771 0.721524L-0.156081 0.760889L0.129098 0.35019ZM0 0.193619L-0.285194 -0.217069L-0.731261 0.092693L-0.385776 0.511702L0 0.193619ZM0.278817 0L0.701962 -0.266363L0.42329 -0.709061L-0.00637612 -0.410688L0.278817 0ZM0.602987 0.514976L0.103225 0.530406L0.114207 0.886087L0.613968 0.870656L1.11373 0.855226L1.10275 0.499546L0.602987 0.514976ZM0.613968 0.870656L0.88479 0.450352L0.699359 0.33087L0.428537 0.751174L0.157715 1.17148L0.343147 1.29096L0.613968 0.870656ZM0.428537 0.751174L0.916055 0.640149L0.863829 0.410823L0.376311 0.521849L-0.111206 0.632875L-0.0589802 0.8622L0.428537 0.751174ZM0.376311 0.521849L0.66149 0.11115L0.414276 -0.0605082L0.129098 0.35019L-0.156081 0.760889L0.0911331 0.932548L0.376311 0.521849ZM0.129098 0.35019L0.514874 0.0321071L0.385776 -0.124464L0 0.193619L-0.385776 0.511702L-0.256678 0.668274L0.129098 0.35019ZM0 0.193619L0.285194 0.604307L0.564011 0.410688L0.278817 0L-0.00637612 -0.410688L-0.285194 -0.217069L0 0.193619ZM0.278817 0L-0.144327 0.266363L0.179843 0.781339L0.602987 0.514976L1.02613 0.248613L0.701962 -0.266363L0.278817 0Z" fill="var(--stroke-0, white)" mask="url(#path-1-inside-1_0_178)"/>
</g>
</svg>
