<svg preserveAspectRatio="none" width="100%" height="100%" overflow="visible" style="display: block;" viewBox="0 0 65 54" fill="none" xmlns="http://www.w3.org/2000/svg"><g id="SD"><mask id="path-1-inside-1_0_45" fill="white"><path d="M37 0L37 1H38H39H40H42L43 1H44H45H47H48H49H50L52 1H53H54H56H57L58 1L58 2L58 2L59 4L59 4L60 4L60 5L60 5L59 5L59 4L59 5L59 5L59 6L60 7L59 7L59 8L60 10L60 11L60 13L60 14L61 14L61 14L61 14L62 15L63 16L63 16L63 16L63 16L64 16L64 16L65 17L65 17L64 17L64 18L64 18L64 18L64 18L64 18L64 19L64 19L63 19L63 19L63 19L63 19L63 19L62 19L62 19L62 19L62 19L62 19L62 19L61 20L61 20L61 20L61 20L61 20L60 21L60 21L60 21H60L59 21L59 21L59 21L59 21L58 22L58 22L58 22L58 23L58 23L58 24L58 25L58 25L58 26L57 26L57 28L57 28L56 29L56 29L56 30L57 31L57 32L56 33L56 34L56 34L56 35L56 35L56 35L56 36L55 37L55 37L55 38L55 38L55 38L55 38L54 38L54 38L54 38L53 39L53 40L52 40L52 41L51 42L51 42L51 42L51 43L51 44L51 44L51 45L51 45L50 46L50 46L50 46L50 46L49 45L49 45L49 45L49 46L48 46L48 47L48 48L48 48L48 48L48 49L48 49L48 50L47 51L47 51H47L47 51L47 51L47 51L46 51L46 51L46 51L46 50L46 50L47 50L47 49L47 49L47 49V49L47 49L47 49L47 49L47 49L47 49L47 48L47 48L47 48L47 48L45 47L45 46L45 46L44 46L44 46L44 46L44 46L44 46L44 46L44 46L44 45L43 42L43 42L43 42L44 42L44 42L44 42L44 42L44 42L44 42L44 41L44 40L44 40L42 40L42 40L42 40L42 40L42 40L42 40L42 40L42 40L42 40L42 40L42 41L42 41L42 41L42 41L40 41L41 42L41 42L41 42L41 42L41 42L41 43L41 44L41 44L41 44L41 44L41 45L39 46L39 46L39 47L38 47L38 47L38 48L36 50L36 50L35 50L35 50L35 50L35 50L35 50L34 50L34 50L34 50L33 49L32 48L31 48L30 48L30 48L30 48L30 49L30 49L30 50L29 50L28 50L28 50L28 50V50L27 50L27 51L27 51L27 51L24 51L24 51L23 50L23 50L23 50L20 50L20 50L19 51L19 51L18 50L17 49L16 49L16 48L16 48L16 48L16 48L16 48L16 47L16 47L15 47L13 48L13 47L13 48L12 48L12 48L12 48L12 48L12 48L12 49L12 49L11 50L12 50L11 50L11 51L11 51L11 51L11 51L11 52L11 52L11 52L10 52L10 53L10 53L10 53L9 54L9 54L9 54L9 54L8 54L7 54L7 54L7 53L7 53L7 53L6 53L6 52L6 52L7 52L7 51L7 50L7 50L7 49L7 49L6 48L6 47L6 47L4 46L4 46L4 45L4 45L4 44L4 44L4 44L4 43L4 43L4 43L3 43L3 43L3 42L3 42L3 41L3 41L3 41L2 41L2 40L2 40L2 39L2 39L2 38L2 38L1 38L1 38L0 38L0 38L0 38L0 38L0 38L0 37L1 36L1 36L2 36L2 36L2 35L2 35L2 35L1 34L1 34L1 34L1 34L1 33L2 33L2 33L2 33L2 33L3 33L3 32L3 32L3 32L2 32L2 32L2 31L2 31L2 31L2 31L2 31L3 30L3 30L3 30L3 30L3 30L3 30L4 29L4 29L4 29L4 28L4 28L4 28L4 27L5 27L5 26L6 26L6 26L7 26L7 26L8 26L8 26L8 26L8 26L8 25L8 24L8 22L8 20L8 18L8 16L8 15L8 13L8 11V11V10V10V9L9 9H10H11L12 9L12 9L12 9L12 9L12 9L12 7V5L12 3V1H14L15 1H17H18H20H21H22L24 1H26H27H28H30L31 1H33H34H36H36L36 1L37 0L37 0L37 0L37 0L37 0Z"/></mask><path d="M37 0L37 1H38H39H40H42L43 1H44H45H47H48H49H50L52 1H53H54H56H57L58 1L58 2L58 2L59 4L59 4L60 4L60 5L60 5L59 5L59 4L59 5L59 5L59 6L60 7L59 7L59 8L60 10L60 11L60 13L60 14L61 14L61 14L61 14L62 15L63 16L63 16L63 16L63 16L64 16L64 16L65 17L65 17L64 17L64 18L64 18L64 18L64 18L64 18L64 19L64 19L63 19L63 19L63 19L63 19L63 19L62 19L62 19L62 19L62 19L62 19L62 19L61 20L61 20L61 20L61 20L61 20L60 21L60 21L60 21H60L59 21L59 21L59 21L59 21L58 22L58 22L58 22L58 23L58 23L58 24L58 25L58 25L58 26L57 26L57 28L57 28L56 29L56 29L56 30L57 31L57 32L56 33L56 34L56 34L56 35L56 35L56 35L56 36L55 37L55 37L55 38L55 38L55 38L55 38L54 38L54 38L54 38L53 39L53 40L52 40L52 41L51 42L51 42L51 42L51 43L51 44L51 44L51 45L51 45L50 46L50 46L50 46L50 46L49 45L49 45L49 45L49 46L48 46L48 47L48 48L48 48L48 48L48 49L48 49L48 50L47 51L47 51H47L47 51L47 51L47 51L46 51L46 51L46 51L46 50L46 50L47 50L47 49L47 49L47 49V49L47 49L47 49L47 49L47 49L47 49L47 48L47 48L47 48L47 48L45 47L45 46L45 46L44 46L44 46L44 46L44 46L44 46L44 46L44 46L44 45L43 42L43 42L43 42L44 42L44 42L44 42L44 42L44 42L44 42L44 41L44 40L44 40L42 40L42 40L42 40L42 40L42 40L42 40L42 40L42 40L42 40L42 40L42 41L42 41L42 41L42 41L40 41L41 42L41 42L41 42L41 42L41 42L41 43L41 44L41 44L41 44L41 44L41 45L39 46L39 46L39 47L38 47L38 47L38 48L36 50L36 50L35 50L35 50L35 50L35 50L35 50L34 50L34 50L34 50L33 49L32 48L31 48L30 48L30 48L30 48L30 49L30 49L30 50L29 50L28 50L28 50L28 50V50L27 50L27 51L27 51L27 51L24 51L24 51L23 50L23 50L23 50L20 50L20 50L19 51L19 51L18 50L17 49L16 49L16 48L16 48L16 48L16 48L16 48L16 47L16 47L15 47L13 48L13 47L13 48L12 48L12 48L12 48L12 48L12 48L12 49L12 49L11 50L12 50L11 50L11 51L11 51L11 51L11 51L11 52L11 52L11 52L10 52L10 53L10 53L10 53L9 54L9 54L9 54L9 54L8 54L7 54L7 54L7 53L7 53L7 53L6 53L6 52L6 52L7 52L7 51L7 50L7 50L7 49L7 49L6 48L6 47L6 47L4 46L4 46L4 45L4 45L4 44L4 44L4 44L4 43L4 43L4 43L3 43L3 43L3 42L3 42L3 41L3 41L3 41L2 41L2 40L2 40L2 39L2 39L2 38L2 38L1 38L1 38L0 38L0 38L0 38L0 38L0 38L0 37L1 36L1 36L2 36L2 36L2 35L2 35L2 35L1 34L1 34L1 34L1 34L1 33L2 33L2 33L2 33L2 33L3 33L3 32L3 32L3 32L2 32L2 32L2 31L2 31L2 31L2 31L2 31L3 30L3 30L3 30L3 30L3 30L3 30L4 29L4 29L4 29L4 28L4 28L4 28L4 27L5 27L5 26L6 26L6 26L7 26L7 26L8 26L8 26L8 26L8 26L8 25L8 24L8 22L8 20L8 18L8 16L8 15L8 13L8 11V11V10V10V9L9 9H10H11L12 9L12 9L12 9L12 9L12 9L12 7V5L12 3V1H14L15 1H17H18H20H21H22L24 1H26H27H28H30L31 1H33H34H36H36L36 1L37 0L37 0L37 0L37 0L37 0Z" fill="var(--fill-0,#71B219)" stroke="var(--stroke-0,white)" mask="url(#path-1-inside-1_0_45)"/></g></svg>