<svg preserveAspectRatio="none" width="100%" height="100%" overflow="visible" style="display: block;" viewBox="0 0 64.802 53.8694" fill="none" xmlns="http://www.w3.org/2000/svg">
<g id="SD">
<mask id="path-1-inside-1_0_45" fill="white">
<path d="M37.2235 0.485575L37.0996 0.853188H37.8219H39.0889H40.3559H41.6229L42.89 0.851807H44.1556H45.4226H46.6896H47.9566H49.2237H50.4893L51.7577 0.850426H53.0233H54.2903H55.5574H56.8243L58.0914 0.849044L58.134 1.79001L58.3046 2.54031L58.9017 3.61159L59.4052 4.18771L59.5867 4.50454L59.6033 4.6513L59.5798 4.78848L59.4272 4.63075L59.1686 4.52376L59.1328 5.0244L59.1919 5.37967L59.2538 6.04767L59.4657 6.76368L59.313 7.42482L59.3337 8.54411L59.6005 9.88283L59.5468 10.736L59.983 12.7222L60.4067 13.8223L60.6392 14.0925L60.9019 14.2379L61.4054 14.3312L62.1469 14.8894L62.7343 15.4792L62.9434 15.7879L63.2268 16.1253L63.4222 16.0649L63.5418 15.9744L63.7331 16.2474L64.6645 16.8358L64.802 17.1088L64.4663 17.3763L64.0797 17.8371L63.9821 18.0209L63.9367 18.1293L63.8913 18.2664L63.7895 18.4022L63.568 18.5888L63.48 18.6697L63.4277 18.7987L63.2942 18.8823L63.1484 18.8865L63.0218 18.9441L62.8307 19.0319L62.5458 18.9866L62.2556 19.0675L62.1497 19.169L61.9185 19.2582L61.6888 19.2774L61.6076 19.3075L61.3903 19.4571L61.1234 19.667L60.8111 19.8L60.701 19.8439L60.558 19.9879L60.3365 20.7067L60.1742 20.8946L59.9018 20.9138H59.5483L59.2415 20.9755L58.8247 20.896L58.6224 20.9055L58.5687 21.0592L58.4944 21.6751L58.5041 21.9398L58.339 22.2511L58.1547 22.6421L58.222 23.3005L58.2537 23.952L57.9153 24.9314L57.8671 25.1563L57.5246 25.9313L57.3485 26.2207L56.911 27.6665L56.7405 28.1109L56.3745 28.5786L56.4571 29.3399L56.5451 30.1451L56.6276 30.905L56.7515 32.0394L56.4405 33.0983L56.453 33.6757L56.2356 34.5262L56.0636 34.9199L55.9109 35.1517L55.783 35.3931L55.5464 35.9225L55.3455 36.6207L55.256 37.3353L55.2492 37.751L55.2093 37.9403L55.1419 38.0609L54.6783 38.1391L54.0331 38.2242L53.6864 38.3175L53.4539 38.4628L53.1678 38.8017L52.601 39.7289L52.3052 40.2968L51.8402 41.0731L51.2996 41.6218L51.1854 41.8893L51.096 42.3858L50.8965 43.1718L50.7136 43.7287L50.7466 44.1786L50.576 44.9563L50.6007 45.3349L50.4109 45.5461L50.1564 45.7464L49.9831 45.7972L49.6116 45.5681L49.3282 45.3363L49.2127 45.2745L48.9664 45.42L48.6706 45.6353L48.3322 46.1373L48.0694 46.6449L48.2208 47.7216L48.207 47.9562L48.1299 48.2126L47.72 49.0137L47.6183 49.2675L47.4696 49.7476L47.3115 50.5856L47.3059 50.7873H47.3018L46.5837 50.7845L46.5713 50.7804L46.5603 50.7681L46.5493 50.7502L46.537 50.7242L46.5094 50.6144L46.4943 50.443L46.5191 50.1467L46.5988 49.7942L46.8478 49.299L46.8602 49.2579L46.863 49.2346V49.2085L46.8396 49.1193L46.8107 49.0425L46.7969 48.9273L46.8396 48.6694L46.8437 48.5899L46.8382 48.4884L46.8189 48.4225L46.6456 47.9932L46.5878 47.9246L44.9163 46.557L44.6109 46.1853L44.578 46.1607L44.5366 46.1415L43.6878 45.8287L43.6466 45.7972L43.6521 45.7519L43.6783 45.6929L43.78 45.5118L43.7938 45.4652L43.8089 45.3925L43.4264 42.501L43.4279 42.4448L43.4443 42.4064L43.4581 42.3831L43.5091 42.3214L43.5531 42.2583L43.6039 42.1458L43.6163 42.1047L43.6699 41.5861L43.6658 41.1335L43.8887 40.3777L43.9134 40.0554L42.0701 40.032L42.0591 40.0485L42.0576 40.0691L42.0618 40.091L42.0645 40.1157L42.0632 40.1665L42.0494 40.2598L42.0453 40.3105L42.0466 40.3599L42.0755 40.5423L42.1237 40.6781L42.1306 40.7234L42.1334 40.7728L42.1278 40.8674L39.5622 40.8784L40.5774 42.0141L40.5898 42.0374L40.6077 42.0991L40.6146 42.1458L40.6338 42.5449L40.5802 43.1759L40.5912 43.5819L40.6504 43.8453L40.9254 44.3637L40.9076 44.4612L40.8443 44.5832L39.0243 46.1222L38.9733 46.195L38.7203 46.8369L38.4795 47.2086L38.3736 47.3156L37.9512 47.8382L36.2908 49.4774L36.0184 49.5871L35.1916 49.6323L34.7541 49.6447L34.7046 49.657L34.6303 49.6844L34.5849 49.727L34.5313 49.7585L34.4776 49.7421L34.4157 49.6968L33.3949 48.7792L31.5735 47.6201L31.3988 47.7257L30.3684 48.225L30.1565 48.354L30.0382 48.4458L30.0327 49.0041L29.8526 49.2867L29.5279 49.5967L28.6364 49.7928L28.1728 49.9602L27.6982 50.2112L27.6212 50.2743V50.2729L27.4396 50.4471L27.0805 50.7969L27.042 51.0684L27.0997 51.3126L24.0279 51.303L23.8256 51.1083L23.3991 50.2523L23.3799 50.2441L23.0662 50.2976L20.2653 50.1975L19.865 50.2866L19.0643 50.6405L18.6613 50.6995L18.2458 50.5376L16.7724 48.8313L16.4547 48.6269L16.3377 48.5172L16.1203 48.2182L15.8054 48.0398L15.6994 47.9109L15.665 47.7284L15.6746 47.3526L15.5714 47.1181L15.3389 47.0646L13.3579 47.461L13.0745 47.4157L12.6591 47.487L12.516 47.557L12.3482 47.7819L12.3138 48.0151L12.3193 48.2511L12.2684 48.4829L12.1171 48.7421L11.5531 49.321L11.4279 49.5733L11.454 50.2098L11.4169 50.5321L11.3316 50.6817L11.0867 50.9258L10.9972 51.0671L10.956 51.266L10.9422 51.6857L10.8982 51.8819L10.5901 52.3756L10.5171 52.5499L10.4992 52.9051L10.4498 53.0135L9.5542 53.2947L9.21985 53.4743L9.01489 53.7515L8.96535 53.8694L8.58154 53.7706L8.09454 53.6993L7.15774 53.6115L6.78762 53.4826L6.6102 53.2892L6.66662 52.7954L6.573 52.6898L6.42446 52.602L6.32127 52.388L6.34327 52.1315L6.83715 51.5609L6.93901 51.2564L7.01743 50.1961L7.06831 49.823L7.03112 49.3854L6.63908 48.5803L6.29793 48.0206L5.74073 47.1908L5.52334 46.9192L4.39804 45.7752L4.26739 45.6051L3.995 45.1209L4.12985 44.6944L4.29493 44.0606L4.31416 43.7671L4.23707 43.464L3.95235 43.2363L3.69919 43.2088L3.58642 43.0936L3.36627 42.9263L3.14896 42.796L2.95635 42.5463L2.82293 42.1965L2.91781 40.9442L2.85315 40.7769L2.56565 40.7302L2.49823 40.6397L2.50923 40.3997L2.35515 39.685L2.18185 39.0925L2.27396 38.766L2.03466 38.3188L1.57511 38.1268L1.14176 38.1858L0.676847 38.2749L0.39615 38.2502L0.20496 38.1666L0.0687679 38.0033L0 37.8086L0.0632261 37.5178L0.319153 36.9828L0.636963 36.5439L1.28484 36.142L1.4568 35.9294L1.55588 35.6921L1.57242 35.4205L1.52834 35.1338L1.45546 34.8718L1.26427 34.5248L1.08954 34.1161L1.08542 33.8417L1.16931 33.6442L1.34269 33.4055L1.68662 33.1367L1.76916 33.0832L1.98512 32.9392L2.17353 32.8336L2.64408 32.551L2.75416 32.4152L2.71419 32.252L2.59865 32.1189L2.40881 31.9324L2.37027 31.7033L2.31527 31.3124L2.21762 31.0627L2.14742 30.8803L2.28084 30.7431L2.48035 30.5525L2.72939 30.4359L3.11319 30.3371L3.2645 30.1999L3.3085 29.9393L3.29616 29.6897L3.43512 29.5045L3.62077 29.1067L3.77073 28.9257L4.02254 28.7186L4.27427 28.4593L4.38569 28.1576L4.41735 27.8681L4.27973 26.9875L4.57 26.6199L4.94146 26.3154L5.47523 26.336L6.30339 26.2688L6.86747 26.1426L7.26916 26.1467L8.18673 26.3113L8.26239 26.2715L8.28304 26.2386L8.33258 26.0054L8.33116 25.4183L8.32981 23.6406L8.32838 21.8602L8.32704 20.0757L8.3257 18.2857L8.32427 16.4915L8.32293 14.6933L8.32158 12.8895L8.32016 11.0817V10.5742V10.068V9.56051V9.05162L9.27216 9.053H10.2255H11.1775L12.1294 9.05438L12.1419 9.04613L12.1542 9.03927L12.1652 9.03106L12.1776 9.02554L12.179 6.99274V4.95307L12.1804 2.90654V0.853188H13.6551L15.1312 0.854528H16.606H18.0807H19.5554H21.0302H22.5063L23.9811 0.855909H25.4558H26.9306H28.4053H29.88L31.3548 0.857291H32.8296H34.3057H35.7804H36.2303L36.4283 0.82711L36.8067 0.0575992L36.9676 0L37.2138 0.0452505L37.2991 0.226336L37.2235 0.485575Z"/>
</mask>
<path d="M37.2235 0.485575L37.0996 0.853188H37.8219H39.0889H40.3559H41.6229L42.89 0.851807H44.1556H45.4226H46.6896H47.9566H49.2237H50.4893L51.7577 0.850426H53.0233H54.2903H55.5574H56.8243L58.0914 0.849044L58.134 1.79001L58.3046 2.54031L58.9017 3.61159L59.4052 4.18771L59.5867 4.50454L59.6033 4.6513L59.5798 4.78848L59.4272 4.63075L59.1686 4.52376L59.1328 5.0244L59.1919 5.37967L59.2538 6.04767L59.4657 6.76368L59.313 7.42482L59.3337 8.54411L59.6005 9.88283L59.5468 10.736L59.983 12.7222L60.4067 13.8223L60.6392 14.0925L60.9019 14.2379L61.4054 14.3312L62.1469 14.8894L62.7343 15.4792L62.9434 15.7879L63.2268 16.1253L63.4222 16.0649L63.5418 15.9744L63.7331 16.2474L64.6645 16.8358L64.802 17.1088L64.4663 17.3763L64.0797 17.8371L63.9821 18.0209L63.9367 18.1293L63.8913 18.2664L63.7895 18.4022L63.568 18.5888L63.48 18.6697L63.4277 18.7987L63.2942 18.8823L63.1484 18.8865L63.0218 18.9441L62.8307 19.0319L62.5458 18.9866L62.2556 19.0675L62.1497 19.169L61.9185 19.2582L61.6888 19.2774L61.6076 19.3075L61.3903 19.4571L61.1234 19.667L60.8111 19.8L60.701 19.8439L60.558 19.9879L60.3365 20.7067L60.1742 20.8946L59.9018 20.9138H59.5483L59.2415 20.9755L58.8247 20.896L58.6224 20.9055L58.5687 21.0592L58.4944 21.6751L58.5041 21.9398L58.339 22.2511L58.1547 22.6421L58.222 23.3005L58.2537 23.952L57.9153 24.9314L57.8671 25.1563L57.5246 25.9313L57.3485 26.2207L56.911 27.6665L56.7405 28.1109L56.3745 28.5786L56.4571 29.3399L56.5451 30.1451L56.6276 30.905L56.7515 32.0394L56.4405 33.0983L56.453 33.6757L56.2356 34.5262L56.0636 34.9199L55.9109 35.1517L55.783 35.3931L55.5464 35.9225L55.3455 36.6207L55.256 37.3353L55.2492 37.751L55.2093 37.9403L55.1419 38.0609L54.6783 38.1391L54.0331 38.2242L53.6864 38.3175L53.4539 38.4628L53.1678 38.8017L52.601 39.7289L52.3052 40.2968L51.8402 41.0731L51.2996 41.6218L51.1854 41.8893L51.096 42.3858L50.8965 43.1718L50.7136 43.7287L50.7466 44.1786L50.576 44.9563L50.6007 45.3349L50.4109 45.5461L50.1564 45.7464L49.9831 45.7972L49.6116 45.5681L49.3282 45.3363L49.2127 45.2745L48.9664 45.42L48.6706 45.6353L48.3322 46.1373L48.0694 46.6449L48.2208 47.7216L48.207 47.9562L48.1299 48.2126L47.72 49.0137L47.6183 49.2675L47.4696 49.7476L47.3115 50.5856L47.3059 50.7873H47.3018L46.5837 50.7845L46.5713 50.7804L46.5603 50.7681L46.5493 50.7502L46.537 50.7242L46.5094 50.6144L46.4943 50.443L46.5191 50.1467L46.5988 49.7942L46.8478 49.299L46.8602 49.2579L46.863 49.2346V49.2085L46.8396 49.1193L46.8107 49.0425L46.7969 48.9273L46.8396 48.6694L46.8437 48.5899L46.8382 48.4884L46.8189 48.4225L46.6456 47.9932L46.5878 47.9246L44.9163 46.557L44.6109 46.1853L44.578 46.1607L44.5366 46.1415L43.6878 45.8287L43.6466 45.7972L43.6521 45.7519L43.6783 45.6929L43.78 45.5118L43.7938 45.4652L43.8089 45.3925L43.4264 42.501L43.4279 42.4448L43.4443 42.4064L43.4581 42.3831L43.5091 42.3214L43.5531 42.2583L43.6039 42.1458L43.6163 42.1047L43.6699 41.5861L43.6658 41.1335L43.8887 40.3777L43.9134 40.0554L42.0701 40.032L42.0591 40.0485L42.0576 40.0691L42.0618 40.091L42.0645 40.1157L42.0632 40.1665L42.0494 40.2598L42.0453 40.3105L42.0466 40.3599L42.0755 40.5423L42.1237 40.6781L42.1306 40.7234L42.1334 40.7728L42.1278 40.8674L39.5622 40.8784L40.5774 42.0141L40.5898 42.0374L40.6077 42.0991L40.6146 42.1458L40.6338 42.5449L40.5802 43.1759L40.5912 43.5819L40.6504 43.8453L40.9254 44.3637L40.9076 44.4612L40.8443 44.5832L39.0243 46.1222L38.9733 46.195L38.7203 46.8369L38.4795 47.2086L38.3736 47.3156L37.9512 47.8382L36.2908 49.4774L36.0184 49.5871L35.1916 49.6323L34.7541 49.6447L34.7046 49.657L34.6303 49.6844L34.5849 49.727L34.5313 49.7585L34.4776 49.7421L34.4157 49.6968L33.3949 48.7792L31.5735 47.6201L31.3988 47.7257L30.3684 48.225L30.1565 48.354L30.0382 48.4458L30.0327 49.0041L29.8526 49.2867L29.5279 49.5967L28.6364 49.7928L28.1728 49.9602L27.6982 50.2112L27.6212 50.2743V50.2729L27.4396 50.4471L27.0805 50.7969L27.042 51.0684L27.0997 51.3126L24.0279 51.303L23.8256 51.1083L23.3991 50.2523L23.3799 50.2441L23.0662 50.2976L20.2653 50.1975L19.865 50.2866L19.0643 50.6405L18.6613 50.6995L18.2458 50.5376L16.7724 48.8313L16.4547 48.6269L16.3377 48.5172L16.1203 48.2182L15.8054 48.0398L15.6994 47.9109L15.665 47.7284L15.6746 47.3526L15.5714 47.1181L15.3389 47.0646L13.3579 47.461L13.0745 47.4157L12.6591 47.487L12.516 47.557L12.3482 47.7819L12.3138 48.0151L12.3193 48.2511L12.2684 48.4829L12.1171 48.7421L11.5531 49.321L11.4279 49.5733L11.454 50.2098L11.4169 50.5321L11.3316 50.6817L11.0867 50.9258L10.9972 51.0671L10.956 51.266L10.9422 51.6857L10.8982 51.8819L10.5901 52.3756L10.5171 52.5499L10.4992 52.9051L10.4498 53.0135L9.5542 53.2947L9.21985 53.4743L9.01489 53.7515L8.96535 53.8694L8.58154 53.7706L8.09454 53.6993L7.15774 53.6115L6.78762 53.4826L6.6102 53.2892L6.66662 52.7954L6.573 52.6898L6.42446 52.602L6.32127 52.388L6.34327 52.1315L6.83715 51.5609L6.93901 51.2564L7.01743 50.1961L7.06831 49.823L7.03112 49.3854L6.63908 48.5803L6.29793 48.0206L5.74073 47.1908L5.52334 46.9192L4.39804 45.7752L4.26739 45.6051L3.995 45.1209L4.12985 44.6944L4.29493 44.0606L4.31416 43.7671L4.23707 43.464L3.95235 43.2363L3.69919 43.2088L3.58642 43.0936L3.36627 42.9263L3.14896 42.796L2.95635 42.5463L2.82293 42.1965L2.91781 40.9442L2.85315 40.7769L2.56565 40.7302L2.49823 40.6397L2.50923 40.3997L2.35515 39.685L2.18185 39.0925L2.27396 38.766L2.03466 38.3188L1.57511 38.1268L1.14176 38.1858L0.676847 38.2749L0.39615 38.2502L0.20496 38.1666L0.0687679 38.0033L0 37.8086L0.0632261 37.5178L0.319153 36.9828L0.636963 36.5439L1.28484 36.142L1.4568 35.9294L1.55588 35.6921L1.57242 35.4205L1.52834 35.1338L1.45546 34.8718L1.26427 34.5248L1.08954 34.1161L1.08542 33.8417L1.16931 33.6442L1.34269 33.4055L1.68662 33.1367L1.76916 33.0832L1.98512 32.9392L2.17353 32.8336L2.64408 32.551L2.75416 32.4152L2.71419 32.252L2.59865 32.1189L2.40881 31.9324L2.37027 31.7033L2.31527 31.3124L2.21762 31.0627L2.14742 30.8803L2.28084 30.7431L2.48035 30.5525L2.72939 30.4359L3.11319 30.3371L3.2645 30.1999L3.3085 29.9393L3.29616 29.6897L3.43512 29.5045L3.62077 29.1067L3.77073 28.9257L4.02254 28.7186L4.27427 28.4593L4.38569 28.1576L4.41735 27.8681L4.27973 26.9875L4.57 26.6199L4.94146 26.3154L5.47523 26.336L6.30339 26.2688L6.86747 26.1426L7.26916 26.1467L8.18673 26.3113L8.26239 26.2715L8.28304 26.2386L8.33258 26.0054L8.33116 25.4183L8.32981 23.6406L8.32838 21.8602L8.32704 20.0757L8.3257 18.2857L8.32427 16.4915L8.32293 14.6933L8.32158 12.8895L8.32016 11.0817V10.5742V10.068V9.56051V9.05162L9.27216 9.053H10.2255H11.1775L12.1294 9.05438L12.1419 9.04613L12.1542 9.03927L12.1652 9.03106L12.1776 9.02554L12.179 6.99274V4.95307L12.1804 2.90654V0.853188H13.6551L15.1312 0.854528H16.606H18.0807H19.5554H21.0302H22.5063L23.9811 0.855909H25.4558H26.9306H28.4053H29.88L31.3548 0.857291H32.8296H34.3057H35.7804H36.2303L36.4283 0.82711L36.8067 0.0575992L36.9676 0L37.2138 0.0452505L37.2991 0.226336L37.2235 0.485575Z" fill="var(--fill-0, #71B219)" stroke="var(--stroke-0, white)" mask="url(#path-1-inside-1_0_45)"/>
</g>
</svg>
