<svg preserveAspectRatio="none" width="100%" height="100%" overflow="visible" style="display: block;" viewBox="0 0 50 115" fill="none" xmlns="http://www.w3.org/2000/svg"><g id="SE"><mask id="path-1-inside-1_0_196" fill="white"><path d="M50 32L49 33L48 32L48 32L47 32L47 33L46 33L46 33L46 33L45 32L44 32L44 32L44 32L44 32L43 32L43 32L43 33L43 33L43 34L43 34L42 34L42 34L42 35L42 35L42 35L42 35L42 35L42 36L42 36L41 36L41 36L40 36L40 36L40 37L40 37L40 37L40 37L40 38L40 38L40 37L40 37L40 37L40 38L40 38L40 38L40 39L40 40L39 40L39 41L39 42L39 42L39 42L39 43L40 44L40 45L40 45L40 45L39 46L38 47L37 50L37 50L36 51L36 51L35 52L34 52L33 53L33 53L33 54L33 53L32 53L32 54L32 54L32 53L31 54L31 54L30 55L30 55L30 55L30 56L30 56L30 56L29 56L29 56L29 56L29 56L28 57L28 57L28 57L28 57L28 58L28 58L28 58L28 58L27 59L27 59L27 59L27 59L27 59L27 59L26 59L26 58L26 58L26 59L26 59L26 60L26 60L26 60L26 60L26 61L27 61L26 61L26 62L25 62L25 62L25 62L25 62L24 62L24 62L24 62L24 63L25 64L25 64L25 64L25 64L24 66L24 66L24 67L24 68L24 68L24 68L24 68L23 68L23 68L23 69L23 70L23 70L23 71L23 71L23 71L23 72L23 72L23 73L23 74L23 74L24 75L24 76L24 76L24 77L24 77L25 77L25 77L25 77L25 77L26 77L26 77L26 77L26 78L27 78L27 79L28 79L29 80L28 80L29 81L30 81L30 81L30 82L30 82L30 83L30 84L30 84L29 84L29 85L29 85L28 86L28 86L28 86L27 86L27 86L26 86L26 86L26 86L26 85L26 85L26 84L25 85L25 85L25 85L24 85L24 85L23 85L22 85L22 85L22 85L21 85L21 85L21 85L20 86L19 86L19 86L21 86L22 86L22 86L23 86L23 86L24 87L24 87L24 87L25 87L26 87L26 87L27 87L27 87L28 86L28 86L28 86L28 86L28 86L29 86L29 87L28 87L28 87L28 88L28 88L28 88L27 89L26 89L26 90L26 89L25 90L24 90L24 91L23 91L22 92L21 92L20 92L20 92L20 92L20 92L21 92L21 92L22 92L22 93L22 93L21 93L22 94L22 95L21 95L21 97L21 97L21 98L21 98L21 99L21 100L21 100L21 101L21 102L21 102L21 103L21 103L20 104L20 105L20 106L20 107L19 107L19 109L18 110L18 110L18 110L17 109L17 109L16 110L15 110L14 110L14 110L14 110L14 110L13 110L13 110L13 111L12 111L12 112L12 112L12 113L12 114L12 115L11 115L10 114L8 115L7 115L7 114L7 114L7 113L7 113L7 112L7 112L6 111L6 110L5 109L5 109L5 109L6 109L6 109L6 109L6 108L6 108L6 108L6 108L7 108L7 107L7 106L6 106L6 106L6 105L5 104L4 102L4 100L3 101L3 100L3 99L3 99L2 99L2 98L2 97L2 96L1 96L1 94L1 94L0 94L0 93L0 93L0 92L0 90L0 90L0 89L0 89L0 89L1 88L1 89L1 90L2 90L2 90L2 89L2 88L2 87L2 86L2 85L2 85L3 84L3 83L3 83L3 82L4 82L4 82L4 82L5 81L5 81L5 80L5 79L5 79L6 78L5 77L5 76L4 75L4 74L5 74L5 74L6 73L6 73L6 73L6 72L6 72L7 72L7 71L6 70L6 70L5 69L4 69L4 68L4 66L4 64L4 64L4 63L4 61L4 60L4 60L4 59L4 58L4 58L4 57L4 57L4 57L3 55L4 53L4 52L4 52L5 50L6 49L6 49L6 49L7 48L8 48L8 48L10 48L11 49L11 48L11 48L12 47L12 46L12 45L11 45L10 44L10 44L11 42L12 40L12 38L13 37L13 37L13 34L13 33L14 32L14 32L13 31L13 29L15 29L15 29L16 29L16 28L17 28L16 26L17 25L18 23L20 21L20 20L20 20L20 19L20 18L20 18L19 17L20 16L20 16L20 15L21 15L21 15L22 12L23 11L24 10L25 10L26 11L27 10L27 10L27 9L27 8L27 6L27 5L28 5L28 5L29 6L30 6L30 6L31 6L33 7L34 7L34 7L34 7L35 6L34 5L35 5L35 4L35 3L36 2L36 2L35 1L35 0L36 0L37 0L38 1L38 1L38 1L38 1L39 2L39 3L40 3L40 4L40 4L41 5L41 5L42 6L43 6L43 6L45 7L45 7L46 8L46 8L46 10L47 10L47 10L48 11L48 11L48 12L48 12L48 13L48 14L48 15L48 15L48 15L48 16L48 16L48 16L48 16L48 16L48 17L49 17L49 18L49 18L48 18L48 19L48 19L48 20L48 20L49 21L49 22L49 22L50 22L50 23L49 23L49 24L49 25L49 25L49 26L48 26L48 26L48 27L48 28L48 28L48 28L49 29L49 29L50 30L50 31L50 32ZM29 86L29 86L29 86L29 86L29 85L29 85L29 85L29 85L29 86L29 86ZM28 89L28 89L28 89L28 89L28 88L28 88L28 88L28 89ZM31 97L31 98L31 98L30 97L31 97L31 97L32 97L31 97ZM31 98L30 98L30 98L30 98L30 99L30 100L30 101L30 101L30 101L29 101L29 102L28 102L28 102L28 103L28 104L27 104L27 104L27 104L28 103L27 103L27 102L27 102L27 101L27 100L27 100L27 99L28 99L28 98L28 98L29 98L30 98L30 97L30 97L30 97L31 98ZM21 109L21 109L20 109L20 108L20 107L20 107L21 104L22 104L22 103L22 102L22 102L23 101L23 101L23 101L23 101L23 102L23 102L23 102L22 104L22 105L22 105L21 109Z"/></mask><path d="M50 32L49 33L48 32L48 32L47 32L47 33L46 33L46 33L46 33L45 32L44 32L44 32L44 32L44 32L43 32L43 32L43 33L43 33L43 34L43 34L42 34L42 34L42 35L42 35L42 35L42 35L42 35L42 36L42 36L41 36L41 36L40 36L40 36L40 37L40 37L40 37L40 37L40 38L40 38L40 37L40 37L40 37L40 38L40 38L40 38L40 39L40 40L39 40L39 41L39 42L39 42L39 42L39 43L40 44L40 45L40 45L40 45L39 46L38 47L37 50L37 50L36 51L36 51L35 52L34 52L33 53L33 53L33 54L33 53L32 53L32 54L32 54L32 53L31 54L31 54L30 55L30 55L30 55L30 56L30 56L30 56L29 56L29 56L29 56L29 56L28 57L28 57L28 57L28 57L28 58L28 58L28 58L28 58L27 59L27 59L27 59L27 59L27 59L27 59L26 59L26 58L26 58L26 59L26 59L26 60L26 60L26 60L26 60L26 61L27 61L26 61L26 62L25 62L25 62L25 62L25 62L24 62L24 62L24 62L24 63L25 64L25 64L25 64L25 64L24 66L24 66L24 67L24 68L24 68L24 68L24 68L23 68L23 68L23 69L23 70L23 70L23 71L23 71L23 71L23 72L23 72L23 73L23 74L23 74L24 75L24 76L24 76L24 77L24 77L25 77L25 77L25 77L25 77L26 77L26 77L26 77L26 78L27 78L27 79L28 79L29 80L28 80L29 81L30 81L30 81L30 82L30 82L30 83L30 84L30 84L29 84L29 85L29 85L28 86L28 86L28 86L27 86L27 86L26 86L26 86L26 86L26 85L26 85L26 84L25 85L25 85L25 85L24 85L24 85L23 85L22 85L22 85L22 85L21 85L21 85L21 85L20 86L19 86L19 86L21 86L22 86L22 86L23 86L23 86L24 87L24 87L24 87L25 87L26 87L26 87L27 87L27 87L28 86L28 86L28 86L28 86L28 86L29 86L29 87L28 87L28 87L28 88L28 88L28 88L27 89L26 89L26 90L26 89L25 90L24 90L24 91L23 91L22 92L21 92L20 92L20 92L20 92L20 92L21 92L21 92L22 92L22 93L22 93L21 93L22 94L22 95L21 95L21 97L21 97L21 98L21 98L21 99L21 100L21 100L21 101L21 102L21 102L21 103L21 103L20 104L20 105L20 106L20 107L19 107L19 109L18 110L18 110L18 110L17 109L17 109L16 110L15 110L14 110L14 110L14 110L14 110L13 110L13 110L13 111L12 111L12 112L12 112L12 113L12 114L12 115L11 115L10 114L8 115L7 115L7 114L7 114L7 113L7 113L7 112L7 112L6 111L6 110L5 109L5 109L5 109L6 109L6 109L6 109L6 108L6 108L6 108L6 108L7 108L7 107L7 106L6 106L6 106L6 105L5 104L4 102L4 100L3 101L3 100L3 99L3 99L2 99L2 98L2 97L2 96L1 96L1 94L1 94L0 94L0 93L0 93L0 92L0 90L0 90L0 89L0 89L0 89L1 88L1 89L1 90L2 90L2 90L2 89L2 88L2 87L2 86L2 85L2 85L3 84L3 83L3 83L3 82L4 82L4 82L4 82L5 81L5 81L5 80L5 79L5 79L6 78L5 77L5 76L4 75L4 74L5 74L5 74L6 73L6 73L6 73L6 72L6 72L7 72L7 71L6 70L6 70L5 69L4 69L4 68L4 66L4 64L4 64L4 63L4 61L4 60L4 60L4 59L4 58L4 58L4 57L4 57L4 57L3 55L4 53L4 52L4 52L5 50L6 49L6 49L6 49L7 48L8 48L8 48L10 48L11 49L11 48L11 48L12 47L12 46L12 45L11 45L10 44L10 44L11 42L12 40L12 38L13 37L13 37L13 34L13 33L14 32L14 32L13 31L13 29L15 29L15 29L16 29L16 28L17 28L16 26L17 25L18 23L20 21L20 20L20 20L20 19L20 18L20 18L19 17L20 16L20 16L20 15L21 15L21 15L22 12L23 11L24 10L25 10L26 11L27 10L27 10L27 9L27 8L27 6L27 5L28 5L28 5L29 6L30 6L30 6L31 6L33 7L34 7L34 7L34 7L35 6L34 5L35 5L35 4L35 3L36 2L36 2L35 1L35 0L36 0L37 0L38 1L38 1L38 1L38 1L39 2L39 3L40 3L40 4L40 4L41 5L41 5L42 6L43 6L43 6L45 7L45 7L46 8L46 8L46 10L47 10L47 10L48 11L48 11L48 12L48 12L48 13L48 14L48 15L48 15L48 15L48 16L48 16L48 16L48 16L48 16L48 17L49 17L49 18L49 18L48 18L48 19L48 19L48 20L48 20L49 21L49 22L49 22L50 22L50 23L49 23L49 24L49 25L49 25L49 26L48 26L48 26L48 27L48 28L48 28L48 28L49 29L49 29L50 30L50 31L50 32ZM29 86L29 86L29 86L29 86L29 85L29 85L29 85L29 85L29 86L29 86ZM28 89L28 89L28 89L28 89L28 88L28 88L28 88L28 89ZM31 97L31 98L31 98L30 97L31 97L31 97L32 97L31 97ZM31 98L30 98L30 98L30 98L30 99L30 100L30 101L30 101L30 101L29 101L29 102L28 102L28 102L28 103L28 104L27 104L27 104L27 104L28 103L27 103L27 102L27 102L27 101L27 100L27 100L27 99L28 99L28 98L28 98L29 98L30 98L30 97L30 97L30 97L31 98ZM21 109L21 109L20 109L20 108L20 107L20 107L21 104L22 104L22 103L22 102L22 102L23 101L23 101L23 101L23 101L23 102L23 102L23 102L22 104L22 105L22 105L21 109Z" fill="var(--fill-0,#71B219)" stroke="var(--stroke-0,white)" mask="url(#path-1-inside-1_0_196)"/></g></svg>