<svg preserveAspectRatio="none" width="100%" height="100%" overflow="visible" style="display: block;" viewBox="0 0 50.2348 115.091" fill="none" xmlns="http://www.w3.org/2000/svg">
<g id="SE">
<mask id="path-1-inside-1_0_196" fill="white">
<path d="M50.2348 32.4152L49.2113 32.6319L48.4423 32.1971L48.0585 32.4152L47.3885 32.4248L46.6264 32.5963L46.3691 32.9351L46.1669 33.0708L45.4612 32.5921L44.7939 31.798L44.3069 32.4028L43.992 32.5167L43.7071 31.9694L43.4595 31.8802L43.3261 32.0627L43.2091 32.5469L43.0221 32.9268L42.9725 33.1669L42.9409 34.1325L42.8928 34.3561L42.2448 34.2313L42.2833 34.485L42.425 34.6126L42.4828 34.7731L42.2476 34.983L41.6051 34.9624L41.5391 35.186L41.7193 35.5371L41.5776 35.8457L41.4469 35.9664L40.6778 36.1571L40.2335 36.1132L40.1056 36.3121L40.0712 36.57L40.1551 36.8237L40.3518 36.9581L40.4164 37.1186L40.4028 37.4657L40.239 37.5288L39.7768 36.9184L39.6351 36.9499L39.741 37.2668L40.0052 37.6124L40.1578 37.965L40.2913 38.3874L40.2651 38.7084L39.6901 39.7399L39.1838 40.3887L38.8069 40.9717L38.5841 41.5889L38.8427 41.8989L39.1288 42.3461L39.3311 43.2033L39.5718 43.966L40.0574 44.6916L39.9598 45.11L39.847 45.435L39.0394 46.1497L38.1232 47.2223L37.1355 49.9437L36.8067 50.3072L35.9428 50.764L35.6249 51.2056L34.9811 51.7296L33.8572 52.1795L33.3481 52.805L33.1184 53.4497L32.8626 53.4963L32.6081 53.2439L32.2696 53.056L32.2256 53.4771L32.2407 53.7857L31.6987 53.329L31.4429 53.7487L31.2434 54.4469L30.4633 55.3851L29.6228 55.2164L29.5293 55.381L29.7521 55.5003L29.7865 55.6498L29.6338 55.7294L29.4027 55.7212L29.0464 55.9063L28.8125 55.8926L28.7011 56.3343L28.5195 56.8679L28.0449 57.0887L27.8 57.134L27.6789 57.4371L28.4094 57.5002L28.3517 57.7567L28.3351 58.0132L28.2595 58.2875L27.4286 58.6826L27.3006 58.9926L27.1273 59.1846L26.7572 59.1737L26.771 58.9953L26.8315 58.7937L26.2812 58.8115L26.1093 58.3657L26.0047 58.4796L26.0666 58.839L26.2097 59.2121L26.3707 59.7593L26.2399 60.1036L26.0955 60.2751L26.2015 60.4328L26.4944 60.5535L26.6127 60.7689L26.2647 60.9527L25.83 61.5837L25.3788 61.5987L25.1036 62.0157L24.8106 62.0144L24.5726 61.7524L24.1916 61.537L24.0691 61.9156L24.0499 62.2174L24.2645 62.9786L24.6744 63.5657L25.0541 63.8195L24.7804 63.9909L24.5767 64.3695L24.3305 65.5491L24.1971 66.0128L24.0526 66.8275L24.1434 67.5134L24.2177 67.8494L24.4034 68.3062L23.8986 68.2472L23.3648 67.9811L23.4391 68.5339L23.1116 69.1868L23.1722 69.7601L23.2409 70.1319L23.1392 70.7477L23.2932 70.9412L23.3771 71.3074L23.2382 71.5776L23.2987 71.8094L23.3221 72.6283L23.4267 73.9053L23.3881 74.1742L23.6812 75.277L23.6137 75.6624L23.5739 76.1521L23.9949 76.6226L24.369 76.6157L24.7487 76.6089L24.8931 76.7255L25.039 77.0574L25.1559 77.4497L25.4682 77.4182L25.9676 77.0999L26.2922 77.0245L26.5069 77.6363L27.0902 78.4428L27.43 78.8035L28.0063 78.9942L28.6144 79.6416L28.5291 80.4207L28.7822 80.68L29.499 80.9859L29.7535 81.3987L29.8759 81.7499L30.0644 82.0407L30.2859 82.9172L30.2088 83.4562L29.92 83.6414L29.2362 84.2175L28.9322 84.6468L28.6942 84.9129L28.016 85.4849L27.767 85.5878L27.529 85.8841L27.2992 86.0144L27.0929 85.9403L26.3225 86.4766L25.8025 86.3285L25.5837 86.0638L25.7227 85.0103L25.6361 84.6702L25.5356 84.4987L25.1945 84.6948L25.2549 85.0981L24.6648 85.1146L24.1091 84.773L24.0375 85.4452L22.8434 84.8883L22.5145 85.0295L21.9877 84.7497L21.6452 85.0844L21.2379 84.9637L20.9559 84.5659L20.5652 85.2655L19.7123 85.4643L18.9102 85.5754L19.2968 85.8086L21.0963 85.7647L21.6053 85.9376L22.2669 85.8224L22.853 86.371L23.2754 86.5027L23.7747 87.1323L24.0306 86.9608L24.4323 86.9869L24.8037 87.1666L25.9827 87.1433L26.383 86.7043L26.9732 86.8003L27.2745 86.6865L27.5056 86.4177L27.7587 86.3559L27.9884 86.4067L28.2334 86.1941L28.426 86.109L28.6241 86.2119L28.8456 86.7208L28.386 86.9841L28.06 86.9965L27.9004 87.8277L27.7037 88.1843L27.562 88.3558L26.8398 88.7083L26.3624 89.1541L25.7997 89.5121L25.5549 89.4339L25.1848 89.7975L24.3636 90.2268L23.9412 90.8056L22.9961 91.3214L22.5145 91.7411L21.2063 91.763L19.9572 91.6711L19.5651 91.87L19.9668 91.9318L20.2475 92.1265L20.5845 92.0442L21.3769 92.1416L21.7841 92.2486L22.3069 92.9317L21.923 93.1731L21.2572 93.3596L21.5075 94.3226L21.7126 94.97L21.4429 95.3595L21.4223 97.1249L21.044 97.1578L20.883 97.8848L21.0013 98.2551L20.9917 99.1124L21.0701 99.6391L21.2558 100.123L21.1733 100.627L20.5749 101.802L20.5873 102.352L20.6959 102.679L20.7757 103.199L20.5033 104.196L20.3121 105.026L20.0837 105.722L19.5734 106.555L19.3188 107.176L18.7246 109.106L18.4301 109.488L18.0683 109.78L17.6653 109.51L17.2952 109.363L16.844 109.381L16.1369 109.603L15.0734 109.455L14.0349 109.526L13.772 109.717L13.9302 110.412L13.5464 110.503L13.1723 110.305L12.8421 110.541L12.567 110.799L12.0263 111.411L11.8447 111.787L11.7979 112.493L12.0827 113.125L12.3345 113.865L11.6865 114.752L11.3247 114.782L10.2682 114.535L8.39589 115.091L6.71477 114.652L6.92523 114.176L6.91835 113.826L7.01327 113.287L7.0697 112.734L7.05454 112.364L6.93073 111.968L6.51666 111.449L5.58254 109.692L5.30604 108.947L5.11347 108.636L5.25239 108.619L6.02277 109.02L6.20162 108.971L6.39008 108.821L6.16035 108.246L5.96223 107.987L5.82881 107.598L6.27866 107.492L6.6047 107.515L6.84408 107.076L6.70512 106.364L6.3557 106.145L6.06404 106.049L5.50416 104.924L4.92085 104.34L3.87946 102.075L3.49839 100.509L3.14485 100.658L2.97289 99.9738L2.84904 99.3223L2.82431 98.8436L2.2685 98.5692L2.2465 98.2318L2.14608 96.723L1.55038 96.52L1.16519 95.6695L1.09642 94.0523L0.704346 93.7574L0.389307 93.8397L0.404462 93.4378L0.480116 93.0593L0.295769 91.5532L0.233844 90.1719L0.0853091 89.7522L0 89.2611L0.075653 88.8359L0.188461 88.5904L0.572268 88.5259L0.931347 88.9017L1.24911 89.8482L1.52977 89.9716L1.91219 89.7247L2.18046 89.0348L2.33315 87.9964L2.512 87.002L2.30015 85.9348L2.07454 84.9939L2.05804 84.7168L2.65096 83.9185L2.83254 83.2683L3.02927 82.6469L3.24662 82.4357L3.56854 82.3877L3.94412 82.2711L4.41735 81.8541L4.84242 81.2945L5.16712 80.7801L5.27716 79.7596L5.28127 79.2452L5.42435 78.8625L5.56193 78.1136L5.42712 77.3729L5.0075 76.2454L4.50266 74.6501L4.42423 73.775L4.65396 73.6118L5.09281 73.4664L5.92512 73.4239L6.01316 73.321L6.09708 72.9356L6.28554 72.413L6.485 72.0316L6.62258 71.4843L6.68862 70.9878L6.21262 70.2375L5.58942 69.4666L5.16712 69.2101L4.41596 68.5599L3.88769 68.0154L4.19035 65.9291L4.41596 64.364L4.45173 63.9827L4.46 63.3901L3.73089 60.8457L3.75977 60.2765L3.82854 59.7621L3.75012 58.8829L3.7075 58.0941L3.8327 57.8541L4.12981 57.4069L3.84504 56.7129L3.82165 56.6553L3.28516 54.9297L4.10508 53.2083L3.962 52.3126L4.45035 51.661L5.34181 50.1632L5.84258 49.3155L5.9485 49.1673L6.3447 48.7943L7.0972 48.3512L7.93085 48.1345L8.30227 48.1372L9.73582 48.4376L10.8542 48.6708L11.0179 48.4363L11.2518 47.9548L11.5531 47.2676L11.5792 46.5008L11.4705 45.3706L11.3068 44.6916L10.5199 44.2485L9.65739 43.6409L10.718 41.7055L11.4527 40.353L12.3688 38.3051L12.6536 37.4478L12.86 37.1063L13.1296 33.9103L13.3085 33.0091L13.4584 32.5359L13.4598 32.0503L13.3621 31.2287L13.1049 29.3633L14.5521 29.1314L15.0225 28.9998L15.46 28.7762L16.3157 28.1946L16.7353 27.6788L16.5014 25.9121L17.0187 25.3113L18.2816 23.2072L19.6463 21.1758L20.2859 20.4022L20.352 20.0236L20.4042 19.4132L20.1195 18.4503L19.8141 17.8522L19.2184 16.7151L19.4743 15.9182L19.9131 15.7632L20.4923 15.4491L20.9449 14.7646L20.989 14.6768L21.7538 11.9664L23.2465 10.581L23.8421 9.82251L24.7694 10.3931L26.1285 11.2518L26.7325 9.98848L26.932 9.518L27.1314 8.82394L27.0516 7.61687L27.0172 6.04082L27.0777 5.40436L27.6198 5.12043L27.9114 5.04774L29.422 5.70339L29.8017 5.69242L30.5142 5.7802L31.3108 6.06688L32.9795 6.82953L33.6687 7.14364L34.0539 7.204L34.3868 6.8501L35.0981 5.93795L34.0512 5.26034L34.7404 4.57315L35.0981 3.87771L35.4049 3.02042L35.5163 2.01361L35.4736 1.47043L35.2618 1.09872L34.6221 0.171458L36.0706 0.0384274L36.5728 0L37.6266 0.611782L37.6734 0.744834L37.6803 1.06305L37.7174 1.39226L38.7395 2.22485L39.0339 2.66516L39.6626 3.33178L39.8291 3.69116L40.411 4.11089L40.8278 4.55942L41.3148 4.92155L41.883 5.48392L42.6465 5.93109L43.2903 6.07649L44.9136 6.84051L45.1901 7.0874L45.6579 7.61823L46.1311 8.22999L46.4585 9.48369L46.9826 9.54818L47.1257 9.97749L47.5838 10.7113L48.2195 11.3574L48.196 11.5741L47.6898 12.1667L47.6347 12.9677L47.6829 13.9869L47.8424 14.8154L47.826 15.0568L47.7008 15.3421L47.5508 15.7879L47.4958 16.1761L47.5095 16.3654L47.5605 16.4696L47.8273 16.4778L48.3047 16.5697L48.5854 16.7412L48.7449 17.6835L48.6913 17.8646L48.2896 18.2898L48.1713 18.6272L48.1603 19.121L48.2318 19.6642L48.3708 20.2691L48.6858 20.9152L49.1123 21.5887L49.3929 22.1401L49.525 22.5269L49.5731 22.7984L49.3819 23.1386L49.2099 23.8094L49.1783 24.5748L49.0998 25.0727L48.7257 25.7571L48.4656 25.9986L48.3914 26.3579L48.3598 26.9601L48.4368 27.6926L48.463 28.1864L48.5427 28.5416L48.661 28.7734L49.2622 29.1808L49.5993 30.0148L49.8097 30.6828L50.2348 32.4152ZM28.7671 85.6303L28.6708 85.8813L28.5732 85.5741L28.6116 85.5137L28.6777 85.2106L28.8648 85.0446L29.1633 85.1447L29.1619 85.2202L28.8758 85.4657L28.7671 85.6303ZM28.0752 88.947L27.9032 89.0183L27.8179 88.9964L27.9238 88.6494L28.0022 88.4998L28.2622 88.3599L28.342 88.3846L28.0752 88.947ZM30.9339 97.0782L30.8637 97.5295L30.6628 97.4952L30.4799 97.1619L30.8499 96.653L31.4153 96.6804L31.6093 96.7874L30.9339 97.0782ZM30.6243 97.7051L30.3051 97.8765L30.1181 98.3854L29.8594 98.4718L29.6118 98.6406L29.5237 100.24L29.9763 100.845L29.7274 100.93L29.5003 101.111L29.338 101.378L29.1716 101.953L28.5484 102.278L28.3131 102.518L27.9651 103.052L27.7835 103.824L27.4313 104.153L27.0351 104.231L27.2662 103.601L27.5703 103.085L27.2786 102.729L27.1025 102.174L26.8741 101.746L27.0557 101.267L26.9663 100.483L26.9952 99.7132L27.2594 99.325L27.562 99.0082L28.0325 98.2771L28.5429 97.7448L29.2555 97.5062L29.5774 97.727L29.7164 97.2428L29.9461 97.1317L30.1621 97.2442L30.6243 97.7051ZM20.7881 108.628L20.5886 108.976L20.4126 108.951L20.2956 108.486L20.268 107.288L20.3382 106.692L21.1802 104.536L21.5557 104.359L22.084 103.029L22.227 102.433L22.4568 101.897L22.5916 101.415L22.7058 101.221L22.9521 101.311L23.0621 101.4L22.8021 101.68L22.8324 102.044L22.8145 102.193L22.1583 103.769L21.9835 104.787L21.751 105.035L20.7881 108.628Z"/>
</mask>
<path d="M50.2348 32.4152L49.2113 32.6319L48.4423 32.1971L48.0585 32.4152L47.3885 32.4248L46.6264 32.5963L46.3691 32.9351L46.1669 33.0708L45.4612 32.5921L44.7939 31.798L44.3069 32.4028L43.992 32.5167L43.7071 31.9694L43.4595 31.8802L43.3261 32.0627L43.2091 32.5469L43.0221 32.9268L42.9725 33.1669L42.9409 34.1325L42.8928 34.3561L42.2448 34.2313L42.2833 34.485L42.425 34.6126L42.4828 34.7731L42.2476 34.983L41.6051 34.9624L41.5391 35.186L41.7193 35.5371L41.5776 35.8457L41.4469 35.9664L40.6778 36.1571L40.2335 36.1132L40.1056 36.3121L40.0712 36.57L40.1551 36.8237L40.3518 36.9581L40.4164 37.1186L40.4028 37.4657L40.239 37.5288L39.7768 36.9184L39.6351 36.9499L39.741 37.2668L40.0052 37.6124L40.1578 37.965L40.2913 38.3874L40.2651 38.7084L39.6901 39.7399L39.1838 40.3887L38.8069 40.9717L38.5841 41.5889L38.8427 41.8989L39.1288 42.3461L39.3311 43.2033L39.5718 43.966L40.0574 44.6916L39.9598 45.11L39.847 45.435L39.0394 46.1497L38.1232 47.2223L37.1355 49.9437L36.8067 50.3072L35.9428 50.764L35.6249 51.2056L34.9811 51.7296L33.8572 52.1795L33.3481 52.805L33.1184 53.4497L32.8626 53.4963L32.6081 53.2439L32.2696 53.056L32.2256 53.4771L32.2407 53.7857L31.6987 53.329L31.4429 53.7487L31.2434 54.4469L30.4633 55.3851L29.6228 55.2164L29.5293 55.381L29.7521 55.5003L29.7865 55.6498L29.6338 55.7294L29.4027 55.7212L29.0464 55.9063L28.8125 55.8926L28.7011 56.3343L28.5195 56.8679L28.0449 57.0887L27.8 57.134L27.6789 57.4371L28.4094 57.5002L28.3517 57.7567L28.3351 58.0132L28.2595 58.2875L27.4286 58.6826L27.3006 58.9926L27.1273 59.1846L26.7572 59.1737L26.771 58.9953L26.8315 58.7937L26.2812 58.8115L26.1093 58.3657L26.0047 58.4796L26.0666 58.839L26.2097 59.2121L26.3707 59.7593L26.2399 60.1036L26.0955 60.2751L26.2015 60.4328L26.4944 60.5535L26.6127 60.7689L26.2647 60.9527L25.83 61.5837L25.3788 61.5987L25.1036 62.0157L24.8106 62.0144L24.5726 61.7524L24.1916 61.537L24.0691 61.9156L24.0499 62.2174L24.2645 62.9786L24.6744 63.5657L25.0541 63.8195L24.7804 63.9909L24.5767 64.3695L24.3305 65.5491L24.1971 66.0128L24.0526 66.8275L24.1434 67.5134L24.2177 67.8494L24.4034 68.3062L23.8986 68.2472L23.3648 67.9811L23.4391 68.5339L23.1116 69.1868L23.1722 69.7601L23.2409 70.1319L23.1392 70.7477L23.2932 70.9412L23.3771 71.3074L23.2382 71.5776L23.2987 71.8094L23.3221 72.6283L23.4267 73.9053L23.3881 74.1742L23.6812 75.277L23.6137 75.6624L23.5739 76.1521L23.9949 76.6226L24.369 76.6157L24.7487 76.6089L24.8931 76.7255L25.039 77.0574L25.1559 77.4497L25.4682 77.4182L25.9676 77.0999L26.2922 77.0245L26.5069 77.6363L27.0902 78.4428L27.43 78.8035L28.0063 78.9942L28.6144 79.6416L28.5291 80.4207L28.7822 80.68L29.499 80.9859L29.7535 81.3987L29.8759 81.7499L30.0644 82.0407L30.2859 82.9172L30.2088 83.4562L29.92 83.6414L29.2362 84.2175L28.9322 84.6468L28.6942 84.9129L28.016 85.4849L27.767 85.5878L27.529 85.8841L27.2992 86.0144L27.0929 85.9403L26.3225 86.4766L25.8025 86.3285L25.5837 86.0638L25.7227 85.0103L25.6361 84.6702L25.5356 84.4987L25.1945 84.6948L25.2549 85.0981L24.6648 85.1146L24.1091 84.773L24.0375 85.4452L22.8434 84.8883L22.5145 85.0295L21.9877 84.7497L21.6452 85.0844L21.2379 84.9637L20.9559 84.5659L20.5652 85.2655L19.7123 85.4643L18.9102 85.5754L19.2968 85.8086L21.0963 85.7647L21.6053 85.9376L22.2669 85.8224L22.853 86.371L23.2754 86.5027L23.7747 87.1323L24.0306 86.9608L24.4323 86.9869L24.8037 87.1666L25.9827 87.1433L26.383 86.7043L26.9732 86.8003L27.2745 86.6865L27.5056 86.4177L27.7587 86.3559L27.9884 86.4067L28.2334 86.1941L28.426 86.109L28.6241 86.2119L28.8456 86.7208L28.386 86.9841L28.06 86.9965L27.9004 87.8277L27.7037 88.1843L27.562 88.3558L26.8398 88.7083L26.3624 89.1541L25.7997 89.5121L25.5549 89.4339L25.1848 89.7975L24.3636 90.2268L23.9412 90.8056L22.9961 91.3214L22.5145 91.7411L21.2063 91.763L19.9572 91.6711L19.5651 91.87L19.9668 91.9318L20.2475 92.1265L20.5845 92.0442L21.3769 92.1416L21.7841 92.2486L22.3069 92.9317L21.923 93.1731L21.2572 93.3596L21.5075 94.3226L21.7126 94.97L21.4429 95.3595L21.4223 97.1249L21.044 97.1578L20.883 97.8848L21.0013 98.2551L20.9917 99.1124L21.0701 99.6391L21.2558 100.123L21.1733 100.627L20.5749 101.802L20.5873 102.352L20.6959 102.679L20.7757 103.199L20.5033 104.196L20.3121 105.026L20.0837 105.722L19.5734 106.555L19.3188 107.176L18.7246 109.106L18.4301 109.488L18.0683 109.78L17.6653 109.51L17.2952 109.363L16.844 109.381L16.1369 109.603L15.0734 109.455L14.0349 109.526L13.772 109.717L13.9302 110.412L13.5464 110.503L13.1723 110.305L12.8421 110.541L12.567 110.799L12.0263 111.411L11.8447 111.787L11.7979 112.493L12.0827 113.125L12.3345 113.865L11.6865 114.752L11.3247 114.782L10.2682 114.535L8.39589 115.091L6.71477 114.652L6.92523 114.176L6.91835 113.826L7.01327 113.287L7.0697 112.734L7.05454 112.364L6.93073 111.968L6.51666 111.449L5.58254 109.692L5.30604 108.947L5.11347 108.636L5.25239 108.619L6.02277 109.02L6.20162 108.971L6.39008 108.821L6.16035 108.246L5.96223 107.987L5.82881 107.598L6.27866 107.492L6.6047 107.515L6.84408 107.076L6.70512 106.364L6.3557 106.145L6.06404 106.049L5.50416 104.924L4.92085 104.34L3.87946 102.075L3.49839 100.509L3.14485 100.658L2.97289 99.9738L2.84904 99.3223L2.82431 98.8436L2.2685 98.5692L2.2465 98.2318L2.14608 96.723L1.55038 96.52L1.16519 95.6695L1.09642 94.0523L0.704346 93.7574L0.389307 93.8397L0.404462 93.4378L0.480116 93.0593L0.295769 91.5532L0.233844 90.1719L0.0853091 89.7522L0 89.2611L0.075653 88.8359L0.188461 88.5904L0.572268 88.5259L0.931347 88.9017L1.24911 89.8482L1.52977 89.9716L1.91219 89.7247L2.18046 89.0348L2.33315 87.9964L2.512 87.002L2.30015 85.9348L2.07454 84.9939L2.05804 84.7168L2.65096 83.9185L2.83254 83.2683L3.02927 82.6469L3.24662 82.4357L3.56854 82.3877L3.94412 82.2711L4.41735 81.8541L4.84242 81.2945L5.16712 80.7801L5.27716 79.7596L5.28127 79.2452L5.42435 78.8625L5.56193 78.1136L5.42712 77.3729L5.0075 76.2454L4.50266 74.6501L4.42423 73.775L4.65396 73.6118L5.09281 73.4664L5.92512 73.4239L6.01316 73.321L6.09708 72.9356L6.28554 72.413L6.485 72.0316L6.62258 71.4843L6.68862 70.9878L6.21262 70.2375L5.58942 69.4666L5.16712 69.2101L4.41596 68.5599L3.88769 68.0154L4.19035 65.9291L4.41596 64.364L4.45173 63.9827L4.46 63.3901L3.73089 60.8457L3.75977 60.2765L3.82854 59.7621L3.75012 58.8829L3.7075 58.0941L3.8327 57.8541L4.12981 57.4069L3.84504 56.7129L3.82165 56.6553L3.28516 54.9297L4.10508 53.2083L3.962 52.3126L4.45035 51.661L5.34181 50.1632L5.84258 49.3155L5.9485 49.1673L6.3447 48.7943L7.0972 48.3512L7.93085 48.1345L8.30227 48.1372L9.73582 48.4376L10.8542 48.6708L11.0179 48.4363L11.2518 47.9548L11.5531 47.2676L11.5792 46.5008L11.4705 45.3706L11.3068 44.6916L10.5199 44.2485L9.65739 43.6409L10.718 41.7055L11.4527 40.353L12.3688 38.3051L12.6536 37.4478L12.86 37.1063L13.1296 33.9103L13.3085 33.0091L13.4584 32.5359L13.4598 32.0503L13.3621 31.2287L13.1049 29.3633L14.5521 29.1314L15.0225 28.9998L15.46 28.7762L16.3157 28.1946L16.7353 27.6788L16.5014 25.9121L17.0187 25.3113L18.2816 23.2072L19.6463 21.1758L20.2859 20.4022L20.352 20.0236L20.4042 19.4132L20.1195 18.4503L19.8141 17.8522L19.2184 16.7151L19.4743 15.9182L19.9131 15.7632L20.4923 15.4491L20.9449 14.7646L20.989 14.6768L21.7538 11.9664L23.2465 10.581L23.8421 9.82251L24.7694 10.3931L26.1285 11.2518L26.7325 9.98848L26.932 9.518L27.1314 8.82394L27.0516 7.61687L27.0172 6.04082L27.0777 5.40436L27.6198 5.12043L27.9114 5.04774L29.422 5.70339L29.8017 5.69242L30.5142 5.7802L31.3108 6.06688L32.9795 6.82953L33.6687 7.14364L34.0539 7.204L34.3868 6.8501L35.0981 5.93795L34.0512 5.26034L34.7404 4.57315L35.0981 3.87771L35.4049 3.02042L35.5163 2.01361L35.4736 1.47043L35.2618 1.09872L34.6221 0.171458L36.0706 0.0384274L36.5728 0L37.6266 0.611782L37.6734 0.744834L37.6803 1.06305L37.7174 1.39226L38.7395 2.22485L39.0339 2.66516L39.6626 3.33178L39.8291 3.69116L40.411 4.11089L40.8278 4.55942L41.3148 4.92155L41.883 5.48392L42.6465 5.93109L43.2903 6.07649L44.9136 6.84051L45.1901 7.0874L45.6579 7.61823L46.1311 8.22999L46.4585 9.48369L46.9826 9.54818L47.1257 9.97749L47.5838 10.7113L48.2195 11.3574L48.196 11.5741L47.6898 12.1667L47.6347 12.9677L47.6829 13.9869L47.8424 14.8154L47.826 15.0568L47.7008 15.3421L47.5508 15.7879L47.4958 16.1761L47.5095 16.3654L47.5605 16.4696L47.8273 16.4778L48.3047 16.5697L48.5854 16.7412L48.7449 17.6835L48.6913 17.8646L48.2896 18.2898L48.1713 18.6272L48.1603 19.121L48.2318 19.6642L48.3708 20.2691L48.6858 20.9152L49.1123 21.5887L49.3929 22.1401L49.525 22.5269L49.5731 22.7984L49.3819 23.1386L49.2099 23.8094L49.1783 24.5748L49.0998 25.0727L48.7257 25.7571L48.4656 25.9986L48.3914 26.3579L48.3598 26.9601L48.4368 27.6926L48.463 28.1864L48.5427 28.5416L48.661 28.7734L49.2622 29.1808L49.5993 30.0148L49.8097 30.6828L50.2348 32.4152ZM28.7671 85.6303L28.6708 85.8813L28.5732 85.5741L28.6116 85.5137L28.6777 85.2106L28.8648 85.0446L29.1633 85.1447L29.1619 85.2202L28.8758 85.4657L28.7671 85.6303ZM28.0752 88.947L27.9032 89.0183L27.8179 88.9964L27.9238 88.6494L28.0022 88.4998L28.2622 88.3599L28.342 88.3846L28.0752 88.947ZM30.9339 97.0782L30.8637 97.5295L30.6628 97.4952L30.4799 97.1619L30.8499 96.653L31.4153 96.6804L31.6093 96.7874L30.9339 97.0782ZM30.6243 97.7051L30.3051 97.8765L30.1181 98.3854L29.8594 98.4718L29.6118 98.6406L29.5237 100.24L29.9763 100.845L29.7274 100.93L29.5003 101.111L29.338 101.378L29.1716 101.953L28.5484 102.278L28.3131 102.518L27.9651 103.052L27.7835 103.824L27.4313 104.153L27.0351 104.231L27.2662 103.601L27.5703 103.085L27.2786 102.729L27.1025 102.174L26.8741 101.746L27.0557 101.267L26.9663 100.483L26.9952 99.7132L27.2594 99.325L27.562 99.0082L28.0325 98.2771L28.5429 97.7448L29.2555 97.5062L29.5774 97.727L29.7164 97.2428L29.9461 97.1317L30.1621 97.2442L30.6243 97.7051ZM20.7881 108.628L20.5886 108.976L20.4126 108.951L20.2956 108.486L20.268 107.288L20.3382 106.692L21.1802 104.536L21.5557 104.359L22.084 103.029L22.227 102.433L22.4568 101.897L22.5916 101.415L22.7058 101.221L22.9521 101.311L23.0621 101.4L22.8021 101.68L22.8324 102.044L22.8145 102.193L22.1583 103.769L21.9835 104.787L21.751 105.035L20.7881 108.628Z" fill="var(--fill-0, #71B219)" stroke="var(--stroke-0, white)" mask="url(#path-1-inside-1_0_196)"/>
</g>
</svg>
