<svg preserveAspectRatio="none" width="100%" height="100%" overflow="visible" style="display: block;" viewBox="0 0 34 32" fill="none" xmlns="http://www.w3.org/2000/svg"><g id="SH"><mask id="path-1-inside-1_0_41" fill="white"><path d="M0 0L0 0L0 0L0 0L0 0L0 0L0 0L0 0L0 0L0 0L0 0ZM34 32L33 32L33 32L34 31L34 31L34 32L34 32Z"/></mask><path d="M0 0L0 0L0 0L0 0L0 0L0 0L0 0L0 0L0 0L0 0L0 0ZM34 32L33 32L33 32L34 31L34 31L34 32L34 32Z" fill="var(--fill-0,#71B219)"/><path d="M0 0L0 1L0 1L0 1L0 0ZM0 0L0 1L0 1L0 1L0 0ZM0 0L0 0L0 1L0 1L0 0ZM0 0L0 0L0 0L0 0L0 0ZM0 0L0 0L0 0L0 0L0 0ZM0 0L0 0L0 0L0 0L0 0ZM0 0L0 0L0 0L0 0L0 0ZM0 0L1 0L1 0L0 0ZM0 0L1 0L1 0L1 0L0 0ZM0 0L1 1L1 1L1 1L0 0ZM34 32L34 32L34 32L34 32L34 32ZM33 32L33 32L33 32L33 32L33 32ZM33 32L33 31L33 31L33 32L33 32ZM34 31L34 31L34 31L33 31L34 31ZM34 31L34 31L34 31L34 31L34 31ZM34 32L34 32L34 32L34 32L34 32ZM0 0L0 0L0 0L0 0L0 1L0 1L0 0ZM0 0L0 0L0 0L0 0L0 1L0 1L0 0ZM0 0L0 0L0 0L0 0L0 0L0 0L0 0ZM0 0L0 0L0 0L0 0L0 0L0 0L0 0ZM0 0L0 0L0 0L0 0L0 0L0 0L0 0ZM0 0L0 0L0 0L0 0L0 0L0 0L0 0ZM0 0L0 0L0 0L0 0L1 0L0 0L0 0ZM0 0L0 0L0 1L0 0L1 0L1 0L0 0ZM0 0L0 0L0 0L0 0L1 1L1 0L0 0ZM0 0L0 0L0 0L0 0L0 1L1 1L0 0ZM34 32L34 31L33 31L33 32L33 32L34 32L34 32ZM33 32L34 32L34 32L33 32L33 32L33 32L33 32ZM33 32L34 32L34 32L34 31L33 31L33 31L33 32ZM34 31L34 32L34 32L34 31L34 31L34 31L34 31ZM34 31L33 31L33 32L34 32L34 32L34 31L34 31ZM34 32L34 31L33 31L34 32L34 32L34 32L34 32Z" fill="var(--stroke-0,white)" mask="url(#path-1-inside-1_0_41)"/></g></svg>