<svg preserveAspectRatio="none" width="100%" height="100%" overflow="visible" style="display: block;" viewBox="0 0 33.8035 31.7774" fill="none" xmlns="http://www.w3.org/2000/svg">
<g id="SH">
<mask id="path-1-inside-1_0_41" fill="white">
<path d="M0.195346 0.352502L0.0632681 0.357986L0.0247699 0.326423L0 0.235922L0.0632681 0.0891197L0.121036 0L0.21046 0.0123068L0.331538 0.115198L0.433347 0.202979L0.378307 0.282554L0.195346 0.352502ZM33.6783 31.7527L33.3303 31.7774L33.3592 31.5894L33.6178 31.3891L33.7925 31.4152L33.8035 31.6457L33.6783 31.7527Z"/>
</mask>
<path d="M0.195346 0.352502L0.0632681 0.357986L0.0247699 0.326423L0 0.235922L0.0632681 0.0891197L0.121036 0L0.21046 0.0123068L0.331538 0.115198L0.433347 0.202979L0.378307 0.282554L0.195346 0.352502ZM33.6783 31.7527L33.3303 31.7774L33.3592 31.5894L33.6178 31.3891L33.7925 31.4152L33.8035 31.6457L33.6783 31.7527Z" fill="var(--fill-0, #71B219)"/>
<path d="M0.195346 0.352502L0.216087 0.852072L0.297648 0.848686L0.373897 0.819535L0.195346 0.352502ZM0.0632681 0.357986L-0.253734 0.74465L-0.106377 0.86546L0.0840094 0.857555L0.0632681 0.357986ZM0.0247699 0.326423L-0.457493 0.458417L-0.415436 0.612081L-0.292233 0.713088L0.0247699 0.326423ZM0 0.235922L-0.459172 0.0380312L-0.528515 0.198928L-0.482263 0.367916L0 0.235922ZM0.0632681 0.0891197L-0.356296 -0.182847L-0.379222 -0.147478L-0.395904 -0.108771L0.0632681 0.0891197ZM0.121036 0L0.189206 -0.495331L-0.125652 -0.538663L-0.298528 -0.271966L0.121036 0ZM0.21046 0.0123068L0.534238 -0.368702L0.423107 -0.463141L0.278629 -0.483024L0.21046 0.0123068ZM0.331538 0.115198L0.658047 -0.26349L0.655317 -0.26581L0.331538 0.115198ZM0.433347 0.202979L0.844567 0.487404L1.10022 0.117777L0.759847 -0.1757L0.433347 0.202979ZM0.378307 0.282554L0.556858 0.749587L0.701463 0.694303L0.789528 0.56698L0.378307 0.282554ZM33.6783 31.7527L33.7137 32.2514L33.878 32.2397L34.0032 32.1328L33.6783 31.7527ZM33.3303 31.7774L32.8361 31.7014L32.7409 32.3204L33.3657 32.2761L33.3303 31.7774ZM33.3592 31.5894L33.053 31.1941L32.8953 31.3163L32.865 31.5135L33.3592 31.5894ZM33.6178 31.3891L33.6916 30.8946L33.4804 30.8631L33.3116 30.9938L33.6178 31.3891ZM33.7925 31.4152L34.292 31.3914L34.2724 30.9813L33.8663 30.9207L33.7925 31.4152ZM33.8035 31.6457L34.1284 32.0258L34.3146 31.8666L34.303 31.6218L33.8035 31.6457ZM0.195346 0.352502L0.174605 -0.147067L0.0425269 -0.141584L0.0632681 0.357986L0.0840094 0.857555L0.216087 0.852072L0.195346 0.352502ZM0.0632681 0.357986L0.380271 -0.0286786L0.341772 -0.060241L0.0247699 0.326423L-0.292233 0.713088L-0.253734 0.74465L0.0632681 0.357986ZM0.0247699 0.326423L0.507033 0.19443L0.482263 0.103929L0 0.235922L-0.482263 0.367916L-0.457493 0.458417L0.0247699 0.326423ZM0 0.235922L0.459172 0.433814L0.52244 0.287011L0.0632681 0.0891197L-0.395904 -0.108771L-0.459172 0.0380312L0 0.235922ZM0.0632681 0.0891197L0.482833 0.361086L0.540601 0.271966L0.121036 0L-0.298528 -0.271966L-0.356296 -0.182847L0.0632681 0.0891197ZM0.121036 0L0.052867 0.495331L0.14229 0.507638L0.21046 0.0123068L0.278629 -0.483024L0.189206 -0.495331L0.121036 0ZM0.21046 0.0123068L-0.113319 0.393315L0.00775996 0.496207L0.331538 0.115198L0.655317 -0.26581L0.534238 -0.368702L0.21046 0.0123068ZM0.331538 0.115198L0.00503786 0.493877L0.106846 0.581657L0.433347 0.202979L0.759847 -0.1757L0.658039 -0.26348L0.331538 0.115198ZM0.433347 0.202979L0.0221264 -0.0814469L-0.032913 -0.00187123L0.378307 0.282554L0.789528 0.56698L0.844567 0.487404L0.433347 0.202979ZM0.378307 0.282554L0.199756 -0.184478L0.0167948 -0.11453L0.195346 0.352502L0.373897 0.819535L0.556858 0.749587L0.378307 0.282554ZM33.6783 31.7527L33.6429 31.2539L33.2949 31.2786L33.3303 31.7774L33.3657 32.2761L33.7137 32.2514L33.6783 31.7527ZM33.3303 31.7774L33.8245 31.8533L33.8534 31.6654L33.3592 31.5894L32.865 31.5135L32.8361 31.7014L33.3303 31.7774ZM33.3592 31.5894L33.6653 31.9847L33.924 31.7844L33.6178 31.3891L33.3116 30.9938L33.053 31.1941L33.3592 31.5894ZM33.6178 31.3891L33.544 31.8837L33.7187 31.9097L33.7925 31.4152L33.8663 30.9207L33.6916 30.8946L33.6178 31.3891ZM33.7925 31.4152L33.2931 31.4391L33.3041 31.6695L33.8035 31.6457L34.303 31.6218L34.292 31.3914L33.7925 31.4152ZM33.8035 31.6457L33.4787 31.2656L33.3535 31.3726L33.6783 31.7527L34.0032 32.1328L34.1284 32.0258L33.8035 31.6457Z" fill="var(--stroke-0, white)" mask="url(#path-1-inside-1_0_41)"/>
</g>
</svg>
