<svg preserveAspectRatio="none" width="100%" height="100%" overflow="visible" style="display: block;" viewBox="0 0 12 8" fill="none" xmlns="http://www.w3.org/2000/svg"><g id="SI"><mask id="path-1-inside-1_0_40" fill="white"><path d="M12 2L12 2L11 2L11 2L11 2L11 2L11 3L11 3L10 3L10 3L10 3L10 3L10 3L9 4L9 4L9 4L9 4L8 4L9 4L9 4L9 5L9 5L9 6L9 6L8 6L7 6L7 6L8 7L8 7L7 7L7 7L7 7L8 8L8 8L7 8L7 8L6 8L6 8L6 8L6 8L5 8L5 7L5 7L5 7L5 7L4 7L4 7L4 8L4 8L4 8L3 8L3 8L2 8L2 8V8L2 8L2 8L1 8L1 8L1 7L1 7L2 7L2 7L2 7L2 7L1 6L1 6L1 6L1 6L1 5L1 5L0 5L0 5L0 5L0 5L1 4L1 4L1 4L1 4L1 4L0 4L0 4L0 4L0 4L0 3L0 3L0 3L1 2L1 2L1 2L1 2L1 2L2 2L2 2L2 2L3 2L3 2L4 2L4 2L4 2L4 3L5 2L5 2L5 2L5 2L6 2L6 2L6 1L6 1L6 1L7 1L8 1L8 1L9 1L9 1L9 1L10 1L10 1L10 1L10 0L10 0L10 0L11 0L11 0L11 0L11 1L12 1L12 1L12 1L12 1L12 2L12 2Z"/></mask><path d="M12 2L12 2L11 2L11 2L11 2L11 2L11 3L11 3L10 3L10 3L10 3L10 3L10 3L9 4L9 4L9 4L9 4L8 4L9 4L9 4L9 5L9 5L9 6L9 6L8 6L7 6L7 6L8 7L8 7L7 7L7 7L7 7L8 8L8 8L7 8L7 8L6 8L6 8L6 8L6 8L5 8L5 7L5 7L5 7L5 7L4 7L4 7L4 8L4 8L4 8L3 8L3 8L2 8L2 8V8L2 8L2 8L1 8L1 8L1 7L1 7L2 7L2 7L2 7L2 7L1 6L1 6L1 6L1 6L1 5L1 5L0 5L0 5L0 5L0 5L1 4L1 4L1 4L1 4L1 4L0 4L0 4L0 4L0 4L0 3L0 3L0 3L1 2L1 2L1 2L1 2L1 2L2 2L2 2L2 2L3 2L3 2L4 2L4 2L4 2L4 3L5 2L5 2L5 2L5 2L6 2L6 2L6 1L6 1L6 1L7 1L8 1L8 1L9 1L9 1L9 1L10 1L10 1L10 1L10 0L10 0L10 0L11 0L11 0L11 0L11 1L12 1L12 1L12 1L12 1L12 2L12 2Z" fill="var(--fill-0,#71B219)" stroke="var(--stroke-0,white)" mask="url(#path-1-inside-1_0_40)"/></g></svg>