<svg preserveAspectRatio="none" width="100%" height="100%" overflow="visible" style="display: block;" viewBox="0 0 12.1157 7.94878" fill="none" xmlns="http://www.w3.org/2000/svg">
<g id="SI">
<mask id="path-1-inside-1_0_40" fill="white">
<path d="M12.1157 2.0328L11.7746 1.89701L11.3632 1.83941L11.2862 1.91346L11.1212 1.98889L11.0372 2.12334L11.1005 2.65002L11.0014 2.74057L10.5337 2.68845L10.3797 2.74881L10.1251 3.11505L9.86512 3.27005L9.53497 3.37977L9.29004 3.51146L8.98055 3.62666L8.71782 3.69661L8.6132 3.85576L8.54997 4.0327L8.56643 4.20278L8.8347 4.53883L8.87047 4.89681L8.84158 5.33437L8.7797 5.56758L8.67374 5.72258L8.01477 5.92284L7.33112 6.28083L7.31593 6.36312L7.62828 6.68L7.64062 6.75954L7.38201 6.93924L7.35724 7.12028L7.38612 7.32879L7.52366 7.54416L7.5732 7.73755L7.19762 7.87745L6.68862 7.82533L6.08608 7.55785L5.87558 7.59627L5.67196 7.73617L5.46289 7.67581L5.23316 7.50983L4.90846 7.16558L4.75027 6.95297L4.68562 6.72802L4.59762 6.69507L4.46277 6.76092L4.35135 7.03527L4.05143 7.52494L3.82858 7.65798L3.49431 7.62918L3.02377 7.63742L2.73073 7.67857L2.37312 7.50573L2.28638 7.53867V7.65249L2.15296 7.83081L1.93289 7.94878L0.916233 7.68405L0.771812 7.46458L1.00154 7.36035L1.31935 7.07642L1.53531 7.10794L1.80215 7.04762L1.91778 6.92689L1.74993 6.56752L1.32615 6.1231L1.10197 5.9544L0.792384 5.84193L0.740157 5.72258L0.910691 5.01892L0.858465 4.91879L0.506313 4.95169L0.423775 4.87898L0.394806 4.75692L0.418233 4.58956L0.656192 4.31387L0.920347 4.07108L0.991886 3.93529L0.98223 3.82692L0.642505 3.71996L0.438888 3.60883L0.276499 3.57044L0.165076 3.63214L0.0839656 3.56219L0 3.35921L0.0825382 3.04782L0.388005 2.76116L0.715387 2.50603L1.00011 2.31946L1.16385 2.23992L1.24227 1.91894L1.41289 1.95322L1.74993 1.96972L2.12685 2.04239L2.47623 2.13293L2.78581 2.24541L3.43235 2.36337L4.02254 2.4347L4.20005 2.50054L4.34447 2.49506L4.52466 2.59104L4.62919 2.51699L4.70627 2.38945L5.02677 2.23582L5.32258 2.0369L5.53031 1.78453L5.64728 1.58427L5.85081 1.44161L6.06685 1.40046L6.26493 1.32914L7.09997 1.23449L7.95843 1.30992L8.36701 1.16864L8.70405 0.924476L9.19793 0.855909L9.2227 0.851807L9.95866 1.0411L10.0151 0.931341L10.0467 0.881988L10.033 0.3484L10.2668 0.104231L10.4814 0L11.2174 0.0342833L11.3137 0.198876L11.3522 0.454012L11.4182 0.795547L11.5407 0.888811L11.6081 1.02327L11.5944 1.25919L11.7388 1.43475L12.0745 1.90936L12.1157 2.0328Z"/>
</mask>
<path d="M12.1157 2.0328L11.7746 1.89701L11.3632 1.83941L11.2862 1.91346L11.1212 1.98889L11.0372 2.12334L11.1005 2.65002L11.0014 2.74057L10.5337 2.68845L10.3797 2.74881L10.1251 3.11505L9.86512 3.27005L9.53497 3.37977L9.29004 3.51146L8.98055 3.62666L8.71782 3.69661L8.6132 3.85576L8.54997 4.0327L8.56643 4.20278L8.8347 4.53883L8.87047 4.89681L8.84158 5.33437L8.7797 5.56758L8.67374 5.72258L8.01477 5.92284L7.33112 6.28083L7.31593 6.36312L7.62828 6.68L7.64062 6.75954L7.38201 6.93924L7.35724 7.12028L7.38612 7.32879L7.52366 7.54416L7.5732 7.73755L7.19762 7.87745L6.68862 7.82533L6.08608 7.55785L5.87558 7.59627L5.67196 7.73617L5.46289 7.67581L5.23316 7.50983L4.90846 7.16558L4.75027 6.95297L4.68562 6.72802L4.59762 6.69507L4.46277 6.76092L4.35135 7.03527L4.05143 7.52494L3.82858 7.65798L3.49431 7.62918L3.02377 7.63742L2.73073 7.67857L2.37312 7.50573L2.28638 7.53867V7.65249L2.15296 7.83081L1.93289 7.94878L0.916233 7.68405L0.771812 7.46458L1.00154 7.36035L1.31935 7.07642L1.53531 7.10794L1.80215 7.04762L1.91778 6.92689L1.74993 6.56752L1.32615 6.1231L1.10197 5.9544L0.792384 5.84193L0.740157 5.72258L0.910691 5.01892L0.858465 4.91879L0.506313 4.95169L0.423775 4.87898L0.394806 4.75692L0.418233 4.58956L0.656192 4.31387L0.920347 4.07108L0.991886 3.93529L0.98223 3.82692L0.642505 3.71996L0.438888 3.60883L0.276499 3.57044L0.165076 3.63214L0.0839656 3.56219L0 3.35921L0.0825382 3.04782L0.388005 2.76116L0.715387 2.50603L1.00011 2.31946L1.16385 2.23992L1.24227 1.91894L1.41289 1.95322L1.74993 1.96972L2.12685 2.04239L2.47623 2.13293L2.78581 2.24541L3.43235 2.36337L4.02254 2.4347L4.20005 2.50054L4.34447 2.49506L4.52466 2.59104L4.62919 2.51699L4.70627 2.38945L5.02677 2.23582L5.32258 2.0369L5.53031 1.78453L5.64728 1.58427L5.85081 1.44161L6.06685 1.40046L6.26493 1.32914L7.09997 1.23449L7.95843 1.30992L8.36701 1.16864L8.70405 0.924476L9.19793 0.855909L9.2227 0.851807L9.95866 1.0411L10.0151 0.931341L10.0467 0.881988L10.033 0.3484L10.2668 0.104231L10.4814 0L11.2174 0.0342833L11.3137 0.198876L11.3522 0.454012L11.4182 0.795547L11.5407 0.888811L11.6081 1.02327L11.5944 1.25919L11.7388 1.43475L12.0745 1.90936L12.1157 2.0328Z" fill="var(--fill-0, #71B219)" stroke="var(--stroke-0, white)" mask="url(#path-1-inside-1_0_40)"/>
</g>
</svg>
