<svg preserveAspectRatio="none" width="100%" height="100%" overflow="visible" style="display: block;" viewBox="0 0 165 156" fill="none" xmlns="http://www.w3.org/2000/svg"><g id="SJ"><mask id="path-1-inside-1_0_224" fill="white"><path d="M1 156L0 156L0 156L0 155L2 154L3 152L4 152L4 152L4 153L3 154L2 154L1 156ZM109 110L109 110L108 110L108 108L108 108L109 108L110 109L110 109L109 110ZM119 40L119 40L120 40L121 44L121 47L122 47L123 47L124 47L124 47L125 48L126 48L125 49L124 50L124 52L125 52L127 54L127 54L129 53L130 54L131 56L128 58L128 58L128 59L127 60L127 61L126 62L125 62L124 62L124 63L124 64L123 64L122 64L122 64L122 63L122 63L122 62L123 60L123 60L123 59L122 60L122 59L122 59L121 60L120 60L120 60L116 61L116 61L116 59L117 58L117 57L118 56L118 55L119 53L119 53L117 51L116 50L116 48L115 47L114 45L114 43L114 44L113 42L114 42L116 41L118 40L119 40ZM139 39L138 39L137 38L137 36L137 36L138 36L139 38L139 38L139 39ZM79 40L79 41L79 41L80 42L81 43L81 44L81 44L82 46L82 47L81 47L80 45L80 44L79 43L78 43L78 43L77 39L77 38L76 37L76 35L76 34L77 34L77 35L78 37L78 38L78 38L78 39L79 40ZM147 34L148 34L150 34L150 34L148 35L147 34L145 34L143 35L143 35L144 34L145 34L145 33L145 33L146 33L147 34ZM100 13L100 13L100 13L100 12L101 12L102 12L103 13L103 14L104 15L104 17L104 19L104 20L103 21L104 22L104 23L103 24L104 23L106 20L106 19L106 19L107 20L108 22L108 22L108 23L108 24L108 25L108 26L107 26L107 27L108 27L108 27L108 28L109 29L110 28L111 29L112 31L113 30L113 29L113 29L114 29L115 30L115 31L114 32L115 34L117 35L117 36L118 36L118 37L117 38L117 38L115 38L114 39L112 40L111 40L111 40L111 41L110 42L109 44L109 45L108 47L108 48L108 49L108 50L108 50L107 51L107 50L106 51L106 52L106 52L106 55L106 57L106 59L106 60L105 60L104 60L103 62L102 65L102 66L101 68L102 69L102 70L101 71L101 72L101 73L101 74L101 75L100 76L100 76L99 76L98 75L98 74L97 74L97 73L95 71L94 68L92 66L91 66L91 65L90 64L90 63L89 62L89 61L89 60L89 60L90 59L91 59L91 59L92 60L92 60L93 57L98 55L99 55L101 55L101 54L100 53L100 53L99 54L97 54H96L95 54L94 54L93 55L92 55L92 56L90 56L89 55L88 54L88 53L88 53L88 51L88 50L88 50L88 50L89 50L89 50L90 51L90 50L93 48L94 47L95 47L96 47L96 46L96 46L96 45L96 45L98 45L100 45L101 44L101 43L101 44L100 44L100 44L99 43L99 42L100 40L100 39L99 39L99 39L98 41L97 42L96 42L95 42L94 42L94 41L94 40L94 40L94 39L95 38L94 36L94 36L94 37L94 39L93 39L93 39L92 39L92 38L92 38H92L91 38L91 38L91 39L91 40L91 41L91 42L91 43L92 44L91 44L91 44L90 46L90 46L89 46L88 47L86 47L85 46L85 45L85 45L84 44L83 42L82 40L82 40L81 39L81 38L81 38L80 37L80 36L81 35L80 34L79 33L79 32L80 32L82 34L83 34L83 33L83 33L82 32L82 32L82 32L81 32L81 30L81 30L81 29L82 28L82 26L81 26L80 26L80 26L80 28L80 29L79 30L78 29L78 27L78 26L77 25L77 23L77 22L77 21L76 20L77 20L77 19L77 18L76 17L76 16L77 16L77 15L77 15L78 16L78 17L78 17L79 16L79 15L80 15L82 17L82 17L83 17L82 16L82 15L82 15L84 16L84 16L86 14L88 14L89 15L89 15L89 16L89 16L88 17L86 18L84 20L86 20L87 20L87 22L87 22L88 23L88 23L88 24L89 25L89 25L89 24L89 23L89 22L89 21L89 20L90 19L91 17L92 15L92 16L93 18L94 21L95 24L96 27L96 28L96 29L98 32L98 32L98 30L97 25L96 21L96 20L96 18L96 17L96 17L97 14L97 13L97 12L97 11L98 10L98 10L99 10L100 13ZM161 8L157 9L157 8L163 6L163 6L164 5L165 6L165 6L161 8ZM108 4L107 5L105 4L105 3L106 3L107 3L108 4ZM116 5L116 6L118 5L119 6L119 7L119 8L120 8L121 10L121 10L122 9L122 7L122 4L122 3L122 2L122 1L123 2L123 1L124 0L124 0L125 1L125 1L125 2L125 4L124 7L125 7L127 6L127 5L128 4L128 4L129 4L129 3L129 3L129 3L130 4L130 4L131 4L131 4L131 5L134 6L134 6L135 7L135 7L137 7L139 7L139 8L140 10L140 13L140 14L136 18L136 19L135 20L134 23L134 24L133 25L132 25L131 24L131 24L129 26L129 27L128 28L128 28L127 28L124 27L123 27L123 25L123 24L120 24L116 24L116 24L115 23L114 22L113 22L112 21L111 20L111 19L112 19L112 19L113 19L114 19L114 18L115 17L115 16L114 16L113 16L112 16L111 17L110 17L108 17L107 16L106 15L106 14L106 13L106 12L107 12L107 11L108 10L106 10L105 9L104 8L105 7L108 6L108 7L109 8L110 8L111 7L110 7L109 5L109 4L109 3L110 3L110 4L111 5L111 6L112 4L112 4L112 3L111 2L111 0L111 0L112 0L113 1L114 2L114 2L115 4L116 5Z"/></mask><path d="M1 156L0 156L0 156L0 155L2 154L3 152L4 152L4 152L4 153L3 154L2 154L1 156ZM109 110L109 110L108 110L108 108L108 108L109 108L110 109L110 109L109 110ZM119 40L119 40L120 40L121 44L121 47L122 47L123 47L124 47L124 47L125 48L126 48L125 49L124 50L124 52L125 52L127 54L127 54L129 53L130 54L131 56L128 58L128 58L128 59L127 60L127 61L126 62L125 62L124 62L124 63L124 64L123 64L122 64L122 64L122 63L122 63L122 62L123 60L123 60L123 59L122 60L122 59L122 59L121 60L120 60L120 60L116 61L116 61L116 59L117 58L117 57L118 56L118 55L119 53L119 53L117 51L116 50L116 48L115 47L114 45L114 43L114 44L113 42L114 42L116 41L118 40L119 40ZM139 39L138 39L137 38L137 36L137 36L138 36L139 38L139 38L139 39ZM79 40L79 41L79 41L80 42L81 43L81 44L81 44L82 46L82 47L81 47L80 45L80 44L79 43L78 43L78 43L77 39L77 38L76 37L76 35L76 34L77 34L77 35L78 37L78 38L78 38L78 39L79 40ZM147 34L148 34L150 34L150 34L148 35L147 34L145 34L143 35L143 35L144 34L145 34L145 33L145 33L146 33L147 34ZM100 13L100 13L100 13L100 12L101 12L102 12L103 13L103 14L104 15L104 17L104 19L104 20L103 21L104 22L104 23L103 24L104 23L106 20L106 19L106 19L107 20L108 22L108 22L108 23L108 24L108 25L108 26L107 26L107 27L108 27L108 27L108 28L109 29L110 28L111 29L112 31L113 30L113 29L113 29L114 29L115 30L115 31L114 32L115 34L117 35L117 36L118 36L118 37L117 38L117 38L115 38L114 39L112 40L111 40L111 40L111 41L110 42L109 44L109 45L108 47L108 48L108 49L108 50L108 50L107 51L107 50L106 51L106 52L106 52L106 55L106 57L106 59L106 60L105 60L104 60L103 62L102 65L102 66L101 68L102 69L102 70L101 71L101 72L101 73L101 74L101 75L100 76L100 76L99 76L98 75L98 74L97 74L97 73L95 71L94 68L92 66L91 66L91 65L90 64L90 63L89 62L89 61L89 60L89 60L90 59L91 59L91 59L92 60L92 60L93 57L98 55L99 55L101 55L101 54L100 53L100 53L99 54L97 54H96L95 54L94 54L93 55L92 55L92 56L90 56L89 55L88 54L88 53L88 53L88 51L88 50L88 50L88 50L89 50L89 50L90 51L90 50L93 48L94 47L95 47L96 47L96 46L96 46L96 45L96 45L98 45L100 45L101 44L101 43L101 44L100 44L100 44L99 43L99 42L100 40L100 39L99 39L99 39L98 41L97 42L96 42L95 42L94 42L94 41L94 40L94 40L94 39L95 38L94 36L94 36L94 37L94 39L93 39L93 39L92 39L92 38L92 38H92L91 38L91 38L91 39L91 40L91 41L91 42L91 43L92 44L91 44L91 44L90 46L90 46L89 46L88 47L86 47L85 46L85 45L85 45L84 44L83 42L82 40L82 40L81 39L81 38L81 38L80 37L80 36L81 35L80 34L79 33L79 32L80 32L82 34L83 34L83 33L83 33L82 32L82 32L82 32L81 32L81 30L81 30L81 29L82 28L82 26L81 26L80 26L80 26L80 28L80 29L79 30L78 29L78 27L78 26L77 25L77 23L77 22L77 21L76 20L77 20L77 19L77 18L76 17L76 16L77 16L77 15L77 15L78 16L78 17L78 17L79 16L79 15L80 15L82 17L82 17L83 17L82 16L82 15L82 15L84 16L84 16L86 14L88 14L89 15L89 15L89 16L89 16L88 17L86 18L84 20L86 20L87 20L87 22L87 22L88 23L88 23L88 24L89 25L89 25L89 24L89 23L89 22L89 21L89 20L90 19L91 17L92 15L92 16L93 18L94 21L95 24L96 27L96 28L96 29L98 32L98 32L98 30L97 25L96 21L96 20L96 18L96 17L96 17L97 14L97 13L97 12L97 11L98 10L98 10L99 10L100 13ZM161 8L157 9L157 8L163 6L163 6L164 5L165 6L165 6L161 8ZM108 4L107 5L105 4L105 3L106 3L107 3L108 4ZM116 5L116 6L118 5L119 6L119 7L119 8L120 8L121 10L121 10L122 9L122 7L122 4L122 3L122 2L122 1L123 2L123 1L124 0L124 0L125 1L125 1L125 2L125 4L124 7L125 7L127 6L127 5L128 4L128 4L129 4L129 3L129 3L129 3L130 4L130 4L131 4L131 4L131 5L134 6L134 6L135 7L135 7L137 7L139 7L139 8L140 10L140 13L140 14L136 18L136 19L135 20L134 23L134 24L133 25L132 25L131 24L131 24L129 26L129 27L128 28L128 28L127 28L124 27L123 27L123 25L123 24L120 24L116 24L116 24L115 23L114 22L113 22L112 21L111 20L111 19L112 19L112 19L113 19L114 19L114 18L115 17L115 16L114 16L113 16L112 16L111 17L110 17L108 17L107 16L106 15L106 14L106 13L106 12L107 12L107 11L108 10L106 10L105 9L104 8L105 7L108 6L108 7L109 8L110 8L111 7L110 7L109 5L109 4L109 3L110 3L110 4L111 5L111 6L112 4L112 4L112 3L111 2L111 0L111 0L112 0L113 1L114 2L114 2L115 4L116 5Z" fill="var(--fill-0,#71B219)" stroke="var(--stroke-0,white)" mask="url(#path-1-inside-1_0_224)"/></g></svg>