<svg preserveAspectRatio="none" width="100%" height="100%" overflow="visible" style="display: block;" viewBox="0 0 164.966 155.802" fill="none" xmlns="http://www.w3.org/2000/svg">
<g id="SJ">
<mask id="path-1-inside-1_0_224" fill="white">
<path d="M0.561269 155.727L0.20496 155.802L0 155.541L0.518614 154.825L2.23273 153.471L2.91646 152.173L4.23712 151.724L4.32377 152.448L4.23435 153.345L3.07465 154.056L1.78838 154.536L0.561269 155.727ZM109.333 109.835L108.867 110.389L108.168 109.554L107.704 108.477L107.951 108.067L109.193 108.012L109.497 108.573L109.548 108.892L109.333 109.835ZM118.556 39.995L119.087 40.4545L120.236 40.3599L120.87 43.6258L121.226 47.0371L121.804 47.2813L122.906 46.8149L123.888 46.5872L124.392 46.8396L125.289 47.8258L125.675 48.5172L125.338 49.059L124.517 49.6639L124.381 51.458L125.207 52.0794L126.572 53.5951L127.341 53.7912L128.713 53.1712L130 54.3454L131.276 55.7623L128.294 57.54L128.033 58.0365L127.62 59.3424L127.181 60.4109L126.776 61.0391L125.884 62.1159L125.404 62.4876L124.326 62.4053L123.921 62.8319L123.547 63.7001L123.17 64.3229L122.212 64.482L121.724 63.6206L121.885 63.3545L121.954 62.8442L121.783 61.6234L122.697 60.3684L122.903 59.6702L122.721 59.4178L122.47 59.4864L121.805 59.1023L121.609 59.1215L121.058 59.8567L120.295 60.3505L119.52 60.4753L116.407 61.4191L115.937 61.0885L115.725 59.2079L116.99 58.2368L117.184 56.5894L117.503 55.4866L117.876 54.7528L118.561 52.8503L118.733 52.7131L117.025 51.1947L116.349 50.2043L115.613 48.2113L115.388 46.5859L114.39 45.1936L114.513 43.4022L113.789 43.5435L113.231 42.2788L113.751 41.5656L116.392 40.7535L117.967 39.9594L118.556 39.995ZM138.896 38.9567L138.329 39.0047L137.287 37.5576L137.086 36.2929L137.272 35.7744L137.774 35.7552L138.557 37.4835L139.402 38.0034L138.896 38.9567ZM78.5658 39.7028L78.6099 41.043L79.2386 40.9099L79.9801 42.331L80.789 43.0813L81.0173 43.5943L81.1893 44.2527L81.679 45.5722L81.9115 46.9548L81.3268 47.1002L80.5221 45.1278L79.8645 43.9989L79.0377 43.0305L78.3691 42.9825L78.0678 42.5587L76.9838 39.039L76.7843 38.2201L76.1653 36.8964L75.8915 35.2395L75.8929 33.935L76.721 34.2436L77.4474 35.0625L78.0775 36.906L78.1903 37.4753L77.9028 38.2297L78.1985 39.1199L78.5658 39.7028ZM147.278 33.7512L148.429 33.8774L149.586 33.5605L149.786 33.8993L148.296 34.95L146.637 34.3918L145.144 34.2491L143.382 35.4137L142.807 34.9487L143.702 33.8253L144.679 33.4522L144.836 32.7636L145.209 32.6456L146.499 32.5743L147.278 33.7512ZM99.9414 12.906L100.142 12.9499L100.338 12.7167L100.479 12.0995L100.636 11.7579L101.613 12.1584L102.998 13.3902L103.41 13.9951L103.987 15.2365L104.456 17.309L104.084 18.7946L103.592 20.1923L103.419 20.9604L103.598 22.0591L103.525 23.1235L103.346 24.0618L104.089 22.9919L105.677 19.5325L105.913 19.3172L106.161 19.4351L106.872 20.1498L107.517 21.9165L107.659 22.4981L107.775 23.2099L107.841 24.0878L107.805 25.0891L107.746 25.7846L107.409 26.2331L107.245 26.6418L107.609 26.672L108.026 27.207L108.407 28.34L108.834 28.794L110.382 28.4113L111.387 29.0025L111.939 30.8474L112.789 30.4318L112.792 29.4483L112.979 29.0258L114.119 29.3619L114.709 29.8214L115.312 30.787L114.283 32.359L115.132 33.8568L116.557 34.9363L117.417 36.0638L117.572 36.5343L117.713 37.1584L117.153 37.965L116.583 38.419L115.148 38.4972L113.844 39.065L111.457 39.4669L111.102 39.7234L111.018 39.9525L110.878 40.6466L109.961 42.2391L109.072 44.1649L108.705 45.3171L108.428 46.9206L108.326 47.8958L108.524 48.8368L108.472 49.7846L107.803 50.5253L107.38 50.5541L106.849 50.4087L106.326 50.8339L106.293 51.4717L106.323 52.3674L106.19 55.0792L106.027 57.1024L105.784 58.9665L105.51 59.9651L105.161 60.2422L104.04 60.4246L103.176 62.1488L102.478 65.1994L102.115 66.3859L101.358 68.2472L101.496 68.9042L101.731 69.6134L101.318 70.8767L100.68 72.2868L100.692 72.8299L100.907 73.8203L101.012 74.8463L100.519 75.7255L99.6139 76.1713L98.6922 75.672L98.2438 75.0822L97.8283 74.1358L97.3867 73.5158L96.9272 73.1427L95.1595 71.0221L93.5278 67.6272L92.038 66.2926L91.0667 65.6575L90.599 65.0403L90.1423 64.209L89.7475 63.2708L89.3802 62.0816L89.2027 61.3395L89.1697 60.2216L89.2867 59.5632L89.4613 59.2244L90.6445 58.9459L91.0695 59.1037L91.4877 59.6908L91.8688 59.9212L92.741 56.9845L97.7031 55.2877L99.2976 54.9928L100.897 55.0106L100.648 54.2041L100.437 53.1781L100.201 52.9284L98.9922 53.5045L97.1405 54.1094H96.238L95.3067 53.7062L94.3781 53.9284L93.4205 54.8049L92.4549 55.3577L91.5166 55.5799L89.5328 55.4907L89.0417 55.0381L88.38 53.9874L88.2191 53.4469L88.0815 52.7831L87.9522 50.7763L88.0953 50.2276L88.2975 49.9122L88.5052 49.7174L88.9413 49.7078L89.3692 50.0562L90.3707 51.2029L90.1423 49.9725L93.0244 48.4815L94.3629 47.1702L95.0507 46.9494L95.74 47.0454L95.5887 46.3445L95.5832 45.6929L96.0729 45.1607L96.4251 44.9316L97.4857 44.6697L99.9056 44.7149L100.778 44.3542L101.431 43.4406L100.735 43.7589L100.038 43.8192L99.7116 43.6299L98.9729 42.8302L98.6372 41.7754L99.5947 39.6548L99.9276 38.6645L98.9536 38.8072L98.6289 39.1542L97.5133 41.1061L96.6892 41.9784L95.6726 42.3968L94.6559 42.3611L94.4344 42.0854L94.1236 40.7988L94.0259 40.1198L94.0672 39.7467L94.3891 38.6741L94.5569 37.5342L94.528 36.548L94.2914 36.3491L93.9159 37.3148L93.576 38.6508L93.1097 39.3174L92.6282 39.135L92.4232 38.6233L92.2444 37.8388L92.0559 37.5356H91.8468L91.4162 37.8497L90.9897 38.4299L91.1369 39.3078L91.1755 40.2803L90.9911 41.0498L90.8522 41.9867L91.291 42.5751L91.6487 43.4845L91.1122 43.9111L90.5866 44.5311L90.1038 45.4844L89.6099 46.2237L88.8271 46.3019L87.8518 46.7107L85.9024 46.8547L84.9862 45.6518L84.8184 45.0784L84.6354 44.693L84.0273 44.0579L83.14 42.1732L82.4563 40.0087L81.9955 39.7975L81.3131 39.0787L80.9416 38.4615L80.5881 37.6344L80.4822 36.6509L80.5166 35.7511L80.9251 35.3506L79.9594 34.3342L79.0116 32.9844L79.361 32.529L79.7132 32.3288L82.5223 33.9048L82.7094 33.7087L83.0176 32.9268L82.9075 32.6635L82.437 32.4824L81.796 32.4879L81.6364 32.326L81.3888 31.4742L81.1728 30.4222L81.0806 29.7185L81.0448 28.8914L81.5222 27.6459L81.7836 26.5239L81.3764 26.0027L80.2222 26.0342L79.8383 26.1933L79.9801 27.805L79.6127 28.912L78.9084 29.772L78.4035 29.3536L78.0142 27.2358L77.5052 25.7489L77.314 24.8066L77.1681 23.4445L76.9618 22.4473L76.5876 21.2375L76.5381 20.4886L76.5848 19.933L76.8696 18.6684L76.6536 17.6094L76.3895 16.6767L76.373 16.1431L76.6206 15.4834L76.8435 15.2639L77.0828 15.3119L77.7913 16.0979L78.1806 17.0347L78.3155 16.9593L78.5686 15.5657L78.9276 15.2502L80.313 14.7893L81.8551 16.5903L82.2541 16.9894L82.5732 17.1184L82.4082 16.3214L82.3077 15.2831L82.543 14.8894L83.788 15.818L84.3713 15.7618L85.7387 14.5465L87.999 13.9073L88.8533 14.8689L88.8973 15.3805L88.8794 16.0677L88.8243 16.2734L88.325 17.0704L85.4746 17.7192L83.6064 20.1923L86.1542 19.7959L86.6123 20.0784L86.8049 22.0687L86.9906 22.2772L87.6454 22.5653L88.0897 23.1551L88.5437 24.2744L89.0211 25.0247L89.3003 24.9314L89.4022 24.118L89.288 23.151L89.2288 22.044L89.2619 20.8438L89.3389 19.8466L89.874 19.1416L90.6513 16.8386L91.4767 15.2639L92.3957 15.9648L93.2472 17.929L94.0149 20.7012L94.7591 23.6242L95.5928 27.1946L95.9945 28.4401L96.3591 28.7336L98.0429 32.3644L98.2328 32.4646L97.8847 29.7103L97.0125 24.9684L96.4237 21.2567L96.2902 19.8219L96.1954 17.7905L96.2325 17.2062L96.3081 16.6753L96.7346 14.4724L97.2931 13.3943L97.1239 11.8663L97.267 10.6853L97.8531 9.74706L98.3979 9.67847L98.9275 10.3917L99.9414 12.906ZM160.709 8.19296L157.046 9.03653L156.676 8.44534L162.611 5.96537L162.918 5.72258L164.02 5.41259L164.966 5.97772L164.686 6.41391L160.709 8.19296ZM107.49 4.07796L106.653 5.33852L105.253 4.36875L105.419 3.37018L105.752 2.76116L106.631 2.99023L107.49 4.07796ZM115.814 5.24113L116.202 5.49352L118.329 5.40162L118.736 5.95577L118.897 7.29589L119.222 7.75402L119.674 7.89668L120.804 9.52484L121.188 9.75802L121.522 8.85547L121.778 6.59359L121.792 3.91061L121.683 2.5993L121.809 1.75436L122.188 1.42516L122.664 1.51294L123.129 1.0411L123.53 0.207123L123.961 0.0919034L124.901 0.72561L125.148 1.22215L124.896 2.24542L124.799 3.69801L124.374 6.66904L125.295 6.85147L126.587 6.22599L126.915 5.36733L127.609 3.99566L128.344 4.21238L128.696 4.02996L128.874 3.43053L128.941 2.7159L129.347 2.83523L129.903 4.21101L130.161 4.42362L130.634 4.06973L130.826 4.08344L131.293 4.63074L133.473 5.62245L134.228 6.15055L134.552 6.64298L134.881 6.9324L137.199 6.92554L138.836 7.27394L139.44 8.05031L139.947 9.5317L140.14 12.9101L139.682 13.814L136.367 17.8865L135.536 19.18L135.134 20.3651L134.456 22.9342L134.127 23.7051L132.576 24.9149L132.212 25.0439L131.046 24.4527L130.689 24.5075L129.271 25.8175L128.783 26.6062L128.304 27.5965L127.589 28.0313L126.86 27.7982L123.558 27.2838L123.116 26.5884L122.754 25.2469L123.411 23.5186L119.728 24.1633L115.672 23.8135L115.458 23.5693L115.284 22.8986L113.89 22.4391L112.841 21.8863L111.961 20.9522L111.09 19.7341L111.369 19.1622L111.655 18.8275L112.404 18.6862L113.068 18.8563L114.251 18.8467L114.526 17.6081L114.997 17.2501L115.373 16.3571L114.123 15.792L112.822 15.7069L111.954 16.4504L110.948 16.7864L110.029 16.8303L108.262 16.6205L107.424 16.0924L106.278 14.707L105.879 13.9389L105.725 13.334L105.611 12.4149L106.92 11.5865L107.429 10.9335L107.93 10.0378L105.952 9.52621L105.124 8.77042L104.302 7.65527L104.968 7.0243L107.631 6.51952L108.337 6.94199L109.036 7.75539L109.811 8.25468L110.559 7.20261L109.855 6.70333L109.225 4.93936L109.091 4.05739L109.175 3.37841L109.505 3.27691L109.751 3.57182L110.681 5.23976L111.387 5.75688L111.585 4.22062L111.617 3.4854L111.488 2.87638L111.156 1.74888L110.859 0.355265L111.318 0L111.774 0.153626L112.75 1.11105L113.735 1.7818L114.185 2.45665L115.024 4.13009L115.814 5.24113Z"/>
</mask>
<path d="M0.561269 155.727L0.20496 155.802L0 155.541L0.518614 154.825L2.23273 153.471L2.91646 152.173L4.23712 151.724L4.32377 152.448L4.23435 153.345L3.07465 154.056L1.78838 154.536L0.561269 155.727ZM109.333 109.835L108.867 110.389L108.168 109.554L107.704 108.477L107.951 108.067L109.193 108.012L109.497 108.573L109.548 108.892L109.333 109.835ZM118.556 39.995L119.087 40.4545L120.236 40.3599L120.87 43.6258L121.226 47.0371L121.804 47.2813L122.906 46.8149L123.888 46.5872L124.392 46.8396L125.289 47.8258L125.675 48.5172L125.338 49.059L124.517 49.6639L124.381 51.458L125.207 52.0794L126.572 53.5951L127.341 53.7912L128.713 53.1712L130 54.3454L131.276 55.7623L128.294 57.54L128.033 58.0365L127.62 59.3424L127.181 60.4109L126.776 61.0391L125.884 62.1159L125.404 62.4876L124.326 62.4053L123.921 62.8319L123.547 63.7001L123.17 64.3229L122.212 64.482L121.724 63.6206L121.885 63.3545L121.954 62.8442L121.783 61.6234L122.697 60.3684L122.903 59.6702L122.721 59.4178L122.47 59.4864L121.805 59.1023L121.609 59.1215L121.058 59.8567L120.295 60.3505L119.52 60.4753L116.407 61.4191L115.937 61.0885L115.725 59.2079L116.99 58.2368L117.184 56.5894L117.503 55.4866L117.876 54.7528L118.561 52.8503L118.733 52.7131L117.025 51.1947L116.349 50.2043L115.613 48.2113L115.388 46.5859L114.39 45.1936L114.513 43.4022L113.789 43.5435L113.231 42.2788L113.751 41.5656L116.392 40.7535L117.967 39.9594L118.556 39.995ZM138.896 38.9567L138.329 39.0047L137.287 37.5576L137.086 36.2929L137.272 35.7744L137.774 35.7552L138.557 37.4835L139.402 38.0034L138.896 38.9567ZM78.5658 39.7028L78.6099 41.043L79.2386 40.9099L79.9801 42.331L80.789 43.0813L81.0173 43.5943L81.1893 44.2527L81.679 45.5722L81.9115 46.9548L81.3268 47.1002L80.5221 45.1278L79.8645 43.9989L79.0377 43.0305L78.3691 42.9825L78.0678 42.5587L76.9838 39.039L76.7843 38.2201L76.1653 36.8964L75.8915 35.2395L75.8929 33.935L76.721 34.2436L77.4474 35.0625L78.0775 36.906L78.1903 37.4753L77.9028 38.2297L78.1985 39.1199L78.5658 39.7028ZM147.278 33.7512L148.429 33.8774L149.586 33.5605L149.786 33.8993L148.296 34.95L146.637 34.3918L145.144 34.2491L143.382 35.4137L142.807 34.9487L143.702 33.8253L144.679 33.4522L144.836 32.7636L145.209 32.6456L146.499 32.5743L147.278 33.7512ZM99.9414 12.906L100.142 12.9499L100.338 12.7167L100.479 12.0995L100.636 11.7579L101.613 12.1584L102.998 13.3902L103.41 13.9951L103.987 15.2365L104.456 17.309L104.084 18.7946L103.592 20.1923L103.419 20.9604L103.598 22.0591L103.525 23.1235L103.346 24.0618L104.089 22.9919L105.677 19.5325L105.913 19.3172L106.161 19.4351L106.872 20.1498L107.517 21.9165L107.659 22.4981L107.775 23.2099L107.841 24.0878L107.805 25.0891L107.746 25.7846L107.409 26.2331L107.245 26.6418L107.609 26.672L108.026 27.207L108.407 28.34L108.834 28.794L110.382 28.4113L111.387 29.0025L111.939 30.8474L112.789 30.4318L112.792 29.4483L112.979 29.0258L114.119 29.3619L114.709 29.8214L115.312 30.787L114.283 32.359L115.132 33.8568L116.557 34.9363L117.417 36.0638L117.572 36.5343L117.713 37.1584L117.153 37.965L116.583 38.419L115.148 38.4972L113.844 39.065L111.457 39.4669L111.102 39.7234L111.018 39.9525L110.878 40.6466L109.961 42.2391L109.072 44.1649L108.705 45.3171L108.428 46.9206L108.326 47.8958L108.524 48.8368L108.472 49.7846L107.803 50.5253L107.38 50.5541L106.849 50.4087L106.326 50.8339L106.293 51.4717L106.323 52.3674L106.19 55.0792L106.027 57.1024L105.784 58.9665L105.51 59.9651L105.161 60.2422L104.04 60.4246L103.176 62.1488L102.478 65.1994L102.115 66.3859L101.358 68.2472L101.496 68.9042L101.731 69.6134L101.318 70.8767L100.68 72.2868L100.692 72.8299L100.907 73.8203L101.012 74.8463L100.519 75.7255L99.6139 76.1713L98.6922 75.672L98.2438 75.0822L97.8283 74.1358L97.3867 73.5158L96.9272 73.1427L95.1595 71.0221L93.5278 67.6272L92.038 66.2926L91.0667 65.6575L90.599 65.0403L90.1423 64.209L89.7475 63.2708L89.3802 62.0816L89.2027 61.3395L89.1697 60.2216L89.2867 59.5632L89.4613 59.2244L90.6445 58.9459L91.0695 59.1037L91.4877 59.6908L91.8688 59.9212L92.741 56.9845L97.7031 55.2877L99.2976 54.9928L100.897 55.0106L100.648 54.2041L100.437 53.1781L100.201 52.9284L98.9922 53.5045L97.1405 54.1094H96.238L95.3067 53.7062L94.3781 53.9284L93.4205 54.8049L92.4549 55.3577L91.5166 55.5799L89.5328 55.4907L89.0417 55.0381L88.38 53.9874L88.2191 53.4469L88.0815 52.7831L87.9522 50.7763L88.0953 50.2276L88.2975 49.9122L88.5052 49.7174L88.9413 49.7078L89.3692 50.0562L90.3707 51.2029L90.1423 49.9725L93.0244 48.4815L94.3629 47.1702L95.0507 46.9494L95.74 47.0454L95.5887 46.3445L95.5832 45.6929L96.0729 45.1607L96.4251 44.9316L97.4857 44.6697L99.9056 44.7149L100.778 44.3542L101.431 43.4406L100.735 43.7589L100.038 43.8192L99.7116 43.6299L98.9729 42.8302L98.6372 41.7754L99.5947 39.6548L99.9276 38.6645L98.9536 38.8072L98.6289 39.1542L97.5133 41.1061L96.6892 41.9784L95.6726 42.3968L94.6559 42.3611L94.4344 42.0854L94.1236 40.7988L94.0259 40.1198L94.0672 39.7467L94.3891 38.6741L94.5569 37.5342L94.528 36.548L94.2914 36.3491L93.9159 37.3148L93.576 38.6508L93.1097 39.3174L92.6282 39.135L92.4232 38.6233L92.2444 37.8388L92.0559 37.5356H91.8468L91.4162 37.8497L90.9897 38.4299L91.1369 39.3078L91.1755 40.2803L90.9911 41.0498L90.8522 41.9867L91.291 42.5751L91.6487 43.4845L91.1122 43.9111L90.5866 44.5311L90.1038 45.4844L89.6099 46.2237L88.8271 46.3019L87.8518 46.7107L85.9024 46.8547L84.9862 45.6518L84.8184 45.0784L84.6354 44.693L84.0273 44.0579L83.14 42.1732L82.4563 40.0087L81.9955 39.7975L81.3131 39.0787L80.9416 38.4615L80.5881 37.6344L80.4822 36.6509L80.5166 35.7511L80.9251 35.3506L79.9594 34.3342L79.0116 32.9844L79.361 32.529L79.7132 32.3288L82.5223 33.9048L82.7094 33.7087L83.0176 32.9268L82.9075 32.6635L82.437 32.4824L81.796 32.4879L81.6364 32.326L81.3888 31.4742L81.1728 30.4222L81.0806 29.7185L81.0448 28.8914L81.5222 27.6459L81.7836 26.5239L81.3764 26.0027L80.2222 26.0342L79.8383 26.1933L79.9801 27.805L79.6127 28.912L78.9084 29.772L78.4035 29.3536L78.0142 27.2358L77.5052 25.7489L77.314 24.8066L77.1681 23.4445L76.9618 22.4473L76.5876 21.2375L76.5381 20.4886L76.5848 19.933L76.8696 18.6684L76.6536 17.6094L76.3895 16.6767L76.373 16.1431L76.6206 15.4834L76.8435 15.2639L77.0828 15.3119L77.7913 16.0979L78.1806 17.0347L78.3155 16.9593L78.5686 15.5657L78.9276 15.2502L80.313 14.7893L81.8551 16.5903L82.2541 16.9894L82.5732 17.1184L82.4082 16.3214L82.3077 15.2831L82.543 14.8894L83.788 15.818L84.3713 15.7618L85.7387 14.5465L87.999 13.9073L88.8533 14.8689L88.8973 15.3805L88.8794 16.0677L88.8243 16.2734L88.325 17.0704L85.4746 17.7192L83.6064 20.1923L86.1542 19.7959L86.6123 20.0784L86.8049 22.0687L86.9906 22.2772L87.6454 22.5653L88.0897 23.1551L88.5437 24.2744L89.0211 25.0247L89.3003 24.9314L89.4022 24.118L89.288 23.151L89.2288 22.044L89.2619 20.8438L89.3389 19.8466L89.874 19.1416L90.6513 16.8386L91.4767 15.2639L92.3957 15.9648L93.2472 17.929L94.0149 20.7012L94.7591 23.6242L95.5928 27.1946L95.9945 28.4401L96.3591 28.7336L98.0429 32.3644L98.2328 32.4646L97.8847 29.7103L97.0125 24.9684L96.4237 21.2567L96.2902 19.8219L96.1954 17.7905L96.2325 17.2062L96.3081 16.6753L96.7346 14.4724L97.2931 13.3943L97.1239 11.8663L97.267 10.6853L97.8531 9.74706L98.3979 9.67847L98.9275 10.3917L99.9414 12.906ZM160.709 8.19296L157.046 9.03653L156.676 8.44534L162.611 5.96537L162.918 5.72258L164.02 5.41259L164.966 5.97772L164.686 6.41391L160.709 8.19296ZM107.49 4.07796L106.653 5.33852L105.253 4.36875L105.419 3.37018L105.752 2.76116L106.631 2.99023L107.49 4.07796ZM115.814 5.24113L116.202 5.49352L118.329 5.40162L118.736 5.95577L118.897 7.29589L119.222 7.75402L119.674 7.89668L120.804 9.52484L121.188 9.75802L121.522 8.85547L121.778 6.59359L121.792 3.91061L121.683 2.5993L121.809 1.75436L122.188 1.42516L122.664 1.51294L123.129 1.0411L123.53 0.207123L123.961 0.0919034L124.901 0.72561L125.148 1.22215L124.896 2.24542L124.799 3.69801L124.374 6.66904L125.295 6.85147L126.587 6.22599L126.915 5.36733L127.609 3.99566L128.344 4.21238L128.696 4.02996L128.874 3.43053L128.941 2.7159L129.347 2.83523L129.903 4.21101L130.161 4.42362L130.634 4.06973L130.826 4.08344L131.293 4.63074L133.473 5.62245L134.228 6.15055L134.552 6.64298L134.881 6.9324L137.199 6.92554L138.836 7.27394L139.44 8.05031L139.947 9.5317L140.14 12.9101L139.682 13.814L136.367 17.8865L135.536 19.18L135.134 20.3651L134.456 22.9342L134.127 23.7051L132.576 24.9149L132.212 25.0439L131.046 24.4527L130.689 24.5075L129.271 25.8175L128.783 26.6062L128.304 27.5965L127.589 28.0313L126.86 27.7982L123.558 27.2838L123.116 26.5884L122.754 25.2469L123.411 23.5186L119.728 24.1633L115.672 23.8135L115.458 23.5693L115.284 22.8986L113.89 22.4391L112.841 21.8863L111.961 20.9522L111.09 19.7341L111.369 19.1622L111.655 18.8275L112.404 18.6862L113.068 18.8563L114.251 18.8467L114.526 17.6081L114.997 17.2501L115.373 16.3571L114.123 15.792L112.822 15.7069L111.954 16.4504L110.948 16.7864L110.029 16.8303L108.262 16.6205L107.424 16.0924L106.278 14.707L105.879 13.9389L105.725 13.334L105.611 12.4149L106.92 11.5865L107.429 10.9335L107.93 10.0378L105.952 9.52621L105.124 8.77042L104.302 7.65527L104.968 7.0243L107.631 6.51952L108.337 6.94199L109.036 7.75539L109.811 8.25468L110.559 7.20261L109.855 6.70333L109.225 4.93936L109.091 4.05739L109.175 3.37841L109.505 3.27691L109.751 3.57182L110.681 5.23976L111.387 5.75688L111.585 4.22062L111.617 3.4854L111.488 2.87638L111.156 1.74888L110.859 0.355265L111.318 0L111.774 0.153626L112.75 1.11105L113.735 1.7818L114.185 2.45665L115.024 4.13009L115.814 5.24113Z" fill="var(--fill-0, #71B219)" stroke="var(--stroke-0, white)" mask="url(#path-1-inside-1_0_224)"/>
</g>
</svg>
