<svg preserveAspectRatio="none" width="100%" height="100%" overflow="visible" style="display: block;" viewBox="0 0 22 11" fill="none" xmlns="http://www.w3.org/2000/svg"><g id="SK"><mask id="path-1-inside-1_0_39" fill="white"><path d="M22 3L22 3L22 4L22 4L21 4L21 5L21 5L20 6L20 7L20 7L19 7L19 7L19 7L18 7L18 7L18 7L18 6L18 6L18 6L18 6L17 6L16 6L16 6L16 6L15 6L14 6L14 6L13 8L13 8L12 8L12 9L11 8L11 8L11 8L10 8L10 8L10 9L9 9L8 9L7 9L7 10L7 10L7 10L7 10L7 10L6 11L5 11L4 11L4 11L3 10L2 10L2 9L2 9L2 9L1 9L1 9L1 9L1 9L0 8L0 7L0 7L0 6L0 6L0 6L0 6L0 5L1 5L1 4L1 4L2 4L2 4L3 4L4 4L4 4L4 4L4 4L4 3L5 3L5 3L5 3L5 2L5 2L5 2L6 2L6 1L6 1L6 1L6 1L7 1L7 1L7 1L8 0L8 0L8 1L8 1L8 1L9 1L9 0L9 0L10 0L10 0L10 0L10 1L10 1L11 1L11 1L11 1L11 1L11 1L11 2L11 2L11 2L11 2L11 2L12 2L12 2L12 2L12 2L13 2L13 2L13 1L14 1L14 1L14 1L14 1L14 1L14 1L15 1L15 2L16 2L16 2L16 2L16 1L16 1L17 1L17 1L18 1L19 1L19 2L20 2L20 2L20 2L21 3L22 3L22 3Z"/></mask><path d="M22 3L22 3L22 4L22 4L21 4L21 5L21 5L20 6L20 7L20 7L19 7L19 7L19 7L18 7L18 7L18 7L18 6L18 6L18 6L18 6L17 6L16 6L16 6L16 6L15 6L14 6L14 6L13 8L13 8L12 8L12 9L11 8L11 8L11 8L10 8L10 8L10 9L9 9L8 9L7 9L7 10L7 10L7 10L7 10L7 10L6 11L5 11L4 11L4 11L3 10L2 10L2 9L2 9L2 9L1 9L1 9L1 9L1 9L0 8L0 7L0 7L0 6L0 6L0 6L0 6L0 5L1 5L1 4L1 4L2 4L2 4L3 4L4 4L4 4L4 4L4 4L4 3L5 3L5 3L5 3L5 2L5 2L5 2L6 2L6 1L6 1L6 1L6 1L7 1L7 1L7 1L8 0L8 0L8 1L8 1L8 1L9 1L9 0L9 0L10 0L10 0L10 0L10 1L10 1L11 1L11 1L11 1L11 1L11 1L11 2L11 2L11 2L11 2L11 2L12 2L12 2L12 2L12 2L13 2L13 2L13 1L14 1L14 1L14 1L14 1L14 1L14 1L15 1L15 2L16 2L16 2L16 2L16 1L16 1L17 1L17 1L18 1L19 1L19 2L20 2L20 2L20 2L21 3L22 3L22 3Z" fill="var(--fill-0,#71B219)" stroke="var(--stroke-0,white)" mask="url(#path-1-inside-1_0_39)"/></g></svg>