<svg preserveAspectRatio="none" width="100%" height="100%" overflow="visible" style="display: block;" viewBox="0 0 21.9149 10.6647" fill="none" xmlns="http://www.w3.org/2000/svg">
<g id="SK">
<mask id="path-1-inside-1_0_39" fill="white">
<path d="M21.9149 3.09311L21.8584 3.33452L21.7002 3.61573L21.5035 3.90649L21.3384 4.25765L21.1183 5.00523L20.9752 5.35087L20.3864 6.03122L20.3451 6.97629L20.2654 7.04489L18.9351 7.36449L18.7604 7.31648L18.5787 7.13267L18.4783 6.99822L18.4164 6.90085L18.3009 6.63885L18.1482 6.45371L17.9226 6.30142L17.7162 6.12586L17.4507 6.119L16.7326 6.36727L16.2346 6.39473L15.9017 6.31515L15.4587 6.16429L14.5962 6.14093L14.006 6.27262L13.9468 6.45781L13.402 7.61L12.6096 8.03522L11.9218 8.46868L11.7223 8.55646L11.3798 8.41928L10.9904 8.1628L10.6672 8.02835L10.4305 8.08733L10.1733 8.37951L10.055 8.67442L9.27636 8.89113L7.92123 9.01871L7.448 9.30951L7.28704 9.65791L7.28024 9.92536L7.39578 10.1531L7.25127 10.4178L7.18805 10.5289L6.23059 10.5865L4.95389 10.6647L4.19039 10.6441L3.47232 10.6263L2.98389 10.3986L2.38689 9.9542L1.75539 9.36301L1.69485 9.34928L1.60131 9.28616L1.20516 9.24091L1.09919 9.27657L0.862579 9.08318L0.793811 8.83214L0.425118 8.17239L0.0109995 7.08328L0 6.76778L0.16239 6.40841L0.312352 6.13273L0.334351 5.91464L0.349465 5.85565L0.474658 5.40164L0.774583 4.79811L1.0552 4.44694L1.25739 4.33036L1.67696 4.43598L2.39378 4.52376L2.94543 4.44146L3.45989 4.17125L3.73916 3.93533L3.9772 3.68706L4.05697 3.52519L4.16285 3.44838L4.58797 3.30434L4.72416 3.13702L4.77916 2.81876L4.81635 2.46488L4.90301 2.20154L5.01308 2.0081L5.79993 1.5445L5.87147 1.37991L5.99666 1.22214L6.23059 1.04386L6.45612 0.785961L6.6955 0.628233L7.00231 0.646066L7.2857 0.613122L7.5072 0.522621L7.60485 0.514374L8.01343 0.587085L8.08774 0.883369L8.13039 1.19062L8.82924 1.16864L9.21859 0.510272L9.42078 0.430696L9.74404 0.201639L9.95732 0L10.1045 0.124826L10.3164 0.550039L10.542 0.890234L10.6726 1.02465L10.6864 1.12888L10.8171 1.192L11.0716 1.22901L11.2408 1.3319L11.2904 1.64874L11.2945 1.93405L11.2147 2.13841L11.1734 2.3195L11.3495 2.39083L11.6082 2.32222L11.7897 2.21937L12.3359 2.45529L12.5284 1.92995L12.7458 1.66108L13.0264 1.53492L13.2824 1.37167L13.5149 1.25509L13.6758 1.26195L13.7459 1.21256L13.9454 1.22629L14.1779 1.2784L14.493 1.21666L14.9277 1.34563L15.2 1.58837L15.467 1.67071L15.771 1.65698L15.9787 1.52257L16.28 1.06031L16.5001 1.06718L16.8427 0.994465L17.3269 0.998568L18.444 1.09736L18.7232 1.2743L19.4111 1.50059L19.7109 1.76259L19.843 2.07395L19.9132 2.28932L20.6175 2.61989L21.6617 3.041L21.9149 3.09311Z"/>
</mask>
<path d="M21.9149 3.09311L21.8584 3.33452L21.7002 3.61573L21.5035 3.90649L21.3384 4.25765L21.1183 5.00523L20.9752 5.35087L20.3864 6.03122L20.3451 6.97629L20.2654 7.04489L18.9351 7.36449L18.7604 7.31648L18.5787 7.13267L18.4783 6.99822L18.4164 6.90085L18.3009 6.63885L18.1482 6.45371L17.9226 6.30142L17.7162 6.12586L17.4507 6.119L16.7326 6.36727L16.2346 6.39473L15.9017 6.31515L15.4587 6.16429L14.5962 6.14093L14.006 6.27262L13.9468 6.45781L13.402 7.61L12.6096 8.03522L11.9218 8.46868L11.7223 8.55646L11.3798 8.41928L10.9904 8.1628L10.6672 8.02835L10.4305 8.08733L10.1733 8.37951L10.055 8.67442L9.27636 8.89113L7.92123 9.01871L7.448 9.30951L7.28704 9.65791L7.28024 9.92536L7.39578 10.1531L7.25127 10.4178L7.18805 10.5289L6.23059 10.5865L4.95389 10.6647L4.19039 10.6441L3.47232 10.6263L2.98389 10.3986L2.38689 9.9542L1.75539 9.36301L1.69485 9.34928L1.60131 9.28616L1.20516 9.24091L1.09919 9.27657L0.862579 9.08318L0.793811 8.83214L0.425118 8.17239L0.0109995 7.08328L0 6.76778L0.16239 6.40841L0.312352 6.13273L0.334351 5.91464L0.349465 5.85565L0.474658 5.40164L0.774583 4.79811L1.0552 4.44694L1.25739 4.33036L1.67696 4.43598L2.39378 4.52376L2.94543 4.44146L3.45989 4.17125L3.73916 3.93533L3.9772 3.68706L4.05697 3.52519L4.16285 3.44838L4.58797 3.30434L4.72416 3.13702L4.77916 2.81876L4.81635 2.46488L4.90301 2.20154L5.01308 2.0081L5.79993 1.5445L5.87147 1.37991L5.99666 1.22214L6.23059 1.04386L6.45612 0.785961L6.6955 0.628233L7.00231 0.646066L7.2857 0.613122L7.5072 0.522621L7.60485 0.514374L8.01343 0.587085L8.08774 0.883369L8.13039 1.19062L8.82924 1.16864L9.21859 0.510272L9.42078 0.430696L9.74404 0.201639L9.95732 0L10.1045 0.124826L10.3164 0.550039L10.542 0.890234L10.6726 1.02465L10.6864 1.12888L10.8171 1.192L11.0716 1.22901L11.2408 1.3319L11.2904 1.64874L11.2945 1.93405L11.2147 2.13841L11.1734 2.3195L11.3495 2.39083L11.6082 2.32222L11.7897 2.21937L12.3359 2.45529L12.5284 1.92995L12.7458 1.66108L13.0264 1.53492L13.2824 1.37167L13.5149 1.25509L13.6758 1.26195L13.7459 1.21256L13.9454 1.22629L14.1779 1.2784L14.493 1.21666L14.9277 1.34563L15.2 1.58837L15.467 1.67071L15.771 1.65698L15.9787 1.52257L16.28 1.06031L16.5001 1.06718L16.8427 0.994465L17.3269 0.998568L18.444 1.09736L18.7232 1.2743L19.4111 1.50059L19.7109 1.76259L19.843 2.07395L19.9132 2.28932L20.6175 2.61989L21.6617 3.041L21.9149 3.09311Z" fill="var(--fill-0, #71B219)" stroke="var(--stroke-0, white)" mask="url(#path-1-inside-1_0_39)"/>
</g>
</svg>
