<svg preserveAspectRatio="none" width="100%" height="100%" overflow="visible" style="display: block;" viewBox="0 0 11.615 11.9582" fill="none" xmlns="http://www.w3.org/2000/svg">
<g id="SL">
<mask id="path-1-inside-1_0_186" fill="white">
<path d="M11.615 5.868L11.6054 5.9873L11.4939 6.54149L11.3206 7.01605L11.2064 7.13268L10.7153 7.2575L10.5062 7.46596L10.326 8.14083L10.2104 8.67031L10.0412 8.75948L9.32031 9.52346L8.84847 9.81288L8.51966 10.0625L8.20739 10.3862L7.81531 10.7017L7.39435 11.2339L7.09447 11.7867L6.88946 11.9582L6.73539 11.8018L6.01866 11.2573L5.26204 10.891L3.65112 10.282L3.11458 10.1105L3.13385 9.89384L3.3182 9.49742L3.01827 9.0324L3.13385 8.69363H3.01827L2.78716 8.89661L2.29604 8.83763L1.97 8.54683L1.7045 8.43988L1.58892 8.29445L1.41835 7.52771L1.29593 7.17931L1.04965 6.96394L0.555811 6.91044L0.352194 6.4427L0.0784239 6.07923L0.123807 5.85566L0.346694 5.868L0.521385 6.03122L0.803425 6.09844L1.15423 5.70475L1.46789 5.49076L1.54077 5.30424L1.50227 5.20134L1.31242 5.36045L0.792426 5.3193L0.663077 5.46196L0.430618 5.50726L0.250386 5.04772L0.258656 4.77613L0.332924 4.47851L0.857079 4.42635L0.902463 4.33036L0.537926 4.2659L0.0825382 3.91884L0 3.67882L0.225616 3.5979L0.441617 3.63356L0.628693 3.68568L0.832309 3.59924L1.02216 3.46759L1.13635 3.29885L1.29043 2.84756L1.78293 2.6967L2.0732 2.41963L2.34969 1.99027L2.47627 1.6885L2.59042 1.53764L2.66196 1.40733L2.71562 1.26467L2.83942 1.13298L2.96877 0.81338L3.05681 0.522621L3.3402 0.382683L3.92073 0.259238L4.4435 0.470463L5.29093 0.286698L5.33631 0.01373L6.11219 0.00958592L7.03116 0.00410227L7.79604 0L8.05881 0.0727106L8.15374 0.275689L8.40551 0.59395L8.66824 0.814761L8.99427 1.29895L9.37397 1.86272L9.78393 2.37161L10.0467 2.6473L10.077 2.74333L10.0577 2.85309L9.92701 3.11094L9.81558 3.39078L9.82658 3.49639L9.90501 3.54851L10.3342 3.6349L10.3727 3.9463V4.377L10.5805 4.77889L10.7786 5.0738L10.7689 5.17941L10.2847 5.68282L10.0962 6.18346L9.99993 6.32474L9.96139 6.43722L10.0577 6.49071L10.1912 6.45781L10.3782 6.49896L10.5571 6.51403L10.7937 6.33437L11.1885 5.87483L11.3206 5.81861L11.615 5.868ZM2.955 9.91849L2.89858 10.0187L2.64135 9.77039L1.31104 9.39864L1.68662 9.20114L2.60969 9.14216L2.88485 9.25736L3.00727 9.35338L3.05265 9.53581L2.955 9.91849Z"/>
</mask>
<path d="M11.615 5.868L11.6054 5.9873L11.4939 6.54149L11.3206 7.01605L11.2064 7.13268L10.7153 7.2575L10.5062 7.46596L10.326 8.14083L10.2104 8.67031L10.0412 8.75948L9.32031 9.52346L8.84847 9.81288L8.51966 10.0625L8.20739 10.3862L7.81531 10.7017L7.39435 11.2339L7.09447 11.7867L6.88946 11.9582L6.73539 11.8018L6.01866 11.2573L5.26204 10.891L3.65112 10.282L3.11458 10.1105L3.13385 9.89384L3.3182 9.49742L3.01827 9.0324L3.13385 8.69363H3.01827L2.78716 8.89661L2.29604 8.83763L1.97 8.54683L1.7045 8.43988L1.58892 8.29445L1.41835 7.52771L1.29593 7.17931L1.04965 6.96394L0.555811 6.91044L0.352194 6.4427L0.0784239 6.07923L0.123807 5.85566L0.346694 5.868L0.521385 6.03122L0.803425 6.09844L1.15423 5.70475L1.46789 5.49076L1.54077 5.30424L1.50227 5.20134L1.31242 5.36045L0.792426 5.3193L0.663077 5.46196L0.430618 5.50726L0.250386 5.04772L0.258656 4.77613L0.332924 4.47851L0.857079 4.42635L0.902463 4.33036L0.537926 4.2659L0.0825382 3.91884L0 3.67882L0.225616 3.5979L0.441617 3.63356L0.628693 3.68568L0.832309 3.59924L1.02216 3.46759L1.13635 3.29885L1.29043 2.84756L1.78293 2.6967L2.0732 2.41963L2.34969 1.99027L2.47627 1.6885L2.59042 1.53764L2.66196 1.40733L2.71562 1.26467L2.83942 1.13298L2.96877 0.81338L3.05681 0.522621L3.3402 0.382683L3.92073 0.259238L4.4435 0.470463L5.29093 0.286698L5.33631 0.01373L6.11219 0.00958592L7.03116 0.00410227L7.79604 0L8.05881 0.0727106L8.15374 0.275689L8.40551 0.59395L8.66824 0.814761L8.99427 1.29895L9.37397 1.86272L9.78393 2.37161L10.0467 2.6473L10.077 2.74333L10.0577 2.85309L9.92701 3.11094L9.81558 3.39078L9.82658 3.49639L9.90501 3.54851L10.3342 3.6349L10.3727 3.9463V4.377L10.5805 4.77889L10.7786 5.0738L10.7689 5.17941L10.2847 5.68282L10.0962 6.18346L9.99993 6.32474L9.96139 6.43722L10.0577 6.49071L10.1912 6.45781L10.3782 6.49896L10.5571 6.51403L10.7937 6.33437L11.1885 5.87483L11.3206 5.81861L11.615 5.868ZM2.955 9.91849L2.89858 10.0187L2.64135 9.77039L1.31104 9.39864L1.68662 9.20114L2.60969 9.14216L2.88485 9.25736L3.00727 9.35338L3.05265 9.53581L2.955 9.91849Z" fill="var(--fill-0, #71B219)" stroke="var(--stroke-0, white)" mask="url(#path-1-inside-1_0_186)"/>
</g>
</svg>
