<svg preserveAspectRatio="none" width="100%" height="100%" overflow="visible" style="display: block;" viewBox="0 0 12 12" fill="none" xmlns="http://www.w3.org/2000/svg"><g id="SL"><mask id="path-1-inside-1_0_186" fill="white"><path d="M12 6L12 6L12 6L11 7L11 7L11 7L10 8L10 8L10 9L10 9L9 10L9 10L8 10L8 10L8 11L7 11L7 12L7 12L7 12L6 11L5 11L4 10L3 10L3 10L3 10L3 9L3 9H3L3 9L2 9L2 8L2 8L2 8L1 8L1 7L1 7L1 7L0 6L0 6L0 6L0 6L0 6L1 6L1 6L2 6L2 5L2 5L1 5L1 5L1 6L0 6L0 5L0 5L0 4L1 4L1 4L0 4L0 4L0 4L0 4L0 4L1 4L1 4L1 4L1 3L1 3L2 3L2 2L2 2L2 2L3 2L3 1L3 1L3 1L3 1L3 0L3 0L4 0L4 0L5 0L5 0L6 0L7 0L8 0L8 0L8 0L8 1L9 1L9 1L9 2L10 2L10 3L10 3L10 3L10 3L10 3L10 4L10 4L10 4L10 4V4L11 5L11 5L11 5L10 6L10 6L10 6L10 6L10 6L10 6L10 6L11 6L11 6L11 6L11 6L12 6ZM3 10L3 10L3 10L1 9L2 9L3 9L3 9L3 9L3 10L3 10Z"/></mask><path d="M12 6L12 6L12 6L11 7L11 7L11 7L10 8L10 8L10 9L10 9L9 10L9 10L8 10L8 10L8 11L7 11L7 12L7 12L7 12L6 11L5 11L4 10L3 10L3 10L3 10L3 9L3 9H3L3 9L2 9L2 8L2 8L2 8L1 8L1 7L1 7L1 7L0 6L0 6L0 6L0 6L0 6L1 6L1 6L2 6L2 5L2 5L1 5L1 5L1 6L0 6L0 5L0 5L0 4L1 4L1 4L0 4L0 4L0 4L0 4L0 4L1 4L1 4L1 4L1 3L1 3L2 3L2 2L2 2L2 2L3 2L3 1L3 1L3 1L3 1L3 0L3 0L4 0L4 0L5 0L5 0L6 0L7 0L8 0L8 0L8 0L8 1L9 1L9 1L9 2L10 2L10 3L10 3L10 3L10 3L10 3L10 4L10 4L10 4L10 4V4L11 5L11 5L11 5L10 6L10 6L10 6L10 6L10 6L10 6L10 6L11 6L11 6L11 6L11 6L12 6ZM3 10L3 10L3 10L1 9L2 9L3 9L3 9L3 9L3 10L3 10Z" fill="var(--fill-0,#71B219)" stroke="var(--stroke-0,white)" mask="url(#path-1-inside-1_0_186)"/></g></svg>