<svg preserveAspectRatio="none" width="100%" height="100%" overflow="visible" style="display: block;" viewBox="0 0 0.45465 0.510827" fill="none" xmlns="http://www.w3.org/2000/svg">
<g id="SM">
<mask id="path-1-inside-1_0_38" fill="white">
<path d="M0.340642 0.471014L0.114008 0.510827L0 0.293865L0.170342 0.0398134L0.412065 0L0.45465 0.196343L0.340642 0.471014Z"/>
</mask>
<path d="M0.340642 0.471014L0.114008 0.510827L0 0.293865L0.170342 0.0398134L0.412065 0L0.45465 0.196343L0.340642 0.471014Z" fill="var(--fill-0, #71B219)"/>
<path d="M0.340642 0.471014L0.427154 0.963472L0.697294 0.916016L0.802441 0.662694L0.340642 0.471014ZM0.114008 0.510827L-0.328604 0.743409L-0.158869 1.06642L0.20052 1.00329L0.114008 0.510827ZM0 0.293865L-0.415289 0.0154132L-0.581156 0.262792L-0.442612 0.526447L0 0.293865ZM0.170342 0.0398134L0.0890833 -0.453539L-0.124435 -0.418371L-0.244947 -0.238638L0.170342 0.0398134ZM0.412065 0L0.900703 -0.105982L0.799927 -0.57062L0.330806 -0.493353L0.412065 0ZM0.45465 0.196343L0.916449 0.388023L0.976481 0.243395L0.943289 0.0903606L0.45465 0.196343ZM0.340642 0.471014L0.25413 -0.0214452L0.0274966 0.0183682L0.114008 0.510827L0.20052 1.00329L0.427154 0.963472L0.340642 0.471014ZM0.114008 0.510827L0.556621 0.278245L0.442612 0.0612829L0 0.293865L-0.442612 0.526447L-0.328604 0.743409L0.114008 0.510827ZM0 0.293865L0.415289 0.572317L0.585631 0.318265L0.170342 0.0398134L-0.244947 -0.238638L-0.415289 0.0154132L0 0.293865ZM0.170342 0.0398134L0.2516 0.533166L0.493323 0.493353L0.412065 0L0.330806 -0.493353L0.0890833 -0.453539L0.170342 0.0398134ZM0.412065 0L-0.0765739 0.105982L-0.0339885 0.302325L0.45465 0.196343L0.943289 0.0903606L0.900703 -0.105982L0.412065 0ZM0.45465 0.196343L-0.00714916 0.00466258L-0.121158 0.279333L0.340642 0.471014L0.802441 0.662694L0.916449 0.388023L0.45465 0.196343Z" fill="var(--stroke-0, white)" mask="url(#path-1-inside-1_0_38)"/>
</g>
</svg>
