<svg preserveAspectRatio="none" width="100%" height="100%" overflow="visible" style="display: block;" viewBox="0 0 23.7568 17.1965" fill="none" xmlns="http://www.w3.org/2000/svg">
<g id="SN">
<mask id="path-1-inside-1_0_37" fill="white">
<path d="M20.2887 7.43306L20.6519 8.06812L20.5735 8.37403L20.4909 8.81846L20.6959 9.14216L20.9367 9.352L21.1086 9.54678L21.2985 9.81288L21.3287 10.3451L21.2943 10.7278L21.4182 10.9006L21.5227 11.1201L21.5021 11.3012L21.4333 11.463L21.2022 11.677L21.1636 12.0734L21.5378 12.5535L21.7786 12.8154L21.7772 12.965L21.8446 13.1296L22.0221 13.3216L22.1321 13.2764L22.2518 13.12L22.3055 13.0116L22.6301 13.0596L22.7815 13.109L22.9892 13.4231L23.0649 13.6316L23.1144 13.8936L23.3304 14.2201L23.5188 14.4505L23.5574 14.5945L23.7252 14.7893L23.622 15.2214L23.633 15.4422L23.5188 16.0224L23.4927 16.2968L23.5009 16.3969L23.7568 16.604L23.7293 16.8962L23.4693 16.8454L23.0181 16.8111L22.1142 16.9634L21.802 16.9016L21.2091 16.9222L20.7853 17.0059L20.2488 17.1965L19.832 17.1486L19.6064 16.9991L19.3092 17.01L18.9749 16.9291L18.62 16.7837L18.2939 16.711L17.9432 16.4435L17.7794 16.3969L17.6639 16.4668L17.5662 16.5546L17.4658 16.6095L17.2746 16.5615L17.203 16.3804L17.2636 16.2048L17.2801 16.0718L17.1907 15.9991L16.9774 15.9758H16.6307L16.0722 15.9209L15.9456 15.8866L14.6951 15.8414L13.4006 15.8359L12.3028 15.8317L10.9161 15.8249L9.94212 15.8208L9.03278 15.8167L8.3312 16.1747L7.57043 16.5601L6.54827 16.7659L5.37208 16.689L4.9965 16.7453L4.6072 16.9168L4.32104 17.0402L3.91658 17.1156L3.39242 17.0539L3.18058 17.0909L3.04989 16.9154L2.89858 16.6301L2.9935 16.4216L3.31266 16.2871L3.79277 16.1116L4.04454 16.2021L4.19173 16.2062L4.21923 16.0937L4.17246 16.0334L3.80927 15.8811L3.6222 15.6795L3.46673 15.7975L3.33193 16.0444L3.22046 16.1184L3.05677 16.187L2.96462 16.0197L2.92335 15.8564L2.999 15.7289L2.96046 15.0197L3.0045 14.6412L2.98112 14.3106L3.20812 14.0925L3.42408 13.9567L4.26462 13.9444L5.04739 13.932L5.80127 13.9402L6.56893 13.9471L6.64458 13.2846L6.88808 13.2325L7.25128 13.1639L7.92947 13.0829L8.68474 13.0061L8.8457 12.8758L8.97089 12.6563L9.04927 12.4588L9.20612 12.3752L9.41797 12.441L9.69451 12.5452L9.98201 12.7044L10.3108 12.8525L10.5295 12.9471L11.0564 13.1803L11.9575 13.5054L12.6976 13.6357L13.5932 13.397L14.2398 13.2448L14.3196 12.9595L14.2192 12.681L13.7377 12.4259L13.0828 12.4547L12.882 12.5233L12.5766 12.6083L12.3936 12.6413L12.0854 12.5823L11.6934 12.3614L11.4471 12.1392L11.1018 12.0364L10.6932 11.9307L10.037 11.474L9.69585 11.3917L9.3712 11.3684L8.74939 11.4589L8.14135 11.7031L7.82216 12.2572L7.21412 12.249L5.92235 12.2325L4.7365 12.2161L3.75839 12.2531L3.65931 11.8512L3.42819 11.5302L3.05127 11.2573L2.96873 11.0021L3.09531 10.7799L3.45985 10.5988L3.54239 10.4672L3.35115 10.4877L3.06366 10.6057L2.87242 10.6112L2.84904 10.2601L2.52989 9.80602L2.16946 9.03655L1.76223 8.72243L1.41969 8.0983L1.062 7.85966L0.73323 7.74852L0.452575 7.77049L0.349423 8.05577L0 7.64567L0.477345 7.49891L1.4995 6.98453L2.67296 5.51136L3.72535 3.76249L3.86154 3.34959L3.99089 3.03551L4.07477 2.3195L4.22612 1.8929L4.36781 1.81061L4.54666 1.48276L4.76127 0.908025L5.00612 0.588466L5.2785 0.525342L5.49173 0.554141L5.64308 0.672102L6.08743 0.746194L6.82343 0.773613L7.39297 0.687214L7.79466 0.488296L8.32293 0.386827L8.97639 0.384065L9.3217 0.300387L9.3547 0.135793L9.44001 0.0863988L9.5762 0.150905L9.70551 0.124826L9.8252 0.00686502L9.94624 0L10.0659 0.10151L10.6135 0.131691L11.5902 0.0918825L12.4913 0.39365L13.3194 1.037L13.7473 1.46631L13.7734 1.68168L13.911 1.89839L14.1586 2.11648L14.3842 2.15624L14.5906 2.01911L14.7516 2.03418L14.8671 2.20154L15.1037 2.23582L15.3665 2.13293L15.5536 2.16859L15.588 2.26738L15.632 2.32084L15.7586 2.3442L15.9291 2.47036L16.1699 2.8119L16.3652 3.28789L16.5152 3.89829L16.7147 4.23024L16.9609 4.28369L17.1054 4.40852L17.1329 4.55394L17.2058 4.65269L17.3241 4.70756L17.5332 4.67462L17.7781 4.8804L18.0422 5.32755L18.0835 5.52781L18.0422 5.63618L18.0573 5.71572L18.2334 5.79119L18.3985 5.93657L18.5333 6.15604L18.825 6.35082L19.2734 6.52227L19.5967 6.77741L19.7948 7.11618L20.2048 7.4015L20.2887 7.43306Z"/>
</mask>
<path d="M20.2887 7.43306L20.6519 8.06812L20.5735 8.37403L20.4909 8.81846L20.6959 9.14216L20.9367 9.352L21.1086 9.54678L21.2985 9.81288L21.3287 10.3451L21.2943 10.7278L21.4182 10.9006L21.5227 11.1201L21.5021 11.3012L21.4333 11.463L21.2022 11.677L21.1636 12.0734L21.5378 12.5535L21.7786 12.8154L21.7772 12.965L21.8446 13.1296L22.0221 13.3216L22.1321 13.2764L22.2518 13.12L22.3055 13.0116L22.6301 13.0596L22.7815 13.109L22.9892 13.4231L23.0649 13.6316L23.1144 13.8936L23.3304 14.2201L23.5188 14.4505L23.5574 14.5945L23.7252 14.7893L23.622 15.2214L23.633 15.4422L23.5188 16.0224L23.4927 16.2968L23.5009 16.3969L23.7568 16.604L23.7293 16.8962L23.4693 16.8454L23.0181 16.8111L22.1142 16.9634L21.802 16.9016L21.2091 16.9222L20.7853 17.0059L20.2488 17.1965L19.832 17.1486L19.6064 16.9991L19.3092 17.01L18.9749 16.9291L18.62 16.7837L18.2939 16.711L17.9432 16.4435L17.7794 16.3969L17.6639 16.4668L17.5662 16.5546L17.4658 16.6095L17.2746 16.5615L17.203 16.3804L17.2636 16.2048L17.2801 16.0718L17.1907 15.9991L16.9774 15.9758H16.6307L16.0722 15.9209L15.9456 15.8866L14.6951 15.8414L13.4006 15.8359L12.3028 15.8317L10.9161 15.8249L9.94212 15.8208L9.03278 15.8167L8.3312 16.1747L7.57043 16.5601L6.54827 16.7659L5.37208 16.689L4.9965 16.7453L4.6072 16.9168L4.32104 17.0402L3.91658 17.1156L3.39242 17.0539L3.18058 17.0909L3.04989 16.9154L2.89858 16.6301L2.9935 16.4216L3.31266 16.2871L3.79277 16.1116L4.04454 16.2021L4.19173 16.2062L4.21923 16.0937L4.17246 16.0334L3.80927 15.8811L3.6222 15.6795L3.46673 15.7975L3.33193 16.0444L3.22046 16.1184L3.05677 16.187L2.96462 16.0197L2.92335 15.8564L2.999 15.7289L2.96046 15.0197L3.0045 14.6412L2.98112 14.3106L3.20812 14.0925L3.42408 13.9567L4.26462 13.9444L5.04739 13.932L5.80127 13.9402L6.56893 13.9471L6.64458 13.2846L6.88808 13.2325L7.25128 13.1639L7.92947 13.0829L8.68474 13.0061L8.8457 12.8758L8.97089 12.6563L9.04927 12.4588L9.20612 12.3752L9.41797 12.441L9.69451 12.5452L9.98201 12.7044L10.3108 12.8525L10.5295 12.9471L11.0564 13.1803L11.9575 13.5054L12.6976 13.6357L13.5932 13.397L14.2398 13.2448L14.3196 12.9595L14.2192 12.681L13.7377 12.4259L13.0828 12.4547L12.882 12.5233L12.5766 12.6083L12.3936 12.6413L12.0854 12.5823L11.6934 12.3614L11.4471 12.1392L11.1018 12.0364L10.6932 11.9307L10.037 11.474L9.69585 11.3917L9.3712 11.3684L8.74939 11.4589L8.14135 11.7031L7.82216 12.2572L7.21412 12.249L5.92235 12.2325L4.7365 12.2161L3.75839 12.2531L3.65931 11.8512L3.42819 11.5302L3.05127 11.2573L2.96873 11.0021L3.09531 10.7799L3.45985 10.5988L3.54239 10.4672L3.35115 10.4877L3.06366 10.6057L2.87242 10.6112L2.84904 10.2601L2.52989 9.80602L2.16946 9.03655L1.76223 8.72243L1.41969 8.0983L1.062 7.85966L0.73323 7.74852L0.452575 7.77049L0.349423 8.05577L0 7.64567L0.477345 7.49891L1.4995 6.98453L2.67296 5.51136L3.72535 3.76249L3.86154 3.34959L3.99089 3.03551L4.07477 2.3195L4.22612 1.8929L4.36781 1.81061L4.54666 1.48276L4.76127 0.908025L5.00612 0.588466L5.2785 0.525342L5.49173 0.554141L5.64308 0.672102L6.08743 0.746194L6.82343 0.773613L7.39297 0.687214L7.79466 0.488296L8.32293 0.386827L8.97639 0.384065L9.3217 0.300387L9.3547 0.135793L9.44001 0.0863988L9.5762 0.150905L9.70551 0.124826L9.8252 0.00686502L9.94624 0L10.0659 0.10151L10.6135 0.131691L11.5902 0.0918825L12.4913 0.39365L13.3194 1.037L13.7473 1.46631L13.7734 1.68168L13.911 1.89839L14.1586 2.11648L14.3842 2.15624L14.5906 2.01911L14.7516 2.03418L14.8671 2.20154L15.1037 2.23582L15.3665 2.13293L15.5536 2.16859L15.588 2.26738L15.632 2.32084L15.7586 2.3442L15.9291 2.47036L16.1699 2.8119L16.3652 3.28789L16.5152 3.89829L16.7147 4.23024L16.9609 4.28369L17.1054 4.40852L17.1329 4.55394L17.2058 4.65269L17.3241 4.70756L17.5332 4.67462L17.7781 4.8804L18.0422 5.32755L18.0835 5.52781L18.0422 5.63618L18.0573 5.71572L18.2334 5.79119L18.3985 5.93657L18.5333 6.15604L18.825 6.35082L19.2734 6.52227L19.5967 6.77741L19.7948 7.11618L20.2048 7.4015L20.2887 7.43306Z" fill="var(--fill-0, #71B219)" stroke="var(--stroke-0, white)" mask="url(#path-1-inside-1_0_37)"/>
</g>
</svg>
