<svg preserveAspectRatio="none" width="100%" height="100%" overflow="visible" style="display: block;" viewBox="0 0 24 17" fill="none" xmlns="http://www.w3.org/2000/svg"><g id="SN"><mask id="path-1-inside-1_0_37" fill="white"><path d="M20 7L21 8L21 8L20 9L21 9L21 9L21 10L21 10L21 10L21 11L21 11L22 11L22 11L21 12L21 12L21 12L22 13L22 13L22 13L22 13L22 13L22 13L22 13L22 13L23 13L23 13L23 13L23 14L23 14L23 14L24 14L24 15L24 15L24 15L24 15L24 16L24 16L24 16L24 17L24 17L24 17L23 17L22 17L22 17L21 17L21 17L20 17L20 17L20 17L19 17L19 17L19 17L18 17L18 16L18 16L18 16L18 17L18 17L17 17L17 16L17 16L17 16L17 16L17 16H17L16 16L16 16L15 16L13 16L12 16L11 16L10 16L9 16L8 16L8 17L6 17L5 17L5 17L5 17L4 17L4 17L3 17L3 17L3 17L3 17L3 16L3 16L4 16L4 16L4 16L4 16L4 16L4 16L4 16L4 16L3 16L3 16L3 16L3 16L3 16L3 16L3 15L3 15L3 14L3 14L3 14L4 14L5 14L6 14L7 14L7 13L7 13L7 13L8 13L9 13L9 13L9 13L9 12L9 12L9 12L10 12L10 13L10 13L10 13L11 13L12 14L13 14L14 13L14 13L14 13L14 13L14 12L13 12L13 12L13 13L12 13L12 13L12 12L11 12L11 12L11 12L10 12L10 11L9 11L9 12L8 12L8 12L7 12L6 12L5 12L4 12L4 12L3 12L3 11L3 11L3 11L4 11L4 10L3 10L3 11L3 11L3 10L2 10L2 9L2 9L1 8L1 8L1 8L0 8L0 8L0 8L0 8L2 7L3 6L4 4L4 3L4 3L4 2L4 2L4 2L4 2L5 1L5 1L5 0L6 1L6 1L6 1L7 1L7 1L8 0L8 0L9 0L9 0L9 0L9 0L10 0L10 0L10 0L10 0L10 0L11 0L12 0L12 0L13 1L14 2L14 2L14 2L14 2L14 2L15 2L15 2L15 2L15 2L15 2L16 2L16 2L16 2L16 2L16 2L16 3L16 3L16 4L17 4L17 4L17 4L17 5L17 5L17 5L18 5L18 5L18 5L18 6L18 6L18 6L18 6L18 6L18 6L19 6L19 6L20 7L20 7L20 7L20 7Z"/></mask><path d="M20 7L21 8L21 8L20 9L21 9L21 9L21 10L21 10L21 10L21 11L21 11L22 11L22 11L21 12L21 12L21 12L22 13L22 13L22 13L22 13L22 13L22 13L22 13L22 13L23 13L23 13L23 13L23 14L23 14L23 14L24 14L24 15L24 15L24 15L24 15L24 16L24 16L24 16L24 17L24 17L24 17L23 17L22 17L22 17L21 17L21 17L20 17L20 17L20 17L19 17L19 17L19 17L18 17L18 16L18 16L18 16L18 17L18 17L17 17L17 16L17 16L17 16L17 16L17 16H17L16 16L16 16L15 16L13 16L12 16L11 16L10 16L9 16L8 16L8 17L6 17L5 17L5 17L5 17L4 17L4 17L3 17L3 17L3 17L3 17L3 16L3 16L4 16L4 16L4 16L4 16L4 16L4 16L4 16L4 16L3 16L3 16L3 16L3 16L3 16L3 16L3 15L3 15L3 14L3 14L3 14L4 14L5 14L6 14L7 14L7 13L7 13L7 13L8 13L9 13L9 13L9 13L9 12L9 12L9 12L10 12L10 13L10 13L10 13L11 13L12 14L13 14L14 13L14 13L14 13L14 13L14 12L13 12L13 12L13 13L12 13L12 13L12 12L11 12L11 12L11 12L10 12L10 11L9 11L9 12L8 12L8 12L7 12L6 12L5 12L4 12L4 12L3 12L3 11L3 11L3 11L4 11L4 10L3 10L3 11L3 11L3 10L2 10L2 9L2 9L1 8L1 8L1 8L0 8L0 8L0 8L0 8L2 7L3 6L4 4L4 3L4 3L4 2L4 2L4 2L4 2L5 1L5 1L5 0L6 1L6 1L6 1L7 1L7 1L8 0L8 0L9 0L9 0L9 0L9 0L10 0L10 0L10 0L10 0L10 0L11 0L12 0L12 0L13 1L14 2L14 2L14 2L14 2L14 2L15 2L15 2L15 2L15 2L15 2L16 2L16 2L16 2L16 2L16 2L16 3L16 3L16 4L17 4L17 4L17 4L17 5L17 5L17 5L18 5L18 5L18 5L18 6L18 6L18 6L18 6L18 6L18 6L19 6L19 6L20 7L20 7L20 7L20 7Z" fill="var(--fill-0,#71B219)" stroke="var(--stroke-0,white)" mask="url(#path-1-inside-1_0_37)"/></g></svg>