<svg preserveAspectRatio="none" width="100%" height="100%" overflow="visible" style="display: block;" viewBox="0 0 40.2528 52.6486" fill="none" xmlns="http://www.w3.org/2000/svg">
<g id="SO">
<mask id="path-1-inside-1_0_36" fill="white">
<path d="M2.19419 52.6486L2.21208 52.3345L2.15154 52.1781L1.78561 51.7076L1.10188 50.8325L0.584653 50.17L0.0549975 49.4938L0.0523106 48.952L0.0467689 47.3403L0.0329985 44.1182L0.021999 40.8948L0.00822863 37.6714L0.00134345 36.0583L0 35.3985L0.0549975 35.2915L0.658962 34.7003L1.45689 33.9158L2.50512 32.4275L3.07465 31.6169L3.55066 30.9434L3.67031 30.7376L4.09131 30.3289L4.87958 30.0847L5.36935 30.0436L7.05454 29.7377L7.30493 29.6142L7.45212 29.473L7.59243 29.1506L7.91989 28.698L8.34358 28.3852L9.14839 27.9792L9.93666 27.6349L10.1113 27.5787L11.0605 27.362L11.293 27.2879L11.6769 27.2124L11.8282 27.2097L13.1461 27.2852L14.1779 27.3455L15.2385 27.4058L15.3514 27.3592L16.0929 26.5554L17.2732 25.2729L18.0271 24.4554L19.1909 23.1907L20.0851 22.2772L21.0742 21.2676L22.0359 20.3432L23.1901 19.2307L23.9192 18.5298L25.05 17.4407L26.1272 16.4023L27.0792 15.4847H25.7654H24.4819H23.2176L22.992 15.3736L21.9299 15.017L20.5845 14.5657L18.9144 14.0061L17.7244 13.6083L16.456 13.1899L15.1697 12.7674L14.16 12.4355L12.9012 12.0212L11.8076 11.6605L11.6576 11.5727L11.051 11.0227L10.2544 10.2998L10.1017 10.2875L9.72205 10.1366L9.38081 9.74565L9.02866 9.24639L8.70262 8.62092L8.56097 8.19566L8.12485 8.016L7.91569 7.67995L7.52089 7.18203L7.24716 6.94062L7.14951 6.72935L7.02289 6.29317L6.79727 5.81723L6.58131 5.52366L6.53177 5.39612L6.5442 5.31382L6.94446 4.66914L7.12474 4.4387L7.3297 4.21646L7.49612 3.99427L7.56077 3.84203L8.04643 3.0821L8.47423 2.41276L8.80859 1.89014L9.56243 2.48819L10.2957 3.70075L11.15 4.6801L12.3304 5.58813L12.798 5.89538L13.2122 6.05725L15.3596 6.03255L16.8839 5.20406L18.2678 4.60329L18.7328 4.47846L19.5362 4.64306L20.4221 4.69245L21.2187 4.87488L21.6232 4.82825L23.1997 4.13006L24.1902 3.44972L24.8657 3.1603L25.1312 3.15758L26.0529 3.40308L27.2374 3.29609L28.8579 2.709L29.3738 2.5897L29.7673 2.58146L30.6491 2.84618L30.7866 2.83249L31.264 2.7831L32.5228 2.50326L33.5036 2.08081L35.3099 1.7749L36.6843 1.00129L36.925 0.626852L37.3405 0.154965L37.943 0L39.4838 0.554141L39.73 0.59801L39.6406 0.932722L39.587 1.27426L39.2719 1.86955L39.0697 2.53072L39.2183 3.54026L39.2898 5.17526L39.2527 5.41257L39.1508 5.64577L39.1082 5.83092L38.9418 5.89538L38.8688 6.00103L38.9899 6.04218L39.4714 5.86524L39.4631 5.66909L39.4906 5.57306L39.8869 5.79115L40.1703 5.88169L40.2528 6.08743L40.2308 6.22733L39.7809 6.16286L39.5512 6.05453L38.884 6.23281L38.4754 6.42487L38.3529 6.74585L38.258 8.02421L38.0998 8.8527L38.0695 9.94867L37.5289 10.6729L37.3473 11.1832L36.5439 12.2064L36.1257 13.0788L35.9881 13.5054L35.2824 14.7015L34.3126 15.6178L33.9631 16.7878L33.6164 17.5216L33.2244 18.1855L32.3687 19.3679L31.9312 20.1881L31.3823 21.6119L31.2131 22.5117L29.6682 25.1234L28.0655 27.2029L27.0681 28.9517L25.277 30.979L22.8351 33.5948L19.6381 36.6975L18.7714 37.3299L15.2729 39.2433L13.0044 40.8454L11.8461 41.9359L10.63 42.8851L9.66428 43.789L6.74639 46.8369L6.44646 47.1235L6.16308 47.3938L5.79581 47.9109L5.53989 48.1153L4.84381 48.9876L4.40769 49.4389L3.92069 49.8861L3.71296 50.2016L3.5672 50.565L3.40346 50.7667L2.96458 51.6336L2.57665 52.2014L2.19419 52.6486Z"/>
</mask>
<path d="M2.19419 52.6486L2.21208 52.3345L2.15154 52.1781L1.78561 51.7076L1.10188 50.8325L0.584653 50.17L0.0549975 49.4938L0.0523106 48.952L0.0467689 47.3403L0.0329985 44.1182L0.021999 40.8948L0.00822863 37.6714L0.00134345 36.0583L0 35.3985L0.0549975 35.2915L0.658962 34.7003L1.45689 33.9158L2.50512 32.4275L3.07465 31.6169L3.55066 30.9434L3.67031 30.7376L4.09131 30.3289L4.87958 30.0847L5.36935 30.0436L7.05454 29.7377L7.30493 29.6142L7.45212 29.473L7.59243 29.1506L7.91989 28.698L8.34358 28.3852L9.14839 27.9792L9.93666 27.6349L10.1113 27.5787L11.0605 27.362L11.293 27.2879L11.6769 27.2124L11.8282 27.2097L13.1461 27.2852L14.1779 27.3455L15.2385 27.4058L15.3514 27.3592L16.0929 26.5554L17.2732 25.2729L18.0271 24.4554L19.1909 23.1907L20.0851 22.2772L21.0742 21.2676L22.0359 20.3432L23.1901 19.2307L23.9192 18.5298L25.05 17.4407L26.1272 16.4023L27.0792 15.4847H25.7654H24.4819H23.2176L22.992 15.3736L21.9299 15.017L20.5845 14.5657L18.9144 14.0061L17.7244 13.6083L16.456 13.1899L15.1697 12.7674L14.16 12.4355L12.9012 12.0212L11.8076 11.6605L11.6576 11.5727L11.051 11.0227L10.2544 10.2998L10.1017 10.2875L9.72205 10.1366L9.38081 9.74565L9.02866 9.24639L8.70262 8.62092L8.56097 8.19566L8.12485 8.016L7.91569 7.67995L7.52089 7.18203L7.24716 6.94062L7.14951 6.72935L7.02289 6.29317L6.79727 5.81723L6.58131 5.52366L6.53177 5.39612L6.5442 5.31382L6.94446 4.66914L7.12474 4.4387L7.3297 4.21646L7.49612 3.99427L7.56077 3.84203L8.04643 3.0821L8.47423 2.41276L8.80859 1.89014L9.56243 2.48819L10.2957 3.70075L11.15 4.6801L12.3304 5.58813L12.798 5.89538L13.2122 6.05725L15.3596 6.03255L16.8839 5.20406L18.2678 4.60329L18.7328 4.47846L19.5362 4.64306L20.4221 4.69245L21.2187 4.87488L21.6232 4.82825L23.1997 4.13006L24.1902 3.44972L24.8657 3.1603L25.1312 3.15758L26.0529 3.40308L27.2374 3.29609L28.8579 2.709L29.3738 2.5897L29.7673 2.58146L30.6491 2.84618L30.7866 2.83249L31.264 2.7831L32.5228 2.50326L33.5036 2.08081L35.3099 1.7749L36.6843 1.00129L36.925 0.626852L37.3405 0.154965L37.943 0L39.4838 0.554141L39.73 0.59801L39.6406 0.932722L39.587 1.27426L39.2719 1.86955L39.0697 2.53072L39.2183 3.54026L39.2898 5.17526L39.2527 5.41257L39.1508 5.64577L39.1082 5.83092L38.9418 5.89538L38.8688 6.00103L38.9899 6.04218L39.4714 5.86524L39.4631 5.66909L39.4906 5.57306L39.8869 5.79115L40.1703 5.88169L40.2528 6.08743L40.2308 6.22733L39.7809 6.16286L39.5512 6.05453L38.884 6.23281L38.4754 6.42487L38.3529 6.74585L38.258 8.02421L38.0998 8.8527L38.0695 9.94867L37.5289 10.6729L37.3473 11.1832L36.5439 12.2064L36.1257 13.0788L35.9881 13.5054L35.2824 14.7015L34.3126 15.6178L33.9631 16.7878L33.6164 17.5216L33.2244 18.1855L32.3687 19.3679L31.9312 20.1881L31.3823 21.6119L31.2131 22.5117L29.6682 25.1234L28.0655 27.2029L27.0681 28.9517L25.277 30.979L22.8351 33.5948L19.6381 36.6975L18.7714 37.3299L15.2729 39.2433L13.0044 40.8454L11.8461 41.9359L10.63 42.8851L9.66428 43.789L6.74639 46.8369L6.44646 47.1235L6.16308 47.3938L5.79581 47.9109L5.53989 48.1153L4.84381 48.9876L4.40769 49.4389L3.92069 49.8861L3.71296 50.2016L3.5672 50.565L3.40346 50.7667L2.96458 51.6336L2.57665 52.2014L2.19419 52.6486Z" fill="var(--fill-0, #71B219)" stroke="var(--stroke-0, white)" mask="url(#path-1-inside-1_0_36)"/>
</g>
</svg>
