<svg preserveAspectRatio="none" width="100%" height="100%" overflow="visible" style="display: block;" viewBox="0 0 40 53" fill="none" xmlns="http://www.w3.org/2000/svg"><g id="SO"><mask id="path-1-inside-1_0_36" fill="white"><path d="M2 53L2 52L2 52L2 52L1 51L1 50L0 50L0 49L0 47L0 44L0 41L0 38L0 36L0 35L0 35L1 35L2 34L2 32L3 32L4 31L4 31L4 30L5 30L5 30L7 30L7 30L8 30L8 29L8 29L8 28L9 28L10 28L10 28L11 27L11 27L12 27L12 27L13 27L14 27L15 27L15 27L16 27L17 25L18 24L19 23L20 22L21 21L22 20L23 19L24 18L25 17L26 16L27 16H26H24H23L23 15L22 15L21 15L19 14L18 14L16 13L15 13L14 12L13 12L12 12L12 12L11 11L10 10L10 10L10 10L9 10L9 9L9 9L9 8L8 8L8 8L8 7L7 7L7 7L7 6L7 6L7 6L6 5L6 5L7 5L7 4L7 4L8 4L8 4L8 3L8 2L9 2L10 2L10 4L11 5L12 6L13 6L13 6L15 6L17 5L18 5L19 4L20 5L20 5L21 5L22 5L23 4L24 3L25 3L25 3L26 3L27 3L29 3L29 3L30 3L31 3L31 3L31 3L32 2L34 2L35 2L37 1L37 1L37 0L38 0L40 1L40 1L40 1L40 1L39 2L39 2L39 4L39 5L39 5L39 6L39 6L39 6L39 6L39 6L40 6L40 6L40 6L40 6L40 6L40 6L40 6L40 6L40 6L39 6L38 6L38 7L38 8L38 9L38 10L38 11L37 11L36 12L36 13L36 14L35 15L34 16L34 17L34 18L33 18L32 19L32 20L31 22L31 22L30 25L28 27L27 29L25 31L23 34L20 37L19 37L15 39L13 41L12 42L11 43L10 44L7 47L6 47L6 47L6 48L6 48L5 49L4 49L4 50L4 50L4 51L3 51L3 52L3 52L2 53Z"/></mask><path d="M2 53L2 52L2 52L2 52L1 51L1 50L0 50L0 49L0 47L0 44L0 41L0 38L0 36L0 35L0 35L1 35L2 34L2 32L3 32L4 31L4 31L4 30L5 30L5 30L7 30L7 30L8 30L8 29L8 29L8 28L9 28L10 28L10 28L11 27L11 27L12 27L12 27L13 27L14 27L15 27L15 27L16 27L17 25L18 24L19 23L20 22L21 21L22 20L23 19L24 18L25 17L26 16L27 16H26H24H23L23 15L22 15L21 15L19 14L18 14L16 13L15 13L14 12L13 12L12 12L12 12L11 11L10 10L10 10L10 10L9 10L9 9L9 9L9 8L8 8L8 8L8 7L7 7L7 7L7 6L7 6L7 6L6 5L6 5L7 5L7 4L7 4L8 4L8 4L8 3L8 2L9 2L10 2L10 4L11 5L12 6L13 6L13 6L15 6L17 5L18 5L19 4L20 5L20 5L21 5L22 5L23 4L24 3L25 3L25 3L26 3L27 3L29 3L29 3L30 3L31 3L31 3L31 3L32 2L34 2L35 2L37 1L37 1L37 0L38 0L40 1L40 1L40 1L40 1L39 2L39 2L39 4L39 5L39 5L39 6L39 6L39 6L39 6L39 6L40 6L40 6L40 6L40 6L40 6L40 6L40 6L40 6L40 6L39 6L38 6L38 7L38 8L38 9L38 10L38 11L37 11L36 12L36 13L36 14L35 15L34 16L34 17L34 18L33 18L32 19L32 20L31 22L31 22L30 25L28 27L27 29L25 31L23 34L20 37L19 37L15 39L13 41L12 42L11 43L10 44L7 47L6 47L6 47L6 48L6 48L5 49L4 49L4 50L4 50L4 51L3 51L3 52L3 52L2 53Z" fill="var(--fill-0,#71B219)" stroke="var(--stroke-0,white)" mask="url(#path-1-inside-1_0_36)"/></g></svg>