<svg preserveAspectRatio="none" width="100%" height="100%" overflow="visible" style="display: block;" viewBox="0 0 15.6898 15.914" fill="none" xmlns="http://www.w3.org/2000/svg">
<g id="SR">
<mask id="path-1-inside-1_0_50" fill="white">
<path d="M15.0501 2.43742L14.7254 2.70901L14.3719 3.09583L13.9069 3.76383L13.9276 3.97372L13.8257 4.14379L13.801 4.4428L13.834 4.77885L13.9537 4.99832L14.0087 5.41533L13.9166 5.79115L13.9523 6.01062L14.0459 6.3563L14.1229 6.72663L14.1146 6.87478L14.2274 6.99684L14.332 7.1148L14.299 7.44403L14.6663 8.03107L14.8905 8.28621L15.2179 8.53586L15.3362 8.77865L15.5206 9.07217L15.6306 9.10645L15.6898 9.22441L15.6293 9.45075L15.6169 9.76487L15.4092 10.1297L14.9277 10.7977L14.8685 10.9527L14.9937 11.5069L14.9277 11.9623L14.8988 12.1804L14.6622 12.5795L14.1009 13.5438L13.779 13.718L13.5836 13.9964L13.4584 13.9992L13.3181 14.0252L13.2741 14.0596L13.098 14.0568L12.9604 13.9334L12.9384 13.788L12.8655 13.6206L12.6922 13.5698L12.3647 13.6288L12.2698 13.5863L12.0759 13.408L11.9149 13.2119L11.8736 13.0226L11.7704 13.0404L11.5214 13.2119L11.3509 13.2461L11.2174 13.2023L11.0675 13.2146L10.6878 13.3984L10.4635 13.4396L10.304 13.6247L9.24882 13.7084L8.97093 13.7564L8.34086 13.4382L8.17851 13.3339L8.09597 13.3189L8.02582 13.3353L7.95705 13.4066L7.85247 13.8072L7.75755 13.9155L7.59247 14.0047L7.43151 14.1638L7.39989 14.3188L7.64751 14.4052L7.85385 14.7056L8.07808 14.947L8.25832 15.1583L8.23355 15.3997L8.20328 15.7412L8.07258 15.8578L7.85385 15.914L7.05459 15.7495L6.44101 15.6013L6.18378 15.5697L6.06681 15.5314L5.91412 15.4065L5.75866 15.2913L5.50966 15.2488L5.2125 15.1706L4.99243 14.8702L4.76543 14.4436L4.68562 14.2502L4.50816 14.0637L4.33481 13.7976L4.28116 13.5616L4.15051 13.3463L4.0817 13.2736L3.97989 12.98L3.95789 12.8703L3.90835 12.8566L3.83681 12.762L3.6965 12.4478L3.66485 12.3696L3.60297 12.3422L3.43923 12.1214L3.30858 12.0446L3.26043 11.9307L3.27143 11.6235L3.20127 11.4712L3.18062 11.1818L3.17651 11.0666L3.10908 10.9377L2.99766 10.854L2.97839 10.6441L2.95089 10.1284L2.89724 10.0378L2.42673 10.0447L2.37996 10.0954L2.17635 10.1256L1.94939 10.1311L1.74304 10.0625L1.57381 9.97199L1.53666 9.85951L1.56281 9.50153L1.28904 9.22994L0.855694 8.89385L0.725002 8.46729L0.565425 8.20119L0.0853091 7.64429L0 7.26294V6.99274L0.167847 6.74585L0.403077 6.30963L0.500771 5.91459L0.57231 5.70885L0.693388 5.43865L0.803425 5.08887L0.719502 4.8735L0.576424 4.66365L0.529655 4.50454L0.668619 4.2741L0.80754 4.11085L0.965773 4.08892L1.16662 3.99017L1.32481 3.85023L1.56554 3.81323L1.86547 3.79812H2.479L2.7927 3.73775L2.89035 3.62528L2.87524 3.40857L3.03066 3.21241L3.19439 3.13012L3.26043 3.06565L3.27004 2.99294L3.22739 2.92714L3.16135 2.88323L2.99077 2.86816L2.84081 2.52796L2.944 2.37982L3.07608 2.10685L3.11319 1.95189L3.3182 1.71044L3.36774 1.78453L3.52593 1.34287L3.5452 0.983456L3.66623 0.629573L3.85197 0.209844L4.18623 0.00133952L6.13285 0.213946L7.02154 0.414246L8.16478 0.759883L8.32708 1.13022L8.33536 0.759883L8.27893 0.386785L8.59536 0.122063L9.2887 0.0287996L10.3274 0.156347L11.2202 0L12.4349 0.0191718L14.2784 0.32094L15.1037 0.526723L15.4436 0.713251L15.5082 1.04792L15.4766 1.47728L15.3417 1.88738L15.0501 2.43742Z"/>
</mask>
<path d="M15.0501 2.43742L14.7254 2.70901L14.3719 3.09583L13.9069 3.76383L13.9276 3.97372L13.8257 4.14379L13.801 4.4428L13.834 4.77885L13.9537 4.99832L14.0087 5.41533L13.9166 5.79115L13.9523 6.01062L14.0459 6.3563L14.1229 6.72663L14.1146 6.87478L14.2274 6.99684L14.332 7.1148L14.299 7.44403L14.6663 8.03107L14.8905 8.28621L15.2179 8.53586L15.3362 8.77865L15.5206 9.07217L15.6306 9.10645L15.6898 9.22441L15.6293 9.45075L15.6169 9.76487L15.4092 10.1297L14.9277 10.7977L14.8685 10.9527L14.9937 11.5069L14.9277 11.9623L14.8988 12.1804L14.6622 12.5795L14.1009 13.5438L13.779 13.718L13.5836 13.9964L13.4584 13.9992L13.3181 14.0252L13.2741 14.0596L13.098 14.0568L12.9604 13.9334L12.9384 13.788L12.8655 13.6206L12.6922 13.5698L12.3647 13.6288L12.2698 13.5863L12.0759 13.408L11.9149 13.2119L11.8736 13.0226L11.7704 13.0404L11.5214 13.2119L11.3509 13.2461L11.2174 13.2023L11.0675 13.2146L10.6878 13.3984L10.4635 13.4396L10.304 13.6247L9.24882 13.7084L8.97093 13.7564L8.34086 13.4382L8.17851 13.3339L8.09597 13.3189L8.02582 13.3353L7.95705 13.4066L7.85247 13.8072L7.75755 13.9155L7.59247 14.0047L7.43151 14.1638L7.39989 14.3188L7.64751 14.4052L7.85385 14.7056L8.07808 14.947L8.25832 15.1583L8.23355 15.3997L8.20328 15.7412L8.07258 15.8578L7.85385 15.914L7.05459 15.7495L6.44101 15.6013L6.18378 15.5697L6.06681 15.5314L5.91412 15.4065L5.75866 15.2913L5.50966 15.2488L5.2125 15.1706L4.99243 14.8702L4.76543 14.4436L4.68562 14.2502L4.50816 14.0637L4.33481 13.7976L4.28116 13.5616L4.15051 13.3463L4.0817 13.2736L3.97989 12.98L3.95789 12.8703L3.90835 12.8566L3.83681 12.762L3.6965 12.4478L3.66485 12.3696L3.60297 12.3422L3.43923 12.1214L3.30858 12.0446L3.26043 11.9307L3.27143 11.6235L3.20127 11.4712L3.18062 11.1818L3.17651 11.0666L3.10908 10.9377L2.99766 10.854L2.97839 10.6441L2.95089 10.1284L2.89724 10.0378L2.42673 10.0447L2.37996 10.0954L2.17635 10.1256L1.94939 10.1311L1.74304 10.0625L1.57381 9.97199L1.53666 9.85951L1.56281 9.50153L1.28904 9.22994L0.855694 8.89385L0.725002 8.46729L0.565425 8.20119L0.0853091 7.64429L0 7.26294V6.99274L0.167847 6.74585L0.403077 6.30963L0.500771 5.91459L0.57231 5.70885L0.693388 5.43865L0.803425 5.08887L0.719502 4.8735L0.576424 4.66365L0.529655 4.50454L0.668619 4.2741L0.80754 4.11085L0.965773 4.08892L1.16662 3.99017L1.32481 3.85023L1.56554 3.81323L1.86547 3.79812H2.479L2.7927 3.73775L2.89035 3.62528L2.87524 3.40857L3.03066 3.21241L3.19439 3.13012L3.26043 3.06565L3.27004 2.99294L3.22739 2.92714L3.16135 2.88323L2.99077 2.86816L2.84081 2.52796L2.944 2.37982L3.07608 2.10685L3.11319 1.95189L3.3182 1.71044L3.36774 1.78453L3.52593 1.34287L3.5452 0.983456L3.66623 0.629573L3.85197 0.209844L4.18623 0.00133952L6.13285 0.213946L7.02154 0.414246L8.16478 0.759883L8.32708 1.13022L8.33536 0.759883L8.27893 0.386785L8.59536 0.122063L9.2887 0.0287996L10.3274 0.156347L11.2202 0L12.4349 0.0191718L14.2784 0.32094L15.1037 0.526723L15.4436 0.713251L15.5082 1.04792L15.4766 1.47728L15.3417 1.88738L15.0501 2.43742Z" fill="var(--fill-0, #71B219)" stroke="var(--stroke-0, white)" mask="url(#path-1-inside-1_0_50)"/>
</g>
</svg>
