<svg preserveAspectRatio="none" width="100%" height="100%" overflow="visible" style="display: block;" viewBox="0 0 16 16" fill="none" xmlns="http://www.w3.org/2000/svg"><g id="SR"><mask id="path-1-inside-1_0_50" fill="white"><path d="M15 2L15 3L14 3L14 4L14 4L14 4L14 4L14 5L14 5L14 5L14 6L14 6L14 6L14 7L14 7L14 7L14 7L14 7L15 8L15 8L15 8L15 9L16 9L16 9L16 9L16 10L16 10L15 10L15 11L15 11L15 12L15 12L15 12L15 13L14 14L14 14L14 14L14 14L13 14L13 14L13 14L13 14L13 14L13 14L13 14L12 14L12 14L12 13L12 13L12 13L12 13L12 13L11 13L11 13L11 13L11 13L10 13L10 14L9 14L9 14L8 13L8 13L8 13L8 13L8 13L8 14L8 14L8 14L7 14L7 14L8 14L8 15L8 15L8 15L8 15L8 16L8 16L8 16L7 16L6 16L6 16L6 16L6 15L6 15L6 15L5 15L5 15L5 14L5 14L4 14L4 14L4 14L4 13L4 13L4 13L4 13L4 13L4 13L4 12L4 12L4 12L3 12L3 12L3 12L3 12L3 12L3 11L3 11L3 11L3 11L3 11L3 10L3 10L2 10L2 10L2 10L2 10L2 10L2 10L2 10L2 10L1 9L1 9L1 8L1 8L0 8L0 7V7L0 7L0 6L0 6L1 6L1 5L1 5L1 5L1 5L0 4L1 4L1 4L1 4L1 4L1 4L2 4L2 4H2L3 4L3 4L3 3L3 3L3 3L3 3L3 3L3 3L3 3L3 3L3 2L3 2L3 2L3 2L3 2L3 2L4 1L4 1L4 1L4 0L4 0L6 0L7 0L8 1L8 1L8 1L8 0L9 0L9 0L10 0L11 0L12 0L14 0L15 0L15 1L16 1L16 2L15 2L15 2Z"/></mask><path d="M15 2L15 3L14 3L14 4L14 4L14 4L14 4L14 5L14 5L14 5L14 6L14 6L14 6L14 7L14 7L14 7L14 7L14 7L15 8L15 8L15 8L15 9L16 9L16 9L16 9L16 10L16 10L15 10L15 11L15 11L15 12L15 12L15 12L15 13L14 14L14 14L14 14L14 14L13 14L13 14L13 14L13 14L13 14L13 14L13 14L12 14L12 14L12 13L12 13L12 13L12 13L12 13L11 13L11 13L11 13L11 13L10 13L10 14L9 14L9 14L8 13L8 13L8 13L8 13L8 13L8 14L8 14L8 14L7 14L7 14L8 14L8 15L8 15L8 15L8 15L8 16L8 16L8 16L7 16L6 16L6 16L6 16L6 15L6 15L6 15L5 15L5 15L5 14L5 14L4 14L4 14L4 14L4 13L4 13L4 13L4 13L4 13L4 13L4 12L4 12L4 12L3 12L3 12L3 12L3 12L3 12L3 11L3 11L3 11L3 11L3 11L3 10L3 10L2 10L2 10L2 10L2 10L2 10L2 10L2 10L2 10L1 9L1 9L1 8L1 8L0 8L0 7V7L0 7L0 6L0 6L1 6L1 5L1 5L1 5L1 5L0 4L1 4L1 4L1 4L1 4L1 4L2 4L2 4H2L3 4L3 4L3 3L3 3L3 3L3 3L3 3L3 3L3 3L3 3L3 2L3 2L3 2L3 2L3 2L3 2L4 1L4 1L4 1L4 0L4 0L6 0L7 0L8 1L8 1L8 1L8 0L9 0L9 0L10 0L11 0L12 0L14 0L15 0L15 1L16 1L16 2L15 2L15 2Z" fill="var(--fill-0,#71B219)" stroke="var(--stroke-0,white)" mask="url(#path-1-inside-1_0_50)"/></g></svg>