<svg preserveAspectRatio="none" width="100%" height="100%" overflow="visible" style="display: block;" viewBox="0 0 43 34" fill="none" xmlns="http://www.w3.org/2000/svg"><g id="SS"><mask id="path-1-inside-1_0_34" fill="white"><path d="M38 9L38 10L38 10L38 10L38 11L38 11L38 11L38 11L38 11L38 11L38 11H38L38 11L38 12L38 12L38 14L38 14L38 14L38 14L38 14L38 15L37 15L37 15L36 15L36 15L35 15L35 15L35 15L34 16L34 17L34 17L34 17L34 17L35 17L36 18L36 18L36 18L37 18L38 18L38 19L38 19L38 19L38 19L39 20L39 20L40 21L40 21L40 21L41 22L41 22L41 23L42 24L42 24L42 25L42 25L42 25L42 26L43 26L43 26L42 27L41 28L40 28L40 29L39 30L38 31L37 32L36 32L36 33L36 33L35 33L35 33L34 32L34 33L33 33L33 33L32 33L32 33L31 33L31 33L31 34L31 34L31 34L30 34L30 33L30 33L30 33L30 33L29 33L29 33L28 33L28 33L27 33L27 33L27 33L26 33L26 34L26 34L26 34L26 33L26 33L25 33L25 33L25 33L25 33L25 33L25 33L25 32L24 32L23 32L23 31L22 31L22 30L22 30L21 30L21 29L20 29L20 30L20 30L19 30L19 30L18 30L18 30L17 30L17 30L16 31L16 31L16 30L16 30L16 30L15 30L15 30L15 30L15 30L14 30L14 29L14 29L14 29L14 28L13 28L13 28L13 28L12 27L12 27L12 26L12 26L12 26L12 25L12 25L11 25L11 25L10 24L10 24L9 24L9 24L9 23L9 23L8 23L8 23L8 22L8 22L8 21L8 21L8 21L7 20L7 20L6 19L5 19L4 19L4 18L4 18L4 18L4 18L4 17L3 16L3 16L2 16L1 16L1 15L1 15L0 15L0 15L0 14L0 14L0 14L0 14L0 13L1 13L2 13L2 13L2 12L2 12L2 12L2 12L2 11L2 11L2 11L2 11L2 10L2 10L2 10L3 9L3 9L3 8L3 8L3 8L3 8L4 8L4 8L4 7L4 7L6 7L7 7L7 7L7 8L7 8L7 8L7 8L7 8L8 9L8 9L9 10L10 11L10 11L11 10L11 10L14 10L14 10L14 10L15 11L15 11L18 11L18 11L18 11L18 10L19 10V10L19 10L19 10L20 10L21 10L21 9L21 9L21 8L21 8L21 8L22 8L23 8L24 9L26 10L26 10L26 10L26 10L26 10L26 10L26 10L26 10L27 10L27 9L29 8L29 7L30 7L30 7L30 6L30 6L32 5L32 4L32 4L32 4L32 4L32 3L32 2L32 2L32 2L32 2L32 2L31 1L33 1L33 1L33 1L33 1L33 0L33 0L33 0L33 0L33 0L33 0L33 0L33 0L33 0L33 0L35 0L35 0L35 1L35 2L35 2L35 2L35 2L34 2L34 2L34 2L34 2L34 2L35 5L35 5L35 6L35 6L35 6L35 6L35 6L36 6L36 6L36 6L36 6L38 8L38 8L38 8L38 8L38 9L38 9L38 9L38 9L38 9L38 9V9L38 9L38 9Z"/></mask><path d="M38 9L38 10L38 10L38 10L38 11L38 11L38 11L38 11L38 11L38 11L38 11H38L38 11L38 12L38 12L38 14L38 14L38 14L38 14L38 14L38 15L37 15L37 15L36 15L36 15L35 15L35 15L35 15L34 16L34 17L34 17L34 17L34 17L35 17L36 18L36 18L36 18L37 18L38 18L38 19L38 19L38 19L38 19L39 20L39 20L40 21L40 21L40 21L41 22L41 22L41 23L42 24L42 24L42 25L42 25L42 25L42 26L43 26L43 26L42 27L41 28L40 28L40 29L39 30L38 31L37 32L36 32L36 33L36 33L35 33L35 33L34 32L34 33L33 33L33 33L32 33L32 33L31 33L31 33L31 34L31 34L31 34L30 34L30 33L30 33L30 33L30 33L29 33L29 33L28 33L28 33L27 33L27 33L27 33L26 33L26 34L26 34L26 34L26 33L26 33L25 33L25 33L25 33L25 33L25 33L25 33L25 32L24 32L23 32L23 31L22 31L22 30L22 30L21 30L21 29L20 29L20 30L20 30L19 30L19 30L18 30L18 30L17 30L17 30L16 31L16 31L16 30L16 30L16 30L15 30L15 30L15 30L15 30L14 30L14 29L14 29L14 29L14 28L13 28L13 28L13 28L12 27L12 27L12 26L12 26L12 26L12 25L12 25L11 25L11 25L10 24L10 24L9 24L9 24L9 23L9 23L8 23L8 23L8 22L8 22L8 21L8 21L8 21L7 20L7 20L6 19L5 19L4 19L4 18L4 18L4 18L4 18L4 17L3 16L3 16L2 16L1 16L1 15L1 15L0 15L0 15L0 14L0 14L0 14L0 14L0 13L1 13L2 13L2 13L2 12L2 12L2 12L2 12L2 11L2 11L2 11L2 11L2 10L2 10L2 10L3 9L3 9L3 8L3 8L3 8L3 8L4 8L4 8L4 7L4 7L6 7L7 7L7 7L7 8L7 8L7 8L7 8L7 8L8 9L8 9L9 10L10 11L10 11L11 10L11 10L14 10L14 10L14 10L15 11L15 11L18 11L18 11L18 11L18 10L19 10V10L19 10L19 10L20 10L21 10L21 9L21 9L21 8L21 8L21 8L22 8L23 8L24 9L26 10L26 10L26 10L26 10L26 10L26 10L26 10L26 10L27 10L27 9L29 8L29 7L30 7L30 7L30 6L30 6L32 5L32 4L32 4L32 4L32 4L32 3L32 2L32 2L32 2L32 2L32 2L31 1L33 1L33 1L33 1L33 1L33 0L33 0L33 0L33 0L33 0L33 0L33 0L33 0L33 0L33 0L35 0L35 0L35 1L35 2L35 2L35 2L35 2L34 2L34 2L34 2L34 2L34 2L35 5L35 5L35 6L35 6L35 6L35 6L35 6L36 6L36 6L36 6L36 6L38 8L38 8L38 8L38 8L38 9L38 9L38 9L38 9L38 9L38 9V9L38 9L38 9Z" fill="var(--fill-0,#71B219)" stroke="var(--stroke-0,white)" mask="url(#path-1-inside-1_0_34)"/></g></svg>