<svg preserveAspectRatio="none" width="100%" height="100%" overflow="visible" style="display: block;" viewBox="0 0 42.9368 33.7457" fill="none" xmlns="http://www.w3.org/2000/svg">
<g id="SS">
<mask id="path-1-inside-1_0_34" fill="white">
<path d="M37.8824 9.26699L37.6335 9.76215L37.5537 10.1146L37.5289 10.4109L37.5441 10.5824L37.5716 10.6921L37.5839 10.7182L37.5949 10.736L37.6059 10.7484L37.6184 10.7525L38.3364 10.7552H38.3406L38.3364 10.913L38.3653 11.6976L38.3901 12.3834L38.4314 13.504L38.4328 13.7962L38.4052 14.1597L38.32 14.3037L38.1164 14.5095L37.8591 14.6974L37.2098 14.7454L36.6677 14.7385L36.2839 14.6974L35.7584 14.6809L35.2646 14.7207L35.0829 14.8798L34.8161 15.4408L34.4309 16.2542L34.2273 16.5985L34.175 16.7988L34.2355 16.9181L34.4901 17.0909L35.0513 17.3351L35.6938 17.4778L36.1725 17.5395L36.4985 17.6067L36.7503 17.6808L37.6624 18.3035L37.954 18.5929L38.1177 18.8494L38.1563 19.1224L38.2869 19.3981L38.8138 19.9426L39.1178 20.2568L39.9089 20.66L40.2129 21.1168L40.5059 21.3376L40.7838 21.5763L40.9324 21.9316L41.2749 22.9617L41.5061 23.5021L41.7427 23.9438L41.8362 24.6612L42.0233 24.9822L42.2159 25.3731L42.5351 25.727L42.8749 25.9958L42.9368 26.0685L42.2269 26.7612L41.4304 27.5375L40.5101 28.4374L39.5072 29.414L38.7217 30.1876L37.9472 30.9502L37.0419 31.8514L36.3733 32.5167L36.2619 32.61L36.0679 32.7334L35.431 32.7362L34.7734 32.658L34.1681 32.2533L33.5532 32.5675L33.1638 32.6662L32.9313 32.7019L32.3824 32.7526L31.6135 32.9213L31.2654 33.1312L31.0769 33.2972L30.9214 33.6031L30.8431 33.6346L30.7014 33.5989L30.5046 33.4755L30.0933 33.2985L29.8856 32.909L29.6957 32.6745L29.5375 32.551L28.8854 32.9392L28.5691 33.0297L28.3104 33.0187L27.8372 32.8006L27.3144 32.6141L27.0447 32.6155L26.6417 32.8486L26.1836 33.197L25.9483 33.5413L25.8341 33.7457L25.7502 33.5825L25.6732 33.4302L25.5191 33.2355L25.2977 33.1586L25.0968 33.197L24.8616 33.2355L24.7556 33.1244L24.7336 32.8569L24.6689 32.61L24.5589 32.4248L24.2205 32.2396L23.3483 31.8638L22.6784 31.1135L22.3412 30.7651L22.0951 30.5401L21.7456 29.9503L21.348 29.5443L20.8666 29.355L20.5487 29.4483L20.2214 29.8831L19.6036 30.2919L19.3202 30.3056L18.9571 30.0847L18.5003 29.927L17.6818 29.8584L17.3434 30.0518L16.9004 30.3645L16.5249 30.5511L16.2924 30.573L16.075 30.4976L15.8288 30.4578L15.6155 30.451L15.178 30.1657L14.9511 29.9558L14.7997 29.7542L14.5521 29.617L14.2632 29.5018L14.0569 29.3221L13.9537 29.0971L13.7899 28.8091L13.5781 28.5498L12.9095 28.0835L12.71 27.8078L12.5697 27.5389L12.2974 27.2426L12.0043 26.8462L11.9108 26.266L11.8984 25.7983L11.8365 25.5815L11.7127 25.3648L11.5682 25.181L11.3357 24.9753L10.7909 24.6749L10.2269 24.3265L9.95732 24.1235L9.44412 24.0494L9.13739 23.8505L8.88012 23.413L8.77693 23.0632L8.51697 22.7902L8.40555 22.5927L8.34358 22.365L8.54997 21.6723L8.25139 21.4268L7.80704 21.1086L7.48789 20.7602L7.29393 20.4406L6.72305 20.0181L5.47943 19.3857L4.76127 18.9825L4.36924 18.6204L4.02666 18.2651L3.99231 18.1197L4.21373 17.7658L4.24681 17.4737L4.0652 17.1527L3.31958 16.5464L2.72527 15.8798L2.27538 15.6713L1.19139 15.4861L0.880464 15.412L0.555769 15.2845L0.235272 14.9841L0.12662 14.6288L0.283384 14.0596L0.182961 13.8854L0 13.8374L0.0495397 13.7194L0.2545 13.4423L0.588851 13.2626L1.48443 12.9814L1.53388 12.8731L1.55177 12.5178L1.62474 12.3436L1.93289 11.8498L1.97689 11.6537L1.99066 11.2339L2.03188 11.0351L2.12131 10.8938L2.36624 10.6496L2.45154 10.5001L2.48866 10.1778L2.46254 9.54129L2.58774 9.28892L3.15173 8.71008L3.30304 8.45084L3.35392 8.21902L3.34847 7.9831L3.38289 7.7499L3.55066 7.52494L3.69373 7.455L4.10919 7.38367L4.39258 7.42896L6.37358 7.03255L6.60608 7.08604L6.70927 7.32058L6.69962 7.6964L6.73404 7.87883L6.84001 8.0078L7.15496 8.18612L7.37235 8.48513L7.48932 8.59484L7.80704 8.79924L9.28047 10.5056L9.69593 10.6674L10.099 10.6085L10.8997 10.2546L11.2999 10.1654L14.1009 10.2656L14.4145 10.2121L14.4338 10.2203L14.8602 11.0762L15.0625 11.271L18.1344 11.2806L18.0766 11.0364L18.1152 10.7648L18.4742 10.4151L18.6558 10.2409V10.2422L18.7328 10.1791L19.2075 9.92812L19.6711 9.76076L20.5625 9.56461L20.8872 9.25464L21.0674 8.97208L21.0729 8.4138L21.1912 8.32191L21.4031 8.19294L22.4334 7.69368L22.6082 7.58807L24.4296 8.74713L25.4503 9.66474L25.5123 9.71003L25.5659 9.72648L25.6195 9.69492L25.6649 9.65239L25.7392 9.62497L25.7888 9.61262L26.2262 9.60027L27.0531 9.55502L27.3254 9.44531L28.9859 7.80616L29.4082 7.28354L29.5142 7.17654L29.7549 6.80483L30.008 6.16291L30.0589 6.0902L31.879 4.55118L31.9422 4.42911L31.9601 4.3317L31.685 3.81323L31.6258 3.54989L31.6148 3.14385L31.6685 2.51289L31.6493 2.11376L31.6424 2.06708L31.6245 2.00538L31.6121 1.98207L30.5968 0.846323L33.1625 0.835356L33.168 0.740711L33.1653 0.691316L33.1584 0.646066L33.1102 0.510272L33.0813 0.327847L33.0799 0.278452L33.0841 0.227718L33.0978 0.134412L33.0992 0.0836779L33.0965 0.0589806L33.0923 0.037046L33.0937 0.0164509L33.1047 0L34.9481 0.023316L34.9233 0.345679L34.7005 1.10146L34.7046 1.55409L34.6509 2.07261L34.6386 2.11376L34.5877 2.22623L34.5437 2.28932L34.4927 2.35102L34.479 2.37434L34.4625 2.41276L34.4611 2.46898L34.8436 5.36045L34.8284 5.43316L34.8147 5.47979L34.7129 5.66088L34.6867 5.71986L34.6813 5.76511L34.7225 5.79667L35.5713 6.10941L35.6126 6.12862L35.6456 6.15328L35.951 6.52499L37.6225 7.89256L37.6803 7.96117L37.8536 8.39048L37.8729 8.45633L37.8783 8.55784L37.8742 8.63737L37.8316 8.89527L37.8453 9.01047L37.8742 9.08728L37.8976 9.17644V9.20252L37.8949 9.22584L37.8824 9.26699Z"/>
</mask>
<path d="M37.8824 9.26699L37.6335 9.76215L37.5537 10.1146L37.5289 10.4109L37.5441 10.5824L37.5716 10.6921L37.5839 10.7182L37.5949 10.736L37.6059 10.7484L37.6184 10.7525L38.3364 10.7552H38.3406L38.3364 10.913L38.3653 11.6976L38.3901 12.3834L38.4314 13.504L38.4328 13.7962L38.4052 14.1597L38.32 14.3037L38.1164 14.5095L37.8591 14.6974L37.2098 14.7454L36.6677 14.7385L36.2839 14.6974L35.7584 14.6809L35.2646 14.7207L35.0829 14.8798L34.8161 15.4408L34.4309 16.2542L34.2273 16.5985L34.175 16.7988L34.2355 16.9181L34.4901 17.0909L35.0513 17.3351L35.6938 17.4778L36.1725 17.5395L36.4985 17.6067L36.7503 17.6808L37.6624 18.3035L37.954 18.5929L38.1177 18.8494L38.1563 19.1224L38.2869 19.3981L38.8138 19.9426L39.1178 20.2568L39.9089 20.66L40.2129 21.1168L40.5059 21.3376L40.7838 21.5763L40.9324 21.9316L41.2749 22.9617L41.5061 23.5021L41.7427 23.9438L41.8362 24.6612L42.0233 24.9822L42.2159 25.3731L42.5351 25.727L42.8749 25.9958L42.9368 26.0685L42.2269 26.7612L41.4304 27.5375L40.5101 28.4374L39.5072 29.414L38.7217 30.1876L37.9472 30.9502L37.0419 31.8514L36.3733 32.5167L36.2619 32.61L36.0679 32.7334L35.431 32.7362L34.7734 32.658L34.1681 32.2533L33.5532 32.5675L33.1638 32.6662L32.9313 32.7019L32.3824 32.7526L31.6135 32.9213L31.2654 33.1312L31.0769 33.2972L30.9214 33.6031L30.8431 33.6346L30.7014 33.5989L30.5046 33.4755L30.0933 33.2985L29.8856 32.909L29.6957 32.6745L29.5375 32.551L28.8854 32.9392L28.5691 33.0297L28.3104 33.0187L27.8372 32.8006L27.3144 32.6141L27.0447 32.6155L26.6417 32.8486L26.1836 33.197L25.9483 33.5413L25.8341 33.7457L25.7502 33.5825L25.6732 33.4302L25.5191 33.2355L25.2977 33.1586L25.0968 33.197L24.8616 33.2355L24.7556 33.1244L24.7336 32.8569L24.6689 32.61L24.5589 32.4248L24.2205 32.2396L23.3483 31.8638L22.6784 31.1135L22.3412 30.7651L22.0951 30.5401L21.7456 29.9503L21.348 29.5443L20.8666 29.355L20.5487 29.4483L20.2214 29.8831L19.6036 30.2919L19.3202 30.3056L18.9571 30.0847L18.5003 29.927L17.6818 29.8584L17.3434 30.0518L16.9004 30.3645L16.5249 30.5511L16.2924 30.573L16.075 30.4976L15.8288 30.4578L15.6155 30.451L15.178 30.1657L14.9511 29.9558L14.7997 29.7542L14.5521 29.617L14.2632 29.5018L14.0569 29.3221L13.9537 29.0971L13.7899 28.8091L13.5781 28.5498L12.9095 28.0835L12.71 27.8078L12.5697 27.5389L12.2974 27.2426L12.0043 26.8462L11.9108 26.266L11.8984 25.7983L11.8365 25.5815L11.7127 25.3648L11.5682 25.181L11.3357 24.9753L10.7909 24.6749L10.2269 24.3265L9.95732 24.1235L9.44412 24.0494L9.13739 23.8505L8.88012 23.413L8.77693 23.0632L8.51697 22.7902L8.40555 22.5927L8.34358 22.365L8.54997 21.6723L8.25139 21.4268L7.80704 21.1086L7.48789 20.7602L7.29393 20.4406L6.72305 20.0181L5.47943 19.3857L4.76127 18.9825L4.36924 18.6204L4.02666 18.2651L3.99231 18.1197L4.21373 17.7658L4.24681 17.4737L4.0652 17.1527L3.31958 16.5464L2.72527 15.8798L2.27538 15.6713L1.19139 15.4861L0.880464 15.412L0.555769 15.2845L0.235272 14.9841L0.12662 14.6288L0.283384 14.0596L0.182961 13.8854L0 13.8374L0.0495397 13.7194L0.2545 13.4423L0.588851 13.2626L1.48443 12.9814L1.53388 12.8731L1.55177 12.5178L1.62474 12.3436L1.93289 11.8498L1.97689 11.6537L1.99066 11.2339L2.03188 11.0351L2.12131 10.8938L2.36624 10.6496L2.45154 10.5001L2.48866 10.1778L2.46254 9.54129L2.58774 9.28892L3.15173 8.71008L3.30304 8.45084L3.35392 8.21902L3.34847 7.9831L3.38289 7.7499L3.55066 7.52494L3.69373 7.455L4.10919 7.38367L4.39258 7.42896L6.37358 7.03255L6.60608 7.08604L6.70927 7.32058L6.69962 7.6964L6.73404 7.87883L6.84001 8.0078L7.15496 8.18612L7.37235 8.48513L7.48932 8.59484L7.80704 8.79924L9.28047 10.5056L9.69593 10.6674L10.099 10.6085L10.8997 10.2546L11.2999 10.1654L14.1009 10.2656L14.4145 10.2121L14.4338 10.2203L14.8602 11.0762L15.0625 11.271L18.1344 11.2806L18.0766 11.0364L18.1152 10.7648L18.4742 10.4151L18.6558 10.2409V10.2422L18.7328 10.1791L19.2075 9.92812L19.6711 9.76076L20.5625 9.56461L20.8872 9.25464L21.0674 8.97208L21.0729 8.4138L21.1912 8.32191L21.4031 8.19294L22.4334 7.69368L22.6082 7.58807L24.4296 8.74713L25.4503 9.66474L25.5123 9.71003L25.5659 9.72648L25.6195 9.69492L25.6649 9.65239L25.7392 9.62497L25.7888 9.61262L26.2262 9.60027L27.0531 9.55502L27.3254 9.44531L28.9859 7.80616L29.4082 7.28354L29.5142 7.17654L29.7549 6.80483L30.008 6.16291L30.0589 6.0902L31.879 4.55118L31.9422 4.42911L31.9601 4.3317L31.685 3.81323L31.6258 3.54989L31.6148 3.14385L31.6685 2.51289L31.6493 2.11376L31.6424 2.06708L31.6245 2.00538L31.6121 1.98207L30.5968 0.846323L33.1625 0.835356L33.168 0.740711L33.1653 0.691316L33.1584 0.646066L33.1102 0.510272L33.0813 0.327847L33.0799 0.278452L33.0841 0.227718L33.0978 0.134412L33.0992 0.0836779L33.0965 0.0589806L33.0923 0.037046L33.0937 0.0164509L33.1047 0L34.9481 0.023316L34.9233 0.345679L34.7005 1.10146L34.7046 1.55409L34.6509 2.07261L34.6386 2.11376L34.5877 2.22623L34.5437 2.28932L34.4927 2.35102L34.479 2.37434L34.4625 2.41276L34.4611 2.46898L34.8436 5.36045L34.8284 5.43316L34.8147 5.47979L34.7129 5.66088L34.6867 5.71986L34.6813 5.76511L34.7225 5.79667L35.5713 6.10941L35.6126 6.12862L35.6456 6.15328L35.951 6.52499L37.6225 7.89256L37.6803 7.96117L37.8536 8.39048L37.8729 8.45633L37.8783 8.55784L37.8742 8.63737L37.8316 8.89527L37.8453 9.01047L37.8742 9.08728L37.8976 9.17644V9.20252L37.8949 9.22584L37.8824 9.26699Z" fill="var(--fill-0, #71B219)" stroke="var(--stroke-0, white)" mask="url(#path-1-inside-1_0_34)"/>
</g>
</svg>
