<svg preserveAspectRatio="none" width="100%" height="100%" overflow="visible" style="display: block;" viewBox="0 0 9 5" fill="none" xmlns="http://www.w3.org/2000/svg"><path id="SV" d="M3 0L3 0L3 0L3 0L3 0L4 0L4 0L4 0L4 0L4 1L4 1L4 1L4 1L4 1L5 1L5 1L5 1L5 1L5 2L5 2L5 2L5 2L6 2L6 2L6 2L6 2L6 2L6 2L6 2L6 2L6 2L6 2L6 2L6 2L6 2L6 2L7 2L7 2L8 2L8 2L8 2L8 2L8 2L8 2L8 2L8 2L9 2L9 2L9 2L9 3L9 3L9 3L9 3L9 3L9 4L9 4L9 4L9 4L9 4L8 4L8 4L9 4L8 5L8 5L8 5L8 5L7 5L6 4L6 4L6 4L6 4L5 4L3 4L3 4L3 4L2 3L1 3L1 3L1 3L1 3L0 3L0 2L0 2L0 2L1 2L1 2L1 2L1 2L1 2L1 2L2 2L2 2L2 2L2 1L2 1L2 1L2 1L2 1L2 1L2 1L2 1L2 1L2 0L2 0L2 0L2 0L2 0L2 0L3 0L3 0Z" fill="var(--fill-0,#71B219)" stroke="var(--stroke-0,white)" stroke-width="0"/></svg>