<svg preserveAspectRatio="none" width="100%" height="100%" overflow="visible" style="display: block;" viewBox="0 0 9.23091 4.9915" fill="none" xmlns="http://www.w3.org/2000/svg">
<path id="SV" d="M2.71387 0.256836L2.74805 0.276367L2.7832 0.296875L2.82324 0.304688L2.90918 0.320312L3.53906 0.518555L3.60156 0.538086L3.66504 0.524414L3.75391 0.504883L3.88574 0.592773L3.96387 0.677734L4.05469 0.832031L4.08301 0.879883L4.12891 0.911133L4.58789 1.22656L4.64551 1.33008L4.68164 1.39355L4.74512 1.42773L5.09082 1.61523L5.21973 1.74902L5.25781 1.78711L5.30762 1.80664L5.46973 1.87109L5.49121 1.87988L5.51465 1.88477L5.82324 1.94434L5.94727 1.98242L5.96094 2.10547L5.96387 2.12695L5.96973 2.14844L6.02734 2.3457L6.0752 2.50879L6.24414 2.52441L6.37305 2.53711L6.45605 2.54492L6.52734 2.50098L6.67676 2.40918L7.16699 2.15527L7.5459 2.01758L7.66211 2.0625L7.7793 2.22363L7.81348 2.27051L7.86328 2.29688L8.04785 2.39551L8.12207 2.43555L8.20508 2.42285L8.56445 2.36523L8.80957 2.37891L8.95996 2.48633L8.82129 3.01758L8.81934 3.02637L8.75879 3.2998L8.75586 3.31152L8.75488 3.32324L8.72559 3.55469L8.70605 3.71191L8.81836 3.7832L8.7207 3.85156L8.63281 3.90039L8.47852 3.9873L8.50879 4.16211L8.55566 4.43555L8.43262 4.56836L8.29297 4.68652L8.02051 4.72266L7.4541 4.74023L6.58789 4.55469L5.93848 4.29785L5.89453 4.28125L5.84766 4.28027L5.48633 4.2793L4.85059 4.27637L3.30762 3.53027L3.27051 3.5127L3.23047 3.50781L2.29199 3.38672L1.26855 3.19727L0.674805 2.75L0.651367 2.73145L0.624023 2.71973L0.256836 2.55957L0.25 2.53125L0.25293 2.44141L0.404297 2.25098L0.787109 1.90625L1.01172 1.74805L1.04883 1.7373L1.17969 1.75195L1.26562 1.76074L1.33887 1.71484L1.50977 1.6084L1.5625 1.5752L1.59277 1.52246L1.72461 1.29492L1.82324 1.19043L2.16699 1.04492L2.19336 1.0332L2.2168 1.0166L2.30664 0.950195L2.43652 0.854492L2.40332 0.696289L2.37305 0.555664L2.37012 0.543945L2.36719 0.53418L2.30078 0.322266L2.36133 0.317383L2.37598 0.316406L2.39062 0.3125L2.66602 0.251953L2.71387 0.256836Z" fill="var(--fill-0, #71B219)" stroke="var(--stroke-0, white)" stroke-width="0.5"/>
</svg>
