<svg preserveAspectRatio="none" width="100%" height="100%" overflow="visible" style="display: block;" viewBox="0 0 0.439235 0.201924" fill="none" xmlns="http://www.w3.org/2000/svg">
<g id="SX">
<mask id="path-1-inside-1_0_33" fill="white">
<path d="M0.00552205 0H0.439235L0.435104 0.0954326L0.393667 0.201924L0.132613 0.11202L0 0.0179807L0.00552205 0Z"/>
</mask>
<path d="M0.00552205 0H0.439235L0.435104 0.0954326L0.393667 0.201924L0.132613 0.11202L0 0.0179807L0.00552205 0Z" fill="var(--fill-0, #71B219)"/>
<path d="M0.00552205 0V-0.5H-0.363971L-0.472446 -0.146789L0.00552205 0ZM0.439235 0L0.938767 0.0216233L0.961346 -0.5H0.439235V0ZM0.435104 0.0954326L0.901072 0.276744L0.931059 0.199676L0.934636 0.117056L0.435104 0.0954326ZM0.393667 0.201924L0.230858 0.674675L0.685333 0.83119L0.859635 0.383235L0.393667 0.201924ZM0.132613 0.11202L-0.156611 0.51988L-0.0980608 0.561399L-0.0301955 0.584771L0.132613 0.11202ZM0 0.0179807L-0.477968 -0.128808L-0.58409 0.216743L-0.289224 0.42584L0 0.0179807ZM0.00552205 0V0.5H0.439235V0V-0.5H0.00552205V0ZM0.439235 0L-0.0602976 -0.0216233L-0.0644286 0.0738093L0.435104 0.0954326L0.934636 0.117056L0.938767 0.0216233L0.439235 0ZM0.435104 0.0954326L-0.0308644 -0.0858787L-0.0723009 0.0206125L0.393667 0.201924L0.859635 0.383235L0.901072 0.276744L0.435104 0.0954326ZM0.393667 0.201924L0.556476 -0.270827L0.295422 -0.36073L0.132613 0.11202L-0.0301955 0.584771L0.230858 0.674675L0.393667 0.201924ZM0.132613 0.11202L0.421838 -0.295839L0.289224 -0.389879L0 0.0179807L-0.289224 0.42584L-0.156611 0.51988L0.132613 0.11202ZM0 0.0179807L0.477968 0.164769L0.48349 0.146789L0.00552205 0L-0.472446 -0.146789L-0.477968 -0.128808L0 0.0179807Z" fill="var(--stroke-0, white)" mask="url(#path-1-inside-1_0_33)"/>
</g>
</svg>
