<svg preserveAspectRatio="none" width="100%" height="100%" overflow="visible" style="display: block;" viewBox="0 0 25.4613 23.2566" fill="none" xmlns="http://www.w3.org/2000/svg">
<g id="SY">
<mask id="path-1-inside-1_0_32" fill="white">
<path d="M25.4613 0.908025V0.972489L25.4269 1.13846L24.9909 1.61583L24.3992 2.26324L23.9742 2.672L23.2588 3.35783L22.7237 3.50459L21.824 3.75148L21.5819 3.99017L21.3562 4.377L21.2242 4.90506L21.1856 5.23429L21.1623 5.84879L21.3728 6.48661L21.575 7.09701L21.6011 7.50025L21.5805 7.89666L21.3851 8.32053L21.1719 8.90071L21.0494 9.55502L20.9848 10.7772L20.9834 11.8155L20.9656 11.9842L20.5955 12.7139L20.1635 13.5671L19.9627 13.7633L19.0148 14.017L17.9803 14.6398L16.8234 15.3352L15.7737 15.9648L14.6717 16.6246L13.5285 17.3077L12.7114 17.7946L11.6177 18.4461L10.6217 19.0675L9.61331 19.6971L8.8457 20.1731L7.68185 20.9261L6.99955 21.3678L5.99666 22.0152L5.11342 22.5845L4.06931 23.2566L2.75962 23.0577L2.34558 22.9411L2.00712 22.6215L1.75816 22.45L1.13908 22.2744L0.741501 21.6696L0.503458 21.4556L0.087996 21.3596L0.143077 21.1428L0.357694 20.778L0.574997 20.3802L0.454002 20.1593L0.414035 19.9701L0.400348 19.7451L0.548883 19.5298L0.478688 19.2692L0.364579 19.0085L0.280613 18.8768V18.6368L0.335695 18.453L0.404463 18.1718L0.580539 18.0182L0.625964 17.8577L0.784155 17.7L0.994573 17.571L1.04277 17.4681L1.01246 17.4092L0.800613 17.2926L0.686419 17.0882L0.78827 16.7905L0.855694 16.6973L0.98223 16.5519L1.26561 16.3324L1.48712 16.2967L1.67831 16.2954L2.003 16.3146L2.25473 16.3544L2.31938 16.2967L2.30981 16.2241L1.99889 16.0444L1.98235 15.9004L2.05943 15.7467L2.2795 15.5026L2.54223 15.3242L2.67573 15.2927L2.97557 14.9333L3.16819 14.5314L2.85592 13.5521L2.66885 13.3943L2.36347 13.2599L2.18319 13.2393L2.16942 13.1749L2.41023 12.9266L2.58077 12.7085L2.39235 12.5027L2.05254 12.4053L1.92735 12.6193L1.49257 12.6385L0.818497 12.6358L0.521343 11.5961L0.476001 11.1448L0.48423 10.6222L0.68919 9.85679L0.592882 9.50153L0.584653 9.26146L0.532342 8.93227L0 8.22174L0.290269 6.91044L0.495229 6.59222L0.784155 6.6224L1.40046 6.9955L1.50223 6.98453L1.68931 6.49347L1.87092 6.3275L2.25062 6.1807L2.35927 5.38515L2.53677 5.23291L2.75139 5.15061L3.08154 5.13416L3.36769 5.08748L3.38558 4.94759L2.98389 4.02445L3.01966 3.78991L3.21362 2.85991L3.33604 2.49506L3.453 2.37572L3.90835 2.42235L4.54531 2.58694L4.7145 2.85443L5.02677 3.09311L5.49312 3.07666L6.03377 3.12191L6.45478 3.13698L6.79181 2.96967L7.55254 2.65693L7.92812 2.55266L8.27062 2.41414L9.37124 1.90111L9.81281 1.94092L10.1141 2.0081L10.3452 2.0904L10.8625 2.44018L11.2903 2.79406L11.5915 2.89968L12.1309 2.89147L12.9109 2.96004L13.8684 2.95456L14.4282 2.85581L15.1423 2.68159L16.4161 2.26324L18.0917 1.38673L19.0767 0.96014L19.5018 0.909406L20.0549 0.905304L20.6079 1.0164L21.2352 1.09598L21.5254 1.08911L22.2037 1.00133L23.0841 0.823007L23.6372 0.677586L24.3057 0.438943L24.7226 0.0411483L24.8574 0L25.0308 0.0727106L25.1119 0.100129L25.2825 0.325084L25.4613 0.908025Z"/>
</mask>
<path d="M25.4613 0.908025V0.972489L25.4269 1.13846L24.9909 1.61583L24.3992 2.26324L23.9742 2.672L23.2588 3.35783L22.7237 3.50459L21.824 3.75148L21.5819 3.99017L21.3562 4.377L21.2242 4.90506L21.1856 5.23429L21.1623 5.84879L21.3728 6.48661L21.575 7.09701L21.6011 7.50025L21.5805 7.89666L21.3851 8.32053L21.1719 8.90071L21.0494 9.55502L20.9848 10.7772L20.9834 11.8155L20.9656 11.9842L20.5955 12.7139L20.1635 13.5671L19.9627 13.7633L19.0148 14.017L17.9803 14.6398L16.8234 15.3352L15.7737 15.9648L14.6717 16.6246L13.5285 17.3077L12.7114 17.7946L11.6177 18.4461L10.6217 19.0675L9.61331 19.6971L8.8457 20.1731L7.68185 20.9261L6.99955 21.3678L5.99666 22.0152L5.11342 22.5845L4.06931 23.2566L2.75962 23.0577L2.34558 22.9411L2.00712 22.6215L1.75816 22.45L1.13908 22.2744L0.741501 21.6696L0.503458 21.4556L0.087996 21.3596L0.143077 21.1428L0.357694 20.778L0.574997 20.3802L0.454002 20.1593L0.414035 19.9701L0.400348 19.7451L0.548883 19.5298L0.478688 19.2692L0.364579 19.0085L0.280613 18.8768V18.6368L0.335695 18.453L0.404463 18.1718L0.580539 18.0182L0.625964 17.8577L0.784155 17.7L0.994573 17.571L1.04277 17.4681L1.01246 17.4092L0.800613 17.2926L0.686419 17.0882L0.78827 16.7905L0.855694 16.6973L0.98223 16.5519L1.26561 16.3324L1.48712 16.2967L1.67831 16.2954L2.003 16.3146L2.25473 16.3544L2.31938 16.2967L2.30981 16.2241L1.99889 16.0444L1.98235 15.9004L2.05943 15.7467L2.2795 15.5026L2.54223 15.3242L2.67573 15.2927L2.97557 14.9333L3.16819 14.5314L2.85592 13.5521L2.66885 13.3943L2.36347 13.2599L2.18319 13.2393L2.16942 13.1749L2.41023 12.9266L2.58077 12.7085L2.39235 12.5027L2.05254 12.4053L1.92735 12.6193L1.49257 12.6385L0.818497 12.6358L0.521343 11.5961L0.476001 11.1448L0.48423 10.6222L0.68919 9.85679L0.592882 9.50153L0.584653 9.26146L0.532342 8.93227L0 8.22174L0.290269 6.91044L0.495229 6.59222L0.784155 6.6224L1.40046 6.9955L1.50223 6.98453L1.68931 6.49347L1.87092 6.3275L2.25062 6.1807L2.35927 5.38515L2.53677 5.23291L2.75139 5.15061L3.08154 5.13416L3.36769 5.08748L3.38558 4.94759L2.98389 4.02445L3.01966 3.78991L3.21362 2.85991L3.33604 2.49506L3.453 2.37572L3.90835 2.42235L4.54531 2.58694L4.7145 2.85443L5.02677 3.09311L5.49312 3.07666L6.03377 3.12191L6.45478 3.13698L6.79181 2.96967L7.55254 2.65693L7.92812 2.55266L8.27062 2.41414L9.37124 1.90111L9.81281 1.94092L10.1141 2.0081L10.3452 2.0904L10.8625 2.44018L11.2903 2.79406L11.5915 2.89968L12.1309 2.89147L12.9109 2.96004L13.8684 2.95456L14.4282 2.85581L15.1423 2.68159L16.4161 2.26324L18.0917 1.38673L19.0767 0.96014L19.5018 0.909406L20.0549 0.905304L20.6079 1.0164L21.2352 1.09598L21.5254 1.08911L22.2037 1.00133L23.0841 0.823007L23.6372 0.677586L24.3057 0.438943L24.7226 0.0411483L24.8574 0L25.0308 0.0727106L25.1119 0.100129L25.2825 0.325084L25.4613 0.908025Z" fill="var(--fill-0, #71B219)" stroke="var(--stroke-0, white)" mask="url(#path-1-inside-1_0_32)"/>
</g>
</svg>
