<svg preserveAspectRatio="none" width="100%" height="100%" overflow="visible" style="display: block;" viewBox="0 0 26 23" fill="none" xmlns="http://www.w3.org/2000/svg"><g id="SY"><mask id="path-1-inside-1_0_32" fill="white"><path d="M26 1V1L25 1L25 2L24 2L24 3L23 3L23 4L22 4L22 4L21 4L21 5L21 5L21 6L21 6L22 7L22 8L22 8L21 8L21 9L21 10L21 11L21 12L21 12L21 13L20 14L20 14L19 14L18 15L17 15L16 16L15 17L14 17L13 18L12 18L11 19L10 20L9 20L8 21L7 21L6 22L5 23L4 23L3 23L2 23L2 23L2 22L1 22L1 22L0 22L0 21L0 21L0 21L1 20L0 20L0 20L0 20L0 20L0 19L0 19L0 19V19L0 18L0 18L1 18L1 18L1 18L1 18L1 18L1 17L1 17L1 17L1 17L1 17L1 17L1 16L2 16L2 16L2 16L2 16L2 16L2 16L2 16L2 16L2 16L2 16L2 15L3 15L3 15L3 14L3 14L3 13L2 13L2 13L2 13L2 13L3 13L2 12L2 12L2 13L2 13L1 13L0 12L0 11L0 11L1 10L1 10L1 9L0 9L0 8L0 7L0 7L1 7L1 7L2 7L2 6L2 6L2 6L2 5L2 5L3 5L3 5L3 5L3 5L3 4L3 4L3 3L3 2L4 2L4 2L4 3L5 3L5 3L6 3L6 3L6 3L7 3L8 3L8 3L8 2L9 2L10 2L10 2L10 2L11 2L11 3L12 3L12 3L13 3L14 3L14 3L15 3L16 2L18 1L19 1L20 1L20 1L21 1L21 1L22 1L22 1L23 1L24 1L24 0L25 0L25 0L25 0L25 0L25 0L26 1Z"/></mask><path d="M26 1V1L25 1L25 2L24 2L24 3L23 3L23 4L22 4L22 4L21 4L21 5L21 5L21 6L21 6L22 7L22 8L22 8L21 8L21 9L21 10L21 11L21 12L21 12L21 13L20 14L20 14L19 14L18 15L17 15L16 16L15 17L14 17L13 18L12 18L11 19L10 20L9 20L8 21L7 21L6 22L5 23L4 23L3 23L2 23L2 23L2 22L1 22L1 22L0 22L0 21L0 21L0 21L1 20L0 20L0 20L0 20L0 20L0 19L0 19L0 19V19L0 18L0 18L1 18L1 18L1 18L1 18L1 18L1 17L1 17L1 17L1 17L1 17L1 17L1 16L2 16L2 16L2 16L2 16L2 16L2 16L2 16L2 16L2 16L2 16L2 15L3 15L3 15L3 14L3 14L3 13L2 13L2 13L2 13L2 13L3 13L2 12L2 12L2 13L2 13L1 13L0 12L0 11L0 11L1 10L1 10L1 9L0 9L0 8L0 7L0 7L1 7L1 7L2 7L2 6L2 6L2 6L2 5L2 5L3 5L3 5L3 5L3 5L3 4L3 4L3 3L3 2L4 2L4 2L4 3L5 3L5 3L6 3L6 3L6 3L7 3L8 3L8 3L8 2L9 2L10 2L10 2L10 2L11 2L11 3L12 3L12 3L13 3L14 3L14 3L15 3L16 2L18 1L19 1L20 1L20 1L21 1L21 1L22 1L22 1L23 1L24 1L24 0L25 0L25 0L25 0L25 0L25 0L26 1Z" fill="var(--fill-0,#71B219)" stroke="var(--stroke-0,white)" mask="url(#path-1-inside-1_0_32)"/></g></svg>