<svg preserveAspectRatio="none" width="100%" height="100%" overflow="visible" style="display: block;" viewBox="0 0 5.11762 6.70612" fill="none" xmlns="http://www.w3.org/2000/svg">
<path id="SZ" d="M2.3418 0.256836L3.16602 0.743164L3.17383 0.74707L4.06543 1.23438L4.1543 1.2832L4.25195 1.25586L4.44824 1.20117L4.44922 1.2002L4.67676 1.3252L4.69531 1.55859L4.66406 1.96973L4.59863 2.23242L4.58789 2.27441L4.5918 2.31738L4.62012 2.59863L4.62207 2.61816L4.62695 2.6377L4.74121 3.07617L4.74414 3.08789L4.74805 3.09863L4.8418 3.36035L4.86035 4.32324L4.84277 4.31934L4.78223 4.30273L4.7207 4.31738L4.60352 4.34473L4.44238 4.38281L4.41406 4.5459L4.30859 5.16211L4.30664 5.17188L4.30566 5.18164L4.22363 6.09668L4.22168 6.11816L4.22363 6.14062L4.24902 6.44336L3.68555 6.45508L2.68164 6.39551L1.98926 6.16992L1.25293 5.68066L0.808594 4.9043L0.602539 4.38867L0.545898 4.24805L0.395508 4.23242L0.270508 4.21875L0.25 3.7041L0.254883 3.07617L0.290039 2.96484L0.818359 2.16309L1.1582 1.64746L1.1709 1.62891L1.17969 1.6084L1.37891 1.13867L1.79785 0.605469L2.22949 0.279297L2.31836 0.253906L2.3418 0.256836Z" fill="var(--fill-0, #71B219)" stroke="var(--stroke-0, white)" stroke-width="0.5"/>
</svg>
