<svg preserveAspectRatio="none" width="100%" height="100%" overflow="visible" style="display: block;" viewBox="0 0 2.72389 0.825728" fill="none" xmlns="http://www.w3.org/2000/svg">
<g id="TC">
<mask id="path-1-inside-1_0_42" fill="white">
<path d="M1.78431 0.459496L1.71689 0.503407L1.49266 0.360749L1.461 0.24689L1.38124 0.241406L1.24777 0.138556L1.27943 0.00548365L1.58481 0L1.70727 0.368995L1.78431 0.459496ZM2.62896 0.76951L2.61385 0.825728L2.39512 0.666619L1.9755 0.665279L1.90946 0.447147L2.07043 0.411483L2.60281 0.488296L2.72389 0.677586L2.62896 0.76951ZM0.0357694 0.415627L0.477387 0.643303L0.742886 0.60902L0.764885 0.658414L0.62185 0.71053L0.58608 0.75306L0.160962 0.81204L0.0275407 0.801073L0 0.647447L0.0357694 0.415627Z"/>
</mask>
<path d="M1.78431 0.459496L1.71689 0.503407L1.49266 0.360749L1.461 0.24689L1.38124 0.241406L1.24777 0.138556L1.27943 0.00548365L1.58481 0L1.70727 0.368995L1.78431 0.459496ZM2.62896 0.76951L2.61385 0.825728L2.39512 0.666619L1.9755 0.665279L1.90946 0.447147L2.07043 0.411483L2.60281 0.488296L2.72389 0.677586L2.62896 0.76951ZM0.0357694 0.415627L0.477387 0.643303L0.742886 0.60902L0.764885 0.658414L0.62185 0.71053L0.58608 0.75306L0.160962 0.81204L0.0275407 0.801073L0 0.647447L0.0357694 0.415627Z" fill="var(--fill-0, #71B219)"/>
<path d="M1.78431 0.459496L2.05718 0.878476L2.53352 0.568255L2.16505 0.135397L1.78431 0.459496ZM1.71689 0.503407L1.4485 0.925266L1.72005 1.09803L1.98975 0.922387L1.71689 0.503407ZM1.49266 0.360749L1.01093 0.494679L1.06234 0.679587L1.22426 0.782608L1.49266 0.360749ZM1.461 0.24689L1.94273 0.112959L1.84803 -0.227684L1.49529 -0.251933L1.461 0.24689ZM1.38124 0.241406L1.07603 0.637452L1.19593 0.729847L1.34694 0.740229L1.38124 0.241406ZM1.24777 0.138556L0.761345 0.022846L0.686543 0.337302L0.942571 0.534602L1.24777 0.138556ZM1.27943 0.00548365L1.27045 -0.494436L0.882739 -0.487474L0.793 -0.110227L1.27943 0.00548365ZM1.58481 0L2.05936 -0.157495L1.94352 -0.506522L1.57583 -0.499919L1.58481 0ZM1.70727 0.368995L1.23273 0.52649L1.26341 0.618929L1.32654 0.693094L1.70727 0.368995ZM2.62896 0.769511L2.28113 0.410329L2.18195 0.506373L2.14611 0.639698L2.62896 0.769511ZM2.61385 0.825728L2.31973 1.23007L2.90788 1.6579L3.09671 0.955541L2.61385 0.825728ZM2.39512 0.666619L2.68925 0.26228L2.55845 0.167138L2.39672 0.166621L2.39512 0.666619ZM1.9755 0.665279L1.49695 0.810159L1.60411 1.1641L1.97391 1.16528L1.9755 0.665279ZM1.90946 0.447147L1.8013 -0.0410133L1.27459 0.07569L1.43091 0.592027L1.90946 0.447147ZM2.07043 0.411483L2.14183 -0.0833928L2.05143 -0.0964351L1.96226 -0.0766779L2.07043 0.411483ZM2.60281 0.488296L3.02401 0.218875L2.90071 0.0260989L2.67421 -0.00657992L2.60281 0.488296ZM2.72389 0.677586L3.07172 1.03677L3.36531 0.752452L3.14509 0.408166L2.72389 0.677586ZM0.0357694 0.415627L0.264888 -0.0287882L-0.352466 -0.347065L-0.458383 0.33938L0.0357694 0.415627ZM0.477387 0.643303L0.248268 1.08772L0.386821 1.15915L0.541419 1.13919L0.477387 0.643303ZM0.742886 0.60902L1.19963 0.405597L1.04814 0.0654513L0.678854 0.113137L0.742886 0.60902ZM0.764885 0.658414L0.936055 1.1282L1.43973 0.944686L1.22163 0.454991L0.764885 0.658414ZM0.62185 0.71053L0.45068 0.240742L0.325173 0.286471L0.239194 0.388699L0.62185 0.71053ZM0.58608 0.75306L0.654792 1.24832L0.845081 1.22192L0.968736 1.07489L0.58608 0.75306ZM0.160962 0.81204L0.12 1.31036L0.175006 1.31488L0.229674 1.3073L0.160962 0.81204ZM0.0275407 0.801073L-0.464613 0.889302L-0.396745 1.26788L-0.0134213 1.29939L0.0275407 0.801073ZM0 0.647447L-0.494152 0.5712L-0.506867 0.653605L-0.492154 0.735676L0 0.647447ZM1.78431 0.459496L1.51145 0.0405162L1.44402 0.0844273L1.71689 0.503407L1.98975 0.922387L2.05718 0.878476L1.78431 0.459496ZM1.71689 0.503407L1.98528 0.0815479L1.76105 -0.0611107L1.49266 0.360749L1.22426 0.782608L1.4485 0.925266L1.71689 0.503407ZM1.49266 0.360749L1.97439 0.226818L1.94273 0.112959L1.461 0.24689L0.979274 0.38082L1.01093 0.494679L1.49266 0.360749ZM1.461 0.24689L1.49529 -0.251933L1.41553 -0.257417L1.38124 0.241406L1.34694 0.740229L1.42671 0.745712L1.461 0.24689ZM1.38124 0.241406L1.68644 -0.15464L1.55297 -0.257489L1.24777 0.138556L0.942571 0.534602L1.07603 0.637452L1.38124 0.241406ZM1.24777 0.138556L1.7342 0.254267L1.76585 0.121194L1.27943 0.00548365L0.793 -0.110227L0.761345 0.022846L1.24777 0.138556ZM1.27943 0.00548365L1.2884 0.505403L1.59379 0.499919L1.58481 0L1.57583 -0.499919L1.27045 -0.494436L1.27943 0.00548365ZM1.58481 0L1.11026 0.157495L1.23273 0.52649L1.70727 0.368995L2.18182 0.2115L2.05936 -0.157495L1.58481 0ZM1.70727 0.368995L1.32654 0.693094L1.40358 0.783595L1.78431 0.459496L2.16505 0.135397L2.08801 0.044896L1.70727 0.368995ZM2.62896 0.769511L2.14611 0.639698L2.131 0.695916L2.61385 0.825728L3.09671 0.955541L3.11182 0.899323L2.62896 0.769511ZM2.61385 0.825728L2.90798 0.421389L2.68925 0.26228L2.39512 0.666619L2.101 1.07096L2.31973 1.23007L2.61385 0.825728ZM2.39512 0.666619L2.39672 0.166621L1.9771 0.165282L1.9755 0.665279L1.97391 1.16528L2.39352 1.16662L2.39512 0.666619ZM1.9755 0.665279L2.45405 0.520399L2.38801 0.302267L1.90946 0.447147L1.43091 0.592027L1.49695 0.810159L1.9755 0.665279ZM1.90946 0.447147L2.01763 0.935308L2.17859 0.899643L2.07043 0.411483L1.96226 -0.0766779L1.8013 -0.0410133L1.90946 0.447147ZM2.07043 0.411483L1.99902 0.906358L2.53141 0.983171L2.60281 0.488296L2.67421 -0.00657992L2.14183 -0.0833928L2.07043 0.411483ZM2.60281 0.488296L2.18161 0.757716L2.30268 0.947007L2.72389 0.677586L3.14509 0.408166L3.02401 0.218875L2.60281 0.488296ZM2.72389 0.677586L2.37605 0.318405L2.28113 0.410329L2.62896 0.769511L2.9768 1.12869L3.07172 1.03677L2.72389 0.677586ZM0.0357694 0.415627L-0.193349 0.860042L0.248268 1.08772L0.477387 0.643303L0.706505 0.198888L0.264888 -0.0287882L0.0357694 0.415627ZM0.477387 0.643303L0.541419 1.13919L0.806918 1.1049L0.742886 0.60902L0.678854 0.113137L0.413355 0.14742L0.477387 0.643303ZM0.742886 0.60902L0.286138 0.812443L0.308137 0.861837L0.764885 0.658414L1.22163 0.454991L1.19963 0.405597L0.742886 0.60902ZM0.764885 0.658414L0.593716 0.188626L0.45068 0.240742L0.62185 0.71053L0.793019 1.18032L0.936055 1.1282L0.764885 0.658414ZM0.62185 0.71053L0.239194 0.388699L0.203425 0.431229L0.58608 0.75306L0.968736 1.07489L1.00451 1.03236L0.62185 0.71053ZM0.58608 0.75306L0.517369 0.257803L0.0922507 0.316784L0.160962 0.81204L0.229674 1.3073L0.654792 1.24832L0.58608 0.75306ZM0.160962 0.81204L0.201924 0.313721L0.0685028 0.302754L0.0275407 0.801073L-0.0134213 1.29939L0.12 1.31036L0.160962 0.81204ZM0.0275407 0.801073L0.519695 0.712844L0.492154 0.559218L0 0.647447L-0.492154 0.735676L-0.464613 0.889302L0.0275407 0.801073ZM0 0.647447L0.494152 0.723694L0.529922 0.491874L0.0357694 0.415627L-0.458383 0.33938L-0.494152 0.5712L0 0.647447Z" fill="var(--stroke-0, white)" mask="url(#path-1-inside-1_0_42)"/>
</g>
</svg>
