<svg preserveAspectRatio="none" width="100%" height="100%" overflow="visible" style="display: block;" viewBox="0 0 3 1" fill="none" xmlns="http://www.w3.org/2000/svg"><g id="TC"><mask id="path-1-inside-1_0_42" fill="white"><path d="M2 0L2 0L2 0L2 0L1 0L1 0L1 0L2 0L2 0L2 0ZM3 1L3 1L2 1L2 1L2 0L2 0L3 0L3 1L3 1ZM0 0L0 1L1 1L1 1L1 1L1 1L0 1L0 1L0 1L0 0Z"/></mask><path d="M2 0L2 0L2 0L2 0L1 0L1 0L1 0L2 0L2 0L2 0ZM3 1L3 1L2 1L2 1L2 0L2 0L3 0L3 1L3 1ZM0 0L0 1L1 1L1 1L1 1L1 1L0 1L0 1L0 1L0 0Z" fill="var(--fill-0,#71B219)"/><path d="M2 0L2 1L2 1L2 0L2 0ZM2 0L1 1L2 1L2 1L2 0ZM2 0L1 0L1 1L1 1L2 0ZM2 0L2 0L2 0L2 0L2 0ZM1 0L1 1L1 1L1 1L1 0ZM1 0L1 0L1 0L1 0L1 0ZM1 0L1 0L1 0L1 0L1 0ZM2 0L2 0L2 0L2 0L2 0ZM2 0L1 0L1 1L1 1L2 0ZM3 1L2 0L2 0L2 1L3 1ZM3 1L2 1L3 2L3 1L3 1ZM2 1L3 0L3 0L2 0L2 1ZM2 1L2 1L2 1L2 1L2 1ZM2 0L2 0L1 0L1 1L2 0ZM2 0L2 0L2 0L2 0L2 0ZM3 0L3 0L3 0L3 0L3 0ZM3 1L3 1L3 1L3 0L3 1ZM0 0L0 0L0 0L0 0L0 0ZM0 1L0 1L0 1L0 1L0 1ZM1 1L1 0L1 0L1 0L1 1ZM1 1L1 1L1 1L1 0L1 1ZM1 1L0 0L0 0L0 0L1 1ZM1 1L1 1L1 1L1 1L1 1ZM0 1L0 1L0 1L0 1L0 1ZM0 1L0 1L0 1L0 1L0 1ZM0 1L0 1L0 1L0 1L0 1ZM2 0L2 0L1 0L2 0L2 1L2 1L2 0ZM2 0L2 0L2 0L2 0L1 1L1 1L2 0ZM2 0L2 0L2 0L2 0L1 0L1 0L2 0ZM2 0L2 0L1 0L1 0L1 1L1 1L2 0ZM1 0L2 0L2 0L1 0L1 0L1 1L1 0ZM1 0L2 0L2 0L1 0L1 0L1 0L1 0ZM1 0L1 0L2 0L2 0L2 0L1 0L1 0ZM2 0L1 0L1 0L2 0L2 0L2 0L2 0ZM2 0L1 1L1 1L2 0L2 0L2 0L2 0ZM3 1L2 1L2 1L3 1L3 1L3 1L3 1ZM3 1L3 0L3 0L2 1L2 1L2 1L3 1ZM2 1L2 0L2 0L2 1L2 1L2 1L2 1ZM2 1L2 0L2 0L2 0L1 1L2 1L2 1ZM2 0L2 1L2 1L2 0L2 0L2 0L2 0ZM2 0L2 1L2 1L3 0L3 0L2 0L2 0ZM3 0L2 1L2 1L3 1L3 0L3 0L3 0ZM3 1L2 0L2 0L3 1L3 1L3 1L3 1ZM0 0L0 1L0 1L0 1L1 0L0 0L0 0ZM0 1L0 1L1 1L1 1L1 0L0 0L0 1ZM1 1L0 1L0 1L1 1L1 0L1 0L1 1ZM1 1L1 0L0 0L1 1L1 1L1 1L1 1ZM1 1L0 0L0 0L1 1L1 1L1 1L1 1ZM1 1L0 0L0 0L0 1L0 1L1 1L1 1ZM0 1L0 0L0 0L0 1L0 1L0 1L0 1ZM0 1L0 1L0 1L0 1L0 1L0 1L0 1ZM0 1L0 1L0 0L0 0L0 0L0 1L0 1Z" fill="var(--stroke-0,white)" mask="url(#path-1-inside-1_0_42)"/></g></svg>