<svg preserveAspectRatio="none" width="100%" height="100%" overflow="visible" style="display: block;" viewBox="0 0 41 64" fill="none" xmlns="http://www.w3.org/2000/svg"><g id="TD"><mask id="path-1-inside-1_0_30" fill="white"><path d="M41 16L41 18L41 20L41 22L41 23L41 25L41 27L41 29L41 31L41 31L41 31L41 31L40 32L40 31L39 31L39 31L38 32L37 32L37 32L37 32L37 33L37 33L37 34L36 34L36 34L36 34L36 35L36 35L36 35L36 35L36 36L35 36L35 36L35 36L34 36L35 36L35 36L35 37L35 37L35 37L35 37L35 38L35 38L34 38L34 38L34 38L34 38L34 39L34 39L33 39L33 39L34 40L34 40L34 40L34 41L34 41L34 41L34 41L33 42L33 42L32 43L32 43L32 43L32 43L33 43L33 43L34 43L34 43L34 44L35 44L34 44L35 45L35 46L35 46L35 46L35 46L35 46L35 47L35 48L36 48L36 48L36 48L36 48L36 48L37 49L37 49L37 49L36 50L36 50L36 50L36 50L35 50L35 50L34 50L34 50L34 50L34 51L33 51L33 51L33 51L33 51L32 51L32 52L32 52V52L32 52L32 52L32 53L32 53L31 53L31 53L31 53L31 54L30 54L30 54L29 55L29 55L29 56L28 56L28 56L28 56L28 57L28 57L27 57L26 57L25 57L25 58L24 58L24 58L23 58L22 58L22 58L21 58L21 58L21 58L21 58L21 58L22 59L22 59L22 59L22 59L22 59L22 60L21 60L20 61L20 61L20 61L20 61L20 61L19 62L18 62L17 62L17 62L16 62L16 62L15 62L15 62L15 62L14 63L14 63L13 63L13 63L13 63L12 63L12 63L12 62L12 62L12 62L12 62L11 62L11 63L11 63L10 63L10 64L9 64L9 64L8 64L8 63L8 63L8 63L8 63L8 62L8 62L8 62L7 61L7 60L6 60L6 59L6 58L5 58L5 58L5 58L4 58L3 57L3 57L3 56L2 56L2 56L2 55L2 55L3 54L3 54L4 54L4 54L5 54L6 54L6 54L7 54L7 54L8 54L8 54L8 54L8 53L7 52L7 52L6 51L6 50L6 50L6 49L6 48L6 48L6 48L6 47L6 47L6 46L6 46L6 46L6 45L5 44L5 44L4 43L4 43L4 42L4 42L3 42L2 42L2 41L1 40L1 39L0 38L0 37L0 36L1 36L1 34L3 32L4 31L5 30L7 28L8 27L8 25L8 22L8 21L8 19L9 17L9 16L9 15L9 14L10 13L10 13L10 13L9 12L8 11L8 11L8 10L7 8L7 8L7 8L7 8L7 6L6 4L6 2L7 1L8 1L10 0L11 1L13 2L15 3L17 4L18 5L20 6L22 7L24 8L26 8L28 10L30 10L31 11L33 12L35 13L37 14L39 15L41 16Z"/></mask><path d="M41 16L41 18L41 20L41 22L41 23L41 25L41 27L41 29L41 31L41 31L41 31L41 31L40 32L40 31L39 31L39 31L38 32L37 32L37 32L37 32L37 33L37 33L37 34L36 34L36 34L36 34L36 35L36 35L36 35L36 35L36 36L35 36L35 36L35 36L34 36L35 36L35 36L35 37L35 37L35 37L35 37L35 38L35 38L34 38L34 38L34 38L34 38L34 39L34 39L33 39L33 39L34 40L34 40L34 40L34 41L34 41L34 41L34 41L33 42L33 42L32 43L32 43L32 43L32 43L33 43L33 43L34 43L34 43L34 44L35 44L34 44L35 45L35 46L35 46L35 46L35 46L35 46L35 47L35 48L36 48L36 48L36 48L36 48L36 48L37 49L37 49L37 49L36 50L36 50L36 50L36 50L35 50L35 50L34 50L34 50L34 50L34 51L33 51L33 51L33 51L33 51L32 51L32 52L32 52V52L32 52L32 52L32 53L32 53L31 53L31 53L31 53L31 54L30 54L30 54L29 55L29 55L29 56L28 56L28 56L28 56L28 57L28 57L27 57L26 57L25 57L25 58L24 58L24 58L23 58L22 58L22 58L21 58L21 58L21 58L21 58L21 58L22 59L22 59L22 59L22 59L22 59L22 60L21 60L20 61L20 61L20 61L20 61L20 61L19 62L18 62L17 62L17 62L16 62L16 62L15 62L15 62L15 62L14 63L14 63L13 63L13 63L13 63L12 63L12 63L12 62L12 62L12 62L12 62L11 62L11 63L11 63L10 63L10 64L9 64L9 64L8 64L8 63L8 63L8 63L8 63L8 62L8 62L8 62L7 61L7 60L6 60L6 59L6 58L5 58L5 58L5 58L4 58L3 57L3 57L3 56L2 56L2 56L2 55L2 55L3 54L3 54L4 54L4 54L5 54L6 54L6 54L7 54L7 54L8 54L8 54L8 54L8 53L7 52L7 52L6 51L6 50L6 50L6 49L6 48L6 48L6 48L6 47L6 47L6 46L6 46L6 46L6 45L5 44L5 44L4 43L4 43L4 42L4 42L3 42L2 42L2 41L1 40L1 39L0 38L0 37L0 36L1 36L1 34L3 32L4 31L5 30L7 28L8 27L8 25L8 22L8 21L8 19L9 17L9 16L9 15L9 14L10 13L10 13L10 13L9 12L8 11L8 11L8 10L7 8L7 8L7 8L7 8L7 6L6 4L6 2L7 1L8 1L10 0L11 1L13 2L15 3L17 4L18 5L20 6L22 7L24 8L26 8L28 10L30 10L31 11L33 12L35 13L37 14L39 15L41 16Z" fill="var(--fill-0,#71B219)" stroke="var(--stroke-0,white)" mask="url(#path-1-inside-1_0_30)"/></g></svg>