<svg preserveAspectRatio="none" width="100%" height="100%" overflow="visible" style="display: block;" viewBox="0 0 40.6752 63.6288" fill="none" xmlns="http://www.w3.org/2000/svg">
<g id="TD">
<mask id="path-1-inside-1_0_30" fill="white">
<path d="M40.6627 16.2433L40.6642 18.0511L40.6655 19.8549L40.6668 21.6531L40.6683 23.4472L40.6696 25.2373L40.671 27.0218L40.6724 28.8022L40.6737 30.5799L40.6752 31.167L40.6256 31.4002L40.605 31.4331L40.5293 31.4729L39.6117 31.3083L39.21 31.3041L38.646 31.4303L37.8178 31.4976L37.284 31.477L36.9126 31.7815L36.6223 32.1491L36.7599 33.0297L36.7283 33.3191L36.6168 33.6209L36.3651 33.8801L36.1133 34.0873L35.9633 34.2683L35.7777 34.6661L35.6387 34.8513L35.6511 35.1009L35.6071 35.3615L35.4558 35.4987L35.072 35.5975L34.8229 35.714L34.6234 35.9047L34.49 36.0419L34.5602 36.2243L34.6578 36.474L34.7128 36.8649L34.7514 37.0939L34.9412 37.2805L35.0568 37.4135L35.0967 37.5768L34.9866 37.7125L34.5161 37.9951L34.3277 38.1008L34.1117 38.2448L34.0292 38.2983L33.6853 38.5671L33.5119 38.8058L33.428 39.0033L33.4321 39.2776L33.6068 39.6864L33.798 40.0334L33.8709 40.2954L33.915 40.5821L33.8985 40.8537L33.7994 41.091L33.6274 41.3036L32.9795 41.7055L32.6617 42.1444L32.4058 42.6794L32.3426 42.9702L32.4113 43.1649L32.5475 43.3282L32.7387 43.4118L33.0194 43.4365L33.4843 43.3474L33.9177 43.2884L34.3772 43.4804L34.6165 43.9276L34.5244 44.254L34.6977 44.8466L34.8518 45.5612L34.8408 45.8013L34.9082 45.8918L35.1957 45.9384L35.2604 46.1058L35.1655 47.3581L35.2989 47.7079L35.4915 47.9575L35.7088 48.0879L35.929 48.2552L36.0418 48.3704L36.2949 48.3978L36.5796 48.6255L36.6567 48.9287L36.6375 49.2222L36.4724 49.8559L36.3376 50.2825L36.1725 50.2537L35.8368 50.1481L35.4269 50.0575L34.9233 49.9849L34.4446 50.159L33.9273 50.3826L33.765 50.5486L33.6205 50.6474L33.3922 50.6309L33.1831 50.6597L33.0703 50.8188L32.8805 50.9958L32.1348 51.3606L31.978 51.4937L31.8845 51.6254V51.7694L31.9601 52.0657L31.9588 52.4346L31.7923 52.7337L31.5996 52.9339L31.3782 53.0108L31.1952 53.0533L31.0742 53.1767L30.6848 53.8543L30.517 53.9791L30.1745 53.9586L29.1922 54.9722L29.0945 55.2713L28.7355 55.6951L28.2815 56.1656L27.8757 56.3933L27.8427 56.4811L27.7339 56.5702L27.4836 56.6717L26.6169 57.2451L25.5755 57.2218L25.1161 57.4467L24.6689 57.5455L24.0141 57.6566L23.8187 57.6456L22.9796 57.6922L21.996 57.6758L21.619 57.7567L21.2655 57.9735L21.0027 58.1641L20.9656 58.2285L21.0041 58.3081L20.9944 58.3712L21.6823 58.8389L21.8542 59.068L21.6809 59.2902L21.5984 59.3231L21.5887 59.3369L21.476 59.5124L21.0729 60.0392L20.4593 60.6619L20.1456 60.8402L20.0204 60.9568L19.8568 61.3697L19.7522 61.4273L19.3298 61.4808L18.4962 61.5261L17.342 61.6605L16.65 61.7057L16.2194 61.6673L15.6141 61.9527L15.3981 62.0253L15.2661 62.05L14.6663 62.3257L14.1683 62.7551L13.9908 62.836L13.2892 63.0184L13.0099 63.3133L12.882 63.338L12.4321 62.9485L12.1253 62.596L11.9754 62.2379L11.9576 62.1241L11.8722 62.1447L11.626 62.3038L11.4128 62.4835L11.315 62.8264L10.5901 63.0568L9.96966 63.2557L9.68762 63.5054L9.25293 63.6288L8.69851 63.5781L8.2665 63.4766L7.84416 63.4423L8.04643 63.1309L8.12485 62.8991L8.14408 62.6151L8.11385 62.4231L7.8607 62.3271L7.70116 62.1762L7.33793 61.2805L6.96512 60.3588L6.43958 59.4507L5.86735 58.8705L5.45323 58.5166L5.32116 58.4713L5.10797 58.3602L4.95935 58.2574L4.19996 57.6401L3.41312 56.9488L3.21085 56.6333L2.81738 56.1628L2.37715 55.6773L2.14885 55.4564L2.04288 55.0573L2.34558 54.6965L2.67019 54.2411L3.0692 53.938L3.58643 53.9174L4.43801 54.0422L5.35693 54.0861L6.26762 53.9915L6.50289 53.9256L6.73673 53.9311L7.22651 54.0367L8.07943 54.0134L8.51966 53.8296L8.04509 53.5155L7.53466 53.0176L7.05731 52.4717L6.76705 51.9765L6.50155 51.3387L6.25662 50.55L6.10666 49.5267L6.12874 48.9465L6.20573 48.5336L6.46166 47.8588L6.29239 47.4637L6.32958 47.1441L6.30481 46.6709L6.22228 46.4295L5.8907 45.6435L5.82327 45.5571L5.53031 45.0126L5.40092 44.1018L5.06943 43.4996L4.537 43.2088L4.23439 42.8536L4.12297 42.2281L3.91246 42.0635L3.07608 41.8454L2.37715 41.8399L1.86958 41.1335L1.2175 40.2241L0.610766 39.3792L0.222845 37.6837L0 36.7126L0.251729 36.4177L0.749729 35.725L1.38535 34.3972L2.81738 32.3411L3.55066 31.2863L5.013 29.7089L6.8097 27.7666L7.82216 26.6693L7.98589 24.6667L8.1592 22.5433L8.28993 20.9343L8.45224 19.0209L8.58986 17.4188L8.68885 16.2488L8.82916 14.5877L8.94889 14.2681L9.65462 12.9609L9.70962 12.7853L9.57897 12.5658L8.57197 11.452L8.25828 11.2038L8.07666 10.6235L8.33536 10.2985L7.12474 8.42204L6.82481 8.19161L6.69274 7.96251L6.67762 7.62235L6.65562 6.31925L6.3337 4.26862L5.91001 1.87097L7.33247 1.18648L8.41235 0.665238L9.79082 0L11.0674 0.68173L12.9178 1.66657L14.7681 2.64869L16.617 3.6308L18.4673 4.61154L20.3162 5.58955L22.1665 6.5648L24.0154 7.54006L25.8658 8.51393L27.7147 9.48508L29.565 10.4548L31.414 11.4232L33.2643 12.3902L35.1132 13.3559L36.9635 14.3202L38.8125 15.2817L40.6627 16.2433Z"/>
</mask>
<path d="M40.6627 16.2433L40.6642 18.0511L40.6655 19.8549L40.6668 21.6531L40.6683 23.4472L40.6696 25.2373L40.671 27.0218L40.6724 28.8022L40.6737 30.5799L40.6752 31.167L40.6256 31.4002L40.605 31.4331L40.5293 31.4729L39.6117 31.3083L39.21 31.3041L38.646 31.4303L37.8178 31.4976L37.284 31.477L36.9126 31.7815L36.6223 32.1491L36.7599 33.0297L36.7283 33.3191L36.6168 33.6209L36.3651 33.8801L36.1133 34.0873L35.9633 34.2683L35.7777 34.6661L35.6387 34.8513L35.6511 35.1009L35.6071 35.3615L35.4558 35.4987L35.072 35.5975L34.8229 35.714L34.6234 35.9047L34.49 36.0419L34.5602 36.2243L34.6578 36.474L34.7128 36.8649L34.7514 37.0939L34.9412 37.2805L35.0568 37.4135L35.0967 37.5768L34.9866 37.7125L34.5161 37.9951L34.3277 38.1008L34.1117 38.2448L34.0292 38.2983L33.6853 38.5671L33.5119 38.8058L33.428 39.0033L33.4321 39.2776L33.6068 39.6864L33.798 40.0334L33.8709 40.2954L33.915 40.5821L33.8985 40.8537L33.7994 41.091L33.6274 41.3036L32.9795 41.7055L32.6617 42.1444L32.4058 42.6794L32.3426 42.9702L32.4113 43.1649L32.5475 43.3282L32.7387 43.4118L33.0194 43.4365L33.4843 43.3474L33.9177 43.2884L34.3772 43.4804L34.6165 43.9276L34.5244 44.254L34.6977 44.8466L34.8518 45.5612L34.8408 45.8013L34.9082 45.8918L35.1957 45.9384L35.2604 46.1058L35.1655 47.3581L35.2989 47.7079L35.4915 47.9575L35.7088 48.0879L35.929 48.2552L36.0418 48.3704L36.2949 48.3978L36.5796 48.6255L36.6567 48.9287L36.6375 49.2222L36.4724 49.8559L36.3376 50.2825L36.1725 50.2537L35.8368 50.1481L35.4269 50.0575L34.9233 49.9849L34.4446 50.159L33.9273 50.3826L33.765 50.5486L33.6205 50.6474L33.3922 50.6309L33.1831 50.6597L33.0703 50.8188L32.8805 50.9958L32.1348 51.3606L31.978 51.4937L31.8845 51.6254V51.7694L31.9601 52.0657L31.9588 52.4346L31.7923 52.7337L31.5996 52.9339L31.3782 53.0108L31.1952 53.0533L31.0742 53.1767L30.6848 53.8543L30.517 53.9791L30.1745 53.9586L29.1922 54.9722L29.0945 55.2713L28.7355 55.6951L28.2815 56.1656L27.8757 56.3933L27.8427 56.4811L27.7339 56.5702L27.4836 56.6717L26.6169 57.2451L25.5755 57.2218L25.1161 57.4467L24.6689 57.5455L24.0141 57.6566L23.8187 57.6456L22.9796 57.6922L21.996 57.6758L21.619 57.7567L21.2655 57.9735L21.0027 58.1641L20.9656 58.2285L21.0041 58.3081L20.9944 58.3712L21.6823 58.8389L21.8542 59.068L21.6809 59.2902L21.5984 59.3231L21.5887 59.3369L21.476 59.5124L21.0729 60.0392L20.4593 60.6619L20.1456 60.8402L20.0204 60.9568L19.8568 61.3697L19.7522 61.4273L19.3298 61.4808L18.4962 61.5261L17.342 61.6605L16.65 61.7057L16.2194 61.6673L15.6141 61.9527L15.3981 62.0253L15.2661 62.05L14.6663 62.3257L14.1683 62.7551L13.9908 62.836L13.2892 63.0184L13.0099 63.3133L12.882 63.338L12.4321 62.9485L12.1253 62.596L11.9754 62.2379L11.9576 62.1241L11.8722 62.1447L11.626 62.3038L11.4128 62.4835L11.315 62.8264L10.5901 63.0568L9.96966 63.2557L9.68762 63.5054L9.25293 63.6288L8.69851 63.5781L8.2665 63.4766L7.84416 63.4423L8.04643 63.1309L8.12485 62.8991L8.14408 62.6151L8.11385 62.4231L7.8607 62.3271L7.70116 62.1762L7.33793 61.2805L6.96512 60.3588L6.43958 59.4507L5.86735 58.8705L5.45323 58.5166L5.32116 58.4713L5.10797 58.3602L4.95935 58.2574L4.19996 57.6401L3.41312 56.9488L3.21085 56.6333L2.81738 56.1628L2.37715 55.6773L2.14885 55.4564L2.04288 55.0573L2.34558 54.6965L2.67019 54.2411L3.0692 53.938L3.58643 53.9174L4.43801 54.0422L5.35693 54.0861L6.26762 53.9915L6.50289 53.9256L6.73673 53.9311L7.22651 54.0367L8.07943 54.0134L8.51966 53.8296L8.04509 53.5155L7.53466 53.0176L7.05731 52.4717L6.76705 51.9765L6.50155 51.3387L6.25662 50.55L6.10666 49.5267L6.12874 48.9465L6.20573 48.5336L6.46166 47.8588L6.29239 47.4637L6.32958 47.1441L6.30481 46.6709L6.22228 46.4295L5.8907 45.6435L5.82327 45.5571L5.53031 45.0126L5.40092 44.1018L5.06943 43.4996L4.537 43.2088L4.23439 42.8536L4.12297 42.2281L3.91246 42.0635L3.07608 41.8454L2.37715 41.8399L1.86958 41.1335L1.2175 40.2241L0.610766 39.3792L0.222845 37.6837L0 36.7126L0.251729 36.4177L0.749729 35.725L1.38535 34.3972L2.81738 32.3411L3.55066 31.2863L5.013 29.7089L6.8097 27.7666L7.82216 26.6693L7.98589 24.6667L8.1592 22.5433L8.28993 20.9343L8.45224 19.0209L8.58986 17.4188L8.68885 16.2488L8.82916 14.5877L8.94889 14.2681L9.65462 12.9609L9.70962 12.7853L9.57897 12.5658L8.57197 11.452L8.25828 11.2038L8.07666 10.6235L8.33536 10.2985L7.12474 8.42204L6.82481 8.19161L6.69274 7.96251L6.67762 7.62235L6.65562 6.31925L6.3337 4.26862L5.91001 1.87097L7.33247 1.18648L8.41235 0.665238L9.79082 0L11.0674 0.68173L12.9178 1.66657L14.7681 2.64869L16.617 3.6308L18.4673 4.61154L20.3162 5.58955L22.1665 6.5648L24.0154 7.54006L25.8658 8.51393L27.7147 9.48508L29.565 10.4548L31.414 11.4232L33.2643 12.3902L35.1132 13.3559L36.9635 14.3202L38.8125 15.2817L40.6627 16.2433Z" fill="var(--fill-0, #71B219)" stroke="var(--stroke-0, white)" mask="url(#path-1-inside-1_0_30)"/>
</g>
</svg>
