<svg preserveAspectRatio="none" width="100%" height="100%" overflow="visible" style="display: block;" viewBox="0 0 73 19" fill="none" xmlns="http://www.w3.org/2000/svg"><g id="TF"><mask id="path-1-inside-1_0_29" fill="white"><path d="M1 1L0 1L0 1L0 0L0 0L0 0L1 0L1 1ZM68 16L68 16L68 16L69 15L69 15L69 16L69 16L69 16L69 16L68 16L69 17L69 17L70 17L70 17L70 16L71 16L71 16L72 16L72 16L72 16L72 16L73 16L73 16L73 16L73 17L73 17L72 17L72 18L72 18L72 18L72 18L72 17L71 17L71 17L70 17L70 18L70 18L70 18L70 18L70 18L70 18L70 18L71 19L71 19L71 18L72 18L72 18L72 19L72 19L72 19L72 19L71 19L71 19L70 19L70 19L70 19L70 19L70 19L69 19L69 19L68 19L68 18L68 18L67 19L67 19L66 19L66 19L66 19L66 19L66 18L66 18L66 18L66 18L66 17L66 17L66 17L66 16L66 16L66 16L66 16L66 16L66 16L66 15L66 15L66 14L67 14L67 13L67 13L67 13L67 13L67 14L67 14L67 14L68 14L67 15L67 15L67 15L67 16L68 16ZM68 16L68 16L68 15L68 15L68 15L68 15L68 15L68 14L68 15L68 15L68 15L68 16Z"/></mask><path d="M1 1L0 1L0 1L0 0L0 0L0 0L1 0L1 1ZM68 16L68 16L68 16L69 15L69 15L69 16L69 16L69 16L69 16L68 16L69 17L69 17L70 17L70 17L70 16L71 16L71 16L72 16L72 16L72 16L72 16L73 16L73 16L73 16L73 17L73 17L72 17L72 18L72 18L72 18L72 18L72 17L71 17L71 17L70 17L70 18L70 18L70 18L70 18L70 18L70 18L70 18L71 19L71 19L71 18L72 18L72 18L72 19L72 19L72 19L72 19L71 19L71 19L70 19L70 19L70 19L70 19L70 19L69 19L69 19L68 19L68 18L68 18L67 19L67 19L66 19L66 19L66 19L66 19L66 18L66 18L66 18L66 18L66 17L66 17L66 17L66 16L66 16L66 16L66 16L66 16L66 16L66 15L66 15L66 14L67 14L67 13L67 13L67 13L67 13L67 14L67 14L67 14L68 14L67 15L67 15L67 15L67 16L68 16ZM68 16L68 16L68 15L68 15L68 15L68 15L68 15L68 14L68 15L68 15L68 15L68 16Z" fill="var(--fill-0,#71B219)" stroke="var(--stroke-0,white)" mask="url(#path-1-inside-1_0_29)"/></g></svg>