<svg preserveAspectRatio="none" width="100%" height="100%" overflow="visible" style="display: block;" viewBox="0 0 72.9544 19.4201" fill="none" xmlns="http://www.w3.org/2000/svg">
<g id="TF">
<mask id="path-1-inside-1_0_29" fill="white">
<path d="M0.676847 0.626894L0.394807 0.676288L0.143078 0.56243L0 0.25928L0.317726 0L0.481459 0.178323L0.602538 0.377241L0.676847 0.626894ZM67.6635 15.877L67.9743 15.9099L68.1642 15.8564L69.0158 15.0842L69.2386 15.065L69.2166 15.6562L69.4353 15.9223L69.1588 15.9909L68.6333 15.9621L68.5136 16.3009L69.0433 16.7343L69.3074 16.7934L69.522 16.7892L69.9251 16.6905L70.247 16.5341L70.7464 16.172L71.0463 16.0307L71.6131 16.0251L71.9089 15.6822L72.0464 15.5767L72.378 15.5917L72.6793 15.7262L72.8594 16.0375L72.9544 16.4161L72.8814 16.7919L72.6806 17.1582L72.3133 17.3817L72.3972 17.6492L72.2996 17.785L72.1152 17.7932L71.9584 17.7315L71.7273 17.4174L71.4493 17.25L70.7836 17.261L70.4836 17.283L70.4313 17.5231L70.2731 17.7082L70.1081 17.8097L69.8838 17.7658L69.8426 17.8673L69.9622 18.1197L70.2539 18.4379L70.7574 18.6601L71.0532 18.7054L71.0931 18.2816L71.4508 18.2322L71.7658 18.3584L71.9955 18.6711L71.8084 18.774L71.6447 18.9399L71.6103 19.1539L71.2911 19.3872L71.0999 19.4132L70.4974 19.298L70.1384 19.036L70.0531 18.8494L69.8316 18.7795L69.5825 19.0195L69.3157 19.0716L68.7929 18.8714L68.31 18.5504L68.0088 18.4297L67.5396 18.3529L67.2797 19.0812L66.9206 19.3913L66.4556 19.4201L66.2327 19.3597L66.1089 19.073L66.1406 18.7671L66.2163 18.4736L66.362 18.1746L66.4529 17.8481L66.4143 17.5395L66.2465 17.3145L66.3346 16.9099L66.1695 16.5944L66.2273 16.3626L66.4955 16.2035L66.3813 16.0636L66.2383 16.0279L66.1351 15.8441L66.0553 15.6219L66.1598 15.2049L66.3152 14.8044L66.296 14.3531L66.5587 13.9265L66.7844 13.4492L66.9522 13.2599L67.1641 13.2311L67.2563 13.3642L67.3017 13.6234L67.2177 13.7921L67.4159 13.8689L67.4681 14.4217L67.3443 14.6494L67.325 14.8689L67.0677 15.3366L67.1421 15.7124L67.6635 15.877ZM68.0404 15.5808L67.8024 15.626L67.7281 15.4353L67.7364 15.183L67.6043 14.9827L67.5286 14.7605L67.5947 14.5507L67.9771 14.526L68.3719 14.5932L68.4724 14.9484L68.1876 15.434L68.0404 15.5808Z"/>
</mask>
<path d="M0.676847 0.626894L0.394807 0.676288L0.143078 0.56243L0 0.25928L0.317726 0L0.481459 0.178323L0.602538 0.377241L0.676847 0.626894ZM67.6635 15.877L67.9743 15.9099L68.1642 15.8564L69.0158 15.0842L69.2386 15.065L69.2166 15.6562L69.4353 15.9223L69.1588 15.9909L68.6333 15.9621L68.5136 16.3009L69.0433 16.7343L69.3074 16.7934L69.522 16.7892L69.9251 16.6905L70.247 16.5341L70.7464 16.172L71.0463 16.0307L71.6131 16.0251L71.9089 15.6822L72.0464 15.5767L72.378 15.5917L72.6793 15.7262L72.8594 16.0375L72.9544 16.4161L72.8814 16.7919L72.6806 17.1582L72.3133 17.3817L72.3972 17.6492L72.2996 17.785L72.1152 17.7932L71.9584 17.7315L71.7273 17.4174L71.4493 17.25L70.7836 17.261L70.4836 17.283L70.4313 17.5231L70.2731 17.7082L70.1081 17.8097L69.8838 17.7658L69.8426 17.8673L69.9622 18.1197L70.2539 18.4379L70.7574 18.6601L71.0532 18.7054L71.0931 18.2816L71.4508 18.2322L71.7658 18.3584L71.9955 18.6711L71.8084 18.774L71.6447 18.9399L71.6103 19.1539L71.2911 19.3872L71.0999 19.4132L70.4974 19.298L70.1384 19.036L70.0531 18.8494L69.8316 18.7795L69.5825 19.0195L69.3157 19.0716L68.7929 18.8714L68.31 18.5504L68.0088 18.4297L67.5396 18.3529L67.2797 19.0812L66.9206 19.3913L66.4556 19.4201L66.2327 19.3597L66.1089 19.073L66.1406 18.7671L66.2163 18.4736L66.362 18.1746L66.4529 17.8481L66.4143 17.5395L66.2465 17.3145L66.3346 16.9099L66.1695 16.5944L66.2273 16.3626L66.4955 16.2035L66.3813 16.0636L66.2383 16.0279L66.1351 15.8441L66.0553 15.6219L66.1598 15.2049L66.3152 14.8044L66.296 14.3531L66.5587 13.9265L66.7844 13.4492L66.9522 13.2599L67.1641 13.2311L67.2563 13.3642L67.3017 13.6234L67.2177 13.7921L67.4159 13.8689L67.4681 14.4217L67.3443 14.6494L67.325 14.8689L67.0677 15.3366L67.1421 15.7124L67.6635 15.877ZM68.0404 15.5808L67.8024 15.626L67.7281 15.4353L67.7364 15.183L67.6043 14.9827L67.5286 14.7605L67.5947 14.5507L67.9771 14.526L68.3719 14.5932L68.4724 14.9484L68.1876 15.434L68.0404 15.5808Z" fill="var(--fill-0, #71B219)" stroke="var(--stroke-0, white)" mask="url(#path-1-inside-1_0_29)"/>
</g>
</svg>
