<svg preserveAspectRatio="none" width="100%" height="100%" overflow="visible" style="display: block;" viewBox="0 0 7 19" fill="none" xmlns="http://www.w3.org/2000/svg"><g id="TG"><mask id="path-1-inside-1_0_86" fill="white"><path d="M4 0L4 1L4 1L3 2L3 3L3 3L3 3L4 3L5 4L6 4L6 4L6 5L6 6L6 6L6 7L6 7L6 8L6 8L6 9L7 10L7 11V12V13V14V16L6 16L6 16L6 17L6 17L6 17L6 17L7 18L7 18L7 19L7 19L7 19L5 19L5 19L5 19L5 19L4 19L4 19L4 19L4 19L4 18L4 18L3 18L3 18L3 18L3 18L3 18L3 17L2 17L2 16L2 16L2 16L2 16L3 16L3 16L3 16L3 15L3 15L3 14L2 14L2 14L2 14L2 14L3 13L3 12L3 11L3 11L3 11L3 11L3 10L2 10L2 10L2 9L2 9L2 9L2 9L2 9L2 8L2 8L2 7L2 7L2 7L2 6L2 6L2 6L2 6L1 7L1 6L1 6L1 6L1 6L1 6L2 6L2 6L1 6L1 6L1 6L2 6L2 6L2 6L2 5L2 5L2 5L2 3L2 3L2 3L2 3L1 3L1 3L1 2L0 2L0 2L0 2L0 2L0 1L0 1L0 0L0 0L0 0L1 0L2 0L2 0L2 1L2 1L3 0L4 0Z"/></mask><path d="M4 0L4 1L4 1L3 2L3 3L3 3L3 3L4 3L5 4L6 4L6 4L6 5L6 6L6 6L6 7L6 7L6 8L6 8L6 9L7 10L7 11V12V13V14V16L6 16L6 16L6 17L6 17L6 17L6 17L7 18L7 18L7 19L7 19L7 19L5 19L5 19L5 19L5 19L4 19L4 19L4 19L4 19L4 18L4 18L3 18L3 18L3 18L3 18L3 18L3 17L2 17L2 16L2 16L2 16L2 16L3 16L3 16L3 16L3 15L3 15L3 14L2 14L2 14L2 14L2 14L3 13L3 12L3 11L3 11L3 11L3 11L3 10L2 10L2 10L2 9L2 9L2 9L2 9L2 9L2 8L2 8L2 7L2 7L2 7L2 6L2 6L2 6L2 6L1 7L1 6L1 6L1 6L1 6L1 6L2 6L2 6L1 6L1 6L1 6L2 6L2 6L2 6L2 5L2 5L2 5L2 3L2 3L2 3L2 3L1 3L1 3L1 2L0 2L0 2L0 2L0 2L0 1L0 1L0 0L0 0L0 0L1 0L2 0L2 0L2 1L2 1L3 0L4 0Z" fill="var(--fill-0,#71B219)" stroke="var(--stroke-0,white)" mask="url(#path-1-inside-1_0_86)"/></g></svg>