<svg preserveAspectRatio="none" width="100%" height="100%" overflow="visible" style="display: block;" viewBox="0 0 7.21273 19.4488" fill="none" xmlns="http://www.w3.org/2000/svg">
<g id="TG">
<mask id="path-1-inside-1_0_86" fill="white">
<path d="M3.82581 0.477328L3.72673 0.897058L3.52177 1.41553L3.38969 1.58013L3.29616 2.83931L3.36081 2.94359L3.40758 2.97511L4.04866 3.40032L4.88919 3.95861L5.4835 4.35226L5.53304 4.48533L5.54266 5.31106L5.54954 6.02021L5.67196 6.42487L5.69812 6.81852L5.84808 7.1148L6.39558 7.68677L6.52627 8.02421L6.54143 9.10511L6.55104 9.92398L6.6212 11.0391V11.9691V13.1433V14.5204V15.9538L6.25939 15.9716L6.4575 16.4175L6.4905 16.8207L6.53727 16.9524L6.43962 17.1472L6.52077 17.4448L6.67762 17.5545L7.07931 18.1526L7.21273 18.6588L6.56893 18.8275L6.61297 18.9578L5.40924 19.2266L4.93323 19.4488L4.92362 19.2348L4.74889 19.1964L4.53566 19.1237L4.40219 19.0126L4.21789 18.7589L4.15185 18.56L3.87119 18.5284L3.5245 18.3062L3.19435 18.0511L3.07881 17.796L3.11181 17.6794L3.05954 17.5573L2.94673 17.512L2.64958 16.9359L2.46385 16.7041L2.37858 16.5176L2.40885 16.3735L2.36758 16.1788L2.42535 16.021L2.58631 15.9278L2.63581 15.8125L2.65096 15.5697L2.74039 15.0705L2.79954 14.5794L2.63031 14.445L2.42396 14.4066L2.31665 14.2653L2.27539 14.0349L2.2795 13.8346L2.68535 13.135L2.60142 11.522L2.66196 11.2764L2.8477 11.1064L3.0045 10.9102L2.99762 10.714L2.728 10.2326L2.21485 9.86228L1.95212 9.56323L1.81043 9.2944L1.787 9.15036L2.09792 8.93914L2.2355 8.79372L2.25339 8.62502L2.12681 8.31915L2.14881 7.77183L2.2685 7.36169L2.39096 6.83087L2.37858 6.67586L2.07731 6.35764L1.91358 6.31511L1.7815 6.33709L1.4665 6.54555L1.35231 6.56752L1.28077 6.50716L1.24912 6.42348L1.36054 6.29866L1.31927 6.14365L1.41285 6.00786L1.61231 5.94616L1.67146 5.87755L1.40181 5.81308L1.37019 5.71982L1.38946 5.63066L1.46785 5.61283L1.55177 5.61831L1.59854 5.55385L1.64119 5.1026L1.67285 4.94483L1.70723 4.63209L1.7485 3.4223L1.81043 3.29747L1.82004 3.20693L1.63019 3.14795L1.18308 2.82286L0.921691 2.57321L0.693346 2.31812L0.502115 2.14938L0.126578 1.89014L0.0164993 1.72417L0 1.55957L0.114193 1.22763L0.295769 0.875123L0.385192 0.368953L0.330153 0.234541L0.0839237 0L0.96296 0.179663L2.21762 0.482812L2.24373 0.536309L2.252 0.626852L2.46935 0.624089L2.83115 0.517095L3.82581 0.477328Z"/>
</mask>
<path d="M3.82581 0.477328L3.72673 0.897058L3.52177 1.41553L3.38969 1.58013L3.29616 2.83931L3.36081 2.94359L3.40758 2.97511L4.04866 3.40032L4.88919 3.95861L5.4835 4.35226L5.53304 4.48533L5.54266 5.31106L5.54954 6.02021L5.67196 6.42487L5.69812 6.81852L5.84808 7.1148L6.39558 7.68677L6.52627 8.02421L6.54143 9.10511L6.55104 9.92398L6.6212 11.0391V11.9691V13.1433V14.5204V15.9538L6.25939 15.9716L6.4575 16.4175L6.4905 16.8207L6.53727 16.9524L6.43962 17.1472L6.52077 17.4448L6.67762 17.5545L7.07931 18.1526L7.21273 18.6588L6.56893 18.8275L6.61297 18.9578L5.40924 19.2266L4.93323 19.4488L4.92362 19.2348L4.74889 19.1964L4.53566 19.1237L4.40219 19.0126L4.21789 18.7589L4.15185 18.56L3.87119 18.5284L3.5245 18.3062L3.19435 18.0511L3.07881 17.796L3.11181 17.6794L3.05954 17.5573L2.94673 17.512L2.64958 16.9359L2.46385 16.7041L2.37858 16.5176L2.40885 16.3735L2.36758 16.1788L2.42535 16.021L2.58631 15.9278L2.63581 15.8125L2.65096 15.5697L2.74039 15.0705L2.79954 14.5794L2.63031 14.445L2.42396 14.4066L2.31665 14.2653L2.27539 14.0349L2.2795 13.8346L2.68535 13.135L2.60142 11.522L2.66196 11.2764L2.8477 11.1064L3.0045 10.9102L2.99762 10.714L2.728 10.2326L2.21485 9.86228L1.95212 9.56323L1.81043 9.2944L1.787 9.15036L2.09792 8.93914L2.2355 8.79372L2.25339 8.62502L2.12681 8.31915L2.14881 7.77183L2.2685 7.36169L2.39096 6.83087L2.37858 6.67586L2.07731 6.35764L1.91358 6.31511L1.7815 6.33709L1.4665 6.54555L1.35231 6.56752L1.28077 6.50716L1.24912 6.42348L1.36054 6.29866L1.31927 6.14365L1.41285 6.00786L1.61231 5.94616L1.67146 5.87755L1.40181 5.81308L1.37019 5.71982L1.38946 5.63066L1.46785 5.61283L1.55177 5.61831L1.59854 5.55385L1.64119 5.1026L1.67285 4.94483L1.70723 4.63209L1.7485 3.4223L1.81043 3.29747L1.82004 3.20693L1.63019 3.14795L1.18308 2.82286L0.921691 2.57321L0.693346 2.31812L0.502115 2.14938L0.126578 1.89014L0.0164993 1.72417L0 1.55957L0.114193 1.22763L0.295769 0.875123L0.385192 0.368953L0.330153 0.234541L0.0839237 0L0.96296 0.179663L2.21762 0.482812L2.24373 0.536309L2.252 0.626852L2.46935 0.624089L2.83115 0.517095L3.82581 0.477328Z" fill="var(--fill-0, #71B219)" stroke="var(--stroke-0, white)" mask="url(#path-1-inside-1_0_86)"/>
</g>
</svg>
