<svg preserveAspectRatio="none" width="100%" height="100%" overflow="visible" style="display: block;" viewBox="0 0 31.9161 58.2478" fill="none" xmlns="http://www.w3.org/2000/svg">
<g id="TH">
<mask id="path-1-inside-1_0_90" fill="white">
<path d="M10.6066 0.456775L10.5777 0.696842L10.6726 0.747576L10.8061 0.635098L10.9753 0.36213L11.1611 0.208504L11.3619 0.174221L11.5751 0.360749L11.8007 0.76679L12.0319 0.997229L12.1405 1.02327L12.2189 1.20845L12.2313 1.38678L12.1213 1.7626L11.9356 2.19878L11.6701 2.73923L11.7567 3.19324L12.1185 3.56362L12.5491 3.78171L13.0059 3.72135L13.2494 3.61025L13.4488 3.43603L13.6332 3.35373L13.867 3.3318L14.5934 3.45934L14.8149 3.58555L14.8479 3.83654L14.7585 4.47989L14.8712 4.95173L15.0763 5.44828L15.101 5.90091L14.8465 6.64572L14.6346 7.35077L14.4063 7.69368L14.2288 7.91454L14.1765 8.06402L14.1917 8.20534L14.354 8.41656L14.5273 8.68953L14.57 8.95015L14.5507 9.26975L14.4324 9.70865L13.9922 10.6592L13.6427 11.5165L13.8257 11.688L14.1724 11.8128L14.4021 11.9349L14.6429 11.8567L15.1533 11.3506L15.5922 10.9747L16.1383 10.5989L16.1699 10.5659L16.6486 10.2889L16.8674 10.0337L16.9858 9.70865L17.1549 9.58383L17.3737 9.65654L17.6515 9.51526L17.9886 9.15861L18.2473 8.99402L18.4274 9.02148L18.7494 9.24229L19.2144 9.65654L19.6271 9.90343L19.9889 9.983L20.1663 10.1366L20.1567 10.3657L20.2378 10.5111L20.4071 10.5728L20.4828 10.5481L20.4634 10.437L20.6272 10.2738L20.9739 10.0598L21.326 9.93361L21.6837 9.8966L21.9162 9.72648L22.0689 9.28482L22.2904 8.94877L22.4885 8.79652L22.7334 8.71971L22.798 8.61272L22.6797 8.47554L22.6907 8.33565L22.8324 8.19433L23.1364 8.13401L23.6042 8.15456L24.1503 8.29722L24.7776 8.56332L25.1889 8.64972L25.3857 8.55374L25.7681 8.96522L26.3377 9.88425L26.8247 10.5783L27.2333 11.0474L27.6625 11.4068L28.1123 11.6578L28.4356 11.9994L28.73 12.6468L28.5099 13.5397L28.4508 14.312L28.4782 15.2571L28.7438 15.9813L29.2473 16.4847L29.5403 16.8907L29.6228 17.2007L30.0149 17.4668L30.7179 17.6877L31.0109 17.8879L30.8912 18.0676L30.8816 18.2761L30.9806 18.5134L31.2255 18.7109L31.6121 18.8659L31.8432 19.0305L31.9161 19.2033L31.9079 19.4845L31.8185 19.8727L31.6575 20.1704L31.4236 20.3775L31.3948 20.5421L31.3342 20.7917V21.3033L31.5006 21.6435L31.5515 22.0756L31.4608 22.4281L31.3727 23.1482L31.3617 23.4267L31.2778 23.6667L31.0742 23.8971L30.7619 24.1139L30.3822 24.3073L30.1497 24.3924L30.0947 24.4321L29.9282 24.6502L29.7274 24.8614H29.572L29.455 24.7544L29.3724 24.6159L29.3243 24.3128L28.9735 24.1633L28.5883 24.0686L27.8041 24.2181L27.1699 24.2991L26.4588 24.1962L25.7901 24.3251L25.5109 24.3443L25.1904 24.3237L24.8794 24.3265L24.5836 24.2799L24.0389 24.0947L23.8298 24.1098L23.3909 24.2634L22.9314 24.3704L22.4912 24.4445L21.8406 24.76L21.37 25.2167L21.2311 25.5391L20.9972 25.8641L20.6739 26.3785L20.2544 26.871L19.9627 27.0959L20.0439 27.2289L19.971 27.3881L19.5142 27.4594L19.1579 27.4882L19.0933 27.5678L19.1359 28.5581L19.2611 28.9326L19.4909 29.3838L19.6408 29.6321L19.7536 30.3646L19.7866 30.986L20.2887 31.3782L20.5722 31.6773L20.7744 31.9406L20.7042 32.108L20.5832 32.6086L20.7001 33.2574L21.4017 34.6565L21.4622 34.7553L21.3783 34.7662L21.2683 34.4974L20.9119 34.0434L20.8019 33.5592L20.3837 33.0256L20.1498 32.8144L20.0742 32.9913L19.9407 33.1806L19.5307 32.9063L19.1786 32.6196L18.8552 32.0641L18.814 32.193L18.7411 32.3096L18.3724 31.8734L17.9872 31.525L17.6405 31.4002L17.4273 31.285L17.2209 31.0998L16.789 30.9078L15.7132 31.1848L14.3444 30.9695L13.8175 31.1752L13.6015 31.0477L13.4681 30.8104L13.596 30.4044L13.6249 29.5539L13.7886 28.9559L13.7116 28.5005L13.7914 28.2865L13.8519 27.9943L13.6359 27.875L12.6688 27.6432L12.4652 27.4594L12.2065 27.6706L11.0454 27.7886L10.608 27.9655L10.2035 28.3057L10.099 28.7364L10.3328 29.0203L10.4828 29.5128L10.066 30.5882L9.99578 30.9078L10.1567 32.2218L10.0921 32.9419L9.86513 33.4248L9.50609 33.8582L9.35747 34.5921L9.07551 34.9322L8.69716 35.7086L8.44124 36.6756L8.2597 37.1228L8.15374 37.9458L7.3737 39.1926L7.19074 39.8963L6.91147 40.1624L7.0092 40.3722L7.02566 40.7234L6.92801 41.6602L6.89635 42.4366L7.01466 42.8522L7.38747 43.6766L7.29947 43.9153L7.25539 44.2554L7.57043 44.409L7.79604 44.4543L9.06997 44.0647L9.50055 44.1649L9.66285 44.5284L9.76747 44.8452L9.98343 46.5543L10.0949 46.8712L10.3521 47.173L10.6342 47.4939L10.7304 47.4363L10.7483 47.317L10.7676 47.1826L11.0193 47.5063L11.216 48.1098L11.8874 51.2989L12.0814 51.7036L12.2423 52.1301L11.8324 51.923L11.7223 51.2153L11.6054 50.9176L11.4609 50.8737L11.2326 50.8792L11.2174 50.753L11.3894 50.5226L11.3619 50.2455L11.1266 50.0178L10.7469 50.1989L10.7579 50.6954L10.9271 51.0754L11.571 51.9258L11.7718 52.2811L12.0277 52.3826L12.4006 52.3263L12.8462 52.6884L13.1971 53.0245L14.0679 53.5389L14.5947 53.484L15.1643 53.3564L15.5453 53.3893L15.9196 53.521L16.3694 53.9503L17.0834 55.0257L18.2499 55.9201L18.1234 56.1423L18.0725 56.4811L17.6131 56.9324L17.5387 57.193L17.3709 57.5235L17.0517 57.7005L16.7766 57.7334L16.6184 57.7019L16.5083 57.636L16.3212 57.3233L16.2264 57.2286L16.1465 57.2067L15.5591 57.422L14.991 57.6607L14.8864 57.8747L14.7351 58.1243L14.57 58.2231L14.4393 58.2478L14.3141 58.101L14.0967 57.9104L13.9289 57.7321L13.9716 57.444L14.2907 57.0201L14.332 56.7239L14.2921 56.2136L14.2054 55.9201L14.1133 55.9105L13.9564 55.8625L13.5134 55.9105L13.2919 55.5785L13.2053 55.2137L13.054 55.0834L12.904 55.0038L12.5725 55.13L12.318 55.0546L11.4747 54.7377L11.1514 54.2261L10.9781 54.211L10.8254 54.2672L10.7648 54.3838L10.6754 54.9723L10.6025 55.1519L9.6354 53.9668L8.96955 53.4785L9.06309 52.5938L8.8609 52.4223L8.60774 52.4059L8.41655 52.1603L8.58574 51.6336L8.32436 51.7337L7.96255 51.7146L7.66539 51.5691L7.44112 50.8394L7.29804 50.6172L6.98855 50.2345H6.57997L6.44378 50.0507L6.47678 49.5789L6.17828 49.2895L5.78616 49.0535L5.46432 48.915L5.13551 48.1537L4.87689 47.9671L4.65674 47.8149L4.34993 47.9178L4.2495 48.1921L4.04597 48.4569L3.81347 48.4239L3.6002 48.2731L3.34024 47.5117L3.29758 47.0454L3.35535 46.1785L3.67996 45.4008L3.8547 44.1553L4.13119 43.3721L4.32524 43.106L4.59074 42.0347L5.13408 40.6644L5.19605 40.3709L5.30604 40.0417L5.38858 39.7303L5.41612 39.2393L5.34593 38.9814V38.836L5.46012 38.6508L5.8467 38.3394L6.38189 37.8265L7.01743 37.105L7.66951 35.9966L7.99278 35.3533L8.12897 35.1256L8.27205 35.0543L8.49489 34.8335L8.64762 34.5893L8.65585 34.4659L8.30236 33.2602L8.06986 32.8665L7.95289 32.4015L7.88958 32.0654L7.80436 31.7568L7.84558 31.466L7.71762 31.285L7.42878 31.0559L7.12885 30.7143L6.95001 30.1561V29.8447L6.75882 29.5718L6.69416 29.2864L6.8097 29.0135L6.95966 28.7776L6.94178 27.7406L6.88124 27.4306L6.80693 26.8764L6.61162 26.4581L6.33513 25.9684L6.02143 25.5638L5.2015 24.8313L4.61685 24.3416L4.32793 23.8944L3.96066 23.3801L3.69785 23.0097L3.36635 22.542L3.19716 21.9042L3.10362 21.2238L3.15451 20.9989L3.3127 20.8507L3.52043 20.7314L3.68828 20.704L4.16151 20.3912L4.49032 20.4186L4.56731 20.3514L4.59897 20.2087L4.55631 19.5888L4.57143 18.7589L4.63197 18.0827L4.7035 17.6369L5.57574 17.1184L5.7587 16.8934L5.8467 16.6507V16.4367L5.77247 16.268L5.64174 16.1747L5.07774 16.6219L4.96766 16.5231L4.70905 15.7879L4.59762 15.5629L4.43666 15.2941L4.26327 14.9182L4.23582 14.2681L4.11062 13.9458L3.40624 13.2585L3.0912 12.8882L2.66062 12.3532L2.14473 11.7113L1.61785 11.1174L1.37024 10.7374L1.28358 10.651L1.25461 10.5042L1.41423 10.0955L1.33447 9.68395L1.07308 9.1353L0.960231 8.79514L0.997428 8.66483L0.870808 8.61406L0.577852 8.6429L0.297154 8.385L0.0261973 7.84183L0 7.7458L0.08808 7.74718L0.427889 7.84044L0.543426 7.82676L0.784155 7.70193L1.14873 7.57024L1.36469 7.52633L1.43623 7.46186L1.46654 7.33021L1.28081 6.07375L1.31247 5.81175L1.65773 5.26857L1.61919 4.71991L1.70727 3.93257L2.09242 3.3935L2.38135 3.14523L2.47212 2.75568L2.6042 2.67338L2.84358 2.70356L3.33747 2.99436L3.54797 3.00809L3.84781 2.99985L4.16973 2.97791L4.3197 2.95045L5.35012 2.66652L5.57708 2.63634L5.79447 2.672L5.95266 2.65831L6.11085 2.528L6.22362 2.29895L6.35301 1.56372L6.42724 1.43341L6.56074 1.32918L6.77947 1.25919L7.03532 1.26467L7.36958 1.40599L7.57874 1.41147L7.81536 1.35249L8.0162 1.25098L8.14962 1.12205L8.21016 0.967048L8.15651 0.669382L8.00378 0.296284L8.04643 0.251034L8.32713 0.33333L8.73982 0.425213L9.05486 0.40466L9.25982 0.340195L9.46066 0.163254L9.71382 0L9.96001 0.037046L10.1513 0.182467L10.6066 0.456775ZM19.5032 33.6621L19.5156 33.7553L19.3148 33.684L19.2446 33.7169L19.0203 33.6909L18.9103 33.1491L18.9268 33.0215L19.0864 33.0612L19.3148 33.3301L19.4317 33.5166L19.5032 33.6621ZM20.1966 34.8815L20.1333 35.2889L19.9132 35.1215L19.9654 34.9158L20.0521 34.8225L20.1966 34.8815ZM10.4209 42.5875L10.3838 42.6519L10.2338 42.5285L10.1279 42.3886L10.0715 42.2103L10.3026 42.2171L10.4168 42.3817L10.4209 42.5875ZM10.4071 43.0168L10.425 43.2363L10.3411 43.4996L9.98889 43.6546L9.8679 43.4434L9.89955 43.1183L9.95312 43.036L10.2985 43.0525L10.4071 43.0168ZM3.6002 45.0894L3.38147 45.1305L3.41035 44.9193L3.46812 44.7862L3.57408 44.7506L3.61808 44.9783L3.6002 45.0894ZM3.99232 49.5336L3.951 49.8175L3.79281 49.8134L3.63185 49.9958L3.5562 50.0205L3.42546 49.4417L3.57543 48.6297L3.65662 48.5145L3.76804 48.7298L4.09131 48.8258L3.951 49.2936L3.99232 49.5336ZM4.69662 49.4101L4.65128 49.4746L4.45455 48.7353L4.74482 48.9342L4.69662 49.4101ZM6.57585 50.7297L6.67628 51.1947L6.53454 51.1L6.41766 50.897L6.41901 50.5994L6.44789 50.5582L6.57585 50.7297ZM8.83201 54.8529L8.75905 54.8762L8.61463 54.5648L8.79759 54.1136L8.98055 54.6664L8.83201 54.8529Z"/>
</mask>
<path d="M10.6066 0.456775L10.5777 0.696842L10.6726 0.747576L10.8061 0.635098L10.9753 0.36213L11.1611 0.208504L11.3619 0.174221L11.5751 0.360749L11.8007 0.76679L12.0319 0.997229L12.1405 1.02327L12.2189 1.20845L12.2313 1.38678L12.1213 1.7626L11.9356 2.19878L11.6701 2.73923L11.7567 3.19324L12.1185 3.56362L12.5491 3.78171L13.0059 3.72135L13.2494 3.61025L13.4488 3.43603L13.6332 3.35373L13.867 3.3318L14.5934 3.45934L14.8149 3.58555L14.8479 3.83654L14.7585 4.47989L14.8712 4.95173L15.0763 5.44828L15.101 5.90091L14.8465 6.64572L14.6346 7.35077L14.4063 7.69368L14.2288 7.91454L14.1765 8.06402L14.1917 8.20534L14.354 8.41656L14.5273 8.68953L14.57 8.95015L14.5507 9.26975L14.4324 9.70865L13.9922 10.6592L13.6427 11.5165L13.8257 11.688L14.1724 11.8128L14.4021 11.9349L14.6429 11.8567L15.1533 11.3506L15.5922 10.9747L16.1383 10.5989L16.1699 10.5659L16.6486 10.2889L16.8674 10.0337L16.9858 9.70865L17.1549 9.58383L17.3737 9.65654L17.6515 9.51526L17.9886 9.15861L18.2473 8.99402L18.4274 9.02148L18.7494 9.24229L19.2144 9.65654L19.6271 9.90343L19.9889 9.983L20.1663 10.1366L20.1567 10.3657L20.2378 10.5111L20.4071 10.5728L20.4828 10.5481L20.4634 10.437L20.6272 10.2738L20.9739 10.0598L21.326 9.93361L21.6837 9.8966L21.9162 9.72648L22.0689 9.28482L22.2904 8.94877L22.4885 8.79652L22.7334 8.71971L22.798 8.61272L22.6797 8.47554L22.6907 8.33565L22.8324 8.19433L23.1364 8.13401L23.6042 8.15456L24.1503 8.29722L24.7776 8.56332L25.1889 8.64972L25.3857 8.55374L25.7681 8.96522L26.3377 9.88425L26.8247 10.5783L27.2333 11.0474L27.6625 11.4068L28.1123 11.6578L28.4356 11.9994L28.73 12.6468L28.5099 13.5397L28.4508 14.312L28.4782 15.2571L28.7438 15.9813L29.2473 16.4847L29.5403 16.8907L29.6228 17.2007L30.0149 17.4668L30.7179 17.6877L31.0109 17.8879L30.8912 18.0676L30.8816 18.2761L30.9806 18.5134L31.2255 18.7109L31.6121 18.8659L31.8432 19.0305L31.9161 19.2033L31.9079 19.4845L31.8185 19.8727L31.6575 20.1704L31.4236 20.3775L31.3948 20.5421L31.3342 20.7917V21.3033L31.5006 21.6435L31.5515 22.0756L31.4608 22.4281L31.3727 23.1482L31.3617 23.4267L31.2778 23.6667L31.0742 23.8971L30.7619 24.1139L30.3822 24.3073L30.1497 24.3924L30.0947 24.4321L29.9282 24.6502L29.7274 24.8614H29.572L29.455 24.7544L29.3724 24.6159L29.3243 24.3128L28.9735 24.1633L28.5883 24.0686L27.8041 24.2181L27.1699 24.2991L26.4588 24.1962L25.7901 24.3251L25.5109 24.3443L25.1904 24.3237L24.8794 24.3265L24.5836 24.2799L24.0389 24.0947L23.8298 24.1098L23.3909 24.2634L22.9314 24.3704L22.4912 24.4445L21.8406 24.76L21.37 25.2167L21.2311 25.5391L20.9972 25.8641L20.6739 26.3785L20.2544 26.871L19.9627 27.0959L20.0439 27.2289L19.971 27.3881L19.5142 27.4594L19.1579 27.4882L19.0933 27.5678L19.1359 28.5581L19.2611 28.9326L19.4909 29.3838L19.6408 29.6321L19.7536 30.3646L19.7866 30.986L20.2887 31.3782L20.5722 31.6773L20.7744 31.9406L20.7042 32.108L20.5832 32.6086L20.7001 33.2574L21.4017 34.6565L21.4622 34.7553L21.3783 34.7662L21.2683 34.4974L20.9119 34.0434L20.8019 33.5592L20.3837 33.0256L20.1498 32.8144L20.0742 32.9913L19.9407 33.1806L19.5307 32.9063L19.1786 32.6196L18.8552 32.0641L18.814 32.193L18.7411 32.3096L18.3724 31.8734L17.9872 31.525L17.6405 31.4002L17.4273 31.285L17.2209 31.0998L16.789 30.9078L15.7132 31.1848L14.3444 30.9695L13.8175 31.1752L13.6015 31.0477L13.4681 30.8104L13.596 30.4044L13.6249 29.5539L13.7886 28.9559L13.7116 28.5005L13.7914 28.2865L13.8519 27.9943L13.6359 27.875L12.6688 27.6432L12.4652 27.4594L12.2065 27.6706L11.0454 27.7886L10.608 27.9655L10.2035 28.3057L10.099 28.7364L10.3328 29.0203L10.4828 29.5128L10.066 30.5882L9.99578 30.9078L10.1567 32.2218L10.0921 32.9419L9.86513 33.4248L9.50609 33.8582L9.35747 34.5921L9.07551 34.9322L8.69716 35.7086L8.44124 36.6756L8.2597 37.1228L8.15374 37.9458L7.3737 39.1926L7.19074 39.8963L6.91147 40.1624L7.0092 40.3722L7.02566 40.7234L6.92801 41.6602L6.89635 42.4366L7.01466 42.8522L7.38747 43.6766L7.29947 43.9153L7.25539 44.2554L7.57043 44.409L7.79604 44.4543L9.06997 44.0647L9.50055 44.1649L9.66285 44.5284L9.76747 44.8452L9.98343 46.5543L10.0949 46.8712L10.3521 47.173L10.6342 47.4939L10.7304 47.4363L10.7483 47.317L10.7676 47.1826L11.0193 47.5063L11.216 48.1098L11.8874 51.2989L12.0814 51.7036L12.2423 52.1301L11.8324 51.923L11.7223 51.2153L11.6054 50.9176L11.4609 50.8737L11.2326 50.8792L11.2174 50.753L11.3894 50.5226L11.3619 50.2455L11.1266 50.0178L10.7469 50.1989L10.7579 50.6954L10.9271 51.0754L11.571 51.9258L11.7718 52.2811L12.0277 52.3826L12.4006 52.3263L12.8462 52.6884L13.1971 53.0245L14.0679 53.5389L14.5947 53.484L15.1643 53.3564L15.5453 53.3893L15.9196 53.521L16.3694 53.9503L17.0834 55.0257L18.2499 55.9201L18.1234 56.1423L18.0725 56.4811L17.6131 56.9324L17.5387 57.193L17.3709 57.5235L17.0517 57.7005L16.7766 57.7334L16.6184 57.7019L16.5083 57.636L16.3212 57.3233L16.2264 57.2286L16.1465 57.2067L15.5591 57.422L14.991 57.6607L14.8864 57.8747L14.7351 58.1243L14.57 58.2231L14.4393 58.2478L14.3141 58.101L14.0967 57.9104L13.9289 57.7321L13.9716 57.444L14.2907 57.0201L14.332 56.7239L14.2921 56.2136L14.2054 55.9201L14.1133 55.9105L13.9564 55.8625L13.5134 55.9105L13.2919 55.5785L13.2053 55.2137L13.054 55.0834L12.904 55.0038L12.5725 55.13L12.318 55.0546L11.4747 54.7377L11.1514 54.2261L10.9781 54.211L10.8254 54.2672L10.7648 54.3838L10.6754 54.9723L10.6025 55.1519L9.6354 53.9668L8.96955 53.4785L9.06309 52.5938L8.8609 52.4223L8.60774 52.4059L8.41655 52.1603L8.58574 51.6336L8.32436 51.7337L7.96255 51.7146L7.66539 51.5691L7.44112 50.8394L7.29804 50.6172L6.98855 50.2345H6.57997L6.44378 50.0507L6.47678 49.5789L6.17828 49.2895L5.78616 49.0535L5.46432 48.915L5.13551 48.1537L4.87689 47.9671L4.65674 47.8149L4.34993 47.9178L4.2495 48.1921L4.04597 48.4569L3.81347 48.4239L3.6002 48.2731L3.34024 47.5117L3.29758 47.0454L3.35535 46.1785L3.67996 45.4008L3.8547 44.1553L4.13119 43.3721L4.32524 43.106L4.59074 42.0347L5.13408 40.6644L5.19605 40.3709L5.30604 40.0417L5.38858 39.7303L5.41612 39.2393L5.34593 38.9814V38.836L5.46012 38.6508L5.8467 38.3394L6.38189 37.8265L7.01743 37.105L7.66951 35.9966L7.99278 35.3533L8.12897 35.1256L8.27205 35.0543L8.49489 34.8335L8.64762 34.5893L8.65585 34.4659L8.30236 33.2602L8.06986 32.8665L7.95289 32.4015L7.88958 32.0654L7.80436 31.7568L7.84558 31.466L7.71762 31.285L7.42878 31.0559L7.12885 30.7143L6.95001 30.1561V29.8447L6.75882 29.5718L6.69416 29.2864L6.8097 29.0135L6.95966 28.7776L6.94178 27.7406L6.88124 27.4306L6.80693 26.8764L6.61162 26.4581L6.33513 25.9684L6.02143 25.5638L5.2015 24.8313L4.61685 24.3416L4.32793 23.8944L3.96066 23.3801L3.69785 23.0097L3.36635 22.542L3.19716 21.9042L3.10362 21.2238L3.15451 20.9989L3.3127 20.8507L3.52043 20.7314L3.68828 20.704L4.16151 20.3912L4.49032 20.4186L4.56731 20.3514L4.59897 20.2087L4.55631 19.5888L4.57143 18.7589L4.63197 18.0827L4.7035 17.6369L5.57574 17.1184L5.7587 16.8934L5.8467 16.6507V16.4367L5.77247 16.268L5.64174 16.1747L5.07774 16.6219L4.96766 16.5231L4.70905 15.7879L4.59762 15.5629L4.43666 15.2941L4.26327 14.9182L4.23582 14.2681L4.11062 13.9458L3.40624 13.2585L3.0912 12.8882L2.66062 12.3532L2.14473 11.7113L1.61785 11.1174L1.37024 10.7374L1.28358 10.651L1.25461 10.5042L1.41423 10.0955L1.33447 9.68395L1.07308 9.1353L0.960231 8.79514L0.997428 8.66483L0.870808 8.61406L0.577852 8.6429L0.297154 8.385L0.0261973 7.84183L0 7.7458L0.08808 7.74718L0.427889 7.84044L0.543426 7.82676L0.784155 7.70193L1.14873 7.57024L1.36469 7.52633L1.43623 7.46186L1.46654 7.33021L1.28081 6.07375L1.31247 5.81175L1.65773 5.26857L1.61919 4.71991L1.70727 3.93257L2.09242 3.3935L2.38135 3.14523L2.47212 2.75568L2.6042 2.67338L2.84358 2.70356L3.33747 2.99436L3.54797 3.00809L3.84781 2.99985L4.16973 2.97791L4.3197 2.95045L5.35012 2.66652L5.57708 2.63634L5.79447 2.672L5.95266 2.65831L6.11085 2.528L6.22362 2.29895L6.35301 1.56372L6.42724 1.43341L6.56074 1.32918L6.77947 1.25919L7.03532 1.26467L7.36958 1.40599L7.57874 1.41147L7.81536 1.35249L8.0162 1.25098L8.14962 1.12205L8.21016 0.967048L8.15651 0.669382L8.00378 0.296284L8.04643 0.251034L8.32713 0.33333L8.73982 0.425213L9.05486 0.40466L9.25982 0.340195L9.46066 0.163254L9.71382 0L9.96001 0.037046L10.1513 0.182467L10.6066 0.456775ZM19.5032 33.6621L19.5156 33.7553L19.3148 33.684L19.2446 33.7169L19.0203 33.6909L18.9103 33.1491L18.9268 33.0215L19.0864 33.0612L19.3148 33.3301L19.4317 33.5166L19.5032 33.6621ZM20.1966 34.8815L20.1333 35.2889L19.9132 35.1215L19.9654 34.9158L20.0521 34.8225L20.1966 34.8815ZM10.4209 42.5875L10.3838 42.6519L10.2338 42.5285L10.1279 42.3886L10.0715 42.2103L10.3026 42.2171L10.4168 42.3817L10.4209 42.5875ZM10.4071 43.0168L10.425 43.2363L10.3411 43.4996L9.98889 43.6546L9.8679 43.4434L9.89955 43.1183L9.95312 43.036L10.2985 43.0525L10.4071 43.0168ZM3.6002 45.0894L3.38147 45.1305L3.41035 44.9193L3.46812 44.7862L3.57408 44.7506L3.61808 44.9783L3.6002 45.0894ZM3.99232 49.5336L3.951 49.8175L3.79281 49.8134L3.63185 49.9958L3.5562 50.0205L3.42546 49.4417L3.57543 48.6297L3.65662 48.5145L3.76804 48.7298L4.09131 48.8258L3.951 49.2936L3.99232 49.5336ZM4.69662 49.4101L4.65128 49.4746L4.45455 48.7353L4.74482 48.9342L4.69662 49.4101ZM6.57585 50.7297L6.67628 51.1947L6.53454 51.1L6.41766 50.897L6.41901 50.5994L6.44789 50.5582L6.57585 50.7297ZM8.83201 54.8529L8.75905 54.8762L8.61463 54.5648L8.79759 54.1136L8.98055 54.6664L8.83201 54.8529Z" fill="var(--fill-0, #71B219)" stroke="var(--stroke-0, white)" mask="url(#path-1-inside-1_0_90)"/>
</g>
</svg>
