<svg preserveAspectRatio="none" width="100%" height="100%" overflow="visible" style="display: block;" viewBox="0 0 32 58" fill="none" xmlns="http://www.w3.org/2000/svg"><g id="TH"><mask id="path-1-inside-1_0_90" fill="white"><path d="M11 0L11 1L11 1L11 1L11 0L11 0L11 0L12 0L12 1L12 1L12 1L12 1L12 1L12 2L12 2L12 3L12 3L12 4L12 4L13 4L13 4L13 3L14 3L14 3L15 4L15 4L15 4L15 4L15 5L15 5L15 6L15 7L15 7L14 8L14 8L14 8L14 8L14 8L14 9L15 9L15 9L14 10L14 11L14 12L14 12L14 12L14 12L15 12L15 11L16 11L16 11L16 11L17 10L17 10L17 10L17 10L17 10L18 10L18 9L18 9L18 9L19 9L19 10L20 10L20 10L20 10L20 10L20 10L20 11L20 10L20 10L21 10L21 10L21 10L22 10L22 10L22 9L22 9L22 9L23 9L23 9L23 8L23 8L23 8L23 8L24 8L24 8L25 9L25 9L25 9L26 9L26 10L27 11L27 11L28 11L28 12L28 12L29 13L28 14L28 14L28 15L29 16L29 16L30 17L30 17L30 18L31 18L31 18L31 18L31 18L31 18L31 19L32 19L32 19L32 19L32 20L32 20L32 20L31 20L31 20L31 21V21L32 22L32 22L32 22L31 23L31 23L31 24L31 24L31 24L30 24L30 24L30 24L30 25L30 25H30L30 25L29 25L29 24L29 24L29 24L28 24L27 24L26 24L26 24L26 24L25 24L25 24L25 24L24 24L24 24L23 24L23 24L22 24L22 25L21 25L21 26L21 26L21 26L20 27L20 27L20 27L20 27L20 28L19 28L19 28L19 29L19 29L20 29L20 30L20 30L20 31L20 31L21 32L21 32L21 32L21 33L21 33L21 35L22 35L21 35L21 34L21 34L21 34L20 33L20 33L20 33L20 33L20 33L19 33L19 32L19 32L19 32L18 32L18 32L18 31L17 31L17 31L17 31L16 31L14 31L14 31L14 31L14 31L14 30L14 30L14 29L14 28L14 28L14 28L14 28L13 28L12 28L12 28L11 28L11 28L10 28L10 29L10 29L10 30L10 31L10 31L10 32L10 33L10 33L10 34L9 35L9 35L9 36L8 37L8 37L8 38L7 39L7 40L7 40L7 40L7 41L7 42L7 42L7 43L7 44L7 44L7 44L8 44L8 44L9 44L10 44L10 44L10 45L10 47L10 47L10 47L11 48L11 47L11 47L11 47L11 48L11 48L12 51L12 52L12 52L12 52L12 51L12 51L12 51L11 51L11 51L11 50L11 50L11 50L11 50L11 51L11 51L12 52L12 52L12 52L12 52L13 53L13 53L14 54L15 54L15 53L16 53L16 54L16 54L17 55L18 56L18 56L18 56L18 57L18 57L17 58L17 58L17 58L17 58L16 58L16 57L16 57L16 57L16 57L15 58L15 58L15 58L15 58L14 58L14 58L14 58L14 58L14 57L14 57L14 57L14 56L14 56L14 56L14 56L14 56L13 56L13 55L13 55L13 55L13 55L12 55L12 55L11 54L11 54L11 54L11 54L11 55L11 55L10 54L9 54L9 53L9 52L9 52L8 52L9 52L8 52L8 52L8 52L7 51L7 51L7 50H7L6 50L6 50L6 49L6 49L6 49L5 48L5 48L5 48L4 48L4 48L4 48L4 48L4 48L3 48L3 47L3 46L4 45L4 44L4 43L4 43L5 42L5 41L5 40L5 40L5 40L5 39L5 39V39L6 39L6 38L6 38L7 37L8 36L8 35L8 35L8 35L8 35L9 35L9 34L8 33L8 33L8 32L8 32L8 32L8 32L8 31L7 31L7 31L7 30V30L7 30L7 29L7 29L7 29L7 28L7 27L7 27L7 26L6 26L6 26L5 25L5 24L4 24L4 23L4 23L3 22L3 22L3 21L3 21L3 21L4 21L4 21L4 20L4 20L5 20L5 20L5 20L5 19L5 18L5 18L6 17L6 17L6 17V16L6 16L6 16L5 17L5 16L5 16L5 16L4 15L4 15L4 14L4 14L3 13L3 13L3 12L2 12L2 11L1 11L1 11L1 10L1 10L1 10L1 9L1 9L1 9L1 9L1 9L0 8L0 8L0 8L0 8L0 8L0 8L1 8L1 8L1 8L1 8L2 7L1 6L1 6L2 5L2 5L2 4L2 3L2 3L2 3L3 3L3 3L3 3L4 3L4 3L4 3L4 3L5 3L6 3L6 3L6 3L6 2L6 2L6 2L6 1L7 1L7 1L7 1L7 1L8 1L8 1L8 1L8 1L8 1L8 1L8 0L8 0L8 0L9 0L9 0L9 0L10 0L10 0L10 0L10 0L11 0ZM20 34L20 34L19 34L19 34L19 34L19 33L19 33L19 33L19 33L19 34L20 34ZM20 35L20 35L20 35L20 35L20 35L20 35ZM10 43L10 43L10 42L10 42L10 42L10 42L10 42L10 43ZM10 43L10 43L10 44L10 44L10 43L10 43L10 43L10 43L10 43ZM4 45L3 45L3 45L4 45L4 45L4 45L4 45ZM4 50L4 50L4 50L4 50L4 50L3 49L4 49L4 48L4 49L4 49L4 49L4 50ZM5 49L5 50L4 49L5 49L5 49ZM7 51L7 51L6 51L6 51L6 51L6 51L7 51ZM9 55L9 55L9 55L9 54L9 55L9 55Z"/></mask><path d="M11 0L11 1L11 1L11 1L11 0L11 0L11 0L12 0L12 1L12 1L12 1L12 1L12 1L12 2L12 2L12 3L12 3L12 4L12 4L13 4L13 4L13 3L14 3L14 3L15 4L15 4L15 4L15 4L15 5L15 5L15 6L15 7L15 7L14 8L14 8L14 8L14 8L14 8L14 9L15 9L15 9L14 10L14 11L14 12L14 12L14 12L14 12L15 12L15 11L16 11L16 11L16 11L17 10L17 10L17 10L17 10L17 10L18 10L18 9L18 9L18 9L19 9L19 10L20 10L20 10L20 10L20 10L20 10L20 11L20 10L20 10L21 10L21 10L21 10L22 10L22 10L22 9L22 9L22 9L23 9L23 9L23 8L23 8L23 8L23 8L24 8L24 8L25 9L25 9L25 9L26 9L26 10L27 11L27 11L28 11L28 12L28 12L29 13L28 14L28 14L28 15L29 16L29 16L30 17L30 17L30 18L31 18L31 18L31 18L31 18L31 18L31 19L32 19L32 19L32 19L32 20L32 20L32 20L31 20L31 20L31 21V21L32 22L32 22L32 22L31 23L31 23L31 24L31 24L31 24L30 24L30 24L30 24L30 25L30 25H30L30 25L29 25L29 24L29 24L29 24L28 24L27 24L26 24L26 24L26 24L25 24L25 24L25 24L24 24L24 24L23 24L23 24L22 24L22 25L21 25L21 26L21 26L21 26L20 27L20 27L20 27L20 27L20 28L19 28L19 28L19 29L19 29L20 29L20 30L20 30L20 31L20 31L21 32L21 32L21 32L21 33L21 33L21 35L22 35L21 35L21 34L21 34L21 34L20 33L20 33L20 33L20 33L20 33L19 33L19 32L19 32L19 32L18 32L18 32L18 31L17 31L17 31L17 31L16 31L14 31L14 31L14 31L14 31L14 30L14 30L14 29L14 28L14 28L14 28L14 28L13 28L12 28L12 28L11 28L11 28L10 28L10 29L10 29L10 30L10 31L10 31L10 32L10 33L10 33L10 34L9 35L9 35L9 36L8 37L8 37L8 38L7 39L7 40L7 40L7 40L7 41L7 42L7 42L7 43L7 44L7 44L7 44L8 44L8 44L9 44L10 44L10 44L10 45L10 47L10 47L10 47L11 48L11 47L11 47L11 47L11 48L11 48L12 51L12 52L12 52L12 52L12 51L12 51L12 51L11 51L11 51L11 50L11 50L11 50L11 50L11 51L11 51L12 52L12 52L12 52L12 52L13 53L13 53L14 54L15 54L15 53L16 53L16 54L16 54L17 55L18 56L18 56L18 56L18 57L18 57L17 58L17 58L17 58L17 58L16 58L16 57L16 57L16 57L16 57L15 58L15 58L15 58L15 58L14 58L14 58L14 58L14 58L14 57L14 57L14 57L14 56L14 56L14 56L14 56L14 56L13 56L13 55L13 55L13 55L13 55L12 55L12 55L11 54L11 54L11 54L11 54L11 55L11 55L10 54L9 54L9 53L9 52L9 52L8 52L9 52L8 52L8 52L8 52L7 51L7 51L7 50H7L6 50L6 50L6 49L6 49L6 49L5 48L5 48L5 48L4 48L4 48L4 48L4 48L4 48L3 48L3 47L3 46L4 45L4 44L4 43L4 43L5 42L5 41L5 40L5 40L5 40L5 39L5 39V39L6 39L6 38L6 38L7 37L8 36L8 35L8 35L8 35L8 35L9 35L9 34L8 33L8 33L8 32L8 32L8 32L8 32L8 31L7 31L7 31L7 30V30L7 30L7 29L7 29L7 29L7 28L7 27L7 27L7 26L6 26L6 26L5 25L5 24L4 24L4 23L4 23L3 22L3 22L3 21L3 21L3 21L4 21L4 21L4 20L4 20L5 20L5 20L5 20L5 19L5 18L5 18L6 17L6 17L6 17V16L6 16L6 16L5 17L5 16L5 16L5 16L4 15L4 15L4 14L4 14L3 13L3 13L3 12L2 12L2 11L1 11L1 11L1 10L1 10L1 10L1 9L1 9L1 9L1 9L1 9L0 8L0 8L0 8L0 8L0 8L0 8L1 8L1 8L1 8L1 8L2 7L1 6L1 6L2 5L2 5L2 4L2 3L2 3L2 3L3 3L3 3L3 3L4 3L4 3L4 3L4 3L5 3L6 3L6 3L6 3L6 2L6 2L6 2L6 1L7 1L7 1L7 1L7 1L8 1L8 1L8 1L8 1L8 1L8 1L8 0L8 0L8 0L9 0L9 0L9 0L10 0L10 0L10 0L10 0L11 0ZM20 34L20 34L19 34L19 34L19 34L19 33L19 33L19 33L19 33L19 34L20 34ZM20 35L20 35L20 35L20 35L20 35L20 35ZM10 43L10 43L10 42L10 42L10 42L10 42L10 42L10 43ZM10 43L10 43L10 44L10 44L10 43L10 43L10 43L10 43L10 43ZM4 45L3 45L3 45L4 45L4 45L4 45L4 45ZM4 50L4 50L4 50L4 50L4 50L3 49L4 49L4 48L4 49L4 49L4 49L4 50ZM5 49L5 50L4 49L5 49L5 49ZM7 51L7 51L6 51L6 51L6 51L6 51L7 51ZM9 55L9 55L9 55L9 54L9 55L9 55Z" fill="var(--fill-0,#71B219)" stroke="var(--stroke-0,white)" mask="url(#path-1-inside-1_0_90)"/></g></svg>