<svg preserveAspectRatio="none" width="100%" height="100%" overflow="visible" style="display: block;" viewBox="0 0 29.9888 21.4323" fill="none" xmlns="http://www.w3.org/2000/svg">
<g id="TJ">
<mask id="path-1-inside-1_0_28" fill="white">
<path d="M13.9234 4.02445L13.9358 4.11633L13.8794 4.28231L13.0773 4.56491L12.7128 4.80355L12.6344 5.22742L12.5381 5.34949L12.3757 5.44961L12.2148 5.47293L11.9685 4.97501L11.6879 4.87216L11.2848 4.69655L10.502 4.3564L10.0976 4.20826L9.32036 4.43045L8.41235 4.73498L8.2707 4.92017L8.17439 5.11905L8.18397 5.26991L8.25005 5.47155L8.20462 5.62517L8.03409 5.67457L7.77682 5.488L7.55254 5.37967L7.44246 5.6348L7.31047 6.08743L7.24993 6.41662L7.44801 6.89123L7.51543 7.59217L7.87858 7.55513L8.15508 7.55651L8.67785 7.34938L8.94066 7.3439L9.34647 7.4344L10.0577 7.45223L10.619 7.41523L10.7552 7.4303L10.8886 7.29723L11.0358 7.3439L11.1734 7.50435L11.7415 7.30958L12.1639 7.28216L12.4226 7.33976L12.5752 7.3974L12.849 7.861L13.0581 8.14769L13.3139 8.23958L14.1077 8.15452L14.3402 7.7499L14.5439 7.64977L14.8712 7.61959L15.1409 7.5414L15.3555 7.37542L15.6485 7.23004L15.9044 7.20124L16.031 7.30824L16.086 7.44951L16.042 7.63194L16.0323 7.82261L16.1974 7.95016L16.6844 7.98034L16.9141 8.09968L16.9279 8.32464L16.8908 8.67714L17.0944 8.8198L17.2003 8.83215L17.9142 8.45905L18.1152 8.45356L18.2747 8.65931L18.5182 8.9062L18.8374 9.16958L18.9144 9.12843L19.0575 8.84173L19.3299 8.529L19.8416 8.42615L20.1236 8.32874L20.4194 8.28483L21.3164 8.41103L21.6135 8.42749L22.2312 8.40279L22.7168 8.33971L23.1075 8.1518L23.3056 8.00089L23.6262 7.91311L24.032 7.92822L24.2479 7.97209L24.2673 8.22999L24.2164 8.71967L24.1544 9.05982L24.475 9.67571L24.6799 9.97199L24.8808 10.1819L24.9179 10.3479L24.8767 10.4823L24.6276 10.6139L24.5382 10.7538L24.497 10.9116L24.5782 11.094L24.7213 11.6756L24.9056 12.1269L25.1656 12.3436L25.5549 12.4863L25.7681 12.4561L25.9208 12.1186L26.1767 11.8608L26.3927 11.8786L26.7407 11.8676L27.6542 12.1598L28.5456 12.6015L28.8043 12.8456L28.8951 13.12L28.6488 13.7537L28.6598 14.1569L28.7163 14.5876L28.9198 14.9059L29.1069 15.4518L29.1427 15.9031L29.2238 16.0375L29.2899 16.1952L29.1908 16.6081L29.1207 17.0237L29.2046 17.1623L29.477 17.3666L29.9062 17.7494L29.9888 18.0648L29.836 18.2651L29.5636 18.5092L29.2143 18.7191L29.1111 18.8069L29.0492 18.7575L28.8758 18.5449L28.4906 18.202L28.2168 18.0209L27.6941 18.0785L27.3873 18.0155L27.0172 17.903L26.6719 17.9194L26.4546 18.1265L26.3143 18.3337L25.969 18.3968L25.4723 18.5559L24.7019 18.8041L24.3305 18.7671L24.2301 18.6601L24.314 18.5175L24.5767 18.3323L24.6414 18.1087L24.5905 17.9016L24.3442 17.8453L24.2507 17.8124L24.1421 17.7699L23.6661 17.6465L23.2864 17.6917L22.6246 17.951L21.4058 18.6313L20.8707 19.0881L20.4854 19.778L19.3326 20.0002L18.5402 20.3953L17.7231 21.0372L17.1824 21.3829L16.9197 21.4323L16.6569 21.3705L16.3941 21.1991L16.1369 20.6614L15.9086 19.8466L15.7586 19.3062L15.8439 18.6121L15.9401 17.8207L16.0379 17.0141L16.1961 16.08L16.3281 15.7467L16.335 15.5245L16.2181 15.412L15.9704 15.4175L15.5921 15.5423L15.3238 15.5643L15.1643 15.4833L15.1807 15.0485L15.3734 14.2571L15.0776 13.5904L14.2907 13.0473L13.6221 12.858L13.0704 13.024L12.6069 13.4547L12.2327 14.1501L11.8434 14.7179L11.4402 15.1583L11.1514 15.3709L11.0592 15.4532L11.0014 15.6397L11.2146 16.2254L11.2009 16.7151L10.9588 17.1115L10.6933 17.2994L10.403 17.2816L10.1719 17.1897L10.0013 17.0237L9.53909 16.9785L8.78516 17.0539L8.26927 17.2514L7.99143 17.5724L7.91024 17.9949L8.0272 18.5175L7.96943 18.918L7.73416 19.1964L7.54154 19.3556L7.39158 19.3967L7.0642 19.1567L6.56208 18.6354L6.21673 18.3529L6.02831 18.3104L5.92646 18.3392L5.81093 18.394L5.74493 18.4612L5.68851 18.6162L5.52754 18.678L5.30058 18.6286L5.09285 18.6752L4.96766 18.8384L4.6182 19.036L4.00189 19.2568L3.66485 19.4927L3.60842 19.7437L3.51766 19.8562L3.32781 19.8151L2.77204 20.1593L2.34692 20.0524L1.86958 19.6093L1.60542 19.2445L1.57788 19.0908L1.72785 18.7411L1.79116 17.5737L1.98235 17.1691L2.55054 16.4421L2.84635 15.8866L3.18062 15.434L3.42135 15.2831L3.64419 14.9264L3.82581 14.5177L3.87669 14.2598L3.86024 14.0582L3.79416 13.9279L3.47912 13.6508L3.06508 13.2187L2.84492 12.7757L2.72527 12.2105L2.69362 11.8155L3.08154 10.7278L3.01966 10.5453L2.90823 10.3766L2.67985 10.2697L2.35381 10.2244L2.02911 10.2738L1.61508 10.2779L1.32892 10.2162L1.26016 10.1476L1.22439 9.65101L1.15142 9.54268L1.029 9.44803L0.193961 9.21893L0.0302276 9.12018L0 8.99398L0.295811 7.88569L0.423691 7.80202L0.548884 7.62097L0.745615 7.42754L1.42658 7.1107L2.15851 7.24787L2.80916 7.39463L3.45846 7.47421L3.68273 7.52767L4.05277 7.57158L4.30181 7.53319L4.471 7.40288L4.77639 7.04347L4.86992 6.50306L4.98 6.02573L5.16574 5.98869L5.35281 6.03942L5.44089 5.94339L5.478 5.81174L5.51512 5.69927L5.5922 5.67457L5.72705 5.79801L5.80404 5.76511L5.86735 5.68143L5.84804 5.58265L5.69673 5.41533L5.56054 5.15333L5.57431 5.06279L5.61974 4.96814L6.02 4.87898L6.20296 4.86253L6.26627 4.76927L6.24293 4.62112L6.09154 4.53745L5.54408 4.58274L4.98412 4.57311L4.91669 4.48261L4.94835 4.38244L5.03366 4.30429L6.18928 4.10403L6.80147 4.17398L7.25682 4.27959L7.43566 4.22747L7.22373 3.7748L7.51266 3.73227L7.54977 3.5773L7.17151 2.37161L7.37924 2.26462L7.58697 2.02732L7.56908 1.57603L7.75339 1.35655L7.97212 1.20569L8.29682 1.35794L8.80027 1.80374L8.96266 1.89014L9.12497 1.91484L9.35881 1.77628L10.2558 1.336L10.7593 1.08773L11.3618 0.726981L11.465 0.587043L11.6714 0.0370041L11.7842 0L11.9369 0.0589806L12.4651 0.628191L12.7706 0.993084V1.11791L12.6839 1.21117L12.7004 1.30172L13.1324 1.49921V1.58837L13.0347 1.75983L12.9824 1.85448L12.9288 1.89424L12.351 2.39079L11.7099 2.94221L11.6879 3.01354L11.659 3.15071L11.6659 3.29061L11.769 3.40585L12.0455 3.48676L12.2918 3.59099L12.417 3.87907L12.5601 4.14518L12.754 4.21098L13.7046 4.04228L13.9234 4.02445ZM12.7444 0.502026L12.6289 0.512993L12.4211 0.272968L12.3482 0.104231L12.4336 0.0534969L12.6124 0.170077L12.732 0.3772L12.7444 0.502026ZM12.9342 6.09568L12.5876 6.28769L12.3854 6.26714L12.2285 6.08057L12.1144 5.90639L12.0896 5.8076L12.1474 5.80898L12.4142 5.88856L12.7885 5.94339L12.9206 5.99141L12.9342 6.09568Z"/>
</mask>
<path d="M13.9234 4.02445L13.9358 4.11633L13.8794 4.28231L13.0773 4.56491L12.7128 4.80355L12.6344 5.22742L12.5381 5.34949L12.3757 5.44961L12.2148 5.47293L11.9685 4.97501L11.6879 4.87216L11.2848 4.69655L10.502 4.3564L10.0976 4.20826L9.32036 4.43045L8.41235 4.73498L8.2707 4.92017L8.17439 5.11905L8.18397 5.26991L8.25005 5.47155L8.20462 5.62517L8.03409 5.67457L7.77682 5.488L7.55254 5.37967L7.44246 5.6348L7.31047 6.08743L7.24993 6.41662L7.44801 6.89123L7.51543 7.59217L7.87858 7.55513L8.15508 7.55651L8.67785 7.34938L8.94066 7.3439L9.34647 7.4344L10.0577 7.45223L10.619 7.41523L10.7552 7.4303L10.8886 7.29723L11.0358 7.3439L11.1734 7.50435L11.7415 7.30958L12.1639 7.28216L12.4226 7.33976L12.5752 7.3974L12.849 7.861L13.0581 8.14769L13.3139 8.23958L14.1077 8.15452L14.3402 7.7499L14.5439 7.64977L14.8712 7.61959L15.1409 7.5414L15.3555 7.37542L15.6485 7.23004L15.9044 7.20124L16.031 7.30824L16.086 7.44951L16.042 7.63194L16.0323 7.82261L16.1974 7.95016L16.6844 7.98034L16.9141 8.09968L16.9279 8.32464L16.8908 8.67714L17.0944 8.8198L17.2003 8.83215L17.9142 8.45905L18.1152 8.45356L18.2747 8.65931L18.5182 8.9062L18.8374 9.16958L18.9144 9.12843L19.0575 8.84173L19.3299 8.529L19.8416 8.42615L20.1236 8.32874L20.4194 8.28483L21.3164 8.41103L21.6135 8.42749L22.2312 8.40279L22.7168 8.33971L23.1075 8.1518L23.3056 8.00089L23.6262 7.91311L24.032 7.92822L24.2479 7.97209L24.2673 8.22999L24.2164 8.71967L24.1544 9.05982L24.475 9.67571L24.6799 9.97199L24.8808 10.1819L24.9179 10.3479L24.8767 10.4823L24.6276 10.6139L24.5382 10.7538L24.497 10.9116L24.5782 11.094L24.7213 11.6756L24.9056 12.1269L25.1656 12.3436L25.5549 12.4863L25.7681 12.4561L25.9208 12.1186L26.1767 11.8608L26.3927 11.8786L26.7407 11.8676L27.6542 12.1598L28.5456 12.6015L28.8043 12.8456L28.8951 13.12L28.6488 13.7537L28.6598 14.1569L28.7163 14.5876L28.9198 14.9059L29.1069 15.4518L29.1427 15.9031L29.2238 16.0375L29.2899 16.1952L29.1908 16.6081L29.1207 17.0237L29.2046 17.1623L29.477 17.3666L29.9062 17.7494L29.9888 18.0648L29.836 18.2651L29.5636 18.5092L29.2143 18.7191L29.1111 18.8069L29.0492 18.7575L28.8758 18.5449L28.4906 18.202L28.2168 18.0209L27.6941 18.0785L27.3873 18.0155L27.0172 17.903L26.6719 17.9194L26.4546 18.1265L26.3143 18.3337L25.969 18.3968L25.4723 18.5559L24.7019 18.8041L24.3305 18.7671L24.2301 18.6601L24.314 18.5175L24.5767 18.3323L24.6414 18.1087L24.5905 17.9016L24.3442 17.8453L24.2507 17.8124L24.1421 17.7699L23.6661 17.6465L23.2864 17.6917L22.6246 17.951L21.4058 18.6313L20.8707 19.0881L20.4854 19.778L19.3326 20.0002L18.5402 20.3953L17.7231 21.0372L17.1824 21.3829L16.9197 21.4323L16.6569 21.3705L16.3941 21.1991L16.1369 20.6614L15.9086 19.8466L15.7586 19.3062L15.8439 18.6121L15.9401 17.8207L16.0379 17.0141L16.1961 16.08L16.3281 15.7467L16.335 15.5245L16.2181 15.412L15.9704 15.4175L15.5921 15.5423L15.3238 15.5643L15.1643 15.4833L15.1807 15.0485L15.3734 14.2571L15.0776 13.5904L14.2907 13.0473L13.6221 12.858L13.0704 13.024L12.6069 13.4547L12.2327 14.1501L11.8434 14.7179L11.4402 15.1583L11.1514 15.3709L11.0592 15.4532L11.0014 15.6397L11.2146 16.2254L11.2009 16.7151L10.9588 17.1115L10.6933 17.2994L10.403 17.2816L10.1719 17.1897L10.0013 17.0237L9.53909 16.9785L8.78516 17.0539L8.26927 17.2514L7.99143 17.5724L7.91024 17.9949L8.0272 18.5175L7.96943 18.918L7.73416 19.1964L7.54154 19.3556L7.39158 19.3967L7.0642 19.1567L6.56208 18.6354L6.21673 18.3529L6.02831 18.3104L5.92646 18.3392L5.81093 18.394L5.74493 18.4612L5.68851 18.6162L5.52754 18.678L5.30058 18.6286L5.09285 18.6752L4.96766 18.8384L4.6182 19.036L4.00189 19.2568L3.66485 19.4927L3.60842 19.7437L3.51766 19.8562L3.32781 19.8151L2.77204 20.1593L2.34692 20.0524L1.86958 19.6093L1.60542 19.2445L1.57788 19.0908L1.72785 18.7411L1.79116 17.5737L1.98235 17.1691L2.55054 16.4421L2.84635 15.8866L3.18062 15.434L3.42135 15.2831L3.64419 14.9264L3.82581 14.5177L3.87669 14.2598L3.86024 14.0582L3.79416 13.9279L3.47912 13.6508L3.06508 13.2187L2.84492 12.7757L2.72527 12.2105L2.69362 11.8155L3.08154 10.7278L3.01966 10.5453L2.90823 10.3766L2.67985 10.2697L2.35381 10.2244L2.02911 10.2738L1.61508 10.2779L1.32892 10.2162L1.26016 10.1476L1.22439 9.65101L1.15142 9.54268L1.029 9.44803L0.193961 9.21893L0.0302276 9.12018L0 8.99398L0.295811 7.88569L0.423691 7.80202L0.548884 7.62097L0.745615 7.42754L1.42658 7.1107L2.15851 7.24787L2.80916 7.39463L3.45846 7.47421L3.68273 7.52767L4.05277 7.57158L4.30181 7.53319L4.471 7.40288L4.77639 7.04347L4.86992 6.50306L4.98 6.02573L5.16574 5.98869L5.35281 6.03942L5.44089 5.94339L5.478 5.81174L5.51512 5.69927L5.5922 5.67457L5.72705 5.79801L5.80404 5.76511L5.86735 5.68143L5.84804 5.58265L5.69673 5.41533L5.56054 5.15333L5.57431 5.06279L5.61974 4.96814L6.02 4.87898L6.20296 4.86253L6.26627 4.76927L6.24293 4.62112L6.09154 4.53745L5.54408 4.58274L4.98412 4.57311L4.91669 4.48261L4.94835 4.38244L5.03366 4.30429L6.18928 4.10403L6.80147 4.17398L7.25682 4.27959L7.43566 4.22747L7.22373 3.7748L7.51266 3.73227L7.54977 3.5773L7.17151 2.37161L7.37924 2.26462L7.58697 2.02732L7.56908 1.57603L7.75339 1.35655L7.97212 1.20569L8.29682 1.35794L8.80027 1.80374L8.96266 1.89014L9.12497 1.91484L9.35881 1.77628L10.2558 1.336L10.7593 1.08773L11.3618 0.726981L11.465 0.587043L11.6714 0.0370041L11.7842 0L11.9369 0.0589806L12.4651 0.628191L12.7706 0.993084V1.11791L12.6839 1.21117L12.7004 1.30172L13.1324 1.49921V1.58837L13.0347 1.75983L12.9824 1.85448L12.9288 1.89424L12.351 2.39079L11.7099 2.94221L11.6879 3.01354L11.659 3.15071L11.6659 3.29061L11.769 3.40585L12.0455 3.48676L12.2918 3.59099L12.417 3.87907L12.5601 4.14518L12.754 4.21098L13.7046 4.04228L13.9234 4.02445ZM12.7444 0.502026L12.6289 0.512993L12.4211 0.272968L12.3482 0.104231L12.4336 0.0534969L12.6124 0.170077L12.732 0.3772L12.7444 0.502026ZM12.9342 6.09568L12.5876 6.28769L12.3854 6.26714L12.2285 6.08057L12.1144 5.90639L12.0896 5.8076L12.1474 5.80898L12.4142 5.88856L12.7885 5.94339L12.9206 5.99141L12.9342 6.09568Z" fill="var(--fill-0, #71B219)" stroke="var(--stroke-0, white)" mask="url(#path-1-inside-1_0_28)"/>
</g>
</svg>
