<svg preserveAspectRatio="none" width="100%" height="100%" overflow="visible" style="display: block;" viewBox="0 0 30 21" fill="none" xmlns="http://www.w3.org/2000/svg"><g id="TJ"><mask id="path-1-inside-1_0_28" fill="white"><path d="M14 4L14 4L14 4L13 5L13 5L13 5L12 5L12 5L12 6L12 5L12 5L11 5L10 4L10 4L9 4L8 5L8 5L8 5L8 5L8 6L8 6L8 6L8 6L8 5L7 6L7 6L7 6L7 7L8 8L8 8L8 8L9 7L9 7L9 7L10 8L11 7L11 7L11 7L11 7L11 8L12 7L12 7L12 7L13 7L13 8L13 8L13 8L14 8L14 8L14 8L15 8L15 8L15 7L16 7L16 7L16 7L16 7L16 8L16 8L16 8L17 8L17 8L17 8L17 9L17 9L17 9L18 8L18 8L18 9L18 9L19 9L19 9L19 9L19 8L20 8L20 8L20 8L21 8L22 8L22 8L23 8L23 8L23 8L24 8L24 8L24 8L24 8L24 9L24 9L24 10L25 10L25 10L25 10L25 10L25 11L24 11L24 11L25 11L25 12L25 12L25 12L26 12L26 12L26 12L26 12L26 12L27 12L28 12L28 13L29 13L29 13L29 14L29 14L29 15L29 15L29 16L29 16L29 16L29 16L29 17L29 17L29 17L30 17L30 18L30 18L30 18L30 18L29 19L29 19L29 19L29 18L28 18L28 18L28 18L27 18L27 18L27 18L26 18L26 18L26 18L26 19L25 19L24 19L24 19L24 18L25 18L25 18L25 18L24 18L24 18L24 18L24 18L23 18L23 18L21 19L21 19L20 20L19 20L18 20L18 21L17 21L17 21L17 21L16 21L16 21L16 20L16 19L16 19L16 18L16 17L16 16L16 16L16 16L16 15L16 15L16 16L15 16L15 16L15 15L15 14L15 14L14 13L14 13L13 13L13 14L12 14L12 15L11 15L11 15L11 16L11 16L11 16L11 17L11 17L11 17L10 17L10 17L10 17L10 17L9 17L8 17L8 18L8 18L8 18L8 19L8 19L8 19L7 19L7 19L7 19L6 18L6 18L6 18L6 18L6 18L6 19L6 19L5 19L5 19L5 19L5 19L4 19L4 20L4 20L4 20L3 20L3 20L2 20L2 20L2 19L2 19L2 19L2 18L2 17L3 16L3 16L3 15L3 15L4 15L4 14L4 14L4 14L4 14L4 14L3 13L3 13L3 12L3 12L3 11L3 10L3 10L3 10L2 10L2 10L2 10L1 10L1 10L1 10L1 10L1 9L0 9L0 9L0 9L0 8L0 8L0 8L1 7L1 7L2 7L3 7L4 8L4 8L4 8L4 8L4 7L5 7L5 6L5 6L5 6L5 6L5 6L6 6L6 6L6 6L6 6L6 6L6 6L6 6L6 5L6 5L6 5L6 5L6 5L6 5L6 5L6 5L6 4L6 5L5 5L5 4L5 4L5 4L6 4L7 4L7 4L7 4L7 4L8 4L8 4L7 2L7 2L8 2L8 2L8 1L8 1L8 1L9 2L9 2L9 2L9 2L10 1L11 1L11 1L12 1L12 0L12 0L12 0L12 1L13 1V1L13 1L13 1L13 2V2L13 2L13 2L13 2L12 2L12 3L12 3L12 3L12 3L12 3L12 4L12 4L12 4L13 4L13 4L14 4L14 4ZM13 0L13 0L12 0L12 0L12 0L13 0L13 0L13 0ZM13 6L13 6L12 6L12 6L12 6L12 6L12 6L12 6L13 6L13 6L13 6Z"/></mask><path d="M14 4L14 4L14 4L13 5L13 5L13 5L12 5L12 5L12 6L12 5L12 5L11 5L10 4L10 4L9 4L8 5L8 5L8 5L8 5L8 6L8 6L8 6L8 6L8 5L7 6L7 6L7 6L7 7L8 8L8 8L8 8L9 7L9 7L9 7L10 8L11 7L11 7L11 7L11 7L11 8L12 7L12 7L12 7L13 7L13 8L13 8L13 8L14 8L14 8L14 8L15 8L15 8L15 7L16 7L16 7L16 7L16 7L16 8L16 8L16 8L17 8L17 8L17 8L17 9L17 9L17 9L18 8L18 8L18 9L18 9L19 9L19 9L19 9L19 8L20 8L20 8L20 8L21 8L22 8L22 8L23 8L23 8L23 8L24 8L24 8L24 8L24 8L24 9L24 9L24 10L25 10L25 10L25 10L25 10L25 11L24 11L24 11L25 11L25 12L25 12L25 12L26 12L26 12L26 12L26 12L26 12L27 12L28 12L28 13L29 13L29 13L29 14L29 14L29 15L29 15L29 16L29 16L29 16L29 16L29 17L29 17L29 17L30 17L30 18L30 18L30 18L30 18L29 19L29 19L29 19L29 18L28 18L28 18L28 18L27 18L27 18L27 18L26 18L26 18L26 18L26 19L25 19L24 19L24 19L24 18L25 18L25 18L25 18L24 18L24 18L24 18L24 18L23 18L23 18L21 19L21 19L20 20L19 20L18 20L18 21L17 21L17 21L17 21L16 21L16 21L16 20L16 19L16 19L16 18L16 17L16 16L16 16L16 16L16 15L16 15L16 16L15 16L15 16L15 15L15 14L15 14L14 13L14 13L13 13L13 14L12 14L12 15L11 15L11 15L11 16L11 16L11 16L11 17L11 17L11 17L10 17L10 17L10 17L10 17L9 17L8 17L8 18L8 18L8 18L8 19L8 19L8 19L7 19L7 19L7 19L6 18L6 18L6 18L6 18L6 18L6 19L6 19L5 19L5 19L5 19L5 19L4 19L4 20L4 20L4 20L3 20L3 20L2 20L2 20L2 19L2 19L2 19L2 18L2 17L3 16L3 16L3 15L3 15L4 15L4 14L4 14L4 14L4 14L4 14L3 13L3 13L3 12L3 12L3 11L3 10L3 10L3 10L2 10L2 10L2 10L1 10L1 10L1 10L1 10L1 9L0 9L0 9L0 9L0 8L0 8L0 8L1 7L1 7L2 7L3 7L4 8L4 8L4 8L4 8L4 7L5 7L5 6L5 6L5 6L5 6L5 6L6 6L6 6L6 6L6 6L6 6L6 6L6 6L6 5L6 5L6 5L6 5L6 5L6 5L6 5L6 5L6 4L6 5L5 5L5 4L5 4L5 4L6 4L7 4L7 4L7 4L7 4L8 4L8 4L7 2L7 2L8 2L8 2L8 1L8 1L8 1L9 2L9 2L9 2L9 2L10 1L11 1L11 1L12 1L12 0L12 0L12 0L12 1L13 1V1L13 1L13 1L13 2V2L13 2L13 2L13 2L12 2L12 3L12 3L12 3L12 3L12 3L12 4L12 4L12 4L13 4L13 4L14 4L14 4ZM13 0L13 0L12 0L12 0L12 0L13 0L13 0L13 0ZM13 6L13 6L12 6L12 6L12 6L12 6L12 6L12 6L13 6L13 6L13 6Z" fill="var(--fill-0,#71B219)" stroke="var(--stroke-0,white)" mask="url(#path-1-inside-1_0_28)"/></g></svg>