<svg preserveAspectRatio="none" width="100%" height="100%" overflow="visible" style="display: block;" viewBox="0 0 5 3" fill="none" xmlns="http://www.w3.org/2000/svg"><g id="TK"><mask id="path-1-inside-1_0_27" fill="white"><path d="M0 0L0 0L0 0L0 0L0 0V0L0 0L0 0L0 0H0ZM5 3L5 3L5 3L5 3L5 3L5 3L5 3L5 3L5 3Z"/></mask><path d="M0 0L0 0L0 0L0 0L0 0V0L0 0L0 0L0 0H0ZM5 3L5 3L5 3L5 3L5 3L5 3L5 3L5 3L5 3Z" fill="var(--fill-0,#71B219)"/><path d="M0 0L0 1L0 0V0ZM0 0L0 0L0 1L0 1L0 0ZM0 0L0 0L0 0L0 0L0 0ZM0 0L0 0L0 0L0 0L0 0ZM0 0H0V0L0 0L0 0ZM0 0L0 0L0 -1V0H0ZM0 0L0 0L0 0L0 0L0 0ZM0 0L0 0L0 0L0 0L0 0ZM0 0L0 0L0 1H0V0ZM5 3L5 4L6 3L6 3L5 3ZM5 3L5 3L5 4L5 4L5 3ZM5 3L5 3L5 3L5 3L5 3ZM5 3L4 3L5 3L5 3L5 3ZM5 3L5 3L4 3L4 3L5 3ZM5 3L5 3L5 2L5 3L5 3ZM5 3L5 3L5 3L5 3L5 3ZM5 3L6 3L6 3L6 3L5 3ZM0 0L0 0L0 0L0 0L0 1L0 1L0 0ZM0 0L0 0L0 0L0 0L0 0L0 0L0 0ZM0 0L0 0L0 0L0 0L0 0L0 0L0 0ZM0 0L0 0L0 0L0 0L0 0L0 0L0 0ZM0 0H0V0H0H0V0H0ZM0 0L0 0L0 0L0 0L0 0L0 0L0 0ZM0 0L0 0L0 0L0 0L0 0L0 0L0 0ZM0 0L0 0L0 0L0 0L1 0L0 0L0 0ZM0 0V1H0V0V0H0V0ZM5 3L5 3L5 3L5 3L5 4L5 4L5 3ZM5 3L6 3L5 3L5 3L5 3L5 3L5 3ZM5 3L5 3L5 3L5 3L5 3L5 4L5 3ZM5 3L6 3L6 3L5 3L4 3L4 3L5 3ZM5 3L5 4L5 4L5 3L5 3L5 3L5 3ZM5 3L5 3L5 3L5 3L5 3L5 3L5 3ZM5 3L5 3L5 3L5 3L6 3L5 3L5 3ZM5 3L5 3L5 3L5 3L6 3L6 3L5 3Z" fill="var(--stroke-0,white)" mask="url(#path-1-inside-1_0_27)"/></g></svg>