<svg preserveAspectRatio="none" width="100%" height="100%" overflow="visible" style="display: block;" viewBox="0 0 5.06808 3.14385" fill="none" xmlns="http://www.w3.org/2000/svg">
<g id="TK">
<mask id="path-1-inside-1_0_27" fill="white">
<path d="M0.0770805 0.133073L0.0591958 0.141277L0.0413111 0.097408L0.0178847 0.0493947L0 0.00548365V0L0.0371968 0.037046L0.0619666 0.0809152L0.0756531 0.133073H0.0770805ZM5.06808 3.13288L5.05431 3.14385L5.03643 3.12053L5.00889 3.09035L4.991 3.04648L5.00477 3.04372L5.03366 3.06841L5.05431 3.0986L5.06808 3.13288Z"/>
</mask>
<path d="M0.0770805 0.133073L0.0591958 0.141277L0.0413111 0.097408L0.0178847 0.0493947L0 0.00548365V0L0.0371968 0.037046L0.0619666 0.0809152L0.0756531 0.133073H0.0770805ZM5.06808 3.13288L5.05431 3.14385L5.03643 3.12053L5.00889 3.09035L4.991 3.04648L5.00477 3.04372L5.03366 3.06841L5.05431 3.0986L5.06808 3.13288Z" fill="var(--fill-0, #71B219)"/>
<path d="M0.0770805 0.133073L0.285563 0.587534L0.0770805 -0.366927V0.133073ZM0.0591958 0.141277L-0.403806 0.330035L-0.206754 0.813383L0.267678 0.595738L0.0591958 0.141277ZM0.0413111 0.097408L0.504313 -0.0913495L0.498004 -0.106825L0.490676 -0.121844L0.0413111 0.097408ZM0.0178847 0.0493947L-0.44518 0.237998L-0.438845 0.253552L-0.43148 0.268646L0.0178847 0.0493947ZM0 0.00548365H-0.5V0.103402L-0.463065 0.194087L0 0.00548365ZM0 0L0.352835 -0.354271L-0.5 -1.20365V0H0ZM0.0371968 0.037046L0.472588 -0.208789L0.438768 -0.268685L0.390031 -0.317225L0.0371968 0.037046ZM0.0619667 0.0809152L0.545593 -0.0459911L0.529171 -0.108576L0.497358 -0.16492L0.0619667 0.0809152ZM0.0756531 0.133073L-0.407974 0.259979L-0.310072 0.633073H0.0756531V0.133073ZM5.06808 3.13288L5.37958 3.52399L5.67083 3.29203L5.53205 2.94652L5.06808 3.13288ZM5.05431 3.14385L4.65758 3.44816L4.9675 3.85219L5.36581 3.53496L5.05431 3.14385ZM5.03643 3.12053L5.43316 2.81622L5.42016 2.79927L5.40577 2.7835L5.03643 3.12053ZM5.00889 3.09035L4.54589 3.27911L4.57951 3.36159L4.63955 3.42738L5.00889 3.09035ZM4.991 3.04648L4.89265 2.55625L4.29969 2.67521L4.528 3.23524L4.991 3.04648ZM5.00477 3.04372L5.32971 2.6637L5.14487 2.50565L4.90642 2.55349L5.00477 3.04372ZM5.03366 3.06841L5.44628 2.78602L5.4089 2.7314L5.35859 2.68839L5.03366 3.06841ZM5.05431 3.0986L5.51828 2.91223L5.49787 2.86141L5.46693 2.8162L5.05431 3.0986ZM0.0770805 0.133073L-0.131402 -0.321389L-0.149287 -0.313184L0.0591958 0.141277L0.267678 0.595738L0.285563 0.587534L0.0770805 0.133073ZM0.0591958 0.141277L0.522197 -0.0474804L0.504313 -0.0913495L0.0413111 0.097408L-0.421691 0.286166L-0.403806 0.330035L0.0591958 0.141277ZM0.0413111 0.097408L0.490676 -0.121844L0.467249 -0.169857L0.0178847 0.0493947L-0.43148 0.268646L-0.408054 0.31666L0.0413111 0.097408ZM0.0178847 0.0493947L0.480949 -0.139209L0.463065 -0.18312L0 0.00548365L-0.463065 0.194087L-0.44518 0.237998L0.0178847 0.0493947ZM0 0.00548365H0.5V0H0H-0.5V0.00548365H0ZM0 0L-0.352835 0.354271L-0.315638 0.391317L0.0371968 0.037046L0.390031 -0.317225L0.352835 -0.354271L0 0ZM0.0371968 0.037046L-0.398194 0.282881L-0.373424 0.32675L0.0619667 0.0809152L0.497358 -0.16492L0.472588 -0.208789L0.0371968 0.037046ZM0.0619667 0.0809152L-0.42166 0.207822L-0.407974 0.259979L0.0756531 0.133073L0.55928 0.00616632L0.545593 -0.0459911L0.0619667 0.0809152ZM0.0756531 0.133073V0.633073H0.0770805V0.133073V-0.366927H0.0756531V0.133073ZM5.06808 3.13288L4.75658 2.74177L4.74281 2.75273L5.05431 3.14385L5.36581 3.53496L5.37958 3.52399L5.06808 3.13288ZM5.05431 3.14385L5.45104 2.83953L5.43316 2.81622L5.03643 3.12053L4.6397 3.42484L4.65758 3.44816L5.05431 3.14385ZM5.03643 3.12053L5.40577 2.7835L5.37823 2.75332L5.00889 3.09035L4.63955 3.42738L4.66709 3.45756L5.03643 3.12053ZM5.00889 3.09035L5.47189 2.90159L5.454 2.85772L4.991 3.04648L4.528 3.23524L4.54589 3.27911L5.00889 3.09035ZM4.991 3.04648L5.08936 3.53671L5.10313 3.53395L5.00477 3.04372L4.90642 2.55349L4.89265 2.55625L4.991 3.04648ZM5.00477 3.04372L4.67984 3.42374L4.70872 3.44844L5.03366 3.06841L5.35859 2.68839L5.32971 2.6637L5.00477 3.04372ZM5.03366 3.06841L4.62104 3.35081L4.64169 3.38099L5.05431 3.0986L5.46693 2.8162L5.44628 2.78602L5.03366 3.06841ZM5.05431 3.0986L4.59034 3.28496L4.60411 3.31924L5.06808 3.13288L5.53205 2.94652L5.51828 2.91223L5.05431 3.0986Z" fill="var(--stroke-0, white)" mask="url(#path-1-inside-1_0_27)"/>
</g>
</svg>
