<svg preserveAspectRatio="none" width="100%" height="100%" overflow="visible" style="display: block;" viewBox="0 0 13 5" fill="none" xmlns="http://www.w3.org/2000/svg"><path id="TL" d="M12 1L12 1L12 1L12 1L12 2L11 2L11 2L10 2L10 2L10 2L10 2L10 2L10 2L9 3L9 3L9 3L9 3L8 3L8 3L8 3L8 3L8 3L8 3L8 3L7 4L7 4L7 4L7 4L7 4L6 4L6 4L5 4L5 4L5 4L4 5L4 5L4 5L4 5L4 5L4 5L4 5L4 4L4 4L4 4L4 4L4 4L4 4L4 4L4 4L4 4L4 4V4L4 4V3L4 3L4 3L4 3L4 3L4 3L4 3L4 3L4 3L4 3L4 3L4 3L4 3L4 2L4 2L5 2L5 2L7 2L7 2L8 2H8L10 2H10L10 2L10 2L10 2L10 2L10 1L10 1L11 1L11 1L11 1L11 1L11 1L12 1ZM1 4L1 4L1 5L1 5L0 5L1 5L1 4L1 4Z" fill="var(--fill-0,#71B219)" stroke="var(--stroke-0,white)" stroke-width="0"/></svg>