<svg preserveAspectRatio="none" width="100%" height="100%" overflow="visible" style="display: block;" viewBox="0 0 12.5862 5.30972" fill="none" xmlns="http://www.w3.org/2000/svg">
<path id="TL" d="M11.5879 1.03809L11.6094 1.0459L11.6328 1.0498L12.165 1.13184L11.7344 1.51074L11.0088 1.99121L10.5781 2.13184L10.0996 2.23438L10.0654 2.24121L10.0342 2.25781L9.66016 2.45508L9.62793 2.47168L9.60254 2.49707L9.32129 2.77246L8.99219 2.91309L8.57324 2.96875L8.55957 2.9707L8.54785 2.97363L8.1582 3.06543L8.12891 3.07227L8.10156 3.08594L7.74902 3.26758L7.73926 3.27246L7.72949 3.27832L7.2832 3.56152L7.15918 3.58203L6.97461 3.57617L6.93457 3.57422L6.89551 3.58594L6.49023 3.70508L6.47754 3.70898L5.21387 4.15332L5.18555 4.16309L5.16016 4.17969L4.39648 4.6748L4.38867 4.68066L4.37988 4.68652L4.12793 4.88086L4.09082 4.74121L4.08008 4.70215L4.05859 4.66797L3.91699 4.45117L3.90625 4.43555L3.89453 4.42188L3.8252 4.34473L3.81934 4.32227L4.12012 4.30957L4.24023 4.30469L4.31152 4.20703L4.5 3.94824L4.54785 3.88184V3.7998L4.5459 3.48828V3.39355L4.48242 3.32227L4.3877 3.2168L4.35352 3.17969L4.30859 3.1582L4.2168 3.11426L4.10938 3.06348L4.00195 3.11426L3.65723 3.27734L3.66113 3.22852L3.98145 2.97461L4.01758 2.94531L4.04102 2.90527L4.36719 2.34863L4.5459 2.17578L5.05078 1.97949L5.25488 1.92383L6.85449 1.6084L7.22754 1.58691L8.24805 1.59668H8.2627L9.64648 1.52637H9.65625L9.66602 1.52539L10.0068 1.48145L10.0303 1.47852L10.0518 1.4707L10.4951 1.32812L10.5127 1.32227L10.9434 1.14648L10.9619 1.13867L10.9785 1.12793L11.1885 0.999023L11.3223 0.943359L11.5879 1.03809ZM1.13672 4.50293L1.12305 4.51855L0.946289 4.71875L0.915039 4.73145L0.461914 4.6875L0.71582 4.55273L1.22559 4.41602L1.13672 4.50293Z" fill="var(--fill-0, #71B219)" stroke="var(--stroke-0, white)" stroke-width="0.5"/>
</svg>
