<svg preserveAspectRatio="none" width="100%" height="100%" overflow="visible" style="display: block;" viewBox="0 0 54.5806 37.5809" fill="none" xmlns="http://www.w3.org/2000/svg">
<g id="TM">
<mask id="path-1-inside-1_0_172" fill="white">
<path d="M54.1706 27.2276L53.9753 27.2454L53.5062 27.1329L52.5721 26.908L51.77 26.4567L51.2459 26.1618L51.1634 26.2015L50.9281 26.4032L50.7671 26.6514L50.6393 27.1315L50.4343 27.6966L49.4644 27.7186L48.6376 27.7611L48.1038 27.9751L47.5811 28.27L47.4504 28.6198L47.3376 29.0738L47.0322 30.1012L46.7557 31.0366L46.6126 31.6416L46.4021 32.0558L45.8106 32.6004L45.1406 32.9666L44.7843 33.1381L44.6275 33.352L44.5931 33.5537L44.4665 33.6154L44.19 33.5797L43.8983 33.614L43.2573 33.8253L42.564 34.0845L41.733 34.3424H41.2584L41.07 34.4L40.986 34.5303L41.07 34.7758L41.1511 34.9582L41.224 35.1942L41.0286 35.3848L40.8925 35.7126L40.7866 36.2888L40.4921 36.4602L40.0189 36.7401L39.4975 37.1077L39.3627 37.1831L39.0628 37.2873L38.7643 37.2558L38.4932 37.2023L38.1988 37.297L37.8934 37.5809L37.7517 37.4945L37.6802 37.2078L37.5275 37.0212L37.0502 36.6001L36.6416 36.2997L36.4654 36.2792L36.0913 36.3573L35.6222 36.4136L35.2411 36.3532L34.9384 36.2325L34.4721 35.8183L34.3015 35.5947L34.1736 35.4232L33.8558 35.4699L33.7664 35.2833L33.754 35.0639L33.842 34.7991L33.8159 34.2985L33.6371 33.9391L33.4334 33.7827L33.4596 33.673L33.549 33.422L33.6632 33.2025L33.6618 32.7691L33.5188 32.2986L33.4623 31.6169L33.4981 30.9516L33.3041 30.6156L31.7138 30.6142L30.2996 30.6402L30.2198 30.5634L29.6695 29.7226L29.2238 29.0834L28.7836 28.7062L27.7753 28.2412L27.2924 28.0464L26.8782 27.6912L26.5399 27.3002L26.4532 26.7653L26.3844 26.5897L26.2867 26.4471L26.1808 26.384L26.0515 26.3977L24.8794 25.7749L24.4089 25.6103L23.9659 25.742L23.7706 25.7654L23.3854 25.5884L22.9424 25.8284L22.7539 25.8435L22.4898 25.7859L22.2711 25.6968L21.6809 25.1275L21.1856 24.8985L20.8294 24.7517L20.1429 24.535L19.4124 24.4225L19.0368 24.3292L18.7672 24.2044L18.6971 24.1235L18.7012 23.915L18.6805 23.6406L18.5911 23.4404L18.4054 23.2003L18.1481 23.0206L17.7052 23.0522L17.0407 23.0371L16.5317 22.8574L16.1272 22.8259L15.6402 22.8602H15.2413L14.9566 22.9918L14.7914 23.1455L14.6869 23.6146L14.5905 23.6845L14.4241 23.7188L14.2026 23.6941L13.7349 23.6983L12.9274 23.6146L11.9135 23.5899L11.15 23.8272L10.5474 24.1674L9.97235 24.5501L9.2955 25.1536L9.09608 25.4224L8.69708 26.491L8.51966 26.6446L8.2885 26.7667L8.05466 26.7886L7.58966 26.9463L6.97612 27.207L6.55931 27.3085L5.48758 27.255L5.42435 26.9162L5.23173 25.679L5.13819 24.4253L5.14365 23.8464L5.2565 22.6818L5.24685 22.0934L5.2015 21.5598L5.2455 21.0359L5.33216 20.4461L5.37615 19.8452L5.3115 19.4255L5.1052 19.0867L4.75439 18.667L4.69931 18.4174L4.67873 18.1403L4.34304 18.1087L4.04043 17.822L3.79139 17.6657L3.25484 17.4915L2.988 17.4832L2.74173 17.6108L2.56154 17.8673L2.43492 17.4627L2.43912 17.0388L2.86692 16.1623L3.13519 16.4188L3.46123 16.5217L3.87669 16.5368L4.28527 16.4696L4.2055 16.1692L4.01566 15.9977L3.77904 15.8633L3.69508 15.4655L3.72396 15.0527L3.83538 14.6617L3.7075 14.504L3.51489 14.4066L3.06777 14.4176L2.48857 14.3147L1.90535 14.2694L1.76773 14.7303L2.08965 15.3338L1.81727 15.0375L1.55865 14.6453L1.19819 13.9375L0.965689 13.1063L0.924462 12.2064L1.12119 11.4616L1.37427 10.7593L1.52566 9.85813L1.73473 8.97204L1.94246 9.36984L2.18185 9.72648L2.512 10.0543L2.69362 10.1325L3.23839 10.2683L3.5892 10.2175L3.962 10.0228L4.32927 10.0859L4.63331 10.4507L4.90292 10.8595L5.31293 10.9459L6.15754 10.651L6.55931 10.5838L6.90869 10.7196L7.08888 10.7443L7.27193 10.7209L7.11365 10.3588L7.049 10.0063L7.26085 9.81975L7.92669 10.0186L8.35181 9.88697L8.46046 9.81288L8.55543 9.721L8.60631 9.41647L8.58566 9.10235L8.53066 8.80745L8.40681 8.54821L8.10008 8.18474L6.91281 7.31644L6.51254 6.96942L6.17962 6.51951L5.96769 5.88446L5.79573 5.22056L5.63619 4.72674L5.22208 3.57731L5.06111 3.44013L4.85892 3.37977L4.36781 3.3441L3.86981 3.42778L3.05543 3.62666L2.589 3.56496L2.37304 3.68702L1.83927 4.17259L1.58888 4.58684L1.2395 5.53329L1.50357 5.83778L1.49812 6.03808L1.29727 7.42892L1.41969 8.1024L1.37569 8.1518L1.28073 7.99545L0.978116 7.30962L0.44569 6.47016L0 5.18213L0.782728 4.33719L1.45269 3.73641L2.00023 3.37428L2.16808 3.2865L2.91781 2.98612L3.88492 2.71453L4.59888 2.51427L5.52889 2.34281L5.83427 2.31125L6.28139 2.31397L6.64454 2.47446L6.86327 2.60067L7.6392 3.11781L8.43024 3.64449L9.10985 4.22747L9.30239 4.46478L9.4097 4.74871L9.49089 5.02716L10.0673 5.90777L10.3012 6.30967L10.6382 6.83225L10.9092 7.08738L11.1734 7.4015L11.3508 7.65936L11.5531 7.78146L11.7787 7.82948L12.2932 7.74718L12.9122 7.58393L13.2823 7.51536L13.4474 7.52495L14.4681 7.58254L15.3871 7.6347L16.5207 7.69917L16.8577 7.75949L17.2622 7.81575L17.463 7.82399L17.6419 7.60038L17.7602 7.47831L17.8524 7.38091L17.833 7.27119L17.6901 7.17793L17.4644 6.86791L17.335 5.74728L17.2539 4.78438L17.5222 4.48395L17.8317 4.26586L18.276 3.60883L18.5154 3.40585L18.8662 3.23711L20.0411 3.19324L20.5363 3.06431L20.6959 2.85171L20.9559 2.31125L21.0425 1.87093L21.1884 1.66933L21.3631 1.51981L21.5433 1.52529L21.8914 1.65422L22.1555 1.72693L22.344 1.8243L22.516 1.98068L22.6824 2.25089L22.7085 2.42921L22.7856 2.53211L22.919 2.53344L23.0181 2.53483L23.0855 2.49644L23.1282 2.4059L23.0951 2.28517L22.8681 1.93954L22.3688 1.31268L22.0427 1.05617L21.8804 0.917653L21.8405 0.785962L22.0523 0.587085L22.2573 0.473226L22.6177 0.558244L23.0979 0.604917L23.3097 0.504747L23.5284 0L24.0732 0.534928L24.6401 1.13298L24.8478 1.24408L25.2536 1.3072L25.5906 1.32914L25.7323 1.3936L25.8837 1.54861L26.1835 2.2015L26.4834 2.37295L26.8562 2.49644L28.06 2.48543L28.43 2.51838L28.7314 2.82425L28.9198 2.95045L29.001 3.05879L28.9803 3.19324L28.906 3.3647L28.8964 3.69389L28.8771 3.94902L28.7808 4.06975L28.7519 4.18218L28.8318 4.28097L29.3889 4.52238L29.5774 4.78161L29.7191 4.89685L29.7521 5.05869L29.6585 5.16568L29.3971 5.11218L29.2693 5.28226V5.58679L29.4563 5.87211L29.5113 6.13273L29.3876 6.38372L29.2431 6.7376L29.2389 6.98725L29.3242 7.12991L29.7521 7.38777L30.7357 8.03794L30.9627 8.0654L31.894 7.91449L32.3274 7.89942L32.5833 8.00093L33.3041 8.09282L33.5325 8.19705L33.7774 8.20391L34.1103 8.17373L34.3359 7.88297L34.4514 7.81713L34.5533 7.76911L34.7583 7.76225L35.3278 7.94744L35.929 8.33699L36.3251 8.69225L36.5219 9.01319L36.7695 9.70727L37.0694 10.7731L37.4299 11.4904L37.8536 11.8622L38.1507 12.5452L38.4093 14.0308L38.569 14.3339L38.7326 14.4916L39.2168 14.9196L40.2059 15.6274L40.7893 16.0444L41.6917 16.7083L42.5199 17.3159L43.3495 18.2514L43.5145 18.3886L44.2437 18.8933L45.0553 19.4091L45.6235 19.2925L46.4792 20.0853L46.8272 20.3788L46.9744 20.479L47.5948 20.7917L48.5826 21.4446L49.829 22.3773L50.6544 22.9164L50.8772 22.9795L51.1001 22.9768L51.3381 22.8615L51.5967 22.771L52.037 22.8903L52.5143 23.1057L52.8183 23.2689L53.1678 23.5048L53.4443 23.7298L53.6534 23.8327L54.3673 24.0288L54.4898 24.1454L54.5682 24.2757L54.5806 24.4115L54.1789 25.1221L54.1253 26.026L54.1225 26.7049L54.1706 27.2276ZM2.38546 20.1429L2.34969 20.3733L2.14054 19.6793L2.036 18.9125L2.16942 18.6958L2.31938 18.7082L2.17631 18.9852L2.38546 20.1429Z"/>
</mask>
<path d="M54.1706 27.2276L53.9753 27.2454L53.5062 27.1329L52.5721 26.908L51.77 26.4567L51.2459 26.1618L51.1634 26.2015L50.9281 26.4032L50.7671 26.6514L50.6393 27.1315L50.4343 27.6966L49.4644 27.7186L48.6376 27.7611L48.1038 27.9751L47.5811 28.27L47.4504 28.6198L47.3376 29.0738L47.0322 30.1012L46.7557 31.0366L46.6126 31.6416L46.4021 32.0558L45.8106 32.6004L45.1406 32.9666L44.7843 33.1381L44.6275 33.352L44.5931 33.5537L44.4665 33.6154L44.19 33.5797L43.8983 33.614L43.2573 33.8253L42.564 34.0845L41.733 34.3424H41.2584L41.07 34.4L40.986 34.5303L41.07 34.7758L41.1511 34.9582L41.224 35.1942L41.0286 35.3848L40.8925 35.7126L40.7866 36.2888L40.4921 36.4602L40.0189 36.7401L39.4975 37.1077L39.3627 37.1831L39.0628 37.2873L38.7643 37.2558L38.4932 37.2023L38.1988 37.297L37.8934 37.5809L37.7517 37.4945L37.6802 37.2078L37.5275 37.0212L37.0502 36.6001L36.6416 36.2997L36.4654 36.2792L36.0913 36.3573L35.6222 36.4136L35.2411 36.3532L34.9384 36.2325L34.4721 35.8183L34.3015 35.5947L34.1736 35.4232L33.8558 35.4699L33.7664 35.2833L33.754 35.0639L33.842 34.7991L33.8159 34.2985L33.6371 33.9391L33.4334 33.7827L33.4596 33.673L33.549 33.422L33.6632 33.2025L33.6618 32.7691L33.5188 32.2986L33.4623 31.6169L33.4981 30.9516L33.3041 30.6156L31.7138 30.6142L30.2996 30.6402L30.2198 30.5634L29.6695 29.7226L29.2238 29.0834L28.7836 28.7062L27.7753 28.2412L27.2924 28.0464L26.8782 27.6912L26.5399 27.3002L26.4532 26.7653L26.3844 26.5897L26.2867 26.4471L26.1808 26.384L26.0515 26.3977L24.8794 25.7749L24.4089 25.6103L23.9659 25.742L23.7706 25.7654L23.3854 25.5884L22.9424 25.8284L22.7539 25.8435L22.4898 25.7859L22.2711 25.6968L21.6809 25.1275L21.1856 24.8985L20.8294 24.7517L20.1429 24.535L19.4124 24.4225L19.0368 24.3292L18.7672 24.2044L18.6971 24.1235L18.7012 23.915L18.6805 23.6406L18.5911 23.4404L18.4054 23.2003L18.1481 23.0206L17.7052 23.0522L17.0407 23.0371L16.5317 22.8574L16.1272 22.8259L15.6402 22.8602H15.2413L14.9566 22.9918L14.7914 23.1455L14.6869 23.6146L14.5905 23.6845L14.4241 23.7188L14.2026 23.6941L13.7349 23.6983L12.9274 23.6146L11.9135 23.5899L11.15 23.8272L10.5474 24.1674L9.97235 24.5501L9.2955 25.1536L9.09608 25.4224L8.69708 26.491L8.51966 26.6446L8.2885 26.7667L8.05466 26.7886L7.58966 26.9463L6.97612 27.207L6.55931 27.3085L5.48758 27.255L5.42435 26.9162L5.23173 25.679L5.13819 24.4253L5.14365 23.8464L5.2565 22.6818L5.24685 22.0934L5.2015 21.5598L5.2455 21.0359L5.33216 20.4461L5.37615 19.8452L5.3115 19.4255L5.1052 19.0867L4.75439 18.667L4.69931 18.4174L4.67873 18.1403L4.34304 18.1087L4.04043 17.822L3.79139 17.6657L3.25484 17.4915L2.988 17.4832L2.74173 17.6108L2.56154 17.8673L2.43492 17.4627L2.43912 17.0388L2.86692 16.1623L3.13519 16.4188L3.46123 16.5217L3.87669 16.5368L4.28527 16.4696L4.2055 16.1692L4.01566 15.9977L3.77904 15.8633L3.69508 15.4655L3.72396 15.0527L3.83538 14.6617L3.7075 14.504L3.51489 14.4066L3.06777 14.4176L2.48857 14.3147L1.90535 14.2694L1.76773 14.7303L2.08965 15.3338L1.81727 15.0375L1.55865 14.6453L1.19819 13.9375L0.965689 13.1063L0.924462 12.2064L1.12119 11.4616L1.37427 10.7593L1.52566 9.85813L1.73473 8.97204L1.94246 9.36984L2.18185 9.72648L2.512 10.0543L2.69362 10.1325L3.23839 10.2683L3.5892 10.2175L3.962 10.0228L4.32927 10.0859L4.63331 10.4507L4.90292 10.8595L5.31293 10.9459L6.15754 10.651L6.55931 10.5838L6.90869 10.7196L7.08888 10.7443L7.27193 10.7209L7.11365 10.3588L7.049 10.0063L7.26085 9.81975L7.92669 10.0186L8.35181 9.88697L8.46046 9.81288L8.55543 9.721L8.60631 9.41647L8.58566 9.10235L8.53066 8.80745L8.40681 8.54821L8.10008 8.18474L6.91281 7.31644L6.51254 6.96942L6.17962 6.51951L5.96769 5.88446L5.79573 5.22056L5.63619 4.72674L5.22208 3.57731L5.06111 3.44013L4.85892 3.37977L4.36781 3.3441L3.86981 3.42778L3.05543 3.62666L2.589 3.56496L2.37304 3.68702L1.83927 4.17259L1.58888 4.58684L1.2395 5.53329L1.50357 5.83778L1.49812 6.03808L1.29727 7.42892L1.41969 8.1024L1.37569 8.1518L1.28073 7.99545L0.978116 7.30962L0.44569 6.47016L0 5.18213L0.782728 4.33719L1.45269 3.73641L2.00023 3.37428L2.16808 3.2865L2.91781 2.98612L3.88492 2.71453L4.59888 2.51427L5.52889 2.34281L5.83427 2.31125L6.28139 2.31397L6.64454 2.47446L6.86327 2.60067L7.6392 3.11781L8.43024 3.64449L9.10985 4.22747L9.30239 4.46478L9.4097 4.74871L9.49089 5.02716L10.0673 5.90777L10.3012 6.30967L10.6382 6.83225L10.9092 7.08738L11.1734 7.4015L11.3508 7.65936L11.5531 7.78146L11.7787 7.82948L12.2932 7.74718L12.9122 7.58393L13.2823 7.51536L13.4474 7.52495L14.4681 7.58254L15.3871 7.6347L16.5207 7.69917L16.8577 7.75949L17.2622 7.81575L17.463 7.82399L17.6419 7.60038L17.7602 7.47831L17.8524 7.38091L17.833 7.27119L17.6901 7.17793L17.4644 6.86791L17.335 5.74728L17.2539 4.78438L17.5222 4.48395L17.8317 4.26586L18.276 3.60883L18.5154 3.40585L18.8662 3.23711L20.0411 3.19324L20.5363 3.06431L20.6959 2.85171L20.9559 2.31125L21.0425 1.87093L21.1884 1.66933L21.3631 1.51981L21.5433 1.52529L21.8914 1.65422L22.1555 1.72693L22.344 1.8243L22.516 1.98068L22.6824 2.25089L22.7085 2.42921L22.7856 2.53211L22.919 2.53344L23.0181 2.53483L23.0855 2.49644L23.1282 2.4059L23.0951 2.28517L22.8681 1.93954L22.3688 1.31268L22.0427 1.05617L21.8804 0.917653L21.8405 0.785962L22.0523 0.587085L22.2573 0.473226L22.6177 0.558244L23.0979 0.604917L23.3097 0.504747L23.5284 0L24.0732 0.534928L24.6401 1.13298L24.8478 1.24408L25.2536 1.3072L25.5906 1.32914L25.7323 1.3936L25.8837 1.54861L26.1835 2.2015L26.4834 2.37295L26.8562 2.49644L28.06 2.48543L28.43 2.51838L28.7314 2.82425L28.9198 2.95045L29.001 3.05879L28.9803 3.19324L28.906 3.3647L28.8964 3.69389L28.8771 3.94902L28.7808 4.06975L28.7519 4.18218L28.8318 4.28097L29.3889 4.52238L29.5774 4.78161L29.7191 4.89685L29.7521 5.05869L29.6585 5.16568L29.3971 5.11218L29.2693 5.28226V5.58679L29.4563 5.87211L29.5113 6.13273L29.3876 6.38372L29.2431 6.7376L29.2389 6.98725L29.3242 7.12991L29.7521 7.38777L30.7357 8.03794L30.9627 8.0654L31.894 7.91449L32.3274 7.89942L32.5833 8.00093L33.3041 8.09282L33.5325 8.19705L33.7774 8.20391L34.1103 8.17373L34.3359 7.88297L34.4514 7.81713L34.5533 7.76911L34.7583 7.76225L35.3278 7.94744L35.929 8.33699L36.3251 8.69225L36.5219 9.01319L36.7695 9.70727L37.0694 10.7731L37.4299 11.4904L37.8536 11.8622L38.1507 12.5452L38.4093 14.0308L38.569 14.3339L38.7326 14.4916L39.2168 14.9196L40.2059 15.6274L40.7893 16.0444L41.6917 16.7083L42.5199 17.3159L43.3495 18.2514L43.5145 18.3886L44.2437 18.8933L45.0553 19.4091L45.6235 19.2925L46.4792 20.0853L46.8272 20.3788L46.9744 20.479L47.5948 20.7917L48.5826 21.4446L49.829 22.3773L50.6544 22.9164L50.8772 22.9795L51.1001 22.9768L51.3381 22.8615L51.5967 22.771L52.037 22.8903L52.5143 23.1057L52.8183 23.2689L53.1678 23.5048L53.4443 23.7298L53.6534 23.8327L54.3673 24.0288L54.4898 24.1454L54.5682 24.2757L54.5806 24.4115L54.1789 25.1221L54.1253 26.026L54.1225 26.7049L54.1706 27.2276ZM2.38546 20.1429L2.34969 20.3733L2.14054 19.6793L2.036 18.9125L2.16942 18.6958L2.31938 18.7082L2.17631 18.9852L2.38546 20.1429Z" fill="var(--fill-0, #71B219)" stroke="var(--stroke-0, white)" mask="url(#path-1-inside-1_0_172)"/>
</g>
</svg>
