<svg preserveAspectRatio="none" width="100%" height="100%" overflow="visible" style="display: block;" viewBox="0 0 55 38" fill="none" xmlns="http://www.w3.org/2000/svg"><g id="TM"><mask id="path-1-inside-1_0_172" fill="white"><path d="M54 27L54 27L54 27L53 27L52 26L51 26L51 26L51 26L51 27L51 27L50 28L50 28L49 28L48 28L48 28L48 29L47 29L47 30L47 31L47 32L46 32L46 33L45 33L45 33L45 33L45 34L44 34L44 34L44 34L43 34L43 34L42 34H41L41 34L41 34L41 35L41 35L41 35L41 35L41 36L41 36L40 36L40 37L40 37L39 37L39 37L39 37L38 37L38 37L38 38L38 38L38 37L38 37L37 37L37 36L36 36L36 36L36 36L35 36L35 36L34 36L34 36L34 35L34 36L34 35L34 35L34 35L34 34L34 34L33 34L34 34L34 33L34 33L34 33L34 32L34 32L34 31L33 31L32 31L30 31L30 31L30 30L29 29L29 29L28 28L27 28L27 28L26 27L26 27L26 27L26 26L26 26L26 26L25 26L24 26L24 26L24 26L23 26L23 26L23 26L22 26L22 26L22 25L21 25L21 25L20 24L19 24L19 24L19 24L19 24L19 24L19 24L19 23L18 23L18 23L18 23L17 23L16 23L16 23L16 23H15L15 23L15 23L15 24L15 24L14 24L14 24L14 24L13 24L12 24L11 24L10 24L10 25L9 25L9 25L9 26L8 27L8 27L8 27L8 27L7 27L7 27L6 27L5 27L5 26L5 24L5 24L5 23L5 22L5 22L5 21L5 20L5 20L5 19L5 19L5 19L5 18L5 18L4 18L4 18L4 18L3 18L3 18L3 18L3 18L2 18L2 17L3 16L3 16L4 16L4 16L4 16L4 16L4 16L4 16L4 16L4 15L4 15L4 14L4 14L3 14L2 14L2 14L2 15L2 15L2 15L2 15L1 14L1 13L1 12L1 12L1 11L2 10L2 9L2 9L2 10L2 10L3 10L3 10L4 10L4 10L4 10L5 10L5 11L5 11L6 11L7 11L7 11L7 11L7 11L7 10L7 10L7 10L8 10L8 10L8 10L9 10L9 9L9 9L8 9L8 8L8 8L7 7L6 7L6 6L6 6L6 5L6 5L5 4L5 3L5 3L4 3L4 3L3 4L3 4L2 4L2 4L2 5L1 6L2 6L2 6L1 7L1 8L1 8L1 8L1 7L0 6L0 5L1 4L2 4L2 3L2 3L3 3L4 3L5 2L6 2L6 2L6 2L7 2L7 3L8 3L8 4L9 4L9 4L9 5L10 5L10 6L10 6L11 7L11 7L11 7L11 8L12 8L12 8L12 8L13 8L13 8L13 8L14 8L15 8L16 8L17 8L17 8L18 8L18 8L18 8L18 7L18 7L18 7L18 7L17 6L17 5L18 4L18 4L18 4L18 3L19 3L20 3L20 3L21 3L21 2L21 2L21 2L21 2L22 2L22 2L22 2L22 2L22 2L23 2L23 2L23 2L23 2L23 2L23 2L23 2L23 2L23 2L22 1L22 1L22 1L22 1L22 1L22 0L23 1L23 1L23 0L24 0L24 0L25 1L25 1L25 1L26 1L26 1L26 2L26 2L26 2L27 2L28 2L28 2L29 3L29 3L29 3L29 3L29 3L29 4L29 4L29 4L29 4L29 4L29 4L30 5L30 5L30 5L30 5L29 5L29 5V6L30 6L30 6L29 6L29 7L29 7L29 7L30 7L31 8L31 8L32 8L32 8L33 8L33 8L34 8L34 8L34 8L34 8L34 8L35 8L35 8L35 8L36 8L36 9L36 9L37 10L37 11L37 12L38 12L38 12L38 14L39 14L39 14L39 15L40 16L41 16L42 17L42 17L43 18L44 18L44 19L45 19L46 19L46 20L47 20L47 20L48 21L49 21L50 22L51 23L51 23L51 23L51 23L52 23L52 23L52 23L53 23L53 24L53 24L54 24L54 24L54 24L55 24L55 24L54 25L54 26L54 27L54 27ZM2 20L2 20L2 20L2 19L2 19L2 19L2 19L2 20Z"/></mask><path d="M54 27L54 27L54 27L53 27L52 26L51 26L51 26L51 26L51 27L51 27L50 28L50 28L49 28L48 28L48 28L48 29L47 29L47 30L47 31L47 32L46 32L46 33L45 33L45 33L45 33L45 34L44 34L44 34L44 34L43 34L43 34L42 34H41L41 34L41 34L41 35L41 35L41 35L41 35L41 36L41 36L40 36L40 37L40 37L39 37L39 37L39 37L38 37L38 37L38 38L38 38L38 37L38 37L37 37L37 36L36 36L36 36L36 36L35 36L35 36L34 36L34 36L34 35L34 36L34 35L34 35L34 35L34 34L34 34L33 34L34 34L34 33L34 33L34 33L34 32L34 32L34 31L33 31L32 31L30 31L30 31L30 30L29 29L29 29L28 28L27 28L27 28L26 27L26 27L26 27L26 26L26 26L26 26L25 26L24 26L24 26L24 26L23 26L23 26L23 26L22 26L22 26L22 25L21 25L21 25L20 24L19 24L19 24L19 24L19 24L19 24L19 24L19 23L18 23L18 23L18 23L17 23L16 23L16 23L16 23H15L15 23L15 23L15 24L15 24L14 24L14 24L14 24L13 24L12 24L11 24L10 24L10 25L9 25L9 25L9 26L8 27L8 27L8 27L8 27L7 27L7 27L6 27L5 27L5 26L5 24L5 24L5 23L5 22L5 22L5 21L5 20L5 20L5 19L5 19L5 19L5 18L5 18L4 18L4 18L4 18L3 18L3 18L3 18L3 18L2 18L2 17L3 16L3 16L4 16L4 16L4 16L4 16L4 16L4 16L4 16L4 15L4 15L4 14L4 14L3 14L2 14L2 14L2 15L2 15L2 15L2 15L1 14L1 13L1 12L1 12L1 11L2 10L2 9L2 9L2 10L2 10L3 10L3 10L4 10L4 10L4 10L5 10L5 11L5 11L6 11L7 11L7 11L7 11L7 11L7 10L7 10L7 10L8 10L8 10L8 10L9 10L9 9L9 9L8 9L8 8L8 8L7 7L6 7L6 6L6 6L6 5L6 5L5 4L5 3L5 3L4 3L4 3L3 4L3 4L2 4L2 4L2 5L1 6L2 6L2 6L1 7L1 8L1 8L1 8L1 7L0 6L0 5L1 4L2 4L2 3L2 3L3 3L4 3L5 2L6 2L6 2L6 2L7 2L7 3L8 3L8 4L9 4L9 4L9 5L10 5L10 6L10 6L11 7L11 7L11 7L11 8L12 8L12 8L12 8L13 8L13 8L13 8L14 8L15 8L16 8L17 8L17 8L18 8L18 8L18 8L18 7L18 7L18 7L18 7L17 6L17 5L18 4L18 4L18 4L18 3L19 3L20 3L20 3L21 3L21 2L21 2L21 2L21 2L22 2L22 2L22 2L22 2L22 2L23 2L23 2L23 2L23 2L23 2L23 2L23 2L23 2L23 2L22 1L22 1L22 1L22 1L22 1L22 0L23 1L23 1L23 0L24 0L24 0L25 1L25 1L25 1L26 1L26 1L26 2L26 2L26 2L27 2L28 2L28 2L29 3L29 3L29 3L29 3L29 3L29 4L29 4L29 4L29 4L29 4L29 4L30 5L30 5L30 5L30 5L29 5L29 5V6L30 6L30 6L29 6L29 7L29 7L29 7L30 7L31 8L31 8L32 8L32 8L33 8L33 8L34 8L34 8L34 8L34 8L34 8L35 8L35 8L35 8L36 8L36 9L36 9L37 10L37 11L37 12L38 12L38 12L38 14L39 14L39 14L39 15L40 16L41 16L42 17L42 17L43 18L44 18L44 19L45 19L46 19L46 20L47 20L47 20L48 21L49 21L50 22L51 23L51 23L51 23L51 23L52 23L52 23L52 23L53 23L53 24L53 24L54 24L54 24L54 24L55 24L55 24L54 25L54 26L54 27L54 27ZM2 20L2 20L2 20L2 19L2 19L2 19L2 19L2 20Z" fill="var(--fill-0,#71B219)" stroke="var(--stroke-0,white)" mask="url(#path-1-inside-1_0_172)"/></g></svg>