<svg preserveAspectRatio="none" width="100%" height="100%" overflow="visible" style="display: block;" viewBox="0 0 16 33" fill="none" xmlns="http://www.w3.org/2000/svg"><g id="TN"><mask id="path-1-inside-1_0_25" fill="white"><path d="M16 20L16 20L15 20L15 21L15 21V22L16 22L16 23L16 23L15 23L14 24L14 24L13 24L13 25L12 25L12 25L12 25L12 26L12 26L11 26L11 26L10 27L10 27L10 27L10 28L11 29L11 30L11 30L10 30L10 31L10 31L9 32L9 32L9 32L8 33L8 33L8 32L7 31L7 30L7 29L7 28L6 27L6 26L6 25L6 24L5 24L5 24L4 23L3 22L3 22L3 21L2 20L2 20L2 20L1 19L1 19L1 19L0 18L0 17L0 16L0 16L0 15L0 15L1 15L1 14L2 14L2 13L2 13L3 13L3 12L3 12L3 11L3 11L4 10L3 10L3 9L3 8L3 8L3 8L3 7L3 7L3 6L3 6L3 5L3 4L3 4L3 4L3 4L3 4L3 3L4 3L4 3L4 2L4 2L4 2L5 2L6 1L6 1L8 0L9 0L9 0L9 0L9 1L9 1L9 1L9 1L9 0L10 0L10 0L10 1L10 2L11 2L11 3L11 3L12 3L12 2L13 2L13 1L14 1L14 2L14 2L14 2L13 3L13 4L12 4L12 5L12 5L12 6L12 6L12 7L12 7L13 8L14 8L14 8L14 9L14 10L14 10L13 11L13 12L12 13L12 13L10 14L10 14L10 15L10 15L10 16L10 16L11 17L11 17L12 17L12 18L12 18L13 18L13 18L13 18L14 18L14 19L14 19L15 19L14 19L14 19L14 19L15 19L15 19L16 20ZM15 12L14 13L14 12L14 12L15 12L15 12ZM13 17L13 17L13 17L13 17L13 17L13 17L12 17L12 16L13 16L13 16L14 17L14 17L14 17L14 17L13 17Z"/></mask><path d="M16 20L16 20L15 20L15 21L15 21V22L16 22L16 23L16 23L15 23L14 24L14 24L13 24L13 25L12 25L12 25L12 25L12 26L12 26L11 26L11 26L10 27L10 27L10 27L10 28L11 29L11 30L11 30L10 30L10 31L10 31L9 32L9 32L9 32L8 33L8 33L8 32L7 31L7 30L7 29L7 28L6 27L6 26L6 25L6 24L5 24L5 24L4 23L3 22L3 22L3 21L2 20L2 20L2 20L1 19L1 19L1 19L0 18L0 17L0 16L0 16L0 15L0 15L1 15L1 14L2 14L2 13L2 13L3 13L3 12L3 12L3 11L3 11L4 10L3 10L3 9L3 8L3 8L3 8L3 7L3 7L3 6L3 6L3 5L3 4L3 4L3 4L3 4L3 4L3 3L4 3L4 3L4 2L4 2L4 2L5 2L6 1L6 1L8 0L9 0L9 0L9 0L9 1L9 1L9 1L9 1L9 0L10 0L10 0L10 1L10 2L11 2L11 3L11 3L12 3L12 2L13 2L13 1L14 1L14 2L14 2L14 2L13 3L13 4L12 4L12 5L12 5L12 6L12 6L12 7L12 7L13 8L14 8L14 8L14 9L14 10L14 10L13 11L13 12L12 13L12 13L10 14L10 14L10 15L10 15L10 16L10 16L11 17L11 17L12 17L12 18L12 18L13 18L13 18L13 18L14 18L14 19L14 19L15 19L14 19L14 19L14 19L15 19L15 19L16 20ZM15 12L14 13L14 12L14 12L15 12L15 12ZM13 17L13 17L13 17L13 17L13 17L13 17L12 17L12 16L13 16L13 16L14 17L14 17L14 17L14 17L13 17Z" fill="var(--fill-0,#71B219)" stroke="var(--stroke-0,white)" mask="url(#path-1-inside-1_0_25)"/></g></svg>