<svg preserveAspectRatio="none" width="100%" height="100%" overflow="visible" style="display: block;" viewBox="0 0 15.6045 32.8267" fill="none" xmlns="http://www.w3.org/2000/svg">
<g id="TN">
<mask id="path-1-inside-1_0_25" fill="white">
<path d="M15.4834 19.5298L15.4752 19.6505L15.339 20.5187L15.3087 20.8301L15.288 21.3582V21.9919L15.5962 22.5269L15.6045 22.7614L15.4848 23.033L14.9166 23.343L14.1834 23.7435L13.5533 24.1235L12.8627 24.5405L12.6509 24.8093L12.3083 25.0164L12.0222 25.2236L11.9699 25.4224L11.769 25.7969L11.5077 26.0959L10.8514 26.2372L10.7304 26.3264L10.4263 26.7763L10.286 26.9518L10.1127 27.3208L10.3355 28.2755L10.608 29.2549L10.6616 29.6623L10.6575 30.0011L10.5048 30.3659L10.1554 30.8872L9.89947 31.2698L9.40835 31.9571L9.26389 32.1271L8.92546 32.3274L8.272 32.5921L7.81116 32.8267L7.57731 31.7787L7.37647 30.883L7.21135 30.1424L6.92108 28.8352L6.67346 27.7213L6.42723 26.6089L6.20296 25.5966L5.97735 24.5747L5.88108 24.4253L5.20562 23.9424L4.58377 23.4966L3.93585 22.9891L3.23423 22.4391L3.12142 21.745L2.761 20.6943L2.38131 20.1072L2.23823 19.9536L1.47196 19.5736L1.03038 19.2939L0.909306 19.1306L0.824039 18.7013L0.509 17.8454L0.149921 17.0662L0.0178427 16.5382L0 15.8729L0.0701533 15.3915L0.226959 15.1857L0.975345 14.5849L1.32204 13.862L1.75123 13.5904L2.12269 13.3861L2.42396 13.1474L2.69085 12.7647L2.89442 12.356L2.92885 11.9129L3.01411 11.2092L3.15031 10.7168L3.46673 10.1586L3.33327 9.70865L3.16546 9.22308L3.21362 8.37952L3.17096 8.0366L3.03477 7.73345L2.89581 7.3439L2.89169 7.01882L3.02511 6.16425L3.12692 5.50998L3.28927 4.65817L3.2315 4.41948L3.11042 4.2412L2.74723 4.05325L2.74312 3.93944L2.83115 3.81323L3.36769 3.39622L3.65519 2.7831L3.89592 2.65555L4.26189 2.43332L4.24812 2.19467L4.16558 1.93816L5.11892 1.64874L6.02689 0.888853L6.34742 0.702284L8.455 0L8.72873 0.0480133L9.03554 0.150863L8.9475 0.412864L8.82643 0.619987L9.00527 0.986219L9.26116 0.762646L9.1965 0.613122L9.18135 0.414246L9.6147 0.396413L9.9985 0.427934L10.4195 0.646066L10.3906 1.47318L10.9519 2.28107L10.7937 2.68297L11.2532 2.92027L11.6617 2.63496L11.8667 2.21384L12.6192 1.96972L13.3346 1.34973L13.7308 1.28661L13.8202 1.7955L14.0114 2.23992L13.7404 2.39631L13.3965 2.86816L12.743 4.0615L12.1419 4.41128L11.6906 4.86939L11.5448 5.19448L11.5008 5.57306L11.6136 6.25069L11.9424 6.93786L12.322 7.35211L12.688 7.48108L13.5395 8.13396L13.5258 8.52079L13.6441 8.98029L13.6895 9.53857L13.9853 9.98434L13.3525 10.9527L13.0058 11.6509L12.3289 12.6111L11.7264 13.2338L10.436 14.1569L10.1196 14.4628L9.91324 14.7797L9.81831 15.1103L9.8527 15.4984L10.2778 16.4517L10.8432 17.0127L11.4182 17.3159L12.4184 17.1938L12.384 17.5601L12.4555 17.9976L12.8614 17.977L13.1337 17.9085L13.3635 17.4819L13.8519 17.774L14.1064 18.6629L14.5204 18.9399L14.5686 19.0428L14.4227 19.1114L14.3085 19.2129L14.431 19.2856L14.8313 19.3953L15.0734 19.3254L15.4834 19.5298ZM14.6085 12.2682L14.0128 12.6042L14.127 12.312L14.5204 11.9582L14.6222 12.0432L14.6085 12.2682ZM13.3717 17.0498L13.2699 17.0717L13.0828 17.1965L12.9838 17.2103L12.7031 17.069L12.5958 17.0704L12.461 16.9716L12.5064 16.4339L12.5504 16.2817L13.2328 16.2611L13.6028 16.5834L13.6634 16.6685L13.6785 16.7604L13.5065 16.9401L13.3717 17.0498Z"/>
</mask>
<path d="M15.4834 19.5298L15.4752 19.6505L15.339 20.5187L15.3087 20.8301L15.288 21.3582V21.9919L15.5962 22.5269L15.6045 22.7614L15.4848 23.033L14.9166 23.343L14.1834 23.7435L13.5533 24.1235L12.8627 24.5405L12.6509 24.8093L12.3083 25.0164L12.0222 25.2236L11.9699 25.4224L11.769 25.7969L11.5077 26.0959L10.8514 26.2372L10.7304 26.3264L10.4263 26.7763L10.286 26.9518L10.1127 27.3208L10.3355 28.2755L10.608 29.2549L10.6616 29.6623L10.6575 30.0011L10.5048 30.3659L10.1554 30.8872L9.89947 31.2698L9.40835 31.9571L9.26389 32.1271L8.92546 32.3274L8.272 32.5921L7.81116 32.8267L7.57731 31.7787L7.37647 30.883L7.21135 30.1424L6.92108 28.8352L6.67346 27.7213L6.42723 26.6089L6.20296 25.5966L5.97735 24.5747L5.88108 24.4253L5.20562 23.9424L4.58377 23.4966L3.93585 22.9891L3.23423 22.4391L3.12142 21.745L2.761 20.6943L2.38131 20.1072L2.23823 19.9536L1.47196 19.5736L1.03038 19.2939L0.909306 19.1306L0.824039 18.7013L0.509 17.8454L0.149921 17.0662L0.0178427 16.5382L0 15.8729L0.0701533 15.3915L0.226959 15.1857L0.975345 14.5849L1.32204 13.862L1.75123 13.5904L2.12269 13.3861L2.42396 13.1474L2.69085 12.7647L2.89442 12.356L2.92885 11.9129L3.01411 11.2092L3.15031 10.7168L3.46673 10.1586L3.33327 9.70865L3.16546 9.22308L3.21362 8.37952L3.17096 8.0366L3.03477 7.73345L2.89581 7.3439L2.89169 7.01882L3.02511 6.16425L3.12692 5.50998L3.28927 4.65817L3.2315 4.41948L3.11042 4.2412L2.74723 4.05325L2.74312 3.93944L2.83115 3.81323L3.36769 3.39622L3.65519 2.7831L3.89592 2.65555L4.26189 2.43332L4.24812 2.19467L4.16558 1.93816L5.11892 1.64874L6.02689 0.888853L6.34742 0.702284L8.455 0L8.72873 0.0480133L9.03554 0.150863L8.9475 0.412864L8.82643 0.619987L9.00527 0.986219L9.26116 0.762646L9.1965 0.613122L9.18135 0.414246L9.6147 0.396413L9.9985 0.427934L10.4195 0.646066L10.3906 1.47318L10.9519 2.28107L10.7937 2.68297L11.2532 2.92027L11.6617 2.63496L11.8667 2.21384L12.6192 1.96972L13.3346 1.34973L13.7308 1.28661L13.8202 1.7955L14.0114 2.23992L13.7404 2.39631L13.3965 2.86816L12.743 4.0615L12.1419 4.41128L11.6906 4.86939L11.5448 5.19448L11.5008 5.57306L11.6136 6.25069L11.9424 6.93786L12.322 7.35211L12.688 7.48108L13.5395 8.13396L13.5258 8.52079L13.6441 8.98029L13.6895 9.53857L13.9853 9.98434L13.3525 10.9527L13.0058 11.6509L12.3289 12.6111L11.7264 13.2338L10.436 14.1569L10.1196 14.4628L9.91324 14.7797L9.81831 15.1103L9.8527 15.4984L10.2778 16.4517L10.8432 17.0127L11.4182 17.3159L12.4184 17.1938L12.384 17.5601L12.4555 17.9976L12.8614 17.977L13.1337 17.9085L13.3635 17.4819L13.8519 17.774L14.1064 18.6629L14.5204 18.9399L14.5686 19.0428L14.4227 19.1114L14.3085 19.2129L14.431 19.2856L14.8313 19.3953L15.0734 19.3254L15.4834 19.5298ZM14.6085 12.2682L14.0128 12.6042L14.127 12.312L14.5204 11.9582L14.6222 12.0432L14.6085 12.2682ZM13.3717 17.0498L13.2699 17.0717L13.0828 17.1965L12.9838 17.2103L12.7031 17.069L12.5958 17.0704L12.461 16.9716L12.5064 16.4339L12.5504 16.2817L13.2328 16.2611L13.6028 16.5834L13.6634 16.6685L13.6785 16.7604L13.5065 16.9401L13.3717 17.0498Z" fill="var(--fill-0, #71B219)" stroke="var(--stroke-0, white)" mask="url(#path-1-inside-1_0_25)"/>
</g>
</svg>
