<svg preserveAspectRatio="none" width="100%" height="100%" overflow="visible" style="display: block;" viewBox="0 0 5.56466 11.7524" fill="none" xmlns="http://www.w3.org/2000/svg">
<g id="TO">
<mask id="path-1-inside-1_0_24" fill="white">
<path d="M5.44089 0.299047L5.29504 0.537648L5.22485 0.534969L5.05566 0.396413L4.99377 0.303149L5.25239 0.0219346L5.38581 0L5.56466 0.0946034L5.55643 0.174221L5.44089 0.299047ZM0.774499 10.5975H0.829497L0.890036 10.4768L1.09777 10.4329L1.07442 10.5632L0.793727 10.9856L0.617651 10.821L0.103194 10.5509L0 10.3423L0.170534 10.1846L0.15265 10.3122L0.239386 10.3698L0.529655 10.3917L0.78827 10.5056L0.627307 10.5426L0.774499 10.5975ZM1.73607 11.1352L1.71407 11.7524L1.52566 11.4699L1.50366 11.3382L1.69485 11.1475L1.73607 11.1352Z"/>
</mask>
<path d="M5.44089 0.299047L5.29504 0.537648L5.22485 0.534969L5.05566 0.396413L4.99377 0.303149L5.25239 0.0219346L5.38581 0L5.56466 0.0946034L5.55643 0.174221L5.44089 0.299047ZM0.774499 10.5975H0.829497L0.890036 10.4768L1.09777 10.4329L1.07442 10.5632L0.793727 10.9856L0.617651 10.821L0.103194 10.5509L0 10.3423L0.170534 10.1846L0.15265 10.3122L0.239386 10.3698L0.529655 10.3917L0.78827 10.5056L0.627307 10.5426L0.774499 10.5975ZM1.73607 11.1352L1.71407 11.7524L1.52566 11.4699L1.50366 11.3382L1.69485 11.1475L1.73607 11.1352Z" fill="var(--fill-0, #71B219)"/>
<path d="M5.44089 0.299047L5.07395 -0.0405887L5.04019 -0.00412193L5.01428 0.0382747L5.44089 0.299047ZM5.29504 0.537648L5.27597 1.03728L5.56881 1.04846L5.72165 0.798421L5.29504 0.537648ZM5.22485 0.534969L4.90805 0.921805L5.03797 1.0282L5.20578 1.03461L5.22485 0.534969ZM5.05566 0.396413L4.63903 0.672856L4.68064 0.735566L4.73886 0.783249L5.05566 0.396413ZM4.99377 0.303149L4.62574 -0.0353056L4.36051 0.253102L4.57714 0.579592L4.99377 0.303149ZM5.25239 0.0219346L5.17128 -0.471442L5.0011 -0.443465L4.88435 -0.31652L5.25239 0.0219346ZM5.38581 0L5.6196 -0.441976L5.4708 -0.520684L5.3047 -0.493377L5.38581 0ZM5.56466 0.0946034L6.06201 0.146006L6.09669 -0.18961L5.79844 -0.347373L5.56466 0.0946034ZM5.55643 0.174221L5.92337 0.513857L6.03664 0.391485L6.05378 0.225623L5.55643 0.174221ZM0.774499 10.5975L0.59971 11.066L0.684258 11.0975H0.774499V10.5975ZM0.829497 10.5975V11.0975H1.13811L1.27645 10.8216L0.829497 10.5975ZM0.890036 10.4768L0.786723 9.98757L0.551056 10.0373L0.443085 10.2526L0.890036 10.4768ZM1.09777 10.4329L1.58993 10.5211L1.72088 9.79029L0.994454 9.9437L1.09777 10.4329ZM1.07442 10.5632L1.49088 10.8399L1.54829 10.7535L1.56659 10.6514L1.07442 10.5632ZM0.793727 10.9856L0.452285 11.3509L0.883502 11.754L1.21018 11.2623L0.793727 10.9856ZM0.617651 10.821L0.959094 10.4558L0.909826 10.4097L0.850118 10.3784L0.617651 10.821ZM0.103194 10.5509L-0.344944 10.7726L-0.272964 10.9181L-0.129273 10.9935L0.103194 10.5509ZM0 10.3423L-0.339502 9.97526L-0.613911 10.2291L-0.448137 10.5641L0 10.3423ZM0.170534 10.1846L0.665693 10.254L0.860321 8.86553L-0.168968 9.81753L0.170534 10.1846ZM0.15265 10.3122L-0.342509 10.2428L-0.386212 10.5545L-0.123952 10.7287L0.15265 10.3122ZM0.239386 10.3698L-0.0372151 10.7863L0.0715357 10.8585L0.20171 10.8684L0.239386 10.3698ZM0.529655 10.3917L0.731126 9.93411L0.652737 9.89959L0.567331 9.89314L0.529655 10.3917ZM0.78827 10.5056L0.900294 10.9929L2.36902 10.6552L0.989741 10.048L0.78827 10.5056ZM0.627307 10.5426L0.515283 10.0553L-1.1085 10.4286L0.452518 11.011L0.627307 10.5426ZM1.73607 11.1351L2.23576 11.153L2.26062 10.4554L1.59216 10.6563L1.73607 11.1351ZM1.71407 11.7524L1.29808 12.0298L2.15852 13.3201L2.21376 11.7702L1.71407 11.7524ZM1.52566 11.4699L1.03249 11.5522L1.05016 11.658L1.10966 11.7473L1.52566 11.4699ZM1.50366 11.3382L1.15062 10.9841L0.967999 11.1662L1.01049 11.4206L1.50366 11.3382ZM1.69485 11.1475L1.55093 10.6687L1.43071 10.7048L1.34181 10.7935L1.69485 11.1475ZM5.44089 0.299047L5.01428 0.0382747L4.86843 0.276876L5.29504 0.537648L5.72165 0.798421L5.8675 0.559819L5.44089 0.299047ZM5.29504 0.537648L5.31411 0.0380122L5.24392 0.0353332L5.22485 0.534969L5.20578 1.03461L5.27597 1.03728L5.29504 0.537648ZM5.22485 0.534969L5.54164 0.148134L5.37245 0.00957737L5.05566 0.396413L4.73886 0.783249L4.90805 0.921805L5.22485 0.534969ZM5.05566 0.396413L5.47228 0.119971L5.4104 0.0267067L4.99377 0.303149L4.57714 0.579592L4.63903 0.672856L5.05566 0.396413ZM4.99377 0.303149L5.36181 0.641604L5.62042 0.36039L5.25239 0.0219346L4.88435 -0.31652L4.62574 -0.0353056L4.99377 0.303149ZM5.25239 0.0219346L5.3335 0.515312L5.46692 0.493377L5.38581 0L5.3047 -0.493377L5.17128 -0.471442L5.25239 0.0219346ZM5.38581 0L5.15202 0.441976L5.33087 0.536579L5.56466 0.0946034L5.79844 -0.347373L5.6196 -0.441976L5.38581 0ZM5.56466 0.0946034L5.0673 0.0432011L5.05908 0.122819L5.55643 0.174221L6.05378 0.225623L6.06201 0.146006L5.56466 0.0946034ZM5.55643 0.174221L5.18948 -0.165415L5.07395 -0.0405887L5.44089 0.299047L5.80783 0.638683L5.92337 0.513857L5.55643 0.174221ZM0.774499 10.5975V11.0975H0.829497V10.5975V10.0975H0.774499V10.5975ZM0.829497 10.5975L1.27645 10.8216L1.33699 10.7009L0.890036 10.4768L0.443085 10.2526L0.382546 10.3734L0.829497 10.5975ZM0.890036 10.4768L0.993349 10.966L1.20108 10.9221L1.09777 10.4329L0.994454 9.9437L0.786723 9.98757L0.890036 10.4768ZM1.09777 10.4329L0.605606 10.3447L0.582263 10.475L1.07442 10.5632L1.56659 10.6514L1.58993 10.5211L1.09777 10.4329ZM1.07442 10.5632L0.657974 10.2865L0.377277 10.7089L0.793727 10.9856L1.21018 11.2623L1.49088 10.8399L1.07442 10.5632ZM0.793727 10.9856L1.13517 10.6204L0.959094 10.4558L0.617651 10.821L0.276209 11.1863L0.452285 11.3509L0.793727 10.9856ZM0.617651 10.821L0.850118 10.3784L0.33566 10.1082L0.103194 10.5509L-0.129273 10.9935L0.385185 11.2637L0.617651 10.821ZM0.103194 10.5509L0.551331 10.3291L0.448137 10.1206L0 10.3423L-0.448137 10.5641L-0.344944 10.7726L0.103194 10.5509ZM0 10.3423L0.339502 10.7094L0.510037 10.5517L0.170534 10.1846L-0.168968 9.81753L-0.339502 9.97526L0 10.3423ZM0.170534 10.1846L-0.324625 10.1152L-0.342509 10.2428L0.15265 10.3122L0.647809 10.3816L0.665693 10.254L0.170534 10.1846ZM0.15265 10.3122L-0.123952 10.7287L-0.0372151 10.7863L0.239386 10.3698L0.515987 9.95326L0.429251 9.89566L0.15265 10.3122ZM0.239386 10.3698L0.20171 10.8684L0.49198 10.8903L0.529655 10.3917L0.567331 9.89314L0.277062 9.87121L0.239386 10.3698ZM0.529655 10.3917L0.328184 10.8493L0.586798 10.9632L0.78827 10.5056L0.989741 10.048L0.731126 9.93411L0.529655 10.3917ZM0.78827 10.5056L0.676245 10.0183L0.515283 10.0553L0.627307 10.5426L0.739332 11.0299L0.900294 10.9929L0.78827 10.5056ZM0.627307 10.5426L0.452518 11.011L0.59971 11.066L0.774499 10.5975L0.949288 10.129L0.802097 10.0741L0.627307 10.5426ZM1.73607 11.1351L1.23639 11.1173L1.21439 11.7346L1.71407 11.7524L2.21376 11.7702L2.23576 11.153L1.73607 11.1351ZM1.71407 11.7524L2.13007 11.475L1.94165 11.1925L1.52566 11.4699L1.10966 11.7473L1.29808 12.0298L1.71407 11.7524ZM1.52566 11.4699L2.01882 11.3875L1.99682 11.2558L1.50366 11.3382L1.01049 11.4206L1.03249 11.5522L1.52566 11.4699ZM1.50366 11.3382L1.85669 11.6922L2.04788 11.5016L1.69485 11.1475L1.34181 10.7935L1.15062 10.9841L1.50366 11.3382ZM1.69485 11.1475L1.83876 11.6264L1.87999 11.614L1.73607 11.1351L1.59216 10.6563L1.55093 10.6687L1.69485 11.1475Z" fill="var(--stroke-0, white)" mask="url(#path-1-inside-1_0_24)"/>
</g>
</svg>
