<svg preserveAspectRatio="none" width="100%" height="100%" overflow="visible" style="display: block;" viewBox="0 0 6 12" fill="none" xmlns="http://www.w3.org/2000/svg"><g id="TO"><mask id="path-1-inside-1_0_24" fill="white"><path d="M5 0L5 0L5 0L5 0L5 0L5 0L5 0L6 0L6 0L5 0ZM1 11H1L1 10L1 10L1 11L1 11L1 11L0 11L0 10L0 10L0 10L0 10L0 10L1 10L1 10L1 11ZM2 11L2 12L2 12L2 11L2 11L2 11Z"/></mask><path d="M5 0L5 0L5 0L5 0L5 0L5 0L5 0L6 0L6 0L5 0ZM1 11H1L1 10L1 10L1 11L1 11L1 11L0 11L0 10L0 10L0 10L0 10L0 10L1 10L1 10L1 11ZM2 11L2 12L2 12L2 11L2 11L2 11Z" fill="var(--fill-0,#71B219)"/><path d="M5 0L5 0L5 0L5 0L5 0ZM5 0L5 1L6 1L6 1L5 0ZM5 0L5 1L5 1L5 1L5 0ZM5 0L5 1L5 1L5 1L5 0ZM5 0L5 0L4 0L5 1L5 0ZM5 0L5 0L5 0L5 0L5 0ZM5 0L6 0L6 0L5 0L5 0ZM6 0L6 0L6 0L6 0L6 0ZM6 0L6 0L6 0L6 0L6 0ZM1 11L1 11L1 11H1V11ZM1 11V11H1L1 11L1 11ZM1 10L1 10L1 10L0 10L1 10ZM1 10L2 10L2 10L1 10L1 10ZM1 11L2 11L2 11L2 11L1 11ZM1 11L0 11L1 12L1 11L1 11ZM1 11L1 10L1 10L1 10L1 11ZM0 11L0 11L0 11L0 11L0 11ZM0 10L0 10L-1 10L0 11L0 10ZM0 10L1 10L1 9L0 10L0 10ZM0 10L0 10L0 11L0 11L0 10ZM0 10L0 11L0 11L0 11L0 10ZM0 10L1 10L1 10L1 10L0 10ZM1 10L1 11L2 11L1 10L1 10ZM1 10L0 10L-1 10L0 11L1 10ZM2 11L2 11L2 10L2 11L2 11ZM2 12L1 12L2 13L2 12L2 12ZM2 12L1 12L1 12L1 12L2 12ZM2 11L1 11L1 11L1 11L2 11ZM2 11L2 11L1 11L1 11L2 11ZM5 0L5 0L5 0L5 0L6 1L6 1L5 0ZM5 0L5 0L5 0L5 0L5 1L5 1L5 0ZM5 0L6 0L5 0L5 0L5 1L5 1L5 0ZM5 0L6 0L5 0L5 0L5 1L5 1L5 0ZM5 0L5 1L6 0L5 0L5 0L5 0L5 0ZM5 0L5 0L6 0L5 0L5 0L5 0L5 0ZM5 0L5 0L5 0L6 0L6 0L6 0L5 0ZM6 0L5 0L5 0L6 0L6 0L6 0L6 0ZM6 0L5 0L5 0L5 0L6 1L6 0L6 0ZM1 11V11H1V11V10H1V11ZM1 11L1 11L1 11L1 10L0 10L0 10L1 11ZM1 10L1 11L1 11L1 10L1 10L1 10L1 10ZM1 10L1 10L1 10L1 11L2 11L2 10L1 10ZM1 11L1 10L0 11L1 11L1 11L2 11L1 11ZM1 11L1 11L1 10L1 11L0 11L0 11L1 11ZM1 11L1 10L0 10L0 11L0 11L0 11L1 11ZM0 11L1 10L0 10L0 10L0 11L0 11L0 11ZM0 10L0 11L0 11L0 10L0 10L0 10L0 10ZM0 10L0 10L0 10L0 10L1 10L1 10L0 10ZM0 10L0 11L0 11L0 10L0 10L0 10L0 10ZM0 10L0 11L0 11L0 10L1 10L0 10L0 10ZM0 10L0 11L1 11L1 10L1 10L1 10L0 10ZM1 10L1 10L0 10L1 10L1 11L1 11L1 10ZM1 10L0 11L1 11L1 11L1 10L1 10L1 10ZM2 11L1 11L1 12L2 12L2 12L2 11L2 11ZM2 12L2 12L2 11L2 12L1 12L1 12L2 12ZM2 12L2 11L2 11L2 11L1 11L1 12L2 12ZM2 11L2 12L2 12L2 11L1 11L1 11L2 11ZM2 11L2 12L2 12L2 11L2 11L2 11L2 11Z" fill="var(--stroke-0,white)" mask="url(#path-1-inside-1_0_24)"/></g></svg>