<svg preserveAspectRatio="none" width="100%" height="100%" overflow="visible" style="display: block;" viewBox="0 0 74 31" fill="none" xmlns="http://www.w3.org/2000/svg"><g id="TR"><mask id="path-1-inside-1_0_220" fill="white"><path d="M9 1L9 1L9 2L10 3L10 3L13 4L13 4L13 5L13 5L13 6L12 6L10 5L10 5L9 5L9 6L8 6L7 6L7 6L6 7L5 8L4 8L3 9L3 10L2 10L2 10L2 10L2 10L2 9L2 9L3 9L3 8L4 8L4 8L4 8L3 8L2 8L2 8L2 7L1 7L2 7L2 7L2 6L2 6L3 6L3 6V5L3 5L2 5L2 5L3 4L3 4L4 4L4 4L4 3L4 2L3 2L3 2L3 2L3 2L2 2L2 2L2 2L3 2L3 1L3 1L3 1L4 1L4 1L4 1L4 1L5 0L5 0L5 0L6 0L6 0L6 0L6 0L7 1L7 1L7 1L8 1H8L8 1L8 1L8 1L9 1ZM61 3L61 3L62 3L62 3L62 3L63 3L63 3L64 3L64 3L64 3L65 3L65 3L65 3L65 3L65 3L66 3L66 3L66 3L66 3L67 3L67 4L68 4L68 4L68 4L68 4L68 5L68 5L68 5L68 5L69 5L69 5L69 5L69 5L69 6L69 6L69 6L70 7L70 7L70 7L70 8L69 8L69 8L69 9L69 9L70 9L70 10L70 10L70 10L70 10L71 10L71 11L72 10L72 10L72 11L73 11L74 12L74 12L74 12L74 12L74 12L74 12L73 12L73 12L72 12L72 14L72 14L72 14L71 14L71 14L71 14L71 14L71 14L71 14L71 14L71 15L72 15L72 15L71 15L71 16L71 16L71 16L72 16L72 16L72 17L72 17L72 18L72 18L72 19L72 19L72 19L72 19L72 19L72 19L72 19L72 20L72 20L72 20L72 20L72 21L72 21L72 21L72 21L72 21L73 22L73 22L73 22L73 22L73 22L73 23L73 23L73 23L73 23L74 24L74 24L74 24L74 24L74 25L74 25L74 25L73 24L73 24L73 25L73 25L72 25L72 25L72 26L72 25L72 25L72 25L72 24L72 24L71 24L71 24L71 24L71 24L70 24L70 24L70 24L69 24L69 24L68 24L68 24L68 24L67 24L67 24L66 24L66 24L66 24L66 24L65 25L64 25L64 24L64 24L64 24L64 24L64 24L63 24L63 25L62 25L61 25L60 25L60 25L60 25L59 25L58 25L58 25L57 25L55 26L54 27L53 27L53 27L52 27L51 27L51 27L50 27L50 26L49 26L49 26L49 26L48 26L47 26L47 26L46 27L46 27L45 27L45 27L44 27L44 27L44 27L44 26L43 26L42 26L42 26L42 27L42 28L42 28L42 29L42 29L42 29L42 29L42 29L41 29L41 30L41 30L41 30L40 31L40 31L40 30L40 30L40 30L40 29L39 29L39 28L40 28L41 27V27L41 26L40 26L40 26L40 26L39 26L39 26L39 27L38 27L38 27L38 27L37 27L36 27L35 26L35 26L34 26L33 27L32 28L32 29L31 29L30 29L30 29L29 30L28 30L28 30L26 30L26 29L26 29L25 28L24 28L24 27L22 26L22 26L20 26L19 26L19 26L19 28L19 28L19 29L18 29L18 29L18 29L18 29L17 29L16 29L16 29L14 29L14 29L13 28L13 28L13 27L13 27L13 27L13 27L12 27L12 27L12 27L11 26L10 26L10 27L9 27L9 27L9 27L9 26L8 27L8 27L7 27L7 27L7 27L7 26L8 26L9 26L9 26L9 26L10 25L10 25L10 25L8 25L6 25L6 25L6 26L6 25L6 25L7 25L7 25L7 24L7 24L7 24L6 24L6 24L6 23L6 22L5 22L5 22L6 22L6 21L6 21L6 21L5 20L5 20L4 20L4 20L4 20L4 20L3 20L3 20L3 19L2 19L3 19L3 19L3 18L3 18L3 18L3 17L3 18L4 18L4 18L4 18L4 19L4 19L4 18L4 18L4 19L5 19L6 18L6 18L5 18L5 18L4 18L4 18L4 17L4 17L4 17L5 17L5 16L5 16L5 16L5 16L4 16L4 16L5 15L5 15L4 14L4 14L4 14L4 14L5 13L5 13L4 13L3 13L3 13L2 13L2 13L2 13L2 12L2 11L2 11L2 10L3 10L4 9L5 9L6 8L6 8L6 9L6 9L7 9L8 9L8 9L8 9L8 8L8 8L8 8L9 8L9 8L9 8L9 9L9 9L10 9L11 9L12 9L13 9L13 8L13 8L12 8L12 8L12 8L13 8L13 7L15 7L16 7L16 7H16L14 7L14 6L13 6L13 6L13 6L13 5L13 5L13 4L14 4L16 5L18 5L20 5L22 5L22 5L22 4L25 3L26 2L26 2L28 1L29 0L30 0L33 1L35 1L36 0L37 0L37 0L36 1L36 1L37 2L37 2L38 2L40 2L40 2L40 2L41 3L41 4L42 4L42 4L42 4L42 4L43 4L44 4L44 5L45 5L47 5L47 6L49 6L50 6L51 6L53 5L55 6L55 6L55 6L56 6L56 6L58 5L58 5L59 4L60 4L61 4L61 3ZM1 10L0 10L0 10L0 10L1 10L1 10L1 10L1 10Z"/></mask><path d="M9 1L9 1L9 2L10 3L10 3L13 4L13 4L13 5L13 5L13 6L12 6L10 5L10 5L9 5L9 6L8 6L7 6L7 6L6 7L5 8L4 8L3 9L3 10L2 10L2 10L2 10L2 10L2 9L2 9L3 9L3 8L4 8L4 8L4 8L3 8L2 8L2 8L2 7L1 7L2 7L2 7L2 6L2 6L3 6L3 6V5L3 5L2 5L2 5L3 4L3 4L4 4L4 4L4 3L4 2L3 2L3 2L3 2L3 2L2 2L2 2L2 2L3 2L3 1L3 1L3 1L4 1L4 1L4 1L4 1L5 0L5 0L5 0L6 0L6 0L6 0L6 0L7 1L7 1L7 1L8 1H8L8 1L8 1L8 1L9 1ZM61 3L61 3L62 3L62 3L62 3L63 3L63 3L64 3L64 3L64 3L65 3L65 3L65 3L65 3L65 3L66 3L66 3L66 3L66 3L67 3L67 4L68 4L68 4L68 4L68 4L68 5L68 5L68 5L68 5L69 5L69 5L69 5L69 5L69 6L69 6L69 6L70 7L70 7L70 7L70 8L69 8L69 8L69 9L69 9L70 9L70 10L70 10L70 10L70 10L71 10L71 11L72 10L72 10L72 11L73 11L74 12L74 12L74 12L74 12L74 12L74 12L73 12L73 12L72 12L72 14L72 14L72 14L71 14L71 14L71 14L71 14L71 14L71 14L71 14L71 15L72 15L72 15L71 15L71 16L71 16L71 16L72 16L72 16L72 17L72 17L72 18L72 18L72 19L72 19L72 19L72 19L72 19L72 19L72 19L72 20L72 20L72 20L72 20L72 21L72 21L72 21L72 21L72 21L73 22L73 22L73 22L73 22L73 22L73 23L73 23L73 23L73 23L74 24L74 24L74 24L74 24L74 25L74 25L74 25L73 24L73 24L73 25L73 25L72 25L72 25L72 26L72 25L72 25L72 25L72 24L72 24L71 24L71 24L71 24L71 24L70 24L70 24L70 24L69 24L69 24L68 24L68 24L68 24L67 24L67 24L66 24L66 24L66 24L66 24L65 25L64 25L64 24L64 24L64 24L64 24L64 24L63 24L63 25L62 25L61 25L60 25L60 25L60 25L59 25L58 25L58 25L57 25L55 26L54 27L53 27L53 27L52 27L51 27L51 27L50 27L50 26L49 26L49 26L49 26L48 26L47 26L47 26L46 27L46 27L45 27L45 27L44 27L44 27L44 27L44 26L43 26L42 26L42 26L42 27L42 28L42 28L42 29L42 29L42 29L42 29L42 29L41 29L41 30L41 30L41 30L40 31L40 31L40 30L40 30L40 30L40 29L39 29L39 28L40 28L41 27V27L41 26L40 26L40 26L40 26L39 26L39 26L39 27L38 27L38 27L38 27L37 27L36 27L35 26L35 26L34 26L33 27L32 28L32 29L31 29L30 29L30 29L29 30L28 30L28 30L26 30L26 29L26 29L25 28L24 28L24 27L22 26L22 26L20 26L19 26L19 26L19 28L19 28L19 29L18 29L18 29L18 29L18 29L17 29L16 29L16 29L14 29L14 29L13 28L13 28L13 27L13 27L13 27L13 27L12 27L12 27L12 27L11 26L10 26L10 27L9 27L9 27L9 27L9 26L8 27L8 27L7 27L7 27L7 27L7 26L8 26L9 26L9 26L9 26L10 25L10 25L10 25L8 25L6 25L6 25L6 26L6 25L6 25L7 25L7 25L7 24L7 24L7 24L6 24L6 24L6 23L6 22L5 22L5 22L6 22L6 21L6 21L6 21L5 20L5 20L4 20L4 20L4 20L4 20L3 20L3 20L3 19L2 19L3 19L3 19L3 18L3 18L3 18L3 17L3 18L4 18L4 18L4 18L4 19L4 19L4 18L4 18L4 19L5 19L6 18L6 18L5 18L5 18L4 18L4 18L4 17L4 17L4 17L5 17L5 16L5 16L5 16L5 16L4 16L4 16L5 15L5 15L4 14L4 14L4 14L4 14L5 13L5 13L4 13L3 13L3 13L2 13L2 13L2 13L2 12L2 11L2 11L2 10L3 10L4 9L5 9L6 8L6 8L6 9L6 9L7 9L8 9L8 9L8 9L8 8L8 8L8 8L9 8L9 8L9 8L9 9L9 9L10 9L11 9L12 9L13 9L13 8L13 8L12 8L12 8L12 8L13 8L13 7L15 7L16 7L16 7H16L14 7L14 6L13 6L13 6L13 6L13 5L13 5L13 4L14 4L16 5L18 5L20 5L22 5L22 5L22 4L25 3L26 2L26 2L28 1L29 0L30 0L33 1L35 1L36 0L37 0L37 0L36 1L36 1L37 2L37 2L38 2L40 2L40 2L40 2L41 3L41 4L42 4L42 4L42 4L42 4L43 4L44 4L44 5L45 5L47 5L47 6L49 6L50 6L51 6L53 5L55 6L55 6L55 6L56 6L56 6L58 5L58 5L59 4L60 4L61 4L61 3ZM1 10L0 10L0 10L0 10L1 10L1 10L1 10L1 10Z" fill="var(--fill-0,#71B219)" stroke="var(--stroke-0,white)" mask="url(#path-1-inside-1_0_220)"/></g></svg>