<svg preserveAspectRatio="none" width="100%" height="100%" overflow="visible" style="display: block;" viewBox="0 0 73.9325 30.9173" fill="none" xmlns="http://www.w3.org/2000/svg">
<g id="TR">
<mask id="path-1-inside-1_0_220" fill="white">
<path d="M9.0562 0.644643L8.95166 1.23311L9.19516 1.88051L9.7647 2.77623L10.3384 3.22752L12.6564 4.34129L13.0829 4.43594L12.9865 4.89133L12.8462 5.29461L12.6935 5.56347L12.0139 5.73627L10.1402 5.24111L9.66562 5.19448L9.33135 5.29323L8.71228 5.65259L8.02577 5.5374L7.06831 5.74042L6.80139 6.41662L6.13697 7.18889L5.04331 7.8116L4.26193 8.14493L3.08708 9.33555L2.55465 10.0282L2.33038 10.1627L2.06354 10.2697L2.15296 9.93633L2.28504 9.6318L2.25473 9.40136L2.26027 9.06669L2.65096 8.68673L3.00723 8.41104L4.05966 7.91039L4.33758 7.49338L3.51212 7.50297L2.67296 7.59489L2.14608 7.53591L1.68662 7.5702L1.54211 7.20535L1.43069 6.98587L1.55043 6.91731L1.70173 6.86929L1.97135 6.47975L2.21208 6.19305L2.55877 5.83092L2.64685 5.61421V5.41257L2.56288 5.27267L2.54643 5.10532L2.53543 4.87078L2.55465 4.38382L3.34981 3.85161L3.60431 3.7954L3.69096 3.55123L3.63319 2.98608L3.52311 2.52934L3.38004 2.49916L3.18885 2.36609L3.06365 2.21112L2.86281 2.04239L2.51754 1.93816L2.50654 1.79412L2.54231 1.65008L2.67019 1.50193L3.2535 1.37439L3.32227 1.27016L3.40069 1.01226L3.51623 0.748916L3.65385 0.662475L3.90012 0.670721L4.36781 0.610359L4.69385 0.52396L5.01712 0.342916L5.18362 0.178281L5.88524 0.0836361L6.08197 0L6.27727 0.0712874L6.54 0.352502L6.972 0.755781L7.20316 0.890193L7.37647 0.828449L7.69016 0.681689H7.99L8.23216 0.707767L8.34904 0.580178L8.53209 0.55276L9.0562 0.644643ZM61.1606 2.96552L61.4164 3.06841L61.9007 3.20006L62.2006 3.35917L62.3712 3.4017L62.766 3.078L63.3521 3.08625L63.868 3.12325L64.1335 3.18361L64.4595 3.29061L64.8529 3.36332L65.0138 3.20831L65.2437 2.75154L65.333 2.69394L65.3963 2.65279L65.688 2.61712L65.9645 2.65141L66.0952 2.7296L66.2259 3.09583L66.5546 3.22614L67.1352 3.80908L67.4902 4.04229L67.5768 4.13965L67.4599 4.25761L67.5066 4.40303L67.7089 4.59232L67.9936 4.66365L68.3018 4.63758L68.4696 4.70618L68.5893 4.81314L68.6209 4.96404L68.6127 5.06007L68.6732 5.27539L68.914 5.57993L69.2001 5.76645L69.3542 5.96537L69.6046 6.64982L69.7064 7.02702L69.6678 7.39049L69.4945 7.76225L69.1148 8.22447L69.2084 8.4179L69.2937 8.67304L69.2648 8.85818L69.5344 9.44799L69.6568 9.81426L69.555 9.89928L69.489 10.0159L69.9733 10.2971L70.5538 10.533L70.7987 10.5782L71.4645 10.4699L71.8937 10.4466L72.3202 10.6702L72.9406 11.212L73.6106 11.917L73.744 12.131L73.8018 12.2256L73.9325 12.3957L73.7963 12.393L73.5762 12.2407L73.0438 11.8073L72.7714 11.9938L72.5362 12.3148L72.2789 13.5315L72.0712 13.6604L71.7039 13.6576L71.254 13.6151L70.9445 13.6755L70.8647 13.7523L70.906 13.8826L70.9982 14.0829L71.0628 14.3353L71.082 14.541L71.2444 14.7276L71.4632 14.9045L71.4727 15.0856L71.4397 15.3421L71.3889 15.5368L71.3338 15.6479L71.4356 15.9442L71.6736 16.294L71.825 16.4284L71.7685 17.0937L71.858 17.3886L71.9267 17.7946L71.8992 18.4695L71.9281 18.6354L72.0093 18.6917L72.2267 18.7177L72.4385 18.7794L72.5128 18.8905L72.5114 18.9715L72.2459 19.2801L72.2142 19.4996L72.1221 19.8082L72.0464 19.9893L71.8098 20.3322L71.6599 20.6806L71.591 20.9672L71.6365 21.103L72.0739 21.1442L72.3105 21.3499L72.942 21.7601L73.0534 21.9261L72.8814 22.1784L72.8842 22.284L72.9667 22.4185L73.0053 22.653L72.9902 22.9123L72.9929 23.2552L73.1085 23.3114L73.5377 23.6324L73.8431 23.9534L73.8527 24.0535L73.7056 24.3073L73.7371 24.5994L73.7317 24.6666L73.5996 24.5569L73.3616 24.5171L73.1167 24.5048L72.9626 24.5912L72.693 24.8202L72.3299 25.0699L72.0354 25.299L71.8662 25.4567L71.7259 25.4306L71.6172 25.2935L71.5567 25.1015L71.5828 24.3759L71.5182 24.1481L71.3806 23.989L71.2182 23.8985L71.0256 23.8478L70.8262 23.8423L70.5442 24.0549L70.1438 24.2757L69.5234 24.2579L69.1066 24.2168L68.9057 24.1756L68.0982 23.8382L67.9303 23.8299L67.629 23.6927L67.2714 23.5844L66.6688 23.7902L66.4089 23.7408L66.0443 23.5624L65.915 23.6105L65.5077 24.1536L64.8144 24.7338L64.4402 24.8313L64.2628 24.2483L64.0908 24.0219L64.0096 23.9945L63.8363 23.9218L63.7015 23.963L63.2847 24.3607L62.616 24.5994L62.063 24.7448L61.1826 24.9218L60.503 25.0095L60.2141 25.0164L59.5868 24.9369L59.0337 24.8258L58.4807 24.8299L58.0556 24.8806L57.0706 25.3072L55.395 26.1837L54.1212 26.6021L53.4072 26.7763L52.8472 26.875L51.8898 26.8805L51.1097 26.8133L50.5691 26.8201L50.2692 26.7145L49.8413 26.3606L49.3241 26.0109L49.093 25.9286L48.7917 25.8613L48.3515 25.8216L47.2509 26.3346L46.9084 26.4745L46.5314 26.5787L45.7707 26.8915L45.4336 27.0588L45.0113 27.0437L44.4721 26.9998L44.0043 27.0149L43.692 26.7776L43.5228 26.5102L42.8859 26.3455L42.4305 26.2976L42.3136 26.4169L42.1925 26.7818L41.9985 27.7131L41.9628 27.9463L42.3644 28.8694L42.3466 29.0093L42.0604 29.0573L41.7317 29.0738L41.5171 29.1561L41.3396 29.3083L41.2323 30.1039L40.8512 30.2493L40.6696 30.4153L40.4825 30.9063L40.3807 30.9173L39.7644 30.5456L39.4755 30.5154L39.7245 30.13L39.4549 29.366L39.1605 28.65L39.4383 28.1918L40.0134 27.6377L40.6174 26.9875V26.5856L40.5857 26.2784L40.4123 26.0657L40.0794 25.7832L39.5223 26.085L39.1247 26.4182L38.8647 26.4855L38.5827 26.6748L38.4451 27.0177L38.1039 27.2838L37.5468 27.388L36.709 27.1027L35.8093 26.6693L35.3003 26.3167L34.8848 26.2317L34.49 26.3867L33.3248 27.2481L32.2586 28.5045L31.9945 28.7213L30.9902 29.2603L30.3271 29.44L30.0149 29.3989L28.6928 29.6348L28.0366 29.6691L27.5166 29.953L26.5082 29.6458L25.9057 29.2521L25.5425 28.8516L24.951 27.9888L24.5313 27.5787L23.589 27.2084L21.9464 26.3085L21.5144 26.2097L20.3932 26.0808L19.2116 25.9985L18.9722 26.3264L18.8814 27.6226L18.6792 27.9778L18.5925 28.6486L18.448 28.8406L18.221 28.9668L17.8661 28.7556L17.6199 28.6623L17.0462 28.938L15.9112 29.3234L15.5247 29.3783L14.2095 28.8928L13.728 28.58L13.4171 28.2343L13.3126 27.6486L13.1172 27.3153L13.0883 27.0862L13.0113 26.8229L12.7458 26.7186L12.461 26.9189L12.1556 26.9107L11.7732 26.7886L10.8694 26.2962L10.176 26.2564L9.75782 26.8572L9.43312 27.0479L9.0782 27.1055L9.05754 26.9354L9.32716 26.5458L8.2445 26.6172L7.67362 26.9134L7.22785 26.8668L6.89358 26.7337L6.94312 26.5705L7.2815 26.5102L7.57597 26.3771L8.74805 26.2687L9.02177 26.1604L9.3217 25.7365L9.86647 25.3717L9.93666 25.2153L9.517 25.2139L7.72039 25.3195L6.48777 25.262L6.34193 25.443L6.15619 25.4691L6.10531 24.9766L6.3007 24.7476L6.56208 24.7695L7.20728 24.5706L7.14951 24.1605L6.68862 23.8834L6.59508 23.7188L6.25939 23.6804L5.98835 23.4842L5.92923 22.9905L5.71327 22.4473L5.40512 22.1853L5.44358 22.0412L6.009 21.8575L6.12597 21.0962L6.03931 20.6284L5.7545 20.5887L4.92501 20.2183L4.67319 20.2581L4.39812 19.8507L3.91658 19.5585L3.67862 19.6655L3.52866 19.7986L3.30581 19.7355L2.933 19.4817L2.56565 19.3446L2.40335 19.1745L2.60697 18.7205L2.88758 18.7314L2.93846 18.3762L2.71696 17.7823L2.73896 17.4764L2.98389 17.3927L3.26316 17.4503L3.5452 17.8056L3.63731 18.1485L3.5782 18.4832L3.75704 18.8069L3.88492 18.8892L3.97023 18.5476L4.08997 18.4832L4.25504 18.6313L4.60854 18.7054L5.52477 18.4969L5.70085 18.3199L5.02954 18.3405L4.78461 18.1746L4.51777 17.8028L4.35404 17.4654L4.32515 17.2994L4.23304 17.0567L4.33481 16.9263L4.79427 16.7316L5.19739 16.1843L5.02811 16.0265L4.83558 15.9511L4.62642 16.0073L4.42835 15.8194L4.40224 15.5588L4.56043 15.3476L4.57697 15.0568L4.05831 14.3394L3.91381 14.183L4.02666 13.9484L4.42289 13.5548L4.79981 13.0664L4.75439 12.906L4.47512 12.8401L3.15173 13.05L2.63719 13.2311L1.71962 13.3147L1.65362 13.0486L1.67419 12.81L1.88058 12.3738L1.86127 11.2956L1.98377 10.7099L2.49412 10.5344L3.12008 9.67161L4.13396 8.65106L5.19328 8.67027L5.61697 8.38772L6.24562 8.37127L6.35981 8.57563L6.43135 8.77178L6.983 9.05434L7.957 9.00909L8.19362 8.89799L8.42335 8.74299L7.97212 8.24096L8.1152 8.0983L8.52377 8.08185L8.96678 8.19981L8.98743 8.31501L8.87047 8.47274L8.73293 8.74847L8.86358 8.80197L10.1237 8.63461L11.4417 8.76902L11.8612 8.69635L12.8971 8.70184L13.0829 8.529L12.7692 8.31091L12.4624 8.23548L12.256 8.12982L12.0497 7.97486L12.7073 7.4879L13.0787 7.39464L14.8299 7.09425L16.1327 6.94473L16.1493 6.83225H15.9608L14.2783 6.5826L13.8725 6.39058L13.3098 5.93105L13.1874 5.80074L13.0457 5.57578L13.131 5.09707L13.2355 4.71167L13.4432 4.48805L14.116 4.45377L16.4217 4.84608L18.0642 4.61154L19.8595 5.18213L21.5777 5.06689L21.9313 4.81041L22.3619 3.9833L24.7886 2.60616L25.6374 1.88604L26.5481 1.49097L28.1095 1.05206L29.4151 0.470463L29.7879 0.403236L32.9217 0.681689L35.0746 0.717353L36.0624 0.167314L36.6361 0.352502L36.5824 0.548658L36.4779 0.717353L36.5095 1.05617L36.8452 1.55409L37.1877 1.89286L38.192 2.37844L39.5883 1.96968L39.8139 2.01497L40.0987 2.12879L40.5912 3.44147L40.9736 3.90373L41.4634 4.21785L41.8664 4.27959L42.165 3.95174L42.3961 3.82005L42.901 3.76383L43.7278 4.21374L44.014 4.67734L45.4212 5.03537L46.713 5.21503L47.2702 5.60734L49.0888 5.99965L49.7685 5.93929L50.9075 5.52781L53.1252 5.07652L54.5985 5.70609L54.9974 5.78839L55.3413 5.73355L55.8367 5.90639L56.3649 5.81308L57.9951 5.06965L58.5055 4.64716L59.0462 4.53883L59.5248 4.28507L60.8015 3.4552L61.1606 2.96552ZM1.16242 9.96513L0.275155 10.1201L0 9.96789L0.277926 9.66474L0.795155 9.47683L0.963002 9.45485L1.18996 9.75662L1.16242 9.96513Z"/>
</mask>
<path d="M9.0562 0.644643L8.95166 1.23311L9.19516 1.88051L9.7647 2.77623L10.3384 3.22752L12.6564 4.34129L13.0829 4.43594L12.9865 4.89133L12.8462 5.29461L12.6935 5.56347L12.0139 5.73627L10.1402 5.24111L9.66562 5.19448L9.33135 5.29323L8.71228 5.65259L8.02577 5.5374L7.06831 5.74042L6.80139 6.41662L6.13697 7.18889L5.04331 7.8116L4.26193 8.14493L3.08708 9.33555L2.55465 10.0282L2.33038 10.1627L2.06354 10.2697L2.15296 9.93633L2.28504 9.6318L2.25473 9.40136L2.26027 9.06669L2.65096 8.68673L3.00723 8.41104L4.05966 7.91039L4.33758 7.49338L3.51212 7.50297L2.67296 7.59489L2.14608 7.53591L1.68662 7.5702L1.54211 7.20535L1.43069 6.98587L1.55043 6.91731L1.70173 6.86929L1.97135 6.47975L2.21208 6.19305L2.55877 5.83092L2.64685 5.61421V5.41257L2.56288 5.27267L2.54643 5.10532L2.53543 4.87078L2.55465 4.38382L3.34981 3.85161L3.60431 3.7954L3.69096 3.55123L3.63319 2.98608L3.52311 2.52934L3.38004 2.49916L3.18885 2.36609L3.06365 2.21112L2.86281 2.04239L2.51754 1.93816L2.50654 1.79412L2.54231 1.65008L2.67019 1.50193L3.2535 1.37439L3.32227 1.27016L3.40069 1.01226L3.51623 0.748916L3.65385 0.662475L3.90012 0.670721L4.36781 0.610359L4.69385 0.52396L5.01712 0.342916L5.18362 0.178281L5.88524 0.0836361L6.08197 0L6.27727 0.0712874L6.54 0.352502L6.972 0.755781L7.20316 0.890193L7.37647 0.828449L7.69016 0.681689H7.99L8.23216 0.707767L8.34904 0.580178L8.53209 0.55276L9.0562 0.644643ZM61.1606 2.96552L61.4164 3.06841L61.9007 3.20006L62.2006 3.35917L62.3712 3.4017L62.766 3.078L63.3521 3.08625L63.868 3.12325L64.1335 3.18361L64.4595 3.29061L64.8529 3.36332L65.0138 3.20831L65.2437 2.75154L65.333 2.69394L65.3963 2.65279L65.688 2.61712L65.9645 2.65141L66.0952 2.7296L66.2259 3.09583L66.5546 3.22614L67.1352 3.80908L67.4902 4.04229L67.5768 4.13965L67.4599 4.25761L67.5066 4.40303L67.7089 4.59232L67.9936 4.66365L68.3018 4.63758L68.4696 4.70618L68.5893 4.81314L68.6209 4.96404L68.6127 5.06007L68.6732 5.27539L68.914 5.57993L69.2001 5.76645L69.3542 5.96537L69.6046 6.64982L69.7064 7.02702L69.6678 7.39049L69.4945 7.76225L69.1148 8.22447L69.2084 8.4179L69.2937 8.67304L69.2648 8.85818L69.5344 9.44799L69.6568 9.81426L69.555 9.89928L69.489 10.0159L69.9733 10.2971L70.5538 10.533L70.7987 10.5782L71.4645 10.4699L71.8937 10.4466L72.3202 10.6702L72.9406 11.212L73.6106 11.917L73.744 12.131L73.8018 12.2256L73.9325 12.3957L73.7963 12.393L73.5762 12.2407L73.0438 11.8073L72.7714 11.9938L72.5362 12.3148L72.2789 13.5315L72.0712 13.6604L71.7039 13.6576L71.254 13.6151L70.9445 13.6755L70.8647 13.7523L70.906 13.8826L70.9982 14.0829L71.0628 14.3353L71.082 14.541L71.2444 14.7276L71.4632 14.9045L71.4727 15.0856L71.4397 15.3421L71.3889 15.5368L71.3338 15.6479L71.4356 15.9442L71.6736 16.294L71.825 16.4284L71.7685 17.0937L71.858 17.3886L71.9267 17.7946L71.8992 18.4695L71.9281 18.6354L72.0093 18.6917L72.2267 18.7177L72.4385 18.7794L72.5128 18.8905L72.5114 18.9715L72.2459 19.2801L72.2142 19.4996L72.1221 19.8082L72.0464 19.9893L71.8098 20.3322L71.6599 20.6806L71.591 20.9672L71.6365 21.103L72.0739 21.1442L72.3105 21.3499L72.942 21.7601L73.0534 21.9261L72.8814 22.1784L72.8842 22.284L72.9667 22.4185L73.0053 22.653L72.9902 22.9123L72.9929 23.2552L73.1085 23.3114L73.5377 23.6324L73.8431 23.9534L73.8527 24.0535L73.7056 24.3073L73.7371 24.5994L73.7317 24.6666L73.5996 24.5569L73.3616 24.5171L73.1167 24.5048L72.9626 24.5912L72.693 24.8202L72.3299 25.0699L72.0354 25.299L71.8662 25.4567L71.7259 25.4306L71.6172 25.2935L71.5567 25.1015L71.5828 24.3759L71.5182 24.1481L71.3806 23.989L71.2182 23.8985L71.0256 23.8478L70.8262 23.8423L70.5442 24.0549L70.1438 24.2757L69.5234 24.2579L69.1066 24.2168L68.9057 24.1756L68.0982 23.8382L67.9303 23.8299L67.629 23.6927L67.2714 23.5844L66.6688 23.7902L66.4089 23.7408L66.0443 23.5624L65.915 23.6105L65.5077 24.1536L64.8144 24.7338L64.4402 24.8313L64.2628 24.2483L64.0908 24.0219L64.0096 23.9945L63.8363 23.9218L63.7015 23.963L63.2847 24.3607L62.616 24.5994L62.063 24.7448L61.1826 24.9218L60.503 25.0095L60.2141 25.0164L59.5868 24.9369L59.0337 24.8258L58.4807 24.8299L58.0556 24.8806L57.0706 25.3072L55.395 26.1837L54.1212 26.6021L53.4072 26.7763L52.8472 26.875L51.8898 26.8805L51.1097 26.8133L50.5691 26.8201L50.2692 26.7145L49.8413 26.3606L49.3241 26.0109L49.093 25.9286L48.7917 25.8613L48.3515 25.8216L47.2509 26.3346L46.9084 26.4745L46.5314 26.5787L45.7707 26.8915L45.4336 27.0588L45.0113 27.0437L44.4721 26.9998L44.0043 27.0149L43.692 26.7776L43.5228 26.5102L42.8859 26.3455L42.4305 26.2976L42.3136 26.4169L42.1925 26.7818L41.9985 27.7131L41.9628 27.9463L42.3644 28.8694L42.3466 29.0093L42.0604 29.0573L41.7317 29.0738L41.5171 29.1561L41.3396 29.3083L41.2323 30.1039L40.8512 30.2493L40.6696 30.4153L40.4825 30.9063L40.3807 30.9173L39.7644 30.5456L39.4755 30.5154L39.7245 30.13L39.4549 29.366L39.1605 28.65L39.4383 28.1918L40.0134 27.6377L40.6174 26.9875V26.5856L40.5857 26.2784L40.4123 26.0657L40.0794 25.7832L39.5223 26.085L39.1247 26.4182L38.8647 26.4855L38.5827 26.6748L38.4451 27.0177L38.1039 27.2838L37.5468 27.388L36.709 27.1027L35.8093 26.6693L35.3003 26.3167L34.8848 26.2317L34.49 26.3867L33.3248 27.2481L32.2586 28.5045L31.9945 28.7213L30.9902 29.2603L30.3271 29.44L30.0149 29.3989L28.6928 29.6348L28.0366 29.6691L27.5166 29.953L26.5082 29.6458L25.9057 29.2521L25.5425 28.8516L24.951 27.9888L24.5313 27.5787L23.589 27.2084L21.9464 26.3085L21.5144 26.2097L20.3932 26.0808L19.2116 25.9985L18.9722 26.3264L18.8814 27.6226L18.6792 27.9778L18.5925 28.6486L18.448 28.8406L18.221 28.9668L17.8661 28.7556L17.6199 28.6623L17.0462 28.938L15.9112 29.3234L15.5247 29.3783L14.2095 28.8928L13.728 28.58L13.4171 28.2343L13.3126 27.6486L13.1172 27.3153L13.0883 27.0862L13.0113 26.8229L12.7458 26.7186L12.461 26.9189L12.1556 26.9107L11.7732 26.7886L10.8694 26.2962L10.176 26.2564L9.75782 26.8572L9.43312 27.0479L9.0782 27.1055L9.05754 26.9354L9.32716 26.5458L8.2445 26.6172L7.67362 26.9134L7.22785 26.8668L6.89358 26.7337L6.94312 26.5705L7.2815 26.5102L7.57597 26.3771L8.74805 26.2687L9.02177 26.1604L9.3217 25.7365L9.86647 25.3717L9.93666 25.2153L9.517 25.2139L7.72039 25.3195L6.48777 25.262L6.34193 25.443L6.15619 25.4691L6.10531 24.9766L6.3007 24.7476L6.56208 24.7695L7.20728 24.5706L7.14951 24.1605L6.68862 23.8834L6.59508 23.7188L6.25939 23.6804L5.98835 23.4842L5.92923 22.9905L5.71327 22.4473L5.40512 22.1853L5.44358 22.0412L6.009 21.8575L6.12597 21.0962L6.03931 20.6284L5.7545 20.5887L4.92501 20.2183L4.67319 20.2581L4.39812 19.8507L3.91658 19.5585L3.67862 19.6655L3.52866 19.7986L3.30581 19.7355L2.933 19.4817L2.56565 19.3446L2.40335 19.1745L2.60697 18.7205L2.88758 18.7314L2.93846 18.3762L2.71696 17.7823L2.73896 17.4764L2.98389 17.3927L3.26316 17.4503L3.5452 17.8056L3.63731 18.1485L3.5782 18.4832L3.75704 18.8069L3.88492 18.8892L3.97023 18.5476L4.08997 18.4832L4.25504 18.6313L4.60854 18.7054L5.52477 18.4969L5.70085 18.3199L5.02954 18.3405L4.78461 18.1746L4.51777 17.8028L4.35404 17.4654L4.32515 17.2994L4.23304 17.0567L4.33481 16.9263L4.79427 16.7316L5.19739 16.1843L5.02811 16.0265L4.83558 15.9511L4.62642 16.0073L4.42835 15.8194L4.40224 15.5588L4.56043 15.3476L4.57697 15.0568L4.05831 14.3394L3.91381 14.183L4.02666 13.9484L4.42289 13.5548L4.79981 13.0664L4.75439 12.906L4.47512 12.8401L3.15173 13.05L2.63719 13.2311L1.71962 13.3147L1.65362 13.0486L1.67419 12.81L1.88058 12.3738L1.86127 11.2956L1.98377 10.7099L2.49412 10.5344L3.12008 9.67161L4.13396 8.65106L5.19328 8.67027L5.61697 8.38772L6.24562 8.37127L6.35981 8.57563L6.43135 8.77178L6.983 9.05434L7.957 9.00909L8.19362 8.89799L8.42335 8.74299L7.97212 8.24096L8.1152 8.0983L8.52377 8.08185L8.96678 8.19981L8.98743 8.31501L8.87047 8.47274L8.73293 8.74847L8.86358 8.80197L10.1237 8.63461L11.4417 8.76902L11.8612 8.69635L12.8971 8.70184L13.0829 8.529L12.7692 8.31091L12.4624 8.23548L12.256 8.12982L12.0497 7.97486L12.7073 7.4879L13.0787 7.39464L14.8299 7.09425L16.1327 6.94473L16.1493 6.83225H15.9608L14.2783 6.5826L13.8725 6.39058L13.3098 5.93105L13.1874 5.80074L13.0457 5.57578L13.131 5.09707L13.2355 4.71167L13.4432 4.48805L14.116 4.45377L16.4217 4.84608L18.0642 4.61154L19.8595 5.18213L21.5777 5.06689L21.9313 4.81041L22.3619 3.9833L24.7886 2.60616L25.6374 1.88604L26.5481 1.49097L28.1095 1.05206L29.4151 0.470463L29.7879 0.403236L32.9217 0.681689L35.0746 0.717353L36.0624 0.167314L36.6361 0.352502L36.5824 0.548658L36.4779 0.717353L36.5095 1.05617L36.8452 1.55409L37.1877 1.89286L38.192 2.37844L39.5883 1.96968L39.8139 2.01497L40.0987 2.12879L40.5912 3.44147L40.9736 3.90373L41.4634 4.21785L41.8664 4.27959L42.165 3.95174L42.3961 3.82005L42.901 3.76383L43.7278 4.21374L44.014 4.67734L45.4212 5.03537L46.713 5.21503L47.2702 5.60734L49.0888 5.99965L49.7685 5.93929L50.9075 5.52781L53.1252 5.07652L54.5985 5.70609L54.9974 5.78839L55.3413 5.73355L55.8367 5.90639L56.3649 5.81308L57.9951 5.06965L58.5055 4.64716L59.0462 4.53883L59.5248 4.28507L60.8015 3.4552L61.1606 2.96552ZM1.16242 9.96513L0.275155 10.1201L0 9.96789L0.277926 9.66474L0.795155 9.47683L0.963002 9.45485L1.18996 9.75662L1.16242 9.96513Z" fill="var(--fill-0, #71B219)" stroke="var(--stroke-0, white)" mask="url(#path-1-inside-1_0_220)"/>
</g>
</svg>
