<svg preserveAspectRatio="none" width="100%" height="100%" overflow="visible" style="display: block;" viewBox="0 0 5.32947 4.90644" fill="none" xmlns="http://www.w3.org/2000/svg">
<path id="TT" d="M3.30664 2.22949L3.1748 2.39551L3.10938 2.47852L3.12207 2.58301L3.17285 2.97363L3.11328 3.22363L3.10059 3.27832L3.1123 3.33398L3.19336 3.70703L3.20508 3.76074L3.23828 3.80469L3.33008 3.92676L3.28027 4.02832L3.25684 4.0752L3.25391 4.12695L3.23828 4.44531L2.77832 4.60547L1.20215 4.65527L1.05273 4.6377L1.05762 4.63574L1.12598 4.60156L1.16406 4.53418L1.21094 4.44824L1.48145 4.42383L1.53125 4.41992L1.5752 4.39648L1.80371 4.27539L1.82031 4.14648L1.9541 3.09473L1.95898 3.05273L1.9502 3.01172L1.89844 2.76074L1.89062 2.72168L1.87012 2.6875L1.79004 2.54883L1.75879 2.49414L1.70508 2.46094L1.67188 2.43945L1.73828 2.43164L1.76367 2.42871L1.78711 2.41992L2.11719 2.30566L2.83887 2.28125L2.87109 2.28027L2.90234 2.27051L3.24121 2.16699L3.34961 2.16113L3.30664 2.22949Z" fill="var(--fill-0, #71B219)" stroke="var(--stroke-0, white)" stroke-width="0.5"/>
</svg>
