<svg preserveAspectRatio="none" width="100%" height="100%" overflow="visible" style="display: block;" viewBox="0 0 11 10" fill="none" xmlns="http://www.w3.org/2000/svg"><g id="TV"><mask id="path-1-inside-1_0_22" fill="white"><path d="M4 0L4 0L4 0L4 0L4 0L4 0L4 0ZM0 1L0 1L0 1L0 1L0 1L0 1ZM9 5L9 5L9 5V5L9 5ZM11 10L11 10L11 9L11 9L11 9L11 9L11 9L11 9L11 10L11 10Z"/></mask><path d="M4 0L4 0L4 0L4 0L4 0L4 0L4 0ZM0 1L0 1L0 1L0 1L0 1L0 1ZM9 5L9 5L9 5V5L9 5ZM11 10L11 10L11 9L11 9L11 9L11 9L11 9L11 9L11 10L11 10Z" fill="var(--fill-0,#71B219)"/><path d="M4 0L4 1L4 1L4 0L4 0ZM4 0L4 0L4 1L4 1L4 0ZM4 0L3 0L3 0L4 0L4 0ZM4 0L3 0L3 0L3 0L4 0ZM4 0L4 0L4 -1L3 0L4 0ZM4 0L4 0L5 0L4 0L4 0ZM0 1L0 1L1 1L0 1L0 1ZM0 1L0 1L0 1L0 1L0 1ZM0 1L0 1L0 1L0 1L0 1ZM0 1L0 0L-1 1L0 1L0 1ZM0 1L0 0L0 0L0 0L0 1ZM9 5L10 6L10 5L10 5L9 5ZM9 5L9 6L9 6L10 6L9 5ZM9 5H9V6L9 6L9 5ZM9 5L10 5L9 4V5H9ZM11 10L12 10L12 10L12 10L11 10ZM11 10L11 10L11 10L12 10L11 10ZM11 9L12 9L11 8L11 9L11 9ZM11 9L12 9L12 9L12 9L11 9ZM11 9L12 9L12 9L12 9L11 9ZM11 9L12 9L12 9L12 9L11 9ZM11 9L12 9L12 9L12 9L11 9ZM11 9L12 10L12 10L12 9L11 9ZM11 10L12 10L12 10L12 10L11 10ZM4 0L4 0L4 0L4 0L4 1L4 1L4 0ZM4 0L4 0L4 0L4 0L4 0L4 0L4 0ZM4 0L4 0L4 0L4 0L3 0L3 0L4 0ZM4 0L4 0L4 0L4 0L3 0L3 0L4 0ZM4 0L4 0L4 0L4 0L4 0L4 0L4 0ZM4 0L4 0L4 0L4 0L4 0L4 0L4 0ZM0 1L0 0L0 0L0 1L0 1L0 1L0 1ZM0 1L0 0L0 0L0 1L0 1L0 1L0 1ZM0 1L0 1L0 1L0 1L0 1L0 1L0 1ZM0 1L0 1L0 1L0 1L0 0L0 0L0 1ZM0 1L0 1L0 1L0 1L0 1L0 0L0 1ZM9 5L9 5L9 5L9 5L10 6L10 6L9 5ZM9 5L10 5L9 5L9 5L9 6L9 6L9 5ZM9 5H10V5H9H9V5H9ZM9 5L9 6L9 6L9 5L10 5L10 5L9 5ZM11 10L11 9L11 9L11 10L12 10L12 10L11 10ZM11 10L12 10L12 9L11 9L11 9L11 10L11 10ZM11 9L11 10L11 10L11 9L12 9L12 9L11 9ZM11 9L11 10L11 10L11 9L12 9L12 9L11 9ZM11 9L11 10L11 10L11 9L12 9L12 9L11 9ZM11 9L11 9L11 9L11 9L12 9L12 9L11 9ZM11 9L11 9L11 9L11 9L12 9L12 9L11 9ZM11 9L11 9L11 9L11 10L12 10L12 10L11 9ZM11 10L11 9L11 9L11 10L12 10L12 10L11 10Z" fill="var(--stroke-0,white)" mask="url(#path-1-inside-1_0_22)"/></g></svg>