<svg preserveAspectRatio="none" width="100%" height="100%" overflow="visible" style="display: block;" viewBox="0 0 11.3426 9.53166" fill="none" xmlns="http://www.w3.org/2000/svg">
<g id="TV">
<mask id="path-1-inside-1_0_22" fill="white">
<path d="M3.86292 0.0946452L3.84092 0.0959847L3.8065 0.0781524L3.79416 0.0383855L3.8065 0L3.90004 0.0630829L3.86292 0.0946452ZM0.0646536 0.74205L0.0426545 0.766748L0.0136864 0.754399L0 0.714632L0.0412271 0.658372L0.0646536 0.74205ZM9.29139 5.33714L9.26804 5.37142L9.2405 5.35907V5.30834L9.29139 5.33714ZM11.3013 9.50425L11.2669 9.53166L11.2256 9.16133L11.2875 9.22441L11.3137 9.26422L11.337 9.31357L11.3426 9.36569L11.3398 9.42333L11.326 9.46172L11.3013 9.50425Z"/>
</mask>
<path d="M3.86292 0.0946452L3.84092 0.0959847L3.8065 0.0781524L3.79416 0.0383855L3.8065 0L3.90004 0.0630829L3.86292 0.0946452ZM0.0646536 0.74205L0.0426545 0.766748L0.0136864 0.754399L0 0.714632L0.0412271 0.658372L0.0646536 0.74205ZM9.29139 5.33714L9.26804 5.37142L9.2405 5.35907V5.30834L9.29139 5.33714ZM11.3013 9.50425L11.2669 9.53166L11.2256 9.16133L11.2875 9.22441L11.3137 9.26422L11.337 9.31357L11.3426 9.36569L11.3398 9.42333L11.326 9.46172L11.3013 9.50425Z" fill="var(--fill-0, #71B219)"/>
<path d="M3.86292 0.0946452L3.89331 0.593721L4.05979 0.583584L4.18685 0.475531L3.86292 0.0946452ZM3.84092 0.0959847L3.61095 0.539958L3.73353 0.60345L3.87131 0.59506L3.84092 0.0959847ZM3.8065 0.0781524L3.32897 0.226368L3.39093 0.425989L3.57652 0.522125L3.8065 0.0781524ZM3.79416 0.0383855L3.31816 -0.114672L3.2698 0.0357229L3.31663 0.186602L3.79416 0.0383855ZM3.8065 0L4.08607 -0.414538L3.53425 -0.786691L3.3305 -0.153058L3.8065 0ZM3.90004 0.0630829L4.22396 0.443969L4.72598 0.0170273L4.17961 -0.351455L3.90004 0.0630829ZM0.0646536 0.74205L0.438014 1.07462L0.619837 0.870494L0.546141 0.607253L0.0646536 0.74205ZM0.0426546 0.766748L-0.153416 1.2267L0.177063 1.36758L0.416015 1.09932L0.0426546 0.766748ZM0.0136864 0.754399L-0.459096 0.917115L-0.386786 1.12722L-0.182384 1.21435L0.0136864 0.754399ZM0 0.714632L-0.403305 0.41909L-0.557895 0.630048L-0.472783 0.877348L0 0.714632ZM0.0412271 0.658372L0.522714 0.523576L0.245567 -0.466379L-0.362078 0.36283L0.0412271 0.658372ZM9.29139 5.33714L9.70468 5.61854L10.0104 5.16955L9.53767 4.902L9.29139 5.33714ZM9.26804 5.37142L9.06348 5.82766L9.44563 5.99901L9.68134 5.65282L9.26804 5.37142ZM9.2405 5.35907H8.7405V5.68284L9.03594 5.81531L9.2405 5.35907ZM9.2405 5.30834L9.48679 4.8732L8.7405 4.45081V5.30834H9.2405ZM11.3013 9.50425L11.6132 9.89499L11.6863 9.83666L11.7333 9.75589L11.3013 9.50425ZM11.2669 9.53166L10.77 9.5871L10.8705 10.488L11.5789 9.92241L11.2669 9.53166ZM11.2256 9.16133L11.5826 8.81119L10.5681 7.77706L10.7287 9.21676L11.2256 9.16133ZM11.2875 9.22441L11.7052 8.94955L11.6785 8.90896L11.6444 8.87427L11.2875 9.22441ZM11.3137 9.26422L11.7657 9.05044L11.7507 9.0187L11.7314 8.98936L11.3137 9.26422ZM11.337 9.31357L11.8342 9.2607L11.8253 9.17642L11.789 9.09979L11.337 9.31357ZM11.3426 9.36569L11.842 9.3897L11.8439 9.35117L11.8398 9.31282L11.3426 9.36569ZM11.3398 9.42333L11.8104 9.59216L11.8357 9.5219L11.8392 9.44734L11.3398 9.42333ZM11.326 9.46172L11.7581 9.71336L11.7812 9.67372L11.7967 9.63055L11.326 9.46172ZM3.86292 0.0946452L3.83254 -0.40443L3.81054 -0.403091L3.84092 0.0959847L3.87131 0.59506L3.89331 0.593721L3.86292 0.0946452ZM3.84092 0.0959847L4.0709 -0.347988L4.03647 -0.365821L3.8065 0.0781524L3.57652 0.522125L3.61095 0.539958L3.84092 0.0959847ZM3.8065 0.0781524L4.28403 -0.0700636L4.27168 -0.109831L3.79416 0.0383855L3.31663 0.186602L3.32897 0.226368L3.8065 0.0781524ZM3.79416 0.0383855L4.27015 0.191443L4.2825 0.153058L3.8065 0L3.3305 -0.153058L3.31816 -0.114672L3.79416 0.0383855ZM3.8065 0L3.52693 0.414538L3.62047 0.47762L3.90004 0.0630829L4.17961 -0.351455L4.08607 -0.414538L3.8065 0ZM3.90004 0.0630829L3.57611 -0.317803L3.539 -0.286241L3.86292 0.0946452L4.18685 0.475531L4.22396 0.443969L3.90004 0.0630829ZM0.0646536 0.74205L-0.308707 0.409482L-0.330706 0.434179L0.0426546 0.766748L0.416015 1.09932L0.438014 1.07462L0.0646536 0.74205ZM0.0426546 0.766748L0.238725 0.306795L0.209757 0.294446L0.0136864 0.754399L-0.182384 1.21435L-0.153416 1.2267L0.0426546 0.766748ZM0.0136864 0.754399L0.486469 0.591683L0.472783 0.551916L0 0.714632L-0.472783 0.877348L-0.459096 0.917115L0.0136864 0.754399ZM0 0.714632L0.403305 1.01017L0.444532 0.953914L0.0412271 0.658372L-0.362078 0.36283L-0.403305 0.41909L0 0.714632ZM0.0412271 0.658372L-0.44026 0.793169L-0.416834 0.876847L0.0646536 0.74205L0.546141 0.607253L0.522714 0.523576L0.0412271 0.658372ZM9.29139 5.33714L8.87809 5.05574L8.85475 5.09002L9.26804 5.37142L9.68134 5.65282L9.70468 5.61854L9.29139 5.33714ZM9.26804 5.37142L9.47261 4.91518L9.44507 4.90283L9.2405 5.35907L9.03594 5.81531L9.06348 5.82766L9.26804 5.37142ZM9.2405 5.35907H9.7405V5.30834H9.2405H8.7405V5.35907H9.2405ZM9.2405 5.30834L8.99422 5.74347L9.0451 5.77227L9.29139 5.33714L9.53767 4.902L9.48679 4.8732L9.2405 5.30834ZM11.3013 9.50425L10.9893 9.1135L10.955 9.14092L11.2669 9.53166L11.5789 9.92241L11.6132 9.89499L11.3013 9.50425ZM11.2669 9.53166L11.7638 9.47623L11.7225 9.1059L11.2256 9.16133L10.7287 9.21676L10.77 9.5871L11.2669 9.53166ZM11.2256 9.16133L10.8687 9.51147L10.9306 9.57455L11.2875 9.22441L11.6444 8.87427L11.5826 8.81119L11.2256 9.16133ZM11.2875 9.22441L10.8698 9.49927L10.896 9.53908L11.3137 9.26422L11.7314 8.98936L11.7052 8.94955L11.2875 9.22441ZM11.3137 9.26422L10.8617 9.478L10.885 9.52735L11.337 9.31357L11.789 9.09979L11.7657 9.05044L11.3137 9.26422ZM11.337 9.31357L10.8398 9.36644L10.8454 9.41856L11.3426 9.36569L11.8398 9.31282L11.8342 9.2607L11.337 9.31357ZM11.3426 9.36569L10.8432 9.34168L10.8404 9.39932L11.3398 9.42333L11.8392 9.44734L11.842 9.3897L11.3426 9.36569ZM11.3398 9.42333L10.8692 9.2545L10.8554 9.29288L11.326 9.46172L11.7967 9.63055L11.8104 9.59216L11.3398 9.42333ZM11.326 9.46172L10.894 9.21008L10.8692 9.25261L11.3013 9.50425L11.7333 9.75589L11.7581 9.71336L11.326 9.46172Z" fill="var(--stroke-0, white)" mask="url(#path-1-inside-1_0_22)"/>
</g>
</svg>
