<svg preserveAspectRatio="none" width="100%" height="100%" overflow="visible" style="display: block;" viewBox="0 0 14 14" fill="none" xmlns="http://www.w3.org/2000/svg"><path id="TW" d="M13 0L13 0L13 1L13 1L13 1L13 1L13 1L13 1L14 1L14 1L14 1L14 2L14 2L14 2L13 2L13 2L13 2L13 2L13 2L13 2L13 3L13 3L13 4L13 5L13 5L13 5L13 5L13 5L13 5L12 6L12 7L12 7L12 7L12 8L12 9L12 9L11 10L11 10L10 11L10 11L10 11L10 12L10 12L10 12L10 12L10 12L10 12L10 13L10 13V13L10 13L10 14L10 14L10 14L10 14L10 13L10 13L10 13L9 12L9 12L9 12L9 12L9 12L9 12L9 12L9 12L9 12L8 12L8 11L8 11L8 11L7 10L7 10L7 10L7 9L7 9L7 9L7 9L7 9L7 9L7 8L7 8L7 8L7 8L7 8L7 8L7 7L7 7L8 7L9 4L10 3L10 2L10 2L10 2L10 2L10 2L10 2L11 2L11 1L11 1L12 1L12 1L12 1L12 0L12 0L13 0Z" fill="var(--fill-0,#71B219)" stroke="var(--stroke-0,white)" stroke-width="0"/></svg>