<svg preserveAspectRatio="none" width="100%" height="100%" overflow="visible" style="display: block;" viewBox="0 0 14.0651 14.0006" fill="none" xmlns="http://www.w3.org/2000/svg">
<path id="TW" d="M12.668 0.253906L12.7754 0.355469L12.9365 0.558594L12.9619 0.59082L12.9971 0.613281L13.1758 0.728516L13.1914 0.738281L13.208 0.746094L13.6279 0.9375L13.749 1.05957L13.79 1.2168L13.5938 1.4502L13.5723 1.47559L13.5586 1.50586L13.418 1.80469L13.3984 1.8457L13.3945 1.89062L13.3691 2.21973L13.3672 2.24414L13.3691 2.26758L13.418 2.70605L13.4238 3.0918L13.0918 4.07715L12.7305 4.70605L12.7168 4.72949L12.708 4.75586L12.6064 5.08008L12.6006 5.09961L12.5977 5.11914L12.4854 5.90332L12.2686 6.69727L12.2656 6.70801L12.2637 6.71777L12.0771 7.72168L11.7754 8.75L11.6113 9.16309L11.4062 9.55762L10.9014 10.3242L10.3242 10.957L10.3008 10.9834L10.2842 11.0146L10.0449 11.501L10.04 11.5117L10.0352 11.5234L9.84277 12.0361L9.83398 12.0596L9.83008 12.085L9.75293 12.5693L9.75 12.5898V12.6104L9.75293 13.0928L9.7041 13.5049L9.66797 13.6729L9.64453 13.665L9.52246 13.4717L9.48145 13.0098L9.47754 12.9697L9.46191 12.9336L9.19141 12.3027L9.18555 12.29L9.17871 12.2783L9.07715 12.0977L9.05762 12.0615L9.02734 12.0342L8.63477 11.6807L8.60938 11.6572L8.57812 11.6416L8.25488 11.4834L8.08496 11.3213L7.8916 10.9854L7.75098 10.6445L7.43555 9.58496L7.43164 9.57129L7.42578 9.55859L7.31641 9.30078L7.30859 9.28223L7.29785 9.2666L7.17676 9.07129L7.15137 8.93164L7.1875 8.73926L7.32129 8.36621L7.32715 8.35059L7.33105 8.33496L7.41406 7.94336L7.42383 7.90234L7.41797 7.85938L7.35352 7.34668L7.37598 6.88867L7.45703 6.70801L9.26465 3.5L9.73828 2.83594L10.0322 2.50977L10.0439 2.49609L10.0537 2.48145L10.3086 2.09863L10.3174 2.08594L10.3242 2.07129L10.5566 1.60156L10.8164 1.21387L10.9619 1.11816L11.9805 0.731445L12.04 0.708984L12.082 0.660156L12.3691 0.322266L12.5254 0.250977L12.668 0.253906Z" fill="var(--fill-0, #71B219)" stroke="var(--stroke-0, white)" stroke-width="0.5"/>
</svg>
