<svg preserveAspectRatio="none" width="100%" height="100%" overflow="visible" style="display: block;" viewBox="0 0 43 41" fill="none" xmlns="http://www.w3.org/2000/svg"><g id="TZ"><mask id="path-1-inside-1_0_44" fill="white"><path d="M40 27L40 27L40 27L40 27L40 26L40 26L41 26L41 26L41 26L41 26L40 26L40 26L40 27ZM39 20L40 21L40 21L39 21L39 21L39 21L39 20L39 21L39 20L38 20L38 20L38 20L38 19L38 19L38 18L39 18L39 19L39 20L39 20L39 20ZM41 15L41 15L41 15L41 16L41 16L40 17L40 17L40 17L40 17L40 17L40 16L40 15L40 15L41 15ZM6 0L6 0H6H7H8H8H9H10H10H11H12H12H13H14H14H15H16H17H17H18H18L18 0L19 0L19 1L20 1L21 2L22 2L23 3L24 3L24 4L25 4L26 4L27 5L28 5L28 6L29 6L30 7L31 7L32 8L32 8L32 8L32 8L32 9L32 9L32 9L32 9L32 10L32 10L32 10L32 10L32 10L33 10L33 10L33 10L34 11L34 11L35 12L35 12L36 13L37 13L37 14L38 14L38 14L38 14L38 14L38 15L38 16L38 16L38 16L37 17L37 18L37 19L37 19L37 20L37 20L37 21L38 21L38 21L38 22L38 22L39 23L40 23L39 24L39 24L39 24L38 25L38 26L39 26L39 26L39 27L39 28L39 28L38 29L39 30L39 30L39 30L39 30L40 32L40 32L40 33L40 34L40 34L40 34L40 35L41 35L41 35L41 35L42 35L42 35L42 36L43 36L43 36L43 36L43 36L43 37L42 37L41 38L40 38L40 38L40 38L39 39L39 39L38 39L37 39L37 39L36 40L35 40L35 40L34 40L34 40L33 40L33 40L33 40L33 40L32 41L32 41L31 41L30 41L30 41L30 41L30 41L29 41L29 41L28 41L28 41L27 41L26 41L26 41L26 41L25 40L25 40L25 41L24 41L24 41L24 41L24 41L24 41L23 41L22 41L22 41L22 40L22 40L21 40L21 40L21 40L21 40L21 39L21 39L20 39L20 39L20 39L20 38L21 38L21 38L21 37L20 37L20 37L20 37L20 36L20 36L20 36L20 36L20 35V35L20 34L19 34L19 34L18 33L18 33L18 33L18 33L18 33L18 33L18 33L18 33L18 33L17 33L17 33L16 33L16 33L16 33L16 33L15 33L15 33L14 32L14 32L14 32L14 32L13 32L13 32L12 32L12 31L12 31L11 31L11 31L10 31L10 31L10 31L10 30L10 30L10 30L9 30L9 30L9 30L9 30L9 30L8 30L8 29L8 29L7 29L7 29L6 29L6 29L6 28L6 28L6 28L5 27L5 27L5 26L4 25L4 25L4 24L4 24L3 23L3 23L3 23L2 22L2 22L2 22L1 21L1 20L1 20L1 19L1 19L1 18L1 18L1 18L1 17L1 17L1 17L0 16L0 15L0 15L0 15L0 14L0 13L0 13L2 13L2 13L2 13L3 12L3 12L4 11L4 11L4 10L4 10L4 10L5 10L5 9L5 9L5 9L5 9L5 9L6 9L6 8L6 8L6 8L6 8L6 8L5 8L5 7L5 7L4 7L4 7L4 7L4 7L4 7L4 6L4 6L4 6L4 6L5 6L5 5L5 5L5 5L5 5L6 5L6 5L6 5L6 5L6 4L6 4L6 4L6 3L6 3L6 2L6 2L5 2L5 1L5 1L4 0L4 0L5 0L5 0L5 0L5 0L6 0L6 0L6 0Z"/></mask><path d="M40 27L40 27L40 27L40 27L40 26L40 26L41 26L41 26L41 26L41 26L40 26L40 26L40 27ZM39 20L40 21L40 21L39 21L39 21L39 21L39 20L39 21L39 20L38 20L38 20L38 20L38 19L38 19L38 18L39 18L39 19L39 20L39 20L39 20ZM41 15L41 15L41 15L41 16L41 16L40 17L40 17L40 17L40 17L40 17L40 16L40 15L40 15L41 15ZM6 0L6 0H6H7H8H8H9H10H10H11H12H12H13H14H14H15H16H17H17H18H18L18 0L19 0L19 1L20 1L21 2L22 2L23 3L24 3L24 4L25 4L26 4L27 5L28 5L28 6L29 6L30 7L31 7L32 8L32 8L32 8L32 8L32 9L32 9L32 9L32 9L32 10L32 10L32 10L32 10L32 10L33 10L33 10L33 10L34 11L34 11L35 12L35 12L36 13L37 13L37 14L38 14L38 14L38 14L38 14L38 15L38 16L38 16L38 16L37 17L37 18L37 19L37 19L37 20L37 20L37 21L38 21L38 21L38 22L38 22L39 23L40 23L39 24L39 24L39 24L38 25L38 26L39 26L39 26L39 27L39 28L39 28L38 29L39 30L39 30L39 30L39 30L40 32L40 32L40 33L40 34L40 34L40 34L40 35L41 35L41 35L41 35L42 35L42 35L42 36L43 36L43 36L43 36L43 36L43 37L42 37L41 38L40 38L40 38L40 38L39 39L39 39L38 39L37 39L37 39L36 40L35 40L35 40L34 40L34 40L33 40L33 40L33 40L33 40L32 41L32 41L31 41L30 41L30 41L30 41L30 41L29 41L29 41L28 41L28 41L27 41L26 41L26 41L26 41L25 40L25 40L25 41L24 41L24 41L24 41L24 41L24 41L23 41L22 41L22 41L22 40L22 40L21 40L21 40L21 40L21 40L21 39L21 39L20 39L20 39L20 39L20 38L21 38L21 38L21 37L20 37L20 37L20 37L20 36L20 36L20 36L20 36L20 35V35L20 34L19 34L19 34L18 33L18 33L18 33L18 33L18 33L18 33L18 33L18 33L18 33L17 33L17 33L16 33L16 33L16 33L16 33L15 33L15 33L14 32L14 32L14 32L14 32L13 32L13 32L12 32L12 31L12 31L11 31L11 31L10 31L10 31L10 31L10 30L10 30L10 30L9 30L9 30L9 30L9 30L9 30L8 30L8 29L8 29L7 29L7 29L6 29L6 29L6 28L6 28L6 28L5 27L5 27L5 26L4 25L4 25L4 24L4 24L3 23L3 23L3 23L2 22L2 22L2 22L1 21L1 20L1 20L1 19L1 19L1 18L1 18L1 18L1 17L1 17L1 17L0 16L0 15L0 15L0 15L0 14L0 13L0 13L2 13L2 13L2 13L3 12L3 12L4 11L4 11L4 10L4 10L4 10L5 10L5 9L5 9L5 9L5 9L5 9L6 9L6 8L6 8L6 8L6 8L6 8L5 8L5 7L5 7L4 7L4 7L4 7L4 7L4 7L4 6L4 6L4 6L4 6L5 6L5 5L5 5L5 5L5 5L6 5L6 5L6 5L6 5L6 4L6 4L6 4L6 3L6 3L6 2L6 2L5 2L5 1L5 1L4 0L4 0L5 0L5 0L5 0L5 0L6 0L6 0L6 0Z" fill="var(--fill-0,#71B219)" stroke="var(--stroke-0,white)" mask="url(#path-1-inside-1_0_44)"/></g></svg>