<svg preserveAspectRatio="none" width="100%" height="100%" overflow="visible" style="display: block;" viewBox="0 0 43.0055 41.3104" fill="none" xmlns="http://www.w3.org/2000/svg">
<g id="TZ">
<mask id="path-1-inside-1_0_44" fill="white">
<path d="M40.1001 26.7914L39.891 26.8421L39.8098 26.7928L39.6819 26.6309L39.9048 26.4937L40.1207 26.2276L40.6228 25.8367L40.7948 25.5788L40.8568 25.5239L40.821 25.8285L40.5375 26.4937L40.2955 26.5376L40.1001 26.7914ZM39.2706 19.8439L39.5663 20.6628L39.5292 20.8164L39.3201 20.9097L39.2114 20.9179L39.0821 20.7862L38.9913 20.5105L38.8331 20.5764L38.5634 20.2458L38.2966 20.2293L38.06 19.8357L38.1522 19.4928L38.0985 18.9071L38.386 18.608L38.5483 18.1033L38.7354 18.4475L38.778 18.9852L39.0298 19.6162L39.2403 19.811L39.2706 19.8439ZM40.693 14.9704L40.7164 15.1638L40.6573 15.3462L40.6696 15.9264L40.6463 16.3119L40.4261 16.8454L40.2459 17.0361L40.085 16.9799L39.9529 16.8921L39.8497 16.7453L40.0588 15.7673L39.9515 15.0513L40.3656 15.1199L40.693 14.9704ZM5.78616 0.0082464L5.86735 0.0192137H6.27182H6.95823H7.64474H8.33124H9.01766H9.70416H10.3907H11.0771H11.7636H12.45H13.1365H13.823H14.5094H15.1959H15.8824H16.5689H17.2554H17.6777H17.9721L18.2499 0.163254L18.5595 0.334712L19.3836 0.790106L20.2062 1.2455L21.0289 1.70089L21.8516 2.15629L22.6742 2.61168L23.4982 3.06707L24.3209 3.52247L25.1449 3.97786L25.9676 4.43326L26.7903 4.88865L27.6129 5.34404L28.4356 5.79944L29.2596 6.25483L30.0823 6.71023L30.905 7.16562L31.7276 7.62097L32.1211 7.8391L32.1803 7.93375L32.2477 8.34933L32.2903 8.60857L32.2669 8.83767L32.0482 9.22584L31.9849 9.42886L31.9835 9.57014L32.0372 9.62635L32.2229 9.64695L32.3811 9.73883L32.4389 9.81154L32.56 10.1037L32.7126 10.2505L33.0606 10.4988L33.6536 10.9226L34.2465 11.3464L34.8395 11.7703L35.4323 12.1941L36.0253 12.618L36.6182 13.0418L37.2111 13.4657L37.804 13.8895L38.0916 14.0966L38.214 14.1542L38.137 14.4766L37.833 15.2598L37.8151 15.5862L37.6968 15.9703L37.5826 16.2241L37.273 17.3269L37.0144 17.7398L36.6608 18.7068L36.6045 19.4475L36.7998 19.966L36.8713 20.4515L37.2868 20.9289L37.6184 21.099L37.8426 21.3171L38.2401 21.815L38.4685 22.3143L39.1825 22.5598L39.4673 23.1208L39.3641 23.5063L39.0325 23.8259L38.723 24.343L38.474 25.0233L38.4685 26.0644L38.6364 25.9067L39.0146 26.1618L39.0628 26.9286L38.6735 27.8215L38.5538 28.2399L38.5345 28.5992L38.8179 29.6705L39.2471 30.2151L39.2073 30.3824L39.0958 30.5251L39.8305 31.4907L39.7699 32.3315L40.0451 32.9872L40.1647 33.5551L40.3463 33.9912L40.3808 34.2916L40.1537 34.625L40.6889 34.7086L41.004 34.9816L41.1525 35.2422L41.5391 35.2313L41.7481 35.4095L42.0508 35.5577L42.718 35.9966L42.8982 36.2175L42.9629 36.345L43.0055 36.4287L42.5571 36.7689L41.8582 37.2983L41.1718 37.8168L40.5101 38.1735L40.0368 38.3394L39.5305 38.4313L39.0504 38.6494L38.5965 38.9923L38.0145 39.1652L37.306 39.1665L36.5618 39.4066L35.8231 39.8606L35.3925 40.1253L34.7101 39.7262L34.1749 39.6L33.5601 39.6137L33.1858 39.6631L33.0511 39.7495L32.9341 39.9937L32.835 40.3942L32.432 40.7796L31.7249 41.1486L31.0728 41.2871L30.4758 41.1939L30.0726 41.0402L29.8622 40.8263L29.5526 40.7275L29.1427 40.7453L28.7493 40.8976L28.3737 41.1856L27.7753 41.3104L26.9526 41.2721L26.511 41.1321L26.4504 40.8921L26.0901 40.6109L25.4311 40.2886L24.9441 40.2817L24.6318 40.5917L24.347 40.7865L24.0897 40.866L23.8587 40.8756L23.6537 40.8167L23.5258 40.792L22.6164 40.7591L21.7553 40.7714L21.7277 40.637L21.6686 40.3228L21.4898 40.0499L21.3357 39.8867L21.1431 39.8441L21.0385 39.8469L20.9546 39.7207L20.8556 39.4422L20.7097 39.2063L20.5158 39.0102L20.3988 38.8277L20.3589 38.6604L20.3891 38.4766L20.5694 38.0198L20.6272 37.7057L20.6065 37.3847L20.5089 37.0556L20.3052 36.6646L20.3287 36.5521L20.2598 36.286L20.2529 36.0995L20.2929 35.8663L20.2544 35.5604L20.0783 34.9075V34.7402L19.8926 34.4247L19.3202 33.6785L19.2927 33.5811L18.3958 32.8295L18.0367 32.6649L17.9074 32.8061L17.8592 32.9365L17.8964 33.1779L17.8744 33.2972L17.8372 33.352L17.6241 33.3438L17.4906 33.3164L17.1507 33.1148L16.8867 33.0654L16.2291 33.101L15.9993 33.1491L15.8191 33.1038L15.4711 32.7595L15.0639 32.6868L14.6979 32.669L14.094 32.278L13.9523 32.2959L13.8849 32.3261L13.6662 32.2232L13.2548 31.9955L12.6825 31.7952L12.2148 31.5717L12.0057 31.3535L11.5669 31.2699L11.1872 31.2342L10.835 31.0312L10.4704 31.0079L10.1127 30.9558L10.033 30.8227L10.0205 30.5237L9.89535 30.4455L9.63262 30.3687L9.34924 30.3728L9.17728 30.4153L9.07543 30.3934L8.84024 30.2178L8.62151 29.9942L8.53897 29.6376L8.20874 29.4085L7.8277 29.2275L6.76839 29.2467L6.60197 29.1918L6.35024 29.0108L6.05586 28.7117L5.81916 28.3702L5.61151 27.9079L5.51243 27.6281L5.39547 27.2838L5.13685 26.7681L4.77093 26.0383L4.48754 25.4403L4.18351 24.7983L4.05966 24.3279L3.82304 23.808L3.43512 23.1688L3.23839 22.9192L3.02377 22.6956L2.46666 22.2649L1.83515 21.8369L1.49266 21.5489L1.0332 20.6916L0.84058 20.3816L0.707159 19.837L0.606736 19.2719L0.647963 19.0429L1.0552 18.3145L1.09642 18.1101L1.04688 17.8344L0.846038 17.2542L0.696075 16.8756L0.591538 16.5519L0.374235 16.0128L0.0756531 15.2708L0 14.947L0.00965605 14.7043L0.170618 14.0637L0.312268 13.4039L0.308154 13.2229L1.52289 13.2476L1.72239 13.1035L2.40889 12.6783L3.18062 11.8265L3.3347 11.4726L3.64974 10.9267L3.95789 10.6565L4.0762 10.4686L4.15739 10.1737L4.25362 9.92402L4.65808 9.55502L5.05154 9.27109L5.02266 9.15727L4.97043 9.07221L5.0282 8.9995L5.24282 8.85412L5.66097 8.72105L5.7435 8.43711L5.74216 8.11479L5.67474 7.93509L5.68716 7.72796L5.62251 7.61277L5.3487 7.58397L4.94289 7.42348L4.59897 7.35625L4.36924 7.26299L4.28393 7.19166L4.24682 6.99826L4.31416 6.78704L4.34858 6.72668L4.43666 6.50034L4.2867 6.36455L4.24816 6.2987L4.31693 6.19033L4.67051 5.47435L4.7475 5.37418L4.90158 5.36188L5.14508 5.27405L5.3707 5.23429L5.55508 5.26447L5.69128 5.23018L5.81093 5.13826L5.91278 4.85847L5.99666 4.39211L5.94989 4.01215L5.77381 3.71862L5.72562 3.27143L5.80681 2.67066L5.74905 2.17136L5.55366 1.77222L5.35424 1.53492L5.0502 1.42244L4.57143 0.813422L4.42558 0.518519L4.45178 0.334712L4.57831 0.275731L4.61685 0.257899L4.92224 0.285317L5.20839 0.215369L5.47523 0.0480133L5.73393 0L5.78616 0.0082464Z"/>
</mask>
<path d="M40.1001 26.7914L39.891 26.8421L39.8098 26.7928L39.6819 26.6309L39.9048 26.4937L40.1207 26.2276L40.6228 25.8367L40.7948 25.5788L40.8568 25.5239L40.821 25.8285L40.5375 26.4937L40.2955 26.5376L40.1001 26.7914ZM39.2706 19.8439L39.5663 20.6628L39.5292 20.8164L39.3201 20.9097L39.2114 20.9179L39.0821 20.7862L38.9913 20.5105L38.8331 20.5764L38.5634 20.2458L38.2966 20.2293L38.06 19.8357L38.1522 19.4928L38.0985 18.9071L38.386 18.608L38.5483 18.1033L38.7354 18.4475L38.778 18.9852L39.0298 19.6162L39.2403 19.811L39.2706 19.8439ZM40.693 14.9704L40.7164 15.1638L40.6573 15.3462L40.6696 15.9264L40.6463 16.3119L40.4261 16.8454L40.2459 17.0361L40.085 16.9799L39.9529 16.8921L39.8497 16.7453L40.0588 15.7673L39.9515 15.0513L40.3656 15.1199L40.693 14.9704ZM5.78616 0.0082464L5.86735 0.0192137H6.27182H6.95823H7.64474H8.33124H9.01766H9.70416H10.3907H11.0771H11.7636H12.45H13.1365H13.823H14.5094H15.1959H15.8824H16.5689H17.2554H17.6777H17.9721L18.2499 0.163254L18.5595 0.334712L19.3836 0.790106L20.2062 1.2455L21.0289 1.70089L21.8516 2.15629L22.6742 2.61168L23.4982 3.06707L24.3209 3.52247L25.1449 3.97786L25.9676 4.43326L26.7903 4.88865L27.6129 5.34404L28.4356 5.79944L29.2596 6.25483L30.0823 6.71023L30.905 7.16562L31.7276 7.62097L32.1211 7.8391L32.1803 7.93375L32.2477 8.34933L32.2903 8.60857L32.2669 8.83767L32.0482 9.22584L31.9849 9.42886L31.9835 9.57014L32.0372 9.62635L32.2229 9.64695L32.3811 9.73883L32.4389 9.81154L32.56 10.1037L32.7126 10.2505L33.0606 10.4988L33.6536 10.9226L34.2465 11.3464L34.8395 11.7703L35.4323 12.1941L36.0253 12.618L36.6182 13.0418L37.2111 13.4657L37.804 13.8895L38.0916 14.0966L38.214 14.1542L38.137 14.4766L37.833 15.2598L37.8151 15.5862L37.6968 15.9703L37.5826 16.2241L37.273 17.3269L37.0144 17.7398L36.6608 18.7068L36.6045 19.4475L36.7998 19.966L36.8713 20.4515L37.2868 20.9289L37.6184 21.099L37.8426 21.3171L38.2401 21.815L38.4685 22.3143L39.1825 22.5598L39.4673 23.1208L39.3641 23.5063L39.0325 23.8259L38.723 24.343L38.474 25.0233L38.4685 26.0644L38.6364 25.9067L39.0146 26.1618L39.0628 26.9286L38.6735 27.8215L38.5538 28.2399L38.5345 28.5992L38.8179 29.6705L39.2471 30.2151L39.2073 30.3824L39.0958 30.5251L39.8305 31.4907L39.7699 32.3315L40.0451 32.9872L40.1647 33.5551L40.3463 33.9912L40.3808 34.2916L40.1537 34.625L40.6889 34.7086L41.004 34.9816L41.1525 35.2422L41.5391 35.2313L41.7481 35.4095L42.0508 35.5577L42.718 35.9966L42.8982 36.2175L42.9629 36.345L43.0055 36.4287L42.5571 36.7689L41.8582 37.2983L41.1718 37.8168L40.5101 38.1735L40.0368 38.3394L39.5305 38.4313L39.0504 38.6494L38.5965 38.9923L38.0145 39.1652L37.306 39.1665L36.5618 39.4066L35.8231 39.8606L35.3925 40.1253L34.7101 39.7262L34.1749 39.6L33.5601 39.6137L33.1858 39.6631L33.0511 39.7495L32.9341 39.9937L32.835 40.3942L32.432 40.7796L31.7249 41.1486L31.0728 41.2871L30.4758 41.1939L30.0726 41.0402L29.8622 40.8263L29.5526 40.7275L29.1427 40.7453L28.7493 40.8976L28.3737 41.1856L27.7753 41.3104L26.9526 41.2721L26.511 41.1321L26.4504 40.8921L26.0901 40.6109L25.4311 40.2886L24.9441 40.2817L24.6318 40.5917L24.347 40.7865L24.0897 40.866L23.8587 40.8756L23.6537 40.8167L23.5258 40.792L22.6164 40.7591L21.7553 40.7714L21.7277 40.637L21.6686 40.3228L21.4898 40.0499L21.3357 39.8867L21.1431 39.8441L21.0385 39.8469L20.9546 39.7207L20.8556 39.4422L20.7097 39.2063L20.5158 39.0102L20.3988 38.8277L20.3589 38.6604L20.3891 38.4766L20.5694 38.0198L20.6272 37.7057L20.6065 37.3847L20.5089 37.0556L20.3052 36.6646L20.3287 36.5521L20.2598 36.286L20.2529 36.0995L20.2929 35.8663L20.2544 35.5604L20.0783 34.9075V34.7402L19.8926 34.4247L19.3202 33.6785L19.2927 33.5811L18.3958 32.8295L18.0367 32.6649L17.9074 32.8061L17.8592 32.9365L17.8964 33.1779L17.8744 33.2972L17.8372 33.352L17.6241 33.3438L17.4906 33.3164L17.1507 33.1148L16.8867 33.0654L16.2291 33.101L15.9993 33.1491L15.8191 33.1038L15.4711 32.7595L15.0639 32.6868L14.6979 32.669L14.094 32.278L13.9523 32.2959L13.8849 32.3261L13.6662 32.2232L13.2548 31.9955L12.6825 31.7952L12.2148 31.5717L12.0057 31.3535L11.5669 31.2699L11.1872 31.2342L10.835 31.0312L10.4704 31.0079L10.1127 30.9558L10.033 30.8227L10.0205 30.5237L9.89535 30.4455L9.63262 30.3687L9.34924 30.3728L9.17728 30.4153L9.07543 30.3934L8.84024 30.2178L8.62151 29.9942L8.53897 29.6376L8.20874 29.4085L7.8277 29.2275L6.76839 29.2467L6.60197 29.1918L6.35024 29.0108L6.05586 28.7117L5.81916 28.3702L5.61151 27.9079L5.51243 27.6281L5.39547 27.2838L5.13685 26.7681L4.77093 26.0383L4.48754 25.4403L4.18351 24.7983L4.05966 24.3279L3.82304 23.808L3.43512 23.1688L3.23839 22.9192L3.02377 22.6956L2.46666 22.2649L1.83515 21.8369L1.49266 21.5489L1.0332 20.6916L0.84058 20.3816L0.707159 19.837L0.606736 19.2719L0.647963 19.0429L1.0552 18.3145L1.09642 18.1101L1.04688 17.8344L0.846038 17.2542L0.696075 16.8756L0.591538 16.5519L0.374235 16.0128L0.0756531 15.2708L0 14.947L0.00965605 14.7043L0.170618 14.0637L0.312268 13.4039L0.308154 13.2229L1.52289 13.2476L1.72239 13.1035L2.40889 12.6783L3.18062 11.8265L3.3347 11.4726L3.64974 10.9267L3.95789 10.6565L4.0762 10.4686L4.15739 10.1737L4.25362 9.92402L4.65808 9.55502L5.05154 9.27109L5.02266 9.15727L4.97043 9.07221L5.0282 8.9995L5.24282 8.85412L5.66097 8.72105L5.7435 8.43711L5.74216 8.11479L5.67474 7.93509L5.68716 7.72796L5.62251 7.61277L5.3487 7.58397L4.94289 7.42348L4.59897 7.35625L4.36924 7.26299L4.28393 7.19166L4.24682 6.99826L4.31416 6.78704L4.34858 6.72668L4.43666 6.50034L4.2867 6.36455L4.24816 6.2987L4.31693 6.19033L4.67051 5.47435L4.7475 5.37418L4.90158 5.36188L5.14508 5.27405L5.3707 5.23429L5.55508 5.26447L5.69128 5.23018L5.81093 5.13826L5.91278 4.85847L5.99666 4.39211L5.94989 4.01215L5.77381 3.71862L5.72562 3.27143L5.80681 2.67066L5.74905 2.17136L5.55366 1.77222L5.35424 1.53492L5.0502 1.42244L4.57143 0.813422L4.42558 0.518519L4.45178 0.334712L4.57831 0.275731L4.61685 0.257899L4.92224 0.285317L5.20839 0.215369L5.47523 0.0480133L5.73393 0L5.78616 0.0082464Z" fill="var(--fill-0, #71B219)" stroke="var(--stroke-0, white)" mask="url(#path-1-inside-1_0_44)"/>
</g>
</svg>
