<svg preserveAspectRatio="none" width="100%" height="100%" overflow="visible" style="display: block;" viewBox="0 0 70 46" fill="none" xmlns="http://www.w3.org/2000/svg"><g id="UA"><mask id="path-1-inside-1_0_232" fill="white"><path d="M62 31L62 31L61 31L60 31L59 32L58 32L58 32L57 33L57 33L56 33L56 33L55 33L55 34L54 34L54 34L53 34L51 35L51 36L50 36L50 37L50 37L50 37L50 36L51 36L51 36L51 35L51 35L50 36L50 36L49 36L49 37L49 38L49 38L50 39L51 40L51 41L52 41L52 41L53 41L53 41L54 41L54 40L54 40L55 40L55 40L56 41L56 41L55 42L55 42L55 42L54 43L54 43L53 43L53 43L53 42L52 42L52 42L52 42L51 43L50 43L50 44L49 44L49 44L48 44L47 45L46 46L46 46L45 46L44 46L44 45L44 45L44 45L44 45L44 43L44 43L44 42L44 42L43 42L43 42L42 41L41 41L40 41L40 41L40 41L41 40L42 39L43 39L44 38L44 38L44 37L44 37L44 37L44 37L43 37L43 36L42 37L41 37L40 37L39 37L38 36L38 36L38 36L37 36L38 36L38 36L38 35L38 35L38 35L38 35L37 35L37 35L36 34L37 34L38 34L39 35L40 35L40 34L40 34L40 34L40 34L39 34L38 34L38 33L38 33L38 33L38 32L38 31L38 31L37 31L38 31L38 32L38 32L38 33L38 34L37 34L37 34L36 34L36 33L36 33L36 34L36 34L35 34L34 34L33 35L33 35L33 36L33 36L32 37L32 37L31 38L31 38L30 38L30 39L30 39L29 39L29 39L29 39L29 40L29 40L29 41L29 41L29 41L29 41L28 41L27 41L27 41L26 41L26 41L26 41L26 41L26 41L26 42L26 42L26 42L24 41L24 41L24 40L24 40L24 40L24 40L25 40L25 40L25 40L25 40L25 39L25 39L25 38L26 38L26 38L26 38L26 37L26 37L26 36L26 36L26 35L26 35L26 35L27 35L27 34L27 34L27 35L27 35L27 35L28 35L28 35L28 35L28 35L28 35L28 35L28 35L29 35L29 35L29 35L29 35L29 35L30 35L30 35L31 35L31 35L31 35L30 34L30 34L30 33L30 33L30 33L29 32L29 32L29 32L29 32L29 32L28 31L28 31L29 31L29 30L29 30L28 30L28 30L28 30L28 30L27 29L27 29L27 29L27 29L27 28L27 28L27 28L27 27L27 27L27 26L27 26L27 26L26 26L26 26L26 26L26 25L25 25L25 25L24 26L24 26L24 25L24 25L24 25L24 25L24 25L24 25L23 25L23 25L23 24L23 24L22 24L22 24L22 24L22 24L21 24L21 23L21 23L21 24L20 24L20 24L20 24L19 24L18 24L18 24L17 24L17 25L17 25L17 25L16 25L16 26L16 26L16 26L15 26L14 26L13 27L12 27L11 28L11 28L11 28L10 28L10 27L9 26L9 26L9 26L8 27L8 27L7 26L7 26L7 26L6 26L6 26L6 26L6 26L5 26L4 26L4 26L4 26L4 26L3 26L3 26L3 26L3 26L3 26L3 26L2 26L2 26L2 26L2 26L2 26L2 25L2 25L1 25L1 25L1 24L1 24L0 24L0 24L0 24L0 24L0 24L0 24L0 23L1 22L1 22L1 21L1 21L1 20L2 20L2 20L2 20L2 20L3 20L3 20L3 20L3 20L2 20L2 19L2 19L2 19L2 19L2 18L2 18L2 17L2 17L3 16L3 16L4 15L4 14L5 13L5 13L6 12L6 12L7 12L7 12L7 11L8 11L8 11L7 10L7 10L7 10L7 10L7 10L8 10L8 9L8 9L7 9L7 8L7 8L6 7L6 6L6 6L6 6L6 6L6 5L6 5L6 5L6 4L6 4L6 4L7 5L7 5L7 5L8 4L8 4L8 3L9 3L9 3L10 3L10 3L11 3L11 3L11 3L12 3L13 3L14 3L15 3L16 3L16 3L17 3L17 3L18 4L19 4L19 4L19 4L20 5L20 5L20 5L20 5L21 5L22 5L21 5L22 6L22 5L22 5L22 5L22 5L23 5L23 5L23 5L23 5L24 5L24 5L25 5L25 5L25 6L25 6L26 6L26 5L26 5L26 5L26 5L27 5L27 4L27 4L27 5L27 5L27 5L28 6L28 6L28 6L29 6L29 6L30 6L31 5L31 6L31 6L32 6L32 6L32 7L32 7L33 6L33 6L33 6L33 6L32 5L32 5L33 4L33 4L33 3L33 3L34 2L34 2L35 2L35 2L35 2L36 2L36 2L37 2L37 2L38 2L38 2L38 2L39 2L39 2L39 2L40 0L40 0L40 0L40 0L41 0L41 1L42 1L42 0L43 0L44 0L44 0L45 0L45 0L46 1L46 1L46 2L47 4L47 4L47 4L47 4L46 4L46 4L46 5L47 5L47 5L47 6L47 6L47 6L47 6L47 7L47 7L47 7L48 7L48 7L49 7L49 7L49 7L50 7L50 7L50 7L50 8L50 8L50 8L51 8L51 8L51 8L51 8L51 9L51 9L51 10L51 10L51 10V10L51 11L51 11L51 11L52 12L52 12L52 12L52 12L53 12L53 12L54 12L54 12L54 12L54 12L55 13L55 13L56 13L56 13L56 13L56 13L56 13L57 12L58 12L58 12L58 12L59 12L59 12L59 12L60 13L60 13L60 14L61 15L62 15L62 15L62 15L62 15L62 14L62 14L62 14L63 15L63 15L64 15L64 15L65 16L65 16L66 15L66 15L66 15L66 16L66 16L67 16L67 16L68 16L68 17L68 17L69 17L69 17L69 17L69 17L69 17V18L70 18L70 18L69 19L69 19L69 20L69 20L68 20L68 20L68 21L68 21L68 21L69 21L69 21L69 21L69 22L68 21L68 22L68 22L68 22L68 23L68 23L68 23L68 23L68 24L69 24L68 24L68 24L68 24L69 24L69 25L69 25L69 25L68 26L68 26L68 27L68 27L68 27L67 27L66 27L65 27L65 27L64 27L64 28L64 28L63 28L63 28L62 29L62 29L62 30L62 30L62 30L62 30L62 30L62 30L62 30V30L62 30L62 31L62 31L62 31L62 31ZM38 36L39 36L38 36L37 36L36 36L36 36L36 35L36 36L37 36L38 36Z"/></mask><path d="M62 31L62 31L61 31L60 31L59 32L58 32L58 32L57 33L57 33L56 33L56 33L55 33L55 34L54 34L54 34L53 34L51 35L51 36L50 36L50 37L50 37L50 37L50 36L51 36L51 36L51 35L51 35L50 36L50 36L49 36L49 37L49 38L49 38L50 39L51 40L51 41L52 41L52 41L53 41L53 41L54 41L54 40L54 40L55 40L55 40L56 41L56 41L55 42L55 42L55 42L54 43L54 43L53 43L53 43L53 42L52 42L52 42L52 42L51 43L50 43L50 44L49 44L49 44L48 44L47 45L46 46L46 46L45 46L44 46L44 45L44 45L44 45L44 45L44 43L44 43L44 42L44 42L43 42L43 42L42 41L41 41L40 41L40 41L40 41L41 40L42 39L43 39L44 38L44 38L44 37L44 37L44 37L44 37L43 37L43 36L42 37L41 37L40 37L39 37L38 36L38 36L38 36L37 36L38 36L38 36L38 35L38 35L38 35L38 35L37 35L37 35L36 34L37 34L38 34L39 35L40 35L40 34L40 34L40 34L40 34L39 34L38 34L38 33L38 33L38 33L38 32L38 31L38 31L37 31L38 31L38 32L38 32L38 33L38 34L37 34L37 34L36 34L36 33L36 33L36 34L36 34L35 34L34 34L33 35L33 35L33 36L33 36L32 37L32 37L31 38L31 38L30 38L30 39L30 39L29 39L29 39L29 39L29 40L29 40L29 41L29 41L29 41L29 41L28 41L27 41L27 41L26 41L26 41L26 41L26 41L26 41L26 42L26 42L26 42L24 41L24 41L24 40L24 40L24 40L24 40L25 40L25 40L25 40L25 40L25 39L25 39L25 38L26 38L26 38L26 38L26 37L26 37L26 36L26 36L26 35L26 35L26 35L27 35L27 34L27 34L27 35L27 35L27 35L28 35L28 35L28 35L28 35L28 35L28 35L28 35L29 35L29 35L29 35L29 35L29 35L30 35L30 35L31 35L31 35L31 35L30 34L30 34L30 33L30 33L30 33L29 32L29 32L29 32L29 32L29 32L28 31L28 31L29 31L29 30L29 30L28 30L28 30L28 30L28 30L27 29L27 29L27 29L27 29L27 28L27 28L27 28L27 27L27 27L27 26L27 26L27 26L26 26L26 26L26 26L26 25L25 25L25 25L24 26L24 26L24 25L24 25L24 25L24 25L24 25L24 25L23 25L23 25L23 24L23 24L22 24L22 24L22 24L22 24L21 24L21 23L21 23L21 24L20 24L20 24L20 24L19 24L18 24L18 24L17 24L17 25L17 25L17 25L16 25L16 26L16 26L16 26L15 26L14 26L13 27L12 27L11 28L11 28L11 28L10 28L10 27L9 26L9 26L9 26L8 27L8 27L7 26L7 26L7 26L6 26L6 26L6 26L6 26L5 26L4 26L4 26L4 26L4 26L3 26L3 26L3 26L3 26L3 26L3 26L2 26L2 26L2 26L2 26L2 26L2 25L2 25L1 25L1 25L1 24L1 24L0 24L0 24L0 24L0 24L0 24L0 24L0 23L1 22L1 22L1 21L1 21L1 20L2 20L2 20L2 20L2 20L3 20L3 20L3 20L3 20L2 20L2 19L2 19L2 19L2 19L2 18L2 18L2 17L2 17L3 16L3 16L4 15L4 14L5 13L5 13L6 12L6 12L7 12L7 12L7 11L8 11L8 11L7 10L7 10L7 10L7 10L7 10L8 10L8 9L8 9L7 9L7 8L7 8L6 7L6 6L6 6L6 6L6 6L6 5L6 5L6 5L6 4L6 4L6 4L7 5L7 5L7 5L8 4L8 4L8 3L9 3L9 3L10 3L10 3L11 3L11 3L11 3L12 3L13 3L14 3L15 3L16 3L16 3L17 3L17 3L18 4L19 4L19 4L19 4L20 5L20 5L20 5L20 5L21 5L22 5L21 5L22 6L22 5L22 5L22 5L22 5L23 5L23 5L23 5L23 5L24 5L24 5L25 5L25 5L25 6L25 6L26 6L26 5L26 5L26 5L26 5L27 5L27 4L27 4L27 5L27 5L27 5L28 6L28 6L28 6L29 6L29 6L30 6L31 5L31 6L31 6L32 6L32 6L32 7L32 7L33 6L33 6L33 6L33 6L32 5L32 5L33 4L33 4L33 3L33 3L34 2L34 2L35 2L35 2L35 2L36 2L36 2L37 2L37 2L38 2L38 2L38 2L39 2L39 2L39 2L40 0L40 0L40 0L40 0L41 0L41 1L42 1L42 0L43 0L44 0L44 0L45 0L45 0L46 1L46 1L46 2L47 4L47 4L47 4L47 4L46 4L46 4L46 5L47 5L47 5L47 6L47 6L47 6L47 6L47 7L47 7L47 7L48 7L48 7L49 7L49 7L49 7L50 7L50 7L50 7L50 8L50 8L50 8L51 8L51 8L51 8L51 8L51 9L51 9L51 10L51 10L51 10V10L51 11L51 11L51 11L52 12L52 12L52 12L52 12L53 12L53 12L54 12L54 12L54 12L54 12L55 13L55 13L56 13L56 13L56 13L56 13L56 13L57 12L58 12L58 12L58 12L59 12L59 12L59 12L60 13L60 13L60 14L61 15L62 15L62 15L62 15L62 15L62 14L62 14L62 14L63 15L63 15L64 15L64 15L65 16L65 16L66 15L66 15L66 15L66 16L66 16L67 16L67 16L68 16L68 17L68 17L69 17L69 17L69 17L69 17L69 17V18L70 18L70 18L69 19L69 19L69 20L69 20L68 20L68 20L68 21L68 21L68 21L69 21L69 21L69 21L69 22L68 21L68 22L68 22L68 22L68 23L68 23L68 23L68 23L68 24L69 24L68 24L68 24L68 24L69 24L69 25L69 25L69 25L68 26L68 26L68 27L68 27L68 27L67 27L66 27L65 27L65 27L64 27L64 28L64 28L63 28L63 28L62 29L62 29L62 30L62 30L62 30L62 30L62 30L62 30L62 30V30L62 30L62 31L62 31L62 31L62 31ZM38 36L39 36L38 36L37 36L36 36L36 36L36 35L36 36L37 36L38 36Z" fill="var(--fill-0,#71B219)" stroke="var(--stroke-0,white)" mask="url(#path-1-inside-1_0_232)"/></g></svg>