<svg preserveAspectRatio="none" width="100%" height="100%" overflow="visible" style="display: block;" viewBox="0 0 69.4918 46.1607" fill="none" xmlns="http://www.w3.org/2000/svg">
<g id="UA">
<mask id="path-1-inside-1_0_232" fill="white">
<path d="M62.1015 31.2932L61.9612 31.3563L60.6116 31.2685L59.5097 31.3879L58.7242 32.2753L58.2565 32.2726L57.5975 32.503L57.1504 32.7897L56.6207 33.4097L56.2108 33.1312L55.7087 33.1394L55.2189 33.3082L54.6302 33.7224L54.3027 33.7951L53.6479 33.6771L52.8844 33.9144L51.2363 35.2683L50.6819 36.2545L50.4797 36.4465L50.2018 36.6866L49.9047 36.8073L49.7478 36.7963L50.5333 36.0968L50.774 35.8348L50.8154 35.6414L50.8195 35.3272L50.5815 34.9377L49.939 35.902L49.5744 36.0419L49.1108 36.3313L49.0875 36.9746L49.1412 37.452L49.331 38.0514L49.7795 39.0294L50.6956 40.4216L51.1345 40.9319L51.4564 41.1349L51.8444 41.1637L52.59 40.7344L52.9078 40.6671L53.6011 40.8304L53.8488 40.5451L54.2092 40.386L54.6714 40.3654L55.1997 40.4943L55.7719 40.7111L55.5367 41.2007L55.2918 41.5903L55.2052 42.021L55.069 42.4997L54.4375 42.7137L53.762 42.6876L53.0494 42.8262L52.7922 42.641L52.6216 42.4709L52.3052 42.3008L51.8883 42.2075L51.5142 42.3214L51.0712 42.9729L50.287 43.4173L50.0284 43.9249L49.2567 43.811L48.5963 43.9002L47.643 44.3624L46.9167 45.35L46.116 45.9659L45.4818 46.1607L44.8861 46.1003L44.5009 45.9165L43.7085 45.2691L43.7553 45.0373L43.8653 44.9207L44.0153 44.586L44.3317 43.357L44.289 42.9565L44.1116 42.3268L43.4829 41.8358L42.978 41.9291L42.6905 41.7988L41.6546 40.962L41.0905 40.9031L40.4673 41.0718L40.2376 40.9497L40.0684 40.6576L41.3038 39.6219L42.5172 38.7647L43.0495 38.6769L43.7677 38.2763L44.5353 37.6755L44.4267 37.2023L44.2615 36.8512L43.8942 36.9472L43.6273 37.0638L42.9849 36.6879L42.7496 36.4109L41.744 36.6989L41.1841 36.6564L39.9488 36.9211L39.3806 36.6632L38.2456 35.939L37.8191 35.7936L37.456 35.8252L37.2579 35.5865L37.5 35.4672L37.782 35.4535L38.0751 35.3657L38.1576 35.2395L38.1397 35.0008L37.5495 34.8197L37.0006 34.7676L36.6526 34.5536L36.387 34.3081L37.0089 34.304L37.6348 34.4905L38.613 34.5591L39.5017 34.7512L39.7232 34.5125L40.239 34.0982L40.3367 33.9665L39.4728 34.2505L38.5964 34.0694L38.2773 33.8171L38.0062 33.4453L37.8921 33.0215L37.9663 32.6264L37.8715 31.9118L37.5825 31.274L37.4808 30.9242L37.1754 30.6101L37.4752 31.3206L37.5866 31.7925L37.7669 32.2259L37.7243 33.3726L37.6128 33.7745L37.2524 33.876L36.7791 33.8157L36.2977 33.6909L36.4173 33.0613L36.1601 33.2794L35.7983 33.8925L35.4791 33.983L34.7706 33.9158L33.4555 34.3205L33.3647 34.7608L33.1666 35.3547L32.9753 35.7003L32.9162 35.9088L32.3563 36.8018L32.2847 36.8869L31.2268 38.12L31.092 38.2119L30.4069 38.4986L30.0011 38.7495L29.6902 38.862L29.1646 38.7372L28.9459 38.9142L28.8428 39.1336L28.8414 39.5877L29.1083 39.9127L29.327 40.9922L29.2458 41.4476L29.0381 41.1527L28.7121 40.8414L28.0792 40.5753L27.3846 40.6671L26.6265 41.1171L26.112 41.2844L25.8424 41.1692L25.6773 41.176L25.6195 41.305L25.6319 41.4106L25.7144 41.4929L25.7034 41.5519L25.5961 41.5889L24.402 41.2721L23.8861 40.9717L23.4803 40.4079L23.6825 40.2255L23.8586 40.1446L24.4804 40.0979L24.5878 40.0403L24.5988 39.91L24.6455 39.7399L24.629 39.4916L24.5602 39.2283L24.8326 38.8428L25.2385 38.5246L25.4764 38.205L25.5122 37.7359L25.94 37.5068L26.3184 37.1132L26.4119 36.6838L26.5453 36.4136L26.3033 35.7923L26.2524 35.3821L26.2413 35.0378L26.3596 34.8472L26.7132 34.6318L27.0846 34.4645L27.2387 34.4809L27.2951 34.5866L27.3088 35.2861L27.3831 35.2998L27.5014 35.2134L27.6954 34.8019L27.8289 34.9212L28.0352 34.9665L28.1893 34.8595L28.2897 34.8719L28.4136 34.9775L28.6612 35.127L28.8923 35.1764L29.0835 35.0776L29.2473 34.8993L29.4219 34.9596L29.7535 35.4452L29.9076 35.3917L30.6711 35.2943L30.7935 35.1627L30.8843 35.0433L30.0864 34.3986L30.1263 33.9172L30.1565 33.3644L30.0616 33.0352L29.9061 32.7746L29.2967 32.4714L28.8249 32.1573L28.7258 32.0147L28.7135 31.8309L28.6928 31.5456L28.5058 31.3L28.4906 31.0916L28.6089 30.7665L28.6378 30.4208L28.5979 30.2836L28.4879 30.1712L28.2759 30.1602L27.9967 29.9599L27.8055 29.6897L27.2909 29.3002L27.1342 29.237L27.0379 29.0437L26.9911 28.8132L27.0998 28.5266L27.2359 28.0835L27.3309 27.6679L27.3323 27.4196L27.2704 26.8051L27.0021 26.3346L26.8769 26.2729L26.6609 26.4046L26.4147 26.5157L26.2207 26.4114L25.9992 26.1563L25.6443 25.4444L24.9798 25.3018L24.7047 25.2675L24.4447 25.6104L24.3635 25.5061L24.2906 25.2867L24.1531 25.2002L23.9714 25.3018L23.9191 25.2043L23.9976 24.9067L23.7816 24.76L23.2712 24.7627L22.9988 24.653L22.9672 24.4294L22.8063 24.2826L22.5173 24.2113L22.2353 24.0288L21.9629 23.7339L21.5543 23.5419L21.011 23.4528L20.9669 23.4212L20.916 23.3787L20.5652 23.5789L20.3547 23.738L20.0961 23.6393L19.6779 23.9932L18.8277 24.011L18.4109 23.9891L18.2045 23.9013L17.4066 24.439L17.3227 24.6365L17.1439 24.7023L16.6417 24.8093L16.1134 24.9602L16.002 25.4801L15.8452 25.7613L15.5618 26.1728L14.581 26.3154L13.7335 26.5157L12.8655 26.6405L11.7277 27.1425L11.3577 27.5842L10.9918 27.7077L10.6602 27.7447L10.4456 27.4978L9.72339 26.8366L9.44547 26.5239L9.07954 26.432L8.68197 26.4841L8.2995 26.6378L7.89781 26.6666L7.44247 26.4444L7.39435 26.4663L7.21962 26.4965L6.08877 26.2276L5.98423 26.1824L5.93469 26.1714L5.77927 26.1508L4.92769 26.1837L4.13397 25.6406L3.89047 25.6241L3.70196 25.8435L3.563 26.0877L3.01546 26.3305L2.87515 26.4279L2.79539 26.3524L2.75827 26.1426L2.7995 25.956L2.7183 25.7805L2.51057 25.5802L2.45969 25.4965L2.19831 25.5116L2.12677 25.5308L2.10065 25.5267L1.7375 25.3566L1.49812 24.9465L1.12531 24.7284L0.840496 24.6543L0.711189 24.4774L0.627308 24.2428L0.539228 24.0659L0.529655 24.0481L0.469116 23.7792L0.38238 23.7518L0.367266 23.7449L0 23.7915L0.0426546 22.8465L0.630078 22.1648L0.774499 21.8205L0.994573 21.0729L1.15965 20.7218L1.35781 20.431L1.516 20.1498L1.57243 19.9084L1.73196 19.8809L2.19973 20.099L2.61931 20.2115L2.73485 20.1045L2.78304 19.9646L2.76373 19.8562L2.42804 19.5339L2.21762 19.3281L2.20385 19.202L2.2795 18.918L2.32073 18.5998L2.27261 18.2541L2.04288 17.4874L2.00023 17.1609L2.21896 16.7631L2.93158 15.814L3.16954 15.4559L3.49423 15.0239L4.37604 13.9869L4.93181 13.382L5.30881 13.0459L5.86047 12.463L6.10254 12.1598L7.10954 11.9623L7.23473 11.6784L7.41912 11.3684L7.5622 11.2353L7.58143 10.7127L7.39435 10.0722L7.24439 9.84583L7.13297 9.69082L7.20585 9.54682L7.31727 9.50567L7.45489 9.48508L7.62543 9.33007L7.58689 9.16137L7.16185 8.74989L6.97746 8.43301L6.68996 7.61549L6.10666 6.76506L5.92235 6.48937L5.89615 6.22875L5.98146 5.96813L5.90035 5.6348L5.69396 5.20959L5.72696 5.16296L5.70639 4.63762L5.85358 4.52376L6.086 4.44694L6.41347 4.47302L6.69408 4.55394L7.02977 4.79401L7.13431 4.75558L7.70796 4.30295L8.2995 3.61983L8.46878 3.22342L8.61597 3.04238L9.13043 2.94635L9.57889 2.90658L9.8637 2.91345L10.5639 2.84622L10.978 2.77079L11.337 2.65007L12.1115 2.60482L13.3195 2.68573L14.1132 2.69121L14.6525 2.75568L15.9718 3.11919L16.4629 3.18504L16.6913 3.37843L17.1301 3.44976L17.928 3.64315L18.62 3.74742L19.0877 3.70489L19.3491 3.75977L19.8444 4.61706L19.9461 4.71719L20.1443 4.73775L20.5487 4.6637L21.1237 4.69249L21.4649 4.87216L21.4154 5.38105L21.5048 5.45514L21.6644 5.42634L21.8474 5.13964L22.0014 4.84198L22.1156 4.74871L22.7031 4.95035L22.9713 4.91745L23.2189 4.69111L23.3702 4.65273L23.7871 4.81318L24.3003 4.92565L24.7157 4.93252L24.9743 5.05462L25.1627 5.58545L25.3265 5.69517L25.4847 5.72811L25.7241 5.2535L25.9414 5.06969L26.2427 4.9339L26.4367 4.87492L26.5742 4.70618L26.7586 4.54297L26.9181 4.52924L27.0474 4.59237L27.1961 4.81866L27.4134 5.33442L27.6775 5.85155L27.8619 6.03946L28.3379 5.88035L28.6598 5.71848L29.2499 5.6883L30.0328 5.57448L30.6312 5.42634L31.0053 5.45238L31.2324 5.61697L31.5776 5.93385L31.6712 6.38924L32.1196 6.70336L32.487 6.76096L32.6122 6.43449L32.8268 6.20682L32.7456 5.8927L32.7098 5.49219L32.5489 5.12043L32.4416 4.71991L32.6383 4.14656L32.8529 3.64453L32.9602 3.37156L33.3 2.86682L33.6481 2.50607L34.1694 1.92585L34.5505 1.7338L34.8945 1.82158L35.0856 1.90115L35.5795 1.55685L36.4586 1.53902L37.1905 1.58293L37.2647 1.5939L37.6252 1.77222L38.0035 1.92309L38.2649 1.93271L38.5758 1.89839L38.9418 1.69675L39.1963 1.50198L39.5058 0.511654L39.6158 0.368995L39.7864 0.290801L40.0656 0.282596L40.5967 0.467743L41.2185 0.633717L41.579 0.610401L42.5392 0.0823384L43.0743 0L43.7099 0.123487L44.3345 0.13031L44.8049 0.053497L45.1282 0.235964L45.5272 0.639201L45.8876 1.23725L46.2646 2.33871L47.3637 3.57731L47.3816 3.81875L47.2922 3.97372L46.7516 4.12324L46.2948 4.20416L46.2728 4.41542L46.3939 4.64448L46.603 4.97915L46.6346 5.40985L46.6236 5.80492L46.713 6.15332L46.8878 6.29598L46.9098 6.47016L46.7089 6.68415L46.6525 6.81584L46.7309 6.88717L47.7228 6.92832L48.2084 7.13544L48.5771 7.32473L48.7628 7.34256L49.181 7.22184L49.6515 7.14502L49.9362 7.13406L50.0463 7.27395L50.1344 7.64019L50.2995 8.00642L50.4535 8.11069L50.7287 8.09286L50.8938 8.11069L50.9818 8.24921L50.8828 8.45771L50.9048 8.68405L51.0259 8.96112L51.1689 9.60166L51.3009 9.79233L51.389 10.0337V10.3108L51.2789 10.5523L51.2019 10.7415L51.2789 11.1722L51.5761 11.6537L51.7962 11.773L51.9723 12.2024L52.2915 12.3395L52.7647 11.9788L53.1279 11.7895L53.5819 11.8951L54.0014 11.9623L54.2835 12.2079L54.4912 12.5453L54.7333 12.7332L54.9754 12.6344L55.4803 12.7332L55.7115 13.0062L55.9425 13.1598L56.2397 12.9376L56.4819 12.6632L57.3678 12.3765L57.918 12.3052L58.0721 12.249L58.3954 12.0432L58.7366 11.9061L59.0434 11.9431L59.346 12.3697L59.6597 12.6632L59.7477 13.1255L60.1302 13.7592L61.0807 14.6247L61.4536 14.8881L61.7067 14.8414L61.8388 14.7729L61.9007 14.6823L61.9584 14.2585L62.0782 14.1021L62.2707 14.098L63.015 14.6247L63.4043 14.6823L63.7744 14.6919L64.2724 15.1007L64.8186 15.4559L65.2408 15.493L65.5779 15.3531L65.809 15.268L65.9521 15.4038L66.0842 15.7097L66.3042 15.947L66.5574 16.0142L66.922 16.0293L67.5547 16.4874L68.1491 16.9538L68.5205 16.9799L68.8356 16.8427L69.1134 16.807L69.3074 16.925L69.3624 17.1266L69.2194 17.3968V17.7837L69.4835 18.154L69.4918 18.5175L69.4161 18.8453L69.2661 19.1471L68.9043 19.5613L68.5701 19.9468L68.0679 20.1073L67.7859 20.276L67.8602 20.5585L68.0445 20.8219L68.471 21.0345L68.9552 21.1895L69.0116 21.361L68.9373 21.4474L68.6265 21.5269L68.1973 21.446L68.0542 21.5955L67.856 21.8438L67.724 22.2909L67.6249 22.7052L68.0913 22.8177L68.3623 22.9864L68.4476 23.3252L68.5439 23.7024L68.5728 24.0412L68.4188 24.2058L68.4091 24.3745L68.482 24.4582L68.6828 24.4952L68.8356 24.5707L68.8479 24.749L68.5549 25.1495L68.2811 25.9149L68.1339 26.3209L68.1449 26.7612L67.9799 27.0054L67.6758 27.0369L66.6441 27.0794L65.7457 27.0575L65.3578 26.9944L64.7497 26.956L64.4484 27.0602L64.0495 27.7625L63.7468 28.0368L63.2475 28.2851L62.6986 28.3564L62.3836 28.6445L62.2721 29.0972L62.2639 29.4977L62.2129 29.6979L62.0946 29.8735L62.052 29.9984L62.0782 30.1355L62.2061 30.1849L62.3588 30.248V30.3468L62.2996 30.4716L62.1291 30.6087L62.052 30.82L62.0699 31.0449L62.1015 31.2932ZM38.1562 36.2545L38.6886 36.5275L38.1452 36.4548L36.9525 36.1983L36.4256 35.9555L36.2894 35.6839L36.2124 35.3136L36.5068 35.7017L36.7131 35.8718L38.1562 36.2545Z"/>
</mask>
<path d="M62.1015 31.2932L61.9612 31.3563L60.6116 31.2685L59.5097 31.3879L58.7242 32.2753L58.2565 32.2726L57.5975 32.503L57.1504 32.7897L56.6207 33.4097L56.2108 33.1312L55.7087 33.1394L55.2189 33.3082L54.6302 33.7224L54.3027 33.7951L53.6479 33.6771L52.8844 33.9144L51.2363 35.2683L50.6819 36.2545L50.4797 36.4465L50.2018 36.6866L49.9047 36.8073L49.7478 36.7963L50.5333 36.0968L50.774 35.8348L50.8154 35.6414L50.8195 35.3272L50.5815 34.9377L49.939 35.902L49.5744 36.0419L49.1108 36.3313L49.0875 36.9746L49.1412 37.452L49.331 38.0514L49.7795 39.0294L50.6956 40.4216L51.1345 40.9319L51.4564 41.1349L51.8444 41.1637L52.59 40.7344L52.9078 40.6671L53.6011 40.8304L53.8488 40.5451L54.2092 40.386L54.6714 40.3654L55.1997 40.4943L55.7719 40.7111L55.5367 41.2007L55.2918 41.5903L55.2052 42.021L55.069 42.4997L54.4375 42.7137L53.762 42.6876L53.0494 42.8262L52.7922 42.641L52.6216 42.4709L52.3052 42.3008L51.8883 42.2075L51.5142 42.3214L51.0712 42.9729L50.287 43.4173L50.0284 43.9249L49.2567 43.811L48.5963 43.9002L47.643 44.3624L46.9167 45.35L46.116 45.9659L45.4818 46.1607L44.8861 46.1003L44.5009 45.9165L43.7085 45.2691L43.7553 45.0373L43.8653 44.9207L44.0153 44.586L44.3317 43.357L44.289 42.9565L44.1116 42.3268L43.4829 41.8358L42.978 41.9291L42.6905 41.7988L41.6546 40.962L41.0905 40.9031L40.4673 41.0718L40.2376 40.9497L40.0684 40.6576L41.3038 39.6219L42.5172 38.7647L43.0495 38.6769L43.7677 38.2763L44.5353 37.6755L44.4267 37.2023L44.2615 36.8512L43.8942 36.9472L43.6273 37.0638L42.9849 36.6879L42.7496 36.4109L41.744 36.6989L41.1841 36.6564L39.9488 36.9211L39.3806 36.6632L38.2456 35.939L37.8191 35.7936L37.456 35.8252L37.2579 35.5865L37.5 35.4672L37.782 35.4535L38.0751 35.3657L38.1576 35.2395L38.1397 35.0008L37.5495 34.8197L37.0006 34.7676L36.6526 34.5536L36.387 34.3081L37.0089 34.304L37.6348 34.4905L38.613 34.5591L39.5017 34.7512L39.7232 34.5125L40.239 34.0982L40.3367 33.9665L39.4728 34.2505L38.5964 34.0694L38.2773 33.8171L38.0062 33.4453L37.8921 33.0215L37.9663 32.6264L37.8715 31.9118L37.5825 31.274L37.4808 30.9242L37.1754 30.6101L37.4752 31.3206L37.5866 31.7925L37.7669 32.2259L37.7243 33.3726L37.6128 33.7745L37.2524 33.876L36.7791 33.8157L36.2977 33.6909L36.4173 33.0613L36.1601 33.2794L35.7983 33.8925L35.4791 33.983L34.7706 33.9158L33.4555 34.3205L33.3647 34.7608L33.1666 35.3547L32.9753 35.7003L32.9162 35.9088L32.3563 36.8018L32.2847 36.8869L31.2268 38.12L31.092 38.2119L30.4069 38.4986L30.0011 38.7495L29.6902 38.862L29.1646 38.7372L28.9459 38.9142L28.8428 39.1336L28.8414 39.5877L29.1083 39.9127L29.327 40.9922L29.2458 41.4476L29.0381 41.1527L28.7121 40.8414L28.0792 40.5753L27.3846 40.6671L26.6265 41.1171L26.112 41.2844L25.8424 41.1692L25.6773 41.176L25.6195 41.305L25.6319 41.4106L25.7144 41.4929L25.7034 41.5519L25.5961 41.5889L24.402 41.2721L23.8861 40.9717L23.4803 40.4079L23.6825 40.2255L23.8586 40.1446L24.4804 40.0979L24.5878 40.0403L24.5988 39.91L24.6455 39.7399L24.629 39.4916L24.5602 39.2283L24.8326 38.8428L25.2385 38.5246L25.4764 38.205L25.5122 37.7359L25.94 37.5068L26.3184 37.1132L26.4119 36.6838L26.5453 36.4136L26.3033 35.7923L26.2524 35.3821L26.2413 35.0378L26.3596 34.8472L26.7132 34.6318L27.0846 34.4645L27.2387 34.4809L27.2951 34.5866L27.3088 35.2861L27.3831 35.2998L27.5014 35.2134L27.6954 34.8019L27.8289 34.9212L28.0352 34.9665L28.1893 34.8595L28.2897 34.8719L28.4136 34.9775L28.6612 35.127L28.8923 35.1764L29.0835 35.0776L29.2473 34.8993L29.4219 34.9596L29.7535 35.4452L29.9076 35.3917L30.6711 35.2943L30.7935 35.1627L30.8843 35.0433L30.0864 34.3986L30.1263 33.9172L30.1565 33.3644L30.0616 33.0352L29.9061 32.7746L29.2967 32.4714L28.8249 32.1573L28.7258 32.0147L28.7135 31.8309L28.6928 31.5456L28.5058 31.3L28.4906 31.0916L28.6089 30.7665L28.6378 30.4208L28.5979 30.2836L28.4879 30.1712L28.2759 30.1602L27.9967 29.9599L27.8055 29.6897L27.2909 29.3002L27.1342 29.237L27.0379 29.0437L26.9911 28.8132L27.0998 28.5266L27.2359 28.0835L27.3309 27.6679L27.3323 27.4196L27.2704 26.8051L27.0021 26.3346L26.8769 26.2729L26.6609 26.4046L26.4147 26.5157L26.2207 26.4114L25.9992 26.1563L25.6443 25.4444L24.9798 25.3018L24.7047 25.2675L24.4447 25.6104L24.3635 25.5061L24.2906 25.2867L24.1531 25.2002L23.9714 25.3018L23.9191 25.2043L23.9976 24.9067L23.7816 24.76L23.2712 24.7627L22.9988 24.653L22.9672 24.4294L22.8063 24.2826L22.5173 24.2113L22.2353 24.0288L21.9629 23.7339L21.5543 23.5419L21.011 23.4528L20.9669 23.4212L20.916 23.3787L20.5652 23.5789L20.3547 23.738L20.0961 23.6393L19.6779 23.9932L18.8277 24.011L18.4109 23.9891L18.2045 23.9013L17.4066 24.439L17.3227 24.6365L17.1439 24.7023L16.6417 24.8093L16.1134 24.9602L16.002 25.4801L15.8452 25.7613L15.5618 26.1728L14.581 26.3154L13.7335 26.5157L12.8655 26.6405L11.7277 27.1425L11.3577 27.5842L10.9918 27.7077L10.6602 27.7447L10.4456 27.4978L9.72339 26.8366L9.44547 26.5239L9.07954 26.432L8.68197 26.4841L8.2995 26.6378L7.89781 26.6666L7.44247 26.4444L7.39435 26.4663L7.21962 26.4965L6.08877 26.2276L5.98423 26.1824L5.93469 26.1714L5.77927 26.1508L4.92769 26.1837L4.13397 25.6406L3.89047 25.6241L3.70196 25.8435L3.563 26.0877L3.01546 26.3305L2.87515 26.4279L2.79539 26.3524L2.75827 26.1426L2.7995 25.956L2.7183 25.7805L2.51057 25.5802L2.45969 25.4965L2.19831 25.5116L2.12677 25.5308L2.10065 25.5267L1.7375 25.3566L1.49812 24.9465L1.12531 24.7284L0.840496 24.6543L0.711189 24.4774L0.627308 24.2428L0.539228 24.0659L0.529655 24.0481L0.469116 23.7792L0.38238 23.7518L0.367266 23.7449L0 23.7915L0.0426546 22.8465L0.630078 22.1648L0.774499 21.8205L0.994573 21.0729L1.15965 20.7218L1.35781 20.431L1.516 20.1498L1.57243 19.9084L1.73196 19.8809L2.19973 20.099L2.61931 20.2115L2.73485 20.1045L2.78304 19.9646L2.76373 19.8562L2.42804 19.5339L2.21762 19.3281L2.20385 19.202L2.2795 18.918L2.32073 18.5998L2.27261 18.2541L2.04288 17.4874L2.00023 17.1609L2.21896 16.7631L2.93158 15.814L3.16954 15.4559L3.49423 15.0239L4.37604 13.9869L4.93181 13.382L5.30881 13.0459L5.86047 12.463L6.10254 12.1598L7.10954 11.9623L7.23473 11.6784L7.41912 11.3684L7.5622 11.2353L7.58143 10.7127L7.39435 10.0722L7.24439 9.84583L7.13297 9.69082L7.20585 9.54682L7.31727 9.50567L7.45489 9.48508L7.62543 9.33007L7.58689 9.16137L7.16185 8.74989L6.97746 8.43301L6.68996 7.61549L6.10666 6.76506L5.92235 6.48937L5.89615 6.22875L5.98146 5.96813L5.90035 5.6348L5.69396 5.20959L5.72696 5.16296L5.70639 4.63762L5.85358 4.52376L6.086 4.44694L6.41347 4.47302L6.69408 4.55394L7.02977 4.79401L7.13431 4.75558L7.70796 4.30295L8.2995 3.61983L8.46878 3.22342L8.61597 3.04238L9.13043 2.94635L9.57889 2.90658L9.8637 2.91345L10.5639 2.84622L10.978 2.77079L11.337 2.65007L12.1115 2.60482L13.3195 2.68573L14.1132 2.69121L14.6525 2.75568L15.9718 3.11919L16.4629 3.18504L16.6913 3.37843L17.1301 3.44976L17.928 3.64315L18.62 3.74742L19.0877 3.70489L19.3491 3.75977L19.8444 4.61706L19.9461 4.71719L20.1443 4.73775L20.5487 4.6637L21.1237 4.69249L21.4649 4.87216L21.4154 5.38105L21.5048 5.45514L21.6644 5.42634L21.8474 5.13964L22.0014 4.84198L22.1156 4.74871L22.7031 4.95035L22.9713 4.91745L23.2189 4.69111L23.3702 4.65273L23.7871 4.81318L24.3003 4.92565L24.7157 4.93252L24.9743 5.05462L25.1627 5.58545L25.3265 5.69517L25.4847 5.72811L25.7241 5.2535L25.9414 5.06969L26.2427 4.9339L26.4367 4.87492L26.5742 4.70618L26.7586 4.54297L26.9181 4.52924L27.0474 4.59237L27.1961 4.81866L27.4134 5.33442L27.6775 5.85155L27.8619 6.03946L28.3379 5.88035L28.6598 5.71848L29.2499 5.6883L30.0328 5.57448L30.6312 5.42634L31.0053 5.45238L31.2324 5.61697L31.5776 5.93385L31.6712 6.38924L32.1196 6.70336L32.487 6.76096L32.6122 6.43449L32.8268 6.20682L32.7456 5.8927L32.7098 5.49219L32.5489 5.12043L32.4416 4.71991L32.6383 4.14656L32.8529 3.64453L32.9602 3.37156L33.3 2.86682L33.6481 2.50607L34.1694 1.92585L34.5505 1.7338L34.8945 1.82158L35.0856 1.90115L35.5795 1.55685L36.4586 1.53902L37.1905 1.58293L37.2647 1.5939L37.6252 1.77222L38.0035 1.92309L38.2649 1.93271L38.5758 1.89839L38.9418 1.69675L39.1963 1.50198L39.5058 0.511654L39.6158 0.368995L39.7864 0.290801L40.0656 0.282596L40.5967 0.467743L41.2185 0.633717L41.579 0.610401L42.5392 0.0823384L43.0743 0L43.7099 0.123487L44.3345 0.13031L44.8049 0.053497L45.1282 0.235964L45.5272 0.639201L45.8876 1.23725L46.2646 2.33871L47.3637 3.57731L47.3816 3.81875L47.2922 3.97372L46.7516 4.12324L46.2948 4.20416L46.2728 4.41542L46.3939 4.64448L46.603 4.97915L46.6346 5.40985L46.6236 5.80492L46.713 6.15332L46.8878 6.29598L46.9098 6.47016L46.7089 6.68415L46.6525 6.81584L46.7309 6.88717L47.7228 6.92832L48.2084 7.13544L48.5771 7.32473L48.7628 7.34256L49.181 7.22184L49.6515 7.14502L49.9362 7.13406L50.0463 7.27395L50.1344 7.64019L50.2995 8.00642L50.4535 8.11069L50.7287 8.09286L50.8938 8.11069L50.9818 8.24921L50.8828 8.45771L50.9048 8.68405L51.0259 8.96112L51.1689 9.60166L51.3009 9.79233L51.389 10.0337V10.3108L51.2789 10.5523L51.2019 10.7415L51.2789 11.1722L51.5761 11.6537L51.7962 11.773L51.9723 12.2024L52.2915 12.3395L52.7647 11.9788L53.1279 11.7895L53.5819 11.8951L54.0014 11.9623L54.2835 12.2079L54.4912 12.5453L54.7333 12.7332L54.9754 12.6344L55.4803 12.7332L55.7115 13.0062L55.9425 13.1598L56.2397 12.9376L56.4819 12.6632L57.3678 12.3765L57.918 12.3052L58.0721 12.249L58.3954 12.0432L58.7366 11.9061L59.0434 11.9431L59.346 12.3697L59.6597 12.6632L59.7477 13.1255L60.1302 13.7592L61.0807 14.6247L61.4536 14.8881L61.7067 14.8414L61.8388 14.7729L61.9007 14.6823L61.9584 14.2585L62.0782 14.1021L62.2707 14.098L63.015 14.6247L63.4043 14.6823L63.7744 14.6919L64.2724 15.1007L64.8186 15.4559L65.2408 15.493L65.5779 15.3531L65.809 15.268L65.9521 15.4038L66.0842 15.7097L66.3042 15.947L66.5574 16.0142L66.922 16.0293L67.5547 16.4874L68.1491 16.9538L68.5205 16.9799L68.8356 16.8427L69.1134 16.807L69.3074 16.925L69.3624 17.1266L69.2194 17.3968V17.7837L69.4835 18.154L69.4918 18.5175L69.4161 18.8453L69.2661 19.1471L68.9043 19.5613L68.5701 19.9468L68.0679 20.1073L67.7859 20.276L67.8602 20.5585L68.0445 20.8219L68.471 21.0345L68.9552 21.1895L69.0116 21.361L68.9373 21.4474L68.6265 21.5269L68.1973 21.446L68.0542 21.5955L67.856 21.8438L67.724 22.2909L67.6249 22.7052L68.0913 22.8177L68.3623 22.9864L68.4476 23.3252L68.5439 23.7024L68.5728 24.0412L68.4188 24.2058L68.4091 24.3745L68.482 24.4582L68.6828 24.4952L68.8356 24.5707L68.8479 24.749L68.5549 25.1495L68.2811 25.9149L68.1339 26.3209L68.1449 26.7612L67.9799 27.0054L67.6758 27.0369L66.6441 27.0794L65.7457 27.0575L65.3578 26.9944L64.7497 26.956L64.4484 27.0602L64.0495 27.7625L63.7468 28.0368L63.2475 28.2851L62.6986 28.3564L62.3836 28.6445L62.2721 29.0972L62.2639 29.4977L62.2129 29.6979L62.0946 29.8735L62.052 29.9984L62.0782 30.1355L62.2061 30.1849L62.3588 30.248V30.3468L62.2996 30.4716L62.1291 30.6087L62.052 30.82L62.0699 31.0449L62.1015 31.2932ZM38.1562 36.2545L38.6886 36.5275L38.1452 36.4548L36.9525 36.1983L36.4256 35.9555L36.2894 35.6839L36.2124 35.3136L36.5068 35.7017L36.7131 35.8718L38.1562 36.2545Z" fill="var(--fill-0, #71B219)" stroke="var(--stroke-0, white)" mask="url(#path-1-inside-1_0_232)"/>
</g>
</svg>
