<svg preserveAspectRatio="none" width="100%" height="100%" overflow="visible" style="display: block;" viewBox="0 0 21 22" fill="none" xmlns="http://www.w3.org/2000/svg"><g id="UG"><mask id="path-1-inside-1_0_123" fill="white"><path d="M17 20H16H16H15H14H14H13H12H12H11H10H10H9H8H7H7H6H5H5L5 20L5 20L5 20L4 20L4 20L4 20L4 20L4 20L3 20L3 20L3 20L3 21L2 21L2 21L2 21L2 22L1 22L1 22L1 22L1 21L1 21L0 22L0 22L0 21L0 20L0 20L0 20L0 19L0 19L0 18L0 18L0 17L0 16L1 16L1 16L1 16L1 15L1 14L1 14L1 14L1 13L2 13L2 13L2 12L3 12L3 12L4 11L4 11L5 10L6 9L6 8L6 8L7 8L6 8L6 8L6 8L6 7L6 7L6 7L6 7L5 7L5 7L4 7L4 6L5 6L5 5L5 5L5 5L5 5L5 5L5 4L5 4L5 4L5 3L5 3L5 3L5 3L5 3L5 2L6 2L6 2L6 2L7 2L7 2L8 2L8 2L9 2L9 2L9 2L9 2L10 2L10 3L10 3L10 3L10 2L10 2L11 2L12 2L12 2L12 2L13 2L13 1L14 2L14 2L15 2L15 2L16 2L16 1L17 0L18 1L18 1L18 2L18 2L18 2L19 2L19 2L19 2L19 3L19 3L19 4L19 4L19 5L20 5L20 5L20 6L20 6L20 6L20 6L21 7L20 7L21 8L21 8L21 9L21 9L21 10L21 10L21 10L21 10L20 10L20 11L20 11L20 11L20 11L20 11L20 12L20 12L20 12L19 12L19 12L19 13L18 13L18 14L18 14L18 14L17 15L17 15L17 16L17 16L17 18L17 19L17 20Z"/></mask><path d="M17 20H16H16H15H14H14H13H12H12H11H10H10H9H8H7H7H6H5H5L5 20L5 20L5 20L4 20L4 20L4 20L4 20L4 20L3 20L3 20L3 20L3 21L2 21L2 21L2 21L2 22L1 22L1 22L1 22L1 21L1 21L0 22L0 22L0 21L0 20L0 20L0 20L0 19L0 19L0 18L0 18L0 17L0 16L1 16L1 16L1 16L1 15L1 14L1 14L1 14L1 13L2 13L2 13L2 12L3 12L3 12L4 11L4 11L5 10L6 9L6 8L6 8L7 8L6 8L6 8L6 8L6 7L6 7L6 7L6 7L5 7L5 7L4 7L4 6L5 6L5 5L5 5L5 5L5 5L5 5L5 4L5 4L5 4L5 3L5 3L5 3L5 3L5 3L5 2L6 2L6 2L6 2L7 2L7 2L8 2L8 2L9 2L9 2L9 2L9 2L10 2L10 3L10 3L10 3L10 2L10 2L11 2L12 2L12 2L12 2L13 2L13 1L14 2L14 2L15 2L15 2L16 2L16 1L17 0L18 1L18 1L18 2L18 2L18 2L19 2L19 2L19 2L19 3L19 3L19 4L19 4L19 5L20 5L20 5L20 6L20 6L20 6L20 6L21 7L20 7L21 8L21 8L21 9L21 9L21 10L21 10L21 10L21 10L20 10L20 11L20 11L20 11L20 11L20 11L20 12L20 12L20 12L19 12L19 12L19 13L18 13L18 14L18 14L18 14L17 15L17 15L17 16L17 16L17 18L17 19L17 20Z" fill="var(--fill-0,#71B219)" stroke="var(--stroke-0,white)" mask="url(#path-1-inside-1_0_123)"/></g></svg>