<svg preserveAspectRatio="none" width="100%" height="100%" overflow="visible" style="display: block;" viewBox="0 0 20.9105 21.7738" fill="none" xmlns="http://www.w3.org/2000/svg">
<g id="UG">
<mask id="path-1-inside-1_0_123" fill="white">
<path d="M16.7614 19.9838H16.339H15.6526H14.9661H14.2796H13.5932H12.9081H12.2216H11.5351H10.8487H10.1622H9.47578H8.78927H8.10277H7.4177H6.73119H6.04477H5.35827H4.95246L4.87127 19.9728L4.81493 19.9564L4.55623 20.0044L4.28796 20.1731L4.00323 20.2417L3.69785 20.2156L3.65931 20.2334L3.50523 20.2293L3.28239 20.217L3.08154 20.2609L2.92881 20.4077L2.77196 20.66L2.49 20.9481L2.26984 21.2046L2.08277 21.3856L1.65488 21.686L1.42104 21.7738L1.3055 21.7601L1.23396 21.7039L1.09911 21.3212L1.01657 21.2594L0.184305 21.457L0.0577684 21.4597L0.0687679 21.3404L0.00680122 20.4406L0 19.8891L0.108652 19.5448L0.171962 19.1471L0.178763 18.7959L0.331496 18.1993L0.275072 17.8413L0.471803 16.5862L0.524114 16.3818L0.60111 15.7755L0.723616 15.589L0.833611 15.5163L0.975345 15.1446L1.24907 14.5492L1.43758 14.2434L1.39627 13.5754L1.42792 13.12L1.47057 13.0199L1.87369 12.8498L2.39638 12.43L2.61788 11.9349L2.93015 11.6194L3.53546 11.415L3.53689 11.4136L5.33081 9.7169L6.16442 8.80196L6.52766 8.33288L6.54 8.16415L6.6102 7.94333L6.46435 7.77049L6.29104 7.61411L6.23185 7.46873L6.08331 7.3974L5.8687 7.40016L5.72696 7.29451L5.566 7.08876L5.40504 6.95984L4.89604 6.9708L4.504 6.75958L4.50946 6.47288L4.66219 5.90777L4.95935 5.26037L4.97581 5.08204L4.93324 4.92976L4.8617 4.79945L4.72819 4.67052L4.60165 4.51551L4.69931 4.04915L4.88638 3.59376L5.04054 3.3647L5.19042 3.10956L5.14777 2.89972L4.92904 2.79545L5.04323 2.59109L5.2785 2.24679L5.73662 1.89839L6.13965 1.66523L6.40935 1.66385L6.93212 1.85037L7.40535 2.06846L7.66397 2.07947L7.98035 1.98893L8.63243 1.60072L8.79062 1.72421L8.98046 1.95875L9.1882 2.3483L9.59954 2.52524L9.79627 2.64869L9.93801 2.68435L10.0163 2.65283L10.1719 2.34692L10.3603 2.18094L10.7084 1.9711L11.4774 1.80236L12.0262 1.75163L12.2587 1.71596L12.6481 1.61722L13.263 1.3031L13.8684 1.70772L14.5259 1.78591L15.1629 1.78319L15.3568 1.65974L15.4682 1.56644L16.1369 0.901202L17.0421 0L17.6446 1.26882L17.8524 1.34425L17.822 1.45396L17.7712 1.56096L18.166 1.86683L18.6516 2.02732L18.8249 2.18371L18.84 2.3524L18.6764 3.09449L18.7066 3.30572L18.8635 4.04915L19.1524 4.21512L19.4082 4.96408L19.9269 5.28092L20.0012 5.37146L20.1209 5.73355L20.2791 6.13134L20.4029 6.22327L20.4786 6.24659L20.6312 6.66631L20.5432 6.90362L20.6629 7.62235L20.8568 8.26427L20.9091 9.03106L20.9105 9.3685L20.9036 9.57562L20.861 9.86638L20.7688 10.0351L20.6037 10.1997L20.4194 10.4576L20.2598 10.7347L20.1594 10.8705L20.2378 11.2847L20.2172 11.3931L20.1759 11.4452L19.9407 11.5083L19.6407 11.6194L19.4591 11.7291L19.2005 11.9404L18.9941 12.1667L18.7204 12.8347L18.2637 13.3559L18.1866 13.5274L17.7561 13.8374L17.5662 14.2201L17.4451 14.6892L17.2787 15.0252L16.9141 15.4875L16.8316 16.2172L16.8426 17.6725L16.7476 19.3322L16.7614 19.9838Z"/>
</mask>
<path d="M16.7614 19.9838H16.339H15.6526H14.9661H14.2796H13.5932H12.9081H12.2216H11.5351H10.8487H10.1622H9.47578H8.78927H8.10277H7.4177H6.73119H6.04477H5.35827H4.95246L4.87127 19.9728L4.81493 19.9564L4.55623 20.0044L4.28796 20.1731L4.00323 20.2417L3.69785 20.2156L3.65931 20.2334L3.50523 20.2293L3.28239 20.217L3.08154 20.2609L2.92881 20.4077L2.77196 20.66L2.49 20.9481L2.26984 21.2046L2.08277 21.3856L1.65488 21.686L1.42104 21.7738L1.3055 21.7601L1.23396 21.7039L1.09911 21.3212L1.01657 21.2594L0.184305 21.457L0.0577684 21.4597L0.0687679 21.3404L0.00680122 20.4406L0 19.8891L0.108652 19.5448L0.171962 19.1471L0.178763 18.7959L0.331496 18.1993L0.275072 17.8413L0.471803 16.5862L0.524114 16.3818L0.60111 15.7755L0.723616 15.589L0.833611 15.5163L0.975345 15.1446L1.24907 14.5492L1.43758 14.2434L1.39627 13.5754L1.42792 13.12L1.47057 13.0199L1.87369 12.8498L2.39638 12.43L2.61788 11.9349L2.93015 11.6194L3.53546 11.415L3.53689 11.4136L5.33081 9.7169L6.16442 8.80196L6.52766 8.33288L6.54 8.16415L6.6102 7.94333L6.46435 7.77049L6.29104 7.61411L6.23185 7.46873L6.08331 7.3974L5.8687 7.40016L5.72696 7.29451L5.566 7.08876L5.40504 6.95984L4.89604 6.9708L4.504 6.75958L4.50946 6.47288L4.66219 5.90777L4.95935 5.26037L4.97581 5.08204L4.93324 4.92976L4.8617 4.79945L4.72819 4.67052L4.60165 4.51551L4.69931 4.04915L4.88638 3.59376L5.04054 3.3647L5.19042 3.10956L5.14777 2.89972L4.92904 2.79545L5.04323 2.59109L5.2785 2.24679L5.73662 1.89839L6.13965 1.66523L6.40935 1.66385L6.93212 1.85037L7.40535 2.06846L7.66397 2.07947L7.98035 1.98893L8.63243 1.60072L8.79062 1.72421L8.98046 1.95875L9.1882 2.3483L9.59954 2.52524L9.79627 2.64869L9.93801 2.68435L10.0163 2.65283L10.1719 2.34692L10.3603 2.18094L10.7084 1.9711L11.4774 1.80236L12.0262 1.75163L12.2587 1.71596L12.6481 1.61722L13.263 1.3031L13.8684 1.70772L14.5259 1.78591L15.1629 1.78319L15.3568 1.65974L15.4682 1.56644L16.1369 0.901202L17.0421 0L17.6446 1.26882L17.8524 1.34425L17.822 1.45396L17.7712 1.56096L18.166 1.86683L18.6516 2.02732L18.8249 2.18371L18.84 2.3524L18.6764 3.09449L18.7066 3.30572L18.8635 4.04915L19.1524 4.21512L19.4082 4.96408L19.9269 5.28092L20.0012 5.37146L20.1209 5.73355L20.2791 6.13134L20.4029 6.22327L20.4786 6.24659L20.6312 6.66631L20.5432 6.90362L20.6629 7.62235L20.8568 8.26427L20.9091 9.03106L20.9105 9.3685L20.9036 9.57562L20.861 9.86638L20.7688 10.0351L20.6037 10.1997L20.4194 10.4576L20.2598 10.7347L20.1594 10.8705L20.2378 11.2847L20.2172 11.3931L20.1759 11.4452L19.9407 11.5083L19.6407 11.6194L19.4591 11.7291L19.2005 11.9404L18.9941 12.1667L18.7204 12.8347L18.2637 13.3559L18.1866 13.5274L17.7561 13.8374L17.5662 14.2201L17.4451 14.6892L17.2787 15.0252L16.9141 15.4875L16.8316 16.2172L16.8426 17.6725L16.7476 19.3322L16.7614 19.9838Z" fill="var(--fill-0, #71B219)" stroke="var(--stroke-0, white)" mask="url(#path-1-inside-1_0_123)"/>
</g>
</svg>
