<svg preserveAspectRatio="none" width="100%" height="100%" overflow="visible" style="display: block;" viewBox="0 0 0.133783 0.0882035" fill="none" xmlns="http://www.w3.org/2000/svg">
<g id="UM-DQ">
<mask id="path-1-inside-1_0_35" fill="white">
<path d="M0.089636 0.0882034H0.064216L0.00669055 0.0668356L0 0.0214086L0.0414727 0L0.103014 0.00134568L0.133783 0.0387394L0.120404 0.0801701L0.089636 0.0882034Z"/>
</mask>
<path d="M0.089636 0.0882034H0.064216L0.00669055 0.0668356L0 0.0214086L0.0414727 0L0.103014 0.00134568L0.133783 0.0387394L0.120404 0.0801701L0.089636 0.0882034Z" fill="var(--fill-0, #71B219)"/>
<path d="M0.089636 0.0882035V0.588203H0.153833L0.215947 0.571986L0.089636 0.0882035ZM0.064216 0.0882035L-0.109886 0.556913L-0.025647 0.588203H0.064216V0.0882035ZM0.00669055 0.0668356L-0.487973 0.13969L-0.444849 0.432491L-0.167412 0.535545L0.00669055 0.0668356ZM0 0.0214086L-0.22935 -0.422887L-0.546703 -0.259067L-0.494664 0.0942633L0 0.0214086ZM0.0414727 0L0.0524032 -0.499881L-0.0748097 -0.502662L-0.187877 -0.444296L0.0414727 0ZM0.103014 0.00134568L0.489114 -0.316345L0.343331 -0.493519L0.113945 -0.498535L0.103014 0.00134568ZM0.133783 0.0387394L0.609591 0.192384L0.693612 -0.0678124L0.519882 -0.278951L0.133783 0.0387394ZM0.120404 0.0801701L0.246715 0.563953L0.51197 0.494697L0.596212 0.233815L0.120404 0.0801701ZM0.089636 0.0882035V-0.411797H0.064216V0.0882035V0.588203H0.089636V0.0882035ZM0.064216 0.0882035L0.238318 -0.380506L0.180793 -0.401874L0.00669055 0.0668356L-0.167412 0.535545L-0.109886 0.556913L0.064216 0.0882035ZM0.00669055 0.0668356L0.501354 -0.00601904L0.494664 -0.0514461L0 0.0214086L-0.494664 0.0942633L-0.487973 0.13969L0.00669055 0.0668356ZM0 0.0214086L0.22935 0.465704L0.270822 0.444296L0.0414727 0L-0.187877 -0.444296L-0.22935 -0.422887L0 0.0214086ZM0.0414727 0L0.0305422 0.499881L0.092084 0.501226L0.103014 0.00134568L0.113945 -0.498535L0.0524032 -0.499881L0.0414727 0ZM0.103014 0.00134568L-0.283085 0.319036L-0.252316 0.35643L0.133783 0.0387394L0.519882 -0.278951L0.489114 -0.316345L0.103014 0.00134568ZM0.133783 0.0387394L-0.342025 -0.114905L-0.355404 -0.0734746L0.120404 0.0801701L0.596212 0.233815L0.609591 0.192384L0.133783 0.0387394ZM0.120404 0.0801701L-0.00590675 -0.403612L-0.0366751 -0.395579L0.089636 0.0882035L0.215947 0.571986L0.246715 0.563953L0.120404 0.0801701Z" fill="var(--stroke-0, white)" mask="url(#path-1-inside-1_0_35)"/>
</g>
</svg>
