<svg preserveAspectRatio="none" width="100%" height="100%" overflow="visible" style="display: block;" viewBox="0 0 0.0430251 0.0269555" fill="none" xmlns="http://www.w3.org/2000/svg">
<g id="UM-FQ">
<mask id="path-1-inside-1_0_20" fill="white">
<path d="M0.0430251 0L0.0229084 0.0269555L0 0.0121218L0.0430251 0Z"/>
</mask>
<path d="M0.0430251 0L0.0229084 0.0269555L0 0.0121218L0.0430251 0Z" fill="var(--fill-0, #71B219)"/>
<path d="M0.0430251 0L0.443737 0.299048L1.3239 -0.880336L-0.092565 -0.481264L0.0430251 0ZM0.0229084 0.0269555L-0.248855 0.446651L0.143823 0.70092L0.42362 0.326004L0.0229084 0.0269555ZM0 0.0121218L-0.13559 -0.469143L-1.20002 -0.169253L-0.271764 0.431818L0 0.0121218ZM0.0430251 0L-0.357687 -0.299048L-0.377804 -0.272093L0.0229084 0.0269555L0.42362 0.326004L0.443737 0.299048L0.0430251 0ZM0.0229084 0.0269555L0.294672 -0.39274L0.271764 -0.407574L0 0.0121218L-0.271764 0.431818L-0.248855 0.446651L0.0229084 0.0269555ZM0 0.0121218L0.13559 0.493386L0.178615 0.481264L0.0430251 0L-0.092565 -0.481264L-0.13559 -0.469143L0 0.0121218Z" fill="var(--stroke-0, white)" mask="url(#path-1-inside-1_0_20)"/>
</g>
</svg>
