<svg preserveAspectRatio="none" width="100%" height="100%" overflow="visible" style="display: block;" viewBox="0 0 0.0449256 0.0673448" fill="none" xmlns="http://www.w3.org/2000/svg">
<g id="UM-HQ">
<mask id="path-1-inside-1_0_19" fill="white">
<path d="M0.0449256 0.0488572L0.0263746 0.0673448L0 0.0554628L0.0012905 0.00132917L0.0383117 0L0.0449256 0.0488572Z"/>
</mask>
<path d="M0.0449256 0.0488572L0.0263746 0.0673448L0 0.0554628L0.0012905 0.00132917L0.0383117 0L0.0449256 0.0488572Z" fill="var(--fill-0, #71B219)"/>
<path d="M0.0449256 0.0488572L0.397874 0.403015L0.573707 0.227782L0.540406 -0.0182162L0.0449256 0.0488572ZM0.0263746 0.0673448L-0.179001 0.523219L0.135216 0.664776L0.379323 0.421502L0.0263746 0.0673448ZM0 0.0554628L-0.499858 0.0435466L-0.507762 0.375109L-0.205375 0.511337L0 0.0554628ZM0.0012905 0.00132917L-0.0166494 -0.498349L-0.487343 -0.48145L-0.498567 -0.010587L0.0012905 0.00132917ZM0.0383117 0L0.533792 -0.0670734L0.473031 -0.51593L0.0203718 -0.499678L0.0383117 0ZM0.0449256 0.0488572L-0.308023 -0.3053L-0.326573 -0.286813L0.0263746 0.0673448L0.379323 0.421502L0.397874 0.403015L0.0449256 0.0488572ZM0.0263746 0.0673448L0.23175 -0.388529L0.205375 -0.400411L0 0.0554628L-0.205375 0.511337L-0.179001 0.523219L0.0263746 0.0673448ZM0 0.0554628L0.499858 0.067379L0.501148 0.0132454L0.0012905 0.00132917L-0.498567 -0.010587L-0.499858 0.0435466L0 0.0554628ZM0.0012905 0.00132917L0.0192304 0.501007L0.0562517 0.499678L0.0383117 0L0.0203718 -0.499678L-0.0166494 -0.498349L0.0012905 0.00132917ZM0.0383117 0L-0.457169 0.0670734L-0.450555 0.115931L0.0449256 0.0488572L0.540406 -0.0182162L0.533792 -0.0670734L0.0383117 0Z" fill="var(--stroke-0, white)" mask="url(#path-1-inside-1_0_19)"/>
</g>
</svg>
