<svg preserveAspectRatio="none" width="100%" height="100%" overflow="visible" style="display: block;" viewBox="0 0 0 0" fill="none" xmlns="http://www.w3.org/2000/svg"><g id="UM-JQ"><mask id="path-1-inside-1_0_147" fill="white"><path d="M0 0L0 0V0L0 0Z"/></mask><path d="M0 0L0 0V0L0 0Z" fill="var(--fill-0,#71B219)"/><path d="M0 0L0 0L0 0L0 0ZM0 0H0V1L0 0L0 0ZM0 0L0 0L0 0V0H0ZM0 0L0 0L0 0L0 0L0 0L0 0L0 0ZM0 0H0V0H0H0V0H0ZM0 0L0 0L0 0L0 0L0 0L0 0L0 0Z" fill="var(--stroke-0,white)" mask="url(#path-1-inside-1_0_147)"/></g></svg>