<svg preserveAspectRatio="none" width="100%" height="100%" overflow="visible" style="display: block;" viewBox="0 0 0.132128 0.16023" fill="none" xmlns="http://www.w3.org/2000/svg">
<g id="UM-MQ">
<mask id="path-1-inside-1_0_209" fill="white">
<path d="M0.0283191 0.150819L0.00938481 0.16023L0 0.145435L0.0296362 0.0309857L0.0836401 0L0.132128 0.00538345L0.11871 0.0754094L0.0283191 0.150819Z"/>
</mask>
<path d="M0.0283191 0.150819L0.00938481 0.16023L0 0.145435L0.0296362 0.0309857L0.0836401 0L0.132128 0.00538345L0.11871 0.0754094L0.0283191 0.150819Z" fill="var(--fill-0, #71B219)"/>
<path d="M0.0283191 0.150819L0.250859 0.598564L0.303491 0.572405L0.348622 0.534754L0.0283191 0.150819ZM0.00938481 0.16023L-0.412829 0.428064L-0.171504 0.808488L0.231925 0.607975L0.00938481 0.16023ZM0 0.145435L-0.484035 0.0200965L-0.538413 0.230094L-0.422214 0.41327L0 0.145435ZM0.0296362 0.0309857L-0.219198 -0.402698L-0.401664 -0.298005L-0.454399 -0.0943532L0.0296362 0.0309857ZM0.0836401 0L0.138814 -0.496947L-0.0235229 -0.51497L-0.165194 -0.433684L0.0836401 0ZM0.132128 0.00538345L0.623194 0.0994832L0.725012 -0.431863L0.187302 -0.491563L0.132128 0.00538345ZM0.11871 0.0754094L0.439012 0.459345L0.576161 0.344927L0.609775 0.169509L0.11871 0.0754094ZM0.0283191 0.150819L-0.194221 -0.296927L-0.213155 -0.287516L0.00938481 0.16023L0.231925 0.607975L0.250859 0.598564L0.0283191 0.150819ZM0.00938481 0.16023L0.431599 -0.107605L0.422214 -0.122399L0 0.145435L-0.422214 0.41327L-0.412829 0.428064L0.00938481 0.16023ZM0 0.145435L0.484035 0.270774L0.513672 0.156324L0.0296362 0.0309857L-0.454399 -0.0943532L-0.484035 0.0200965L0 0.145435ZM0.0296362 0.0309857L0.27847 0.46467L0.332474 0.433684L0.0836401 0L-0.165194 -0.433684L-0.219198 -0.402698L0.0296362 0.0309857ZM0.0836401 0L0.0284661 0.496947L0.0769543 0.50233L0.132128 0.00538345L0.187302 -0.491563L0.138814 -0.496947L0.0836401 0ZM0.132128 0.00538345L-0.358937 -0.0887163L-0.372356 -0.0186904L0.11871 0.0754094L0.609775 0.169509L0.623194 0.0994832L0.132128 0.00538345ZM0.11871 0.0754094L-0.201593 -0.308526L-0.291983 -0.233116L0.0283191 0.150819L0.348622 0.534754L0.439012 0.459345L0.11871 0.0754094Z" fill="var(--stroke-0, white)" mask="url(#path-1-inside-1_0_209)"/>
</g>
</svg>
