<svg preserveAspectRatio="none" width="100%" height="100%" overflow="visible" style="display: block;" viewBox="0 0 0.205526 0.182057" fill="none" xmlns="http://www.w3.org/2000/svg">
<g id="UM-WQ">
<mask id="path-1-inside-1_0_68" fill="white">
<path d="M0.193229 0.168354L0.131496 0.182057L0.0191556 0.110872L0 0.0711851L0.0726073 0L0.160355 0.0287414L0.193229 0.0520102L0.205526 0.108114L0.193229 0.168354Z"/>
</mask>
<path d="M0.193229 0.168354L0.131496 0.182057L0.0191556 0.110872L0 0.0711851L0.0726073 0L0.160355 0.0287414L0.193229 0.0520102L0.205526 0.108114L0.193229 0.168354Z" fill="var(--fill-0, #71B219)"/>
<path d="M0.193229 0.168354L0.301573 0.656475L0.61825 0.586185L0.683127 0.268354L0.193229 0.168354ZM0.131496 0.182057L-0.136127 0.604405L0.0382768 0.714916L0.23984 0.670177L0.131496 0.182057ZM0.0191556 0.110872L-0.431135 0.328215L-0.369071 0.456798L-0.248467 0.53322L0.0191556 0.110872ZM0 0.0711851L-0.350039 -0.285848L-0.606273 -0.0346336L-0.450291 0.288528L0 0.0711851ZM0.0726073 0L0.228244 -0.47516L-0.0604836 -0.569732L-0.277432 -0.357033L0.0726073 0ZM0.160355 0.0287414L0.449224 -0.37937L0.387664 -0.422943L0.315992 -0.446419L0.160355 0.0287414ZM0.193229 0.0520102L0.681636 -0.0550343L0.640174 -0.244212L0.482098 -0.356101L0.193229 0.0520102ZM0.205526 0.108114L0.695424 0.208114L0.716587 0.104434L0.693933 0.00106994L0.205526 0.108114ZM0.193229 0.168354L0.0848856 -0.319766L0.0231526 -0.306064L0.131496 0.182057L0.23984 0.670177L0.301573 0.656475L0.193229 0.168354ZM0.131496 0.182057L0.399119 -0.240292L0.286778 -0.311477L0.0191556 0.110872L-0.248467 0.53322L-0.136127 0.604405L0.131496 0.182057ZM0.0191556 0.110872L0.469447 -0.106472L0.450291 -0.146158L0 0.0711851L-0.450291 0.288528L-0.431135 0.328215L0.0191556 0.110872ZM0 0.0711851L0.350039 0.428218L0.422647 0.357033L0.0726073 0L-0.277432 -0.357033L-0.350039 -0.285848L0 0.0711851ZM0.0726073 0L-0.0830293 0.47516L0.00471854 0.503902L0.160355 0.0287414L0.315992 -0.446419L0.228244 -0.47516L0.0726073 0ZM0.160355 0.0287414L-0.128513 0.436853L-0.0956393 0.460122L0.193229 0.0520102L0.482098 -0.356101L0.449224 -0.37937L0.160355 0.0287414ZM0.193229 0.0520102L-0.295178 0.159055L-0.282881 0.215159L0.205526 0.108114L0.693933 0.00106994L0.681636 -0.0550343L0.193229 0.0520102ZM0.205526 0.108114L-0.284372 0.00811471L-0.296669 0.0683547L0.193229 0.168354L0.683127 0.268354L0.695424 0.208114L0.205526 0.108114Z" fill="var(--stroke-0, white)" mask="url(#path-1-inside-1_0_68)"/>
</g>
</svg>
