<svg preserveAspectRatio="none" width="100%" height="100%" overflow="visible" style="display: block;" viewBox="0 0 394 324" fill="none" xmlns="http://www.w3.org/2000/svg"><g id="US"><mask id="path-1-inside-1_0_139" fill="white"><path d="M108 20V24V27V30V33V36V39V42V45V48V51V53V56V59V62V64V67V70V72V75V78V80V82V85V87V90V92V95V97V99V102V104V106L109 107L110 107L111 106L112 107L112 107L113 107L114 106L114 106L115 106L116 106V106L116 107L116 108L116 109L117 109L117 109L118 110L118 111L119 112L119 112L120 113L120 113L121 114L122 114L122 115L122 116L122 117L122 117L123 116L123 116L124 115L125 115L126 115L126 114L126 113L126 113L127 113L127 112L126 112L127 111L128 111L129 111L130 110L130 111L131 111L131 112L132 112L131 112L131 113L132 114L132 114L132 114L133 115L133 115L134 116L134 116L134 116L134 116L134 117L134 117L135 117L135 118L136 118L136 118L137 119L137 120L138 120L138 121L138 122L139 123L139 124L140 124L140 125L140 126L141 127L142 128L142 129L142 129L142 130L142 130L143 130L143 130L143 131L143 132L143 132L144 132L144 132L144 133L144 134L144 134L145 134L145 134L146 134L146 134L147 135L147 135L148 135L148 136L149 136L149 137L150 137L150 137L151 137L151 138L151 138L151 138L151 139L150 139L150 140L150 140L150 140L150 141L151 142L151 142L151 142L150 144L150 144L150 144L150 145L149 146L149 146L148 146L148 146L147 145L147 144L147 143L147 143L147 143L148 142L148 142L148 142L148 142L148 141L148 141L148 140L147 139L147 139L147 138L146 138L147 137L147 137L146 138L145 138L144 138L144 139L144 139L144 139L144 139L144 139L144 140L143 141L143 141L143 141L143 140L142 140L142 139L143 139L143 139L143 138L144 136L144 136L145 136L144 136L144 136L144 136L143 135L143 135L143 135L142 135L142 134L142 134L142 134L142 134L142 133L142 133L141 133L141 132L141 132L140 132L140 131L140 131L140 131L140 130L140 130L140 130L138 130L138 128L137 127L137 126L137 126L137 126L137 126L138 126L139 127L139 127L138 126L137 125L137 125L137 124L137 124L138 124L139 124L137 124L137 124L137 125L137 125L136 125L136 125L136 124L136 124L135 123L135 123L135 122L135 121L136 120L136 120L136 120L136 120L136 120L135 120L135 122L135 122L134 122L134 121L134 121L133 121L132 120L132 119L132 118L132 118L131 118L131 117L131 116L130 114L130 114L130 113L130 113L130 114L130 114L130 114L130 114L130 115L130 115L130 115L130 116L130 117L131 118L131 119L131 119L131 120L131 121L131 121L131 122L131 122L131 122L130 122L130 121L130 121L129 120L128 121L128 121L128 120L128 119L128 119L128 118L128 118L128 117L128 117L128 117L128 117L127 116L127 116L127 116L127 117L127 117L127 117L127 118L127 118L127 118L127 118L127 118L126 118L126 117L126 117L126 117L126 117L124 116L124 116L124 116L124 116L124 117L124 117L124 117L124 117L124 117L124 117L125 117L125 118L126 118L126 118L126 118L126 118L126 118L126 119L126 119L127 119L127 120L128 120L128 121L127 121L127 121L126 121L126 122L125 122L125 122L124 121L124 121L122 119L122 119L122 119L122 119L121 119L121 118L120 118L120 117L120 117L120 117L119 116L119 116L118 115L118 115L118 115L118 115L118 115L117 115L117 114L115 113L114 113L113 112L113 112L113 112L113 112L114 112L114 112L114 111L114 111L114 110L114 110L114 110L114 109L114 109L114 109L114 109L114 109L115 110L115 110L115 111L115 112L115 112L115 111L115 111L115 110L115 110L116 110L116 110L116 110L115 109L115 109L114 108L114 108L114 109L113 110L113 110L112 111L111 111L110 111L109 110L107 110L107 109L107 109L107 109L107 108L107 108L107 108L107 108L107 108L107 108L107 108L106 109L106 109L104 108L102 108L101 108L99 108L98 108L97 108L96 108L96 108L96 108L96 108L96 107L96 107L95 107L94 107L94 107L94 106L94 106L93 106L94 105L94 104L94 104L94 103L94 103L94 104L93 104L93 105L92 105L92 106L92 106L91 105L90 105L90 105L90 105L90 104L90 104L90 104L90 104L89 104L88 103L88 103L88 103L88 103L88 103L87 103L87 103L87 103L87 103L88 102L87 102L87 102L87 102L87 101L87 100L88 100L88 100L87 100L86 100L86 101L85 101L85 101L85 101L84 101L84 101L84 101L84 101L84 102L84 101L84 101L83 101L83 101L83 101L83 101L83 102L82 102L82 102L82 101L81 101L82 101L82 99L82 99L82 99L82 100L81 100L81 100L81 100L80 100L80 100L80 100L80 101L80 101L80 100L80 100L81 100L80 101L80 102L80 102L80 102L79 102L79 102L80 103L80 103L80 103L80 103L80 104L80 104L80 104L80 104L80 104L79 104L79 105L79 105L79 105L80 104L80 104L81 104L81 104L81 104L82 104L82 105L82 105L81 105L81 105L81 106L81 106L81 106L81 106L81 107L81 107L80 108L80 108L80 108L80 109L80 109L80 109L79 109L79 109L79 109L78 109L78 109L78 109L77 109L77 108L76 109L76 108L76 108L76 108L76 109L76 109L75 109L75 110L75 110L75 110L75 109L75 109L74 110L74 110L74 110L74 111L74 110L74 110L74 110L74 111L74 111L73 112L73 112L73 112L72 112L72 112L72 112L72 112L71 112L71 112L71 113L71 113L70 114L70 114L70 114L70 114L70 114L69 114L69 114L69 114L69 114L69 114L69 114L68 114L68 114L67 115L67 115L66 114L66 114L66 114L66 114L66 113L67 113L67 113L68 112L68 112L69 112L69 111L70 110L70 110L70 110L68 111L68 111L68 111L67 111L67 111L66 110L67 109L67 109L68 108L68 107L68 106L69 105L69 104L68 104L68 103L69 103L70 102L71 102L72 101L72 101L73 101L73 101L73 101L74 101L74 101L75 101L77 102L77 102L77 102L77 101L76 101L75 101L74 100L74 99L74 99L74 99L74 99L74 99L74 98L75 98L75 98L76 97L76 97L75 97L75 97L74 98L74 98L74 98L74 99L73 99L72 99L72 98L72 98L71 98L70 99L70 100L69 100L69 100L68 101L68 101L67 102L67 102L67 102L67 103L67 103L66 103L66 103L65 104L65 105L65 105L65 105L65 106L65 106L64 106L64 107L63 107L63 107L62 106L62 106L62 106L62 107L63 107L63 108L64 108L64 108L63 109L63 109L63 109L62 110L61 110L61 110L62 110L62 110L62 111L62 111L61 111L61 111L61 111L61 111L61 111L60 111L60 111L60 111L60 111L60 112L60 112L59 112L59 112L59 113L58 113L58 114L58 114L58 115L58 115L59 116L59 116L60 116L60 116L61 117L61 117L61 117L61 118L60 118L60 119L59 119L59 119L59 119L58 120L58 120L58 121L58 121L57 121L57 121L58 121L57 122L57 122L57 122L57 122L56 123L56 123L56 123L54 123L54 124L54 124L53 125L53 125L52 125L52 125L52 126L52 126L52 126L51 127L51 127L50 127L50 127L50 128L50 128L50 127L50 128L49 128L49 128L49 128L49 129L49 129L49 129L49 130L49 130L48 130L48 131L48 131L48 131L47 131L47 131L47 131L47 131L46 132L46 132L46 132L46 132L45 132L45 132L45 132L45 132L45 133L44 133L44 133L44 133L44 133L43 133L43 134L42 134L43 134L43 134L43 134L43 134L42 134L42 134L42 134L41 134L41 135L41 135L41 136L41 136L41 135L41 136L42 136L42 136L42 136L42 136L41 137L41 137L41 137L41 137L41 136L41 136L40 136L40 137L40 137L40 138L37 139L37 139L37 139L37 140L37 140L36 140L36 140L36 139L36 139L36 139L36 139L36 139L36 139L35 139L35 139L35 139L34 140L34 140L34 140L33 141L33 141L33 141L33 141L32 141L32 141L32 141L32 141L31 141L31 141L31 142L30 142L30 142L29 142L29 142L29 141L30 141L30 141L30 141L30 141L30 141L30 141L30 140L30 140L30 140L29 140L29 140L29 141L29 141L28 142L28 142L27 143L27 144L27 143L26 144L26 144L26 144L26 144L26 144L26 144L26 144L26 144L26 143L26 143L25 143L25 143L25 143L25 144L25 144L25 144L24 145L24 145L24 144L23 144L23 144L23 145L23 145L23 145L22 146L22 146L22 145L22 145L22 144L22 144L22 144L22 144L23 143L23 143L24 143L24 143L24 143L24 143L24 143L24 142L25 142L25 141L26 140L27 140L28 139L28 138L30 138L30 138L30 138L30 138L31 138L31 138L32 138L32 138L32 138L31 138L31 138L32 139L32 139L32 139L32 139L32 139L32 138L33 138L33 139L33 139L33 139L34 139L34 139L34 139L34 139L33 138L33 138L33 138L33 137L33 137L34 136L34 136L34 135L35 135L36 134L38 133L38 132L39 132L39 132V132L39 132L40 132L40 132L40 132L40 132L40 132L40 131L40 131L40 130L40 130L41 129L42 129L42 128L42 128L43 128L43 127L43 127L44 127L44 127L44 127L44 127L45 127L45 127L45 127L45 127L44 127L44 126L44 126L44 126L44 125L44 124L44 123L44 122L45 122L46 122L45 122L45 122L45 122L45 121L45 120L45 120L46 119L47 118L47 118L46 118L47 116L47 115L47 116L46 117L44 118L43 119L42 119L42 119L41 118L41 118L41 117L41 117L41 116L42 116L42 116L42 116L42 116L41 116L41 116L41 116L40 117L40 116L40 116L40 117L40 118L40 118L40 120L40 120L39 121L39 120L38 118L37 118L36 117L36 117L36 117L35 118L34 117L34 116L34 116L33 116L33 116L32 117L32 117L30 118L30 118L30 118L30 118L30 119L28 119L27 119L27 118L28 118L28 118L28 117L28 116L28 116L29 115L28 115L28 116L27 115L27 114L28 113L28 113L28 112L28 112L28 111L27 109L26 107L26 106L26 105L27 104L28 103L28 103L27 103L27 103L27 104L26 104L26 106L25 106L25 106L25 107L25 107L25 108L25 108L25 109L24 109L24 109L23 110L21 110L20 110L19 109L19 109L19 109L18 107L17 106L17 106L16 106L16 105L16 105L16 105L15 104L15 104L14 104L16 103L16 102L16 102L17 102L18 102L18 102L18 103L19 103L18 104L18 104L18 104L19 103L20 103L20 103L20 103L20 103L21 104L22 103L22 103L22 102L21 102L20 102L20 102L21 102L21 102L21 101L21 101L20 102L18 102L17 101L16 101L15 101L15 101L16 100L16 100L16 100L16 100L16 100L15 100L15 99L15 99L15 100L15 99L14 99L15 99L15 99L15 99L14 99L14 99L14 99L14 100L14 100L14 100L13 100L13 98L12 98L12 98L13 97L12 96L12 96L12 97L11 96L11 96L11 96L11 96L12 96L13 95L13 95L12 95L12 94L12 94L13 94L13 94L13 93L13 93L13 93L13 92L14 90L15 89L15 88L16 88L16 88L17 89L17 89L17 88L16 88L17 88L17 87L17 87L17 87L17 88L16 87L16 86L17 85L17 85L17 84L18 84L18 84L18 84L18 83L18 83L18 83L19 82L20 82L21 83L21 83L21 84L21 84L21 84L21 84L21 84L21 84L22 84L22 84L22 84L22 84L23 84L24 83L24 83L25 82L26 80L26 80L27 80L27 80L27 80L28 80L29 80L30 80L31 80L32 79L32 78L32 77L32 76L32 76L31 74L30 72L30 72L29 72L30 71L30 71L31 71L32 71L32 70L32 70L32 69L32 69L31 68L31 68L31 68L30 68L29 69L29 69L28 68L28 69L27 70L26 70L25 72L25 72L24 72L24 71L23 70L22 70L23 71L23 71L23 71L23 72L23 72L22 72L22 71L21 71L18 71L17 71L17 71L17 71L16 71L16 72L16 72L16 72L15 72L14 71L11 71L11 70L10 69L10 69L10 68L10 68L10 67L9 66L8 65L8 65L9 66L9 66L10 65L10 65L11 64L12 64L11 64L11 64L10 64L9 64L6 63L4 62L4 61L4 61L4 60L4 60L4 60L4 61L6 60L6 59L8 59L8 58L8 58L9 57L10 57L10 56L11 56L12 56L12 56L13 56L13 56L14 56L14 56L12 55L13 55L13 54L14 54L15 53L16 53L17 52L18 52L19 52L21 52L21 52L20 52L20 52L20 52L20 52L20 53L20 54L20 55L20 55L20 56L21 57L23 57L24 57L25 57L25 57L26 57L28 57L28 57L29 55L30 55L30 55L30 56L31 55L31 56L31 55L31 54L29 54L28 54L28 54L28 53L27 51L26 50L26 50L25 50L25 49L26 49L26 48L26 49L27 50L27 50L27 51L28 52L29 53L30 53L31 53L31 53L32 54L33 54L34 54L34 53L34 52L34 52L33 52L32 51L31 51L30 52L29 52L29 51L28 51L28 50L28 49L29 48L28 48L28 47L26 48L26 47L26 47L25 48L24 48L24 48L22 47L21 46L20 45L20 43L19 42L14 37L12 36L11 35L10 35L10 35L9 34L9 34L10 34L9 34L10 34L10 34L10 34L11 32L11 30L11 29L14 29L16 29L16 28L18 28L19 28L20 27L21 26L22 24L23 23L23 23L23 23L23 22L23 21L24 19L26 15L27 14L28 13L28 13L28 13L28 13L28 14L28 14L28 14L27 14L27 15L27 14L28 14L29 14L31 13L33 12L33 11L35 10L35 10L35 10L35 11L35 11L35 13L36 13L36 13L36 13L36 12L36 11L36 11L36 11L38 10L36 10L35 9L35 9L36 7L38 6L38 6L38 6L38 7L38 7L38 7L38 8L38 8L39 8L39 7L40 7L41 7L41 7L43 7L43 6L44 6L45 4L46 4L47 2L48 1L49 0L49 0L49 0L48 1L49 1L51 3L52 3L52 3L52 4L51 5L50 6L50 6L51 7L51 7L52 6L52 6L53 5L54 4L54 4L55 4L55 4L56 5L56 6L55 6L56 7L57 7L58 7L59 6L59 6L60 6L61 6L63 6L63 6L64 6L65 7L65 7L64 8L64 9L64 9L65 9L65 10L65 10L67 10L67 10L67 11L66 11L69 12L69 11L70 11L71 11L72 11L72 11L73 12L73 11L74 11L76 11L76 11L76 11L78 12L79 12L80 13L80 13L80 12L81 12L81 13L82 13L82 14L83 14L85 14L86 14L88 14L89 15L90 15L91 16L92 16L92 16L94 17L95 16L97 16L98 15L98 15L99 15L100 15L100 15L102 16L103 17L103 18L106 19L106 20L107 20L107 20L107 20L108 20L108 20ZM12 55L11 56L11 55L12 55L13 54L13 55L12 55L12 55ZM82 102L81 102L81 102L81 102L81 102L81 101L81 101L82 102L82 102L82 102ZM66 106L66 106L66 105L66 105L66 105L66 105L66 106L66 106ZM83 105L83 105L83 106L83 106L82 106L82 107L82 107L82 107L82 107L82 107L82 107L82 107L82 106L82 106L82 106L82 106L82 105L82 105L82 105L82 105L82 105L83 105L83 105L83 105ZM88 105L88 105L88 105L89 105L89 105L89 106L88 106L88 106L87 106L87 106L87 106L86 106L86 106V105L87 105L87 105L87 105L88 105ZM92 106L92 106L92 106L92 106L92 106L93 106L92 106ZM11 106L12 106L12 106L12 106L13 106L13 106L13 106L13 107L13 107L13 108L13 108L13 108L14 109L14 109L13 109L12 109L12 110L11 110L12 110L11 110L11 110L11 110L11 110L10 110L8 109L8 108L7 108L6 107L7 107L7 107L9 107L9 106L9 106L10 106L10 106L10 106L10 106L11 106L11 106L11 106ZM82 110L82 110L82 110L82 109L82 109L82 109L83 108L84 108L84 107L84 106L85 106L85 106L85 106L85 106L85 107L84 108L84 108L84 109L84 109L84 109L83 109L83 109L83 110L83 110L83 110L83 110L82 110ZM81 108L81 108L80 108L80 108L81 107L82 108L81 108ZM95 110L94 110L95 110L95 109L96 109L96 108L96 109L95 109L95 110ZM32 119L31 119L31 119L31 119L31 119L31 118L32 118L32 118L32 119ZM64 120L64 120L64 120L64 120L64 119L64 119L64 119L65 119L65 119L65 119L64 120L64 120ZM64 121L64 121L65 120L65 120L65 121L66 121L66 121L66 121L66 121L66 121L66 122L66 122L66 122L65 122L65 122L65 122L65 122L65 122L65 122L65 122L65 122L65 122L64 123L64 123L64 123L64 123L64 122L64 122L64 123L63 123L63 123L63 123L63 123L62 124L62 124L61 123L61 123L62 122L62 121L62 121L63 122L63 122L63 121L63 121L63 120L63 120L64 120L64 120L64 121L64 121ZM133 122L134 122L134 122L135 124L136 124L136 125L136 126L136 126L136 126L136 126L136 125L135 125L135 125L135 124L135 124L135 123L135 123L134 123L134 123L134 123L134 124L134 124L135 126L136 126L136 126L136 127L136 128L136 128L136 128L136 128L135 128L134 130L134 130L134 130L133 130L133 130L133 130L133 129L133 129L134 128L134 127L133 127L133 126L133 125L133 124L132 123L132 122L132 122L132 122L132 121L132 121L132 121L133 122L133 122ZM134 122L134 122L134 122L133 122L133 121L133 121L134 121L134 121L134 122ZM129 122L129 122L129 123L129 123L129 123L129 123L129 124L129 124L130 123L130 123L130 123L131 123L132 123L132 123L132 124L132 125L131 125L131 125L131 125L130 125L131 125L132 126L132 126L132 126L132 127L131 127L131 127L130 126L129 126L129 126L129 126L129 127L129 128L128 128L128 127L128 126L126 125L126 124L126 124L126 123L126 123L126 123L126 122L126 122L127 122L127 123L127 122L127 122L128 122L128 122L128 122L129 122L129 122ZM62 125L62 125L63 125L63 125L64 125L64 125L64 125L64 125L64 125L64 125L64 126L64 126L65 126L65 126L65 127L65 127L64 127L64 127L64 127L63 127L62 127L62 127L62 127L62 127L63 127L63 128L63 128L63 128L63 128L63 128L63 128L62 129L62 129L61 129L60 130L60 130L60 130L60 130L59 130L60 130L60 131L60 131L60 131L59 132L58 132L58 132L58 132L58 132L58 132L59 131L59 131L59 131L58 130L58 130L58 130L58 130L58 130L58 130L58 130L58 130L57 130L57 130L57 130L57 130L57 130L57 130L57 130L58 130L58 131L58 131L57 131L57 131L56 130L56 129L56 128L56 128L56 128L56 127L57 126L57 126L58 126L58 126L58 126L58 126L58 127L58 127L58 127L59 128L59 128L59 128L60 128L59 128L59 128L59 126L59 126L59 126L60 126L59 126L59 126L59 125L59 125L59 125L59 124L59 124L59 124L59 124L60 124L60 125L60 126H60L60 125L60 125L61 125L61 125L61 125L61 125L61 125L61 124L61 124L62 124L61 124L62 124L62 124L63 124L62 125ZM61 125L61 125L61 125L61 124L60 124L60 124L60 124L60 124L61 124L61 124L61 125ZM132 128L132 129L132 130L132 130L133 132L133 132L133 133L133 133L133 134L133 134L133 134L133 135L133 136L133 136L133 136L133 136L132 136L132 135L132 134L132 134L132 134L132 134L132 133L132 133L132 133L132 133L132 133L131 133L131 133L131 132L131 132L130 132L130 132L130 132L130 131L130 131L131 130L131 130L131 130L130 130L130 129L130 129L130 129L129 130L129 130L128 131L129 130L129 130L128 129L128 129L129 128L129 128L129 128L129 128L129 128L130 127L130 127L130 127L131 128L131 128L132 128ZM62 130L62 130L62 130L61 130L61 131L61 130L61 130L61 129L62 130L62 130L62 130L62 130L62 130ZM138 131L138 131L138 131L139 131L139 131L139 131L140 132L140 132L140 132L140 133L140 133L139 133L139 133L139 133L139 133L138 132L138 132L138 132L138 132L138 133L138 133L139 133L139 133L139 134L139 134L139 134L139 134L138 134L138 134L138 134L137 134L137 134L137 134L137 134L137 133L137 132L136 132L136 131L136 131L136 131L136 130L136 130L137 130L138 131ZM136 132L136 132L136 132L136 133L136 133L136 134L136 133L136 134L136 134L136 135L136 136L136 136L136 137L136 137L136 137L135 137L135 137L135 137L135 137L134 136L135 135L135 134L135 134L134 134L134 133L134 133L134 132L134 132L134 131L135 131L135 131L136 132L136 132ZM140 134L140 134L140 134L140 134L140 134L140 133L140 133L140 133L140 132L141 133L141 133L141 134L141 134L140 134L140 134ZM58 134L57 134L57 134L57 134L57 133L58 134L58 134L58 134L58 134L58 134L58 134ZM56 135L55 135L55 135L55 135L55 134L55 134L56 134L56 134L56 134L56 134L56 134L56 135ZM143 137L143 138L142 138L142 138L142 138L142 138L142 138L142 138L142 137L142 137L141 137L141 137L140 137L140 136L141 136L141 136L141 135L141 135L142 134L142 134L142 135L143 136L143 137ZM140 136L140 136L140 136L139 135L139 135L139 135L140 135L140 134L140 134L141 135L141 135L141 135L141 135L141 135L141 136L141 136L140 136ZM137 135L138 135L139 135L139 136L139 136L139 136L139 137L139 137L139 137L139 137L140 138L141 138L141 139L141 139L142 140L142 141L142 141L142 141L142 141L142 141L141 140L141 140L141 141L141 141L141 141L141 141L142 141L142 142L142 142L143 142L143 142L142 143L142 143L142 143L143 143L143 143L143 143L143 144L143 145L143 145L143 145L143 145L143 146L143 146L143 146L143 146L143 146L142 146L142 146L142 145L142 145L141 145L141 145L141 145L141 144L141 144L141 144L141 144L141 143L140 144L141 144L140 144L140 144L140 143L139 142L139 142L139 142L139 142L139 142L140 142L139 141L139 141L139 140L139 140L138 140L138 140L138 140L138 140L137 140L137 140L137 139L137 139L137 139L137 139L137 139L138 139L138 139L138 139L138 138L138 138L138 138L138 138L138 137L137 138L137 138L136 138L136 138L137 137L137 137L137 136L137 136L137 136L137 135ZM147 141L147 142L147 143L146 143L146 143L146 143L146 143L145 143L145 142L145 142L145 142L145 142L145 142L145 142L144 143L144 143L144 143L144 142L144 142L144 141L145 140L145 139L146 138L146 138L147 139L147 140L147 140L147 141L147 141ZM52 139L52 139L52 139L52 139L52 139L52 138L52 138L52 138L52 138L52 139ZM138 141L138 141L138 141L138 142L138 142L138 142L137 142L137 142L137 143L137 142L136 141L137 141L137 141L138 141L138 141L138 141ZM32 142L32 142L33 142L33 142L33 142L33 142L33 142L33 143L33 143L33 143L33 143L32 143L32 143L32 143L32 143L32 142L32 142L32 142L32 142L32 142L32 142L32 142L32 142ZM34 142L34 143L33 142L33 142L33 142L34 142L34 142ZM140 145L140 145L140 145L140 145L140 145L141 145L141 145L141 146L141 146L141 146L140 146L140 146L140 146L139 145L139 145L139 145L139 145L138 144L138 143L138 143L138 143L138 143L138 142L138 142L139 143L139 143L139 144L139 144L140 144L140 145ZM36 144L35 144L35 144L35 144L35 144L34 145L34 145L34 144L34 144L34 144L34 144L35 144L35 144L35 143L35 143L35 143L36 143L36 143L36 143L36 143L36 143L36 144ZM146 144L146 145L146 145L146 145L146 145L145 145L145 145L145 144L145 144L145 144L145 144L145 144L145 144L145 143L145 143L145 143L145 143L146 143L146 144ZM37 143L37 144L37 144L37 144L37 144L36 144L36 144L36 144L37 144L37 143L37 143L37 143L37 143L37 143ZM38 145L37 145L37 145L37 144L37 144L37 144L38 144L38 145ZM22 144L22 146L22 146L22 146L23 146L23 146L23 146L23 147L22 146L22 147L21 147L19 147L19 147L19 147L18 148L18 148L18 148L17 148L17 148L16 148L16 148L16 147V147L16 147L17 147L17 146L18 145L18 145L18 145L19 145L19 145L20 144L20 144L21 144L21 144L22 144L22 144ZM26 145L26 146L26 145L26 145L26 145L26 144L26 144L26 145L26 145L26 145L26 145ZM25 148L25 148L24 148L24 148L24 148L25 148L25 148L25 148ZM14 150L14 150L13 150L13 150L13 149L14 149L14 149L14 149L14 150L14 150L14 150L14 150L14 150ZM12 151L12 151L12 151L12 151L12 151L12 151L12 150L12 150L12 150L12 150L12 150L12 150L13 150L13 150L13 150L13 150L12 151ZM10 152L10 152L10 152L10 152L10 151L10 151L11 151L11 152L11 152L10 152L10 153L10 153L10 153L11 153L11 153L11 153L10 153L10 154L9 154L9 154L9 155L8 155L8 155L7 155L7 155L7 155L7 155L6 155L6 156L6 156L6 156L6 156L6 156L5 156L5 155L5 155L6 155L6 155L6 155L7 154L8 154L8 153L8 153L8 153L8 153L9 153L9 153L9 153L9 153L9 153L9 153L8 153L8 152L8 152L8 152L8 152L8 152L8 152L8 152L8 151L8 151L9 151L9 151L9 151L10 151L10 152ZM11 153L11 153L11 153L11 152L11 152L11 152L11 152L12 152L12 152L11 152L11 153L11 153ZM4 155L3 156L3 156L2 157L2 157L2 157L2 157L2 158L1 158L0 158L0 158L0 158L0 158L1 158L1 157L1 157L1 157L1 156L1 156L2 156L2 156L2 156L2 156L3 156L3 156L3 155L3 155L3 155L3 154L3 154L4 154L4 154L4 154L5 154L5 154L5 155L5 155L4 155ZM292 184L293 184L293 184L294 184L294 184L294 184L295 185L295 185L296 185L296 186L296 186H296L296 186L297 186L298 186L298 187L299 187L300 187L300 187L301 187L301 187L302 186L302 186L302 187L302 187L303 187L304 187L305 187L305 187L305 188L306 188L306 188L307 188L307 188L307 188L307 188L306 188L306 188L305 189L305 189L303 190L302 190L302 190L300 192L299 193L297 194L297 195L297 195L297 195L298 195L298 195L298 195L300 195L300 194L301 194L301 194L301 194L301 194L302 194L302 194L302 194L302 194L302 194L302 194L302 194L302 195L302 195L302 195L302 196L302 196L302 195L302 195L302 195L302 195L302 195L303 195L303 196L304 196L304 196L305 195L305 195L306 194L306 194L307 194L308 194L308 194L309 193L309 193L309 193L309 193L310 193L310 193L310 192L311 192L311 192L311 192L311 192L311 193L311 193L311 193L311 193L311 193L311 193L311 194L311 194L311 194L311 194L311 194L311 194L312 194L312 194L312 194L312 194L312 194L313 194L314 194L314 194L314 194L314 194L315 195L315 196L315 196L315 196L316 196L316 196L316 196L317 196L317 196L317 196L317 196L318 196L318 196L318 196L318 196L318 196L318 196L319 196L319 196L320 195L320 195L320 195L321 195L322 195L322 195L323 195L324 195L324 195L325 195L325 195L325 195L325 195L325 196L325 196L324 196L324 196L324 196L325 196L325 196L326 196L326 196L326 196L326 196L326 196L327 196L327 196L327 196L327 196L327 196L327 196L328 197L328 197L328 197L328 197L328 198L328 198L328 198L328 198L328 198L328 198L328 198L328 198L328 198L328 199L329 199L329 199L329 199L329 199L329 199L327 199L327 199L327 199L327 199L327 199L326 199L326 199L326 199L326 199L326 199L326 199L326 199L326 199L326 200L326 200L326 200L326 200L326 200L325 200L325 199L324 199L324 198L323 198L323 198L322 198L322 199L322 199L321 199L321 199L321 199L321 199L321 199L320 199L320 199L320 199L320 200L319 200L319 200L319 200L319 200L318 201L318 201L318 201L318 201L318 201L318 201L318 200L318 200L319 200L319 200L319 200L319 200L318 200L318 200L318 200L318 200L318 200L318 200L317 200L317 201L317 200L317 200V200L317 200L317 199L317 200L317 200L317 200L316 201L316 201L316 201L316 202L315 202L315 203L315 203L315 204L315 204L315 204L314 204L314 204L314 205L314 205L314 205L313 206L313 206L313 206L313 207L313 207L313 207L314 207L314 206L314 206L314 206L314 206L315 205L315 205L315 205L315 205L315 205L316 205L316 206L316 206L316 206L315 206L315 207L315 207L315 208L315 208L315 209L315 209L315 209L314 210L314 210L314 210L314 211L314 211L314 211L314 211L314 212L314 212L314 212L314 213L314 213L314 214L314 214L314 214L314 214L314 214L314 215V215L314 215L314 215L314 215L314 215L314 216L314 216L314 216L314 216L314 217L314 218L314 218L314 219L314 220L314 220L314 220L314 220L315 221L315 222L315 222L315 222L315 222L315 222L315 222L316 222L316 222L316 222L317 222L318 221L318 221L318 221L319 220L319 220L319 219L319 219L320 218L320 218L320 217L320 216L320 216L320 215L320 214L320 214L320 214L319 213L319 212L319 212L319 211L319 211L319 210L319 210L319 210L319 209L319 209L319 208L320 208L320 208L320 207L320 206L320 206L320 206L320 206L320 206L320 206L320 205L321 205L321 205L321 205L321 205L321 205L321 205L322 204L322 204L322 203L322 203L322 203L322 204L322 204L322 204L322 204L322 204L322 205L322 205L322 205L322 206L322 205L322 205L322 205L322 205L322 205L323 205L323 204L323 204L323 205L323 205L322 205L322 206L322 206L323 205L323 205L323 204L323 204L323 203L323 203L323 203L323 203L324 202L324 202L324 202L325 202L325 202L325 202L325 202L324 202L324 202L324 201L324 201L324 201L325 201L325 200L325 200L325 200L325 200L325 200L326 200L326 200L326 200L326 201L327 201L327 201L328 201L328 201L328 201L328 202L328 202L329 202L329 202L329 202L330 202L330 203L331 203L331 203L331 203L331 203L331 204L331 204L331 204L331 204L331 204L331 204L331 204L331 204L331 204L331 204L331 204L331 205L331 205L331 206L331 206L331 206L331 207L331 208L331 208L331 208L331 208L331 208L330 208L330 208L330 209L330 209L330 210L330 210L330 210L330 210L330 210L329 210L329 210L329 210L329 211L329 211L329 211L329 211L329 212L330 212L330 212L330 212L330 211L330 211L331 211L331 211L331 210V210L331 210L331 210L331 210L331 210L331 210L332 210L332 210L332 210L333 210L333 210L333 210L334 210L334 211L334 212L334 214L334 215L335 215L335 215L334 216L334 217L334 217L333 218L333 218L332 219L332 219L332 219L332 219L332 219L332 220L332 220L332 220L332 220L331 220L331 220L331 221L331 221L331 221L331 221L331 221L331 222L331 222L331 222L331 222L331 222L331 222L332 222L332 223L332 223L333 223L333 223L333 222L333 222L333 223L334 223L334 223L332 223L332 223L332 223L333 223L333 223L333 223L334 223L334 223L334 223L334 223L334 223L335 223L335 223L335 223L336 223L336 223L337 223L337 223L338 223L338 222L339 222L341 221L343 220L343 220L343 220L344 220L344 220L345 219L346 218L346 218L347 218L347 217L347 217L348 217L348 216L348 216L348 216L348 216L348 216L348 215L348 215L348 215L348 215L348 215L348 215L348 214L348 214L348 214L349 213L350 213L351 213L352 213L353 213L353 214L354 214L354 214L354 214L355 214L356 214L356 214L356 214L356 214L356 214L356 213L357 213L357 213L357 213L357 213L358 212L358 212L358 212L358 212L359 212L359 212L359 212L359 212L359 212L359 212L359 212L359 211L358 211L358 211L358 211L358 210L358 210L358 210L358 211L359 210L359 210L359 210L359 210L359 210L359 210L359 210L359 210L359 210L359 210L359 209L359 209L358 210L358 210L358 210L358 209L358 209L360 208L360 208L360 207L360 207L360 207L360 207L362 206L363 205L363 205L364 204L364 204L364 204H365L366 204L367 204L369 204L370 204L372 204L374 204L375 204L377 204L377 203L377 203L378 203L378 203L378 203L379 203L379 203L379 203L379 203L379 203L379 203L379 202L380 202L380 202L380 202L380 202L380 202L380 202L380 201L380 201L381 201L381 200L381 200L381 200L381 200L382 199L381 199L381 199L382 198L382 198L382 197L382 196L382 196L382 195L383 194L384 193L384 193L385 192L385 191L385 191L386 191L386 191L386 191L386 192L386 192L386 192L387 192L387 192L387 192L388 192L388 192L389 192L389 192L389 191L389 191L390 192L390 192L391 193L391 194L391 195L391 196L391 196L391 197L391 198L391 199L391 199L391 199L391 200L391 200L391 200L391 200L391 200L391 200L391 200L391 200L391 201L391 201H391L392 201L392 201L392 201L392 201L392 201L392 201L393 201L392 202L392 202L392 202L392 202L392 202L392 202L392 202L392 203L392 203L392 203L392 203L393 203L393 204L393 204L393 204L393 203L393 203L393 203L394 204L394 204L394 204L394 204L394 204L394 205L394 205L394 205L394 205L394 205L393 206L393 206L392 206L392 206L392 207L392 207L391 207L391 207L391 207L391 207L390 207L390 208L390 208L390 208L390 208L390 207L390 207L390 207L389 207L389 207L389 207L389 207L389 207L388 207L388 207L388 208L388 208L388 208L388 208L388 208L388 208L387 208L387 208L388 208L387 207L387 207L387 207L387 207L387 207L387 207L387 207L387 208L387 208L386 209L386 209L386 210L386 210L385 210L385 210L385 210L384 210L384 210L384 210L384 210L384 210L384 210L384 210L384 210L384 211L384 211L383 210L383 210L383 210L383 211L383 211L383 211L383 211L383 211L383 211V211L383 211L382 211L382 211L382 212L382 212L382 212L381 213L381 213L380 214L380 214L380 215L380 215L379 216L380 216L380 217L380 217L380 217L380 217L380 217L380 217L380 217L380 217L380 217L379 218L379 218L379 218L378 219L379 219L379 219L380 219L380 220L380 220L380 220L380 221L381 221L381 222L381 222L382 222L383 221L382 221L382 220L382 220L382 220L382 220L382 220L382 220L382 220L382 220L382 220L383 220L383 221L383 222L383 222L383 222L382 222L381 222L381 222L380 223L380 223L380 222L380 222L380 222L379 223L378 223L378 223L378 223L378 222L378 222L378 222L378 222L378 222L377 222L377 221L377 221L377 222L377 222L377 223L377 224L376 224L375 224L375 224L374 224L373 224L373 224L372 224L371 224L371 224L370 224L369 225L368 226L368 226L368 226L368 226L367 227L367 227L367 226L368 226L368 225L368 225L367 224L367 224L367 225L368 226L367 226L367 227L367 227L367 227L366 227L366 227L366 227L366 228L366 228L367 228L367 228L367 228L367 229L367 229L367 230L367 230L367 231L367 232L367 231L367 230L367 231L367 231L366 232L366 232L366 233L366 233L366 233L366 233L366 234L365 234L365 234L365 234L365 234L365 234L365 234L364 235L364 236L363 236L364 235L364 235L363 234L363 234L363 234L362 234L362 234L361 233L361 233L361 232L361 232L362 232L362 231L363 231L363 231L363 231L363 231L362 231L362 231L362 232L361 232L361 232L361 232L361 233L361 233L361 234L362 234L362 235L362 236L362 236L363 237L363 237L363 237L362 238L363 237L363 238L363 238L363 238L363 238L363 239L363 238L363 238L363 238L363 238L363 239L363 239L362 239L362 240L362 240L361 242L361 242L361 243L361 243L360 243L360 243L360 244L360 244L360 244L359 244L360 243L360 242L360 242L360 241L361 241L360 240L360 240L360 240L360 240L360 240L360 240L360 240L360 239L360 239L360 239L360 239L360 239L360 239L360 239L360 239L359 239L359 239L359 239L359 239L359 239L358 238L358 238L358 237L359 237L359 237H359L359 237L359 237L359 237L359 237L358 237L358 237L358 237L358 236L358 236L359 236L359 236L358 236L358 236L358 236L358 235H358L359 236L359 235L359 235L359 235L358 234L359 234L359 234L360 234L360 234L360 234L359 233L360 233L360 233L360 233L360 233L360 233L359 233L359 233L359 233L359 233L359 233L359 234L359 234L358 233L358 233L358 234L358 234L358 234L358 234L358 234L358 234L358 234L358 234L358 234L357 234L357 234L358 235L358 235L358 235L358 235L357 235L357 235L357 236L358 236L357 236L357 236L357 236L357 237L358 238L358 238L358 238L358 239L358 239L357 238L357 238L357 238L357 238L357 237L357 238L357 238L358 239L358 239L358 240L358 240L358 240L358 240L357 239L356 239L356 238L356 239L356 239L356 239L356 238L356 238L355 238L355 238L355 238L355 238L355 238L355 237L355 237L356 237L355 236L355 237L355 237L355 237L354 237L354 238L354 238L354 239L355 239L355 239L355 239L356 239L357 240L357 240L358 240L358 240L358 241L358 241L358 241L358 242L358 242L358 242L358 242L356 241L356 240L356 240L355 240L355 240L356 240L356 241L357 241L357 242L357 242L358 242L358 242L358 243L358 243L358 243L358 244L358 243L358 244L358 244L358 244L357 244L356 243L356 243L356 243L357 244L358 244L358 244L358 244L358 245L358 245L358 245L358 245L358 245L357 245L357 244L357 244L357 244L356 244L355 244L355 244L355 244L356 244L356 244L356 244L357 244L357 245L357 245L358 246L358 246L358 245L359 246L359 246L360 246L360 246L360 247L360 249L361 250L361 251L361 251L360 250L360 249L360 247L360 247L360 247L360 247L360 247L360 247L359 248L360 248L360 248L360 249L360 249L360 249L360 249L359 249L359 249L359 249L359 249L358 249L358 249L358 249L358 249L358 249L358 250L358 250L357 250L357 250L357 249L357 249L356 249L357 250L357 250L357 250L357 250L358 250L358 250L359 250L359 250L359 250L359 251L359 251L359 251L359 251L360 250L360 250L360 250L360 250L360 251L360 251L360 252L360 252L359 253L359 253L358 253L358 253L358 253L358 253L357 253L357 252L357 252L357 252L357 252L356 253L356 252L355 252L356 252L357 253L357 253L357 253L357 254L357 254L357 254L357 254L356 255L356 255L355 254L356 254L356 255L356 255L358 255L358 255L358 255L357 256L357 256L357 256L357 256L356 256L356 256L355 256L355 256L355 256L354 256L354 256L354 256L354 256L354 257L354 257L354 257L354 257L353 258L353 258L353 258L352 259L352 259L352 260L352 259L352 259L352 258L352 259L352 260L350 260L349 260L348 261L348 261L347 262L347 263L347 262L347 262L347 262L347 262L347 263L347 263L346 264L346 264L346 264L345 264L345 265L345 265L344 265L344 265L344 265L344 266L344 266L343 266L343 266L343 266L343 266L342 266L342 266L342 266L342 266L342 266L342 267L342 267L342 267L342 267L342 267L342 267L341 267L341 267L341 267L341 266L341 267L341 267L341 267L341 267L341 268L341 268L341 268L341 268L341 268L341 268L340 269L340 269L340 269L340 269L340 269L340 269L340 269L340 270L340 270L339 270L339 270L340 270L339 270L339 270L339 270L339 271L339 270L339 270L339 271L339 271L339 271L339 271L339 271L339 272L339 272L339 272L338 272L338 272L338 272L338 272L338 273L338 273L338 274L338 274L338 274L338 274L339 276L339 277L339 278L340 280L340 282L342 284L342 284L342 284L342 284L342 285L342 285L342 286L342 287L342 286L342 285L342 285L342 284L342 284L341 284L341 284L341 285L341 284L341 284L341 284L341 284L341 283L341 283L341 283L341 283L341 283L341 283L341 284L341 284L341 285L341 285L343 290L344 290L344 290L344 291L344 292L344 294L344 295L343 295L343 295L343 295L343 296L343 296L343 297L342 298L342 298L342 298L341 298L341 298L340 298L340 298L340 298L340 298L340 298L340 298L340 298L340 298L340 298L340 298L340 297L339 296L339 296L339 295L338 295L337 295L337 294L337 293L336 293L336 293L337 292L337 292L337 292L336 292L336 292L336 292L336 292L336 292L336 291L336 291L336 291L336 291L336 291L336 291L335 291L335 291L335 291L334 290L334 289L334 288L334 288L334 288L334 288L334 288L335 287L335 287L335 287L334 286L334 287L334 287L334 286L334 286L334 286L334 287L334 287L334 287L334 287L334 287L334 287L333 287L333 287L333 287L333 287L333 285L334 284L334 283L334 283L334 282L333 282L331 280L330 278L328 277L327 277L327 277L327 277L327 278L327 278L327 278L326 278L325 278L325 278L325 278L324 279L324 279L323 279L323 279L323 278V278L323 278L323 278L323 278L324 278L323 278L323 278L322 277L322 277L322 277L322 276L322 276L322 276L322 276L322 276L322 276L322 277L322 277L321 276L320 276L319 276L320 276L320 276L320 275L320 275L320 275L319 275L319 275L319 275L318 276L318 276L317 276L316 276L316 276L316 276L317 275L317 275L317 275L317 275L317 275L316 275L316 275L316 275L316 276L316 276L315 276L315 276L315 276L315 276L315 276L314 276L313 276L313 276L313 276L314 276L314 276L314 276L314 276L313 275L313 275L313 275L313 274L313 274L313 275L313 276L313 276L312 276L312 276L310 276L310 276L310 276L310 276L309 276L308 276L308 276L308 276L308 276L307 277L306 276L305 276L305 276L304 276L304 276L304 277L304 277L305 277L305 277L306 277L306 277L306 277L306 277L307 277L307 277L306 277L306 277L306 277L306 278L307 278L307 278L307 277L307 277L308 277L308 277L308 278L308 278L308 278L308 278L308 278L307 278L307 279L307 279L307 279L307 279L307 279L307 279L306 279L307 279L307 280L307 280L308 280L308 280L309 281L309 281L309 281L309 281L309 281L309 282L309 282L308 282L308 281L308 282L308 282L308 282L308 281L308 281L307 281L307 281L307 280L307 280L306 280L306 280L306 280L306 280L306 280L305 279L305 280L305 280L305 280L305 280L305 280L305 280L305 281L305 281L305 281L304 281L304 281L304 281L304 280L303 280L303 281L303 281L302 281L302 281L300 280L300 280L301 280L301 280L301 280L300 280L300 280L300 279L300 279L300 280L300 279L299 279L299 278L298 278L298 278L298 278L297 278L297 279L297 279L297 279L297 279L297 279L295 279L295 279L294 279L293 278L293 278L292 278L291 278L291 278L291 279L290 278L290 278L290 278L291 278L291 278L291 278L291 278L290 277L290 278L290 279L290 279L290 279L288 280L287 280L287 280L288 279L288 279L287 279L287 279L287 279L287 278L287 278L286 279L286 279L286 279L286 279L286 279L286 280L286 280L286 281L286 281L286 281L285 282L285 282L284 283L283 283L283 283L282 284L282 284L281 284L282 284L282 283L282 283L281 283L281 283L281 283L280 284L280 283L280 283L280 283L280 283L280 283L280 284L280 284L281 284L280 284L280 284L280 285L279 284L279 285L279 285L279 285L279 285L279 285L279 285L278 285L278 285L278 285L278 286L278 286L278 286L278 286L278 286L278 287L277 287L277 287L277 287L277 287L277 288L277 289L277 289L276 289L276 289L276 289L275 288L276 289L276 289L276 290L276 290L276 290L276 291L276 291L276 292L276 292L277 293L277 293L278 294L278 294L278 295L278 295L277 295L277 295L277 295L277 295L277 295L277 295L276 295L275 294L274 294L273 294L273 294L273 294L272 294L272 294L272 293L271 293L270 293L270 293L270 292L270 292L270 292L269 291L269 290L269 290L269 290L269 290L269 289L269 289L269 289L269 289L269 288L269 288L268 288L268 287L267 287L267 286L266 285L266 285L266 285L265 284L265 284L266 284L265 283L265 282L264 282L264 282L264 281L263 280L263 280L263 280L262 279L261 278L261 278L261 278L261 278L261 278L261 278L260 278L260 278L259 278L258 278L258 278L258 278L258 278L257 278L257 278L256 279L256 280L256 280L256 281L256 281L255 281L255 281L255 282L254 282L254 282L254 282L253 281L252 280L251 280L251 280L250 280L250 279L250 279L249 279L249 278L249 277V277L248 275L248 275L248 274L247 274L246 274L246 273L244 272L244 271L243 271L243 270L242 270L242 270L242 270L242 270L241 269L240 269L239 269L238 269L238 269L237 269L236 269L235 269L235 270L235 270L235 271L235 271L234 271L232 271L231 271L230 272L228 272L227 272L226 272L224 272L222 271L220 270L219 270L217 269L215 268L213 268L211 267L210 266L210 266L210 265L209 265L208 265L207 265L206 266L205 266L204 266L203 266L202 266L201 266L201 266L201 266L200 265L200 265L200 265L200 264L200 264L200 263L199 262L198 261L197 261L197 261L197 260L196 260L196 261L196 260L196 260L195 259L195 259L194 259L193 259L192 258L192 258L192 258L191 257L191 257L190 257L189 257L189 257L188 257L188 257L187 257L187 257L187 256L187 256L187 256L187 255L187 254L187 254L187 254L186 254L186 253L186 253L186 253L186 252L185 252L185 252L184 251L184 251L184 250L183 249L182 248L182 248L182 247L182 247L183 246L183 246L182 246L182 246L181 245L180 244L180 243L180 242L180 242L180 241L180 241L180 241L180 242L180 242L181 242L181 242L181 243L181 243L182 243L181 243L181 242L181 242L181 242L181 241L180 241L180 241L180 240L181 240L181 240L182 240L183 240L183 240L184 240L184 240L183 240L183 240L183 240L182 240L182 240L182 240L182 240L181 240L181 240L180 240L180 240L180 240L180 241L180 241L180 241L180 241L179 241L179 241L178 240L178 240L178 240L178 240L178 240L178 239L178 240L178 239L178 239L178 239L178 238L177 238L176 237L175 236L175 235L175 234L175 233L175 232L175 232L174 231L174 230L173 229L173 229L173 228L173 228L173 227L173 227L173 227L173 227L173 227L173 227L173 227L173 227L173 226L173 226L174 226L174 225L174 224L174 223L174 222L174 222L173 221L173 221L173 220L173 220L172 219L172 218L172 217L172 217L172 216L172 215L172 215L173 213L173 213L173 213L173 213L173 213L173 213L173 212L173 212L174 211L174 210L174 208L174 208L174 207L174 206L174 206L174 202L174 202L174 201L174 200L174 198L174 198L174 198L174 198L174 198L175 198L176 198L176 198L176 198L177 198L177 198L177 198L177 198L176 198L176 197L175 198L175 197L174 198L174 197L174 197L174 197L174 196L174 196L174 196L174 196L174 196L174 195L174 195L174 195L174 194L175 194L174 194L174 193L174 193L174 193L174 194L174 193L173 193L173 192L173 191L173 190L172 189L172 188L172 188L171 187L172 186L171 186L172 186L172 186L173 186L174 186L174 187L177 187L177 187L177 187L178 187L178 187L178 187L178 187L178 187L179 187L179 187L179 187L179 188L179 188L179 188L179 189L179 189L179 189L179 189L178 190L177 191L177 191L177 191L178 191L178 191L178 191L178 191L178 191L178 191L178 191L178 191L178 190L178 190L179 190L179 189L179 189L180 189L180 188L180 188L180 188L180 188L180 189L180 189L179 189L179 189L179 190L179 190L179 190L179 190L180 190L180 191L180 191L180 192L180 192L179 192L179 192L179 192L179 192L179 192L179 192L179 192L178 192L178 192L178 192L178 193L178 193L179 193L179 193L179 193L179 193L180 192L180 192L180 192L180 192L180 192L180 191L180 191L180 190L180 190L180 190L180 190L180 190L180 189L180 189L180 189L180 189L180 188L181 188L181 188L181 188L181 187L180 187L180 187L180 187L180 187L180 187L180 187L180 187L180 187L180 186L180 186L180 186L180 186L180 186L180 186L180 185L180 185L179 185L179 185L179 185L179 185L179 185L180 185L180 185L180 185L180 184L180 184L180 183L180 183L180 183L180 183L179 183L179 183L179 183L179 182H179H181H182H184H186H187H189H191H192H194H196H197H199H201H202H204H206H207H209H210H212H214H215H217H219H220H222H224H225H227H228H230H232H234H235H237H238H240H242H243H245H247H248H250H252H253H255H256H258H260H262H263H265H266H268H270H271H273H275H276H278H280H281H283H284L285 182L285 181L285 180L286 180L286 180L287 180L287 180L287 181L287 182L287 183L287 183L287 183L287 183L288 183L288 184L290 184L290 184L291 184L291 185L292 185L292 184L292 184ZM179 184L179 184L179 184L179 184L178 184L178 184L178 184L178 184L178 184L178 184L178 184L178 184L178 184L179 184ZM178 185L178 185L178 185L177 185L177 185L177 184L177 184L178 184L178 185L178 185ZM179 185L179 185L178 185L178 185L178 185L178 185L178 184L178 184L178 185L179 185L179 185ZM180 187L180 188L180 187L180 188V188L180 188L180 188L180 188L180 188L180 188L180 188L180 188L180 187L180 187L179 187L179 187L179 187L179 186L179 186L179 186L179 186L179 186L180 186L180 186L180 186L180 186L179 186L179 186L179 186L180 186L180 187ZM309 188L309 188L310 188L310 188L309 188L309 189L309 189L308 188L308 188L309 188V188H308L308 188L309 188L310 187L311 187L311 187L311 187L311 187L311 187L311 187L311 188L310 188L309 188ZM180 190L180 190L180 190L180 190L180 190L180 189L180 189L180 190L180 190L180 190ZM180 191L180 191L180 191L180 191L180 191L180 191L180 191L180 191L180 191L180 191L180 191L180 191ZM312 192L312 192L312 192L312 193L312 193L311 193L311 193V193L311 193L312 193L312 192L312 192L311 192L311 193L311 193L311 193L311 193L311 192L311 192L311 192L312 191L312 191L313 191L313 191H314L314 191L314 191L314 191L313 191L313 191L313 191L313 191L313 192L312 192ZM178 192L178 192L178 192L178 192L178 192L178 192L178 192L178 192ZM304 193L304 193L304 193L304 193L304 193L304 193L304 193L304 193L304 193ZM303 194L303 194L302 194L302 194L302 194L302 194L303 194L303 194ZM303 194L303 194L303 194L303 194L303 194L303 194L303 194L303 194ZM303 195L302 195L302 195L302 195L302 194L303 194L303 194L303 194L303 194L303 194L303 194L303 195ZM328 197V197L328 197L328 197L328 197L328 196L328 196L328 196L328 196L328 196L328 196L328 196L328 197L328 197ZM328 198L328 198L328 197L328 197L328 197L328 197L328 197L328 197L328 198L328 198ZM330 199L330 199L330 199L330 199L330 199L329 199L329 199L329 199L329 199L329 199L329 199L329 199L330 199L330 199L330 199L330 198L330 198L330 198L330 198L330 199L330 199ZM326 200L327 200L327 200L327 200L327 200L327 200L327 200L327 200L327 200L326 200L326 200ZM322 201L322 201L322 201L322 201L322 200L323 200L323 200L323 200L323 201L323 201L322 201ZM318 202L317 203L317 202L317 202L317 202L317 202L317 202L318 202L318 202L318 202ZM317 203L317 203L317 203L317 203L317 204L317 204L317 204L317 204L317 204L317 204L317 204L317 204L316 204L316 204L316 204L316 205L316 205L316 205L316 205L316 205L316 205L316 205L315 205L315 205L315 205L316 204L316 204L316 204L316 204L316 203L316 203L317 203L317 203L317 203L317 203L317 203ZM321 204L321 204L321 204L321 204L321 204L321 204L321 204L321 204L321 204ZM390 208L389 208L389 208L389 208L389 208L389 208L389 208L389 208L389 208L389 207L389 208L390 208L390 208ZM359 208L359 208L359 208L359 208L359 208H359L359 208L359 208ZM388 209L388 209L388 209L388 209L388 208L388 208L388 208L388 209ZM358 210L358 210L358 210L358 210L358 210L358 210L358 210ZM348 215L348 215L348 215L348 215L348 215L348 215L348 215L348 215L348 215L348 215ZM378 223L378 223L377 223L378 223L378 223L378 222L378 222L378 222L378 223ZM377 223L377 223L377 223L377 222L377 222L377 223L377 223ZM381 224L380 224L379 224L380 224L380 223L380 223L380 223L381 224ZM383 224L382 224L382 224L382 224L382 224L382 224L382 223L383 224L383 224ZM373 226L373 226L373 226L373 226L373 226L374 225L374 225L374 225L374 225L375 225L375 225L374 226L373 226L373 226L372 226L372 226L370 227L370 227L370 227L369 227L368 228L368 228L368 227L368 227L368 227L368 227L367 227L367 228L367 227L367 227L367 227L368 226L368 226L368 226L368 226L368 226L369 226L369 226L369 226L369 226L369 226L370 226L370 226L370 226L371 226L371 226L372 226L372 226L373 225L373 225L374 225L373 225L373 226ZM366 228L366 228L366 227L367 227L367 227L367 227L367 228L367 228L366 228ZM367 232L366 233L366 233L367 232L367 232ZM362 241L362 241L362 240L363 239L363 239L363 239L362 240L362 241ZM361 251L361 251L360 250L361 250L361 250L361 251ZM361 254L361 254L361 254L361 253L361 252L361 252L361 251L361 251L361 251L362 252L362 252L361 253L361 254ZM360 254L360 254L360 254L360 254L360 254ZM358 256L357 256L358 256L358 255L359 255L358 256L358 256ZM357 256L357 256L357 256L357 256L357 256L357 256L357 256ZM190 259L191 259L191 259L191 259L191 259L190 259L190 259L190 259L190 259L190 259ZM188 259L188 259L188 259L188 259L188 259L188 259L188 259ZM189 260L189 260L189 260L189 259L189 259L190 259L190 259L189 260ZM196 262L196 262L196 262L196 262L195 262L195 262L195 262L195 262L195 262L195 262L195 262L196 262L196 262ZM192 263L192 263L191 263L191 263L191 263L192 263L192 263L192 263ZM196 265L196 265L195 265L195 264L195 264L195 264L195 264L196 265L196 265ZM338 273L338 274L338 274L338 273L338 273L338 273ZM313 276L312 276L312 276L312 276L312 276L313 276L313 276ZM311 276L311 276L310 276L310 276L310 276L311 276L311 276ZM308 277L308 277L308 277L308 277L308 277L308 277L308 277L308 277L308 277L308 277ZM310 278L310 278L310 278L310 277L310 277L310 278L310 278ZM310 279L309 279L309 279L310 278L310 278L310 279ZM325 279L325 279L324 279L324 279L325 279L325 279L325 279L326 278L325 279ZM298 280L298 280L298 279L298 279L298 279L298 279L298 279L298 279L299 279L299 279L298 280ZM286 281L286 281L286 280L287 280L287 280L287 281L286 281ZM279 286L279 286L279 285L280 285L280 285L280 285L281 284L281 284L281 285L280 285L279 286ZM278 286L278 287L278 286L278 286L279 286L279 286L279 286L279 286L278 286ZM343 289L343 290L343 289L342 288L342 287L342 287L343 288L343 289ZM277 289L277 289L277 289L277 288L278 287L278 287L277 288L277 289ZM278 294L278 294L277 293L277 291L277 290L277 290L277 291L278 293L278 294ZM336 292L336 293L336 292L336 292L336 292L336 292ZM336 293L336 293L336 293L336 293L336 292L336 293L336 293L336 293ZM342 298L342 299L342 299L342 298L342 298L342 298L343 298L343 298L343 298L343 298L342 298ZM342 299L341 299L342 299L342 299L342 299ZM341 300H341L341 300L341 300L341 300L341 300L341 300ZM340 300L340 300L340 300L340 300L340 300L340 300L340 300ZM339 300L339 300L339 300V300L338 300L338 300L339 300L339 300L339 300ZM338 301L338 301L338 300L338 300L338 300L338 301L338 301ZM337 301L337 301L337 301L337 301L337 301L337 301L337 301ZM38 312L37 312L37 312L37 312L36 312L36 312L36 311L36 311L37 311L38 311L38 311L38 311L38 311L38 312L38 312ZM34 312L34 312L34 312L34 312L34 312L34 312L35 311L35 312L35 312L35 312L34 312L34 312ZM44 314L44 314L44 314L44 314L44 314L44 314L44 314L44 314L43 314L43 314L43 314L43 314L43 314L43 314L43 314L42 314L42 314L42 314L42 314L42 313L42 313L42 313L43 313L43 313L43 313L43 314L44 314L44 314ZM46 315L47 315L47 315L47 315L48 315L48 315L48 315L47 315L47 315L46 315L46 315L46 315L46 315L46 315ZM49 316L49 316L49 316L50 316L50 316L50 316L50 316L51 317L50 317L50 317L50 317L49 317L49 317L49 317L49 317L49 316L48 316L48 316L48 316L48 316L48 316L48 316L48 316L49 316ZM47 316L47 317L47 317L47 316L46 316L47 316L47 316L47 316L47 316L47 316ZM52 324L52 324L52 324L51 324L51 323L51 322L51 321L50 321L51 320L51 320L51 320L51 319L51 319L51 319L52 319L54 320L54 320L54 321L54 321L55 321L55 321L55 322L55 322L54 322L53 323L52 323L52 324Z"/></mask><path d="M108 20V24V27V30V33V36V39V42V45V48V51V53V56V59V62V64V67V70V72V75V78V80V82V85V87V90V92V95V97V99V102V104V106L109 107L110 107L111 106L112 107L112 107L113 107L114 106L114 106L115 106L116 106V106L116 107L116 108L116 109L117 109L117 109L118 110L118 111L119 112L119 112L120 113L120 113L121 114L122 114L122 115L122 116L122 117L122 117L123 116L123 116L124 115L125 115L126 115L126 114L126 113L126 113L127 113L127 112L126 112L127 111L128 111L129 111L130 110L130 111L131 111L131 112L132 112L131 112L131 113L132 114L132 114L132 114L133 115L133 115L134 116L134 116L134 116L134 116L134 117L134 117L135 117L135 118L136 118L136 118L137 119L137 120L138 120L138 121L138 122L139 123L139 124L140 124L140 125L140 126L141 127L142 128L142 129L142 129L142 130L142 130L143 130L143 130L143 131L143 132L143 132L144 132L144 132L144 133L144 134L144 134L145 134L145 134L146 134L146 134L147 135L147 135L148 135L148 136L149 136L149 137L150 137L150 137L151 137L151 138L151 138L151 138L151 139L150 139L150 140L150 140L150 140L150 141L151 142L151 142L151 142L150 144L150 144L150 144L150 145L149 146L149 146L148 146L148 146L147 145L147 144L147 143L147 143L147 143L148 142L148 142L148 142L148 142L148 141L148 141L148 140L147 139L147 139L147 138L146 138L147 137L147 137L146 138L145 138L144 138L144 139L144 139L144 139L144 139L144 139L144 140L143 141L143 141L143 141L143 140L142 140L142 139L143 139L143 139L143 138L144 136L144 136L145 136L144 136L144 136L144 136L143 135L143 135L143 135L142 135L142 134L142 134L142 134L142 134L142 133L142 133L141 133L141 132L141 132L140 132L140 131L140 131L140 131L140 130L140 130L140 130L138 130L138 128L137 127L137 126L137 126L137 126L137 126L138 126L139 127L139 127L138 126L137 125L137 125L137 124L137 124L138 124L139 124L137 124L137 124L137 125L137 125L136 125L136 125L136 124L136 124L135 123L135 123L135 122L135 121L136 120L136 120L136 120L136 120L136 120L135 120L135 122L135 122L134 122L134 121L134 121L133 121L132 120L132 119L132 118L132 118L131 118L131 117L131 116L130 114L130 114L130 113L130 113L130 114L130 114L130 114L130 114L130 115L130 115L130 115L130 116L130 117L131 118L131 119L131 119L131 120L131 121L131 121L131 122L131 122L131 122L130 122L130 121L130 121L129 120L128 121L128 121L128 120L128 119L128 119L128 118L128 118L128 117L128 117L128 117L128 117L127 116L127 116L127 116L127 117L127 117L127 117L127 118L127 118L127 118L127 118L127 118L126 118L126 117L126 117L126 117L126 117L124 116L124 116L124 116L124 116L124 117L124 117L124 117L124 117L124 117L124 117L125 117L125 118L126 118L126 118L126 118L126 118L126 118L126 119L126 119L127 119L127 120L128 120L128 121L127 121L127 121L126 121L126 122L125 122L125 122L124 121L124 121L122 119L122 119L122 119L122 119L121 119L121 118L120 118L120 117L120 117L120 117L119 116L119 116L118 115L118 115L118 115L118 115L118 115L117 115L117 114L115 113L114 113L113 112L113 112L113 112L113 112L114 112L114 112L114 111L114 111L114 110L114 110L114 110L114 109L114 109L114 109L114 109L114 109L115 110L115 110L115 111L115 112L115 112L115 111L115 111L115 110L115 110L116 110L116 110L116 110L115 109L115 109L114 108L114 108L114 109L113 110L113 110L112 111L111 111L110 111L109 110L107 110L107 109L107 109L107 109L107 108L107 108L107 108L107 108L107 108L107 108L107 108L106 109L106 109L104 108L102 108L101 108L99 108L98 108L97 108L96 108L96 108L96 108L96 108L96 107L96 107L95 107L94 107L94 107L94 106L94 106L93 106L94 105L94 104L94 104L94 103L94 103L94 104L93 104L93 105L92 105L92 106L92 106L91 105L90 105L90 105L90 105L90 104L90 104L90 104L90 104L89 104L88 103L88 103L88 103L88 103L88 103L87 103L87 103L87 103L87 103L88 102L87 102L87 102L87 102L87 101L87 100L88 100L88 100L87 100L86 100L86 101L85 101L85 101L85 101L84 101L84 101L84 101L84 101L84 102L84 101L84 101L83 101L83 101L83 101L83 101L83 102L82 102L82 102L82 101L81 101L82 101L82 99L82 99L82 99L82 100L81 100L81 100L81 100L80 100L80 100L80 100L80 101L80 101L80 100L80 100L81 100L80 101L80 102L80 102L80 102L79 102L79 102L80 103L80 103L80 103L80 103L80 104L80 104L80 104L80 104L80 104L79 104L79 105L79 105L79 105L80 104L80 104L81 104L81 104L81 104L82 104L82 105L82 105L81 105L81 105L81 106L81 106L81 106L81 106L81 107L81 107L80 108L80 108L80 108L80 109L80 109L80 109L79 109L79 109L79 109L78 109L78 109L78 109L77 109L77 108L76 109L76 108L76 108L76 108L76 109L76 109L75 109L75 110L75 110L75 110L75 109L75 109L74 110L74 110L74 110L74 111L74 110L74 110L74 110L74 111L74 111L73 112L73 112L73 112L72 112L72 112L72 112L72 112L71 112L71 112L71 113L71 113L70 114L70 114L70 114L70 114L70 114L69 114L69 114L69 114L69 114L69 114L69 114L68 114L68 114L67 115L67 115L66 114L66 114L66 114L66 114L66 113L67 113L67 113L68 112L68 112L69 112L69 111L70 110L70 110L70 110L68 111L68 111L68 111L67 111L67 111L66 110L67 109L67 109L68 108L68 107L68 106L69 105L69 104L68 104L68 103L69 103L70 102L71 102L72 101L72 101L73 101L73 101L73 101L74 101L74 101L75 101L77 102L77 102L77 102L77 101L76 101L75 101L74 100L74 99L74 99L74 99L74 99L74 99L74 98L75 98L75 98L76 97L76 97L75 97L75 97L74 98L74 98L74 98L74 99L73 99L72 99L72 98L72 98L71 98L70 99L70 100L69 100L69 100L68 101L68 101L67 102L67 102L67 102L67 103L67 103L66 103L66 103L65 104L65 105L65 105L65 105L65 106L65 106L64 106L64 107L63 107L63 107L62 106L62 106L62 106L62 107L63 107L63 108L64 108L64 108L63 109L63 109L63 109L62 110L61 110L61 110L62 110L62 110L62 111L62 111L61 111L61 111L61 111L61 111L61 111L60 111L60 111L60 111L60 111L60 112L60 112L59 112L59 112L59 113L58 113L58 114L58 114L58 115L58 115L59 116L59 116L60 116L60 116L61 117L61 117L61 117L61 118L60 118L60 119L59 119L59 119L59 119L58 120L58 120L58 121L58 121L57 121L57 121L58 121L57 122L57 122L57 122L57 122L56 123L56 123L56 123L54 123L54 124L54 124L53 125L53 125L52 125L52 125L52 126L52 126L52 126L51 127L51 127L50 127L50 127L50 128L50 128L50 127L50 128L49 128L49 128L49 128L49 129L49 129L49 129L49 130L49 130L48 130L48 131L48 131L48 131L47 131L47 131L47 131L47 131L46 132L46 132L46 132L46 132L45 132L45 132L45 132L45 132L45 133L44 133L44 133L44 133L44 133L43 133L43 134L42 134L43 134L43 134L43 134L43 134L42 134L42 134L42 134L41 134L41 135L41 135L41 136L41 136L41 135L41 136L42 136L42 136L42 136L42 136L41 137L41 137L41 137L41 137L41 136L41 136L40 136L40 137L40 137L40 138L37 139L37 139L37 139L37 140L37 140L36 140L36 140L36 139L36 139L36 139L36 139L36 139L36 139L35 139L35 139L35 139L34 140L34 140L34 140L33 141L33 141L33 141L33 141L32 141L32 141L32 141L32 141L31 141L31 141L31 142L30 142L30 142L29 142L29 142L29 141L30 141L30 141L30 141L30 141L30 141L30 141L30 140L30 140L30 140L29 140L29 140L29 141L29 141L28 142L28 142L27 143L27 144L27 143L26 144L26 144L26 144L26 144L26 144L26 144L26 144L26 144L26 143L26 143L25 143L25 143L25 143L25 144L25 144L25 144L24 145L24 145L24 144L23 144L23 144L23 145L23 145L23 145L22 146L22 146L22 145L22 145L22 144L22 144L22 144L22 144L23 143L23 143L24 143L24 143L24 143L24 143L24 143L24 142L25 142L25 141L26 140L27 140L28 139L28 138L30 138L30 138L30 138L30 138L31 138L31 138L32 138L32 138L32 138L31 138L31 138L32 139L32 139L32 139L32 139L32 139L32 138L33 138L33 139L33 139L33 139L34 139L34 139L34 139L34 139L33 138L33 138L33 138L33 137L33 137L34 136L34 136L34 135L35 135L36 134L38 133L38 132L39 132L39 132V132L39 132L40 132L40 132L40 132L40 132L40 132L40 131L40 131L40 130L40 130L41 129L42 129L42 128L42 128L43 128L43 127L43 127L44 127L44 127L44 127L44 127L45 127L45 127L45 127L45 127L44 127L44 126L44 126L44 126L44 125L44 124L44 123L44 122L45 122L46 122L45 122L45 122L45 122L45 121L45 120L45 120L46 119L47 118L47 118L46 118L47 116L47 115L47 116L46 117L44 118L43 119L42 119L42 119L41 118L41 118L41 117L41 117L41 116L42 116L42 116L42 116L42 116L41 116L41 116L41 116L40 117L40 116L40 116L40 117L40 118L40 118L40 120L40 120L39 121L39 120L38 118L37 118L36 117L36 117L36 117L35 118L34 117L34 116L34 116L33 116L33 116L32 117L32 117L30 118L30 118L30 118L30 118L30 119L28 119L27 119L27 118L28 118L28 118L28 117L28 116L28 116L29 115L28 115L28 116L27 115L27 114L28 113L28 113L28 112L28 112L28 111L27 109L26 107L26 106L26 105L27 104L28 103L28 103L27 103L27 103L27 104L26 104L26 106L25 106L25 106L25 107L25 107L25 108L25 108L25 109L24 109L24 109L23 110L21 110L20 110L19 109L19 109L19 109L18 107L17 106L17 106L16 106L16 105L16 105L16 105L15 104L15 104L14 104L16 103L16 102L16 102L17 102L18 102L18 102L18 103L19 103L18 104L18 104L18 104L19 103L20 103L20 103L20 103L20 103L21 104L22 103L22 103L22 102L21 102L20 102L20 102L21 102L21 102L21 101L21 101L20 102L18 102L17 101L16 101L15 101L15 101L16 100L16 100L16 100L16 100L16 100L15 100L15 99L15 99L15 100L15 99L14 99L15 99L15 99L15 99L14 99L14 99L14 99L14 100L14 100L14 100L13 100L13 98L12 98L12 98L13 97L12 96L12 96L12 97L11 96L11 96L11 96L11 96L12 96L13 95L13 95L12 95L12 94L12 94L13 94L13 94L13 93L13 93L13 93L13 92L14 90L15 89L15 88L16 88L16 88L17 89L17 89L17 88L16 88L17 88L17 87L17 87L17 87L17 88L16 87L16 86L17 85L17 85L17 84L18 84L18 84L18 84L18 83L18 83L18 83L19 82L20 82L21 83L21 83L21 84L21 84L21 84L21 84L21 84L21 84L22 84L22 84L22 84L22 84L23 84L24 83L24 83L25 82L26 80L26 80L27 80L27 80L27 80L28 80L29 80L30 80L31 80L32 79L32 78L32 77L32 76L32 76L31 74L30 72L30 72L29 72L30 71L30 71L31 71L32 71L32 70L32 70L32 69L32 69L31 68L31 68L31 68L30 68L29 69L29 69L28 68L28 69L27 70L26 70L25 72L25 72L24 72L24 71L23 70L22 70L23 71L23 71L23 71L23 72L23 72L22 72L22 71L21 71L18 71L17 71L17 71L17 71L16 71L16 72L16 72L16 72L15 72L14 71L11 71L11 70L10 69L10 69L10 68L10 68L10 67L9 66L8 65L8 65L9 66L9 66L10 65L10 65L11 64L12 64L11 64L11 64L10 64L9 64L6 63L4 62L4 61L4 61L4 60L4 60L4 60L4 61L6 60L6 59L8 59L8 58L8 58L9 57L10 57L10 56L11 56L12 56L12 56L13 56L13 56L14 56L14 56L12 55L13 55L13 54L14 54L15 53L16 53L17 52L18 52L19 52L21 52L21 52L20 52L20 52L20 52L20 52L20 53L20 54L20 55L20 55L20 56L21 57L23 57L24 57L25 57L25 57L26 57L28 57L28 57L29 55L30 55L30 55L30 56L31 55L31 56L31 55L31 54L29 54L28 54L28 54L28 53L27 51L26 50L26 50L25 50L25 49L26 49L26 48L26 49L27 50L27 50L27 51L28 52L29 53L30 53L31 53L31 53L32 54L33 54L34 54L34 53L34 52L34 52L33 52L32 51L31 51L30 52L29 52L29 51L28 51L28 50L28 49L29 48L28 48L28 47L26 48L26 47L26 47L25 48L24 48L24 48L22 47L21 46L20 45L20 43L19 42L14 37L12 36L11 35L10 35L10 35L9 34L9 34L10 34L9 34L10 34L10 34L10 34L11 32L11 30L11 29L14 29L16 29L16 28L18 28L19 28L20 27L21 26L22 24L23 23L23 23L23 23L23 22L23 21L24 19L26 15L27 14L28 13L28 13L28 13L28 13L28 14L28 14L28 14L27 14L27 15L27 14L28 14L29 14L31 13L33 12L33 11L35 10L35 10L35 10L35 11L35 11L35 13L36 13L36 13L36 13L36 12L36 11L36 11L36 11L38 10L36 10L35 9L35 9L36 7L38 6L38 6L38 6L38 7L38 7L38 7L38 8L38 8L39 8L39 7L40 7L41 7L41 7L43 7L43 6L44 6L45 4L46 4L47 2L48 1L49 0L49 0L49 0L48 1L49 1L51 3L52 3L52 3L52 4L51 5L50 6L50 6L51 7L51 7L52 6L52 6L53 5L54 4L54 4L55 4L55 4L56 5L56 6L55 6L56 7L57 7L58 7L59 6L59 6L60 6L61 6L63 6L63 6L64 6L65 7L65 7L64 8L64 9L64 9L65 9L65 10L65 10L67 10L67 10L67 11L66 11L69 12L69 11L70 11L71 11L72 11L72 11L73 12L73 11L74 11L76 11L76 11L76 11L78 12L79 12L80 13L80 13L80 12L81 12L81 13L82 13L82 14L83 14L85 14L86 14L88 14L89 15L90 15L91 16L92 16L92 16L94 17L95 16L97 16L98 15L98 15L99 15L100 15L100 15L102 16L103 17L103 18L106 19L106 20L107 20L107 20L107 20L108 20L108 20ZM12 55L11 56L11 55L12 55L13 54L13 55L12 55L12 55ZM82 102L81 102L81 102L81 102L81 102L81 101L81 101L82 102L82 102L82 102ZM66 106L66 106L66 105L66 105L66 105L66 105L66 106L66 106ZM83 105L83 105L83 106L83 106L82 106L82 107L82 107L82 107L82 107L82 107L82 107L82 107L82 106L82 106L82 106L82 106L82 105L82 105L82 105L82 105L82 105L83 105L83 105L83 105ZM88 105L88 105L88 105L89 105L89 105L89 106L88 106L88 106L87 106L87 106L87 106L86 106L86 106V105L87 105L87 105L87 105L88 105ZM92 106L92 106L92 106L92 106L92 106L93 106L92 106ZM11 106L12 106L12 106L12 106L13 106L13 106L13 106L13 107L13 107L13 108L13 108L13 108L14 109L14 109L13 109L12 109L12 110L11 110L12 110L11 110L11 110L11 110L11 110L10 110L8 109L8 108L7 108L6 107L7 107L7 107L9 107L9 106L9 106L10 106L10 106L10 106L10 106L11 106L11 106L11 106ZM82 110L82 110L82 110L82 109L82 109L82 109L83 108L84 108L84 107L84 106L85 106L85 106L85 106L85 106L85 107L84 108L84 108L84 109L84 109L84 109L83 109L83 109L83 110L83 110L83 110L83 110L82 110ZM81 108L81 108L80 108L80 108L81 107L82 108L81 108ZM95 110L94 110L95 110L95 109L96 109L96 108L96 109L95 109L95 110ZM32 119L31 119L31 119L31 119L31 119L31 118L32 118L32 118L32 119ZM64 120L64 120L64 120L64 120L64 119L64 119L64 119L65 119L65 119L65 119L64 120L64 120ZM64 121L64 121L65 120L65 120L65 121L66 121L66 121L66 121L66 121L66 121L66 122L66 122L66 122L65 122L65 122L65 122L65 122L65 122L65 122L65 122L65 122L65 122L64 123L64 123L64 123L64 123L64 122L64 122L64 123L63 123L63 123L63 123L63 123L62 124L62 124L61 123L61 123L62 122L62 121L62 121L63 122L63 122L63 121L63 121L63 120L63 120L64 120L64 120L64 121L64 121ZM133 122L134 122L134 122L135 124L136 124L136 125L136 126L136 126L136 126L136 126L136 125L135 125L135 125L135 124L135 124L135 123L135 123L134 123L134 123L134 123L134 124L134 124L135 126L136 126L136 126L136 127L136 128L136 128L136 128L136 128L135 128L134 130L134 130L134 130L133 130L133 130L133 130L133 129L133 129L134 128L134 127L133 127L133 126L133 125L133 124L132 123L132 122L132 122L132 122L132 121L132 121L132 121L133 122L133 122ZM134 122L134 122L134 122L133 122L133 121L133 121L134 121L134 121L134 122ZM129 122L129 122L129 123L129 123L129 123L129 123L129 124L129 124L130 123L130 123L130 123L131 123L132 123L132 123L132 124L132 125L131 125L131 125L131 125L130 125L131 125L132 126L132 126L132 126L132 127L131 127L131 127L130 126L129 126L129 126L129 126L129 127L129 128L128 128L128 127L128 126L126 125L126 124L126 124L126 123L126 123L126 123L126 122L126 122L127 122L127 123L127 122L127 122L128 122L128 122L128 122L129 122L129 122ZM62 125L62 125L63 125L63 125L64 125L64 125L64 125L64 125L64 125L64 125L64 126L64 126L65 126L65 126L65 127L65 127L64 127L64 127L64 127L63 127L62 127L62 127L62 127L62 127L63 127L63 128L63 128L63 128L63 128L63 128L63 128L62 129L62 129L61 129L60 130L60 130L60 130L60 130L59 130L60 130L60 131L60 131L60 131L59 132L58 132L58 132L58 132L58 132L58 132L59 131L59 131L59 131L58 130L58 130L58 130L58 130L58 130L58 130L58 130L58 130L57 130L57 130L57 130L57 130L57 130L57 130L57 130L58 130L58 131L58 131L57 131L57 131L56 130L56 129L56 128L56 128L56 128L56 127L57 126L57 126L58 126L58 126L58 126L58 126L58 127L58 127L58 127L59 128L59 128L59 128L60 128L59 128L59 128L59 126L59 126L59 126L60 126L59 126L59 126L59 125L59 125L59 125L59 124L59 124L59 124L59 124L60 124L60 125L60 126H60L60 125L60 125L61 125L61 125L61 125L61 125L61 125L61 124L61 124L62 124L61 124L62 124L62 124L63 124L62 125ZM61 125L61 125L61 125L61 124L60 124L60 124L60 124L60 124L61 124L61 124L61 125ZM132 128L132 129L132 130L132 130L133 132L133 132L133 133L133 133L133 134L133 134L133 134L133 135L133 136L133 136L133 136L133 136L132 136L132 135L132 134L132 134L132 134L132 134L132 133L132 133L132 133L132 133L132 133L131 133L131 133L131 132L131 132L130 132L130 132L130 132L130 131L130 131L131 130L131 130L131 130L130 130L130 129L130 129L130 129L129 130L129 130L128 131L129 130L129 130L128 129L128 129L129 128L129 128L129 128L129 128L129 128L130 127L130 127L130 127L131 128L131 128L132 128ZM62 130L62 130L62 130L61 130L61 131L61 130L61 130L61 129L62 130L62 130L62 130L62 130L62 130ZM138 131L138 131L138 131L139 131L139 131L139 131L140 132L140 132L140 132L140 133L140 133L139 133L139 133L139 133L139 133L138 132L138 132L138 132L138 132L138 133L138 133L139 133L139 133L139 134L139 134L139 134L139 134L138 134L138 134L138 134L137 134L137 134L137 134L137 134L137 133L137 132L136 132L136 131L136 131L136 131L136 130L136 130L137 130L138 131ZM136 132L136 132L136 132L136 133L136 133L136 134L136 133L136 134L136 134L136 135L136 136L136 136L136 137L136 137L136 137L135 137L135 137L135 137L135 137L134 136L135 135L135 134L135 134L134 134L134 133L134 133L134 132L134 132L134 131L135 131L135 131L136 132L136 132ZM140 134L140 134L140 134L140 134L140 134L140 133L140 133L140 133L140 132L141 133L141 133L141 134L141 134L140 134L140 134ZM58 134L57 134L57 134L57 134L57 133L58 134L58 134L58 134L58 134L58 134L58 134ZM56 135L55 135L55 135L55 135L55 134L55 134L56 134L56 134L56 134L56 134L56 134L56 135ZM143 137L143 138L142 138L142 138L142 138L142 138L142 138L142 138L142 137L142 137L141 137L141 137L140 137L140 136L141 136L141 136L141 135L141 135L142 134L142 134L142 135L143 136L143 137ZM140 136L140 136L140 136L139 135L139 135L139 135L140 135L140 134L140 134L141 135L141 135L141 135L141 135L141 135L141 136L141 136L140 136ZM137 135L138 135L139 135L139 136L139 136L139 136L139 137L139 137L139 137L139 137L140 138L141 138L141 139L141 139L142 140L142 141L142 141L142 141L142 141L142 141L141 140L141 140L141 141L141 141L141 141L141 141L142 141L142 142L142 142L143 142L143 142L142 143L142 143L142 143L143 143L143 143L143 143L143 144L143 145L143 145L143 145L143 145L143 146L143 146L143 146L143 146L143 146L142 146L142 146L142 145L142 145L141 145L141 145L141 145L141 144L141 144L141 144L141 144L141 143L140 144L141 144L140 144L140 144L140 143L139 142L139 142L139 142L139 142L139 142L140 142L139 141L139 141L139 140L139 140L138 140L138 140L138 140L138 140L137 140L137 140L137 139L137 139L137 139L137 139L137 139L138 139L138 139L138 139L138 138L138 138L138 138L138 138L138 137L137 138L137 138L136 138L136 138L137 137L137 137L137 136L137 136L137 136L137 135ZM147 141L147 142L147 143L146 143L146 143L146 143L146 143L145 143L145 142L145 142L145 142L145 142L145 142L145 142L144 143L144 143L144 143L144 142L144 142L144 141L145 140L145 139L146 138L146 138L147 139L147 140L147 140L147 141L147 141ZM52 139L52 139L52 139L52 139L52 139L52 138L52 138L52 138L52 138L52 139ZM138 141L138 141L138 141L138 142L138 142L138 142L137 142L137 142L137 143L137 142L136 141L137 141L137 141L138 141L138 141L138 141ZM32 142L32 142L33 142L33 142L33 142L33 142L33 142L33 143L33 143L33 143L33 143L32 143L32 143L32 143L32 143L32 142L32 142L32 142L32 142L32 142L32 142L32 142L32 142ZM34 142L34 143L33 142L33 142L33 142L34 142L34 142ZM140 145L140 145L140 145L140 145L140 145L141 145L141 145L141 146L141 146L141 146L140 146L140 146L140 146L139 145L139 145L139 145L139 145L138 144L138 143L138 143L138 143L138 143L138 142L138 142L139 143L139 143L139 144L139 144L140 144L140 145ZM36 144L35 144L35 144L35 144L35 144L34 145L34 145L34 144L34 144L34 144L34 144L35 144L35 144L35 143L35 143L35 143L36 143L36 143L36 143L36 143L36 143L36 144ZM146 144L146 145L146 145L146 145L146 145L145 145L145 145L145 144L145 144L145 144L145 144L145 144L145 144L145 143L145 143L145 143L145 143L146 143L146 144ZM37 143L37 144L37 144L37 144L37 144L36 144L36 144L36 144L37 144L37 143L37 143L37 143L37 143L37 143ZM38 145L37 145L37 145L37 144L37 144L37 144L38 144L38 145ZM22 144L22 146L22 146L22 146L23 146L23 146L23 146L23 147L22 146L22 147L21 147L19 147L19 147L19 147L18 148L18 148L18 148L17 148L17 148L16 148L16 148L16 147V147L16 147L17 147L17 146L18 145L18 145L18 145L19 145L19 145L20 144L20 144L21 144L21 144L22 144L22 144ZM26 145L26 146L26 145L26 145L26 145L26 144L26 144L26 145L26 145L26 145L26 145ZM25 148L25 148L24 148L24 148L24 148L25 148L25 148L25 148ZM14 150L14 150L13 150L13 150L13 149L14 149L14 149L14 149L14 150L14 150L14 150L14 150L14 150ZM12 151L12 151L12 151L12 151L12 151L12 151L12 150L12 150L12 150L12 150L12 150L12 150L13 150L13 150L13 150L13 150L12 151ZM10 152L10 152L10 152L10 152L10 151L10 151L11 151L11 152L11 152L10 152L10 153L10 153L10 153L11 153L11 153L11 153L10 153L10 154L9 154L9 154L9 155L8 155L8 155L7 155L7 155L7 155L7 155L6 155L6 156L6 156L6 156L6 156L6 156L5 156L5 155L5 155L6 155L6 155L6 155L7 154L8 154L8 153L8 153L8 153L8 153L9 153L9 153L9 153L9 153L9 153L9 153L8 153L8 152L8 152L8 152L8 152L8 152L8 152L8 152L8 151L8 151L9 151L9 151L9 151L10 151L10 152ZM11 153L11 153L11 153L11 152L11 152L11 152L11 152L12 152L12 152L11 152L11 153L11 153ZM4 155L3 156L3 156L2 157L2 157L2 157L2 157L2 158L1 158L0 158L0 158L0 158L0 158L1 158L1 157L1 157L1 157L1 156L1 156L2 156L2 156L2 156L2 156L3 156L3 156L3 155L3 155L3 155L3 154L3 154L4 154L4 154L4 154L5 154L5 154L5 155L5 155L4 155ZM292 184L293 184L293 184L294 184L294 184L294 184L295 185L295 185L296 185L296 186L296 186H296L296 186L297 186L298 186L298 187L299 187L300 187L300 187L301 187L301 187L302 186L302 186L302 187L302 187L303 187L304 187L305 187L305 187L305 188L306 188L306 188L307 188L307 188L307 188L307 188L306 188L306 188L305 189L305 189L303 190L302 190L302 190L300 192L299 193L297 194L297 195L297 195L297 195L298 195L298 195L298 195L300 195L300 194L301 194L301 194L301 194L301 194L302 194L302 194L302 194L302 194L302 194L302 194L302 194L302 195L302 195L302 195L302 196L302 196L302 195L302 195L302 195L302 195L302 195L303 195L303 196L304 196L304 196L305 195L305 195L306 194L306 194L307 194L308 194L308 194L309 193L309 193L309 193L309 193L310 193L310 193L310 192L311 192L311 192L311 192L311 192L311 193L311 193L311 193L311 193L311 193L311 193L311 194L311 194L311 194L311 194L311 194L311 194L312 194L312 194L312 194L312 194L312 194L313 194L314 194L314 194L314 194L314 194L315 195L315 196L315 196L315 196L316 196L316 196L316 196L317 196L317 196L317 196L317 196L318 196L318 196L318 196L318 196L318 196L318 196L319 196L319 196L320 195L320 195L320 195L321 195L322 195L322 195L323 195L324 195L324 195L325 195L325 195L325 195L325 195L325 196L325 196L324 196L324 196L324 196L325 196L325 196L326 196L326 196L326 196L326 196L326 196L327 196L327 196L327 196L327 196L327 196L327 196L328 197L328 197L328 197L328 197L328 198L328 198L328 198L328 198L328 198L328 198L328 198L328 198L328 198L328 199L329 199L329 199L329 199L329 199L329 199L327 199L327 199L327 199L327 199L327 199L326 199L326 199L326 199L326 199L326 199L326 199L326 199L326 199L326 200L326 200L326 200L326 200L326 200L325 200L325 199L324 199L324 198L323 198L323 198L322 198L322 199L322 199L321 199L321 199L321 199L321 199L321 199L320 199L320 199L320 199L320 200L319 200L319 200L319 200L319 200L318 201L318 201L318 201L318 201L318 201L318 201L318 200L318 200L319 200L319 200L319 200L319 200L318 200L318 200L318 200L318 200L318 200L318 200L317 200L317 201L317 200L317 200V200L317 200L317 199L317 200L317 200L317 200L316 201L316 201L316 201L316 202L315 202L315 203L315 203L315 204L315 204L315 204L314 204L314 204L314 205L314 205L314 205L313 206L313 206L313 206L313 207L313 207L313 207L314 207L314 206L314 206L314 206L314 206L315 205L315 205L315 205L315 205L315 205L316 205L316 206L316 206L316 206L315 206L315 207L315 207L315 208L315 208L315 209L315 209L315 209L314 210L314 210L314 210L314 211L314 211L314 211L314 211L314 212L314 212L314 212L314 213L314 213L314 214L314 214L314 214L314 214L314 214L314 215V215L314 215L314 215L314 215L314 215L314 216L314 216L314 216L314 216L314 217L314 218L314 218L314 219L314 220L314 220L314 220L314 220L315 221L315 222L315 222L315 222L315 222L315 222L315 222L316 222L316 222L316 222L317 222L318 221L318 221L318 221L319 220L319 220L319 219L319 219L320 218L320 218L320 217L320 216L320 216L320 215L320 214L320 214L320 214L319 213L319 212L319 212L319 211L319 211L319 210L319 210L319 210L319 209L319 209L319 208L320 208L320 208L320 207L320 206L320 206L320 206L320 206L320 206L320 206L320 205L321 205L321 205L321 205L321 205L321 205L321 205L322 204L322 204L322 203L322 203L322 203L322 204L322 204L322 204L322 204L322 204L322 205L322 205L322 205L322 206L322 205L322 205L322 205L322 205L322 205L323 205L323 204L323 204L323 205L323 205L322 205L322 206L322 206L323 205L323 205L323 204L323 204L323 203L323 203L323 203L323 203L324 202L324 202L324 202L325 202L325 202L325 202L325 202L324 202L324 202L324 201L324 201L324 201L325 201L325 200L325 200L325 200L325 200L325 200L326 200L326 200L326 200L326 201L327 201L327 201L328 201L328 201L328 201L328 202L328 202L329 202L329 202L329 202L330 202L330 203L331 203L331 203L331 203L331 203L331 204L331 204L331 204L331 204L331 204L331 204L331 204L331 204L331 204L331 204L331 204L331 205L331 205L331 206L331 206L331 206L331 207L331 208L331 208L331 208L331 208L331 208L330 208L330 208L330 209L330 209L330 210L330 210L330 210L330 210L330 210L329 210L329 210L329 210L329 211L329 211L329 211L329 211L329 212L330 212L330 212L330 212L330 211L330 211L331 211L331 211L331 210V210L331 210L331 210L331 210L331 210L331 210L332 210L332 210L332 210L333 210L333 210L333 210L334 210L334 211L334 212L334 214L334 215L335 215L335 215L334 216L334 217L334 217L333 218L333 218L332 219L332 219L332 219L332 219L332 219L332 220L332 220L332 220L332 220L331 220L331 220L331 221L331 221L331 221L331 221L331 221L331 222L331 222L331 222L331 222L331 222L331 222L332 222L332 223L332 223L333 223L333 223L333 222L333 222L333 223L334 223L334 223L332 223L332 223L332 223L333 223L333 223L333 223L334 223L334 223L334 223L334 223L334 223L335 223L335 223L335 223L336 223L336 223L337 223L337 223L338 223L338 222L339 222L341 221L343 220L343 220L343 220L344 220L344 220L345 219L346 218L346 218L347 218L347 217L347 217L348 217L348 216L348 216L348 216L348 216L348 216L348 215L348 215L348 215L348 215L348 215L348 215L348 214L348 214L348 214L349 213L350 213L351 213L352 213L353 213L353 214L354 214L354 214L354 214L355 214L356 214L356 214L356 214L356 214L356 214L356 213L357 213L357 213L357 213L357 213L358 212L358 212L358 212L358 212L359 212L359 212L359 212L359 212L359 212L359 212L359 212L359 211L358 211L358 211L358 211L358 210L358 210L358 210L358 211L359 210L359 210L359 210L359 210L359 210L359 210L359 210L359 210L359 210L359 210L359 209L359 209L358 210L358 210L358 210L358 209L358 209L360 208L360 208L360 207L360 207L360 207L360 207L362 206L363 205L363 205L364 204L364 204L364 204H365L366 204L367 204L369 204L370 204L372 204L374 204L375 204L377 204L377 203L377 203L378 203L378 203L378 203L379 203L379 203L379 203L379 203L379 203L379 203L379 202L380 202L380 202L380 202L380 202L380 202L380 202L380 201L380 201L381 201L381 200L381 200L381 200L381 200L382 199L381 199L381 199L382 198L382 198L382 197L382 196L382 196L382 195L383 194L384 193L384 193L385 192L385 191L385 191L386 191L386 191L386 191L386 192L386 192L386 192L387 192L387 192L387 192L388 192L388 192L389 192L389 192L389 191L389 191L390 192L390 192L391 193L391 194L391 195L391 196L391 196L391 197L391 198L391 199L391 199L391 199L391 200L391 200L391 200L391 200L391 200L391 200L391 200L391 200L391 201L391 201H391L392 201L392 201L392 201L392 201L392 201L392 201L393 201L392 202L392 202L392 202L392 202L392 202L392 202L392 202L392 203L392 203L392 203L392 203L393 203L393 204L393 204L393 204L393 203L393 203L393 203L394 204L394 204L394 204L394 204L394 204L394 205L394 205L394 205L394 205L394 205L393 206L393 206L392 206L392 206L392 207L392 207L391 207L391 207L391 207L391 207L390 207L390 208L390 208L390 208L390 208L390 207L390 207L390 207L389 207L389 207L389 207L389 207L389 207L388 207L388 207L388 208L388 208L388 208L388 208L388 208L388 208L387 208L387 208L388 208L387 207L387 207L387 207L387 207L387 207L387 207L387 207L387 208L387 208L386 209L386 209L386 210L386 210L385 210L385 210L385 210L384 210L384 210L384 210L384 210L384 210L384 210L384 210L384 210L384 211L384 211L383 210L383 210L383 210L383 211L383 211L383 211L383 211L383 211L383 211V211L383 211L382 211L382 211L382 212L382 212L382 212L381 213L381 213L380 214L380 214L380 215L380 215L379 216L380 216L380 217L380 217L380 217L380 217L380 217L380 217L380 217L380 217L380 217L379 218L379 218L379 218L378 219L379 219L379 219L380 219L380 220L380 220L380 220L380 221L381 221L381 222L381 222L382 222L383 221L382 221L382 220L382 220L382 220L382 220L382 220L382 220L382 220L382 220L382 220L383 220L383 221L383 222L383 222L383 222L382 222L381 222L381 222L380 223L380 223L380 222L380 222L380 222L379 223L378 223L378 223L378 223L378 222L378 222L378 222L378 222L378 222L377 222L377 221L377 221L377 222L377 222L377 223L377 224L376 224L375 224L375 224L374 224L373 224L373 224L372 224L371 224L371 224L370 224L369 225L368 226L368 226L368 226L368 226L367 227L367 227L367 226L368 226L368 225L368 225L367 224L367 224L367 225L368 226L367 226L367 227L367 227L367 227L366 227L366 227L366 227L366 228L366 228L367 228L367 228L367 228L367 229L367 229L367 230L367 230L367 231L367 232L367 231L367 230L367 231L367 231L366 232L366 232L366 233L366 233L366 233L366 233L366 234L365 234L365 234L365 234L365 234L365 234L365 234L364 235L364 236L363 236L364 235L364 235L363 234L363 234L363 234L362 234L362 234L361 233L361 233L361 232L361 232L362 232L362 231L363 231L363 231L363 231L363 231L362 231L362 231L362 232L361 232L361 232L361 232L361 233L361 233L361 234L362 234L362 235L362 236L362 236L363 237L363 237L363 237L362 238L363 237L363 238L363 238L363 238L363 238L363 239L363 238L363 238L363 238L363 238L363 239L363 239L362 239L362 240L362 240L361 242L361 242L361 243L361 243L360 243L360 243L360 244L360 244L360 244L359 244L360 243L360 242L360 242L360 241L361 241L360 240L360 240L360 240L360 240L360 240L360 240L360 240L360 239L360 239L360 239L360 239L360 239L360 239L360 239L360 239L359 239L359 239L359 239L359 239L359 239L358 238L358 238L358 237L359 237L359 237H359L359 237L359 237L359 237L359 237L358 237L358 237L358 237L358 236L358 236L359 236L359 236L358 236L358 236L358 236L358 235H358L359 236L359 235L359 235L359 235L358 234L359 234L359 234L360 234L360 234L360 234L359 233L360 233L360 233L360 233L360 233L360 233L359 233L359 233L359 233L359 233L359 233L359 234L359 234L358 233L358 233L358 234L358 234L358 234L358 234L358 234L358 234L358 234L358 234L358 234L357 234L357 234L358 235L358 235L358 235L358 235L357 235L357 235L357 236L358 236L357 236L357 236L357 236L357 237L358 238L358 238L358 238L358 239L358 239L357 238L357 238L357 238L357 238L357 237L357 238L357 238L358 239L358 239L358 240L358 240L358 240L358 240L357 239L356 239L356 238L356 239L356 239L356 239L356 238L356 238L355 238L355 238L355 238L355 238L355 238L355 237L355 237L356 237L355 236L355 237L355 237L355 237L354 237L354 238L354 238L354 239L355 239L355 239L355 239L356 239L357 240L357 240L358 240L358 240L358 241L358 241L358 241L358 242L358 242L358 242L358 242L356 241L356 240L356 240L355 240L355 240L356 240L356 241L357 241L357 242L357 242L358 242L358 242L358 243L358 243L358 243L358 244L358 243L358 244L358 244L358 244L357 244L356 243L356 243L356 243L357 244L358 244L358 244L358 244L358 245L358 245L358 245L358 245L358 245L357 245L357 244L357 244L357 244L356 244L355 244L355 244L355 244L356 244L356 244L356 244L357 244L357 245L357 245L358 246L358 246L358 245L359 246L359 246L360 246L360 246L360 247L360 249L361 250L361 251L361 251L360 250L360 249L360 247L360 247L360 247L360 247L360 247L360 247L359 248L360 248L360 248L360 249L360 249L360 249L360 249L359 249L359 249L359 249L359 249L358 249L358 249L358 249L358 249L358 249L358 250L358 250L357 250L357 250L357 249L357 249L356 249L357 250L357 250L357 250L357 250L358 250L358 250L359 250L359 250L359 250L359 251L359 251L359 251L359 251L360 250L360 250L360 250L360 250L360 251L360 251L360 252L360 252L359 253L359 253L358 253L358 253L358 253L358 253L357 253L357 252L357 252L357 252L357 252L356 253L356 252L355 252L356 252L357 253L357 253L357 253L357 254L357 254L357 254L357 254L356 255L356 255L355 254L356 254L356 255L356 255L358 255L358 255L358 255L357 256L357 256L357 256L357 256L356 256L356 256L355 256L355 256L355 256L354 256L354 256L354 256L354 256L354 257L354 257L354 257L354 257L353 258L353 258L353 258L352 259L352 259L352 260L352 259L352 259L352 258L352 259L352 260L350 260L349 260L348 261L348 261L347 262L347 263L347 262L347 262L347 262L347 262L347 263L347 263L346 264L346 264L346 264L345 264L345 265L345 265L344 265L344 265L344 265L344 266L344 266L343 266L343 266L343 266L343 266L342 266L342 266L342 266L342 266L342 266L342 267L342 267L342 267L342 267L342 267L342 267L341 267L341 267L341 267L341 266L341 267L341 267L341 267L341 267L341 268L341 268L341 268L341 268L341 268L341 268L340 269L340 269L340 269L340 269L340 269L340 269L340 269L340 270L340 270L339 270L339 270L340 270L339 270L339 270L339 270L339 271L339 270L339 270L339 271L339 271L339 271L339 271L339 271L339 272L339 272L339 272L338 272L338 272L338 272L338 272L338 273L338 273L338 274L338 274L338 274L338 274L339 276L339 277L339 278L340 280L340 282L342 284L342 284L342 284L342 284L342 285L342 285L342 286L342 287L342 286L342 285L342 285L342 284L342 284L341 284L341 284L341 285L341 284L341 284L341 284L341 284L341 283L341 283L341 283L341 283L341 283L341 283L341 284L341 284L341 285L341 285L343 290L344 290L344 290L344 291L344 292L344 294L344 295L343 295L343 295L343 295L343 296L343 296L343 297L342 298L342 298L342 298L341 298L341 298L340 298L340 298L340 298L340 298L340 298L340 298L340 298L340 298L340 298L340 298L340 297L339 296L339 296L339 295L338 295L337 295L337 294L337 293L336 293L336 293L337 292L337 292L337 292L336 292L336 292L336 292L336 292L336 292L336 291L336 291L336 291L336 291L336 291L336 291L335 291L335 291L335 291L334 290L334 289L334 288L334 288L334 288L334 288L334 288L335 287L335 287L335 287L334 286L334 287L334 287L334 286L334 286L334 286L334 287L334 287L334 287L334 287L334 287L334 287L333 287L333 287L333 287L333 287L333 285L334 284L334 283L334 283L334 282L333 282L331 280L330 278L328 277L327 277L327 277L327 277L327 278L327 278L327 278L326 278L325 278L325 278L325 278L324 279L324 279L323 279L323 279L323 278V278L323 278L323 278L323 278L324 278L323 278L323 278L322 277L322 277L322 277L322 276L322 276L322 276L322 276L322 276L322 276L322 277L322 277L321 276L320 276L319 276L320 276L320 276L320 275L320 275L320 275L319 275L319 275L319 275L318 276L318 276L317 276L316 276L316 276L316 276L317 275L317 275L317 275L317 275L317 275L316 275L316 275L316 275L316 276L316 276L315 276L315 276L315 276L315 276L315 276L314 276L313 276L313 276L313 276L314 276L314 276L314 276L314 276L313 275L313 275L313 275L313 274L313 274L313 275L313 276L313 276L312 276L312 276L310 276L310 276L310 276L310 276L309 276L308 276L308 276L308 276L308 276L307 277L306 276L305 276L305 276L304 276L304 276L304 277L304 277L305 277L305 277L306 277L306 277L306 277L306 277L307 277L307 277L306 277L306 277L306 277L306 278L307 278L307 278L307 277L307 277L308 277L308 277L308 278L308 278L308 278L308 278L308 278L307 278L307 279L307 279L307 279L307 279L307 279L307 279L306 279L307 279L307 280L307 280L308 280L308 280L309 281L309 281L309 281L309 281L309 281L309 282L309 282L308 282L308 281L308 282L308 282L308 282L308 281L308 281L307 281L307 281L307 280L307 280L306 280L306 280L306 280L306 280L306 280L305 279L305 280L305 280L305 280L305 280L305 280L305 280L305 281L305 281L305 281L304 281L304 281L304 281L304 280L303 280L303 281L303 281L302 281L302 281L300 280L300 280L301 280L301 280L301 280L300 280L300 280L300 279L300 279L300 280L300 279L299 279L299 278L298 278L298 278L298 278L297 278L297 279L297 279L297 279L297 279L297 279L295 279L295 279L294 279L293 278L293 278L292 278L291 278L291 278L291 279L290 278L290 278L290 278L291 278L291 278L291 278L291 278L290 277L290 278L290 279L290 279L290 279L288 280L287 280L287 280L288 279L288 279L287 279L287 279L287 279L287 278L287 278L286 279L286 279L286 279L286 279L286 279L286 280L286 280L286 281L286 281L286 281L285 282L285 282L284 283L283 283L283 283L282 284L282 284L281 284L282 284L282 283L282 283L281 283L281 283L281 283L280 284L280 283L280 283L280 283L280 283L280 283L280 284L280 284L281 284L280 284L280 284L280 285L279 284L279 285L279 285L279 285L279 285L279 285L279 285L278 285L278 285L278 285L278 286L278 286L278 286L278 286L278 286L278 287L277 287L277 287L277 287L277 287L277 288L277 289L277 289L276 289L276 289L276 289L275 288L276 289L276 289L276 290L276 290L276 290L276 291L276 291L276 292L276 292L277 293L277 293L278 294L278 294L278 295L278 295L277 295L277 295L277 295L277 295L277 295L277 295L276 295L275 294L274 294L273 294L273 294L273 294L272 294L272 294L272 293L271 293L270 293L270 293L270 292L270 292L270 292L269 291L269 290L269 290L269 290L269 290L269 289L269 289L269 289L269 289L269 288L269 288L268 288L268 287L267 287L267 286L266 285L266 285L266 285L265 284L265 284L266 284L265 283L265 282L264 282L264 282L264 281L263 280L263 280L263 280L262 279L261 278L261 278L261 278L261 278L261 278L261 278L260 278L260 278L259 278L258 278L258 278L258 278L258 278L257 278L257 278L256 279L256 280L256 280L256 281L256 281L255 281L255 281L255 282L254 282L254 282L254 282L253 281L252 280L251 280L251 280L250 280L250 279L250 279L249 279L249 278L249 277V277L248 275L248 275L248 274L247 274L246 274L246 273L244 272L244 271L243 271L243 270L242 270L242 270L242 270L242 270L241 269L240 269L239 269L238 269L238 269L237 269L236 269L235 269L235 270L235 270L235 271L235 271L234 271L232 271L231 271L230 272L228 272L227 272L226 272L224 272L222 271L220 270L219 270L217 269L215 268L213 268L211 267L210 266L210 266L210 265L209 265L208 265L207 265L206 266L205 266L204 266L203 266L202 266L201 266L201 266L201 266L200 265L200 265L200 265L200 264L200 264L200 263L199 262L198 261L197 261L197 261L197 260L196 260L196 261L196 260L196 260L195 259L195 259L194 259L193 259L192 258L192 258L192 258L191 257L191 257L190 257L189 257L189 257L188 257L188 257L187 257L187 257L187 256L187 256L187 256L187 255L187 254L187 254L187 254L186 254L186 253L186 253L186 253L186 252L185 252L185 252L184 251L184 251L184 250L183 249L182 248L182 248L182 247L182 247L183 246L183 246L182 246L182 246L181 245L180 244L180 243L180 242L180 242L180 241L180 241L180 241L180 242L180 242L181 242L181 242L181 243L181 243L182 243L181 243L181 242L181 242L181 242L181 241L180 241L180 241L180 240L181 240L181 240L182 240L183 240L183 240L184 240L184 240L183 240L183 240L183 240L182 240L182 240L182 240L182 240L181 240L181 240L180 240L180 240L180 240L180 241L180 241L180 241L180 241L179 241L179 241L178 240L178 240L178 240L178 240L178 240L178 239L178 240L178 239L178 239L178 239L178 238L177 238L176 237L175 236L175 235L175 234L175 233L175 232L175 232L174 231L174 230L173 229L173 229L173 228L173 228L173 227L173 227L173 227L173 227L173 227L173 227L173 227L173 227L173 226L173 226L174 226L174 225L174 224L174 223L174 222L174 222L173 221L173 221L173 220L173 220L172 219L172 218L172 217L172 217L172 216L172 215L172 215L173 213L173 213L173 213L173 213L173 213L173 213L173 212L173 212L174 211L174 210L174 208L174 208L174 207L174 206L174 206L174 202L174 202L174 201L174 200L174 198L174 198L174 198L174 198L174 198L175 198L176 198L176 198L176 198L177 198L177 198L177 198L177 198L176 198L176 197L175 198L175 197L174 198L174 197L174 197L174 197L174 196L174 196L174 196L174 196L174 196L174 195L174 195L174 195L174 194L175 194L174 194L174 193L174 193L174 193L174 194L174 193L173 193L173 192L173 191L173 190L172 189L172 188L172 188L171 187L172 186L171 186L172 186L172 186L173 186L174 186L174 187L177 187L177 187L177 187L178 187L178 187L178 187L178 187L178 187L179 187L179 187L179 187L179 188L179 188L179 188L179 189L179 189L179 189L179 189L178 190L177 191L177 191L177 191L178 191L178 191L178 191L178 191L178 191L178 191L178 191L178 191L178 190L178 190L179 190L179 189L179 189L180 189L180 188L180 188L180 188L180 188L180 189L180 189L179 189L179 189L179 190L179 190L179 190L179 190L180 190L180 191L180 191L180 192L180 192L179 192L179 192L179 192L179 192L179 192L179 192L179 192L178 192L178 192L178 192L178 193L178 193L179 193L179 193L179 193L179 193L180 192L180 192L180 192L180 192L180 192L180 191L180 191L180 190L180 190L180 190L180 190L180 190L180 189L180 189L180 189L180 189L180 188L181 188L181 188L181 188L181 187L180 187L180 187L180 187L180 187L180 187L180 187L180 187L180 187L180 186L180 186L180 186L180 186L180 186L180 186L180 185L180 185L179 185L179 185L179 185L179 185L179 185L180 185L180 185L180 185L180 184L180 184L180 183L180 183L180 183L180 183L179 183L179 183L179 183L179 182H179H181H182H184H186H187H189H191H192H194H196H197H199H201H202H204H206H207H209H210H212H214H215H217H219H220H222H224H225H227H228H230H232H234H235H237H238H240H242H243H245H247H248H250H252H253H255H256H258H260H262H263H265H266H268H270H271H273H275H276H278H280H281H283H284L285 182L285 181L285 180L286 180L286 180L287 180L287 180L287 181L287 182L287 183L287 183L287 183L287 183L288 183L288 184L290 184L290 184L291 184L291 185L292 185L292 184L292 184ZM179 184L179 184L179 184L179 184L178 184L178 184L178 184L178 184L178 184L178 184L178 184L178 184L178 184L179 184ZM178 185L178 185L178 185L177 185L177 185L177 184L177 184L178 184L178 185L178 185ZM179 185L179 185L178 185L178 185L178 185L178 185L178 184L178 184L178 185L179 185L179 185ZM180 187L180 188L180 187L180 188V188L180 188L180 188L180 188L180 188L180 188L180 188L180 188L180 187L180 187L179 187L179 187L179 187L179 186L179 186L179 186L179 186L179 186L180 186L180 186L180 186L180 186L179 186L179 186L179 186L180 186L180 187ZM309 188L309 188L310 188L310 188L309 188L309 189L309 189L308 188L308 188L309 188V188H308L308 188L309 188L310 187L311 187L311 187L311 187L311 187L311 187L311 187L311 188L310 188L309 188ZM180 190L180 190L180 190L180 190L180 190L180 189L180 189L180 190L180 190L180 190ZM180 191L180 191L180 191L180 191L180 191L180 191L180 191L180 191L180 191L180 191L180 191L180 191ZM312 192L312 192L312 192L312 193L312 193L311 193L311 193V193L311 193L312 193L312 192L312 192L311 192L311 193L311 193L311 193L311 193L311 192L311 192L311 192L312 191L312 191L313 191L313 191H314L314 191L314 191L314 191L313 191L313 191L313 191L313 191L313 192L312 192ZM178 192L178 192L178 192L178 192L178 192L178 192L178 192L178 192ZM304 193L304 193L304 193L304 193L304 193L304 193L304 193L304 193L304 193ZM303 194L303 194L302 194L302 194L302 194L302 194L303 194L303 194ZM303 194L303 194L303 194L303 194L303 194L303 194L303 194L303 194ZM303 195L302 195L302 195L302 195L302 194L303 194L303 194L303 194L303 194L303 194L303 194L303 195ZM328 197V197L328 197L328 197L328 197L328 196L328 196L328 196L328 196L328 196L328 196L328 196L328 197L328 197ZM328 198L328 198L328 197L328 197L328 197L328 197L328 197L328 197L328 198L328 198ZM330 199L330 199L330 199L330 199L330 199L329 199L329 199L329 199L329 199L329 199L329 199L329 199L330 199L330 199L330 199L330 198L330 198L330 198L330 198L330 199L330 199ZM326 200L327 200L327 200L327 200L327 200L327 200L327 200L327 200L327 200L326 200L326 200ZM322 201L322 201L322 201L322 201L322 200L323 200L323 200L323 200L323 201L323 201L322 201ZM318 202L317 203L317 202L317 202L317 202L317 202L317 202L318 202L318 202L318 202ZM317 203L317 203L317 203L317 203L317 204L317 204L317 204L317 204L317 204L317 204L317 204L317 204L316 204L316 204L316 204L316 205L316 205L316 205L316 205L316 205L316 205L316 205L315 205L315 205L315 205L316 204L316 204L316 204L316 204L316 203L316 203L317 203L317 203L317 203L317 203L317 203ZM321 204L321 204L321 204L321 204L321 204L321 204L321 204L321 204L321 204ZM390 208L389 208L389 208L389 208L389 208L389 208L389 208L389 208L389 208L389 207L389 208L390 208L390 208ZM359 208L359 208L359 208L359 208L359 208H359L359 208L359 208ZM388 209L388 209L388 209L388 209L388 208L388 208L388 208L388 209ZM358 210L358 210L358 210L358 210L358 210L358 210L358 210ZM348 215L348 215L348 215L348 215L348 215L348 215L348 215L348 215L348 215L348 215ZM378 223L378 223L377 223L378 223L378 223L378 222L378 222L378 222L378 223ZM377 223L377 223L377 223L377 222L377 222L377 223L377 223ZM381 224L380 224L379 224L380 224L380 223L380 223L380 223L381 224ZM383 224L382 224L382 224L382 224L382 224L382 224L382 223L383 224L383 224ZM373 226L373 226L373 226L373 226L373 226L374 225L374 225L374 225L374 225L375 225L375 225L374 226L373 226L373 226L372 226L372 226L370 227L370 227L370 227L369 227L368 228L368 228L368 227L368 227L368 227L368 227L367 227L367 228L367 227L367 227L367 227L368 226L368 226L368 226L368 226L368 226L369 226L369 226L369 226L369 226L369 226L370 226L370 226L370 226L371 226L371 226L372 226L372 226L373 225L373 225L374 225L373 225L373 226ZM366 228L366 228L366 227L367 227L367 227L367 227L367 228L367 228L366 228ZM367 232L366 233L366 233L367 232L367 232ZM362 241L362 241L362 240L363 239L363 239L363 239L362 240L362 241ZM361 251L361 251L360 250L361 250L361 250L361 251ZM361 254L361 254L361 254L361 253L361 252L361 252L361 251L361 251L361 251L362 252L362 252L361 253L361 254ZM360 254L360 254L360 254L360 254L360 254ZM358 256L357 256L358 256L358 255L359 255L358 256L358 256ZM357 256L357 256L357 256L357 256L357 256L357 256L357 256ZM190 259L191 259L191 259L191 259L191 259L190 259L190 259L190 259L190 259L190 259ZM188 259L188 259L188 259L188 259L188 259L188 259L188 259ZM189 260L189 260L189 260L189 259L189 259L190 259L190 259L189 260ZM196 262L196 262L196 262L196 262L195 262L195 262L195 262L195 262L195 262L195 262L195 262L196 262L196 262ZM192 263L192 263L191 263L191 263L191 263L192 263L192 263L192 263ZM196 265L196 265L195 265L195 264L195 264L195 264L195 264L196 265L196 265ZM338 273L338 274L338 274L338 273L338 273L338 273ZM313 276L312 276L312 276L312 276L312 276L313 276L313 276ZM311 276L311 276L310 276L310 276L310 276L311 276L311 276ZM308 277L308 277L308 277L308 277L308 277L308 277L308 277L308 277L308 277L308 277ZM310 278L310 278L310 278L310 277L310 277L310 278L310 278ZM310 279L309 279L309 279L310 278L310 278L310 279ZM325 279L325 279L324 279L324 279L325 279L325 279L325 279L326 278L325 279ZM298 280L298 280L298 279L298 279L298 279L298 279L298 279L298 279L299 279L299 279L298 280ZM286 281L286 281L286 280L287 280L287 280L287 281L286 281ZM279 286L279 286L279 285L280 285L280 285L280 285L281 284L281 284L281 285L280 285L279 286ZM278 286L278 287L278 286L278 286L279 286L279 286L279 286L279 286L278 286ZM343 289L343 290L343 289L342 288L342 287L342 287L343 288L343 289ZM277 289L277 289L277 289L277 288L278 287L278 287L277 288L277 289ZM278 294L278 294L277 293L277 291L277 290L277 290L277 291L278 293L278 294ZM336 292L336 293L336 292L336 292L336 292L336 292ZM336 293L336 293L336 293L336 293L336 292L336 293L336 293L336 293ZM342 298L342 299L342 299L342 298L342 298L342 298L343 298L343 298L343 298L343 298L342 298ZM342 299L341 299L342 299L342 299L342 299ZM341 300H341L341 300L341 300L341 300L341 300L341 300ZM340 300L340 300L340 300L340 300L340 300L340 300L340 300ZM339 300L339 300L339 300V300L338 300L338 300L339 300L339 300L339 300ZM338 301L338 301L338 300L338 300L338 300L338 301L338 301ZM337 301L337 301L337 301L337 301L337 301L337 301L337 301ZM38 312L37 312L37 312L37 312L36 312L36 312L36 311L36 311L37 311L38 311L38 311L38 311L38 311L38 312L38 312ZM34 312L34 312L34 312L34 312L34 312L34 312L35 311L35 312L35 312L35 312L34 312L34 312ZM44 314L44 314L44 314L44 314L44 314L44 314L44 314L44 314L43 314L43 314L43 314L43 314L43 314L43 314L43 314L42 314L42 314L42 314L42 314L42 313L42 313L42 313L43 313L43 313L43 313L43 314L44 314L44 314ZM46 315L47 315L47 315L47 315L48 315L48 315L48 315L47 315L47 315L46 315L46 315L46 315L46 315L46 315ZM49 316L49 316L49 316L50 316L50 316L50 316L50 316L51 317L50 317L50 317L50 317L49 317L49 317L49 317L49 317L49 316L48 316L48 316L48 316L48 316L48 316L48 316L48 316L49 316ZM47 316L47 317L47 317L47 316L46 316L47 316L47 316L47 316L47 316L47 316ZM52 324L52 324L52 324L51 324L51 323L51 322L51 321L50 321L51 320L51 320L51 320L51 319L51 319L51 319L52 319L54 320L54 320L54 321L54 321L55 321L55 321L55 322L55 322L54 322L53 323L52 323L52 324Z" fill="var(--fill-0,#71B219)" stroke="var(--stroke-0,white)" mask="url(#path-1-inside-1_0_139)"/></g></svg>