<svg preserveAspectRatio="none" width="100%" height="100%" overflow="visible" style="display: block;" viewBox="0 0 20 22" fill="none" xmlns="http://www.w3.org/2000/svg"><g id="UY"><mask id="path-1-inside-1_0_259" fill="white"><path d="M20 16L19 17L19 17L19 18L18 19L18 19L17 20L16 21L16 21L16 21L14 22L13 22L12 22L12 21L11 21L10 21L9 22L9 22L8 22L8 22L8 21L6 21L5 20L4 20L2 20L2 20L2 19L2 19L1 18L0 17L0 16L0 15L0 14L0 14L1 14L1 14L1 13L1 13L1 12L1 12L1 11L1 11L1 10L1 10L1 9L1 9L1 9L1 8L1 8L1 8L1 8L2 8L2 7L2 7L2 7L2 6L2 6L2 6L2 5L2 5L2 4L2 4L2 4L2 4L2 4L2 3L2 3L2 2L2 2L3 1L3 1L3 1L3 0L3 1L4 1L5 1L5 1L5 0L5 0L6 0L6 0L7 0L8 2L9 2L9 3L9 3L9 3L9 4L9 4L9 4L10 4L10 4L10 4L10 4L10 4L11 4L11 4L11 3L11 3L11 3L12 4L12 4L12 4L12 5L12 5L12 5L13 5L13 5L13 5L14 6L15 6L15 6L15 7L16 7L16 8L17 8L17 8L17 8L18 8L18 9L18 9L18 9L18 9L18 10L19 10L19 11L20 11L20 11L20 12L20 12L20 12L20 13L20 13L19 13L19 14L19 14L19 15L19 16L19 16L19 16L19 16L20 16L20 16Z"/></mask><path d="M20 16L19 17L19 17L19 18L18 19L18 19L17 20L16 21L16 21L16 21L14 22L13 22L12 22L12 21L11 21L10 21L9 22L9 22L8 22L8 22L8 21L6 21L5 20L4 20L2 20L2 20L2 19L2 19L1 18L0 17L0 16L0 15L0 14L0 14L1 14L1 14L1 13L1 13L1 12L1 12L1 11L1 11L1 10L1 10L1 9L1 9L1 9L1 8L1 8L1 8L1 8L2 8L2 7L2 7L2 7L2 6L2 6L2 6L2 5L2 5L2 4L2 4L2 4L2 4L2 4L2 3L2 3L2 2L2 2L3 1L3 1L3 1L3 0L3 1L4 1L5 1L5 1L5 0L5 0L6 0L6 0L7 0L8 2L9 2L9 3L9 3L9 3L9 4L9 4L9 4L10 4L10 4L10 4L10 4L10 4L11 4L11 4L11 3L11 3L11 3L12 4L12 4L12 4L12 5L12 5L12 5L13 5L13 5L13 5L14 6L15 6L15 6L15 7L16 7L16 8L17 8L17 8L17 8L18 8L18 9L18 9L18 9L18 9L18 10L19 10L19 11L20 11L20 11L20 12L20 12L20 12L20 13L20 13L19 13L19 14L19 14L19 15L19 16L19 16L19 16L19 16L20 16L20 16Z" fill="var(--fill-0,#71B219)" stroke="var(--stroke-0,white)" mask="url(#path-1-inside-1_0_259)"/></g></svg>