<svg preserveAspectRatio="none" width="100%" height="100%" overflow="visible" style="display: block;" viewBox="0 0 20.5116 21.9645" fill="none" xmlns="http://www.w3.org/2000/svg">
<g id="UY">
<mask id="path-1-inside-1_0_259" fill="white">
<path d="M19.5651 16.4394L19.3753 16.6108L19.1717 16.9332L18.9323 17.7109L18.1275 18.7835L17.9638 19.3912L17.0957 20.0263L16.4836 20.7423L16.0846 20.7245L15.7242 21.0318L13.651 21.9645L12.9068 21.7889L12.3551 21.7916L11.8434 21.3801L10.6754 21.232L9.94216 21.3966L8.95855 21.8492L8.66139 21.8424L8.44816 21.8177L7.91574 21.6298L7.62547 21.2306L6.11085 20.7697L4.89335 19.7259L3.45439 19.7053L2.35108 19.8425L2.1805 19.704L2.06904 19.4378L1.84069 19.051L0.891463 18.1334L0.145848 17.2253L0 16.3337L0.103194 15.3668L0.327424 14.2242L0.28754 13.8675L0.564039 13.6659L0.83508 13.6247L1.09781 13.3298L1.33308 12.8854L1.37296 12.5493L1.19135 11.9266L1.06481 11.0597L0.914848 10.6276L1.21612 9.94868L1.2285 9.61807L1.05515 9.32731L1.00839 9.02968L1.08681 8.72377L1.0717 8.43159L0.961617 8.15037L1.04415 7.91721L1.3207 7.73203L1.52843 7.45089L1.66462 7.07089L1.73477 6.78147L1.7375 6.58121L1.65358 6.39335L1.483 6.21636L1.56281 5.86524L1.89023 5.33848L2.10347 4.87216L2.19839 4.46612L2.19289 4.13693L2.0842 3.88862L2.12958 3.71992L2.33181 3.63076L2.42262 3.36738L2.39235 2.71311L2.18323 2.17546L2.34281 1.74882L2.79954 1.25647L3.03893 0.860054L3.0582 0.558244L3.20123 0.384023L3.42 0.71053L4.06931 0.796929L4.72416 0.807896L4.83008 0.7256L5.08731 0.192053L5.42573 0.0397669L5.79443 0L6.1975 0.0273764L6.62674 0.37992L7.84147 1.53626L8.73293 2.34139L9.00393 2.7214L9.24055 3.00663L9.41662 3.27143L9.34097 3.96271L9.35335 4.26586L9.39462 4.35226L9.59824 4.36046L9.90089 4.30973L10.1554 4.16297L10.3535 3.94077L10.5475 3.75969L10.7057 3.66366L10.762 3.5169L10.8529 3.3647L10.945 3.33171L11.1211 3.44423L11.538 3.83931L11.8599 4.2055L11.9397 4.41396L12.0635 4.63213L12.1969 4.82276L12.2905 5.00929L12.6027 5.25074L12.9219 5.40436L13.1351 5.24664L13.6758 5.75138L14.8657 6.17249L15.0845 6.42759L15.2909 6.7911L15.7063 7.34114L16.2827 7.83768L16.7463 8.04757L17.1921 8.16687L17.4411 8.27662L17.6116 8.46725L17.8827 8.67161L18.0546 8.74847L18.1124 8.93223L18.2885 9.33417L18.4728 9.84302L18.6723 10.3163L19.1056 10.7716L19.5954 11.1255L20.103 11.3258L20.3878 11.5754L20.5116 11.8334L20.1691 12.2174L19.7976 12.7016L19.4702 13.0816L19.1318 13.3476L19.019 13.5315L18.9433 13.8154L18.9474 15.327L18.9199 15.8907L18.9433 16.0402L18.9928 16.1403L19.2061 16.2913L19.4606 16.4175L19.5651 16.4394Z"/>
</mask>
<path d="M19.5651 16.4394L19.3753 16.6108L19.1717 16.9332L18.9323 17.7109L18.1275 18.7835L17.9638 19.3912L17.0957 20.0263L16.4836 20.7423L16.0846 20.7245L15.7242 21.0318L13.651 21.9645L12.9068 21.7889L12.3551 21.7916L11.8434 21.3801L10.6754 21.232L9.94216 21.3966L8.95855 21.8492L8.66139 21.8424L8.44816 21.8177L7.91574 21.6298L7.62547 21.2306L6.11085 20.7697L4.89335 19.7259L3.45439 19.7053L2.35108 19.8425L2.1805 19.704L2.06904 19.4378L1.84069 19.051L0.891463 18.1334L0.145848 17.2253L0 16.3337L0.103194 15.3668L0.327424 14.2242L0.28754 13.8675L0.564039 13.6659L0.83508 13.6247L1.09781 13.3298L1.33308 12.8854L1.37296 12.5493L1.19135 11.9266L1.06481 11.0597L0.914848 10.6276L1.21612 9.94868L1.2285 9.61807L1.05515 9.32731L1.00839 9.02968L1.08681 8.72377L1.0717 8.43159L0.961617 8.15037L1.04415 7.91721L1.3207 7.73203L1.52843 7.45089L1.66462 7.07089L1.73477 6.78147L1.7375 6.58121L1.65358 6.39335L1.483 6.21636L1.56281 5.86524L1.89023 5.33848L2.10347 4.87216L2.19839 4.46612L2.19289 4.13693L2.0842 3.88862L2.12958 3.71992L2.33181 3.63076L2.42262 3.36738L2.39235 2.71311L2.18323 2.17546L2.34281 1.74882L2.79954 1.25647L3.03893 0.860054L3.0582 0.558244L3.20123 0.384023L3.42 0.71053L4.06931 0.796929L4.72416 0.807896L4.83008 0.7256L5.08731 0.192053L5.42573 0.0397669L5.79443 0L6.1975 0.0273764L6.62674 0.37992L7.84147 1.53626L8.73293 2.34139L9.00393 2.7214L9.24055 3.00663L9.41662 3.27143L9.34097 3.96271L9.35335 4.26586L9.39462 4.35226L9.59824 4.36046L9.90089 4.30973L10.1554 4.16297L10.3535 3.94077L10.5475 3.75969L10.7057 3.66366L10.762 3.5169L10.8529 3.3647L10.945 3.33171L11.1211 3.44423L11.538 3.83931L11.8599 4.2055L11.9397 4.41396L12.0635 4.63213L12.1969 4.82276L12.2905 5.00929L12.6027 5.25074L12.9219 5.40436L13.1351 5.24664L13.6758 5.75138L14.8657 6.17249L15.0845 6.42759L15.2909 6.7911L15.7063 7.34114L16.2827 7.83768L16.7463 8.04757L17.1921 8.16687L17.4411 8.27662L17.6116 8.46725L17.8827 8.67161L18.0546 8.74847L18.1124 8.93223L18.2885 9.33417L18.4728 9.84302L18.6723 10.3163L19.1056 10.7716L19.5954 11.1255L20.103 11.3258L20.3878 11.5754L20.5116 11.8334L20.1691 12.2174L19.7976 12.7016L19.4702 13.0816L19.1318 13.3476L19.019 13.5315L18.9433 13.8154L18.9474 15.327L18.9199 15.8907L18.9433 16.0402L18.9928 16.1403L19.2061 16.2913L19.4606 16.4175L19.5651 16.4394Z" fill="var(--fill-0, #71B219)" stroke="var(--stroke-0, white)" mask="url(#path-1-inside-1_0_259)"/>
</g>
</svg>
