<svg preserveAspectRatio="none" width="100%" height="100%" overflow="visible" style="display: block;" viewBox="0 0 66.2727 42.9413" fill="none" xmlns="http://www.w3.org/2000/svg">
<g id="UZ">
<mask id="path-1-inside-1_0_18" fill="white">
<path d="M57.8135 17.6204L57.9387 17.5285L58.1588 17.4352L58.522 17.6149L58.8398 17.8413L58.9169 17.9455L58.9017 18.0662L58.1437 18.5065L57.6732 18.7123L57.4654 18.7493L57.4091 18.8069L57.2605 19.3076L56.9689 19.3967L56.5946 19.549L56.3332 19.7794L55.9164 20.3226L54.8571 21.1113L54.842 21.2718L54.9342 21.4021L55.2781 21.4926L55.7321 21.734L55.9783 21.9233L56.651 21.6792L56.8175 21.7327L56.9936 21.9851L57.1794 22.6901L57.4806 22.8821L57.8754 23.0289L58.1203 23.0769L58.4463 23.2497L58.8811 23.3142L59.1727 23.2511L59.5373 23.3993L59.5964 23.3348L59.6446 22.2841L59.95 22.4596L60.126 22.4569L60.2801 22.328L60.3599 22.1538L60.4122 21.8067L60.3448 21.4597L60.481 21.3006L60.5869 21.265L60.6654 21.3074L60.7121 21.3966L60.7259 21.7107L60.946 21.8438L61.0808 21.9206L61.2087 22.1867L61.3339 22.4405L61.4137 23.0344L61.7232 23.0755L62.0864 23.1894L62.3299 23.0783L62.5184 23.1441L62.583 23.4253L62.5817 23.6873L62.6092 23.8958L62.7068 23.9548L63.0233 23.8245L63.2888 23.8066L63.5336 23.9315L63.8377 24.1208L64.2792 24.6173L64.4251 24.6886L65.0909 24.727L65.2299 24.8285H65.4582L65.7059 24.7394L66.2548 24.8999L66.2727 24.9904L66.1805 25.1152L64.8722 25.801L64.7759 26.0123L64.5091 26.2797L64.2174 26.432L64.0757 26.4375L63.436 26.1659L63.3617 26.2317L63.3094 26.3415L63.3121 26.4608L63.4525 26.7461L63.3879 26.9258L63.2654 27.0561L62.8651 26.9422L62.7908 26.8696L62.7825 26.79H62.6285L62.3904 26.8696L61.9323 27.362L61.7728 27.6199L61.7136 27.7748L61.51 27.8627L61.2885 27.8956L61.0024 28.1274L60.6915 28.307L60.5924 28.1754L60.5318 28.0286L60.4493 27.982L60.2581 28.0163L60.027 28.0218L59.7835 27.8558L59.4685 27.6884L59.1934 27.6295L58.3817 27.7077L57.98 27.7899L57.8534 27.8709L57.6278 27.8928L56.6772 28.0615L56.4832 27.9957L56.3401 27.7296L56.2149 27.4415L55.9687 27.3373L55.6922 27.2564L55.589 27.1412L55.5822 27.0012L55.611 26.8641L55.633 26.7928L56.2741 26.2413L56.8519 25.7448L56.9055 25.705L56.9579 25.6104L57.0555 25.4389V25.3498L56.6235 25.1522L56.607 25.0617L56.6937 24.9684V24.8436L56.3883 24.4787L55.86 23.9095L55.7074 23.8505L55.5945 23.8876L55.3882 24.4376L55.285 24.5775L54.6825 24.9382L54.1789 25.1865L53.282 25.6268L53.0481 25.7654L52.8858 25.7407L52.7235 25.6543L52.2199 25.2085L51.8953 25.0562L51.6766 25.2071L51.4922 25.4266L51.5101 25.8778L51.3023 26.1151L51.0946 26.2221L51.473 27.4278L51.4358 27.5828L51.1469 27.6254L51.3588 28.078L51.1799 28.1301L50.7246 28.0245L50.1124 27.9545L48.9568 28.1548L48.8715 28.233L48.8399 28.3331L48.9073 28.4237L49.4672 28.4333L50.0147 28.388L50.166 28.4717L50.1894 28.6198L50.1262 28.7131L49.9432 28.7295L49.5428 28.8187L49.4974 28.9133L49.4836 29.0039L49.6198 29.2658L49.7712 29.4332L49.7905 29.5319L49.7271 29.6156L49.6502 29.6486L49.5153 29.5251L49.4383 29.5498L49.4011 29.6623L49.364 29.7939L49.2759 29.89L49.0888 29.8392L48.9031 29.8762L48.7931 30.3536L48.6996 30.894L48.3941 31.2534L48.2249 31.3837L47.976 31.4221L47.6058 31.3782L47.3817 31.3247L46.7323 31.2452L46.0816 31.0984L45.3498 30.9613L44.6687 31.2781L44.4721 31.4715L44.3469 31.6526L44.2189 31.7362L43.9231 32.8445L43.9534 32.9707L44.1171 33.0695L44.9522 33.2985L45.0746 33.3932L45.1475 33.5016L45.1833 33.9981L45.252 34.0667L45.5382 34.1284L45.9523 34.1243L46.2769 34.0749L46.603 34.1202L46.8313 34.2272L46.9428 34.3959L47.0047 34.5783L46.6167 35.6661L46.6484 36.0611L46.768 36.6262L46.9882 37.0692L47.4022 37.5013L47.7173 37.7784L47.7833 37.9087L47.7998 38.1103L47.7489 38.3682L47.5674 38.777L47.3445 39.1336L47.1037 39.2845L46.7695 39.7371L46.4736 40.2927L45.9055 41.0196L45.7143 41.4243L45.651 42.5916L45.5011 42.9413L45.4776 42.8083L45.2727 42.6752L44.915 42.6986L44.6798 42.6355L44.567 42.486L44.2753 42.5285L43.8048 42.7603L43.3247 42.6369L42.8363 42.1568L41.905 41.9812L40.726 42.0909L40.682 41.5587L40.6847 40.8797L40.7384 39.9758L41.1401 39.2653L41.1277 39.1295L41.0493 38.9992L40.9269 38.8826L40.2129 38.6865L40.0038 38.5836L39.7273 38.3586L39.3779 38.1227L39.0738 37.9595L38.5964 37.7441L38.1563 37.6248L37.8976 37.7153L37.6596 37.8305L37.4368 37.8333L37.2139 37.7702L36.3884 37.2311L35.1421 36.2984L34.1544 35.6455L33.5339 35.3327L33.3867 35.2326L33.0386 34.9391L32.1829 34.1462L31.6148 34.2628L30.8031 33.7471L30.0741 33.2423L29.909 33.1052L29.0794 32.1697L28.2513 31.562L27.3488 30.8981L26.7655 30.4812L25.7764 29.7734L25.2921 29.3454L25.1284 29.1877L24.9689 28.8845L24.7102 27.399L24.413 26.7159L23.9893 26.3442L23.6289 25.6268L23.329 24.561L23.0814 23.867L22.8847 23.546L22.4884 23.1908L21.8872 22.8012L21.3177 22.616L21.1127 22.6229L21.011 22.6709L20.8954 22.7367L20.6698 23.0275L20.3369 23.0577L20.092 23.0509L19.8637 22.9466L19.1427 22.8547L18.8869 22.7532L18.4536 22.7683L17.5222 22.9192L17.2952 22.8917L16.3116 22.2415L15.8838 21.9837L15.7985 21.841L15.8026 21.5914L15.947 21.2375L16.0709 20.9865L16.0159 20.7259L15.8287 20.4406V20.1361L15.9567 19.966L16.2181 20.0195L16.3116 19.9125L16.2786 19.7506L16.1369 19.6354L15.9484 19.3762L15.3912 19.1347L15.3115 19.036L15.3404 18.9235L15.4367 18.8028L15.4559 18.5477L15.4656 18.2185L15.5399 18.047L15.5604 17.9126L15.4793 17.8042L15.2908 17.678L14.9895 17.3722L14.6195 17.3392L13.4158 17.3502L13.043 17.2268L12.743 17.0553L12.4431 16.4024L12.2918 16.2474L12.1501 16.1829L11.813 16.161L11.4072 16.0979L11.1995 15.9868L10.6327 15.3887L10.088 14.8538L9.86924 15.3586L9.65739 15.4587L9.17728 15.4121L8.81681 15.327L8.61185 15.4409L8.40001 15.6397L8.43989 15.7714L8.6022 15.9099L8.92824 16.1665L9.42766 16.7933L9.65462 17.1389L9.68762 17.2597L9.64497 17.3502L9.57754 17.3886L9.47855 17.3872L9.34513 17.3859L9.26805 17.283L9.24193 17.1047L9.07543 16.8345L8.90347 16.6781L8.71505 16.5807L8.45089 16.508L8.10285 16.3791L7.92258 16.3736L7.74793 16.5231L7.60208 16.7247L7.51543 17.165L7.25539 17.7055L7.09585 17.9181L6.60054 18.047L5.42569 18.0909L5.07497 18.2596L4.83558 18.4626L4.39124 19.1196L4.08165 19.3378L3.81338 19.6382L3.89458 20.6011L4.02389 21.7217L4.2495 22.0317L4.39258 22.125L4.41181 22.2347L4.3197 22.3321L4.20139 22.4542L4.02254 22.6778L3.8217 22.6695L3.41723 22.6133L3.0802 22.5529L1.94658 22.4885L1.02766 22.4363L0.00688518 22.3787L0.00554173 21.2046V20.0263V18.8439L0.00411432 17.6575V16.4655V15.2694L0.00277087 14.0692V12.8648V11.6564V10.4425L0.00134345 9.22446V8.00093V6.77193L0 5.53878V4.30156V3.05883L0.481459 2.9052L1.08954 2.70905L1.67285 2.52252L2.36758 2.2989L3.15031 2.04653L3.81893 1.8312L4.61685 1.57469L5.22485 1.37853L5.79581 1.19472L6.52631 0.975252L7.66262 0.635098L8.29681 0.444427L8.93789 0.252415L9.54866 0.0686084L9.95724 0L10.3961 0.262001L10.9299 0.621368L11.4637 0.980736L11.9974 1.34014L12.5312 1.69951L13.065 2.0575L13.5987 2.41553L14.1325 2.77351L14.6663 3.13016L15.2001 3.4868L15.7338 3.84341L16.2676 4.19867L16.8014 4.55394L17.3351 4.9092L17.8689 5.26309L18.4027 5.61697L18.9364 5.97085L19.4317 6.30008L19.6545 6.54421L19.7769 7.0819L20.0232 7.50849L20.4511 7.96937L20.8886 8.44126L21.4333 9.06258L21.8102 9.49332L22.1941 9.93222L22.8296 10.6551L23.2258 11.105L23.5409 11.1201L24.1806 11.0131L25.0362 10.8705L25.7117 10.7566L26.5289 10.6194L27.3075 10.4891L27.9211 10.3849L28.84 10.4631L29.7466 10.5412L30.3973 10.5975L31.0343 10.6524L31.7895 10.7168L32.2118 10.7525L32.6961 10.7937L32.8997 10.6853L33.3166 10.4631L33.71 10.2546L34.1186 10.0365L34.4804 9.92674L34.8573 10.2738L35.1724 10.6743L35.5039 11.0954L35.8877 11.5L36.2605 11.7401L36.7599 12.0652L37.0474 12.6193L37.4312 13.3587L37.6844 13.8442L37.9443 14.3421L38.3227 14.146L38.7258 13.9361L39.0917 13.7455L39.0476 14.3613L39.0092 14.9196L38.9472 15.7632L38.8978 16.4518L38.7657 17.272L38.756 17.8961L38.7478 18.4434L38.7423 18.8768L39.4508 18.8961L39.9749 18.9098L40.6311 18.9276L40.6944 19.4708L40.7825 20.2334L40.9159 20.922L41.0286 21.4995L41.1965 22.2443L41.2873 22.6421L41.4441 23.1098L41.5996 23.2223L41.8486 23.2964L42.7153 23.2401L43.4334 23.1935L44.0002 23.1578L44.6027 23.1194L45.402 23.0673L45.673 23.1867L45.9069 23.103L46.1765 23.0193L46.3911 23.3581L46.4998 23.5296L46.6525 23.7079L46.8589 23.8738L46.7722 24.2209L46.6443 24.727L46.6085 24.9863L46.8575 25.2661L47.0432 25.4293L47.5508 25.7613L48.0282 25.9464L48.3391 26.0013L48.6363 25.93L48.7449 25.742L48.7175 25.4828L48.5744 25.2098L48.5854 24.8847L48.6803 24.6474L48.9843 24.2154L49.2718 23.8066L49.712 23.3896L50.2362 22.9768L50.4535 22.675L50.5375 22.1497L50.88 21.852L51.2501 21.6737L51.7096 21.5187L51.8361 21.2553L52.4703 20.8082L52.85 20.5873L53.3301 20.4584L53.9932 20.1676L54.5174 19.8247L55.0195 19.1786L55.4184 18.7548L55.7541 18.4942L56.0361 18.4846L56.2342 18.6958L56.4048 18.7136L56.5162 18.6176L56.706 18.346L56.9097 18.0292L57.1009 17.8975L57.471 17.8303L57.8135 17.6204ZM56.6772 24.3498L56.6635 24.2264L56.5437 24.0193L56.3649 23.9026L56.2796 23.9534L56.3525 24.1221L56.5603 24.3622L56.6772 24.3498ZM58.815 29.6074L58.621 29.6527L58.2661 29.6458L58.0638 29.5937L58.1877 29.1877L58.1918 29.1067L58.1767 29.0958L58.0749 29.0409L57.9209 28.8749L57.8672 28.6294L57.9277 28.4017L58.0405 28.307L58.112 28.3235L58.3294 28.6706L58.5234 28.7721L58.9017 28.8297L58.7105 29.1726L58.8522 29.5388L58.815 29.6074ZM61.0285 29.3193L60.9253 29.5347L60.7438 29.4826L60.6007 29.3399L60.6475 29.2275L60.8607 29.1657L60.9721 29.104L61.0656 29.093L61.0285 29.3193Z"/>
</mask>
<path d="M57.8135 17.6204L57.9387 17.5285L58.1588 17.4352L58.522 17.6149L58.8398 17.8413L58.9169 17.9455L58.9017 18.0662L58.1437 18.5065L57.6732 18.7123L57.4654 18.7493L57.4091 18.8069L57.2605 19.3076L56.9689 19.3967L56.5946 19.549L56.3332 19.7794L55.9164 20.3226L54.8571 21.1113L54.842 21.2718L54.9342 21.4021L55.2781 21.4926L55.7321 21.734L55.9783 21.9233L56.651 21.6792L56.8175 21.7327L56.9936 21.9851L57.1794 22.6901L57.4806 22.8821L57.8754 23.0289L58.1203 23.0769L58.4463 23.2497L58.8811 23.3142L59.1727 23.2511L59.5373 23.3993L59.5964 23.3348L59.6446 22.2841L59.95 22.4596L60.126 22.4569L60.2801 22.328L60.3599 22.1538L60.4122 21.8067L60.3448 21.4597L60.481 21.3006L60.5869 21.265L60.6654 21.3074L60.7121 21.3966L60.7259 21.7107L60.946 21.8438L61.0808 21.9206L61.2087 22.1867L61.3339 22.4405L61.4137 23.0344L61.7232 23.0755L62.0864 23.1894L62.3299 23.0783L62.5184 23.1441L62.583 23.4253L62.5817 23.6873L62.6092 23.8958L62.7068 23.9548L63.0233 23.8245L63.2888 23.8066L63.5336 23.9315L63.8377 24.1208L64.2792 24.6173L64.4251 24.6886L65.0909 24.727L65.2299 24.8285H65.4582L65.7059 24.7394L66.2548 24.8999L66.2727 24.9904L66.1805 25.1152L64.8722 25.801L64.7759 26.0123L64.5091 26.2797L64.2174 26.432L64.0757 26.4375L63.436 26.1659L63.3617 26.2317L63.3094 26.3415L63.3121 26.4608L63.4525 26.7461L63.3879 26.9258L63.2654 27.0561L62.8651 26.9422L62.7908 26.8696L62.7825 26.79H62.6285L62.3904 26.8696L61.9323 27.362L61.7728 27.6199L61.7136 27.7748L61.51 27.8627L61.2885 27.8956L61.0024 28.1274L60.6915 28.307L60.5924 28.1754L60.5318 28.0286L60.4493 27.982L60.2581 28.0163L60.027 28.0218L59.7835 27.8558L59.4685 27.6884L59.1934 27.6295L58.3817 27.7077L57.98 27.7899L57.8534 27.8709L57.6278 27.8928L56.6772 28.0615L56.4832 27.9957L56.3401 27.7296L56.2149 27.4415L55.9687 27.3373L55.6922 27.2564L55.589 27.1412L55.5822 27.0012L55.611 26.8641L55.633 26.7928L56.2741 26.2413L56.8519 25.7448L56.9055 25.705L56.9579 25.6104L57.0555 25.4389V25.3498L56.6235 25.1522L56.607 25.0617L56.6937 24.9684V24.8436L56.3883 24.4787L55.86 23.9095L55.7074 23.8505L55.5945 23.8876L55.3882 24.4376L55.285 24.5775L54.6825 24.9382L54.1789 25.1865L53.282 25.6268L53.0481 25.7654L52.8858 25.7407L52.7235 25.6543L52.2199 25.2085L51.8953 25.0562L51.6766 25.2071L51.4922 25.4266L51.5101 25.8778L51.3023 26.1151L51.0946 26.2221L51.473 27.4278L51.4358 27.5828L51.1469 27.6254L51.3588 28.078L51.1799 28.1301L50.7246 28.0245L50.1124 27.9545L48.9568 28.1548L48.8715 28.233L48.8399 28.3331L48.9073 28.4237L49.4672 28.4333L50.0147 28.388L50.166 28.4717L50.1894 28.6198L50.1262 28.7131L49.9432 28.7295L49.5428 28.8187L49.4974 28.9133L49.4836 29.0039L49.6198 29.2658L49.7712 29.4332L49.7905 29.5319L49.7271 29.6156L49.6502 29.6486L49.5153 29.5251L49.4383 29.5498L49.4011 29.6623L49.364 29.7939L49.2759 29.89L49.0888 29.8392L48.9031 29.8762L48.7931 30.3536L48.6996 30.894L48.3941 31.2534L48.2249 31.3837L47.976 31.4221L47.6058 31.3782L47.3817 31.3247L46.7323 31.2452L46.0816 31.0984L45.3498 30.9613L44.6687 31.2781L44.4721 31.4715L44.3469 31.6526L44.2189 31.7362L43.9231 32.8445L43.9534 32.9707L44.1171 33.0695L44.9522 33.2985L45.0746 33.3932L45.1475 33.5016L45.1833 33.9981L45.252 34.0667L45.5382 34.1284L45.9523 34.1243L46.2769 34.0749L46.603 34.1202L46.8313 34.2272L46.9428 34.3959L47.0047 34.5783L46.6167 35.6661L46.6484 36.0611L46.768 36.6262L46.9882 37.0692L47.4022 37.5013L47.7173 37.7784L47.7833 37.9087L47.7998 38.1103L47.7489 38.3682L47.5674 38.777L47.3445 39.1336L47.1037 39.2845L46.7695 39.7371L46.4736 40.2927L45.9055 41.0196L45.7143 41.4243L45.651 42.5916L45.5011 42.9413L45.4776 42.8083L45.2727 42.6752L44.915 42.6986L44.6798 42.6355L44.567 42.486L44.2753 42.5285L43.8048 42.7603L43.3247 42.6369L42.8363 42.1568L41.905 41.9812L40.726 42.0909L40.682 41.5587L40.6847 40.8797L40.7384 39.9758L41.1401 39.2653L41.1277 39.1295L41.0493 38.9992L40.9269 38.8826L40.2129 38.6865L40.0038 38.5836L39.7273 38.3586L39.3779 38.1227L39.0738 37.9595L38.5964 37.7441L38.1563 37.6248L37.8976 37.7153L37.6596 37.8305L37.4368 37.8333L37.2139 37.7702L36.3884 37.2311L35.1421 36.2984L34.1544 35.6455L33.5339 35.3327L33.3867 35.2326L33.0386 34.9391L32.1829 34.1462L31.6148 34.2628L30.8031 33.7471L30.0741 33.2423L29.909 33.1052L29.0794 32.1697L28.2513 31.562L27.3488 30.8981L26.7655 30.4812L25.7764 29.7734L25.2921 29.3454L25.1284 29.1877L24.9689 28.8845L24.7102 27.399L24.413 26.7159L23.9893 26.3442L23.6289 25.6268L23.329 24.561L23.0814 23.867L22.8847 23.546L22.4884 23.1908L21.8872 22.8012L21.3177 22.616L21.1127 22.6229L21.011 22.6709L20.8954 22.7367L20.6698 23.0275L20.3369 23.0577L20.092 23.0509L19.8637 22.9466L19.1427 22.8547L18.8869 22.7532L18.4536 22.7683L17.5222 22.9192L17.2952 22.8917L16.3116 22.2415L15.8838 21.9837L15.7985 21.841L15.8026 21.5914L15.947 21.2375L16.0709 20.9865L16.0159 20.7259L15.8287 20.4406V20.1361L15.9567 19.966L16.2181 20.0195L16.3116 19.9125L16.2786 19.7506L16.1369 19.6354L15.9484 19.3762L15.3912 19.1347L15.3115 19.036L15.3404 18.9235L15.4367 18.8028L15.4559 18.5477L15.4656 18.2185L15.5399 18.047L15.5604 17.9126L15.4793 17.8042L15.2908 17.678L14.9895 17.3722L14.6195 17.3392L13.4158 17.3502L13.043 17.2268L12.743 17.0553L12.4431 16.4024L12.2918 16.2474L12.1501 16.1829L11.813 16.161L11.4072 16.0979L11.1995 15.9868L10.6327 15.3887L10.088 14.8538L9.86924 15.3586L9.65739 15.4587L9.17728 15.4121L8.81681 15.327L8.61185 15.4409L8.40001 15.6397L8.43989 15.7714L8.6022 15.9099L8.92824 16.1665L9.42766 16.7933L9.65462 17.1389L9.68762 17.2597L9.64497 17.3502L9.57754 17.3886L9.47855 17.3872L9.34513 17.3859L9.26805 17.283L9.24193 17.1047L9.07543 16.8345L8.90347 16.6781L8.71505 16.5807L8.45089 16.508L8.10285 16.3791L7.92258 16.3736L7.74793 16.5231L7.60208 16.7247L7.51543 17.165L7.25539 17.7055L7.09585 17.9181L6.60054 18.047L5.42569 18.0909L5.07497 18.2596L4.83558 18.4626L4.39124 19.1196L4.08165 19.3378L3.81338 19.6382L3.89458 20.6011L4.02389 21.7217L4.2495 22.0317L4.39258 22.125L4.41181 22.2347L4.3197 22.3321L4.20139 22.4542L4.02254 22.6778L3.8217 22.6695L3.41723 22.6133L3.0802 22.5529L1.94658 22.4885L1.02766 22.4363L0.00688518 22.3787L0.00554173 21.2046V20.0263V18.8439L0.00411432 17.6575V16.4655V15.2694L0.00277087 14.0692V12.8648V11.6564V10.4425L0.00134345 9.22446V8.00093V6.77193L0 5.53878V4.30156V3.05883L0.481459 2.9052L1.08954 2.70905L1.67285 2.52252L2.36758 2.2989L3.15031 2.04653L3.81893 1.8312L4.61685 1.57469L5.22485 1.37853L5.79581 1.19472L6.52631 0.975252L7.66262 0.635098L8.29681 0.444427L8.93789 0.252415L9.54866 0.0686084L9.95724 0L10.3961 0.262001L10.9299 0.621368L11.4637 0.980736L11.9974 1.34014L12.5312 1.69951L13.065 2.0575L13.5987 2.41553L14.1325 2.77351L14.6663 3.13016L15.2001 3.4868L15.7338 3.84341L16.2676 4.19867L16.8014 4.55394L17.3351 4.9092L17.8689 5.26309L18.4027 5.61697L18.9364 5.97085L19.4317 6.30008L19.6545 6.54421L19.7769 7.0819L20.0232 7.50849L20.4511 7.96937L20.8886 8.44126L21.4333 9.06258L21.8102 9.49332L22.1941 9.93222L22.8296 10.6551L23.2258 11.105L23.5409 11.1201L24.1806 11.0131L25.0362 10.8705L25.7117 10.7566L26.5289 10.6194L27.3075 10.4891L27.9211 10.3849L28.84 10.4631L29.7466 10.5412L30.3973 10.5975L31.0343 10.6524L31.7895 10.7168L32.2118 10.7525L32.6961 10.7937L32.8997 10.6853L33.3166 10.4631L33.71 10.2546L34.1186 10.0365L34.4804 9.92674L34.8573 10.2738L35.1724 10.6743L35.5039 11.0954L35.8877 11.5L36.2605 11.7401L36.7599 12.0652L37.0474 12.6193L37.4312 13.3587L37.6844 13.8442L37.9443 14.3421L38.3227 14.146L38.7258 13.9361L39.0917 13.7455L39.0476 14.3613L39.0092 14.9196L38.9472 15.7632L38.8978 16.4518L38.7657 17.272L38.756 17.8961L38.7478 18.4434L38.7423 18.8768L39.4508 18.8961L39.9749 18.9098L40.6311 18.9276L40.6944 19.4708L40.7825 20.2334L40.9159 20.922L41.0286 21.4995L41.1965 22.2443L41.2873 22.6421L41.4441 23.1098L41.5996 23.2223L41.8486 23.2964L42.7153 23.2401L43.4334 23.1935L44.0002 23.1578L44.6027 23.1194L45.402 23.0673L45.673 23.1867L45.9069 23.103L46.1765 23.0193L46.3911 23.3581L46.4998 23.5296L46.6525 23.7079L46.8589 23.8738L46.7722 24.2209L46.6443 24.727L46.6085 24.9863L46.8575 25.2661L47.0432 25.4293L47.5508 25.7613L48.0282 25.9464L48.3391 26.0013L48.6363 25.93L48.7449 25.742L48.7175 25.4828L48.5744 25.2098L48.5854 24.8847L48.6803 24.6474L48.9843 24.2154L49.2718 23.8066L49.712 23.3896L50.2362 22.9768L50.4535 22.675L50.5375 22.1497L50.88 21.852L51.2501 21.6737L51.7096 21.5187L51.8361 21.2553L52.4703 20.8082L52.85 20.5873L53.3301 20.4584L53.9932 20.1676L54.5174 19.8247L55.0195 19.1786L55.4184 18.7548L55.7541 18.4942L56.0361 18.4846L56.2342 18.6958L56.4048 18.7136L56.5162 18.6176L56.706 18.346L56.9097 18.0292L57.1009 17.8975L57.471 17.8303L57.8135 17.6204ZM56.6772 24.3498L56.6635 24.2264L56.5437 24.0193L56.3649 23.9026L56.2796 23.9534L56.3525 24.1221L56.5603 24.3622L56.6772 24.3498ZM58.815 29.6074L58.621 29.6527L58.2661 29.6458L58.0638 29.5937L58.1877 29.1877L58.1918 29.1067L58.1767 29.0958L58.0749 29.0409L57.9209 28.8749L57.8672 28.6294L57.9277 28.4017L58.0405 28.307L58.112 28.3235L58.3294 28.6706L58.5234 28.7721L58.9017 28.8297L58.7105 29.1726L58.8522 29.5388L58.815 29.6074ZM61.0285 29.3193L60.9253 29.5347L60.7438 29.4826L60.6007 29.3399L60.6475 29.2275L60.8607 29.1657L60.9721 29.104L61.0656 29.093L61.0285 29.3193Z" fill="var(--fill-0, #71B219)" stroke="var(--stroke-0, white)" mask="url(#path-1-inside-1_0_18)"/>
</g>
</svg>
