<svg preserveAspectRatio="none" width="100%" height="100%" overflow="visible" style="display: block;" viewBox="0 0 66 43" fill="none" xmlns="http://www.w3.org/2000/svg"><g id="UZ"><mask id="path-1-inside-1_0_18" fill="white"><path d="M58 18L58 18L58 17L58 18L59 18L59 18L59 18L58 18L58 19L58 19L57 19L57 19L57 19L57 20L56 20L56 20L55 21L55 21L55 21L55 22L56 22L56 22L57 22L57 22L57 22L57 23L58 23L58 23L58 23L58 23L59 23L59 23L60 23L60 23L60 22L60 22L60 22L60 22L60 22L60 22L60 22L60 21L61 21L61 21L61 21L61 22L61 22L61 22L61 22L61 22L61 23L62 23L62 23L62 23L62 23L63 23L63 24L63 24L63 24L63 24L63 24L64 24L64 24L64 25L64 25L65 25L65 25H66L66 25L66 25L66 25L66 25L65 26L65 26L64 26L64 26L64 26L63 26L63 26L63 26L63 26L64 27L63 27L63 27L63 27L63 27L63 27H63L62 27L62 27L62 28L62 28L62 28L61 28L61 28L61 28L61 28L60 28L60 28L60 28L60 28L60 28L60 28L59 28L58 28L58 28L58 28L58 28L57 28L56 28L56 28L56 27L56 27L56 27L56 27L56 27L56 27L56 27L56 26L57 26L57 26L57 26L57 25V25L57 25L57 25L57 25V25L56 24L56 24L56 24L56 24L55 24L55 25L55 25L54 25L53 26L53 26L53 26L53 26L52 25L52 25L52 25L52 25L52 26L51 26L51 26L52 27L51 28L51 28L51 28L51 28L51 28L50 28L49 28L49 28L49 28L49 28L50 28L50 28L50 28L50 29L50 29L50 29L50 29L50 29L50 29L50 29L50 29L50 30L50 30L50 30L50 30L49 30L49 30L49 30L49 30L49 30L49 30L49 30L49 31L48 31L48 31L48 31L48 31L47 31L47 31L46 31L45 31L45 31L44 32L44 32L44 32L44 33L44 33L44 33L45 33L45 33L45 34L45 34L45 34L46 34L46 34L46 34L47 34L47 34L47 34L47 35L47 36L47 36L47 37L47 37L47 38L48 38L48 38L48 38L48 38L48 39L47 39L47 39L47 40L46 40L46 41L46 41L46 43L46 43L46 43L45 43L45 43L45 43L45 42L44 42L44 43L43 43L43 42L42 42L41 42L41 42L41 41L41 40L41 39L41 39L41 39L41 39L40 39L40 39L40 38L39 38L39 38L39 38L38 38L38 38L38 38L37 38L37 38L36 37L35 36L34 36L34 35L33 35L33 35L32 34L32 34L31 34L30 33L30 33L29 32L28 32L27 31L27 30L26 30L25 29L25 29L25 29L25 27L24 27L24 26L24 26L23 25L23 24L23 24L22 23L22 23L21 23L21 23L21 23L21 23L21 23L20 23L20 23L20 23L19 23L19 23L18 23L18 23L17 23L16 22L16 22L16 22L16 22L16 21L16 21L16 21L16 20V20L16 20L16 20L16 20L16 20L16 20L16 19L15 19L15 19L15 19L15 19L16 18L16 18L16 18L16 18L16 18L15 18L15 17L15 17L13 17L13 17L13 17L12 16L12 16L12 16L12 16L11 16L11 16L11 15L10 15L10 15L10 16L9 15L9 15L9 15L8 16L8 16L9 16L9 16L9 17L10 17L10 17L10 17L10 17L10 17L9 17L9 17L9 17L9 17L9 17L9 17L8 16L8 16L8 16L8 16L8 17L8 17L7 18L7 18L7 18L5 18L5 18L5 18L4 19L4 19L4 20L4 21L4 22L4 22L4 22L4 22L4 22L4 22L4 23L4 23L3 23L3 23L2 22L1 22L0 22L0 21V20V19L0 18V16V15L0 14V13V12V10L0 9V8V7L0 6V4V3L0 3L1 3L2 2L2 2L3 2L4 2L5 2L5 1L6 1L6 1L8 1L8 0L9 0L10 0L10 0L10 0L11 1L12 1L12 1L12 2L13 2L14 2L14 3L15 3L15 4L16 4L16 4L17 5L17 5L18 5L18 6L19 6L19 6L20 6L20 7L20 8L20 8L21 8L21 9L22 10L22 10L23 11L23 11L24 11L24 11L25 11L26 11L26 11L27 10L28 10L29 10L30 10L30 11L31 11L32 11L32 11L33 11L33 11L33 10L34 10L34 10L34 10L35 10L35 11L36 11L36 12L36 12L37 12L37 13L37 13L38 14L38 14L38 14L39 14L39 14L39 14L39 15L39 16L39 16L39 17L39 18L39 18L39 19L40 19L40 19L41 19L41 20L41 20L41 21L41 22L41 22L41 23L41 23L42 23L42 23L43 23L43 23L44 23L45 23L45 23L46 23L46 23L46 23L46 23L46 24L47 24L47 24L47 24L47 25L47 25L47 25L47 25L48 26L48 26L48 26L49 26L49 26L49 26L49 25L49 25L49 25L49 24L49 24L50 23L50 23L50 23L50 22L51 22L51 22L52 22L52 21L52 21L53 21L53 20L54 20L54 20L55 19L55 19L56 18L56 18L56 19L56 19L56 19L57 18L57 18L57 18L58 18L58 18ZM57 24L57 24L56 24L56 24L56 24L56 24L57 24L57 24ZM59 30L59 30L58 30L58 30L58 29L58 29L58 29L58 29L58 29L58 29L58 28L58 28L58 28L58 29L58 29L59 29L59 29L59 30L59 30ZM61 29L61 30L61 30L61 29L61 29L61 29L61 29L61 29L61 29Z"/></mask><path d="M58 18L58 18L58 17L58 18L59 18L59 18L59 18L58 18L58 19L58 19L57 19L57 19L57 19L57 20L56 20L56 20L55 21L55 21L55 21L55 22L56 22L56 22L57 22L57 22L57 22L57 23L58 23L58 23L58 23L58 23L59 23L59 23L60 23L60 23L60 22L60 22L60 22L60 22L60 22L60 22L60 22L60 21L61 21L61 21L61 21L61 22L61 22L61 22L61 22L61 22L61 23L62 23L62 23L62 23L62 23L63 23L63 24L63 24L63 24L63 24L63 24L64 24L64 24L64 25L64 25L65 25L65 25H66L66 25L66 25L66 25L66 25L65 26L65 26L64 26L64 26L64 26L63 26L63 26L63 26L63 26L64 27L63 27L63 27L63 27L63 27L63 27H63L62 27L62 27L62 28L62 28L62 28L61 28L61 28L61 28L61 28L60 28L60 28L60 28L60 28L60 28L60 28L59 28L58 28L58 28L58 28L58 28L57 28L56 28L56 28L56 27L56 27L56 27L56 27L56 27L56 27L56 27L56 26L57 26L57 26L57 26L57 25V25L57 25L57 25L57 25V25L56 24L56 24L56 24L56 24L55 24L55 25L55 25L54 25L53 26L53 26L53 26L53 26L52 25L52 25L52 25L52 25L52 26L51 26L51 26L52 27L51 28L51 28L51 28L51 28L51 28L50 28L49 28L49 28L49 28L49 28L50 28L50 28L50 28L50 29L50 29L50 29L50 29L50 29L50 29L50 29L50 29L50 30L50 30L50 30L50 30L49 30L49 30L49 30L49 30L49 30L49 30L49 30L49 31L48 31L48 31L48 31L48 31L47 31L47 31L46 31L45 31L45 31L44 32L44 32L44 32L44 33L44 33L44 33L45 33L45 33L45 34L45 34L45 34L46 34L46 34L46 34L47 34L47 34L47 34L47 35L47 36L47 36L47 37L47 37L47 38L48 38L48 38L48 38L48 38L48 39L47 39L47 39L47 40L46 40L46 41L46 41L46 43L46 43L46 43L45 43L45 43L45 43L45 42L44 42L44 43L43 43L43 42L42 42L41 42L41 42L41 41L41 40L41 39L41 39L41 39L41 39L40 39L40 39L40 38L39 38L39 38L39 38L38 38L38 38L38 38L37 38L37 38L36 37L35 36L34 36L34 35L33 35L33 35L32 34L32 34L31 34L30 33L30 33L29 32L28 32L27 31L27 30L26 30L25 29L25 29L25 29L25 27L24 27L24 26L24 26L23 25L23 24L23 24L22 23L22 23L21 23L21 23L21 23L21 23L21 23L20 23L20 23L20 23L19 23L19 23L18 23L18 23L17 23L16 22L16 22L16 22L16 22L16 21L16 21L16 21L16 20V20L16 20L16 20L16 20L16 20L16 20L16 19L15 19L15 19L15 19L15 19L16 18L16 18L16 18L16 18L16 18L15 18L15 17L15 17L13 17L13 17L13 17L12 16L12 16L12 16L12 16L11 16L11 16L11 15L10 15L10 15L10 16L9 15L9 15L9 15L8 16L8 16L9 16L9 16L9 17L10 17L10 17L10 17L10 17L10 17L9 17L9 17L9 17L9 17L9 17L9 17L8 16L8 16L8 16L8 16L8 17L8 17L7 18L7 18L7 18L5 18L5 18L5 18L4 19L4 19L4 20L4 21L4 22L4 22L4 22L4 22L4 22L4 22L4 23L4 23L3 23L3 23L2 22L1 22L0 22L0 21V20V19L0 18V16V15L0 14V13V12V10L0 9V8V7L0 6V4V3L0 3L1 3L2 2L2 2L3 2L4 2L5 2L5 1L6 1L6 1L8 1L8 0L9 0L10 0L10 0L10 0L11 1L12 1L12 1L12 2L13 2L14 2L14 3L15 3L15 4L16 4L16 4L17 5L17 5L18 5L18 6L19 6L19 6L20 6L20 7L20 8L20 8L21 8L21 9L22 10L22 10L23 11L23 11L24 11L24 11L25 11L26 11L26 11L27 10L28 10L29 10L30 10L30 11L31 11L32 11L32 11L33 11L33 11L33 10L34 10L34 10L34 10L35 10L35 11L36 11L36 12L36 12L37 12L37 13L37 13L38 14L38 14L38 14L39 14L39 14L39 14L39 15L39 16L39 16L39 17L39 18L39 18L39 19L40 19L40 19L41 19L41 20L41 20L41 21L41 22L41 22L41 23L41 23L42 23L42 23L43 23L43 23L44 23L45 23L45 23L46 23L46 23L46 23L46 23L46 24L47 24L47 24L47 24L47 25L47 25L47 25L47 25L48 26L48 26L48 26L49 26L49 26L49 26L49 25L49 25L49 25L49 24L49 24L50 23L50 23L50 23L50 22L51 22L51 22L52 22L52 21L52 21L53 21L53 20L54 20L54 20L55 19L55 19L56 18L56 18L56 19L56 19L56 19L57 18L57 18L57 18L58 18L58 18ZM57 24L57 24L56 24L56 24L56 24L56 24L57 24L57 24ZM59 30L59 30L58 30L58 30L58 29L58 29L58 29L58 29L58 29L58 29L58 28L58 28L58 28L58 29L58 29L59 29L59 29L59 30L59 30ZM61 29L61 30L61 30L61 29L61 29L61 29L61 29L61 29L61 29Z" fill="var(--fill-0,#71B219)" stroke="var(--stroke-0,white)" mask="url(#path-1-inside-1_0_18)"/></g></svg>