<svg preserveAspectRatio="none" width="100%" height="100%" overflow="visible" style="display: block;" viewBox="0 0 0.0448105 0.0447258" fill="none" xmlns="http://www.w3.org/2000/svg">
<g id="VA">
<mask id="path-1-inside-1_0_17" fill="white">
<path d="M0.0448105 0.0406711L0.0122173 0.0447258L0 0.0271003L0.0122173 0.0040547L0.0407519 0L0.0448105 0.0406711Z"/>
</mask>
<path d="M0.0448105 0.0406711L0.0122173 0.0447258L0 0.0271003L0.0122173 0.0040547L0.0407519 0L0.0448105 0.0406711Z" fill="var(--fill-0, #71B219)"/>
<path d="M0.0448105 0.0406711L0.106536 0.536846L0.590796 0.476603L0.542339 -0.00897796L0.0448105 0.0406711ZM0.0122173 0.0447258L-0.398715 0.329567L-0.226334 0.578256L0.073943 0.540901L0.0122173 0.0447258ZM0 0.0271003L-0.441762 -0.207093L-0.584315 0.061807L-0.410932 0.311942L0 0.0271003ZM0.0122173 0.0040547L-0.0581249 -0.490973L-0.310261 -0.455145L-0.429544 -0.230139L0.0122173 0.0040547ZM0.0407519 0L0.538281 -0.0496491L0.486517 -0.568365L-0.0295903 -0.495027L0.0407519 0ZM0.0448105 0.0406711L-0.0169152 -0.455504L-0.0495084 -0.451449L0.0122173 0.0447258L0.073943 0.540901L0.106536 0.536846L0.0448105 0.0406711ZM0.0122173 0.0447258L0.42315 -0.240116L0.410932 -0.257741L0 0.0271003L-0.410932 0.311942L-0.398715 0.329567L0.0122173 0.0447258ZM0 0.0271003L0.441762 0.261294L0.453979 0.238248L0.0122173 0.0040547L-0.429544 -0.230139L-0.441762 -0.207093L0 0.0271003ZM0.0122173 0.0040547L0.0825594 0.499082L0.111094 0.495027L0.0407519 0L-0.0295903 -0.495027L-0.0581249 -0.490973L0.0122173 0.0040547ZM0.0407519 0L-0.456777 0.0496491L-0.452718 0.0903202L0.0448105 0.0406711L0.542339 -0.00897796L0.538281 -0.0496491L0.0407519 0Z" fill="var(--stroke-0, white)" mask="url(#path-1-inside-1_0_17)"/>
</g>
</svg>
