<svg preserveAspectRatio="none" width="100%" height="100%" overflow="visible" style="display: block;" viewBox="0 0 52 44" fill="none" xmlns="http://www.w3.org/2000/svg"><g id="VE"><mask id="path-1-inside-1_0_200" fill="white"><path d="M52 14L52 15L52 15L52 15L52 16L52 16L52 16L51 16L50 17L50 17L50 17L50 17L50 17L49 18L49 18L49 18L49 18L49 19L49 19L49 19L49 19L49 20L50 20L50 20L50 20L50 20L50 20L50 20L50 20L50 20L49 21L49 21L49 21L48 21L48 21L48 21L48 21L48 21L47 21L47 21L47 21L47 22L47 22L47 22L47 22L47 23L47 23L47 23L47 24L46 24L46 24L47 25L48 26L49 27L49 27L49 27L49 28L49 28L49 28L49 28L49 28L49 29L48 29L48 29L48 29L48 30L48 30L47 30L47 30L47 30L46 30L46 30L46 30L45 31L44 31L43 31L42 31L42 31L42 31L42 32L41 32L41 32L41 32L41 33L41 33L40 33L40 33L40 33L39 32L39 32L39 32L38 32L38 32L38 32L37 32L36 32L36 32L36 32L36 31L36 31L35 31L35 31L34 31H34L34 31L34 31L33 31L33 31L33 31L34 31L34 32L34 32L35 33L35 33L35 34L35 34L35 35L36 35L36 36L36 37L36 37L36 37L36 37L36 37L36 38L37 38H38L38 38L39 38L38 38L38 39L38 39L38 39L37 39L37 39L36 39L36 40L36 40L36 40L36 40L36 41L35 41L35 41L35 41L34 41L34 42L34 42L34 42L33 42L33 42L33 42L32 42L32 43L32 43L31 43L31 44L31 44L30 44L30 44L30 44L30 44L30 43L30 43L30 43L30 43L29 43L29 44L28 44L28 44L28 44L27 44L27 44L27 44L26 43L25 42L25 42L25 42L25 41L25 41L25 41L25 40L24 40L24 40L24 39L24 39L24 39L24 39L24 38L24 38L24 38L24 38L23 38L23 37L23 37L22 37L22 37L22 36L22 36L22 36L22 36L21 36L21 36L21 36L23 35L23 34L23 34L23 34L23 34L23 34L23 33L22 33L22 32L22 32L22 31L22 31L22 30L22 30L21 30L21 30V29L21 28L22 27L21 27L22 26L22 26L22 26L22 25L22 25L23 24L23 24L23 24L23 23L22 23L22 23L21 23L21 23L20 23L19 23H18L17 23L16 23L16 24L16 24L16 23L16 23L15 24L15 23L15 23L14 22L13 21L13 20L12 20L12 20L12 20L12 20L11 20L11 20L10 20L10 20L10 20L9 20L9 20L8 20L7 20L7 20L6 20L6 20L5 20L5 20L5 19L4 19L4 19L4 18L4 18L4 18L3 18L4 17L4 17L4 16L4 16L4 16L4 16L4 15L4 15L3 14L3 14L2 13L2 12L2 12L2 12L2 12L1 11L1 11L1 12L1 12L0 12L0 12L0 12L0 11L0 11L1 10L1 10L1 9L2 8L2 8L2 7L2 6L3 5L3 5L3 4L4 4L4 4L5 2L5 2L6 2L7 2L8 1L8 1L8 1L8 1L8 2L7 2L6 2L6 2L5 2L5 3L6 3L6 4L6 4L7 4L6 5L6 5L6 5L7 6L7 6L7 7L6 7L6 8L5 8L5 9L5 10L5 10L6 11L6 11L6 11L6 11L6 12L6 12L7 12H7L8 12L8 12L8 12L9 11L9 10L9 10L9 9L8 8L8 8L8 8L7 7L7 6L7 6L7 6L7 5L7 5L8 5L10 4L11 4L12 3L12 3L13 3L13 2L13 3L14 3L14 2L14 2H13L12 2L12 2V2L12 1L12 1L12 0L12 0L13 0L13 0L14 0L14 1L14 1L14 2L14 2L14 3L15 3L15 3L16 3L17 3L18 3L18 3L19 4L19 4L20 5L20 5L20 5L20 6L20 6L20 7L21 7L22 6L24 6L25 6L28 6L28 6L28 6L28 7L29 8L30 8L30 8L31 8L32 8L32 8L32 8L33 8L35 7L37 7L37 7L37 6L37 6L36 6L35 6L35 6L35 6L37 6L38 6L39 6L40 6L40 6L41 6L43 6L44 6L44 6L44 6L43 6L42 6L41 6L40 6L41 6V7L41 7L41 7L41 7L41 7L41 8L41 8L41 8L41 8L42 8L42 8L42 8L42 8L42 8L42 9L43 9L43 9L43 9L43 9L43 9L43 9L43 9L43 9L43 9L43 9L43 9L43 8L44 9L44 9L44 9L44 9L44 10L45 10L45 10L45 10L45 10L45 9L45 9L45 9L46 9L46 9L47 10L47 10L48 10L48 11L48 11L48 11L48 12L48 12L48 12L48 12L47 12L47 13L47 13L47 13L47 14L45 14L46 14L46 14L47 15L47 14L48 14L48 14L48 14L50 14L50 14L50 14L51 14L52 14ZM37 4L37 5L37 5L36 5L36 5L36 5L36 5L36 5L35 5L35 5L35 5L35 4L35 4L35 4L36 4L36 5L36 5L36 4L37 4L37 4ZM32 5L31 5L31 5L31 5L31 5H31L31 5L32 5ZM48 12L48 12L48 12L48 12L48 12L48 12L49 12L49 12L49 12L49 12L48 12ZM48 13L48 13L48 13L48 12L48 12L48 12L48 12L48 12L48 12L48 13L48 13L48 13Z"/></mask><path d="M52 14L52 15L52 15L52 15L52 16L52 16L52 16L51 16L50 17L50 17L50 17L50 17L50 17L49 18L49 18L49 18L49 18L49 19L49 19L49 19L49 19L49 20L50 20L50 20L50 20L50 20L50 20L50 20L50 20L50 20L49 21L49 21L49 21L48 21L48 21L48 21L48 21L48 21L47 21L47 21L47 21L47 22L47 22L47 22L47 22L47 23L47 23L47 23L47 24L46 24L46 24L47 25L48 26L49 27L49 27L49 27L49 28L49 28L49 28L49 28L49 28L49 29L48 29L48 29L48 29L48 30L48 30L47 30L47 30L47 30L46 30L46 30L46 30L45 31L44 31L43 31L42 31L42 31L42 31L42 32L41 32L41 32L41 32L41 33L41 33L40 33L40 33L40 33L39 32L39 32L39 32L38 32L38 32L38 32L37 32L36 32L36 32L36 32L36 31L36 31L35 31L35 31L34 31H34L34 31L34 31L33 31L33 31L33 31L34 31L34 32L34 32L35 33L35 33L35 34L35 34L35 35L36 35L36 36L36 37L36 37L36 37L36 37L36 37L36 38L37 38H38L38 38L39 38L38 38L38 39L38 39L38 39L37 39L37 39L36 39L36 40L36 40L36 40L36 40L36 41L35 41L35 41L35 41L34 41L34 42L34 42L34 42L33 42L33 42L33 42L32 42L32 43L32 43L31 43L31 44L31 44L30 44L30 44L30 44L30 44L30 43L30 43L30 43L30 43L29 43L29 44L28 44L28 44L28 44L27 44L27 44L27 44L26 43L25 42L25 42L25 42L25 41L25 41L25 41L25 40L24 40L24 40L24 39L24 39L24 39L24 39L24 38L24 38L24 38L24 38L23 38L23 37L23 37L22 37L22 37L22 36L22 36L22 36L22 36L21 36L21 36L21 36L23 35L23 34L23 34L23 34L23 34L23 34L23 33L22 33L22 32L22 32L22 31L22 31L22 30L22 30L21 30L21 30V29L21 28L22 27L21 27L22 26L22 26L22 26L22 25L22 25L23 24L23 24L23 24L23 23L22 23L22 23L21 23L21 23L20 23L19 23H18L17 23L16 23L16 24L16 24L16 23L16 23L15 24L15 23L15 23L14 22L13 21L13 20L12 20L12 20L12 20L12 20L11 20L11 20L10 20L10 20L10 20L9 20L9 20L8 20L7 20L7 20L6 20L6 20L5 20L5 20L5 19L4 19L4 19L4 18L4 18L4 18L3 18L4 17L4 17L4 16L4 16L4 16L4 16L4 15L4 15L3 14L3 14L2 13L2 12L2 12L2 12L2 12L1 11L1 11L1 12L1 12L0 12L0 12L0 12L0 11L0 11L1 10L1 10L1 9L2 8L2 8L2 7L2 6L3 5L3 5L3 4L4 4L4 4L5 2L5 2L6 2L7 2L8 1L8 1L8 1L8 1L8 2L7 2L6 2L6 2L5 2L5 3L6 3L6 4L6 4L7 4L6 5L6 5L6 5L7 6L7 6L7 7L6 7L6 8L5 8L5 9L5 10L5 10L6 11L6 11L6 11L6 11L6 12L6 12L7 12H7L8 12L8 12L8 12L9 11L9 10L9 10L9 9L8 8L8 8L8 8L7 7L7 6L7 6L7 6L7 5L7 5L8 5L10 4L11 4L12 3L12 3L13 3L13 2L13 3L14 3L14 2L14 2H13L12 2L12 2V2L12 1L12 1L12 0L12 0L13 0L13 0L14 0L14 1L14 1L14 2L14 2L14 3L15 3L15 3L16 3L17 3L18 3L18 3L19 4L19 4L20 5L20 5L20 5L20 6L20 6L20 7L21 7L22 6L24 6L25 6L28 6L28 6L28 6L28 7L29 8L30 8L30 8L31 8L32 8L32 8L32 8L33 8L35 7L37 7L37 7L37 6L37 6L36 6L35 6L35 6L35 6L37 6L38 6L39 6L40 6L40 6L41 6L43 6L44 6L44 6L44 6L43 6L42 6L41 6L40 6L41 6V7L41 7L41 7L41 7L41 7L41 8L41 8L41 8L41 8L42 8L42 8L42 8L42 8L42 8L42 9L43 9L43 9L43 9L43 9L43 9L43 9L43 9L43 9L43 9L43 9L43 9L43 8L44 9L44 9L44 9L44 9L44 10L45 10L45 10L45 10L45 10L45 9L45 9L45 9L46 9L46 9L47 10L47 10L48 10L48 11L48 11L48 11L48 12L48 12L48 12L48 12L47 12L47 13L47 13L47 13L47 14L45 14L46 14L46 14L47 15L47 14L48 14L48 14L48 14L50 14L50 14L50 14L51 14L52 14ZM37 4L37 5L37 5L36 5L36 5L36 5L36 5L36 5L35 5L35 5L35 5L35 4L35 4L35 4L36 4L36 5L36 5L36 4L37 4L37 4ZM32 5L31 5L31 5L31 5L31 5H31L31 5L32 5ZM48 12L48 12L48 12L48 12L48 12L48 12L49 12L49 12L49 12L49 12L48 12ZM48 13L48 13L48 13L48 12L48 12L48 12L48 12L48 12L48 12L48 13L48 13L48 13Z" fill="var(--fill-0,#71B219)" stroke="var(--stroke-0,white)" mask="url(#path-1-inside-1_0_200)"/></g></svg>