<svg preserveAspectRatio="none" width="100%" height="100%" overflow="visible" style="display: block;" viewBox="0 0 52.2846 44.2925" fill="none" xmlns="http://www.w3.org/2000/svg">
<g id="VE">
<mask id="path-1-inside-1_0_200" fill="white">
<path d="M51.5569 14.1172L52.2736 15.0581L52.2846 15.1624L52.2062 15.2804L51.7591 15.5012L51.6587 15.615L51.4977 16.0334L50.9351 16.2624L50.5457 16.5505L50.2843 16.8029L50.1537 16.9044L49.6392 16.9606L49.4741 17.1197L49.2663 17.5971L49.115 17.7974L48.8482 18.0319L48.8468 18.1746L49.2155 18.6958L49.2815 18.8604L49.1673 19.1087L49.1783 19.2842L49.3723 19.4955L49.6034 19.5435L49.829 19.4557L50.1097 19.4639L50.2926 19.5202L50.3683 19.5819L50.3807 19.7438L50.2651 20.0867L50.0987 20.3089L49.3613 20.6491L49.0338 20.8466L48.8523 20.992L48.4547 20.9138L48.2525 20.9193L48.097 21.0318L48.0021 21.1278L47.7352 21.1524L47.3583 21.2101L47.2001 21.2745L47.0776 21.4432L46.9758 21.6833L47.0611 21.9713L47.1794 22.2292L47.1739 22.4651L47.2647 23.1222L47.1464 23.2758L46.8933 23.4486L46.592 23.7559L46.2536 24.1825L46.3072 24.3045L47.1162 25.1989L47.9388 26.1083L48.7573 27.0122L48.8729 27.052L49.027 27.1562L49.17 27.4717L49.287 27.8078L49.2897 27.9806L49.1976 28.1987L48.9981 28.4497L48.756 28.6527L48.4024 28.8256L48.1204 28.9888L47.8879 29.4181L47.7462 29.569L47.6169 29.6294L47.361 29.6856L46.9483 29.6718L46.6759 29.6389L46.3375 29.9599L45.9069 30.0779L45.618 30.5168L44.589 30.8652L43.582 31.1354L43.3055 31.2424L42.3108 31.0189L42.0715 31.0888L41.7963 31.2973L41.5418 31.4578L41.3272 31.4674L41.147 31.5511L41.0397 31.8487L40.9448 32.8733L40.5871 33.1778L40.1565 33.1765L39.8607 32.8212L39.5099 32.5537L38.8978 31.9186L38.7271 31.835L38.569 31.8391L38.0008 32.0284L37.7311 31.9461L37.5138 31.8474L37.1506 31.8789L36.504 31.8857L36.0913 31.8912L35.8905 31.7184L35.7034 31.3631L35.5782 31.2356L35.431 31.1327L35.1875 31.0806L34.1461 31.0819H33.9494L33.8063 31.0134L33.6054 30.7088L33.3867 30.5662L33.1294 30.5607L33.0166 30.7294L33.4624 31.2767L33.5917 31.5744L33.9824 32.0037L35.1118 32.9131L35.321 33.2012L35.2976 33.5701L35.2907 34.1339L35.3292 34.6675L35.6195 35.4329L36.0267 36.2106L36.1381 36.7072L36.0625 37.0734L35.984 37.2695L35.9923 37.3559L36.0762 37.4341L36.4655 37.5466L37.2827 37.6166H37.7766L38.5305 37.7016L38.5868 37.9746L38.5126 38.4258L38.364 38.6823L38.2429 38.7564L37.833 38.8154L37.401 39.0925L36.7737 39.3654L36.416 39.4025L36.2674 39.456L36.1409 39.5383L36.0363 39.6425L35.9153 40.1555L35.7309 40.7343L35.3828 41.0773L35.0004 41.3612L34.6111 41.3927L34.2988 41.3694L34.1433 41.4531L33.9191 41.6863L33.5986 41.9771L33.3509 42.1321L33.018 42.117L32.6617 42.2596L32.2119 42.4942L31.9134 42.6862L31.6588 43.0154L31.2943 43.3597L30.9201 43.6025L30.7413 43.9015L30.4854 44.2801L30.1662 44.2925L30.1401 44.0647L30.2928 43.6985L30.1263 43.383L29.8223 43.2129L29.6792 43.1622L29.5375 43.1828L29.1771 43.3392L28.7355 43.6231L28.4631 43.8274L28.2169 43.9207L27.7106 44.0058L27.2841 44.0497L27.1081 43.992L26.7916 43.7836L26.0584 43.1306L25.0665 42.2473L24.9909 41.9908L25.0335 41.7302L24.8533 41.3488L24.7474 40.9428L24.6579 40.8029L24.6318 40.4984L24.4172 39.9511L24.2411 39.5026L24.0788 39.2749L24.1476 39.0801L24.0788 38.8867L23.9481 38.729L23.7555 38.2201L23.8229 38.0006L23.772 37.7812L23.6097 37.6303L23.3799 37.4684L23.0731 37.131L22.7072 36.81L22.5201 36.6838L22.3922 36.6331L22.2807 36.3286L22.1954 36.2353L22.0084 36.2106L21.6246 36.083L21.2669 36.2353L21.2586 35.9994L21.3604 35.8567L22.5958 34.7292L23.2176 34.2107L23.285 34.1339L23.34 34.0146L23.3827 33.8541L23.241 33.6703L22.6577 32.7992L22.4555 32.6347L22.256 32.5002L22.0276 32.134L21.7539 31.2822L21.5571 30.8542L21.498 30.525L21.5104 30.1533L21.4374 29.868L21.2792 29.6691V29.0615L21.4374 28.0437L21.476 27.2701L21.3962 26.7406L21.5379 26.3373L21.8997 26.0603L22.1019 25.6323L22.1446 25.0535L22.3619 24.5775L22.7526 24.2058L22.8861 23.8382L22.7622 23.4747L22.7224 23.2429L22.3908 23.007L21.7759 22.841L21.2669 22.8218L20.9587 23.007L20.1704 23.1784L18.9021 23.3361H17.8799L17.1054 23.177L16.5166 23.2305L16.1121 23.4966L15.8274 23.557L15.6623 23.4116L15.4834 23.3718L15.2124 23.4637L15.1657 23.4212L14.5645 22.7038L14.0087 22.0386L13.3704 21.2457L12.6344 20.3308L12.5023 20.2705L12.274 20.276L11.9727 20.2924L11.5049 20.1978L11.1844 20.0647L10.934 19.9358L10.4718 19.7726L10.1554 19.7438L9.87062 19.7918L9.08785 20.1113L8.64351 20.1415L8.29959 20.147L7.37512 19.9893L6.74366 19.9632L6.00904 20.0675L5.69401 20.1265L5.25377 19.9632L4.95389 19.715L4.67462 19.1251L4.47789 18.6615L4.13535 18.5682L3.75566 18.4887L3.56858 18.3351L3.45577 18.0676L3.42823 17.7247L3.46677 17.1664L3.50254 16.9661L3.55481 16.364L3.76393 16.0485L3.89596 15.8962L3.86985 15.6425L3.76943 15.124L3.66762 14.7564L3.24666 14.3408L2.70739 13.8072L2.47489 12.9526L2.20112 11.9431L1.9865 11.8416L1.78431 11.8924L1.5697 11.8416L1.37985 11.4356L1.19 11.3588L0.887349 11.5014L0.668619 11.6125L0.114193 11.714L0 11.6125L0.0385402 11.4863L0.272427 11.1174L0.54754 10.6455L0.868079 10.2162L1.16523 9.77588L1.38808 9.30675L1.53943 8.37265L1.64396 7.72797L1.91912 6.57849L2.42123 5.66088L2.61108 5.23839L3.06643 4.68835L3.27554 4.38935L3.55343 4.15342L4.31693 3.83382L5.22905 2.25227L5.43812 1.9999L6.35985 1.76398L7.06831 1.58017L7.59247 1.38678L7.76443 1.28389L7.90339 1.23587L7.7892 1.41968L7.53743 1.65288L7.25266 1.7955L5.78481 2.15352L5.63485 2.22896L5.44362 2.3771L5.44228 2.71725L5.48216 2.98336L5.91412 3.85848L6.08335 4.07385L6.66112 4.54707L6.52904 4.61292L6.31581 4.62112L6.47128 5.24115L6.8262 5.66637L6.8427 5.93381L6.57031 6.76506L6.0737 7.26161L5.72155 7.83906L5.44778 8.06812L4.84108 9.20386L5.30193 9.88011L5.36797 10.223L5.76693 10.71L6.02693 10.8691L6.20028 11.0666L6.12047 11.3985L6.28004 11.8484L6.48643 12.0857L6.74505 12.1804H7.06558L7.98593 11.88L8.20466 11.7456L8.34497 11.5055L8.80581 11.0186L8.83474 10.389L8.93378 9.63184L8.82097 9.13802L8.33674 8.43301L8.12485 7.93233L7.64474 7.46597L7.35035 6.66632L7.22928 6.41666L7.13851 6.07237L7.03531 5.46196L7.35724 5.23977L7.3242 4.73913L8.11662 4.60057L9.83074 3.78581L10.8914 3.58007L12.0992 3.14523L12.3799 2.9299L12.622 2.57187L12.8105 2.53072L13.4406 2.86678L13.7514 2.7502L13.8739 2.48819L13.7019 1.97796H13.3401L12.2519 2.16311L12.146 1.94364V1.75025L11.8888 1.14123L12.0484 0.683112L12.212 0.311354L12.5243 0.161872L12.981 0L13.3264 0.248271L13.5355 0.484194L13.6497 0.713251L13.728 1.33462L13.9138 1.96285L14.1091 2.39903L14.4201 2.72826L14.658 2.70628L14.8286 2.65145L15.9608 2.57736L16.6487 2.80231L17.5236 2.91617L18.3407 3.3935L19.1813 3.97234L19.3959 4.39483L19.4661 4.79811L19.6697 5.06831L19.4674 5.34677L19.5775 5.81036L19.8182 6.27811L20.1814 6.57577L21.2173 6.65669L22.3371 6.45643L24.0678 6.274L24.6249 6.11762L27.4891 6.0326L28.0353 6.25755L28.0889 6.48113L28.0944 6.65259L29.0161 7.48928L29.7728 7.60314L30.4152 7.87062L31.0797 8.01466L31.8061 8.21764L32.2146 8.19161L32.5214 8.12028L32.8818 8.10793L35.4379 6.7088L36.8081 6.74447L37.0186 6.65397L37.2001 6.53186L36.6953 6.31925L35.5548 6.23696L35.2095 6.37962L35.0142 6.01887L35.3856 6.02845L36.654 5.90777L38.1081 5.98731L39.2926 5.73083L39.8883 5.6883L40.2322 5.73903L41.1759 5.57306L42.9519 5.76922L44.3524 5.60739L44.19 5.83916L43.7306 5.98048L42.9863 6.02435L42.4181 6.36317L41.2075 6.30142L40.3573 6.42353L40.6298 6.51817V6.86519L40.7453 6.93514L40.8677 6.9379L41.1566 7.19576L41.235 7.36445L41.3286 7.71838L41.2006 8.10106L41.0246 8.27252L41.3699 8.21492L41.5652 8.03522L41.5363 7.85417L41.5652 7.64429L41.7592 7.71013L41.8954 7.80478L42.337 8.80611L42.6479 9.33145L42.7277 9.31224L42.802 9.29302L42.8941 9.1929L43.0317 8.94601L43.15 9.10239L43.2215 9.16271L43.2931 9.18193L43.2271 8.95835L43.3151 8.67166L43.2848 8.57153L43.4224 8.54959L43.5875 8.58802L43.8213 8.66755L44.2382 8.99674L44.5133 9.33832L44.5367 9.52895L44.6372 9.63594L44.8173 9.74842L44.9054 9.92402L44.9219 9.64691L44.816 9.44531L44.7898 9.21487L45.3319 9.20524L45.4736 8.90209L45.7693 9.08456L46.5535 9.91716L46.8424 10.0543L47.6967 10.2134L48.2346 10.614L48.5496 10.9733L48.3625 11.3492L47.8604 11.5371L47.6595 11.7716L47.544 12.0021L47.5426 12.2339L47.3899 12.5027L47.3679 12.5974L47.2771 12.9759L47.0707 13.4327L46.7956 13.9169L45.3621 13.9279L45.7157 14.1268L46.0417 14.2708L46.5769 14.6508L47.002 14.3518L47.6114 14.3298L48.2703 13.9979L48.5193 13.9457L49.752 14.1186L50.0491 13.8758L50.2967 13.8044L50.964 13.8497L51.5569 14.1172ZM36.7627 4.09444L36.8865 4.60329L36.8493 4.69932L36.4999 5.04223L36.2069 5.06693L35.9703 5.05458L35.7915 4.98874L35.5617 4.76516L35.3375 4.83239L34.7831 4.7542L34.629 4.676L34.8367 4.40169L35.2178 4.29056L35.3581 4.26724L35.4695 4.43598L35.7474 4.58136L36.0735 4.59647L36.1546 4.33719L36.5962 3.95178L36.7627 4.09444ZM31.5006 4.96957L31.2929 5.05735L30.9118 4.96957L30.7206 4.84746L30.8417 4.70756H31.154L31.447 4.87764L31.5006 4.96957ZM48.4547 11.8361L47.9911 11.9637L47.998 11.8608L48.1218 11.6811L48.3625 11.6304L48.4533 11.5686L48.606 11.5275L48.6941 11.5343L48.7821 11.5851L48.5716 11.6866L48.4547 11.8361ZM47.7723 12.8868L47.533 12.965L47.4972 12.5768L47.5701 12.4726L47.9773 12.1598L48.0901 12.1008L48.1727 12.1667L48.152 12.2503L48.3488 12.3916L48.3006 12.5699L48.0888 12.7647L47.7723 12.8868Z"/>
</mask>
<path d="M51.5569 14.1172L52.2736 15.0581L52.2846 15.1624L52.2062 15.2804L51.7591 15.5012L51.6587 15.615L51.4977 16.0334L50.9351 16.2624L50.5457 16.5505L50.2843 16.8029L50.1537 16.9044L49.6392 16.9606L49.4741 17.1197L49.2663 17.5971L49.115 17.7974L48.8482 18.0319L48.8468 18.1746L49.2155 18.6958L49.2815 18.8604L49.1673 19.1087L49.1783 19.2842L49.3723 19.4955L49.6034 19.5435L49.829 19.4557L50.1097 19.4639L50.2926 19.5202L50.3683 19.5819L50.3807 19.7438L50.2651 20.0867L50.0987 20.3089L49.3613 20.6491L49.0338 20.8466L48.8523 20.992L48.4547 20.9138L48.2525 20.9193L48.097 21.0318L48.0021 21.1278L47.7352 21.1524L47.3583 21.2101L47.2001 21.2745L47.0776 21.4432L46.9758 21.6833L47.0611 21.9713L47.1794 22.2292L47.1739 22.4651L47.2647 23.1222L47.1464 23.2758L46.8933 23.4486L46.592 23.7559L46.2536 24.1825L46.3072 24.3045L47.1162 25.1989L47.9388 26.1083L48.7573 27.0122L48.8729 27.052L49.027 27.1562L49.17 27.4717L49.287 27.8078L49.2897 27.9806L49.1976 28.1987L48.9981 28.4497L48.756 28.6527L48.4024 28.8256L48.1204 28.9888L47.8879 29.4181L47.7462 29.569L47.6169 29.6294L47.361 29.6856L46.9483 29.6718L46.6759 29.6389L46.3375 29.9599L45.9069 30.0779L45.618 30.5168L44.589 30.8652L43.582 31.1354L43.3055 31.2424L42.3108 31.0189L42.0715 31.0888L41.7963 31.2973L41.5418 31.4578L41.3272 31.4674L41.147 31.5511L41.0397 31.8487L40.9448 32.8733L40.5871 33.1778L40.1565 33.1765L39.8607 32.8212L39.5099 32.5537L38.8978 31.9186L38.7271 31.835L38.569 31.8391L38.0008 32.0284L37.7311 31.9461L37.5138 31.8474L37.1506 31.8789L36.504 31.8857L36.0913 31.8912L35.8905 31.7184L35.7034 31.3631L35.5782 31.2356L35.431 31.1327L35.1875 31.0806L34.1461 31.0819H33.9494L33.8063 31.0134L33.6054 30.7088L33.3867 30.5662L33.1294 30.5607L33.0166 30.7294L33.4624 31.2767L33.5917 31.5744L33.9824 32.0037L35.1118 32.9131L35.321 33.2012L35.2976 33.5701L35.2907 34.1339L35.3292 34.6675L35.6195 35.4329L36.0267 36.2106L36.1381 36.7072L36.0625 37.0734L35.984 37.2695L35.9923 37.3559L36.0762 37.4341L36.4655 37.5466L37.2827 37.6166H37.7766L38.5305 37.7016L38.5868 37.9746L38.5126 38.4258L38.364 38.6823L38.2429 38.7564L37.833 38.8154L37.401 39.0925L36.7737 39.3654L36.416 39.4025L36.2674 39.456L36.1409 39.5383L36.0363 39.6425L35.9153 40.1555L35.7309 40.7343L35.3828 41.0773L35.0004 41.3612L34.6111 41.3927L34.2988 41.3694L34.1433 41.4531L33.9191 41.6863L33.5986 41.9771L33.3509 42.1321L33.018 42.117L32.6617 42.2596L32.2119 42.4942L31.9134 42.6862L31.6588 43.0154L31.2943 43.3597L30.9201 43.6025L30.7413 43.9015L30.4854 44.2801L30.1662 44.2925L30.1401 44.0647L30.2928 43.6985L30.1263 43.383L29.8223 43.2129L29.6792 43.1622L29.5375 43.1828L29.1771 43.3392L28.7355 43.6231L28.4631 43.8274L28.2169 43.9207L27.7106 44.0058L27.2841 44.0497L27.1081 43.992L26.7916 43.7836L26.0584 43.1306L25.0665 42.2473L24.9909 41.9908L25.0335 41.7302L24.8533 41.3488L24.7474 40.9428L24.6579 40.8029L24.6318 40.4984L24.4172 39.9511L24.2411 39.5026L24.0788 39.2749L24.1476 39.0801L24.0788 38.8867L23.9481 38.729L23.7555 38.2201L23.8229 38.0006L23.772 37.7812L23.6097 37.6303L23.3799 37.4684L23.0731 37.131L22.7072 36.81L22.5201 36.6838L22.3922 36.6331L22.2807 36.3286L22.1954 36.2353L22.0084 36.2106L21.6246 36.083L21.2669 36.2353L21.2586 35.9994L21.3604 35.8567L22.5958 34.7292L23.2176 34.2107L23.285 34.1339L23.34 34.0146L23.3827 33.8541L23.241 33.6703L22.6577 32.7992L22.4555 32.6347L22.256 32.5002L22.0276 32.134L21.7539 31.2822L21.5571 30.8542L21.498 30.525L21.5104 30.1533L21.4374 29.868L21.2792 29.6691V29.0615L21.4374 28.0437L21.476 27.2701L21.3962 26.7406L21.5379 26.3373L21.8997 26.0603L22.1019 25.6323L22.1446 25.0535L22.3619 24.5775L22.7526 24.2058L22.8861 23.8382L22.7622 23.4747L22.7224 23.2429L22.3908 23.007L21.7759 22.841L21.2669 22.8218L20.9587 23.007L20.1704 23.1784L18.9021 23.3361H17.8799L17.1054 23.177L16.5166 23.2305L16.1121 23.4966L15.8274 23.557L15.6623 23.4116L15.4834 23.3718L15.2124 23.4637L15.1657 23.4212L14.5645 22.7038L14.0087 22.0386L13.3704 21.2457L12.6344 20.3308L12.5023 20.2705L12.274 20.276L11.9727 20.2924L11.5049 20.1978L11.1844 20.0647L10.934 19.9358L10.4718 19.7726L10.1554 19.7438L9.87062 19.7918L9.08785 20.1113L8.64351 20.1415L8.29959 20.147L7.37512 19.9893L6.74366 19.9632L6.00904 20.0675L5.69401 20.1265L5.25377 19.9632L4.95389 19.715L4.67462 19.1251L4.47789 18.6615L4.13535 18.5682L3.75566 18.4887L3.56858 18.3351L3.45577 18.0676L3.42823 17.7247L3.46677 17.1664L3.50254 16.9661L3.55481 16.364L3.76393 16.0485L3.89596 15.8962L3.86985 15.6425L3.76943 15.124L3.66762 14.7564L3.24666 14.3408L2.70739 13.8072L2.47489 12.9526L2.20112 11.9431L1.9865 11.8416L1.78431 11.8924L1.5697 11.8416L1.37985 11.4356L1.19 11.3588L0.887349 11.5014L0.668619 11.6125L0.114193 11.714L0 11.6125L0.0385402 11.4863L0.272427 11.1174L0.54754 10.6455L0.868079 10.2162L1.16523 9.77588L1.38808 9.30675L1.53943 8.37265L1.64396 7.72797L1.91912 6.57849L2.42123 5.66088L2.61108 5.23839L3.06643 4.68835L3.27554 4.38935L3.55343 4.15342L4.31693 3.83382L5.22905 2.25227L5.43812 1.9999L6.35985 1.76398L7.06831 1.58017L7.59247 1.38678L7.76443 1.28389L7.90339 1.23587L7.7892 1.41968L7.53743 1.65288L7.25266 1.7955L5.78481 2.15352L5.63485 2.22896L5.44362 2.3771L5.44228 2.71725L5.48216 2.98336L5.91412 3.85848L6.08335 4.07385L6.66112 4.54707L6.52904 4.61292L6.31581 4.62112L6.47128 5.24115L6.8262 5.66637L6.8427 5.93381L6.57031 6.76506L6.0737 7.26161L5.72155 7.83906L5.44778 8.06812L4.84108 9.20386L5.30193 9.88011L5.36797 10.223L5.76693 10.71L6.02693 10.8691L6.20028 11.0666L6.12047 11.3985L6.28004 11.8484L6.48643 12.0857L6.74505 12.1804H7.06558L7.98593 11.88L8.20466 11.7456L8.34497 11.5055L8.80581 11.0186L8.83474 10.389L8.93378 9.63184L8.82097 9.13802L8.33674 8.43301L8.12485 7.93233L7.64474 7.46597L7.35035 6.66632L7.22928 6.41666L7.13851 6.07237L7.03531 5.46196L7.35724 5.23977L7.3242 4.73913L8.11662 4.60057L9.83074 3.78581L10.8914 3.58007L12.0992 3.14523L12.3799 2.9299L12.622 2.57187L12.8105 2.53072L13.4406 2.86678L13.7514 2.7502L13.8739 2.48819L13.7019 1.97796H13.3401L12.2519 2.16311L12.146 1.94364V1.75025L11.8888 1.14123L12.0484 0.683112L12.212 0.311354L12.5243 0.161872L12.981 0L13.3264 0.248271L13.5355 0.484194L13.6497 0.713251L13.728 1.33462L13.9138 1.96285L14.1091 2.39903L14.4201 2.72826L14.658 2.70628L14.8286 2.65145L15.9608 2.57736L16.6487 2.80231L17.5236 2.91617L18.3407 3.3935L19.1813 3.97234L19.3959 4.39483L19.4661 4.79811L19.6697 5.06831L19.4674 5.34677L19.5775 5.81036L19.8182 6.27811L20.1814 6.57577L21.2173 6.65669L22.3371 6.45643L24.0678 6.274L24.6249 6.11762L27.4891 6.0326L28.0353 6.25755L28.0889 6.48113L28.0944 6.65259L29.0161 7.48928L29.7728 7.60314L30.4152 7.87062L31.0797 8.01466L31.8061 8.21764L32.2146 8.19161L32.5214 8.12028L32.8818 8.10793L35.4379 6.7088L36.8081 6.74447L37.0186 6.65397L37.2001 6.53186L36.6953 6.31925L35.5548 6.23696L35.2095 6.37962L35.0142 6.01887L35.3856 6.02845L36.654 5.90777L38.1081 5.98731L39.2926 5.73083L39.8883 5.6883L40.2322 5.73903L41.1759 5.57306L42.9519 5.76922L44.3524 5.60739L44.19 5.83916L43.7306 5.98048L42.9863 6.02435L42.4181 6.36317L41.2075 6.30142L40.3573 6.42353L40.6298 6.51817V6.86519L40.7453 6.93514L40.8677 6.9379L41.1566 7.19576L41.235 7.36445L41.3286 7.71838L41.2006 8.10106L41.0246 8.27252L41.3699 8.21492L41.5652 8.03522L41.5363 7.85417L41.5652 7.64429L41.7592 7.71013L41.8954 7.80478L42.337 8.80611L42.6479 9.33145L42.7277 9.31224L42.802 9.29302L42.8941 9.1929L43.0317 8.94601L43.15 9.10239L43.2215 9.16271L43.2931 9.18193L43.2271 8.95835L43.3151 8.67166L43.2848 8.57153L43.4224 8.54959L43.5875 8.58802L43.8213 8.66755L44.2382 8.99674L44.5133 9.33832L44.5367 9.52895L44.6372 9.63594L44.8173 9.74842L44.9054 9.92402L44.9219 9.64691L44.816 9.44531L44.7898 9.21487L45.3319 9.20524L45.4736 8.90209L45.7693 9.08456L46.5535 9.91716L46.8424 10.0543L47.6967 10.2134L48.2346 10.614L48.5496 10.9733L48.3625 11.3492L47.8604 11.5371L47.6595 11.7716L47.544 12.0021L47.5426 12.2339L47.3899 12.5027L47.3679 12.5974L47.2771 12.9759L47.0707 13.4327L46.7956 13.9169L45.3621 13.9279L45.7157 14.1268L46.0417 14.2708L46.5769 14.6508L47.002 14.3518L47.6114 14.3298L48.2703 13.9979L48.5193 13.9457L49.752 14.1186L50.0491 13.8758L50.2967 13.8044L50.964 13.8497L51.5569 14.1172ZM36.7627 4.09444L36.8865 4.60329L36.8493 4.69932L36.4999 5.04223L36.2069 5.06693L35.9703 5.05458L35.7915 4.98874L35.5617 4.76516L35.3375 4.83239L34.7831 4.7542L34.629 4.676L34.8367 4.40169L35.2178 4.29056L35.3581 4.26724L35.4695 4.43598L35.7474 4.58136L36.0735 4.59647L36.1546 4.33719L36.5962 3.95178L36.7627 4.09444ZM31.5006 4.96957L31.2929 5.05735L30.9118 4.96957L30.7206 4.84746L30.8417 4.70756H31.154L31.447 4.87764L31.5006 4.96957ZM48.4547 11.8361L47.9911 11.9637L47.998 11.8608L48.1218 11.6811L48.3625 11.6304L48.4533 11.5686L48.606 11.5275L48.6941 11.5343L48.7821 11.5851L48.5716 11.6866L48.4547 11.8361ZM47.7723 12.8868L47.533 12.965L47.4972 12.5768L47.5701 12.4726L47.9773 12.1598L48.0901 12.1008L48.1727 12.1667L48.152 12.2503L48.3488 12.3916L48.3006 12.5699L48.0888 12.7647L47.7723 12.8868Z" fill="var(--fill-0, #71B219)" stroke="var(--stroke-0, white)" mask="url(#path-1-inside-1_0_200)"/>
</g>
</svg>
