<svg preserveAspectRatio="none" width="100%" height="100%" overflow="visible" style="display: block;" viewBox="0 0 1.62746 1.42516" fill="none" xmlns="http://www.w3.org/2000/svg">
<g id="VG">
<mask id="path-1-inside-1_0_253" fill="white">
<path d="M1.57242 0.0480133L1.62746 0.183807L1.59447 0.181044L1.37435 0.0877802L1.20373 0.0809152L1.13358 0.0562178L1.09508 0.00548365L1.43623 0L1.57242 0.0480133ZM1.15835 1.16178L1.05793 1.19058L0.993272 1.18376L0.971273 1.12611L1.04004 0.965624L1.43212 0.947792L1.15835 1.16178ZM0.392078 1.41005L0.0894234 1.42516L0 1.37439L0.170618 1.24956L0.487001 1.23449L0.579195 1.26739L0.392078 1.41005Z"/>
</mask>
<path d="M1.57242 0.0480133L1.62746 0.183807L1.59447 0.181044L1.37435 0.0877802L1.20373 0.0809152L1.13358 0.0562178L1.09508 0.00548365L1.43623 0L1.57242 0.0480133ZM1.15835 1.16178L1.05793 1.19058L0.993272 1.18376L0.971273 1.12611L1.04004 0.965624L1.43212 0.947792L1.15835 1.16178ZM0.392078 1.41005L0.0894234 1.42516L0 1.37439L0.170618 1.24956L0.487001 1.23449L0.579195 1.26739L0.392078 1.41005Z" fill="var(--fill-0, #71B219)"/>
<path d="M1.57242 0.0480133L2.03581 -0.139804L1.95117 -0.348625L1.73867 -0.423541L1.57242 0.0480133ZM1.62746 0.183807L1.58575 0.682064L2.39644 0.749937L2.09085 -0.0040108L1.62746 0.183807ZM1.59447 0.181044L1.3994 0.641424L1.47305 0.672628L1.55275 0.679301L1.59447 0.181044ZM1.37435 0.0877802L1.56941 -0.3726L1.48551 -0.408152L1.39445 -0.411816L1.37435 0.0877802ZM1.20373 0.0809152L1.0377 0.552542L1.10856 0.57749L1.18363 0.580511L1.20373 0.0809152ZM1.13358 0.0562178L0.735271 0.358462L0.825988 0.478011L0.967543 0.527845L1.13358 0.0562178ZM1.09508 0.00548365L1.08704 -0.494452L0.100099 -0.478588L0.696773 0.307728L1.09508 0.00548365ZM1.43623 0L1.60247 -0.471554L1.51788 -0.501377L1.4282 -0.499935L1.43623 0ZM1.15835 1.16178L1.29618 1.64241L1.38965 1.6156L1.46626 1.55572L1.15835 1.16178ZM1.05793 1.19058L1.00545 1.68782L1.10222 1.69803L1.19576 1.67121L1.05793 1.19058ZM0.993272 1.18376L0.526137 1.36204L0.635574 1.64878L0.940796 1.68099L0.993272 1.18376ZM0.971273 1.12611L0.511686 0.929189L0.431955 1.11527L0.504138 1.3044L0.971273 1.12611ZM1.04004 0.965624L1.01732 0.46614L0.703989 0.480391L0.580454 0.768698L1.04004 0.965624ZM1.43212 0.947792L1.74003 1.34173L2.9741 0.377143L1.4094 0.448308L1.43212 0.947792ZM0.392078 1.41005L0.417011 1.90943L0.571898 1.9017L0.695224 1.80767L0.392078 1.41005ZM0.0894234 1.42516L-0.157461 1.85996L-0.0309476 1.93179L0.114357 1.92454L0.0894234 1.42516ZM0 1.37439L-0.29523 0.970852L-0.919258 1.4274L-0.246884 1.80918L0 1.37439ZM0.170618 1.24956L0.14683 0.750126L-0.00330516 0.757277L-0.124612 0.846026L0.170618 1.24956ZM0.487001 1.23449L0.655057 0.763579L0.561954 0.730353L0.463212 0.735056L0.487001 1.23449ZM0.579195 1.26739L0.882342 1.66501L1.61524 1.10625L0.747252 0.796481L0.579195 1.26739ZM1.57242 0.0480133L1.10904 0.235831L1.16408 0.371624L1.62746 0.183807L2.09085 -0.0040108L2.03581 -0.139804L1.57242 0.0480133ZM1.62746 0.183807L1.66918 -0.31445L1.63618 -0.317213L1.59447 0.181044L1.55275 0.679301L1.58575 0.682064L1.62746 0.183807ZM1.59447 0.181044L1.78953 -0.279336L1.56941 -0.3726L1.37435 0.0877802L1.17929 0.54816L1.3994 0.641424L1.59447 0.181044ZM1.37435 0.0877802L1.39445 -0.411816L1.22383 -0.418681L1.20373 0.0809152L1.18363 0.580511L1.35425 0.587376L1.37435 0.0877802ZM1.20373 0.0809152L1.36977 -0.390712L1.29961 -0.415409L1.13358 0.0562178L0.967543 0.527845L1.0377 0.552542L1.20373 0.0809152ZM1.13358 0.0562178L1.53189 -0.246026L1.49339 -0.296761L1.09508 0.00548365L0.696773 0.307728L0.735271 0.358462L1.13358 0.0562178ZM1.09508 0.00548365L1.10312 0.505419L1.44427 0.499935L1.43623 0L1.4282 -0.499935L1.08704 -0.494452L1.09508 0.00548365ZM1.43623 0L1.26999 0.471554L1.40618 0.519568L1.57242 0.0480133L1.73867 -0.423541L1.60247 -0.471554L1.43623 0ZM1.15835 1.16178L1.02051 0.681153L0.92009 0.709953L1.05793 1.19058L1.19576 1.67121L1.29618 1.64241L1.15835 1.16178ZM1.05793 1.19058L1.1104 0.69334L1.04575 0.686517L0.993272 1.18376L0.940796 1.68099L1.00545 1.68782L1.05793 1.19058ZM0.993272 1.18376L1.46041 1.00547L1.43841 0.947831L0.971273 1.12611L0.504138 1.3044L0.526137 1.36204L0.993272 1.18376ZM0.971273 1.12611L1.43086 1.32304L1.49963 1.16255L1.04004 0.965624L0.580454 0.768698L0.511686 0.929189L0.971273 1.12611ZM1.04004 0.965624L1.06276 1.46511L1.45484 1.44728L1.43212 0.947792L1.4094 0.448308L1.01732 0.46614L1.04004 0.965624ZM1.43212 0.947792L1.1242 0.553853L0.850432 0.767841L1.15835 1.16178L1.46626 1.55572L1.74003 1.34173L1.43212 0.947792ZM0.392078 1.41005L0.367144 0.910673L0.0644897 0.925784L0.0894234 1.42516L0.114357 1.92454L0.417011 1.90943L0.392078 1.41005ZM0.0894234 1.42516L0.336308 0.990365L0.246884 0.939589L0 1.37439L-0.246884 1.80918L-0.157461 1.85996L0.0894234 1.42516ZM0 1.37439L0.29523 1.77792L0.465848 1.65309L0.170618 1.24956L-0.124612 0.846026L-0.29523 0.970852L0 1.37439ZM0.170618 1.24956L0.194407 1.74899L0.510789 1.73392L0.487001 1.23449L0.463212 0.735056L0.14683 0.750126L0.170618 1.24956ZM0.487001 1.23449L0.318944 1.7054L0.411139 1.7383L0.579195 1.26739L0.747252 0.796481L0.655057 0.763579L0.487001 1.23449ZM0.579195 1.26739L0.276049 0.869771L0.0889312 1.01243L0.392078 1.41005L0.695224 1.80767L0.882342 1.66501L0.579195 1.26739Z" fill="var(--stroke-0, white)" mask="url(#path-1-inside-1_0_253)"/>
</g>
</svg>
