<svg preserveAspectRatio="none" width="100%" height="100%" overflow="visible" style="display: block;" viewBox="0 0 2 1" fill="none" xmlns="http://www.w3.org/2000/svg"><g id="VG"><mask id="path-1-inside-1_0_253" fill="white"><path d="M2 0L2 0L2 0L1 0L1 0L1 0L1 0L1 0L2 0ZM1 1L1 1L1 1L1 1L1 1L1 1L1 1ZM0 1L0 1L0 1L0 1L0 1L1 1L0 1Z"/></mask><path d="M2 0L2 0L2 0L1 0L1 0L1 0L1 0L1 0L2 0ZM1 1L1 1L1 1L1 1L1 1L1 1L1 1ZM0 1L0 1L0 1L0 1L0 1L1 1L0 1Z" fill="var(--fill-0,#71B219)"/><path d="M2 0L2 0L2 0L2 0L2 0ZM2 0L2 1L2 1L2 0L2 0ZM2 0L1 1L2 1L2 1L2 0ZM1 0L2 0L2 0L1 0L1 0ZM1 0L1 1L1 1L1 1L1 0ZM1 0L1 0L1 0L1 0L1 0ZM1 0L1 0L0 0L1 0L1 0ZM1 0L2 0L2 0L1 0L1 0ZM1 1L1 2L1 2L2 2L1 1ZM1 1L1 2L1 2L1 2L1 1ZM1 1L0 1L1 2L1 2L1 1ZM1 1L0 1L0 1L0 1L1 1ZM1 1L1 0L1 0L1 1L1 1ZM1 1L2 1L3 0L1 0L1 1ZM0 1L0 2L1 2L1 2L0 1ZM0 1L0 2L0 2L0 2L0 1ZM0 1L0 1L-1 1L0 2L0 1ZM0 1L0 1L0 1L0 1L0 1ZM0 1L1 1L1 1L0 1L0 1ZM1 1L1 2L2 1L1 1L1 1ZM2 0L1 0L1 0L2 0L2 0L2 0L2 0ZM2 0L2 0L2 0L2 0L2 1L2 1L2 0ZM2 0L2 0L2 0L1 0L1 0L1 1L2 0ZM1 0L1 0L1 0L1 0L1 1L1 1L1 0ZM1 0L1 0L1 0L1 0L1 0L1 1L1 0ZM1 0L2 0L2 0L1 0L1 0L1 0L1 0ZM1 0L1 0L1 0L1 0L1 0L1 0L1 0ZM1 0L1 0L1 0L2 0L2 0L2 0L1 0ZM1 1L1 1L1 1L1 1L1 2L1 2L1 1ZM1 1L1 1L1 1L1 1L1 2L1 2L1 1ZM1 1L2 1L1 1L1 1L0 1L0 1L1 1ZM1 1L1 1L2 1L1 1L1 1L0 1L1 1ZM1 1L1 2L2 1L1 1L1 0L1 0L1 1ZM1 1L1 1L1 1L1 1L2 2L2 1L1 1ZM0 1L0 1L0 1L0 1L0 2L0 2L0 1ZM0 1L0 1L0 1L0 1L0 2L0 2L0 1ZM0 1L0 2L0 2L0 1L0 1L0 1L0 1ZM0 1L0 2L0 2L0 1L0 1L0 1L0 1ZM0 1L0 2L0 2L1 1L1 1L1 1L0 1ZM1 1L0 1L0 1L0 1L1 2L1 2L1 1Z" fill="var(--stroke-0,white)" mask="url(#path-1-inside-1_0_253)"/></g></svg>