<svg preserveAspectRatio="none" width="100%" height="100%" overflow="visible" style="display: block;" viewBox="0 0 1.71139 2.7502" fill="none" xmlns="http://www.w3.org/2000/svg">
<g id="VI">
<mask id="path-1-inside-1_0_15" fill="white">
<path d="M0.689232 0.222234L0.400348 0.257899L0 0.0713293L0.315039 0L0.518656 0.0452924L0.689232 0.222234ZM1.40323 0.124826L1.14735 0.23182L0.975387 0.216751L0.909348 0.178323L1.04554 0.0534969L1.40323 0.124826ZM0.996001 2.37848L1.31931 2.55542H1.71139L1.30277 2.73236L0.519999 2.7502L0.537884 2.46626L0.996001 2.37848Z"/>
</mask>
<path d="M0.689232 0.222234L0.400348 0.257899L0 0.0713293L0.315039 0L0.518656 0.0452924L0.689232 0.222234ZM1.40323 0.124826L1.14735 0.23182L0.975387 0.216751L0.909348 0.178323L1.04554 0.0534969L1.40323 0.124826ZM0.996001 2.37848L1.31931 2.55542H1.71139L1.30277 2.73236L0.519999 2.7502L0.537884 2.46626L0.996001 2.37848Z" fill="var(--fill-0, #71B219)"/>
<path d="M0.689232 0.222234L0.750495 0.718467L1.74389 0.595826L1.0492 -0.124785L0.689232 0.222234ZM0.400348 0.257899L0.189147 0.711103L0.319205 0.771712L0.461612 0.754131L0.400348 0.257899ZM0 0.0713293L-0.110412 -0.416328L-1.53702 -0.0933231L-0.211201 0.524533L0 0.0713293ZM0.315039 0L0.423605 -0.488071L0.31407 -0.512436L0.204627 -0.487657L0.315039 0ZM0.518656 0.0452924L0.878625 -0.301727L0.774155 -0.410095L0.627222 -0.442779L0.518656 0.0452924ZM1.40323 0.124826L1.59612 0.586124L3.10642 -0.0453796L1.50102 -0.365519L1.40323 0.124826ZM1.14735 0.23182L1.1037 0.729911L1.2265 0.740673L1.34023 0.693118L1.14735 0.23182ZM0.975387 0.216751L0.723917 0.648911L0.820463 0.70509L0.931738 0.714842L0.975387 0.216751ZM0.909348 0.178323L0.57151 -0.190276L0.0706514 0.268783L0.657878 0.610484L0.909348 0.178323ZM1.04554 0.0534969L1.14332 -0.436849L0.89464 -0.486439L0.707703 -0.315103L1.04554 0.0534969ZM0.996001 2.37848L1.23604 1.93987L1.0784 1.85359L0.901907 1.88741L0.996001 2.37848ZM1.31931 2.55542L1.07927 2.99403L1.19144 3.05542H1.31931V2.55542ZM1.71139 2.55542L1.91007 3.01425L1.71139 2.05542V2.55542ZM1.30277 2.73236L1.31416 3.23223L1.41181 3.23001L1.50145 3.19119L1.30277 2.73236ZM0.519999 2.7502L0.0209883 2.71876L-0.0132592 3.26247L0.531387 3.25007L0.519999 2.7502ZM0.537884 2.46626L0.44379 1.97519L0.0632316 2.04811L0.038873 2.43483L0.537884 2.46626ZM0.689232 0.222234L0.627969 -0.273998L0.339085 -0.238334L0.400348 0.257899L0.461612 0.754131L0.750495 0.718467L0.689232 0.222234ZM0.400348 0.257899L0.61155 -0.195305L0.211201 -0.381875L0 0.0713293L-0.211201 0.524533L0.189147 0.711103L0.400348 0.257899ZM0 0.0713293L0.110412 0.558986L0.425451 0.487657L0.315039 0L0.204627 -0.487657L-0.110412 -0.416328L0 0.0713293ZM0.315039 0L0.206473 0.488071L0.41009 0.533363L0.518656 0.0452924L0.627222 -0.442779L0.423605 -0.488071L0.315039 0ZM0.518656 0.0452924L0.158687 0.392311L0.329263 0.569253L0.689232 0.222234L1.0492 -0.124785L0.878625 -0.301727L0.518656 0.0452924ZM1.40323 0.124826L1.21035 -0.336472L0.954465 -0.229478L1.14735 0.23182L1.34023 0.693118L1.59612 0.586124L1.40323 0.124826ZM1.14735 0.23182L1.191 -0.266271L1.01904 -0.281341L0.975387 0.216751L0.931738 0.714842L1.1037 0.729911L1.14735 0.23182ZM0.975387 0.216751L1.22686 -0.21541L1.16082 -0.253838L0.909348 0.178323L0.657878 0.610484L0.723917 0.648911L0.975387 0.216751ZM0.909348 0.178323L1.24719 0.546923L1.38338 0.422097L1.04554 0.0534969L0.707703 -0.315103L0.57151 -0.190276L0.909348 0.178323ZM1.04554 0.0534969L0.947758 0.543842L1.30545 0.615172L1.40323 0.124826L1.50102 -0.365519L1.14332 -0.436849L1.04554 0.0534969ZM0.996001 2.37848L0.755957 2.81709L1.07927 2.99403L1.31931 2.55542L1.55935 2.11681L1.23604 1.93987L0.996001 2.37848ZM1.31931 2.55542V3.05542H1.71139V2.55542V2.05542H1.31931V2.55542ZM1.71139 2.55542L1.5127 2.09659L1.10409 2.27353L1.30277 2.73236L1.50145 3.19119L1.91007 3.01425L1.71139 2.55542ZM1.30277 2.73236L1.29138 2.23249L0.508612 2.25032L0.519999 2.7502L0.531387 3.25007L1.31416 3.23223L1.30277 2.73236ZM0.519999 2.7502L1.01901 2.78163L1.0369 2.49769L0.537884 2.46626L0.038873 2.43483L0.0209883 2.71876L0.519999 2.7502ZM0.537884 2.46626L0.631978 2.95733L1.09009 2.86955L0.996001 2.37848L0.901907 1.88741L0.44379 1.97519L0.537884 2.46626Z" fill="var(--stroke-0, white)" mask="url(#path-1-inside-1_0_15)"/>
</g>
</svg>
