<svg preserveAspectRatio="none" width="100%" height="100%" overflow="visible" style="display: block;" viewBox="0 0 2 3" fill="none" xmlns="http://www.w3.org/2000/svg"><g id="VI"><mask id="path-1-inside-1_0_15" fill="white"><path d="M1 0L0 0L0 0L0 0L0 0L1 0ZM1 0L1 0L1 0L1 0L1 0L1 0ZM1 2L1 3H2L1 3L0 3L0 2L1 2Z"/></mask><path d="M1 0L0 0L0 0L0 0L0 0L1 0ZM1 0L1 0L1 0L1 0L1 0L1 0ZM1 2L1 3H2L1 3L0 3L0 2L1 2Z" fill="var(--fill-0,#71B219)"/><path d="M1 0L1 1L2 1L1 0L1 0ZM0 0L0 1L0 1L0 1L0 0ZM0 0L0 0L-2 0L0 0L0 0ZM0 0L0 0L0 0L0 0L0 0ZM0 0L1 0L1 0L1 0L0 0ZM1 0L2 1L3 0L2 0L1 0ZM1 0L1 1L1 1L1 1L1 0ZM1 0L1 1L1 1L1 1L1 0ZM1 0L1 0L0 0L1 1L1 0ZM1 0L1 0L1 0L1 0L1 0ZM1 2L1 2L1 2L1 2L1 2ZM1 3L1 3L1 3H1V3ZM2 3L2 3L2 2V3ZM1 3L1 3L1 3L2 3L1 3ZM0 3L0 3L0 3L0 3L0 3ZM0 2L0 2L0 2L0 2L0 2ZM1 0L1 0L0 0L0 0L0 1L1 1L1 0ZM0 0L1 0L0 0L0 0L0 0L0 1L0 0ZM0 0L0 1L0 0L0 0L0 0L0 0L0 0ZM0 0L0 0L0 0L0 0L1 0L0 0L0 0ZM0 0L0 0L0 1L1 0L1 0L1 0L0 0ZM1 0L1 0L1 0L1 0L1 1L2 1L1 0ZM1 0L1 0L1 0L1 0L1 1L1 1L1 0ZM1 0L1 0L1 0L1 0L1 1L1 1L1 0ZM1 0L1 0L1 0L1 0L1 0L1 0L1 0ZM1 0L1 0L1 1L1 0L2 0L1 0L1 0ZM1 2L1 3L1 3L1 3L2 2L1 2L1 2ZM1 3V3H2V3V2H1V3ZM2 3L2 2L1 2L1 3L2 3L2 3L2 3ZM1 3L1 2L0 2L0 3L0 3L1 3L1 3ZM0 3L1 3L1 2L0 2L0 2L0 3L0 3ZM0 2L1 3L1 3L1 2L1 2L0 2L0 2Z" fill="var(--stroke-0,white)" mask="url(#path-1-inside-1_0_15)"/></g></svg>