<svg preserveAspectRatio="none" width="100%" height="100%" overflow="visible" style="display: block;" viewBox="0 0 28 59" fill="none" xmlns="http://www.w3.org/2000/svg"><g id="VN"><mask id="path-1-inside-1_0_12" fill="white"><path d="M23 8L22 8L22 8L22 8L21 8L21 8L20 8L20 9L20 9L20 10L19 10L19 10L19 10L19 10L19 10L19 10L18 10L18 10L18 10L18 10L18 10L18 10L18 10L18 11L17 12L17 12L17 13L16 13L16 14L15 14L15 14L14 16L14 16L14 16L14 17L14 17L14 18L14 18L14 19L14 19L14 19L14 20L14 20L15 21L16 21L16 21L16 22L17 22L17 22L17 23L16 23L16 23L17 23L18 24L18 25L19 26L20 26L20 27L21 27L21 27L21 28L22 28L22 28L22 29L22 29L22 29L23 28L23 29L23 29L23 29L24 30L24 30L24 30L24 30L24 30L24 30L24 31L25 32L25 32L26 32L26 32L26 33L26 34L27 35L27 35L27 36L27 36L27 37L27 37L27 37L28 38L28 38L28 39L28 38L28 39L28 40L28 41L28 41L28 42L28 42L28 43L28 43L28 43L28 43L28 43L27 43L28 44L27 44L27 45L28 46L28 46L28 46L27 46L27 46L27 46L27 46L27 46L27 46L27 46L27 47L27 47L27 47L27 47L27 48L26 48L26 48L25 49L25 49L24 49L24 50L23 50L23 50L23 51L22 51L21 51L21 52L20 52L20 52L20 52L20 52L19 52L19 51L19 51L19 51L19 51L19 52L19 52L18 52L18 52L18 51L17 52L17 52L18 52L18 52L18 52L18 52L18 52L17 52L17 52L17 52L17 52L18 53L18 53V53L18 53L18 54L18 54L18 54L17 54L17 54L17 54L16 53L16 53L17 54L17 55L17 55L17 55L17 55L16 55L16 55L15 54L14 53L15 55L16 55L16 55L16 56L16 56L13 57L13 58L12 58L12 58L12 59L11 59L10 59L11 58L10 58L10 57L10 55L11 54L11 54L11 54L12 54L11 54L11 53L11 53L11 53L10 53L10 53L10 53L10 53L10 52L9 52L9 52L9 52L9 52L9 51L10 51L10 51L10 51L11 51L11 51L11 51L11 51L11 50L11 50L11 50L12 50L12 50L12 50L13 50L13 50L13 50L13 50L14 50L14 50L14 50L14 50L14 50L15 50L15 50L15 50L16 50L16 50L16 50L16 49L15 49L14 49L14 48L14 48L14 48L14 47L14 47L14 47L14 47L15 47L15 47L15 47L15 47L16 47L16 47L16 47L16 47L16 47L17 46L16 46L17 46L17 46L18 46L18 46L18 45L19 45L19 45L20 44L20 44L20 44L20 45L20 44L21 44L21 44L21 44L21 43L21 42L21 42L21 42L21 41L21 40L21 40L21 39L21 38L20 38L20 38L20 38L20 37L20 37L20 36L20 36L21 36L21 35L21 35L21 35L21 34L21 34L21 34L21 34L21 34L21 33L21 33L21 33L21 33L21 32L21 32L20 32L20 31L20 31L20 31L20 31L20 30L20 30L20 30L20 30L20 30L20 30L20 30L20 29L19 29L19 29L18 28L18 28L18 28L18 28L18 28L18 28L18 28L18 28L17 28L17 28L17 27L17 27L17 26L17 26L17 26L17 26L16 25L16 25L15 24L15 24L15 24L14 23L14 23L14 22L13 22L13 22L13 22L13 21L13 21L12 21L12 21L12 20L12 20L11 20L11 20L12 20L12 19L12 19L12 19L11 19L10 19L10 18L9 18L9 18L8 17L7 17L7 17L7 17L7 16L7 16L7 16L8 16L7 16L7 15L7 15L8 15L8 15L8 15L9 15L10 15L10 15L10 14L10 14L10 14L11 14L11 13L11 13L10 13L10 13L10 13L10 13L10 13L10 12L10 12L9 12L9 12L9 12L9 12L9 12L9 12L10 11L10 11L9 11L9 11L9 10L8 10L8 10L7 10L7 10L6 10L6 11L6 11L6 11L5 11L4 10L4 10L3 9L3 9L3 8L3 8L3 8L3 7L3 7L3 7L3 7L3 7L3 7L3 6L3 6L2 7L2 7L2 7L2 7L2 7L2 6L2 6L2 6L1 6L1 6L1 5L0 4L0 4L0 4L0 4L1 3L1 3L1 3L1 2L1 2L2 2L2 3L2 3L3 3L3 3L3 4L3 4L3 4L4 4L4 3L4 3L4 3L4 3L4 2L5 2L5 2L5 3L5 3L5 3L6 2L6 2L6 2L7 3L7 3L7 3L7 3L7 3L7 2L8 2L8 2L8 2L8 3L9 3L9 2L10 2L10 2L10 2L10 2L10 2L10 1L10 1L11 1L11 1L11 1L12 0L12 0L12 0L12 0L13 0L13 1L13 1L13 1L14 1L14 2L14 2L15 2L15 2L15 2L15 2L16 2L16 2L16 2L16 2L16 2L17 2L17 2L17 2L18 2L18 3L18 3L17 3L17 3L17 4L17 4L17 4L17 4L17 4L18 5L18 5L18 6L18 6L18 6L18 6L18 6L18 6L18 6L19 6L19 6L19 6L19 6L20 7L20 7L20 7L20 7L21 7L21 7L22 7L22 7L22 7L23 8ZM21 9L21 9L20 9L21 9L21 9L21 9L21 9ZM21 10L21 10L20 10L21 10L21 10L21 10L21 10L21 10ZM18 10L18 10L18 10L18 10L18 10L18 10L18 10ZM19 11L19 11L18 10L19 10L19 10L19 10L19 10L19 11L19 11ZM20 52L19 52L19 52L19 52L20 52L20 52L20 52ZM8 52L8 52L8 53L7 53L7 53L7 53L7 52L7 52L7 52L7 52L7 52L7 52L8 52ZM17 59L17 59L17 58L18 58L18 58L18 58L17 59Z"/></mask><path d="M23 8L22 8L22 8L22 8L21 8L21 8L20 8L20 9L20 9L20 10L19 10L19 10L19 10L19 10L19 10L19 10L18 10L18 10L18 10L18 10L18 10L18 10L18 10L18 11L17 12L17 12L17 13L16 13L16 14L15 14L15 14L14 16L14 16L14 16L14 17L14 17L14 18L14 18L14 19L14 19L14 19L14 20L14 20L15 21L16 21L16 21L16 22L17 22L17 22L17 23L16 23L16 23L17 23L18 24L18 25L19 26L20 26L20 27L21 27L21 27L21 28L22 28L22 28L22 29L22 29L22 29L23 28L23 29L23 29L23 29L24 30L24 30L24 30L24 30L24 30L24 30L24 31L25 32L25 32L26 32L26 32L26 33L26 34L27 35L27 35L27 36L27 36L27 37L27 37L27 37L28 38L28 38L28 39L28 38L28 39L28 40L28 41L28 41L28 42L28 42L28 43L28 43L28 43L28 43L28 43L27 43L28 44L27 44L27 45L28 46L28 46L28 46L27 46L27 46L27 46L27 46L27 46L27 46L27 46L27 47L27 47L27 47L27 47L27 48L26 48L26 48L25 49L25 49L24 49L24 50L23 50L23 50L23 51L22 51L21 51L21 52L20 52L20 52L20 52L20 52L19 52L19 51L19 51L19 51L19 51L19 52L19 52L18 52L18 52L18 51L17 52L17 52L18 52L18 52L18 52L18 52L18 52L17 52L17 52L17 52L17 52L18 53L18 53V53L18 53L18 54L18 54L18 54L17 54L17 54L17 54L16 53L16 53L17 54L17 55L17 55L17 55L17 55L16 55L16 55L15 54L14 53L15 55L16 55L16 55L16 56L16 56L13 57L13 58L12 58L12 58L12 59L11 59L10 59L11 58L10 58L10 57L10 55L11 54L11 54L11 54L12 54L11 54L11 53L11 53L11 53L10 53L10 53L10 53L10 53L10 52L9 52L9 52L9 52L9 52L9 51L10 51L10 51L10 51L11 51L11 51L11 51L11 51L11 50L11 50L11 50L12 50L12 50L12 50L13 50L13 50L13 50L13 50L14 50L14 50L14 50L14 50L14 50L15 50L15 50L15 50L16 50L16 50L16 50L16 49L15 49L14 49L14 48L14 48L14 48L14 47L14 47L14 47L14 47L15 47L15 47L15 47L15 47L16 47L16 47L16 47L16 47L16 47L17 46L16 46L17 46L17 46L18 46L18 46L18 45L19 45L19 45L20 44L20 44L20 44L20 45L20 44L21 44L21 44L21 44L21 43L21 42L21 42L21 42L21 41L21 40L21 40L21 39L21 38L20 38L20 38L20 38L20 37L20 37L20 36L20 36L21 36L21 35L21 35L21 35L21 34L21 34L21 34L21 34L21 34L21 33L21 33L21 33L21 33L21 32L21 32L20 32L20 31L20 31L20 31L20 31L20 30L20 30L20 30L20 30L20 30L20 30L20 30L20 29L19 29L19 29L18 28L18 28L18 28L18 28L18 28L18 28L18 28L18 28L17 28L17 28L17 27L17 27L17 26L17 26L17 26L17 26L16 25L16 25L15 24L15 24L15 24L14 23L14 23L14 22L13 22L13 22L13 22L13 21L13 21L12 21L12 21L12 20L12 20L11 20L11 20L12 20L12 19L12 19L12 19L11 19L10 19L10 18L9 18L9 18L8 17L7 17L7 17L7 17L7 16L7 16L7 16L8 16L7 16L7 15L7 15L8 15L8 15L8 15L9 15L10 15L10 15L10 14L10 14L10 14L11 14L11 13L11 13L10 13L10 13L10 13L10 13L10 13L10 12L10 12L9 12L9 12L9 12L9 12L9 12L9 12L10 11L10 11L9 11L9 11L9 10L8 10L8 10L7 10L7 10L6 10L6 11L6 11L6 11L5 11L4 10L4 10L3 9L3 9L3 8L3 8L3 8L3 7L3 7L3 7L3 7L3 7L3 7L3 6L3 6L2 7L2 7L2 7L2 7L2 7L2 6L2 6L2 6L1 6L1 6L1 5L0 4L0 4L0 4L0 4L1 3L1 3L1 3L1 2L1 2L2 2L2 3L2 3L3 3L3 3L3 4L3 4L3 4L4 4L4 3L4 3L4 3L4 3L4 2L5 2L5 2L5 3L5 3L5 3L6 2L6 2L6 2L7 3L7 3L7 3L7 3L7 3L7 2L8 2L8 2L8 2L8 3L9 3L9 2L10 2L10 2L10 2L10 2L10 2L10 1L10 1L11 1L11 1L11 1L12 0L12 0L12 0L12 0L13 0L13 1L13 1L13 1L14 1L14 2L14 2L15 2L15 2L15 2L15 2L16 2L16 2L16 2L16 2L16 2L17 2L17 2L17 2L18 2L18 3L18 3L17 3L17 3L17 4L17 4L17 4L17 4L17 4L18 5L18 5L18 6L18 6L18 6L18 6L18 6L18 6L18 6L19 6L19 6L19 6L19 6L20 7L20 7L20 7L20 7L21 7L21 7L22 7L22 7L22 7L23 8ZM21 9L21 9L20 9L21 9L21 9L21 9L21 9ZM21 10L21 10L20 10L21 10L21 10L21 10L21 10L21 10ZM18 10L18 10L18 10L18 10L18 10L18 10L18 10ZM19 11L19 11L18 10L19 10L19 10L19 10L19 10L19 11L19 11ZM20 52L19 52L19 52L19 52L20 52L20 52L20 52ZM8 52L8 52L8 53L7 53L7 53L7 53L7 52L7 52L7 52L7 52L7 52L7 52L8 52ZM17 59L17 59L17 58L18 58L18 58L18 58L17 59Z" fill="var(--fill-0,#71B219)" stroke="var(--stroke-0,white)" mask="url(#path-1-inside-1_0_12)"/></g></svg>