<svg preserveAspectRatio="none" width="100%" height="100%" overflow="visible" style="display: block;" viewBox="0 0 28.2485 58.9377" fill="none" xmlns="http://www.w3.org/2000/svg">
<g id="VN">
<mask id="path-1-inside-1_0_12" fill="white">
<path d="M22.5655 7.61139L22.3839 7.64839L21.9341 7.65525L21.5406 8.02973L21.2696 8.18608L20.8446 8.31639L20.3933 8.52766L20.2626 8.89937L20.2502 9.1682L20.1774 9.46858L19.4454 9.90481L19.2418 9.85951L19.1002 9.69768L18.8842 9.73059L18.7384 9.8115L18.5651 9.80053L18.371 9.89932L18.1165 9.86914L17.8827 9.73059L17.7478 9.69492L17.5869 9.69354L17.5566 9.85679L17.796 10.4891L17.8579 10.7799L17.0752 11.6331L17.1618 12.1818L16.95 12.6028L16.4767 12.9417L15.5894 13.814L15.189 13.8332L14.8878 14.0308L14.2302 15.46L14.2234 15.9497L14.1202 16.3077L14.1422 16.6507L13.8547 17.3255L13.5547 17.6108L13.4887 17.9784L13.9138 18.7342L13.962 18.8673L14.2096 19.2733L14.3292 19.5627L14.5191 19.8521L15.2028 20.6024L15.5082 20.8315L15.8756 20.9865L16.5414 21.6613L16.877 22.0907L16.7244 22.3828L16.8 23.0015L16.3254 22.819L16.3804 22.8917L16.9459 23.2305L17.7905 24.4156L18.5265 25L19.2735 25.6638L19.5074 26.2935L20.1815 26.7104L20.9312 27.314L20.8996 27.4498L21.1018 27.6116L21.6053 27.9312L21.9121 28.27L22.0304 28.591L22.2161 28.6431L22.4266 28.5636L22.6357 28.5334L22.7842 28.5581L23.0099 28.9106L23.3249 29.2247L23.4762 29.5141L23.6001 29.4757L23.7018 29.5196L23.728 29.761L23.7734 29.9201L24.1957 30.3838L24.3966 30.8199L24.9001 31.5277L25.2729 31.9296L25.5371 32.1559L25.841 32.3493L26.1382 33.1326L26.2991 33.8431L26.6169 34.6291L26.8577 34.972L26.866 35.618L27.0613 36.2833L27.269 36.7318L27.3309 37.19L27.3956 37.4176L27.4754 37.5891L27.7024 38.3641L27.6433 38.7248L27.485 38.3723L27.5056 39.4121L27.6446 39.9621L27.5827 40.6356L27.7271 40.8715L27.9857 41.6328L28.1687 41.9057L28.1523 42.8344L28.2485 43.3035L28.0036 43.0236L27.8262 42.7054L27.5882 42.8741L27.375 43.1224L27.7065 44.121L27.3296 44.0263L27.3626 45.3678L27.5194 45.6806L27.5304 45.8301L27.485 46.0084L27.3804 45.8122L27.3584 45.6106L27.2993 45.6559L27.302 45.7601L27.1755 45.996L27.1384 46.2882L27.2746 46.5379L27.2979 46.7272L27.2002 46.9617L27.0434 47.21L26.6844 47.2429L26.6018 47.7284L26.4794 48.2428L25.8383 48.3251L25.3733 48.7792L24.7982 48.9479L24.2851 49.3964L23.7197 49.812L23.351 49.8669L23.0361 49.9561L22.6742 50.6446L22.0716 50.7242L20.989 51.2865L20.6244 51.5582L20.2929 51.6638L19.8182 51.8983L19.7165 51.8146L19.5583 51.613L19.1483 51.5088L18.9474 51.2824L18.8897 50.9916L18.836 50.8778L18.748 51.0424L18.6792 51.7337L18.6063 51.8901L18.4316 51.9587L18.0863 51.7625L17.7575 51.3634L17.2884 51.6391L17.4314 51.672L17.6447 51.6501L17.8098 51.7186L17.9501 51.9847L17.9445 52.1288L17.8717 52.2975L17.4328 52.3249L16.8468 52.2659L16.7395 52.2879L17.2746 52.5471L17.763 52.6966L17.979 52.8598V52.9956L17.7052 53.2138L17.4933 53.4812L17.4892 53.6472L17.4851 53.8324L17.2471 53.9915L17.0999 53.9599L16.6817 53.6815L15.4752 52.5855L15.6568 52.8955L16.9073 54.141L17.1274 54.5511L17.1577 54.8405L17.0284 54.986L16.8165 55.1574L16.4066 55.1698L15.7352 54.7075L14.6608 53.5965L14.2949 53.4455L15.3817 54.7157L15.5605 55.0243L15.7435 55.3796L15.6912 55.5908L15.5976 55.7897L13.0223 56.9653L12.6372 57.4714L12.3318 58.0955L11.8255 58.4425L11.5283 58.7594L10.6699 58.9377L10.2008 58.8815L10.6878 58.3054L10.3865 58.0914L10.3714 56.6059L10.4897 54.975L10.7139 54.1602L11.0372 53.9572L11.4444 53.8324L11.4541 53.6609L11.4141 53.4648L11.1954 53.1863L10.9561 53.0574L10.5984 53.0011L10.3232 52.6596L10.1142 52.6733L9.78947 52.7872L9.59274 52.6404L9.51986 52.4113L9.21859 52.126L8.87189 51.8489L9.02874 51.8051L9.21028 51.646L9.40566 51.4415L9.88989 51.4127L10.3756 51.4224L10.5117 51.3689L10.7084 51.1521L11.0262 50.8737L11.2684 50.7187L11.3261 50.5939L11.2298 50.3003L11.1762 49.9986L11.2656 49.9039L11.7045 49.9574L12.1873 50.0987L12.3042 50.1618L12.5807 49.7914L12.6564 49.7462L12.838 49.7476L13.3168 49.679L13.7845 49.5816L14.006 49.598L14.2206 49.8463L14.3843 50.0905L14.4695 50.1097L14.713 50.0054L14.9139 50.1357L15.3349 50.3483L15.5866 50.358L15.4614 49.8628L15.6017 49.5103L15.5743 49.4142L15.3377 49.2524L14.5342 48.605L14.3967 48.4116L14.4159 48.107L14.3884 47.6599L14.3169 47.3787L14.3292 47.2141L14.3788 47.0824L14.526 47.0303L14.669 47.0124L14.7832 46.8972L14.9759 46.6023L15.35 46.6284L15.8756 46.7957L16.2635 46.9L16.4932 46.8794L16.5441 46.8369L16.5372 46.6778L16.5647 46.0002L16.5496 45.8561L16.8811 45.7903L17.3874 45.7752L17.6543 45.7354L17.9033 45.4501L18.5444 45.3514L19.008 44.9659L19.4262 44.5695L19.6312 44.4639L19.8912 44.3953L20.0865 44.4049L20.3314 44.634L20.5336 44.4954L20.7675 44.2266L20.8899 43.9632L20.9573 43.5394L20.912 42.8892L20.7881 42.3803L20.6712 41.999L20.6478 41.6177L20.9174 40.851L21.1499 40.0156L21.1059 39.6864L20.8528 39.1652L20.5955 38.5301L20.3149 37.8305L20.2089 37.7263L20.1333 37.5315L20.0906 37.3038L20.202 36.5892L20.2186 36.3491L20.5419 36.0227L20.7152 35.6496L20.8776 35.2367L20.8157 35.0186L20.7937 34.5742L20.8349 34.3589L20.7579 34.1846L20.6643 33.9309L20.7262 33.7663L20.9532 33.625L21.0866 33.3822L21.2572 33.0983L21.3329 32.8391L21.2105 32.6223L20.989 32.2972L20.5845 32.0037L20.1182 31.6278L19.8898 31.3961L19.7082 31.1601L19.5417 30.8858L19.451 30.6663L19.539 30.5223L20.202 30.1917L20.3231 30.0724L20.3933 29.8886L20.341 29.7089L20.1622 29.6115L19.9544 29.5457L19.6491 29.3372L19.0795 28.7652L18.8181 28.6376L18.543 28.473L18.3972 28.3002L18.2376 27.8256L18.1647 27.7831L18.0065 27.9271L17.8057 28.0766L17.6378 28.0506L17.4851 27.9161L17.4122 27.7351L17.2429 27.4868L17.0586 27.2852L17.0105 26.6048L16.9816 26.3826L16.8908 26.0726L16.7477 25.9615L16.5964 25.8792L16.2387 25.3141L15.9911 25.0219L14.9759 24.2263L14.8492 24.0988L14.5755 23.7709L14.0995 23.306L13.7597 22.9315L13.5121 22.5433L13.3966 22.2059L13.3621 21.9425L13.0925 21.5653L12.86 21.2553L12.6344 21.1552L12.3771 21.1127L12.1446 20.9289L11.7196 20.5119L11.5311 20.2444L11.4197 20.0633L11.4252 19.8768L11.527 19.5668L11.6508 19.3898L11.6549 19.2513L11.5339 19.1388L11.062 18.9386L9.99443 18.6354L9.59551 18.4036L9.22682 18.1073L8.94889 17.9057L7.64751 17.0484L7.2527 16.9058L6.91423 16.7535L6.81112 16.6054L6.82901 16.4627L6.96789 16.3571L7.33658 16.1363L7.4742 15.8839L7.43012 15.5533L7.28436 15.2186L7.35589 15.1034L7.47555 15.0897L7.72316 15.0801L8.23627 15.0609L9.34235 15.3654L9.50197 15.3325L10.1032 14.7797L10.3288 14.4491L10.381 14.1734L10.4993 13.9978L10.8157 13.7098L10.8199 13.4464L10.6644 13.0939L10.5062 12.9581L10.37 12.8991L9.9312 12.9458L9.8459 12.8662L9.78813 12.6042L9.76747 12.4437L9.62305 12.2558L9.14839 12.0953L8.7467 12.0501L8.65316 11.9829L8.80724 11.8018L9.08097 11.6235L9.2887 11.5193L9.45243 11.3341L9.48266 11.1448L9.27913 10.976L9.01354 10.7881L8.58297 10.4301L7.98597 10.0502L7.62274 9.91988L7.43289 9.93771L6.77536 10.2642L6.42178 10.4768L6.12739 10.8554L5.82058 10.9363L5.50966 10.769L5.15751 10.5975L4.18216 10.3479L3.77081 10.1393L2.91923 8.86371L2.79404 8.60447L2.87524 8.31091L2.93443 7.8898L3.01966 7.61687L3.16962 7.35625L3.21093 7.12443L3.17373 6.89671L3.05131 6.7664L2.89035 6.72802L2.7707 6.6759L2.65785 6.37685L2.58908 6.41528L2.48454 6.77875L2.35935 6.90906L2.19293 6.97352L2.06354 6.91593L1.981 6.77055L1.94523 6.52366L1.86001 6.19171L1.75539 5.97496L1.38812 5.75415L1.21481 5.46745L0.669962 4.84336L0.213273 4.4058L0 4.0121L0.187159 3.86534L0.422347 3.65274L0.675504 3.32079L0.958888 2.90382L1.0772 2.64869L1.16116 2.54579L1.32758 2.47036L1.50643 2.51151L1.82004 2.68025L2.29335 2.89557L2.71562 3.15071L2.88623 3.40723L3.12151 3.65274L3.3017 3.72683L3.39246 3.70762L3.6635 3.52243L3.89735 3.33724L3.90289 3.1274L4.11751 2.9381L4.39812 2.62675L4.53154 2.41548L4.63196 2.39355L4.74616 2.45529L5.18916 3.10818L5.27447 3.14799L5.39966 3.05058L5.57431 2.54031L5.76693 2.34281L5.83301 2.39217L6.90466 3.35373L7.00643 3.34687L7.12197 3.30434L7.1977 3.15619L7.28158 2.82286L7.44112 2.46626L7.78504 2.26734L8.05331 2.22896L8.15239 2.39903L8.38489 2.63362L8.66693 2.66652L9.2667 2.25089L9.46343 2.18504L9.67251 2.19191L9.88578 2.17546L10.0894 2.01635L10.304 1.80646L10.3769 1.39222L10.4223 1.0205L10.5695 0.869639L10.7456 0.769511L11.0757 0.628233L11.8214 0.267485L12.014 0.0960266L12.1556 0L12.4459 0.156389L12.7926 0.458115L13.0017 0.685833L13.1421 0.931341L13.2095 1.13574L13.7611 1.31407L14.1133 1.56644L14.3471 1.75983L14.5783 1.75163L14.8094 1.69951L14.958 1.5445L15.2179 1.54174L15.5261 1.56506L15.6637 1.6268L15.9182 1.98341L16.0324 2.0328L16.2594 2.0081L16.6955 1.88194L17.0463 1.82158L17.3627 1.96423L17.9652 2.36065L17.796 2.6432L17.6612 2.94769L17.397 3.16168L17.2017 3.21518L17.0779 3.51284L17.0229 3.95178L17.0903 4.17536L17.2416 4.24669L17.4094 4.39483L17.4782 4.59094L17.5016 5.0244L17.492 5.51274L17.5154 5.67457L17.6461 5.64439L17.7699 5.58679L18.0202 5.66222L18.3311 5.78981L18.5279 5.91874L18.7039 5.90229L18.8416 6.02845L18.8924 6.26986L19.0547 6.4386L19.506 6.75543L19.8678 6.78289L20.1732 7.20124L20.4896 7.06407L20.6354 7.24515L21.2917 7.18203L21.7484 7.01195L21.9121 7.05172L22.3234 7.40012L22.5655 7.61139ZM21.1376 8.80745L20.5817 9.32182L20.3686 9.31362L20.5584 8.73202L20.6492 8.59346L20.9835 8.79376L21.1376 8.80745ZM20.8226 9.99807L20.6065 10.1051L20.3507 10.0927L20.6575 9.89246L20.8129 9.64419L20.9381 9.55775L20.9367 9.7745L20.8226 9.99807ZM18.2899 10.4521L18.2458 10.5317L18.0492 10.3382L17.9184 10.2546L18.0175 9.99397L18.2486 10.2792L18.2899 10.4521ZM18.931 10.7333L18.7714 10.7497L18.4645 10.4178L18.6297 10.2422L18.9777 10.3657L19.0589 10.4466L19.0562 10.5179L18.9722 10.6757L18.931 10.7333ZM19.4564 51.9024L19.1332 52.137L19.1112 51.9395L19.3918 51.8119L19.4909 51.7118L19.5624 51.7131L19.4564 51.9024ZM7.4742 51.9271L7.54708 52.1205L7.51954 52.5732L7.36966 53.0162L7.41366 53.2096L7.29813 53.3331L7.04085 52.5032L6.71759 52.1438L6.64605 52.0053L6.83447 52.0149L7.17151 51.7872L7.3339 51.7817L7.4742 51.9271ZM17.3324 58.5509L17.2237 58.5591L17.1412 58.4796L17.4906 58.2258L17.4562 58.3945L17.4685 58.4796L17.3324 58.5509Z"/>
</mask>
<path d="M22.5655 7.61139L22.3839 7.64839L21.9341 7.65525L21.5406 8.02973L21.2696 8.18608L20.8446 8.31639L20.3933 8.52766L20.2626 8.89937L20.2502 9.1682L20.1774 9.46858L19.4454 9.90481L19.2418 9.85951L19.1002 9.69768L18.8842 9.73059L18.7384 9.8115L18.5651 9.80053L18.371 9.89932L18.1165 9.86914L17.8827 9.73059L17.7478 9.69492L17.5869 9.69354L17.5566 9.85679L17.796 10.4891L17.8579 10.7799L17.0752 11.6331L17.1618 12.1818L16.95 12.6028L16.4767 12.9417L15.5894 13.814L15.189 13.8332L14.8878 14.0308L14.2302 15.46L14.2234 15.9497L14.1202 16.3077L14.1422 16.6507L13.8547 17.3255L13.5547 17.6108L13.4887 17.9784L13.9138 18.7342L13.962 18.8673L14.2096 19.2733L14.3292 19.5627L14.5191 19.8521L15.2028 20.6024L15.5082 20.8315L15.8756 20.9865L16.5414 21.6613L16.877 22.0907L16.7244 22.3828L16.8 23.0015L16.3254 22.819L16.3804 22.8917L16.9459 23.2305L17.7905 24.4156L18.5265 25L19.2735 25.6638L19.5074 26.2935L20.1815 26.7104L20.9312 27.314L20.8996 27.4498L21.1018 27.6116L21.6053 27.9312L21.9121 28.27L22.0304 28.591L22.2161 28.6431L22.4266 28.5636L22.6357 28.5334L22.7842 28.5581L23.0099 28.9106L23.3249 29.2247L23.4762 29.5141L23.6001 29.4757L23.7018 29.5196L23.728 29.761L23.7734 29.9201L24.1957 30.3838L24.3966 30.8199L24.9001 31.5277L25.2729 31.9296L25.5371 32.1559L25.841 32.3493L26.1382 33.1326L26.2991 33.8431L26.6169 34.6291L26.8577 34.972L26.866 35.618L27.0613 36.2833L27.269 36.7318L27.3309 37.19L27.3956 37.4176L27.4754 37.5891L27.7024 38.3641L27.6433 38.7248L27.485 38.3723L27.5056 39.4121L27.6446 39.9621L27.5827 40.6356L27.7271 40.8715L27.9857 41.6328L28.1687 41.9057L28.1523 42.8344L28.2485 43.3035L28.0036 43.0236L27.8262 42.7054L27.5882 42.8741L27.375 43.1224L27.7065 44.121L27.3296 44.0263L27.3626 45.3678L27.5194 45.6806L27.5304 45.8301L27.485 46.0084L27.3804 45.8122L27.3584 45.6106L27.2993 45.6559L27.302 45.7601L27.1755 45.996L27.1384 46.2882L27.2746 46.5379L27.2979 46.7272L27.2002 46.9617L27.0434 47.21L26.6844 47.2429L26.6018 47.7284L26.4794 48.2428L25.8383 48.3251L25.3733 48.7792L24.7982 48.9479L24.2851 49.3964L23.7197 49.812L23.351 49.8669L23.0361 49.9561L22.6742 50.6446L22.0716 50.7242L20.989 51.2865L20.6244 51.5582L20.2929 51.6638L19.8182 51.8983L19.7165 51.8146L19.5583 51.613L19.1483 51.5088L18.9474 51.2824L18.8897 50.9916L18.836 50.8778L18.748 51.0424L18.6792 51.7337L18.6063 51.8901L18.4316 51.9587L18.0863 51.7625L17.7575 51.3634L17.2884 51.6391L17.4314 51.672L17.6447 51.6501L17.8098 51.7186L17.9501 51.9847L17.9445 52.1288L17.8717 52.2975L17.4328 52.3249L16.8468 52.2659L16.7395 52.2879L17.2746 52.5471L17.763 52.6966L17.979 52.8598V52.9956L17.7052 53.2138L17.4933 53.4812L17.4892 53.6472L17.4851 53.8324L17.2471 53.9915L17.0999 53.9599L16.6817 53.6815L15.4752 52.5855L15.6568 52.8955L16.9073 54.141L17.1274 54.5511L17.1577 54.8405L17.0284 54.986L16.8165 55.1574L16.4066 55.1698L15.7352 54.7075L14.6608 53.5965L14.2949 53.4455L15.3817 54.7157L15.5605 55.0243L15.7435 55.3796L15.6912 55.5908L15.5976 55.7897L13.0223 56.9653L12.6372 57.4714L12.3318 58.0955L11.8255 58.4425L11.5283 58.7594L10.6699 58.9377L10.2008 58.8815L10.6878 58.3054L10.3865 58.0914L10.3714 56.6059L10.4897 54.975L10.7139 54.1602L11.0372 53.9572L11.4444 53.8324L11.4541 53.6609L11.4141 53.4648L11.1954 53.1863L10.9561 53.0574L10.5984 53.0011L10.3232 52.6596L10.1142 52.6733L9.78947 52.7872L9.59274 52.6404L9.51986 52.4113L9.21859 52.126L8.87189 51.8489L9.02874 51.8051L9.21028 51.646L9.40566 51.4415L9.88989 51.4127L10.3756 51.4224L10.5117 51.3689L10.7084 51.1521L11.0262 50.8737L11.2684 50.7187L11.3261 50.5939L11.2298 50.3003L11.1762 49.9986L11.2656 49.9039L11.7045 49.9574L12.1873 50.0987L12.3042 50.1618L12.5807 49.7914L12.6564 49.7462L12.838 49.7476L13.3168 49.679L13.7845 49.5816L14.006 49.598L14.2206 49.8463L14.3843 50.0905L14.4695 50.1097L14.713 50.0054L14.9139 50.1357L15.3349 50.3483L15.5866 50.358L15.4614 49.8628L15.6017 49.5103L15.5743 49.4142L15.3377 49.2524L14.5342 48.605L14.3967 48.4116L14.4159 48.107L14.3884 47.6599L14.3169 47.3787L14.3292 47.2141L14.3788 47.0824L14.526 47.0303L14.669 47.0124L14.7832 46.8972L14.9759 46.6023L15.35 46.6284L15.8756 46.7957L16.2635 46.9L16.4932 46.8794L16.5441 46.8369L16.5372 46.6778L16.5647 46.0002L16.5496 45.8561L16.8811 45.7903L17.3874 45.7752L17.6543 45.7354L17.9033 45.4501L18.5444 45.3514L19.008 44.9659L19.4262 44.5695L19.6312 44.4639L19.8912 44.3953L20.0865 44.4049L20.3314 44.634L20.5336 44.4954L20.7675 44.2266L20.8899 43.9632L20.9573 43.5394L20.912 42.8892L20.7881 42.3803L20.6712 41.999L20.6478 41.6177L20.9174 40.851L21.1499 40.0156L21.1059 39.6864L20.8528 39.1652L20.5955 38.5301L20.3149 37.8305L20.2089 37.7263L20.1333 37.5315L20.0906 37.3038L20.202 36.5892L20.2186 36.3491L20.5419 36.0227L20.7152 35.6496L20.8776 35.2367L20.8157 35.0186L20.7937 34.5742L20.8349 34.3589L20.7579 34.1846L20.6643 33.9309L20.7262 33.7663L20.9532 33.625L21.0866 33.3822L21.2572 33.0983L21.3329 32.8391L21.2105 32.6223L20.989 32.2972L20.5845 32.0037L20.1182 31.6278L19.8898 31.3961L19.7082 31.1601L19.5417 30.8858L19.451 30.6663L19.539 30.5223L20.202 30.1917L20.3231 30.0724L20.3933 29.8886L20.341 29.7089L20.1622 29.6115L19.9544 29.5457L19.6491 29.3372L19.0795 28.7652L18.8181 28.6376L18.543 28.473L18.3972 28.3002L18.2376 27.8256L18.1647 27.7831L18.0065 27.9271L17.8057 28.0766L17.6378 28.0506L17.4851 27.9161L17.4122 27.7351L17.2429 27.4868L17.0586 27.2852L17.0105 26.6048L16.9816 26.3826L16.8908 26.0726L16.7477 25.9615L16.5964 25.8792L16.2387 25.3141L15.9911 25.0219L14.9759 24.2263L14.8492 24.0988L14.5755 23.7709L14.0995 23.306L13.7597 22.9315L13.5121 22.5433L13.3966 22.2059L13.3621 21.9425L13.0925 21.5653L12.86 21.2553L12.6344 21.1552L12.3771 21.1127L12.1446 20.9289L11.7196 20.5119L11.5311 20.2444L11.4197 20.0633L11.4252 19.8768L11.527 19.5668L11.6508 19.3898L11.6549 19.2513L11.5339 19.1388L11.062 18.9386L9.99443 18.6354L9.59551 18.4036L9.22682 18.1073L8.94889 17.9057L7.64751 17.0484L7.2527 16.9058L6.91423 16.7535L6.81112 16.6054L6.82901 16.4627L6.96789 16.3571L7.33658 16.1363L7.4742 15.8839L7.43012 15.5533L7.28436 15.2186L7.35589 15.1034L7.47555 15.0897L7.72316 15.0801L8.23627 15.0609L9.34235 15.3654L9.50197 15.3325L10.1032 14.7797L10.3288 14.4491L10.381 14.1734L10.4993 13.9978L10.8157 13.7098L10.8199 13.4464L10.6644 13.0939L10.5062 12.9581L10.37 12.8991L9.9312 12.9458L9.8459 12.8662L9.78813 12.6042L9.76747 12.4437L9.62305 12.2558L9.14839 12.0953L8.7467 12.0501L8.65316 11.9829L8.80724 11.8018L9.08097 11.6235L9.2887 11.5193L9.45243 11.3341L9.48266 11.1448L9.27913 10.976L9.01354 10.7881L8.58297 10.4301L7.98597 10.0502L7.62274 9.91988L7.43289 9.93771L6.77536 10.2642L6.42178 10.4768L6.12739 10.8554L5.82058 10.9363L5.50966 10.769L5.15751 10.5975L4.18216 10.3479L3.77081 10.1393L2.91923 8.86371L2.79404 8.60447L2.87524 8.31091L2.93443 7.8898L3.01966 7.61687L3.16962 7.35625L3.21093 7.12443L3.17373 6.89671L3.05131 6.7664L2.89035 6.72802L2.7707 6.6759L2.65785 6.37685L2.58908 6.41528L2.48454 6.77875L2.35935 6.90906L2.19293 6.97352L2.06354 6.91593L1.981 6.77055L1.94523 6.52366L1.86001 6.19171L1.75539 5.97496L1.38812 5.75415L1.21481 5.46745L0.669962 4.84336L0.213273 4.4058L0 4.0121L0.187159 3.86534L0.422347 3.65274L0.675504 3.32079L0.958888 2.90382L1.0772 2.64869L1.16116 2.54579L1.32758 2.47036L1.50643 2.51151L1.82004 2.68025L2.29335 2.89557L2.71562 3.15071L2.88623 3.40723L3.12151 3.65274L3.3017 3.72683L3.39246 3.70762L3.6635 3.52243L3.89735 3.33724L3.90289 3.1274L4.11751 2.9381L4.39812 2.62675L4.53154 2.41548L4.63196 2.39355L4.74616 2.45529L5.18916 3.10818L5.27447 3.14799L5.39966 3.05058L5.57431 2.54031L5.76693 2.34281L5.83301 2.39217L6.90466 3.35373L7.00643 3.34687L7.12197 3.30434L7.1977 3.15619L7.28158 2.82286L7.44112 2.46626L7.78504 2.26734L8.05331 2.22896L8.15239 2.39903L8.38489 2.63362L8.66693 2.66652L9.2667 2.25089L9.46343 2.18504L9.67251 2.19191L9.88578 2.17546L10.0894 2.01635L10.304 1.80646L10.3769 1.39222L10.4223 1.0205L10.5695 0.869639L10.7456 0.769511L11.0757 0.628233L11.8214 0.267485L12.014 0.0960266L12.1556 0L12.4459 0.156389L12.7926 0.458115L13.0017 0.685833L13.1421 0.931341L13.2095 1.13574L13.7611 1.31407L14.1133 1.56644L14.3471 1.75983L14.5783 1.75163L14.8094 1.69951L14.958 1.5445L15.2179 1.54174L15.5261 1.56506L15.6637 1.6268L15.9182 1.98341L16.0324 2.0328L16.2594 2.0081L16.6955 1.88194L17.0463 1.82158L17.3627 1.96423L17.9652 2.36065L17.796 2.6432L17.6612 2.94769L17.397 3.16168L17.2017 3.21518L17.0779 3.51284L17.0229 3.95178L17.0903 4.17536L17.2416 4.24669L17.4094 4.39483L17.4782 4.59094L17.5016 5.0244L17.492 5.51274L17.5154 5.67457L17.6461 5.64439L17.7699 5.58679L18.0202 5.66222L18.3311 5.78981L18.5279 5.91874L18.7039 5.90229L18.8416 6.02845L18.8924 6.26986L19.0547 6.4386L19.506 6.75543L19.8678 6.78289L20.1732 7.20124L20.4896 7.06407L20.6354 7.24515L21.2917 7.18203L21.7484 7.01195L21.9121 7.05172L22.3234 7.40012L22.5655 7.61139ZM21.1376 8.80745L20.5817 9.32182L20.3686 9.31362L20.5584 8.73202L20.6492 8.59346L20.9835 8.79376L21.1376 8.80745ZM20.8226 9.99807L20.6065 10.1051L20.3507 10.0927L20.6575 9.89246L20.8129 9.64419L20.9381 9.55775L20.9367 9.7745L20.8226 9.99807ZM18.2899 10.4521L18.2458 10.5317L18.0492 10.3382L17.9184 10.2546L18.0175 9.99397L18.2486 10.2792L18.2899 10.4521ZM18.931 10.7333L18.7714 10.7497L18.4645 10.4178L18.6297 10.2422L18.9777 10.3657L19.0589 10.4466L19.0562 10.5179L18.9722 10.6757L18.931 10.7333ZM19.4564 51.9024L19.1332 52.137L19.1112 51.9395L19.3918 51.8119L19.4909 51.7118L19.5624 51.7131L19.4564 51.9024ZM7.4742 51.9271L7.54708 52.1205L7.51954 52.5732L7.36966 53.0162L7.41366 53.2096L7.29813 53.3331L7.04085 52.5032L6.71759 52.1438L6.64605 52.0053L6.83447 52.0149L7.17151 51.7872L7.3339 51.7817L7.4742 51.9271ZM17.3324 58.5509L17.2237 58.5591L17.1412 58.4796L17.4906 58.2258L17.4562 58.3945L17.4685 58.4796L17.3324 58.5509Z" fill="var(--fill-0, #71B219)" stroke="var(--stroke-0, white)" mask="url(#path-1-inside-1_0_12)"/>
</g>
</svg>
