<svg preserveAspectRatio="none" width="100%" height="100%" overflow="visible" style="display: block;" viewBox="0 0 13 26" fill="none" xmlns="http://www.w3.org/2000/svg"><g id="VU"><mask id="path-1-inside-1_0_11" fill="white"><path d="M4 1L4 1L4 1L3 0L3 0L4 0L4 0L4 0L4 0L4 1L4 1L4 1ZM4 2L4 2L4 2L3 2L3 2L4 2L4 2L4 2L4 2ZM1 4L1 6L1 6L2 6L2 5L2 5L2 5L2 5L2 5L2 5L2 6L2 6L2 7L3 7L3 7L2 7L2 7L1 8L1 8L1 7L1 7L0 7L0 6L0 4L0 4L0 4L0 4L0 4L1 4ZM6 6L6 7L6 6L6 5L6 5L6 5L6 6L6 6ZM5 7L5 7L5 7L4 7L5 6L6 6L5 7ZM6 9L6 9L6 9L6 8L6 7L6 7L7 9L7 9L6 9ZM3 8L3 8L2 8L2 8L3 8L3 8ZM3 9L4 10H4L4 10L4 10L4 10L5 10L5 10L5 11L5 11L5 11L4 11L4 11L4 11L4 11L4 11L3 11L3 10L3 10L3 10L3 10L3 10L2 9L2 9L3 9L3 9L3 9L3 9ZM7 10L6 10L6 10L6 10L5 10L6 10L6 10L6 9L6 10L7 10L7 10L7 10L7 10ZM7 12L8 12L8 12L7 12L6 12L6 12L6 12L6 12L6 12L6 12L6 11L7 12L7 12L7 12L7 12L7 12ZM7 15L8 16L8 16L8 16L7 16L7 16L7 16L7 16L7 16L6 16L6 16L6 16L7 15L7 15L7 15L7 15L7 15ZM11 21L11 21L10 21L10 21L10 20L10 20L10 20L10 20L10 20L10 20L10 20L10 20L11 21L11 21ZM11 23L11 24L11 24L11 23L10 23L10 22L11 22L11 22L11 23L11 23ZM13 26L13 26L13 26L12 26L12 26L13 26L13 26L13 26Z"/></mask><path d="M4 1L4 1L4 1L3 0L3 0L4 0L4 0L4 0L4 0L4 1L4 1L4 1ZM4 2L4 2L4 2L3 2L3 2L4 2L4 2L4 2L4 2ZM1 4L1 6L1 6L2 6L2 5L2 5L2 5L2 5L2 5L2 5L2 6L2 6L2 7L3 7L3 7L2 7L2 7L1 8L1 8L1 7L1 7L0 7L0 6L0 4L0 4L0 4L0 4L0 4L1 4ZM6 6L6 7L6 6L6 5L6 5L6 5L6 6L6 6ZM5 7L5 7L5 7L4 7L5 6L6 6L5 7ZM6 9L6 9L6 9L6 8L6 7L6 7L7 9L7 9L6 9ZM3 8L3 8L2 8L2 8L3 8L3 8ZM3 9L4 10H4L4 10L4 10L4 10L5 10L5 10L5 11L5 11L5 11L4 11L4 11L4 11L4 11L4 11L3 11L3 10L3 10L3 10L3 10L3 10L2 9L2 9L3 9L3 9L3 9L3 9ZM7 10L6 10L6 10L6 10L5 10L6 10L6 10L6 9L6 10L7 10L7 10L7 10L7 10ZM7 12L8 12L8 12L7 12L6 12L6 12L6 12L6 12L6 12L6 12L6 11L7 12L7 12L7 12L7 12L7 12ZM7 15L8 16L8 16L8 16L7 16L7 16L7 16L7 16L7 16L6 16L6 16L6 16L7 15L7 15L7 15L7 15L7 15ZM11 21L11 21L10 21L10 21L10 20L10 20L10 20L10 20L10 20L10 20L10 20L10 20L11 21L11 21ZM11 23L11 24L11 24L11 23L10 23L10 22L11 22L11 22L11 23L11 23ZM13 26L13 26L13 26L12 26L12 26L13 26L13 26L13 26Z" fill="var(--fill-0,#71B219)" stroke="var(--stroke-0,white)" mask="url(#path-1-inside-1_0_11)"/></g></svg>