<svg preserveAspectRatio="none" width="100%" height="100%" overflow="visible" style="display: block;" viewBox="0 0 13.0127 26.1494" fill="none" xmlns="http://www.w3.org/2000/svg">
<g id="VU">
<mask id="path-1-inside-1_0_11" fill="white">
<path d="M3.71708 0.780478L3.66065 0.818905L3.57123 0.788724L3.34292 0.311354L3.40069 0.152244L3.68819 0L3.94403 0.264722L3.9688 0.411483L3.96612 0.536309L3.92758 0.644684L3.75696 0.689935L3.71708 0.780478ZM4.08711 2.17546L3.92615 2.37572L3.49146 2.30987L3.38827 2.25637L3.41715 1.92447L3.52589 1.81061L3.78584 1.70772L4.14219 1.87097L4.08711 2.17546ZM0.848725 4.41266L1.09777 5.72258L1.38669 5.71986L1.53388 5.64987L1.70442 5.34262L1.7815 4.86119L1.93146 4.79258L2.12131 4.84474L2.03877 4.99836L2.09377 5.38377L2.23962 5.59776L2.33592 5.63618L2.53123 6.64434L2.60411 6.8556L2.6 7.02568L2.19142 7.40288L1.58477 7.39191L1.15688 7.61825L0.896921 7.60314L0.898265 7.348L0.667191 7.14502L0.405806 6.71018L0.47046 5.93795L0.00411432 4.50731L0 4.14928L0.159535 3.68292L0.314955 3.66098L0.526884 4.05053L0.848725 4.41266ZM6.42169 6.40021L6.35427 6.64572L6.19473 6.3604L6.09288 5.16158L6.1342 5.05048L6.21808 5.04223L6.41346 5.87621L6.42169 6.40021ZM5.34727 6.82542L5.08865 7.00785L4.60988 6.99002L4.43246 6.88713L5.01989 6.33298L5.69942 6.21912L5.34727 6.82542ZM6.51246 8.95011L6.44781 8.95425L6.38181 8.77178L6.16442 7.79791L6.3075 6.92827L6.39692 7.11208L6.72296 8.63875L6.67896 8.88841L6.51246 8.95011ZM2.67431 7.97075L2.60411 8.07364L2.19419 7.81575L2.28773 7.56747L2.7335 7.65664L2.67431 7.97075ZM3.42269 9.44941L3.60011 9.53581H3.69642L3.75419 9.72924L4.30727 10.116L4.45858 10.1051L4.58654 10.3163L4.8245 10.4233L4.88915 10.6387L5.05834 10.8581L4.76262 11.1242L4.18896 11.0529L3.8615 11.3547L3.56434 11.2779L3.51212 11.1187L3.55334 11.0652L3.37592 10.6606L3.29616 10.0433L3.17642 9.67985L3.04577 9.52484L2.77884 9.66064L2.67019 9.68395L2.41158 9.38633L2.534 8.78141L2.59865 8.60857L2.80638 8.57567L3.12277 8.73478L3.42269 9.44941ZM6.83581 10.4082L6.39415 10.4494L5.77373 10.3245L5.52334 10.1517L5.41604 9.97886L5.63065 9.84993L5.93881 9.78956L6.32261 9.39315L6.45612 9.54406L6.5992 9.98848L6.75327 10.1229L6.83993 10.2573L6.83581 10.4082ZM7.41492 12.1735L7.53054 12.2325L7.46581 12.3985L6.93623 12.2092L6.50835 12.2833L6.38869 12.275L6.26207 12.1228L6.16854 11.8196L6.21119 11.6084L6.39004 11.4603L6.45746 11.437L6.59231 11.6194L6.71473 11.7442L6.83304 11.7977L7.10265 12.0953L7.41492 12.1735ZM7.41081 15.2309L7.79462 15.803L7.94735 15.8482L7.71485 16.2583L7.23062 16.294L6.65965 16.1884L6.86881 16.0471L6.76008 15.888L6.58811 15.8565L6.39004 15.9319L6.29927 15.9058L6.42581 15.6425L6.74227 15.2708L6.83581 15.242L6.92104 15.2378L7.005 15.2708L7.41081 15.2309ZM10.8432 20.863L10.6643 21.0592L10.5089 21.0372L9.50189 20.5846L9.54454 20.398L9.50323 19.9221L9.61331 19.6642L9.89115 19.5586L10.1072 19.6134L10.2393 19.9934L10.5405 20.1484L10.33 20.2787L10.6974 20.5654L10.8432 20.863ZM11.4485 23.295L11.2448 23.7367L10.8927 23.6338L10.5639 23.3142L10.3919 23.0357L10.5075 22.5022L10.6753 22.4089L10.8515 22.439L10.9408 22.9603L11.4485 23.295ZM13.0127 25.9245L12.8765 26.1494L12.6673 26.1467L12.3991 25.9876L12.45 25.7887L12.7554 25.753L12.8435 25.7667L13.0127 25.9245Z"/>
</mask>
<path d="M3.71708 0.780478L3.66065 0.818905L3.57123 0.788724L3.34292 0.311354L3.40069 0.152244L3.68819 0L3.94403 0.264722L3.9688 0.411483L3.96612 0.536309L3.92758 0.644684L3.75696 0.689935L3.71708 0.780478ZM4.08711 2.17546L3.92615 2.37572L3.49146 2.30987L3.38827 2.25637L3.41715 1.92447L3.52589 1.81061L3.78584 1.70772L4.14219 1.87097L4.08711 2.17546ZM0.848725 4.41266L1.09777 5.72258L1.38669 5.71986L1.53388 5.64987L1.70442 5.34262L1.7815 4.86119L1.93146 4.79258L2.12131 4.84474L2.03877 4.99836L2.09377 5.38377L2.23962 5.59776L2.33592 5.63618L2.53123 6.64434L2.60411 6.8556L2.6 7.02568L2.19142 7.40288L1.58477 7.39191L1.15688 7.61825L0.896921 7.60314L0.898265 7.348L0.667191 7.14502L0.405806 6.71018L0.47046 5.93795L0.00411432 4.50731L0 4.14928L0.159535 3.68292L0.314955 3.66098L0.526884 4.05053L0.848725 4.41266ZM6.42169 6.40021L6.35427 6.64572L6.19473 6.3604L6.09288 5.16158L6.1342 5.05048L6.21808 5.04223L6.41346 5.87621L6.42169 6.40021ZM5.34727 6.82542L5.08865 7.00785L4.60988 6.99002L4.43246 6.88713L5.01989 6.33298L5.69942 6.21912L5.34727 6.82542ZM6.51246 8.95011L6.44781 8.95425L6.38181 8.77178L6.16442 7.79791L6.3075 6.92827L6.39692 7.11208L6.72296 8.63875L6.67896 8.88841L6.51246 8.95011ZM2.67431 7.97075L2.60411 8.07364L2.19419 7.81575L2.28773 7.56747L2.7335 7.65664L2.67431 7.97075ZM3.42269 9.44941L3.60011 9.53581H3.69642L3.75419 9.72924L4.30727 10.116L4.45858 10.1051L4.58654 10.3163L4.8245 10.4233L4.88915 10.6387L5.05834 10.8581L4.76262 11.1242L4.18896 11.0529L3.8615 11.3547L3.56434 11.2779L3.51212 11.1187L3.55334 11.0652L3.37592 10.6606L3.29616 10.0433L3.17642 9.67985L3.04577 9.52484L2.77884 9.66064L2.67019 9.68395L2.41158 9.38633L2.534 8.78141L2.59865 8.60857L2.80638 8.57567L3.12277 8.73478L3.42269 9.44941ZM6.83581 10.4082L6.39415 10.4494L5.77373 10.3245L5.52334 10.1517L5.41604 9.97886L5.63065 9.84993L5.93881 9.78956L6.32261 9.39315L6.45612 9.54406L6.5992 9.98848L6.75327 10.1229L6.83993 10.2573L6.83581 10.4082ZM7.41492 12.1735L7.53054 12.2325L7.46581 12.3985L6.93623 12.2092L6.50835 12.2833L6.38869 12.275L6.26207 12.1228L6.16854 11.8196L6.21119 11.6084L6.39004 11.4603L6.45746 11.437L6.59231 11.6194L6.71473 11.7442L6.83304 11.7977L7.10265 12.0953L7.41492 12.1735ZM7.41081 15.2309L7.79462 15.803L7.94735 15.8482L7.71485 16.2583L7.23062 16.294L6.65965 16.1884L6.86881 16.0471L6.76008 15.888L6.58811 15.8565L6.39004 15.9319L6.29927 15.9058L6.42581 15.6425L6.74227 15.2708L6.83581 15.242L6.92104 15.2378L7.005 15.2708L7.41081 15.2309ZM10.8432 20.863L10.6643 21.0592L10.5089 21.0372L9.50189 20.5846L9.54454 20.398L9.50323 19.9221L9.61331 19.6642L9.89115 19.5586L10.1072 19.6134L10.2393 19.9934L10.5405 20.1484L10.33 20.2787L10.6974 20.5654L10.8432 20.863ZM11.4485 23.295L11.2448 23.7367L10.8927 23.6338L10.5639 23.3142L10.3919 23.0357L10.5075 22.5022L10.6753 22.4089L10.8515 22.439L10.9408 22.9603L11.4485 23.295ZM13.0127 25.9245L12.8765 26.1494L12.6673 26.1467L12.3991 25.9876L12.45 25.7887L12.7554 25.753L12.8435 25.7667L13.0127 25.9245Z" fill="var(--fill-0, #71B219)" stroke="var(--stroke-0, white)" mask="url(#path-1-inside-1_0_11)"/>
</g>
</svg>
