<svg preserveAspectRatio="none" width="100%" height="100%" overflow="visible" style="display: block;" viewBox="0 0 8 4" fill="none" xmlns="http://www.w3.org/2000/svg"><g id="WF"><mask id="path-1-inside-1_0_241" fill="white"><path d="M8 0L8 0L8 0L8 0L8 0L8 0L8 0ZM1 4L0 4L0 4L0 4L0 4L0 4L0 4L1 4L1 4Z"/></mask><path d="M8 0L8 0L8 0L8 0L8 0L8 0L8 0ZM1 4L0 4L0 4L0 4L0 4L0 4L0 4L1 4L1 4Z" fill="var(--fill-0,#71B219)"/><path d="M8 0L8 1L8 1L8 1L8 0ZM8 0L7 1L8 1L8 1L8 0ZM8 0L7 0L7 0L7 0L8 0ZM8 0L8 0L7 0L7 0L8 0ZM8 0L8 0L8 -1L8 0L8 0ZM8 0L8 0L8 0L8 0L8 0ZM1 4L1 5L1 5L1 4L1 4ZM0 4L0 5L0 5L0 5L0 4ZM0 4L0 5L0 5L0 5L0 4ZM0 4L0 4L-1 4L0 4L0 4ZM0 4L0 4L0 3L0 4L0 4ZM0 4L1 4L0 4L0 4L0 4ZM0 4L0 4L0 5L0 5L0 4ZM1 4L1 4L1 4L1 4L1 4ZM8 0L8 0L8 0L8 0L8 1L8 1L8 0ZM8 0L8 0L8 0L8 0L7 0L7 1L8 0ZM8 0L8 0L8 0L8 0L7 0L7 0L8 0ZM8 0L8 0L8 0L8 0L8 0L8 0L8 0ZM8 0L7 0L8 0L8 0L8 0L8 0L8 0ZM8 0L8 0L7 0L8 0L8 1L8 0L8 0ZM1 4L0 4L0 4L0 4L0 5L1 5L1 4ZM0 4L0 4L0 4L0 4L0 5L0 5L0 4ZM0 4L1 4L0 4L0 4L0 4L0 5L0 4ZM0 4L0 4L0 4L0 4L0 4L0 4L0 4ZM0 4L0 4L0 4L0 4L0 4L0 4L0 4ZM0 4L0 4L0 4L0 4L1 4L1 4L0 4ZM0 4L0 5L0 5L1 4L1 4L0 4L0 4ZM1 4L0 4L0 4L1 4L1 4L1 4L1 4Z" fill="var(--stroke-0,white)" mask="url(#path-1-inside-1_0_241)"/></g></svg>