<svg preserveAspectRatio="none" width="100%" height="100%" overflow="visible" style="display: block;" viewBox="0 0 7.97632 4.34405" fill="none" xmlns="http://www.w3.org/2000/svg">
<g id="WF">
<mask id="path-1-inside-1_0_241" fill="white">
<path d="M7.85247 0.43618L7.78916 0.467742L7.71762 0.314117L7.80982 0.0822966L7.89924 0L7.97632 0.182425L7.85247 0.43618ZM0.570967 4.31802L0.352236 4.34405L0.138963 4.29194L0 4.06974L0.0633101 3.9751L0.202273 4.01897L0.345351 4.1836L0.581966 4.25903L0.570967 4.31802Z"/>
</mask>
<path d="M7.85247 0.43618L7.78916 0.467742L7.71762 0.314117L7.80982 0.0822966L7.89924 0L7.97632 0.182425L7.85247 0.43618ZM0.570967 4.31802L0.352236 4.34405L0.138963 4.29194L0 4.06974L0.0633101 3.9751L0.202273 4.01897L0.345351 4.1836L0.581966 4.25903L0.570967 4.31802Z" fill="var(--fill-0, #71B219)"/>
<path d="M7.85247 0.43618L8.07555 0.883655L8.22739 0.807958L8.30181 0.655487L7.85247 0.43618ZM7.78916 0.467742L7.33589 0.678814L7.55267 1.14433L8.01224 0.915218L7.78916 0.467742ZM7.71762 0.314117L7.25301 0.129344L7.17333 0.329711L7.26436 0.525188L7.71762 0.314117ZM7.80981 0.0822966L7.47123 -0.285614L7.38734 -0.208412L7.34521 -0.102476L7.80981 0.0822966ZM7.89924 0L8.35981 -0.194607L8.08334 -0.848939L7.56065 -0.36791L7.89924 0ZM7.97632 0.182425L8.42566 0.401732L8.52542 0.197331L8.43689 -0.0121815L7.97632 0.182425ZM0.570967 4.31802L0.630067 4.81451L0.995098 4.77106L1.06249 4.40968L0.570967 4.31802ZM0.352236 4.34405L0.233548 4.82976L0.321466 4.85124L0.411337 4.84055L0.352236 4.34405ZM0.138963 4.29194L-0.284956 4.55706L-0.177176 4.7294L0.0202749 4.77765L0.138963 4.29194ZM0 4.06974L-0.415592 3.79175L-0.595444 4.06062L-0.423919 4.33487L0 4.06974ZM0.0633101 3.9751L0.213832 3.49829L-0.143779 3.3854L-0.352282 3.6971L0.0633101 3.9751ZM0.202273 4.01897L0.579671 3.69099L0.48721 3.5846L0.352795 3.54216L0.202273 4.01897ZM0.345351 4.1836L-0.0320465 4.51158L0.0599145 4.6174L0.193484 4.65998L0.345351 4.1836ZM0.581966 4.25904L1.07349 4.3507L1.15442 3.91674L0.733833 3.78266L0.581966 4.25904ZM7.85247 0.43618L7.62939 -0.0112953L7.56608 0.0202671L7.78916 0.467742L8.01224 0.915218L8.07555 0.883655L7.85247 0.43618ZM7.78916 0.467742L8.24242 0.256671L8.17089 0.103045L7.71762 0.314117L7.26436 0.525188L7.33589 0.678814L7.78916 0.467742ZM7.71762 0.314117L8.18223 0.498889L8.27442 0.267069L7.80981 0.0822966L7.34521 -0.102476L7.25301 0.129344L7.71762 0.314117ZM7.80981 0.0822966L8.1484 0.450207L8.23783 0.36791L7.89924 0L7.56065 -0.36791L7.47123 -0.285614L7.80981 0.0822966ZM7.89924 0L7.43866 0.194607L7.51575 0.377032L7.97632 0.182425L8.43689 -0.0121815L8.35981 -0.194607L7.89924 0ZM7.97632 0.182425L7.52698 -0.0368817L7.40313 0.216873L7.85247 0.43618L8.30181 0.655487L8.42566 0.401732L7.97632 0.182425ZM0.570967 4.31802L0.511866 3.82152L0.293135 3.84756L0.352236 4.34405L0.411337 4.84055L0.630067 4.81451L0.570967 4.31802ZM0.352236 4.34405L0.470924 3.85834L0.257652 3.80623L0.138963 4.29194L0.0202749 4.77765L0.233548 4.82976L0.352236 4.34405ZM0.138963 4.29194L0.562883 4.02681L0.423919 3.80462L0 4.06974L-0.423919 4.33487L-0.284956 4.55706L0.138963 4.29194ZM0 4.06974L0.415592 4.34774L0.478902 4.2531L0.0633101 3.9751L-0.352282 3.6971L-0.415592 3.79175L0 4.06974ZM0.0633101 3.9751L-0.0872121 4.4519L0.0517511 4.49577L0.202273 4.01897L0.352795 3.54216L0.213832 3.49829L0.0633101 3.9751ZM0.202273 4.01897L-0.175124 4.34695L-0.0320465 4.51158L0.345351 4.1836L0.722748 3.85562L0.579671 3.69099L0.202273 4.01897ZM0.345351 4.1836L0.193484 4.65998L0.430099 4.73541L0.581966 4.25904L0.733833 3.78266L0.497217 3.70722L0.345351 4.1836ZM0.581966 4.25904L0.0904406 4.16737L0.0794411 4.22635L0.570967 4.31802L1.06249 4.40968L1.07349 4.3507L0.581966 4.25904Z" fill="var(--stroke-0, white)" mask="url(#path-1-inside-1_0_241)"/>
</g>
</svg>
