<svg preserveAspectRatio="none" width="100%" height="100%" overflow="visible" style="display: block;" viewBox="0 0 6.65428 7.32879" fill="none" xmlns="http://www.w3.org/2000/svg">
<path id="XK" d="M4.7041 5.71777L4.47266 5.49121L4.39258 5.41406L4.2832 5.4209L3.96191 5.44043L3.91309 5.44336L3.86914 5.46387L2.78223 5.98242L2.69434 6.02441L2.6582 6.11621L2.55078 6.3877L2.53516 6.42773L2.5332 6.46973L2.51172 7.00781L2.48535 7.06348L2.37695 7.04785L2.38281 7.02734L2.38086 6.98926L2.35742 6.49512L2.35645 6.4707L2.35059 6.44727L2.14648 5.62793L2.13867 5.59766L2.12402 5.57031L1.98145 5.30273L1.96094 5.26367L1.92773 5.23438L1.62891 4.9668L1.62207 4.95996L1.61328 4.9541L1.38281 4.77832L1.35352 4.75684L1.31934 4.74414L0.99707 4.62207L0.831055 4.26367L0.824219 4.25L0.816406 4.2373L0.499023 3.72363L0.474609 3.68555L0.439453 3.6582L0.420898 3.64355L0.476562 3.34473L0.488281 3.2832L0.46875 3.22266L0.37793 2.93945L0.370117 2.91406L0.349609 2.87891H0.376953L0.601562 2.90527L0.795898 2.92773L0.864258 2.74414L0.907227 2.62793L1.28809 2.51367L1.29395 2.51172L1.77441 2.35352L1.85938 2.32617L1.90723 2.25098L1.97754 2.1416L2.05078 2.02637L1.99316 1.90234L1.93359 1.77148L2.44434 1.39453L2.49414 1.35742L2.52148 1.30176L2.61426 1.1084L2.62695 1.08398L2.63281 1.05762L2.66895 0.90625L2.68848 0.821289L2.65137 0.741211L2.57812 0.587891L2.53418 0.488281L2.7002 0.408203L2.71777 0.400391L2.7334 0.388672L2.82715 0.323242L2.83203 0.335938L2.91211 0.548828L2.94141 0.625977L3.01074 0.670898L3.18945 0.786133L3.19141 0.787109L3.48828 0.975586L3.51074 0.989258L3.53516 0.998047L3.83203 1.10742L4.0498 1.31348L4.37695 1.71582L4.41992 1.88672L4.44434 1.9873L4.5332 2.04102L4.85547 2.23633L5.03809 2.37012L5.00684 2.64453L4.9834 2.84375L5.17285 2.90918L6.22266 3.27441L6.26367 3.28906L6.30762 3.28809L6.36523 3.28711L6.33398 3.39746L5.91211 4.27539L5.89746 4.30566L5.8916 4.33789L5.87598 4.41504L5.66016 4.55176L5.58887 4.59668L5.55957 4.6748L5.5166 4.78809L5.48438 4.87402L5.51465 4.96094L5.56934 5.11328L5.19824 5.19434L5.14453 5.20605L5.10059 5.23926L4.87695 5.4082L4.82617 5.44727L4.7998 5.50586L4.7041 5.71777Z" fill="var(--fill-0, #71B219)" stroke="var(--stroke-0, white)" stroke-width="0.5"/>
</svg>
