<svg preserveAspectRatio="none" width="100%" height="100%" overflow="visible" style="display: block;" viewBox="0 0 7 7" fill="none" xmlns="http://www.w3.org/2000/svg"><path id="XK" d="M5 6L4 6L4 5L4 5L4 5L4 5L4 6L3 6L3 6L3 6L3 6L2 6L2 6L2 7L2 7L2 7L2 7L2 7L2 6L2 6L2 6L2 6L2 6L2 6L2 5L2 5L2 5L2 5L2 5L2 5L1 5L1 5L1 5L1 5L1 4L1 4L1 4L0 4L0 4L0 4L0 4L0 3L0 3L0 3L0 3L0 3L0 3H0L1 3L1 3L1 3L1 3L1 2L1 2L2 2L2 2L2 2L2 2L2 2L2 2L2 2L2 1L2 1L2 1L3 1L3 1L3 1L3 1L3 1L3 1L3 1L2 0L3 0L3 0L3 0L3 0L3 0L3 0L3 1L3 1L3 1L3 1L4 1L4 1L4 1L4 1L4 1L4 2L4 2L4 2L4 2L5 2L5 2L5 3L5 3L5 3L6 3L6 3L6 3L6 3L6 3L6 4L6 4L6 4L6 4L6 5L6 5L6 5L6 5L6 5L6 5L6 5L5 5L5 5L5 5L5 5L5 5L5 6L5 6Z" fill="var(--fill-0,#71B219)" stroke="var(--stroke-0,white)" stroke-width="0"/></svg>