<svg preserveAspectRatio="none" width="100%" height="100%" overflow="visible" style="display: block;" viewBox="0 0 46.1834 26.5445" fill="none" xmlns="http://www.w3.org/2000/svg">
<g id="YE">
<mask id="path-1-inside-1_0_9" fill="white">
<path d="M40.6793 9.43434L38.7326 10.1448L38.2195 10.4603L37.7531 10.8499L37.4038 11.3368L37.1588 12.1914L37.3446 12.9718L37.3267 13.3902L36.8246 13.6673L36.3554 13.8662L35.834 14.1707L35.5176 14.2461L35.259 14.4875L34.9578 14.6562L33.8723 15.0952L32.6865 15.434L30.8018 15.84L30.0741 16.2803L29.4123 16.5821L28.4067 16.6726L27.0255 17.091L26.2578 17.4256L25.3045 17.9702L25.094 18.1417L24.9262 18.5422L24.6332 18.8879L24.0595 19.4543L23.6289 19.7451L23.3414 19.7602L22.7828 19.9193L22.1212 19.9523L21.0095 19.7534L20.7235 19.8919L20.4882 20.1127L19.6312 20.5009L18.7604 21.2759L18.1234 21.4817L17.093 21.7244L16.3721 22.0468L15.8879 22.1757L15.2647 22.2429L14.1105 22.21L13.0168 22.3266L12.0029 22.5447L11.5269 22.9576L10.9835 23.6119L10.0962 23.8821L9.88712 24.1166L9.61331 24.5981L9.03966 24.7229L8.51966 24.8038L7.98866 24.594L6.98712 25.1755L6.60885 25.2716L6.03377 25.2949L5.62519 25.417L5.33215 25.3827L4.96766 25.155L4.19173 24.8793L3.62497 25.059L3.57677 24.5089L2.63719 22.8272L2.83258 21.3609V21.1538L2.64542 20.4982L2.08554 19.8988L2.10208 19.1388L1.91492 18.5957L1.76639 18.036L1.8145 17.8879L1.82281 17.7535L1.53666 16.8907L1.44169 16.7165L1.40592 16.5355L1.49954 16.3969L1.49677 16.2364L1.34538 15.9717L1.1845 15.4669L0.42092 15.0705L0.576424 14.6988L0.724959 14.8291L0.925805 14.9402L0.967116 14.7001L0.969887 14.5204L0.650734 13.3971L1.12396 11.8965L0.96846 10.5426L1.69073 9.99535L1.87235 9.83076L1.97689 9.68672L2.14742 9.3767L2.37992 9.27657L2.46246 8.95015L2.45558 8.78689L2.3057 8.647L2.19285 8.26704L2.22996 7.78422L2.26716 7.58259L2.34558 7.21359L2.59865 7.07642L2.65785 6.9667L2.46246 6.7335L2.48035 6.5936L2.90958 6.20267L3.07877 6.08609L3.35669 5.96537L3.57408 5.96675L3.82438 6.03536L4.04866 6.14507L4.26604 6.34395L4.49577 6.57029L4.84792 6.65669L5.08731 6.63475L5.2827 6.73488L5.44778 6.68L5.63485 6.56342L5.93478 6.57029L6.20439 6.4386L6.972 6.37551L7.71216 6.41528L8.48523 6.30557L9.25704 6.31377L10.0357 6.32202L10.2076 6.33847L10.3768 6.40708L11.0331 6.75271L11.5311 6.82404L12.5312 6.91869L13.5973 7.0202L14.5218 7.1066L15.3059 7.0243L15.9567 6.95711L16.1327 6.96808L16.3295 7.18207L16.7215 7.71562L17.0916 8.21764L17.7396 8.2451L18.1551 8.05581L18.6117 7.78971L18.891 7.58397L19.2143 6.76644L19.4234 6.23696L19.9036 5.64029L20.3052 5.14102L20.8362 4.47851L21.1306 4.11227L21.7112 3.38801L22.2656 3.10546L23.3359 2.5609L24.3856 2.0246L25.0693 1.67481L25.6512 1.51571L26.6265 1.37853L27.7725 1.2167L28.9184 1.05483L30.1414 0.883369L31.5034 0.691316L32.4374 0.559667L33.6274 0.39093L34.6179 0.251034L35.4984 0.127589L36.405 0L36.5755 0.403278L36.7461 0.806557L36.9181 1.20983L37.0887 1.61307L37.2593 2.01635L37.4299 2.41963L37.6004 2.82152L37.7724 3.22342L37.943 3.62532L38.1136 4.02722L38.2841 4.42911L38.4561 4.83101L38.6267 5.23152L38.7973 5.63208L38.9679 6.0326L39.1385 6.43311L39.3063 6.82404L39.5814 6.95435L39.7451 7.32469L39.979 7.85279L40.2143 8.37951L40.4481 8.90624L40.6793 9.43434ZM0.158191 14.7879L0.0371128 14.8757L0 14.7221L0.0797674 14.3764L0.206388 14.2763L0.291613 14.5328L0.236615 14.6741L0.158191 14.7879ZM0.91892 20.0537L0.868037 20.1374L0.797926 20.1196L0.55854 19.9097L0.821268 19.6752L0.961575 19.8933L0.91892 20.0537ZM0.796498 21.1072L0.540655 21.2279L0.715387 20.9152L0.894234 20.8507L0.94369 20.8631L0.796498 21.1072ZM43.2945 25.3004L43.5338 25.347L43.8956 25.2112L44.9329 25.1934L46.1834 25.6296L45.9468 25.7434L45.8065 25.9011L45.2576 26.0452L44.71 26.3812L43.1253 26.5445L42.6603 26.4539L42.2778 26.1289L41.5693 25.7064L41.8486 25.4362L41.9091 25.3127L42.0136 25.1948L42.414 24.9904L42.8143 25.0233L43.2945 25.3004Z"/>
</mask>
<path d="M40.6793 9.43434L38.7326 10.1448L38.2195 10.4603L37.7531 10.8499L37.4038 11.3368L37.1588 12.1914L37.3446 12.9718L37.3267 13.3902L36.8246 13.6673L36.3554 13.8662L35.834 14.1707L35.5176 14.2461L35.259 14.4875L34.9578 14.6562L33.8723 15.0952L32.6865 15.434L30.8018 15.84L30.0741 16.2803L29.4123 16.5821L28.4067 16.6726L27.0255 17.091L26.2578 17.4256L25.3045 17.9702L25.094 18.1417L24.9262 18.5422L24.6332 18.8879L24.0595 19.4543L23.6289 19.7451L23.3414 19.7602L22.7828 19.9193L22.1212 19.9523L21.0095 19.7534L20.7235 19.8919L20.4882 20.1127L19.6312 20.5009L18.7604 21.2759L18.1234 21.4817L17.093 21.7244L16.3721 22.0468L15.8879 22.1757L15.2647 22.2429L14.1105 22.21L13.0168 22.3266L12.0029 22.5447L11.5269 22.9576L10.9835 23.6119L10.0962 23.8821L9.88712 24.1166L9.61331 24.5981L9.03966 24.7229L8.51966 24.8038L7.98866 24.594L6.98712 25.1755L6.60885 25.2716L6.03377 25.2949L5.62519 25.417L5.33215 25.3827L4.96766 25.155L4.19173 24.8793L3.62497 25.059L3.57677 24.5089L2.63719 22.8272L2.83258 21.3609V21.1538L2.64542 20.4982L2.08554 19.8988L2.10208 19.1388L1.91492 18.5957L1.76639 18.036L1.8145 17.8879L1.82281 17.7535L1.53666 16.8907L1.44169 16.7165L1.40592 16.5355L1.49954 16.3969L1.49677 16.2364L1.34538 15.9717L1.1845 15.4669L0.42092 15.0705L0.576424 14.6988L0.724959 14.8291L0.925805 14.9402L0.967116 14.7001L0.969887 14.5204L0.650734 13.3971L1.12396 11.8965L0.96846 10.5426L1.69073 9.99535L1.87235 9.83076L1.97689 9.68672L2.14742 9.3767L2.37992 9.27657L2.46246 8.95015L2.45558 8.78689L2.3057 8.647L2.19285 8.26704L2.22996 7.78422L2.26716 7.58259L2.34558 7.21359L2.59865 7.07642L2.65785 6.9667L2.46246 6.7335L2.48035 6.5936L2.90958 6.20267L3.07877 6.08609L3.35669 5.96537L3.57408 5.96675L3.82438 6.03536L4.04866 6.14507L4.26604 6.34395L4.49577 6.57029L4.84792 6.65669L5.08731 6.63475L5.2827 6.73488L5.44778 6.68L5.63485 6.56342L5.93478 6.57029L6.20439 6.4386L6.972 6.37551L7.71216 6.41528L8.48523 6.30557L9.25704 6.31377L10.0357 6.32202L10.2076 6.33847L10.3768 6.40708L11.0331 6.75271L11.5311 6.82404L12.5312 6.91869L13.5973 7.0202L14.5218 7.1066L15.3059 7.0243L15.9567 6.95711L16.1327 6.96808L16.3295 7.18207L16.7215 7.71562L17.0916 8.21764L17.7396 8.2451L18.1551 8.05581L18.6117 7.78971L18.891 7.58397L19.2143 6.76644L19.4234 6.23696L19.9036 5.64029L20.3052 5.14102L20.8362 4.47851L21.1306 4.11227L21.7112 3.38801L22.2656 3.10546L23.3359 2.5609L24.3856 2.0246L25.0693 1.67481L25.6512 1.51571L26.6265 1.37853L27.7725 1.2167L28.9184 1.05483L30.1414 0.883369L31.5034 0.691316L32.4374 0.559667L33.6274 0.39093L34.6179 0.251034L35.4984 0.127589L36.405 0L36.5755 0.403278L36.7461 0.806557L36.9181 1.20983L37.0887 1.61307L37.2593 2.01635L37.4299 2.41963L37.6004 2.82152L37.7724 3.22342L37.943 3.62532L38.1136 4.02722L38.2841 4.42911L38.4561 4.83101L38.6267 5.23152L38.7973 5.63208L38.9679 6.0326L39.1385 6.43311L39.3063 6.82404L39.5814 6.95435L39.7451 7.32469L39.979 7.85279L40.2143 8.37951L40.4481 8.90624L40.6793 9.43434ZM0.158191 14.7879L0.0371128 14.8757L0 14.7221L0.0797674 14.3764L0.206388 14.2763L0.291613 14.5328L0.236615 14.6741L0.158191 14.7879ZM0.91892 20.0537L0.868037 20.1374L0.797926 20.1196L0.55854 19.9097L0.821268 19.6752L0.961575 19.8933L0.91892 20.0537ZM0.796498 21.1072L0.540655 21.2279L0.715387 20.9152L0.894234 20.8507L0.94369 20.8631L0.796498 21.1072ZM43.2945 25.3004L43.5338 25.347L43.8956 25.2112L44.9329 25.1934L46.1834 25.6296L45.9468 25.7434L45.8065 25.9011L45.2576 26.0452L44.71 26.3812L43.1253 26.5445L42.6603 26.4539L42.2778 26.1289L41.5693 25.7064L41.8486 25.4362L41.9091 25.3127L42.0136 25.1948L42.414 24.9904L42.8143 25.0233L43.2945 25.3004Z" fill="var(--fill-0, #71B219)" stroke="var(--stroke-0, white)" mask="url(#path-1-inside-1_0_9)"/>
</g>
</svg>
