<svg preserveAspectRatio="none" width="100%" height="100%" overflow="visible" style="display: block;" viewBox="0 0 46 26" fill="none" xmlns="http://www.w3.org/2000/svg"><g id="YE"><mask id="path-1-inside-1_0_9" fill="white"><path d="M41 9L39 10L38 10L38 11L37 11L37 12L37 13L37 13L37 14L36 14L36 14L36 14L35 14L35 15L34 15L33 15L31 16L30 16L29 17L28 17L27 17L26 17L25 18L25 18L25 18L25 19L24 20L24 20L23 20L23 20L22 20L21 20L21 20L20 20L20 20L19 21L18 22L17 22L16 22L16 22L15 22L14 22L13 22L12 22L12 23L11 24L10 24L10 24L10 25L9 25L8 25L8 25L7 25L7 25L6 25L6 25L5 25L5 25L4 25L4 25L4 24L3 23L3 21V21L3 20L2 20L2 19L2 19L2 18L2 18L2 18L2 17L1 17L1 16L2 16L2 16L1 16L1 16L0 15L1 15L1 15L1 15L1 15L1 14L1 13L1 12L1 10L2 10L2 10L2 10L2 9L2 9L2 9L2 9L2 9L2 8L2 8L2 8L2 7L3 7L3 7L2 7L2 7L3 6L3 6L3 6L4 6L4 6L4 6L4 6L4 7L5 7L5 7L5 7L5 7L6 7L6 7L6 6L7 6L8 6L8 6L9 6L10 6L10 6L10 6L11 7L12 7L12 7L14 7L14 7L15 7L16 7L16 7L16 7L17 8L17 8L18 8L18 8L19 8L19 8L19 7L19 6L20 6L20 5L21 4L21 4L22 3L22 3L23 3L24 2L25 2L26 2L27 1L28 1L29 1L30 1L32 1L32 1L34 0L35 0L36 0L36 0L37 0L37 1L37 1L37 2L37 2L37 2L38 3L38 3L38 4L38 4L38 4L38 5L39 5L39 6L39 6L39 6L39 7L40 7L40 7L40 8L40 8L40 9L41 9ZM0 15L0 15L0 15L0 14L0 14L0 14L0 15L0 15ZM1 20L1 20L1 20L1 20L1 20L1 20L1 20ZM1 21L0 21L1 21L1 21L1 21L1 21ZM43 25L44 25L44 25L45 25L46 26L46 26L46 26L45 26L45 26L43 26L43 26L42 26L42 26L42 25L42 25L42 25L42 25L43 25L43 25Z"/></mask><path d="M41 9L39 10L38 10L38 11L37 11L37 12L37 13L37 13L37 14L36 14L36 14L36 14L35 14L35 15L34 15L33 15L31 16L30 16L29 17L28 17L27 17L26 17L25 18L25 18L25 18L25 19L24 20L24 20L23 20L23 20L22 20L21 20L21 20L20 20L20 20L19 21L18 22L17 22L16 22L16 22L15 22L14 22L13 22L12 22L12 23L11 24L10 24L10 24L10 25L9 25L8 25L8 25L7 25L7 25L6 25L6 25L5 25L5 25L4 25L4 25L4 24L3 23L3 21V21L3 20L2 20L2 19L2 19L2 18L2 18L2 18L2 17L1 17L1 16L2 16L2 16L1 16L1 16L0 15L1 15L1 15L1 15L1 15L1 14L1 13L1 12L1 10L2 10L2 10L2 10L2 9L2 9L2 9L2 9L2 9L2 8L2 8L2 8L2 7L3 7L3 7L2 7L2 7L3 6L3 6L3 6L4 6L4 6L4 6L4 6L4 7L5 7L5 7L5 7L5 7L6 7L6 7L6 6L7 6L8 6L8 6L9 6L10 6L10 6L10 6L11 7L12 7L12 7L14 7L14 7L15 7L16 7L16 7L16 7L17 8L17 8L18 8L18 8L19 8L19 8L19 7L19 6L20 6L20 5L21 4L21 4L22 3L22 3L23 3L24 2L25 2L26 2L27 1L28 1L29 1L30 1L32 1L32 1L34 0L35 0L36 0L36 0L37 0L37 1L37 1L37 2L37 2L37 2L38 3L38 3L38 4L38 4L38 4L38 5L39 5L39 6L39 6L39 6L39 7L40 7L40 7L40 8L40 8L40 9L41 9ZM0 15L0 15L0 15L0 14L0 14L0 14L0 15L0 15ZM1 20L1 20L1 20L1 20L1 20L1 20L1 20ZM1 21L0 21L1 21L1 21L1 21L1 21ZM43 25L44 25L44 25L45 25L46 26L46 26L46 26L45 26L45 26L43 26L43 26L42 26L42 26L42 25L42 25L42 25L42 25L43 25L43 25Z" fill="var(--fill-0,#71B219)" stroke="var(--stroke-0,white)" mask="url(#path-1-inside-1_0_9)"/></g></svg>