<svg preserveAspectRatio="none" width="100%" height="100%" overflow="visible" style="display: block;" viewBox="0 0 0.696779 1.30306" fill="none" xmlns="http://www.w3.org/2000/svg">
<g id="YT">
<mask id="path-1-inside-1_0_238" fill="white">
<path d="M0.531854 1.27016L0.288577 1.30306L0.174572 1.19883L0.104441 0.951936L0.175914 0.714632L0.196551 0.522579L0 0.18929L0.19244 0L0.355939 0.220853L0.449391 0.235922L0.696779 0.389548L0.623964 0.672103L0.64049 0.765366L0.527743 1.04796L0.531854 1.27016Z"/>
</mask>
<path d="M0.531854 1.27016L0.288577 1.30306L0.174572 1.19883L0.104441 0.951936L0.175914 0.714632L0.196551 0.522579L0 0.18929L0.19244 0L0.355939 0.220853L0.449391 0.235922L0.696779 0.389548L0.623964 0.672103L0.64049 0.765366L0.527743 1.04796L0.531854 1.27016Z" fill="var(--fill-0, #71B219)"/>
<path d="M0.531854 1.27016L0.598866 1.76564L1.04 1.70598L1.03177 1.26091L0.531854 1.27016ZM0.288577 1.30306L-0.0488048 1.67207L0.123812 1.82989L0.355589 1.79855L0.288577 1.30306ZM0.174572 1.19883L-0.3064 1.33545L-0.267602 1.47203L-0.162809 1.56784L0.174572 1.19883ZM0.104441 0.951936L-0.374315 0.80774L-0.416507 0.947826L-0.376531 1.08856L0.104441 0.951936ZM0.175914 0.714632L0.654671 0.858828L0.668084 0.814294L0.673053 0.768051L0.175914 0.714632ZM0.196551 0.522579L0.693689 0.575998L0.711388 0.411285L0.627236 0.26859L0.196551 0.522579ZM0 0.18929L-0.350624 -0.167168L-0.62913 0.106779L-0.430685 0.443279L0 0.18929ZM0.19244 0L0.594302 -0.297501L0.25198 -0.759908L-0.158183 -0.356459L0.19244 0ZM0.355939 0.220853L-0.0459225 0.518354L0.0752639 0.682052L0.27634 0.714476L0.355939 0.220853ZM0.449391 0.235922L0.713166 -0.18884L0.627983 -0.241738L0.52899 -0.257701L0.449391 0.235922ZM0.696779 0.389548L1.18096 0.514324L1.27263 0.158586L0.960553 -0.0352141L0.696779 0.389548ZM0.623964 0.672103L0.139783 0.547327L0.112692 0.65245L0.131633 0.759342L0.623964 0.672103ZM0.64049 0.765366L1.10489 0.950648L1.15767 0.818365L1.13282 0.678127L0.64049 0.765366ZM0.527743 1.04796L0.0633396 0.862681L0.0259632 0.956365L0.0278288 1.05721L0.527743 1.04796ZM0.531854 1.27016L0.464842 0.774666L0.221565 0.807568L0.288577 1.30306L0.355589 1.79855L0.598866 1.76564L0.531854 1.27016ZM0.288577 1.30306L0.625959 0.93404L0.511954 0.829809L0.174572 1.19883L-0.162809 1.56784L-0.0488048 1.67207L0.288577 1.30306ZM0.174572 1.19883L0.655544 1.0622L0.585413 0.815312L0.104441 0.951936L-0.376531 1.08856L-0.3064 1.33545L0.174572 1.19883ZM0.104441 0.951936L0.583198 1.09613L0.654671 0.858828L0.175914 0.714632L-0.302842 0.570437L-0.374315 0.80774L0.104441 0.951936ZM0.175914 0.714632L0.673053 0.768051L0.693689 0.575998L0.196551 0.522579L-0.300587 0.46916L-0.321224 0.661214L0.175914 0.714632ZM0.196551 0.522579L0.627236 0.26859L0.430685 -0.0646984L0 0.18929L-0.430685 0.443279L-0.234134 0.776568L0.196551 0.522579ZM0 0.18929L0.350624 0.545749L0.543064 0.356459L0.19244 0L-0.158183 -0.356459L-0.350624 -0.167168L0 0.18929ZM0.19244 0L-0.209421 0.297501L-0.0459225 0.518354L0.355939 0.220853L0.757801 -0.0766484L0.594302 -0.297501L0.19244 0ZM0.355939 0.220853L0.27634 0.714476L0.369792 0.729546L0.449391 0.235922L0.52899 -0.257701L0.435539 -0.27277L0.355939 0.220853ZM0.449391 0.235922L0.185617 0.660685L0.433005 0.814311L0.696779 0.389548L0.960553 -0.0352141L0.713166 -0.18884L0.449391 0.235922ZM0.696779 0.389548L0.212598 0.264773L0.139783 0.547327L0.623964 0.672103L1.10814 0.796878L1.18096 0.514324L0.696779 0.389548ZM0.623964 0.672103L0.131633 0.759342L0.148159 0.852606L0.64049 0.765366L1.13282 0.678127L1.11629 0.584863L0.623964 0.672103ZM0.64049 0.765366L0.176086 0.580085L0.0633396 0.862681L0.527743 1.04796L0.992147 1.23324L1.10489 0.950648L0.64049 0.765366ZM0.527743 1.04796L0.0278288 1.05721L0.0319394 1.2794L0.531854 1.27016L1.03177 1.26091L1.02766 1.03871L0.527743 1.04796Z" fill="var(--stroke-0, white)" mask="url(#path-1-inside-1_0_238)"/>
</g>
</svg>
