<svg preserveAspectRatio="none" width="100%" height="100%" overflow="visible" style="display: block;" viewBox="0 0 83 117" fill="none" xmlns="http://www.w3.org/2000/svg"><g id="ZA"><mask id="path-1-inside-1_0_8" fill="white"><path d="M57 1L57 1L57 1L58 2L58 3L58 4L58 5L58 5L58 6L58 6L59 6L59 7L59 7L59 7L60 8L60 9L60 9L60 9L60 10L60 10L60 11L60 12L60 13L60 13L60 15L60 15L60 16L60 16L60 16L60 16L59 16L58 15L58 15L58 15L57 16L56 16L56 17L56 17L55 18L55 18L55 19L55 19L55 20L56 20L56 20L56 21L57 22L58 22L59 22L60 22L60 21L60 20L60 20L60 20L60 20L60 20L61 20L61 20L62 20L62 20L63 20L64 20L63 21L63 22L63 23L62 26L62 27L61 28L60 28L60 29L60 29L59 29L58 31L57 32L56 33L56 34L55 35L54 37L53 38L52 39L52 40L51 40L50 41L49 42L48 44L46 45L45 46L44 47L44 47L42 49L41 49L39 50L38 50L37 50L36 50L36 51L36 52L35 52L35 52L34 51L33 52L33 52L32 52L32 52L30 52L28 52L28 52L27 52L26 52L25 52L24 52L24 52L23 52L22 52L21 53L20 53L19 54L18 54L18 53L18 53L17 53L17 54L16 54L15 54L14 55L13 55L13 55L12 55L11 54L11 54L11 54L11 54L11 54L11 54L10 54L10 53L10 53L10 53L9 53L9 53L9 53L9 52L9 52L9 52L9 52L8 52L8 52L8 52L8 52L8 53L8 53L7 52L7 52L7 51L8 51L8 51L8 50L7 49L7 49L7 49L6 48L6 48L6 47L6 47L5 46L6 46L6 46L6 46L6 46L7 45L7 45L7 44L7 43L7 41L7 41L6 40L5 38L4 36L3 34L2 31L1 29L0 28L0 27L0 27L1 27L1 27L1 27L1 27L1 26L1 26L1 26L2 26L2 25L2 25L2 25L3 25L3 25L3 26L3 26L3 26L4 26L4 26L4 27L4 27L4 27L4 27L4 28L4 28L4 28L5 28L5 28L6 28L6 29L7 29L8 28L9 28L10 29L10 29L11 29L11 28L11 28L11 28L11 28L12 28L12 27L12 27L13 27L14 27V26V24V22V20V18V16V15V13V11L14 11L15 12L15 12L16 13L16 14L16 15L17 16L17 16L17 16L17 17L17 17L17 17L16 18L16 18L16 19L16 19L16 20L17 20L17 20L17 20L18 20L19 20L20 20L20 20L20 20L20 20L21 19L21 19L21 19L22 19L22 19L22 18L23 17L24 17L24 17L24 16L24 16L24 15L25 14L25 14L25 14L25 13L26 13L26 13L26 13L27 13L27 13L28 14L28 14L29 14L29 15L30 15L30 15L30 15L31 15L31 15L32 15L32 15L33 15L33 15L34 15L34 15L35 15L35 15L35 14L36 14L36 13L36 12L36 12L36 11L36 11L37 11L37 10L38 10L39 10L39 10L39 9L40 9L40 9L41 7L41 6L41 6L41 6L42 6L42 6L42 5L42 5L43 5L43 5L43 5L43 4L44 4L44 4L44 4L44 4L44 4L44 4L44 4L45 3L45 2L46 2L47 2L47 2L48 1L48 1L48 0L49 0L50 0L50 0L51 0L52 0L53 1L54 1L55 1L56 1L56 1L57 1L57 1ZM47 34L48 34L48 34L49 33L49 33L49 33L49 32L49 32L49 32L50 32L50 31L50 30L50 30L50 30L50 30L50 30L50 30L49 29L49 29L48 29L48 28L48 28L47 28L47 28L47 27L47 27L47 27L46 27L46 28L45 28L44 29L44 29L44 29L43 29L43 30L43 30L43 30L42 30L42 31L42 31L42 31L42 32L41 32L41 32L41 32L41 32L41 33L42 33L42 34L42 34L42 34L42 35L42 35L42 35L42 35L42 35L43 35L43 35L43 35L43 36L43 36L44 36L44 36L45 36L45 36L45 36L45 36L45 36L45 35L46 34L46 34L46 34L46 34L47 34L47 34L47 34L47 34ZM83 117L82 117L82 117L82 117L82 117L82 116L82 117L83 117L83 117L83 117Z"/></mask><path d="M57 1L57 1L57 1L58 2L58 3L58 4L58 5L58 5L58 6L58 6L59 6L59 7L59 7L59 7L60 8L60 9L60 9L60 9L60 10L60 10L60 11L60 12L60 13L60 13L60 15L60 15L60 16L60 16L60 16L60 16L59 16L58 15L58 15L58 15L57 16L56 16L56 17L56 17L55 18L55 18L55 19L55 19L55 20L56 20L56 20L56 21L57 22L58 22L59 22L60 22L60 21L60 20L60 20L60 20L60 20L60 20L61 20L61 20L62 20L62 20L63 20L64 20L63 21L63 22L63 23L62 26L62 27L61 28L60 28L60 29L60 29L59 29L58 31L57 32L56 33L56 34L55 35L54 37L53 38L52 39L52 40L51 40L50 41L49 42L48 44L46 45L45 46L44 47L44 47L42 49L41 49L39 50L38 50L37 50L36 50L36 51L36 52L35 52L35 52L34 51L33 52L33 52L32 52L32 52L30 52L28 52L28 52L27 52L26 52L25 52L24 52L24 52L23 52L22 52L21 53L20 53L19 54L18 54L18 53L18 53L17 53L17 54L16 54L15 54L14 55L13 55L13 55L12 55L11 54L11 54L11 54L11 54L11 54L11 54L10 54L10 53L10 53L10 53L9 53L9 53L9 53L9 52L9 52L9 52L9 52L8 52L8 52L8 52L8 52L8 53L8 53L7 52L7 52L7 51L8 51L8 51L8 50L7 49L7 49L7 49L6 48L6 48L6 47L6 47L5 46L6 46L6 46L6 46L6 46L7 45L7 45L7 44L7 43L7 41L7 41L6 40L5 38L4 36L3 34L2 31L1 29L0 28L0 27L0 27L1 27L1 27L1 27L1 27L1 26L1 26L1 26L2 26L2 25L2 25L2 25L3 25L3 25L3 26L3 26L3 26L4 26L4 26L4 27L4 27L4 27L4 27L4 28L4 28L4 28L5 28L5 28L6 28L6 29L7 29L8 28L9 28L10 29L10 29L11 29L11 28L11 28L11 28L11 28L12 28L12 27L12 27L13 27L14 27V26V24V22V20V18V16V15V13V11L14 11L15 12L15 12L16 13L16 14L16 15L17 16L17 16L17 16L17 17L17 17L17 17L16 18L16 18L16 19L16 19L16 20L17 20L17 20L17 20L18 20L19 20L20 20L20 20L20 20L20 20L21 19L21 19L21 19L22 19L22 19L22 18L23 17L24 17L24 17L24 16L24 16L24 15L25 14L25 14L25 14L25 13L26 13L26 13L26 13L27 13L27 13L28 14L28 14L29 14L29 15L30 15L30 15L30 15L31 15L31 15L32 15L32 15L33 15L33 15L34 15L34 15L35 15L35 15L35 14L36 14L36 13L36 12L36 12L36 11L36 11L37 11L37 10L38 10L39 10L39 10L39 9L40 9L40 9L41 7L41 6L41 6L41 6L42 6L42 6L42 5L42 5L43 5L43 5L43 5L43 4L44 4L44 4L44 4L44 4L44 4L44 4L44 4L45 3L45 2L46 2L47 2L47 2L48 1L48 1L48 0L49 0L50 0L50 0L51 0L52 0L53 1L54 1L55 1L56 1L56 1L57 1L57 1ZM47 34L48 34L48 34L49 33L49 33L49 33L49 32L49 32L49 32L50 32L50 31L50 30L50 30L50 30L50 30L50 30L50 30L49 29L49 29L48 29L48 28L48 28L47 28L47 28L47 27L47 27L47 27L46 27L46 28L45 28L44 29L44 29L44 29L43 29L43 30L43 30L43 30L42 30L42 31L42 31L42 31L42 32L41 32L41 32L41 32L41 32L41 33L42 33L42 34L42 34L42 34L42 35L42 35L42 35L42 35L42 35L43 35L43 35L43 35L43 36L43 36L44 36L44 36L45 36L45 36L45 36L45 36L45 36L45 35L46 34L46 34L46 34L46 34L47 34L47 34L47 34L47 34ZM83 117L82 117L82 117L82 117L82 117L82 116L82 117L83 117L83 117L83 117Z" fill="var(--fill-0,#71B219)" stroke="var(--stroke-0,white)" mask="url(#path-1-inside-1_0_8)"/></g></svg>