<svg preserveAspectRatio="none" width="100%" height="100%" overflow="visible" style="display: block;" viewBox="0 0 82.7727 117.294" fill="none" xmlns="http://www.w3.org/2000/svg">
<g id="ZA">
<mask id="path-1-inside-1_0_8" fill="white">
<path d="M57.2921 1.06031L57.3128 1.2784L57.3403 1.37719L57.5246 1.95193L57.7998 2.81332L57.9827 3.60883L58.2345 4.70212L58.2262 5.31244L58.2881 5.54836L58.5137 5.84331L58.7902 6.35082L58.8838 6.63747L58.976 6.85288L59.2677 7.2616L59.4946 7.88163L59.6872 8.70326L59.8523 9.09825L59.9142 9.29306L59.9885 9.64695L59.9788 10.3945L59.983 11.2627L59.9885 12.2326L59.9926 13.0349L59.9637 13.441L59.9844 14.5973L59.7353 15.1994L59.7657 15.674L59.8426 15.9813L59.7409 16.0293L59.5469 16.0842L58.6555 15.5972L57.786 15.0829L57.6608 15.0677L57.4778 15.1212L56.9854 15.4944L56.5245 16.0786L56.3126 16.5779L55.9728 17.0937L55.4253 17.9249L55.3689 18.1047L55.3634 18.7822L55.3895 19.4283L55.4377 19.5188L55.7335 19.549L55.9453 20.0784L56.4295 20.9234L57.2426 21.4666L57.9978 21.7135L59.0516 21.7752L59.8853 21.7574L59.8372 21.1867L59.9197 20.2718L60.0256 19.6573L60.1426 19.6299L60.3613 19.6889L60.4824 19.752L60.8167 19.7259L61.411 19.8466L61.8911 19.8343L62.3203 19.8219L63.0453 19.8014L63.469 19.7945L63.3259 20.7862L62.7729 22.3431L62.5844 23.0591L62.1126 25.6255L61.4963 26.9245L61.1509 27.4621L60.1522 28.4141L59.8743 28.6075L59.628 28.7309L59.1906 28.8406L57.4792 30.7747L56.8423 31.7101L56.2755 33.0777L55.7128 33.8308L54.8861 35.4411L54.1473 36.6879L53.4388 37.8291L52.2131 39.4038L51.6683 39.8606L51.301 40.0691L50.327 40.9867L48.9554 42.4681L47.9058 43.785L46.3361 45.2855L45.4268 45.9439L44.0621 47.2429L43.681 47.435L42.143 48.6461L41.0369 49.384L39.2471 50.2413L38.5359 50.4814L36.837 50.2592L36.1285 50.3771L35.5355 50.8956L35.4805 51.6418L35.2329 51.7543L34.8587 51.7214L33.6715 51.41L33.0276 51.469L32.6521 51.8682L32.3494 52.3729L31.4552 52.399L29.8622 51.8764L27.9885 51.5582L27.5552 51.5225L26.6472 51.9107L26.3308 51.9669L25.0087 51.8832L24.2755 51.6391L23.5739 51.6377L23.036 51.8394L22.3839 51.9107L20.6216 53.3166L19.7109 53.318L18.9254 53.4812L18.5361 53.4758L17.807 53.2782L17.536 53.2919L17.1205 53.3797L16.705 53.628L15.7586 53.735L15.3912 53.9476L13.7927 55.2383L13.4281 55.1862L13.1337 55.1025L12.3028 55.0861L11.3632 54.3989L11.0028 54.4427L11.0991 54.237L11.128 53.8722L10.9285 53.6143L10.795 53.499L10.4264 53.521L10.2297 53.211L9.66562 53.1822L9.47032 53.2604L9.19928 53.2768L9.17585 52.9627L9.1965 52.7652L9.18005 52.4621L9.11262 52.0904L8.89389 51.9724L8.72605 51.923L8.32712 51.9491L8.05197 51.9889L7.92266 52.0972L7.77547 52.3702L7.77404 53.1987L7.57597 52.9614L7.35035 52.4649L7.27747 51.9354L7.35858 51.3113L7.78647 51.0739L7.75339 50.6529L7.66262 50.288L7.18528 49.3552L6.99954 48.9287L6.59508 48.6406L6.28004 47.9466L5.96366 47.6956L5.83158 47.21L5.52208 46.8231L5.41746 46.2114L5.58808 45.8616L5.8577 45.6696L6.13285 45.9727L6.47543 45.8548L6.961 45.4131L7.2485 44.7437L7.26639 43.6752L7.19216 43.01L6.80693 41.2954L6.62539 40.9017L5.75593 39.6796L4.7475 38.0486L3.47223 35.4905L2.86281 33.9597L1.93977 30.8872L1.12673 29.1575L0.127964 27.5499L0 27.4457L0.152734 27.2509L0.690617 26.8805L0.934118 26.7804L1.06477 26.827L1.19139 26.7255L1.31381 26.4745L1.34135 26.24L1.40181 25.908L1.52154 25.7091L1.65362 25.3141L1.87781 25.0603L2.35247 24.8917L2.7115 25.1152L2.86147 25.3333L2.92335 25.6214L3.08297 25.7613L3.33881 25.7516L3.519 25.9286L3.62362 26.2935L3.60297 26.5568L3.45712 26.7214L3.47777 26.9368L3.6635 27.2042L3.7405 27.4593L3.86435 27.7968L4.51643 27.993L4.83558 28.1027L5.38446 28.1397L5.90312 28.2906L6.39146 28.554L7.19485 28.6171L8.31335 28.4813L9.2337 28.5416L9.95589 28.7995L10.48 28.8475L10.8047 28.6842L10.9464 28.4497L10.9024 28.1425L11.0633 27.9491L11.4279 27.8667L11.7195 27.6363L11.9397 27.2564L12.4473 26.9477L13.2438 26.7105L13.6401 26.7187V26.1055V24.1743V22.2526V20.3377V18.4297V16.53V14.6384V12.7524V10.9788L13.8257 11.1064L15.0487 12.0474L15.3789 12.5425L15.5426 12.8566L16.0681 13.9992L16.4588 15.0266L16.7766 15.8029L16.8014 16.1583L16.8468 16.5053L16.8921 16.6767L16.8632 16.866L16.6391 17.2898L16.4107 17.6136L16.1355 18.0566L16.1094 18.6423L16.1919 19.3337L16.3611 19.6779L16.573 19.7918L17.0793 19.6203L17.3998 19.6738L17.8524 19.8055L19.3354 19.7246L19.5142 19.7671L20.0742 19.8165L20.2612 19.7589L20.4291 19.6121L20.6231 19.1979L20.7964 19.0607L21.1114 18.9907L21.4842 18.8782L21.7924 18.6395L22.2807 17.8207L23.2588 17.0951L23.5587 16.9223L23.7486 16.7275L23.9137 16.4655L24.2562 15.5547L24.5149 14.7976L24.6029 14.4409L24.834 13.8593L25.1133 13.4876L25.3871 13.2914L25.5246 13.242L25.8768 13.1419L26.3294 13.0487L26.8054 13.1529L27.3158 13.3778L27.8922 13.7564L28.4824 14.2256L28.7534 14.4642L29.0464 14.5712L29.5677 14.6083L29.909 14.6L30.44 15.0664L30.7083 15.0952L31.3094 15.2365L32.0523 15.3818L32.5186 15.3654L33.0194 15.113L33.3799 15.102L33.8462 15.1226L34.3593 15.0541L34.7349 14.9457L35.0224 14.7262L35.2756 14.4862L35.5672 13.7716L35.735 13.1982L35.9936 12.5384L36.3114 11.6454L36.4256 11.0241L36.5412 10.8526L37.0034 10.6633L37.3844 10.533L38.4135 10.2889L38.6239 10.1586L38.8166 9.86638L39.265 9.37126L39.8181 8.95835L40.1043 8.72243L40.6269 6.72253L40.6903 6.47564L41.0699 5.9462L41.3052 5.72258L41.4565 5.71848L41.6711 5.57858L41.9504 5.30424L42.2819 5.13412L42.6658 5.07108L42.9148 4.88865L43.0289 4.5896L43.227 4.44418L43.5091 4.45247L43.67 4.35778L43.7086 4.15886L43.8791 3.98741L44.1804 3.84617L44.3372 3.67748L44.3523 3.48408L44.7115 3.01358L45.4144 2.26604L46.0761 1.85037L46.6979 1.76532L47.2881 1.61035L47.8452 1.38406L48.2538 1.02875L48.5152 0.545937L48.9651 0.275689L49.8716 0.196155L49.9212 0.192053L51.0245 0L51.9475 0.156389L53.0605 0.598094L54.1019 0.754399L55.0731 0.625471L55.8628 0.596671L56.4695 0.668L56.9482 0.821626L57.2921 1.06031ZM47.4435 33.9693L48.0777 33.6881L48.3639 33.5166L48.5703 33.3754L48.8371 33.1614L48.9293 32.6415L49.0077 32.1999L49.2113 31.9817L49.4204 31.8377L49.5924 31.6087L49.8056 31.0586L49.9514 30.521L49.9665 30.3015L49.8909 30.0765L49.7547 29.8365L49.6213 29.5127L49.4603 29.462L49.1453 29.2809L48.6817 28.9161L48.28 28.5993L47.903 28.1397L47.7489 28.0643L47.3844 27.7529L47.2276 27.5746L47.1175 27.3606L47.0143 27.2906L46.8506 27.3456L46.42 27.4402L45.497 27.8133L44.9246 28.1562L44.4432 28.5649L43.9438 28.7213L43.5778 28.8571L43.2876 29.3249L43.0165 29.761L42.7731 30.1547L42.6327 30.3317L42.5062 30.4455L42.3782 30.6979L42.1155 31.1176L41.8748 31.3988L41.5391 31.5524L41.1057 31.7513L40.9585 31.8665L40.9379 32.0366L41.0919 32.4316L41.2406 32.813L41.4841 33.2601L41.6629 33.588L41.9449 33.9885L42.1099 34.2231L42.0879 34.6167L42.1444 34.758L42.2379 34.9212L42.3163 34.9624L42.4044 35.0213L42.6383 35.1352L42.6947 35.2106L42.8583 35.3451L43.0152 35.5906L43.3123 35.928L43.6466 36.1845L44.2203 36.2902L44.6688 36.3725L44.8173 36.3217L44.9701 36.1145L45.0953 35.8512L45.1351 35.5165L45.2782 35.3382L45.8161 34.4891L46.1118 34.1751L46.2934 34.1517L46.526 34.0914L46.8231 34.0653L47.0459 34.0914L47.0941 34.0817L47.4435 33.9693ZM82.6544 117.19L82.4879 117.294L81.7079 117.202L81.624 116.987L81.8537 116.655L81.9899 116.515L82.393 116.59L82.715 116.859L82.7727 116.95L82.6544 117.19Z"/>
</mask>
<path d="M57.2921 1.06031L57.3128 1.2784L57.3403 1.37719L57.5246 1.95193L57.7998 2.81332L57.9827 3.60883L58.2345 4.70212L58.2262 5.31244L58.2881 5.54836L58.5137 5.84331L58.7902 6.35082L58.8838 6.63747L58.976 6.85288L59.2677 7.2616L59.4946 7.88163L59.6872 8.70326L59.8523 9.09825L59.9142 9.29306L59.9885 9.64695L59.9788 10.3945L59.983 11.2627L59.9885 12.2326L59.9926 13.0349L59.9637 13.441L59.9844 14.5973L59.7353 15.1994L59.7657 15.674L59.8426 15.9813L59.7409 16.0293L59.5469 16.0842L58.6555 15.5972L57.786 15.0829L57.6608 15.0677L57.4778 15.1212L56.9854 15.4944L56.5245 16.0786L56.3126 16.5779L55.9728 17.0937L55.4253 17.9249L55.3689 18.1047L55.3634 18.7822L55.3895 19.4283L55.4377 19.5188L55.7335 19.549L55.9453 20.0784L56.4295 20.9234L57.2426 21.4666L57.9978 21.7135L59.0516 21.7752L59.8853 21.7574L59.8372 21.1867L59.9197 20.2718L60.0256 19.6573L60.1426 19.6299L60.3613 19.6889L60.4824 19.752L60.8167 19.7259L61.411 19.8466L61.8911 19.8343L62.3203 19.8219L63.0453 19.8014L63.469 19.7945L63.3259 20.7862L62.7729 22.3431L62.5844 23.0591L62.1126 25.6255L61.4963 26.9245L61.1509 27.4621L60.1522 28.4141L59.8743 28.6075L59.628 28.7309L59.1906 28.8406L57.4792 30.7747L56.8423 31.7101L56.2755 33.0777L55.7128 33.8308L54.8861 35.4411L54.1473 36.6879L53.4388 37.8291L52.2131 39.4038L51.6683 39.8606L51.301 40.0691L50.327 40.9867L48.9554 42.4681L47.9058 43.785L46.3361 45.2855L45.4268 45.9439L44.0621 47.2429L43.681 47.435L42.143 48.6461L41.0369 49.384L39.2471 50.2413L38.5359 50.4814L36.837 50.2592L36.1285 50.3771L35.5355 50.8956L35.4805 51.6418L35.2329 51.7543L34.8587 51.7214L33.6715 51.41L33.0276 51.469L32.6521 51.8682L32.3494 52.3729L31.4552 52.399L29.8622 51.8764L27.9885 51.5582L27.5552 51.5225L26.6472 51.9107L26.3308 51.9669L25.0087 51.8832L24.2755 51.6391L23.5739 51.6377L23.036 51.8394L22.3839 51.9107L20.6216 53.3166L19.7109 53.318L18.9254 53.4812L18.5361 53.4758L17.807 53.2782L17.536 53.2919L17.1205 53.3797L16.705 53.628L15.7586 53.735L15.3912 53.9476L13.7927 55.2383L13.4281 55.1862L13.1337 55.1025L12.3028 55.0861L11.3632 54.3989L11.0028 54.4427L11.0991 54.237L11.128 53.8722L10.9285 53.6143L10.795 53.499L10.4264 53.521L10.2297 53.211L9.66562 53.1822L9.47032 53.2604L9.19928 53.2768L9.17585 52.9627L9.1965 52.7652L9.18005 52.4621L9.11262 52.0904L8.89389 51.9724L8.72605 51.923L8.32712 51.9491L8.05197 51.9889L7.92266 52.0972L7.77547 52.3702L7.77404 53.1987L7.57597 52.9614L7.35035 52.4649L7.27747 51.9354L7.35858 51.3113L7.78647 51.0739L7.75339 50.6529L7.66262 50.288L7.18528 49.3552L6.99954 48.9287L6.59508 48.6406L6.28004 47.9466L5.96366 47.6956L5.83158 47.21L5.52208 46.8231L5.41746 46.2114L5.58808 45.8616L5.8577 45.6696L6.13285 45.9727L6.47543 45.8548L6.961 45.4131L7.2485 44.7437L7.26639 43.6752L7.19216 43.01L6.80693 41.2954L6.62539 40.9017L5.75593 39.6796L4.7475 38.0486L3.47223 35.4905L2.86281 33.9597L1.93977 30.8872L1.12673 29.1575L0.127964 27.5499L0 27.4457L0.152734 27.2509L0.690617 26.8805L0.934118 26.7804L1.06477 26.827L1.19139 26.7255L1.31381 26.4745L1.34135 26.24L1.40181 25.908L1.52154 25.7091L1.65362 25.3141L1.87781 25.0603L2.35247 24.8917L2.7115 25.1152L2.86147 25.3333L2.92335 25.6214L3.08297 25.7613L3.33881 25.7516L3.519 25.9286L3.62362 26.2935L3.60297 26.5568L3.45712 26.7214L3.47777 26.9368L3.6635 27.2042L3.7405 27.4593L3.86435 27.7968L4.51643 27.993L4.83558 28.1027L5.38446 28.1397L5.90312 28.2906L6.39146 28.554L7.19485 28.6171L8.31335 28.4813L9.2337 28.5416L9.95589 28.7995L10.48 28.8475L10.8047 28.6842L10.9464 28.4497L10.9024 28.1425L11.0633 27.9491L11.4279 27.8667L11.7195 27.6363L11.9397 27.2564L12.4473 26.9477L13.2438 26.7105L13.6401 26.7187V26.1055V24.1743V22.2526V20.3377V18.4297V16.53V14.6384V12.7524V10.9788L13.8257 11.1064L15.0487 12.0474L15.3789 12.5425L15.5426 12.8566L16.0681 13.9992L16.4588 15.0266L16.7766 15.8029L16.8014 16.1583L16.8468 16.5053L16.8921 16.6767L16.8632 16.866L16.6391 17.2898L16.4107 17.6136L16.1355 18.0566L16.1094 18.6423L16.1919 19.3337L16.3611 19.6779L16.573 19.7918L17.0793 19.6203L17.3998 19.6738L17.8524 19.8055L19.3354 19.7246L19.5142 19.7671L20.0742 19.8165L20.2612 19.7589L20.4291 19.6121L20.6231 19.1979L20.7964 19.0607L21.1114 18.9907L21.4842 18.8782L21.7924 18.6395L22.2807 17.8207L23.2588 17.0951L23.5587 16.9223L23.7486 16.7275L23.9137 16.4655L24.2562 15.5547L24.5149 14.7976L24.6029 14.4409L24.834 13.8593L25.1133 13.4876L25.3871 13.2914L25.5246 13.242L25.8768 13.1419L26.3294 13.0487L26.8054 13.1529L27.3158 13.3778L27.8922 13.7564L28.4824 14.2256L28.7534 14.4642L29.0464 14.5712L29.5677 14.6083L29.909 14.6L30.44 15.0664L30.7083 15.0952L31.3094 15.2365L32.0523 15.3818L32.5186 15.3654L33.0194 15.113L33.3799 15.102L33.8462 15.1226L34.3593 15.0541L34.7349 14.9457L35.0224 14.7262L35.2756 14.4862L35.5672 13.7716L35.735 13.1982L35.9936 12.5384L36.3114 11.6454L36.4256 11.0241L36.5412 10.8526L37.0034 10.6633L37.3844 10.533L38.4135 10.2889L38.6239 10.1586L38.8166 9.86638L39.265 9.37126L39.8181 8.95835L40.1043 8.72243L40.6269 6.72253L40.6903 6.47564L41.0699 5.9462L41.3052 5.72258L41.4565 5.71848L41.6711 5.57858L41.9504 5.30424L42.2819 5.13412L42.6658 5.07108L42.9148 4.88865L43.0289 4.5896L43.227 4.44418L43.5091 4.45247L43.67 4.35778L43.7086 4.15886L43.8791 3.98741L44.1804 3.84617L44.3372 3.67748L44.3523 3.48408L44.7115 3.01358L45.4144 2.26604L46.0761 1.85037L46.6979 1.76532L47.2881 1.61035L47.8452 1.38406L48.2538 1.02875L48.5152 0.545937L48.9651 0.275689L49.8716 0.196155L49.9212 0.192053L51.0245 0L51.9475 0.156389L53.0605 0.598094L54.1019 0.754399L55.0731 0.625471L55.8628 0.596671L56.4695 0.668L56.9482 0.821626L57.2921 1.06031ZM47.4435 33.9693L48.0777 33.6881L48.3639 33.5166L48.5703 33.3754L48.8371 33.1614L48.9293 32.6415L49.0077 32.1999L49.2113 31.9817L49.4204 31.8377L49.5924 31.6087L49.8056 31.0586L49.9514 30.521L49.9665 30.3015L49.8909 30.0765L49.7547 29.8365L49.6213 29.5127L49.4603 29.462L49.1453 29.2809L48.6817 28.9161L48.28 28.5993L47.903 28.1397L47.7489 28.0643L47.3844 27.7529L47.2276 27.5746L47.1175 27.3606L47.0143 27.2906L46.8506 27.3456L46.42 27.4402L45.497 27.8133L44.9246 28.1562L44.4432 28.5649L43.9438 28.7213L43.5778 28.8571L43.2876 29.3249L43.0165 29.761L42.7731 30.1547L42.6327 30.3317L42.5062 30.4455L42.3782 30.6979L42.1155 31.1176L41.8748 31.3988L41.5391 31.5524L41.1057 31.7513L40.9585 31.8665L40.9379 32.0366L41.0919 32.4316L41.2406 32.813L41.4841 33.2601L41.6629 33.588L41.9449 33.9885L42.1099 34.2231L42.0879 34.6167L42.1444 34.758L42.2379 34.9212L42.3163 34.9624L42.4044 35.0213L42.6383 35.1352L42.6947 35.2106L42.8583 35.3451L43.0152 35.5906L43.3123 35.928L43.6466 36.1845L44.2203 36.2902L44.6688 36.3725L44.8173 36.3217L44.9701 36.1145L45.0953 35.8512L45.1351 35.5165L45.2782 35.3382L45.8161 34.4891L46.1118 34.1751L46.2934 34.1517L46.526 34.0914L46.8231 34.0653L47.0459 34.0914L47.0941 34.0817L47.4435 33.9693ZM82.6544 117.19L82.4879 117.294L81.7079 117.202L81.624 116.987L81.8537 116.655L81.9899 116.515L82.393 116.59L82.715 116.859L82.7727 116.95L82.6544 117.19Z" fill="var(--fill-0, #71B219)" stroke="var(--stroke-0, white)" mask="url(#path-1-inside-1_0_8)"/>
</g>
</svg>
