<svg preserveAspectRatio="none" width="100%" height="100%" overflow="visible" style="display: block;" viewBox="0 0 45 39" fill="none" xmlns="http://www.w3.org/2000/svg"><g id="ZM"><mask id="path-1-inside-1_0_7" fill="white"><path d="M42 5L42 5L42 5L42 5L42 5L42 6L43 6L43 6L43 6L43 6L43 6L43 6L44 6L44 6L44 6L44 7L44 7L44 8L44 8L45 8L45 8L45 8L45 9L45 9L45 9L44 10L44 10L44 10L44 10L44 10L44 11L44 11L44 11L44 12L44 12L44 12L43 12L43 13L44 13L44 13L44 14L44 14L44 14L44 15L44 16L44 16L44 16L44 16L44 16L44 17L44 17L44 17L43 17L42 18L42 18L42 18L43 18L42 19L42 19L42 19L42 20L42 20L42 20L42 20L42 21L42 21L41 21L41 21L42 21L42 21L42 22L42 22L42 22L42 22L42 22L42 22L42 23L42 23L42 23L43 23L43 23L43 22L43 22L43 23L42 23L42 23L41 24L40 24L40 24L39 24L39 24L38 25L37 25L37 25L36 25L35 25L34 26L34 26L33 26L33 26L32 27L32 27L32 27L32 27L32 28L32 28L32 29L32 29L32 29L31 29L30 29L29 29L28 30L27 30L27 30L27 30L27 31L27 31V32L26 32L26 33V33L25 33L24 34L23 34L22 35L22 36L21 37L20 38L20 38L18 39L18 39L17 38L16 38L16 38L15 38L14 38L14 38L14 38L13 38L13 38L12 37L12 37L11 37L11 37L9 36L9 36L8 37L7 37L6 37L5 37L5 36L4 36L3 35L2 34L2 34L1 33L1 33L1 33L0 32L0 30V30L0 28V27V26L0 24V23V22L0 21V19V19H1H2H3H4H5H6H7L7 19L8 19L8 18L7 18L7 18L8 17L8 17L8 16L8 16L8 15L8 15L8 14L8 14L8 13L8 13L8 13L8 13L8 12L8 12L8 12L8 12L8 11L8 10L8 10L8 10L8 11L8 11L8 11L9 11L9 11L9 12L9 12L9 12L9 12L10 13L10 13L10 12L11 12L11 12L11 12L12 12L12 12L13 12H13L13 12L13 12L13 12L13 13L13 13L13 14L13 14L14 14L14 14L15 14L15 14L16 14L16 14L17 14L17 15L18 15L18 15L19 15L19 15L19 14L19 14L19 14L20 14L20 13L20 13L20 13L20 13L20 14L21 15L21 15L21 16L22 16L22 16L22 16L23 16L24 16L24 16L25 17L25 17L25 17L25 17L25 18L25 18L26 18L26 18L26 18L26 19L27 19L27 20L27 20L27 20L28 20L28 20L28 20L29 20L29 20L29 20L29 20L30 20L30 20L30 20L30 20L30 20L30 20L30 20L30 19V19L30 18V17L30 17V16L30 15L30 15L30 16L29 16L29 16L29 16L29 16L29 16L29 16L29 16L28 16L28 16L27 16L27 16L26 15L26 15L26 14L25 14L25 14L25 14L25 13L25 13L25 13L25 12L25 11L25 11L25 10L26 10L26 9L26 8L26 8L26 7L26 7L26 6L26 6L25 5L25 4L25 4L25 4L26 3L26 3L26 3L26 3L27 2L27 2L27 2L27 1L27 1L28 1L29 1L30 1L31 0L32 0L33 0L34 0L34 0L34 1L34 1L35 1L35 2L35 2L36 2L37 2L37 2L37 2L37 3L37 3L38 3L38 3L38 3L38 3L38 3L38 3L38 3L39 3L39 3L40 4L40 4L40 4L41 4L41 4L42 4L42 5L42 5Z"/></mask><path d="M42 5L42 5L42 5L42 5L42 5L42 6L43 6L43 6L43 6L43 6L43 6L43 6L44 6L44 6L44 6L44 7L44 7L44 8L44 8L45 8L45 8L45 8L45 9L45 9L45 9L44 10L44 10L44 10L44 10L44 10L44 11L44 11L44 11L44 12L44 12L44 12L43 12L43 13L44 13L44 13L44 14L44 14L44 14L44 15L44 16L44 16L44 16L44 16L44 16L44 17L44 17L44 17L43 17L42 18L42 18L42 18L43 18L42 19L42 19L42 19L42 20L42 20L42 20L42 20L42 21L42 21L41 21L41 21L42 21L42 21L42 22L42 22L42 22L42 22L42 22L42 22L42 23L42 23L42 23L43 23L43 23L43 22L43 22L43 23L42 23L42 23L41 24L40 24L40 24L39 24L39 24L38 25L37 25L37 25L36 25L35 25L34 26L34 26L33 26L33 26L32 27L32 27L32 27L32 27L32 28L32 28L32 29L32 29L32 29L31 29L30 29L29 29L28 30L27 30L27 30L27 30L27 31L27 31V32L26 32L26 33V33L25 33L24 34L23 34L22 35L22 36L21 37L20 38L20 38L18 39L18 39L17 38L16 38L16 38L15 38L14 38L14 38L14 38L13 38L13 38L12 37L12 37L11 37L11 37L9 36L9 36L8 37L7 37L6 37L5 37L5 36L4 36L3 35L2 34L2 34L1 33L1 33L1 33L0 32L0 30V30L0 28V27V26L0 24V23V22L0 21V19V19H1H2H3H4H5H6H7L7 19L8 19L8 18L7 18L7 18L8 17L8 17L8 16L8 16L8 15L8 15L8 14L8 14L8 13L8 13L8 13L8 13L8 12L8 12L8 12L8 12L8 11L8 10L8 10L8 10L8 11L8 11L8 11L9 11L9 11L9 12L9 12L9 12L9 12L10 13L10 13L10 12L11 12L11 12L11 12L12 12L12 12L13 12H13L13 12L13 12L13 12L13 13L13 13L13 14L13 14L14 14L14 14L15 14L15 14L16 14L16 14L17 14L17 15L18 15L18 15L19 15L19 15L19 14L19 14L19 14L20 14L20 13L20 13L20 13L20 13L20 14L21 15L21 15L21 16L22 16L22 16L22 16L23 16L24 16L24 16L25 17L25 17L25 17L25 17L25 18L25 18L26 18L26 18L26 18L26 19L27 19L27 20L27 20L27 20L28 20L28 20L28 20L29 20L29 20L29 20L29 20L30 20L30 20L30 20L30 20L30 20L30 20L30 20L30 19V19L30 18V17L30 17V16L30 15L30 15L30 16L29 16L29 16L29 16L29 16L29 16L29 16L29 16L28 16L28 16L27 16L27 16L26 15L26 15L26 14L25 14L25 14L25 14L25 13L25 13L25 13L25 12L25 11L25 11L25 10L26 10L26 9L26 8L26 8L26 7L26 7L26 6L26 6L25 5L25 4L25 4L25 4L26 3L26 3L26 3L26 3L27 2L27 2L27 2L27 1L27 1L28 1L29 1L30 1L31 0L32 0L33 0L34 0L34 0L34 1L34 1L35 1L35 2L35 2L36 2L37 2L37 2L37 2L37 3L37 3L38 3L38 3L38 3L38 3L38 3L38 3L38 3L39 3L39 3L40 4L40 4L40 4L41 4L41 4L42 4L42 5L42 5Z" fill="var(--fill-0,#71B219)" stroke="var(--stroke-0,white)" mask="url(#path-1-inside-1_0_7)"/></g></svg>