<svg preserveAspectRatio="none" width="100%" height="100%" overflow="visible" style="display: block;" viewBox="0 0 45.1048 38.7317" fill="none" xmlns="http://www.w3.org/2000/svg">
<g id="ZM">
<mask id="path-1-inside-1_0_7" fill="white">
<path d="M42.242 4.69794L42.2558 4.80083L42.3618 4.9956L42.4732 5.1355L42.4828 5.34124L42.5351 5.53329L42.6974 5.57992L42.8309 5.59227L42.9546 5.4551L43.1225 5.45786L43.3069 5.54564L43.3729 5.76645L43.5173 6.06274L43.7498 6.26576L43.9066 6.46191L43.853 6.81852L43.7539 7.14364L44.0704 7.46596L44.4816 7.77183L44.5931 7.90763L44.6261 8.36302L44.6894 8.51665L44.9686 8.89523L45.1048 9.14626L45.0953 9.29164L44.3454 10.0419L44.1075 10.1146L43.8819 10.1572L43.681 10.3108L43.5599 10.4713L43.604 10.5563L43.6838 10.8128L43.8585 11.2188L44.0167 11.5028L43.8846 11.858L43.5875 12.4616L43.4499 12.5151L43.4252 12.9718L43.5159 13.1392L43.6645 13.2708L43.725 13.5809L43.7291 14.0088L43.7127 14.3531L43.5256 15.2296L43.864 15.9963L43.9795 16.08L44.4486 16.0855L44.5285 16.15L44.417 16.3681L44.2135 16.593L44.0883 16.7069L43.4912 16.9689L42.6341 17.2583L42.4553 17.5354L42.3411 17.94L42.4374 18.1773L42.5502 18.3131L42.5144 18.6656L42.4388 19.0387L42.465 19.3322L42.4264 19.5915L42.3136 19.7191L42.1636 20.11L41.9793 20.5036L41.8334 20.6833L41.6188 20.8713L41.2791 21.0276L41.2846 21.1072L41.6698 21.2882L41.7688 21.4144L41.8046 21.5008L41.722 21.5831L41.6436 21.6998L41.8211 21.8204L42.0385 21.9219L42.2435 22.1839L42.4264 22.5502L42.4786 22.6791L42.5213 22.7298L42.5874 22.7353L42.7153 22.6805L42.9505 22.4802L43.1225 22.4089L43.3302 22.6942L42.5007 22.9768L42.0659 23.1249L40.8264 23.5474L39.7438 23.9164L39.4618 23.9863L38.9005 24.166L38.6213 24.2771L37.6431 24.5994L37.2346 24.7599L36.9058 24.9204L36.0982 25.1591L35.3347 25.384L34.5011 25.6172L33.5683 25.8764L33.0442 26.0644L32.6906 26.2262L31.8638 26.5554L31.8253 26.635L31.8363 26.8586L31.9422 27.3194L32.1486 27.7378L32.3219 27.9792L32.4348 28.5992L32.498 29.1437L31.9368 29.1451L30.949 29.1479L29.9241 29.1493L28.9886 29.3577L28.2196 29.6746L27.302 30.1698L27.0035 30.3645L26.7724 30.5141L26.6266 30.7075L26.5551 31.1299V31.7828L26.4614 32.252L26.1836 32.684V32.6827L24.79 33.2053L23.8793 33.6318L22.9851 34.138L22.3069 34.795L21.8447 35.6029L21.0771 36.6042L20.2956 37.4725L19.4661 38.397L18.5361 38.7317L17.7547 38.6563L16.8124 38.2818L16.064 38.2105L15.5095 38.4436L14.9979 38.371L14.5273 37.9951L14.1339 37.8579L13.8147 37.9595L13.4075 37.9416L12.6633 37.7359L12.0194 37.0953L11.6714 36.8319L11.4031 36.7305L10.6327 36.6276L8.86501 36.4808L8.68062 36.5137L7.946 36.6399L7.02843 36.7976L6.23882 36.9554L5.41201 37.12L4.64296 36.4534L3.77216 35.6976L2.86835 34.854L2.19016 34.1942L1.85447 33.8143L1.25881 33.3122L0.829581 33.0667L0.663077 32.9433L0.236615 31.61L0.00411432 30.3865V29.4661L0.00277087 28.1918V26.9189V25.6488L0.00142742 24.38V23.1126V21.8492L0 20.5859V19.324V18.7109H0.89012H1.89989H2.955H4.10231H5.2497H6.39701H7.19762L7.40812 18.7013L7.66128 18.6629L7.67916 18.538L7.34901 17.9194L7.36547 17.7L7.45355 17.2802L7.58974 16.9181L7.76993 16.4421L7.78916 16.1623L7.64474 15.2501L7.65851 14.7426L7.69973 14.2146L7.74104 13.7153L7.6915 13.3669L7.75204 13.1776L7.8607 12.906L7.91712 12.5987L7.98454 12.467L7.96255 12.345L7.90201 12.1173L7.84147 11.607L7.75759 10.8979L7.67362 10.3876L7.81393 10.4164L8.10562 10.4644L8.24727 10.7141L8.32981 10.9884L8.52654 11.0035L9.03831 11.1653L9.21582 11.3917L9.3327 11.8813L9.26259 12.1324L9.09751 12.334L9.26259 12.5123L9.60508 12.6316L9.80593 12.596L10.3838 12.2627L10.6149 12.2037L10.9161 12.1379L11.1885 12.0528L11.9575 11.9006L12.3771 11.8333L12.6137 11.714H12.7788L12.8971 11.81L12.7912 12.1557L12.7555 12.4657L12.9027 13.0459L13.0127 13.3161L13.2604 13.5136L13.4405 13.6165L13.6401 13.8264L14.0541 13.7907L14.9648 14.087L15.2414 14.2242L15.6252 14.3613L15.8976 14.4121L16.8371 14.5163L17.1838 14.5863L17.8276 14.6796L18.3421 14.696L18.7067 14.6535L18.9625 14.5685L19.1194 14.4752L19.1909 14.3942L19.2969 14.1048L19.4881 13.4766L19.5637 13.2887L19.7536 13.2023L19.9999 13.146L20.1443 13.2461L20.3052 13.9429L21.022 14.5726L21.2668 15.102L21.4457 15.5547L21.6012 15.6781L21.8736 15.8331L22.3082 15.888L22.6962 15.9045L23.5134 16.2309L24.1627 16.4902L24.6277 16.6767L24.8409 16.818L24.9895 17.0498L25.0775 17.2295L25.2206 17.6959L25.3733 18.0648L25.6223 18.1348L25.8451 18.1636L26.0653 18.416L26.2317 18.6368L26.5619 19.1772L26.8054 19.5503L26.8852 19.9138L27.1617 20.1566L27.5386 20.2595L27.8867 20.2732L28.0875 20.1648L28.5814 19.9755L28.9666 19.7602L29.2472 19.6847L29.4138 19.7314L29.5403 19.8809L29.6077 20.1731L29.6242 20.3363L29.898 20.4913L30.1002 20.4296L30.1786 20.2499L30.1827 20.1607L30.1814 19.3651V18.6766L30.1799 18.0291V17.2405L30.1786 16.5532V15.9881L30.1773 15.3983L30.0012 15.4312L29.7797 15.5656L29.2692 15.5821L29.0698 15.6822L29.0079 15.8345L29.0464 16.032L29.0574 16.3009L28.9817 16.427L28.7589 16.4778L28.4342 16.3735L27.8468 16.2391L27.357 16.1554L27.0049 15.7988L26.5289 15.2612L26.2166 14.9909L25.4654 14.4299L25.3376 14.3174L25.1092 14.0554L24.9138 13.611L24.8176 13.3161L24.7267 13.0967L24.6263 12.7702L24.8079 12.2682L25.0624 11.3135L25.2467 10.6263L25.3486 10.1174L25.7131 9.59889L25.7392 9.13529L25.5921 8.54134L25.6292 8.21354L25.6539 7.3809L25.6746 6.68138L25.6801 6.34119L25.5796 5.75L25.3334 5.09573L24.7914 4.18494L24.7941 3.99017L25.1161 3.7748L25.6264 3.39898L25.8768 3.17541L26.1767 2.85853L26.3101 2.6967L26.6045 2.29066L26.7902 1.96009L26.8549 1.5335L26.7146 1.1275L27.0007 1.04796L27.9403 0.905304L28.9749 0.747534L30.0658 0.58022L31.1664 0.412864L32.2325 0.249652L33.1996 0.10285L33.8682 0L33.9673 0.278452L34.1764 0.74205L34.4116 1.08225L34.7074 1.38125L34.9578 1.56234L35.1243 1.61717L36.1835 1.59796L36.5632 1.77905L36.8948 2.00948L36.9773 2.36613L37.1946 2.5897L37.4299 2.76526L37.5317 2.7872L37.705 2.74471L37.9884 2.74057L38.2511 2.81738L38.3763 2.89557L38.3888 3.19458L38.4685 3.32765L38.8262 3.37977L39.1908 3.40308L39.5429 3.6061L39.9226 3.64177L40.3629 3.72545L40.5719 3.94354L41.0383 4.16711L41.6106 4.36737L42.0233 4.5937L42.242 4.69794Z"/>
</mask>
<path d="M42.242 4.69794L42.2558 4.80083L42.3618 4.9956L42.4732 5.1355L42.4828 5.34124L42.5351 5.53329L42.6974 5.57992L42.8309 5.59227L42.9546 5.4551L43.1225 5.45786L43.3069 5.54564L43.3729 5.76645L43.5173 6.06274L43.7498 6.26576L43.9066 6.46191L43.853 6.81852L43.7539 7.14364L44.0704 7.46596L44.4816 7.77183L44.5931 7.90763L44.6261 8.36302L44.6894 8.51665L44.9686 8.89523L45.1048 9.14626L45.0953 9.29164L44.3454 10.0419L44.1075 10.1146L43.8819 10.1572L43.681 10.3108L43.5599 10.4713L43.604 10.5563L43.6838 10.8128L43.8585 11.2188L44.0167 11.5028L43.8846 11.858L43.5875 12.4616L43.4499 12.5151L43.4252 12.9718L43.5159 13.1392L43.6645 13.2708L43.725 13.5809L43.7291 14.0088L43.7127 14.3531L43.5256 15.2296L43.864 15.9963L43.9795 16.08L44.4486 16.0855L44.5285 16.15L44.417 16.3681L44.2135 16.593L44.0883 16.7069L43.4912 16.9689L42.6341 17.2583L42.4553 17.5354L42.3411 17.94L42.4374 18.1773L42.5502 18.3131L42.5144 18.6656L42.4388 19.0387L42.465 19.3322L42.4264 19.5915L42.3136 19.7191L42.1636 20.11L41.9793 20.5036L41.8334 20.6833L41.6188 20.8713L41.2791 21.0276L41.2846 21.1072L41.6698 21.2882L41.7688 21.4144L41.8046 21.5008L41.722 21.5831L41.6436 21.6998L41.8211 21.8204L42.0385 21.9219L42.2435 22.1839L42.4264 22.5502L42.4786 22.6791L42.5213 22.7298L42.5874 22.7353L42.7153 22.6805L42.9505 22.4802L43.1225 22.4089L43.3302 22.6942L42.5007 22.9768L42.0659 23.1249L40.8264 23.5474L39.7438 23.9164L39.4618 23.9863L38.9005 24.166L38.6213 24.2771L37.6431 24.5994L37.2346 24.7599L36.9058 24.9204L36.0982 25.1591L35.3347 25.384L34.5011 25.6172L33.5683 25.8764L33.0442 26.0644L32.6906 26.2262L31.8638 26.5554L31.8253 26.635L31.8363 26.8586L31.9422 27.3194L32.1486 27.7378L32.3219 27.9792L32.4348 28.5992L32.498 29.1437L31.9368 29.1451L30.949 29.1479L29.9241 29.1493L28.9886 29.3577L28.2196 29.6746L27.302 30.1698L27.0035 30.3645L26.7724 30.5141L26.6266 30.7075L26.5551 31.1299V31.7828L26.4614 32.252L26.1836 32.684V32.6827L24.79 33.2053L23.8793 33.6318L22.9851 34.138L22.3069 34.795L21.8447 35.6029L21.0771 36.6042L20.2956 37.4725L19.4661 38.397L18.5361 38.7317L17.7547 38.6563L16.8124 38.2818L16.064 38.2105L15.5095 38.4436L14.9979 38.371L14.5273 37.9951L14.1339 37.8579L13.8147 37.9595L13.4075 37.9416L12.6633 37.7359L12.0194 37.0953L11.6714 36.8319L11.4031 36.7305L10.6327 36.6276L8.86501 36.4808L8.68062 36.5137L7.946 36.6399L7.02843 36.7976L6.23882 36.9554L5.41201 37.12L4.64296 36.4534L3.77216 35.6976L2.86835 34.854L2.19016 34.1942L1.85447 33.8143L1.25881 33.3122L0.829581 33.0667L0.663077 32.9433L0.236615 31.61L0.00411432 30.3865V29.4661L0.00277087 28.1918V26.9189V25.6488L0.00142742 24.38V23.1126V21.8492L0 20.5859V19.324V18.7109H0.89012H1.89989H2.955H4.10231H5.2497H6.39701H7.19762L7.40812 18.7013L7.66128 18.6629L7.67916 18.538L7.34901 17.9194L7.36547 17.7L7.45355 17.2802L7.58974 16.9181L7.76993 16.4421L7.78916 16.1623L7.64474 15.2501L7.65851 14.7426L7.69973 14.2146L7.74104 13.7153L7.6915 13.3669L7.75204 13.1776L7.8607 12.906L7.91712 12.5987L7.98454 12.467L7.96255 12.345L7.90201 12.1173L7.84147 11.607L7.75759 10.8979L7.67362 10.3876L7.81393 10.4164L8.10562 10.4644L8.24727 10.7141L8.32981 10.9884L8.52654 11.0035L9.03831 11.1653L9.21582 11.3917L9.3327 11.8813L9.26259 12.1324L9.09751 12.334L9.26259 12.5123L9.60508 12.6316L9.80593 12.596L10.3838 12.2627L10.6149 12.2037L10.9161 12.1379L11.1885 12.0528L11.9575 11.9006L12.3771 11.8333L12.6137 11.714H12.7788L12.8971 11.81L12.7912 12.1557L12.7555 12.4657L12.9027 13.0459L13.0127 13.3161L13.2604 13.5136L13.4405 13.6165L13.6401 13.8264L14.0541 13.7907L14.9648 14.087L15.2414 14.2242L15.6252 14.3613L15.8976 14.4121L16.8371 14.5163L17.1838 14.5863L17.8276 14.6796L18.3421 14.696L18.7067 14.6535L18.9625 14.5685L19.1194 14.4752L19.1909 14.3942L19.2969 14.1048L19.4881 13.4766L19.5637 13.2887L19.7536 13.2023L19.9999 13.146L20.1443 13.2461L20.3052 13.9429L21.022 14.5726L21.2668 15.102L21.4457 15.5547L21.6012 15.6781L21.8736 15.8331L22.3082 15.888L22.6962 15.9045L23.5134 16.2309L24.1627 16.4902L24.6277 16.6767L24.8409 16.818L24.9895 17.0498L25.0775 17.2295L25.2206 17.6959L25.3733 18.0648L25.6223 18.1348L25.8451 18.1636L26.0653 18.416L26.2317 18.6368L26.5619 19.1772L26.8054 19.5503L26.8852 19.9138L27.1617 20.1566L27.5386 20.2595L27.8867 20.2732L28.0875 20.1648L28.5814 19.9755L28.9666 19.7602L29.2472 19.6847L29.4138 19.7314L29.5403 19.8809L29.6077 20.1731L29.6242 20.3363L29.898 20.4913L30.1002 20.4296L30.1786 20.2499L30.1827 20.1607L30.1814 19.3651V18.6766L30.1799 18.0291V17.2405L30.1786 16.5532V15.9881L30.1773 15.3983L30.0012 15.4312L29.7797 15.5656L29.2692 15.5821L29.0698 15.6822L29.0079 15.8345L29.0464 16.032L29.0574 16.3009L28.9817 16.427L28.7589 16.4778L28.4342 16.3735L27.8468 16.2391L27.357 16.1554L27.0049 15.7988L26.5289 15.2612L26.2166 14.9909L25.4654 14.4299L25.3376 14.3174L25.1092 14.0554L24.9138 13.611L24.8176 13.3161L24.7267 13.0967L24.6263 12.7702L24.8079 12.2682L25.0624 11.3135L25.2467 10.6263L25.3486 10.1174L25.7131 9.59889L25.7392 9.13529L25.5921 8.54134L25.6292 8.21354L25.6539 7.3809L25.6746 6.68138L25.6801 6.34119L25.5796 5.75L25.3334 5.09573L24.7914 4.18494L24.7941 3.99017L25.1161 3.7748L25.6264 3.39898L25.8768 3.17541L26.1767 2.85853L26.3101 2.6967L26.6045 2.29066L26.7902 1.96009L26.8549 1.5335L26.7146 1.1275L27.0007 1.04796L27.9403 0.905304L28.9749 0.747534L30.0658 0.58022L31.1664 0.412864L32.2325 0.249652L33.1996 0.10285L33.8682 0L33.9673 0.278452L34.1764 0.74205L34.4116 1.08225L34.7074 1.38125L34.9578 1.56234L35.1243 1.61717L36.1835 1.59796L36.5632 1.77905L36.8948 2.00948L36.9773 2.36613L37.1946 2.5897L37.4299 2.76526L37.5317 2.7872L37.705 2.74471L37.9884 2.74057L38.2511 2.81738L38.3763 2.89557L38.3888 3.19458L38.4685 3.32765L38.8262 3.37977L39.1908 3.40308L39.5429 3.6061L39.9226 3.64177L40.3629 3.72545L40.5719 3.94354L41.0383 4.16711L41.6106 4.36737L42.0233 4.5937L42.242 4.69794Z" fill="var(--fill-0, #71B219)" stroke="var(--stroke-0, white)" mask="url(#path-1-inside-1_0_7)"/>
</g>
</svg>
