<svg preserveAspectRatio="none" width="100%" height="100%" overflow="visible" style="display: block;" viewBox="0 0 30 27" fill="none" xmlns="http://www.w3.org/2000/svg"><g id="ZW"><mask id="path-1-inside-1_0_6" fill="white"><path d="M23 27L23 27L23 27L22 27L21 27L20 27L19 27L18 26L17 26L16 26L16 26L16 26L16 26L15 26L15 26L15 26L15 26L15 26L15 25L15 25L14 25L14 25L14 24L13 24L11 24L11 24L11 24L11 24L10 23L10 23L10 22L9 22L10 21L10 21L10 21L10 20L10 20L10 20L10 20L9 20L9 20L8 20L8 19L8 18L8 18L8 18L7 18L6 18L6 17L5 16L4 16L4 16L3 15L3 14L3 13L3 13L2 13L2 12L2 12L1 11L1 11L1 10L1 10L0 10L0 10L0 9L0 9L0 9L0 9L1 9L1 9L2 9L2 9L2 9L3 9L4 9L4 9L5 10L6 10L7 9L8 8L8 8L9 6L10 6L10 5L11 4L12 4L14 4V4L14 3L14 3V2L14 2L14 1L14 1L15 1L16 0L16 0L17 0L18 0L19 0L20 0L20 1L20 1L20 1L21 1L22 2L23 2L24 2L24 2L25 2L26 3L27 3L28 4L29 4L29 4L29 4L30 4L30 4L30 4L30 5L30 6L30 6L30 7L30 8L30 10L30 10L30 10L30 11L30 11L30 11L30 12L30 12L30 12L30 12L29 13L29 13L29 13L29 14L29 14L29 14L29 14L29 14L29 14L29 15L29 16L30 16L30 17L30 17L30 17L30 18L30 18L29 19L29 20L28 20L28 20L28 20L28 21L28 21L28 22L28 23L28 23L28 23L27 24L26 24L26 25L25 26L24 26L24 27L23 27Z"/></mask><path d="M23 27L23 27L23 27L22 27L21 27L20 27L19 27L18 26L17 26L16 26L16 26L16 26L16 26L15 26L15 26L15 26L15 26L15 26L15 25L15 25L14 25L14 25L14 24L13 24L11 24L11 24L11 24L11 24L10 23L10 23L10 22L9 22L10 21L10 21L10 21L10 20L10 20L10 20L10 20L9 20L9 20L8 20L8 19L8 18L8 18L8 18L7 18L6 18L6 17L5 16L4 16L4 16L3 15L3 14L3 13L3 13L2 13L2 12L2 12L1 11L1 11L1 10L1 10L0 10L0 10L0 9L0 9L0 9L0 9L1 9L1 9L2 9L2 9L2 9L3 9L4 9L4 9L5 10L6 10L7 9L8 8L8 8L9 6L10 6L10 5L11 4L12 4L14 4V4L14 3L14 3V2L14 2L14 1L14 1L15 1L16 0L16 0L17 0L18 0L19 0L20 0L20 1L20 1L20 1L21 1L22 2L23 2L24 2L24 2L25 2L26 3L27 3L28 4L29 4L29 4L29 4L30 4L30 4L30 4L30 5L30 6L30 6L30 7L30 8L30 10L30 10L30 10L30 11L30 11L30 11L30 12L30 12L30 12L30 12L29 13L29 13L29 13L29 14L29 14L29 14L29 14L29 14L29 14L29 15L29 16L30 16L30 17L30 17L30 17L30 18L30 18L29 19L29 20L28 20L28 20L28 20L28 21L28 21L28 22L28 23L28 23L28 23L27 24L26 24L26 25L25 26L24 26L24 27L23 27Z" fill="var(--fill-0,#71B219)" stroke="var(--stroke-0,white)" mask="url(#path-1-inside-1_0_6)"/></g></svg>