<svg preserveAspectRatio="none" width="100%" height="100%" overflow="visible" style="display: block;" viewBox="0 0 30.0493 27.3771" fill="none" xmlns="http://www.w3.org/2000/svg">
<g id="ZW">
<mask id="path-1-inside-1_0_6" fill="white">
<path d="M23.4116 27.3771L23.0622 27.1412L22.5847 26.9875L21.9768 26.9162L21.1885 26.945L20.2173 27.0754L19.1758 26.9175L18.0629 26.4759L17.1398 26.3195L16.0365 26.5116L15.987 26.5157L15.7971 26.3662L15.4944 26.0438L14.9923 25.9862L14.8561 25.9122L14.7434 25.7914L14.6691 25.6378L14.6402 25.4663L14.7227 24.9369L14.6773 24.8779L14.5439 24.8134L14.2674 24.7504L13.6056 24.5103L12.7719 24.2771L11.4197 24.022L10.8941 23.9561L10.7717 23.8779L10.6204 23.6832L10.3604 23.0756L10.1169 22.675L9.53497 22.0564L9.44278 21.8657L9.47166 21.3747L9.51432 20.9796L9.5762 20.6449L9.54874 20.3308L9.54043 19.9413L9.55831 19.6806L9.47989 19.5682L9.26947 19.4887L8.66828 19.453L7.94189 19.4681L7.91855 19.073L7.84835 18.4613L7.71351 18.1101L7.54574 17.9277L7.21139 17.737L6.53597 17.4764L5.61562 17.08L4.8287 16.4929L3.92766 15.7646L3.64562 15.6384L3.3127 14.9552L2.80647 13.7866L2.83947 13.3985L2.76239 13.2078L2.26993 12.6358L2.16128 12.3382L2.07454 12.0378L1.29181 11.201L1.02488 10.8361L0.821352 10.3671L0.619079 9.99259L0.448545 9.84172L0.225616 9.58797L0.0715387 9.29713L0 9.08046L0.0591958 8.79104L0.134849 8.59212L0.87912 8.7979L1.28627 8.81574L1.60542 8.71418L1.99889 8.8514L2.46943 9.22722L2.98112 9.29989L3.53554 9.06673L4.28393 9.13806L5.22627 9.51254L6.00766 9.58797L6.93766 9.25326L7.76716 8.32874L8.54863 7.46048L9.31624 6.45919L9.77847 5.6513L10.4567 4.99426L11.3509 4.48809L12.2616 4.06154L13.6552 3.53892V3.5403L13.933 3.10822L14.0266 2.6391V1.98621L14.0982 1.56372L14.2439 1.37033L14.4751 1.2208L14.7736 1.02603L15.6912 0.530867L16.4602 0.213988L17.3957 0.00552551L18.4206 0.00414413L19.4083 0.00138138L19.9696 0L19.9779 0.626852L20.0205 1.33328L20.1305 1.40051L20.8734 1.41558L22.0647 1.46631L23.2135 1.51298L23.9468 2.02598L24.1929 2.13569L24.9551 2.27287L25.9291 3.12739L27.1012 3.20697L27.9073 3.47446L28.6172 3.76798L29.0258 4.12052L29.2899 4.20005L29.6476 4.22613L29.8209 4.25904L29.7838 4.51279L29.5444 4.94349L29.5761 5.56075L29.9049 6.41666L29.9489 7.16286L29.8484 8.47826L29.8512 9.75532L29.8856 10.2121L29.9392 10.5138L30.0094 10.6798L29.9956 10.8691L29.8003 11.4068L29.6435 11.9719L29.6379 12.1983L29.5774 12.3588L29.4605 12.5L28.9488 12.762L28.8621 12.9239L28.8634 13.2174L28.9281 13.4643L29.1207 13.5548L29.3518 13.6948L29.4426 13.8785L29.444 14.0733L29.3697 14.4341L29.1634 15.0308L29.3697 15.7193L29.5994 16.1665L29.9172 16.6822L30.0493 17.0018L30.0424 17.2309L29.9943 17.4544L29.5196 18.4009L29.1771 18.9907L28.7589 19.6217L28.2058 20.0181L28.0628 20.2087L28.0064 20.4255L28.0256 20.9001L28.0009 21.398L27.5276 22.162L27.8207 22.8204L27.7547 22.8822L27.5951 22.9754L26.9141 23.7174L26.2249 24.4705L25.7214 25.0205L25.1491 25.646L24.508 26.3483L23.9591 26.9505L23.4116 27.3771Z"/>
</mask>
<path d="M23.4116 27.3771L23.0622 27.1412L22.5847 26.9875L21.9768 26.9162L21.1885 26.945L20.2173 27.0754L19.1758 26.9175L18.0629 26.4759L17.1398 26.3195L16.0365 26.5116L15.987 26.5157L15.7971 26.3662L15.4944 26.0438L14.9923 25.9862L14.8561 25.9122L14.7434 25.7914L14.6691 25.6378L14.6402 25.4663L14.7227 24.9369L14.6773 24.8779L14.5439 24.8134L14.2674 24.7504L13.6056 24.5103L12.7719 24.2771L11.4197 24.022L10.8941 23.9561L10.7717 23.8779L10.6204 23.6832L10.3604 23.0756L10.1169 22.675L9.53497 22.0564L9.44278 21.8657L9.47166 21.3747L9.51432 20.9796L9.5762 20.6449L9.54874 20.3308L9.54043 19.9413L9.55831 19.6806L9.47989 19.5682L9.26947 19.4887L8.66828 19.453L7.94189 19.4681L7.91855 19.073L7.84835 18.4613L7.71351 18.1101L7.54574 17.9277L7.21139 17.737L6.53597 17.4764L5.61562 17.08L4.8287 16.4929L3.92766 15.7646L3.64562 15.6384L3.3127 14.9552L2.80647 13.7866L2.83947 13.3985L2.76239 13.2078L2.26993 12.6358L2.16128 12.3382L2.07454 12.0378L1.29181 11.201L1.02488 10.8361L0.821352 10.3671L0.619079 9.99259L0.448545 9.84172L0.225616 9.58797L0.0715387 9.29713L0 9.08046L0.0591958 8.79104L0.134849 8.59212L0.87912 8.7979L1.28627 8.81574L1.60542 8.71418L1.99889 8.8514L2.46943 9.22722L2.98112 9.29989L3.53554 9.06673L4.28393 9.13806L5.22627 9.51254L6.00766 9.58797L6.93766 9.25326L7.76716 8.32874L8.54863 7.46048L9.31624 6.45919L9.77847 5.6513L10.4567 4.99426L11.3509 4.48809L12.2616 4.06154L13.6552 3.53892V3.5403L13.933 3.10822L14.0266 2.6391V1.98621L14.0982 1.56372L14.2439 1.37033L14.4751 1.2208L14.7736 1.02603L15.6912 0.530867L16.4602 0.213988L17.3957 0.00552551L18.4206 0.00414413L19.4083 0.00138138L19.9696 0L19.9779 0.626852L20.0205 1.33328L20.1305 1.40051L20.8734 1.41558L22.0647 1.46631L23.2135 1.51298L23.9468 2.02598L24.1929 2.13569L24.9551 2.27287L25.9291 3.12739L27.1012 3.20697L27.9073 3.47446L28.6172 3.76798L29.0258 4.12052L29.2899 4.20005L29.6476 4.22613L29.8209 4.25904L29.7838 4.51279L29.5444 4.94349L29.5761 5.56075L29.9049 6.41666L29.9489 7.16286L29.8484 8.47826L29.8512 9.75532L29.8856 10.2121L29.9392 10.5138L30.0094 10.6798L29.9956 10.8691L29.8003 11.4068L29.6435 11.9719L29.6379 12.1983L29.5774 12.3588L29.4605 12.5L28.9488 12.762L28.8621 12.9239L28.8634 13.2174L28.9281 13.4643L29.1207 13.5548L29.3518 13.6948L29.4426 13.8785L29.444 14.0733L29.3697 14.4341L29.1634 15.0308L29.3697 15.7193L29.5994 16.1665L29.9172 16.6822L30.0493 17.0018L30.0424 17.2309L29.9943 17.4544L29.5196 18.4009L29.1771 18.9907L28.7589 19.6217L28.2058 20.0181L28.0628 20.2087L28.0064 20.4255L28.0256 20.9001L28.0009 21.398L27.5276 22.162L27.8207 22.8204L27.7547 22.8822L27.5951 22.9754L26.9141 23.7174L26.2249 24.4705L25.7214 25.0205L25.1491 25.646L24.508 26.3483L23.9591 26.9505L23.4116 27.3771Z" fill="var(--fill-0, #71B219)" stroke="var(--stroke-0, white)" mask="url(#path-1-inside-1_0_6)"/>
</g>
</svg>
