<svg preserveAspectRatio="xMidYMid meet" width="100%" height="100%" overflow="visible" style="display: block;" viewBox="0 0 142.333 14.7279" fill="none" xmlns="http://www.w3.org/2000/svg">
<path id="Arrow 2" d="M0 7.36396C0 10.3095 2.38781 12.6973 5.33333 12.6973C8.27885 12.6973 10.6667 10.3095 10.6667 7.36396C10.6667 4.41844 8.27885 2.03063 5.33333 2.03063C2.38781 2.03063 0 4.41844 0 7.36396ZM142.04 8.07107C142.431 7.68054 142.431 7.04738 142.04 6.65685L135.676 0.292893C135.286 -0.097631 134.653 -0.097631 134.262 0.292893C133.872 0.683418 133.872 1.31658 134.262 1.70711L139.919 7.36396L134.262 13.0208C133.872 13.4113 133.872 14.0445 134.262 14.435C134.653 14.8256 135.286 14.8256 135.676 14.435L142.04 8.07107ZM5.33333 7.36396V8.36396H141.333V7.36396V6.36396H5.33333V7.36396Z" fill="url(#paint0_linear_0_4)"/>
<defs>
<linearGradient id="paint0_linear_0_4" x1="-30.3242" y1="7.86405" x2="191.782" y2="7.86405" gradientUnits="userSpaceOnUse">
<stop stop-color="#2C64EB"/>
<stop offset="0.5" stop-color="#00A875"/>
<stop offset="1" stop-color="#71B219"/>
</linearGradient>
</defs>
</svg>
