<svg preserveAspectRatio="xMidYMid meet" width="100%" height="100%" overflow="visible" style="display: block;" viewBox="0 0 54.3333 14.7279" fill="none" xmlns="http://www.w3.org/2000/svg">
<path id="Arrow 4" d="M0 7.36396C0 10.3095 2.38781 12.6973 5.33333 12.6973C8.27885 12.6973 10.6667 10.3095 10.6667 7.36396C10.6667 4.41844 8.27885 2.03063 5.33333 2.03063C2.38781 2.03063 0 4.41844 0 7.36396ZM54.0404 8.07107C54.431 7.68054 54.431 7.04738 54.0404 6.65685L47.6765 0.292893C47.286 -0.097631 46.6528 -0.097631 46.2623 0.292893C45.8717 0.683418 45.8717 1.31658 46.2623 1.70711L51.9191 7.36396L46.2623 13.0208C45.8717 13.4113 45.8717 14.0445 46.2623 14.435C46.6528 14.8256 47.286 14.8256 47.6765 14.435L54.0404 8.07107ZM5.33333 7.36396V8.36396H53.3333V7.36396V6.36396H5.33333V7.36396Z" fill="url(#paint0_linear_0_7)"/>
<defs>
<linearGradient id="paint0_linear_0_7" x1="2.33333" y1="7.86406" x2="53.3333" y2="7.86405" gradientUnits="userSpaceOnUse">
<stop stop-color="#F34346"/>
<stop offset="1" stop-color="#37AD49"/>
</linearGradient>
</defs>
</svg>
