<svg preserveAspectRatio="xMidYMid meet" width="100%" height="100%" overflow="visible" style="display: block;" viewBox="0 0 40 40" fill="none" xmlns="http://www.w3.org/2000/svg">
<g id="bill (1) 1">
<path id="Vector" d="M29.0163 5.83333H10.9837C8.60031 5.83333 6.66667 7.57354 6.66667 9.71848V33.151C6.66667 33.5355 6.90271 33.8896 7.29623 34.0615C7.67843 34.2336 8.1394 34.1931 8.47666 33.9503L11.8718 31.5928L15.2558 33.9503C15.6605 34.2336 16.2226 34.2336 16.6273 33.9503L20.0113 31.5928L23.3952 33.9503C23.7999 34.2336 24.362 34.2336 24.778 33.9503L28.1394 31.5928L31.5233 33.9503C31.7257 34.0919 31.9618 34.1628 32.2091 34.1628C32.3778 34.1628 32.5464 34.1324 32.7038 34.0615C33.0973 33.8896 33.3333 33.5355 33.3333 33.151V9.71848C33.3333 7.57354 31.3997 5.83333 29.0163 5.83333ZM20 18.9863C22.181 18.9863 23.9461 20.5949 23.9461 22.578C23.9461 24.1968 22.7544 25.5526 21.1242 25.9978V26.0686C21.1242 26.6251 20.6183 27.0804 20 27.0804C19.3817 27.0804 18.8758 26.6251 18.8758 26.0686V25.9978C17.2456 25.5526 16.0539 24.1968 16.0539 22.578C16.0539 22.0114 16.5486 21.5663 17.1782 21.5663C17.7965 21.5663 18.3024 22.0114 18.3024 22.578C18.3024 23.438 19.0669 24.1361 20 24.1361C20.9331 24.1361 21.6976 23.438 21.6976 22.578C21.6976 21.7079 20.9331 21.0098 20 21.0098C17.819 21.0098 16.0539 19.4011 16.0539 17.4181C16.0539 15.7992 17.2456 14.4435 18.8758 13.9983V13.9275C18.8758 13.371 19.3817 12.9157 20 12.9157C20.6183 12.9157 21.1242 13.371 21.1242 13.9275V13.9983C22.7544 14.4435 23.9461 15.7992 23.9461 17.4181C23.9461 17.9846 23.4514 18.4298 22.8218 18.4298C22.2035 18.4298 21.6976 17.9846 21.6976 17.4181C21.6976 16.558 20.9331 15.8599 20 15.8599C19.0669 15.8599 18.3024 16.558 18.3024 17.4181C18.3024 18.2882 19.0669 18.9863 20 18.9863Z" fill="var(--fill-0, white)"/>
</g>
</svg>
