<svg preserveAspectRatio="xMidYMid meet" width="100%" height="100%" overflow="visible" style="display: block;" viewBox="0 0 11.9976 11.862" fill="none" xmlns="http://www.w3.org/2000/svg">
<g id="close_1_">
<path id="Vector" d="M1.13755 11.8559C0.843341 11.873 0.553999 11.7752 0.330535 11.5831C-0.110178 11.1397 -0.110178 10.4237 0.330535 9.98037L9.98072 0.330154C10.4391 -0.0987686 11.1584 -0.0749251 11.5873 0.383456C11.9752 0.797968 11.9978 1.43508 11.6402 1.87602L1.93318 11.5831C1.7126 11.7724 1.4279 11.87 1.13755 11.8559Z" fill="var(--fill-0, white)"/>
<path id="Vector_2" d="M10.7739 11.8559C10.4757 11.8546 10.1899 11.7363 9.97822 11.5263L0.328002 1.87601C-0.0802965 1.39921 -0.0247862 0.681657 0.452011 0.273322C0.877565 -0.0911072 1.50517 -0.0911072 1.93069 0.273322L11.6377 9.92354C12.096 10.3526 12.1197 11.0719 11.6907 11.5302C11.6736 11.5484 11.656 11.566 11.6377 11.5831C11.4 11.7898 11.0872 11.8886 10.7739 11.8559Z" fill="var(--fill-0, white)"/>
</g>
</svg>
