<svg preserveAspectRatio="xMidYMid meet" width="100%" height="100%" overflow="visible" style="display: block;" viewBox="0 0 12 9.98313" fill="none" xmlns="http://www.w3.org/2000/svg">
<g id="Group">
<g id="Vector">
<path d="M11.8082 4.52533L7.47457 0.191608C7.35086 0.0679018 7.18598 0 7.01018 0C6.83418 0 6.6694 0.0679994 6.5457 0.191608L6.15224 0.585166C6.02863 0.708677 5.96053 0.873651 5.96053 1.04955C5.96053 1.22536 6.02863 1.39589 6.15224 1.5194L8.68041 4.05314H0.648287C0.286144 4.05314 0 4.33665 0 4.69889V5.25527C0 5.61751 0.286144 5.92961 0.648287 5.92961H8.70909L6.15233 8.47749C6.02873 8.60119 5.96063 8.76168 5.96063 8.93758C5.96063 9.11329 6.02873 9.27612 6.15233 9.39972L6.54579 9.79201C6.6695 9.91572 6.83428 9.98313 7.01028 9.98313C7.18608 9.98313 7.35096 9.91484 7.47466 9.79114L11.8083 5.45751C11.9323 5.33342 12.0005 5.16776 12 4.99166C12.0004 4.81498 11.9323 4.64923 11.8082 4.52533Z" fill="var(--fill-0, #2C64EB)"/>
<path d="M11.8082 4.52533L7.47457 0.191608C7.35086 0.0679018 7.18598 0 7.01018 0C6.83418 0 6.6694 0.0679994 6.5457 0.191608L6.15224 0.585166C6.02863 0.708677 5.96053 0.873651 5.96053 1.04955C5.96053 1.22536 6.02863 1.39589 6.15224 1.5194L8.68041 4.05314H0.648287C0.286144 4.05314 0 4.33665 0 4.69889V5.25527C0 5.61751 0.286144 5.92961 0.648287 5.92961H8.70909L6.15233 8.47749C6.02873 8.60119 5.96063 8.76168 5.96063 8.93758C5.96063 9.11329 6.02873 9.27612 6.15233 9.39972L6.54579 9.79201C6.6695 9.91572 6.83428 9.98313 7.01028 9.98313C7.18608 9.98313 7.35096 9.91484 7.47466 9.79114L11.8083 5.45751C11.9323 5.33342 12.0005 5.16776 12 4.99166C12.0004 4.81498 11.9323 4.64923 11.8082 4.52533Z" fill="url(#paint0_linear_0_13)"/>
</g>
</g>
<defs>
<linearGradient id="paint0_linear_0_13" x1="0" y1="9.98313" x2="9.81648" y2="-1.81653" gradientUnits="userSpaceOnUse">
<stop stop-color="#2C64EB"/>
<stop offset="0.5" stop-color="#00A875"/>
<stop offset="1" stop-color="#71B219"/>
</linearGradient>
</defs>
</svg>
