<svg preserveAspectRatio="xMidYMid meet" width="100%" height="100%" overflow="visible" style="display: block;" viewBox="0 0 40 40" fill="none" xmlns="http://www.w3.org/2000/svg">
<g id="022-brazil 1" clip-path="url(#clip0_0_18)">
<path id="Vector" d="M20 40C31.0457 40 40 31.0457 40 20C40 8.9543 31.0457 0 20 0C8.9543 0 0 8.9543 0 20C0 31.0457 8.9543 40 20 40Z" fill="var(--fill-0, #6DA544)"/>
<path id="Vector_2" d="M20 7.82609L36.5217 20L20 32.1739L3.47828 20L20 7.82609Z" fill="var(--fill-0, #FFDA44)"/>
<path id="Vector_3" d="M20 26.9565C23.842 26.9565 26.9565 23.842 26.9565 20C26.9565 16.158 23.842 13.0435 20 13.0435C16.158 13.0435 13.0435 16.158 13.0435 20C13.0435 23.842 16.158 26.9565 20 26.9565Z" fill="var(--fill-0, #F0F0F0)"/>
<g id="Group">
<path id="Vector_4" d="M16.5217 19.5652C15.312 19.5652 14.1446 19.7492 13.0457 20.0906C13.0944 23.8906 16.1884 26.9566 20 26.9566C22.3569 26.9566 24.4384 25.7834 25.6968 23.9903C23.5439 21.2952 20.2313 19.5652 16.5217 19.5652Z" fill="var(--fill-0, #0052B4)"/>
<path id="Vector_5" d="M26.8276 21.3328C26.9113 20.9013 26.9566 20.456 26.9566 20C26.9566 16.158 23.842 13.0435 20.0001 13.0435C17.1334 13.0435 14.6724 14.778 13.6074 17.2544C14.5488 17.0593 15.5235 16.9566 16.5219 16.9566C20.5623 16.9565 24.2174 18.636 26.8276 21.3328Z" fill="var(--fill-0, #0052B4)"/>
</g>
</g>
<defs>
<clipPath id="clip0_0_18">
<rect width="40" height="40" fill="white"/>
</clipPath>
</defs>
</svg>
