<svg preserveAspectRatio="xMidYMid meet" width="100%" height="100%" overflow="visible" style="display: block;" viewBox="0 0 55.6178 41.9428" fill="none" xmlns="http://www.w3.org/2000/svg">
<g id="AF">
<mask id="path-1-inside-1_0_293" fill="white">
<path d="M55.6178 5.9462L55.4198 5.97772L55.1392 5.86252L55.0291 5.68692L54.9823 5.66226L54.7595 5.77746L54.3343 5.92284L53.6135 6.3028L53.63 6.40021L54.0992 6.78566L54.2091 6.9132L54.2669 6.95297L53.8419 7.13816L52.9284 7.55512L52.3272 7.89532L52.1841 7.90767L51.821 7.76501L51.2845 7.59493L51.1414 7.59765L49.9032 7.62645L48.7656 7.68958L48.2923 7.77188L47.4132 7.85007L46.8602 7.87749L46.5066 8.00918L46.1201 8.18198L45.7184 8.29445L45.4199 8.3315L45.0608 8.49337L44.8242 8.81431L44.1487 9.28892L43.769 9.51798L43.5778 9.77726L43.3604 9.80191L42.989 9.75528L42.7015 10.0351L42.3837 10.4356L41.8018 11.0158L41.4923 11.2504L41.3079 11.629L41.4441 11.8251L41.9173 12.1187L42.1292 12.3958L42.2448 12.6152L42.4608 13.1776L42.5983 13.7304L42.8019 13.9691L42.8611 14.3737L42.9133 14.622L42.8019 14.7989L42.7001 14.9951V15.1816L42.8226 15.3736L42.9299 15.5437L42.989 15.6795L42.9161 15.8304L42.7001 16.0608L42.5901 16.2968L42.3507 16.6904L41.9765 16.9593L41.7289 17.1541L41.4661 17.5655L41.0314 18.0223L40.8484 18.4037L40.6572 18.6135L40.4605 18.726L40.5114 18.9317L40.6819 19.1882L40.964 19.4749L40.9516 19.9207L40.9379 20.2417L40.9474 20.6299L40.7934 20.9563L40.0093 21.2691L39.2581 21.4062L38.3378 21.4144L37.9898 21.3651L37.7118 21.2965L36.7131 20.9454L36.3073 21.1525L36.2234 21.6586L36.9524 22.4788L37.251 22.9356L37.5825 23.6983L37.8301 24.0906L37.7421 24.4581L37.0817 24.8752L36.4256 25.2661L35.5892 25.347L35.0636 25.4869L34.8091 25.6885L34.6221 26.5431L34.4336 26.8558L34.4377 27.2276L34.2603 27.6487L33.992 27.9189L33.8035 28.3605L33.8627 29.1959L33.9507 30.6087L33.5944 31.0531L33.1927 31.503L32.769 31.824L32.3659 31.9722L32.0316 31.9173L31.7675 31.6402L31.6106 31.407L31.319 31.2122L31.0219 31.252L30.7234 31.4303L30.2459 31.3714L29.8388 31.193L29.6324 31.2122L29.5141 31.3919L29.078 31.776L28.0077 32.359L27.5702 32.4015L27.3831 32.5469L27.4574 32.7855L27.6486 32.9803L27.983 33.1175L27.9994 33.2766L27.7051 33.4151L27.4533 33.5729L26.8989 33.7663L26.2592 33.8417L25.5989 33.7292L25.2591 33.4728L24.8574 33.4481L24.4914 33.636L24.1131 33.946L23.7004 34.6098L23.5904 34.7265L23.4789 34.8321L23.2093 34.9747L22.8227 35.2079L22.6287 35.6962L22.3962 36.5645L22.4513 37.0309L22.4692 37.8387L22.3784 38.4052L22.2105 38.777L22.2436 39.0691L22.4994 39.4011L22.3962 39.6165L22.1816 39.8551L21.9739 39.9882L21.1416 40.2392L20.0012 40.5807L19.2473 40.8002L18.1261 41.1266L17.7987 41.2062L17.1163 41.235L16.7628 41.1856L16.284 41.1719L15.5797 41.1842L15.0885 41.2734L14.5961 41.4366L14.2329 41.6424L14.0238 41.8454L13.9495 41.9428L13.4557 41.7754L11.8997 41.4764L7.68596 41.8714L7.28839 41.796L5.85081 41.3338L3.99777 40.7385L2.85181 40.3695L1.38115 39.8867L2.38815 38.6933L3.26584 37.6508L4.14631 36.6029L5.013 35.5673L5.11619 35.2038L5.12997 34.4919L4.90158 33.5386L4.53423 33.1038L3.32227 32.9282L2.41292 32.7951L1.42103 32.6511L1.2945 32.5976L1.18173 31.8528L1.22984 31.5209L1.16519 30.8776L1.17485 30.381L1.31792 29.5649L1.32615 29.1959L0.868037 27.6034L0.612194 26.7187L0.350808 25.8038L0.294384 25.5116L0.288842 25.1508L0.896921 24.3004L1.08542 24.1152L1.44169 23.6914L1.66454 23.4651L1.62608 23.3101L1.23807 23.2209L0.652077 23.2127L0.339809 23.0838L0.0963086 22.8519L0 22.5145L0.159535 21.9151L0 20.7478L0.326039 20.169L0.606652 19.7643L1.55865 19.7067L1.2285 19.2486L1.06888 18.9825L0.967116 18.9057L0.928576 18.7836L0.979459 18.6601L1.22296 18.6135L1.38804 18.4599L1.65631 18.2445L1.79661 18.1512L1.82138 17.8893L1.94935 17.7055L2.14196 17.4737L2.29461 17.2103L2.25607 16.9017L2.39646 16.5313L2.46112 16.2981L2.56288 16.0965L2.47346 15.8029L2.39646 15.5547L2.37169 15.2598L2.52434 15.1816L2.71696 15.0732L2.75416 14.84L2.85592 14.5451L2.93292 14.3106L3.06088 14.1254L3.07465 13.9375L2.99757 13.6261L3.31538 13.5795L3.44335 13.7509L3.61397 13.9732L4.08031 14.3874L4.38292 14.5081L4.76404 14.5685L5.23308 14.5122L5.60731 14.434L5.78339 14.4546L6.19196 14.755L6.66931 15.1761L6.82204 15.364L6.89358 15.6507L7.03389 15.7358L7.33927 15.4518L7.63374 15.3586L7.90469 15.412L8.20328 15.4436L8.50312 15.3393L8.63654 15.2639L9.15797 14.8963L9.6312 14.6165L9.92558 14.445L10.0315 13.8689L10.1677 13.5411L10.3617 13.3504L10.2902 13.1131L10.209 12.9321L10.1264 12.6865L10.209 12.5563L10.3975 12.4986H10.8707L11.703 12.2394L12.3964 11.9801L13.0374 11.7689L13.329 11.7346L13.6055 11.7702L13.7322 11.7085L13.7665 11.5069L13.9234 11.2943L14.2797 11.1215L14.9497 10.7552L15.5412 10.2107L15.7517 9.79643L15.8947 9.19155L16.1713 8.25607L16.4767 7.2287L16.5894 6.77465L16.7187 6.42491L17.2415 6.12996L17.7753 5.91602L18.6021 5.87349L19.572 5.85155L19.7769 5.28778L19.9049 4.80769L20.0659 4.55942L20.301 4.35778L20.3836 4.31802L20.9064 4.61292L21.7084 5.06421L22.6425 5.28917L23.1116 5.40164L23.3069 5.38381L24.486 5.27405L25.4173 5.44966L25.9057 5.92971L26.3858 6.05181L26.8562 5.81999L27.1479 5.77746L27.2607 5.92698L27.4946 5.99007L27.8522 5.96675L28.0586 6.09982L28.0806 6.23285L28.1082 6.38648L28.3722 6.75133L28.8497 7.19438L29.2734 7.30137L29.8305 6.95711L30.019 6.99688L30.1112 6.88579L30.1675 6.63475L30.5046 6.39883L31.1209 6.17798L31.4703 5.98048L31.5955 5.81723L31.8032 5.7706L32.0302 5.81999L32.1926 5.75825L32.2489 5.60328L32.3137 5.53605L32.4292 5.48118L32.5324 5.45376L32.7195 5.49629L33.0647 5.77884L33.5683 6.30008L33.8957 6.53872L34.0456 6.49896L34.2383 6.33847L34.4734 6.0614L34.5313 5.66088L34.4143 5.13826L34.4941 4.71581L34.7734 4.39483L35.2893 4.19729L36.0418 4.12186L36.504 4.16711L36.6746 4.33309L36.9057 4.42363L37.1959 4.44146L37.4629 4.25355L37.7036 3.85714L37.7174 3.36746L37.5041 2.78176L37.5619 2.59519L37.6541 2.51427L37.943 2.30167L38.346 1.86134L38.7354 1.29347L39.1109 0.596671L39.5745 0.165974L40.1262 0L40.7948 0.18929L41.5831 0.732464L41.8788 1.39913L41.6863 2.19057L41.6697 2.62399L41.8293 2.70494L42.0989 2.68297L42.4773 2.55952L42.7249 2.55266L42.8418 2.66514L42.8349 2.88737L42.7028 3.2207L42.5446 4.1548L42.447 4.96132L42.3493 5.75276L42.2654 6.44684L42.4153 6.98725L42.6437 7.80206L42.901 8.33975L43.1637 8.5112L43.4279 8.57291L43.6906 8.52489L44.2313 8.17926L45.0471 7.53729L45.8395 7.14226L46.9923 6.92007L47.3789 6.23013L47.9126 5.77336L49.1315 5.09439L49.7932 4.83377L50.1743 4.78986L50.6503 4.91192L50.7589 4.95583L50.8525 4.98874L51.0987 5.045L51.1496 5.25212L51.085 5.47569L50.8222 5.6595L50.7383 5.80216L50.8387 5.90915L51.2101 5.9462L51.9792 5.69793L52.4772 5.53878L52.8225 5.47569L52.9614 5.26857L53.1788 5.06007L53.5241 5.045L53.8941 5.15609L54.2009 5.22056L54.7223 5.16158L54.9974 5.34266L55.3827 5.6842L55.556 5.8968L55.6178 5.9462Z"/>
</mask>
<path d="M55.6178 5.9462L55.4198 5.97772L55.1392 5.86252L55.0291 5.68692L54.9823 5.66226L54.7595 5.77746L54.3343 5.92284L53.6135 6.3028L53.63 6.40021L54.0992 6.78566L54.2091 6.9132L54.2669 6.95297L53.8419 7.13816L52.9284 7.55512L52.3272 7.89532L52.1841 7.90767L51.821 7.76501L51.2845 7.59493L51.1414 7.59765L49.9032 7.62645L48.7656 7.68958L48.2923 7.77188L47.4132 7.85007L46.8602 7.87749L46.5066 8.00918L46.1201 8.18198L45.7184 8.29445L45.4199 8.3315L45.0608 8.49337L44.8242 8.81431L44.1487 9.28892L43.769 9.51798L43.5778 9.77726L43.3604 9.80191L42.989 9.75528L42.7015 10.0351L42.3837 10.4356L41.8018 11.0158L41.4923 11.2504L41.3079 11.629L41.4441 11.8251L41.9173 12.1187L42.1292 12.3958L42.2448 12.6152L42.4608 13.1776L42.5983 13.7304L42.8019 13.9691L42.8611 14.3737L42.9133 14.622L42.8019 14.7989L42.7001 14.9951V15.1816L42.8226 15.3736L42.9299 15.5437L42.989 15.6795L42.9161 15.8304L42.7001 16.0608L42.5901 16.2968L42.3507 16.6904L41.9765 16.9593L41.7289 17.1541L41.4661 17.5655L41.0314 18.0223L40.8484 18.4037L40.6572 18.6135L40.4605 18.726L40.5114 18.9317L40.6819 19.1882L40.964 19.4749L40.9516 19.9207L40.9379 20.2417L40.9474 20.6299L40.7934 20.9563L40.0093 21.2691L39.2581 21.4062L38.3378 21.4144L37.9898 21.3651L37.7118 21.2965L36.7131 20.9454L36.3073 21.1525L36.2234 21.6586L36.9524 22.4788L37.251 22.9356L37.5825 23.6983L37.8301 24.0906L37.7421 24.4581L37.0817 24.8752L36.4256 25.2661L35.5892 25.347L35.0636 25.4869L34.8091 25.6885L34.6221 26.5431L34.4336 26.8558L34.4377 27.2276L34.2603 27.6487L33.992 27.9189L33.8035 28.3605L33.8627 29.1959L33.9507 30.6087L33.5944 31.0531L33.1927 31.503L32.769 31.824L32.3659 31.9722L32.0316 31.9173L31.7675 31.6402L31.6106 31.407L31.319 31.2122L31.0219 31.252L30.7234 31.4303L30.2459 31.3714L29.8388 31.193L29.6324 31.2122L29.5141 31.3919L29.078 31.776L28.0077 32.359L27.5702 32.4015L27.3831 32.5469L27.4574 32.7855L27.6486 32.9803L27.983 33.1175L27.9994 33.2766L27.7051 33.4151L27.4533 33.5729L26.8989 33.7663L26.2592 33.8417L25.5989 33.7292L25.2591 33.4728L24.8574 33.4481L24.4914 33.636L24.1131 33.946L23.7004 34.6098L23.5904 34.7265L23.4789 34.8321L23.2093 34.9747L22.8227 35.2079L22.6287 35.6962L22.3962 36.5645L22.4513 37.0309L22.4692 37.8387L22.3784 38.4052L22.2105 38.777L22.2436 39.0691L22.4994 39.4011L22.3962 39.6165L22.1816 39.8551L21.9739 39.9882L21.1416 40.2392L20.0012 40.5807L19.2473 40.8002L18.1261 41.1266L17.7987 41.2062L17.1163 41.235L16.7628 41.1856L16.284 41.1719L15.5797 41.1842L15.0885 41.2734L14.5961 41.4366L14.2329 41.6424L14.0238 41.8454L13.9495 41.9428L13.4557 41.7754L11.8997 41.4764L7.68596 41.8714L7.28839 41.796L5.85081 41.3338L3.99777 40.7385L2.85181 40.3695L1.38115 39.8867L2.38815 38.6933L3.26584 37.6508L4.14631 36.6029L5.013 35.5673L5.11619 35.2038L5.12997 34.4919L4.90158 33.5386L4.53423 33.1038L3.32227 32.9282L2.41292 32.7951L1.42103 32.6511L1.2945 32.5976L1.18173 31.8528L1.22984 31.5209L1.16519 30.8776L1.17485 30.381L1.31792 29.5649L1.32615 29.1959L0.868037 27.6034L0.612194 26.7187L0.350808 25.8038L0.294384 25.5116L0.288842 25.1508L0.896921 24.3004L1.08542 24.1152L1.44169 23.6914L1.66454 23.4651L1.62608 23.3101L1.23807 23.2209L0.652077 23.2127L0.339809 23.0838L0.0963086 22.8519L0 22.5145L0.159535 21.9151L0 20.7478L0.326039 20.169L0.606652 19.7643L1.55865 19.7067L1.2285 19.2486L1.06888 18.9825L0.967116 18.9057L0.928576 18.7836L0.979459 18.6601L1.22296 18.6135L1.38804 18.4599L1.65631 18.2445L1.79661 18.1512L1.82138 17.8893L1.94935 17.7055L2.14196 17.4737L2.29461 17.2103L2.25607 16.9017L2.39646 16.5313L2.46112 16.2981L2.56288 16.0965L2.47346 15.8029L2.39646 15.5547L2.37169 15.2598L2.52434 15.1816L2.71696 15.0732L2.75416 14.84L2.85592 14.5451L2.93292 14.3106L3.06088 14.1254L3.07465 13.9375L2.99757 13.6261L3.31538 13.5795L3.44335 13.7509L3.61397 13.9732L4.08031 14.3874L4.38292 14.5081L4.76404 14.5685L5.23308 14.5122L5.60731 14.434L5.78339 14.4546L6.19196 14.755L6.66931 15.1761L6.82204 15.364L6.89358 15.6507L7.03389 15.7358L7.33927 15.4518L7.63374 15.3586L7.90469 15.412L8.20328 15.4436L8.50312 15.3393L8.63654 15.2639L9.15797 14.8963L9.6312 14.6165L9.92558 14.445L10.0315 13.8689L10.1677 13.5411L10.3617 13.3504L10.2902 13.1131L10.209 12.9321L10.1264 12.6865L10.209 12.5563L10.3975 12.4986H10.8707L11.703 12.2394L12.3964 11.9801L13.0374 11.7689L13.329 11.7346L13.6055 11.7702L13.7322 11.7085L13.7665 11.5069L13.9234 11.2943L14.2797 11.1215L14.9497 10.7552L15.5412 10.2107L15.7517 9.79643L15.8947 9.19155L16.1713 8.25607L16.4767 7.2287L16.5894 6.77465L16.7187 6.42491L17.2415 6.12996L17.7753 5.91602L18.6021 5.87349L19.572 5.85155L19.7769 5.28778L19.9049 4.80769L20.0659 4.55942L20.301 4.35778L20.3836 4.31802L20.9064 4.61292L21.7084 5.06421L22.6425 5.28917L23.1116 5.40164L23.3069 5.38381L24.486 5.27405L25.4173 5.44966L25.9057 5.92971L26.3858 6.05181L26.8562 5.81999L27.1479 5.77746L27.2607 5.92698L27.4946 5.99007L27.8522 5.96675L28.0586 6.09982L28.0806 6.23285L28.1082 6.38648L28.3722 6.75133L28.8497 7.19438L29.2734 7.30137L29.8305 6.95711L30.019 6.99688L30.1112 6.88579L30.1675 6.63475L30.5046 6.39883L31.1209 6.17798L31.4703 5.98048L31.5955 5.81723L31.8032 5.7706L32.0302 5.81999L32.1926 5.75825L32.2489 5.60328L32.3137 5.53605L32.4292 5.48118L32.5324 5.45376L32.7195 5.49629L33.0647 5.77884L33.5683 6.30008L33.8957 6.53872L34.0456 6.49896L34.2383 6.33847L34.4734 6.0614L34.5313 5.66088L34.4143 5.13826L34.4941 4.71581L34.7734 4.39483L35.2893 4.19729L36.0418 4.12186L36.504 4.16711L36.6746 4.33309L36.9057 4.42363L37.1959 4.44146L37.4629 4.25355L37.7036 3.85714L37.7174 3.36746L37.5041 2.78176L37.5619 2.59519L37.6541 2.51427L37.943 2.30167L38.346 1.86134L38.7354 1.29347L39.1109 0.596671L39.5745 0.165974L40.1262 0L40.7948 0.18929L41.5831 0.732464L41.8788 1.39913L41.6863 2.19057L41.6697 2.62399L41.8293 2.70494L42.0989 2.68297L42.4773 2.55952L42.7249 2.55266L42.8418 2.66514L42.8349 2.88737L42.7028 3.2207L42.5446 4.1548L42.447 4.96132L42.3493 5.75276L42.2654 6.44684L42.4153 6.98725L42.6437 7.80206L42.901 8.33975L43.1637 8.5112L43.4279 8.57291L43.6906 8.52489L44.2313 8.17926L45.0471 7.53729L45.8395 7.14226L46.9923 6.92007L47.3789 6.23013L47.9126 5.77336L49.1315 5.09439L49.7932 4.83377L50.1743 4.78986L50.6503 4.91192L50.7589 4.95583L50.8525 4.98874L51.0987 5.045L51.1496 5.25212L51.085 5.47569L50.8222 5.6595L50.7383 5.80216L50.8387 5.90915L51.2101 5.9462L51.9792 5.69793L52.4772 5.53878L52.8225 5.47569L52.9614 5.26857L53.1788 5.06007L53.5241 5.045L53.8941 5.15609L54.2009 5.22056L54.7223 5.16158L54.9974 5.34266L55.3827 5.6842L55.556 5.8968L55.6178 5.9462Z" fill="var(--fill-0, #71B219)" stroke="var(--stroke-0, white)" mask="url(#path-1-inside-1_0_293)"/>
</g>
</svg>
