<svg preserveAspectRatio="xMidYMid meet" width="100%" height="100%" overflow="visible" style="display: block;" viewBox="0 0 18.6007 14.4903" fill="none" xmlns="http://www.w3.org/2000/svg">
<g id="AE">
<mask id="path-1-inside-1_0_148" fill="white">
<path d="M18.2541 1.77766L18.5072 2.12196L18.543 4.45515L18.6007 4.62112L18.466 4.64582L18.3146 4.82276L18.1372 5.09573L17.8937 5.23701L17.6983 5.39612L17.514 5.59365L17.3489 5.63614L17.1356 5.38515L16.9884 5.12863L17.0242 5.07241L17.1274 5.05458L17.1659 4.92151L17.1041 4.7295L16.9595 4.65679L16.778 4.6513L16.6033 4.7377L16.4176 4.90782L16.313 5.09025L16.2979 5.45648L16.346 5.86796L16.3447 6.06822L16.2428 6.31649L16.207 6.68138L16.28 6.96394L16.346 7.13263L16.3529 7.27529L16.1796 7.7252L16.3295 7.81026L16.8261 7.84178L16.972 8.14631L17.071 8.35482L17.0435 8.47826L16.6913 8.57014L16.2484 8.67165L15.9306 8.64285L15.3555 8.78003L15.0487 8.99125L15.1382 9.12295L15.244 9.22441L15.2922 9.50287L15.2028 9.89794L15.0405 10.2806L14.8382 10.758L14.6044 11.3052L14.2838 12.1282L14.0129 12.7743L13.984 13.2393L13.9909 13.5424L13.9605 14.1473L13.7033 14.4806L13.6455 14.4903L13.3388 14.4505L13.2356 14.4368L12.9425 14.3983L12.4885 14.3394L11.8984 14.2612L11.2009 14.1707L10.4237 14.0678L9.59274 13.9581L8.73293 13.8456L7.87447 13.7331L7.0422 13.6233L6.26493 13.5219L5.56743 13.43L4.97866 13.3518L4.52466 13.2928L4.23162 13.2544L4.12851 13.2407L3.80381 13.1981L3.62908 12.9732L3.41723 12.7016L3.20405 12.4286L2.99212 12.1557L2.78027 11.8827L2.56843 11.6098L2.35658 11.3368L2.14473 11.0638L1.93289 10.7909L1.72104 10.5165L1.5092 10.2436L1.29593 9.96923L1.08408 9.69492L0.872235 9.42057L0.66039 9.14626L0.448461 8.87191L0.236615 8.59756L0.0935377 8.4138L0.0151978 8.20667L0 7.66346V7.54416L0.143077 7.32469L0.211845 7.48103L0.371464 7.69364L0.642505 7.64152L0.769041 7.67719L0.862579 8.43025L1.06208 8.69773L1.30415 8.80469L2.12551 8.86367L2.63585 8.7622L3.64151 8.27114L4.16973 8.0942L5.63074 8.12434L6.80147 8.32874L8.62428 8.44946L8.97778 8.4179L9.96143 8.02287L10.564 7.67447L10.923 7.57434L11.1596 7.23691L11.3151 6.79796L11.454 6.51127L11.6315 6.37413L11.7994 6.12996L11.9355 5.73355L12.2739 5.33303L13.6304 4.35778L14.4228 3.53201L14.493 3.26453L14.9236 2.86401L15.2688 2.42507L16.8853 1.16864L17.2086 0.648787L17.3998 0.0658038L17.4232 0.0246555L17.5621 0L17.7602 0.0877802L17.7808 0.52396L17.7079 0.935443L17.6997 1.37167L17.6708 1.60759L17.8208 1.80098L18.0766 1.88466L18.1881 1.87503L18.2541 1.77766ZM18.1908 3.5375L18.2142 3.35507L18.1743 3.26043L18.0092 3.24808L17.9404 3.40585L17.9171 3.63214L18.0312 3.65136L18.1908 3.5375ZM11.1803 6.88164L11.1459 6.96394L11.0372 6.95707L10.7648 6.88298L10.6768 6.76502L10.8474 6.62374L10.923 6.61688L11.0317 6.76502L11.1803 6.88164ZM6.80424 7.65525L6.51809 7.67857L6.25939 7.51946L6.80558 7.30685L6.95278 7.21083L7.11239 7.01467L7.24027 7.18341L7.09862 7.44813L6.9982 7.56199L6.80424 7.65525ZM4.04177 7.53043L3.97712 7.56061L3.90835 7.33427L3.91246 7.26294L4.08997 7.16009L4.19862 7.34524L4.04177 7.53043ZM9.10297 7.99679L9.1044 8.13945L8.71228 8.0983L8.60774 8.17235L8.28581 8.1312L7.97078 8.02835L8.18405 7.85689L8.73982 7.65525L8.97089 7.83906L9.10297 7.99679Z"/>
</mask>
<path d="M18.2541 1.77766L18.5072 2.12196L18.543 4.45515L18.6007 4.62112L18.466 4.64582L18.3146 4.82276L18.1372 5.09573L17.8937 5.23701L17.6983 5.39612L17.514 5.59365L17.3489 5.63614L17.1356 5.38515L16.9884 5.12863L17.0242 5.07241L17.1274 5.05458L17.1659 4.92151L17.1041 4.7295L16.9595 4.65679L16.778 4.6513L16.6033 4.7377L16.4176 4.90782L16.313 5.09025L16.2979 5.45648L16.346 5.86796L16.3447 6.06822L16.2428 6.31649L16.207 6.68138L16.28 6.96394L16.346 7.13263L16.3529 7.27529L16.1796 7.7252L16.3295 7.81026L16.8261 7.84178L16.972 8.14631L17.071 8.35482L17.0435 8.47826L16.6913 8.57014L16.2484 8.67165L15.9306 8.64285L15.3555 8.78003L15.0487 8.99125L15.1382 9.12295L15.244 9.22441L15.2922 9.50287L15.2028 9.89794L15.0405 10.2806L14.8382 10.758L14.6044 11.3052L14.2838 12.1282L14.0129 12.7743L13.984 13.2393L13.9909 13.5424L13.9605 14.1473L13.7033 14.4806L13.6455 14.4903L13.3388 14.4505L13.2356 14.4368L12.9425 14.3983L12.4885 14.3394L11.8984 14.2612L11.2009 14.1707L10.4237 14.0678L9.59274 13.9581L8.73293 13.8456L7.87447 13.7331L7.0422 13.6233L6.26493 13.5219L5.56743 13.43L4.97866 13.3518L4.52466 13.2928L4.23162 13.2544L4.12851 13.2407L3.80381 13.1981L3.62908 12.9732L3.41723 12.7016L3.20405 12.4286L2.99212 12.1557L2.78027 11.8827L2.56843 11.6098L2.35658 11.3368L2.14473 11.0638L1.93289 10.7909L1.72104 10.5165L1.5092 10.2436L1.29593 9.96923L1.08408 9.69492L0.872235 9.42057L0.66039 9.14626L0.448461 8.87191L0.236615 8.59756L0.0935377 8.4138L0.0151978 8.20667L0 7.66346V7.54416L0.143077 7.32469L0.211845 7.48103L0.371464 7.69364L0.642505 7.64152L0.769041 7.67719L0.862579 8.43025L1.06208 8.69773L1.30415 8.80469L2.12551 8.86367L2.63585 8.7622L3.64151 8.27114L4.16973 8.0942L5.63074 8.12434L6.80147 8.32874L8.62428 8.44946L8.97778 8.4179L9.96143 8.02287L10.564 7.67447L10.923 7.57434L11.1596 7.23691L11.3151 6.79796L11.454 6.51127L11.6315 6.37413L11.7994 6.12996L11.9355 5.73355L12.2739 5.33303L13.6304 4.35778L14.4228 3.53201L14.493 3.26453L14.9236 2.86401L15.2688 2.42507L16.8853 1.16864L17.2086 0.648787L17.3998 0.0658038L17.4232 0.0246555L17.5621 0L17.7602 0.0877802L17.7808 0.52396L17.7079 0.935443L17.6997 1.37167L17.6708 1.60759L17.8208 1.80098L18.0766 1.88466L18.1881 1.87503L18.2541 1.77766ZM18.1908 3.5375L18.2142 3.35507L18.1743 3.26043L18.0092 3.24808L17.9404 3.40585L17.9171 3.63214L18.0312 3.65136L18.1908 3.5375ZM11.1803 6.88164L11.1459 6.96394L11.0372 6.95707L10.7648 6.88298L10.6768 6.76502L10.8474 6.62374L10.923 6.61688L11.0317 6.76502L11.1803 6.88164ZM6.80424 7.65525L6.51809 7.67857L6.25939 7.51946L6.80558 7.30685L6.95278 7.21083L7.11239 7.01467L7.24027 7.18341L7.09862 7.44813L6.9982 7.56199L6.80424 7.65525ZM4.04177 7.53043L3.97712 7.56061L3.90835 7.33427L3.91246 7.26294L4.08997 7.16009L4.19862 7.34524L4.04177 7.53043ZM9.10297 7.99679L9.1044 8.13945L8.71228 8.0983L8.60774 8.17235L8.28581 8.1312L7.97078 8.02835L8.18405 7.85689L8.73982 7.65525L8.97089 7.83906L9.10297 7.99679Z" fill="var(--fill-0, #71B219)" stroke="var(--stroke-0, white)" mask="url(#path-1-inside-1_0_148)"/>
</g>
</svg>
