<svg preserveAspectRatio="xMidYMid meet" width="100%" height="100%" overflow="visible" style="display: block;" viewBox="0 0 40 40" fill="none" xmlns="http://www.w3.org/2000/svg">
<g id="154-turkey 1" clip-path="url(#clip0_0_4)">
<path id="Vector" d="M20 40C31.0457 40 40 31.0457 40 20C40 8.9543 31.0457 0 20 0C8.9543 0 0 8.9543 0 20C0 31.0457 8.9543 40 20 40Z" fill="var(--fill-0, #D80027)"/>
<g id="Group">
<path id="Vector_2" d="M19.1811 16.3427L20.8221 18.604L23.4797 17.7423L21.8361 20.0016L23.4769 22.2629L20.8202 21.3979L19.1767 23.6573L19.1784 20.8634L16.5217 19.9984L19.1794 19.1367L19.1811 16.3427Z" fill="var(--fill-0, #F0F0F0)"/>
<path id="Vector_3" d="M14.7027 25.6522C11.5811 25.6522 9.05047 23.1216 9.05047 20C9.05047 16.8784 11.5811 14.3478 14.7027 14.3478C15.6759 14.3478 16.5917 14.594 17.3913 15.0272C16.137 13.8005 14.4216 13.0434 12.5287 13.0434C8.68672 13.0434 5.57227 16.158 5.57227 19.9999C5.57227 23.8419 8.6868 26.9564 12.5287 26.9564C14.4217 26.9564 16.137 26.1993 17.3913 24.9727C16.5917 25.406 15.6759 25.6522 14.7027 25.6522Z" fill="var(--fill-0, #F0F0F0)"/>
</g>
</g>
<defs>
<clipPath id="clip0_0_4">
<rect width="40" height="40" fill="white"/>
</clipPath>
</defs>
</svg>
