<svg preserveAspectRatio="xMidYMid meet" width="100%" height="100%" overflow="visible" style="display: block;" viewBox="0 0 40 40" fill="none" xmlns="http://www.w3.org/2000/svg">
<g id="208-germany 1" clip-path="url(#clip0_0_9)">
<path id="Vector" d="M1.24398 26.9565C4.06984 34.5724 11.4007 40 20 40C28.5993 40 35.9302 34.5724 38.756 26.9565L20 25.2174L1.24398 26.9565Z" fill="var(--fill-0, #FFDA44)"/>
<path id="Vector_2" d="M20 0C11.4007 0 4.06984 5.4275 1.24398 13.0435L20 14.7826L38.756 13.0434C35.9302 5.4275 28.5993 0 20 0Z" fill="var(--fill-0, black)"/>
<path id="Vector_3" d="M1.24398 13.0435C0.440078 15.2102 0 17.5536 0 20C0 22.4464 0.440078 24.7898 1.24398 26.9565H38.7561C39.56 24.7898 40 22.4464 40 20C40 17.5536 39.56 15.2102 38.756 13.0435H1.24398Z" fill="var(--fill-0, #D80027)"/>
</g>
<defs>
<clipPath id="clip0_0_9">
<rect width="40" height="40" fill="white"/>
</clipPath>
</defs>
</svg>
