<svg preserveAspectRatio="xMidYMid meet" width="100%" height="100%" overflow="visible" style="display: block;" viewBox="0 0 40 40" fill="none" xmlns="http://www.w3.org/2000/svg">
<g id="197-france 1" clip-path="url(#clip0_0_58)">
<path id="Vector" d="M20 40C31.0457 40 40 31.0457 40 20C40 8.9543 31.0457 0 20 0C8.9543 0 0 8.9543 0 20C0 31.0457 8.9543 40 20 40Z" fill="var(--fill-0, #F0F0F0)"/>
<path id="Vector_2" d="M40 20C40 11.4007 34.5725 4.06984 26.9565 1.24398V38.7561C34.5725 35.9302 40 28.5993 40 20Z" fill="var(--fill-0, #D80027)"/>
<path id="Vector_3" d="M0 20C0 28.5993 5.42758 35.9302 13.0435 38.756V1.24398C5.42758 4.06984 0 11.4007 0 20Z" fill="var(--fill-0, #0052B4)"/>
</g>
<defs>
<clipPath id="clip0_0_58">
<rect width="40" height="40" fill="white"/>
</clipPath>
</defs>
</svg>
