<svg preserveAspectRatio="xMidYMid meet" width="100%" height="100%" overflow="visible" style="display: block;" viewBox="0 0 40 40" fill="none" xmlns="http://www.w3.org/2000/svg">
<g id="055-india 1" clip-path="url(#clip0_0_79)">
<path id="Vector" d="M20 40C31.0457 40 40 31.0457 40 20C40 8.9543 31.0457 0 20 0C8.9543 0 0 8.9543 0 20C0 31.0457 8.9543 40 20 40Z" fill="var(--fill-0, #F0F0F0)"/>
<path id="Vector_2" d="M20 0C12.0703 0 5.21875 4.61719 1.98438 11.3047H38.0156C34.7813 4.61719 27.9297 0 20 0Z" fill="var(--fill-0, #FF9811)"/>
<path id="Vector_3" d="M20 40C27.9297 40 34.7813 35.3828 38.0156 28.6953H1.98438C5.21875 35.3828 12.0703 40 20 40Z" fill="var(--fill-0, #6DA544)"/>
</g>
<defs>
<clipPath id="clip0_0_79">
<rect width="40" height="40" fill="white"/>
</clipPath>
</defs>
</svg>
