<svg preserveAspectRatio="xMidYMid meet" width="100%" height="100%" overflow="visible" style="display: block;" viewBox="0 0 6.75739 15.2543" fill="none" xmlns="http://www.w3.org/2000/svg">
<g id="AL">
<mask id="path-1-inside-1_0_162" fill="white">
<path d="M3.02377 0.52396L3.17642 0.641922L3.49423 1.15496L3.70473 1.60759L4.12154 1.76398L4.3527 1.93954L4.65119 2.20702L4.79427 2.47446L4.99789 3.29337L5.02123 3.78715L4.96212 4.0121L4.91258 4.07108L4.72685 4.87216L4.77084 5.27954L4.7695 5.5484L4.61265 5.65402L4.50812 5.82271L4.67731 6.48661L4.65665 6.77055L4.66496 7.09425L4.969 7.8322L5.14919 8.05991L5.30873 8.16825L5.51512 8.84588L5.63619 8.96246L6.13554 8.89799L6.38047 8.97342L6.47812 9.13391L6.50012 9.24367L6.46712 9.62225L6.59088 9.91301L6.75739 10.2121V10.3945L6.64454 10.6935L6.44512 11.0405L6.18096 11.175L5.88927 11.2874L5.74896 11.5576L5.67885 11.8443L5.54811 12.0569L5.46835 12.2901L5.34315 12.7647L5.31427 12.9362L5.11754 13.1104L4.81216 13.1817L4.537 13.1968L4.3527 13.2777L4.25773 13.4396L4.083 13.5699L3.97846 13.6275V13.7715L4.105 14.0719L4.2495 14.3161L4.25362 14.5109L4.18208 14.5657L3.95781 14.541L3.91104 14.6124L3.88627 14.8318L3.82715 15.017L3.73496 15.1308L3.57543 15.2543L3.28239 15.2145L3.00723 15.028L2.86415 14.9704L2.78161 14.9758L2.75962 14.5191L2.63988 14.1638L2.20519 13.3065L0.786842 12.4725L0.452575 12.0967L0.306727 11.7799L0.159535 11.4808L0.299841 11.4726L0.438805 11.5481L0.616308 11.6399L0.68919 11.4905L0.61211 11.1626L0.246187 10.3972L0.218731 10.186L0.397577 9.54406L0.696075 8.82118L0.676847 7.94329L0.768957 7.27806L0.665764 6.84598L0.616308 6.31653L0.835038 5.61011L1.02346 5.43593L1.13908 5.21097L1.14588 4.45653L0.723616 4.10265L0.237959 4.0368L0.248958 3.78033L0.309497 3.37295L0.275071 3.23711L0.310841 3.00395L0.192533 2.69394L0 2.46898L0.185648 2.07257L0.458033 1.59114L0.711189 1.20979L1.018 0.81204L1.22296 0.430697L1.44169 0.100129L1.63154 0L1.72507 0.0699479L1.77596 0.213988L1.76361 0.639201L1.82827 0.785962L1.95892 0.894337L2.2355 0.84084L2.54088 0.735227L2.95358 0.510272L3.02377 0.52396Z"/>
</mask>
<path d="M3.02377 0.52396L3.17642 0.641922L3.49423 1.15496L3.70473 1.60759L4.12154 1.76398L4.3527 1.93954L4.65119 2.20702L4.79427 2.47446L4.99789 3.29337L5.02123 3.78715L4.96212 4.0121L4.91258 4.07108L4.72685 4.87216L4.77084 5.27954L4.7695 5.5484L4.61265 5.65402L4.50812 5.82271L4.67731 6.48661L4.65665 6.77055L4.66496 7.09425L4.969 7.8322L5.14919 8.05991L5.30873 8.16825L5.51512 8.84588L5.63619 8.96246L6.13554 8.89799L6.38047 8.97342L6.47812 9.13391L6.50012 9.24367L6.46712 9.62225L6.59088 9.91301L6.75739 10.2121V10.3945L6.64454 10.6935L6.44512 11.0405L6.18096 11.175L5.88927 11.2874L5.74896 11.5576L5.67885 11.8443L5.54811 12.0569L5.46835 12.2901L5.34315 12.7647L5.31427 12.9362L5.11754 13.1104L4.81216 13.1817L4.537 13.1968L4.3527 13.2777L4.25773 13.4396L4.083 13.5699L3.97846 13.6275V13.7715L4.105 14.0719L4.2495 14.3161L4.25362 14.5109L4.18208 14.5657L3.95781 14.541L3.91104 14.6124L3.88627 14.8318L3.82715 15.017L3.73496 15.1308L3.57543 15.2543L3.28239 15.2145L3.00723 15.028L2.86415 14.9704L2.78161 14.9758L2.75962 14.5191L2.63988 14.1638L2.20519 13.3065L0.786842 12.4725L0.452575 12.0967L0.306727 11.7799L0.159535 11.4808L0.299841 11.4726L0.438805 11.5481L0.616308 11.6399L0.68919 11.4905L0.61211 11.1626L0.246187 10.3972L0.218731 10.186L0.397577 9.54406L0.696075 8.82118L0.676847 7.94329L0.768957 7.27806L0.665764 6.84598L0.616308 6.31653L0.835038 5.61011L1.02346 5.43593L1.13908 5.21097L1.14588 4.45653L0.723616 4.10265L0.237959 4.0368L0.248958 3.78033L0.309497 3.37295L0.275071 3.23711L0.310841 3.00395L0.192533 2.69394L0 2.46898L0.185648 2.07257L0.458033 1.59114L0.711189 1.20979L1.018 0.81204L1.22296 0.430697L1.44169 0.100129L1.63154 0L1.72507 0.0699479L1.77596 0.213988L1.76361 0.639201L1.82827 0.785962L1.95892 0.894337L2.2355 0.84084L2.54088 0.735227L2.95358 0.510272L3.02377 0.52396Z" fill="var(--fill-0, #71B219)" stroke="var(--stroke-0, white)" mask="url(#path-1-inside-1_0_162)"/>
</g>
</svg>
