<svg preserveAspectRatio="xMidYMid meet" width="100%" height="100%" overflow="visible" style="display: block;" viewBox="0 0 41.8484 41.8449" fill="none" xmlns="http://www.w3.org/2000/svg">
<g id="Layer 2">
<path id="Vector" d="M23.9081 23.9115H17.9304C16.2796 23.9115 14.9415 25.2496 14.9415 26.9004V38.856C14.9415 40.5067 16.2796 41.8449 17.9304 41.8449H23.9081C25.5589 41.8449 26.897 40.5067 26.897 38.856V26.9004C26.897 25.2496 25.5589 23.9115 23.9081 23.9115Z" fill="var(--fill-0, white)"/>
<path id="Vector_2" d="M8.96674 28.3942H2.98895C1.33822 28.3942 4.88281e-05 29.7324 4.88281e-05 31.3831V38.8553C4.88281e-05 40.5061 1.33822 41.8442 2.98895 41.8442H8.96674C10.6175 41.8442 11.9556 40.5061 11.9556 38.8553V31.3831C11.9556 29.7324 10.6175 28.3942 8.96674 28.3942Z" fill="var(--fill-0, white)"/>
<path id="Vector_3" d="M38.8595 16.4391H32.8817C31.231 16.4391 29.8928 17.7773 29.8928 19.428V38.8559C29.8928 40.5066 31.231 41.8448 32.8817 41.8448H38.8595C40.5102 41.8448 41.8484 40.5066 41.8484 38.8559V19.428C41.8484 17.7773 40.5102 16.4391 38.8595 16.4391Z" fill="var(--fill-0, white)"/>
<path id="Vector_4" d="M5.97543 22.4167C6.09992 22.4166 6.22391 22.4011 6.34456 22.3704C11.6936 21.0077 16.8402 18.9476 21.6522 16.2432C26.8907 13.2829 31.6769 9.58581 35.8644 5.26494V8.96669C35.8644 9.36304 36.0219 9.74316 36.3021 10.0234C36.5824 10.3037 36.9625 10.4611 37.3589 10.4611C37.7552 10.4611 38.1353 10.3037 38.4156 10.0234C38.6959 9.74316 38.8533 9.36304 38.8533 8.96669V1.49445C38.8533 1.0981 38.6959 0.717977 38.4156 0.437714C38.1353 0.15745 37.7552 0 37.3589 0H29.8866C29.4903 0 29.1101 0.15745 28.8299 0.437714C28.5496 0.717977 28.3922 1.0981 28.3922 1.49445C28.3922 1.8908 28.5496 2.27092 28.8299 2.55118C29.1101 2.83145 29.4903 2.9889 29.8866 2.9889H33.8858C29.8618 7.18665 25.2472 10.7752 20.1876 13.6413C15.6038 16.215 10.7013 18.1746 5.6063 19.4697C5.2492 19.5559 4.93636 19.7706 4.72752 20.0728C4.51869 20.3751 4.42848 20.7436 4.47414 21.1081C4.5198 21.4726 4.69811 21.8076 4.97504 22.049C5.25197 22.2903 5.6081 22.4213 5.97543 22.4167Z" fill="var(--fill-0, white)"/>
</g>
</svg>
