<svg preserveAspectRatio="xMidYMid meet" width="100%" height="100%" overflow="visible" style="display: block;" viewBox="0 0 32.8196 32.8196" fill="none" xmlns="http://www.w3.org/2000/svg">
<g id="Layer 2">
<path id="Vector" d="M18.754 18.7541H14.0656C12.7709 18.7541 11.7213 19.8037 11.7213 21.0983V30.4753C11.7213 31.77 12.7709 32.8195 14.0656 32.8195H18.754C20.0487 32.8195 21.0983 31.77 21.0983 30.4753V21.0983C21.0983 19.8037 20.0487 18.7541 18.754 18.7541Z" fill="url(#paint0_linear_0_25)"/>
<path id="Vector_2" d="M7.0327 22.27H2.34423C1.04955 22.27 3.29106e-07 23.3195 3.29106e-07 24.6142V30.4748C3.29106e-07 31.7695 1.04955 32.819 2.34423 32.819H7.0327C8.32738 32.819 9.37693 31.7695 9.37693 30.4748V24.6142C9.37693 23.3195 8.32738 22.27 7.0327 22.27Z" fill="url(#paint1_linear_0_25)"/>
<path id="Vector_3" d="M30.4753 12.8934H25.7869C24.4922 12.8934 23.4426 13.943 23.4426 15.2377V30.4752C23.4426 31.7699 24.4922 32.8194 25.7869 32.8194H30.4753C31.77 32.8194 32.8196 31.7699 32.8196 30.4752V15.2377C32.8196 13.943 31.77 12.8934 30.4753 12.8934Z" fill="url(#paint2_linear_0_25)"/>
<path id="Vector_4" d="M4.69019 17.5817C4.78782 17.5817 4.88507 17.5695 4.9797 17.5454C9.17502 16.4766 13.2116 14.8609 16.9857 12.7397C21.0943 10.418 24.8482 7.51828 28.1325 4.12937V7.0327C28.1325 7.34356 28.256 7.6417 28.4758 7.86151C28.6956 8.08133 28.9938 8.20482 29.3046 8.20482C29.6155 8.20482 29.9136 8.08133 30.1335 7.86151C30.3533 7.6417 30.4768 7.34356 30.4768 7.0327V1.17212C30.4768 0.861252 30.3533 0.563119 30.1335 0.343305C29.9136 0.12349 29.6155 0 29.3046 0H23.4441C23.1332 0 22.8351 0.12349 22.6152 0.343305C22.3954 0.563119 22.2719 0.861252 22.2719 1.17212C22.2719 1.48298 22.3954 1.78111 22.6152 2.00093C22.8351 2.22074 23.1332 2.34423 23.4441 2.34423H26.5806C23.4246 5.63659 19.8053 8.45114 15.837 10.6991C12.2418 12.7177 8.39672 14.2546 4.40067 15.2703C4.12059 15.3379 3.87523 15.5064 3.71143 15.7434C3.54764 15.9804 3.47689 16.2695 3.5127 16.5554C3.54851 16.8413 3.68837 17.104 3.90556 17.2933C4.12276 17.4826 4.40208 17.5853 4.69019 17.5817Z" fill="url(#paint3_linear_0_25)"/>
</g>
<defs>
<linearGradient id="paint0_linear_0_25" x1="9.2628" y1="25.7881" x2="24.5766" y2="25.7881" gradientUnits="userSpaceOnUse">
<stop stop-color="#2C64EB"/>
<stop offset="0.5" stop-color="#00A875"/>
<stop offset="1" stop-color="#71B219"/>
</linearGradient>
<linearGradient id="paint1_linear_0_25" x1="-2.45852" y1="27.5455" x2="12.8553" y2="27.5455" gradientUnits="userSpaceOnUse">
<stop stop-color="#2C64EB"/>
<stop offset="0.5" stop-color="#00A875"/>
<stop offset="1" stop-color="#71B219"/>
</linearGradient>
<linearGradient id="paint2_linear_0_25" x1="20.9841" y1="22.8583" x2="36.2979" y2="22.8583" gradientUnits="userSpaceOnUse">
<stop stop-color="#2C64EB"/>
<stop offset="0.5" stop-color="#00A875"/>
<stop offset="1" stop-color="#71B219"/>
</linearGradient>
<linearGradient id="paint3_linear_0_25" x1="-3.56842" y1="8.79253" x2="40.4824" y2="8.79253" gradientUnits="userSpaceOnUse">
<stop stop-color="#2C64EB"/>
<stop offset="0.5" stop-color="#00A875"/>
<stop offset="1" stop-color="#71B219"/>
</linearGradient>
</defs>
</svg>
