<svg preserveAspectRatio="xMidYMid meet" width="100%" height="100%" overflow="visible" style="display: block;" viewBox="0 0 32.8196 32.8196" fill="none" xmlns="http://www.w3.org/2000/svg">
<g id="Layer 2">
<path id="Vector" d="M18.754 18.7542H14.0656C12.7709 18.7542 11.7213 19.8037 11.7213 21.0984V30.4753C11.7213 31.77 12.7709 32.8196 14.0656 32.8196H18.754C20.0487 32.8196 21.0983 31.77 21.0983 30.4753V21.0984C21.0983 19.8037 20.0487 18.7542 18.754 18.7542Z" fill="url(#paint0_linear_0_37)"/>
<path id="Vector_2" d="M7.03273 22.27H2.34426C1.04957 22.27 2.55373e-05 23.3196 2.55373e-05 24.6142V30.4748C2.55373e-05 31.7695 1.04957 32.8191 2.34426 32.8191H7.03273C8.32741 32.8191 9.37696 31.7695 9.37696 30.4748V24.6142C9.37696 23.3196 8.32741 22.27 7.03273 22.27Z" fill="url(#paint1_linear_0_37)"/>
<path id="Vector_3" d="M30.4754 12.8935H25.7869C24.4922 12.8935 23.4427 13.943 23.4427 15.2377V30.4752C23.4427 31.7699 24.4922 32.8195 25.7869 32.8195H30.4754C31.77 32.8195 32.8196 31.7699 32.8196 30.4752V15.2377C32.8196 13.943 31.77 12.8935 30.4754 12.8935Z" fill="url(#paint2_linear_0_37)"/>
<path id="Vector_4" d="M4.69021 17.5818C4.78785 17.5817 4.88509 17.5695 4.97972 17.5455C9.17504 16.4767 13.2116 14.8609 16.9857 12.7398C21.0943 10.418 24.8483 7.51832 28.1325 4.12941V7.03275C28.1325 7.34361 28.256 7.64174 28.4759 7.86156C28.6957 8.08137 28.9938 8.20486 29.3047 8.20486C29.6155 8.20486 29.9137 8.08137 30.1335 7.86156C30.3533 7.64174 30.4768 7.34361 30.4768 7.03275V1.17216C30.4768 0.861297 30.3533 0.563165 30.1335 0.34335C29.9137 0.123536 29.6155 4.54061e-05 29.3047 4.54061e-05H23.4441C23.1332 4.54061e-05 22.8351 0.123536 22.6153 0.34335C22.3955 0.563165 22.272 0.861297 22.272 1.17216C22.272 1.48303 22.3955 1.78116 22.6153 2.00097C22.8351 2.22079 23.1332 2.34428 23.4441 2.34428H26.5807C23.4246 5.63663 19.8053 8.45119 15.837 10.6991C12.2418 12.7177 8.39675 14.2546 4.4007 15.2704C4.12062 15.338 3.87525 15.5064 3.71146 15.7434C3.54766 15.9805 3.47692 16.2695 3.51272 16.5554C3.54853 16.8413 3.68839 17.104 3.90559 17.2933C4.12279 17.4827 4.40211 17.5853 4.69021 17.5818Z" fill="url(#paint3_linear_0_37)"/>
</g>
<defs>
<linearGradient id="paint0_linear_0_37" x1="9.26283" y1="25.7881" x2="24.5766" y2="25.7881" gradientUnits="userSpaceOnUse">
<stop stop-color="#2C64EB"/>
<stop offset="0.5" stop-color="#00A875"/>
<stop offset="1" stop-color="#71B219"/>
</linearGradient>
<linearGradient id="paint1_linear_0_37" x1="-2.45849" y1="27.5455" x2="12.8553" y2="27.5455" gradientUnits="userSpaceOnUse">
<stop stop-color="#2C64EB"/>
<stop offset="0.5" stop-color="#00A875"/>
<stop offset="1" stop-color="#71B219"/>
</linearGradient>
<linearGradient id="paint2_linear_0_37" x1="20.9841" y1="22.8583" x2="36.298" y2="22.8583" gradientUnits="userSpaceOnUse">
<stop stop-color="#2C64EB"/>
<stop offset="0.5" stop-color="#00A875"/>
<stop offset="1" stop-color="#71B219"/>
</linearGradient>
<linearGradient id="paint3_linear_0_37" x1="-3.56839" y1="8.79257" x2="40.4824" y2="8.79257" gradientUnits="userSpaceOnUse">
<stop stop-color="#2C64EB"/>
<stop offset="0.5" stop-color="#00A875"/>
<stop offset="1" stop-color="#71B219"/>
</linearGradient>
</defs>
</svg>
