<svg preserveAspectRatio="xMidYMid meet" width="100%" height="100%" overflow="visible" style="display: block;" viewBox="0 0 40 40" fill="none" xmlns="http://www.w3.org/2000/svg">
<g id="hand 1">
<path id="Vector" d="M13.9027 24.6376L11.0184 21.7253C10.3143 21.0144 9.19148 20.8591 8.37567 21.4356C7.42595 22.1068 7.23183 23.398 7.87635 24.312L13.029 31.6215C15.0343 34.2759 18.1513 35.8333 21.4573 35.8333H23.6656C28.5447 35.8333 32.5 31.8397 32.5 26.9132V10.857C32.5 9.87171 31.7091 9.07312 30.7333 9.07312C29.7575 9.07312 28.9665 9.8714 28.9665 10.8567V17.7696C28.9665 18.1392 28.6699 18.4387 28.3039 18.4387C27.938 18.4387 27.6413 18.1392 27.6413 17.7696V7.73455C27.6413 6.74935 26.8503 5.95068 25.8746 5.95068C24.8988 5.95068 24.1075 6.74935 24.1075 7.73455V17.7696C24.1075 18.1392 23.8109 18.4387 23.4449 18.4387C23.0789 18.4387 22.7823 18.1392 22.7823 17.7696L22.7823 6.02708C22.7823 5.09536 22.1076 4.26339 21.189 4.17503C20.1352 4.07366 19.2488 4.90748 19.2488 5.95052V17.7697C19.2488 18.1392 18.9521 18.4387 18.5862 18.4387C18.2202 18.4387 17.9236 18.1392 17.9236 17.7697V8.18056C17.9236 7.19535 17.1326 6.39669 16.1568 6.39669C15.1811 6.39669 14.3898 7.19535 14.3898 8.18055L14.3897 24.4339C14.3897 24.6906 14.0825 24.8191 13.9027 24.6376Z" fill="var(--fill-0, white)"/>
</g>
</svg>
