<svg preserveAspectRatio="xMidYMid meet" width="100%" height="100%" overflow="visible" style="display: block;" viewBox="0 0 35.9994 25.6831" fill="none" xmlns="http://www.w3.org/2000/svg">
<g id="Layer 16">
<path id="Vector" d="M29.5114 23.4172L6.48683 0.393346L6.48191 0.387722C6.35725 0.264084 6.20947 0.16621 6.04699 0.0996864C5.88451 0.0331629 5.71052 -0.000707016 5.53495 1.1187e-05C5.35939 0.00072939 5.18568 0.0360217 5.02375 0.103872C4.86182 0.171723 4.71484 0.270803 4.5912 0.395456C4.46757 0.520109 4.36969 0.667894 4.30317 0.830373C4.23664 0.992851 4.20278 1.16684 4.20349 1.34241C4.20494 1.69699 4.34719 2.03646 4.59894 2.28616L6.6148 4.30202C4.17011 5.97634 2.06583 8.09994 0.413938 10.5598C0.144184 10.9581 0 11.4281 0 11.9091C0 12.3902 0.144184 12.8601 0.413938 13.2584C4.63058 19.4994 11.3152 23.1556 17.9998 23.1099C20.1651 23.1178 22.3159 22.7573 24.3603 22.044L27.6235 25.3072C27.8749 25.5505 28.2117 25.6854 28.5616 25.6831C28.9115 25.6807 29.2464 25.5411 29.4945 25.2944C29.7426 25.0477 29.884 24.7135 29.8883 24.3637C29.8927 24.0139 29.7596 23.6763 29.5177 23.4235L29.5114 23.4172ZM17.9998 19.4811C16.7333 19.4806 15.4872 19.1628 14.3752 18.5565C13.2632 17.9503 12.3209 17.0751 11.6344 16.0109C10.9479 14.9466 10.539 13.7273 10.4451 12.4643C10.3513 11.2013 10.5755 9.93494 11.0972 8.78092L13.2031 10.8868C13.0335 11.6861 13.0662 12.5151 13.2984 13.2985C13.5306 14.082 13.9549 14.7949 14.5327 15.3727C15.1105 15.9505 15.8235 16.3748 16.6069 16.607C17.3903 16.8392 18.2193 16.872 19.0186 16.7023L21.1245 18.8082C20.143 19.2532 19.0775 19.4827 17.9998 19.4811Z" fill="var(--fill-0, white)"/>
<path id="Vector_2" d="M35.5857 10.5563C31.369 4.31186 24.6844 0.655612 17.9998 0.701315C15.8345 0.693472 13.6837 1.05392 11.6393 1.76725L14.8737 5.00163C16.2772 4.36648 17.8409 4.17416 19.3565 4.45028C20.8721 4.72641 22.2675 5.45787 23.3568 6.54718C24.4461 7.63649 25.1776 9.03192 25.4537 10.5475C25.7298 12.0631 25.5375 13.6268 24.9024 15.0303L29.3841 19.512C31.8292 17.838 33.9338 15.7143 35.5857 13.2542C35.8553 12.856 35.9994 12.3861 35.9994 11.9053C35.9994 11.4244 35.8553 10.9545 35.5857 10.5563Z" fill="var(--fill-0, white)"/>
<path id="Vector_3" d="M17.9998 7.00202C17.6574 7.00206 17.3159 7.03788 16.981 7.10889L22.7965 12.9237C22.9482 12.2093 22.9383 11.47 22.7676 10.7599C22.597 10.0497 22.2699 9.38666 21.8101 8.81913C21.3504 8.2516 20.7698 7.79393 20.1105 7.47955C19.4513 7.16517 18.7302 7.00202 17.9998 7.00202Z" fill="var(--fill-0, white)"/>
</g>
</svg>
