<svg preserveAspectRatio="xMidYMid meet" width="100%" height="100%" overflow="visible" style="display: block;" viewBox="0 0 35.0175 35" fill="none" xmlns="http://www.w3.org/2000/svg">
<g id="Layer 2">
<path id="Vector" d="M31.8937 4.6025C29.3912 1.75 24.0188 0 17.5088 0C10.9988 0 5.62625 1.75 3.12375 4.6025C-1.04125 9.4325 -1.04125 25.6025 3.12375 30.3975C5.62625 33.25 10.9988 35 17.5088 35C24.0188 35 29.3912 33.25 31.8937 30.3975C36.0587 25.5675 36.0587 9.4325 31.8937 4.6025ZM17.5088 8.3125C17.9414 8.3125 18.3643 8.44079 18.7241 8.68116C19.0838 8.92153 19.3642 9.26317 19.5297 9.66288C19.6953 10.0626 19.7386 10.5024 19.6542 10.9268C19.5698 11.3511 19.3615 11.7409 19.0555 12.0468C18.7496 12.3527 18.3598 12.5611 17.9355 12.6455C17.5112 12.7299 17.0713 12.6866 16.6716 12.521C16.2719 12.3554 15.9303 12.075 15.6899 11.7153C15.4495 11.3556 15.3213 10.9326 15.3213 10.5C15.3213 9.91984 15.5517 9.36344 15.962 8.9532C16.3722 8.54297 16.9286 8.3125 17.5088 8.3125ZM19.2588 27.125H15.7588C15.2946 27.125 14.8495 26.9406 14.5213 26.6124C14.1931 26.2842 14.0088 25.8391 14.0088 25.375C14.0088 24.9109 14.1931 24.4658 14.5213 24.1376C14.8495 23.8094 15.2946 23.625 15.7588 23.625V18.375C15.2946 18.375 14.8495 18.1906 14.5213 17.8624C14.1931 17.5342 14.0088 17.0891 14.0088 16.625C14.0088 16.1609 14.1931 15.7158 14.5213 15.3876C14.8495 15.0594 15.2946 14.875 15.7588 14.875H17.5088C17.9729 14.875 18.418 15.0594 18.7462 15.3876C19.0744 15.7158 19.2588 16.1609 19.2588 16.625V23.625C19.7229 23.625 20.168 23.8094 20.4962 24.1376C20.8244 24.4658 21.0088 24.9109 21.0088 25.375C21.0088 25.8391 20.8244 26.2842 20.4962 26.6124C20.168 26.9406 19.7229 27.125 19.2588 27.125Z" fill="url(#paint0_linear_0_4)"/>
</g>
<defs>
<linearGradient id="paint0_linear_0_4" x1="-9.18116" y1="17.5032" x2="48.0072" y2="17.5032" gradientUnits="userSpaceOnUse">
<stop stop-color="#2C64EB"/>
<stop offset="0.5" stop-color="#00A875"/>
<stop offset="1" stop-color="#71B219"/>
</linearGradient>
</defs>
</svg>
