<svg preserveAspectRatio="xMidYMid meet" width="100%" height="100%" overflow="visible" style="display: block;" viewBox="0 0 37.099 37.099" fill="none" xmlns="http://www.w3.org/2000/svg">
<g id="like (3) 1">
<path id="Vector" d="M4.94352 33.1526H8.26242C9.54352 33.1526 10.5857 32.1105 10.5857 30.8294V15.5624C10.5857 14.2813 9.54352 13.2392 8.26242 13.2392H4.94352C3.66242 13.2392 2.62028 14.2813 2.62028 15.5624V30.8294C2.62028 32.1105 3.66242 33.1526 4.94352 33.1526Z" fill="url(#paint0_linear_0_11)"/>
<path id="Vector_2" d="M19.5879 3.61439C18.2603 3.61439 17.5965 4.27817 17.5965 7.59708C17.5965 10.7514 14.5418 13.2897 12.577 14.5973V31.0432C14.7024 32.0269 18.9573 33.4846 25.5619 33.4846H27.686C30.2748 33.4846 32.4785 31.626 32.9166 29.0771L34.4035 20.4479C34.9611 17.1954 32.4652 14.2349 29.1729 14.2349H22.9068C22.9068 14.2349 23.9025 12.2436 23.9025 8.92465C23.9025 4.94196 20.9154 3.61439 19.5879 3.61439Z" fill="url(#paint1_linear_0_11)"/>
</g>
<defs>
<linearGradient id="paint0_linear_0_11" x1="0.531854" y1="23.1977" x2="13.5404" y2="23.1977" gradientUnits="userSpaceOnUse">
<stop stop-color="#2C64EB"/>
<stop offset="0.5" stop-color="#00A875"/>
<stop offset="1" stop-color="#71B219"/>
</linearGradient>
<linearGradient id="paint1_linear_0_11" x1="6.83388" y1="18.5522" x2="42.6071" y2="18.5522" gradientUnits="userSpaceOnUse">
<stop stop-color="#2C64EB"/>
<stop offset="0.5" stop-color="#00A875"/>
<stop offset="1" stop-color="#71B219"/>
</linearGradient>
</defs>
</svg>
