<svg preserveAspectRatio="xMidYMid meet" width="100%" height="100%" overflow="visible" style="display: block;" viewBox="0 0 37.099 37.099" fill="none" xmlns="http://www.w3.org/2000/svg">
<g id="like (3) 4">
<path id="Vector" d="M4.94111 33.1529H8.26002C9.54111 33.1529 10.5833 32.1107 10.5833 30.8296V15.5627C10.5833 14.2816 9.54111 13.2394 8.26002 13.2394H4.94111C3.66001 13.2394 2.61787 14.2816 2.61787 15.5627V30.8296C2.61787 32.1107 3.66001 33.1529 4.94111 33.1529Z" fill="url(#paint0_linear_0_84)"/>
<path id="Vector_2" d="M19.5855 3.61462C18.2579 3.61462 17.5941 4.2784 17.5941 7.59731C17.5941 10.7516 14.5394 13.2899 12.5746 14.5976V31.0434C14.7 32.0271 18.9549 33.4848 25.5595 33.4848H27.6836C30.2723 33.4848 32.4761 31.6262 32.9142 29.0773L34.4011 20.4481C34.9586 17.1956 32.4628 14.2351 29.1705 14.2351H22.9044C22.9044 14.2351 23.9 12.2438 23.9 8.92487C23.9 4.94218 20.913 3.61462 19.5855 3.61462Z" fill="url(#paint1_linear_0_84)"/>
</g>
<defs>
<linearGradient id="paint0_linear_0_84" x1="0.529445" y1="23.198" x2="13.538" y2="23.198" gradientUnits="userSpaceOnUse">
<stop stop-color="#2C64EB"/>
<stop offset="0.5" stop-color="#00A875"/>
<stop offset="1" stop-color="#71B219"/>
</linearGradient>
<linearGradient id="paint1_linear_0_84" x1="6.83147" y1="18.5524" x2="42.6047" y2="18.5524" gradientUnits="userSpaceOnUse">
<stop stop-color="#2C64EB"/>
<stop offset="0.5" stop-color="#00A875"/>
<stop offset="1" stop-color="#71B219"/>
</linearGradient>
</defs>
</svg>
