<svg preserveAspectRatio="xMidYMid meet" width="100%" height="100%" overflow="visible" style="display: block;" viewBox="0 0 36 33.281" fill="none" xmlns="http://www.w3.org/2000/svg">
<g id="Group">
<path id="Vector" d="M1.7681 32.3035C1.7681 32.8441 2.20503 33.281 2.74565 33.281H6.90022C7.44083 33.281 7.87777 32.8441 7.87777 32.3035V14.915L1.7681 8.80532V32.3035Z" fill="var(--fill-0, white)"/>
<path id="Vector_2" d="M10.255 17.2922V32.3035C10.255 32.8441 10.6919 33.281 11.2325 33.281H15.3871C15.9277 33.281 16.3646 32.8441 16.3646 32.3035V22.0096C15.3279 21.8763 14.3725 21.4172 13.6246 20.6692L10.255 17.2922Z" fill="var(--fill-0, white)"/>
<path id="Vector_3" d="M27.2361 25.9568V32.3035C27.2361 32.8441 27.6731 33.281 28.2137 33.281H32.3683C32.9089 33.281 33.3458 32.8441 33.3458 32.3035V26.2679C31.4944 26.179 29.643 26.0975 27.7916 26.0087C27.6657 26.0013 27.4657 25.9864 27.2361 25.9568Z" fill="var(--fill-0, white)"/>
<path id="Vector_4" d="M24.7627 19.3954L23.1704 17.8032L20.3045 20.6692C19.8527 21.1209 19.3195 21.469 18.7419 21.706V32.3035C18.7419 32.8441 19.1788 33.281 19.7194 33.281H23.874C24.4146 33.281 24.8515 32.8441 24.8515 32.3035V24.7645C24.5479 24.4461 24.2961 24.0832 24.1036 23.6685C23.7851 22.9575 23.2223 21.1654 24.7627 19.3954Z" fill="var(--fill-0, white)"/>
<path id="Vector_5" d="M35.997 22.0911L35.8934 19.936C35.8267 18.4993 35.7601 17.07 35.6934 15.6333C35.6786 15.3001 35.6193 14.8706 35.2787 14.5373C35.1898 14.4484 35.0787 14.3596 34.9528 14.2929C34.7677 14.1892 34.5826 14.1448 34.4048 14.1448C33.9753 14.1448 33.6939 14.4262 33.4939 14.6262L33.0274 15.0927C32.6497 15.4704 32.2794 15.8407 31.9017 16.2184C31.8647 16.2554 31.8277 16.285 31.7906 16.3221L24.5257 9.05712C24.1628 8.69424 23.6814 8.49429 23.1778 8.49429C22.6743 8.49429 22.1855 8.69424 21.83 9.05712L16.9793 13.9078L3.62692 0.56283C3.26404 0.199953 2.79008 0 2.27909 0C1.7681 0 1.28673 0.199953 0.923856 0.56283L0.560978 0.925707C-0.186993 1.67368 -0.186993 2.8808 0.560978 3.62877L15.6167 18.6845C15.9796 19.0473 16.4535 19.2473 16.9645 19.2473C17.4755 19.2473 17.9569 19.0473 18.3197 18.6845L23.1704 13.8338L28.7247 19.388C28.3322 19.7731 27.9471 20.1582 27.562 20.5507L27.0066 21.1061C26.7844 21.3283 26.3253 21.7874 26.6585 22.491C26.7252 22.6317 26.8066 22.7502 26.9029 22.8464C27.2213 23.1649 27.6286 23.1871 27.9175 23.1945C30.1244 23.2982 32.3386 23.4019 34.5455 23.5056C34.5826 23.5056 34.627 23.5056 34.6714 23.5056C35.1084 23.5056 35.449 23.3871 35.6786 23.1427C35.9156 22.8983 36.0193 22.5502 35.997 22.0911Z" fill="var(--fill-0, white)"/>
</g>
</svg>
