<svg preserveAspectRatio="xMidYMid meet" width="100%" height="100%" overflow="visible" style="display: block;" viewBox="0 0 20.2811 28" fill="none" xmlns="http://www.w3.org/2000/svg">
<g id="Group">
<path id="Vector" d="M10.1405 0C4.54901 0 0 4.54901 0 10.1405C0 17.0797 9.07479 27.2668 9.46115 27.6971C9.82406 28.1013 10.4577 28.1006 10.8199 27.6971C11.2063 27.2668 20.2811 17.0797 20.2811 10.1405C20.281 4.54901 15.732 0 10.1405 0ZM10.1405 15.2424C7.3273 15.2424 5.03863 12.9537 5.03863 10.1405C5.03863 7.32725 7.32736 5.03858 10.1405 5.03858C12.9537 5.03858 15.2424 7.3273 15.2424 10.1405C15.2424 12.9538 12.9537 15.2424 10.1405 15.2424Z" fill="var(--fill-0, white)"/>
</g>
</svg>
