<svg preserveAspectRatio="xMidYMid meet" width="100%" height="100%" overflow="visible" style="display: block;" viewBox="0 0 58 58" fill="none" xmlns="http://www.w3.org/2000/svg">
<g id="marketing 1">
<path id="Vector" fill-rule="evenodd" clip-rule="evenodd" d="M20.2431 43.1985L25.6302 50.1999C26.1192 50.8354 26.0334 51.7351 25.4395 52.2738L23.5869 53.9551C23.256 54.2553 22.8578 54.3889 22.4129 54.3487C21.968 54.3085 21.6015 54.1047 21.3284 53.7511L15.3559 46.02L20.2431 43.1985ZM49.7946 25.2301H55.2812C56.1588 25.2301 56.8689 24.5133 56.8671 23.6369C56.8653 22.7593 56.1497 22.0502 55.2733 22.0502H49.7867C48.9091 22.0502 48.199 22.7669 48.2008 23.6432C48.2025 24.5211 48.9181 25.2301 49.7946 25.2301ZM43.2822 10.7842L46.0255 6.03276C46.4638 5.27366 46.2076 4.29944 45.4484 3.85901C44.6903 3.41925 43.7145 3.67583 43.2758 4.43583L40.5324 9.1873C40.0941 9.9464 40.3504 10.9206 41.1096 11.3611C41.8677 11.8008 42.8434 11.5442 43.2822 10.7842ZM49.63 16.4757L54.1344 13.8751C54.8991 13.4336 55.161 12.4561 54.7195 11.6914C54.2781 10.9267 53.3006 10.6648 52.5358 11.1063L48.0315 13.707C47.2669 14.1485 47.005 15.126 47.4464 15.8907C47.8879 16.6553 48.8654 16.9172 49.63 16.4757ZM42.5457 23.6315L47.8585 32.8337C48.8561 34.5614 48.2585 36.7911 46.5309 37.7887C44.9187 38.7195 42.8694 38.2613 41.7921 36.7919H41.7919C35.911 35.8973 28.2505 36.8583 20.6331 39.8277L13.3099 27.1437C19.6926 22.0371 24.3696 15.9159 26.5354 10.3756L26.5355 10.3754C25.7747 8.70019 26.3997 6.67246 28.0245 5.73438C29.7522 4.73682 31.9818 5.33438 32.9794 7.06203L38.2923 16.2643C38.4435 16.1474 38.6043 16.0392 38.7744 15.941C40.8273 14.7558 43.4525 15.4591 44.6377 17.5121C45.823 19.5651 45.1196 22.1903 43.0666 23.3756C42.8966 23.4738 42.7225 23.559 42.5457 23.6315ZM18.7917 41.1695L11.1182 27.8787L5.01784 31.4007C1.31106 33.5408 0.0293918 38.3246 2.16939 42.0313L2.1695 42.0314C4.30961 45.7381 9.09325 47.0198 12.8 44.8798L18.9003 41.3578L18.7917 41.1695Z" fill="var(--fill-0, white)"/>
</g>
</svg>
