<svg preserveAspectRatio="xMidYMid meet" width="100%" height="100%" overflow="visible" style="display: block;" viewBox="0 0 40 40" fill="none" xmlns="http://www.w3.org/2000/svg">
<g id="profit (1) 1" clip-path="url(#clip0_0_6)">
<path id="Vector" fill-rule="evenodd" clip-rule="evenodd" d="M32.9706 18.4569C35.2349 20.966 36.923 23.143 38.0347 25.0948C42.1059 32.2434 36.3142 39.5039 28.5577 39.3732C20.8012 39.5039 15.0095 32.2434 19.0808 25.0948C20.1925 23.143 21.8806 20.966 24.1448 18.4569C24.4151 18.5425 24.7026 18.5888 25.0005 18.5888H32.1148C32.4129 18.5888 32.7004 18.5425 32.9706 18.4569ZM4.17711 0.625078C2.22344 0.625078 0.625078 2.22352 0.625078 4.17711V30.1441C0.625078 32.0978 2.22344 33.6962 4.17711 33.6962H17.2574C15.979 30.6414 16.3658 27.3363 17.9947 24.4762C18.3274 23.892 18.6924 23.313 19.0816 22.741C18.8565 22.5954 18.707 22.3421 18.707 22.055V20.9934C18.707 20.5437 19.0737 20.1769 19.5235 20.1769H21.0045C21.6665 19.3632 22.3552 18.5712 23.0445 17.8066C22.841 17.6136 22.666 17.3908 22.5264 17.1454H19.5235C19.0737 17.1454 18.707 16.7786 18.707 16.3288V15.2672C18.707 14.8174 19.0737 14.4506 19.5235 14.4506H22.468C22.7218 13.9565 23.1161 13.5455 23.5975 13.271L22.7489 12.4225C22.2324 11.906 21.9532 11.24 21.9109 10.5617H5.36109C4.91133 10.5617 4.54453 10.1949 4.54453 9.74516V6.54008C4.54453 6.09031 4.91133 5.72352 5.36109 5.72352H23.3257C23.7755 5.72352 24.1423 6.09031 24.1423 6.54008V7.56766C24.7185 7.43547 25.3314 7.47945 25.8916 7.70922C26.2703 6.80266 27.0919 6.14391 28.0618 5.97414V4.17711C28.0618 2.22352 26.4634 0.625078 24.5098 0.625078H4.17711ZM25.0006 17.3388C24.1234 17.3388 23.4059 16.6212 23.4059 15.7441C23.4059 14.8671 24.1235 14.1495 25.0006 14.1495H32.1149C32.992 14.1495 33.7096 14.8671 33.7096 15.7442C33.7096 16.6212 32.992 17.3388 32.1149 17.3388H25.0006ZM6.11133 14.4506H9.16328C9.61305 14.4506 9.97984 14.8174 9.97984 15.2672V16.3287C9.97984 16.7785 9.61305 17.1453 9.16328 17.1453H6.11133C5.66156 17.1453 5.29477 16.7785 5.29477 16.3287V15.2672C5.29477 14.8174 5.66156 14.4506 6.11133 14.4506ZM12.8174 25.903C12.3677 25.903 12.0009 26.2698 12.0009 26.7196V27.7812C12.0009 28.2309 12.3677 28.5977 12.8174 28.5977H15.8694C16.3191 28.5977 16.6859 28.2309 16.6859 27.7812V26.7196C16.6859 26.2698 16.3191 25.903 15.8694 25.903H12.8174ZM6.11133 25.903H9.16328C9.61305 25.903 9.97984 26.2698 9.97984 26.7196V27.7812C9.97984 28.2309 9.61305 28.5977 9.16328 28.5977H6.11133C5.66156 28.5977 5.29477 28.2309 5.29477 27.7812V26.7196C5.29477 26.2698 5.66156 25.903 6.11133 25.903ZM12.8174 20.1768C12.3677 20.1768 12.0009 20.5436 12.0009 20.9934V22.0549C12.0009 22.5047 12.3677 22.8715 12.8174 22.8715H15.8694C16.3191 22.8715 16.6859 22.5047 16.6859 22.0549V20.9934C16.6859 20.5436 16.3191 20.1768 15.8694 20.1768H12.8174ZM6.11133 20.1768H9.16328C9.61305 20.1768 9.97984 20.5436 9.97984 20.9934V22.0549C9.97984 22.5047 9.61305 22.8715 9.16328 22.8715H6.11133C5.66156 22.8715 5.29477 22.5047 5.29477 22.0549V20.9934C5.29477 20.5437 5.66156 20.1768 6.11133 20.1768ZM12.8174 14.4506H15.8694C16.3191 14.4506 16.6859 14.8174 16.6859 15.2672V16.3287C16.6859 16.7785 16.3191 17.1453 15.8694 17.1453H12.8174C12.3677 17.1453 12.0009 16.7785 12.0009 16.3287V15.2672C12.0009 14.8174 12.3677 14.4506 12.8174 14.4506ZM28.4759 31.874C27.9967 31.8615 27.5315 31.7317 27.1606 31.4847C26.825 31.2612 26.5686 30.9342 26.4615 30.5047C26.3661 30.117 25.9745 29.8799 25.5867 29.9753C25.199 30.0707 24.962 30.4623 25.0573 30.8501C25.2596 31.6614 25.738 32.2748 26.3623 32.6907C26.7888 32.9748 27.2841 33.1625 27.8028 33.254V33.8166C27.8028 34.2168 28.1273 34.5413 28.5276 34.5413C28.9278 34.5413 29.2523 34.2169 29.2523 33.8166V33.2678C29.8826 33.1717 30.5248 32.9416 31.029 32.5591C31.6349 32.0994 32.038 31.441 32.017 30.5575C32.0145 30.4563 32.0087 30.3673 31.9995 30.2913C31.882 29.3232 31.3583 28.693 30.6637 28.2737C30.0537 27.9054 29.3222 27.722 28.6515 27.6119C28.1677 27.5324 27.6582 27.398 27.2851 27.1545C26.9959 26.9657 26.7886 26.6924 26.7691 26.2929C26.7481 25.8605 26.9369 25.5117 27.2343 25.2699C27.4673 25.0805 27.7645 24.9489 28.0866 24.8841C28.2162 24.858 28.3497 24.8429 28.4844 24.8394C28.4987 24.8402 28.513 24.8407 28.5275 24.8407C28.5449 24.8407 28.5622 24.8401 28.5794 24.8388C28.7575 24.8414 28.937 24.8643 29.1122 24.9087C29.6509 25.0452 30.1414 25.4003 30.3998 26.0155C30.5545 26.3845 30.9792 26.5581 31.3481 26.4034C31.7171 26.2486 31.8907 25.8239 31.7359 25.455C31.2811 24.3717 30.4152 23.7458 29.4632 23.5045C29.3934 23.4868 29.323 23.4712 29.2523 23.4579V22.8963C29.2523 22.4961 28.9278 22.1716 28.5276 22.1716C28.1273 22.1716 27.8028 22.4961 27.8028 22.8963V23.4687C27.2537 23.5795 26.738 23.8112 26.3227 24.1489C25.6845 24.6679 25.2797 25.4214 25.3253 26.3609C25.3711 27.3049 25.8422 27.9381 26.498 28.3663C27.0698 28.7395 27.7719 28.9326 28.4194 29.0388C28.9394 29.1242 29.4946 29.2591 29.9164 29.5138C30.2538 29.7175 30.5073 30.0152 30.5614 30.4613C30.5686 30.5208 30.5725 30.564 30.5731 30.5916C30.5816 30.9462 30.4119 31.2165 30.157 31.4098C29.838 31.6519 29.3901 31.7946 28.9421 31.849C28.8202 31.8637 28.7136 31.8722 28.6233 31.8743L28.5887 31.8749C28.5685 31.8732 28.5481 31.8723 28.5275 31.8723C28.5102 31.8721 28.493 31.8728 28.4759 31.874ZM24.9938 12.8996L23.6328 11.5386C22.9955 10.9012 22.9955 9.85836 23.6328 9.22109C24.1748 8.67898 25.033 8.58742 25.678 9.00141C25.9176 9.15516 26.1927 9.17969 26.4556 9.07086C26.7185 8.96195 26.8957 8.75016 26.9564 8.47195C27.117 7.73633 27.7756 7.18109 28.5577 7.18094C29.3256 7.18094 29.9955 7.72227 30.1591 8.47195C30.2198 8.75016 30.397 8.96195 30.6599 9.07086C30.923 9.17984 31.198 9.15516 31.4375 9.00141C32.0712 8.59469 32.9297 8.66805 33.4827 9.22094V9.22109C34.12 9.85844 34.12 10.9013 33.4827 11.5386L32.1216 12.8996L32.1148 12.8995H25.0005L24.9938 12.8996Z" fill="url(#paint0_linear_0_6)"/>
</g>
<defs>
<linearGradient id="paint0_linear_0_6" x1="-9.53465" y1="20.0036" x2="53.7491" y2="20.0036" gradientUnits="userSpaceOnUse">
<stop stop-color="#2C64EB"/>
<stop offset="0.5" stop-color="#00A875"/>
<stop offset="1" stop-color="#71B219"/>
</linearGradient>
<clipPath id="clip0_0_6">
<rect width="40" height="40" fill="white"/>
</clipPath>
</defs>
</svg>
