<svg preserveAspectRatio="xMidYMid meet" width="100%" height="100%" overflow="visible" style="display: block;" viewBox="0 0 31.987 36.0001" fill="none" xmlns="http://www.w3.org/2000/svg">
<g id="Group">
<path id="Vector" d="M12.4713 10.1935C12.5558 11.4116 13.9476 12.0786 14.9535 11.3865C15.8384 10.7774 17.0464 11.4119 17.0464 12.487V16.9104H20.3601C19.7716 14.5072 21.677 12.166 24.2116 12.341C26.4416 12.4956 28.0953 14.6429 27.5385 16.9104H30.8857C33.6865 12.6756 30.8658 6.5489 25.4079 6.26863C26.025 3.00958 23.5121 0.00547493 20.2189 0.00547493C19.0292 0.00547493 17.9303 0.400912 17.0464 1.06705V7.66891C17.0464 8.74328 15.8393 9.37884 14.9534 8.76937C13.877 8.02884 12.378 8.84685 12.4713 10.1935Z" fill="var(--fill-0, white)"/>
<path id="Vector_2" d="M5.62445 16.9104C6.69904 16.9104 7.33445 18.1178 6.72477 19.0036C5.98768 20.0746 6.79698 21.5782 8.1493 21.4848C9.37021 21.4002 10.0339 20.0073 9.34272 19.0033C8.73332 18.1179 9.36838 16.9104 10.4432 16.9104H14.9377V13.6659C12.6651 14.2241 10.522 12.5641 10.3677 10.3393C10.1927 7.81544 12.5241 5.89738 14.9377 6.48836V1.06712C11.1539 -1.78447 5.73336 1.47156 6.56368 6.19888C1.07319 6.49061 -1.70535 12.6306 1.11974 16.9104H5.62445Z" fill="var(--fill-0, white)"/>
<path id="Vector_3" d="M30.8504 19.0192H26.3596C25.2845 19.0192 24.6498 17.8116 25.2591 16.9262C25.9508 15.9218 25.2854 14.5294 24.0657 14.4448C22.7136 14.3509 21.9038 15.8545 22.6412 16.926C23.2507 17.8118 22.6157 19.0192 21.5409 19.0192H17.0464V22.2619C19.4532 21.6726 21.7919 23.5828 21.6165 26.1128C21.4621 28.3385 19.3184 29.9971 17.0464 29.4394V34.9329C20.8302 37.7845 26.2508 34.5285 25.4204 29.8012C30.779 29.5163 33.7575 23.5047 30.8504 19.0192Z" fill="var(--fill-0, white)"/>
<path id="Vector_4" d="M19.5127 25.9669C19.606 24.621 18.1071 23.8022 17.0307 24.543C16.1452 25.1518 14.9376 24.5178 14.9376 23.4425V19.0192H11.622C12.196 21.355 10.4169 23.5979 8.02914 23.5979C5.6189 23.5979 3.87831 21.3267 4.44369 19.0192H1.12002C-1.70352 23.2985 1.06961 29.4486 6.5762 29.7314C5.95907 32.9905 8.47197 35.9946 11.7652 35.9946C12.9548 35.9946 14.0538 35.5991 14.9377 34.933V28.2607C14.9377 27.1865 16.1448 26.5507 17.0305 27.1602C18.0344 27.8511 19.4281 27.1875 19.5127 25.9669Z" fill="var(--fill-0, white)"/>
</g>
</svg>
