<svg preserveAspectRatio="xMidYMid meet" width="100%" height="100%" overflow="visible" style="display: block;" viewBox="0 0 40 40" fill="none" xmlns="http://www.w3.org/2000/svg">
<g id="reduce 1">
<path id="Vector" fill-rule="evenodd" clip-rule="evenodd" d="M16.25 34.9975H12.5V13.7475C12.5 13.085 12.2362 12.4488 11.7675 11.98C11.2987 11.5113 10.6625 11.2475 10 11.2475C8.6125 11.2475 8.8875 11.2475 7.5 11.2475C6.8375 11.2475 6.20125 11.5113 5.7325 11.98C5.26375 12.4488 5 13.085 5 13.7475V34.9975H2.5C1.81 34.9975 1.25 35.5575 1.25 36.2475C1.25 36.9375 1.81 37.4975 2.5 37.4975H37.5C38.19 37.4975 38.75 36.9375 38.75 36.2475C38.75 35.5575 38.19 34.9975 37.5 34.9975H35V23.7475C35 22.3675 33.8813 21.2475 32.5 21.2475C31.1125 21.2475 31.3875 21.2475 30 21.2475C28.6187 21.2475 27.5 22.3675 27.5 23.7475V34.9975H23.75V18.7475C23.75 18.085 23.4862 17.4488 23.0175 16.98C22.5487 16.5113 21.9125 16.2475 21.25 16.2475C19.8625 16.2475 20.1375 16.2475 18.75 16.2475C18.0875 16.2475 17.4513 16.5113 16.9825 16.98C16.5138 17.4488 16.25 18.085 16.25 18.7475V34.9975ZM30.6888 14.9325L29.8875 15.005C29.2012 15.0675 28.6937 15.675 28.755 16.3625C28.8175 17.0488 29.425 17.5563 30.1125 17.495L35.1125 17.045C35.53 17.0075 35.9012 16.7625 36.1 16.3925C36.3 16.0225 36.3 15.5788 36.1013 15.2088L33.79 10.9063C33.4637 10.2988 32.7062 10.07 32.0975 10.3963C31.49 10.7225 31.2612 11.4813 31.5887 12.0888L31.9513 12.765L10.535 2.62C9.91125 2.325 9.16625 2.59125 8.87 3.215C8.575 3.83875 8.84125 4.58375 9.465 4.88L30.6888 14.9325Z" fill="url(#paint0_linear_0_4)"/>
</g>
<defs>
<linearGradient id="paint0_linear_0_4" x1="-8.58204" y1="20.0018" x2="52.6606" y2="20.0018" gradientUnits="userSpaceOnUse">
<stop stop-color="#2C64EB"/>
<stop offset="0.5" stop-color="#00A875"/>
<stop offset="1" stop-color="#71B219"/>
</linearGradient>
</defs>
</svg>
