<svg preserveAspectRatio="xMidYMid meet" width="100%" height="100%" viewBox="0 0 36 36" fill="none" xmlns="http://www.w3.org/2000/svg">
<g id="Artboard">
<g id="Vector">
<path fill-rule="evenodd" clip-rule="evenodd" d="M18 0C8.05922 0 0 8.05922 0 18C0 27.9408 8.05922 36 18 36C27.9408 36 36 27.9408 36 18C36 8.05922 27.9408 0 18 0ZM26.3433 12.2414C26.0726 15.0877 24.9005 21.9945 24.3042 25.1824C24.0518 26.5317 23.5547 26.9838 23.0738 27.0281C22.0289 27.1245 21.2351 26.337 20.2226 25.6732C18.6384 24.6347 17.7434 23.9885 16.2056 22.9753C14.4281 21.8039 15.5805 21.1605 16.593 20.1087C16.8581 19.833 21.4636 15.6438 21.5529 15.2641C21.5641 15.2163 21.5747 15.0391 21.4692 14.9456C21.3637 14.8521 21.2084 14.8845 21.0966 14.9098C20.9377 14.9456 18.4064 16.6184 13.5042 19.928C12.7856 20.4216 12.1352 20.6613 11.5516 20.6494C10.909 20.6353 9.67289 20.2859 8.75391 19.987C7.6268 19.6207 6.73102 19.4266 6.80906 18.8044C6.84914 18.4802 7.29562 18.1491 8.14781 17.8102C13.3952 15.5236 16.894 14.0168 18.6448 13.2884C23.6439 11.2093 24.6825 10.8478 25.3595 10.8359C26.2076 10.8209 26.4123 11.5209 26.3433 12.2414Z" fill="url(#paint0_linear_0_17)"/>
</g>
</g>
<defs>
<linearGradient id="paint0_linear_0_17" x1="0" y1="36" x2="36" y2="0" gradientUnits="userSpaceOnUse">
<stop stop-color="#2C64EB"/>
<stop offset="0.5" stop-color="#00A875"/>
<stop offset="1" stop-color="#71B219"/>
</linearGradient>
</defs>
</svg>
