<svg preserveAspectRatio="xMidYMid meet" width="100%" height="100%" overflow="visible" style="display: block;" viewBox="0 0 36 36" fill="none" xmlns="http://www.w3.org/2000/svg">
<g id="thumb-up 2 1">
<path id="Vector" d="M10.5 16.5H1.5V31.5H10.5V16.5Z" fill="var(--fill-0, white)"/>
<path id="Vector_2" d="M33.7357 13.6892C33.3381 13.1413 32.4104 12.4566 30.82 12.4566H23.7956C24.1932 10.95 24.4583 9.30655 24.5908 7.66307C24.5908 4.51307 21.9401 1.50003 19.9521 1.50003C19.0244 1.50003 17.9641 1.9109 17.1689 2.45873L16.6387 2.8696V8.07394L12.7952 16.7022L12 18.3457V30.9457L12.5301 31.3566C13.8555 32.3152 14.7832 33 16.6387 33H28.5669C30.4224 33 31.7477 31.6305 32.1453 29.4392L34.3984 17.1131C34.6635 15.7435 34.3984 14.5109 33.7357 13.6892Z" fill="var(--fill-0, white)"/>
</g>
</svg>
