<svg preserveAspectRatio="xMidYMid meet" width="100%" height="100%" overflow="visible" style="display: block;" viewBox="0 0 37.9548 37.9548" fill="none" xmlns="http://www.w3.org/2000/svg">
<g id="user (14) 17">
<path id="Vector" d="M11.466 11.0702C11.466 6.9284 14.8361 3.55833 18.9779 3.55833C23.1198 3.55833 26.4898 6.9284 26.4898 11.0702C26.4898 15.212 23.1198 18.5821 18.9779 18.5821C14.8361 18.5821 11.466 15.212 11.466 11.0702ZM23.7223 20.9543H14.2336C9.22038 20.9543 5.14024 25.0344 5.14024 30.0476C5.14024 32.4467 7.09017 34.3966 9.48923 34.3966H28.4666C30.8657 34.3966 32.8156 32.4467 32.8156 30.0476C32.8156 25.0344 28.7355 20.9543 23.7223 20.9543Z" fill="url(#paint0_linear_0_16)"/>
</g>
<defs>
<linearGradient id="paint0_linear_0_16" x1="-2.11591" y1="18.9803" x2="43.0818" y2="18.9803" gradientUnits="userSpaceOnUse">
<stop stop-color="#2C64EB"/>
<stop offset="0.5" stop-color="#00A875"/>
<stop offset="1" stop-color="#71B219"/>
</linearGradient>
</defs>
</svg>
