<svg preserveAspectRatio="xMidYMid meet" width="100%" height="100%" overflow="visible" style="display: block;" viewBox="0 0 37.9548 37.9548" fill="none" xmlns="http://www.w3.org/2000/svg">
<g id="user (14) 12">
<path id="Vector" d="M11.4639 11.0697C11.4639 6.92787 14.834 3.5578 18.9758 3.5578C23.1177 3.5578 26.4877 6.92787 26.4877 11.0697C26.4877 15.2115 23.1177 18.5816 18.9758 18.5816C14.834 18.5816 11.4639 15.2115 11.4639 11.0697ZM23.7202 20.9538H14.2315C9.21828 20.9538 5.13814 25.0339 5.13814 30.0471C5.13814 32.4462 7.08807 34.3961 9.48713 34.3961H28.4645C30.8636 34.3961 32.8135 32.4462 32.8135 30.0471C32.8135 25.0339 28.7334 20.9538 23.7202 20.9538Z" fill="url(#paint0_linear_0_23)"/>
</g>
<defs>
<linearGradient id="paint0_linear_0_23" x1="-2.11801" y1="18.9798" x2="43.0797" y2="18.9798" gradientUnits="userSpaceOnUse">
<stop stop-color="#2C64EB"/>
<stop offset="0.5" stop-color="#00A875"/>
<stop offset="1" stop-color="#71B219"/>
</linearGradient>
</defs>
</svg>
