<svg preserveAspectRatio="xMidYMid meet" width="100%" height="100%" overflow="visible" style="display: block;" viewBox="0 0 37.9548 37.9548" fill="none" xmlns="http://www.w3.org/2000/svg">
<g id="user (14) 11">
<path id="Vector" d="M11.4698 11.0705C11.4698 6.92866 14.8398 3.55859 18.9817 3.55859C23.1235 3.55859 26.4935 6.92866 26.4935 11.0705C26.4935 15.2123 23.1235 18.5824 18.9817 18.5824C14.8398 18.5824 11.4698 15.2123 11.4698 11.0705ZM23.726 20.9546H14.2373C9.2241 20.9546 5.14396 25.0347 5.14396 30.0479C5.14396 32.447 7.09389 34.3969 9.49295 34.3969H28.4704C30.8694 34.3969 32.8194 32.447 32.8194 30.0479C32.8194 25.0347 28.7392 20.9546 23.726 20.9546Z" fill="url(#paint0_linear_0_7)"/>
</g>
<defs>
<linearGradient id="paint0_linear_0_7" x1="-2.11219" y1="18.9806" x2="43.0855" y2="18.9806" gradientUnits="userSpaceOnUse">
<stop stop-color="#2C64EB"/>
<stop offset="0.5" stop-color="#00A875"/>
<stop offset="1" stop-color="#71B219"/>
</linearGradient>
</defs>
</svg>
