<svg preserveAspectRatio="xMidYMid meet" width="100%" height="100%" overflow="visible" style="display: block;" viewBox="0 0 37.9548 37.9548" fill="none" xmlns="http://www.w3.org/2000/svg">
<g id="user (14) 7">
<path id="Vector" d="M11.4624 11.0705C11.4624 6.9287 14.8324 3.55862 18.9742 3.55862C23.1161 3.55862 26.4861 6.9287 26.4861 11.0705C26.4861 15.2123 23.1161 18.5824 18.9742 18.5824C14.8324 18.5824 11.4624 15.2123 11.4624 11.0705ZM23.7186 20.9546H14.2299C9.21669 20.9546 5.13655 25.0347 5.13655 30.0479C5.13655 32.447 7.08648 34.3969 9.48554 34.3969H28.4629C30.862 34.3969 32.8119 32.447 32.8119 30.0479C32.8119 25.0347 28.7318 20.9546 23.7186 20.9546Z" fill="url(#paint0_linear_0_14)"/>
</g>
<defs>
<linearGradient id="paint0_linear_0_14" x1="-2.1196" y1="18.9806" x2="43.0781" y2="18.9806" gradientUnits="userSpaceOnUse">
<stop stop-color="#2C64EB"/>
<stop offset="0.5" stop-color="#00A875"/>
<stop offset="1" stop-color="#71B219"/>
</linearGradient>
</defs>
</svg>
