<svg preserveAspectRatio="xMidYMid meet" width="100%" height="100%" overflow="visible" style="display: block;" viewBox="0 0 37.9548 37.9548" fill="none" xmlns="http://www.w3.org/2000/svg">
<g id="user (14) 5">
<path id="Vector" d="M11.4604 11.0697C11.4604 6.9279 14.8305 3.55783 18.9723 3.55783C23.1141 3.55783 26.4842 6.9279 26.4842 11.0697C26.4842 15.2115 23.1141 18.5816 18.9723 18.5816C14.8305 18.5816 11.4604 15.2115 11.4604 11.0697ZM23.7167 20.9538H14.228C9.21475 20.9538 5.13461 25.0339 5.13461 30.0471C5.13461 32.4462 7.08454 34.3961 9.4836 34.3961H28.461C30.8601 34.3961 32.81 32.4462 32.81 30.0471C32.81 25.0339 28.7299 20.9538 23.7167 20.9538Z" fill="url(#paint0_linear_0_31)"/>
</g>
<defs>
<linearGradient id="paint0_linear_0_31" x1="-2.12154" y1="18.9798" x2="43.0761" y2="18.9798" gradientUnits="userSpaceOnUse">
<stop stop-color="#2C64EB"/>
<stop offset="0.5" stop-color="#00A875"/>
<stop offset="1" stop-color="#71B219"/>
</linearGradient>
</defs>
</svg>
