<svg preserveAspectRatio="xMidYMid meet" width="100%" height="100%" overflow="visible" style="display: block;" viewBox="0 0 37.9548 37.9548" fill="none" xmlns="http://www.w3.org/2000/svg">
<g id="user (14) 15">
<path id="Vector" d="M11.4671 11.0703C11.4671 6.92843 14.8372 3.55836 18.979 3.55836C23.1208 3.55836 26.4909 6.92843 26.4909 11.0703C26.4909 15.2121 23.1208 18.5821 18.979 18.5821C14.8372 18.5821 11.4671 15.2121 11.4671 11.0703ZM23.7234 20.9543H14.2347C9.22147 20.9543 5.14133 25.0345 5.14133 30.0477C5.14133 32.4467 7.09126 34.3967 9.49032 34.3967H28.4677C30.8668 34.3967 32.8167 32.4467 32.8167 30.0477C32.8167 25.0345 28.7366 20.9543 23.7234 20.9543Z" fill="url(#paint0_linear_0_46)"/>
</g>
<defs>
<linearGradient id="paint0_linear_0_46" x1="-2.11482" y1="18.9803" x2="43.0829" y2="18.9803" gradientUnits="userSpaceOnUse">
<stop stop-color="#2C64EB"/>
<stop offset="0.5" stop-color="#00A875"/>
<stop offset="1" stop-color="#71B219"/>
</linearGradient>
</defs>
</svg>
