<svg preserveAspectRatio="xMidYMid meet" width="100%" height="100%" overflow="visible" style="display: block;" viewBox="0 0 37.9548 37.9548" fill="none" xmlns="http://www.w3.org/2000/svg">
<g id="user (14) 3">
<path id="Vector" d="M11.4644 11.0699C11.4644 6.92807 14.8345 3.558 18.9763 3.558C23.1181 3.558 26.4882 6.92807 26.4882 11.0699C26.4882 15.2117 23.1181 18.5818 18.9763 18.5818C14.8345 18.5818 11.4644 15.2117 11.4644 11.0699ZM23.7206 20.954H14.2319C9.21872 20.954 5.13858 25.0341 5.13858 30.0473C5.13858 32.4464 7.08851 34.3963 9.48757 34.3963H28.465C30.864 34.3963 32.814 32.4464 32.814 30.0473C32.814 25.0341 28.7338 20.954 23.7206 20.954Z" fill="url(#paint0_linear_0_42)"/>
</g>
<defs>
<linearGradient id="paint0_linear_0_42" x1="-2.11757" y1="18.98" x2="43.0801" y2="18.98" gradientUnits="userSpaceOnUse">
<stop stop-color="#2C64EB"/>
<stop offset="0.5" stop-color="#00A875"/>
<stop offset="1" stop-color="#71B219"/>
</linearGradient>
</defs>
</svg>
