<svg preserveAspectRatio="xMidYMid meet" width="100%" height="100%" overflow="visible" style="display: block;" viewBox="0 0 37.9548 37.9548" fill="none" xmlns="http://www.w3.org/2000/svg">
<g id="user (14) 6">
<path id="Vector" d="M11.4631 11.0705C11.4631 6.9287 14.8332 3.55863 18.975 3.55863C23.1168 3.55863 26.4869 6.9287 26.4869 11.0705C26.4869 15.2123 23.1168 18.5824 18.975 18.5824C14.8332 18.5824 11.4631 15.2123 11.4631 11.0705ZM23.7193 20.9546H14.2306C9.21744 20.9546 5.13729 25.0347 5.13729 30.0479C5.13729 32.447 7.08722 34.3969 9.48628 34.3969H28.4637C30.8628 34.3969 32.8127 32.447 32.8127 30.0479C32.8127 25.0347 28.7325 20.9546 23.7193 20.9546Z" fill="url(#paint0_linear_0_44)"/>
</g>
<defs>
<linearGradient id="paint0_linear_0_44" x1="-2.11886" y1="18.9806" x2="43.0788" y2="18.9806" gradientUnits="userSpaceOnUse">
<stop stop-color="#2C64EB"/>
<stop offset="0.5" stop-color="#00A875"/>
<stop offset="1" stop-color="#71B219"/>
</linearGradient>
</defs>
</svg>
