<svg preserveAspectRatio="xMidYMid meet" width="100%" height="100%" overflow="visible" style="display: block;" viewBox="0 0 37.9548 37.9548" fill="none" xmlns="http://www.w3.org/2000/svg">
<g id="user (14) 10">
<path id="Vector" d="M11.4662 11.07C11.4662 6.92821 14.8363 3.55814 18.9781 3.55814C23.1199 3.55814 26.49 6.92821 26.49 11.07C26.49 15.2118 23.1199 18.5819 18.9781 18.5819C14.8363 18.5819 11.4662 15.2118 11.4662 11.07ZM23.7224 20.9541H14.2337C9.22054 20.9541 5.14039 25.0342 5.14039 30.0474C5.14039 32.4465 7.09032 34.3964 9.48938 34.3964H28.4668C30.8659 34.3964 32.8158 32.4465 32.8158 30.0474C32.8158 25.0342 28.7356 20.9541 23.7224 20.9541Z" fill="url(#paint0_linear_0_9)"/>
</g>
<defs>
<linearGradient id="paint0_linear_0_9" x1="-2.11576" y1="18.9801" x2="43.0819" y2="18.9801" gradientUnits="userSpaceOnUse">
<stop stop-color="#2C64EB"/>
<stop offset="0.5" stop-color="#00A875"/>
<stop offset="1" stop-color="#71B219"/>
</linearGradient>
</defs>
</svg>
