<svg preserveAspectRatio="xMidYMid meet" width="100%" height="100%" overflow="visible" style="display: block;" viewBox="0 0 37.9548 37.9548" fill="none" xmlns="http://www.w3.org/2000/svg">
<g id="user (14) 19">
<path id="Vector" d="M11.4641 11.0697C11.4641 6.92787 14.8341 3.55779 18.976 3.55779C23.1178 3.55779 26.4879 6.92787 26.4879 11.0697C26.4879 15.2115 23.1178 18.5816 18.976 18.5816C14.8341 18.5816 11.4641 15.2115 11.4641 11.0697ZM23.7203 20.9538H14.2316C9.21841 20.9538 5.13827 25.0339 5.13827 30.0471C5.13827 32.4462 7.0882 34.3961 9.48726 34.3961H28.4647C30.8637 34.3961 32.8137 32.4462 32.8137 30.0471C32.8137 25.0339 28.7335 20.9538 23.7203 20.9538Z" fill="url(#paint0_linear_0_18)"/>
</g>
<defs>
<linearGradient id="paint0_linear_0_18" x1="-2.11788" y1="18.9798" x2="43.0798" y2="18.9798" gradientUnits="userSpaceOnUse">
<stop stop-color="#2C64EB"/>
<stop offset="0.5" stop-color="#00A875"/>
<stop offset="1" stop-color="#71B219"/>
</linearGradient>
</defs>
</svg>
