<svg preserveAspectRatio="xMidYMid meet" width="100%" height="100%" overflow="visible" style="display: block;" viewBox="0 0 37.9548 37.9548" fill="none" xmlns="http://www.w3.org/2000/svg">
<g id="user (14) 13">
<path id="Vector" d="M11.4591 11.0702C11.4591 6.92834 14.8292 3.55827 18.971 3.55827C23.1128 3.55827 26.4829 6.92834 26.4829 11.0702C26.4829 15.212 23.1128 18.5821 18.971 18.5821C14.8292 18.5821 11.4591 15.212 11.4591 11.0702ZM23.7154 20.9542H14.2267C9.21347 20.9542 5.13332 25.0344 5.13332 30.0476C5.13332 32.4466 7.08325 34.3966 9.48231 34.3966H28.4597C30.8588 34.3966 32.8087 32.4466 32.8087 30.0476C32.8087 25.0344 28.7286 20.9542 23.7154 20.9542Z" fill="url(#paint0_linear_0_70)"/>
</g>
<defs>
<linearGradient id="paint0_linear_0_70" x1="-2.12282" y1="18.9802" x2="43.0749" y2="18.9802" gradientUnits="userSpaceOnUse">
<stop stop-color="#2C64EB"/>
<stop offset="0.5" stop-color="#00A875"/>
<stop offset="1" stop-color="#71B219"/>
</linearGradient>
</defs>
</svg>
