<svg preserveAspectRatio="xMidYMid meet" width="100%" height="100%" overflow="visible" style="display: block;" viewBox="0 0 40 40" fill="none" xmlns="http://www.w3.org/2000/svg">
<g id="wallet (4) 1">
<path id="XMLID_436_" d="M33.3333 27.875V30.2917C33.3333 31.6247 32.2648 32.7083 30.9524 32.7083H10.4762C8.37524 32.7083 6.66667 30.9741 6.66667 28.8417C6.66667 28.8417 6.66667 12.4228 6.66667 12.4083C6.66667 10.2759 8.37524 8.54167 10.4762 8.54167H28.0952C28.8848 8.54167 29.5238 9.19127 29.5238 9.99167C29.5238 10.7921 28.8848 11.4417 28.0952 11.4417H10.4762C9.95143 11.4417 9.52381 11.8747 9.52381 12.4083C9.52381 12.9419 9.95143 13.375 10.4762 13.375H30.9524C32.2648 13.375 33.3333 14.4586 33.3333 15.7917V18.2083H28.5714C25.9457 18.2083 23.8095 20.3766 23.8095 23.0417C23.8095 25.7068 25.9457 27.875 28.5714 27.875H33.3333Z" fill="var(--fill-0, white)"/>
<path id="XMLID_438_" d="M33.3333 20.2083V26.0417H28.6458C27.0924 26.0417 25.8333 24.736 25.8333 23.125C25.8333 21.514 27.0924 20.2083 28.6458 20.2083H33.3333Z" fill="var(--fill-0, white)"/>
</g>
</svg>
