<svg preserveAspectRatio="xMidYMid meet" width="100%" height="100%" viewBox="0 0 36 36" fill="none" xmlns="http://www.w3.org/2000/svg">
<g id="Group">
<path id="Vector" d="M18.0045 0H17.9955C8.07075 0 0 8.073 0 18C0 21.9375 1.269 25.587 3.42675 28.5503L1.1835 35.2373L8.10225 33.0255C10.9485 34.911 14.3437 36 18.0045 36C27.9292 36 36 27.9247 36 18C36 8.07525 27.9292 0 18.0045 0ZM28.4782 25.4182C28.044 26.6445 26.3205 27.6615 24.9457 27.9585C24.0052 28.1587 22.7767 28.3185 18.6412 26.604C13.3515 24.4125 9.945 19.0372 9.6795 18.6885C9.42525 18.3397 7.542 15.8423 7.542 13.2593C7.542 10.6763 8.85375 9.4185 9.3825 8.8785C9.81675 8.43525 10.5345 8.23275 11.223 8.23275C11.4457 8.23275 11.646 8.244 11.826 8.253C12.3548 8.2755 12.6202 8.307 12.969 9.14175C13.4032 10.188 14.4607 12.771 14.5867 13.0365C14.715 13.302 14.8433 13.662 14.6633 14.0108C14.4945 14.3708 14.346 14.5305 14.0805 14.8365C13.815 15.1425 13.563 15.3765 13.2975 15.705C13.0545 15.9908 12.78 16.2968 13.086 16.8255C13.392 17.343 14.4495 19.0687 16.0065 20.4547C18.0157 22.2435 19.6447 22.815 20.2275 23.058C20.6617 23.238 21.1792 23.1953 21.4965 22.8578C21.8992 22.4235 22.3965 21.7035 22.9027 20.9948C23.2627 20.4863 23.7173 20.4232 24.1943 20.6032C24.6803 20.772 27.252 22.0432 27.7808 22.3065C28.3095 22.572 28.6582 22.698 28.7865 22.9208C28.9125 23.1435 28.9125 24.1897 28.4782 25.4182Z" fill="url(#paint0_linear_0_19)"/>
</g>
<defs>
<linearGradient id="paint0_linear_0_19" x1="-9.43876" y1="18.0033" x2="49.3541" y2="18.0033" gradientUnits="userSpaceOnUse">
<stop stop-color="#2C64EB"/>
<stop offset="0.5" stop-color="#00A875"/>
<stop offset="1" stop-color="#71B219"/>
</linearGradient>
</defs>
</svg>
